<?xml version="1.0" standalone="no"?>
<!DOCTYPE svg PUBLIC "-//W3C//DTD SVG 1.1//EN" "http://www.w3.org/Graphics/SVG/1.1/DTD/svg11.dtd" >
<svg xmlns="http://www.w3.org/2000/svg">
<metadata>
Created by FontPrep 20130207 at Fri May 26 16:13:05 2017
 By Lizzy Knight
Copyright 2016 by URW++ Design &#38; Development GmbH
</metadata>
<defs>
<font id="7681ca9353da2f9221252527c1344617" horiz-adv-x='1024' >
  <font-face 
    font-family="URWDINSemiCond-Regular"
    font-weight="400"
    font-stretch="normal"
    units-per-em="2048"
    panose-1="0 0 5 0 0 0 0 0 0 0"
    ascent="1462"
    descent="-586"
    x-height="1028"
    cap-height="1462"
    bbox="-176 -498 2136.02 2075"
    underline-thickness="114"
    underline-position="-184"
    unicode-range="U+0020-FB04"
  />
<missing-glyph horiz-adv-x="368" 
 />
    <glyph glyph-name="ff" unicode="ff" horiz-adv-x="1120" 
d="M725 901h-104v127h104v164q0 158 54 215t202 55h82v-125h-47q-84 3 -111 -27t-26 -132v-150h192v-127h-192v-901h-154v901zM188 901h-108v127h108v164q0 158 54 215t202 55h76v-125h-41q-85 3 -111 -27t-26 -132v-150h166v-127h-166v-901h-154v901z" />
    <glyph glyph-name="fi" unicode="fi" horiz-adv-x="1038" 
d="M731 0v1028h154v-1028h-154zM731 1255v213h154v-213h-154zM188 901h-108v127h108v164q0 158 54 215t202 55h82v-125h-47q-85 3 -111 -27t-26 -132v-150h193v-127h-193v-901h-154v901z" />
    <glyph glyph-name="fl" unicode="fl" horiz-adv-x="1097" 
d="M729 1462h154v-1143q-3 -109 29 -149t116 -41h43v-129h-49q-174 0 -234 67q-59 67 -59 265v1130zM188 901h-108v127h108v164q0 158 54 215t202 55h82v-125h-47q-85 3 -111 -27t-26 -132v-150h193v-127h-193v-901h-154v901z" />
    <glyph glyph-name="ffi" unicode="ffi" horiz-adv-x="1574" 
d="M1268 0v1028h153v-1028h-153zM1268 1255v213h153v-213h-153zM725 901h-104v127h104v164q0 158 54 215t202 55h82v-125h-47q-84 3 -111 -27t-26 -132v-150h192v-127h-192v-901h-154v901zM188 901h-108v127h108v164q0 158 54 215t202 55h76v-125h-41q-85 3 -111 -27
t-26 -132v-150h166v-127h-166v-901h-154v901z" />
    <glyph glyph-name="ffl" unicode="ffl" horiz-adv-x="1636" 
d="M1266 1462h153v-1143q-2 -109 30 -149t116 -41h43v-129h-47q-176 2 -236 68q-59 66 -59 264v1130zM725 901h-104v127h104v164q0 158 54 215t202 55h82v-125h-47q-84 3 -111 -27t-26 -132v-150h192v-127h-192v-901h-154v901zM188 901h-108v127h108v164q0 158 54 215
t202 55h76v-125h-41q-85 3 -111 -27t-26 -132v-150h166v-127h-166v-901h-154v901z" />
    <glyph glyph-name=".notdef" horiz-adv-x="368" 
 />
    <glyph glyph-name=".null" horiz-adv-x="0" 
 />
    <glyph glyph-name="nonmarkingreturn" horiz-adv-x="681" 
 />
    <glyph glyph-name="space" unicode=" " horiz-adv-x="368" 
 />
    <glyph glyph-name="exclam" unicode="!" horiz-adv-x="542" 
d="M195 0v199h153v-199h-153zM207 389l-23 1073h172l-22 -1073h-127z" />
    <glyph glyph-name="quotedbl" unicode="&#x22;" horiz-adv-x="710" 
d="M442 928l-12 534h160l-10 -534h-138zM131 928l-10 534h158l-11 -534h-137z" />
    <glyph glyph-name="numbersign" unicode="#" 
d="M383 586h192l27 243h-192zM252 586l29 243h-203l16 107h201l45 373h129l-43 -373h192l44 373h131l-45 -373h204l-16 -107h-203l-26 -243h200l-16 -107h-201l-45 -383h-131l45 383h-192l-45 -383h-132l48 383h-205l16 107h203z" />
    <glyph glyph-name="dollar" unicode="$" 
d="M481 147q266 0 267 256q0 127 -72 189q-33 29 -64 41t-187 58t-239 140q-82 94 -82 252q0 215 148 308q55 37 168 51v221h153v-227q223 -33 275 -258l-135 -39q-33 94 -87 135t-154 41q-100 1 -157 -57t-57 -166t61 -169q61 -59 199 -101t181 -60q44 -18 87 -53
q115 -96 115 -291q0 -350 -328 -393v-295h-153v290q-299 36 -348 304l135 38q55 -215 274 -215z" />
    <glyph glyph-name="percent" unicode="%" horiz-adv-x="1552" 
d="M512 0l385 1462h145l-387 -1462h-143zM1348 293v184q0 105 -32 155t-104 50t-104 -49t-31 -156v-184q0 -107 33 -155q32 -48 102 -48t103 48t33 155zM942 289v192q0 160 65 232q65 71 205 71t206 -72q65 -72 65 -231v-192q0 -158 -65 -231q-65 -72 -206 -72
q-142 0 -206 72t-64 231zM475 989v185q0 106 -32 154q-33 48 -103 48t-102 -48t-31 -154v-185q0 -106 32 -155t103 -50q133 0 133 205zM72 985v193q0 158 64 230t205 73q140 0 205 -73t64 -230v-193q0 -159 -64 -231t-205 -72t-205 72t-64 231z" />
    <glyph glyph-name="ampersand" unicode="&#x26;" horiz-adv-x="1392" 
d="M322 308q0 -114 56 -176t165 -62q150 0 273 133q36 39 44 47l-276 428q-146 -96 -204 -176t-58 -194zM657 1376q-80 0 -125 -51t-45 -121q-1 -70 13 -107t66 -129t57 -100q205 139 204 306q0 96 -45 149t-125 53zM508 -63q-162 0 -254 97q-92 96 -92 288t162 348
q45 42 98 76t74 51q-160 242 -160 388t85 232t233 86t237 -89q88 -89 88 -240q0 -233 -272 -420l245 -383q80 141 113 297h149q-57 -236 -170 -420l170 -248h-182l-88 137q-84 -82 -137 -114q-137 -86 -299 -86z" />
    <glyph glyph-name="quotesingle" unicode="'" horiz-adv-x="401" 
d="M131 928l-10 534h158l-11 -534h-137z" />
    <glyph glyph-name="parenleft" unicode="(" horiz-adv-x="741" 
d="M393 706q0 -474 223 -882l-108 -72q-274 410 -274 954t274 953l108 -72q-223 -407 -223 -881z" />
    <glyph glyph-name="parenright" unicode=")" horiz-adv-x="741" 
d="M508 706q0 -540 -272 -954l-111 72q223 414 223 882t-223 881l111 72q272 -413 272 -953z" />
    <glyph glyph-name="asterisk" unicode="*" 
d="M492 1077l-164 -293l-131 80l194 283l-301 72l41 139l295 -103l-12 324h155l-14 -324l295 103l41 -139l-301 -72l194 -283l-129 -80z" />
    <glyph glyph-name="plus" unicode="+" 
d="M82 684v125h342v375h135v-375h340v-125h-340v-375h-135v375h-342z" />
    <glyph glyph-name="comma" unicode="," horiz-adv-x="487" 
d="M92 -385l82 582h170l-117 -582h-135z" />
    <glyph glyph-name="hyphen" unicode="-" horiz-adv-x="811" 
d="M160 678v135h491v-135h-491z" />
    <glyph glyph-name="period" unicode="." horiz-adv-x="489" 
d="M164 0v199h160v-199h-160z" />
    <glyph glyph-name="slash" unicode="/" horiz-adv-x="700" 
d="M70 -45l409 1552h154l-410 -1552h-153z" />
    <glyph glyph-name="zero" unicode="0" 
d="M705 492v479q-1 199 -51 287t-162 90q-112 0 -161 -90q-50 -90 -50 -287v-479q0 -199 50 -288t162 -89t162 89t50 288zM123 475v512q0 254 90 374q89 120 279 120t280 -120t90 -374v-512q0 -254 -90 -374q-90 -119 -279 -119t-280 119q-90 120 -90 374z" />
    <glyph glyph-name="one" unicode="1" 
d="M438 0v1290l-217 -108l-55 125l323 155h109v-1462h-160z" />
    <glyph glyph-name="two" unicode="2" 
d="M96 0v109l359 520q113 167 155 275t41 210q0 233 -186 234q-184 0 -207 -248l-149 6q31 375 356 375q170 0 258 -93t88 -276q0 -137 -47 -248t-203 -342l-264 -387h518v-135h-719z" />
    <glyph glyph-name="three" unicode="3" 
d="M690 395q0 145 -70 228q-71 82 -198 82h-109v129h101q116 0 180 68t63 190q0 256 -202 256q-176 0 -203 -222l-146 9q8 170 100 258t261 88q170 1 260 -97t90 -286q0 -123 -43 -201t-139 -127q113 -51 164 -141t51 -236q0 -203 -98 -307t-289 -104q-365 0 -385 362
l151 10q12 -240 228 -239q233 0 233 280z" />
    <glyph glyph-name="four" unicode="4" 
d="M614 0v272h-520v101l410 1089h166l-398 -1056h342v444h148v-444h127v-136h-127v-270h-148z" />
    <glyph glyph-name="five" unicode="5" 
d="M813 1462v-135h-459l-37 -477q68 37 102 46t91 9q176 1 259 -109t83 -346t-82 -346q-96 -123 -299 -122q-354 0 -371 362l152 10q6 -115 61 -177t156 -62q223 0 223 323q0 182 -48 260t-162 78t-203 -92l-115 23l55 755h594z" />
    <glyph glyph-name="six" unicode="6" 
d="M496 776q-108 0 -158 -80q-49 -80 -49 -256t48 -252t157 -76q110 0 156 78t46 253t-46 254t-154 79zM541 901q174 0 254 -135q59 -98 59 -338t-92 -344t-280 -102q-188 0 -279 127q-72 92 -72 325q0 127 17 202t79 208l289 618h178l-284 -592l61 23q23 8 70 8z" />
    <glyph glyph-name="seven" unicode="7" 
d="M141 1327v135h684v-96l-405 -1366h-170l412 1327h-521z" />
    <glyph glyph-name="eight" unicode="8" 
d="M493 702q-118 0 -170 -68q-53 -68 -53 -226t52 -227t170 -69q119 0 171 70q52 68 52 225t-52 226t-170 69zM492 1356q-104 0 -150 -60t-45 -203q0 -143 45 -205q44 -62 148 -62t150 62t46 202t-45 204q-45 62 -149 62zM147 1096q0 199 83 292q84 93 262 93t261 -93
t83 -294q0 -127 -33 -201t-111 -119q96 -43 138 -128t42 -240q0 -224 -93 -324t-295 -100t-298 122q-74 88 -73 302q0 158 41 242t139 126q-82 47 -114 119t-32 203z" />
    <glyph glyph-name="nine" unicode="9" 
d="M692 1051q0 159 -48 229t-156 70t-155 -70q-48 -70 -48 -232t47 -233q47 -72 154 -72t157 75q49 75 49 233zM127 1064q0 227 88 316q95 100 281 100t282 -118q72 -92 72 -303q0 -117 -15 -189t-67 -180l-315 -690h-177l304 653q-72 -33 -146 -32q-168 0 -248 124
q-59 92 -59 319z" />
    <glyph glyph-name="colon" unicode=":" horiz-adv-x="489" 
d="M164 829v199h160v-199h-160zM164 0v199h160v-199h-160z" />
    <glyph glyph-name="semicolon" unicode=";" horiz-adv-x="487" 
d="M178 829v199h160v-199h-160zM92 -385l82 582h170l-117 -582h-135z" />
    <glyph glyph-name="less" unicode="&#x3c;" 
d="M266 750l551 -297v-146l-719 400v88l719 399v-145z" />
    <glyph glyph-name="equal" unicode="=" 
d="M109 836v120h768v-120h-768zM109 535v122h768v-122h-768z" />
    <glyph glyph-name="greater" unicode="&#x3e;" 
d="M717 750l-551 299v145l719 -399v-88l-719 -400v146z" />
    <glyph glyph-name="question" unicode="?" horiz-adv-x="1003" 
d="M416 0v199h153v-199h-153zM428 385v72q-2 117 31 189t119 163q86 92 106 127q45 80 45 180t-58 166q-59 66 -159 66t-156 -68t-75 -215l-150 12q37 403 387 404q176 -1 274 -99t97 -265q0 -167 -90 -286q-25 -35 -135 -149t-109 -238v-59h-127z" />
    <glyph glyph-name="at" unicode="@" horiz-adv-x="1591" 
d="M848 973q-98 0 -166 -133q-66 -135 -66 -307q0 -173 108 -173t181 152q68 139 68 285q0 82 -34 129t-91 47zM1051 449q0 -88 79 -89q106 0 177 123q70 123 69 314q0 274 -146 428q-146 153 -417 153t-424 -192q-170 -208 -170 -560t150 -516t454 -165q221 0 428 102
l43 -94q-215 -119 -469 -119q-737 0 -737 770q0 416 195 650t524 234t513 -186q184 -187 183 -507q1 -242 -107 -394t-278 -151q-82 0 -121 38t-47 124q-55 -90 -109 -128q-53 -38 -147 -38t-152 74t-59 210q0 242 111 408q94 145 244 145q74 1 116 -31t72 -110l25 119h100
l-88 -504q-12 -66 -12 -108z" />
    <glyph glyph-name="A" unicode="A" horiz-adv-x="1040" 
d="M745 457l-223 788l-225 -788h448zM780 324h-518l-90 -324h-174l453 1462h143l450 -1462h-172z" />
    <glyph glyph-name="B" unicode="B" horiz-adv-x="1122" 
d="M854 403q0 283 -225 283h-289v-553h276q122 0 180 65t58 205zM340 819h266q225 0 225 254q0 141 -71 209q-53 47 -164 47h-256v-510zM180 0v1462h420q203 0 291 -88q100 -104 100 -289q0 -229 -157 -321q74 -43 106 -90q74 -102 74 -298t-113 -298q-80 -78 -264 -78h-457
z" />
    <glyph glyph-name="C" unicode="C" horiz-adv-x="1097" 
d="M561 -18q-231 0 -338 161q-74 115 -73 367v440q0 272 99 400t301 128q396 1 408 -384l-149 -7q-18 258 -244 259q-137 0 -196 -94t-60 -308v-428q-1 -213 59 -307t187 -94q254 0 266 270l150 -8q-5 -193 -111 -294t-299 -101z" />
    <glyph glyph-name="D" unicode="D" horiz-adv-x="1173" 
d="M340 133h215q162 -2 236 86t73 289v448q0 199 -73 287q-74 88 -236 86h-215v-1196zM180 0v1462h389q229 4 344 -119t111 -366v-492q4 -245 -111 -367t-344 -118h-389z" />
    <glyph glyph-name="E" unicode="E" horiz-adv-x="1003" 
d="M180 0v1462h723v-135h-563v-520h479v-135h-479v-537h567v-135h-727z" />
    <glyph glyph-name="F" unicode="F" horiz-adv-x="946" 
d="M180 0v1462h717v-135h-557v-530h473v-135h-473v-662h-160z" />
    <glyph glyph-name="G" unicode="G" horiz-adv-x="1146" 
d="M614 635v129h404v-264q0 -256 -90 -371q-114 -147 -354 -147t-347 161q-78 113 -77 367v440q0 274 94 391q112 137 316 137q403 1 417 -384l-148 -7q-16 258 -254 259q-143 0 -204 -94t-62 -308v-428q-1 -215 63 -308t210 -93q279 0 278 354v166h-246z" />
    <glyph glyph-name="H" unicode="H" horiz-adv-x="1179" 
d="M180 0v1462h160v-655h502v655h159v-1462h-159v672h-502v-672h-160z" />
    <glyph glyph-name="I" unicode="I" horiz-adv-x="518" 
d="M180 0v1462h160v-1462h-160z" />
    <glyph glyph-name="J" unicode="J" horiz-adv-x="794" 
d="M465 1462h160v-952q1 -168 -9 -242t-36 -125q-80 -162 -299 -161q-178 0 -310 131l92 106q96 -104 207 -104q133 0 176 135q18 63 19 254v958z" />
    <glyph glyph-name="K" unicode="K" horiz-adv-x="1071" 
d="M180 0v1462h160v-770l510 770h180l-407 -598l444 -864h-178l-365 739l-184 -270v-469h-160z" />
    <glyph glyph-name="L" unicode="L" horiz-adv-x="933" 
d="M180 0v1462h160v-1327h573v-135h-733z" />
    <glyph glyph-name="M" unicode="M" horiz-adv-x="1413" 
d="M180 0v1462h154l375 -944l372 944h154v-1462h-154v1120l-323 -823h-101l-323 823v-1120h-154z" />
    <glyph glyph-name="N" unicode="N" horiz-adv-x="1249" 
d="M180 0v1462h156l579 -1157v1157h154v-1462h-154l-581 1159v-1159h-154z" />
    <glyph glyph-name="O" unicode="O" horiz-adv-x="1171" 
d="M860 502v459q0 201 -66 293t-210 94q-143 0 -209 -94t-66 -293v-459q0 -201 66 -294t209 -93t210 93q66 93 66 294zM150 485v492q0 252 98 366q114 137 348 137t344 -159q80 -111 80 -344v-492q0 -252 -98 -366q-114 -137 -348 -137t-345 159q-79 115 -79 344z" />
    <glyph glyph-name="P" unicode="P" horiz-adv-x="1054" 
d="M338 707h213q143 0 205 77q61 84 61 243q1 159 -65 231t-199 71h-215v-622zM340 573v-573h-160v1462h373q127 0 203 -28q221 -80 221 -426q0 -224 -109 -334q-94 -100 -315 -101h-213z" />
    <glyph glyph-name="Q" unicode="Q" horiz-adv-x="1171" 
d="M860 961q0 201 -66 293t-210 94q-143 0 -209 -94t-66 -293v-459q0 -203 67 -295q68 -92 196 -92t194 63l-201 180l90 93l181 -160q25 84 24 211v459zM590 -18q-246 0 -361 159q-80 115 -79 344v492q0 252 98 366q114 137 348 137t344 -159q80 -111 80 -344v-492
q0 -193 -57 -307l141 -125l-90 -94l-131 117q-109 -94 -293 -94z" />
    <glyph glyph-name="R" unicode="R" horiz-adv-x="1120" 
d="M340 768h231q139 0 199 70t61 213q0 143 -63 211t-203 67h-225v-561zM342 637v-637h-160v1462h393q225 0 321 -103t95 -304q0 -340 -254 -400l275 -655h-176l-252 637h-242z" />
    <glyph glyph-name="S" unicode="S" horiz-adv-x="1013" 
d="M492 115q274 0 274 276q0 129 -72 195q-34 29 -66 42t-159 52q-188 55 -270 150q-82 96 -82 270t101 277q102 103 272 103t259 -70q89 -71 121 -220l-139 -37q-31 107 -83 151t-154 44t-162 -66t-60 -182t62 -180t202 -106t182 -60q204 -87 204 -355q0 -203 -110 -311
t-305 -106q-195 0 -295 74q-99 75 -136 243l139 39q33 -117 99 -170t178 -53z" />
    <glyph glyph-name="T" unicode="T" horiz-adv-x="927" 
d="M385 0v1327h-340v135h838v-135h-338v-1327h-160z" />
    <glyph glyph-name="U" unicode="U" horiz-adv-x="1196" 
d="M174 1462h160v-993q0 -174 43 -242q66 -113 213 -112q92 -1 148 29t89 98t33 227v993h160v-993q0 -137 -15 -209t-59 -129q-112 -149 -360 -149t-353 172q-59 94 -59 315v993z" />
    <glyph glyph-name="V" unicode="V" horiz-adv-x="1005" 
d="M436 0l-409 1462h161l316 -1204l315 1204h162l-410 -1462h-135z" />
    <glyph glyph-name="W" unicode="W" horiz-adv-x="1540" 
d="M352 0l-295 1462h160l213 -1179l283 1179h114l281 -1179l215 1179h160l-295 -1462h-139l-279 1153l-278 -1153h-140z" />
    <glyph glyph-name="X" unicode="X" horiz-adv-x="989" 
d="M403 772l-333 690h174l268 -563l250 563h168l-338 -719l360 -743h-174l-297 616l-272 -616h-168z" />
    <glyph glyph-name="Y" unicode="Y" horiz-adv-x="935" 
d="M389 0v532l-389 930h168l301 -747l301 747h168l-389 -930v-532h-160z" />
    <glyph glyph-name="Z" unicode="Z" horiz-adv-x="935" 
d="M82 0v102l563 1225h-528v135h704v-102l-563 -1225h590v-135h-766z" />
    <glyph glyph-name="bracketleft" unicode="[" horiz-adv-x="741" 
d="M268 -201v1813h340v-117h-186v-1579h186v-117h-340z" />
    <glyph glyph-name="backslash" unicode="\" horiz-adv-x="700" 
d="M631 -45h-154l-409 1552h153z" />
    <glyph glyph-name="bracketright" unicode="]" horiz-adv-x="741" 
d="M471 1612v-1813h-340v117h186v1579h-186v117h340z" />
    <glyph glyph-name="asciicircum" unicode="^" 
d="M492 1286l-234 -504h-174l365 691h86l364 -691h-174z" />
    <glyph glyph-name="underscore" unicode="_" horiz-adv-x="808" 
d="M-43 -356v114h895v-114h-895z" />
    <glyph glyph-name="grave" unicode="`" horiz-adv-x="1024" 
d="M608 1192h-114l-199 289h182z" />
    <glyph glyph-name="a" unicode="a" horiz-adv-x="925" 
d="M627 483h-176q-121 0 -170 -45t-49 -147t42 -141q43 -39 157 -39t155 42t41 158v172zM627 602v74q0 133 -42 188q-41 56 -129 56t-130 -36t-70 -118l-131 39q63 242 321 242q213 0 291 -136q43 -78 43 -252v-659h-123l-10 72q-43 -50 -97 -70t-153 -20q-171 0 -243 68
t-72 240t77 242t265 70h203z" />
    <glyph glyph-name="b" unicode="b" horiz-adv-x="987" 
d="M707 410v217q0 289 -195 288q-207 0 -207 -319v-164q0 -319 207 -319q195 0 195 297zM152 0v1462h153v-506q88 90 243 90q312 1 312 -417v-217q0 -222 -80 -326t-248 -104q-88 0 -139 20t-110 80l-11 -82h-120z" />
    <glyph glyph-name="c" unicode="c" horiz-adv-x="858" 
d="M456 -18q-158 0 -244 108q-85 108 -85 330v176q0 236 85 344t269 109q131 -1 201 -57t100 -187l-133 -39q-20 84 -59 120t-111 36q-102 0 -150 -76t-48 -240v-198q0 -297 202 -297q76 1 118 37t58 116l136 -26q-23 -132 -102 -194t-237 -62z" />
    <glyph glyph-name="d" unicode="d" horiz-adv-x="987" 
d="M281 627v-215q0 -299 196 -299q205 0 205 319v164q0 319 -207 319q-194 1 -194 -288zM448 -18q-162 0 -241 104q-80 104 -80 326v217q0 213 79 315t245 103q82 1 131 -19t100 -72v506h154v-1462h-121l-10 82l-9 -8q-86 -92 -248 -92z" />
    <glyph glyph-name="e" unicode="e" horiz-adv-x="954" 
d="M281 604h411v43q0 270 -205 271q-207 0 -206 -271v-43zM281 485v-86q0 -289 219 -288q82 -1 127 35t63 118l133 -28q-23 -131 -102 -193q-80 -61 -227 -61q-188 0 -278 108q-89 109 -89 340v164q0 236 86 344t271 109q184 0 270 -109t86 -344v-109h-559z" />
    <glyph glyph-name="f" unicode="f" horiz-adv-x="581" 
d="M188 901h-108v127h108v164q0 158 54 215t202 55h82v-125h-47q-85 3 -111 -27t-26 -132v-150h193v-127h-193v-901h-154v901z" />
    <glyph glyph-name="g" unicode="g" horiz-adv-x="989" 
d="M281 627v-215q0 -299 196 -299q207 0 207 319v164q0 322 -207 322q-196 0 -196 -291zM684 -55v127q-84 -90 -240 -90q-316 0 -317 432v213q0 215 79 317t243 102t251 -104l17 86h121v-1067q0 -225 -90 -333t-279 -107q-135 0 -209 54t-102 175l131 35q23 -76 63 -108
t115 -31q113 0 165 72t52 227z" />
    <glyph glyph-name="h" unicode="h" horiz-adv-x="989" 
d="M152 0v1462h153v-501q84 86 230 86q219 0 284 -179q27 -74 27 -239v-629h-154v612q0 164 -42 233t-146 69t-152 -82q-47 -80 -47 -265v-567h-153z" />
    <glyph glyph-name="i" unicode="i" horiz-adv-x="458" 
d="M154 0v1028h153v-1028h-153zM154 1255v213h153v-213h-153z" />
    <glyph glyph-name="j" unicode="j" horiz-adv-x="468" 
d="M162 1255v213h153v-213h-153zM162 1028h153v-1057q5 -248 -75 -346t-287 -96v131q115 -6 164 62t45 233v1073z" />
    <glyph glyph-name="k" unicode="k" horiz-adv-x="911" 
d="M154 0v1462h153v-999l373 565h172l-299 -434l326 -594h-168l-250 475l-154 -227v-248h-153z" />
    <glyph glyph-name="l" unicode="l" horiz-adv-x="520" 
d="M152 1462h153v-1143q-2 -109 30 -149t116 -41h43v-129h-50q-174 0 -233 67t-59 265v1130z" />
    <glyph glyph-name="m" unicode="m" horiz-adv-x="1468" 
d="M152 0v1028h118l11 -100q47 66 100 94t135 27q188 0 252 -144q80 143 256 144q213 0 272 -179q27 -80 27 -241v-629h-154v612q0 164 -39 234t-134 70t-138 -82q-43 -80 -43 -261v-573h-153v612q0 164 -39 234t-135 70t-140 -82q-43 -82 -43 -271v-563h-153z" />
    <glyph glyph-name="n" unicode="n" horiz-adv-x="989" 
d="M152 0v1028h118l11 -100q45 66 102 94t147 27q223 0 289 -179q27 -78 27 -241v-629h-154v612q0 164 -42 234t-146 70t-152 -82q-47 -80 -47 -271v-563h-153z" />
    <glyph glyph-name="o" unicode="o" horiz-adv-x="974" 
d="M696 403v224q0 151 -49 221t-159 70t-158 -70t-49 -221v-224q0 -153 49 -223q50 -70 158 -70t158 70q50 69 50 223zM127 403v222q0 219 87 320t275 101q189 0 275 -100q86 -102 86 -321v-222q0 -219 -86 -320t-274 -101t-276 101q-87 101 -87 320z" />
    <glyph glyph-name="p" unicode="p" horiz-adv-x="987" 
d="M707 410v217q0 289 -195 288q-207 0 -207 -319v-164q0 -319 207 -319q195 0 195 297zM860 412q0 -430 -314 -430q-154 0 -241 81v-524h-153v1489h120l17 -82q88 100 251 100q164 0 242 -102t78 -315v-217z" />
    <glyph glyph-name="q" unicode="q" horiz-adv-x="987" 
d="M281 627v-215q0 -299 196 -299q205 0 205 319v164q0 319 -205 319q-196 1 -196 -288zM127 412v217q0 213 79 315t242 102t250 -100l17 82h121v-1489h-154l2 524q-88 -81 -242 -81q-314 2 -315 430z" />
    <glyph glyph-name="r" unicode="r" horiz-adv-x="665" 
d="M152 0v1028h120l17 -90q68 109 207 109q86 0 170 -54l-68 -129q-61 47 -121 47q-90 0 -131 -96t-41 -313v-502h-153z" />
    <glyph glyph-name="s" unicode="s" horiz-adv-x="845" 
d="M100 758q0 137 79 213t225 76q146 -1 220 -57q75 -56 103 -183l-131 -31q-35 143 -182 144q-80 0 -124 -42t-44 -119t42 -113t189 -66t207 -78q80 -63 80 -219q0 -301 -358 -301q-300 0 -351 254l133 30q23 -84 74 -121t146 -36q211 0 210 176q0 94 -59 131
q-39 24 -183 52t-202 85q-74 68 -74 205z" />
    <glyph glyph-name="t" unicode="t" horiz-adv-x="585" 
d="M180 901h-106v127h106l8 330h146v-330h170v-127h-170v-594q-2 -100 28 -139t113 -39h33v-129h-39q-176 0 -232 63t-57 259v579z" />
    <glyph glyph-name="u" unicode="u" horiz-adv-x="968" 
d="M143 1028h154v-612q0 -164 40 -233t139 -69t144 83q44 82 44 268v563h153v-1028h-119l-10 100q-47 -66 -101 -92t-138 -26q-215 0 -279 178q-27 74 -27 241v627z" />
    <glyph glyph-name="v" unicode="v" horiz-adv-x="856" 
d="M358 0l-311 1028h156l225 -817l227 817h154l-311 -1028h-140z" />
    <glyph glyph-name="w" unicode="w" horiz-adv-x="1339" 
d="M330 0l-262 1028h155l178 -790l215 790h107l215 -790l180 790h156l-262 -1028h-127l-215 770l-215 -770h-125z" />
    <glyph glyph-name="x" unicode="x" horiz-adv-x="811" 
d="M317 528l-262 500h170l191 -377l186 377h166l-276 -508l270 -520h-170l-199 395l-194 -395h-166z" />
    <glyph glyph-name="y" unicode="y" horiz-adv-x="856" 
d="M104 -340q100 0 139 33q38 33 72 149l41 154l-315 1032h154l239 -848l217 848h156l-336 -1202q-55 -186 -123 -240t-244 -57v131z" />
    <glyph glyph-name="z" unicode="z" horiz-adv-x="815" 
d="M74 0v94l436 805h-401v129h585v-94l-438 -805h465v-129h-647z" />
    <glyph glyph-name="braceleft" unicode="{" horiz-adv-x="741" 
d="M618 -92v-109h-67q-174 0 -229 79t-52 315v233q2 168 -23 219q-26 51 -116 55h-14v97h14q90 4 116 54t23 218v148q-4 239 52 317t229 78h67v-109h-34q-98 -3 -129 -67t-29 -267v-102q4 -166 -16 -225t-95 -94q72 -34 94 -94t17 -224v-188q-2 -203 29 -268t129 -66h34z
" />
    <glyph glyph-name="bar" unicode="|" 
d="M424 -201v1813h135v-1813h-135z" />
    <glyph glyph-name="braceright" unicode="}" horiz-adv-x="741" 
d="M123 1503v109h67q174 0 230 -79t53 -316v-148q-4 -168 23 -219t114 -53h15v-97h-15q-90 -4 -114 -55t-23 -219v-233q4 -236 -52 -315t-231 -79h-67v109h35q100 2 131 66q30 65 28 268v188q-4 164 18 224t93 94q-74 37 -94 95t-17 224v102q2 203 -28 268q-31 65 -131 66
h-35z" />
    <glyph glyph-name="asciitilde" unicode="~" 
d="M662 727q80 0 126 143l95 -28q-39 -128 -92 -182t-140 -54q-45 0 -79 16t-97 64q-63 50 -90 64t-57 14q-82 -1 -129 -148l-97 23q35 129 88 187t140 59q51 1 87 -15q37 -16 115 -80t130 -63z" />
    <glyph glyph-name="uni00A0" unicode="&#xa0;" horiz-adv-x="368" 
 />
    <glyph glyph-name="exclamdown" unicode="&#xa1;" horiz-adv-x="542" 
d="M346 1026v-199h-153v199h153zM334 637l22 -1073h-172l23 1073h127z" />
    <glyph glyph-name="cent" unicode="&#xa2;" 
d="M455 78v231q-285 37 -283 428v176q-2 207 67 313t216 130v221h153v-223q100 -20 150 -74t76 -164l-127 -33q-21 84 -63 120t-116 36q-110 0 -158 -76t-48 -239v-199q0 -299 208 -299q80 0 125 38t62 122l129 -31q-23 -113 -77 -169t-161 -75v-233h-153z" />
    <glyph glyph-name="sterling" unicode="&#xa3;" 
d="M109 0v117q92 39 149 136t57 195t-26 179h-185v135h132q-59 127 -76 188q-16 61 -17 144q1 186 97 286t272 100t268 -94t115 -294l-141 -27q-18 153 -74 219t-160 66t-160 -68t-57 -186q-1 -72 19 -133t86 -201h305v-135h-267q20 -82 21 -146q0 -209 -137 -346h588v-135
h-809z" />
    <glyph glyph-name="currency" unicode="&#xa4;" 
d="M494 983q-113 0 -184 -82q-70 -82 -70 -217t70 -217t182 -82q114 0 184 83t69 216q0 133 -69 216t-182 83zM492 1100q122 0 229 -76l149 168l80 -74l-153 -172q80 -115 80 -262t-80 -262l153 -172l-80 -76l-149 170q-106 -76 -228 -76t-229 76l-149 -170l-80 76l153 172
q-80 115 -79 262q0 147 79 262l-153 172l80 74l149 -168q106 76 228 76z" />
    <glyph glyph-name="yen" unicode="&#xa5;" 
d="M412 0v311h-275v99h275v139h-275v98h234l-346 815h168l299 -741l301 741h168l-349 -815h236v-98h-277v-139h277v-99h-277v-311h-159z" />
    <glyph glyph-name="brokenbar" unicode="&#xa6;" horiz-adv-x="860" 
d="M356 0v510h148v-510h-148zM356 932v530h148v-530h-148z" />
    <glyph glyph-name="section" unicode="&#xa7;" 
d="M262 678q0 -98 39 -138t178 -94l105 -38l47 32q78 56 78 150t-37 136t-180 95l-105 41q-4 -3 -45 -31q-80 -55 -80 -153zM460 -80q87 0 143 48t56 125q1 77 -29 115t-70 58t-177 64t-203 111t-66 177t36 167q35 58 135 128q-67 45 -93 99t-26 145q0 156 84 240t226 84
q142 -1 216 -53t109 -166l-133 -41q-27 71 -65 101q-39 30 -113 30t-122 -48t-48 -127t36 -125q37 -46 207 -104q169 -58 231 -124q62 -67 62 -174q0 -108 -38 -170t-130 -126q70 -45 98 -96t27 -135q0 -162 -91 -247q-92 -85 -248 -85t-242 59q-85 59 -123 185l131 39
l10 -19q35 -75 79 -105t131 -30z" />
    <glyph glyph-name="dieresis" unicode="&#xa8;" horiz-adv-x="1024" 
d="M610 1208v209h140v-209h-140zM272 1208v209h140v-209h-140z" />
    <glyph glyph-name="copyright" unicode="&#xa9;" horiz-adv-x="1599" 
d="M798 1380q-268 0 -444 -196q-160 -182 -160 -459t172 -460q171 -183 435 -183t435 183t171 465t-170 466q-171 184 -439 184zM802 1489q318 0 524 -216t206 -544t-207 -542t-524 -214t-525 214q-206 214 -206 545t208 544q206 213 524 213zM551 674v114q0 160 60 232
t198 72q233 0 242 -195l-113 -4q-12 102 -125 102q-75 0 -107 -46t-32 -152v-131q0 -106 33 -152t106 -47q115 0 133 102l113 -4q-6 -195 -250 -194q-137 0 -198 70q-60 71 -60 233z" />
    <glyph glyph-name="ordfeminine" unicode="&#xaa;" horiz-adv-x="589" 
d="M391 1112h-106q-70 0 -98 -25q-27 -25 -27 -83t24 -82q24 -23 88 -23q63 0 92 25q28 25 27 82v106zM385 1194v51q0 76 -24 107q-24 30 -91 30t-102 -73l-94 32q54 133 208 133t201 -85q25 -43 25 -156v-412h-100l-5 41q-55 -53 -161 -53t-153 42q-46 41 -46 147t54 151
t186 45h102z" />
    <glyph glyph-name="guillemotleft" unicode="&#xab;" horiz-adv-x="757" 
d="M227 604l154 -256l-94 -65l-228 321l228 322l94 -66zM549 604l153 -256l-94 -65l-227 321l227 322l94 -66z" />
    <glyph glyph-name="logicalnot" unicode="&#xac;" 
d="M100 684v125h731v-530h-147v405h-584z" />
    <glyph glyph-name="uni00AD" unicode="&#xad;" horiz-adv-x="811" 
d="M160 678v135h491v-135h-491z" />
    <glyph glyph-name="registered" unicode="&#xae;" horiz-adv-x="1263" 
d="M630 1657q-202 0 -323 -135t-121 -336t121 -336t325 -135t324 133t121 339q-1 206 -123 338t-324 132zM633 1759q245 0 403 -164q158 -165 158 -411t-160 -409t-402 -163t-403 162q-159 162 -159 412t160 412t403 161zM547 1204h110q94 0 95 92q0 92 -99 93h-106v-185z
M549 1135v-230h-107v561h220q102 0 149 -39t47 -122q0 -129 -104 -160l120 -240h-114l-109 230h-102z" />
    <glyph glyph-name="macron" unicode="&#xaf;" horiz-adv-x="1024" 
d="M283 1270v112h458v-112h-458z" />
    <glyph glyph-name="degree" unicode="&#xb0;" horiz-adv-x="702" 
d="M352 1415q-86 0 -135 -53q-49 -54 -49 -150t48 -148t136 -52t135 52t47 147t-48 149t-134 55zM37 1213q0 143 85 227t230 84q146 0 230 -84t84 -228t-84 -226q-84 -83 -230 -83t-230 83q-85 83 -85 227z" />
    <glyph glyph-name="plusminus" unicode="&#xb1;" 
d="M82 47v125h817v-125h-817zM82 694v125h342v369h135v-369h340v-125h-340v-370h-135v370h-342z" />
    <glyph glyph-name="twosuperior" unicode="&#xb2;" horiz-adv-x="638" 
d="M68 791v83l229 304q121 158 121 264q0 133 -113 133q-102 0 -123 -145l-119 8q11 125 71 182t177 57q236 0 236 -235q0 -84 -31 -152t-127 -192l-151 -203h307v-104h-477z" />
    <glyph glyph-name="threesuperior" unicode="&#xb3;" horiz-adv-x="638" 
d="M299 1575q-104 0 -119 -125l-117 8q11 115 69 167t173 52q240 0 240 -233q0 -129 -96 -191q117 -63 116 -221q0 -252 -258 -252q-168 0 -229 103q-25 41 -31 125l119 12q12 -137 135 -137q137 0 137 149q0 78 -42 125t-111 47h-86v94h77q63 0 103 39q39 39 39 103t-32 99
q-32 36 -87 36z" />
    <glyph glyph-name="acute" unicode="&#xb4;" horiz-adv-x="1024" 
d="M420 1192l131 289h182l-198 -289h-115z" />
    <glyph glyph-name="mu" unicode="&#xb5;" 
d="M158 1026h149v-606q0 -166 41 -238t140 -72t145 85q45 84 45 276v555h149v-1026h-106l-19 129q-66 -150 -225 -149q-104 0 -170 73v-514h-149v1487z" />
    <glyph glyph-name="paragraph" unicode="&#xb6;" horiz-adv-x="1081" 
d="M403 -279v979h-47q-130 0 -196 45t-104 137t-38 206t40 205t110 130q47 27 91 33t194 6h442v-1741h-145v1612h-201v-1612h-146z" />
    <glyph glyph-name="periodcentered" unicode="&#xb7;" horiz-adv-x="487" 
d="M164 645v197h160v-197h-160z" />
    <glyph glyph-name="cedilla" unicode="&#xb8;" horiz-adv-x="1024" 
d="M395 -451l90 308h156l-139 -308h-107z" />
    <glyph glyph-name="onesuperior" unicode="&#xb9;" horiz-adv-x="526" 
d="M225 791v747l-133 -59l-41 90l211 98h90v-876h-127z" />
    <glyph glyph-name="ordmasculine" unicode="&#xba;" horiz-adv-x="616" 
d="M432 1071v139q0 166 -123 166t-123 -166v-139q0 -162 123 -162t123 162zM66 1073v135q0 138 58 202t185 64t185 -64q58 -65 59 -202v-135q0 -137 -58 -199q-57 -62 -185 -63q-128 1 -186 63t-58 199z" />
    <glyph glyph-name="guillemotright" unicode="&#xbb;" horiz-adv-x="757" 
d="M530 604l-151 256l94 66l227 -322l-227 -321l-94 65zM209 604l-152 256l93 66l229 -322l-229 -321l-93 65z" />
    <glyph glyph-name="onequarter" unicode="&#xbc;" horiz-adv-x="1566" 
d="M1221 0v164h-340v78l262 635h131l-250 -611h197v219h112v-219h80v-104h-80v-162h-112zM455 0l385 1462h143l-385 -1462h-143zM285 586v745l-135 -61l-44 98l218 94h88v-876h-127z" />
    <glyph glyph-name="onehalf" unicode="&#xbd;" horiz-adv-x="1566" 
d="M938 0v84l229 303q121 158 121 264q0 133 -112 133q-102 0 -123 -145l-119 8q12 125 72 182t176 58q236 0 235 -236q1 -83 -29 -149t-126 -195l-154 -203h307v-104h-477zM430 0l387 1462h144l-388 -1462h-143zM274 586v745l-135 -61l-43 98l217 94h88v-876h-127z" />
    <glyph glyph-name="threequarters" unicode="&#xbe;" horiz-adv-x="1566" 
d="M535 0l385 1462h143l-385 -1462h-143zM1278 0v164h-340v78l262 635h131l-252 -611h199v219h113v-219h79v-104h-79v-162h-113zM313 1370q-105 0 -118 -125l-117 8q10 115 68 167t173 53q240 0 240 -234q0 -129 -96 -190q117 -63 117 -222q0 -252 -258 -252
q-168 0 -230 103q-25 43 -31 125l119 12q12 -137 135 -137q137 0 138 149q0 78 -42 125t-112 47h-86v95h78q63 0 102 39t39 102t-32 99t-87 36z" />
    <glyph glyph-name="questiondown" unicode="&#xbf;" horiz-adv-x="1003" 
d="M598 1026v-199h-154v199h154zM586 639v-72q2 -117 -31 -189t-119 -163q-86 -92 -106 -127q-45 -80 -45 -180t58 -166q59 -66 159 -66t156 68t75 215l150 -12q-37 -403 -387 -404q-176 1 -274 99t-97 265q0 167 90 286q33 43 139 153t105 234v59h127z" />
    <glyph glyph-name="Agrave" unicode="&#xc0;" horiz-adv-x="1040" 
d="M606 1618h-114l-199 289h182zM745 457l-223 788l-225 -788h448zM780 324h-518l-90 -324h-174l453 1462h143l450 -1462h-172z" />
    <glyph glyph-name="Aacute" unicode="&#xc1;" horiz-adv-x="1040" 
d="M438 1618l131 289h183l-199 -289h-115zM745 457l-223 788l-225 -788h448zM780 324h-518l-90 -324h-174l453 1462h143l450 -1462h-172z" />
    <glyph glyph-name="Acircumflex" unicode="&#xc2;" horiz-adv-x="1040" 
d="M520 1794l-112 -166h-158l221 270h100l222 -270h-158zM745 457l-223 788l-225 -788h448zM780 324h-518l-90 -324h-174l453 1462h143l450 -1462h-172z" />
    <glyph glyph-name="Atilde" unicode="&#xc3;" horiz-adv-x="1040" 
d="M416 1878q70 0 129 -66t90 -65q47 0 67 115h97q-16 -96 -37 -142q-41 -86 -122 -86t-142 68q-53 63 -82 63q-53 1 -76 -114h-96q27 127 64 177q38 50 108 50zM745 457l-223 788l-225 -788h448zM780 324h-518l-90 -324h-174l453 1462h143l450 -1462h-172z" />
    <glyph glyph-name="Adieresis" unicode="&#xc4;" horiz-adv-x="1040" 
d="M623 1634v209h139v-209h-139zM281 1634v209h139v-209h-139zM745 457l-223 788l-225 -788h448zM780 324h-518l-90 -324h-174l453 1462h143l450 -1462h-172z" />
    <glyph glyph-name="Aring" unicode="&#xc5;" horiz-adv-x="1040" 
d="M519 1931q-97 0 -97 -124t97 -124t97 124t-97 124zM520 2013q92 0 146 -56q54 -57 55 -149q0 -92 -55 -149q-56 -57 -146 -57t-146 57t-56 150t54 149q56 56 148 55zM745 457l-223 788l-225 -788h448zM780 324h-518l-90 -324h-174l453 1462h143l450 -1462h-172z" />
    <glyph glyph-name="AE" unicode="&#xc6;" horiz-adv-x="1640" 
d="M819 473v854h-20l-445 -854h465zM819 340h-530l-174 -340h-185l791 1462h821v-135h-565v-520h481v-135h-481v-537h567v-135h-725v340z" />
    <glyph glyph-name="Ccedilla" unicode="&#xc7;" horiz-adv-x="1097" 
d="M410 -451l90 308h155l-139 -308h-106zM561 -18q-231 0 -338 161q-74 115 -73 367v440q0 272 99 400t301 128q396 1 408 -384l-149 -7q-18 258 -244 259q-137 0 -196 -94t-60 -308v-428q-1 -213 59 -307t187 -94q254 0 266 270l150 -8q-5 -193 -111 -294t-299 -101z" />
    <glyph glyph-name="Egrave" unicode="&#xc8;" horiz-adv-x="1003" 
d="M645 1618h-115l-198 289h182zM180 0v1462h723v-135h-563v-520h479v-135h-479v-537h567v-135h-727z" />
    <glyph glyph-name="Eacute" unicode="&#xc9;" horiz-adv-x="1003" 
d="M457 1618l131 289h182l-199 -289h-114zM180 0v1462h723v-135h-563v-520h479v-135h-479v-537h567v-135h-727z" />
    <glyph glyph-name="Ecircumflex" unicode="&#xca;" horiz-adv-x="1003" 
d="M541 1794l-113 -166h-158l222 270h100l221 -270h-158zM180 0v1462h723v-135h-563v-520h479v-135h-479v-537h567v-135h-727z" />
    <glyph glyph-name="Edieresis" unicode="&#xcb;" horiz-adv-x="1003" 
d="M645 1634v209h139v-209h-139zM303 1634v209h139v-209h-139zM180 0v1462h723v-135h-563v-520h479v-135h-479v-537h567v-135h-727z" />
    <glyph glyph-name="Igrave" unicode="&#xcc;" horiz-adv-x="518" 
d="M346 1618h-117l-196 289h182zM180 0v1462h160v-1462h-160z" />
    <glyph glyph-name="Iacute" unicode="&#xcd;" horiz-adv-x="518" 
d="M164 1618l131 289h182l-198 -289h-115zM168 0v1462h160v-1462h-160z" />
    <glyph glyph-name="Icircumflex" unicode="&#xce;" horiz-adv-x="518" 
d="M258 1794l-113 -166h-157l219 270h102l221 -270h-157zM178 0v1462h160v-1462h-160z" />
    <glyph glyph-name="Idieresis" unicode="&#xcf;" horiz-adv-x="518" 
d="M360 1634v209h140v-209h-140zM20 1634v209h140v-209h-140zM180 0v1462h160v-1462h-160z" />
    <glyph glyph-name="Eth" unicode="&#xd0;" horiz-adv-x="1173" 
d="M340 807h276v-133h-276v-541h215q162 -2 236 86t73 289v448q0 199 -73 287q-74 88 -236 86h-215v-522zM180 807v655h389q229 4 344 -119t111 -366v-492q6 -245 -109 -367t-346 -118h-389v674h-141v133h141z" />
    <glyph glyph-name="Ntilde" unicode="&#xd1;" horiz-adv-x="1249" 
d="M530 1878q70 0 129 -66t91 -65q47 0 67 115h96q-16 -96 -36 -142q-41 -86 -122 -86t-143 68q-53 63 -82 63q-52 1 -75 -114h-97q27 127 65 177q37 50 107 50zM180 0v1462h156l579 -1157v1157h154v-1462h-154l-581 1159v-1159h-154z" />
    <glyph glyph-name="Ograve" unicode="&#xd2;" horiz-adv-x="1171" 
d="M682 1618h-115l-198 289h182zM860 502v459q0 201 -66 293t-210 94q-143 0 -209 -94t-66 -293v-459q0 -201 66 -294t209 -93t210 93q66 93 66 294zM150 485v492q0 252 98 366q114 137 348 137t344 -159q80 -111 80 -344v-492q0 -252 -98 -366q-114 -137 -348 -137
t-345 159q-79 115 -79 344z" />
    <glyph glyph-name="Oacute" unicode="&#xd3;" horiz-adv-x="1171" 
d="M492 1618l131 289h182l-199 -289h-114zM860 502v459q0 201 -66 293t-210 94q-143 0 -209 -94t-66 -293v-459q0 -201 66 -294t209 -93t210 93q66 93 66 294zM150 485v492q0 252 98 366q114 137 348 137t344 -159q80 -111 80 -344v-492q0 -252 -98 -366
q-114 -137 -348 -137t-345 159q-79 115 -79 344z" />
    <glyph glyph-name="Ocircumflex" unicode="&#xd4;" horiz-adv-x="1171" 
d="M584 1794l-113 -166h-158l222 270h100l221 -270h-158zM860 502v459q0 201 -66 293t-210 94q-143 0 -209 -94t-66 -293v-459q0 -201 66 -294t209 -93t210 93q66 93 66 294zM150 485v492q0 252 98 366q114 137 348 137t344 -159q80 -111 80 -344v-492q0 -252 -98 -366
q-114 -137 -348 -137t-345 159q-79 115 -79 344z" />
    <glyph glyph-name="Otilde" unicode="&#xd5;" horiz-adv-x="1171" 
d="M480 1878q70 0 128 -66q59 -66 90 -65q47 0 68 115h96q-16 -96 -37 -142q-39 -86 -121 -86t-143 68q-53 63 -82 63q-53 1 -76 -114h-96q27 127 65 177t108 50zM860 502v459q0 201 -66 293t-210 94q-143 0 -209 -94t-66 -293v-459q0 -201 66 -294t209 -93t210 93
q66 93 66 294zM150 485v492q0 252 98 366q114 137 348 137t344 -159q80 -111 80 -344v-492q0 -252 -98 -366q-114 -137 -348 -137t-345 159q-79 115 -79 344z" />
    <glyph glyph-name="Odieresis" unicode="&#xd6;" horiz-adv-x="1171" 
d="M686 1634v209h139v-209h-139zM344 1634v209h139v-209h-139zM860 502v459q0 201 -66 293t-210 94q-143 0 -209 -94t-66 -293v-459q0 -201 66 -294t209 -93t210 93q66 93 66 294zM150 485v492q0 252 98 366q114 137 348 137t344 -159q80 -111 80 -344v-492q0 -252 -98 -366
q-114 -137 -348 -137t-345 159q-79 115 -79 344z" />
    <glyph glyph-name="multiply" unicode="&#xd7;" 
d="M403 745l-294 297l88 88l295 -296l296 296l89 -88l-297 -297l297 -294l-89 -89l-296 295l-295 -295l-88 89z" />
    <glyph glyph-name="Oslash" unicode="&#xd8;" horiz-adv-x="1169" 
d="M309 961v-459q0 -94 4 -125l484 868q-70 103 -213 103t-209 -94t-66 -293zM586 115q141 0 208 93t66 294v459q0 57 -6 118l-481 -866q72 -98 213 -98zM1020 485q0 -248 -98 -366q-113 -137 -338 -137q-182 0 -291 90l-60 -109l-112 66l84 151q-55 117 -55 305v492
q0 254 96 366q112 137 318 137t313 -91l57 104l113 -66l-82 -149q53 -113 55 -301v-492z" />
    <glyph glyph-name="Ugrave" unicode="&#xd9;" horiz-adv-x="1196" 
d="M705 1618h-115l-199 289h182zM174 1462h160v-993q0 -174 43 -242q66 -113 213 -112q92 -1 148 29t89 98t33 227v993h160v-993q0 -137 -15 -209t-59 -129q-112 -149 -360 -149t-353 172q-59 94 -59 315v993z" />
    <glyph glyph-name="Uacute" unicode="&#xda;" horiz-adv-x="1196" 
d="M512 1618l131 289h182l-198 -289h-115zM174 1462h160v-993q0 -174 43 -242q66 -113 213 -112q92 -1 148 29t89 98t33 227v993h160v-993q0 -137 -15 -209t-59 -129q-112 -149 -360 -149t-353 172q-59 94 -59 315v993z" />
    <glyph glyph-name="Ucircumflex" unicode="&#xdb;" horiz-adv-x="1196" 
d="M596 1794l-113 -166h-157l221 270h100l221 -270h-157zM174 1462h160v-993q0 -174 43 -242q66 -113 213 -112q92 -1 148 29t89 98t33 227v993h160v-993q0 -137 -15 -209t-59 -129q-112 -149 -360 -149t-353 172q-59 94 -59 315v993z" />
    <glyph glyph-name="Udieresis" unicode="&#xdc;" horiz-adv-x="1196" 
d="M698 1634v209h140v-209h-140zM356 1634v209h140v-209h-140zM174 1462h160v-993q0 -174 43 -242q66 -113 213 -112q92 -1 148 29t89 98t33 227v993h160v-993q0 -137 -15 -209t-59 -129q-112 -149 -360 -149t-353 172q-59 94 -59 315v993z" />
    <glyph glyph-name="Yacute" unicode="&#xdd;" horiz-adv-x="935" 
d="M397 1618l131 289h183l-199 -289h-115zM389 0v532l-389 930h168l301 -747l301 747h168l-389 -930v-532h-160z" />
    <glyph glyph-name="Thorn" unicode="&#xde;" horiz-adv-x="1054" 
d="M338 469h213q143 0 205 78q61 83 61 243q1 160 -65 232t-199 72h-215v-625zM340 336v-336h-160v1462h160v-235h213q127 0 203 -28q221 -81 221 -417q1 -236 -103 -341t-321 -105h-213z" />
    <glyph glyph-name="germandbls" unicode="&#xdf;" horiz-adv-x="991" 
d="M152 0v1110q0 188 79 279q80 90 243 90t248 -82q85 -83 85 -231t-84 -253q78 -41 114 -136t33 -267v-78q2 -236 -70 -334t-247 -98h-80v127h64q106 0 143 60t37 237v94q-2 188 -37 252t-137 59h-31v117h29q123 0 123 204t-183 204q-94 0 -135 -58t-41 -184v-1112h-153z
" />
    <glyph glyph-name="agrave" unicode="&#xe0;" horiz-adv-x="925" 
d="M573 1192h-114l-199 289h182zM627 483h-176q-121 0 -170 -45t-49 -147t42 -141q43 -39 157 -39t155 42t41 158v172zM627 602v74q0 133 -42 188q-41 56 -129 56t-130 -36t-70 -118l-131 39q63 242 321 242q213 0 291 -136q43 -78 43 -252v-659h-123l-10 72
q-43 -50 -97 -70t-153 -20q-171 0 -243 68t-72 240t77 242t265 70h203z" />
    <glyph glyph-name="aacute" unicode="&#xe1;" horiz-adv-x="925" 
d="M379 1192l131 289h182l-198 -289h-115zM627 483h-176q-121 0 -170 -45t-49 -147t42 -141q43 -39 157 -39t155 42t41 158v172zM627 602v74q0 133 -42 188q-41 56 -129 56t-130 -36t-70 -118l-131 39q63 242 321 242q213 0 291 -136q43 -78 43 -252v-659h-123l-10 72
q-43 -50 -97 -70t-153 -20q-171 0 -243 68t-72 240t77 242t265 70h203z" />
    <glyph glyph-name="acircumflex" unicode="&#xe2;" horiz-adv-x="925" 
d="M463 1368l-113 -166h-157l221 268h100l221 -268h-157zM627 483h-176q-121 0 -170 -45t-49 -147t42 -141q43 -39 157 -39t155 42t41 158v172zM627 602v74q0 133 -42 188q-41 56 -129 56t-130 -36t-70 -118l-131 39q63 242 321 242q213 0 291 -136q43 -78 43 -252v-659
h-123l-10 72q-43 -50 -97 -70t-153 -20q-171 0 -243 68t-72 240t77 242t265 70h203z" />
    <glyph glyph-name="atilde" unicode="&#xe3;" horiz-adv-x="925" 
d="M356 1450q70 0 131 -64q57 -66 91 -65q47 0 67 115h96q-20 -104 -36 -142q-41 -86 -123 -86t-142 68q-53 63 -82 63q-52 1 -75 -114h-97q27 127 64 176q36 49 106 49zM627 483h-176q-121 0 -170 -45t-49 -147t42 -141q43 -39 157 -39t155 42t41 158v172zM627 602v74
q0 133 -42 188q-41 56 -129 56t-130 -36t-70 -118l-131 39q63 242 321 242q213 0 291 -136q43 -78 43 -252v-659h-123l-10 72q-43 -50 -97 -70t-153 -20q-171 0 -243 68t-72 240t77 242t265 70h203z" />
    <glyph glyph-name="adieresis" unicode="&#xe4;" horiz-adv-x="925" 
d="M561 1208v209h139v-209h-139zM223 1208v209h139v-209h-139zM627 483h-176q-121 0 -170 -45t-49 -147t42 -141q43 -39 157 -39t155 42t41 158v172zM627 602v74q0 133 -42 188q-41 56 -129 56t-130 -36t-70 -118l-131 39q63 242 321 242q213 0 291 -136q43 -78 43 -252
v-659h-123l-10 72q-43 -50 -97 -70t-153 -20q-171 0 -243 68t-72 240t77 242t265 70h203z" />
    <glyph glyph-name="aring" unicode="&#xe5;" horiz-adv-x="925" 
d="M565 1380q0 123 -97 123t-97 -123t97 -123t97 123zM468 1585q91 0 146 -56q56 -55 56 -147t-56 -149t-145 -57q-90 0 -146 57t-57 149q0 92 56 148t146 55zM627 483h-176q-121 0 -170 -45t-49 -147t42 -141q43 -39 157 -39t155 42t41 158v172zM627 602v74q0 133 -42 188
q-41 56 -129 56t-130 -36t-70 -118l-131 39q63 242 321 242q213 0 291 -136q43 -78 43 -252v-659h-123l-10 72q-43 -50 -97 -70t-153 -20q-171 0 -243 68t-72 240t77 242t265 70h203z" />
    <glyph glyph-name="ae" unicode="&#xe6;" horiz-adv-x="1460" 
d="M782 604h414v43q0 270 -207 271q-207 0 -207 -271v-43zM627 485h-176q-119 0 -169 -45t-50 -150q0 -106 43 -146q44 -40 156 -40t154 50t42 184v147zM1343 485h-561v-86q0 -291 222 -290q82 1 126 37t62 118l133 -28q-41 -254 -321 -254q-205 0 -289 149
q-63 -150 -318 -149q-171 0 -243 68t-72 241q0 172 77 243t265 70h203v72q0 131 -42 187t-143 57q-149 0 -192 -154l-123 41q23 115 106 177q84 62 216 63q201 0 264 -134q82 133 272 133q191 0 275 -108q84 -109 83 -344v-109z" />
    <glyph glyph-name="ccedilla" unicode="&#xe7;" horiz-adv-x="858" 
d="M301 -451l90 308h156l-139 -308h-107zM456 -18q-158 0 -244 108q-85 108 -85 330v176q0 236 85 344t269 109q131 -1 201 -57t100 -187l-133 -39q-20 84 -59 120t-111 36q-102 0 -150 -76t-48 -240v-198q0 -297 202 -297q76 1 118 37t58 116l136 -26q-23 -132 -102 -194
t-237 -62z" />
    <glyph glyph-name="egrave" unicode="&#xe8;" horiz-adv-x="954" 
d="M586 1192h-115l-199 289h183zM281 604h411v43q0 270 -205 271q-207 0 -206 -271v-43zM281 485v-86q0 -289 219 -288q82 -1 127 35t63 118l133 -28q-23 -131 -102 -193q-80 -61 -227 -61q-188 0 -278 108q-89 109 -89 340v164q0 236 86 344t271 109q184 0 270 -109
t86 -344v-109h-559z" />
    <glyph glyph-name="eacute" unicode="&#xe9;" horiz-adv-x="954" 
d="M397 1192l131 289h183l-199 -289h-115zM281 604h411v43q0 270 -205 271q-207 0 -206 -271v-43zM281 485v-86q0 -289 219 -288q82 -1 127 35t63 118l133 -28q-23 -131 -102 -193q-80 -61 -227 -61q-188 0 -278 108q-89 109 -89 340v164q0 236 86 344t271 109
q184 0 270 -109t86 -344v-109h-559z" />
    <glyph glyph-name="ecircumflex" unicode="&#xea;" horiz-adv-x="954" 
d="M489 1368l-112 -166h-158l221 268h101l221 -268h-158zM281 604h411v43q0 270 -205 271q-207 0 -206 -271v-43zM281 485v-86q0 -289 219 -288q82 -1 127 35t63 118l133 -28q-23 -131 -102 -193q-80 -61 -227 -61q-188 0 -278 108q-89 109 -89 340v164q0 236 86 344
t271 109q184 0 270 -109t86 -344v-109h-559z" />
    <glyph glyph-name="edieresis" unicode="&#xeb;" horiz-adv-x="954" 
d="M590 1208v209h139v-209h-139zM252 1208v209h139v-209h-139zM281 604h411v43q0 270 -205 271q-207 0 -206 -271v-43zM281 485v-86q0 -289 219 -288q82 -1 127 35t63 118l133 -28q-23 -131 -102 -193q-80 -61 -227 -61q-188 0 -278 108q-89 109 -89 340v164q0 236 86 344
t271 109q184 0 270 -109t86 -344v-109h-559z" />
    <glyph glyph-name="igrave" unicode="&#xec;" horiz-adv-x="458" 
d="M319 1192h-116l-197 289h182zM154 0v1028h153v-1028h-153z" />
    <glyph glyph-name="iacute" unicode="&#xed;" horiz-adv-x="458" 
d="M137 1192l131 289h183l-199 -289h-115zM147 0v1028h154v-1028h-154z" />
    <glyph glyph-name="icircumflex" unicode="&#xee;" horiz-adv-x="458" 
d="M229 1368l-112 -166h-158l219 268h103l221 -268h-158zM154 0v1028h153v-1028h-153z" />
    <glyph glyph-name="idieresis" unicode="&#xef;" horiz-adv-x="458" 
d="M328 1208v209h139v-209h-139zM-8 1208v209h139v-209h-139zM154 0v1028h153v-1028h-153z" />
    <glyph glyph-name="eth" unicode="&#xf0;" horiz-adv-x="974" 
d="M696 406v204q0 152 -50 223t-158 71t-157 -72q-50 -70 -50 -222v-204q0 -154 49 -225q50 -71 158 -71t158 72q50 70 50 224zM127 399v215q0 418 336 418q109 0 174 -49q-41 141 -94 209l-189 -96l-57 90l166 84q-100 82 -203 100l19 107q176 -20 307 -140l149 76l58 -90
l-129 -63q84 -113 135 -295t51 -363v-203q0 -217 -86 -317t-274 -100t-276 100q-87 100 -87 317z" />
    <glyph glyph-name="ntilde" unicode="&#xf1;" horiz-adv-x="989" 
d="M388 1450q70 0 130 -64q57 -66 90 -65q47 0 68 115h96q-20 -104 -37 -142q-39 -86 -121 -86t-143 68q-53 63 -82 63q-53 1 -76 -114h-96q27 127 64 176t107 49zM152 0v1028h118l11 -100q45 66 102 94t147 27q223 0 289 -179q27 -78 27 -241v-629h-154v612q0 164 -42 234
t-146 70t-152 -82q-47 -80 -47 -271v-563h-153z" />
    <glyph glyph-name="ograve" unicode="&#xf2;" horiz-adv-x="974" 
d="M584 1192h-115l-199 289h183zM696 403v224q0 151 -49 221t-159 70t-158 -70t-49 -221v-224q0 -153 49 -223q50 -70 158 -70t158 70q50 69 50 223zM127 403v222q0 219 87 320t275 101q189 0 275 -100q86 -102 86 -321v-222q0 -219 -86 -320t-274 -101t-276 101
q-87 101 -87 320z" />
    <glyph glyph-name="oacute" unicode="&#xf3;" horiz-adv-x="974" 
d="M395 1192l131 289h183l-199 -289h-115zM696 403v224q0 151 -49 221t-159 70t-158 -70t-49 -221v-224q0 -153 49 -223q50 -70 158 -70t158 70q50 69 50 223zM127 403v222q0 219 87 320t275 101q189 0 275 -100q86 -102 86 -321v-222q0 -219 -86 -320t-274 -101t-276 101
q-87 101 -87 320z" />
    <glyph glyph-name="ocircumflex" unicode="&#xf4;" horiz-adv-x="974" 
d="M487 1368l-112 -166h-158l221 268h101l221 -268h-158zM696 403v224q0 151 -49 221t-159 70t-158 -70t-49 -221v-224q0 -153 49 -223q50 -70 158 -70t158 70q50 69 50 223zM127 403v222q0 219 87 320t275 101q189 0 275 -100q86 -102 86 -321v-222q0 -219 -86 -320
t-274 -101t-276 101q-87 101 -87 320z" />
    <glyph glyph-name="otilde" unicode="&#xf5;" horiz-adv-x="974" 
d="M381 1450q70 0 131 -64q57 -66 90 -65q47 0 68 115h96q-20 -104 -37 -142q-41 -86 -122 -86t-142 68q-53 63 -82 63q-53 1 -76 -114h-96q27 127 63 176q37 49 107 49zM696 403v224q0 151 -49 221t-159 70t-158 -70t-49 -221v-224q0 -153 49 -223q50 -70 158 -70t158 70
q50 69 50 223zM127 403v222q0 219 87 320t275 101q189 0 275 -100q86 -102 86 -321v-222q0 -219 -86 -320t-274 -101t-276 101q-87 101 -87 320z" />
    <glyph glyph-name="odieresis" unicode="&#xf6;" horiz-adv-x="974" 
d="M588 1208v209h139v-209h-139zM250 1208v209h139v-209h-139zM696 403v224q0 151 -49 221t-159 70t-158 -70t-49 -221v-224q0 -153 49 -223q50 -70 158 -70t158 70q50 69 50 223zM127 403v222q0 219 87 320t275 101q189 0 275 -100q86 -102 86 -321v-222q0 -219 -86 -320
t-274 -101t-276 101q-87 101 -87 320z" />
    <glyph glyph-name="divide" unicode="&#xf7;" 
d="M420 973v178h141v-178h-141zM420 340v178h141v-178h-141zM82 684v125h817v-125h-817z" />
    <glyph glyph-name="oslash" unicode="&#xf8;" horiz-adv-x="976" 
d="M281 627v-226q0 -65 6 -104l344 569q-51 54 -151 54q-199 0 -199 -293zM496 111q200 0 200 290v226q0 65 -8 112l-346 -573q54 -55 154 -55zM850 625v-219q0 -220 -87 -322t-274 -102q-139 0 -225 57l-49 -82l-96 63l63 105q-57 104 -55 281v219q0 219 87 320t273 102
q135 0 220 -54l49 78l96 -61l-61 -103q59 -96 59 -282z" />
    <glyph glyph-name="ugrave" unicode="&#xf9;" horiz-adv-x="968" 
d="M580 1192h-115l-199 289h183zM143 1028h154v-612q0 -164 40 -233t139 -69t144 83q44 82 44 268v563h153v-1028h-119l-10 100q-47 -66 -101 -92t-138 -26q-215 0 -279 178q-27 74 -27 241v627z" />
    <glyph glyph-name="uacute" unicode="&#xfa;" horiz-adv-x="968" 
d="M391 1192l131 289h183l-199 -289h-115zM143 1028h154v-612q0 -164 40 -233t139 -69t144 83q44 82 44 268v563h153v-1028h-119l-10 100q-47 -66 -101 -92t-138 -26q-215 0 -279 178q-27 74 -27 241v627z" />
    <glyph glyph-name="ucircumflex" unicode="&#xfb;" horiz-adv-x="968" 
d="M483 1368l-112 -166h-158l221 268h101l221 -268h-158zM143 1028h154v-612q0 -164 40 -233t139 -69t144 83q44 82 44 268v563h153v-1028h-119l-10 100q-47 -66 -101 -92t-138 -26q-215 0 -279 178q-27 74 -27 241v627z" />
    <glyph glyph-name="udieresis" unicode="&#xfc;" horiz-adv-x="968" 
d="M584 1208v209h139v-209h-139zM246 1208v209h139v-209h-139zM143 1028h154v-612q0 -164 40 -233t139 -69t144 83q44 82 44 268v563h153v-1028h-119l-10 100q-47 -66 -101 -92t-138 -26q-215 0 -279 178q-27 74 -27 241v627z" />
    <glyph glyph-name="yacute" unicode="&#xfd;" horiz-adv-x="856" 
d="M354 1192l131 289h183l-199 -289h-115zM104 -340q100 0 139 33q38 33 72 149l41 154l-315 1032h154l239 -848l217 848h156l-336 -1202q-55 -186 -123 -240t-244 -57v131z" />
    <glyph glyph-name="thorn" unicode="&#xfe;" horiz-adv-x="985" 
d="M711 410v217q0 289 -197 288q-207 0 -207 -319v-164q0 -319 207 -319q197 0 197 297zM307 -461h-153v1923h153v-501q88 86 244 86q311 0 311 -418v-217q0 -222 -79 -326t-235 -104t-241 81v-524z" />
    <glyph glyph-name="ydieresis" unicode="&#xff;" horiz-adv-x="856" 
d="M528 1208v209h140v-209h-140zM190 1208v209h140v-209h-140zM104 -340q100 0 139 33q38 33 72 149l41 154l-315 1032h154l239 -848l217 848h156l-336 -1202q-55 -186 -123 -240t-244 -57v131z" />
    <glyph glyph-name="Amacron" unicode="&#x100;" horiz-adv-x="1040" 
d="M293 1698v112h459v-112h-459zM745 457l-223 788l-225 -788h448zM780 324h-518l-90 -324h-174l453 1462h143l450 -1462h-172z" />
    <glyph glyph-name="amacron" unicode="&#x101;" horiz-adv-x="925" 
d="M233 1270v112h459v-112h-459zM627 483h-176q-121 0 -170 -45t-49 -147t42 -141q43 -39 157 -39t155 42t41 158v172zM627 602v74q0 133 -42 188q-41 56 -129 56t-130 -36t-70 -118l-131 39q63 242 321 242q213 0 291 -136q43 -78 43 -252v-659h-123l-10 72
q-43 -50 -97 -70t-153 -20q-171 0 -243 68t-72 240t77 242t265 70h203z" />
    <glyph glyph-name="Abreve" unicode="&#x102;" horiz-adv-x="1040" 
d="M516 1612q-170 0 -221 123q-17 40 -23 153h105q8 -88 40 -124q33 -36 105 -36t103 36q31 34 41 124h104q-6 -121 -31 -170q-53 -106 -223 -106zM745 457l-223 788l-225 -788h448zM780 324h-518l-90 -324h-174l453 1462h143l450 -1462h-172z" />
    <glyph glyph-name="abreve" unicode="&#x103;" horiz-adv-x="925" 
d="M463 1186q-170 0 -221 123q-17 40 -23 153h105q8 -88 40 -124t104 -36t104 36q30 34 40 124h105q-6 -121 -31 -170q-53 -106 -223 -106zM627 483h-176q-121 0 -170 -45t-49 -147t42 -141q43 -39 157 -39t155 42t41 158v172zM627 602v74q0 133 -42 188q-41 56 -129 56
t-130 -36t-70 -118l-131 39q63 242 321 242q213 0 291 -136q43 -78 43 -252v-659h-123l-10 72q-43 -50 -97 -70t-153 -20q-171 0 -243 68t-72 240t77 242t265 70h203z" />
    <glyph glyph-name="Aogonek" unicode="&#x104;" horiz-adv-x="1040" 
d="M745 457l-223 788l-225 -788h448zM967 -297q45 0 102 18l16 -90q-70 -27 -149 -26q-199 0 -199 151q0 72 49 139t132 105h-46l-92 324h-518l-90 -324h-174l453 1462h143l450 -1462q-92 -66 -130 -115t-37 -104q0 -78 90 -78z" />
    <glyph glyph-name="aogonek" unicode="&#x105;" horiz-adv-x="925" 
d="M627 483h-176q-121 0 -170 -45t-49 -147t42 -141q43 -39 157 -39t155 42t41 158v172zM780 0h-2q-92 -64 -131 -114t-39 -103q0 -80 90 -80q47 0 103 18l18 -90q-70 -27 -149 -26q-201 0 -201 151q0 145 188 250l-10 66q-43 -50 -97 -70t-153 -20q-171 0 -243 68t-72 240
t77 242t265 70h203v74q0 133 -42 188q-41 56 -129 56t-130 -36t-70 -118l-131 39q63 242 321 242q213 0 291 -136q43 -78 43 -252v-659z" />
    <glyph glyph-name="Cacute" unicode="&#x106;" horiz-adv-x="1097" 
d="M473 1618l131 289h182l-198 -289h-115zM561 -18q-231 0 -338 161q-74 115 -73 367v440q0 272 99 400t301 128q396 1 408 -384l-149 -7q-18 258 -244 259q-137 0 -196 -94t-60 -308v-428q-1 -213 59 -307t187 -94q254 0 266 270l150 -8q-5 -193 -111 -294t-299 -101z" />
    <glyph glyph-name="cacute" unicode="&#x107;" horiz-adv-x="858" 
d="M385 1192l131 289h182l-198 -289h-115zM456 -18q-158 0 -244 108q-85 108 -85 330v176q0 236 85 344t269 109q131 -1 201 -57t100 -187l-133 -39q-20 84 -59 120t-111 36q-102 0 -150 -76t-48 -240v-198q0 -297 202 -297q76 1 118 37t58 116l136 -26q-23 -132 -102 -194
t-237 -62z" />
    <glyph glyph-name="Ccircumflex" unicode="&#x108;" horiz-adv-x="1095" 
d="M561 1794l-112 -166h-158l221 270h100l222 -270h-158zM561 -18q-231 0 -338 161q-74 115 -73 367v440q0 272 99 400t301 128q396 1 408 -384l-149 -7q-18 258 -244 259q-137 0 -196 -94t-60 -308v-428q-1 -213 59 -307t187 -94q254 0 266 270l150 -8q-5 -193 -111 -294
t-299 -101z" />
    <glyph glyph-name="ccircumflex" unicode="&#x109;" horiz-adv-x="858" 
d="M467 1368l-113 -166h-157l221 268h100l221 -268h-157zM456 -18q-158 0 -244 108q-85 108 -85 330v176q0 236 85 344t269 109q131 -1 201 -57t100 -187l-133 -39q-20 84 -59 120t-111 36q-102 0 -150 -76t-48 -240v-198q0 -297 202 -297q76 1 118 37t58 116l136 -26
q-23 -132 -102 -194t-237 -62z" />
    <glyph glyph-name="Cdotaccent" unicode="&#x10a;" horiz-adv-x="1097" 
d="M494 1634v209h149v-209h-149zM561 -18q-231 0 -338 161q-74 115 -73 367v440q0 272 99 400t301 128q396 1 408 -384l-149 -7q-18 258 -244 259q-137 0 -196 -94t-60 -308v-428q-1 -213 59 -307t187 -94q254 0 266 270l150 -8q-5 -193 -111 -294t-299 -101z" />
    <glyph glyph-name="cdotaccent" unicode="&#x10b;" horiz-adv-x="858" 
d="M397 1208v209h150v-209h-150zM456 -18q-158 0 -244 108q-85 108 -85 330v176q0 236 85 344t269 109q131 -1 201 -57t100 -187l-133 -39q-20 84 -59 120t-111 36q-102 0 -150 -76t-48 -240v-198q0 -297 202 -297q76 1 118 37t58 116l136 -26q-23 -132 -102 -194t-237 -62z
" />
    <glyph glyph-name="Ccaron" unicode="&#x10c;" horiz-adv-x="1097" 
d="M571 1729l113 165h158l-221 -268h-101l-221 268h158zM561 -18q-231 0 -338 161q-74 115 -73 367v440q0 272 99 400t301 128q396 1 408 -384l-149 -7q-18 258 -244 259q-137 0 -196 -94t-60 -308v-428q-1 -213 59 -307t187 -94q254 0 266 270l150 -8q-5 -193 -111 -294
t-299 -101z" />
    <glyph glyph-name="ccaron" unicode="&#x10d;" horiz-adv-x="858" 
d="M477 1303l113 165h158l-222 -268h-100l-221 268h157zM456 -18q-158 0 -244 108q-85 108 -85 330v176q0 236 85 344t269 109q131 -1 201 -57t100 -187l-133 -39q-20 84 -59 120t-111 36q-102 0 -150 -76t-48 -240v-198q0 -297 202 -297q76 1 118 37t58 116l136 -26
q-23 -132 -102 -194t-237 -62z" />
    <glyph glyph-name="Dcaron" unicode="&#x10e;" horiz-adv-x="1173" 
d="M543 1729l112 165h158l-221 -268h-100l-222 268h158zM340 133h215q162 -2 236 86t73 289v448q0 199 -73 287q-74 88 -236 86h-215v-1196zM180 0v1462h389q229 4 344 -119t111 -366v-492q4 -245 -111 -367t-344 -118h-389z" />
    <glyph glyph-name="dcaron" unicode="&#x10f;" horiz-adv-x="1126" 
d="M967 1016l47 461h153l-94 -461h-106zM281 627v-215q0 -299 196 -299q205 0 205 319v164q0 319 -207 319q-194 1 -194 -288zM448 -18q-162 0 -241 104q-80 104 -80 326v217q0 213 79 315t245 103q82 1 131 -19t100 -72v506h154v-1462h-121l-10 82l-9 -8q-86 -92 -248 -92z
" />
    <glyph glyph-name="Dcroat" unicode="&#x110;" horiz-adv-x="1173" 
d="M340 807h276v-133h-276v-541h215q162 -2 236 86t73 289v448q0 199 -73 287q-74 88 -236 86h-215v-522zM180 807v655h389q229 4 344 -119t111 -366v-492q6 -245 -109 -367t-346 -118h-389v674h-141v133h141z" />
    <glyph glyph-name="dcroat" unicode="&#x111;" horiz-adv-x="987" 
d="M279 627v-215q0 -299 196 -299q207 0 207 319v164q0 319 -207 319q-196 1 -196 -288zM682 1176h-258v110h258v176h154v-176h137v-110h-137v-1176h-121l-10 82l-9 -8q-86 -92 -248 -92t-242 103q-79 103 -79 327v217q0 213 79 315t243 103q84 1 133 -19t100 -72v220z" />
    <glyph glyph-name="Emacron" unicode="&#x112;" horiz-adv-x="1003" 
d="M307 1698v112h459v-112h-459zM180 0v1462h723v-135h-563v-520h479v-135h-479v-537h567v-135h-727z" />
    <glyph glyph-name="emacron" unicode="&#x113;" horiz-adv-x="954" 
d="M258 1272v112h459v-112h-459zM281 604h411v43q0 270 -205 271q-207 0 -206 -271v-43zM281 485v-86q0 -289 219 -288q82 -1 127 35t63 118l133 -28q-23 -131 -102 -193q-80 -61 -227 -61q-188 0 -278 108q-89 109 -89 340v164q0 236 86 344t271 109q184 0 270 -109
t86 -344v-109h-559z" />
    <glyph glyph-name="Ebreve" unicode="&#x114;" horiz-adv-x="1003" 
d="M539 1612q-170 0 -222 123q-16 40 -22 153h104q8 -88 40 -124t105 -36q74 0 104 36q30 34 40 124h105q-6 -121 -31 -170q-53 -106 -223 -106zM180 0v1462h723v-135h-563v-520h479v-135h-479v-537h567v-135h-727z" />
    <glyph glyph-name="ebreve" unicode="&#x115;" horiz-adv-x="954" 
d="M479 1186q-170 0 -221 123q-16 40 -22 153h104q8 -88 40 -124t104 -36t104 36q31 34 41 124h104q-6 -121 -31 -170q-53 -106 -223 -106zM281 604h411v43q0 270 -205 271q-207 0 -206 -271v-43zM281 485v-86q0 -289 219 -288q82 -1 127 35t63 118l133 -28
q-23 -131 -102 -193q-80 -61 -227 -61q-188 0 -278 108q-89 109 -89 340v164q0 236 86 344t271 109q184 0 270 -109t86 -344v-109h-559z" />
    <glyph glyph-name="Edotaccent" unicode="&#x116;" horiz-adv-x="1003" 
d="M475 1632v209h150v-209h-150zM180 0v1462h723v-135h-563v-520h479v-135h-479v-537h567v-135h-727z" />
    <glyph glyph-name="edotaccent" unicode="&#x117;" horiz-adv-x="954" 
d="M414 1206v209h149v-209h-149zM281 604h411v43q0 270 -205 271q-207 0 -206 -271v-43zM281 485v-86q0 -289 219 -288q82 -1 127 35t63 118l133 -28q-23 -131 -102 -193q-80 -61 -227 -61q-188 0 -278 108q-89 109 -89 340v164q0 236 86 344t271 109q184 0 270 -109
t86 -344v-109h-559z" />
    <glyph glyph-name="Eogonek" unicode="&#x118;" horiz-adv-x="1003" 
d="M180 0v1462h723v-135h-563v-520h479v-135h-479v-537h567v-135q-170 -109 -170 -219q0 -78 90 -78q49 0 103 18l18 -90q-74 -27 -151 -26q-199 0 -199 149t178 246h-596z" />
    <glyph glyph-name="eogonek" unicode="&#x119;" horiz-adv-x="954" 
d="M285 604h411v43q0 270 -204 271q-207 0 -207 -271v-43zM514 -217q0 -80 90 -80q45 0 101 18l18 -90q-78 -27 -150 -26q-199 0 -198 153q1 64 27 112t98 112q-190 0 -281 109q-90 110 -88 339v164q0 236 86 344t271 109q184 0 270 -109t86 -344v-109h-559v-86
q0 -289 219 -288q82 -1 127 35t63 118l133 -28q-29 -170 -147 -222q-166 -117 -166 -231z" />
    <glyph glyph-name="Ecaron" unicode="&#x11a;" horiz-adv-x="1003" 
d="M551 1729l113 165h157l-221 -268h-100l-221 268h157zM180 0v1462h723v-135h-563v-520h479v-135h-479v-537h567v-135h-727z" />
    <glyph glyph-name="ecaron" unicode="&#x11b;" horiz-adv-x="954" 
d="M492 1303l112 165h158l-221 -268h-101l-221 268h158zM281 604h411v43q0 270 -205 271q-207 0 -206 -271v-43zM281 485v-86q0 -289 219 -288q82 -1 127 35t63 118l133 -28q-23 -131 -102 -193q-80 -61 -227 -61q-188 0 -278 108q-89 109 -89 340v164q0 236 86 344t271 109
q184 0 270 -109t86 -344v-109h-559z" />
    <glyph glyph-name="Gcircumflex" unicode="&#x11c;" horiz-adv-x="1146" 
d="M573 1794l-112 -166h-158l221 270h101l221 -270h-158zM614 635v129h404v-264q0 -256 -90 -371q-114 -147 -354 -147t-347 161q-78 113 -77 367v440q0 274 94 391q112 137 316 137q403 1 417 -384l-148 -7q-16 258 -254 259q-143 0 -204 -94t-62 -308v-428
q-1 -215 63 -308t210 -93q279 0 278 354v166h-246z" />
    <glyph glyph-name="gcircumflex" unicode="&#x11d;" horiz-adv-x="989" 
d="M500 1368l-113 -166h-158l222 268h100l221 -268h-158zM281 627v-215q0 -299 196 -299q207 0 207 319v164q0 322 -207 322q-196 0 -196 -291zM684 -55v127q-84 -90 -240 -90q-316 0 -317 432v213q0 215 79 317t243 102t251 -104l17 86h121v-1067q0 -225 -90 -333
t-279 -107q-135 0 -209 54t-102 175l131 35q23 -76 63 -108t115 -31q113 0 165 72t52 227z" />
    <glyph glyph-name="Gbreve" unicode="&#x11e;" horiz-adv-x="1146" 
d="M570 1612q-170 0 -222 123q-16 40 -22 153h104q8 -88 40 -124t104 -36t104 36q31 34 41 124h104q-6 -121 -30 -170q-53 -106 -223 -106zM614 635v129h404v-264q0 -256 -90 -371q-114 -147 -354 -147t-347 161q-78 113 -77 367v440q0 274 94 391q112 137 316 137
q403 1 417 -384l-148 -7q-16 258 -254 259q-143 0 -204 -94t-62 -308v-428q-1 -215 63 -308t210 -93q279 0 278 354v166h-246z" />
    <glyph glyph-name="gbreve" unicode="&#x11f;" horiz-adv-x="989" 
d="M510 1186q-170 0 -221 123q-17 40 -23 153h105q8 -88 40 -124q33 -36 105 -36t102 36q30 34 41 124h105q-6 -121 -31 -170q-53 -106 -223 -106zM281 627v-215q0 -299 196 -299q207 0 207 319v164q0 322 -207 322q-196 0 -196 -291zM684 -55v127q-84 -90 -240 -90
q-316 0 -317 432v213q0 215 79 317t243 102t251 -104l17 86h121v-1067q0 -225 -90 -333t-279 -107q-135 0 -209 54t-102 175l131 35q23 -76 63 -108t115 -31q113 0 165 72t52 227z" />
    <glyph glyph-name="Gdotaccent" unicode="&#x120;" horiz-adv-x="1146" 
d="M498 1634v209h149v-209h-149zM614 635v129h404v-264q0 -256 -90 -371q-114 -147 -354 -147t-347 161q-78 113 -77 367v440q0 274 94 391q112 137 316 137q403 1 417 -384l-148 -7q-16 258 -254 259q-143 0 -204 -94t-62 -308v-428q-1 -215 63 -308t210 -93q279 0 278 354
v166h-246z" />
    <glyph glyph-name="gdotaccent" unicode="&#x121;" horiz-adv-x="989" 
d="M444 1206v209h150v-209h-150zM281 627v-215q0 -299 196 -299q207 0 207 319v164q0 322 -207 322q-196 0 -196 -291zM684 -55v127q-84 -90 -240 -90q-316 0 -317 432v213q0 215 79 317t243 102t251 -104l17 86h121v-1067q0 -225 -90 -333t-279 -107q-135 0 -209 54
t-102 175l131 35q23 -76 63 -108t115 -31q113 0 165 72t52 227z" />
    <glyph glyph-name="Gcommaaccent" unicode="&#x122;" horiz-adv-x="1146" 
d="M436 -451l90 308h156l-139 -308h-107zM614 635v129h404v-264q0 -256 -90 -371q-114 -147 -354 -147t-347 161q-78 113 -77 367v440q0 274 94 391q112 137 316 137q403 1 417 -384l-148 -7q-16 258 -254 259q-143 0 -204 -94t-62 -308v-428q-1 -215 63 -308t210 -93
q279 0 278 354v166h-246z" />
    <glyph glyph-name="gcommaaccent" unicode="&#x123;" horiz-adv-x="989" 
d="M412 1192l198 289h115l-131 -289h-182zM281 627v-215q0 -299 196 -299q207 0 207 319v164q0 322 -207 322q-196 0 -196 -291zM684 -55v127q-84 -90 -240 -90q-316 0 -317 432v213q0 215 79 317t243 102t251 -104l17 86h121v-1067q0 -225 -90 -333t-279 -107
q-135 0 -209 54t-102 175l131 35q23 -76 63 -108t115 -31q113 0 165 72t52 227z" />
    <glyph glyph-name="Hcircumflex" unicode="&#x124;" horiz-adv-x="1179" 
d="M590 1794l-113 -166h-158l222 270h100l221 -270h-157zM180 0v1462h160v-655h502v655h159v-1462h-159v672h-502v-672h-160z" />
    <glyph glyph-name="hcircumflex" unicode="&#x125;" horiz-adv-x="989" 
d="M291 1794l-113 -166h-158l220 270h102l221 -270h-157zM152 0v1462h153v-501q84 86 230 86q219 0 284 -179q27 -74 27 -239v-629h-154v612q0 164 -42 233t-146 69t-152 -80q-47 -80 -47 -267v-567h-153z" />
    <glyph glyph-name="Hbar" unicode="&#x126;" horiz-adv-x="1179" 
d="M338 807h502v209h-502v-209zM178 0v1016h-115v121h115v325h160v-325h502v325h159v-325h117v-121h-117v-1016h-159v672h-502v-672h-160z" />
    <glyph glyph-name="hbar" unicode="&#x127;" horiz-adv-x="991" 
d="M152 1176h-138v110h138v176h153v-176h258v-110h-258v-215q84 86 232 86q217 0 282 -179q27 -74 27 -239v-629h-154v612q0 164 -42 233t-146 69t-152 -82q-47 -80 -47 -265v-567h-153v1176z" />
    <glyph glyph-name="Itilde" unicode="&#x128;" horiz-adv-x="518" 
d="M153 1878q69 0 128 -66q63 -66 90 -65q47 0 69 115h97q-18 -104 -37 -140q-41 -88 -122 -88t-142 68q-53 63 -82 63q-53 1 -76 -114h-96q27 127 64 177q38 50 107 50zM178 0v1462h160v-1462h-160z" />
    <glyph glyph-name="itilde" unicode="&#x129;" horiz-adv-x="458" 
d="M124 1452q69 0 128 -66q63 -66 90 -65q47 0 70 115h96q-18 -102 -37 -142q-41 -86 -122 -86t-139 66t-85 65q-53 1 -76 -114h-96q27 127 64 177q38 50 107 50zM154 0v1028h153v-1028h-153z" />
    <glyph glyph-name="Imacron" unicode="&#x12a;" horiz-adv-x="518" 
d="M31 1698v112h456v-112h-456zM180 0v1462h160v-1462h-160z" />
    <glyph glyph-name="imacron" unicode="&#x12b;" horiz-adv-x="458" 
d="M2 1272v112h457v-112h-457zM154 0v1028h153v-1028h-153z" />
    <glyph glyph-name="Ibreve" unicode="&#x12c;" horiz-adv-x="518" 
d="M253 1612q-171 0 -218 123q-17 40 -23 153h105q8 -88 40 -124q31 -36 103 -36t104 36t39 124h105q-4 -121 -29 -170q-55 -106 -226 -106zM180 0v1462h160v-1462h-160z" />
    <glyph glyph-name="ibreve" unicode="&#x12d;" horiz-adv-x="458" 
d="M222 1186q-172 0 -218 123q-16 40 -22 153h104q8 -88 40 -124t104 -36t103 36q32 36 40 124h104q-4 -121 -28 -170q-55 -106 -227 -106zM154 0v1028h153v-1028h-153z" />
    <glyph glyph-name="Iogonek" unicode="&#x12e;" horiz-adv-x="518" 
d="M340 1462v-1462q-152 -111 -152 -213q0 -84 88 -84q43 0 101 18l18 -90q-72 -27 -151 -26q-195 0 -195 155q0 143 166 240h-35v1462h160z" />
    <glyph glyph-name="iogonek" unicode="&#x12f;" horiz-adv-x="458" 
d="M154 1255v213h153v-213h-153zM244 -297q45 0 100 18l16 -90q-70 -27 -149 -26q-195 0 -195 153q0 68 43 132t119 110h-24v1028h153v-1028l-12 -10q-78 -60 -109 -106t-30 -99q0 -82 88 -82z" />
    <glyph glyph-name="Idotaccent" unicode="&#x130;" horiz-adv-x="518" 
d="M182 1632v209h150v-209h-150zM178 0v1462h160v-1462h-160z" />
    <glyph glyph-name="dotlessi" unicode="&#x131;" horiz-adv-x="458" 
d="M154 0v1028h153v-1028h-153z" />
    <glyph glyph-name="IJ" unicode="&#x132;" horiz-adv-x="1038" 
d="M700 1462h160v-1429q0 -170 -9 -244t-36 -125q-82 -162 -297 -162q-86 0 -174 33l59 125q51 -25 101 -25q135 0 178 138q18 61 18 254v1435zM180 0v1462h160v-1462h-160z" />
    <glyph glyph-name="ij" unicode="&#x133;" horiz-adv-x="921" 
d="M612 1255v213h154v-213h-154zM612 1028h154v-1057q6 -248 -75 -346t-288 -96v131q115 -6 164 62t45 233v1073zM154 0v1028h153v-1028h-153zM154 1255v213h153v-213h-153z" />
    <glyph glyph-name="Jcircumflex" unicode="&#x134;" horiz-adv-x="794" 
d="M516 1794l-113 -166h-157l221 270h100l221 -270h-157zM465 1462h160v-952q1 -168 -9 -242t-36 -125q-80 -162 -299 -161q-178 0 -310 131l92 106q96 -104 207 -104q133 0 176 135q18 63 19 254v958z" />
    <glyph glyph-name="jcircumflex" unicode="&#x135;" horiz-adv-x="468" 
d="M231 1368l-112 -166h-158l221 268h101l221 -268h-158zM158 1028h153v-1057q5 -248 -75 -346t-287 -96v131q115 -6 164 62t45 233v1073z" />
    <glyph glyph-name="Kcommaaccent" unicode="&#x136;" horiz-adv-x="1071" 
d="M432 -451l90 308h156l-139 -308h-107zM180 0v1462h160v-770l510 770h180l-407 -598l444 -864h-178l-365 739l-184 -270v-469h-160z" />
    <glyph glyph-name="kcommaaccent" unicode="&#x137;" horiz-adv-x="911" 
d="M336 -451l90 308h156l-140 -308h-106zM154 0v1462h153v-999l373 565h172l-299 -434l326 -594h-168l-250 475l-154 -227v-248h-153z" />
    <glyph glyph-name="kgreenlandic" unicode="&#x138;" horiz-adv-x="911" 
d="M154 0v1028h153v-565l373 565h172l-299 -434l326 -594h-168l-250 477l-154 -229v-248h-153z" />
    <glyph glyph-name="Lacute" unicode="&#x139;" horiz-adv-x="933" 
d="M223 1618l131 289h183l-199 -289h-115zM180 0v1462h160v-1327h573v-135h-733z" />
    <glyph glyph-name="lacute" unicode="&#x13a;" horiz-adv-x="520" 
d="M168 1618l131 289h182l-198 -289h-115zM152 1462h153v-1143q-2 -109 30 -149t116 -41h43v-129h-50q-174 0 -233 67t-59 265v1130z" />
    <glyph glyph-name="Lcommaaccent" unicode="&#x13b;" horiz-adv-x="933" 
d="M379 -451l90 308h156l-140 -308h-106zM180 0v1462h160v-1327h573v-135h-733z" />
    <glyph glyph-name="lcommaaccent" unicode="&#x13c;" horiz-adv-x="520" 
d="M141 -451l88 308h158l-139 -308h-107zM150 1462h153v-1143q-2 -109 30 -149t116 -41h40v-129h-47q-174 2 -233 69t-59 263v1130z" />
    <glyph glyph-name="Lcaron" unicode="&#x13d;" horiz-adv-x="933" 
d="M522 1016l47 461h154l-94 -461h-107zM180 0v1462h160v-1327h573v-135h-733z" />
    <glyph glyph-name="lcaron" unicode="&#x13e;" horiz-adv-x="622" 
d="M455 1016l47 461h153l-94 -461h-106zM152 1462h153v-1143q-2 -109 30 -149t116 -41h43v-129h-50q-174 0 -233 67t-59 265v1130z" />
    <glyph glyph-name="Ldot" unicode="&#x13f;" horiz-adv-x="933" 
d="M639 645v197h139v-197h-139zM180 0v1462h160v-1327h573v-135h-733z" />
    <glyph glyph-name="ldot" unicode="&#x140;" horiz-adv-x="587" 
d="M449 645v197h139v-197h-139zM152 1462h153v-1143q-2 -109 30 -149t116 -41h43v-129h-50q-174 0 -233 67t-59 265v1130z" />
    <glyph glyph-name="Lslash" unicode="&#x141;" horiz-adv-x="933" 
d="M180 0v442l-129 -102v154l129 102v866h160v-755l342 272v-154l-342 -270v-420h571v-135h-731z" />
    <glyph glyph-name="lslash" unicode="&#x142;" horiz-adv-x="542" 
d="M164 1462h153v-610l199 156v-158l-199 -156v-375q0 -109 31 -149t115 -41h41v-129h-47q-170 0 -231 63q-60 63 -62 240v285l-160 -125v158l160 124v717z" />
    <glyph glyph-name="Nacute" unicode="&#x143;" horiz-adv-x="1249" 
d="M561 1618l131 289h182l-198 -289h-115zM180 0v1462h156l579 -1157v1157h154v-1462h-154l-581 1159v-1159h-154z" />
    <glyph glyph-name="nacute" unicode="&#x144;" horiz-adv-x="989" 
d="M408 1192l131 289h182l-199 -289h-114zM152 0v1028h118l11 -100q45 66 102 94t147 27q223 0 289 -179q27 -78 27 -241v-629h-154v612q0 164 -42 234t-146 70t-152 -82q-47 -80 -47 -271v-563h-153z" />
    <glyph glyph-name="Ncommaaccent" unicode="&#x145;" horiz-adv-x="1249" 
d="M485 -451l90 308h156l-139 -308h-107zM180 0v1462h156l579 -1157v1157h154v-1462h-154l-581 1159v-1159h-154z" />
    <glyph glyph-name="ncommaaccent" unicode="&#x146;" horiz-adv-x="989" 
d="M352 -451l90 308h156l-139 -308h-107zM152 0v1028h118l11 -100q45 66 102 94t147 27q223 0 289 -179q27 -78 27 -241v-629h-154v612q0 164 -42 234t-146 70t-152 -82q-47 -80 -47 -271v-563h-153z" />
    <glyph glyph-name="Ncaron" unicode="&#x147;" horiz-adv-x="1249" 
d="M645 1729l113 165h157l-221 -268h-100l-221 268h157zM180 0v1462h156l579 -1157v1157h154v-1462h-154l-581 1159v-1159h-154z" />
    <glyph glyph-name="ncaron" unicode="&#x148;" horiz-adv-x="989" 
d="M492 1303l112 165h158l-221 -268h-101l-221 268h158zM152 0v1028h118l11 -100q45 66 102 94t147 27q223 0 289 -179q27 -78 27 -241v-629h-154v612q0 164 -42 234t-146 70t-152 -82q-47 -80 -47 -271v-563h-153z" />
    <glyph glyph-name="napostrophe" unicode="&#x149;" horiz-adv-x="1077" 
d="M23 977l61 485h166l-96 -485h-131zM242 0v1028h118l11 -113q47 72 103 102t147 30q221 0 286 -179q27 -74 27 -239v-629h-154v612q0 162 -42 232t-146 70t-150 -82q-47 -80 -47 -269v-563h-153z" />
    <glyph glyph-name="Eng" unicode="&#x14a;" horiz-adv-x="1249" 
d="M180 0v1462h156l579 -1155v1155h154v-1497q4 -246 -75 -342t-283 -94v127q113 -6 161 62t48 225v65l-586 1151v-1159h-154z" />
    <glyph glyph-name="eng" unicode="&#x14b;" horiz-adv-x="989" 
d="M152 0v1028h118l11 -113q47 72 103 102t148 30q221 0 287 -179q27 -74 27 -239v-658q4 -250 -76 -347t-289 -95v131q115 -8 165 62t46 233v657q0 164 -42 233t-146 69t-152 -82q-47 -80 -47 -269v-563h-153z" />
    <glyph glyph-name="Omacron" unicode="&#x14c;" horiz-adv-x="1171" 
d="M356 1698v112h459v-112h-459zM860 502v459q0 201 -66 293t-210 94q-143 0 -209 -94t-66 -293v-459q0 -201 66 -294t209 -93t210 93q66 93 66 294zM150 485v492q0 252 98 366q114 137 348 137t344 -159q80 -111 80 -344v-492q0 -252 -98 -366q-114 -137 -348 -137
t-345 159q-79 115 -79 344z" />
    <glyph glyph-name="omacron" unicode="&#x14d;" horiz-adv-x="974" 
d="M260 1272v112h459v-112h-459zM696 403v224q0 151 -49 221t-159 70t-158 -70t-49 -221v-224q0 -153 49 -223q50 -70 158 -70t158 70q50 69 50 223zM127 403v222q0 219 87 320t275 101q189 0 275 -100q86 -102 86 -321v-222q0 -219 -86 -320t-274 -101t-276 101
q-87 101 -87 320z" />
    <glyph glyph-name="Obreve" unicode="&#x14e;" horiz-adv-x="1171" 
d="M580 1612q-170 0 -222 123q-16 40 -22 153h104q8 -88 40 -124t105 -36t103 36q30 34 41 124h105q-6 -121 -31 -170q-53 -106 -223 -106zM860 502v459q0 201 -66 293t-210 94q-143 0 -209 -94t-66 -293v-459q0 -201 66 -294t209 -93t210 93q66 93 66 294zM150 485v492
q0 252 98 366q114 137 348 137t344 -159q80 -111 80 -344v-492q0 -252 -98 -366q-114 -137 -348 -137t-345 159q-79 115 -79 344z" />
    <glyph glyph-name="obreve" unicode="&#x14f;" horiz-adv-x="974" 
d="M484 1186q-170 0 -222 123q-16 40 -22 153h104q8 -88 40 -124t104 -36t104 36q31 34 41 124h104q-6 -121 -30 -170q-53 -106 -223 -106zM696 403v224q0 151 -49 221t-159 70t-158 -70t-49 -221v-224q0 -153 49 -223q50 -70 158 -70t158 70q50 69 50 223zM127 403v222
q0 219 87 320t275 101q189 0 275 -100q86 -102 86 -321v-222q0 -219 -86 -320t-274 -101t-276 101q-87 101 -87 320z" />
    <glyph glyph-name="Ohungarumlaut" unicode="&#x150;" horiz-adv-x="1171" 
d="M637 1618l104 289h168l-164 -289h-108zM395 1618l105 289h168l-164 -289h-109zM860 502v459q0 201 -66 293t-210 94q-143 0 -209 -94t-66 -293v-459q0 -201 66 -294t209 -93t210 93q66 93 66 294zM150 485v492q0 252 98 366q114 137 348 137t344 -159q80 -111 80 -344
v-492q0 -252 -98 -366q-114 -137 -348 -137t-345 159q-79 115 -79 344z" />
    <glyph glyph-name="ohungarumlaut" unicode="&#x151;" horiz-adv-x="974" 
d="M541 1192l104 289h168l-164 -289h-108zM299 1192l104 289h168l-163 -289h-109zM696 403v224q0 151 -49 221t-159 70t-158 -70t-49 -221v-224q0 -153 49 -223q50 -70 158 -70t158 70q50 69 50 223zM127 403v222q0 219 87 320t275 101q189 0 275 -100q86 -102 86 -321v-222
q0 -219 -86 -320t-274 -101t-276 101q-87 101 -87 320z" />
    <glyph glyph-name="OE" unicode="&#x152;" horiz-adv-x="1683" 
d="M309 961v-461q0 -201 67 -293t209 -92t210 94t67 291v461q0 199 -68 293t-209 94q-142 0 -209 -93t-67 -294zM885 0v113q-59 -72 -130 -102t-182 -29q-238 0 -346 159q-78 115 -77 342v494q0 248 96 366q110 137 322 137t317 -124v106h700v-135h-565v-520h481v-135h-481
v-537h567v-135h-702z" />
    <glyph glyph-name="oe" unicode="&#x153;" horiz-adv-x="1529" 
d="M852 606h414v41q0 270 -205 271q-209 0 -209 -271v-41zM698 403v222q0 155 -50 225t-159 70t-159 -71t-49 -224v-222q0 -153 50 -223q51 -70 159 -70t158 71q50 70 50 222zM1395 236q-47 -254 -303 -254q-124 0 -193 32q-68 32 -117 111q-46 -76 -116 -110t-181 -33
q-186 0 -272 102t-86 322v217q0 219 86 321q87 102 281 102t282 -141q76 141 272 141t281 -108q84 -109 84 -344v-109h-561v-86q0 -291 221 -290q82 1 127 37t62 118z" />
    <glyph glyph-name="Racute" unicode="&#x154;" horiz-adv-x="1120" 
d="M469 1618l131 289h182l-198 -289h-115zM340 768h231q139 0 199 70t61 213q0 143 -63 211t-203 67h-225v-561zM342 637v-637h-160v1462h393q225 0 321 -103t95 -304q0 -340 -254 -400l275 -655h-176l-252 637h-242z" />
    <glyph glyph-name="racute" unicode="&#x155;" horiz-adv-x="665" 
d="M289 1192l131 289h182l-199 -289h-114zM152 0v1028h120l17 -90q68 109 207 109q86 0 170 -54l-68 -129q-61 47 -121 47q-90 0 -131 -96t-41 -313v-502h-153z" />
    <glyph glyph-name="Rcommaaccent" unicode="&#x156;" horiz-adv-x="1120" 
d="M426 -451l90 308h156l-140 -308h-106zM340 768h231q139 0 199 70t61 213q0 143 -63 211t-203 67h-225v-561zM342 637v-637h-160v1462h393q225 0 321 -103t95 -304q0 -340 -254 -400l275 -655h-176l-252 637h-242z" />
    <glyph glyph-name="rcommaaccent" unicode="&#x157;" horiz-adv-x="665" 
d="M68 -451l88 308h157l-139 -308h-106zM154 0v1028h118l19 -90q68 109 207 109q86 0 170 -54l-68 -129q-61 47 -121 47q-90 0 -131 -96t-41 -313v-502h-153z" />
    <glyph glyph-name="Rcaron" unicode="&#x158;" horiz-adv-x="1120" 
d="M541 1729l112 165h158l-221 -268h-101l-221 268h158zM340 768h231q139 0 199 70t61 213q0 143 -63 211t-203 67h-225v-561zM342 637v-637h-160v1462h393q225 0 321 -103t95 -304q0 -340 -254 -400l275 -655h-176l-252 637h-242z" />
    <glyph glyph-name="rcaron" unicode="&#x159;" horiz-adv-x="665" 
d="M377 1303l115 165h157l-221 -268h-100l-222 268h158zM152 0v1028h118l19 -90q68 109 207 109q86 0 170 -54l-68 -129q-61 47 -121 47q-90 0 -131 -96t-41 -313v-502h-153z" />
    <glyph glyph-name="Sacute" unicode="&#x15a;" horiz-adv-x="1013" 
d="M424 1618l131 289h182l-198 -289h-115zM492 115q274 0 274 276q0 129 -72 195q-34 29 -66 42t-159 52q-188 55 -270 150q-82 96 -82 270t101 277q102 103 272 103t259 -70q89 -71 121 -220l-139 -37q-31 107 -83 151t-154 44t-162 -66t-60 -182t62 -180t202 -106t182 -60
q204 -87 204 -355q0 -203 -110 -311t-305 -106q-195 0 -295 74q-99 75 -136 243l139 39q33 -117 99 -170t178 -53z" />
    <glyph glyph-name="sacute" unicode="&#x15b;" horiz-adv-x="845" 
d="M330 1192l131 289h182l-199 -289h-114zM100 758q0 137 79 213t225 76q146 -1 220 -57q75 -56 103 -183l-131 -31q-35 143 -182 144q-80 0 -124 -42t-44 -119t42 -113t189 -66t207 -78q80 -63 80 -219q0 -301 -358 -301q-300 0 -351 254l133 30q23 -84 74 -121t146 -36
q211 0 210 176q0 94 -59 131q-39 24 -183 52t-202 85q-74 68 -74 205z" />
    <glyph glyph-name="Scircumflex" unicode="&#x15c;" horiz-adv-x="1013" 
d="M510 1794l-113 -166h-157l221 270h100l221 -270h-157zM492 115q274 0 274 276q0 129 -72 195q-34 29 -66 42t-159 52q-188 55 -270 150q-82 96 -82 270t101 277q102 103 272 103t259 -70q89 -71 121 -220l-139 -37q-31 107 -83 151t-154 44t-162 -66t-60 -182t62 -180
t202 -106t182 -60q204 -87 204 -355q0 -203 -110 -311t-305 -106q-195 0 -295 74q-99 75 -136 243l139 39q33 -117 99 -170t178 -53z" />
    <glyph glyph-name="scircumflex" unicode="&#x15d;" horiz-adv-x="845" 
d="M416 1368l-113 -166h-158l222 268h100l221 -268h-158zM100 758q0 137 79 213t225 76q146 -1 220 -57q75 -56 103 -183l-131 -31q-35 143 -182 144q-80 0 -124 -42t-44 -119t42 -113t189 -66t207 -78q80 -63 80 -219q0 -301 -358 -301q-300 0 -351 254l133 30
q23 -84 74 -121t146 -36q211 0 210 176q0 94 -59 131q-39 24 -183 52t-202 85q-74 68 -74 205z" />
    <glyph glyph-name="Scedilla" unicode="&#x15e;" horiz-adv-x="1013" 
d="M342 -451l90 308h156l-139 -308h-107zM492 115q274 0 274 276q0 129 -72 195q-34 29 -66 42t-159 52q-188 55 -270 150q-82 96 -82 270t101 277q102 103 272 103t259 -70q89 -71 121 -220l-139 -37q-31 107 -83 151t-154 44t-162 -66t-60 -182t62 -180t202 -106t182 -60
q204 -87 204 -355q0 -203 -110 -311t-305 -106q-195 0 -295 74q-99 75 -136 243l139 39q33 -117 99 -170t178 -53z" />
    <glyph glyph-name="scedilla" unicode="&#x15f;" horiz-adv-x="845" 
d="M270 -451l90 308h156l-139 -308h-107zM100 758q0 137 79 213t225 76q146 -1 220 -57q75 -56 103 -183l-131 -31q-35 143 -182 144q-80 0 -124 -42t-44 -119t42 -113t189 -66t207 -78q80 -63 80 -219q0 -301 -358 -301q-300 0 -351 254l133 30q23 -84 74 -121t146 -36
q211 0 210 176q0 94 -59 131q-39 24 -183 52t-202 85q-74 68 -74 205z" />
    <glyph glyph-name="Scaron" unicode="&#x160;" horiz-adv-x="1013" 
d="M514 1729l113 165h157l-221 -268h-100l-221 268h157zM492 115q274 0 274 276q0 129 -72 195q-34 29 -66 42t-159 52q-188 55 -270 150q-82 96 -82 270t101 277q102 103 272 103t259 -70q89 -71 121 -220l-139 -37q-31 107 -83 151t-154 44t-162 -66t-60 -182t62 -180
t202 -106t182 -60q204 -87 204 -355q0 -203 -110 -311t-305 -106q-195 0 -295 74q-99 75 -136 243l139 39q33 -117 99 -170t178 -53z" />
    <glyph glyph-name="scaron" unicode="&#x161;" horiz-adv-x="845" 
d="M422 1303l113 165h157l-221 -268h-100l-221 268h157zM100 758q0 137 79 213t225 76q146 -1 220 -57q75 -56 103 -183l-131 -31q-35 143 -182 144q-80 0 -124 -42t-44 -119t42 -113t189 -66t207 -78q80 -63 80 -219q0 -301 -358 -301q-300 0 -351 254l133 30
q23 -84 74 -121t146 -36q211 0 210 176q0 94 -59 131q-39 24 -183 52t-202 85q-74 68 -74 205z" />
    <glyph glyph-name="Tcommaaccent" unicode="&#x162;" horiz-adv-x="927" 
d="M305 -451l90 308h156l-139 -308h-107zM385 0v1327h-340v135h838v-135h-338v-1327h-160z" />
    <glyph glyph-name="tcommaaccent" unicode="&#x163;" horiz-adv-x="585" 
d="M178 -451l90 308h156l-139 -308h-107zM180 901h-106v127h106l8 330h146v-330h170v-127h-170v-594q-2 -100 28 -139t113 -39h33v-129h-39q-176 0 -232 63t-57 259v579z" />
    <glyph glyph-name="Tcaron" unicode="&#x164;" horiz-adv-x="927" 
d="M465 1729l113 165h157l-221 -268h-100l-221 268h157zM385 0v1327h-340v135h838v-135h-338v-1327h-160z" />
    <glyph glyph-name="tcaron" unicode="&#x165;" horiz-adv-x="684" 
d="M528 1122l41 414h154l-86 -414h-109zM180 901h-106v127h106l8 330h146v-330h170v-127h-170v-594q-2 -100 28 -139t113 -39h33v-129h-39q-176 0 -232 63t-57 259v579z" />
    <glyph glyph-name="Tbar" unicode="&#x166;" horiz-adv-x="927" 
d="M385 0v676h-235v131h235v520h-340v135h838v-135h-338v-520h233v-131h-233v-676h-160z" />
    <glyph glyph-name="tbar" unicode="&#x167;" horiz-adv-x="587" 
d="M182 901h-106v127h106l8 330h146v-330h170v-127h-170v-186h168v-111h-168v-303q0 -98 30 -135t111 -35h33v-131h-41q-170 0 -227 61t-60 244v299h-106v111h106v186z" />
    <glyph glyph-name="Utilde" unicode="&#x168;" horiz-adv-x="1196" 
d="M492 1878q70 0 129 -66t90 -65q47 0 67 115h96q-16 -96 -36 -142q-39 -86 -121 -86t-144 68q-53 63 -81 63q-53 1 -76 -114h-97q27 127 65 177t108 50zM174 1462h160v-993q0 -174 43 -242q66 -113 213 -112q92 -1 148 29t89 98t33 227v993h160v-993q0 -137 -15 -209
t-59 -129q-112 -149 -360 -149t-353 172q-59 94 -59 315v993z" />
    <glyph glyph-name="utilde" unicode="&#x169;" horiz-adv-x="968" 
d="M377 1450q70 0 131 -64q57 -66 90 -65q47 0 68 115h96q-20 -104 -37 -142q-41 -86 -122 -86t-142 68q-53 63 -82 63q-53 1 -76 -114h-96q27 127 63 176q37 49 107 49zM143 1028h154v-612q0 -164 40 -233t139 -69t144 83q44 82 44 268v563h153v-1028h-119l-10 100
q-47 -66 -101 -92t-138 -26q-215 0 -279 178q-27 74 -27 241v627z" />
    <glyph glyph-name="Umacron" unicode="&#x16a;" horiz-adv-x="1196" 
d="M369 1698v112h458v-112h-458zM174 1462h160v-993q0 -174 43 -242q66 -113 213 -112q92 -1 148 29t89 98t33 227v993h160v-993q0 -137 -15 -209t-59 -129q-112 -149 -360 -149t-353 172q-59 94 -59 315v993z" />
    <glyph glyph-name="umacron" unicode="&#x16b;" horiz-adv-x="968" 
d="M256 1272v112h459v-112h-459zM143 1028h154v-612q0 -164 40 -233t139 -69t144 83q44 82 44 268v563h153v-1028h-119l-10 100q-47 -66 -101 -92t-138 -26q-215 0 -279 178q-27 74 -27 241v627z" />
    <glyph glyph-name="Ubreve" unicode="&#x16c;" horiz-adv-x="1196" 
d="M592 1612q-170 0 -221 123q-17 40 -23 153h105q8 -88 40 -124q33 -36 105 -36t102 36q30 34 41 124h105q-6 -121 -31 -170q-53 -106 -223 -106zM174 1462h160v-993q0 -174 43 -242q66 -113 213 -112q92 -1 148 29t89 98t33 227v993h160v-993q0 -137 -15 -209t-59 -129
q-112 -149 -360 -149t-353 172q-59 94 -59 315v993z" />
    <glyph glyph-name="ubreve" unicode="&#x16d;" horiz-adv-x="968" 
d="M479 1186q-170 0 -221 123q-16 40 -22 153h104q8 -88 40 -124t104 -36t104 36q31 34 41 124h104q-6 -121 -31 -170q-53 -106 -223 -106zM143 1028h154v-612q0 -164 40 -233t139 -69t144 83q44 82 44 268v563h153v-1028h-119l-10 100q-47 -66 -101 -92t-138 -26
q-215 0 -279 178q-27 74 -27 241v627z" />
    <glyph glyph-name="Uring" unicode="&#x16e;" horiz-adv-x="1196" 
d="M597 1931q-97 0 -97 -124t97 -124t97 124t-97 124zM598 2013q92 0 146 -56q54 -57 54 -149t-54 -149q-56 -57 -146 -57t-146 57t-56 150t54 149q56 56 148 55zM174 1462h160v-993q0 -174 43 -242q66 -113 213 -112q92 -1 148 29t89 98t33 227v993h160v-993
q0 -137 -15 -209t-59 -129q-112 -149 -360 -149t-353 172q-59 94 -59 315v993z" />
    <glyph glyph-name="uring" unicode="&#x16f;" horiz-adv-x="968" 
d="M484 1503q-97 0 -97 -123t97 -123t98 123q-1 123 -98 123zM283 1382q0 92 55 148t146 55q90 0 146 -56q56 -55 56 -147t-55 -149t-145 -57t-147 57q-56 57 -56 149zM143 1028h154v-612q0 -164 40 -233t139 -69t144 83q44 82 44 268v563h153v-1028h-119l-10 100
q-47 -66 -101 -92t-138 -26q-215 0 -279 178q-27 74 -27 241v627z" />
    <glyph glyph-name="Uhungarumlaut" unicode="&#x170;" horiz-adv-x="1196" 
d="M653 1618l105 289h168l-164 -289h-109zM412 1618l104 289h168l-164 -289h-108zM174 1462h160v-993q0 -174 43 -242q66 -113 213 -112q92 -1 148 29t89 98t33 227v993h160v-993q0 -137 -15 -209t-59 -129q-112 -149 -360 -149t-353 172q-59 94 -59 315v993z" />
    <glyph glyph-name="uhungarumlaut" unicode="&#x171;" horiz-adv-x="968" 
d="M537 1192l104 289h168l-164 -289h-108zM295 1192l104 289h168l-164 -289h-108zM143 1028h154v-612q0 -164 40 -233t139 -69t144 83q44 82 44 268v563h153v-1028h-119l-10 100q-47 -66 -101 -92t-138 -26q-215 0 -279 178q-27 74 -27 241v627z" />
    <glyph glyph-name="Uogonek" unicode="&#x172;" horiz-adv-x="1196" 
d="M186 1462h160v-993q0 -172 43 -242q66 -111 213 -110q94 0 149 29q54 30 88 98t33 225v993h160v-993q6 -193 -51 -301t-190 -160q-80 -66 -114 -117t-34 -108q0 -80 90 -80q45 0 103 18l16 -90q-78 -27 -147 -26q-201 0 -201 155q0 119 121 224q-231 -2 -340 116t-99 369
v993z" />
    <glyph glyph-name="uogonek" unicode="&#x173;" horiz-adv-x="968" 
d="M817 1028v-1028q-96 -68 -133 -115t-37 -104q0 -78 90 -78q47 0 103 18l18 -90q-72 -27 -151 -26q-199 1 -199 151t190 250l-10 94q-47 -66 -101 -92t-138 -26q-215 0 -279 178q-27 74 -27 241v627h154v-612q0 -164 40 -233t139 -69t144 83q44 82 44 268v563h153z" />
    <glyph glyph-name="Wcircumflex" unicode="&#x174;" horiz-adv-x="1540" 
d="M770 1794l-113 -166h-157l221 270h100l221 -270h-157zM352 0l-295 1462h160l213 -1179l283 1179h114l281 -1179l215 1179h160l-295 -1462h-139l-279 1153l-278 -1153h-140z" />
    <glyph glyph-name="wcircumflex" unicode="&#x175;" horiz-adv-x="1339" 
d="M670 1368l-113 -166h-158l222 268h100l221 -268h-158zM330 0l-262 1028h155l178 -790l215 790h107l215 -790l180 790h156l-262 -1028h-127l-215 770l-215 -770h-125z" />
    <glyph glyph-name="Ycircumflex" unicode="&#x176;" horiz-adv-x="935" 
d="M467 1794l-113 -166h-157l221 270h100l221 -270h-157zM389 0v532l-389 930h168l301 -747l301 747h168l-389 -930v-532h-160z" />
    <glyph glyph-name="ycircumflex" unicode="&#x177;" horiz-adv-x="856" 
d="M428 1368l-113 -166h-157l221 268h100l221 -268h-157zM104 -340q100 0 139 33q38 33 72 149l41 154l-315 1032h154l239 -848l217 848h156l-336 -1202q-55 -186 -123 -240t-244 -57v131z" />
    <glyph glyph-name="Ydieresis" unicode="&#x178;" horiz-adv-x="935" 
d="M569 1634v209h140v-209h-140zM227 1634v209h140v-209h-140zM389 0v532l-389 930h168l301 -747l301 747h168l-389 -930v-532h-160z" />
    <glyph glyph-name="Zacute" unicode="&#x179;" horiz-adv-x="935" 
d="M420 1618l131 289h182l-198 -289h-115zM82 0v102l563 1225h-528v135h704v-102l-563 -1225h590v-135h-766z" />
    <glyph glyph-name="zacute" unicode="&#x17a;" horiz-adv-x="815" 
d="M344 1192l131 289h182l-198 -289h-115zM74 0v94l436 805h-401v129h585v-94l-438 -805h465v-129h-647z" />
    <glyph glyph-name="Zdotaccent" unicode="&#x17b;" horiz-adv-x="935" 
d="M420 1632v209h149v-209h-149zM82 0v102l563 1225h-528v135h704v-102l-563 -1225h590v-135h-766z" />
    <glyph glyph-name="zdotaccent" unicode="&#x17c;" horiz-adv-x="815" 
d="M344 1206v209h150v-209h-150zM74 0v94l436 805h-401v129h585v-94l-438 -805h465v-129h-647z" />
    <glyph glyph-name="Zcaron" unicode="&#x17d;" horiz-adv-x="935" 
d="M508 1729l113 165h157l-221 -268h-100l-221 268h157zM82 0v102l563 1225h-528v135h704v-102l-563 -1225h590v-135h-766z" />
    <glyph glyph-name="zcaron" unicode="&#x17e;" horiz-adv-x="815" 
d="M430 1303l113 165h157l-221 -268h-100l-221 268h157zM74 0v94l436 805h-401v129h585v-94l-438 -805h465v-129h-647z" />
    <glyph glyph-name="Ohorn" unicode="&#x1a0;" horiz-adv-x="1226" 
d="M860 502v459q0 201 -66 293t-210 92q-143 0 -209 -92t-66 -293v-459q0 -201 66 -294t209 -93t210 93q66 93 66 294zM1235 1405q0 -139 -109 -229q-31 -27 -114 -82q8 -55 8 -117v-492q0 -252 -98 -366q-114 -137 -348 -137t-345 159q-80 115 -79 344v492q0 252 98 366
q113 137 338 138q164 0 263 -69t146 -216q66 51 90 91q25 39 25 89t-23 107h136q12 -37 12 -78z" />
    <glyph glyph-name="ohorn" unicode="&#x1a1;" horiz-adv-x="1028" 
d="M696 403v224q0 153 -49 223t-159 70t-158 -70t-49 -223v-224q0 -153 49 -223q50 -70 158 -70t158 70q50 69 50 223zM850 594v-191q0 -219 -86 -320t-274 -101t-276 101q-87 101 -87 320v222q0 219 87 321t257 102t254 -67q84 -68 113 -211q59 59 76 92q41 79 -5 185h135
q12 -45 13 -86q0 -168 -211 -297q4 -27 4 -70z" />
    <glyph glyph-name="Uhorn" unicode="&#x1af;" horiz-adv-x="1280" 
d="M174 1462h160v-993q0 -174 43 -242q66 -113 213 -112q92 -1 148 29t89 98t33 227v993h160v-303q94 53 131 103t37 109q0 60 -23 112h138q10 -41 10 -82q0 -143 -135 -252q-43 -33 -158 -98v-582q0 -137 -15 -209t-59 -129q-112 -149 -360 -149t-353 172q-59 94 -59 315
v993z" />
    <glyph glyph-name="uhorn" unicode="&#x1b0;" horiz-adv-x="1062" 
d="M143 1028h154v-612q0 -164 40 -233t139 -69t144 83q44 82 44 268v563h153v-307q96 57 132 105t36 110t-22 111h137q10 -43 10 -82q0 -139 -135 -252q-47 -37 -158 -101v-612h-119l-10 100q-47 -66 -101 -92t-138 -26q-215 0 -279 178q-27 74 -27 241v627z" />
    <glyph glyph-name="uni01C4" unicode="&#x1c4;" horiz-adv-x="2052" 
d="M1624 1729l113 165h157l-221 -268h-100l-221 268h157zM1198 0v102l565 1225h-530v135h706v-102l-565 -1225h590v-135h-766zM340 133h215q162 -2 236 86t73 289v448q0 199 -73 287q-74 88 -236 86h-215v-1196zM180 0v1462h389q229 4 344 -119t111 -366v-492
q4 -245 -111 -367t-344 -118h-389z" />
    <glyph glyph-name="uni01C5" unicode="&#x1c5;" horiz-adv-x="1988" 
d="M1604 1303l112 165h158l-219 -268h-103l-221 268h158zM1247 0v94l436 805h-399v129h584v-94l-436 -805h462v-129h-647zM340 133h215q162 -2 236 86t73 289v448q0 199 -73 287q-74 88 -236 86h-215v-1196zM180 0v1462h389q229 4 344 -119t111 -366v-492q4 -245 -111 -367
t-344 -118h-389z" />
    <glyph glyph-name="uni01C6" unicode="&#x1c6;" horiz-adv-x="1802" 
d="M1417 1303l113 165h158l-220 -268h-102l-219 268h156zM1063 0v94l436 805h-401v129h585v-94l-438 -805h465v-129h-647zM281 627v-215q0 -299 196 -299q207 0 207 319v164q0 319 -207 319q-196 1 -196 -288zM450 -18q-162 0 -243 104q-80 104 -80 326v217q0 213 79 315
t245 103q82 1 132 -19t101 -72v506h154v-1462h-121l-10 82l-9 -8q-86 -92 -248 -92z" />
    <glyph glyph-name="uni01C7" unicode="&#x1c7;" horiz-adv-x="1454" 
d="M1114 1462h160v-1429q0 -170 -9 -244t-36 -125q-82 -162 -297 -162q-86 0 -174 33l59 125q51 -25 101 -25q135 0 178 138q18 61 18 254v1435zM180 0v1462h160v-1327h573v-135h-733z" />
    <glyph glyph-name="uni01C8" unicode="&#x1c8;" horiz-adv-x="1402" 
d="M1096 1028h153v-1057q5 -248 -75 -346t-287 -96v131q115 -6 164 62t45 233v1073zM1096 1255v213h153v-213h-153zM180 0v1462h160v-1327h573v-135h-733z" />
    <glyph glyph-name="uni01C9" unicode="&#x1c9;" horiz-adv-x="989" 
d="M682 1028h154v-1057q6 -248 -75 -346t-288 -96v131q115 -6 164 62t45 233v1073zM682 1255v213h154v-213h-154zM152 1462h153v-1143q-2 -109 30 -149t116 -41h43v-129h-50q-174 0 -233 67t-59 265v1130z" />
    <glyph glyph-name="uni01CA" unicode="&#x1ca;" horiz-adv-x="1767" 
d="M1430 1462h159v-1429q0 -170 -9 -244t-36 -125q-82 -162 -297 -162q-86 0 -174 33l60 125q51 -25 100 -25q135 0 178 138q18 61 19 254v1435zM180 0v1462h156l579 -1157v1157h154v-1462h-154l-581 1159v-1159h-154z" />
    <glyph glyph-name="uni01CB" unicode="&#x1cb;" horiz-adv-x="1718" 
d="M1411 1255v213h154v-213h-154zM1411 1028h154v-1057q6 -248 -75 -346t-288 -96v131q115 -6 164 62t45 233v1073zM180 0v1462h156l579 -1157v1157h154v-1462h-154l-581 1159v-1159h-154z" />
    <glyph glyph-name="uni01CC" unicode="&#x1cc;" horiz-adv-x="1458" 
d="M1151 1255v213h154v-213h-154zM1151 1028h154v-1057q6 -248 -75 -346t-288 -96v131q115 -6 164 62t45 233v1073zM152 0v1028h118l11 -100q45 66 102 94t147 27q223 0 289 -179q27 -78 27 -241v-629h-154v612q0 164 -42 234t-146 70t-152 -82q-47 -80 -47 -271v-563h-153z
" />
    <glyph glyph-name="uni01CD" unicode="&#x1cd;" horiz-adv-x="1040" 
d="M522 1729l113 165h158l-222 -268h-100l-221 268h158zM745 457l-223 788l-225 -788h448zM780 324h-518l-90 -324h-174l453 1462h143l450 -1462h-172z" />
    <glyph glyph-name="uni01CE" unicode="&#x1ce;" horiz-adv-x="925" 
d="M467 1303l113 165h157l-221 -268h-100l-221 268h157zM627 483h-176q-121 0 -170 -45t-49 -147t42 -141q43 -39 157 -39t155 42t41 158v172zM627 602v74q0 133 -42 188q-41 56 -129 56t-130 -36t-70 -118l-131 39q63 242 321 242q213 0 291 -136q43 -78 43 -252v-659h-123
l-10 72q-43 -50 -97 -70t-153 -20q-171 0 -243 68t-72 240t77 242t265 70h203z" />
    <glyph glyph-name="uni01CF" unicode="&#x1cf;" horiz-adv-x="518" 
d="M258 1729l115 165h157l-221 -268h-100l-221 268h157zM178 0v1462h160v-1462h-160z" />
    <glyph glyph-name="uni01D0" unicode="&#x1d0;" horiz-adv-x="458" 
d="M229 1303l115 165h158l-221 -268h-101l-221 268h158zM154 0v1028h153v-1028h-153z" />
    <glyph glyph-name="uni01D1" unicode="&#x1d1;" horiz-adv-x="1171" 
d="M586 1729l112 165h158l-219 -268h-102l-222 268h158zM860 502v459q0 201 -66 293t-210 94q-143 0 -209 -94t-66 -293v-459q0 -201 66 -294t209 -93t210 93q66 93 66 294zM150 485v492q0 252 98 366q114 137 348 137t344 -159q80 -111 80 -344v-492q0 -252 -98 -366
q-114 -137 -348 -137t-345 159q-79 115 -79 344z" />
    <glyph glyph-name="uni01D2" unicode="&#x1d2;" horiz-adv-x="974" 
d="M489 1303l113 165h158l-221 -268h-101l-221 268h158zM696 403v224q0 151 -49 221t-159 70t-158 -70t-49 -221v-224q0 -153 49 -223q50 -70 158 -70t158 70q50 69 50 223zM127 403v222q0 219 87 320t275 101q189 0 275 -100q86 -102 86 -321v-222q0 -219 -86 -320
t-274 -101t-276 101q-87 101 -87 320z" />
    <glyph glyph-name="uni01D3" unicode="&#x1d3;" horiz-adv-x="1196" 
d="M598 1729l113 165h157l-221 -268h-100l-221 268h157zM174 1462h160v-993q0 -174 43 -242q66 -113 213 -112q92 -1 148 29t89 98t33 227v993h160v-993q0 -137 -15 -209t-59 -129q-112 -149 -360 -149t-353 172q-59 94 -59 315v993z" />
    <glyph glyph-name="uni01D4" unicode="&#x1d4;" horiz-adv-x="968" 
d="M485 1303l113 165h158l-221 -268h-101l-221 268h158zM143 1028h154v-612q0 -164 40 -233t139 -69t144 83q44 82 44 268v563h153v-1028h-119l-10 100q-47 -66 -101 -92t-138 -26q-215 0 -279 178q-27 74 -27 241v627z" />
    <glyph glyph-name="Gcaron" unicode="&#x1e6;" horiz-adv-x="1146" 
d="M575 1729l113 165h158l-221 -268h-101l-221 268h158zM614 635v129h404v-264q0 -256 -90 -371q-114 -147 -354 -147t-347 161q-78 113 -77 367v440q0 274 94 391q112 137 316 137q403 1 417 -384l-148 -7q-16 258 -254 259q-143 0 -204 -94t-62 -308v-428q-1 -215 63 -308
t210 -93q279 0 278 354v166h-246z" />
    <glyph glyph-name="gcaron" unicode="&#x1e7;" horiz-adv-x="989" 
d="M510 1303l113 165h157l-221 -268h-100l-221 268h157zM281 627v-215q0 -299 196 -299q207 0 207 319v164q0 322 -207 322q-196 0 -196 -291zM684 -55v127q-84 -90 -240 -90q-316 0 -317 432v213q0 215 79 317t243 102t251 -104l17 86h121v-1067q0 -225 -90 -333t-279 -107
q-135 0 -209 54t-102 175l131 35q23 -76 63 -108t115 -31q113 0 165 72t52 227z" />
    <glyph glyph-name="uni01EA" unicode="&#x1ea;" horiz-adv-x="1171" 
d="M868 502v459q0 201 -66 293t-210 94q-143 0 -209 -94t-66 -293v-459q0 -201 66 -293t209 -92t210 92q66 92 66 293zM158 977q0 252 98 366q114 137 348 137t344 -159q80 -111 80 -344v-492q6 -371 -244 -475q-158 -117 -157 -227q0 -80 92 -80q45 0 100 18l17 -90
q-72 -27 -150 -26q-199 0 -199 151q0 66 27 116t96 110h-28q-213 4 -322 131t-102 372v492z" />
    <glyph glyph-name="uni01EB" unicode="&#x1eb;" horiz-adv-x="974" 
d="M698 403v224q0 151 -49 221t-159 70t-158 -70t-49 -221v-224q0 -153 49 -223q50 -70 158 -70t158 70q50 69 50 223zM852 625v-222q0 -159 -42 -249t-136 -138q-150 -123 -150 -233q0 -80 92 -80q45 0 101 18l16 -90q-72 -27 -149 -26q-199 0 -199 153q0 119 113 224
q-193 0 -282 101t-87 320v222q0 219 87 320q88 101 276 101t274 -100q86 -102 86 -321z" />
    <glyph glyph-name="uni01F1" unicode="&#x1f1;" horiz-adv-x="2052" 
d="M1198 0v102l565 1225h-530v135h706v-102l-565 -1225h590v-135h-766zM340 133h215q162 -2 236 86t73 289v448q0 199 -73 287q-74 88 -236 86h-215v-1196zM180 0v1462h389q229 4 344 -119t111 -366v-492q4 -245 -111 -367t-344 -118h-389z" />
    <glyph glyph-name="uni01F2" unicode="&#x1f2;" horiz-adv-x="1988" 
d="M1247 0v94l436 805h-399v129h584v-94l-436 -805h462v-129h-647zM340 133h215q162 -2 236 86t73 289v448q0 199 -73 287q-74 88 -236 86h-215v-1196zM180 0v1462h389q229 4 344 -119t111 -366v-492q4 -245 -111 -367t-344 -118h-389z" />
    <glyph glyph-name="uni01F3" unicode="&#x1f3;" horiz-adv-x="1802" 
d="M1063 0v94l436 805h-401v129h585v-94l-438 -805h465v-129h-647zM281 627v-215q0 -299 196 -299q207 0 207 319v164q0 319 -207 319q-196 1 -196 -288zM450 -18q-162 0 -243 104q-80 104 -80 326v217q0 213 79 315t245 103q82 1 132 -19t101 -72v506h154v-1462h-121
l-10 82l-9 -8q-86 -92 -248 -92z" />
    <glyph glyph-name="uni01F4" unicode="&#x1f4;" horiz-adv-x="1146" 
d="M487 1618l131 289h183l-199 -289h-115zM614 635v129h404v-264q0 -256 -90 -371q-114 -147 -354 -147t-347 161q-78 113 -77 367v440q0 274 94 391q112 137 316 137q403 1 417 -384l-148 -7q-16 258 -254 259q-143 0 -204 -94t-62 -308v-428q-1 -215 63 -308t210 -93
q279 0 278 354v166h-246z" />
    <glyph glyph-name="uni01F5" unicode="&#x1f5;" horiz-adv-x="989" 
d="M416 1192l131 289h182l-199 -289h-114zM281 627v-215q0 -299 196 -299q207 0 207 319v164q0 322 -207 322q-196 0 -196 -291zM684 -55v127q-84 -90 -240 -90q-316 0 -317 432v213q0 215 79 317t243 102t251 -104l17 86h121v-1067q0 -225 -90 -333t-279 -107
q-135 0 -209 54t-102 175l131 35q23 -76 63 -108t115 -31q113 0 165 72t52 227z" />
    <glyph glyph-name="Aringacute" unicode="&#x1fa;" horiz-adv-x="1040" 
d="M446 1835l99 240h194l-194 -240h-99zM522 1712q-100 0 -100 -123t98 -123t98 123q0 57 -25 90q-26 33 -71 33zM745 457l-223 788l-225 -788h448zM317 1606q-1 78 55 132q56 56 148 56t148 -55t55 -133q0 -153 -111 -203l432 -1403h-172l-92 324h-518l-90 -324h-174
l432 1401q-51 23 -82 75t-31 130z" />
    <glyph glyph-name="aringacute" unicode="&#x1fb;" horiz-adv-x="925" 
d="M395 1626l99 240h194l-194 -240h-99zM567 1340q0 122 -98 122t-98 -123t98 -122t98 123zM469 1544q92 0 147 -56q56 -56 56 -148t-56 -148q-56 -57 -147 -57q-90 0 -146 57q-57 57 -57 150q0 94 56 148t147 54zM627 483h-176q-121 0 -170 -45t-49 -147t42 -141
q43 -39 157 -39t155 42t41 158v172zM627 602v74q0 133 -42 188q-41 56 -129 56t-130 -36t-70 -118l-131 39q63 242 321 242q213 0 291 -136q43 -78 43 -252v-659h-123l-10 72q-43 -50 -97 -70t-153 -20q-171 0 -243 68t-72 240t77 242t265 70h203z" />
    <glyph glyph-name="AEacute" unicode="&#x1fc;" horiz-adv-x="1640" 
d="M1049 1618l131 289h182l-199 -289h-114zM819 473v854h-20l-445 -854h465zM819 340h-530l-174 -340h-185l791 1462h821v-135h-565v-520h481v-135h-481v-537h567v-135h-725v340z" />
    <glyph glyph-name="aeacute" unicode="&#x1fd;" horiz-adv-x="1460" 
d="M637 1192l131 289h182l-198 -289h-115zM782 604h414v43q0 270 -207 271q-207 0 -207 -271v-43zM627 485h-176q-119 0 -169 -45t-50 -150q0 -106 43 -146q44 -40 156 -40t154 50t42 184v147zM1343 485h-561v-86q0 -291 222 -290q82 1 126 37t62 118l133 -28
q-41 -254 -321 -254q-205 0 -289 149q-63 -150 -318 -149q-171 0 -243 68t-72 241q0 172 77 243t265 70h203v72q0 131 -42 187t-143 57q-149 0 -192 -154l-123 41q23 115 106 177q84 62 216 63q201 0 264 -134q82 133 272 133q191 0 275 -108q84 -109 83 -344v-109z" />
    <glyph glyph-name="Oslashacute" unicode="&#x1fe;" horiz-adv-x="1169" 
d="M492 1618l131 289h182l-199 -289h-114zM309 961v-459q0 -94 4 -125l484 868q-70 103 -213 103t-209 -94t-66 -293zM586 115q141 0 208 93t66 294v459q0 57 -6 118l-481 -866q72 -98 213 -98zM1020 485q0 -248 -98 -366q-113 -137 -338 -137q-182 0 -291 90l-60 -109
l-112 66l84 151q-55 117 -55 305v492q0 254 96 366q112 137 318 137t313 -91l57 104l113 -66l-82 -149q53 -113 55 -301v-492z" />
    <glyph glyph-name="oslashacute" unicode="&#x1ff;" horiz-adv-x="976" 
d="M395 1192l131 289h183l-199 -289h-115zM281 627v-226q0 -65 6 -104l344 569q-51 54 -151 54q-199 0 -199 -293zM496 111q200 0 200 290v226q0 65 -8 112l-346 -573q54 -55 154 -55zM850 625v-219q0 -220 -87 -322t-274 -102q-139 0 -225 57l-49 -82l-96 63l63 105
q-57 104 -55 281v219q0 219 87 320t273 102q135 0 220 -54l49 78l96 -61l-61 -103q59 -96 59 -282z" />
    <glyph glyph-name="uni0200" unicode="&#x200;" horiz-adv-x="1040" 
d="M469 1618h-109l-163 289h165zM711 1618h-109l-164 289h168zM745 457l-223 788l-225 -788h448zM780 324h-518l-90 -324h-174l453 1462h143l450 -1462h-172z" />
    <glyph glyph-name="uni0201" unicode="&#x201;" horiz-adv-x="925" 
d="M410 1192h-109l-164 289h166zM651 1192h-108l-164 289h168zM627 483h-176q-121 0 -170 -45t-49 -147t42 -141q43 -39 157 -39t155 42t41 158v172zM627 602v74q0 133 -42 188q-41 56 -129 56t-130 -36t-70 -118l-131 39q63 242 321 242q213 0 291 -136q43 -78 43 -252
v-659h-123l-10 72q-43 -50 -97 -70t-153 -20q-171 0 -243 68t-72 240t77 242t265 70h203z" />
    <glyph glyph-name="uni0202" unicode="&#x202;" horiz-adv-x="1040" 
d="M521 1788q-73 0 -105 -35t-39 -125h-105q6 121 31 170q53 106 223 106t222 -122q18 -50 22 -154h-104q-8 88 -40 124t-105 36zM745 457l-223 788l-225 -788h448zM780 324h-518l-90 -324h-174l453 1462h143l450 -1462h-172z" />
    <glyph glyph-name="uni0203" unicode="&#x203;" horiz-adv-x="925" 
d="M464 1362q-72 0 -105 -35q-32 -35 -40 -125h-104q6 121 31 170q53 106 223 106t221 -122q19 -50 23 -154h-105q-8 88 -40 124t-104 36zM627 483h-176q-121 0 -170 -45t-49 -147t42 -141q43 -39 157 -39t155 42t41 158v172zM627 602v74q0 133 -42 188q-41 56 -129 56
t-130 -36t-70 -118l-131 39q63 242 321 242q213 0 291 -136q43 -78 43 -252v-659h-123l-10 72q-43 -50 -97 -70t-153 -20q-171 0 -243 68t-72 240t77 242t265 70h203z" />
    <glyph glyph-name="uni0204" unicode="&#x204;" horiz-adv-x="1003" 
d="M489 1618h-108l-164 289h166zM731 1618h-108l-164 289h168zM180 0v1462h723v-135h-563v-520h479v-135h-479v-537h567v-135h-727z" />
    <glyph glyph-name="uni0205" unicode="&#x205;" horiz-adv-x="954" 
d="M426 1192h-109l-163 289h165zM668 1192h-109l-164 289h168zM281 604h411v43q0 270 -205 271q-207 0 -206 -271v-43zM281 485v-86q0 -289 219 -288q82 -1 127 35t63 118l133 -28q-23 -131 -102 -193q-80 -61 -227 -61q-188 0 -278 108q-89 109 -89 340v164q0 236 86 344
t271 109q184 0 270 -109t86 -344v-109h-559z" />
    <glyph glyph-name="uni0206" unicode="&#x206;" horiz-adv-x="1003" 
d="M529 1788q-73 0 -105 -35t-39 -125h-104q6 121 30 170q53 106 223 106t222 -122q18 -50 22 -154h-104q-8 88 -40 124t-105 36zM180 0v1462h723v-135h-563v-520h479v-135h-479v-537h567v-135h-727z" />
    <glyph glyph-name="uni0207" unicode="&#x207;" horiz-adv-x="954" 
d="M478 1362q-72 0 -104 -35t-40 -125h-105q6 121 31 170q53 106 223 106t222 -122q18 -50 22 -154h-104q-8 88 -40 124t-105 36zM281 604h411v43q0 270 -205 271q-207 0 -206 -271v-43zM281 485v-86q0 -289 219 -288q82 -1 127 35t63 118l133 -28q-23 -131 -102 -193
q-80 -61 -227 -61q-188 0 -278 108q-89 109 -89 340v164q0 236 86 344t271 109q184 0 270 -109t86 -344v-109h-559z" />
    <glyph glyph-name="uni0208" unicode="&#x208;" horiz-adv-x="518" 
d="M207 1618h-109l-164 289h166zM449 1618h-109l-164 289h168zM180 0v1462h160v-1462h-160z" />
    <glyph glyph-name="uni0209" unicode="&#x209;" horiz-adv-x="458" 
d="M178 1192h-108l-164 289h166zM420 1192h-109l-164 289h168zM154 0v1028h153v-1028h-153z" />
    <glyph glyph-name="uni020A" unicode="&#x20a;" horiz-adv-x="518" 
d="M261 1788q-73 0 -105 -35t-39 -125h-105q6 121 31 170q53 106 223 106t221 -122q19 -50 23 -154h-104q-8 88 -40 124t-105 36zM180 0v1462h160v-1462h-160z" />
    <glyph glyph-name="uni020B" unicode="&#x20b;" horiz-adv-x="458" 
d="M230 1362q-72 0 -104 -35t-40 -125h-104q6 121 30 170q53 106 223 106t222 -122q18 -50 22 -154h-104q-8 88 -40 124t-105 36zM154 0v1028h153v-1028h-153z" />
    <glyph glyph-name="uni020C" unicode="&#x20c;" horiz-adv-x="1171" 
d="M532 1618h-108l-164 289h166zM774 1618h-108l-164 289h168zM860 502v459q0 201 -66 293t-210 94q-143 0 -209 -94t-66 -293v-459q0 -201 66 -294t209 -93t210 93q66 93 66 294zM150 485v492q0 252 98 366q114 137 348 137t344 -159q80 -111 80 -344v-492q0 -252 -98 -366
q-114 -137 -348 -137t-345 159q-79 115 -79 344z" />
    <glyph glyph-name="uni020D" unicode="&#x20d;" horiz-adv-x="974" 
d="M436 1192h-108l-164 289h166zM678 1192h-109l-163 289h167zM696 403v224q0 151 -49 221t-159 70t-158 -70t-49 -221v-224q0 -153 49 -223q50 -70 158 -70t158 70q50 69 50 223zM127 403v222q0 219 87 320t275 101q189 0 275 -100q86 -102 86 -321v-222q0 -219 -86 -320
t-274 -101t-276 101q-87 101 -87 320z" />
    <glyph glyph-name="uni020E" unicode="&#x20e;" horiz-adv-x="1171" 
d="M584 1788q-72 0 -104 -35t-40 -125h-104q6 121 31 170q53 106 223 106t221 -122q19 -50 23 -154h-105q-8 88 -40 124q-33 36 -105 36zM860 502v459q0 201 -66 293t-210 94q-143 0 -209 -94t-66 -293v-459q0 -201 66 -294t209 -93t210 93q66 93 66 294zM150 485v492
q0 252 98 366q114 137 348 137t344 -159q80 -111 80 -344v-492q0 -252 -98 -366q-114 -137 -348 -137t-345 159q-79 115 -79 344z" />
    <glyph glyph-name="uni020F" unicode="&#x20f;" horiz-adv-x="974" 
d="M488 1362q-72 0 -104 -35t-40 -125h-104q6 121 30 170q53 106 223 106t222 -122q18 -50 22 -154h-104q-8 88 -40 124t-105 36zM696 403v224q0 151 -49 221t-159 70t-158 -70t-49 -221v-224q0 -153 49 -223q50 -70 158 -70t158 70q50 69 50 223zM127 403v222q0 219 87 320
t275 101q189 0 275 -100q86 -102 86 -321v-222q0 -219 -86 -320t-274 -101t-276 101q-87 101 -87 320z" />
    <glyph glyph-name="uni0210" unicode="&#x210;" horiz-adv-x="1120" 
d="M469 1618h-109l-163 289h165zM711 1618h-109l-164 289h168zM340 768h231q139 0 199 70t61 213q0 143 -63 211t-203 67h-225v-561zM342 637v-637h-160v1462h393q225 0 321 -103t95 -304q0 -340 -254 -400l275 -655h-176l-252 637h-242z" />
    <glyph glyph-name="uni0211" unicode="&#x211;" horiz-adv-x="665" 
d="M313 1192h-108l-164 289h166zM555 1192h-109l-163 289h168zM152 0v1028h120l17 -90q68 109 207 109q86 0 170 -54l-68 -129q-61 47 -121 47q-90 0 -131 -96t-41 -313v-502h-153z" />
    <glyph glyph-name="uni0212" unicode="&#x212;" horiz-adv-x="1120" 
d="M515 1788q-73 0 -105 -35t-39 -125h-105q6 121 31 170q53 106 223 106t221 -122q19 -50 23 -154h-105q-8 88 -39 124q-32 36 -105 36zM340 768h231q139 0 199 70t61 213q0 143 -63 211t-203 67h-225v-561zM342 637v-637h-160v1462h393q225 0 321 -103t95 -304
q0 -340 -254 -400l275 -655h-176l-252 637h-242z" />
    <glyph glyph-name="uni0213" unicode="&#x213;" horiz-adv-x="665" 
d="M374 1362q-72 0 -105 -35q-32 -35 -40 -125h-104q6 121 31 170q53 106 223 106t221 -122q19 -50 23 -154h-105q-8 88 -40 124t-104 36zM152 0v1028h120l17 -90q68 109 207 109q86 0 170 -54l-68 -129q-61 47 -121 47q-90 0 -131 -96t-41 -313v-502h-153z" />
    <glyph glyph-name="uni0214" unicode="&#x214;" horiz-adv-x="1196" 
d="M545 1618h-109l-164 289h166zM786 1618h-108l-164 289h168zM174 1462h160v-993q0 -174 43 -242q66 -113 213 -112q92 -1 148 29t89 98t33 227v993h160v-993q0 -137 -15 -209t-59 -129q-112 -149 -360 -149t-353 172q-59 94 -59 315v993z" />
    <glyph glyph-name="uni0215" unicode="&#x215;" horiz-adv-x="968" 
d="M432 1192h-108l-164 289h166zM674 1192h-109l-164 289h168zM143 1028h154v-612q0 -164 40 -233t139 -69t144 83q44 82 44 268v563h153v-1028h-119l-10 100q-47 -66 -101 -92t-138 -26q-215 0 -279 178q-27 74 -27 241v627z" />
    <glyph glyph-name="uni0216" unicode="&#x216;" horiz-adv-x="1196" 
d="M596 1788q-72 0 -104 -35t-39 -125h-105q6 121 31 170q53 106 223 106t221 -122q19 -50 23 -154h-105q-8 88 -40 124q-33 36 -105 36zM174 1462h160v-993q0 -174 43 -242q66 -113 213 -112q92 -1 148 29t89 98t33 227v993h160v-993q0 -137 -15 -209t-59 -129
q-112 -149 -360 -149t-353 172q-59 94 -59 315v993z" />
    <glyph glyph-name="uni0217" unicode="&#x217;" horiz-adv-x="968" 
d="M484 1362q-72 0 -104 -35t-40 -125h-104q6 121 30 170q53 106 223 106t222 -122q18 -50 22 -154h-104q-8 88 -40 124t-105 36zM143 1028h154v-612q0 -164 40 -233t139 -69t144 83q44 82 44 268v563h153v-1028h-119l-10 100q-47 -66 -101 -92t-138 -26q-215 0 -279 178
q-27 74 -27 241v627z" />
    <glyph glyph-name="Scommaaccent" unicode="&#x218;" horiz-adv-x="1013" 
d="M342 -451l90 308h156l-139 -308h-107zM492 115q274 0 274 276q0 129 -72 195q-34 29 -66 42t-159 52q-188 55 -270 150q-82 96 -82 270t101 277q102 103 272 103t259 -70q89 -71 121 -220l-139 -37q-31 107 -83 151t-154 44t-162 -66t-60 -182t62 -180t202 -106t182 -60
q204 -87 204 -355q0 -203 -110 -311t-305 -106q-195 0 -295 74q-99 75 -136 243l139 39q33 -117 99 -170t178 -53z" />
    <glyph glyph-name="scommaaccent" unicode="&#x219;" horiz-adv-x="845" 
d="M258 -451l90 308h156l-139 -308h-107zM100 758q0 137 79 213t225 76q146 -1 220 -57q75 -56 103 -183l-131 -31q-35 143 -182 144q-80 0 -124 -42t-44 -119t42 -113t189 -66t207 -78q80 -63 80 -219q0 -301 -358 -301q-300 0 -351 254l133 30q23 -84 74 -121t146 -36
q211 0 210 176q0 94 -59 131q-39 24 -183 52t-202 85q-74 68 -74 205z" />
    <glyph glyph-name="uni021A" unicode="&#x21a;" horiz-adv-x="927" 
d="M305 -451l90 308h156l-139 -308h-107zM385 0v1327h-340v135h838v-135h-338v-1327h-160z" />
    <glyph glyph-name="uni021B" unicode="&#x21b;" horiz-adv-x="585" 
d="M178 -451l90 308h156l-139 -308h-107zM180 901h-106v127h106l8 330h146v-330h170v-127h-170v-594q-2 -100 28 -139t113 -39h33v-129h-39q-176 0 -232 63t-57 259v579z" />
    <glyph glyph-name="uni0226" unicode="&#x226;" horiz-adv-x="1040" 
d="M444 1632v209h150v-209h-150zM745 457l-223 788l-225 -788h448zM780 324h-518l-90 -324h-174l453 1462h143l450 -1462h-172z" />
    <glyph glyph-name="uni0227" unicode="&#x227;" horiz-adv-x="925" 
d="M393 1206v209h150v-209h-150zM627 483h-176q-121 0 -170 -45t-49 -147t42 -141q43 -39 157 -39t155 42t41 158v172zM627 602v74q0 133 -42 188q-41 56 -129 56t-130 -36t-70 -118l-131 39q63 242 321 242q213 0 291 -136q43 -78 43 -252v-659h-123l-10 72
q-43 -50 -97 -70t-153 -20q-171 0 -243 68t-72 240t77 242t265 70h203z" />
    <glyph glyph-name="uni0237" unicode="&#x237;" horiz-adv-x="468" 
d="M162 1028h153v-1057q5 -248 -75 -346t-287 -96v131q115 -6 164 62t45 233v1073z" />
    <glyph glyph-name="afii57929" unicode="&#x2bc;" horiz-adv-x="329" 
d="M53 979l62 483h161l-96 -483h-127z" />
    <glyph glyph-name="uni02C0" unicode="&#x2c0;" horiz-adv-x="1024" 
d="M575 1595h-112q0 59 6 83t38 71t32 72q0 49 -64 49q-37 0 -96 -27l-31 94q84 31 158 31t118 -37t44 -96t-58 -131q-25 -34 -30 -50t-5 -59z" />
    <glyph glyph-name="circumflex" unicode="&#x2c6;" horiz-adv-x="1024" 
d="M510 1368l-113 -166h-157l221 268h100l221 -268h-157z" />
    <glyph glyph-name="caron" unicode="&#x2c7;" horiz-adv-x="1024" 
d="M512 1303l113 165h157l-221 -268h-100l-221 268h157z" />
    <glyph glyph-name="uni02C9" unicode="&#x2c9;" horiz-adv-x="1024" 
d="M283 1270v112h458v-112h-458z" />
    <glyph glyph-name="breve" unicode="&#x2d8;" horiz-adv-x="1024" 
d="M508 1186q-170 0 -221 123q-17 40 -23 153h105q8 -88 40 -124q33 -36 105 -36t102 36q30 34 41 124h105q-6 -121 -31 -170q-53 -106 -223 -106z" />
    <glyph glyph-name="dotaccent" unicode="&#x2d9;" horiz-adv-x="1024" 
d="M436 1208v209h150v-209h-150z" />
    <glyph glyph-name="ring" unicode="&#x2da;" horiz-adv-x="1024" 
d="M608 1380q0 123 -97 123t-97 -123t97 -123t97 123zM511 1585q91 0 146 -56q55 -55 55 -147t-54 -149q-56 -57 -146 -57t-146 57t-57 149t55 148t147 55z" />
    <glyph glyph-name="ogonek" unicode="&#x2db;" horiz-adv-x="1024" 
d="M545 -217q0 -80 92 -80q45 0 100 18l17 -90q-70 -27 -150 -26q-199 0 -198 151q0 144 178 244h131q-94 -66 -132 -115t-38 -102z" />
    <glyph glyph-name="tilde" unicode="&#x2dc;" horiz-adv-x="1024" 
d="M404 1450q70 0 131 -64q57 -66 90 -65q47 0 67 115h96q-20 -104 -36 -142q-39 -86 -121 -86t-144 68q-53 63 -81 63q-53 1 -76 -114h-97q27 127 64 176t107 49z" />
    <glyph glyph-name="hungarumlaut" unicode="&#x2dd;" horiz-adv-x="1024" 
d="M565 1192l105 289h168l-164 -289h-109zM324 1192l104 289h168l-164 -289h-108z" />
    <glyph glyph-name="uni0309" unicode="&#x309;" horiz-adv-x="1024" 
d="M575 1178h-112q0 59 6 83q6 25 38 71t32 71q0 49 -64 49q-41 0 -96 -27l-31 97q78 28 155 28t121 -36t44 -103q0 -33 -12 -55t-41 -62q-30 -39 -35 -56t-5 -60z" />
    <glyph glyph-name="uni0312" unicode="&#x312;" horiz-adv-x="1024" 
d="M420 1192l198 289h115l-131 -289h-182z" />
    <glyph glyph-name="uni0313" unicode="&#x313;" horiz-adv-x="139" 
d="M-18 1016l47 461h153l-94 -461h-106z" />
    <glyph glyph-name="uni031B" unicode="&#x31b;" horiz-adv-x="139" 
d="M-18 1016l47 461h153l-94 -461h-106z" />
    <glyph glyph-name="uni0323" unicode="&#x323;" horiz-adv-x="1024" 
d="M436 -395v209h150v-209h-150z" />
    <glyph glyph-name="uni037E" unicode="&#x37e;" horiz-adv-x="487" 
d="M178 829v199h160v-199h-160zM92 -385l82 582h170l-117 -582h-135z" />
    <glyph glyph-name="uni0387" unicode="&#x387;" horiz-adv-x="487" 
d="M164 645v197h160v-197h-160z" />
    <glyph glyph-name="uni04D4" unicode="&#x4d4;" horiz-adv-x="1640" 
d="M819 473v854h-20l-445 -854h465zM819 340h-530l-174 -340h-185l791 1462h821v-135h-565v-520h481v-135h-481v-537h567v-135h-725v340z" />
    <glyph glyph-name="uni04D5" unicode="&#x4d5;" horiz-adv-x="1460" 
d="M782 604h414v43q0 270 -207 271q-207 0 -207 -271v-43zM627 485h-176q-119 0 -169 -45t-50 -150q0 -106 43 -146q44 -40 156 -40t154 50t42 184v147zM1343 485h-561v-86q0 -291 222 -290q82 1 126 37t62 118l133 -28q-41 -254 -321 -254q-205 0 -289 149
q-63 -150 -318 -149q-171 0 -243 68t-72 241q0 172 77 243t265 70h203v72q0 131 -42 187t-143 57q-149 0 -192 -154l-123 41q23 115 106 177q84 62 216 63q201 0 264 -134q82 133 272 133q191 0 275 -108q84 -109 83 -344v-109z" />
    <glyph glyph-name="uni1E02" unicode="&#x1e02;" horiz-adv-x="1122" 
d="M459 1634v209h149v-209h-149zM854 403q0 283 -225 283h-289v-553h276q122 0 180 65t58 205zM340 819h266q225 0 225 254q0 141 -71 209q-53 47 -164 47h-256v-510zM180 0v1462h420q203 0 291 -88q100 -104 100 -289q0 -229 -157 -321q74 -43 106 -90q74 -102 74 -298
t-113 -298q-80 -78 -264 -78h-457z" />
    <glyph glyph-name="uni1E03" unicode="&#x1e03;" horiz-adv-x="987" 
d="M485 1208v209h150v-209h-150zM707 410v217q0 289 -195 288q-207 0 -207 -319v-164q0 -319 207 -319q195 0 195 297zM152 0v1462h153v-506q88 90 243 90q312 1 312 -417v-217q0 -222 -80 -326t-248 -104q-88 0 -139 20t-110 80l-11 -82h-120z" />
    <glyph glyph-name="uni1E0C" unicode="&#x1e0c;" horiz-adv-x="1173" 
d="M477 -395v209h150v-209h-150zM340 133h215q162 -2 236 86t73 289v448q0 199 -73 287q-74 88 -236 86h-215v-1196zM180 0v1462h389q229 4 344 -119t111 -366v-492q4 -245 -111 -367t-344 -118h-389z" />
    <glyph glyph-name="uni1E0D" unicode="&#x1e0d;" horiz-adv-x="987" 
d="M446 -395v209h150v-209h-150zM281 627v-215q0 -299 196 -299q205 0 205 319v164q0 319 -207 319q-194 1 -194 -288zM448 -18q-162 0 -241 104q-80 104 -80 326v217q0 213 79 315t245 103q82 1 131 -19t100 -72v506h154v-1462h-121l-10 82l-9 -8q-86 -92 -248 -92z" />
    <glyph glyph-name="uni1E1E" unicode="&#x1e1e;" horiz-adv-x="946" 
d="M473 1632v209h150v-209h-150zM180 0v1462h717v-135h-557v-530h473v-135h-473v-662h-160z" />
    <glyph glyph-name="uni1E1F" unicode="&#x1e1f;" horiz-adv-x="581" 
d="M291 1632v209h149v-209h-149zM188 901h-108v127h108v164q0 158 54 215t202 55h82v-125h-47q-85 3 -111 -27t-26 -132v-150h193v-127h-193v-901h-154v901z" />
    <glyph glyph-name="uni1E24" unicode="&#x1e24;" horiz-adv-x="1179" 
d="M516 -395v209h150v-209h-150zM180 0v1462h160v-655h502v655h159v-1462h-159v672h-502v-672h-160z" />
    <glyph glyph-name="uni1E25" unicode="&#x1e25;" horiz-adv-x="989" 
d="M420 -395v209h149v-209h-149zM152 0v1462h153v-501q84 86 230 86q219 0 284 -179q27 -74 27 -239v-629h-154v612q0 164 -42 233t-146 69t-152 -82q-47 -80 -47 -265v-567h-153z" />
    <glyph glyph-name="uni1E44" unicode="&#x1e44;" horiz-adv-x="1249" 
d="M569 1634v209h150v-209h-150zM180 0v1462h156l579 -1157v1157h154v-1462h-154l-581 1159v-1159h-154z" />
    <glyph glyph-name="uni1E45" unicode="&#x1e45;" horiz-adv-x="989" 
d="M420 1208v209h149v-209h-149zM152 0v1028h118l11 -100q45 66 102 94t147 27q223 0 289 -179q27 -78 27 -241v-629h-154v612q0 164 -42 234t-146 70t-152 -82q-47 -80 -47 -271v-563h-153z" />
    <glyph glyph-name="uni1E5A" unicode="&#x1e5a;" horiz-adv-x="1120" 
d="M506 -395v209h149v-209h-149zM340 768h231q139 0 199 70t61 213q0 143 -63 211t-203 67h-225v-561zM342 637v-637h-160v1462h393q225 0 321 -103t95 -304q0 -340 -254 -400l275 -655h-176l-252 637h-242z" />
    <glyph glyph-name="uni1E5B" unicode="&#x1e5b;" horiz-adv-x="665" 
d="M154 -395v209h149v-209h-149zM152 0v1028h120l17 -90q68 109 207 109q86 0 170 -54l-68 -129q-61 47 -121 47q-90 0 -131 -96t-41 -313v-502h-153z" />
    <glyph glyph-name="uni1E62" unicode="&#x1e62;" horiz-adv-x="1013" 
d="M410 -395v209h149v-209h-149zM492 115q274 0 274 276q0 129 -72 195q-34 29 -66 42t-159 52q-188 55 -270 150q-82 96 -82 270t101 277q102 103 272 103t259 -70q89 -71 121 -220l-139 -37q-31 107 -83 151t-154 44t-162 -66t-60 -182t62 -180t202 -106t182 -60
q204 -87 204 -355q0 -203 -110 -311t-305 -106q-195 0 -295 74q-99 75 -136 243l139 39q33 -117 99 -170t178 -53z" />
    <glyph glyph-name="uni1E63" unicode="&#x1e63;" horiz-adv-x="845" 
d="M346 -395v209h150v-209h-150zM100 758q0 137 79 213t225 76q146 -1 220 -57q75 -56 103 -183l-131 -31q-35 143 -182 144q-80 0 -124 -42t-44 -119t42 -113t189 -66t207 -78q80 -63 80 -219q0 -301 -358 -301q-300 0 -351 254l133 30q23 -84 74 -121t146 -36
q211 0 210 176q0 94 -59 131q-39 24 -183 52t-202 85q-74 68 -74 205z" />
    <glyph glyph-name="uni1E6C" unicode="&#x1e6c;" horiz-adv-x="927" 
d="M387 -395v209h150v-209h-150zM385 0v1327h-340v135h838v-135h-338v-1327h-160z" />
    <glyph glyph-name="uni1E6D" unicode="&#x1e6d;" horiz-adv-x="585" 
d="M219 -395v209h150v-209h-150zM180 901h-106v127h106l8 330h146v-330h170v-127h-170v-594q-2 -100 28 -139t113 -39h33v-129h-39q-176 0 -232 63t-57 259v579z" />
    <glyph glyph-name="Wgrave" unicode="&#x1e80;" horiz-adv-x="1540" 
d="M866 1618h-114l-199 289h182zM352 0l-295 1462h160l213 -1179l283 1179h114l281 -1179l215 1179h160l-295 -1462h-139l-279 1153l-278 -1153h-140z" />
    <glyph glyph-name="wgrave" unicode="&#x1e81;" horiz-adv-x="1339" 
d="M766 1192h-115l-198 289h182zM330 0l-262 1028h155l178 -790l215 790h107l215 -790l180 790h156l-262 -1028h-127l-215 770l-215 -770h-125z" />
    <glyph glyph-name="Wacute" unicode="&#x1e82;" horiz-adv-x="1540" 
d="M678 1618l131 289h182l-198 -289h-115zM352 0l-295 1462h160l213 -1179l283 1179h114l281 -1179l215 1179h160l-295 -1462h-139l-279 1153l-278 -1153h-140z" />
    <glyph glyph-name="wacute" unicode="&#x1e83;" horiz-adv-x="1339" 
d="M578 1192l131 289h182l-199 -289h-114zM330 0l-262 1028h155l178 -790l215 790h107l215 -790l180 790h156l-262 -1028h-127l-215 770l-215 -770h-125z" />
    <glyph glyph-name="Wdieresis" unicode="&#x1e84;" horiz-adv-x="1540" 
d="M872 1634v209h140v-209h-140zM530 1634v209h140v-209h-140zM352 0l-295 1462h160l213 -1179l283 1179h114l281 -1179l215 1179h160l-295 -1462h-139l-279 1153l-278 -1153h-140z" />
    <glyph glyph-name="wdieresis" unicode="&#x1e85;" horiz-adv-x="1339" 
d="M770 1208v209h139v-209h-139zM432 1208v209h139v-209h-139zM330 0l-262 1028h155l178 -790l215 790h107l215 -790l180 790h156l-262 -1028h-127l-215 770l-215 -770h-125z" />
    <glyph glyph-name="uni1E92" unicode="&#x1e92;" horiz-adv-x="935" 
d="M393 -395v209h150v-209h-150zM82 0v102l563 1225h-528v135h704v-102l-563 -1225h590v-135h-766z" />
    <glyph glyph-name="uni1E93" unicode="&#x1e93;" horiz-adv-x="815" 
d="M332 -395v209h149v-209h-149zM74 0v94l436 805h-401v129h585v-94l-438 -805h465v-129h-647z" />
    <glyph glyph-name="uni1EA0" unicode="&#x1ea0;" horiz-adv-x="1040" 
d="M444 -395v209h150v-209h-150zM745 457l-223 788l-225 -788h448zM780 324h-518l-90 -324h-174l453 1462h143l450 -1462h-172z" />
    <glyph glyph-name="uni1EA1" unicode="&#x1ea1;" horiz-adv-x="925" 
d="M387 -395v209h150v-209h-150zM627 483h-176q-121 0 -170 -45t-49 -147t42 -141q43 -39 157 -39t155 42t41 158v172zM627 602v74q0 133 -42 188q-41 56 -129 56t-130 -36t-70 -118l-131 39q63 242 321 242q213 0 291 -136q43 -78 43 -252v-659h-123l-10 72
q-43 -50 -97 -70t-153 -20q-171 0 -243 68t-72 240t77 242t265 70h203z" />
    <glyph glyph-name="uni1EA2" unicode="&#x1ea2;" horiz-adv-x="1040" 
d="M584 1595h-113q2 66 9 91q8 26 38 68t31 67q0 49 -64 49q-37 0 -98 -27l-31 94q84 31 159 31t119 -37t44 -102q0 -33 -11 -55t-42 -63t-36 -57t-5 -59zM745 457l-223 788l-225 -788h448zM780 324h-518l-90 -324h-174l453 1462h143l450 -1462h-172z" />
    <glyph glyph-name="uni1EA3" unicode="&#x1ea3;" horiz-adv-x="925" 
d="M547 1178h-113q0 59 6 83q6 25 38 71t32 71q0 49 -64 49q-41 0 -96 -27l-31 97q78 28 155 28t121 -36t44 -103q0 -33 -11 -55t-41 -62q-30 -39 -35 -56t-5 -60zM627 483h-176q-121 0 -170 -45t-49 -147t42 -141q43 -39 157 -39t155 42t41 158v172zM627 602v74
q0 133 -42 188q-41 56 -129 56t-130 -36t-70 -118l-131 39q63 242 321 242q213 0 291 -136q43 -78 43 -252v-659h-123l-10 72q-43 -50 -97 -70t-153 -20q-171 0 -243 68t-72 240t77 242t265 70h203z" />
    <glyph glyph-name="uni1EA4" unicode="&#x1ea4;" horiz-adv-x="1040" 
d="M520 1677l-119 -116h-151l223 217h94l224 -217h-152zM453 1833l102 231h141l-153 -231h-90zM745 457l-223 788l-225 -788h448zM780 324h-518l-90 -324h-174l453 1462h143l450 -1462h-172z" />
    <glyph glyph-name="uni1EA5" unicode="&#x1ea5;" horiz-adv-x="925" 
d="M479 1251l-119 -116h-151l223 217h94l224 -217h-152zM412 1405l102 233h141l-153 -233h-90zM627 483h-176q-121 0 -170 -45t-49 -147t42 -141q43 -39 157 -39t155 42t41 158v172zM627 602v74q0 133 -42 188q-41 56 -129 56t-130 -36t-70 -118l-131 39q63 242 321 242
q213 0 291 -136q43 -78 43 -252v-659h-123l-10 72q-43 -50 -97 -70t-153 -20q-171 0 -243 68t-72 240t77 242t265 70h203z" />
    <glyph glyph-name="uni1EA6" unicode="&#x1ea6;" horiz-adv-x="1040" 
d="M520 1677l-119 -116h-151l223 217h94l224 -217h-152zM586 1833h-90l-154 231h141zM745 457l-223 788l-225 -788h448zM780 324h-518l-90 -324h-174l453 1462h143l450 -1462h-172z" />
    <glyph glyph-name="uni1EA7" unicode="&#x1ea7;" horiz-adv-x="925" 
d="M479 1251l-119 -116h-153l225 217h94l224 -217h-152zM545 1405h-90l-154 233h141zM627 483h-176q-121 0 -170 -45t-49 -147t42 -141q43 -39 157 -39t155 42t41 158v172zM627 602v74q0 133 -42 188q-41 56 -129 56t-130 -36t-70 -118l-131 39q63 242 321 242
q213 0 291 -136q43 -78 43 -252v-659h-123l-10 72q-43 -50 -97 -70t-153 -20q-171 0 -243 68t-72 240t77 242t265 70h203z" />
    <glyph glyph-name="uni1EA8" unicode="&#x1ea8;" horiz-adv-x="1040" 
d="M516 1675l-119 -114h-151l223 206h94l223 -206h-151zM569 1802h-98v13q2 49 31 90t28 61q0 29 -40 29t-84 -19l-25 76q61 23 125 23t100 -28t35 -71q0 -43 -36 -86t-36 -88zM745 457l-223 788l-225 -788h448zM780 324h-518l-90 -324h-174l453 1462h143l450 -1462h-172z
" />
    <glyph glyph-name="uni1EA9" unicode="&#x1ea9;" horiz-adv-x="925" 
d="M475 1249l-121 -114h-151l223 206h96l223 -206h-151zM448 1569q-39 0 -83 -19l-25 74q63 25 125 25q61 0 97 -28t36 -71t-35 -86t-37 -88h-98q2 64 31 104t28 60q0 29 -39 29zM627 483h-176q-121 0 -170 -45t-49 -147t42 -141q43 -39 157 -39t155 42t41 158v172zM627 602
v74q0 133 -42 188q-41 56 -129 56t-130 -36t-70 -118l-131 39q63 242 321 242q213 0 291 -136q43 -78 43 -252v-659h-123l-10 72q-43 -50 -97 -70t-153 -20q-171 0 -243 68t-72 240t77 242t265 70h203z" />
    <glyph glyph-name="uni1EAA" unicode="&#x1eaa;" horiz-adv-x="1040" 
d="M528 1677l-120 -116h-152l223 217h96l224 -217h-152zM438 2044q59 0 111 -53q49 -55 74 -56q37 0 57 99h84q-20 -111 -51 -154t-92 -43t-107 54t-72 55q-51 -1 -71 -99h-86q25 109 59 153q35 44 94 44zM745 457l-223 788l-225 -788h448zM780 324h-518l-90 -324h-174
l453 1462h143l450 -1462h-172z" />
    <glyph glyph-name="uni1EAB" unicode="&#x1eab;" horiz-adv-x="925" 
d="M469 1251l-119 -116h-151l223 217h94l225 -217h-153zM381 1618q59 0 111 -53q49 -55 73 -56q37 0 56 99h86q-21 -111 -53 -154t-91 -43t-108 54t-72 55q-47 -1 -72 -99h-84q25 109 60 153t94 44zM627 483h-176q-121 0 -170 -45t-49 -147t42 -141q43 -39 157 -39t155 42
t41 158v172zM627 602v74q0 133 -42 188q-41 56 -129 56t-130 -36t-70 -118l-131 39q63 242 321 242q213 0 291 -136q43 -78 43 -252v-659h-123l-10 72q-43 -50 -97 -70t-153 -20q-171 0 -243 68t-72 240t77 242t265 70h203z" />
    <glyph glyph-name="uni1EAC" unicode="&#x1eac;" horiz-adv-x="1040" 
d="M444 -395v209h150v-209h-150zM520 1794l-114 -166h-156l219 270h102l220 -270h-156zM745 457l-223 788l-225 -788h448zM780 324h-518l-90 -324h-174l453 1462h143l450 -1462h-172z" />
    <glyph glyph-name="uni1EAD" unicode="&#x1ead;" horiz-adv-x="925" 
d="M387 -395v209h150v-209h-150zM465 1368l-115 -166h-157l221 268h100l221 -268h-157zM627 483h-176q-121 0 -170 -45t-49 -147t42 -141q43 -39 157 -39t155 42t41 158v172zM627 602v74q0 133 -42 188q-41 56 -129 56t-130 -36t-70 -118l-131 39q63 242 321 242
q213 0 291 -136q43 -78 43 -252v-659h-123l-10 72q-43 -50 -97 -70t-153 -20q-171 0 -243 68t-72 240t77 242t265 70h203z" />
    <glyph glyph-name="uni1EAE" unicode="&#x1eae;" horiz-adv-x="1040" 
d="M522 1665q74 0 106 32t42 109h98q-6 -113 -31 -155q-55 -99 -222 -99t-218 113q-19 45 -25 141h99q10 -78 43 -110q34 -32 108 -31zM453 1833l102 231h141l-153 -231h-90zM745 457l-223 788l-225 -788h448zM780 324h-518l-90 -324h-174l453 1462h143l450 -1462h-172z" />
    <glyph glyph-name="uni1EAF" unicode="&#x1eaf;" horiz-adv-x="925" 
d="M462 1239q76 0 108 32t42 109h99q-6 -109 -33 -155q-51 -99 -220 -99t-220 113q-17 39 -23 141h98q8 -78 41 -110t108 -31zM395 1405l103 233h141l-154 -233h-90zM627 483h-176q-121 0 -170 -45t-49 -147t42 -141q43 -39 157 -39t155 42t41 158v172zM627 602v74
q0 133 -42 188q-41 56 -129 56t-130 -36t-70 -118l-131 39q63 242 321 242q213 0 291 -136q43 -78 43 -252v-659h-123l-10 72q-43 -50 -97 -70t-153 -20q-171 0 -243 68t-72 240t77 242t265 70h203z" />
    <glyph glyph-name="uni1EB0" unicode="&#x1eb0;" horiz-adv-x="1040" 
d="M522 1665q74 0 106 32t42 109h98q-6 -113 -31 -155q-55 -99 -222 -99t-218 113q-19 45 -25 141h99q10 -78 43 -110q34 -32 108 -31zM594 1833h-90l-156 231h144zM745 457l-223 788l-225 -788h448zM780 324h-518l-90 -324h-174l453 1462h143l450 -1462h-172z" />
    <glyph glyph-name="uni1EB1" unicode="&#x1eb1;" horiz-adv-x="925" 
d="M462 1239q76 0 108 32t42 109h99q-6 -109 -33 -155q-51 -99 -220 -99t-220 113q-17 39 -23 141h98q8 -78 41 -110t108 -31zM537 1405h-91l-153 233h141zM627 483h-176q-121 0 -170 -45t-49 -147t42 -141q43 -39 157 -39t155 42t41 158v172zM627 602v74q0 133 -42 188
q-41 56 -129 56t-130 -36t-70 -118l-131 39q63 242 321 242q213 0 291 -136q43 -78 43 -252v-659h-123l-10 72q-43 -50 -97 -70t-153 -20q-171 0 -243 68t-72 240t77 242t265 70h203z" />
    <glyph glyph-name="uni1EB2" unicode="&#x1eb2;" horiz-adv-x="1040" 
d="M520 1663q76 0 110 33t42 110h96q-6 -113 -31 -155q-55 -99 -222 -99t-218 113q-19 45 -25 141h97q10 -80 43 -112q32 -32 108 -31zM479 1995q-27 0 -73 -21l-25 76q55 25 120 25t101 -31t37 -76q0 -45 -43 -96q-31 -43 -29 -90h-98q2 66 31 108t28 66q0 39 -49 39z
M745 457l-223 788l-225 -788h448zM780 324h-518l-90 -324h-174l453 1462h143l450 -1462h-172z" />
    <glyph glyph-name="uni1EB3" unicode="&#x1eb3;" horiz-adv-x="925" 
d="M478 1237q74 0 109 32q34 32 44 111h96q-6 -109 -33 -155q-51 -99 -220 -99t-220 113q-17 39 -23 141h97q8 -80 42 -112t108 -31zM428 1356q0 61 29 106q31 45 30 68q0 39 -49 39q-29 0 -76 -21l-24 76q59 25 123 25q65 0 101 -31t36 -86q0 -20 -7 -34t-37 -55
q-30 -40 -28 -87h-98zM627 483h-176q-121 0 -170 -45t-49 -147t42 -141q43 -39 157 -39t155 42t41 158v172zM627 602v74q0 133 -42 188q-41 56 -129 56t-130 -36t-70 -118l-131 39q63 242 321 242q213 0 291 -136q43 -78 43 -252v-659h-123l-10 72q-43 -50 -97 -70t-153 -20
q-171 0 -243 68t-72 240t77 242t265 70h203z" />
    <glyph glyph-name="uni1EB4" unicode="&#x1eb4;" horiz-adv-x="1040" 
d="M508 1659q74 0 108 30t41 105h95q-6 -104 -31 -147q-55 -93 -218 -93t-214 107q-17 37 -23 133h94q10 -76 42 -106t106 -29zM424 2062q59 0 111 -53q49 -55 73 -55q37 0 56 98h86q-20 -111 -52 -154t-91 -43q-60 1 -108 55t-73 54q-47 0 -70 -98h-86q25 108 60 152t94 44
zM745 457l-223 788l-225 -788h448zM780 324h-518l-90 -324h-174l453 1462h143l450 -1462h-172z" />
    <glyph glyph-name="uni1EB5" unicode="&#x1eb5;" horiz-adv-x="925" 
d="M467 1233q73 0 107 30t42 105h93q-6 -102 -29 -147q-55 -93 -218 -93t-214 107q-21 43 -23 133h94q8 -76 41 -106t107 -29zM384 1636q60 0 108 -55t75 -55q37 0 56 100h86q-21 -112 -53 -154t-92 -42t-109 55q-43 53 -72 53q-43 0 -70 -98h-84q25 108 60 152t95 44z
M627 483h-176q-121 0 -170 -45t-49 -147t42 -141q43 -39 157 -39t155 42t41 158v172zM627 602v74q0 133 -42 188q-41 56 -129 56t-130 -36t-70 -118l-131 39q63 242 321 242q213 0 291 -136q43 -78 43 -252v-659h-123l-10 72q-43 -50 -97 -70t-153 -20q-171 0 -243 68
t-72 240t77 242t265 70h203z" />
    <glyph glyph-name="uni1EB6" unicode="&#x1eb6;" horiz-adv-x="1040" 
d="M444 -395v209h150v-209h-150zM513 1612q-171 0 -218 123q-17 40 -23 153h105q8 -88 39 -124q32 -36 104 -36t104 36q32 34 40 124h104q-4 -121 -29 -170q-55 -106 -226 -106zM745 457l-223 788l-225 -788h448zM780 324h-518l-90 -324h-174l453 1462h143l450 -1462h-172z
" />
    <glyph glyph-name="uni1EB7" unicode="&#x1eb7;" horiz-adv-x="925" 
d="M387 -395v209h150v-209h-150zM461 1186q-170 0 -221 123q-19 51 -21 153h103q10 -90 42 -125t104 -35t102 36q30 34 40 124h105q-6 -121 -31 -170q-53 -106 -223 -106zM627 483h-176q-121 0 -170 -45t-49 -147t42 -141q43 -39 157 -39t155 42t41 158v172zM627 602v74
q0 133 -42 188q-41 56 -129 56t-130 -36t-70 -118l-131 39q63 242 321 242q213 0 291 -136q43 -78 43 -252v-659h-123l-10 72q-43 -50 -97 -70t-153 -20q-171 0 -243 68t-72 240t77 242t265 70h203z" />
    <glyph glyph-name="uni1EB8" unicode="&#x1eb8;" horiz-adv-x="1003" 
d="M479 -395v209h150v-209h-150zM180 0v1462h723v-135h-563v-520h479v-135h-479v-537h567v-135h-727z" />
    <glyph glyph-name="uni1EB9" unicode="&#x1eb9;" horiz-adv-x="954" 
d="M401 -395v209h150v-209h-150zM281 604h411v43q0 270 -205 271q-207 0 -206 -271v-43zM281 485v-86q0 -289 219 -288q82 -1 127 35t63 118l133 -28q-23 -131 -102 -193q-80 -61 -227 -61q-188 0 -278 108q-89 109 -89 340v164q0 236 86 344t271 109q184 0 270 -109
t86 -344v-109h-559z" />
    <glyph glyph-name="uni1EBA" unicode="&#x1eba;" horiz-adv-x="1003" 
d="M598 1595h-111q0 59 7 83q6 24 38 71t31 72q0 49 -63 49q-43 0 -99 -27l-28 94q83 31 157 31t118 -37t44 -102q0 -33 -11 -55t-41 -63t-36 -57t-6 -59zM180 0v1462h723v-135h-563v-520h479v-135h-479v-537h567v-135h-727z" />
    <glyph glyph-name="uni1EBB" unicode="&#x1ebb;" horiz-adv-x="954" 
d="M541 1178h-113q2 59 8 83q6 23 38 71t32 71q0 49 -64 49q-39 0 -98 -27l-31 97q80 29 152 28q170 0 170 -139q0 -33 -11 -55t-41 -62q-30 -39 -36 -56t-6 -60zM281 604h411v43q0 270 -205 271q-207 0 -206 -271v-43zM281 485v-86q0 -289 219 -288q82 -1 127 35t63 118
l133 -28q-23 -131 -102 -193q-80 -61 -227 -61q-188 0 -278 108q-89 109 -89 340v164q0 236 86 344t271 109q184 0 270 -109t86 -344v-109h-559z" />
    <glyph glyph-name="uni1EBC" unicode="&#x1ebc;" horiz-adv-x="1003" 
d="M428 1878q70 0 129 -66t90 -65q47 0 68 115h96q-16 -96 -37 -142q-41 -86 -122 -86t-142 68q-53 63 -82 63q-53 1 -76 -114h-96q27 127 65 177q37 50 107 50zM180 0v1462h723v-135h-563v-520h479v-135h-479v-537h567v-135h-727z" />
    <glyph glyph-name="uni1EBD" unicode="&#x1ebd;" horiz-adv-x="954" 
d="M369 1450q70 0 131 -64q57 -66 90 -65q47 0 67 115h97q-20 -104 -37 -142q-41 -86 -122 -86t-142 68q-53 63 -82 63q-53 1 -76 -114h-96q27 127 63 176q37 49 107 49zM281 604h411v43q0 270 -205 271q-207 0 -206 -271v-43zM281 485v-86q0 -289 219 -288q82 -1 127 35
t63 118l133 -28q-23 -131 -102 -193q-80 -61 -227 -61q-188 0 -278 108q-89 109 -89 340v164q0 236 86 344t271 109q184 0 270 -109t86 -344v-109h-559z" />
    <glyph glyph-name="uni1EBE" unicode="&#x1ebe;" horiz-adv-x="1003" 
d="M543 1677l-119 -116h-152l224 217h94l223 -217h-151zM475 1833l103 231h141l-154 -231h-90zM180 0v1462h723v-135h-563v-520h479v-135h-479v-537h567v-135h-727z" />
    <glyph glyph-name="uni1EBF" unicode="&#x1ebf;" horiz-adv-x="954" 
d="M487 1251l-118 -116h-152l223 217h95l223 -217h-152zM420 1405l102 233h142l-154 -233h-90zM281 604h411v43q0 270 -205 271q-207 0 -206 -271v-43zM281 485v-86q0 -289 219 -288q82 -1 127 35t63 118l133 -28q-23 -131 -102 -193q-80 -61 -227 -61q-188 0 -278 108
q-89 109 -89 340v164q0 236 86 344t271 109q184 0 270 -109t86 -344v-109h-559z" />
    <glyph glyph-name="uni1EC0" unicode="&#x1ec0;" horiz-adv-x="1003" 
d="M543 1677l-119 -116h-154l226 217h94l223 -217h-151zM608 1833h-90l-153 231h141zM180 0v1462h723v-135h-563v-520h479v-135h-479v-537h567v-135h-727z" />
    <glyph glyph-name="uni1EC1" unicode="&#x1ec1;" horiz-adv-x="954" 
d="M487 1251l-118 -116h-152l223 217h95l223 -217h-152zM553 1405h-90l-154 233h142zM281 604h411v43q0 270 -205 271q-207 0 -206 -271v-43zM281 485v-86q0 -289 219 -288q82 -1 127 35t63 118l133 -28q-23 -131 -102 -193q-80 -61 -227 -61q-188 0 -278 108
q-89 109 -89 340v164q0 236 86 344t271 109q184 0 270 -109t86 -344v-109h-559z" />
    <glyph glyph-name="uni1EC2" unicode="&#x1ec2;" horiz-adv-x="1003" 
d="M539 1675l-121 -114h-152l223 206h97l223 -206h-152zM551 1966q0 29 -40 29t-83 -19l-25 76q61 23 124 23t99 -28t36 -70t-35 -86t-37 -89h-98q2 64 30 104t29 60zM180 0v1462h723v-135h-563v-520h479v-135h-479v-537h567v-135h-727z" />
    <glyph glyph-name="uni1EC3" unicode="&#x1ec3;" horiz-adv-x="954" 
d="M483 1249l-118 -114h-152l223 206h94l224 -206h-152zM537 1376h-99v13q2 49 31 89t29 62q0 29 -39 29t-84 -19l-27 74q63 25 125 25q63 0 99 -28t36 -71t-36 -86t-35 -88zM281 604h411v43q0 270 -205 271q-207 0 -206 -271v-43zM281 485v-86q0 -289 219 -288
q82 -1 127 35t63 118l133 -28q-23 -131 -102 -193q-80 -61 -227 -61q-188 0 -278 108q-89 109 -89 340v164q0 236 86 344t271 109q184 0 270 -109t86 -344v-109h-559z" />
    <glyph glyph-name="uni1EC4" unicode="&#x1ec4;" horiz-adv-x="1003" 
d="M549 1677l-119 -116h-151l223 217h94l225 -217h-153zM461 2044q59 0 110 -53q49 -55 74 -56q37 0 55 99h86q-20 -111 -52 -154t-92 -43t-108 54t-71 55q-47 -1 -72 -99h-84q25 109 60 153t94 44zM180 0v1462h723v-135h-563v-520h479v-135h-479v-537h567v-135h-727z" />
    <glyph glyph-name="uni1EC5" unicode="&#x1ec5;" horiz-adv-x="954" 
d="M496 1251l-119 -116h-154l223 217h97l223 -217h-152zM406 1618q58 0 110 -53q49 -55 74 -56q39 0 57 99h84q-20 -111 -51 -154t-91 -43q-59 0 -107 54t-72 55q-52 -1 -72 -99h-86q25 106 60 152q36 45 94 45zM281 604h411v43q0 270 -205 271q-207 0 -206 -271v-43z
M281 485v-86q0 -289 219 -288q82 -1 127 35t63 118l133 -28q-23 -131 -102 -193q-80 -61 -227 -61q-188 0 -278 108q-89 109 -89 340v164q0 236 86 344t271 109q184 0 270 -109t86 -344v-109h-559z" />
    <glyph glyph-name="uni1EC6" unicode="&#x1ec6;" horiz-adv-x="1003" 
d="M479 -395v209h150v-209h-150zM541 1794l-115 -166h-156l219 270h103l219 -270h-156zM180 0v1462h723v-135h-563v-520h479v-135h-479v-537h567v-135h-727z" />
    <glyph glyph-name="uni1EC7" unicode="&#x1ec7;" horiz-adv-x="954" 
d="M401 -395v209h150v-209h-150zM489 1368l-112 -166h-158l219 268h103l221 -268h-158zM281 604h411v43q0 270 -205 271q-207 0 -206 -271v-43zM281 485v-86q0 -289 219 -288q82 -1 127 35t63 118l133 -28q-23 -131 -102 -193q-80 -61 -227 -61q-188 0 -278 108
q-89 109 -89 340v164q0 236 86 344t271 109q184 0 270 -109t86 -344v-109h-559z" />
    <glyph glyph-name="uni1EC8" unicode="&#x1ec8;" horiz-adv-x="518" 
d="M324 1595h-113q0 59 6 83t38 71t32 72q0 49 -64 49q-37 0 -96 -27l-31 94q84 31 158 31t118 -37t44 -96t-58 -131q-26 -34 -30 -50t-4 -59zM180 0v1462h160v-1462h-160z" />
    <glyph glyph-name="uni1EC9" unicode="&#x1ec9;" horiz-adv-x="458" 
d="M293 1178h-113q0 59 6 83q6 25 38 71t32 71q0 49 -63 49q-41 0 -97 -27l-30 97q78 28 154 28t121 -36q44 -36 44 -103q0 -33 -11 -55t-41 -62q-30 -39 -35 -56t-5 -60zM152 0v1028h153v-1028h-153z" />
    <glyph glyph-name="uni1ECA" unicode="&#x1eca;" horiz-adv-x="518" 
d="M184 -395v209h150v-209h-150zM180 0v1462h160v-1462h-160z" />
    <glyph glyph-name="uni1ECB" unicode="&#x1ecb;" horiz-adv-x="458" 
d="M156 -395v209h149v-209h-149zM154 0v1028h153v-1028h-153zM154 1255v213h153v-213h-153z" />
    <glyph glyph-name="uni1ECC" unicode="&#x1ecc;" horiz-adv-x="1171" 
d="M510 -395v209h149v-209h-149zM860 502v459q0 201 -66 293t-210 94q-143 0 -209 -94t-66 -293v-459q0 -201 66 -294t209 -93t210 93q66 93 66 294zM150 485v492q0 252 98 366q114 137 348 137t344 -159q80 -111 80 -344v-492q0 -252 -98 -366q-114 -137 -348 -137
t-345 159q-79 115 -79 344z" />
    <glyph glyph-name="uni1ECD" unicode="&#x1ecd;" horiz-adv-x="974" 
d="M412 -395v209h149v-209h-149zM696 403v224q0 151 -49 221t-159 70t-158 -70t-49 -221v-224q0 -153 49 -223q50 -70 158 -70t158 70q50 69 50 223zM127 403v222q0 219 87 320t275 101q189 0 275 -100q86 -102 86 -321v-222q0 -219 -86 -320t-274 -101t-276 101
q-87 101 -87 320z" />
    <glyph glyph-name="uni1ECE" unicode="&#x1ece;" horiz-adv-x="1171" 
d="M537 1595q0 57 6 82q5 25 37 72t32 72q0 49 -63 49q-43 0 -96 -27l-31 94q84 31 158 31t117 -37q44 -37 44 -102q0 -33 -11 -55t-41 -63t-35 -57t-7 -59h-110zM860 502v459q0 201 -66 293t-210 94q-143 0 -209 -94t-66 -293v-459q0 -201 66 -294t209 -93t210 93
q66 93 66 294zM150 485v492q0 252 98 366q114 137 348 137t344 -159q80 -111 80 -344v-492q0 -252 -98 -366q-114 -137 -348 -137t-345 159q-79 115 -79 344z" />
    <glyph glyph-name="uni1ECF" unicode="&#x1ecf;" horiz-adv-x="974" 
d="M551 1178h-111q0 59 6 83q6 23 38 71t32 71q0 49 -63 49q-39 0 -99 -27l-28 97q78 29 149 28q170 0 170 -139q0 -33 -11 -55t-41 -62q-30 -39 -36 -56t-6 -60zM696 403v224q0 151 -49 221t-159 70t-158 -70t-49 -221v-224q0 -153 49 -223q50 -70 158 -70t158 70
q50 69 50 223zM127 403v222q0 219 87 320t275 101q189 0 275 -100q86 -102 86 -321v-222q0 -219 -86 -320t-274 -101t-276 101q-87 101 -87 320z" />
    <glyph glyph-name="uni1ED0" unicode="&#x1ed0;" horiz-adv-x="1171" 
d="M586 1677l-121 -116h-152l224 217h96l223 -217h-151zM516 1833l102 231h144l-156 -231h-90zM860 502v459q0 201 -66 293t-210 94q-143 0 -209 -94t-66 -293v-459q0 -201 66 -294t209 -93t210 93q66 93 66 294zM150 485v492q0 252 98 366q114 137 348 137t344 -159
q80 -111 80 -344v-492q0 -252 -98 -366q-114 -137 -348 -137t-345 159q-79 115 -79 344z" />
    <glyph glyph-name="uni1ED1" unicode="&#x1ed1;" horiz-adv-x="974" 
d="M487 1251l-118 -116h-152l223 217h97l223 -217h-152zM420 1405l102 233h142l-154 -233h-90zM696 403v224q0 151 -49 221t-159 70t-158 -70t-49 -221v-224q0 -153 49 -223q50 -70 158 -70t158 70q50 69 50 223zM127 403v222q0 219 87 320t275 101q189 0 275 -100
q86 -102 86 -321v-222q0 -219 -86 -320t-274 -101t-276 101q-87 101 -87 320z" />
    <glyph glyph-name="uni1ED2" unicode="&#x1ed2;" horiz-adv-x="1171" 
d="M586 1677l-121 -116h-152l224 217h96l223 -217h-151zM651 1833h-90l-155 231h143zM860 502v459q0 201 -66 293t-210 94q-143 0 -209 -94t-66 -293v-459q0 -201 66 -294t209 -93t210 93q66 93 66 294zM150 485v492q0 252 98 366q114 137 348 137t344 -159q80 -111 80 -344
v-492q0 -252 -98 -366q-114 -137 -348 -137t-345 159q-79 115 -79 344z" />
    <glyph glyph-name="uni1ED3" unicode="&#x1ed3;" horiz-adv-x="974" 
d="M487 1251l-118 -116h-152l223 217h97l223 -217h-154zM553 1405h-90l-154 233h142zM696 403v224q0 151 -49 221t-159 70t-158 -70t-49 -221v-224q0 -153 49 -223q50 -70 158 -70t158 70q50 69 50 223zM127 403v222q0 219 87 320t275 101q189 0 275 -100q86 -102 86 -321
v-222q0 -219 -86 -320t-274 -101t-276 101q-87 101 -87 320z" />
    <glyph glyph-name="uni1ED4" unicode="&#x1ed4;" horiz-adv-x="1171" 
d="M580 1675l-119 -114h-152l223 206h97l223 -206h-152zM594 1966q0 29 -40 29t-83 -19l-25 76q59 23 123 23t100 -28t36 -71t-46 -98q-24 -31 -26 -76h-98q3 62 31 102t28 62zM860 502v459q0 201 -66 293t-210 94q-143 0 -209 -94t-66 -293v-459q0 -201 66 -294t209 -93
t210 93q66 93 66 294zM150 485v492q0 252 98 366q114 137 348 137t344 -159q80 -111 80 -344v-492q0 -252 -98 -366q-114 -137 -348 -137t-345 159q-79 115 -79 344z" />
    <glyph glyph-name="uni1ED5" unicode="&#x1ed5;" horiz-adv-x="974" 
d="M483 1249l-118 -114h-152l223 206h94l224 -206h-152zM537 1376h-99v13q2 49 31 90t29 61q0 29 -39 29t-84 -19l-25 74q59 25 123 25q63 0 99 -28t36 -71t-36 -86t-35 -88zM696 403v224q0 151 -49 221t-159 70t-158 -70t-49 -221v-224q0 -153 49 -223q50 -70 158 -70
t158 70q50 69 50 223zM127 403v222q0 219 87 320t275 101q189 0 275 -100q86 -102 86 -321v-222q0 -219 -86 -320t-274 -101t-276 101q-87 101 -87 320z" />
    <glyph glyph-name="uni1ED6" unicode="&#x1ed6;" horiz-adv-x="1171" 
d="M592 1677l-119 -116h-151l223 217h94l223 -217h-151zM503 2044q58 0 111 -53q49 -55 74 -56q37 0 55 99h86q-23 -111 -53 -154t-91 -43t-109 54t-70 55q-47 -1 -72 -99h-84q23 105 59 151t94 46zM860 502v459q0 201 -66 293t-210 94q-143 0 -209 -94t-66 -293v-459
q0 -201 66 -294t209 -93t210 93q66 93 66 294zM150 485v492q0 252 98 366q114 137 348 137t344 -159q80 -111 80 -344v-492q0 -252 -98 -366q-114 -137 -348 -137t-345 159q-79 115 -79 344z" />
    <glyph glyph-name="uni1ED7" unicode="&#x1ed7;" horiz-adv-x="974" 
d="M496 1251l-119 -116h-152l224 217h94l223 -217h-152zM406 1618q58 0 110 -53q49 -55 74 -56q39 0 57 99h86q-23 -111 -53 -154t-91 -43q-59 0 -107 54t-72 55q-47 -1 -72 -99h-86q25 106 60 152q36 45 94 45zM696 403v224q0 151 -49 221t-159 70t-158 -70t-49 -221v-224
q0 -153 49 -223q50 -70 158 -70t158 70q50 69 50 223zM127 403v222q0 219 87 320t275 101q189 0 275 -100q86 -102 86 -321v-222q0 -219 -86 -320t-274 -101t-276 101q-87 101 -87 320z" />
    <glyph glyph-name="uni1ED8" unicode="&#x1ed8;" horiz-adv-x="1171" 
d="M510 -395v209h149v-209h-149zM586 1794l-115 -166h-158l222 270h100l221 -270h-158zM860 502v459q0 201 -66 293t-210 94q-143 0 -209 -94t-66 -293v-459q0 -201 66 -294t209 -93t210 93q66 93 66 294zM150 485v492q0 252 98 366q114 137 348 137t344 -159
q80 -111 80 -344v-492q0 -252 -98 -366q-114 -137 -348 -137t-345 159q-79 115 -79 344z" />
    <glyph glyph-name="uni1ED9" unicode="&#x1ed9;" horiz-adv-x="974" 
d="M412 -395v209h149v-209h-149zM487 1368l-112 -166h-158l219 268h103l221 -268h-158zM696 403v224q0 151 -49 221t-159 70t-158 -70t-49 -221v-224q0 -153 49 -223q50 -70 158 -70t158 70q50 69 50 223zM127 403v222q0 219 87 320t275 101q189 0 275 -100q86 -102 86 -321
v-222q0 -219 -86 -320t-274 -101t-276 101q-87 101 -87 320z" />
    <glyph glyph-name="uni1EDA" unicode="&#x1eda;" horiz-adv-x="1226" 
d="M537 1618l131 289h180l-197 -289h-114zM860 502v459q0 201 -66 293t-210 92q-143 0 -209 -92t-66 -293v-459q0 -201 66 -294t209 -93t210 93q66 93 66 294zM1235 1405q0 -139 -109 -229q-31 -27 -114 -82q8 -55 8 -117v-492q0 -252 -98 -366q-114 -137 -348 -137
t-345 159q-80 115 -79 344v492q0 252 98 366q113 137 338 138q164 0 263 -69t146 -216q66 51 90 91q25 39 25 89t-23 107h136q12 -37 12 -78z" />
    <glyph glyph-name="uni1EDB" unicode="&#x1edb;" horiz-adv-x="1028" 
d="M434 1192l133 289h181l-197 -289h-117zM696 403v224q0 153 -49 223t-159 70t-158 -70t-49 -223v-224q0 -153 49 -223q50 -70 158 -70t158 70q50 69 50 223zM850 594v-191q0 -219 -86 -320t-274 -101t-276 101q-87 101 -87 320v222q0 219 87 321t257 102t254 -67
q84 -68 113 -211q59 59 76 92q41 79 -5 185h135q12 -45 13 -86q0 -168 -211 -297q4 -27 4 -70z" />
    <glyph glyph-name="uni1EDC" unicode="&#x1edc;" horiz-adv-x="1226" 
d="M713 1618h-115l-199 289h183zM860 502v459q0 201 -66 293t-210 92q-143 0 -209 -92t-66 -293v-459q0 -201 66 -294t209 -93t210 93q66 93 66 294zM1235 1405q0 -139 -109 -229q-31 -27 -114 -82q8 -55 8 -117v-492q0 -252 -98 -366q-114 -137 -348 -137t-345 159
q-80 115 -79 344v492q0 252 98 366q113 137 338 138q164 0 263 -69t146 -216q66 51 90 91q25 39 25 89t-23 107h136q12 -37 12 -78z" />
    <glyph glyph-name="uni1EDD" unicode="&#x1edd;" horiz-adv-x="1028" 
d="M612 1192h-114l-199 289h182zM696 403v224q0 153 -49 223t-159 70t-158 -70t-49 -223v-224q0 -153 49 -223q50 -70 158 -70t158 70q50 69 50 223zM850 594v-191q0 -219 -86 -320t-274 -101t-276 101q-87 101 -87 320v222q0 219 87 321t257 102t254 -67q84 -68 113 -211
q59 59 76 92q41 79 -5 185h135q12 -45 13 -86q0 -168 -211 -297q4 -27 4 -70z" />
    <glyph glyph-name="uni1EDE" unicode="&#x1ede;" horiz-adv-x="1226" 
d="M670 1595h-111q0 59 6 83t38 71t32 72q0 49 -64 49q-43 0 -98 -27l-29 94q84 31 158 31t118 -37t44 -102q0 -33 -11 -55t-41 -63t-36 -57t-6 -59zM860 502v459q0 201 -66 293t-210 92q-143 0 -209 -92t-66 -293v-459q0 -201 66 -294t209 -93t210 93q66 93 66 294z
M1235 1405q0 -139 -109 -229q-31 -27 -114 -82q8 -55 8 -117v-492q0 -252 -98 -366q-114 -137 -348 -137t-345 159q-80 115 -79 344v492q0 252 98 366q113 137 338 138q164 0 263 -69t146 -216q66 51 90 91q25 39 25 89t-23 107h136q12 -37 12 -78z" />
    <glyph glyph-name="uni1EDF" unicode="&#x1edf;" horiz-adv-x="1028" 
d="M549 1178h-111q0 59 6 83q6 25 38 71t32 71q0 49 -63 49q-39 0 -99 -27l-28 97q78 29 149 28q170 0 170 -139q0 -33 -11 -55t-41 -62q-30 -39 -36 -56t-6 -60zM696 403v224q0 153 -49 223t-159 70t-158 -70t-49 -223v-224q0 -153 49 -223q50 -70 158 -70t158 70
q50 69 50 223zM850 594v-191q0 -219 -86 -320t-274 -101t-276 101q-87 101 -87 320v222q0 219 87 321t257 102t254 -67q84 -68 113 -211q59 59 76 92q41 79 -5 185h135q12 -45 13 -86q0 -168 -211 -297q4 -27 4 -70z" />
    <glyph glyph-name="uni1EE0" unicode="&#x1ee0;" horiz-adv-x="1226" 
d="M478 1878q70 0 128 -66q59 -66 90 -65q47 0 68 115h98q-18 -98 -39 -142q-41 -86 -122 -86t-138 66t-86 65q-53 1 -76 -114h-96q27 127 65 177t108 50zM860 502v459q0 201 -66 293t-210 92q-143 0 -209 -92t-66 -293v-459q0 -201 66 -294t209 -93t210 93q66 93 66 294z
M1235 1405q0 -139 -109 -229q-31 -27 -114 -82q8 -55 8 -117v-492q0 -252 -98 -366q-114 -137 -348 -137t-345 159q-80 115 -79 344v492q0 252 98 366q113 137 338 138q164 0 263 -69t146 -216q66 51 90 91q25 39 25 89t-23 107h136q12 -37 12 -78z" />
    <glyph glyph-name="uni1EE1" unicode="&#x1ee1;" horiz-adv-x="1028" 
d="M388 1450q68 0 130 -65q61 -65 90 -64q47 0 70 115h96q-20 -104 -37 -142q-41 -86 -123 -86t-139 66t-84 65q-53 1 -76 -114h-96q27 127 64 176t105 49zM696 403v224q0 153 -49 223t-159 70t-158 -70t-49 -223v-224q0 -153 49 -223q50 -70 158 -70t158 70q50 69 50 223z
M850 594v-191q0 -219 -86 -320t-274 -101t-276 101q-87 101 -87 320v222q0 219 87 321t257 102t254 -67q84 -68 113 -211q59 59 76 92q41 79 -5 185h135q12 -45 13 -86q0 -168 -211 -297q4 -27 4 -70z" />
    <glyph glyph-name="uni1EE2" unicode="&#x1ee2;" horiz-adv-x="1226" 
d="M543 -395v209h149v-209h-149zM860 502v459q0 201 -66 293t-210 92q-143 0 -209 -92t-66 -293v-459q0 -201 66 -294t209 -93t210 93q66 93 66 294zM1235 1405q0 -139 -109 -229q-31 -27 -114 -82q8 -55 8 -117v-492q0 -252 -98 -366q-114 -137 -348 -137t-345 159
q-80 115 -79 344v492q0 252 98 366q113 137 338 138q164 0 263 -69t146 -216q66 51 90 91q25 39 25 89t-23 107h136q12 -37 12 -78z" />
    <glyph glyph-name="uni1EE3" unicode="&#x1ee3;" horiz-adv-x="1028" 
d="M428 -395v209h150v-209h-150zM696 403v224q0 153 -49 223t-159 70t-158 -70t-49 -223v-224q0 -153 49 -223q50 -70 158 -70t158 70q50 69 50 223zM850 594v-191q0 -219 -86 -320t-274 -101t-276 101q-87 101 -87 320v222q0 219 87 321t257 102t254 -67q84 -68 113 -211
q59 59 76 92q41 79 -5 185h135q12 -45 13 -86q0 -168 -211 -297q4 -27 4 -70z" />
    <glyph glyph-name="uni1EE4" unicode="&#x1ee4;" horiz-adv-x="1196" 
d="M522 -395v209h150v-209h-150zM174 1462h160v-993q0 -174 43 -242q66 -113 213 -112q92 -1 148 29t89 98t33 227v993h160v-993q0 -137 -15 -209t-59 -129q-112 -149 -360 -149t-353 172q-59 94 -59 315v993z" />
    <glyph glyph-name="uni1EE5" unicode="&#x1ee5;" horiz-adv-x="968" 
d="M408 -395v209h149v-209h-149zM143 1028h154v-612q0 -164 40 -233t139 -69t144 83q44 82 44 268v563h153v-1028h-119l-10 100q-47 -66 -101 -92t-138 -26q-215 0 -279 178q-27 74 -27 241v627z" />
    <glyph glyph-name="uni1EE6" unicode="&#x1ee6;" horiz-adv-x="1196" 
d="M549 1595q0 59 6 83t38 71t32 72q0 49 -64 49q-37 0 -96 -27l-31 94q84 31 158 31t118 -37t44 -96t-58 -131q-25 -34 -30 -50t-7 -59h-110zM174 1462h160v-993q0 -174 43 -242q66 -113 213 -112q92 -1 148 29t89 98t33 227v993h160v-993q0 -137 -15 -209t-59 -129
q-112 -149 -360 -149t-353 172q-59 94 -59 315v993z" />
    <glyph glyph-name="uni1EE7" unicode="&#x1ee7;" horiz-adv-x="968" 
d="M547 1178h-111q0 59 6 83q6 23 38 71t32 71q0 49 -63 49q-39 0 -99 -27l-28 97q78 29 149 28q170 0 170 -139q0 -33 -11 -55t-41 -62q-30 -39 -36 -56t-6 -60zM143 1028h154v-612q0 -164 40 -233t139 -69t144 83q44 82 44 268v563h153v-1028h-119l-10 100
q-47 -66 -101 -92t-138 -26q-215 0 -279 178q-27 74 -27 241v627z" />
    <glyph glyph-name="uni1EE8" unicode="&#x1ee8;" horiz-adv-x="1280" 
d="M559 1618l133 289h180l-196 -289h-117zM174 1462h160v-993q0 -174 43 -242q66 -113 213 -112q92 -1 148 29t89 98t33 227v993h160v-303q94 53 131 103t37 109q0 60 -23 112h138q10 -41 10 -82q0 -143 -135 -252q-43 -33 -158 -98v-582q0 -137 -15 -209t-59 -129
q-112 -149 -360 -149t-353 172q-59 94 -59 315v993z" />
    <glyph glyph-name="uni1EE9" unicode="&#x1ee9;" horiz-adv-x="1062" 
d="M442 1192l131 289h183l-197 -289h-117zM143 1028h154v-612q0 -164 40 -233t139 -69t144 83q44 82 44 268v563h153v-307q96 57 132 105t36 110t-22 111h137q10 -43 10 -82q0 -139 -135 -252q-47 -37 -158 -101v-612h-119l-10 100q-47 -66 -101 -92t-138 -26
q-215 0 -279 178q-27 74 -27 241v627z" />
    <glyph glyph-name="uni1EEA" unicode="&#x1eea;" horiz-adv-x="1280" 
d="M676 1618h-115l-199 289h183zM174 1462h160v-993q0 -174 43 -242q66 -113 213 -112q92 -1 148 29t89 98t33 227v993h160v-303q94 53 131 103t37 109q0 60 -23 112h138q10 -41 10 -82q0 -143 -135 -252q-43 -33 -158 -98v-582q0 -137 -15 -209t-59 -129
q-112 -149 -360 -149t-353 172q-59 94 -59 315v993z" />
    <glyph glyph-name="uni1EEB" unicode="&#x1eeb;" horiz-adv-x="1062" 
d="M565 1192h-114l-199 289h182zM143 1028h154v-612q0 -164 40 -233t139 -69t144 83q44 82 44 268v563h153v-307q96 57 132 105t36 110t-22 111h137q10 -43 10 -82q0 -139 -135 -252q-47 -37 -158 -101v-612h-119l-10 100q-47 -66 -101 -92t-138 -26q-215 0 -279 178
q-27 74 -27 241v627z" />
    <glyph glyph-name="uni1EEC" unicode="&#x1eec;" horiz-adv-x="1280" 
d="M549 1595q0 59 6 83t38 71t32 72q0 49 -64 49q-37 0 -96 -27l-31 94q84 31 158 31t118 -37t44 -96t-58 -131q-25 -34 -30 -50t-7 -59h-110zM174 1462h160v-993q0 -174 43 -242q66 -113 213 -112q92 -1 148 29t89 98t33 227v993h160v-303q94 53 131 103t37 109
q0 60 -23 112h138q10 -41 10 -82q0 -143 -135 -252q-43 -33 -158 -98v-582q0 -137 -15 -209t-59 -129q-112 -149 -360 -149t-353 172q-59 94 -59 315v993z" />
    <glyph glyph-name="uni1EED" unicode="&#x1eed;" horiz-adv-x="1062" 
d="M543 1178h-111q0 59 6 83q6 25 38 71t32 71q0 49 -64 49q-39 0 -98 -27l-29 97q78 29 150 28q170 0 170 -139q0 -33 -11 -55t-41 -63q-30 -40 -36 -56t-6 -59zM143 1028h154v-612q0 -164 40 -233t139 -69t144 83q44 82 44 268v563h153v-307q96 57 132 105t36 110t-22 111
h137q10 -43 10 -82q0 -139 -135 -252q-47 -37 -158 -101v-612h-119l-10 100q-47 -66 -101 -92t-138 -26q-215 0 -279 178q-27 74 -27 241v627z" />
    <glyph glyph-name="uni1EEE" unicode="&#x1eee;" horiz-adv-x="1280" 
d="M482 1878q70 0 128 -66q59 -66 90 -65q47 0 68 115h98q-18 -98 -39 -142q-41 -86 -122 -86t-138 66t-86 65q-52 1 -75 -114h-97q27 127 65 177t108 50zM174 1462h160v-993q0 -174 43 -242q66 -113 213 -112q92 -1 148 29t89 98t33 227v993h160v-303q94 53 131 103t37 109
q0 60 -23 112h138q10 -41 10 -82q0 -143 -135 -252q-43 -33 -158 -98v-582q0 -137 -15 -209t-59 -129q-112 -149 -360 -149t-353 172q-59 94 -59 315v993z" />
    <glyph glyph-name="uni1EEF" unicode="&#x1eef;" horiz-adv-x="1062" 
d="M376 1450q69 0 130 -65t90 -64q47 0 70 115h96q-20 -104 -37 -142q-41 -86 -123 -86t-139 66t-84 65q-53 1 -76 -114h-96q27 127 63 176q37 49 106 49zM143 1028h154v-612q0 -164 40 -233t139 -69t144 83q44 82 44 268v563h153v-307q96 57 132 105t36 110t-22 111h137
q10 -43 10 -82q0 -139 -135 -252q-47 -37 -158 -101v-612h-119l-10 100q-47 -66 -101 -92t-138 -26q-215 0 -279 178q-27 74 -27 241v627z" />
    <glyph glyph-name="uni1EF0" unicode="&#x1ef0;" horiz-adv-x="1280" 
d="M547 -395v209h149v-209h-149zM174 1462h160v-993q0 -174 43 -242q66 -113 213 -112q92 -1 148 29t89 98t33 227v993h160v-303q94 53 131 103t37 109q0 60 -23 112h138q10 -41 10 -82q0 -143 -135 -252q-43 -33 -158 -98v-582q0 -137 -15 -209t-59 -129
q-112 -149 -360 -149t-353 172q-59 94 -59 315v993z" />
    <glyph glyph-name="uni1EF1" unicode="&#x1ef1;" horiz-adv-x="1062" 
d="M451 -395v209h149v-209h-149zM143 1028h154v-612q0 -164 40 -233t139 -69t144 83q44 82 44 268v563h153v-307q96 57 132 105t36 110t-22 111h137q10 -43 10 -82q0 -139 -135 -252q-47 -37 -158 -101v-612h-119l-10 100q-47 -66 -101 -92t-138 -26q-215 0 -279 178
q-27 74 -27 241v627z" />
    <glyph glyph-name="Ygrave" unicode="&#x1ef2;" horiz-adv-x="935" 
d="M563 1618h-114l-199 289h182zM389 0v532l-389 930h168l301 -747l301 747h168l-389 -930v-532h-160z" />
    <glyph glyph-name="ygrave" unicode="&#x1ef3;" horiz-adv-x="856" 
d="M512 1192h-115l-198 289h182zM104 -340q100 0 139 33q38 33 72 149l41 154l-315 1032h154l239 -848l217 848h156l-336 -1202q-55 -186 -123 -240t-244 -57v131z" />
    <glyph glyph-name="uni1EF4" unicode="&#x1ef4;" horiz-adv-x="935" 
d="M393 -395v209h150v-209h-150zM389 0v532l-389 930h168l301 -747l301 747h168l-389 -930v-532h-160z" />
    <glyph glyph-name="uni1EF5" unicode="&#x1ef5;" horiz-adv-x="856" 
d="M557 -395v209h150v-209h-150zM104 -340q100 0 139 33q38 33 72 149l41 154l-315 1032h154l239 -848l217 848h156l-336 -1202q-55 -186 -123 -240t-244 -57v131z" />
    <glyph glyph-name="uni1EF6" unicode="&#x1ef6;" horiz-adv-x="935" 
d="M530 1595h-110q0 59 6 83t38 71t32 72q0 49 -64 49q-43 0 -98 -27l-29 94q84 31 158 31t118 -37t44 -102q1 -33 -11 -55t-42 -63t-36 -57t-6 -59zM389 0v532l-389 930h168l301 -747l301 747h168l-389 -930v-532h-160z" />
    <glyph glyph-name="uni1EF7" unicode="&#x1ef7;" horiz-adv-x="856" 
d="M492 1178h-111q0 59 6 83q6 25 38 71t32 71q0 49 -64 49q-39 0 -98 -27l-29 97q78 29 150 28q170 0 170 -139q0 -33 -12 -55t-41 -62q-29 -39 -35 -56t-6 -60zM104 -340q100 0 139 33q38 33 72 149l41 154l-315 1032h154l239 -848l217 848h156l-336 -1202
q-55 -186 -123 -240t-244 -57v131z" />
    <glyph glyph-name="uni1EF8" unicode="&#x1ef8;" horiz-adv-x="935" 
d="M362 1878q68 0 127 -66q63 -66 91 -65q47 0 69 115h96q-20 -104 -36 -142q-41 -86 -123 -86t-140 66t-84 65q-52 1 -75 -114h-97q27 127 65 177q39 50 107 50zM389 0v532l-389 930h168l301 -747l301 747h168l-389 -930v-532h-160z" />
    <glyph glyph-name="uni1EF9" unicode="&#x1ef9;" horiz-adv-x="856" 
d="M321 1450q69 0 130 -65t90 -64q47 0 69 115h97q-20 -104 -37 -142q-39 -86 -122 -86t-140 66t-84 65q-56 1 -76 -114h-98q27 127 64 176q38 49 107 49zM104 -340q100 0 139 33q38 33 72 149l41 154l-315 1032h154l239 -848l217 848h156l-336 -1202q-55 -186 -123 -240
t-244 -57v131z" />
    <glyph glyph-name="uni2002" unicode="&#x2002;" horiz-adv-x="1024" 
 />
    <glyph glyph-name="uni2003" unicode="&#x2003;" horiz-adv-x="2048" 
 />
    <glyph glyph-name="uni2004" unicode="&#x2004;" horiz-adv-x="681" 
 />
    <glyph glyph-name="uni2005" unicode="&#x2005;" horiz-adv-x="512" 
 />
    <glyph glyph-name="uni2006" unicode="&#x2006;" horiz-adv-x="342" 
 />
    <glyph glyph-name="uni2007" unicode="&#x2007;" 
 />
    <glyph glyph-name="uni2008" unicode="&#x2008;" horiz-adv-x="0" 
 />
    <glyph glyph-name="uni2009" unicode="&#x2009;" horiz-adv-x="409" 
 />
    <glyph glyph-name="uni200A" unicode="&#x200a;" horiz-adv-x="256" 
 />
    <glyph glyph-name="uni2011" unicode="&#x2011;" horiz-adv-x="811" 
d="M160 678v135h491v-135h-491z" />
    <glyph glyph-name="figuredash" unicode="&#x2012;" horiz-adv-x="987" 
d="M143 678v135h699v-135h-699z" />
    <glyph glyph-name="endash" unicode="&#x2013;" horiz-adv-x="987" 
d="M143 678v135h699v-135h-699z" />
    <glyph glyph-name="emdash" unicode="&#x2014;" 
d="M31 678v135h921v-135h-921z" />
    <glyph glyph-name="afii00208" unicode="&#x2015;" 
d="M31 678v135h921v-135h-921z" />
    <glyph glyph-name="underscoredbl" unicode="&#x2017;" horiz-adv-x="808" 
d="M-43 -262v94h895v-94h-895zM-43 -434v94h895v-94h-895z" />
    <glyph glyph-name="quoteleft" unicode="&#x2018;" horiz-adv-x="329" 
d="M276 1462l-61 -483h-162l97 483h126z" />
    <glyph glyph-name="quoteright" unicode="&#x2019;" horiz-adv-x="329" 
d="M53 979l62 483h161l-96 -483h-127z" />
    <glyph glyph-name="quotesinglbase" unicode="&#x201a;" horiz-adv-x="329" 
d="M53 -287l62 484h161l-96 -484h-127z" />
    <glyph glyph-name="quotedblleft" unicode="&#x201c;" horiz-adv-x="651" 
d="M276 1462l-61 -483h-162l97 483h126zM598 1462l-61 -483h-162l96 483h127z" />
    <glyph glyph-name="quotedblright" unicode="&#x201d;" horiz-adv-x="651" 
d="M375 979l61 483h162l-96 -483h-127zM53 979l62 483h161l-96 -483h-127z" />
    <glyph glyph-name="quotedblbase" unicode="&#x201e;" horiz-adv-x="651" 
d="M375 -287l61 484h162l-96 -484h-127zM53 -287l62 484h161l-96 -484h-127z" />
    <glyph glyph-name="dagger" unicode="&#x2020;" 
d="M414 870h-299v134h299v458h155v-458h299v-134h-299v-1194h-155v1194z" />
    <glyph glyph-name="daggerdbl" unicode="&#x2021;" 
d="M414 870h-299v134h299v458h155v-458h299v-134h-299v-329h277v-133h-277v-732h-155v732h-277v133h277v329z" />
    <glyph glyph-name="bullet" unicode="&#x2022;" 
d="M493 1075q144 0 242 -95q99 -96 99 -238t-98 -237t-245 -95q-146 0 -245 96q-98 96 -98 237t100 237q101 96 245 95z" />
    <glyph glyph-name="ellipsis" unicode="&#x2026;" horiz-adv-x="1466" 
d="M1141 0v199h159v-199h-159zM651 0v199h160v-199h-160zM164 0v199h160v-199h-160z" />
    <glyph glyph-name="perthousand" unicode="&#x2030;" horiz-adv-x="2205" 
d="M512 0l385 1462h145l-387 -1462h-143zM2001 293v184q0 105 -33 155q-34 50 -104 50t-102 -49t-31 -156v-184q0 -106 31 -155q32 -48 104 -48q135 0 135 203zM1595 289v192q0 160 65 232q65 71 206 71t206 -72t64 -231v-192q0 -158 -64 -231q-64 -72 -206 -72
q-141 0 -206 72t-65 231zM1348 293v184q0 105 -32 155t-104 50t-104 -49t-31 -156v-184q0 -107 33 -155q32 -48 102 -48t103 48t33 155zM942 289v192q0 160 65 232q65 71 205 71t206 -72q65 -72 65 -231v-192q0 -158 -65 -231q-65 -72 -206 -72q-142 0 -206 72t-64 231z
M475 989v185q0 106 -32 154q-33 48 -103 48t-102 -48t-31 -154v-185q0 -106 32 -155t103 -50q133 0 133 205zM72 985v193q0 158 64 230t205 73q140 0 205 -73t64 -230v-193q0 -159 -64 -231t-205 -72t-205 72t-64 231z" />
    <glyph glyph-name="guilsinglleft" unicode="&#x2039;" horiz-adv-x="436" 
d="M227 604l154 -256l-94 -65l-228 321l228 322l94 -66z" />
    <glyph glyph-name="guilsinglright" unicode="&#x203a;" horiz-adv-x="436" 
d="M209 604l-152 256l93 66l229 -322l-229 -321l-93 65z" />
    <glyph glyph-name="uni203E" unicode="&#x203e;" horiz-adv-x="808" 
d="M-43 1661v115h895v-115h-895z" />
    <glyph glyph-name="fraction" unicode="&#x2044;" horiz-adv-x="284" 
d="M-109 0l388 1462h143l-387 -1462h-144z" />
    <glyph glyph-name="zerosuperior" unicode="&#x2070;" horiz-adv-x="651" 
d="M453 1090v278q0 109 -31 159t-96 50q-125 0 -125 -209v-278q0 -209 125 -209q66 0 96 50t31 159zM76 1083v291q0 160 59 232t191 72t192 -72q59 -72 60 -232v-291q0 -159 -60 -231t-191 -72t-191 72t-60 231z" />
    <glyph glyph-name="foursuperior" unicode="&#x2074;" horiz-adv-x="647" 
d="M397 791v161h-340v78l262 637h132l-250 -612h196v221h113v-221h80v-103h-80v-161h-113z" />
    <glyph glyph-name="fivesuperior" unicode="&#x2075;" horiz-adv-x="643" 
d="M543 1667v-104h-297l-21 -246q57 25 113 24q121 -1 175 -67t54 -212t-61 -214q-62 -68 -190 -68t-188 56t-67 172l119 12q12 -137 131 -137q131 0 131 172q0 98 -28 143q-30 45 -98 45t-119 -57l-97 18l37 463h406z" />
    <glyph glyph-name="sixsuperior" unicode="&#x2076;" horiz-adv-x="647" 
d="M328 1243q-125 0 -125 -186q1 -94 29 -136t94 -42t94 43t29 138q0 95 -29 139t-92 44zM367 1339q111 0 165 -82q39 -59 39 -201t-57 -210q-57 -66 -188 -66t-189 65q-57 65 -57 210q0 80 11 122t52 123l191 367h147l-180 -336q39 8 66 8z" />
    <glyph glyph-name="sevensuperior" unicode="&#x2077;" horiz-adv-x="548" 
d="M31 1563v104h448v-76l-246 -800h-139l250 772h-313z" />
    <glyph glyph-name="eightsuperior" unicode="&#x2078;" horiz-adv-x="647" 
d="M459 1037q1 85 -31 124t-103 39t-103 -38t-32 -124t31 -124t103 -38t104 38t31 123zM326 1585q-64 0 -92 -34q-28 -33 -28 -111t28 -113t90 -35t91 35q28 35 27 113q1 145 -116 145zM90 1436q0 130 55 187q55 56 179 56t180 -56q55 -56 55 -181q0 -74 -17 -116t-59 -71
q53 -29 76 -77t23 -164q0 -115 -60 -175q-60 -61 -197 -61t-197 60t-60 176q0 114 22 163t76 78q-76 51 -76 181z" />
    <glyph glyph-name="ninesuperior" unicode="&#x2079;" horiz-adv-x="647" 
d="M326 1579q-66 0 -96 -39t-30 -127t30 -128q28 -40 92 -40t95 41q30 41 29 131q1 162 -120 162zM287 1151q-109 0 -159 62q-50 63 -50 201t57 200t187 63q130 0 189 -60q58 -60 58 -196q0 -79 -9 -117t-46 -108l-203 -405h-147l190 368q-41 -8 -67 -8z" />
    <glyph glyph-name="zeroinferior" unicode="&#x2080;" horiz-adv-x="651" 
d="M453 94v279q0 109 -31 159t-96 50q-125 0 -125 -209v-279q0 -209 125 -209q66 0 96 50t31 159zM76 88v291q0 159 59 231t191 72t192 -72q59 -72 60 -231v-291q0 -160 -60 -232t-191 -71q-131 -1 -191 71t-60 232z" />
    <glyph glyph-name="oneinferior" unicode="&#x2081;" horiz-adv-x="526" 
d="M225 -205v748l-133 -60l-41 90l211 99h90v-877h-127z" />
    <glyph glyph-name="twoinferior" unicode="&#x2082;" horiz-adv-x="638" 
d="M68 -205v84l229 303q121 158 121 264q0 133 -113 134q-102 0 -123 -146l-119 8q11 124 71 182t177 58q236 0 236 -236q0 -84 -31 -150t-127 -194l-151 -202h307v-105h-477z" />
    <glyph glyph-name="threeinferior" unicode="&#x2083;" horiz-adv-x="638" 
d="M299 580q-104 0 -119 -125l-117 8q11 115 69 167t173 52q240 0 240 -233q0 -129 -96 -191q117 -63 116 -221q0 -252 -258 -252q-168 0 -229 102q-25 39 -31 125l119 13q12 -137 135 -138q137 0 137 150q0 78 -42 125t-111 47h-86v94h77q63 0 103 39q39 39 39 102
q0 64 -32 100t-87 36z" />
    <glyph glyph-name="fourinferior" unicode="&#x2084;" horiz-adv-x="647" 
d="M397 -205v164h-340v78l262 635h132l-250 -611h196v220h113v-220h80v-104h-80v-162h-113z" />
    <glyph glyph-name="fiveinferior" unicode="&#x2085;" horiz-adv-x="643" 
d="M543 672v-105h-297l-21 -245q59 23 113 22q121 0 175 -66t54 -213q0 -146 -61 -213q-62 -67 -190 -67t-188 55t-67 172l119 13q12 -137 131 -138q131 0 131 170q0 98 -28 144q-30 45 -98 45t-119 -56l-97 19l37 463h406z" />
    <glyph glyph-name="sixinferior" unicode="&#x2086;" horiz-adv-x="647" 
d="M328 248q-125 0 -125 -187q1 -94 29 -136t94 -42t94 43q28 42 29 138q0 96 -29 140t-92 44zM324 -215q-244 1 -244 245q0 110 11 152q11 43 52 123l191 367h147l-180 -336q39 8 66 8q111 0 165 -82q39 -60 39 -202t-57 -208t-190 -67z" />
    <glyph glyph-name="seveninferior" unicode="&#x2087;" horiz-adv-x="548" 
d="M33 567v105h448v-76l-245 -801h-140l250 772h-313z" />
    <glyph glyph-name="eightinferior" unicode="&#x2088;" horiz-adv-x="647" 
d="M324 -119q72 0 104 38t31 123q1 85 -31 124t-103 39t-103 -38t-32 -124t31 -124t103 -38zM326 590q-64 0 -92 -34t-28 -112t28 -112t90 -35q62 0 91 35q28 35 27 112q1 146 -116 146zM90 441q0 131 55 187t179 56t180 -56q55 -56 55 -182q0 -74 -17 -116t-59 -70
q53 -29 76 -79t23 -140q0 -137 -60 -197t-197 -61q-136 0 -197 60q-60 60 -60 174t22 164q23 50 76 79q-76 51 -76 181z" />
    <glyph glyph-name="nineinferior" unicode="&#x2089;" horiz-adv-x="647" 
d="M326 584q-66 0 -96 -39t-30 -127t30 -128q28 -40 92 -40t95 41q30 41 29 131q1 162 -120 162zM287 156q-109 0 -159 62t-50 200t57 202q57 62 187 62t189 -60q58 -60 58 -196q0 -78 -9 -117t-46 -108l-203 -406h-147l190 369q-41 -8 -67 -8z" />
    <glyph glyph-name="franc" unicode="&#x20a3;" horiz-adv-x="1329" 
d="M815 0v895h117l18 -127q41 80 88 113t124 33t159 -48l-66 -127q-57 47 -112 47q-94 0 -136 -98t-42 -317v-371h-150zM160 0v1462h614v-135h-459v-532h375v-136h-375v-659h-155z" />
    <glyph glyph-name="lira" unicode="&#x20a4;" 
d="M109 0v117q88 37 146 137t58 215q0 27 -2 49h-215v98h197q-18 63 -55 142h-142v98h101q-53 125 -54 240q-1 184 97 284t274 100t268 -94t113 -294l-139 -25q-18 151 -74 217t-160 66q-106 0 -162 -68t-57 -177q0 -109 64 -249h350v-98h-303q31 -82 43 -142h260v-98h-256
q4 -27 4 -55q0 -182 -135 -328h588v-135h-809z" />
    <glyph glyph-name="peseta" unicode="&#x20a7;" 
d="M338 1063h391q-16 281 -258 270h-133v-270zM338 965v-279h131q242 -8 262 279h-393zM184 965h-159v98h159v399h281q399 12 420 -399h129v-98h-129q-9 -211 -113 -311t-307 -97h-125v-557h-156v965z" />
    <glyph glyph-name="uni20AB" unicode="&#x20ab;" 
d="M242 627v-215q0 -299 196 -299q207 0 207 319v164q0 319 -207 319q-196 1 -196 -288zM645 1176h-258v110h258v176h154v-176h137v-110h-137v-1176h-121l-10 82l-9 -8q-87 -92 -249 -92t-241 103t-79 327v217q0 213 79 315t243 103q84 1 133 -19t100 -72v220zM96 -356v114
h762v-114h-762z" />
    <glyph glyph-name="Euro" unicode="&#x20ac;" 
d="M154 602v154h-158l37 98h121v100q0 270 86 387q104 137 303 138q356 0 372 -385l-147 -7q-18 258 -223 259q-121 0 -176 -94t-56 -302v-96h496l-37 -98h-459v-154h404l-39 -98h-363q0 -137 21 -219q43 -172 221 -172q104 0 164 61q59 61 65 174l144 -10
q-8 -174 -106 -266t-273 -92q-274 0 -356 233q-39 104 -41 291h-158l37 98h121z" />
    <glyph glyph-name="uni20B4" unicode="&#x20b4;" 
d="M698 1100q0 250 -204 252q-147 0 -197 -152l-135 35q68 246 336 246q168 -1 260 -99t92 -267t-84 -279l149 -45l-26 -95l-199 62q-27 -20 -119 -62q-49 -18 -61 -22l-59 -23l401 -121l-25 -94l-493 148q-76 -74 -76 -209q0 -264 236 -264q211 0 251 165l138 -28
q-61 -266 -394 -266q-186 0 -284 103t-99 300q0 133 70 248l-135 39l27 96l180 -55q28 20 122 57t115 49l-383 115l27 94l471 -141q98 86 98 213z" />
    <glyph glyph-name="uni2101" unicode="&#x2101;" horiz-adv-x="1523" 
d="M1192 92q74 0 115 38t41 106t-43 102q-27 24 -141 56t-165 90t-51 166t68 172t188 65q172 0 240 -121l-101 -61q-45 80 -141 79q-61 0 -95 -34t-34 -96t37 -97q36 -35 140 -65t147 -62q76 -61 76 -186t-70 -190t-203 -64q-211 0 -285 139l103 59q51 -96 174 -96zM477 860
l-135 440l-135 -440h270zM684 616l223 846h129l-385 -1462h-129l154 586h-115l-57 180h-326l-55 -180h-135l301 876h104z" />
    <glyph glyph-name="afii61248" unicode="&#x2105;" horiz-adv-x="1581" 
d="M516 0l385 1462h129l-385 -1462h-129zM1393 332v147q0 240 -177 240t-178 -240v-147q0 -240 178 -240t177 240zM911 326v157q0 174 75 257t231 83q155 0 229 -83t74 -257v-157q0 -172 -74 -255t-230 -83t-230 83q-75 83 -75 255zM356 639q-295 0 -295 360v101
q0 375 291 375q172 0 250 -138l-98 -55q-51 86 -148 86q-168 0 -168 -272v-92q0 -258 174 -259q103 0 156 86l96 -57q-80 -135 -258 -135z" />
    <glyph glyph-name="afii61289" unicode="&#x2113;" horiz-adv-x="929" 
d="M444 725q259 317 261 561q1 45 -15 72t-41 26q-63 0 -107 -137t-98 -522zM90 372q0 22 52 72t137 148q73 512 151 708t211 197q72 0 117 -55t45 -144q0 -207 -148 -436q-72 -115 -225 -278q-47 -330 -47 -416t55 -86q35 0 57 22t56 97q25 49 51 49q33 0 33 -39
q0 -76 -71 -160t-161 -84q-154 0 -153 217q0 79 18 267q-119 -135 -147 -136q-11 -1 -21 17t-10 40z" />
    <glyph glyph-name="afii61352" unicode="&#x2116;" horiz-adv-x="1988" 
d="M1253 0v125h633v-125h-633zM1737 692v109q0 254 -167 254t-167 -254v-109q0 -252 167 -252t167 252zM1253 686v121q0 193 78 284t242 91q313 0 313 -375v-121q0 -193 -78 -283t-240 -90q-162 1 -238 93q-77 92 -77 280zM174 0v1462h156l581 -1157v1157h154v-1462h-154
l-583 1161v-1161h-154z" />
    <glyph glyph-name="trademark" unicode="&#x2122;" horiz-adv-x="1503" 
d="M686 586v876h121l229 -540l228 540h120v-876h-120v618l-185 -444h-88l-184 444v-618h-121zM242 586v772h-224v104h570v-104h-219v-772h-127z" />
    <glyph glyph-name="uni2126" unicode="&#x2126;" horiz-adv-x="1161" 
d="M123 0v117h250v63q-240 98 -230 484v311q0 250 99 368q112 137 348 137q426 1 426 -505v-311q6 -387 -228 -484v-63h248v-117h-374v268q201 55 194 402v288q0 203 -66 296q-67 94 -210 94t-210 -94t-67 -296v-288q-6 -346 195 -402v-268h-375z" />
    <glyph glyph-name="estimated" unicode="&#x212e;" horiz-adv-x="1032" 
d="M780 760v246q-61 268 -258 268q-94 0 -150 -60t-102 -206v-248h510zM942 659h-672v-282q27 -109 60 -170q59 -115 196 -115q195 0 273 258h110q-33 -141 -84 -213q-111 -157 -309 -157t-310 183q-114 183 -114 512t117 520t315 191q131 0 229 -84q97 -85 143 -233
t46 -410z" />
    <glyph glyph-name="onethird" unicode="&#x2153;" horiz-adv-x="1566" 
d="M1059 414v94h80q63 0 102 39t39 102t-32 99t-87 36q-102 0 -121 -125l-116 9q10 113 68 166t171 53q242 0 242 -234q0 -131 -96 -190q117 -63 116 -223q0 -250 -258 -250q-168 0 -229 102q-23 39 -31 125l119 12q12 -137 137 -137q137 0 137 150q0 78 -42 125t-111 47
h-88zM428 0l387 1462h143l-387 -1462h-143zM272 586v745l-135 -61l-43 98l217 94h88v-876h-127z" />
    <glyph glyph-name="twothirds" unicode="&#x2154;" horiz-adv-x="1566" 
d="M518 0l385 1462h144l-385 -1462h-144zM1120 414v94h80q63 0 102 39q38 39 37 102q0 63 -31 100q-32 36 -87 35q-100 0 -119 -125l-117 9q11 115 69 167t171 52q242 0 241 -234q0 -131 -96 -190q117 -63 117 -221q0 -252 -258 -252q-168 0 -230 102q-25 39 -30 125l118 12
q14 -137 136 -137q137 0 137 150q0 78 -42 125t-112 47h-86zM76 586v84l229 303q121 158 121 264q0 133 -113 133q-102 0 -123 -145l-118 8q10 125 69 182t178 58q236 0 236 -236q0 -84 -31 -152t-127 -192l-151 -203h307v-104h-477z" />
    <glyph glyph-name="uni2155" unicode="&#x2155;" horiz-adv-x="1566" 
d="M1401 877v-105h-295l-23 -246q59 25 115 25q119 0 173 -67t54 -213t-61 -214t-195 -67q-238 0 -249 227l118 12q12 -137 129 -137q131 0 131 170q0 100 -28 146q-28 45 -98 45t-117 -58l-94 19l34 463h406zM432 0l387 1462h144l-388 -1462h-143zM283 586v745l-136 -61
l-43 98l218 94h88v-876h-127z" />
    <glyph glyph-name="uni2156" unicode="&#x2156;" horiz-adv-x="1566" 
d="M522 0l387 1462h144l-387 -1462h-144zM1454 877v-105h-295l-22 -246q59 25 112 25q121 0 175 -67q54 -66 54 -214t-60 -214q-62 -66 -190 -66t-189 55q-60 55 -66 172l119 12q12 -137 129 -137q131 0 131 172q0 98 -29 144t-99 45q-70 0 -116 -58l-96 19l37 463h405z
M78 586v84l229 303q121 158 121 264q0 133 -113 133q-102 0 -122 -145l-119 8q10 125 69 182t179 58q236 0 235 -236q0 -84 -31 -152t-127 -192l-151 -203h307v-104h-477z" />
    <glyph glyph-name="uni2157" unicode="&#x2157;" horiz-adv-x="1566" 
d="M524 0l387 1462h144l-387 -1462h-144zM1456 877v-105h-297l-20 -246q57 25 112 25q121 0 175 -67q54 -66 54 -214t-60 -214q-62 -66 -190 -66t-189 55q-60 55 -66 172l119 12q12 -137 131 -137q131 0 131 170q0 100 -29 146t-97 45q-68 0 -120 -58l-96 19l37 463h405z
M315 1370q-105 0 -118 -125l-117 8q10 115 68 167t174 53q240 0 239 -234q0 -129 -96 -190q117 -63 117 -222q0 -252 -258 -252q-168 0 -230 103q-25 43 -31 125l119 12q12 -137 135 -137q137 0 138 149q0 78 -42 125t-112 47h-86v95h78q63 0 102 39t39 102t-32 99t-87 36z
" />
    <glyph glyph-name="uni2158" unicode="&#x2158;" horiz-adv-x="1566" 
d="M530 0l385 1462h144l-385 -1462h-144zM1456 877v-105h-295l-20 -246q57 25 112 25q119 0 173 -67q54 -66 54 -214t-60 -214q-62 -66 -195 -66q-238 0 -250 227l119 12q12 -137 131 -137q129 0 129 172q0 98 -29 144t-97 45q-68 0 -118 -58l-94 19l37 463h403zM406 586
v162h-340v77l262 637h131l-250 -612h197v221h112v-221h80v-102h-80v-162h-112z" />
    <glyph glyph-name="uni2159" unicode="&#x2159;" horiz-adv-x="1566" 
d="M1284 268q0 185 -121 185q-121 1 -121 -185q0 -96 29 -138t92 -42t92 43t29 137zM1202 549q113 0 168 -82q39 -59 39 -202t-58 -209q-59 -66 -191 -66t-195 76q-47 59 -47 200q0 78 11 121t52 123l190 367h148l-180 -336q39 8 63 8zM455 0l385 1462h143l-385 -1462h-143z
M287 586v745l-135 -61l-43 98l217 94h88v-876h-127z" />
    <glyph glyph-name="uni215A" unicode="&#x215a;" horiz-adv-x="1566" 
d="M532 0l386 1462h143l-385 -1462h-144zM1206 88q66 0 94 43t29 138q0 95 -29 139q-30 44 -94 45q-64 0 -94 -45q-30 -44 -29 -140q0 -96 29 -138q28 -42 94 -42zM1247 549q111 0 164 -82q41 -59 41 -202t-57 -209t-191 -66t-196 76q-47 55 -47 198q0 82 11 123t54 123
l188 367h148l-180 -336q41 8 65 8zM553 1462v-104h-297l-20 -246q57 25 112 25q121 0 175 -67q55 -67 55 -213t-62 -214t-189 -68q-129 -1 -189 55t-66 173l118 12q12 -137 132 -137q131 0 131 172q0 98 -29 143q-30 45 -100 45t-117 -57l-96 18l36 463h406z" />
    <glyph glyph-name="oneeighth" unicode="&#x215b;" horiz-adv-x="1566" 
d="M1186 86q72 0 104 38t31 123q1 85 -31 124t-103 39t-103 -38t-32 -124t32 -124q30 -38 102 -38zM1188 795q-63 0 -91 -35t-28 -112q0 -78 28 -112t90 -34t90 35t28 112q0 146 -117 146zM952 646q0 130 56 186t179 57q124 0 179 -56q55 -55 55 -185t-75 -183
q54 -29 76 -78t22 -163t-60 -176q-60 -60 -197 -60q-136 0 -197 60q-60 60 -60 175t22 164q23 49 76 78q-76 51 -76 181zM440 0l387 1462h144l-387 -1462h-144zM285 586v745l-135 -61l-44 98l218 94h88v-876h-127z" />
    <glyph glyph-name="threeeighths" unicode="&#x215c;" horiz-adv-x="1566" 
d="M522 0l387 1462h144l-385 -1462h-146zM1242 410q-72 0 -102 -38t-30 -124t31 -124t101 -38t103 38q31 38 31 123t-31 124q-32 39 -103 39zM1241 795q-63 0 -90 -34t-27 -112q0 -79 28 -113t89 -34t89 35t28 112q0 146 -117 146zM1241 889q123 0 178 -56q55 -55 55 -185
t-75 -183q55 -29 78 -78t22 -141q0 -138 -60 -198q-61 -60 -197 -60t-196 60t-60 175t21 164t76 78q-75 47 -75 179t55 188t178 57zM326 1370q-104 0 -119 -125l-117 8q10 115 68 167t174 53q240 0 239 -234q0 -129 -96 -190q117 -63 117 -222q0 -252 -258 -252
q-168 0 -230 103q-25 43 -30 125l119 12q12 -137 135 -137q137 0 137 149q0 78 -42 125t-112 47h-86v95h78q63 0 103 39q39 39 38 102q0 63 -31 99q-32 36 -87 36z" />
    <glyph glyph-name="fiveeighths" unicode="&#x215d;" horiz-adv-x="1566" 
d="M524 0l387 1462h144l-387 -1462h-144zM1246 410q-70 0 -102 -38t-32 -124t31 -124t103 -38t103 38t31 123t-31 124q-32 39 -103 39zM1249 795q-63 0 -91 -34t-28 -112q0 -79 28 -113t89 -34t89 35t28 112q0 146 -115 146zM1247 889q123 0 178 -56q55 -55 55 -185
t-75 -183q53 -29 76 -78t22 -141q0 -138 -60 -198q-61 -60 -197 -60t-196 60t-60 174t22 164t75 79q-73 49 -73 180t55 187t178 57zM565 1462v-104h-297l-20 -246q57 25 112 25q122 0 176 -67t54 -213t-62 -214t-189 -68q-128 -1 -188 55t-67 173l119 12q12 -137 131 -137
q131 0 131 172q0 98 -29 143q-30 45 -100 45t-117 -57l-96 18l37 463h405z" />
    <glyph glyph-name="seveneighths" unicode="&#x215e;" horiz-adv-x="1566" 
d="M485 0l387 1462h144l-387 -1462h-144zM1217 86q73 0 103 38t30 123t-30 124t-102 39q-71 0 -103 -38t-32 -124t31 -124t103 -38zM1217 795q-63 0 -91 -34t-28 -112q0 -79 28 -113t88 -34q61 0 90 35q28 35 27 112q1 146 -114 146zM981 646q0 130 55 186t178 57
q122 0 178 -56q56 -57 56 -187t-74 -181q53 -29 76 -78t23 -163q0 -236 -256 -236q-137 0 -198 60t-61 174t23 164t76 79q-76 51 -76 181zM127 1358v104h465v-76l-262 -800h-140l267 772h-330z" />
    <glyph glyph-name="arrowleft" unicode="&#x2190;" horiz-adv-x="1638" 
d="M1499 678h-1180l383 -383l-94 -96l-508 518v57l508 518l94 -94l-383 -385h1180v-135z" />
    <glyph glyph-name="arrowup" unicode="&#x2191;" horiz-adv-x="1638" 
d="M715 0v1257l-383 -383l-96 95l518 508h57l518 -508l-96 -95l-381 383v-1257h-137z" />
    <glyph glyph-name="arrowright" unicode="&#x2192;" horiz-adv-x="1638" 
d="M139 678v135h1180l-383 385l94 94l508 -518v-57l-508 -518l-94 96l383 383h-1180z" />
    <glyph glyph-name="arrowdown" unicode="&#x2193;" horiz-adv-x="1638" 
d="M715 1462h137v-1257l381 383l96 -94l-518 -508h-57l-518 508l96 94l383 -383v1257z" />
    <glyph glyph-name="arrowboth" unicode="&#x2194;" horiz-adv-x="1638" 
d="M1348 678h-1055l350 -350l-96 -97l-473 486v57l473 486l96 -97l-350 -350h1055l-351 350l95 97l475 -486v-57l-475 -486l-95 97z" />
    <glyph glyph-name="arrowupdn" unicode="&#x2195;" horiz-adv-x="1638" 
d="M717 180v1104l-350 -352l-97 96l486 473h57l485 -473l-96 -96l-350 352v-1106l350 352l96 -96l-485 -473h-57l-486 473l97 96z" />
    <glyph glyph-name="uni2196" unicode="&#x2196;" horiz-adv-x="1638" 
d="M434 504h-135v721l51 51h723v-135h-545l846 -844l-94 -94l-846 844v-543z" />
    <glyph glyph-name="uni2197" unicode="&#x2197;" horiz-adv-x="1638" 
d="M565 1141v135h723l51 -51v-721h-135v543l-846 -844l-94 94l846 844h-545z" />
    <glyph glyph-name="uni2198" unicode="&#x2198;" horiz-adv-x="1638" 
d="M1204 983h135v-723l-51 -51h-723v135h545l-846 846l94 96l846 -848v545z" />
    <glyph glyph-name="uni2199" unicode="&#x2199;" horiz-adv-x="1638" 
d="M1073 344v-135h-723l-51 51v723h135v-543l846 846l94 -96l-846 -846h545z" />
    <glyph glyph-name="partialdiff" unicode="&#x2202;" 
d="M700 403v205q0 156 -50 228t-158 72t-159 -72q-50 -72 -50 -228v-205q0 -157 50 -227t159 -70q108 0 158 70t50 227zM133 397v217q0 416 330 416q111 0 178 -59q-55 178 -145 272t-234 127l19 103q257 -27 407 -256t162 -615v-205q0 -217 -86 -316t-272 -99t-273 99
q-86 99 -86 316z" />
    <glyph glyph-name="emptyset" unicode="&#x2205;" 
d="M786 750q0 90 -26 156t-86 128l-283 -620q49 -16 98 -17q131 1 214 99t83 254zM176 738q0 -168 127 -283l287 630q-70 20 -121 21q-127 0 -210 -100t-83 -268zM901 752q0 -203 -116 -331t-300 -128q-63 0 -137 20l-172 -383l-90 35l174 387q-199 127 -199 400
q0 202 116 330t294 128q74 1 162 -26l153 342l91 -35l-158 -350q182 -133 182 -389z" />
    <glyph glyph-name="Delta" unicode="&#x2206;" 
d="M805 131l-311 1104l-312 -1104h623zM1018 0h-1049l457 1462h135z" />
    <glyph glyph-name="product" unicode="&#x220f;" horiz-adv-x="1069" 
d="M137 -424v1886h793v-1886h-156v1749h-481v-1749h-156z" />
    <glyph glyph-name="summation" unicode="&#x2211;" horiz-adv-x="1028" 
d="M129 -424v96l358 906l-340 778v106h787v-135h-604l329 -749l-333 -867h628v-135h-825z" />
    <glyph glyph-name="minus" unicode="&#x2212;" 
d="M82 684v125h817v-125h-817z" />
    <glyph glyph-name="uni2215" unicode="&#x2215;" horiz-adv-x="284" 
d="M-109 0l388 1462h143l-387 -1462h-144z" />
    <glyph glyph-name="uni2218" unicode="&#x2218;" 
d="M492 993q-109 -1 -182 -71q-72 -70 -72 -178t72 -180t181 -70q111 0 183 72t71 177q0 106 -72 178t-181 72zM494 1083q148 0 248 -97q100 -98 100 -242t-100 -242t-250 -98t-250 96q-100 98 -100 244t101 242q103 97 251 97z" />
    <glyph glyph-name="uni2219" unicode="&#x2219;" horiz-adv-x="487" 
d="M164 645v197h160v-197h-160z" />
    <glyph glyph-name="radical" unicode="&#x221a;" 
d="M57 614v131h242l139 -540l342 1571h453v-115h-328l-379 -1661h-159l-181 614h-129z" />
    <glyph glyph-name="infinity" unicode="&#x221e;" horiz-adv-x="1370" 
d="M988 553q69 0 116 53q47 54 47 140t-47 140t-123 54q-117 0 -221 -174l-12 -21l14 -22q57 -92 107 -131t119 -39zM391 940q-76 0 -123 -53t-47 -139t47 -140q48 -54 116 -55q68 0 119 39q50 39 107 131l15 22l-13 21q-102 174 -221 174zM1276 746q0 -142 -77 -225
t-209 -83t-224 92q-16 16 -80 115q-6 -9 -28 -45q-99 -161 -279 -162q-129 0 -206 83t-77 224t77 225t209 85q132 0 224 -94q16 -16 80 -115l8 12l4 8q59 94 109 131q83 57 199 57t193 -83t77 -225z" />
    <glyph glyph-name="integral" unicode="&#x222b;" horiz-adv-x="741" 
d="M229 -84q72 0 95 68q14 41 14 180v1053q0 201 31 280q45 123 196 123q59 0 127 -18l-28 -123q-43 14 -68 14q-70 0 -94 -70q-12 -41 -13 -170v-1058q0 -197 -30 -283q-49 -123 -199 -123q-51 0 -125 18l29 125q37 -16 65 -16z" />
    <glyph glyph-name="similar" unicode="&#x223c;" 
d="M662 727q80 0 126 143l95 -28q-39 -128 -92 -182t-140 -54q-45 0 -79 16t-97 64q-63 50 -90 64t-57 14q-82 -1 -129 -148l-97 23q35 129 88 187t140 59q51 1 87 -15q37 -16 115 -80t130 -63z" />
    <glyph glyph-name="uni2243" unicode="&#x2243;" 
d="M319 1044q49 0 87 -16t99 -64q62 -48 90 -62q29 -14 63 -15q72 0 120 141l94 -27q-39 -127 -92 -181t-139 -54q-45 0 -79 15t-97 65t-89 64q-26 13 -59 14q-82 -1 -129 -148l-96 23q33 131 87 188t140 57zM98 535v122h768v-122h-768z" />
    <glyph glyph-name="approxequal" unicode="&#x2248;" 
d="M330 1044q49 0 86 -16t99 -64t90 -62t63 -15q71 0 120 141l95 -27q-39 -127 -92 -181t-140 -54q-45 0 -79 15t-97 65t-89 64q-26 13 -58 14q-82 -1 -129 -148l-97 23q35 129 88 187t140 58zM332 727q49 0 85 -15q36 -14 98 -64t90 -64t57 -15q80 0 126 142l95 -29
q-39 -125 -92 -179t-140 -54q-45 0 -80 15t-97 64q-62 50 -89 64t-57 14q-82 1 -129 -149l-97 24q35 129 88 187t142 59z" />
    <glyph glyph-name="notequal" unicode="&#x2260;" 
d="M109 535v122h280l72 179h-352v120h401l96 250l119 -47l-78 -203h230v-120h-281l-72 -179h353v-122h-402l-98 -250l-117 47l78 203h-229z" />
    <glyph glyph-name="lessequal" unicode="&#x2264;" 
d="M111 47v125h706v-125h-706zM266 762l551 -291v-147l-719 393v88l719 393v-145z" />
    <glyph glyph-name="greaterequal" unicode="&#x2265;" 
d="M166 47v125h706v-125h-706zM717 762l-551 291v145l719 -393v-88l-719 -393v147z" />
    <glyph glyph-name="dotmath" unicode="&#x22c5;" horiz-adv-x="487" 
d="M164 645v197h160v-197h-160z" />
    <glyph glyph-name="filledrect" unicode="&#x25ac;" 
d="M178 428v627h627v-627h-627z" />
    <glyph glyph-name="uni25B4" unicode="&#x25b4;" 
d="M115 418l377 749l374 -749h-751z" />
    <glyph glyph-name="uni25B8" unicode="&#x25b8;" 
d="M193 367v751l749 -377z" />
    <glyph glyph-name="uni25BE" unicode="&#x25be;" 
d="M115 1065h751l-374 -750z" />
    <glyph glyph-name="uni25C2" unicode="&#x25c2;" 
d="M791 367l-750 374l750 377v-751z" />
    <glyph glyph-name="lozenge" unicode="&#x25ca;" 
d="M186 713l306 -520l305 520l-305 518zM23 713l469 768l469 -768l-469 -770z" />
    <glyph glyph-name="openbullet" unicode="&#x25e6;" 
d="M492 993q-109 -1 -182 -71q-72 -70 -72 -178t72 -180t181 -70q111 0 183 72t71 177q0 106 -72 178t-181 72zM494 1083q148 0 248 -97q100 -98 100 -242t-100 -242t-250 -98t-250 96q-100 98 -100 244t101 242q103 97 251 97z" />
    <glyph glyph-name="commaaccent" unicode="&#xf6c3;" horiz-adv-x="1024" 
d="M395 -451l90 308h156l-139 -308h-107z" />
    <glyph glyph-name="Acute" unicode="&#xf6c9;" horiz-adv-x="1024" 
d="M420 1618l131 289h182l-198 -289h-115z" />
    <glyph glyph-name="Caron" unicode="&#xf6ca;" horiz-adv-x="1024" 
d="M512 1729l113 165h157l-221 -268h-100l-221 268h157z" />
    <glyph glyph-name="Dieresis" unicode="&#xf6cb;" horiz-adv-x="1024" 
d="M612 1634v209h140v-209h-140zM270 1634v209h140v-209h-140z" />
    <glyph glyph-name="Grave" unicode="&#xf6ce;" horiz-adv-x="1024" 
d="M608 1618h-114l-199 289h182z" />
    <glyph glyph-name="Hungarumlaut" unicode="&#xf6cf;" horiz-adv-x="1024" 
d="M565 1618l105 289h168l-164 -289h-109zM324 1618l104 289h168l-164 -289h-108z" />
    <glyph glyph-name="Macron" unicode="&#xf6d0;" horiz-adv-x="1024" 
d="M283 1698v112h458v-112h-458z" />
    <glyph glyph-name="zerooldstyle" unicode="&#xf730;" horiz-adv-x="958" 
d="M676 420v254q0 166 -46 238t-152 73q-106 0 -152 -72q-45 -72 -45 -237v-258q0 -166 45 -237t151 -71t153 72q46 72 46 238zM123 408v280q0 218 86 322t268 104t269 -103t88 -323v-282q0 -216 -88 -320t-269 -104q-182 0 -268 104t-86 322z" />
    <glyph glyph-name="oneoldstyle" unicode="&#xf731;" horiz-adv-x="620" 
d="M256 0v922l-213 -105l-55 125l317 152h111v-1094h-160z" />
    <glyph glyph-name="twooldstyle" unicode="&#xf732;" horiz-adv-x="821" 
d="M35 0v104l330 353q199 213 198 346q0 182 -180 182q-88 0 -135 -48t-62 -151l-143 17q37 311 344 311q162 0 247 -79t85 -226q0 -107 -48 -191t-200 -245l-231 -244h493v-129h-698z" />
    <glyph glyph-name="threeoldstyle" unicode="&#xf733;" horiz-adv-x="870" 
d="M238 369v129h114q109 0 171 66q63 66 63 183q0 116 -47 177t-127 61q-159 0 -183 -172l-143 21q25 145 104 213q80 67 232 67t238 -93t85 -265q0 -121 -43 -196t-139 -126q117 -49 170 -135t53 -225q0 -404 -405 -404q-205 0 -295 131q-35 51 -49 150l147 29
q4 -86 58 -134t158 -47q102 0 164 74t62 206t-72 211q-73 79 -192 79h-124z" />
    <glyph glyph-name="fouroldstyle" unicode="&#xf734;" horiz-adv-x="851" 
d="M555 -311v311h-528v100l401 994h166l-393 -965h354v442h143v-442h138v-129h-138v-311h-143z" />
    <glyph glyph-name="fiveoldstyle" unicode="&#xf735;" horiz-adv-x="937" 
d="M813 127q0 -457 -387 -457q-158 0 -248 72t-102 209l145 29q3 -84 57 -132t144 -49q231 0 231 322q0 161 -50 237t-159 76t-194 -92l-115 25l55 727h582v-136h-446l-39 -450q100 53 194 53q184 0 269 -131q63 -100 63 -303z" />
    <glyph glyph-name="sixoldstyle" unicode="&#xf736;" horiz-adv-x="962" 
d="M490 780q-108 0 -158 -81q-49 -81 -49 -259t48 -255q49 -77 157 -77t155 78t47 257t-46 258t-154 79zM535 901q174 0 253 -135q60 -98 60 -338t-92 -344t-279 -102q-187 0 -280 127q-72 92 -72 325q0 123 20 210t76 200l289 581h178l-285 -555q13 4 47 18t85 13z" />
    <glyph glyph-name="sevenoldstyle" unicode="&#xf737;" horiz-adv-x="696" 
d="M-25 958v136h654v-97l-375 -1308h-170l381 1269h-490z" />
    <glyph glyph-name="eightoldstyle" unicode="&#xf738;" horiz-adv-x="989" 
d="M715 398q0 154 -51 222t-170 68t-170 -66q-52 -66 -52 -221t52 -225t170 -70q119 0 170 69t51 223zM682 1062q0 138 -44 198t-144 61q-100 0 -144 -58q-44 -59 -45 -197q0 -138 43 -198q42 -60 144 -61q102 0 146 59q44 58 44 196zM494 1444q174 0 256 -91t81 -286
q-1 -125 -33 -196t-108 -113q100 -43 141 -124t41 -233q0 -219 -90 -319t-288 -100t-289 100q-90 100 -90 319q0 152 41 234t141 123q-78 44 -110 114t-31 197q0 195 82 285t256 90z" />
    <glyph glyph-name="nineoldstyle" unicode="&#xf739;" horiz-adv-x="962" 
d="M476 987q-108 0 -156 -78t-48 -258t46 -259t155 -79t158 81t49 260t-48 256t-156 77zM428 193q-170 0 -254 135q-59 98 -59 338t91 345q92 103 280 103t280 -127q72 -93 72 -321t-97 -414l-288 -567h-177l283 538l-61 -22q-18 -8 -70 -8z" />
    <glyph glyph-name="Dbreve" horiz-adv-x="1173" 
d="M551 1612q-170 0 -221 123q-17 40 -23 153h105q8 -88 40 -124t104 -36t104 36q30 34 40 124h105q-6 -121 -31 -170q-53 -106 -223 -106zM340 133h215q162 -2 236 86t73 289v448q0 199 -73 287q-74 88 -236 86h-215v-1196zM180 0v1462h389q229 4 344 -119t111 -366v-492
q4 -245 -111 -367t-344 -118h-389z" />
    <glyph glyph-name="ahungarumlaut" horiz-adv-x="925" 
d="M516 1192l105 289h167l-163 -289h-109zM274 1192l105 289h168l-164 -289h-109zM627 483h-176q-121 0 -170 -45t-49 -147t42 -141q43 -39 157 -39t155 42t41 158v172zM627 602v74q0 133 -42 188q-41 56 -129 56t-130 -36t-70 -118l-131 39q63 242 321 242q213 0 291 -136
q43 -78 43 -252v-659h-123l-10 72q-43 -50 -97 -70t-153 -20q-171 0 -243 68t-72 240t77 242t265 70h203z" />
    <glyph glyph-name="uni0204.sc" horiz-adv-x="837" 
d="M393 1249h-108l-164 289h166zM635 1249h-109l-164 289h168zM139 0v1096h598v-129h-442v-351h375v-129h-375v-358h444v-129h-600z" />
    <glyph glyph-name="uni0206.sc" horiz-adv-x="837" 
d="M456 1419q-72 0 -105 -35q-32 -35 -40 -124h-104q6 121 31 170q53 106 223 106t221 -123q19 -49 23 -153h-105q-8 88 -40 124t-104 35zM162 0v1096h594v-129h-439v-351h373v-129h-373v-358h443v-129h-598z" />
    <glyph glyph-name="uni0208.sc" horiz-adv-x="479" 
d="M186 1249h-108l-164 289h166zM428 1249h-109l-163 289h168zM162 0v1094h155v-1094h-155z" />
    <glyph glyph-name="uni020A.sc" horiz-adv-x="479" 
d="M240 1419q-72 0 -104 -35t-40 -124h-104q6 121 31 170q53 106 223 106t221 -123q18 -49 22 -153h-104q-8 88 -40 124q-33 36 -105 35zM162 0v1094h155v-1094h-155z" />
    <glyph glyph-name="uni020C.sc" horiz-adv-x="980" 
d="M422 1249h-109l-163 289h165zM664 1249h-109l-164 289h168zM674 393v307q0 147 -48 215t-154 68t-154 -68t-48 -215v-307q0 -147 48 -215t154 -68t154 68t48 215zM115 381v332q0 207 86 303t271 96t271 -96t86 -303v-332q0 -207 -86 -303t-271 -96t-271 96t-86 303z" />
    <glyph glyph-name="uni020E.sc" horiz-adv-x="980" 
d="M488 1419q-72 0 -104 -35t-40 -124h-104q6 121 30 170q53 106 223 106t222 -123q18 -49 22 -153h-104q-8 88 -40 124t-105 35zM690 393v307q0 147 -48 215t-154 68t-153 -68q-48 -68 -48 -215v-307q0 -147 48 -215t153 -68t154 68q48 68 48 215zM131 381v332
q0 207 86 303t271 96q186 0 272 -96t86 -303v-332q0 -207 -86 -303t-272 -96t-271 96q-86 96 -86 303z" />
    <glyph glyph-name="uni0210.sc" horiz-adv-x="948" 
d="M385 1249h-109l-163 289h166zM627 1249h-109l-164 289h168zM317 586h170q98 0 144 46q45 46 45 145t-46 145t-147 47h-166v-383zM319 465v-465h-155v1096h321q181 0 265 -74t84 -220t-46 -212q-46 -68 -153 -103l225 -487h-174l-199 465h-168z" />
    <glyph glyph-name="uni0212.sc" horiz-adv-x="948" 
d="M450 1419q-72 0 -105 -35q-32 -35 -40 -124h-104q6 121 30 170q53 106 223 106t222 -123q18 -49 22 -153h-104q-8 88 -40 124t-104 35zM317 586h168q100 0 146 46q45 46 45 146t-46 146t-149 45h-164v-383zM319 463v-463h-155v1096h321q179 0 263 -74t84 -220t-47 -214
q-46 -68 -152 -101l225 -487h-170l-203 463h-166z" />
    <glyph glyph-name="uni0214.sc" horiz-adv-x="1009" 
d="M426 1249h-109l-163 289h165zM668 1249h-109l-164 289h168zM133 1094h156v-740q0 -117 30 -168q49 -76 166 -76t162 89q25 43 25 155v740h155v-740q0 -106 -13 -160t-48 -100q-90 -112 -294 -112t-290 129q-49 74 -49 243v740z" />
    <glyph glyph-name="uni0216.sc" horiz-adv-x="1009" 
d="M502 1419q-72 0 -104 -35t-40 -124h-104q6 121 31 170q53 106 223 106t221 -123q19 -49 23 -153h-105q-8 88 -40 124q-33 36 -105 35zM156 1094h155v-740q0 -117 31 -168q49 -76 167 -76t161 89q25 43 24 155v740h156v-740q0 -106 -13 -160t-49 -100q-90 -112 -294 -112
t-289 129q-49 74 -49 243v740z" />
    <glyph glyph-name="uni1E24.sc" horiz-adv-x="1003" 
d="M426 -395v209h149v-209h-149zM162 0v1094h155v-478h369v478h156v-1094h-156v487h-369v-487h-155z" />
    <glyph glyph-name="uni1E5A.sc" horiz-adv-x="948" 
d="M422 -395v209h149v-209h-149zM317 586h168q100 0 146 46q45 46 45 146t-46 146t-149 45h-164v-383zM319 463v-463h-155v1096h321q179 0 263 -74t84 -220t-47 -214q-46 -68 -152 -101l225 -487h-170l-203 463h-166z" />
    <glyph glyph-name="uni1E62.sc" horiz-adv-x="829" 
d="M334 -395v209h149v-209h-149zM96 817q0 135 83 215t223 80t214 -56t105 -179l-135 -39q-29 82 -67 114q-39 32 -111 31q-72 0 -115 -45t-43 -124t46 -122t178 -80t188 -77q94 -70 94 -229q0 -160 -87 -242t-248 -82t-246 62t-114 194l140 36q35 -164 207 -163
q195 0 194 188q0 88 -53 131q-33 27 -179 67q-146 41 -210 113t-64 207z" />
    <glyph glyph-name="uni1E6C.sc" horiz-adv-x="741" 
d="M295 -395v209h149v-209h-149zM293 0v967h-266v129h686v-129h-264v-967h-156z" />
    <glyph glyph-name="uni1E92.sc" horiz-adv-x="763" 
d="M313 -395v209h150v-209h-150zM61 0v98l433 869h-404v129h580v-99l-432 -868h452v-129h-629z" />
    <glyph glyph-name="uni1E44.sc" horiz-adv-x="1052" 
d="M463 1266v209h149v-209h-149zM162 0v1094h149l430 -807v807h150v-1094h-137l-443 821v-821h-149z" />
    <glyph glyph-name="uni1E0C.sc" horiz-adv-x="987" 
d="M375 -395v209h149v-209h-149zM317 127h148q125 -2 178 60t53 210v301q0 148 -53 210t-178 61h-148v-842zM162 0v1096h313q389 8 377 -383v-330q4 -197 -89 -291t-288 -92h-313z" />
    <glyph glyph-name="uni1E02.sc" horiz-adv-x="940" 
d="M369 1266v209h149v-209h-149zM315 125h209q88 0 130 44t42 140q0 193 -164 193h-217v-377zM315 623h199q162 0 162 174t-168 174h-193v-348zM162 0v1096h350q168 0 244 -72t75 -217q1 -84 -25 -138t-87 -98q73 -45 103 -108t30 -166q0 -162 -92 -238q-72 -59 -217 -59
h-381z" />
    <glyph glyph-name="idotaccent" horiz-adv-x="458" 
d="M154 0v1028h153v-1028h-153zM154 1255v213h153v-213h-153z" />
    <glyph glyph-name="one.fitted" horiz-adv-x="620" 
d="M256 0v1290l-213 -104l-55 123l317 153h111v-1462h-160z" />
    <glyph glyph-name="two.fitted" horiz-adv-x="886" 
d="M39 0v109l358 520q113 167 155 275t42 210q0 233 -186 234q-184 0 -209 -248l-146 6q9 182 101 278t258 96t254 -94t88 -252t-47 -270q-47 -111 -203 -342l-264 -387h518v-135h-719z" />
    <glyph glyph-name="three.fitted" horiz-adv-x="862" 
d="M608 395q0 139 -69 225q-70 85 -185 85h-123v129h113q106 0 169 69q62 70 62 192q0 121 -52 187t-150 66q-178 0 -203 -222l-145 9q23 346 356 346q172 -1 263 -99t91 -284q0 -123 -43 -201t-139 -127q113 -51 164 -141t51 -236q0 -203 -98 -307t-289 -104
q-240 0 -336 165q-41 72 -49 197l149 10q18 -240 230 -239q233 0 233 280z" />
    <glyph glyph-name="four.fitted" horiz-adv-x="958" 
d="M594 0v272h-520v101l409 1089h166l-397 -1056h342v444h147v-444h127v-136h-127v-270h-147z" />
    <glyph glyph-name="five.fitted" horiz-adv-x="956" 
d="M788 1462v-135h-458l-37 -477q67 37 101 46t91 9q176 1 259 -109t83 -346t-82 -346q-96 -122 -312 -122t-310 165q-39 72 -47 197l149 10q9 -117 65 -178t154 -61q223 0 224 323q0 182 -48 260t-162 78t-204 -92l-115 23l56 755h593z" />
    <glyph glyph-name="six.fitted" horiz-adv-x="964" 
d="M492 776q-108 0 -158 -80q-49 -80 -49 -256t48 -252q49 -76 157 -76t155 78t47 253t-46 254t-154 79zM537 901q174 0 254 -135q59 -98 59 -338t-92 -344t-280 -102q-188 0 -279 127q-72 92 -72 325q0 127 17 202t79 208l289 618h178l-284 -592q12 4 45 18t86 13z" />
    <glyph glyph-name="seven.fitted" horiz-adv-x="696" 
d="M-25 1327v135h654v-96l-375 -1366h-170l381 1327h-490z" />
    <glyph glyph-name="eight.fitted" horiz-adv-x="991" 
d="M497 702q-118 0 -170 -68q-53 -68 -53 -226t52 -227t170 -69q119 0 171 70q52 68 52 225t-52 226t-170 69zM496 1356q-104 0 -150 -60t-45 -203q0 -143 45 -205q44 -62 148 -62t150 62t46 202t-45 204q-45 62 -149 62zM496 1481q178 0 261 -93t83 -294q0 -127 -33 -201
t-111 -119q96 -43 138 -128t43 -240q1 -224 -93 -324t-296 -100t-298 122q-74 88 -73 302q0 158 41 242t139 126q-82 47 -114 119t-31 203q0 199 82 292q84 93 262 93z" />
    <glyph glyph-name="nine.fitted" horiz-adv-x="964" 
d="M680 1051q0 159 -48 229t-156 70t-156 -70t-48 -232t47 -233q47 -72 155 -72t157 75t49 233zM115 1064q0 227 88 316q95 100 281 100t282 -118q72 -92 72 -303q0 -117 -16 -189t-66 -180l-316 -690h-176l303 653q-72 -33 -145 -32q-168 0 -248 124q-59 92 -59 319z" />
    <glyph glyph-name="zero.fitted" horiz-adv-x="1007" 
d="M717 492v479q0 199 -50 287t-162 90q-112 0 -162 -90t-50 -287v-479q0 -199 50 -288t162 -89t162 89t50 288zM135 475v512q0 254 90 374q89 120 279 120t280 -120t90 -374v-512q0 -254 -90 -374q-90 -119 -279 -119t-280 119q-90 120 -90 374z" />
    <glyph glyph-name="sterling.fitted" horiz-adv-x="976" 
d="M111 0v117q92 39 149 136t57 195t-26 179h-185v135h132q-59 127 -76 188q-16 61 -17 144q-1 184 95 285t270 102q217 0 315 -154q53 -80 72 -235l-139 -27q-18 125 -49 176q-61 109 -191 109q-100 0 -156 -68t-57 -186q-1 -72 17 -128t88 -206h305v-135h-266
q20 -82 20 -146q0 -209 -137 -346h588v-135h-809z" />
    <glyph glyph-name="dollar.fitted" horiz-adv-x="968" 
d="M94 1083q0 215 148 308q55 37 168 51v221h153v-227q106 -14 178 -82t97 -176l-133 -43q-47 180 -234 180q-107 1 -165 -57t-58 -166t61 -169q61 -59 199 -101t181 -60q44 -18 87 -53q115 -96 115 -291q0 -350 -328 -393v-295h-153v290q-296 32 -349 304l136 43
q18 -103 91 -161q74 -58 194 -58t188 65t68 191t-72 188q-33 29 -64 41q-32 12 -188 58t-238 140t-82 252z" />
    <glyph glyph-name="cent.fitted" horiz-adv-x="917" 
d="M424 78v231q-287 37 -283 428v176q-2 207 67 313t216 130v221h154v-223q90 -14 150 -79t75 -161l-127 -35q-27 92 -65 126t-113 34q-109 0 -158 -76t-49 -239v-199q0 -299 209 -299q160 0 192 166l125 -35q-16 -100 -82 -167t-157 -79v-233h-154z" />
    <glyph glyph-name="Euro.fitted" horiz-adv-x="972" 
d="M154 602v154h-158l37 98h121v100q0 270 86 387q104 137 303 138q356 0 372 -385l-147 -7q-18 258 -223 259q-121 0 -176 -94t-56 -302v-96h496l-37 -98h-459v-154h404l-39 -98h-363q2 -139 23 -219q43 -172 219 -172q104 0 165 61q60 61 64 174l144 -10
q-8 -174 -106 -266t-273 -92q-274 0 -356 233q-39 104 -41 291h-158l37 98h121z" />
    <glyph glyph-name="yen.fitted" 
d="M412 0v311h-275v99h275v139h-275v98h234l-346 815h168l299 -741l301 741h168l-349 -815h236v-98h-277v-139h277v-99h-277v-311h-159z" />
    <glyph glyph-name="one.numerator" horiz-adv-x="628" 
d="M268 586v745l-135 -61l-43 98l217 94h88v-876h-127z" />
    <glyph glyph-name="two.numerator" horiz-adv-x="628" 
d="M61 586v84l230 303q121 158 121 264q0 133 -113 133q-102 0 -123 -145l-119 8q9 125 69 182t179 58q236 0 236 -236q0 -84 -31 -152t-127 -192l-152 -203h308v-104h-478z" />
    <glyph glyph-name="three.numerator" horiz-adv-x="628" 
d="M295 1370q-104 0 -119 -125l-117 8q11 115 69 167t173 53q240 0 240 -234q0 -129 -97 -190q117 -63 117 -222q0 -252 -258 -252q-168 0 -229 103q-25 43 -31 125l119 12q12 -137 135 -137q137 0 137 149q0 78 -42 125t-111 47h-86v95h77q63 0 103 39q39 39 39 102t-32 99
t-87 36z" />
    <glyph glyph-name="four.numerator" horiz-adv-x="628" 
d="M387 586v162h-340v77l262 637h131l-250 -612h197v221h113v-221h80v-102h-80v-162h-113z" />
    <glyph glyph-name="five.numerator" horiz-adv-x="628" 
d="M537 1462v-104h-297l-21 -246q57 25 113 25q121 0 175 -67t54 -213t-61 -214q-62 -68 -190 -68q-128 -1 -188 55t-67 173l119 12q12 -137 131 -137q131 0 131 172q0 98 -28 143q-29 45 -100 45t-118 -57l-96 18l37 463h406z" />
    <glyph glyph-name="six.numerator" horiz-adv-x="628" 
d="M317 1038q-125 0 -124 -186q1 -94 29 -136t94 -42t94 43t28 138t-28 139q-30 44 -93 44zM561 851q0 -143 -57 -209q-56 -66 -190 -67q-134 0 -197 76q-47 59 -47 199q0 80 11 123t52 123l191 366h147l-180 -336q39 8 65 9q111 0 166 -82q39 -59 39 -202z" />
    <glyph glyph-name="seven.numerator" horiz-adv-x="628" 
d="M78 1358v104h465v-76l-262 -800h-140l267 772h-330z" />
    <glyph glyph-name="eight.numerator" horiz-adv-x="628" 
d="M449 833q0 85 -32 123t-103 39q-70 0 -102 -38q-32 -37 -32 -123t31 -124t103 -38t103 38q32 38 32 123zM315 1380q-63 0 -91 -34t-28 -111q0 -78 28 -113t90 -35t90 35t28 113q0 145 -117 145zM80 1232q0 130 55 186t179 56t180 -56t55 -181q1 -74 -17 -116t-59 -70
q55 -31 77 -79t21 -141q0 -137 -60 -197q-61 -60 -197 -60t-196 60t-60 174t21 162q22 50 77 81q-76 51 -76 181z" />
    <glyph glyph-name="nine.numerator" horiz-adv-x="628" 
d="M315 1374q-65 0 -95 -39t-30 -127t30 -128t93 -40q123 0 123 167t-121 167zM276 946q-108 0 -158 62t-50 201t57 201t187 62t188 -60t59 -195q0 -76 -10 -116t-45 -110l-203 -405h-147l190 368q-41 -8 -68 -8z" />
    <glyph glyph-name="zero.numerator" horiz-adv-x="628" 
d="M440 885v278q0 109 -30 159q-31 50 -97 50q-125 0 -125 -209v-278q0 -209 125 -209q66 0 97 50q30 50 30 159zM63 879v290q-1 160 59 232t192 72t192 -72t59 -232v-290q0 -160 -59 -232q-60 -72 -192 -72t-192 72t-59 232z" />
    <glyph glyph-name="one.denominator" horiz-adv-x="628" 
d="M268 0v745l-135 -61l-43 98l217 95h88v-877h-127z" />
    <glyph glyph-name="two.denominator" horiz-adv-x="628" 
d="M61 0v84l230 303q121 158 121 264q0 133 -113 133q-102 0 -123 -145l-119 8q11 125 71 182t177 58q236 0 236 -236q0 -85 -31 -151t-127 -193l-152 -203h308v-104h-478z" />
    <glyph glyph-name="three.denominator" horiz-adv-x="628" 
d="M195 414v94h77q63 0 103 39q39 39 39 102t-32 99t-86 36t-83 -30t-37 -95l-117 9q11 115 69 167t173 52q240 0 240 -234q0 -129 -97 -190q117 -63 117 -221q0 -252 -258 -252q-168 0 -229 102q-25 39 -31 125l119 12q12 -137 135 -137q137 0 137 150q0 78 -42 125
t-111 47h-86z" />
    <glyph glyph-name="four.denominator" horiz-adv-x="628" 
d="M387 0v164h-340v78l262 635h131l-250 -611h197v219h113v-219h80v-104h-80v-162h-113z" />
    <glyph glyph-name="five.denominator" horiz-adv-x="628" 
d="M537 877v-105h-297l-21 -246q59 25 113 25q121 0 175 -67t54 -214t-61 -214q-62 -66 -190 -66t-188 55t-67 172l119 12q12 -137 131 -137q131 0 131 172q0 98 -28 144q-29 45 -98 45t-120 -58l-96 19l37 463h406z" />
    <glyph glyph-name="six.denominator" horiz-adv-x="628" 
d="M317 453q-125 0 -124 -187q1 -94 29 -136t94 -42t94 43t28 138t-28 140q-30 44 -93 44zM356 549q111 0 166 -82q39 -59 39 -202t-57 -209q-56 -66 -190 -66t-197 76q-47 58 -47 168t11 152t52 124l191 367h147l-180 -336q39 8 65 8z" />
    <glyph glyph-name="seven.denominator" horiz-adv-x="628" 
d="M78 772v105h465v-76l-262 -801h-140l267 772h-330z" />
    <glyph glyph-name="eight.denominator" horiz-adv-x="628" 
d="M314 410q-70 0 -102 -38t-32 -124t31 -124t103 -38t103 38q32 38 32 123t-32 124t-103 39zM315 795q-63 0 -91 -34t-28 -112q0 -79 28 -113t90 -34t90 35t28 112q0 146 -117 146zM80 646q0 130 55 186t179 57q124 0 180 -56t55 -182q1 -73 -17 -115t-59 -71
q53 -29 76 -79t22 -140q0 -138 -60 -198q-61 -60 -197 -60t-196 60t-60 174t22 164q23 50 76 79q-76 51 -76 181z" />
    <glyph glyph-name="nine.denominator" horiz-adv-x="628" 
d="M315 788q-65 0 -95 -38t-30 -127q0 -88 29 -128t93 -40t95 41q30 41 29 131q0 161 -121 161zM68 624q0 138 57 200t187 62t188 -60t59 -195q0 -78 -9 -117t-46 -108l-203 -406h-147l190 369q-41 -8 -68 -9q-108 0 -158 62q-50 64 -50 202z" />
    <glyph glyph-name="zero.denominator" horiz-adv-x="628" 
d="M440 299v279q0 108 -30 158t-97 50q-125 0 -125 -208v-279q0 -209 125 -209q66 0 97 50q30 50 30 159zM63 293v291q-1 160 59 232t192 71q132 0 192 -72t59 -231v-291q0 -160 -59 -232q-60 -71 -192 -71t-192 72t-59 231z" />
    <glyph glyph-name="oneone" horiz-adv-x="1566" 
d="M1149 0v745l-135 -61l-43 98l217 95h88v-877h-127zM453 0l387 1462h143l-387 -1462h-143zM293 586v745l-135 -61l-43 98l217 94h88v-876h-127z" />
    <glyph glyph-name="Dotaccent" horiz-adv-x="1024" 
d="M436 1634v209h150v-209h-150z" />
    <glyph glyph-name="Ring" horiz-adv-x="1024" 
d="M511 1931q-97 0 -97 -124t97 -124t97 124t-97 124zM512 2013q92 0 146 -56q54 -57 54 -149t-54 -149q-56 -57 -146 -57t-146 57t-56 150t54 149q56 56 148 55z" />
    <glyph glyph-name="Circumflex" horiz-adv-x="1024" 
d="M510 1794l-113 -166h-157l221 270h100l221 -270h-157z" />
    <glyph glyph-name="Breve" horiz-adv-x="1024" 
d="M508 1612q-170 0 -221 123q-17 40 -23 153h105q8 -88 40 -124q33 -36 105 -36t102 36q30 34 41 124h105q-6 -121 -31 -170q-53 -106 -223 -106z" />
    <glyph glyph-name="Tilde" horiz-adv-x="1024" 
d="M406 1878q70 0 129 -66t90 -65q47 0 67 115h96q-16 -96 -36 -142q-39 -86 -121 -86t-144 68q-53 63 -81 63q-53 1 -76 -114h-97q27 127 65 177t108 50z" />
    <glyph glyph-name="Cedilla" horiz-adv-x="1024" 
d="M395 -451l90 308h156l-139 -308h-107z" />
    <glyph glyph-name="Ogonek" horiz-adv-x="1024" 
d="M545 -217q0 -80 92 -80q45 0 100 18l17 -90q-70 -27 -150 -26q-199 0 -198 151q0 144 178 244h131q-94 -66 -132 -115t-38 -102z" />
    <glyph glyph-name="Commaaccent" horiz-adv-x="1024" 
d="M395 -451l90 308h156l-139 -308h-107z" />
    <glyph glyph-name="Comma.high" horiz-adv-x="210" 
d="M2 1016l47 461h154l-94 -461h-107z" />
    <glyph glyph-name="Croatumlaut" horiz-adv-x="1024" 
d="M459 1618h-109l-164 289h166zM700 1618h-108l-164 289h168z" />
    <glyph glyph-name="Croatbreve" horiz-adv-x="1024" 
d="M512 1788q-72 0 -104 -35t-39 -125h-105q6 121 31 170q53 106 223 106t221 -122q19 -50 23 -154h-105q-8 88 -40 124q-33 36 -105 36z" />
    <glyph glyph-name="Cicumflexacute" horiz-adv-x="1024" 
d="M702 1733l132 288h172l-199 -288h-105zM510 1794l-113 -166h-157l221 270h100l221 -270h-157z" />
    <glyph glyph-name="Ringacute" horiz-adv-x="1024" 
d="M436 1835l101 240h192l-192 -240h-101zM608 1589q0 123 -97 123t-97 -123t97 -123t97 123zM511 1794q91 0 146 -56t55 -148t-56 -148q-56 -58 -146 -58t-145 58t-56 149t55 147t147 56z" />
    <glyph glyph-name="croatumlaut" horiz-adv-x="1024" 
d="M459 1192h-109l-164 289h166zM700 1192h-108l-164 289h168z" />
    <glyph glyph-name="croatbreve" horiz-adv-x="1024" 
d="M512 1362q-72 0 -104 -35t-39 -125h-105q6 121 31 170q53 106 223 106t221 -122q19 -50 23 -154h-105q-8 88 -40 124q-33 36 -105 36z" />
    <glyph glyph-name="cicumflexacute" horiz-adv-x="1024" 
d="M702 1305l132 288h172l-199 -288h-105zM510 1366l-113 -166h-157l221 270h100l221 -270h-157z" />
    <glyph glyph-name="ringacute" horiz-adv-x="1024" 
d="M436 1626l101 240h192l-192 -240h-101zM608 1380q0 123 -97 123t-97 -123t97 -123t97 123zM511 1585q91 0 146 -56q55 -55 55 -147t-54 -149q-56 -57 -146 -57t-146 57t-57 149t55 148t147 55z" />
    <glyph glyph-name="Ohorn.sc" horiz-adv-x="1034" 
d="M692 395v303q0 150 -48 218t-154 69q-106 0 -155 -69q-48 -69 -48 -218v-303q0 -149 48 -217t154 -68t155 68q48 67 48 217zM1061 1028q0 -90 -50 -161t-163 -140v-344q0 -207 -86 -304t-272 -97t-273 97q-86 97 -86 304v330q0 207 87 304t271 97q307 0 351 -278
q96 82 96 180q0 45 -23 96h136q12 -41 12 -84z" />
    <glyph glyph-name="Uhorn.sc" horiz-adv-x="1097" 
d="M156 1094h155v-740q0 -117 31 -168q49 -76 167 -76t163 89q25 43 24 155v740h156v-308q94 54 131 104t37 110t-23 112h138q10 -43 10 -84q0 -139 -137 -250q-39 -31 -156 -100v-324q0 -104 -13 -159t-48 -101q-90 -112 -295 -112t-291 129q-49 74 -49 243v740z" />
    <glyph glyph-name="uni1EA0.sc" horiz-adv-x="827" 
d="M338 -395v209h149v-209h-149zM582 356l-166 555l-168 -555h334zM614 233h-397l-67 -233h-170l362 1094h147l363 -1094h-170z" />
    <glyph glyph-name="uni1EA2.sc" horiz-adv-x="827" 
d="M473 1235h-113q0 59 7 83q5 24 37 70t32 72q0 49 -63 49q-41 0 -97 -26l-30 96q80 29 149 29q170 0 170 -140q0 -34 -11 -56t-40 -61t-35 -56t-6 -60zM582 356l-166 555l-168 -555h334zM614 233h-397l-67 -233h-170l362 1094h147l363 -1094h-170z" />
    <glyph glyph-name="uni1EA4.sc" horiz-adv-x="827" 
d="M414 1309l-119 -117h-152l224 215h94l223 -215h-152zM346 1462l103 232h141l-154 -232h-90zM582 356l-166 555l-168 -555h334zM614 233h-397l-67 -233h-170l362 1094h147l363 -1094h-170z" />
    <glyph glyph-name="uni1EA6.sc" horiz-adv-x="827" 
d="M414 1309l-119 -117h-152l224 215h96l221 -215h-152zM479 1462h-90l-153 232h141zM582 356l-166 555l-168 -555h334zM614 233h-397l-67 -233h-170l362 1094h147l363 -1094h-170z" />
    <glyph glyph-name="uni1EA8.sc" horiz-adv-x="827" 
d="M410 1307l-119 -115h-152l223 207h95l223 -207h-152zM463 1432h-98v12q3 49 31 90t28 61q0 29 -42 29t-81 -18l-25 75q59 23 123 23t100 -28t36 -71t-46 -98q-26 -34 -26 -75zM582 356l-166 555l-168 -555h334zM614 233h-397l-67 -233h-170l362 1094h147l363 -1094h-170z
" />
    <glyph glyph-name="uni1EAA.sc" horiz-adv-x="827" 
d="M422 1309l-119 -117h-151l223 215h94l223 -215h-151zM334 1675q59 0 108 -56t74 -56q39 0 57 102h84q-18 -111 -50 -155t-92 -44t-108 56t-73 55q-45 0 -70 -98h-86q25 106 61 151t95 45zM582 356l-166 555l-168 -555h334zM614 233h-397l-67 -233h-170l362 1094h147
l363 -1094h-170z" />
    <glyph glyph-name="uni1EAC.sc" horiz-adv-x="827" 
d="M338 -395v209h149v-209h-149zM414 1425l-115 -165h-156l219 268h103l221 -268h-158zM582 356l-166 555l-168 -555h334zM614 233h-397l-67 -233h-170l362 1094h147l363 -1094h-170z" />
    <glyph glyph-name="uni1EAE.sc" horiz-adv-x="827" 
d="M415 1298q75 0 107 31t41 109h99q-6 -111 -31 -156q-55 -96 -222 -96t-219 112q-18 42 -24 140h98q10 -78 43 -109t108 -31zM346 1462l103 232h141l-154 -232h-90zM582 356l-166 555l-168 -555h334zM614 233h-397l-67 -233h-170l362 1094h147l363 -1094h-170z" />
    <glyph glyph-name="uni1EB0.sc" horiz-adv-x="827" 
d="M415 1298q75 0 107 31t41 109h99q-6 -111 -31 -156q-55 -96 -222 -96t-219 112q-18 42 -24 140h98q10 -78 43 -109t108 -31zM489 1462h-90l-153 232h141zM582 356l-166 555l-168 -555h334zM614 233h-397l-67 -233h-170l362 1094h147l363 -1094h-170z" />
    <glyph glyph-name="uni1EB2.sc" horiz-adv-x="827" 
d="M414 1296q76 0 108 32t43 110h97q-6 -111 -31 -156q-55 -96 -222 -96t-219 112q-18 42 -24 140h96q10 -78 43 -110t109 -32zM461 1413h-99q2 66 31 109t29 65q0 39 -49 39q-27 0 -74 -20l-25 75q59 25 122 25t100 -31t36 -86q0 -21 -7 -35t-35 -52t-29 -89zM582 356
l-166 555l-168 -555h334zM614 233h-397l-67 -233h-170l362 1094h147l363 -1094h-170z" />
    <glyph glyph-name="uni1EB4.sc" horiz-adv-x="827" 
d="M410 1290q74 0 106 30t41 105h94q-4 -104 -30 -147q-55 -92 -199 -92t-197 52t-59 187h94q8 -75 42 -105t108 -30zM324 1692q60 0 110 -54q51 -54 72 -55q41 0 59 98h84q-20 -111 -51 -153t-92 -43q-60 0 -108 55t-70 55q-49 0 -72 -100h-86q25 109 59 153q35 44 95 44z
M582 356l-166 555l-168 -555h334zM614 233h-397l-67 -233h-170l362 1094h147l363 -1094h-170z" />
    <glyph glyph-name="uni1EB6.sc" horiz-adv-x="827" 
d="M338 -395v209h149v-209h-149zM415 1358q73 0 103 35t41 125h103q-4 -121 -29 -170q-55 -106 -226 -106t-219 122q-16 41 -22 154h104q8 -88 40 -124t105 -36zM582 356l-166 555l-168 -555h334zM614 233h-397l-67 -233h-170l362 1094h147l363 -1094h-170z" />
    </font>
</defs>
</svg>
