<?xml version="1.0" standalone="no"?>
<!DOCTYPE svg PUBLIC "-//W3C//DTD SVG 1.1//EN" "http://www.w3.org/Graphics/SVG/1.1/DTD/svg11.dtd" >
<svg xmlns="http://www.w3.org/2000/svg">
<metadata></metadata>
<defs>
<font id="muriza_basicmedium" horiz-adv-x="1040" >
<font-face units-per-em="2048" ascent="1589" descent="-459" />
<missing-glyph horiz-adv-x="528" />
<glyph horiz-adv-x="0" />
<glyph horiz-adv-x="682" />
<glyph unicode=" "  horiz-adv-x="528" />
<glyph unicode="&#x09;" horiz-adv-x="528" />
<glyph unicode="&#xa0;" horiz-adv-x="528" />
<glyph unicode="!" horiz-adv-x="544" d="M143 106q0 54 37 90.5t92 36.5t92 -36.5t37 -90.5q0 -56 -36.5 -92.5t-92.5 -36.5t-92.5 36.5t-36.5 92.5zM166 1352h213l-25 -957h-164z" />
<glyph unicode="&#x22;" horiz-adv-x="917" d="M164 1352h194l-24 -480h-144zM557 1352h195l-27 -480h-143z" />
<glyph unicode="#" horiz-adv-x="1095" d="M47 358v134h191l45 294h-207v136h227l47 321h158l-49 -321h264l49 321h158l-49 -321h168v-136h-187l-45 -294h203v-134h-223l-54 -358h-157l53 358h-264l-53 -358h-158l53 358h-170zM395 492h264l43 294h-264z" />
<glyph unicode="$" d="M127 102v293h160v-209q101 -24 198 -24q115 0 178.5 40.5t63.5 139.5q0 43 -11.5 73.5t-40 53.5t-57.5 38.5t-83 37.5l-113 47q-61 25 -105.5 51t-86 64.5t-63.5 92t-22 120.5q0 133 81.5 211.5t215.5 101.5v270h162v-262q160 -12 270 -72v-290h-159v204q-76 13 -148 13 q-115 0 -175 -36.5t-60 -125.5q0 -70 40 -107.5t146 -81.5l107 -45q56 -24 92.5 -42.5t77 -48t64 -61.5t39 -79t15.5 -104q0 -142 -83 -227t-226 -109v-269h-162v260q-173 11 -315 82z" />
<glyph unicode="%" horiz-adv-x="1716" d="M61 944q0 210 82 316t222 106q142 0 223.5 -105.5t81.5 -316.5q0 -210 -81.5 -314t-223.5 -104q-140 0 -222 104.5t-82 313.5zM227 944q0 -169 36 -235t104 -66q44 0 73 24t47.5 92.5t18.5 184.5q0 117 -18.5 186.5t-47.5 94t-73 24.5q-68 0 -104 -67.5t-36 -237.5z M537 -2l249 676l228 676h164l-248 -676l-230 -676h-163zM1044 403q0 210 82 316t222 106q142 0 223.5 -105.5t81.5 -316.5q0 -210 -81.5 -313.5t-223.5 -103.5q-140 0 -222 104t-82 313zM1210 403q0 -169 36 -235t104 -66q44 0 73 24t47.5 92.5t18.5 184.5 q0 117 -18.5 186.5t-47.5 94.5t-73 25t-73.5 -25t-48 -95t-18.5 -186z" />
<glyph unicode="&#x26;" horiz-adv-x="1232" d="M55 334q0 64 17 115.5t56 98.5t81 83t113 88q-77 94 -115.5 176t-38.5 176q0 148 91 225.5t239 77.5q147 0 232 -74t85 -202q0 -76 -33 -144t-83 -120t-134 -119l281 -318q53 142 53 316h291v-135h-135q-25 -177 -97 -310l64 -71q34 -38 60.5 -52t58.5 -14q9 0 26 1t23 1 v-133q-47 -14 -98 -14q-68 0 -123.5 27t-110.5 91l-14 15q-152 -142 -373 -142q-117 0 -209 37.5t-149.5 119.5t-57.5 200zM246 348q0 -108 67 -169.5t179 -61.5q148 0 253 114l-325 373q-97 -74 -135.5 -127t-38.5 -129zM356 1081q0 -116 113 -256q93 70 136.5 129 t43.5 138q0 71 -36.5 107t-102.5 36q-72 0 -113 -41.5t-41 -112.5z" />
<glyph unicode="'" horiz-adv-x="526" d="M164 1352h194l-24 -480h-144z" />
<glyph unicode="(" horiz-adv-x="573" d="M117 567q0 170 29 327.5t78.5 279.5t107 214.5t121.5 157.5l102 -69q-111 -151 -184.5 -393t-73.5 -517q0 -276 73 -517t185 -392l-102 -72q-64 65 -121.5 157.5t-107 214.5t-78.5 280t-29 329z" />
<glyph unicode=")" horiz-adv-x="573" d="M18 -342q112 151 185 392t73 517q0 275 -73.5 517t-184.5 393l103 69q65 -65 122.5 -157.5t107.5 -214.5t79 -279.5t29 -327.5q0 -171 -29 -329t-79 -280t-107.5 -214.5t-122.5 -157.5z" />
<glyph unicode="*" horiz-adv-x="845" d="M53 1051v139l262 -10l-137 225l121 70l125 -234l123 234l123 -70l-140 -225l263 10v-139l-263 8l140 -228l-123 -67l-123 231l-125 -231l-121 67l137 228z" />
<glyph unicode="+" d="M92 520v146h350v350h162v-350h342v-146h-342v-358h-162v358h-350z" />
<glyph unicode="," horiz-adv-x="460" d="M23 -248q93 40 156.5 102t74.5 140q-20 -4 -33 -4q-51 0 -86 35.5t-35 87.5q0 53 36.5 86.5t88.5 33.5q66 0 116 -54t50 -152q0 -133 -92.5 -230t-237.5 -139z" />
<glyph unicode="-" horiz-adv-x="526" d="M66 430v145h395v-145h-395z" />
<glyph unicode="." horiz-adv-x="452" d="M96 106q0 56 37 93t94 37q55 0 92 -37t37 -93t-37 -92.5t-92 -36.5q-57 0 -94 36.5t-37 92.5z" />
<glyph unicode="/" horiz-adv-x="868" d="M45 -74l606 1499h174l-606 -1499h-174z" />
<glyph unicode="0" horiz-adv-x="1067" d="M90 674q0 347 118 523.5t324 176.5q207 0 326 -176.5t119 -523.5q0 -345 -119 -521t-326 -176q-206 0 -324 176t-118 521zM297 674q0 -154 16.5 -262t49 -169.5t74.5 -88.5t98 -27q76 0 126 48t79.5 171.5t29.5 327.5q0 206 -29.5 330.5t-79.5 172.5t-126 48 q-56 0 -98 -27t-74.5 -89t-49 -171t-16.5 -264z" />
<glyph unicode="1" horiz-adv-x="856" d="M72 1124v133l354 95h137v-1211h238v-141h-705v141h264v1018z" />
<glyph unicode="2" horiz-adv-x="952" d="M49 0v121l418 508q89 109 128.5 184.5t39.5 169.5q0 125 -64.5 183.5t-179.5 58.5q-52 0 -141 -19v-248h-176v320q56 40 150 68t194 28q187 0 305.5 -101t118.5 -292q0 -68 -15.5 -126.5t-53 -118.5t-70.5 -101.5t-97 -114.5l-313 -368h399v159h178v-311h-821z" />
<glyph unicode="3" horiz-adv-x="962" d="M63 158l72 104q126 -112 285 -112q118 0 187 59t69 170q0 108 -64.5 175t-185.5 67h-104v141h65q122 0 183 61t61 176q0 226 -230 226q-63 0 -125 -19v-243h-174v319q58 41 145 66.5t185 25.5q84 0 155 -20.5t128.5 -62t90 -113t32.5 -166.5q0 -230 -189 -312 q236 -71 236 -331q0 -99 -36 -176t-97.5 -123t-137.5 -69.5t-161 -23.5q-124 0 -226 47.5t-164 133.5z" />
<glyph unicode="4" horiz-adv-x="1062" d="M31 303v105l516 944h166h100v-910h186v-139h-186v-166h139v-137h-514v137h185v166h-592zM223 442h406v645q0 76 2 109q-9 -20 -27 -55t-24 -47z" />
<glyph unicode="5" horiz-adv-x="972" d="M86 158l74 104q122 -112 276 -112q118 0 190 71t72 201q0 121 -64 188.5t-165 67.5q-125 0 -188 -105h-121v779h667v-170h-510v-422q87 74 215 74q159 0 266 -110t107 -308q0 -111 -36.5 -197.5t-98.5 -138t-138.5 -77.5t-162.5 -26q-118 0 -219 47.5t-164 133.5z" />
<glyph unicode="6" horiz-adv-x="1026" d="M90 645q0 358 137.5 543.5t366.5 185.5q95 0 175 -32t130 -93l-70 -102q-94 61 -208 61q-73 0 -131.5 -27.5t-104.5 -87t-71 -163.5t-25 -246v-8q42 69 117 109t172 40q162 0 268 -109t106 -306q0 -205 -117 -319t-294 -114q-204 0 -318 146q-133 172 -133 522zM315 410 q0 -131 62 -205t160 -74q91 0 149.5 68t58.5 202t-60 202.5t-157 68.5q-94 0 -153.5 -67t-59.5 -195z" />
<glyph unicode="7" horiz-adv-x="923" d="M43 952v400h844v-117l-492 -1235h-215l498 1182h-457v-230h-178z" />
<glyph unicode="8" horiz-adv-x="1019" d="M78 365q0 123 57 210.5t160 129.5q-89 40 -139 117t-50 190q0 117 55.5 200.5t145.5 122.5t203 39t202.5 -39t145 -122.5t55.5 -200.5q0 -222 -188 -307q103 -44 160 -131t57 -209q0 -101 -38 -178.5t-101 -121.5t-137.5 -66t-155.5 -22t-155.5 22t-137.5 66t-101 121.5 t-38 178.5zM285 375q0 -120 62.5 -185t164.5 -65q99 0 161 65.5t62 184.5q0 118 -60.5 188t-162.5 70q-103 0 -165 -70t-62 -188zM305 1001q0 -106 56.5 -168.5t148.5 -62.5q90 0 146.5 62.5t56.5 168.5q0 105 -53.5 165.5t-149.5 60.5q-95 0 -150 -61t-55 -165z" />
<glyph unicode="9" horiz-adv-x="1026" d="M74 942q0 206 116.5 319t296.5 113q199 0 318 -145q131 -174 131 -522q0 -358 -137.5 -544t-366.5 -186q-95 0 -175 32t-130 91l70 103q97 -60 209 -60q154 0 242.5 123.5t88.5 399.5v10q-41 -69 -115.5 -109.5t-170.5 -40.5q-164 0 -270.5 109.5t-106.5 306.5zM279 950 q0 -133 60.5 -201.5t156.5 -68.5q95 0 155 66.5t60 193.5q0 133 -62 207t-160 74q-91 0 -150.5 -68.5t-59.5 -202.5z" />
<glyph unicode=":" horiz-adv-x="460" d="M102 104q0 54 36.5 89.5t90.5 35.5q55 0 91 -35.5t36 -89.5t-36 -90.5t-91 -36.5q-54 0 -90.5 36.5t-36.5 90.5zM102 838q0 54 36.5 90.5t90.5 36.5q55 0 91 -36.5t36 -90.5t-36 -90.5t-91 -36.5q-54 0 -90.5 36.5t-36.5 90.5z" />
<glyph unicode=";" horiz-adv-x="460" d="M23 -248q92 40 155 101.5t76 140.5q-20 -4 -31 -4q-51 0 -87 35.5t-36 87.5q0 53 36.5 86.5t88.5 33.5q66 0 116 -54t50 -152q0 -133 -92.5 -230t-237.5 -139zM102 838q0 54 36.5 90.5t90.5 36.5q55 0 91 -36.5t36 -90.5t-36 -90.5t-91 -36.5q-54 0 -90.5 36.5 t-36.5 90.5z" />
<glyph unicode="&#x3c;" d="M98 539v106l822 338v-156l-580 -235l580 -236v-157z" />
<glyph unicode="=" d="M111 324v141h817v-141h-817zM111 721v143h817v-143h-817z" />
<glyph unicode="&#x3e;" d="M121 199v157l579 236l-579 235v156l821 -338v-106z" />
<glyph unicode="?" horiz-adv-x="860" d="M49 944v338q150 92 350 92q184 0 294 -85t110 -251q0 -77 -26.5 -140t-66.5 -107.5t-114 -108.5q-58 -51 -83.5 -79t-42.5 -69t-17 -96v-43h-164q-4 46 -4 74q0 49 9 87t32.5 74.5t44.5 60.5t65 69q87 90 117.5 139.5t30.5 126.5q0 105 -57.5 152t-166.5 47 q-62 0 -139 -17v-264h-172zM248 106q0 54 36 90.5t91 36.5q57 0 93 -36.5t36 -90.5q0 -56 -36 -92.5t-93 -36.5q-55 0 -91 36.5t-36 92.5z" />
<glyph unicode="@" horiz-adv-x="1652" d="M90 457q0 175 61 324.5t165.5 251t246 159t301.5 57.5q156 0 289.5 -53.5t226.5 -147t146 -225t53 -284.5q0 -220 -99.5 -358t-267.5 -138q-92 0 -150 41.5t-69 103.5q-18 -73 -82.5 -109t-146.5 -36q-112 0 -175 70t-63 168q0 103 75 164t206 61h158v78q0 149 -156 149 q-108 0 -197 -61l-61 98q98 115 289 115q142 0 216 -76t74 -209v-326q0 -49 29 -75.5t80 -26.5q97 0 154 97t57 255q0 272 -158.5 440.5t-423.5 168.5q-136 0 -255 -47.5t-205.5 -134t-136.5 -214.5t-50 -282q0 -195 79.5 -344t215.5 -227.5t307 -78.5q59 0 156 13v-109 q-70 -22 -164 -22q-150 0 -283 56t-230.5 155t-154.5 244t-57 315zM702 287q0 -41 25.5 -73t79.5 -32q65 0 111.5 42.5t46.5 115.5v55h-125q-64 0 -101 -28t-37 -80z" />
<glyph unicode="A" horiz-adv-x="1232" d="M14 0v141h115l358 1211h256l363 -1211h115v-141h-469v141h151l-80 277h-444l-80 -277h141v-141h-426zM420 559h360l-141 471q-28 99 -39 141q-12 -54 -37 -141z" />
<glyph unicode="B" horiz-adv-x="1134" d="M88 0v141h139v1069h-139v142h496q129 0 225.5 -35.5t155.5 -116.5t59 -201q0 -220 -209 -297q254 -66 254 -331q0 -97 -33 -169t-93.5 -116t-140.5 -65t-181 -21h-533zM424 141h192q126 0 189 63t63 173q0 113 -62.5 180.5t-180.5 67.5h-201v-484zM424 766h154 q120 0 181.5 60.5t61.5 166.5q0 101 -60.5 159t-189.5 58h-147v-444z" />
<glyph unicode="C" horiz-adv-x="1056" d="M90 686q0 175 40.5 309t113 215.5t168.5 122.5t213 41q188 0 321 -92v-354h-180v282q-66 15 -115 15q-85 0 -148.5 -27t-111 -87.5t-72 -163t-24.5 -247.5q0 -150 27 -259t77.5 -171.5t113.5 -91t142 -28.5q80 0 141.5 27t123.5 81l71 -108q-129 -173 -364 -173 q-245 0 -391 183.5t-146 525.5z" />
<glyph unicode="D" horiz-adv-x="1218" d="M88 0v141h139v1069h-139v142h490q255 0 402.5 -175.5t147.5 -500.5q0 -324 -147.5 -500t-402.5 -176h-490zM430 141h137q79 0 142 29t111 90.5t74 166t26 247.5q0 144 -26 249.5t-74 167t-110.5 90.5t-142.5 29h-137v-1069z" />
<glyph unicode="E" horiz-adv-x="1087" d="M88 0v141h139v1069h-139v142h901v-332h-176v190h-385v-444h330v-141h-330v-484h401v199h177v-340h-918z" />
<glyph unicode="F" horiz-adv-x="1044" d="M88 0v141h139v1069h-139v142h889v-332h-178v190h-371v-467h313v-141h-313v-461h174v-141h-514z" />
<glyph unicode="G" horiz-adv-x="1169" d="M90 686q0 176 39.5 309t112.5 215t171 123t220 41q101 0 191.5 -25.5t150.5 -66.5v-344h-180v270q-73 17 -140 17q-86 0 -150 -26.5t-112.5 -86.5t-73 -165t-24.5 -255q0 -567 369 -567q66 0 141 20v342h-176v140h467v-140h-103v-397q-68 -52 -160.5 -82.5t-195.5 -30.5 q-255 0 -401 182.5t-146 526.5z" />
<glyph unicode="H" horiz-adv-x="1366" d="M88 0v141h139v1069h-139v142h473v-142h-133v-444h510v444h-131v142h473v-142h-141v-1069h141v-141h-473v141h131v486h-510v-486h133v-141h-473z" />
<glyph unicode="I" horiz-adv-x="655" d="M88 0v141h139v1069h-139v142h481v-142h-141v-1069h141v-141h-481z" />
<glyph unicode="J" horiz-adv-x="663" d="M-43 -236q55 0 101 13t88 42.5t66 87t24 138.5v1165h-191v142h530v-142h-137v-1163q0 -115 -36.5 -200t-103 -135t-151 -74t-190.5 -25v151z" />
<glyph unicode="K" horiz-adv-x="1277" d="M88 0v141h139v1069h-139v142h467v-142h-127v-505l467 505h-156v142h494v-142h-119l-461 -491l480 -580h120v-139h-501v139h125l-449 545v-543h127v-141h-467z" />
<glyph unicode="L" horiz-adv-x="1030" d="M88 0v141h139v1069h-139v142h514v-142h-174v-1069h381v199h180v-340h-901z" />
<glyph unicode="M" horiz-adv-x="1705" d="M92 0v141h141v1069h-141v142h387h62l256 -910q42 -168 57 -243q23 114 53 239l256 914h123h328v-142h-139v-1069h139v-141h-455v141h121v1065l-31 -123l-305 -1083h-211l-307 1083q-6 21 -15.5 58.5t-13.5 52.5v-1053h119v-141h-424z" />
<glyph unicode="N" horiz-adv-x="1382" d="M92 0v141h141v1069h-141v142h416l391 -871q52 -131 94 -258v987h-135v142h436v-142h-137v-1210h-250l-422 926q-48 121 -88 245v-1030h131v-141h-436z" />
<glyph unicode="O" horiz-adv-x="1165" d="M90 674q0 346 133 523t361 177t360.5 -177t132.5 -523q0 -344 -132.5 -520.5t-360.5 -176.5t-361 176.5t-133 520.5zM297 676q0 -151 20.5 -259t60 -170.5t90.5 -91t118 -28.5q65 0 115 28.5t88.5 91t58.5 170.5t20 259t-20 259t-58.5 170.5t-88.5 91t-115 28.5 q-67 0 -118 -28.5t-90.5 -91t-60 -170.5t-20.5 -259z" />
<glyph unicode="P" horiz-adv-x="1122" d="M88 0v141h139v1069h-139v142h516q214 0 338.5 -96.5t124.5 -294.5q0 -199 -125.5 -301.5t-337.5 -102.5h-176v-416h174v-141h-514zM428 700h168q133 0 197.5 68.5t64.5 189.5q0 252 -262 252h-168v-510z" />
<glyph unicode="Q" horiz-adv-x="1165" d="M90 674q0 346 133 523t361 177t360.5 -177t132.5 -523q0 -280 -89 -449t-249 -223q196 -172 353 -172q34 0 69 6v-137q-43 -12 -98 -12q-236 0 -516 293q-213 14 -335 189t-122 505zM297 676q0 -151 20.5 -259t60 -170.5t90.5 -91t118 -28.5q65 0 115 28.5t88.5 91 t58.5 170.5t20 259t-20 259t-58.5 170.5t-88.5 91t-115 28.5q-67 0 -118 -28.5t-90.5 -91t-60 -170.5t-20.5 -259z" />
<glyph unicode="R" horiz-adv-x="1189" d="M88 0v141h139v1069h-139v142h533q208 0 330 -94t122 -283q0 -144 -68.5 -235.5t-193.5 -129.5l217 -391q26 -44 51.5 -61t63.5 -17h43v-141q-47 -14 -103 -14q-88 0 -143.5 38.5t-101.5 131.5l-232 428h-178v-443h129v-141h-469zM428 725h195q124 0 184.5 66.5 t60.5 181.5q0 112 -63 174.5t-195 62.5h-182v-485z" />
<glyph unicode="S" horiz-adv-x="1009" d="M84 70v344h180v-256q103 -29 201 -29q118 0 190 51.5t72 163.5q0 90 -48.5 138t-152.5 89l-125 58q-295 115 -295 372q0 122 60.5 208.5t155.5 125.5t213 39q188 0 348 -82v-344h-181v258q-96 17 -151 17q-113 0 -179.5 -48.5t-66.5 -152.5q0 -80 45 -127.5t148 -91.5 l116 -51q74 -30 126 -61t96.5 -75.5t67 -105t22.5 -137.5q0 -194 -124.5 -295t-326.5 -101q-209 0 -391 93z" />
<glyph unicode="T" horiz-adv-x="1128" d="M35 1010v342h1057v-344h-174v202h-252v-1069h182v-141h-563v141h180v1069h-254v-200h-176z" />
<glyph unicode="U" horiz-adv-x="1296" d="M74 1210v142h471v-142h-133v-825q0 -129 76 -193.5t188 -64.5q110 0 179 63t69 195v825h-131v142h432v-142h-138v-815q0 -198 -115 -308t-310 -110q-198 0 -324.5 111t-126.5 307v815h-137z" />
<glyph unicode="V" horiz-adv-x="1216" d="M14 1210v142h473v-142h-153l266 -923q8 -36 25 -101q1 11 24 103l264 921h-145v142h434v-142h-117l-356 -1210h-242l-358 1210h-115z" />
<glyph unicode="W" horiz-adv-x="1861" d="M39 1210v142h469v-142h-154l207 -905q6 -32 19 -115q5 43 18 115l229 1047h230l223 -1043q2 -13 8.5 -54t11.5 -62q4 36 21 114l205 903h-152v142h449v-142h-125l-283 -1210h-252l-200 905l-35 203q-28 -154 -37 -199l-199 -909h-254l-286 1210h-113z" />
<glyph unicode="X" horiz-adv-x="1277" d="M35 0v141h127l350 555l-330 514h-129v142h510v-142h-153l252 -389l239 389h-151v142h469v-142h-132l-325 -526l350 -543h131v-141h-510v141h150l-271 422l-262 -422h154v-141h-469z" />
<glyph unicode="Y" horiz-adv-x="1220" d="M14 1210v142h488v-142h-148l213 -403q26 -48 62 -133q18 50 61 133l213 403h-145v142h448v-142h-121l-368 -684v-385h180v-141h-563v141h182v381l-381 688h-121z" />
<glyph unicode="Z" horiz-adv-x="1011" d="M49 0v115l643 1095h-422v-184h-176v326h830v-111l-648 -1100h492v199h178v-340h-897z" />
<glyph unicode="[" horiz-adv-x="571" d="M180 -369v1874h340v-125h-182v-1624h182v-125h-340z" />
<glyph unicode="\" horiz-adv-x="868" d="M45 1425h174l606 -1499h-174z" />
<glyph unicode="]" horiz-adv-x="571" d="M49 -244h180v1624h-180v125h342v-1874h-342v125z" />
<glyph unicode="^" horiz-adv-x="925" d="M49 758l363 616h104l358 -616h-174l-239 381l-236 -381h-176z" />
<glyph unicode="_" horiz-adv-x="931" d="M66 -147h800v-134h-800v134z" />
<glyph unicode="`" horiz-adv-x="485" d="M55 1407q0 11 10.5 21t24.5 10h164l176 -363h-135l-219 291q-21 24 -21 41z" />
<glyph unicode="a" horiz-adv-x="919" d="M63 250q0 125 86.5 195.5t237.5 70.5h184v98q0 189 -186 189q-112 0 -225 -76l-66 98q55 67 141.5 103.5t186.5 36.5q159 0 244.5 -87t85.5 -249v-428q0 -70 65 -70q24 0 60 4v-135q-61 -14 -113 -14q-83 0 -126 44t-48 122q-21 -86 -90.5 -130.5t-163.5 -44.5 q-129 0 -201 79t-72 194zM248 262q0 -58 33 -97.5t100 -39.5q81 0 135.5 55t54.5 146v73h-153q-80 0 -125 -35.5t-45 -101.5z" />
<glyph unicode="b" horiz-adv-x="1019" d="M61 0v133h123v1159h-123v133h312v-630q24 79 87 124.5t156 45.5q149 0 237.5 -122t88.5 -372t-89.5 -372t-244.5 -122q-100 0 -169 51t-93 148v-176h-285zM373 469q0 -342 188 -342q191 0 191 342t-191 342q-188 0 -188 -342z" />
<glyph unicode="c" horiz-adv-x="845" d="M74 477q0 123 31 218t87 153t129.5 87.5t161.5 29.5q153 0 265 -70v-281h-164v203q-35 6 -74 6q-118 0 -182 -75.5t-64 -253.5q0 -185 70 -270t186 -85q99 0 201 74l63 -98q-104 -138 -301 -138q-184 0 -296.5 129.5t-112.5 370.5z" />
<glyph unicode="d" horiz-adv-x="999" d="M78 471q0 250 87 372t236 122q94 0 157 -45.5t87 -124.5v497h-123v133h309v-1224q0 -70 68 -70q25 0 57 4v-135q-58 -14 -112 -14q-83 0 -127 44.5t-47 121.5v12q-24 -90 -93.5 -138.5t-166.5 -48.5q-155 0 -243.5 122t-88.5 372zM268 469q0 -342 189 -342q188 0 188 342 t-188 342q-189 0 -189 -342z" />
<glyph unicode="e" horiz-adv-x="878" d="M74 481q0 235 106.5 359.5t272.5 124.5q158 0 254 -113.5t96 -321.5q0 -52 -8 -110h-533q13 -148 79.5 -215.5t182.5 -67.5q106 0 203 72l64 -94q-107 -138 -299 -138q-186 0 -302 130.5t-116 373.5zM260 545h365q0 145 -47 212.5t-127 67.5q-174 0 -191 -280z" />
<glyph unicode="f" horiz-adv-x="608" d="M61 0v133h123v674h-123v135h123v205q0 142 76.5 221.5t224.5 79.5q93 0 164 -23v-133q-80 13 -110 13q-80 0 -123 -41.5t-43 -137.5v-184h194v-135h-194v-674h176v-133h-488z" />
<glyph unicode="g" horiz-adv-x="933" d="M49 -147q0 111 123 178q-57 50 -57 127q0 63 34.5 107t83.5 63q-129 94 -129 286q0 168 98 259.5t251 91.5q68 0 135 -23h49q55 0 76.5 23t21.5 75q0 41 -2 47h139q13 -44 13 -79q0 -75 -46.5 -119t-123.5 -47q82 -88 82 -228q0 -168 -98.5 -257t-247.5 -89h-99 q-69 0 -69 -61q0 -28 17 -45t52 -17h236q145 0 228 -60.5t83 -178.5q0 -140 -117 -215.5t-329 -75.5q-193 0 -298.5 62.5t-105.5 175.5zM213 -117q0 -141 258 -141q246 0 246 133q0 47 -33.5 76t-108.5 29h-260q-31 0 -55 6q-47 -41 -47 -103zM287 614q0 -221 166 -221 q163 0 163 221q0 226 -163 226q-79 0 -122.5 -57t-43.5 -169z" />
<glyph unicode="h" horiz-adv-x="1060" d="M61 0v133h123v1159h-123v133h312v-624q23 78 88.5 121t156.5 43q129 0 205 -85.5t76 -228.5v-518h121v-133h-410v133h103v492q0 92 -43.5 137t-114.5 45q-78 0 -130 -54t-52 -139v-481h100v-133h-412z" />
<glyph unicode="i" horiz-adv-x="536" d="M61 0v133h123v674h-123v135h312v-809h121v-133h-433zM129 1255q0 54 35 89.5t90 35.5q53 0 89 -35.5t36 -89.5q0 -53 -36 -87.5t-89 -34.5q-55 0 -90 34t-35 88z" />
<glyph unicode="j" horiz-adv-x="507" d="M-33 -231q53 -11 80 -11q127 0 127 148v901h-127v135h311v-1053q0 -133 -65.5 -203.5t-190.5 -70.5q-77 0 -135 18v136zM115 1255q0 54 35 89.5t90 35.5q54 0 90.5 -35.5t36.5 -89.5t-36 -88t-91 -34t-90 34t-35 88z" />
<glyph unicode="k" horiz-adv-x="1015" d="M61 0v133h123v1159h-123v133h310l2 -956l299 338h-117v135h412v-135h-109l-293 -315l264 -304q52 -57 115 -57q9 0 26.5 1t22.5 1v-133q-47 -14 -98 -14q-68 0 -121 25t-102 87l-299 355v-320h100v-133h-412z" />
<glyph unicode="l" horiz-adv-x="542" d="M35 1292v133h309v-1218q0 -42 19.5 -59t62.5 -17l61 2v-133q-52 -14 -118 -14q-105 0 -157 54t-52 153v1099h-125z" />
<glyph unicode="m" horiz-adv-x="1589" d="M61 0v133h123v674h-123v135h285v-160q27 89 99 136t167 47q97 0 164.5 -47t97.5 -132q31 88 103.5 133.5t165.5 45.5q131 0 205.5 -85t74.5 -229v-518h123v-133h-409v133h100v492q0 92 -42.5 137t-111.5 45q-80 0 -132 -53.5t-52 -139.5v-481h100v-133h-389v133h103v492 q0 92 -43.5 137t-114.5 45q-78 0 -130 -54t-52 -139v-481h100v-133h-412z" />
<glyph unicode="n" horiz-adv-x="1060" d="M61 0v133h123v674h-123v135h285v-160q27 89 99 136t167 47q133 0 210 -85.5t77 -228.5v-518h121v-133h-410v133h103v492q0 92 -43.5 137t-114.5 45q-78 0 -130 -54t-52 -139v-481h100v-133h-412z" />
<glyph unicode="o" horiz-adv-x="915" d="M74 471q0 126 30 222.5t83.5 155t122 87.5t149.5 29t149 -29t121 -87.5t83 -155t30 -222.5q0 -125 -30 -221.5t-83 -155t-121 -88t-149 -29.5q-169 0 -277 124.5t-108 369.5zM266 471q0 -191 49.5 -272.5t143.5 -81.5q92 0 142 81.5t50 272.5q0 190 -50 271t-142 81 q-94 0 -143.5 -81t-49.5 -271z" />
<glyph unicode="p" horiz-adv-x="999" d="M43 -231h123v1038h-123v135h285v-176q23 96 92 147.5t168 51.5q155 0 244.5 -123t89.5 -373q0 -249 -88.5 -370.5t-237.5 -121.5q-93 0 -156.5 45.5t-87.5 122.5v-376h142v-131h-451v131zM352 469q0 -342 189 -342q190 0 190 342t-190 342q-189 0 -189 -342z" />
<glyph unicode="q" horiz-adv-x="997" d="M78 469q0 251 89 373.5t243 122.5q99 0 168 -52t92 -147v176h284v-135h-123v-1038h123v-131h-450v131h141v376q-24 -77 -86.5 -122.5t-155.5 -45.5q-150 0 -237.5 121.5t-87.5 370.5zM268 469q0 -342 189 -342q190 0 190 342t-190 342q-189 0 -189 -342z" />
<glyph unicode="r" horiz-adv-x="724" d="M61 0v133h123v674h-123v135h285v-199q27 105 106.5 162.5t190.5 57.5q29 0 39 -5v-165h-33q-133 0 -204.5 -67.5t-71.5 -176.5v-416h188v-133h-500z" />
<glyph unicode="s" horiz-adv-x="827" d="M84 43v246h156v-156q92 -18 157 -18q181 0 181 131q0 25 -7 44.5t-16.5 32t-32.5 25.5t-40 20t-54 21l-84 29q-119 39 -180.5 103.5t-61.5 168.5q0 135 94 205t236 70q145 0 277 -68v-223h-156v143q-44 8 -102 8q-172 0 -172 -114q0 -51 32 -80t107 -53l82 -31 q125 -37 189.5 -104.5t64.5 -180.5q0 -142 -96 -213.5t-257 -71.5q-79 0 -165.5 18t-151.5 48z" />
<glyph unicode="t" horiz-adv-x="659" d="M43 807v135h125l16 268h170v-268h264v-135h-264v-543q0 -81 38.5 -111t115.5 -30q55 0 123 10v-133q-84 -23 -182 -23q-137 0 -210 70t-73 197v563h-123z" />
<glyph unicode="u" horiz-adv-x="1044" d="M43 807v135h311v-625q0 -93 42.5 -137.5t111.5 -44.5q79 0 131.5 53.5t52.5 137.5v481h-114v135h301v-741q0 -70 67 -70q26 0 58 4v-135q-61 -14 -115 -14q-81 0 -124 44t-48 122q-24 -85 -96.5 -130t-167.5 -45q-133 0 -210 85.5t-77 228.5v516h-123z" />
<glyph unicode="v" horiz-adv-x="972" d="M25 807v135h383v-135h-103l180 -574l23 -77q3 16 11.5 42t10.5 35l185 574h-103v135h336v-135h-88l-264 -807h-221l-264 807h-86z" />
<glyph unicode="w" horiz-adv-x="1517" d="M43 807v135h387v-135h-117l148 -574q6 -23 14 -63q2 6 8.5 28.5t8.5 34.5l198 709h187l194 -709l19 -67q2 12 6 34l6 33l147 574h-108v135h334v-135h-84l-215 -807h-211l-191 674l-12 55q-7 -32 -14 -55l-193 -674h-215l-215 807h-82z" />
<glyph unicode="x" horiz-adv-x="1054" d="M51 0v133h113l248 346l-238 328h-102v135h405v-135h-98l172 -238l166 238h-103v135h365v-135h-98l-236 -330l250 -344h104v-133h-407v133h96l-182 252l-178 -252h104v-133h-381z" />
<glyph unicode="y" horiz-adv-x="974" d="M25 807v135h387v-135h-107l182 -584q23 -70 27 -86q12 45 23 86l182 584h-105v135h336v-135h-86l-301 -940q-44 -136 -125 -194t-198 -58q-75 0 -125 14v133q62 -4 96 -4q74 0 125.5 28t81.5 103l-303 918h-90z" />
<glyph unicode="z" horiz-adv-x="851" d="M61 0v121l486 686h-301v-152h-156v287h674v-121l-483 -688h346v170h161v-303h-727z" />
<glyph unicode="{" horiz-adv-x="591" d="M16 520v113v22h45q70 0 104 32.5t34 117.5v416q0 147 73.5 217.5t200.5 70.5q28 0 68 -4v-125q-90 0 -135.5 -38t-45.5 -134v-426q0 -132 -104 -194q104 -65 104 -197v-463q0 -96 45.5 -134t135.5 -38v-125q-40 -4 -68 -4q-127 0 -200.5 71t-73.5 218v453q0 85 -34 118 t-104 33h-45z" />
<glyph unicode="|" horiz-adv-x="528" d="M182 -190v1691h162v-1691h-162z" />
<glyph unicode="}" horiz-adv-x="591" d="M49 -244q91 0 135.5 38t44.5 134v463q0 132 107 197q-107 61 -107 194v426q0 96 -44.5 134t-135.5 38v125q46 4 70 4q127 0 199.5 -70.5t72.5 -217.5v-416q0 -85 34 -117.5t105 -32.5h43v-114v-21h-43q-70 0 -104.5 -33t-34.5 -118v-453q0 -148 -73 -218.5t-201 -70.5 q-22 0 -68 4v125z" />
<glyph unicode="~" d="M88 506q18 105 76 169t153 64q77 0 193 -61l63 -31q88 -51 138 -51q44 0 73 29t50 88l118 -37q-18 -104 -76.5 -169t-152.5 -65q-34 0 -72 10.5t-61 21.5t-60 30l-63 33q-7 3 -32 15.5t-36.5 17.5t-31.5 10.5t-37 5.5q-84 0 -123 -119z" />
<glyph unicode="&#xa1;" horiz-adv-x="544" d="M143 836q0 56 36.5 92.5t92.5 36.5t92.5 -36.5t36.5 -92.5q0 -54 -37 -90.5t-92 -36.5t-92 36.5t-37 90.5zM166 -362l24 909h164l25 -909h-213z" />
<glyph unicode="&#xa2;" d="M156 625q0 207 85 325t230 146v268h156v-262q114 -11 200 -64v-278h-161v198q-58 5 -70 5q-124 0 -186 -72t-62 -248q0 -350 254 -350q107 0 201 69l63 -96q-86 -112 -239 -133v-264h-156v270q-146 32 -230.5 156.5t-84.5 329.5z" />
<glyph unicode="&#xa3;" d="M76 492v137h184q-2 3 -17.5 35.5t-19 40.5t-15.5 36.5t-16 43.5t-11 40t-9 48t-2 47q0 162 112 252t281 90q164 0 256.5 -84t110.5 -220l-133 -40q-27 100 -83 146t-143 46q-93 0 -153 -47.5t-60 -153.5q0 -30 5 -59t17 -61.5t20 -50.5t27.5 -57.5t25.5 -51.5h272v-137 h-225q8 -50 8 -80q0 -167 -131 -258h426v161h160v-315h-838v129q93 33 148 107.5t55 171.5q0 34 -11 84h-241z" />
<glyph unicode="&#xa4;" d="M49 328l172 174q-49 84 -49 190q0 101 47 187l-170 170l109 112l170 -172q86 55 192 55t191 -53l170 170l110 -112l-172 -170q49 -81 49 -187q0 -110 -51 -192l174 -172l-110 -111l-172 172q-88 -53 -189 -53q-105 0 -188 55l-172 -174zM334 692q0 -95 51.5 -151 t134.5 -56t135 56t52 151t-52 150t-135 55t-134.5 -55t-51.5 -150z" />
<glyph unicode="&#xa5;" d="M12 1112v131h428v-131h-129l166 -301q27 -49 49 -102q11 27 52 102l163 301h-123v131h410v-131h-115l-239 -426h274v-133h-332v-150h332v-131h-332v-149h150v-123h-487v123h151v149h-334v131h334v150h-334v133h273l-242 426h-115z" />
<glyph unicode="&#xa6;" horiz-adv-x="528" d="M182 -190v563h162v-563h-162zM182 938v563h162v-563h-162z" />
<glyph unicode="&#xa7;" horiz-adv-x="980" d="M82 633q0 165 156 270q-82 85 -82 213q0 78 30 137.5t83 95t120.5 53t147.5 17.5q171 0 288 -69v-283h-161v197q-51 10 -123 10q-99 0 -152 -34t-53 -122q0 -70 39 -110t123 -74l131 -53q135 -53 202.5 -125.5t67.5 -188.5q0 -170 -156 -272q82 -88 82 -215 q0 -77 -30 -136.5t-83.5 -94.5t-121 -52.5t-148.5 -17.5q-159 0 -286 69v283h159v-194q70 -13 125 -13q98 0 150.5 34.5t52.5 121.5q0 71 -38 110.5t-120 73.5l-133 53q-134 53 -202 126t-68 190zM258 653q0 -64 35.5 -106t126.5 -80l147 -61q32 -13 74 -33q43 39 62.5 79 t19.5 93q0 65 -35 106.5t-125 79.5l-151 62q-28 9 -72 32q-43 -41 -62.5 -80.5t-19.5 -91.5z" />
<glyph unicode="&#xa8;" horiz-adv-x="698" d="M55 1255q0 50 34 83.5t85 33.5q50 0 83.5 -34t33.5 -83t-33.5 -82.5t-83.5 -33.5q-51 0 -85 33t-34 83zM410 1255q0 50 33.5 83.5t82.5 33.5q50 0 83.5 -34t33.5 -83t-33.5 -82.5t-83.5 -33.5t-83 33.5t-33 82.5z" />
<glyph unicode="&#xa9;" horiz-adv-x="1568" d="M90 678q0 187 93.5 346.5t253.5 252.5t347 93t347.5 -93t254 -252.5t93.5 -346.5t-93.5 -347t-254 -253.5t-347.5 -93.5t-347 93.5t-253.5 253.5t-93.5 347zM215 678q0 -120 46 -228.5t123 -186t182 -123.5t218 -46q152 0 283 77.5t208 212t77 294.5q0 119 -45.5 226.5 t-122 184.5t-181.5 122.5t-219 45.5q-152 0 -282.5 -76.5t-208.5 -210t-78 -292.5zM508 684q0 169 87 256.5t224 87.5q55 0 104 -13t76 -32v-217h-127v149h-30q-91 0 -135.5 -49.5t-44.5 -169.5q0 -239 178 -239q67 0 137 47l51 -76q-79 -102 -217 -102q-133 0 -218 96.5 t-85 261.5z" />
<glyph unicode="&#xaa;" horiz-adv-x="595" d="M45 831q0 79 54 124.5t153 45.5h98v37q0 55 -25.5 79t-78.5 24q-72 0 -140 -45l-43 80q65 86 216 86q102 0 158.5 -52t56.5 -157v-228q0 -43 38 -43q21 0 35 2v-104q-34 -12 -80 -12q-108 0 -120 106q-12 -51 -55.5 -78.5t-102.5 -27.5q-76 0 -120 45t-44 118zM68 410 v127h481v-127h-481zM184 844q0 -29 17.5 -46.5t52.5 -17.5q42 0 69 27.5t27 73.5v32h-76q-90 0 -90 -69z" />
<glyph unicode="&#xab;" horiz-adv-x="923" d="M76 506l258 377l117 -64l-172 -313l172 -316l-117 -63zM451 506l258 377l114 -64l-170 -313l170 -316l-114 -63z" />
<glyph unicode="&#xac;" d="M92 520v146h782v-482h-157v336h-625z" />
<glyph unicode="&#xad;" horiz-adv-x="526" d="M66 430v145h395v-145h-395z" />
<glyph unicode="&#xae;" horiz-adv-x="1052" d="M68 1001q0 191 133.5 326t324.5 135q190 0 323.5 -135t133.5 -326q0 -126 -61 -232t-166 -167t-230 -61q-192 0 -325 134t-133 326zM166 1001q0 -160 103.5 -265t254.5 -105q152 0 256.5 105t104.5 265t-104.5 264.5t-256.5 104.5q-151 0 -254.5 -104.5t-103.5 -264.5z M350 795v67h43v283h-41v69h191q149 0 149 -122q0 -81 -63 -113l53 -98q18 -21 33 -21h20v-63q-29 -11 -51 -11q-61 0 -86 54l-68 123h-43v-101h33v-67h-170zM487 1028h56q53 0 53 59q0 58 -61 58h-48v-117z" />
<glyph unicode="&#xaf;" horiz-adv-x="620" d="M55 1165v144h510v-144h-510z" />
<glyph unicode="&#xb0;" horiz-adv-x="679" d="M55 1188q0 125 82.5 203.5t202.5 78.5q121 0 202 -78.5t81 -203.5q0 -122 -81.5 -202.5t-201.5 -80.5q-119 0 -202 81t-83 202zM199 1188q0 -68 40 -108t101 -40t100 40t39 108q0 69 -38.5 108t-100.5 39t-101.5 -39t-39.5 -108z" />
<glyph unicode="&#xb1;" d="M111 0v139h817v-139h-817zM111 594v139h331v275h162v-275h324v-139h-324v-285h-162v285h-331z" />
<glyph unicode="&#xb2;" horiz-adv-x="651" d="M37 774v94l266 289q56 58 81.5 102t25.5 97q0 125 -146 125q-41 0 -74 -8v-160h-137v225q39 26 103 43.5t133 17.5q126 0 206 -61t80 -180q0 -81 -37.5 -144.5t-119.5 -142.5l-162 -164h338v-133h-557z" />
<glyph unicode="&#xb3;" horiz-adv-x="649" d="M45 870l51 88q92 -63 187 -63q74 0 116.5 31t42.5 90q0 56 -38.5 88.5t-114.5 32.5h-64v108h47q142 0 142 123q0 58 -33.5 85.5t-104.5 27.5q-32 0 -67 -6v-138h-139v201q92 61 229 61q123 0 202 -55t79 -168q0 -136 -123 -182q151 -47 151 -197q0 -114 -84.5 -175.5 t-210.5 -61.5q-85 0 -155.5 28.5t-112.5 81.5z" />
<glyph unicode="&#xb4;" horiz-adv-x="485" d="M55 1075l174 363h164q16 0 26.5 -10t10.5 -21q0 -12 -18 -41l-226 -291h-131z" />
<glyph unicode="&#xb5;" horiz-adv-x="1034" d="M139 -307l17 307v942h184v-625q0 -93 43.5 -137.5t114.5 -44.5q78 0 130 53.5t52 137.5v616h188v-741q0 -36 16 -52t50 -16q41 0 57 2v-135q-58 -14 -112 -14q-82 0 -125.5 44t-46.5 122q-25 -85 -94 -130t-150 -45q-82 0 -135 50v-389h-189v55z" />
<glyph unicode="&#xb6;" horiz-adv-x="1290" d="M57 961q0 198 124.5 294.5t338.5 96.5h684v-142h-164v-1173q0 -203 -115.5 -309.5t-308.5 -106.5h-71v152h73q107 0 175.5 63.5t68.5 198.5v1175h-143v-1200h-174v547h-25q-212 0 -337.5 102.5t-125.5 301.5z" />
<glyph unicode="&#xb7;" horiz-adv-x="452" d="M96 502q0 56 37 92.5t94 36.5q55 0 92 -36.5t37 -92.5q0 -54 -37 -90.5t-92 -36.5q-57 0 -94 36.5t-37 90.5z" />
<glyph unicode="&#xb8;" horiz-adv-x="485" d="M55 -252q58 -10 103 -10q102 0 102 61q0 60 -115 60l19 174h119v-111q145 -19 145 -131q0 -81 -64 -128.5t-169 -47.5q-69 0 -140 23v110z" />
<glyph unicode="&#xb9;" horiz-adv-x="577" d="M51 1425v105l234 55h104l2 -700h146v-111h-471v111h165v555z" />
<glyph unicode="&#xba;" horiz-adv-x="602" d="M51 969q0 149 70 223t182 74q110 0 179 -74t69 -223q0 -151 -69 -226t-179 -75q-111 0 -181.5 75.5t-70.5 225.5zM72 410v127h458v-127h-458zM203 967q0 -105 24.5 -149t73.5 -44t72.5 44t23.5 149q0 103 -23.5 146.5t-72.5 43.5t-73.5 -44t-24.5 -146z" />
<glyph unicode="&#xbb;" horiz-adv-x="923" d="M100 190l170 316l-170 313l115 64l258 -377l-258 -379zM473 190l172 316l-172 313l117 64l258 -377l-258 -379z" />
<glyph unicode="&#xbc;" horiz-adv-x="1548" d="M51 1192v104l234 56h104l2 -701h146v-110h-471v110h165v555zM438 -2l250 676l227 676h164l-248 -676l-229 -676h-164zM846 147v89l317 575h140h77v-541h123v-123h-123v-147h-151v147h-383zM1014 270h219v330q0 18 4 88q-3 -8 -37 -78z" />
<glyph unicode="&#xbd;" horiz-adv-x="1591" d="M51 1192v104l234 56h104l2 -701h146v-110h-471v110h165v555zM438 -2l250 676l227 676h164l-248 -676l-229 -676h-164zM977 0v94l266 289q56 58 81.5 102t25.5 97q0 125 -146 125q-36 0 -74 -9v-159h-137v225q39 26 103 43.5t133 17.5q126 0 206.5 -61t80.5 -180 q0 -81 -38 -144.5t-120 -142.5l-162 -164h338v-133h-557z" />
<glyph unicode="&#xbe;" horiz-adv-x="1601" d="M45 637l51 88q92 -63 187 -63q74 0 116.5 30.5t42.5 89.5q0 56 -38.5 88.5t-114.5 32.5h-64v109h47q142 0 142 123q0 57 -33 84.5t-105 27.5q-32 0 -67 -6v-137h-139v201q92 61 229 61q123 0 202 -55t79 -168q0 -136 -123 -182q151 -47 151 -197q0 -114 -84.5 -176 t-210.5 -62q-84 0 -155 29t-113 82zM492 -2l249 676l230 676h162l-248 -676l-230 -676h-163zM899 147v89l318 575h139h80v-541h120v-123h-120v-147h-154v147h-383zM1067 270h219v330q0 18 4 88q-3 -8 -37 -78z" />
<glyph unicode="&#xbf;" horiz-adv-x="860" d="M57 -63q0 111 51 188t158 164q82 71 111 113t29 112v33h163q6 -27 6 -64q0 -77 -34.5 -134.5t-112.5 -131.5q-86 -86 -110 -120q-44 -63 -44 -146q0 -100 57.5 -143.5t166.5 -43.5q72 0 139 15v266h174v-340q-149 -90 -354 -90q-183 0 -291.5 81t-108.5 241zM362 836 q0 55 38 92t94 37q55 0 91 -36.5t36 -92.5q0 -54 -36 -90.5t-91 -36.5q-56 0 -94 36.5t-38 90.5z" />
<glyph unicode="&#xc0;" horiz-adv-x="1232" d="M14 0v141h115l358 1211h256l363 -1211h115v-141h-469v141h151l-80 277h-444l-80 -277h141v-141h-426zM330 1733q0 14 10 23t25 9h155l166 -301h-133l-203 230q-20 20 -20 39zM420 559h360l-141 471q-28 99 -39 141q-12 -54 -37 -141z" />
<glyph unicode="&#xc1;" horiz-adv-x="1232" d="M14 0v141h115l358 1211h256l363 -1211h115v-141h-469v141h151l-80 277h-444l-80 -277h141v-141h-426zM420 559h360l-141 471q-28 99 -39 141q-12 -54 -37 -141zM537 1464l163 301h158q15 0 25 -9t10 -23q0 -19 -23 -39l-202 -230h-131z" />
<glyph unicode="&#xc2;" horiz-adv-x="1232" d="M14 0v141h115l358 1211h256l363 -1211h115v-141h-469v141h151l-80 277h-444l-80 -277h141v-141h-426zM291 1464l256 301h137l254 -301h-141l-185 158l-178 -158h-143zM420 559h360l-141 471q-28 99 -39 141q-12 -54 -37 -141z" />
<glyph unicode="&#xc3;" horiz-adv-x="1232" d="M14 0v141h115l358 1211h256l363 -1211h115v-141h-469v141h151l-80 277h-444l-80 -277h141v-141h-426zM279 1536q0 95 49 153t131 58q70 0 143 -49l49 -33q60 -43 101 -43q34 0 48.5 20.5t14.5 61.5v31h127q4 -40 4 -60q0 -96 -50 -153.5t-132 -57.5q-67 0 -143 49l-50 33 q-65 45 -100 45q-63 0 -63 -84v-30h-125q-4 36 -4 59zM420 559h360l-141 471q-28 99 -39 141q-12 -54 -37 -141z" />
<glyph unicode="&#xc4;" horiz-adv-x="1232" d="M14 0v141h115l358 1211h256l363 -1211h115v-141h-469v141h151l-80 277h-444l-80 -277h141v-141h-426zM303 1597q0 51 34 84t85 33q50 0 83.5 -33t33.5 -84q0 -49 -33.5 -81.5t-83.5 -32.5q-51 0 -85 32.5t-34 81.5zM420 559h360l-141 471q-28 99 -39 141 q-12 -54 -37 -141zM694 1597q0 51 33.5 84t83.5 33t83.5 -33t33.5 -84q0 -49 -33.5 -81.5t-83.5 -32.5t-83.5 32.5t-33.5 81.5z" />
<glyph unicode="&#xc5;" horiz-adv-x="1232" d="M14 0v141h115l358 1211h256l363 -1211h115v-141h-469v141h151l-80 277h-444l-80 -277h141v-141h-426zM393 1626q0 90 63 152.5t156 62.5q95 0 158.5 -62.5t63.5 -152.5t-63.5 -151.5t-158.5 -61.5q-93 0 -156 61.5t-63 151.5zM420 559h360l-141 471q-28 99 -39 141 q-12 -54 -37 -141zM522 1626q0 -41 27 -66.5t67 -25.5q38 0 64.5 26t26.5 66t-26.5 66t-64.5 26q-40 0 -67 -25.5t-27 -66.5z" />
<glyph unicode="&#xc6;" horiz-adv-x="1687" d="M0 0v141h117l471 1069h-170v142h1169v-332h-176v190h-477l76 -444h344v-141h-320l82 -484h311v199h177v-340h-848v141h155l-45 277h-452l-119 -277h147v-141h-442zM475 559h367l-101 621q-25 -71 -57 -146z" />
<glyph unicode="&#xc7;" horiz-adv-x="1056" d="M90 686q0 175 40.5 309t113 215.5t168.5 122.5t213 41q188 0 321 -92v-354h-180v282q-66 15 -115 15q-85 0 -148.5 -27t-111 -87.5t-72 -163t-24.5 -247.5q0 -150 27 -259t77.5 -171.5t113.5 -91t142 -28.5q80 0 141.5 27t123.5 81l71 -108q-121 -161 -332 -170v-58 q146 -19 146 -131q0 -81 -64.5 -128.5t-169.5 -47.5q-68 0 -139 23v110q58 -10 103 -10q102 0 102 61q0 60 -115 60l15 127q-206 32 -326.5 212t-120.5 488z" />
<glyph unicode="&#xc8;" horiz-adv-x="1087" d="M88 0v141h139v1069h-139v142h901v-332h-176v190h-385v-444h330v-141h-330v-484h401v199h177v-340h-918zM285 1733q0 14 9.5 23t24.5 9h156l166 -301h-133l-203 230q-20 20 -20 39z" />
<glyph unicode="&#xc9;" horiz-adv-x="1087" d="M88 0v141h139v1069h-139v142h901v-332h-176v190h-385v-444h330v-141h-330v-484h401v199h177v-340h-918zM494 1464l163 301h158q15 0 25 -9t10 -23q0 -19 -23 -39l-202 -230h-131z" />
<glyph unicode="&#xca;" horiz-adv-x="1087" d="M88 0v141h139v1069h-139v142h901v-332h-176v190h-385v-444h330v-141h-330v-484h401v199h177v-340h-918zM248 1464l256 301h137l254 -301h-141l-185 158l-178 -158h-143z" />
<glyph unicode="&#xcb;" horiz-adv-x="1087" d="M88 0v141h139v1069h-139v142h901v-332h-176v190h-385v-444h330v-141h-330v-484h401v199h177v-340h-918zM258 1597q0 51 34 84t85 33q50 0 83.5 -33t33.5 -84q0 -49 -33.5 -81.5t-83.5 -32.5q-51 0 -85 32.5t-34 81.5zM649 1597q0 51 33.5 84t83.5 33t83.5 -33t33.5 -84 q0 -49 -33.5 -81.5t-83.5 -32.5t-83.5 32.5t-33.5 81.5z" />
<glyph unicode="&#xcc;" horiz-adv-x="655" d="M43 1733q0 14 10 23t25 9h155l166 -301h-133l-203 230q-20 20 -20 39zM88 0v141h139v1069h-139v142h481v-142h-141v-1069h141v-141h-481z" />
<glyph unicode="&#xcd;" horiz-adv-x="655" d="M88 0v141h139v1069h-139v142h481v-142h-141v-1069h141v-141h-481zM250 1464l164 301h157q15 0 25 -9t10 -23q0 -20 -22 -39l-203 -230h-131z" />
<glyph unicode="&#xce;" horiz-adv-x="655" d="M4 1464l256 301h137l254 -301h-141l-184 158l-179 -158h-143zM88 0v141h139v1069h-139v142h481v-142h-141v-1069h141v-141h-481z" />
<glyph unicode="&#xcf;" horiz-adv-x="655" d="M16 1597q0 51 34 84t85 33q50 0 83.5 -33t33.5 -84q0 -49 -33.5 -81.5t-83.5 -32.5q-51 0 -85 32.5t-34 81.5zM88 0v141h139v1069h-139v142h481v-142h-141v-1069h141v-141h-481zM408 1597q0 51 33 84t83 33t83.5 -33t33.5 -84q0 -49 -33.5 -81.5t-83.5 -32.5t-83 32.5 t-33 81.5z" />
<glyph unicode="&#xd0;" horiz-adv-x="1218" d="M88 0v141h139v486h-139v139h139v444h-139v142h490q255 0 402.5 -175.5t147.5 -500.5q0 -324 -147.5 -500t-402.5 -176h-490zM430 141h137q79 0 142 29t111 90.5t74 166t26 247.5q0 144 -26 249.5t-74 167t-110.5 90.5t-142.5 29h-137v-444h244v-139h-244v-486z" />
<glyph unicode="&#xd1;" horiz-adv-x="1382" d="M92 0v141h141v1069h-141v142h416l391 -871q52 -131 94 -258v987h-135v142h436v-142h-137v-1210h-250l-422 926q-48 121 -88 245v-1030h131v-141h-436zM350 1536q0 95 49 153t131 58q71 0 144 -49l49 -33q60 -43 100 -43q64 0 64 82v31h127q4 -40 4 -60q0 -96 -50 -153.5 t-132 -57.5q-68 0 -144 49l-49 33q-65 45 -100 45q-64 0 -64 -84v-30h-125q-4 36 -4 59z" />
<glyph unicode="&#xd2;" horiz-adv-x="1165" d="M90 674q0 346 133 523t361 177t360.5 -177t132.5 -523q0 -344 -132.5 -520.5t-360.5 -176.5t-361 176.5t-133 520.5zM297 676q0 -151 20.5 -259t60 -170.5t90.5 -91t118 -28.5q65 0 115 28.5t88.5 91t58.5 170.5t20 259t-20 259t-58.5 170.5t-88.5 91t-115 28.5 q-67 0 -118 -28.5t-90.5 -91t-60 -170.5t-20.5 -259zM299 1733q0 14 10 23t25 9h155l166 -301h-133l-203 230q-20 20 -20 39z" />
<glyph unicode="&#xd3;" horiz-adv-x="1165" d="M90 674q0 346 133 523t361 177t360.5 -177t132.5 -523q0 -344 -132.5 -520.5t-360.5 -176.5t-361 176.5t-133 520.5zM297 676q0 -151 20.5 -259t60 -170.5t90.5 -91t118 -28.5q65 0 115 28.5t88.5 91t58.5 170.5t20 259t-20 259t-58.5 170.5t-88.5 91t-115 28.5 q-67 0 -118 -28.5t-90.5 -91t-60 -170.5t-20.5 -259zM508 1464l164 301h157q15 0 25 -9t10 -23q0 -20 -22 -39l-203 -230h-131z" />
<glyph unicode="&#xd4;" horiz-adv-x="1165" d="M90 674q0 346 133 523t361 177t360.5 -177t132.5 -523q0 -344 -132.5 -520.5t-360.5 -176.5t-361 176.5t-133 520.5zM262 1464l256 301h137l254 -301h-141l-184 158l-178 -158h-144zM297 676q0 -151 20.5 -259t60 -170.5t90.5 -91t118 -28.5q65 0 115 28.5t88.5 91 t58.5 170.5t20 259t-20 259t-58.5 170.5t-88.5 91t-115 28.5q-67 0 -118 -28.5t-90.5 -91t-60 -170.5t-20.5 -259z" />
<glyph unicode="&#xd5;" horiz-adv-x="1165" d="M90 674q0 346 133 523t361 177t360.5 -177t132.5 -523q0 -344 -132.5 -520.5t-360.5 -176.5t-361 176.5t-133 520.5zM250 1536q0 95 49 153t131 58q70 0 143 -49l50 -33q60 -43 100 -43q34 0 48.5 20.5t14.5 61.5v31h127q5 -50 5 -60q0 -96 -50.5 -153.5t-132.5 -57.5 q-67 0 -143 49l-49 33q-65 45 -101 45q-63 0 -63 -84v-30h-125q-4 36 -4 59zM297 676q0 -151 20.5 -259t60 -170.5t90.5 -91t118 -28.5q65 0 115 28.5t88.5 91t58.5 170.5t20 259t-20 259t-58.5 170.5t-88.5 91t-115 28.5q-67 0 -118 -28.5t-90.5 -91t-60 -170.5t-20.5 -259 z" />
<glyph unicode="&#xd6;" horiz-adv-x="1165" d="M90 674q0 346 133 523t361 177t360.5 -177t132.5 -523q0 -344 -132.5 -520.5t-360.5 -176.5t-361 176.5t-133 520.5zM272 1597q0 51 34 84t85 33q50 0 83.5 -33t33.5 -84q0 -49 -33.5 -81.5t-83.5 -32.5q-51 0 -85 32.5t-34 81.5zM297 676q0 -151 20.5 -259t60 -170.5 t90.5 -91t118 -28.5q65 0 115 28.5t88.5 91t58.5 170.5t20 259t-20 259t-58.5 170.5t-88.5 91t-115 28.5q-67 0 -118 -28.5t-90.5 -91t-60 -170.5t-20.5 -259zM664 1597q0 51 33 84t83 33t83.5 -33t33.5 -84q0 -49 -33.5 -81.5t-83.5 -32.5t-83 32.5t-33 81.5z" />
<glyph unicode="&#xd7;" d="M125 301l291 289l-291 291l102 98l291 -287l287 287l102 -100l-289 -289l287 -287l-102 -102l-285 288l-293 -288z" />
<glyph unicode="&#xd8;" horiz-adv-x="1165" d="M57 -10l133 213q-100 179 -100 471q0 346 133 523t361 177q166 0 282 -94l107 168l135 -84l-133 -215q102 -175 102 -475q0 -345 -133 -522t-360 -177q-165 0 -285 97l-109 -170zM293 676q0 -170 24 -281l461 733q-69 99 -194 99q-68 0 -119.5 -28.5t-91 -91t-60 -171 t-20.5 -260.5zM387 223q69 -98 197 -98q67 0 118.5 28.5t91 91t60 171t20.5 260.5q0 159 -26 282z" />
<glyph unicode="&#xd9;" horiz-adv-x="1296" d="M74 1210v142h471v-142h-133v-825q0 -129 76 -193.5t188 -64.5q110 0 179 63t69 195v825h-131v142h432v-142h-138v-815q0 -198 -115 -308t-310 -110q-198 0 -324.5 111t-126.5 307v815h-137zM391 1733q0 14 10 23t25 9h156l166 -301h-134l-202 230q-21 21 -21 39z" />
<glyph unicode="&#xda;" horiz-adv-x="1296" d="M74 1210v142h471v-142h-133v-825q0 -129 76 -193.5t188 -64.5q110 0 179 63t69 195v825h-131v142h432v-142h-138v-815q0 -198 -115 -308t-310 -110q-198 0 -324.5 111t-126.5 307v815h-137zM598 1464l164 301h158q15 0 24.5 -9t9.5 -23q0 -20 -22 -39l-203 -230h-131z " />
<glyph unicode="&#xdb;" horiz-adv-x="1296" d="M74 1210v142h471v-142h-133v-825q0 -129 76 -193.5t188 -64.5q110 0 179 63t69 195v825h-131v142h432v-142h-138v-815q0 -198 -115 -308t-310 -110q-198 0 -324.5 111t-126.5 307v815h-137zM352 1464l256 301h137l254 -301h-141l-184 158l-178 -158h-144z" />
<glyph unicode="&#xdc;" horiz-adv-x="1296" d="M74 1210v142h471v-142h-133v-825q0 -129 76 -193.5t188 -64.5q110 0 179 63t69 195v825h-131v142h432v-142h-138v-815q0 -198 -115 -308t-310 -110q-198 0 -324.5 111t-126.5 307v815h-137zM365 1597q0 51 33.5 84t84.5 33q50 0 83.5 -33t33.5 -84q0 -49 -33.5 -81.5 t-83.5 -32.5q-51 0 -84.5 32.5t-33.5 81.5zM756 1597q0 51 33 84t83 33t83.5 -33t33.5 -84q0 -49 -33.5 -81.5t-83.5 -32.5t-83 32.5t-33 81.5z" />
<glyph unicode="&#xdd;" horiz-adv-x="1220" d="M14 1210v142h488v-142h-148l213 -403q26 -48 62 -133q18 50 61 133l213 403h-145v142h448v-142h-121l-368 -684v-385h180v-141h-563v141h182v381l-381 688h-121zM545 1464l164 301h157q15 0 25 -9t10 -23q0 -20 -22 -39l-203 -230h-131z" />
<glyph unicode="&#xde;" horiz-adv-x="1124" d="M88 0v141h139v1069h-139v142h514v-142h-174v-147h184q213 0 334 -89.5t121 -279.5t-122 -284.5t-333 -94.5h-184v-174h174v-141h-514zM428 453h172q132 0 196 65t64 176q0 232 -260 232h-172v-473z" />
<glyph unicode="&#xdf;" horiz-adv-x="1034" d="M61 0v133h123v674h-123v135h123v164q0 160 90.5 251t257.5 91q162 0 255.5 -88t93.5 -264q0 -200 -117 -285q197 -85 197 -405q0 -99 -18.5 -175t-49 -123t-74 -77.5t-88.5 -42t-98 -11.5q-77 0 -144 23v131q53 -6 89 -6q25 0 45 3.5t43.5 13.5t41 30.5t32 51t22.5 79 t8 111.5q0 321 -199 321h-18v133h16q57 0 89 56t32 161q0 226 -155 226q-77 0 -119.5 -51t-42.5 -152v-1108h-312z" />
<glyph unicode="&#xe0;" horiz-adv-x="919" d="M63 250q0 125 86.5 195.5t237.5 70.5h184v98q0 189 -186 189q-112 0 -225 -76l-66 98q55 67 141.5 103.5t186.5 36.5q159 0 244.5 -87t85.5 -249v-428q0 -70 65 -70q24 0 60 4v-135q-61 -14 -113 -14q-83 0 -126 44t-48 122q-21 -86 -90.5 -130.5t-163.5 -44.5 q-129 0 -201 79t-72 194zM143 1407q0 11 10.5 21t24.5 10h164l176 -363h-135l-219 291q-21 24 -21 41zM248 262q0 -58 33 -97.5t100 -39.5q81 0 135.5 55t54.5 146v73h-153q-80 0 -125 -35.5t-45 -101.5z" />
<glyph unicode="&#xe1;" horiz-adv-x="919" d="M63 250q0 125 86.5 195.5t237.5 70.5h184v98q0 189 -186 189q-112 0 -225 -76l-66 98q55 67 141.5 103.5t186.5 36.5q159 0 244.5 -87t85.5 -249v-428q0 -70 65 -70q24 0 60 4v-135q-61 -14 -113 -14q-83 0 -126 44t-48 122q-21 -86 -90.5 -130.5t-163.5 -44.5 q-129 0 -201 79t-72 194zM248 262q0 -58 33 -97.5t100 -39.5q81 0 135.5 55t54.5 146v73h-153q-80 0 -125 -35.5t-45 -101.5zM354 1075l174 363h164q16 0 26.5 -10t10.5 -21q0 -12 -18 -41l-226 -291h-131z" />
<glyph unicode="&#xe2;" horiz-adv-x="919" d="M63 250q0 125 86.5 195.5t237.5 70.5h184v98q0 189 -186 189q-112 0 -225 -76l-66 98q55 67 141.5 103.5t186.5 36.5q159 0 244.5 -87t85.5 -249v-428q0 -70 65 -70q24 0 60 4v-135q-61 -14 -113 -14q-83 0 -126 44t-48 122q-21 -86 -90.5 -130.5t-163.5 -44.5 q-129 0 -201 79t-72 194zM127 1075l238 363h137l235 -363h-135l-170 191l-168 -191h-137zM248 262q0 -58 33 -97.5t100 -39.5q81 0 135.5 55t54.5 146v73h-153q-80 0 -125 -35.5t-45 -101.5z" />
<glyph unicode="&#xe3;" horiz-adv-x="919" d="M63 250q0 125 86.5 195.5t237.5 70.5h184v98q0 189 -186 189q-112 0 -225 -76l-66 98q55 67 141.5 103.5t186.5 36.5q159 0 244.5 -87t85.5 -249v-428q0 -70 65 -70q24 0 60 4v-135q-61 -14 -113 -14q-83 0 -126 44t-48 122q-21 -86 -90.5 -130.5t-163.5 -44.5 q-129 0 -201 79t-72 194zM117 1180q0 97 49 154t131 57q72 0 133 -50l43 -34q48 -39 82 -39q61 0 61 82v30h127q5 -50 5 -61q0 -94 -51.5 -151.5t-131.5 -57.5q-66 0 -133 49l-43 35q-21 17 -29 23t-22.5 12t-30.5 6q-61 0 -61 -82v-33h-125q-4 40 -4 60zM248 262 q0 -58 33 -97.5t100 -39.5q81 0 135.5 55t54.5 146v73h-153q-80 0 -125 -35.5t-45 -101.5z" />
<glyph unicode="&#xe4;" horiz-adv-x="919" d="M63 250q0 125 86.5 195.5t237.5 70.5h184v98q0 189 -186 189q-112 0 -225 -76l-66 98q55 67 141.5 103.5t186.5 36.5q159 0 244.5 -87t85.5 -249v-428q0 -70 65 -70q24 0 60 4v-135q-61 -14 -113 -14q-83 0 -126 44t-48 122q-21 -86 -90.5 -130.5t-163.5 -44.5 q-129 0 -201 79t-72 194zM139 1255q0 50 34 83.5t85 33.5q50 0 83.5 -34t33.5 -83t-33.5 -82.5t-83.5 -33.5q-51 0 -85 33t-34 83zM248 262q0 -58 33 -97.5t100 -39.5q81 0 135.5 55t54.5 146v73h-153q-80 0 -125 -35.5t-45 -101.5zM494 1255q0 50 33.5 83.5t82.5 33.5 q50 0 83.5 -34t33.5 -83t-33.5 -82.5t-83.5 -33.5t-83 33.5t-33 82.5z" />
<glyph unicode="&#xe5;" horiz-adv-x="919" d="M63 250q0 125 86.5 195.5t237.5 70.5h184v98q0 189 -186 189q-112 0 -225 -76l-66 98q55 67 141.5 103.5t186.5 36.5q159 0 244.5 -87t85.5 -249v-428q0 -70 65 -70q24 0 60 4v-135q-61 -14 -113 -14q-83 0 -126 44t-48 122q-21 -86 -90.5 -130.5t-163.5 -44.5 q-129 0 -201 79t-72 194zM211 1257q0 91 63 153.5t156 62.5q95 0 158 -62.5t63 -153.5q0 -90 -63 -151.5t-158 -61.5q-93 0 -156 61.5t-63 151.5zM248 262q0 -58 33 -97.5t100 -39.5q81 0 135.5 55t54.5 146v73h-153q-80 0 -125 -35.5t-45 -101.5zM340 1257q0 -41 27 -66.5 t67 -25.5q38 0 64 26t26 66q0 41 -26 67t-64 26q-40 0 -67 -26t-27 -67z" />
<glyph unicode="&#xe6;" horiz-adv-x="1370" d="M63 254q0 129 87 203.5t237 74.5h184v82q0 189 -186 189q-112 0 -225 -76l-66 98q54 67 141 103.5t185 36.5q194 0 272 -138q92 138 258 138q153 0 248.5 -114t95.5 -321q0 -64 -8 -114h-530q27 -279 260 -279q106 0 203 72l65 -94q-112 -138 -301 -138 q-108 0 -195.5 47.5t-140.5 139.5q-43 -89 -121.5 -138t-181.5 -49q-132 0 -206.5 78.5t-74.5 198.5zM246 264q0 -59 33.5 -99t101.5 -40q81 0 135.5 54t54.5 145v92h-153q-80 0 -126 -41t-46 -111zM754 532h364v7q0 149 -48 217.5t-130 68.5q-175 0 -186 -293z" />
<glyph unicode="&#xe7;" horiz-adv-x="845" d="M74 477q0 123 31 218t87 153t129.5 87.5t161.5 29.5q153 0 265 -70v-281h-164v203q-35 6 -74 6q-118 0 -182 -75.5t-64 -253.5q0 -185 70 -270t186 -85q99 0 201 74l63 -98q-91 -120 -256 -135v-58q146 -19 146 -131q0 -81 -64.5 -128.5t-169.5 -47.5q-68 0 -139 23v110 q58 -10 102 -10q103 0 103 61q0 60 -115 60l12 125q-151 27 -240 154t-89 339z" />
<glyph unicode="&#xe8;" horiz-adv-x="878" d="M74 481q0 235 106.5 359.5t272.5 124.5q158 0 254 -113.5t96 -321.5q0 -52 -8 -110h-533q13 -148 79.5 -215.5t182.5 -67.5q106 0 203 72l64 -94q-107 -138 -299 -138q-186 0 -302 130.5t-116 373.5zM168 1407q0 11 10.5 21t24.5 10h164l176 -363h-135l-220 291 q-20 23 -20 41zM260 545h365q0 145 -47 212.5t-127 67.5q-174 0 -191 -280z" />
<glyph unicode="&#xe9;" horiz-adv-x="878" d="M74 481q0 235 106.5 359.5t272.5 124.5q158 0 254 -113.5t96 -321.5q0 -52 -8 -110h-533q13 -148 79.5 -215.5t182.5 -67.5q106 0 203 72l64 -94q-107 -138 -299 -138q-186 0 -302 130.5t-116 373.5zM260 545h365q0 145 -47 212.5t-127 67.5q-174 0 -191 -280zM377 1075 l174 363h164q16 0 26.5 -10t10.5 -21t-19 -41l-225 -291h-131z" />
<glyph unicode="&#xea;" horiz-adv-x="878" d="M74 481q0 235 106.5 359.5t272.5 124.5q158 0 254 -113.5t96 -321.5q0 -52 -8 -110h-533q13 -148 79.5 -215.5t182.5 -67.5q106 0 203 72l64 -94q-107 -138 -299 -138q-186 0 -302 130.5t-116 373.5zM150 1075l237 363h137l236 -363h-135l-170 191l-168 -191h-137z M260 545h365q0 145 -47 212.5t-127 67.5q-174 0 -191 -280z" />
<glyph unicode="&#xeb;" horiz-adv-x="878" d="M74 481q0 235 106.5 359.5t272.5 124.5q158 0 254 -113.5t96 -321.5q0 -52 -8 -110h-533q13 -148 79.5 -215.5t182.5 -67.5q106 0 203 72l64 -94q-107 -138 -299 -138q-186 0 -302 130.5t-116 373.5zM162 1255q0 50 34 83.5t85 33.5q49 0 82.5 -33.5t33.5 -83.5 q0 -49 -33.5 -82.5t-82.5 -33.5q-51 0 -85 33t-34 83zM260 545h365q0 145 -47 212.5t-127 67.5q-174 0 -191 -280zM516 1255q0 49 34 83t83 34t83 -34t34 -83t-33.5 -82.5t-83.5 -33.5t-83.5 33.5t-33.5 82.5z" />
<glyph unicode="&#xec;" horiz-adv-x="526" d="M4 1386q0 14 10 23.5t27 9.5h158l125 -362h-131l-168 284q-21 30 -21 45zM61 0v133h123v674h-123v135h312v-809h121v-133h-433z" />
<glyph unicode="&#xed;" horiz-adv-x="526" d="M61 0v133h123v674h-123v135h312v-809h121v-133h-433zM180 1057l123 362h158q18 0 27.5 -9.5t9.5 -23.5q0 -15 -21 -45l-168 -284h-129z" />
<glyph unicode="&#xee;" horiz-adv-x="526" d="M-59 1057l237 362h137l236 -362h-135l-170 192l-168 -192h-137zM61 0v133h123v674h-123v135h312v-809h121v-133h-433z" />
<glyph unicode="&#xef;" horiz-adv-x="526" d="M-33 1237q0 51 34 84t85 33q50 0 83.5 -33t33.5 -84q0 -49 -33.5 -82t-83.5 -33q-51 0 -85 33t-34 82zM61 0v133h123v674h-123v135h312v-809h121v-133h-433zM285 1237q0 51 33.5 84t84.5 33q48 0 81.5 -33.5t33.5 -83.5q0 -49 -33.5 -82t-81.5 -33q-51 0 -84.5 32.5 t-33.5 82.5z" />
<glyph unicode="&#xf0;" horiz-adv-x="917" d="M74 451q0 117 29 208.5t79 147.5t113.5 84.5t136.5 28.5q152 0 219 -115q-56 199 -217 354l-227 -131l-62 113l183 106q-65 45 -158 99l92 102q104 -48 207 -121l207 121l61 -115l-164 -94q271 -268 271 -715q0 -281 -107 -418q-102 -129 -274 -129q-171 0 -280 121 t-109 353zM264 451q0 -334 195 -334q194 0 194 334q0 178 -50.5 255.5t-143.5 77.5q-195 0 -195 -333z" />
<glyph unicode="&#xf1;" horiz-adv-x="1060" d="M61 0v133h123v674h-123v135h285v-160q27 89 99 136t167 47q133 0 210 -85.5t77 -228.5v-518h121v-133h-410v133h103v492q0 92 -43.5 137t-114.5 45q-78 0 -130 -54t-52 -139v-481h100v-133h-412zM221 1180q0 97 49 154t131 57q73 0 134 -50l43 -34q27 -22 43.5 -30.5 t37.5 -8.5q62 0 62 82v30h127q4 -40 4 -61q0 -94 -51 -151.5t-131 -57.5q-66 0 -133 49l-43 35q-21 17 -29 23t-22.5 12t-30.5 6q-62 0 -62 -82v-33h-125q-4 40 -4 60z" />
<glyph unicode="&#xf2;" horiz-adv-x="915" d="M74 471q0 126 30 222.5t83.5 155t122 87.5t149.5 29t149 -29t121 -87.5t83 -155t30 -222.5q0 -125 -30 -221.5t-83 -155t-121 -88t-149 -29.5q-169 0 -277 124.5t-108 369.5zM170 1407q0 11 10.5 21t24.5 10h164l176 -363h-135l-220 291q-20 23 -20 41zM266 471 q0 -191 49.5 -272.5t143.5 -81.5q92 0 142 81.5t50 272.5q0 190 -50 271t-142 81q-94 0 -143.5 -81t-49.5 -271z" />
<glyph unicode="&#xf3;" horiz-adv-x="915" d="M74 471q0 126 30 222.5t83.5 155t122 87.5t149.5 29t149 -29t121 -87.5t83 -155t30 -222.5q0 -125 -30 -221.5t-83 -155t-121 -88t-149 -29.5q-169 0 -277 124.5t-108 369.5zM266 471q0 -191 49.5 -272.5t143.5 -81.5q92 0 142 81.5t50 272.5q0 190 -50 271t-142 81 q-94 0 -143.5 -81t-49.5 -271zM381 1075l174 363h164q16 0 26.5 -10t10.5 -21t-19 -41l-225 -291h-131z" />
<glyph unicode="&#xf4;" horiz-adv-x="915" d="M74 471q0 126 30 222.5t83.5 155t122 87.5t149.5 29t149 -29t121 -87.5t83 -155t30 -222.5q0 -125 -30 -221.5t-83 -155t-121 -88t-149 -29.5q-169 0 -277 124.5t-108 369.5zM154 1075l237 363h137l236 -363h-135l-170 191l-168 -191h-137zM266 471q0 -191 49.5 -272.5 t143.5 -81.5q92 0 142 81.5t50 272.5q0 190 -50 271t-142 81q-94 0 -143.5 -81t-49.5 -271z" />
<glyph unicode="&#xf5;" horiz-adv-x="915" d="M74 471q0 126 30 222.5t83.5 155t122 87.5t149.5 29t149 -29t121 -87.5t83 -155t30 -222.5q0 -125 -30 -221.5t-83 -155t-121 -88t-149 -29.5q-169 0 -277 124.5t-108 369.5zM141 1180q0 96 49.5 153.5t131.5 57.5q72 0 133 -50l43 -34q48 -39 82 -39q61 0 61 82v30h127 q4 -40 4 -61q0 -94 -51 -151.5t-131 -57.5q-66 0 -133 49l-43 35q-21 17 -29 23t-22.5 12t-30.5 6q-62 0 -62 -82v-33h-125q-4 40 -4 60zM266 471q0 -191 49.5 -272.5t143.5 -81.5q92 0 142 81.5t50 272.5q0 190 -50 271t-142 81q-94 0 -143.5 -81t-49.5 -271z" />
<glyph unicode="&#xf6;" horiz-adv-x="915" d="M74 471q0 126 30 222.5t83.5 155t122 87.5t149.5 29t149 -29t121 -87.5t83 -155t30 -222.5q0 -125 -30 -221.5t-83 -155t-121 -88t-149 -29.5q-169 0 -277 124.5t-108 369.5zM164 1255q0 50 34 83.5t85 33.5q49 0 82.5 -33.5t33.5 -83.5q0 -49 -33.5 -82.5t-82.5 -33.5 q-51 0 -85 33t-34 83zM266 471q0 -191 49.5 -272.5t143.5 -81.5q92 0 142 81.5t50 272.5q0 190 -50 271t-142 81q-94 0 -143.5 -81t-49.5 -271zM518 1255q0 49 34 83t83 34t83 -34t34 -83t-33.5 -82.5t-83.5 -33.5t-83.5 33.5t-33.5 82.5z" />
<glyph unicode="&#xf7;" d="M100 520v146h854v-146h-854zM399 252q0 52 36 87.5t89 35.5q54 0 88.5 -35t34.5 -88t-34.5 -88t-88.5 -35q-53 0 -89 35.5t-36 87.5zM399 934q0 52 36 87.5t89 35.5q54 0 88.5 -35t34.5 -88t-34.5 -88t-88.5 -35q-53 0 -89 35.5t-36 87.5z" />
<glyph unicode="&#xf8;" horiz-adv-x="933" d="M39 -25l121 168q-78 127 -78 328q0 126 30 222.5t83.5 155t122 87.5t149.5 29q127 0 221 -70l105 143l102 -73l-121 -168q76 -126 76 -326q0 -125 -30 -221.5t-83 -155t-121 -88t-149 -29.5q-125 0 -219 70l-105 -145zM264 471q0 -84 15 -172l325 469q-48 59 -137 59 q-98 0 -150.5 -81.5t-52.5 -274.5zM332 172q48 -59 135 -59q99 0 151 82t52 276q0 99 -15 170z" />
<glyph unicode="&#xf9;" horiz-adv-x="1044" d="M43 807v135h311v-625q0 -93 42.5 -137.5t111.5 -44.5q79 0 131.5 53.5t52.5 137.5v481h-114v135h301v-741q0 -70 67 -70q26 0 58 4v-135q-61 -14 -115 -14q-81 0 -124 44t-48 122q-24 -85 -96.5 -130t-167.5 -45q-133 0 -210 85.5t-77 228.5v516h-123zM229 1407 q0 11 10.5 21t24.5 10h164l176 -363h-135l-219 291q-21 24 -21 41z" />
<glyph unicode="&#xfa;" horiz-adv-x="1044" d="M43 807v135h311v-625q0 -93 42.5 -137.5t111.5 -44.5q79 0 131.5 53.5t52.5 137.5v481h-114v135h301v-741q0 -70 67 -70q26 0 58 4v-135q-61 -14 -115 -14q-81 0 -124 44t-48 122q-24 -85 -96.5 -130t-167.5 -45q-133 0 -210 85.5t-77 228.5v516h-123zM440 1075l174 363 h164q16 0 26.5 -10t10.5 -21q0 -12 -18 -41l-226 -291h-131z" />
<glyph unicode="&#xfb;" horiz-adv-x="1044" d="M43 807v135h311v-625q0 -93 42.5 -137.5t111.5 -44.5q79 0 131.5 53.5t52.5 137.5v481h-114v135h301v-741q0 -70 67 -70q26 0 58 4v-135q-61 -14 -115 -14q-81 0 -124 44t-48 122q-24 -85 -96.5 -130t-167.5 -45q-133 0 -210 85.5t-77 228.5v516h-123zM213 1075l238 363 h137l235 -363h-135l-170 191l-168 -191h-137z" />
<glyph unicode="&#xfc;" horiz-adv-x="1044" d="M43 807v135h311v-625q0 -93 42.5 -137.5t111.5 -44.5q79 0 131.5 53.5t52.5 137.5v481h-114v135h301v-741q0 -70 67 -70q26 0 58 4v-135q-61 -14 -115 -14q-81 0 -124 44t-48 122q-24 -85 -96.5 -130t-167.5 -45q-133 0 -210 85.5t-77 228.5v516h-123zM223 1255 q0 50 34 83.5t85 33.5q50 0 83.5 -34t33.5 -83t-33.5 -82.5t-83.5 -33.5q-51 0 -85 33t-34 83zM578 1255q0 50 33.5 83.5t82.5 33.5q50 0 83.5 -34t33.5 -83t-33.5 -82.5t-83.5 -33.5t-83 33.5t-33 82.5z" />
<glyph unicode="&#xfd;" horiz-adv-x="974" d="M25 807v135h387v-135h-107l182 -584q23 -70 27 -86q12 45 23 86l182 584h-105v135h336v-135h-86l-301 -940q-44 -136 -125 -194t-198 -58q-75 0 -125 14v133q62 -4 96 -4q74 0 125.5 28t81.5 103l-303 918h-90zM434 1075l174 363h164q16 0 26.5 -10t10.5 -21 q0 -12 -18 -41l-226 -291h-131z" />
<glyph unicode="&#xfe;" horiz-adv-x="991" d="M35 -231h125v1523h-125v133h309v-626q26 75 88 120.5t154 45.5q151 0 239 -123.5t88 -372.5t-88 -370.5t-237 -121.5q-93 0 -155.5 45.5t-88.5 122.5v-376h141v-131h-450v131zM344 469q0 -177 50.5 -259.5t140.5 -82.5q188 0 188 342t-188 342q-191 0 -191 -342z" />
<glyph unicode="&#xff;" horiz-adv-x="974" d="M25 807v135h387v-135h-107l182 -584q23 -70 27 -86q12 45 23 86l182 584h-105v135h336v-135h-86l-301 -940q-44 -136 -125 -194t-198 -58q-75 0 -125 14v133q62 -4 96 -4q74 0 125.5 28t81.5 103l-303 918h-90zM217 1255q0 50 34 83.5t85 33.5q50 0 83.5 -34t33.5 -83 t-33.5 -82.5t-83.5 -33.5q-51 0 -85 33t-34 83zM571 1255q0 49 33.5 83t83.5 34t83.5 -34t33.5 -83t-33.5 -82.5t-83.5 -33.5t-83.5 33.5t-33.5 82.5z" />
<glyph unicode="&#x152;" horiz-adv-x="1646" d="M90 676q0 353 140.5 525.5t394.5 172.5q82 0 168 -22h755v-332h-176v190h-389v-444h328v-141h-328v-484h406v199h176v-340h-770q-94 -23 -170 -23q-254 0 -394.5 172.5t-140.5 526.5zM295 676q1 -132 17.5 -229.5t45 -158t72 -97.5t91.5 -50.5t110 -13.5q64 0 149 16 v1065q-90 17 -149 17q-62 0 -110 -14t-91.5 -51t-72 -98t-45 -158t-17.5 -228z" />
<glyph unicode="&#x153;" horiz-adv-x="1456" d="M74 471q0 126 30.5 222.5t83.5 155t120.5 87.5t146.5 29q199 0 290 -164q98 164 287 164q157 0 252.5 -113.5t95.5 -321.5q0 -52 -8 -110h-530q13 -148 79 -215.5t179 -67.5q108 0 205 72l65 -94q-112 -138 -301 -138q-215 0 -317 175q-97 -175 -297 -175 q-79 0 -146.5 29.5t-120.5 88t-83.5 155t-30.5 221.5zM266 471q0 -191 49.5 -272.5t143.5 -81.5q92 0 142 81.5t50 272.5q0 190 -50 271t-142 81q-94 0 -143.5 -81t-49.5 -271zM840 545h364q-3 280 -178 280q-172 0 -186 -280z" />
<glyph unicode="&#x178;" horiz-adv-x="1220" d="M14 1210v142h488v-142h-148l213 -403q26 -48 62 -133q18 50 61 133l213 403h-145v142h448v-142h-121l-368 -684v-385h180v-141h-563v141h182v381l-381 688h-121zM311 1597q0 51 34 84t85 33q50 0 83.5 -33t33.5 -84q0 -49 -33.5 -81.5t-83.5 -32.5q-51 0 -85 32.5 t-34 81.5zM702 1597q0 51 33.5 84t83.5 33t83.5 -33t33.5 -84q0 -49 -33.5 -81.5t-83.5 -32.5t-83.5 32.5t-33.5 81.5z" />
<glyph unicode="&#x2c6;" horiz-adv-x="720" d="M55 1075l238 363h137l236 -363h-136l-170 191l-167 -191h-138z" />
<glyph unicode="&#x2dc;" horiz-adv-x="741" d="M55 1180q0 96 49.5 153.5t131.5 57.5q72 0 133 -50l43 -34q48 -39 82 -39q61 0 61 82v30h127q4 -40 4 -61q0 -94 -51 -151.5t-131 -57.5q-66 0 -133 49l-43 35q-21 17 -29 23t-22.5 12t-30.5 6q-62 0 -62 -82v-33h-125q-4 40 -4 60z" />
<glyph unicode="&#x2000;" horiz-adv-x="920" />
<glyph unicode="&#x2001;" horiz-adv-x="1841" />
<glyph unicode="&#x2002;" horiz-adv-x="920" />
<glyph unicode="&#x2003;" horiz-adv-x="1841" />
<glyph unicode="&#x2004;" horiz-adv-x="613" />
<glyph unicode="&#x2005;" horiz-adv-x="460" />
<glyph unicode="&#x2006;" horiz-adv-x="306" />
<glyph unicode="&#x2007;" horiz-adv-x="306" />
<glyph unicode="&#x2008;" horiz-adv-x="230" />
<glyph unicode="&#x2009;" horiz-adv-x="368" />
<glyph unicode="&#x200a;" horiz-adv-x="102" />
<glyph unicode="&#x2010;" horiz-adv-x="526" d="M66 430v145h395v-145h-395z" />
<glyph unicode="&#x2011;" horiz-adv-x="526" d="M66 430v145h395v-145h-395z" />
<glyph unicode="&#x2012;" horiz-adv-x="526" d="M66 430v145h395v-145h-395z" />
<glyph unicode="&#x2013;" horiz-adv-x="931" d="M66 434v135h800v-135h-800z" />
<glyph unicode="&#x2014;" horiz-adv-x="1863" d="M66 434v135h1732v-135h-1732z" />
<glyph unicode="&#x2018;" horiz-adv-x="538" d="M106 1065q0 125 89.5 214t230.5 128l39 -90q-209 -84 -225 -232q22 9 36 9q50 0 83.5 -34t33.5 -87q0 -52 -34.5 -84.5t-86.5 -32.5q-65 0 -115.5 56t-50.5 153z" />
<glyph unicode="&#x2019;" horiz-adv-x="538" d="M74 940q209 85 225 229q-18 -6 -39 -6q-48 0 -80.5 33t-32.5 86t33.5 86t85.5 33q65 0 115.5 -56t50.5 -153q0 -125 -89 -215t-230 -129z" />
<glyph unicode="&#x201a;" horiz-adv-x="538" d="M74 -231q209 89 225 231q-18 -6 -39 -6q-48 0 -80.5 33t-32.5 86t33.5 85.5t85.5 32.5q65 0 115.5 -55.5t50.5 -152.5q0 -125 -89 -215.5t-230 -129.5z" />
<glyph unicode="&#x201c;" horiz-adv-x="929" d="M106 1065q0 125 89.5 214t230.5 128l39 -90q-209 -84 -225 -232q22 9 36 9q50 0 83.5 -34t33.5 -87q0 -52 -34.5 -84.5t-86.5 -32.5q-65 0 -115.5 56t-50.5 153zM498 1065q0 125 89 214t230 128l39 -90q-93 -38 -153.5 -96.5t-69.5 -133.5q17 7 37 7q48 0 81 -34t33 -87 q0 -52 -34 -84.5t-84 -32.5q-67 0 -117.5 56t-50.5 153z" />
<glyph unicode="&#x201d;" horiz-adv-x="929" d="M74 940q209 85 225 229q-18 -6 -39 -6q-48 0 -80.5 33t-32.5 86t33.5 86t85.5 33q65 0 115.5 -56t50.5 -153q0 -125 -89 -215t-230 -129zM465 940q95 38 155.5 96t69.5 133q-15 -6 -37 -6q-50 0 -82 33t-32 86t33 86t85 33q65 0 115.5 -56t50.5 -153q0 -125 -88.5 -215 t-230.5 -129z" />
<glyph unicode="&#x201e;" horiz-adv-x="929" d="M74 -231q209 89 225 231q-18 -6 -39 -6q-48 0 -80.5 33t-32.5 86t33.5 85.5t85.5 32.5q65 0 115.5 -55.5t50.5 -152.5q0 -125 -89 -215.5t-230 -129.5zM465 -231q209 84 225 231q-15 -6 -37 -6q-50 0 -82 33t-32 86t33 85.5t85 32.5q65 0 115.5 -55.5t50.5 -152.5 q0 -126 -88.5 -216t-230.5 -129z" />
<glyph unicode="&#x2022;" horiz-adv-x="819" d="M88 502q0 133 94 227t228 94t227.5 -93.5t93.5 -227.5t-94 -228t-227 -94q-134 0 -228 94t-94 228z" />
<glyph unicode="&#x2026;" horiz-adv-x="1245" d="M96 106q0 56 37 93t94 37q55 0 92 -37t37 -93t-37 -92.5t-92 -36.5q-57 0 -94 36.5t-37 92.5zM494 106q0 56 36 93t93 37q55 0 92 -37t37 -93t-37 -92.5t-92 -36.5q-57 0 -93 36.5t-36 92.5zM889 106q0 56 37 93t94 37q55 0 92 -37t37 -93t-36.5 -92.5t-92.5 -36.5 q-57 0 -94 36.5t-37 92.5z" />
<glyph unicode="&#x202f;" horiz-adv-x="368" />
<glyph unicode="&#x2039;" horiz-adv-x="550" d="M76 506l258 377l117 -64l-172 -313l172 -316l-117 -63z" />
<glyph unicode="&#x203a;" horiz-adv-x="550" d="M100 190l170 316l-170 313l115 64l258 -377l-258 -379z" />
<glyph unicode="&#x205f;" horiz-adv-x="460" />
<glyph unicode="&#x20ac;" d="M25 410v133h127q-5 68 -5 86q0 12 1.5 32.5t1.5 30.5h-125v133h141q28 147 100 246.5t173 145t229 45.5q167 0 297 -82v-308h-156v232q-52 14 -119 14q-137 0 -221.5 -70t-114.5 -223h342v-133h-358q0 -10 -1 -30.5t-1 -30.5q0 -34 4 -88h356v-133h-338q69 -277 326 -277 q138 0 254 98l63 -98q-123 -156 -344 -156q-187 0 -315 111.5t-172 321.5h-145z" />
<glyph unicode="&#x2122;" horiz-adv-x="1296" d="M27 1192v160h473v-160h-99v80h-82v-387h76v-80h-266v80h76v387h-82v-80h-96zM539 805v80h55v387h-55v80h235l90 -324q1 -2 23 -100q3 12 6.5 31t7.5 35.5t8 31.5l88 326h70h170v-80h-57v-387h57v-80h-219v80h49v381q-2 -11 -7.5 -33.5t-8.5 -34.5l-111 -393h-123 l-110 393q-1 7 -8 33t-9 41v-387h49v-80h-200z" />
<glyph unicode="&#x25fc;" horiz-adv-x="942" d="M0 0v942h942v-942h-942z" />
</font>
</defs>
</svg>
