<?xml version="1.0" encoding="UTF-8"?>
<svg xmlns="http://www.w3.org/2000/svg" xmlns:xlink="http://www.w3.org/1999/xlink" version="1.2" >
<font id="Clarendon URW Wide Light">
<font-face  font-family="Clarendon URW Wide" units-per-em="1000" ascent="668" descent="-332" font-style="normal" font-weight="300" font-stretch="normal" cap-height="668" x-height="469" underline-position="-70" underline-thickness="56" />
<missing-glyph  horiz-adv-x="250" d="" />
<glyph glyph-name="NULL" d="" />
<glyph glyph-name="CR" unicode="&#xd;" horiz-adv-x="250" d="" />
<glyph glyph-name="space" unicode="&#x20;" horiz-adv-x="250" d="" />
<glyph glyph-name="exclam" unicode="&#x21;" horiz-adv-x="313" d="M194 98 C162 98 136 72 136 42 C136 9 161 -17 194 -17 C225 -17 251 9 251 41 C251 72 225 98 194 98 L194 98 Z M218 181 C224 340 227 376 243 497 C253 595 254 601 254 617 C254 660 231 687 195 687 C158 687 136 660 136 617 C136 601 136 596 147 497 C164 377 166 340 172 181 L218 181 Z " />
<glyph glyph-name="quotedbl" unicode="&#x22;" horiz-adv-x="342" d="M125 399 L139 667 L47 667 L61 399 L125 399 Z M280 399 L294 667 L202 667 L216 399 L280 399 Z " />
<glyph glyph-name="numbersign" unicode="&#x23;" horiz-adv-x="630" d="M573 274 L459 274 L481 405 L594 405 L604 474 L490 474 L522 667 L440 667 L408 474 L269 474 L301 667 L220 667 L188 474 L72 474 L63 405 L178 405 L156 274 L40 274 L30 205 L146 205 L112 0 L193 0 L227 205 L365 205 L330 0 L415 0 L448 205 L563 205 L573 274 Z M397 405 L377 274 L238 274 L259 405 L397 405 Z " />
<glyph glyph-name="dollar" unicode="&#x24;" horiz-adv-x="641" d="M284 -104 L335 -104 L335 -2 C432 9 475 20 518 49 C563 78 588 122 588 173 C588 224 562 267 514 294 C472 317 436 329 335 349 L335 559 C418 556 463 540 485 505 C449 499 434 485 434 454 C434 422 457 402 493 402 C534 402 561 427 561 466 C561 492 548 519 523 543 C482 582 435 597 335 606 L335 681 L284 681 L284 606 C200 595 163 583 123 555 C82 526 59 485 59 441 C59 397 83 354 122 328 C159 303 194 291 284 272 L284 48 C174 60 139 73 111 115 C158 119 178 136 178 171 C178 203 152 225 114 225 C71 225 42 195 42 150 C42 112 65 73 103 47 C141 21 183 10 284 -2 L284 -104 Z M284 361 C226 372 203 378 181 391 C155 405 140 431 140 459 C140 487 154 512 179 529 C203 545 227 552 284 561 L284 361 Z M335 263 C402 251 430 243 457 229 C489 212 506 187 506 156 C506 121 485 90 449 73 C421 60 396 55 335 48 L335 263 Z " />
<glyph glyph-name="percent" unicode="&#x25;" horiz-adv-x="1001" d="M232 622 C118 622 36 542 36 433 C36 317 117 238 234 238 C347 238 428 318 428 430 C428 543 347 622 232 622 L232 622 Z M234 571 C299 571 342 515 342 430 C342 344 299 289 232 289 C166 289 122 346 122 430 C122 517 165 571 234 571 L234 571 Z M339 -17 L731 622 L666 622 L274 -17 L339 -17 Z M773 366 C659 366 577 287 577 177 C577 62 658 -17 775 -17 C888 -17 969 63 969 175 C969 287 888 366 773 366 L773 366 Z M775 315 C840 315 883 259 883 175 C883 89 840 34 773 34 C707 34 663 90 663 174 C663 261 706 315 775 315 L775 315 Z " />
<glyph glyph-name="ampersand" unicode="&#x26;" horiz-adv-x="860" d="M760 201 C755 151 753 137 745 114 C733 77 702 54 663 54 C627 54 602 67 557 107 C608 159 634 196 678 275 C709 335 730 350 788 352 L814 352 L814 405 L508 405 L508 352 L536 352 C588 352 614 338 614 311 C614 274 584 225 515 151 C446 227 433 244 349 373 C408 404 432 423 460 454 C489 489 503 524 503 561 C503 634 441 687 355 687 C261 687 187 619 187 532 C187 496 196 466 226 396 C169 368 132 346 109 325 C65 285 41 234 41 181 C41 130 65 76 104 41 C145 5 216 -20 280 -20 C353 -20 413 -1 485 43 C544 -3 584 -19 644 -19 C691 -19 730 -6 758 20 C797 56 812 101 815 201 L760 201 Z M438 89 C374 57 341 47 303 47 C211 47 140 112 140 196 C140 256 169 289 260 333 C345 196 362 172 438 89 L438 89 Z M314 431 C284 480 274 506 274 541 C274 597 305 632 353 632 C397 632 428 602 428 560 C428 508 406 483 314 431 L314 431 Z " />
<glyph glyph-name="quotesingle" unicode="&#x27;" horiz-adv-x="187" d="M125 399 L139 667 L47 667 L61 399 L125 399 Z " />
<glyph glyph-name="parenleft" unicode="&#x28;" horiz-adv-x="375" d="M350 -154 C286 -123 253 -96 211 -39 C159 33 132 130 132 248 C132 354 156 450 200 517 C242 582 281 616 350 649 L350 687 C262 653 220 625 164 562 C90 477 52 372 52 247 C52 132 85 32 149 -49 C206 -121 256 -156 350 -192 L350 -154 Z " />
<glyph glyph-name="parenright" unicode="&#x29;" horiz-adv-x="375" d="M21 -192 C109 -159 151 -131 207 -68 C281 17 319 123 319 247 C319 362 286 462 222 543 C165 615 115 650 21 686 L21 648 C85 617 117 591 159 533 C211 461 238 364 238 247 C238 139 214 44 171 -23 C128 -88 89 -122 21 -155 L21 -192 Z " />
<glyph glyph-name="asterisk" unicode="&#x2a;" horiz-adv-x="521" d="M271 469 C317 440 322 435 341 409 C361 379 363 377 369 372 C382 360 397 354 411 354 C435 354 458 380 458 406 C458 421 449 435 434 443 C419 451 410 452 368 455 C350 456 335 458 329 461 C324 462 310 468 291 477 C289 477 285 479 280 481 C308 499 334 507 367 509 C417 512 417 512 433 521 C449 530 458 543 458 557 C458 583 433 610 410 610 C386 610 372 599 340 554 C329 539 321 529 316 526 C304 518 293 510 282 501 C281 501 276 497 272 494 C273 540 276 553 291 582 C313 625 313 625 313 642 C313 669 294 687 264 687 C234 687 213 669 213 644 C213 628 217 618 235 581 C243 566 249 551 250 546 C251 542 252 528 254 507 C254 505 255 500 256 495 C210 524 204 529 185 555 C154 601 141 611 115 611 C91 611 68 585 68 558 C68 543 77 530 92 522 C108 514 114 513 158 510 C191 507 195 506 235 488 C237 487 241 485 246 483 C214 465 192 458 159 455 C108 452 108 452 93 444 C77 435 68 422 68 407 C68 381 93 354 117 354 C140 354 155 366 186 410 C197 425 205 435 211 439 L244 463 C246 464 250 467 254 470 C253 427 250 411 236 383 C213 340 213 340 213 323 C213 296 232 278 262 278 C292 278 313 296 313 321 C313 337 309 347 291 383 C283 398 277 413 276 418 C275 423 274 437 272 458 L271 469 Z " />
<glyph glyph-name="plus" unicode="&#x2b;" horiz-adv-x="532" d="M55 342 L55 276 L228 276 L228 114 L304 114 L304 276 L477 276 L477 342 L304 342 L304 504 L228 504 L228 342 L55 342 Z " />
<glyph glyph-name="comma" unicode="&#x2c;" horiz-adv-x="318" d="M83 -146 C138 -136 163 -125 189 -98 C215 -71 230 -33 230 6 C230 59 197 95 148 95 C112 95 88 72 88 39 C88 9 109 -11 140 -11 C154 -11 163 -8 181 3 L181 -12 C181 -35 175 -53 160 -72 C142 -95 124 -104 83 -111 L83 -146 Z " />
<glyph glyph-name="hyphen" unicode="&#x2d;" horiz-adv-x="271" d="M0 201 L271 201 L271 275 L0 275 L0 201 Z " />
<glyph glyph-name="period" unicode="&#x2e;" horiz-adv-x="293" d="M147 101 C115 101 88 75 88 43 C88 9 114 -17 148 -17 C180 -17 206 10 206 42 C206 74 179 101 147 101 L147 101 Z " />
<glyph glyph-name="slash" unicode="&#x2f;" horiz-adv-x="367" d="M70 -92 L325 686 L267 686 L12 -92 L70 -92 Z " />
<glyph glyph-name="zero" unicode="0" horiz-adv-x="641" d="M321 622 C155 622 36 490 36 307 C36 115 153 -17 323 -17 C488 -17 605 116 605 303 C605 491 488 622 321 622 L321 622 Z M321 569 C375 569 426 543 454 501 C485 454 503 382 503 303 C503 223 485 150 454 104 C426 63 373 36 321 36 C206 36 138 137 138 306 C138 382 157 455 187 501 C216 544 265 569 321 569 L321 569 Z " />
<glyph glyph-name="one" unicode="1" horiz-adv-x="641" d="M130 0 L520 0 L520 51 L472 51 C383 53 374 59 375 120 L375 622 L323 622 C294 546 262 527 143 518 L143 469 L285 469 L285 121 C286 57 281 54 188 51 L130 51 L130 0 Z " />
<glyph glyph-name="two" unicode="2" horiz-adv-x="641" d="M103 0 C107 50 123 66 168 66 C198 66 205 64 262 35 L315 9 C352 -10 382 -18 413 -18 C454 -18 488 -6 513 18 C552 55 567 103 571 201 L523 201 C520 106 498 75 434 75 C409 75 378 80 349 88 L278 109 C236 121 224 123 199 123 C173 123 159 120 129 107 C177 179 192 189 318 227 C398 251 450 271 477 286 C524 313 556 371 556 432 C556 546 458 622 309 622 C231 622 168 601 122 561 C87 530 66 488 66 448 C66 401 99 365 141 365 C178 365 206 392 206 428 C206 463 185 482 146 482 L130 482 C153 517 171 535 191 546 C217 560 253 568 290 568 C392 568 456 518 456 438 C456 372 429 344 327 304 C186 246 129 211 95 161 C61 109 52 74 53 0 L103 0 Z " />
<glyph glyph-name="three" unicode="3" horiz-adv-x="641" d="M243 299 C328 297 364 293 395 281 C444 263 470 225 470 171 C470 86 403 39 281 39 C200 39 163 54 114 106 C163 110 183 126 183 163 C183 196 157 219 119 219 C73 219 41 188 41 143 C41 55 155 -17 292 -17 C460 -17 575 59 575 170 C575 212 559 247 526 277 C497 302 472 314 413 327 C459 339 478 346 499 360 C534 382 556 422 556 463 C556 558 458 622 312 622 C182 622 69 554 69 477 C69 438 97 411 138 411 C177 411 201 432 201 467 C201 498 187 513 150 521 C205 558 245 571 302 571 C397 571 456 527 456 457 C456 412 432 380 387 366 C359 357 327 354 243 352 L243 299 Z " />
<glyph glyph-name="four" unicode="4" horiz-adv-x="641" d="M232 0 L598 0 L598 51 L539 51 C472 52 461 61 462 110 L462 180 L598 180 L598 237 L462 237 L462 622 L403 622 L31 231 L31 180 L375 180 L375 106 C373 58 365 52 298 51 L232 51 L232 0 Z M375 237 L115 237 L375 509 L375 237 Z " />
<glyph glyph-name="five" unicode="5" horiz-adv-x="641" d="M165 519 C228 510 258 508 297 508 C350 508 392 513 431 523 C484 538 510 560 549 622 C444 597 397 591 320 591 C247 591 205 597 111 620 L84 305 L135 305 C197 350 235 364 293 364 C405 364 475 303 475 205 C475 102 402 38 284 38 C254 38 223 43 197 51 C170 60 155 71 123 102 C172 107 192 124 192 159 C192 193 164 218 126 218 C82 218 51 186 51 141 C51 51 157 -17 296 -17 C373 -17 440 2 494 40 C551 80 577 132 577 206 C577 339 478 422 320 422 C264 422 228 413 153 382 L165 519 Z " />
<glyph glyph-name="six" unicode="6" horiz-adv-x="641" d="M475 539 C445 526 432 510 432 486 C432 455 461 431 498 431 C538 431 563 457 563 497 C563 568 473 622 353 622 C177 622 57 485 57 283 C57 194 83 119 133 63 C182 7 244 -17 334 -17 C486 -17 589 68 589 194 C589 309 489 395 355 395 C285 395 238 376 168 319 C174 415 186 460 216 502 C248 546 301 571 363 571 C404 571 433 563 475 539 L475 539 Z M330 336 C428 336 486 279 486 185 C486 95 424 38 326 38 C229 38 169 97 169 191 C169 280 232 336 330 336 L330 336 Z " />
<glyph glyph-name="seven" unicode="7" horiz-adv-x="641" d="M371 -5 C371 208 376 226 485 380 C604 546 604 546 611 605 L555 605 C545 575 528 563 495 563 C477 563 455 569 414 584 C355 605 321 613 285 613 C224 613 188 594 136 534 L136 605 L78 605 L78 353 L132 353 C135 437 140 461 156 484 C176 511 212 527 251 527 C264 527 276 526 285 523 C387 498 392 497 426 497 C454 497 472 501 510 514 C468 455 463 449 407 389 C287 262 262 192 264 -5 L371 -5 Z " />
<glyph glyph-name="eight" unicode="8" horiz-adv-x="641" d="M191 307 C144 289 112 273 94 258 C60 230 42 194 42 153 C42 51 150 -17 314 -17 C477 -17 592 59 592 166 C592 201 579 233 553 261 C530 287 496 307 431 332 C471 347 497 360 513 372 C547 397 565 431 565 470 C565 558 461 622 318 622 C172 622 69 551 69 450 C69 384 102 345 191 307 L191 307 Z M364 256 C464 229 500 200 500 147 C500 80 428 39 313 39 C202 39 125 87 125 156 C125 186 140 216 164 236 C189 256 214 267 275 281 L364 256 Z M258 379 C186 399 157 425 157 471 C157 530 222 570 318 570 C420 570 482 533 482 473 C482 441 467 411 442 392 C423 376 402 367 354 354 L258 379 Z " />
<glyph glyph-name="nine" unicode="9" horiz-adv-x="641" d="M165 66 C195 78 208 95 208 119 C208 150 179 174 142 174 C102 174 77 148 77 108 C77 37 167 -17 287 -17 C463 -17 583 120 583 322 C583 411 557 486 507 542 C458 598 396 622 306 622 C154 622 51 536 51 410 C51 295 151 209 285 209 C355 209 402 228 472 286 C466 189 454 145 424 103 C392 59 339 34 278 34 C238 34 209 42 165 66 L165 66 Z M314 567 C347 567 383 557 409 541 C450 516 471 473 471 414 C471 325 409 268 310 268 C212 268 154 325 154 420 C154 510 216 567 314 567 L314 567 Z " />
<glyph glyph-name="colon" unicode="&#x3a;" horiz-adv-x="313" d="M195 101 C163 101 136 75 136 43 C136 9 162 -17 196 -17 C228 -17 254 10 254 42 C254 74 227 101 195 101 L195 101 Z M195 449 C163 449 136 423 136 391 C136 357 162 331 196 331 C228 331 254 358 254 390 C254 422 227 449 195 449 L195 449 Z " />
<glyph glyph-name="semicolon" unicode="&#x3b;" horiz-adv-x="313" d="M209 446 C177 446 151 420 151 390 C151 357 177 331 209 331 C240 331 266 357 266 389 C266 420 240 446 209 446 L209 446 Z M136 -146 C191 -136 216 -125 242 -98 C268 -71 283 -33 283 6 C283 59 250 95 201 95 C165 95 141 72 141 39 C141 9 162 -11 193 -11 C207 -11 216 -8 234 3 L234 -12 C234 -35 228 -53 213 -72 C195 -95 177 -104 136 -111 L136 -146 Z " />
<glyph glyph-name="less" unicode="&#x3c;" horiz-adv-x="525" d="M490 578 L35 371 L35 296 L490 89 L490 175 L132 333 L490 492 L490 578 Z " />
<glyph glyph-name="equal" unicode="&#x3d;" horiz-adv-x="532" d="M55 426 L55 363 L477 363 L477 426 L55 426 Z M55 274 L55 211 L477 211 L477 274 L55 274 Z " />
<glyph glyph-name="greater" unicode="&#x3e;" horiz-adv-x="525" d="M35 578 L35 492 L393 333 L35 175 L35 89 L490 296 L490 371 L35 578 Z " />
<glyph glyph-name="question" unicode="&#x3f;" horiz-adv-x="537" d="M257 98 C225 98 199 72 199 42 C199 9 225 -17 257 -17 C288 -17 314 9 314 41 C314 72 288 98 257 98 L257 98 Z M283 180 C289 265 294 274 371 329 C439 376 459 394 482 427 C500 452 510 484 510 515 C510 617 417 687 282 687 C148 687 52 615 52 515 C52 455 89 412 140 412 C180 412 206 435 206 469 C206 500 185 520 152 520 C136 520 127 517 108 507 C109 547 117 567 144 590 C173 617 222 633 271 633 C357 633 415 587 415 520 C415 473 396 440 345 397 C242 311 232 292 230 180 L283 180 Z " />
<glyph glyph-name="at" unicode="&#x40;" horiz-adv-x="784" d="M523 494 L511 435 C490 483 453 506 397 506 C296 506 213 414 213 303 C213 210 275 142 361 142 C414 142 462 167 492 211 C498 172 528 147 570 147 C662 147 743 258 743 383 C743 554 601 680 410 680 C203 680 42 527 42 332 C42 238 81 146 149 83 C217 19 307 -13 418 -13 C503 -13 581 2 650 31 L634 85 C565 56 496 42 416 42 C317 42 243 69 186 125 C132 179 101 253 101 331 C101 497 236 626 412 626 C574 626 689 525 689 383 C689 287 633 197 574 197 C552 197 536 216 537 241 C538 252 540 267 544 286 L586 494 L523 494 Z M403 443 C456 443 490 407 490 349 C490 267 439 202 374 202 C319 202 281 243 281 304 C281 380 337 443 403 443 L403 443 Z " />
<glyph glyph-name="A" unicode="A" horiz-adv-x="735" d="M-21 0 L281 0 L281 53 L228 53 C175 53 162 58 162 78 C162 90 167 108 176 130 L215 223 L482 223 L526 110 C531 97 534 85 534 79 C534 59 519 53 473 53 L417 53 L417 0 L748 0 L748 53 L719 53 C668 54 650 67 632 114 L410 667 L322 667 L96 111 C77 64 62 54 13 53 L-21 53 L-21 0 Z M236 276 L346 561 L459 276 L236 276 Z " />
<glyph glyph-name="B" unicode="B" horiz-adv-x="751" d="M31 0 L393 0 C502 0 567 13 621 46 C672 78 699 124 699 183 C699 240 673 288 626 316 C595 334 570 342 508 352 C564 365 586 373 612 390 C653 415 675 456 675 505 C675 610 583 667 411 667 L31 667 L31 614 L75 614 C144 612 153 604 151 541 L151 126 C153 63 144 55 75 53 L31 53 L31 0 Z M248 53 L248 322 L393 322 C474 322 507 315 543 292 C579 269 599 232 599 189 C599 100 529 53 393 53 L248 53 Z M248 375 L248 614 L402 614 C454 614 491 608 516 594 C554 574 576 538 576 494 C576 419 508 375 393 375 L248 375 Z " />
<glyph glyph-name="C" unicode="C" horiz-adv-x="740" d="M625 243 C612 174 600 144 572 110 C534 65 474 41 403 41 C323 41 256 71 214 127 C173 180 150 255 150 334 C150 506 252 631 392 631 C462 631 527 602 571 550 C605 511 617 480 628 408 L681 408 L681 667 L633 667 L607 607 C516 669 468 687 388 687 C191 687 42 534 42 331 C42 226 80 134 152 68 C216 9 294 -20 391 -20 C496 -20 571 9 623 69 C662 113 676 153 687 243 L625 243 Z " />
<glyph glyph-name="D" unicode="D" horiz-adv-x="824" d="M31 0 L368 0 C543 0 615 18 684 79 C751 138 788 230 788 336 C788 447 746 541 672 599 C603 653 539 667 370 667 L31 667 L31 614 L75 614 C144 612 153 604 151 541 L151 126 C153 63 144 55 75 53 L31 53 L31 0 Z M248 614 L370 614 C492 614 560 593 613 539 C659 492 680 430 680 341 C680 246 655 168 610 124 C561 78 478 53 368 53 L248 53 L248 614 Z " />
<glyph glyph-name="E" unicode="E" horiz-adv-x="777" d="M31 0 L694 0 L694 271 L640 271 C633 88 606 56 452 53 L247 53 L247 323 L319 323 C417 320 428 306 433 178 L487 178 L487 505 L433 505 C432 392 416 374 320 376 L247 376 L247 614 L439 614 C600 613 637 578 640 416 L694 416 L694 667 L31 667 L31 614 L75 614 C143 612 151 604 150 541 L150 126 C151 63 143 55 75 53 L31 53 L31 0 Z " />
<glyph glyph-name="F" unicode="F" horiz-adv-x="714" d="M31 0 L375 0 L375 53 L322 53 C254 55 246 63 247 126 L247 323 L303 323 C401 320 412 306 417 178 L470 178 L470 505 L417 505 C416 392 400 374 304 376 L247 376 L247 614 L416 614 C581 613 616 576 617 401 L671 401 L671 667 L31 667 L31 614 L75 614 C143 612 151 604 150 541 L150 126 C151 63 143 55 75 53 L31 53 L31 0 Z " />
<glyph glyph-name="G" unicode="G" horiz-adv-x="813" d="M697 -7 L697 232 C697 283 706 290 772 289 L814 289 L814 342 L462 342 L462 289 L519 289 C589 288 598 282 600 232 L600 191 C600 156 592 131 572 108 C538 68 466 41 396 41 C241 41 150 150 150 334 C150 514 243 631 387 631 C449 631 508 607 552 565 C589 529 606 497 629 421 L683 421 L683 667 L635 667 L600 602 C513 669 468 687 381 687 C182 687 42 539 42 329 C42 121 178 -19 381 -19 C463 -19 512 -3 607 56 L645 -7 L697 -7 Z " />
<glyph glyph-name="H" unicode="H" horiz-adv-x="871" d="M30 0 L374 0 L374 53 L321 53 C253 55 245 63 246 126 L246 311 L625 311 L625 126 C627 63 618 55 550 53 L497 53 L497 0 L841 0 L841 53 L797 53 C729 55 720 63 722 126 L722 541 C720 604 729 612 797 614 L841 614 L841 667 L497 667 L497 614 L550 614 C618 612 627 604 625 541 L625 364 L246 364 L246 541 C245 604 253 612 321 614 L374 614 L374 667 L30 667 L30 614 L74 614 C142 612 151 604 149 541 L149 126 C150 63 142 55 74 53 L30 53 L30 0 Z " />
<glyph glyph-name="I" unicode="I" horiz-adv-x="407" d="M31 0 L376 0 L376 53 L328 53 C259 55 250 63 252 126 L252 541 C250 604 259 612 328 614 L376 614 L376 667 L31 667 L31 614 L79 614 C147 612 156 604 154 541 L154 126 C156 63 147 55 79 53 L31 53 L31 0 Z " />
<glyph glyph-name="J" unicode="J" horiz-adv-x="568" d="M204 614 L255 614 C323 612 332 604 330 541 L330 179 C330 132 320 97 301 75 C279 51 240 36 198 36 C148 36 119 49 86 84 C135 87 158 108 158 148 C158 186 131 212 91 212 C43 212 10 178 10 130 C10 93 29 55 60 28 C98 -4 147 -19 211 -19 C293 -19 349 2 386 45 C418 82 427 119 427 210 L427 541 C425 604 434 612 503 614 L538 614 L538 667 L204 667 L204 614 Z " />
<glyph glyph-name="K" unicode="K" horiz-adv-x="803" d="M375 53 L322 53 C254 55 246 63 247 126 L247 237 L351 323 L546 121 C583 83 583 82 583 73 C583 60 569 53 542 53 L462 53 L462 0 L842 0 L842 53 L810 53 C752 56 730 66 689 111 L426 384 L602 536 C677 596 709 611 763 614 L805 614 L805 667 L454 667 L454 614 L507 614 C543 614 559 608 559 594 C559 585 552 575 541 565 L247 318 L247 541 C246 604 254 612 322 614 L375 614 L375 667 L31 667 L31 614 L75 614 C143 612 151 604 150 541 L150 126 C151 63 143 55 75 53 L31 53 L31 0 L375 0 L375 53 Z " />
<glyph glyph-name="L" unicode="L" horiz-adv-x="714" d="M31 667 L31 614 L75 614 C144 612 151 604 150 541 L150 126 C152 63 143 55 75 53 L31 53 L31 0 L671 0 L671 277 L617 277 C618 91 584 54 416 53 L247 53 L247 541 C246 604 254 612 322 614 L375 614 L375 667 L31 667 Z " />
<glyph glyph-name="M" unicode="M" horiz-adv-x="991" d="M31 614 L72 614 C140 612 149 604 147 541 L147 126 C149 63 140 55 72 53 L31 53 L31 0 L337 0 L337 53 L289 53 C221 55 212 63 214 126 L214 600 L462 0 L502 0 L750 586 L750 126 C752 63 743 55 675 53 L625 53 L625 0 L964 0 L964 53 L920 53 C851 55 842 63 844 126 L844 541 C842 604 851 612 920 614 L964 614 L964 667 L722 667 L500 145 L286 667 L31 667 L31 614 Z " />
<glyph glyph-name="N" unicode="N" horiz-adv-x="865" d="M732 -3 L732 541 C731 604 738 612 807 614 L841 614 L841 667 L534 667 L534 614 L590 614 C658 612 667 604 665 541 L665 131 L264 667 L31 667 L31 614 L72 614 C140 612 149 604 147 541 L147 126 C149 63 140 55 72 53 L31 53 L31 0 L342 0 L342 53 L289 53 C221 55 212 63 214 126 L214 577 L646 -3 L732 -3 Z " />
<glyph glyph-name="O" unicode="O" horiz-adv-x="834" d="M418 687 C203 687 42 537 42 339 C42 130 198 -19 418 -19 C634 -19 793 131 793 334 C793 538 634 687 418 687 L418 687 Z M418 632 C498 632 566 602 616 546 C662 493 685 423 685 334 C685 154 580 36 418 36 C337 36 268 66 219 122 C172 177 150 245 150 338 C150 515 257 632 418 632 L418 632 Z " />
<glyph glyph-name="P" unicode="P" horiz-adv-x="714" d="M375 53 L322 53 C254 55 246 63 247 126 L247 302 L365 302 C487 302 540 310 590 336 C643 363 675 419 675 485 C675 552 645 604 592 632 C540 658 480 667 356 667 L31 667 L31 614 L75 614 C143 612 151 604 150 541 L150 126 C151 63 143 55 75 53 L31 53 L31 0 L375 0 L375 53 Z M247 355 L247 614 L358 614 C421 614 461 610 491 600 C546 583 574 546 574 489 C574 397 509 355 365 355 L247 355 Z " />
<glyph glyph-name="Q" unicode="Q" horiz-adv-x="860" d="M808 113 C796 38 773 9 724 9 C697 9 678 19 647 52 C694 91 719 117 738 144 C773 198 793 264 793 333 C793 537 634 687 418 687 C201 687 42 538 42 333 C42 127 199 -19 421 -19 C472 -19 501 -14 564 5 C613 -50 648 -68 704 -68 C753 -68 790 -49 820 -10 C845 24 855 54 861 113 L808 113 Z M597 106 C556 158 536 179 509 200 C474 226 432 240 390 240 C318 240 261 195 261 137 C261 122 265 101 272 76 C226 112 205 133 189 163 C164 208 150 270 150 336 C150 514 256 632 418 632 C579 632 685 514 685 336 C685 283 675 231 659 192 C646 161 632 142 597 106 L597 106 Z M527 57 C475 40 449 35 420 35 C356 35 313 66 313 113 C313 151 341 176 383 176 C432 176 469 146 527 57 L527 57 Z " />
<glyph glyph-name="R" unicode="R" horiz-adv-x="808" d="M375 53 L322 53 C254 55 246 63 247 126 L247 320 L383 320 C495 319 545 275 549 174 L552 92 C556 19 593 -20 658 -20 C714 -20 746 -1 763 42 C775 72 779 98 780 163 L730 163 C726 64 720 45 689 45 C662 45 654 66 654 140 C654 271 623 315 510 342 C578 353 606 362 638 383 C677 410 698 450 698 501 C698 555 673 602 631 626 C582 654 508 667 393 667 L31 667 L31 614 L75 614 C144 612 151 604 150 541 L150 126 C151 63 144 55 75 53 L31 53 L31 0 L375 0 L375 53 Z M247 373 L247 614 L393 614 C438 614 498 608 519 601 C569 585 597 548 597 499 C597 414 527 373 383 373 L247 373 Z " />
<glyph glyph-name="S" unicode="S" horiz-adv-x="657" d="M47 0 L100 0 L134 74 C226 0 274 -20 369 -20 C521 -20 627 66 627 189 C627 245 606 293 567 322 C528 352 474 371 382 388 L281 407 C177 427 134 459 134 518 C134 585 197 629 296 629 C367 629 429 606 471 565 C503 533 518 498 533 420 L589 420 L589 673 L541 673 L510 612 C438 667 381 687 295 687 C144 687 49 613 49 496 C49 438 71 393 114 364 C152 338 177 330 284 307 L371 289 C434 276 472 263 492 250 C522 230 537 202 537 168 C537 93 469 43 367 43 C294 43 227 69 179 118 C138 158 121 194 104 277 L47 277 L47 0 Z " />
<glyph glyph-name="T" unicode="T" horiz-adv-x="699" d="M28 405 L81 405 C88 570 126 612 268 614 L301 614 L301 126 C302 63 294 55 226 53 L159 53 L159 0 L539 0 L539 53 L473 53 C405 55 397 63 398 126 L398 614 L431 614 C572 612 610 569 617 405 L670 405 L670 667 L28 667 L28 405 Z " />
<glyph glyph-name="U" unicode="U" horiz-adv-x="798" d="M31 614 L66 614 C134 612 143 604 141 541 L141 209 C141 125 166 67 220 30 C267 -3 328 -20 401 -20 C484 -20 550 2 597 43 C644 87 665 147 665 244 L665 541 C663 604 672 612 740 614 L772 614 L772 667 L471 667 L471 614 L523 614 C591 612 600 604 598 541 L598 244 C598 163 586 120 553 91 C522 63 472 47 413 47 C294 47 238 99 238 209 L238 541 C236 604 245 612 313 614 L366 614 L366 667 L31 667 L31 614 Z " />
<glyph glyph-name="V" unicode="V" horiz-adv-x="714" d="M313 0 L393 0 L609 546 C631 603 645 613 703 614 L738 614 L738 667 L432 667 L432 614 L493 614 C535 614 550 607 550 586 C550 577 546 561 540 545 L372 118 L207 547 C202 560 199 574 199 585 C199 606 213 614 253 614 L318 614 L318 667 L-21 667 L-21 614 L11 614 C68 612 81 603 101 551 L313 0 Z " />
<glyph glyph-name="W" unicode="W" horiz-adv-x="1006" d="M267 0 L349 0 L503 437 L646 0 L727 0 L895 531 C919 603 927 611 973 614 L1001 614 L1001 667 L737 667 L737 614 L786 614 C826 614 838 607 838 584 C838 571 834 551 827 527 L701 124 L564 555 C561 565 559 576 559 586 C559 609 570 614 616 614 L663 614 L663 667 L357 667 L357 614 L392 614 C439 613 451 606 463 571 L473 537 L328 124 L203 551 C200 562 198 575 198 584 C198 606 212 614 253 614 L295 614 L295 667 L0 667 L0 614 L31 614 C78 613 88 602 114 513 L267 0 Z " />
<glyph glyph-name="X" unicode="X" horiz-adv-x="772" d="M0 0 L307 0 L307 53 L261 53 C225 53 208 61 208 79 C208 87 212 94 224 108 L366 275 L505 103 C512 94 516 84 516 76 C516 61 494 53 448 53 L412 53 L412 0 L772 0 L772 53 L744 53 C688 56 643 81 606 130 L433 353 L593 542 C635 594 665 611 714 614 L749 614 L749 667 L448 667 L448 614 L497 614 C528 614 544 607 544 594 C544 584 535 569 517 548 L391 407 L270 560 C260 573 255 583 255 591 C255 606 273 614 307 614 L347 614 L347 667 L14 667 L14 614 L43 614 C93 610 119 594 163 537 L326 330 L164 138 C107 76 71 54 26 53 L0 53 L0 0 Z " />
<glyph glyph-name="Y" unicode="Y" horiz-adv-x="667" d="M282 263 L282 126 C284 63 275 55 207 53 L140 53 L140 0 L520 0 L520 53 L454 53 C385 55 377 63 379 126 L379 263 L555 532 C598 597 621 614 665 614 L689 614 L689 667 L405 667 L405 614 L476 614 C498 614 512 607 512 596 C512 588 507 575 500 564 L346 331 L208 555 C197 571 192 584 192 593 C192 607 205 614 230 614 L295 614 L295 667 L-26 667 L-26 614 L4 614 C40 612 68 593 95 550 L282 263 Z " />
<glyph glyph-name="Z" unicode="Z" horiz-adv-x="646" d="M26 0 L595 0 L595 287 L539 287 C529 88 506 59 349 53 L149 53 L596 611 L596 667 L46 667 L46 403 L100 403 C108 576 140 615 276 614 L475 614 L26 54 L26 0 Z " />
<glyph glyph-name="bracketleft" unicode="&#x5b;" horiz-adv-x="375" d="M109 -172 L340 -172 L340 -128 L183 -128 L183 623 L340 623 L340 667 L109 667 L109 -172 Z " />
<glyph glyph-name="backslash" unicode="&#x5c;" horiz-adv-x="367" d="M297 -92 L355 -92 L100 686 L42 686 L297 -92 Z " />
<glyph glyph-name="bracketright" unicode="&#x5d;" horiz-adv-x="375" d="M31 -172 L262 -172 L262 667 L31 667 L31 623 L188 623 L188 -128 L31 -128 L31 -172 Z " />
<glyph glyph-name="asciicircum" unicode="&#x5e;" horiz-adv-x="525" d="M116 371 L262 610 L409 371 L494 371 L314 669 L211 669 L31 371 L116 371 Z " />
<glyph glyph-name="underscore" unicode="&#x5f;" horiz-adv-x="500" d="M0 -70 L0 -126 L500 -126 L500 -70 L0 -70 Z " />
<glyph glyph-name="grave" unicode="&#x60;" horiz-adv-x="514" d="M315 540 L181 686 C165 703 145 715 130 715 C110 715 93 698 93 677 C93 660 103 648 134 629 L279 540 L315 540 Z " />
<glyph glyph-name="a" unicode="a" horiz-adv-x="579" d="M528 159 C525 61 516 38 481 38 C458 38 449 54 449 95 L449 327 C449 397 437 426 398 451 C362 474 312 486 256 486 C144 486 58 431 58 361 C58 326 85 300 121 300 C154 300 179 321 179 349 C179 376 164 391 130 399 C172 431 200 441 245 441 C320 441 369 407 369 354 C369 309 349 290 285 273 L202 251 C138 234 110 224 82 205 C48 182 30 150 30 110 C30 33 92 -18 186 -18 C255 -18 303 3 370 61 C388 4 415 -17 469 -17 C515 -17 546 2 561 40 C573 68 577 95 578 159 L528 159 Z M365 199 C365 137 351 103 314 74 C288 54 246 41 209 41 C157 41 124 69 124 112 C124 133 133 152 149 166 C167 182 180 188 229 203 L270 216 C300 225 311 229 365 253 L365 199 Z " />
<glyph glyph-name="b" unicode="b" horiz-adv-x="615" d="M134 -6 L175 81 C199 49 216 31 234 19 C266 -3 308 -15 352 -15 C486 -15 577 86 577 234 C577 384 486 485 351 485 C308 485 268 474 238 455 C217 442 201 425 175 391 L175 667 L0 667 L0 619 L21 619 C80 617 91 608 90 562 L90 -6 L134 -6 Z M336 427 C428 427 481 357 481 233 C481 113 427 43 336 43 C237 43 175 118 175 238 C175 352 239 427 336 427 L336 427 Z " />
<glyph glyph-name="c" unicode="c" horiz-adv-x="537" d="M444 175 C432 130 424 111 407 91 C381 60 337 41 288 41 C187 41 127 114 127 236 C127 362 193 438 303 438 C332 438 362 432 386 421 C409 411 420 401 439 372 C399 365 382 350 382 320 C382 288 406 266 440 266 C481 266 509 294 509 336 C509 422 416 486 292 486 C139 486 31 379 31 228 C31 81 131 -18 280 -18 C355 -18 409 2 450 47 C480 80 492 109 505 175 L444 175 Z " />
<glyph glyph-name="d" unicode="d" horiz-adv-x="641" d="M336 619 L370 619 C427 618 438 609 437 562 L437 391 C416 420 400 437 385 448 C354 473 310 486 262 486 C127 486 36 385 36 234 C36 86 127 -15 260 -15 C299 -15 336 -6 367 12 C391 26 409 43 437 81 L437 0 L619 0 L619 48 L593 48 C535 50 525 58 526 105 L526 667 L336 667 L336 619 Z M276 428 C375 428 437 353 437 234 C437 119 373 43 278 43 C185 43 132 113 132 234 C132 358 184 428 276 428 L276 428 Z " />
<glyph glyph-name="e" unicode="e" horiz-adv-x="553" d="M442 154 C427 110 415 91 393 74 C366 52 327 39 285 39 C233 39 189 59 164 95 C142 126 134 157 132 226 L519 226 C515 322 502 366 464 411 C422 462 363 486 283 486 C130 486 31 387 31 233 C31 82 131 -17 285 -17 C352 -17 403 1 443 38 C474 66 488 93 504 154 L442 154 Z M136 279 C142 337 150 363 171 390 C196 421 232 437 281 437 C326 437 362 422 385 394 C405 367 413 340 416 279 L136 279 Z " />
<glyph glyph-name="f" unicode="f" horiz-adv-x="360" d="M125 420 L125 105 C126 58 115 49 56 48 L26 48 L26 0 L329 0 L329 48 L278 48 C220 50 210 58 210 105 L210 420 L329 420 L329 469 L210 469 L210 506 C210 559 213 580 222 600 C233 625 260 639 295 639 C323 639 337 634 364 614 C337 607 323 592 323 569 C323 542 347 521 378 521 C413 521 435 544 435 580 C435 641 373 684 286 684 C237 684 196 671 168 645 C137 617 125 579 125 509 L125 469 L26 469 L26 420 L125 420 Z " />
<glyph glyph-name="g" unicode="g" horiz-adv-x="678" d="M220 60 C153 60 126 71 126 98 C126 123 153 147 179 147 C182 147 187 146 192 145 C249 130 258 128 294 128 C432 128 518 197 518 307 C518 342 512 360 491 397 C522 433 542 444 575 444 C592 444 598 441 611 427 C576 421 560 406 560 379 C560 352 583 331 614 331 C649 331 674 359 674 401 C674 451 634 486 577 486 C533 486 508 474 464 432 C402 472 358 486 289 486 C159 486 72 415 72 309 C72 254 90 218 139 176 C71 140 52 119 52 79 C52 38 75 14 132 -4 C63 -21 31 -50 31 -97 C31 -131 57 -164 98 -183 C146 -205 203 -214 287 -214 C482 -214 576 -166 576 -68 C576 15 507 60 381 60 L220 60 Z M292 439 C332 439 369 426 393 404 C415 383 425 353 425 309 C425 224 380 180 293 180 C208 180 164 223 164 308 C164 390 212 439 292 439 L292 439 Z M331 -20 C446 -21 487 -38 487 -85 C487 -113 471 -131 435 -144 C402 -156 336 -164 272 -164 C173 -164 120 -138 120 -89 C120 -43 171 -20 273 -20 L331 -20 Z " />
<glyph glyph-name="h" unicode="h" horiz-adv-x="678" d="M31 619 L55 619 C114 617 125 609 124 562 L124 105 C124 58 114 50 55 48 L31 48 L31 0 L312 0 L312 48 L278 48 C219 49 209 58 209 105 L209 268 C209 319 221 352 253 384 C282 414 321 429 368 429 C447 429 475 390 475 281 L475 105 C475 58 465 50 406 48 L372 48 L372 0 L653 0 L653 48 L629 48 C570 50 559 58 560 105 L560 268 C560 357 554 389 530 423 C503 461 453 482 393 482 C354 482 316 473 284 458 C256 444 239 428 209 388 L209 667 L31 667 L31 619 Z " />
<glyph glyph-name="i" unicode="i" horiz-adv-x="344" d="M164 675 C133 675 107 650 107 620 C107 587 132 562 164 562 C195 562 220 588 220 619 C220 650 195 675 164 675 L164 675 Z M31 0 L317 0 L317 48 L289 48 C231 50 221 58 221 105 L221 469 L31 469 L31 421 L64 421 C122 419 133 410 132 364 L132 105 C133 58 122 50 64 48 L31 48 L31 0 Z " />
<glyph glyph-name="j" unicode="j" horiz-adv-x="334" d="M40 421 L74 421 C139 420 142 417 141 360 L141 -68 C141 -108 136 -128 123 -143 C110 -158 86 -167 58 -167 C35 -167 23 -163 -2 -147 C33 -140 47 -127 47 -101 C47 -71 23 -50 -10 -50 C-48 -50 -73 -76 -73 -113 C-73 -172 -15 -214 67 -214 C122 -214 164 -197 193 -164 C218 -135 226 -106 226 -45 L226 469 L40 469 L40 421 Z M167 675 C136 675 110 650 110 620 C110 587 135 562 167 562 C198 562 223 588 223 619 C223 649 197 675 167 675 L167 675 Z " />
<glyph glyph-name="k" unicode="k" horiz-adv-x="667" d="M204 229 L204 667 L26 667 L26 619 L54 619 C113 617 123 608 123 562 L123 105 C123 58 113 50 54 48 L26 48 L26 0 L297 0 L297 48 L273 48 C214 50 203 58 204 105 L204 165 L293 228 L427 89 C435 80 439 73 439 67 C439 55 417 48 379 48 L352 48 L352 0 L651 0 L651 48 L635 48 C594 49 560 63 532 93 L357 276 L489 377 C534 411 564 421 607 420 L623 420 L623 469 L316 469 L316 420 L363 420 C403 420 419 415 419 404 C419 394 408 380 388 365 L204 229 Z " />
<glyph glyph-name="l" unicode="l" horiz-adv-x="334" d="M211 667 L26 667 L26 619 L56 619 C115 617 126 609 125 562 L125 105 C126 58 115 50 56 48 L26 48 L26 0 L311 0 L311 48 L280 48 C221 50 211 58 211 105 L211 667 Z " />
<glyph glyph-name="m" unicode="m" horiz-adv-x="970" d="M31 0 L302 0 L302 48 L283 48 C226 50 215 58 216 105 L216 268 C216 327 224 351 252 383 C280 413 316 429 357 429 C429 429 451 394 451 281 L451 105 C452 58 441 50 382 48 L362 48 L362 0 L623 0 L623 48 L603 48 C545 50 535 58 535 105 L535 268 C535 327 542 351 572 383 C600 413 635 429 677 429 C749 429 771 394 771 281 L771 105 C771 58 761 50 703 48 L683 48 L683 0 L950 0 L950 48 L924 48 C865 50 855 58 855 105 L855 268 C855 364 850 393 827 426 C803 462 756 482 701 482 C631 482 591 461 525 390 C512 422 501 438 486 450 C460 470 422 482 381 482 C312 482 271 461 216 398 L216 469 L31 469 L31 421 L61 421 C118 419 129 411 128 364 L128 105 C129 58 118 50 61 48 L31 48 L31 0 Z " />
<glyph glyph-name="n" unicode="n" horiz-adv-x="683" d="M31 0 L318 0 L318 48 L284 48 C226 50 216 58 217 105 L217 268 C217 319 229 352 261 384 C290 414 329 429 374 429 C453 429 481 390 481 281 L481 105 C482 58 471 50 412 48 L378 48 L378 0 L659 0 L659 48 L635 48 C576 50 565 58 566 105 L566 268 C566 358 560 388 536 423 C509 461 460 482 399 482 C361 482 323 473 292 458 C264 444 247 428 217 388 L217 469 L31 469 L31 421 L61 421 C118 419 129 410 128 364 L128 105 C129 58 118 50 61 48 L31 48 L31 0 Z " />
<glyph glyph-name="o" unicode="o" horiz-adv-x="605" d="M302 486 C230 486 165 463 113 419 C60 375 32 313 32 238 C32 155 57 98 113 50 C163 6 230 -17 303 -17 C374 -17 441 7 491 50 C546 97 572 156 572 234 C572 313 546 372 491 419 C441 463 375 486 302 486 L302 486 Z M302 435 C413 435 475 363 475 234 C475 106 413 34 302 34 C190 34 129 106 129 237 C129 363 192 435 302 435 L302 435 Z " />
<glyph glyph-name="p" unicode="p" horiz-adv-x="636" d="M10 421 L33 421 C90 419 101 410 100 364 L100 -109 C101 -156 90 -164 33 -166 L10 -166 L10 -214 L291 -214 L291 -166 L257 -166 C199 -164 188 -156 189 -109 L189 78 C211 50 226 33 241 21 C273 -3 317 -16 365 -16 C500 -16 591 85 591 235 C591 383 500 484 367 484 C328 484 291 475 260 457 C235 443 218 426 189 388 L189 469 L10 469 L10 421 Z M349 426 C440 426 494 355 494 235 C494 112 442 42 350 42 C251 42 189 117 189 236 C189 350 253 426 349 426 L349 426 Z " />
<glyph glyph-name="q" unicode="q" horiz-adv-x="641" d="M617 -166 L593 -166 C536 -164 525 -156 526 -109 L526 364 C525 411 536 419 593 421 L617 421 L617 469 L437 469 L437 388 C413 420 396 438 378 450 C346 472 304 484 260 484 C127 484 36 383 36 235 C36 85 127 -16 261 -16 C304 -16 345 -5 375 14 C395 27 411 44 437 78 L437 -109 C438 -156 428 -164 370 -166 L336 -166 L336 -214 L617 -214 L617 -166 Z M277 426 C375 426 437 351 437 231 C437 117 373 42 276 42 C184 42 132 112 132 235 C132 356 185 426 277 426 L277 426 Z " />
<glyph glyph-name="r" unicode="r" horiz-adv-x="500" d="M335 48 L284 48 C226 50 216 58 217 105 L217 217 C217 273 226 314 246 352 C277 407 316 436 362 436 C388 436 399 431 422 408 C384 408 364 391 364 359 C364 330 389 308 422 308 C459 308 487 338 487 375 C487 438 437 483 368 483 C302 483 256 449 217 372 L217 469 L31 469 L31 421 L61 421 C118 419 129 410 128 364 L128 105 C129 58 118 50 61 48 L31 48 L31 0 L335 0 L335 48 Z " />
<glyph glyph-name="s" unicode="s" horiz-adv-x="521" d="M42 -4 L96 -4 L117 46 C177 -1 219 -16 288 -16 C409 -16 485 42 485 134 C485 206 427 256 321 275 L223 292 C163 303 132 327 132 364 C132 406 171 433 234 433 C283 433 325 418 356 390 C382 367 393 345 407 293 L459 293 L459 475 L412 475 L392 433 C332 471 289 485 227 485 C122 485 49 428 49 346 C49 275 110 221 212 202 L306 185 C373 172 403 151 403 114 C403 68 357 38 287 38 C239 38 192 55 156 85 C124 112 111 135 96 192 L42 192 L42 -4 Z " />
<glyph glyph-name="t" unicode="t" horiz-adv-x="422" d="M104 420 L104 95 C104 26 152 -17 228 -17 C284 -17 329 8 347 50 C360 79 364 106 368 192 L320 192 C319 135 315 102 307 80 C298 56 275 41 245 41 C209 41 194 58 194 95 L194 420 L343 420 L343 469 L194 469 L194 655 L145 655 C132 527 97 476 16 469 L16 420 L104 420 Z " />
<glyph glyph-name="u" unicode="u" horiz-adv-x="678" d="M26 421 L48 421 C103 419 112 411 112 364 L112 201 C112 112 118 80 143 46 C170 8 221 -13 283 -13 C323 -13 362 -4 393 11 C422 25 440 41 470 81 L470 0 L654 0 L654 48 L624 48 C565 50 554 59 555 105 L555 469 L368 469 L368 421 L406 421 C461 419 470 411 470 364 L470 201 C470 150 457 117 425 85 C395 55 355 40 308 40 C226 40 197 79 197 188 L197 469 L26 469 L26 421 Z " />
<glyph glyph-name="v" unicode="v" horiz-adv-x="584" d="M-5 420 L18 420 C55 418 61 414 79 375 L254 -5 L310 -5 L480 362 C504 414 509 418 549 420 L569 420 L569 469 L331 469 L331 420 L377 420 C416 420 427 415 427 399 C427 390 423 377 415 360 L301 107 L179 366 C174 377 170 391 170 398 C170 415 180 420 214 420 L252 420 L252 469 L-5 469 L-5 420 Z " />
<glyph glyph-name="w" unicode="w" horiz-adv-x="860" d="M247 -5 L307 -5 L427 286 L548 -5 L606 -5 L759 364 C777 408 792 420 830 421 L844 421 L844 469 L626 469 L626 421 L658 421 C695 421 706 416 706 401 C706 390 703 377 697 363 L588 107 L482 373 C478 383 475 393 475 398 C475 417 484 421 526 421 L556 421 L556 469 L310 469 L310 421 L333 421 C368 418 379 411 391 380 L398 362 L290 107 L182 372 C175 389 174 392 174 397 C174 414 185 421 214 421 L248 421 L248 469 L10 469 L10 421 L29 421 C65 420 74 412 92 370 L247 -5 Z " />
<glyph glyph-name="x" unicode="x" horiz-adv-x="631" d="M360 251 L474 369 C515 409 539 421 580 421 L600 421 L600 469 L354 469 L354 421 L384 421 C418 421 428 418 428 408 C428 401 425 393 421 389 L322 290 L240 380 C227 394 223 400 223 406 C223 417 232 421 255 421 L289 421 L289 469 L21 469 L21 421 L37 421 C82 420 113 404 149 365 L268 240 L130 98 C95 65 68 51 31 48 L16 48 L16 0 L270 0 L270 48 L231 48 C200 48 183 54 183 65 C183 71 186 75 196 86 L304 196 L404 89 C414 78 418 72 418 66 C418 56 399 48 377 48 L330 48 L330 0 L615 0 L615 48 L600 48 C570 47 539 62 507 94 L360 251 Z " />
<glyph glyph-name="y" unicode="y" horiz-adv-x="594" d="M268 -3 C238 -67 225 -89 207 -115 C183 -147 154 -164 122 -164 C94 -164 81 -157 61 -132 C105 -129 122 -116 122 -83 C122 -53 98 -30 66 -30 C25 -30 -5 -62 -5 -104 C-5 -134 8 -162 32 -184 C57 -206 80 -214 119 -214 C166 -214 205 -198 238 -165 C267 -135 291 -92 350 38 L496 359 C520 411 528 418 566 421 L597 421 L597 469 L348 469 L348 421 L390 421 C428 421 442 415 442 399 C442 392 439 383 435 372 L315 103 L196 367 C190 381 187 393 187 401 C187 416 197 421 223 421 L268 421 L268 469 L2 469 L2 421 L29 421 C69 419 79 412 97 374 L268 -3 Z " />
<glyph glyph-name="z" unicode="z" horiz-adv-x="521" d="M26 0 L481 0 L481 212 L431 212 C423 65 409 51 273 50 L139 50 L472 420 L472 469 L43 469 L43 272 L94 272 C103 405 120 423 237 420 L361 420 L26 50 L26 0 Z " />
<glyph glyph-name="braceleft" unicode="&#x7b;" horiz-adv-x="375" d="M197 549 C197 613 221 631 300 628 L329 628 L343 628 L343 671 C301 672 292 672 284 672 C166 672 123 634 123 532 L123 351 C121 299 106 278 62 268 L62 227 C108 216 123 193 123 137 L123 -32 C123 -138 166 -178 282 -178 C299 -178 314 -178 343 -177 L343 -133 C220 -136 198 -124 197 -52 L197 126 C196 190 181 222 136 247 C182 273 195 299 197 368 L197 549 Z " />
<glyph glyph-name="bar" unicode="&#x7c;" horiz-adv-x="521" d="M217 667 L217 -167 L304 -167 L304 667 L217 667 Z " />
<glyph glyph-name="braceright" unicode="&#x7d;" horiz-adv-x="375" d="M208 -55 C208 -119 184 -137 105 -134 L76 -133 L62 -133 L62 -177 C103 -178 113 -178 121 -178 C239 -178 282 -140 282 -38 L282 143 C284 195 299 216 343 226 L343 268 C298 278 282 301 282 358 L282 526 C282 632 239 672 123 672 C105 672 99 672 62 671 L62 627 L82 627 C183 630 208 614 208 547 L208 369 C209 304 224 272 269 247 C223 222 210 196 208 126 L208 -55 Z " />
<glyph glyph-name="asciitilde" unicode="&#x7e;" horiz-adv-x="676" d="M145 577 C175 630 199 650 232 650 C256 650 273 644 329 618 C394 586 416 579 442 579 C499 579 540 614 578 695 L533 731 C503 678 478 658 444 658 C420 658 406 663 349 691 C291 719 264 728 235 728 C179 728 136 692 99 613 L145 577 Z " />
<glyph glyph-name="uni00A0" unicode="&#xa0;" horiz-adv-x="250" d="" />
<glyph glyph-name="exclamdown" unicode="&#xa1;" horiz-adv-x="318" d="M156 486 C125 486 99 460 99 429 C99 397 125 371 156 371 C188 371 214 397 214 427 C214 460 189 486 156 486 L156 486 Z M135 285 C130 127 126 88 110 -31 C100 -128 99 -134 99 -150 C99 -193 121 -220 158 -220 C194 -220 217 -193 217 -150 C217 -134 217 -130 206 -31 C189 91 187 125 181 285 L135 285 Z " />
<glyph glyph-name="cent" unicode="&#xa2;" horiz-adv-x="641" d="M97 -87 L151 -87 L209 21 C257 4 279 -1 318 -1 C374 -1 422 11 455 33 C507 68 531 109 547 192 L486 192 C474 147 466 128 450 108 C424 77 381 58 333 58 C300 58 282 63 243 84 L433 435 C461 419 465 416 481 390 C441 382 424 367 424 337 C424 305 448 283 482 283 C524 283 552 311 552 353 C552 407 520 448 456 478 L512 582 L458 582 L410 494 C374 500 342 504 321 504 C260 504 193 476 147 431 C98 383 73 321 73 245 C73 202 82 160 98 126 C113 94 128 77 168 45 L97 -87 Z M208 120 C177 175 170 200 170 253 C170 313 186 366 214 399 C242 434 290 456 336 456 C348 456 367 454 388 451 L208 120 Z " />
<glyph glyph-name="sterling" unicode="&#xa3;" horiz-adv-x="641" d="M76 -14 C126 33 160 49 209 49 C239 49 260 44 316 22 L379 -3 C408 -15 425 -19 444 -19 C482 -19 514 -7 536 15 C573 54 587 100 588 192 L542 192 C537 98 516 64 465 64 C441 64 411 71 381 84 L333 106 C311 116 286 121 263 121 C234 121 215 115 178 93 L175 99 C250 167 267 197 267 262 C267 264 267 270 266 276 L403 276 L403 320 L260 320 C251 342 249 344 228 373 C201 411 189 437 189 461 C189 524 258 574 344 574 C380 574 416 566 445 553 C463 544 472 536 487 515 C456 492 450 482 450 458 C450 425 473 404 508 404 C547 404 575 433 575 475 C575 507 558 536 526 563 C479 602 415 622 334 622 C194 622 91 550 91 452 C91 416 105 385 151 320 L50 320 L50 276 L165 276 C167 259 168 239 168 230 C168 204 162 181 148 154 C127 111 105 87 47 42 L76 -14 Z " />
<glyph glyph-name="currency" unicode="&#xa4;" horiz-adv-x="700" d="M53 125 L100 80 L200 176 C254 141 299 126 352 126 C406 126 454 142 501 176 L602 80 L649 125 L548 221 C585 270 600 310 600 362 C600 413 585 454 547 504 L647 599 L600 644 L499 549 C449 584 405 598 350 598 C295 598 252 584 199 548 L98 644 L51 599 L153 503 C115 455 100 414 100 362 C100 311 117 265 153 221 L53 125 Z M352 526 C447 526 526 452 526 362 C526 271 447 198 350 198 C253 198 174 272 174 362 C174 454 253 526 352 526 L352 526 Z " />
<glyph glyph-name="yen" unicode="&#xa5;" horiz-adv-x="686" d="M460 349 L546 482 C587 543 606 557 646 557 L668 557 L668 605 L410 605 L410 557 L474 557 C494 557 507 551 507 541 C507 533 503 522 496 512 L356 300 L230 503 C222 516 217 530 217 538 C217 551 228 557 251 557 L310 557 L310 605 L19 605 L19 557 L46 557 C79 556 104 537 129 499 L225 349 L98 349 L98 306 L253 306 L293 246 L112 246 L112 203 L298 203 L298 114 C299 57 292 50 230 48 L169 48 L169 0 L514 0 L514 48 L455 48 C392 50 385 57 386 114 L386 203 L575 203 L575 246 L391 246 L432 306 L588 306 L588 349 L460 349 Z " />
<glyph glyph-name="brokenbar" unicode="&#xa6;" horiz-adv-x="521" d="M217 667 L217 330 L304 330 L304 667 L217 667 Z M217 153 L217 -167 L304 -167 L304 153 L217 153 Z " />
<glyph glyph-name="section" unicode="&#xa7;" horiz-adv-x="620" d="M298 438 C252 455 231 464 215 473 C190 487 177 511 177 541 C177 601 232 637 321 637 C362 637 382 631 427 607 C393 595 378 578 378 550 C378 517 405 494 445 494 C490 494 516 520 516 565 C516 639 439 687 319 687 C255 687 206 673 168 644 C129 614 103 566 103 523 C103 473 124 437 173 404 C134 386 118 376 99 359 C72 334 57 300 57 265 C57 230 72 194 99 168 C121 145 148 131 198 115 L314 77 C414 44 452 10 452 -46 C452 -118 390 -160 287 -160 C248 -160 226 -155 179 -134 C214 -118 226 -102 226 -74 C226 -34 198 -7 157 -7 C114 -7 84 -38 84 -81 C84 -161 163 -211 289 -211 C436 -211 533 -138 533 -28 C533 32 510 68 446 105 C488 124 504 134 521 149 C549 173 565 209 565 247 C565 283 550 317 525 340 C502 361 488 368 414 395 L298 438 Z M221 188 C153 211 127 236 127 277 C127 323 156 352 232 378 L407 315 C475 290 496 272 496 236 C496 211 482 185 459 168 C442 156 428 149 386 131 L221 188 Z " />
<glyph glyph-name="dieresis" unicode="&#xa8;" horiz-adv-x="520" d="M162 674 C133 674 107 649 107 620 C107 588 131 565 162 565 C193 565 216 588 216 619 C216 649 191 674 162 674 L162 674 Z M358 674 C329 674 303 648 303 620 C303 589 327 565 359 565 C389 565 412 589 412 619 C412 649 387 674 358 674 L358 674 Z " />
<glyph glyph-name="copyright" unicode="&#xa9;" horiz-adv-x="839" d="M551 286 C544 246 536 229 521 211 C499 186 466 173 427 173 C341 173 286 236 286 334 C286 428 343 497 421 497 C459 497 495 481 520 453 C539 431 546 413 552 372 L589 372 L589 524 L556 524 L542 492 C491 526 464 535 419 535 C304 535 218 448 218 332 C218 215 302 132 421 132 C481 132 525 148 555 183 C578 209 587 233 593 286 L551 286 Z M425 681 C211 681 42 528 42 333 C42 142 212 -14 420 -14 C628 -14 797 142 797 333 C797 523 628 681 425 681 L425 681 Z M424 630 C595 630 738 495 738 333 C738 170 595 37 420 37 C244 37 100 170 100 333 C100 499 242 630 424 630 L424 630 Z " />
<glyph glyph-name="ordfeminine" unicode="&#xaa;" horiz-adv-x="366" d="M327 429 C325 370 321 357 301 357 C289 357 285 365 285 388 L285 525 C285 561 280 577 264 592 C243 610 205 622 163 622 C91 622 36 588 36 545 C36 522 54 505 79 505 C101 505 118 519 118 538 C118 553 110 563 92 569 C114 584 130 589 156 589 C200 589 229 570 229 541 C229 516 217 506 179 496 L127 483 C48 463 19 440 19 397 C19 350 59 318 119 318 C161 318 191 330 231 362 C243 330 261 318 294 318 C346 318 364 346 365 429 L327 429 Z M226 449 C226 414 218 395 196 379 C180 367 156 360 133 360 C103 360 84 375 84 399 C84 423 99 435 146 448 L172 456 C190 461 202 466 226 476 L226 449 Z " />
<glyph glyph-name="guillemotleft" unicode="&#xab;" horiz-adv-x="480" d="M354 72 L408 72 L352 182 C330 222 330 222 330 238 C330 249 333 257 341 273 C344 280 348 286 352 293 L408 403 L354 403 L304 333 C257 270 253 263 253 237 C253 212 257 204 304 142 L354 72 Z M175 72 L228 72 L172 182 C171 184 170 186 165 194 L157 209 C152 221 150 227 150 238 C150 250 152 258 161 273 C167 283 170 290 172 293 L228 403 L175 403 L124 333 C77 270 73 263 73 237 C73 212 77 205 124 142 L175 72 Z " />
<glyph glyph-name="logicalnot" unicode="&#xac;" horiz-adv-x="525" d="M406 0 L490 0 L490 279 L35 279 L35 203 L406 203 L406 0 Z " />
<glyph glyph-name="uni00AD" unicode="&#xad;" horiz-adv-x="271" d="M0 201 L271 201 L271 275 L0 275 L0 201 Z " />
<glyph glyph-name="registered" unicode="&#xae;" horiz-adv-x="839" d="M413 179 L379 179 C342 180 339 183 340 217 L340 323 L414 323 C476 322 503 299 505 243 L507 197 C509 155 532 132 571 132 C626 132 643 158 644 241 L609 241 C606 185 603 175 588 175 C576 175 572 185 572 225 C572 295 555 323 502 338 C568 350 597 378 597 428 C597 495 545 523 420 523 L210 523 L210 487 L239 487 C276 486 279 483 278 450 L278 217 C279 183 276 180 239 179 L210 179 L210 143 L413 143 L413 179 Z M340 359 L340 487 L420 487 C501 487 533 470 533 426 C533 381 494 359 414 359 L340 359 Z M425 681 C211 681 42 528 42 333 C42 142 212 -14 420 -14 C628 -14 797 142 797 333 C797 523 628 681 425 681 L425 681 Z M424 630 C595 630 738 495 738 333 C738 170 595 37 420 37 C244 37 100 170 100 333 C100 499 242 630 424 630 L424 630 Z " />
<glyph glyph-name="macron" unicode="&#xaf;" horiz-adv-x="512" d="M125 585 L387 585 L387 653 L125 653 L125 585 Z " />
<glyph glyph-name="degree" unicode="&#xb0;" horiz-adv-x="400" d="M203 686 C117 686 50 619 50 534 C50 448 116 381 200 381 C284 381 350 448 350 533 C350 619 286 686 203 686 L203 686 Z M202 629 C252 629 293 586 293 534 C293 480 252 438 200 438 C148 438 106 481 106 533 C106 587 148 629 202 629 L202 629 Z " />
<glyph glyph-name="plusminus" unicode="&#xb1;" horiz-adv-x="549" d="M11 55 L11 0 L535 0 L535 55 L11 55 Z M302 662 L247 662 L247 423 L10 423 L10 368 L247 368 L247 129 L302 129 L302 368 L539 368 L539 423 L302 423 L302 662 Z " />
<glyph glyph-name="twosuperior" unicode="&#xb2;" horiz-adv-x="422" d="M70 267 C73 295 84 304 113 304 C133 304 134 304 175 287 L210 272 C237 260 254 256 275 256 C302 256 324 263 340 276 C367 297 376 324 379 379 L348 379 C344 324 331 308 289 308 C272 308 256 310 233 316 L186 327 C151 336 151 336 133 336 C116 336 107 334 87 326 C120 368 128 372 212 394 C267 408 298 418 317 427 C348 441 369 475 369 509 C369 573 304 615 206 615 C115 615 46 573 46 517 C46 491 68 471 95 471 C120 471 138 486 138 506 C138 526 124 537 98 537 L88 537 C117 573 142 585 193 585 C261 585 303 557 303 512 C303 475 285 459 218 437 C73 388 36 353 37 267 L70 267 Z " />
<glyph glyph-name="threesuperior" unicode="&#xb3;" horiz-adv-x="422" d="M159 434 C215 433 239 431 258 424 C291 414 308 392 308 362 C308 314 264 288 184 288 C130 288 106 296 74 326 C106 328 119 338 119 358 C119 377 102 390 77 390 C47 390 26 372 26 347 C26 298 101 257 192 257 C302 257 378 300 378 362 C378 407 343 436 271 450 C302 457 313 461 327 468 C350 480 365 503 365 526 C365 579 300 615 204 615 C119 615 44 577 44 534 C44 512 63 497 90 497 C116 497 131 509 131 529 C131 545 121 554 98 559 C134 579 161 586 198 586 C260 586 299 561 299 523 C299 497 283 480 253 471 C235 466 214 465 159 464 L159 434 Z " />
<glyph glyph-name="acute" unicode="&#xb4;" horiz-adv-x="514" d="M191 540 L227 540 L373 629 C402 647 413 660 413 677 C413 698 396 715 376 715 C361 715 341 704 325 686 L191 540 Z " />
<glyph glyph-name="mu" unicode="&#xb5;" horiz-adv-x="576" d="M442 500 L353 500 L354 131 C318 80 284 58 242 58 C184 58 150 99 150 169 L150 500 L62 500 L62 20 C62 -1 58 -26 51 -56 C34 -118 33 -123 33 -147 C33 -190 54 -219 83 -219 C112 -219 132 -189 132 -145 C132 -124 129 -110 113 -53 C102 -17 101 -8 101 21 L101 33 C143 -3 165 -13 200 -13 C250 -13 301 18 354 80 C362 48 367 36 377 21 C392 0 419 -13 449 -13 C510 -13 553 31 567 108 L540 109 C536 71 515 41 492 41 C462 41 442 77 442 131 L442 500 Z " />
<glyph glyph-name="paragraph" unicode="&#xb6;" horiz-adv-x="595" d="M244 -98 L313 -98 L313 604 L424 604 L424 -98 L493 -98 L493 604 L560 604 L560 667 L269 667 C210 667 157 657 124 640 C69 611 36 554 36 488 C36 386 115 315 229 315 L244 315 L244 -98 Z " />
<glyph glyph-name="periodcentered" unicode="&#xb7;" horiz-adv-x="318" d="M158 296 C126 296 99 270 99 238 C99 204 125 178 159 178 C191 178 217 205 217 237 C217 269 190 296 158 296 L158 296 Z " />
<glyph glyph-name="cedilla" unicode="&#xb8;" horiz-adv-x="525" d="M132 -178 C186 -204 237 -217 281 -217 C354 -217 397 -185 397 -130 C397 -82 361 -49 308 -49 C299 -49 284 -50 270 -51 L270 0 L239 0 L239 -94 C256 -89 265 -88 277 -88 C310 -88 328 -104 328 -132 C328 -160 308 -174 270 -174 C234 -174 190 -160 150 -135 L132 -178 Z " />
<glyph glyph-name="onesuperior" unicode="&#xb9;" horiz-adv-x="422" d="M83 267 L340 267 L340 295 L308 295 C249 296 244 299 244 334 L244 615 L210 615 C190 573 168 562 85 557 L85 530 L185 530 L185 334 C186 299 182 297 117 295 L83 295 L83 267 Z " />
<glyph glyph-name="ordmasculine" unicode="&#xba;" horiz-adv-x="382" d="M191 622 C92 622 20 559 20 472 C20 422 36 387 71 358 C104 332 145 318 192 318 C291 318 362 381 362 470 C362 559 291 622 191 622 L191 622 Z M191 586 C258 586 295 544 295 470 C295 396 258 354 191 354 C123 354 87 395 87 472 C87 545 125 586 191 586 L191 586 Z " />
<glyph glyph-name="guillemotright" unicode="&#xbb;" horiz-adv-x="480" d="M127 72 L178 142 C225 205 228 212 228 237 C228 263 224 270 178 333 L127 403 L73 403 L129 293 C130 292 131 290 136 281 L144 265 C149 254 151 248 151 238 C151 222 151 222 129 182 L73 72 L127 72 Z M306 72 L357 142 C404 206 408 212 408 237 C408 263 404 270 357 333 L306 403 L253 403 L309 293 C310 291 311 289 316 281 C320 273 323 268 324 265 C329 254 331 248 331 238 C331 226 328 217 320 202 L309 182 L253 72 L306 72 Z " />
<glyph glyph-name="onequarter" unicode="&#xbc;" horiz-adv-x="1017" d="M83 267 L340 267 L340 295 L308 295 C249 296 244 299 244 334 L244 615 L210 615 C190 573 168 562 85 557 L85 530 L185 530 L185 334 C186 299 182 297 117 295 L83 295 L83 267 Z M250 -17 L315 -17 L771 622 L706 622 L250 -17 Z M747 0 L989 0 L989 28 L950 28 C906 29 898 34 899 62 L899 101 L989 101 L989 133 L899 133 L899 348 L860 348 L614 129 L614 101 L841 101 L841 59 C840 32 834 29 791 28 L747 28 L747 0 Z M841 133 L670 133 L841 285 L841 133 Z " />
<glyph glyph-name="onehalf" unicode="&#xbd;" horiz-adv-x="1017" d="M83 267 L340 267 L340 295 L308 295 C249 296 244 299 244 334 L244 615 L210 615 C190 573 168 562 85 557 L85 530 L185 530 L185 334 C186 299 182 297 117 295 L83 295 L83 267 Z M250 -17 L315 -17 L771 622 L706 622 L250 -17 Z M664 0 C666 28 677 37 707 37 C726 37 731 36 768 20 L803 5 C828 -6 847 -10 869 -10 C895 -10 917 -3 934 10 C960 31 970 58 972 113 L941 113 C937 58 924 42 882 42 C865 42 845 45 826 49 L779 61 C749 68 744 69 727 69 C710 69 700 67 681 60 C713 101 721 105 805 127 C858 141 892 151 910 160 C941 175 962 208 962 242 C962 306 897 348 799 348 C708 348 639 306 639 250 C639 224 661 204 689 204 C714 204 732 219 732 239 C732 259 717 270 692 270 L681 270 C711 306 736 318 786 318 C854 318 896 290 896 245 C896 208 878 192 811 170 C667 122 629 86 630 0 L664 0 Z " />
<glyph glyph-name="threequarters" unicode="&#xbe;" horiz-adv-x="1017" d="M159 434 C215 433 239 431 258 424 C291 414 308 392 308 362 C308 314 264 288 184 288 C130 288 106 296 74 326 C106 328 119 338 119 358 C119 377 102 390 77 390 C47 390 26 372 26 347 C26 298 101 257 192 257 C302 257 378 300 378 362 C378 407 343 436 271 450 C302 457 313 461 327 468 C350 480 365 503 365 526 C365 579 300 615 204 615 C119 615 44 577 44 534 C44 512 63 497 90 497 C116 497 131 509 131 529 C131 545 121 554 98 559 C134 579 161 586 198 586 C260 586 299 561 299 523 C299 497 283 480 253 471 C235 466 214 465 159 464 L159 434 Z M250 -17 L315 -17 L772 622 L707 622 L250 -17 Z M747 0 L989 0 L989 28 L950 28 C906 29 898 34 899 62 L899 101 L989 101 L989 133 L899 133 L899 348 L860 348 L614 129 L614 101 L841 101 L841 59 C840 32 834 29 790 28 L747 28 L747 0 Z M841 133 L670 133 L841 285 L841 133 Z " />
<glyph glyph-name="questiondown" unicode="&#xbf;" horiz-adv-x="521" d="M285 486 C254 486 228 460 228 429 C228 397 254 371 285 371 C317 371 343 397 343 427 C343 460 318 486 285 486 L285 486 Z M262 287 C256 202 251 193 174 138 C105 90 86 73 63 40 C45 15 35 -18 35 -49 C35 -151 128 -221 262 -221 C396 -221 493 -149 493 -48 C493 11 456 55 405 55 C365 55 339 32 339 -2 C339 -33 360 -53 394 -53 C409 -53 418 -50 437 -40 C436 -81 428 -100 401 -124 C372 -151 324 -167 274 -167 C188 -167 130 -121 130 -53 C130 -7 149 26 200 70 C303 155 313 175 315 287 L262 287 Z " />
<glyph glyph-name="Agrave" unicode="&#xc0;" horiz-adv-x="735" d="M-21 0 L281 0 L281 53 L228 53 C175 53 162 58 162 78 C162 90 167 108 176 130 L215 223 L482 223 L526 110 C531 97 534 85 534 79 C534 59 519 53 473 53 L417 53 L417 0 L748 0 L748 53 L719 53 C668 54 650 67 632 114 L410 667 L322 667 L96 111 C77 64 62 54 13 53 L-21 53 L-21 0 Z M236 276 L346 561 L459 276 L236 276 Z M404 706 L439 706 L303 827 C290 839 274 846 263 846 C244 846 228 830 228 810 C228 792 238 781 261 770 L404 706 Z " />
<glyph glyph-name="Aacute" unicode="&#xc1;" horiz-adv-x="735" d="M-21 0 L281 0 L281 53 L228 53 C175 53 162 58 162 78 C162 90 167 108 176 130 L215 223 L482 223 L526 110 C531 97 534 85 534 79 C534 59 519 53 473 53 L417 53 L417 0 L748 0 L748 53 L719 53 C668 54 650 67 632 114 L410 667 L322 667 L96 111 C77 64 62 54 13 53 L-21 53 L-21 0 Z M236 276 L346 561 L459 276 L236 276 Z M333 706 L476 770 C499 781 509 793 509 810 C509 830 493 846 474 846 C462 846 447 839 434 827 L298 706 L333 706 Z " />
<glyph glyph-name="Acircumflex" unicode="&#xc2;" horiz-adv-x="735" d="M-21 0 L281 0 L281 53 L228 53 C175 53 162 58 162 78 C162 90 167 108 176 130 L215 223 L482 223 L526 110 C531 97 534 85 534 79 C534 59 519 53 473 53 L417 53 L417 0 L748 0 L748 53 L719 53 C668 54 650 67 632 114 L410 667 L322 667 L96 111 C77 64 62 54 13 53 L-21 53 L-21 0 Z M236 276 L346 561 L459 276 L236 276 Z M225 706 L257 706 L367 777 L478 706 L510 706 L404 838 L330 838 L225 706 Z " />
<glyph glyph-name="Atilde" unicode="&#xc3;" horiz-adv-x="735" d="M-21 0 L281 0 L281 53 L228 53 C175 53 162 58 162 78 C162 90 167 108 176 130 L215 223 L482 223 L526 110 C531 97 534 85 534 79 C534 59 519 53 473 53 L417 53 L417 0 L748 0 L748 53 L719 53 C668 54 650 67 632 114 L410 667 L322 667 L96 111 C77 64 62 54 13 53 L-21 53 L-21 0 Z M236 276 L346 561 L459 276 L236 276 Z M475 835 C466 807 455 797 432 797 C420 797 417 797 409 799 L357 812 C346 815 333 817 323 817 C302 817 283 808 267 791 C249 772 241 752 231 708 L260 708 C269 737 282 749 302 749 C308 749 321 747 334 744 L385 731 C394 729 401 728 411 728 C459 728 487 760 503 835 L475 835 Z " />
<glyph glyph-name="Adieresis" unicode="&#xc4;" horiz-adv-x="735" d="M-21 0 L281 0 L281 53 L228 53 C175 53 162 58 162 78 C162 90 167 108 176 130 L215 223 L482 223 L526 110 C531 97 534 85 534 79 C534 59 519 53 473 53 L417 53 L417 0 L748 0 L748 53 L719 53 C668 54 650 67 632 114 L410 667 L322 667 L96 111 C77 64 62 54 13 53 L-21 53 L-21 0 Z M236 276 L346 561 L459 276 L236 276 Z M271 821 C244 821 220 798 220 771 C220 742 242 720 272 720 C300 720 322 742 322 770 C322 797 299 821 271 821 L271 821 Z M458 821 C431 821 407 798 407 771 C407 742 429 720 459 720 C487 720 509 742 509 770 C509 797 486 821 458 821 L458 821 Z " />
<glyph glyph-name="Aring" unicode="&#xc5;" horiz-adv-x="735" d="M-21 0 L281 0 L281 53 L228 53 C175 53 162 58 162 78 C162 90 167 108 176 130 L215 223 L482 223 L526 110 C531 97 534 85 534 79 C534 59 519 53 473 53 L417 53 L417 0 L748 0 L748 53 L719 53 C668 54 650 67 632 114 L410 667 L322 667 L96 111 C77 64 62 54 13 53 L-21 53 L-21 0 Z M236 276 L346 561 L459 276 L236 276 Z M361 893 C308 893 265 851 265 800 C265 745 308 701 361 701 C413 701 456 745 456 798 C456 851 414 893 361 893 L361 893 Z M360 848 C388 848 411 825 411 797 C411 770 388 746 360 746 C332 746 310 769 310 799 C310 826 333 848 360 848 L360 848 Z " />
<glyph glyph-name="AE" unicode="&#xc6;" horiz-adv-x="1152" d="M269 270 L533 270 L533 126 C534 63 526 55 458 53 L405 53 L405 0 L1068 0 L1068 271 L1014 271 C1007 88 980 56 825 53 L621 53 L621 323 L692 323 C790 320 801 307 807 178 L860 178 L860 505 L807 505 C806 392 789 374 694 376 L621 376 L621 614 L812 614 C974 613 1010 578 1014 416 L1068 416 L1068 667 L286 667 L286 614 L338 614 C390 614 411 606 411 584 C411 574 403 558 390 541 L62 111 C26 66 2 52 -36 53 L-57 53 L-57 0 L226 0 L226 53 L199 53 C150 53 134 59 134 77 C134 88 143 105 162 130 L269 270 Z M308 323 L519 614 L533 614 L533 323 L308 323 Z " />
<glyph glyph-name="Ccedilla" unicode="&#xc7;" horiz-adv-x="740" d="M625 243 C612 174 600 144 572 110 C534 65 474 41 402 41 C323 41 256 71 214 127 C173 181 150 255 150 334 C150 505 252 631 392 631 C462 631 526 602 571 550 C604 511 617 480 628 408 L681 408 L681 667 L633 667 L606 607 C515 669 468 687 388 687 C191 687 42 534 42 331 C42 143 165 3 345 -17 L345 -101 C362 -96 371 -95 383 -95 C412 -95 432 -111 432 -135 C432 -160 411 -174 376 -174 C340 -174 296 -159 257 -135 L238 -178 C294 -204 343 -217 387 -217 C458 -217 503 -184 503 -133 C503 -89 465 -56 414 -56 C404 -56 390 -57 376 -58 L376 -19 C384 -20 389 -20 392 -20 C512 -20 598 21 648 102 C669 137 679 172 687 243 L625 243 Z " />
<glyph glyph-name="Egrave" unicode="&#xc8;" horiz-adv-x="777" d="M31 0 L694 0 L694 271 L640 271 C633 88 606 56 452 53 L247 53 L247 323 L319 323 C417 320 428 306 433 178 L487 178 L487 505 L433 505 C432 392 416 374 320 376 L247 376 L247 614 L439 614 C600 613 637 578 640 416 L694 416 L694 667 L31 667 L31 614 L75 614 C143 612 151 604 150 541 L150 126 C151 63 143 55 75 53 L31 53 L31 0 Z M425 706 L459 706 L323 827 C310 839 295 846 284 846 C264 846 249 830 249 810 C249 792 259 780 282 770 L425 706 Z " />
<glyph glyph-name="Eacute" unicode="&#xc9;" horiz-adv-x="777" d="M31 0 L694 0 L694 271 L640 271 C633 88 606 56 452 53 L247 53 L247 323 L319 323 C417 320 428 306 433 178 L487 178 L487 505 L433 505 C432 392 416 374 320 376 L247 376 L247 614 L439 614 C600 613 637 578 640 416 L694 416 L694 667 L31 667 L31 614 L75 614 C143 612 151 604 150 541 L150 126 C151 63 143 55 75 53 L31 53 L31 0 Z M353 706 L496 770 C520 781 530 793 530 810 C530 830 514 846 495 846 C483 846 468 839 455 827 L319 706 L353 706 Z " />
<glyph glyph-name="Ecircumflex" unicode="&#xca;" horiz-adv-x="777" d="M31 0 L694 0 L694 271 L640 271 C633 88 606 56 452 53 L247 53 L247 323 L319 323 C417 320 428 306 433 178 L487 178 L487 505 L433 505 C432 392 416 374 320 376 L247 376 L247 614 L439 614 C600 613 637 578 640 416 L694 416 L694 667 L31 667 L31 614 L75 614 C143 612 151 604 150 541 L150 126 C151 63 143 55 75 53 L31 53 L31 0 Z M245 706 L277 706 L388 777 L499 706 L531 706 L425 838 L351 838 L245 706 Z " />
<glyph glyph-name="Edieresis" unicode="&#xcb;" horiz-adv-x="777" d="M31 0 L694 0 L694 271 L640 271 C633 88 606 56 452 53 L247 53 L247 323 L319 323 C417 320 428 306 433 178 L487 178 L487 505 L433 505 C432 392 416 374 320 376 L247 376 L247 614 L439 614 C600 613 637 578 640 416 L694 416 L694 667 L31 667 L31 614 L75 614 C143 612 151 604 150 541 L150 126 C151 63 143 55 75 53 L31 53 L31 0 Z M295 821 C268 821 244 798 244 771 C244 742 266 720 295 720 C324 720 346 742 346 770 C346 797 323 821 295 821 L295 821 Z M482 821 C455 821 431 798 431 771 C431 742 453 720 482 720 C511 720 533 742 533 770 C533 797 510 821 482 821 L482 821 Z " />
<glyph glyph-name="Igrave" unicode="&#xcc;" horiz-adv-x="407" d="M31 0 L376 0 L376 53 L328 53 C259 55 250 63 252 126 L252 541 C250 604 259 612 328 614 L376 614 L376 667 L31 667 L31 614 L79 614 C147 612 156 604 154 541 L154 126 C156 63 147 55 79 53 L31 53 L31 0 Z M240 706 L274 706 L139 827 C126 839 110 846 99 846 C80 846 64 830 64 810 C64 793 74 780 97 770 L240 706 Z " />
<glyph glyph-name="Iacute" unicode="&#xcd;" horiz-adv-x="407" d="M31 0 L376 0 L376 53 L328 53 C259 55 250 63 252 126 L252 541 C250 604 259 612 328 614 L376 614 L376 667 L31 667 L31 614 L79 614 C147 612 156 604 154 541 L154 126 C156 63 147 55 79 53 L31 53 L31 0 Z M169 706 L312 770 C335 781 345 792 345 810 C345 830 329 846 310 846 C298 846 283 839 270 827 L134 706 L169 706 Z " />
<glyph glyph-name="Icircumflex" unicode="&#xce;" horiz-adv-x="407" d="M31 0 L376 0 L376 53 L328 53 C259 55 250 63 252 126 L252 541 C250 604 259 612 328 614 L376 614 L376 667 L31 667 L31 614 L79 614 C147 612 156 604 154 541 L154 126 C156 63 147 55 79 53 L31 53 L31 0 Z M61 706 L93 706 L203 777 L314 706 L346 706 L240 838 L166 838 L61 706 Z " />
<glyph glyph-name="Idieresis" unicode="&#xcf;" horiz-adv-x="407" d="M31 0 L376 0 L376 53 L328 53 C259 55 250 63 252 126 L252 541 C250 604 259 612 328 614 L376 614 L376 667 L31 667 L31 614 L79 614 C147 612 156 604 154 541 L154 126 C156 63 147 55 79 53 L31 53 L31 0 Z M120 821 C93 821 69 798 69 771 C69 742 91 720 120 720 C149 720 171 742 171 770 C171 797 148 821 120 821 L120 821 Z M287 821 C260 821 236 798 236 771 C236 742 258 720 287 720 C316 720 338 742 338 770 C338 797 315 821 287 821 L287 821 Z " />
<glyph glyph-name="Eth" unicode="&#xd0;" horiz-adv-x="829" d="M35 0 L372 0 C547 0 619 18 687 79 C754 138 791 230 791 335 C791 447 749 541 675 599 C607 652 542 667 374 667 L35 667 L35 614 L79 614 C147 612 156 604 154 541 L154 361 L5 361 L5 313 L154 313 L154 126 C156 63 147 55 79 53 L35 53 L35 0 Z M251 313 L454 313 L454 361 L251 361 L251 614 L374 614 C496 614 564 593 616 539 C662 492 683 429 683 340 C683 246 658 168 613 124 C564 77 482 53 372 53 L251 53 L251 313 Z " />
<glyph glyph-name="Ntilde" unicode="&#xd1;" horiz-adv-x="865" d="M732 -3 L732 541 C731 604 738 612 807 614 L841 614 L841 667 L534 667 L534 614 L590 614 C658 612 667 604 665 541 L665 131 L264 667 L31 667 L31 614 L72 614 C140 612 149 604 147 541 L147 126 C149 63 140 55 72 53 L31 53 L31 0 L342 0 L342 53 L289 53 C221 55 212 63 214 126 L214 577 L646 -3 L732 -3 Z M540 835 C532 807 520 797 497 797 C485 797 482 797 474 799 L422 812 C411 815 398 817 388 817 C367 817 349 808 332 791 C314 772 306 752 297 708 L325 708 C334 737 347 749 367 749 C373 749 386 747 399 744 L451 731 C459 729 466 728 476 728 C524 728 552 760 568 835 L540 835 Z " />
<glyph glyph-name="Ograve" unicode="&#xd2;" horiz-adv-x="834" d="M418 687 C203 687 42 537 42 339 C42 130 198 -19 418 -19 C634 -19 793 131 793 334 C793 538 634 687 418 687 L418 687 Z M418 632 C498 632 566 602 616 546 C662 493 685 423 685 334 C685 154 580 36 418 36 C337 36 268 66 219 122 C172 177 150 245 150 338 C150 515 257 632 418 632 L418 632 Z M454 706 L488 706 L353 827 C340 839 324 846 313 846 C294 846 278 830 278 810 C278 793 288 780 311 770 L454 706 Z " />
<glyph glyph-name="Oacute" unicode="&#xd3;" horiz-adv-x="834" d="M418 687 C203 687 42 537 42 339 C42 130 198 -19 418 -19 C634 -19 793 131 793 334 C793 538 634 687 418 687 L418 687 Z M418 632 C498 632 566 602 616 546 C662 493 685 423 685 334 C685 154 580 36 418 36 C337 36 268 66 219 122 C172 177 150 245 150 338 C150 515 257 632 418 632 L418 632 Z M383 706 L526 770 C549 781 559 792 559 810 C559 830 543 846 524 846 C512 846 497 839 484 827 L348 706 L383 706 Z " />
<glyph glyph-name="Ocircumflex" unicode="&#xd4;" horiz-adv-x="834" d="M418 687 C203 687 42 537 42 339 C42 130 198 -19 418 -19 C634 -19 793 131 793 334 C793 538 634 687 418 687 L418 687 Z M418 632 C498 632 566 602 616 546 C662 493 685 423 685 334 C685 154 580 36 418 36 C337 36 268 66 219 122 C172 177 150 245 150 338 C150 515 257 632 418 632 L418 632 Z M275 706 L307 706 L417 777 L528 706 L560 706 L454 838 L380 838 L275 706 Z " />
<glyph glyph-name="Otilde" unicode="&#xd5;" horiz-adv-x="834" d="M418 687 C203 687 42 537 42 339 C42 130 198 -19 418 -19 C634 -19 793 131 793 334 C793 538 634 687 418 687 L418 687 Z M418 632 C498 632 566 602 616 546 C662 493 685 423 685 334 C685 154 580 36 418 36 C337 36 268 66 219 122 C172 177 150 245 150 338 C150 515 257 632 418 632 L418 632 Z M525 835 C516 807 505 797 482 797 C470 797 467 797 459 799 L407 812 C396 815 383 817 373 817 C352 817 333 808 317 791 C299 772 291 752 281 708 L309 708 C319 737 332 749 352 749 C358 749 371 747 384 744 L435 731 C444 729 451 728 460 728 C509 728 537 760 553 835 L525 835 Z " />
<glyph glyph-name="Odieresis" unicode="&#xd6;" horiz-adv-x="834" d="M418 687 C203 687 42 537 42 339 C42 130 198 -19 418 -19 C634 -19 793 131 793 334 C793 538 634 687 418 687 L418 687 Z M418 632 C498 632 566 602 616 546 C662 493 685 423 685 334 C685 154 580 36 418 36 C337 36 268 66 219 122 C172 177 150 245 150 338 C150 515 257 632 418 632 L418 632 Z M324 821 C297 821 273 798 273 771 C273 742 295 720 324 720 C353 720 375 742 375 770 C375 797 352 821 324 821 L324 821 Z M511 821 C484 821 460 798 460 771 C460 742 482 720 511 720 C540 720 562 742 562 770 C562 797 539 821 511 821 L511 821 Z " />
<glyph glyph-name="multiply" unicode="&#xd7;" horiz-adv-x="532" d="M66 165 L115 118 L266 263 L418 118 L467 165 L315 309 L467 454 L418 500 L266 356 L115 500 L66 454 L218 309 L66 165 Z " />
<glyph glyph-name="Oslash" unicode="&#xd8;" horiz-adv-x="834" d="M63 7 L98 -28 L179 56 C269 -3 320 -19 415 -19 C636 -19 793 128 793 335 C793 398 779 453 751 502 C738 524 723 544 691 581 L769 659 L733 694 L653 611 C572 667 508 687 413 687 C198 687 42 537 42 331 C42 236 65 179 141 88 L63 7 Z M630 517 C674 450 685 416 685 343 C685 245 664 178 616 122 C568 66 500 36 422 36 C349 36 309 52 233 110 L630 517 Z M202 150 C162 212 148 261 148 336 C148 509 258 632 412 632 C484 632 534 612 600 557 L202 150 Z " />
<glyph glyph-name="Ugrave" unicode="&#xd9;" horiz-adv-x="798" d="M31 614 L66 614 C134 612 143 604 141 541 L141 209 C141 125 166 67 220 30 C267 -3 328 -20 401 -20 C484 -20 550 2 597 43 C644 87 665 147 665 244 L665 541 C663 604 672 612 740 614 L772 614 L772 667 L471 667 L471 614 L523 614 C591 612 600 604 598 541 L598 244 C598 163 586 120 553 91 C522 63 472 47 413 47 C294 47 238 99 238 209 L238 541 C236 604 245 612 313 614 L366 614 L366 667 L31 667 L31 614 Z M435 706 L470 706 L334 827 C321 839 306 846 294 846 C275 846 259 830 259 810 C259 792 269 781 292 770 L435 706 Z " />
<glyph glyph-name="Uacute" unicode="&#xda;" horiz-adv-x="798" d="M31 614 L66 614 C134 612 143 604 141 541 L141 209 C141 125 166 67 220 30 C267 -3 328 -20 401 -20 C484 -20 550 2 597 43 C644 87 665 147 665 244 L665 541 C663 604 672 612 740 614 L772 614 L772 667 L471 667 L471 614 L523 614 C591 612 600 604 598 541 L598 244 C598 163 586 120 553 91 C522 63 472 47 413 47 C294 47 238 99 238 209 L238 541 C236 604 245 612 313 614 L366 614 L366 667 L31 667 L31 614 Z M364 706 L507 770 C530 781 540 793 540 810 C540 830 524 846 505 846 C493 846 478 839 465 827 L329 706 L364 706 Z " />
<glyph glyph-name="Ucircumflex" unicode="&#xdb;" horiz-adv-x="798" d="M31 614 L66 614 C134 612 143 604 141 541 L141 209 C141 125 166 67 220 30 C267 -3 328 -20 401 -20 C484 -20 550 2 597 43 C644 87 665 147 665 244 L665 541 C663 604 672 612 740 614 L772 614 L772 667 L471 667 L471 614 L523 614 C591 612 600 604 598 541 L598 244 C598 163 586 120 553 91 C522 63 472 47 413 47 C294 47 238 99 238 209 L238 541 C236 604 245 612 313 614 L366 614 L366 667 L31 667 L31 614 Z M256 706 L288 706 L398 777 L509 706 L541 706 L435 838 L361 838 L256 706 Z " />
<glyph glyph-name="Udieresis" unicode="&#xdc;" horiz-adv-x="798" d="M31 614 L66 614 C134 612 143 604 141 541 L141 209 C141 125 166 67 220 30 C267 -3 328 -20 401 -20 C484 -20 550 2 597 43 C644 87 665 147 665 244 L665 541 C663 604 672 612 740 614 L772 614 L772 667 L471 667 L471 614 L523 614 C591 612 600 604 598 541 L598 244 C598 163 586 120 553 91 C522 63 472 47 413 47 C294 47 238 99 238 209 L238 541 C236 604 245 612 313 614 L366 614 L366 667 L31 667 L31 614 Z M316 821 C289 821 265 798 265 771 C265 742 287 720 316 720 C345 720 367 742 367 770 C367 797 344 821 316 821 L316 821 Z M504 821 C477 821 453 798 453 771 C453 742 475 720 504 720 C533 720 555 742 555 770 C555 797 532 821 504 821 L504 821 Z " />
<glyph glyph-name="Yacute" unicode="&#xdd;" horiz-adv-x="667" d="M282 263 L282 126 C284 63 275 55 207 53 L140 53 L140 0 L520 0 L520 53 L454 53 C385 55 377 63 379 126 L379 263 L555 532 C598 597 621 614 665 614 L689 614 L689 667 L405 667 L405 614 L476 614 C498 614 512 607 512 596 C512 588 507 575 500 564 L346 331 L208 555 C197 571 192 584 192 593 C192 607 205 614 230 614 L295 614 L295 667 L-26 667 L-26 614 L4 614 C40 612 68 593 95 550 L282 263 Z M299 706 L442 770 C465 780 475 793 475 810 C475 830 459 846 440 846 C429 846 413 839 400 827 L265 706 L299 706 Z " />
<glyph glyph-name="Thorn" unicode="&#xde;" horiz-adv-x="714" d="M31 0 L375 0 L375 53 L323 53 C256 55 248 63 249 126 L249 158 L365 158 C487 158 540 166 591 192 C644 219 675 275 675 341 C675 407 645 459 592 487 C540 513 481 522 356 522 L249 522 L249 541 C248 604 256 612 323 614 L375 614 L375 667 L31 667 L31 614 L74 614 C141 612 149 604 148 541 L148 126 C149 63 141 55 74 53 L31 53 L31 0 Z M249 211 L249 469 L359 469 C421 469 461 465 491 455 C547 438 574 401 574 344 C574 253 509 211 365 211 L249 211 Z " />
<glyph glyph-name="germandbls" unicode="&#xdf;" horiz-adv-x="657" d="M16 0 L196 0 L196 442 C196 521 205 563 228 591 C251 619 287 634 331 634 C404 634 449 594 449 530 C449 495 433 469 401 451 C373 436 343 431 272 430 L272 379 C366 378 405 370 441 342 C478 314 499 261 499 192 C499 95 463 36 403 36 C373 36 348 51 337 75 C328 95 325 113 322 168 L264 168 C266 94 273 61 292 32 C313 -1 349 -17 401 -17 C514 -17 595 77 595 208 C595 269 576 317 539 352 C510 380 482 393 417 410 C507 435 542 471 542 537 C542 624 458 684 336 684 C190 684 111 599 111 442 L111 105 C111 58 101 50 43 48 L19 48 L16 0 Z " />
<glyph glyph-name="agrave" unicode="&#xe0;" horiz-adv-x="579" d="M528 159 C525 61 516 38 481 38 C458 38 449 54 449 95 L449 327 C449 397 437 426 398 451 C362 474 312 486 256 486 C144 486 58 431 58 361 C58 326 85 300 121 300 C154 300 179 321 179 349 C179 376 164 391 130 399 C172 431 200 441 245 441 C320 441 369 407 369 354 C369 309 349 290 285 273 L202 251 C138 234 110 224 82 205 C48 182 30 150 30 110 C30 33 92 -18 186 -18 C255 -18 303 3 370 61 C388 4 415 -17 469 -17 C515 -17 546 2 561 40 C573 68 577 95 578 159 L528 159 Z M365 199 C365 137 351 103 314 74 C288 54 246 41 209 41 C157 41 124 69 124 112 C124 133 133 152 149 166 C167 182 180 188 229 203 L270 216 C300 225 311 229 365 253 L365 199 Z M347 540 L213 686 C197 703 177 715 162 715 C142 715 125 698 125 677 C125 660 135 647 165 629 L311 540 L347 540 Z " />
<glyph glyph-name="aacute" unicode="&#xe1;" horiz-adv-x="579" d="M528 159 C525 61 516 38 481 38 C458 38 449 54 449 95 L449 327 C449 397 437 426 398 451 C362 474 312 486 256 486 C144 486 58 431 58 361 C58 326 85 300 121 300 C154 300 179 321 179 349 C179 376 164 391 130 399 C172 431 200 441 245 441 C320 441 369 407 369 354 C369 309 349 290 285 273 L202 251 C138 234 110 224 82 205 C48 182 30 150 30 110 C30 33 92 -18 186 -18 C255 -18 303 3 370 61 C388 4 415 -17 469 -17 C515 -17 546 2 561 40 C573 68 577 95 578 159 L528 159 Z M365 199 C365 137 351 103 314 74 C288 54 246 41 209 41 C157 41 124 69 124 112 C124 133 133 152 149 166 C167 182 180 188 229 203 L270 216 C300 225 311 229 365 253 L365 199 Z M223 540 L259 540 L404 629 C434 647 445 660 445 677 C445 698 428 715 408 715 C393 715 373 704 357 686 L223 540 Z " />
<glyph glyph-name="acircumflex" unicode="&#xe2;" horiz-adv-x="579" d="M528 159 C525 61 516 38 481 38 C458 38 449 54 449 95 L449 327 C449 397 437 426 398 451 C362 474 312 486 256 486 C144 486 58 431 58 361 C58 326 85 300 121 300 C154 300 179 321 179 349 C179 376 164 391 130 399 C172 431 200 441 245 441 C320 441 369 407 369 354 C369 309 349 290 285 273 L202 251 C138 234 110 224 82 205 C48 182 30 150 30 110 C30 33 92 -18 186 -18 C255 -18 303 3 370 61 C388 4 415 -17 469 -17 C515 -17 546 2 561 40 C573 68 577 95 578 159 L528 159 Z M365 199 C365 137 351 103 314 74 C288 54 246 41 209 41 C157 41 124 69 124 112 C124 133 133 152 149 166 C167 182 180 188 229 203 L270 216 C300 225 311 229 365 253 L365 199 Z M125 540 L161 540 L268 635 L375 540 L411 540 L300 709 L236 709 L125 540 Z " />
<glyph glyph-name="atilde" unicode="&#xe3;" horiz-adv-x="579" d="M528 159 C525 61 516 38 481 38 C458 38 449 54 449 95 L449 327 C449 397 437 426 398 451 C362 474 312 486 256 486 C144 486 58 431 58 361 C58 326 85 300 121 300 C154 300 179 321 179 349 C179 376 164 391 130 399 C172 431 200 441 245 441 C320 441 369 407 369 354 C369 309 349 290 285 273 L202 251 C138 234 110 224 82 205 C48 182 30 150 30 110 C30 33 92 -18 186 -18 C255 -18 303 3 370 61 C388 4 415 -17 469 -17 C515 -17 546 2 561 40 C573 68 577 95 578 159 L528 159 Z M365 199 C365 137 351 103 314 74 C288 54 246 41 209 41 C157 41 124 69 124 112 C124 133 133 152 149 166 C167 182 180 188 229 203 L270 216 C300 225 311 229 365 253 L365 199 Z M377 694 C368 662 357 652 332 652 C325 652 317 653 310 655 L258 668 C246 671 236 672 224 672 C202 672 184 663 168 646 C150 627 141 606 131 560 L159 560 C169 591 181 604 202 604 C210 604 222 602 234 599 L286 586 C294 584 304 583 311 583 C360 583 387 615 405 694 L377 694 Z " />
<glyph glyph-name="adieresis" unicode="&#xe4;" horiz-adv-x="579" d="M528 159 C525 61 516 38 481 38 C458 38 449 54 449 95 L449 327 C449 397 437 426 398 451 C362 474 312 486 256 486 C144 486 58 431 58 361 C58 326 85 300 121 300 C154 300 179 321 179 349 C179 376 164 391 130 399 C172 431 200 441 245 441 C320 441 369 407 369 354 C369 309 349 290 285 273 L202 251 C138 234 110 224 82 205 C48 182 30 150 30 110 C30 33 92 -18 186 -18 C255 -18 303 3 370 61 C388 4 415 -17 469 -17 C515 -17 546 2 561 40 C573 68 577 95 578 159 L528 159 Z M365 199 C365 137 351 103 314 74 C288 54 246 41 209 41 C157 41 124 69 124 112 C124 133 133 152 149 166 C167 182 180 188 229 203 L270 216 C300 225 311 229 365 253 L365 199 Z M187 674 C158 674 132 649 132 620 C132 588 156 565 187 565 C218 565 241 588 241 619 C241 649 217 674 187 674 L187 674 Z M383 674 C354 674 328 648 328 620 C328 589 352 565 383 565 C413 565 437 589 437 619 C437 649 412 674 383 674 L383 674 Z " />
<glyph glyph-name="aring" unicode="&#xe5;" horiz-adv-x="579" d="M528 159 C525 61 516 38 481 38 C458 38 449 54 449 95 L449 327 C449 397 437 426 398 451 C362 474 312 486 256 486 C144 486 58 431 58 361 C58 326 85 300 121 300 C154 300 179 321 179 349 C179 376 164 391 130 399 C172 431 200 441 245 441 C320 441 369 407 369 354 C369 309 349 290 285 273 L202 251 C138 234 110 224 82 205 C48 182 30 150 30 110 C30 33 92 -18 186 -18 C255 -18 303 3 370 61 C388 4 415 -17 469 -17 C515 -17 546 2 561 40 C573 68 577 95 578 159 L528 159 Z M365 199 C365 137 351 103 314 74 C288 54 246 41 209 41 C157 41 124 69 124 112 C124 133 133 152 149 166 C167 182 180 188 229 203 L270 216 C300 225 311 229 365 253 L365 199 Z M262 759 C197 759 142 706 142 642 C142 572 195 519 263 519 C329 519 382 573 382 639 C382 705 328 759 262 759 L262 759 Z M262 708 C299 708 330 677 330 639 C330 601 299 570 262 570 C224 570 193 601 193 641 C193 677 225 708 262 708 L262 708 Z " />
<glyph glyph-name="ae" unicode="&#xe6;" horiz-adv-x="876" d="M766 154 C750 110 738 91 716 74 C689 52 650 39 609 39 C556 39 512 59 487 95 C465 126 458 157 455 226 L842 226 C838 322 825 366 787 411 C746 461 686 486 610 486 C537 486 503 474 435 424 C407 450 393 460 371 468 C340 480 299 486 256 486 C135 486 48 433 48 360 C48 325 75 299 111 299 C144 299 168 320 168 348 C168 375 153 391 119 399 C162 432 192 442 241 442 C324 442 375 408 375 353 C375 305 351 285 273 268 L206 254 C78 227 21 182 21 110 C21 32 84 -18 183 -18 C219 -18 254 -11 286 1 C328 18 353 37 397 89 C423 53 440 35 461 21 C499 -3 553 -17 609 -17 C675 -17 727 1 766 38 C797 66 811 93 827 154 L766 154 Z M371 199 C371 137 357 103 321 75 C294 54 249 40 210 40 C151 40 115 67 115 113 C115 157 149 186 225 204 L274 216 C313 226 336 235 371 252 L371 199 Z M459 279 C465 337 473 363 494 390 C519 421 556 437 604 437 C650 437 685 422 708 394 C729 367 736 340 740 279 L459 279 Z " />
<glyph glyph-name="ccedilla" unicode="&#xe7;" horiz-adv-x="537" d="M443 175 C431 130 423 111 407 91 C381 60 337 41 287 41 C187 41 127 114 127 236 C127 362 193 438 302 438 C332 438 362 432 386 421 C409 411 419 401 439 372 C398 365 381 350 381 320 C381 288 405 266 439 266 C481 266 509 294 509 336 C509 422 416 486 292 486 C139 486 31 379 31 228 C31 94 112 1 245 -16 L245 -94 C262 -89 271 -88 282 -88 C316 -88 334 -104 334 -132 C334 -160 314 -174 276 -174 C240 -174 197 -160 157 -135 L138 -178 C193 -204 243 -217 287 -217 C360 -217 403 -185 403 -130 C403 -82 367 -49 314 -49 C304 -49 290 -50 276 -51 L276 -18 C406 -20 485 48 505 175 L443 175 Z " />
<glyph glyph-name="egrave" unicode="&#xe8;" horiz-adv-x="553" d="M442 154 C427 110 415 91 393 74 C366 52 327 39 285 39 C233 39 189 59 164 95 C142 126 134 157 132 226 L519 226 C515 322 502 366 464 411 C422 462 363 486 283 486 C130 486 31 387 31 233 C31 82 131 -17 285 -17 C352 -17 403 1 443 38 C474 66 488 93 504 154 L442 154 Z M136 279 C142 337 150 363 171 390 C196 421 232 437 281 437 C326 437 362 422 385 394 C405 367 413 340 416 279 L136 279 Z M334 540 L200 686 C184 703 164 715 149 715 C129 715 112 698 112 677 C112 660 122 647 152 629 L298 540 L334 540 Z " />
<glyph glyph-name="eacute" unicode="&#xe9;" horiz-adv-x="553" d="M442 154 C427 110 415 91 393 74 C366 52 327 39 285 39 C233 39 189 59 164 95 C142 126 134 157 132 226 L519 226 C515 322 502 366 464 411 C422 462 363 486 283 486 C130 486 31 387 31 233 C31 82 131 -17 285 -17 C352 -17 403 1 443 38 C474 66 488 93 504 154 L442 154 Z M136 279 C142 337 150 363 171 390 C196 421 232 437 281 437 C326 437 362 422 385 394 C405 367 413 340 416 279 L136 279 Z M210 540 L246 540 L391 629 C421 647 432 660 432 677 C432 698 415 715 395 715 C380 715 360 704 344 686 L210 540 Z " />
<glyph glyph-name="ecircumflex" unicode="&#xea;" horiz-adv-x="553" d="M442 154 C427 110 415 91 393 74 C366 52 327 39 285 39 C233 39 189 59 164 95 C142 126 134 157 132 226 L519 226 C515 322 502 366 464 411 C422 462 363 486 283 486 C130 486 31 387 31 233 C31 82 131 -17 285 -17 C352 -17 403 1 443 38 C474 66 488 93 504 154 L442 154 Z M136 279 C142 337 150 363 171 390 C196 421 232 437 281 437 C326 437 362 422 385 394 C405 367 413 340 416 279 L136 279 Z M133 540 L169 540 L276 635 L383 540 L419 540 L308 709 L244 709 L133 540 Z " />
<glyph glyph-name="edieresis" unicode="&#xeb;" horiz-adv-x="553" d="M442 154 C427 110 415 91 393 74 C366 52 327 39 285 39 C233 39 189 59 164 95 C142 126 134 157 132 226 L519 226 C515 322 502 366 464 411 C422 462 363 486 283 486 C130 486 31 387 31 233 C31 82 131 -17 285 -17 C352 -17 403 1 443 38 C474 66 488 93 504 154 L442 154 Z M136 279 C142 337 150 363 171 390 C196 421 232 437 281 437 C326 437 362 422 385 394 C405 367 413 340 416 279 L136 279 Z M179 674 C150 674 124 649 124 620 C124 588 148 565 179 565 C210 565 233 588 233 619 C233 649 208 674 179 674 L179 674 Z M374 674 C345 674 319 648 319 620 C319 589 343 565 375 565 C405 565 428 589 428 619 C428 649 403 674 374 674 L374 674 Z " />
<glyph glyph-name="igrave" unicode="&#xec;" horiz-adv-x="344" d="M31 0 L317 0 L317 48 L289 48 C231 50 221 58 221 105 L221 469 L31 469 L31 421 L64 421 C122 419 133 410 132 364 L132 105 C133 58 122 50 64 48 L31 48 L31 0 Z M196 540 L124 675 C108 704 94 715 74 715 C54 715 39 701 39 682 C39 664 41 661 76 628 L164 540 L196 540 Z " />
<glyph glyph-name="iacute" unicode="&#xed;" horiz-adv-x="364" d="M31 0 L317 0 L317 48 L289 48 C231 50 221 58 221 105 L221 469 L31 469 L31 421 L64 421 C122 419 133 410 132 364 L132 105 C133 58 122 50 64 48 L31 48 L31 0 Z M110 540 L142 540 L229 628 C265 662 267 664 267 682 C267 701 252 715 231 715 C212 715 198 703 182 675 L110 540 Z " />
<glyph glyph-name="icircumflex" unicode="&#xee;" horiz-adv-x="338" d="M25 0 L310 0 L310 48 L282 48 C224 50 214 58 214 105 L214 469 L25 469 L25 421 L58 421 C115 419 126 411 125 364 L125 105 C126 58 116 50 58 48 L25 48 L25 0 Z M22 540 L55 540 L151 635 L247 540 L281 540 L184 709 L119 709 L22 540 Z " />
<glyph glyph-name="idieresis" unicode="&#xef;" horiz-adv-x="341" d="M28 0 L314 0 L314 48 L286 48 C228 50 218 58 218 105 L218 469 L28 469 L28 421 L61 421 C119 419 130 410 129 364 L129 105 C130 58 119 50 61 48 L28 48 L28 0 Z M82 674 C53 674 27 649 27 620 C27 588 51 565 82 565 C113 565 136 588 136 619 C136 649 111 674 82 674 L82 674 Z M250 674 C221 674 195 648 195 620 C195 589 219 565 251 565 C281 565 304 589 304 619 C304 649 279 674 250 674 L250 674 Z " />
<glyph glyph-name="eth" unicode="&#xf0;" horiz-adv-x="605" d="M255 667 C281 637 287 629 305 606 L230 578 L254 537 L330 567 C364 519 373 504 390 474 C355 483 332 486 301 486 C230 486 163 462 113 419 C58 372 32 313 32 234 C32 156 58 97 113 50 C163 7 230 -17 302 -17 C458 -17 572 87 572 230 C572 332 521 431 386 591 L471 622 L447 663 L353 630 C335 647 333 650 314 667 L255 667 Z M302 435 C414 435 475 363 475 232 C475 106 412 34 302 34 C191 34 129 106 129 234 C129 363 191 435 302 435 L302 435 Z " />
<glyph glyph-name="ntilde" unicode="&#xf1;" horiz-adv-x="683" d="M31 0 L318 0 L318 48 L284 48 C226 50 216 58 217 105 L217 268 C217 319 229 352 261 384 C290 414 329 429 374 429 C453 429 481 390 481 281 L481 105 C482 58 471 50 412 48 L378 48 L378 0 L659 0 L659 48 L635 48 C576 50 565 58 566 105 L566 268 C566 358 560 388 536 423 C509 461 460 482 399 482 C361 482 323 473 292 458 C264 444 247 428 217 388 L217 469 L31 469 L31 421 L61 421 C118 419 129 410 128 364 L128 105 C129 58 118 50 61 48 L31 48 L31 0 Z M450 694 C441 662 430 652 405 652 C398 652 390 653 383 655 L331 668 C319 671 309 672 297 672 C275 672 257 663 241 646 C223 627 214 606 204 560 L232 560 C242 591 255 604 276 604 C283 604 295 602 307 599 L359 586 C368 584 377 583 384 583 C433 583 460 615 478 694 L450 694 Z " />
<glyph glyph-name="ograve" unicode="&#xf2;" horiz-adv-x="605" d="M302 486 C230 486 165 463 113 419 C60 375 32 313 32 238 C32 155 57 98 113 50 C163 6 230 -17 303 -17 C374 -17 441 7 491 50 C546 97 572 156 572 234 C572 313 546 372 491 419 C441 463 375 486 302 486 L302 486 Z M302 435 C413 435 475 363 475 234 C475 106 413 34 302 34 C190 34 129 106 129 237 C129 363 192 435 302 435 L302 435 Z M360 540 L226 686 C210 704 190 715 175 715 C155 715 138 698 138 677 C138 660 148 647 179 629 L324 540 L360 540 Z " />
<glyph glyph-name="oacute" unicode="&#xf3;" horiz-adv-x="605" d="M302 486 C230 486 165 463 113 419 C60 375 32 313 32 238 C32 155 57 98 113 50 C163 6 230 -17 303 -17 C374 -17 441 7 491 50 C546 97 572 156 572 234 C572 313 546 372 491 419 C441 463 375 486 302 486 L302 486 Z M302 435 C413 435 475 363 475 234 C475 106 413 34 302 34 C190 34 129 106 129 237 C129 363 192 435 302 435 L302 435 Z M236 540 L272 540 L417 629 C447 647 458 660 458 677 C458 698 441 715 421 715 C406 715 386 704 370 686 L236 540 Z " />
<glyph glyph-name="ocircumflex" unicode="&#xf4;" horiz-adv-x="605" d="M302 486 C230 486 165 463 113 419 C60 375 32 313 32 238 C32 155 57 98 113 50 C163 6 230 -17 303 -17 C374 -17 441 7 491 50 C546 97 572 156 572 234 C572 313 546 372 491 419 C441 463 375 486 302 486 L302 486 Z M302 435 C413 435 475 363 475 234 C475 106 413 34 302 34 C190 34 129 106 129 237 C129 363 192 435 302 435 L302 435 Z M159 540 L195 540 L302 635 L409 540 L445 540 L334 709 L270 709 L159 540 Z " />
<glyph glyph-name="otilde" unicode="&#xf5;" horiz-adv-x="605" d="M302 486 C230 486 165 463 113 419 C60 375 32 313 32 238 C32 155 57 98 113 50 C163 6 230 -17 303 -17 C374 -17 441 7 491 50 C546 97 572 156 572 234 C572 313 546 372 491 419 C441 463 375 486 302 486 L302 486 Z M302 435 C413 435 475 363 475 234 C475 106 413 34 302 34 C190 34 129 106 129 237 C129 363 192 435 302 435 L302 435 Z M411 694 C402 662 391 652 366 652 C359 652 351 653 344 655 L292 668 C280 671 270 672 258 672 C236 672 218 663 202 646 C184 627 175 606 165 560 L193 560 C203 591 216 604 237 604 C244 604 256 602 268 599 L320 586 C329 584 338 583 345 583 C394 583 421 615 439 694 L411 694 Z " />
<glyph glyph-name="odieresis" unicode="&#xf6;" horiz-adv-x="605" d="M302 486 C230 486 165 463 113 419 C60 375 32 313 32 238 C32 155 57 98 113 50 C163 6 230 -17 303 -17 C374 -17 441 7 491 50 C546 97 572 156 572 234 C572 313 546 372 491 419 C441 463 375 486 302 486 L302 486 Z M302 435 C413 435 475 363 475 234 C475 106 413 34 302 34 C190 34 129 106 129 237 C129 363 192 435 302 435 L302 435 Z M206 674 C177 674 151 649 151 620 C151 588 175 565 206 565 C237 565 260 588 260 619 C260 649 235 674 206 674 L206 674 Z M401 674 C372 674 346 648 346 620 C346 589 370 565 402 565 C432 565 455 589 455 619 C455 649 430 674 401 674 L401 674 Z " />
<glyph glyph-name="divide" unicode="&#xf7;" horiz-adv-x="549" d="M273 126 C239 126 211 99 211 64 C211 30 238 2 273 2 C306 2 334 30 334 64 C334 98 306 126 273 126 L273 126 Z M273 525 C239 525 211 498 211 463 C211 429 238 401 273 401 C306 401 334 429 334 463 C334 497 306 525 273 525 L273 525 Z M10 294 L10 239 L536 239 L536 294 L10 294 Z " />
<glyph glyph-name="oslash" unicode="&#xf8;" horiz-adv-x="605" d="M16 5 L49 -26 L122 41 C186 -2 232 -17 300 -17 C373 -17 440 7 490 50 C545 97 571 157 571 233 C571 297 557 336 513 398 L588 466 L555 497 L479 428 C415 472 372 486 303 486 C145 486 31 382 31 238 C31 178 43 143 90 73 L16 5 Z M451 341 C470 299 474 278 474 234 C474 105 412 33 302 33 C249 33 215 47 173 88 L451 341 Z M151 128 C131 170 127 188 127 233 C127 362 189 435 298 435 C353 435 391 420 429 382 L151 128 Z " />
<glyph glyph-name="ugrave" unicode="&#xf9;" horiz-adv-x="678" d="M26 421 L48 421 C103 419 112 411 112 364 L112 201 C112 112 118 80 143 46 C170 8 221 -13 283 -13 C323 -13 362 -4 393 11 C422 25 440 41 470 81 L470 0 L654 0 L654 48 L624 48 C565 50 554 59 555 105 L555 469 L368 469 L368 421 L406 421 C461 419 470 411 470 364 L470 201 C470 150 457 117 425 85 C395 55 355 40 308 40 C226 40 197 79 197 188 L197 469 L26 469 L26 421 Z M397 540 L263 686 C247 703 226 715 211 715 C191 715 174 698 174 677 C174 659 184 648 215 629 L361 540 L397 540 Z " />
<glyph glyph-name="uacute" unicode="&#xfa;" horiz-adv-x="678" d="M26 421 L48 421 C103 419 112 411 112 364 L112 201 C112 112 118 80 143 46 C170 8 221 -13 283 -13 C323 -13 362 -4 393 11 C422 25 440 41 470 81 L470 0 L654 0 L654 48 L624 48 C565 50 554 59 555 105 L555 469 L368 469 L368 421 L406 421 C461 419 470 411 470 364 L470 201 C470 150 457 117 425 85 C395 55 355 40 308 40 C226 40 197 79 197 188 L197 469 L26 469 L26 421 Z M273 540 L309 540 L454 629 C485 648 495 660 495 677 C495 698 478 715 458 715 C443 715 423 704 407 686 L273 540 Z " />
<glyph glyph-name="ucircumflex" unicode="&#xfb;" horiz-adv-x="678" d="M26 421 L48 421 C103 419 112 411 112 364 L112 201 C112 112 118 80 143 46 C170 8 221 -13 283 -13 C323 -13 362 -4 393 11 C422 25 440 41 470 81 L470 0 L654 0 L654 48 L624 48 C565 50 554 59 555 105 L555 469 L368 469 L368 421 L406 421 C461 419 470 411 470 364 L470 201 C470 150 457 117 425 85 C395 55 355 40 308 40 C226 40 197 79 197 188 L197 469 L26 469 L26 421 Z M196 540 L231 540 L339 635 L446 540 L482 540 L371 709 L306 709 L196 540 Z " />
<glyph glyph-name="udieresis" unicode="&#xfc;" horiz-adv-x="678" d="M26 421 L48 421 C103 419 112 411 112 364 L112 201 C112 112 118 80 143 46 C170 8 221 -13 283 -13 C323 -13 362 -4 393 11 C422 25 440 41 470 81 L470 0 L654 0 L654 48 L624 48 C565 50 554 59 555 105 L555 469 L368 469 L368 421 L406 421 C461 419 470 411 470 364 L470 201 C470 150 457 117 425 85 C395 55 355 40 308 40 C226 40 197 79 197 188 L197 469 L26 469 L26 421 Z M230 674 C201 674 175 649 175 620 C175 588 199 565 230 565 C261 565 284 588 284 619 C284 649 259 674 230 674 L230 674 Z M425 674 C396 674 370 648 370 620 C370 589 394 565 426 565 C456 565 479 589 479 619 C479 649 454 674 425 674 L425 674 Z " />
<glyph glyph-name="yacute" unicode="&#xfd;" horiz-adv-x="594" d="M268 -3 C238 -67 225 -89 207 -115 C183 -147 154 -164 122 -164 C94 -164 81 -157 61 -132 C105 -129 122 -116 122 -83 C122 -53 98 -30 66 -30 C25 -30 -5 -62 -5 -104 C-5 -134 8 -162 32 -184 C57 -206 80 -214 119 -214 C166 -214 205 -198 238 -165 C267 -135 291 -92 350 38 L496 359 C520 411 528 418 566 421 L597 421 L597 469 L348 469 L348 421 L390 421 C428 421 442 415 442 399 C442 392 439 383 435 372 L315 103 L196 367 C190 381 187 393 187 401 C187 416 197 421 223 421 L268 421 L268 469 L2 469 L2 421 L29 421 C69 419 79 412 97 374 L268 -3 Z M231 540 L267 540 L413 629 C444 648 454 660 454 677 C454 698 437 715 417 715 C402 715 382 704 365 686 L231 540 Z " />
<glyph glyph-name="thorn" unicode="&#xfe;" horiz-adv-x="646" d="M197 78 C219 49 234 33 249 21 C281 -3 326 -16 374 -16 C510 -16 601 85 601 235 C601 383 510 484 376 484 C320 484 270 466 235 433 C225 423 217 414 198 390 L198 667 L14 667 L14 619 L43 619 C102 617 113 608 112 562 L112 -109 C112 -156 102 -164 43 -166 L20 -166 L20 -214 L301 -214 L301 -166 L266 -166 C206 -164 196 -156 197 -109 L197 78 Z M358 426 C450 426 504 356 504 235 C504 112 451 42 359 42 C259 42 197 116 197 236 C197 350 261 426 358 426 L358 426 Z " />
<glyph glyph-name="ydieresis" unicode="&#xff;" horiz-adv-x="594" d="M268 -3 C238 -67 225 -89 207 -115 C183 -147 154 -164 122 -164 C94 -164 81 -157 61 -132 C105 -129 122 -116 122 -83 C122 -53 98 -30 66 -30 C25 -30 -5 -62 -5 -104 C-5 -134 8 -162 32 -184 C57 -206 80 -214 119 -214 C166 -214 205 -198 238 -165 C267 -135 291 -92 350 38 L496 359 C520 411 528 418 566 421 L597 421 L597 469 L348 469 L348 421 L390 421 C428 421 442 415 442 399 C442 392 439 383 435 372 L315 103 L196 367 C190 381 187 393 187 401 C187 416 197 421 223 421 L268 421 L268 469 L2 469 L2 421 L29 421 C69 419 79 412 97 374 L268 -3 Z M200 674 C171 674 145 649 145 620 C145 588 169 565 200 565 C231 565 254 588 254 619 C254 649 229 674 200 674 L200 674 Z M396 674 C367 674 341 648 341 620 C341 589 365 565 397 565 C427 565 450 589 450 619 C450 649 425 674 396 674 L396 674 Z " />
<glyph glyph-name="Amacron" unicode="&#x100;" horiz-adv-x="735" d="M-21 0 L281 0 L281 53 L228 53 C175 53 162 58 162 78 C162 90 167 108 176 130 L215 223 L482 223 L526 110 C531 97 534 85 534 79 C534 59 519 53 473 53 L417 53 L417 0 L748 0 L748 53 L719 53 C668 54 650 67 632 114 L410 667 L322 667 L96 111 C77 64 62 54 13 53 L-21 53 L-21 0 Z M236 276 L346 561 L459 276 L236 276 Z M242 738 L494 738 L494 803 L242 803 L242 738 Z " />
<glyph glyph-name="amacron" unicode="&#x101;" horiz-adv-x="579" d="M528 159 C525 61 516 38 481 38 C458 38 449 54 449 95 L449 327 C449 397 437 426 398 451 C362 474 312 486 256 486 C144 486 58 431 58 361 C58 326 85 300 121 300 C154 300 179 321 179 349 C179 376 164 391 130 399 C172 431 200 441 245 441 C320 441 369 407 369 354 C369 309 349 290 285 273 L202 251 C138 234 110 224 82 205 C48 182 30 150 30 110 C30 33 92 -18 186 -18 C255 -18 303 3 370 61 C388 4 415 -17 469 -17 C515 -17 546 2 561 40 C573 68 577 95 578 159 L528 159 Z M365 199 C365 137 351 103 314 74 C288 54 246 41 209 41 C157 41 124 69 124 112 C124 133 133 152 149 166 C167 182 180 188 229 203 L270 216 C300 225 311 229 365 253 L365 199 Z M137 585 L399 585 L399 653 L137 653 L137 585 Z " />
<glyph glyph-name="Abreve" unicode="&#x102;" horiz-adv-x="735" d="M-21 0 L281 0 L281 53 L228 53 C175 53 162 58 162 78 C162 90 167 108 176 130 L215 223 L482 223 L526 110 C531 97 534 85 534 79 C534 59 519 53 473 53 L417 53 L417 0 L748 0 L748 53 L719 53 C668 54 650 67 632 114 L410 667 L322 667 L96 111 C77 64 62 54 13 53 L-21 53 L-21 0 Z M236 276 L346 561 L459 276 L236 276 Z M223 834 C233 788 243 768 263 748 C289 723 325 709 367 709 C409 709 447 723 472 748 C492 767 502 788 512 834 L480 834 C465 792 436 777 367 777 C300 777 271 792 255 834 L223 834 Z " />
<glyph glyph-name="abreve" unicode="&#x103;" horiz-adv-x="579" d="M528 159 C525 61 516 38 481 38 C458 38 449 54 449 95 L449 327 C449 397 437 426 398 451 C362 474 312 486 256 486 C144 486 58 431 58 361 C58 326 85 300 121 300 C154 300 179 321 179 349 C179 376 164 391 130 399 C172 431 200 441 245 441 C320 441 369 407 369 354 C369 309 349 290 285 273 L202 251 C138 234 110 224 82 205 C48 182 30 150 30 110 C30 33 92 -18 186 -18 C255 -18 303 3 370 61 C388 4 415 -17 469 -17 C515 -17 546 2 561 40 C573 68 577 95 578 159 L528 159 Z M365 199 C365 137 351 103 314 74 C288 54 246 41 209 41 C157 41 124 69 124 112 C124 133 133 152 149 166 C167 182 180 188 229 203 L270 216 C300 225 311 229 365 253 L365 199 Z M115 692 C126 641 135 619 156 597 C182 571 218 557 260 557 C303 557 340 571 365 597 C386 618 396 641 406 692 L374 692 C359 644 331 628 261 628 C191 628 163 643 147 692 L115 692 Z " />
<glyph glyph-name="Aogonek" unicode="&#x104;" horiz-adv-x="735" d="M748 0 L748 53 L719 53 C668 54 650 67 632 114 L410 667 L322 667 L96 111 C77 64 62 54 13 53 L-21 53 L-21 0 L281 0 L281 53 L228 53 C174 53 162 58 162 80 C162 90 167 108 176 130 L215 223 L482 223 L526 110 C531 97 534 84 534 78 C534 59 518 53 473 53 L417 53 L417 0 L677 0 C608 -46 571 -96 571 -142 C571 -188 603 -217 653 -217 C700 -217 738 -191 764 -141 L749 -133 C729 -158 711 -168 685 -168 C655 -168 637 -146 637 -110 C637 -75 662 -36 706 0 L748 0 Z M236 276 L346 561 L459 276 L236 276 Z " />
<glyph glyph-name="aogonek" unicode="&#x105;" horiz-adv-x="579" d="M528 159 C525 61 516 37 482 37 C458 37 449 53 449 95 L449 327 C449 397 437 426 398 451 C362 474 312 486 256 486 C144 486 58 431 58 361 C58 326 85 300 121 300 C155 300 179 321 179 349 C179 376 164 391 130 399 C172 431 200 441 245 441 C320 441 369 407 369 354 C369 309 349 290 285 273 L202 251 C138 234 110 224 82 205 C48 182 30 150 30 110 C30 33 92 -18 186 -18 C255 -18 303 3 370 61 C386 9 407 -10 455 -17 C398 -63 373 -101 373 -143 C373 -188 405 -217 453 -217 C501 -217 540 -190 565 -141 L550 -133 C530 -158 511 -168 486 -168 C456 -168 437 -146 437 -111 C437 -77 457 -44 488 -26 C502 -17 516 -9 531 -1 C541 5 553 19 561 39 C574 69 577 90 578 159 L528 159 Z M365 199 C365 137 351 103 314 74 C288 54 246 41 209 41 C157 41 124 69 124 112 C124 133 133 152 149 166 C167 182 180 188 229 203 L270 216 C300 225 311 229 365 253 L365 199 Z " />
<glyph glyph-name="Cacute" unicode="&#x106;" horiz-adv-x="740" d="M625 243 C612 174 600 144 572 110 C534 65 474 41 403 41 C323 41 256 71 214 127 C173 180 150 255 150 334 C150 506 252 631 392 631 C462 631 527 602 571 550 C605 511 617 480 628 408 L681 408 L681 667 L633 667 L607 607 C516 669 468 687 388 687 C191 687 42 534 42 331 C42 226 80 134 152 68 C216 9 294 -20 391 -20 C496 -20 571 9 623 69 C662 113 676 153 687 243 L625 243 Z M336 706 L479 770 C502 781 512 793 512 810 C512 830 496 846 477 846 C465 846 450 839 437 827 L301 706 L336 706 Z " />
<glyph glyph-name="cacute" unicode="&#x107;" horiz-adv-x="537" d="M444 175 C432 130 424 111 407 91 C381 60 337 41 288 41 C187 41 127 114 127 236 C127 362 193 438 303 438 C332 438 362 432 386 421 C409 411 420 401 439 372 C399 365 382 350 382 320 C382 288 406 266 440 266 C481 266 509 294 509 336 C509 422 416 486 292 486 C139 486 31 379 31 228 C31 81 131 -18 280 -18 C355 -18 409 2 450 47 C480 80 492 109 505 175 L444 175 Z M202 540 L238 540 L384 629 C413 647 424 660 424 677 C424 698 407 715 387 715 C372 715 352 704 336 686 L202 540 Z " />
<glyph glyph-name="Ccaron" unicode="&#x10c;" horiz-adv-x="740" d="M625 243 C612 174 600 144 572 110 C534 65 474 41 403 41 C323 41 256 71 214 127 C173 180 150 255 150 334 C150 506 252 631 392 631 C462 631 527 602 571 550 C605 511 617 480 628 408 L681 408 L681 667 L633 667 L607 607 C516 669 468 687 388 687 C191 687 42 534 42 331 C42 226 80 134 152 68 C216 9 294 -20 391 -20 C496 -20 571 9 623 69 C662 113 676 153 687 243 L625 243 Z M228 838 L333 706 L407 706 L513 838 L481 838 L370 767 L260 838 L228 838 Z " />
<glyph glyph-name="ccaron" unicode="&#x10d;" horiz-adv-x="537" d="M444 175 C432 130 424 111 407 91 C381 60 337 41 288 41 C187 41 127 114 127 236 C127 362 193 438 303 438 C332 438 362 432 386 421 C409 411 420 401 439 372 C399 365 382 350 382 320 C382 288 406 266 440 266 C481 266 509 294 509 336 C509 422 416 486 292 486 C139 486 31 379 31 228 C31 81 131 -18 280 -18 C355 -18 409 2 450 47 C480 80 492 109 505 175 L444 175 Z M125 709 L236 540 L300 540 L411 709 L376 709 L268 614 L161 709 L125 709 Z " />
<glyph glyph-name="Dcaron" unicode="&#x10e;" horiz-adv-x="824" d="M31 0 L368 0 C543 0 615 18 684 79 C751 138 788 230 788 336 C788 447 746 541 672 599 C603 653 539 667 370 667 L31 667 L31 614 L75 614 C144 612 153 604 151 541 L151 126 C153 63 144 55 75 53 L31 53 L31 0 Z M248 614 L370 614 C492 614 560 593 613 539 C659 492 680 430 680 341 C680 246 655 168 610 124 C561 78 478 53 368 53 L248 53 L248 614 Z M141 838 L246 706 L320 706 L426 838 L394 838 L283 767 L173 838 L141 838 Z " />
<glyph glyph-name="dcaron" unicode="&#x10f;" horiz-adv-x="641" d="M336 619 L370 619 C427 618 438 609 437 562 L437 391 C416 420 400 437 385 448 C354 473 310 486 262 486 C127 486 36 385 36 234 C36 86 127 -15 260 -15 C299 -15 336 -6 367 12 C391 26 409 43 437 81 L437 0 L619 0 L619 48 L593 48 C535 50 525 58 526 105 L526 667 L336 667 L336 619 Z M276 428 C375 428 437 353 437 234 C437 119 373 43 278 43 C185 43 132 113 132 234 C132 358 184 428 276 428 L276 428 Z M602 460 C664 473 708 527 708 590 C708 637 679 669 638 669 C607 669 585 648 585 618 C585 593 605 574 630 574 C640 574 648 577 664 585 C666 540 641 502 602 492 L602 460 Z " />
<glyph glyph-name="Dcroat" unicode="&#x110;" horiz-adv-x="829" d="M35 0 L372 0 C547 0 619 18 687 79 C754 138 791 230 791 335 C791 447 749 541 675 599 C607 652 542 667 374 667 L35 667 L35 614 L79 614 C147 612 156 604 154 541 L154 361 L5 361 L5 313 L154 313 L154 126 C156 63 147 55 79 53 L35 53 L35 0 Z M251 313 L454 313 L454 361 L251 361 L251 614 L374 614 C496 614 564 593 616 539 C662 492 683 429 683 340 C683 246 658 168 613 124 C564 77 482 53 372 53 L251 53 L251 313 Z " />
<glyph glyph-name="dcroat" unicode="&#x111;" horiz-adv-x="641" d="M526 581 L526 667 L336 667 L336 619 L370 619 C419 618 434 610 436 581 L223 581 L223 537 L437 537 L437 391 C416 419 400 437 385 448 C354 473 310 486 262 486 C127 486 36 385 36 234 C36 86 127 -15 260 -15 C299 -15 336 -6 367 12 C391 26 409 43 437 81 L437 0 L619 0 L619 48 L593 48 C536 50 525 58 526 105 L526 537 L577 537 L577 581 L526 581 Z M276 428 C375 428 437 353 437 234 C437 119 374 43 278 43 C185 43 132 113 132 234 C132 358 184 428 276 428 L276 428 Z " />
<glyph glyph-name="Emacron" unicode="&#x112;" horiz-adv-x="777" d="M31 0 L694 0 L694 271 L640 271 C633 88 606 56 452 53 L247 53 L247 323 L319 323 C417 320 428 306 433 178 L487 178 L487 505 L433 505 C432 392 416 374 320 376 L247 376 L247 614 L439 614 C600 613 637 578 640 416 L694 416 L694 667 L31 667 L31 614 L75 614 C143 612 151 604 150 541 L150 126 C151 63 143 55 75 53 L31 53 L31 0 Z M262 738 L514 738 L514 803 L262 803 L262 738 Z " />
<glyph glyph-name="emacron" unicode="&#x113;" horiz-adv-x="553" d="M442 154 C427 110 415 91 393 74 C366 52 327 39 285 39 C233 39 189 59 164 95 C142 126 134 157 132 226 L519 226 C515 322 502 366 464 411 C422 462 363 486 283 486 C130 486 31 387 31 233 C31 82 131 -17 285 -17 C352 -17 403 1 443 38 C474 66 488 93 504 154 L442 154 Z M136 279 C142 337 150 363 171 390 C196 421 232 437 281 437 C326 437 362 422 385 394 C405 367 413 340 416 279 L136 279 Z M145 585 L407 585 L407 653 L145 653 L145 585 Z " />
<glyph glyph-name="Edotaccent" unicode="&#x116;" horiz-adv-x="777" d="M31 0 L694 0 L694 271 L640 271 C633 88 606 56 452 53 L247 53 L247 323 L319 323 C417 320 428 306 433 178 L487 178 L487 505 L433 505 C432 392 416 374 320 376 L247 376 L247 614 L439 614 C600 613 637 578 640 416 L694 416 L694 667 L31 667 L31 614 L75 614 C143 612 151 604 150 541 L150 126 C151 63 143 55 75 53 L31 53 L31 0 Z M389 824 C360 824 335 799 335 771 C335 740 358 717 389 717 C418 717 442 741 442 770 C442 799 418 824 389 824 L389 824 Z " />
<glyph glyph-name="edotaccent" unicode="&#x117;" horiz-adv-x="553" d="M442 154 C427 110 415 91 393 74 C366 52 327 39 285 39 C233 39 189 59 164 95 C142 126 134 157 132 226 L519 226 C515 322 502 366 464 411 C422 462 363 486 283 486 C130 486 31 387 31 233 C31 82 131 -17 285 -17 C352 -17 403 1 443 38 C474 66 488 93 504 154 L442 154 Z M136 279 C142 337 150 363 171 390 C196 421 232 437 281 437 C326 437 362 422 385 394 C405 367 413 340 416 279 L136 279 Z M277 677 C246 677 219 650 219 620 C219 587 244 562 277 562 C309 562 334 587 334 618 C334 650 307 677 277 677 L277 677 Z " />
<glyph glyph-name="Eogonek" unicode="&#x118;" horiz-adv-x="777" d="M694 0 L694 271 L640 271 C633 88 606 56 452 53 L247 53 L247 323 L319 323 C417 320 428 306 433 178 L487 178 L487 505 L433 505 C432 392 416 374 320 376 L247 376 L247 614 L439 614 C600 613 637 578 640 416 L694 416 L694 667 L31 667 L31 614 L75 614 C143 612 151 604 150 541 L150 126 C151 63 143 55 75 53 L31 53 L31 0 L615 0 C545 -46 508 -96 508 -142 C508 -188 540 -217 590 -217 C637 -217 676 -191 701 -141 L686 -133 C666 -158 648 -168 622 -168 C592 -168 574 -146 574 -110 C574 -75 599 -36 643 0 L694 0 Z " />
<glyph glyph-name="eogonek" unicode="&#x119;" horiz-adv-x="553" d="M442 154 C427 110 415 91 393 74 C366 52 327 39 285 39 C233 39 189 59 164 95 C142 126 134 157 132 226 L519 226 C515 322 502 366 464 411 C422 462 363 486 283 486 C130 486 31 387 31 233 C31 74 135 -21 304 -17 C247 -59 217 -104 217 -147 C217 -192 249 -221 297 -221 C344 -221 383 -194 409 -145 L394 -137 C373 -162 355 -172 329 -172 C299 -172 281 -150 281 -115 C281 -98 286 -80 297 -63 C314 -35 329 -24 374 -4 C457 34 481 63 504 154 L442 154 Z M136 279 C142 337 150 363 171 390 C196 421 232 437 281 437 C326 437 362 422 385 394 C405 367 413 340 416 279 L136 279 Z " />
<glyph glyph-name="Ecaron" unicode="&#x11a;" horiz-adv-x="777" d="M31 0 L694 0 L694 271 L640 271 C633 88 606 56 452 53 L247 53 L247 323 L319 323 C417 320 428 306 433 178 L487 178 L487 505 L433 505 C432 392 416 374 320 376 L247 376 L247 614 L439 614 C600 613 637 578 640 416 L694 416 L694 667 L31 667 L31 614 L75 614 C143 612 151 604 150 541 L150 126 C151 63 143 55 75 53 L31 53 L31 0 Z M246 838 L351 706 L425 706 L531 838 L499 838 L388 767 L277 838 L246 838 Z " />
<glyph glyph-name="ecaron" unicode="&#x11b;" horiz-adv-x="553" d="M442 154 C427 110 415 91 393 74 C366 52 327 39 285 39 C233 39 189 59 164 95 C142 126 134 157 132 226 L519 226 C515 322 502 366 464 411 C422 462 363 486 283 486 C130 486 31 387 31 233 C31 82 131 -17 285 -17 C352 -17 403 1 443 38 C474 66 488 93 504 154 L442 154 Z M136 279 C142 337 150 363 171 390 C196 421 232 437 281 437 C326 437 362 422 385 394 C405 367 413 340 416 279 L136 279 Z M133 709 L244 540 L308 540 L419 709 L383 709 L276 614 L169 709 L133 709 Z " />
<glyph glyph-name="Gbreve" unicode="&#x11e;" horiz-adv-x="813" d="M697 -7 L697 232 C697 283 706 290 772 289 L814 289 L814 342 L462 342 L462 289 L519 289 C589 288 598 282 600 232 L600 191 C600 156 592 131 572 108 C538 68 466 41 396 41 C241 41 150 150 150 334 C150 514 243 631 387 631 C449 631 508 607 552 565 C589 529 606 497 629 421 L683 421 L683 667 L635 667 L600 602 C513 669 468 687 381 687 C182 687 42 539 42 329 C42 121 178 -19 381 -19 C463 -19 512 -3 607 56 L645 -7 L697 -7 Z M263 834 C273 788 282 768 303 748 C328 723 365 709 407 709 C449 709 486 723 512 748 C532 767 541 788 551 834 L519 834 C505 792 475 777 407 777 C339 777 310 792 294 834 L263 834 Z " />
<glyph glyph-name="gbreve" unicode="&#x11f;" horiz-adv-x="678" d="M220 60 C153 60 126 71 126 98 C126 123 153 147 179 147 C182 147 187 146 192 145 C249 130 258 128 294 128 C432 128 518 197 518 307 C518 342 512 360 491 397 C522 433 542 444 575 444 C592 444 598 441 611 427 C576 421 560 406 560 379 C560 352 583 331 614 331 C649 331 674 359 674 401 C674 451 634 486 577 486 C533 486 508 474 464 432 C402 472 358 486 289 486 C159 486 72 415 72 309 C72 254 90 218 139 176 C71 140 52 119 52 79 C52 38 75 14 132 -4 C63 -21 31 -50 31 -97 C31 -131 57 -164 98 -183 C146 -205 203 -214 287 -214 C482 -214 576 -166 576 -68 C576 15 507 60 381 60 L220 60 Z M292 439 C332 439 369 426 393 404 C415 383 425 353 425 309 C425 224 380 180 293 180 C208 180 164 223 164 308 C164 390 212 439 292 439 L292 439 Z M331 -20 C446 -21 487 -38 487 -85 C487 -113 471 -131 435 -144 C402 -156 336 -164 272 -164 C173 -164 120 -138 120 -89 C120 -43 171 -20 273 -20 L331 -20 Z M156 692 C167 641 177 619 198 597 C223 571 259 557 302 557 C344 557 381 571 407 597 C427 618 437 641 448 692 L416 692 C400 644 372 628 302 628 C232 628 205 643 188 692 L156 692 Z " />
<glyph glyph-name="Gcommaaccent" unicode="&#x122;" horiz-adv-x="813" d="M697 -7 L697 232 C697 283 706 290 772 289 L814 289 L814 342 L462 342 L462 289 L519 289 C589 288 598 282 600 232 L600 191 C600 156 592 131 572 108 C538 68 466 41 396 41 C241 41 150 150 150 334 C150 514 243 631 387 631 C449 631 508 607 552 565 C589 529 606 497 629 421 L683 421 L683 667 L635 667 L600 602 C513 669 468 687 381 687 C182 687 42 539 42 329 C42 121 178 -19 381 -19 C463 -19 512 -3 607 56 L645 -7 L697 -7 Z M318 -266 C381 -252 424 -198 424 -135 C424 -88 396 -56 354 -56 C324 -56 302 -77 302 -108 C302 -132 322 -152 347 -152 C357 -152 365 -149 380 -141 C382 -186 358 -223 318 -234 L318 -266 Z " />
<glyph glyph-name="gcommaaccent" unicode="&#x123;" horiz-adv-x="678" d="M220 60 C153 60 126 71 126 98 C126 123 153 147 179 147 C182 147 187 146 192 145 C249 130 258 128 294 128 C432 128 518 197 518 307 C518 342 512 360 491 397 C522 433 542 444 575 444 C592 444 598 441 611 427 C576 421 560 406 560 379 C560 352 583 331 614 331 C649 331 674 359 674 401 C674 451 634 486 577 486 C533 486 508 474 464 432 C402 472 358 486 289 486 C159 486 72 415 72 309 C72 254 90 218 139 176 C71 140 52 119 52 79 C52 38 75 14 132 -4 C63 -21 31 -50 31 -97 C31 -131 57 -164 98 -183 C146 -205 203 -214 287 -214 C482 -214 576 -166 576 -68 C576 15 507 60 381 60 L220 60 Z M292 439 C332 439 369 426 393 404 C415 383 425 353 425 309 C425 224 380 180 293 180 C208 180 164 223 164 308 C164 390 212 439 292 439 L292 439 Z M331 -20 C446 -21 487 -38 487 -85 C487 -113 471 -131 435 -144 C402 -156 336 -164 272 -164 C173 -164 120 -138 120 -89 C120 -43 171 -20 273 -20 L331 -20 Z M350 735 C288 721 244 667 244 604 C244 557 272 525 314 525 C344 525 366 546 366 577 C366 601 346 621 321 621 C311 621 303 618 288 610 C285 655 310 692 350 703 L350 735 Z " />
<glyph glyph-name="Imacron" unicode="&#x12a;" horiz-adv-x="407" d="M31 0 L376 0 L376 53 L328 53 C259 55 250 63 252 126 L252 541 C250 604 259 612 328 614 L376 614 L376 667 L31 667 L31 614 L79 614 C147 612 156 604 154 541 L154 126 C156 63 147 55 79 53 L31 53 L31 0 Z M78 738 L330 738 L330 803 L78 803 L78 738 Z " />
<glyph glyph-name="imacron" unicode="&#x12b;" horiz-adv-x="344" d="M31 0 L317 0 L317 48 L289 48 C231 50 221 58 221 105 L221 469 L31 469 L31 421 L64 421 C122 419 133 410 132 364 L132 105 C133 58 122 50 64 48 L31 48 L31 0 Z M41 585 L303 585 L303 653 L41 653 L41 585 Z " />
<glyph glyph-name="Iogonek" unicode="&#x12e;" horiz-adv-x="407" d="M376 0 L376 53 L328 53 C259 55 250 63 252 126 L252 541 C250 604 259 612 328 614 L376 614 L376 667 L31 667 L31 614 L79 614 C147 612 156 604 154 541 L154 126 C156 63 147 55 79 53 L31 53 L31 0 L315 0 C247 -45 210 -95 210 -141 C210 -187 242 -216 292 -216 C340 -216 379 -190 405 -140 L389 -132 C370 -157 351 -167 325 -167 C295 -167 276 -145 276 -109 C276 -75 300 -37 345 0 L376 0 Z " />
<glyph glyph-name="iogonek" unicode="&#x12f;" horiz-adv-x="344" d="M317 0 L317 48 L289 48 C231 50 221 58 221 105 L221 469 L31 469 L31 421 L64 421 C122 419 133 410 132 364 L132 105 C133 58 122 50 64 48 L31 48 L31 0 L282 0 C203 -46 156 -105 156 -154 C156 -200 188 -229 238 -229 C285 -229 323 -203 349 -153 L334 -145 C314 -170 296 -180 270 -180 C240 -180 222 -158 222 -122 C222 -83 251 -41 307 0 L317 0 Z M164 675 C132 675 107 650 107 617 C107 587 133 562 164 562 C195 562 220 587 220 618 C220 649 195 675 164 675 L164 675 Z " />
<glyph glyph-name="Idotaccent" unicode="&#x130;" horiz-adv-x="407" d="M31 0 L376 0 L376 53 L328 53 C259 55 250 63 252 126 L252 541 C250 604 259 612 328 614 L376 614 L376 667 L31 667 L31 614 L79 614 C147 612 156 604 154 541 L154 126 C156 63 147 55 79 53 L31 53 L31 0 Z M204 824 C175 824 150 799 150 771 C150 740 173 717 204 717 C233 717 257 741 257 770 C257 799 233 824 204 824 L204 824 Z " />
<glyph glyph-name="dotlessi" unicode="&#x131;" horiz-adv-x="344" d="M31 0 L317 0 L317 48 L289 48 C231 50 221 58 221 105 L221 469 L31 469 L31 421 L64 421 C122 419 133 410 132 364 L132 105 C133 58 122 50 64 48 L31 48 L31 0 Z " />
<glyph glyph-name="Kcommaaccent" unicode="&#x136;" horiz-adv-x="803" d="M375 53 L322 53 C254 55 246 63 247 126 L247 237 L351 323 L546 121 C583 83 583 82 583 73 C583 60 569 53 542 53 L462 53 L462 0 L842 0 L842 53 L810 53 C752 56 730 66 689 111 L426 384 L602 536 C677 596 709 611 763 614 L805 614 L805 667 L454 667 L454 614 L507 614 C543 614 559 608 559 594 C559 585 552 575 541 565 L247 318 L247 541 C246 604 254 612 322 614 L375 614 L375 667 L31 667 L31 614 L75 614 C143 612 151 604 150 541 L150 126 C151 63 143 55 75 53 L31 53 L31 0 L375 0 L375 53 Z M358 -266 C420 -252 464 -198 464 -135 C464 -88 435 -56 394 -56 C363 -56 341 -77 341 -108 C341 -132 361 -152 386 -152 C396 -152 404 -149 420 -141 C422 -186 397 -223 358 -234 L358 -266 Z " />
<glyph glyph-name="kcommaaccent" unicode="&#x137;" horiz-adv-x="667" d="M204 229 L204 667 L26 667 L26 619 L54 619 C113 617 123 608 123 562 L123 105 C123 58 113 50 54 48 L26 48 L26 0 L297 0 L297 48 L273 48 C214 50 203 58 204 105 L204 165 L293 228 L427 89 C435 80 439 73 439 67 C439 55 417 48 379 48 L352 48 L352 0 L651 0 L651 48 L635 48 C594 49 560 63 532 93 L357 276 L489 377 C534 411 564 421 607 420 L623 420 L623 469 L316 469 L316 420 L363 420 C403 420 419 415 419 404 C419 394 408 380 388 365 L204 229 Z M290 -266 C353 -252 396 -198 396 -135 C396 -88 368 -56 326 -56 C296 -56 274 -77 274 -108 C274 -132 294 -152 319 -152 C329 -152 337 -149 352 -141 C354 -186 330 -223 290 -234 L290 -266 Z " />
<glyph glyph-name="Lacute" unicode="&#x139;" horiz-adv-x="714" d="M31 667 L31 614 L75 614 C144 612 151 604 150 541 L150 126 C152 63 143 55 75 53 L31 53 L31 0 L671 0 L671 277 L617 277 C618 91 584 54 416 53 L247 53 L247 541 C246 604 254 612 322 614 L375 614 L375 667 L31 667 Z M322 706 L465 770 C488 780 498 793 498 810 C498 830 482 846 463 846 C452 846 436 839 423 827 L288 706 L322 706 Z " />
<glyph glyph-name="lacute" unicode="&#x13a;" horiz-adv-x="334" d="M211 667 L26 667 L26 619 L56 619 C115 617 126 609 125 562 L125 105 C126 58 115 50 56 48 L26 48 L26 0 L311 0 L311 48 L280 48 C221 50 211 58 211 105 L211 667 Z M125 721 L161 721 L307 810 C338 829 348 841 348 858 C348 879 331 896 311 896 C296 896 276 885 259 867 L125 721 Z " />
<glyph glyph-name="Lcommaaccent" unicode="&#x13b;" horiz-adv-x="714" d="M31 667 L31 614 L75 614 C144 612 151 604 150 541 L150 126 C152 63 143 55 75 53 L31 53 L31 0 L671 0 L671 277 L617 277 C618 91 584 54 416 53 L247 53 L247 541 C246 604 254 612 322 614 L375 614 L375 667 L31 667 Z M313 -266 C376 -252 419 -198 419 -135 C419 -88 391 -56 349 -56 C319 -56 297 -77 297 -108 C297 -132 317 -152 342 -152 C352 -152 360 -149 375 -141 C378 -186 353 -223 313 -234 L313 -266 Z " />
<glyph glyph-name="lcommaaccent" unicode="&#x13c;" horiz-adv-x="334" d="M211 667 L26 667 L26 619 L56 619 C115 617 126 609 125 562 L125 105 C126 58 115 50 56 48 L26 48 L26 0 L311 0 L311 48 L280 48 C221 50 211 58 211 105 L211 667 Z M123 -266 C186 -252 229 -198 229 -135 C229 -88 201 -56 159 -56 C129 -56 107 -77 107 -108 C107 -132 127 -152 152 -152 C162 -152 170 -149 185 -141 C187 -186 163 -223 123 -234 L123 -266 Z " />
<glyph glyph-name="Lcaron" unicode="&#x13d;" horiz-adv-x="714" d="M31 667 L31 614 L75 614 C144 612 151 604 150 541 L150 126 C152 63 143 55 75 53 L31 53 L31 0 L671 0 L671 277 L617 277 C618 91 584 54 416 53 L247 53 L247 541 C246 604 254 612 322 614 L375 614 L375 667 L31 667 Z M474 472 C536 485 580 539 580 602 C580 649 552 681 510 681 C480 681 458 660 458 630 C458 605 478 586 503 586 C513 586 521 589 536 597 C539 552 514 514 474 504 L474 472 Z " />
<glyph glyph-name="lcaron" unicode="&#x13e;" horiz-adv-x="334" d="M211 667 L26 667 L26 619 L56 619 C115 617 126 609 125 562 L125 105 C126 58 115 50 56 48 L26 48 L26 0 L311 0 L311 48 L280 48 C221 50 211 58 211 105 L211 667 Z M284 474 C346 488 390 542 390 605 C390 652 362 684 320 684 C290 684 268 663 268 632 C268 607 288 588 313 588 C323 588 331 591 346 599 C348 554 323 517 284 506 L284 474 Z " />
<glyph glyph-name="Lslash" unicode="&#x141;" horiz-adv-x="720" d="M153 266 L153 126 C155 63 146 55 78 53 L34 53 L34 0 L674 0 L674 277 L620 277 C621 92 587 54 419 53 L250 53 L250 311 L448 441 L448 497 L250 367 L250 541 C248 604 257 612 325 614 L378 614 L378 667 L34 667 L34 614 L78 614 C146 612 155 604 153 541 L153 323 L5 225 L5 169 L153 266 Z " />
<glyph glyph-name="lslash" unicode="&#x142;" horiz-adv-x="344" d="M126 300 L126 105 C126 58 116 50 58 48 L29 48 L29 0 L314 0 L314 48 L283 48 C225 50 215 58 215 105 L215 338 L343 423 L343 476 L215 392 L215 667 L29 667 L29 619 L58 619 C116 617 126 609 126 562 L126 353 L5 273 L5 219 L126 300 Z " />
<glyph glyph-name="Nacute" unicode="&#x143;" horiz-adv-x="865" d="M732 -3 L732 541 C731 604 738 612 807 614 L841 614 L841 667 L534 667 L534 614 L590 614 C658 612 667 604 665 541 L665 131 L264 667 L31 667 L31 614 L72 614 C140 612 149 604 147 541 L147 126 C149 63 140 55 72 53 L31 53 L31 0 L342 0 L342 53 L289 53 C221 55 212 63 214 126 L214 577 L646 -3 L732 -3 Z M398 706 L541 770 C564 781 574 793 574 810 C574 830 558 846 539 846 C527 846 512 839 499 827 L363 706 L398 706 Z " />
<glyph glyph-name="nacute" unicode="&#x144;" horiz-adv-x="683" d="M31 0 L318 0 L318 48 L284 48 C226 50 216 58 217 105 L217 268 C217 319 229 352 261 384 C290 414 329 429 374 429 C453 429 481 390 481 281 L481 105 C482 58 471 50 412 48 L378 48 L378 0 L659 0 L659 48 L635 48 C576 50 565 58 566 105 L566 268 C566 358 560 388 536 423 C509 461 460 482 399 482 C361 482 323 473 292 458 C264 444 247 428 217 388 L217 469 L31 469 L31 421 L61 421 C118 419 129 410 128 364 L128 105 C129 58 118 50 61 48 L31 48 L31 0 Z M275 540 L311 540 L457 629 C486 647 497 660 497 677 C497 698 480 715 460 715 C445 715 425 704 409 686 L275 540 Z " />
<glyph glyph-name="Ncommaaccent" unicode="&#x145;" horiz-adv-x="865" d="M732 -3 L732 541 C731 604 738 612 807 614 L841 614 L841 667 L534 667 L534 614 L590 614 C658 612 667 604 665 541 L665 131 L264 667 L31 667 L31 614 L72 614 C140 612 149 604 147 541 L147 126 C149 63 140 55 72 53 L31 53 L31 0 L342 0 L342 53 L289 53 C221 55 212 63 214 126 L214 577 L646 -3 L732 -3 Z M389 -266 C451 -252 495 -198 495 -135 C495 -88 467 -56 425 -56 C395 -56 373 -77 373 -108 C373 -132 393 -152 418 -152 C428 -152 435 -149 451 -141 C453 -186 428 -223 389 -234 L389 -266 Z " />
<glyph glyph-name="ncommaaccent" unicode="&#x146;" horiz-adv-x="683" d="M31 0 L318 0 L318 48 L284 48 C226 50 216 58 217 105 L217 268 C217 319 229 352 261 384 C290 414 329 429 374 429 C453 429 481 390 481 281 L481 105 C482 58 471 50 412 48 L378 48 L378 0 L659 0 L659 48 L635 48 C576 50 565 58 566 105 L566 268 C566 358 560 388 536 423 C509 461 460 482 399 482 C361 482 323 473 292 458 C264 444 247 428 217 388 L217 469 L31 469 L31 421 L61 421 C118 419 129 410 128 364 L128 105 C129 58 118 50 61 48 L31 48 L31 0 Z M298 -266 C360 -252 404 -198 404 -135 C404 -88 375 -56 334 -56 C303 -56 281 -77 281 -108 C281 -132 301 -152 326 -152 C336 -152 344 -149 360 -141 C362 -186 337 -223 298 -234 L298 -266 Z " />
<glyph glyph-name="Ncaron" unicode="&#x147;" horiz-adv-x="865" d="M732 -3 L732 541 C731 604 738 612 807 614 L841 614 L841 667 L534 667 L534 614 L590 614 C658 612 667 604 665 541 L665 131 L264 667 L31 667 L31 614 L72 614 C140 612 149 604 147 541 L147 126 C149 63 140 55 72 53 L31 53 L31 0 L342 0 L342 53 L289 53 C221 55 212 63 214 126 L214 577 L646 -3 L732 -3 Z M290 838 L395 706 L469 706 L575 838 L543 838 L432 767 L322 838 L290 838 Z " />
<glyph glyph-name="ncaron" unicode="&#x148;" horiz-adv-x="683" d="M31 0 L318 0 L318 48 L284 48 C226 50 216 58 217 105 L217 268 C217 319 229 352 261 384 C290 414 329 429 374 429 C453 429 481 390 481 281 L481 105 C482 58 471 50 412 48 L378 48 L378 0 L659 0 L659 48 L635 48 C576 50 565 58 566 105 L566 268 C566 358 560 388 536 423 C509 461 460 482 399 482 C361 482 323 473 292 458 C264 444 247 428 217 388 L217 469 L31 469 L31 421 L61 421 C118 419 129 410 128 364 L128 105 C129 58 118 50 61 48 L31 48 L31 0 Z M198 709 L309 540 L373 540 L484 709 L449 709 L341 614 L234 709 L198 709 Z " />
<glyph glyph-name="Omacron" unicode="&#x14c;" horiz-adv-x="834" d="M418 687 C203 687 42 537 42 339 C42 130 198 -19 418 -19 C634 -19 793 131 793 334 C793 538 634 687 418 687 L418 687 Z M418 632 C498 632 566 602 616 546 C662 493 685 423 685 334 C685 154 580 36 418 36 C337 36 268 66 219 122 C172 177 150 245 150 338 C150 515 257 632 418 632 L418 632 Z M292 738 L544 738 L544 803 L292 803 L292 738 Z " />
<glyph glyph-name="omacron" unicode="&#x14d;" horiz-adv-x="605" d="M302 486 C230 486 165 463 113 419 C60 375 32 313 32 238 C32 155 57 98 113 50 C163 6 230 -17 303 -17 C374 -17 441 7 491 50 C546 97 572 156 572 234 C572 313 546 372 491 419 C441 463 375 486 302 486 L302 486 Z M302 435 C413 435 475 363 475 234 C475 106 413 34 302 34 C190 34 129 106 129 237 C129 363 192 435 302 435 L302 435 Z M171 585 L433 585 L433 653 L171 653 L171 585 Z " />
<glyph glyph-name="Ohungarumlaut" unicode="&#x150;" horiz-adv-x="834" d="M418 687 C203 687 42 537 42 339 C42 130 198 -19 418 -19 C634 -19 793 131 793 334 C793 538 634 687 418 687 L418 687 Z M418 632 C498 632 566 602 616 546 C662 493 685 423 685 334 C685 154 580 36 418 36 C337 36 268 66 219 122 C172 177 150 245 150 338 C150 515 257 632 418 632 L418 632 Z M366 706 L459 775 C471 785 479 798 479 811 C479 830 465 844 446 844 C432 844 419 835 407 815 L339 706 L366 706 Z M495 706 L607 774 C622 783 632 797 632 809 C632 828 617 844 598 844 C585 844 570 835 558 819 L468 706 L495 706 Z " />
<glyph glyph-name="ohungarumlaut" unicode="&#x151;" horiz-adv-x="605" d="M302 486 C230 486 165 463 113 419 C60 375 32 313 32 238 C32 155 57 98 113 50 C163 6 230 -17 303 -17 C374 -17 441 7 491 50 C546 97 572 156 572 234 C572 313 546 372 491 419 C441 463 375 486 302 486 L302 486 Z M302 435 C413 435 475 363 475 234 C475 106 413 34 302 34 C190 34 129 106 129 237 C129 363 192 435 302 435 L302 435 Z M206 540 L236 540 L325 634 C344 654 352 668 352 680 C352 698 335 715 317 715 C299 715 284 702 270 673 L206 540 Z M332 540 L361 540 L468 631 C491 651 499 664 499 680 C499 699 484 714 464 714 C447 714 430 702 416 678 L332 540 Z " />
<glyph glyph-name="OE" unicode="&#x152;" horiz-adv-x="1272" d="M1187 667 L723 667 L454 686 C361 686 292 671 228 638 C108 575 42 467 42 333 C42 210 99 108 204 43 C272 1 349 -19 448 -19 C484 -19 519 -17 553 -14 C583 -11 614 -7 645 -4 C673 -1 701 0 727 0 L1187 0 L1187 271 L1133 271 C1126 88 1099 57 944 53 L739 53 L739 323 L811 323 C909 320 920 306 925 178 L979 178 L979 505 L925 505 C924 392 908 374 812 376 L739 376 L739 614 L931 614 C1093 613 1129 578 1133 416 L1187 416 L1187 667 Z M642 126 C642 78 639 70 621 60 C591 45 527 33 470 33 C269 33 150 145 150 333 C150 523 268 634 471 634 C522 634 584 624 615 610 C639 599 642 592 642 541 L642 126 Z " />
<glyph glyph-name="oe" unicode="&#x153;" horiz-adv-x="980" d="M869 154 C854 110 842 91 820 74 C793 52 754 39 712 39 C660 39 616 59 591 95 C569 126 561 157 559 226 L946 226 C941 322 928 366 891 411 C849 461 790 486 709 486 C626 486 579 466 509 401 C442 462 385 486 300 486 C229 486 162 462 112 419 C57 372 31 313 31 234 C31 156 57 97 112 50 C162 7 229 -17 301 -17 C346 -17 390 -8 428 10 C456 23 475 38 511 73 C536 45 552 30 569 19 C606 -4 657 -17 712 -17 C779 -17 830 1 870 38 C901 66 915 93 931 154 L869 154 Z M299 435 C408 435 470 363 470 234 C470 107 408 34 299 34 C189 34 128 106 128 237 C128 363 190 435 299 435 L299 435 Z M563 279 C569 337 577 363 598 390 C623 421 659 437 708 437 C753 437 789 422 811 394 C832 367 840 340 843 279 L563 279 Z " />
<glyph glyph-name="Racute" unicode="&#x154;" horiz-adv-x="808" d="M375 53 L322 53 C254 55 246 63 247 126 L247 320 L383 320 C495 319 545 275 549 174 L552 92 C556 19 593 -20 658 -20 C714 -20 746 -1 763 42 C775 72 779 98 780 163 L730 163 C726 64 720 45 689 45 C662 45 654 66 654 140 C654 271 623 315 510 342 C578 353 606 362 638 383 C677 410 698 450 698 501 C698 555 673 602 631 626 C582 654 508 667 393 667 L31 667 L31 614 L75 614 C144 612 151 604 150 541 L150 126 C151 63 144 55 75 53 L31 53 L31 0 L375 0 L375 53 Z M247 373 L247 614 L393 614 C438 614 498 608 519 601 C569 585 597 548 597 499 C597 414 527 373 383 373 L247 373 Z M281 706 L424 770 C448 781 458 793 458 810 C458 830 442 846 423 846 C411 846 396 839 383 827 L247 706 L281 706 Z " />
<glyph glyph-name="racute" unicode="&#x155;" horiz-adv-x="500" d="M335 48 L284 48 C226 50 216 58 217 105 L217 217 C217 273 226 314 246 352 C277 407 316 436 362 436 C388 436 399 431 422 408 C384 408 364 391 364 359 C364 330 389 308 422 308 C459 308 487 338 487 375 C487 438 437 483 368 483 C302 483 256 449 217 372 L217 469 L31 469 L31 421 L61 421 C118 419 129 410 128 364 L128 105 C129 58 118 50 61 48 L31 48 L31 0 L335 0 L335 48 Z M184 540 L220 540 L365 629 C396 647 406 660 406 677 C406 698 389 715 369 715 C354 715 334 704 318 686 L184 540 Z " />
<glyph glyph-name="Rcommaaccent" unicode="&#x156;" horiz-adv-x="808" d="M375 53 L322 53 C254 55 246 63 247 126 L247 320 L383 320 C495 319 545 275 549 174 L552 92 C556 19 593 -20 658 -20 C714 -20 746 -1 763 42 C775 72 779 98 780 163 L730 163 C726 64 720 45 689 45 C662 45 654 66 654 140 C654 271 623 315 510 342 C578 353 606 362 638 383 C677 410 698 450 698 501 C698 555 673 602 631 626 C582 654 508 667 393 667 L31 667 L31 614 L75 614 C144 612 151 604 150 541 L150 126 C151 63 144 55 75 53 L31 53 L31 0 L375 0 L375 53 Z M247 373 L247 614 L393 614 C438 614 498 608 519 601 C569 585 597 548 597 499 C597 414 527 373 383 373 L247 373 Z M360 -266 C422 -252 466 -198 466 -135 C466 -88 438 -56 396 -56 C366 -56 344 -77 344 -108 C344 -132 364 -152 389 -152 C399 -152 407 -149 422 -141 C425 -186 400 -223 360 -234 L360 -266 Z " />
<glyph glyph-name="rcommaaccent" unicode="&#x157;" horiz-adv-x="500" d="M335 48 L284 48 C226 50 216 58 217 105 L217 217 C217 273 226 314 246 352 C277 407 316 436 362 436 C388 436 399 431 422 408 C384 408 364 391 364 359 C364 330 389 308 422 308 C459 308 487 338 487 375 C487 438 437 483 368 483 C302 483 256 449 217 372 L217 469 L31 469 L31 421 L61 421 C118 419 129 410 128 364 L128 105 C129 58 118 50 61 48 L31 48 L31 0 L335 0 L335 48 Z M137 -266 C200 -252 243 -198 243 -135 C243 -88 215 -56 173 -56 C143 -56 121 -77 121 -108 C121 -132 141 -152 166 -152 C176 -152 184 -149 199 -141 C201 -186 177 -223 137 -234 L137 -266 Z " />
<glyph glyph-name="Rcaron" unicode="&#x158;" horiz-adv-x="808" d="M375 53 L322 53 C254 55 246 63 247 126 L247 320 L383 320 C495 319 545 275 549 174 L552 92 C556 19 593 -20 658 -20 C714 -20 746 -1 763 42 C775 72 779 98 780 163 L730 163 C726 64 720 45 689 45 C662 45 654 66 654 140 C654 271 623 315 510 342 C578 353 606 362 638 383 C677 410 698 450 698 501 C698 555 673 602 631 626 C582 654 508 667 393 667 L31 667 L31 614 L75 614 C144 612 151 604 150 541 L150 126 C151 63 144 55 75 53 L31 53 L31 0 L375 0 L375 53 Z M247 373 L247 614 L393 614 C438 614 498 608 519 601 C569 585 597 548 597 499 C597 414 527 373 383 373 L247 373 Z M186 838 L292 706 L366 706 L471 838 L439 838 L329 767 L218 838 L186 838 Z " />
<glyph glyph-name="rcaron" unicode="&#x159;" horiz-adv-x="500" d="M335 48 L284 48 C226 50 216 58 217 105 L217 217 C217 273 226 314 246 352 C277 407 316 436 362 436 C388 436 399 431 422 408 C384 408 364 391 364 359 C364 330 389 308 422 308 C459 308 487 338 487 375 C487 438 437 483 368 483 C302 483 256 449 217 372 L217 469 L31 469 L31 421 L61 421 C118 419 129 410 128 364 L128 105 C129 58 118 50 61 48 L31 48 L31 0 L335 0 L335 48 Z M107 709 L218 540 L282 540 L393 709 L357 709 L250 614 L143 709 L107 709 Z " />
<glyph glyph-name="Sacute" unicode="&#x15a;" horiz-adv-x="657" d="M47 0 L100 0 L134 74 C226 0 274 -20 369 -20 C521 -20 627 66 627 189 C627 245 606 293 567 322 C528 352 474 371 382 388 L281 407 C177 427 134 459 134 518 C134 585 197 629 296 629 C367 629 429 606 471 565 C503 533 518 498 533 420 L589 420 L589 673 L541 673 L510 612 C438 667 381 687 295 687 C144 687 49 613 49 496 C49 438 71 393 114 364 C152 338 177 330 284 307 L371 289 C434 276 472 263 492 250 C522 230 537 202 537 168 C537 93 469 43 367 43 C294 43 227 69 179 118 C138 158 121 194 104 277 L47 277 L47 0 Z M294 706 L437 770 C460 781 470 793 470 810 C470 830 454 846 435 846 C423 846 408 839 395 827 L259 706 L294 706 Z " />
<glyph glyph-name="sacute" unicode="&#x15b;" horiz-adv-x="521" d="M42 -4 L96 -4 L117 46 C177 -1 219 -16 288 -16 C409 -16 485 42 485 134 C485 206 427 256 321 275 L223 292 C163 303 132 327 132 364 C132 406 171 433 234 433 C283 433 325 418 356 390 C382 367 393 345 407 293 L459 293 L459 475 L412 475 L392 433 C332 471 289 485 227 485 C122 485 49 428 49 346 C49 275 110 221 212 202 L306 185 C373 172 403 151 403 114 C403 68 357 38 287 38 C239 38 192 55 156 85 C124 112 111 135 96 192 L42 192 L42 -4 Z M195 540 L231 540 L376 629 C407 647 417 660 417 677 C417 698 400 715 380 715 C365 715 345 704 329 686 L195 540 Z " />
<glyph glyph-name="Scedilla" unicode="&#x15e;" horiz-adv-x="657" d="M334 -18 C350 -20 360 -20 370 -20 C443 -20 511 3 561 44 C605 80 627 129 627 189 C627 246 605 293 567 323 C528 352 475 371 382 388 L281 407 C177 427 134 459 134 518 C134 585 197 629 295 629 C366 629 429 606 470 565 C503 533 518 498 533 420 L589 420 L589 673 L540 673 L510 612 C438 667 381 687 294 687 C144 687 49 613 49 496 C49 438 72 393 114 364 C152 338 177 330 284 307 L370 289 C434 275 472 263 492 250 C522 230 537 202 537 168 C537 93 469 43 367 43 C294 43 227 69 178 118 C138 158 121 194 104 277 L47 277 L47 0 L100 0 L134 74 C212 12 243 -5 303 -14 L303 -101 C320 -96 329 -95 341 -95 C371 -95 391 -111 391 -135 C391 -160 370 -174 334 -174 C299 -174 254 -159 215 -135 L196 -178 C251 -204 301 -217 345 -217 C417 -217 462 -184 462 -133 C462 -89 424 -56 372 -56 C362 -56 348 -57 334 -58 L334 -18 Z " />
<glyph glyph-name="scedilla" unicode="&#x15f;" horiz-adv-x="521" d="M268 -16 L289 -16 C408 -16 485 43 485 135 C485 206 427 256 320 275 L223 292 C163 303 132 327 132 364 C132 406 171 433 233 433 C282 433 325 418 356 390 C382 367 393 345 406 293 L459 293 L459 475 L412 475 L392 433 C332 471 289 485 227 485 C122 485 49 428 49 346 C49 275 110 221 212 202 L306 185 C373 172 403 151 403 114 C403 68 357 38 286 38 C238 38 192 55 156 85 C124 112 111 135 96 192 L42 192 L42 -4 L96 -4 L117 46 C165 9 188 -3 237 -12 L237 -95 C254 -90 263 -89 275 -89 C308 -89 327 -105 327 -133 C327 -160 307 -174 268 -174 C233 -174 189 -160 149 -135 L130 -178 C187 -205 235 -217 279 -217 C353 -217 396 -185 396 -130 C396 -83 359 -50 306 -50 C295 -50 282 -51 268 -52 L268 -16 Z " />
<glyph glyph-name="Scaron" unicode="&#x160;" horiz-adv-x="657" d="M186 838 L291 706 L365 706 L471 838 L439 838 L328 767 L218 838 L186 838 Z M47 0 L100 0 L134 74 C226 0 274 -20 369 -20 C521 -20 627 66 627 189 C627 245 606 293 567 322 C528 352 474 371 382 388 L281 407 C177 427 134 459 134 518 C134 585 197 629 296 629 C367 629 429 606 471 565 C503 533 518 498 533 420 L589 420 L589 673 L541 673 L510 612 C438 667 381 687 295 687 C144 687 49 613 49 496 C49 438 71 393 114 364 C152 338 177 330 284 307 L371 289 C434 276 472 263 492 250 C522 230 537 202 537 168 C537 93 469 43 367 43 C294 43 227 69 179 118 C138 158 121 194 104 277 L47 277 L47 0 Z " />
<glyph glyph-name="scaron" unicode="&#x161;" horiz-adv-x="521" d="M42 -4 L96 -4 L117 46 C177 -1 219 -16 288 -16 C409 -16 485 42 485 134 C485 206 427 256 321 275 L223 292 C163 303 132 327 132 364 C132 406 171 433 234 433 C283 433 325 418 356 390 C382 367 393 345 407 293 L459 293 L459 475 L412 475 L392 433 C332 471 289 485 227 485 C122 485 49 428 49 346 C49 275 110 221 212 202 L306 185 C373 172 403 151 403 114 C403 68 357 38 287 38 C239 38 192 55 156 85 C124 112 111 135 96 192 L42 192 L42 -4 Z M118 709 L229 540 L293 540 L404 709 L368 709 L261 614 L154 709 L118 709 Z " />
<glyph glyph-name="Tcommaaccent" unicode="&#x162;" horiz-adv-x="699" d="M28 405 L81 405 C88 570 126 612 268 614 L301 614 L301 126 C302 63 294 55 226 53 L159 53 L159 0 L539 0 L539 53 L473 53 C405 55 397 63 398 126 L398 614 L431 614 C572 612 610 569 617 405 L670 405 L670 667 L28 667 L28 405 Z M305 -266 C368 -252 411 -198 411 -135 C411 -88 383 -56 341 -56 C311 -56 289 -77 289 -108 C289 -132 309 -152 334 -152 C344 -152 352 -149 367 -141 C370 -186 345 -223 305 -234 L305 -266 Z " />
<glyph glyph-name="tcommaaccent" unicode="&#x163;" horiz-adv-x="422" d="M104 420 L104 95 C104 26 152 -17 228 -17 C284 -17 329 8 347 50 C360 79 364 106 368 192 L320 192 C319 135 315 102 307 80 C298 56 275 41 245 41 C209 41 194 58 194 95 L194 420 L343 420 L343 469 L194 469 L194 655 L145 655 C132 527 97 476 16 469 L16 420 L104 420 Z M113 -266 C175 -252 219 -198 219 -135 C219 -88 190 -56 149 -56 C118 -56 96 -77 96 -108 C96 -132 116 -152 141 -152 C151 -152 159 -149 175 -141 C177 -186 152 -223 113 -234 L113 -266 Z " />
<glyph glyph-name="Tcaron" unicode="&#x164;" horiz-adv-x="699" d="M28 405 L81 405 C88 570 126 612 268 614 L301 614 L301 126 C302 63 294 55 226 53 L159 53 L159 0 L539 0 L539 53 L473 53 C405 55 397 63 398 126 L398 614 L431 614 C572 612 610 569 617 405 L670 405 L670 667 L28 667 L28 405 Z M206 838 L312 706 L386 706 L492 838 L460 838 L349 767 L238 838 L206 838 Z " />
<glyph glyph-name="tcaron" unicode="&#x165;" horiz-adv-x="422" d="M104 420 L104 95 C104 26 152 -17 228 -17 C284 -17 329 8 347 50 C360 79 364 106 368 192 L320 192 C319 135 315 102 307 80 C298 56 275 41 245 41 C209 41 194 58 194 95 L194 420 L343 420 L343 469 L194 469 L194 655 L145 655 C132 527 97 476 16 469 L16 420 L104 420 Z M319 532 C380 545 424 599 424 662 C424 709 396 741 354 741 C324 741 302 720 302 690 C302 665 322 646 347 646 C357 646 365 648 380 657 C383 612 358 574 319 564 L319 532 Z " />
<glyph glyph-name="Umacron" unicode="&#x16a;" horiz-adv-x="798" d="M31 614 L66 614 C134 612 143 604 141 541 L141 209 C141 125 166 67 220 30 C267 -3 328 -20 401 -20 C484 -20 550 2 597 43 C644 87 665 147 665 244 L665 541 C663 604 672 612 740 614 L772 614 L772 667 L471 667 L471 614 L523 614 C591 612 600 604 598 541 L598 244 C598 163 586 120 553 91 C522 63 472 47 413 47 C294 47 238 99 238 209 L238 541 C236 604 245 612 313 614 L366 614 L366 667 L31 667 L31 614 Z M289 738 L541 738 L541 803 L289 803 L289 738 Z " />
<glyph glyph-name="umacron" unicode="&#x16b;" horiz-adv-x="678" d="M26 421 L48 421 C103 419 112 411 112 364 L112 201 C112 112 118 80 143 46 C170 8 221 -13 283 -13 C323 -13 362 -4 393 11 C422 25 440 41 470 81 L470 0 L654 0 L654 48 L624 48 C565 50 554 59 555 105 L555 469 L368 469 L368 421 L406 421 C461 419 470 411 470 364 L470 201 C470 150 457 117 425 85 C395 55 355 40 308 40 C226 40 197 79 197 188 L197 469 L26 469 L26 421 Z M195 585 L457 585 L457 653 L195 653 L195 585 Z " />
<glyph glyph-name="Uring" unicode="&#x16e;" horiz-adv-x="798" d="M31 614 L66 614 C134 612 143 604 141 541 L141 209 C141 125 166 67 220 30 C267 -3 328 -20 401 -20 C484 -20 550 2 597 43 C644 87 665 147 665 244 L665 541 C663 604 672 612 740 614 L772 614 L772 667 L471 667 L471 614 L523 614 C591 612 600 604 598 541 L598 244 C598 163 586 120 553 91 C522 63 472 47 413 47 C294 47 238 99 238 209 L238 541 C236 604 245 612 313 614 L366 614 L366 667 L31 667 L31 614 Z M415 893 C363 893 319 851 319 800 C319 745 362 701 416 701 C468 701 511 745 511 798 C511 851 468 893 415 893 L415 893 Z M415 848 C443 848 466 825 466 797 C466 770 443 746 415 746 C386 746 364 769 364 799 C364 826 387 848 415 848 L415 848 Z " />
<glyph glyph-name="uring" unicode="&#x16f;" horiz-adv-x="678" d="M26 421 L48 421 C103 419 112 411 112 364 L112 201 C112 112 118 80 143 46 C170 8 221 -13 283 -13 C323 -13 362 -4 393 11 C422 25 440 41 470 81 L470 0 L654 0 L654 48 L624 48 C565 50 554 59 555 105 L555 469 L368 469 L368 421 L406 421 C461 419 470 411 470 364 L470 201 C470 150 457 117 425 85 C395 55 355 40 308 40 C226 40 197 79 197 188 L197 469 L26 469 L26 421 Z M312 759 C247 759 192 706 192 642 C192 572 245 519 313 519 C379 519 432 573 432 639 C432 705 378 759 312 759 L312 759 Z M312 708 C349 708 380 677 380 639 C380 601 349 570 312 570 C274 570 243 601 243 641 C243 677 275 708 312 708 L312 708 Z " />
<glyph glyph-name="Uhungarumlaut" unicode="&#x170;" horiz-adv-x="798" d="M31 614 L66 614 C134 612 143 604 141 541 L141 209 C141 125 166 67 220 30 C267 -3 328 -20 401 -20 C484 -20 550 2 597 43 C644 87 665 147 665 244 L665 541 C663 604 672 612 740 614 L772 614 L772 667 L471 667 L471 614 L523 614 C591 612 600 604 598 541 L598 244 C598 163 586 120 553 91 C522 63 472 47 413 47 C294 47 238 99 238 209 L238 541 C236 604 245 612 313 614 L366 614 L366 667 L31 667 L31 614 Z M346 706 L439 775 C452 786 460 798 460 811 C460 830 446 844 427 844 C412 844 399 834 387 815 L319 706 L346 706 Z M475 706 L587 774 C602 783 612 797 612 809 C612 828 597 844 578 844 C566 844 551 835 538 819 L448 706 L475 706 Z " />
<glyph glyph-name="uhungarumlaut" unicode="&#x171;" horiz-adv-x="678" d="M26 421 L48 421 C103 419 112 411 112 364 L112 201 C112 112 118 80 143 46 C170 8 221 -13 283 -13 C323 -13 362 -4 393 11 C422 25 440 41 470 81 L470 0 L654 0 L654 48 L624 48 C565 50 554 59 555 105 L555 469 L368 469 L368 421 L406 421 C461 419 470 411 470 364 L470 201 C470 150 457 117 425 85 C395 55 355 40 308 40 C226 40 197 79 197 188 L197 469 L26 469 L26 421 Z M243 540 L272 540 L362 634 C381 655 389 668 389 680 C389 699 372 715 353 715 C335 715 320 701 307 673 L243 540 Z M368 540 L398 540 L504 631 C528 652 536 664 536 680 C536 699 520 714 501 714 C483 714 467 702 452 678 L368 540 Z " />
<glyph glyph-name="Uogonek" unicode="&#x172;" horiz-adv-x="798" d="M772 614 L772 667 L471 667 L471 614 L523 614 C591 612 600 604 598 541 L598 244 C598 163 586 120 553 91 C522 63 472 47 413 47 C294 47 238 99 238 209 L238 541 C236 604 245 612 313 614 L366 614 L366 667 L31 667 L31 614 L66 614 C134 612 143 604 141 541 L141 209 C141 125 166 67 220 30 C267 -3 328 -20 400 -20 C429 -20 455 -17 482 -12 C420 -58 392 -99 392 -142 C392 -188 424 -217 474 -217 C521 -217 560 -191 585 -141 L570 -133 C550 -158 531 -168 506 -168 C475 -168 457 -146 457 -110 C457 -71 485 -31 535 0 C637 62 661 107 665 244 L665 541 C663 604 672 612 740 614 L772 614 Z " />
<glyph glyph-name="uogonek" unicode="&#x173;" horiz-adv-x="678" d="M654 0 L654 48 L624 48 C565 50 554 59 555 105 L555 469 L368 469 L368 421 L406 421 C461 419 470 411 470 364 L470 201 C470 150 457 117 425 85 C395 55 355 40 308 40 C226 40 197 79 197 188 L197 469 L26 469 L26 421 L48 421 C103 419 112 411 112 364 L112 201 C112 112 118 80 143 46 C170 8 221 -13 283 -13 C322 -13 362 -4 393 11 C422 25 440 41 470 81 L470 0 L560 0 C491 -46 454 -96 454 -143 C454 -188 486 -217 534 -217 C582 -217 622 -190 647 -141 L632 -133 C611 -158 593 -168 567 -168 C537 -168 519 -146 519 -110 C519 -75 545 -34 589 0 L654 0 Z " />
<glyph glyph-name="Ydieresis" unicode="&#x178;" horiz-adv-x="667" d="M282 263 L282 126 C284 63 275 55 207 53 L140 53 L140 0 L520 0 L520 53 L454 53 C385 55 377 63 379 126 L379 263 L555 532 C598 597 621 614 665 614 L689 614 L689 667 L405 667 L405 614 L476 614 C498 614 512 607 512 596 C512 588 507 575 500 564 L346 331 L208 555 C197 571 192 584 192 593 C192 607 205 614 230 614 L295 614 L295 667 L-26 667 L-26 614 L4 614 C40 612 68 593 95 550 L282 263 Z M240 821 C213 821 189 798 189 771 C189 742 211 720 240 720 C269 720 291 742 291 770 C291 797 268 821 240 821 L240 821 Z M428 821 C401 821 377 798 377 771 C377 742 399 720 428 720 C457 720 479 742 479 770 C479 797 456 821 428 821 L428 821 Z " />
<glyph glyph-name="Zacute" unicode="&#x179;" horiz-adv-x="646" d="M26 0 L595 0 L595 287 L539 287 C529 88 506 59 349 53 L149 53 L596 611 L596 667 L46 667 L46 403 L100 403 C108 576 140 615 276 614 L475 614 L26 54 L26 0 Z M288 706 L431 770 C455 781 465 793 465 810 C465 830 449 846 430 846 C418 846 403 839 390 827 L254 706 L288 706 Z " />
<glyph glyph-name="zacute" unicode="&#x17a;" horiz-adv-x="521" d="M26 0 L481 0 L481 212 L431 212 C423 65 409 51 273 50 L139 50 L472 420 L472 469 L43 469 L43 272 L94 272 C103 405 120 423 237 420 L361 420 L26 50 L26 0 Z M194 540 L230 540 L376 629 C407 648 417 660 417 677 C417 698 400 715 380 715 C365 715 345 704 328 686 L194 540 Z " />
<glyph glyph-name="Zdotaccent" unicode="&#x17b;" horiz-adv-x="646" d="M26 0 L595 0 L595 287 L539 287 C529 88 506 59 349 53 L149 53 L596 611 L596 667 L46 667 L46 403 L100 403 C108 576 140 615 276 614 L475 614 L26 54 L26 0 Z M324 824 C295 824 270 799 270 771 C270 740 293 717 324 717 C353 717 377 741 377 770 C377 799 353 824 324 824 L324 824 Z " />
<glyph glyph-name="zdotaccent" unicode="&#x17c;" horiz-adv-x="521" d="M26 0 L481 0 L481 212 L431 212 C423 65 409 51 273 50 L139 50 L472 420 L472 469 L43 469 L43 272 L94 272 C103 405 120 423 237 420 L361 420 L26 50 L26 0 Z M261 677 C230 677 203 650 203 620 C203 587 228 562 261 562 C293 562 318 587 318 618 C318 650 291 677 261 677 L261 677 Z " />
<glyph glyph-name="Zcaron" unicode="&#x17d;" horiz-adv-x="646" d="M26 0 L595 0 L595 287 L539 287 C529 88 506 59 349 53 L149 53 L596 611 L596 667 L46 667 L46 403 L100 403 C108 576 140 615 276 614 L475 614 L26 54 L26 0 Z M181 838 L286 706 L360 706 L466 838 L434 838 L323 767 L212 838 L181 838 Z " />
<glyph glyph-name="zcaron" unicode="&#x17e;" horiz-adv-x="521" d="M26 0 L481 0 L481 212 L431 212 C423 65 409 51 273 50 L139 50 L472 420 L472 469 L43 469 L43 272 L94 272 C103 405 120 423 237 420 L361 420 L26 50 L26 0 Z M118 709 L228 540 L293 540 L403 709 L368 709 L261 614 L153 709 L118 709 Z " />
<glyph glyph-name="florin" unicode="&#x192;" horiz-adv-x="639" d="M287 420 L225 45 C216 -7 213 -23 207 -39 C191 -83 161 -104 115 -104 C88 -104 76 -99 51 -79 C83 -71 100 -53 100 -28 C100 -3 81 13 53 13 C14 13 -14 -17 -14 -59 C-14 -114 39 -149 120 -149 C181 -149 232 -129 265 -91 C286 -67 301 -31 308 13 L376 420 L494 420 L502 469 L385 469 L391 506 C399 556 406 580 418 600 C433 625 462 639 497 639 C525 639 537 634 561 614 C529 606 512 588 512 562 C512 538 531 521 560 521 C599 521 627 551 627 593 C627 648 574 684 493 684 C444 684 401 671 368 645 C332 617 314 579 302 509 L295 469 L198 469 L190 420 L287 420 Z " />
<glyph glyph-name="uni01D3" unicode="&#x1d3;" horiz-adv-x="798" d="M31 614 L66 614 C134 612 143 604 141 541 L141 209 C141 125 166 67 220 30 C267 -3 328 -20 401 -20 C484 -20 550 2 597 43 C644 87 665 147 665 244 L665 541 C663 604 672 612 740 614 L772 614 L772 667 L471 667 L471 614 L523 614 C591 612 600 604 598 541 L598 244 C598 163 586 120 553 91 C522 63 472 47 413 47 C294 47 238 99 238 209 L238 541 C236 604 245 612 313 614 L366 614 L366 667 L31 667 L31 614 Z M256 838 L361 706 L436 706 L541 838 L509 838 L398 767 L288 838 L256 838 Z " />
<glyph glyph-name="Scommaaccent" unicode="&#x218;" horiz-adv-x="657" d="M47 0 L100 0 L134 74 C226 0 274 -20 369 -20 C521 -20 627 66 627 189 C627 245 606 293 567 322 C528 352 474 371 382 388 L281 407 C177 427 134 459 134 518 C134 585 197 629 296 629 C367 629 429 606 471 565 C503 533 518 498 533 420 L589 420 L589 673 L541 673 L510 612 C438 667 381 687 295 687 C144 687 49 613 49 496 C49 438 71 393 114 364 C152 338 177 330 284 307 L371 289 C434 276 472 263 492 250 C522 230 537 202 537 168 C537 93 469 43 367 43 C294 43 227 69 179 118 C138 158 121 194 104 277 L47 277 L47 0 Z M265 -266 C327 -252 370 -198 370 -135 C370 -88 342 -56 300 -56 C270 -56 248 -77 248 -108 C248 -132 268 -152 293 -152 C303 -152 311 -149 326 -141 C329 -186 304 -223 265 -234 L265 -266 Z " />
<glyph glyph-name="scommaaccent" unicode="&#x219;" horiz-adv-x="521" d="M42 -4 L96 -4 L117 46 C177 -1 219 -16 288 -16 C409 -16 485 42 485 134 C485 206 427 256 321 275 L223 292 C163 303 132 327 132 364 C132 406 171 433 234 433 C283 433 325 418 356 390 C382 367 393 345 407 293 L459 293 L459 475 L412 475 L392 433 C332 471 289 485 227 485 C122 485 49 428 49 346 C49 275 110 221 212 202 L306 185 C373 172 403 151 403 114 C403 68 357 38 287 38 C239 38 192 55 156 85 C124 112 111 135 96 192 L42 192 L42 -4 Z M218 -266 C280 -252 323 -198 323 -135 C323 -88 295 -56 253 -56 C223 -56 201 -77 201 -108 C201 -132 221 -152 246 -152 C256 -152 264 -149 279 -141 C282 -186 257 -223 218 -234 L218 -266 Z " />
<glyph glyph-name="uni021A" unicode="&#x21a;" horiz-adv-x="699" d="M28 405 L81 405 C88 570 126 612 268 614 L301 614 L301 126 C302 63 294 55 226 53 L159 53 L159 0 L539 0 L539 53 L473 53 C405 55 397 63 398 126 L398 614 L431 614 C572 612 610 569 617 405 L670 405 L670 667 L28 667 L28 405 Z M305 -266 C368 -252 411 -198 411 -135 C411 -88 383 -56 341 -56 C311 -56 289 -77 289 -108 C289 -132 309 -152 334 -152 C344 -152 352 -149 367 -141 C370 -186 345 -223 305 -234 L305 -266 Z " />
<glyph glyph-name="uni021B" unicode="&#x21b;" horiz-adv-x="422" d="M104 420 L104 95 C104 26 152 -17 228 -17 C284 -17 329 8 347 50 C360 79 364 106 368 192 L320 192 C319 135 315 102 307 80 C298 56 275 41 245 41 C209 41 194 58 194 95 L194 420 L343 420 L343 469 L194 469 L194 655 L145 655 C132 527 97 476 16 469 L16 420 L104 420 Z M113 -266 C175 -252 219 -198 219 -135 C219 -88 190 -56 149 -56 C118 -56 96 -77 96 -108 C96 -132 116 -152 141 -152 C151 -152 159 -149 175 -141 C177 -186 152 -223 113 -234 L113 -266 Z " />
<glyph glyph-name="afii57929" unicode="&#x2bc;" horiz-adv-x="240" d="M36 445 C91 455 116 466 142 494 C168 520 183 558 183 597 C183 651 150 687 101 687 C65 687 41 664 41 631 C41 601 62 580 93 580 C107 580 116 583 134 594 L134 579 C134 556 128 538 113 519 C96 497 76 487 36 480 L36 445 Z " />
<glyph glyph-name="circumflex" unicode="&#x2c6;" horiz-adv-x="511" d="M113 540 L148 540 L256 635 L363 540 L399 540 L288 709 L223 709 L113 540 Z " />
<glyph glyph-name="caron" unicode="&#x2c7;" horiz-adv-x="511" d="M113 709 L223 540 L288 540 L399 709 L363 709 L256 614 L148 709 L113 709 Z " />
<glyph glyph-name="uni02C9" unicode="&#x2c9;" horiz-adv-x="512" d="M125 585 L387 585 L387 653 L125 653 L125 585 Z " />
<glyph glyph-name="breve" unicode="&#x2d8;" horiz-adv-x="510" d="M110 692 C120 641 130 619 151 597 C177 571 213 557 255 557 C298 557 335 571 360 597 C381 618 391 641 401 692 L369 692 C354 644 326 628 255 628 C186 628 158 643 141 692 L110 692 Z " />
<glyph glyph-name="dotaccent" unicode="&#x2d9;" horiz-adv-x="519" d="M260 677 C229 677 202 650 202 620 C202 587 227 562 260 562 C292 562 317 587 317 618 C317 650 290 677 260 677 L260 677 Z " />
<glyph glyph-name="ring" unicode="&#x2da;" horiz-adv-x="513" d="M229 759 C164 759 109 706 109 642 C109 572 162 519 230 519 C296 519 349 573 349 639 C349 705 295 759 229 759 L229 759 Z M229 708 C266 708 297 677 297 639 C297 601 266 570 229 570 C191 570 160 601 160 641 C160 677 192 708 229 708 L229 708 Z " />
<glyph glyph-name="ogonek" unicode="&#x2db;" horiz-adv-x="525" d="M297 17 C209 -36 165 -89 165 -142 C165 -188 196 -217 245 -217 C292 -217 332 -190 357 -141 L342 -133 C322 -158 303 -168 278 -168 C248 -168 229 -146 229 -111 C229 -69 257 -31 321 17 L297 17 Z " />
<glyph glyph-name="tilde" unicode="&#x2dc;" horiz-adv-x="511" d="M365 694 C356 662 345 652 320 652 C313 652 305 653 298 655 L246 668 C234 671 224 672 212 672 C190 672 172 663 156 646 C138 627 129 606 119 560 L147 560 C157 591 170 604 191 604 C198 604 210 602 222 599 L274 586 C283 584 292 583 299 583 C348 583 375 615 393 694 L365 694 Z " />
<glyph glyph-name="hungarumlaut" unicode="&#x2dd;" horiz-adv-x="517" d="M163 540 L192 540 L282 634 C302 655 309 667 309 680 C309 699 292 715 273 715 C255 715 240 701 227 673 L163 540 Z M288 540 L318 540 L424 631 C446 650 455 664 455 680 C455 699 440 714 420 714 C403 714 387 702 372 678 L288 540 Z " />
<glyph glyph-name="uni2011" unicode="&#x2011;" horiz-adv-x="271" d="M0 201 L271 201 L271 275 L0 275 L0 201 Z " />
<glyph glyph-name="figuredash" unicode="&#x2012;" horiz-adv-x="575" d="M36 209 L540 209 L540 266 L36 266 L36 209 Z " />
<glyph glyph-name="endash" unicode="&#x2013;" horiz-adv-x="575" d="M36 209 L540 209 L540 266 L36 266 L36 209 Z " />
<glyph glyph-name="emdash" unicode="&#x2014;" horiz-adv-x="729" d="M0 209 L729 209 L729 266 L0 266 L0 209 Z " />
<glyph glyph-name="afii00208" unicode="&#x2015;" horiz-adv-x="729" d="M0 209 L729 209 L729 266 L0 266 L0 209 Z " />
<glyph glyph-name="quoteleft" unicode="&#x2018;" horiz-adv-x="240" d="M204 687 C152 684 127 673 98 643 C72 616 57 578 57 540 C57 486 90 450 139 450 C175 450 199 472 199 506 C199 536 178 556 147 556 C133 556 124 553 107 542 C106 548 106 555 106 558 C106 581 112 599 127 617 C145 640 164 650 204 657 L204 687 Z " />
<glyph glyph-name="quoteright" unicode="&#x2019;" horiz-adv-x="240" d="M36 445 C91 455 116 466 142 494 C168 520 183 558 183 597 C183 651 150 687 101 687 C65 687 41 664 41 631 C41 601 62 580 93 580 C107 580 116 583 134 594 L134 579 C134 556 128 538 113 519 C96 497 76 487 36 480 L36 445 Z " />
<glyph glyph-name="quotesinglbase" unicode="&#x201a;" horiz-adv-x="240" d="M36 -146 C91 -136 116 -125 142 -98 C168 -71 183 -33 183 5 C183 59 150 95 101 95 C65 95 41 72 41 39 C41 9 62 -11 93 -11 C107 -11 116 -8 134 3 L134 -12 C134 -35 128 -53 113 -72 C96 -95 76 -104 36 -111 L36 -146 Z " />
<glyph glyph-name="quotedblleft" unicode="&#x201c;" horiz-adv-x="459" d="M422 687 C367 676 342 665 316 638 C290 611 275 573 275 535 C275 481 308 445 357 445 C393 445 417 468 417 501 C417 531 396 551 365 551 C351 551 341 548 324 537 L324 553 C324 576 330 594 345 612 C363 635 382 645 422 652 L422 687 Z M204 687 C149 677 124 665 98 638 C72 611 57 573 57 535 C57 481 90 445 138 445 C175 445 199 467 199 501 C199 531 178 551 147 551 C133 551 124 548 106 537 L106 553 C106 576 112 594 127 612 C145 635 164 645 204 652 L204 687 Z " />
<glyph glyph-name="quotedblright" unicode="&#x201d;" horiz-adv-x="459" d="M36 445 C91 455 116 466 142 494 C168 520 183 558 183 597 C183 651 150 687 101 687 C65 687 41 664 41 631 C41 601 62 580 93 580 C107 580 116 583 134 594 L134 579 C134 556 128 538 113 519 C96 497 76 487 36 480 L36 445 Z M253 445 C308 455 333 466 359 494 C385 521 400 558 400 597 C400 651 367 687 318 687 C282 687 258 664 258 630 C258 601 279 580 310 580 C324 580 333 583 351 594 L351 579 C351 556 345 538 330 519 C312 497 293 487 253 480 L253 445 Z " />
<glyph glyph-name="quotedblbase" unicode="&#x201e;" horiz-adv-x="459" d="M36 -146 C91 -136 116 -125 142 -98 C168 -71 183 -33 183 6 C183 59 150 95 101 95 C65 95 41 72 41 39 C41 9 62 -11 93 -11 C107 -11 116 -8 134 3 L134 -12 C134 -35 128 -53 113 -72 C96 -95 76 -104 36 -111 L36 -146 Z M253 -146 C308 -136 333 -125 359 -98 C385 -71 400 -33 400 6 C400 59 367 95 318 95 C282 95 258 72 258 39 C258 9 279 -11 310 -11 C324 -11 334 -8 351 3 L351 -12 C351 -35 345 -53 330 -72 C312 -95 293 -104 253 -111 L253 -146 Z " />
<glyph glyph-name="dagger" unicode="&#x2020;" horiz-adv-x="620" d="M285 366 C285 184 277 23 266 -60 C259 -112 257 -134 257 -145 C257 -189 275 -214 308 -214 C340 -214 359 -189 359 -146 C359 -133 357 -113 350 -60 C337 38 332 150 331 366 C371 365 389 363 418 358 C489 344 490 344 510 344 C541 344 559 359 559 384 C559 409 541 424 510 424 C498 424 480 422 466 419 C386 403 385 403 331 401 C334 468 337 504 342 532 C356 609 356 610 356 628 C356 665 338 687 308 687 C278 687 260 665 260 628 C260 617 262 599 265 583 C280 502 281 497 285 401 C245 402 228 404 198 410 C127 424 126 424 106 424 C75 424 57 409 57 384 C57 359 75 344 106 344 C118 344 136 346 150 349 C229 364 230 364 285 366 L285 366 Z " />
<glyph glyph-name="daggerdbl" unicode="&#x2021;" horiz-adv-x="620" d="M331 110 C331 159 340 194 362 236 C340 278 331 314 331 362 L331 390 C371 390 389 388 418 382 C489 368 490 368 510 368 C541 368 559 383 559 408 C559 433 541 448 510 448 C498 448 480 446 466 443 C387 428 386 428 331 426 C333 475 335 493 342 532 C356 609 356 610 356 628 C356 665 338 687 308 687 C278 687 260 665 260 628 C260 617 262 599 265 583 C282 492 282 488 285 426 C245 427 227 429 198 434 C127 448 126 448 106 448 C75 448 57 433 57 408 C57 383 75 368 106 368 C118 368 136 370 150 373 C229 389 230 389 285 390 C286 378 286 369 286 362 C286 313 277 279 254 236 C277 193 286 159 286 110 C286 104 286 94 285 82 C245 83 226 85 198 90 C127 104 126 104 106 104 C75 104 57 89 57 64 C57 39 75 24 106 24 C118 24 136 26 150 29 C230 45 231 45 285 46 C283 -3 281 -20 274 -60 C260 -136 260 -137 260 -155 C260 -192 278 -214 308 -214 C338 -214 356 -192 356 -155 C356 -144 354 -126 351 -110 C334 -19 334 -16 331 46 C371 46 388 44 418 38 C489 24 490 24 510 24 C541 24 559 39 559 64 C559 89 541 104 510 104 C498 104 480 102 466 99 C388 84 386 83 331 82 L331 110 Z " />
<glyph glyph-name="bullet" unicode="&#x2022;" horiz-adv-x="700" d="M352 480 C270 480 206 418 206 340 C206 262 271 200 351 200 C430 200 495 263 495 340 C495 417 430 480 352 480 L352 480 Z " />
<glyph glyph-name="ellipsis" unicode="&#x2026;" horiz-adv-x="880" d="M146 99 C115 99 88 73 88 42 C88 9 114 -17 147 -17 C178 -17 204 9 204 41 C204 73 178 99 146 99 L146 99 Z M441 99 C410 99 383 73 383 42 C383 9 409 -17 442 -17 C473 -17 499 9 499 41 C499 73 473 99 441 99 L441 99 Z M735 99 C704 99 677 73 677 42 C677 9 703 -17 736 -17 C767 -17 793 9 793 41 C793 73 767 99 735 99 L735 99 Z " />
<glyph glyph-name="perthousand" unicode="&#x2030;" horiz-adv-x="1459" d="M232 622 C118 622 36 542 36 433 C36 317 117 238 234 238 C347 238 428 318 428 430 C428 543 347 622 232 622 L232 622 Z M234 571 C299 571 342 515 342 430 C342 344 299 289 232 289 C166 289 122 346 122 430 C122 517 165 571 234 571 L234 571 Z M339 -17 L731 622 L666 622 L274 -17 L339 -17 Z M773 366 C659 366 577 287 577 177 C577 62 658 -17 775 -17 C888 -17 969 63 969 175 C969 287 888 366 773 366 L773 366 Z M775 315 C840 315 883 259 883 175 C883 89 840 34 773 34 C707 34 663 90 663 174 C663 261 706 315 775 315 L775 315 Z M1232 366 C1118 366 1036 287 1036 177 C1036 62 1117 -17 1234 -17 C1347 -17 1428 63 1428 175 C1428 287 1347 366 1232 366 L1232 366 Z M1234 315 C1299 315 1342 259 1342 175 C1342 89 1299 34 1232 34 C1166 34 1122 90 1122 174 C1122 261 1165 315 1234 315 L1234 315 Z " />
<glyph glyph-name="guilsinglleft" unicode="&#x2039;" horiz-adv-x="302" d="M175 72 L228 72 L172 182 C171 184 170 186 165 194 L157 209 C152 221 150 227 150 238 C150 250 152 258 161 273 C167 283 170 290 172 293 L228 403 L175 403 L124 333 C77 270 73 263 73 237 C73 212 77 205 124 142 L175 72 Z " />
<glyph glyph-name="guilsinglright" unicode="&#x203a;" horiz-adv-x="302" d="M127 72 L178 142 C225 205 228 212 228 237 C228 263 224 270 178 333 L127 403 L73 403 L129 293 C130 292 131 290 136 281 L144 265 C149 254 151 248 151 238 C151 222 151 222 129 182 L73 72 L127 72 Z " />
<glyph glyph-name="uni203E" unicode="&#x203e;" horiz-adv-x="499" d="M0 787 L0 731 L500 731 L500 787 L0 787 Z " />
<glyph glyph-name="fraction" unicode="&#x2044;" horiz-adv-x="172" d="M-172 -17 L-107 -17 L350 622 L285 622 L-172 -17 Z " />
<glyph glyph-name="Euro" unicode="&#x20ac;" horiz-adv-x="788" d="M221 399 C246 542 337 631 457 631 C527 631 591 602 636 550 C669 511 682 480 693 408 L746 408 L746 667 L698 667 L672 607 C581 669 533 687 453 687 C281 687 143 570 113 399 L56 399 L36 355 L108 355 C107 345 107 337 107 330 L107 311 L56 311 L36 267 L112 267 C120 217 136 175 161 135 C225 33 327 -20 459 -20 C560 -20 636 9 688 69 C726 113 741 153 752 243 L690 243 C677 174 665 144 637 110 C599 65 539 41 468 41 C334 41 248 120 221 267 L520 267 L539 311 L216 311 C215 322 215 326 215 334 C215 340 215 345 216 355 L559 355 L579 399 L221 399 Z " />
<glyph glyph-name="trademark" unicode="&#x2122;" horiz-adv-x="1014" d="M17 513 L57 513 C60 606 80 628 163 629 L178 629 L178 361 C178 328 176 325 138 324 L94 324 L94 286 L327 286 L327 324 L283 324 C245 325 242 328 243 361 L243 629 L258 629 C341 628 361 606 364 513 L404 513 L404 667 L17 667 L17 513 Z M439 629 L468 629 C507 628 510 626 509 593 L509 361 C510 328 507 325 468 324 L439 324 L439 286 L628 286 L628 324 L596 324 C558 325 555 327 556 361 L556 605 L695 286 L724 286 L863 598 L863 361 C864 328 861 325 823 324 L790 324 L790 286 L998 286 L998 324 L967 324 C929 325 926 327 927 361 L927 593 C926 626 929 628 967 629 L998 629 L998 667 L848 667 L720 381 L597 667 L439 667 L439 629 Z " />
<glyph glyph-name="uni2126" unicode="&#x2126;" horiz-adv-x="768" d="M326 0 L308 155 C230 199 180 288 180 382 C180 434 195 493 221 540 C257 605 317 642 385 642 C453 642 513 605 549 540 C575 493 590 434 590 382 C590 288 540 199 462 155 L444 0 L736 0 L736 153 L712 153 C704 108 684 90 643 90 L497 90 L500 128 C535 141 557 151 580 166 C657 215 702 296 702 382 C702 449 673 522 625 578 C564 648 480 686 385 686 C290 686 206 648 145 578 C97 522 68 449 68 382 C68 296 113 215 190 166 C213 151 235 141 270 128 L273 90 L127 90 C86 90 66 108 58 153 L34 153 L34 0 L326 0 Z " />
<glyph glyph-name="partialdiff" unicode="&#x2202;" horiz-adv-x="494" d="M107 674 C152 697 184 706 219 706 C321 706 379 611 379 447 C379 418 377 394 372 346 C308 396 272 412 221 412 C172 412 131 394 95 355 C51 309 26 246 26 184 C26 76 109 -10 213 -10 C282 -10 341 22 383 84 C429 152 462 286 462 403 C462 519 428 611 360 681 C312 730 259 753 195 753 C155 753 122 746 66 725 L107 674 Z M366 312 C350 201 340 158 314 107 C288 54 245 21 201 21 C146 21 113 73 113 159 C113 273 180 367 261 367 C299 367 324 354 366 312 L366 312 Z " />
<glyph glyph-name="Delta" unicode="&#x2206;" horiz-adv-x="612" d="M6 0 L608 0 L327 688 L6 0 Z M77 51 L290 509 L479 51 L77 51 Z " />
<glyph glyph-name="product" unicode="&#x220f;" horiz-adv-x="823" d="M25 -124 L315 -124 L315 -98 L312 -98 C242 -94 221 -67 224 18 L224 594 C224 656 228 677 242 690 C260 707 272 708 413 708 C556 708 568 707 586 690 C600 677 604 656 604 594 L604 18 C607 -67 586 -94 516 -98 L513 -98 L513 -124 L803 -124 L803 -98 L800 -98 C730 -94 709 -67 712 18 L712 609 C709 694 730 721 800 725 L803 725 L803 751 L25 751 L25 725 L28 725 C98 721 119 694 116 609 L116 18 C119 -67 98 -94 28 -98 L25 -98 L25 -124 Z " />
<glyph glyph-name="summation" unicode="&#x2211;" horiz-adv-x="713" d="M176 711 L444 711 C560 710 590 688 606 587 L632 587 L622 752 L23 752 L256 285 L14 -123 L641 -123 L695 87 L669 87 C639 7 605 -12 491 -11 L163 -11 L364 341 L176 711 Z " />
<glyph glyph-name="minus" unicode="&#x2212;" horiz-adv-x="532" d="M55 342 L55 276 L477 276 L477 342 L55 342 Z " />
<glyph glyph-name="uni2215" unicode="&#x2215;" horiz-adv-x="172" d="M-172 -17 L-107 -17 L350 622 L285 622 L-172 -17 Z " />
<glyph glyph-name="uni2219" unicode="&#x2219;" horiz-adv-x="318" d="M158 296 C126 296 99 270 99 238 C99 204 125 178 159 178 C191 178 217 205 217 237 C217 269 190 296 158 296 L158 296 Z " />
<glyph glyph-name="radical" unicode="&#x221a;" horiz-adv-x="549" d="M363 -35 L515 908 L480 913 L353 123 L156 520 L10 449 L26 414 L121 461 L363 -35 Z " />
<glyph glyph-name="infinity" unicode="&#x221e;" horiz-adv-x="713" d="M357 227 C415 156 485 115 548 115 C631 115 688 176 688 266 C688 354 629 414 543 414 C476 414 412 376 357 303 C300 375 234 414 171 414 C86 414 26 351 26 263 C26 176 84 115 167 115 C224 115 281 142 327 192 L357 227 Z M391 264 C434 325 493 362 546 362 C600 362 638 321 638 264 C638 205 603 167 549 167 C495 167 461 188 391 264 L391 264 Z M324 266 C275 203 216 167 163 167 C111 167 76 207 76 266 C76 323 113 362 167 362 C218 362 258 337 324 266 L324 266 Z " />
<glyph glyph-name="integral" unicode="&#x222b;" horiz-adv-x="274" d="M180 576 C180 653 179 691 176 746 C174 774 173 800 173 815 C173 855 184 878 202 878 C208 878 213 876 215 872 C232 845 239 839 256 839 C276 839 291 853 291 871 C291 898 267 916 231 916 C186 916 152 887 138 838 C123 784 113 682 113 577 L113 232 C113 160 114 124 117 63 C119 34 120 4 120 -12 C120 -47 108 -70 89 -70 C81 -70 74 -65 68 -52 C59 -35 51 -30 37 -30 C17 -30 2 -44 2 -63 C2 -89 26 -107 62 -107 C107 -107 141 -78 155 -29 C170 25 180 126 180 232 L180 576 Z " />
<glyph glyph-name="approxequal" unicode="&#x2248;" horiz-adv-x="549" d="M489 251 C444 199 423 187 384 187 C365 187 354 190 285 211 C212 234 188 239 160 239 C101 239 54 211 14 155 L57 121 C103 174 120 184 159 184 C180 184 180 184 271 157 C350 133 354 132 385 132 C449 132 496 160 527 217 L489 251 Z M489 408 C444 356 423 344 384 344 C365 344 354 347 285 368 C212 391 188 396 160 396 C101 396 54 369 14 312 L57 278 C103 331 120 341 159 341 C180 341 180 341 271 314 C350 290 354 289 385 289 C449 289 496 318 527 375 L489 408 Z " />
<glyph glyph-name="notequal" unicode="&#x2260;" horiz-adv-x="549" d="M187 142 L115 -1 L161 -25 L246 142 L540 142 L540 197 L273 197 L344 336 L540 336 L540 391 L371 391 L439 525 L392 549 L312 391 L15 391 L15 336 L285 336 L215 197 L15 197 L15 142 L187 142 Z " />
<glyph glyph-name="lessequal" unicode="&#x2264;" horiz-adv-x="549" d="M526 55 L29 55 L29 0 L526 0 L526 55 Z M526 639 L29 405 L29 350 L526 117 L526 179 L108 378 L526 577 L526 639 Z " />
<glyph glyph-name="greaterequal" unicode="&#x2265;" horiz-adv-x="549" d="M526 55 L29 55 L29 0 L526 0 L526 55 Z M29 639 L29 577 L447 378 L29 179 L29 117 L526 350 L526 405 L29 639 Z " />
<glyph glyph-name="lozenge" unicode="&#x25ca;" horiz-adv-x="494" d="M209 0 L269 -1 L466 374 L277 740 L214 740 L18 377 L209 0 Z M240 58 L81 376 L245 683 L402 373 L240 58 Z " />
<glyph glyph-name="fi" unicode="&#xfb01;" horiz-adv-x="683" d="M31 0 L318 0 L318 48 L284 48 C225 50 215 58 215 105 L215 419 L412 419 C471 417 481 409 481 362 L481 105 C481 58 471 50 412 48 L377 48 L377 0 L659 0 L659 48 L636 48 C576 49 565 58 566 105 L566 469 L215 469 L215 506 C215 567 228 599 261 621 C283 636 316 644 358 644 C413 644 448 634 481 608 C453 601 439 587 439 563 C439 537 462 516 492 516 C526 516 549 540 549 575 C549 640 469 685 353 685 C206 685 130 622 130 499 L130 469 L31 469 L31 419 L130 419 L130 105 C130 58 120 49 61 48 L31 48 L31 0 Z " />
<glyph glyph-name="fl" unicode="&#xfb02;" horiz-adv-x="688" d="M31 0 L318 0 L318 48 L284 48 C225 50 215 58 215 105 L215 419 L334 419 L334 469 L215 469 L215 506 C215 557 224 587 245 608 C269 632 306 644 356 644 C409 644 448 634 476 613 C456 601 447 588 447 569 C447 548 458 534 481 526 L481 105 C481 58 471 50 412 48 L377 48 L377 0 L661 0 L661 48 L634 48 C576 50 566 58 566 105 L566 669 L482 667 C434 681 404 686 357 686 C208 686 130 622 130 499 L130 469 L31 469 L31 419 L130 419 L130 105 C130 58 120 49 61 48 L31 48 L31 0 Z " />
</font>
</svg>
