<?xml version="1.0" encoding="UTF-8"?>
<svg xmlns="http://www.w3.org/2000/svg" xmlns:xlink="http://www.w3.org/1999/xlink" version="1.2" >
<font id="Clarendon URW Wide Medium Oblique">
<font-face  font-family="Clarendon URW Wide" units-per-em="1000" ascent="667" descent="-333" font-style="italic" font-weight="500" font-stretch="normal" cap-height="667" x-height="469" underline-position="-59" underline-thickness="85" />
<missing-glyph  horiz-adv-x="250" d="" />
<glyph glyph-name="NULL" d="" />
<glyph glyph-name="CR" unicode="&#xd;" horiz-adv-x="250" d="" />
<glyph glyph-name="space" unicode="&#x20;" horiz-adv-x="250" d="" />
<glyph glyph-name="exclam" unicode="&#x21;" horiz-adv-x="365" d="M163 140 C109 140 61 97 61 48 C61 9 88 -17 127 -17 C180 -17 229 28 229 77 C229 113 201 140 163 140 L163 140 Z M214 199 C241 291 256 337 307 476 C342 571 349 595 349 621 C349 665 324 687 276 687 C235 687 202 668 183 632 C168 604 164 582 158 476 C150 332 146 291 134 199 L214 199 Z " />
<glyph glyph-name="quotedbl" unicode="&#x22;" horiz-adv-x="395" d="M164 399 L245 667 L101 667 L68 399 L164 399 Z M355 399 L436 667 L292 667 L259 399 L355 399 Z " />
<glyph glyph-name="numbersign" unicode="&#x23;" horiz-adv-x="657" d="M597 293 L488 293 L524 387 L631 387 L670 492 L563 492 L630 667 L504 667 L438 492 L335 492 L402 667 L278 667 L212 492 L105 492 L66 387 L174 387 L138 293 L29 293 L-10 188 L99 188 L27 0 L150 0 L221 188 L323 188 L249 0 L378 0 L450 188 L558 188 L597 293 Z M398 387 L363 293 L262 293 L297 387 L398 387 Z " />
<glyph glyph-name="dollar" unicode="&#x24;" horiz-adv-x="657" d="M192 -110 L261 -110 L284 0 C396 10 450 28 503 73 C551 113 578 164 578 216 C578 264 554 302 510 325 C475 343 450 350 363 369 L399 541 C457 540 490 530 507 508 C464 491 446 471 446 442 C446 412 472 393 511 393 C567 393 610 433 610 486 C610 524 587 557 545 578 C511 595 480 602 413 606 L428 675 L359 675 L344 604 C239 589 189 570 141 529 C96 491 70 437 70 384 C70 344 88 311 122 290 C154 271 174 264 266 236 L229 61 C165 62 124 75 101 101 C154 113 177 135 177 174 C177 207 152 228 111 228 C52 228 1 179 1 121 C1 85 23 52 58 32 C98 11 131 4 215 -1 L192 -110 Z M332 224 C378 216 394 212 412 201 C430 191 440 175 440 156 C440 136 429 114 410 99 C386 80 359 71 298 64 L332 224 Z M297 383 C226 402 210 413 210 447 C210 500 251 531 330 538 L297 383 Z " />
<glyph glyph-name="percent" unicode="&#x25;" horiz-adv-x="1006" d="M187 -17 L275 -17 L802 623 L716 623 L187 -17 Z M294 622 C159 622 52 516 52 380 C52 296 116 240 213 240 C349 240 456 346 456 481 C456 566 392 622 294 622 L294 622 Z M280 556 C319 556 340 534 340 494 C340 447 325 386 306 353 C288 321 262 306 227 306 C188 306 168 327 168 368 C168 416 182 475 202 509 C221 540 247 556 280 556 L280 556 Z M778 365 C642 365 535 259 535 123 C535 39 600 -17 697 -17 C832 -17 940 89 940 224 C940 309 876 365 778 365 L778 365 Z M763 297 C805 297 824 278 824 236 C824 190 809 128 790 96 C770 64 747 50 712 50 C669 50 651 68 651 112 C651 160 665 217 685 251 C704 283 728 297 763 297 L763 297 Z " />
<glyph glyph-name="ampersand" unicode="&#x26;" horiz-adv-x="907" d="M748 231 C727 134 690 89 632 89 C602 89 588 97 563 128 C621 188 642 211 661 234 C716 303 716 303 740 317 C759 328 779 333 807 333 C813 333 827 333 839 332 L856 414 L535 414 L518 332 L540 332 C587 332 603 328 603 316 C603 295 570 253 510 197 C467 262 450 295 417 375 C491 416 520 440 548 479 C568 508 580 544 580 576 C580 644 528 688 446 688 C324 688 219 593 219 483 C219 463 223 443 233 405 C162 376 127 356 90 325 C37 279 4 210 4 143 C4 85 40 29 93 5 C129 -11 173 -19 223 -19 C289 -19 335 -7 427 36 C495 -9 527 -20 585 -20 C661 -20 723 5 767 54 C804 94 820 134 837 231 L748 231 Z M381 456 C360 491 353 510 353 534 C353 576 385 605 432 605 C466 605 485 590 485 563 C485 520 456 490 381 456 L381 456 Z M260 313 C298 219 327 162 368 102 C329 85 311 80 281 80 C207 80 164 118 164 184 C164 240 189 274 260 313 L260 313 Z " />
<glyph glyph-name="quotesingle" unicode="&#x27;" horiz-adv-x="204" d="M164 399 L245 667 L101 667 L68 399 L164 399 Z " />
<glyph glyph-name="parenleft" unicode="&#x28;" horiz-adv-x="417" d="M467 687 C417 678 394 673 367 663 C304 641 240 601 188 551 C81 447 14 280 14 114 C14 16 40 -54 99 -112 C146 -158 189 -178 279 -196 L296 -119 C257 -106 238 -96 221 -79 C188 -47 167 8 167 65 C167 194 213 381 265 468 C313 546 360 582 450 610 L467 687 Z " />
<glyph glyph-name="parenright" unicode="&#x29;" horiz-adv-x="417" d="M-86 -196 C-9 -183 24 -172 74 -146 C180 -90 264 2 312 115 C345 195 366 295 366 376 C366 475 340 545 281 603 C235 649 192 669 102 687 L86 609 C123 597 142 586 159 570 C192 538 213 483 213 425 C213 296 167 110 115 23 C67 -56 20 -92 -70 -119 L-86 -196 Z " />
<glyph glyph-name="asterisk" unicode="&#x2a;" horiz-adv-x="521" d="M283 492 C254 516 247 524 231 559 C211 602 202 610 175 610 C138 610 102 575 102 540 C102 528 105 519 113 512 C125 501 131 499 179 497 C221 495 241 490 269 474 C234 460 215 456 173 452 C121 449 112 447 97 437 C80 425 70 407 70 388 C70 359 89 339 117 339 C145 339 155 346 194 390 C228 427 244 440 277 456 C268 427 258 408 232 371 C200 327 197 321 197 303 C197 278 215 264 246 264 C285 264 317 292 317 326 C317 336 314 346 306 369 C298 393 295 406 295 423 C295 431 296 445 297 458 C320 442 327 433 349 391 C365 361 365 361 367 357 C377 344 387 338 403 338 C441 338 477 374 477 412 C477 423 474 431 466 438 C454 449 449 450 402 452 C359 455 339 460 310 476 C343 489 362 494 408 497 C463 501 467 502 483 514 C499 526 509 544 509 563 C509 590 489 611 464 611 C437 611 424 603 386 559 C353 523 337 510 303 493 C317 533 327 552 349 580 C380 621 384 628 384 645 C384 671 365 687 334 687 C295 687 264 660 264 625 C264 615 265 610 275 582 C283 561 286 543 286 526 C286 518 285 506 283 492 L283 492 Z " />
<glyph glyph-name="plus" unicode="&#x2b;" horiz-adv-x="624" d="M84 366 L62 263 L243 263 L208 100 L317 100 L351 263 L532 263 L554 366 L373 366 L408 530 L300 530 L265 366 L84 366 Z " />
<glyph glyph-name="comma" unicode="&#x2c;" horiz-adv-x="282" d="M-51 -144 C26 -130 67 -111 108 -70 C145 -32 169 19 169 62 C169 109 140 139 93 139 C37 139 -14 92 -14 42 C-14 12 8 -10 37 -10 C46 -10 61 -7 77 -1 C52 -61 34 -76 -40 -94 L-51 -144 Z " />
<glyph glyph-name="hyphen" unicode="&#x2d;" horiz-adv-x="288" d="M-34 172 L254 172 L282 299 L-7 299 L-34 172 Z " />
<glyph glyph-name="period" unicode="&#x2e;" horiz-adv-x="328" d="M127 140 C73 140 25 97 25 48 C25 9 52 -17 91 -17 C144 -17 193 28 193 77 C193 113 165 140 127 140 L127 140 Z " />
<glyph glyph-name="slash" unicode="&#x2f;" horiz-adv-x="402" d="M1 -92 L436 686 L354 686 L-80 -92 L1 -92 Z " />
<glyph glyph-name="zero" unicode="0" horiz-adv-x="657" d="M395 621 C289 621 196 580 124 500 C57 427 16 319 16 218 C16 73 108 -17 255 -17 C460 -17 630 165 630 386 C630 528 538 621 395 621 L395 621 Z M373 539 C435 539 468 499 468 422 C468 354 438 224 408 165 C375 98 330 65 273 65 C210 65 178 105 178 183 C178 251 208 378 238 439 C271 506 315 539 373 539 L373 539 Z " />
<glyph glyph-name="one" unicode="1" horiz-adv-x="657" d="M285 444 L220 135 C207 85 199 78 150 76 L81 76 L65 0 L464 0 L481 76 L415 76 C382 76 368 84 368 102 C368 110 370 123 372 135 L473 607 L366 607 C330 551 280 528 176 519 L161 444 L285 444 Z " />
<glyph glyph-name="two" unicode="2" horiz-adv-x="657" d="M58 0 C77 39 95 53 123 53 C139 53 161 47 191 33 C288 -11 310 -17 362 -17 C428 -17 486 11 523 61 C547 94 559 128 576 213 L501 213 C482 140 460 117 408 117 C389 117 362 121 317 133 C277 142 250 147 231 147 C198 147 172 140 116 116 C162 172 194 190 307 219 C377 236 415 246 422 248 C465 261 505 280 530 300 C580 340 610 400 610 461 C610 559 523 622 389 622 C292 622 209 592 147 536 C102 495 77 447 77 404 C77 354 108 324 159 324 C218 324 270 369 270 420 C270 450 248 472 217 472 C209 472 195 470 182 467 C199 493 208 504 225 514 C251 530 287 539 323 539 C393 539 439 505 439 454 C439 395 401 351 317 315 C84 219 7 148 -19 0 L58 0 Z " />
<glyph glyph-name="three" unicode="3" horiz-adv-x="657" d="M246 280 C304 278 320 277 342 270 C376 260 398 232 398 196 C398 115 324 58 220 58 C160 58 132 67 97 98 C141 104 161 113 178 133 C191 148 198 167 198 187 C198 227 170 252 125 252 C54 252 -1 194 -1 120 C-1 33 84 -18 232 -18 C337 -18 430 7 485 49 C534 88 565 146 565 201 C565 233 553 260 530 280 C508 300 487 310 433 326 C510 344 543 360 573 392 C597 418 611 455 611 490 C611 525 596 557 570 575 C530 605 465 622 389 622 C223 622 88 539 88 437 C88 400 119 374 163 374 C219 374 268 415 268 462 C268 493 251 507 204 515 C248 540 286 551 337 551 C403 551 440 524 440 476 C440 444 426 414 401 393 C373 370 341 362 263 360 L246 280 Z " />
<glyph glyph-name="four" unicode="4" horiz-adv-x="657" d="M566 77 L502 77 C470 77 456 85 456 102 C456 109 457 116 461 136 L470 177 L581 177 L600 264 L489 264 L562 607 L431 607 L21 260 L3 177 L315 177 L306 136 C293 86 285 79 237 77 L182 77 L166 -1 L550 -1 L566 77 Z M131 264 L378 465 L333 264 L131 264 Z " />
<glyph glyph-name="five" unicode="5" horiz-adv-x="657" d="M219 490 C275 483 305 480 332 480 C472 480 613 547 613 613 C613 617 612 619 608 619 C605 619 600 618 594 616 C543 601 489 594 409 594 C327 594 276 599 168 618 L76 302 L163 302 C212 341 246 355 295 355 C365 355 403 319 403 251 C403 143 322 58 220 58 C171 58 136 70 105 97 C143 104 160 111 177 125 C195 141 206 164 206 187 C206 225 178 249 133 249 C64 249 8 192 8 121 C8 35 90 -18 225 -18 C313 -18 398 6 457 48 C529 99 573 184 573 268 C573 370 487 434 352 434 C292 434 260 427 193 397 L219 490 Z " />
<glyph glyph-name="six" unicode="6" horiz-adv-x="657" d="M490 534 C451 512 436 491 436 461 C436 427 464 407 509 407 C572 407 620 451 620 508 C620 577 545 622 430 622 C324 622 227 582 158 509 C84 430 38 313 38 202 C38 137 52 89 83 53 C123 7 192 -19 277 -19 C452 -19 583 84 583 222 C583 320 515 378 400 378 C344 378 305 368 234 333 C253 414 270 455 297 488 C330 529 382 554 432 554 C459 554 471 550 490 534 L490 534 Z M328 294 C384 294 416 263 416 208 C416 128 349 57 274 57 C221 57 191 87 191 141 C191 228 250 294 328 294 L328 294 Z " />
<glyph glyph-name="seven" unicode="7" horiz-adv-x="657" d="M331 -2 C373 187 411 256 554 408 C659 517 668 530 683 605 L611 605 C597 575 583 566 553 566 C538 566 524 568 512 573 C412 613 412 613 364 613 C295 613 254 593 201 532 L217 605 L136 605 L76 324 L157 324 C170 392 180 420 204 446 C223 468 251 480 283 480 C294 480 303 479 310 478 C403 462 403 462 432 462 C461 462 483 467 526 484 C506 465 487 449 480 443 C468 432 437 407 392 371 C235 245 197 185 159 -2 L331 -2 Z " />
<glyph glyph-name="eight" unicode="8" horiz-adv-x="657" d="M154 295 C110 277 83 264 65 250 C21 218 -4 173 -4 126 C-4 34 87 -17 249 -17 C376 -17 470 16 530 83 C564 120 584 170 584 216 C584 278 556 311 473 347 C534 371 558 386 583 414 C602 437 614 467 614 495 C614 572 528 622 394 622 C289 622 205 595 147 542 C108 506 83 455 83 409 C83 365 97 343 154 295 L154 295 Z M402 374 C302 407 291 411 275 418 C244 433 231 448 231 469 C231 514 290 546 372 546 C447 546 494 520 494 478 C494 436 466 404 402 374 L402 374 Z M226 257 C328 222 385 202 397 195 C421 182 431 170 431 154 C431 136 420 115 402 98 C375 74 327 60 265 60 C173 60 118 92 118 145 C118 193 146 223 226 257 L226 257 Z " />
<glyph glyph-name="nine" unicode="9" horiz-adv-x="657" d="M154 69 C193 92 208 112 208 142 C208 176 180 197 134 197 C71 197 23 153 23 95 C23 26 98 -19 213 -19 C319 -19 416 21 485 94 C559 173 605 290 605 401 C605 466 590 514 560 550 C520 596 451 622 366 622 C191 622 60 519 60 381 C60 283 128 225 243 225 C299 225 338 235 409 270 C390 190 374 149 346 115 C313 74 261 49 211 49 C184 49 172 53 154 69 L154 69 Z M369 546 C422 546 452 515 452 462 C452 376 392 309 315 309 C259 309 227 340 227 395 C227 476 293 546 369 546 L369 546 Z " />
<glyph glyph-name="colon" unicode="&#x3a;" horiz-adv-x="365" d="M223 447 C169 447 121 403 121 354 C121 315 147 289 187 289 C240 289 289 334 289 383 C289 420 261 447 223 447 L223 447 Z M158 143 C104 143 56 100 56 50 C56 11 82 -15 122 -15 C175 -15 224 30 224 79 C224 116 196 143 158 143 L158 143 Z " />
<glyph glyph-name="semicolon" unicode="&#x3b;" horiz-adv-x="365" d="M232 447 C178 447 130 403 130 354 C130 315 156 289 196 289 C249 289 298 334 298 383 C298 420 270 447 232 447 L232 447 Z M17 -144 C94 -130 135 -111 176 -70 C213 -32 237 19 237 62 C237 109 208 139 161 139 C105 139 54 92 54 42 C54 12 76 -10 105 -10 C114 -10 129 -7 145 -1 C120 -61 102 -76 28 -94 L17 -144 Z " />
<glyph glyph-name="less" unicode="&#x3c;" horiz-adv-x="525" d="M550 618 L47 393 L22 274 L429 49 L459 190 L192 333 L520 477 L550 618 Z " />
<glyph glyph-name="equal" unicode="&#x3d;" horiz-adv-x="624" d="M102 449 L81 352 L552 352 L572 449 L102 449 Z M67 282 L46 185 L516 185 L537 282 L67 282 Z " />
<glyph glyph-name="greater" unicode="&#x3e;" horiz-adv-x="525" d="M96 618 L66 477 L333 333 L5 190 L-25 49 L478 274 L503 393 L96 618 Z " />
<glyph glyph-name="question" unicode="&#x3f;" horiz-adv-x="626" d="M253 140 C201 140 152 94 152 47 C152 9 180 -17 219 -17 C272 -17 321 28 321 76 C321 114 293 140 253 140 L253 140 Z M311 199 C321 243 346 275 396 306 C512 374 514 375 548 410 C583 444 604 493 604 536 C604 627 521 687 394 687 C302 687 225 657 170 600 C131 559 107 507 107 461 C107 406 140 373 195 373 C257 373 303 414 303 469 C303 499 280 521 246 521 C229 521 216 518 190 506 C204 539 214 556 230 569 C256 590 295 603 334 603 C397 603 440 570 440 521 C440 506 435 490 425 470 C410 442 385 415 322 362 C251 300 235 273 223 199 L311 199 Z " />
<glyph glyph-name="at" unicode="&#x40;" horiz-adv-x="778" d="M538 493 L521 451 C508 484 473 504 427 504 C314 504 195 381 195 265 C195 192 243 143 314 143 C367 143 422 168 459 208 C461 174 489 151 527 151 C639 151 758 301 758 443 C758 587 648 681 481 681 C359 681 240 630 152 539 C74 459 27 354 27 259 C27 189 50 124 92 76 C145 16 227 -15 336 -15 C415 -15 496 -3 562 18 L558 93 C491 72 422 61 351 61 C258 61 196 84 155 134 C126 170 110 218 110 270 C110 447 280 606 469 606 C600 606 683 538 683 431 C683 380 665 326 631 280 C604 243 572 219 548 219 C535 219 527 227 527 241 C527 253 530 262 545 298 L626 493 L538 493 Z M419 415 C454 415 476 393 476 359 C476 296 412 227 353 227 C316 227 292 249 292 285 C292 348 357 415 419 415 L419 415 Z " />
<glyph glyph-name="A" unicode="A" horiz-adv-x="740" d="M698 82 L672 82 C621 81 615 88 604 149 L527 667 L348 667 L55 153 C28 101 6 85 -40 82 L-75 82 L-92 0 L223 0 L241 82 L196 82 C161 82 149 87 149 101 C149 111 154 125 164 142 L205 214 L419 214 L431 145 C432 137 433 128 433 124 C433 91 418 82 362 82 L324 82 L306 0 L681 0 L698 82 Z M408 297 L253 297 L376 512 L408 297 Z " />
<glyph glyph-name="B" unicode="B" horiz-adv-x="766" d="M92 667 L74 585 L116 585 C167 585 178 580 178 557 C178 551 176 540 173 524 L92 143 C81 89 71 81 9 82 L-33 82 L-50 0 L350 0 C488 0 559 16 613 59 C662 97 692 159 692 220 C692 254 682 281 660 303 C636 329 611 340 551 352 C617 371 646 387 678 418 C711 451 730 495 730 541 C730 579 716 610 691 629 C655 656 600 667 502 667 L92 667 Z M307 385 L349 585 L410 585 C516 585 553 567 553 514 C553 482 541 449 522 429 C494 397 448 385 362 385 L307 385 Z M242 81 L290 305 L354 305 C443 305 482 297 505 272 C517 259 522 244 522 223 C522 187 507 151 483 126 C450 92 407 81 308 81 L242 81 Z " />
<glyph glyph-name="C" unicode="C" horiz-adv-x="751" d="M588 258 C568 194 553 167 524 136 C484 93 427 69 366 69 C271 69 211 132 211 231 C211 312 238 415 274 474 C323 555 396 599 480 599 C571 599 628 543 628 454 C628 442 627 423 626 404 L715 404 L773 675 L689 675 L658 621 C586 673 546 687 471 687 C232 687 28 487 28 252 C28 179 50 118 93 70 C147 10 224 -19 330 -19 C446 -19 525 11 594 79 C639 125 660 165 687 258 L588 258 Z " />
<glyph glyph-name="D" unicode="D" horiz-adv-x="839" d="M-50 0 L313 0 C484 0 587 31 674 108 C757 183 808 303 808 425 C808 498 785 554 739 595 C679 647 600 667 454 667 L92 667 L74 586 L116 586 C166 586 178 581 178 558 C178 552 176 540 173 524 L92 144 C81 89 71 82 9 82 L-33 82 L-50 0 Z M242 83 L349 585 L435 585 C567 585 623 540 623 436 C623 354 598 258 560 194 C516 118 442 83 328 83 L242 83 Z " />
<glyph glyph-name="E" unicode="E" horiz-adv-x="782" d="M782 667 L92 667 L74 585 L116 585 C166 585 177 580 177 557 C177 551 175 541 172 524 L91 143 C79 89 70 81 9 82 L-33 82 L-50 0 L639 0 L699 279 L612 279 C565 115 521 79 371 82 L241 82 L289 306 L328 306 C387 306 410 291 410 251 C410 242 408 226 405 213 L398 182 L484 182 L552 500 L467 500 C443 405 428 390 346 389 L306 389 L348 585 L490 585 C565 585 597 579 618 563 C637 546 647 519 647 478 C647 465 645 434 642 408 L727 408 L782 667 Z " />
<glyph glyph-name="F" unicode="F" horiz-adv-x="720" d="M742 667 L92 667 L74 585 L116 585 C166 585 177 580 177 557 C177 551 175 541 172 524 L91 143 C79 89 70 81 9 82 L-33 82 L-50 0 L340 0 L357 82 L309 82 C260 82 248 87 248 110 C248 116 250 129 253 143 L288 306 L321 306 C369 306 386 292 386 253 C386 240 384 226 382 213 L375 182 L459 182 L527 500 L443 500 C419 403 407 390 339 389 L306 389 L348 585 L449 585 C524 585 557 579 577 563 C597 546 607 518 607 478 C607 461 604 424 599 393 L684 393 L742 667 Z " />
<glyph glyph-name="G" unicode="G" horiz-adv-x="824" d="M788 273 L805 354 L439 354 L422 273 L481 273 C521 273 533 268 533 251 C533 247 531 236 528 222 L517 168 C509 133 503 121 484 105 C454 82 413 69 368 69 C273 69 211 133 211 233 C211 312 238 415 274 474 C324 555 397 599 481 599 C573 599 630 543 630 453 C630 443 629 422 628 404 L715 404 L773 675 L690 675 L660 621 C588 673 548 687 472 687 C231 687 27 486 27 248 C27 82 138 -20 319 -20 C400 -20 451 -5 542 47 L567 -7 L642 -7 L692 229 C701 264 712 273 750 273 L788 273 Z " />
<glyph glyph-name="H" unicode="H" horiz-adv-x="860" d="M468 667 L92 667 L74 585 L116 585 C166 585 177 580 177 557 C177 551 175 540 172 524 L91 143 C79 89 70 81 9 82 L-33 82 L-50 0 L326 0 L343 82 L301 82 C258 82 248 87 248 108 C248 114 249 120 254 143 L288 301 L559 301 L525 143 C514 89 505 81 452 82 L410 82 L392 0 L768 0 L786 82 L744 82 C695 82 683 87 683 110 C683 115 684 124 688 143 L769 524 C781 579 790 586 851 585 L893 585 L910 667 L534 667 L517 585 L559 585 C602 585 612 580 612 558 C612 552 611 547 606 524 L577 387 L306 387 L335 524 C346 578 355 586 408 585 L450 585 L468 667 Z " />
<glyph glyph-name="I" unicode="I" horiz-adv-x="433" d="M-48 0 L338 0 L356 82 L312 82 C263 82 251 87 251 110 C251 116 253 130 256 143 L337 524 C348 579 358 586 419 585 L463 585 L480 667 L94 667 L76 585 L118 585 C168 585 179 580 179 557 C179 551 178 542 174 524 L93 143 C81 89 72 81 11 82 L-31 82 L-48 0 Z " />
<glyph glyph-name="J" unicode="J" horiz-adv-x="620" d="M267 585 L315 585 C365 585 376 580 376 557 C376 551 374 537 371 524 L307 224 C292 151 284 129 265 107 C243 83 206 68 164 68 C120 68 104 75 80 106 C120 110 139 116 159 134 C180 152 192 178 192 205 C192 245 162 271 116 271 C41 271 -22 205 -22 126 C-22 38 61 -19 190 -19 C282 -19 357 9 404 61 C436 96 451 133 471 224 L534 524 C546 579 555 586 616 585 L653 585 L670 667 L284 667 L267 585 Z " />
<glyph glyph-name="K" unicode="K" horiz-adv-x="829" d="M462 667 L92 667 L74 585 L116 585 C166 585 177 580 177 557 C177 552 175 541 172 524 L91 143 C79 89 70 81 9 82 L-33 82 L-50 0 L318 0 L335 82 L307 82 C257 82 245 87 245 110 C245 116 247 126 250 143 L268 225 L406 319 L497 122 C500 115 502 109 502 103 C502 89 483 82 445 82 L407 82 L390 0 L773 0 L790 82 L753 82 C722 82 705 94 689 124 L546 418 L713 536 C766 572 800 586 835 585 L861 585 L879 667 L530 667 L512 585 L558 585 C583 585 591 582 591 572 C591 565 584 556 572 547 L295 351 L331 524 C343 578 352 586 414 585 L445 585 L462 667 Z " />
<glyph glyph-name="L" unicode="L" horiz-adv-x="719" d="M483 667 L92 667 L74 585 L116 585 C166 585 177 580 177 557 C177 551 175 540 172 524 L91 143 C79 89 70 81 9 82 L-33 82 L-50 0 L609 0 L668 279 L582 279 C537 116 495 79 356 82 L241 82 L335 524 C346 578 356 586 417 585 L465 585 L483 667 Z " />
<glyph glyph-name="M" unicode="M" horiz-adv-x="1022" d="M1068 667 L731 667 L490 238 L437 667 L92 667 L74 585 L113 585 C162 585 173 580 173 557 C173 551 171 537 168 524 L87 143 C76 89 66 81 6 82 L-33 82 L-50 0 L265 0 L283 82 L252 82 C203 82 191 87 191 110 C191 116 193 126 196 143 L283 549 L355 0 L470 0 L780 550 L694 143 C683 89 673 81 612 82 L578 82 L561 0 L926 0 L944 82 L903 82 C854 82 842 87 842 110 C842 116 844 129 847 143 L928 524 C939 578 949 586 1010 585 L1051 585 L1068 667 Z " />
<glyph glyph-name="N" unicode="N" horiz-adv-x="855" d="M297 82 L249 82 C200 82 189 87 189 110 C189 116 191 131 194 143 L274 522 L484 0 L661 0 L772 524 C783 579 793 586 853 585 L885 585 L903 667 L577 667 L560 585 L608 585 C657 585 668 580 668 557 C668 551 666 540 663 524 L592 191 L400 667 L92 667 L74 585 L110 585 C160 585 171 580 171 557 C171 552 170 543 165 524 L85 143 C73 89 64 81 3 82 L-33 82 L-50 0 L279 0 L297 82 Z " />
<glyph glyph-name="O" unicode="O" horiz-adv-x="850" d="M502 686 C366 686 247 640 157 553 C76 475 28 362 28 251 C28 87 153 -19 345 -19 C486 -19 602 25 694 114 C775 193 823 305 823 416 C823 582 699 686 502 686 L502 686 Z M484 599 C577 599 639 533 639 435 C639 354 612 253 576 194 C526 114 452 69 370 69 C274 69 212 133 212 233 C212 313 239 415 275 474 C324 554 399 599 484 599 L484 599 Z " />
<glyph glyph-name="P" unicode="P" horiz-adv-x="740" d="M74 585 L116 585 C166 585 177 580 177 557 C177 551 175 540 172 524 L91 143 C79 89 70 81 9 82 L-33 82 L-50 0 L341 0 L358 82 L310 82 C261 82 249 87 249 110 C249 116 251 129 254 143 L286 295 L421 295 C547 295 611 313 665 362 C709 403 736 463 736 522 C736 563 724 595 700 618 C664 654 609 667 500 667 L92 667 L74 585 Z M304 377 L348 585 L414 585 C526 585 565 566 565 511 C565 478 553 444 533 423 C503 390 455 377 364 377 L304 377 Z " />
<glyph glyph-name="Q" unicode="Q" horiz-adv-x="865" d="M778 152 C765 85 753 67 723 67 C705 67 691 74 670 97 C726 151 749 180 773 229 C802 287 818 354 818 417 C818 582 693 686 497 686 C360 686 243 641 152 553 C70 474 23 363 23 251 C23 86 148 -19 344 -19 C415 -19 462 -10 536 18 C585 -42 612 -59 659 -59 C695 -59 730 -46 758 -22 C802 16 824 60 843 152 L778 152 Z M480 103 C426 70 396 60 356 60 C307 60 275 82 275 117 C275 158 310 192 352 192 C397 192 428 170 480 103 L480 103 Z M573 207 C521 268 467 294 395 294 C352 294 316 282 288 257 C262 235 248 211 229 155 C214 205 210 228 210 262 C210 333 233 413 271 473 C321 555 394 599 477 599 C579 599 635 534 635 417 C635 375 627 330 611 281 C602 252 595 238 573 207 L573 207 Z " />
<glyph glyph-name="R" unicode="R" horiz-adv-x="819" d="M74 585 L116 585 C166 585 177 580 177 557 C177 552 175 541 172 524 L91 143 C79 89 70 81 9 82 L-33 82 L-50 0 L341 0 L358 82 L310 82 C261 82 249 87 249 110 C249 116 251 129 254 143 L289 310 L394 310 C453 310 477 290 477 241 C477 228 476 220 475 211 L462 144 C456 116 453 90 453 72 C453 17 503 -20 578 -20 C632 -20 683 1 716 36 C746 68 761 105 778 188 L703 188 C682 95 673 78 647 78 C632 78 625 86 625 103 C625 109 627 121 630 142 L643 212 C645 224 646 236 646 249 C646 305 626 325 551 344 C624 362 657 377 690 403 C731 437 755 486 755 537 C755 627 684 667 524 667 L92 667 L74 585 Z M306 390 L348 585 L418 585 C521 585 541 581 564 559 C576 547 581 532 581 512 C581 483 569 453 549 431 C519 398 483 390 371 390 L306 390 Z " />
<glyph glyph-name="S" unicode="S" horiz-adv-x="688" d="M60 -5 L96 49 C163 -3 215 -20 304 -20 C403 -20 489 7 550 58 C606 103 642 175 642 240 C642 336 583 376 374 421 C260 446 233 462 233 502 C233 558 290 597 374 597 C435 597 489 578 521 546 C547 520 556 491 556 434 L556 421 L644 421 L697 669 L620 669 L584 623 C517 671 472 686 392 686 C299 686 219 660 157 610 C104 566 69 498 69 435 C69 339 124 302 332 256 C446 231 474 215 474 172 C474 114 410 74 320 74 C259 74 208 92 172 126 C139 158 128 191 125 262 L35 262 L-22 -5 L60 -5 Z " />
<glyph glyph-name="T" unicode="T" horiz-adv-x="714" d="M235 143 C224 89 214 81 154 82 L105 82 L87 0 L486 0 L503 82 L454 82 C405 82 393 87 393 110 C393 115 394 124 399 143 L493 586 C550 586 578 579 599 560 C617 543 627 516 627 482 C627 465 624 441 617 401 L708 401 L764 667 L92 667 L36 401 L126 401 C157 541 209 588 330 586 L235 143 Z " />
<glyph glyph-name="U" unicode="U" horiz-adv-x="803" d="M849 667 L533 667 L516 585 L561 585 C606 585 616 580 616 558 C616 551 614 537 611 524 L545 211 C533 157 520 130 494 111 C467 91 418 78 367 78 C293 78 257 105 257 159 C257 172 260 197 265 217 L330 524 C341 578 350 586 411 585 L460 585 L478 667 L91 667 L74 585 L110 585 C160 585 171 580 171 557 C171 551 169 536 166 524 L99 206 C94 184 92 163 92 142 C92 96 113 52 150 25 C191 -7 244 -21 320 -21 C509 -21 622 58 655 213 L721 524 C733 579 742 586 798 585 L832 585 L849 667 Z " />
<glyph glyph-name="V" unicode="V" horiz-adv-x="740" d="M38 585 L64 585 C109 584 124 569 134 519 L212 0 L379 0 L681 514 C712 569 731 583 776 585 L806 585 L823 667 L503 667 L486 587 L536 585 C576 583 583 581 583 570 C583 560 576 539 569 526 L360 169 L311 522 C310 530 309 538 309 545 C309 578 320 585 374 585 L421 585 L438 667 L55 667 L38 585 Z " />
<glyph glyph-name="W" unicode="W" horiz-adv-x="1022" d="M425 585 C476 585 487 575 497 519 L502 485 L325 169 L298 522 C297 533 296 545 296 548 C296 579 305 585 357 585 L379 585 L396 667 L86 667 L69 585 C116 583 127 572 135 519 L179 0 L341 0 L514 316 L541 0 L703 0 L965 514 C993 568 1013 584 1053 585 L1071 585 L1089 667 L814 667 L797 587 L832 587 C861 587 876 581 876 569 C876 561 871 546 861 527 L687 169 L660 522 C659 534 658 544 658 546 C658 576 672 585 719 585 L751 585 L768 667 L442 667 L425 585 Z " />
<glyph glyph-name="X" unicode="X" horiz-adv-x="777" d="M63 585 L97 585 C129 584 141 577 157 550 L297 327 L87 145 C29 95 13 85 -24 82 L-69 82 L-86 0 L259 0 L276 82 L248 82 C212 82 198 87 198 100 C198 109 205 120 226 139 L345 248 L414 133 C418 126 421 116 421 109 C421 91 404 82 371 82 L333 82 L316 0 L715 0 L732 82 L688 82 C656 83 644 90 627 117 L478 360 L694 547 C726 576 741 583 773 585 L812 585 L830 667 L507 667 L490 585 L513 585 C544 585 557 580 557 567 C557 558 551 550 529 530 L425 438 L371 534 C366 542 363 552 363 559 C363 576 381 585 414 585 L434 585 L452 667 L80 667 L63 585 Z " />
<glyph glyph-name="Y" unicode="Y" horiz-adv-x="735" d="M38 585 L64 585 C103 586 130 565 154 514 L273 277 L245 143 C233 89 224 81 163 82 L108 82 L91 0 L501 0 L519 82 L463 82 C415 82 403 87 403 110 C403 116 405 130 408 143 L436 277 L666 520 C714 572 736 585 777 585 L801 585 L819 667 L506 667 L489 587 L518 587 C551 587 568 581 568 568 C568 559 564 552 550 537 L410 389 L344 528 C340 536 338 545 338 554 C338 565 345 575 355 581 C363 585 369 585 392 585 L421 585 L438 667 L55 667 L38 585 Z " />
<glyph glyph-name="Z" unicode="Z" horiz-adv-x="683" d="M-50 0 L562 0 L623 286 L530 286 C486 124 444 85 304 81 L171 81 L684 575 L704 667 L114 667 L58 403 L144 403 C183 544 232 585 360 585 L486 585 L-32 84 L-50 0 Z " />
<glyph glyph-name="bracketleft" unicode="&#x5b;" horiz-adv-x="417" d="M290 -176 L306 -99 L176 -99 L322 590 L453 590 L469 667 L191 667 L12 -176 L290 -176 Z " />
<glyph glyph-name="backslash" unicode="&#x5c;" horiz-adv-x="402" d="M220 -92 L302 -92 L198 686 L117 686 L220 -92 Z " />
<glyph glyph-name="bracketright" unicode="&#x5d;" horiz-adv-x="417" d="M92 667 L76 590 L206 590 L60 -100 L-71 -100 L-87 -177 L191 -177 L370 667 L92 667 Z " />
<glyph glyph-name="asciicircum" unicode="&#x5e;" horiz-adv-x="525" d="M154 353 L314 575 L379 353 L511 353 L417 670 L251 670 L22 353 L154 353 Z " />
<glyph glyph-name="underscore" unicode="&#x5f;" horiz-adv-x="500" d="M-83 -58 L-101 -143 L399 -143 L417 -58 L-83 -58 Z " />
<glyph glyph-name="grave" unicode="&#x60;" horiz-adv-x="512" d="M382 540 L278 683 C252 719 236 730 213 730 C178 730 147 700 147 667 C147 648 159 634 186 619 L328 540 L382 540 Z " />
<glyph glyph-name="a" unicode="a" horiz-adv-x="615" d="M567 173 L507 173 L496 120 C489 88 477 74 456 74 C441 74 432 82 432 98 C432 106 433 113 434 120 L475 313 C482 345 486 373 486 387 C486 447 414 486 301 486 C222 486 159 471 111 441 C73 417 48 376 48 340 C48 305 76 282 120 282 C171 282 216 317 216 356 C216 384 201 398 167 402 C197 423 219 430 257 430 C313 430 347 406 347 367 C347 346 339 325 325 310 C304 288 276 276 210 264 C109 245 59 227 26 199 C-8 171 -28 129 -28 87 C-28 21 21 -18 105 -18 C173 -18 221 0 292 54 C307 2 334 -17 396 -17 C442 -17 478 -5 506 20 C532 44 545 71 557 127 L567 173 Z M303 169 C290 107 246 72 182 72 C149 72 129 88 129 115 C129 129 134 144 143 154 C162 177 175 184 247 209 C257 213 286 224 318 237 L303 169 Z " />
<glyph glyph-name="b" unicode="b" horiz-adv-x="641" d="M60 593 L83 593 C97 593 122 587 129 581 C133 578 135 571 135 563 C135 556 133 544 131 534 L17 -4 L103 -4 L160 66 C175 37 187 23 202 12 C227 -7 269 -18 314 -18 C401 -18 466 14 516 81 C561 142 590 235 590 317 C590 420 530 483 431 483 C360 483 312 458 242 385 L302 667 L76 667 L60 593 Z M351 393 C407 393 431 366 431 304 C431 254 416 188 393 142 C368 90 333 66 284 66 C234 66 202 99 202 152 C202 207 223 296 244 329 C271 371 308 393 351 393 L351 393 Z " />
<glyph glyph-name="c" unicode="c" horiz-adv-x="547" d="M372 179 C359 146 348 124 336 110 C313 84 278 69 240 69 C182 69 155 98 155 163 C155 224 172 293 199 338 C226 386 270 411 323 411 C356 411 374 404 404 379 C372 373 359 366 343 348 C330 332 323 313 323 295 C323 258 350 236 392 236 C458 236 510 289 510 357 C510 435 439 487 333 487 C144 487 -3 346 -3 165 C-3 52 79 -18 211 -18 C292 -18 360 8 406 57 C436 88 450 116 464 179 L372 179 Z " />
<glyph glyph-name="d" unicode="d" horiz-adv-x="647" d="M406 394 C377 460 342 483 266 483 C186 483 118 449 69 384 C24 323 -4 232 -4 147 C-4 42 53 -17 155 -17 C195 -17 235 -7 268 12 C292 25 308 40 336 75 L320 0 L559 0 L573 70 L539 70 C504 70 489 78 489 97 C489 105 491 117 493 129 L607 667 L378 667 L363 593 L381 593 C423 593 440 585 440 564 C440 557 438 545 436 534 L406 394 Z M300 393 C351 393 382 361 382 310 C382 259 358 166 337 132 C309 88 274 66 232 66 C178 66 154 93 154 155 C154 206 170 273 192 319 C217 370 251 393 300 393 L300 393 Z " />
<glyph glyph-name="e" unicode="e" horiz-adv-x="568" d="M386 161 C354 94 318 69 251 69 C191 69 160 99 160 157 C160 170 163 195 168 218 L511 218 C519 261 522 287 522 306 C522 420 446 487 319 487 C232 487 149 453 91 394 C33 335 -3 247 -3 166 C-3 52 79 -18 213 -18 C296 -18 370 8 422 55 C454 84 469 108 488 161 L386 161 Z M187 294 C197 337 206 356 222 375 C242 396 269 408 301 408 C347 408 374 383 374 342 C374 331 372 312 369 294 L187 294 Z " />
<glyph glyph-name="f" unicode="f" horiz-adv-x="391" d="M298 74 L259 74 C225 74 211 82 211 100 C211 107 213 118 216 133 L270 389 L375 389 L392 469 L287 469 L300 528 C316 604 336 628 385 628 C400 628 409 625 428 616 C387 600 369 581 369 553 C369 523 391 504 427 504 C478 504 518 542 518 593 C518 650 465 685 379 685 C314 685 251 662 211 623 C181 595 164 562 153 507 L145 469 L55 469 L38 389 L128 389 L73 133 C61 83 53 76 3 74 L-29 74 L-45 0 L283 0 L298 74 Z " />
<glyph glyph-name="g" unicode="g" horiz-adv-x="668" d="M82 165 C2 134 -28 101 -28 47 C-28 12 -11 -8 36 -27 C-9 -38 -27 -46 -46 -63 C-64 -79 -75 -102 -75 -124 C-75 -185 3 -214 166 -214 C268 -214 350 -201 402 -176 C464 -146 504 -88 504 -28 C504 9 484 39 449 55 C416 70 388 74 329 74 C317 74 296 74 275 73 C242 72 221 72 213 72 C103 72 87 75 87 99 C87 116 98 127 128 139 C173 123 193 119 229 119 C395 119 507 208 507 338 C507 366 504 378 491 404 C524 428 545 439 559 439 C567 439 579 435 593 428 C560 415 540 390 540 362 C540 335 563 316 596 316 C646 316 684 356 684 407 C684 454 646 484 587 484 C549 484 522 474 469 440 C419 475 383 486 316 486 C159 486 42 394 42 269 C42 229 52 203 82 165 L82 165 Z M302 420 C348 420 364 404 364 359 C364 330 357 291 346 258 C327 202 299 180 246 180 C204 180 184 202 184 248 C184 281 198 336 214 367 C233 404 259 420 302 420 L302 420 Z M221 -46 C265 -46 309 -50 334 -56 C353 -61 361 -70 361 -87 C361 -132 309 -152 193 -152 C95 -152 56 -139 56 -106 C56 -83 70 -65 92 -58 C117 -50 166 -46 221 -46 L221 -46 Z " />
<glyph glyph-name="h" unicode="h" horiz-adv-x="688" d="M290 0 L596 0 L612 74 L586 74 C547 74 532 82 532 102 C532 109 534 119 536 133 L574 311 C581 341 584 368 584 390 C584 448 534 484 455 484 C382 484 332 460 260 391 L319 667 L92 667 L76 593 L103 593 C139 593 152 586 152 564 C152 557 150 544 148 534 L63 133 C51 83 43 76 -7 74 L-34 74 L-50 0 L253 0 L269 74 L249 74 C215 74 201 82 201 100 C201 107 203 119 206 133 L235 272 C252 349 309 401 377 401 C413 401 437 382 437 354 C437 342 435 326 431 309 L394 133 C383 83 375 76 325 74 L306 74 L290 0 Z " />
<glyph glyph-name="i" unicode="i" horiz-adv-x="370" d="M292 74 L259 74 C225 74 211 82 211 100 C211 107 213 120 216 133 L287 469 L55 469 L39 395 L70 395 C104 395 116 388 116 367 C116 357 115 346 113 336 L69 133 C57 83 49 76 2 74 L-29 74 L-45 0 L276 0 L292 74 Z M249 667 C198 667 152 622 152 573 C152 537 178 512 215 512 C265 512 311 557 311 606 C311 641 285 667 249 667 L249 667 Z " />
<glyph glyph-name="j" unicode="j" horiz-adv-x="349" d="M255 667 C204 667 158 622 158 572 C158 537 184 512 220 512 C270 512 317 557 317 605 C317 641 291 667 255 667 L255 667 Z M49 395 L82 395 C114 395 126 388 126 367 C126 359 125 346 122 336 L37 -64 C23 -134 4 -157 -34 -157 C-43 -157 -50 -155 -64 -149 C-27 -133 -11 -114 -11 -84 C-11 -55 -33 -38 -68 -38 C-124 -38 -166 -79 -166 -133 C-166 -184 -118 -214 -34 -214 C33 -214 91 -194 129 -159 C163 -128 170 -110 191 -12 L293 469 L64 469 L49 395 Z " />
<glyph glyph-name="k" unicode="k" horiz-adv-x="683" d="M71 593 L102 593 C136 593 148 586 148 564 C148 555 147 544 145 534 L59 133 C48 83 39 76 -8 74 L-39 74 L-55 0 L243 0 L259 74 L245 74 C216 74 201 82 201 100 C201 108 203 121 208 143 L317 215 L368 115 C372 108 374 99 374 93 C374 81 362 74 342 74 L309 74 L294 0 L598 0 L613 74 L595 74 C564 73 538 93 522 128 L440 295 L522 352 C566 383 585 391 622 395 L648 395 L664 469 L357 469 L341 395 L405 395 C424 395 429 393 429 386 C429 381 421 372 405 362 L229 243 L319 667 L87 667 L71 593 Z " />
<glyph glyph-name="l" unicode="l" horiz-adv-x="355" d="M319 667 L87 667 L71 593 L102 593 C136 593 148 586 148 565 C148 555 147 544 145 534 L59 133 C47 83 39 76 -8 74 L-39 74 L-55 0 L266 0 L282 74 L249 74 C215 74 201 82 201 100 C201 107 203 120 206 133 L319 667 Z " />
<glyph glyph-name="m" unicode="m" horiz-adv-x="980" d="M-50 0 L249 0 L264 74 L253 74 C220 74 205 82 205 100 C205 107 206 116 210 133 L240 272 C256 348 314 401 379 401 C407 401 423 384 423 356 C423 347 421 333 416 309 L378 133 C368 83 361 76 323 74 L302 74 L286 0 L558 0 L574 74 L559 74 C532 74 517 83 517 100 C517 107 519 122 521 133 L551 272 C567 348 625 401 691 401 C719 401 735 384 735 356 C735 348 733 338 727 309 L690 133 C679 83 672 76 634 74 L613 74 L597 0 L889 0 L905 74 L877 74 C843 74 828 82 828 100 C828 107 830 120 832 133 L870 311 C877 342 881 373 881 392 C881 449 836 484 765 484 C699 484 655 463 571 390 C557 461 531 484 462 484 C392 484 344 461 266 391 L283 469 L50 469 L34 395 L66 395 C101 395 114 388 114 366 C114 357 113 346 111 336 L67 133 C55 83 47 76 -3 74 L-34 74 L-50 0 Z " />
<glyph glyph-name="n" unicode="n" horiz-adv-x="688" d="M294 0 L598 0 L614 74 L591 74 C552 74 536 82 536 102 C536 108 537 117 541 133 L579 311 C585 342 589 371 589 391 C589 448 540 484 461 484 C392 484 350 463 265 385 L283 469 L50 469 L34 395 L66 395 C101 395 114 388 114 366 C114 357 113 346 111 336 L67 133 C55 83 47 76 -3 74 L-34 74 L-50 0 L257 0 L273 74 L254 74 C219 74 205 81 205 100 C205 107 206 116 210 133 L240 272 C256 349 314 401 382 401 C419 401 444 381 443 354 C443 345 440 330 436 309 L398 133 C387 83 379 76 329 74 L310 74 L294 0 Z " />
<glyph glyph-name="o" unicode="o" horiz-adv-x="620" d="M344 486 C148 486 1 352 1 174 C1 56 91 -17 236 -17 C431 -17 578 117 578 295 C578 412 488 486 344 486 L344 486 Z M327 409 C389 409 423 375 423 312 C423 252 404 178 378 133 C349 85 307 60 252 60 C190 60 156 94 156 157 C156 218 174 289 201 336 C230 384 272 409 327 409 L327 409 Z " />
<glyph glyph-name="p" unicode="p" horiz-adv-x="657" d="M271 469 L44 469 L28 395 L54 395 C88 395 103 387 103 369 C103 362 102 352 98 336 L9 -81 C-1 -131 -9 -138 -60 -140 L-85 -140 L-101 -214 L222 -214 L238 -140 L213 -140 C167 -140 149 -132 149 -110 C149 -103 151 -91 153 -81 L187 78 C198 44 208 25 224 12 C247 -6 284 -17 327 -17 C408 -17 476 17 525 83 C570 142 598 234 598 317 C598 423 541 484 442 484 C368 484 321 459 253 385 L271 469 Z M361 400 C416 400 440 373 440 310 C440 258 425 193 402 147 C377 96 343 73 293 73 C242 73 210 105 210 157 C210 207 233 300 255 334 C282 377 319 400 361 400 L361 400 Z " />
<glyph glyph-name="q" unicode="q" horiz-adv-x="646" d="M192 -214 L517 -214 L533 -140 L506 -140 C470 -140 456 -131 457 -111 C458 -101 459 -91 461 -80 L550 336 C561 386 570 393 620 395 L647 395 L662 469 L434 469 L418 391 C404 418 393 434 382 446 C356 472 317 487 272 487 C198 487 128 450 80 385 C35 324 6 231 6 149 C6 43 66 -17 171 -17 C208 -17 245 -9 275 6 C302 19 321 37 352 78 L319 -80 C308 -130 298 -137 233 -140 L208 -140 L192 -214 Z M313 400 C363 400 395 367 395 314 C395 259 374 170 352 137 C325 95 289 73 245 73 C189 73 165 100 165 162 C165 212 180 278 203 324 C228 376 263 400 313 400 L313 400 Z " />
<glyph glyph-name="r" unicode="r" horiz-adv-x="511" d="M278 469 L50 469 L34 395 L61 395 C97 395 110 388 110 366 C110 359 108 346 106 336 L63 133 C51 83 43 76 -7 74 L-34 74 L-50 0 L282 0 L298 74 L249 74 C215 74 201 82 201 101 C201 107 203 119 206 133 L231 253 C246 322 260 353 290 383 C314 408 347 423 376 423 C385 423 392 421 406 414 C358 399 335 374 335 337 C335 305 359 286 397 286 C458 286 508 337 508 399 C508 452 472 482 410 482 C354 482 313 461 265 408 L278 469 Z " />
<glyph glyph-name="s" unicode="s" horiz-adv-x="568" d="M74 30 C135 -5 181 -18 245 -18 C380 -18 488 64 488 167 C488 207 469 239 435 258 C407 273 370 285 304 302 C225 321 223 322 209 335 C204 340 200 349 200 357 C200 389 235 412 282 412 C311 412 341 404 363 391 C389 376 403 358 425 314 L495 314 L529 474 L459 474 L437 445 C385 476 347 487 286 487 C152 487 43 406 43 308 C43 286 51 263 64 249 C89 222 139 196 196 182 C286 160 286 160 306 151 C324 143 334 132 334 120 C334 85 294 61 236 61 C198 61 170 69 145 87 C116 107 105 127 97 176 L15 176 L-24 -7 L49 -7 L74 30 Z " />
<glyph glyph-name="t" unicode="t" horiz-adv-x="454" d="M302 224 L293 180 C276 100 260 76 224 76 C203 76 191 86 191 104 C191 112 193 127 197 144 L249 391 L383 391 L400 469 L270 469 L309 652 L226 652 C184 528 145 487 43 463 L28 391 L107 391 L60 170 C52 131 47 98 47 83 C47 58 58 31 75 14 C96 -6 130 -17 176 -17 C232 -17 276 1 309 38 C335 66 346 93 359 154 L374 224 L302 224 Z " />
<glyph glyph-name="u" unicode="u" horiz-adv-x="688" d="M34 395 L52 395 C86 395 101 387 101 369 C101 362 99 350 96 336 L58 156 C52 126 48 97 48 77 C48 19 98 -17 177 -17 C249 -17 298 6 374 76 L358 0 L597 0 L613 74 L578 74 C542 74 527 82 527 101 C527 107 529 117 532 133 L603 469 L382 469 L366 395 L393 395 C423 395 437 388 437 370 C437 363 436 354 432 336 L402 195 C385 118 327 66 257 66 C220 66 195 85 195 114 C195 124 197 141 201 158 L267 469 L50 469 L34 395 Z " />
<glyph glyph-name="v" unicode="v" horiz-adv-x="589" d="M272 108 L245 343 C244 348 244 353 244 357 C244 369 246 377 250 383 C255 390 276 396 294 396 C300 396 304 396 311 395 L327 469 L34 469 L18 395 C75 393 86 383 94 329 L139 0 L302 0 L494 328 C531 391 537 395 590 395 L596 395 L612 469 L373 469 L357 395 L381 395 C406 395 421 389 421 380 C421 373 414 358 403 338 L272 108 Z " />
<glyph glyph-name="w" unicode="w" horiz-adv-x="876" d="M295 469 L34 469 L18 395 C71 393 83 383 90 329 L116 0 L275 0 L417 245 L443 0 L599 0 L783 328 C817 388 826 395 882 395 L898 469 L671 469 L655 395 L669 395 C694 395 709 389 709 379 C709 373 704 361 691 338 L568 112 L543 343 L542 357 C542 367 544 377 548 383 C552 389 575 396 590 396 C595 396 598 396 604 395 L620 469 L355 469 L339 395 L356 395 C382 395 395 389 395 377 C395 369 390 358 378 338 L244 113 L229 343 C228 348 228 354 228 357 C228 386 238 395 271 395 L279 395 L295 469 Z " />
<glyph glyph-name="x" unicode="x" horiz-adv-x="673" d="M33 395 C85 393 104 383 137 341 L220 231 L74 123 C16 80 1 74 -55 74 L-71 0 L199 0 L215 74 L194 74 C173 74 165 77 165 85 C165 91 174 102 189 113 L268 172 L312 116 C322 104 326 96 326 89 C326 78 314 74 282 74 L267 74 L251 0 L580 0 L596 74 C538 75 519 84 484 128 L399 250 L525 345 C573 382 604 395 641 395 L648 395 L664 469 L419 469 L403 395 L413 396 C426 397 437 391 437 384 C437 377 430 366 420 359 L347 303 L311 352 C303 363 299 372 299 379 C299 389 313 396 332 396 C338 396 340 396 347 395 L362 469 L49 469 L33 395 Z " />
<glyph glyph-name="y" unicode="y" horiz-adv-x="594" d="M498 326 C536 386 550 395 605 396 L621 469 L385 469 L369 396 L390 396 C416 396 431 390 431 379 C431 372 425 358 412 338 L293 152 L248 343 C247 349 246 355 246 359 C246 387 259 396 296 396 L319 396 L335 469 L30 469 L14 396 C73 395 83 387 98 327 L180 -16 C143 -80 122 -107 90 -130 C70 -144 44 -154 25 -154 C7 -154 -4 -148 -22 -130 C20 -129 39 -122 58 -101 C72 -86 79 -68 79 -49 C79 -17 54 3 12 3 C-49 3 -98 -49 -98 -116 C-98 -177 -51 -216 22 -216 C111 -216 184 -162 264 -38 L498 326 Z " />
<glyph glyph-name="z" unicode="z" horiz-adv-x="558" d="M-40 0 L427 0 L473 218 L391 218 C364 96 343 76 240 74 L150 74 L510 389 L527 469 L81 469 L38 267 L117 267 C143 382 161 397 264 395 L336 395 L-22 83 L-40 0 Z " />
<glyph glyph-name="braceleft" unicode="&#x7b;" horiz-adv-x="417" d="M322 510 C337 590 349 597 454 596 L469 668 C422 670 412 670 402 670 C266 670 215 635 192 528 L157 361 C144 304 124 283 77 274 L62 205 C93 198 109 182 109 154 C109 144 107 126 105 115 L71 -46 C66 -68 64 -83 64 -99 C64 -167 103 -191 215 -191 C235 -191 251 -191 287 -189 L302 -117 C250 -116 250 -116 235 -114 C211 -111 199 -100 199 -83 C199 -73 199 -73 207 -30 L238 115 C242 132 244 151 244 166 C244 199 234 218 205 239 C256 267 274 293 291 363 L322 510 Z " />
<glyph glyph-name="bar" unicode="&#x7c;" horiz-adv-x="518" d="M258 667 L81 -167 L223 -167 L401 667 L258 667 Z " />
<glyph glyph-name="braceright" unicode="&#x7d;" horiz-adv-x="417" d="M55 -31 C42 -101 29 -114 -33 -117 L-57 -117 L-77 -117 L-92 -189 C-46 -191 -37 -191 -25 -191 C50 -191 89 -183 122 -160 C153 -138 173 -103 185 -49 L220 118 C233 174 253 196 300 205 L315 274 C284 280 268 297 268 324 C268 335 270 352 272 364 L307 525 C311 545 313 562 313 578 C313 646 274 670 162 670 C144 670 135 670 90 668 L75 596 C115 596 126 596 142 593 C166 590 178 579 178 562 C178 551 178 551 170 509 L139 363 C135 347 133 327 133 313 C133 280 143 261 173 239 C121 212 103 186 86 116 L55 -31 Z " />
<glyph glyph-name="asciitilde" unicode="&#x7e;" horiz-adv-x="676" d="M214 556 C250 603 272 619 301 619 C315 619 332 614 354 604 C451 559 455 557 480 557 C543 557 596 597 657 692 L599 749 C565 704 540 686 512 686 C493 686 485 689 435 714 C384 739 358 747 332 747 C269 747 214 705 157 613 L214 556 Z " />
<glyph glyph-name="uni00A0" unicode="&#xa0;" horiz-adv-x="250" d="" />
<glyph glyph-name="exclamdown" unicode="&#xa1;" horiz-adv-x="328" d="M199 483 C146 483 97 438 97 390 C97 352 125 326 164 326 C216 326 266 372 266 420 C266 456 238 483 199 483 L199 483 Z M112 267 C85 173 71 132 19 -9 C-16 -104 -23 -129 -23 -154 C-23 -198 2 -220 50 -220 C91 -220 124 -201 143 -165 C158 -137 162 -114 168 -9 C176 131 180 175 192 267 L112 267 Z " />
<glyph glyph-name="cent" unicode="&#xa2;" horiz-adv-x="657" d="M50 -101 L117 -101 L201 9 C235 2 252 0 274 0 C410 0 502 72 526 197 L433 197 C415 147 400 126 374 108 C355 95 331 87 308 87 C295 87 286 89 267 95 L402 274 C420 258 430 254 452 254 C520 254 571 306 571 375 C571 404 564 421 540 455 L628 570 L561 570 L497 485 C456 502 436 506 397 506 C205 506 58 366 58 184 C58 109 87 60 149 28 L50 -101 Z M234 139 C220 172 216 188 216 214 C216 259 231 311 255 351 C286 401 331 428 384 428 C418 428 436 421 466 397 C434 390 429 388 405 365 L234 139 Z " />
<glyph glyph-name="sterling" unicode="&#xa3;" horiz-adv-x="657" d="M2 -16 C83 30 120 44 158 44 C187 44 196 41 285 7 C322 -8 361 -17 385 -17 C442 -17 498 14 535 66 C559 100 569 130 583 202 L515 202 C496 134 478 111 444 111 C428 111 409 115 390 123 C311 155 311 155 283 155 C253 155 229 149 166 128 C242 174 270 207 286 268 L408 268 L422 336 L294 336 C283 388 279 418 279 439 C279 508 335 555 418 555 C459 555 480 547 516 517 C468 496 449 474 449 442 C449 406 479 382 522 382 C581 382 629 431 629 489 C629 570 542 623 407 623 C313 623 237 598 180 549 C135 510 111 463 111 414 C111 395 115 374 126 336 L48 336 L34 268 L133 268 C124 178 88 133 -18 75 L2 -16 Z " />
<glyph glyph-name="currency" unicode="&#xa4;" horiz-adv-x="700" d="M-20 137 L39 67 L168 169 C215 137 254 125 306 125 C359 125 409 139 464 170 L550 67 L638 138 L552 241 C607 301 632 359 632 423 C632 455 626 480 609 517 L738 619 L679 689 L549 587 C508 616 467 629 414 629 C360 629 313 616 258 586 L171 690 L82 619 L169 515 C114 456 88 396 88 331 C88 298 95 271 110 240 L-20 137 Z M390 512 C459 512 511 466 511 403 C511 320 424 242 331 242 C260 242 209 288 209 352 C209 435 296 512 390 512 L390 512 Z " />
<glyph glyph-name="yen" unicode="&#xa5;" horiz-adv-x="736" d="M547 379 L633 472 C676 519 697 531 735 531 L756 531 L772 605 L488 605 L473 533 L499 533 C529 533 544 527 544 515 C544 507 540 499 528 487 L402 353 L342 478 C338 486 336 494 336 502 C336 523 349 531 385 531 L411 531 L427 605 L80 605 L64 531 L88 531 C123 532 148 512 170 466 L212 379 L110 379 L96 311 L246 311 L275 255 L94 255 L80 187 L264 187 L251 130 C241 80 233 74 177 74 L128 74 L112 0 L484 0 L500 74 L450 74 C405 74 395 79 395 99 C395 105 397 118 399 130 L412 187 L595 187 L610 255 L429 255 L483 311 L632 311 L646 379 L547 379 Z " />
<glyph glyph-name="brokenbar" unicode="&#xa6;" horiz-adv-x="518" d="M258 667 L184 317 L326 317 L401 667 L258 667 Z M149 153 L81 -167 L223 -167 L291 153 L149 153 Z " />
<glyph glyph-name="section" unicode="&#xa7;" horiz-adv-x="626" d="M191 395 C126 364 99 347 74 316 C49 287 35 248 35 212 C35 144 84 105 231 56 C330 23 358 3 358 -37 C358 -101 287 -150 195 -150 C155 -150 131 -143 100 -123 C139 -101 155 -79 155 -47 C155 -15 135 2 98 2 C43 2 -2 -43 -2 -98 C-2 -166 75 -211 189 -211 C268 -211 340 -190 388 -153 C439 -115 472 -52 472 4 C472 48 457 71 406 109 C449 128 467 138 489 154 C534 187 561 236 561 284 C561 361 511 397 308 469 C260 485 242 503 242 531 C242 587 302 626 386 626 C421 626 437 622 472 605 C440 583 428 567 428 542 C428 512 450 494 486 494 C537 494 579 534 579 584 C579 646 507 688 398 688 C251 688 132 602 132 495 C132 453 147 426 191 395 L191 395 Z M246 352 C270 352 305 341 374 309 C433 283 449 267 449 236 C449 192 394 144 348 147 C327 148 257 174 199 200 C160 218 142 239 142 265 C142 309 193 352 246 352 L246 352 Z " />
<glyph glyph-name="dieresis" unicode="&#xa8;" horiz-adv-x="518" d="M240 699 C195 699 152 659 152 617 C152 582 175 560 210 560 C253 560 293 600 293 643 C293 675 271 699 240 699 L240 699 Z M439 699 C393 699 350 659 350 617 C350 582 373 560 408 560 C452 560 492 600 492 643 C492 675 469 699 439 699 L439 699 Z " />
<glyph glyph-name="copyright" unicode="&#xa9;" horiz-adv-x="837" d="M526 294 C514 257 506 241 490 224 C468 201 437 188 403 188 C350 188 317 223 317 277 C317 392 380 479 465 479 C516 479 547 449 547 399 L546 370 L603 370 L637 528 L583 528 L567 499 C526 527 504 535 462 535 C324 535 206 421 206 288 C206 191 272 132 381 132 C449 132 494 149 534 188 C561 215 574 239 589 294 L526 294 Z M498 685 C254 685 29 485 29 267 C29 102 162 -18 345 -18 C583 -18 807 184 807 400 C807 564 676 685 498 685 L498 685 Z M484 622 C627 622 734 523 734 389 C734 212 552 45 358 45 C210 45 102 143 102 278 C102 458 285 622 484 622 L484 622 Z " />
<glyph glyph-name="ordfeminine" unicode="&#xaa;" horiz-adv-x="401" d="M413 437 L368 437 L361 403 C357 385 351 378 341 378 C334 378 330 382 330 389 C330 396 330 398 331 403 L355 516 C359 536 362 552 362 560 C362 598 314 622 238 622 C140 622 71 585 71 533 C71 510 90 495 120 495 C155 495 185 517 185 542 C185 558 177 567 159 571 C173 579 186 582 206 582 C241 582 262 569 262 547 C262 516 240 501 179 491 C114 479 82 469 60 452 C38 434 25 410 25 384 C25 342 58 318 114 318 C157 318 187 328 231 358 C242 329 260 318 300 318 C362 318 393 344 406 407 L413 437 Z M235 431 C228 397 202 378 163 378 C143 378 132 386 132 401 C132 423 147 434 203 452 C208 454 225 460 242 466 L235 431 Z " />
<glyph glyph-name="guillemotleft" unicode="&#xab;" horiz-adv-x="506" d="M192 72 L172 138 C156 194 154 201 154 221 C154 246 166 269 212 336 L258 403 L175 403 L119 346 C64 289 36 250 36 228 C36 209 52 167 73 129 L104 72 L192 72 Z M395 72 L375 138 C358 197 357 201 357 221 C357 248 358 250 415 336 L461 403 L378 403 L322 346 C266 289 239 250 239 228 C239 209 254 168 276 129 L308 72 L395 72 Z " />
<glyph glyph-name="logicalnot" unicode="&#xac;" horiz-adv-x="525" d="M281 0 L419 0 L480 289 L25 289 L-1 165 L316 165 L281 0 Z " />
<glyph glyph-name="uni00AD" unicode="&#xad;" horiz-adv-x="288" d="M-34 172 L254 172 L282 299 L-7 299 L-34 172 Z " />
<glyph glyph-name="registered" unicode="&#xae;" horiz-adv-x="837" d="M237 471 L264 471 C291 471 296 469 296 458 C296 455 295 449 293 440 L248 226 C242 198 239 195 205 195 L178 195 L167 143 L397 143 L408 195 L377 195 C350 195 345 198 345 208 C345 212 346 220 348 226 L367 316 L423 316 C455 316 468 306 468 280 C468 275 467 270 466 265 L459 227 C456 210 454 194 454 186 C454 154 484 132 528 132 C560 132 591 144 610 164 C628 183 637 205 647 255 L597 255 C585 201 581 193 569 193 C562 193 559 197 559 204 C559 207 559 208 562 226 L569 265 C570 271 571 278 571 285 C571 316 561 328 526 339 C596 357 632 394 632 448 C632 500 591 523 498 523 L248 523 L237 471 Z M378 368 L399 471 L436 471 C493 471 504 469 517 457 C523 451 526 443 526 433 C526 417 520 401 509 390 C493 372 474 368 411 368 L378 368 Z M498 685 C254 685 29 485 29 267 C29 102 162 -18 345 -18 C583 -18 807 184 807 400 C807 564 676 685 498 685 L498 685 Z M484 622 C627 622 734 523 734 389 C734 212 552 45 358 45 C210 45 102 143 102 278 C102 458 285 622 484 622 L484 622 Z " />
<glyph glyph-name="macron" unicode="&#xaf;" horiz-adv-x="510" d="M161 588 L459 588 L476 670 L178 670 L161 588 Z " />
<glyph glyph-name="degree" unicode="&#xb0;" horiz-adv-x="400" d="M203 686 C117 686 50 619 50 534 C50 448 116 381 200 381 C284 381 350 448 350 533 C350 619 286 686 203 686 L203 686 Z M202 629 C252 629 293 586 293 534 C293 480 252 438 200 438 C148 438 106 481 106 533 C106 587 148 629 202 629 L202 629 Z " />
<glyph glyph-name="plusminus" unicode="&#xb1;" horiz-adv-x="549" d="M11 55 L11 0 L535 0 L535 55 L11 55 Z M302 662 L247 662 L247 423 L10 423 L10 368 L247 368 L247 129 L302 129 L302 368 L539 368 L539 423 L302 423 L302 662 Z " />
<glyph glyph-name="twosuperior" unicode="&#xb2;" horiz-adv-x="412" d="M66 266 C77 288 88 296 106 296 C116 296 130 292 149 285 C211 259 224 256 256 256 C299 256 334 271 357 300 C372 319 379 337 388 386 L342 386 C331 345 317 332 284 332 C272 332 256 334 227 341 C202 346 184 349 172 349 C152 349 135 345 100 332 C130 364 148 373 219 389 C321 412 332 415 358 435 C388 457 406 490 406 523 C406 578 350 615 264 615 C162 615 71 559 71 495 C71 467 91 449 124 449 C161 449 193 473 193 502 C193 519 178 531 158 531 C154 531 145 530 137 528 C156 557 181 569 224 569 C269 569 298 550 298 520 C298 487 275 463 224 443 C79 390 31 349 17 266 L66 266 Z " />
<glyph glyph-name="threesuperior" unicode="&#xb3;" horiz-adv-x="412" d="M181 424 C226 422 239 421 252 414 C269 406 278 393 278 376 C278 331 233 300 168 300 C130 300 112 305 90 321 C132 327 152 342 152 370 C152 393 134 408 105 408 C61 408 27 377 27 336 C27 286 82 257 176 257 C301 257 383 305 383 378 C383 414 360 433 298 450 C374 465 407 492 407 539 C407 587 354 615 265 615 C163 615 79 569 79 513 C79 491 99 476 127 476 C162 476 192 499 192 525 C192 542 180 551 151 555 C178 569 202 575 233 575 C275 575 299 559 299 532 C299 514 291 498 276 487 C259 474 239 470 190 469 L181 424 Z " />
<glyph glyph-name="acute" unicode="&#xb4;" horiz-adv-x="512" d="M203 540 L258 540 L433 619 C478 639 497 659 497 688 C497 713 480 730 454 730 C430 730 409 719 368 683 L203 540 Z " />
<glyph glyph-name="mu" unicode="&#xb5;" horiz-adv-x="576" d="M442 500 L353 500 L354 131 C318 80 284 58 242 58 C184 58 150 99 150 169 L150 500 L62 500 L62 20 C62 -1 58 -26 51 -56 C34 -118 33 -123 33 -147 C33 -190 54 -219 83 -219 C112 -219 132 -189 132 -145 C132 -124 129 -110 113 -53 C102 -17 101 -8 101 21 L101 33 C143 -3 165 -13 200 -13 C250 -13 301 18 354 80 C362 48 367 36 377 21 C392 0 419 -13 449 -13 C510 -13 553 31 567 108 L540 109 C536 71 515 41 492 41 C462 41 442 77 442 131 L442 500 Z " />
<glyph glyph-name="paragraph" unicode="&#xb6;" horiz-adv-x="690" d="M138 -93 L243 -93 L384 572 L480 572 L339 -93 L443 -93 L584 572 L663 572 L683 667 L338 667 C247 667 181 649 135 612 C87 574 57 512 57 451 C57 371 117 320 214 320 C215 320 221 320 226 321 L138 -93 Z " />
<glyph glyph-name="periodcentered" unicode="&#xb7;" horiz-adv-x="328" d="M163 313 C109 313 61 270 61 221 C61 182 88 156 127 156 C180 156 229 201 229 250 C229 286 201 313 163 313 L163 313 Z " />
<glyph glyph-name="cedilla" unicode="&#xb8;" horiz-adv-x="525" d="M6 -181 C82 -217 116 -227 165 -227 C243 -227 301 -181 301 -118 C301 -79 273 -53 230 -53 C218 -53 203 -54 186 -56 L198 0 L156 0 L135 -99 C148 -97 162 -95 169 -95 C195 -95 210 -106 210 -124 C210 -153 189 -171 155 -171 C121 -171 84 -159 41 -132 L6 -181 Z " />
<glyph glyph-name="onesuperior" unicode="&#xb9;" horiz-adv-x="412" d="M206 515 L169 342 C162 314 158 310 129 309 L83 309 L74 266 L326 266 L335 309 L293 309 C272 309 263 314 263 325 C263 328 264 333 266 342 L322 607 L254 607 C234 576 204 562 143 557 L134 515 L206 515 Z " />
<glyph glyph-name="ordmasculine" unicode="&#xba;" horiz-adv-x="404" d="M266 621 C137 621 43 543 43 436 C43 363 103 318 198 318 C324 318 418 397 418 503 C418 575 358 621 266 621 L266 621 Z M254 569 C292 569 312 550 312 512 C312 478 301 436 285 411 C268 384 243 370 209 370 C169 370 149 390 149 429 C149 509 194 569 254 569 L254 569 Z " />
<glyph glyph-name="guillemotright" unicode="&#xbb;" horiz-adv-x="506" d="M90 72 L145 129 C202 186 229 225 229 247 C229 266 214 306 192 346 L160 403 L77 403 L95 336 C106 291 112 265 112 254 C112 226 105 212 50 138 L2 72 L90 72 Z M293 72 L349 129 C404 186 432 225 432 247 C432 266 417 307 395 346 L363 403 L280 403 L298 336 C309 294 315 265 315 254 C315 226 308 212 253 138 L205 72 L293 72 Z " />
<glyph glyph-name="onequarter" unicode="&#xbc;" horiz-adv-x="996" d="M206 515 L169 342 C162 314 158 310 129 309 L83 309 L74 266 L326 266 L335 309 L293 309 C272 309 263 314 263 325 C263 328 264 333 266 342 L322 607 L254 607 C234 576 204 562 143 557 L134 515 L206 515 Z M165 -17 L252 -17 L822 622 L734 622 L165 -17 Z M911 43 L870 43 C850 43 841 48 841 58 C841 61 842 64 844 76 L849 99 L919 99 L929 148 L859 148 L900 340 L818 340 L565 146 L555 99 L751 99 L746 76 C739 48 733 44 704 43 L669 43 L660 0 L902 0 L911 43 Z M634 148 L787 261 L761 148 L634 148 Z " />
<glyph glyph-name="onehalf" unicode="&#xbd;" horiz-adv-x="996" d="M206 515 L169 342 C162 314 158 310 129 309 L83 309 L74 266 L326 266 L335 309 L293 309 C272 309 263 314 263 325 C263 328 264 333 266 342 L322 607 L254 607 C234 576 204 562 143 557 L134 515 L206 515 Z M165 -17 L252 -17 L822 622 L734 622 L165 -17 Z M593 0 C604 21 615 29 633 29 C642 29 657 25 676 18 C740 -7 751 -10 783 -10 C826 -10 861 5 884 33 C899 52 906 70 915 119 L869 119 C858 78 844 65 811 65 C799 65 783 67 754 74 C729 79 711 82 699 82 C679 82 662 78 627 65 C657 97 675 106 746 122 C848 145 859 148 885 167 C915 190 933 223 933 256 C933 311 877 348 791 348 C689 348 598 292 598 228 C598 200 618 182 651 182 C688 182 720 206 720 235 C720 252 705 264 685 264 C681 264 672 263 664 261 C683 290 708 302 751 302 C796 302 825 282 825 253 C825 220 801 196 751 176 C606 123 558 83 544 0 L593 0 Z " />
<glyph glyph-name="threequarters" unicode="&#xbe;" horiz-adv-x="996" d="M181 424 C226 422 239 421 252 414 C269 406 278 393 278 376 C278 331 233 300 168 300 C130 300 112 305 90 321 C132 327 152 342 152 370 C152 393 134 408 105 408 C61 408 27 377 27 336 C27 286 82 257 176 257 C301 257 383 305 383 378 C383 414 360 433 298 450 C374 465 407 492 407 539 C407 587 354 615 265 615 C163 615 79 569 79 513 C79 491 99 476 127 476 C162 476 192 499 192 525 C192 542 180 551 151 555 C178 569 202 575 233 575 C275 575 299 559 299 532 C299 514 291 498 276 487 C259 474 239 470 190 469 L181 424 Z M165 -17 L252 -17 L822 622 L734 622 L165 -17 Z M911 43 L870 43 C850 43 841 48 841 58 C841 61 842 64 844 76 L849 99 L919 99 L929 148 L859 148 L900 340 L818 340 L565 146 L555 99 L751 99 L746 76 C739 48 734 44 704 43 L669 43 L660 0 L902 0 L911 43 Z M634 148 L787 261 L761 148 L634 148 Z " />
<glyph glyph-name="questiondown" unicode="&#xbf;" horiz-adv-x="589" d="M353 483 C301 483 252 438 252 390 C252 352 280 326 319 326 C371 326 421 372 421 420 C421 457 393 483 353 483 L353 483 Z M263 267 C253 223 228 191 178 160 C62 93 60 92 26 57 C-9 23 -30 -26 -30 -70 C-30 -161 53 -220 180 -220 C272 -220 349 -190 404 -133 C443 -93 467 -40 467 5 C467 60 434 93 379 93 C317 93 271 52 271 -3 C271 -34 294 -55 328 -55 C345 -55 358 -52 384 -39 C370 -72 360 -89 344 -102 C318 -123 279 -136 240 -136 C177 -136 134 -103 134 -55 C134 -40 139 -24 149 -4 C164 25 189 51 252 104 C323 167 339 193 351 267 L263 267 Z " />
<glyph glyph-name="Agrave" unicode="&#xc0;" horiz-adv-x="740" d="M698 82 L672 82 C621 81 615 88 604 149 L527 667 L348 667 L55 153 C28 101 6 85 -40 82 L-75 82 L-92 0 L223 0 L241 82 L196 82 C161 82 149 87 149 101 C149 111 154 125 164 142 L205 214 L419 214 L431 145 C432 137 433 128 433 124 C433 91 418 82 362 82 L324 82 L306 0 L681 0 L698 82 Z M408 297 L253 297 L376 512 L408 297 Z M481 721 L535 721 L424 842 C405 862 395 868 378 868 C350 868 321 840 321 813 C321 796 334 781 354 772 L481 721 Z " />
<glyph glyph-name="Aacute" unicode="&#xc1;" horiz-adv-x="740" d="M698 82 L672 82 C621 81 615 88 604 149 L527 667 L348 667 L55 153 C28 101 6 85 -40 82 L-75 82 L-92 0 L223 0 L241 82 L196 82 C161 82 149 87 149 101 C149 111 154 125 164 142 L205 214 L419 214 L431 145 C432 137 433 128 433 124 C433 91 418 82 362 82 L324 82 L306 0 L681 0 L698 82 Z M408 297 L253 297 L376 512 L408 297 Z M414 721 L563 772 C596 784 617 807 617 831 C617 852 602 868 580 868 C564 868 549 861 523 842 L360 721 L414 721 Z " />
<glyph glyph-name="Acircumflex" unicode="&#xc2;" horiz-adv-x="740" d="M698 82 L672 82 C621 81 615 88 604 149 L527 667 L348 667 L55 153 C28 101 6 85 -40 82 L-75 82 L-92 0 L223 0 L241 82 L196 82 C161 82 149 87 149 101 C149 111 154 125 164 142 L205 214 L419 214 L431 145 C432 137 433 128 433 124 C433 91 418 82 362 82 L324 82 L306 0 L681 0 L698 82 Z M408 297 L253 297 L376 512 L408 297 Z M298 721 L345 721 L464 776 L560 721 L606 721 L539 858 L423 858 L298 721 Z " />
<glyph glyph-name="Atilde" unicode="&#xc3;" horiz-adv-x="740" d="M698 82 L672 82 C621 81 615 88 604 149 L527 667 L348 667 L55 153 C28 101 6 85 -40 82 L-75 82 L-92 0 L223 0 L241 82 L196 82 C161 82 149 87 149 101 C149 111 154 125 164 142 L205 214 L419 214 L431 145 C432 137 433 128 433 124 C433 91 418 82 362 82 L324 82 L306 0 L681 0 L698 82 Z M408 297 L253 297 L376 512 L408 297 Z M339 720 C353 748 369 761 391 761 C398 761 408 759 419 756 L471 741 C481 739 492 737 501 737 C528 737 553 748 576 769 C599 790 612 810 632 858 L595 858 C577 827 565 818 543 818 C537 818 529 819 522 821 L469 836 C457 839 446 841 433 841 C376 841 340 808 301 720 L339 720 Z " />
<glyph glyph-name="Adieresis" unicode="&#xc4;" horiz-adv-x="740" d="M698 82 L672 82 C621 81 615 88 604 149 L527 667 L348 667 L55 153 C28 101 6 85 -40 82 L-75 82 L-92 0 L223 0 L241 82 L196 82 C161 82 149 87 149 101 C149 111 154 125 164 142 L205 214 L419 214 L431 145 C432 137 433 128 433 124 C433 91 418 82 362 82 L324 82 L306 0 L681 0 L698 82 Z M408 297 L253 297 L376 512 L408 297 Z M371 858 C327 858 285 819 285 778 C285 745 307 722 339 722 C382 722 424 761 424 802 C424 833 400 858 371 858 L371 858 Z M566 858 C522 858 481 819 481 778 C481 745 503 722 534 722 C577 722 619 761 619 802 C619 833 595 858 566 858 L566 858 Z " />
<glyph glyph-name="Aring" unicode="&#xc5;" horiz-adv-x="740" d="M698 82 L672 82 C621 81 615 88 604 149 L527 667 L348 667 L55 153 C28 101 6 85 -40 82 L-75 82 L-92 0 L223 0 L241 82 L196 82 C161 82 149 87 149 101 C149 111 154 125 164 142 L205 214 L419 214 L431 145 C432 137 433 128 433 124 C433 91 418 82 362 82 L324 82 L306 0 L681 0 L698 82 Z M408 297 L253 297 L376 512 L408 297 Z M496 932 C425 932 361 873 361 806 C361 754 396 716 445 716 C514 716 582 781 582 847 C582 896 546 932 496 932 L496 932 Z M482 869 C503 868 517 854 517 833 C517 805 490 779 461 779 C440 779 425 794 425 816 C425 844 454 870 482 869 L482 869 Z " />
<glyph glyph-name="AE" unicode="&#xc6;" horiz-adv-x="1126" d="M296 0 L988 0 L1047 279 L961 279 C915 116 869 79 720 82 L590 82 L637 306 L677 306 C736 306 758 291 758 249 C758 235 757 225 754 213 L748 182 L833 182 L900 500 L815 500 C792 405 776 390 695 389 L655 389 L697 585 L838 585 C967 585 996 565 996 475 C996 463 994 433 992 408 L1076 408 L1131 667 L285 667 L268 585 L306 585 C352 585 364 580 364 563 C364 552 358 537 346 523 L52 144 C17 99 -9 84 -52 82 L-90 82 L-107 0 L226 0 L243 82 L201 82 C168 82 155 87 155 101 C155 111 159 118 175 139 L255 241 L465 241 L444 143 C432 88 423 81 362 82 L313 82 L296 0 Z M482 324 L320 324 L528 591 L539 591 L482 324 Z " />
<glyph glyph-name="Ccedilla" unicode="&#xc7;" horiz-adv-x="751" d="M321 -19 C514 -23 642 73 687 258 L587 258 C567 194 553 167 524 136 C483 93 427 69 366 69 C271 69 211 132 211 231 C211 312 238 415 274 474 C323 555 396 599 479 599 C570 599 627 543 627 454 C627 441 626 423 625 404 L715 404 L773 675 L688 675 L657 621 C585 673 545 687 470 687 C232 687 28 487 28 253 C28 160 64 85 132 36 C172 7 215 -9 279 -16 L261 -101 C274 -98 289 -96 295 -96 C321 -96 336 -107 336 -125 C336 -153 314 -171 282 -171 C248 -171 211 -158 168 -132 L133 -181 C207 -217 243 -227 292 -227 C370 -227 429 -181 429 -119 C429 -80 400 -54 357 -54 C345 -54 329 -55 313 -58 L321 -19 Z " />
<glyph glyph-name="Egrave" unicode="&#xc8;" horiz-adv-x="782" d="M782 667 L92 667 L74 585 L116 585 C166 585 177 580 177 557 C177 551 175 541 172 524 L91 143 C79 89 70 81 9 82 L-33 82 L-50 0 L639 0 L699 279 L612 279 C565 115 521 79 371 82 L241 82 L289 306 L328 306 C387 306 410 291 410 251 C410 242 408 226 405 213 L398 182 L484 182 L552 500 L467 500 C443 405 428 390 346 389 L306 389 L348 585 L490 585 C565 585 597 579 618 563 C637 546 647 519 647 478 C647 465 645 434 642 408 L727 408 L782 667 Z M502 721 L556 721 L445 842 C427 862 416 868 399 868 C371 868 342 840 342 813 C342 796 355 781 376 772 L502 721 Z " />
<glyph glyph-name="Eacute" unicode="&#xc9;" horiz-adv-x="782" d="M782 667 L92 667 L74 585 L116 585 C166 585 177 580 177 557 C177 551 175 541 172 524 L91 143 C79 89 70 81 9 82 L-33 82 L-50 0 L639 0 L699 279 L612 279 C565 115 521 79 371 82 L241 82 L289 306 L328 306 C387 306 410 291 410 251 C410 242 408 226 405 213 L398 182 L484 182 L552 500 L467 500 C443 405 428 390 346 389 L306 389 L348 585 L490 585 C565 585 597 579 618 563 C637 546 647 519 647 478 C647 465 645 434 642 408 L727 408 L782 667 Z M435 721 L584 772 C617 784 638 807 638 831 C638 852 623 868 601 868 C585 868 570 861 544 842 L381 721 L435 721 Z " />
<glyph glyph-name="Ecircumflex" unicode="&#xca;" horiz-adv-x="782" d="M782 667 L92 667 L74 585 L116 585 C166 585 177 580 177 557 C177 551 175 541 172 524 L91 143 C79 89 70 81 9 82 L-33 82 L-50 0 L639 0 L699 279 L612 279 C565 115 521 79 371 82 L241 82 L289 306 L328 306 C387 306 410 291 410 251 C410 242 408 226 405 213 L398 182 L484 182 L552 500 L467 500 C443 405 428 390 346 389 L306 389 L348 585 L490 585 C565 585 597 579 618 563 C637 546 647 519 647 478 C647 465 645 434 642 408 L727 408 L782 667 Z M319 721 L366 721 L485 776 L581 721 L628 721 L560 858 L445 858 L319 721 Z " />
<glyph glyph-name="Edieresis" unicode="&#xcb;" horiz-adv-x="782" d="M782 667 L92 667 L74 585 L116 585 C166 585 177 580 177 557 C177 551 175 541 172 524 L91 143 C79 89 70 81 9 82 L-33 82 L-50 0 L639 0 L699 279 L612 279 C565 115 521 79 371 82 L241 82 L289 306 L328 306 C387 306 410 291 410 251 C410 242 408 226 405 213 L398 182 L484 182 L552 500 L467 500 C443 405 428 390 346 389 L306 389 L348 585 L490 585 C565 585 597 579 618 563 C637 546 647 519 647 478 C647 465 645 434 642 408 L727 408 L782 667 Z M407 858 C363 858 321 819 321 778 C321 744 343 722 375 722 C418 722 460 761 460 802 C460 833 436 858 407 858 L407 858 Z M602 858 C559 858 517 819 517 778 C517 745 539 722 570 722 C614 722 655 761 655 802 C655 833 632 858 602 858 L602 858 Z " />
<glyph glyph-name="Igrave" unicode="&#xcc;" horiz-adv-x="433" d="M-48 0 L338 0 L356 82 L312 82 C263 82 251 87 251 110 C251 116 253 130 256 143 L337 524 C348 579 358 586 419 585 L463 585 L480 667 L94 667 L76 585 L118 585 C168 585 179 580 179 557 C179 551 178 542 174 524 L93 143 C81 89 72 81 11 82 L-31 82 L-48 0 Z M327 721 L381 721 L270 842 C251 862 241 868 224 868 C196 868 167 840 167 813 C167 796 180 781 201 772 L327 721 Z " />
<glyph glyph-name="Iacute" unicode="&#xcd;" horiz-adv-x="433" d="M-48 0 L338 0 L356 82 L312 82 C263 82 251 87 251 110 C251 116 253 130 256 143 L337 524 C348 579 358 586 419 585 L463 585 L480 667 L94 667 L76 585 L118 585 C168 585 179 580 179 557 C179 551 178 542 174 524 L93 143 C81 89 72 81 11 82 L-31 82 L-48 0 Z M260 721 L409 772 C442 784 463 807 463 831 C463 852 448 868 426 868 C410 868 395 861 369 842 L206 721 L260 721 Z " />
<glyph glyph-name="Icircumflex" unicode="&#xce;" horiz-adv-x="433" d="M-48 0 L338 0 L356 82 L312 82 C263 82 251 87 251 110 C251 116 253 130 256 143 L337 524 C348 579 358 586 419 585 L463 585 L480 667 L94 667 L76 585 L118 585 C168 585 179 580 179 557 C179 551 178 542 174 524 L93 143 C81 89 72 81 11 82 L-31 82 L-48 0 Z M144 721 L191 721 L310 776 L406 721 L452 721 L385 858 L270 858 L144 721 Z " />
<glyph glyph-name="Idieresis" unicode="&#xcf;" horiz-adv-x="433" d="M-48 0 L338 0 L356 82 L312 82 C263 82 251 87 251 110 C251 116 253 130 256 143 L337 524 C348 579 358 586 419 585 L463 585 L480 667 L94 667 L76 585 L118 585 C168 585 179 580 179 557 C179 551 178 542 174 524 L93 143 C81 89 72 81 11 82 L-31 82 L-48 0 Z M235 858 C191 858 150 819 150 778 C150 745 172 722 203 722 C247 722 288 761 288 802 C288 833 265 858 235 858 L235 858 Z M424 858 C380 858 338 819 338 778 C338 745 360 722 392 722 C435 722 477 761 477 802 C477 833 454 858 424 858 L424 858 Z " />
<glyph glyph-name="Eth" unicode="&#xd0;" horiz-adv-x="850" d="M-47 0 L316 0 C488 0 590 31 677 108 C760 183 811 302 811 424 C811 498 788 554 742 595 C683 647 603 667 458 667 L95 667 L77 586 L119 586 C169 586 180 581 180 558 C180 552 178 541 175 524 L144 381 L10 381 L-6 305 L128 305 L94 143 C82 89 73 82 12 82 L-30 82 L-47 0 Z M244 83 L292 305 L447 305 L463 381 L308 381 L351 585 L439 585 C570 585 626 540 626 435 C626 353 601 258 563 193 C519 118 446 83 332 83 L244 83 Z " />
<glyph glyph-name="Ntilde" unicode="&#xd1;" horiz-adv-x="855" d="M297 82 L249 82 C200 82 189 87 189 110 C189 116 191 131 194 143 L274 522 L484 0 L661 0 L772 524 C783 579 793 586 853 585 L885 585 L903 667 L577 667 L560 585 L608 585 C657 585 668 580 668 557 C668 551 666 540 663 524 L592 191 L400 667 L92 667 L74 585 L110 585 C160 585 171 580 171 557 C171 552 170 543 165 524 L85 143 C73 89 64 81 3 82 L-33 82 L-50 0 L279 0 L297 82 Z M402 720 C416 748 432 761 453 761 C461 761 471 759 482 756 L534 741 C544 739 555 737 564 737 C591 737 616 748 639 769 C662 790 675 810 695 858 L658 858 C640 827 628 818 606 818 C600 818 592 819 585 821 L532 836 C520 839 509 841 496 841 C439 841 403 808 364 720 L402 720 Z " />
<glyph glyph-name="Ograve" unicode="&#xd2;" horiz-adv-x="850" d="M502 686 C366 686 247 640 157 553 C76 475 28 362 28 251 C28 87 153 -19 345 -19 C486 -19 602 25 694 114 C775 193 823 305 823 416 C823 582 699 686 502 686 L502 686 Z M484 599 C577 599 639 533 639 435 C639 354 612 253 576 194 C526 114 452 69 370 69 C274 69 212 133 212 233 C212 313 239 415 275 474 C324 554 399 599 484 599 L484 599 Z M537 721 L591 721 L479 842 C461 862 450 868 433 868 C405 868 376 840 376 813 C376 796 389 781 410 772 L537 721 Z " />
<glyph glyph-name="Oacute" unicode="&#xd3;" horiz-adv-x="850" d="M502 686 C366 686 247 640 157 553 C76 475 28 362 28 251 C28 87 153 -19 345 -19 C486 -19 602 25 694 114 C775 193 823 305 823 416 C823 582 699 686 502 686 L502 686 Z M484 599 C577 599 639 533 639 435 C639 354 612 253 576 194 C526 114 452 69 370 69 C274 69 212 133 212 233 C212 313 239 415 275 474 C324 554 399 599 484 599 L484 599 Z M470 721 L618 772 C651 784 673 807 673 830 C673 853 658 868 636 868 C619 868 605 861 579 842 L415 721 L470 721 Z " />
<glyph glyph-name="Ocircumflex" unicode="&#xd4;" horiz-adv-x="850" d="M502 686 C366 686 247 640 157 553 C76 475 28 362 28 251 C28 87 153 -19 345 -19 C486 -19 602 25 694 114 C775 193 823 305 823 416 C823 582 699 686 502 686 L502 686 Z M484 599 C577 599 639 533 639 435 C639 354 612 253 576 194 C526 114 452 69 370 69 C274 69 212 133 212 233 C212 313 239 415 275 474 C324 554 399 599 484 599 L484 599 Z M354 721 L400 721 L519 776 L615 721 L662 721 L595 858 L479 858 L354 721 Z " />
<glyph glyph-name="Otilde" unicode="&#xd5;" horiz-adv-x="850" d="M502 686 C366 686 247 640 157 553 C76 475 28 362 28 251 C28 87 153 -19 345 -19 C486 -19 602 25 694 114 C775 193 823 305 823 416 C823 582 699 686 502 686 L502 686 Z M484 599 C577 599 639 533 639 435 C639 354 612 253 576 194 C526 114 452 69 370 69 C274 69 212 133 212 233 C212 313 239 415 275 474 C324 554 399 599 484 599 L484 599 Z M395 720 C409 748 425 761 446 761 C453 761 463 759 475 756 L526 741 C537 739 547 737 557 737 C583 737 608 748 631 769 C654 790 667 810 688 858 L650 858 C633 828 621 818 598 818 C592 818 585 819 578 821 L524 836 C513 839 501 841 489 841 C431 841 395 808 357 720 L395 720 Z " />
<glyph glyph-name="Odieresis" unicode="&#xd6;" horiz-adv-x="850" d="M502 686 C366 686 247 640 157 553 C76 475 28 362 28 251 C28 87 153 -19 345 -19 C486 -19 602 25 694 114 C775 193 823 305 823 416 C823 582 699 686 502 686 L502 686 Z M484 599 C577 599 639 533 639 435 C639 354 612 253 576 194 C526 114 452 69 370 69 C274 69 212 133 212 233 C212 313 239 415 275 474 C324 554 399 599 484 599 L484 599 Z M441 858 C397 858 355 819 355 778 C355 744 377 722 409 722 C452 722 494 761 494 802 C494 833 470 858 441 858 L441 858 Z M637 858 C593 858 551 819 551 778 C551 744 573 722 605 722 C648 722 690 761 690 802 C690 833 666 858 637 858 L637 858 Z " />
<glyph glyph-name="multiply" unicode="&#xd7;" horiz-adv-x="624" d="M52 172 L113 99 L293 242 L413 99 L505 172 L385 315 L565 457 L504 530 L324 387 L205 530 L113 457 L232 315 L52 172 Z " />
<glyph glyph-name="Oslash" unicode="&#xd8;" horiz-adv-x="850" d="M22 -39 L125 46 C181 2 256 -19 349 -19 C616 -19 822 171 822 417 C822 478 807 526 771 575 L863 650 L820 701 L723 622 C666 665 593 686 500 686 C364 686 247 641 156 553 C74 474 27 363 27 251 C27 188 42 141 78 93 L-21 12 L22 -39 Z M213 204 C211 216 211 223 211 231 C211 313 237 414 274 474 C324 554 399 599 481 599 C541 599 583 577 613 531 L213 204 Z M636 465 C638 452 638 446 638 437 C638 354 612 253 575 194 C525 114 451 69 369 69 C307 69 265 91 236 137 L636 465 Z " />
<glyph glyph-name="Ugrave" unicode="&#xd9;" horiz-adv-x="803" d="M849 667 L533 667 L516 585 L561 585 C606 585 616 580 616 558 C616 551 614 537 611 524 L545 211 C533 157 520 130 494 111 C467 91 418 78 367 78 C293 78 257 105 257 159 C257 172 260 197 265 217 L330 524 C341 578 350 586 411 585 L460 585 L478 667 L91 667 L74 585 L110 585 C160 585 171 580 171 557 C171 551 169 536 166 524 L99 206 C94 184 92 163 92 142 C92 96 113 52 150 25 C191 -7 244 -21 320 -21 C509 -21 622 58 655 213 L721 524 C733 579 742 586 798 585 L832 585 L849 667 Z M512 721 L566 721 L455 842 C437 862 426 868 409 868 C381 868 352 840 352 813 C352 796 365 781 386 772 L512 721 Z " />
<glyph glyph-name="Uacute" unicode="&#xda;" horiz-adv-x="803" d="M849 667 L533 667 L516 585 L561 585 C606 585 616 580 616 558 C616 551 614 537 611 524 L545 211 C533 157 520 130 494 111 C467 91 418 78 367 78 C293 78 257 105 257 159 C257 172 260 197 265 217 L330 524 C341 578 350 586 411 585 L460 585 L478 667 L91 667 L74 585 L110 585 C160 585 171 580 171 557 C171 551 169 536 166 524 L99 206 C94 184 92 163 92 142 C92 96 113 52 150 25 C191 -7 244 -21 320 -21 C509 -21 622 58 655 213 L721 524 C733 579 742 586 798 585 L832 585 L849 667 Z M445 721 L594 772 C627 784 648 807 648 830 C648 852 633 868 611 868 C595 868 581 862 554 842 L391 721 L445 721 Z " />
<glyph glyph-name="Ucircumflex" unicode="&#xdb;" horiz-adv-x="803" d="M849 667 L533 667 L516 585 L561 585 C606 585 616 580 616 558 C616 551 614 537 611 524 L545 211 C533 157 520 130 494 111 C467 91 418 78 367 78 C293 78 257 105 257 159 C257 172 260 197 265 217 L330 524 C341 578 350 586 411 585 L460 585 L478 667 L91 667 L74 585 L110 585 C160 585 171 580 171 557 C171 551 169 536 166 524 L99 206 C94 184 92 163 92 142 C92 96 113 52 150 25 C191 -7 244 -21 320 -21 C509 -21 622 58 655 213 L721 524 C733 579 742 586 798 585 L832 585 L849 667 Z M329 721 L376 721 L495 776 L591 721 L638 721 L570 858 L455 858 L329 721 Z " />
<glyph glyph-name="Udieresis" unicode="&#xdc;" horiz-adv-x="803" d="M849 667 L533 667 L516 585 L561 585 C606 585 616 580 616 558 C616 551 614 537 611 524 L545 211 C533 157 520 130 494 111 C467 91 418 78 367 78 C293 78 257 105 257 159 C257 172 260 197 265 217 L330 524 C341 578 350 586 411 585 L460 585 L478 667 L91 667 L74 585 L110 585 C160 585 171 580 171 557 C171 551 169 536 166 524 L99 206 C94 184 92 163 92 142 C92 96 113 52 150 25 C191 -7 244 -21 320 -21 C509 -21 622 58 655 213 L721 524 C733 579 742 586 798 585 L832 585 L849 667 Z M413 858 C369 858 328 819 328 778 C328 744 350 722 381 722 C425 722 466 761 466 802 C466 833 443 858 413 858 L413 858 Z M609 858 C565 858 523 819 523 778 C523 744 545 722 577 722 C620 722 662 761 662 802 C662 833 638 858 609 858 L609 858 Z " />
<glyph glyph-name="Yacute" unicode="&#xdd;" horiz-adv-x="735" d="M38 585 L64 585 C103 586 130 565 154 514 L273 277 L245 143 C233 89 224 81 163 82 L108 82 L91 0 L501 0 L519 82 L463 82 C415 82 403 87 403 110 C403 116 405 130 408 143 L436 277 L666 520 C714 572 736 585 777 585 L801 585 L819 667 L506 667 L489 587 L518 587 C551 587 568 581 568 568 C568 559 564 552 550 537 L410 389 L344 528 C340 536 338 545 338 554 C338 565 345 575 355 581 C363 585 369 585 392 585 L421 585 L438 667 L55 667 L38 585 Z M412 721 L561 772 C594 784 615 807 615 830 C615 853 600 868 578 868 C561 868 547 862 521 842 L358 721 L412 721 Z " />
<glyph glyph-name="Thorn" unicode="&#xde;" horiz-adv-x="740" d="M-50 0 L341 0 L358 82 L311 82 C264 82 253 87 253 109 C253 116 255 128 258 143 L260 154 L391 154 C517 154 581 172 635 221 C679 262 706 322 706 381 C706 422 694 454 670 477 C634 513 579 526 470 526 L339 526 L341 534 C351 578 362 586 418 585 L465 585 L483 667 L92 667 L74 585 L114 585 C162 585 173 580 173 557 C173 552 172 546 170 534 L87 143 C76 89 66 81 7 82 L-33 82 L-50 0 Z M278 236 L322 444 L386 444 C496 444 535 425 535 370 C535 337 523 303 503 282 C473 249 426 236 336 236 L278 236 Z " />
<glyph glyph-name="germandbls" unicode="&#xdf;" horiz-adv-x="652" d="M56 133 C45 84 36 76 -9 74 L-34 74 L-50 0 L170 0 L278 508 C285 541 294 562 306 576 C326 598 361 612 397 612 C447 612 473 592 473 555 C473 521 458 487 433 466 C410 447 390 442 328 440 L311 363 C363 363 373 362 388 359 C424 350 444 325 444 289 C444 255 421 134 409 105 C396 75 379 61 356 61 C334 61 319 74 320 93 C320 97 321 102 322 107 L334 165 L264 165 L251 107 C249 95 247 81 247 70 C247 49 250 35 258 22 C273 -2 310 -18 353 -18 C420 -18 481 14 526 73 C567 126 593 201 593 265 C593 308 582 337 559 362 C537 385 514 396 460 411 C528 429 558 445 585 478 C607 505 620 540 620 573 C620 645 545 687 418 687 C332 687 263 666 211 623 C164 585 144 546 123 450 L56 133 Z " />
<glyph glyph-name="agrave" unicode="&#xe0;" horiz-adv-x="615" d="M567 173 L507 173 L496 120 C489 88 477 74 456 74 C441 74 432 82 432 98 C432 106 433 113 434 120 L475 313 C482 345 486 373 486 387 C486 447 414 486 301 486 C222 486 159 471 111 441 C73 417 48 376 48 340 C48 305 76 282 120 282 C171 282 216 317 216 356 C216 384 201 398 167 402 C197 423 219 430 257 430 C313 430 347 406 347 367 C347 346 339 325 325 310 C304 288 276 276 210 264 C109 245 59 227 26 199 C-8 171 -28 129 -28 87 C-28 21 21 -18 105 -18 C173 -18 221 0 292 54 C307 2 334 -17 396 -17 C442 -17 478 -5 506 20 C532 44 545 71 557 127 L567 173 Z M303 169 C290 107 246 72 182 72 C149 72 129 88 129 115 C129 129 134 144 143 154 C162 177 175 184 247 209 C257 213 286 224 318 237 L303 169 Z M434 540 L330 683 C304 719 288 730 264 730 C230 730 199 700 199 667 C199 648 211 634 238 619 L379 540 L434 540 Z " />
<glyph glyph-name="aacute" unicode="&#xe1;" horiz-adv-x="615" d="M567 173 L507 173 L496 120 C489 88 477 74 456 74 C441 74 432 82 432 98 C432 106 433 113 434 120 L475 313 C482 345 486 373 486 387 C486 447 414 486 301 486 C222 486 159 471 111 441 C73 417 48 376 48 340 C48 305 76 282 120 282 C171 282 216 317 216 356 C216 384 201 398 167 402 C197 423 219 430 257 430 C313 430 347 406 347 367 C347 346 339 325 325 310 C304 288 276 276 210 264 C109 245 59 227 26 199 C-8 171 -28 129 -28 87 C-28 21 21 -18 105 -18 C173 -18 221 0 292 54 C307 2 334 -17 396 -17 C442 -17 478 -5 506 20 C532 44 545 71 557 127 L567 173 Z M303 169 C290 107 246 72 182 72 C149 72 129 88 129 115 C129 129 134 144 143 154 C162 177 175 184 247 209 C257 213 286 224 318 237 L303 169 Z M255 540 L310 540 L485 619 C530 639 549 659 549 688 C549 713 532 730 506 730 C482 730 462 719 421 683 L255 540 Z " />
<glyph glyph-name="acircumflex" unicode="&#xe2;" horiz-adv-x="615" d="M567 173 L507 173 L496 120 C489 88 477 74 456 74 C441 74 432 82 432 98 C432 106 433 113 434 120 L475 313 C482 345 486 373 486 387 C486 447 414 486 301 486 C222 486 159 471 111 441 C73 417 48 376 48 340 C48 305 76 282 120 282 C171 282 216 317 216 356 C216 384 201 398 167 402 C197 423 219 430 257 430 C313 430 347 406 347 367 C347 346 339 325 325 310 C304 288 276 276 210 264 C109 245 59 227 26 199 C-8 171 -28 129 -28 87 C-28 21 21 -18 105 -18 C173 -18 221 0 292 54 C307 2 334 -17 396 -17 C442 -17 478 -5 506 20 C532 44 545 71 557 127 L567 173 Z M303 169 C290 107 246 72 182 72 C149 72 129 88 129 115 C129 129 134 144 143 154 C162 177 175 184 247 209 C257 213 286 224 318 237 L303 169 Z M196 540 L245 540 L369 623 L459 540 L508 540 L435 719 L345 719 L196 540 Z " />
<glyph glyph-name="atilde" unicode="&#xe3;" horiz-adv-x="615" d="M567 173 L507 173 L496 120 C489 88 477 74 456 74 C441 74 432 82 432 98 C432 106 433 113 434 120 L475 313 C482 345 486 373 486 387 C486 447 414 486 301 486 C222 486 159 471 111 441 C73 417 48 376 48 340 C48 305 76 282 120 282 C171 282 216 317 216 356 C216 384 201 398 167 402 C197 423 219 430 257 430 C313 430 347 406 347 367 C347 346 339 325 325 310 C304 288 276 276 210 264 C109 245 59 227 26 199 C-8 171 -28 129 -28 87 C-28 21 21 -18 105 -18 C173 -18 221 0 292 54 C307 2 334 -17 396 -17 C442 -17 478 -5 506 20 C532 44 545 71 557 127 L567 173 Z M303 169 C290 107 246 72 182 72 C149 72 129 88 129 115 C129 129 134 144 143 154 C162 177 175 184 247 209 C257 213 286 224 318 237 L303 169 Z M214 540 C229 568 244 581 266 581 C274 581 283 579 295 576 L346 561 C356 558 366 557 376 557 C403 557 428 568 451 589 C474 610 487 630 507 678 L470 678 C452 647 440 638 418 638 C412 638 404 639 397 641 L344 656 C333 659 321 661 308 661 C251 661 215 628 177 540 L214 540 Z " />
<glyph glyph-name="adieresis" unicode="&#xe4;" horiz-adv-x="615" d="M567 173 L507 173 L496 120 C489 88 477 74 456 74 C441 74 432 82 432 98 C432 106 433 113 434 120 L475 313 C482 345 486 373 486 387 C486 447 414 486 301 486 C222 486 159 471 111 441 C73 417 48 376 48 340 C48 305 76 282 120 282 C171 282 216 317 216 356 C216 384 201 398 167 402 C197 423 219 430 257 430 C313 430 347 406 347 367 C347 346 339 325 325 310 C304 288 276 276 210 264 C109 245 59 227 26 199 C-8 171 -28 129 -28 87 C-28 21 21 -18 105 -18 C173 -18 221 0 292 54 C307 2 334 -17 396 -17 C442 -17 478 -5 506 20 C532 44 545 71 557 127 L567 173 Z M303 169 C290 107 246 72 182 72 C149 72 129 88 129 115 C129 129 134 144 143 154 C162 177 175 184 247 209 C257 213 286 224 318 237 L303 169 Z M294 699 C248 699 205 659 205 616 C205 582 228 560 263 560 C307 560 347 600 347 643 C347 675 324 699 294 699 L294 699 Z M492 699 C446 699 404 659 404 616 C404 583 427 560 460 560 C505 560 545 599 545 643 C545 675 522 699 492 699 L492 699 Z " />
<glyph glyph-name="aring" unicode="&#xe5;" horiz-adv-x="615" d="M567 173 L507 173 L496 120 C489 88 477 74 456 74 C441 74 432 82 432 98 C432 106 433 113 434 120 L475 313 C482 345 486 373 486 387 C486 447 414 486 301 486 C222 486 159 471 111 441 C73 417 48 376 48 340 C48 305 76 282 120 282 C171 282 216 317 216 356 C216 384 201 398 167 402 C197 423 219 430 257 430 C313 430 347 406 347 367 C347 346 339 325 325 310 C304 288 276 276 210 264 C109 245 59 227 26 199 C-8 171 -28 129 -28 87 C-28 21 21 -18 105 -18 C173 -18 221 0 292 54 C307 2 334 -17 396 -17 C442 -17 478 -5 506 20 C532 44 545 71 557 127 L567 173 Z M303 169 C290 107 246 72 182 72 C149 72 129 88 129 115 C129 129 134 144 143 154 C162 177 175 184 247 209 C257 213 286 224 318 237 L303 169 Z M370 777 C284 777 208 705 208 624 C208 561 249 519 310 519 C393 519 471 594 471 673 C471 733 428 777 370 777 L370 777 Z M353 707 C381 706 399 687 399 659 C399 623 364 589 326 589 C297 589 279 608 279 636 C279 674 316 709 353 707 L353 707 Z " />
<glyph glyph-name="ae" unicode="&#xe6;" horiz-adv-x="855" d="M672 161 C640 94 604 69 537 69 C478 69 446 99 446 157 C446 170 449 195 454 218 L797 218 C805 261 808 286 808 307 C808 416 734 486 617 486 C564 486 526 474 450 435 C392 476 361 486 295 486 C154 486 48 423 48 340 C48 305 76 282 119 282 C170 282 214 317 214 356 C214 384 199 398 165 402 C196 423 218 430 257 430 C317 430 355 405 355 366 C355 345 346 324 332 309 C310 287 282 277 209 263 C113 246 59 227 26 199 C-8 171 -28 129 -28 87 C-28 18 22 -20 113 -20 C196 -20 245 -1 328 64 C372 7 424 -17 506 -17 C583 -17 655 9 708 55 C739 83 755 108 774 161 L672 161 Z M312 169 C299 107 253 72 185 72 C149 72 129 88 129 116 C129 129 135 144 144 154 C163 178 176 184 252 209 C263 212 294 224 327 237 L312 169 Z M472 294 C483 337 491 356 508 375 C528 396 555 408 587 408 C633 408 660 384 660 342 C660 331 658 312 655 294 L472 294 Z " />
<glyph glyph-name="ccedilla" unicode="&#xe7;" horiz-adv-x="547" d="M205 -18 C349 -18 441 52 464 179 L371 179 C359 146 348 124 335 110 C312 84 277 69 240 69 C181 69 155 98 155 163 C155 224 172 293 199 338 C226 386 269 411 322 411 C356 411 374 404 404 379 C371 373 358 366 342 348 C329 332 322 313 322 295 C322 258 349 236 392 236 C458 236 509 289 509 357 C509 435 438 487 333 487 C144 487 -3 346 -3 166 C-3 67 57 2 164 -15 L146 -99 C159 -97 173 -95 180 -95 C206 -95 221 -106 221 -124 C221 -153 200 -171 166 -171 C132 -171 95 -158 52 -132 L17 -181 C93 -217 127 -227 176 -227 C254 -227 312 -180 312 -118 C312 -79 284 -53 241 -53 C229 -53 214 -54 197 -57 L205 -18 Z " />
<glyph glyph-name="egrave" unicode="&#xe8;" horiz-adv-x="568" d="M386 161 C354 94 318 69 251 69 C191 69 160 99 160 157 C160 170 163 195 168 218 L511 218 C519 261 522 287 522 306 C522 420 446 487 319 487 C232 487 149 453 91 394 C33 335 -3 247 -3 166 C-3 52 79 -18 213 -18 C296 -18 370 8 422 55 C454 84 469 108 488 161 L386 161 Z M187 294 C197 337 206 356 222 375 C242 396 269 408 301 408 C347 408 374 383 374 342 C374 331 372 312 369 294 L187 294 Z M410 540 L306 683 C280 719 264 730 240 730 C206 730 175 700 175 667 C175 648 187 634 214 619 L355 540 L410 540 Z " />
<glyph glyph-name="eacute" unicode="&#xe9;" horiz-adv-x="568" d="M386 161 C354 94 318 69 251 69 C191 69 160 99 160 157 C160 170 163 195 168 218 L511 218 C519 261 522 287 522 306 C522 420 446 487 319 487 C232 487 149 453 91 394 C33 335 -3 247 -3 166 C-3 52 79 -18 213 -18 C296 -18 370 8 422 55 C454 84 469 108 488 161 L386 161 Z M187 294 C197 337 206 356 222 375 C242 396 269 408 301 408 C347 408 374 383 374 342 C374 331 372 312 369 294 L187 294 Z M231 540 L286 540 L462 619 C506 639 525 659 525 688 C525 713 508 730 482 730 C458 730 438 719 397 683 L231 540 Z " />
<glyph glyph-name="ecircumflex" unicode="&#xea;" horiz-adv-x="568" d="M386 161 C354 94 318 69 251 69 C191 69 160 99 160 157 C160 170 163 195 168 218 L511 218 C519 261 522 287 522 306 C522 420 446 487 319 487 C232 487 149 453 91 394 C33 335 -3 247 -3 166 C-3 52 79 -18 213 -18 C296 -18 370 8 422 55 C454 84 469 108 488 161 L386 161 Z M187 294 C197 337 206 356 222 375 C242 396 269 408 301 408 C347 408 374 383 374 342 C374 331 372 312 369 294 L187 294 Z M172 540 L221 540 L345 623 L435 540 L484 540 L411 719 L321 719 L172 540 Z " />
<glyph glyph-name="edieresis" unicode="&#xeb;" horiz-adv-x="568" d="M386 161 C354 94 318 69 251 69 C191 69 160 99 160 157 C160 170 163 195 168 218 L511 218 C519 261 522 287 522 306 C522 420 446 487 319 487 C232 487 149 453 91 394 C33 335 -3 247 -3 166 C-3 52 79 -18 213 -18 C296 -18 370 8 422 55 C454 84 469 108 488 161 L386 161 Z M187 294 C197 337 206 356 222 375 C242 396 269 408 301 408 C347 408 374 383 374 342 C374 331 372 312 369 294 L187 294 Z M266 699 C220 699 177 659 177 616 C177 582 200 560 235 560 C279 560 319 600 319 643 C319 675 296 699 266 699 L266 699 Z M464 699 C419 699 376 659 376 617 C376 583 399 560 432 560 C477 560 517 599 517 643 C517 675 494 699 464 699 L464 699 Z " />
<glyph glyph-name="igrave" unicode="&#xec;" horiz-adv-x="370" d="M292 74 L259 74 C225 74 211 82 211 100 C211 107 213 120 216 133 L287 469 L55 469 L39 395 L70 395 C104 395 116 388 116 367 C116 357 115 346 113 336 L69 133 C57 83 49 76 2 74 L-29 74 L-45 0 L276 0 L292 74 Z M289 537 L230 676 C215 711 198 726 173 726 C143 726 117 701 117 671 C117 653 127 636 146 619 L242 537 L289 537 Z " />
<glyph glyph-name="iacute" unicode="&#xed;" horiz-adv-x="370" d="M129 537 L176 537 L307 619 C344 642 363 667 363 691 C363 712 348 726 325 726 C300 726 276 711 247 676 L129 537 Z M292 74 L259 74 C225 74 211 82 211 100 C211 107 213 120 216 133 L287 469 L55 469 L39 395 L70 395 C104 395 116 388 116 367 C116 357 115 346 113 336 L69 133 C57 83 49 76 2 74 L-29 74 L-45 0 L276 0 L292 74 Z " />
<glyph glyph-name="icircumflex" unicode="&#xee;" horiz-adv-x="363" d="M62 537 L108 537 L224 628 L302 537 L348 537 L288 717 L199 717 L62 537 Z M285 74 L252 74 C218 74 204 82 204 100 C204 107 206 120 209 133 L280 469 L48 469 L32 395 L63 395 C97 395 109 388 109 367 C109 357 108 346 106 336 L62 133 C51 83 43 76 -5 74 L-36 74 L-52 0 L269 0 L285 74 Z " />
<glyph glyph-name="idieresis" unicode="&#xef;" horiz-adv-x="367" d="M289 74 L256 74 C222 74 208 82 208 100 C208 107 210 120 213 133 L284 469 L52 469 L36 395 L67 395 C101 395 113 388 113 367 C113 357 112 346 110 336 L66 133 C55 83 47 76 -1 74 L-32 74 L-48 0 L273 0 L289 74 Z M156 699 C111 699 68 659 68 617 C68 582 91 560 126 560 C169 560 209 600 209 643 C209 675 187 699 156 699 L156 699 Z M344 699 C299 699 256 659 256 617 C256 582 279 560 314 560 C357 560 397 600 397 643 C397 675 375 699 344 699 L344 699 Z " />
<glyph glyph-name="eth" unicode="&#xf0;" horiz-adv-x="624" d="M290 667 C303 646 307 637 324 604 L240 574 L256 517 L347 551 C355 534 356 533 371 498 C374 491 376 485 379 479 C359 483 345 485 325 485 C243 485 158 449 96 390 C39 334 6 255 6 174 C6 56 96 -17 241 -17 C436 -17 583 118 583 296 C583 379 558 432 447 588 L530 617 L515 673 L411 638 L386 667 L290 667 Z M332 410 C394 410 428 376 428 313 C428 253 409 179 383 134 C354 85 312 60 257 60 C195 60 161 94 161 157 C161 218 179 290 206 336 C235 385 277 410 332 410 L332 410 Z " />
<glyph glyph-name="ntilde" unicode="&#xf1;" horiz-adv-x="688" d="M294 0 L598 0 L614 74 L591 74 C552 74 536 82 536 102 C536 108 537 117 541 133 L579 311 C585 342 589 371 589 391 C589 448 540 484 461 484 C392 484 350 463 265 385 L283 469 L50 469 L34 395 L66 395 C101 395 114 388 114 366 C114 357 113 346 111 336 L67 133 C55 83 47 76 -3 74 L-34 74 L-50 0 L257 0 L273 74 L254 74 C219 74 205 81 205 100 C205 107 206 116 210 133 L240 272 C256 349 314 401 382 401 C419 401 444 381 443 354 C443 345 440 330 436 309 L398 133 C387 83 379 76 329 74 L310 74 L294 0 Z M275 540 C289 568 305 581 326 581 C334 581 344 579 355 576 L407 561 C417 558 427 557 437 557 C463 557 489 568 512 589 C535 610 547 630 568 678 L530 678 C513 647 501 638 479 638 C473 638 465 639 458 641 L405 656 C393 659 382 661 369 661 C312 661 275 628 237 540 L275 540 Z " />
<glyph glyph-name="ograve" unicode="&#xf2;" horiz-adv-x="620" d="M437 540 L332 683 C307 719 291 730 267 730 C232 730 201 700 201 667 C201 648 212 634 240 619 L382 540 L437 540 Z M344 486 C148 486 1 352 1 174 C1 56 91 -17 236 -17 C431 -17 578 117 578 295 C578 412 488 486 344 486 L344 486 Z M327 409 C389 409 423 375 423 312 C423 252 404 178 378 133 C349 85 307 60 252 60 C190 60 156 94 156 157 C156 218 174 289 201 336 C230 384 272 409 327 409 L327 409 Z " />
<glyph glyph-name="oacute" unicode="&#xf3;" horiz-adv-x="620" d="M258 540 L313 540 L488 619 C533 639 552 659 552 688 C552 713 535 730 509 730 C485 730 464 719 423 683 L258 540 Z M344 486 C148 486 1 352 1 174 C1 56 91 -17 236 -17 C431 -17 578 117 578 295 C578 412 488 486 344 486 L344 486 Z M327 409 C389 409 423 375 423 312 C423 252 404 178 378 133 C349 85 307 60 252 60 C190 60 156 94 156 157 C156 218 174 289 201 336 C230 384 272 409 327 409 L327 409 Z " />
<glyph glyph-name="ocircumflex" unicode="&#xf4;" horiz-adv-x="620" d="M199 540 L248 540 L372 623 L462 540 L510 540 L438 719 L348 719 L199 540 Z M344 486 C148 486 1 352 1 174 C1 56 91 -17 236 -17 C431 -17 578 117 578 295 C578 412 488 486 344 486 L344 486 Z M327 409 C389 409 423 375 423 312 C423 252 404 178 378 133 C349 85 307 60 252 60 C190 60 156 94 156 157 C156 218 174 289 201 336 C230 384 272 409 327 409 L327 409 Z " />
<glyph glyph-name="otilde" unicode="&#xf5;" horiz-adv-x="620" d="M241 540 C256 568 272 581 293 581 C301 581 311 579 322 576 L373 561 C383 558 394 557 403 557 C430 557 455 568 478 589 C501 610 514 630 535 678 L497 678 C480 647 468 638 445 638 C440 638 432 639 425 641 L371 656 C360 659 348 661 336 661 C278 661 242 628 204 540 L241 540 Z M344 486 C148 486 1 352 1 174 C1 56 91 -17 236 -17 C431 -17 578 117 578 295 C578 412 488 486 344 486 L344 486 Z M327 409 C389 409 423 375 423 312 C423 252 404 178 378 133 C349 85 307 60 252 60 C190 60 156 94 156 157 C156 218 174 289 201 336 C230 384 272 409 327 409 L327 409 Z " />
<glyph glyph-name="odieresis" unicode="&#xf6;" horiz-adv-x="620" d="M289 699 C243 699 200 659 200 617 C200 583 223 560 256 560 C301 560 342 599 342 643 C342 675 319 699 289 699 L289 699 Z M487 699 C441 699 398 659 398 617 C398 583 421 560 454 560 C499 560 540 599 540 643 C540 675 517 699 487 699 L487 699 Z M344 486 C148 486 1 352 1 174 C1 56 91 -17 236 -17 C431 -17 578 117 578 295 C578 412 488 486 344 486 L344 486 Z M327 409 C389 409 423 375 423 312 C423 252 404 178 378 133 C349 85 307 60 252 60 C190 60 156 94 156 157 C156 218 174 289 201 336 C230 384 272 409 327 409 L327 409 Z " />
<glyph glyph-name="divide" unicode="&#xf7;" horiz-adv-x="549" d="M273 126 C239 126 211 99 211 64 C211 30 238 2 273 2 C306 2 334 30 334 64 C334 98 306 126 273 126 L273 126 Z M273 525 C239 525 211 498 211 463 C211 429 238 401 273 401 C306 401 334 429 334 463 C334 497 306 525 273 525 L273 525 Z M10 294 L10 239 L536 239 L536 294 L10 294 Z " />
<glyph glyph-name="oslash" unicode="&#xf8;" horiz-adv-x="620" d="M574 504 L500 445 C458 473 409 486 342 486 C148 486 1 352 1 175 C1 133 10 103 32 70 L-43 10 L-8 -38 L73 27 C114 -3 167 -17 236 -17 C430 -17 577 117 577 294 C577 338 567 369 543 403 L616 461 L574 504 Z M156 170 C158 218 169 266 189 311 C216 376 263 409 326 409 C365 409 392 397 408 371 L156 170 Z M422 306 C420 253 409 204 389 158 C362 93 315 60 252 60 C210 60 183 74 167 102 L422 306 Z " />
<glyph glyph-name="ugrave" unicode="&#xf9;" horiz-adv-x="688" d="M34 395 L52 395 C86 395 101 387 101 369 C101 362 99 350 96 336 L58 156 C52 126 48 97 48 77 C48 19 98 -17 177 -17 C249 -17 298 6 374 76 L358 0 L597 0 L613 74 L578 74 C542 74 527 82 527 101 C527 107 529 117 532 133 L603 469 L382 469 L366 395 L393 395 C423 395 437 388 437 370 C437 363 436 354 432 336 L402 195 C385 118 327 66 257 66 C220 66 195 85 195 114 C195 124 197 141 201 158 L267 469 L50 469 L34 395 Z M470 540 L366 683 C340 719 324 730 300 730 C266 730 235 700 235 667 C235 648 247 634 274 619 L415 540 L470 540 Z " />
<glyph glyph-name="uacute" unicode="&#xfa;" horiz-adv-x="688" d="M34 395 L52 395 C86 395 101 387 101 369 C101 362 99 350 96 336 L58 156 C52 126 48 97 48 77 C48 19 98 -17 177 -17 C249 -17 298 6 374 76 L358 0 L597 0 L613 74 L578 74 C542 74 527 82 527 101 C527 107 529 117 532 133 L603 469 L382 469 L366 395 L393 395 C423 395 437 388 437 370 C437 363 436 354 432 336 L402 195 C385 118 327 66 257 66 C220 66 195 85 195 114 C195 124 197 141 201 158 L267 469 L50 469 L34 395 Z M292 540 L347 540 L522 619 C566 639 585 659 585 688 C585 713 568 730 542 730 C518 730 498 719 457 683 L292 540 Z " />
<glyph glyph-name="ucircumflex" unicode="&#xfb;" horiz-adv-x="688" d="M34 395 L52 395 C86 395 101 387 101 369 C101 362 99 350 96 336 L58 156 C52 126 48 97 48 77 C48 19 98 -17 177 -17 C249 -17 298 6 374 76 L358 0 L597 0 L613 74 L578 74 C542 74 527 82 527 101 C527 107 529 117 532 133 L603 469 L382 469 L366 395 L393 395 C423 395 437 388 437 370 C437 363 436 354 432 336 L402 195 C385 118 327 66 257 66 C220 66 195 85 195 114 C195 124 197 141 201 158 L267 469 L50 469 L34 395 Z M232 540 L281 540 L405 623 L495 540 L544 540 L471 719 L381 719 L232 540 Z " />
<glyph glyph-name="udieresis" unicode="&#xfc;" horiz-adv-x="688" d="M34 395 L52 395 C86 395 101 387 101 369 C101 362 99 350 96 336 L58 156 C52 126 48 97 48 77 C48 19 98 -17 177 -17 C249 -17 298 6 374 76 L358 0 L597 0 L613 74 L578 74 C542 74 527 82 527 101 C527 107 529 117 532 133 L603 469 L382 469 L366 395 L393 395 C423 395 437 388 437 370 C437 363 436 354 432 336 L402 195 C385 118 327 66 257 66 C220 66 195 85 195 114 C195 124 197 141 201 158 L267 469 L50 469 L34 395 Z M325 699 C279 699 236 659 236 617 C236 583 259 560 292 560 C337 560 378 599 378 643 C378 675 355 699 325 699 L325 699 Z M523 699 C477 699 435 659 435 616 C435 582 458 560 493 560 C536 560 576 600 576 643 C576 675 554 699 523 699 L523 699 Z " />
<glyph glyph-name="yacute" unicode="&#xfd;" horiz-adv-x="594" d="M498 326 C536 386 550 395 605 396 L621 469 L385 469 L369 396 L390 396 C416 396 431 390 431 379 C431 372 425 358 412 338 L293 152 L248 343 C247 349 246 355 246 359 C246 387 259 396 296 396 L319 396 L335 469 L30 469 L14 396 C73 395 83 387 98 327 L180 -16 C143 -80 122 -107 90 -130 C70 -144 44 -154 25 -154 C7 -154 -4 -148 -22 -130 C20 -129 39 -122 58 -101 C72 -86 79 -68 79 -49 C79 -17 54 3 12 3 C-49 3 -98 -49 -98 -116 C-98 -177 -51 -216 22 -216 C111 -216 184 -162 264 -38 L498 326 Z M245 540 L300 540 L475 619 C520 639 539 659 539 688 C539 713 522 730 496 730 C472 730 451 719 410 683 L245 540 Z " />
<glyph glyph-name="thorn" unicode="&#xfe;" horiz-adv-x="666" d="M321 667 L89 667 L73 593 L105 593 C141 593 155 585 154 564 C154 554 152 544 150 534 L19 -81 C9 -131 1 -138 -50 -140 L-75 -140 L-91 -214 L232 -214 L248 -140 L223 -140 C177 -140 159 -132 159 -110 C159 -103 161 -91 163 -81 L196 78 C208 44 218 25 234 12 C257 -6 294 -17 337 -17 C417 -17 486 17 535 83 C579 142 608 233 608 317 C608 423 550 484 450 484 C393 484 339 463 297 423 C286 413 280 407 261 387 L321 667 Z M370 400 C426 400 450 373 450 310 C450 258 435 193 412 147 C386 96 353 73 302 73 C250 73 218 105 218 157 C218 208 241 300 263 334 C291 377 327 400 370 400 L370 400 Z " />
<glyph glyph-name="ydieresis" unicode="&#xff;" horiz-adv-x="594" d="M498 326 C536 386 550 395 605 396 L621 469 L385 469 L369 396 L390 396 C416 396 431 390 431 379 C431 372 425 358 412 338 L293 152 L248 343 C247 349 246 355 246 359 C246 387 259 396 296 396 L319 396 L335 469 L30 469 L14 396 C73 395 83 387 98 327 L180 -16 C143 -80 122 -107 90 -130 C70 -144 44 -154 25 -154 C7 -154 -4 -148 -22 -130 C20 -129 39 -122 58 -101 C72 -86 79 -68 79 -49 C79 -17 54 3 12 3 C-49 3 -98 -49 -98 -116 C-98 -177 -51 -216 22 -216 C111 -216 184 -162 264 -38 L498 326 Z M279 699 C234 699 191 659 191 617 C191 582 214 560 249 560 C292 560 332 600 332 643 C332 675 310 699 279 699 L279 699 Z M478 699 C432 699 389 659 389 617 C389 582 412 560 447 560 C491 560 531 600 531 643 C531 675 508 699 478 699 L478 699 Z " />
<glyph glyph-name="Amacron" unicode="&#x100;" horiz-adv-x="740" d="M698 82 L672 82 C621 81 615 88 604 149 L527 667 L348 667 L55 153 C28 101 6 85 -40 82 L-75 82 L-92 0 L223 0 L241 82 L196 82 C161 82 149 87 149 101 C149 111 154 125 164 142 L205 214 L419 214 L431 145 C432 137 433 128 433 124 C433 91 418 82 362 82 L324 82 L306 0 L681 0 L698 82 Z M408 297 L253 297 L376 512 L408 297 Z M302 750 L591 750 L608 829 L319 829 L302 750 Z " />
<glyph glyph-name="amacron" unicode="&#x101;" horiz-adv-x="615" d="M567 173 L507 173 L496 120 C489 88 477 74 456 74 C441 74 432 82 432 98 C432 106 433 113 434 120 L475 313 C482 345 486 373 486 387 C486 447 414 486 301 486 C222 486 159 471 111 441 C73 417 48 376 48 340 C48 305 76 282 120 282 C171 282 216 317 216 356 C216 384 201 398 167 402 C197 423 219 430 257 430 C313 430 347 406 347 367 C347 346 339 325 325 310 C304 288 276 276 210 264 C109 245 59 227 26 199 C-8 171 -28 129 -28 87 C-28 21 21 -18 105 -18 C173 -18 221 0 292 54 C307 2 334 -17 396 -17 C442 -17 478 -5 506 20 C532 44 545 71 557 127 L567 173 Z M303 169 C290 107 246 72 182 72 C149 72 129 88 129 115 C129 129 134 144 143 154 C162 177 175 184 247 209 C257 213 286 224 318 237 L303 169 Z M179 588 L476 588 L494 670 L196 670 L179 588 Z " />
<glyph glyph-name="Abreve" unicode="&#x102;" horiz-adv-x="740" d="M698 82 L672 82 C621 81 615 88 604 149 L527 667 L348 667 L55 153 C28 101 6 85 -40 82 L-75 82 L-92 0 L223 0 L241 82 L196 82 C161 82 149 87 149 101 C149 111 154 125 164 142 L205 214 L419 214 L431 145 C432 137 433 128 433 124 C433 91 418 82 362 82 L324 82 L306 0 L681 0 L698 82 Z M408 297 L253 297 L376 512 L408 297 Z M325 858 C325 809 331 786 348 764 C370 736 407 720 452 720 C497 720 543 736 576 764 C603 786 617 808 638 858 L593 858 C569 820 537 806 471 806 C404 806 378 819 370 858 L325 858 Z " />
<glyph glyph-name="abreve" unicode="&#x103;" horiz-adv-x="615" d="M567 173 L507 173 L496 120 C489 88 477 74 456 74 C441 74 432 82 432 98 C432 106 433 113 434 120 L475 313 C482 345 486 373 486 387 C486 447 414 486 301 486 C222 486 159 471 111 441 C73 417 48 376 48 340 C48 305 76 282 120 282 C171 282 216 317 216 356 C216 384 201 398 167 402 C197 423 219 430 257 430 C313 430 347 406 347 367 C347 346 339 325 325 310 C304 288 276 276 210 264 C109 245 59 227 26 199 C-8 171 -28 129 -28 87 C-28 21 21 -18 105 -18 C173 -18 221 0 292 54 C307 2 334 -17 396 -17 C442 -17 478 -5 506 20 C532 44 545 71 557 127 L567 173 Z M303 169 C290 107 246 72 182 72 C149 72 129 88 129 115 C129 129 134 144 143 154 C162 177 175 184 247 209 C257 213 286 224 318 237 L303 169 Z M208 704 C208 665 210 645 215 629 C231 583 275 555 333 555 C379 555 425 572 458 600 C486 624 501 648 524 704 L479 704 C453 658 423 644 354 644 C284 644 260 658 253 704 L208 704 Z " />
<glyph glyph-name="Aogonek" unicode="&#x104;" horiz-adv-x="740" d="M681 0 L698 82 L672 82 C621 81 615 88 604 149 L527 667 L348 667 L55 153 C28 101 6 85 -40 82 L-75 82 L-92 0 L223 0 L241 82 L196 82 C160 82 149 86 149 101 C149 111 154 125 164 142 L205 214 L419 214 L431 145 C432 137 433 128 433 123 C433 91 418 82 362 82 L324 82 L306 0 L612 0 C512 -52 455 -115 455 -170 C455 -206 482 -227 531 -227 C583 -227 625 -200 669 -140 L654 -130 C622 -159 613 -164 589 -164 C564 -164 552 -152 552 -129 C552 -87 585 -43 648 0 L681 0 Z M408 297 L253 297 L376 512 L408 297 Z " />
<glyph glyph-name="aogonek" unicode="&#x105;" horiz-adv-x="615" d="M567 173 L507 173 L496 120 C489 88 477 74 457 74 C441 74 432 82 432 98 C432 106 433 113 434 120 L475 313 C482 345 486 372 486 387 C486 447 414 486 301 486 C222 486 159 471 111 441 C74 417 48 375 48 340 C48 305 77 282 120 282 C171 282 216 317 216 356 C216 384 201 398 167 402 C197 423 219 430 257 430 C313 430 347 406 347 367 C347 346 339 325 325 310 C304 288 276 277 210 264 C109 245 59 227 26 200 C-8 171 -28 129 -28 87 C-28 20 21 -18 106 -18 C173 -18 221 1 292 54 C305 3 329 -14 391 -17 C307 -70 266 -120 266 -170 C266 -206 293 -227 340 -227 C392 -227 435 -200 478 -140 L462 -130 C431 -159 422 -164 397 -164 C372 -164 360 -152 360 -129 C360 -87 397 -38 451 -10 C529 29 535 37 557 127 L567 173 Z M303 169 C290 107 246 72 182 72 C149 72 129 88 129 115 C129 129 134 144 143 154 C162 177 175 184 247 209 C257 213 286 224 318 237 L303 169 Z " />
<glyph glyph-name="Cacute" unicode="&#x106;" horiz-adv-x="751" d="M588 258 C568 194 553 167 524 136 C484 93 427 69 366 69 C271 69 211 132 211 231 C211 312 238 415 274 474 C323 555 396 599 480 599 C571 599 628 543 628 454 C628 442 627 423 626 404 L715 404 L773 675 L689 675 L658 621 C586 673 546 687 471 687 C232 687 28 487 28 252 C28 179 50 118 93 70 C147 10 224 -19 330 -19 C446 -19 525 11 594 79 C639 125 660 165 687 258 L588 258 Z M420 721 L568 772 C602 784 623 807 623 831 C623 852 608 868 586 868 C570 868 555 861 529 842 L366 721 L420 721 Z " />
<glyph glyph-name="cacute" unicode="&#x107;" horiz-adv-x="547" d="M372 179 C359 146 348 124 336 110 C313 84 278 69 240 69 C182 69 155 98 155 163 C155 224 172 293 199 338 C226 386 270 411 323 411 C356 411 374 404 404 379 C372 373 359 366 343 348 C330 332 323 313 323 295 C323 258 350 236 392 236 C458 236 510 289 510 357 C510 435 439 487 333 487 C144 487 -3 346 -3 165 C-3 52 79 -18 211 -18 C292 -18 360 8 406 57 C436 88 450 116 464 179 L372 179 Z M221 540 L276 540 L451 619 C496 639 515 659 515 688 C515 713 498 730 472 730 C448 730 427 719 386 683 L221 540 Z " />
<glyph glyph-name="Ccaron" unicode="&#x10c;" horiz-adv-x="751" d="M588 258 C568 194 553 167 524 136 C484 93 427 69 366 69 C271 69 211 132 211 231 C211 312 238 415 274 474 C323 555 396 599 480 599 C571 599 628 543 628 454 C628 442 627 423 626 404 L715 404 L773 675 L689 675 L658 621 C586 673 546 687 471 687 C232 687 28 487 28 252 C28 179 50 118 93 70 C147 10 224 -19 330 -19 C446 -19 525 11 594 79 C639 125 660 165 687 258 L588 258 Z M333 858 L400 720 L516 720 L641 858 L595 858 L475 803 L380 858 L333 858 Z " />
<glyph glyph-name="ccaron" unicode="&#x10d;" horiz-adv-x="548" d="M372 179 C359 146 348 124 336 110 C313 84 278 69 240 69 C182 69 155 98 155 163 C155 224 172 293 199 338 C226 386 270 411 323 411 C356 411 374 404 404 379 C372 373 359 366 343 348 C330 332 323 313 323 295 C323 258 350 236 392 236 C458 236 510 289 510 357 C510 435 439 487 333 487 C144 487 -3 346 -3 165 C-3 52 79 -18 211 -18 C292 -18 360 8 406 57 C436 88 450 116 464 179 L372 179 Z M511 719 L463 719 L338 636 L249 719 L200 719 L273 540 L362 540 L511 719 Z " />
<glyph glyph-name="Dcaron" unicode="&#x10e;" horiz-adv-x="839" d="M-50 0 L313 0 C484 0 587 31 674 108 C757 183 808 303 808 425 C808 498 785 554 739 595 C679 647 600 667 454 667 L92 667 L74 586 L116 586 C166 586 178 581 178 558 C178 552 176 540 173 524 L92 144 C81 89 71 82 9 82 L-33 82 L-50 0 Z M242 83 L349 585 L435 585 C567 585 623 540 623 436 C623 354 598 258 560 194 C516 118 442 83 328 83 L242 83 Z M243 858 L310 720 L426 720 L552 858 L505 858 L386 803 L290 858 L243 858 Z " />
<glyph glyph-name="dcaron" unicode="&#x10f;" horiz-adv-x="647" d="M406 394 C377 460 342 483 266 483 C186 483 118 449 69 384 C24 323 -4 232 -4 147 C-4 42 53 -17 155 -17 C195 -17 235 -7 268 12 C292 25 308 40 336 75 L320 0 L559 0 L573 70 L539 70 C504 70 489 78 489 97 C489 105 491 117 493 129 L607 667 L378 667 L363 593 L381 593 C423 593 440 585 440 564 C440 557 438 545 436 534 L406 394 Z M300 393 C351 393 382 361 382 310 C382 259 358 166 337 132 C309 88 274 66 232 66 C178 66 154 93 154 155 C154 206 170 273 192 319 C217 370 251 393 300 393 L300 393 Z M619 440 C667 446 698 459 726 485 C760 517 782 564 782 605 C782 641 755 667 715 667 C671 667 634 632 634 590 C634 563 651 548 682 548 C690 548 697 549 712 553 C696 509 673 490 629 484 L619 440 Z " />
<glyph glyph-name="Dcroat" unicode="&#x110;" horiz-adv-x="850" d="M-47 0 L316 0 C488 0 590 31 677 108 C760 183 811 302 811 424 C811 498 788 554 742 595 C683 647 603 667 458 667 L95 667 L77 586 L119 586 C169 586 180 581 180 558 C180 552 178 541 175 524 L144 381 L10 381 L-6 305 L128 305 L94 143 C82 89 73 82 12 82 L-30 82 L-47 0 Z M244 83 L292 305 L447 305 L463 381 L308 381 L351 585 L439 585 C570 585 626 540 626 435 C626 353 601 258 563 193 C519 118 446 83 332 83 L244 83 Z " />
<glyph glyph-name="dcroat" unicode="&#x111;" horiz-adv-x="647" d="M430 506 L406 394 C377 460 341 483 266 483 C186 483 118 449 69 383 C24 323 -4 232 -4 146 C-4 42 54 -17 155 -17 C195 -17 235 -7 268 12 C292 25 308 40 336 75 L320 0 L559 0 L573 70 L539 70 C503 70 489 78 489 98 C489 105 491 117 493 129 L573 506 L642 506 L656 575 L588 575 L607 667 L378 667 L363 593 L381 593 C415 593 436 586 439 575 L281 575 L268 506 L430 506 Z M300 393 C351 393 382 361 382 310 C382 259 358 166 337 132 C309 88 274 66 232 66 C178 66 154 93 154 155 C154 206 170 273 192 319 C217 370 251 393 300 393 L300 393 Z " />
<glyph glyph-name="Emacron" unicode="&#x112;" horiz-adv-x="782" d="M782 667 L92 667 L74 585 L116 585 C166 585 177 580 177 557 C177 551 175 541 172 524 L91 143 C79 89 70 81 9 82 L-33 82 L-50 0 L639 0 L699 279 L612 279 C565 115 521 79 371 82 L241 82 L289 306 L328 306 C387 306 410 291 410 251 C410 242 408 226 405 213 L398 182 L484 182 L552 500 L467 500 C443 405 428 390 346 389 L306 389 L348 585 L490 585 C565 585 597 579 618 563 C637 546 647 519 647 478 C647 465 645 434 642 408 L727 408 L782 667 Z M335 750 L624 750 L641 829 L352 829 L335 750 Z " />
<glyph glyph-name="emacron" unicode="&#x113;" horiz-adv-x="568" d="M386 161 C354 94 318 69 251 69 C191 69 160 99 160 157 C160 170 163 195 168 218 L511 218 C519 261 522 287 522 306 C522 420 446 487 319 487 C232 487 149 453 91 394 C33 335 -3 247 -3 166 C-3 52 79 -18 213 -18 C296 -18 370 8 422 55 C454 84 469 108 488 161 L386 161 Z M187 294 C197 337 206 356 222 375 C242 396 269 408 301 408 C347 408 374 383 374 342 C374 331 372 312 369 294 L187 294 Z M190 588 L487 588 L504 670 L207 670 L190 588 Z " />
<glyph glyph-name="Edotaccent" unicode="&#x116;" horiz-adv-x="782" d="M782 667 L92 667 L74 585 L116 585 C166 585 177 580 177 557 C177 551 175 541 172 524 L91 143 C79 89 70 81 9 82 L-33 82 L-50 0 L639 0 L699 279 L612 279 C565 115 521 79 371 82 L241 82 L289 306 L328 306 C387 306 410 291 410 251 C410 242 408 226 405 213 L398 182 L484 182 L552 500 L467 500 C443 405 428 390 346 389 L306 389 L348 585 L490 585 C565 585 597 579 618 563 C637 546 647 519 647 478 C647 465 645 434 642 408 L727 408 L782 667 Z M467 862 C422 862 379 821 379 779 C379 745 402 721 434 721 C479 721 522 762 522 804 C522 836 498 862 467 862 L467 862 Z " />
<glyph glyph-name="edotaccent" unicode="&#x117;" horiz-adv-x="568" d="M386 161 C354 94 318 69 251 69 C191 69 160 99 160 157 C160 170 163 195 168 218 L511 218 C519 261 522 287 522 306 C522 420 446 487 319 487 C232 487 149 453 91 394 C33 335 -3 247 -3 166 C-3 52 79 -18 213 -18 C296 -18 370 8 422 55 C454 84 469 108 488 161 L386 161 Z M187 294 C197 337 206 356 222 375 C242 396 269 408 301 408 C347 408 374 383 374 342 C374 331 372 312 369 294 L187 294 Z M366 702 C319 702 274 660 274 617 C274 581 298 557 334 557 C379 557 421 599 421 643 C421 677 398 702 366 702 L366 702 Z " />
<glyph glyph-name="Eogonek" unicode="&#x118;" horiz-adv-x="782" d="M639 0 L699 279 L612 279 C565 115 521 79 371 82 L241 82 L289 306 L328 306 C387 306 410 291 410 251 C410 242 408 226 405 213 L398 182 L484 182 L552 500 L467 500 C443 405 428 390 346 389 L306 389 L348 585 L490 585 C565 585 597 579 618 563 C637 546 647 519 647 478 C647 465 645 434 642 408 L727 408 L782 667 L92 667 L74 585 L116 585 C165 585 178 579 177 558 C177 550 175 538 172 524 L91 143 C79 89 70 81 9 82 L-33 82 L-50 0 L571 0 C471 -53 414 -115 414 -170 C414 -206 441 -227 490 -227 C542 -227 584 -201 628 -140 L613 -130 C581 -159 572 -164 548 -164 C523 -164 511 -152 511 -129 C511 -87 544 -44 607 0 L639 0 Z " />
<glyph glyph-name="eogonek" unicode="&#x119;" horiz-adv-x="568" d="M386 161 C354 94 318 69 251 69 C191 69 160 99 160 157 C160 170 163 195 168 218 L511 218 C519 263 522 286 522 309 C522 420 445 487 319 487 C140 487 -3 344 -3 165 C-3 51 79 -18 214 -18 C228 -18 237 -17 247 -16 C161 -70 120 -120 120 -170 C120 -206 147 -227 194 -227 C246 -227 289 -200 332 -140 L316 -130 C285 -159 276 -164 252 -164 C227 -164 215 -152 215 -129 C215 -79 252 -38 333 2 C437 55 457 76 488 161 L386 161 Z M187 294 C197 337 206 356 222 375 C242 396 269 408 301 408 C347 408 374 383 374 342 C374 331 372 312 369 294 L187 294 Z " />
<glyph glyph-name="Ecaron" unicode="&#x11a;" horiz-adv-x="782" d="M782 667 L92 667 L74 585 L116 585 C166 585 177 580 177 557 C177 551 175 541 172 524 L91 143 C79 89 70 81 9 82 L-33 82 L-50 0 L639 0 L699 279 L612 279 C565 115 521 79 371 82 L241 82 L289 306 L328 306 C387 306 410 291 410 251 C410 242 408 226 405 213 L398 182 L484 182 L552 500 L467 500 C443 405 428 390 346 389 L306 389 L348 585 L490 585 C565 585 597 579 618 563 C637 546 647 519 647 478 C647 465 645 434 642 408 L727 408 L782 667 Z M321 858 L388 720 L504 720 L629 858 L583 858 L463 803 L368 858 L321 858 Z " />
<glyph glyph-name="ecaron" unicode="&#x11b;" horiz-adv-x="568" d="M386 161 C354 94 318 69 251 69 C191 69 160 99 160 157 C160 170 163 195 168 218 L511 218 C519 261 522 287 522 306 C522 420 446 487 319 487 C232 487 149 453 91 394 C33 335 -3 247 -3 166 C-3 52 79 -18 213 -18 C296 -18 370 8 422 55 C454 84 469 108 488 161 L386 161 Z M187 294 C197 337 206 356 222 375 C242 396 269 408 301 408 C347 408 374 383 374 342 C374 331 372 312 369 294 L187 294 Z M522 719 L473 719 L349 636 L259 719 L210 719 L283 540 L373 540 L522 719 Z " />
<glyph glyph-name="Gbreve" unicode="&#x11e;" horiz-adv-x="824" d="M788 273 L805 354 L439 354 L422 273 L481 273 C521 273 533 268 533 251 C533 247 531 236 528 222 L517 168 C509 133 503 121 484 105 C454 82 413 69 368 69 C273 69 211 133 211 233 C211 312 238 415 274 474 C324 555 397 599 481 599 C573 599 630 543 630 453 C630 443 629 422 628 404 L715 404 L773 675 L690 675 L660 621 C588 673 548 687 472 687 C231 687 27 486 27 248 C27 82 138 -20 319 -20 C400 -20 451 -5 542 47 L567 -7 L642 -7 L692 229 C701 264 712 273 750 273 L788 273 Z M367 858 C367 809 372 786 390 764 C412 736 449 720 493 720 C539 720 585 736 618 764 C645 786 659 808 680 858 L635 858 C611 820 579 806 513 806 C446 806 420 819 412 858 L367 858 Z " />
<glyph glyph-name="gbreve" unicode="&#x11f;" horiz-adv-x="668" d="M82 165 C2 134 -28 101 -28 47 C-28 12 -11 -8 36 -27 C-9 -38 -27 -46 -46 -63 C-64 -79 -75 -102 -75 -124 C-75 -185 3 -214 166 -214 C268 -214 350 -201 402 -176 C464 -146 504 -88 504 -28 C504 9 484 39 449 55 C416 70 388 74 329 74 C317 74 296 74 275 73 C242 72 221 72 213 72 C103 72 87 75 87 99 C87 116 98 127 128 139 C173 123 193 119 229 119 C395 119 507 208 507 338 C507 366 504 378 491 404 C524 428 545 439 559 439 C567 439 579 435 593 428 C560 415 540 390 540 362 C540 335 563 316 596 316 C646 316 684 356 684 407 C684 454 646 484 587 484 C549 484 522 474 469 440 C419 475 383 486 316 486 C159 486 42 394 42 269 C42 229 52 203 82 165 L82 165 Z M302 420 C348 420 364 404 364 359 C364 330 357 291 346 258 C327 202 299 180 246 180 C204 180 184 202 184 248 C184 281 198 336 214 367 C233 404 259 420 302 420 L302 420 Z M221 -46 C265 -46 309 -50 334 -56 C353 -61 361 -70 361 -87 C361 -132 309 -152 193 -152 C95 -152 56 -139 56 -106 C56 -83 70 -65 92 -58 C117 -50 166 -46 221 -46 L221 -46 Z M206 704 C206 665 208 645 214 629 C230 583 273 555 332 555 C378 555 424 572 457 600 C484 624 499 648 522 704 L477 704 C451 658 421 644 353 644 C283 644 259 658 251 704 L206 704 Z " />
<glyph glyph-name="Gcommaaccent" unicode="&#x122;" horiz-adv-x="824" d="M788 273 L805 354 L439 354 L422 273 L481 273 C521 273 533 268 533 251 C533 247 531 236 528 222 L517 168 C509 133 503 121 484 105 C454 82 413 69 368 69 C273 69 211 133 211 233 C211 312 238 415 274 474 C324 555 397 599 481 599 C573 599 630 543 630 453 C630 443 629 422 628 404 L715 404 L773 675 L690 675 L660 621 C588 673 548 687 472 687 C231 687 27 486 27 248 C27 82 138 -20 319 -20 C400 -20 451 -5 542 47 L567 -7 L642 -7 L692 229 C701 264 712 273 750 273 L788 273 Z M225 -281 C272 -276 303 -263 331 -236 C365 -204 387 -157 387 -116 C387 -80 360 -54 321 -54 C276 -54 239 -89 239 -132 C239 -158 256 -173 287 -173 C296 -173 303 -172 317 -168 C301 -212 278 -231 234 -237 L225 -281 Z " />
<glyph glyph-name="gcommaaccent" unicode="&#x123;" horiz-adv-x="668" d="M82 165 C2 134 -28 101 -28 47 C-28 12 -11 -8 36 -27 C-9 -38 -27 -46 -46 -63 C-64 -79 -75 -102 -75 -124 C-75 -185 3 -214 166 -214 C268 -214 350 -201 402 -176 C464 -146 504 -88 504 -28 C504 9 484 39 449 55 C416 70 388 74 329 74 C317 74 296 74 275 73 C242 72 221 72 213 72 C103 72 87 75 87 99 C87 116 98 127 128 139 C173 123 193 119 229 119 C395 119 507 208 507 338 C507 366 504 378 491 404 C524 428 545 439 559 439 C567 439 579 435 593 428 C560 415 540 390 540 362 C540 335 563 316 596 316 C646 316 684 356 684 407 C684 454 646 484 587 484 C549 484 522 474 469 440 C419 475 383 486 316 486 C159 486 42 394 42 269 C42 229 52 203 82 165 L82 165 Z M302 420 C348 420 364 404 364 359 C364 330 357 291 346 258 C327 202 299 180 246 180 C204 180 184 202 184 248 C184 281 198 336 214 367 C233 404 259 420 302 420 L302 420 Z M221 -46 C265 -46 309 -50 334 -56 C353 -61 361 -70 361 -87 C361 -132 309 -152 193 -152 C95 -152 56 -139 56 -106 C56 -83 70 -65 92 -58 C117 -50 166 -46 221 -46 L221 -46 Z M440 753 C392 747 361 734 334 708 C299 675 278 629 278 587 C278 551 305 525 345 525 C389 525 426 561 426 603 C426 630 409 645 378 645 C369 645 362 644 348 640 C363 684 387 703 431 709 L440 753 Z " />
<glyph glyph-name="Imacron" unicode="&#x12a;" horiz-adv-x="433" d="M-48 0 L338 0 L356 82 L312 82 C263 82 251 87 251 110 C251 116 253 130 256 143 L337 524 C348 579 358 586 419 585 L463 585 L480 667 L94 667 L76 585 L118 585 C168 585 179 580 179 557 C179 551 178 542 174 524 L93 143 C81 89 72 81 11 82 L-31 82 L-48 0 Z M160 750 L449 750 L466 829 L177 829 L160 750 Z " />
<glyph glyph-name="imacron" unicode="&#x12b;" horiz-adv-x="370" d="M292 74 L259 74 C225 74 211 82 211 100 C211 107 213 120 216 133 L287 469 L55 469 L39 395 L70 395 C104 395 116 388 116 367 C116 357 115 346 113 336 L69 133 C57 83 49 76 2 74 L-29 74 L-45 0 L276 0 L292 74 Z M53 588 L350 588 L368 670 L70 670 L53 588 Z " />
<glyph glyph-name="Iogonek" unicode="&#x12e;" horiz-adv-x="433" d="M338 0 L356 82 L312 82 C263 82 251 87 251 109 C251 116 253 130 256 143 L337 524 C348 579 358 586 419 585 L463 585 L480 667 L94 667 L76 585 L118 585 C167 585 180 579 179 558 C179 550 177 538 174 524 L93 143 C81 89 72 81 11 82 L-31 82 L-48 0 L266 0 C166 -53 109 -115 109 -170 C109 -206 137 -227 185 -227 C237 -227 280 -200 323 -140 L308 -130 C276 -159 267 -164 243 -164 C218 -164 206 -152 206 -129 C206 -87 239 -44 302 0 L338 0 Z " />
<glyph glyph-name="iogonek" unicode="&#x12f;" horiz-adv-x="370" d="M276 0 L292 74 L259 74 C225 74 211 81 211 101 C211 107 213 120 216 133 L287 469 L55 469 L39 395 L70 395 C104 395 116 388 116 367 C116 357 115 346 113 336 L69 133 C57 83 49 76 2 74 L-29 74 L-45 0 L208 0 C108 -52 51 -115 51 -170 C51 -206 78 -227 126 -227 C179 -227 221 -201 265 -140 L249 -130 C217 -159 209 -164 185 -164 C160 -164 147 -152 147 -129 C147 -87 179 -44 244 0 L276 0 Z M249 667 C198 667 152 622 152 573 C152 537 178 512 215 512 C265 512 311 557 311 606 C311 641 285 667 249 667 L249 667 Z " />
<glyph glyph-name="Idotaccent" unicode="&#x130;" horiz-adv-x="433" d="M-48 0 L338 0 L356 82 L312 82 C263 82 251 87 251 110 C251 116 253 130 256 143 L337 524 C348 579 358 586 419 585 L463 585 L480 667 L94 667 L76 585 L118 585 C168 585 179 580 179 557 C179 551 178 542 174 524 L93 143 C81 89 72 81 11 82 L-31 82 L-48 0 Z M330 862 C285 862 242 821 242 779 C242 745 265 721 297 721 C342 721 385 762 385 804 C385 836 361 862 330 862 L330 862 Z " />
<glyph glyph-name="dotlessi" unicode="&#x131;" horiz-adv-x="370" d="M292 74 L259 74 C225 74 211 82 211 100 C211 107 213 120 216 133 L287 469 L55 469 L39 395 L70 395 C104 395 116 388 116 367 C116 357 115 346 113 336 L69 133 C57 83 49 76 2 74 L-29 74 L-45 0 L276 0 L292 74 Z " />
<glyph glyph-name="Kcommaaccent" unicode="&#x136;" horiz-adv-x="829" d="M462 667 L92 667 L74 585 L116 585 C166 585 177 580 177 557 C177 552 175 541 172 524 L91 143 C79 89 70 81 9 82 L-33 82 L-50 0 L318 0 L335 82 L307 82 C257 82 245 87 245 110 C245 116 247 126 250 143 L268 225 L406 319 L497 122 C500 115 502 109 502 103 C502 89 483 82 445 82 L407 82 L390 0 L773 0 L790 82 L753 82 C722 82 705 94 689 124 L546 418 L713 536 C766 572 800 586 835 585 L861 585 L879 667 L530 667 L512 585 L558 585 C583 585 591 582 591 572 C591 565 584 556 572 547 L295 351 L331 524 C343 578 352 586 414 585 L445 585 L462 667 Z M227 -281 C275 -276 306 -263 334 -236 C368 -204 390 -157 390 -116 C390 -80 363 -54 324 -54 C279 -54 242 -89 242 -132 C242 -158 259 -173 290 -173 C298 -173 305 -172 320 -168 C304 -212 281 -231 237 -237 L227 -281 Z " />
<glyph glyph-name="kcommaaccent" unicode="&#x137;" horiz-adv-x="683" d="M71 593 L102 593 C136 593 148 586 148 564 C148 555 147 544 145 534 L59 133 C48 83 39 76 -8 74 L-39 74 L-55 0 L243 0 L259 74 L245 74 C216 74 201 82 201 100 C201 108 203 121 208 143 L317 215 L368 115 C372 108 374 99 374 93 C374 81 362 74 342 74 L309 74 L294 0 L598 0 L613 74 L595 74 C564 73 538 93 522 128 L440 295 L522 352 C566 383 585 391 622 395 L648 395 L664 469 L357 469 L341 395 L405 395 C424 395 429 393 429 386 C429 381 421 372 405 362 L229 243 L319 667 L87 667 L71 593 Z M154 -281 C202 -276 233 -263 261 -236 C295 -204 317 -157 317 -116 C317 -80 290 -54 251 -54 C206 -54 169 -89 169 -132 C169 -158 186 -173 217 -173 C226 -173 233 -172 247 -168 C231 -212 208 -231 164 -237 L154 -281 Z " />
<glyph glyph-name="Lacute" unicode="&#x139;" horiz-adv-x="719" d="M483 667 L92 667 L74 585 L116 585 C166 585 177 580 177 557 C177 551 175 540 172 524 L91 143 C79 89 70 81 9 82 L-33 82 L-50 0 L609 0 L668 279 L582 279 C537 116 495 79 356 82 L241 82 L335 524 C346 578 356 586 417 585 L465 585 L483 667 Z M404 721 L552 772 C586 784 607 807 607 831 C607 852 592 868 570 868 C554 868 539 861 513 842 L350 721 L404 721 Z " />
<glyph glyph-name="lacute" unicode="&#x13a;" horiz-adv-x="355" d="M319 667 L87 667 L71 593 L102 593 C136 593 148 586 148 565 C148 555 147 544 145 534 L59 133 C47 83 39 76 -8 74 L-39 74 L-55 0 L266 0 L282 74 L249 74 C215 74 201 82 201 100 C201 107 203 120 206 133 L319 667 Z M221 726 L276 726 L451 805 C496 825 515 845 515 874 C515 899 498 916 472 916 C448 916 427 905 386 869 L221 726 Z " />
<glyph glyph-name="Lcommaaccent" unicode="&#x13b;" horiz-adv-x="719" d="M483 667 L92 667 L74 585 L116 585 C166 585 177 580 177 557 C177 551 175 540 172 524 L91 143 C79 89 70 81 9 82 L-33 82 L-50 0 L609 0 L668 279 L582 279 C537 116 495 79 356 82 L241 82 L335 524 C346 578 356 586 417 585 L465 585 L483 667 Z M173 -281 C220 -276 252 -263 279 -236 C313 -204 335 -157 335 -116 C335 -80 308 -54 269 -54 C224 -54 187 -89 187 -132 C187 -158 204 -173 235 -173 C244 -173 251 -172 265 -168 C249 -212 226 -231 182 -237 L173 -281 Z " />
<glyph glyph-name="lcommaaccent" unicode="&#x13c;" horiz-adv-x="355" d="M319 667 L87 667 L71 593 L102 593 C136 593 148 586 148 565 C148 555 147 544 145 534 L59 133 C47 83 39 76 -8 74 L-39 74 L-55 0 L266 0 L282 74 L249 74 C215 74 201 82 201 100 C201 107 203 120 206 133 L319 667 Z M-10 -281 C38 -276 69 -263 97 -236 C131 -204 153 -157 153 -116 C153 -80 126 -54 87 -54 C42 -54 5 -89 5 -132 C5 -158 22 -173 53 -173 C61 -173 68 -172 83 -168 C67 -212 44 -231 0 -237 L-10 -281 Z " />
<glyph glyph-name="Lcaron" unicode="&#x13d;" horiz-adv-x="720" d="M483 667 L92 667 L74 585 L116 585 C166 585 177 580 177 557 C177 551 175 540 172 524 L91 143 C79 89 70 81 9 82 L-33 82 L-50 0 L609 0 L668 279 L582 279 C537 116 495 79 356 82 L241 82 L335 524 C346 578 356 586 417 585 L465 585 L483 667 Z M525 453 C576 458 608 471 637 498 C672 529 694 576 694 617 C694 654 665 680 624 680 C577 680 539 645 539 603 C539 576 557 561 590 561 C598 561 606 562 621 566 C605 522 581 503 535 497 L525 453 Z " />
<glyph glyph-name="lcaron" unicode="&#x13e;" horiz-adv-x="355" d="M319 667 L87 667 L71 593 L102 593 C136 593 148 586 148 565 C148 555 147 544 145 534 L59 133 C47 83 39 76 -8 74 L-39 74 L-55 0 L266 0 L282 74 L249 74 C215 74 201 82 201 100 C201 107 203 120 206 133 L319 667 Z M352 443 C400 449 431 462 459 488 C493 520 515 567 515 608 C515 644 488 670 448 670 C404 670 367 635 367 593 C367 566 384 551 415 551 C423 551 430 552 445 556 C429 512 406 493 362 487 L352 443 Z " />
<glyph glyph-name="Lslash" unicode="&#x141;" horiz-adv-x="730" d="M489 667 L98 667 L80 585 L122 585 C172 585 183 580 183 557 C183 551 181 542 178 524 L135 324 L-15 242 L-33 154 L116 236 L97 143 C85 89 76 81 15 82 L-27 82 L-44 0 L615 0 L674 279 L588 279 C543 116 501 79 362 82 L247 82 L294 305 L499 419 L517 507 L313 393 L341 524 C352 578 362 586 423 585 L471 585 L489 667 Z " />
<glyph glyph-name="lslash" unicode="&#x142;" horiz-adv-x="365" d="M100 280 L69 133 C57 83 49 76 1 74 L-30 74 L-46 0 L275 0 L291 74 L258 74 C224 74 210 82 210 100 C210 107 212 119 215 133 L257 334 L390 406 L405 476 L272 404 L328 667 L96 667 L80 593 L111 593 C145 593 159 585 158 565 C157 555 156 545 154 534 L115 350 L-6 283 L-21 213 L100 280 Z " />
<glyph glyph-name="Nacute" unicode="&#x143;" horiz-adv-x="855" d="M297 82 L249 82 C200 82 189 87 189 110 C189 116 191 131 194 143 L274 522 L484 0 L661 0 L772 524 C783 579 793 586 853 585 L885 585 L903 667 L577 667 L560 585 L608 585 C657 585 668 580 668 557 C668 551 666 540 663 524 L592 191 L400 667 L92 667 L74 585 L110 585 C160 585 171 580 171 557 C171 552 170 543 165 524 L85 143 C73 89 64 81 3 82 L-33 82 L-50 0 L279 0 L297 82 Z M472 721 L620 772 C654 784 675 807 675 831 C675 852 660 868 638 868 C622 868 607 861 581 842 L418 721 L472 721 Z " />
<glyph glyph-name="nacute" unicode="&#x144;" horiz-adv-x="688" d="M294 0 L598 0 L614 74 L591 74 C552 74 536 82 536 102 C536 108 537 117 541 133 L579 311 C585 342 589 371 589 391 C589 448 540 484 461 484 C392 484 350 463 265 385 L283 469 L50 469 L34 395 L66 395 C101 395 114 388 114 366 C114 357 113 346 111 336 L67 133 C55 83 47 76 -3 74 L-34 74 L-50 0 L257 0 L273 74 L254 74 C219 74 205 81 205 100 C205 107 206 116 210 133 L240 272 C256 349 314 401 382 401 C419 401 444 381 443 354 C443 345 440 330 436 309 L398 133 C387 83 379 76 329 74 L310 74 L294 0 Z M291 540 L346 540 L522 619 C566 639 585 659 585 688 C585 713 568 730 542 730 C518 730 498 719 457 683 L291 540 Z " />
<glyph glyph-name="Ncommaaccent" unicode="&#x145;" horiz-adv-x="855" d="M297 82 L249 82 C200 82 189 87 189 110 C189 116 191 131 194 143 L274 522 L484 0 L661 0 L772 524 C783 579 793 586 853 585 L885 585 L903 667 L577 667 L560 585 L608 585 C657 585 668 580 668 557 C668 551 666 540 663 524 L592 191 L400 667 L92 667 L74 585 L110 585 C160 585 171 580 171 557 C171 552 170 543 165 524 L85 143 C73 89 64 81 3 82 L-33 82 L-50 0 L279 0 L297 82 Z M240 -281 C288 -276 319 -263 347 -236 C381 -204 403 -157 403 -116 C403 -80 376 -54 337 -54 C292 -54 255 -89 255 -132 C255 -158 272 -173 303 -173 C311 -173 319 -172 333 -168 C317 -212 294 -231 250 -237 L240 -281 Z " />
<glyph glyph-name="ncommaaccent" unicode="&#x146;" horiz-adv-x="688" d="M294 0 L598 0 L614 74 L591 74 C552 74 536 82 536 102 C536 108 537 117 541 133 L579 311 C585 342 589 371 589 391 C589 448 540 484 461 484 C392 484 350 463 265 385 L283 469 L50 469 L34 395 L66 395 C101 395 114 388 114 366 C114 357 113 346 111 336 L67 133 C55 83 47 76 -3 74 L-34 74 L-50 0 L257 0 L273 74 L254 74 C219 74 205 81 205 100 C205 107 206 116 210 133 L240 272 C256 349 314 401 382 401 C419 401 444 381 443 354 C443 345 440 330 436 309 L398 133 C387 83 379 76 329 74 L310 74 L294 0 Z M157 -281 C205 -276 236 -263 264 -236 C298 -204 320 -157 320 -116 C320 -80 293 -54 254 -54 C209 -54 172 -89 172 -132 C172 -158 189 -173 220 -173 C228 -173 235 -172 249 -168 C233 -212 211 -231 166 -237 L157 -281 Z " />
<glyph glyph-name="Ncaron" unicode="&#x147;" horiz-adv-x="855" d="M297 82 L249 82 C200 82 189 87 189 110 C189 116 191 131 194 143 L274 522 L484 0 L661 0 L772 524 C783 579 793 586 853 585 L885 585 L903 667 L577 667 L560 585 L608 585 C657 585 668 580 668 557 C668 551 666 540 663 524 L592 191 L400 667 L92 667 L74 585 L110 585 C160 585 171 580 171 557 C171 552 170 543 165 524 L85 143 C73 89 64 81 3 82 L-33 82 L-50 0 L279 0 L297 82 Z M385 858 L452 720 L568 720 L693 858 L647 858 L527 803 L431 858 L385 858 Z " />
<glyph glyph-name="ncaron" unicode="&#x148;" horiz-adv-x="688" d="M294 0 L598 0 L614 74 L591 74 C552 74 536 82 536 102 C536 108 537 117 541 133 L579 311 C585 342 589 371 589 391 C589 448 540 484 461 484 C392 484 350 463 265 385 L283 469 L50 469 L34 395 L66 395 C101 395 114 388 114 366 C114 357 113 346 111 336 L67 133 C55 83 47 76 -3 74 L-34 74 L-50 0 L257 0 L273 74 L254 74 C219 74 205 81 205 100 C205 107 206 116 210 133 L240 272 C256 349 314 401 382 401 C419 401 444 381 443 354 C443 345 440 330 436 309 L398 133 C387 83 379 76 329 74 L310 74 L294 0 Z M539 719 L490 719 L366 636 L276 719 L227 719 L300 540 L390 540 L539 719 Z " />
<glyph glyph-name="Omacron" unicode="&#x14c;" horiz-adv-x="850" d="M502 686 C366 686 247 640 157 553 C76 475 28 362 28 251 C28 87 153 -19 345 -19 C486 -19 602 25 694 114 C775 193 823 305 823 416 C823 582 699 686 502 686 L502 686 Z M484 599 C577 599 639 533 639 435 C639 354 612 253 576 194 C526 114 452 69 370 69 C274 69 212 133 212 233 C212 313 239 415 275 474 C324 554 399 599 484 599 L484 599 Z M369 750 L658 750 L675 829 L386 829 L369 750 Z " />
<glyph glyph-name="omacron" unicode="&#x14d;" horiz-adv-x="620" d="M344 486 C148 486 1 352 1 174 C1 56 91 -17 236 -17 C431 -17 578 117 578 295 C578 412 488 486 344 486 L344 486 Z M327 409 C389 409 423 375 423 312 C423 252 404 178 378 133 C349 85 307 60 252 60 C190 60 156 94 156 157 C156 218 174 289 201 336 C230 384 272 409 327 409 L327 409 Z M216 588 L514 588 L531 670 L233 670 L216 588 Z " />
<glyph glyph-name="Ohungarumlaut" unicode="&#x150;" horiz-adv-x="850" d="M502 686 C366 686 247 640 157 553 C76 475 28 362 28 251 C28 87 153 -19 345 -19 C486 -19 602 25 694 114 C775 193 823 305 823 416 C823 582 699 686 502 686 L502 686 Z M484 599 C577 599 639 533 639 435 C639 354 612 253 576 194 C526 114 452 69 370 69 C274 69 212 133 212 233 C212 313 239 415 275 474 C324 554 399 599 484 599 L484 599 Z M413 721 L521 786 C546 800 559 818 559 836 C559 854 543 869 524 869 C506 869 489 858 467 831 L375 721 L413 721 Z M554 721 L688 783 C717 796 732 813 732 833 C732 852 717 868 699 868 C682 868 667 860 643 838 L515 721 L554 721 Z " />
<glyph glyph-name="ohungarumlaut" unicode="&#x151;" horiz-adv-x="620" d="M344 486 C148 486 1 352 1 174 C1 56 91 -17 236 -17 C431 -17 578 117 578 295 C578 412 488 486 344 486 L344 486 Z M327 409 C389 409 423 375 423 312 C423 252 404 178 378 133 C349 85 307 60 252 60 C190 60 156 94 156 157 C156 218 174 289 201 336 C230 384 272 409 327 409 L327 409 Z M237 540 L281 540 L410 637 C437 657 451 677 451 695 C451 717 437 731 415 731 C388 731 371 718 336 671 L237 540 Z M377 540 L420 540 L580 631 C614 650 631 671 631 692 C631 714 616 729 595 729 C569 729 555 720 515 680 L377 540 Z " />
<glyph glyph-name="OE" unicode="&#x152;" horiz-adv-x="1262" d="M1274 667 L908 667 C788 667 769 668 656 677 C594 683 532 686 492 686 C235 686 28 492 28 250 C28 87 153 -19 346 -19 C389 -19 445 -16 504 -11 C570 -6 636 -1 649 -1 L786 0 L1132 0 L1191 279 L1104 279 C1058 116 1012 79 862 82 L731 82 L779 306 L819 306 C879 306 901 291 901 249 C901 240 899 225 897 213 L890 182 L975 182 L1043 500 L958 500 C934 405 919 391 837 389 L796 389 L838 585 L981 585 C1110 585 1139 565 1139 475 C1139 463 1137 433 1135 408 L1219 408 L1274 667 Z M602 247 C585 167 567 125 537 102 C508 79 456 66 395 66 C350 66 314 73 287 87 C241 110 211 167 211 230 C211 275 219 325 233 375 C252 441 275 484 312 523 C363 576 428 603 509 603 C553 603 595 595 618 581 C643 568 652 548 652 511 C652 490 648 462 640 422 L602 247 Z " />
<glyph glyph-name="oe" unicode="&#x153;" horiz-adv-x="954" d="M774 161 C742 94 706 69 639 69 C580 69 548 99 548 157 C548 170 551 195 556 218 L899 218 C907 261 910 287 910 307 C910 418 835 487 713 487 C646 487 599 471 517 420 C466 468 416 486 336 486 C146 486 -2 349 -2 175 C-2 59 88 -17 226 -17 C308 -17 367 3 439 55 C488 2 533 -17 608 -17 C685 -17 757 9 810 55 C842 83 857 108 876 161 L774 161 Z M575 294 C585 338 594 357 610 375 C629 397 658 409 689 409 C735 409 762 384 762 343 C762 331 760 312 757 294 L575 294 Z M323 409 C385 409 419 375 419 312 C419 252 400 179 374 133 C345 85 303 60 248 60 C186 60 152 94 152 157 C152 217 170 289 197 335 C226 384 268 409 323 409 L323 409 Z " />
<glyph glyph-name="Racute" unicode="&#x154;" horiz-adv-x="819" d="M74 585 L116 585 C166 585 177 580 177 557 C177 552 175 541 172 524 L91 143 C79 89 70 81 9 82 L-33 82 L-50 0 L341 0 L358 82 L310 82 C261 82 249 87 249 110 C249 116 251 129 254 143 L289 310 L394 310 C453 310 477 290 477 241 C477 228 476 220 475 211 L462 144 C456 116 453 90 453 72 C453 17 503 -20 578 -20 C632 -20 683 1 716 36 C746 68 761 105 778 188 L703 188 C682 95 673 78 647 78 C632 78 625 86 625 103 C625 109 627 121 630 142 L643 212 C645 224 646 236 646 249 C646 305 626 325 551 344 C624 362 657 377 690 403 C731 437 755 486 755 537 C755 627 684 667 524 667 L92 667 L74 585 Z M306 390 L348 585 L418 585 C521 585 541 581 564 559 C576 547 581 532 581 512 C581 483 569 453 549 431 C519 398 483 390 371 390 L306 390 Z M372 721 L521 772 C554 784 575 807 575 831 C575 852 560 868 538 868 C522 868 507 861 481 842 L318 721 L372 721 Z " />
<glyph glyph-name="racute" unicode="&#x155;" horiz-adv-x="511" d="M278 469 L50 469 L34 395 L61 395 C97 395 110 388 110 366 C110 359 108 346 106 336 L63 133 C51 83 43 76 -7 74 L-34 74 L-50 0 L282 0 L298 74 L249 74 C215 74 201 82 201 101 C201 107 203 119 206 133 L231 253 C246 322 260 353 290 383 C314 408 347 423 376 423 C385 423 392 421 406 414 C358 399 335 374 335 337 C335 305 359 286 397 286 C458 286 508 337 508 399 C508 452 472 482 410 482 C354 482 313 461 265 408 L278 469 Z M203 540 L258 540 L433 619 C478 639 497 659 497 688 C497 713 480 730 454 730 C430 730 409 719 368 683 L203 540 Z " />
<glyph glyph-name="Rcommaaccent" unicode="&#x156;" horiz-adv-x="819" d="M74 585 L116 585 C166 585 177 580 177 557 C177 552 175 541 172 524 L91 143 C79 89 70 81 9 82 L-33 82 L-50 0 L341 0 L358 82 L310 82 C261 82 249 87 249 110 C249 116 251 129 254 143 L289 310 L394 310 C453 310 477 290 477 241 C477 228 476 220 475 211 L462 144 C456 116 453 90 453 72 C453 17 503 -20 578 -20 C632 -20 683 1 716 36 C746 68 761 105 778 188 L703 188 C682 95 673 78 647 78 C632 78 625 86 625 103 C625 109 627 121 630 142 L643 212 C645 224 646 236 646 249 C646 305 626 325 551 344 C624 362 657 377 690 403 C731 437 755 486 755 537 C755 627 684 667 524 667 L92 667 L74 585 Z M306 390 L348 585 L418 585 C521 585 541 581 564 559 C576 547 581 532 581 512 C581 483 569 453 549 431 C519 398 483 390 371 390 L306 390 Z M222 -281 C270 -276 301 -263 329 -236 C363 -204 385 -157 385 -116 C385 -80 358 -54 319 -54 C274 -54 237 -89 237 -132 C237 -158 254 -173 285 -173 C293 -173 300 -172 315 -168 C299 -212 276 -231 231 -237 L222 -281 Z " />
<glyph glyph-name="rcommaaccent" unicode="&#x157;" horiz-adv-x="511" d="M278 469 L50 469 L34 395 L61 395 C97 395 110 388 110 366 C110 359 108 346 106 336 L63 133 C51 83 43 76 -7 74 L-34 74 L-50 0 L282 0 L298 74 L249 74 C215 74 201 82 201 101 C201 107 203 119 206 133 L231 253 C246 322 260 353 290 383 C314 408 347 423 376 423 C385 423 392 421 406 414 C358 399 335 374 335 337 C335 305 359 286 397 286 C458 286 508 337 508 399 C508 452 472 482 410 482 C354 482 313 461 265 408 L278 469 Z M5 -281 C53 -276 84 -263 112 -236 C146 -204 168 -157 168 -116 C168 -80 141 -54 102 -54 C57 -54 20 -89 20 -132 C20 -158 37 -173 68 -173 C76 -173 83 -172 98 -168 C82 -212 59 -231 15 -237 L5 -281 Z " />
<glyph glyph-name="Rcaron" unicode="&#x158;" horiz-adv-x="819" d="M74 585 L116 585 C166 585 177 580 177 557 C177 552 175 541 172 524 L91 143 C79 89 70 81 9 82 L-33 82 L-50 0 L341 0 L358 82 L310 82 C261 82 249 87 249 110 C249 116 251 129 254 143 L289 310 L394 310 C453 310 477 290 477 241 C477 228 476 220 475 211 L462 144 C456 116 453 90 453 72 C453 17 503 -20 578 -20 C632 -20 683 1 716 36 C746 68 761 105 778 188 L703 188 C682 95 673 78 647 78 C632 78 625 86 625 103 C625 109 627 121 630 142 L643 212 C645 224 646 236 646 249 C646 305 626 325 551 344 C624 362 657 377 690 403 C731 437 755 486 755 537 C755 627 684 667 524 667 L92 667 L74 585 Z M306 390 L348 585 L418 585 C521 585 541 581 564 559 C576 547 581 532 581 512 C581 483 569 453 549 431 C519 398 483 390 371 390 L306 390 Z M268 858 L335 720 L450 720 L576 858 L529 858 L410 803 L314 858 L268 858 Z " />
<glyph glyph-name="rcaron" unicode="&#x159;" horiz-adv-x="511" d="M278 469 L50 469 L34 395 L61 395 C97 395 110 388 110 366 C110 359 108 346 106 336 L63 133 C51 83 43 76 -7 74 L-34 74 L-50 0 L282 0 L298 74 L249 74 C215 74 201 82 201 101 C201 107 203 119 206 133 L231 253 C246 322 260 353 290 383 C314 408 347 423 376 423 C385 423 392 421 406 414 C358 399 335 374 335 337 C335 305 359 286 397 286 C458 286 508 337 508 399 C508 452 472 482 410 482 C354 482 313 461 265 408 L278 469 Z M472 719 L423 719 L298 636 L209 719 L160 719 L233 540 L322 540 L472 719 Z " />
<glyph glyph-name="Sacute" unicode="&#x15a;" horiz-adv-x="688" d="M60 -5 L96 49 C163 -3 215 -20 304 -20 C403 -20 489 7 550 58 C606 103 642 175 642 240 C642 336 583 376 374 421 C260 446 233 462 233 502 C233 558 290 597 374 597 C435 597 489 578 521 546 C547 520 556 491 556 434 L556 421 L644 421 L697 669 L620 669 L584 623 C517 671 472 686 392 686 C299 686 219 660 157 610 C104 566 69 498 69 435 C69 339 124 302 332 256 C446 231 474 215 474 172 C474 114 410 74 320 74 C259 74 208 92 172 126 C139 158 128 191 125 262 L35 262 L-22 -5 L60 -5 Z M389 721 L537 772 C571 784 592 807 592 831 C592 852 576 868 555 868 C538 868 523 861 498 842 L335 721 L389 721 Z " />
<glyph glyph-name="sacute" unicode="&#x15b;" horiz-adv-x="568" d="M74 30 C135 -5 181 -18 245 -18 C380 -18 488 64 488 167 C488 207 469 239 435 258 C407 273 370 285 304 302 C225 321 223 322 209 335 C204 340 200 349 200 357 C200 389 235 412 282 412 C311 412 341 404 363 391 C389 376 403 358 425 314 L495 314 L529 474 L459 474 L437 445 C385 476 347 487 286 487 C152 487 43 406 43 308 C43 286 51 263 64 249 C89 222 139 196 196 182 C286 160 286 160 306 151 C324 143 334 132 334 120 C334 85 294 61 236 61 C198 61 170 69 145 87 C116 107 105 127 97 176 L15 176 L-24 -7 L49 -7 L74 30 Z M232 540 L287 540 L462 619 C507 639 526 659 526 688 C526 713 509 730 483 730 C459 730 438 719 397 683 L232 540 Z " />
<glyph glyph-name="Scedilla" unicode="&#x15e;" horiz-adv-x="688" d="M283 -19 C294 -20 300 -20 307 -20 C499 -20 642 93 642 243 C642 335 580 377 374 421 C260 446 233 462 233 502 C233 558 291 597 375 597 C435 597 489 578 521 546 C548 519 556 492 556 430 L556 421 L644 421 L697 669 L620 669 L584 623 C517 671 472 686 392 686 C209 686 69 577 69 433 C69 340 125 302 332 256 C446 231 474 215 474 172 C474 114 410 74 320 74 C259 74 208 92 172 126 C139 158 128 191 125 262 L35 262 L-22 -5 L60 -5 L96 49 C145 10 185 -7 242 -15 L223 -101 C236 -99 250 -97 258 -97 C283 -97 298 -108 298 -126 C298 -153 276 -171 244 -171 C210 -171 173 -159 129 -132 L95 -181 C172 -218 204 -227 254 -227 C332 -227 391 -181 391 -120 C391 -81 362 -55 319 -55 C306 -55 291 -56 275 -58 L283 -19 Z " />
<glyph glyph-name="scedilla" unicode="&#x15f;" horiz-adv-x="568" d="M217 -16 C227 -17 237 -18 245 -18 C380 -18 488 64 488 167 C488 207 469 239 435 258 C407 273 371 285 304 302 C225 321 223 322 209 335 C204 340 200 349 200 358 C200 389 235 412 283 412 C311 412 341 404 363 391 C389 376 403 358 425 314 L495 314 L529 474 L459 474 L437 445 C385 476 347 487 286 487 C152 487 43 406 43 307 C43 286 51 263 64 249 C89 222 139 196 196 182 C286 160 286 160 306 151 C324 143 334 132 334 120 C334 85 294 61 237 61 C198 61 170 69 145 87 C116 107 105 127 97 176 L15 176 L-24 -7 L49 -7 L74 30 C113 8 137 -2 176 -10 L157 -99 C170 -97 184 -95 191 -95 C217 -95 232 -106 232 -124 C232 -153 211 -171 177 -171 C143 -171 107 -159 62 -132 L28 -181 C104 -217 137 -227 187 -227 C265 -227 323 -181 323 -117 C323 -78 295 -53 252 -53 C240 -53 224 -54 208 -56 L217 -16 Z " />
<glyph glyph-name="Scaron" unicode="&#x160;" horiz-adv-x="688" d="M60 -5 L96 49 C163 -3 215 -20 304 -20 C403 -20 489 7 550 58 C606 103 642 175 642 240 C642 336 583 376 374 421 C260 446 233 462 233 502 C233 558 290 597 374 597 C435 597 489 578 521 546 C547 520 556 491 556 434 L556 421 L644 421 L697 669 L620 669 L584 623 C517 671 472 686 392 686 C299 686 219 660 157 610 C104 566 69 498 69 435 C69 339 124 302 332 256 C446 231 474 215 474 172 C474 114 410 74 320 74 C259 74 208 92 172 126 C139 158 128 191 125 262 L35 262 L-22 -5 L60 -5 Z M302 858 L369 720 L484 720 L610 858 L563 858 L444 803 L348 858 L302 858 Z " />
<glyph glyph-name="scaron" unicode="&#x161;" horiz-adv-x="568" d="M74 30 C135 -5 181 -18 245 -18 C380 -18 488 64 488 167 C488 207 469 239 435 258 C407 273 370 285 304 302 C225 321 223 322 209 335 C204 340 200 349 200 357 C200 389 235 412 282 412 C311 412 341 404 363 391 C389 376 403 358 425 314 L495 314 L529 474 L459 474 L437 445 C385 476 347 487 286 487 C152 487 43 406 43 308 C43 286 51 263 64 249 C89 222 139 196 196 182 C286 160 286 160 306 151 C324 143 334 132 334 120 C334 85 294 61 236 61 C198 61 170 69 145 87 C116 107 105 127 97 176 L15 176 L-24 -7 L49 -7 L74 30 Z M522 719 L474 719 L349 636 L260 719 L211 719 L284 540 L373 540 L522 719 Z " />
<glyph glyph-name="Tcommaaccent" unicode="&#x162;" horiz-adv-x="714" d="M235 143 C224 89 214 81 154 82 L105 82 L87 0 L486 0 L503 82 L454 82 C405 82 393 87 393 110 C393 115 394 124 399 143 L493 586 C550 586 578 579 599 560 C617 543 627 516 627 482 C627 465 624 441 617 401 L708 401 L764 667 L92 667 L36 401 L126 401 C157 541 209 588 330 586 L235 143 Z M184 -281 C232 -276 263 -263 291 -236 C325 -204 347 -157 347 -116 C347 -80 320 -54 281 -54 C236 -54 199 -89 199 -132 C199 -158 216 -173 247 -173 C255 -173 262 -172 277 -168 C261 -212 238 -231 194 -237 L184 -281 Z " />
<glyph glyph-name="tcommaaccent" unicode="&#x163;" horiz-adv-x="454" d="M302 224 L293 180 C276 99 260 76 224 76 C203 76 191 86 191 104 C191 112 193 127 197 144 L249 391 L383 391 L400 469 L270 469 L309 652 L226 652 C184 528 144 487 43 463 L28 391 L107 391 L60 170 C52 132 47 99 47 83 C47 58 58 31 75 14 C96 -6 130 -17 176 -17 C232 -17 276 1 309 38 C335 66 346 93 359 154 L374 224 L302 224 Z M2 -281 C50 -276 81 -263 109 -236 C143 -204 165 -157 165 -116 C165 -80 138 -54 99 -54 C54 -54 17 -89 17 -132 C17 -158 34 -173 65 -173 C73 -173 80 -172 94 -168 C78 -212 56 -231 11 -237 L2 -281 Z " />
<glyph glyph-name="Tcaron" unicode="&#x164;" horiz-adv-x="714" d="M235 143 C224 89 214 81 154 82 L105 82 L87 0 L486 0 L503 82 L454 82 C405 82 393 87 393 110 C393 115 394 124 399 143 L493 586 C550 586 578 579 599 560 C617 543 627 516 627 482 C627 465 624 441 617 401 L708 401 L764 667 L92 667 L36 401 L126 401 C157 541 209 588 330 586 L235 143 Z M315 858 L382 720 L497 720 L623 858 L576 858 L457 803 L361 858 L315 858 Z " />
<glyph glyph-name="tcaron" unicode="&#x165;" horiz-adv-x="454" d="M302 224 L293 180 C276 100 260 76 224 76 C203 76 191 86 191 104 C191 112 193 127 197 144 L249 391 L383 391 L400 469 L270 469 L309 652 L226 652 C184 528 145 487 43 463 L28 391 L107 391 L60 170 C52 131 47 98 47 83 C47 58 58 31 75 14 C96 -6 130 -17 176 -17 C232 -17 276 1 309 38 C335 66 346 93 359 154 L374 224 L302 224 Z M398 531 C446 536 477 549 504 576 C538 608 560 655 560 696 C560 732 532 758 493 758 C449 758 412 723 412 681 C412 654 429 639 460 639 C469 639 476 640 490 644 C475 600 451 581 407 575 L398 531 Z " />
<glyph glyph-name="Umacron" unicode="&#x16a;" horiz-adv-x="803" d="M849 667 L533 667 L516 585 L561 585 C606 585 616 580 616 558 C616 551 614 537 611 524 L545 211 C533 157 520 130 494 111 C467 91 418 78 367 78 C293 78 257 105 257 159 C257 172 260 197 265 217 L330 524 C341 578 350 586 411 585 L460 585 L478 667 L91 667 L74 585 L110 585 C160 585 171 580 171 557 C171 551 169 536 166 524 L99 206 C94 184 92 163 92 142 C92 96 113 52 150 25 C191 -7 244 -21 320 -21 C509 -21 622 58 655 213 L721 524 C733 579 742 586 798 585 L832 585 L849 667 Z M345 750 L634 750 L651 829 L362 829 L345 750 Z " />
<glyph glyph-name="umacron" unicode="&#x16b;" horiz-adv-x="688" d="M34 395 L52 395 C86 395 101 387 101 369 C101 362 99 350 96 336 L58 156 C52 126 48 97 48 77 C48 19 98 -17 177 -17 C249 -17 298 6 374 76 L358 0 L597 0 L613 74 L578 74 C542 74 527 82 527 101 C527 107 529 117 532 133 L603 469 L382 469 L366 395 L393 395 C423 395 437 388 437 370 C437 363 436 354 432 336 L402 195 C385 118 327 66 257 66 C220 66 195 85 195 114 C195 124 197 141 201 158 L267 469 L50 469 L34 395 Z M231 588 L529 588 L546 670 L249 670 L231 588 Z " />
<glyph glyph-name="Uring" unicode="&#x16e;" horiz-adv-x="803" d="M849 667 L533 667 L516 585 L561 585 C606 585 616 580 616 558 C616 551 614 537 611 524 L545 211 C533 157 520 130 494 111 C467 91 418 78 367 78 C293 78 257 105 257 159 C257 172 260 197 265 217 L330 524 C341 578 350 586 411 585 L460 585 L478 667 L91 667 L74 585 L110 585 C160 585 171 580 171 557 C171 551 169 536 166 524 L99 206 C94 184 92 163 92 142 C92 96 113 52 150 25 C191 -7 244 -21 320 -21 C509 -21 622 58 655 213 L721 524 C733 579 742 586 798 585 L832 585 L849 667 Z M548 932 C476 932 413 873 413 806 C413 754 448 716 497 716 C566 716 633 781 633 847 C633 896 597 932 548 932 L548 932 Z M533 869 C554 868 568 854 568 833 C568 805 541 779 512 779 C491 779 477 794 477 816 C477 844 506 870 533 869 L533 869 Z " />
<glyph glyph-name="uring" unicode="&#x16f;" horiz-adv-x="688" d="M34 395 L52 395 C86 395 101 387 101 369 C101 362 99 350 96 336 L58 156 C52 126 48 97 48 77 C48 19 98 -17 177 -17 C249 -17 298 6 374 76 L358 0 L597 0 L613 74 L578 74 C542 74 527 82 527 101 C527 107 529 117 532 133 L603 469 L382 469 L366 395 L393 395 C423 395 437 388 437 370 C437 363 436 354 432 336 L402 195 C385 118 327 66 257 66 C220 66 195 85 195 114 C195 124 197 141 201 158 L267 469 L50 469 L34 395 Z M406 777 C320 777 244 705 244 624 C244 561 285 519 346 519 C429 519 507 594 507 673 C507 733 464 777 406 777 L406 777 Z M389 707 C417 706 435 687 435 659 C435 623 400 589 362 589 C333 589 315 608 315 636 C315 674 352 709 389 707 L389 707 Z " />
<glyph glyph-name="Uhungarumlaut" unicode="&#x170;" horiz-adv-x="803" d="M849 667 L533 667 L516 585 L561 585 C606 585 616 580 616 558 C616 551 614 537 611 524 L545 211 C533 157 520 130 494 111 C467 91 418 78 367 78 C293 78 257 105 257 159 C257 172 260 197 265 217 L330 524 C341 578 350 586 411 585 L460 585 L478 667 L91 667 L74 585 L110 585 C160 585 171 580 171 557 C171 551 169 536 166 524 L99 206 C94 184 92 163 92 142 C92 96 113 52 150 25 C191 -7 244 -21 320 -21 C509 -21 622 58 655 213 L721 524 C733 579 742 586 798 585 L832 585 L849 667 Z M389 721 L497 786 C520 799 534 818 534 836 C534 854 519 869 500 869 C482 869 466 858 443 831 L351 721 L389 721 Z M529 721 L664 783 C693 796 708 813 708 833 C708 852 693 868 675 868 C658 868 642 860 619 838 L491 721 L529 721 Z " />
<glyph glyph-name="uhungarumlaut" unicode="&#x171;" horiz-adv-x="688" d="M34 395 L52 395 C86 395 101 387 101 369 C101 362 99 350 96 336 L58 156 C52 126 48 97 48 77 C48 19 98 -17 177 -17 C249 -17 298 6 374 76 L358 0 L597 0 L613 74 L578 74 C542 74 527 82 527 101 C527 107 529 117 532 133 L603 469 L382 469 L366 395 L393 395 C423 395 437 388 437 370 C437 363 436 354 432 336 L402 195 C385 118 327 66 257 66 C220 66 195 85 195 114 C195 124 197 141 201 158 L267 469 L50 469 L34 395 Z M241 540 L285 540 L413 637 C441 658 455 677 455 695 C455 717 440 731 419 731 C392 731 374 717 340 671 L241 540 Z M380 540 L424 540 L584 631 C618 651 635 671 635 692 C635 714 620 729 598 729 C573 729 558 720 518 680 L380 540 Z " />
<glyph glyph-name="Uogonek" unicode="&#x172;" horiz-adv-x="803" d="M832 585 L849 667 L533 667 L516 585 L561 585 C606 585 616 580 616 559 C616 552 614 537 611 524 L545 211 C533 157 520 130 494 111 C467 90 418 78 366 78 C294 78 257 105 257 159 C257 172 260 197 265 217 L330 524 C341 578 350 586 411 585 L460 585 L478 667 L91 667 L74 585 L110 585 C160 585 171 580 171 558 C171 550 169 537 166 524 L99 206 C94 183 92 163 92 141 C92 41 179 -21 317 -21 C334 -21 357 -20 382 -17 C296 -70 255 -120 255 -170 C255 -206 282 -227 331 -227 C383 -227 426 -200 469 -140 L454 -130 C422 -160 413 -164 389 -164 C365 -164 352 -152 352 -129 C352 -86 389 -38 442 -12 L543 36 C557 41 581 64 604 94 C630 129 645 163 655 213 L721 524 C733 579 742 586 798 585 L832 585 Z " />
<glyph glyph-name="uogonek" unicode="&#x173;" horiz-adv-x="688" d="M597 0 L613 74 L578 74 C543 74 526 83 527 100 C527 109 529 120 532 133 L603 469 L382 469 L366 395 L393 395 C424 395 437 388 437 369 C437 363 435 353 432 336 L402 195 C385 118 327 66 257 66 C220 66 195 85 195 114 C195 124 197 141 201 158 L267 469 L50 469 L34 395 L52 395 C87 395 101 388 101 368 C101 362 99 349 96 336 L58 156 C52 126 48 97 48 77 C48 19 98 -17 177 -17 C249 -17 298 6 374 76 L358 0 L519 0 C421 -53 364 -115 364 -170 C364 -206 390 -227 437 -227 C490 -227 533 -200 575 -140 L560 -130 C528 -159 520 -164 495 -164 C471 -164 458 -152 458 -129 C458 -87 490 -44 554 0 L597 0 Z " />
<glyph glyph-name="Ydieresis" unicode="&#x178;" horiz-adv-x="735" d="M38 585 L64 585 C103 586 130 565 154 514 L273 277 L245 143 C233 89 224 81 163 82 L108 82 L91 0 L501 0 L519 82 L463 82 C415 82 403 87 403 110 C403 116 405 130 408 143 L436 277 L666 520 C714 572 736 585 777 585 L801 585 L819 667 L506 667 L489 587 L518 587 C551 587 568 581 568 568 C568 559 564 552 550 537 L410 389 L344 528 C340 536 338 545 338 554 C338 565 345 575 355 581 C363 585 369 585 392 585 L421 585 L438 667 L55 667 L38 585 Z M383 858 C339 858 298 819 298 778 C298 744 320 722 351 722 C395 722 436 761 436 802 C436 833 413 858 383 858 L383 858 Z M579 858 C535 858 493 819 493 778 C493 745 515 722 547 722 C590 722 632 761 632 802 C632 833 608 858 579 858 L579 858 Z " />
<glyph glyph-name="Zacute" unicode="&#x179;" horiz-adv-x="683" d="M-50 0 L562 0 L623 286 L530 286 C486 124 444 85 304 81 L171 81 L684 575 L704 667 L114 667 L58 403 L144 403 C183 544 232 585 360 585 L486 585 L-32 84 L-50 0 Z M386 721 L534 772 C568 784 589 807 589 831 C589 852 574 868 552 868 C535 868 521 861 495 842 L332 721 L386 721 Z " />
<glyph glyph-name="zacute" unicode="&#x17a;" horiz-adv-x="558" d="M-40 0 L427 0 L473 218 L391 218 C364 96 343 76 240 74 L150 74 L510 389 L527 469 L81 469 L38 267 L117 267 C143 382 161 397 264 395 L336 395 L-22 83 L-40 0 Z M256 540 L311 540 L486 619 C530 639 549 659 549 688 C549 713 532 730 506 730 C482 730 462 719 421 683 L256 540 Z " />
<glyph glyph-name="Zdotaccent" unicode="&#x17b;" horiz-adv-x="683" d="M-50 0 L562 0 L623 286 L530 286 C486 124 444 85 304 81 L171 81 L684 575 L704 667 L114 667 L58 403 L144 403 C183 544 232 585 360 585 L486 585 L-32 84 L-50 0 Z M456 862 C411 862 367 821 367 779 C367 745 390 721 423 721 C467 721 511 762 511 804 C511 836 486 862 456 862 L456 862 Z " />
<glyph glyph-name="zdotaccent" unicode="&#x17c;" horiz-adv-x="558" d="M-40 0 L427 0 L473 218 L391 218 C364 96 343 76 240 74 L150 74 L510 389 L527 469 L81 469 L38 267 L117 267 C143 382 161 397 264 395 L336 395 L-22 83 L-40 0 Z M360 702 C313 702 268 660 268 617 C268 581 292 557 328 557 C373 557 415 599 415 643 C415 677 392 702 360 702 L360 702 Z " />
<glyph glyph-name="Zcaron" unicode="&#x17d;" horiz-adv-x="683" d="M-50 0 L562 0 L623 286 L530 286 C486 124 444 85 304 81 L171 81 L684 575 L704 667 L114 667 L58 403 L144 403 C183 544 232 585 360 585 L486 585 L-32 84 L-50 0 Z M299 858 L366 720 L482 720 L607 858 L561 858 L441 803 L345 858 L299 858 Z " />
<glyph glyph-name="zcaron" unicode="&#x17e;" horiz-adv-x="558" d="M-40 0 L427 0 L473 218 L391 218 C364 96 343 76 240 74 L150 74 L510 389 L527 469 L81 469 L38 267 L117 267 C143 382 161 397 264 395 L336 395 L-22 83 L-40 0 Z M516 719 L468 719 L343 636 L254 719 L205 719 L277 540 L367 540 L516 719 Z " />
<glyph glyph-name="florin" unicode="&#x192;" horiz-adv-x="671" d="M447 389 L547 389 L578 469 L477 469 L499 528 C528 604 552 628 600 628 C614 628 622 625 638 616 C590 598 569 576 569 544 C569 518 587 504 619 504 C676 504 726 552 726 608 C726 656 678 685 599 685 C534 685 465 662 419 623 C384 595 362 561 342 507 L327 469 L241 469 L211 389 L297 389 L146 -10 C117 -86 93 -110 46 -110 C31 -110 23 -107 7 -98 C55 -80 76 -58 76 -26 C76 0 58 14 26 14 C-31 14 -81 -34 -81 -89 C-81 -138 -33 -167 46 -167 C112 -167 180 -144 226 -105 C261 -77 283 -44 303 11 L447 389 Z " />
<glyph glyph-name="uni01D3" unicode="&#x1d3;" horiz-adv-x="803" d="M849 667 L533 667 L516 585 L561 585 C606 585 616 580 616 558 C616 551 614 537 611 524 L545 211 C533 157 520 130 494 111 C467 91 418 78 367 78 C293 78 257 105 257 159 C257 172 260 197 265 217 L330 524 C341 578 350 586 411 585 L460 585 L478 667 L91 667 L74 585 L110 585 C160 585 171 580 171 557 C171 551 169 536 166 524 L99 206 C94 184 92 163 92 142 C92 96 113 52 150 25 C191 -7 244 -21 320 -21 C509 -21 622 58 655 213 L721 524 C733 579 742 586 798 585 L832 585 L849 667 Z M359 858 L425 720 L541 720 L667 858 L620 858 L501 803 L405 858 L359 858 Z " />
<glyph glyph-name="Scommaaccent" unicode="&#x218;" horiz-adv-x="688" d="M60 -5 L96 49 C163 -3 215 -20 304 -20 C403 -20 489 7 550 58 C606 103 642 175 642 240 C642 336 583 376 374 421 C260 446 233 462 233 502 C233 558 290 597 374 597 C435 597 489 578 521 546 C547 520 556 491 556 434 L556 421 L644 421 L697 669 L620 669 L584 623 C517 671 472 686 392 686 C299 686 219 660 157 610 C104 566 69 498 69 435 C69 339 124 302 332 256 C446 231 474 215 474 172 C474 114 410 74 320 74 C259 74 208 92 172 126 C139 158 128 191 125 262 L35 262 L-22 -5 L60 -5 Z M177 -281 C224 -276 255 -263 283 -236 C317 -204 339 -157 339 -116 C339 -80 312 -54 273 -54 C228 -54 191 -89 191 -132 C191 -158 208 -173 239 -173 C248 -173 255 -172 269 -168 C253 -212 230 -231 186 -237 L177 -281 Z " />
<glyph glyph-name="scommaaccent" unicode="&#x219;" horiz-adv-x="568" d="M74 30 C135 -5 181 -18 245 -18 C380 -18 488 64 488 167 C488 207 469 239 435 258 C407 273 370 285 304 302 C225 321 223 322 209 335 C204 340 200 349 200 357 C200 389 235 412 282 412 C311 412 341 404 363 391 C389 376 403 358 425 314 L495 314 L529 474 L459 474 L437 445 C385 476 347 487 286 487 C152 487 43 406 43 308 C43 286 51 263 64 249 C89 222 139 196 196 182 C286 160 286 160 306 151 C324 143 334 132 334 120 C334 85 294 61 236 61 C198 61 170 69 145 87 C116 107 105 127 97 176 L15 176 L-24 -7 L49 -7 L74 30 Z M97 -281 C145 -276 176 -263 204 -236 C238 -204 260 -157 260 -116 C260 -80 233 -54 194 -54 C149 -54 112 -89 112 -132 C112 -158 129 -173 160 -173 C168 -173 176 -172 190 -168 C174 -212 151 -231 107 -237 L97 -281 Z " />
<glyph glyph-name="uni021A" unicode="&#x21a;" horiz-adv-x="714" d="M235 143 C224 89 214 81 154 82 L105 82 L87 0 L486 0 L503 82 L454 82 C405 82 393 87 393 110 C393 115 394 124 399 143 L493 586 C550 586 578 579 599 560 C617 543 627 516 627 482 C627 465 624 441 617 401 L708 401 L764 667 L92 667 L36 401 L126 401 C157 541 209 588 330 586 L235 143 Z M184 -281 C232 -276 263 -263 291 -236 C325 -204 347 -157 347 -116 C347 -80 320 -54 281 -54 C236 -54 199 -89 199 -132 C199 -158 216 -173 247 -173 C255 -173 262 -172 277 -168 C261 -212 238 -231 194 -237 L184 -281 Z " />
<glyph glyph-name="uni021B" unicode="&#x21b;" horiz-adv-x="454" d="M302 224 L293 180 C276 99 260 76 224 76 C203 76 191 86 191 104 C191 112 193 127 197 144 L249 391 L383 391 L400 469 L270 469 L309 652 L226 652 C184 528 144 487 43 463 L28 391 L107 391 L60 170 C52 132 47 99 47 83 C47 58 58 31 75 14 C96 -6 130 -17 176 -17 C232 -17 276 1 309 38 C335 66 346 93 359 154 L374 224 L302 224 Z M2 -281 C50 -276 81 -263 109 -236 C143 -204 165 -157 165 -116 C165 -80 138 -54 99 -54 C54 -54 17 -89 17 -132 C17 -158 34 -173 65 -173 C73 -173 80 -172 94 -168 C78 -212 56 -231 11 -237 L2 -281 Z " />
<glyph glyph-name="afii57929" unicode="&#x2bc;" horiz-adv-x="261" d="M55 403 C132 417 173 436 214 477 C251 515 275 567 275 609 C275 656 245 686 199 686 C143 686 92 639 92 589 C92 559 114 537 143 537 C152 537 167 540 183 546 C158 486 140 472 66 453 L55 403 Z " />
<glyph glyph-name="circumflex" unicode="&#x2c6;" horiz-adv-x="509" d="M143 540 L192 540 L316 623 L406 540 L454 540 L382 719 L292 719 L143 540 Z " />
<glyph glyph-name="caron" unicode="&#x2c7;" horiz-adv-x="509" d="M492 719 L444 719 L319 636 L230 719 L181 719 L254 540 L343 540 L492 719 Z " />
<glyph glyph-name="uni02C9" unicode="&#x2c9;" horiz-adv-x="510" d="M161 588 L459 588 L476 670 L178 670 L161 588 Z " />
<glyph glyph-name="breve" unicode="&#x2d8;" horiz-adv-x="509" d="M175 704 C175 665 177 645 182 629 C198 583 242 555 301 555 C346 555 392 572 426 600 C453 624 468 648 491 704 L446 704 C420 658 390 644 321 644 C251 644 228 658 220 704 L175 704 Z " />
<glyph glyph-name="dotaccent" unicode="&#x2d9;" horiz-adv-x="518" d="M341 702 C294 702 249 660 249 617 C249 581 273 557 309 557 C354 557 396 599 396 643 C396 677 373 702 341 702 L341 702 Z " />
<glyph glyph-name="ring" unicode="&#x2da;" horiz-adv-x="512" d="M318 777 C232 777 156 705 156 624 C156 561 197 519 258 519 C341 519 419 594 419 673 C419 733 376 777 318 777 L318 777 Z M301 707 C329 706 347 687 347 659 C347 623 312 589 274 589 C245 589 227 608 227 636 C227 674 264 709 301 707 L301 707 Z " />
<glyph glyph-name="ogonek" unicode="&#x2db;" horiz-adv-x="525" d="M236 14 C113 -49 53 -109 53 -169 C53 -206 79 -227 126 -227 C179 -227 223 -200 265 -140 L250 -130 C218 -159 209 -164 186 -164 C161 -164 148 -152 148 -130 C148 -105 161 -77 184 -50 C202 -30 219 -17 265 14 L236 14 Z " />
<glyph glyph-name="tilde" unicode="&#x2dc;" horiz-adv-x="510" d="M186 540 C200 568 216 581 237 581 C245 581 255 579 266 576 L318 561 C328 558 338 557 348 557 C374 557 400 568 422 589 C446 610 458 630 479 678 L441 678 C424 647 412 638 389 638 C384 638 376 639 369 641 L316 656 C304 659 293 661 280 661 C223 661 186 628 148 540 L186 540 Z " />
<glyph glyph-name="hungarumlaut" unicode="&#x2dd;" horiz-adv-x="515" d="M184 540 L228 540 L356 637 C384 657 398 677 398 695 C398 717 383 731 362 731 C335 731 317 717 283 671 L184 540 Z M323 540 L367 540 L527 631 C561 651 578 671 578 692 C578 714 563 729 541 729 C516 729 501 720 461 680 L323 540 Z " />
<glyph glyph-name="uni2011" unicode="&#x2011;" horiz-adv-x="288" d="M-34 172 L254 172 L282 299 L-7 299 L-34 172 Z " />
<glyph glyph-name="figuredash" unicode="&#x2012;" horiz-adv-x="581" d="M-1 187 L520 187 L541 284 L20 284 L-1 187 Z " />
<glyph glyph-name="endash" unicode="&#x2013;" horiz-adv-x="581" d="M-1 187 L520 187 L541 284 L20 284 L-1 187 Z " />
<glyph glyph-name="emdash" unicode="&#x2014;" horiz-adv-x="772" d="M-31 187 L741 187 L761 284 L-10 284 L-31 187 Z " />
<glyph glyph-name="afii00208" unicode="&#x2015;" horiz-adv-x="772" d="M-31 187 L741 187 L761 284 L-10 284 L-31 187 Z " />
<glyph glyph-name="quoteleft" unicode="&#x2018;" horiz-adv-x="261" d="M290 687 C213 673 171 653 131 612 C94 575 70 522 70 480 C70 433 99 403 146 403 C202 403 253 450 253 500 C253 530 231 552 202 552 C193 552 178 549 162 543 C187 603 205 618 279 637 L290 687 Z " />
<glyph glyph-name="quoteright" unicode="&#x2019;" horiz-adv-x="261" d="M55 403 C132 417 173 436 214 477 C251 515 275 567 275 609 C275 656 245 686 199 686 C143 686 92 639 92 589 C92 559 114 537 143 537 C152 537 167 540 183 546 C158 486 140 472 66 453 L55 403 Z " />
<glyph glyph-name="quotesinglbase" unicode="&#x201a;" horiz-adv-x="261" d="M-61 -144 C16 -130 57 -111 98 -70 C135 -32 159 20 159 62 C159 109 129 139 83 139 C27 139 -24 92 -24 42 C-24 12 -2 -10 27 -10 C36 -10 51 -7 67 -1 C42 -61 24 -75 -50 -94 L-61 -144 Z " />
<glyph glyph-name="quotedblleft" unicode="&#x201c;" horiz-adv-x="506" d="M540 687 C464 673 421 653 381 612 C344 575 320 522 320 480 C320 433 350 403 397 403 C453 403 504 450 504 500 C504 530 482 552 453 552 C443 552 428 549 412 543 C437 603 456 618 530 637 L540 687 Z M295 687 C218 673 176 653 136 612 C99 575 75 522 75 480 C75 433 105 403 151 403 C207 403 258 450 258 500 C258 530 236 552 207 552 C198 552 183 549 167 543 C192 603 210 618 284 637 L295 687 Z " />
<glyph glyph-name="quotedblright" unicode="&#x201d;" horiz-adv-x="506" d="M300 403 C377 417 419 436 459 477 C496 515 520 567 520 609 C520 656 490 686 443 686 C387 686 336 639 336 589 C336 559 358 537 387 537 C397 537 412 540 428 546 C403 486 384 472 310 453 L300 403 Z M55 403 C132 417 173 436 214 477 C251 515 275 567 275 609 C275 656 245 686 199 686 C143 686 92 639 92 589 C92 559 114 537 143 537 C152 537 167 540 183 546 C158 486 140 472 66 453 L55 403 Z " />
<glyph glyph-name="quotedblbase" unicode="&#x201e;" horiz-adv-x="506" d="M-56 -144 C21 -130 62 -111 103 -70 C140 -32 164 19 164 62 C164 109 135 139 88 139 C32 139 -19 92 -19 42 C-19 12 3 -10 32 -10 C41 -10 56 -7 72 -1 C47 -61 29 -75 -45 -94 L-56 -144 Z M189 -144 C267 -130 308 -111 349 -70 C386 -32 410 20 410 62 C410 109 380 139 333 139 C277 139 226 92 226 42 C226 12 248 -10 277 -10 C287 -10 301 -7 317 -1 C292 -61 274 -75 200 -94 L189 -144 Z " />
<glyph glyph-name="dagger" unicode="&#x2020;" horiz-adv-x="626" d="M206 340 C221 344 232 347 238 349 C256 354 265 355 293 360 C289 344 286 334 285 329 L270 276 C243 179 240 169 194 28 C154 -93 147 -118 147 -149 C147 -188 164 -208 197 -208 C229 -208 257 -190 272 -161 C289 -125 295 -90 305 28 C318 166 335 300 349 360 C380 354 396 351 412 345 C472 323 478 322 504 322 C530 322 545 329 563 351 C574 365 580 381 580 396 C580 429 563 446 527 446 C507 446 507 446 453 430 C446 428 431 424 410 419 C403 417 383 412 363 407 C374 457 381 477 414 545 C438 595 446 618 446 639 C446 671 427 687 390 687 C335 687 304 652 304 590 C304 580 305 564 306 546 C307 524 308 497 308 489 C308 459 307 446 299 407 C281 412 263 418 257 419 C238 424 225 428 219 430 C172 446 172 446 153 446 C108 446 72 412 72 369 C72 338 89 322 121 322 C139 322 161 326 179 331 L206 340 Z " />
<glyph glyph-name="daggerdbl" unicode="&#x2021;" horiz-adv-x="626" d="M222 238 C236 204 239 187 239 149 C239 133 238 118 234 89 C204 91 191 93 169 100 C108 120 103 121 76 121 C33 121 -1 92 -1 54 C-1 23 17 7 53 7 C74 7 83 9 129 22 C162 31 176 33 219 39 C211 4 209 -2 191 -36 C149 -115 142 -132 142 -155 C142 -187 163 -206 200 -206 C255 -206 287 -170 287 -106 C287 -90 286 -80 281 -36 C280 -23 279 -14 279 -5 C279 4 281 20 285 39 C325 34 338 31 368 22 C409 9 417 7 436 7 C482 7 517 38 517 77 C517 106 499 121 465 121 C447 121 424 118 406 113 C373 103 353 98 346 96 C328 92 319 91 291 89 C314 162 332 198 367 238 C354 277 351 295 351 331 C351 348 352 362 356 392 C386 389 399 387 421 380 C482 360 487 359 514 359 C542 359 558 366 575 386 C585 398 591 413 591 426 C591 457 573 473 537 473 C516 473 506 471 461 458 C428 450 414 447 371 442 C379 477 381 482 399 517 C442 597 448 612 448 636 C448 669 427 687 390 687 C335 687 303 651 303 588 C303 571 304 558 309 517 C310 503 311 494 311 485 C311 477 309 461 305 442 C265 447 252 449 222 458 C181 471 173 473 154 473 C109 473 73 442 73 403 C73 374 91 359 125 359 C143 359 166 362 184 367 C217 377 237 383 243 384 C262 388 271 390 299 392 C276 320 260 287 222 238 L222 238 Z " />
<glyph glyph-name="bullet" unicode="&#x2022;" horiz-adv-x="700" d="M383 480 C290 480 204 399 204 312 C204 247 253 200 321 200 C413 200 499 281 499 368 C499 433 450 480 383 480 L383 480 Z " />
<glyph glyph-name="ellipsis" unicode="&#x2026;" horiz-adv-x="985" d="M127 140 C73 140 25 97 25 48 C25 9 52 -17 91 -17 C144 -17 193 28 193 77 C193 113 165 140 127 140 L127 140 Z M456 140 C401 140 353 97 353 48 C353 9 380 -17 420 -17 C472 -17 522 28 522 77 C522 113 494 140 456 140 L456 140 Z M784 140 C730 140 682 97 682 48 C682 9 709 -17 748 -17 C801 -17 850 28 850 77 C850 113 822 140 784 140 L784 140 Z " />
<glyph glyph-name="perthousand" unicode="&#x2030;" horiz-adv-x="1452" d="M294 622 C159 622 52 516 52 380 C52 296 116 240 213 240 C349 240 456 346 456 481 C456 566 392 622 294 622 L294 622 Z M280 556 C319 556 340 534 340 494 C340 447 325 386 306 353 C288 321 262 306 227 306 C188 306 168 327 168 368 C168 416 182 475 202 509 C221 540 247 556 280 556 L280 556 Z M778 365 C642 365 535 259 535 123 C535 39 600 -17 697 -17 C832 -17 940 89 940 224 C940 309 876 365 778 365 L778 365 Z M763 297 C805 297 824 278 824 236 C824 190 809 128 790 96 C770 64 747 50 712 50 C669 50 651 68 651 112 C651 160 665 217 685 251 C704 283 728 297 763 297 L763 297 Z M187 -17 L275 -17 L802 623 L716 623 L187 -17 Z M1225 365 C1089 365 982 259 982 123 C982 39 1047 -17 1143 -17 C1279 -17 1386 89 1386 224 C1386 309 1322 365 1225 365 L1225 365 Z M1209 297 C1251 297 1270 278 1270 236 C1270 189 1255 128 1236 96 C1217 64 1194 50 1159 50 C1116 50 1098 68 1098 112 C1098 160 1112 217 1132 251 C1151 283 1174 297 1209 297 L1209 297 Z " />
<glyph glyph-name="guilsinglleft" unicode="&#x2039;" horiz-adv-x="302" d="M192 72 L172 138 C156 194 154 201 154 221 C154 246 166 269 212 336 L258 403 L175 403 L119 346 C64 289 36 250 36 228 C36 209 52 167 73 129 L104 72 L192 72 Z " />
<glyph glyph-name="guilsinglright" unicode="&#x203a;" horiz-adv-x="302" d="M90 72 L145 129 C202 186 229 225 229 247 C229 266 214 306 192 346 L160 403 L77 403 L95 336 C106 291 112 265 112 254 C112 226 105 212 50 138 L2 72 L90 72 Z " />
<glyph glyph-name="uni203E" unicode="&#x203e;" horiz-adv-x="500" d="M-83 787 L-101 702 L399 702 L417 787 L-83 787 Z " />
<glyph glyph-name="fraction" unicode="&#x2044;" horiz-adv-x="172" d="M-247 -17 L-160 -17 L410 622 L322 622 L-247 -17 Z " />
<glyph glyph-name="Euro" unicode="&#x20ac;" horiz-adv-x="885" d="M124 355 C121 343 117 327 115 312 L64 312 L19 244 L110 244 C117 77 227 -19 412 -19 C528 -19 607 11 676 79 C721 125 742 165 769 258 L670 258 C650 194 636 167 607 136 C566 93 510 69 448 69 C353 69 293 132 293 231 C293 232 293 236 294 244 L490 244 L535 312 L301 312 C302 322 306 337 310 355 L563 355 L608 423 L332 423 C374 532 462 599 562 599 C655 599 710 543 710 449 C710 442 709 421 708 404 L798 404 L855 675 L771 675 L740 621 C668 673 628 687 552 687 C381 687 221 583 148 423 L87 423 L43 355 L124 355 Z " />
<glyph glyph-name="trademark" unicode="&#x2122;" horiz-adv-x="1073" d="M176 370 C170 341 167 339 131 339 L98 339 L87 287 L337 287 L348 339 L314 339 C286 339 280 341 280 352 C280 356 281 363 282 370 L334 615 C390 614 411 598 411 558 C411 547 409 533 406 511 L468 511 L501 667 L84 667 L51 511 L113 511 C130 589 159 615 228 615 L176 370 Z M1129 667 L917 667 L779 434 L743 667 L526 667 L515 615 L542 615 C570 615 576 612 576 601 C576 597 575 589 574 584 L529 370 C522 342 519 339 484 339 L457 339 L446 287 L645 287 L656 339 L633 339 C605 339 599 342 599 353 C599 355 600 362 602 370 L646 578 L693 287 L769 287 L943 579 L899 370 C893 342 889 339 854 339 L829 339 L818 287 L1048 287 L1059 339 L1031 339 C1002 339 996 342 996 353 C996 356 997 361 999 370 L1044 584 C1050 612 1054 615 1089 615 L1118 615 L1129 667 Z " />
<glyph glyph-name="uni2126" unicode="&#x2126;" horiz-adv-x="768" d="M326 0 L308 155 C230 199 180 288 180 382 C180 434 195 493 221 540 C257 605 317 642 385 642 C453 642 513 605 549 540 C575 493 590 434 590 382 C590 288 540 199 462 155 L444 0 L736 0 L736 153 L712 153 C704 108 684 90 643 90 L497 90 L500 128 C535 141 557 151 580 166 C657 215 702 296 702 382 C702 449 673 522 625 578 C564 648 480 686 385 686 C290 686 206 648 145 578 C97 522 68 449 68 382 C68 296 113 215 190 166 C213 151 235 141 270 128 L273 90 L127 90 C86 90 66 108 58 153 L34 153 L34 0 L326 0 Z " />
<glyph glyph-name="partialdiff" unicode="&#x2202;" horiz-adv-x="494" d="M107 674 C152 697 184 706 219 706 C321 706 379 611 379 447 C379 418 377 394 372 346 C308 396 272 412 221 412 C172 412 131 394 95 355 C51 309 26 246 26 184 C26 76 109 -10 213 -10 C282 -10 341 22 383 84 C429 152 462 286 462 403 C462 519 428 611 360 681 C312 730 259 753 195 753 C155 753 122 746 66 725 L107 674 Z M366 312 C350 201 340 158 314 107 C288 54 245 21 201 21 C146 21 113 73 113 159 C113 273 180 367 261 367 C299 367 324 354 366 312 L366 312 Z " />
<glyph glyph-name="Delta" unicode="&#x2206;" horiz-adv-x="612" d="M6 0 L608 0 L327 688 L6 0 Z M77 51 L290 509 L479 51 L77 51 Z " />
<glyph glyph-name="product" unicode="&#x220f;" horiz-adv-x="823" d="M25 -124 L315 -124 L315 -98 L312 -98 C242 -94 221 -67 224 18 L224 594 C224 656 228 677 242 690 C260 707 272 708 413 708 C556 708 568 707 586 690 C600 677 604 656 604 594 L604 18 C607 -67 586 -94 516 -98 L513 -98 L513 -124 L803 -124 L803 -98 L800 -98 C730 -94 709 -67 712 18 L712 609 C709 694 730 721 800 725 L803 725 L803 751 L25 751 L25 725 L28 725 C98 721 119 694 116 609 L116 18 C119 -67 98 -94 28 -98 L25 -98 L25 -124 Z " />
<glyph glyph-name="summation" unicode="&#x2211;" horiz-adv-x="713" d="M176 711 L444 711 C560 710 590 688 606 587 L632 587 L622 752 L23 752 L256 285 L14 -123 L641 -123 L695 87 L669 87 C639 7 605 -12 491 -11 L163 -11 L364 341 L176 711 Z " />
<glyph glyph-name="minus" unicode="&#x2212;" horiz-adv-x="624" d="M84 366 L62 263 L532 263 L554 366 L84 366 Z " />
<glyph glyph-name="uni2215" unicode="&#x2215;" horiz-adv-x="172" d="M-247 -17 L-160 -17 L410 622 L322 622 L-247 -17 Z " />
<glyph glyph-name="uni2219" unicode="&#x2219;" horiz-adv-x="328" d="M163 313 C109 313 61 270 61 221 C61 182 88 156 127 156 C180 156 229 201 229 250 C229 286 201 313 163 313 L163 313 Z " />
<glyph glyph-name="radical" unicode="&#x221a;" horiz-adv-x="549" d="M363 -35 L515 908 L480 913 L353 123 L156 520 L10 449 L26 414 L121 461 L363 -35 Z " />
<glyph glyph-name="infinity" unicode="&#x221e;" horiz-adv-x="713" d="M357 227 C415 156 485 115 548 115 C631 115 688 176 688 266 C688 354 629 414 543 414 C476 414 412 376 357 303 C300 375 234 414 171 414 C86 414 26 351 26 263 C26 176 84 115 167 115 C224 115 281 142 327 192 L357 227 Z M391 264 C434 325 493 362 546 362 C600 362 638 321 638 264 C638 205 603 167 549 167 C495 167 461 188 391 264 L391 264 Z M324 266 C275 203 216 167 163 167 C111 167 76 207 76 266 C76 323 113 362 167 362 C218 362 258 337 324 266 L324 266 Z " />
<glyph glyph-name="integral" unicode="&#x222b;" horiz-adv-x="274" d="M180 576 C180 653 179 691 176 746 C174 774 173 800 173 815 C173 855 184 878 202 878 C208 878 213 876 215 872 C232 845 239 839 256 839 C276 839 291 853 291 871 C291 898 267 916 231 916 C186 916 152 887 138 838 C123 784 113 682 113 577 L113 232 C113 160 114 124 117 63 C119 34 120 4 120 -12 C120 -47 108 -70 89 -70 C81 -70 74 -65 68 -52 C59 -35 51 -30 37 -30 C17 -30 2 -44 2 -63 C2 -89 26 -107 62 -107 C107 -107 141 -78 155 -29 C170 25 180 126 180 232 L180 576 Z " />
<glyph glyph-name="approxequal" unicode="&#x2248;" horiz-adv-x="549" d="M489 251 C444 199 423 187 384 187 C365 187 354 190 285 211 C212 234 188 239 160 239 C101 239 54 211 14 155 L57 121 C103 174 120 184 159 184 C180 184 180 184 271 157 C350 133 354 132 385 132 C449 132 496 160 527 217 L489 251 Z M489 408 C444 356 423 344 384 344 C365 344 354 347 285 368 C212 391 188 396 160 396 C101 396 54 369 14 312 L57 278 C103 331 120 341 159 341 C180 341 180 341 271 314 C350 290 354 289 385 289 C449 289 496 318 527 375 L489 408 Z " />
<glyph glyph-name="notequal" unicode="&#x2260;" horiz-adv-x="549" d="M187 142 L115 -1 L161 -25 L246 142 L540 142 L540 197 L273 197 L344 336 L540 336 L540 391 L371 391 L439 525 L392 549 L312 391 L15 391 L15 336 L285 336 L215 197 L15 197 L15 142 L187 142 Z " />
<glyph glyph-name="lessequal" unicode="&#x2264;" horiz-adv-x="549" d="M526 55 L29 55 L29 0 L526 0 L526 55 Z M526 639 L29 405 L29 350 L526 117 L526 179 L108 378 L526 577 L526 639 Z " />
<glyph glyph-name="greaterequal" unicode="&#x2265;" horiz-adv-x="549" d="M526 55 L29 55 L29 0 L526 0 L526 55 Z M29 639 L29 577 L447 378 L29 179 L29 117 L526 350 L526 405 L29 639 Z " />
<glyph glyph-name="lozenge" unicode="&#x25ca;" horiz-adv-x="494" d="M209 0 L269 -1 L466 374 L277 740 L214 740 L18 377 L209 0 Z M240 58 L81 376 L245 683 L402 373 L240 58 Z " />
<glyph glyph-name="fi" unicode="&#xfb01;" horiz-adv-x="709" d="M278 74 L259 74 C225 74 211 82 211 100 C211 107 213 119 216 133 L270 389 L409 389 C448 389 458 383 458 359 C458 351 457 339 455 330 L413 133 C401 82 391 74 342 74 L325 74 L310 0 L613 0 L629 74 L599 74 C565 74 551 82 551 100 C551 108 553 120 555 133 L627 469 L287 469 L300 528 C312 589 360 620 439 620 C464 620 479 617 509 607 C483 588 473 574 473 551 C473 521 498 502 537 502 C591 502 633 540 633 590 C633 649 563 684 442 684 C353 684 271 661 221 623 C187 597 163 557 152 507 L144 469 L55 469 L38 389 L127 389 L73 133 C61 83 53 76 3 74 L-29 74 L-45 0 L263 0 L278 74 Z " />
<glyph glyph-name="fl" unicode="&#xfb02;" horiz-adv-x="709" d="M278 74 L259 74 C224 74 210 82 210 100 C210 107 211 115 215 133 L269 389 L393 389 L410 469 L286 469 L299 528 C312 588 360 620 438 620 C464 620 478 617 509 607 C483 588 473 574 473 552 C473 536 478 528 494 515 L412 133 C401 83 392 76 342 74 L325 74 L309 0 L613 0 L629 74 L598 74 C564 74 550 82 550 100 C550 107 551 116 555 133 L668 667 L565 667 C508 681 480 685 437 685 C276 685 177 623 152 507 L144 469 L55 469 L38 389 L127 389 L72 133 C61 83 52 76 2 74 L-29 74 L-45 0 L262 0 L278 74 Z " />
</font>
</svg>
