<?xml version="1.0" encoding="UTF-8"?>
<svg xmlns="http://www.w3.org/2000/svg" xmlns:xlink="http://www.w3.org/1999/xlink" version="1.2" >
<font id="Bodoni URW Extra Wide Light">
<font-face  font-family="Bodoni URW Extra Wide" units-per-em="1000" ascent="667" descent="-333" font-style="normal" font-weight="300" font-stretch="normal" cap-height="667" x-height="387" underline-position="-88" underline-thickness="46" />
<missing-glyph  horiz-adv-x="250" d="" />
<glyph glyph-name="NULL" d="" />
<glyph glyph-name="CR" unicode="&#xd;" horiz-adv-x="250" d="" />
<glyph glyph-name="space" unicode="&#x20;" horiz-adv-x="250" d="" />
<glyph glyph-name="exclam" unicode="&#x21;" horiz-adv-x="301" d="M159 197 L160 219 C164 353 167 382 184 480 L203 577 C205 587 206 595 206 606 C206 647 182 677 150 677 C118 677 94 647 94 607 C94 599 95 588 97 577 L117 480 C134 381 138 344 141 197 L159 197 Z M150 107 C116 107 88 81 88 50 C88 19 116 -7 151 -7 C185 -7 213 18 213 49 C213 82 186 107 150 107 L150 107 Z " />
<glyph glyph-name="quotedbl" unicode="&#x22;" horiz-adv-x="310" d="M92 413 L114 576 C117 592 118 607 118 617 C118 652 103 677 80 677 C59 677 44 652 44 616 C44 607 45 590 47 576 L70 413 L92 413 Z M239 413 L262 576 C266 601 266 606 266 617 C266 652 250 677 228 677 C206 677 191 652 191 616 C191 607 192 596 195 576 L218 413 L239 413 Z " />
<glyph glyph-name="numbersign" unicode="&#x23;" horiz-adv-x="550" d="M228 442 L260 647 L193 647 L162 442 L62 442 L62 417 L158 417 L130 238 L30 238 L30 213 L126 213 L93 0 L160 0 L193 213 L322 213 L289 0 L356 0 L389 213 L488 213 L487 238 L392 238 L420 417 L520 417 L519 442 L424 442 L456 647 L389 647 L358 442 L228 442 Z M224 417 L354 417 L326 238 L197 238 L224 417 Z " />
<glyph glyph-name="dollar" unicode="&#x24;" horiz-adv-x="550" d="M284 395 L284 648 C352 645 381 625 379 581 C380 549 382 540 388 526 C397 506 416 493 439 493 C464 493 482 515 482 545 C482 612 394 666 284 668 L284 749 L255 749 L255 667 C140 656 59 582 59 488 C59 421 102 368 189 326 L255 296 L255 21 C232 22 214 25 197 31 C161 42 132 74 133 101 C133 106 136 117 141 133 C144 142 146 150 146 156 C146 191 123 218 94 218 C64 218 40 189 40 153 C40 77 135 9 255 1 L255 -88 L284 -88 L284 1 C399 7 487 94 487 202 C487 272 449 319 359 361 L284 395 Z M247 411 L215 427 C159 456 129 495 129 541 C129 598 176 640 247 647 L247 411 Z M284 280 L338 255 C404 223 432 191 432 147 C432 111 408 72 372 48 C348 32 321 24 284 21 L284 280 Z " />
<glyph glyph-name="percent" unicode="&#x25;" horiz-adv-x="756" d="M177 653 C98 653 31 576 31 487 C31 397 98 320 177 320 C254 320 322 397 322 485 C322 576 255 653 177 653 L177 653 Z M100 521 C100 606 120 635 176 635 C234 635 253 606 253 521 L253 451 C253 367 234 338 176 338 C120 338 100 367 100 451 L100 521 Z M559 647 L527 647 L197 0 L229 0 L559 647 Z M580 327 C501 327 434 250 434 161 C434 71 501 -6 580 -6 C657 -6 725 71 725 159 C725 250 658 327 580 327 L580 327 Z M503 196 C503 280 523 309 579 309 C637 309 656 280 656 196 L656 126 C656 41 637 12 579 12 C523 12 503 41 503 126 L503 196 Z " />
<glyph glyph-name="ampersand" unicode="&#x26;" horiz-adv-x="653" d="M455 0 L624 0 L624 18 L539 18 L470 112 C523 183 539 228 543 322 L624 322 L624 340 L429 340 L429 322 L519 322 C521 247 497 175 455 131 L304 340 C402 376 438 409 438 460 C438 515 384 551 300 551 C210 551 149 511 149 453 C149 430 156 413 179 380 L220 322 C160 295 137 282 109 260 C68 228 44 184 44 139 C44 100 65 55 95 29 C126 3 170 -10 226 -10 C301 -10 360 10 412 54 L455 0 Z M256 408 C215 459 213 462 213 485 C213 515 245 531 302 531 C355 531 381 508 381 461 C381 402 357 372 294 353 L256 408 Z M400 71 C355 35 323 21 283 21 C236 21 197 44 162 91 C133 133 114 176 114 204 C114 244 147 273 231 306 L400 71 Z " />
<glyph glyph-name="quotesingle" unicode="&#x27;" horiz-adv-x="162" d="M92 413 L114 576 C117 592 118 607 118 617 C118 652 103 677 80 677 C59 677 44 652 44 616 C44 607 45 590 47 576 L70 413 L92 413 Z " />
<glyph glyph-name="parenleft" unicode="&#x28;" horiz-adv-x="291" d="M241 674 C111 526 42 377 42 244 C42 111 110 -37 241 -186 L255 -177 C159 -34 120 88 120 244 C120 399 160 523 255 665 L241 674 Z " />
<glyph glyph-name="parenright" unicode="&#x29;" horiz-adv-x="291" d="M37 665 C132 522 172 399 172 244 C172 88 133 -34 37 -177 L51 -186 C182 -37 250 111 250 244 C250 377 181 525 51 674 L37 665 Z " />
<glyph glyph-name="asterisk" unicode="&#x2a;" horiz-adv-x="550" d="M271 510 C263 508 260 506 256 500 L155 554 C129 568 124 570 112 570 C93 570 77 554 77 535 C77 512 90 504 137 501 L253 492 C253 485 254 482 259 477 L172 406 C145 385 139 378 139 365 C139 347 157 331 178 331 C197 331 205 339 221 373 L267 472 C270 470 272 470 275 470 C278 470 280 470 284 472 L331 375 C347 340 355 332 374 332 C394 332 413 348 413 366 C413 379 407 387 381 407 L292 477 C296 482 297 485 297 492 L413 503 C443 505 445 505 455 510 C467 515 473 525 473 537 C473 556 457 572 439 572 C426 572 421 570 395 555 L294 500 C290 506 288 508 280 510 L305 613 C311 636 311 636 311 644 C311 664 296 677 274 677 C252 677 238 664 238 644 C238 635 238 635 244 613 L271 510 Z " />
<glyph glyph-name="plus" unicode="&#x2b;" horiz-adv-x="550" d="M258 308 L258 131 L288 131 L288 308 L493 308 L493 338 L288 338 L288 515 L258 515 L258 338 L56 338 L56 308 L258 308 Z " />
<glyph glyph-name="comma" unicode="&#x2c;" horiz-adv-x="271" d="M114 -152 C180 -99 215 -43 215 12 C215 69 176 112 124 112 C84 112 56 86 56 48 C56 15 76 -7 106 -7 C134 -7 153 13 153 41 C153 44 153 50 152 56 C179 44 192 26 192 -3 C192 -44 167 -82 100 -140 L114 -152 Z " />
<glyph glyph-name="hyphen" unicode="&#x2d;" horiz-adv-x="208" d="M208 230 L0 230 L0 170 L208 170 L208 230 Z " />
<glyph glyph-name="period" unicode="&#x2e;" horiz-adv-x="271" d="M135 107 C101 107 73 81 73 50 C73 19 101 -7 136 -7 C170 -7 198 18 198 49 C198 82 171 107 135 107 L135 107 Z " />
<glyph glyph-name="slash" unicode="&#x2f;" horiz-adv-x="449" d="M409 667 L350 667 L-43 -180 L16 -180 L409 667 Z " />
<glyph glyph-name="zero" unicode="0" horiz-adv-x="550" d="M275 657 C221 657 174 633 133 583 C80 518 46 417 46 323 C46 236 76 142 123 77 C167 18 216 -10 275 -10 C330 -10 375 14 417 64 C469 128 504 230 504 320 C504 411 475 504 427 570 C384 629 334 657 275 657 L275 657 Z M139 396 C139 574 174 637 275 637 C376 637 411 575 411 396 L411 251 C411 72 376 10 275 10 C174 10 139 73 139 251 L139 396 Z " />
<glyph glyph-name="one" unicode="1" horiz-adv-x="550" d="M338 647 L124 637 L124 621 L231 621 C255 621 258 618 258 595 L258 18 L124 18 L124 0 L454 0 L454 18 L338 18 L338 647 Z " />
<glyph glyph-name="two" unicode="2" horiz-adv-x="550" d="M475 0 L475 177 L460 177 C447 82 444 79 366 77 L116 77 L294 243 C385 327 385 327 413 361 C452 408 472 453 472 494 C472 537 448 585 413 613 C378 641 324 657 267 657 C155 657 74 595 74 509 C74 457 106 419 150 419 C179 419 200 437 200 464 C200 489 178 508 151 508 C143 508 137 507 131 505 C113 500 113 500 111 500 C101 500 95 508 95 523 C95 582 161 634 235 634 C323 634 382 566 382 463 C382 418 372 383 349 347 C324 308 314 297 224 211 L50 46 L50 0 L475 0 Z " />
<glyph glyph-name="three" unicode="3" horiz-adv-x="550" d="M150 358 L150 340 L191 340 C330 340 390 289 390 171 C390 67 336 10 238 10 C204 10 170 18 147 31 C129 42 115 56 115 64 C115 68 118 71 131 79 C149 89 157 102 157 121 C157 148 140 166 115 166 C86 166 66 143 66 108 C66 40 141 -10 244 -10 C309 -10 367 7 408 39 C454 74 483 130 483 185 C483 244 446 299 388 323 C355 337 329 343 264 349 C319 359 344 370 379 397 C422 430 443 468 443 513 C443 597 367 657 262 657 C172 657 104 612 104 551 C104 521 123 498 148 498 C170 498 186 517 186 542 C186 560 177 575 161 583 C151 589 149 591 149 597 C149 615 198 634 246 634 C286 634 316 623 335 602 C350 584 356 561 356 516 C356 457 347 426 323 401 C294 372 250 358 191 358 L150 358 Z " />
<glyph glyph-name="four" unicode="4" horiz-adv-x="550" d="M368 174 L484 174 L484 99 L505 99 L505 273 L484 273 L484 199 L368 199 L368 654 L329 654 L29 216 L29 174 L288 174 L288 18 L185 18 L185 0 L472 0 L472 18 L368 18 L368 174 Z M288 199 L49 199 L288 546 L288 199 Z " />
<glyph glyph-name="five" unicode="5" horiz-adv-x="550" d="M149 570 L352 570 C416 569 431 587 436 672 L422 672 C410 650 405 647 377 647 L177 647 C132 647 124 639 124 597 L109 339 C161 362 184 368 221 368 C330 368 389 308 389 198 C389 76 336 10 238 10 C183 10 108 40 108 61 C108 65 110 68 114 70 C147 87 156 99 156 124 C156 149 137 168 113 168 C84 168 62 142 62 108 C62 41 141 -10 245 -10 C378 -10 482 78 482 191 C482 306 381 388 238 388 C199 388 173 384 137 372 L149 570 Z " />
<glyph glyph-name="six" unicode="6" horiz-adv-x="550" d="M445 687 C357 671 302 650 240 611 C119 534 50 406 50 260 C50 186 68 123 102 78 C144 23 212 -10 283 -10 C407 -10 505 89 505 213 C505 338 417 429 297 429 C246 429 209 415 167 380 C179 537 269 630 445 667 L445 687 Z M282 407 C320 407 357 393 378 372 C402 347 412 299 412 203 C412 58 380 10 282 10 C185 10 143 70 143 210 C143 277 149 318 162 343 C183 382 230 407 282 407 L282 407 Z " />
<glyph glyph-name="seven" unicode="7" horiz-adv-x="550" d="M450 570 L305 280 C296 263 295 260 250 157 C232 115 223 81 223 53 C223 14 243 -10 277 -10 C308 -10 332 14 332 46 C332 55 329 76 326 88 L316 127 C312 144 310 154 310 165 C310 210 329 265 386 379 L509 629 C512 636 514 640 514 641 C514 646 511 647 499 647 L100 647 L50 468 L68 468 L88 516 C104 560 117 568 171 570 L450 570 Z " />
<glyph glyph-name="eight" unicode="8" horiz-adv-x="550" d="M314 343 C360 353 381 361 407 379 C449 406 473 447 473 493 C473 584 385 657 275 657 C165 657 77 584 77 493 C77 447 101 406 143 379 C169 361 190 353 236 343 C186 335 163 327 133 310 C78 278 46 226 46 169 C46 67 145 -10 275 -10 C405 -10 504 67 504 169 C504 226 472 278 417 310 C387 327 364 334 314 343 L314 343 Z M275 637 C312 637 339 628 357 609 C379 587 387 557 387 498 C387 437 379 409 357 386 C340 368 312 358 275 358 C238 358 211 367 193 386 C170 410 163 437 163 501 C163 598 195 637 275 637 L275 637 Z M275 331 C362 331 410 273 410 168 C410 68 361 10 275 10 C189 10 140 68 140 170 C140 273 189 331 275 331 L275 331 Z " />
<glyph glyph-name="nine" unicode="9" horiz-adv-x="550" d="M99 -41 C197 -26 264 3 334 59 C441 143 499 261 499 392 C499 547 406 657 275 657 C148 657 45 552 45 422 C45 306 140 212 258 212 C314 212 345 228 383 274 C361 99 265 -1 99 -21 L99 -41 Z M272 637 C336 637 380 607 393 554 C400 522 406 464 406 418 C406 359 397 318 380 292 C354 255 312 234 262 234 C175 234 138 286 138 409 C138 478 143 527 153 559 C168 609 211 637 272 637 L272 637 Z " />
<glyph glyph-name="colon" unicode="&#x3a;" horiz-adv-x="271" d="M135 400 C101 400 73 375 73 344 C73 312 101 287 136 287 C170 287 198 312 198 343 C198 375 171 400 135 400 L135 400 Z M135 107 C101 107 73 81 73 50 C73 19 101 -7 136 -7 C170 -7 198 18 198 49 C198 82 171 107 135 107 L135 107 Z " />
<glyph glyph-name="semicolon" unicode="&#x3b;" horiz-adv-x="271" d="M122 400 C88 400 60 375 60 343 C60 312 88 287 123 287 C157 287 185 312 185 343 C185 375 158 400 122 400 L122 400 Z M114 -152 C180 -99 215 -43 215 12 C215 69 176 112 124 112 C84 112 56 86 56 48 C56 15 76 -7 106 -7 C134 -7 153 13 153 41 C153 44 153 50 152 56 C179 44 192 26 192 -3 C192 -44 167 -82 100 -140 L114 -152 Z " />
<glyph glyph-name="less" unicode="&#x3c;" horiz-adv-x="550" d="M501 595 L50 327 L50 322 L501 52 L501 114 L120 343 L501 571 L501 595 Z " />
<glyph glyph-name="equal" unicode="&#x3d;" horiz-adv-x="550" d="M493 399 L56 399 L56 369 L493 369 L493 399 Z M493 279 L56 279 L56 249 L493 249 L493 279 Z " />
<glyph glyph-name="greater" unicode="&#x3e;" horiz-adv-x="550" d="M50 52 L501 319 L501 324 L50 595 L50 532 L430 303 L50 75 L50 52 Z " />
<glyph glyph-name="question" unicode="&#x3f;" horiz-adv-x="415" d="M162 196 C162 261 170 276 232 324 L287 365 C344 407 371 455 371 514 C371 609 300 677 201 677 C111 677 42 621 42 546 C42 512 61 488 87 488 C111 488 127 505 127 531 C127 552 118 565 96 575 C81 582 77 587 77 594 C77 625 141 657 201 657 C274 657 330 619 330 569 C330 538 312 511 270 476 L235 446 C188 407 173 389 160 357 C149 328 143 291 143 251 C143 233 144 220 148 193 L162 196 Z M161 107 C127 107 99 81 99 50 C99 19 127 -7 162 -7 C196 -7 224 18 224 49 C224 82 197 107 161 107 L161 107 Z " />
<glyph glyph-name="at" unicode="&#x40;" horiz-adv-x="819" d="M648 83 C580 35 511 12 431 12 C241 12 90 151 90 326 C90 500 241 639 430 639 C510 639 583 613 641 563 C700 512 728 453 728 379 C728 309 694 250 631 206 C601 185 572 174 548 174 C531 174 523 181 523 196 C523 206 527 228 532 248 L595 487 L525 487 L511 432 C494 479 471 496 423 496 C323 496 222 388 222 279 C222 205 275 149 346 149 C396 149 434 174 462 223 C467 165 483 148 535 148 C569 148 608 161 643 183 C716 231 756 299 756 379 C756 541 614 664 429 664 C227 664 62 512 62 326 C62 138 226 -13 431 -13 C533 -13 626 21 693 83 L648 83 Z M432 479 C473 479 498 450 498 402 C498 368 480 300 459 253 C431 193 395 163 349 163 C310 163 286 189 286 232 C286 273 311 357 338 409 C361 453 396 479 432 479 L432 479 Z " />
<glyph glyph-name="A" unicode="A" horiz-adv-x="667" d="M401 214 L475 18 L371 18 L371 0 L670 0 L670 18 L586 18 L346 667 L316 667 L66 18 L-4 18 L-4 0 L191 0 L191 18 L94 18 L168 214 L401 214 Z M395 232 L175 232 L285 527 L395 232 Z " />
<glyph glyph-name="B" unicode="B" horiz-adv-x="677" d="M134 18 L37 18 L37 0 L326 0 C435 0 498 12 546 43 C597 76 622 121 622 179 C622 233 603 269 558 300 C519 327 483 339 404 350 C529 373 593 426 593 504 C593 557 563 602 507 631 C462 655 394 667 299 667 L37 667 L37 649 L134 649 L134 18 Z M227 358 L227 649 L288 649 C438 649 495 608 495 500 C495 398 441 358 304 358 L227 358 Z M227 18 L227 340 L301 340 C454 340 511 296 511 178 C511 67 454 18 326 18 L227 18 Z " />
<glyph glyph-name="C" unicode="C" horiz-adv-x="650" d="M597 667 L582 667 L546 617 C483 661 435 677 370 677 C281 677 199 639 137 569 C80 505 51 423 51 328 C51 238 78 163 136 97 C196 28 277 -10 362 -10 C425 -10 475 6 546 50 L582 0 L597 0 L597 185 L582 185 C560 133 547 110 525 85 C483 37 423 10 358 10 C286 10 223 41 194 89 C170 127 164 178 164 324 C164 432 170 505 182 544 C204 615 271 657 363 657 C424 657 479 637 520 599 C552 570 567 544 582 494 L597 494 L597 667 Z " />
<glyph glyph-name="D" unicode="D" horiz-adv-x="741" d="M134 18 L37 18 L37 0 L304 0 C450 0 518 22 590 91 C654 153 690 240 690 335 C690 428 655 515 594 574 C524 642 445 667 303 667 L37 667 L37 649 L134 649 L134 18 Z M227 18 L227 649 L303 649 C405 649 461 637 506 604 C558 567 576 501 576 349 C576 200 564 127 532 88 C492 38 427 18 305 18 L227 18 Z " />
<glyph glyph-name="E" unicode="E" horiz-adv-x="644" d="M557 667 L37 667 L37 649 L132 649 L132 18 L37 18 L37 0 L581 0 L603 208 L588 208 C572 153 558 116 543 92 C501 26 481 17 381 18 L225 18 L225 329 L276 329 C366 330 403 299 404 221 L404 198 L419 198 L419 472 L404 472 L404 453 C404 376 369 347 280 347 L225 347 L225 649 L324 649 C476 651 524 617 557 486 L571 486 L557 667 Z " />
<glyph glyph-name="F" unicode="F" horiz-adv-x="588" d="M559 667 L37 667 L37 649 L132 649 L132 18 L37 18 L37 0 L337 0 L337 18 L225 18 L225 329 L297 329 C386 330 419 304 424 227 L424 205 L439 205 L439 475 L424 475 L424 457 C420 364 398 345 298 347 L225 347 L225 649 L359 649 C480 653 536 605 559 475 L574 475 L559 667 Z " />
<glyph glyph-name="G" unicode="G" horiz-adv-x="698" d="M583 667 L568 667 L531 625 C474 661 424 677 363 677 C289 677 217 647 159 593 C87 525 51 437 51 329 C51 235 77 161 133 94 C191 25 266 -10 356 -10 C436 -10 506 18 554 69 C587 104 600 137 613 212 L687 212 L687 230 L379 230 L379 212 L493 212 C493 152 491 129 483 105 C462 43 411 10 336 10 C260 10 207 45 183 108 C170 144 164 212 164 316 C164 431 174 522 190 563 C214 623 273 657 352 657 C460 657 534 594 568 471 L583 471 L583 667 Z " />
<glyph glyph-name="H" unicode="H" horiz-adv-x="781" d="M556 330 L556 18 L444 18 L444 0 L744 0 L744 18 L649 18 L649 649 L744 649 L744 667 L444 667 L444 649 L556 649 L556 348 L225 348 L225 649 L337 649 L337 667 L37 667 L37 649 L132 649 L132 18 L37 18 L37 0 L337 0 L337 18 L225 18 L225 330 L556 330 Z " />
<glyph glyph-name="I" unicode="I" horiz-adv-x="367" d="M132 18 L37 18 L37 0 L330 0 L330 18 L225 18 L225 649 L330 649 L330 667 L37 667 L37 649 L132 649 L132 18 Z " />
<glyph glyph-name="J" unicode="J" horiz-adv-x="421" d="M295 649 L400 649 L400 667 L107 667 L107 649 L202 649 L202 63 C202 30 199 4 193 -9 C182 -36 152 -55 121 -55 C102 -55 83 -45 83 -35 C83 -32 85 -29 88 -27 C106 -10 110 -3 110 12 C110 38 91 58 65 58 C37 58 15 36 15 6 C15 -42 57 -75 118 -75 C170 -75 219 -51 254 -8 C285 30 295 69 295 149 L295 649 Z " />
<glyph glyph-name="K" unicode="K" horiz-adv-x="722" d="M132 18 L37 18 L37 0 L330 0 L330 18 L225 18 L225 649 L330 649 L330 667 L37 667 L37 649 L132 649 L132 18 Z M345 407 L583 649 L675 649 L675 667 L443 667 L443 649 L549 649 L256 353 L532 18 L435 18 L435 0 L722 0 L722 18 L665 18 L345 407 Z " />
<glyph glyph-name="L" unicode="L" horiz-adv-x="624" d="M579 0 L594 205 L579 205 C545 57 503 15 391 18 L225 18 L225 649 L330 649 L330 667 L37 667 L37 649 L132 649 L132 18 L37 18 L37 0 L579 0 Z " />
<glyph glyph-name="M" unicode="M" horiz-adv-x="840" d="M369 0 L390 0 L619 644 L619 18 L514 18 L514 0 L807 0 L807 18 L712 18 L712 649 L807 649 L807 667 L601 667 L423 166 L253 667 L33 667 L33 649 L121 649 L121 18 L33 18 L33 0 L242 0 L242 18 L144 18 L144 649 L369 0 Z " />
<glyph glyph-name="N" unicode="N" horiz-adv-x="746" d="M613 0 L629 0 L629 649 L710 649 L710 667 L508 667 L508 649 L606 649 L606 185 L258 667 L26 667 L26 649 L121 649 L121 18 L26 18 L26 0 L249 0 L249 18 L144 18 L144 644 L613 0 Z " />
<glyph glyph-name="O" unicode="O" horiz-adv-x="726" d="M363 677 C282 677 206 644 146 583 C84 520 51 433 51 334 C51 241 79 160 133 99 C194 28 275 -10 363 -10 C538 -10 675 139 675 330 C675 426 648 506 593 568 C532 639 451 677 363 677 L363 677 Z M363 657 C446 657 514 620 540 560 C558 519 562 481 562 330 C562 201 559 161 547 124 C523 52 455 10 363 10 C279 10 212 47 186 107 C168 148 164 187 164 333 C164 466 167 505 180 544 C203 615 271 657 363 657 L363 657 Z " />
<glyph glyph-name="P" unicode="P" horiz-adv-x="629" d="M225 323 L345 323 C431 323 489 336 532 366 C579 398 605 443 605 492 C605 541 580 589 537 621 C496 652 434 667 345 667 L37 667 L37 649 L132 649 L132 18 L37 18 L37 0 L337 0 L337 18 L225 18 L225 323 Z M225 341 L225 649 L337 649 C459 649 492 617 492 496 C492 375 458 341 338 341 L225 341 Z " />
<glyph glyph-name="Q" unicode="Q" horiz-adv-x="726" d="M414 -6 C465 3 508 23 550 57 C632 124 675 218 675 334 C675 426 647 507 593 568 C532 639 451 677 363 677 C281 677 207 645 146 583 C84 519 51 434 51 334 C51 161 157 23 311 -6 L312 -19 C314 -160 402 -214 635 -217 L635 -204 C463 -198 414 -155 414 -13 L414 -6 Z M363 657 C446 657 514 620 540 560 C558 519 562 481 562 330 C562 201 559 161 547 124 C523 52 455 10 363 10 C279 10 212 47 186 107 C168 148 164 187 164 333 C164 466 167 505 180 544 C203 615 271 657 363 657 L363 657 Z " />
<glyph glyph-name="R" unicode="R" horiz-adv-x="708" d="M225 345 L298 345 C410 342 451 308 455 214 L455 165 C455 106 465 71 492 41 C519 10 554 -5 602 -5 C632 -5 649 -1 679 12 L673 29 C652 19 641 16 628 16 C608 16 589 26 581 42 C573 56 571 72 571 108 L571 163 C568 270 499 334 368 350 C453 359 493 371 532 399 C574 431 595 468 595 512 C595 564 572 605 525 634 C483 659 440 667 336 667 L37 667 L37 649 L132 649 L132 18 L37 18 L37 0 L337 0 L337 18 L225 18 L225 345 Z M225 363 L225 649 L311 649 C385 649 430 636 457 608 C479 585 492 547 492 506 C492 409 432 363 303 363 L225 363 Z " />
<glyph glyph-name="S" unicode="S" horiz-adv-x="552" d="M458 676 L443 676 L408 633 C361 663 317 677 268 677 C154 677 67 591 67 479 C67 389 116 337 225 310 L310 290 C413 265 451 229 451 157 C451 70 385 10 288 10 C220 10 156 42 116 96 C94 126 84 152 75 207 L53 207 L60 0 L75 0 L114 56 C171 8 217 -10 283 -10 C411 -10 499 82 499 216 C499 322 446 381 325 409 L266 423 C152 450 114 478 114 535 C114 603 178 657 260 657 C318 657 369 634 402 593 C421 569 430 547 437 503 L459 503 L458 676 Z " />
<glyph glyph-name="T" unicode="T" horiz-adv-x="632" d="M362 649 L413 649 C514 648 558 604 602 457 L617 459 L602 667 L23 667 L15 459 L30 457 C44 520 56 549 81 587 C119 638 143 649 216 649 L269 649 L269 18 L159 18 L159 0 L472 0 L472 18 L362 18 L362 649 Z " />
<glyph glyph-name="U" unicode="U" horiz-adv-x="707" d="M220 649 L315 649 L315 667 L22 667 L22 649 L127 649 L127 249 C127 139 144 84 190 44 C230 10 298 -10 379 -10 C463 -10 522 15 559 67 C584 104 594 144 594 222 L594 649 L677 649 L677 667 L483 667 L483 649 L571 649 L571 222 C571 143 566 119 546 87 C515 37 463 10 397 10 C340 10 289 29 258 62 C228 94 220 126 220 205 L220 649 Z " />
<glyph glyph-name="V" unicode="V" horiz-adv-x="610" d="M359 144 L165 649 L271 649 L271 667 L-18 667 L-18 649 L53 649 L307 -10 L330 -10 L559 649 L632 649 L632 667 L425 667 L425 649 L534 649 L359 144 Z " />
<glyph glyph-name="W" unicode="W" horiz-adv-x="863" d="M619 143 L501 431 L587 649 L648 649 L648 667 L-11 667 L-11 649 L54 649 L310 -10 L330 -10 L451 292 L569 -10 L588 -10 L817 649 L877 649 L877 667 L692 667 L692 649 L792 649 L619 143 Z M164 649 L307 649 L437 325 L362 135 L164 649 Z M422 649 L554 649 L489 467 L422 649 Z " />
<glyph glyph-name="X" unicode="X" horiz-adv-x="641" d="M348 385 L531 649 L609 649 L609 667 L403 667 L403 649 L500 649 L334 408 L176 649 L284 649 L284 667 L-11 667 L-11 649 L50 649 L270 310 L76 18 L-1 18 L-1 0 L208 0 L208 18 L107 18 L284 288 L459 18 L361 18 L361 0 L652 0 L652 18 L585 18 L348 385 Z " />
<glyph glyph-name="Y" unicode="Y" horiz-adv-x="607" d="M355 312 L553 649 L628 649 L628 667 L418 667 L418 649 L526 649 L349 353 L165 649 L262 649 L262 667 L-22 667 L-22 649 L41 649 L262 312 L262 18 L152 18 L152 0 L474 0 L474 18 L355 18 L355 312 Z " />
<glyph glyph-name="Z" unicode="Z" horiz-adv-x="614" d="M564 0 L585 208 L570 208 C529 54 485 13 367 18 L153 18 L585 667 L89 667 L68 464 L82 464 C120 605 160 648 254 649 L455 649 L33 24 L33 0 L564 0 Z " />
<glyph glyph-name="bracketleft" unicode="&#x5b;" horiz-adv-x="291" d="M148 649 L283 649 L283 667 L73 667 L73 -180 L283 -180 L283 -162 L148 -162 L148 649 Z " />
<glyph glyph-name="backslash" unicode="&#x5c;" horiz-adv-x="449" d="M45 667 L438 -180 L497 -180 L104 667 L45 667 Z " />
<glyph glyph-name="bracketright" unicode="&#x5d;" horiz-adv-x="291" d="M143 -162 L8 -162 L8 -180 L218 -180 L218 667 L8 667 L8 649 L143 649 L143 -162 Z " />
<glyph glyph-name="asciicircum" unicode="&#x5e;" horiz-adv-x="550" d="M577 285 L285 700 L278 700 L-28 285 L89 285 L314 591 L533 285 L577 285 Z " />
<glyph glyph-name="underscore" unicode="&#x5f;" horiz-adv-x="504" d="M24 -88 L24 -134 L481 -134 L481 -88 L24 -88 Z " />
<glyph glyph-name="grave" unicode="&#x60;" horiz-adv-x="533" d="M198 613 L133 613 C125 613 121 611 121 606 C121 603 124 598 128 595 L287 466 C290 463 291 463 292 463 C294 463 295 464 295 466 C295 467 295 469 294 470 L198 613 Z " />
<glyph glyph-name="a" unicode="a" horiz-adv-x="464" d="M303 215 C222 213 185 208 144 194 C79 171 43 131 43 82 C43 26 89 -10 162 -10 C225 -10 268 15 303 71 C311 13 334 -10 382 -10 C408 -10 419 -6 454 18 L444 30 C430 19 421 15 410 15 C388 15 380 26 380 57 L380 282 C380 324 370 349 346 366 C319 386 277 397 232 397 C147 397 73 352 73 301 C73 275 90 257 114 257 C137 257 154 274 154 297 C154 309 150 315 135 329 C128 336 125 340 125 342 C125 359 177 380 221 380 C247 380 268 375 283 364 C298 354 303 340 303 315 L303 215 Z M303 167 C303 131 299 106 292 89 C275 54 237 30 196 30 C150 30 119 57 119 99 C119 132 138 158 173 176 C208 193 236 198 303 200 L303 167 Z " />
<glyph glyph-name="b" unicode="b" horiz-adv-x="542" d="M170 667 L20 667 L20 649 L93 649 L93 18 L20 18 L20 0 L170 0 L170 69 C210 11 245 -10 306 -10 C414 -10 498 80 498 197 C498 312 417 397 308 397 C246 397 207 373 170 313 L170 667 Z M405 163 C405 119 403 87 399 71 C388 31 358 10 311 10 C270 10 233 28 206 60 C181 90 168 138 168 201 C168 248 176 283 195 312 C221 354 261 377 307 377 C344 377 374 363 389 339 C401 320 405 298 405 244 L405 163 Z " />
<glyph glyph-name="c" unicode="c" horiz-adv-x="443" d="M409 126 C399 93 389 76 372 59 C342 28 296 10 249 10 C209 10 177 24 158 51 C143 72 137 102 137 165 L137 228 C137 336 173 378 266 378 C312 378 357 365 357 351 C357 348 355 346 348 341 C332 330 323 313 323 296 C323 269 341 249 367 249 C394 249 413 268 413 296 C413 354 350 397 265 397 C140 397 44 308 44 192 C44 79 137 -10 254 -10 C307 -10 352 7 387 41 C409 62 418 81 432 126 L409 126 Z " />
<glyph glyph-name="d" unicode="d" horiz-adv-x="540" d="M370 0 L520 0 L520 18 L447 18 L447 667 L274 667 L274 649 L370 649 L370 307 C332 372 294 397 231 397 C122 397 44 312 44 194 C44 77 125 -10 233 -10 C297 -10 333 15 370 84 L370 0 Z M137 233 C137 277 141 315 148 331 C161 361 188 377 227 377 C311 377 366 305 366 192 C366 83 311 10 230 10 C193 10 165 26 151 55 C141 78 137 105 137 165 L137 233 Z " />
<glyph glyph-name="e" unicode="e" horiz-adv-x="475" d="M135 228 L437 228 C432 326 353 397 249 397 C188 397 136 373 96 325 C63 286 44 238 44 192 C44 83 143 -10 258 -10 C349 -10 416 44 433 130 L411 130 C394 56 333 10 253 10 C214 10 180 23 161 45 C141 67 135 92 135 151 L135 228 Z M337 246 L135 246 L135 280 C135 346 169 377 240 377 C308 377 337 351 337 289 L337 246 Z " />
<glyph glyph-name="f" unicode="f" horiz-adv-x="328" d="M191 369 L303 369 L303 387 L191 387 L191 557 C191 609 194 623 209 640 C221 653 240 661 262 661 C281 661 292 658 303 649 C286 636 280 625 280 608 C280 584 296 566 318 566 C340 566 356 585 356 610 C356 649 319 677 267 677 C227 677 188 659 159 627 C125 588 114 552 114 474 L114 387 L18 387 L18 369 L114 369 L114 18 L18 18 L18 0 L296 0 L296 18 L191 18 L191 369 Z " />
<glyph glyph-name="g" unicode="g" horiz-adv-x="481" d="M109 134 C82 116 82 116 76 110 C44 82 29 53 29 20 C29 -26 55 -55 108 -69 C50 -93 29 -116 29 -156 C29 -225 112 -274 227 -274 C360 -274 452 -198 452 -88 C452 -44 438 -13 413 3 C393 15 373 18 323 18 L137 18 C88 18 64 30 64 54 C64 77 92 106 140 133 C170 122 195 117 227 117 C325 117 399 176 399 255 C399 290 392 312 370 343 C383 356 392 361 401 361 C409 361 414 357 416 349 C420 324 428 315 447 315 C466 315 479 329 479 352 C479 376 461 391 433 391 C408 391 391 383 358 353 C318 386 285 397 234 397 C135 397 64 339 64 257 C64 210 81 177 123 144 L109 134 Z M146 288 C146 354 168 377 232 377 C265 377 289 370 302 357 C313 346 316 331 316 293 L316 228 C316 156 298 137 231 137 C164 137 146 156 146 228 L146 288 Z M160 -70 L196 -70 L315 -70 C371 -70 371 -70 384 -75 C399 -80 407 -94 407 -115 C407 -191 329 -254 233 -254 C155 -254 103 -211 103 -148 C103 -118 113 -96 140 -70 L160 -70 Z " />
<glyph glyph-name="h" unicode="h" horiz-adv-x="574" d="M170 667 L20 667 L20 649 L93 649 L93 18 L20 18 L20 0 L251 0 L251 18 L170 18 L170 177 C170 235 177 281 190 304 C215 349 260 374 313 374 C373 374 397 349 397 286 L397 18 L324 18 L324 0 L555 0 L555 18 L474 18 L474 286 C474 362 430 397 336 397 C265 397 223 380 170 327 L170 667 Z " />
<glyph glyph-name="i" unicode="i" horiz-adv-x="291" d="M198 387 L40 387 L40 369 L121 369 L121 18 L40 18 L40 0 L271 0 L271 18 L198 18 L198 387 Z M148 654 C119 654 95 630 95 601 C95 571 119 547 149 547 C178 547 202 571 202 600 C202 630 179 654 148 654 L148 654 Z " />
<glyph glyph-name="j" unicode="j" horiz-adv-x="242" d="M170 387 L20 387 L20 369 L93 369 L93 -182 C93 -233 79 -254 44 -254 C24 -254 12 -246 12 -232 C12 -228 13 -223 15 -219 C22 -204 22 -204 22 -198 C22 -172 8 -157 -15 -157 C-38 -157 -53 -174 -53 -202 C-53 -244 -15 -274 38 -274 C79 -274 119 -252 143 -217 C164 -185 170 -154 170 -77 L170 387 Z M124 654 C95 654 71 630 71 601 C71 571 95 547 125 547 C154 547 178 571 178 600 C178 630 155 654 124 654 L124 654 Z " />
<glyph glyph-name="k" unicode="k" horiz-adv-x="539" d="M178 667 L20 667 L20 649 L101 649 L101 18 L20 18 L20 0 L251 0 L251 18 L178 18 L178 667 Z M283 250 L424 369 L498 369 L498 387 L283 387 L283 369 L387 369 L201 214 L365 18 L305 18 L305 0 L539 0 L539 18 L486 18 L283 250 Z " />
<glyph glyph-name="l" unicode="l" horiz-adv-x="271" d="M178 667 L9 667 L9 649 L101 649 L101 18 L9 18 L9 0 L262 0 L262 18 L178 18 L178 667 Z " />
<glyph glyph-name="m" unicode="m" horiz-adv-x="832" d="M190 387 L40 387 L40 369 L113 369 L113 18 L40 18 L40 0 L271 0 L271 18 L190 18 L190 189 C190 258 193 288 204 312 C220 348 263 374 308 374 C358 374 385 348 385 299 L385 18 L312 18 L312 0 L543 0 L543 18 L462 18 L462 206 C462 277 466 299 483 325 C503 356 540 374 580 374 C630 374 654 350 654 299 L654 18 L581 18 L581 0 L812 0 L812 18 L731 18 L731 287 C731 329 724 351 704 369 C683 388 652 397 608 397 C549 397 506 381 461 343 C438 382 405 397 343 397 C280 397 238 382 190 343 L190 387 Z " />
<glyph glyph-name="n" unicode="n" horiz-adv-x="575" d="M190 387 L40 387 L40 369 L113 369 L113 18 L40 18 L40 0 L271 0 L271 18 L190 18 L190 178 C190 251 195 289 210 313 C231 349 277 374 321 374 C373 374 397 348 397 292 L397 18 L324 18 L324 0 L555 0 L555 18 L474 18 L474 265 C474 310 466 336 444 357 C419 383 379 397 334 397 C275 397 235 378 190 330 L190 387 Z " />
<glyph glyph-name="o" unicode="o" horiz-adv-x="517" d="M258 397 C140 397 44 306 44 194 C44 81 139 -10 258 -10 C376 -10 473 80 473 191 C473 307 379 397 258 397 L258 397 Z M137 218 C140 306 141 312 150 329 C166 359 207 377 258 377 C304 377 342 362 361 335 C374 318 380 280 380 218 L380 169 C380 116 375 74 366 58 C349 28 308 10 258 10 C211 10 173 26 154 52 C141 70 140 75 137 169 L137 218 Z " />
<glyph glyph-name="p" unicode="p" horiz-adv-x="538" d="M170 387 L20 387 L20 369 L93 369 L93 -249 L20 -249 L20 -267 L266 -267 L266 -249 L170 -249 L170 82 C210 14 245 -10 308 -10 C412 -10 495 84 495 201 C495 312 416 397 311 397 C247 397 205 370 170 306 L170 387 Z M402 176 C402 133 397 89 389 64 C378 29 350 10 308 10 C230 10 172 87 172 189 C172 302 228 377 313 377 C349 377 377 363 390 338 C399 321 402 297 402 249 L402 176 Z " />
<glyph glyph-name="q" unicode="q" horiz-adv-x="526" d="M356 387 L356 316 C316 375 280 397 222 397 C121 397 44 310 44 197 C44 80 124 -10 228 -10 C287 -10 318 12 356 77 L356 -249 L260 -249 L260 -267 L506 -267 L506 -249 L433 -249 L433 369 L506 369 L506 387 L356 387 Z M137 239 C137 290 141 318 152 337 C165 363 192 377 224 377 C264 377 301 355 327 318 C346 290 353 256 353 196 C353 142 346 105 330 75 C309 36 267 10 225 10 C196 10 169 25 155 49 C143 69 137 107 137 159 L137 239 Z " />
<glyph glyph-name="r" unicode="r" horiz-adv-x="389" d="M190 387 L40 387 L40 369 L113 369 L113 18 L40 18 L40 0 L271 0 L271 18 L190 18 L190 134 C190 216 194 245 213 291 C232 336 254 360 276 360 C286 360 291 355 292 344 C293 310 306 294 333 294 C359 294 377 314 377 344 C377 376 351 397 313 397 C278 397 246 381 225 353 C212 335 205 322 190 287 L190 387 Z " />
<glyph glyph-name="s" unicode="s" horiz-adv-x="392" d="M330 395 L315 395 L300 359 C261 387 232 397 194 397 C117 397 62 347 62 277 C62 217 100 175 164 164 L249 148 C299 139 322 120 322 88 C322 45 277 10 221 10 C174 10 134 31 105 71 C91 91 84 108 75 148 L57 148 L57 0 L68 0 L93 38 C140 1 169 -10 214 -10 C296 -10 353 45 353 122 C353 193 314 232 229 248 L180 257 C114 269 92 281 92 308 C92 346 134 377 186 377 C252 377 298 341 312 280 L330 280 L330 395 Z " />
<glyph glyph-name="t" unicode="t" horiz-adv-x="318" d="M178 369 L295 369 L295 387 L178 387 L178 546 L168 546 C146 479 77 402 22 384 L22 369 L101 369 L101 107 C101 61 105 43 121 24 C141 2 170 -10 208 -10 C271 -10 306 17 318 74 L296 74 C287 36 268 20 233 20 C194 20 178 39 178 85 L178 369 Z " />
<glyph glyph-name="u" unicode="u" horiz-adv-x="562" d="M469 387 L311 387 L311 369 L392 369 L392 200 C392 140 384 90 370 68 C349 34 306 13 257 13 C197 13 178 38 178 117 L178 387 L20 387 L20 369 L101 369 L101 131 C101 80 107 54 125 33 C147 6 192 -10 247 -10 C314 -10 354 9 392 60 L392 0 L542 0 L542 18 L469 18 L469 387 Z " />
<glyph glyph-name="v" unicode="v" horiz-adv-x="476" d="M227 -10 L261 -10 L427 369 L476 369 L476 387 L315 387 L315 369 L402 369 L276 85 L153 369 L240 369 L240 387 L0 387 L0 369 L56 369 L227 -10 Z " />
<glyph glyph-name="w" unicode="w" horiz-adv-x="673" d="M460 -10 L493 -10 L625 369 L673 369 L673 387 L529 387 L529 369 L599 369 L505 94 L384 387 L360 387 L260 94 L150 369 L229 369 L229 387 L0 387 L0 369 L56 369 L216 -9 L248 -9 L343 261 L460 -10 Z " />
<glyph glyph-name="x" unicode="x" horiz-adv-x="465" d="M262 230 L382 369 L440 369 L440 387 L279 387 L279 369 L351 369 L246 249 L154 369 L225 369 L225 387 L-4 387 L-4 369 L51 369 L193 182 L51 18 L-4 18 L-4 0 L170 0 L170 18 L87 18 L209 163 L318 18 L263 18 L263 0 L469 0 L469 18 L422 18 L262 230 Z " />
<glyph glyph-name="y" unicode="y" horiz-adv-x="455" d="M275 94 L149 369 L224 369 L224 387 L0 387 L0 369 L51 369 L237 -6 L177 -161 C163 -201 157 -208 141 -208 C135 -208 129 -205 125 -200 C108 -180 98 -174 79 -174 C51 -174 31 -194 31 -221 C31 -252 57 -274 92 -274 C139 -274 170 -244 199 -170 L407 369 L455 369 L455 387 L301 387 L301 369 L378 369 L275 94 Z " />
<glyph glyph-name="z" unicode="z" horiz-adv-x="441" d="M403 0 L406 164 L391 164 C362 42 338 18 244 18 L145 18 L413 387 L68 387 L65 238 L79 238 C114 349 136 368 231 369 L296 369 L34 0 L403 0 Z " />
<glyph glyph-name="braceleft" unicode="&#x7b;" horiz-adv-x="291" d="M1 250 C35 248 45 245 59 230 C78 209 78 203 80 108 L80 22 C79 -98 83 -116 116 -150 C141 -173 177 -180 263 -180 L263 -162 C174 -157 151 -122 155 0 L155 103 C158 206 139 242 76 256 L76 260 C139 274 158 309 155 403 L155 501 C152 609 178 645 263 649 L263 667 C176 666 154 662 130 647 C87 615 78 581 80 469 L80 395 C77 311 76 306 60 287 C48 272 33 267 1 266 L1 250 Z " />
<glyph glyph-name="bar" unicode="&#x7c;" horiz-adv-x="550" d="M243 667 L243 -167 L307 -167 L307 667 L243 667 Z " />
<glyph glyph-name="braceright" unicode="&#x7d;" horiz-adv-x="291" d="M289 266 C257 267 243 272 230 287 C215 307 214 311 211 395 L211 469 C212 576 204 608 168 642 C142 662 121 666 27 667 L27 649 C112 645 138 609 136 501 L136 403 C133 308 151 274 214 260 L214 256 C151 242 133 206 136 103 L136 0 C139 -122 116 -157 27 -162 L27 -180 C107 -180 143 -174 168 -155 C207 -121 211 -102 211 22 L211 108 C212 203 213 209 232 230 C246 245 255 248 289 250 L289 266 Z " />
<glyph glyph-name="asciitilde" unicode="&#x7e;" horiz-adv-x="517" d="M414 374 C396 351 378 342 352 342 C337 342 316 345 301 350 L257 365 C233 373 221 375 201 375 C151 375 122 355 92 299 L102 294 C120 316 140 325 171 325 C187 325 205 322 224 316 L267 302 C290 295 304 292 318 292 C360 292 388 312 424 369 L414 374 Z " />
<glyph glyph-name="uni00A0" unicode="&#xa0;" horiz-adv-x="250" d="" />
<glyph glyph-name="exclamdown" unicode="&#xa1;" horiz-adv-x="301" d="M142 207 C137 56 134 24 117 -76 L98 -174 C96 -184 95 -190 95 -203 C95 -244 119 -274 151 -274 C182 -274 206 -244 206 -203 C206 -192 205 -184 203 -174 L184 -76 C166 22 163 57 159 207 L142 207 Z M150 410 C116 410 88 385 88 354 C88 322 116 297 151 297 C185 297 213 322 213 354 C213 385 185 410 150 410 L150 410 Z " />
<glyph glyph-name="cent" unicode="&#xa2;" horiz-adv-x="550" d="M308 665 L279 665 L279 545 C167 533 84 447 84 342 C84 235 168 149 279 140 L279 42 L308 42 L308 140 C395 147 453 194 473 276 L451 276 C433 209 382 168 308 160 L308 527 C354 527 398 514 398 500 C398 497 396 495 389 490 C375 479 366 463 366 446 C366 418 384 399 410 399 C437 399 455 418 455 446 C455 503 394 545 308 547 L308 665 Z M279 161 C201 172 175 211 177 314 L177 378 C180 479 206 516 279 525 L279 161 Z " />
<glyph glyph-name="sterling" unicode="&#xa3;" horiz-adv-x="550" d="M223 268 C265 224 276 201 276 159 C276 141 274 132 264 114 C217 133 168 144 123 144 C51 144 4 116 4 72 C4 28 50 0 120 0 C175 0 212 11 256 42 L300 17 C333 -2 365 -10 403 -10 C500 -10 551 52 553 171 L527 171 L527 160 C527 98 488 53 435 53 C408 53 369 65 329 85 L292 103 C305 140 309 164 309 196 C309 222 304 245 294 268 L440 268 L440 298 L277 298 C272 306 269 311 264 317 L216 381 C164 450 155 470 155 512 C155 597 221 657 315 657 C382 657 437 625 437 585 C437 578 434 574 426 568 C395 546 389 538 389 518 C389 492 411 471 438 471 C472 471 498 500 498 539 C498 615 413 677 310 677 C183 677 76 590 76 487 C76 447 92 414 135 366 L196 298 L62 298 L62 268 L223 268 Z M234 58 C199 30 168 20 122 20 C68 20 31 40 31 70 C31 92 56 109 89 109 C116 109 154 99 183 84 L234 58 Z " />
<glyph glyph-name="currency" unicode="&#xa4;" horiz-adv-x="550" d="M418 478 C376 511 328 527 275 527 C221 527 175 511 131 478 L58 545 L35 523 L108 457 C73 419 55 375 55 327 C55 279 73 235 108 196 L35 130 L58 109 L131 175 C175 142 222 127 275 127 C328 127 376 143 419 175 L491 109 L515 130 L442 196 C478 236 495 278 495 327 C495 375 478 418 442 457 L515 523 L491 545 L418 478 Z M275 464 C362 464 432 403 432 326 C432 250 361 190 272 190 C188 190 118 252 118 327 C118 403 188 464 275 464 L275 464 Z " />
<glyph glyph-name="yen" unicode="&#xa5;" horiz-adv-x="550" d="M146 451 L28 451 L28 433 L157 433 L222 322 L61 322 L61 304 L233 304 L233 18 L138 18 L138 0 L415 0 L415 18 L313 18 L313 304 L489 304 L489 322 L323 322 L385 433 L522 433 L522 451 L394 451 L482 629 L547 629 L547 647 L367 647 L367 629 L456 629 L305 339 L149 629 L233 629 L233 647 L-11 647 L-11 629 L43 629 L146 451 Z " />
<glyph glyph-name="brokenbar" unicode="&#xa6;" horiz-adv-x="550" d="M243 667 L243 330 L307 330 L307 667 L243 667 Z M243 153 L243 -167 L307 -167 L307 153 L243 153 Z " />
<glyph glyph-name="section" unicode="&#xa7;" horiz-adv-x="550" d="M219 475 C150 508 133 525 133 563 C133 620 190 657 278 657 C338 657 381 640 407 607 C360 597 342 581 342 549 C342 522 363 503 392 503 C425 503 452 530 452 564 C452 629 378 677 278 677 C217 677 175 663 142 633 C110 604 93 564 93 521 C93 471 112 439 164 402 C91 370 61 328 61 259 C61 226 71 198 89 177 C106 157 125 144 179 118 L337 40 C417 1 434 -17 434 -62 C434 -128 368 -170 262 -170 C190 -170 144 -152 108 -109 C153 -105 179 -81 179 -41 C179 -9 157 13 126 13 C90 13 61 -18 61 -58 C61 -132 147 -190 256 -190 C390 -190 483 -122 483 -24 C483 37 456 73 376 118 C450 142 489 191 489 258 C489 325 457 362 358 409 L219 475 Z M168 215 C115 241 94 265 94 301 C94 345 136 383 186 383 C209 383 237 376 258 366 L359 316 C436 278 456 259 456 222 C456 179 406 136 356 136 C340 136 326 140 303 151 L168 215 Z " />
<glyph glyph-name="dieresis" unicode="&#xa8;" horiz-adv-x="540" d="M175 584 C149 584 127 562 127 536 C127 509 149 487 176 487 C202 487 224 509 224 535 C224 562 203 584 175 584 L175 584 Z M366 584 C340 584 318 562 318 536 C318 509 340 487 367 487 C393 487 415 509 415 535 C415 562 394 584 366 584 L366 584 Z " />
<glyph glyph-name="copyright" unicode="&#xa9;" horiz-adv-x="865" d="M582 530 L568 530 L547 503 C511 527 483 536 444 536 C336 536 253 448 253 334 C253 226 337 138 440 138 C477 138 506 147 547 171 L568 143 L582 143 L582 255 L567 255 C554 225 546 212 533 197 C509 171 475 156 437 156 C397 156 361 173 344 199 C331 220 327 249 327 333 C327 393 330 434 337 456 C350 495 388 518 440 518 C504 518 548 486 567 425 L582 425 L582 530 Z M432 677 C222 677 51 523 51 333 C51 147 222 -10 426 -10 C642 -10 814 141 814 331 C814 524 645 677 432 677 L432 677 Z M433 649 C625 649 779 508 779 331 C779 157 623 18 427 18 C241 18 86 162 86 333 C86 508 241 649 433 649 L433 649 Z " />
<glyph glyph-name="ordfeminine" unicode="&#xaa;" horiz-adv-x="367" d="M339 330 L28 330 L28 297 L339 297 L339 330 Z M215 551 C168 550 145 546 120 537 C79 521 56 493 56 459 C56 419 86 394 132 394 C169 394 196 410 216 442 C221 410 240 394 270 394 C288 394 295 397 322 415 L311 429 C302 421 297 418 290 418 C278 418 275 423 275 442 L275 593 C275 622 268 640 252 652 C235 666 208 674 178 674 C122 674 74 642 74 606 C74 587 86 573 102 573 C118 573 130 586 130 604 C130 612 127 620 121 627 C118 630 117 632 117 634 C117 644 146 656 170 656 C201 656 215 644 215 615 L215 551 Z M213 516 C213 492 210 476 206 466 C197 443 176 428 154 428 C129 428 113 445 113 470 C113 511 146 532 213 534 L213 516 Z " />
<glyph glyph-name="guillemotleft" unicode="&#xab;" horiz-adv-x="414" d="M177 200 L300 96 L355 96 L233 200 L355 304 L300 304 L177 200 Z M51 200 L173 96 L229 96 L107 200 L229 304 L173 304 L51 200 Z " />
<glyph glyph-name="logicalnot" unicode="&#xac;" horiz-adv-x="550" d="M412 0 L512 0 L512 267 L39 267 L39 224 L412 224 L412 0 Z " />
<glyph glyph-name="uni00AD" unicode="&#xad;" horiz-adv-x="208" d="M208 230 L0 230 L0 170 L208 170 L208 230 Z " />
<glyph glyph-name="registered" unicode="&#xae;" horiz-adv-x="865" d="M372 340 L411 340 C476 338 498 321 501 268 L501 240 C501 176 533 140 591 140 C611 140 621 142 641 151 L635 167 C621 161 614 159 606 159 C584 159 577 172 577 208 L577 239 C577 294 537 336 476 346 C548 356 591 390 591 438 C591 469 577 493 548 510 C522 525 496 530 434 530 L254 530 L254 513 L310 513 L310 160 L254 160 L254 143 L439 143 L439 160 L372 160 L372 340 Z M372 357 L372 513 L419 513 C492 513 523 490 523 435 C523 382 489 357 414 357 L372 357 Z M432 677 C222 677 51 523 51 333 C51 147 222 -10 426 -10 C642 -10 814 141 814 331 C814 524 645 677 432 677 L432 677 Z M433 649 C625 649 779 508 779 331 C779 157 623 18 427 18 C241 18 86 162 86 333 C86 508 241 649 433 649 L433 649 Z " />
<glyph glyph-name="macron" unicode="&#xaf;" horiz-adv-x="523" d="M398 499 L398 523 L125 523 L125 499 L398 499 Z " />
<glyph glyph-name="degree" unicode="&#xb0;" horiz-adv-x="400" d="M203 686 C117 686 50 619 50 534 C50 448 116 381 200 381 C284 381 350 448 350 533 C350 619 286 686 203 686 L203 686 Z M202 629 C252 629 293 586 293 534 C293 480 252 438 200 438 C148 438 106 481 106 533 C106 587 148 629 202 629 L202 629 Z " />
<glyph glyph-name="plusminus" unicode="&#xb1;" horiz-adv-x="550" d="M258 308 L258 131 L288 131 L288 308 L493 308 L493 338 L288 338 L288 515 L258 515 L258 338 L56 338 L56 308 L258 308 Z M56 11 L493 11 L493 41 L56 41 L56 11 Z " />
<glyph glyph-name="twosuperior" unicode="&#xb2;" horiz-adv-x="359" d="M307 258 L307 369 L291 369 C282 311 282 311 236 310 L90 310 L193 402 C252 452 252 452 270 473 C295 501 308 528 308 553 C308 611 251 653 174 653 C102 653 51 615 51 562 C51 529 72 505 101 505 C122 505 137 518 137 535 C137 552 121 565 102 565 C96 565 91 564 80 560 C79 559 77 559 76 559 C73 559 71 563 71 569 C71 603 110 633 154 633 C206 633 240 594 240 535 C240 485 222 459 145 388 L36 290 L36 258 L307 258 Z " />
<glyph glyph-name="threesuperior" unicode="&#xb3;" horiz-adv-x="359" d="M97 477 L97 460 L126 460 C209 460 244 431 244 363 C244 303 213 271 155 271 C134 271 116 275 102 283 C91 289 82 296 82 299 C82 301 84 302 90 306 C103 313 109 321 109 334 C109 352 97 364 79 364 C59 364 45 349 45 326 C45 284 93 253 159 253 C249 253 314 303 314 371 C314 426 272 460 194 469 C250 484 289 523 289 565 C289 616 239 653 170 653 C112 653 68 625 68 588 C68 568 81 553 99 553 C115 553 127 566 127 582 C127 594 120 604 109 609 C105 611 103 613 103 614 C103 623 134 633 160 633 C206 633 223 615 223 567 C223 503 195 477 126 477 L97 477 Z " />
<glyph glyph-name="acute" unicode="&#xb4;" horiz-adv-x="533" d="M335 613 L240 470 C239 469 238 467 238 466 C238 465 240 463 241 463 C243 463 243 463 246 466 L405 595 C410 599 413 603 413 606 C413 611 409 613 400 613 L335 613 Z " />
<glyph glyph-name="mu" unicode="&#xb5;" horiz-adv-x="576" d="M442 500 L353 500 L354 131 C318 80 284 58 242 58 C184 58 150 99 150 169 L150 500 L62 500 L62 20 C62 -1 58 -26 51 -56 C34 -118 33 -123 33 -147 C33 -190 54 -219 83 -219 C112 -219 132 -189 132 -145 C132 -124 129 -110 113 -53 C102 -17 101 -8 101 21 L101 33 C143 -3 165 -13 200 -13 C250 -13 301 18 354 80 C362 48 367 36 377 21 C392 0 419 -13 449 -13 C510 -13 553 31 567 108 L540 109 C536 71 515 41 492 41 C462 41 442 77 442 131 L442 500 Z " />
<glyph glyph-name="paragraph" unicode="&#xb6;" horiz-adv-x="550" d="M255 -162 L166 -162 L166 -180 L505 -180 L505 -162 L435 -162 L435 649 L505 649 L505 667 L249 667 C195 667 148 658 117 641 C63 611 29 552 29 488 C29 384 110 312 229 312 L255 312 L255 -162 Z M298 -162 L298 649 L392 649 L392 -162 L298 -162 Z " />
<glyph glyph-name="periodcentered" unicode="&#xb7;" horiz-adv-x="271" d="M135 257 C101 257 73 231 73 200 C73 169 101 143 136 143 C170 143 198 168 198 199 C198 232 171 257 135 257 L135 257 Z " />
<glyph glyph-name="cedilla" unicode="&#xb8;" horiz-adv-x="550" d="M288 0 L267 0 L248 -65 C290 -74 308 -89 308 -114 C308 -140 283 -160 250 -160 C224 -160 199 -151 199 -141 C199 -140 199 -140 202 -125 C199 -103 196 -98 187 -98 C179 -98 174 -104 174 -114 C174 -150 210 -176 259 -176 C317 -176 366 -144 366 -106 C366 -75 335 -56 285 -56 L270 -56 L288 0 Z " />
<glyph glyph-name="onesuperior" unicode="&#xb9;" horiz-adv-x="359" d="M226 647 L80 641 L80 625 L151 625 C164 625 164 625 164 613 L164 276 L80 276 L80 258 L298 258 L298 276 L226 276 L226 647 Z " />
<glyph glyph-name="ordmasculine" unicode="&#xba;" horiz-adv-x="367" d="M339 330 L28 330 L28 297 L339 297 L339 330 Z M183 674 C107 674 45 611 45 534 C45 456 106 394 183 394 C259 394 321 456 321 532 C321 612 260 674 183 674 L183 674 Z M115 550 C115 584 118 613 123 623 C133 642 155 654 183 654 C209 654 230 644 240 627 C247 616 250 591 250 550 L250 517 C250 482 247 455 243 445 C233 426 211 414 183 414 C157 414 136 424 126 441 C119 451 115 477 115 517 L115 550 Z " />
<glyph glyph-name="guillemotright" unicode="&#xbb;" horiz-adv-x="414" d="M237 200 L114 304 L59 304 L181 200 L59 96 L114 96 L237 200 Z M363 200 L240 304 L185 304 L307 200 L185 96 L240 96 L363 200 Z " />
<glyph glyph-name="onequarter" unicode="&#xbc;" horiz-adv-x="844" d="M226 647 L80 641 L80 625 L151 625 C164 625 164 625 164 613 L164 276 L80 276 L80 258 L298 258 L298 276 L226 276 L226 647 Z M620 647 L583 647 L253 0 L290 0 L620 647 Z M730 103 L792 103 L792 59 L811 59 L811 168 L792 168 L792 124 L730 124 L730 393 L695 393 L508 132 L508 103 L668 103 L668 18 L604 18 L604 0 L791 0 L791 18 L730 18 L730 103 Z M668 124 L531 124 L668 315 L668 124 Z " />
<glyph glyph-name="onehalf" unicode="&#xbd;" horiz-adv-x="844" d="M226 647 L80 641 L80 625 L151 625 C164 625 164 625 164 613 L164 276 L80 276 L80 258 L298 258 L298 276 L226 276 L226 647 Z M606 647 L569 647 L239 0 L276 0 L606 647 Z M792 0 L792 111 L776 111 C767 53 767 53 721 52 L575 52 L679 144 C737 194 737 194 755 214 C780 242 793 270 793 294 C793 352 737 394 659 394 C588 394 536 356 536 303 C536 271 558 247 587 247 C607 247 622 260 622 277 C622 294 607 307 588 307 C581 307 576 306 566 302 C564 301 563 301 562 301 C558 301 556 305 556 311 C556 344 595 374 639 374 C691 374 725 335 725 276 C725 227 708 201 630 130 L521 32 L521 0 L792 0 Z " />
<glyph glyph-name="threequarters" unicode="&#xbe;" horiz-adv-x="844" d="M97 477 L97 460 L126 460 C209 460 244 431 244 363 C244 303 213 271 155 271 C134 271 116 275 102 283 C91 289 82 296 82 299 C82 301 84 302 90 306 C103 313 109 321 109 334 C109 352 97 364 79 364 C59 364 45 349 45 326 C45 284 93 253 159 253 C249 253 314 303 314 371 C314 426 272 460 194 469 C250 484 289 523 289 565 C289 616 239 653 170 653 C112 653 68 625 68 588 C68 568 81 553 99 553 C115 553 127 566 127 582 C127 594 120 604 109 609 C105 611 103 613 103 614 C103 623 134 633 160 633 C206 633 223 615 223 567 C223 503 195 477 126 477 L97 477 Z M620 647 L583 647 L253 0 L290 0 L620 647 Z M730 103 L792 103 L792 59 L811 59 L811 168 L792 168 L792 124 L730 124 L730 393 L695 393 L508 132 L508 103 L668 103 L668 18 L604 18 L604 0 L791 0 L791 18 L730 18 L730 103 Z M668 124 L531 124 L668 315 L668 124 Z " />
<glyph glyph-name="questiondown" unicode="&#xbf;" horiz-adv-x="415" d="M253 207 C253 142 244 127 183 79 L127 38 C71 -3 44 -52 44 -111 C44 -206 115 -274 214 -274 C304 -274 373 -217 373 -142 C373 -108 354 -84 328 -84 C304 -84 288 -102 288 -128 C288 -148 297 -161 319 -172 C334 -179 338 -183 338 -191 C338 -222 274 -254 214 -254 C141 -254 85 -216 85 -166 C85 -135 103 -107 144 -72 L179 -43 C226 -4 242 15 254 47 C266 76 272 113 272 152 C272 171 271 183 267 211 L253 207 Z M253 410 C219 410 191 385 191 354 C191 322 219 297 254 297 C288 297 316 322 316 354 C316 385 288 410 253 410 L253 410 Z " />
<glyph glyph-name="Agrave" unicode="&#xc0;" horiz-adv-x="667" d="M263 833 L166 833 C157 833 153 831 153 825 C153 821 156 818 166 814 L387 721 C388 720 391 720 393 720 C396 720 397 722 397 724 C397 726 396 728 392 731 L263 833 Z M401 214 L475 18 L371 18 L371 0 L670 0 L670 18 L586 18 L346 667 L316 667 L66 18 L-4 18 L-4 0 L191 0 L191 18 L94 18 L168 214 L401 214 Z M395 232 L175 232 L285 527 L395 232 Z " />
<glyph glyph-name="Aacute" unicode="&#xc1;" horiz-adv-x="667" d="M416 833 L287 731 C283 727 282 726 282 724 C282 721 283 720 286 720 C288 720 291 720 292 721 L514 814 C523 818 526 821 526 825 C526 831 522 833 513 833 L416 833 Z M401 214 L475 18 L371 18 L371 0 L670 0 L670 18 L586 18 L346 667 L316 667 L66 18 L-4 18 L-4 0 L191 0 L191 18 L94 18 L168 214 L401 214 Z M395 232 L175 232 L285 527 L395 232 Z " />
<glyph glyph-name="Acircumflex" unicode="&#xc2;" horiz-adv-x="667" d="M331 769 L479 721 C480 720 482 720 483 720 C486 720 488 721 488 723 C488 725 486 727 482 730 L331 838 L180 730 C175 726 174 725 174 723 C174 721 176 720 179 720 C181 720 182 720 184 721 L331 769 Z M401 214 L475 18 L371 18 L371 0 L670 0 L670 18 L586 18 L346 667 L316 667 L66 18 L-4 18 L-4 0 L191 0 L191 18 L94 18 L168 214 L401 214 Z M395 232 L175 232 L285 527 L395 232 Z " />
<glyph glyph-name="Atilde" unicode="&#xc3;" horiz-adv-x="667" d="M493 815 C475 793 457 784 431 784 C416 784 393 787 380 792 L336 806 C309 815 299 817 280 817 C230 817 201 797 171 741 L181 735 C199 758 218 767 250 767 C265 767 282 764 303 757 L345 744 C371 736 383 733 397 733 C439 733 466 753 503 810 L493 815 Z M401 214 L475 18 L371 18 L371 0 L670 0 L670 18 L586 18 L346 667 L316 667 L66 18 L-4 18 L-4 0 L191 0 L191 18 L94 18 L168 214 L401 214 Z M395 232 L175 232 L285 527 L395 232 Z " />
<glyph glyph-name="Adieresis" unicode="&#xc4;" horiz-adv-x="667" d="M214 824 C188 824 166 802 166 776 C166 749 188 727 215 727 C241 727 263 749 263 775 C263 802 242 824 214 824 L214 824 Z M447 824 C421 824 399 802 399 776 C399 749 421 727 448 727 C474 727 496 749 496 775 C496 802 475 824 447 824 L447 824 Z M401 214 L475 18 L371 18 L371 0 L670 0 L670 18 L586 18 L346 667 L316 667 L66 18 L-4 18 L-4 0 L191 0 L191 18 L94 18 L168 214 L401 214 Z M395 232 L175 232 L285 527 L395 232 Z " />
<glyph glyph-name="Aring" unicode="&#xc5;" horiz-adv-x="667" d="M332 859 C289 859 256 825 256 782 C256 740 289 707 332 707 C374 707 407 740 407 781 C407 825 374 859 332 859 L332 859 Z M332 832 C357 832 379 809 379 783 C379 757 357 734 331 734 C306 734 284 757 284 783 C284 809 306 832 332 832 L332 832 Z M401 214 L475 18 L371 18 L371 0 L670 0 L670 18 L586 18 L346 667 L316 667 L66 18 L-4 18 L-4 0 L191 0 L191 18 L94 18 L168 214 L401 214 Z M395 232 L175 232 L285 527 L395 232 Z " />
<glyph glyph-name="AE" unicode="&#xc6;" horiz-adv-x="928" d="M840 667 L277 667 L277 649 L386 649 L52 18 L-29 18 L-29 0 L191 0 L191 18 L80 18 L182 211 L416 211 L416 18 L321 18 L321 0 L864 0 L886 207 L871 207 C855 153 841 116 826 92 C784 26 764 17 664 18 L509 18 L509 329 L560 329 C649 329 685 299 687 221 L687 197 L702 197 L702 472 L687 472 L687 453 C687 376 653 347 563 347 L509 347 L509 649 L608 649 C759 650 807 617 840 486 L854 486 L840 667 Z M416 229 L191 229 L416 649 L416 229 Z " />
<glyph glyph-name="Ccedilla" unicode="&#xc7;" horiz-adv-x="650" d="M361 -10 C424 -10 480 8 546 50 L582 0 L597 0 L597 185 L582 185 C560 133 547 110 525 85 C483 37 423 10 358 10 C286 10 223 41 194 89 C170 127 164 178 164 324 C164 432 170 505 182 544 C204 615 271 657 363 657 C424 657 479 637 520 599 C552 570 567 544 582 494 L597 494 L597 667 L582 667 L546 617 C483 661 435 677 370 677 C281 677 199 639 137 569 C80 505 51 423 51 328 C51 216 98 118 183 52 C230 16 277 -3 340 -9 L322 -67 C366 -76 386 -91 386 -117 C386 -145 360 -165 325 -165 C297 -165 271 -156 271 -146 C271 -145 271 -145 275 -129 C272 -107 268 -101 259 -101 C250 -101 245 -107 245 -118 C245 -154 283 -181 335 -181 C396 -181 447 -148 447 -110 C447 -77 415 -58 361 -58 L346 -58 L361 -10 Z " />
<glyph glyph-name="Egrave" unicode="&#xc8;" horiz-adv-x="644" d="M295 833 L198 833 C189 833 185 831 185 825 C185 821 188 818 198 814 L419 721 C420 720 423 720 425 720 C428 720 429 721 429 724 C429 726 428 728 424 731 L295 833 Z M557 667 L37 667 L37 649 L132 649 L132 18 L37 18 L37 0 L581 0 L603 208 L588 208 C572 153 558 116 543 92 C501 26 481 17 381 18 L225 18 L225 329 L276 329 C366 330 403 299 404 221 L404 198 L419 198 L419 472 L404 472 L404 453 C404 376 369 347 280 347 L225 347 L225 649 L324 649 C476 651 524 617 557 486 L571 486 L557 667 Z " />
<glyph glyph-name="Eacute" unicode="&#xc9;" horiz-adv-x="644" d="M415 833 L286 731 C281 727 281 726 281 724 C281 721 282 720 285 720 C287 720 291 720 292 721 L513 814 C521 817 525 821 525 825 C525 831 521 833 512 833 L415 833 Z M557 667 L37 667 L37 649 L132 649 L132 18 L37 18 L37 0 L581 0 L603 208 L588 208 C572 153 558 116 543 92 C501 26 481 17 381 18 L225 18 L225 329 L276 329 C366 330 403 299 404 221 L404 198 L419 198 L419 472 L404 472 L404 453 C404 376 369 347 280 347 L225 347 L225 649 L324 649 C476 651 524 617 557 486 L571 486 L557 667 Z " />
<glyph glyph-name="Ecircumflex" unicode="&#xca;" horiz-adv-x="644" d="M343 769 L491 721 C492 720 494 720 495 720 C498 720 500 721 500 723 C500 725 498 727 495 730 L343 838 L192 730 C187 726 186 725 186 723 C186 721 188 720 191 720 C193 720 194 720 196 721 L343 769 Z M557 667 L37 667 L37 649 L132 649 L132 18 L37 18 L37 0 L581 0 L603 208 L588 208 C572 153 558 116 543 92 C501 26 481 17 381 18 L225 18 L225 329 L276 329 C366 330 403 299 404 221 L404 198 L419 198 L419 472 L404 472 L404 453 C404 376 369 347 280 347 L225 347 L225 649 L324 649 C476 651 524 617 557 486 L571 486 L557 667 Z " />
<glyph glyph-name="Edieresis" unicode="&#xcb;" horiz-adv-x="644" d="M225 824 C199 824 177 802 177 776 C177 749 199 727 226 727 C252 727 274 749 274 775 C274 802 253 824 225 824 L225 824 Z M457 824 C431 824 409 802 409 776 C409 749 431 727 458 727 C484 727 506 749 506 775 C506 802 485 824 457 824 L457 824 Z M557 667 L37 667 L37 649 L132 649 L132 18 L37 18 L37 0 L581 0 L603 208 L588 208 C572 153 558 116 543 92 C501 26 481 17 381 18 L225 18 L225 329 L276 329 C366 330 403 299 404 221 L404 198 L419 198 L419 472 L404 472 L404 453 C404 376 369 347 280 347 L225 347 L225 649 L324 649 C476 651 524 617 557 486 L571 486 L557 667 Z " />
<glyph glyph-name="Igrave" unicode="&#xcc;" horiz-adv-x="367" d="M132 18 L37 18 L37 0 L330 0 L330 18 L225 18 L225 649 L330 649 L330 667 L37 667 L37 649 L132 649 L132 18 Z M140 833 L43 833 C34 833 30 830 30 825 C30 821 34 817 42 814 L263 721 C264 720 267 720 270 720 C273 720 274 721 274 724 C274 726 274 727 269 731 L140 833 Z " />
<glyph glyph-name="Iacute" unicode="&#xcd;" horiz-adv-x="367" d="M132 18 L37 18 L37 0 L330 0 L330 18 L225 18 L225 649 L330 649 L330 667 L37 667 L37 649 L132 649 L132 18 Z M269 833 L140 731 C135 727 135 726 135 724 C135 721 136 720 139 720 C141 720 144 720 146 721 L367 814 C375 817 379 821 379 825 C379 831 375 833 366 833 L269 833 Z " />
<glyph glyph-name="Icircumflex" unicode="&#xce;" horiz-adv-x="367" d="M132 18 L37 18 L37 0 L330 0 L330 18 L225 18 L225 649 L330 649 L330 667 L37 667 L37 649 L132 649 L132 18 Z M183 769 L331 721 C332 720 334 720 335 720 C338 720 340 721 340 723 C340 725 338 727 335 730 L183 838 L32 730 C27 726 26 725 26 723 C26 721 28 720 31 720 C33 720 34 720 36 721 L183 769 Z " />
<glyph glyph-name="Idieresis" unicode="&#xcf;" horiz-adv-x="367" d="M132 18 L37 18 L37 0 L330 0 L330 18 L225 18 L225 649 L330 649 L330 667 L37 667 L37 649 L132 649 L132 18 Z M91 824 C65 824 43 802 43 776 C43 749 65 727 92 727 C118 727 140 749 140 775 C140 802 119 824 91 824 L91 824 Z M276 824 C250 824 228 802 228 776 C228 749 250 727 277 727 C303 727 325 749 325 775 C325 802 304 824 276 824 L276 824 Z " />
<glyph glyph-name="Eth" unicode="&#xd0;" horiz-adv-x="741" d="M132 330 L132 18 L37 18 L37 0 L305 0 C450 0 518 22 589 91 C653 153 689 240 689 334 C689 428 654 515 593 574 C524 642 445 667 304 667 L37 667 L37 649 L132 649 L132 348 L37 348 L37 330 L132 330 Z M227 330 L405 330 L405 348 L227 348 L227 649 L303 649 C405 649 461 636 506 604 C557 566 575 500 575 348 C575 200 563 127 532 88 C492 38 427 18 305 18 L227 18 L227 330 Z " />
<glyph glyph-name="Ntilde" unicode="&#xd1;" horiz-adv-x="746" d="M541 815 C524 793 505 784 480 784 C464 784 442 787 428 792 L385 806 C357 815 348 817 329 817 C278 817 249 797 219 741 L229 735 C248 758 267 767 299 767 C313 767 331 764 351 757 L394 744 C420 736 432 733 445 733 C487 733 515 753 552 810 L541 815 Z M613 0 L629 0 L629 649 L710 649 L710 667 L508 667 L508 649 L606 649 L606 185 L258 667 L26 667 L26 649 L121 649 L121 18 L26 18 L26 0 L249 0 L249 18 L144 18 L144 644 L613 0 Z " />
<glyph glyph-name="Ograve" unicode="&#xd2;" horiz-adv-x="726" d="M313 833 L216 833 C207 833 203 830 203 825 C203 821 207 817 215 814 L436 721 C437 720 440 720 443 720 C446 720 447 721 447 724 C447 726 447 727 442 731 L313 833 Z M363 677 C282 677 206 644 146 583 C84 520 51 433 51 334 C51 241 79 160 133 99 C194 28 275 -10 363 -10 C538 -10 675 139 675 330 C675 426 648 506 593 568 C532 639 451 677 363 677 L363 677 Z M363 657 C446 657 514 620 540 560 C558 519 562 481 562 330 C562 201 559 161 547 124 C523 52 455 10 363 10 C279 10 212 47 186 107 C168 148 164 187 164 333 C164 466 167 505 180 544 C203 615 271 657 363 657 L363 657 Z " />
<glyph glyph-name="Oacute" unicode="&#xd3;" horiz-adv-x="726" d="M446 833 L317 731 C312 727 312 726 312 724 C312 721 313 720 316 720 C319 720 322 720 323 721 L544 814 C552 817 556 821 556 825 C556 830 552 833 543 833 L446 833 Z M363 677 C282 677 206 644 146 583 C84 520 51 433 51 334 C51 241 79 160 133 99 C194 28 275 -10 363 -10 C538 -10 675 139 675 330 C675 426 648 506 593 568 C532 639 451 677 363 677 L363 677 Z M363 657 C446 657 514 620 540 560 C558 519 562 481 562 330 C562 201 559 161 547 124 C523 52 455 10 363 10 C279 10 212 47 186 107 C168 148 164 187 164 333 C164 466 167 505 180 544 C203 615 271 657 363 657 L363 657 Z " />
<glyph glyph-name="Ocircumflex" unicode="&#xd4;" horiz-adv-x="726" d="M363 769 L511 721 C512 720 513 720 515 720 C518 720 520 721 520 723 C520 725 519 727 514 730 L363 838 L212 730 C207 727 206 725 206 723 C206 721 208 720 211 720 C213 720 214 720 215 721 L363 769 Z M363 677 C282 677 206 644 146 583 C84 520 51 433 51 334 C51 241 79 160 133 99 C194 28 275 -10 363 -10 C538 -10 675 139 675 330 C675 426 648 506 593 568 C532 639 451 677 363 677 L363 677 Z M363 657 C446 657 514 620 540 560 C558 519 562 481 562 330 C562 201 559 161 547 124 C523 52 455 10 363 10 C279 10 212 47 186 107 C168 148 164 187 164 333 C164 466 167 505 180 544 C203 615 271 657 363 657 L363 657 Z " />
<glyph glyph-name="Otilde" unicode="&#xd5;" horiz-adv-x="726" d="M526 815 C509 793 490 784 464 784 C449 784 427 787 413 792 L369 806 C342 815 333 817 314 817 C263 817 234 797 204 741 L214 735 C233 758 252 767 283 767 C298 767 315 764 336 757 L379 744 C405 736 417 733 430 733 C472 733 500 753 536 810 L526 815 Z M363 677 C282 677 206 644 146 583 C84 520 51 433 51 334 C51 241 79 160 133 99 C194 28 275 -10 363 -10 C538 -10 675 139 675 330 C675 426 648 506 593 568 C532 639 451 677 363 677 L363 677 Z M363 657 C446 657 514 620 540 560 C558 519 562 481 562 330 C562 201 559 161 547 124 C523 52 455 10 363 10 C279 10 212 47 186 107 C168 148 164 187 164 333 C164 466 167 505 180 544 C203 615 271 657 363 657 L363 657 Z " />
<glyph glyph-name="Odieresis" unicode="&#xd6;" horiz-adv-x="726" d="M246 824 C220 824 198 802 198 776 C198 749 220 727 247 727 C273 727 295 749 295 775 C295 802 274 824 246 824 L246 824 Z M479 824 C453 824 431 802 431 776 C431 749 453 727 480 727 C506 727 528 749 528 775 C528 802 507 824 479 824 L479 824 Z M363 677 C282 677 206 644 146 583 C84 520 51 433 51 334 C51 241 79 160 133 99 C194 28 275 -10 363 -10 C538 -10 675 139 675 330 C675 426 648 506 593 568 C532 639 451 677 363 677 L363 677 Z M363 657 C446 657 514 620 540 560 C558 519 562 481 562 330 C562 201 559 161 547 124 C523 52 455 10 363 10 C279 10 212 47 186 107 C168 148 164 187 164 333 C164 466 167 505 180 544 C203 615 271 657 363 657 L363 657 Z " />
<glyph glyph-name="multiply" unicode="&#xd7;" horiz-adv-x="550" d="M275 302 L428 163 L452 184 L298 323 L452 463 L428 484 L275 345 L122 484 L98 463 L251 323 L98 184 L122 163 L275 302 Z " />
<glyph glyph-name="Oslash" unicode="&#xd8;" horiz-adv-x="726" d="M90 2 L107 -11 L166 65 C224 15 290 -10 363 -10 C445 -10 519 22 580 84 C642 148 675 233 675 334 C675 437 640 524 574 588 L636 667 L616 679 L558 603 C499 653 436 677 363 677 C281 677 207 645 146 583 C84 519 51 434 51 334 C51 230 82 150 150 80 L90 2 Z M181 119 C168 157 164 200 164 323 C164 468 167 504 180 544 C203 615 271 657 363 657 C440 657 504 625 534 573 L181 119 Z M544 550 C558 513 562 469 562 343 C562 199 559 163 547 124 C523 52 455 10 363 10 C284 10 222 41 191 97 L544 550 Z " />
<glyph glyph-name="Ugrave" unicode="&#xd9;" horiz-adv-x="707" d="M337 833 L240 833 C232 833 228 830 228 825 C228 821 231 817 240 814 L461 721 C462 720 465 720 467 720 C469 720 471 721 471 724 C471 726 470 728 466 731 L337 833 Z M220 649 L315 649 L315 667 L22 667 L22 649 L127 649 L127 249 C127 139 144 84 190 44 C230 10 298 -10 379 -10 C463 -10 522 15 559 67 C584 104 594 144 594 222 L594 649 L677 649 L677 667 L483 667 L483 649 L571 649 L571 222 C571 143 566 119 546 87 C515 37 463 10 397 10 C340 10 289 29 258 62 C228 94 220 126 220 205 L220 649 Z " />
<glyph glyph-name="Uacute" unicode="&#xda;" horiz-adv-x="707" d="M468 833 L339 731 C334 727 334 726 334 724 C334 721 335 720 338 720 C340 720 343 720 344 721 L565 814 C574 817 578 821 578 825 C578 831 573 833 565 833 L468 833 Z M220 649 L315 649 L315 667 L22 667 L22 649 L127 649 L127 249 C127 139 144 84 190 44 C230 10 298 -10 379 -10 C463 -10 522 15 559 67 C584 104 594 144 594 222 L594 649 L677 649 L677 667 L483 667 L483 649 L571 649 L571 222 C571 143 566 119 546 87 C515 37 463 10 397 10 C340 10 289 29 258 62 C228 94 220 126 220 205 L220 649 Z " />
<glyph glyph-name="Ucircumflex" unicode="&#xdb;" horiz-adv-x="707" d="M382 769 L529 721 C531 720 532 720 534 720 C537 720 539 721 539 723 C539 725 537 727 533 730 L382 838 L231 730 C226 726 225 725 225 723 C225 721 227 720 230 720 C232 720 233 720 234 721 L382 769 Z M220 649 L315 649 L315 667 L22 667 L22 649 L127 649 L127 249 C127 139 144 84 190 44 C230 10 298 -10 379 -10 C463 -10 522 15 559 67 C584 104 594 144 594 222 L594 649 L677 649 L677 667 L483 667 L483 649 L571 649 L571 222 C571 143 566 119 546 87 C515 37 463 10 397 10 C340 10 289 29 258 62 C228 94 220 126 220 205 L220 649 Z " />
<glyph glyph-name="Udieresis" unicode="&#xdc;" horiz-adv-x="707" d="M270 824 C243 824 222 802 222 776 C222 749 244 727 270 727 C297 727 319 749 319 775 C319 802 297 824 270 824 L270 824 Z M502 824 C475 824 454 802 454 776 C454 749 476 727 502 727 C529 727 551 749 551 775 C551 802 529 824 502 824 L502 824 Z M220 649 L315 649 L315 667 L22 667 L22 649 L127 649 L127 249 C127 139 144 84 190 44 C230 10 298 -10 379 -10 C463 -10 522 15 559 67 C584 104 594 144 594 222 L594 649 L677 649 L677 667 L483 667 L483 649 L571 649 L571 222 C571 143 566 119 546 87 C515 37 463 10 397 10 C340 10 289 29 258 62 C228 94 220 126 220 205 L220 649 Z " />
<glyph glyph-name="Yacute" unicode="&#xdd;" horiz-adv-x="607" d="M432 833 L303 731 C299 727 298 726 298 724 C298 721 299 720 302 720 C304 720 307 720 308 721 L530 814 C539 818 542 821 542 825 C542 830 538 833 529 833 L432 833 Z M355 312 L553 649 L628 649 L628 667 L418 667 L418 649 L526 649 L349 353 L165 649 L262 649 L262 667 L-22 667 L-22 649 L41 649 L262 312 L262 18 L152 18 L152 0 L474 0 L474 18 L355 18 L355 312 Z " />
<glyph glyph-name="Thorn" unicode="&#xde;" horiz-adv-x="637" d="M225 203 L345 203 C431 203 489 216 532 246 C579 278 605 323 605 372 C605 421 580 469 537 501 C496 532 434 547 345 547 L225 547 L225 649 L337 649 L337 667 L37 667 L37 649 L132 649 L132 18 L37 18 L37 0 L337 0 L337 18 L225 18 L225 203 Z M225 221 L225 529 L337 529 C460 529 492 497 492 376 C492 255 458 221 338 221 L225 221 Z " />
<glyph glyph-name="germandbls" unicode="&#xdf;" horiz-adv-x="535" d="M170 18 L170 203 C170 269 178 303 202 329 C225 356 274 374 320 374 C365 374 396 351 396 318 C396 289 375 263 344 253 C323 246 310 244 275 244 L275 226 C315 226 326 225 346 220 C391 207 417 165 417 106 C417 83 413 62 405 45 C395 20 379 10 353 10 C332 10 310 20 310 29 C310 31 312 34 316 38 C328 49 333 61 333 75 C333 98 319 113 298 113 C276 113 260 96 260 72 C260 26 305 -10 362 -10 C433 -10 494 46 494 113 C494 151 469 188 429 208 C404 221 384 227 336 235 C379 238 396 240 418 249 C452 262 473 288 473 319 C473 368 426 397 345 397 C262 397 215 378 170 325 L170 450 C170 523 179 574 196 607 C213 638 245 657 279 657 C299 657 314 650 314 641 C314 637 313 635 307 628 C300 618 296 608 296 600 C296 580 312 565 334 565 C359 565 377 583 377 609 C377 650 340 677 284 677 C238 677 202 662 167 628 C112 574 93 517 93 401 L93 18 L20 18 L20 0 L231 0 L231 18 L170 18 Z " />
<glyph glyph-name="agrave" unicode="&#xe0;" horiz-adv-x="464" d="M214 613 L149 613 C141 613 137 611 137 606 C137 603 140 598 145 595 L303 466 C306 463 307 463 309 463 C310 463 312 464 312 466 C312 467 311 469 310 470 L214 613 Z M303 215 C222 213 185 208 144 194 C79 171 43 131 43 82 C43 26 89 -10 162 -10 C225 -10 268 15 303 71 C311 13 334 -10 382 -10 C408 -10 419 -6 454 18 L444 30 C430 19 421 15 410 15 C388 15 380 26 380 57 L380 282 C380 324 370 349 346 366 C319 386 277 397 232 397 C147 397 73 352 73 301 C73 275 90 257 114 257 C137 257 154 274 154 297 C154 309 150 315 135 329 C128 336 125 340 125 342 C125 359 177 380 221 380 C247 380 268 375 283 364 C298 354 303 340 303 315 L303 215 Z M303 167 C303 131 299 106 292 89 C275 54 237 30 196 30 C150 30 119 57 119 99 C119 132 138 158 173 176 C208 193 236 198 303 200 L303 167 Z " />
<glyph glyph-name="aacute" unicode="&#xe1;" horiz-adv-x="464" d="M317 613 L221 470 L220 466 C220 464 222 463 223 463 C224 463 225 463 228 466 L387 595 C391 598 394 603 394 606 C394 611 390 613 382 613 L317 613 Z M303 215 C222 213 185 208 144 194 C79 171 43 131 43 82 C43 26 89 -10 162 -10 C225 -10 268 15 303 71 C311 13 334 -10 382 -10 C408 -10 419 -6 454 18 L444 30 C430 19 421 15 410 15 C388 15 380 26 380 57 L380 282 C380 324 370 349 346 366 C319 386 277 397 232 397 C147 397 73 352 73 301 C73 275 90 257 114 257 C137 257 154 274 154 297 C154 309 150 315 135 329 C128 336 125 340 125 342 C125 359 177 380 221 380 C247 380 268 375 283 364 C298 354 303 340 303 315 L303 215 Z M303 167 C303 131 299 106 292 89 C275 54 237 30 196 30 C150 30 119 57 119 99 C119 132 138 158 173 176 C208 193 236 198 303 200 L303 167 Z " />
<glyph glyph-name="acircumflex" unicode="&#xe2;" horiz-adv-x="464" d="M242 541 L375 465 C377 464 379 463 381 463 C383 463 385 464 385 466 C385 468 384 469 379 474 L242 617 L104 474 C101 471 99 468 99 466 C99 464 101 463 102 463 C104 463 106 464 108 465 L242 541 Z M303 215 C222 213 185 208 144 194 C79 171 43 131 43 82 C43 26 89 -10 162 -10 C225 -10 268 15 303 71 C311 13 334 -10 382 -10 C408 -10 419 -6 454 18 L444 30 C430 19 421 15 410 15 C388 15 380 26 380 57 L380 282 C380 324 370 349 346 366 C319 386 277 397 232 397 C147 397 73 352 73 301 C73 275 90 257 114 257 C137 257 154 274 154 297 C154 309 150 315 135 329 C128 336 125 340 125 342 C125 359 177 380 221 380 C247 380 268 375 283 364 C298 354 303 340 303 315 L303 215 Z M303 167 C303 131 299 106 292 89 C275 54 237 30 196 30 C150 30 119 57 119 99 C119 132 138 158 173 176 C208 193 236 198 303 200 L303 167 Z " />
<glyph glyph-name="atilde" unicode="&#xe3;" horiz-adv-x="464" d="M385 572 C369 550 353 541 329 541 C316 541 297 544 283 549 L244 563 C223 571 211 573 194 573 C149 573 122 553 95 499 L104 493 C121 515 138 524 167 524 C180 524 198 521 214 515 L252 502 C272 495 287 492 299 492 C337 492 362 512 394 567 L385 572 Z M303 215 C222 213 185 208 144 194 C79 171 43 131 43 82 C43 26 89 -10 162 -10 C225 -10 268 15 303 71 C311 13 334 -10 382 -10 C408 -10 419 -6 454 18 L444 30 C430 19 421 15 410 15 C388 15 380 26 380 57 L380 282 C380 324 370 349 346 366 C319 386 277 397 232 397 C147 397 73 352 73 301 C73 275 90 257 114 257 C137 257 154 274 154 297 C154 309 150 315 135 329 C128 336 125 340 125 342 C125 359 177 380 221 380 C247 380 268 375 283 364 C298 354 303 340 303 315 L303 215 Z M303 167 C303 131 299 106 292 89 C275 54 237 30 196 30 C150 30 119 57 119 99 C119 132 138 158 173 176 C208 193 236 198 303 200 L303 167 Z " />
<glyph glyph-name="adieresis" unicode="&#xe4;" horiz-adv-x="464" d="M146 584 C120 584 98 562 98 536 C98 509 120 487 147 487 C173 487 195 509 195 535 C195 562 174 584 146 584 L146 584 Z M337 584 C311 584 289 562 289 536 C289 509 311 487 338 487 C364 487 386 509 386 535 C386 562 365 584 337 584 L337 584 Z M303 215 C222 213 185 208 144 194 C79 171 43 131 43 82 C43 26 89 -10 162 -10 C225 -10 268 15 303 71 C311 13 334 -10 382 -10 C408 -10 419 -6 454 18 L444 30 C430 19 421 15 410 15 C388 15 380 26 380 57 L380 282 C380 324 370 349 346 366 C319 386 277 397 232 397 C147 397 73 352 73 301 C73 275 90 257 114 257 C137 257 154 274 154 297 C154 309 150 315 135 329 C128 336 125 340 125 342 C125 359 177 380 221 380 C247 380 268 375 283 364 C298 354 303 340 303 315 L303 215 Z M303 167 C303 131 299 106 292 89 C275 54 237 30 196 30 C150 30 119 57 119 99 C119 132 138 158 173 176 C208 193 236 198 303 200 L303 167 Z " />
<glyph glyph-name="aring" unicode="&#xe5;" horiz-adv-x="464" d="M249 615 C206 615 172 581 172 538 C172 496 205 463 248 463 C291 463 324 496 324 537 C324 581 291 615 249 615 L249 615 Z M249 588 C274 588 296 565 296 539 C296 513 274 490 248 490 C222 490 200 513 200 539 C200 565 222 588 249 588 L249 588 Z M303 215 C222 213 185 208 144 194 C79 171 43 131 43 82 C43 26 89 -10 162 -10 C225 -10 268 15 303 71 C311 13 334 -10 382 -10 C408 -10 419 -6 454 18 L444 30 C430 19 421 15 410 15 C388 15 380 26 380 57 L380 282 C380 324 370 349 346 366 C319 386 277 397 232 397 C147 397 73 352 73 301 C73 275 90 257 114 257 C137 257 154 274 154 297 C154 309 150 315 135 329 C128 336 125 340 125 342 C125 359 177 380 221 380 C247 380 268 375 283 364 C298 354 303 340 303 315 L303 215 Z M303 167 C303 131 299 106 292 89 C275 54 237 30 196 30 C150 30 119 57 119 99 C119 132 138 158 173 176 C208 193 236 198 303 200 L303 167 Z " />
<glyph glyph-name="ae" unicode="&#xe6;" horiz-adv-x="712" d="M298 214 C219 212 182 207 143 193 C80 170 44 131 44 82 C44 26 89 -10 159 -10 C230 -10 288 32 308 98 C325 73 335 60 345 50 C382 13 440 -10 496 -10 C586 -10 653 44 670 130 L648 130 C631 56 571 10 491 10 C453 10 419 23 400 45 C381 67 375 92 375 151 L375 228 L674 228 C669 326 589 397 484 397 C436 397 395 383 356 354 C331 381 286 397 231 397 C146 397 73 352 73 300 C73 274 90 256 113 256 C135 256 152 273 152 296 C152 308 149 314 134 329 C128 336 125 339 125 342 C125 359 176 380 218 380 C273 380 298 359 298 314 L298 214 Z M298 167 C298 131 294 106 287 89 C271 54 234 30 195 30 C150 30 120 57 120 99 C120 132 138 158 172 175 C206 193 233 198 298 199 L298 167 Z M574 246 L375 246 L375 280 C375 346 408 377 479 377 C546 377 574 351 574 289 L574 246 Z " />
<glyph glyph-name="ccedilla" unicode="&#xe7;" horiz-adv-x="443" d="M239 -10 L250 -10 C295 -10 336 3 369 27 C402 51 416 73 432 126 L409 126 C399 93 389 76 372 59 C342 28 296 10 249 10 C209 10 177 24 158 51 C143 72 137 102 137 165 L137 228 C137 336 173 378 266 378 C312 378 357 365 357 351 C357 348 355 346 348 341 C332 330 323 313 323 296 C323 269 341 249 367 249 C394 249 413 268 413 296 C413 354 350 397 265 397 C140 397 44 308 44 191 C44 90 117 6 218 -8 L201 -65 C246 -74 265 -89 265 -114 C265 -140 238 -160 204 -160 C176 -160 149 -151 149 -141 C149 -140 149 -140 154 -125 C155 -124 151 -108 149 -105 C147 -100 143 -98 138 -98 C131 -98 126 -104 126 -114 C126 -150 163 -176 214 -176 C273 -176 323 -144 323 -106 C323 -75 291 -56 239 -56 L224 -56 L239 -10 Z " />
<glyph glyph-name="egrave" unicode="&#xe8;" horiz-adv-x="475" d="M218 613 L153 613 C145 613 141 611 141 606 C141 603 144 599 149 595 L307 466 C311 463 311 463 313 463 C314 463 316 464 316 466 C316 467 315 469 314 470 L218 613 Z M135 228 L437 228 C432 326 353 397 249 397 C188 397 136 373 96 325 C63 286 44 238 44 192 C44 83 143 -10 258 -10 C349 -10 416 44 433 130 L411 130 C394 56 333 10 253 10 C214 10 180 23 161 45 C141 67 135 92 135 151 L135 228 Z M337 246 L135 246 L135 280 C135 346 169 377 240 377 C308 377 337 351 337 289 L337 246 Z " />
<glyph glyph-name="eacute" unicode="&#xe9;" horiz-adv-x="475" d="M335 613 L239 470 C238 469 237 467 237 466 C237 465 239 463 240 463 C242 463 243 464 246 466 L404 595 C409 598 412 603 412 606 C412 611 408 613 400 613 L335 613 Z M135 228 L437 228 C432 326 353 397 249 397 C188 397 136 373 96 325 C63 286 44 238 44 192 C44 83 143 -10 258 -10 C349 -10 416 44 433 130 L411 130 C394 56 333 10 253 10 C214 10 180 23 161 45 C141 67 135 92 135 151 L135 228 Z M337 246 L135 246 L135 280 C135 346 169 377 240 377 C308 377 337 351 337 289 L337 246 Z " />
<glyph glyph-name="ecircumflex" unicode="&#xea;" horiz-adv-x="475" d="M258 541 L391 465 C393 464 395 463 396 463 C398 463 400 464 400 466 C400 468 398 471 395 474 L258 617 L120 474 C117 471 115 468 115 466 C115 464 117 463 118 463 C120 463 122 464 124 465 L258 541 Z M135 228 L437 228 C432 326 353 397 249 397 C188 397 136 373 96 325 C63 286 44 238 44 192 C44 83 143 -10 258 -10 C349 -10 416 44 433 130 L411 130 C394 56 333 10 253 10 C214 10 180 23 161 45 C141 67 135 92 135 151 L135 228 Z M337 246 L135 246 L135 280 C135 346 169 377 240 377 C308 377 337 351 337 289 L337 246 Z " />
<glyph glyph-name="edieresis" unicode="&#xeb;" horiz-adv-x="475" d="M162 584 C136 584 114 562 114 536 C114 509 136 487 163 487 C189 487 211 509 211 535 C211 562 190 584 162 584 L162 584 Z M352 584 C326 584 304 562 304 536 C304 509 326 487 353 487 C379 487 401 509 401 535 C401 562 380 584 352 584 L352 584 Z M135 228 L437 228 C432 326 353 397 249 397 C188 397 136 373 96 325 C63 286 44 238 44 192 C44 83 143 -10 258 -10 C349 -10 416 44 433 130 L411 130 C394 56 333 10 253 10 C214 10 180 23 161 45 C141 67 135 92 135 151 L135 228 Z M337 246 L135 246 L135 280 C135 346 169 377 240 377 C308 377 337 351 337 289 L337 246 Z " />
<glyph glyph-name="igrave" unicode="&#xec;" horiz-adv-x="291" d="M199 387 L41 387 L41 369 L122 369 L122 18 L41 18 L41 0 L272 0 L272 18 L199 18 L199 387 Z M115 613 L50 613 C42 613 38 611 38 606 C38 603 41 598 45 595 L204 466 C207 463 208 463 209 463 C211 463 212 464 212 466 C212 467 212 469 211 470 L115 613 Z " />
<glyph glyph-name="iacute" unicode="&#xed;" horiz-adv-x="291" d="M198 387 L40 387 L40 369 L121 369 L121 18 L40 18 L40 0 L271 0 L271 18 L198 18 L198 387 Z M244 613 L148 470 C147 469 146 467 146 466 C146 465 148 463 149 463 C151 463 152 464 155 466 L313 595 C318 598 321 603 321 606 C321 611 317 613 309 613 L244 613 Z " />
<glyph glyph-name="icircumflex" unicode="&#xee;" horiz-adv-x="291" d="M199 387 L41 387 L41 369 L122 369 L122 18 L41 18 L41 0 L272 0 L272 18 L199 18 L199 387 Z M152 541 L286 465 C288 464 290 463 291 463 C293 463 295 464 295 466 C295 468 293 471 290 474 L152 617 L15 474 C12 471 10 468 10 466 C10 464 12 463 13 463 C15 463 17 464 19 465 L152 541 Z " />
<glyph glyph-name="idieresis" unicode="&#xef;" horiz-adv-x="291" d="M198 387 L40 387 L40 369 L121 369 L121 18 L40 18 L40 0 L271 0 L271 18 L198 18 L198 387 Z M65 580 C40 580 19 559 19 534 C19 508 40 487 66 487 C91 487 112 508 112 533 C112 559 92 580 65 580 L65 580 Z M225 580 C200 580 179 559 179 534 C179 508 200 487 226 487 C251 487 272 508 272 533 C272 559 252 580 225 580 L225 580 Z " />
<glyph glyph-name="eth" unicode="&#xf0;" horiz-adv-x="517" d="M145 544 L158 527 L250 580 C306 515 337 457 358 378 C319 393 298 397 265 397 C142 397 44 306 44 191 C44 80 140 -10 260 -10 C386 -10 474 80 474 208 C474 335 405 475 281 597 L368 649 L356 664 L262 610 C243 629 184 668 157 680 L145 667 C196 633 209 623 237 596 L145 544 Z M137 218 C140 305 141 312 150 329 C166 359 207 377 258 377 C305 377 343 362 362 335 C375 318 381 280 381 218 L381 169 C381 116 376 74 367 58 C349 28 309 10 258 10 C212 10 173 26 154 52 C141 70 140 76 137 169 L137 218 Z " />
<glyph glyph-name="ntilde" unicode="&#xf1;" horiz-adv-x="575" d="M444 572 C428 550 412 541 388 541 C375 541 356 544 342 549 L303 563 C282 571 270 573 253 573 C208 573 181 553 154 499 L163 493 C180 515 197 524 226 524 C240 524 257 521 273 515 L312 502 C331 495 346 492 358 492 C396 492 421 512 453 567 L444 572 Z M190 387 L40 387 L40 369 L113 369 L113 18 L40 18 L40 0 L271 0 L271 18 L190 18 L190 178 C190 251 195 289 210 313 C231 349 277 374 321 374 C373 374 397 348 397 292 L397 18 L324 18 L324 0 L555 0 L555 18 L474 18 L474 265 C474 310 466 336 444 357 C419 383 379 397 334 397 C275 397 235 378 190 330 L190 387 Z " />
<glyph glyph-name="ograve" unicode="&#xf2;" horiz-adv-x="517" d="M218 613 L153 613 C145 613 141 611 141 606 C141 603 144 598 149 595 L307 466 C310 463 311 463 312 463 C314 463 316 464 316 466 C316 467 315 469 314 470 L218 613 Z M258 397 C140 397 44 306 44 194 C44 81 139 -10 258 -10 C376 -10 473 80 473 191 C473 307 379 397 258 397 L258 397 Z M137 218 C140 306 141 312 150 329 C166 359 207 377 258 377 C304 377 342 362 361 335 C374 318 380 280 380 218 L380 169 C380 116 375 74 366 58 C349 28 308 10 258 10 C211 10 173 26 154 52 C141 70 140 75 137 169 L137 218 Z " />
<glyph glyph-name="oacute" unicode="&#xf3;" horiz-adv-x="517" d="M348 613 L252 470 C251 469 250 467 250 466 C250 465 252 463 253 463 C255 463 256 464 259 466 L417 595 C422 598 425 603 425 606 C425 611 421 613 413 613 L348 613 Z M258 397 C140 397 44 306 44 194 C44 81 139 -10 258 -10 C376 -10 473 80 473 191 C473 307 379 397 258 397 L258 397 Z M137 218 C140 306 141 312 150 329 C166 359 207 377 258 377 C304 377 342 362 361 335 C374 318 380 280 380 218 L380 169 C380 116 375 74 366 58 C349 28 308 10 258 10 C211 10 173 26 154 52 C141 70 140 75 137 169 L137 218 Z " />
<glyph glyph-name="ocircumflex" unicode="&#xf4;" horiz-adv-x="517" d="M263 541 L397 465 C399 464 400 463 402 463 C404 463 406 464 406 466 C406 468 405 470 400 474 L263 617 L126 474 C122 470 120 468 120 466 C120 464 122 463 124 463 C126 463 127 464 129 465 L263 541 Z M258 397 C140 397 44 306 44 194 C44 81 139 -10 258 -10 C376 -10 473 80 473 191 C473 307 379 397 258 397 L258 397 Z M137 218 C140 306 141 312 150 329 C166 359 207 377 258 377 C304 377 342 362 361 335 C374 318 380 280 380 218 L380 169 C380 116 375 74 366 58 C349 28 308 10 258 10 C211 10 173 26 154 52 C141 70 140 75 137 169 L137 218 Z " />
<glyph glyph-name="otilde" unicode="&#xf5;" horiz-adv-x="517" d="M406 572 C390 550 374 541 351 541 C337 541 318 544 305 549 L265 563 C244 571 232 573 215 573 C170 573 143 553 117 499 L125 493 C142 515 159 524 188 524 C202 524 219 521 236 515 L274 502 C293 495 308 492 320 492 C358 492 383 512 416 567 L406 572 Z M258 397 C140 397 44 306 44 194 C44 81 139 -10 258 -10 C376 -10 473 80 473 191 C473 307 379 397 258 397 L258 397 Z M137 218 C140 306 141 312 150 329 C166 359 207 377 258 377 C304 377 342 362 361 335 C374 318 380 280 380 218 L380 169 C380 116 375 74 366 58 C349 28 308 10 258 10 C211 10 173 26 154 52 C141 70 140 75 137 169 L137 218 Z " />
<glyph glyph-name="odieresis" unicode="&#xf6;" horiz-adv-x="517" d="M165 584 C139 584 117 562 117 536 C117 509 139 487 166 487 C192 487 214 509 214 535 C214 562 193 584 165 584 L165 584 Z M356 584 C330 584 308 562 308 536 C308 509 330 487 357 487 C383 487 405 509 405 535 C405 562 384 584 356 584 L356 584 Z M258 397 C140 397 44 306 44 194 C44 81 139 -10 258 -10 C376 -10 473 80 473 191 C473 307 379 397 258 397 L258 397 Z M137 218 C140 306 141 312 150 329 C166 359 207 377 258 377 C304 377 342 362 361 335 C374 318 380 280 380 218 L380 169 C380 116 375 74 366 58 C349 28 308 10 258 10 C211 10 173 26 154 52 C141 70 140 75 137 169 L137 218 Z " />
<glyph glyph-name="divide" unicode="&#xf7;" horiz-adv-x="550" d="M56 308 L493 308 L493 338 L56 338 L56 308 Z M274 530 C240 530 212 505 212 474 C212 442 240 417 275 417 C309 417 337 442 337 473 C337 505 310 530 274 530 L274 530 Z M274 227 C240 227 212 201 212 170 C212 139 240 113 275 113 C309 113 337 138 337 169 C337 202 310 227 274 227 L274 227 Z " />
<glyph glyph-name="oslash" unicode="&#xf8;" horiz-adv-x="517" d="M447 406 L432 416 L390 360 C351 385 310 397 263 397 C141 397 44 306 44 192 C44 136 64 87 105 45 L64 -11 L77 -23 L119 32 C162 3 204 -10 254 -10 C376 -10 473 81 473 196 C473 253 445 314 405 348 L447 406 Z M372 313 C377 294 379 262 380 218 L380 169 C380 116 375 74 366 58 C348 28 308 10 257 10 C204 10 167 28 149 61 L372 313 Z M142 84 C139 111 137 139 137 169 L137 218 C140 306 141 312 150 329 C166 359 207 377 258 377 C305 377 337 364 362 335 L142 84 Z " />
<glyph glyph-name="ugrave" unicode="&#xf9;" horiz-adv-x="562" d="M246 613 L181 613 C173 613 169 611 169 606 C169 603 172 598 176 595 L335 466 C339 463 339 463 340 463 C342 463 343 464 343 466 C343 467 343 469 342 470 L246 613 Z M469 387 L311 387 L311 369 L392 369 L392 200 C392 140 384 90 370 68 C349 34 306 13 257 13 C197 13 178 38 178 117 L178 387 L20 387 L20 369 L101 369 L101 131 C101 80 107 54 125 33 C147 6 192 -10 247 -10 C314 -10 354 9 392 60 L392 0 L542 0 L542 18 L469 18 L469 387 Z " />
<glyph glyph-name="uacute" unicode="&#xfa;" horiz-adv-x="562" d="M359 613 L263 470 L262 466 C262 464 263 463 265 463 C266 463 267 463 270 466 L429 595 C433 598 436 603 436 606 C436 611 432 613 424 613 L359 613 Z M469 387 L311 387 L311 369 L392 369 L392 200 C392 140 384 90 370 68 C349 34 306 13 257 13 C197 13 178 38 178 117 L178 387 L20 387 L20 369 L101 369 L101 131 C101 80 107 54 125 33 C147 6 192 -10 247 -10 C314 -10 354 9 392 60 L392 0 L542 0 L542 18 L469 18 L469 387 Z " />
<glyph glyph-name="ucircumflex" unicode="&#xfb;" horiz-adv-x="562" d="M284 541 L418 465 C420 464 421 463 423 463 C425 463 427 464 427 466 C427 468 426 470 421 474 L284 617 L147 474 C143 470 141 468 141 466 C141 464 143 463 145 463 C147 463 148 464 150 465 L284 541 Z M469 387 L311 387 L311 369 L392 369 L392 200 C392 140 384 90 370 68 C349 34 306 13 257 13 C197 13 178 38 178 117 L178 387 L20 387 L20 369 L101 369 L101 131 C101 80 107 54 125 33 C147 6 192 -10 247 -10 C314 -10 354 9 392 60 L392 0 L542 0 L542 18 L469 18 L469 387 Z " />
<glyph glyph-name="udieresis" unicode="&#xfc;" horiz-adv-x="562" d="M188 584 C162 584 140 562 140 536 C140 509 162 487 189 487 C215 487 237 509 237 535 C237 562 216 584 188 584 L188 584 Z M379 584 C353 584 331 562 331 536 C331 509 353 487 380 487 C406 487 428 509 428 535 C428 562 407 584 379 584 L379 584 Z M469 387 L311 387 L311 369 L392 369 L392 200 C392 140 384 90 370 68 C349 34 306 13 257 13 C197 13 178 38 178 117 L178 387 L20 387 L20 369 L101 369 L101 131 C101 80 107 54 125 33 C147 6 192 -10 247 -10 C314 -10 354 9 392 60 L392 0 L542 0 L542 18 L469 18 L469 387 Z " />
<glyph glyph-name="yacute" unicode="&#xfd;" horiz-adv-x="455" d="M326 613 L230 470 C229 469 228 467 228 466 C228 465 230 463 231 463 C233 463 234 464 237 466 L395 595 C400 598 403 603 403 606 C403 611 399 613 391 613 L326 613 Z M275 94 L149 369 L224 369 L224 387 L0 387 L0 369 L51 369 L237 -6 L177 -161 C163 -201 157 -208 141 -208 C135 -208 129 -205 125 -200 C108 -180 98 -174 79 -174 C51 -174 31 -194 31 -221 C31 -252 57 -274 92 -274 C139 -274 170 -244 199 -170 L407 369 L455 369 L455 387 L301 387 L301 369 L378 369 L275 94 Z " />
<glyph glyph-name="thorn" unicode="&#xfe;" horiz-adv-x="538" d="M170 667 L20 667 L20 649 L93 649 L93 -249 L20 -249 L20 -267 L266 -267 L266 -249 L170 -249 L170 82 C210 14 245 -10 308 -10 C412 -10 495 84 495 200 C495 312 415 397 311 397 C247 397 205 370 170 306 L170 667 Z M402 176 C402 133 397 89 389 64 C378 29 350 10 308 10 C230 10 172 87 172 189 C172 302 229 377 313 377 C349 377 377 363 390 338 C399 321 402 297 402 249 L402 176 Z " />
<glyph glyph-name="ydieresis" unicode="&#xff;" horiz-adv-x="455" d="M150 584 C124 584 102 562 102 536 C102 509 124 487 151 487 C177 487 199 509 199 535 C199 562 178 584 150 584 L150 584 Z M340 584 C314 584 292 562 292 536 C292 509 314 487 341 487 C367 487 389 509 389 535 C389 562 368 584 340 584 L340 584 Z M275 94 L149 369 L224 369 L224 387 L0 387 L0 369 L51 369 L237 -6 L177 -161 C163 -201 157 -208 141 -208 C135 -208 129 -205 125 -200 C108 -180 98 -174 79 -174 C51 -174 31 -194 31 -221 C31 -252 57 -274 92 -274 C139 -274 170 -244 199 -170 L407 369 L455 369 L455 387 L301 387 L301 369 L378 369 L275 94 Z " />
<glyph glyph-name="Amacron" unicode="&#x100;" horiz-adv-x="667" d="M401 214 L475 18 L371 18 L371 0 L670 0 L670 18 L586 18 L346 667 L316 667 L66 18 L-4 18 L-4 0 L191 0 L191 18 L94 18 L168 214 L401 214 Z M395 232 L175 232 L285 527 L395 232 Z M491 749 L491 779 L171 779 L171 749 L491 749 Z " />
<glyph glyph-name="amacron" unicode="&#x101;" horiz-adv-x="464" d="M303 215 C222 213 185 208 144 194 C79 171 43 131 43 82 C43 26 89 -10 162 -10 C225 -10 268 15 303 71 C311 13 334 -10 382 -10 C408 -10 419 -6 454 18 L444 30 C430 19 421 15 410 15 C388 15 380 26 380 57 L380 282 C380 324 370 349 346 366 C319 386 277 397 232 397 C147 397 73 352 73 301 C73 275 90 257 114 257 C137 257 154 274 154 297 C154 309 150 315 135 329 C128 336 125 340 125 342 C125 359 177 380 221 380 C247 380 268 375 283 364 C298 354 303 340 303 315 L303 215 Z M303 167 C303 131 299 106 292 89 C275 54 237 30 196 30 C150 30 119 57 119 99 C119 132 138 158 173 176 C208 193 236 198 303 200 L303 167 Z M379 499 L379 523 L106 523 L106 499 L379 499 Z " />
<glyph glyph-name="Abreve" unicode="&#x102;" horiz-adv-x="667" d="M401 214 L475 18 L371 18 L371 0 L670 0 L670 18 L586 18 L346 667 L316 667 L66 18 L-4 18 L-4 0 L191 0 L191 18 L94 18 L168 214 L401 214 Z M395 232 L175 232 L285 527 L395 232 Z M468 838 C458 813 447 800 428 791 C405 781 369 774 333 774 C297 774 261 781 238 791 C219 800 208 813 198 838 L184 838 C196 768 256 722 333 722 C411 722 470 768 482 838 L468 838 Z " />
<glyph glyph-name="abreve" unicode="&#x103;" horiz-adv-x="464" d="M303 215 C222 213 185 208 144 194 C79 171 43 131 43 82 C43 26 89 -10 162 -10 C225 -10 268 15 303 71 C311 13 334 -10 382 -10 C408 -10 419 -6 454 18 L444 30 C430 19 421 15 410 15 C388 15 380 26 380 57 L380 282 C380 324 370 349 346 366 C319 386 277 397 232 397 C147 397 73 352 73 301 C73 275 90 257 114 257 C137 257 154 274 154 297 C154 309 150 315 135 329 C128 336 125 340 125 342 C125 359 177 380 221 380 C247 380 268 375 283 364 C298 354 303 340 303 315 L303 215 Z M303 167 C303 131 299 106 292 89 C275 54 237 30 196 30 C150 30 119 57 119 99 C119 132 138 158 173 176 C208 193 236 198 303 200 L303 167 Z M365 610 C356 576 347 559 329 545 C311 531 277 521 245 521 C213 521 179 531 161 545 C143 559 134 575 125 610 L113 610 C124 524 177 467 245 467 C313 467 365 523 376 610 L365 610 Z " />
<glyph glyph-name="Aogonek" unicode="&#x104;" horiz-adv-x="667" d="M670 0 L670 18 L586 18 L346 667 L316 667 L66 18 L-4 18 L-4 0 L191 0 L191 18 L94 18 L168 214 L401 214 L475 18 L371 18 L371 0 L569 0 C494 -24 458 -54 458 -96 C458 -137 492 -162 548 -162 C583 -162 605 -157 639 -141 L639 -127 C614 -134 601 -136 583 -136 C535 -136 513 -120 513 -87 C513 -53 535 -30 595 0 L670 0 Z M395 232 L175 232 L285 527 L395 232 Z " />
<glyph glyph-name="aogonek" unicode="&#x105;" horiz-adv-x="464" d="M444 30 C430 19 421 15 410 15 C388 15 380 26 380 57 L380 282 C380 324 370 349 346 366 C319 386 277 397 232 397 C147 397 73 352 73 301 C73 275 90 257 114 257 C137 257 154 274 154 297 C154 309 150 315 135 329 C128 336 125 340 125 342 C125 359 177 380 221 380 C247 380 268 375 283 364 C298 354 303 340 303 315 L303 215 C222 213 185 208 144 194 C79 171 43 131 43 82 C43 26 89 -10 162 -10 C225 -10 268 15 303 71 C308 21 328 -3 369 -9 C316 -32 289 -61 289 -95 C289 -134 323 -159 376 -159 C410 -159 430 -154 462 -138 L462 -124 C439 -132 427 -134 408 -134 C363 -134 341 -119 341 -86 C341 -56 362 -30 406 -7 C418 -5 430 2 454 18 L444 30 Z M303 167 C303 131 299 106 292 89 C275 54 237 30 196 30 C150 30 119 57 119 99 C119 132 138 158 173 176 C208 193 236 198 303 200 L303 167 Z " />
<glyph glyph-name="Cacute" unicode="&#x106;" horiz-adv-x="650" d="M597 667 L582 667 L546 617 C483 661 435 677 370 677 C281 677 199 639 137 569 C80 505 51 423 51 328 C51 238 78 163 136 97 C196 28 277 -10 362 -10 C425 -10 475 6 546 50 L582 0 L597 0 L597 185 L582 185 C560 133 547 110 525 85 C483 37 423 10 358 10 C286 10 223 41 194 89 C170 127 164 178 164 324 C164 432 170 505 182 544 C204 615 271 657 363 657 C424 657 479 637 520 599 C552 570 567 544 582 494 L597 494 L597 667 Z M447 833 L318 731 C313 727 313 726 313 724 C313 721 314 720 317 720 C319 720 323 720 324 721 L545 814 C553 817 557 821 557 825 C557 831 553 833 544 833 L447 833 Z " />
<glyph glyph-name="cacute" unicode="&#x107;" horiz-adv-x="443" d="M409 126 C399 93 389 76 372 59 C342 28 296 10 249 10 C209 10 177 24 158 51 C143 72 137 102 137 165 L137 228 C137 336 173 378 266 378 C312 378 357 365 357 351 C357 348 355 346 348 341 C332 330 323 313 323 296 C323 269 341 249 367 249 C394 249 413 268 413 296 C413 354 350 397 265 397 C140 397 44 308 44 192 C44 79 137 -10 254 -10 C307 -10 352 7 387 41 C409 62 418 81 432 126 L409 126 Z M320 613 L224 470 C223 469 222 467 222 466 C222 465 224 463 225 463 C227 463 228 464 231 466 L389 595 C394 598 397 603 397 606 C397 611 393 613 385 613 L320 613 Z " />
<glyph glyph-name="Ccircumflex" unicode="&#x108;" horiz-adv-x="650" d="M597 667 L582 667 L546 617 C483 661 435 677 370 677 C281 677 199 639 137 569 C80 505 51 423 51 328 C51 238 78 163 136 97 C196 28 277 -10 362 -10 C425 -10 475 6 546 50 L582 0 L597 0 L597 185 L582 185 C560 133 547 110 525 85 C483 37 423 10 358 10 C286 10 223 41 194 89 C170 127 164 178 164 324 C164 432 170 505 182 544 C204 615 271 657 363 657 C424 657 479 637 520 599 C552 570 567 544 582 494 L597 494 L597 667 Z M370 769 L518 721 C519 720 521 720 522 720 C525 720 527 721 527 723 C527 725 525 727 522 730 L370 838 L219 730 C214 726 213 725 213 723 C213 721 215 720 218 720 C220 720 221 720 223 721 L370 769 Z " />
<glyph glyph-name="Cdotaccent" unicode="&#x10a;" horiz-adv-x="650" d="M597 667 L582 667 L546 617 C483 661 435 677 370 677 C281 677 199 639 137 569 C80 505 51 423 51 328 C51 238 78 163 136 97 C196 28 277 -10 362 -10 C425 -10 475 6 546 50 L582 0 L597 0 L597 185 L582 185 C560 133 547 110 525 85 C483 37 423 10 358 10 C286 10 223 41 194 89 C170 127 164 178 164 324 C164 432 170 505 182 544 C204 615 271 657 363 657 C424 657 479 637 520 599 C552 570 567 544 582 494 L597 494 L597 667 Z M367 826 C340 826 317 803 317 776 C317 748 340 725 368 725 C395 725 418 748 418 775 C418 804 396 826 367 826 L367 826 Z " />
<glyph glyph-name="cdotaccent" unicode="&#x10b;" horiz-adv-x="443" d="M409 126 C399 93 389 76 372 59 C342 28 296 10 249 10 C209 10 177 24 158 51 C143 72 137 102 137 165 L137 228 C137 336 173 378 266 378 C312 378 357 365 357 351 C357 348 355 346 348 341 C332 330 323 313 323 296 C323 269 341 249 367 249 C394 249 413 268 413 296 C413 354 350 397 265 397 C140 397 44 308 44 192 C44 79 137 -10 254 -10 C307 -10 352 7 387 41 C409 62 418 81 432 126 L409 126 Z M263 586 C236 586 213 563 213 536 C213 508 236 485 264 485 C291 485 314 508 314 535 C314 564 292 586 263 586 L263 586 Z " />
<glyph glyph-name="Ccaron" unicode="&#x10c;" horiz-adv-x="650" d="M597 667 L582 667 L546 617 C483 661 435 677 370 677 C281 677 199 639 137 569 C80 505 51 423 51 328 C51 238 78 163 136 97 C196 28 277 -10 362 -10 C425 -10 475 6 546 50 L582 0 L597 0 L597 185 L582 185 C560 133 547 110 525 85 C483 37 423 10 358 10 C286 10 223 41 194 89 C170 127 164 178 164 324 C164 432 170 505 182 544 C204 615 271 657 363 657 C424 657 479 637 520 599 C552 570 567 544 582 494 L597 494 L597 667 Z M372 789 L225 838 L220 838 C216 837 215 837 215 835 C215 833 216 832 221 829 L372 720 L524 829 C528 831 529 833 529 835 C529 837 527 838 524 838 L520 838 L372 789 Z " />
<glyph glyph-name="ccaron" unicode="&#x10d;" horiz-adv-x="443" d="M409 126 C399 93 389 76 372 59 C342 28 296 10 249 10 C209 10 177 24 158 51 C143 72 137 102 137 165 L137 228 C137 336 173 378 266 378 C312 378 357 365 357 351 C357 348 355 346 348 341 C332 330 323 313 323 296 C323 269 341 249 367 249 C394 249 413 268 413 296 C413 354 350 397 265 397 C140 397 44 308 44 192 C44 79 137 -10 254 -10 C307 -10 352 7 387 41 C409 62 418 81 432 126 L409 126 Z M263 539 L130 615 C128 616 126 617 124 617 C122 617 120 616 120 614 C120 612 121 611 126 606 L263 463 L401 606 C404 609 406 612 406 614 C406 616 404 617 403 617 C401 617 399 616 397 615 L263 539 Z " />
<glyph glyph-name="Dcaron" unicode="&#x10e;" horiz-adv-x="741" d="M134 18 L37 18 L37 0 L304 0 C450 0 518 22 590 91 C654 153 690 240 690 335 C690 428 655 515 594 574 C524 642 445 667 303 667 L37 667 L37 649 L134 649 L134 18 Z M227 18 L227 649 L303 649 C405 649 461 637 506 604 C558 567 576 501 576 349 C576 200 564 127 532 88 C492 38 427 18 305 18 L227 18 Z M349 789 L201 838 L197 838 C193 838 192 837 192 835 C192 833 193 831 197 829 L349 720 L500 829 C505 832 506 833 506 835 C506 837 504 838 501 838 L496 838 L349 789 Z " />
<glyph glyph-name="dcaron" unicode="&#x10f;" horiz-adv-x="617" d="M370 0 L520 0 L520 18 L447 18 L447 667 L274 667 L274 649 L370 649 L370 307 C332 372 294 397 231 397 C122 397 44 312 44 194 C44 77 125 -10 233 -10 C297 -10 333 15 370 84 L370 0 Z M137 233 C137 277 141 315 148 331 C161 361 188 377 227 377 C311 377 366 305 366 192 C366 83 311 10 230 10 C193 10 165 26 151 55 C141 78 137 105 137 165 L137 233 Z M541 457 C589 497 614 539 614 581 C614 630 580 667 535 667 C501 667 477 644 477 612 C477 584 495 565 521 565 C544 565 561 582 561 606 C561 608 561 614 560 619 C583 609 593 593 593 569 C593 539 574 509 528 468 L541 457 Z " />
<glyph glyph-name="Dcroat" unicode="&#x110;" horiz-adv-x="741" d="M132 330 L132 18 L37 18 L37 0 L305 0 C450 0 518 22 589 91 C653 153 689 240 689 334 C689 428 654 515 593 574 C524 642 445 667 304 667 L37 667 L37 649 L132 649 L132 348 L37 348 L37 330 L132 330 Z M227 330 L405 330 L405 348 L227 348 L227 649 L303 649 C405 649 461 636 506 604 C557 566 575 500 575 348 C575 200 563 127 532 88 C492 38 427 18 305 18 L227 18 L227 330 Z " />
<glyph glyph-name="dcroat" unicode="&#x111;" horiz-adv-x="540" d="M370 532 L370 307 C332 372 294 397 231 397 C122 397 44 312 44 194 C44 77 125 -10 233 -10 C297 -10 333 15 370 84 L370 0 L520 0 L520 18 L447 18 L447 532 L520 532 L520 556 L447 556 L447 667 L274 667 L274 649 L370 649 L370 556 L201 556 L201 532 L370 532 Z M137 233 C137 277 141 315 148 331 C161 361 188 377 227 377 C311 377 366 305 366 192 C366 83 311 10 230 10 C193 10 165 26 151 55 C141 78 137 105 137 165 L137 233 Z " />
<glyph glyph-name="Emacron" unicode="&#x112;" horiz-adv-x="644" d="M557 667 L37 667 L37 649 L132 649 L132 18 L37 18 L37 0 L581 0 L603 208 L588 208 C572 153 558 116 543 92 C501 26 481 17 381 18 L225 18 L225 329 L276 329 C366 330 403 299 404 221 L404 198 L419 198 L419 472 L404 472 L404 453 C404 376 369 347 280 347 L225 347 L225 649 L324 649 C476 651 524 617 557 486 L571 486 L557 667 Z M501 749 L501 779 L181 779 L181 749 L501 749 Z " />
<glyph glyph-name="emacron" unicode="&#x113;" horiz-adv-x="475" d="M135 228 L437 228 C432 326 353 397 249 397 C188 397 136 373 96 325 C63 286 44 238 44 192 C44 83 143 -10 258 -10 C349 -10 416 44 433 130 L411 130 C394 56 333 10 253 10 C214 10 180 23 161 45 C141 67 135 92 135 151 L135 228 Z M337 246 L135 246 L135 280 C135 346 169 377 240 377 C308 377 337 351 337 289 L337 246 Z M381 499 L381 523 L108 523 L108 499 L381 499 Z " />
<glyph glyph-name="Ebreve" unicode="&#x114;" horiz-adv-x="644" d="M557 667 L37 667 L37 649 L132 649 L132 18 L37 18 L37 0 L581 0 L603 208 L588 208 C572 153 558 116 543 92 C501 26 481 17 381 18 L225 18 L225 329 L276 329 C366 330 403 299 404 221 L404 198 L419 198 L419 472 L404 472 L404 453 C404 376 369 347 280 347 L225 347 L225 649 L324 649 C476 651 524 617 557 486 L571 486 L557 667 Z M476 838 C466 813 455 800 436 791 C413 781 377 774 341 774 C305 774 269 781 246 791 C227 800 216 813 205 838 L192 838 C204 768 263 722 341 722 C418 722 478 768 490 838 L476 838 Z " />
<glyph glyph-name="ebreve" unicode="&#x115;" horiz-adv-x="475" d="M135 228 L437 228 C432 326 353 397 249 397 C188 397 136 373 96 325 C63 286 44 238 44 192 C44 83 143 -10 258 -10 C349 -10 416 44 433 130 L411 130 C394 56 333 10 253 10 C214 10 180 23 161 45 C141 67 135 92 135 151 L135 228 Z M337 246 L135 246 L135 280 C135 346 169 377 240 377 C308 377 337 351 337 289 L337 246 Z M373 610 C364 576 355 559 337 545 C319 531 285 521 253 521 C221 521 187 531 169 545 C151 559 142 575 132 610 L121 610 C132 524 184 467 253 467 C321 467 373 523 384 610 L373 610 Z " />
<glyph glyph-name="Edotaccent" unicode="&#x116;" horiz-adv-x="644" d="M557 667 L37 667 L37 649 L132 649 L132 18 L37 18 L37 0 L581 0 L603 208 L588 208 C572 153 558 116 543 92 C501 26 481 17 381 18 L225 18 L225 329 L276 329 C366 330 403 299 404 221 L404 198 L419 198 L419 472 L404 472 L404 453 C404 376 369 347 280 347 L225 347 L225 649 L324 649 C476 651 524 617 557 486 L571 486 L557 667 Z M340 826 C313 826 290 803 290 776 C290 748 313 725 341 725 C368 725 391 748 391 775 C391 804 369 826 340 826 L340 826 Z " />
<glyph glyph-name="edotaccent" unicode="&#x117;" horiz-adv-x="475" d="M135 228 L437 228 C432 326 353 397 249 397 C188 397 136 373 96 325 C63 286 44 238 44 192 C44 83 143 -10 258 -10 C349 -10 416 44 433 130 L411 130 C394 56 333 10 253 10 C214 10 180 23 161 45 C141 67 135 92 135 151 L135 228 Z M337 246 L135 246 L135 280 C135 346 169 377 240 377 C308 377 337 351 337 289 L337 246 Z M258 586 C231 586 208 563 208 536 C208 508 231 485 259 485 C286 485 309 508 309 535 C309 564 287 586 258 586 L258 586 Z " />
<glyph glyph-name="Eogonek" unicode="&#x118;" horiz-adv-x="644" d="M581 0 L603 208 L588 208 C572 153 558 116 543 92 C501 26 481 17 381 18 L225 18 L225 329 L276 329 C366 330 403 299 404 221 L404 198 L419 198 L419 472 L404 472 L404 453 C404 376 369 347 280 347 L225 347 L225 649 L324 649 C476 651 524 617 557 486 L571 486 L557 667 L37 667 L37 649 L132 649 L132 18 L37 18 L37 0 L495 0 C420 -24 384 -55 384 -96 C384 -137 419 -162 474 -162 C510 -162 532 -157 565 -141 L565 -127 C540 -134 527 -136 509 -136 C461 -136 439 -120 439 -87 C439 -53 461 -30 522 0 L581 0 Z " />
<glyph glyph-name="eogonek" unicode="&#x119;" horiz-adv-x="475" d="M393 -124 C371 -132 357 -134 339 -134 C293 -134 272 -119 272 -86 C272 -55 287 -34 334 -1 C402 46 422 72 433 130 L411 130 C394 56 333 10 253 10 C214 10 180 23 161 45 C141 67 135 92 135 151 L135 228 L437 228 C432 326 353 397 249 397 C188 397 136 373 96 325 C63 286 44 238 44 192 C44 83 143 -10 259 -10 C271 -10 280 -9 292 -8 C241 -34 219 -60 219 -94 C219 -134 253 -159 306 -159 C340 -159 361 -154 393 -138 L393 -124 Z M337 246 L135 246 L135 280 C135 346 169 377 240 377 C308 377 337 351 337 289 L337 246 Z " />
<glyph glyph-name="Ecaron" unicode="&#x11a;" horiz-adv-x="644" d="M557 667 L37 667 L37 649 L132 649 L132 18 L37 18 L37 0 L581 0 L603 208 L588 208 C572 153 558 116 543 92 C501 26 481 17 381 18 L225 18 L225 329 L276 329 C366 330 403 299 404 221 L404 198 L419 198 L419 472 L404 472 L404 453 C404 376 369 347 280 347 L225 347 L225 649 L324 649 C476 651 524 617 557 486 L571 486 L557 667 Z M339 789 L191 838 L187 838 C183 838 182 837 182 835 C182 833 183 832 188 829 L339 720 L490 829 C495 832 496 833 496 835 C496 837 494 838 491 838 L486 838 L339 789 Z " />
<glyph glyph-name="ecaron" unicode="&#x11b;" horiz-adv-x="475" d="M135 228 L437 228 C432 326 353 397 249 397 C188 397 136 373 96 325 C63 286 44 238 44 192 C44 83 143 -10 258 -10 C349 -10 416 44 433 130 L411 130 C394 56 333 10 253 10 C214 10 180 23 161 45 C141 67 135 92 135 151 L135 228 Z M337 246 L135 246 L135 280 C135 346 169 377 240 377 C308 377 337 351 337 289 L337 246 Z M259 539 L125 615 C123 616 122 617 120 617 C118 617 116 616 116 614 C116 612 117 610 122 606 L259 463 L396 606 C400 610 402 612 402 614 C402 616 400 617 398 617 C396 617 395 616 393 615 L259 539 Z " />
<glyph glyph-name="Gcircumflex" unicode="&#x11c;" horiz-adv-x="698" d="M583 667 L568 667 L531 625 C474 661 424 677 363 677 C289 677 217 647 159 593 C87 525 51 437 51 329 C51 235 77 161 133 94 C191 25 266 -10 356 -10 C436 -10 506 18 554 69 C587 104 600 137 613 212 L687 212 L687 230 L379 230 L379 212 L493 212 C493 152 491 129 483 105 C462 43 411 10 336 10 C260 10 207 45 183 108 C170 144 164 212 164 316 C164 431 174 522 190 563 C214 623 273 657 352 657 C460 657 534 594 568 471 L583 471 L583 667 Z M365 769 L512 721 C514 720 515 720 517 720 C520 720 522 721 522 723 C522 725 521 726 516 730 L365 838 L214 730 C210 727 208 725 208 723 C208 721 210 720 213 720 C214 720 216 720 217 721 L365 769 Z " />
<glyph glyph-name="gcircumflex" unicode="&#x11d;" horiz-adv-x="481" d="M109 134 C82 116 82 116 76 110 C44 82 29 53 29 20 C29 -26 55 -55 108 -69 C50 -93 29 -116 29 -156 C29 -225 112 -274 227 -274 C360 -274 452 -198 452 -88 C452 -44 438 -13 413 3 C393 15 373 18 323 18 L137 18 C88 18 64 30 64 54 C64 77 92 106 140 133 C170 122 195 117 227 117 C325 117 399 176 399 255 C399 290 392 312 370 343 C383 356 392 361 401 361 C409 361 414 357 416 349 C420 324 428 315 447 315 C466 315 479 329 479 352 C479 376 461 391 433 391 C408 391 391 383 358 353 C318 386 285 397 234 397 C135 397 64 339 64 257 C64 210 81 177 123 144 L109 134 Z M146 288 C146 354 168 377 232 377 C265 377 289 370 302 357 C313 346 316 331 316 293 L316 228 C316 156 298 137 231 137 C164 137 146 156 146 228 L146 288 Z M160 -70 L196 -70 L315 -70 C371 -70 371 -70 384 -75 C399 -80 407 -94 407 -115 C407 -191 329 -254 233 -254 C155 -254 103 -211 103 -148 C103 -118 113 -96 140 -70 L160 -70 Z M240 541 L373 465 C375 464 377 463 378 463 C380 463 382 464 382 466 C382 468 380 471 377 474 L240 617 L102 474 C99 471 97 468 97 466 C97 464 99 463 100 463 C102 463 104 464 106 465 L240 541 Z " />
<glyph glyph-name="Gbreve" unicode="&#x11e;" horiz-adv-x="698" d="M583 667 L568 667 L531 625 C474 661 424 677 363 677 C289 677 217 647 159 593 C87 525 51 437 51 329 C51 235 77 161 133 94 C191 25 266 -10 356 -10 C436 -10 506 18 554 69 C587 104 600 137 613 212 L687 212 L687 230 L379 230 L379 212 L493 212 C493 152 491 129 483 105 C462 43 411 10 336 10 C260 10 207 45 183 108 C170 144 164 212 164 316 C164 431 174 522 190 563 C214 623 273 657 352 657 C460 657 534 594 568 471 L583 471 L583 667 Z M496 838 C486 813 475 800 455 791 C432 781 396 774 361 774 C325 774 289 781 266 791 C246 800 235 813 225 838 L211 838 C224 768 283 722 360 722 C438 722 497 768 510 838 L496 838 Z " />
<glyph glyph-name="gbreve" unicode="&#x11f;" horiz-adv-x="481" d="M109 134 C82 116 82 116 76 110 C44 82 29 53 29 20 C29 -26 55 -55 108 -69 C50 -93 29 -116 29 -156 C29 -225 112 -274 227 -274 C360 -274 452 -198 452 -88 C452 -44 438 -13 413 3 C393 15 373 18 323 18 L137 18 C88 18 64 30 64 54 C64 77 92 106 140 133 C170 122 195 117 227 117 C325 117 399 176 399 255 C399 290 392 312 370 343 C383 356 392 361 401 361 C409 361 414 357 416 349 C420 324 428 315 447 315 C466 315 479 329 479 352 C479 376 461 391 433 391 C408 391 391 383 358 353 C318 386 285 397 234 397 C135 397 64 339 64 257 C64 210 81 177 123 144 L109 134 Z M146 288 C146 354 168 377 232 377 C265 377 289 370 302 357 C313 346 316 331 316 293 L316 228 C316 156 298 137 231 137 C164 137 146 156 146 228 L146 288 Z M160 -70 L196 -70 L315 -70 C371 -70 371 -70 384 -75 C399 -80 407 -94 407 -115 C407 -191 329 -254 233 -254 C155 -254 103 -211 103 -148 C103 -118 113 -96 140 -70 L160 -70 Z M364 610 C355 576 346 559 328 545 C310 531 276 521 244 521 C212 521 178 531 160 545 C142 559 133 575 123 610 L112 610 C123 524 175 467 244 467 C312 467 364 523 375 610 L364 610 Z " />
<glyph glyph-name="Gdotaccent" unicode="&#x120;" horiz-adv-x="698" d="M583 667 L568 667 L531 625 C474 661 424 677 363 677 C289 677 217 647 159 593 C87 525 51 437 51 329 C51 235 77 161 133 94 C191 25 266 -10 356 -10 C436 -10 506 18 554 69 C587 104 600 137 613 212 L687 212 L687 230 L379 230 L379 212 L493 212 C493 152 491 129 483 105 C462 43 411 10 336 10 C260 10 207 45 183 108 C170 144 164 212 164 316 C164 431 174 522 190 563 C214 623 273 657 352 657 C460 657 534 594 568 471 L583 471 L583 667 Z M364 826 C337 826 314 803 314 776 C314 748 337 725 365 725 C392 725 415 748 415 775 C415 804 393 826 364 826 L364 826 Z " />
<glyph glyph-name="gdotaccent" unicode="&#x121;" horiz-adv-x="481" d="M109 134 C82 116 82 116 76 110 C44 82 29 53 29 20 C29 -26 55 -55 108 -69 C50 -93 29 -116 29 -156 C29 -225 112 -274 227 -274 C360 -274 452 -198 452 -88 C452 -44 438 -13 413 3 C393 15 373 18 323 18 L137 18 C88 18 64 30 64 54 C64 77 92 106 140 133 C170 122 195 117 227 117 C325 117 399 176 399 255 C399 290 392 312 370 343 C383 356 392 361 401 361 C409 361 414 357 416 349 C420 324 428 315 447 315 C466 315 479 329 479 352 C479 376 461 391 433 391 C408 391 391 383 358 353 C318 386 285 397 234 397 C135 397 64 339 64 257 C64 210 81 177 123 144 L109 134 Z M146 288 C146 354 168 377 232 377 C265 377 289 370 302 357 C313 346 316 331 316 293 L316 228 C316 156 298 137 231 137 C164 137 146 156 146 228 L146 288 Z M160 -70 L196 -70 L315 -70 C371 -70 371 -70 384 -75 C399 -80 407 -94 407 -115 C407 -191 329 -254 233 -254 C155 -254 103 -211 103 -148 C103 -118 113 -96 140 -70 L160 -70 Z M243 586 C216 586 193 563 193 536 C193 508 216 485 244 485 C271 485 294 508 294 535 C294 564 272 586 243 586 L243 586 Z " />
<glyph glyph-name="Gcommaaccent" unicode="&#x122;" horiz-adv-x="698" d="M583 667 L568 667 L531 625 C474 661 424 677 363 677 C289 677 217 647 159 593 C87 525 51 437 51 329 C51 235 77 161 133 94 C191 25 266 -10 356 -10 C436 -10 506 18 554 69 C587 104 600 137 613 212 L687 212 L687 230 L379 230 L379 212 L493 212 C493 152 491 129 483 105 C462 43 411 10 336 10 C260 10 207 45 183 108 C170 144 164 212 164 316 C164 431 174 522 190 563 C214 623 273 657 352 657 C460 657 534 594 568 471 L583 471 L583 667 Z M347 -278 C398 -236 425 -190 425 -146 C425 -94 389 -54 341 -54 C305 -54 279 -78 279 -113 C279 -143 298 -164 325 -164 C350 -164 368 -145 368 -120 C368 -115 368 -111 367 -106 C391 -117 402 -134 402 -159 C402 -192 382 -223 333 -268 L347 -278 Z " />
<glyph glyph-name="gcommaaccent" unicode="&#x123;" horiz-adv-x="481" d="M109 134 C82 116 82 116 76 110 C44 82 29 53 29 20 C29 -26 55 -55 108 -69 C50 -93 29 -116 29 -156 C29 -225 112 -274 227 -274 C360 -274 452 -198 452 -88 C452 -44 438 -13 413 3 C393 15 373 18 323 18 L137 18 C88 18 64 30 64 54 C64 77 92 106 140 133 C170 122 195 117 227 117 C325 117 399 176 399 255 C399 290 392 312 370 343 C383 356 392 361 401 361 C409 361 414 357 416 349 C420 324 428 315 447 315 C466 315 479 329 479 352 C479 376 461 391 433 391 C408 391 391 383 358 353 C318 386 285 397 234 397 C135 397 64 339 64 257 C64 210 81 177 123 144 L109 134 Z M146 288 C146 354 168 377 232 377 C265 377 289 370 302 357 C313 346 316 331 316 293 L316 228 C316 156 298 137 231 137 C164 137 146 156 146 228 L146 288 Z M160 -70 L196 -70 L315 -70 C371 -70 371 -70 384 -75 C399 -80 407 -94 407 -115 C407 -191 329 -254 233 -254 C155 -254 103 -211 103 -148 C103 -118 113 -96 140 -70 L160 -70 Z M249 663 C201 622 176 580 176 538 C176 489 210 452 255 452 C289 452 313 475 313 507 C313 536 295 555 269 555 C246 555 229 538 229 514 C229 511 229 506 230 501 C207 511 197 526 197 551 C197 581 216 610 262 652 L249 663 Z " />
<glyph glyph-name="Hcircumflex" unicode="&#x124;" horiz-adv-x="781" d="M556 330 L556 18 L444 18 L444 0 L744 0 L744 18 L649 18 L649 649 L744 649 L744 667 L444 667 L444 649 L556 649 L556 348 L225 348 L225 649 L337 649 L337 667 L37 667 L37 649 L132 649 L132 18 L37 18 L37 0 L337 0 L337 18 L225 18 L225 330 L556 330 Z M391 769 L538 721 C540 720 541 720 543 720 C546 720 548 721 548 723 C548 725 547 726 542 730 L391 838 L240 730 C236 727 234 725 234 723 C234 721 236 720 239 720 C240 720 242 720 243 721 L391 769 Z " />
<glyph glyph-name="Hbar" unicode="&#x126;" horiz-adv-x="781" d="M132 475 L132 18 L37 18 L37 0 L337 0 L337 18 L225 18 L225 330 L556 330 L556 18 L444 18 L444 0 L744 0 L744 18 L649 18 L649 475 L734 475 L734 493 L649 493 L649 649 L744 649 L744 667 L444 667 L444 649 L556 649 L556 493 L225 493 L225 649 L337 649 L337 667 L37 667 L37 649 L132 649 L132 493 L43 493 L43 475 L132 475 Z M225 475 L556 475 L556 348 L225 348 L225 475 Z " />
<glyph glyph-name="hbar" unicode="&#x127;" horiz-adv-x="574" d="M170 556 L170 667 L20 667 L20 649 L93 649 L93 556 L18 556 L18 532 L93 532 L93 18 L20 18 L20 0 L251 0 L251 18 L170 18 L170 177 C170 235 177 281 190 304 C215 349 260 374 312 374 C372 374 396 349 396 286 L396 18 L323 18 L323 0 L554 0 L554 18 L473 18 L473 286 C473 362 429 397 336 397 C265 397 223 380 170 327 L170 532 L348 532 L348 556 L170 556 Z " />
<glyph glyph-name="Imacron" unicode="&#x12a;" horiz-adv-x="367" d="M132 18 L37 18 L37 0 L330 0 L330 18 L225 18 L225 649 L330 649 L330 667 L37 667 L37 649 L132 649 L132 18 Z M330 749 L330 779 L37 779 L37 749 L330 749 Z " />
<glyph glyph-name="imacron" unicode="&#x12b;" horiz-adv-x="291" d="M198 387 L40 387 L40 369 L121 369 L121 18 L40 18 L40 0 L271 0 L271 18 L198 18 L198 387 Z M263 499 L263 523 L19 523 L19 499 L263 499 Z " />
<glyph glyph-name="ibreve" unicode="&#x12d;" horiz-adv-x="291" d="M198 387 L40 387 L40 369 L121 369 L121 18 L40 18 L40 0 L271 0 L271 18 L198 18 L198 387 Z M276 610 C267 576 258 559 240 545 C222 531 188 521 156 521 C124 521 90 531 71 545 C54 559 45 575 35 610 L24 610 C35 524 87 467 156 467 C224 467 276 523 287 610 L276 610 Z " />
<glyph glyph-name="Iogonek" unicode="&#x12e;" horiz-adv-x="367" d="M246 0 L330 0 L330 18 L225 18 L225 649 L330 649 L330 667 L37 667 L37 649 L132 649 L132 18 L37 18 L37 0 L219 0 C144 -24 109 -54 109 -96 C109 -137 143 -162 199 -162 C234 -162 256 -157 289 -141 L289 -127 C264 -134 251 -136 233 -136 C185 -136 163 -120 163 -87 C163 -54 186 -29 243 -1 L246 0 Z " />
<glyph glyph-name="iogonek" unicode="&#x12f;" horiz-adv-x="291" d="M271 0 L271 18 L198 18 L198 387 L40 387 L40 369 L121 369 L121 18 L40 18 L40 0 L186 0 C115 -25 82 -56 82 -95 C82 -134 116 -159 169 -159 C203 -159 224 -154 256 -138 L256 -124 C233 -132 220 -134 202 -134 C156 -134 134 -119 134 -86 C134 -52 157 -28 214 0 L271 0 Z M148 654 C119 654 95 630 95 601 C95 571 119 547 149 547 C178 547 202 571 202 600 C202 630 179 654 148 654 L148 654 Z " />
<glyph glyph-name="Idotaccent" unicode="&#x130;" horiz-adv-x="367" d="M132 18 L37 18 L37 0 L330 0 L330 18 L225 18 L225 649 L330 649 L330 667 L37 667 L37 649 L132 649 L132 18 Z M183 826 C156 826 133 803 133 776 C133 748 156 725 184 725 C211 725 234 748 234 775 C234 804 212 826 183 826 L183 826 Z " />
<glyph glyph-name="dotlessi" unicode="&#x131;" horiz-adv-x="291" d="M198 387 L40 387 L40 369 L121 369 L121 18 L40 18 L40 0 L271 0 L271 18 L198 18 L198 387 Z " />
<glyph glyph-name="Kcommaaccent" unicode="&#x136;" horiz-adv-x="722" d="M132 18 L37 18 L37 0 L330 0 L330 18 L225 18 L225 649 L330 649 L330 667 L37 667 L37 649 L132 649 L132 18 Z M345 407 L583 649 L675 649 L675 667 L443 667 L443 649 L549 649 L256 353 L532 18 L435 18 L435 0 L722 0 L722 18 L665 18 L345 407 Z M358 -278 C409 -236 436 -190 436 -146 C436 -94 400 -54 352 -54 C316 -54 290 -78 290 -113 C290 -143 309 -164 336 -164 C361 -164 379 -146 379 -120 C379 -117 379 -111 378 -106 C402 -117 413 -134 413 -159 C413 -192 393 -222 344 -268 L358 -278 Z " />
<glyph glyph-name="kcommaaccent" unicode="&#x137;" horiz-adv-x="539" d="M178 667 L20 667 L20 649 L101 649 L101 18 L20 18 L20 0 L251 0 L251 18 L178 18 L178 667 Z M283 250 L424 369 L498 369 L498 387 L283 387 L283 369 L387 369 L201 214 L365 18 L305 18 L305 0 L539 0 L539 18 L486 18 L283 250 Z M278 -103 C300 -113 310 -128 310 -153 C310 -183 291 -212 245 -254 L258 -265 C306 -224 331 -182 331 -140 C331 -91 297 -54 253 -54 C219 -54 195 -77 195 -109 C195 -137 213 -156 238 -156 C261 -156 278 -139 278 -115 L278 -103 Z " />
<glyph glyph-name="Lacute" unicode="&#x139;" horiz-adv-x="624" d="M579 0 L594 205 L579 205 C545 57 503 15 391 18 L225 18 L225 649 L330 649 L330 667 L37 667 L37 649 L132 649 L132 18 L37 18 L37 0 L579 0 Z M303 833 L173 731 C170 728 169 726 169 724 C169 722 170 720 173 720 C175 720 178 720 179 721 L400 814 C410 818 413 821 413 825 C413 831 409 833 399 833 L303 833 Z " />
<glyph glyph-name="lacute" unicode="&#x13a;" horiz-adv-x="271" d="M178 667 L9 667 L9 649 L101 649 L101 18 L9 18 L9 0 L262 0 L262 18 L178 18 L178 667 Z M221 833 L92 731 C88 727 87 726 87 724 C87 721 88 720 91 720 C93 720 96 720 97 721 L319 814 C328 818 331 821 331 825 C331 830 327 833 318 833 L221 833 Z " />
<glyph glyph-name="Lcommaaccent" unicode="&#x13b;" horiz-adv-x="624" d="M579 0 L594 205 L579 205 C545 57 503 15 391 18 L225 18 L225 649 L330 649 L330 667 L37 667 L37 649 L132 649 L132 18 L37 18 L37 0 L579 0 Z M344 -106 C367 -117 378 -134 378 -159 C378 -192 359 -222 310 -268 L323 -278 C374 -236 401 -190 401 -146 C401 -94 365 -54 317 -54 C281 -54 255 -78 255 -113 C255 -143 274 -164 301 -164 C326 -164 344 -145 344 -120 L344 -106 Z " />
<glyph glyph-name="lcommaaccent" unicode="&#x13c;" horiz-adv-x="271" d="M178 667 L9 667 L9 649 L101 649 L101 18 L9 18 L9 0 L262 0 L262 18 L178 18 L178 667 Z M142 -265 C190 -224 215 -182 215 -140 C215 -91 181 -54 136 -54 C102 -54 78 -77 78 -109 C78 -137 96 -156 122 -156 C145 -156 162 -139 162 -115 C162 -113 162 -107 161 -103 C184 -113 194 -128 194 -153 C194 -183 175 -212 129 -254 L142 -265 Z " />
<glyph glyph-name="Lcaron" unicode="&#x13d;" horiz-adv-x="624" d="M579 0 L594 205 L579 205 C545 57 503 15 391 18 L225 18 L225 649 L330 649 L330 667 L37 667 L37 649 L132 649 L132 18 L37 18 L37 0 L579 0 Z M447 615 C470 604 481 588 481 562 C481 530 462 499 413 454 L426 443 C477 486 504 531 504 575 C504 627 468 667 420 667 C384 667 358 643 358 609 C358 578 377 558 404 558 C429 558 447 576 447 602 L447 615 Z " />
<glyph glyph-name="lcaron" unicode="&#x13e;" horiz-adv-x="348" d="M178 667 L9 667 L9 649 L101 649 L101 18 L9 18 L9 0 L262 0 L262 18 L178 18 L178 667 Z M272 457 C320 497 345 539 345 581 C345 630 311 667 266 667 C232 667 208 644 208 612 C208 584 226 565 252 565 C275 565 292 582 292 606 C292 609 292 614 291 619 C314 608 324 593 324 569 C324 539 305 509 259 468 L272 457 Z " />
<glyph glyph-name="Ldot" unicode="&#x13f;" horiz-adv-x="624" d="M579 0 L594 205 L579 205 C545 57 503 15 391 18 L225 18 L225 649 L330 649 L330 667 L37 667 L37 649 L132 649 L132 18 L37 18 L37 0 L579 0 Z M372 377 C345 377 322 354 322 327 C322 299 345 276 373 276 C400 276 423 299 423 326 C423 355 401 377 372 377 L372 377 Z " />
<glyph glyph-name="ldot" unicode="&#x140;" horiz-adv-x="301" d="M178 667 L9 667 L9 649 L101 649 L101 18 L9 18 L9 0 L262 0 L262 18 L178 18 L178 667 Z M263 374 C236 374 213 351 213 324 C213 296 236 273 264 273 C291 273 314 296 314 323 C314 352 292 374 263 374 L263 374 Z " />
<glyph glyph-name="Lslash" unicode="&#x141;" horiz-adv-x="624" d="M132 263 L132 18 L37 18 L37 0 L579 0 L594 205 L579 205 C545 57 503 15 391 18 L225 18 L225 324 L425 455 L425 480 L225 349 L225 649 L330 649 L330 667 L37 667 L37 649 L132 649 L132 288 L37 225 L37 200 L132 263 Z " />
<glyph glyph-name="lslash" unicode="&#x142;" horiz-adv-x="271" d="M102 344 L17 291 L17 266 L102 319 L102 18 L9 18 L9 0 L262 0 L262 18 L179 18 L179 367 L271 425 L271 450 L179 392 L179 667 L9 667 L9 649 L102 649 L102 344 Z " />
<glyph glyph-name="Nacute" unicode="&#x143;" horiz-adv-x="746" d="M613 0 L629 0 L629 649 L710 649 L710 667 L508 667 L508 649 L606 649 L606 185 L258 667 L26 667 L26 649 L121 649 L121 18 L26 18 L26 0 L249 0 L249 18 L144 18 L144 644 L613 0 Z M477 833 L348 731 C344 728 343 726 343 724 C343 721 344 720 347 720 C349 720 352 720 353 721 L574 814 C584 818 587 821 587 825 C587 830 583 833 574 833 L477 833 Z " />
<glyph glyph-name="nacute" unicode="&#x144;" horiz-adv-x="575" d="M190 387 L40 387 L40 369 L113 369 L113 18 L40 18 L40 0 L271 0 L271 18 L190 18 L190 178 C190 251 195 289 210 313 C231 349 277 374 321 374 C373 374 397 348 397 292 L397 18 L324 18 L324 0 L555 0 L555 18 L474 18 L474 265 C474 310 466 336 444 357 C419 383 379 397 334 397 C275 397 235 378 190 330 L190 387 Z M360 613 L264 470 C263 469 263 467 263 466 C263 464 265 463 266 463 C267 463 268 463 271 466 L430 595 C434 598 437 603 437 606 C437 611 433 613 425 613 L360 613 Z " />
<glyph glyph-name="Ncommaaccent" unicode="&#x145;" horiz-adv-x="746" d="M613 0 L629 0 L629 649 L710 649 L710 667 L508 667 L508 649 L606 649 L606 185 L258 667 L26 667 L26 649 L121 649 L121 18 L26 18 L26 0 L249 0 L249 18 L144 18 L144 644 L613 0 Z M363 -278 C414 -236 441 -190 441 -146 C441 -94 405 -54 357 -54 C321 -54 295 -78 295 -113 C295 -143 314 -164 341 -164 C366 -164 384 -146 384 -120 C384 -116 384 -111 383 -106 C407 -117 418 -134 418 -159 C418 -192 399 -222 349 -268 L363 -278 Z " />
<glyph glyph-name="ncommaaccent" unicode="&#x146;" horiz-adv-x="575" d="M190 387 L40 387 L40 369 L113 369 L113 18 L40 18 L40 0 L271 0 L271 18 L190 18 L190 178 C190 251 195 289 210 313 C231 349 277 374 321 374 C373 374 397 348 397 292 L397 18 L324 18 L324 0 L555 0 L555 18 L474 18 L474 265 C474 310 466 336 444 357 C419 383 379 397 334 397 C275 397 235 378 190 330 L190 387 Z M319 -103 C342 -113 352 -128 352 -153 C352 -183 333 -212 286 -254 L300 -265 C348 -225 373 -182 373 -140 C373 -91 339 -54 294 -54 C260 -54 236 -77 236 -109 C236 -137 254 -156 279 -156 C302 -156 319 -139 319 -115 L319 -103 Z " />
<glyph glyph-name="Ncaron" unicode="&#x147;" horiz-adv-x="746" d="M613 0 L629 0 L629 649 L710 649 L710 667 L508 667 L508 649 L606 649 L606 185 L258 667 L26 667 L26 649 L121 649 L121 18 L26 18 L26 0 L249 0 L249 18 L144 18 L144 644 L613 0 Z M385 789 L237 838 L233 838 C229 838 228 837 228 835 C228 833 229 832 234 829 L385 720 L536 829 C541 832 542 833 542 835 C542 837 540 838 537 838 L532 838 L385 789 Z " />
<glyph glyph-name="ncaron" unicode="&#x148;" horiz-adv-x="575" d="M190 387 L40 387 L40 369 L113 369 L113 18 L40 18 L40 0 L271 0 L271 18 L190 18 L190 178 C190 251 195 289 210 313 C231 349 277 374 321 374 C373 374 397 348 397 292 L397 18 L324 18 L324 0 L555 0 L555 18 L474 18 L474 265 C474 310 466 336 444 357 C419 383 379 397 334 397 C275 397 235 378 190 330 L190 387 Z M302 539 L168 615 C166 616 164 617 163 617 C161 617 159 616 159 614 C159 612 161 610 164 606 L302 463 L439 606 C444 611 445 612 445 614 C445 616 443 617 441 617 C439 617 437 616 435 615 L302 539 Z " />
<glyph glyph-name="Omacron" unicode="&#x14c;" horiz-adv-x="726" d="M363 677 C282 677 206 644 146 583 C84 520 51 433 51 334 C51 241 79 160 133 99 C194 28 275 -10 363 -10 C538 -10 675 139 675 330 C675 426 648 506 593 568 C532 639 451 677 363 677 L363 677 Z M363 657 C446 657 514 620 540 560 C558 519 562 481 562 330 C562 201 559 161 547 124 C523 52 455 10 363 10 C279 10 212 47 186 107 C168 148 164 187 164 333 C164 466 167 505 180 544 C203 615 271 657 363 657 L363 657 Z M523 749 L523 779 L203 779 L203 749 L523 749 Z " />
<glyph glyph-name="omacron" unicode="&#x14d;" horiz-adv-x="517" d="M258 397 C140 397 44 306 44 194 C44 81 139 -10 258 -10 C376 -10 473 80 473 191 C473 307 379 397 258 397 L258 397 Z M137 218 C140 306 141 312 150 329 C166 359 207 377 258 377 C304 377 342 362 361 335 C374 318 380 280 380 218 L380 169 C380 116 375 74 366 58 C349 28 308 10 258 10 C211 10 173 26 154 52 C141 70 140 75 137 169 L137 218 Z M395 499 L395 523 L122 523 L122 499 L395 499 Z " />
<glyph glyph-name="Ohungarumlaut" unicode="&#x150;" horiz-adv-x="726" d="M363 677 C282 677 206 644 146 583 C84 520 51 433 51 334 C51 241 79 160 133 99 C194 28 275 -10 363 -10 C538 -10 675 139 675 330 C675 426 648 506 593 568 C532 639 451 677 363 677 L363 677 Z M363 657 C446 657 514 620 540 560 C558 519 562 481 562 330 C562 201 559 161 547 124 C523 52 455 10 363 10 C279 10 212 47 186 107 C168 148 164 187 164 333 C164 466 167 505 180 544 C203 615 271 657 363 657 L363 657 Z M551 833 L438 731 C433 727 433 727 433 724 C433 722 434 720 437 720 C440 720 442 720 444 721 L631 813 C641 818 644 821 644 825 C644 831 640 833 631 833 L551 833 Z M369 833 L257 731 C252 727 252 726 252 724 C252 721 253 720 256 720 C259 720 261 720 262 721 L450 813 C460 818 463 821 463 825 C463 830 459 833 450 833 L369 833 Z " />
<glyph glyph-name="ohungarumlaut" unicode="&#x151;" horiz-adv-x="518" d="M258 397 C140 397 44 306 44 194 C44 81 139 -10 258 -10 C376 -10 473 80 473 191 C473 307 379 397 258 397 L258 397 Z M137 218 C140 306 141 312 150 329 C166 359 207 377 258 377 C304 377 342 362 361 335 C374 318 380 280 380 218 L380 169 C380 116 375 74 366 58 C349 28 308 10 258 10 C211 10 173 26 154 52 C141 70 140 75 137 169 L137 218 Z M426 613 L330 470 C329 469 328 467 328 466 C328 465 329 463 331 463 C333 463 335 464 337 466 L489 595 C493 598 496 603 496 606 C496 611 492 613 484 613 L426 613 Z M275 613 L179 470 C178 469 178 468 178 466 C178 464 179 463 181 463 C183 463 184 464 187 466 L338 595 C343 599 346 603 346 606 C346 611 342 613 333 613 L275 613 Z " />
<glyph glyph-name="OE" unicode="&#x152;" horiz-adv-x="1015" d="M927 667 L483 667 C442 675 422 677 394 677 C198 677 51 528 51 331 C51 245 79 167 132 105 C199 28 285 -10 392 -10 C424 -10 444 -8 483 0 L951 0 L973 208 L958 208 C942 153 928 116 913 92 C871 26 851 17 751 18 L595 18 L595 329 L646 329 C736 330 773 299 774 221 L774 198 L789 198 L789 472 L774 472 L774 453 C774 376 739 347 650 347 L595 347 L595 649 L694 649 C846 651 894 617 927 486 L941 486 L927 667 Z M502 30 C453 14 430 10 386 10 C303 10 245 32 209 78 C178 117 164 187 164 303 C164 392 173 510 183 545 C203 613 282 657 386 657 C422 657 448 653 502 639 L502 30 Z " />
<glyph glyph-name="oe" unicode="&#x153;" horiz-adv-x="797" d="M732 130 C716 56 657 10 579 10 C542 10 509 23 491 45 C472 67 466 92 466 151 L466 228 L758 228 C753 325 675 397 573 397 C514 397 459 371 423 327 C386 371 326 397 261 397 C141 397 44 306 44 193 C44 81 141 -10 261 -10 C326 -10 386 16 424 60 C464 15 520 -10 583 -10 C671 -10 738 45 754 130 L732 130 Z M136 218 C136 271 141 313 150 328 C167 359 208 377 258 377 C303 377 341 362 360 335 C373 318 379 280 379 218 L379 169 C379 116 374 74 365 58 C347 28 307 10 258 10 C212 10 174 25 155 52 C142 69 136 107 136 169 L136 218 Z M658 246 L466 246 L466 280 C466 346 498 377 566 377 C631 377 658 351 658 289 L658 246 Z " />
<glyph glyph-name="Racute" unicode="&#x154;" horiz-adv-x="708" d="M225 345 L298 345 C410 342 451 308 455 214 L455 165 C455 106 465 71 492 41 C519 10 554 -5 602 -5 C632 -5 649 -1 679 12 L673 29 C652 19 641 16 628 16 C608 16 589 26 581 42 C573 56 571 72 571 108 L571 163 C568 270 499 334 368 350 C453 359 493 371 532 399 C574 431 595 468 595 512 C595 564 572 605 525 634 C483 659 440 667 336 667 L37 667 L37 649 L132 649 L132 18 L37 18 L37 0 L337 0 L337 18 L225 18 L225 345 Z M225 363 L225 649 L311 649 C385 649 430 636 457 608 C479 585 492 547 492 506 C492 409 432 363 303 363 L225 363 Z M400 833 L270 731 C267 728 266 726 266 724 C266 722 267 720 270 720 C272 720 275 720 276 721 L497 814 C505 817 509 821 509 825 C509 830 505 833 496 833 L400 833 Z " />
<glyph glyph-name="racute" unicode="&#x155;" horiz-adv-x="389" d="M190 387 L40 387 L40 369 L113 369 L113 18 L40 18 L40 0 L271 0 L271 18 L190 18 L190 134 C190 216 194 245 213 291 C232 336 254 360 276 360 C286 360 291 355 292 344 C293 310 306 294 333 294 C359 294 377 314 377 344 C377 376 351 397 313 397 C278 397 246 381 225 353 C212 335 205 322 190 287 L190 387 Z M290 613 L194 470 L193 466 C193 464 194 463 196 463 C197 463 198 463 201 466 L360 595 C364 598 367 603 367 606 C367 611 363 613 355 613 L290 613 Z " />
<glyph glyph-name="Rcommaaccent" unicode="&#x156;" horiz-adv-x="708" d="M225 345 L298 345 C410 342 451 308 455 214 L455 165 C455 106 465 71 492 41 C519 10 554 -5 602 -5 C632 -5 649 -1 679 12 L673 29 C652 19 641 16 628 16 C608 16 589 26 581 42 C573 56 571 72 571 108 L571 163 C568 270 499 334 368 350 C453 359 493 371 532 399 C574 431 595 468 595 512 C595 564 572 605 525 634 C483 659 440 667 336 667 L37 667 L37 649 L132 649 L132 18 L37 18 L37 0 L337 0 L337 18 L225 18 L225 345 Z M225 363 L225 649 L311 649 C385 649 430 636 457 608 C479 585 492 547 492 506 C492 409 432 363 303 363 L225 363 Z M347 -278 C398 -236 425 -190 425 -146 C425 -94 389 -54 341 -54 C305 -54 279 -78 279 -113 C279 -143 298 -164 325 -164 C350 -164 368 -146 368 -120 C368 -117 368 -111 367 -106 C391 -117 402 -134 402 -159 C402 -192 383 -222 333 -268 L347 -278 Z " />
<glyph glyph-name="rcommaaccent" unicode="&#x157;" horiz-adv-x="389" d="M190 387 L40 387 L40 369 L113 369 L113 18 L40 18 L40 0 L271 0 L271 18 L190 18 L190 134 C190 216 194 245 213 291 C232 336 254 360 276 360 C286 360 291 355 292 344 C293 310 306 294 333 294 C359 294 377 314 377 344 C377 376 351 397 313 397 C278 397 246 381 225 353 C212 335 205 322 190 287 L190 387 Z M154 -265 C202 -224 227 -182 227 -140 C227 -91 193 -54 148 -54 C114 -54 90 -77 90 -109 C90 -137 108 -156 134 -156 C157 -156 174 -139 174 -115 C174 -112 174 -108 173 -103 C196 -113 206 -128 206 -153 C206 -183 187 -212 141 -254 L154 -265 Z " />
<glyph glyph-name="Rcaron" unicode="&#x158;" horiz-adv-x="708" d="M225 345 L298 345 C410 342 451 308 455 214 L455 165 C455 106 465 71 492 41 C519 10 554 -5 602 -5 C632 -5 649 -1 679 12 L673 29 C652 19 641 16 628 16 C608 16 589 26 581 42 C573 56 571 72 571 108 L571 163 C568 270 499 334 368 350 C453 359 493 371 532 399 C574 431 595 468 595 512 C595 564 572 605 525 634 C483 659 440 667 336 667 L37 667 L37 649 L132 649 L132 18 L37 18 L37 0 L337 0 L337 18 L225 18 L225 345 Z M225 363 L225 649 L311 649 C385 649 430 636 457 608 C479 585 492 547 492 506 C492 409 432 363 303 363 L225 363 Z M339 789 L192 838 L187 838 C183 837 182 837 182 835 C182 833 183 832 188 829 L339 720 L490 829 C495 831 496 833 496 835 C496 837 494 838 491 838 L487 838 L339 789 Z " />
<glyph glyph-name="rcaron" unicode="&#x159;" horiz-adv-x="389" d="M190 387 L40 387 L40 369 L113 369 L113 18 L40 18 L40 0 L271 0 L271 18 L190 18 L190 134 C190 216 194 245 213 291 C232 336 254 360 276 360 C286 360 291 355 292 344 C293 310 306 294 333 294 C359 294 377 314 377 344 C377 376 351 397 313 397 C278 397 246 381 225 353 C212 335 205 322 190 287 L190 387 Z M215 539 L81 615 C79 616 77 617 76 617 C74 617 72 616 72 614 C72 612 74 610 78 606 L215 463 L352 606 C356 610 358 612 358 614 C358 616 356 617 354 617 C352 617 350 616 348 615 L215 539 Z " />
<glyph glyph-name="Sacute" unicode="&#x15a;" horiz-adv-x="552" d="M458 676 L443 676 L408 633 C361 663 317 677 268 677 C154 677 67 591 67 479 C67 389 116 337 225 310 L310 290 C413 265 451 229 451 157 C451 70 385 10 288 10 C220 10 156 42 116 96 C94 126 84 152 75 207 L53 207 L60 0 L75 0 L114 56 C171 8 217 -10 283 -10 C411 -10 499 82 499 216 C499 322 446 381 325 409 L266 423 C152 450 114 478 114 535 C114 603 178 657 260 657 C318 657 369 634 402 593 C421 569 430 547 437 503 L459 503 L458 676 Z M368 833 L239 731 C235 728 234 726 234 724 C234 722 235 720 238 720 C240 720 243 720 244 721 L465 814 C475 818 478 821 478 825 C478 831 474 833 464 833 L368 833 Z " />
<glyph glyph-name="sacute" unicode="&#x15b;" horiz-adv-x="392" d="M330 395 L315 395 L300 359 C261 387 232 397 194 397 C117 397 62 347 62 277 C62 217 100 175 164 164 L249 148 C299 139 322 120 322 88 C322 45 277 10 221 10 C174 10 134 31 105 71 C91 91 84 108 75 148 L57 148 L57 0 L68 0 L93 38 C140 1 169 -10 214 -10 C296 -10 353 45 353 122 C353 193 314 232 229 248 L180 257 C114 269 92 281 92 308 C92 346 134 377 186 377 C252 377 298 341 312 280 L330 280 L330 395 Z M276 613 L180 470 C179 469 179 467 179 466 C179 464 181 463 182 463 C183 463 184 463 187 466 L346 595 C350 598 353 603 353 606 C353 611 349 613 341 613 L276 613 Z " />
<glyph glyph-name="Scircumflex" unicode="&#x15c;" horiz-adv-x="552" d="M458 676 L443 676 L408 633 C361 663 317 677 268 677 C154 677 67 591 67 479 C67 389 116 337 225 310 L310 290 C413 265 451 229 451 157 C451 70 385 10 288 10 C220 10 156 42 116 96 C94 126 84 152 75 207 L53 207 L60 0 L75 0 L114 56 C171 8 217 -10 283 -10 C411 -10 499 82 499 216 C499 322 446 381 325 409 L266 423 C152 450 114 478 114 535 C114 603 178 657 260 657 C318 657 369 634 402 593 C421 569 430 547 437 503 L459 503 L458 676 Z M284 769 L432 721 C433 720 434 720 436 720 C439 720 441 721 441 723 C441 725 439 727 435 730 L284 838 L133 730 C128 726 127 725 127 723 C127 721 129 720 132 720 C134 720 135 720 137 721 L284 769 Z " />
<glyph glyph-name="scircumflex" unicode="&#x15d;" horiz-adv-x="392" d="M330 395 L315 395 L300 359 C261 387 232 397 194 397 C117 397 62 347 62 277 C62 217 100 175 164 164 L249 148 C299 139 322 120 322 88 C322 45 277 10 221 10 C174 10 134 31 105 71 C91 91 84 108 75 148 L57 148 L57 0 L68 0 L93 38 C140 1 169 -10 214 -10 C296 -10 353 45 353 122 C353 193 314 232 229 248 L180 257 C114 269 92 281 92 308 C92 346 134 377 186 377 C252 377 298 341 312 280 L330 280 L330 395 Z M211 541 L345 465 C347 464 349 463 350 463 C352 463 354 464 354 466 C354 468 352 471 349 474 L211 617 L74 474 C69 470 68 468 68 466 C68 464 70 463 72 463 C74 463 76 464 78 465 L211 541 Z " />
<glyph glyph-name="Scedilla" unicode="&#x15e;" horiz-adv-x="552" d="M284 -10 C338 -9 380 4 414 31 C468 72 499 140 499 216 C499 322 446 381 325 409 L266 423 C152 450 114 478 114 535 C114 603 178 657 260 657 C318 657 369 634 402 593 C421 569 430 547 437 503 L459 503 L458 676 L443 676 L408 633 C361 663 317 677 268 677 C154 677 67 591 67 479 C67 389 116 337 225 310 L310 290 C413 265 451 229 451 157 C451 70 385 10 288 10 C220 10 156 42 116 96 C94 126 84 152 75 207 L53 207 L60 0 L75 0 L114 56 C161 15 205 -5 262 -9 L245 -67 C289 -76 309 -91 309 -117 C309 -145 283 -165 247 -165 C219 -165 193 -156 193 -146 C193 -145 193 -145 197 -129 C198 -126 194 -111 192 -108 C189 -103 185 -101 180 -101 C172 -101 167 -107 167 -118 C167 -155 205 -181 257 -181 C318 -181 370 -148 370 -110 C370 -77 338 -58 284 -58 L268 -58 L284 -10 Z " />
<glyph glyph-name="scedilla" unicode="&#x15f;" horiz-adv-x="392" d="M214 -10 C297 -9 353 44 353 122 C353 193 314 232 229 248 L180 257 C114 269 92 281 92 308 C92 346 134 377 186 377 C252 377 298 341 312 280 L330 280 L330 395 L315 395 L300 359 C261 387 232 397 194 397 C117 397 62 347 62 277 C62 217 100 175 164 164 L249 148 C299 139 322 120 322 88 C322 45 277 10 221 10 C174 10 134 31 105 71 C91 91 84 108 75 148 L57 148 L57 0 L68 0 L93 38 C131 8 157 -4 194 -9 L177 -65 C219 -74 238 -89 238 -114 C238 -140 213 -160 180 -160 C153 -160 128 -151 128 -141 C128 -140 128 -140 132 -125 C129 -103 126 -98 117 -98 C109 -98 104 -104 104 -114 C104 -150 140 -176 189 -176 C247 -176 296 -144 296 -106 C296 -75 265 -56 215 -56 L199 -56 L214 -10 Z " />
<glyph glyph-name="Scaron" unicode="&#x160;" horiz-adv-x="552" d="M278 789 L130 838 L126 838 C122 838 121 837 121 835 C121 833 122 832 127 829 L278 720 L429 829 C434 832 435 833 435 835 C435 837 433 838 430 838 L425 838 L278 789 Z M458 676 L443 676 L408 633 C361 663 317 677 268 677 C154 677 67 591 67 479 C67 389 116 337 225 310 L310 290 C413 265 451 229 451 157 C451 70 385 10 288 10 C220 10 156 42 116 96 C94 126 84 152 75 207 L53 207 L60 0 L75 0 L114 56 C171 8 217 -10 283 -10 C411 -10 499 82 499 216 C499 322 446 381 325 409 L266 423 C152 450 114 478 114 535 C114 603 178 657 260 657 C318 657 369 634 402 593 C421 569 430 547 437 503 L459 503 L458 676 Z " />
<glyph glyph-name="scaron" unicode="&#x161;" horiz-adv-x="392" d="M330 395 L315 395 L300 359 C261 387 232 397 194 397 C117 397 62 347 62 277 C62 217 100 175 164 164 L249 148 C299 139 322 120 322 88 C322 45 277 10 221 10 C174 10 134 31 105 71 C91 91 84 108 75 148 L57 148 L57 0 L68 0 L93 38 C140 1 169 -10 214 -10 C296 -10 353 45 353 122 C353 193 314 232 229 248 L180 257 C114 269 92 281 92 308 C92 346 134 377 186 377 C252 377 298 341 312 280 L330 280 L330 395 Z M203 539 L69 615 C67 616 65 617 64 617 C62 617 60 616 60 614 C60 612 62 609 65 606 L203 463 L340 606 C345 610 346 612 346 614 C346 616 344 617 342 617 C340 617 338 616 336 615 L203 539 Z " />
<glyph glyph-name="Tcommaaccent" unicode="&#x162;" horiz-adv-x="632" d="M362 649 L413 649 C514 648 558 604 602 457 L617 459 L602 667 L23 667 L15 459 L30 457 C44 520 56 549 81 587 C119 638 143 649 216 649 L269 649 L269 18 L159 18 L159 0 L472 0 L472 18 L362 18 L362 649 Z M338 -106 C362 -117 373 -134 373 -159 C373 -192 354 -222 304 -268 L317 -278 C369 -236 396 -190 396 -146 C396 -94 359 -54 312 -54 C275 -54 249 -78 249 -113 C249 -143 268 -164 296 -164 C321 -164 339 -146 339 -120 L338 -106 Z " />
<glyph glyph-name="tcommaaccent" unicode="&#x163;" horiz-adv-x="318" d="M178 369 L295 369 L295 387 L178 387 L178 546 L168 546 C146 479 77 402 22 384 L22 369 L101 369 L101 107 C101 61 105 43 121 24 C141 2 170 -10 208 -10 C271 -10 306 17 318 74 L296 74 C287 36 268 20 233 20 C194 20 178 39 178 85 L178 369 Z M180 -265 C228 -224 253 -182 253 -140 C253 -91 219 -54 175 -54 C141 -54 117 -77 117 -109 C117 -137 134 -156 160 -156 C183 -156 200 -139 200 -115 C200 -112 200 -108 199 -103 C221 -113 232 -129 232 -153 C232 -183 213 -212 167 -254 L180 -265 Z " />
<glyph glyph-name="Tcaron" unicode="&#x164;" horiz-adv-x="632" d="M362 649 L413 649 C514 648 558 604 602 457 L617 459 L602 667 L23 667 L15 459 L30 457 C44 520 56 549 81 587 C119 638 143 649 216 649 L269 649 L269 18 L159 18 L159 0 L472 0 L472 18 L362 18 L362 649 Z M316 789 L169 838 L164 838 C160 837 159 837 159 835 C159 833 160 832 165 829 L316 720 L467 829 C471 831 473 833 473 835 C473 837 471 838 468 838 L464 838 L316 789 Z " />
<glyph glyph-name="tcaron" unicode="&#x165;" horiz-adv-x="340" d="M178 369 L295 369 L295 387 L178 387 L178 546 L168 546 C146 479 77 402 22 384 L22 369 L101 369 L101 107 C101 61 105 43 121 24 C141 2 170 -10 208 -10 C271 -10 306 17 318 74 L296 74 C287 36 268 20 233 20 C194 20 178 39 178 85 L178 369 Z M279 619 C301 609 312 593 312 569 C312 539 293 509 247 468 L260 457 C308 497 333 539 333 581 C333 630 299 667 255 667 C221 667 197 644 197 612 C197 584 214 565 240 565 C263 565 280 582 280 606 L279 619 Z " />
<glyph glyph-name="utilde" unicode="&#x169;" horiz-adv-x="562" d="M469 387 L311 387 L311 369 L392 369 L392 200 C392 140 384 90 370 68 C349 34 306 13 257 13 C197 13 178 38 178 117 L178 387 L20 387 L20 369 L101 369 L101 131 C101 80 107 54 125 33 C147 6 192 -10 247 -10 C314 -10 354 9 392 60 L392 0 L542 0 L542 18 L469 18 L469 387 Z M430 572 C414 550 398 541 374 541 C360 541 342 544 328 549 L289 563 C268 571 256 573 239 573 C193 573 167 553 140 499 L149 493 C165 515 183 524 212 524 C225 524 243 521 259 515 L297 502 C317 495 332 492 343 492 C382 492 406 512 439 567 L430 572 Z " />
<glyph glyph-name="Umacron" unicode="&#x16a;" horiz-adv-x="707" d="M220 649 L315 649 L315 667 L22 667 L22 649 L127 649 L127 249 C127 139 144 84 190 44 C230 10 298 -10 379 -10 C463 -10 522 15 559 67 C584 104 594 144 594 222 L594 649 L677 649 L677 667 L483 667 L483 649 L571 649 L571 222 C571 143 566 119 546 87 C515 37 463 10 397 10 C340 10 289 29 258 62 C228 94 220 126 220 205 L220 649 Z M528 749 L528 779 L208 779 L208 749 L528 749 Z " />
<glyph glyph-name="umacron" unicode="&#x16b;" horiz-adv-x="562" d="M469 387 L311 387 L311 369 L392 369 L392 200 C392 140 384 90 370 68 C349 34 306 13 257 13 C197 13 178 38 178 117 L178 387 L20 387 L20 369 L101 369 L101 131 C101 80 107 54 125 33 C147 6 192 -10 247 -10 C314 -10 354 9 392 60 L392 0 L542 0 L542 18 L469 18 L469 387 Z M424 499 L424 523 L151 523 L151 499 L424 499 Z " />
<glyph glyph-name="ubreve" unicode="&#x16d;" horiz-adv-x="562" d="M469 387 L311 387 L311 369 L392 369 L392 200 C392 140 384 90 370 68 C349 34 306 13 257 13 C197 13 178 38 178 117 L178 387 L20 387 L20 369 L101 369 L101 131 C101 80 107 54 125 33 C147 6 192 -10 247 -10 C314 -10 354 9 392 60 L392 0 L542 0 L542 18 L469 18 L469 387 Z M401 610 C392 576 383 559 365 545 C347 531 313 521 281 521 C249 521 215 531 197 545 C179 559 170 575 161 610 L150 610 C161 524 213 467 281 467 C349 467 401 523 413 610 L401 610 Z " />
<glyph glyph-name="Uring" unicode="&#x16e;" horiz-adv-x="707" d="M220 649 L315 649 L315 667 L22 667 L22 649 L127 649 L127 249 C127 139 144 84 190 44 C230 10 298 -10 379 -10 C463 -10 522 15 559 67 C584 104 594 144 594 222 L594 649 L677 649 L677 667 L483 667 L483 649 L571 649 L571 222 C571 143 566 119 546 87 C515 37 463 10 397 10 C340 10 289 29 258 62 C228 94 220 126 220 205 L220 649 Z M388 859 C345 859 312 825 312 782 C312 740 345 707 387 707 C430 707 463 740 463 781 C463 825 430 859 388 859 L388 859 Z M388 832 C412 832 435 809 435 783 C435 757 412 734 387 734 C361 734 340 757 340 783 C340 809 362 832 388 832 L388 832 Z " />
<glyph glyph-name="uring" unicode="&#x16f;" horiz-adv-x="562" d="M469 387 L311 387 L311 369 L392 369 L392 200 C392 140 384 90 370 68 C349 34 306 13 257 13 C197 13 178 38 178 117 L178 387 L20 387 L20 369 L101 369 L101 131 C101 80 107 54 125 33 C147 6 192 -10 247 -10 C314 -10 354 9 392 60 L392 0 L542 0 L542 18 L469 18 L469 387 Z M297 615 C254 615 220 581 220 538 C220 496 253 463 296 463 C339 463 372 496 372 537 C372 581 339 615 297 615 L297 615 Z M297 588 C322 588 344 565 344 539 C344 513 322 490 296 490 C270 490 248 513 248 539 C248 565 270 588 297 588 L297 588 Z " />
<glyph glyph-name="Uhungarumlaut" unicode="&#x170;" horiz-adv-x="707" d="M220 649 L315 649 L315 667 L22 667 L22 649 L127 649 L127 249 C127 139 144 84 190 44 C230 10 298 -10 379 -10 C463 -10 522 15 559 67 C584 104 594 144 594 222 L594 649 L677 649 L677 667 L483 667 L483 649 L571 649 L571 222 C571 143 566 119 546 87 C515 37 463 10 397 10 C340 10 289 29 258 62 C228 94 220 126 220 205 L220 649 Z M556 833 L443 731 C439 727 439 726 439 724 C439 721 440 720 442 720 C445 720 447 720 449 721 L637 813 C647 819 650 821 650 825 C650 831 645 833 636 833 L556 833 Z M375 833 L262 731 C259 728 258 726 258 724 C258 721 259 720 261 720 C264 720 266 720 268 721 L456 813 C465 818 468 821 468 825 C468 830 463 833 455 833 L375 833 Z " />
<glyph glyph-name="uhungarumlaut" unicode="&#x171;" horiz-adv-x="562" d="M469 387 L311 387 L311 369 L392 369 L392 200 C392 140 384 90 370 68 C349 34 306 13 257 13 C197 13 178 38 178 117 L178 387 L20 387 L20 369 L101 369 L101 131 C101 80 107 54 125 33 C147 6 192 -10 247 -10 C314 -10 354 9 392 60 L392 0 L542 0 L542 18 L469 18 L469 387 Z M438 613 L342 470 C341 469 340 467 340 466 C340 464 341 463 343 463 C345 463 347 464 349 466 L501 595 C505 598 508 603 508 606 C508 611 504 613 496 613 L438 613 Z M287 613 L191 470 C190 469 190 468 190 466 C190 464 191 463 193 463 C195 463 196 464 199 466 L350 595 C355 599 358 603 358 606 C358 611 354 613 346 613 L287 613 Z " />
<glyph glyph-name="Uogonek" unicode="&#x172;" horiz-adv-x="707" d="M550 -127 C525 -134 512 -136 494 -136 C446 -136 425 -120 425 -86 C425 -53 443 -31 507 18 C573 64 595 115 594 222 L594 649 L677 649 L677 667 L483 667 L483 649 L571 649 L571 222 C571 143 566 119 546 87 C515 37 463 10 397 10 C340 10 289 29 258 62 C228 94 220 126 220 205 L220 649 L315 649 L315 667 L22 667 L22 649 L127 649 L127 249 C127 139 144 84 190 44 C229 10 299 -10 376 -10 C403 -10 425 -8 449 -3 C396 -27 370 -58 370 -95 C370 -137 404 -162 460 -162 C495 -162 516 -157 550 -141 L550 -127 Z " />
<glyph glyph-name="uogonek" unicode="&#x173;" horiz-adv-x="562" d="M542 0 L542 18 L469 18 L469 387 L311 387 L311 369 L392 369 L392 200 C392 140 384 90 370 68 C349 34 306 13 257 13 C197 13 178 38 178 117 L178 387 L20 387 L20 369 L101 369 L101 131 C101 80 107 54 125 33 C147 6 192 -10 247 -10 C314 -10 354 9 392 60 L392 0 L450 0 C381 -24 346 -56 346 -95 C346 -134 379 -159 433 -159 C467 -159 488 -154 520 -138 L520 -124 C497 -132 484 -134 466 -134 C420 -134 398 -119 398 -86 C398 -52 421 -28 478 0 L542 0 Z " />
<glyph glyph-name="Wcircumflex" unicode="&#x174;" horiz-adv-x="863" d="M619 143 L501 431 L587 649 L648 649 L648 667 L-11 667 L-11 649 L54 649 L310 -10 L330 -10 L451 292 L569 -10 L588 -10 L817 649 L877 649 L877 667 L692 667 L692 649 L792 649 L619 143 Z M164 649 L307 649 L437 325 L362 135 L164 649 Z M422 649 L554 649 L489 467 L422 649 Z M456 769 L604 721 C605 720 607 720 608 720 C611 720 613 721 613 723 C613 725 611 727 608 730 L456 838 L305 730 C300 726 299 725 299 723 C299 721 301 720 304 720 C306 720 307 720 309 721 L456 769 Z " />
<glyph glyph-name="Ycircumflex" unicode="&#x176;" horiz-adv-x="607" d="M355 312 L553 649 L628 649 L628 667 L418 667 L418 649 L526 649 L349 353 L165 649 L262 649 L262 667 L-22 667 L-22 649 L41 649 L262 312 L262 18 L152 18 L152 0 L474 0 L474 18 L355 18 L355 312 Z M320 769 L468 721 C469 720 470 720 472 720 C475 720 477 721 477 723 C477 725 476 727 471 730 L320 838 L169 730 C164 727 163 725 163 723 C163 721 165 720 168 720 C170 720 171 720 173 721 L320 769 Z " />
<glyph glyph-name="ycircumflex" unicode="&#x177;" horiz-adv-x="455" d="M275 94 L149 369 L224 369 L224 387 L0 387 L0 369 L51 369 L237 -6 L177 -161 C163 -201 157 -208 141 -208 C135 -208 129 -205 125 -200 C108 -180 98 -174 79 -174 C51 -174 31 -194 31 -221 C31 -252 57 -274 92 -274 C139 -274 170 -244 199 -170 L407 369 L455 369 L455 387 L301 387 L301 369 L378 369 L275 94 Z M244 541 L378 465 C380 464 382 463 383 463 C385 463 387 464 387 466 C387 468 385 471 382 474 L244 617 L107 474 C102 470 101 468 101 466 C101 464 103 463 105 463 C107 463 109 464 111 465 L244 541 Z " />
<glyph glyph-name="Ydieresis" unicode="&#x178;" horiz-adv-x="607" d="M212 824 C186 824 164 802 164 776 C164 749 186 727 213 727 C239 727 261 749 261 775 C261 802 240 824 212 824 L212 824 Z M445 824 C419 824 397 802 397 776 C397 749 419 727 446 727 C472 727 494 749 494 775 C494 802 473 824 445 824 L445 824 Z M355 312 L553 649 L628 649 L628 667 L418 667 L418 649 L526 649 L349 353 L165 649 L262 649 L262 667 L-22 667 L-22 649 L41 649 L262 312 L262 18 L152 18 L152 0 L474 0 L474 18 L355 18 L355 312 Z " />
<glyph glyph-name="Zacute" unicode="&#x179;" horiz-adv-x="614" d="M564 0 L585 208 L570 208 C529 54 485 13 367 18 L153 18 L585 667 L89 667 L68 464 L82 464 C120 605 160 648 254 649 L455 649 L33 24 L33 0 L564 0 Z M428 833 L299 731 C295 727 294 726 294 724 C294 721 295 720 298 720 C300 720 303 720 304 721 L526 814 C535 818 538 821 538 825 C538 831 534 833 525 833 L428 833 Z " />
<glyph glyph-name="zacute" unicode="&#x17a;" horiz-adv-x="441" d="M403 0 L406 164 L391 164 C362 42 338 18 244 18 L145 18 L413 387 L68 387 L65 238 L79 238 C114 349 136 368 231 369 L296 369 L34 0 L403 0 Z M317 613 L222 470 C221 469 220 467 220 466 C220 465 222 463 223 463 C225 463 225 463 228 466 L387 595 C392 599 395 603 395 606 C395 611 391 613 383 613 L317 613 Z " />
<glyph glyph-name="Zdotaccent" unicode="&#x17b;" horiz-adv-x="614" d="M564 0 L585 208 L570 208 C529 54 485 13 367 18 L153 18 L585 667 L89 667 L68 464 L82 464 C120 605 160 648 254 649 L455 649 L33 24 L33 0 L564 0 Z M340 826 C313 826 290 803 290 776 C290 748 313 725 341 725 C368 725 391 748 391 775 C391 804 369 826 340 826 L340 826 Z " />
<glyph glyph-name="zdotaccent" unicode="&#x17c;" horiz-adv-x="441" d="M403 0 L406 164 L391 164 C362 42 338 18 244 18 L145 18 L413 387 L68 387 L65 238 L79 238 C114 349 136 368 231 369 L296 369 L34 0 L403 0 Z M250 586 C223 586 200 563 200 536 C200 508 223 485 251 485 C278 485 301 508 301 535 C301 564 279 586 250 586 L250 586 Z " />
<glyph glyph-name="Zcaron" unicode="&#x17d;" horiz-adv-x="614" d="M345 789 L198 838 L193 838 C189 838 188 837 188 835 C188 833 189 832 194 829 L345 720 L496 829 C501 832 502 833 502 835 C502 837 500 838 497 838 L493 838 L345 789 Z M564 0 L585 208 L570 208 C529 54 485 13 367 18 L153 18 L585 667 L89 667 L68 464 L82 464 C120 605 160 648 254 649 L455 649 L33 24 L33 0 L564 0 Z " />
<glyph glyph-name="zcaron" unicode="&#x17e;" horiz-adv-x="441" d="M252 539 L119 615 C117 616 115 617 113 617 C111 617 109 616 109 614 C109 612 110 610 115 606 L252 463 L389 606 C393 610 395 612 395 614 C395 616 393 617 391 617 C390 617 388 616 386 615 L252 539 Z M403 0 L406 164 L391 164 C362 42 338 18 244 18 L145 18 L413 387 L68 387 L65 238 L79 238 C114 349 136 368 231 369 L296 369 L34 0 L403 0 Z " />
<glyph glyph-name="florin" unicode="&#x192;" horiz-adv-x="550" d="M300 302 L395 302 L399 320 L304 320 L334 459 C363 594 406 660 464 660 C477 660 485 656 485 649 C485 645 483 643 477 640 C458 629 453 623 453 611 C453 592 469 579 492 579 C521 579 542 597 542 623 C542 656 512 677 466 677 C364 677 276 574 242 413 L221 320 L126 320 L122 302 L218 302 L147 -27 C123 -140 114 -174 101 -199 C79 -242 50 -263 15 -263 C-2 -263 -14 -258 -14 -250 C-14 -247 -12 -244 -6 -237 C3 -226 7 -219 7 -212 C7 -196 -9 -183 -28 -183 C-51 -183 -70 -202 -70 -226 C-70 -259 -39 -280 9 -280 C63 -280 104 -259 144 -211 C189 -156 218 -82 248 59 L300 302 Z " />
<glyph glyph-name="uni01CD" unicode="&#x1cd;" horiz-adv-x="667" d="M401 214 L475 18 L371 18 L371 0 L670 0 L670 18 L586 18 L346 667 L316 667 L66 18 L-4 18 L-4 0 L191 0 L191 18 L94 18 L168 214 L401 214 Z M395 232 L175 232 L285 527 L395 232 Z M333 789 L186 838 L181 838 C177 838 176 837 176 835 C176 833 177 832 182 829 L333 720 L484 829 C489 832 490 833 490 835 C490 837 488 838 485 838 L481 838 L333 789 Z " />
<glyph glyph-name="uni01CE" unicode="&#x1ce;" horiz-adv-x="464" d="M303 215 C222 213 185 208 144 194 C79 171 43 131 43 82 C43 26 89 -10 162 -10 C225 -10 268 15 303 71 C311 13 334 -10 382 -10 C408 -10 419 -6 454 18 L444 30 C430 19 421 15 410 15 C388 15 380 26 380 57 L380 282 C380 324 370 349 346 366 C319 386 277 397 232 397 C147 397 73 352 73 301 C73 275 90 257 114 257 C137 257 154 274 154 297 C154 309 150 315 135 329 C128 336 125 340 125 342 C125 359 177 380 221 380 C247 380 268 375 283 364 C298 354 303 340 303 315 L303 215 Z M303 167 C303 131 299 106 292 89 C275 54 237 30 196 30 C150 30 119 57 119 99 C119 132 138 158 173 176 C208 193 236 198 303 200 L303 167 Z M249 539 L115 615 C113 616 112 617 110 617 C108 617 106 616 106 614 C106 612 107 610 112 606 L249 463 L386 606 C390 610 392 612 392 614 C392 616 390 617 388 617 C386 617 385 616 383 615 L249 539 Z " />
<glyph glyph-name="uni01D3" unicode="&#x1d3;" horiz-adv-x="707" d="M220 649 L315 649 L315 667 L22 667 L22 649 L127 649 L127 249 C127 139 144 84 190 44 C230 10 298 -10 379 -10 C463 -10 522 15 559 67 C584 104 594 144 594 222 L594 649 L677 649 L677 667 L483 667 L483 649 L571 649 L571 222 C571 143 566 119 546 87 C515 37 463 10 397 10 C340 10 289 29 258 62 C228 94 220 126 220 205 L220 649 Z M387 789 L240 838 L236 838 C232 838 231 837 231 835 C231 833 232 831 236 829 L387 720 L538 829 C542 831 544 833 544 835 C544 837 542 838 539 838 L535 838 L387 789 Z " />
<glyph glyph-name="uni01D4" unicode="&#x1d4;" horiz-adv-x="562" d="M469 387 L311 387 L311 369 L392 369 L392 200 C392 140 384 90 370 68 C349 34 306 13 257 13 C197 13 178 38 178 117 L178 387 L20 387 L20 369 L101 369 L101 131 C101 80 107 54 125 33 C147 6 192 -10 247 -10 C314 -10 354 9 392 60 L392 0 L542 0 L542 18 L469 18 L469 387 Z M300 539 L167 615 C165 616 163 617 161 617 C159 617 157 616 157 614 C157 612 158 610 163 606 L300 463 L438 606 C441 609 443 612 443 614 C443 616 441 617 439 617 C438 617 436 616 434 615 L300 539 Z " />
<glyph glyph-name="Gcaron" unicode="&#x1e6;" horiz-adv-x="698" d="M583 667 L568 667 L531 625 C474 661 424 677 363 677 C289 677 217 647 159 593 C87 525 51 437 51 329 C51 235 77 161 133 94 C191 25 266 -10 356 -10 C436 -10 506 18 554 69 C587 104 600 137 613 212 L687 212 L687 230 L379 230 L379 212 L493 212 C493 152 491 129 483 105 C462 43 411 10 336 10 C260 10 207 45 183 108 C170 144 164 212 164 316 C164 431 174 522 190 563 C214 623 273 657 352 657 C460 657 534 594 568 471 L583 471 L583 667 Z M365 789 L217 838 L213 838 C209 838 208 837 208 835 C208 833 209 831 214 829 L365 720 L516 829 C521 832 522 833 522 835 C522 837 520 838 517 838 L512 838 L365 789 Z " />
<glyph glyph-name="gcaron" unicode="&#x1e7;" horiz-adv-x="481" d="M109 134 C82 116 82 116 76 110 C44 82 29 53 29 20 C29 -26 55 -55 108 -69 C50 -93 29 -116 29 -156 C29 -225 112 -274 227 -274 C360 -274 452 -198 452 -88 C452 -44 438 -13 413 3 C393 15 373 18 323 18 L137 18 C88 18 64 30 64 54 C64 77 92 106 140 133 C170 122 195 117 227 117 C325 117 399 176 399 255 C399 290 392 312 370 343 C383 356 392 361 401 361 C409 361 414 357 416 349 C420 324 428 315 447 315 C466 315 479 329 479 352 C479 376 461 391 433 391 C408 391 391 383 358 353 C318 386 285 397 234 397 C135 397 64 339 64 257 C64 210 81 177 123 144 L109 134 Z M146 288 C146 354 168 377 232 377 C265 377 289 370 302 357 C313 346 316 331 316 293 L316 228 C316 156 298 137 231 137 C164 137 146 156 146 228 L146 288 Z M160 -70 L196 -70 L315 -70 C371 -70 371 -70 384 -75 C399 -80 407 -94 407 -115 C407 -191 329 -254 233 -254 C155 -254 103 -211 103 -148 C103 -118 113 -96 140 -70 L160 -70 Z M244 539 L110 615 C108 616 106 617 105 617 C103 617 101 616 101 614 C101 612 103 610 106 606 L244 463 L381 606 C386 611 387 612 387 614 C387 616 385 617 383 617 C381 617 379 616 377 615 L244 539 Z " />
<glyph glyph-name="Scommaaccent" unicode="&#x218;" horiz-adv-x="552" d="M458 676 L443 676 L408 633 C361 663 317 677 268 677 C154 677 67 591 67 479 C67 389 116 337 225 310 L310 290 C413 265 451 229 451 157 C451 70 385 10 288 10 C220 10 156 42 116 96 C94 126 84 152 75 207 L53 207 L60 0 L75 0 L114 56 C171 8 217 -10 283 -10 C411 -10 499 82 499 216 C499 322 446 381 325 409 L266 423 C152 450 114 478 114 535 C114 603 178 657 260 657 C318 657 369 634 402 593 C421 569 430 547 437 503 L459 503 L458 676 Z M271 -278 C322 -236 349 -190 349 -146 C349 -94 313 -54 265 -54 C229 -54 203 -78 203 -113 C203 -143 222 -164 249 -164 C274 -164 292 -146 292 -120 C292 -117 292 -111 291 -106 C315 -117 326 -134 326 -159 C326 -192 307 -222 257 -268 L271 -278 Z " />
<glyph glyph-name="scommaaccent" unicode="&#x219;" horiz-adv-x="392" d="M330 395 L315 395 L300 359 C261 387 232 397 194 397 C117 397 62 347 62 277 C62 217 100 175 164 164 L249 148 C299 139 322 120 322 88 C322 45 277 10 221 10 C174 10 134 31 105 71 C91 91 84 108 75 148 L57 148 L57 0 L68 0 L93 38 C140 1 169 -10 214 -10 C296 -10 353 45 353 122 C353 193 314 232 229 248 L180 257 C114 269 92 281 92 308 C92 346 134 377 186 377 C252 377 298 341 312 280 L330 280 L330 395 Z M209 -265 C257 -225 282 -182 282 -140 C282 -91 248 -54 203 -54 C169 -54 145 -77 145 -109 C145 -137 163 -156 189 -156 C212 -156 229 -139 229 -115 C229 -112 229 -108 228 -103 C251 -113 261 -128 261 -153 C261 -183 242 -212 196 -254 L209 -265 Z " />
<glyph glyph-name="uni021A" unicode="&#x21a;" horiz-adv-x="632" d="M362 649 L413 649 C514 648 558 604 602 457 L617 459 L602 667 L23 667 L15 459 L30 457 C44 520 56 549 81 587 C119 638 143 649 216 649 L269 649 L269 18 L159 18 L159 0 L472 0 L472 18 L362 18 L362 649 Z M338 -106 C362 -117 373 -134 373 -159 C373 -192 354 -222 304 -268 L317 -278 C369 -236 396 -190 396 -146 C396 -94 359 -54 312 -54 C275 -54 249 -78 249 -113 C249 -143 268 -164 296 -164 C321 -164 339 -146 339 -120 L338 -106 Z " />
<glyph glyph-name="uni021B" unicode="&#x21b;" horiz-adv-x="318" d="M178 369 L295 369 L295 387 L178 387 L178 546 L168 546 C146 479 77 402 22 384 L22 369 L101 369 L101 107 C101 61 105 43 121 24 C141 2 170 -10 208 -10 C271 -10 306 17 318 74 L296 74 C287 36 268 20 233 20 C194 20 178 39 178 85 L178 369 Z M180 -265 C228 -224 253 -182 253 -140 C253 -91 219 -54 175 -54 C141 -54 117 -77 117 -109 C117 -137 134 -156 160 -156 C183 -156 200 -139 200 -115 C200 -112 200 -108 199 -103 C221 -113 232 -129 232 -153 C232 -183 213 -212 167 -254 L180 -265 Z " />
<glyph glyph-name="circumflex" unicode="&#x2c6;" horiz-adv-x="522" d="M260 541 L394 465 C396 464 398 463 399 463 C401 463 403 464 403 466 C403 468 401 471 398 474 L260 617 L123 474 C120 471 118 468 118 466 C118 464 120 463 121 463 C123 463 125 464 127 465 L260 541 Z " />
<glyph glyph-name="caron" unicode="&#x2c7;" horiz-adv-x="522" d="M260 539 L127 615 C125 616 123 617 121 617 C119 617 117 616 117 614 C117 612 118 611 123 606 L260 463 L398 606 C401 609 403 612 403 614 C403 616 401 617 400 617 C398 617 396 616 394 615 L260 539 Z " />
<glyph glyph-name="uni02C9" unicode="&#x2c9;" horiz-adv-x="523" d="M398 499 L398 523 L125 523 L125 499 L398 499 Z " />
<glyph glyph-name="breve" unicode="&#x2d8;" horiz-adv-x="524" d="M382 610 C373 576 364 559 346 545 C328 531 294 521 262 521 C230 521 196 531 177 545 C160 559 151 575 141 610 L130 610 C141 524 193 467 262 467 C330 467 382 523 393 610 L382 610 Z " />
<glyph glyph-name="dotaccent" unicode="&#x2d9;" horiz-adv-x="540" d="M269 586 C242 586 219 563 219 536 C219 508 242 485 270 485 C297 485 320 508 320 535 C320 564 298 586 269 586 L269 586 Z " />
<glyph glyph-name="ring" unicode="&#x2da;" horiz-adv-x="535" d="M268 615 C225 615 192 581 192 538 C192 496 225 463 268 463 C310 463 343 496 343 537 C343 581 310 615 268 615 L268 615 Z M268 588 C293 588 315 565 315 539 C315 513 293 490 267 490 C242 490 220 513 220 539 C220 565 242 588 268 588 L268 588 Z " />
<glyph glyph-name="ogonek" unicode="&#x2db;" horiz-adv-x="550" d="M418 0 C347 -26 315 -56 315 -95 C315 -134 349 -159 401 -159 C435 -159 456 -154 488 -138 L488 -124 C465 -132 452 -134 434 -134 C389 -134 367 -119 367 -86 C367 -53 391 -27 447 0 L418 0 Z " />
<glyph glyph-name="tilde" unicode="&#x2dc;" horiz-adv-x="520" d="M401 572 C385 550 369 541 345 541 C331 541 312 544 299 549 L260 563 C239 571 227 573 210 573 C164 573 138 553 111 499 L120 493 C136 515 154 524 183 524 C196 524 214 521 230 515 L268 502 C287 495 302 492 314 492 C352 492 377 512 410 567 L401 572 Z " />
<glyph glyph-name="hungarumlaut" unicode="&#x2dd;" horiz-adv-x="533" d="M413 613 L317 470 C316 469 316 468 316 466 C316 464 317 463 319 463 C321 463 322 464 325 466 L476 595 C481 599 484 603 484 606 C484 611 480 613 472 613 L413 613 Z M262 613 L167 470 C166 469 165 467 165 466 C165 464 166 463 168 463 C170 463 172 464 174 466 L325 595 C330 599 333 603 333 606 C333 611 329 613 321 613 L262 613 Z " />
<glyph glyph-name="Wdieresis" unicode="&#x1e84;" horiz-adv-x="863" d="M619 143 L501 431 L587 649 L648 649 L648 667 L-11 667 L-11 649 L54 649 L310 -10 L330 -10 L451 292 L569 -10 L588 -10 L817 649 L877 649 L877 667 L692 667 L692 649 L792 649 L619 143 Z M164 649 L307 649 L437 325 L362 135 L164 649 Z M422 649 L554 649 L489 467 L422 649 Z M354 824 C328 824 306 802 306 776 C306 749 328 727 355 727 C381 727 403 749 403 775 C403 802 382 824 354 824 L354 824 Z M587 824 C561 824 539 802 539 776 C539 749 561 727 588 727 C614 727 636 749 636 775 C636 802 615 824 587 824 L587 824 Z " />
<glyph glyph-name="uni2011" unicode="&#x2011;" horiz-adv-x="208" d="M208 230 L0 230 L0 170 L208 170 L208 230 Z " />
<glyph glyph-name="figuredash" unicode="&#x2012;" horiz-adv-x="550" d="M504 230 L46 230 L46 170 L504 170 L504 230 Z " />
<glyph glyph-name="endash" unicode="&#x2013;" horiz-adv-x="550" d="M504 230 L46 230 L46 170 L504 170 L504 230 Z " />
<glyph glyph-name="emdash" unicode="&#x2014;" horiz-adv-x="623" d="M623 230 L0 230 L0 170 L623 170 L623 230 Z " />
<glyph glyph-name="afii00208" unicode="&#x2015;" horiz-adv-x="623" d="M623 230 L0 230 L0 170 L623 170 L623 230 Z " />
<glyph glyph-name="quoteleft" unicode="&#x2018;" horiz-adv-x="262" d="M151 687 C91 634 59 578 59 523 C59 466 95 423 142 423 C178 423 203 449 203 487 C203 520 185 542 157 542 C133 542 115 522 115 494 C115 491 115 485 116 479 C92 492 82 510 82 538 C82 579 105 618 163 675 L151 687 Z " />
<glyph glyph-name="quoteright" unicode="&#x2019;" horiz-adv-x="262" d="M111 413 C171 466 203 522 203 577 C203 634 167 677 120 677 C84 677 59 651 59 613 C59 580 77 558 105 558 C129 558 147 578 147 606 C147 610 147 615 146 621 C170 609 180 591 180 562 C180 521 157 483 99 425 L111 413 Z " />
<glyph glyph-name="quotesinglbase" unicode="&#x201a;" horiz-adv-x="276" d="M117 -152 C183 -99 218 -43 218 12 C218 69 179 112 127 112 C87 112 59 86 59 48 C59 15 79 -7 109 -7 C137 -7 156 13 156 41 C156 44 156 50 155 56 C182 44 195 26 195 -3 C195 -44 170 -82 103 -140 L117 -152 Z " />
<glyph glyph-name="quotedblleft" unicode="&#x201c;" horiz-adv-x="496" d="M350 479 C326 491 316 509 316 538 C316 579 339 618 397 675 L385 687 C325 634 293 578 293 523 C293 466 329 423 376 423 C412 423 438 449 438 487 C438 520 420 542 392 542 C368 542 350 522 350 494 L350 479 Z M151 687 C91 634 59 578 59 523 C59 466 95 423 142 423 C178 423 203 449 203 487 C203 520 185 542 157 542 C133 542 115 522 115 494 C115 491 115 485 116 479 C92 492 82 510 82 538 C82 579 105 618 163 675 L151 687 Z " />
<glyph glyph-name="quotedblright" unicode="&#x201d;" horiz-adv-x="496" d="M111 413 C171 466 203 522 203 577 C203 634 167 677 120 677 C84 677 59 651 59 613 C59 580 77 558 105 558 C129 558 147 578 147 606 C147 610 147 615 146 621 C170 609 180 591 180 562 C180 521 157 483 99 425 L111 413 Z M346 413 C405 466 437 522 437 577 C437 634 401 677 354 677 C318 677 293 651 293 613 C293 580 311 558 339 558 C363 558 381 578 381 606 C381 611 381 615 380 621 C404 609 414 591 414 562 C414 521 391 482 333 425 L346 413 Z " />
<glyph glyph-name="quotedblbase" unicode="&#x201e;" horiz-adv-x="510" d="M117 -152 C183 -99 218 -43 218 12 C218 69 179 112 127 112 C87 112 59 86 59 48 C59 15 79 -7 109 -7 C137 -7 156 13 156 41 C156 44 156 50 155 56 C182 44 195 26 195 -3 C195 -44 170 -82 103 -140 L117 -152 Z M351 -152 C417 -99 452 -43 452 12 C452 69 413 112 361 112 C321 112 293 86 293 48 C293 15 313 -7 343 -7 C371 -7 390 13 390 41 C390 45 390 50 389 56 C416 44 429 26 429 -2 C429 -44 403 -83 337 -140 L351 -152 Z " />
<glyph glyph-name="dagger" unicode="&#x2020;" horiz-adv-x="550" d="M283 376 L469 339 C474 337 480 337 489 337 C524 337 549 356 549 383 C549 410 524 429 488 429 C481 429 475 428 469 427 L284 388 L318 531 C323 550 327 587 327 607 C327 655 310 677 275 677 C239 677 222 654 222 607 C222 588 226 553 232 531 L266 388 L81 427 C75 428 69 429 62 429 C26 429 1 410 1 383 C1 356 25 337 61 337 C70 337 75 337 81 339 L267 376 L230 17 C221 -47 220 -60 220 -96 C220 -156 240 -190 275 -190 C310 -190 330 -156 330 -96 C330 -58 329 -48 320 17 L283 376 Z " />
<glyph glyph-name="daggerdbl" unicode="&#x2021;" horiz-adv-x="550" d="M266 407 L81 446 C76 448 71 448 62 448 C26 448 1 429 1 402 C1 375 25 356 61 356 C68 356 75 357 81 358 L267 395 C265 364 250 294 236 255 C248 208 251 194 266 109 L81 148 C75 149 68 150 62 150 C26 150 1 131 1 103 C1 76 26 57 61 57 C66 57 74 58 81 59 L266 96 L235 -43 C222 -102 222 -102 222 -121 C222 -167 240 -190 275 -190 C310 -190 328 -167 328 -122 C328 -103 328 -103 314 -43 L284 96 L469 59 C476 58 484 57 489 57 C524 57 549 76 549 103 C549 131 524 150 488 150 C481 150 475 149 469 148 L284 109 C299 194 303 210 314 255 C299 300 288 347 283 395 L469 358 C475 357 481 356 489 356 C524 356 549 375 549 402 C549 429 524 448 488 448 C479 448 474 448 469 446 L284 407 L314 531 C326 577 328 589 328 609 C328 654 310 677 275 677 C240 677 222 654 222 609 C222 592 226 570 235 531 L266 407 Z " />
<glyph glyph-name="bullet" unicode="&#x2022;" horiz-adv-x="733" d="M368 480 C282 480 215 418 215 340 C215 263 283 200 366 200 C450 200 517 263 517 340 C517 417 450 480 368 480 L368 480 Z " />
<glyph glyph-name="ellipsis" unicode="&#x2026;" horiz-adv-x="814" d="M135 107 C101 107 73 81 73 50 C73 19 101 -7 136 -7 C170 -7 198 18 198 49 C198 82 171 107 135 107 L135 107 Z M406 107 C372 107 344 81 344 50 C344 19 372 -7 407 -7 C441 -7 469 18 469 49 C469 82 442 107 406 107 L406 107 Z M678 107 C644 107 616 81 616 50 C616 19 644 -7 679 -7 C713 -7 741 18 741 49 C741 82 714 107 678 107 L678 107 Z " />
<glyph glyph-name="perthousand" unicode="&#x2030;" horiz-adv-x="1108" d="M177 653 C98 653 31 576 31 487 C31 397 98 320 177 320 C254 320 322 397 322 485 C322 576 255 653 177 653 L177 653 Z M100 521 C100 606 120 635 176 635 C234 635 253 606 253 521 L253 451 C253 367 234 338 176 338 C120 338 100 367 100 451 L100 521 Z M559 647 L527 647 L197 0 L229 0 L559 647 Z M576 327 C496 327 427 250 427 161 C427 71 496 -6 576 -6 C655 -6 725 71 725 159 C725 250 657 327 576 327 L576 327 Z M496 196 C496 280 516 309 576 309 C636 309 656 280 656 196 L656 126 C656 41 636 12 576 12 C516 12 496 41 496 126 L496 196 Z M932 327 C853 327 786 250 786 161 C786 71 853 -6 932 -6 C1009 -6 1077 71 1077 159 C1077 250 1010 327 932 327 L932 327 Z M855 196 C855 280 875 309 931 309 C989 309 1008 280 1008 196 L1008 126 C1008 41 989 12 931 12 C875 12 855 41 855 126 L855 196 Z " />
<glyph glyph-name="guilsinglleft" unicode="&#x2039;" horiz-adv-x="288" d="M51 200 L173 96 L229 96 L107 200 L229 304 L173 304 L51 200 Z " />
<glyph glyph-name="guilsinglright" unicode="&#x203a;" horiz-adv-x="288" d="M237 200 L114 304 L59 304 L181 200 L59 96 L114 96 L237 200 Z " />
<glyph glyph-name="uni203E" unicode="&#x203e;" horiz-adv-x="500" d="M0 847 L0 807 L500 807 L500 847 L0 847 Z " />
<glyph glyph-name="fraction" unicode="&#x2044;" horiz-adv-x="125" d="M246 647 L209 647 L-121 0 L-84 0 L246 647 Z " />
<glyph glyph-name="franc" unicode="&#x20a3;" horiz-adv-x="784" d="M559 667 L37 667 L37 649 L132 649 L132 18 L37 18 L37 0 L337 0 L337 18 L225 18 L225 329 L297 329 C386 330 419 304 424 227 L424 205 L439 205 L439 475 L424 475 L424 457 C420 364 398 345 298 347 L225 347 L225 649 L359 649 C480 653 536 605 559 475 L574 475 L559 667 Z M618 361 L468 361 L468 343 L541 343 L541 18 L468 18 L468 0 L699 0 L699 18 L618 18 L618 109 C618 190 622 219 641 265 C660 310 682 334 704 334 C714 334 719 329 720 318 C721 284 734 268 761 268 C787 268 805 288 805 317 C805 349 779 371 741 371 C707 371 674 354 653 326 C640 309 633 296 618 261 L618 361 Z " />
<glyph glyph-name="Euro" unicode="&#x20ac;" horiz-adv-x="703" d="M112 350 C111 338 111 334 111 328 L111 317 L60 317 L46 287 L113 287 C129 121 266 -10 422 -10 C485 -10 534 6 606 50 L642 0 L657 0 L657 185 L642 185 C620 132 607 110 585 85 C543 37 483 10 418 10 C347 10 283 41 254 89 C231 126 227 156 225 284 L225 287 L479 287 L493 317 L224 317 L224 320 L224 330 L225 347 L225 350 L510 350 L524 380 L225 380 L225 383 C229 481 232 509 243 544 C265 615 332 657 423 657 C484 657 539 637 580 599 C612 570 627 544 642 494 L657 494 L657 667 L642 667 L606 617 C542 661 495 677 430 677 C319 677 214 614 157 513 C134 473 121 433 114 380 L60 380 L46 350 L112 350 Z " />
<glyph glyph-name="trademark" unicode="&#x2122;" horiz-adv-x="899" d="M227 649 L257 649 C315 648 338 625 365 542 L381 544 L372 667 L23 667 L18 544 L34 542 C53 622 83 653 139 649 L165 649 L165 305 L101 305 L101 287 L297 287 L297 305 L227 305 L227 649 Z M593 287 L612 287 L738 625 L738 305 L676 305 L676 287 L855 287 L855 305 L800 305 L800 649 L855 649 L855 667 L729 667 L628 397 L533 667 L397 667 L397 649 L448 649 L448 305 L397 305 L397 287 L528 287 L528 305 L470 305 L470 628 L593 287 Z " />
<glyph glyph-name="uni2126" unicode="&#x2126;" horiz-adv-x="768" d="M326 0 L308 155 C230 199 180 288 180 382 C180 434 195 493 221 540 C257 605 317 642 385 642 C453 642 513 605 549 540 C575 493 590 434 590 382 C590 288 540 199 462 155 L444 0 L736 0 L736 153 L712 153 C704 108 684 90 643 90 L497 90 L500 128 C535 141 557 151 580 166 C657 215 702 296 702 382 C702 449 673 522 625 578 C564 648 480 686 385 686 C290 686 206 648 145 578 C97 522 68 449 68 382 C68 296 113 215 190 166 C213 151 235 141 270 128 L273 90 L127 90 C86 90 66 108 58 153 L34 153 L34 0 L326 0 Z " />
<glyph glyph-name="partialdiff" unicode="&#x2202;" horiz-adv-x="494" d="M107 674 C151 697 184 706 219 706 C321 706 379 611 379 448 C379 418 377 395 372 346 C308 396 272 412 221 412 C172 412 131 394 95 355 C51 309 26 246 26 184 C26 76 109 -10 213 -10 C282 -10 341 22 383 84 C429 152 462 286 462 403 C462 519 428 611 360 681 C312 730 259 753 195 753 C156 753 121 746 66 725 L107 674 Z M366 312 C350 201 340 158 314 107 C288 54 245 21 201 21 C146 21 113 73 113 159 C113 273 180 367 261 367 C299 367 324 354 366 312 L366 312 Z " />
<glyph glyph-name="Delta" unicode="&#x2206;" horiz-adv-x="612" d="M6 0 L608 0 L327 688 L6 0 Z M77 51 L290 509 L479 51 L77 51 Z " />
<glyph glyph-name="product" unicode="&#x220f;" horiz-adv-x="823" d="M25 -124 L315 -124 L315 -98 L312 -98 C242 -94 221 -67 224 18 L224 594 C224 656 228 677 242 690 C260 707 272 708 413 708 C556 708 568 707 586 690 C600 677 604 656 604 594 L604 18 C607 -67 586 -94 516 -98 L513 -98 L513 -124 L803 -124 L803 -98 L800 -98 C730 -94 709 -67 712 18 L712 609 C709 694 730 721 800 725 L803 725 L803 751 L25 751 L25 725 L28 725 C98 721 119 694 116 609 L116 18 C119 -67 98 -94 28 -98 L25 -98 L25 -124 Z " />
<glyph glyph-name="summation" unicode="&#x2211;" horiz-adv-x="713" d="M176 711 L444 711 C560 710 590 688 606 587 L632 587 L622 752 L23 752 L256 285 L14 -123 L641 -123 L695 87 L669 87 C639 7 605 -12 491 -11 L163 -11 L364 341 L176 711 Z " />
<glyph glyph-name="minus" unicode="&#x2212;" horiz-adv-x="550" d="M493 339 L56 339 L56 309 L493 309 L493 339 Z " />
<glyph glyph-name="uni2215" unicode="&#x2215;" horiz-adv-x="125" d="M246 647 L209 647 L-121 0 L-84 0 L246 647 Z " />
<glyph glyph-name="uni2219" unicode="&#x2219;" horiz-adv-x="271" d="M135 257 C101 257 73 231 73 200 C73 169 101 143 136 143 C170 143 198 168 198 199 C198 232 171 257 135 257 L135 257 Z " />
<glyph glyph-name="radical" unicode="&#x221a;" horiz-adv-x="549" d="M363 -35 L515 908 L480 913 L353 123 L156 520 L10 449 L26 414 L121 461 L363 -35 Z " />
<glyph glyph-name="infinity" unicode="&#x221e;" horiz-adv-x="713" d="M357 227 C415 156 485 115 548 115 C631 115 688 176 688 266 C688 354 629 414 543 414 C476 414 412 376 357 303 C300 375 234 414 171 414 C86 414 26 351 26 263 C26 176 84 115 167 115 C224 115 281 142 327 192 L357 227 Z M391 264 C434 325 493 362 546 362 C600 362 638 321 638 264 C638 205 603 167 549 167 C495 167 461 188 391 264 L391 264 Z M324 266 C275 203 216 167 163 167 C111 167 76 207 76 266 C76 323 113 362 167 362 C218 362 258 337 324 266 L324 266 Z " />
<glyph glyph-name="integral" unicode="&#x222b;" horiz-adv-x="274" d="M180 576 C180 653 179 691 176 746 C174 774 173 800 173 815 C173 855 184 878 202 878 C208 878 213 876 215 872 C232 845 239 839 256 839 C276 839 291 853 291 871 C291 898 267 916 231 916 C186 916 152 887 138 838 C123 784 113 682 113 577 L113 232 C113 160 114 124 117 63 C119 34 120 4 120 -12 C120 -47 108 -70 89 -70 C81 -70 74 -65 68 -52 C59 -35 51 -30 37 -30 C17 -30 2 -44 2 -63 C2 -89 26 -107 62 -107 C107 -107 141 -78 155 -29 C170 25 180 126 180 232 L180 576 Z " />
<glyph glyph-name="approxequal" unicode="&#x2248;" horiz-adv-x="549" d="M489 251 C444 199 423 187 384 187 C365 187 354 190 285 211 C212 234 188 239 160 239 C101 239 54 211 14 155 L57 121 C103 174 120 184 159 184 C180 184 180 184 271 157 C350 133 354 132 385 132 C449 132 496 160 527 217 L489 251 Z M489 408 C444 356 423 344 384 344 C365 344 354 347 285 369 C212 392 188 397 160 397 C101 397 54 369 14 312 L57 279 C104 332 119 342 159 342 C181 342 181 342 271 315 C351 290 354 289 385 289 C449 289 496 318 527 375 L489 408 Z " />
<glyph glyph-name="notequal" unicode="&#x2260;" horiz-adv-x="549" d="M187 142 L115 -1 L161 -25 L246 142 L540 142 L540 197 L273 197 L344 336 L540 336 L540 391 L371 391 L439 525 L392 549 L312 391 L15 391 L15 336 L285 336 L215 197 L15 197 L15 142 L187 142 Z " />
<glyph glyph-name="lessequal" unicode="&#x2264;" horiz-adv-x="549" d="M526 55 L29 55 L29 0 L526 0 L526 55 Z M526 639 L29 405 L29 350 L526 117 L526 179 L108 378 L526 577 L526 639 Z " />
<glyph glyph-name="greaterequal" unicode="&#x2265;" horiz-adv-x="549" d="M526 55 L29 55 L29 0 L526 0 L526 55 Z M29 639 L29 577 L447 378 L29 179 L29 117 L526 350 L526 405 L29 639 Z " />
<glyph glyph-name="lozenge" unicode="&#x25ca;" horiz-adv-x="494" d="M209 0 L269 -1 L466 374 L277 740 L214 740 L18 377 L209 0 Z M240 58 L81 376 L245 683 L402 373 L240 58 Z " />
<glyph glyph-name="fi" unicode="&#xfb01;" horiz-adv-x="573" d="M191 387 L191 540 C191 622 234 663 320 663 C359 663 389 657 414 644 C397 630 390 616 390 596 C390 566 412 544 442 544 C470 544 491 565 491 593 C491 644 422 682 329 682 C259 682 199 660 158 618 C128 588 114 549 114 495 L114 387 L18 387 L18 369 L114 369 L114 18 L18 18 L18 0 L272 0 L272 18 L191 18 L191 369 L404 369 L404 18 L323 18 L323 0 L554 0 L554 18 L481 18 L481 387 L191 387 Z " />
<glyph glyph-name="fl" unicode="&#xfb02;" horiz-adv-x="573" d="M481 18 L481 680 L404 671 C370 680 355 682 327 682 C194 682 114 612 114 495 L114 387 L18 387 L18 369 L114 369 L114 18 L18 18 L18 0 L272 0 L272 18 L191 18 L191 369 L303 369 L303 387 L191 387 L191 540 C191 623 230 663 309 663 C348 663 379 649 392 627 C402 610 404 595 404 549 L404 18 L323 18 L323 0 L565 0 L565 18 L481 18 Z " />
</font>
</svg>
