<?xml version="1.0" standalone="no"?>
<!DOCTYPE svg PUBLIC "-//W3C//DTD SVG 1.1//EN" "http://www.w3.org/Graphics/SVG/1.1/DTD/svg11.dtd" >
<svg xmlns="http://www.w3.org/2000/svg">
<metadata>
Created by FontPrep 20130207 at Fri May 26 16:11:18 2017
 By Lizzy Knight
Copyright 2016 by URW++ Design &#38; Development GmbH
</metadata>
<defs>
<font id="a9fbf6d4cd7631db1e1d08af5af5b342" horiz-adv-x='1024' >
  <font-face 
    font-family="URWDIN-Regular"
    font-weight="400"
    font-stretch="normal"
    units-per-em="2048"
    panose-1="0 0 5 0 0 0 0 0 0 0"
    ascent="1462"
    descent="-586"
    x-height="1028"
    cap-height="1462"
    bbox="-209 -498 2462 2079"
    underline-thickness="120"
    underline-position="-178"
    unicode-range="U+0020-FB04"
  />
<missing-glyph horiz-adv-x="409" 
 />
    <glyph glyph-name="ff" unicode="ff" horiz-adv-x="1304" 
d="M852 893h-129v135h129v166q0 156 62 214t227 54h92v-133h-57q-98 2 -130 -29t-32 -126v-146h231v-135h-231v-893h-162v893zM225 893h-127v135h127v166q1 156 63 214t226 54h86v-133h-51q-96 5 -129 -27t-33 -128v-146h205v-135h-205v-893h-162v893z" />
    <glyph glyph-name="fi" unicode="fi" horiz-adv-x="1202" 
d="M860 0v1028h162v-1028h-162zM860 1251v217h162v-217h-162zM225 893h-127v135h127v166q1 156 63 214t226 54h94v-133h-59q-96 5 -129 -27t-33 -128v-146h234v-135h-234v-893h-162v893z" />
    <glyph glyph-name="fl" unicode="fl" horiz-adv-x="1277" 
d="M858 1462h162v-1134q0 -111 37 -152t137 -39h53v-137h-59q-194 0 -262 70t-68 272v1120zM225 893h-127v135h127v166q1 156 63 214t226 54h94v-133h-59q-96 5 -129 -27t-33 -128v-146h234v-135h-234v-893h-162v893z" />
    <glyph glyph-name="ffi" unicode="ffi" horiz-adv-x="1826" 
d="M1485 0v1028h162v-1028h-162zM1485 1251v217h162v-217h-162zM850 893h-127v135h127v166q0 156 62 214t227 54h94v-133h-59q-96 4 -130 -27q-33 -32 -32 -128v-146h233v-135h-233v-893h-162v893zM225 893h-127v135h127v166q1 156 63 214t226 54h86v-133h-51
q-96 5 -129 -27t-33 -128v-146h205v-135h-205v-893h-162v893z" />
    <glyph glyph-name="ffl" unicode="ffl" horiz-adv-x="1900" 
d="M1483 1462h162v-1134q1 -111 37 -152t137 -39h53v-137h-60q-194 0 -262 70t-67 272v1120zM850 893h-127v135h127v166q0 156 62 214t227 54h94v-133h-59q-96 4 -130 -27q-33 -32 -32 -128v-146h233v-135h-233v-893h-162v893zM225 893h-127v135h127v166q1 156 63 214
t226 54h86v-133h-51q-96 5 -129 -27t-33 -128v-146h205v-135h-205v-893h-162v893z" />
    <glyph glyph-name=".notdef" horiz-adv-x="409" 
 />
    <glyph glyph-name=".null" horiz-adv-x="0" 
 />
    <glyph glyph-name="nonmarkingreturn" horiz-adv-x="681" 
 />
    <glyph glyph-name="space" unicode=" " horiz-adv-x="409" 
 />
    <glyph glyph-name="exclam" unicode="!" horiz-adv-x="634" 
d="M238 0v205h163v-205h-163zM250 391l-25 1071h185l-25 -1071h-135z" />
    <glyph glyph-name="quotedbl" unicode="&#x22;" horiz-adv-x="839" 
d="M514 922l-10 540h168l-10 -540h-148zM178 922l-12 540h170l-12 -540h-146z" />
    <glyph glyph-name="numbersign" unicode="#" 
d="M428 588h219l31 239h-219zM287 588l30 239h-229l18 113h232l53 381h141l-55 -381h219l56 381h141l-55 -381h233l-18 -113h-234l-31 -239h230l-19 -113h-231l-49 -389h-141l51 389h-219l-52 -389h-141l51 389h-233l18 113h234z" />
    <glyph glyph-name="dollar" unicode="$" 
d="M877 402q0 118 -91 176q-42 28 -76 38t-196 50q-223 51 -323 146q-99 95 -99 255q0 106 47 191q47 84 125 128t213 56v221h162v-225q244 -27 332 -176l-129 -84q-90 127 -303 127q-131 1 -206 -59t-75 -166t76 -166t242 -99t220 -58t107 -55q139 -92 139 -288
q0 -348 -403 -391v-295h-162v290q-153 8 -265 64t-165 147l131 86q98 -158 365 -157q160 0 247 63t87 181z" />
    <glyph glyph-name="percent" unicode="%" horiz-adv-x="1808" 
d="M598 0l459 1462h153l-458 -1462h-154zM1579 322v149q0 229 -168 229t-168 -229v-149q0 -231 168 -232q168 1 168 232zM1104 305v182q0 168 74 245t234 77t233 -77q74 -77 73 -245v-182q0 -168 -74 -246q-74 -77 -233 -77t-233 78t-74 245zM563 991v150q0 231 -167 231
t-167 -231v-150q0 -229 167 -229t167 229zM90 975v182q0 168 74 246t232 78t233 -78q74 -78 73 -246v-182q0 -168 -74 -245t-232 -77t-232 77t-74 245z" />
    <glyph glyph-name="ampersand" unicode="&#x26;" horiz-adv-x="1667" 
d="M633 80q199 0 389 184l-315 418q-133 -74 -183 -111q-150 -104 -149 -256q1 -111 69 -173t189 -62zM997 1172q0 84 -57 140q-56 54 -152 54t-154 -51t-58 -119t33 -129q34 -62 134 -193q135 76 195 145q59 69 59 153zM606 -63q-188 0 -295 100q-106 100 -106 276
q0 207 192 359q66 51 207 131q-118 157 -154 229t-36 148q0 143 101 232t268 89t271 -90t105 -222q0 -132 -73 -227t-244 -206l288 -383q104 139 146 299h162q-70 -240 -211 -414l205 -258h-199l-119 156q-98 -100 -235 -160t-273 -59z" />
    <glyph glyph-name="quotesingle" unicode="'" horiz-adv-x="501" 
d="M178 922l-12 540h170l-12 -540h-146z" />
    <glyph glyph-name="parenleft" unicode="(" horiz-adv-x="888" 
d="M291 708q0 268 73 488q73 221 240 463l121 -76q-98 -170 -152 -295q-113 -262 -113 -590t130 -610q61 -135 135 -260l-121 -76q-168 244 -240 466q-73 222 -73 490z" />
    <glyph glyph-name="parenright" unicode=")" horiz-adv-x="888" 
d="M598 706q0 -268 -73 -490t-240 -464l-121 76q86 147 151 295q113 262 113 590t-129 610q-51 113 -135 260l121 76q169 -242 241 -464t72 -489z" />
    <glyph glyph-name="asterisk" unicode="*" 
d="M553 1057l-186 -307l-138 94l217 291l-337 71l41 154l333 -107l-14 336h168l-14 -336l331 107l43 -154l-338 -71l218 -291l-138 -94z" />
    <glyph glyph-name="plus" unicode="+" 
d="M72 676v135h409v418h146v-418h407v-135h-407v-416h-146v416h-409z" />
    <glyph glyph-name="comma" unicode="," horiz-adv-x="575" 
d="M117 -385l96 588h184l-139 -588h-141z" />
    <glyph glyph-name="hyphen" unicode="-" horiz-adv-x="974" 
d="M199 672v143h575v-143h-575z" />
    <glyph glyph-name="period" unicode="." horiz-adv-x="577" 
d="M205 0v205h170v-205h-170z" />
    <glyph glyph-name="slash" unicode="/" horiz-adv-x="837" 
d="M94 -45l488 1552h163l-487 -1552h-164z" />
    <glyph glyph-name="zero" unicode="0" 
d="M795 532v398q-1 217 -57 312t-186 95t-186 -94t-57 -313v-398q1 -219 57 -313t186 -94t186 95t57 312zM141 516v430q0 276 90 393q109 141 329 141t329 -165q74 -117 74 -369v-430q0 -276 -91 -393q-108 -141 -328 -141t-329 165q-74 117 -74 369z" />
    <glyph glyph-name="one" unicode="1" 
d="M500 0v1282l-252 -111l-53 136l358 155h117v-1462h-170z" />
    <glyph glyph-name="two" unicode="2" 
d="M113 0v113l405 526q221 289 221 485q0 213 -219 213q-197 0 -246 -219l-153 15q16 166 124 257q107 91 287 91q180 -1 278 -95t99 -270q0 -133 -56 -252t-222 -338l-293 -383h582v-143h-807z" />
    <glyph glyph-name="three" unicode="3" 
d="M348 702v138h123q121 0 195 68t74 184q0 114 -61 180t-159 66t-158 -47q-60 -46 -77 -128l-152 15q41 303 387 303q188 1 288 -99t101 -288q0 -121 -43 -194t-147 -128q121 -55 174 -143t53 -230q0 -205 -110 -311t-312 -106q-200 0 -308 80t-124 233l162 20
q37 -190 254 -190q127 0 198 73q70 74 70 206t-82 216t-213 82h-133z" />
    <glyph glyph-name="four" unicode="4" 
d="M698 0v270h-594v107l467 1085h181l-455 -1050h401v448h156v-448h145v-144h-145v-268h-156z" />
    <glyph glyph-name="five" unicode="5" 
d="M285 315q33 -190 257 -190q114 0 180 80q66 79 66 241t-60 243t-190 81t-229 -92l-123 27l70 757h659v-143h-518l-49 -465q102 55 219 55q211 0 314 -141q77 -104 77 -328t-94 -325q-115 -133 -340 -133q-360 0 -401 313z" />
    <glyph glyph-name="six" unicode="6" 
d="M556 770q-122 0 -179 -77t-57 -245t56 -245q58 -78 179 -78t178 78q57 77 57 243t-56 245t-178 79zM600 905q188 0 289 -139q72 -102 72 -336q-1 -234 -103 -342t-313 -106q-211 0 -316 133q-80 98 -79 331q0 119 21 200q22 81 87 204l328 612h190l-327 -594
q57 37 151 37z" />
    <glyph glyph-name="seven" unicode="7" 
d="M170 1319v143h770v-102l-463 -1360h-180l465 1319h-592z" />
    <glyph glyph-name="eight" unicode="8" 
d="M555 696q-135 0 -198 -68q-62 -69 -62 -216t62 -217q63 -70 195 -70t194 70t63 215q0 286 -254 286zM555 1346q-119 0 -173 -62t-54 -194q0 -134 54 -196t170 -62t170 62t54 196q0 256 -221 256zM166 1090q0 198 95 294t292 97q385 0 385 -391q0 -119 -31 -189t-110 -127
q96 -47 139 -132t43 -230q0 -222 -103 -326q-102 -104 -322 -104t-325 104q-104 104 -104 326q0 145 43 230t139 132q-80 57 -110 127q-31 70 -31 189z" />
    <glyph glyph-name="nine" unicode="9" 
d="M555 1337q-240 0 -240 -294t236 -293q235 0 235 294t-231 293zM506 616q-147 0 -242 78q-119 98 -119 336q1 238 99 344t312 106t318 -122q82 -100 82 -309q0 -111 -16 -180t-66 -167l-352 -702h-190l330 641q-80 -25 -156 -25z" />
    <glyph glyph-name="colon" unicode=":" horiz-adv-x="577" 
d="M205 825v205h170v-205h-170zM205 0v205h170v-205h-170z" />
    <glyph glyph-name="semicolon" unicode=";" horiz-adv-x="577" 
d="M219 825v205h170v-205h-170zM117 -385l96 588h184l-139 -588h-141z" />
    <glyph glyph-name="less" unicode="&#x3c;" 
d="M291 750l647 -322v-156l-838 424v105l838 426v-156z" />
    <glyph glyph-name="equal" unicode="=" 
d="M100 844v129h908v-129h-908zM100 516v129h908v-129h-908z" />
    <glyph glyph-name="greater" unicode="&#x3e;" 
d="M815 750l-647 321v156l838 -426v-105l-838 -424v156z" />
    <glyph glyph-name="question" unicode="?" horiz-adv-x="1196" 
d="M508 0v205h164v-205h-164zM520 389v72q-2 119 37 191t141 162q102 89 131 128q57 78 57 172t-73 160q-74 66 -188 65q-152 0 -236 -112q-39 -55 -70 -174l-157 26q82 403 467 404q195 -1 311 -105t117 -266q0 -162 -111 -285q-43 -43 -166 -147q-127 -113 -125 -234v-57
h-135z" />
    <glyph glyph-name="at" unicode="@" horiz-adv-x="1839" 
d="M985 963q-123 0 -203 -134q-84 -135 -84 -301t144 -166q129 0 217 148q86 139 86 283q0 78 -44 124t-116 46zM1217 451q0 -88 94 -89q119 0 199 124t81 305q0 398 -347 529q-138 52 -300 52q-318 0 -506 -206t-188 -558t192 -508t510 -155q266 0 504 108l45 -102
q-250 -125 -549 -125q-410 0 -624 199t-213 593q0 394 225 632q226 238 594 239t578 -189t210 -509q0 -236 -120 -391t-306 -154q-94 0 -137 39t-51 129q-119 -172 -289 -172q-127 0 -195 74t-69 210q0 233 133 406q113 147 278 147t232 -137l29 115h110l-106 -498
q-14 -72 -14 -108z" />
    <glyph glyph-name="A" unicode="A" horiz-adv-x="1228" 
d="M893 461l-277 784l-276 -784h553zM936 319h-641l-111 -319h-184l535 1462h161l535 -1462h-184z" />
    <glyph glyph-name="B" unicode="B" horiz-adv-x="1308" 
d="M770 141q256 -1 256 269t-256 270h-387v-539h387zM739 1321h-356v-500h356q123 0 185 53q74 68 73 197q0 250 -258 250zM213 0v1462h539q203 0 303 -88q113 -106 112 -291q0 -219 -172 -319l19 -12q55 -32 77 -52t42 -55q63 -100 63 -250q0 -213 -129 -317
q-94 -78 -287 -78h-567z" />
    <glyph glyph-name="C" unicode="C" horiz-adv-x="1294" 
d="M668 -18q-279 0 -402 184q-88 131 -88 414v301q0 166 25 267t84 173q127 158 383 158q210 -1 330 -97t128 -272l-155 -12q-14 115 -93 176t-208 61q-172 1 -248 -107t-76 -356v-282q0 -250 75 -358t251 -107q131 0 213 61t98 176l158 -18q-10 -174 -134 -268t-341 -94z
" />
    <glyph glyph-name="D" unicode="D" horiz-adv-x="1388" 
d="M383 141h268q201 -3 295 101t94 331v316q0 227 -94 331t-295 101h-268v-1180zM213 0v1462h467q266 4 402 -138t128 -419v-348q8 -277 -127 -419t-403 -138h-467z" />
    <glyph glyph-name="E" unicode="E" horiz-adv-x="1185" 
d="M213 0v1462h854v-143h-686v-508h586v-143h-586v-525h688v-143h-856z" />
    <glyph glyph-name="F" unicode="F" horiz-adv-x="1118" 
d="M213 0v1462h848v-143h-678v-518h575v-144h-575v-657h-170z" />
    <glyph glyph-name="G" unicode="G" horiz-adv-x="1357" 
d="M729 631v137h473v-229q0 -147 -24 -237t-84 -163q-133 -157 -413 -157t-413 184q-90 129 -90 414v299q0 170 26 270t87 172q131 158 389 158q217 -1 341 -97t134 -272l-158 -12q-16 115 -97 176t-216 61q-180 -1 -258 -109t-78 -356v-282q0 -248 80 -356t266 -108
t273 122q68 90 67 258v127h-305z" />
    <glyph glyph-name="H" unicode="H" horiz-adv-x="1394" 
d="M213 0v1462h170v-651h627v651h170v-1462h-170v668h-627v-668h-170z" />
    <glyph glyph-name="I" unicode="I" horiz-adv-x="595" 
d="M213 0v1462h170v-1462h-170z" />
    <glyph glyph-name="J" unicode="J" horiz-adv-x="952" 
d="M580 1462h170v-891q0 -186 -10 -268t-44 -141q-96 -180 -352 -180q-207 0 -362 141l94 117q115 -115 258 -115q168 0 221 154q25 72 25 288v895z" />
    <glyph glyph-name="K" unicode="K" horiz-adv-x="1265" 
d="M215 0v1462h168v-800l627 800h200l-475 -590l525 -872h-195l-438 754l-244 -303v-451h-168z" />
    <glyph glyph-name="L" unicode="L" horiz-adv-x="1091" 
d="M213 0v1462h170v-1319h688v-143h-858z" />
    <glyph glyph-name="M" unicode="M" horiz-adv-x="1671" 
d="M213 0v1462h164l459 -956l458 956h164v-1462h-164v1128l-403 -829h-109l-405 829v-1128h-164z" />
    <glyph glyph-name="N" unicode="N" horiz-adv-x="1476" 
d="M213 0v1462h164l721 -1171v1171h166v-1462h-164l-721 1171v-1171h-166z" />
    <glyph glyph-name="O" unicode="O" horiz-adv-x="1384" 
d="M348 567q0 -442 344 -442q190 0 279 135q65 104 65 307v328q0 444 -344 442q-190 0 -278 -135q-66 -104 -66 -307v-328zM178 551v360q0 154 28 250t93 168q137 152 405 152t404 -176q98 -131 98 -394v-360q0 -156 -28 -251t-93 -167q-137 -151 -405 -151t-401 176
q-101 129 -101 393z" />
    <glyph glyph-name="P" unicode="P" horiz-adv-x="1243" 
d="M383 711h303q154 -1 226 73t73 232q0 158 -73 232t-226 73h-303v-610zM385 569v-569h-170v1462h471q137 0 221 -26t142 -90q106 -114 106 -340t-125 -338q-106 -98 -344 -99h-301z" />
    <glyph glyph-name="Q" unicode="Q" horiz-adv-x="1384" 
d="M348 567q0 -442 344 -442q146 0 230 76l-220 176l89 100l206 -166q39 94 39 256v328q0 444 -344 442q-190 0 -278 -135q-66 -104 -66 -307v-328zM178 911q0 154 28 250t93 168q137 152 405 152t404 -176q98 -131 98 -394v-360q0 -225 -71 -350l168 -135l-86 -103
l-166 133q-133 -115 -359 -114q-279 0 -413 176q-100 129 -101 393v360z" />
    <glyph glyph-name="R" unicode="R" horiz-adv-x="1323" 
d="M383 772h336q281 0 280 275q-1 141 -73 207t-226 67h-317v-549zM385 631v-631h-170v1462h502q242 0 347 -106t105 -294t-73 -286q-74 -98 -228 -127l322 -649h-189l-301 631h-315z" />
    <glyph glyph-name="S" unicode="S" horiz-adv-x="1185" 
d="M586 125q160 0 248 69q88 68 88 194t-88 187q-41 29 -75 40t-196 53q-225 57 -321 152t-96 272q0 176 118 282q119 106 330 107q301 0 422 -185l-129 -84q-92 127 -299 127q-129 1 -203 -65t-74 -180t75 -176q74 -62 240 -104t218 -61t106 -57q137 -94 137 -298
t-130 -310t-371 -106q-359 0 -494 215l133 86q94 -158 361 -158z" />
    <glyph glyph-name="T" unicode="T" horiz-adv-x="1134" 
d="M485 0v1319h-422v143h1010v-143h-418v-1319h-170z" />
    <glyph glyph-name="U" unicode="U" horiz-adv-x="1413" 
d="M207 1462h170v-925q0 -197 53 -283q86 -129 286 -129t279 149q41 82 41 263v925h170v-925q0 -156 -18 -239t-70 -146q-128 -170 -422 -170t-420 194q-39 61 -54 139t-15 222v925z" />
    <glyph glyph-name="V" unicode="V" horiz-adv-x="1163" 
d="M510 0l-487 1462h172l387 -1214l387 1214h172l-488 -1462h-143z" />
    <glyph glyph-name="W" unicode="W" horiz-adv-x="1794" 
d="M426 0l-369 1462h172l277 -1200l330 1200h120l330 -1200l279 1200h172l-369 -1462h-145l-326 1165l-326 -1165h-145z" />
    <glyph glyph-name="X" unicode="X" horiz-adv-x="1155" 
d="M479 770l-395 692h186l324 -567l309 567h180l-401 -717l428 -745h-186l-357 621l-338 -621h-180z" />
    <glyph glyph-name="Y" unicode="Y" horiz-adv-x="1089" 
d="M461 0v528l-461 934h180l367 -760l364 760h181l-461 -934v-528h-170z" />
    <glyph glyph-name="Z" unicode="Z" horiz-adv-x="1112" 
d="M104 0v121l676 1198h-639v143h830v-121l-676 -1198h709v-143h-900z" />
    <glyph glyph-name="bracketleft" unicode="[" horiz-adv-x="888" 
d="M332 -201v1813h391v-123h-227v-1567h227v-123h-391z" />
    <glyph glyph-name="backslash" unicode="\" horiz-adv-x="837" 
d="M741 -45h-163l-488 1552h164z" />
    <glyph glyph-name="bracketright" unicode="]" horiz-adv-x="888" 
d="M557 1612v-1813h-391v123h225v1567h-225v123h391z" />
    <glyph glyph-name="asciicircum" unicode="^" 
d="M553 1280l-289 -500h-188l430 693h92l430 -693h-188z" />
    <glyph glyph-name="underscore" unicode="_" horiz-adv-x="962" 
d="M-51 -358v120h1065v-120h-1065z" />
    <glyph glyph-name="grave" unicode="`" horiz-adv-x="1024" 
d="M621 1192h-125l-228 291h199z" />
    <glyph glyph-name="a" unicode="a" horiz-adv-x="1075" 
d="M739 481h-231q-136 0 -194 -44t-58 -144t52 -138t201 -38t202 67q29 37 28 138v159zM739 604v72q0 111 -37 164q-54 74 -198 74t-236 -105l-112 86q134 154 374 154t328 -150q43 -78 43 -248v-651h-129l-12 74q-49 -52 -116 -72t-183 -20q-199 0 -280 68t-81 242
q0 173 86 243t306 69h247z" />
    <glyph glyph-name="b" unicode="b" horiz-adv-x="1157" 
d="M850 446v136q0 332 -250 331q-256 0 -256 -315v-168q0 -315 256 -315q250 -1 250 331zM182 0v1462h162v-512q106 98 293 98t281 -110q94 -111 94 -346v-156q0 -238 -94 -348t-297 -108q-154 0 -242 59q-14 8 -60 49l-10 -88h-127z" />
    <glyph glyph-name="c" unicode="c" horiz-adv-x="972" 
d="M145 461v84q1 256 101 380t322 124t325 -168l-125 -72q-45 59 -90 82t-115 22q-256 0 -256 -356v-113q0 -328 260 -327q144 0 224 100l120 -74q-115 -162 -352 -161q-414 0 -414 479z" />
    <glyph glyph-name="d" unicode="d" horiz-adv-x="1157" 
d="M307 582v-136q0 -330 250 -329q256 0 256 313v168q0 315 -256 315q-250 1 -250 -331zM145 592q-1 236 93 346t292 111q135 0 226 -52q35 -27 57 -47v512h162v-1462h-127l-10 88q-5 -5 -11 -8q-18 -18 -28 -27q-77 -71 -271 -71t-288 110t-95 344v156z" />
    <glyph glyph-name="e" unicode="e" horiz-adv-x="1112" 
d="M569 913q-260 0 -260 -292v-17h516v17q0 127 -58 209t-198 83zM309 438q-1 -321 293 -321q146 0 229 100l121 -78q-117 -158 -372 -157q-221 0 -328 118q-106 119 -107 367v88q1 256 101 375t317 119t317 -119t101 -375v-74h-672v-43z" />
    <glyph glyph-name="f" unicode="f" horiz-adv-x="679" 
d="M225 893h-127v135h127v166q1 156 63 214t226 54h94v-133h-59q-96 5 -129 -27t-33 -128v-146h234v-135h-234v-893h-162v893z" />
    <glyph glyph-name="g" unicode="g" horiz-adv-x="1157" 
d="M307 582v-136q0 -330 250 -329q256 0 256 313v168q0 315 -256 315q-250 1 -250 -331zM525 -18q-195 0 -287 110t-93 344v156q1 236 95 346t295 111q201 0 301 -113l12 92h127v-1028q0 -479 -438 -479q-246 0 -359 162l121 73q84 -104 229 -104t213 80t72 252l2 96
q-96 -98 -290 -98z" />
    <glyph glyph-name="h" unicode="h" horiz-adv-x="1157" 
d="M180 0v1462h162v-516q90 102 270 103q270 0 342 -199q31 -88 31 -260v-590h-162v575q0 179 -54 257t-182 78q-129 0 -187 -90q-58 -89 -58 -290v-530h-162z" />
    <glyph glyph-name="i" unicode="i" horiz-adv-x="522" 
d="M180 0v1028h162v-1028h-162zM180 1251v217h162v-217h-162z" />
    <glyph glyph-name="j" unicode="j" horiz-adv-x="534" 
d="M190 1251v217h162v-217h-162zM190 1028h162v-1053q4 -256 -85 -352t-330 -94v137q139 -6 198 63t55 230v1069z" />
    <glyph glyph-name="k" unicode="k" horiz-adv-x="1046" 
d="M180 0v1462h162v-1018l457 584h186l-350 -436l389 -592h-180l-307 471l-195 -242v-229h-162z" />
    <glyph glyph-name="l" unicode="l" horiz-adv-x="598" 
d="M178 1462h162v-1134q0 -111 37 -152t137 -39h53v-137h-59q-194 0 -262 70t-68 272v1120z" />
    <glyph glyph-name="m" unicode="m" horiz-adv-x="1722" 
d="M180 0v1028h125l12 -115q86 135 271 136q219 0 295 -168q88 168 307 168q262 0 330 -199q29 -84 28 -260v-590h-162v575q0 133 -24 207q-48 127 -180 127t-185 -89t-53 -290v-530h-162v575q0 179 -49 257t-168 78t-171 -90q-52 -89 -52 -298v-522h-162z" />
    <glyph glyph-name="n" unicode="n" horiz-adv-x="1157" 
d="M180 0v1028h125l12 -115q88 135 291 136q276 0 346 -199q31 -88 31 -260v-590h-162v575q0 179 -54 257t-183 78q-128 0 -186 -90q-58 -89 -58 -298v-522h-162z" />
    <glyph glyph-name="o" unicode="o" horiz-adv-x="1140" 
d="M307 444q0 -327 262 -327q135 -1 200 79t65 248v140q0 168 -65 249t-199 81t-198 -82q-64 -80 -65 -248v-140zM145 434v160q1 231 103 343t321 112t323 -110t103 -345v-160q0 -233 -103 -343q-102 -109 -322 -109t-322 110t-103 342z" />
    <glyph glyph-name="p" unicode="p" horiz-adv-x="1157" 
d="M850 446v136q0 332 -250 331q-256 0 -256 -315v-168q0 -313 256 -313q250 -1 250 329zM1012 436q0 -456 -374 -454q-186 0 -294 94v-537h-162v1489h127l17 -86q100 106 299 106t293 -110q94 -111 94 -346v-156z" />
    <glyph glyph-name="q" unicode="q" horiz-adv-x="1157" 
d="M307 582v-136q0 -330 250 -329q256 0 256 313v168q0 315 -256 315q-250 1 -250 -331zM521 -18q-187 0 -281 110t-95 344v156q1 236 95 346t292 111q198 0 299 -107l17 86h127v-1489h-162l2 537q-106 -94 -294 -94z" />
    <glyph glyph-name="r" unicode="r" horiz-adv-x="768" 
d="M180 0v1028h127l17 -96q82 117 245 117q102 0 199 -54l-68 -139q-74 49 -145 49q-113 0 -163 -95t-50 -308v-502h-162z" />
    <glyph glyph-name="s" unicode="s" horiz-adv-x="968" 
d="M715 289q0 92 -70 127q-47 24 -215 48t-231 79q-82 71 -82 209t88 218t252 79q256 0 372 -164l-122 -76q-47 57 -101 81t-137 23q-197 0 -197 -161q0 -80 64 -119q43 -23 208 -47t234 -74q92 -68 92 -227q0 -303 -409 -303q-291 -1 -402 159l119 76q52 -55 114 -78
t163 -22q260 0 260 172z" />
    <glyph glyph-name="t" unicode="t" horiz-adv-x="684" 
d="M215 893h-125v135h125l8 330h154v-330h203v-135h-203v-567q0 -109 37 -150t137 -39h35v-137h-37q-201 0 -267 68t-67 274v551z" />
    <glyph glyph-name="u" unicode="u" horiz-adv-x="1136" 
d="M172 1028h162v-573q0 -135 26 -207q48 -127 186 -127t193 89t56 296v522h161v-1028h-125l-12 115q-86 -133 -282 -133q-266 0 -334 198q-31 86 -31 258v590z" />
    <glyph glyph-name="v" unicode="v" horiz-adv-x="999" 
d="M426 0l-373 1028h166l281 -815l280 815h166l-373 -1028h-147z" />
    <glyph glyph-name="w" unicode="w" horiz-adv-x="1579" 
d="M395 0l-317 1028h166l225 -807l264 807h113l264 -807l227 807h166l-317 -1028h-133l-262 774l-265 -774h-131z" />
    <glyph glyph-name="x" unicode="x" horiz-adv-x="950" 
d="M383 526l-309 502h184l231 -377l230 377h178l-328 -508l322 -520h-184l-242 393l-240 -393h-178z" />
    <glyph glyph-name="y" unicode="y" horiz-adv-x="999" 
d="M123 -334q115 0 160 33t90 151l51 152l-379 1026h164l301 -844l268 844h164l-403 -1194q-72 -197 -145 -250t-271 -55v137z" />
    <glyph glyph-name="z" unicode="z" horiz-adv-x="972" 
d="M92 0v104l522 789h-481v135h684v-104l-522 -789h555v-135h-758z" />
    <glyph glyph-name="braceleft" unicode="{" horiz-adv-x="888" 
d="M733 -84v-117h-74q-201 0 -267 80t-60 318v231q4 164 -27 214t-143 54h-17v103h17q114 4 144 53t26 213v149q-6 238 60 318q67 80 267 80h74v-117h-41q-125 -2 -162 -63q-36 -62 -34 -263v-104q4 -162 -21 -222t-113 -95q86 -36 112 -98t22 -220v-188q-2 -201 34 -262
t162 -64h41z" />
    <glyph glyph-name="bar" unicode="|" 
d="M481 -201v1813h146v-1813h-146z" />
    <glyph glyph-name="braceright" unicode="}" horiz-adv-x="888" 
d="M158 1495v117h73q201 0 267 -80t59 -318v-149q-4 -164 27 -213t145 -53h16v-103h-16q-113 -4 -145 -54t-27 -214v-231q7 -238 -59 -318t-267 -80h-73v117h41q123 2 159 64t35 262v188q-4 158 22 219t111 99q-88 35 -112 95t-21 222v104q2 201 -35 263t-159 63h-41z" />
    <glyph glyph-name="asciitilde" unicode="~" 
d="M356 891q60 1 106 -17t140 -82t152 -65q100 0 157 145l105 -30q-44 -128 -106 -186t-162 -58q-56 0 -100 17t-117 67t-105 66q-32 14 -70 14q-104 0 -159 -152l-107 25q42 139 104 197t162 59z" />
    <glyph glyph-name="uni00A0" unicode="&#xa0;" horiz-adv-x="409" 
 />
    <glyph glyph-name="exclamdown" unicode="&#xa1;" horiz-adv-x="634" 
d="M397 1028v-205h-164v205h164zM385 637l25 -1071h-185l25 1071h135z" />
    <glyph glyph-name="cent" unicode="&#xa2;" 
d="M342 756q0 -330 272 -330q138 0 213 100l121 -69q-88 -127 -266 -154v-237h-162v235q-166 14 -254 137t-84 334v86q-6 453 338 496v223h162v-227q166 -29 246 -156l-123 -70q-76 104 -206 104t-193 -87q-63 -88 -64 -271v-114z" />
    <glyph glyph-name="sterling" unicode="&#xa3;" 
d="M125 0v123q102 37 169 135t66 213q0 66 -28 154h-211v143h145q-63 119 -83 177q-19 58 -19 132q0 188 108 296q109 108 297 108q189 0 295 -88t152 -281l-144 -39q-27 104 -67 162q-82 106 -210 106q-128 1 -195 -67t-66 -182q0 -66 24 -134t95 -190h350v-143h-303
q23 -84 22 -144q0 -199 -160 -338h676v-143h-913z" />
    <glyph glyph-name="currency" unicode="&#xa4;" 
d="M553 987q-125 0 -204 -83t-79 -218t79 -220t204 -85t203 85t78 218t-78 218t-203 85zM129 685q0 140 88 261l-176 182l86 78l172 -178q119 82 253 82t253 -82l172 178l86 -78l-176 -182q88 -123 88 -262t-88 -260l176 -182l-86 -80l-172 178q-117 -82 -253 -82t-253 82
l-172 -178l-86 80l176 182q-88 121 -88 261z" />
    <glyph glyph-name="yen" unicode="&#xa5;" 
d="M471 0v309h-315v119h315v104h-315v119h266l-399 811h180l354 -739l350 739h183l-400 -811h264v-119h-313v-104h313v-119h-313v-309h-170z" />
    <glyph glyph-name="brokenbar" unicode="&#xa6;" horiz-adv-x="1024" 
d="M432 0v514h158v-514h-158zM432 928v534h158v-534h-158z" />
    <glyph glyph-name="section" unicode="&#xa7;" 
d="M295 656q0 -80 46 -121t204 -93l112 -36l52 30q88 52 88 146t-41 139q-43 45 -209 100l-113 37q-86 -49 -112 -86q-26 -36 -27 -116zM731 95q0 119 -106 167q-41 18 -154 51q-193 55 -263 122t-71 203q0 136 99 218q18 16 79 55q-65 43 -93 97t-27 139q0 156 94 245
q95 89 247 89t255 -60q20 -12 90 -71l-111 -90q-84 82 -192 82t-162 -48q-56 -47 -56 -123q0 -77 40 -119t228 -100t258 -125q70 -66 68 -178q0 -111 -39 -173t-139 -124q66 -43 92 -94t27 -135q0 -158 -99 -247t-276 -89q-119 0 -202 34t-175 120l111 90q106 -104 252 -105
q102 0 164 47q61 47 61 122z" />
    <glyph glyph-name="dieresis" unicode="&#xa8;" horiz-adv-x="1024" 
d="M635 1208v213h147v-213h-147zM240 1208v213h147v-213h-147z" />
    <glyph glyph-name="copyright" unicode="&#xa9;" horiz-adv-x="1683" 
d="M838 1374q-280 0 -465 -194q-168 -184 -168 -456t180 -454q179 -182 455 -182t456 182t180 458t-178 462q-180 184 -460 184zM74 732q0 329 218 543t551 214t549 -217t216 -543t-218 -541t-549 -215t-549 215t-218 544zM852 371q-168 0 -246 92q-53 68 -53 213v110
q0 160 68 226q78 80 231 80q270 0 285 -195l-121 -6q-16 100 -160 100q-90 0 -131 -46t-41 -148v-131q0 -102 41 -148t131 -47q148 0 166 102l123 -12q-12 -190 -293 -190z" />
    <glyph glyph-name="ordfeminine" unicode="&#xaa;" horiz-adv-x="696" 
d="M469 1100h-133q-88 0 -123 -22t-35 -75t32 -73t113 -20t113 21q32 22 33 73v96zM465 1194v51q0 127 -133 127q-88 0 -160 -61l-78 65q90 98 250 98t219 -90q29 -51 29 -153v-414h-105l-6 41q-59 -51 -188 -51t-182 42q-53 41 -53 149t60 152q62 44 216 44h131z" />
    <glyph glyph-name="guillemotleft" unicode="&#xab;" horiz-adv-x="880" 
d="M256 604l180 -254l-96 -71l-266 325l266 326l96 -72zM625 604l182 -254l-98 -71l-265 325l265 326l98 -72z" />
    <glyph glyph-name="logicalnot" unicode="&#xac;" 
d="M94 676v135h852v-575h-158v440h-694z" />
    <glyph glyph-name="uni00AD" unicode="&#xad;" horiz-adv-x="974" 
d="M199 672v143h575v-143h-575z" />
    <glyph glyph-name="registered" unicode="&#xae;" horiz-adv-x="1366" 
d="M1147 1186q0 203 -128 336t-336 133t-337 -133t-129 -336t127 -336t338 -133t338 133t127 336zM96 1187q0 251 167 413t420 163q253 0 419 -166q166 -167 166 -413t-167 -411t-419 -165t-419 164t-167 415zM573 1204h142q117 0 116 90q0 90 -124 90h-134v-180zM715 1466
q229 0 229 -155q0 -77 -30 -113t-97 -55l146 -238h-125l-131 228h-132v-228h-112v561h252z" />
    <glyph glyph-name="macron" unicode="&#xaf;" horiz-adv-x="1024" 
d="M250 1268v118h526v-118h-526z" />
    <glyph glyph-name="degree" unicode="&#xb0;" horiz-adv-x="821" 
d="M411 1405q-101 0 -157 -58q-56 -57 -57 -165q0 -108 57 -168q58 -60 158 -60t156 60t56 164q0 106 -56 166t-157 61zM413 1524q161 0 254 -94t93 -251t-94 -250t-255 -93t-255 92t-94 252t94 252q96 92 257 92z" />
    <glyph glyph-name="plusminus" unicode="&#xb1;" 
d="M72 0v135h962v-135h-962zM72 698v136h409v407h146v-407h407v-136h-407v-405h-146v405h-409z" />
    <glyph glyph-name="twosuperior" unicode="&#xb2;" horiz-adv-x="700" 
d="M86 791v86l258 307q131 154 131 256q0 61 -35 96t-96 35q-121 0 -149 -129l-125 14q18 104 63 152q76 72 215 71q262 0 262 -243q0 -82 -35 -152t-135 -186l-166 -199h334v-108h-522z" />
    <glyph glyph-name="threesuperior" unicode="&#xb3;" horiz-adv-x="700" 
d="M215 1202v96h90q66 0 112 41t46 99t-38 95q-38 36 -99 36q-113 0 -142 -103l-121 15q17 102 79 149t188 47q268 0 268 -235q0 -72 -26 -115t-85 -76q135 -66 136 -219q0 -252 -297 -252q-168 0 -242 80q-31 33 -47 117l127 22q27 -111 158 -110q78 0 122 40q44 41 43 111
q0 70 -49 116t-127 46h-96z" />
    <glyph glyph-name="acute" unicode="&#xb4;" horiz-adv-x="1024" 
d="M410 1192l153 291h199l-230 -291h-122z" />
    <glyph glyph-name="mu" unicode="&#xb5;" 
d="M164 1028h160v-579q0 -170 53 -249t176 -79t177 88t54 297v522h160v-1028h-113l-22 139q-74 -158 -272 -157q-131 0 -213 88v-531h-160v1489z" />
    <glyph glyph-name="paragraph" unicode="&#xb6;" horiz-adv-x="1222" 
d="M477 -279v977h-57q-94 0 -141 10q-146 30 -216 172q-45 92 -45 206t47 206q46 92 128 131q53 27 104 33t233 6h482v-1741h-156v1604h-225v-1604h-154z" />
    <glyph glyph-name="periodcentered" unicode="&#xb7;" horiz-adv-x="575" 
d="M205 643v203h170v-203h-170z" />
    <glyph glyph-name="cedilla" unicode="&#xb8;" horiz-adv-x="1024" 
d="M379 -455l106 314h170l-161 -314h-115z" />
    <glyph glyph-name="onesuperior" unicode="&#xb9;" horiz-adv-x="483" 
d="M199 791v743l-158 -61l-37 100l236 94h94v-876h-135z" />
    <glyph glyph-name="ordmasculine" unicode="&#xba;" horiz-adv-x="731" 
d="M522 1087v105q0 180 -156 180t-155 -180v-105q-1 -180 155 -180t156 180zM84 1081v115q0 145 68 212t215 67t215 -67t67 -212v-115q1 -143 -67 -210t-215 -67t-215 68q-68 66 -68 209z" />
    <glyph glyph-name="guillemotright" unicode="&#xbb;" horiz-adv-x="880" 
d="M623 604l-181 254l97 72l266 -326l-266 -325l-97 71zM254 604l-182 254l98 72l264 -326l-264 -325l-98 71z" />
    <glyph glyph-name="onequarter" unicode="&#xbc;" horiz-adv-x="1761" 
d="M1376 0v164h-383v80l301 633h144l-289 -607h227v191h121v-191h92v-108h-92v-162h-121zM485 0l459 1462h154l-459 -1462h-154zM309 586v743l-157 -61l-37 100l235 94h94v-876h-135z" />
    <glyph glyph-name="onehalf" unicode="&#xbd;" horiz-adv-x="1761" 
d="M1059 0v86l258 307q131 154 131 256q0 61 -35 96t-96 35q-121 0 -150 -129l-125 15q20 119 86 171t193 52q262 0 262 -244q0 -81 -35 -151t-133 -187l-168 -198h334v-109h-522zM463 0l459 1462h153l-459 -1462h-153zM305 586v743l-158 -61l-36 100l235 94h94v-876h-135z
" />
    <glyph glyph-name="threequarters" unicode="&#xbe;" horiz-adv-x="1761" 
d="M580 0l460 1462h154l-459 -1462h-155zM1432 0v164h-381v80l299 633h143l-289 -607h228v191h122v-191h93v-108h-93v-162h-122zM231 997v97h91q66 0 112 41t45 99q0 58 -38 94t-99 36q-113 0 -141 -102l-121 14q16 102 78 149t188 48q268 0 268 -236q0 -72 -26 -115
t-84 -75q135 -66 135 -220q0 -252 -297 -252q-168 0 -242 80q-31 33 -47 117l127 23q27 -111 158 -111q78 0 122 40t44 111t-49 117t-127 45h-97z" />
    <glyph glyph-name="questiondown" unicode="&#xbf;" horiz-adv-x="1196" 
d="M702 1028v-205h-163v205h163zM690 639v-72q2 -121 -37 -193t-142 -160q-103 -87 -130 -128q-57 -78 -57 -172t74 -160t188 -65q152 0 233 112q41 53 72 174l158 -26q-82 -403 -469 -404q-193 1 -310 105q-116 104 -116 268t110 283q29 31 161 145t130 236v57h135z" />
    <glyph glyph-name="Agrave" unicode="&#xc0;" horiz-adv-x="1228" 
d="M713 1616h-125l-228 291h199zM893 461l-277 784l-276 -784h553zM936 319h-641l-111 -319h-184l535 1462h161l535 -1462h-184z" />
    <glyph glyph-name="Aacute" unicode="&#xc1;" horiz-adv-x="1228" 
d="M524 1616l154 291h199l-230 -291h-123zM893 461l-277 784l-276 -784h553zM936 319h-641l-111 -319h-184l535 1462h161l535 -1462h-184z" />
    <glyph glyph-name="Acircumflex" unicode="&#xc2;" horiz-adv-x="1228" 
d="M614 1790l-139 -164h-172l260 272h105l260 -272h-172zM893 461l-277 784l-276 -784h553zM936 319h-641l-111 -319h-184l535 1462h161l535 -1462h-184z" />
    <glyph glyph-name="Atilde" unicode="&#xc3;" horiz-adv-x="1228" 
d="M479 1880q86 0 160 -66t109 -65q55 0 83 115h105q-25 -102 -47 -150q-47 -84 -135 -84t-164 70q-70 61 -107 61q-59 1 -88 -114h-104q27 106 51 145q51 88 137 88zM893 461l-277 784l-276 -784h553zM936 319h-641l-111 -319h-184l535 1462h161l535 -1462h-184z" />
    <glyph glyph-name="Adieresis" unicode="&#xc4;" horiz-adv-x="1228" 
d="M739 1632v213h148v-213h-148zM340 1632v213h147v-213h-147zM893 461l-277 784l-276 -784h553zM936 319h-641l-111 -319h-184l535 1462h161l535 -1462h-184z" />
    <glyph glyph-name="Aring" unicode="&#xc5;" horiz-adv-x="1228" 
d="M716 1808q0 122 -102 121q-102 0 -102 -122t102 -121q102 0 102 122zM616 2015q98 0 156 -56q58 -57 57 -151q0 -94 -59 -151q-60 -57 -156 -57t-155 56q-59 58 -59 153t58 151q60 56 158 55zM893 461l-277 784l-276 -784h553zM936 319h-641l-111 -319h-184l535 1462h161
l535 -1462h-184z" />
    <glyph glyph-name="AE" unicode="&#xc6;" horiz-adv-x="1945" 
d="M975 479v840h-23l-542 -840h565zM975 338h-647l-215 -338h-197l961 1462h952v-143h-686v-508h583v-143h-583v-525h686v-143h-854v338z" />
    <glyph glyph-name="Ccedilla" unicode="&#xc7;" horiz-adv-x="1294" 
d="M483 -455l107 314h170l-162 -314h-115zM668 -18q-279 0 -402 184q-88 131 -88 414v301q0 166 25 267t84 173q127 158 383 158q210 -1 330 -97t128 -272l-155 -12q-14 115 -93 176t-208 61q-172 1 -248 -107t-76 -356v-282q0 -250 75 -358t251 -107q131 0 213 61t98 176
l158 -18q-10 -174 -134 -268t-341 -94z" />
    <glyph glyph-name="Egrave" unicode="&#xc8;" horiz-adv-x="1185" 
d="M762 1616h-125l-227 291h198zM213 0v1462h854v-143h-686v-508h586v-143h-586v-525h688v-143h-856z" />
    <glyph glyph-name="Eacute" unicode="&#xc9;" horiz-adv-x="1185" 
d="M553 1616l154 291h198l-229 -291h-123zM213 0v1462h854v-143h-686v-508h586v-143h-586v-525h688v-143h-856z" />
    <glyph glyph-name="Ecircumflex" unicode="&#xca;" horiz-adv-x="1185" 
d="M645 1790l-139 -164h-172l260 272h104l260 -272h-172zM213 0v1462h854v-143h-686v-508h586v-143h-586v-525h688v-143h-856z" />
    <glyph glyph-name="Edieresis" unicode="&#xcb;" horiz-adv-x="1185" 
d="M774 1632v213h148v-213h-148zM375 1632v213h147v-213h-147zM213 0v1462h854v-143h-686v-508h586v-143h-586v-525h688v-143h-856z" />
    <glyph glyph-name="Igrave" unicode="&#xcc;" horiz-adv-x="595" 
d="M399 1616h-125l-227 291h199zM215 0v1462h170v-1462h-170z" />
    <glyph glyph-name="Iacute" unicode="&#xcd;" horiz-adv-x="595" 
d="M195 1616l153 291h199l-230 -291h-122zM205 0v1462h170v-1462h-170z" />
    <glyph glyph-name="Icircumflex" unicode="&#xce;" horiz-adv-x="595" 
d="M297 1790l-139 -164h-172l260 272h104l260 -272h-172zM213 0v1462h170v-1462h-170z" />
    <glyph glyph-name="Idieresis" unicode="&#xcf;" horiz-adv-x="595" 
d="M424 1632v213h147v-213h-147zM25 1632v213h147v-213h-147zM213 0v1462h170v-1462h-170z" />
    <glyph glyph-name="Eth" unicode="&#xd0;" horiz-adv-x="1388" 
d="M383 811h348v-141h-348v-529h268q199 -3 293 101t94 331v316q0 227 -94 331t-293 101h-268v-510zM213 811v651h465q266 4 402 -138t128 -417v-350q8 -277 -127 -419t-403 -138h-465v670h-172v141h172z" />
    <glyph glyph-name="Ntilde" unicode="&#xd1;" horiz-adv-x="1476" 
d="M612 1880q86 0 160 -66t109 -65q55 0 84 115h104q-25 -102 -47 -150q-47 -84 -135 -84t-161 66t-110 65q-59 1 -88 -114h-104q27 106 51 145q51 88 137 88zM213 0v1462h164l721 -1171v1171h166v-1462h-164l-721 1171v-1171h-166z" />
    <glyph glyph-name="Ograve" unicode="&#xd2;" horiz-adv-x="1384" 
d="M801 1616h-125l-227 291h198zM348 567q0 -442 344 -442q190 0 279 135q65 104 65 307v328q0 444 -344 442q-190 0 -278 -135q-66 -104 -66 -307v-328zM178 551v360q0 154 28 250t93 168q137 152 405 152t404 -176q98 -131 98 -394v-360q0 -156 -28 -251t-93 -167
q-137 -151 -405 -151t-401 176q-101 129 -101 393z" />
    <glyph glyph-name="Oacute" unicode="&#xd3;" horiz-adv-x="1384" 
d="M590 1616l153 291h199l-229 -291h-123zM348 567q0 -442 344 -442q190 0 279 135q65 104 65 307v328q0 444 -344 442q-190 0 -278 -135q-66 -104 -66 -307v-328zM178 551v360q0 154 28 250t93 168q137 152 405 152t404 -176q98 -131 98 -394v-360q0 -156 -28 -251
t-93 -167q-137 -151 -405 -151t-401 176q-101 129 -101 393z" />
    <glyph glyph-name="Ocircumflex" unicode="&#xd4;" horiz-adv-x="1384" 
d="M692 1790l-139 -164h-172l260 272h104l261 -272h-172zM348 567q0 -442 344 -442q190 0 279 135q65 104 65 307v328q0 444 -344 442q-190 0 -278 -135q-66 -104 -66 -307v-328zM178 551v360q0 154 28 250t93 168q137 152 405 152t404 -176q98 -131 98 -394v-360
q0 -156 -28 -251t-93 -167q-137 -151 -405 -151t-401 176q-101 129 -101 393z" />
    <glyph glyph-name="Otilde" unicode="&#xd5;" horiz-adv-x="1384" 
d="M557 1880q86 0 160 -66t108 -65q55 0 84 115h105q-25 -102 -47 -150q-47 -84 -135 -84t-164 70q-70 61 -107 61q-59 1 -88 -114h-104q27 106 51 145q51 88 137 88zM348 567q0 -442 344 -442q190 0 279 135q65 104 65 307v328q0 444 -344 442q-190 0 -278 -135
q-66 -104 -66 -307v-328zM178 551v360q0 154 28 250t93 168q137 152 405 152t404 -176q98 -131 98 -394v-360q0 -156 -28 -251t-93 -167q-137 -151 -405 -151t-401 176q-101 129 -101 393z" />
    <glyph glyph-name="Odieresis" unicode="&#xd6;" horiz-adv-x="1384" 
d="M817 1632v213h148v-213h-148zM418 1632v213h147v-213h-147zM348 567q0 -442 344 -442q190 0 279 135q65 104 65 307v328q0 444 -344 442q-190 0 -278 -135q-66 -104 -66 -307v-328zM178 551v360q0 154 28 250t93 168q137 152 405 152t404 -176q98 -131 98 -394v-360
q0 -156 -28 -251t-93 -167q-137 -151 -405 -151t-401 176q-101 129 -101 393z" />
    <glyph glyph-name="multiply" unicode="&#xd7;" 
d="M461 743l-326 326l94 94l324 -325l326 325l92 -94l-324 -326l324 -323l-92 -94l-326 323l-324 -323l-94 94z" />
    <glyph glyph-name="Oslash" unicode="&#xd8;" horiz-adv-x="1382" 
d="M679 1337q-179 0 -267 -135q-66 -104 -66 -307v-328q1 -135 21 -205l579 873q-88 102 -267 102zM704 125q176 0 265 135q66 104 65 307v328q0 133 -18 199l-578 -871q90 -98 266 -98zM1204 911v-360q0 -156 -28 -251t-93 -167q-133 -152 -399 -151q-215 0 -338 104
l-84 -127l-110 80l100 151q-76 129 -76 361v360q0 154 28 250t93 168q137 152 375 152t366 -107l82 123l111 -80l-101 -149q74 -129 74 -357z" />
    <glyph glyph-name="Ugrave" unicode="&#xd9;" horiz-adv-x="1413" 
d="M836 1616h-125l-228 291h199zM207 1462h170v-925q0 -197 53 -283q86 -129 286 -129t279 149q41 82 41 263v925h170v-925q0 -156 -18 -239t-70 -146q-128 -170 -422 -170t-420 194q-39 61 -54 139t-15 222v925z" />
    <glyph glyph-name="Uacute" unicode="&#xda;" horiz-adv-x="1413" 
d="M618 1616l154 291h199l-230 -291h-123zM207 1462h170v-925q0 -197 53 -283q86 -129 286 -129t279 149q41 82 41 263v925h170v-925q0 -156 -18 -239t-70 -146q-128 -170 -422 -170t-420 194q-39 61 -54 139t-15 222v925z" />
    <glyph glyph-name="Ucircumflex" unicode="&#xdb;" horiz-adv-x="1413" 
d="M705 1790l-140 -164h-172l260 272h105l260 -272h-172zM207 1462h170v-925q0 -197 53 -283q86 -129 286 -129t279 149q41 82 41 263v925h170v-925q0 -156 -18 -239t-70 -146q-128 -170 -422 -170t-420 194q-39 61 -54 139t-15 222v925z" />
    <glyph glyph-name="Udieresis" unicode="&#xdc;" horiz-adv-x="1413" 
d="M831 1632v213h148v-213h-148zM432 1632v213h148v-213h-148zM207 1462h170v-925q0 -197 53 -283q86 -129 286 -129t279 149q41 82 41 263v925h170v-925q0 -156 -18 -239t-70 -146q-128 -170 -422 -170t-420 194q-39 61 -54 139t-15 222v925z" />
    <glyph glyph-name="Yacute" unicode="&#xdd;" horiz-adv-x="1089" 
d="M465 1616l153 291h199l-229 -291h-123zM461 0v528l-461 934h180l367 -760l364 760h181l-461 -934v-528h-170z" />
    <glyph glyph-name="Thorn" unicode="&#xde;" horiz-adv-x="1243" 
d="M385 473h301q154 0 226 75q72 74 73 232q0 158 -73 232t-226 73h-301v-612zM385 332v-332h-170v1462h170v-235h301q137 0 221 -27t142 -90q106 -112 106 -340t-125 -340q-106 -98 -344 -98h-301z" />
    <glyph glyph-name="germandbls" unicode="&#xdf;" horiz-adv-x="1165" 
d="M180 0v1098q0 196 94 288t286 92t290 -81q100 -82 100 -240q0 -80 -20 -129t-82 -115q94 -41 136 -136t40 -267v-76q2 -238 -82 -337t-287 -97h-98v135h82q131 -1 177 59t46 230v94q0 184 -45 248t-170 59h-39v123h35q154 0 154 191q0 209 -228 209q-119 0 -173 -58
t-54 -190v-1100h-162z" />
    <glyph glyph-name="agrave" unicode="&#xe0;" horiz-adv-x="1075" 
d="M668 1192h-125l-228 291h199zM739 481h-231q-136 0 -194 -44t-58 -144t52 -138t201 -38t202 67q29 37 28 138v159zM739 604v72q0 111 -37 164q-54 74 -198 74t-236 -105l-112 86q134 154 374 154t328 -150q43 -78 43 -248v-651h-129l-12 74q-49 -52 -116 -72t-183 -20
q-199 0 -280 68t-81 242q0 173 86 243t306 69h247z" />
    <glyph glyph-name="aacute" unicode="&#xe1;" horiz-adv-x="1075" 
d="M451 1192l153 291h199l-230 -291h-122zM739 481h-231q-136 0 -194 -44t-58 -144t52 -138t201 -38t202 67q29 37 28 138v159zM739 604v72q0 111 -37 164q-54 74 -198 74t-236 -105l-112 86q134 154 374 154t328 -150q43 -78 43 -248v-651h-129l-12 74q-49 -52 -116 -72
t-183 -20q-199 0 -280 68t-81 242q0 173 86 243t306 69h247z" />
    <glyph glyph-name="acircumflex" unicode="&#xe2;" horiz-adv-x="1075" 
d="M537 1366l-140 -166h-172l260 275h105l260 -275h-172zM739 481h-231q-136 0 -194 -44t-58 -144t52 -138t201 -38t202 67q29 37 28 138v159zM739 604v72q0 111 -37 164q-54 74 -198 74t-236 -105l-112 86q134 154 374 154t328 -150q43 -78 43 -248v-651h-129l-12 74
q-49 -52 -116 -72t-183 -20q-199 0 -280 68t-81 242q0 173 86 243t306 69h247z" />
    <glyph glyph-name="atilde" unicode="&#xe3;" horiz-adv-x="1075" 
d="M404 1456q86 0 160 -66t108 -65q55 0 84 115h104q-25 -106 -47 -150q-47 -86 -135 -86t-161 66t-107 65q-62 1 -91 -114h-104q27 106 51 147q52 88 138 88zM739 481h-231q-136 0 -194 -44t-58 -144t52 -138t201 -38t202 67q29 37 28 138v159zM739 604v72q0 111 -37 164
q-54 74 -198 74t-236 -105l-112 86q134 154 374 154t328 -150q43 -78 43 -248v-651h-129l-12 74q-49 -52 -116 -72t-183 -20q-199 0 -280 68t-81 242q0 173 86 243t306 69h247z" />
    <glyph glyph-name="adieresis" unicode="&#xe4;" horiz-adv-x="1075" 
d="M662 1208v213h147v-213h-147zM266 1208v213h148v-213h-148zM739 481h-231q-136 0 -194 -44t-58 -144t52 -138t201 -38t202 67q29 37 28 138v159zM739 604v72q0 111 -37 164q-54 74 -198 74t-236 -105l-112 86q134 154 374 154t328 -150q43 -78 43 -248v-651h-129l-12 74
q-49 -52 -116 -72t-183 -20q-199 0 -280 68t-81 242q0 173 86 243t306 69h247z" />
    <glyph glyph-name="aring" unicode="&#xe5;" horiz-adv-x="1075" 
d="M647 1382q0 122 -102 123q-103 0 -103 -123t103 -122q102 0 102 122zM545 1591q98 0 156 -57q59 -56 59 -150t-60 -152t-155 -58q-96 0 -156 58q-59 58 -59 152t58 151q59 56 157 56zM739 481h-231q-136 0 -194 -44t-58 -144t52 -138t201 -38t202 67q29 37 28 138v159z
M739 604v72q0 111 -37 164q-54 74 -198 74t-236 -105l-112 86q134 154 374 154t328 -150q43 -78 43 -248v-651h-129l-12 74q-49 -52 -116 -72t-183 -20q-199 0 -280 68t-81 242q0 173 86 243t306 69h247z" />
    <glyph glyph-name="ae" unicode="&#xe6;" horiz-adv-x="1708" 
d="M905 604h518v17q0 127 -58 209t-208 83q-150 0 -207 -104q-45 -78 -45 -188v-17zM739 481h-231q-136 0 -194 -44t-58 -143t53 -138t197 -39t196 76q37 53 37 178v110zM905 438q-1 -321 295 -321q148 0 227 100l123 -78q-116 -157 -366 -157t-359 161q-57 -92 -135 -127
q-78 -34 -253 -34t-256 68t-81 242q0 173 86 243t306 69h247v72q0 111 -37 164q-54 74 -198 74t-236 -105l-112 86q129 154 360 154t324 -138q102 137 320 137t318 -119q100 -120 101 -374v-74h-674v-43z" />
    <glyph glyph-name="ccedilla" unicode="&#xe7;" horiz-adv-x="972" 
d="M344 -455l107 314h170l-162 -314h-115zM145 461v84q1 256 101 380t322 124t325 -168l-125 -72q-45 59 -90 82t-115 22q-256 0 -256 -356v-113q0 -328 260 -327q144 0 224 100l120 -74q-115 -162 -352 -161q-414 0 -414 479z" />
    <glyph glyph-name="egrave" unicode="&#xe8;" horiz-adv-x="1112" 
d="M680 1192h-125l-227 291h198zM569 913q-260 0 -260 -292v-17h516v17q0 127 -58 209t-198 83zM309 438q-1 -321 293 -321q146 0 229 100l121 -78q-117 -158 -372 -157q-221 0 -328 118q-106 119 -107 367v88q1 256 101 375t317 119t317 -119t101 -375v-74h-672v-43z" />
    <glyph glyph-name="eacute" unicode="&#xe9;" horiz-adv-x="1112" 
d="M471 1192l154 291h198l-229 -291h-123zM569 913q-260 0 -260 -292v-17h516v17q0 127 -58 209t-198 83zM309 438q-1 -321 293 -321q146 0 229 100l121 -78q-117 -158 -372 -157q-221 0 -328 118q-106 119 -107 367v88q1 256 101 375t317 119t317 -119t101 -375v-74h-672
v-43z" />
    <glyph glyph-name="ecircumflex" unicode="&#xea;" horiz-adv-x="1112" 
d="M571 1366l-139 -166h-172l260 275h105l260 -275h-172zM569 913q-260 0 -260 -292v-17h516v17q0 127 -58 209t-198 83zM309 438q-1 -321 293 -321q146 0 229 100l121 -78q-117 -158 -372 -157q-221 0 -328 118q-106 119 -107 367v88q1 256 101 375t317 119t317 -119
t101 -375v-74h-672v-43z" />
    <glyph glyph-name="edieresis" unicode="&#xeb;" horiz-adv-x="1112" 
d="M696 1208v213h148v-213h-148zM301 1208v213h148v-213h-148zM569 913q-260 0 -260 -292v-17h516v17q0 127 -58 209t-198 83zM309 438q-1 -321 293 -321q146 0 229 100l121 -78q-117 -158 -372 -157q-221 0 -328 118q-106 119 -107 367v88q1 256 101 375t317 119t317 -119
t101 -375v-74h-672v-43z" />
    <glyph glyph-name="igrave" unicode="&#xec;" horiz-adv-x="522" 
d="M356 1192h-125l-227 291h199zM180 0v1028h162v-1028h-162z" />
    <glyph glyph-name="iacute" unicode="&#xed;" horiz-adv-x="522" 
d="M160 1192l153 291h199l-229 -291h-123zM172 0v1028h162v-1028h-162z" />
    <glyph glyph-name="icircumflex" unicode="&#xee;" horiz-adv-x="522" 
d="M260 1366l-139 -166h-172l260 275h104l260 -275h-172zM180 0v1028h162v-1028h-162z" />
    <glyph glyph-name="idieresis" unicode="&#xef;" horiz-adv-x="522" 
d="M383 1208v213h147v-213h-147zM-12 1208v213h147v-213h-147zM178 0v1028h162v-1028h-162z" />
    <glyph glyph-name="eth" unicode="&#xf0;" horiz-adv-x="1140" 
d="M307 444q0 -327 262 -327q135 -1 200 79t65 248v125q0 168 -65 248t-199 80t-198 -80t-65 -248v-125zM145 434v144q0 455 400 454q133 0 213 -63q-57 150 -107 205l-235 -113l-64 104l201 97q-113 82 -252 100l23 111q209 -23 366 -148l172 82l64 -104l-144 -68
q96 -121 154 -300t59 -357v-144q0 -233 -103 -343q-102 -109 -322 -109t-322 110t-103 342z" />
    <glyph glyph-name="ntilde" unicode="&#xf1;" horiz-adv-x="1157" 
d="M444 1456q86 0 160 -66t109 -65q55 0 84 115h104q-25 -106 -47 -150q-47 -86 -135 -86t-161 66t-107 65q-62 1 -91 -114h-104q27 106 51 147q51 88 137 88zM180 0v1028h125l12 -115q88 135 291 136q276 0 346 -199q31 -88 31 -260v-590h-162v575q0 179 -54 257t-183 78
q-128 0 -186 -90q-58 -89 -58 -298v-522h-162z" />
    <glyph glyph-name="ograve" unicode="&#xf2;" horiz-adv-x="1140" 
d="M678 1192h-125l-227 291h198zM307 444q0 -327 262 -327q135 -1 200 79t65 248v140q0 168 -65 249t-199 81t-198 -82q-64 -80 -65 -248v-140zM145 434v160q1 231 103 343t321 112t323 -110t103 -345v-160q0 -233 -103 -343q-102 -109 -322 -109t-322 110t-103 342z" />
    <glyph glyph-name="oacute" unicode="&#xf3;" horiz-adv-x="1140" 
d="M467 1192l154 291h198l-229 -291h-123zM307 444q0 -327 262 -327q135 -1 200 79t65 248v140q0 168 -65 249t-199 81t-198 -82q-64 -80 -65 -248v-140zM145 434v160q1 231 103 343t321 112t323 -110t103 -345v-160q0 -233 -103 -343q-102 -109 -322 -109t-322 110
t-103 342z" />
    <glyph glyph-name="ocircumflex" unicode="&#xf4;" horiz-adv-x="1140" 
d="M569 1366l-139 -166h-172l260 275h105l260 -275h-172zM307 444q0 -327 262 -327q135 -1 200 79t65 248v140q0 168 -65 249t-199 81t-198 -82q-64 -80 -65 -248v-140zM145 434v160q1 231 103 343t321 112t323 -110t103 -345v-160q0 -233 -103 -343q-102 -109 -322 -109
t-322 110t-103 342z" />
    <glyph glyph-name="otilde" unicode="&#xf5;" horiz-adv-x="1140" 
d="M436 1456q86 0 160 -66t109 -65q55 0 83 115h105q-25 -106 -47 -150q-48 -86 -136 -86t-163 70q-70 61 -105 61q-61 1 -90 -114h-104q27 106 51 147q51 88 137 88zM307 444q0 -327 262 -327q135 -1 200 79t65 248v140q0 168 -65 249t-199 81t-198 -82q-64 -80 -65 -248
v-140zM145 434v160q1 231 103 343t321 112t323 -110t103 -345v-160q0 -233 -103 -343q-102 -109 -322 -109t-322 110t-103 342z" />
    <glyph glyph-name="odieresis" unicode="&#xf6;" horiz-adv-x="1140" 
d="M692 1208v213h148v-213h-148zM297 1208v213h147v-213h-147zM307 444q0 -327 262 -327q135 -1 200 79t65 248v140q0 168 -65 249t-199 81t-198 -82q-64 -80 -65 -248v-140zM145 434v160q1 231 103 343t321 112t323 -110t103 -345v-160q0 -233 -103 -343
q-102 -109 -322 -109t-322 110t-103 342z" />
    <glyph glyph-name="divide" unicode="&#xf7;" 
d="M479 981v184h150v-184h-150zM479 322v184h150v-184h-150zM72 676v135h962v-135h-962z" />
    <glyph glyph-name="oslash" unicode="&#xf8;" horiz-adv-x="1140" 
d="M573 913q-264 0 -264 -329v-138q1 -100 21 -161l411 573q-63 55 -168 55zM569 117q264 0 265 329v138q-1 85 -21 161l-414 -573q61 -55 170 -55zM995 436q0 -233 -103 -344t-323 -110q-166 0 -260 63l-67 -94l-99 76l76 104q-74 109 -72 305v158q-1 233 103 344t321 111
q162 0 260 -64l68 94l98 -75l-75 -107q74 -102 73 -303v-158z" />
    <glyph glyph-name="ugrave" unicode="&#xf9;" horiz-adv-x="1136" 
d="M676 1192h-125l-227 291h198zM172 1028h162v-573q0 -135 26 -207q48 -127 186 -127t193 89t56 296v522h161v-1028h-125l-12 115q-86 -133 -282 -133q-266 0 -334 198q-31 86 -31 258v590z" />
    <glyph glyph-name="uacute" unicode="&#xfa;" horiz-adv-x="1136" 
d="M465 1192l153 291h199l-229 -291h-123zM172 1028h162v-573q0 -135 26 -207q48 -127 186 -127t193 89t56 296v522h161v-1028h-125l-12 115q-86 -133 -282 -133q-266 0 -334 198q-31 86 -31 258v590z" />
    <glyph glyph-name="ucircumflex" unicode="&#xfb;" horiz-adv-x="1136" 
d="M567 1366l-139 -166h-172l260 275h105l260 -275h-172zM172 1028h162v-573q0 -135 26 -207q48 -127 186 -127t193 89t56 296v522h161v-1028h-125l-12 115q-86 -133 -282 -133q-266 0 -334 198q-31 86 -31 258v590z" />
    <glyph glyph-name="udieresis" unicode="&#xfc;" horiz-adv-x="1136" 
d="M692 1208v213h148v-213h-148zM297 1208v213h147v-213h-147zM172 1028h162v-573q0 -135 26 -207q48 -127 186 -127t193 89t56 296v522h161v-1028h-125l-12 115q-86 -133 -282 -133q-266 0 -334 198q-31 86 -31 258v590z" />
    <glyph glyph-name="yacute" unicode="&#xfd;" horiz-adv-x="999" 
d="M418 1192l153 291h199l-229 -291h-123zM123 -334q115 0 160 33t90 151l51 152l-379 1026h164l301 -844l268 844h164l-403 -1194q-72 -197 -145 -250t-271 -55v137z" />
    <glyph glyph-name="thorn" unicode="&#xfe;" horiz-adv-x="1157" 
d="M850 446v136q0 332 -250 331q-256 0 -256 -315v-168q0 -313 256 -313q250 -1 250 329zM1012 436q0 -456 -375 -454q-187 0 -293 94v-537h-162v1923h162v-501q102 88 292 88t283 -112t93 -345v-156z" />
    <glyph glyph-name="ydieresis" unicode="&#xff;" horiz-adv-x="999" 
d="M623 1208v213h147v-213h-147zM227 1208v213h148v-213h-148zM123 -334q115 0 160 33t90 151l51 152l-379 1026h164l301 -844l268 844h164l-403 -1194q-72 -197 -145 -250t-271 -55v137z" />
    <glyph glyph-name="Amacron" unicode="&#x100;" horiz-adv-x="1228" 
d="M352 1694v118h527v-118h-527zM893 461l-277 784l-276 -784h553zM936 319h-641l-111 -319h-184l535 1462h161l535 -1462h-184z" />
    <glyph glyph-name="amacron" unicode="&#x101;" horiz-adv-x="1075" 
d="M274 1268v118h527v-118h-527zM739 481h-231q-136 0 -194 -44t-58 -144t52 -138t201 -38t202 67q29 37 28 138v159zM739 604v72q0 111 -37 164q-54 74 -198 74t-236 -105l-112 86q134 154 374 154t328 -150q43 -78 43 -248v-651h-129l-12 74q-49 -52 -116 -72t-183 -20
q-199 0 -280 68t-81 242q0 173 86 243t306 69h247z" />
    <glyph glyph-name="Abreve" unicode="&#x102;" horiz-adv-x="1228" 
d="M330 1890h110q10 -88 49 -123t126 -35t125 36q38 34 48 122h113q-8 -121 -37 -174q-61 -108 -255 -108t-253 125q-20 48 -26 157zM893 461l-277 784l-276 -784h553zM936 319h-641l-111 -319h-184l535 1462h161l535 -1462h-184z" />
    <glyph glyph-name="abreve" unicode="&#x103;" horiz-adv-x="1075" 
d="M256 1464h111q10 -88 49 -123t126 -35t125 36q38 34 48 122h112q-8 -121 -36 -174q-61 -108 -255 -108t-253 127q-21 44 -27 155zM739 481h-231q-136 0 -194 -44t-58 -144t52 -138t201 -38t202 67q29 37 28 138v159zM739 604v72q0 111 -37 164q-54 74 -198 74t-236 -105
l-112 86q134 154 374 154t328 -150q43 -78 43 -248v-651h-129l-12 74q-49 -52 -116 -72t-183 -20q-199 0 -280 68t-81 242q0 173 86 243t306 69h247z" />
    <glyph glyph-name="Aogonek" unicode="&#x104;" horiz-adv-x="1228" 
d="M893 461l-277 784l-276 -784h553zM1032 -215q0 -84 105 -84q53 0 120 20l17 -94q-80 -29 -164 -28q-225 0 -225 161q0 72 55 137t147 103h-40l-111 319h-641l-111 -319h-184l535 1462h161l535 -1462q-199 -113 -199 -215z" />
    <glyph glyph-name="aogonek" unicode="&#x105;" horiz-adv-x="1075" 
d="M739 481h-231q-136 0 -194 -44t-58 -144t52 -138t201 -38t202 67q29 37 28 138v159zM901 651v-651q-197 -113 -196 -215q0 -84 104 -84q51 0 119 20l16 -94q-84 -29 -164 -28q-223 0 -223 161q0 150 213 246l-10 68q-49 -52 -116 -72t-183 -20q-199 0 -280 68t-81 242
q0 173 86 243t306 69h247v72q0 111 -37 164q-54 74 -198 74t-236 -105l-112 86q134 154 374 154t328 -150q43 -78 43 -248z" />
    <glyph glyph-name="Cacute" unicode="&#x106;" horiz-adv-x="1294" 
d="M567 1616l154 291h199l-230 -291h-123zM668 -18q-279 0 -402 184q-88 131 -88 414v301q0 166 25 267t84 173q127 158 383 158q210 -1 330 -97t128 -272l-155 -12q-14 115 -93 176t-208 61q-172 1 -248 -107t-76 -356v-282q0 -250 75 -358t251 -107q131 0 213 61t98 176
l158 -18q-10 -174 -134 -268t-341 -94z" />
    <glyph glyph-name="cacute" unicode="&#x107;" horiz-adv-x="972" 
d="M451 1192l153 291h199l-230 -291h-122zM145 461v84q1 256 101 380t322 124t325 -168l-125 -72q-45 59 -90 82t-115 22q-256 0 -256 -356v-113q0 -328 260 -327q144 0 224 100l120 -74q-115 -162 -352 -161q-414 0 -414 479z" />
    <glyph glyph-name="Ccircumflex" unicode="&#x108;" horiz-adv-x="1294" 
d="M668 1790l-140 -164h-172l260 272h105l260 -272h-172zM668 -18q-279 0 -402 184q-88 131 -88 414v301q0 166 25 267t84 173q127 158 383 158q210 -1 330 -97t128 -272l-155 -12q-14 115 -93 176t-208 61q-172 1 -248 -107t-76 -356v-282q0 -250 75 -358t251 -107
q131 0 213 61t98 176l158 -18q-10 -174 -134 -268t-341 -94z" />
    <glyph glyph-name="ccircumflex" unicode="&#x109;" horiz-adv-x="972" 
d="M545 1366l-139 -166h-173l261 275h104l260 -275h-172zM145 461v84q1 256 101 380t322 124t325 -168l-125 -72q-45 59 -90 82t-115 22q-256 0 -256 -356v-113q0 -328 260 -327q144 0 224 100l120 -74q-115 -162 -352 -161q-414 0 -414 479z" />
    <glyph glyph-name="Cdotaccent" unicode="&#x10a;" horiz-adv-x="1294" 
d="M592 1632v213h160v-213h-160zM668 -18q-279 0 -402 184q-88 131 -88 414v301q0 166 25 267t84 173q127 158 383 158q210 -1 330 -97t128 -272l-155 -12q-14 115 -93 176t-208 61q-172 1 -248 -107t-76 -356v-282q0 -250 75 -358t251 -107q131 0 213 61t98 176l158 -18
q-10 -174 -134 -268t-341 -94z" />
    <glyph glyph-name="cdotaccent" unicode="&#x10b;" horiz-adv-x="972" 
d="M469 1208v213h160v-213h-160zM145 461v84q1 256 101 380t322 124t325 -168l-125 -72q-45 59 -90 82t-115 22q-256 0 -256 -356v-113q0 -328 260 -327q144 0 224 100l120 -74q-115 -162 -352 -161q-414 0 -414 479z" />
    <glyph glyph-name="Ccaron" unicode="&#x10c;" horiz-adv-x="1294" 
d="M670 1731l139 165h172l-260 -274h-105l-260 274h172zM668 -18q-279 0 -402 184q-88 131 -88 414v301q0 166 25 267t84 173q127 158 383 158q210 -1 330 -97t128 -272l-155 -12q-14 115 -93 176t-208 61q-172 1 -248 -107t-76 -356v-282q0 -250 75 -358t251 -107
q131 0 213 61t98 176l158 -18q-10 -174 -134 -268t-341 -94z" />
    <glyph glyph-name="ccaron" unicode="&#x10d;" horiz-adv-x="972" 
d="M559 1307l139 163h172l-260 -272h-104l-260 272h172zM145 461v84q1 256 101 380t322 124t325 -168l-125 -72q-45 59 -90 82t-115 22q-256 0 -256 -356v-113q0 -328 260 -327q144 0 224 100l120 -74q-115 -162 -352 -161q-414 0 -414 479z" />
    <glyph glyph-name="Dcaron" unicode="&#x10e;" horiz-adv-x="1388" 
d="M635 1731l139 165h172l-260 -274h-104l-260 274h172zM383 141h268q201 -3 295 101t94 331v316q0 227 -94 331t-295 101h-268v-1180zM213 0v1462h467q266 4 402 -138t128 -419v-348q8 -277 -127 -419t-403 -138h-467z" />
    <glyph glyph-name="dcaron" unicode="&#x10f;" horiz-adv-x="1312" 
d="M1139 1008l53 471h168l-107 -471h-114zM307 582v-136q0 -330 250 -329q256 0 256 313v168q0 315 -256 315q-250 1 -250 -331zM145 592q-1 236 93 346t292 111q135 0 226 -52q35 -27 57 -47v512h162v-1462h-127l-10 88q-5 -5 -11 -8q-18 -18 -28 -27q-77 -71 -271 -71
t-288 110t-95 344v156z" />
    <glyph glyph-name="Dcroat" unicode="&#x110;" horiz-adv-x="1388" 
d="M383 811h348v-141h-348v-529h268q199 -3 293 101t94 331v316q0 227 -94 331t-293 101h-268v-510zM213 811v651h465q266 4 402 -138t128 -417v-350q8 -277 -127 -419t-403 -138h-465v670h-172v141h172z" />
    <glyph glyph-name="dcroat" unicode="&#x111;" horiz-adv-x="1157" 
d="M307 582v-136q0 -330 250 -329q256 0 256 313v168q0 315 -256 315q-250 1 -250 -331zM813 1171h-309v115h309v176h162v-176h168v-115h-168v-1171h-127l-10 88q-5 -5 -11 -8q-18 -18 -28 -27q-77 -71 -271 -71t-288 110t-95 344v156q-1 236 93 346t292 111q100 -1 158 -21
t125 -78v221z" />
    <glyph glyph-name="Emacron" unicode="&#x112;" horiz-adv-x="1185" 
d="M373 1694v118h526v-118h-526zM213 0v1462h854v-143h-686v-508h586v-143h-586v-525h688v-143h-856z" />
    <glyph glyph-name="emacron" unicode="&#x113;" horiz-adv-x="1112" 
d="M307 1268v118h527v-118h-527zM569 913q-260 0 -260 -292v-17h516v17q0 127 -58 209t-198 83zM309 438q-1 -321 293 -321q146 0 229 100l121 -78q-117 -158 -372 -157q-221 0 -328 118q-106 119 -107 367v88q1 256 101 375t317 119t317 -119t101 -375v-74h-672v-43z" />
    <glyph glyph-name="Ebreve" unicode="&#x114;" horiz-adv-x="1185" 
d="M354 1890h111q10 -88 49 -123t126 -35t125 36q38 34 48 122h113q-8 -121 -37 -174q-61 -108 -255 -108t-253 125q-21 48 -27 157zM213 0v1462h854v-143h-686v-508h586v-143h-586v-525h688v-143h-856z" />
    <glyph glyph-name="ebreve" unicode="&#x115;" horiz-adv-x="1112" 
d="M279 1464h110q10 -88 49 -123t126 -35t125 36q38 34 48 122h113q-8 -121 -37 -174q-61 -108 -255 -108t-253 127q-20 44 -26 155zM569 913q-260 0 -260 -292v-17h516v17q0 127 -58 209t-198 83zM309 438q-1 -321 293 -321q146 0 229 100l121 -78q-117 -158 -372 -157
q-221 0 -328 118q-106 119 -107 367v88q1 256 101 375t317 119t317 -119t101 -375v-74h-672v-43z" />
    <glyph glyph-name="Edotaccent" unicode="&#x116;" horiz-adv-x="1185" 
d="M569 1632v213h160v-213h-160zM213 0v1462h854v-143h-686v-508h586v-143h-586v-525h688v-143h-856z" />
    <glyph glyph-name="edotaccent" unicode="&#x117;" horiz-adv-x="1112" 
d="M492 1208v213h159v-213h-159zM569 913q-260 0 -260 -292v-17h516v17q0 127 -58 209t-198 83zM309 438q-1 -321 293 -321q146 0 229 100l121 -78q-117 -158 -372 -157q-221 0 -328 118q-106 119 -107 367v88q1 256 101 375t317 119t317 -119t101 -375v-74h-672v-43z" />
    <glyph glyph-name="Eogonek" unicode="&#x118;" horiz-adv-x="1185" 
d="M213 0v1462h854v-143h-686v-508h586v-143h-586v-525h688v-143q-197 -111 -197 -215q0 -84 105 -84q51 0 119 20l16 -94q-88 -29 -164 -28q-225 0 -225 161q0 145 201 240h-711z" />
    <glyph glyph-name="eogonek" unicode="&#x119;" horiz-adv-x="1112" 
d="M571 911q-260 0 -260 -290v-17h516v17q0 127 -55 202q-61 88 -201 88zM311 438q1 -321 295 -321q146 0 228 100l120 -74q-61 -92 -168 -131l-20 -12q-92 -57 -132 -106t-40 -107q0 -86 104 -86q51 0 119 20l19 -94q-86 -29 -164 -28q-225 0 -226 163q0 125 142 220
q-442 -6 -441 485v88q1 252 103 373t317 121t315 -119t101 -375v-74h-672v-43z" />
    <glyph glyph-name="Ecaron" unicode="&#x11a;" horiz-adv-x="1185" 
d="M651 1731l140 165h172l-261 -274h-104l-260 274h172zM213 0v1462h854v-143h-686v-508h586v-143h-586v-525h688v-143h-856z" />
    <glyph glyph-name="ecaron" unicode="&#x11b;" horiz-adv-x="1112" 
d="M573 1307l140 163h172l-260 -272h-105l-260 272h172zM569 913q-260 0 -260 -292v-17h516v17q0 127 -58 209t-198 83zM309 438q-1 -321 293 -321q146 0 229 100l121 -78q-117 -158 -372 -157q-221 0 -328 118q-106 119 -107 367v88q1 256 101 375t317 119t317 -119
t101 -375v-74h-672v-43z" />
    <glyph glyph-name="Gcircumflex" unicode="&#x11c;" horiz-adv-x="1357" 
d="M678 1790l-139 -164h-172l260 272h104l260 -272h-172zM729 631v137h473v-229q0 -147 -24 -237t-84 -163q-133 -157 -413 -157t-413 184q-90 129 -90 414v299q0 170 26 270t87 172q131 158 389 158q217 -1 341 -97t134 -272l-158 -12q-16 115 -97 176t-216 61
q-180 -1 -258 -109t-78 -356v-282q0 -248 80 -356t266 -108t273 122q68 90 67 258v127h-305z" />
    <glyph glyph-name="gcircumflex" unicode="&#x11d;" horiz-adv-x="1157" 
d="M586 1366l-140 -166h-172l261 275h104l260 -275h-172zM307 582v-136q0 -330 250 -329q256 0 256 313v168q0 315 -256 315q-250 1 -250 -331zM525 -18q-195 0 -287 110t-93 344v156q1 236 95 346t295 111q201 0 301 -113l12 92h127v-1028q0 -479 -438 -479
q-246 0 -359 162l121 73q84 -104 229 -104t213 80t72 252l2 96q-96 -98 -290 -98z" />
    <glyph glyph-name="Gbreve" unicode="&#x11e;" horiz-adv-x="1357" 
d="M397 1890h111q10 -88 49 -123t126 -35t125 36q38 34 48 122h113q-8 -121 -37 -174q-61 -108 -255 -108t-253 125q-21 48 -27 157zM729 631v137h473v-229q0 -147 -24 -237t-84 -163q-133 -157 -413 -157t-413 184q-90 129 -90 414v299q0 170 26 270t87 172
q131 158 389 158q217 -1 341 -97t134 -272l-158 -12q-16 115 -97 176t-216 61q-180 -1 -258 -109t-78 -356v-282q0 -248 80 -356t266 -108t273 122q68 90 67 258v127h-305z" />
    <glyph glyph-name="gbreve" unicode="&#x11f;" horiz-adv-x="1157" 
d="M317 1464h111q10 -88 49 -123t126 -35t125 36q38 34 48 122h113q-8 -121 -37 -174q-61 -108 -255 -108t-253 127q-21 44 -27 155zM307 582v-136q0 -330 250 -329q256 0 256 313v168q0 315 -256 315q-250 1 -250 -331zM525 -18q-195 0 -287 110t-93 344v156q1 236 95 346
t295 111q201 0 301 -113l12 92h127v-1028q0 -479 -438 -479q-246 0 -359 162l121 73q84 -104 229 -104t213 80t72 252l2 96q-96 -98 -290 -98z" />
    <glyph glyph-name="Gdotaccent" unicode="&#x120;" horiz-adv-x="1357" 
d="M602 1632v213h160v-213h-160zM729 631v137h473v-229q0 -147 -24 -237t-84 -163q-133 -157 -413 -157t-413 184q-90 129 -90 414v299q0 170 26 270t87 172q131 158 389 158q217 -1 341 -97t134 -272l-158 -12q-16 115 -97 176t-216 61q-180 -1 -258 -109t-78 -356v-282
q0 -248 80 -356t266 -108t273 122q68 90 67 258v127h-305z" />
    <glyph glyph-name="gdotaccent" unicode="&#x121;" horiz-adv-x="1157" 
d="M526 1208v213h160v-213h-160zM307 582v-136q0 -330 250 -329q256 0 256 313v168q0 315 -256 315q-250 1 -250 -331zM525 -18q-195 0 -287 110t-93 344v156q1 236 95 346t295 111q201 0 301 -113l12 92h127v-1028q0 -479 -438 -479q-246 0 -359 162l121 73
q84 -104 229 -104t213 80t72 252l2 96q-96 -98 -290 -98z" />
    <glyph glyph-name="Gcommaaccent" unicode="&#x122;" horiz-adv-x="1357" 
d="M522 -455l107 314h170l-162 -314h-115zM729 631v137h473v-229q0 -147 -24 -237t-84 -163q-133 -157 -413 -157t-413 184q-90 129 -90 414v299q0 170 26 270t87 172q131 158 389 158q217 -1 341 -97t134 -272l-158 -12q-16 115 -97 176t-216 61q-180 -1 -258 -109
t-78 -356v-282q0 -248 80 -356t266 -108t273 122q68 90 67 258v127h-305z" />
    <glyph glyph-name="gcommaaccent" unicode="&#x123;" horiz-adv-x="1157" 
d="M483 1192l228 291h125l-154 -291h-199zM307 582v-136q0 -330 250 -329q256 0 256 313v168q0 315 -256 315q-250 1 -250 -331zM525 -18q-195 0 -287 110t-93 344v156q1 236 95 346t295 111q201 0 301 -113l12 92h127v-1028q0 -479 -438 -479q-246 0 -359 162l121 73
q84 -104 229 -104t213 80t72 252l2 96q-96 -98 -290 -98z" />
    <glyph glyph-name="Hcircumflex" unicode="&#x124;" horiz-adv-x="1394" 
d="M696 1790l-139 -164h-172l260 272h105l260 -272h-172zM213 0v1462h170v-651h627v651h170v-1462h-170v668h-627v-668h-170z" />
    <glyph glyph-name="hcircumflex" unicode="&#x125;" horiz-adv-x="1157" 
d="M332 1790l-139 -164h-173l261 272h104l260 -272h-172zM180 0v1462h162v-516q90 102 270 103q270 0 342 -199q31 -88 31 -260v-590h-162v575q0 179 -54 257t-182 78q-129 0 -187 -90q-58 -89 -58 -290v-530h-162z" />
    <glyph glyph-name="Hbar" unicode="&#x126;" horiz-adv-x="1394" 
d="M383 811h629v207h-629v-207zM213 0v1018h-133v125h133v319h170v-319h629v319h170v-319h133v-125h-133v-1018h-170v668h-629v-668h-170z" />
    <glyph glyph-name="hbar" unicode="&#x127;" horiz-adv-x="1157" 
d="M180 1171h-166v115h166v176h162v-176h311v-115h-311v-225q90 102 270 103q272 0 344 -199q31 -88 31 -260v-590h-162v575q0 137 -28 207q-49 127 -207 127q-132 0 -190 -88t-58 -291v-530h-162v1171z" />
    <glyph glyph-name="Itilde" unicode="&#x128;" horiz-adv-x="595" 
d="M164 1880q86 0 160 -66t108 -65q55 0 84 115h105q-25 -102 -48 -150q-47 -84 -135 -84t-161 66t-109 65q-59 1 -88 -114h-105q27 106 52 145q51 88 137 88zM213 0v1462h170v-1462h-170z" />
    <glyph glyph-name="itilde" unicode="&#x129;" horiz-adv-x="522" 
d="M127 1456q86 0 160 -66t108 -65q55 0 84 115h105q-25 -106 -47 -150q-45 -86 -135 -86t-164 70q-70 61 -105 61q-61 1 -90 -114h-104q27 106 51 147q51 88 137 88zM180 0v1028h162v-1028h-162z" />
    <glyph glyph-name="Imacron" unicode="&#x12a;" horiz-adv-x="595" 
d="M35 1694v118h526v-118h-526zM213 0v1462h170v-1462h-170z" />
    <glyph glyph-name="imacron" unicode="&#x12b;" horiz-adv-x="522" 
d="M-2 1268v118h526v-118h-526zM180 0v1028h162v-1028h-162z" />
    <glyph glyph-name="Ibreve" unicode="&#x12c;" horiz-adv-x="595" 
d="M12 1890h111q10 -88 49 -123t126 -35t125 36q38 34 48 122h113q-8 -121 -37 -174q-61 -108 -255 -108t-253 125q-21 48 -27 157zM213 0v1462h170v-1462h-170z" />
    <glyph glyph-name="ibreve" unicode="&#x12d;" horiz-adv-x="522" 
d="M-25 1464h111q10 -88 49 -123t126 -35t125 36q38 34 48 122h113q-8 -121 -37 -174q-61 -108 -255 -108t-253 127q-21 44 -27 155zM180 0v1028h162v-1028h-162z" />
    <glyph glyph-name="Iogonek" unicode="&#x12e;" horiz-adv-x="595" 
d="M383 1462v-1462q-164 -98 -164 -207q0 -92 96 -92q53 0 121 20l17 -94q-84 -29 -166 -28q-215 0 -215 170q0 143 176 231h-35v1462h170z" />
    <glyph glyph-name="iogonek" unicode="&#x12f;" horiz-adv-x="522" 
d="M178 1251v217h162v-217h-162zM340 1028v-1028q-160 -104 -160 -202t96 -97q51 0 115 20l17 -94q-80 -29 -160 -28q-215 0 -215 165q0 135 164 236h-19v1028h162z" />
    <glyph glyph-name="Idotaccent" unicode="&#x130;" horiz-adv-x="595" 
d="M215 1632v213h160v-213h-160zM211 0v1462h170v-1462h-170z" />
    <glyph glyph-name="dotlessi" unicode="&#x131;" horiz-adv-x="522" 
d="M180 0v1028h162v-1028h-162z" />
    <glyph glyph-name="IJ" unicode="&#x132;" horiz-adv-x="1191" 
d="M811 1462h170v-1370q0 -186 -10 -268t-43 -141q-96 -180 -348 -181q-94 0 -193 33l55 133q66 -23 121 -22q170 0 223 153q25 72 25 289v1374zM213 0v1462h170v-1462h-170z" />
    <glyph glyph-name="ij" unicode="&#x133;" horiz-adv-x="1056" 
d="M715 1251v217h162v-217h-162zM715 1028h162v-1053q4 -256 -85 -352t-331 -94v137q139 -6 198 63t56 230v1069zM180 0v1028h162v-1028h-162zM180 1251v217h162v-217h-162z" />
    <glyph glyph-name="Jcircumflex" unicode="&#x134;" horiz-adv-x="952" 
d="M635 1790l-139 -164h-172l260 272h104l260 -272h-172zM580 1462h170v-891q0 -186 -10 -268t-44 -141q-96 -180 -352 -180q-207 0 -362 141l94 117q115 -115 258 -115q168 0 221 154q25 72 25 288v895z" />
    <glyph glyph-name="jcircumflex" unicode="&#x135;" horiz-adv-x="534" 
d="M260 1366l-139 -166h-172l260 275h104l260 -275h-172zM184 1028h162v-1053q4 -256 -85 -352t-331 -94v137q139 -6 199 63q59 69 55 230v1069z" />
    <glyph glyph-name="Kcommaaccent" unicode="&#x136;" horiz-adv-x="1265" 
d="M510 -455l106 314h170l-161 -314h-115zM215 0v1462h168v-800l627 800h200l-475 -590l525 -872h-195l-438 754l-244 -303v-451h-168z" />
    <glyph glyph-name="kcommaaccent" unicode="&#x137;" horiz-adv-x="1046" 
d="M389 -455l107 314h170l-162 -314h-115zM180 0v1462h162v-1018l457 584h186l-350 -436l389 -592h-180l-307 471l-195 -242v-229h-162z" />
    <glyph glyph-name="kgreenlandic" unicode="&#x138;" horiz-adv-x="1046" 
d="M180 0v1028h162v-584l457 584h186l-350 -434l389 -594h-180l-307 473l-195 -244v-229h-162z" />
    <glyph glyph-name="Lacute" unicode="&#x139;" horiz-adv-x="1091" 
d="M254 1616l154 291h198l-229 -291h-123zM213 0v1462h170v-1319h688v-143h-858z" />
    <glyph glyph-name="lacute" unicode="&#x13a;" horiz-adv-x="598" 
d="M197 1616l153 291h199l-230 -291h-122zM178 1462h162v-1134q0 -111 37 -152t137 -39h53v-137h-59q-194 0 -262 70t-68 272v1120z" />
    <glyph glyph-name="Lcommaaccent" unicode="&#x13b;" horiz-adv-x="1091" 
d="M453 -455l106 314h170l-162 -314h-114zM213 0v1462h170v-1319h688v-143h-858z" />
    <glyph glyph-name="lcommaaccent" unicode="&#x13c;" horiz-adv-x="598" 
d="M162 -455l106 314h170l-162 -314h-114zM174 1462h162v-1134q-2 -109 36 -151t138 -40h53v-137h-59q-194 0 -262 70t-68 272v1120z" />
    <glyph glyph-name="Lcaron" unicode="&#x13d;" horiz-adv-x="1091" 
d="M586 1008l53 471h168l-107 -471h-114zM213 0v1462h170v-1319h688v-143h-858z" />
    <glyph glyph-name="lcaron" unicode="&#x13e;" horiz-adv-x="704" 
d="M518 1008l53 471h168l-106 -471h-115zM178 1462h162v-1134q0 -111 37 -152t137 -39h53v-137h-59q-194 0 -262 70t-68 272v1120z" />
    <glyph glyph-name="Ldot" unicode="&#x13f;" horiz-adv-x="1091" 
d="M752 643v203h149v-203h-149zM213 0v1462h170v-1319h688v-143h-858z" />
    <glyph glyph-name="ldot" unicode="&#x140;" horiz-adv-x="663" 
d="M516 643v203h150v-203h-150zM178 1462h162v-1134q0 -111 37 -152t137 -39h53v-137h-59q-194 0 -262 70t-68 272v1120z" />
    <glyph glyph-name="Lslash" unicode="&#x141;" horiz-adv-x="1091" 
d="M213 0v446l-156 -104v156l156 104v860h170v-760l418 281v-158l-418 -278v-404h690v-143h-860z" />
    <glyph glyph-name="lslash" unicode="&#x142;" horiz-adv-x="620" 
d="M190 1462h162v-614l240 160v-160l-240 -160v-360q0 -111 37 -152t137 -39h54v-137h-60q-186 -2 -257 62t-73 235v293l-192 -129v160l192 129v712z" />
    <glyph glyph-name="Nacute" unicode="&#x143;" horiz-adv-x="1476" 
d="M670 1616l153 291h199l-229 -291h-123zM213 0v1462h164l721 -1171v1171h166v-1462h-164l-721 1171v-1171h-166z" />
    <glyph glyph-name="nacute" unicode="&#x144;" horiz-adv-x="1157" 
d="M487 1192l154 291h199l-230 -291h-123zM180 0v1028h125l12 -115q88 135 291 136q276 0 346 -199q31 -88 31 -260v-590h-162v575q0 179 -54 257t-183 78q-128 0 -186 -90q-58 -89 -58 -298v-522h-162z" />
    <glyph glyph-name="Ncommaaccent" unicode="&#x145;" horiz-adv-x="1476" 
d="M588 -455l106 314h170l-162 -314h-114zM213 0v1462h164l721 -1171v1171h166v-1462h-164l-721 1171v-1171h-166z" />
    <glyph glyph-name="ncommaaccent" unicode="&#x146;" horiz-adv-x="1157" 
d="M420 -455l106 314h170l-161 -314h-115zM180 0v1028h125l12 -115q88 135 291 136q276 0 346 -199q31 -88 31 -260v-590h-162v575q0 179 -54 257t-183 78q-128 0 -186 -90q-58 -89 -58 -298v-522h-162z" />
    <glyph glyph-name="Ncaron" unicode="&#x147;" horiz-adv-x="1476" 
d="M766 1731l139 165h172l-260 -274h-104l-260 274h172zM213 0v1462h164l721 -1171v1171h166v-1462h-164l-721 1171v-1171h-166z" />
    <glyph glyph-name="ncaron" unicode="&#x148;" horiz-adv-x="1157" 
d="M571 1307l140 163h172l-260 -272h-105l-260 272h172zM180 0v1028h125l12 -115q88 135 291 136q276 0 346 -199q31 -88 31 -260v-590h-162v575q0 179 -54 257t-183 78q-128 0 -186 -90q-58 -89 -58 -298v-522h-162z" />
    <glyph glyph-name="napostrophe" unicode="&#x149;" horiz-adv-x="1247" 
d="M25 973l73 489h178l-112 -489h-139zM270 0v1028h125l13 -115q88 135 290 136q276 0 346 -199q31 -88 31 -260v-590h-162v575q0 179 -54 257t-183 78q-128 0 -186 -90q-58 -89 -58 -298v-522h-162z" />
    <glyph glyph-name="Eng" unicode="&#x14a;" horiz-adv-x="1476" 
d="M213 0v1462h164l721 -1165v1165h166v-1489q6 -254 -84 -350t-328 -94v135q137 -6 197 62q59 68 55 225v63l-725 1157v-1171h-166z" />
    <glyph glyph-name="eng" unicode="&#x14b;" horiz-adv-x="1157" 
d="M180 0v1028h125l12 -115q88 135 291 136q274 0 346 -199q31 -88 31 -260v-615q4 -256 -85 -352t-331 -94v137q139 -6 199 63q59 69 55 230v616q0 137 -28 207q-49 127 -193 127t-202 -89t-58 -298v-522h-162z" />
    <glyph glyph-name="Omacron" unicode="&#x14c;" horiz-adv-x="1384" 
d="M430 1694v118h526v-118h-526zM348 567q0 -442 344 -442q190 0 279 135q65 104 65 307v328q0 444 -344 442q-190 0 -278 -135q-66 -104 -66 -307v-328zM178 551v360q0 154 28 250t93 168q137 152 405 152t404 -176q98 -131 98 -394v-360q0 -156 -28 -251t-93 -167
q-137 -151 -405 -151t-401 176q-101 129 -101 393z" />
    <glyph glyph-name="omacron" unicode="&#x14d;" horiz-adv-x="1140" 
d="M307 1268v118h527v-118h-527zM307 444q0 -327 262 -327q135 -1 200 79t65 248v140q0 168 -65 249t-199 81t-198 -82q-64 -80 -65 -248v-140zM145 434v160q1 231 103 343t321 112t323 -110t103 -345v-160q0 -233 -103 -343q-102 -109 -322 -109t-322 110t-103 342z" />
    <glyph glyph-name="Obreve" unicode="&#x14e;" horiz-adv-x="1384" 
d="M408 1890h110q10 -88 49 -123t126 -35t125 36q38 34 48 122h113q-8 -121 -37 -174q-61 -108 -255 -108t-253 125q-20 48 -26 157zM348 567q0 -442 344 -442q190 0 279 135q65 104 65 307v328q0 444 -344 442q-190 0 -278 -135q-66 -104 -66 -307v-328zM178 551v360
q0 154 28 250t93 168q137 152 405 152t404 -176q98 -131 98 -394v-360q0 -156 -28 -251t-93 -167q-137 -151 -405 -151t-401 176q-101 129 -101 393z" />
    <glyph glyph-name="obreve" unicode="&#x14f;" horiz-adv-x="1140" 
d="M285 1464h110q10 -88 49 -123t126 -35t125 36q38 34 48 122h113q-8 -121 -37 -174q-61 -108 -255 -108t-253 127q-20 44 -26 155zM307 444q0 -327 262 -327q135 -1 200 79t65 248v140q0 168 -65 249t-199 81t-198 -82q-64 -80 -65 -248v-140zM145 434v160q1 231 103 343
t321 112t323 -110t103 -345v-160q0 -233 -103 -343q-102 -109 -322 -109t-322 110t-103 342z" />
    <glyph glyph-name="Ohungarumlaut" unicode="&#x150;" horiz-adv-x="1384" 
d="M758 1616l123 291h182l-189 -291h-116zM481 1616l123 291h184l-190 -291h-117zM348 567q0 -442 344 -442q190 0 279 135q65 104 65 307v328q0 444 -344 442q-190 0 -278 -135q-66 -104 -66 -307v-328zM178 551v360q0 154 28 250t93 168q137 152 405 152t404 -176
q98 -131 98 -394v-360q0 -156 -28 -251t-93 -167q-137 -151 -405 -151t-401 176q-101 129 -101 393z" />
    <glyph glyph-name="ohungarumlaut" unicode="&#x151;" horiz-adv-x="1140" 
d="M635 1192l123 291h182l-188 -291h-117zM358 1192l123 291h185l-191 -291h-117zM307 444q0 -327 262 -327q135 -1 200 79t65 248v140q0 168 -65 249t-199 81t-198 -82q-64 -80 -65 -248v-140zM145 434v160q1 231 103 343t321 112t323 -110t103 -345v-160q0 -233 -103 -343
q-102 -109 -322 -109t-322 110t-103 342z" />
    <glyph glyph-name="OE" unicode="&#x152;" horiz-adv-x="2009" 
d="M348 895v-332q0 -221 84 -331t260 -109q348 0 348 440v332q0 444 -348 444q-193 0 -278 -137q-66 -102 -66 -307zM1063 0v137q-68 -86 -153 -122t-224 -35q-281 0 -412 178q-96 131 -96 389v364q0 285 117 418q131 154 391 154t377 -146v125h829v-143h-684v-508h582v-143
h-582v-525h686v-143h-831z" />
    <glyph glyph-name="oe" unicode="&#x153;" horiz-adv-x="1800" 
d="M1513 621q0 290 -265 290q-149 0 -208 -102q-45 -78 -45 -188v-17h518v17zM831 446v138q0 330 -262 329q-262 0 -262 -329v-138q0 -330 262 -329q262 -1 262 329zM995 438q1 -321 295 -321q146 0 228 100l122 -74q-117 -162 -368 -161q-135 0 -217 38t-142 130
q-53 -92 -132 -130t-216 -38q-215 0 -317 112t-103 342v156q1 233 103 345t315 112q131 0 214 -39t136 -127q84 166 344 166q213 0 313 -120t99 -374v-74h-674v-43z" />
    <glyph glyph-name="Racute" unicode="&#x154;" horiz-adv-x="1323" 
d="M559 1616l154 291h198l-229 -291h-123zM383 772h336q281 0 280 275q-1 141 -73 207t-226 67h-317v-549zM385 631v-631h-170v1462h502q242 0 347 -106t105 -294t-73 -286q-74 -98 -228 -127l322 -649h-189l-301 631h-315z" />
    <glyph glyph-name="racute" unicode="&#x155;" horiz-adv-x="768" 
d="M346 1192l154 291h198l-229 -291h-123zM180 0v1028h127l17 -96q82 117 245 117q102 0 199 -54l-68 -139q-74 49 -145 49q-113 0 -163 -95t-50 -308v-502h-162z" />
    <glyph glyph-name="Rcommaaccent" unicode="&#x156;" horiz-adv-x="1323" 
d="M502 -455l106 314h170l-162 -314h-114zM383 772h336q281 0 280 275q-1 141 -73 207t-226 67h-317v-549zM385 631v-631h-170v1462h502q242 0 347 -106t105 -294t-73 -286q-74 -98 -228 -127l322 -649h-189l-301 631h-315z" />
    <glyph glyph-name="rcommaaccent" unicode="&#x157;" horiz-adv-x="768" 
d="M74 -455l106 314h170l-162 -314h-114zM180 0v1028h127l17 -96q82 117 245 117q102 0 199 -54l-68 -139q-74 49 -145 49q-113 0 -163 -95t-50 -308v-502h-162z" />
    <glyph glyph-name="Rcaron" unicode="&#x158;" horiz-adv-x="1323" 
d="M647 1731l139 165h172l-260 -274h-104l-260 274h172zM383 772h336q281 0 280 275q-1 141 -73 207t-226 67h-317v-549zM385 631v-631h-170v1462h502q242 0 347 -106t105 -294t-73 -286q-74 -98 -228 -127l322 -649h-189l-301 631h-315z" />
    <glyph glyph-name="rcaron" unicode="&#x159;" horiz-adv-x="768" 
d="M449 1307l139 163h172l-260 -272h-105l-260 272h172zM182 0v1028h127l17 -96q82 117 245 117q102 0 199 -54l-68 -139q-74 49 -145 49q-113 0 -163 -95t-50 -308v-502h-162z" />
    <glyph glyph-name="Sacute" unicode="&#x15a;" horiz-adv-x="1185" 
d="M498 1616l153 291h199l-229 -291h-123zM586 125q160 0 248 69q88 68 88 194t-88 187q-41 29 -75 40t-196 53q-225 57 -321 152t-96 272q0 176 118 282q119 106 330 107q301 0 422 -185l-129 -84q-92 127 -299 127q-129 1 -203 -65t-74 -180t75 -176q74 -62 240 -104
t218 -61t106 -57q137 -94 137 -298t-130 -310t-371 -106q-359 0 -494 215l133 86q94 -158 361 -158z" />
    <glyph glyph-name="sacute" unicode="&#x15b;" horiz-adv-x="968" 
d="M383 1192l154 291h198l-229 -291h-123zM715 289q0 92 -70 127q-47 24 -215 48t-231 79q-82 71 -82 209t88 218t252 79q256 0 372 -164l-122 -76q-47 57 -101 81t-137 23q-197 0 -197 -161q0 -80 64 -119q43 -23 208 -47t234 -74q92 -68 92 -227q0 -303 -409 -303
q-291 -1 -402 159l119 76q52 -55 114 -78t163 -22q260 0 260 172z" />
    <glyph glyph-name="Scircumflex" unicode="&#x15c;" horiz-adv-x="1185" 
d="M600 1790l-139 -164h-172l260 272h104l260 -272h-172zM586 125q160 0 248 69q88 68 88 194t-88 187q-41 29 -75 40t-196 53q-225 57 -321 152t-96 272q0 176 118 282q119 106 330 107q301 0 422 -185l-129 -84q-92 127 -299 127q-129 1 -203 -65t-74 -180t75 -176
q74 -62 240 -104t218 -61t106 -57q137 -94 137 -298t-130 -310t-371 -106q-359 0 -494 215l133 86q94 -158 361 -158z" />
    <glyph glyph-name="scircumflex" unicode="&#x15d;" horiz-adv-x="968" 
d="M475 1366l-139 -166h-172l260 275h104l260 -275h-172zM715 289q0 92 -70 127q-47 24 -215 48t-231 79q-82 71 -82 209t88 218t252 79q256 0 372 -164l-122 -76q-47 57 -101 81t-137 23q-197 0 -197 -161q0 -80 64 -119q43 -23 208 -47t234 -74q92 -68 92 -227
q0 -303 -409 -303q-291 -1 -402 159l119 76q52 -55 114 -78t163 -22q260 0 260 172z" />
    <glyph glyph-name="Scedilla" unicode="&#x15e;" horiz-adv-x="1185" 
d="M412 -455l106 314h170l-162 -314h-114zM586 125q160 0 248 69q88 68 88 194t-88 187q-41 29 -75 40t-196 53q-225 57 -321 152t-96 272q0 176 118 282q119 106 330 107q301 0 422 -185l-129 -84q-92 127 -299 127q-129 1 -203 -65t-74 -180t75 -176q74 -62 240 -104
t218 -61t106 -57q137 -94 137 -298t-130 -310t-371 -106q-359 0 -494 215l133 86q94 -158 361 -158z" />
    <glyph glyph-name="scedilla" unicode="&#x15f;" horiz-adv-x="968" 
d="M307 -455l107 314h170l-162 -314h-115zM715 289q0 92 -70 127q-47 24 -215 48t-231 79q-82 71 -82 209t88 218t252 79q256 0 372 -164l-122 -76q-47 57 -101 81t-137 23q-197 0 -197 -161q0 -80 64 -119q43 -23 208 -47t234 -74q92 -68 92 -227q0 -303 -409 -303
q-291 -1 -402 159l119 76q52 -55 114 -78t163 -22q260 0 260 172z" />
    <glyph glyph-name="Scaron" unicode="&#x160;" horiz-adv-x="1185" 
d="M610 1731l140 165h172l-260 -274h-105l-260 274h172zM586 125q160 0 248 69q88 68 88 194t-88 187q-41 29 -75 40t-196 53q-225 57 -321 152t-96 272q0 176 118 282q119 106 330 107q301 0 422 -185l-129 -84q-92 127 -299 127q-129 1 -203 -65t-74 -180t75 -176
q74 -62 240 -104t218 -61t106 -57q137 -94 137 -298t-130 -310t-371 -106q-359 0 -494 215l133 86q94 -158 361 -158z" />
    <glyph glyph-name="scaron" unicode="&#x161;" horiz-adv-x="968" 
d="M481 1307l140 163h172l-261 -272h-104l-260 272h172zM715 289q0 92 -70 127q-47 24 -215 48t-231 79q-82 71 -82 209t88 218t252 79q256 0 372 -164l-122 -76q-47 57 -101 81t-137 23q-197 0 -197 -161q0 -80 64 -119q43 -23 208 -47t234 -74q92 -68 92 -227
q0 -303 -409 -303q-291 -1 -402 159l119 76q52 -55 114 -78t163 -22q260 0 260 172z" />
    <glyph glyph-name="Tcommaaccent" unicode="&#x162;" horiz-adv-x="1134" 
d="M389 -455l107 314h170l-162 -314h-115zM485 0v1319h-422v143h1010v-143h-418v-1319h-170z" />
    <glyph glyph-name="tcommaaccent" unicode="&#x163;" horiz-adv-x="684" 
d="M211 -455l106 314h170l-161 -314h-115zM215 893h-125v135h125l8 330h154v-330h203v-135h-203v-567q0 -109 37 -150t137 -39h35v-137h-37q-201 0 -267 68t-67 274v551z" />
    <glyph glyph-name="Tcaron" unicode="&#x164;" horiz-adv-x="1134" 
d="M569 1731l140 165h172l-260 -274h-105l-260 274h172zM485 0v1319h-422v143h1010v-143h-418v-1319h-170z" />
    <glyph glyph-name="tcaron" unicode="&#x165;" horiz-adv-x="772" 
d="M604 1137l49 424h168l-102 -424h-115zM215 893h-125v135h125l8 330h154v-330h203v-135h-203v-567q0 -109 37 -150t137 -39h35v-137h-37q-201 0 -267 68t-67 274v551z" />
    <glyph glyph-name="Tbar" unicode="&#x166;" horiz-adv-x="1134" 
d="M485 0v670h-286v141h286v508h-422v143h1010v-143h-418v-508h283v-141h-283v-670h-170z" />
    <glyph glyph-name="tbar" unicode="&#x167;" horiz-adv-x="688" 
d="M219 893h-125v135h125l8 330h154v-330h203v-135h-203v-180h203v-115h-203v-285q0 -100 38 -139t136 -37h37v-137h-39q-193 -2 -261 62t-73 249v287h-125v115h125v180z" />
    <glyph glyph-name="Utilde" unicode="&#x168;" horiz-adv-x="1413" 
d="M572 1880q86 0 160 -66t108 -65q55 0 84 115h104q-25 -102 -47 -150q-47 -84 -135 -84t-161 66t-110 65q-59 1 -88 -114h-104q27 106 51 145q52 88 138 88zM207 1462h170v-925q0 -197 53 -283q86 -129 286 -129t279 149q41 82 41 263v925h170v-925q0 -156 -18 -239
t-70 -146q-128 -170 -422 -170t-420 194q-39 61 -54 139t-15 222v925z" />
    <glyph glyph-name="utilde" unicode="&#x169;" horiz-adv-x="1136" 
d="M434 1456q86 0 160 -66t108 -65q55 0 84 115h105q-25 -106 -47 -150q-44 -86 -134 -86t-165 70q-70 61 -105 61q-61 1 -90 -114h-104q27 106 51 147q51 88 137 88zM172 1028h162v-573q0 -135 26 -207q48 -127 186 -127t193 89t56 296v522h161v-1028h-125l-12 115
q-86 -133 -282 -133q-266 0 -334 198q-31 86 -31 258v590z" />
    <glyph glyph-name="Umacron" unicode="&#x16a;" horiz-adv-x="1413" 
d="M442 1694v118h527v-118h-527zM207 1462h170v-925q0 -197 53 -283q86 -129 286 -129t279 149q41 82 41 263v925h170v-925q0 -156 -18 -239t-70 -146q-128 -170 -422 -170t-420 194q-39 61 -54 139t-15 222v925z" />
    <glyph glyph-name="umacron" unicode="&#x16b;" horiz-adv-x="1136" 
d="M305 1268v118h526v-118h-526zM172 1028h162v-573q0 -135 26 -207q48 -127 186 -127t193 89t56 296v522h161v-1028h-125l-12 115q-86 -133 -282 -133q-266 0 -334 198q-31 86 -31 258v590z" />
    <glyph glyph-name="Ubreve" unicode="&#x16c;" horiz-adv-x="1413" 
d="M422 1890h110q10 -88 50 -123t126 -35q87 0 125 36q38 34 48 122h112q-8 -121 -37 -174q-60 -108 -254 -108t-253 125q-21 48 -27 157zM207 1462h170v-925q0 -197 53 -283q86 -129 286 -129t279 149q41 82 41 263v925h170v-925q0 -156 -18 -239t-70 -146
q-128 -170 -422 -170t-420 194q-39 61 -54 139t-15 222v925z" />
    <glyph glyph-name="ubreve" unicode="&#x16d;" horiz-adv-x="1136" 
d="M283 1464h110q10 -88 49 -123t126 -35t125 36q38 34 48 122h113q-8 -121 -37 -174q-61 -108 -255 -108t-253 127q-20 44 -26 155zM172 1028h162v-573q0 -135 26 -207q48 -127 186 -127t193 89t56 296v522h161v-1028h-125l-12 115q-86 -133 -282 -133q-266 0 -334 198
q-31 86 -31 258v590z" />
    <glyph glyph-name="Uring" unicode="&#x16e;" horiz-adv-x="1413" 
d="M807 1808q0 122 -102 121q-103 0 -103 -122t103 -121q102 0 102 122zM707 2015q98 0 155 -56q58 -57 58 -151t-60 -151t-155 -57t-155 56q-60 58 -60 153t59 151q60 56 158 55zM207 1462h170v-925q0 -197 53 -283q86 -129 286 -129t279 149q41 82 41 263v925h170v-925
q0 -156 -18 -239t-70 -146q-128 -170 -422 -170t-420 194q-39 61 -54 139t-15 222v925z" />
    <glyph glyph-name="uring" unicode="&#x16f;" horiz-adv-x="1136" 
d="M669 1382q0 122 -102 123q-102 0 -102 -123t102 -122q102 0 102 122zM567 1591q99 0 157 -57q58 -56 58 -150t-59 -152t-155 -58t-156 58q-59 58 -60 152q0 94 58 150t157 57zM172 1028h162v-573q0 -135 26 -207q48 -127 186 -127t193 89t56 296v522h161v-1028h-125
l-12 115q-86 -133 -282 -133q-266 0 -334 198q-31 86 -31 258v590z" />
    <glyph glyph-name="Uhungarumlaut" unicode="&#x170;" horiz-adv-x="1413" 
d="M776 1616l123 291h182l-188 -291h-117zM500 1616l123 291h184l-191 -291h-116zM207 1462h170v-925q0 -197 53 -283q86 -129 286 -129t279 149q41 82 41 263v925h170v-925q0 -156 -18 -239t-70 -146q-128 -170 -422 -170t-420 194q-39 61 -54 139t-15 222v925z" />
    <glyph glyph-name="uhungarumlaut" unicode="&#x171;" horiz-adv-x="1136" 
d="M633 1192l123 291h182l-188 -291h-117zM356 1192l123 291h185l-191 -291h-117zM172 1028h162v-573q0 -135 26 -207q48 -127 186 -127t193 89t56 296v522h161v-1028h-125l-12 115q-86 -133 -282 -133q-266 0 -334 198q-31 86 -31 258v590z" />
    <glyph glyph-name="Uogonek" unicode="&#x172;" horiz-adv-x="1413" 
d="M209 1462h170v-925q0 -197 53 -283q86 -129 286 -129t279 149q41 82 41 263v925h170v-925q8 -219 -61 -346q-70 -126 -229 -183q-94 -66 -133 -114q-38 -49 -37 -107q0 -86 102 -86q53 0 121 20l16 -94q-88 -29 -164 -28q-225 0 -225 165q0 121 131 220q-145 0 -232 28
t-157 92q-78 78 -106 168t-25 265v925z" />
    <glyph glyph-name="uogonek" unicode="&#x173;" horiz-adv-x="1136" 
d="M956 1028v-1028q-106 -62 -151 -112t-45 -103q0 -84 104 -84q51 0 119 20l16 -94q-80 -29 -163 -28q-226 1 -226 157t219 252l-10 107q-86 -133 -282 -133q-266 0 -334 198q-31 86 -31 258v590h162v-573q0 -135 26 -207q48 -127 186 -127t193 89t56 296v522h161z" />
    <glyph glyph-name="Wcircumflex" unicode="&#x174;" horiz-adv-x="1794" 
d="M895 1790l-139 -164h-172l260 272h104l260 -272h-172zM426 0l-369 1462h172l277 -1200l330 1200h120l330 -1200l279 1200h172l-369 -1462h-145l-326 1165l-326 -1165h-145z" />
    <glyph glyph-name="wcircumflex" unicode="&#x175;" horiz-adv-x="1579" 
d="M788 1366l-139 -166h-172l260 275h105l260 -275h-172zM395 0l-317 1028h166l225 -807l264 807h113l264 -807l227 807h166l-317 -1028h-133l-262 774l-265 -774h-131z" />
    <glyph glyph-name="Ycircumflex" unicode="&#x176;" horiz-adv-x="1089" 
d="M543 1790l-140 -164h-172l261 272h104l260 -272h-172zM461 0v528l-461 934h180l367 -760l364 760h181l-461 -934v-528h-170z" />
    <glyph glyph-name="ycircumflex" unicode="&#x177;" horiz-adv-x="999" 
d="M498 1366l-140 -166h-172l260 275h105l260 -275h-172zM123 -334q115 0 160 33t90 151l51 152l-379 1026h164l301 -844l268 844h164l-403 -1194q-72 -197 -145 -250t-271 -55v137z" />
    <glyph glyph-name="Ydieresis" unicode="&#x178;" horiz-adv-x="1089" 
d="M670 1632v213h147v-213h-147zM270 1632v213h148v-213h-148zM461 0v528l-461 934h180l367 -760l364 760h181l-461 -934v-528h-170z" />
    <glyph glyph-name="Zacute" unicode="&#x179;" horiz-adv-x="1112" 
d="M500 1616l153 291h199l-229 -291h-123zM104 0v121l676 1198h-639v143h830v-121l-676 -1198h709v-143h-900z" />
    <glyph glyph-name="zacute" unicode="&#x17a;" horiz-adv-x="972" 
d="M410 1192l153 291h199l-230 -291h-122zM92 0v104l522 789h-481v135h684v-104l-522 -789h555v-135h-758z" />
    <glyph glyph-name="Zdotaccent" unicode="&#x17b;" horiz-adv-x="1112" 
d="M500 1632v213h159v-213h-159zM104 0v121l676 1198h-639v143h830v-121l-676 -1198h709v-143h-900z" />
    <glyph glyph-name="zdotaccent" unicode="&#x17c;" horiz-adv-x="972" 
d="M412 1208v213h159v-213h-159zM92 0v104l522 789h-481v135h684v-104l-522 -789h555v-135h-758z" />
    <glyph glyph-name="Zcaron" unicode="&#x17d;" horiz-adv-x="1112" 
d="M596 1731l139 165h172l-260 -274h-104l-260 274h172zM104 0v121l676 1198h-639v143h830v-121l-676 -1198h709v-143h-900z" />
    <glyph glyph-name="zcaron" unicode="&#x17e;" horiz-adv-x="972" 
d="M504 1307l139 163h172l-260 -272h-104l-261 272h172zM92 0v104l522 789h-481v135h684v-104l-522 -789h555v-135h-758z" />
    <glyph glyph-name="Ohorn" unicode="&#x1a0;" horiz-adv-x="1435" 
d="M348 567q0 -442 344 -442q190 0 279 135q65 104 65 307v328q0 225 -80 328q-86 117 -272 117q-336 -1 -336 -445v-328zM1448 1407q0 -137 -121 -233q-47 -37 -135 -89q14 -86 14 -174v-360q0 -156 -28 -251t-93 -167q-137 -151 -405 -151t-401 176q-100 129 -101 393v360
q0 572 514 572q365 0 477 -293q84 53 114 94q30 42 30 96t-25 103h146q14 -43 14 -76z" />
    <glyph glyph-name="ohorn" unicode="&#x1a1;" horiz-adv-x="1191" 
d="M307 444q0 -327 262 -327q135 -1 200 79t65 248v140q0 168 -65 249t-199 81t-198 -82q-64 -80 -65 -248v-140zM995 569v-135q0 -233 -103 -343q-102 -109 -322 -109t-322 110t-103 342v160q-1 233 103 344t323 111q338 0 406 -279q65 43 90 84q25 40 25 92t-25 103h147
q12 -39 13 -82q-1 -94 -55 -165t-183 -143q6 -59 6 -90z" />
    <glyph glyph-name="Uhorn" unicode="&#x1af;" horiz-adv-x="1490" 
d="M207 1462h170v-925q0 -197 53 -283q86 -129 286 -129t279 149q41 82 41 263v925h170v-305q106 51 151 101q44 50 44 112t-25 113h148q12 -39 12 -82q0 -109 -71 -185t-259 -172v-507q0 -156 -18 -239t-70 -146q-128 -170 -422 -170t-420 194q-39 61 -54 139t-15 222v925z
" />
    <glyph glyph-name="uhorn" unicode="&#x1b0;" horiz-adv-x="1224" 
d="M172 1028h162v-573q0 -135 26 -207q48 -127 186 -127t193 89t56 296v522h161v-305q111 53 153 102t42 111t-25 113h148q12 -41 12 -82q0 -147 -153 -256q-47 -35 -177 -101v-610h-125l-12 115q-86 -133 -282 -133q-266 0 -334 198q-31 86 -31 258v590z" />
    <glyph glyph-name="uni01C4" unicode="&#x1c4;" horiz-adv-x="2418" 
d="M1860 1731l141 165h172l-260 -274h-105l-260 274h172zM1409 0v121l678 1198h-641v143h831v-121l-678 -1198h709v-143h-899zM383 141h268q201 -3 295 101t94 331v316q0 227 -94 331t-295 101h-268v-1180zM213 0v1462h467q266 4 402 -138t128 -419v-348q8 -277 -127 -419
t-403 -138h-467z" />
    <glyph glyph-name="uni01C5" unicode="&#x1c5;" horiz-adv-x="2277" 
d="M1788 1307l139 163h172l-260 -272h-104l-260 272h172zM1397 0v104l522 789h-481v135h684v-104l-523 -789h555v-135h-757zM383 141h268q201 -3 295 101t94 331v316q0 227 -94 331t-295 101h-268v-1180zM213 0v1462h467q266 4 402 -138t128 -419v-348q8 -277 -127 -419
t-403 -138h-467z" />
    <glyph glyph-name="uni01C6" unicode="&#x1c6;" horiz-adv-x="2129" 
d="M1653 1307l139 163h172l-260 -272h-105l-260 272h172zM1247 0v104l525 789h-484v135h686v-104l-524 -789h557v-135h-760zM307 582v-136q0 -330 250 -329q256 0 256 313v168q0 315 -256 315q-250 1 -250 -331zM145 592q-1 236 93 346t292 111q135 0 226 -52q35 -27 57 -47
v512h162v-1462h-127l-10 88q-5 -5 -11 -8q-18 -18 -28 -27q-77 -71 -271 -71t-288 110t-95 344v156z" />
    <glyph glyph-name="uni01C7" unicode="&#x1c7;" horiz-adv-x="1687" 
d="M1307 1462h170v-1370q-1 -186 -11 -268t-43 -141q-96 -180 -348 -181q-94 0 -192 33l55 133q66 -23 121 -22q170 0 223 153q25 72 25 289v1374zM213 0v1462h170v-1319h688v-143h-858z" />
    <glyph glyph-name="uni01C8" unicode="&#x1c8;" horiz-adv-x="1626" 
d="M1282 1028h162v-1053q4 -256 -85 -352t-331 -94v137q139 -6 199 63q59 69 55 230v1069zM1282 1251v217h162v-217h-162zM213 0v1462h170v-1319h688v-143h-858z" />
    <glyph glyph-name="uni01C9" unicode="&#x1c9;" horiz-adv-x="1132" 
d="M788 1028h162v-1053q4 -256 -85 -352t-330 -94v137q139 -6 198 63t55 230v1069zM788 1251v217h162v-217h-162zM178 1462h162v-1134q0 -111 37 -152t137 -39h53v-137h-59q-194 0 -262 70t-68 272v1120z" />
    <glyph glyph-name="uni01CA" unicode="&#x1ca;" horiz-adv-x="2074" 
d="M1692 1462h170v-1370q0 -186 -10 -268t-44 -141q-96 -180 -348 -181q-94 0 -192 33l55 133q66 -23 121 -22q170 0 223 153q25 72 25 289v1374zM213 0v1462h164l721 -1171v1171h166v-1462h-164l-721 1171v-1171h-166z" />
    <glyph glyph-name="uni01CB" unicode="&#x1cb;" horiz-adv-x="2013" 
d="M1669 1251v217h162v-217h-162zM1669 1028h162v-1053q4 -256 -85 -352t-331 -94v137q139 -6 199 63q59 69 55 230v1069zM213 0v1462h164l721 -1171v1171h166v-1462h-164l-721 1171v-1171h-166z" />
    <glyph glyph-name="uni01CC" unicode="&#x1cc;" horiz-adv-x="1693" 
d="M1350 1251v217h161v-217h-161zM1350 1028h161v-1053q4 -256 -85 -352t-330 -94v137q139 -6 198 63t56 230v1069zM180 0v1028h125l12 -115q88 135 291 136q276 0 346 -199q31 -88 31 -260v-590h-162v575q0 179 -54 257t-183 78q-128 0 -186 -90q-58 -89 -58 -298v-522
h-162z" />
    <glyph glyph-name="uni01CD" unicode="&#x1cd;" horiz-adv-x="1228" 
d="M616 1731l140 165h172l-260 -274h-105l-260 274h172zM893 461l-277 784l-276 -784h553zM936 319h-641l-111 -319h-184l535 1462h161l535 -1462h-184z" />
    <glyph glyph-name="uni01CE" unicode="&#x1ce;" horiz-adv-x="1075" 
d="M543 1307l139 163h172l-260 -272h-105l-260 272h172zM739 481h-231q-136 0 -194 -44t-58 -144t52 -138t201 -38t202 67q29 37 28 138v159zM739 604v72q0 111 -37 164q-54 74 -198 74t-236 -105l-112 86q134 154 374 154t328 -150q43 -78 43 -248v-651h-129l-12 74
q-49 -52 -116 -72t-183 -20q-199 0 -280 68t-81 242q0 173 86 243t306 69h247z" />
    <glyph glyph-name="uni01CF" unicode="&#x1cf;" horiz-adv-x="595" 
d="M299 1731l139 165h172l-260 -274h-104l-260 274h172zM213 0v1462h170v-1462h-170z" />
    <glyph glyph-name="uni01D0" unicode="&#x1d0;" horiz-adv-x="522" 
d="M262 1307l139 163h172l-260 -272h-104l-260 272h172zM180 0v1028h162v-1028h-162z" />
    <glyph glyph-name="uni01D1" unicode="&#x1d1;" horiz-adv-x="1384" 
d="M692 1731l139 165h175l-261 -274h-106l-258 274h172zM348 567q0 -442 344 -442q190 0 279 135q65 100 65 307v328q0 223 -84 333t-267 110t-271 -136q-66 -104 -66 -307v-328zM178 551v360q0 154 28 250t93 168q137 152 405 152t402 -176q100 -129 100 -394v-360
q0 -156 -28 -251t-93 -167q-137 -151 -405 -151t-401 176q-101 129 -101 393z" />
    <glyph glyph-name="uni01D2" unicode="&#x1d2;" horiz-adv-x="1140" 
d="M571 1307l140 163h172l-260 -272h-105l-260 272h172zM307 444q0 -327 262 -327q135 -1 200 79t65 248v140q0 168 -65 249t-199 81t-198 -82q-64 -80 -65 -248v-140zM145 434v160q1 231 103 343t321 112t323 -110t103 -345v-160q0 -233 -103 -343q-102 -109 -322 -109
t-322 110t-103 342z" />
    <glyph glyph-name="uni01D3" unicode="&#x1d3;" horiz-adv-x="1413" 
d="M707 1731l139 165h172l-260 -274h-105l-260 274h172zM207 1462h170v-925q0 -197 53 -283q86 -129 286 -129t279 149q41 82 41 263v925h170v-925q0 -156 -18 -239t-70 -146q-128 -170 -422 -170t-420 194q-39 61 -54 139t-15 222v925z" />
    <glyph glyph-name="uni01D4" unicode="&#x1d4;" horiz-adv-x="1136" 
d="M569 1307l140 163h172l-260 -272h-105l-260 272h172zM172 1028h162v-573q0 -135 26 -207q48 -127 186 -127t193 89t56 296v522h161v-1028h-125l-12 115q-86 -133 -282 -133q-266 0 -334 198q-31 86 -31 258v590z" />
    <glyph glyph-name="Gcaron" unicode="&#x1e6;" horiz-adv-x="1357" 
d="M684 1731l139 165h172l-260 -274h-104l-260 274h172zM729 631v137h473v-229q0 -147 -24 -237t-84 -163q-133 -157 -413 -157t-413 184q-90 129 -90 414v299q0 170 26 270t87 172q131 158 389 158q217 -1 341 -97t134 -272l-158 -12q-16 115 -97 176t-216 61
q-180 -1 -258 -109t-78 -356v-282q0 -248 80 -356t266 -108t273 122q68 90 67 258v127h-305z" />
    <glyph glyph-name="gcaron" unicode="&#x1e7;" horiz-adv-x="1157" 
d="M602 1307l139 163h172l-260 -272h-104l-260 272h172zM307 582v-136q0 -330 250 -329q256 0 256 313v168q0 315 -256 315q-250 1 -250 -331zM525 -18q-195 0 -287 110t-93 344v156q1 236 95 346t295 111q201 0 301 -113l12 92h127v-1028q0 -479 -438 -479q-246 0 -359 162
l121 73q84 -104 229 -104t213 80t72 252l2 96q-96 -98 -290 -98z" />
    <glyph glyph-name="uni01EA" unicode="&#x1ea;" horiz-adv-x="1384" 
d="M358 567q0 -444 344 -444q193 0 279 137q66 102 66 307v328q0 223 -80 326q-87 117 -271 117t-272 -136q-66 -104 -66 -307v-328zM188 911q0 154 28 250t93 168q137 152 405 152t404 -176q99 -132 99 -394v-360q8 -426 -306 -541q-172 -115 -172 -223q0 -86 105 -86
q55 0 119 20l16 -94q-78 -29 -164 -28q-223 0 -223 163q0 119 127 220h-17q-256 -2 -389 144t-125 425v360z" />
    <glyph glyph-name="uni01EB" unicode="&#x1eb;" horiz-adv-x="1140" 
d="M309 444q0 -327 262 -327q135 -1 200 79t65 248v140q0 168 -65 249t-199 81t-198 -82q-64 -80 -65 -248v-140zM997 594v-160q0 -352 -245 -430q-141 -102 -142 -217q0 -86 105 -86q53 0 121 20l16 -94q-80 -29 -166 -28q-225 0 -225 165q0 117 112 218q-217 -2 -322 110
t-104 342v160q1 231 103 343t321 112q219 1 323 -109t103 -346z" />
    <glyph glyph-name="uni01F1" unicode="&#x1f1;" horiz-adv-x="2418" 
d="M1409 0v121l678 1198h-641v143h831v-121l-678 -1198h709v-143h-899zM383 141h268q201 -3 295 101t94 331v316q0 227 -94 331t-295 101h-268v-1180zM213 0v1462h467q266 4 402 -138t128 -419v-348q8 -277 -127 -419t-403 -138h-467z" />
    <glyph glyph-name="uni01F2" unicode="&#x1f2;" horiz-adv-x="2277" 
d="M1397 0v104l522 789h-481v135h684v-104l-523 -789h555v-135h-757zM383 141h268q201 -3 295 101t94 331v316q0 227 -94 331t-295 101h-268v-1180zM213 0v1462h467q266 4 402 -138t128 -419v-348q8 -277 -127 -419t-403 -138h-467z" />
    <glyph glyph-name="uni01F3" unicode="&#x1f3;" horiz-adv-x="2129" 
d="M1247 0v104l525 789h-484v135h686v-104l-524 -789h557v-135h-760zM307 582v-136q0 -330 250 -329q256 0 256 313v168q0 315 -256 315q-250 1 -250 -331zM145 592q-1 236 93 346t292 111q135 0 226 -52q35 -27 57 -47v512h162v-1462h-127l-10 88q-5 -5 -11 -8
q-18 -18 -28 -27q-77 -71 -271 -71t-288 110t-95 344v156z" />
    <glyph glyph-name="uni01F4" unicode="&#x1f4;" horiz-adv-x="1357" 
d="M586 1616l153 291h199l-229 -291h-123zM729 631v137h473v-229q0 -147 -24 -237t-84 -163q-133 -157 -413 -157t-413 184q-90 129 -90 414v299q0 170 26 270t87 172q131 158 389 158q217 -1 341 -97t134 -272l-158 -12q-16 115 -97 176t-216 61q-180 -1 -258 -109
t-78 -356v-282q0 -248 80 -356t266 -108t273 122q68 90 67 258v127h-305z" />
    <glyph glyph-name="uni01F5" unicode="&#x1f5;" horiz-adv-x="1157" 
d="M483 1192l154 291h199l-230 -291h-123zM307 582v-136q0 -330 250 -329q256 0 256 313v168q0 315 -256 315q-250 1 -250 -331zM525 -18q-195 0 -287 110t-93 344v156q1 236 95 346t295 111q201 0 301 -113l12 92h127v-1028q0 -479 -438 -479q-246 0 -359 162l121 73
q84 -104 229 -104t213 80t72 252l2 96q-96 -98 -290 -98z" />
    <glyph glyph-name="Aringacute" unicode="&#x1fa;" horiz-adv-x="1228" 
d="M539 1835l114 240h191l-201 -240h-104zM614 1466q102 0 102 122t-102 122t-102 -122t102 -122zM893 461l-277 784l-276 -784h553zM399 1589q1 95 59 151t156 56t156 -56t59 -151q0 -137 -110 -188l512 -1401h-184l-111 319h-641l-111 -319h-184l512 1401
q-113 51 -113 188z" />
    <glyph glyph-name="aringacute" unicode="&#x1fb;" horiz-adv-x="1075" 
d="M469 1628l115 242h190l-201 -242h-104zM647 1342q0 122 -102 122q-103 0 -103 -123t103 -122q102 1 102 123zM545 1550q98 0 156 -57q59 -57 59 -151t-60 -151q-60 -58 -155 -58q-96 0 -156 58q-59 58 -59 152t58 151q59 56 157 56zM739 481h-231q-136 0 -194 -44
t-58 -144t52 -138t201 -38t202 67q29 37 28 138v159zM739 604v72q0 111 -37 164q-54 74 -198 74t-236 -105l-112 86q134 154 374 154t328 -150q43 -78 43 -248v-651h-129l-12 74q-49 -52 -116 -72t-183 -20q-199 0 -280 68t-81 242q0 173 86 243t306 69h247z" />
    <glyph glyph-name="AEacute" unicode="&#x1fc;" horiz-adv-x="1945" 
d="M1237 1616l154 291h198l-229 -291h-123zM975 479v840h-23l-542 -840h565zM975 338h-647l-215 -338h-197l961 1462h952v-143h-686v-508h583v-143h-583v-525h686v-143h-854v338z" />
    <glyph glyph-name="aeacute" unicode="&#x1fd;" horiz-adv-x="1708" 
d="M752 1192l153 291h199l-230 -291h-122zM905 604h518v17q0 127 -58 209t-208 83q-150 0 -207 -104q-45 -78 -45 -188v-17zM739 481h-231q-136 0 -194 -44t-58 -143t53 -138t197 -39t196 76q37 53 37 178v110zM905 438q-1 -321 295 -321q148 0 227 100l123 -78
q-116 -157 -366 -157t-359 161q-57 -92 -135 -127q-78 -34 -253 -34t-256 68t-81 242q0 173 86 243t306 69h247v72q0 111 -37 164q-54 74 -198 74t-236 -105l-112 86q129 154 360 154t324 -138q102 137 320 137t318 -119q100 -120 101 -374v-74h-674v-43z" />
    <glyph glyph-name="Oslashacute" unicode="&#x1fe;" horiz-adv-x="1382" 
d="M590 1616l153 291h199l-229 -291h-123zM679 1337q-179 0 -267 -135q-66 -104 -66 -307v-328q1 -135 21 -205l579 873q-88 102 -267 102zM704 125q176 0 265 135q66 104 65 307v328q0 133 -18 199l-578 -871q90 -98 266 -98zM1204 911v-360q0 -156 -28 -251t-93 -167
q-133 -152 -399 -151q-215 0 -338 104l-84 -127l-110 80l100 151q-76 129 -76 361v360q0 154 28 250t93 168q137 152 375 152t366 -107l82 123l111 -80l-101 -149q74 -129 74 -357z" />
    <glyph glyph-name="oslashacute" unicode="&#x1ff;" horiz-adv-x="1140" 
d="M467 1192l154 291h198l-229 -291h-123zM573 913q-264 0 -264 -329v-138q1 -100 21 -161l411 573q-63 55 -168 55zM569 117q264 0 265 329v138q-1 85 -21 161l-414 -573q61 -55 170 -55zM995 436q0 -233 -103 -344t-323 -110q-166 0 -260 63l-67 -94l-99 76l76 104
q-74 109 -72 305v158q-1 233 103 344t321 111q162 0 260 -64l68 94l98 -75l-75 -107q74 -102 73 -303v-158z" />
    <glyph glyph-name="uni0200" unicode="&#x200;" horiz-adv-x="1228" 
d="M549 1616h-117l-190 291h184zM823 1616h-116l-189 291h182zM893 461l-277 784l-276 -784h553zM936 319h-641l-111 -319h-184l535 1462h161l535 -1462h-184z" />
    <glyph glyph-name="uni0201" unicode="&#x201;" horiz-adv-x="1075" 
d="M500 1192h-117l-190 291h184zM774 1192h-117l-188 291h182zM739 481h-231q-136 0 -194 -44t-58 -144t52 -138t201 -38t202 67q29 37 28 138v159zM739 604v72q0 111 -37 164q-54 74 -198 74t-236 -105l-112 86q134 154 374 154t328 -150q43 -78 43 -248v-651h-129l-12 74
q-49 -52 -116 -72t-183 -20q-199 0 -280 68t-81 242q0 173 86 243t306 69h247z" />
    <glyph glyph-name="uni0202" unicode="&#x202;" horiz-adv-x="1228" 
d="M615 1782q-87 0 -127 -35t-48 -123h-110q8 127 37 174q61 109 255 109t250 -125q21 -47 29 -158h-113q-8 88 -47 123t-126 35zM893 461l-277 784l-276 -784h553zM936 319h-641l-111 -319h-184l535 1462h161l535 -1462h-184z" />
    <glyph glyph-name="uni0203" unicode="&#x203;" horiz-adv-x="1075" 
d="M538 1358q-87 0 -127 -35t-49 -123h-110q8 127 37 174q61 109 255 109t251 -125q20 -47 28 -158h-112q-10 88 -48 123t-125 35zM739 481h-231q-136 0 -194 -44t-58 -144t52 -138t201 -38t202 67q29 37 28 138v159zM739 604v72q0 111 -37 164q-54 74 -198 74t-236 -105
l-112 86q134 154 374 154t328 -150q43 -78 43 -248v-651h-129l-12 74q-49 -52 -116 -72t-183 -20q-199 0 -280 68t-81 242q0 173 86 243t306 69h247z" />
    <glyph glyph-name="uni0204" unicode="&#x204;" horiz-adv-x="1185" 
d="M582 1616h-117l-191 291h185zM856 1616h-117l-188 291h182zM213 0v1462h854v-143h-686v-508h586v-143h-586v-525h688v-143h-856z" />
    <glyph glyph-name="uni0205" unicode="&#x205;" horiz-adv-x="1112" 
d="M512 1192h-117l-190 291h184zM786 1192h-116l-189 291h183zM569 913q-260 0 -260 -292v-17h516v17q0 127 -58 209t-198 83zM309 438q-1 -321 293 -321q146 0 229 100l121 -78q-117 -158 -372 -157q-221 0 -328 118q-106 119 -107 367v88q1 256 101 375t317 119t317 -119
t101 -375v-74h-672v-43z" />
    <glyph glyph-name="uni0206" unicode="&#x206;" horiz-adv-x="1185" 
d="M654 1782q-87 0 -127 -35t-48 -123h-110q8 127 37 174q60 109 254 109t251 -125q21 -47 29 -158h-113q-8 88 -47 123t-126 35zM213 0v1462h854v-143h-686v-508h586v-143h-586v-525h688v-143h-856z" />
    <glyph glyph-name="uni0207" unicode="&#x207;" horiz-adv-x="1112" 
d="M556 1358q-87 0 -127 -35t-48 -123h-111q8 127 37 174q61 109 255 109t251 -125q21 -47 29 -158h-113q-10 88 -48 123t-125 35zM569 913q-260 0 -260 -292v-17h516v17q0 127 -58 209t-198 83zM309 438q-1 -321 293 -321q146 0 229 100l121 -78q-117 -158 -372 -157
q-221 0 -328 118q-106 119 -107 367v88q1 256 101 375t317 119t317 -119t101 -375v-74h-672v-43z" />
    <glyph glyph-name="uni0208" unicode="&#x208;" horiz-adv-x="595" 
d="M233 1616h-116l-191 291h185zM508 1616h-117l-188 291h182zM213 0v1462h170v-1462h-170z" />
    <glyph glyph-name="uni0209" unicode="&#x209;" horiz-adv-x="522" 
d="M197 1192h-117l-191 291h185zM471 1192h-117l-188 291h182zM180 0v1028h162v-1028h-162z" />
    <glyph glyph-name="uni020A" unicode="&#x20a;" horiz-adv-x="595" 
d="M298 1782q-87 0 -127 -35t-48 -123h-111q8 127 37 174q61 109 255 109t251 -125q21 -47 29 -158h-113q-8 88 -47 123t-126 35zM213 0v1462h170v-1462h-170z" />
    <glyph glyph-name="uni020B" unicode="&#x20b;" horiz-adv-x="522" 
d="M261 1358q-87 0 -127 -35t-48 -123h-111q8 127 37 174q61 109 255 109t251 -125q21 -47 29 -158h-113q-10 88 -48 123t-125 35zM178 0v1028h162v-1028h-162z" />
    <glyph glyph-name="uni020C" unicode="&#x20c;" horiz-adv-x="1384" 
d="M627 1616h-117l-191 291h185zM901 1616h-117l-188 291h182zM348 567q0 -442 344 -442q190 0 279 135q65 104 65 307v328q0 444 -344 442q-190 0 -278 -135q-66 -104 -66 -307v-328zM178 551v360q0 154 28 250t93 168q137 152 405 152t404 -176q98 -131 98 -394v-360
q0 -156 -28 -251t-93 -167q-137 -151 -405 -151t-401 176q-101 129 -101 393z" />
    <glyph glyph-name="uni020D" unicode="&#x20d;" horiz-adv-x="1140" 
d="M506 1192h-117l-190 291h184zM780 1192h-116l-189 291h182zM307 444q0 -327 262 -327q135 -1 200 79t65 248v140q0 168 -65 249t-199 81t-198 -82q-64 -80 -65 -248v-140zM145 434v160q1 231 103 343t321 112t323 -110t103 -345v-160q0 -233 -103 -343
q-102 -109 -322 -109t-322 110t-103 342z" />
    <glyph glyph-name="uni020E" unicode="&#x20e;" horiz-adv-x="1384" 
d="M693 1782q-87 0 -127 -35t-48 -123h-110q8 127 36 174q61 109 255 109t251 -125q21 -47 29 -158h-113q-8 88 -47 123t-126 35zM348 567q0 -442 344 -442q190 0 279 135q65 104 65 307v328q0 444 -344 442q-190 0 -278 -135q-66 -104 -66 -307v-328zM178 551v360
q0 154 28 250t93 168q137 152 405 152t404 -176q98 -131 98 -394v-360q0 -156 -28 -251t-93 -167q-137 -151 -405 -151t-401 176q-101 129 -101 393z" />
    <glyph glyph-name="uni020F" unicode="&#x20f;" horiz-adv-x="1140" 
d="M570 1358q-87 0 -127 -35t-48 -123h-110q8 127 37 174q60 109 254 109t251 -125q21 -47 29 -158h-113q-10 88 -48 123t-125 35zM307 444q0 -327 262 -327q135 -1 200 79t65 248v140q0 168 -65 249t-199 81t-198 -82q-64 -80 -65 -248v-140zM145 434v160q1 231 103 343
t321 112t323 -110t103 -345v-160q0 -233 -103 -343q-102 -109 -322 -109t-322 110t-103 342z" />
    <glyph glyph-name="uni0210" unicode="&#x210;" horiz-adv-x="1323" 
d="M549 1616h-117l-190 291h184zM823 1616h-116l-189 291h182zM383 772h336q281 0 280 275q-1 141 -73 207t-226 67h-317v-549zM385 631v-631h-170v1462h502q242 0 347 -106t105 -294t-73 -286q-74 -98 -228 -127l322 -649h-189l-301 631h-315z" />
    <glyph glyph-name="uni0211" unicode="&#x211;" horiz-adv-x="768" 
d="M387 1192h-117l-190 291h184zM662 1192h-117l-189 291h183zM180 0v1028h127l17 -96q82 117 245 117q102 0 199 -54l-68 -139q-74 49 -145 49q-113 0 -163 -95t-50 -308v-502h-162z" />
    <glyph glyph-name="uni0212" unicode="&#x212;" horiz-adv-x="1323" 
d="M607 1782q-87 0 -127 -35t-48 -123h-110q8 127 36 174q61 109 255 109t251 -125q21 -47 29 -158h-113q-8 88 -47 123t-126 35zM383 772h336q281 0 280 275q-1 141 -73 207t-226 67h-317v-549zM385 631v-631h-170v1462h502q242 0 347 -106t105 -294t-73 -286
q-74 -98 -228 -127l322 -649h-189l-301 631h-315z" />
    <glyph glyph-name="uni0213" unicode="&#x213;" horiz-adv-x="768" 
d="M425 1358q-87 0 -127 -35t-48 -123h-111q8 127 37 174q61 109 255 109t251 -125q21 -47 29 -158h-113q-10 88 -48 123t-125 35zM180 0v1028h127l17 -96q82 117 245 117q102 0 199 -54l-68 -139q-74 49 -145 49q-113 0 -163 -95t-50 -308v-502h-162z" />
    <glyph glyph-name="uni0214" unicode="&#x214;" horiz-adv-x="1413" 
d="M641 1616h-117l-190 291h184zM915 1616h-116l-189 291h183zM207 1462h170v-925q0 -197 53 -283q86 -129 286 -129t279 149q41 82 41 263v925h170v-925q0 -156 -18 -239t-70 -146q-128 -170 -422 -170t-420 194q-39 61 -54 139t-15 222v925z" />
    <glyph glyph-name="uni0215" unicode="&#x215;" horiz-adv-x="1136" 
d="M504 1192h-117l-190 291h184zM778 1192h-116l-189 291h182zM172 1028h162v-573q0 -135 26 -207q48 -127 186 -127t193 89t56 296v522h161v-1028h-125l-12 115q-86 -133 -282 -133q-266 0 -334 198q-31 86 -31 258v590z" />
    <glyph glyph-name="uni0216" unicode="&#x216;" horiz-adv-x="1413" 
d="M708 1782q-87 0 -127 -35t-49 -123h-110q8 127 37 174q61 109 255 109t251 -125q20 -47 28 -158h-112q-8 88 -47 123t-126 35zM207 1462h170v-925q0 -197 53 -283q86 -129 286 -129t279 149q41 82 41 263v925h170v-925q0 -156 -18 -239t-70 -146q-128 -170 -422 -170
t-420 194q-39 61 -54 139t-15 222v925z" />
    <glyph glyph-name="uni0217" unicode="&#x217;" horiz-adv-x="1136" 
d="M568 1358q-87 0 -127 -35t-48 -123h-110q8 127 36 174q61 109 255 109t251 -125q21 -47 29 -158h-113q-10 88 -48 123t-125 35zM172 1028h162v-573q0 -135 26 -207q48 -127 186 -127t193 89t56 296v522h161v-1028h-125l-12 115q-86 -133 -282 -133q-266 0 -334 198
q-31 86 -31 258v590z" />
    <glyph glyph-name="Scommaaccent" unicode="&#x218;" horiz-adv-x="1185" 
d="M434 -455l107 314h170l-162 -314h-115zM586 125q160 0 248 69q88 68 88 194t-88 187q-41 29 -75 40t-196 53q-225 57 -321 152t-96 272q0 176 118 282q119 106 330 107q301 0 422 -185l-129 -84q-92 127 -299 127q-129 1 -203 -65t-74 -180t75 -176q74 -62 240 -104
t218 -61t106 -57q137 -94 137 -298t-130 -310t-371 -106q-359 0 -494 215l133 86q94 -158 361 -158z" />
    <glyph glyph-name="scommaaccent" unicode="&#x219;" horiz-adv-x="968" 
d="M297 -455l106 314h170l-161 -314h-115zM715 289q0 92 -70 127q-47 24 -215 48t-231 79q-82 71 -82 209t88 218t252 79q256 0 372 -164l-122 -76q-47 57 -101 81t-137 23q-197 0 -197 -161q0 -80 64 -119q43 -23 208 -47t234 -74q92 -68 92 -227q0 -303 -409 -303
q-291 -1 -402 159l119 76q52 -55 114 -78t163 -22q260 0 260 172z" />
    <glyph glyph-name="uni021A" unicode="&#x21a;" horiz-adv-x="1134" 
d="M389 -455l107 314h170l-162 -314h-115zM485 0v1319h-422v143h1010v-143h-418v-1319h-170z" />
    <glyph glyph-name="uni021B" unicode="&#x21b;" horiz-adv-x="684" 
d="M211 -455l106 314h170l-161 -314h-115zM215 893h-125v135h125l8 330h154v-330h203v-135h-203v-567q0 -109 37 -150t137 -39h35v-137h-37q-201 0 -267 68t-67 274v551z" />
    <glyph glyph-name="uni0226" unicode="&#x226;" horiz-adv-x="1228" 
d="M535 1632v213h159v-213h-159zM893 461l-277 784l-276 -784h553zM936 319h-641l-111 -319h-184l535 1462h161l535 -1462h-184z" />
    <glyph glyph-name="uni0227" unicode="&#x227;" horiz-adv-x="1075" 
d="M473 1208v213h160v-213h-160zM739 481h-231q-136 0 -194 -44t-58 -144t52 -138t201 -38t202 67q29 37 28 138v159zM739 604v72q0 111 -37 164q-54 74 -198 74t-236 -105l-112 86q134 154 374 154t328 -150q43 -78 43 -248v-651h-129l-12 74q-49 -52 -116 -72t-183 -20
q-199 0 -280 68t-81 242q0 173 86 243t306 69h247z" />
    <glyph glyph-name="uni0237" unicode="&#x237;" horiz-adv-x="534" 
d="M190 1028h162v-1053q4 -256 -85 -352t-330 -94v137q139 -6 198 63t55 230v1069z" />
    <glyph glyph-name="afii57929" unicode="&#x2bc;" horiz-adv-x="382" 
d="M68 975l73 487h174l-112 -487h-135z" />
    <glyph glyph-name="uni02C0" unicode="&#x2c0;" horiz-adv-x="1024" 
d="M477 1870q-37 0 -96 -27l-31 94q80 31 158 31t124 -37t46 -102q0 -33 -11 -55t-41 -63t-35 -57t-7 -59h-119q2 70 9 93q6 22 36 64t31 69q0 49 -64 49z" />
    <glyph glyph-name="circumflex" unicode="&#x2c6;" horiz-adv-x="1024" 
d="M512 1366l-139 -166h-172l260 275h104l260 -275h-172z" />
    <glyph glyph-name="caron" unicode="&#x2c7;" horiz-adv-x="1024" 
d="M514 1307l139 163h172l-260 -272h-104l-260 272h172z" />
    <glyph glyph-name="uni02C9" unicode="&#x2c9;" horiz-adv-x="1024" 
d="M250 1268v118h526v-118h-526z" />
    <glyph glyph-name="breve" unicode="&#x2d8;" horiz-adv-x="1024" 
d="M227 1464h111q10 -88 49 -123t126 -35t125 36q38 34 48 122h113q-8 -121 -37 -174q-61 -108 -255 -108t-253 127q-21 44 -27 155z" />
    <glyph glyph-name="dotaccent" unicode="&#x2d9;" horiz-adv-x="1024" 
d="M432 1208v213h160v-213h-160z" />
    <glyph glyph-name="ring" unicode="&#x2da;" horiz-adv-x="1024" 
d="M614 1382q0 122 -102 123q-102 0 -102 -123t102 -122q102 0 102 122zM512 1591q98 0 156 -57q58 -56 59 -150q0 -94 -59 -152q-60 -58 -156 -58t-156 58q-59 58 -59 152t58 151q59 56 157 56z" />
    <glyph glyph-name="ogonek" unicode="&#x2db;" horiz-adv-x="1024" 
d="M549 -215q0 -84 104 -84q51 0 119 20l16 -94q-80 -29 -163 -28q-223 0 -224 161q0 150 199 240h148q-199 -113 -199 -215z" />
    <glyph glyph-name="tilde" unicode="&#x2dc;" horiz-adv-x="1024" 
d="M377 1456q86 0 160 -66t108 -65q55 0 84 115h105q-25 -106 -48 -150q-47 -86 -135 -86t-161 66t-107 65q-61 1 -90 -114h-105q27 106 52 147q51 88 137 88z" />
    <glyph glyph-name="hungarumlaut" unicode="&#x2dd;" horiz-adv-x="1024" 
d="M578 1192l122 291h183l-189 -291h-116zM301 1192l123 291h184l-190 -291h-117z" />
    <glyph glyph-name="uni0309" unicode="&#x309;" horiz-adv-x="1024" 
d="M477 1452q-41 0 -96 -27l-31 97q80 28 158 28t124 -37t46 -102q0 -33 -11 -55t-41 -63q-30 -40 -35 -56t-7 -59h-119q2 70 9 92q6 22 36 66q30 43 31 67q0 49 -64 49z" />
    <glyph glyph-name="uni0312" unicode="&#x312;" horiz-adv-x="1024" 
d="M410 1192l227 291h125l-154 -291h-198z" />
    <glyph glyph-name="uni0313" unicode="&#x313;" horiz-adv-x="155" 
d="M-16 1008l53 471h168l-107 -471h-114z" />
    <glyph glyph-name="uni031B" unicode="&#x31b;" horiz-adv-x="155" 
d="M-16 1008l53 471h168l-107 -471h-114z" />
    <glyph glyph-name="uni0323" unicode="&#x323;" horiz-adv-x="1024" 
d="M432 -395v213h160v-213h-160z" />
    <glyph glyph-name="uni037E" unicode="&#x37e;" horiz-adv-x="577" 
d="M219 825v205h170v-205h-170zM117 -385l96 588h184l-139 -588h-141z" />
    <glyph glyph-name="uni0387" unicode="&#x387;" horiz-adv-x="575" 
d="M205 643v203h170v-203h-170z" />
    <glyph glyph-name="uni04D4" unicode="&#x4d4;" horiz-adv-x="1945" 
d="M975 479v840h-23l-542 -840h565zM975 338h-647l-215 -338h-197l961 1462h952v-143h-686v-508h583v-143h-583v-525h686v-143h-854v338z" />
    <glyph glyph-name="uni04D5" unicode="&#x4d5;" horiz-adv-x="1708" 
d="M905 604h518v17q0 127 -58 209t-208 83q-150 0 -207 -104q-45 -78 -45 -188v-17zM739 481h-231q-136 0 -194 -44t-58 -143t53 -138t197 -39t196 76q37 53 37 178v110zM905 438q-1 -321 295 -321q148 0 227 100l123 -78q-116 -157 -366 -157t-359 161q-57 -92 -135 -127
q-78 -34 -253 -34t-256 68t-81 242q0 173 86 243t306 69h247v72q0 111 -37 164q-54 74 -198 74t-236 -105l-112 86q129 154 360 154t324 -138q102 137 320 137t318 -119q100 -120 101 -374v-74h-674v-43z" />
    <glyph glyph-name="uni1E02" unicode="&#x1e02;" horiz-adv-x="1308" 
d="M547 1632v213h160v-213h-160zM770 141q256 -1 256 269t-256 270h-387v-539h387zM739 1321h-356v-500h356q123 0 185 53q74 68 73 197q0 250 -258 250zM213 0v1462h539q203 0 303 -88q113 -106 112 -291q0 -219 -172 -319l19 -12q55 -32 77 -52t42 -55q63 -100 63 -250
q0 -213 -129 -317q-94 -78 -287 -78h-567z" />
    <glyph glyph-name="uni1E03" unicode="&#x1e03;" horiz-adv-x="1157" 
d="M588 1208v213h160v-213h-160zM850 446v136q0 332 -250 331q-256 0 -256 -315v-168q0 -315 256 -315q250 -1 250 331zM182 0v1462h162v-512q106 98 293 98t281 -110q94 -111 94 -346v-156q0 -238 -94 -348t-297 -108q-154 0 -242 59q-14 8 -60 49l-10 -88h-127z" />
    <glyph glyph-name="uni1E0C" unicode="&#x1e0c;" horiz-adv-x="1388" 
d="M559 -395v213h160v-213h-160zM383 141h268q201 -3 295 101t94 331v316q0 227 -94 331t-295 101h-268v-1180zM213 0v1462h467q266 4 402 -138t128 -419v-348q8 -277 -127 -419t-403 -138h-467z" />
    <glyph glyph-name="uni1E0D" unicode="&#x1e0d;" horiz-adv-x="1157" 
d="M530 -395v213h160v-213h-160zM307 582v-136q0 -330 250 -329q256 0 256 313v168q0 315 -256 315q-250 1 -250 -331zM145 592q-1 236 93 346t292 111q135 0 226 -52q35 -27 57 -47v512h162v-1462h-127l-10 88q-5 -5 -11 -8q-18 -18 -28 -27q-77 -71 -271 -71t-288 110
t-95 344v156z" />
    <glyph glyph-name="uni1E1E" unicode="&#x1e1e;" horiz-adv-x="1118" 
d="M569 1632v213h160v-213h-160zM213 0v1462h848v-143h-678v-518h575v-144h-575v-657h-170z" />
    <glyph glyph-name="uni1E1F" unicode="&#x1e1f;" horiz-adv-x="679" 
d="M342 1632v213h160v-213h-160zM225 893h-127v135h127v166q1 156 63 214t226 54h94v-133h-59q-96 5 -129 -27t-33 -128v-146h234v-135h-234v-893h-162v893z" />
    <glyph glyph-name="uni1E24" unicode="&#x1e24;" horiz-adv-x="1394" 
d="M616 -395v213h160v-213h-160zM213 0v1462h170v-651h627v651h170v-1462h-170v668h-627v-668h-170z" />
    <glyph glyph-name="uni1E25" unicode="&#x1e25;" horiz-adv-x="1157" 
d="M498 -395v213h159v-213h-159zM180 0v1462h162v-516q90 102 270 103q270 0 342 -199q31 -88 31 -260v-590h-162v575q0 179 -54 257t-182 78q-129 0 -187 -90q-58 -89 -58 -290v-530h-162z" />
    <glyph glyph-name="uni1E44" unicode="&#x1e44;" horiz-adv-x="1476" 
d="M672 1632v213h159v-213h-159zM213 0v1462h164l721 -1171v1171h166v-1462h-164l-721 1171v-1171h-166z" />
    <glyph glyph-name="uni1E45" unicode="&#x1e45;" horiz-adv-x="1157" 
d="M498 1208v213h159v-213h-159zM180 0v1028h125l12 -115q88 135 291 136q276 0 346 -199q31 -88 31 -260v-590h-162v575q0 179 -54 257t-183 78q-128 0 -186 -90q-58 -89 -58 -298v-522h-162z" />
    <glyph glyph-name="uni1E5A" unicode="&#x1e5a;" horiz-adv-x="1323" 
d="M580 -395v213h159v-213h-159zM383 772h336q281 0 280 275q-1 141 -73 207t-226 67h-317v-549zM385 631v-631h-170v1462h502q242 0 347 -106t105 -294t-73 -286q-74 -98 -228 -127l322 -649h-189l-301 631h-315z" />
    <glyph glyph-name="uni1E5B" unicode="&#x1e5b;" horiz-adv-x="768" 
d="M180 -395v213h160v-213h-160zM180 0v1028h127l17 -96q82 117 245 117q102 0 199 -54l-68 -139q-74 49 -145 49q-113 0 -163 -95t-50 -308v-502h-162z" />
    <glyph glyph-name="uni1E62" unicode="&#x1e62;" horiz-adv-x="1185" 
d="M504 -395v213h160v-213h-160zM586 125q160 0 248 69q88 68 88 194t-88 187q-41 29 -75 40t-196 53q-225 57 -321 152t-96 272q0 176 118 282q119 106 330 107q301 0 422 -185l-129 -84q-92 127 -299 127q-129 1 -203 -65t-74 -180t75 -176q74 -62 240 -104t218 -61
t106 -57q137 -94 137 -298t-130 -310t-371 -106q-359 0 -494 215l133 86q94 -158 361 -158z" />
    <glyph glyph-name="uni1E63" unicode="&#x1e63;" horiz-adv-x="968" 
d="M391 -395v213h160v-213h-160zM715 289q0 92 -70 127q-47 24 -215 48t-231 79q-82 71 -82 209t88 218t252 79q256 0 372 -164l-122 -76q-47 57 -101 81t-137 23q-197 0 -197 -161q0 -80 64 -119q43 -23 208 -47t234 -74q92 -68 92 -227q0 -303 -409 -303q-291 -1 -402 159
l119 76q52 -55 114 -78t163 -22q260 0 260 172z" />
    <glyph glyph-name="uni1E6C" unicode="&#x1e6c;" horiz-adv-x="1134" 
d="M487 -395v213h160v-213h-160zM485 0v1319h-422v143h1010v-143h-418v-1319h-170z" />
    <glyph glyph-name="uni1E6D" unicode="&#x1e6d;" horiz-adv-x="684" 
d="M262 -395v213h160v-213h-160zM215 893h-125v135h125l8 330h154v-330h203v-135h-203v-567q0 -109 37 -150t137 -39h35v-137h-37q-201 0 -267 68t-67 274v551z" />
    <glyph glyph-name="Wgrave" unicode="&#x1e80;" horiz-adv-x="1794" 
d="M1004 1616h-125l-228 291h199zM426 0l-369 1462h172l277 -1200l330 1200h120l330 -1200l279 1200h172l-369 -1462h-145l-326 1165l-326 -1165h-145z" />
    <glyph glyph-name="wgrave" unicode="&#x1e81;" horiz-adv-x="1579" 
d="M897 1192h-125l-227 291h198zM395 0l-317 1028h166l225 -807l264 807h113l264 -807l227 807h166l-317 -1028h-133l-262 774l-265 -774h-131z" />
    <glyph glyph-name="Wacute" unicode="&#x1e82;" horiz-adv-x="1794" 
d="M795 1616l153 291h199l-229 -291h-123zM426 0l-369 1462h172l277 -1200l330 1200h120l330 -1200l279 1200h172l-369 -1462h-145l-326 1165l-326 -1165h-145z" />
    <glyph glyph-name="wacute" unicode="&#x1e83;" horiz-adv-x="1579" 
d="M688 1192l154 291h198l-229 -291h-123zM395 0l-317 1028h166l225 -807l264 807h113l264 -807l227 807h166l-317 -1028h-133l-262 774l-265 -774h-131z" />
    <glyph glyph-name="Wdieresis" unicode="&#x1e84;" horiz-adv-x="1794" 
d="M1022 1632v213h147v-213h-147zM623 1632v213h147v-213h-147zM426 0l-369 1462h172l277 -1200l330 1200h120l330 -1200l279 1200h172l-369 -1462h-145l-326 1165l-326 -1165h-145z" />
    <glyph glyph-name="wdieresis" unicode="&#x1e85;" horiz-adv-x="1579" 
d="M913 1208v213h148v-213h-148zM518 1208v213h148v-213h-148zM395 0l-317 1028h166l225 -807l264 807h113l264 -807l227 807h166l-317 -1028h-133l-262 774l-265 -774h-131z" />
    <glyph glyph-name="uni1E92" unicode="&#x1e92;" horiz-adv-x="1112" 
d="M496 -395v213h159v-213h-159zM104 0v121l676 1198h-639v143h830v-121l-676 -1198h709v-143h-900z" />
    <glyph glyph-name="uni1E93" unicode="&#x1e93;" horiz-adv-x="972" 
d="M420 -395v213h160v-213h-160zM92 0v104l522 789h-481v135h684v-104l-522 -789h555v-135h-758z" />
    <glyph glyph-name="uni1EA0" unicode="&#x1ea0;" horiz-adv-x="1228" 
d="M535 -395v213h159v-213h-159zM893 461l-277 784l-276 -784h553zM936 319h-641l-111 -319h-184l535 1462h161l535 -1462h-184z" />
    <glyph glyph-name="uni1EA1" unicode="&#x1ea1;" horiz-adv-x="1075" 
d="M457 -395v213h159v-213h-159zM739 481h-231q-136 0 -194 -44t-58 -144t52 -138t201 -38t202 67q29 37 28 138v159zM739 604v72q0 111 -37 164q-54 74 -198 74t-236 -105l-112 86q134 154 374 154t328 -150q43 -78 43 -248v-651h-129l-12 74q-49 -52 -116 -72t-183 -20
q-199 0 -280 68t-81 242q0 173 86 243t306 69h247z" />
    <glyph glyph-name="uni1EA2" unicode="&#x1ea2;" horiz-adv-x="1228" 
d="M686 1595h-119q0 59 6 82t38 71t32 73q0 49 -63 49q-43 0 -99 -27l-28 94q79 31 157 31t124 -37t46 -102q0 -33 -11 -55t-41 -63t-36 -57t-6 -59zM893 461l-277 784l-276 -784h553zM936 319h-641l-111 -319h-184l535 1462h161l535 -1462h-184z" />
    <glyph glyph-name="uni1EA3" unicode="&#x1ea3;" horiz-adv-x="1075" 
d="M616 1178h-120q2 68 9 90t37 67q30 44 31 68q0 49 -63 49q-43 0 -98 -27l-31 97q84 28 161 28t123 -37t46 -96t-58 -131q-27 -33 -32 -49t-5 -59zM739 481h-231q-136 0 -194 -44t-58 -144t52 -138t201 -38t202 67q29 37 28 138v159zM739 604v72q0 111 -37 164
q-54 74 -198 74t-236 -105l-112 86q134 154 374 154t328 -150q43 -78 43 -248v-651h-129l-12 74q-49 -52 -116 -72t-183 -20q-199 0 -280 68t-81 242q0 173 86 243t306 69h247z" />
    <glyph glyph-name="uni1EA4" unicode="&#x1ea4;" horiz-adv-x="1228" 
d="M614 1677l-137 -116h-166l254 219h99l254 -219h-166zM539 1835l116 231h156l-174 -231h-98zM893 461l-277 784l-276 -784h553zM936 319h-641l-111 -319h-184l535 1462h161l535 -1462h-184z" />
    <glyph glyph-name="uni1EA5" unicode="&#x1ea5;" horiz-adv-x="1075" 
d="M559 1253l-139 -116h-164l252 219h100l254 -219h-166zM483 1409l115 233h156l-174 -233h-97zM739 481h-231q-136 0 -194 -44t-58 -144t52 -138t201 -38t202 67q29 37 28 138v159zM739 604v72q0 111 -37 164q-54 74 -198 74t-236 -105l-112 86q134 154 374 154t328 -150
q43 -78 43 -248v-651h-129l-12 74q-49 -52 -116 -72t-183 -20q-199 0 -280 68t-81 242q0 173 86 243t306 69h247z" />
    <glyph glyph-name="uni1EA6" unicode="&#x1ea6;" horiz-adv-x="1228" 
d="M614 1677l-137 -116h-166l254 219h101l252 -219h-166zM688 1835h-98l-174 231h155zM893 461l-277 784l-276 -784h553zM936 319h-641l-111 -319h-184l535 1462h161l535 -1462h-184z" />
    <glyph glyph-name="uni1EA7" unicode="&#x1ea7;" horiz-adv-x="1075" 
d="M559 1253l-139 -116h-166l254 219h100l254 -219h-166zM631 1409h-96l-175 233h156zM739 481h-231q-136 0 -194 -44t-58 -144t52 -138t201 -38t202 67q29 37 28 138v159zM739 604v72q0 111 -37 164q-54 74 -198 74t-236 -105l-112 86q134 154 374 154t328 -150
q43 -78 43 -248v-651h-129l-12 74q-49 -52 -116 -72t-183 -20q-199 0 -280 68t-81 242q0 173 86 243t306 69h247z" />
    <glyph glyph-name="uni1EA8" unicode="&#x1ea8;" horiz-adv-x="1228" 
d="M608 1673l-137 -112h-166l254 208h100l254 -208h-165zM561 1802q0 44 8 64q7 20 33 52t27 50q1 29 -45 29t-97 -23l-28 80q69 25 139 25t111 -29t41 -74t-52 -98q-20 -20 -24 -32t-6 -44h-107zM893 461l-277 784l-276 -784h553zM936 319h-641l-111 -319h-184l535 1462
h161l535 -1462h-184z" />
    <glyph glyph-name="uni1EA9" unicode="&#x1ea9;" horiz-adv-x="1075" 
d="M553 1249l-137 -112h-166l252 209h100l254 -209h-166zM612 1378h-108q2 61 33 105q35 41 34 59q0 31 -44 31t-97 -23l-27 80q68 25 136 25q154 0 153 -109q0 -40 -36 -76t-40 -48t-4 -44zM739 481h-231q-136 0 -194 -44t-58 -144t52 -138t201 -38t202 67q29 37 28 138
v159zM739 604v72q0 111 -37 164q-54 74 -198 74t-236 -105l-112 86q134 154 374 154t328 -150q43 -78 43 -248v-651h-129l-12 74q-49 -52 -116 -72t-183 -20q-199 0 -280 68t-81 242q0 173 86 243t306 69h247z" />
    <glyph glyph-name="uni1EAA" unicode="&#x1eaa;" horiz-adv-x="1228" 
d="M623 1677l-138 -116h-166l254 219h101l252 -219h-164zM523 2052q66 0 124 -57q53 -59 84 -60q45 0 68 103h92q-27 -115 -61 -159t-102 -44t-121 58q-54 58 -83 59q-55 -1 -82 -103h-92q29 113 68 158t105 45zM893 461l-277 784l-276 -784h553zM936 319h-641l-111 -319
h-184l535 1462h161l535 -1462h-184z" />
    <glyph glyph-name="uni1EAB" unicode="&#x1eab;" horiz-adv-x="1075" 
d="M547 1253l-137 -116h-166l252 219h100l254 -219h-166zM448 1628q66 0 122 -58t85 -59q43 0 66 103h92q-27 -117 -61 -161t-100 -44q-67 0 -121 58t-85 59q-54 -1 -81 -103h-91q29 115 68 160q40 45 106 45zM739 481h-231q-136 0 -194 -44t-58 -144t52 -138t201 -38
t202 67q29 37 28 138v159zM739 604v72q0 111 -37 164q-54 74 -198 74t-236 -105l-112 86q134 154 374 154t328 -150q43 -78 43 -248v-651h-129l-12 74q-49 -52 -116 -72t-183 -20q-199 0 -280 68t-81 242q0 173 86 243t306 69h247z" />
    <glyph glyph-name="uni1EAC" unicode="&#x1eac;" horiz-adv-x="1228" 
d="M535 -395v213h159v-213h-159zM614 1790l-139 -164h-172l258 272h107l260 -272h-174zM893 461l-277 784l-276 -784h553zM936 319h-641l-111 -319h-184l535 1462h161l535 -1462h-184z" />
    <glyph glyph-name="uni1EAD" unicode="&#x1ead;" horiz-adv-x="1075" 
d="M457 -395v213h159v-213h-159zM539 1366l-142 -166h-172l260 275h105l260 -275h-172zM739 481h-231q-136 0 -194 -44t-58 -144t52 -138t201 -38t202 67q29 37 28 138v159zM739 604v72q0 111 -37 164q-54 74 -198 74t-236 -105l-112 86q134 154 374 154t328 -150
q43 -78 43 -248v-651h-129l-12 74q-49 -52 -116 -72t-183 -20q-199 0 -280 68t-81 242q0 173 86 243t306 69h247z" />
    <glyph glyph-name="uni1EAE" unicode="&#x1eae;" horiz-adv-x="1228" 
d="M616 1673q84 0 121 30t47 107h107q-6 -109 -35 -157q-59 -99 -249 -99t-242 115q-21 43 -27 141h106q10 -76 48 -106q40 -30 124 -31zM539 1835l116 231h156l-174 -231h-98zM893 461l-277 784l-276 -784h553zM936 319h-641l-111 -319h-184l535 1462h161l535 -1462h-184z
" />
    <glyph glyph-name="uni1EAF" unicode="&#x1eaf;" horiz-adv-x="1075" 
d="M538 1245q85 0 124 32t47 107h106q-8 -115 -35 -157q-62 -99 -250 -99t-243 115q-21 43 -27 141h107q8 -78 47 -108t124 -31zM463 1409l115 233h155l-174 -233h-96zM739 481h-231q-136 0 -194 -44t-58 -144t52 -138t201 -38t202 67q29 37 28 138v159zM739 604v72
q0 111 -37 164q-54 74 -198 74t-236 -105l-112 86q134 154 374 154t328 -150q43 -78 43 -248v-651h-129l-12 74q-49 -52 -116 -72t-183 -20q-199 0 -280 68t-81 242q0 173 86 243t306 69h247z" />
    <glyph glyph-name="uni1EB0" unicode="&#x1eb0;" horiz-adv-x="1228" 
d="M616 1673q84 0 121 30t47 107h107q-6 -109 -35 -157q-59 -99 -249 -99t-242 115q-21 43 -27 141h106q10 -76 48 -106q40 -30 124 -31zM694 1835h-96l-174 231h156zM893 461l-277 784l-276 -784h553zM936 319h-641l-111 -319h-184l535 1462h161l535 -1462h-184z" />
    <glyph glyph-name="uni1EB1" unicode="&#x1eb1;" horiz-adv-x="1075" 
d="M538 1245q85 0 124 32t47 107h106q-8 -115 -35 -157q-62 -99 -250 -99t-243 115q-21 43 -27 141h107q8 -78 47 -108t124 -31zM623 1409h-97l-174 233h156zM739 481h-231q-136 0 -194 -44t-58 -144t52 -138t201 -38t202 67q29 37 28 138v159zM739 604v72q0 111 -37 164
q-54 74 -198 74t-236 -105l-112 86q134 154 374 154t328 -150q43 -78 43 -248v-651h-129l-12 74q-49 -52 -116 -72t-183 -20q-199 0 -280 68t-81 242q0 173 86 243t306 69h247z" />
    <glyph glyph-name="uni1EB2" unicode="&#x1eb2;" horiz-adv-x="1228" 
d="M614 1669q86 0 125 32t47 109h105q-6 -109 -35 -157q-59 -99 -249 -99t-242 115q-21 43 -27 141h104q10 -80 48 -110t124 -31zM666 1784h-107q0 43 5 61t34 56t29 57q1 39 -47 39t-95 -23l-28 80q69 25 139 25t111 -31t41 -76t-42 -92t-40 -86v-10zM893 461l-277 784
l-276 -784h553zM936 319h-641l-111 -319h-184l535 1462h161l535 -1462h-184z" />
    <glyph glyph-name="uni1EB3" unicode="&#x1eb3;" horiz-adv-x="1075" 
d="M538 1243q85 0 124 32t49 109h104q-8 -115 -35 -157q-62 -99 -250 -99t-243 115q-21 43 -27 141h107q8 -80 47 -110t124 -31zM549 1534q0 39 -57 39q-33 0 -84 -23l-27 80q67 25 137 25t111 -31t41 -76t-47 -98q-19 -27 -25 -40t-8 -50h-109q2 63 35 109t33 65zM739 481
h-231q-136 0 -194 -44t-58 -144t52 -138t201 -38t202 67q29 37 28 138v159zM739 604v72q0 111 -37 164q-54 74 -198 74t-236 -105l-112 86q134 154 374 154t328 -150q43 -78 43 -248v-651h-129l-12 74q-49 -52 -116 -72t-183 -20q-199 0 -280 68t-81 242q0 173 86 243
t306 69h247z" />
    <glyph glyph-name="uni1EB4" unicode="&#x1eb4;" horiz-adv-x="1228" 
d="M601 1665q85 0 123 29t46 102h102q-6 -104 -34 -149q-59 -93 -244 -93t-238 107q-20 43 -26 135h102q8 -72 46 -102t123 -29zM715 1954q43 0 65 102h92q-26 -117 -60 -160t-102 -43t-122 62q-53 55 -82 55q-53 0 -82 -102h-92q28 114 68 158t107 44t121 -58t87 -58z
M893 461l-277 784l-276 -784h553zM936 319h-641l-111 -319h-184l535 1462h161l535 -1462h-184z" />
    <glyph glyph-name="uni1EB5" unicode="&#x1eb5;" horiz-adv-x="1075" 
d="M545 1241q84 0 122 29t48 102h102q-8 -109 -35 -149q-59 -93 -243 -93t-240 107q-19 37 -27 135h103q10 -72 48 -102t122 -29zM450 1647q66 0 123 -58q53 -59 84 -59q47 0 68 102h90q-25 -117 -59 -161t-102 -44q-67 0 -122 62q-53 55 -81 55q-55 0 -82 -102h-93
q29 113 68 159q40 46 106 46zM739 481h-231q-136 0 -194 -44t-58 -144t52 -138t201 -38t202 67q29 37 28 138v159zM739 604v72q0 111 -37 164q-54 74 -198 74t-236 -105l-112 86q134 154 374 154t328 -150q43 -78 43 -248v-651h-129l-12 74q-49 -52 -116 -72t-183 -20
q-199 0 -280 68t-81 242q0 173 86 243t306 69h247z" />
    <glyph glyph-name="uni1EB6" unicode="&#x1eb6;" horiz-adv-x="1228" 
d="M535 -395v213h159v-213h-159zM330 1890h110q10 -88 48 -123t126 -35t126 36q38 34 48 122h111q-4 -121 -35 -174q-66 -108 -258 -108t-250 125q-20 46 -26 157zM893 461l-277 784l-276 -784h553zM936 319h-641l-111 -319h-184l535 1462h161l535 -1462h-184z" />
    <glyph glyph-name="uni1EB7" unicode="&#x1eb7;" horiz-adv-x="1075" 
d="M457 -395v213h159v-213h-159zM276 1464h111q10 -88 49 -123t126 -35t126 36q39 34 49 122h111q-6 -121 -37 -174q-61 -108 -256 -108t-250 127q-23 49 -29 155zM739 481h-231q-136 0 -194 -44t-58 -144t52 -138t201 -38t202 67q29 37 28 138v159zM739 604v72
q0 111 -37 164q-54 74 -198 74t-236 -105l-112 86q134 154 374 154t328 -150q43 -78 43 -248v-651h-129l-12 74q-49 -52 -116 -72t-183 -20q-199 0 -280 68t-81 242q0 173 86 243t306 69h247z" />
    <glyph glyph-name="uni1EB8" unicode="&#x1eb8;" horiz-adv-x="1185" 
d="M571 -395v213h160v-213h-160zM213 0v1462h854v-143h-686v-508h586v-143h-586v-525h688v-143h-856z" />
    <glyph glyph-name="uni1EB9" unicode="&#x1eb9;" horiz-adv-x="1112" 
d="M475 -395v213h160v-213h-160zM569 913q-260 0 -260 -292v-17h516v17q0 127 -58 209t-198 83zM309 438q-1 -321 293 -321q146 0 229 100l121 -78q-117 -158 -372 -157q-221 0 -328 118q-106 119 -107 367v88q1 256 101 375t317 119t317 -119t101 -375v-74h-672v-43z" />
    <glyph glyph-name="uni1EBA" unicode="&#x1eba;" horiz-adv-x="1185" 
d="M725 1595h-121q2 61 7 84t37 70t32 72q0 49 -64 49q-37 0 -96 -27l-31 94q80 31 158 31t124 -37t46 -96t-57 -131q-25 -34 -30 -50t-5 -59zM213 0v1462h854v-143h-686v-508h586v-143h-586v-525h688v-143h-856z" />
    <glyph glyph-name="uni1EBB" unicode="&#x1ebb;" horiz-adv-x="1112" 
d="M641 1178h-121q2 66 9 90t38 67q31 44 31 68q0 49 -63 49q-39 0 -99 -27l-28 97q80 28 158 28t123 -37q46 -37 46 -102q0 -33 -11 -55t-41 -63q-30 -40 -36 -56t-6 -59zM569 913q-260 0 -260 -292v-17h516v17q0 127 -58 209t-198 83zM309 438q-1 -321 293 -321
q146 0 229 100l121 -78q-117 -158 -372 -157q-221 0 -328 118q-106 119 -107 367v88q1 256 101 375t317 119t317 -119t101 -375v-74h-672v-43z" />
    <glyph glyph-name="uni1EBC" unicode="&#x1ebc;" horiz-adv-x="1185" 
d="M518 1880q86 0 160 -66t108 -65q55 0 84 115h105q-25 -102 -47 -150q-48 -84 -136 -84t-163 70q-70 61 -107 61q-59 1 -88 -114h-104q27 106 51 145q51 88 137 88zM213 0v1462h854v-143h-686v-508h586v-143h-586v-525h688v-143h-856z" />
    <glyph glyph-name="uni1EBD" unicode="&#x1ebd;" horiz-adv-x="1112" 
d="M422 1456q86 0 160 -66t108 -65q55 0 84 115h105q-25 -106 -48 -150q-45 -86 -134 -86t-162 66t-107 65q-61 1 -90 -114h-105q27 106 52 147q51 88 137 88zM569 913q-260 0 -260 -292v-17h516v17q0 127 -58 209t-198 83zM309 438q-1 -321 293 -321q146 0 229 100l121 -78
q-117 -158 -372 -157q-221 0 -328 118q-106 119 -107 367v88q1 256 101 375t317 119t317 -119t101 -375v-74h-672v-43z" />
    <glyph glyph-name="uni1EBE" unicode="&#x1ebe;" horiz-adv-x="1185" 
d="M653 1677l-139 -116h-164l252 219h100l254 -219h-165zM578 1835l114 231h156l-172 -231h-98zM213 0v1462h854v-143h-686v-508h586v-143h-586v-525h688v-143h-856z" />
    <glyph glyph-name="uni1EBF" unicode="&#x1ebf;" horiz-adv-x="1112" 
d="M567 1253l-137 -116h-166l254 219h100l252 -219h-163zM492 1409l116 233h156l-174 -233h-98zM569 913q-260 0 -260 -292v-17h516v17q0 127 -58 209t-198 83zM309 438q-1 -321 293 -321q146 0 229 100l121 -78q-117 -158 -372 -157q-221 0 -328 118q-106 119 -107 367v88
q1 256 101 375t317 119t317 -119t101 -375v-74h-672v-43z" />
    <glyph glyph-name="uni1EC0" unicode="&#x1ec0;" horiz-adv-x="1185" 
d="M653 1677l-139 -116h-164l252 219h100l254 -219h-165zM727 1835h-98l-174 231h155zM213 0v1462h854v-143h-686v-508h586v-143h-586v-525h688v-143h-856z" />
    <glyph glyph-name="uni1EC1" unicode="&#x1ec1;" horiz-adv-x="1112" 
d="M567 1253l-137 -116h-166l254 219h100l252 -219h-163zM641 1409h-98l-172 233h153zM569 913q-260 0 -260 -292v-17h516v17q0 127 -58 209t-198 83zM309 438q-1 -321 293 -321q146 0 229 100l121 -78q-117 -158 -372 -157q-221 0 -328 118q-106 119 -107 367v88
q1 256 101 375t317 119t317 -119t101 -375v-74h-672v-43z" />
    <glyph glyph-name="uni1EC2" unicode="&#x1ec2;" horiz-adv-x="1185" 
d="M647 1673l-137 -112h-166l254 208h100l252 -208h-164zM707 1802h-107q0 44 7 64t33 52t26 50q0 29 -44 29t-98 -23l-26 80q68 25 138 25t110 -29t40 -75t-49 -97q-20 -20 -25 -32t-5 -44zM213 0v1462h854v-143h-686v-508h586v-143h-586v-525h688v-143h-856z" />
    <glyph glyph-name="uni1EC3" unicode="&#x1ec3;" horiz-adv-x="1112" 
d="M563 1249l-139 -112h-164l252 209h100l254 -209h-166zM582 1542q0 31 -48 31t-94 -23l-26 80q68 25 138 25t110 -29t40 -74t-51 -98q-20 -23 -24 -33t-6 -43h-107q2 61 33 105q35 43 35 59zM569 913q-260 0 -260 -292v-17h516v17q0 127 -58 209t-198 83zM309 438
q-1 -321 293 -321q146 0 229 100l121 -78q-117 -158 -372 -157q-221 0 -328 118q-106 119 -107 367v88q1 256 101 375t317 119t317 -119t101 -375v-74h-672v-43z" />
    <glyph glyph-name="uni1EC4" unicode="&#x1ec4;" horiz-adv-x="1185" 
d="M662 1677l-138 -116h-166l254 219h99l254 -219h-166zM562 2052q66 0 122 -58t86 -59q45 0 68 103h90q-25 -115 -60 -159q-36 -44 -102 -44t-120 58t-85 59q-55 -1 -82 -103h-90q29 113 68 158t105 45zM213 0v1462h854v-143h-686v-508h586v-143h-586v-525h688v-143h-856z
" />
    <glyph glyph-name="uni1EC5" unicode="&#x1ec5;" horiz-adv-x="1112" 
d="M565 1253l-139 -116h-164l252 219h100l254 -219h-166zM466 1628q67 0 123 -58t85 -59q43 0 65 103h92q-27 -117 -61 -161t-100 -44q-68 0 -120 58t-85 59q-55 -1 -82 -103h-92q29 113 68 159q40 46 107 46zM569 913q-260 0 -260 -292v-17h516v17q0 127 -58 209t-198 83z
M309 438q-1 -321 293 -321q146 0 229 100l121 -78q-117 -158 -372 -157q-221 0 -328 118q-106 119 -107 367v88q1 256 101 375t317 119t317 -119t101 -375v-74h-672v-43z" />
    <glyph glyph-name="uni1EC6" unicode="&#x1ec6;" horiz-adv-x="1185" 
d="M571 -395v213h160v-213h-160zM645 1790l-139 -164h-172l260 272h104l260 -272h-172zM213 0v1462h854v-143h-686v-508h586v-143h-586v-525h688v-143h-856z" />
    <glyph glyph-name="uni1EC7" unicode="&#x1ec7;" horiz-adv-x="1112" 
d="M475 -395v213h160v-213h-160zM573 1366l-141 -166h-172l260 275h107l258 -275h-172zM569 913q-260 0 -260 -292v-17h516v17q0 127 -58 209t-198 83zM309 438q-1 -321 293 -321q146 0 229 100l121 -78q-117 -158 -372 -157q-221 0 -328 118q-106 119 -107 367v88
q1 256 101 375t317 119t317 -119t101 -375v-74h-672v-43z" />
    <glyph glyph-name="uni1EC8" unicode="&#x1ec8;" horiz-adv-x="595" 
d="M262 1870q-37 0 -96 -27l-31 94q80 31 158 31t124 -37t46 -102q0 -33 -11 -55t-41 -63t-35 -57t-7 -59h-119q2 70 9 93q7 22 37 64t30 69q0 49 -64 49zM213 0v1462h170v-1462h-170z" />
    <glyph glyph-name="uni1EC9" unicode="&#x1ec9;" horiz-adv-x="522" 
d="M225 1452q-41 0 -96 -27l-31 97q80 28 158 28t124 -37t46 -102q0 -33 -11 -55t-41 -63q-30 -40 -35 -56t-7 -59h-119q2 70 9 92q6 22 36 66q30 43 31 67q0 49 -64 49zM180 0v1028h162v-1028h-162z" />
    <glyph glyph-name="uni1ECA" unicode="&#x1eca;" horiz-adv-x="595" 
d="M217 -395v213h160v-213h-160zM213 0v1462h170v-1462h-170z" />
    <glyph glyph-name="uni1ECB" unicode="&#x1ecb;" horiz-adv-x="522" 
d="M180 -395v213h160v-213h-160zM180 0v1028h162v-1028h-162zM180 1251v217h162v-217h-162z" />
    <glyph glyph-name="uni1ECC" unicode="&#x1ecc;" horiz-adv-x="1384" 
d="M612 -395v213h160v-213h-160zM348 567q0 -442 344 -442q190 0 279 135q65 104 65 307v328q0 444 -344 442q-190 0 -278 -135q-66 -104 -66 -307v-328zM178 551v360q0 154 28 250t93 168q137 152 405 152t404 -176q98 -131 98 -394v-360q0 -156 -28 -251t-93 -167
q-137 -151 -405 -151t-401 176q-101 129 -101 393z" />
    <glyph glyph-name="uni1ECD" unicode="&#x1ecd;" horiz-adv-x="1140" 
d="M489 -395v213h160v-213h-160zM307 444q0 -327 262 -327q135 -1 200 79t65 248v140q0 168 -65 249t-199 81t-198 -82q-64 -80 -65 -248v-140zM145 434v160q1 231 103 343t321 112t323 -110t103 -345v-160q0 -233 -103 -343q-102 -109 -322 -109t-322 110t-103 342z" />
    <glyph glyph-name="uni1ECE" unicode="&#x1ece;" horiz-adv-x="1384" 
d="M764 1595h-121q2 66 9 91q8 26 38 68t31 67q0 49 -64 49q-37 0 -98 -27l-29 94q78 31 157 31t125 -37t46 -96t-57 -131q-25 -34 -31 -50t-6 -59zM348 567q0 -442 344 -442q190 0 279 135q65 104 65 307v328q0 444 -344 442q-190 0 -278 -135q-66 -104 -66 -307v-328z
M178 551v360q0 154 28 250t93 168q137 152 405 152t404 -176q98 -131 98 -394v-360q0 -156 -28 -251t-93 -167q-137 -151 -405 -151t-401 176q-101 129 -101 393z" />
    <glyph glyph-name="uni1ECF" unicode="&#x1ecf;" horiz-adv-x="1140" 
d="M641 1178h-119q0 66 7 90t38 67q31 44 31 68q0 49 -63 49q-39 0 -99 -27l-28 97q80 28 158 28t123 -37q46 -37 46 -102q0 -33 -11 -55t-41 -62q-30 -39 -36 -56t-6 -60zM307 444q0 -327 262 -327q135 -1 200 79t65 248v140q0 168 -65 249t-199 81t-198 -82
q-64 -80 -65 -248v-140zM145 434v160q1 231 103 343t321 112t323 -110t103 -345v-160q0 -233 -103 -343q-102 -109 -322 -109t-322 110t-103 342z" />
    <glyph glyph-name="uni1ED0" unicode="&#x1ed0;" horiz-adv-x="1384" 
d="M692 1677l-137 -116h-166l254 219h98l254 -219h-166zM616 1835l117 231h154l-172 -231h-99zM348 567q0 -442 344 -442q190 0 279 135q65 104 65 307v328q0 444 -344 442q-190 0 -278 -135q-66 -104 -66 -307v-328zM178 551v360q0 154 28 250t93 168q137 152 405 152
t404 -176q98 -131 98 -394v-360q0 -156 -28 -251t-93 -167q-137 -151 -405 -151t-401 176q-101 129 -101 393z" />
    <glyph glyph-name="uni1ED1" unicode="&#x1ed1;" horiz-adv-x="1140" 
d="M569 1253l-137 -116h-166l254 219h101l251 -219h-163zM494 1409l116 233h156l-174 -233h-98zM307 444q0 -327 262 -327q135 -1 200 79t65 248v140q0 168 -65 249t-199 81t-198 -82q-64 -80 -65 -248v-140zM145 434v160q1 231 103 343t321 112t323 -110t103 -345v-160
q0 -233 -103 -343q-102 -109 -322 -109t-322 110t-103 342z" />
    <glyph glyph-name="uni1ED2" unicode="&#x1ed2;" horiz-adv-x="1384" 
d="M692 1677l-137 -116h-166l254 219h100l252 -219h-166zM766 1835h-98l-174 231h155zM348 567q0 -442 344 -442q190 0 279 135q65 104 65 307v328q0 444 -344 442q-190 0 -278 -135q-66 -104 -66 -307v-328zM178 551v360q0 154 28 250t93 168q137 152 405 152t404 -176
q98 -131 98 -394v-360q0 -156 -28 -251t-93 -167q-137 -151 -405 -151t-401 176q-101 129 -101 393z" />
    <glyph glyph-name="uni1ED3" unicode="&#x1ed3;" horiz-adv-x="1140" 
d="M569 1253l-137 -116h-166l254 219h101l251 -219h-163zM643 1409h-98l-172 233h153zM307 444q0 -327 262 -327q135 -1 200 79t65 248v140q0 168 -65 249t-199 81t-198 -82q-64 -80 -65 -248v-140zM145 434v160q1 231 103 343t321 112t323 -110t103 -345v-160
q0 -233 -103 -343q-102 -109 -322 -109t-322 110t-103 342z" />
    <glyph glyph-name="uni1ED4" unicode="&#x1ed4;" horiz-adv-x="1384" 
d="M686 1673l-137 -112h-166l254 208h100l254 -208h-166zM745 1802h-106q0 44 8 64q7 20 33 52t27 50q1 29 -45 29t-97 -23l-28 80q69 25 139 25t110 -29t41 -74q0 -45 -51 -98q-20 -20 -26 -32t-5 -44zM348 567q0 -442 344 -442q190 0 279 135q65 104 65 307v328
q0 444 -344 442q-190 0 -278 -135q-66 -104 -66 -307v-328zM178 551v360q0 154 28 250t93 168q137 152 405 152t404 -176q98 -131 98 -394v-360q0 -156 -28 -251t-93 -167q-137 -151 -405 -151t-401 176q-101 129 -101 393z" />
    <glyph glyph-name="uni1ED5" unicode="&#x1ed5;" horiz-adv-x="1140" 
d="M565 1249l-139 -112h-164l252 209h100l254 -209h-166zM584 1542q0 31 -48 31t-94 -23l-26 80q68 25 138 25t110 -29q41 -29 41 -74t-52 -98q-20 -23 -24 -33t-6 -43h-107q2 66 35 106t33 58zM307 444q0 -327 262 -327q135 -1 200 79t65 248v140q0 168 -65 249t-199 81
t-198 -82q-64 -80 -65 -248v-140zM145 434v160q1 231 103 343t321 112t323 -110t103 -345v-160q0 -233 -103 -343q-102 -109 -322 -109t-322 110t-103 342z" />
    <glyph glyph-name="uni1ED6" unicode="&#x1ed6;" horiz-adv-x="1384" 
d="M700 1677l-137 -116h-166l254 219h101l252 -219h-164zM601 2052q66 0 124 -57q53 -59 84 -60q45 0 68 103h92q-27 -115 -62 -159t-101 -44t-121 58q-54 58 -83 59q-55 -1 -82 -103h-92q29 113 68 158t105 45zM348 567q0 -442 344 -442q190 0 279 135q65 104 65 307v328
q0 444 -344 442q-190 0 -278 -135q-66 -104 -66 -307v-328zM178 551v360q0 154 28 250t93 168q137 152 405 152t404 -176q98 -131 98 -394v-360q0 -156 -28 -251t-93 -167q-137 -151 -405 -151t-401 176q-101 129 -101 393z" />
    <glyph glyph-name="uni1ED7" unicode="&#x1ed7;" horiz-adv-x="1140" 
d="M580 1253l-140 -116h-166l254 219h101l254 -219h-166zM480 1628q66 0 122 -57q53 -59 86 -60q43 0 66 103h92q-27 -117 -61 -161q-33 -44 -101 -44t-120 58t-85 59q-55 -1 -82 -103h-92q29 113 69 159t106 46zM307 444q0 -327 262 -327q135 -1 200 79t65 248v140
q0 168 -65 249t-199 81t-198 -82q-64 -80 -65 -248v-140zM145 434v160q1 231 103 343t321 112t323 -110t103 -345v-160q0 -233 -103 -343q-102 -109 -322 -109t-322 110t-103 342z" />
    <glyph glyph-name="uni1ED8" unicode="&#x1ed8;" horiz-adv-x="1384" 
d="M612 -395v213h160v-213h-160zM692 1790l-139 -164h-172l258 272h106l261 -272h-175zM348 567q0 -442 344 -442q190 0 279 135q65 104 65 307v328q0 444 -344 442q-190 0 -278 -135q-66 -104 -66 -307v-328zM178 551v360q0 154 28 250t93 168q137 152 405 152t404 -176
q98 -131 98 -394v-360q0 -156 -28 -251t-93 -167q-137 -151 -405 -151t-401 176q-101 129 -101 393z" />
    <glyph glyph-name="uni1ED9" unicode="&#x1ed9;" horiz-adv-x="1140" 
d="M489 -395v213h160v-213h-160zM569 1366l-139 -166h-172l258 275h107l260 -275h-172zM307 444q0 -327 262 -327q135 -1 200 79t65 248v140q0 168 -65 249t-199 81t-198 -82q-64 -80 -65 -248v-140zM145 434v160q1 231 103 343t321 112t323 -110t103 -345v-160
q0 -233 -103 -343q-102 -109 -322 -109t-322 110t-103 342z" />
    <glyph glyph-name="uni1EDA" unicode="&#x1eda;" horiz-adv-x="1435" 
d="M637 1616l154 291h198l-229 -291h-123zM348 567q0 -442 344 -442q190 0 279 135q65 104 65 307v328q0 225 -80 328q-86 117 -272 117q-336 -1 -336 -445v-328zM1448 1407q0 -137 -121 -233q-47 -37 -135 -89q14 -86 14 -174v-360q0 -156 -28 -251t-93 -167
q-137 -151 -405 -151t-401 176q-100 129 -101 393v360q0 572 514 572q365 0 477 -293q84 53 114 94q30 42 30 96t-25 103h146q14 -43 14 -76z" />
    <glyph glyph-name="uni1EDB" unicode="&#x1edb;" horiz-adv-x="1191" 
d="M510 1192l154 291h198l-229 -291h-123zM307 444q0 -327 262 -327q135 -1 200 79t65 248v140q0 168 -65 249t-199 81t-198 -82q-64 -80 -65 -248v-140zM995 569v-135q0 -233 -103 -343q-102 -109 -322 -109t-322 110t-103 342v160q-1 233 103 344t323 111q338 0 406 -279
q65 43 90 84q25 40 25 92t-25 103h147q12 -39 13 -82q-1 -94 -55 -165t-183 -143q6 -59 6 -90z" />
    <glyph glyph-name="uni1EDC" unicode="&#x1edc;" horiz-adv-x="1435" 
d="M852 1616h-123l-229 291h198zM348 567q0 -442 344 -442q190 0 279 135q65 104 65 307v328q0 225 -80 328q-86 117 -272 117q-336 -1 -336 -445v-328zM1448 1407q0 -137 -121 -233q-47 -37 -135 -89q14 -86 14 -174v-360q0 -156 -28 -251t-93 -167q-137 -151 -405 -151
t-401 176q-100 129 -101 393v360q0 572 514 572q365 0 477 -293q84 53 114 94q30 42 30 96t-25 103h146q14 -43 14 -76z" />
    <glyph glyph-name="uni1EDD" unicode="&#x1edd;" horiz-adv-x="1191" 
d="M733 1192h-125l-227 291h197zM307 444q0 -327 262 -327q135 -1 200 79t65 248v140q0 168 -65 249t-199 81t-198 -82q-64 -80 -65 -248v-140zM995 569v-135q0 -233 -103 -343q-102 -109 -322 -109t-322 110t-103 342v160q-1 233 103 344t323 111q338 0 406 -279
q65 43 90 84q25 40 25 92t-25 103h147q12 -39 13 -82q-1 -94 -55 -165t-183 -143q6 -59 6 -90z" />
    <glyph glyph-name="uni1EDE" unicode="&#x1ede;" horiz-adv-x="1435" 
d="M737 1821q0 49 -63 49q-37 0 -99 -27l-28 94q79 31 157 31t124 -37t46 -102q0 -33 -11 -55t-41 -63t-35 -57t-7 -59h-118q2 68 9 92q7 23 37 65t29 69zM348 567q0 -442 344 -442q190 0 279 135q65 104 65 307v328q0 225 -80 328q-86 117 -272 117q-336 -1 -336 -445v-328
zM1448 1407q0 -137 -121 -233q-47 -37 -135 -89q14 -86 14 -174v-360q0 -156 -28 -251t-93 -167q-137 -151 -405 -151t-401 176q-100 129 -101 393v360q0 572 514 572q365 0 477 -293q84 53 114 94q30 42 30 96t-25 103h146q14 -43 14 -76z" />
    <glyph glyph-name="uni1EDF" unicode="&#x1edf;" horiz-adv-x="1191" 
d="M567 1452q-39 0 -98 -27l-29 97q80 28 158 28t124 -37t46 -102q0 -33 -11 -55t-41 -62q-30 -39 -35 -55t-7 -61h-119q2 70 9 92q6 22 36 65q30 42 31 68q0 49 -64 49zM307 444q0 -327 262 -327q135 -1 200 79t65 248v140q0 168 -65 249t-199 81t-198 -82
q-64 -80 -65 -248v-140zM995 569v-135q0 -233 -103 -343q-102 -109 -322 -109t-322 110t-103 342v160q-1 233 103 344t323 111q338 0 406 -279q65 43 90 84q25 40 25 92t-25 103h147q12 -39 13 -82q-1 -94 -55 -165t-183 -143q6 -59 6 -90z" />
    <glyph glyph-name="uni1EE0" unicode="&#x1ee0;" horiz-adv-x="1435" 
d="M591 1880q85 0 159 -66t108 -65q55 0 84 115h105q-25 -102 -48 -150q-47 -84 -135 -84t-162 66t-108 65q-59 1 -88 -114h-105q27 104 50 145q55 88 140 88zM348 567q0 -442 344 -442q190 0 279 135q65 104 65 307v328q0 225 -80 328q-86 117 -272 117q-336 -1 -336 -445
v-328zM1448 1407q0 -137 -121 -233q-47 -37 -135 -89q14 -86 14 -174v-360q0 -156 -28 -251t-93 -167q-137 -151 -405 -151t-401 176q-100 129 -101 393v360q0 572 514 572q365 0 477 -293q84 53 114 94q30 42 30 96t-25 103h146q14 -43 14 -76z" />
    <glyph glyph-name="uni1EE1" unicode="&#x1ee1;" horiz-adv-x="1191" 
d="M469 1456q86 0 160 -66t108 -65q55 0 84 115h107q-27 -109 -49 -150q-45 -86 -135 -86t-164 70q-70 61 -105 61q-61 1 -88 -114h-106q25 100 51 147q51 88 137 88zM307 444q0 -327 262 -327q135 -1 200 79t65 248v140q0 168 -65 249t-199 81t-198 -82q-64 -80 -65 -248
v-140zM995 569v-135q0 -233 -103 -343q-102 -109 -322 -109t-322 110t-103 342v160q-1 233 103 344t323 111q338 0 406 -279q65 43 90 84q25 40 25 92t-25 103h147q12 -39 13 -82q-1 -94 -55 -165t-183 -143q6 -59 6 -90z" />
    <glyph glyph-name="uni1EE2" unicode="&#x1ee2;" horiz-adv-x="1435" 
d="M584 -395v213h159v-213h-159zM348 567q0 -442 344 -442q190 0 279 135q65 104 65 307v328q0 225 -80 328q-86 117 -272 117q-336 -1 -336 -445v-328zM1448 1407q0 -137 -121 -233q-47 -37 -135 -89q14 -86 14 -174v-360q0 -156 -28 -251t-93 -167q-137 -151 -405 -151
t-401 176q-100 129 -101 393v360q0 572 514 572q365 0 477 -293q84 53 114 94q30 42 30 96t-25 103h146q14 -43 14 -76z" />
    <glyph glyph-name="uni1EE3" unicode="&#x1ee3;" horiz-adv-x="1191" 
d="M483 -395v213h160v-213h-160zM307 444q0 -327 262 -327q135 -1 200 79t65 248v140q0 168 -65 249t-199 81t-198 -82q-64 -80 -65 -248v-140zM995 569v-135q0 -233 -103 -343q-102 -109 -322 -109t-322 110t-103 342v160q-1 233 103 344t323 111q338 0 406 -279
q65 43 90 84q25 40 25 92t-25 103h147q12 -39 13 -82q-1 -94 -55 -165t-183 -143q6 -59 6 -90z" />
    <glyph glyph-name="uni1EE4" unicode="&#x1ee4;" horiz-adv-x="1413" 
d="M625 -395v213h159v-213h-159zM207 1462h170v-925q0 -197 53 -283q86 -129 286 -129t279 149q41 82 41 263v925h170v-925q0 -156 -18 -239t-70 -146q-128 -170 -422 -170t-420 194q-39 61 -54 139t-15 222v925z" />
    <glyph glyph-name="uni1EE5" unicode="&#x1ee5;" horiz-adv-x="1136" 
d="M487 -395v213h160v-213h-160zM172 1028h162v-573q0 -135 26 -207q48 -127 186 -127t193 89t56 296v522h161v-1028h-125l-12 115q-86 -133 -282 -133q-266 0 -334 198q-31 86 -31 258v590z" />
    <glyph glyph-name="uni1EE6" unicode="&#x1ee6;" horiz-adv-x="1413" 
d="M778 1595h-121q1 67 9 89t38 67t31 70q0 49 -63 49q-37 0 -99 -27l-30 94q81 31 159 31t124 -37t46 -102q0 -33 -11 -55t-42 -63t-36 -57t-5 -59zM207 1462h170v-925q0 -197 53 -283q86 -129 286 -129t279 149q41 82 41 263v925h170v-925q0 -156 -18 -239t-70 -146
q-128 -170 -422 -170t-420 194q-39 61 -54 139t-15 222v925z" />
    <glyph glyph-name="uni1EE7" unicode="&#x1ee7;" horiz-adv-x="1136" 
d="M532 1452q-41 0 -96 -27l-30 97q80 28 158 28t123 -37q46 -37 46 -102q0 -33 -11 -55t-41 -63q-30 -40 -35 -56t-7 -59h-119q2 70 9 92t37 66q30 43 30 67q0 49 -64 49zM172 1028h162v-573q0 -135 26 -207q48 -127 186 -127t193 89t56 296v522h161v-1028h-125l-12 115
q-86 -133 -282 -133q-266 0 -334 198q-31 86 -31 258v590z" />
    <glyph glyph-name="uni1EE8" unicode="&#x1ee8;" horiz-adv-x="1490" 
d="M668 1616l153 291h199l-227 -291h-125zM207 1462h170v-925q0 -197 53 -283q86 -129 286 -129t279 149q41 82 41 263v925h170v-305q106 51 151 101q44 50 44 112t-25 113h148q12 -39 12 -82q0 -109 -71 -185t-259 -172v-507q0 -156 -18 -239t-70 -146q-128 -170 -422 -170
t-420 194q-39 61 -54 139t-15 222v925z" />
    <glyph glyph-name="uni1EE9" unicode="&#x1ee9;" horiz-adv-x="1224" 
d="M512 1192l154 291h198l-229 -291h-123zM172 1028h162v-573q0 -135 26 -207q48 -127 186 -127t193 89t56 296v522h161v-305q111 53 153 102t42 111t-25 113h148q12 -41 12 -82q0 -147 -153 -256q-47 -35 -177 -101v-610h-125l-12 115q-86 -133 -282 -133q-266 0 -334 198
q-31 86 -31 258v590z" />
    <glyph glyph-name="uni1EEA" unicode="&#x1eea;" horiz-adv-x="1490" 
d="M809 1616h-123l-229 291h198zM207 1462h170v-925q0 -197 53 -283q86 -129 286 -129t279 149q41 82 41 263v925h170v-305q106 51 151 101q44 50 44 112t-25 113h148q12 -39 12 -82q0 -109 -71 -185t-259 -172v-507q0 -156 -18 -239t-70 -146q-128 -170 -422 -170t-420 194
q-39 61 -54 139t-15 222v925z" />
    <glyph glyph-name="uni1EEB" unicode="&#x1eeb;" horiz-adv-x="1224" 
d="M666 1192h-123l-228 291h197zM172 1028h162v-573q0 -135 26 -207q48 -127 186 -127t193 89t56 296v522h161v-305q111 53 153 102t42 111t-25 113h148q12 -41 12 -82q0 -147 -153 -256q-47 -35 -177 -101v-610h-125l-12 115q-86 -133 -282 -133q-266 0 -334 198
q-31 86 -31 258v590z" />
    <glyph glyph-name="uni1EEC" unicode="&#x1eec;" horiz-adv-x="1490" 
d="M799 1595h-121q2 66 10 91q8 26 38 68t30 67q0 49 -64 49q-37 0 -98 -27l-29 94q76 31 156 31t126 -37t46 -96t-57 -131q-25 -34 -31 -50t-6 -59zM207 1462h170v-925q0 -197 53 -283q86 -129 286 -129t279 149q41 82 41 263v925h170v-305q106 51 151 101q44 50 44 112
t-25 113h148q12 -39 12 -82q0 -109 -71 -185t-259 -172v-507q0 -156 -18 -239t-70 -146q-128 -170 -422 -170t-420 194q-39 61 -54 139t-15 222v925z" />
    <glyph glyph-name="uni1EED" unicode="&#x1eed;" horiz-adv-x="1224" 
d="M571 1403q0 49 -63 49q-41 0 -96 -27l-31 97q79 28 157 28t124 -37t47 -102q1 -33 -11 -55t-42 -62q-30 -39 -35 -55t-7 -61h-118q2 61 7 83q5 21 37 69t31 73zM172 1028h162v-573q0 -135 26 -207q48 -127 186 -127t193 89t56 296v522h161v-305q111 53 153 102t42 111
t-25 113h148q12 -41 12 -82q0 -147 -153 -256q-47 -35 -177 -101v-610h-125l-12 115q-86 -133 -282 -133q-266 0 -334 198q-31 86 -31 258v590z" />
    <glyph glyph-name="uni1EEE" unicode="&#x1eee;" horiz-adv-x="1490" 
d="M566 1880q87 0 161 -66t107 -65q57 0 86 115h104q-25 -104 -49 -150q-47 -84 -135 -84t-160 66q-74 66 -109 65q-59 1 -88 -114h-104q27 104 49 145q51 88 138 88zM207 1462h170v-925q0 -197 53 -283q86 -129 286 -129t279 149q41 82 41 263v925h170v-305q106 51 151 101
q44 50 44 112t-25 113h148q12 -39 12 -82q0 -109 -71 -185t-259 -172v-507q0 -156 -18 -239t-70 -146q-128 -170 -422 -170t-420 194q-39 61 -54 139t-15 222v925z" />
    <glyph glyph-name="uni1EEF" unicode="&#x1eef;" horiz-adv-x="1224" 
d="M430 1456q86 0 160 -66t108 -65q57 0 84 115h107q-27 -109 -49 -150q-44 -86 -134 -86t-165 70q-70 61 -105 61q-61 1 -88 -114h-106q25 100 51 147q51 88 137 88zM172 1028h162v-573q0 -135 26 -207q48 -127 186 -127t193 89t56 296v522h161v-305q111 53 153 102t42 111
t-25 113h148q12 -41 12 -82q0 -147 -153 -256q-47 -35 -177 -101v-610h-125l-12 115q-86 -133 -282 -133q-266 0 -334 198q-31 86 -31 258v590z" />
    <glyph glyph-name="uni1EF0" unicode="&#x1ef0;" horiz-adv-x="1490" 
d="M629 -395v213h159v-213h-159zM207 1462h170v-925q0 -197 53 -283q86 -129 286 -129t279 149q41 82 41 263v925h170v-305q106 51 151 101q44 50 44 112t-25 113h148q12 -39 12 -82q0 -109 -71 -185t-259 -172v-507q0 -156 -18 -239t-70 -146q-128 -170 -422 -170t-420 194
q-39 61 -54 139t-15 222v925z" />
    <glyph glyph-name="uni1EF1" unicode="&#x1ef1;" horiz-adv-x="1224" 
d="M514 -395v213h160v-213h-160zM172 1028h162v-573q0 -135 26 -207q48 -127 186 -127t193 89t56 296v522h161v-305q111 53 153 102t42 111t-25 113h148q12 -41 12 -82q0 -147 -153 -256q-47 -35 -177 -101v-610h-125l-12 115q-86 -133 -282 -133q-266 0 -334 198
q-31 86 -31 258v590z" />
    <glyph glyph-name="Ygrave" unicode="&#x1ef2;" horiz-adv-x="1089" 
d="M651 1616h-125l-227 291h199zM461 0v528l-461 934h180l367 -760l364 760h181l-461 -934v-528h-170z" />
    <glyph glyph-name="ygrave" unicode="&#x1ef3;" horiz-adv-x="999" 
d="M606 1192h-125l-227 291h199zM123 -334q115 0 160 33t90 151l51 152l-379 1026h164l301 -844l268 844h164l-403 -1194q-72 -197 -145 -250t-271 -55v137z" />
    <glyph glyph-name="uni1EF4" unicode="&#x1ef4;" horiz-adv-x="1089" 
d="M463 -395v213h160v-213h-160zM461 0v528l-461 934h180l367 -760l364 760h181l-461 -934v-528h-170z" />
    <glyph glyph-name="uni1EF5" unicode="&#x1ef5;" horiz-adv-x="999" 
d="M637 -395v213h160v-213h-160zM123 -334q115 0 160 33t90 151l51 152l-379 1026h164l301 -844l268 844h164l-403 -1194q-72 -197 -145 -250t-271 -55v137z" />
    <glyph glyph-name="uni1EF6" unicode="&#x1ef6;" horiz-adv-x="1089" 
d="M616 1595h-120q2 61 7 84t37 70t31 72q0 49 -63 49q-37 0 -96 -27l-31 94q79 31 157 31t124 -37t47 -96q0 -59 -58 -131q-25 -34 -30 -50t-5 -59zM461 0v528l-461 934h180l367 -760l364 760h181l-461 -934v-528h-170z" />
    <glyph glyph-name="uni1EF7" unicode="&#x1ef7;" horiz-adv-x="999" 
d="M571 1178h-120q2 66 9 90q8 24 38 67q30 44 30 68q0 49 -63 49q-43 0 -98 -27l-31 97q84 28 160 28t124 -37q46 -37 46 -95t-60 -132q-25 -33 -30 -49t-5 -59zM123 -334q115 0 160 33t90 151l51 152l-379 1026h164l301 -844l268 844h164l-403 -1194q-72 -197 -145 -250
t-271 -55v137z" />
    <glyph glyph-name="uni1EF8" unicode="&#x1ef8;" horiz-adv-x="1089" 
d="M410 1880q86 0 160 -66t108 -65q55 0 84 115h106q-27 -104 -49 -150q-47 -84 -135 -84t-161 66t-109 65q-59 1 -88 -114h-105q27 106 51 145q52 88 138 88zM461 0v528l-461 934h180l367 -760l364 760h181l-461 -934v-528h-170z" />
    <glyph glyph-name="uni1EF9" unicode="&#x1ef9;" horiz-adv-x="999" 
d="M364 1456q86 0 160 -66t109 -65q55 0 84 115h106q-27 -109 -49 -150q-45 -86 -134 -86t-162 66t-107 65q-61 1 -90 -114h-105q27 106 51 147q51 88 137 88zM123 -334q115 0 160 33t90 151l51 152l-379 1026h164l301 -844l268 844h164l-403 -1194q-72 -197 -145 -250
t-271 -55v137z" />
    <glyph glyph-name="uni2002" unicode="&#x2002;" horiz-adv-x="1024" 
 />
    <glyph glyph-name="uni2003" unicode="&#x2003;" horiz-adv-x="2048" 
 />
    <glyph glyph-name="uni2004" unicode="&#x2004;" horiz-adv-x="681" 
 />
    <glyph glyph-name="uni2005" unicode="&#x2005;" horiz-adv-x="512" 
 />
    <glyph glyph-name="uni2006" unicode="&#x2006;" horiz-adv-x="342" 
 />
    <glyph glyph-name="uni2007" unicode="&#x2007;" 
 />
    <glyph glyph-name="uni2008" unicode="&#x2008;" horiz-adv-x="0" 
 />
    <glyph glyph-name="uni2009" unicode="&#x2009;" horiz-adv-x="409" 
 />
    <glyph glyph-name="uni200A" unicode="&#x200a;" horiz-adv-x="256" 
 />
    <glyph glyph-name="uni2011" unicode="&#x2011;" horiz-adv-x="974" 
d="M199 672v143h575v-143h-575z" />
    <glyph glyph-name="figuredash" unicode="&#x2012;" 
d="M156 672v143h792v-143h-792z" />
    <glyph glyph-name="endash" unicode="&#x2013;" 
d="M156 672v143h792v-143h-792z" />
    <glyph glyph-name="emdash" unicode="&#x2014;" 
d="M6 672v143h1094v-143h-1094z" />
    <glyph glyph-name="afii00208" unicode="&#x2015;" 
d="M6 672v143h1094v-143h-1094z" />
    <glyph glyph-name="underscoredbl" unicode="&#x2017;" horiz-adv-x="962" 
d="M-51 -262v98h1065v-98h-1065zM-51 -438v98h1065v-98h-1065z" />
    <glyph glyph-name="quoteleft" unicode="&#x2018;" horiz-adv-x="382" 
d="M315 1462l-73 -487h-174l112 487h135z" />
    <glyph glyph-name="quoteright" unicode="&#x2019;" horiz-adv-x="382" 
d="M68 975l73 487h174l-112 -487h-135z" />
    <glyph glyph-name="quotesinglbase" unicode="&#x201a;" horiz-adv-x="382" 
d="M68 -285l73 488h174l-112 -488h-135z" />
    <glyph glyph-name="quotedblleft" unicode="&#x201c;" horiz-adv-x="753" 
d="M315 1462l-73 -487h-174l112 487h135zM686 1462l-74 -487h-172l113 487h133z" />
    <glyph glyph-name="quotedblright" unicode="&#x201d;" horiz-adv-x="753" 
d="M440 975l74 487h172l-111 -487h-135zM68 975l73 487h174l-112 -487h-135z" />
    <glyph glyph-name="quotedblbase" unicode="&#x201e;" horiz-adv-x="753" 
d="M440 -285l74 488h172l-111 -488h-135zM68 -285l73 488h174l-112 -488h-135z" />
    <glyph glyph-name="dagger" unicode="&#x2020;" 
d="M471 864h-340v144h340v454h166v-454h338v-144h-338v-1186h-166v1186z" />
    <glyph glyph-name="daggerdbl" unicode="&#x2021;" 
d="M471 864h-340v144h340v454h166v-454h338v-144h-338v-319h313v-144h-313v-723h-166v723h-313v144h313v319z" />
    <glyph glyph-name="bullet" unicode="&#x2022;" 
d="M554 1083q148 0 249 -98q100 -99 100 -243t-100 -242t-250 -98t-250 98t-100 243t101 243q102 97 250 97z" />
    <glyph glyph-name="ellipsis" unicode="&#x2026;" horiz-adv-x="1732" 
d="M1360 0v205h170v-205h-170zM782 0v205h170v-205h-170zM205 0v205h170v-205h-170z" />
    <glyph glyph-name="perthousand" unicode="&#x2030;" horiz-adv-x="2553" 
d="M598 0l459 1462h153l-458 -1462h-154zM2322 322v149q0 229 -166 229t-167 -229v-149q0 -231 168 -232q165 1 165 232zM1849 305v182q0 168 74 245q75 77 233 77t232 -77t74 -245v-182q0 -168 -74 -246q-74 -77 -233 -77t-233 78t-73 245zM1579 322v149q0 229 -168 229
t-168 -229v-149q0 -231 168 -232q168 1 168 232zM1104 305v182q0 168 74 245t234 77t233 -77q74 -77 73 -245v-182q0 -168 -74 -246q-74 -77 -233 -77t-233 78t-74 245zM563 991v150q0 231 -167 231t-167 -231v-150q0 -229 167 -229t167 229zM90 975v182q0 168 74 246
t232 78t233 -78q74 -78 73 -246v-182q0 -168 -74 -245t-232 -77t-232 77t-74 245z" />
    <glyph glyph-name="guilsinglleft" unicode="&#x2039;" horiz-adv-x="509" 
d="M256 604l180 -254l-96 -71l-266 325l266 326l96 -72z" />
    <glyph glyph-name="guilsinglright" unicode="&#x203a;" horiz-adv-x="509" 
d="M254 604l-182 254l98 72l264 -326l-264 -325l-98 71z" />
    <glyph glyph-name="uni203E" unicode="&#x203e;" horiz-adv-x="962" 
d="M-51 1661v121h1065v-121h-1065z" />
    <glyph glyph-name="fraction" unicode="&#x2044;" horiz-adv-x="329" 
d="M-127 0l459 1462h155l-460 -1462h-154z" />
    <glyph glyph-name="zerosuperior" unicode="&#x2070;" horiz-adv-x="720" 
d="M504 1114v232q0 229 -144 229t-143 -229v-232q-1 -231 143 -231t144 231zM86 1104v250q0 168 66 246t208 77q142 0 209 -78q66 -78 66 -245v-250q0 -168 -66 -246t-209 -78q-142 0 -208 78t-66 246z" />
    <glyph glyph-name="foursuperior" unicode="&#x2074;" horiz-adv-x="714" 
d="M442 791v165h-383v80l301 631h144l-289 -604h227v188h121v-188h92v-109h-92v-163h-121z" />
    <glyph glyph-name="fivesuperior" unicode="&#x2075;" horiz-adv-x="706" 
d="M356 1341q264 -1 264 -281t-276 -280q-135 0 -204 52t-77 147l127 20q25 -111 146 -110q70 0 110 45t39 123q0 182 -143 182q-82 0 -141 -55l-99 18l45 465h447v-108h-332l-26 -244q61 27 120 26z" />
    <glyph glyph-name="sixsuperior" unicode="&#x2076;" horiz-adv-x="714" 
d="M360 883q141 0 141 179t-141 179t-141 -179t141 -179zM401 1341q117 0 183 -81q49 -56 49 -200t-65 -212t-208 -68q-144 0 -208 67t-64 216q0 74 14 122t58 122l209 360h157l-202 -336q41 10 77 10z" />
    <glyph glyph-name="sevensuperior" unicode="&#x2077;" horiz-adv-x="524" 
d="M4 1559v108h477v-80l-256 -796h-147l256 768h-330z" />
    <glyph glyph-name="eightsuperior" unicode="&#x2078;" horiz-adv-x="714" 
d="M510 1040q0 160 -154 160t-154 -160t154 -159q154 -1 154 159zM493 1436q0 144 -136 145q-136 0 -136 -144t137 -145q135 0 135 144zM98 1438q0 124 62 183q62 58 196 58q132 0 196 -58t64 -181q0 -66 -18 -107t-63 -78q106 -57 106 -205t-68 -209q-68 -63 -216 -63
t-217 62q-68 62 -68 212q0 148 106 203q-80 59 -80 183z" />
    <glyph glyph-name="ninesuperior" unicode="&#x2079;" horiz-adv-x="714" 
d="M356 1249q141 0 141 163t-141 163t-141 -163t141 -163zM313 1151q-229 0 -229 260q0 139 64 203q65 63 207 63t208 -63t66 -199q-1 -73 -11 -109t-45 -102l-225 -413h-158l209 368q-55 -8 -86 -8z" />
    <glyph glyph-name="zeroinferior" unicode="&#x2080;" horiz-adv-x="720" 
d="M504 119v229q0 231 -144 232q-143 0 -143 -232v-229q0 -231 143 -232q144 1 144 232zM86 109v249q0 168 66 246t208 78t209 -78q66 -78 66 -246v-249q0 -168 -66 -246t-209 -78q-142 0 -208 78t-66 246z" />
    <glyph glyph-name="oneinferior" unicode="&#x2081;" horiz-adv-x="483" 
d="M199 -205v744l-158 -62l-37 101l236 94h94v-877h-135z" />
    <glyph glyph-name="twoinferior" unicode="&#x2082;" horiz-adv-x="700" 
d="M86 -205v86l258 307q131 154 131 256q0 60 -35 96t-96 35q-121 0 -149 -129l-125 15q20 119 86 171t192 52q262 0 262 -244q0 -82 -35 -152t-135 -186l-166 -198h334v-109h-522z" />
    <glyph glyph-name="threeinferior" unicode="&#x2083;" horiz-adv-x="700" 
d="M215 209v96h90q66 0 112 40t46 98q0 59 -38 95t-99 35q-113 0 -142 -102l-121 16q17 103 79 149t188 46q268 0 268 -236q0 -70 -26 -112t-85 -76q135 -63 136 -219q0 -254 -297 -254q-168 0 -242 80q-31 33 -47 117l127 24q27 -113 158 -112q76 0 120 40t45 110
q0 71 -50 118t-126 47h-96z" />
    <glyph glyph-name="fourinferior" unicode="&#x2084;" horiz-adv-x="714" 
d="M442 -205v164h-383v80l301 633h144l-289 -606h227v190h121v-190h92v-109h-92v-162h-121z" />
    <glyph glyph-name="fiveinferior" unicode="&#x2085;" horiz-adv-x="706" 
d="M356 346q264 0 264 -280t-276 -281q-265 0 -281 199l127 20q25 -111 146 -110q70 0 110 45t39 122q0 182 -143 183q-82 0 -141 -56l-99 19l45 465h447v-109h-332l-26 -244q61 27 120 27z" />
    <glyph glyph-name="sixinferior" unicode="&#x2086;" horiz-adv-x="714" 
d="M501 66q0 180 -141 180t-141 -179t141 -180t141 179zM401 346q117 0 183 -82q49 -57 49 -200t-65 -211t-208 -68q-144 0 -208 67t-64 216q0 74 14 122t58 121l209 361h157l-202 -336q43 10 77 10z" />
    <glyph glyph-name="seveninferior" unicode="&#x2087;" horiz-adv-x="524" 
d="M6 563v109h477v-80l-256 -797h-147l256 768h-330z" />
    <glyph glyph-name="eightinferior" unicode="&#x2088;" horiz-adv-x="714" 
d="M510 45q0 160 -154 160t-154 -160t154 -160t154 160zM357 586q-136 0 -136 -144t136 -145q136 1 136 145t-136 144zM98 443q0 125 62 183t196 58q132 0 196 -58t64 -182q0 -66 -18 -106t-63 -78q106 -56 106 -204t-68 -210t-216 -63q-148 0 -217 62q-68 62 -68 211
t106 204q-80 59 -80 183z" />
    <glyph glyph-name="nineinferior" unicode="&#x2089;" horiz-adv-x="714" 
d="M356 254q141 0 141 163t-141 163t-141 -163t141 -163zM313 156q-229 0 -229 260q0 139 64 202q65 64 207 64t208 -64t66 -198q-1 -72 -11 -110t-45 -101l-225 -414h-158l209 369q-55 -8 -86 -8z" />
    <glyph glyph-name="franc" unicode="&#x20a3;" horiz-adv-x="1523" 
d="M918 0v909h124l19 -106q47 69 105 97t150 28t185 -47l-65 -136q-72 45 -138 46q-117 1 -169 -97t-52 -311v-383h-159zM184 0v1462h684v-143h-518v-518h416v-144h-416v-657h-166z" />
    <glyph glyph-name="lira" unicode="&#x20a4;" 
d="M125 0v123q98 35 165 136t66 216q0 20 -2 39h-245v119h219q-16 43 -49 106h-170v119h112q-57 121 -57 223q0 186 108 293q109 106 297 107q367 0 445 -369l-144 -37q-31 111 -67 160q-78 106 -223 106q-113 1 -180 -67q-66 -68 -66 -174t76 -242h391v-119h-334
q29 -70 37 -106h297v-119h-287q2 -49 2 -57q0 -170 -156 -314h676v-143h-911z" />
    <glyph glyph-name="peseta" unicode="&#x20a7;" 
d="M365 1071h469q-23 264 -295 254h-174v-254zM365 952v-264h174q272 -6 297 264h-471zM201 952h-183v119h183v391h331q438 12 467 -391h144v-119h-144q-25 -414 -467 -401h-165v-551h-166v952z" />
    <glyph glyph-name="uni20AB" unicode="&#x20ab;" 
d="M238 582v-136q0 -330 249 -329q256 0 256 313v168q0 315 -256 315q-249 1 -249 -331zM743 1171h-309v115h309v176h162v-176h168v-115h-168v-1171h-127l-10 88q-4 -2 -6 -6l-4 -2q-18 -18 -29 -27q-77 -71 -271 -71t-288 110t-94 344v156q0 236 93 346t292 111
q101 -1 159 -21t123 -78v221zM86 -358v120h915v-120h-915z" />
    <glyph glyph-name="Euro" unicode="&#x20ac;" 
d="M172 614v117h-190l47 119h143v33q0 303 100 438q119 158 353 158q195 -1 305 -97t117 -276l-158 -12q-12 115 -81 178t-181 63q-149 1 -217 -107t-68 -345v-33h565l-47 -119h-518v-117h467l-47 -118h-418q10 -195 81 -285t203 -90q255 0 290 211l147 -19
q-10 -163 -122 -249t-306 -87q-445 0 -463 519h-186l47 118h137z" />
    <glyph glyph-name="uni20B4" unicode="&#x20b4;" 
d="M807 1090q0 126 -68 192t-188 66q-166 0 -234 -121l-127 71q104 182 365 183q190 -1 299 -105t109 -286q-1 -84 -21 -140t-72 -116l156 -41l-31 -115l-223 59q-78 -39 -223 -82l412 -110l-31 -115l-557 150q-99 -70 -99 -200t78 -198t217 -67q219 0 308 141l129 -74
q-123 -201 -439 -200q-217 0 -333 104t-115 301q0 78 14 123t66 117l-158 43l31 112l215 -57q20 11 109 41t114 43l-404 106l31 115l549 -147q121 80 121 207z" />
    <glyph glyph-name="uni2101" unicode="&#x2101;" horiz-adv-x="1796" 
d="M1413 887q199 0 285 -123l-109 -66q-61 82 -180 82q-74 0 -117 -35t-43 -94t47 -94t172 -63t179 -62q88 -57 88 -185t-83 -193t-243 -64q-236 0 -330 141l111 66q63 -98 221 -99q88 0 140 38q53 38 53 103t-54 97q-25 16 -45 23t-142 35t-183 85q-62 57 -62 168t77 175
t218 65zM565 862l-164 434l-165 -434h329zM809 602l268 860h142l-461 -1462h-140l185 586h-133l-70 180h-399l-68 -180h-145l356 876h113z" />
    <glyph glyph-name="afii61248" unicode="&#x2105;" horiz-adv-x="1875" 
d="M616 0l459 1462h139l-458 -1462h-140zM1667 375v59q0 279 -226 279t-227 -279v-59q0 -276 226 -277q227 1 227 277zM1081 371v69q0 195 87 289q88 94 272 94t272 -93t88 -290v-69q0 -197 -88 -290t-272 -93t-272 94q-87 94 -87 289zM424 639q-350 0 -350 391v31
q0 414 348 414q197 0 283 -142l-103 -57q-63 88 -175 88t-166 -74t-54 -229v-33q0 -279 227 -278q128 0 189 86l100 -60q-94 -137 -299 -137z" />
    <glyph glyph-name="afii61289" unicode="&#x2113;" 
d="M827 1294q0 41 -15 66t-42 24q-66 0 -114 -140t-111 -519q282 323 282 569zM211 315q-11 1 -21 17t-10 38t56 74t135 144q90 520 175 715t220 194q72 0 116 -53t44 -137q0 -205 -162 -445q-82 -119 -238 -278q-59 -328 -59 -415t53 -87q32 0 54 22t54 84t62 62t29 -37
q0 -74 -78 -166q-72 -80 -160 -80q-152 0 -151 195q-1 87 26 284q-119 -131 -145 -131z" />
    <glyph glyph-name="afii61352" unicode="&#x2116;" horiz-adv-x="2359" 
d="M1497 0v135h735v-135h-735zM2073 725v55q-1 141 -51 208t-158 67t-157 -67q-50 -67 -50 -208v-55q0 -139 51 -206q52 -67 158 -67t156 68q50 66 51 205zM1497 719v67q0 204 90 304q89 100 277 100t278 -99t90 -305v-67q0 -205 -90 -303t-277 -98t-277 98t-91 303zM213 0
v1462h164l721 -1171v1171h166v-1462h-164l-721 1171v-1171h-166z" />
    <glyph glyph-name="trademark" unicode="&#x2122;" horiz-adv-x="1787" 
d="M819 586v876h129l281 -536l280 536h129v-876h-131v622l-233 -446h-90l-234 446v-622h-131zM295 586v768h-268v108h669v-108h-266v-768h-135z" />
    <glyph glyph-name="uni2126" unicode="&#x2126;" horiz-adv-x="1384" 
d="M1036 895q0 444 -344 442q-190 0 -278 -135q-66 -104 -66 -307v-178q-10 -379 244 -434v-283h-438v125h305v63q-139 46 -214 186t-67 335v202q0 154 28 250t93 168q137 152 405 152t402 -176q100 -129 100 -394v-202q8 -195 -66 -334t-214 -187v-63h305v-125h-438v283
q254 55 243 434v178z" />
    <glyph glyph-name="estimated" unicode="&#x212e;" horiz-adv-x="1228" 
d="M938 762v239q-20 71 -64 135q-90 130 -253 130q-115 0 -184 -58t-126 -204v-242h627zM1116 655h-805v-276q33 -106 72 -166q76 -111 242 -111q119 0 205 66t128 186h119q-47 -154 -100 -217q-129 -157 -361 -157t-367 184q-136 184 -136 511t138 519t374 192
q153 0 269 -84t169 -233q53 -148 53 -414z" />
    <glyph glyph-name="onethird" unicode="&#x2153;" horiz-adv-x="1761" 
d="M1186 414v96h90q68 0 113 39t45 98t-38 95t-100 36q-111 0 -139 -102l-123 16q16 102 80 148t189 47q266 0 266 -236q0 -71 -25 -113t-84 -75q133 -63 133 -219q0 -254 -297 -254q-168 0 -241 80q-31 33 -47 116l129 25q27 -113 157 -113q76 0 120 40t44 111t-49 118
t-125 47h-98zM459 0l459 1462h153l-459 -1462h-153zM301 586v743l-158 -61l-37 100l236 94h94v-876h-135z" />
    <glyph glyph-name="twothirds" unicode="&#x2154;" horiz-adv-x="1761" 
d="M575 0l459 1462h154l-459 -1462h-154zM1276 414v96h90q66 0 112 40t46 98t-38 94t-100 36q-113 0 -141 -102l-121 16q16 102 78 148t189 47q268 0 268 -236q0 -71 -26 -113t-85 -75q135 -66 135 -219q0 -254 -297 -254q-168 0 -241 80q-31 33 -47 116l127 25
q29 -113 157 -113q76 0 121 40t45 111t-50 118t-126 47h-96zM100 586v86l258 307q131 156 131 256q0 61 -34 96q-35 35 -97 35q-121 0 -149 -129l-125 14q20 119 85 171t193 53q262 0 263 -244q0 -82 -35 -152t-135 -186l-166 -199h334v-108h-523z" />
    <glyph glyph-name="uni2155" unicode="&#x2155;" horiz-adv-x="1761" 
d="M1567 877v-109h-332l-27 -244q61 27 121 27q264 0 264 -279q-1 -145 -71 -214t-219 -68q-244 0 -267 198l127 21q25 -111 146 -111q69 0 109 45t40 123q0 182 -143 183q-80 0 -141 -56l-99 19l45 465h447zM465 0l459 1462h153l-459 -1462h-153zM307 586v743l-157 -61
l-37 100l235 94h94v-876h-135z" />
    <glyph glyph-name="uni2156" unicode="&#x2156;" horiz-adv-x="1761" 
d="M578 0l458 1462h156l-459 -1462h-155zM1628 877v-109h-332l-26 -244q61 27 121 27q264 0 264 -281t-291 -280q-244 0 -268 198l129 21q25 -111 145 -111q70 0 110 45t40 123q0 182 -144 183q-82 0 -141 -56l-100 19l47 465h446zM104 586v86l258 307q131 156 132 256
q0 61 -35 96t-97 35q-121 0 -149 -129l-125 14q20 119 85 171t194 53q262 0 262 -244q0 -82 -35 -152t-135 -186l-166 -199h334v-108h-523z" />
    <glyph glyph-name="uni2157" unicode="&#x2157;" horiz-adv-x="1761" 
d="M565 0l461 1462h154l-459 -1462h-156zM1620 877v-109h-332l-26 -244q61 27 120 27q264 0 265 -279q0 -283 -291 -282q-244 0 -269 198l130 21q23 -111 145 -111q70 0 110 45t39 123q0 182 -143 183q-82 0 -141 -56l-101 19l48 465h446zM242 997v97h90q66 0 112 41t45 99
q0 58 -37 94q-38 36 -100 36q-113 0 -141 -102l-121 14q16 102 78 149t188 48q268 0 269 -236q0 -72 -26 -115t-85 -75q135 -66 135 -220q0 -252 -297 -252q-168 0 -241 80q-31 33 -48 117l127 23q27 -111 158 -111q78 0 122 40t44 111t-49 117t-127 45h-96z" />
    <glyph glyph-name="uni2158" unicode="&#x2158;" horiz-adv-x="1761" 
d="M578 0l458 1462h154l-459 -1462h-153zM1624 877v-109h-332l-26 -244q61 27 120 27q264 0 265 -279q0 -145 -71 -214t-220 -68q-242 0 -266 198l127 21q25 -111 145 -111q70 0 110 45t40 125q0 180 -144 181q-82 0 -141 -56l-98 19l45 465h446zM453 586v166h-383v79
l301 631h143l-289 -604h228v189h120v-189h93v-108h-93v-164h-120z" />
    <glyph glyph-name="uni2159" unicode="&#x2159;" horiz-adv-x="1761" 
d="M1312 451q-140 1 -140 -179t140 -180t140 180t-140 179zM1352 551q117 0 184 -82q47 -59 47 -201q-1 -142 -65 -211q-64 -67 -206 -67t-207 66t-65 216q0 74 15 122q14 48 55 122l211 361h158l-203 -336q43 10 76 10zM498 0l458 1462h154l-459 -1462h-153zM322 586v743
l-158 -61l-37 100l235 94h95v-876h-135z" />
    <glyph glyph-name="uni215A" unicode="&#x215a;" horiz-adv-x="1761" 
d="M584 0l460 1462h154l-459 -1462h-155zM1364 92q141 0 141 180t-141 179q-141 1 -141 -179t141 -180zM1405 551q119 0 184 -82q47 -63 47 -203t-64 -209q-64 -67 -208 -67q-143 0 -208 66t-64 216q0 74 13 122t58 122l209 361h158l-201 -336q41 10 76 10zM377 1137
q264 0 264 -281t-277 -281q-136 1 -204 53t-76 146l127 21q25 -111 145 -111q70 0 110 45t40 123q0 180 -144 180q-82 0 -141 -53l-98 18l45 465h446v-108h-331l-27 -244q61 27 121 27z" />
    <glyph glyph-name="oneeighth" unicode="&#x215b;" horiz-adv-x="1761" 
d="M1475 250q0 160 -154 160t-154 -160t154 -160t154 160zM1320 791q-136 -1 -136 -145t136 -144t136 144t-136 145zM1061 648q0 124 63 182q62 58 196 58t196 -58t63 -181q0 -67 -17 -107t-63 -77q107 -57 107 -205t-68 -210t-218 -62t-216 62q-68 62 -68 211t107 204
q-82 59 -82 183zM473 0l459 1462h153l-458 -1462h-154zM315 586v743l-157 -61l-37 100l235 94h95v-876h-136z" />
    <glyph glyph-name="threeeighths" unicode="&#x215c;" horiz-adv-x="1761" 
d="M575 0l459 1462h154l-459 -1462h-154zM1540 250q0 160 -155 160t-155 -160t156 -160q154 0 154 160zM1385 791q-136 -1 -136 -145t136 -144t136 144t-136 145zM1126 648q0 124 62 182t196 58q132 0 196 -58t65 -181q-1 -67 -19 -107t-63 -77q109 -57 109 -203t-69 -211
q-69 -63 -219 -63t-218 62t-66 211q0 149 106 204q-80 59 -80 183zM260 997v97h90q66 0 112 41t46 99t-38 94t-99 36q-113 0 -142 -102l-120 14q16 102 78 149t188 48q268 0 268 -236q0 -72 -26 -115t-85 -75q135 -66 136 -220q0 -252 -297 -252q-168 0 -242 80
q-31 33 -47 117l127 23q27 -111 158 -111q77 0 121 40t44 111t-49 117t-127 45h-96z" />
    <glyph glyph-name="fiveeighths" unicode="&#x215d;" horiz-adv-x="1761" 
d="M575 0l459 1462h154l-459 -1462h-154zM1390 410q-155 0 -155 -160t155 -160t154 160q1 160 -154 160zM1390 791q-136 -1 -136 -145t136 -144t136 144t-136 145zM1130 650q0 122 64 180t196 58q134 0 196 -58t62 -179t-79 -186q106 -57 106 -203t-68 -211
q-69 -63 -217 -63t-218 62q-68 62 -68 211t106 204q-80 63 -80 185zM395 1137q264 0 264 -281t-276 -281q-135 1 -204 53t-77 146l127 21q25 -111 146 -111q69 0 109 45t40 123q0 180 -143 180q-82 0 -141 -53l-99 18l45 465h447v-108h-332l-27 -244q61 27 121 27z" />
    <glyph glyph-name="seveneighths" unicode="&#x215e;" horiz-adv-x="1761" 
d="M518 0l459 1462h153l-458 -1462h-154zM1350 410q-154 0 -154 -160t154 -160t153 160q1 160 -153 160zM1349 791q-137 -1 -137 -145t136 -144t137 144q0 144 -136 145zM1634 260q0 -148 -67 -210t-217 -62t-218 62t-67 211q0 149 106 204q-82 61 -81 184q0 123 63 181
t197 58t195 -58q63 -58 63 -179t-80 -186q106 -57 106 -205zM133 1354v108h518v-80l-297 -796h-147l297 768h-371z" />
    <glyph glyph-name="arrowleft" unicode="&#x2190;" horiz-adv-x="1638" 
d="M1503 672h-1175l381 -379l-103 -103l-510 523v61l510 522l103 -102l-381 -379h1175v-143z" />
    <glyph glyph-name="arrowup" unicode="&#x2191;" horiz-adv-x="1638" 
d="M711 0v1243l-379 -379l-101 103l521 512h63l520 -512l-100 -103l-379 379v-1243h-145z" />
    <glyph glyph-name="arrowright" unicode="&#x2192;" horiz-adv-x="1638" 
d="M135 672v143h1176l-381 379l102 102l510 -522v-61l-510 -523l-102 103l381 379h-1176z" />
    <glyph glyph-name="arrowdown" unicode="&#x2193;" horiz-adv-x="1638" 
d="M711 1462h145v-1243l379 379l100 -102l-520 -512h-63l-521 512l101 102l379 -379v1243z" />
    <glyph glyph-name="arrowboth" unicode="&#x2194;" horiz-adv-x="1638" 
d="M1337 672h-1036l348 -346l-100 -103l-479 490v61l479 490l100 -103l-348 -346h1036l-346 346l101 103l479 -490v-61l-479 -490l-101 103z" />
    <glyph glyph-name="arrowupdn" unicode="&#x2195;" horiz-adv-x="1638" 
d="M713 188v1086l-348 -346l-101 102l490 477h61l490 -477l-103 -102l-346 346v-1086l346 347l103 -103l-490 -477h-61l-490 477l101 103z" />
    <glyph glyph-name="uni2196" unicode="&#x2196;" horiz-adv-x="1638" 
d="M438 498h-143v729l53 53h727v-143h-536l839 -842l-100 -100l-840 839v-536z" />
    <glyph glyph-name="uni2197" unicode="&#x2197;" horiz-adv-x="1638" 
d="M561 1137v143h729l53 -53v-729h-143v536l-842 -839l-100 100l842 842h-539z" />
    <glyph glyph-name="uni2198" unicode="&#x2198;" horiz-adv-x="1638" 
d="M1200 985h143v-729l-53 -53h-729v143h539l-842 840l100 102l842 -839v536z" />
    <glyph glyph-name="uni2199" unicode="&#x2199;" horiz-adv-x="1638" 
d="M1075 346v-143h-727l-53 53v729h143v-536l840 839l100 -102l-839 -840h536z" />
    <glyph glyph-name="partialdiff" unicode="&#x2202;" 
d="M815 442v127q0 168 -64 249q-65 81 -198 81q-264 0 -264 -330v-127q1 -168 65 -248t198 -79q134 -1 198 79t65 248zM975 434q1 -231 -103 -342q-104 -110 -320 -110t-320 111q-103 112 -103 341v144q0 453 397 452q133 0 215 -61l-18 35q-72 143 -80 155
q-143 168 -356 205l20 109q297 -33 457 -246q207 -266 211 -649v-144z" />
    <glyph glyph-name="emptyset" unicode="&#x2205;" 
d="M895 745q1 93 -29 159t-100 132l-348 -633q61 -23 127 -22q152 0 251 103t99 261zM518 1116q-137 0 -238 -99t-102 -265q0 -98 33 -167t113 -139l352 639q-102 31 -158 31zM1010 750q0 -209 -131 -343t-336 -135q-84 0 -176 31l-207 -379l-94 41l206 379
q-209 141 -209 406q-1 210 133 342t320 133q78 0 209 -37l188 340l95 -41l-191 -346q193 -145 193 -391z" />
    <glyph glyph-name="Delta" unicode="&#x2206;" 
d="M942 137l-385 1086l-387 -1086h772zM1171 0h-1230l544 1462h144z" />
    <glyph glyph-name="product" unicode="&#x220f;" horiz-adv-x="1193" 
d="M141 -422v1884h910v-1884h-166v1737h-578v-1737h-166z" />
    <glyph glyph-name="summation" unicode="&#x2211;" horiz-adv-x="1148" 
d="M119 -422v105l430 895l-410 772v112h938v-143h-729l397 -741l-401 -857h756v-143h-981z" />
    <glyph glyph-name="minus" unicode="&#x2212;" 
d="M72 676v135h962v-135h-962z" />
    <glyph glyph-name="uni2215" unicode="&#x2215;" horiz-adv-x="329" 
d="M-127 0l459 1462h155l-460 -1462h-154z" />
    <glyph glyph-name="uni2218" unicode="&#x2218;" 
d="M552 999q-112 -1 -186 -73t-75 -183q0 -111 75 -185q74 -74 186 -73q112 0 186 74q74 73 75 183q-1 110 -75 184t-186 73zM554 1090q151 0 253 -100t102 -246q0 -148 -102 -248t-255 -100t-255 100t-102 247t104 247t255 100z" />
    <glyph glyph-name="uni2219" unicode="&#x2219;" horiz-adv-x="575" 
d="M205 643v203h170v-203h-170z" />
    <glyph glyph-name="radical" unicode="&#x221a;" 
d="M41 610v140h276l172 -531l416 1563h525v-121h-394l-452 -1661h-172l-215 610h-156z" />
    <glyph glyph-name="infinity" unicode="&#x221e;" horiz-adv-x="1527" 
d="M1090 553q88 0 141 53t53 137q0 85 -53 137t-130 52q-154 0 -257 -168l-13 -21l15 -22q113 -168 244 -168zM428 932q-76 0 -129 -52t-53 -136t53 -138q53 -53 139 -53q131 0 246 168l14 22l-12 21q-49 78 -116 123q-66 45 -142 45zM1417 742q0 -142 -85 -226t-231 -84
t-247 92q-20 18 -90 113l-14 -21q-61 -90 -119 -127q-90 -57 -219 -57t-214 84t-85 226t85 228t229 85q144 0 249 -92q14 -13 88 -113l14 18q44 61 64 83q96 103 275 103q130 0 215 -84q85 -86 85 -228z" />
    <glyph glyph-name="integral" unicode="&#x222b;" horiz-adv-x="888" 
d="M420 1202q0 205 37 289q59 129 227 129q66 0 139 -18l-28 -134q-49 16 -82 17q-86 0 -115 -68q-16 -43 -16 -174v-1036q0 -205 -39 -291q-55 -127 -226 -127q-65 1 -139 21l29 131q49 -16 80 -17q90 0 116 68q16 43 17 180v1030z" />
    <glyph glyph-name="similar" unicode="&#x223c;" 
d="M356 891q60 1 106 -17t140 -82t152 -65q100 0 157 145l105 -30q-44 -128 -106 -186t-162 -58q-56 0 -100 17t-117 67t-105 66q-32 14 -70 14q-104 0 -159 -152l-107 25q42 139 104 197t162 59z" />
    <glyph glyph-name="uni2243" unicode="&#x2243;" 
d="M342 1065q59 0 104 -17q45 -16 119 -68t107 -68t67 -15q100 0 158 147l104 -30q-43 -132 -105 -188t-163 -56q-55 0 -99 17t-117 69t-105 66t-70 14q-103 0 -160 -152l-106 25q43 139 104 197t162 59zM86 516v129h905v-129h-905z" />
    <glyph glyph-name="approxequal" unicode="&#x2248;" 
d="M356 1065q58 0 104 -17q46 -16 120 -68t106 -68t68 -15q100 0 157 147l105 -30q-44 -132 -106 -188t-162 -56q-56 0 -100 17t-117 69t-105 66t-70 14q-102 0 -159 -152l-107 25q42 139 104 197t162 59zM754 553q100 0 157 145l105 -30q-44 -128 -106 -186t-162 -58
q-56 0 -100 17t-117 69t-105 65q-32 14 -70 15q-102 0 -159 -152l-107 25q42 139 104 197t162 59q60 1 106 -17t140 -84t152 -65z" />
    <glyph glyph-name="notequal" unicode="&#x2260;" 
d="M100 516v129h334l92 199h-426v129h486l110 241l123 -55l-86 -186h275v-129h-334l-92 -199h426v-129h-486l-110 -242l-123 56l86 186h-275z" />
    <glyph glyph-name="lessequal" unicode="&#x2264;" 
d="M100 0v135h838v-135h-838zM291 772l647 -307v-156l-838 410v104l838 412v-158z" />
    <glyph glyph-name="greaterequal" unicode="&#x2265;" 
d="M168 0v135h838v-135h-838zM815 772l-647 305v158l838 -412v-104l-838 -410v156z" />
    <glyph glyph-name="dotmath" unicode="&#x22c5;" horiz-adv-x="575" 
d="M205 643v203h170v-203h-170z" />
    <glyph glyph-name="filledrect" unicode="&#x25ac;" 
d="M231 420v645h641v-645h-641z" />
    <glyph glyph-name="uni25B4" unicode="&#x25b4;" 
d="M164 410l389 776l387 -776h-776z" />
    <glyph glyph-name="uni25B8" unicode="&#x25b8;" 
d="M246 354v776l774 -389z" />
    <glyph glyph-name="uni25BE" unicode="&#x25be;" 
d="M164 1075h776l-387 -776z" />
    <glyph glyph-name="uni25C2" unicode="&#x25c2;" 
d="M860 354l-774 387l774 389v-776z" />
    <glyph glyph-name="lozenge" unicode="&#x25ca;" 
d="M197 713l356 -518l354 518l-354 520zM14 713l539 772l537 -772l-537 -770z" />
    <glyph glyph-name="openbullet" unicode="&#x25e6;" 
d="M552 999q-112 -1 -186 -73t-75 -183q0 -111 75 -185q74 -74 186 -73q112 0 186 74q74 73 75 183q-1 110 -75 184t-186 73zM554 1090q151 0 253 -100t102 -246q0 -148 -102 -248t-255 -100t-255 100t-102 247t104 247t255 100z" />
    <glyph glyph-name="commaaccent" unicode="&#xf6c3;" horiz-adv-x="1024" 
d="M379 -455l106 314h170l-161 -314h-115z" />
    <glyph glyph-name="Acute" unicode="&#xf6c9;" horiz-adv-x="1024" 
d="M410 1616l153 291h199l-230 -291h-122z" />
    <glyph glyph-name="Caron" unicode="&#xf6ca;" horiz-adv-x="1024" 
d="M514 1731l139 165h172l-260 -274h-104l-260 274h172z" />
    <glyph glyph-name="Dieresis" unicode="&#xf6cb;" horiz-adv-x="1024" 
d="M637 1632v213h147v-213h-147zM238 1632v213h147v-213h-147z" />
    <glyph glyph-name="Grave" unicode="&#xf6ce;" horiz-adv-x="1024" 
d="M621 1616h-125l-228 291h199z" />
    <glyph glyph-name="Hungarumlaut" unicode="&#xf6cf;" horiz-adv-x="1024" 
d="M578 1616l122 291h183l-189 -291h-116zM301 1616l123 291h184l-190 -291h-117z" />
    <glyph glyph-name="Macron" unicode="&#xf6d0;" horiz-adv-x="1024" 
d="M250 1694v118h526v-118h-526z" />
    <glyph glyph-name="zerooldstyle" unicode="&#xf730;" horiz-adv-x="1050" 
d="M750 434v228q0 170 -54 244t-173 73q-120 0 -171 -74t-51 -243v-228q0 -170 51 -244t171 -74q119 0 173 74t54 244zM133 430v234q0 233 90 335q98 115 308 115t311 -135q76 -98 76 -315v-234q0 -231 -98 -340q-98 -108 -307 -108q-210 0 -306 135q-74 98 -74 313z" />
    <glyph glyph-name="oneoldstyle" unicode="&#xf731;" horiz-adv-x="696" 
d="M293 0v913l-252 -110l-53 135l358 156h117v-1094h-170z" />
    <glyph glyph-name="twooldstyle" unicode="&#xf732;" horiz-adv-x="911" 
d="M35 0v109l354 337q234 226 236 355q1 86 -53 132t-152 46q-186 0 -230 -176l-153 35q63 276 387 276q176 0 270 -79t94 -212t-77 -239q-47 -66 -201 -211l-248 -238h555v-135h-782z" />
    <glyph glyph-name="threeoldstyle" unicode="&#xf733;" horiz-adv-x="970" 
d="M256 360v138h133q115 0 185 68t71 180q0 111 -55 172t-152 61q-164 0 -202 -158l-152 41q47 136 129 194q81 58 245 58t260 -93t97 -267q0 -121 -48 -197t-157 -127q94 -37 133 -72q121 -100 121 -275t-90 -288q-111 -129 -354 -129q-170 0 -267 56t-137 178l158 57
q14 -74 78 -115t164 -41q145 0 212 80t66 203q0 123 -82 200t-213 76h-143z" />
    <glyph glyph-name="fouroldstyle" unicode="&#xf734;" horiz-adv-x="946" 
d="M627 -315v315h-592v104l450 990h181l-449 -961h410v449h147v-449h146v-135h-146v-313h-147z" />
    <glyph glyph-name="fiveoldstyle" unicode="&#xf735;" horiz-adv-x="1040" 
d="M475 -334q-315 0 -391 234l158 57q14 -72 76 -114t157 -42q264 0 264 320q0 157 -58 233t-182 76t-223 -92l-122 24l65 732h643v-144h-502l-45 -444q84 39 121 49t96 10q207 0 304 -131q74 -100 73 -305q0 -463 -434 -463z" />
    <glyph glyph-name="sixoldstyle" unicode="&#xf736;" horiz-adv-x="1087" 
d="M548 776q-122 0 -179 -79t-57 -249t56 -250q58 -81 179 -81t178 80q57 81 57 249t-56 249t-178 81zM596 905q184 0 285 -137q71 -102 71 -338t-104 -342t-312 -106q-210 0 -315 133q-80 98 -80 320t109 415l328 575h190l-328 -557l15 4l55 23q35 10 86 10z" />
    <glyph glyph-name="sevenoldstyle" unicode="&#xf737;" horiz-adv-x="811" 
d="M-14 950v144h737v-103l-430 -1306h-180l432 1265h-559z" />
    <glyph glyph-name="eightoldstyle" unicode="&#xf738;" horiz-adv-x="1118" 
d="M817 402q1 146 -61 212q-62 68 -196 68t-196 -66t-62 -213t62 -219t195 -72t196 72q62 72 62 218zM776 1062q0 130 -52 192t-165 61q-113 1 -165 -61t-52 -192t52 -192t165 -61q113 0 165 61q52 62 52 192zM180 1065q0 381 379 381t379 -379q0 -162 -72 -238
q-41 -45 -86 -69q106 -43 156 -127t49 -223q0 -220 -103 -324q-104 -104 -322 -104t-322 104t-105 322q0 141 49 225q50 84 156 127q-84 51 -121 121t-37 184z" />
    <glyph glyph-name="nineoldstyle" unicode="&#xf739;" horiz-adv-x="1087" 
d="M541 979q-121 0 -179 -80t-57 -249q0 -169 56 -250q57 -81 179 -81t179 79t57 250t-57 251t-178 80zM135 666q-1 234 103 342q104 106 314 106t314 -133q80 -99 80 -325t-108 -410l-326 -561h-190l325 540q-42 -12 -69 -24q-35 -10 -86 -11q-184 0 -285 140
q-72 102 -72 336z" />
    <glyph glyph-name="Dbreve" horiz-adv-x="1388" 
d="M365 1890h110q10 -88 49 -123t126 -35t125 36q38 34 48 122h113q-8 -121 -37 -174q-61 -108 -255 -108t-253 125q-20 48 -26 157zM383 141h268q201 -3 295 101t94 331v316q0 227 -94 331t-295 101h-268v-1180zM213 0v1462h467q266 4 402 -138t128 -419v-348
q8 -277 -127 -419t-403 -138h-467z" />
    <glyph glyph-name="ahungarumlaut" horiz-adv-x="1075" 
d="M604 1192l123 291h182l-188 -291h-117zM328 1192l123 291h184l-191 -291h-116zM739 481h-231q-136 0 -194 -44t-58 -144t52 -138t201 -38t202 67q29 37 28 138v159zM739 604v72q0 111 -37 164q-54 74 -198 74t-236 -105l-112 86q134 154 374 154t328 -150q43 -78 43 -248
v-651h-129l-12 74q-49 -52 -116 -72t-183 -20q-199 0 -280 68t-81 242q0 173 86 243t306 69h247z" />
    <glyph glyph-name="uni0204.sc" horiz-adv-x="976" 
d="M453 1249h-117l-191 291h185zM727 1249h-117l-188 291h182zM156 0v1094h692v-136h-529v-337h449v-136h-449v-350h531v-135h-694z" />
    <glyph glyph-name="uni0206.sc" horiz-adv-x="976" 
d="M538 1415q-87 0 -127 -35t-49 -123h-110q8 127 37 175q61 108 255 108t251 -125q20 -47 28 -158h-112q-10 88 -48 123t-125 35zM190 0v1094h693v-136h-529v-337h451v-136h-451v-350h531v-135h-695z" />
    <glyph glyph-name="uni0208.sc" horiz-adv-x="544" 
d="M209 1249h-117l-190 291h184zM483 1249h-116l-189 291h182zM190 0v1094h166v-1094h-166z" />
    <glyph glyph-name="uni020A.sc" horiz-adv-x="544" 
d="M273 1415q-87 0 -127 -35t-48 -123h-110q8 127 37 175q61 108 255 108t250 -125q21 -47 29 -158h-113q-10 88 -48 123t-125 35zM190 0v1094h164v-1094h-164z" />
    <glyph glyph-name="uni020C.sc" horiz-adv-x="1142" 
d="M485 1249h-116l-191 291h184zM760 1249h-117l-188 291h182zM801 444v205q-1 170 -61 250t-191 80t-191 -80t-61 -250v-205q0 -170 60 -248q59 -78 191 -79q132 1 192 79t61 248zM133 430v234q0 229 94 331q105 119 329 119t331 -137q78 -104 78 -313v-234
q0 -227 -103 -338q-104 -110 -324 -110t-327 137q-78 100 -78 311z" />
    <glyph glyph-name="uni020E.sc" horiz-adv-x="1142" 
d="M572 1415q-87 0 -127 -35t-48 -123h-110q8 127 37 175q60 108 254 108t251 -125q21 -47 29 -158h-113q-10 88 -48 123t-125 35zM823 444v205q0 170 -60 250q-59 80 -191 80t-192 -80t-61 -250v-205q1 -170 61 -248t191 -79q131 1 191 79t61 248zM156 430v234
q0 229 94 331q106 119 329 119t330 -137q78 -104 78 -313v-234q-1 -227 -103 -338q-102 -110 -323 -110t-328 137q-77 100 -77 311z" />
    <glyph glyph-name="uni0210.sc" horiz-adv-x="1099" 
d="M451 1249h-117l-191 291h185zM725 1249h-117l-188 291h182zM348 586h242q201 0 201 190q0 184 -213 185h-230v-375zM348 461v-461h-164v1094h406q201 0 282 -80q84 -78 84 -235t-88 -232q-45 -41 -143 -66l260 -481h-188l-232 461h-217z" />
    <glyph glyph-name="uni0212.sc" horiz-adv-x="1099" 
d="M511 1415q-87 0 -127 -35t-48 -123h-111q8 127 37 175q61 108 255 108t251 -125q21 -47 29 -158h-113q-10 88 -48 123t-125 35zM356 586h242q201 0 201 190q0 184 -213 185h-230v-375zM356 461v-461h-163v1094h405q201 0 284 -79t83 -236t-88 -232q-45 -41 -144 -66
l260 -481h-188l-232 461h-217z" />
    <glyph glyph-name="uni0214.sc" horiz-adv-x="1177" 
d="M498 1249h-117l-191 291h185zM772 1249h-117l-188 291h182zM158 1094h164v-693q0 -139 38 -196q61 -88 207 -88t205 102q31 53 31 182v693h164v-693q-1 -119 -15 -181t-55 -114q-104 -124 -344 -124t-340 145q-55 82 -55 274v693z" />
    <glyph glyph-name="uni0216.sc" horiz-adv-x="1177" 
d="M589 1415q-87 0 -127 -35t-48 -123h-111q8 127 37 175q61 108 255 108t251 -125q20 -47 28 -158h-112q-10 88 -48 123t-125 35zM184 1094h164v-693q0 -139 39 -196q61 -88 207 -88t205 102q31 53 30 182v693h164v-693q0 -119 -14 -181t-55 -114q-104 -124 -344 -124
t-340 145q-55 82 -56 274v693z" />
    <glyph glyph-name="uni1E24.sc" horiz-adv-x="1165" 
d="M502 -395v213h160v-213h-160zM190 0v1094h164v-473h457v473h164v-1094h-164v485h-457v-485h-164z" />
    <glyph glyph-name="uni1E5A.sc" horiz-adv-x="1099" 
d="M477 -395v213h160v-213h-160zM356 586h242q201 0 201 190q0 184 -213 185h-230v-375zM356 461v-461h-163v1094h405q201 0 284 -79t83 -236t-88 -232q-45 -41 -144 -66l260 -481h-188l-232 461h-217z" />
    <glyph glyph-name="uni1E62.sc" horiz-adv-x="956" 
d="M397 -395v213h160v-213h-160zM475 117q115 0 179 47t65 133q0 86 -66 125q-31 20 -57 28t-178 44q-152 34 -229 107t-77 211t97 220q96 82 268 82q258 0 359 -156l-129 -79q-47 55 -99 77t-138 23q-87 0 -141 -45q-55 -45 -55 -122t56 -120t187 -74q130 -31 170 -44
q194 -63 194 -271q1 -158 -103 -240t-301 -81q-294 0 -407 176l131 82q84 -123 274 -123z" />
    <glyph glyph-name="uni1E6C.sc" horiz-adv-x="894" 
d="M367 -395v213h159v-213h-159zM367 0v958h-328v136h817v-136h-326v-958h-163z" />
    <glyph glyph-name="uni1E92.sc" horiz-adv-x="897" 
d="M375 -395v213h160v-213h-160zM82 0v113l512 845h-483v136h673v-113l-512 -846h537v-135h-727z" />
    <glyph glyph-name="uni1E44.sc" horiz-adv-x="1228" 
d="M545 1264v213h160v-213h-160zM190 0v1094h156l533 -824v824h161v-1094h-147l-541 829v-829h-162z" />
    <glyph glyph-name="uni1E0C.sc" horiz-adv-x="1150" 
d="M451 -395v213h159v-213h-159zM354 133h187q151 -4 221 71t69 242v201q0 168 -69 243q-70 75 -221 71h-187v-828zM190 0v1094h377q217 4 326 -105t102 -327v-228q12 -440 -428 -434h-377z" />
    <glyph glyph-name="uni1E02.sc" horiz-adv-x="1077" 
d="M436 1264v213h160v-213h-160zM350 131h291q184 0 184 185t-184 186h-291v-371zM350 623h268q184 0 185 172q0 168 -185 168h-268v-340zM190 0v1094h437q168 0 247 -66q90 -80 90 -224t-122 -233q78 -45 112 -108t33 -164q0 -162 -104 -242q-78 -57 -236 -57h-457z" />
    <glyph glyph-name="idotaccent" horiz-adv-x="522" 
d="M180 0v1028h162v-1028h-162zM180 1251v217h162v-217h-162z" />
    <glyph glyph-name="one.fitted" horiz-adv-x="696" 
d="M293 0v1282l-252 -111l-53 136l358 155h117v-1462h-170z" />
    <glyph glyph-name="two.fitted" horiz-adv-x="1013" 
d="M59 0v113l406 526q221 289 221 485q0 213 -219 213q-197 0 -246 -219l-153 15q16 166 123 257q108 91 288 91q181 -1 279 -95t98 -270q0 -133 -56 -252t-222 -338l-293 -383h581v-143h-807z" />
    <glyph glyph-name="three.fitted" horiz-adv-x="993" 
d="M270 702v138h123q121 0 195 68t74 184q0 114 -60 180t-160 66q-195 -1 -235 -175l-152 15q41 303 387 303q188 1 288 -99t101 -288q0 -121 -43 -194t-147 -128q121 -55 174 -143t53 -230q0 -205 -110 -311t-312 -106q-200 0 -308 80t-124 233l162 20q37 -190 254 -190
q127 0 198 73q70 74 70 206t-82 216t-213 82h-133z" />
    <glyph glyph-name="four.fitted" horiz-adv-x="1097" 
d="M686 0v270h-594v107l467 1085h180l-454 -1050h401v448h156v-448h145v-144h-145v-268h-156z" />
    <glyph glyph-name="five.fitted" horiz-adv-x="1081" 
d="M258 315q33 -190 257 -190q115 0 181 80q66 79 66 241q0 324 -248 324q-133 0 -231 -92l-123 27l69 757h660v-143h-518l-49 -465q100 55 219 55q211 0 313 -141q78 -104 78 -328t-94 -325q-115 -133 -340 -133q-360 0 -402 313z" />
    <glyph glyph-name="six.fitted" horiz-adv-x="1093" 
d="M554 770q-122 0 -179 -77t-57 -245t56 -245q58 -78 179 -78t178 78q57 77 57 243t-56 245t-178 79zM598 905q188 0 289 -139q71 -102 71 -336t-102 -342t-313 -106q-211 0 -316 133q-80 98 -80 331q0 119 22 200t87 204l328 612h190l-328 -594q57 37 152 37z" />
    <glyph glyph-name="seven.fitted" horiz-adv-x="811" 
d="M-14 1319v143h737v-102l-430 -1360h-180l432 1319h-559z" />
    <glyph glyph-name="eight.fitted" horiz-adv-x="1126" 
d="M565 696q-135 0 -197 -68t-62 -216q0 -147 62 -217t194 -70t195 70q62 70 62 215q0 286 -254 286zM565 1346q-119 0 -173 -62t-54 -194q0 -134 54 -196t170 -62t170 62t54 196q0 256 -221 256zM176 1090q0 198 95 294t292 97q385 0 385 -391q0 -119 -32 -188t-109 -128
q96 -47 139 -132t43 -230q0 -222 -103 -326q-102 -104 -322 -104t-324 105t-105 325q0 145 43 230t139 132q-80 57 -110 127q-31 70 -31 189z" />
    <glyph glyph-name="nine.fitted" horiz-adv-x="1093" 
d="M545 1337q-240 0 -240 -294t236 -293q235 0 235 294t-231 293zM496 616q-147 0 -242 78q-119 98 -119 336t98 344q99 106 313 106t318 -122q82 -100 82 -309q0 -111 -16 -180t-66 -167l-352 -702h-190l329 641q-80 -25 -155 -25z" />
    <glyph glyph-name="zero.fitted" horiz-adv-x="1132" 
d="M809 532v398q0 217 -56 312q-57 95 -187 95t-186 -94t-56 -313v-398q0 -219 56 -313t186 -94t187 95q56 95 56 312zM156 516v430q0 276 90 393q108 141 328 141t329 -165q74 -117 74 -369v-430q0 -276 -90 -393q-109 -141 -329 -141t-329 165q-73 117 -73 369z" />
    <glyph glyph-name="sterling.fitted" horiz-adv-x="1120" 
d="M129 0v123q102 37 169 135t67 213q0 66 -29 154h-211v143h145q-63 119 -83 177q-19 58 -19 132q0 188 108 296q109 108 297 108q189 0 295 -88t152 -281l-143 -39q-27 104 -68 162q-82 106 -210 106q-128 1 -195 -67t-66 -182q0 -66 24 -134t95 -190h350v-143h-303
q23 -84 22 -144q0 -199 -159 -338h675v-143h-913z" />
    <glyph glyph-name="dollar.fitted" horiz-adv-x="1175" 
d="M907 402q0 118 -90 176q-41 28 -76 38t-196 50q-223 51 -323 146q-99 95 -99 255q0 106 47 191q47 84 125 128t213 56v221h162v-225q244 -27 331 -176l-129 -84q-90 127 -303 127q-131 1 -205 -59t-75 -166q0 -106 76 -166q75 -60 241 -99t220 -58t108 -55
q139 -92 139 -288q0 -348 -403 -391v-295h-162v290q-152 8 -264 64t-166 147l131 86q98 -158 364 -157q160 0 247 63t87 181z" />
    <glyph glyph-name="cent.fitted" horiz-adv-x="997" 
d="M305 756q0 -330 272 -330q138 0 214 100l120 -69q-88 -127 -266 -154v-237h-162v235q-166 14 -254 137t-84 334v86q-6 453 338 496v223h162v-227q166 -29 246 -156l-123 -70q-76 104 -206 104t-193 -87q-63 -88 -64 -271v-114z" />
    <glyph glyph-name="Euro.fitted" horiz-adv-x="1138" 
d="M197 614v117h-191l47 119h144v33q0 303 100 438q119 158 352 158q195 -1 305 -97t117 -276l-158 -12q-12 115 -80 178q-69 63 -182 63q-149 1 -217 -107t-67 -345v-33h565l-47 -119h-518v-117h467l-48 -118h-417q10 -195 81 -285t203 -90q256 0 289 211l148 -19
q-10 -163 -122 -249t-306 -87q-445 0 -463 519h-187l47 118h138z" />
    <glyph glyph-name="yen.fitted" horiz-adv-x="1155" 
d="M494 0v309h-316v119h316v104h-316v119h266l-399 811h180l355 -739l350 739h182l-399 -811h264v-119h-313v-104h313v-119h-313v-309h-170z" />
    <glyph glyph-name="one.numerator" horiz-adv-x="714" 
d="M309 586v743l-157 -61l-37 100l235 94h94v-876h-135z" />
    <glyph glyph-name="two.numerator" horiz-adv-x="714" 
d="M100 586v86l258 307q131 156 131 256q0 61 -34 96q-35 35 -97 35q-121 0 -149 -129l-125 14q20 119 85 171t193 53q262 0 263 -244q0 -82 -35 -152t-135 -186l-166 -199h334v-108h-523z" />
    <glyph glyph-name="three.numerator" horiz-adv-x="714" 
d="M231 997v97h91q66 0 112 41t45 99q0 58 -38 94t-99 36q-113 0 -141 -102l-121 14q16 102 78 149t188 48q268 0 268 -236q0 -72 -26 -115t-84 -75q135 -66 135 -220q0 -252 -297 -252q-168 0 -242 80q-31 33 -47 117l127 23q27 -111 158 -111q78 0 122 40t44 111t-49 117
t-127 45h-97z" />
    <glyph glyph-name="four.numerator" horiz-adv-x="714" 
d="M442 586v166h-383v79l301 631h144l-289 -604h227v189h121v-189h92v-108h-92v-164h-121z" />
    <glyph glyph-name="five.numerator" horiz-adv-x="714" 
d="M367 1137q264 0 264 -281t-277 -281q-136 1 -204 53t-76 146l127 21q25 -111 145 -111q70 0 110 45t40 123q0 180 -144 180q-82 0 -141 -53l-98 18l45 465h446v-108h-332l-26 -244q61 27 121 27z" />
    <glyph glyph-name="six.numerator" horiz-adv-x="714" 
d="M360 678q141 0 141 179t-141 179t-141 -179t141 -179zM633 852q0 -142 -65 -209q-65 -68 -208 -68q-144 0 -208 67t-64 216q0 74 14 122t58 122l209 360h157l-202 -336q43 10 77 11q117 0 185 -84q47 -59 47 -201z" />
    <glyph glyph-name="seven.numerator" horiz-adv-x="714" 
d="M100 1354v108h518v-80l-296 -796h-148l297 768h-371z" />
    <glyph glyph-name="eight.numerator" horiz-adv-x="714" 
d="M356 995q-154 1 -154 -159t154 -160t154 160t-154 159zM493 1232q0 144 -136 144t-136 -144t137 -145q135 1 135 145zM98 1236q0 122 62 180t196 58q132 0 196 -58t64 -181q0 -66 -17 -106t-64 -78q57 -33 81 -81t25 -132q0 -140 -68 -202t-216 -62t-217 62
q-68 62 -68 210t106 205q-80 63 -80 185z" />
    <glyph glyph-name="nine.numerator" horiz-adv-x="714" 
d="M356 1370q-141 0 -141 -164t141 -164t142 164q-1 164 -142 164zM313 946q-229 0 -229 260q0 137 66 202t206 65q140 1 207 -63q66 -64 66 -200q-1 -72 -11 -110t-45 -101l-225 -413h-158l209 368q-55 -8 -86 -8z" />
    <glyph glyph-name="zero.numerator" horiz-adv-x="714" 
d="M502 909v230q0 231 -144 231t-143 -231v-230q-1 -231 143 -231t144 231zM84 899v250q0 168 66 246t208 78t209 -78q66 -78 66 -246v-250q0 -168 -66 -246t-209 -78q-142 0 -208 78t-66 246z" />
    <glyph glyph-name="one.denominator" horiz-adv-x="714" 
d="M309 0v743l-157 -61l-37 100l235 95h94v-877h-135z" />
    <glyph glyph-name="two.denominator" horiz-adv-x="714" 
d="M100 0v86l258 307q131 154 131 256q0 61 -34 96q-35 35 -97 35q-121 0 -149 -129l-125 15q20 119 86 171t192 52q262 0 263 -244q0 -81 -35 -151t-135 -187l-166 -198h334v-109h-523z" />
    <glyph glyph-name="three.denominator" horiz-adv-x="714" 
d="M231 414v96h91q66 0 112 40t45 98q0 58 -38 94t-99 36q-113 0 -141 -102l-121 16q16 102 78 148t188 47q268 0 268 -236q0 -71 -26 -113t-84 -75q135 -63 135 -219q0 -254 -297 -254q-168 0 -242 80q-31 33 -47 116l127 25q27 -113 158 -113q76 0 121 40t45 111t-50 118
t-126 47h-97z" />
    <glyph glyph-name="four.denominator" horiz-adv-x="714" 
d="M442 0v164h-383v80l301 633h144l-289 -607h227v191h121v-191h92v-108h-92v-162h-121z" />
    <glyph glyph-name="five.denominator" horiz-adv-x="714" 
d="M367 551q264 0 264 -281q0 -280 -277 -280q-263 1 -280 198l127 21q25 -111 145 -111q70 0 110 45t40 123q0 182 -144 183q-82 0 -141 -56l-98 19l45 465h446v-109h-332l-26 -244q61 27 121 27z" />
    <glyph glyph-name="six.denominator" horiz-adv-x="714" 
d="M360 92q141 0 141 180t-141 179q-141 1 -141 -179t141 -180zM401 551q117 0 185 -82q47 -59 47 -201t-65 -211q-65 -67 -208 -67q-144 0 -208 66t-64 216q0 74 14 122t58 122l209 361h157l-202 -336q43 10 77 10z" />
    <glyph glyph-name="seven.denominator" horiz-adv-x="714" 
d="M100 768v109h518v-80l-296 -797h-148l297 768h-371z" />
    <glyph glyph-name="eight.denominator" horiz-adv-x="714" 
d="M510 250q0 160 -154 160t-154 -160t154 -160t154 160zM357 791q-136 -1 -136 -145t136 -144t136 144t-136 145zM98 648q0 124 62 182t196 58q132 0 196 -58t64 -181q0 -67 -18 -107t-63 -77q106 -57 106 -205t-68 -210t-216 -62t-217 62q-68 62 -68 211t106 204
q-80 59 -80 183z" />
    <glyph glyph-name="nine.denominator" horiz-adv-x="714" 
d="M356 459q141 1 141 163t-141 162t-141 -162t141 -163zM84 621q0 139 64 202q65 63 207 63t208 -62q66 -64 66 -199q-1 -72 -11 -110t-45 -101l-225 -414h-158l209 369q-55 -8 -86 -9q-229 0 -229 261z" />
    <glyph glyph-name="zero.denominator" horiz-adv-x="714" 
d="M502 324v229q0 231 -144 231t-143 -231v-229q0 -231 143 -232q144 1 144 232zM84 313v250q0 168 66 246t208 78t209 -78q66 -78 66 -246v-250q0 -167 -66 -245t-209 -78q-142 0 -208 78t-66 245z" />
    <glyph glyph-name="oneone" horiz-adv-x="1761" 
d="M1294 0v743l-157 -61l-37 100l235 95h95v-877h-136zM494 0l460 1462h154l-459 -1462h-155zM330 586v743l-158 -61l-37 100l236 94h94v-876h-135z" />
    <glyph glyph-name="Dotaccent" horiz-adv-x="1024" 
d="M432 1632v213h160v-213h-160z" />
    <glyph glyph-name="Ring" horiz-adv-x="1024" 
d="M614 1808q0 122 -102 121q-102 0 -102 -122t102 -121q102 0 102 122zM514 2015q98 0 156 -56q58 -57 57 -151q0 -94 -59 -151q-60 -57 -156 -57t-156 56q-60 58 -59 153q0 95 59 151q60 55 158 55z" />
    <glyph glyph-name="Circumflex" horiz-adv-x="1024" 
d="M512 1790l-139 -164h-172l260 272h104l260 -272h-172z" />
    <glyph glyph-name="Breve" horiz-adv-x="1024" 
d="M227 1890h111q10 -88 49 -123t126 -35t125 36q38 34 48 122h113q-8 -121 -37 -174q-61 -108 -255 -108t-253 125q-21 48 -27 157z" />
    <glyph glyph-name="Tilde" horiz-adv-x="1024" 
d="M377 1880q86 0 160 -66t108 -65q55 0 84 115h105q-25 -102 -48 -150q-47 -84 -135 -84t-161 66t-109 65q-59 1 -88 -114h-105q27 106 52 145q51 88 137 88z" />
    <glyph glyph-name="Cedilla" horiz-adv-x="1024" 
d="M379 -455l106 314h170l-161 -314h-115z" />
    <glyph glyph-name="Ogonek" horiz-adv-x="1024" 
d="M549 -215q0 -84 104 -84q51 0 119 20l16 -94q-80 -29 -163 -28q-223 0 -224 161q0 150 199 240h148q-199 -113 -199 -215z" />
    <glyph glyph-name="Commaaccent" horiz-adv-x="1024" 
d="M379 -455l106 314h170l-161 -314h-115z" />
    <glyph glyph-name="Comma.high" horiz-adv-x="237" 
d="M4 1008l53 471h168l-106 -471h-115z" />
    <glyph glyph-name="Croatumlaut" horiz-adv-x="1024" 
d="M449 1616h-117l-191 291h185zM723 1616h-117l-188 291h182z" />
    <glyph glyph-name="Croatbreve" horiz-adv-x="1024" 
d="M513 1782q-87 0 -127 -35t-48 -123h-111q8 127 37 174q61 109 255 109t251 -125q21 -47 29 -158h-113q-8 88 -47 123t-126 35z" />
    <glyph glyph-name="Cicumflexacute" horiz-adv-x="1024" 
d="M721 1737l151 284h187l-228 -290h-106l100 -105h-172l-141 164l-139 -164h-172l260 272h104z" />
    <glyph glyph-name="Ringacute" horiz-adv-x="1024" 
d="M438 1835l113 240h192l-200 -240h-105zM512 1466q102 0 102 122t-102 122t-102 -122t102 -122zM514 1796q98 0 156 -56t57 -150q0 -94 -59 -152q-60 -58 -156 -58t-156 58t-59 152q0 95 59 151q60 55 158 55z" />
    <glyph glyph-name="croatumlaut" horiz-adv-x="1024" 
d="M449 1192h-117l-191 291h185zM723 1192h-117l-188 291h182z" />
    <glyph glyph-name="croatbreve" horiz-adv-x="1024" 
d="M513 1358q-87 0 -127 -35t-48 -123h-111q8 127 37 174q61 109 255 109t251 -125q21 -47 29 -158h-113q-10 88 -48 123t-125 35z" />
    <glyph glyph-name="cicumflexacute" horiz-adv-x="1024" 
d="M721 1311l151 284h187l-228 -290h-106l100 -105h-172l-141 164l-139 -164h-172l260 273h104z" />
    <glyph glyph-name="ringacute" horiz-adv-x="1024" 
d="M438 1628l113 242h192l-200 -242h-105zM614 1382q0 122 -102 123q-102 0 -102 -123t102 -122q102 0 102 122zM512 1591q98 0 156 -57q58 -56 59 -150q0 -94 -59 -152q-60 -58 -156 -58t-156 58q-59 58 -59 152t58 151q59 56 157 56z" />
    <glyph glyph-name="Ohorn.sc" horiz-adv-x="1191" 
d="M825 444v205q0 170 -61 250q-60 80 -192 80t-192 -80t-61 -250v-205q1 -170 61 -248t192 -79q132 1 192 79t61 248zM1229 1032q0 -96 -55 -166t-187 -143q2 -37 2 -78v-215q0 -227 -100 -338q-101 -110 -325 -110t-331 137q-78 100 -77 311v234q0 229 96 331
q106 119 296 119t291 -67q99 -68 136 -211l47 32q72 51 72 148q0 51 -25 98h148q12 -39 12 -82z" />
    <glyph glyph-name="Uhorn.sc" horiz-adv-x="1261" 
d="M184 1094h164v-695q0 -137 39 -194q61 -88 207 -88t205 102q31 53 30 180v695h164v-306q109 52 152 102t43 112t-25 112h148q12 -39 12 -82q0 -147 -154 -256q-51 -39 -176 -100v-277q0 -119 -14 -180t-55 -113q-104 -124 -344 -124t-340 145q-55 82 -56 272v695z" />
    <glyph glyph-name="uni1EA0.sc" horiz-adv-x="958" 
d="M399 -395v213h160v-213h-160zM684 358l-203 557l-202 -557h405zM723 229h-483l-82 -229h-181l424 1094h160l424 -1094h-182z" />
    <glyph glyph-name="uni1EA2.sc" horiz-adv-x="958" 
d="M444 1509q-43 0 -98 -26l-29 96q84 29 160 29t122 -37t46 -103q0 -34 -11 -56t-41 -62t-35 -56t-7 -59h-119q2 71 9 93t37 64t30 68q0 49 -64 49zM684 358l-203 557l-202 -557h405zM723 229h-483l-82 -229h-181l424 1094h160l424 -1094h-182z" />
    <glyph glyph-name="uni1EA4.sc" horiz-adv-x="958" 
d="M479 1309l-137 -117h-166l254 219h100l254 -219h-166zM403 1466l117 234h156l-174 -234h-99zM684 358l-203 557l-202 -557h405zM723 229h-483l-82 -229h-181l424 1094h160l424 -1094h-182z" />
    <glyph glyph-name="uni1EA6.sc" horiz-adv-x="958" 
d="M479 1309l-137 -117h-166l254 219h100l252 -219h-164zM553 1466h-96l-174 234h155zM684 358l-203 557l-202 -557h405zM723 229h-483l-82 -229h-181l424 1094h160l424 -1094h-182z" />
    <glyph glyph-name="uni1EA8.sc" horiz-adv-x="958" 
d="M475 1305l-139 -113h-164l252 209h100l254 -209h-166zM494 1599q0 29 -44 29t-98 -20l-26 80q66 23 135 22q154 0 153 -108q0 -39 -40 -80t-42 -86h-106q2 63 35 103t33 60zM684 358l-203 557l-202 -557h405zM723 229h-483l-82 -229h-181l424 1094h160l424 -1094h-182z
" />
    <glyph glyph-name="uni1EAA.sc" horiz-adv-x="958" 
d="M489 1309l-139 -117h-164l252 219h101l254 -219h-166zM598 1567q43 0 66 104h92q-27 -119 -61 -162q-33 -43 -101 -43t-120 58t-85 59q-55 0 -82 -102h-92q29 113 69 159t105 46t123 -60q53 -59 86 -59zM684 358l-203 557l-202 -557h405zM723 229h-483l-82 -229h-181
l424 1094h160l424 -1094h-182z" />
    <glyph glyph-name="uni1EAC.sc" horiz-adv-x="958" 
d="M399 -395v213h160v-213h-160zM479 1421l-139 -164h-172l260 273h104l261 -273h-172zM684 358l-203 557l-202 -557h405zM723 229h-483l-82 -229h-181l424 1094h160l424 -1094h-182z" />
    <glyph glyph-name="uni1EAE.sc" horiz-adv-x="958" 
d="M473 1186q-189 0 -244 114q-20 44 -26 142h106q8 -76 47 -108t124 -32t123 32q38 30 48 108h107q-8 -111 -37 -158q-59 -98 -248 -98zM403 1466l117 234h156l-174 -234h-99zM684 358l-203 557l-202 -557h405zM723 229h-483l-82 -229h-181l424 1094h160l424 -1094h-182z
" />
    <glyph glyph-name="uni1EB0.sc" horiz-adv-x="958" 
d="M473 1186q-189 0 -244 114q-20 44 -26 142h106q8 -76 47 -108t124 -32t123 32q38 30 48 108h107q-8 -111 -37 -158q-59 -98 -248 -98zM565 1466h-98l-172 234h156zM684 358l-203 557l-202 -557h405zM723 229h-483l-82 -229h-181l424 1094h160l424 -1094h-182z" />
    <glyph glyph-name="uni1EB2.sc" horiz-adv-x="958" 
d="M479 1300q86 0 125 32t47 110h107q-8 -111 -37 -158q-59 -98 -248 -98t-244 114q-20 44 -26 142h104q10 -80 48 -111t124 -31zM530 1417h-106q2 63 33 109q35 45 35 63q0 39 -58 39q-35 0 -84 -20l-26 80q66 22 136 22t112 -31q40 -31 40 -77t-41 -90t-41 -85v-10z
M684 358l-203 557l-202 -557h405zM723 229h-483l-82 -229h-181l424 1094h160l424 -1094h-182z" />
    <glyph glyph-name="uni1EB4.sc" horiz-adv-x="958" 
d="M475 1298q84 0 122 30t48 102h100q-6 -102 -32 -150q-59 -92 -221 -92t-222 52q-59 53 -67 190h102q10 -74 48 -103t122 -29zM380 1704q66 0 122 -58t86 -59q45 0 65 103h92q-27 -119 -61 -162t-100 -43t-120 58t-85 59q-55 -1 -82 -103h-90q29 115 67 160q40 45 106 45z
M684 358l-203 557l-202 -557h405zM723 229h-483l-82 -229h-181l424 1094h160l424 -1094h-182z" />
    <glyph glyph-name="uni1EB6.sc" horiz-adv-x="958" 
d="M399 -395v213h160v-213h-160zM480 1364q87 0 126 35t49 123h111q-8 -121 -37 -174q-61 -109 -255 -109t-253 125q-20 47 -26 158h110q10 -88 49 -123t126 -35zM684 358l-203 557l-202 -557h405zM723 229h-483l-82 -229h-181l424 1094h160l424 -1094h-182z" />
    <glyph glyph-name="uni1EB8.sc" horiz-adv-x="976" 
d="M463 -395v213h160v-213h-160zM190 0v1094h693v-136h-529v-337h451v-136h-451v-350h531v-135h-695z" />
    <glyph glyph-name="uni1EBA.sc" horiz-adv-x="976" 
d="M608 1235h-121q1 65 9 89t38 68t31 68q0 49 -63 49q-43 0 -99 -26l-28 96q79 29 157 29t124 -37t46 -103q0 -34 -11 -56t-41 -61t-36 -56t-6 -60zM190 0v1094h693v-136h-529v-337h451v-136h-451v-350h531v-135h-695z" />
    </font>
</defs>
</svg>
