<?xml version="1.0" standalone="no"?>
<!DOCTYPE svg PUBLIC "-//W3C//DTD SVG 1.1//EN" "http://www.w3.org/Graphics/SVG/1.1/DTD/svg11.dtd" >
<svg xmlns="http://www.w3.org/2000/svg">
<metadata>
Created by FontPrep 20130207 at Fri May 26 16:08:31 2017
 By Lizzy Knight
Copyright 2016 by URW++ Design &#38; Development GmbH
</metadata>
<defs>
<font id="d7b3550b3e7cab3e03079da80a596e09" horiz-adv-x='1024' >
  <font-face 
    font-family="URWDIN-Italic"
    font-weight="400"
    font-style="italic"
    font-stretch="normal"
    units-per-em="2048"
    panose-1="0 0 5 0 0 0 0 0 0 0"
    ascent="1462"
    descent="-586"
    x-height="1028"
    cap-height="1462"
    bbox="-381 -498 2468 2079"
    underline-thickness="120"
    underline-position="-178"
    slope="-10"
    unicode-range="U+0020-FB04"
  />
<missing-glyph horiz-adv-x="409" 
 />
    <glyph glyph-name="ff" unicode="ff" horiz-adv-x="1304" 
d="M920 893h-127l22 135h127l33 182q25 150 92 203q68 53 227 49h107l-21 -123h-59q-96 1 -133 -29t-55 -128l-27 -154h231l-22 -135h-234l-157 -893h-162zM295 893h-127l22 135h129l31 182q25 150 92 203q68 53 228 49h100l-22 -123h-52q-96 3 -133 -29t-55 -128l-27 -154
h203l-25 -135h-202l-158 -893h-162z" />
    <glyph glyph-name="fi" unicode="fi" horiz-adv-x="1202" 
d="M770 0l182 1028h162l-182 -1028h-162zM991 1251l37 217h164l-39 -217h-162zM295 893h-127l22 135h129l31 182q25 150 92 203q68 53 228 49h106l-20 -123h-60q-96 3 -133 -29t-55 -128l-27 -154h232l-23 -135h-233l-158 -893h-162z" />
    <glyph glyph-name="fl" unicode="fl" horiz-adv-x="1277" 
d="M981 235q0 -48 34 -73t124 -25h45l-25 -137h-53q-162 0 -226 44t-65 155q0 68 19 166l194 1097h162l-199 -1124q-10 -55 -10 -103zM295 893h-127l22 135h129l31 182q25 150 92 203q68 53 228 49h106l-20 -123h-60q-96 3 -133 -29t-55 -128l-27 -154h232l-23 -135h-233
l-158 -893h-162z" />
    <glyph glyph-name="ffi" unicode="ffi" horiz-adv-x="1826" 
d="M920 893h-127l22 135h127l33 182q25 150 92 203q68 53 227 49h107l-21 -123h-59q-96 1 -133 -29t-55 -128l-27 -154h231l-22 -135h-234l-157 -893h-162zM1395 0l182 1028h162l-183 -1028h-161zM1616 1251l37 217h164l-39 -217h-162zM295 893h-127l22 135h129l31 182
q25 150 92 203q68 53 228 49h100l-22 -123h-52q-96 3 -133 -29t-55 -128l-27 -154h203l-25 -135h-202l-158 -893h-162z" />
    <glyph glyph-name="ffl" unicode="ffl" horiz-adv-x="1900" 
d="M920 893h-127l22 135h127l33 182q25 150 92 203q68 53 227 49h107l-21 -123h-59q-96 1 -133 -29t-55 -128l-27 -154h231l-22 -135h-234l-157 -893h-162zM1606 234q0 -47 34 -72t121 -25h45l-24 -137h-51q-162 0 -227 44t-64 155q0 63 16 166l195 1097h164l-199 -1124
q-10 -57 -10 -104zM295 893h-127l22 135h129l31 182q25 150 92 203q68 53 228 49h100l-22 -123h-52q-96 3 -133 -29t-55 -128l-27 -154h203l-25 -135h-202l-158 -893h-162z" />
    <glyph glyph-name=".notdef" horiz-adv-x="409" 
 />
    <glyph glyph-name=".null" horiz-adv-x="0" 
 />
    <glyph glyph-name="nonmarkingreturn" horiz-adv-x="681" 
 />
    <glyph glyph-name="space" unicode=" " horiz-adv-x="409" 
 />
    <glyph glyph-name="exclam" unicode="!" horiz-adv-x="634" 
d="M147 0l37 205h162l-35 -205h-164zM227 391l166 1071h185l-213 -1071h-138z" />
    <glyph glyph-name="quotedbl" unicode="&#x22;" horiz-adv-x="839" 
d="M590 922l84 540h168l-107 -540h-145zM252 922l84 540h168l-107 -540h-145z" />
    <glyph glyph-name="numbersign" unicode="#" 
d="M442 588h220l73 239h-219zM301 588l74 239h-223l38 113h224l121 381h141l-121 -381h219l121 381h141l-121 -381h232l-39 -113h-231l-74 -239h229l-39 -113h-229l-121 -389h-141l121 389h-220l-120 -389h-142l121 389h-225l39 113h225z" />
    <glyph glyph-name="dollar" unicode="$" 
d="M862 442q0 86 -50 126t-82 48q-32 10 -200 52q-346 87 -346 344q0 92 40 180q105 231 419 252l39 219h162l-41 -227q233 -29 301 -172l-143 -86q-68 127 -281 127q-146 0 -236 -74t-90 -195q0 -86 65 -135t248 -95t261 -104q104 -80 104 -229q0 -94 -38 -182
q-38 -87 -99 -143t-136 -84t-206 -44l-51 -292h-162l51 292q-145 10 -251 66t-142 143l147 86q70 -158 336 -157q174 0 278 76q103 77 103 208z" />
    <glyph glyph-name="percent" unicode="%" horiz-adv-x="1808" 
d="M508 0l719 1462h153l-716 -1462h-156zM1579 557q0 141 -141 141q-88 0 -135 -52t-68 -175l-27 -149q-10 -59 -10 -89q0 -141 143 -141q84 0 134 54q49 55 69 176l23 131q12 72 12 104zM1440 809q283 0 282 -223q0 -45 -12 -119l-33 -182q-14 -88 -36 -135
q-79 -169 -304 -168q-137 0 -209 56t-71 165q0 37 16 127l29 176q27 156 102 223q82 80 236 80zM686 1229q0 141 -141 141q-88 0 -134 -53t-69 -176l-27 -150q-10 -51 -10 -88q0 -139 144 -139q84 0 132 54t68 173l25 131q12 78 12 107zM542 1481q144 -1 216 -59t71 -167
q0 -47 -14 -118l-31 -181q-14 -88 -36 -136t-66 -87q-86 -80 -230 -80q-144 1 -216 57t-72 162q0 33 14 129l31 177q29 162 109 232t224 71z" />
    <glyph glyph-name="ampersand" unicode="&#x26;" horiz-adv-x="1667" 
d="M338 266q0 -90 59 -138t168 -48q199 0 420 184l-244 418q-193 -98 -258 -152q-145 -117 -145 -264zM928 1366q-94 0 -164 -63t-70 -158q0 -41 14 -76t74 -141l29 -54q164 86 237 164q72 78 72 161t-49 125t-143 42zM533 -63q-172 0 -269 82q-96 83 -96 235q0 203 172 352
q104 92 319 197q-129 238 -129 338q0 152 116 256t282 104t261 -79t95 -209t-91 -234t-304 -223l223 -383q129 137 197 299h161q-109 -250 -278 -422l156 -250h-201l-84 145q-115 -84 -176 -114q-182 -94 -354 -94z" />
    <glyph glyph-name="quotesingle" unicode="'" horiz-adv-x="501" 
d="M252 922l84 540h168l-107 -540h-145z" />
    <glyph glyph-name="parenleft" unicode="(" horiz-adv-x="888" 
d="M299 428q0 220 62 450q63 230 169 410t275 371l110 -80q-160 -211 -243 -362q-199 -369 -199 -797q0 -272 133 -596l-127 -72q-180 342 -180 676z" />
    <glyph glyph-name="parenright" unicode=")" horiz-adv-x="888" 
d="M659 985q0 -219 -62 -449q-61 -230 -167 -408t-276 -376l-111 82q162 213 244 363q199 369 198 796q0 272 -133 596l127 70q180 -340 180 -674z" />
    <glyph glyph-name="asterisk" unicode="*" 
d="M655 1057l-235 -269l-121 117l266 248l-321 129l67 145l310 -161l45 331l163 -30l-71 -326l346 47l14 -160l-346 -12l166 -323l-154 -70z" />
    <glyph glyph-name="plus" unicode="+" 
d="M100 676l23 135h409l74 418h146l-74 -418h409l-24 -135h-408l-73 -416h-146l74 416h-410z" />
    <glyph glyph-name="comma" unicode="," horiz-adv-x="575" 
d="M-41 -385l201 588h182l-242 -588h-141z" />
    <glyph glyph-name="hyphen" unicode="-" horiz-adv-x="974" 
d="M227 672l25 143h575l-24 -143h-576z" />
    <glyph glyph-name="period" unicode="." horiz-adv-x="577" 
d="M113 0l37 205h169l-36 -205h-170z" />
    <glyph glyph-name="slash" unicode="/" horiz-adv-x="837" 
d="M-4 -45l762 1552h164l-762 -1552h-164z" />
    <glyph glyph-name="zero" unicode="0" 
d="M694 1337q-124 0 -198 -96t-113 -311l-70 -398q-20 -115 -20 -182q0 -225 196 -225q125 0 199 96t113 311l69 398q20 115 21 182q0 225 -197 225zM1059 1130q0 -78 -23 -206l-75 -430q-27 -146 -59 -228t-91 -147q-125 -137 -324 -137q-362 0 -362 350q-1 82 22 207
l76 430q27 147 60 229t90 145q119 137 310 137q376 0 376 -350z" />
    <glyph glyph-name="one" unicode="1" 
d="M408 0l227 1282l-258 -104l-43 129l385 155h117l-258 -1462h-170z" />
    <glyph glyph-name="two" unicode="2" 
d="M854 1162q0 174 -192 175q-192 0 -279 -219l-154 15q43 168 157 258t284 90t262 -79q92 -80 92 -230t-90 -295q-68 -117 -301 -361l-361 -373h582l-25 -143h-806l20 113l496 522q191 199 253 319t62 208z" />
    <glyph glyph-name="three" unicode="3" 
d="M934 477q0 -193 -107 -332q-125 -164 -383 -163q-180 0 -282 76t-103 206v37l158 14q-2 -90 58 -140t169 -50q172 0 256 129q64 94 64 210t-70 177t-194 61h-119l22 138h123q137 0 228 86q90 86 90 219q0 193 -195 192q-184 0 -250 -174l-149 15q84 303 403 303
q177 0 271 -83t94 -245t-98 -270q-57 -59 -177 -111q20 -10 21 -10q86 -45 121 -98q49 -78 49 -187z" />
    <glyph glyph-name="four" unicode="4" 
d="M610 0l47 270h-594l19 107l659 1085h181l-639 -1050h399l80 448h156l-80 -448h145l-25 -144h-145l-47 -268h-156z" />
    <glyph glyph-name="five" unicode="5" 
d="M627 911q157 0 245 -84t88 -219t-31 -256q-32 -121 -83 -190q-133 -180 -393 -180q-170 0 -271 76q-100 77 -100 206v37l156 14q0 -90 58 -140t161 -50q178 0 264 156q66 121 65 280q0 211 -200 211q-127 0 -248 -92l-119 25l203 757h659l-24 -143h-520l-129 -465l16 6
q76 33 111 42t92 9z" />
    <glyph glyph-name="six" unicode="6" 
d="M604 768q-162 0 -233 -133q-76 -135 -76 -318q0 -193 192 -192q158 0 230 129q76 141 76 319q-1 195 -189 195zM670 903q137 0 217 -83t80 -213t-32 -255t-81 -196q-117 -174 -375 -174q-172 0 -265 80t-93 229q0 195 69 354q35 84 129 213l435 604h190l-432 -594
q84 35 158 35z" />
    <glyph glyph-name="seven" unicode="7" 
d="M193 0l712 1319h-592l25 143h770l-18 -102l-703 -1360h-194z" />
    <glyph glyph-name="eight" unicode="8" 
d="M592 696q-176 0 -252 -112q-74 -117 -74 -273q0 -186 217 -186q182 0 250 121q72 119 72 262q0 188 -213 188zM705 1346q-152 0 -218 -105q-66 -111 -65 -242q0 -168 188 -168q150 1 214 111t65 240q0 164 -184 164zM258 993q0 211 98 340q111 147 349 148
q348 0 348 -291q0 -174 -78 -297q-43 -74 -148 -123q29 -12 89 -70t59 -170q0 -114 -30 -218t-77 -167q-121 -164 -385 -163q-387 0 -387 313q0 209 97 354q61 88 178 129q-33 29 -35 29q-78 61 -78 186z" />
    <glyph glyph-name="nine" unicode="9" 
d="M684 1337q-158 1 -230 -119t-71 -282q0 -186 195 -186q156 0 228 120t71 279q0 188 -193 188zM508 618q-141 0 -220 77t-79 201t31 240t77 183q117 162 371 162q176 0 269 -79t94 -231q0 -242 -158 -473l-477 -698h-191l451 651q-92 -33 -168 -33z" />
    <glyph glyph-name="colon" unicode=":" horiz-adv-x="577" 
d="M258 825l37 205h170l-37 -205h-170zM113 0l37 205h169l-36 -205h-170z" />
    <glyph glyph-name="semicolon" unicode=";" horiz-adv-x="577" 
d="M274 825l37 205h170l-37 -205h-170zM-41 -385l201 588h182l-242 -588h-141z" />
    <glyph glyph-name="less" unicode="&#x3c;" 
d="M332 741l592 -319l-27 -150l-762 424l19 105l911 426l-29 -164z" />
    <glyph glyph-name="equal" unicode="=" 
d="M158 842l22 131h907l-22 -131h-907zM100 514l23 131h907l-22 -131h-908z" />
    <glyph glyph-name="greater" unicode="&#x3e;" 
d="M858 756l-592 321l27 150l762 -426l-19 -105l-911 -424l29 164z" />
    <glyph glyph-name="question" unicode="?" horiz-adv-x="1196" 
d="M418 0l35 205h163l-36 -205h-162zM995 1156q0 83 -60 133t-163 50q-244 0 -356 -286l-154 26q137 403 520 404q180 0 282 -85t101 -243q0 -158 -118 -287q-53 -57 -236 -190q-141 -100 -166 -232l-10 -57h-137l14 82q20 121 70 191t182 169q133 99 182 171t49 154z" />
    <glyph glyph-name="at" unicode="@" horiz-adv-x="1839" 
d="M1067 963q-141 0 -258 -181q-109 -164 -109 -307q0 -53 31 -83t84 -30q152 0 277 191q109 162 108 281q0 59 -36 94t-97 35zM1208 426q0 -66 78 -66q143 0 255 169t112 373t-103 312q-70 74 -188 116t-262 42q-420 0 -658 -340q-88 -122 -137 -282t-49 -320
q0 -240 152 -364t435 -123q283 0 535 110l41 -104q-273 -123 -603 -123t-515 152q-184 153 -184 446q1 198 69 394t194 348t314 237q188 86 412 86q344 0 532 -178q150 -143 150 -405t-160 -462t-379 -200q-154 0 -153 141q0 12 2 23q-133 -166 -303 -166q-113 0 -177 58
q-63 58 -63 161q1 199 149 409t361 209q86 1 135 -31t78 -108l51 117h109l-195 -498q-35 -92 -35 -133z" />
    <glyph glyph-name="A" unicode="A" horiz-adv-x="1228" 
d="M889 463l-137 784l-418 -784h555zM907 319h-639l-168 -319h-190l792 1462h162l277 -1462h-178z" />
    <glyph glyph-name="B" unicode="B" horiz-adv-x="1308" 
d="M702 141q143 0 218 80q94 100 94 254q0 105 -52 155t-165 50h-387l-97 -539h389zM793 821q143 0 217 76q90 94 90 233q0 98 -53 144t-166 47h-359l-88 -500h359zM895 1462q203 0 290 -82t87 -222q0 -278 -234 -398q2 -2 8 -6q72 -44 107 -111q31 -72 31 -166
q0 -221 -135 -360q-63 -63 -141 -90t-197 -27h-590l258 1462h516z" />
    <glyph glyph-name="C" unicode="C" horiz-adv-x="1294" 
d="M601 -18q-211 0 -321 100t-110 289q0 86 27 233l51 299q31 172 67 262q37 90 107 162q145 152 391 152q199 0 313 -85t113 -233q0 -27 -2 -51l-162 -12q0 61 -10 96q-51 141 -254 141q-170 0 -262 -106t-135 -357l-52 -282q-20 -121 -20 -195q0 -270 272 -270
q131 0 222 61q90 61 125 176l155 -18q-41 -176 -173 -269t-342 -93z" />
    <glyph glyph-name="D" unicode="D" horiz-adv-x="1388" 
d="M1124 1057q0 135 -100 213q-70 51 -229 51h-269l-209 -1180h269q200 -3 312 101t153 331l55 316q18 111 18 168zM823 1462q227 0 332 -82q141 -111 141 -301q0 -70 -20 -196l-62 -348q-39 -266 -192 -403q-154 -136 -412 -132h-487l258 1462h442z" />
    <glyph glyph-name="E" unicode="E" horiz-adv-x="1185" 
d="M125 0l258 1462h854l-25 -143h-686l-90 -508h584l-25 -143h-583l-93 -525h687l-25 -143h-856z" />
    <glyph glyph-name="F" unicode="F" horiz-adv-x="1118" 
d="M125 0l258 1462h846l-25 -143h-676l-92 -518h576l-25 -144h-575l-117 -657h-170z" />
    <glyph glyph-name="G" unicode="G" horiz-adv-x="1357" 
d="M170 375q0 84 25 227l53 299q29 170 67 262q39 92 111 164q145 152 399 152q203 0 321 -85t118 -235q0 -27 -4 -49l-160 -12v18q0 104 -73 162t-204 57q-176 1 -271 -107t-140 -358l-50 -282q-20 -117 -20 -191q0 -272 289 -272q188 0 291 121q80 88 110 258l23 127h-303
l22 137h473l-45 -252q-26 -145 -62 -229t-106 -154q-152 -151 -392 -151q-472 0 -472 393z" />
    <glyph glyph-name="H" unicode="H" horiz-adv-x="1394" 
d="M123 0l258 1462h170l-115 -651h627l115 651h170l-258 -1462h-170l118 668h-626l-119 -668h-170z" />
    <glyph glyph-name="I" unicode="I" horiz-adv-x="595" 
d="M123 0l258 1462h170l-258 -1462h-170z" />
    <glyph glyph-name="J" unicode="J" horiz-adv-x="952" 
d="M281 -18q-117 0 -199 32t-168 109l115 117q99 -115 255 -115t234 154q33 68 72 288l158 895h170l-160 -913q-38 -207 -56 -269t-59 -126q-117 -172 -362 -172z" />
    <glyph glyph-name="K" unicode="K" horiz-adv-x="1265" 
d="M125 0l258 1462h168l-141 -798l770 798h198l-579 -590l370 -872h-194l-305 754l-297 -303l-80 -451h-168z" />
    <glyph glyph-name="L" unicode="L" horiz-adv-x="1091" 
d="M123 0l258 1462h170l-234 -1319h691l-27 -143h-858z" />
    <glyph glyph-name="M" unicode="M" horiz-adv-x="1671" 
d="M123 0l258 1462h162l288 -956l627 956h168l-258 -1462h-164l201 1139l-553 -840h-109l-256 840l-200 -1139h-164z" />
    <glyph glyph-name="N" unicode="N" horiz-adv-x="1476" 
d="M123 0l258 1462h164l514 -1171l207 1171h166l-258 -1462h-164l-514 1171l-207 -1171h-166z" />
    <glyph glyph-name="O" unicode="O" horiz-adv-x="1384" 
d="M1122 1065q0 131 -75 202q-76 71 -220 70q-186 0 -295 -135q-82 -102 -116 -307l-58 -328q-18 -96 -18 -172q0 -129 76 -199t215 -71q190 0 299 135q82 108 117 307l57 328q18 104 18 170zM636 -18q-240 0 -354 107t-114 284q0 73 20 200l64 361q29 156 67 244
q39 88 115 157q152 145 386 145t355 -102q120 -102 119 -291q0 -76 -22 -198l-64 -361q-28 -156 -66 -244t-114 -157q-152 -145 -392 -145z" />
    <glyph glyph-name="P" unicode="P" horiz-adv-x="1243" 
d="M721 711q178 -1 270 107t92 284q0 115 -61 167t-193 52h-303l-108 -610h303zM831 1462q426 0 426 -336q1 -118 -35 -226q-74 -228 -260 -296q-95 -35 -243 -35h-324l-100 -569h-170l258 1462h448z" />
    <glyph glyph-name="Q" unicode="Q" horiz-adv-x="1384" 
d="M1122 1065q0 131 -75 202q-76 71 -220 70q-186 0 -295 -135q-82 -102 -116 -307l-58 -328q-18 -96 -18 -172q0 -129 77 -199t217 -71q140 0 234 74l-190 178l102 98l181 -170q55 96 86 262l57 328q18 104 18 170zM618 -18q-222 0 -336 107t-114 284q0 74 20 200l64 361
q29 156 67 244q39 88 115 157q152 145 386 145t355 -102q120 -102 119 -291q0 -76 -22 -198l-64 -361q-22 -130 -48 -200t-75 -138l136 -129l-101 -98l-135 125q-145 -106 -367 -106z" />
    <glyph glyph-name="R" unicode="R" horiz-adv-x="1323" 
d="M766 772q164 0 250 95t86 251q0 106 -62 154t-196 49h-318l-98 -549h338zM862 1462q221 0 316 -84q98 -82 98 -231q0 -213 -106 -351t-277 -147l207 -649h-189l-188 635h-315l-113 -635h-170l258 1462h479z" />
    <glyph glyph-name="S" unicode="S" horiz-adv-x="1185" 
d="M526 125q215 0 314 123q66 86 66 182t-62 148q-37 30 -69 40q-31 10 -201 54q-342 90 -343 346q0 188 126 325t378 138q324 0 420 -185l-145 -84q-70 125 -287 125q-178 0 -262 -116q-59 -79 -59 -173t64 -146q65 -52 211 -91q147 -39 199 -59t97 -58q102 -80 102 -229
q1 -223 -149 -353t-394 -130q-391 0 -495 215l147 86q70 -158 342 -158z" />
    <glyph glyph-name="T" unicode="T" horiz-adv-x="1134" 
d="M395 0l234 1319h-422l24 143h1012l-26 -143h-418l-234 -1319h-170z" />
    <glyph glyph-name="U" unicode="U" horiz-adv-x="1413" 
d="M365 352q0 -76 49 -143q70 -84 231 -84q205 0 309 149q53 76 88 263l164 925h170l-170 -954q-26 -154 -56 -228t-91 -139q-152 -160 -418 -159q-137 0 -223 30t-146 99q-80 92 -79 229q0 74 26 227l158 895h170l-164 -925q-18 -109 -18 -185z" />
    <glyph glyph-name="V" unicode="V" horiz-adv-x="1163" 
d="M420 0l-230 1462h166l174 -1214l605 1214h174l-746 -1462h-143z" />
    <glyph glyph-name="W" unicode="W" horiz-adv-x="1794" 
d="M336 0l-111 1462h166l68 -1200l540 1200h121l117 -1200l492 1200h176l-627 -1462h-145l-121 1165l-531 -1165h-145z" />
    <glyph glyph-name="X" unicode="X" horiz-adv-x="1155" 
d="M528 774l-278 688h178l225 -565l408 565h190l-530 -719l299 -743h-176l-248 618l-446 -618h-191z" />
    <glyph glyph-name="Y" unicode="Y" horiz-adv-x="1089" 
d="M371 0l94 528l-297 934h174l231 -760l500 760h187l-625 -934l-94 -528h-170z" />
    <glyph glyph-name="Z" unicode="Z" horiz-adv-x="1112" 
d="M14 0l21 121l887 1198h-637l24 143h830l-21 -121l-887 -1198h707l-25 -143h-899z" />
    <glyph glyph-name="bracketleft" unicode="[" horiz-adv-x="888" 
d="M207 -201l319 1813h392l-21 -127h-227l-277 -1561h228l-23 -125h-391z" />
    <glyph glyph-name="backslash" unicode="\" horiz-adv-x="837" 
d="M645 -45h-164l-215 1552h164z" />
    <glyph glyph-name="bracketright" unicode="]" horiz-adv-x="888" 
d="M752 1612l-320 -1813h-391l22 127h226l276 1561h-225l20 125h392z" />
    <glyph glyph-name="asciicircum" unicode="^" 
d="M694 1282l-377 -502h-194l553 693h90l309 -693h-182z" />
    <glyph glyph-name="underscore" unicode="_" horiz-adv-x="962" 
d="M-205 -358l21 120h1065l-21 -120h-1065z" />
    <glyph glyph-name="grave" unicode="`" horiz-adv-x="1024" 
d="M739 1192h-121l-176 291h187z" />
    <glyph glyph-name="a" unicode="a" horiz-adv-x="1075" 
d="M502 481q-164 0 -228 -63t-63 -185q0 -67 49 -95t166 -27q164 0 227 69q35 39 52 139l30 162h-233zM778 762q0 152 -192 151q-156 0 -264 -104l-99 84q147 156 377 156q166 0 254 -67t88 -191q0 -53 -20 -162l-111 -629h-129l-8 49q-92 -67 -276 -67t-266 54
q-81 54 -81 175q0 188 92 291q94 102 342 102h271l12 72q10 51 10 86z" />
    <glyph glyph-name="b" unicode="b" horiz-adv-x="1157" 
d="M870 698q0 215 -211 215q-246 0 -301 -315l-28 -168q-12 -57 -13 -104q0 -209 220 -209q125 -1 197 79t104 250l22 136q10 55 10 116zM694 1049q342 0 342 -314q0 -72 -16 -166l-27 -155q-39 -228 -143 -330t-282 -102t-263 77q-4 2 -51 68l-35 -127h-129l258 1462h162
l-92 -522q60 59 122 84t154 25z" />
    <glyph glyph-name="c" unicode="c" horiz-adv-x="972" 
d="M496 -18q-178 0 -274 88q-95 88 -95 252q0 80 16 167l15 86q41 229 137 338q119 135 330 136q258 0 331 -183l-133 -57q-35 57 -79 81t-115 23q-129 0 -203 -85t-109 -271l-16 -102q-10 -57 -10 -117q0 -221 219 -221q139 0 231 100l107 -90q-131 -145 -352 -145z" />
    <glyph glyph-name="d" unicode="d" horiz-adv-x="1157" 
d="M287 328q0 -211 209 -211q250 0 305 313l28 168q10 66 11 104q0 211 -217 211q-125 0 -198 -80q-72 -81 -103 -251l-25 -136q-10 -57 -10 -118zM121 291q0 74 16 168l29 155q39 230 142 332t271 102t255 -57q8 -6 55 -53l92 524h164l-258 -1462h-129l6 100
q-70 -70 -134 -94q-64 -25 -163 -24q-346 0 -346 309z" />
    <glyph glyph-name="e" unicode="e" horiz-adv-x="1112" 
d="M854 707q0 217 -213 217q-125 0 -209 -82t-106 -238h518q10 43 10 103zM289 342q0 -227 246 -227q152 0 245 100l107 -88q-70 -78 -155 -112t-212 -33q-393 0 -393 340q0 70 16 172l17 88q40 244 154 356t321 111q371 0 371 -340q0 -104 -27 -228h-674l-8 -45
q-8 -43 -8 -94z" />
    <glyph glyph-name="f" unicode="f" horiz-adv-x="679" 
d="M295 893h-127l22 135h129l31 182q25 150 92 203q68 53 228 49h106l-20 -123h-60q-96 3 -133 -29t-55 -128l-27 -154h232l-23 -135h-233l-158 -893h-162z" />
    <glyph glyph-name="g" unicode="g" horiz-adv-x="1157" 
d="M285 328q0 -211 209 -211q248 0 303 313l30 168q8 61 9 102q0 213 -215 213q-125 -1 -199 -81t-103 -250l-24 -136q-10 -57 -10 -118zM457 -18q-338 0 -338 313q0 61 16 164l27 155q41 230 144 332t307 102t290 -124l35 104h127l-180 -1028q-43 -246 -167 -362t-339 -117
q-262 0 -348 162l135 73q63 -102 213 -102q281 0 340 326l18 104q-100 -102 -280 -102z" />
    <glyph glyph-name="h" unicode="h" horiz-adv-x="1157" 
d="M1018 772q0 -70 -21 -197l-102 -575h-162l103 584q12 63 12 125q0 197 -189 196q-131 0 -205 -87t-108 -283l-94 -535h-162l258 1462h162l-90 -514q74 60 129 80t147 21q150 0 236 -74t86 -203z" />
    <glyph glyph-name="i" unicode="i" horiz-adv-x="522" 
d="M90 0l182 1028h162l-182 -1028h-162zM311 1251l37 217h164l-39 -217h-162z" />
    <glyph glyph-name="j" unicode="j" horiz-adv-x="534" 
d="M322 1251l38 217h162l-39 -217h-161zM283 1028h161l-186 -1059q-39 -260 -142 -352t-352 -88l25 137q139 -6 210 63t95 230z" />
    <glyph glyph-name="k" unicode="k" horiz-adv-x="1046" 
d="M90 0l258 1462h162l-178 -1013l555 579h190l-426 -434l283 -594h-178l-228 487l-231 -239l-45 -248h-162z" />
    <glyph glyph-name="l" unicode="l" horiz-adv-x="598" 
d="M299 235q0 -48 34 -73t124 -25h45l-25 -137h-53q-162 0 -226 44t-65 155q0 68 19 166l194 1097h162l-199 -1124q-10 -55 -10 -103z" />
    <glyph glyph-name="m" unicode="m" horiz-adv-x="1722" 
d="M678 1049q219 0 285 -156q94 156 313 156q150 0 228 -70t79 -201q0 -78 -22 -203l-103 -575h-162l103 575q14 88 14 144q0 188 -172 188q-121 0 -189 -88t-104 -293l-92 -526h-164l103 578q16 94 16 135q0 195 -174 194q-121 0 -189 -89t-102 -294l-94 -524h-162
l182 1028h125l-6 -102q98 123 287 123z" />
    <glyph glyph-name="n" unicode="n" horiz-adv-x="1157" 
d="M698 1049q154 0 237 -72t83 -205q0 -70 -21 -197l-102 -575h-162l101 575q14 72 14 136q0 197 -189 196q-133 0 -205 -88t-110 -297l-92 -522h-162l182 1028h125l-6 -106q109 127 307 127z" />
    <glyph glyph-name="o" unicode="o" horiz-adv-x="1140" 
d="M856 705q0 209 -225 208q-131 1 -206 -79t-103 -250l-25 -140q-12 -72 -12 -116q0 -211 225 -211q132 1 206 79t103 248l25 140q12 61 12 121zM1020 729q0 -76 -14 -158l-29 -159q-41 -226 -154 -328t-319 -102q-383 0 -383 321q0 70 14 154l29 159q41 225 153 329
q113 103 320 104q383 0 383 -320z" />
    <glyph glyph-name="p" unicode="p" horiz-adv-x="1157" 
d="M870 700q0 213 -208 213q-248 0 -304 -315l-30 -168q-10 -68 -11 -102q0 -211 218 -211q125 1 199 81t102 248l24 136q10 61 10 118zM692 1049q344 0 344 -314q0 -63 -16 -166l-27 -155q-39 -228 -143 -330t-292 -102t-290 114l-98 -557h-162l262 1489h129l2 -90
q109 111 291 111z" />
    <glyph glyph-name="q" unicode="q" horiz-adv-x="1157" 
d="M287 328q0 -211 209 -211q248 0 305 313l28 168q10 68 11 102q0 213 -217 213q-125 0 -198 -80q-72 -81 -103 -251l-25 -136q-10 -61 -10 -118zM465 -18q-344 0 -344 311q0 63 16 166l29 155q41 230 143 332t304 102t290 -120l37 100h129l-264 -1489h-162l96 547
q-106 -104 -274 -104z" />
    <glyph glyph-name="r" unicode="r" horiz-adv-x="768" 
d="M399 1028v-106q100 127 263 127q98 0 192 -54l-92 -139q-68 51 -135 51q-113 0 -181 -96t-104 -309l-90 -502h-162l182 1028h127z" />
    <glyph glyph-name="s" unicode="s" horiz-adv-x="968" 
d="M397 115q133 0 207 54t74 153q0 66 -51 94q-37 24 -189 46t-220 78t-66 169q0 151 97 245t278 94t288 -73q45 -31 80 -90l-129 -74q-80 106 -234 107q-100 0 -160 -52t-60 -128q0 -74 39 -101q41 -27 195 -49t223 -75q69 -54 69 -177q0 -354 -445 -354q-309 -1 -399 159
l131 76q88 -102 272 -102z" />
    <glyph glyph-name="t" unicode="t" horiz-adv-x="684" 
d="M334 235q0 -50 33 -74t116 -24h35l-24 -137h-29q-166 0 -232 43t-65 152q0 66 18 170l95 528h-125l22 135h129l66 330h151l-57 -330h201l-23 -135h-203l-98 -553q-10 -55 -10 -105z" />
    <glyph glyph-name="u" unicode="u" horiz-adv-x="1136" 
d="M750 0v113q-102 -131 -299 -131q-147 0 -229 71q-81 72 -81 203q0 90 23 215l98 557h164l-100 -563q-16 -98 -17 -148q0 -193 180 -192q127 0 197 88t105 293l92 522h164l-183 -1028h-114z" />
    <glyph glyph-name="v" unicode="v" horiz-adv-x="999" 
d="M334 0l-191 1028h162l135 -815l426 815h170l-553 -1028h-149z" />
    <glyph glyph-name="w" unicode="w" horiz-adv-x="1579" 
d="M303 0l-135 1028h162l82 -815l407 815h113l121 -815l368 815h172l-499 -1028h-131l-127 774l-400 -774h-133z" />
    <glyph glyph-name="x" unicode="x" horiz-adv-x="950" 
d="M389 530l-223 498h170l166 -375l297 375h188l-418 -512l232 -516h-172l-174 391l-308 -391h-190z" />
    <glyph glyph-name="y" unicode="y" horiz-adv-x="999" 
d="M334 2l-199 1026h160l151 -844l418 844h170l-616 -1194q-104 -197 -188 -250t-281 -55l24 137q117 0 167 33t114 151z" />
    <glyph glyph-name="z" unicode="z" horiz-adv-x="972" 
d="M0 0l18 104l662 789h-481l22 135h686l-18 -104l-662 -789h555l-24 -135h-758z" />
    <glyph glyph-name="braceleft" unicode="{" horiz-adv-x="888" 
d="M422 30q0 -58 37 -86t127 -28h39l-21 -117h-74q-150 0 -213 47t-63 158q0 61 25 215l38 217q23 127 23 158q0 102 -147 102h-17l19 103h16q115 4 155 55t64 219l29 164q33 223 111 299q79 76 280 76h74l-19 -117h-41q-125 -1 -172 -63t-80 -263l-18 -104
q-24 -160 -60 -220t-131 -100q102 -39 103 -141q0 -35 -25 -174l-32 -188q-27 -154 -27 -212z" />
    <glyph glyph-name="bar" unicode="|" 
d="M356 -201l320 1813h145l-319 -1813h-146z" />
    <glyph glyph-name="braceright" unicode="}" horiz-adv-x="888" 
d="M465 889q0 29 27 176l18 104q27 153 27 211t-38 86t-126 29h-41l20 117h74q150 0 214 -47t65 -158q0 -63 -27 -215l-23 -135q-25 -131 -24 -160q0 -98 149 -98h17l-19 -103h-16q-115 -6 -155 -56t-64 -220l-45 -246q-33 -223 -112 -299t-280 -76h-73l20 117h41
q123 2 171 64t81 262l33 188q23 158 59 219q37 61 129 99q-102 39 -102 141z" />
    <glyph glyph-name="asciitilde" unicode="~" 
d="M414 891q59 1 103 -17t129 -82t145 -65q102 0 184 145l98 -30q-61 -128 -132 -186t-169 -58q-55 0 -95 17t-108 67q-69 50 -99 66q-30 14 -69 14q-102 0 -186 -152l-102 25q63 139 132 197t169 59z" />
    <glyph glyph-name="uni00A0" unicode="&#xa0;" horiz-adv-x="409" 
 />
    <glyph glyph-name="exclamdown" unicode="&#xa1;" horiz-adv-x="634" 
d="M489 1028l-34 -205h-164l35 205h163zM410 637l-166 -1071h-185l213 1071h138z" />
    <glyph glyph-name="cent" unicode="&#xa2;" 
d="M213 627q0 57 14 151l17 86q39 236 139 353t285 139l39 221h161l-41 -231q158 -29 220 -154l-136 -68q-33 57 -73 80q-41 23 -113 23q-131 0 -210 -88t-112 -271l-20 -112q-10 -61 -10 -115q0 -217 213 -217q150 0 243 102l107 -71q-62 -70 -120 -101t-173 -55l-41 -233
h-162l41 237q-137 23 -203 101t-65 223z" />
    <glyph glyph-name="sterling" unicode="&#xa3;" 
d="M360 539q0 39 -10 86h-211l27 143h145q-55 156 -55 244q0 182 119 325q125 143 355 143t329 -145q27 -41 39 -86t22 -137l-147 -45q-4 16 -4 29t-8 61q-10 82 -75 133t-159 51q-129 0 -213 -89t-84 -226q0 -86 68 -258h350l-27 -143h-303q6 -53 6 -74q0 -231 -211 -408
h660l-27 -143h-911l22 123q129 47 216 166t87 250z" />
    <glyph glyph-name="currency" unicode="&#xa4;" 
d="M864 684q0 133 -78 218t-202 85q-125 0 -204 -83t-79 -218t79 -220t204 -85q124 0 202 85t78 218zM160 685q0 140 88 261l-176 182l86 78l172 -178q119 82 253 82t253 -82l172 178l86 -78l-176 -182q88 -123 88 -262t-88 -260l176 -182l-86 -80l-172 178
q-117 -82 -253 -82t-253 82l-172 -178l-86 80l176 182q-88 121 -88 261z" />
    <glyph glyph-name="yen" unicode="&#xa5;" 
d="M381 0l53 307h-313l18 103h314l24 139h-313l16 102h266l-256 811h175l223 -739l481 739h186l-540 -811h264l-18 -102h-314l-24 -139h313l-18 -103h-314l-53 -307h-170z" />
    <glyph glyph-name="brokenbar" unicode="&#xa6;" horiz-adv-x="1024" 
d="M342 0l90 514h158l-90 -514h-158zM506 928l94 534h158l-94 -534h-158z" />
    <glyph glyph-name="section" unicode="&#xa7;" 
d="M336 636q0 -73 43 -110t172 -84l106 -36q10 5 15 10l69 37q92 53 93 174q0 73 -44 111t-172 83l-106 37q-100 -49 -138 -99t-38 -123zM682 120q0 81 -47 116q-23 18 -49 29t-158 57q-134 46 -196 108t-62 166q0 152 127 248q66 51 109 71q-88 74 -89 189q0 168 111 272
t275 104t260 -59q23 -12 84 -71l-127 -90q-70 82 -184 82t-182 -58q-67 -56 -67 -134t39 -112q38 -34 192 -88q154 -56 218 -116t63 -168q0 -145 -104 -238q-31 -29 -127 -78q48 -43 66 -84t18 -106q0 -168 -116 -270t-289 -103q-173 0 -281 63q-41 23 -107 91l127 90
q90 -105 222 -105t204 56q70 56 70 138z" />
    <glyph glyph-name="dieresis" unicode="&#xa8;" horiz-adv-x="1024" 
d="M758 1208l37 213h149l-39 -213h-147zM362 1208l37 213h150l-39 -213h-148z" />
    <glyph glyph-name="copyright" unicode="&#xa9;" horiz-adv-x="1683" 
d="M840 1374q-280 0 -465 -194q-168 -184 -168 -456t180 -454q179 -182 455 -182t456 182t180 458t-178 462q-180 184 -460 184zM76 732q0 329 218 543t551 214t549 -217t216 -543t-218 -541t-549 -215t-549 215t-218 544zM854 371q-170 0 -246 92q-53 68 -53 213v110
q0 160 68 226q78 80 231 80q270 0 285 -195l-121 -6q-16 100 -160 100q-90 0 -131 -46t-41 -148v-131q0 -102 41 -148t131 -47q148 0 166 102l123 -12q-12 -190 -293 -190z" />
    <glyph glyph-name="ordfeminine" unicode="&#xaa;" horiz-adv-x="696" 
d="M442 1110q-108 0 -144 -39t-36 -90t30 -67t104 -17q74 0 111 24q36 24 46 83l18 106h-129zM596 1288q0 86 -113 86q-86 0 -170 -63l-65 65q92 98 248 99q229 0 229 -166q0 -43 -10 -99l-70 -393h-104l2 41q-68 -53 -186 -53t-169 36t-51 113q0 124 68 182t241 58h136
l8 45q6 33 6 49z" />
    <glyph glyph-name="guillemotleft" unicode="&#xab;" horiz-adv-x="880" 
d="M272 592l136 -254l-109 -59l-209 325l324 326l84 -82zM641 592l137 -254l-110 -59l-207 325l321 326l86 -82z" />
    <glyph glyph-name="logicalnot" unicode="&#xac;" 
d="M123 676l22 135h852l-100 -575h-158l78 440h-694z" />
    <glyph glyph-name="uni00AD" unicode="&#xad;" horiz-adv-x="974" 
d="M227 672l25 143h575l-24 -143h-576z" />
    <glyph glyph-name="registered" unicode="&#xae;" horiz-adv-x="1366" 
d="M1147 1186q0 203 -128 336t-336 133t-337 -133t-129 -336t127 -336t338 -133t338 133t127 336zM96 1187q0 251 167 413t420 163q253 0 419 -166q166 -167 166 -413t-167 -411t-419 -165t-419 164t-167 415zM573 1204h142q117 0 116 90q0 90 -124 90h-134v-180zM715 1466
q229 0 229 -155q0 -77 -30 -113t-97 -55l146 -238h-125l-131 228h-132v-228h-112v561h252z" />
    <glyph glyph-name="macron" unicode="&#xaf;" horiz-adv-x="1024" 
d="M383 1268l20 118h529l-23 -118h-526z" />
    <glyph glyph-name="degree" unicode="&#xb0;" horiz-adv-x="821" 
d="M529 1405q-101 0 -157 -58q-56 -57 -56 -165t56 -168q58 -60 158 -60t156 60t57 164q0 106 -56 167q-57 60 -158 60zM532 1524q162 0 254 -94t92 -251t-94 -250t-255 -93t-255 92t-94 252t95 252q96 92 257 92z" />
    <glyph glyph-name="plusminus" unicode="&#xb1;" 
d="M-18 0l22 135h965l-25 -135h-962zM104 698l25 136h408l71 407h146l-72 -407h410l-25 -136h-408l-71 -405h-146l72 405h-410z" />
    <glyph glyph-name="twosuperior" unicode="&#xb2;" horiz-adv-x="700" 
d="M641 1468q0 104 -117 104t-168 -126l-123 14q41 119 114 171t193 52q240 0 240 -190q0 -104 -61 -201q-37 -57 -178 -194l-201 -195h332l-19 -112h-522l14 90l314 307q182 176 182 280z" />
    <glyph glyph-name="threesuperior" unicode="&#xb3;" horiz-adv-x="700" 
d="M428 1303q88 0 143 45t55 105q1 118 -118 118q-113 0 -156 -101l-121 15q59 197 296 197t237 -187q0 -113 -62 -180q-23 -25 -86 -60q55 -33 78 -71t23 -97q0 -121 -79 -213q-78 -92 -274 -94q-196 0 -237 111q-10 35 -10 86l131 24q2 -111 139 -110q86 0 140 51t55 133
q0 129 -164 129h-84l16 99h78z" />
    <glyph glyph-name="acute" unicode="&#xb4;" horiz-adv-x="1024" 
d="M530 1192l205 291h197l-279 -291h-123z" />
    <glyph glyph-name="mu" unicode="&#xb5;" 
d="M297 313q0 -193 186 -192q125 0 195 89t106 296l93 522h157l-180 -1028h-113v131q-96 -150 -282 -149q-78 0 -122 20t-85 76l-100 -539h-160l262 1489h160l-103 -579q-14 -80 -14 -136z" />
    <glyph glyph-name="paragraph" unicode="&#xb6;" horiz-adv-x="1222" 
d="M455 698q-101 0 -149 10t-89 44q-104 80 -104 245q0 121 54 233q103 213 337 230q37 2 194 2h484l-308 -1741h-155l282 1604h-225l-282 -1604h-154l172 977h-57z" />
    <glyph glyph-name="periodcentered" unicode="&#xb7;" horiz-adv-x="575" 
d="M227 643l35 203h170l-35 -203h-170z" />
    <glyph glyph-name="cedilla" unicode="&#xb8;" horiz-adv-x="1024" 
d="M209 -455l162 314h166l-213 -314h-115z" />
    <glyph glyph-name="onesuperior" unicode="&#xb9;" horiz-adv-x="483" 
d="M250 791l131 743l-162 -59l-26 98l251 94h95l-154 -876h-135z" />
    <glyph glyph-name="ordmasculine" unicode="&#xba;" horiz-adv-x="731" 
d="M643 1255q0 115 -127 115q-154 0 -184 -176l-19 -109q-6 -33 -6 -61q0 -115 127 -115q153 0 184 176l19 109q6 49 6 61zM774 1274q0 -37 -10 -94l-21 -115q-23 -137 -96 -199q-74 -61 -215 -61q-256 0 -256 199q0 41 10 96l19 114q25 137 99 199q75 61 214 62
q256 0 256 -201z" />
    <glyph glyph-name="guillemotright" unicode="&#xbb;" horiz-adv-x="880" 
d="M641 616l-137 254l110 60l209 -326l-323 -325l-84 81zM272 616l-137 254l111 60l207 -326l-322 -325l-86 81z" />
    <glyph glyph-name="onequarter" unicode="&#xbc;" horiz-adv-x="1761" 
d="M436 0l717 1462h156l-717 -1462h-156zM1317 0l31 164h-383l14 84l412 629h143l-395 -603h227l33 187h123l-35 -187h92l-18 -112h-93l-28 -162h-123zM338 586l131 743l-162 -59l-26 98l251 94h95l-154 -876h-135z" />
    <glyph glyph-name="onehalf" unicode="&#xbd;" horiz-adv-x="1761" 
d="M408 0l716 1462h154l-717 -1462h-153zM1487 682q0 100 -115 100t-168 -127l-125 15q41 119 114 171t198 52q236 0 235 -191q0 -100 -47 -178t-190 -217l-201 -194h332l-19 -113h-522l14 90l314 307q180 178 180 285zM317 586l132 743l-162 -59l-27 98l252 94h94
l-153 -876h-136z" />
    <glyph glyph-name="threequarters" unicode="&#xbe;" horiz-adv-x="1761" 
d="M487 0l717 1462h154l-717 -1462h-154zM1323 0l29 164h-383l14 84l412 629h145l-397 -603h227l33 187h123l-33 -187h92l-20 -112h-92l-29 -162h-121zM408 1098q86 0 142 45t56 104q0 117 -119 117q-111 0 -157 -98l-119 14q59 195 296 195t236 -187q0 -111 -61 -178
q-25 -27 -86 -59q55 -33 78 -70t22 -96q0 -123 -78 -216t-273 -93q-194 0 -239 110q-10 27 -10 86l131 25q2 -111 140 -111q86 0 140 51t54 133q0 129 -164 129h-84l17 99h78z" />
    <glyph glyph-name="questiondown" unicode="&#xbf;" horiz-adv-x="1196" 
d="M793 1028l-37 -205h-162l35 205h164zM215 -128q0 -83 60 -133t174 -50q229 0 346 286l153 -26q-139 -403 -520 -404q-180 0 -282 85q-101 85 -101 243t119 287q51 55 235 190q143 102 164 232l10 57h140l-15 -82q-20 -121 -70 -191t-188 -171q-127 -98 -168 -156
q-57 -84 -57 -167z" />
    <glyph glyph-name="Agrave" unicode="&#xc0;" horiz-adv-x="1228" 
d="M905 1616h-121l-176 291h187zM889 463l-137 784l-418 -784h555zM907 319h-639l-168 -319h-190l792 1462h162l277 -1462h-178z" />
    <glyph glyph-name="Aacute" unicode="&#xc1;" horiz-adv-x="1228" 
d="M721 1616l205 291h196l-278 -291h-123zM889 463l-137 784l-418 -784h555zM907 319h-639l-168 -319h-190l792 1462h162l277 -1462h-178z" />
    <glyph glyph-name="Acircumflex" unicode="&#xc2;" horiz-adv-x="1228" 
d="M834 1790l-168 -164h-181l308 272h106l211 -272h-164zM889 463l-137 784l-418 -784h555zM907 319h-639l-168 -319h-190l792 1462h162l277 -1462h-178z" />
    <glyph glyph-name="Atilde" unicode="&#xc3;" horiz-adv-x="1228" 
d="M707 1880q79 0 145 -64t100 -65q34 0 57 26q24 26 50 87h104q-53 -134 -98 -184t-124 -50t-144 66t-103 65q-61 1 -110 -114h-105q55 137 103 185t125 48zM889 463l-137 784l-418 -784h555zM907 319h-639l-168 -319h-190l792 1462h162l277 -1462h-178z" />
    <glyph glyph-name="Adieresis" unicode="&#xc4;" horiz-adv-x="1228" 
d="M924 1632l37 213h149l-39 -213h-147zM524 1632l37 213h150l-39 -213h-148zM889 463l-137 784l-418 -784h555zM907 319h-639l-168 -319h-190l792 1462h162l277 -1462h-178z" />
    <glyph glyph-name="Aring" unicode="&#xc5;" horiz-adv-x="1228" 
d="M850 1929q-59 0 -97 -44t-38 -99q0 -102 94 -100q59 0 97 43t38 112q0 88 -94 88zM812 1599q-102 1 -156 49t-54 140t72 160t172 67q100 0 155 -47t55 -138t-71 -161q-72 -70 -173 -70zM889 463l-137 784l-418 -784h555zM907 319h-639l-168 -319h-190l792 1462h162
l277 -1462h-178z" />
    <glyph glyph-name="AE" unicode="&#xc6;" horiz-adv-x="1945" 
d="M969 481l149 838h-20l-690 -838h561zM944 338h-645l-276 -338h-197l1212 1462h957l-25 -143h-686l-88 -508h584l-25 -143h-586l-92 -525h688l-26 -143h-854z" />
    <glyph glyph-name="Ccedilla" unicode="&#xc7;" horiz-adv-x="1294" 
d="M315 -455l162 314h166l-213 -314h-115zM601 -18q-211 0 -321 100t-110 289q0 86 27 233l51 299q31 172 67 262q37 90 107 162q145 152 391 152q199 0 313 -85t113 -233q0 -27 -2 -51l-162 -12q0 61 -10 96q-51 141 -254 141q-170 0 -262 -106t-135 -357l-52 -282
q-20 -121 -20 -195q0 -270 272 -270q131 0 222 61q90 61 125 176l155 -18q-41 -176 -173 -269t-342 -93z" />
    <glyph glyph-name="Egrave" unicode="&#xc8;" horiz-adv-x="1185" 
d="M938 1616h-121l-176 291h186zM125 0l258 1462h854l-25 -143h-686l-90 -508h584l-25 -143h-583l-93 -525h687l-25 -143h-856z" />
    <glyph glyph-name="Eacute" unicode="&#xc9;" horiz-adv-x="1185" 
d="M729 1616l205 291h196l-278 -291h-123zM125 0l258 1462h854l-25 -143h-686l-90 -508h584l-25 -143h-583l-93 -525h687l-25 -143h-856z" />
    <glyph glyph-name="Ecircumflex" unicode="&#xca;" horiz-adv-x="1185" 
d="M858 1790l-168 -164h-180l307 272h107l211 -272h-164zM125 0l258 1462h854l-25 -143h-686l-90 -508h584l-25 -143h-583l-93 -525h687l-25 -143h-856z" />
    <glyph glyph-name="Edieresis" unicode="&#xcb;" horiz-adv-x="1185" 
d="M956 1632l37 213h150l-39 -213h-148zM557 1632l37 213h149l-38 -213h-148zM125 0l258 1462h854l-25 -143h-686l-90 -508h584l-25 -143h-583l-93 -525h687l-25 -143h-856z" />
    <glyph glyph-name="Igrave" unicode="&#xcc;" horiz-adv-x="595" 
d="M594 1616h-121l-176 291h186zM123 0l258 1462h170l-258 -1462h-170z" />
    <glyph glyph-name="Iacute" unicode="&#xcd;" horiz-adv-x="595" 
d="M397 1616l205 291h197l-279 -291h-123zM123 0l258 1462h170l-258 -1462h-170z" />
    <glyph glyph-name="Icircumflex" unicode="&#xce;" horiz-adv-x="595" 
d="M530 1790l-168 -164h-180l307 272h107l211 -272h-164zM123 0l258 1462h170l-258 -1462h-170z" />
    <glyph glyph-name="Idieresis" unicode="&#xcf;" horiz-adv-x="595" 
d="M621 1632l38 213h148l-39 -213h-147zM221 1632l37 213h150l-39 -213h-148zM123 0l258 1462h170l-258 -1462h-170z" />
    <glyph glyph-name="Eth" unicode="&#xd0;" horiz-adv-x="1388" 
d="M1124 1057q0 135 -100 213q-70 51 -229 51h-269l-90 -510h348l-24 -141h-348l-95 -529h269q200 -3 312 101t153 331l55 316q18 115 18 168zM823 1462q227 0 332 -82q141 -111 141 -299q0 -76 -20 -198l-62 -348q-39 -266 -192 -403q-154 -136 -412 -132h-487l119 670
h-172l24 141h172l115 651h442z" />
    <glyph glyph-name="Ntilde" unicode="&#xd1;" horiz-adv-x="1476" 
d="M838 1880q78 0 144 -64t100 -65q34 0 58 26t50 87h104q-53 -134 -98 -184t-124 -50t-144 66t-103 65q-61 1 -110 -114h-105q54 137 102 185t126 48zM123 0l258 1462h164l514 -1171l207 1171h166l-258 -1462h-164l-514 1171l-207 -1171h-166z" />
    <glyph glyph-name="Ograve" unicode="&#xd2;" horiz-adv-x="1384" 
d="M995 1616h-121l-176 291h187zM1122 1065q0 131 -75 202q-76 71 -220 70q-186 0 -295 -135q-82 -102 -116 -307l-58 -328q-18 -96 -18 -172q0 -129 76 -199t215 -71q190 0 299 135q82 108 117 307l57 328q18 104 18 170zM636 -18q-240 0 -354 107t-114 284q0 73 20 200
l64 361q29 156 67 244q39 88 115 157q152 145 386 145t355 -102q120 -102 119 -291q0 -76 -22 -198l-64 -361q-28 -156 -66 -244t-114 -157q-152 -145 -392 -145z" />
    <glyph glyph-name="Oacute" unicode="&#xd3;" horiz-adv-x="1384" 
d="M784 1616l205 291h197l-279 -291h-123zM1122 1065q0 131 -75 202q-76 71 -220 70q-186 0 -295 -135q-82 -102 -116 -307l-58 -328q-18 -96 -18 -172q0 -129 76 -199t215 -71q190 0 299 135q82 108 117 307l57 328q18 104 18 170zM636 -18q-240 0 -354 107t-114 284
q0 73 20 200l64 361q29 156 67 244q39 88 115 157q152 145 386 145t355 -102q120 -102 119 -291q0 -76 -22 -198l-64 -361q-28 -156 -66 -244t-114 -157q-152 -145 -392 -145z" />
    <glyph glyph-name="Ocircumflex" unicode="&#xd4;" horiz-adv-x="1384" 
d="M924 1790l-168 -164h-181l308 272h106l211 -272h-164zM1122 1065q0 131 -75 202q-76 71 -220 70q-186 0 -295 -135q-82 -102 -116 -307l-58 -328q-18 -96 -18 -172q0 -129 76 -199t215 -71q190 0 299 135q82 108 117 307l57 328q18 104 18 170zM636 -18q-240 0 -354 107
t-114 284q0 73 20 200l64 361q29 156 67 244q39 88 115 157q152 145 386 145t355 -102q120 -102 119 -291q0 -76 -22 -198l-64 -361q-28 -156 -66 -244t-114 -157q-152 -145 -392 -145z" />
    <glyph glyph-name="Otilde" unicode="&#xd5;" horiz-adv-x="1384" 
d="M797 1880q79 0 145 -64t100 -65q34 0 57 26q24 26 50 87h104q-53 -134 -98 -184t-124 -50t-144 66t-103 65q-61 1 -110 -114h-105q55 137 103 185t125 48zM1122 1065q0 131 -75 202q-76 71 -220 70q-186 0 -295 -135q-82 -102 -116 -307l-58 -328q-18 -96 -18 -172
q0 -129 76 -199t215 -71q190 0 299 135q82 108 117 307l57 328q18 104 18 170zM636 -18q-240 0 -354 107t-114 284q0 73 20 200l64 361q29 156 67 244q39 88 115 157q152 145 386 145t355 -102q120 -102 119 -291q0 -76 -22 -198l-64 -361q-28 -156 -66 -244t-114 -157
q-152 -145 -392 -145z" />
    <glyph glyph-name="Odieresis" unicode="&#xd6;" horiz-adv-x="1384" 
d="M1014 1632l37 213h149l-39 -213h-147zM614 1632l37 213h150l-39 -213h-148zM1122 1065q0 131 -75 202q-76 71 -220 70q-186 0 -295 -135q-82 -102 -116 -307l-58 -328q-18 -96 -18 -172q0 -129 76 -199t215 -71q190 0 299 135q82 108 117 307l57 328q18 104 18 170z
M636 -18q-240 0 -354 107t-114 284q0 73 20 200l64 361q29 156 67 244q39 88 115 157q152 145 386 145t355 -102q120 -102 119 -291q0 -76 -22 -198l-64 -361q-28 -156 -66 -244t-114 -157q-152 -145 -392 -145z" />
    <glyph glyph-name="multiply" unicode="&#xd7;" 
d="M481 743l-266 326l111 94l266 -325l383 325l76 -94l-381 -326l266 -323l-109 -94l-268 323l-381 -323l-78 94z" />
    <glyph glyph-name="Oslash" unicode="&#xd8;" horiz-adv-x="1382" 
d="M819 1337q-330 0 -403 -442l-58 -328q-18 -98 -18 -172v-26l733 868q-76 100 -254 100zM643 125q178 0 287 135q82 109 117 307l57 328q18 101 18 145t-2 56l-731 -871q76 -100 254 -100zM636 -18q-240 0 -357 110l-115 -137l-101 84l138 162q-33 76 -33 160t20 212
l64 361q29 156 67 244q39 88 115 157q152 145 392 145t358 -110l108 131l101 -82l-131 -157q32 -76 32 -166t-20 -207l-66 -361q-28 -156 -66 -244t-114 -157q-152 -145 -392 -145z" />
    <glyph glyph-name="Ugrave" unicode="&#xd9;" horiz-adv-x="1413" 
d="M1010 1616h-121l-176 291h186zM365 352q0 -76 49 -143q70 -84 231 -84q205 0 309 149q53 76 88 263l164 925h170l-170 -954q-26 -154 -56 -228t-91 -139q-152 -160 -418 -159q-137 0 -223 30t-146 99q-80 92 -79 229q0 74 26 227l158 895h170l-164 -925
q-18 -109 -18 -185z" />
    <glyph glyph-name="Uacute" unicode="&#xda;" horiz-adv-x="1413" 
d="M805 1616l205 291h196l-278 -291h-123zM365 352q0 -76 49 -143q70 -84 231 -84q205 0 309 149q53 76 88 263l164 925h170l-170 -954q-26 -154 -56 -228t-91 -139q-152 -160 -418 -159q-137 0 -223 30t-146 99q-80 92 -79 229q0 74 26 227l158 895h170l-164 -925
q-18 -109 -18 -185z" />
    <glyph glyph-name="Ucircumflex" unicode="&#xdb;" horiz-adv-x="1413" 
d="M934 1790l-168 -164h-180l307 272h106l211 -272h-163zM365 352q0 -76 49 -143q70 -84 231 -84q205 0 309 149q53 76 88 263l164 925h170l-170 -954q-26 -154 -56 -228t-91 -139q-152 -160 -418 -159q-137 0 -223 30t-146 99q-80 92 -79 229q0 74 26 227l158 895h170
l-164 -925q-18 -109 -18 -185z" />
    <glyph glyph-name="Udieresis" unicode="&#xdc;" horiz-adv-x="1413" 
d="M1028 1632l37 213h149l-38 -213h-148zM629 1632l37 213h149l-39 -213h-147zM365 352q0 -76 49 -143q70 -84 231 -84q205 0 309 149q53 76 88 263l164 925h170l-170 -954q-26 -154 -56 -228t-91 -139q-152 -160 -418 -159q-137 0 -223 30t-146 99q-80 92 -79 229
q0 74 26 227l158 895h170l-164 -925q-18 -109 -18 -185z" />
    <glyph glyph-name="Yacute" unicode="&#xdd;" horiz-adv-x="1089" 
d="M659 1616l205 291h197l-279 -291h-123zM371 0l94 528l-297 934h174l231 -760l500 760h187l-625 -934l-94 -528h-170z" />
    <glyph glyph-name="Thorn" unicode="&#xde;" horiz-adv-x="1243" 
d="M680 473q178 -1 270 107t92 284q0 117 -60 169t-194 52h-303l-106 -612h301zM791 1227q426 0 426 -338q0 -117 -36 -225q-76 -229 -261 -297q-94 -35 -242 -35h-324l-59 -332h-170l258 1462h170l-41 -235h279z" />
    <glyph glyph-name="germandbls" unicode="&#xdf;" horiz-adv-x="1165" 
d="M700 1479q180 0 274 -70q93 -70 93 -203q0 -186 -152 -295q70 -41 97 -92q50 -94 6 -323l-14 -84q-34 -226 -130 -320t-286 -92h-123l24 135h80q131 -1 189 59t86 230l16 94q16 98 16 170t-36 105q-37 33 -140 32h-38l22 123h33q88 0 141 64t53 168q0 166 -206 166
q-115 0 -177 -58t-84 -188l-194 -1100h-162l197 1112q35 190 135 278t280 89z" />
    <glyph glyph-name="agrave" unicode="&#xe0;" horiz-adv-x="1075" 
d="M774 1192h-121l-176 291h187zM502 481q-164 0 -228 -63t-63 -185q0 -67 49 -95t166 -27q164 0 227 69q35 39 52 139l30 162h-233zM778 762q0 152 -192 151q-156 0 -264 -104l-99 84q147 156 377 156q166 0 254 -67t88 -191q0 -53 -20 -162l-111 -629h-129l-8 49
q-92 -67 -276 -67t-266 54q-81 54 -81 175q0 188 92 291q94 102 342 102h271l12 72q10 51 10 86z" />
    <glyph glyph-name="aacute" unicode="&#xe1;" horiz-adv-x="1075" 
d="M569 1192l205 291h197l-279 -291h-123zM502 481q-164 0 -228 -63t-63 -185q0 -67 49 -95t166 -27q164 0 227 69q35 39 52 139l30 162h-233zM778 762q0 152 -192 151q-156 0 -264 -104l-99 84q147 156 377 156q166 0 254 -67t88 -191q0 -53 -20 -162l-111 -629h-129l-8 49
q-92 -67 -276 -67t-266 54q-81 54 -81 175q0 188 92 291q94 102 342 102h271l12 72q10 51 10 86z" />
    <glyph glyph-name="acircumflex" unicode="&#xe2;" horiz-adv-x="1075" 
d="M690 1366l-168 -166h-180l307 275h107l211 -275h-164zM502 481q-164 0 -228 -63t-63 -185q0 -67 49 -95t166 -27q164 0 227 69q35 39 52 139l30 162h-233zM778 762q0 152 -192 151q-156 0 -264 -104l-99 84q147 156 377 156q166 0 254 -67t88 -191q0 -53 -20 -162
l-111 -629h-129l-8 49q-92 -67 -276 -67t-266 54q-81 54 -81 175q0 188 92 291q94 102 342 102h271l12 72q10 51 10 86z" />
    <glyph glyph-name="atilde" unicode="&#xe3;" horiz-adv-x="1075" 
d="M560 1456q76 0 142 -66t101 -65q35 0 59 26t49 89h105q-51 -136 -96 -186t-126 -50q-82 0 -146 66t-101 65q-62 1 -111 -114h-104q53 135 102 185t126 50zM502 481q-164 0 -228 -63t-63 -185q0 -67 49 -95t166 -27q164 0 227 69q35 39 52 139l30 162h-233zM778 762
q0 152 -192 151q-156 0 -264 -104l-99 84q147 156 377 156q166 0 254 -67t88 -191q0 -53 -20 -162l-111 -629h-129l-8 49q-92 -67 -276 -67t-266 54q-81 54 -81 175q0 188 92 291q94 102 342 102h271l12 72q10 51 10 86z" />
    <glyph glyph-name="adieresis" unicode="&#xe4;" horiz-adv-x="1075" 
d="M784 1208l37 213h150l-39 -213h-148zM389 1208l37 213h149l-38 -213h-148zM502 481q-164 0 -228 -63t-63 -185q0 -67 49 -95t166 -27q164 0 227 69q35 39 52 139l30 162h-233zM778 762q0 152 -192 151q-156 0 -264 -104l-99 84q147 156 377 156q166 0 254 -67t88 -191
q0 -53 -20 -162l-111 -629h-129l-8 49q-92 -67 -276 -67t-266 54q-81 54 -81 175q0 188 92 291q94 102 342 102h271l12 72q10 51 10 86z" />
    <glyph glyph-name="aring" unicode="&#xe5;" horiz-adv-x="1075" 
d="M807 1417q0 88 -101 88q-52 0 -90 -44t-38 -113q0 -88 94 -88q59 0 97 44t38 113zM465 1363q-1 93 71 161t172 67q100 0 156 -47t56 -139t-72 -162q-72 -69 -173 -69t-156 48q-54 48 -54 141zM502 481q-164 0 -228 -63t-63 -185q0 -67 49 -95t166 -27q164 0 227 69
q35 39 52 139l30 162h-233zM778 762q0 152 -192 151q-156 0 -264 -104l-99 84q147 156 377 156q166 0 254 -67t88 -191q0 -53 -20 -162l-111 -629h-129l-8 49q-92 -67 -276 -67t-266 54q-81 54 -81 175q0 188 92 291q94 102 342 102h271l12 72q10 51 10 86z" />
    <glyph glyph-name="ae" unicode="&#xe6;" horiz-adv-x="1708" 
d="M1448 709q0 215 -213 215q-254 0 -311 -306l-2 -14h518q8 49 8 105zM502 481q-164 0 -228 -64t-63 -184q0 -67 49 -95t173 -28t190 55q66 54 88 181l24 135h-233zM609 1049q239 0 284 -166q67 90 145 128t199 38q362 0 362 -342q0 -104 -26 -226h-672l-8 -45
q-8 -35 -8 -94q0 -227 245 -227q147 0 246 100l107 -88q-70 -78 -154 -112t-209 -33q-268 0 -336 184q-57 -102 -144 -143t-257 -41t-251 54t-81 175q0 188 92 291q94 102 342 102h271l12 72q10 51 10 86q0 152 -192 151q-155 0 -264 -104l-99 84q147 156 386 156z" />
    <glyph glyph-name="ccedilla" unicode="&#xe7;" horiz-adv-x="972" 
d="M188 -455l162 314h166l-213 -314h-115zM496 -18q-178 0 -274 88q-95 88 -95 252q0 80 16 167l15 86q41 229 137 338q119 135 330 136q258 0 331 -183l-133 -57q-35 57 -79 81t-115 23q-129 0 -203 -85t-109 -271l-16 -102q-10 -57 -10 -117q0 -221 219 -221
q139 0 231 100l107 -90q-131 -145 -352 -145z" />
    <glyph glyph-name="egrave" unicode="&#xe8;" horiz-adv-x="1112" 
d="M784 1192h-120l-177 291h187zM854 707q0 217 -213 217q-125 0 -209 -82t-106 -238h518q10 43 10 103zM289 342q0 -227 246 -227q152 0 245 100l107 -88q-70 -78 -155 -112t-212 -33q-393 0 -393 340q0 70 16 172l17 88q40 244 154 356t321 111q371 0 371 -340
q0 -104 -27 -228h-674l-8 -45q-8 -43 -8 -94z" />
    <glyph glyph-name="eacute" unicode="&#xe9;" horiz-adv-x="1112" 
d="M582 1192l204 291h197l-278 -291h-123zM854 707q0 217 -213 217q-125 0 -209 -82t-106 -238h518q10 43 10 103zM289 342q0 -227 246 -227q152 0 245 100l107 -88q-70 -78 -155 -112t-212 -33q-393 0 -393 340q0 70 16 172l17 88q40 244 154 356t321 111q371 0 371 -340
q0 -104 -27 -228h-674l-8 -45q-8 -43 -8 -94z" />
    <glyph glyph-name="ecircumflex" unicode="&#xea;" horiz-adv-x="1112" 
d="M719 1366l-168 -166h-180l307 275h106l211 -275h-164zM854 707q0 217 -213 217q-125 0 -209 -82t-106 -238h518q10 43 10 103zM289 342q0 -227 246 -227q152 0 245 100l107 -88q-70 -78 -155 -112t-212 -33q-393 0 -393 340q0 70 16 172l17 88q40 244 154 356t321 111
q371 0 371 -340q0 -104 -27 -228h-674l-8 -45q-8 -43 -8 -94z" />
    <glyph glyph-name="edieresis" unicode="&#xeb;" horiz-adv-x="1112" 
d="M809 1208l37 213h149l-39 -213h-147zM414 1208l37 213h149l-39 -213h-147zM854 707q0 217 -213 217q-125 0 -209 -82t-106 -238h518q10 43 10 103zM289 342q0 -227 246 -227q152 0 245 100l107 -88q-70 -78 -155 -112t-212 -33q-393 0 -393 340q0 70 16 172l17 88
q40 244 154 356t321 111q371 0 371 -340q0 -104 -27 -228h-674l-8 -45q-8 -43 -8 -94z" />
    <glyph glyph-name="igrave" unicode="&#xec;" horiz-adv-x="522" 
d="M475 1192h-121l-176 291h187zM88 0l182 1028h162l-182 -1028h-162z" />
    <glyph glyph-name="iacute" unicode="&#xed;" horiz-adv-x="522" 
d="M287 1192l205 291h196l-278 -291h-123zM88 0l182 1028h162l-182 -1028h-162z" />
    <glyph glyph-name="icircumflex" unicode="&#xee;" horiz-adv-x="522" 
d="M418 1366l-168 -166h-180l307 275h106l211 -275h-164zM88 0l182 1028h162l-180 -1028h-164z" />
    <glyph glyph-name="idieresis" unicode="&#xef;" horiz-adv-x="522" 
d="M506 1208l37 213h147l-37 -213h-147zM111 1208l36 213h148l-37 -213h-147zM88 0l182 1028h162l-182 -1028h-162z" />
    <glyph glyph-name="eth" unicode="&#xf0;" horiz-adv-x="1140" 
d="M854 688q0 207 -215 207q-264 0 -322 -326l-20 -125q-12 -74 -12 -118q0 -209 215 -209q134 -1 212 79t107 248l21 111q14 84 14 133zM637 1030q131 0 201 -49q-33 160 -90 219l-246 -106l-43 94l192 84q-82 72 -198 90l41 111q176 -20 313 -134l205 91l43 -95l-166 -73
q131 -184 131 -504q0 -98 -19 -203l-24 -143q-39 -222 -158 -326t-332 -104q-367 0 -366 321q0 54 14 154l27 143q76 430 475 430z" />
    <glyph glyph-name="ntilde" unicode="&#xf1;" horiz-adv-x="1157" 
d="M601 1456q77 0 143 -66t100 -65q34 0 58 26t50 89h105q-51 -136 -96 -186t-126 -50t-145 66t-102 65q-62 1 -111 -114h-104q53 135 102 185t126 50zM698 1049q154 0 237 -72t83 -205q0 -70 -21 -197l-102 -575h-162l101 575q14 72 14 136q0 197 -189 196q-133 0 -205 -88
t-110 -297l-92 -522h-162l182 1028h125l-6 -106q109 127 307 127z" />
    <glyph glyph-name="ograve" unicode="&#xf2;" horiz-adv-x="1140" 
d="M799 1192h-121l-176 291h186zM856 705q0 209 -225 208q-131 1 -206 -79t-103 -250l-25 -140q-12 -72 -12 -116q0 -211 225 -211q132 1 206 79t103 248l25 140q12 61 12 121zM1020 729q0 -76 -14 -158l-29 -159q-41 -226 -154 -328t-319 -102q-383 0 -383 321q0 70 14 154
l29 159q41 225 153 329q113 103 320 104q383 0 383 -320z" />
    <glyph glyph-name="oacute" unicode="&#xf3;" horiz-adv-x="1140" 
d="M588 1192l205 291h196l-278 -291h-123zM856 705q0 209 -225 208q-131 1 -206 -79t-103 -250l-25 -140q-12 -72 -12 -116q0 -211 225 -211q132 1 206 79t103 248l25 140q12 61 12 121zM1020 729q0 -76 -14 -158l-29 -159q-41 -226 -154 -328t-319 -102q-383 0 -383 321
q0 70 14 154l29 159q41 225 153 329q113 103 320 104q383 0 383 -320z" />
    <glyph glyph-name="ocircumflex" unicode="&#xf4;" horiz-adv-x="1140" 
d="M727 1366l-168 -166h-180l307 275h107l211 -275h-164zM856 705q0 209 -225 208q-131 1 -206 -79t-103 -250l-25 -140q-12 -72 -12 -116q0 -211 225 -211q132 1 206 79t103 248l25 140q12 61 12 121zM1020 729q0 -76 -14 -158l-29 -159q-41 -226 -154 -328t-319 -102
q-383 0 -383 321q0 70 14 154l29 159q41 225 153 329q113 103 320 104q383 0 383 -320z" />
    <glyph glyph-name="otilde" unicode="&#xf5;" horiz-adv-x="1140" 
d="M601 1456q77 0 143 -66t100 -65q34 0 58 26t50 89h105q-51 -136 -96 -186t-126 -50t-145 66t-102 65q-62 1 -111 -114h-104q53 135 102 185t126 50zM856 705q0 209 -225 208q-131 1 -206 -79t-103 -250l-25 -140q-12 -72 -12 -116q0 -211 225 -211q132 1 206 79t103 248
l25 140q12 61 12 121zM1020 729q0 -76 -14 -158l-29 -159q-41 -226 -154 -328t-319 -102q-383 0 -383 321q0 70 14 154l29 159q41 225 153 329q113 103 320 104q383 0 383 -320z" />
    <glyph glyph-name="odieresis" unicode="&#xf6;" horiz-adv-x="1140" 
d="M815 1208l37 213h149l-38 -213h-148zM420 1208l37 213h149l-39 -213h-147zM856 705q0 209 -225 208q-131 1 -206 -79t-103 -250l-25 -140q-12 -72 -12 -116q0 -211 225 -211q132 1 206 79t103 248l25 140q12 61 12 121zM1020 729q0 -76 -14 -158l-29 -159
q-41 -226 -154 -328t-319 -102q-383 0 -383 321q0 70 14 154l29 159q41 225 153 329q113 103 320 104q383 0 383 -320z" />
    <glyph glyph-name="divide" unicode="&#xf7;" 
d="M561 981l33 184h149l-32 -184h-150zM444 322l33 184h150l-33 -184h-150zM100 676l23 135h964l-24 -135h-963z" />
    <glyph glyph-name="oslash" unicode="&#xf8;" horiz-adv-x="1140" 
d="M625 913q-123 1 -198 -79t-105 -250l-25 -140q-12 -66 -12 -102t6 -68l518 578q-61 61 -184 61zM517 117q124 0 199 79t105 248l25 140q12 80 12 104t-4 68l-520 -580q59 -59 183 -59zM1022 746q0 -82 -16 -175l-29 -159q-39 -222 -152 -326t-307 -104t-293 73l-82 -92
l-73 66l90 100q-39 67 -39 153t16 175l27 159q41 225 154 329q114 103 306 103t294 -73l81 92l74 -66l-90 -102q39 -71 39 -153z" />
    <glyph glyph-name="ugrave" unicode="&#xf9;" horiz-adv-x="1136" 
d="M797 1192h-121l-176 291h186zM750 0v113q-102 -131 -299 -131q-147 0 -229 71q-81 72 -81 203q0 90 23 215l98 557h164l-100 -563q-16 -98 -17 -148q0 -193 180 -192q127 0 197 88t105 293l92 522h164l-183 -1028h-114z" />
    <glyph glyph-name="uacute" unicode="&#xfa;" horiz-adv-x="1136" 
d="M588 1192l205 291h196l-278 -291h-123zM750 0v113q-102 -131 -299 -131q-147 0 -229 71q-81 72 -81 203q0 90 23 215l98 557h164l-100 -563q-16 -98 -17 -148q0 -193 180 -192q127 0 197 88t105 293l92 522h164l-183 -1028h-114z" />
    <glyph glyph-name="ucircumflex" unicode="&#xfb;" horiz-adv-x="1136" 
d="M717 1366l-168 -166h-180l307 275h106l211 -275h-164zM750 0v113q-102 -131 -299 -131q-147 0 -229 71q-81 72 -81 203q0 90 23 215l98 557h164l-100 -563q-16 -98 -17 -148q0 -193 180 -192q127 0 197 88t105 293l92 522h164l-183 -1028h-114z" />
    <glyph glyph-name="udieresis" unicode="&#xfc;" horiz-adv-x="1136" 
d="M815 1208l37 213h149l-38 -213h-148zM420 1208l37 213h149l-39 -213h-147zM750 0v113q-102 -131 -299 -131q-147 0 -229 71q-81 72 -81 203q0 90 23 215l98 557h164l-100 -563q-16 -98 -17 -148q0 -193 180 -192q127 0 197 88t105 293l92 522h164l-183 -1028h-114z" />
    <glyph glyph-name="yacute" unicode="&#xfd;" horiz-adv-x="999" 
d="M528 1192l205 291h197l-279 -291h-123zM334 2l-199 1026h160l151 -844l418 844h170l-616 -1194q-104 -197 -188 -250t-281 -55l24 137q117 0 167 33t114 151z" />
    <glyph glyph-name="thorn" unicode="&#xfe;" horiz-adv-x="1157" 
d="M870 700q0 213 -208 213q-248 0 -304 -315l-30 -168q-10 -68 -11 -102q0 -211 218 -211q125 1 199 81t102 248l24 136q10 61 10 118zM696 1049q340 0 340 -314q0 -63 -16 -166l-27 -155q-39 -228 -143 -330t-293 -102t-289 108l-96 -551h-164l340 1923h162l-90 -516
q64 57 124 80t152 23z" />
    <glyph glyph-name="ydieresis" unicode="&#xff;" horiz-adv-x="999" 
d="M727 1208l37 213h149l-39 -213h-147zM332 1208l37 213h149l-39 -213h-147zM334 2l-199 1026h160l151 -844l418 844h170l-616 -1194q-104 -197 -188 -250t-281 -55l24 137q117 0 167 33t114 151z" />
    <glyph glyph-name="Amacron" unicode="&#x100;" horiz-adv-x="1228" 
d="M561 1694l21 118h528l-23 -118h-526zM889 463l-137 784l-418 -784h555zM907 319h-639l-168 -319h-190l792 1462h162l277 -1462h-178z" />
    <glyph glyph-name="amacron" unicode="&#x101;" horiz-adv-x="1075" 
d="M395 1268l21 118h528l-22 -118h-527zM502 481q-164 0 -228 -63t-63 -185q0 -67 49 -95t166 -27q164 0 227 69q35 39 52 139l30 162h-233zM778 762q0 152 -192 151q-156 0 -264 -104l-99 84q147 156 377 156q166 0 254 -67t88 -191q0 -53 -20 -162l-111 -629h-129l-8 49
q-92 -67 -276 -67t-266 54q-81 54 -81 175q0 188 92 291q94 102 342 102h271l12 72q10 51 10 86z" />
    <glyph glyph-name="Abreve" unicode="&#x102;" horiz-adv-x="1228" 
d="M666 1847q0 -115 151 -114q88 -1 131 33t70 124h110q-28 -158 -98 -221t-219 -63q-260 0 -260 202q0 31 8 82h111q-4 -29 -4 -43zM889 463l-137 784l-418 -784h555zM907 319h-639l-168 -319h-190l792 1462h162l277 -1462h-178z" />
    <glyph glyph-name="abreve" unicode="&#x103;" horiz-adv-x="1075" 
d="M516 1421q0 -115 152 -114q88 -1 130 33t70 124h111q-29 -158 -99 -220t-216 -62q-262 0 -263 202q1 31 9 80h110q-4 -27 -4 -43zM502 481q-164 0 -228 -63t-63 -185q0 -67 49 -95t166 -27q164 0 227 69q35 39 52 139l30 162h-233zM778 762q0 152 -192 151
q-156 0 -264 -104l-99 84q147 156 377 156q166 0 254 -67t88 -191q0 -53 -20 -162l-111 -629h-129l-8 49q-92 -67 -276 -67t-266 54q-81 54 -81 175q0 188 92 291q94 102 342 102h271l12 72q10 51 10 86z" />
    <glyph glyph-name="Aogonek" unicode="&#x104;" horiz-adv-x="1228" 
d="M889 463l-137 784l-418 -784h555zM903 -233q0 -66 90 -66q51 0 125 20v-94q-84 -29 -164 -28q-203 0 -202 145q0 78 66 148t179 108h-34l-56 319h-639l-168 -319h-190l792 1462h162l277 -1462q-238 -121 -238 -233z" />
    <glyph glyph-name="aogonek" unicode="&#x105;" horiz-adv-x="1075" 
d="M502 481q-164 0 -228 -63t-63 -185q0 -67 49 -95t166 -27q164 0 227 69q35 37 54 139l28 162h-233zM571 -233q0 -66 91 -66q53 0 126 20v-94q-84 -29 -163 -28q-205 0 -205 145q0 80 72 152t190 108l-8 45q-92 -67 -276 -67t-266 54q-81 54 -81 175q0 188 92 291
q94 102 342 102h271l12 72q10 61 10 86q0 152 -192 151q-154 0 -264 -104l-99 84q147 156 377 156q166 0 254 -67t88 -191q0 -58 -18 -162l-113 -629q-240 -123 -240 -233z" />
    <glyph glyph-name="Cacute" unicode="&#x106;" horiz-adv-x="1294" 
d="M776 1616l205 291h197l-279 -291h-123zM601 -18q-211 0 -321 100t-110 289q0 86 27 233l51 299q31 172 67 262q37 90 107 162q145 152 391 152q199 0 313 -85t113 -233q0 -27 -2 -51l-162 -12q0 61 -10 96q-51 141 -254 141q-170 0 -262 -106t-135 -357l-52 -282
q-20 -121 -20 -195q0 -270 272 -270q131 0 222 61q90 61 125 176l155 -18q-41 -176 -173 -269t-342 -93z" />
    <glyph glyph-name="cacute" unicode="&#x107;" horiz-adv-x="972" 
d="M573 1192l205 291h197l-279 -291h-123zM496 -18q-178 0 -274 88q-95 88 -95 252q0 80 16 167l15 86q41 229 137 338q119 135 330 136q258 0 331 -183l-133 -57q-35 57 -79 81t-115 23q-129 0 -203 -85t-109 -271l-16 -102q-10 -57 -10 -117q0 -221 219 -221
q139 0 231 100l107 -90q-131 -145 -352 -145z" />
    <glyph glyph-name="Ccircumflex" unicode="&#x108;" horiz-adv-x="1294" 
d="M899 1790l-168 -164h-180l307 272h107l211 -272h-164zM601 -18q-211 0 -321 100t-110 289q0 86 27 233l51 299q31 172 67 262q37 90 107 162q145 152 391 152q199 0 313 -85t113 -233q0 -27 -2 -51l-162 -12q0 61 -10 96q-51 141 -254 141q-170 0 -262 -106t-135 -357
l-52 -282q-20 -121 -20 -195q0 -270 272 -270q131 0 222 61q90 61 125 176l155 -18q-41 -176 -173 -269t-342 -93z" />
    <glyph glyph-name="ccircumflex" unicode="&#x109;" horiz-adv-x="972" 
d="M709 1366l-168 -166h-181l308 275h106l211 -275h-164zM496 -18q-178 0 -274 88q-95 88 -95 252q0 80 16 167l15 86q41 229 137 338q119 135 330 136q258 0 331 -183l-133 -57q-35 57 -79 81t-115 23q-129 0 -203 -85t-109 -271l-16 -102q-10 -57 -10 -117
q0 -221 219 -221q139 0 231 100l107 -90q-131 -145 -352 -145z" />
    <glyph glyph-name="Cdotaccent" unicode="&#x10a;" horiz-adv-x="1294" 
d="M788 1632l37 213h160l-37 -213h-160zM601 -18q-211 0 -321 100t-110 289q0 86 27 233l51 299q31 172 67 262q37 90 107 162q145 152 391 152q199 0 313 -85t113 -233q0 -27 -2 -51l-162 -12q0 61 -10 96q-51 141 -254 141q-170 0 -262 -106t-135 -357l-52 -282
q-20 -121 -20 -195q0 -270 272 -270q131 0 222 61q90 61 125 176l155 -18q-41 -176 -173 -269t-342 -93z" />
    <glyph glyph-name="cdotaccent" unicode="&#x10b;" horiz-adv-x="972" 
d="M580 1208l36 213h160l-37 -213h-159zM496 -18q-178 0 -274 88q-95 88 -95 252q0 80 16 167l15 86q41 229 137 338q119 135 330 136q258 0 331 -183l-133 -57q-35 57 -79 81t-115 23q-129 0 -203 -85t-109 -271l-16 -102q-10 -57 -10 -117q0 -221 219 -221q139 0 231 100
l107 -90q-131 -145 -352 -145z" />
    <glyph glyph-name="Ccaron" unicode="&#x10c;" horiz-adv-x="1294" 
d="M883 1731l168 165h180l-307 -274h-107l-211 274h164zM601 -18q-211 0 -321 100t-110 289q0 86 27 233l51 299q31 172 67 262q37 90 107 162q145 152 391 152q199 0 313 -85t113 -233q0 -27 -2 -51l-162 -12q0 61 -10 96q-51 141 -254 141q-170 0 -262 -106t-135 -357
l-52 -282q-20 -121 -20 -195q0 -270 272 -270q131 0 222 61q90 61 125 176l155 -18q-41 -176 -173 -269t-342 -93z" />
    <glyph glyph-name="ccaron" unicode="&#x10d;" horiz-adv-x="972" 
d="M678 1307l168 163h180l-307 -272h-107l-211 272h164zM496 -18q-178 0 -274 88q-95 88 -95 252q0 80 16 167l15 86q41 229 137 338q119 135 330 136q258 0 331 -183l-133 -57q-35 57 -79 81t-115 23q-129 0 -203 -85t-109 -271l-16 -102q-10 -57 -10 -117q0 -221 219 -221
q139 0 231 100l107 -90q-131 -145 -352 -145z" />
    <glyph glyph-name="Dcaron" unicode="&#x10e;" horiz-adv-x="1388" 
d="M836 1731l168 165h180l-307 -274h-107l-211 274h164zM1124 1057q0 135 -100 213q-70 51 -229 51h-269l-209 -1180h269q200 -3 312 101t153 331l55 316q18 111 18 168zM823 1462q227 0 332 -82q141 -111 141 -301q0 -70 -20 -196l-62 -348q-39 -266 -192 -403
q-154 -136 -412 -132h-487l258 1462h442z" />
    <glyph glyph-name="dcaron" unicode="&#x10f;" horiz-adv-x="1312" 
d="M1229 1008l137 471h160l-183 -471h-114zM287 328q0 -211 209 -211q250 0 305 313l28 168q10 66 11 104q0 211 -217 211q-125 0 -198 -80q-72 -81 -103 -251l-25 -136q-10 -57 -10 -118zM121 291q0 74 16 168l29 155q39 230 142 332t271 102t255 -57q8 -6 55 -53l92 524
h164l-258 -1462h-129l6 100q-70 -70 -134 -94q-64 -25 -163 -24q-346 0 -346 309z" />
    <glyph glyph-name="Dcroat" unicode="&#x110;" horiz-adv-x="1388" 
d="M1124 1057q0 135 -100 213q-70 51 -229 51h-269l-90 -510h348l-24 -141h-348l-95 -529h269q200 -3 312 101t153 331l55 316q18 115 18 168zM823 1462q227 0 332 -82q141 -111 141 -299q0 -76 -20 -198l-62 -348q-39 -266 -192 -403q-154 -136 -412 -132h-487l119 670
h-172l24 141h172l115 651h442z" />
    <glyph glyph-name="dcroat" unicode="&#x111;" horiz-adv-x="1157" 
d="M287 328q0 -211 209 -211q250 0 305 313l28 168q10 66 11 104q0 211 -217 211q-125 0 -198 -80q-72 -81 -103 -251l-25 -136q-10 -57 -10 -118zM121 291q0 74 16 168l29 155q39 230 142 332t271 102t255 -57q8 -6 55 -53l41 231h-307l20 117h307l31 176h164l-31 -176h166
l-20 -117h-166l-207 -1169h-129l6 100q-70 -70 -134 -94q-64 -25 -163 -24q-346 0 -346 309z" />
    <glyph glyph-name="Emacron" unicode="&#x112;" horiz-adv-x="1185" 
d="M573 1694l21 118h528l-22 -118h-527zM125 0l258 1462h854l-25 -143h-686l-90 -508h584l-25 -143h-583l-93 -525h687l-25 -143h-856z" />
    <glyph glyph-name="emacron" unicode="&#x113;" horiz-adv-x="1112" 
d="M420 1268l20 118h529l-23 -118h-526zM854 707q0 217 -213 217q-125 0 -209 -82t-106 -238h518q10 43 10 103zM289 342q0 -227 246 -227q152 0 245 100l107 -88q-70 -78 -155 -112t-212 -33q-393 0 -393 340q0 70 16 172l17 88q40 244 154 356t321 111q371 0 371 -340
q0 -104 -27 -228h-674l-8 -45q-8 -43 -8 -94z" />
    <glyph glyph-name="Ebreve" unicode="&#x114;" horiz-adv-x="1185" 
d="M696 1847q0 -115 152 -114q88 -1 131 33t70 124h110q-27 -158 -97 -221t-220 -63q-260 0 -260 202q0 31 8 82h110q-4 -29 -4 -43zM125 0l258 1462h854l-25 -143h-686l-90 -508h584l-25 -143h-583l-93 -525h687l-25 -143h-856z" />
    <glyph glyph-name="ebreve" unicode="&#x115;" horiz-adv-x="1112" 
d="M541 1421q0 -115 151 -114q88 -1 130 33t71 124h111q-29 -158 -99 -220t-217 -62q-262 0 -262 202q0 31 8 80h111q-4 -27 -4 -43zM854 707q0 217 -213 217q-125 0 -209 -82t-106 -238h518q10 43 10 103zM289 342q0 -227 246 -227q152 0 245 100l107 -88
q-70 -78 -155 -112t-212 -33q-393 0 -393 340q0 70 16 172l17 88q40 244 154 356t321 111q371 0 371 -340q0 -104 -27 -228h-674l-8 -45q-8 -43 -8 -94z" />
    <glyph glyph-name="Edotaccent" unicode="&#x116;" horiz-adv-x="1185" 
d="M748 1632l36 213h160l-37 -213h-159zM125 0l258 1462h854l-25 -143h-686l-90 -508h584l-25 -143h-583l-93 -525h687l-25 -143h-856z" />
    <glyph glyph-name="edotaccent" unicode="&#x117;" horiz-adv-x="1112" 
d="M604 1208l37 213h160l-37 -213h-160zM854 707q0 217 -213 217q-125 0 -209 -82t-106 -238h518q10 43 10 103zM289 342q0 -227 246 -227q152 0 245 100l107 -88q-70 -78 -155 -112t-212 -33q-393 0 -393 340q0 70 16 172l17 88q40 244 154 356t321 111q371 0 371 -340
q0 -104 -27 -228h-674l-8 -45q-8 -43 -8 -94z" />
    <glyph glyph-name="Eogonek" unicode="&#x118;" horiz-adv-x="1185" 
d="M741 -233q0 -66 90 -66q53 0 127 20v-94q-84 -29 -165 -28q-203 0 -203 145q0 78 63 144t183 112h-711l258 1462h854l-25 -143h-686l-90 -508h584l-25 -143h-583l-93 -525h687l-25 -143q-240 -121 -240 -233z" />
    <glyph glyph-name="eogonek" unicode="&#x119;" horiz-adv-x="1112" 
d="M854 707q0 217 -213 217q-125 0 -208 -81t-105 -239h516q10 41 10 103zM289 342q0 -229 246 -229q151 0 245 102l107 -88q-68 -80 -156 -113q-104 -72 -146 -128t-42 -120t90 -65q53 0 127 20v-94q-84 -29 -164 -28q-205 0 -205 147q0 129 135 236q-399 2 -399 340
q0 63 18 172l15 88q42 244 156 356t319 111q371 0 371 -340q0 -100 -27 -228h-672l-8 -45q-10 -49 -10 -94z" />
    <glyph glyph-name="Ecaron" unicode="&#x11a;" horiz-adv-x="1185" 
d="M840 1731l168 165h180l-307 -274h-107l-211 274h164zM125 0l258 1462h854l-25 -143h-686l-90 -508h584l-25 -143h-583l-93 -525h687l-25 -143h-856z" />
    <glyph glyph-name="ecaron" unicode="&#x11b;" horiz-adv-x="1112" 
d="M696 1307l168 163h180l-307 -272h-106l-211 272h164zM854 707q0 217 -213 217q-125 0 -209 -82t-106 -238h518q10 43 10 103zM289 342q0 -227 246 -227q152 0 245 100l107 -88q-70 -78 -155 -112t-212 -33q-393 0 -393 340q0 70 16 172l17 88q40 244 154 356t321 111
q371 0 371 -340q0 -104 -27 -228h-674l-8 -45q-8 -43 -8 -94z" />
    <glyph glyph-name="Gcircumflex" unicode="&#x11c;" horiz-adv-x="1357" 
d="M909 1790l-168 -164h-180l307 272h107l211 -272h-164zM170 375q0 84 25 227l53 299q29 170 67 262q39 92 111 164q145 152 399 152q203 0 321 -85t118 -235q0 -27 -4 -49l-160 -12v18q0 104 -73 162t-204 57q-176 1 -271 -107t-140 -358l-50 -282q-20 -117 -20 -191
q0 -272 289 -272q188 0 291 121q80 88 110 258l23 127h-303l22 137h473l-45 -252q-26 -145 -62 -229t-106 -154q-152 -151 -392 -151q-472 0 -472 393z" />
    <glyph glyph-name="gcircumflex" unicode="&#x11d;" horiz-adv-x="1157" 
d="M733 1366l-168 -166h-180l307 275h107l211 -275h-164zM285 328q0 -211 209 -211q248 0 303 313l30 168q8 61 9 102q0 213 -215 213q-125 -1 -199 -81t-103 -250l-24 -136q-10 -57 -10 -118zM457 -18q-338 0 -338 313q0 61 16 164l27 155q41 230 144 332t307 102t290 -124
l35 104h127l-180 -1028q-43 -246 -167 -362t-339 -117q-262 0 -348 162l135 73q63 -102 213 -102q281 0 340 326l18 104q-100 -102 -280 -102z" />
    <glyph glyph-name="Gbreve" unicode="&#x11e;" horiz-adv-x="1357" 
d="M735 1847q0 -115 152 -114q88 -1 131 33t69 124h111q-28 -158 -98 -221t-219 -63q-260 0 -260 202q0 31 8 82h110q-4 -29 -4 -43zM170 375q0 84 25 227l53 299q29 170 67 262q39 92 111 164q145 152 399 152q203 0 321 -85t118 -235q0 -27 -4 -49l-160 -12v18
q0 104 -73 162t-204 57q-176 1 -271 -107t-140 -358l-50 -282q-20 -117 -20 -191q0 -272 289 -272q188 0 291 121q80 88 110 258l23 127h-303l22 137h473l-45 -252q-26 -145 -62 -229t-106 -154q-152 -151 -392 -151q-472 0 -472 393z" />
    <glyph glyph-name="gbreve" unicode="&#x11f;" horiz-adv-x="1157" 
d="M578 1421q0 -115 151 -114q88 -1 130 33t71 124h110q-28 -158 -98 -220t-217 -62q-262 0 -262 202q0 31 8 80h111q-4 -27 -4 -43zM285 328q0 -211 209 -211q248 0 303 313l30 168q8 61 9 102q0 213 -215 213q-125 -1 -199 -81t-103 -250l-24 -136q-10 -57 -10 -118z
M457 -18q-338 0 -338 313q0 61 16 164l27 155q41 230 144 332t307 102t290 -124l35 104h127l-180 -1028q-43 -246 -167 -362t-339 -117q-262 0 -348 162l135 73q63 -102 213 -102q281 0 340 326l18 104q-100 -102 -280 -102z" />
    <glyph glyph-name="Gdotaccent" unicode="&#x120;" horiz-adv-x="1357" 
d="M795 1632l36 213h160l-37 -213h-159zM170 375q0 84 25 227l53 299q29 170 67 262q39 92 111 164q145 152 399 152q203 0 321 -85t118 -235q0 -27 -4 -49l-160 -12v18q0 104 -73 162t-204 57q-176 1 -271 -107t-140 -358l-50 -282q-20 -117 -20 -191q0 -272 289 -272
q188 0 291 121q80 88 110 258l23 127h-303l22 137h473l-45 -252q-26 -145 -62 -229t-106 -154q-152 -151 -392 -151q-472 0 -472 393z" />
    <glyph glyph-name="gdotaccent" unicode="&#x121;" horiz-adv-x="1157" 
d="M637 1208l37 213h160l-37 -213h-160zM285 328q0 -211 209 -211q248 0 303 313l30 168q8 61 9 102q0 213 -215 213q-125 -1 -199 -81t-103 -250l-24 -136q-10 -57 -10 -118zM457 -18q-338 0 -338 313q0 61 16 164l27 155q41 230 144 332t307 102t290 -124l35 104h127
l-180 -1028q-43 -246 -167 -362t-339 -117q-262 0 -348 162l135 73q63 -102 213 -102q281 0 340 326l18 104q-100 -102 -280 -102z" />
    <glyph glyph-name="Gcommaaccent" unicode="&#x122;" horiz-adv-x="1357" 
d="M352 -455l162 314h166l-213 -314h-115zM170 375q0 84 25 227l53 299q29 170 67 262q39 92 111 164q145 152 399 152q203 0 321 -85t118 -235q0 -27 -4 -49l-160 -12v18q0 104 -73 162t-204 57q-176 1 -271 -107t-140 -358l-50 -282q-20 -117 -20 -191q0 -272 289 -272
q188 0 291 121q80 88 110 258l23 127h-303l22 137h473l-45 -252q-26 -145 -62 -229t-106 -154q-152 -151 -392 -151q-472 0 -472 393z" />
    <glyph glyph-name="gcommaaccent" unicode="&#x123;" horiz-adv-x="1157" 
d="M604 1192l275 291h122l-204 -291h-193zM285 328q0 -211 209 -211q248 0 303 313l30 168q8 61 9 102q0 213 -215 213q-125 -1 -199 -81t-103 -250l-24 -136q-10 -57 -10 -118zM457 -18q-338 0 -338 313q0 61 16 164l27 155q41 230 144 332t307 102t290 -124l35 104h127
l-180 -1028q-43 -246 -167 -362t-339 -117q-262 0 -348 162l135 73q63 -102 213 -102q281 0 340 326l18 104q-100 -102 -280 -102z" />
    <glyph glyph-name="Hcircumflex" unicode="&#x124;" horiz-adv-x="1394" 
d="M928 1790l-168 -164h-180l307 272h106l211 -272h-164zM123 0l258 1462h170l-115 -651h627l115 651h170l-258 -1462h-170l118 668h-626l-119 -668h-170z" />
    <glyph glyph-name="hcircumflex" unicode="&#x125;" horiz-adv-x="1157" 
d="M530 1790l-168 -164h-180l307 272h107l211 -272h-164zM1018 772q0 -70 -21 -197l-102 -575h-162l103 584q12 63 12 125q0 197 -189 196q-131 0 -205 -87t-108 -283l-94 -535h-162l258 1462h162l-90 -514q74 60 129 80t147 21q150 0 236 -74t86 -203z" />
    <glyph glyph-name="Hbar" unicode="&#x126;" horiz-adv-x="1394" 
d="M436 811h627l37 203h-627zM123 0l180 1014h-135l22 129h134l57 319h170l-57 -319h628l56 319h170l-56 -319h133l-22 -129h-133l-180 -1014h-170l118 668h-626l-119 -668h-170z" />
    <glyph glyph-name="hbar" unicode="&#x127;" horiz-adv-x="1157" 
d="M1018 772q0 -70 -21 -197l-102 -575h-162l103 584q12 63 12 125q0 197 -189 196q-131 0 -205 -87t-108 -283l-94 -535h-162l207 1169h-168l21 117h167l31 176h162l-31 -176h309l-20 -117h-309l-39 -221q74 60 129 80t147 21q150 0 236 -74t86 -203z" />
    <glyph glyph-name="Itilde" unicode="&#x128;" horiz-adv-x="595" 
d="M401 1880q78 0 145 -64q66 -64 100 -65q34 0 58 26t50 87h104q-53 -134 -98 -184t-124 -50q-78 0 -144 66t-103 65q-61 1 -110 -114h-105q55 137 102 185t125 48zM123 0l258 1462h170l-258 -1462h-170z" />
    <glyph glyph-name="itilde" unicode="&#x129;" horiz-adv-x="522" 
d="M292 1456q76 0 142 -66t101 -65q35 0 59 26t49 89h105q-50 -136 -96 -186t-127 -50t-145 66t-101 65q-62 1 -111 -114h-105q53 135 103 185t126 50zM90 0l180 1028h164l-182 -1028h-162z" />
    <glyph glyph-name="Imacron" unicode="&#x12a;" horiz-adv-x="595" 
d="M244 1694l20 118h529l-23 -118h-526zM123 0l258 1462h170l-258 -1462h-170z" />
    <glyph glyph-name="imacron" unicode="&#x12b;" horiz-adv-x="522" 
d="M131 1268l21 118h528l-23 -118h-526zM88 0l182 1028h162l-182 -1028h-162z" />
    <glyph glyph-name="Ibreve" unicode="&#x12c;" horiz-adv-x="595" 
d="M508 1606q-260 0 -260 202q0 31 8 82h111q-4 -29 -5 -43q0 -115 152 -114q88 -1 131 33t70 124h110q-27 -158 -97 -221t-220 -63zM123 0l258 1462h170l-258 -1462h-170z" />
    <glyph glyph-name="ibreve" unicode="&#x12d;" horiz-adv-x="522" 
d="M250 1421q0 -115 151 -114q88 -1 130 33t71 124h111q-29 -158 -99 -220t-217 -62q-262 0 -262 202q0 31 8 80h111q-4 -27 -4 -43zM88 0l182 1028h162l-182 -1028h-162z" />
    <glyph glyph-name="Iogonek" unicode="&#x12e;" horiz-adv-x="595" 
d="M72 -227q0 -72 84 -72q47 0 114 20v-94q-78 -29 -155 -28q-195 0 -195 151q0 156 230 250h-27l258 1462h170l-258 -1462q-221 -111 -221 -227z" />
    <glyph glyph-name="iogonek" unicode="&#x12f;" horiz-adv-x="522" 
d="M309 1251l39 217h162l-37 -217h-164zM31 -227q0 -72 84 -72q47 0 114 20v-94q-78 -29 -155 -28q-195 0 -195 151q-1 76 61 142t171 108h-21l182 1028h162l-182 -1028q-119 -66 -170 -118t-51 -109z" />
    <glyph glyph-name="Idotaccent" unicode="&#x130;" horiz-adv-x="595" 
d="M414 1632l37 213h159l-37 -213h-159zM123 0l258 1462h170l-258 -1462h-170z" />
    <glyph glyph-name="dotlessi" unicode="&#x131;" horiz-adv-x="522" 
d="M88 0l182 1028h162l-182 -1028h-162z" />
    <glyph glyph-name="IJ" unicode="&#x132;" horiz-adv-x="1191" 
d="M418 -498q-96 0 -203 33l80 133q59 -23 115 -22q170 0 252 153q37 68 75 289l242 1374h170l-246 -1396q-33 -178 -57 -257t-64 -137q-121 -170 -364 -170zM123 0l258 1462h170l-258 -1462h-170z" />
    <glyph glyph-name="ij" unicode="&#x133;" horiz-adv-x="1056" 
d="M803 1028h164l-187 -1059q-39 -260 -143 -352t-350 -88l24 137q137 -6 208 62t95 231zM844 1251l37 217h163l-38 -217h-162zM90 0l182 1028h162l-182 -1028h-162zM311 1251l37 217h164l-39 -217h-162z" />
    <glyph glyph-name="Jcircumflex" unicode="&#x134;" horiz-adv-x="952" 
d="M834 1790l-168 -164h-181l308 272h106l211 -272h-164zM281 -18q-117 0 -199 32t-168 109l115 117q99 -115 255 -115t234 154q33 68 72 288l158 895h170l-160 -913q-38 -207 -56 -269t-59 -126q-117 -172 -362 -172z" />
    <glyph glyph-name="jcircumflex" unicode="&#x135;" horiz-adv-x="534" 
d="M403 1366l-167 -166h-181l307 275h107l211 -275h-164zM283 1028h161l-186 -1059q-39 -260 -142 -352t-352 -88l25 137q139 -6 210 63t95 230z" />
    <glyph glyph-name="Kcommaaccent" unicode="&#x136;" horiz-adv-x="1265" 
d="M348 -455l162 314h166l-213 -314h-115zM125 0l258 1462h168l-141 -798l770 798h198l-579 -590l370 -872h-194l-305 754l-297 -303l-80 -451h-168z" />
    <glyph glyph-name="kcommaaccent" unicode="&#x137;" horiz-adv-x="1046" 
d="M238 -455l161 314h166l-213 -314h-114zM90 0l258 1462h162l-178 -1013l555 579h190l-426 -434l283 -594h-178l-228 487l-231 -239l-45 -248h-162z" />
    <glyph glyph-name="kgreenlandic" unicode="&#x138;" horiz-adv-x="1046" 
d="M90 0l182 1028h162l-102 -577l555 577h190l-426 -434l283 -594h-178l-228 487l-231 -239l-45 -248h-162z" />
    <glyph glyph-name="Lacute" unicode="&#x139;" horiz-adv-x="1091" 
d="M453 1616l204 291h197l-279 -291h-122zM123 0l258 1462h170l-234 -1319h691l-27 -143h-858z" />
    <glyph glyph-name="lacute" unicode="&#x13a;" horiz-adv-x="598" 
d="M379 1616l205 291h196l-278 -291h-123zM299 235q0 -48 34 -73t124 -25h45l-25 -137h-53q-162 0 -226 44t-65 155q0 68 19 166l194 1097h162l-199 -1124q-10 -55 -10 -103z" />
    <glyph glyph-name="Lcommaaccent" unicode="&#x13b;" horiz-adv-x="1091" 
d="M309 -455l162 314h166l-213 -314h-115zM123 0l258 1462h170l-234 -1319h691l-27 -143h-858z" />
    <glyph glyph-name="lcommaaccent" unicode="&#x13c;" horiz-adv-x="598" 
d="M-4 -455l162 314h166l-213 -314h-115zM299 250q0 -63 34 -88t124 -25h45l-25 -137h-51q-164 0 -228 44t-65 155q0 53 19 166l194 1097h162l-197 -1124q-12 -70 -12 -88z" />
    <glyph glyph-name="Lcaron" unicode="&#x13d;" horiz-adv-x="1091" 
d="M705 1008l137 471h159l-182 -471h-114zM123 0l258 1462h170l-234 -1319h691l-27 -143h-858z" />
    <glyph glyph-name="lcaron" unicode="&#x13e;" horiz-adv-x="671" 
d="M588 1008l137 471h160l-183 -471h-114zM299 235q0 -48 34 -73t124 -25h45l-25 -137h-53q-162 0 -226 44t-65 155q0 68 19 166l194 1097h162l-199 -1124q-10 -55 -10 -103z" />
    <glyph glyph-name="Ldot" unicode="&#x13f;" horiz-adv-x="1091" 
d="M774 643l37 203h150l-37 -203h-150zM123 0l258 1462h170l-234 -1319h691l-27 -143h-858z" />
    <glyph glyph-name="ldot" unicode="&#x140;" horiz-adv-x="663" 
d="M539 643l36 203h148l-35 -203h-149zM299 235q0 -48 34 -73t124 -25h45l-25 -137h-53q-162 0 -226 44t-65 155q0 68 19 166l194 1097h162l-199 -1124q-10 -55 -10 -103z" />
    <glyph glyph-name="Lslash" unicode="&#x141;" horiz-adv-x="1091" 
d="M123 0l78 446l-174 -104l26 156l176 104l152 860h170l-135 -760l467 281l-27 -158l-467 -278l-72 -404h691l-27 -143h-858z" />
    <glyph glyph-name="lslash" unicode="&#x142;" horiz-adv-x="620" 
d="M471 137h43l-25 -137h-51q-162 0 -226 45t-65 154q0 51 9 104l51 287l-217 -131l28 162l215 129l125 712h164l-108 -614l266 160l-29 -160l-266 -162l-61 -348q-10 -57 -10 -104t33 -72q34 -25 124 -25z" />
    <glyph glyph-name="Nacute" unicode="&#x143;" horiz-adv-x="1476" 
d="M846 1616l205 291h196l-278 -291h-123zM123 0l258 1462h164l514 -1171l207 1171h166l-258 -1462h-164l-514 1171l-207 -1171h-166z" />
    <glyph glyph-name="nacute" unicode="&#x144;" horiz-adv-x="1157" 
d="M610 1192l205 291h197l-279 -291h-123zM698 1049q154 0 237 -72t83 -205q0 -70 -21 -197l-102 -575h-162l101 575q14 72 14 136q0 197 -189 196q-133 0 -205 -88t-110 -297l-92 -522h-162l182 1028h125l-6 -106q109 127 307 127z" />
    <glyph glyph-name="Ncommaaccent" unicode="&#x145;" horiz-adv-x="1476" 
d="M426 -455l162 314h166l-213 -314h-115zM123 0l258 1462h164l514 -1171l207 1171h166l-258 -1462h-164l-514 1171l-207 -1171h-166z" />
    <glyph glyph-name="ncommaaccent" unicode="&#x146;" horiz-adv-x="1157" 
d="M262 -455l162 314h166l-213 -314h-115zM698 1049q154 0 237 -72t83 -205q0 -70 -21 -197l-102 -575h-162l101 575q14 72 14 136q0 197 -189 196q-133 0 -205 -88t-110 -297l-92 -522h-162l182 1028h125l-6 -106q109 127 307 127z" />
    <glyph glyph-name="Ncaron" unicode="&#x147;" horiz-adv-x="1476" 
d="M952 1731l168 165h180l-307 -274h-106l-211 274h164zM123 0l258 1462h164l514 -1171l207 1171h166l-258 -1462h-164l-514 1171l-207 -1171h-166z" />
    <glyph glyph-name="ncaron" unicode="&#x148;" horiz-adv-x="1157" 
d="M707 1307l167 163h181l-307 -272h-107l-211 272h164zM698 1049q154 0 237 -72t83 -205q0 -70 -21 -197l-102 -575h-162l101 575q14 72 14 136q0 197 -189 196q-133 0 -205 -88t-110 -297l-92 -522h-162l182 1028h125l-6 -106q109 127 307 127z" />
    <glyph glyph-name="napostrophe" unicode="&#x149;" horiz-adv-x="1247" 
d="M90 973l160 489h172l-193 -489h-139zM772 1049q154 0 237 -73t83 -206q0 -66 -21 -195l-102 -575h-162l100 575q14 72 15 136q0 197 -189 196q-133 0 -206 -88t-109 -297l-92 -522h-162l182 1028h125l-6 -106q109 127 307 127z" />
    <glyph glyph-name="Eng" unicode="&#x14a;" horiz-adv-x="1476" 
d="M123 0l258 1462h164l516 -1165l205 1165h166l-263 -1489q-41 -254 -146 -350t-345 -94l24 135q137 -6 208 62t96 225l12 63l-522 1157l-207 -1171h-166z" />
    <glyph glyph-name="eng" unicode="&#x14b;" horiz-adv-x="1157" 
d="M698 1049q154 0 237 -72t83 -205q0 -70 -21 -197l-108 -614q-39 -248 -145 -341t-349 -91l25 137q139 -6 210 63t95 230l109 616q14 72 14 136q0 197 -189 196q-133 0 -205 -88t-110 -297l-92 -522h-162l182 1028h125l-6 -106q109 127 307 127z" />
    <glyph glyph-name="Omacron" unicode="&#x14c;" horiz-adv-x="1384" 
d="M637 1694l20 118h529l-23 -118h-526zM1122 1065q0 131 -75 202q-76 71 -220 70q-186 0 -295 -135q-82 -102 -116 -307l-58 -328q-18 -96 -18 -172q0 -129 76 -199t215 -71q190 0 299 135q82 108 117 307l57 328q18 104 18 170zM636 -18q-240 0 -354 107t-114 284
q0 73 20 200l64 361q29 156 67 244q39 88 115 157q152 145 386 145t355 -102q120 -102 119 -291q0 -76 -22 -198l-64 -361q-28 -156 -66 -244t-114 -157q-152 -145 -392 -145z" />
    <glyph glyph-name="omacron" unicode="&#x14d;" horiz-adv-x="1140" 
d="M432 1268l21 118h528l-23 -118h-526zM856 705q0 209 -225 208q-131 1 -206 -79t-103 -250l-25 -140q-12 -72 -12 -116q0 -211 225 -211q132 1 206 79t103 248l25 140q12 61 12 121zM1020 729q0 -76 -14 -158l-29 -159q-41 -226 -154 -328t-319 -102q-383 0 -383 321
q0 70 14 154l29 159q41 225 153 329q113 103 320 104q383 0 383 -320z" />
    <glyph glyph-name="Obreve" unicode="&#x14e;" horiz-adv-x="1384" 
d="M758 1847q0 -115 151 -114q88 -1 131 33t70 124h111q-27 -158 -98 -221t-220 -63q-260 0 -260 202q0 31 8 82h111q-4 -29 -4 -43zM1122 1065q0 131 -75 202q-76 71 -220 70q-186 0 -295 -135q-82 -102 -116 -307l-58 -328q-18 -96 -18 -172q0 -129 76 -199t215 -71
q190 0 299 135q82 108 117 307l57 328q18 104 18 170zM636 -18q-240 0 -354 107t-114 284q0 73 20 200l64 361q29 156 67 244q39 88 115 157q152 145 386 145t355 -102q120 -102 119 -291q0 -76 -22 -198l-64 -361q-28 -156 -66 -244t-114 -157q-152 -145 -392 -145z" />
    <glyph glyph-name="obreve" unicode="&#x14f;" horiz-adv-x="1140" 
d="M561 1421q0 -115 152 -114q88 -1 130 33t70 124h111q-28 -158 -98 -220t-217 -62q-262 0 -263 202q1 31 9 80h110q-4 -27 -4 -43zM856 705q0 209 -225 208q-131 1 -206 -79t-103 -250l-25 -140q-12 -72 -12 -116q0 -211 225 -211q132 1 206 79t103 248l25 140
q12 61 12 121zM1020 729q0 -76 -14 -158l-29 -159q-41 -226 -154 -328t-319 -102q-383 0 -383 321q0 70 14 154l29 159q41 225 153 329q113 103 320 104q383 0 383 -320z" />
    <glyph glyph-name="Ohungarumlaut" unicode="&#x150;" horiz-adv-x="1384" 
d="M952 1616l174 291h172l-229 -291h-117zM676 1616l174 291h172l-229 -291h-117zM1122 1065q0 131 -75 202q-76 71 -220 70q-186 0 -295 -135q-82 -102 -116 -307l-58 -328q-18 -96 -18 -172q0 -129 76 -199t215 -71q190 0 299 135q82 108 117 307l57 328q18 104 18 170z
M636 -18q-240 0 -354 107t-114 284q0 73 20 200l64 361q29 156 67 244q39 88 115 157q152 145 386 145t355 -102q120 -102 119 -291q0 -76 -22 -198l-64 -361q-28 -156 -66 -244t-114 -157q-152 -145 -392 -145z" />
    <glyph glyph-name="ohungarumlaut" unicode="&#x151;" horiz-adv-x="1140" 
d="M756 1192l174 291h172l-230 -291h-116zM479 1192l174 291h172l-229 -291h-117zM856 705q0 209 -225 208q-131 1 -206 -79t-103 -250l-25 -140q-12 -72 -12 -116q0 -211 225 -211q132 1 206 79t103 248l25 140q12 61 12 121zM1020 729q0 -76 -14 -158l-29 -159
q-41 -226 -154 -328t-319 -102q-383 0 -383 321q0 70 14 154l29 159q41 225 153 329q113 103 320 104q383 0 383 -320z" />
    <glyph glyph-name="OE" unicode="&#x152;" horiz-adv-x="2009" 
d="M340 397q0 -131 76 -201t232 -71q318 0 401 438l55 309q18 117 18 181q0 285 -293 284q-188 0 -297 -135q-45 -56 -69 -122t-47 -185l-58 -332q-18 -92 -18 -166zM600 -18q-204 0 -318 102t-114 285q0 78 20 200l66 365q27 154 64 242q38 88 110 159q146 145 376 145
t339 -114q13 -16 31 -51l22 -43l35 190h829l-24 -143h-686l-88 -508h581l-24 -143h-584l-92 -525h686l-25 -143h-831l33 182l-9 -8l-39 -49q-111 -143 -358 -143z" />
    <glyph glyph-name="oe" unicode="&#x153;" horiz-adv-x="1800" 
d="M1540 709q0 215 -213 215q-125 0 -205 -78t-106 -228l-4 -14h518q10 51 10 105zM856 705q0 209 -225 208q-131 1 -206 -79t-103 -250l-25 -140q-12 -72 -12 -116q0 -213 225 -213q132 1 206 79t103 250l25 140q12 61 12 121zM1323 1049q369 0 369 -340q0 -111 -27 -228
h-674l-8 -45q-8 -49 -8 -94q0 -227 246 -227q152 0 245 100l107 -88q-127 -145 -359 -145q-145 0 -228 47t-118 151q-59 -106 -146 -153t-224 -47q-377 0 -377 323q0 74 14 154l29 157q39 227 150 331q112 103 317 104q139 -1 219 -47t115 -146q75 106 155 150t203 43z" />
    <glyph glyph-name="Racute" unicode="&#x154;" horiz-adv-x="1323" 
d="M723 1616l205 291h196l-278 -291h-123zM766 772q164 0 250 95t86 251q0 106 -62 154t-196 49h-318l-98 -549h338zM862 1462q221 0 316 -84q98 -82 98 -231q0 -213 -106 -351t-277 -147l207 -649h-189l-188 635h-315l-113 -635h-170l258 1462h479z" />
    <glyph glyph-name="racute" unicode="&#x155;" horiz-adv-x="768" 
d="M471 1192l205 291h196l-278 -291h-123zM399 1028v-106q100 127 263 127q98 0 192 -54l-92 -139q-68 51 -135 51q-113 0 -181 -96t-104 -309l-90 -502h-162l182 1028h127z" />
    <glyph glyph-name="Rcommaaccent" unicode="&#x156;" horiz-adv-x="1323" 
d="M340 -455l162 314h166l-213 -314h-115zM766 772q164 0 250 95t86 251q0 106 -62 154t-196 49h-318l-98 -549h338zM862 1462q221 0 316 -84q98 -82 98 -231q0 -213 -106 -351t-277 -147l207 -649h-189l-188 635h-315l-113 -635h-170l258 1462h479z" />
    <glyph glyph-name="rcommaaccent" unicode="&#x157;" horiz-adv-x="768" 
d="M-82 -455l162 314h166l-213 -314h-115zM399 1028v-106q100 127 263 127q100 0 192 -54l-92 -139q-68 51 -135 51q-113 0 -181 -96t-104 -309l-88 -502h-164l182 1028h127z" />
    <glyph glyph-name="Rcaron" unicode="&#x158;" horiz-adv-x="1323" 
d="M813 1731l168 165h180l-307 -274h-106l-211 274h163zM766 772q164 0 250 95t86 251q0 106 -62 154t-196 49h-318l-98 -549h338zM862 1462q221 0 316 -84q98 -82 98 -231q0 -213 -106 -351t-277 -147l207 -649h-189l-188 635h-315l-113 -635h-170l258 1462h479z" />
    <glyph glyph-name="rcaron" unicode="&#x159;" horiz-adv-x="768" 
d="M561 1307l168 163h180l-307 -272h-106l-211 272h164zM399 1028v-106q100 127 263 127q98 0 192 -54l-92 -139q-68 51 -135 51q-113 0 -181 -96t-104 -309l-90 -502h-162l182 1028h127z" />
    <glyph glyph-name="Sacute" unicode="&#x15a;" horiz-adv-x="1185" 
d="M686 1616l205 291h196l-278 -291h-123zM526 125q215 0 314 123q66 86 66 182t-62 148q-37 30 -69 40q-31 10 -201 54q-342 90 -343 346q0 188 126 325t378 138q324 0 420 -185l-145 -84q-70 125 -287 125q-178 0 -262 -116q-59 -79 -59 -173t64 -146q65 -52 211 -91
q147 -39 199 -59t97 -58q102 -80 102 -229q1 -223 -149 -353t-394 -130q-391 0 -495 215l147 86q70 -158 342 -158z" />
    <glyph glyph-name="sacute" unicode="&#x15b;" horiz-adv-x="968" 
d="M504 1192l205 291h196l-278 -291h-123zM397 115q133 0 207 54t74 153q0 66 -51 94q-37 24 -189 46t-220 78t-66 169q0 151 97 245t278 94t288 -73q45 -31 80 -90l-129 -74q-80 106 -234 107q-100 0 -160 -52t-60 -128q0 -74 39 -101q41 -27 195 -49t223 -75
q69 -54 69 -177q0 -354 -445 -354q-309 -1 -399 159l131 76q88 -102 272 -102z" />
    <glyph glyph-name="Scircumflex" unicode="&#x15c;" horiz-adv-x="1185" 
d="M823 1790l-168 -164h-180l307 272h107l211 -272h-164zM526 125q215 0 314 123q66 86 66 182t-62 148q-37 30 -69 40q-31 10 -201 54q-342 90 -343 346q0 188 126 325t378 138q324 0 420 -185l-145 -84q-70 125 -287 125q-178 0 -262 -116q-59 -79 -59 -173t64 -146
q65 -52 211 -91q147 -39 199 -59t97 -58q102 -80 102 -229q1 -223 -149 -353t-394 -130q-391 0 -495 215l147 86q70 -158 342 -158z" />
    <glyph glyph-name="scircumflex" unicode="&#x15d;" horiz-adv-x="968" 
d="M633 1366l-168 -166h-180l307 275h106l211 -275h-164zM397 115q133 0 207 54t74 153q0 66 -51 94q-37 24 -189 46t-220 78t-66 169q0 151 97 245t278 94t288 -73q45 -31 80 -90l-129 -74q-80 106 -234 107q-100 0 -160 -52t-60 -128q0 -74 39 -101q41 -27 195 -49
t223 -75q69 -54 69 -177q0 -354 -445 -354q-309 -1 -399 159l131 76q88 -102 272 -102z" />
    <glyph glyph-name="Scedilla" unicode="&#x15e;" horiz-adv-x="1185" 
d="M258 -455l162 314h166l-213 -314h-115zM526 125q215 0 314 123q66 86 66 182t-62 148q-37 30 -69 40q-31 10 -201 54q-342 90 -343 346q0 188 126 325t378 138q324 0 420 -185l-145 -84q-70 125 -287 125q-178 0 -262 -116q-59 -79 -59 -173t64 -146q65 -52 211 -91
q147 -39 199 -59t97 -58q102 -80 102 -229q1 -223 -149 -353t-394 -130q-391 0 -495 215l147 86q70 -158 342 -158z" />
    <glyph glyph-name="scedilla" unicode="&#x15f;" horiz-adv-x="968" 
d="M164 -455l162 314h166l-213 -314h-115zM397 115q133 0 207 54t74 153q0 66 -51 94q-37 24 -189 46t-220 78t-66 169q0 151 97 245t278 94t288 -73q45 -31 80 -90l-129 -74q-80 106 -234 107q-100 0 -160 -52t-60 -128q0 -74 39 -101q41 -27 195 -49t223 -75
q69 -54 69 -177q0 -354 -445 -354q-309 -1 -399 159l131 76q88 -102 272 -102z" />
    <glyph glyph-name="Scaron" unicode="&#x160;" horiz-adv-x="1185" 
d="M778 1731l168 165h180l-307 -274h-106l-211 274h164zM526 125q215 0 314 123q66 86 66 182t-62 148q-37 30 -69 40q-31 10 -201 54q-342 90 -343 346q0 188 126 325t378 138q324 0 420 -185l-145 -84q-70 125 -287 125q-178 0 -262 -116q-59 -79 -59 -173t64 -146
q65 -52 211 -91q147 -39 199 -59t97 -58q102 -80 102 -229q1 -223 -149 -353t-394 -130q-391 0 -495 215l147 86q70 -158 342 -158z" />
    <glyph glyph-name="scaron" unicode="&#x161;" horiz-adv-x="968" 
d="M606 1307l168 163h180l-307 -272h-106l-211 272h164zM397 115q133 0 207 54t74 153q0 66 -51 94q-37 24 -189 46t-220 78t-66 169q0 151 97 245t278 94t288 -73q45 -31 80 -90l-129 -74q-80 106 -234 107q-100 0 -160 -52t-60 -128q0 -74 39 -101q41 -27 195 -49t223 -75
q69 -54 69 -177q0 -354 -445 -354q-309 -1 -399 159l131 76q88 -102 272 -102z" />
    <glyph glyph-name="Tcommaaccent" unicode="&#x162;" horiz-adv-x="1134" 
d="M217 -455l162 314h166l-213 -314h-115zM395 0l234 1319h-422l24 143h1012l-26 -143h-418l-234 -1319h-170z" />
    <glyph glyph-name="tcommaaccent" unicode="&#x163;" horiz-adv-x="684" 
d="M39 -455l162 314h166l-213 -314h-115zM336 235q0 -50 32 -74t115 -24h35l-22 -137h-31q-163 0 -229 43t-66 152q0 72 16 170l95 528h-125l24 135h127l66 330h151l-57 -330h203l-25 -135h-201l-98 -553q-10 -55 -10 -105z" />
    <glyph glyph-name="Tcaron" unicode="&#x164;" horiz-adv-x="1134" 
d="M776 1731l168 165h180l-307 -274h-106l-211 274h164zM395 0l234 1319h-422l24 143h1012l-26 -143h-418l-234 -1319h-170z" />
    <glyph glyph-name="tcaron" unicode="&#x165;" horiz-adv-x="741" 
d="M680 1196l123 426h162l-170 -426h-115zM334 235q0 -50 33 -74t116 -24h35l-24 -137h-29q-166 0 -232 43t-65 152q0 66 18 170l95 528h-125l22 135h129l66 330h151l-57 -330h201l-23 -135h-203l-98 -553q-10 -55 -10 -105z" />
    <glyph glyph-name="Tbar" unicode="&#x166;" horiz-adv-x="1134" 
d="M395 0l119 670h-287l25 141h287l90 508h-422l24 143h1012l-26 -143h-418l-90 -508h282l-24 -141h-283l-119 -670h-170z" />
    <glyph glyph-name="tbar" unicode="&#x167;" horiz-adv-x="688" 
d="M340 232q0 -96 149 -95h35l-24 -137h-29q-165 0 -231 43t-66 154q0 66 10 122l49 277h-124l20 117h125l33 180h-125l24 135h123l66 330h155l-57 -330h201l-23 -135h-202l-31 -180h200l-20 -117h-201l-51 -281q-6 -37 -6 -83z" />
    <glyph glyph-name="Utilde" unicode="&#x168;" horiz-adv-x="1413" 
d="M811 1880q79 0 145 -64t100 -65q34 0 58 26t49 87h105q-52 -134 -98 -184t-124 -50t-144 66t-103 65q-62 1 -111 -114h-104q55 137 102 185t125 48zM365 352q0 -76 49 -143q70 -84 231 -84q205 0 309 149q53 76 88 263l164 925h170l-170 -954q-26 -154 -56 -228t-91 -139
q-152 -160 -418 -159q-137 0 -223 30t-146 99q-80 92 -79 229q0 74 26 227l158 895h170l-164 -925q-18 -109 -18 -185z" />
    <glyph glyph-name="utilde" unicode="&#x169;" horiz-adv-x="1136" 
d="M599 1456q77 0 143 -66t100 -65q34 0 58 26t50 89h105q-51 -136 -97 -186t-126 -50t-144 66t-102 65q-62 1 -111 -114h-104q53 135 102 185t126 50zM750 0v113q-102 -131 -299 -131q-147 0 -229 71q-81 72 -81 203q0 90 23 215l98 557h164l-100 -563q-16 -98 -17 -148
q0 -193 180 -192q127 0 197 88t105 293l92 522h164l-183 -1028h-114z" />
    <glyph glyph-name="Umacron" unicode="&#x16a;" horiz-adv-x="1413" 
d="M647 1694l21 118h528l-22 -118h-527zM365 352q0 -76 49 -143q70 -84 231 -84q205 0 309 149q53 76 88 263l164 925h170l-170 -954q-26 -154 -56 -228t-91 -139q-152 -160 -418 -159q-137 0 -223 30t-146 99q-80 92 -79 229q0 74 26 227l158 895h170l-164 -925
q-18 -109 -18 -185z" />
    <glyph glyph-name="umacron" unicode="&#x16b;" horiz-adv-x="1136" 
d="M430 1268l21 118h528l-23 -118h-526zM750 0v113q-102 -131 -299 -131q-147 0 -229 71q-81 72 -81 203q0 90 23 215l98 557h164l-100 -563q-16 -98 -17 -148q0 -193 180 -192q127 0 197 88t105 293l92 522h164l-183 -1028h-114z" />
    <glyph glyph-name="Ubreve" unicode="&#x16c;" horiz-adv-x="1413" 
d="M772 1847q0 -115 152 -114q88 -1 131 33t69 124h111q-27 -158 -97 -221t-220 -63q-260 0 -261 202q1 31 9 82h110q-4 -29 -4 -43zM365 352q0 -76 49 -143q70 -84 231 -84q205 0 309 149q53 76 88 263l164 925h170l-170 -954q-26 -154 -56 -228t-91 -139
q-152 -160 -418 -159q-137 0 -223 30t-146 99q-80 92 -79 229q0 74 26 227l158 895h170l-164 -925q-18 -109 -18 -185z" />
    <glyph glyph-name="ubreve" unicode="&#x16d;" horiz-adv-x="1136" 
d="M537 1421q0 -115 151 -114q88 -1 130 33t71 124h110q-29 -158 -99 -220t-216 -62q-262 0 -262 202q0 31 8 80h111q-4 -27 -4 -43zM750 0v113q-102 -131 -299 -131q-147 0 -229 71q-81 72 -81 203q0 90 23 215l98 557h164l-100 -563q-16 -98 -17 -148q0 -193 180 -192
q127 0 197 88t105 293l92 522h164l-183 -1028h-114z" />
    <glyph glyph-name="Uring" unicode="&#x16e;" horiz-adv-x="1413" 
d="M956 1929q-59 0 -97 -44t-38 -99q0 -102 94 -100q59 0 98 43q38 43 38 112q-1 88 -95 88zM952 2015q100 0 156 -47q55 -47 55 -138q1 -91 -71 -161t-174 -70q-102 1 -155 49q-54 48 -54 140t71 160q72 67 172 67zM365 352q0 -76 49 -143q70 -84 231 -84q205 0 309 149
q53 76 88 263l164 925h170l-170 -954q-26 -154 -56 -228t-91 -139q-152 -160 -418 -159q-137 0 -223 30t-146 99q-80 92 -79 229q0 74 26 227l158 895h170l-164 -925q-18 -109 -18 -185z" />
    <glyph glyph-name="uring" unicode="&#x16f;" horiz-adv-x="1136" 
d="M838 1417q0 88 -102 88q-52 0 -90 -44t-38 -113q0 -88 94 -88q59 0 98 44q38 44 38 113zM740 1591q100 0 155 -47t55 -139t-72 -162q-72 -69 -172 -69q-102 0 -156 48t-54 141t71 161q73 67 173 67zM750 0v113q-102 -131 -299 -131q-147 0 -229 71q-81 72 -81 203
q0 90 23 215l98 557h164l-100 -563q-16 -98 -17 -148q0 -193 180 -192q127 0 197 88t105 293l92 522h164l-183 -1028h-114z" />
    <glyph glyph-name="Uhungarumlaut" unicode="&#x170;" horiz-adv-x="1413" 
d="M967 1616l174 291h172l-230 -291h-116zM690 1616l174 291h172l-229 -291h-117zM365 352q0 -76 49 -143q70 -84 231 -84q205 0 309 149q53 76 88 263l164 925h170l-170 -954q-26 -154 -56 -228t-91 -139q-152 -160 -418 -159q-137 0 -223 30t-146 99q-80 92 -79 229
q0 74 26 227l158 895h170l-164 -925q-18 -109 -18 -185z" />
    <glyph glyph-name="uhungarumlaut" unicode="&#x171;" horiz-adv-x="1136" 
d="M754 1192l174 291h172l-230 -291h-116zM477 1192l174 291h172l-229 -291h-117zM750 0v113q-102 -131 -299 -131q-147 0 -229 71q-81 72 -81 203q0 90 23 215l98 557h164l-100 -563q-16 -98 -17 -148q0 -193 180 -192q127 0 197 88t105 293l92 522h164l-183 -1028h-114z
" />
    <glyph glyph-name="Uogonek" unicode="&#x172;" horiz-adv-x="1413" 
d="M600 -236q0 -64 90 -63q53 0 127 20v-94q-84 -29 -164 -28q-205 0 -204 147q0 137 180 236q-215 8 -312 84q-125 104 -124 274q0 74 26 227l158 895h170l-162 -925q-20 -115 -20 -189t49 -139q70 -84 231 -84q205 0 309 149q57 80 88 263l164 925h170l-168 -954
q-29 -217 -123 -338t-266 -168q-125 -72 -172 -123t-47 -115z" />
    <glyph glyph-name="uogonek" unicode="&#x173;" horiz-adv-x="1136" 
d="M625 -233q0 -66 90 -66q53 0 127 20v-94q-84 -29 -164 -28q-205 0 -205 145q0 168 277 266v103q-102 -131 -299 -131q-147 0 -229 71q-81 72 -81 203q0 90 23 215l98 557h164l-100 -563q-16 -98 -17 -148q0 -193 180 -192q127 0 197 88t105 293l94 522h162l-183 -1028
q-239 -119 -239 -233z" />
    <glyph glyph-name="Wcircumflex" unicode="&#x174;" horiz-adv-x="1794" 
d="M1102 1790l-168 -164h-180l307 272h106l211 -272h-164zM336 0l-111 1462h166l68 -1200l540 1200h121l117 -1200l492 1200h176l-627 -1462h-145l-121 1165l-531 -1165h-145z" />
    <glyph glyph-name="wcircumflex" unicode="&#x175;" horiz-adv-x="1579" 
d="M934 1366l-168 -166h-180l307 275h106l211 -275h-163zM303 0l-135 1028h162l82 -815l407 815h113l121 -815l368 815h172l-499 -1028h-131l-127 774l-400 -774h-133z" />
    <glyph glyph-name="Ycircumflex" unicode="&#x176;" horiz-adv-x="1089" 
d="M768 1790l-168 -164h-180l307 272h107l210 -272h-163zM371 0l94 528l-297 934h174l231 -760l500 760h187l-625 -934l-94 -528h-170z" />
    <glyph glyph-name="ycircumflex" unicode="&#x177;" horiz-adv-x="999" 
d="M639 1366l-168 -166h-180l307 275h107l210 -275h-163zM334 2l-199 1026h160l151 -844l418 844h170l-616 -1194q-104 -197 -188 -250t-281 -55l24 137q117 0 167 33t114 151z" />
    <glyph glyph-name="Ydieresis" unicode="&#x178;" horiz-adv-x="1089" 
d="M866 1632l37 213h150l-39 -213h-148zM467 1632l37 213h149l-39 -213h-147zM371 0l94 528l-297 934h174l231 -760l500 760h187l-625 -934l-94 -528h-170z" />
    <glyph glyph-name="Zacute" unicode="&#x179;" horiz-adv-x="1112" 
d="M664 1616l204 291h197l-279 -291h-122zM14 0l21 121l887 1198h-637l24 143h830l-21 -121l-887 -1198h707l-25 -143h-899z" />
    <glyph glyph-name="zacute" unicode="&#x17a;" horiz-adv-x="972" 
d="M512 1192l205 291h196l-278 -291h-123zM0 0l18 104l662 789h-481l22 135h686l-18 -104l-662 -789h555l-24 -135h-758z" />
    <glyph glyph-name="Zdotaccent" unicode="&#x17b;" horiz-adv-x="1112" 
d="M668 1632l37 213h159l-37 -213h-159zM14 0l21 121l887 1198h-637l24 143h830l-21 -121l-887 -1198h707l-25 -143h-899z" />
    <glyph glyph-name="zdotaccent" unicode="&#x17c;" horiz-adv-x="972" 
d="M518 1208l37 213h160l-37 -213h-160zM0 0l18 104l662 789h-481l22 135h686l-18 -104l-662 -789h555l-24 -135h-758z" />
    <glyph glyph-name="Zcaron" unicode="&#x17d;" horiz-adv-x="1112" 
d="M778 1731l168 165h180l-307 -274h-106l-211 274h164zM14 0l21 121l887 1198h-637l24 143h830l-21 -121l-887 -1198h707l-25 -143h-899z" />
    <glyph glyph-name="zcaron" unicode="&#x17e;" horiz-adv-x="972" 
d="M604 1307l168 163h180l-307 -272h-106l-211 272h164zM0 0l18 104l662 789h-481l22 135h686l-18 -104l-662 -789h555l-24 -135h-758z" />
    <glyph glyph-name="Ohorn" unicode="&#x1a0;" horiz-adv-x="1435" 
d="M1122 1065q0 133 -75 204q-76 71 -220 70q-188 0 -295 -137q-44 -57 -70 -124t-46 -183l-58 -328q-18 -88 -18 -172q0 -129 76 -199t215 -71q190 0 299 135q78 102 117 307l57 328q18 109 18 170zM1290 1032q0 -47 -18 -143l-64 -361q-26 -154 -66 -242t-114 -159
q-152 -145 -392 -145t-354 107t-114 284q0 72 20 200l64 361q29 156 67 245q39 89 113 158q154 145 406 146q383 0 446 -297q98 59 125 88q61 61 61 145q0 27 -10 64h146l4 -49q0 -145 -129 -240q-66 -47 -191 -111v-51z" />
    <glyph glyph-name="ohorn" unicode="&#x1a1;" horiz-adv-x="1193" 
d="M856 705q0 209 -225 208q-131 -1 -205 -79t-104 -250l-25 -140q-12 -68 -12 -116q0 -211 223 -211q134 1 208 79t103 248l25 140q12 59 12 121zM1313 997q0 -102 -71 -184t-226 -156q-8 -78 -10 -86l-29 -159q-41 -226 -154 -328t-319 -102q-383 0 -383 321q0 74 16 154
l27 159q41 225 154 329q114 103 319 104q352 0 383 -281q68 41 94 72q59 66 60 147q-1 25 -11 62h146q4 -49 4 -52z" />
    <glyph glyph-name="Uhorn" unicode="&#x1af;" horiz-adv-x="1492" 
d="M643 125q203 0 311 149q57 80 88 263l164 925h170l-55 -305q129 59 183 119t55 145q0 29 -11 62h146q4 -25 4 -49q0 -141 -125 -240q-84 -68 -270 -150l-97 -536q-26 -152 -56 -228t-91 -139q-152 -159 -415 -159t-372 129q-80 92 -79 229q0 74 26 227l158 895h170
l-164 -925q-21 -119 -21 -191t50 -137q70 -84 231 -84z" />
    <glyph glyph-name="uhorn" unicode="&#x1b0;" horiz-adv-x="1226" 
d="M1231 987q0 25 -10 62h145q4 -25 4 -48q0 -176 -196 -292q-59 -35 -201 -101l-109 -608h-114v113q-98 -131 -299 -131q-147 0 -229 71q-81 72 -81 201q0 74 23 217l98 557h164l-100 -563q-16 -98 -17 -148q0 -193 180 -192q127 0 197 88t105 293l92 522h164l-56 -305
q104 49 152 86q88 68 88 178z" />
    <glyph glyph-name="uni01C4" unicode="&#x1c4;" horiz-adv-x="2418" 
d="M2083 1731l170 165h180l-307 -274h-107l-211 274h162zM1321 0l20 121l887 1198h-637l25 143h829l-20 -121l-887 -1198h707l-25 -143h-899zM1124 1057q0 135 -100 213q-70 51 -229 51h-269l-209 -1180h269q200 -3 312 101t153 331l55 316q18 111 18 168zM823 1462
q227 0 332 -82q141 -111 141 -301q0 -70 -20 -196l-62 -348q-39 -266 -192 -403q-154 -136 -412 -132h-487l258 1462h442z" />
    <glyph glyph-name="uni01C5" unicode="&#x1c5;" horiz-adv-x="2301" 
d="M1935 1307l170 163h179l-308 -272h-104l-213 272h164zM1331 0l19 104l661 789h-481l24 135h684l-18 -104l-661 -789h555l-23 -135h-760zM1124 1057q0 135 -100 213q-70 51 -229 51h-269l-209 -1180h269q200 -3 312 101t153 331l55 316q18 111 18 168zM823 1462
q227 0 332 -82q141 -111 141 -301q0 -70 -20 -196l-62 -348q-39 -266 -192 -403q-154 -136 -412 -132h-487l258 1462h442z" />
    <glyph glyph-name="uni01C6" unicode="&#x1c6;" horiz-adv-x="2129" 
d="M1761 1307l170 163h178l-307 -272h-104l-213 272h164zM1157 0l19 104l661 789h-481l24 135h684l-18 -104l-662 -789h555l-24 -135h-758zM287 328q0 -211 209 -211q250 0 305 313l28 168q10 66 11 104q0 211 -217 211q-125 0 -198 -80q-72 -81 -103 -251l-25 -136
q-10 -57 -10 -118zM121 291q0 74 16 168l29 155q39 230 142 332t271 102t255 -57q8 -6 55 -53l92 524h164l-258 -1462h-129l6 100q-70 -70 -134 -94q-64 -25 -163 -24q-346 0 -346 309z" />
    <glyph glyph-name="uni01C7" unicode="&#x1c7;" horiz-adv-x="1687" 
d="M913 -498q-98 0 -202 33l80 133q57 -23 114 -22q170 0 252 153q37 70 74 289l244 1374h170l-248 -1396q-31 -178 -55 -257q-93 -307 -429 -307zM123 0l258 1462h170l-234 -1319h691l-27 -143h-858z" />
    <glyph glyph-name="uni01C8" unicode="&#x1c8;" horiz-adv-x="1626" 
d="M1372 1028h164l-188 -1059q-38 -260 -142 -352t-350 -88l23 137q139 -6 210 62t95 231zM1413 1251l37 217h164l-39 -217h-162zM123 0l258 1462h170l-234 -1319h691l-27 -143h-858z" />
    <glyph glyph-name="uni01C9" unicode="&#x1c9;" horiz-adv-x="1132" 
d="M879 1028h161l-186 -1059q-39 -260 -142 -352t-352 -88l25 137q139 -6 210 63t95 230zM918 1251l38 217h162l-39 -217h-161zM299 235q0 -48 34 -73t124 -25h45l-25 -137h-53q-162 0 -226 44t-65 155q0 68 19 166l194 1097h162l-199 -1124q-10 -55 -10 -103z" />
    <glyph glyph-name="uni01CA" unicode="&#x1ca;" horiz-adv-x="2074" 
d="M1298 -498q-96 0 -202 33l80 133q59 -23 114 -22q170 0 252 153q37 68 76 289l242 1374h170l-246 -1396q-30 -178 -54 -257t-65 -137q-123 -170 -367 -170zM123 0l258 1462h164l514 -1171l207 1171h166l-258 -1462h-164l-514 1171l-207 -1171h-166z" />
    <glyph glyph-name="uni01CB" unicode="&#x1cb;" horiz-adv-x="2013" 
d="M1759 1028h162l-186 -1059q-39 -260 -143 -352t-351 -88l25 137q139 -6 210 63t95 230zM1798 1251l39 217h162l-39 -217h-162zM123 0l258 1462h164l514 -1171l207 1171h166l-258 -1462h-164l-514 1171l-207 -1171h-166z" />
    <glyph glyph-name="uni01CC" unicode="&#x1cc;" horiz-adv-x="1693" 
d="M1440 1028h162l-187 -1059q-39 -260 -142 -352t-351 -88l24 137q139 -6 210 63t95 230zM1479 1251l39 217h161l-37 -217h-163zM698 1049q154 0 237 -72t83 -205q0 -70 -21 -197l-102 -575h-162l101 575q14 72 14 136q0 197 -189 196q-133 0 -205 -88t-110 -297l-92 -522
h-162l182 1028h125l-6 -106q109 127 307 127z" />
    <glyph glyph-name="uni01CD" unicode="&#x1cd;" horiz-adv-x="1228" 
d="M811 1731l168 165h180l-307 -274h-107l-210 274h163zM889 463l-137 784l-418 -784h555zM907 319h-639l-168 -319h-190l792 1462h162l277 -1462h-178z" />
    <glyph glyph-name="uni01CE" unicode="&#x1ce;" horiz-adv-x="1075" 
d="M668 1307l168 163h180l-307 -272h-107l-211 272h164zM502 481q-164 0 -228 -63t-63 -185q0 -67 49 -95t166 -27q164 0 227 69q35 39 52 139l30 162h-233zM778 762q0 152 -192 151q-156 0 -264 -104l-99 84q147 156 377 156q166 0 254 -67t88 -191q0 -53 -20 -162
l-111 -629h-129l-8 49q-92 -67 -276 -67t-266 54q-81 54 -81 175q0 188 92 291q94 102 342 102h271l12 72q10 51 10 86z" />
    <glyph glyph-name="uni01CF" unicode="&#x1cf;" horiz-adv-x="595" 
d="M506 1731l170 165h178l-307 -274h-105l-213 274h164zM123 0l258 1462h170l-258 -1462h-170z" />
    <glyph glyph-name="uni01D0" unicode="&#x1d0;" horiz-adv-x="522" 
d="M393 1307l170 163h178l-307 -272h-106l-211 272h164zM88 0l182 1028h162l-182 -1028h-162z" />
    <glyph glyph-name="uni01D1" unicode="&#x1d1;" horiz-adv-x="1384" 
d="M899 1731l170 165h180l-307 -274h-106l-211 274h161zM1122 1065q0 131 -75 202q-76 71 -220 70q-186 0 -295 -135q-82 -102 -116 -307l-58 -328q-18 -96 -18 -172q0 -129 76 -199t215 -71q190 0 299 135q82 108 117 307l57 328q18 104 18 170zM636 -18q-240 0 -354 107
t-114 284q0 73 20 200l64 361q29 156 67 244q39 88 115 157q152 145 386 145t355 -102q120 -102 119 -291q0 -76 -22 -198l-64 -361q-28 -156 -66 -244t-114 -157q-152 -145 -392 -145z" />
    <glyph glyph-name="uni01D2" unicode="&#x1d2;" horiz-adv-x="1140" 
d="M705 1307l167 163h181l-308 -272h-106l-211 272h164zM856 705q0 209 -225 208q-131 1 -206 -79t-103 -250l-25 -140q-12 -72 -12 -116q0 -211 225 -211q132 1 206 79t103 248l25 140q12 61 12 121zM1020 729q0 -76 -14 -158l-29 -159q-41 -226 -154 -328t-319 -102
q-383 0 -383 321q0 70 14 154l29 159q41 225 153 329q113 103 320 104q383 0 383 -320z" />
    <glyph glyph-name="uni01D3" unicode="&#x1d3;" horiz-adv-x="1413" 
d="M901 1731l168 165h180l-307 -274h-106l-211 274h163zM365 352q0 -76 49 -143q70 -84 231 -84q205 0 309 149q53 76 88 263l164 925h170l-170 -954q-26 -154 -56 -228t-91 -139q-152 -160 -418 -159q-137 0 -223 30t-146 99q-80 92 -79 229q0 74 26 227l158 895h170
l-164 -925q-18 -109 -18 -185z" />
    <glyph glyph-name="uni01D4" unicode="&#x1d4;" horiz-adv-x="1136" 
d="M702 1307l168 163h181l-308 -272h-106l-211 272h164zM750 0v113q-102 -131 -299 -131q-147 0 -229 71q-81 72 -81 203q0 90 23 215l98 557h164l-100 -563q-16 -98 -17 -148q0 -193 180 -192q127 0 197 88t105 293l92 522h164l-183 -1028h-114z" />
    <glyph glyph-name="Gcaron" unicode="&#x1e6;" horiz-adv-x="1357" 
d="M887 1731l168 165h180l-307 -274h-107l-211 274h164zM170 375q0 84 25 227l53 299q29 170 67 262q39 92 111 164q145 152 399 152q203 0 321 -85t118 -235q0 -27 -4 -49l-160 -12v18q0 104 -73 162t-204 57q-176 1 -271 -107t-140 -358l-50 -282q-20 -117 -20 -191
q0 -272 289 -272q188 0 291 121q80 88 110 258l23 127h-303l22 137h473l-45 -252q-26 -145 -62 -229t-106 -154q-152 -151 -392 -151q-472 0 -472 393z" />
    <glyph glyph-name="gcaron" unicode="&#x1e7;" horiz-adv-x="1157" 
d="M719 1307l168 163h180l-307 -272h-107l-211 272h164zM285 328q0 -211 209 -211q248 0 303 313l30 168q8 61 9 102q0 213 -215 213q-125 -1 -199 -81t-103 -250l-24 -136q-10 -57 -10 -118zM457 -18q-338 0 -338 313q0 61 16 164l27 155q41 230 144 332t307 102t290 -124
l35 104h127l-180 -1028q-43 -246 -167 -362t-339 -117q-262 0 -348 162l135 73q63 -102 213 -102q281 0 340 326l18 104q-100 -102 -280 -102z" />
    <glyph glyph-name="uni01EA" unicode="&#x1ea;" horiz-adv-x="1384" 
d="M1122 1065q0 131 -75 202q-76 71 -220 70q-186 0 -295 -135q-82 -102 -116 -307l-58 -328q-18 -88 -18 -172q0 -131 76 -201t215 -71q193 0 299 137q46 58 70 124t47 183l57 328q18 109 18 170zM598 -236q0 -63 90 -63q53 0 127 20v-94q-84 -29 -164 -28q-205 0 -205 145
q0 129 175 238q-186 0 -295 71q-158 109 -158 320q0 78 20 200l64 361q27 156 66 244q40 88 114 157q154 145 388 145t355 -102q120 -102 119 -291q1 -67 -22 -198l-64 -361q-61 -426 -395 -526q-215 -125 -215 -238z" />
    <glyph glyph-name="uni01EB" unicode="&#x1eb;" horiz-adv-x="1140" 
d="M858 705q0 209 -225 208q-131 1 -206 -79t-105 -250l-25 -140q-12 -63 -12 -116q0 -211 225 -211q132 1 206 79t105 248l25 140q12 80 12 121zM477 -236q0 -63 90 -63q53 0 127 20v-94q-84 -29 -164 -28q-205 0 -204 143q0 131 159 240q-365 8 -364 321q0 70 16 154
l27 159q39 225 153 329q115 103 322 104q383 0 383 -320q0 -66 -16 -158l-29 -159q-53 -338 -305 -410q-195 -119 -195 -238z" />
    <glyph glyph-name="uni01F1" unicode="&#x1f1;" horiz-adv-x="2418" 
d="M1321 0l20 121l887 1198h-637l25 143h829l-20 -121l-887 -1198h707l-25 -143h-899zM1124 1057q0 135 -100 213q-70 51 -229 51h-269l-209 -1180h269q200 -3 312 101t153 331l55 316q18 111 18 168zM823 1462q227 0 332 -82q141 -111 141 -301q0 -70 -20 -196l-62 -348
q-39 -266 -192 -403q-154 -136 -412 -132h-487l258 1462h442z" />
    <glyph glyph-name="uni01F2" unicode="&#x1f2;" horiz-adv-x="2301" 
d="M1331 0l19 104l661 789h-481l24 135h684l-18 -104l-661 -789h555l-23 -135h-760zM1124 1057q0 135 -100 213q-70 51 -229 51h-269l-209 -1180h269q200 -3 312 101t153 331l55 316q18 111 18 168zM823 1462q227 0 332 -82q141 -111 141 -301q0 -70 -20 -196l-62 -348
q-39 -266 -192 -403q-154 -136 -412 -132h-487l258 1462h442z" />
    <glyph glyph-name="uni01F3" unicode="&#x1f3;" horiz-adv-x="2129" 
d="M1157 0l19 104l661 789h-481l24 135h684l-18 -104l-662 -789h555l-24 -135h-758zM287 328q0 -211 209 -211q250 0 305 313l28 168q10 66 11 104q0 211 -217 211q-125 0 -198 -80q-72 -81 -103 -251l-25 -136q-10 -57 -10 -118zM121 291q0 74 16 168l29 155
q39 230 142 332t271 102t255 -57q8 -6 55 -53l92 524h164l-258 -1462h-129l6 100q-70 -70 -134 -94q-64 -25 -163 -24q-346 0 -346 309z" />
    <glyph glyph-name="uni01F4" unicode="&#x1f4;" horiz-adv-x="1357" 
d="M770 1616l205 291h196l-278 -291h-123zM170 375q0 84 25 227l53 299q29 170 67 262q39 92 111 164q145 152 399 152q203 0 321 -85t118 -235q0 -27 -4 -49l-160 -12v18q0 104 -73 162t-204 57q-176 1 -271 -107t-140 -358l-50 -282q-20 -117 -20 -191q0 -272 289 -272
q188 0 291 121q80 88 110 258l23 127h-303l22 137h473l-45 -252q-26 -145 -62 -229t-106 -154q-152 -151 -392 -151q-472 0 -472 393z" />
    <glyph glyph-name="uni01F5" unicode="&#x1f5;" horiz-adv-x="1157" 
d="M596 1192l205 291h196l-278 -291h-123zM285 328q0 -211 209 -211q248 0 303 313l30 168q8 61 9 102q0 213 -215 213q-125 -1 -199 -81t-103 -250l-24 -136q-10 -57 -10 -118zM457 -18q-338 0 -338 313q0 61 16 164l27 155q41 230 144 332t307 102t290 -124l35 104h127
l-180 -1028q-43 -246 -167 -362t-339 -117q-262 0 -348 162l135 73q63 -102 213 -102q281 0 340 326l18 104q-100 -102 -280 -102z" />
    <glyph glyph-name="Aringacute" unicode="&#x1fa;" horiz-adv-x="1228" 
d="M772 1835l158 240h190l-243 -240h-105zM825 1710q-59 0 -97 -44t-38 -114q0 -86 94 -86q59 0 97 43q37 43 37 113q-1 88 -93 88zM889 463l-137 784l-418 -784h555zM578 1556q0 106 70 173q71 67 171 67q99 0 155 -47t56 -124t-42 -139t-111 -89l264 -1397h-178l-56 319
h-639l-168 -319h-190l760 1403q-92 47 -92 153z" />
    <glyph glyph-name="aringacute" unicode="&#x1fb;" horiz-adv-x="1075" 
d="M659 1628l158 242h191l-244 -242h-105zM705 1464q-59 0 -97 -44t-39 -113q0 -88 95 -88q59 0 97 44t38 113q0 88 -94 88zM700 1550q100 0 156 -47q55 -47 55 -139q1 -92 -71 -162t-174 -70t-155 49q-54 48 -54 141t71 161q72 67 172 67zM502 481q-164 0 -228 -63
t-63 -185q0 -67 49 -95t166 -27q164 0 227 69q35 39 52 139l30 162h-233zM778 762q0 152 -192 151q-156 0 -264 -104l-99 84q147 156 377 156q166 0 254 -67t88 -191q0 -53 -20 -162l-111 -629h-129l-8 49q-92 -67 -276 -67t-266 54q-81 54 -81 175q0 188 92 291
q94 102 342 102h271l12 72q10 51 10 86z" />
    <glyph glyph-name="AEacute" unicode="&#x1fc;" horiz-adv-x="1945" 
d="M1405 1616l205 291h196l-278 -291h-123zM969 481l149 838h-20l-690 -838h561zM944 338h-645l-276 -338h-197l1212 1462h957l-25 -143h-686l-88 -508h584l-25 -143h-586l-92 -525h688l-26 -143h-854z" />
    <glyph glyph-name="aeacute" unicode="&#x1fd;" horiz-adv-x="1708" 
d="M872 1192l205 291h197l-279 -291h-123zM1448 709q0 215 -213 215q-254 0 -311 -306l-2 -14h518q8 49 8 105zM502 481q-164 0 -228 -64t-63 -184q0 -67 49 -95t173 -28t190 55q66 54 88 181l24 135h-233zM609 1049q239 0 284 -166q67 90 145 128t199 38q362 0 362 -342
q0 -104 -26 -226h-672l-8 -45q-8 -35 -8 -94q0 -227 245 -227q147 0 246 100l107 -88q-70 -78 -154 -112t-209 -33q-268 0 -336 184q-57 -102 -144 -143t-257 -41t-251 54t-81 175q0 188 92 291q94 102 342 102h271l12 72q10 51 10 86q0 152 -192 151q-155 0 -264 -104
l-99 84q147 156 386 156z" />
    <glyph glyph-name="Oslashacute" unicode="&#x1fe;" horiz-adv-x="1382" 
d="M784 1616l205 291h197l-279 -291h-123zM819 1337q-330 0 -403 -442l-58 -328q-18 -98 -18 -172v-26l733 868q-76 100 -254 100zM643 125q178 0 287 135q82 109 117 307l57 328q18 101 18 145t-2 56l-731 -871q76 -100 254 -100zM636 -18q-240 0 -357 110l-115 -137
l-101 84l138 162q-33 76 -33 160t20 212l64 361q29 156 67 244q39 88 115 157q152 145 392 145t358 -110l108 131l101 -82l-131 -157q32 -76 32 -166t-20 -207l-66 -361q-28 -156 -66 -244t-114 -157q-152 -145 -392 -145z" />
    <glyph glyph-name="oslashacute" unicode="&#x1ff;" horiz-adv-x="1140" 
d="M590 1192l205 291h196l-278 -291h-123zM625 913q-123 1 -198 -79t-105 -250l-25 -140q-12 -66 -12 -102t6 -68l518 578q-61 61 -184 61zM517 117q124 0 199 79t105 248l25 140q12 80 12 104t-4 68l-520 -580q59 -59 183 -59zM1022 746q0 -82 -16 -175l-29 -159
q-39 -222 -152 -326t-307 -104t-293 73l-82 -92l-73 66l90 100q-39 67 -39 153t16 175l27 159q41 225 154 329q114 103 306 103t294 -73l81 92l74 -66l-90 -102q39 -71 39 -153z" />
    <glyph glyph-name="uni0200" unicode="&#x200;" horiz-adv-x="1228" 
d="M743 1616h-116l-127 291h172zM1020 1616h-117l-127 291h172zM889 463l-137 784l-418 -784h555zM907 319h-639l-168 -319h-190l792 1462h162l277 -1462h-178z" />
    <glyph glyph-name="uni0201" unicode="&#x201;" horiz-adv-x="1075" 
d="M592 1192h-117l-127 291h172zM868 1192h-116l-127 291h172zM502 481q-164 0 -228 -63t-63 -185q0 -67 49 -95t166 -27q164 0 227 69q35 39 52 139l30 162h-233zM778 762q0 152 -192 151q-156 0 -264 -104l-99 84q147 156 377 156q166 0 254 -67t88 -191q0 -53 -20 -162
l-111 -629h-129l-8 49q-92 -67 -276 -67t-266 54q-81 54 -81 175q0 188 92 291q94 102 342 102h271l12 72q10 51 10 86z" />
    <glyph glyph-name="uni0202" unicode="&#x202;" horiz-adv-x="1228" 
d="M987 1667q0 115 -151 115q-88 0 -131 -35t-68 -123h-113q27 156 99 219t219 64q260 0 260 -201q0 -21 -6 -82h-111q2 27 2 43zM889 463l-137 784l-418 -784h555zM907 319h-639l-168 -319h-190l792 1462h162l277 -1462h-178z" />
    <glyph glyph-name="uni0203" unicode="&#x203;" horiz-adv-x="1075" 
d="M834 1200v17q2 12 2 28q0 113 -152 113q-88 0 -131 -35t-68 -123h-112q27 156 98 219q72 63 217 64q262 0 262 -201q0 -21 -6 -82h-110zM502 481q-164 0 -228 -63t-63 -185q0 -67 49 -95t166 -27q164 0 227 69q35 39 52 139l30 162h-233zM778 762q0 152 -192 151
q-156 0 -264 -104l-99 84q147 156 377 156q166 0 254 -67t88 -191q0 -53 -20 -162l-111 -629h-129l-8 49q-92 -67 -276 -67t-266 54q-81 54 -81 175q0 188 92 291q94 102 342 102h271l12 72q10 51 10 86z" />
    <glyph glyph-name="uni0204" unicode="&#x204;" horiz-adv-x="1185" 
d="M791 1616h-117l-127 291h172zM1067 1616h-117l-127 291h172zM125 0l258 1462h854l-25 -143h-686l-90 -508h584l-25 -143h-583l-93 -525h687l-25 -143h-856z" />
    <glyph glyph-name="uni0205" unicode="&#x205;" horiz-adv-x="1112" 
d="M639 1192h-117l-127 291h172zM915 1192h-116l-127 291h172zM854 707q0 217 -213 217q-125 0 -209 -82t-106 -238h518q10 43 10 103zM289 342q0 -227 246 -227q152 0 245 100l107 -88q-70 -78 -155 -112t-212 -33q-393 0 -393 340q0 70 16 172l17 88q40 244 154 356
t321 111q371 0 371 -340q0 -104 -27 -228h-674l-8 -45q-8 -43 -8 -94z" />
    <glyph glyph-name="uni0206" unicode="&#x206;" horiz-adv-x="1185" 
d="M1020 1667q0 115 -152 115q-88 0 -131 -35t-67 -123h-113q27 156 98 219q72 63 219 64q260 0 261 -201q-1 -21 -7 -82h-110q2 27 2 43zM125 0l258 1462h854l-25 -143h-686l-90 -508h584l-25 -143h-583l-93 -525h687l-25 -143h-856z" />
    <glyph glyph-name="uni0207" unicode="&#x207;" horiz-adv-x="1112" 
d="M860 1200v17q2 12 2 28q0 113 -151 113q-88 0 -131 -35t-68 -123h-113q27 156 99 219t217 64q262 0 262 -201q0 -21 -6 -82h-111zM854 707q0 217 -213 217q-125 0 -209 -82t-106 -238h518q10 43 10 103zM289 342q0 -227 246 -227q152 0 245 100l107 -88
q-70 -78 -155 -112t-212 -33q-393 0 -393 340q0 70 16 172l17 88q40 244 154 356t321 111q371 0 371 -340q0 -104 -27 -228h-674l-8 -45q-8 -43 -8 -94z" />
    <glyph glyph-name="uni0208" unicode="&#x208;" horiz-adv-x="595" 
d="M426 1616h-117l-127 291h172zM702 1616h-116l-127 291h172zM123 0l258 1462h170l-258 -1462h-170z" />
    <glyph glyph-name="uni0209" unicode="&#x209;" horiz-adv-x="522" 
d="M315 1192h-116l-127 291h172zM592 1192h-117l-127 291h172zM88 0l182 1028h162l-180 -1028h-164z" />
    <glyph glyph-name="uni020A" unicode="&#x20a;" horiz-adv-x="595" 
d="M672 1667q0 115 -152 115q-88 0 -131 -35t-67 -123h-113q27 156 98 219q72 63 219 64q260 0 260 -201q0 -21 -6 -82h-110q2 27 2 43zM123 0l258 1462h170l-258 -1462h-170z" />
    <glyph glyph-name="uni020B" unicode="&#x20b;" horiz-adv-x="522" 
d="M557 1200v17q2 12 2 28q0 113 -151 113q-88 0 -132 -35t-67 -123h-113q27 156 99 219t217 64q262 0 262 -201q0 -21 -6 -82h-111zM88 0l182 1028h162l-182 -1028h-162z" />
    <glyph glyph-name="uni020C" unicode="&#x20c;" horiz-adv-x="1384" 
d="M821 1616h-116l-127 291h172zM1098 1616h-117l-127 291h172zM1122 1065q0 131 -75 202q-76 71 -220 70q-186 0 -295 -135q-82 -102 -116 -307l-58 -328q-18 -96 -18 -172q0 -129 76 -199t215 -71q190 0 299 135q82 108 117 307l57 328q18 104 18 170zM636 -18
q-240 0 -354 107t-114 284q0 73 20 200l64 361q29 156 67 244q39 88 115 157q152 145 386 145t355 -102q120 -102 119 -291q0 -76 -22 -198l-64 -361q-28 -156 -66 -244t-114 -157q-152 -145 -392 -145z" />
    <glyph glyph-name="uni020D" unicode="&#x20d;" horiz-adv-x="1140" 
d="M625 1192h-117l-127 291h172zM901 1192h-117l-127 291h172zM856 705q0 209 -225 208q-131 1 -206 -79t-103 -250l-25 -140q-12 -72 -12 -116q0 -211 225 -211q132 1 206 79t103 248l25 140q12 61 12 121zM1020 729q0 -76 -14 -158l-29 -159q-41 -226 -154 -328t-319 -102
q-383 0 -383 321q0 70 14 154l29 159q41 225 153 329q113 103 320 104q383 0 383 -320z" />
    <glyph glyph-name="uni020E" unicode="&#x20e;" horiz-adv-x="1384" 
d="M1065 1667q0 115 -152 115q-88 0 -131 -35t-67 -123h-113q27 156 98 219q72 63 220 64q260 0 260 -201q0 -21 -6 -82h-111q2 27 2 43zM1122 1065q0 131 -75 202q-76 71 -220 70q-186 0 -295 -135q-82 -102 -116 -307l-58 -328q-18 -96 -18 -172q0 -129 76 -199t215 -71
q190 0 299 135q82 108 117 307l57 328q18 104 18 170zM636 -18q-240 0 -354 107t-114 284q0 73 20 200l64 361q29 156 67 244q39 88 115 157q152 145 386 145t355 -102q120 -102 119 -291q0 -76 -22 -198l-64 -361q-28 -156 -66 -244t-114 -157q-152 -145 -392 -145z" />
    <glyph glyph-name="uni020F" unicode="&#x20f;" horiz-adv-x="1140" 
d="M866 1200v17q2 12 2 28q0 113 -151 113q-88 0 -131 -35t-68 -123h-112q27 156 98 219q72 63 217 64q262 0 262 -201q0 -21 -6 -82h-111zM856 705q0 209 -225 208q-131 1 -206 -79t-103 -250l-25 -140q-12 -72 -12 -116q0 -211 225 -211q132 1 206 79t103 248l25 140
q12 61 12 121zM1020 729q0 -76 -14 -158l-29 -159q-41 -226 -154 -328t-319 -102q-383 0 -383 321q0 70 14 154l29 159q41 225 153 329q113 103 320 104q383 0 383 -320z" />
    <glyph glyph-name="uni0210" unicode="&#x210;" horiz-adv-x="1323" 
d="M729 1616h-117l-127 291h172zM1006 1616h-117l-127 291h172zM766 772q164 0 250 95t86 251q0 106 -62 154t-196 49h-318l-98 -549h338zM862 1462q221 0 316 -84q98 -82 98 -231q0 -213 -106 -351t-277 -147l207 -649h-189l-188 635h-315l-113 -635h-170l258 1462h479z
" />
    <glyph glyph-name="uni0211" unicode="&#x211;" horiz-adv-x="768" 
d="M485 1192h-116l-127 291h172zM762 1192h-117l-127 291h172zM399 1028v-106q100 127 263 127q98 0 192 -54l-92 -139q-68 51 -135 51q-113 0 -181 -96t-104 -309l-90 -502h-162l182 1028h127z" />
    <glyph glyph-name="uni0212" unicode="&#x212;" horiz-adv-x="1323" 
d="M987 1667q0 115 -151 115q-88 0 -131 -35t-68 -123h-113q27 156 99 219t219 64q260 0 260 -201q0 -21 -6 -82h-111q2 27 2 43zM766 772q164 0 250 95t86 251q0 106 -62 154t-196 49h-318l-98 -549h338zM862 1462q221 0 316 -84q98 -82 98 -231q0 -213 -106 -351
t-277 -147l207 -649h-189l-188 635h-315l-113 -635h-170l258 1462h479z" />
    <glyph glyph-name="uni0213" unicode="&#x213;" horiz-adv-x="768" 
d="M733 1200v17q2 12 2 28q0 113 -151 113q-88 0 -131 -35t-68 -123h-113q27 156 99 219t217 64q262 0 262 -201q0 -21 -6 -82h-111zM399 1028v-106q100 127 263 127q98 0 192 -54l-92 -139q-68 51 -135 51q-113 0 -181 -96t-104 -309l-90 -502h-162l182 1028h127z" />
    <glyph glyph-name="uni0214" unicode="&#x214;" horiz-adv-x="1413" 
d="M836 1616h-117l-127 291h172zM1112 1616h-117l-127 291h172zM365 352q0 -76 49 -143q70 -84 231 -84q205 0 309 149q53 76 88 263l164 925h170l-170 -954q-26 -154 -56 -228t-91 -139q-152 -160 -418 -159q-137 0 -223 30t-146 99q-80 92 -79 229q0 74 26 227l158 895
h170l-164 -925q-18 -109 -18 -185z" />
    <glyph glyph-name="uni0215" unicode="&#x215;" horiz-adv-x="1136" 
d="M623 1192h-117l-127 291h172zM899 1192h-117l-127 291h172zM750 0v113q-102 -131 -299 -131q-147 0 -229 71q-81 72 -81 203q0 90 23 215l98 557h164l-100 -563q-16 -98 -17 -148q0 -193 180 -192q127 0 197 88t105 293l92 522h164l-183 -1028h-114z" />
    <glyph glyph-name="uni0216" unicode="&#x216;" horiz-adv-x="1413" 
d="M1079 1667q0 115 -151 115q-88 0 -131 -35t-68 -123h-113q27 156 99 219t219 64q260 0 260 -201q0 -21 -6 -82h-111q2 27 2 43zM365 352q0 -76 49 -143q70 -84 231 -84q205 0 309 149q53 76 88 263l164 925h170l-170 -954q-26 -154 -56 -228t-91 -139
q-152 -160 -418 -159q-137 0 -223 30t-146 99q-80 92 -79 229q0 74 26 227l158 895h170l-164 -925q-18 -109 -18 -185z" />
    <glyph glyph-name="uni0217" unicode="&#x217;" horiz-adv-x="1136" 
d="M864 1200v17q2 12 2 28q0 113 -151 113q-88 0 -131 -35t-68 -123h-113q27 156 99 219t217 64q262 0 262 -201q0 -21 -6 -82h-111zM750 0v113q-102 -131 -299 -131q-147 0 -229 71q-81 72 -81 203q0 90 23 215l98 557h164l-100 -563q-16 -98 -17 -148q0 -193 180 -192
q127 0 197 88t105 293l92 522h164l-183 -1028h-114z" />
    <glyph glyph-name="Scommaaccent" unicode="&#x218;" horiz-adv-x="1185" 
d="M248 -455l162 314h165l-213 -314h-114zM526 125q215 0 314 123q66 86 66 182t-62 148q-37 30 -69 40q-31 10 -201 54q-342 90 -343 346q0 188 126 325t378 138q324 0 420 -185l-145 -84q-70 125 -287 125q-178 0 -262 -116q-59 -79 -59 -173t64 -146q65 -52 211 -91
q147 -39 199 -59t97 -58q102 -80 102 -229q1 -223 -149 -353t-394 -130q-391 0 -495 215l147 86q70 -158 342 -158z" />
    <glyph glyph-name="scommaaccent" unicode="&#x219;" horiz-adv-x="968" 
d="M158 -455l161 314h166l-213 -314h-114zM397 115q133 0 207 54t74 153q0 66 -51 94q-37 24 -189 46t-220 78t-66 169q0 151 97 245t278 94t288 -73q45 -31 80 -90l-129 -74q-80 106 -234 107q-100 0 -160 -52t-60 -128q0 -74 39 -101q41 -27 195 -49t223 -75
q69 -54 69 -177q0 -354 -445 -354q-309 -1 -399 159l131 76q88 -102 272 -102z" />
    <glyph glyph-name="uni021A" unicode="&#x21a;" horiz-adv-x="1134" 
d="M217 -455l162 314h166l-213 -314h-115zM395 0l234 1319h-422l24 143h1012l-26 -143h-418l-234 -1319h-170z" />
    <glyph glyph-name="uni021B" unicode="&#x21b;" horiz-adv-x="684" 
d="M39 -455l162 314h166l-213 -314h-115zM336 235q0 -50 32 -74t115 -24h35l-22 -137h-31q-163 0 -229 43t-66 152q0 72 16 170l95 528h-125l24 135h127l66 330h151l-57 -330h203l-25 -135h-201l-98 -553q-10 -55 -10 -105z" />
    <glyph glyph-name="uni0226" unicode="&#x226;" horiz-adv-x="1228" 
d="M731 1632l37 213h160l-37 -213h-160zM889 463l-137 784l-418 -784h555zM907 319h-639l-168 -319h-190l792 1462h162l277 -1462h-178z" />
    <glyph glyph-name="uni0227" unicode="&#x227;" horiz-adv-x="1075" 
d="M588 1208l37 213h159l-36 -213h-160zM502 481q-164 0 -228 -63t-63 -185q0 -67 49 -95t166 -27q164 0 227 69q35 39 52 139l30 162h-233zM778 762q0 152 -192 151q-156 0 -264 -104l-99 84q147 156 377 156q166 0 254 -67t88 -191q0 -53 -20 -162l-111 -629h-129l-8 49
q-92 -67 -276 -67t-266 54q-81 54 -81 175q0 188 92 291q94 102 342 102h271l12 72q10 51 10 86z" />
    <glyph glyph-name="uni0237" unicode="&#x237;" horiz-adv-x="534" 
d="M283 1028h161l-186 -1059q-39 -260 -142 -352t-352 -88l25 137q139 -6 210 63t95 230z" />
    <glyph glyph-name="afii57929" unicode="&#x2bc;" horiz-adv-x="382" 
d="M150 975l159 487h174l-198 -487h-135z" />
    <glyph glyph-name="uni02C0" unicode="&#x2c0;" horiz-adv-x="1024" 
d="M772 1831q0 39 -46 39t-114 -27l-12 94q80 31 148 31q164 0 163 -133q0 -37 -15 -63q-16 -26 -56 -66t-49 -56t-17 -55h-121q14 68 26 92q11 25 52 71t41 73z" />
    <glyph glyph-name="circumflex" unicode="&#x2c6;" horiz-adv-x="1024" 
d="M670 1366l-168 -166h-180l307 275h106l211 -275h-164z" />
    <glyph glyph-name="caron" unicode="&#x2c7;" horiz-adv-x="1024" 
d="M645 1307l168 163h180l-307 -272h-106l-211 272h163z" />
    <glyph glyph-name="uni02C9" unicode="&#x2c9;" horiz-adv-x="1024" 
d="M383 1268l20 118h529l-23 -118h-526z" />
    <glyph glyph-name="breve" unicode="&#x2d8;" horiz-adv-x="1024" 
d="M502 1421q0 -115 151 -114q88 -1 130 33t71 124h111q-29 -158 -99 -220t-217 -62q-262 0 -262 202q0 31 8 80h111q-4 -27 -4 -43z" />
    <glyph glyph-name="dotaccent" unicode="&#x2d9;" horiz-adv-x="1024" 
d="M553 1208l37 213h160l-37 -213h-160z" />
    <glyph glyph-name="ring" unicode="&#x2da;" horiz-adv-x="1024" 
d="M780 1417q0 88 -101 88q-52 0 -90 -44t-38 -113q0 -88 94 -88q59 0 97 44t38 113zM682 1591q100 0 156 -47t55 -139q0 -92 -72 -162q-72 -69 -173 -69t-155 48q-55 48 -55 141t72 161t172 67z" />
    <glyph glyph-name="ogonek" unicode="&#x2db;" horiz-adv-x="1024" 
d="M420 -233q0 -66 90 -66q53 0 127 20v-94q-84 -29 -164 -28q-205 0 -205 145q0 160 246 256h145q-127 -66 -183 -121t-56 -112z" />
    <glyph glyph-name="tilde" unicode="&#x2dc;" horiz-adv-x="1024" 
d="M542 1456q76 0 142 -66t100 -65q34 0 59 26q24 26 50 89h104q-51 -136 -96 -186t-126 -50t-145 66t-102 65q-61 1 -110 -114h-105q53 135 103 185t126 50z" />
    <glyph glyph-name="hungarumlaut" unicode="&#x2dd;" horiz-adv-x="1024" 
d="M698 1192l174 291h172l-229 -291h-117zM422 1192l174 291h172l-229 -291h-117z" />
    <glyph glyph-name="uni0309" unicode="&#x309;" horiz-adv-x="1024" 
d="M698 1413q0 39 -48 39t-111 -27l-13 97q84 29 148 28q164 0 164 -131q0 -39 -16 -65t-55 -65q-39 -38 -49 -55t-18 -56h-120q12 64 21 84t53 72t44 79z" />
    <glyph glyph-name="uni0312" unicode="&#x312;" horiz-adv-x="1024" 
d="M535 1192l274 291h123l-205 -291h-192z" />
    <glyph glyph-name="uni0313" unicode="&#x313;" horiz-adv-x="155" 
d="M72 1008l137 471h160l-183 -471h-114z" />
    <glyph glyph-name="uni031B" unicode="&#x31b;" horiz-adv-x="155" 
d="M72 1008l137 471h160l-183 -471h-114z" />
    <glyph glyph-name="uni0323" unicode="&#x323;" horiz-adv-x="1024" 
d="M270 -395l37 213h160l-37 -213h-160z" />
    <glyph glyph-name="uni037E" unicode="&#x37e;" horiz-adv-x="577" 
d="M274 825l37 205h170l-37 -205h-170zM-41 -385l201 588h182l-242 -588h-141z" />
    <glyph glyph-name="uni0387" unicode="&#x387;" horiz-adv-x="575" 
d="M227 643l35 203h170l-35 -203h-170z" />
    <glyph glyph-name="uni04D4" unicode="&#x4d4;" horiz-adv-x="1945" 
d="M969 481l149 838h-20l-690 -838h561zM944 338h-645l-276 -338h-197l1212 1462h957l-25 -143h-686l-88 -508h584l-25 -143h-586l-92 -525h688l-26 -143h-854z" />
    <glyph glyph-name="uni04D5" unicode="&#x4d5;" horiz-adv-x="1708" 
d="M1448 709q0 215 -213 215q-254 0 -311 -306l-2 -14h518q8 49 8 105zM502 481q-164 0 -228 -64t-63 -184q0 -67 49 -95t173 -28t190 55q66 54 88 181l24 135h-233zM609 1049q239 0 284 -166q67 90 145 128t199 38q362 0 362 -342q0 -104 -26 -226h-672l-8 -45
q-8 -35 -8 -94q0 -227 245 -227q147 0 246 100l107 -88q-70 -78 -154 -112t-209 -33q-268 0 -336 184q-57 -102 -144 -143t-257 -41t-251 54t-81 175q0 188 92 291q94 102 342 102h271l12 72q10 51 10 86q0 152 -192 151q-155 0 -264 -104l-99 84q147 156 386 156z" />
    <glyph glyph-name="uni1E02" unicode="&#x1e02;" horiz-adv-x="1308" 
d="M750 1632l36 213h160l-37 -213h-159zM702 141q143 0 218 80q94 100 94 254q0 105 -52 155t-165 50h-387l-97 -539h389zM793 821q143 0 217 76q90 94 90 233q0 98 -53 144t-166 47h-359l-88 -500h359zM895 1462q203 0 290 -82t87 -222q0 -278 -234 -398q2 -2 8 -6
q72 -44 107 -111q31 -72 31 -166q0 -221 -135 -360q-63 -63 -141 -90t-197 -27h-590l258 1462h516z" />
    <glyph glyph-name="uni1E03" unicode="&#x1e03;" horiz-adv-x="1157" 
d="M721 1208l37 213h160l-37 -213h-160zM870 698q0 215 -211 215q-246 0 -301 -315l-28 -168q-12 -57 -13 -104q0 -209 220 -209q125 -1 197 79t104 250l22 136q10 55 10 116zM694 1049q342 0 342 -314q0 -72 -16 -166l-27 -155q-39 -228 -143 -330t-282 -102t-263 77
q-4 2 -51 68l-35 -127h-129l258 1462h162l-92 -522q60 59 122 84t154 25z" />
    <glyph glyph-name="uni1E0C" unicode="&#x1e0c;" horiz-adv-x="1388" 
d="M399 -395l37 213h160l-37 -213h-160zM1124 1057q0 135 -100 213q-70 51 -229 51h-269l-209 -1180h269q200 -3 312 101t153 331l55 316q18 111 18 168zM823 1462q227 0 332 -82q141 -111 141 -301q0 -70 -20 -196l-62 -348q-39 -266 -192 -403q-154 -136 -412 -132h-487
l258 1462h442z" />
    <glyph glyph-name="uni1E0D" unicode="&#x1e0d;" horiz-adv-x="1157" 
d="M371 -395l37 213h159l-37 -213h-159zM287 328q0 -211 209 -211q250 0 305 313l28 168q10 66 11 104q0 211 -217 211q-125 0 -198 -80q-72 -81 -103 -251l-25 -136q-10 -57 -10 -118zM121 291q0 74 16 168l29 155q39 230 142 332t271 102t255 -57q8 -6 55 -53l92 524h164
l-258 -1462h-129l6 100q-70 -70 -134 -94q-64 -25 -163 -24q-346 0 -346 309z" />
    <glyph glyph-name="uni1E1E" unicode="&#x1e1e;" horiz-adv-x="1118" 
d="M760 1632l37 213h159l-36 -213h-160zM125 0l258 1462h846l-25 -143h-676l-92 -518h576l-25 -144h-575l-117 -657h-170z" />
    <glyph glyph-name="uni1E1F" unicode="&#x1e1f;" horiz-adv-x="679" 
d="M528 1632l37 213h160l-37 -213h-160zM295 893h-127l22 135h129l31 182q25 150 92 203q68 53 228 49h106l-20 -123h-60q-96 3 -133 -29t-55 -128l-27 -154h232l-23 -135h-233l-158 -893h-162z" />
    <glyph glyph-name="uni1E24" unicode="&#x1e24;" horiz-adv-x="1394" 
d="M455 -395l37 213h159l-37 -213h-159zM123 0l258 1462h170l-115 -651h627l115 651h170l-258 -1462h-170l118 668h-626l-119 -668h-170z" />
    <glyph glyph-name="uni1E25" unicode="&#x1e25;" horiz-adv-x="1157" 
d="M338 -395l37 213h160l-37 -213h-160zM1018 772q0 -70 -21 -197l-102 -575h-162l103 584q12 63 12 125q0 197 -189 196q-131 0 -205 -87t-108 -283l-94 -535h-162l258 1462h162l-90 -514q74 60 129 80t147 21q150 0 236 -74t86 -203z" />
    <glyph glyph-name="uni1E44" unicode="&#x1e44;" horiz-adv-x="1476" 
d="M895 1632l37 213h160l-37 -213h-160zM123 0l258 1462h164l514 -1171l207 1171h166l-258 -1462h-164l-514 1171l-207 -1171h-166z" />
    <glyph glyph-name="uni1E45" unicode="&#x1e45;" horiz-adv-x="1157" 
d="M621 1208l36 213h160l-37 -213h-159zM698 1049q154 0 237 -72t83 -205q0 -70 -21 -197l-102 -575h-162l101 575q14 72 14 136q0 197 -189 196q-133 0 -205 -88t-110 -297l-92 -522h-162l182 1028h125l-6 -106q109 127 307 127z" />
    <glyph glyph-name="uni1E5A" unicode="&#x1e5a;" horiz-adv-x="1323" 
d="M446 -395l37 213h160l-37 -213h-160zM766 772q164 0 250 95t86 251q0 106 -62 154t-196 49h-318l-98 -549h338zM862 1462q221 0 316 -84q98 -82 98 -231q0 -213 -106 -351t-277 -147l207 -649h-189l-188 635h-315l-113 -635h-170l258 1462h479z" />
    <glyph glyph-name="uni1E5B" unicode="&#x1e5b;" horiz-adv-x="768" 
d="M23 -395l36 213h160l-37 -213h-159zM399 1028v-106q100 127 263 127q100 0 192 -54l-92 -139q-68 51 -135 51q-113 0 -181 -96t-104 -309l-88 -502h-164l182 1028h127z" />
    <glyph glyph-name="uni1E62" unicode="&#x1e62;" horiz-adv-x="1185" 
d="M338 -395l37 213h160l-37 -213h-160zM526 125q215 0 314 123q66 86 66 182t-62 148q-37 30 -69 40q-31 10 -201 54q-342 90 -343 346q0 188 126 325t378 138q324 0 420 -185l-145 -84q-70 125 -287 125q-178 0 -262 -116q-59 -79 -59 -173t64 -146q65 -52 211 -91
q147 -39 199 -59t97 -58q102 -80 102 -229q1 -223 -149 -353t-394 -130q-391 0 -495 215l147 86q70 -158 342 -158z" />
    <glyph glyph-name="uni1E63" unicode="&#x1e63;" horiz-adv-x="968" 
d="M231 -395l37 213h160l-37 -213h-160zM397 115q133 0 207 54t74 153q0 66 -51 94q-37 24 -189 46t-220 78t-66 169q0 151 97 245t278 94t288 -73q45 -31 80 -90l-129 -74q-80 106 -234 107q-100 0 -160 -52t-60 -128q0 -74 39 -101q41 -27 195 -49t223 -75q69 -54 69 -177
q0 -354 -445 -354q-309 -1 -399 159l131 76q88 -102 272 -102z" />
    <glyph glyph-name="uni1E6C" unicode="&#x1e6c;" horiz-adv-x="1134" 
d="M328 -395l37 213h159l-37 -213h-159zM395 0l234 1319h-422l24 143h1012l-26 -143h-418l-234 -1319h-170z" />
    <glyph glyph-name="uni1E6D" unicode="&#x1e6d;" horiz-adv-x="684" 
d="M100 -395l37 213h160l-37 -213h-160zM332 230q0 -92 149 -93h35l-24 -137h-29q-164 0 -231 43t-66 152q0 68 18 170l95 528h-125l24 135h127l66 330h151l-57 -330h203l-25 -135h-201l-98 -553q-12 -66 -12 -110z" />
    <glyph glyph-name="Wgrave" unicode="&#x1e80;" horiz-adv-x="1794" 
d="M1200 1616h-121l-176 291h187zM336 0l-111 1462h166l68 -1200l540 1200h121l117 -1200l492 1200h176l-627 -1462h-145l-121 1165l-531 -1165h-145z" />
    <glyph glyph-name="wgrave" unicode="&#x1e81;" horiz-adv-x="1579" 
d="M1018 1192h-121l-176 291h186zM303 0l-135 1028h162l82 -815l407 815h113l121 -815l368 815h172l-499 -1028h-131l-127 774l-400 -774h-133z" />
    <glyph glyph-name="Wacute" unicode="&#x1e82;" horiz-adv-x="1794" 
d="M989 1616l205 291h197l-279 -291h-123zM336 0l-111 1462h166l68 -1200l540 1200h121l117 -1200l492 1200h176l-627 -1462h-145l-121 1165l-531 -1165h-145z" />
    <glyph glyph-name="wacute" unicode="&#x1e83;" horiz-adv-x="1579" 
d="M807 1192l205 291h196l-278 -291h-123zM303 0l-135 1028h162l82 -815l407 815h113l121 -815l368 815h172l-499 -1028h-131l-127 774l-400 -774h-133z" />
    <glyph glyph-name="Wdieresis" unicode="&#x1e84;" horiz-adv-x="1794" 
d="M1202 1632l37 213h150l-39 -213h-148zM803 1632l37 213h149l-39 -213h-147zM336 0l-111 1462h166l68 -1200l540 1200h121l117 -1200l492 1200h176l-627 -1462h-145l-121 1165l-531 -1165h-145z" />
    <glyph glyph-name="wdieresis" unicode="&#x1e85;" horiz-adv-x="1579" 
d="M1018 1208l37 213h149l-39 -213h-147zM623 1208l36 213h150l-39 -213h-147zM303 0l-135 1028h162l82 -815l407 815h113l121 -815l368 815h172l-499 -1028h-131l-127 774l-400 -774h-133z" />
    <glyph glyph-name="uni1E92" unicode="&#x1e92;" horiz-adv-x="1112" 
d="M330 -395l37 213h159l-37 -213h-159zM14 0l21 121l887 1198h-637l24 143h830l-21 -121l-887 -1198h707l-25 -143h-899z" />
    <glyph glyph-name="uni1E93" unicode="&#x1e93;" horiz-adv-x="972" 
d="M258 -395l37 213h160l-37 -213h-160zM0 0l18 104l662 789h-481l22 135h686l-18 -104l-662 -789h555l-24 -135h-758z" />
    <glyph glyph-name="uni1EA0" unicode="&#x1ea0;" horiz-adv-x="1228" 
d="M393 -395l39 213h158l-37 -213h-160zM889 463l-137 784l-418 -784h555zM907 319h-639l-168 -319h-190l792 1462h162l277 -1462h-178z" />
    <glyph glyph-name="uni1EA1" unicode="&#x1ea1;" horiz-adv-x="1075" 
d="M297 -395l37 213h160l-37 -213h-160zM502 481q-164 0 -228 -63t-63 -185q0 -67 49 -95t166 -27q164 0 227 69q35 39 52 139l30 162h-233zM778 762q0 152 -192 151q-156 0 -264 -104l-99 84q147 156 377 156q166 0 254 -67t88 -191q0 -53 -20 -162l-111 -629h-129l-8 49
q-92 -67 -276 -67t-266 54q-81 54 -81 175q0 188 92 291q94 102 342 102h271l12 72q10 51 10 86z" />
    <glyph glyph-name="uni1EA2" unicode="&#x1ea2;" horiz-adv-x="1228" 
d="M854 1831q0 39 -46 39t-112 -27l-14 94q82 31 147 31q164 0 164 -133q0 -37 -15 -63q-14 -26 -56 -67q-42 -39 -50 -55t-16 -55h-119q13 65 25 89t52 72t40 75zM889 463l-137 784l-418 -784h555zM907 319h-639l-168 -319h-190l792 1462h162l277 -1462h-178z" />
    <glyph glyph-name="uni1EA3" unicode="&#x1ea3;" horiz-adv-x="1075" 
d="M723 1413q0 39 -48 39t-110 -27l-12 97q84 29 145 28q164 0 164 -131q0 -39 -15 -65t-55 -65q-40 -38 -49 -54q-8 -16 -16 -57h-121q14 68 26 90t51 71q40 48 40 74zM502 481q-164 0 -228 -63t-63 -185q0 -67 49 -95t166 -27q164 0 227 69q35 39 52 139l30 162h-233z
M778 762q0 152 -192 151q-156 0 -264 -104l-99 84q147 156 377 156q166 0 254 -67t88 -191q0 -53 -20 -162l-111 -629h-129l-8 49q-92 -67 -276 -67t-266 54q-81 54 -81 175q0 188 92 291q94 102 342 102h271l12 72q10 51 10 86z" />
    <glyph glyph-name="uni1EA4" unicode="&#x1ea4;" horiz-adv-x="1228" 
d="M825 1677l-157 -116h-172l292 219h101l215 -219h-160zM772 1835l158 231h155l-215 -231h-98zM889 463l-137 784l-418 -784h555zM907 319h-639l-168 -319h-190l792 1462h162l277 -1462h-178z" />
    <glyph glyph-name="uni1EA5" unicode="&#x1ea5;" horiz-adv-x="1075" 
d="M676 1253l-160 -116h-170l291 219h100l215 -219h-159zM621 1409l157 233h156l-215 -233h-98zM502 481q-164 0 -228 -63t-63 -185q0 -67 49 -95t166 -27q164 0 227 69q35 39 52 139l30 162h-233zM778 762q0 152 -192 151q-156 0 -264 -104l-99 84q147 156 377 156
q166 0 254 -67t88 -191q0 -53 -20 -162l-111 -629h-129l-8 49q-92 -67 -276 -67t-266 54q-81 54 -81 175q0 188 92 291q94 102 342 102h271l12 72q10 51 10 86z" />
    <glyph glyph-name="uni1EA6" unicode="&#x1ea6;" horiz-adv-x="1228" 
d="M825 1677l-157 -116h-172l292 219h101l213 -219h-158zM913 1835h-90l-139 231h141zM889 463l-137 784l-418 -784h555zM907 319h-639l-168 -319h-190l792 1462h162l277 -1462h-178z" />
    <glyph glyph-name="uni1EA7" unicode="&#x1ea7;" horiz-adv-x="1075" 
d="M676 1253l-160 -116h-172l293 219h100l215 -219h-159zM762 1409h-90l-140 233h142zM502 481q-164 0 -228 -63t-63 -185q0 -67 49 -95t166 -27q164 0 227 69q35 39 52 139l30 162h-233zM778 762q0 152 -192 151q-156 0 -264 -104l-99 84q147 156 377 156q166 0 254 -67
t88 -191q0 -53 -20 -162l-111 -629h-129l-8 49q-92 -67 -276 -67t-266 54q-81 54 -81 175q0 188 92 291q94 102 342 102h271l12 72q10 51 10 86z" />
    <glyph glyph-name="uni1EA8" unicode="&#x1ea8;" horiz-adv-x="1228" 
d="M821 1673l-157 -112h-172l288 208h101l217 -208h-160zM881 1964q1 33 -41 33t-99 -23l-12 80q68 25 135 25q139 0 140 -101q0 -49 -52 -93t-59 -85h-107q10 68 52 107q43 39 43 57zM889 463l-137 784l-418 -784h555zM907 319h-639l-168 -319h-190l792 1462h162l277 -1462
h-178z" />
    <glyph glyph-name="uni1EA9" unicode="&#x1ea9;" horiz-adv-x="1075" 
d="M670 1249l-158 -112h-172l289 209h100l217 -209h-160zM688 1573q-41 0 -98 -23l-12 80q68 25 135 25q139 0 139 -101q0 -49 -52 -93t-59 -85h-106q6 41 18 64q13 23 45 51t31 49q0 33 -41 33zM502 481q-164 0 -228 -63t-63 -185q0 -67 49 -95t166 -27q164 0 227 69
q35 39 52 139l30 162h-233zM778 762q0 152 -192 151q-156 0 -264 -104l-99 84q147 156 377 156q166 0 254 -67t88 -191q0 -53 -20 -162l-111 -629h-129l-8 49q-92 -67 -276 -67t-266 54q-81 54 -81 175q0 188 92 291q94 102 342 102h271l12 72q10 51 10 86z" />
    <glyph glyph-name="uni1EAA" unicode="&#x1eaa;" horiz-adv-x="1228" 
d="M836 1677l-160 -116h-172l293 219h100l215 -219h-160zM782 2062q68 0 110 -48t54 -58t27 -10q47 0 86 102h94q-43 -117 -82 -160t-107 -43q-68 1 -116 59q-49 58 -76 58q-55 0 -98 -102h-94q47 118 90 160q44 42 112 42zM889 463l-137 784l-418 -784h555zM907 319h-639
l-168 -319h-190l792 1462h162l277 -1462h-178z" />
    <glyph glyph-name="uni1EAB" unicode="&#x1eab;" horiz-adv-x="1075" 
d="M684 1253l-160 -116h-170l291 219h100l216 -219h-160zM630 1638q69 0 120 -57q35 -41 46 -50q12 -9 32 -9q38 0 79 102h94q-45 -119 -83 -161t-105 -42q-68 0 -119 62q-35 39 -46 47t-27 8q-52 0 -99 -102h-94q45 114 89 158t113 44zM502 481q-164 0 -228 -63t-63 -185
q0 -67 49 -95t166 -27q164 0 227 69q35 39 52 139l30 162h-233zM778 762q0 152 -192 151q-156 0 -264 -104l-99 84q147 156 377 156q166 0 254 -67t88 -191q0 -53 -20 -162l-111 -629h-129l-8 49q-92 -67 -276 -67t-266 54q-81 54 -81 175q0 188 92 291q94 102 342 102h271
l12 72q10 51 10 86z" />
    <glyph glyph-name="uni1EAC" unicode="&#x1eac;" horiz-adv-x="1228" 
d="M373 -395l39 213h157l-37 -213h-159zM834 1790l-168 -164h-181l308 272h106l211 -272h-164zM889 463l-137 784l-418 -784h555zM907 319h-639l-168 -319h-190l792 1462h162l277 -1462h-178z" />
    <glyph glyph-name="uni1EAD" unicode="&#x1ead;" horiz-adv-x="1075" 
d="M297 -395l37 213h160l-37 -213h-160zM692 1366l-170 -166h-180l307 275h107l211 -275h-164zM502 481q-164 0 -228 -63t-63 -185q0 -67 49 -95t166 -27q164 0 227 69q35 39 52 139l30 162h-233zM778 762q0 152 -192 151q-156 0 -264 -104l-99 84q147 156 377 156
q166 0 254 -67t88 -191q0 -53 -20 -162l-111 -629h-129l-8 49q-92 -67 -276 -67t-266 54q-81 54 -81 175q0 188 92 291q94 102 342 102h271l12 72q10 51 10 86z" />
    <glyph glyph-name="uni1EAE" unicode="&#x1eae;" horiz-adv-x="1228" 
d="M672 1780q0 -106 147 -107q84 0 128 31t67 106h114q-28 -141 -98 -198t-219 -58q-252 0 -252 177q0 24 8 79h107q-2 -14 -2 -30zM772 1835l158 231h155l-215 -231h-98zM889 463l-137 784l-418 -784h555zM907 319h-639l-168 -319h-190l792 1462h162l277 -1462h-178z" />
    <glyph glyph-name="uni1EAF" unicode="&#x1eaf;" horiz-adv-x="1075" 
d="M522 1384q0 -49 6 -69q16 -70 142 -70q84 0 128 32t64 107h115q-29 -141 -99 -198t-216 -58q-252 0 -252 175q0 15 6 81h106zM621 1409l157 233h156l-215 -233h-98zM502 481q-164 0 -228 -63t-63 -185q0 -67 49 -95t166 -27q164 0 227 69q35 39 52 139l30 162h-233z
M778 762q0 152 -192 151q-156 0 -264 -104l-99 84q147 156 377 156q166 0 254 -67t88 -191q0 -53 -20 -162l-111 -629h-129l-8 49q-92 -67 -276 -67t-266 54q-81 54 -81 175q0 188 92 291q94 102 342 102h271l12 72q10 51 10 86z" />
    <glyph glyph-name="uni1EB0" unicode="&#x1eb0;" horiz-adv-x="1228" 
d="M672 1780q0 -106 147 -107q84 0 128 31t67 106h114q-28 -141 -98 -198t-219 -58q-252 0 -252 177q0 24 8 79h107q-2 -14 -2 -30zM920 1835h-91l-141 231h141zM889 463l-137 784l-418 -784h555zM907 319h-639l-168 -319h-190l792 1462h162l277 -1462h-178z" />
    <glyph glyph-name="uni1EB1" unicode="&#x1eb1;" horiz-adv-x="1075" 
d="M522 1384q0 -49 6 -69q16 -70 142 -70q84 0 128 32t64 107h115q-29 -141 -99 -198t-216 -58q-252 0 -252 175q0 15 6 81h106zM768 1409h-90l-141 233h143zM502 481q-164 0 -228 -63t-63 -185q0 -67 49 -95t166 -27q164 0 227 69q35 39 52 139l30 162h-233zM778 762
q0 152 -192 151q-156 0 -264 -104l-99 84q147 156 377 156q166 0 254 -67t88 -191q0 -53 -20 -162l-111 -629h-129l-8 49q-92 -67 -276 -67t-266 54q-81 54 -81 175q0 188 92 291q94 102 342 102h271l12 72q10 51 10 86z" />
    <glyph glyph-name="uni1EB2" unicode="&#x1eb2;" horiz-adv-x="1228" 
d="M672 1780q0 -106 147 -107q84 0 128 31t67 106h114q-28 -141 -98 -198t-219 -58q-252 0 -252 177q0 24 8 79h107q-2 -14 -2 -30zM883 1964q1 33 -43 33t-97 -23l-14 80q68 25 133 25q141 0 142 -105q0 -31 -12 -49t-54 -57q-43 -39 -47 -84h-107q10 66 54 112t45 68z
M889 463l-137 784l-418 -784h555zM907 319h-639l-168 -319h-190l792 1462h162l277 -1462h-178z" />
    <glyph glyph-name="uni1EB3" unicode="&#x1eb3;" horiz-adv-x="1075" 
d="M522 1384q0 -49 6 -69q16 -70 142 -70q84 0 128 32t64 107h115q-29 -141 -99 -198t-216 -58q-252 0 -252 175q0 15 6 81h106zM731 1540q0 33 -42 33t-97 -23l-14 80q68 25 133 25q141 0 141 -105q0 -29 -12 -49t-54 -57t-47 -84h-106q8 61 53 109t45 71zM502 481
q-164 0 -228 -63t-63 -185q0 -67 49 -95t166 -27q164 0 227 69q35 39 52 139l30 162h-233zM778 762q0 152 -192 151q-156 0 -264 -104l-99 84q147 156 377 156q166 0 254 -67t88 -191q0 -53 -20 -162l-111 -629h-129l-8 49q-92 -67 -276 -67t-266 54q-81 54 -81 175
q0 188 92 291q94 102 342 102h271l12 72q10 51 10 86z" />
    <glyph glyph-name="uni1EB4" unicode="&#x1eb4;" horiz-adv-x="1228" 
d="M657 1767q0 -102 150 -102q82 0 125 30t65 101h109q-27 -106 -59 -149q-72 -92 -252 -93q-244 0 -244 170q0 23 6 72h102q-2 -14 -2 -29zM967 1954q45 0 84 102h94q-43 -117 -82 -160t-107 -43t-118 62q-33 37 -45 46t-29 9q-53 0 -98 -102h-95q45 114 91 158t112 44
q68 0 112 -48q44 -50 55 -59t26 -9zM889 463l-137 784l-418 -784h555zM907 319h-639l-168 -319h-190l792 1462h162l277 -1462h-178z" />
    <glyph glyph-name="uni1EB5" unicode="&#x1eb5;" horiz-adv-x="1075" 
d="M506 1343q0 -102 149 -102q82 0 125 30t66 101h108q-27 -106 -59 -149q-76 -92 -252 -93q-244 0 -244 170q1 23 7 72h102q-2 -14 -2 -29zM623 1647q67 -1 109 -49t54 -58t29 -10q45 0 84 102h94q-43 -119 -82 -162t-107 -43t-118 62q-33 37 -45 46t-29 9q-53 0 -98 -102
h-94q47 115 91 160t112 45zM502 481q-164 0 -228 -63t-63 -185q0 -67 49 -95t166 -27q164 0 227 69q35 39 52 139l30 162h-233zM778 762q0 152 -192 151q-156 0 -264 -104l-99 84q147 156 377 156q166 0 254 -67t88 -191q0 -53 -20 -162l-111 -629h-129l-8 49
q-92 -67 -276 -67t-266 54q-81 54 -81 175q0 188 92 291q94 102 342 102h271l12 72q10 51 10 86z" />
    <glyph glyph-name="uni1EB6" unicode="&#x1eb6;" horiz-adv-x="1228" 
d="M373 -395l39 213h157l-37 -213h-159zM666 1847q0 -115 151 -114q88 -1 131 33t70 124h112q-26 -158 -98 -221t-219 -63q-262 0 -262 202q0 31 8 82h111q-4 -25 -4 -43zM889 463l-137 784l-418 -784h555zM907 319h-639l-168 -319h-190l792 1462h162l277 -1462h-178z" />
    <glyph glyph-name="uni1EB7" unicode="&#x1eb7;" horiz-adv-x="1075" 
d="M297 -395l37 213h160l-37 -213h-160zM516 1421q0 -115 152 -114q88 -1 130 33t68 124h113q-29 -158 -99 -220t-218 -62q-260 0 -261 200q1 31 9 82h108q-2 -29 -2 -43zM502 481q-164 0 -228 -63t-63 -185q0 -67 49 -95t166 -27q164 0 227 69q35 39 52 139l30 162h-233z
M778 762q0 152 -192 151q-156 0 -264 -104l-99 84q147 156 377 156q166 0 254 -67t88 -191q0 -53 -20 -162l-111 -629h-129l-8 49q-92 -67 -276 -67t-266 54q-81 54 -81 175q0 188 92 291q94 102 342 102h271l12 72q10 51 10 86z" />
    <glyph glyph-name="uni1EB8" unicode="&#x1eb8;" horiz-adv-x="1185" 
d="M455 -395l37 213h159l-39 -213h-157zM125 0l258 1462h854l-25 -143h-686l-90 -508h584l-25 -143h-583l-93 -525h687l-25 -143h-856z" />
    <glyph glyph-name="uni1EB9" unicode="&#x1eb9;" horiz-adv-x="1112" 
d="M344 -395l37 213h160l-39 -213h-158zM854 707q0 217 -213 217q-125 0 -209 -82t-106 -238h518q10 43 10 103zM289 342q0 -227 246 -227q152 0 245 100l107 -88q-70 -78 -155 -112t-212 -33q-393 0 -393 340q0 70 16 172l17 88q40 244 154 356t321 111q371 0 371 -340
q0 -104 -27 -228h-674l-8 -45q-8 -43 -8 -94z" />
    <glyph glyph-name="uni1EBA" unicode="&#x1eba;" horiz-adv-x="1185" 
d="M901 1831q0 39 -46 39t-112 -27l-14 94q80 31 148 31q164 0 163 -133q0 -37 -15 -63t-57 -67q-42 -39 -49 -55q-8 -16 -16 -55h-119q12 68 25 92q12 25 52 71t40 73zM125 0l258 1462h854l-25 -143h-686l-90 -508h584l-25 -143h-583l-93 -525h687l-25 -143h-856z" />
    <glyph glyph-name="uni1EBB" unicode="&#x1ebb;" horiz-adv-x="1112" 
d="M695 1452q-48 0 -109 -27l-15 97q84 29 148 28q164 0 164 -131q1 -39 -15 -65t-57 -66q-41 -39 -49 -55t-17 -55h-118q12 68 23 90q10 22 52 70q42 49 41 75q0 39 -48 39zM854 707q0 217 -213 217q-125 0 -209 -82t-106 -238h518q10 43 10 103zM289 342q0 -227 246 -227
q152 0 245 100l107 -88q-70 -78 -155 -112t-212 -33q-393 0 -393 340q0 70 16 172l17 88q40 244 154 356t321 111q371 0 371 -340q0 -104 -27 -228h-674l-8 -45q-8 -43 -8 -94z" />
    <glyph glyph-name="uni1EBC" unicode="&#x1ebc;" horiz-adv-x="1185" 
d="M698 1880q78 0 145 -64t101 -65q34 0 56 26q24 26 51 87h104q-53 -134 -98 -184t-124 -50t-145 66t-102 65q-62 1 -111 -114h-104q55 137 102 185t125 48zM125 0l258 1462h854l-25 -143h-686l-90 -508h584l-25 -143h-583l-93 -525h687l-25 -143h-856z" />
    <glyph glyph-name="uni1EBD" unicode="&#x1ebd;" horiz-adv-x="1112" 
d="M587 1456q77 0 143 -66t100 -65q34 0 58 26t50 89h104q-51 -136 -96 -186t-126 -50t-145 66t-102 65q-61 1 -110 -114h-105q52 135 102 185t127 50zM854 707q0 217 -213 217q-125 0 -209 -82t-106 -238h518q10 43 10 103zM289 342q0 -227 246 -227q152 0 245 100l107 -88
q-70 -78 -155 -112t-212 -33q-393 0 -393 340q0 70 16 172l17 88q40 244 154 356t321 111q371 0 371 -340q0 -104 -27 -228h-674l-8 -45q-8 -43 -8 -94z" />
    <glyph glyph-name="uni1EBE" unicode="&#x1ebe;" horiz-adv-x="1185" 
d="M831 1677l-157 -116h-172l293 219h100l213 -219h-158zM778 1835l158 231h154l-213 -231h-99zM125 0l258 1462h854l-25 -143h-686l-90 -508h584l-25 -143h-583l-93 -525h687l-25 -143h-856z" />
    <glyph glyph-name="uni1EBF" unicode="&#x1ebf;" horiz-adv-x="1112" 
d="M694 1253l-157 -116h-172l290 219h101l215 -219h-160zM641 1409l156 233h155l-215 -233h-96zM854 707q0 217 -213 217q-125 0 -209 -82t-106 -238h518q10 43 10 103zM289 342q0 -227 246 -227q152 0 245 100l107 -88q-70 -78 -155 -112t-212 -33q-393 0 -393 340
q0 70 16 172l17 88q40 244 154 356t321 111q371 0 371 -340q0 -104 -27 -228h-674l-8 -45q-8 -43 -8 -94z" />
    <glyph glyph-name="uni1EC0" unicode="&#x1ec0;" horiz-adv-x="1185" 
d="M834 1677l-158 -116h-172l293 219h98l215 -219h-160zM922 1835h-91l-139 231h142zM125 0l258 1462h854l-25 -143h-686l-90 -508h584l-25 -143h-583l-93 -525h687l-25 -143h-856z" />
    <glyph glyph-name="uni1EC1" unicode="&#x1ec1;" horiz-adv-x="1112" 
d="M694 1253l-157 -116h-172l290 219h101l215 -219h-160zM782 1409h-90l-141 233h141zM854 707q0 217 -213 217q-125 0 -209 -82t-106 -238h518q10 43 10 103zM289 342q0 -227 246 -227q152 0 245 100l107 -88q-70 -78 -155 -112t-212 -33q-393 0 -393 340q0 70 16 172
l17 88q40 244 154 356t321 111q371 0 371 -340q0 -104 -27 -228h-674l-8 -45q-8 -43 -8 -94z" />
    <glyph glyph-name="uni1EC2" unicode="&#x1ec2;" horiz-adv-x="1185" 
d="M827 1673l-157 -112h-172l290 208h101l217 -208h-160zM887 1964q0 33 -42 33t-95 -23l-15 80q72 25 135 25q139 0 140 -101q0 -49 -52 -93t-57 -85h-106q4 41 16 63q12 23 44 53t32 48zM125 0l258 1462h854l-25 -143h-686l-90 -508h584l-25 -143h-583l-93 -525h687
l-25 -143h-856z" />
    <glyph glyph-name="uni1EC3" unicode="&#x1ec3;" horiz-adv-x="1112" 
d="M688 1249l-158 -112h-172l291 209h101l215 -209h-158zM748 1540q0 33 -42 33t-96 -23l-14 80q72 25 135 25q139 0 139 -101q0 -47 -51 -92t-57 -86h-107q4 41 17 63q12 22 51 60q25 20 25 41zM854 707q0 217 -213 217q-125 0 -209 -82t-106 -238h518q10 43 10 103z
M289 342q0 -227 246 -227q152 0 245 100l107 -88q-70 -78 -155 -112t-212 -33q-393 0 -393 340q0 70 16 172l17 88q40 244 154 356t321 111q371 0 371 -340q0 -104 -27 -228h-674l-8 -45q-8 -43 -8 -94z" />
    <glyph glyph-name="uni1EC4" unicode="&#x1ec4;" horiz-adv-x="1185" 
d="M842 1677l-158 -116h-172l293 219h98l215 -219h-157zM788 2062q68 0 111 -48t55 -58t27 -10q49 0 84 102h94q-43 -119 -82 -161t-105 -42t-120 62q-33 37 -44 46t-28 9q-55 0 -98 -102h-96q49 118 92 160q42 42 110 42zM125 0l258 1462h854l-25 -143h-686l-90 -508h584
l-25 -143h-583l-93 -525h687l-25 -143h-856z" />
    <glyph glyph-name="uni1EC5" unicode="&#x1ec5;" horiz-adv-x="1112" 
d="M702 1253l-157 -116h-172l291 219h100l215 -219h-158zM650 1638q68 0 118 -57q35 -41 46 -50t32 -9t39 22t41 80h94q-43 -119 -81 -161q-39 -42 -107 -42t-119 62q-33 37 -45 46t-29 9q-51 0 -98 -102h-95q48 114 92 158t112 44zM854 707q0 217 -213 217q-125 0 -209 -82
t-106 -238h518q10 43 10 103zM289 342q0 -227 246 -227q152 0 245 100l107 -88q-70 -78 -155 -112t-212 -33q-393 0 -393 340q0 70 16 172l17 88q40 244 154 356t321 111q371 0 371 -340q0 -104 -27 -228h-674l-8 -45q-8 -43 -8 -94z" />
    <glyph glyph-name="uni1EC6" unicode="&#x1ec6;" horiz-adv-x="1185" 
d="M440 -395l39 213h158l-37 -213h-160zM860 1790l-170 -164h-180l307 272h107l211 -272h-162zM125 0l258 1462h854l-25 -143h-686l-90 -508h584l-25 -143h-583l-93 -525h687l-25 -143h-856z" />
    <glyph glyph-name="uni1EC7" unicode="&#x1ec7;" horiz-adv-x="1112" 
d="M330 -395l37 213h159l-37 -213h-159zM719 1366l-168 -166h-180l307 275h106l211 -275h-164zM854 707q0 217 -213 217q-125 0 -209 -82t-106 -238h518q10 43 10 103zM289 342q0 -227 246 -227q152 0 245 100l107 -88q-70 -78 -155 -112t-212 -33q-393 0 -393 340
q0 70 16 172l17 88q40 244 154 356t321 111q371 0 371 -340q0 -104 -27 -228h-674l-8 -45q-8 -43 -8 -94z" />
    <glyph glyph-name="uni1EC8" unicode="&#x1ec8;" horiz-adv-x="595" 
d="M557 1831q0 39 -46 39t-112 -27l-12 94q80 31 145 31q164 0 164 -133q0 -37 -15 -63t-55 -66q-40 -38 -49 -54q-8 -16 -16 -57h-121q14 68 26 91q11 22 51 70t40 75zM123 0l258 1462h170l-258 -1462h-170z" />
    <glyph glyph-name="uni1EC9" unicode="&#x1ec9;" horiz-adv-x="522" 
d="M396 1452q-48 0 -109 -27l-13 97q84 29 146 28q164 0 164 -131q0 -39 -16 -65t-66 -74q-29 -31 -37 -46t-16 -56h-121q14 68 25 90t51 71q40 48 40 74q0 39 -48 39zM88 0l182 1028h162l-182 -1028h-162z" />
    <glyph glyph-name="uni1ECA" unicode="&#x1eca;" horiz-adv-x="595" 
d="M57 -395l37 213h160l-37 -213h-160zM123 0l258 1462h170l-258 -1462h-170z" />
    <glyph glyph-name="uni1ECB" unicode="&#x1ecb;" horiz-adv-x="522" 
d="M20 -395l37 213h160l-37 -213h-160zM90 0l182 1028h162l-182 -1028h-162zM311 1251l37 217h164l-39 -217h-162z" />
    <glyph glyph-name="uni1ECC" unicode="&#x1ecc;" horiz-adv-x="1384" 
d="M451 -395l38 213h158l-37 -213h-159zM1122 1065q0 131 -75 202q-76 71 -220 70q-186 0 -295 -135q-82 -102 -116 -307l-58 -328q-18 -96 -18 -172q0 -129 76 -199t215 -71q190 0 299 135q82 108 117 307l57 328q18 104 18 170zM636 -18q-240 0 -354 107t-114 284
q0 73 20 200l64 361q29 156 67 244q39 88 115 157q152 145 386 145t355 -102q120 -102 119 -291q0 -76 -22 -198l-64 -361q-28 -156 -66 -244t-114 -157q-152 -145 -392 -145z" />
    <glyph glyph-name="uni1ECD" unicode="&#x1ecd;" horiz-adv-x="1140" 
d="M330 -395l37 213h159l-39 -213h-157zM856 705q0 209 -225 208q-131 1 -206 -79t-103 -250l-25 -140q-12 -72 -12 -116q0 -211 225 -211q132 1 206 79t103 248l25 140q12 61 12 121zM1020 729q0 -76 -14 -158l-29 -159q-41 -226 -154 -328t-319 -102q-383 0 -383 321
q0 70 14 154l29 159q41 225 153 329q113 103 320 104q383 0 383 -320z" />
    <glyph glyph-name="uni1ECE" unicode="&#x1ece;" horiz-adv-x="1384" 
d="M906 1870q-46 0 -111 -27l-15 94q80 31 148 31q164 0 164 -133q0 -37 -16 -63t-56 -66q-42 -38 -50 -54t-16 -57h-118q12 68 23 92t63 80q31 37 30 64q0 39 -46 39zM1122 1065q0 131 -75 202q-76 71 -220 70q-186 0 -295 -135q-82 -102 -116 -307l-58 -328
q-18 -96 -18 -172q0 -129 76 -199t215 -71q190 0 299 135q82 108 117 307l57 328q18 104 18 170zM636 -18q-240 0 -354 107t-114 284q0 73 20 200l64 361q29 156 67 244q39 88 115 157q152 145 386 145t355 -102q120 -102 119 -291q0 -76 -22 -198l-64 -361
q-28 -156 -66 -244t-114 -157q-152 -145 -392 -145z" />
    <glyph glyph-name="uni1ECF" unicode="&#x1ecf;" horiz-adv-x="1140" 
d="M756 1413q0 39 -48 39t-110 -27l-14 97q84 29 147 28q164 0 164 -131q0 -39 -15 -65q-16 -26 -56 -65q-40 -38 -49 -55t-17 -56h-119q11 68 23 90t53 70q41 49 41 75zM856 705q0 209 -225 208q-131 1 -206 -79t-103 -250l-25 -140q-12 -72 -12 -116q0 -211 225 -211
q132 1 206 79t103 248l25 140q12 61 12 121zM1020 729q0 -76 -14 -158l-29 -159q-41 -226 -154 -328t-319 -102q-383 0 -383 321q0 70 14 154l29 159q41 225 153 329q113 103 320 104q383 0 383 -320z" />
    <glyph glyph-name="uni1ED0" unicode="&#x1ed0;" horiz-adv-x="1384" 
d="M903 1677l-158 -116h-172l293 219h99l215 -219h-158zM850 1835l158 231h153l-213 -231h-98zM1122 1065q0 131 -75 202q-76 71 -220 70q-186 0 -295 -135q-82 -102 -116 -307l-58 -328q-18 -96 -18 -172q0 -129 76 -199t215 -71q190 0 299 135q82 108 117 307l57 328
q18 104 18 170zM636 -18q-240 0 -354 107t-114 284q0 73 20 200l64 361q29 156 67 244q39 88 115 157q152 145 386 145t355 -102q120 -102 119 -291q0 -76 -22 -198l-64 -361q-28 -156 -66 -244t-114 -157q-152 -145 -392 -145z" />
    <glyph glyph-name="uni1ED1" unicode="&#x1ed1;" horiz-adv-x="1140" 
d="M707 1253l-158 -116h-172l293 219h98l215 -219h-158zM653 1409l156 233h156l-213 -233h-99zM856 705q0 209 -225 208q-131 1 -206 -79t-103 -250l-25 -140q-12 -72 -12 -116q0 -211 225 -211q132 1 206 79t103 248l25 140q12 61 12 121zM1020 729q0 -76 -14 -158
l-29 -159q-41 -226 -154 -328t-319 -102q-383 0 -383 321q0 70 14 154l29 159q41 225 153 329q113 103 320 104q383 0 383 -320z" />
    <glyph glyph-name="uni1ED2" unicode="&#x1ed2;" horiz-adv-x="1384" 
d="M903 1677l-158 -116h-172l293 219h101l213 -219h-158zM991 1835h-90l-139 231h141zM1122 1065q0 131 -75 202q-76 71 -220 70q-186 0 -295 -135q-82 -102 -116 -307l-58 -328q-18 -96 -18 -172q0 -129 76 -199t215 -71q190 0 299 135q82 108 117 307l57 328
q18 104 18 170zM636 -18q-240 0 -354 107t-114 284q0 73 20 200l64 361q29 156 67 244q39 88 115 157q152 145 386 145t355 -102q120 -102 119 -291q0 -76 -22 -198l-64 -361q-28 -156 -66 -244t-114 -157q-152 -145 -392 -145z" />
    <glyph glyph-name="uni1ED3" unicode="&#x1ed3;" horiz-adv-x="1140" 
d="M707 1253l-158 -116h-172l293 219h100l213 -219h-158zM795 1409h-90l-140 233h142zM856 705q0 209 -225 208q-131 1 -206 -79t-103 -250l-25 -140q-12 -72 -12 -116q0 -211 225 -211q132 1 206 79t103 248l25 140q12 61 12 121zM1020 729q0 -76 -14 -158l-29 -159
q-41 -226 -154 -328t-319 -102q-383 0 -383 321q0 70 14 154l29 159q41 225 153 329q113 103 320 104q383 0 383 -320z" />
    <glyph glyph-name="uni1ED4" unicode="&#x1ed4;" horiz-adv-x="1384" 
d="M897 1673l-158 -112h-172l291 208h100l218 -208h-160zM915 1997q-43 0 -96 -23l-14 80q72 25 137 25q139 0 139 -101q0 -47 -52 -92t-58 -86h-107q6 41 20 64q13 22 44 52t30 48q0 33 -43 33zM1122 1065q0 131 -75 202q-76 71 -220 70q-186 0 -295 -135
q-82 -102 -116 -307l-58 -328q-18 -96 -18 -172q0 -129 76 -199t215 -71q190 0 299 135q82 108 117 307l57 328q18 104 18 170zM636 -18q-240 0 -354 107t-114 284q0 73 20 200l64 361q29 156 67 244q39 88 115 157q152 145 386 145t355 -102q120 -102 119 -291
q0 -76 -22 -198l-64 -361q-28 -156 -66 -244t-114 -157q-152 -145 -392 -145z" />
    <glyph glyph-name="uni1ED5" unicode="&#x1ed5;" horiz-adv-x="1140" 
d="M700 1249l-157 -112h-172l291 209h100l217 -209h-160zM762 1540q0 33 -41 33t-98 -23l-15 80q72 25 137 25q139 0 140 -101q-1 -47 -53 -92t-58 -86h-106q6 41 19 64t50 59q25 20 25 41zM856 705q0 209 -225 208q-131 1 -206 -79t-103 -250l-25 -140q-12 -72 -12 -116
q0 -211 225 -211q132 1 206 79t103 248l25 140q12 61 12 121zM1020 729q0 -76 -14 -158l-29 -159q-41 -226 -154 -328t-319 -102q-383 0 -383 321q0 70 14 154l29 159q41 225 153 329q113 103 320 104q383 0 383 -320z" />
    <glyph glyph-name="uni1ED6" unicode="&#x1ed6;" horiz-adv-x="1384" 
d="M911 1677l-157 -116h-172l292 219h101l213 -219h-158zM858 2062q68 0 111 -48t55 -58t27 -10q49 0 84 102h96q-45 -119 -84 -161t-106 -42t-119 62q-33 37 -44 46t-28 9q-55 0 -98 -102h-95q47 118 91 160q42 42 110 42zM1122 1065q0 131 -75 202q-76 71 -220 70
q-186 0 -295 -135q-82 -102 -116 -307l-58 -328q-18 -96 -18 -172q0 -129 76 -199t215 -71q190 0 299 135q82 108 117 307l57 328q18 104 18 170zM636 -18q-240 0 -354 107t-114 284q0 73 20 200l64 361q29 156 67 244q39 88 115 157q152 145 386 145t355 -102
q120 -102 119 -291q0 -76 -22 -198l-64 -361q-28 -156 -66 -244t-114 -157q-152 -145 -392 -145z" />
    <glyph glyph-name="uni1ED7" unicode="&#x1ed7;" horiz-adv-x="1140" 
d="M715 1253l-158 -116h-172l293 219h100l213 -219h-157zM663 1638q69 0 117 -57q37 -41 48 -50t26 -9q47 0 84 102h96q-45 -119 -84 -161q-40 -42 -106 -42t-119 62q-33 37 -44 46t-28 9q-55 0 -98 -102h-94q45 114 89 158t113 44zM856 705q0 209 -225 208q-131 1 -206 -79
t-103 -250l-25 -140q-12 -72 -12 -116q0 -211 225 -211q132 1 206 79t103 248l25 140q12 61 12 121zM1020 729q0 -76 -14 -158l-29 -159q-41 -226 -154 -328t-319 -102q-383 0 -383 321q0 70 14 154l29 159q41 225 153 329q113 103 320 104q383 0 383 -320z" />
    <glyph glyph-name="uni1ED8" unicode="&#x1ed8;" horiz-adv-x="1384" 
d="M451 -395l38 213h158l-37 -213h-159zM924 1790l-168 -164h-181l308 272h106l211 -272h-164zM1122 1065q0 131 -75 202q-76 71 -220 70q-186 0 -295 -135q-82 -102 -116 -307l-58 -328q-18 -96 -18 -172q0 -129 76 -199t215 -71q190 0 299 135q82 108 117 307l57 328
q18 104 18 170zM636 -18q-240 0 -354 107t-114 284q0 73 20 200l64 361q29 156 67 244q39 88 115 157q152 145 386 145t355 -102q120 -102 119 -291q0 -76 -22 -198l-64 -361q-28 -156 -66 -244t-114 -157q-152 -145 -392 -145z" />
    <glyph glyph-name="uni1ED9" unicode="&#x1ed9;" horiz-adv-x="1140" 
d="M330 -395l37 213h159l-39 -213h-157zM727 1366l-168 -166h-180l307 275h107l211 -275h-164zM856 705q0 209 -225 208q-131 1 -206 -79t-103 -250l-25 -140q-12 -72 -12 -116q0 -211 225 -211q132 1 206 79t103 248l25 140q12 61 12 121zM1020 729q0 -76 -14 -158
l-29 -159q-41 -226 -154 -328t-319 -102q-383 0 -383 321q0 70 14 154l29 159q41 225 153 329q113 103 320 104q383 0 383 -320z" />
    <glyph glyph-name="uni1EDA" unicode="&#x1eda;" horiz-adv-x="1435" 
d="M834 1616l204 291h197l-279 -291h-122zM1122 1065q0 133 -75 204q-76 71 -220 70q-188 0 -295 -137q-44 -57 -70 -124t-46 -183l-58 -328q-18 -88 -18 -172q0 -129 76 -199t215 -71q190 0 299 135q78 102 117 307l57 328q18 109 18 170zM1290 1032q0 -47 -18 -143
l-64 -361q-26 -154 -66 -242t-114 -159q-152 -145 -392 -145t-354 107t-114 284q0 72 20 200l64 361q29 156 67 245q39 89 113 158q154 145 406 146q383 0 446 -297q98 59 125 88q61 61 61 145q0 27 -10 64h146l4 -49q0 -145 -129 -240q-66 -47 -191 -111v-51z" />
    <glyph glyph-name="uni1EDB" unicode="&#x1edb;" horiz-adv-x="1193" 
d="M633 1192l205 291h196l-278 -291h-123zM856 705q0 209 -225 208q-131 -1 -205 -79t-104 -250l-25 -140q-12 -68 -12 -116q0 -211 223 -211q134 1 208 79t103 248l25 140q12 59 12 121zM1313 997q0 -102 -71 -184t-226 -156q-8 -78 -10 -86l-29 -159q-41 -226 -154 -328
t-319 -102q-383 0 -383 321q0 74 16 154l27 159q41 225 154 329q114 103 319 104q352 0 383 -281q68 41 94 72q59 66 60 147q-1 25 -11 62h146q4 -49 4 -52z" />
    <glyph glyph-name="uni1EDC" unicode="&#x1edc;" horiz-adv-x="1435" 
d="M1032 1616h-119l-178 291h187zM1122 1065q0 133 -75 204q-76 71 -220 70q-188 0 -295 -137q-44 -57 -70 -124t-46 -183l-58 -328q-18 -88 -18 -172q0 -129 76 -199t215 -71q190 0 299 135q78 102 117 307l57 328q18 109 18 170zM1290 1032q0 -47 -18 -143l-64 -361
q-26 -154 -66 -242t-114 -159q-152 -145 -392 -145t-354 107t-114 284q0 72 20 200l64 361q29 156 67 245q39 89 113 158q154 145 406 146q383 0 446 -297q98 59 125 88q61 61 61 145q0 27 -10 64h146l4 -49q0 -145 -129 -240q-66 -47 -191 -111v-51z" />
    <glyph glyph-name="uni1EDD" unicode="&#x1edd;" horiz-adv-x="1193" 
d="M872 1192h-118l-179 291h187zM856 705q0 209 -225 208q-131 -1 -205 -79t-104 -250l-25 -140q-12 -68 -12 -116q0 -211 223 -211q134 1 208 79t103 248l25 140q12 59 12 121zM1313 997q0 -102 -71 -184t-226 -156q-8 -78 -10 -86l-29 -159q-41 -226 -154 -328t-319 -102
q-383 0 -383 321q0 74 16 154l27 159q41 225 154 329q114 103 319 104q352 0 383 -281q68 41 94 72q59 66 60 147q-1 25 -11 62h146q4 -49 4 -52z" />
    <glyph glyph-name="uni1EDE" unicode="&#x1ede;" horiz-adv-x="1435" 
d="M963 1831q-1 39 -47 39t-111 -27l-14 94q80 31 147 31q164 0 164 -133q0 -37 -16 -63t-56 -66q-41 -38 -49 -54t-16 -57h-119q12 67 23 89t53 71t41 76zM1122 1065q0 133 -75 204q-76 71 -220 70q-188 0 -295 -137q-44 -57 -70 -124t-46 -183l-58 -328q-18 -88 -18 -172
q0 -129 76 -199t215 -71q190 0 299 135q78 102 117 307l57 328q18 109 18 170zM1290 1032q0 -47 -18 -143l-64 -361q-26 -154 -66 -242t-114 -159q-152 -145 -392 -145t-354 107t-114 284q0 72 20 200l64 361q29 156 67 245q39 89 113 158q154 145 406 146q383 0 446 -297
q98 59 125 88q61 61 61 145q0 27 -10 64h146l4 -49q0 -145 -129 -240q-66 -47 -191 -111v-51z" />
    <glyph glyph-name="uni1EDF" unicode="&#x1edf;" horiz-adv-x="1193" 
d="M770 1413q0 39 -48 39t-110 -27l-14 97q84 29 147 28q164 0 164 -131q0 -39 -15 -65q-16 -26 -56 -65q-40 -38 -49 -55t-17 -56h-119q11 68 23 90t53 70q41 49 41 75zM856 705q0 209 -225 208q-131 -1 -205 -79t-104 -250l-25 -140q-12 -68 -12 -116q0 -211 223 -211
q134 1 208 79t103 248l25 140q12 59 12 121zM1313 997q0 -102 -71 -184t-226 -156q-8 -78 -10 -86l-29 -159q-41 -226 -154 -328t-319 -102q-383 0 -383 321q0 74 16 154l27 159q41 225 154 329q114 103 319 104q352 0 383 -281q68 41 94 72q59 66 60 147q-1 25 -11 62h146
q4 -49 4 -52z" />
    <glyph glyph-name="uni1EE0" unicode="&#x1ee0;" horiz-adv-x="1435" 
d="M841 1880q77 0 146 -63q66 -66 103 -66q57 0 104 113h106q-53 -134 -98 -184t-125 -50t-147 70q-63 61 -99 61q-61 1 -110 -114h-105q52 135 100 184t125 49zM1122 1065q0 133 -75 204q-76 71 -220 70q-188 0 -295 -137q-44 -57 -70 -124t-46 -183l-58 -328
q-18 -88 -18 -172q0 -129 76 -199t215 -71q190 0 299 135q78 102 117 307l57 328q18 109 18 170zM1290 1032q0 -47 -18 -143l-64 -361q-26 -154 -66 -242t-114 -159q-152 -145 -392 -145t-354 107t-114 284q0 72 20 200l64 361q29 156 67 245q39 89 113 158q154 145 406 146
q383 0 446 -297q98 59 125 88q61 61 61 145q0 27 -10 64h146l4 -49q0 -145 -129 -240q-66 -47 -191 -111v-51z" />
    <glyph glyph-name="uni1EE1" unicode="&#x1ee1;" horiz-adv-x="1193" 
d="M602 1456q78 0 143 -65q41 -41 61 -53t42 -13q57 0 104 115h107q-53 -140 -98 -188t-127 -48t-146 70q-63 61 -98 61q-62 1 -111 -114h-104q53 135 101 185t126 50zM856 705q0 209 -225 208q-131 -1 -205 -79t-104 -250l-25 -140q-12 -68 -12 -116q0 -211 223 -211
q134 1 208 79t103 248l25 140q12 59 12 121zM1313 997q0 -102 -71 -184t-226 -156q-8 -78 -10 -86l-29 -159q-41 -226 -154 -328t-319 -102q-383 0 -383 321q0 74 16 154l27 159q41 225 154 329q114 103 319 104q352 0 383 -281q68 41 94 72q59 66 60 147q-1 25 -11 62h146
q4 -49 4 -52z" />
    <glyph glyph-name="uni1EE2" unicode="&#x1ee2;" horiz-adv-x="1435" 
d="M465 -395l37 213h160l-37 -213h-160zM1122 1065q0 133 -75 204q-76 71 -220 70q-188 0 -295 -137q-44 -57 -70 -124t-46 -183l-58 -328q-18 -88 -18 -172q0 -129 76 -199t215 -71q190 0 299 135q78 102 117 307l57 328q18 109 18 170zM1290 1032q0 -47 -18 -143l-64 -361
q-26 -154 -66 -242t-114 -159q-152 -145 -392 -145t-354 107t-114 284q0 72 20 200l64 361q29 156 67 245q39 89 113 158q154 145 406 146q383 0 446 -297q98 59 125 88q61 61 61 145q0 27 -10 64h146l4 -49q0 -145 -129 -240q-66 -47 -191 -111v-51z" />
    <glyph glyph-name="uni1EE3" unicode="&#x1ee3;" horiz-adv-x="1193" 
d="M346 -395l37 213h160l-37 -213h-160zM856 705q0 209 -225 208q-131 -1 -205 -79t-104 -250l-25 -140q-12 -68 -12 -116q0 -211 223 -211q134 1 208 79t103 248l25 140q12 59 12 121zM1313 997q0 -102 -71 -184t-226 -156q-8 -78 -10 -86l-29 -159q-41 -226 -154 -328
t-319 -102q-383 0 -383 321q0 74 16 154l27 159q41 225 154 329q114 103 319 104q352 0 383 -281q68 41 94 72q59 66 60 147q-1 25 -11 62h146q4 -49 4 -52z" />
    <glyph glyph-name="uni1EE4" unicode="&#x1ee4;" horiz-adv-x="1413" 
d="M465 -395l37 213h160l-37 -213h-160zM365 352q0 -76 49 -143q70 -84 231 -84q205 0 309 149q53 76 88 263l164 925h170l-170 -954q-26 -154 -56 -228t-91 -139q-152 -160 -418 -159q-137 0 -223 30t-146 99q-80 92 -79 229q0 74 26 227l158 895h170l-164 -925
q-18 -109 -18 -185z" />
    <glyph glyph-name="uni1EE5" unicode="&#x1ee5;" horiz-adv-x="1136" 
d="M328 -395l37 213h159l-37 -213h-159zM750 0v113q-102 -131 -299 -131q-147 0 -229 71q-81 72 -81 203q0 90 23 215l98 557h164l-100 -563q-16 -98 -17 -148q0 -193 180 -192q127 0 197 88t105 293l92 522h164l-183 -1028h-114z" />
    <glyph glyph-name="uni1EE6" unicode="&#x1ee6;" horiz-adv-x="1413" 
d="M967 1831q-1 39 -47 39t-111 -27l-14 94q80 31 147 31q164 0 164 -133q0 -37 -15 -63t-57 -66q-42 -38 -49 -54q-8 -16 -16 -57h-119q12 67 23 89t53 71t41 76zM365 352q0 -76 49 -143q70 -84 231 -84q205 0 309 149q53 76 88 263l164 925h170l-170 -954
q-26 -154 -56 -228t-91 -139q-152 -160 -418 -159q-137 0 -223 30t-146 99q-80 92 -79 229q0 74 26 227l158 895h170l-164 -925q-18 -109 -18 -185z" />
    <glyph glyph-name="uni1EE7" unicode="&#x1ee7;" horiz-adv-x="1136" 
d="M754 1413q0 39 -48 39t-110 -27l-12 97q84 29 145 28q164 0 164 -131q0 -39 -15 -65q-16 -26 -56 -65q-40 -38 -48 -54t-16 -57h-121q13 68 25 90t52 71q40 48 40 74zM750 0v113q-102 -131 -299 -131q-147 0 -229 71q-81 72 -81 203q0 90 23 215l98 557h164l-100 -563
q-16 -98 -17 -148q0 -193 180 -192q127 0 197 88t105 293l92 522h164l-183 -1028h-114z" />
    <glyph glyph-name="uni1EE8" unicode="&#x1ee8;" horiz-adv-x="1492" 
d="M860 1616l205 291h195l-277 -291h-123zM643 125q203 0 311 149q57 80 88 263l164 925h170l-55 -305q129 59 183 119t55 145q0 29 -11 62h146q4 -25 4 -49q0 -141 -125 -240q-84 -68 -270 -150l-97 -536q-26 -152 -56 -228t-91 -139q-152 -159 -415 -159t-372 129
q-80 92 -79 229q0 74 26 227l158 895h170l-164 -925q-21 -119 -21 -191t50 -137q70 -84 231 -84z" />
    <glyph glyph-name="uni1EE9" unicode="&#x1ee9;" horiz-adv-x="1226" 
d="M635 1192l205 291h196l-278 -291h-123zM1231 987q0 25 -10 62h145q4 -25 4 -48q0 -176 -196 -292q-59 -35 -201 -101l-109 -608h-114v113q-98 -131 -299 -131q-147 0 -229 71q-81 72 -81 201q0 74 23 217l98 557h164l-100 -563q-16 -98 -17 -148q0 -193 180 -192
q127 0 197 88t105 293l92 522h164l-56 -305q104 49 152 86q88 68 88 178z" />
    <glyph glyph-name="uni1EEA" unicode="&#x1eea;" horiz-adv-x="1492" 
d="M1051 1616h-119l-176 291h184zM643 125q203 0 311 149q57 80 88 263l164 925h170l-55 -305q129 59 183 119t55 145q0 29 -11 62h146q4 -25 4 -49q0 -141 -125 -240q-84 -68 -270 -150l-97 -536q-26 -152 -56 -228t-91 -139q-152 -159 -415 -159t-372 129q-80 92 -79 229
q0 74 26 227l158 895h170l-164 -925q-21 -119 -21 -191t50 -137q70 -84 231 -84z" />
    <glyph glyph-name="uni1EEB" unicode="&#x1eeb;" horiz-adv-x="1226" 
d="M786 1192h-118l-179 291h187zM1231 987q0 25 -10 62h145q4 -25 4 -48q0 -176 -196 -292q-59 -35 -201 -101l-109 -608h-114v113q-98 -131 -299 -131q-147 0 -229 71q-81 72 -81 201q0 74 23 217l98 557h164l-100 -563q-16 -98 -17 -148q0 -193 180 -192q127 0 197 88
t105 293l92 522h164l-56 -305q104 49 152 86q88 68 88 178z" />
    <glyph glyph-name="uni1EEC" unicode="&#x1eec;" horiz-adv-x="1492" 
d="M981 1831q0 39 -46 39t-112 -27l-14 94q82 31 147 31q164 0 164 -133q0 -37 -15 -63t-57 -67q-42 -39 -49 -55q-8 -16 -16 -55h-119q12 65 24 89t52 72q41 48 41 75zM643 125q203 0 311 149q57 80 88 263l164 925h170l-55 -305q129 59 183 119t55 145q0 29 -11 62h146
q4 -25 4 -49q0 -141 -125 -240q-84 -68 -270 -150l-97 -536q-26 -152 -56 -228t-91 -139q-152 -159 -415 -159t-372 129q-80 92 -79 229q0 74 26 227l158 895h170l-164 -925q-21 -119 -21 -191t50 -137q70 -84 231 -84z" />
    <glyph glyph-name="uni1EED" unicode="&#x1eed;" horiz-adv-x="1226" 
d="M764 1413q0 39 -48 39t-110 -27l-12 97q84 29 145 28q164 0 164 -131q0 -39 -15 -65t-67 -74q-29 -31 -37 -46t-16 -56h-121q13 68 25 90t52 71q40 48 40 74zM1231 987q0 25 -10 62h145q4 -25 4 -48q0 -176 -196 -292q-59 -35 -201 -101l-109 -608h-114v113
q-98 -131 -299 -131q-147 0 -229 71q-81 72 -81 201q0 74 23 217l98 557h164l-100 -563q-16 -98 -17 -148q0 -193 180 -192q127 0 197 88t105 293l92 522h164l-56 -305q104 49 152 86q88 68 88 178z" />
    <glyph glyph-name="uni1EEE" unicode="&#x1eee;" horiz-adv-x="1492" 
d="M812 1880q77 0 146 -63q66 -66 103 -66q57 0 104 113h107q-53 -134 -98 -184t-124 -50q-80 0 -146 66t-101 65q-62 1 -111 -114h-104q53 135 100 184t124 49zM643 125q203 0 311 149q57 80 88 263l164 925h170l-55 -305q129 59 183 119t55 145q0 29 -11 62h146
q4 -25 4 -49q0 -141 -125 -240q-84 -68 -270 -150l-97 -536q-26 -152 -56 -228t-91 -139q-152 -159 -415 -159t-372 129q-80 92 -79 229q0 74 26 227l158 895h170l-164 -925q-21 -119 -21 -191t50 -137q70 -84 231 -84z" />
    <glyph glyph-name="uni1EEF" unicode="&#x1eef;" horiz-adv-x="1226" 
d="M610 1456q78 0 144 -66t100 -65q34 0 58 26t51 89h104q-51 -136 -96 -186t-126 -50t-145 66t-102 65q-62 1 -111 -114h-104q53 135 101 185t126 50zM1231 987q0 25 -10 62h145q4 -25 4 -48q0 -176 -196 -292q-59 -35 -201 -101l-109 -608h-114v113q-98 -131 -299 -131
q-147 0 -229 71q-81 72 -81 201q0 74 23 217l98 557h164l-100 -563q-16 -98 -17 -148q0 -193 180 -192q127 0 197 88t105 293l92 522h164l-56 -305q104 49 152 86q88 68 88 178z" />
    <glyph glyph-name="uni1EF0" unicode="&#x1ef0;" horiz-adv-x="1492" 
d="M477 -395l37 213h160l-37 -213h-160zM643 125q203 0 311 149q57 80 88 263l164 925h170l-55 -305q129 59 183 119t55 145q0 29 -11 62h146q4 -25 4 -49q0 -141 -125 -240q-84 -68 -270 -150l-97 -536q-26 -152 -56 -228t-91 -139q-152 -159 -415 -159t-372 129
q-80 92 -79 229q0 74 26 227l158 895h170l-164 -925q-21 -119 -21 -191t50 -137q70 -84 231 -84z" />
    <glyph glyph-name="uni1EF1" unicode="&#x1ef1;" horiz-adv-x="1226" 
d="M369 -395l37 213h159l-39 -213h-157zM1231 987q0 25 -10 62h145q4 -25 4 -48q0 -176 -196 -292q-59 -35 -201 -101l-109 -608h-114v113q-98 -131 -299 -131q-147 0 -229 71q-81 72 -81 201q0 74 23 217l98 557h164l-100 -563q-16 -98 -17 -148q0 -193 180 -192
q127 0 197 88t105 293l92 522h164l-56 -305q104 49 152 86q88 68 88 178z" />
    <glyph glyph-name="Ygrave" unicode="&#x1ef2;" horiz-adv-x="1089" 
d="M848 1616h-121l-176 291h186zM371 0l94 528l-297 934h174l231 -760l500 760h187l-625 -934l-94 -528h-170z" />
    <glyph glyph-name="ygrave" unicode="&#x1ef3;" horiz-adv-x="999" 
d="M727 1192h-121l-176 291h186zM334 2l-199 1026h160l151 -844l418 844h170l-616 -1194q-104 -197 -188 -250t-281 -55l24 137q117 0 167 33t114 151z" />
    <glyph glyph-name="uni1EF4" unicode="&#x1ef4;" horiz-adv-x="1089" 
d="M303 -395l37 213h160l-37 -213h-160zM371 0l94 528l-297 934h174l231 -760l500 760h187l-625 -934l-94 -528h-170z" />
    <glyph glyph-name="uni1EF5" unicode="&#x1ef5;" horiz-adv-x="999" 
d="M496 -395l39 213h157l-37 -213h-159zM334 2l-199 1026h160l151 -844l418 844h170l-616 -1194q-104 -197 -188 -250t-281 -55l24 137q117 0 167 33t114 151z" />
    <glyph glyph-name="uni1EF6" unicode="&#x1ef6;" horiz-adv-x="1089" 
d="M791 1831q-1 39 -47 39t-111 -27l-15 94q82 31 148 31q164 0 164 -133q0 -37 -16 -63t-56 -67q-41 -39 -49 -55t-16 -55h-119q12 65 23 89t53 72t41 75zM371 0l94 528l-297 934h174l231 -760l500 760h187l-625 -934l-94 -528h-170z" />
    <glyph glyph-name="uni1EF7" unicode="&#x1ef7;" horiz-adv-x="999" 
d="M664 1413q0 39 -48 39t-110 -27l-12 97q84 29 145 28q164 0 164 -131q1 -39 -15 -65t-56 -65q-40 -38 -48 -54t-16 -57h-121q14 68 25 90q12 22 52 71q40 48 40 74zM334 2l-199 1026h160l151 -844l418 844h170l-616 -1194q-104 -197 -188 -250t-281 -55l24 137
q117 0 167 33t114 151z" />
    <glyph glyph-name="uni1EF8" unicode="&#x1ef8;" horiz-adv-x="1089" 
d="M647 1880q76 0 146 -63q68 -66 102 -66q57 0 104 113h107q-53 -134 -98 -184t-124 -50q-80 0 -146 66t-101 65q-62 1 -111 -114h-104q55 137 102 185t123 48zM371 0l94 528l-297 934h174l231 -760l500 760h187l-625 -934l-94 -528h-170z" />
    <glyph glyph-name="uni1EF9" unicode="&#x1ef9;" horiz-adv-x="999" 
d="M522 1456q78 0 132 -53t72 -65q19 -12 46 -13q55 0 102 115h105q-53 -140 -98 -188t-125 -48t-146 66t-100 65q-62 1 -111 -114h-104q53 135 101 185t126 50zM334 2l-199 1026h160l151 -844l418 844h170l-616 -1194q-104 -197 -188 -250t-281 -55l24 137q117 0 167 33
t114 151z" />
    <glyph glyph-name="uni2002" unicode="&#x2002;" horiz-adv-x="1024" 
 />
    <glyph glyph-name="uni2003" unicode="&#x2003;" horiz-adv-x="2048" 
 />
    <glyph glyph-name="uni2004" unicode="&#x2004;" horiz-adv-x="681" 
 />
    <glyph glyph-name="uni2005" unicode="&#x2005;" horiz-adv-x="512" 
 />
    <glyph glyph-name="uni2006" unicode="&#x2006;" horiz-adv-x="342" 
 />
    <glyph glyph-name="uni2007" unicode="&#x2007;" 
 />
    <glyph glyph-name="uni2008" unicode="&#x2008;" horiz-adv-x="0" 
 />
    <glyph glyph-name="uni2009" unicode="&#x2009;" horiz-adv-x="409" 
 />
    <glyph glyph-name="uni200A" unicode="&#x200a;" horiz-adv-x="256" 
 />
    <glyph glyph-name="uni2011" unicode="&#x2011;" horiz-adv-x="974" 
d="M227 672l25 143h575l-24 -143h-576z" />
    <glyph glyph-name="figuredash" unicode="&#x2012;" 
d="M184 672l25 143h792l-24 -143h-793z" />
    <glyph glyph-name="endash" unicode="&#x2013;" 
d="M184 672l25 143h792l-24 -143h-793z" />
    <glyph glyph-name="emdash" unicode="&#x2014;" 
d="M35 672l24 143h1096l-27 -143h-1093z" />
    <glyph glyph-name="afii00208" unicode="&#x2015;" 
d="M35 672l24 143h1096l-27 -143h-1093z" />
    <glyph glyph-name="underscoredbl" unicode="&#x2017;" horiz-adv-x="962" 
d="M-188 -262l18 98h1065l-18 -98h-1065zM-219 -438l16 98h1065l-16 -98h-1065z" />
    <glyph glyph-name="quoteleft" unicode="&#x2018;" horiz-adv-x="382" 
d="M483 1462l-159 -487h-174l198 487h135z" />
    <glyph glyph-name="quoteright" unicode="&#x2019;" horiz-adv-x="382" 
d="M150 975l159 487h174l-198 -487h-135z" />
    <glyph glyph-name="quotesinglbase" unicode="&#x201a;" horiz-adv-x="382" 
d="M-74 -285l160 488h174l-199 -488h-135z" />
    <glyph glyph-name="quotedblleft" unicode="&#x201c;" horiz-adv-x="753" 
d="M483 1462l-159 -487h-174l198 487h135zM854 1462l-160 -487h-172l197 487h135z" />
    <glyph glyph-name="quotedblright" unicode="&#x201d;" horiz-adv-x="753" 
d="M522 975l160 487h172l-197 -487h-135zM150 975l159 487h174l-198 -487h-135z" />
    <glyph glyph-name="quotedblbase" unicode="&#x201e;" horiz-adv-x="753" 
d="M299 -285l160 488h172l-197 -488h-135zM-74 -285l160 488h174l-199 -488h-135z" />
    <glyph glyph-name="dagger" unicode="&#x2020;" 
d="M535 864h-340l24 144h340l80 454h166l-80 -454h338l-25 -144h-338l-211 -1186h-165z" />
    <glyph glyph-name="daggerdbl" unicode="&#x2021;" 
d="M532 864h-339l24 144h340l80 454h166l-80 -454h340l-27 -144h-338l-57 -319h313l-24 -144h-314l-127 -723h-165l127 723h-314l25 144h313z" />
    <glyph glyph-name="bullet" unicode="&#x2022;" 
d="M554 1083q148 0 249 -98q100 -99 100 -243t-100 -242t-250 -98t-250 98t-100 243t101 243q102 97 250 97z" />
    <glyph glyph-name="ellipsis" unicode="&#x2026;" horiz-adv-x="1732" 
d="M1268 0l37 205h170l-37 -205h-170zM690 0l37 205h170l-37 -205h-170zM113 0l37 205h169l-36 -205h-170z" />
    <glyph glyph-name="perthousand" unicode="&#x2030;" horiz-adv-x="2553" 
d="M508 0l719 1462h153l-716 -1462h-156zM2183 698q-86 0 -134 -53t-69 -174l-24 -149q-12 -63 -12 -89q0 -141 143 -141q86 0 133 54t70 176l22 131q14 84 15 104q0 141 -144 141zM2185 809q283 0 283 -223q0 -53 -12 -119l-33 -182q-14 -88 -37 -135t-64 -89
q-86 -79 -231 -79q-289 1 -289 221q1 31 17 127l30 176q27 156 107 230t229 73zM1579 557q0 141 -141 141q-88 0 -135 -52t-68 -175l-27 -149q-10 -59 -10 -89q0 -141 143 -141q84 0 134 54q49 55 69 176l23 131q12 72 12 104zM1440 809q283 0 282 -223q0 -45 -12 -119
l-33 -182q-14 -88 -36 -135q-79 -169 -304 -168q-137 0 -209 56t-71 165q0 37 16 127l29 176q27 156 102 223q82 80 236 80zM686 1229q0 141 -141 141q-88 0 -134 -53t-69 -176l-27 -150q-10 -51 -10 -88q0 -139 144 -139q84 0 132 54t68 173l25 131q12 78 12 107zM542 1481
q144 -1 216 -59t71 -167q0 -47 -14 -118l-31 -181q-14 -88 -36 -136t-66 -87q-86 -80 -230 -80q-144 1 -216 57t-72 162q0 33 14 129l31 177q29 162 109 232t224 71z" />
    <glyph glyph-name="guilsinglleft" unicode="&#x2039;" horiz-adv-x="509" 
d="M272 592l136 -254l-109 -59l-209 325l324 326l84 -82z" />
    <glyph glyph-name="guilsinglright" unicode="&#x203a;" horiz-adv-x="509" 
d="M272 612l-137 258l111 60l207 -326l-322 -325l-86 81z" />
    <glyph glyph-name="uni203E" unicode="&#x203e;" horiz-adv-x="962" 
d="M152 1661l20 121h1065l-20 -121h-1065z" />
    <glyph glyph-name="fraction" unicode="&#x2044;" horiz-adv-x="329" 
d="M-217 0l717 1462h153l-716 -1462h-154z" />
    <glyph glyph-name="zerosuperior" unicode="&#x2070;" horiz-adv-x="720" 
d="M659 1462q0 46 -30 78q-31 33 -95 33t-104 -53q-41 -53 -63 -172l-43 -238q-10 -68 -10 -114t30 -78q30 -33 94 -33q130 0 168 225l43 238q10 68 10 114zM795 1464q0 -55 -13 -116l-45 -252q-27 -166 -103 -241t-214 -75q-242 0 -242 213q0 41 12 119l46 250
q29 166 104 241q76 75 213 74q242 0 242 -213z" />
    <glyph glyph-name="foursuperior" unicode="&#x2074;" horiz-adv-x="714" 
d="M489 791l31 163h-383l15 84l411 629h144l-396 -602h228l32 186h123l-35 -186h93l-19 -111h-92l-29 -163h-123z" />
    <glyph glyph-name="fivesuperior" unicode="&#x2075;" horiz-adv-x="706" 
d="M727 1149q0 -166 -74 -260q-90 -109 -272 -109q-129 0 -188 56q-49 53 -50 125v16l133 22q0 -51 34 -81t104 -31q70 0 121 63t51 168q0 119 -115 119q-84 0 -152 -55l-96 18l127 467h447l-19 -113h-332l-69 -241q61 27 123 26q109 0 168 -50t59 -140z" />
    <glyph glyph-name="sixsuperior" unicode="&#x2076;" horiz-adv-x="714" 
d="M494 1241q-84 0 -135 -66q-50 -67 -50 -179t115 -111q82 1 132 67t50 174q1 115 -112 115zM543 1341q90 0 143 -51t53 -135q0 -166 -71 -270q-78 -104 -254 -105q-238 0 -238 209q0 109 47 207q16 39 76 115l274 356h158l-262 -336q41 10 74 10z" />
    <glyph glyph-name="sevensuperior" unicode="&#x2077;" horiz-adv-x="524" 
d="M113 791l411 763h-356l18 113h504l-12 -82l-414 -794h-151z" />
    <glyph glyph-name="eightsuperior" unicode="&#x2078;" horiz-adv-x="714" 
d="M481 1198q-88 0 -139 -54t-51 -151q0 -111 131 -110q88 0 138 55t50 149q0 111 -129 111zM551 1581q-78 0 -124 -50t-46 -138q0 -100 115 -101q78 0 122 50t46 139q0 100 -113 100zM256 1382q0 127 68 212t235 85q227 0 227 -176q0 -164 -118 -248q78 -47 77 -143
q0 -332 -331 -334q-254 0 -254 189q-1 218 151 288q-55 49 -55 127z" />
    <glyph glyph-name="ninesuperior" unicode="&#x2079;" horiz-adv-x="714" 
d="M532 1573q-82 -1 -130 -59t-48 -154q0 -111 117 -111q80 1 128 59t48 154q0 111 -115 111zM414 1151q-90 0 -143 47q-52 47 -52 123q1 75 21 147t51 111q76 98 250 98q242 0 241 -182q0 -160 -98 -297l-303 -407h-156l273 368q-49 -8 -84 -8z" />
    <glyph glyph-name="zeroinferior" unicode="&#x2080;" horiz-adv-x="720" 
d="M483 466q0 46 -30 79q-31 33 -95 33t-104 -54q-41 -54 -64 -172l-43 -237q-10 -59 -10 -109t31 -84q30 -33 94 -33q130 0 168 226l43 237q10 68 10 114zM377 682q242 0 241 -213q0 -51 -12 -119l-45 -250q-29 -166 -105 -240t-212 -75q-242 0 -242 213q0 43 12 119
l45 250q29 167 105 241t213 74z" />
    <glyph glyph-name="oneinferior" unicode="&#x2081;" horiz-adv-x="483" 
d="M74 -205l131 744l-162 -60l-27 99l252 94h94l-153 -877h-135z" />
    <glyph glyph-name="twoinferior" unicode="&#x2082;" horiz-adv-x="700" 
d="M465 473q0 105 -116 105t-169 -127l-123 14q41 119 114 171t193 52q240 0 240 -190q0 -104 -61 -201q-43 -63 -178 -195l-201 -194h332l-19 -113h-522l14 90l314 308q182 176 182 280z" />
    <glyph glyph-name="threeinferior" unicode="&#x2083;" horiz-adv-x="700" 
d="M254 307q86 0 142 45q56 44 56 104t-31 89q-32 29 -87 28q-111 0 -158 -98l-119 14q59 195 296 195t237 -186q0 -111 -62 -179q-25 -27 -86 -59q55 -33 78 -70t23 -96q0 -123 -79 -216q-78 -93 -274 -93t-237 111q-10 35 -10 86l131 24q4 -111 139 -110q86 0 140 51
t55 133q0 129 -164 129h-84l16 98h78z" />
    <glyph glyph-name="fourinferior" unicode="&#x2084;" horiz-adv-x="714" 
d="M313 -205l31 164h-383l14 84l412 629h143l-395 -602h227l33 186h123l-35 -186h92l-18 -113h-92l-29 -162h-123z" />
    <glyph glyph-name="fiveinferior" unicode="&#x2085;" horiz-adv-x="706" 
d="M553 154q0 -369 -346 -369q-129 0 -189 55q-49 49 -49 125v17l133 22q0 -53 34 -83t104 -30q70 -1 120 63q51 64 52 167q0 119 -117 119q-82 0 -150 -56l-96 19l127 467h447l-19 -113h-332l-69 -242q61 27 145 27t144 -49t61 -139z" />
    <glyph glyph-name="sixinferior" unicode="&#x2086;" horiz-adv-x="714" 
d="M315 246q-82 0 -132 -67t-50 -179t115 -111q82 0 132 67t50 175q0 115 -115 115zM367 346q90 0 143 -51t53 -130t-20 -156t-54 -120q-76 -104 -251 -104q-115 0 -177 50q-61 50 -61 161t47 205q16 37 76 114l274 357h158l-262 -336q41 10 74 10z" />
    <glyph glyph-name="seveninferior" unicode="&#x2087;" horiz-adv-x="524" 
d="M-59 -205l411 762h-356l18 113h504l-12 -82l-414 -793h-151z" />
    <glyph glyph-name="eightinferior" unicode="&#x2088;" horiz-adv-x="714" 
d="M305 203q-90 1 -140 -55t-50 -152q0 -109 131 -109q88 -1 138 55t50 152q0 109 -129 109zM373 584q-78 0 -123 -50t-45 -137q0 -100 114 -100q76 0 121 50t45 136q1 101 -112 101zM238 -217q-254 0 -254 188q-1 219 151 289q-55 49 -55 127q0 127 68 212t235 85
q227 0 227 -176q0 -164 -118 -248q78 -47 77 -143q0 -334 -331 -334z" />
    <glyph glyph-name="nineinferior" unicode="&#x2089;" horiz-adv-x="714" 
d="M358 578q-82 0 -130 -58t-48 -155q0 -111 117 -111q80 0 128 58t48 155q0 111 -115 111zM240 156q-90 0 -143 47q-52 47 -52 123q1 76 21 146t51 112q80 98 250 98q242 0 241 -182q0 -160 -98 -297l-303 -408h-156l273 369q-49 -8 -84 -8z" />
    <glyph glyph-name="franc" unicode="&#x20a3;" horiz-adv-x="1523" 
d="M1391 928q92 0 176 -47l-90 -136q-63 47 -129 48q-115 1 -185 -97t-108 -313l-68 -383h-160l162 909h125l-6 -139q111 158 283 158zM94 0l258 1462h682l-24 -143h-518l-91 -518h416l-24 -144h-418l-115 -657h-166z" />
    <glyph glyph-name="lira" unicode="&#x20a4;" 
d="M256 1008q0 147 84 280q121 193 370 193t349 -146q45 -68 61 -223l-147 -47q-4 20 -11 84t-55 121q-65 72 -187 72t-206 -89q-84 -88 -84 -221q0 -70 41 -174h391l-18 -102h-340q20 -92 24 -140h291l-16 -102h-289q-10 -211 -201 -371h660l-27 -143h-911l22 123
q115 41 202 156t95 235h-245l18 102h225q-14 76 -39 140h-161l18 102h113q-27 80 -27 150z" />
    <glyph glyph-name="peseta" unicode="&#x20a7;" 
d="M442 961l-49 -273h176q274 -6 346 273h-473zM934 1104q0 115 -60 168t-192 53h-176l-47 -262h473q2 20 2 41zM676 1462q254 0 350 -112q76 -88 76 -232q0 -27 -2 -55h139l-18 -102h-138q-49 -213 -177 -313t-345 -97h-188l-99 -551h-165l170 961h-183l19 102h182l70 399
h309z" />
    <glyph glyph-name="uni20AB" unicode="&#x20ab;" 
d="M215 328q0 -211 209 -211q250 0 305 313l29 168q10 68 10 104q0 211 -217 211q-125 0 -198 -80q-72 -81 -103 -251l-25 -136q-10 -57 -10 -118zM49 291q0 74 17 168l28 155q42 230 144 332t270 102t254 -57q8 -6 55 -53l41 231h-307l20 117h308l30 176h164l-31 -176h166
l-20 -117h-166l-207 -1169h-129l6 100q-70 -70 -134 -94q-64 -25 -163 -24q-346 0 -346 309zM-68 -358l21 120h915l-20 -120h-916z" />
    <glyph glyph-name="Euro" unicode="&#x20ac;" 
d="M993 1126q0 98 -60 154t-167 55q-147 0 -232 -106t-126 -346l-7 -33h566l-60 -102h-524l-27 -150h461l-59 -102h-416q-10 -68 -10 -115q0 -260 244 -260t309 211l159 -19q-40 -163 -162 -249t-316 -86t-300 98q-106 100 -106 284q0 47 12 136h-186l59 102h143l27 150
h-184l57 102h143l11 57q29 166 64 258q36 92 100 162q139 152 366 152q178 0 282 -81t103 -220q0 -16 -6 -72l-158 -10v30z" />
    <glyph glyph-name="uni20B4" unicode="&#x20b4;" 
d="M1071 1155q0 -193 -143 -321l147 -41l-45 -101l-213 60q-92 -45 -297 -101l438 -121l-45 -100l-530 150q-139 -92 -139 -261q0 -203 254 -202q217 0 331 139l117 -74q-147 -201 -454 -200q-195 0 -301 86q-105 86 -105 233t57 238q25 35 74 88l-149 43l43 98l202 -55
q27 14 141 52t144 50l-414 117l43 98l525 -147q164 100 163 272q0 92 -56 142t-161 51q-170 0 -256 -121l-114 71q129 182 379 183q174 0 269 -85t95 -241z" />
    <glyph glyph-name="uni2101" unicode="&#x2101;" horiz-adv-x="1796" 
d="M1552 250q0 60 -34 84t-158 55q-225 53 -225 219q0 117 83 198t246 81q211 0 277 -123l-119 -66q-47 78 -164 78q-80 0 -132 -43t-52 -99t40 -86t158 -58t168 -74q51 -45 52 -131q0 -139 -96 -217t-269 -78q-245 0 -315 141l123 66q43 -96 198 -97q96 0 158 45
q61 45 61 105zM631 860l-88 436l-242 -436h330zM823 602l422 860h139l-716 -1462h-140l287 586h-131l-37 176h-399l-98 -176h-150l512 876h113z" />
    <glyph glyph-name="afii61248" unicode="&#x2105;" horiz-adv-x="1875" 
d="M528 0l717 1462h139l-716 -1462h-140zM1665 535q0 176 -186 176q-229 0 -277 -277l-10 -59q-12 -66 -12 -103q0 -172 186 -172q117 0 184 68t92 207l11 59q12 57 12 101zM1483 823q315 0 315 -272q0 -53 -12 -127l-12 -72q-34 -188 -134 -276t-278 -88q-315 0 -315 268
q0 57 14 131l12 70q35 188 133 277t277 89zM463 639q-149 0 -227 73t-78 212q0 57 12 125l4 28q37 205 134 301t267 97q211 0 275 -152l-113 -51q-47 90 -161 90t-178 -73t-93 -228l-6 -33q-8 -57 -8 -96q0 -180 182 -180q131 0 203 84l100 -70q-113 -127 -313 -127z" />
    <glyph glyph-name="afii61289" unicode="&#x2113;" 
d="M829 1294q0 41 -15 66t-42 24q-66 0 -114 -140t-111 -519q282 323 282 569zM213 315q-10 1 -20 17q-11 16 -11 38t56 74t135 144q90 520 175 715t220 194q72 0 116 -53t44 -137q0 -205 -162 -445q-82 -119 -238 -278q-59 -328 -59 -415t53 -87q33 0 55 22q21 22 53 84
t62 62t29 -37q0 -74 -74 -160t-164 -86q-152 0 -151 195q-1 87 26 284q-119 -131 -145 -131z" />
    <glyph glyph-name="afii61352" unicode="&#x2116;" horiz-adv-x="2359" 
d="M1407 0l23 135h737l-25 -135h-735zM2130 885q0 170 -170 170q-106 0 -168 -67t-88 -208l-10 -55q-8 -45 -8 -102q0 -170 169 -170q106 0 169 66q62 67 87 206l11 55q8 45 8 105zM1964 1190q328 0 328 -283q0 -63 -15 -141l-12 -70q-35 -194 -134 -286t-280 -93
q-328 0 -327 285q0 63 12 137l12 70q35 197 135 289t281 92zM123 0l258 1462h164l514 -1171l207 1171h166l-258 -1462h-164l-514 1171l-207 -1171h-166z" />
    <glyph glyph-name="trademark" unicode="&#x2122;" horiz-adv-x="1787" 
d="M834 586l153 876h127l186 -536l377 536h129l-153 -876h-133l110 622l-311 -446h-90l-154 446l-110 -622h-131zM309 586l135 764h-268l19 112h669l-18 -112h-266l-136 -764h-135z" />
    <glyph glyph-name="uni2126" unicode="&#x2126;" horiz-adv-x="1384" 
d="M1122 1065q0 131 -76 202q-77 71 -217 70q-188 0 -297 -135q-82 -102 -116 -307l-33 -178q-18 -111 -18 -172q0 -215 186 -262l-49 -283h-439l23 125h303l12 70q-57 23 -96 59q-109 109 -108 281q0 84 20 196l35 203q27 154 67 242q41 88 115 159q154 145 388 145
t354 -102q119 -102 118 -293q0 -82 -22 -196l-35 -203q-27 -190 -124 -324t-245 -180l-10 -57h305l-22 -125h-439l50 283q264 57 321 434l31 178q18 94 18 170z" />
    <glyph glyph-name="estimated" unicode="&#x212e;" horiz-adv-x="1228" 
d="M940 762v239q-20 71 -64 135q-90 129 -253 130q-115 0 -184 -58t-126 -204v-242h627zM1118 655h-805v-276q33 -106 72 -166q76 -111 242 -111q119 0 206 66t128 186h118q-47 -154 -100 -217q-129 -157 -361 -157t-367 184q-136 184 -136 511t138 519t374 192
q153 0 269 -84t169 -233q53 -148 53 -414z" />
    <glyph glyph-name="onethird" unicode="&#x2153;" horiz-adv-x="1761" 
d="M414 0l716 1462h154l-717 -1462h-153zM1282 512q86 0 142 45t56 105t-31 88q-32 29 -87 28q-113 0 -158 -98l-119 14q61 195 297 195t236 -187q0 -111 -62 -178q-25 -27 -86 -59q98 -55 98 -172t-78 -210t-272 -93t-237 110q-10 23 -10 86l131 25q4 -111 137 -111
q86 0 140 52t55 133q0 129 -162 129h-84l16 98h78zM324 586l131 743l-162 -59l-27 98l252 94h94l-153 -876h-135z" />
    <glyph glyph-name="twothirds" unicode="&#x2154;" horiz-adv-x="1761" 
d="M483 0l717 1462h156l-719 -1462h-154zM1145 694q61 195 297 195q236 1 235 -195q0 -102 -61 -170q-27 -31 -86 -59q55 -33 78 -70t22 -96q0 -123 -78 -216t-274 -93q-195 0 -238 110q-10 31 -10 86l131 25q2 -111 139 -111q86 0 140 52t55 133q0 129 -164 129h-84l17 98
h77q86 0 143 45q56 45 56 105t-32 88q-32 29 -87 28q-115 0 -155 -98zM506 1368q-117 0 -168 -129l-123 16q41 119 114 171t193 52q238 1 240 -190q0 -108 -52 -186t-188 -209l-200 -195h333l-20 -112h-522l14 90l313 307q182 176 183 283q0 102 -117 102z" />
    <glyph glyph-name="uni2155" unicode="&#x2155;" horiz-adv-x="1761" 
d="M381 0l717 1462h153l-716 -1462h-154zM1315 549q109 0 168 -50t59 -141q0 -178 -89 -273t-239 -95t-203 52q-52 52 -53 128v16l134 23q-2 -51 32 -82t106 -31q71 0 121 64t50 168q0 119 -115 118q-84 0 -151 -55l-97 19l127 464h447l-19 -112h-331l-70 -240q61 27 123 27
zM309 586l131 743l-161 -59l-27 98l252 94h94l-154 -876h-135z" />
    <glyph glyph-name="uni2156" unicode="&#x2156;" horiz-adv-x="1761" 
d="M483 0l717 1462h156l-717 -1462h-156zM1386 549q109 0 168 -50t60 -141q0 -178 -89 -273t-255 -95q-113 0 -175 47t-63 133v16l131 23q0 -51 34 -82q35 -31 105 -31t120 64t51 168q0 119 -115 118q-82 0 -150 -55l-98 19l129 464h447l-21 -112h-330l-69 -240
q61 27 120 27zM618 1266q0 102 -116 102t-168 -129l-123 16q41 119 114 171t193 52q238 1 240 -190q0 -108 -52 -186t-188 -209l-201 -195h334l-20 -112h-522l14 90l313 307q182 176 182 283z" />
    <glyph glyph-name="uni2157" unicode="&#x2157;" horiz-adv-x="1761" 
d="M471 0l717 1462h153l-716 -1462h-154zM1374 549q109 0 168 -50t60 -141q0 -178 -90 -273t-240 -95t-202 52t-52 128q0 10 2 16l131 23q-2 -51 33 -82q36 -31 106 -31t120 64t50 168q0 119 -114 118q-84 0 -152 -55l-96 19l129 464h444l-18 -112h-332l-70 -240
q63 27 123 27zM414 1098q86 0 142 45t56 104q0 117 -118 117q-111 0 -158 -98l-119 14q59 195 296 195t237 -187q0 -111 -62 -178q-25 -27 -86 -59q55 -33 78 -70t22 -96q0 -123 -78 -216t-273 -93q-194 0 -238 110q-10 27 -11 86l131 25q4 -111 140 -111q86 0 140 51
t54 133q0 129 -164 129h-84l17 99h78z" />
    <glyph glyph-name="uni2158" unicode="&#x2158;" horiz-adv-x="1761" 
d="M473 0l717 1462h153l-716 -1462h-154zM1366 549q109 0 168 -50t59 -141q0 -178 -89 -273q-90 -95 -240 -95t-202 52t-52 130q0 8 2 14l131 23q0 -51 34 -82q35 -31 105 -31t120 64t50 168q0 119 -115 118q-84 0 -151 -55l-96 19l127 464h446l-18 -112h-332l-70 -240
q63 27 123 27zM455 586l30 164h-383l15 84l411 628h144l-396 -602h228l33 187h122l-34 -187h92l-19 -110h-92l-28 -164h-123z" />
    <glyph glyph-name="uni2159" unicode="&#x2159;" horiz-adv-x="1761" 
d="M418 0l717 1462h153l-717 -1462h-153zM1290 451q-82 0 -132 -67q-50 -66 -50 -178t115 -112q82 0 132 67t50 175q0 115 -115 115zM1341 551q89 0 143 -51t54 -129t-20 -156t-52 -121q-78 -104 -254 -104q-115 0 -176 50t-61 160t47 206q20 45 76 114l274 357h158
l-262 -336q41 10 73 10zM332 586l131 743l-162 -59l-27 98l252 94h95l-154 -876h-135z" />
    <glyph glyph-name="uni215A" unicode="&#x215a;" horiz-adv-x="1761" 
d="M510 0l717 1462h153l-716 -1462h-154zM1356 451q-84 0 -134 -67t-51 -177q0 -113 115 -113q82 0 132 67t50 175q1 115 -112 115zM1405 551q90 0 143 -51t54 -135q0 -166 -72 -271q-78 -104 -254 -104q-115 0 -176 50q-62 50 -62 160t47 206q18 39 76 114l275 357h157
l-262 -336q41 10 74 10zM272 795q4 -113 140 -113q70 0 122 63q50 63 50 168q0 119 -117 119q-82 0 -150 -55l-96 18l127 467h447l-19 -112h-332l-69 -242q61 27 145 27q84 -1 144 -51t61 -138q0 -371 -346 -371q-129 1 -183 53t-55 128v16z" />
    <glyph glyph-name="oneeighth" unicode="&#x215b;" horiz-adv-x="1761" 
d="M371 0l716 1462h156l-717 -1462h-155zM1274 408q-88 0 -138 -56t-51 -151q0 -109 129 -109q88 0 139 55q50 55 50 150q0 111 -129 111zM1456 690q0 98 -126 98q-66 0 -110 -50t-44 -136q0 -100 114 -100q78 0 122 50t44 138zM1051 592q1 127 69 212t234 85
q227 0 227 -176q0 -164 -119 -248q76 -49 76 -143q0 -146 -75 -240t-255 -94q-254 0 -254 190q0 217 152 287q-55 49 -55 127zM332 586l131 743l-162 -59l-27 98l252 94h95l-154 -876h-135z" />
    <glyph glyph-name="threeeighths" unicode="&#x215c;" horiz-adv-x="1761" 
d="M455 0l716 1462h156l-717 -1462h-155zM1321 408q-88 0 -138 -56t-50 -151q0 -109 129 -109q88 0 138 55t50 152q0 109 -129 109zM1505 690q0 98 -112 98q-78 0 -124 -50t-46 -136q0 -100 114 -100q78 0 123 50t45 138zM1098 592q0 127 68 212t235 85q227 0 227 -176
q0 -164 -119 -248q76 -47 76 -146q-1 -143 -75 -237t-255 -94q-254 0 -254 190q0 217 152 287q-55 47 -55 127zM412 1098q86 0 142 45t56 104q0 117 -118 117q-111 0 -158 -98l-119 14q59 195 296 195t237 -187q0 -111 -62 -178q-25 -27 -86 -59q55 -33 78 -70t22 -96
q0 -123 -78 -216t-273 -93q-194 0 -238 110q-10 27 -11 86l131 25q2 -111 140 -111q86 0 140 51t54 133q0 129 -164 129h-84l17 99h78z" />
    <glyph glyph-name="fiveeighths" unicode="&#x215d;" horiz-adv-x="1761" 
d="M451 0l716 1462h156l-717 -1462h-155zM1321 408q-88 0 -139 -54t-52 -151q0 -111 132 -111q88 0 138 55t50 150q0 111 -129 111zM1391 788q-78 0 -124 -50t-46 -136q0 -100 116 -100q78 0 123 50t45 138q1 98 -114 98zM1585 322q0 -334 -332 -334q-254 0 -254 190
q0 215 152 287q-55 49 -55 127q0 127 68 212t237 85q227 0 227 -176q0 -164 -119 -248q76 -49 76 -143zM252 795q4 -113 140 -113q70 0 121 63q50 63 50 168q0 119 -117 119q-82 0 -149 -55l-96 18l127 467h446l-18 -112h-332l-70 -242q61 27 145 27q85 -1 145 -51t61 -138
q0 -371 -347 -371q-129 1 -183 53t-54 128v16z" />
    <glyph glyph-name="seveneighths" unicode="&#x215e;" horiz-adv-x="1761" 
d="M387 0l717 1462h153l-716 -1462h-154zM1300 408q-90 0 -140 -56t-50 -151q0 -109 131 -109q88 0 138 55t51 152q-1 109 -130 109zM1485 690q1 98 -125 98q-66 0 -112 -50t-46 -136q0 -100 115 -100q78 0 123 50t45 138zM1380 889q227 0 228 -176q0 -164 -119 -248
q76 -49 76 -143q0 -146 -75 -240t-257 -94q-254 0 -254 190q0 217 154 287q-55 49 -56 127q0 127 69 212t234 85zM190 586l439 764h-371l18 112h519l-15 -82l-438 -794h-152z" />
    <glyph glyph-name="arrowleft" unicode="&#x2190;" horiz-adv-x="1638" 
d="M1503 672h-1175l381 -379l-103 -103l-510 523v61l510 522l103 -102l-381 -379h1175v-143z" />
    <glyph glyph-name="arrowup" unicode="&#x2191;" horiz-adv-x="1638" 
d="M711 0v1243l-379 -379l-101 103l521 512h63l520 -512l-100 -103l-379 379v-1243h-145z" />
    <glyph glyph-name="arrowright" unicode="&#x2192;" horiz-adv-x="1638" 
d="M135 672v143h1176l-381 379l102 102l510 -522v-61l-510 -523l-102 103l381 379h-1176z" />
    <glyph glyph-name="arrowdown" unicode="&#x2193;" horiz-adv-x="1638" 
d="M711 1462h145v-1243l379 379l100 -102l-520 -512h-63l-521 512l101 102l379 -379v1243z" />
    <glyph glyph-name="arrowboth" unicode="&#x2194;" horiz-adv-x="1638" 
d="M1337 672h-1036l348 -346l-100 -103l-479 490v61l479 490l100 -103l-348 -346h1036l-346 346l101 103l479 -490v-61l-479 -490l-101 103z" />
    <glyph glyph-name="arrowupdn" unicode="&#x2195;" horiz-adv-x="1638" 
d="M713 188v1086l-348 -346l-101 102l490 477h61l490 -477l-103 -102l-346 346v-1086l346 347l103 -103l-490 -477h-61l-490 477l101 103z" />
    <glyph glyph-name="uni2196" unicode="&#x2196;" horiz-adv-x="1638" 
d="M438 498h-143v729l53 53h727v-143h-536l839 -842l-100 -100l-840 839v-536z" />
    <glyph glyph-name="uni2197" unicode="&#x2197;" horiz-adv-x="1638" 
d="M561 1137v143h729l53 -53v-729h-143v536l-842 -839l-100 100l842 842h-539z" />
    <glyph glyph-name="uni2198" unicode="&#x2198;" horiz-adv-x="1638" 
d="M1202 985h144v-729l-54 -53h-729v143h539l-842 840l100 102l842 -839v536z" />
    <glyph glyph-name="uni2199" unicode="&#x2199;" horiz-adv-x="1638" 
d="M1075 346v-143h-727l-53 53v729h143v-536l840 839l100 -102l-839 -840h536z" />
    <glyph glyph-name="partialdiff" unicode="&#x2202;" 
d="M623 901q-135 0 -214 -81t-110 -251l-23 -127q-10 -57 -10 -114q0 -213 217 -213q135 -1 214 79t108 248l22 127q12 68 13 121q0 211 -217 211zM1001 756q0 -96 -16 -199l-27 -143q-39 -223 -154 -328q-116 -104 -325 -104q-375 0 -375 319q0 74 15 154l26 143
q39 220 151 326t306 106q145 0 221 -61l-2 4l-8 31q-37 109 -47 139q-47 86 -134 145t-194 76l39 109q252 -33 377 -195q147 -190 147 -522z" />
    <glyph glyph-name="emptyset" unicode="&#x2205;" 
d="M897 745q1 93 -29 159t-100 132l-348 -633q61 -23 127 -22q152 0 251 103t99 261zM520 1116q-137 0 -238 -99t-102 -265q0 -98 33 -167t113 -139l352 639q-102 31 -158 31zM1012 750q0 -209 -131 -343t-336 -135q-84 0 -176 31l-207 -379l-94 41l206 379
q-209 141 -208 406q0 210 133 342t319 133q76 0 209 -37l188 340l95 -41l-191 -346q193 -145 193 -391z" />
    <glyph glyph-name="Delta" unicode="&#x2206;" 
d="M881 139l-195 1086l-577 -1086h772zM1081 0h-1231l801 1462h144z" />
    <glyph glyph-name="product" unicode="&#x220f;" horiz-adv-x="1193" 
d="M-23 -424l332 1886h912l-334 -1886h-164l305 1739h-577l-308 -1739h-166z" />
    <glyph glyph-name="summation" unicode="&#x2211;" horiz-adv-x="1148" 
d="M-45 -424l18 109l590 895l-274 774l18 108h938l-24 -143h-729l266 -741l-553 -859h756l-25 -143h-981z" />
    <glyph glyph-name="minus" unicode="&#x2212;" 
d="M100 676l23 135h964l-24 -135h-963z" />
    <glyph glyph-name="uni2215" unicode="&#x2215;" horiz-adv-x="329" 
d="M-217 0l717 1462h153l-716 -1462h-154z" />
    <glyph glyph-name="uni2218" unicode="&#x2218;" 
d="M554 999q-112 -1 -186 -73t-75 -183q0 -111 75 -185q74 -74 186 -73q112 0 186 74q74 73 75 183q-1 110 -75 184t-186 73zM556 1090q151 0 253 -100t102 -246q0 -148 -102 -248t-255 -100t-255 100t-102 247t104 247t255 100z" />
    <glyph glyph-name="uni2219" unicode="&#x2219;" horiz-adv-x="575" 
d="M227 643l35 203h170l-35 -203h-170z" />
    <glyph glyph-name="radical" unicode="&#x221a;" 
d="M328 0l-109 608h-160l25 142h276l78 -531l692 1563h523l-21 -121h-389l-745 -1661h-170z" />
    <glyph glyph-name="infinity" unicode="&#x221e;" horiz-adv-x="1527" 
d="M1090 553q88 0 141 53t53 137q0 85 -53 137t-130 52q-154 0 -257 -168l-13 -21l15 -22q113 -168 244 -168zM428 932q-76 0 -129 -52t-53 -136t53 -138q53 -53 139 -53q131 0 246 168l14 22l-12 21q-49 78 -116 123q-66 45 -142 45zM1417 742q0 -142 -85 -226t-231 -84
t-247 92q-20 18 -90 113l-14 -21q-61 -90 -119 -127q-90 -57 -219 -57t-214 84t-85 226t85 228t229 85q144 0 249 -92q14 -13 88 -113l14 18q44 61 64 83q96 103 275 103q130 0 215 -84q85 -86 85 -228z" />
    <glyph glyph-name="integral" unicode="&#x222b;" horiz-adv-x="888" 
d="M420 1202q0 205 37 289q59 129 227 129q66 0 139 -18l-28 -134q-49 16 -82 17q-86 0 -115 -68q-16 -43 -16 -174v-1036q0 -205 -39 -291q-55 -127 -226 -127q-65 1 -139 21l29 131q49 -16 80 -17q90 0 116 68q16 43 17 180v1030z" />
    <glyph glyph-name="similar" unicode="&#x223c;" 
d="M414 891q59 1 103 -17t129 -82t145 -65q102 0 184 145l98 -30q-61 -128 -132 -186t-169 -58q-55 0 -95 17t-108 67q-69 50 -99 66q-30 14 -69 14q-102 0 -186 -152l-102 25q63 139 132 197t169 59z" />
    <glyph glyph-name="uni2243" unicode="&#x2243;" 
d="M444 1065q58 0 102 -17t130 -82t145 -65q102 0 185 143l98 -30q-63 -130 -133 -186t-168 -56q-55 0 -97 18t-108 67q-66 51 -96 65t-70 14q-104 0 -188 -152l-101 25q63 139 132 197t169 59zM100 514l23 131h907l-22 -131h-908z" />
    <glyph glyph-name="approxequal" unicode="&#x2248;" 
d="M444 1065q58 0 102 -17t130 -82t145 -65q102 0 185 143l98 -30q-63 -130 -133 -186t-168 -56q-55 0 -97 18t-108 67q-66 51 -96 65t-70 14q-104 0 -188 -152l-101 25q63 139 132 197t169 59zM385 719q57 1 101 -17t129 -82t145 -65q100 0 184 143l98 -30
q-59 -126 -131 -184t-170 -58q-55 0 -95 17t-108 67t-97 65q-30 14 -68 15q-105 0 -189 -152l-102 25q66 141 134 199q69 57 169 57z" />
    <glyph glyph-name="notequal" unicode="&#x2260;" 
d="M100 514l23 131h334l125 197h-424l22 131h486l153 241l113 -55l-119 -186h274l-22 -131h-334l-127 -197h426l-22 -131h-486l-153 -242l-113 56l119 186h-275z" />
    <glyph glyph-name="lessequal" unicode="&#x2264;" 
d="M10 0l23 135h837l-22 -135h-838zM334 764l594 -305l-27 -150l-764 410l19 104l909 412l-29 -164z" />
    <glyph glyph-name="greaterequal" unicode="&#x2265;" 
d="M78 0l22 135h838l-23 -135h-837zM862 778l-594 307l27 150l764 -412l-17 -104l-909 -410l29 164z" />
    <glyph glyph-name="dotmath" unicode="&#x22c5;" horiz-adv-x="575" 
d="M227 643l35 203h170l-35 -203h-170z" />
    <glyph glyph-name="filledrect" unicode="&#x25ac;" 
d="M233 420v645h641v-645h-641z" />
    <glyph glyph-name="uni25B4" unicode="&#x25b4;" 
d="M166 410l389 776l387 -776h-776z" />
    <glyph glyph-name="uni25B8" unicode="&#x25b8;" 
d="M246 354v776l774 -389z" />
    <glyph glyph-name="uni25BE" unicode="&#x25be;" 
d="M166 1075h776l-387 -776z" />
    <glyph glyph-name="uni25C2" unicode="&#x25c2;" 
d="M860 354l-774 387l774 389v-776z" />
    <glyph glyph-name="lozenge" unicode="&#x25ca;" 
d="M199 713l356 -518l354 518l-354 520zM16 713l539 772l537 -772l-537 -770z" />
    <glyph glyph-name="openbullet" unicode="&#x25e6;" 
d="M554 999q-112 -1 -186 -73t-75 -183q0 -111 75 -185q74 -74 186 -73q112 0 186 74q74 73 75 183q-1 110 -75 184t-186 73zM556 1090q151 0 253 -100t102 -246q0 -148 -102 -248t-255 -100t-255 100t-102 247t104 247t255 100z" />
    <glyph glyph-name="commaaccent" unicode="&#xf6c3;" horiz-adv-x="1024" 
d="M209 -455l162 314h166l-213 -314h-115z" />
    <glyph glyph-name="Acute" unicode="&#xf6c9;" horiz-adv-x="1024" 
d="M604 1616l205 291h197l-279 -291h-123z" />
    <glyph glyph-name="Caron" unicode="&#xf6ca;" horiz-adv-x="1024" 
d="M721 1731l168 165h180l-307 -274h-107l-211 274h164z" />
    <glyph glyph-name="Dieresis" unicode="&#xf6cb;" horiz-adv-x="1024" 
d="M836 1632l36 213h150l-39 -213h-147zM436 1632l37 213h150l-39 -213h-148z" />
    <glyph glyph-name="Grave" unicode="&#xf6ce;" horiz-adv-x="1024" 
d="M815 1616h-121l-176 291h187z" />
    <glyph glyph-name="Hungarumlaut" unicode="&#xf6cf;" horiz-adv-x="1024" 
d="M772 1616l174 291h172l-229 -291h-117zM496 1616l174 291h172l-230 -291h-116z" />
    <glyph glyph-name="Macron" unicode="&#xf6d0;" horiz-adv-x="1024" 
d="M459 1694l20 118h529l-23 -118h-526z" />
    <glyph glyph-name="zerooldstyle" unicode="&#xf730;" horiz-adv-x="1054" 
d="M600 979q-115 0 -177 -73t-93 -244l-39 -228q-18 -94 -19 -141q0 -176 187 -176q119 -1 183 73t95 244l39 228q16 84 17 135q0 182 -193 182zM958 807q0 -72 -16 -166l-41 -233q-39 -221 -145 -324q-106 -102 -288 -102q-181 0 -271 78t-91 225q1 57 19 168l41 233
q38 223 144 326q106 102 285 102t271 -79t92 -228z" />
    <glyph glyph-name="oneoldstyle" unicode="&#xf731;" horiz-adv-x="696" 
d="M203 0l162 913l-252 -102l-50 127l386 156h116l-192 -1094h-170z" />
    <glyph glyph-name="twooldstyle" unicode="&#xf732;" horiz-adv-x="913" 
d="M678 840q0 139 -182 139t-254 -176l-146 41q102 270 414 270q166 0 252 -68t86 -197q0 -130 -80 -228q-45 -57 -88 -97t-188 -157l-289 -232h547l-23 -135h-782l18 109l414 337q161 132 231 224t70 170z" />
    <glyph glyph-name="threeoldstyle" unicode="&#xf733;" horiz-adv-x="974" 
d="M387 498q133 0 220 89t87 226q0 78 -45 122t-125 44t-141 -41t-92 -117l-148 43q66 134 155 192q90 58 242 58t239 -76t87 -217q0 -285 -270 -391q92 -45 119 -72q82 -82 82 -208q0 -186 -105 -318q-129 -166 -401 -166q-338 0 -381 234l160 55q27 -154 215 -154t276 133
q63 94 63 202t-69 166q-70 58 -190 58h-136l25 138h133z" />
    <glyph glyph-name="fouroldstyle" unicode="&#xf734;" horiz-adv-x="946" 
d="M479 -315l56 315h-590l18 104l625 990h180l-618 -961h409l78 449h149l-79 -449h145l-23 -135h-145l-55 -313h-150z" />
    <glyph glyph-name="fiveoldstyle" unicode="&#xf735;" horiz-adv-x="1040" 
d="M537 565q155 0 237 -78t82 -208q0 -131 -32 -247t-81 -186q-133 -180 -399 -180q-158 0 -252 60t-115 174l162 55q19 -154 207 -154t272 164q66 119 66 273q0 193 -197 192q-129 0 -241 -92l-119 24l195 732h643l-25 -144h-502l-123 -444q86 39 124 49t98 10z" />
    <glyph glyph-name="sixoldstyle" unicode="&#xf736;" horiz-adv-x="1089" 
d="M598 776q-162 0 -231 -131q-35 -61 -58 -157t-22 -177q0 -195 192 -194q158 0 234 139q76 147 75 326q0 194 -190 194zM475 -18q-360 0 -360 336q0 174 75 337q39 82 123 195l428 575h191l-420 -548q76 29 145 28q141 0 223 -83t81 -214q0 -131 -32 -256t-81 -196
q-54 -82 -152 -128t-221 -46z" />
    <glyph glyph-name="sevenoldstyle" unicode="&#xf737;" horiz-adv-x="808" 
d="M-55 -315l684 1265h-574l25 144h751l-16 -103l-676 -1306h-194z" />
    <glyph glyph-name="eightoldstyle" unicode="&#xf738;" horiz-adv-x="1118" 
d="M594 682q-174 0 -246 -109q-74 -100 -74 -272q0 -188 222 -188q168 1 240 115t73 276q0 178 -215 178zM702 1315q-143 1 -206 -99t-64 -245q0 -162 182 -162q146 -1 208 105t63 241q-1 160 -183 160zM270 989q0 181 98 319t332 138q346 0 347 -289q0 -199 -99 -307
q-43 -51 -123 -90q154 -76 154 -258q0 -94 -29 -194t-76 -165q-115 -162 -378 -161q-391 0 -392 315q0 113 33 212t91 159t155 92q-113 86 -113 229z" />
    <glyph glyph-name="nineoldstyle" unicode="&#xf739;" horiz-adv-x="1091" 
d="M616 979q-164 0 -238 -143t-75 -322q0 -195 193 -195q158 0 229 132q80 139 80 333q0 94 -49 145q-50 50 -140 50zM434 190q-141 0 -222 83t-81 215t32 256t83 201t149 123t221 46q174 0 268 -82t93 -236q0 -154 -46 -283q-46 -128 -153 -267l-424 -561h-188l414 532
q-80 -27 -146 -27z" />
    <glyph glyph-name="Dbreve" horiz-adv-x="1388" 
d="M680 1847q0 -115 151 -114q88 0 132 33q43 34 69 124h111q-27 -158 -97 -221t-221 -63q-260 0 -260 202q0 31 8 82h111q-4 -29 -4 -43zM1124 1057q0 135 -100 213q-70 51 -229 51h-269l-209 -1180h269q200 -3 312 101t153 331l55 316q18 111 18 168zM823 1462
q227 0 332 -82q141 -111 141 -301q0 -70 -20 -196l-62 -348q-39 -266 -192 -403q-154 -136 -412 -132h-487l258 1462h442z" />
    <glyph glyph-name="ahungarumlaut" horiz-adv-x="1075" 
d="M725 1192l174 291h172l-229 -291h-117zM449 1192l174 291h172l-230 -291h-116zM502 481q-164 0 -228 -63t-63 -185q0 -67 49 -95t166 -27q164 0 227 69q35 39 52 139l30 162h-233zM778 762q0 152 -192 151q-156 0 -264 -104l-99 84q147 156 377 156q166 0 254 -67
t88 -191q0 -53 -20 -162l-111 -629h-129l-8 49q-92 -67 -276 -67t-266 54q-81 54 -81 175q0 188 92 291q94 102 342 102h271l12 72q10 51 10 86z" />
    <glyph glyph-name="uni0204.sc" horiz-adv-x="976" 
d="M573 1249h-116l-127 291h172zM850 1249h-117l-127 291h172zM63 0l193 1094h694l-24 -136h-531l-59 -337h450l-22 -136h-451l-63 -350h532l-24 -135h-695z" />
    </font>
</defs>
</svg>
