<?xml version="1.0" standalone="no"?>
<!DOCTYPE svg PUBLIC "-//W3C//DTD SVG 1.1//EN" "http://www.w3.org/Graphics/SVG/1.1/DTD/svg11.dtd" >
<svg xmlns="http://www.w3.org/2000/svg">
<metadata>
Created by FontPrep 20130207 at Tue Apr  4 12:52:38 2017
 By Tina Muller
Copyright (c) 2016 by Daniel Hernandez &#38; Paula Nazal. All rights reserved.
</metadata>
<defs>
<font id="b338471aae8c20091caba7ce3df6a8bb" horiz-adv-x='1024' >
  <font-face 
    font-family="Trenda-SemiboldIt"
    font-weight="600"
    font-style="italic"
    font-stretch="normal"
    units-per-em="2048"
    panose-1="0 0 7 0 0 0 0 0 0 0"
    ascent="1638"
    descent="-410"
    x-height="942"
    cap-height="1440"
    bbox="-1395 -569 2767 1939"
    underline-thickness="102"
    underline-position="-102"
    slope="-8"
    unicode-range="U+0020-FB02"
  />
<missing-glyph horiz-adv-x="1214" 
 />
    <glyph glyph-name="fi" unicode="fi" horiz-adv-x="1208" 
d="M868 0l136 942h202l-133 -942h-205zM1288 1268q0 -62 -40 -104t-104 -42t-103 35q-37 35 -37 97t43 103q43 42 105 42t99 -34q37 -35 37 -97zM763 1479q150 0 236 -74l-100 -156q-61 41 -133 41t-128 -52t-73 -165l-16 -131h274l-26 -170h-275l-106 -772h-203l106 772
h-169l24 170h172l21 137q25 182 135 291q111 109 261 109z" />
    <glyph glyph-name="fl" unicode="fl" horiz-adv-x="1200" 
d="M860 0l205 1462h203l-205 -1462h-203zM763 1479q150 0 236 -74l-100 -156q-61 41 -133 41t-128 -52t-73 -165l-16 -131h274l-26 -170h-275l-106 -772h-203l106 772h-169l24 170h172l21 137q25 182 135 291q111 109 261 109z" />
    <glyph glyph-name=".notdef" horiz-adv-x="1214" 
 />
    <glyph glyph-name=".null" 
 />
    <glyph glyph-name="nonmarkingreturn" horiz-adv-x="681" 
 />
    <glyph glyph-name="space" unicode=" " horiz-adv-x="466" 
 />
    <glyph glyph-name="exclam" unicode="!" horiz-adv-x="522" 
d="M418 131q0 -57 -48 -103t-104 -46q-57 0 -90 34t-33 92q0 56 47 104q48 48 104 48t90 -36t34 -93zM242 432l112 1067h238l-191 -1067h-159z" />
    <glyph glyph-name="quotedbl" unicode="&#x22;" horiz-adv-x="702" 
d="M586 1057l32 413h187l-80 -413h-139zM279 1057l30 413h191l-82 -413h-139z" />
    <glyph glyph-name="numbersign" unicode="#" horiz-adv-x="1316" 
d="M840 530l161 383h-323l-158 -383h320zM1378 913h-202l-160 -383h211l-23 -161h-256l-153 -369h-177l154 369h-319l-154 -369h-176l153 369h-149l23 161h194l162 383h-205l23 164h249l152 363h172l-152 -363h324l152 363h174l-152 -363h158z" />
    <glyph glyph-name="dollar" unicode="$" horiz-adv-x="1064" 
d="M817 455q0 88 -64 132q-65 44 -203 85q-138 40 -217 114t-79 218t105 238q105 95 272 120l22 168h209l-22 -170q164 -23 274 -115l-102 -149q-131 92 -293 92q-113 0 -183 -43t-71 -118q0 -75 56 -113q57 -38 151 -67t143 -53t101 -64q108 -83 108 -245t-99 -258
t-276 -118l-22 -172h-211l24 172q-207 25 -329 129l108 159q150 -117 338 -116q260 0 260 174z" />
    <glyph glyph-name="percent" unicode="%" horiz-adv-x="1615" 
d="M1225 121q78 1 137 65t59 153t-46 136t-124 47t-137 -64t-59 -153q0 -88 46 -136t124 -48zM1573 369q1 -174 -105 -285t-254 -111t-229 83q-82 83 -82 218q-1 174 105 285t254 111t229 -83q82 -83 82 -218zM604 1374q-78 0 -136 -64t-58 -154q0 -89 44 -136t123 -47
q78 0 137 64q58 65 58 154t-45 136t-123 47zM926 1221q0 -174 -106 -285t-252 -111t-229 83t-83 218q0 174 106 285t252 111t229 -83t83 -218zM440 -51l-145 76l1079 1529l148 -81z" />
    <glyph glyph-name="ampersand" unicode="&#x26;" horiz-adv-x="1325" 
d="M573 156q150 0 285 112l-313 373q-197 -106 -197 -283q0 -94 62 -148t163 -54zM920 1145q0 71 -41 111t-122 40t-148 -64q-149 -143 32 -386q279 129 279 299zM137 332q0 283 309 432q-102 150 -102 289q0 180 128 293t314 112q144 0 232 -78t88 -209q0 -270 -363 -450
l271 -324q76 76 133 158t78 131l141 -76q-76 -174 -248 -336l146 -174q-2 -6 -146 -141l-153 182q-195 -160 -430 -159q-180 0 -289 95t-109 255z" />
    <glyph glyph-name="quotesingle" unicode="'" horiz-adv-x="397" 
d="M279 1057l30 413h191l-82 -413h-139z" />
    <glyph glyph-name="parenleft" unicode="(" horiz-adv-x="684" 
d="M164 546q0 579 419 957q101 92 220 162l71 -145q-78 -56 -131 -100t-134 -135t-130 -184t-87 -237t-38 -294q0 -289 112 -461q54 -84 92 -127t95 -99l-121 -143q-94 68 -170 162t-137 263t-61 381z" />
    <glyph glyph-name="parenright" unicode=")" horiz-adv-x="681" 
d="M526 856q0 403 -288 664l112 145q150 -111 258 -307t109 -486q0 -180 -41 -342q-73 -288 -238 -481t-358 -309l-82 143q209 156 291 260q122 155 160 262q77 221 77 451z" />
    <glyph glyph-name="asterisk" unicode="*" horiz-adv-x="821" 
d="M889 1241l-234 -104l203 -113l-84 -119l-174 146l-12 -252h-129l45 243l-205 -137l-47 119l233 109l-202 108l82 121l170 -137l18 245h133l-47 -241l201 133z" />
    <glyph glyph-name="plus" unicode="+" horiz-adv-x="1087" 
d="M1067 684l-25 -166h-337l-54 -379h-170l54 379h-345l25 166h342l51 373h172l-53 -373h340z" />
    <glyph glyph-name="comma" unicode="," horiz-adv-x="473" 
d="M219 -12q-51 0 -80 32t-29 86q0 56 42 96q41 40 103 40t99 -40t37 -122q-1 -82 -69 -176t-172 -146l-52 70q47 33 85 80t44 80h-8z" />
    <glyph glyph-name="hyphen" unicode="-" horiz-adv-x="727" 
d="M180 428l25 174h487l-24 -174h-488z" />
    <glyph glyph-name="period" unicode="." horiz-adv-x="483" 
d="M399 128q-1 -60 -41 -100q-40 -42 -102 -42t-100 34q-37 34 -37 94t42 102t102 42t98 -35t38 -95z" />
    <glyph glyph-name="slash" unicode="/" horiz-adv-x="765" 
d="M23 -295l739 1944h172l-737 -1944h-174z" />
    <glyph glyph-name="zero" unicode="0" horiz-adv-x="1337" 
d="M711 170q186 0 305 182t119 504q0 203 -77 308t-220 106q-190 0 -312 -177t-123 -505q0 -207 80 -313q81 -105 228 -105zM684 -18q-233 0 -363 154t-131 435q0 416 188 652t486 235q229 0 357 -153q127 -154 127 -439q0 -410 -186 -647t-478 -237z" />
    <glyph glyph-name="one" unicode="1" horiz-adv-x="788" 
d="M678 1440h129l-203 -1440h-207l170 1204l-331 -121l-39 168z" />
    <glyph glyph-name="two" unicode="2" horiz-adv-x="1085" 
d="M885 1013q0 117 -75 187q-74 70 -224 70t-307 -94l-64 155q191 127 417 127t347 -108t121 -281q0 -172 -78 -319t-236 -307t-299 -259h568l-27 -184h-934l19 119q10 10 94 62t161 116q78 65 112 93t67 60q193 187 266 317q72 130 72 246z" />
    <glyph glyph-name="three" unicode="3" horiz-adv-x="1069" 
d="M472 -18q-253 0 -411 116l105 166q127 -104 300 -104t274 90q102 90 102 219t-68 190t-180 61t-207 -40l-41 108l477 469h-577l26 183h850l-20 -133l-432 -424q180 -3 281 -103t102 -284q0 -226 -164 -370t-417 -144z" />
    <glyph glyph-name="four" unicode="4" horiz-adv-x="1138" 
d="M1153 510l-27 -182h-143l-47 -328h-205l47 328h-690l21 133l505 989l168 -66l-440 -874h461l76 534h204l-75 -534h145z" />
    <glyph glyph-name="five" unicode="5" horiz-adv-x="1079" 
d="M872 471q0 262 -282 262q-138 0 -248 -57l-72 69l97 695h761l-26 -180h-555l-53 -375q94 23 180 22q193 0 299 -100t106 -289q-1 -242 -153 -389t-430 -147q-209 0 -402 104l96 168q164 -98 324 -98t259 90t99 225z" />
    <glyph glyph-name="six" unicode="6" horiz-adv-x="1159" 
d="M367 428q-1 -112 73 -188t207 -76t222 89t89 225t-72 210q-72 72 -199 72q-126 0 -221 -85t-99 -210v-37zM748 932q190 0 300 -116t109 -296q-1 -242 -153 -390t-374 -148t-346 128q-122 128 -122 324q0 375 238 625t585 399l76 -158q-483 -188 -633 -514
q130 146 320 146z" />
    <glyph glyph-name="seven" unicode="7" horiz-adv-x="1005" 
d="M195 0l712 1249h-696l29 191h944l-15 -103l-755 -1337h-219z" />
    <glyph glyph-name="eight" unicode="8" horiz-adv-x="1196" 
d="M633 160q131 0 224 83t93 200t-70 179q-71 62 -200 62t-224 -82t-96 -217q0 -97 71 -161t202 -64zM767 1288q-109 0 -187 -70t-78 -166t58 -148t168 -52q108 0 186 70t79 165q0 95 -59 148t-167 53zM596 -18q-217 0 -332 102q-114 102 -114 260t87 273q87 116 220 161
q-156 72 -156 259t144 304t339 117q196 0 304 -90t108 -228q0 -266 -238 -362q92 -35 147 -116q54 -82 54 -195q1 -207 -151 -346t-412 -139z" />
    <glyph glyph-name="nine" unicode="9" horiz-adv-x="1155" 
d="M406 960q0 -132 72 -206q72 -72 196 -72q125 0 217 83t106 212v35q-1 112 -75 188t-206 76t-221 -92t-89 -224zM729 1458q221 0 346 -124t125 -347t-116 -432t-296 -347t-413 -226l-72 157q442 174 619 504q-124 -133 -312 -133t-297 117t-108 301q0 238 151 384
q152 146 373 146z" />
    <glyph glyph-name="colon" unicode=":" horiz-adv-x="509" 
d="M410 120q0 -58 -48 -104t-105 -47q-58 0 -92 36t-34 93q0 58 47 104q48 46 106 46t92 -35t34 -93zM355 678q-58 0 -91 36t-33 93q-1 57 47 103t106 46t91 -34t33 -93q0 -58 -47 -105q-48 -46 -106 -46z" />
    <glyph glyph-name="semicolon" unicode=";" horiz-adv-x="567" 
d="M310 229q62 1 94 -33t32 -92q0 -102 -68 -202t-171 -156l-52 72q47 33 85 80t42 82q-8 -4 -36 -4t-53 29q-23 31 -23 87t44 96t106 41zM387 657q-57 0 -91 35t-34 92q0 58 47 104t105 46t93 -35q34 -35 34 -92t-48 -104q-49 -46 -106 -46z" />
    <glyph glyph-name="less" unicode="&#x3c;" horiz-adv-x="860" 
d="M897 1120l-27 -198l-520 -326l428 -326l-26 -196l-602 430l26 184z" />
    <glyph glyph-name="equal" unicode="=" horiz-adv-x="1193" 
d="M170 281l25 165h929l-24 -165h-930zM236 735l22 166h930l-23 -166h-929z" />
    <glyph glyph-name="greater" unicode="&#x3e;" horiz-adv-x="860" 
d="M279 1116l598 -432l-25 -184l-721 -430l27 196l520 326l-428 326z" />
    <glyph glyph-name="question" unicode="?" horiz-adv-x="868" 
d="M494 125q0 -57 -42 -98t-98 -41q-57 0 -91 32t-34 90q0 56 42 98q43 42 99 42t90 -33t34 -90zM741 1143q0 176 -188 180q-135 0 -252 -68l-59 154q172 92 343 92t271 -85t100 -232q0 -94 -32 -171t-78 -126t-104 -99t-108 -92q-50 -41 -90 -103t-50 -134l-7 -45h-178
l13 73q14 101 63 181t107 131t116 98q133 110 133 246z" />
    <glyph glyph-name="at" unicode="@" horiz-adv-x="1853" 
d="M745 498q-1 -114 55 -176t151 -62t169 72t91 188t-37 190q-55 72 -165 72t-187 -85t-77 -199zM1126 1364q330 0 524 -186t193 -492q0 -254 -116 -420q-115 -166 -299 -166t-222 142q-125 -154 -323 -154q-145 0 -237 106t-93 265q0 209 132 352q133 143 309 143t263 -108
l17 86h153l-69 -504q-25 -154 84 -154q98 0 156 108t59 275q0 245 -154 389t-418 142q-329 -4 -539 -216t-210 -546q0 -252 144 -408t390 -157q213 -4 390 88l36 -166q-197 -96 -434 -96q-330 1 -524 195t-193 517q1 417 281 691t700 274z" />
    <glyph glyph-name="A" unicode="A" horiz-adv-x="1337" 
d="M993 481l-164 658l-350 -658h514zM1108 0l-76 303h-641l-164 -303h-223l793 1440h151l383 -1440h-223z" />
    <glyph glyph-name="B" unicode="B" horiz-adv-x="1302" 
d="M723 180q156 0 244 74t88 197q0 84 -65 137t-193 53h-320l-65 -461h311zM1098 1061q0 199 -264 199h-271l-61 -443h311q133 -1 209 65t76 179zM700 0h-520l203 1440h481q227 0 338 -89t111 -231q-1 -142 -69 -238t-177 -139q96 -35 147 -111t52 -177q0 -209 -146 -332
t-420 -123z" />
    <glyph glyph-name="C" unicode="C" horiz-adv-x="1312" 
d="M824.5 -18q-281.5 0 -462 179t-180.5 457q0 360 220.5 600t574.5 240q281 0 471 -135l-121 -168q-145 111 -354 111q-256 0 -413 -174t-157 -451q0 -205 127 -336t333 -131t339 105l84 -160q-180 -137 -461.5 -137z" />
    <glyph glyph-name="D" unicode="D" horiz-adv-x="1488" 
d="M682 188q289 0 447.5 168t158.5 447q0 205 -117.5 326.5t-326.5 121.5h-279l-149 -1063h266zM870 1440q295 0 465 -167t170 -446q0 -371 -229 -599t-623 -228h-475l203 1440h489z" />
    <glyph glyph-name="E" unicode="E" horiz-adv-x="1196" 
d="M1270 1251h-707l-59 -428h620l-26 -188h-621l-61 -449h706l-26 -186h-918l203 1440h915z" />
    <glyph glyph-name="F" unicode="F" horiz-adv-x="1138" 
d="M1253 1251h-688l-73 -528h606l-27 -191h-606l-76 -532h-211l203 1440h899z" />
    <glyph glyph-name="G" unicode="G" horiz-adv-x="1437" 
d="M830 -18q-288 0 -469 180t-181 459q0 365 222.5 601t582.5 236q299 0 473 -141l-117 -164q-137 113 -378.5 113t-401.5 -170t-160 -451q0 -209 129 -340t334 -131q164 0 303 68l62 444h203l-78 -557q-236 -147 -524 -147z" />
    <glyph glyph-name="H" unicode="H" horiz-adv-x="1562" 
d="M1374 1440h211l-203 -1440h-211l89 631h-783l-88 -631h-211l203 1440h211l-88 -621h782z" />
    <glyph glyph-name="I" unicode="I" horiz-adv-x="571" 
d="M178 0l203 1440h211l-203 -1440h-211z" />
    <glyph glyph-name="J" unicode="J" horiz-adv-x="927" 
d="M322 -18q-180 0 -293 84l106 176q70 -56 196 -56q247 -1 287 306l134 948h211l-134 -955q-37 -256 -161 -380q-125 -123 -346 -123z" />
    <glyph glyph-name="K" unicode="K" horiz-adv-x="1312" 
d="M1487 1440l-801 -723l647 -717h-270l-586 637l-88 -637h-211l201 1440h211l-90 -641l719 641h268z" />
    <glyph glyph-name="L" unicode="L" horiz-adv-x="1112" 
d="M416 186h702l-26 -186h-914l203 1440h211z" />
    <glyph glyph-name="M" unicode="M" horiz-adv-x="1746" 
d="M1612 1440h135l-158 -1440h-209l115 975l-528 -772h-138l-299 792l-163 -995h-209l254 1440h139l385 -975z" />
    <glyph glyph-name="N" unicode="N" horiz-adv-x="1546" 
d="M1360 1440h209l-205 -1456h-123l-702 1083l-152 -1067h-207l205 1454h125l700 -1077z" />
    <glyph glyph-name="O" unicode="O" horiz-adv-x="1609" 
d="M877 174q222 0 376 167t154 456q0 205 -126 337t-347 132t-377 -170t-156 -457q0 -207 127 -336t349 -129zM865.5 -18q-322.5 0 -504 183t-181.5 458q0 369 222.5 602t544 233t501.5 -182t180 -459q0 -373 -220 -604t-542.5 -231z" />
    <glyph glyph-name="P" unicode="P" horiz-adv-x="1253" 
d="M727 635q172 0 278 96q105 95 105 235t-80 213t-217 72h-248l-86 -616h248zM852 1440q219 0 349 -115t130 -315q0 -262 -175 -413t-451 -151l-252 -2l-64 -444h-211l203 1440h471z" />
    <glyph glyph-name="Q" unicode="Q" horiz-adv-x="1605" 
d="M397 639q0 -207 127 -336t349 -129t376 167t154 456q0 205 -126 337t-347 132t-377 -170t-156 -457zM1624 831q0 -262 -100.5 -451.5t-278.5 -293.5l207 -229l-160 -156l-268 299q-86 -18 -180 -18q-305 0 -486.5 183t-181.5 458q0 369 222.5 602t543.5 233t501.5 -182.5
t180.5 -444.5z" />
    <glyph glyph-name="R" unicode="R" horiz-adv-x="1312" 
d="M719 631q172 0 280.5 97t108.5 242.5t-80 215t-215 69.5h-250l-88 -624h244zM1329 1021.5q0 -195.5 -98 -332t-270 -200.5l264 -489h-236l-231 449q-20 -2 -64 -3h-243l-64 -446h-209l203 1440h473q219 0 347 -111.5t128 -307z" />
    <glyph glyph-name="S" unicode="S" horiz-adv-x="1128" 
d="M571 -18q-305 0 -493 159l119 168q170 -141 391 -141q133 0 216 64t83 170t-60.5 158t-224.5 99t-254 137.5t-90 239.5q0 190 146 306q148 116 400 116t402 -139l-116 -154q-156 107 -308 107t-230.5 -53.5t-78.5 -145.5t61.5 -141t196.5 -90q190 -55 281.5 -145.5
t91.5 -256.5q0 -213 -147.5 -335.5t-385.5 -122.5z" />
    <glyph glyph-name="T" unicode="T" horiz-adv-x="1179" 
d="M1362 1440l-27 -189h-461l-176 -1251h-213l177 1251h-463l26 189h1137z" />
    <glyph glyph-name="U" unicode="U" horiz-adv-x="1490" 
d="M750 -18q-268 0 -408.5 161.5t-97.5 456.5l118 840h213l-118 -856q-25 -180 57 -294t259 -114t291 113.5t138 294.5l121 856h209l-117 -840q-43 -297 -220 -457.5t-445 -160.5z" />
    <glyph glyph-name="V" unicode="V" horiz-adv-x="1314" 
d="M1270 1440h229l-772 -1440h-139l-369 1440h238l192 -844l56 -289l135 287z" />
    <glyph glyph-name="W" unicode="W" horiz-adv-x="1845" 
d="M1829 1440h213l-619 -1440h-157l-189 1092l-497 -1092h-158l-211 1440h223l62 -506l63 -602l250 583l242 525h147l94 -525l92 -591z" />
    <glyph glyph-name="X" unicode="X" horiz-adv-x="1302" 
d="M1460 1440l-579 -713l407 -727h-250l-315 573l-457 -573h-248l607 743l-383 697h252l284 -547l432 547h250z" />
    <glyph glyph-name="Y" unicode="Y" horiz-adv-x="1286" 
d="M1462 1440l-635 -873l-79 -567h-213l81 573l-385 867h250l273 -662l463 662h245z" />
    <glyph glyph-name="Z" unicode="Z" horiz-adv-x="1216" 
d="M1341 1440l-18 -137l-965 -1115h816l-25 -188h-1092l19 131l960 1120h-784l27 189h1062z" />
    <glyph glyph-name="bracketleft" unicode="[" horiz-adv-x="679" 
d="M836 1452h-291l-209 -1495h291l-25 -168h-473l258 1831h471z" />
    <glyph glyph-name="backslash" unicode="\" horiz-adv-x="765" 
d="M481 -336l-196 1905h170l198 -1905h-172z" />
    <glyph glyph-name="bracketright" unicode="]" horiz-adv-x="677" 
d="M274 1620h471l-256 -1831h-473l25 168h293l209 1495h-291z" />
    <glyph glyph-name="asciicircum" unicode="^" horiz-adv-x="968" 
d="M987 797h-184l-144 393l-270 -393h-194l423 596h144z" />
    <glyph glyph-name="underscore" unicode="_" horiz-adv-x="1187" 
d="M92 -68l23 162h985l-23 -162h-985z" />
    <glyph glyph-name="grave" unicode="`" horiz-adv-x="507" 
d="M559 1075l-362 199l118 166l328 -248z" />
    <glyph glyph-name="a" unicode="a" horiz-adv-x="1148" 
d="M609 168q130 0 208 96t78 230.5t-67.5 207t-186.5 72.5t-207 -95t-88 -229.5t66.5 -208t196.5 -73.5zM139 408q0 244 147.5 397t350.5 153t305 -129l25 113h184l-133 -942h-180l10 106q-115 -125 -300 -124.5t-297 120t-112 306.5z" />
    <glyph glyph-name="b" unicode="b" horiz-adv-x="1148" 
d="M387 444q-1 -130 67 -204q68 -72 196 -72t207 98t79 230t-69 204q-69 74 -195 74t-205 -100q-80 -100 -80 -230zM743 958q178 0 289 -118t111 -310q0 -231 -139 -390q-138 -158 -358 -158t-318 151l-27 -133h-168l205 1462h201l-86 -610q112 106 290 106z" />
    <glyph glyph-name="c" unicode="c" horiz-adv-x="919" 
d="M580 -18q-203 0 -323 118.5t-120 305.5q0 246 154.5 400.5t368.5 154.5t321 -101l-107 -160q-82 74 -216 74t-224 -94t-90 -252q0 -116 68 -188q70 -72 182 -72t213 65l86 -145q-47 -33 -77 -50.5t-96 -36.5t-140 -19z" />
    <glyph glyph-name="d" unicode="d" horiz-adv-x="1148" 
d="M609 168q128 0 207 97t79 229.5t-66.5 206t-189.5 73.5t-209 -97t-86 -230.5t68.5 -206t196.5 -72.5zM549 -18q-186 0 -298 120.5t-112 331.5t140.5 367.5t361.5 156.5q186 0 291 -124l88 628h203l-205 -1462h-170l10 111q-123 -129 -309 -129z" />
    <glyph glyph-name="e" unicode="e" horiz-adv-x="1044" 
d="M637 786q-100 0 -174 -57t-105 -160h492v17q0 94 -56.5 147t-156.5 53zM1047 580q0 -91 -21 -154h-686q2 -121 71.5 -193.5t194.5 -72.5t244 86l88 -140q-154 -125 -358.5 -124.5t-322.5 119t-118 307.5q0 246 147.5 398t368.5 152q182 0 287 -103t105 -275z" />
    <glyph glyph-name="f" unicode="f" horiz-adv-x="724" 
d="M763 1479q150 0 236 -74l-100 -156q-61 41 -133 41t-128 -52t-73 -165l-16 -131h274l-26 -170h-275l-106 -772h-203l106 772h-169l24 170h172l21 137q25 182 135 291q111 109 261 109z" />
    <glyph glyph-name="g" unicode="g" horiz-adv-x="1146" 
d="M606 168q127 0 207 95t80 229.5t-66.5 208t-190.5 73.5t-209 -98t-85 -229.5t68.5 -205t195.5 -73.5zM473 -418q-244 0 -395 121l110 152q133 -96 292 -96.5t239 76.5t98 202l6 45q-111 -100 -283.5 -100t-287.5 116.5t-115 300.5q0 244 142.5 401.5t350.5 157.5
t310 -131l25 113h182l-125 -885q-29 -215 -167 -344t-382 -129z" />
    <glyph glyph-name="h" unicode="h" horiz-adv-x="1136" 
d="M750 961q182 0 273 -120t64 -319l-73 -522h-205l70 496q20 131 -34 205.5t-159.5 74.5t-176.5 -63.5t-95 -165.5l-76 -547h-205l205 1462h201l-90 -626q119 125 301 125z" />
    <glyph glyph-name="i" unicode="i" horiz-adv-x="473" 
d="M133 0l135 942h203l-133 -942h-205zM408 1122q-64 0 -102 35t-38 97t43 103q43 42 105 42t100 -34q37 -35 37 -97t-41 -104q-40 -42 -104 -42z" />
    <glyph glyph-name="j" unicode="j" horiz-adv-x="485" 
d="M-25 -418q-86 0 -163 41l86 160q33 -14 79 -14q139 0 162 172l142 1001h202l-139 -999q-25 -173 -119 -267t-250 -94zM567 1270q1 -62 -41 -105t-104 -43t-101 35q-38 35 -38 97t43 103q43 42 105 42t99 -34q37 -33 37 -95z" />
    <glyph glyph-name="k" unicode="k" horiz-adv-x="999" 
d="M1112 942l-508 -457l397 -485h-260l-348 430l-59 -430h-203l205 1462h203l-129 -913l436 393h266z" />
    <glyph glyph-name="l" unicode="l" horiz-adv-x="475" 
d="M135 0l205 1462h203l-205 -1462h-203z" />
    <glyph glyph-name="m" unicode="m" horiz-adv-x="1738" 
d="M1374 961q174 0 261 -111t63 -287l-80 -563h-203l72 524q16 123 -29 188q-45 64 -143 64t-169 -68t-93 -171l-74 -537h-205l72 524q16 123 -29 188q-45 64 -142 64t-167 -66t-94 -167l-78 -543h-205l133 942h156l-14 -160q49 80 135 129t194 50q233 0 303 -191
q47 84 135 138t201 53z" />
    <glyph glyph-name="n" unicode="n" horiz-adv-x="1134" 
d="M756 961q178 0 269 -120t62 -319l-73 -522h-203l70 496q18 132 -36 206q-55 74 -159 74t-175 -61.5t-95 -159.5l-80 -555h-205l133 942h156l-10 -158q117 177 346 177z" />
    <glyph glyph-name="o" unicode="o" horiz-adv-x="1105" 
d="M605 168q120 0 205 98.5t85 229.5t-70.5 204.5t-190.5 73.5t-205 -99.5t-85 -230.5t70.5 -203.5t190.5 -72.5zM588 -18q-208 0 -329.5 119.5t-121.5 310.5q0 240 151.5 393t362 153t331 -118.5t120.5 -311.5q0 -238 -153 -392t-361 -154z" />
    <glyph glyph-name="p" unicode="p" horiz-adv-x="1148" 
d="M649 168q129 0 208 97t79 229t-69 206t-191 74t-205 -97q-84 -97 -84 -229q1 -132 67 -206t195 -74zM739 958q184 0 294 -118t110 -299q0 -240 -138 -400t-368 -159q-190 0 -285 137l-73 -518h-201l188 1341h172l-12 -117q129 133 313 133z" />
    <glyph glyph-name="q" unicode="q" horiz-adv-x="1148" 
d="M344 450q0 -134 68 -208t197 -74q130 0 208 98t78 230t-69 206q-70 72 -190 72t-206 -95t-86 -229zM541 -18q-182 0 -292 122t-110 314q-1 236 143 388t356 152t316 -145l25 129h170l-188 -1341h-201l67 485q-104 -104 -286 -104z" />
    <glyph glyph-name="r" unicode="r" horiz-adv-x="716" 
d="M750 961q43 0 73 -7l-45 -204q-39 16 -86 16q-113 0 -192 -84t-94 -184l-70 -498h-205l133 942h174l-16 -160q47 80 133 129.5t195 49.5z" />
    <glyph glyph-name="s" unicode="s" horiz-adv-x="894" 
d="M467 -18q-233 0 -387 118l108 154q123 -104 289 -104q82 0 126 30.5t44 82.5t-37 81q-38 30 -152 60t-186.5 88.5t-72.5 166.5q0 139 105.5 219t295.5 80t324 -98l-90 -147q-131 78 -273 78q-70 0 -112.5 -27t-42.5 -74t39.5 -71.5t157.5 -57.5t184.5 -94t66.5 -187
t-104.5 -212t-282.5 -86z" />
    <glyph glyph-name="t" unicode="t" horiz-adv-x="831" 
d="M557 -18q-164 0 -244 89t-57 257l63 444h-182l25 170h188l45 324h197l-45 -324h352l-25 -170h-352l-57 -414q-29 -195 143 -194q84 0 166 55l62 -149q-115 -88 -279 -88z" />
    <glyph glyph-name="u" unicode="u" horiz-adv-x="1118" 
d="M578 178q98 0 169.5 72t94.5 172l73 520h205l-133 -942h-166l15 135q-106 -154 -318 -153q-184 0 -275 115.5t-63 322.5l74 522h203l-68 -485q-37 -279 189 -279z" />
    <glyph glyph-name="v" unicode="v" horiz-adv-x="1021" 
d="M911 942h217l-538 -948h-158l-272 948h223l166 -682z" />
    <glyph glyph-name="w" unicode="w" horiz-adv-x="1546" 
d="M1436 942h217l-477 -942h-154l-148 651l-329 -651h-164l-221 942h221l121 -684l332 684h159l140 -688z" />
    <glyph glyph-name="x" unicode="x" horiz-adv-x="987" 
d="M1051 942l-379 -473l252 -469h-238l-156 334l-256 -334h-237l397 481l-237 461h235l146 -315l233 315h240z" />
    <glyph glyph-name="y" unicode="y" horiz-adv-x="1013" 
d="M1130 942l-501 -926l-221 -415h-211l219 403l-256 938h229l166 -709l354 709h221z" />
    <glyph glyph-name="z" unicode="z" horiz-adv-x="933" 
d="M985 942l-22 -149l-617 -623h537l-25 -170h-788l20 150l619 622h-514l24 170h766z" />
    <glyph glyph-name="braceleft" unicode="{" horiz-adv-x="659" 
d="M223 772q51 0 87 41t48 121l48 350q25 178 139 270q115 92 284 93l-22 -162q-184 0 -213 -213l-49 -344q-14 -104 -53 -156t-107 -80q123 -49 94 -233l-49 -344q-33 -215 154 -215l-21 -160q-170 0 -259 91t-64 267l51 357q20 162 -90 161h-68l23 156h67z" />
    <glyph glyph-name="bar" unicode="|" horiz-adv-x="497" 
d="M131 -199l234 1661h178l-234 -1661h-178z" />
    <glyph glyph-name="braceright" unicode="}" horiz-adv-x="659" 
d="M653 772h68l-23 -156h-67q-51 0 -87 -41t-46 -120l-52 -357q-25 -176 -138 -267t-283 -91l22 160q94 0 147 51q52 51 68 164l47 344q15 104 55 156t105 77q-57 29 -82 81t-10 155l47 344q29 213 -156 213l23 162q170 -1 258 -93t63 -270l-47 -350q-23 -162 88 -162z" />
    <glyph glyph-name="asciitilde" unicode="~" horiz-adv-x="1097" 
d="M776 442q-80 0 -172 46t-162 46t-133 -63l-106 98q2 0 23 24t88 69t156 46t183 -46q94 -48 161 -48t144 78l107 -96q-2 0 -14 -14q-51 -60 -123 -100t-152 -40z" />
    <glyph glyph-name="uni00A0" unicode="&#xa0;" horiz-adv-x="466" 
 />
    <glyph glyph-name="exclamdown" unicode="&#xa1;" horiz-adv-x="524" 
d="M88 -399l188 1069h160l-110 -1069h-238zM541 990q-1 -56 -49 -103t-105 -47t-90 36t-33 93t47 103t105 46t91 -36q34 -36 34 -92z" />
    <glyph glyph-name="cent" unicode="&#xa2;" horiz-adv-x="1069" 
d="M391 680q0 -137 85 -227.5t224 -90.5t261 78l61 -155q-152 -90 -285 -105l-35 -241h-190l35 245q-166 33 -266.5 162t-100.5 311q0 231 147.5 401.5t370.5 209.5l37 258h191l-35 -252q143 -18 258 -111l-102 -153q-99 84 -258.5 83t-278.5 -120t-119 -293z" />
    <glyph glyph-name="sterling" unicode="&#xa3;" horiz-adv-x="1146" 
d="M936 1272q-123 0 -208 -72t-107 -223l-39 -272h370l-22 -162h-371l-49 -365h571l-24 -178h-963l25 178h186l51 365h-186l23 162h186l39 290q31 215 170 339t344 124q129 0 209 -35t112 -73l-114 -150q-80 72 -203 72z" />
    <glyph glyph-name="currency" unicode="&#xa4;" horiz-adv-x="1208" 
d="M446 706q0 -126 64 -192q64 -68 183 -68q118 0 195 90t77 212q1 124 -63 190t-180 66t-196 -86t-80 -212zM1139 795q0 -193 -105 -336l90 -109l-131 -114l-88 106q-105 -63 -247 -63t-242 77l-137 -123l-101 111l141 129q-45 90 -45 199q0 182 103 321l-92 113l131 111
l90 -111q110 66 254 66t244 -76l135 125l96 -115l-137 -127q41 -78 41 -184z" />
    <glyph glyph-name="yen" unicode="&#xa5;" horiz-adv-x="1345" 
d="M1493 1440l-524 -717h266l-23 -156h-356l-27 -198h353l-21 -156h-354l-31 -213h-207l29 213h-373l23 156h373l26 198h-371l23 156h285l-320 717h240l287 -670l473 670h229z" />
    <glyph glyph-name="brokenbar" unicode="&#xa6;" horiz-adv-x="501" 
d="M135 -199l101 719h178l-103 -719h-176zM266 748l101 714h178l-101 -714h-178z" />
    <glyph glyph-name="section" unicode="&#xa7;" horiz-adv-x="1019" 
d="M432 774q0 -70 48 -106q48 -35 134 -63t121 -44q78 45 78 123q-1 52 -25 76t-37 36t-45 24q-32 14 -46 20t-55 19q-40 13 -49 17t-48 17q-76 -49 -76 -119zM1008 713q0 -150 -123 -256q57 -72 57 -172q0 -177 -130 -277t-338 -100t-380 133l88 147q154 -111 312 -110
q114 0 186 45t72 127q0 102 -144 160q-30 10 -132 42t-172 93t-71 178q0 158 123 266q-59 63 -59 166q0 170 128 278q128 107 335 107t332 -117l-93 -143q-113 92 -264 92q-109 0 -173 -49t-64 -119t48 -105t122 -61t108 -38q102 -39 146 -85q86 -90 86 -202z" />
    <glyph glyph-name="dieresis" unicode="&#xa8;" horiz-adv-x="763" 
d="M883 1275q1 -56 -41 -95t-96 -39q-54 -1 -84 31t-31 87q0 55 42 95t95 41q53 0 84 -32t31 -88zM329 1143q-54 0 -86 32q-32 33 -32 87t42 94t96 41q54 0 85 -32t31 -88t-41 -95t-95 -39z" />
    <glyph glyph-name="copyright" unicode="&#xa9;" horiz-adv-x="1591" 
d="M866 346q-132 0 -220 89q-87 89 -87 256t121 286t297 119q115 0 205 -62l-54 -119q-86 49 -181 49t-171 -77t-76 -187t54 -166t142 -56q89 0 179 48l27 -120q-104 -60 -236 -60zM346 645q0 -221 138 -367t384 -145q244 0 412 180t168 484q0 223 -137 367t-379 144
t-414 -182t-172 -481zM1608 813q0 -375 -221 -603t-535 -228t-492 183t-178 462q0 371 226 601t555 230q293 0 469 -182t176 -463z" />
    <glyph glyph-name="ordfeminine" unicode="&#xaa;" horiz-adv-x="858" 
d="M764 1388q0 164 -150 164q-76 0 -128 -60q-50 -60 -50 -137t36 -122t112 -45q75 0 128 62q52 62 52 138zM530 1059q-110 0 -176 75t-65 191q0 154 93 256t227 102t184 -92l16 82h131l-86 -604h-127l12 96q-70 -106 -209 -106z" />
    <glyph glyph-name="guillemotleft" unicode="&#xab;" horiz-adv-x="935" 
d="M659 143l-167 367l268 352h190l-274 -352l174 -367h-191zM326 143l-168 367l268 352h192l-274 -352l174 -367h-192z" />
    <glyph glyph-name="logicalnot" unicode="&#xac;" horiz-adv-x="1103" 
d="M1069 729l-63 -448h-164l41 286h-664l23 162h827z" />
    <glyph glyph-name="registered" unicode="&#xae;" horiz-adv-x="956" 
d="M645 1237q41 -1 68 21t26 59q0 66 -73 65h-58l-20 -145h57zM844 1331q0 -111 -105 -160l80 -141h-112l-68 125h-61l-19 -125h-100l61 438h164q76 0 118 -38t42 -99zM681 1563q-128 1 -230 -103q-103 -104 -103 -238t74 -214t204 -80q129 0 232 104q102 104 102 238
t-75 213q-76 80 -204 80zM692 1665q173 0 273 -105t100 -264q0 -198 -138 -334q-139 -136 -311 -136t-273 106t-101 264q0 195 138 332q139 137 312 137z" />
    <glyph glyph-name="macron" unicode="&#xaf;" horiz-adv-x="653" 
d="M184 1155l23 162h590l-23 -162h-590z" />
    <glyph glyph-name="degree" unicode="&#xb0;" horiz-adv-x="829" 
d="M562 954q82 0 142 62t60 150t-44 132t-126 45q-82 0 -141 -61q-59 -60 -59 -148t42 -134q43 -46 126 -46zM550 811q-148 0 -229 81q-81 80 -81 230t110 258t258 109q148 0 228 -80t79 -213q0 -166 -108 -276q-109 -110 -257 -109z" />
    <glyph glyph-name="plusminus" unicode="&#xb1;" horiz-adv-x="1048" 
d="M129 33l21 151h800l-20 -151h-801zM725 829h309l-22 -159h-310l-53 -375h-166l52 375h-308l23 159h307l51 365h168z" />
    <glyph glyph-name="uni00B2" unicode="&#xb2;" horiz-adv-x="778" 
d="M641 1276q0 57 -39 92t-100 35t-158 -35l-49 121q135 72 263 72t200 -65t71 -183q0 -147 -145 -297q-63 -66 -188 -154h290l-22 -147h-555l14 102q2 1 25 15t42 27q155 106 220 171q131 135 131 246z" />
    <glyph glyph-name="uni00B3" unicode="&#xb3;" horiz-adv-x="712" 
d="M762 1008q0 -136 -94 -220t-246 -84t-252 70l78 121q68 -51 161 -51t141 42t48 101t-34 90t-85 31t-100 -25l-37 97l264 229h-330l21 139h518l-16 -110l-240 -217q91 -5 147 -63t56 -150z" />
    <glyph glyph-name="acute" unicode="&#xb4;" horiz-adv-x="552" 
d="M244 1075l-58 117l396 246l75 -164z" />
    <glyph glyph-name="paragraph" unicode="&#xb6;" horiz-adv-x="1329" 
d="M801 1284q-455 0 -455 -391q0 -289 359 -289h43l96 680h-43zM682 449q-231 -1 -361 109t-131 316q0 268 174 416t457 150h525l-226 -1592h-162l203 1436h-151l-203 -1436h-166l84 601h-43z" />
    <glyph glyph-name="periodcentered" unicode="&#xb7;" horiz-adv-x="487" 
d="M201 682q0 60 42 102t104 41q62 1 98 -33t36 -95q-1 -61 -41 -103t-102 -41q-62 0 -99 35q-38 34 -38 94z" />
    <glyph glyph-name="cedilla" unicode="&#xb8;" horiz-adv-x="518" 
d="M166 -500q-58 0 -110 18t-74 36l-23 16l68 108q80 -51 137 -51q125 0 125 103q0 86 -133 86q-10 0 -43 -4l-19 28l94 195h127l-59 -117q86 -4 135 -50t49 -124q0 -112 -76 -178t-198 -66z" />
    <glyph glyph-name="uni00B9" unicode="&#xb9;" horiz-adv-x="544" 
d="M354 715l90 641l-184 -82l-24 141l323 129h68l-117 -829h-156z" />
    <glyph glyph-name="ordmasculine" unicode="&#xba;" horiz-adv-x="802" 
d="M766 1394q0 166 -154 167q-76 1 -128 -59q-54 -60 -54 -142t41 -124t117 -42t127 59t51 141zM578 1065q-138 0 -214 72t-75 192q0 162 97 262q98 101 236 99t211 -74t72 -193q0 -158 -94 -258q-95 -100 -233 -100z" />
    <glyph glyph-name="guillemotright" unicode="&#xbb;" horiz-adv-x="935" 
d="M471 143l277 369l-177 350h195l168 -350l-270 -369h-193zM117 143l278 369l-178 350h193l170 -350l-271 -369h-192z" />
    <glyph glyph-name="onequarter" unicode="&#xbc;" horiz-adv-x="1527" 
d="M1231 0l24 176h-428l15 103l305 573l127 -45l-254 -494h256l41 291h147l-41 -291h78l-18 -137h-78l-27 -176h-147zM358 610l91 643l-183 -84l-24 142l323 129h68l-117 -830h-158zM438 -12l-135 67l895 1403l135 -76z" />
    <glyph glyph-name="onehalf" unicode="&#xbd;" horiz-adv-x="1624" 
d="M1415 557q0 61 -38 96q-37 35 -111 35t-150 -35l-33 123q123 70 249 70t200 -65t74 -166t-38 -168t-115 -149t-177 -151h283l-21 -147h-555l16 102q205 135 281 211q135 135 135 244zM358 610l91 643l-183 -84l-24 142l323 129h68l-117 -830h-158zM438 -12l-135 67
l895 1403l135 -76z" />
    <glyph glyph-name="threequarters" unicode="&#xbe;" horiz-adv-x="1585" 
d="M1487 313h80l-19 -137h-80l-24 -176h-148l25 176h-434l14 103l311 573l127 -45l-260 -494h260l41 291h148zM745 901q0 -135 -93 -220q-94 -85 -248 -85t-250 68l77 122q68 -51 161 -51t142 41q48 42 48 102t-34 90t-88 30t-95 -23l-37 94l262 231h-328l19 140h518
l-17 -113h-2l-239 -217q94 -6 149 -62t55 -147zM1264 1458l137 -76l-895 -1394l-135 67z" />
    <glyph glyph-name="questiondown" unicode="&#xbf;" horiz-adv-x="911" 
d="M170 -51q0 -176 188 -180q135 0 252 67l60 -153q-172 -93 -344 -93t-271 85q-100 85 -100 233q0 94 32 171t97 144t194 172q50 41 90 103t50 135l6 45h178l-12 -74q-14 -100 -64 -180t-107 -131t-115 -98q-134 -109 -134 -246zM557 1106q57 0 91 -33t34 -90t-42 -98
t-98 -41t-90 33t-34 90t41 98t98 41z" />
    <glyph glyph-name="Agrave" unicode="&#xc0;" horiz-adv-x="1337" 
d="M993 481l-164 658l-350 -658h514zM1108 0l-76 303h-641l-164 -303h-223l793 1440h151l383 -1440h-223zM1139 1688l-64 -129l-428 116l92 201z" />
    <glyph glyph-name="Aacute" unicode="&#xc1;" horiz-adv-x="1337" 
d="M993 481l-164 658l-350 -658h514zM1108 0l-76 303h-641l-164 -303h-223l793 1440h151l383 -1440h-223zM1167 1683l-460 -133l-37 129l448 203z" />
    <glyph glyph-name="Acircumflex" unicode="&#xc2;" horiz-adv-x="1337" 
d="M993 481l-164 658l-350 -658h514zM1108 0l-76 303h-641l-164 -303h-223l793 1440h151l383 -1440h-223zM903 1696l-145 -135h-197l289 290h158l196 -290h-196z" />
    <glyph glyph-name="Atilde" unicode="&#xc3;" horiz-adv-x="1337" 
d="M993 481l-164 658l-350 -658h514zM1108 0l-76 303h-641l-164 -303h-223l793 1440h151l383 -1440h-223zM769 1667q-40 0 -83.5 -29t-50.5 -59l-107 98l26 33q111 121 241 121q63 0 136 -50t114.5 -50t61 15t29 23.5t15.5 15.5t12 15t9.5 13.5t7.5 9.5l2 6l104 -94
q-6 -16 -33.5 -51t-93 -75t-136.5 -40t-142.5 49t-111.5 49z" />
    <glyph glyph-name="Adieresis" unicode="&#xc4;" horiz-adv-x="1337" 
d="M993 481l-164 658l-350 -658h514zM1108 0l-76 303h-641l-164 -303h-223l793 1440h151l383 -1440h-223zM1103 1579q-52 0 -83 31.5t-31 86t43 95.5t96.5 41t84 -32t30.5 -86t-44 -95t-96 -41zM684 1581q-53 0 -85 32t-32 86t44 95t97.5 41t83 -31.5t29.5 -86t-42 -95.5
t-95 -41z" />
    <glyph glyph-name="Aring" unicode="&#xc5;" horiz-adv-x="1337" 
d="M993 481l-164 658l-350 -658h514zM1108 0l-76 303h-641l-164 -303h-223l793 1440h151l383 -1440h-223zM995 1742q0 85 -75 85q-37 0 -67 -31t-30 -71t20.5 -63.5t57.5 -23.5t65.5 32t28.5 72zM891 1526q-90 0 -141.5 50t-51.5 139t71 155.5t161 66.5t140 -50t50 -138
t-69.5 -155.5t-159.5 -67.5z" />
    <glyph glyph-name="AE" unicode="&#xc6;" horiz-adv-x="1728" 
d="M512 512h348l105 721zM-33 0l928 1440h913l-24 -189h-610l-62 -432l533 2l-25 -188l-535 -2l-61 -445h631l-27 -186h-842l50 334h-441l-211 -334h-217z" />
    <glyph glyph-name="Ccedilla" unicode="&#xc7;" horiz-adv-x="1312" 
d="M973 1266q-256 0 -413 -174t-157 -451q0 -205 127 -336t333 -131t339 105l84 -160q-170 -129 -409 -137l-29 -58q76 -6 123 -52t47 -122q0 -113 -78 -181.5t-203 -68.5t-202 72l67 106q82 -49 131 -51q109 -6 129 88q10 55 -33 84t-137 17l-18 28l67 144
q-256 31 -407.5 205t-151.5 425q0 360 220.5 600t574.5 240q281 0 471 -135l-121 -168q-145 111 -354 111z" />
    <glyph glyph-name="Egrave" unicode="&#xc8;" horiz-adv-x="1196" 
d="M1270 1251h-707l-59 -428h620l-26 -188h-621l-61 -449h706l-26 -186h-918l203 1440h915zM1120 1688l-63 -129l-428 116l92 201z" />
    <glyph glyph-name="Eacute" unicode="&#xc9;" horiz-adv-x="1196" 
d="M1270 1251h-707l-59 -428h620l-26 -188h-621l-61 -449h706l-26 -186h-918l203 1440h915zM1149 1683l-461 -133l-37 129l449 203z" />
    <glyph glyph-name="Ecircumflex" unicode="&#xca;" horiz-adv-x="1196" 
d="M1270 1251h-707l-59 -428h620l-26 -188h-621l-61 -449h706l-26 -186h-918l203 1440h915zM885 1696l-146 -135h-196l288 290h158l197 -290h-197z" />
    <glyph glyph-name="Edieresis" unicode="&#xcb;" horiz-adv-x="1196" 
d="M1270 1251h-707l-59 -428h620l-26 -188h-621l-61 -449h706l-26 -186h-918l203 1440h915zM1084 1579q-52 0 -82.5 31.5t-30.5 86t43 95.5t96 41t84 -32t31 -86t-44.5 -95t-96.5 -41zM666 1581q-53 0 -85 32t-32 86t44 95t97 41t83 -31.5t30 -86t-42 -95.5t-95 -41z" />
    <glyph glyph-name="Igrave" unicode="&#xcc;" horiz-adv-x="571" 
d="M178 0l203 1440h211l-203 -1440h-211zM692 1559l-428 116l92 201l400 -188z" />
    <glyph glyph-name="Iacute" unicode="&#xcd;" horiz-adv-x="571" 
d="M178 0l203 1440h211l-203 -1440h-211zM324 1550l-37 129l448 203l49 -199z" />
    <glyph glyph-name="Icircumflex" unicode="&#xce;" horiz-adv-x="571" 
d="M178 0l203 1440h211l-203 -1440h-211zM625 1851l196 -290h-196l-105 135l-145 -135h-197l289 290h158z" />
    <glyph glyph-name="Idieresis" unicode="&#xcf;" horiz-adv-x="571" 
d="M178 0l203 1440h211l-203 -1440h-211zM720 1579q-52 0 -83 31.5t-31 86t43 95.5t96.5 41t84 -32t30.5 -86t-44 -95t-96 -41zM301 1581q-53 0 -85 32t-32 86t44 95t97.5 41t83 -31.5t29.5 -86t-42 -95.5t-95 -41z" />
    <glyph glyph-name="Eth" unicode="&#xd0;" horiz-adv-x="1488" 
d="M682 188q289 0 447.5 168t158.5 447q0 205 -117.5 326.5t-326.5 121.5h-279l-63 -454h301l-21 -144h-301l-65 -465h266zM870 1440q295 0 465 -167t170 -446q0 -371 -229 -599t-623 -228h-475l92 653h-145l18 144h148l90 643h489z" />
    <glyph glyph-name="Ntilde" unicode="&#xd1;" horiz-adv-x="1546" 
d="M1360 1440h209l-205 -1456h-123l-702 1083l-152 -1067h-207l205 1454h125l700 -1077zM878 1667q-40 0 -83.5 -29t-51.5 -59l-106 98q8 15 22.5 30t30.5 33q30 32 86.5 61.5t123 29.5t139.5 -50t115 -50t62 15q20 16 28 24q18 17 28 30l18 29l105 -94q-6 -16 -34 -51
t-93.5 -75t-136.5 -40t-142 49t-111 49z" />
    <glyph glyph-name="Ograve" unicode="&#xd2;" horiz-adv-x="1609" 
d="M877 174q222 0 376 167t154 456q0 205 -126 337t-347 132t-377 -170t-156 -457q0 -207 127 -336t349 -129zM865.5 -18q-322.5 0 -504 183t-181.5 458q0 369 222.5 602t544 233t501.5 -182t180 -459q0 -373 -220 -604t-542.5 -231zM1212 1559l-428 116l93 201l399 -188z
" />
    <glyph glyph-name="Oacute" unicode="&#xd3;" horiz-adv-x="1609" 
d="M877 174q222 0 376 167t154 456q0 205 -126 337t-347 132t-377 -170t-156 -457q0 -207 127 -336t349 -129zM865.5 -18q-322.5 0 -504 183t-181.5 458q0 369 222.5 602t544 233t501.5 -182t180 -459q0 -373 -220 -604t-542.5 -231zM844 1550l-37 129l448 203l50 -199z" />
    <glyph glyph-name="Ocircumflex" unicode="&#xd4;" horiz-adv-x="1609" 
d="M877 174q222 0 376 167t154 456q0 205 -126 337t-347 132t-377 -170t-156 -457q0 -207 127 -336t349 -129zM946.5 1458q321.5 0 501.5 -182t180 -459q0 -373 -220 -604t-542.5 -231t-504 183t-181.5 458q0 369 222.5 602t544 233zM1040 1696l-145 -135h-197l289 290h158
l196 -290h-196z" />
    <glyph glyph-name="Otilde" unicode="&#xd5;" horiz-adv-x="1609" 
d="M877 174q222 0 376 167t154 456q0 205 -126 337t-347 132t-377 -170t-156 -457q0 -207 127 -336t349 -129zM865.5 -18q-322.5 0 -504 183t-181.5 458q0 369 222.5 602t544 233t501.5 -182t180 -459q0 -373 -220 -604t-542.5 -231zM1160 1569q-71 0 -142.5 49t-111.5 49
t-83.5 -29t-50.5 -59l-106 98q9 16 39 48q100 106 223 106q67 0 140 -50t114 -50q42 0 62 15q20 16 29 24q11 11 27 30l19 29l104 -94q-6 -16 -33.5 -51t-93 -75t-136.5 -40z" />
    <glyph glyph-name="Odieresis" unicode="&#xd6;" horiz-adv-x="1609" 
d="M877 174q222 0 376 167t154 456q0 205 -126 337t-347 132t-377 -170t-156 -457q0 -207 127 -336t349 -129zM865.5 -18q-322.5 0 -504 183t-181.5 458q0 369 222.5 602t544 233t501.5 -182t180 -459q0 -373 -220 -604t-542.5 -231zM1240 1579q-52 0 -83 31.5t-31 86
t43 95.5t96.5 41t84 -32t30.5 -86t-44 -95t-96 -41zM821 1581q-53 0 -84.5 32t-31.5 86t44 95t97 41t82.5 -31.5t29.5 -86t-42 -95.5t-95 -41z" />
    <glyph glyph-name="multiply" unicode="&#xd7;" horiz-adv-x="985" 
d="M1006 879l-316 -285l230 -287l-132 -114l-229 282l-311 -280l-101 118l314 283l-232 287l136 114l227 -282l315 282z" />
    <glyph glyph-name="Oslash" unicode="&#xd8;" horiz-adv-x="1609" 
d="M868 174q231 0 385 167t154 456q0 174 -90 295l-719 -844q112 -74 270 -74zM401 639q0 -170 88 -289l719 844q-115 72 -264 72q-231 0 -387 -170t-156 -457zM1628 817q0 -373 -220 -604t-560 -231q-223 0 -387 104l-135 -158l-115 97l135 157q-166 176 -166 441
q0 369 222.5 602t560.5 233q221 0 385 -102l129 151l112 -96l-127 -149q166 -178 166 -445z" />
    <glyph glyph-name="Ugrave" unicode="&#xd9;" horiz-adv-x="1490" 
d="M750 -18q-268 0 -408.5 161.5t-97.5 456.5l118 840h213l-118 -856q-25 -180 57 -294t259 -114t291 113.5t138 294.5l121 856h209l-117 -840q-43 -297 -220 -457.5t-445 -160.5zM1155 1559l-428 116l92 201l400 -188z" />
    <glyph glyph-name="Uacute" unicode="&#xda;" horiz-adv-x="1490" 
d="M750 -18q-268 0 -408.5 161.5t-97.5 456.5l118 840h213l-118 -856q-25 -180 57 -294t259 -114t291 113.5t138 294.5l121 856h209l-117 -840q-43 -297 -220 -457.5t-445 -160.5zM786 1550l-36 129l448 203l49 -199z" />
    <glyph glyph-name="Ucircumflex" unicode="&#xdb;" horiz-adv-x="1490" 
d="M750 -18q-268 0 -408.5 161.5t-97.5 456.5l118 840h213l-118 -856q-25 -180 57 -294t259 -114t291 113.5t138 294.5l121 856h209l-117 -840q-43 -297 -220 -457.5t-445 -160.5zM983 1696l-145 -135h-197l289 290h157l197 -290h-197z" />
    <glyph glyph-name="Udieresis" unicode="&#xdc;" horiz-adv-x="1490" 
d="M750 -18q-268 0 -408.5 161.5t-97.5 456.5l118 840h213l-118 -856q-25 -180 57 -294t259 -114t291 113.5t138 294.5l121 856h209l-117 -840q-43 -297 -220 -457.5t-445 -160.5zM1183 1579q-52 0 -83 31.5t-31 86t43 95.5t96 41t84 -32t31 -86t-44 -95t-96 -41zM764 1581
q-53 0 -85 32t-32 86t44 95t97.5 41t83 -31.5t29.5 -86t-42 -95.5t-95 -41z" />
    <glyph glyph-name="Yacute" unicode="&#xdd;" horiz-adv-x="1286" 
d="M1462 1440l-635 -873l-79 -567h-213l81 573l-385 867h250l273 -662l463 662h245zM1153 1683l-461 -133l-37 129l449 203z" />
    <glyph glyph-name="Thorn" unicode="&#xde;" horiz-adv-x="1284" 
d="M700 418q172 0 278 96q105 96 105 250q-1 118 -79 188t-220 70h-241l-84 -604h241zM827 1227q225 0 355 -117t131 -317q0 -256 -175 -414t-456 -158h-252l-31 -221h-221l203 1440h221l-31 -213h256z" />
    <glyph glyph-name="germandbls" unicode="&#xdf;" horiz-adv-x="1099" 
d="M1104 470q0 -220 -133 -354t-334 -134q-121 0 -207 38l68 181q56 -29 152 -29t172 75t77 185q0 110 -60 162t-163 53h-105l23 160h14q123 0 200 78t77 175t-47 146t-130 49t-148 -58t-79 -153l-145 -1044h-205l150 1059q25 172 155 286q131 113 301 113t260 -91t90 -241
q0 -231 -182 -354q199 -82 199 -302z" />
    <glyph glyph-name="agrave" unicode="&#xe0;" horiz-adv-x="1148" 
d="M609 168q130 0 208 96t78 230.5t-67.5 207t-186.5 72.5t-207 -95t-88 -229.5t66.5 -208t196.5 -73.5zM139 408q0 244 147.5 397t350.5 153t305 -129l25 113h184l-133 -942h-180l10 106q-115 -125 -300 -124.5t-297 120t-112 306.5zM963 1192l-84 -117l-363 199l119 166z
" />
    <glyph glyph-name="aacute" unicode="&#xe1;" horiz-adv-x="1148" 
d="M609 168q130 0 208 96t78 230.5t-67.5 207t-186.5 72.5t-207 -95t-88 -229.5t66.5 -208t196.5 -73.5zM139 408q0 244 147.5 397t350.5 153t305 -129l25 113h184l-133 -942h-180l10 106q-115 -125 -300 -124.5t-297 120t-112 306.5zM985 1274l-414 -199l-57 117l395 246z
" />
    <glyph glyph-name="acircumflex" unicode="&#xe2;" horiz-adv-x="1148" 
d="M609 168q130 0 208 96t78 230.5t-67.5 207t-186.5 72.5t-207 -95t-88 -229.5t66.5 -208t196.5 -73.5zM139 408q0 244 147.5 397t350.5 153t305 -129l25 113h184l-133 -942h-180l10 106q-115 -125 -300 -124.5t-297 120t-112 306.5zM750 1264l-150 -172h-184l280 327h158
l180 -327h-180z" />
    <glyph glyph-name="atilde" unicode="&#xe3;" horiz-adv-x="1148" 
d="M609 168q130 0 208 96t78 230.5t-67.5 207t-186.5 72.5t-207 -95t-88 -229.5t66.5 -208t196.5 -73.5zM139 408q0 244 147.5 397t350.5 153t305 -129l25 113h184l-133 -942h-180l10 106q-115 -125 -300 -124.5t-297 120t-112 306.5zM624 1219q-36 0 -66 -19.5t-38 -32
t-24 -39.5l-111 86q100 174 242 175q76 0 148.5 -52.5t113.5 -52.5q70 0 123 92l104 -82q-25 -55 -91.5 -116.5t-145 -61.5t-149 51.5t-106.5 51.5z" />
    <glyph glyph-name="adieresis" unicode="&#xe4;" horiz-adv-x="1148" 
d="M609 168q130 0 208 96t78 230.5t-67.5 207t-186.5 72.5t-207 -95t-88 -229.5t66.5 -208t196.5 -73.5zM139 408q0 244 147.5 397t350.5 153t305 -129l25 113h184l-133 -942h-180l10 106q-115 -125 -300 -124.5t-297 120t-112 306.5zM951 1141q-54 0 -84.5 31.5t-30.5 86.5
t42 95.5t95 40.5t83.5 -32t30.5 -88t-41 -95t-95 -39zM533 1143q-54 0 -85.5 31.5t-31.5 86.5t42 95.5t96 40.5t85 -32t31 -88t-41.5 -95t-95.5 -39z" />
    <glyph glyph-name="aring" unicode="&#xe5;" horiz-adv-x="1148" 
d="M609 168q130 0 208 96t78 230.5t-67.5 207t-186.5 72.5t-207 -95t-88 -229.5t66.5 -208t196.5 -73.5zM139 408q0 244 147.5 397t350.5 153t305 -129l25 113h184l-133 -942h-180l10 106q-115 -125 -300 -124.5t-297 120t-112 306.5zM666 1268q0 -88 80 -88q38 0 68 30.5
t30 79.5q0 80 -80 80q-39 0 -68.5 -29.5t-29.5 -72.5zM734 1067q-91 0 -142 50t-51 139t71.5 158t162.5 69t141.5 -51.5t50.5 -140.5t-71 -156.5t-162 -67.5z" />
    <glyph glyph-name="ae" unicode="&#xe6;" horiz-adv-x="1853" 
d="M609 168q130 0 208 96t78 230.5t-67.5 207t-186.5 72.5t-207 -95t-88 -229.5t66.5 -208t196.5 -73.5zM1443 786q-101 0 -175 -58t-103 -163h492v15q0 98 -56.5 152t-157.5 54zM1851 573q0 -99 -18 -153h-686q4 -119 72.5 -189.5t193.5 -70.5t244 86l88 -140
q-158 -125 -372 -124.5t-333 145.5l-34 -127h-142v127q-115 -145 -308 -145t-305 119.5t-112 308.5q0 244 147.5 396t352.5 152t307 -135l29 119h141l-4 -119q145 135 338.5 135t297 -104.5t103.5 -280.5z" />
    <glyph glyph-name="ccedilla" unicode="&#xe7;" horiz-adv-x="919" 
d="M750 -256q0 -113 -77 -178.5t-198 -65.5q-59 0 -110.5 17.5t-73.5 36.5l-23 16l68 108q80 -51 137 -51q125 0 125 103q0 86 -133 86q-10 0 -43 -4l-19 28l74 150q-160 31 -250 143.5t-90 272.5q0 246 154.5 400.5t368 154.5t321.5 -101l-107 -160q-82 74 -215.5 74
t-224 -94t-90.5 -252q0 -117 68.5 -188.5t181 -71.5t213.5 65l86 -145q-47 -33 -74.5 -48t-90 -35.5t-130.5 -22.5l-33 -64q86 -4 135.5 -50t49.5 -124z" />
    <glyph glyph-name="egrave" unicode="&#xe8;" horiz-adv-x="1044" 
d="M637 786q-100 0 -174 -57t-105 -160h492v17q0 94 -56.5 147t-156.5 53zM1047 580q0 -91 -21 -154h-686q2 -121 71.5 -193.5t194.5 -72.5t244 86l88 -140q-154 -125 -358.5 -124.5t-322.5 119t-118 307.5q0 246 147.5 398t368.5 152q182 0 287 -103t105 -275zM915 1192
l-84 -117l-362 199l119 166z" />
    <glyph glyph-name="eacute" unicode="&#xe9;" horiz-adv-x="1044" 
d="M637 786q-100 0 -174 -57t-105 -160h492v17q0 94 -56.5 147t-156.5 53zM1047 580q0 -91 -21 -154h-686q2 -121 71.5 -193.5t194.5 -72.5t244 86l88 -140q-154 -125 -358.5 -124.5t-322.5 119t-118 307.5q0 246 147.5 398t368.5 152q182 0 287 -103t105 -275zM938 1274
l-414 -199l-57 117l395 246z" />
    <glyph glyph-name="ecircumflex" unicode="&#xea;" horiz-adv-x="1044" 
d="M637 786q-100 0 -174 -57t-105 -160h492v17q0 94 -56.5 147t-156.5 53zM1047 580q0 -91 -21 -154h-686q2 -121 71.5 -193.5t194.5 -72.5t244 86l88 -140q-154 -125 -358.5 -124.5t-322.5 119t-118 307.5q0 246 147.5 398t368.5 152q182 0 287 -103t105 -275zM702 1264
l-149 -172h-184l280 327h158l180 -327h-180z" />
    <glyph glyph-name="edieresis" unicode="&#xeb;" horiz-adv-x="1044" 
d="M637 786q-100 0 -174 -57t-105 -160h492v17q0 94 -56.5 147t-156.5 53zM1047 580q0 -91 -21 -154h-686q2 -121 71.5 -193.5t194.5 -72.5t244 86l88 -140q-154 -125 -358.5 -124.5t-322.5 119t-118 307.5q0 246 147.5 398t368.5 152q182 0 287 -103t105 -275zM904 1141
q-54 0 -85 31.5t-31 86.5t42 95.5t95.5 40.5t84 -32t30.5 -88t-41 -95t-95 -39zM486 1143q-54 0 -85.5 31.5t-31.5 86.5t42 95.5t96 40.5t85 -32t31 -88t-41.5 -95t-95.5 -39z" />
    <glyph glyph-name="igrave" unicode="&#xec;" horiz-adv-x="473" 
d="M133 0l135 942h205l-133 -942h-207zM539 1075l-363 199l119 166l328 -248z" />
    <glyph glyph-name="iacute" unicode="&#xed;" horiz-adv-x="473" 
d="M133 0l135 942h205l-133 -942h-207zM231 1075l-57 117l395 246l76 -164z" />
    <glyph glyph-name="icircumflex" unicode="&#xee;" horiz-adv-x="473" 
d="M133 0l135 942h205l-133 -942h-207zM514 1419l180 -327h-180l-104 172l-150 -172h-184l280 327h158z" />
    <glyph glyph-name="idieresis" unicode="&#xef;" horiz-adv-x="473" 
d="M133 0l135 942h205l-133 -942h-207zM611 1141q-54 0 -84.5 31.5t-30.5 86.5t42 95.5t95 40.5t84 -32t31 -88t-41.5 -95t-95.5 -39zM193 1143q-54 0 -85.5 31.5t-31.5 86.5t42 95.5t96 40.5t85 -32t31 -88t-41.5 -95t-95.5 -39z" />
    <glyph glyph-name="eth" unicode="&#xf0;" horiz-adv-x="1138" 
d="M350 450q0 -132 72 -210q72 -76 198 -76q127 0 215 83q87 83 87 225t-72 215t-201 73t-214 -89t-85 -221zM596 -18q-201 0 -323 120q-121 120 -121 330q0 209 140 354t347 146q164 0 272 -98q-51 182 -209 319l-157 -145l-76 77l145 136q-61 45 -153 94l131 147
q92 -53 166 -108l153 143l78 -78l-147 -137q289 -268 288 -676q0 -280 -138 -452t-396 -172z" />
    <glyph glyph-name="ntilde" unicode="&#xf1;" horiz-adv-x="1134" 
d="M756 961q178 0 269 -120t62 -319l-73 -522h-203l70 496q18 131 -36 205.5t-158.5 74.5t-175.5 -61.5t-95 -159.5l-80 -555h-205l133 942h156l-10 -158q117 177 346 177zM634 1219q-36 0 -65.5 -19.5t-38 -32t-24.5 -39.5l-111 86q100 174 242 175q76 0 148.5 -52.5
t113.5 -52.5q70 0 123 92l104 -82q-25 -55 -91 -116.5t-145 -61.5t-149.5 51.5t-106.5 51.5z" />
    <glyph glyph-name="ograve" unicode="&#xf2;" horiz-adv-x="1105" 
d="M605 168q120 0 205 98.5t85 229.5t-70.5 204.5t-190.5 73.5t-205 -99.5t-85 -230.5t70.5 -203.5t190.5 -72.5zM588 -18q-208 0 -329.5 119.5t-121.5 310.5q0 240 151.5 393t362 153t331 -118.5t120.5 -311.5q0 -238 -153 -392t-361 -154zM856 1075l-362 199l118 166
l328 -248z" />
    <glyph glyph-name="oacute" unicode="&#xf3;" horiz-adv-x="1105" 
d="M605 168q120 0 205 98.5t85 229.5t-70.5 204.5t-190.5 73.5t-205 -99.5t-85 -230.5t70.5 -203.5t190.5 -72.5zM588 -18q-208 0 -329.5 119.5t-121.5 310.5q0 240 151.5 393t362 153t331 -118.5t120.5 -311.5q0 -238 -153 -392t-361 -154zM549 1075l-57 117l395 246
l76 -164z" />
    <glyph glyph-name="ocircumflex" unicode="&#xf4;" horiz-adv-x="1105" 
d="M605 168q120 0 205 98.5t85 229.5t-70.5 204.5t-190.5 73.5t-205 -99.5t-85 -230.5t70.5 -203.5t190.5 -72.5zM651 958q210 0 330.5 -118.5t120.5 -311.5q0 -238 -152.5 -392t-361 -154t-330 119.5t-121.5 310.5q0 240 152 393t362 153zM727 1264l-149 -172h-185l281 327
h157l181 -327h-181z" />
    <glyph glyph-name="otilde" unicode="&#xf5;" horiz-adv-x="1105" 
d="M605 168q120 0 205 98.5t85 229.5t-70.5 204.5t-190.5 73.5t-205 -99.5t-85 -230.5t70.5 -203.5t190.5 -72.5zM588 -18q-208 0 -329.5 119.5t-121.5 310.5q0 240 151.5 393t362 153t331 -118.5t120.5 -311.5q0 -238 -153 -392t-361 -154zM857 1116q-79 0 -149.5 51.5
t-106.5 51.5t-65.5 -19.5t-38 -32t-24.5 -39.5l-111 86q100 174 242 175q76 0 148.5 -52.5t113.5 -52.5q70 0 123 92l105 -82q-25 -55 -91.5 -116.5t-145.5 -61.5z" />
    <glyph glyph-name="odieresis" unicode="&#xf6;" horiz-adv-x="1105" 
d="M605 168q120 0 205 98.5t85 229.5t-70.5 204.5t-190.5 73.5t-205 -99.5t-85 -230.5t70.5 -203.5t190.5 -72.5zM588 -18q-208 0 -329.5 119.5t-121.5 310.5q0 240 151.5 393t362 153t331 -118.5t120.5 -311.5q0 -238 -153 -392t-361 -154zM929 1141q-54 0 -85 31.5
t-31 86.5t42 95.5t95 40.5t84 -32t31 -88t-41 -95t-95 -39zM511 1143q-54 0 -86 31.5t-32 86.5t42 95.5t96.5 40.5t85 -32t30.5 -88t-41 -95t-95 -39z" />
    <glyph glyph-name="divide" unicode="&#xf7;" horiz-adv-x="1079" 
d="M584 324q106 0 104 -106q0 -52 -37 -89t-88 -37q-107 0 -105 106q0 52 38 88q37 38 88 38zM190 518l25 166h852l-25 -166h-852zM691 1081q104 0 104 -105q0 -52 -37 -89t-88 -37q-105 0 -105 106q0 52 38 88q38 37 88 37z" />
    <glyph glyph-name="oslash" unicode="&#xf8;" horiz-adv-x="1105" 
d="M895 508q0 80 -33 141l-393 -450q55 -31 125 -31q131 0 216 98.5t85 241.5zM344 432q0 -78 33 -139l393 450q-55 31 -123 31q-133 0 -218 -99.5t-85 -242.5zM1102 528q0 -238 -152.5 -392t-376.5 -154q-133 0 -239 61l-111 -127l-100 88l110 125q-96 115 -96 283
q0 240 151.5 393t377.5 153q133 0 239 -61l109 125l96 -88l-104 -121q96 -113 96 -285z" />
    <glyph glyph-name="ugrave" unicode="&#xf9;" horiz-adv-x="1118" 
d="M578 178q98 0 169.5 72t94.5 172l73 520h205l-133 -942h-166l15 135q-106 -154 -318 -153q-184 0 -275 115.5t-63 322.5l74 522h203l-68 -485q-37 -279 189 -279zM936 1192l-84 -117l-363 199l119 166z" />
    <glyph glyph-name="uacute" unicode="&#xfa;" horiz-adv-x="1118" 
d="M578 178q98 0 169.5 72t94.5 172l73 520h205l-133 -942h-166l15 135q-106 -154 -318 -153q-184 0 -275 115.5t-63 322.5l74 522h203l-68 -485q-37 -279 189 -279zM958 1274l-413 -199l-58 117l396 246z" />
    <glyph glyph-name="ucircumflex" unicode="&#xfb;" horiz-adv-x="1118" 
d="M578 178q98 0 169.5 72t94.5 172l73 520h205l-133 -942h-166l15 135q-106 -154 -318 -153q-184 0 -275 115.5t-63 322.5l74 522h203l-68 -485q-37 -279 189 -279zM723 1264l-150 -172h-184l281 327h157l181 -327h-181z" />
    <glyph glyph-name="udieresis" unicode="&#xfc;" horiz-adv-x="1118" 
d="M578 178q98 0 169.5 72t94.5 172l73 520h205l-133 -942h-166l15 135q-106 -154 -318 -153q-184 0 -275 115.5t-63 322.5l74 522h203l-68 -485q-37 -279 189 -279zM925 1141q-54 0 -85 31.5t-31 86.5t42 95.5t95 40.5t84 -32t31 -88t-41 -95t-95 -39zM507 1143
q-54 0 -86 31.5t-32 86.5t42 95.5t96 40.5t85 -32t31 -88t-41 -95t-95 -39z" />
    <glyph glyph-name="yacute" unicode="&#xfd;" horiz-adv-x="1013" 
d="M1130 942l-501 -926l-221 -415h-211l219 403l-256 938h229l166 -709l354 709h221zM932 1274l-414 -199l-57 117l395 246z" />
    <glyph glyph-name="thorn" unicode="&#xfe;" horiz-adv-x="1148" 
d="M389 446q1 -134 67 -206t193 -72t207 98t80 230t-69 204q-69 74 -191 74t-204 -97q-83 -97 -83 -231zM1143 535q0 -236 -139 -395t-363 -158q-109 0 -185 44t-106 101l-78 -526h-194l260 1861h194l-88 -631q43 51 121 89t178 38q180 0 290 -118t110 -305z" />
    <glyph glyph-name="ydieresis" unicode="&#xff;" horiz-adv-x="1013" 
d="M1130 942l-501 -926l-221 -415h-211l219 403l-256 938h229l166 -709l354 709h221zM898 1141q-54 0 -85 31.5t-31 86.5t42 95.5t95.5 40.5t84 -32t30.5 -88t-41 -95t-95 -39zM480 1143q-54 0 -86 31.5t-32 86.5t42 95.5t96.5 40.5t85 -32t30.5 -88t-41 -95t-95 -39z" />
    <glyph glyph-name="Amacron" unicode="&#x100;" horiz-adv-x="1337" 
d="M993 481l-164 658l-350 -658h514zM1108 0l-76 303h-641l-164 -303h-223l793 1440h151l383 -1440h-223zM1235 1757l-23 -160h-641l23 160h641z" />
    <glyph glyph-name="amacron" unicode="&#x101;" horiz-adv-x="1148" 
d="M609 168q130 0 208 96t78 230.5t-67.5 207t-186.5 72.5t-207 -95t-88 -229.5t66.5 -208t196.5 -73.5zM139 408q0 244 147.5 397t350.5 153t305 -129l25 113h184l-133 -942h-180l10 106q-115 -125 -300 -124.5t-297 120t-112 306.5zM1057 1317l-23 -162h-590l23 162h590z
" />
    <glyph glyph-name="Abreve" unicode="&#x102;" horiz-adv-x="1337" 
d="M993 481l-164 658l-350 -658h514zM1108 0l-76 303h-641l-164 -303h-223l793 1440h151l383 -1440h-223zM886 1571q-130 0 -197.5 74.5t-51.5 199.5h160q-8 -59 22.5 -95t88 -36t96 36t47.5 95h161q-16 -125 -106 -199.5t-220 -74.5z" />
    <glyph glyph-name="abreve" unicode="&#x103;" horiz-adv-x="1148" 
d="M609 168q130 0 208 96t78 230.5t-67.5 207t-186.5 72.5t-207 -95t-88 -229.5t66.5 -208t196.5 -73.5zM139 408q0 244 147.5 397t350.5 153t305 -129l25 113h184l-133 -942h-180l10 106q-115 -125 -300 -124.5t-297 120t-112 306.5zM728 1096q-132 0 -202.5 85t-50.5 226
h158q-10 -78 21.5 -125t94 -47t108.5 48t54 124h158q-20 -141 -114.5 -226t-226.5 -85z" />
    <glyph glyph-name="Aogonek" unicode="&#x104;" horiz-adv-x="1337" 
d="M993 481l-164 658l-350 -658h514zM1187 -473q-95 0 -154.5 53t-59.5 139q0 162 168 281h-33l-76 303h-641l-164 -303h-223l793 1440h151l383 -1440h-18q-7 -4 -19 -11q-43 -24 -99 -85t-56 -145.5t82 -84.5q42 0 73 25l60 -119q-72 -53 -167 -53z" />
    <glyph glyph-name="aogonek" unicode="&#x105;" horiz-adv-x="1148" 
d="M609 168q130 0 208 96t78 230.5t-67.5 207t-186.5 72.5t-207 -95t-88 -229.5t66.5 -208t196.5 -73.5zM817 -256q0 -86 84 -86q39 0 76 29l43 -111q-84 -61 -174 -61t-140.5 48t-50.5 130q0 174 183 309l10 104q-115 -125 -300 -124.5t-297 120t-112 306.5
q0 244 147.5 397t350.5 153t305 -129l25 113h184l-133 -942q-124 -62 -180 -171q-22 -42 -21 -85z" />
    <glyph glyph-name="Cacute" unicode="&#x106;" horiz-adv-x="1312" 
d="M824.5 -18q-281.5 0 -462 179t-180.5 457q0 360 220.5 600t574.5 240q281 0 471 -135l-121 -168q-145 111 -354 111q-256 0 -413 -174t-157 -451q0 -205 127 -336t333 -131t339 105l84 -160q-180 -137 -461.5 -137zM815 1550l-37 129l449 203l49 -199z" />
    <glyph glyph-name="cacute" unicode="&#x107;" horiz-adv-x="919" 
d="M580 -18q-203 0 -323 118.5t-120 305.5q0 246 154.5 400.5t368.5 154.5t321 -101l-107 -160q-82 74 -216 74t-224 -94t-90 -252q0 -116 68 -188q70 -72 182 -72t213 65l86 -145q-47 -33 -77 -50.5t-96 -36.5t-140 -19zM530 1075l-57 117l395 246l76 -164z" />
    <glyph glyph-name="Cdotaccent" unicode="&#x10a;" horiz-adv-x="1312" 
d="M824.5 -18q-281.5 0 -462 179t-180.5 457q0 360 220.5 600t574.5 240q281 0 471 -135l-121 -168q-145 111 -354 111q-256 0 -413 -174t-157 -451q0 -205 127 -336t333 -131t339 105l84 -160q-180 -137 -461.5 -137zM1001 1569q-55 0 -87.5 33.5t-32.5 90t45 100.5t100 44
t87 -34t32 -90t-44.5 -100t-99.5 -44z" />
    <glyph glyph-name="cdotaccent" unicode="&#x10b;" horiz-adv-x="919" 
d="M580 -18q-203 0 -323 118.5t-120 305.5q0 246 154.5 400.5t368 154.5t321.5 -101l-107 -160q-82 74 -215.5 74t-224 -94t-90.5 -252q0 -117 68.5 -188.5t181 -71.5t213.5 65l86 -145q-47 -33 -77 -50.5t-96 -36.5t-140 -19zM700.5 1122q-63.5 0 -101.5 35t-38 96.5
t43 103.5t105.5 42t100.5 -35t38 -95.5t-42 -103.5t-105.5 -43z" />
    <glyph glyph-name="Ccaron" unicode="&#x10c;" horiz-adv-x="1312" 
d="M973 1266q-256 0 -413 -174t-157 -451q0 -205 127 -336t333 -131t339 105l84 -160q-180 -137 -462 -137t-462 179t-180 457q0 360 220.5 600t574.5 240q281 0 471 -135l-121 -168q-145 111 -354 111zM1071 1561h-158l-196 290h196l107 -135l145 135h195z" />
    <glyph glyph-name="ccaron" unicode="&#x10d;" horiz-adv-x="919" 
d="M659 774q-134 0 -224.5 -94t-90.5 -252q0 -117 68.5 -188.5t181 -71.5t213.5 65l86 -145q-47 -33 -77 -50.5t-96.5 -36.5t-139.5 -19q-203 0 -323 118.5t-120 305.5q0 246 154.5 400.5t368 154.5t321.5 -101l-107 -160q-81 74 -215 74zM760 1092h-158l-180 327h180
l105 -172l151 172h182z" />
    <glyph glyph-name="Dcaron" unicode="&#x10e;" horiz-adv-x="1488" 
d="M682 188q289 0 447.5 168t158.5 447q0 205 -117.5 326.5t-326.5 121.5h-279l-149 -1063h266zM870 1440q295 0 465 -167t170 -446q0 -371 -229 -599t-623 -228h-475l203 1440h489zM1018 1561h-158l-196 290h196l107 -135l145 135h195z" />
    <glyph glyph-name="dcaron" unicode="&#x10f;" horiz-adv-x="1249" 
d="M609 168q128 0 207 97t79 229.5t-66.5 206t-189.5 73.5t-209 -97t-86 -230.5t68.5 -206t196.5 -72.5zM1431.5 1462q61.5 0 93 -33.5t31.5 -93.5q0 -98 -68.5 -198.5t-172.5 -153.5l-51 68q47 33 86 81t43 82q-4 -2 -34 -2t-54.5 27t-24.5 82.5t45 98t106.5 42.5zM549 -18
q-186 0 -298 120.5t-112 331.5t140.5 367.5t361.5 156.5q187 1 291 -124l88 628h203l-205 -1462h-170l10 111q-123 -129 -309 -129z" />
    <glyph glyph-name="Dcroat" unicode="&#x110;" horiz-adv-x="1488" 
d="M682 188q289 0 447.5 168t158.5 447q0 205 -117.5 326.5t-326.5 121.5h-279l-63 -454h301l-21 -144h-301l-65 -465h266zM870 1440q295 0 465 -167t170 -446q0 -371 -229 -599t-623 -228h-475l92 653h-145l18 144h148l90 643h489z" />
    <glyph glyph-name="dcroat" unicode="&#x111;" horiz-adv-x="1148" 
d="M609 168q128 0 207 97t79 229.5t-66.5 206t-189.5 73.5t-209 -97t-86 -230.5t68.5 -206t196.5 -72.5zM549 -18q-186 0 -298 120.5t-112 331.5t140.5 367.5t361.5 156.5q186 0 291 -124l45 315h-303l16 143h305l25 170h203l-25 -170h115l-21 -143h-112l-162 -1149h-170
l10 111q-123 -129 -309 -129z" />
    <glyph glyph-name="Emacron" unicode="&#x112;" horiz-adv-x="1196" 
d="M1270 1251h-707l-59 -428h620l-26 -188h-621l-61 -449h706l-26 -186h-918l203 1440h915zM1217 1757l-23 -160h-641l22 160h642z" />
    <glyph glyph-name="emacron" unicode="&#x113;" horiz-adv-x="1044" 
d="M637 786q-100 0 -174 -57t-105 -160h492v17q0 94 -56.5 147t-156.5 53zM1047 580q0 -91 -21 -154h-686q2 -121 71.5 -193.5t194.5 -72.5t244 86l88 -140q-154 -125 -358.5 -124.5t-322.5 119t-118 307.5q0 246 147.5 398t368.5 152q182 0 287 -103t105 -275zM1010 1317
l-23 -162h-590l23 162h590z" />
    <glyph glyph-name="Edotaccent" unicode="&#x116;" horiz-adv-x="1196" 
d="M1270 1251h-707l-59 -428h620l-26 -188h-621l-61 -449h706l-26 -186h-918l203 1440h915zM874 1569q-55 0 -87.5 33.5t-32.5 90t45 100.5t100 44t87 -34t32 -90t-44.5 -100t-99.5 -44z" />
    <glyph glyph-name="edotaccent" unicode="&#x117;" horiz-adv-x="1044" 
d="M637 786q-100 0 -174 -57t-105 -160h492v17q0 94 -56.5 147t-156.5 53zM1047 580q0 -91 -21 -154h-686q2 -121 71.5 -193.5t194.5 -72.5t244 86l88 -140q-154 -125 -358.5 -124.5t-322.5 119t-118 307.5q0 246 147.5 398t368.5 152q182 0 287 -103t105 -275zM694.5 1122
q-63.5 0 -101.5 35t-38 96.5t43 103.5t105.5 42t100.5 -35t38 -95.5t-42 -103.5t-105.5 -43z" />
    <glyph glyph-name="Eogonek" unicode="&#x118;" horiz-adv-x="1196" 
d="M1004 -326q43 0 73 25l60 -119q-72 -53 -167 -53t-154.5 53t-59.5 139q0 162 168 281h-746l203 1440h915l-26 -189h-707l-59 -428h620l-26 -188h-621l-61 -449h706l-26 -186q-6 -4 -18 -11q-42 -23 -99 -83.5t-57 -146t82 -85.5z" />
    <glyph glyph-name="eogonek" unicode="&#x119;" horiz-adv-x="1044" 
d="M637 786q-100 0 -174 -57t-105 -160h492v17q0 94 -56.5 147t-156.5 53zM737 -150q0 -86 84 -86q39 0 76 29l43 -110q-84 -61 -174 -61.5t-140.5 47.5t-50.5 137t60 178q-18 -2 -55 -2q-205 0 -323 118.5t-118 307.5q0 246 147.5 398t368.5 152q182 0 287 -103t105 -275
q0 -91 -21 -154h-686q2 -121 71.5 -193.5t194.5 -72.5t244 86l88 -140q-39 -33 -84 -57q-117 -94 -117 -199z" />
    <glyph glyph-name="Ecaron" unicode="&#x11a;" horiz-adv-x="1196" 
d="M1270 1251h-707l-59 -428h620l-26 -188h-621l-61 -449h706l-26 -186h-918l203 1440h915zM944 1561h-158l-196 290h196l107 -135l145 135h195z" />
    <glyph glyph-name="ecaron" unicode="&#x11b;" horiz-adv-x="1044" 
d="M637 786q-100 0 -174 -57t-105 -160h492v17q0 94 -56.5 147t-156.5 53zM1047 580q0 -91 -21 -154h-686q2 -121 71.5 -193.5t194.5 -72.5t244 86l88 -140q-154 -125 -358.5 -124.5t-322.5 119t-118 307.5q0 246 147.5 398t368.5 152q182 0 287 -103t105 -275zM754 1092
h-158l-180 327h180l104 -172l152 172h182z" />
    <glyph glyph-name="Gbreve" unicode="&#x11e;" horiz-adv-x="1437" 
d="M830 -18q-288 0 -469 180t-181 459q0 365 222.5 601t582.5 236q299 0 473 -141l-117 -164q-137 113 -378.5 113t-401.5 -170t-160 -451q0 -209 129 -340t334 -131q164 0 303 68l62 444h203l-78 -557q-236 -147 -524 -147zM1013 1571q-130 0 -197.5 74.5t-51.5 199.5h160
q-8 -59 22.5 -95t88 -36t96 36t47.5 95h161q-16 -125 -106 -199.5t-220 -74.5z" />
    <glyph glyph-name="gbreve" unicode="&#x11f;" horiz-adv-x="1146" 
d="M606 168q127 0 207 95t80 229.5t-66.5 208t-190.5 73.5t-209 -98t-85 -229.5t68.5 -205t195.5 -73.5zM473 -418q-244 0 -395 121l110 152q133 -96 292 -96.5t239 76.5t98 202l6 45q-111 -100 -283.5 -100t-287.5 116.5t-115 300.5q0 244 142.5 401.5t350.5 157.5
t310 -131l25 113h182l-125 -885q-29 -215 -167 -344t-382 -129zM710 1096q-132 0 -203 85t-50 226h157q-10 -78 22 -125t94 -47t108.5 48t54.5 124h158q-20 -141 -114.5 -226t-226.5 -85z" />
    <glyph glyph-name="Gdotaccent" unicode="&#x120;" horiz-adv-x="1437" 
d="M830 -18q-288 0 -469 180t-181 459q0 365 222.5 601t582.5 236q299 0 473 -141l-117 -164q-137 113 -378.5 113t-401.5 -170t-160 -451q0 -209 129 -340t334 -131q164 0 303 68l62 444h203l-78 -557q-236 -147 -524 -147zM1020 1569q-55 0 -88 33.5t-33 90t45 100.5
t100.5 44t87 -34t31.5 -90t-44 -100t-99 -44z" />
    <glyph glyph-name="gdotaccent" unicode="&#x121;" horiz-adv-x="1146" 
d="M606 168q127 0 207 95t80 229.5t-66.5 208t-190.5 73.5t-209 -98t-85 -229.5t68.5 -205t195.5 -73.5zM473 -418q-244 0 -395 121l110 152q133 -96 292 -96.5t239 76.5t98 202l6 45q-111 -100 -283.5 -100t-287.5 116.5t-115 300.5q0 244 142.5 401.5t350.5 157.5
t310 -131l25 113h182l-125 -885q-29 -215 -167 -344t-382 -129zM723.5 1122q-63.5 0 -101.5 35t-38 96.5t43 103.5t105 42t100 -35t38 -95.5t-41.5 -103.5t-105 -43z" />
    <glyph glyph-name="Gcommaaccent" unicode="&#x122;" horiz-adv-x="1437" 
d="M819 -78q61 0 97 -39t36 -116.5t-50 -156.5t-132 -120l-59 64q39 29 68.5 67.5t29.5 65.5q-6 -2 -36 -2t-58.5 31.5t-29.5 82.5t36 87t98 36zM830 -18q-288 0 -469 180t-181 459q0 365 222.5 601t582.5 236q299 0 473 -141l-117 -164q-137 113 -378.5 113t-401.5 -170
t-160 -451q0 -209 129 -340t334 -131q164 0 303 68l62 444h203l-78 -557q-236 -147 -524 -147z" />
    <glyph glyph-name="gcommaaccent" unicode="&#x123;" horiz-adv-x="1146" 
d="M606 168q127 0 207 95t80 229.5t-66.5 208t-190.5 73.5t-209 -98t-85 -229.5t68.5 -205t195.5 -73.5zM473 -418q-244 0 -395 121l110 152q133 -96 292 -96.5t239 76.5t98 202l6 45q-111 -100 -283.5 -100t-287.5 116.5t-115 300.5q0 244 142.5 401.5t350.5 157.5
t310 -131l25 113h182l-125 -885q-29 -215 -167 -344t-382 -129zM709 1042q-59 0 -89 34t-30 89q0 96 63.5 190.5t157.5 145.5l49 -67q-104 -86 -115 -154q6 2 33 2t51.5 -27.5t24.5 -79.5t-43 -92.5t-102 -40.5z" />
    <glyph glyph-name="Hbar" unicode="&#x126;" horiz-adv-x="1562" 
d="M1286 819l35 246h-782l-35 -246h782zM1720 1221l-24 -156h-164l-150 -1065h-211l89 631h-783l-88 -631h-211l150 1065h-144l23 156h143l31 219h211l-31 -219h782l31 219h211l-31 -219h166z" />
    <glyph glyph-name="hbar" unicode="&#x127;" horiz-adv-x="1136" 
d="M750 961q182 0 273 -120t64 -319l-73 -522h-205l70 496q20 131 -34 205.5t-159.5 74.5t-176.5 -63.5t-95 -165.5l-76 -547h-205l162 1149h-119l17 143h120l25 170h201l-25 -170h301l-20 -143h-301l-45 -313q119 125 301 125z" />
    <glyph glyph-name="Itilde" unicode="&#x128;" horiz-adv-x="571" 
d="M178 0l203 1440h211l-203 -1440h-211zM631.5 1569q-65.5 0 -133.5 49t-106 49t-74 -26.5t-50 -61.5l-100 98l24 34q97 120 226 120q59 0 126.5 -50t108 -50t61.5 19q27 24 43 45l21 34l99 -94q-20 -61 -119 -126q-61 -40 -126.5 -40z" />
    <glyph glyph-name="itilde" unicode="&#x129;" horiz-adv-x="473" 
d="M133 0l135 942h205l-133 -942h-207zM531 1116q-75 0 -142 51.5t-101 51.5t-62.5 -19.5t-35 -31t-24.5 -40.5l-105 86q14 29 36 61t77 73t122 41t136.5 -52.5t108.5 -52.5q63 0 116 92l99 -82q-23 -55 -86.5 -116.5t-138.5 -61.5z" />
    <glyph glyph-name="Imacron" unicode="&#x12a;" horiz-adv-x="571" 
d="M178 0l203 1440h211l-203 -1440h-211zM188 1597l23 160h641l-23 -160h-641z" />
    <glyph glyph-name="imacron" unicode="&#x12b;" horiz-adv-x="473" 
d="M133 0l135 942h205l-133 -942h-207zM152 1155l18 162h483l-18 -162h-483z" />
    <glyph glyph-name="Iogonek" unicode="&#x12e;" horiz-adv-x="571" 
d="M285 -326q43 0 73 25l60 -119q-72 -53 -167 -53t-154.5 53t-59.5 139q0 162 168 281h-27l203 1440h211l-203 -1440h-12q-7 -4 -19 -11q-43 -24 -99 -85t-56 -145.5t82 -84.5z" />
    <glyph glyph-name="iogonek" unicode="&#x12f;" horiz-adv-x="473" 
d="M223 -342q39 0 76 29l43 -111q-84 -61 -174 -61t-140.5 48t-50.5 130q0 174 181 307h-25l135 942h205l-133 -942q-68 -34 -113 -82q-88 -93 -88 -176.5t84 -83.5zM410.5 1399q62.5 0 100.5 -35t38 -95.5t-42 -103.5t-105.5 -43t-101.5 35t-38 96.5t43 103.5t105.5 42z
" />
    <glyph glyph-name="Idotaccent" unicode="&#x130;" horiz-adv-x="571" 
d="M178 0l203 1440h211l-203 -1440h-211zM510 1569q-55 0 -88 33.5t-33 90t45 100.5t100.5 44t87 -34t31.5 -90t-44 -100t-99 -44z" />
    <glyph glyph-name="dotlessi" unicode="&#x131;" horiz-adv-x="473" 
d="M133 0l135 942h205l-133 -942h-207z" />
    <glyph glyph-name="IJ" unicode="&#x132;" horiz-adv-x="1499" 
d="M893 -18q-180 0 -293 84l107 176q69 -56 195 -56q246 -1 288 306l133 948h211l-133 -955q-37 -256 -162 -379.5t-346 -123.5zM178 0l203 1440h211l-203 -1440h-211z" />
    <glyph glyph-name="ij" unicode="&#x133;" horiz-adv-x="958" 
d="M449 -418q-88 0 -164 41l86 160q33 -14 80 -14q139 0 161 172l142 1001h202l-139 -999q-25 -173 -119 -267t-249 -94zM133 0l135 942h203l-133 -942h-205zM904 1399q62 0 100 -34q38 -33 36 -95q0 -62 -42 -105t-104 -43t-100 35t-38 97t43 103q43 42 105 42zM408 1122
q-64 0 -102 35t-38 97t43 103q43 42 105 42t100 -34q37 -35 37 -97t-41 -104q-40 -42 -104 -42z" />
    <glyph glyph-name="Kcommaaccent" unicode="&#x136;" horiz-adv-x="1312" 
d="M779 -78q60 0 97 -39t37 -116.5t-50 -156.5t-132 -120l-59 64q39 29 68.5 67.5t29.5 65.5q-6 -2 -35.5 -2t-58.5 31.5t-30 82.5t36 87t97 36zM1487 1440l-801 -723l647 -717h-270l-586 637l-88 -637h-211l201 1440h211l-90 -641l719 641h268z" />
    <glyph glyph-name="kcommaaccent" unicode="&#x137;" horiz-adv-x="999" 
d="M500 -100q59 0 88.5 -34t29.5 -89q0 -96 -63 -190.5t-158 -145.5l-49 67q104 86 115 154q-6 -2 -33 -2t-51.5 27.5t-24.5 79.5t43.5 92.5t102.5 40.5zM1112 942l-508 -457l397 -485h-260l-348 430l-59 -430h-203l205 1462h203l-129 -913l436 393h266z" />
    <glyph glyph-name="kgreenlandic" unicode="&#x138;" horiz-adv-x="999" 
d="M1112 942l-508 -457l397 -485h-260l-346 426l-59 -426h-205l133 942h205l-55 -391l432 391h266z" />
    <glyph glyph-name="Lacute" unicode="&#x139;" horiz-adv-x="1112" 
d="M416 186h702l-26 -186h-914l203 1440h211zM827 1683l-460 -133l-37 129l448 203z" />
    <glyph glyph-name="lacute" unicode="&#x13a;" horiz-adv-x="475" 
d="M135 0l205 1462h203l-205 -1462h-203zM291 1573l-37 129l448 203l50 -199z" />
    <glyph glyph-name="Lcommaaccent" unicode="&#x13b;" horiz-adv-x="1112" 
d="M643 -78q61 0 97 -39t36 -116.5t-50 -156.5t-132 -120l-59 64q39 29 68.5 67.5t29.5 65.5q-6 -2 -36 -2t-58.5 31.5t-29.5 82.5t36 87t98 36zM416 186h702l-26 -186h-914l203 1440h211z" />
    <glyph glyph-name="lcommaaccent" unicode="&#x13c;" horiz-adv-x="475" 
d="M143.5 -340q-26.5 0 -51 27.5t-24.5 79.5t43 92.5t102 40.5t89 -34t30 -89q0 -96 -63.5 -190.5t-157.5 -145.5l-50 67q104 86 115 154q-6 -2 -32.5 -2zM135 0l205 1462h203l-205 -1462h-203z" />
    <glyph glyph-name="Lcaron" unicode="&#x13d;" horiz-adv-x="1112" 
d="M1147.5 1440q60.5 0 92.5 -34t32 -89q0 -102 -68.5 -201.5t-173.5 -154.5l-49 69q47 33 86 80t43 82q-4 -2 -35 -2t-55.5 27.5t-24.5 81.5t46 97.5t106.5 43.5zM592 1440l-176 -1254h702l-26 -186h-914l203 1440h211z" />
    <glyph glyph-name="lcaron" unicode="&#x13e;" horiz-adv-x="575" 
d="M683 1212q-30 0 -54.5 27t-24.5 82.5t45 98t106.5 42.5t93.5 -33.5t32 -93.5q0 -98 -69 -198.5t-173 -153.5l-53 68q47 33 86 81t45 82q-4 -2 -34 -2zM135 0l205 1462h205l-205 -1462h-205z" />
    <glyph glyph-name="Ldot" unicode="&#x13f;" horiz-adv-x="1112" 
d="M854.5 621q-61.5 0 -99.5 34.5t-38 94t42 101.5t104 42t98 -34t36 -94.5t-40.5 -102t-102 -41.5zM416 186h702l-26 -186h-914l203 1440h211z" />
    <glyph glyph-name="ldot" unicode="&#x140;" horiz-adv-x="679" 
d="M663 567q-57 0 -89.5 36t-32.5 93t46 103.5t104 46.5t92 -35t34 -92t-48.5 -104.5t-105.5 -47.5zM135 0l205 1462h205l-205 -1462h-205z" />
    <glyph glyph-name="Lslash" unicode="&#x141;" horiz-adv-x="1112" 
d="M416 186h702l-26 -186h-914l82 575l-149 -81l-62 135l236 129l96 682h211l-78 -557l178 98l60 -135l-265 -146z" />
    <glyph glyph-name="lslash" unicode="&#x142;" horiz-adv-x="786" 
d="M877 834l-279 -152l-96 -682h-205l78 561l-191 -104l-55 123l270 147l103 735h205l-86 -614l198 108z" />
    <glyph glyph-name="Nacute" unicode="&#x143;" horiz-adv-x="1546" 
d="M1360 1440h209l-205 -1456h-123l-702 1083l-152 -1067h-207l205 1454h125l700 -1077zM1276 1683l-461 -133l-37 129l449 203z" />
    <glyph glyph-name="nacute" unicode="&#x144;" horiz-adv-x="1134" 
d="M756 961q178 0 269 -120t62 -319l-73 -522h-203l70 496q18 132 -36 206q-55 74 -159 74t-175 -61.5t-95 -159.5l-80 -555h-205l133 942h156l-10 -158q117 177 346 177zM995 1274l-413 -199l-58 117l396 246z" />
    <glyph glyph-name="Ncommaaccent" unicode="&#x145;" horiz-adv-x="1546" 
d="M790 -78q61 0 97.5 -39t36.5 -116.5t-50.5 -156.5t-132.5 -120l-59 64q39 29 68.5 67.5t29.5 65.5q-6 -2 -35.5 -2t-58.5 31.5t-30 82.5t36 87t98 36zM1360 1440h209l-205 -1456h-123l-702 1083l-152 -1067h-207l205 1454h125l700 -1077z" />
    <glyph glyph-name="ncommaaccent" unicode="&#x146;" horiz-adv-x="1134" 
d="M551 -100q59 0 89 -34t30 -89q0 -96 -63.5 -190.5t-157.5 -145.5l-50 67q104 86 115 154q-6 -2 -32.5 -2t-51 27.5t-24.5 79.5t43 92.5t102 40.5zM756 961q178 0 269 -120t62 -319l-73 -522h-203l70 496q18 131 -36 205.5t-158.5 74.5t-175.5 -61.5t-95 -159.5l-80 -555
h-205l133 942h156l-10 -158q117 177 346 177z" />
    <glyph glyph-name="Ncaron" unicode="&#x147;" horiz-adv-x="1546" 
d="M1360 1440h209l-205 -1456h-123l-702 1083l-152 -1067h-207l205 1454h125l700 -1077zM1071 1561h-158l-196 290h196l107 -135l145 135h195z" />
    <glyph glyph-name="ncaron" unicode="&#x148;" horiz-adv-x="1134" 
d="M756 961q178 0 269 -120t62 -319l-73 -522h-203l70 496q18 132 -36 206q-55 74 -159 74t-175 -61.5t-95 -159.5l-80 -555h-205l133 942h156l-10 -158q117 177 346 177zM811 1092h-158l-180 327h180l105 -172l151 172h183z" />
    <glyph glyph-name="napostrophe" unicode="&#x149;" horiz-adv-x="1167" 
d="M788 961q178 0 269.5 -120t62.5 -319l-73 -522h-203l69 496q18 131 -36 205.5t-158 74.5t-175 -61.5t-95 -159.5l-80 -555h-205l133 942h156l-11 -158q117 177 346 177zM401 1343q0 -102 -68.5 -201.5t-172.5 -154.5l-49 70q47 33 86 80t43 82q-4 -2 -35 -2t-55.5 27.5
t-24.5 81.5t46 97q47 43 107 43t91.5 -34t31.5 -89z" />
    <glyph glyph-name="Eng" unicode="&#x14a;" horiz-adv-x="1634" 
d="M881 -418q-162 0 -256 78l106 176q18 -14 66.5 -30.5t93.5 -16.5q127 0 190.5 74t87.5 229v2l-630 973l-152 -1067h-207l205 1454h125l700 -1077l150 1063h209l-205 -1456q-31 -182 -152.5 -292t-330.5 -110z" />
    <glyph glyph-name="eng" unicode="&#x14b;" horiz-adv-x="1134" 
d="M756 961q178 0 269 -120t62 -319l-51 -356h2l-34 -246q-20 -158 -112.5 -248t-252.5 -90q-98 0 -160 35l78 164q33 -14 70 -14q150 0 176 178l78 551q18 131 -36 205.5t-158.5 74.5t-175.5 -61.5t-95 -159.5l-80 -555h-205l133 942h156l-10 -158q117 177 346 177z" />
    <glyph glyph-name="Omacron" unicode="&#x14c;" horiz-adv-x="1609" 
d="M877 174q222 0 376 167t154 456q0 205 -126 337t-347 132t-377 -170t-156 -457q0 -207 127 -336t349 -129zM865.5 -18q-322.5 0 -504 183t-181.5 458q0 369 222.5 602t544 233t501.5 -182t180 -459q0 -373 -220 -604t-542.5 -231zM709 1597l22 160h641l-22 -160h-641z
" />
    <glyph glyph-name="omacron" unicode="&#x14d;" horiz-adv-x="1105" 
d="M605 168q120 0 205 98.5t85 229.5t-70.5 204.5t-190.5 73.5t-205 -99.5t-85 -230.5t70.5 -203.5t190.5 -72.5zM588 -18q-208 0 -329.5 119.5t-121.5 310.5q0 240 151.5 393t362 153t331 -118.5t120.5 -311.5q0 -238 -153 -392t-361 -154zM422 1155l22 162h590l-22 -162
h-590z" />
    <glyph glyph-name="Ohungarumlaut" unicode="&#x150;" horiz-adv-x="1609" 
d="M877 174q222 0 376 167t154 456q0 205 -126 337t-347 132t-377 -170t-156 -457q0 -207 127 -336t349 -129zM865.5 -18q-322.5 0 -504 183t-181.5 458q0 369 222.5 602t544 233t501.5 -182t180 -459q0 -373 -220 -604t-542.5 -231zM1178 1520l-99 79l234 340l145 -106z
M778 1520l-98 79l231 340l148 -106z" />
    <glyph glyph-name="ohungarumlaut" unicode="&#x151;" horiz-adv-x="1105" 
d="M605 168q120 0 205 98.5t85 229.5t-70.5 204.5t-190.5 73.5t-205 -99.5t-85 -230.5t70.5 -203.5t190.5 -72.5zM588 -18q-208 0 -329.5 119.5t-121.5 310.5q0 240 151.5 393t362 153t331 -118.5t120.5 -311.5q0 -238 -153 -392t-361 -154zM856 1044l-104 56l204 383
l154 -78zM512 1044l-104 56l204 383l156 -78z" />
    <glyph glyph-name="OE" unicode="&#x152;" horiz-adv-x="2332" 
d="M877 174q222 0 376 167t154 456q0 205 -126 337t-347 132t-377 -170t-156 -457q0 -207 127 -336t349 -129zM180 623q0 369 222.5 602t561.5 233t525 -227l29 209h915l-27 -189h-706l-60 -428h621l-27 -188h-620l-62 -449h707l-27 -186h-917l20 145
q-205 -164 -498.5 -163.5t-475 183.5t-181.5 458z" />
    <glyph glyph-name="oe" unicode="&#x153;" horiz-adv-x="1802" 
d="M605 168q120 0 205 98.5t85 229.5t-70.5 204.5t-190.5 73.5t-205 -99.5t-85 -230.5t70.5 -203.5t190.5 -72.5zM1394.5 786q-100.5 0 -174 -57t-104.5 -160h492v17q0 94 -56.5 147t-157 53zM1804 580q0 -94 -20 -154h-686q2 -121 71.5 -193.5t194.5 -72.5t244 86l88 -140
q-154 -125 -359 -124q-252 0 -368 176q-154 -176 -396 -176q-193 0 -314.5 119.5t-121.5 310.5q0 240 151.5 393t385.5 153t352 -174q147 174 387 174q182 0 286.5 -103t104.5 -275z" />
    <glyph glyph-name="Racute" unicode="&#x154;" horiz-adv-x="1312" 
d="M719 631q172 0 280.5 97t108.5 242.5t-80 215t-215 69.5h-250l-88 -624h244zM1329 1021.5q0 -195.5 -98 -332t-270 -200.5l264 -489h-236l-231 449q-20 -2 -64 -3h-243l-64 -446h-209l203 1440h473q219 0 347 -111.5t128 -307zM1130 1683l-460 -133l-37 129l448 203z" />
    <glyph glyph-name="racute" unicode="&#x155;" horiz-adv-x="716" 
d="M750 961q43 0 73 -7l-45 -204q-39 16 -86 16q-113 0 -192 -83.5t-94 -184.5l-70 -498h-205l133 942h174l-16 -160q47 80 133 129.5t195 49.5zM827 1274l-413 -199l-58 117l396 246z" />
    <glyph glyph-name="Rcommaaccent" unicode="&#x156;" horiz-adv-x="1312" 
d="M659 -78q61 0 97.5 -39t36.5 -116.5t-50.5 -156.5t-132.5 -120l-59 64q39 29 68.5 67.5t29.5 65.5q-6 -2 -35.5 -2t-58.5 31.5t-30 82.5t36 87t98 36zM719 631q172 0 280.5 97t108.5 242.5t-80 215t-215 69.5h-250l-88 -624h244zM1329 1021.5q0 -195.5 -98 -332
t-270 -200.5l264 -489h-236l-231 449q-20 -2 -64 -3h-243l-64 -446h-209l203 1440h473q219 0 347 -111.5t128 -307z" />
    <glyph glyph-name="rcommaaccent" unicode="&#x157;" horiz-adv-x="716" 
d="M213 -100q59 0 89 -34t30 -89q0 -96 -63.5 -190.5t-157.5 -145.5l-50 67q104 86 115 154q-6 -2 -32.5 -2t-51 27.5t-24.5 79.5t43 92.5t102 40.5zM750 961q43 0 73 -7l-45 -204q-39 16 -86 16q-113 0 -192 -83.5t-94 -184.5l-70 -498h-205l133 942h174l-16 -160
q47 80 133 129.5t195 49.5z" />
    <glyph glyph-name="Rcaron" unicode="&#x158;" horiz-adv-x="1312" 
d="M719 631q172 0 280.5 97t108.5 242.5t-80 215t-215 69.5h-250l-88 -624h244zM1329 1021.5q0 -195.5 -98 -332t-270 -200.5l264 -489h-236l-231 449q-20 -2 -64 -3h-243l-64 -446h-209l203 1440h473q219 0 347 -111.5t128 -307zM926 1561h-158l-197 290h197l106 -135
l146 135h194z" />
    <glyph glyph-name="rcaron" unicode="&#x159;" horiz-adv-x="716" 
d="M750 961q43 0 73 -7l-45 -204q-39 16 -86 16q-113 0 -192 -83.5t-94 -184.5l-70 -498h-205l133 942h174l-16 -160q47 80 133 129.5t195 49.5zM643 1092h-158l-180 327h180l105 -172l151 172h183z" />
    <glyph glyph-name="Sacute" unicode="&#x15a;" horiz-adv-x="1128" 
d="M571 -18q-305 0 -493 159l119 168q170 -141 391 -141q133 0 216 64t83 170t-60.5 158t-224.5 99t-254 137.5t-90 239.5q0 190 146 306q148 116 400 116t402 -139l-116 -154q-156 107 -308 107t-230.5 -53.5t-78.5 -145.5t61.5 -141t196.5 -90q190 -55 281.5 -145.5
t91.5 -256.5q0 -213 -147.5 -335.5t-385.5 -122.5zM633 1550l-37 129l448 203l50 -199z" />
    <glyph glyph-name="sacute" unicode="&#x15b;" horiz-adv-x="894" 
d="M467 -18q-233 0 -387 118l108 154q123 -104 289 -104q82 0 126 30.5t44 82.5t-37 81q-38 30 -152 60t-186.5 88.5t-72.5 166.5q0 139 105.5 219t295.5 80t324 -98l-90 -147q-131 78 -273 78q-70 0 -112.5 -27t-42.5 -74t39.5 -71.5t157.5 -57.5t184.5 -94t66.5 -187
t-104.5 -212t-282.5 -86zM449 1075l-58 117l395 246l76 -164z" />
    <glyph glyph-name="Scedilla" unicode="&#x15e;" horiz-adv-x="1128" 
d="M1104 440q0 -203 -135 -325.5t-357 -132.5l-28 -58q76 -6 123 -52t47 -122q0 -113 -78 -181.5t-203 -68.5t-203 72l68 106q82 -49 131 -51q109 -6 129 88q10 55 -33 84t-137 17l-18 28l67 142q-238 20 -399 155l119 168q170 -141 391 -141q133 0 216 63.5t83 170
t-60.5 158.5t-224.5 99t-254 137.5t-90 239.5q0 190 146.5 306t399 116t402.5 -139l-116 -154q-156 106 -308.5 106.5t-230.5 -53t-78 -145.5t61.5 -141t196.5 -90q190 -55 281.5 -145.5t91.5 -256.5z" />
    <glyph glyph-name="scedilla" unicode="&#x15f;" horiz-adv-x="894" 
d="M854 283q0 -123 -95 -208t-261 -93l-33 -64q86 -4 135 -50t49 -124q0 -113 -76.5 -178.5t-197.5 -65.5q-59 0 -110.5 17.5t-74.5 36.5l-22 16l68 108q80 -51 137 -51q125 0 125 103q0 86 -133 86q-10 0 -43 -4l-19 28l70 146q-170 18 -293 114l108 154q123 -104 289 -104
q82 0 126 30.5t44 82.5t-37 81t-151.5 59.5t-187 89t-72.5 166.5q0 139 105.5 219t296 80t323.5 -98l-90 -147q-131 78 -273 78q-70 0 -112.5 -27t-42.5 -74t40 -71.5t157.5 -57.5t184 -94t66.5 -184z" />
    <glyph glyph-name="Scaron" unicode="&#x160;" horiz-adv-x="1128" 
d="M1104 440q0 -213 -147.5 -335.5t-385.5 -122.5q-305 0 -493 159l119 168q170 -141 391 -141q133 0 216 63.5t83 170t-60.5 158.5t-224.5 99t-254 137.5t-90 239.5q0 190 146.5 306t399 116t402.5 -139l-116 -154q-156 106 -308.5 106.5t-230.5 -53t-78 -145.5t61.5 -141
t196.5 -90q190 -55 281.5 -145.5t91.5 -256.5zM889 1561h-158l-196 290h196l107 -135l145 135h195z" />
    <glyph glyph-name="scaron" unicode="&#x161;" horiz-adv-x="894" 
d="M561 791q-70 0 -112.5 -27t-42.5 -74t39.5 -71.5t157.5 -57.5t184.5 -94t66.5 -187t-104.5 -212t-282.5 -86q-233 0 -387 118l108 154q123 -104 289 -104q82 0 126 30.5t44 82.5t-37 81q-38 30 -152 60t-186.5 88.5t-72.5 166.5q0 139 105.5 219t295.5 80t324 -98
l-90 -147q-132 78 -273 78zM678 1092h-158l-180 327h180l105 -172l151 172h182z" />
    <glyph glyph-name="uni0162" unicode="&#x162;" horiz-adv-x="1179" 
d="M797 -250q0 -113 -78 -181.5t-203 -68.5t-203 72l68 106q82 -49 131 -51q109 -6 129 88q10 55 -33 84t-137 17l-18 28l73 156h-41l177 1251h-463l26 189h1137l-27 -189h-461l-176 -1251h-34l-37 -76q76 -6 123 -52t47 -122z" />
    <glyph glyph-name="uni0163" unicode="&#x163;" horiz-adv-x="831" 
d="M721 -264q0 -113 -77 -178.5t-198 -65.5q-59 0 -110 17.5t-74 35.5l-22 17l67 108q80 -51 137 -51q125 0 125 102q0 86 -133 86q-10 0 -43 -4l-18 29l78 160q-111 27 -163 111.5t-34 224.5l63 444h-182l25 170h188l45 324h197l-45 -324h352l-25 -170h-352l-57 -414
q-29 -195 143 -194q84 0 166 55l62 -149q-109 -82 -263 -88l-36 -72q86 -4 135 -50t49 -124z" />
    <glyph glyph-name="Tcaron" unicode="&#x164;" horiz-adv-x="1179" 
d="M1362 1440l-27 -189h-461l-176 -1251h-213l177 1251h-463l26 189h1137zM887 1561h-158l-197 290h197l107 -135l145 135h195z" />
    <glyph glyph-name="tcaron" unicode="&#x165;" horiz-adv-x="831" 
d="M557 -18q-164 0 -244 89t-57 257l63 444h-182l25 170h188l45 324h197l-45 -324h352l-25 -170h-352l-57 -414q-29 -195 143 -194q84 0 166 55l62 -149q-115 -88 -279 -88zM840.5 1229q-29.5 0 -54 27.5t-24.5 83t45 97.5t107.5 42t93 -34t30.5 -91q0 -100 -68.5 -201
t-170.5 -154l-54 70q47 33 86 80t43 82q-4 -2 -33.5 -2z" />
    <glyph glyph-name="Tbar" unicode="&#x166;" horiz-adv-x="1179" 
d="M1335 1251h-461l-67 -487h219l-20 -143h-220l-88 -621h-213l88 621h-225l19 143h227l68 487h-463l26 189h1137z" />
    <glyph glyph-name="tbar" unicode="&#x167;" horiz-adv-x="831" 
d="M557 -18q-164 0 -244 89t-57 257l18 131h-157l16 131h160l26 182h-182l25 170h188l45 324h197l-45 -324h352l-25 -170h-352l-24 -182h219l-19 -131h-219l-14 -101q-29 -195 143 -194q84 0 166 55l62 -149q-115 -88 -279 -88z" />
    <glyph glyph-name="Utilde" unicode="&#x168;" horiz-adv-x="1490" 
d="M750 -18q-268 0 -408.5 161.5t-97.5 456.5l118 840h213l-118 -856q-25 -180 57 -294t259 -114t291 113.5t138 294.5l121 856h209l-117 -840q-43 -297 -220 -457.5t-445 -160.5zM1103 1569q-71 0 -142.5 49t-111.5 49t-83 -28.5t-51 -59.5l-107 98q8 15 22 30q16 15 32 33
q30 32 86 61.5t122.5 29.5t139.5 -50t115 -50q41 0 61 15l30 24q27 24 41 53l5 6l104 -94q-6 -16 -33.5 -51t-93 -75t-136.5 -40z" />
    <glyph glyph-name="utilde" unicode="&#x169;" horiz-adv-x="1118" 
d="M578 178q98 0 169.5 72t94.5 172l73 520h205l-133 -942h-166l15 135q-106 -154 -318 -153q-184 0 -275 115.5t-63 322.5l74 522h203l-68 -485q-37 -279 189 -279zM597 1219q-36 0 -65.5 -19.5t-38 -32t-24.5 -39.5l-111 86q100 174 242 175q76 0 148.5 -52.5t113.5 -52.5
q70 0 123 92l105 -82q-25 -55 -91.5 -116.5t-145.5 -61.5t-149.5 51.5t-106.5 51.5z" />
    <glyph glyph-name="Umacron" unicode="&#x16a;" horiz-adv-x="1490" 
d="M750 -18q-268 0 -408.5 161.5t-97.5 456.5l118 840h213l-118 -856q-25 -180 57 -294t259 -114t291 113.5t138 294.5l121 856h209l-117 -840q-43 -297 -220 -457.5t-445 -160.5zM651 1597l23 160h641l-23 -160h-641z" />
    <glyph glyph-name="umacron" unicode="&#x16b;" horiz-adv-x="1118" 
d="M578 178q98 0 169.5 72t94.5 172l73 520h205l-133 -942h-166l15 135q-106 -154 -318 -153q-184 0 -275 115.5t-63 322.5l74 522h203l-68 -485q-37 -279 189 -279zM1030 1317l-22 -162h-590l22 162h590z" />
    <glyph glyph-name="Uring" unicode="&#x16e;" horiz-adv-x="1490" 
d="M750 -18q-268 0 -408.5 161.5t-97.5 456.5l118 840h213l-118 -856q-25 -180 57 -294t259 -114t291 113.5t138 294.5l121 856h209l-117 -840q-43 -297 -220 -457.5t-445 -160.5zM1075 1742q1 85 -75 85q-36 0 -66.5 -31t-30.5 -71t20.5 -63.5t57.5 -23.5t65.5 32t28.5 72z
M971 1526q-90 0 -141.5 50t-51.5 139t71 155.5t161 66.5t140 -50t50 -138t-69.5 -155.5t-159.5 -67.5z" />
    <glyph glyph-name="uring" unicode="&#x16f;" horiz-adv-x="1118" 
d="M578 178q98 0 169.5 72t94.5 172l73 520h205l-133 -942h-166l15 135q-106 -154 -318 -153q-184 0 -275 115.5t-63 322.5l74 522h203l-68 -485q-37 -279 189 -279zM639 1268q0 -88 80 -88q39 0 68.5 30.5t29.5 79.5q0 80 -80 80q-39 0 -68.5 -29.5t-29.5 -72.5zM707 1067
q-91 0 -142 50t-51 139t71.5 158t163 69t141.5 -51.5t50 -140.5t-71 -156.5t-162 -67.5z" />
    <glyph glyph-name="Uhungarumlaut" unicode="&#x170;" horiz-adv-x="1490" 
d="M750 -18q-268 0 -408.5 161.5t-97.5 456.5l118 840h213l-118 -856q-25 -180 57 -294t259 -114t291 113.5t138 294.5l121 856h209l-117 -840q-43 -297 -220 -457.5t-445 -160.5zM1120 1520l-98 79l233 340l146 -106zM721 1520l-98 79l231 340l147 -106z" />
    <glyph glyph-name="uhungarumlaut" unicode="&#x171;" horiz-adv-x="1118" 
d="M578 178q98 0 169.5 72t94.5 172l73 520h205l-133 -942h-166l15 135q-106 -154 -318 -153q-184 0 -275 115.5t-63 322.5l74 522h203l-68 -485q-37 -279 189 -279zM852 1044l-104 56l204 383l154 -78zM764 1405l-256 -361l-105 56l205 383z" />
    <glyph glyph-name="Uogonek" unicode="&#x172;" horiz-adv-x="1490" 
d="M739 -238q0 -88 82 -88q43 0 74 25l59 -119q-72 -53 -167 -53t-154.5 53t-59.5 139q0 147 144 263q-254 10 -384 171.5t-89 446.5l118 840h213l-118 -856q-25 -180 57 -294t259 -114t291 113.5t138 294.5l121 856h209l-117 -840q-37 -250 -169 -404.5t-337 -197.5
q-29 -16 -59.5 -38.5t-70.5 -80t-40 -117.5z" />
    <glyph glyph-name="uogonek" unicode="&#x173;" horiz-adv-x="1118" 
d="M870 -342q39 0 76 29l43 -111q-84 -61 -174 -61t-140 48t-50 130q0 184 198 319l13 123q-106 -154 -318 -153q-184 0 -275 115.5t-63 322.5l74 522h203l-68 -485q-37 -279 189 -279q98 0 169.5 72t94.5 172l73 520h205l-133 -942q-68 -34 -113 -82q-88 -93 -88 -176.5
t84 -83.5z" />
    <glyph glyph-name="Wcircumflex" unicode="&#x174;" horiz-adv-x="1845" 
d="M1829 1440h213l-619 -1440h-157l-189 1092l-497 -1092h-158l-211 1440h223l62 -506l63 -602l250 583l242 525h147l94 -525l92 -591zM1155 1696l-145 -135h-197l289 290h158l196 -290h-196z" />
    <glyph glyph-name="wcircumflex" unicode="&#x175;" horiz-adv-x="1546" 
d="M1436 942h217l-477 -942h-154l-148 651l-329 -651h-164l-221 942h221l121 -684l332 684h159l140 -688zM948 1264l-149 -172h-185l281 327h158l180 -327h-180z" />
    <glyph glyph-name="Ycircumflex" unicode="&#x176;" horiz-adv-x="1286" 
d="M1462 1440l-635 -873l-79 -567h-213l81 573l-385 867h250l273 -662l463 662h245zM889 1696l-146 -135h-196l289 290h157l197 -290h-197z" />
    <glyph glyph-name="ycircumflex" unicode="&#x177;" horiz-adv-x="1013" 
d="M1130 942l-501 -926l-221 -415h-211l219 403l-256 938h229l166 -709l354 709h221zM696 1264l-149 -172h-185l281 327h158l180 -327h-180z" />
    <glyph glyph-name="Ydieresis" unicode="&#x178;" horiz-adv-x="1286" 
d="M1462 1440l-635 -873l-79 -567h-213l81 573l-385 867h250l273 -662l463 662h245zM1088 1579q-52 0 -82.5 31.5t-30.5 86t43 95.5t96 41t84 -32t31 -86t-44.5 -95t-96.5 -41zM670 1581q-53 0 -85 32t-32 86t44 95t97 41t83 -31.5t30 -86t-42 -95.5t-95 -41z" />
    <glyph glyph-name="Zacute" unicode="&#x179;" horiz-adv-x="1216" 
d="M1341 1440l-18 -137l-965 -1115h816l-25 -188h-1092l19 131l960 1120h-784l27 189h1062zM1087 1683l-460 -133l-37 129l448 203z" />
    <glyph glyph-name="zacute" unicode="&#x17a;" horiz-adv-x="933" 
d="M985 942l-22 -149l-617 -623h537l-25 -170h-788l20 150l619 622h-514l24 170h766zM868 1274l-413 -199l-58 117l396 246z" />
    <glyph glyph-name="Zdotaccent" unicode="&#x17b;" horiz-adv-x="1216" 
d="M1341 1440l-18 -137l-965 -1115h816l-25 -188h-1092l19 131l960 1120h-784l27 189h1062zM813 1569q-55 0 -88 33.5t-33 90t45 100.5t100.5 44t87 -34t31.5 -90t-44 -100t-99 -44z" />
    <glyph glyph-name="zdotaccent" unicode="&#x17c;" horiz-adv-x="933" 
d="M985 942l-22 -149l-617 -623h537l-25 -170h-788l20 150l619 622h-514l24 170h766zM625.5 1122q-63.5 0 -102 35t-38.5 96.5t43 103.5t105.5 42t100.5 -35t38 -95.5t-41.5 -103.5t-105 -43z" />
    <glyph glyph-name="Zcaron" unicode="&#x17d;" horiz-adv-x="1216" 
d="M1341 1440l-18 -137l-965 -1115h816l-25 -188h-1092l19 131l960 1120h-784l27 189h1062zM883 1561h-158l-197 290h197l106 -135l146 135h194z" />
    <glyph glyph-name="zcaron" unicode="&#x17e;" horiz-adv-x="933" 
d="M985 942l-22 -149l-617 -623h537l-25 -170h-788l20 150l619 622h-514l24 170h766zM684 1092h-158l-180 327h180l105 -172l151 172h183z" />
    <glyph glyph-name="uni01EA" unicode="&#x1ea;" horiz-adv-x="1609" 
d="M401 639q0 -207 127 -336t349 -129t376 167t154 456q0 205 -126 337t-347 132t-377 -170t-156 -457zM799 -244q0 -82 82 -82q43 0 73 25l60 -119q-72 -53 -167 -53t-154.5 53t-59.5 139q0 150 145 265q-274 23 -436 203t-162 436q0 369 222.5 602t544 233t501.5 -182
t180 -459q0 -342 -188.5 -567t-487.5 -262q-55 -33 -104 -91.5t-49 -140.5z" />
    <glyph glyph-name="uni01EB" unicode="&#x1eb;" horiz-adv-x="1105" 
d="M344 444q0 -131 70.5 -203.5t190.5 -72.5t205 98.5t85 229.5t-70.5 204.5t-190.5 73.5t-205 -99.5t-85 -230.5zM483 -250q0 -92 84 -92q39 0 76 29l43 -111q-84 -61 -174 -61t-140 48t-50 130q0 166 165 295q-158 27 -254 141.5t-96 282.5q0 240 151.5 393t362 153
t331 -118.5t120.5 -320.5t-123 -350t-313 -179q-37 -23 -72 -50.5t-73 -84t-38 -105.5z" />
    <glyph glyph-name="AEacute" unicode="&#x1fc;" horiz-adv-x="1728" 
d="M512 512h348l105 721zM-33 0l928 1440h913l-24 -189h-610l-62 -432l533 2l-25 -188l-535 -2l-61 -445h631l-27 -186h-842l50 334h-441l-211 -334h-217zM1165 1559l-37 129l449 202l49 -198z" />
    <glyph glyph-name="aeacute" unicode="&#x1fd;" horiz-adv-x="1853" 
d="M609 168q130 0 208 96t78 230.5t-67.5 207t-186.5 72.5t-207 -95t-88 -229.5t66.5 -208t196.5 -73.5zM1443 786q-101 0 -175 -58t-103 -163h492v15q0 98 -56.5 152t-157.5 54zM1851 573q0 -99 -18 -153h-686q4 -119 72.5 -189.5t193.5 -70.5t244 86l88 -140
q-158 -125 -372 -124.5t-333 145.5l-34 -127h-142v127q-115 -145 -308 -145t-305 119.5t-112 308.5q0 244 147.5 396t352.5 152t307 -135l29 119h141l-4 -119q145 135 338.5 135t297 -104.5t103.5 -280.5zM1319 1274l-414 -199l-57 117l395 246z" />
    <glyph glyph-name="Oslashacute" unicode="&#x1fe;" horiz-adv-x="1609" 
d="M868 174q231 0 385 167t154 456q0 174 -90 295l-719 -844q112 -74 270 -74zM401 639q0 -170 88 -289l719 844q-115 72 -264 72q-231 0 -387 -170t-156 -457zM1628 817q0 -373 -220 -604t-560 -231q-223 0 -387 104l-135 -158l-115 97l135 157q-166 176 -166 441
q0 369 222.5 602t560.5 233q221 0 385 -102l129 151l112 -96l-127 -149q166 -178 166 -445zM1257 1683l-460 -133l-37 129l448 203z" />
    <glyph glyph-name="oslashacute" unicode="&#x1ff;" horiz-adv-x="1105" 
d="M895 508q0 80 -33 141l-393 -450q55 -31 125 -31q131 0 216 98.5t85 241.5zM344 432q0 -78 33 -139l393 450q-55 31 -123 31q-133 0 -218 -99.5t-85 -242.5zM1102 528q0 -238 -152.5 -392t-376.5 -154q-133 0 -239 61l-111 -127l-100 88l110 125q-96 115 -96 283
q0 240 151.5 393t377.5 153q133 0 239 -61l109 125l96 -88l-104 -121q96 -113 96 -285zM963 1274l-414 -199l-57 117l395 246z" />
    <glyph glyph-name="Scommaaccent" unicode="&#x218;" horiz-adv-x="1128" 
d="M505 -315q-30 0 -58.5 31.5t-29.5 82.5t35.5 87t97 36t97.5 -39t37 -116.5t-50 -156.5t-132 -120l-60 64q39 29 69 67.5t30 65.5q-6 -2 -36 -2zM571 -18q-305 0 -493 159l119 168q170 -141 391 -141q133 0 216 63.5t83 170t-60.5 158.5t-224.5 99t-254 137.5t-90 239.5
q0 190 146.5 306t399 116t402.5 -139l-116 -154q-156 106 -308.5 106.5t-230.5 -53t-78 -145.5t61.5 -141t196.5 -90q190 -55 281.5 -145.5t91.5 -256.5q0 -213 -147.5 -335.5t-385.5 -122.5z" />
    <glyph glyph-name="scommaaccent" unicode="&#x219;" horiz-adv-x="894" 
d="M352 -340q-27 0 -51.5 27.5t-24.5 79.5t43 92.5t102.5 40.5t89.5 -34t30 -89q0 -96 -64 -190.5t-158 -145.5l-49 67q104 86 115 154q-6 -2 -33 -2zM467 -18q-233 0 -387 118l108 154q123 -104 289 -104q82 0 126 30.5t44 82.5t-37 81t-151.5 59.5t-187 89t-72.5 166.5
q0 139 105.5 219t296 80t323.5 -98l-90 -147q-131 78 -273 78q-70 0 -112.5 -27t-42.5 -74t39.5 -71.5t157.5 -57.5t184.5 -94t66.5 -187t-104.5 -212t-282.5 -86z" />
    <glyph glyph-name="uni021A" unicode="&#x21a;" horiz-adv-x="1179" 
d="M594 -78q61 0 97 -39t36 -116.5t-50 -156.5t-132 -120l-60 64q39 29 69 67.5t30 65.5q-6 -2 -36 -2t-58.5 31.5t-29.5 82.5t36 87t98 36zM1362 1440l-27 -189h-461l-176 -1251h-213l177 1251h-463l26 189h1137z" />
    <glyph glyph-name="uni021B" unicode="&#x21b;" horiz-adv-x="831" 
d="M424 -348q-27 0 -51.5 27.5t-24.5 79.5t43 92t102.5 40t89 -33.5t29.5 -88.5q0 -96 -63.5 -190.5t-157.5 -145.5l-49 67q104 86 115 154q-6 -2 -33 -2zM557 -18q-164 0 -244 89t-57 257l63 444h-182l25 170h188l45 324h197l-45 -324h352l-25 -170h-352l-57 -414
q-29 -195 143 -194q84 0 166 55l62 -149q-115 -88 -279 -88z" />
    <glyph glyph-name="uni0237" unicode="&#x237;" horiz-adv-x="485" 
d="M-25 -418q-86 0 -163 41l86 160q33 -14 79 -14q139 0 162 172l142 1001h202l-139 -999q-25 -173 -119 -267t-250 -94z" />
    <glyph glyph-name="circumflex" unicode="&#x2c6;" horiz-adv-x="782" 
d="M827 1092h-180l-104 172l-150 -172h-184l280 327h158z" />
    <glyph glyph-name="caron" unicode="&#x2c7;" horiz-adv-x="741" 
d="M688 1419h182l-280 -327h-158l-180 327h180l105 -172z" />
    <glyph glyph-name="breve" unicode="&#x2d8;" horiz-adv-x="694" 
d="M495 1096q-132 0 -203 85t-50 226h157q-10 -78 22 -125t94 -47t108.5 48t54.5 124h158q-20 -141 -114.5 -226t-226.5 -85z" />
    <glyph glyph-name="dotaccent" unicode="&#x2d9;" horiz-adv-x="288" 
d="M312 1122q-64 0 -102 35t-38 97t43 103q43 42 105 42t101 -35q38 -36 38 -96t-42 -103q-41 -43 -105 -43z" />
    <glyph glyph-name="ring" unicode="&#x2da;" horiz-adv-x="475" 
d="M322 1268q0 -88 79 -88q39 0 69 30.5t30 73.5q0 86 -76 86q-43 0 -72.5 -29.5t-29.5 -72.5zM390 1067q-91 0 -142 50t-51 139t71.5 158t162.5 69t141.5 -51.5t50.5 -140.5t-71 -156.5t-162 -67.5z" />
    <glyph glyph-name="ogonek" unicode="&#x2db;" horiz-adv-x="448" 
d="M174 -485q-90 0 -140 48t-50 128q0 81 36 151t94 116q111 91 171 114l61 -72q-20 -10 -63 -41q-138 -101 -138 -215q0 -43 23 -65q24 -21 62 -21t75 29l43 -111q-84 -61 -174 -61z" />
    <glyph glyph-name="tilde" unicode="&#x2dc;" horiz-adv-x="851" 
d="M714 1116q-79 0 -149.5 51.5t-106.5 51.5t-66 -19.5t-38 -32t-24 -39.5l-111 86q100 174 242 175q76 0 148.5 -52.5t113.5 -52.5q70 0 123 92l104 -82q-25 -55 -91 -116.5t-145 -61.5z" />
    <glyph glyph-name="hungarumlaut" unicode="&#x2dd;" horiz-adv-x="722" 
d="M610 1044l-104 56l205 383l153 -78zM266 1044l-104 56l205 383l155 -78z" />
    <glyph glyph-name="gravecomb" unicode="&#x300;" 
d="M59 1075l-362 199l119 166l327 -248z" />
    <glyph glyph-name="acutecomb" unicode="&#x301;" 
d="M-250 1075l-57 117l395 246l76 -164z" />
    <glyph glyph-name="uni0302" unicode="&#x302;" 
d="M92 1092h-180l-105 172l-149 -172h-184l280 327h158z" />
    <glyph glyph-name="tildecomb" unicode="&#x303;" 
d="M-103 1116q-79 0 -150 51.5t-106.5 51.5t-65.5 -19.5t-38 -32t-24 -39.5l-111 86q100 174 242 175q76 0 148.5 -52.5t113.5 -52.5q70 0 123 92l104 -82q-25 -55 -91 -116.5t-145 -61.5z" />
    <glyph glyph-name="uni0304" unicode="&#x304;" 
d="M-446 1155l22 162h590l-23 -162h-589z" />
    <glyph glyph-name="uni0306" unicode="&#x306;" 
d="M-189 1096q-132 0 -203 85t-50 226h157q-10 -78 22 -125t94 -47t108.5 48t54.5 124h158q-20 -141 -114.5 -226t-226.5 -85z" />
    <glyph glyph-name="uni0307" unicode="&#x307;" 
d="M22.5 1122q-63.5 0 -101.5 35t-38 96.5t43 103.5t105.5 42t100.5 -35t38 -95.5t-42 -103.5t-105.5 -43z" />
    <glyph glyph-name="uni0308" unicode="&#x308;" 
d="M9 1141q-54 0 -84.5 31.5t-30.5 86.5t41.5 95.5t95 40.5t84 -32t30.5 -88t-41 -95t-95 -39zM-409 1143q-54 0 -85.5 31.5t-31.5 86.5t42 95.5t96 40.5t85 -32t31 -88t-41.5 -95t-95.5 -39z" />
    <glyph glyph-name="uni030A" unicode="&#x30a;" 
d="M-141 1268q0 -88 79 -88q39 0 69 30.5t30 73.5q0 86 -76 86q-43 0 -72.5 -29.5t-29.5 -72.5zM-73 1067q-91 0 -142 50t-51 139t71.5 158t162.5 69t141.5 -51.5t50.5 -140.5t-71 -156.5t-162 -67.5z" />
    <glyph glyph-name="uni030B" unicode="&#x30b;" 
d="M-131 1044l-105 56l205 383l154 -78zM-475 1044l-105 56l205 383l156 -78z" />
    <glyph glyph-name="uni030C" unicode="&#x30c;" 
d="M-39 1419h182l-280 -327h-158l-180 327h180l105 -172z" />
    <glyph glyph-name="uni0326" unicode="&#x326;" 
d="M-243.5 -340q-26.5 0 -51 27.5t-24.5 79.5t43 92.5t102 40.5t89 -34t30 -89q0 -96 -63.5 -190.5t-157.5 -145.5l-50 67q104 86 115 154q-6 -2 -32.5 -2z" />
    <glyph glyph-name="uni0327" unicode="&#x327;" 
d="M-332 -500q-59 0 -110.5 17.5t-73.5 36.5l-23 16l68 108q80 -51 137 -51q125 0 125 103q0 86 -133 86q-10 0 -43 -4l-18 28l94 195h127l-60 -117q86 -4 135.5 -50t49.5 -124q0 -113 -77 -178.5t-198 -65.5z" />
    <glyph glyph-name="uni0328" unicode="&#x328;" 
d="M-346 -256q0 -86 84 -86q39 0 76 29l43 -111q-85 -61 -175 -61t-140 48t-50 128t37 150.5t93 116.5q105 86 171 114l62 -72q-123 -62 -179 -171q-22 -42 -22 -85z" />
    <glyph glyph-name="uni0335" unicode="&#x335;" 
d="M-627 479l19 144h659l-20 -144h-658z" />
    <glyph glyph-name="uni0336" unicode="&#x336;" 
d="M-1395 563l23 156h1452l-23 -156h-1452z" />
    <glyph glyph-name="uni0337" unicode="&#x337;" 
d="M-637 328l-57 123l686 376l55 -122z" />
    <glyph glyph-name="uni0338" unicode="&#x338;" 
d="M-782 -18l-101 88l891 1017l96 -88z" />
    <glyph glyph-name="Wgrave" unicode="&#x1e80;" horiz-adv-x="1845" 
d="M1829 1440h213l-619 -1440h-157l-189 1092l-497 -1092h-158l-211 1440h223l62 -506l63 -602l250 583l242 525h147l94 -525l92 -591zM1391 1688l-64 -129l-428 116l92 201z" />
    <glyph glyph-name="wgrave" unicode="&#x1e81;" horiz-adv-x="1546" 
d="M1436 942h217l-477 -942h-154l-148 651l-329 -651h-164l-221 942h221l121 -684l332 684h159l140 -688zM1161 1192l-84 -117l-362 199l119 166z" />
    <glyph glyph-name="Wacute" unicode="&#x1e82;" horiz-adv-x="1845" 
d="M1829 1440h213l-619 -1440h-157l-189 1092l-497 -1092h-158l-211 1440h223l62 -506l63 -602l250 583l242 525h147l94 -525l92 -591zM1419 1683l-461 -133l-36 129l448 203z" />
    <glyph glyph-name="wacute" unicode="&#x1e83;" horiz-adv-x="1546" 
d="M1436 942h217l-477 -942h-154l-148 651l-329 -651h-164l-221 942h221l121 -684l332 684h159l140 -688zM1184 1274l-414 -199l-57 117l395 246z" />
    <glyph glyph-name="Wdieresis" unicode="&#x1e84;" horiz-adv-x="1845" 
d="M1829 1440h213l-619 -1440h-157l-189 1092l-497 -1092h-158l-211 1440h223l62 -506l63 -602l250 583l242 525h147l94 -525l92 -591zM1355 1579q-52 0 -83 31.5t-31 86t43 95.5t96 41t84 -32t31 -86t-44 -95t-96 -41zM936 1581q-53 0 -85 32t-32 86t44 95t97.5 41
t83 -31.5t29.5 -86t-42 -95.5t-95 -41z" />
    <glyph glyph-name="wdieresis" unicode="&#x1e85;" horiz-adv-x="1546" 
d="M1436 942h217l-477 -942h-154l-148 651l-329 -651h-164l-221 942h221l121 -684l332 684h159l140 -688zM1150 1141q-54 0 -85 31.5t-31 86.5t42 95.5t95.5 40.5t84 -32t30.5 -88t-41 -95t-95 -39zM732 1143q-54 0 -86 31.5t-32 86.5t42 95.5t96.5 40.5t85 -32t30.5 -88
t-41 -95t-95 -39z" />
    <glyph glyph-name="uni1E9E" unicode="&#x1e9e;" horiz-adv-x="1443" 
d="M1458 492q0 -223 -150 -367q-151 -143 -388 -143q-188 0 -314 92l103 162q88 -72 227 -72t229 87t90 207t-67 185q-68 63 -195 64h-170l25 163l348 383h-344q-143 -1 -232 -79t-108 -216l-135 -958h-211l135 958q33 226 174 354t404 128h594l-23 -158l-387 -412
q187 -2 291 -103t104 -275z" />
    <glyph glyph-name="Ygrave" unicode="&#x1ef2;" horiz-adv-x="1286" 
d="M1462 1440l-635 -873l-79 -567h-213l81 573l-385 867h250l273 -662l463 662h245zM1124 1688l-63 -129l-428 116l92 201z" />
    <glyph glyph-name="ygrave" unicode="&#x1ef3;" horiz-adv-x="1013" 
d="M1130 942l-501 -926l-221 -415h-211l219 403l-256 938h229l166 -709l354 709h221zM909 1192l-84 -117l-362 199l119 166z" />
    <glyph glyph-name="uni1EF8" unicode="&#x1ef8;" horiz-adv-x="1286" 
d="M1462 1440l-635 -873l-79 -567h-213l81 573l-385 867h250l273 -662l463 662h245zM755 1667q-40 0 -83 -28.5t-51 -59.5l-107 98q8 15 22 30q16 15 32 33q30 32 86 61.5t122.5 29.5t139.5 -50t115 -50q41 0 61 15q20 16 29 24q18 17 28 30l18 29l105 -94q-6 -16 -34 -51
t-93.5 -75t-136 -40t-142 49t-111.5 49z" />
    <glyph glyph-name="uni1EF9" unicode="&#x1ef9;" horiz-adv-x="1013" 
d="M1130 942l-501 -926l-221 -415h-211l219 403l-256 938h229l166 -709l354 709h221zM570 1219q-36 0 -65.5 -19.5t-37.5 -32t-25 -39.5l-110 86q100 174 241 175q76 0 149 -52.5t114 -52.5q70 0 122 92l105 -82q-25 -55 -91.5 -116.5t-145.5 -61.5t-149.5 51.5t-106.5 51.5
z" />
    <glyph glyph-name="endash" unicode="&#x2013;" horiz-adv-x="1054" 
d="M184 430l23 162h807l-23 -162h-807z" />
    <glyph glyph-name="emdash" unicode="&#x2014;" horiz-adv-x="1863" 
d="M184 428l23 164h1610l-23 -164h-1610z" />
    <glyph glyph-name="quoteleft" unicode="&#x2018;" horiz-adv-x="458" 
d="M374 983q-62 0 -95 35t-33 90q0 102 68 202q69 99 173 154l52 -69q-47 -31 -86 -79t-43 -83q6 2 36 2t53 -29t23 -84t-44 -97q-42 -42 -104 -42z" />
    <glyph glyph-name="quoteright" unicode="&#x2019;" horiz-adv-x="442" 
d="M351 1229q-29 1 -55 29t-26 82t45 98t107 43q62 0 93 -34q32 -34 32 -91q0 -104 -68 -203t-172 -154l-51 70q47 31 86 79t43 83q-4 -2 -34 -2z" />
    <glyph glyph-name="quotesinglbase" unicode="&#x201a;" horiz-adv-x="473" 
d="M186 -59q-30 1 -55 29t-25 84t44 98q44 43 107 43q62 0 94 -35t32 -92q0 -104 -68 -203t-172 -154l-53 68q47 33 86 81t43 83q-3 -2 -33 -2z" />
    <glyph glyph-name="quotedblleft" unicode="&#x201c;" horiz-adv-x="794" 
d="M769 1235q29 0 55 -29q26 -28 26 -82t-45 -98t-107 -43q-62 0 -93 34q-32 34 -32 91q0 104 68 202t172 154l51 -69q-47 -31 -86 -79t-43 -83q4 2 34 2zM432 1235q28 0 54 -29q26 -28 26 -82t-45 -98t-107 -43q-62 0 -93 34q-32 34 -31 91q0 102 67 202q68 99 172 154
l51 -69q-47 -31 -85 -79t-42 -83q4 2 33 2z" />
    <glyph glyph-name="quotedblright" unicode="&#x201d;" horiz-adv-x="780" 
d="M688 1229q-28 1 -54 29t-26 82t45 98t107 43q62 0 93 -34q32 -34 32 -91q0 -102 -68 -202t-172 -155l-51 70q47 31 85 79t42 83q-4 -2 -33 -2zM351 1229q-29 1 -55 29t-26 82t45 98t107 43q62 0 93 -34q32 -34 32 -91q0 -104 -68 -203t-172 -154l-51 70q47 31 86 79
t43 83q-4 -2 -34 -2z" />
    <glyph glyph-name="quotedblbase" unicode="&#x201e;" horiz-adv-x="811" 
d="M522 -59q-32 1 -56 29t-24 84t45 98q45 43 107 43t94 -35q33 -35 33 -92q0 -102 -69 -203t-173 -154l-51 68q47 33 87 81t44 83q-6 -2 -37 -2zM186 -59q-30 1 -55 29t-25 84t44 98q44 43 107 43q62 0 94 -35t32 -92q0 -104 -68 -203t-172 -154l-53 68q47 33 86 81t43 83
q-3 -2 -33 -2z" />
    <glyph glyph-name="dagger" unicode="&#x2020;" horiz-adv-x="1144" 
d="M1182 1042l-25 -190h-369l-118 -852h-187l119 852h-373l27 190h373l61 437h187l-62 -437h367z" />
    <glyph glyph-name="daggerdbl" unicode="&#x2021;" horiz-adv-x="1144" 
d="M1167 934h-368l-56 -395h369l-27 -191h-368l-49 -348h-189l49 348h-370l28 191h369l55 395h-370l28 190h371l49 355h186l-49 -355h369z" />
    <glyph glyph-name="bullet" unicode="&#x2022;" horiz-adv-x="741" 
d="M696 777q0 -99 -66 -173t-166 -74t-158 56t-58 156t68 174t168 75q100 0 156 -57t56 -157z" />
    <glyph glyph-name="ellipsis" unicode="&#x2026;" horiz-adv-x="1429" 
d="M1352 131q0 -57 -48 -103t-106 -46q-57 0 -90 34t-33 92t47 104q46 46 104 46t92 -35t34 -92zM717 -18q-57 0 -90 34t-33 92t47 104t105 46t91 -35t33 -92t-48 -103t-105 -46zM389 131q-1 -57 -49 -103t-105 -46t-90 34t-33 92t48 104q47 46 104 46t91 -35t34 -92z" />
    <glyph glyph-name="perthousand" unicode="&#x2030;" horiz-adv-x="2385" 
d="M2049 522q-79 0 -137 -64t-58 -154q0 -89 45 -136q46 -47 124 -47t138 64q59 65 59 154t-46 136t-125 47zM1225 121q78 1 137 65t59 153t-46 136t-125 47t-137 -64t-58 -154q0 -89 46 -136t124 -47zM2372 369q0 -174 -106 -285t-252 -111q-148 0 -231 84t-83 219
q0 174 106 284t254 110t230 -83t82 -218zM1573 369q1 -174 -105 -285t-254 -111t-229 83q-82 83 -82 218q-1 174 105 285t254 111t229 -83q82 -83 82 -218zM604 1374q-78 0 -136 -64t-58 -154q0 -89 44 -136t123 -47q78 0 137 64q58 65 58 154t-45 136t-123 47zM926 1221
q0 -174 -106 -285t-252 -111t-229 83t-83 218q0 174 106 285t252 111t229 -83t83 -218zM440 -51l-145 76l1079 1529l148 -81z" />
    <glyph glyph-name="guilsinglleft" unicode="&#x2039;" horiz-adv-x="579" 
d="M311 143l-166 365l269 354h192l-278 -354l176 -365h-193z" />
    <glyph glyph-name="guilsinglright" unicode="&#x203a;" horiz-adv-x="581" 
d="M117 143l278 365l-178 354h193l168 -354l-269 -365h-192z" />
    <glyph glyph-name="fraction" unicode="&#x2044;" horiz-adv-x="868" 
d="M152 -12l-138 67l895 1403l135 -76z" />
    <glyph glyph-name="Euro" unicode="&#x20ac;" horiz-adv-x="1556" 
d="M1152.5 1266q-189.5 0 -318.5 -79t-199 -220h532l-22 -160h-565q-16 -82 -17 -166v-10h557l-22 -160h-508q45 -137 160.5 -217t297 -80t314.5 105l84 -160q-180 -137 -440.5 -137t-432.5 134t-217 355h-215l23 160h178q0 90 18 176h-172l23 160h195q88 225 280.5 358
t462 133t459.5 -135l-121 -168q-145 111 -334.5 111z" />
    <glyph glyph-name="trademark" unicode="&#x2122;" horiz-adv-x="1337" 
d="M260 1321l16 115h439l-15 -115h-161l-62 -430h-119l62 430h-160zM1280 1440h100l-55 -549h-115l41 356l-168 -229h-86l-102 229l-57 -356h-115l100 549h101l135 -297z" />
    <glyph glyph-name="minus" unicode="&#x2212;" horiz-adv-x="1087" 
d="M190 518l25 166h852l-25 -166h-852z" />
    <glyph glyph-name="approxequal" unicode="&#x2248;" horiz-adv-x="1126" 
d="M760 207q-82 0 -176 46t-162 46t-141 -74l-105 101l23 26q46 57 141 101q55 22 125 22t165 -47t152 -47t96 24q50 31 70 60l101 -96q-4 -10 -35 -45q-32 -35 -102 -76t-152 -41zM486 762q-68 0 -140 -72l-104 98l4 7q17 17 48 50t97 62q65 29 136 29t167 -46t150 -46
t105 28q50 28 63 58l102 -99l-17 -21q-62 -79 -162 -123q-51 -19 -121 -19q-71 0 -165 47q-95 47 -163 47z" />
    <glyph glyph-name="notequal" unicode="&#x2260;" horiz-adv-x="1191" 
d="M1143 735h-332l-115 -289h406l-25 -165h-446l-101 -256h-186l100 256h-294l22 165h338l113 289h-410l25 166h450l90 232h189l-90 -232h288z" />
    <glyph glyph-name="uniF8FF" unicode="&#xf8ff;" horiz-adv-x="2822" 
d="M2238 31h15q8 0 8 6t-8 6h-15v-12zM2228 4v47h23q20 0 20 -14t-14 -14l12 -19h-12l-8 19h-11v-19h-10zM2249 -10q37 0 37 37t-37 37t-37 -38q0 -36 37 -36zM2249 -20q-49 0 -49 47t49 47t49 -47t-49 -47zM1448 223q0 47 -43 47t-43 -63q0 -29 10 -60q30 -1 53 23t23 53z
M1921 223h82q6 55 -35 56q-47 -1 -47 -56zM1987 -10q-289 0 -289 250q0 122 66 190t185 68q118 0 180 -62t62 -176q0 -43 -6 -72h-254q23 -36 98 -36t117 24v-153q-46 -33 -159 -33zM1143 -90q0 291 20 577h160q14 -86 14 -155q35 166 164 166q76 0 120 -60t44 -172
q0 -276 -281 -276q2 -31 2 -80h-243zM1110 210q0 -172 -68 -242t-218 -70t-206 34v170q49 -32 118 -32q136 1 136 57q-33 -23 -100 -23q-184 0 -184 170v27h-113l6 -133q12 -8 35 -8t33 10v-150q-39 -30 -135 -30t-133 35t-37 113t6 163h-37v164l240 59l-2 -37h362v-243
q0 -33 6 -44t25 -12q33 0 33 56v243h213q20 -106 20 -277zM2517 707q45 0 45 57t-45 57t-45 -57t45 -57zM752 707q47 0 47 57t-47 57t-47 -57t47 -57zM2519 1053q248 0 248 -255t-251 -255t-251 255t254 255zM1708 553q0 358 21 489h163q12 -90 13 -155q4 31 13 61t49 68
q39 37 113 37q74 1 108 -51t38 -166l6 -283h-233l4 190q0 59 -31 60q-37 0 -37 -60l7 -190h-234zM1012 813v-260h-170l-17 125q-24 -135 -153 -135q-188 0 -189 233q0 276 275 277q254 0 254 -240zM1032 854v162l244 61l2 -35h364q20 -131 21 -489h-242q0 188 6 301h-124
l6 -133q9 -8 33 -8t34 10v-152q-28 -30 -139 -30q-168 0 -168 135l8 178h-45zM205 553q0 274 18 643h205q20 -410 21 -643h-244zM1540 1069q-53 0 -89 37t-36 89t36 89t89 37t90 -37t37 -90t-37 -89t-90 -36z" />
    <glyph glyph-name="A.ss01" horiz-adv-x="1456" 
d="M907 1268q-172 0 -281.5 -117t-138.5 -328l-28 -198h712l29 198q29 209 -46 327t-247 118zM931 1458q265 0 395 -166t85 -483l-115 -809h-213l62 440h-711l-61 -440h-213l112 809q45 317 219.5 483t439.5 166z" />
    <glyph glyph-name="Aacute.ss01" horiz-adv-x="1456" 
d="M907 1268q-172 0 -281.5 -117t-138.5 -328l-28 -198h712l29 198q29 209 -46 327t-247 118zM931 1458q265 0 395 -166t85 -483l-115 -809h-213l62 440h-711l-61 -440h-213l112 809q45 317 219.5 483t439.5 166zM1231 1683l-461 -133l-37 129l449 203z" />
    <glyph glyph-name="Abreve.ss01" horiz-adv-x="1456" 
d="M907 1268q-172 0 -281.5 -117t-138.5 -328l-28 -198h712l29 198q29 209 -46 327t-247 118zM931 1458q265 0 395 -166t85 -483l-115 -809h-213l62 440h-711l-61 -440h-213l112 809q45 317 219.5 483t439.5 166zM949 1571q-130 0 -197.5 74.5t-51.5 199.5h160
q-8 -59 22.5 -95t88 -36t96.5 36t47 95h162q-16 -125 -106.5 -199.5t-220.5 -74.5z" />
    <glyph glyph-name="Acircumflex.ss01" horiz-adv-x="1456" 
d="M907 1268q-172 0 -281.5 -117t-138.5 -328l-28 -198h712l29 198q29 209 -46 327t-247 118zM931 1458q265 0 395 -166t85 -483l-115 -809h-213l62 440h-711l-61 -440h-213l112 809q45 317 219.5 483t439.5 166zM967 1696l-146 -135h-196l288 290h158l197 -290h-197z" />
    <glyph glyph-name="Adieresis.ss01" horiz-adv-x="1456" 
d="M907 1268q-172 0 -281.5 -117t-138.5 -328l-28 -198h712l29 198q29 209 -46 327t-247 118zM931 1458q265 0 395 -166t85 -483l-115 -809h-213l62 440h-711l-61 -440h-213l112 809q45 317 219.5 483t439.5 166zM1166 1579q-52 0 -82.5 31.5t-30.5 86t43 95.5t96 41t84 -32
t31 -86t-44.5 -95t-96.5 -41zM747 1581q-53 0 -84.5 32t-31.5 86t44 95t97 41t83 -31.5t30 -86t-42.5 -95.5t-95.5 -41z" />
    <glyph glyph-name="Agrave.ss01" horiz-adv-x="1456" 
d="M907 1268q-172 0 -281.5 -117t-138.5 -328l-28 -198h712l29 198q29 209 -46 327t-247 118zM931 1458q265 0 395 -166t85 -483l-115 -809h-213l62 440h-711l-61 -440h-213l112 809q45 317 219.5 483t439.5 166zM1202 1688l-63 -129l-428 116l92 201z" />
    <glyph glyph-name="Aogonek.ss01" horiz-adv-x="1456" 
d="M907 1268q-172 0 -281.5 -117t-138.5 -328l-28 -198h712l29 198q29 209 -46 327t-247 118zM1204 -326q43 0 74 25l59 -119q-72 -53 -167 -53t-154.5 53t-59.5 139q0 162 168 281h-41l62 440h-711l-61 -440h-213l112 809q45 317 219.5 483t439.5 166t395 -166t85 -483
l-115 -809q-6 -4 -18 -11q-46 -27 -101 -86.5t-55 -144t82 -84.5z" />
    <glyph glyph-name="Aring.ss01" horiz-adv-x="1456" 
d="M907 1268q-172 0 -281.5 -117t-138.5 -328l-28 -198h712l29 198q29 209 -46 327t-247 118zM931 1458q265 0 395 -166t85 -483l-115 -809h-213l62 440h-711l-61 -440h-213l112 809q45 317 219.5 483t439.5 166zM1059 1742q0 85 -76 85q-37 0 -66.5 -31t-29.5 -71
t20.5 -63.5t57.5 -23.5t65.5 32t28.5 72zM954 1526q-90 0 -141 50t-51 139t70.5 155.5t160.5 66.5t140.5 -50t50.5 -138t-70 -155.5t-160 -67.5z" />
    <glyph glyph-name="Atilde.ss01" horiz-adv-x="1456" 
d="M907 1268q-172 0 -281.5 -117t-138.5 -328l-28 -198h712l29 198q29 209 -46 327t-247 118zM931 1458q265 0 395 -166t85 -483l-115 -809h-213l62 440h-711l-61 -440h-213l112 809q45 317 219.5 483t439.5 166zM833 1667q-40 0 -83.5 -29t-51.5 -59l-106 98q8 15 22 30
q16 15 32 33q30 32 86 61.5t122.5 29.5t139.5 -50t114 -50q42 0 62 15q20 16 29 24q18 17 28 30l18 29l105 -94q-6 -16 -34 -51t-93.5 -75t-136.5 -40t-142 49t-111 49z" />
    <glyph glyph-name="R.ss01" horiz-adv-x="1333" 
d="M711 631q174 0 283.5 97t109.5 240.5t-81 214t-216 70.5h-242l-88 -622h234zM1249 158q16 0 54 4l-25 -168l-57 -9q-27 -3 -56 -3q-86 0 -152.5 47t-107.5 115t-75 136q-84 163 -160 164h-217l-64 -444h-209l203 1440h461q221 0 349 -111.5t128 -309t-102.5 -336.5
t-278.5 -198q64 -47 138 -196q26 -51 71 -91t100 -40z" />
    <glyph glyph-name="Racute.ss01" horiz-adv-x="1333" 
d="M711 631q174 0 283.5 97t109.5 240.5t-81 214t-216 70.5h-242l-88 -622h234zM1249 158q16 0 54 4l-25 -168l-57 -9q-27 -3 -56 -3q-86 0 -152.5 47t-107.5 115t-75 136q-84 163 -160 164h-217l-64 -444h-209l203 1440h461q221 0 349 -111.5t128 -309t-102.5 -336.5
t-278.5 -198q64 -47 138 -196q26 -51 71 -91t100 -40zM1112 1683l-461 -133l-37 129l449 203z" />
    <glyph glyph-name="Rcaron.ss01" horiz-adv-x="1333" 
d="M711 631q174 0 283.5 97t109.5 240.5t-81 214t-216 70.5h-242l-88 -622h234zM1249 158q16 0 54 4l-25 -168l-57 -9q-27 -3 -56 -3q-86 0 -152.5 47t-107.5 115t-75 136q-84 163 -160 164h-217l-64 -444h-209l203 1440h461q221 0 349 -111.5t128 -309t-102.5 -336.5
t-278.5 -198q64 -47 138 -196q26 -51 71 -91t100 -40zM907 1561h-157l-197 290h197l106 -135l145 135h195z" />
    <glyph glyph-name="Rcommaaccent.ss01" horiz-adv-x="1333" 
d="M665 -78q60 0 97 -39t37 -116.5t-50.5 -156.5t-132.5 -120l-59 64q39 29 68.5 67.5t29.5 65.5q-6 -2 -35.5 -2t-58.5 31.5t-30 82.5t36.5 87t97.5 36zM711 631q174 0 283.5 97t109.5 240.5t-81 214t-216 70.5h-242l-88 -622h234zM1249 158q16 0 54 4l-25 -168l-57 -9
q-27 -3 -56 -3q-86 0 -152.5 47t-107.5 115t-75 136q-84 163 -160 164h-217l-64 -444h-209l203 1440h461q221 0 349 -111.5t128 -309t-102.5 -336.5t-278.5 -198q64 -47 138 -196q26 -51 71 -91t100 -40z" />
    <glyph glyph-name="Y.ss01" horiz-adv-x="1294" 
d="M741 659q170 0 275.5 117t132.5 316l49 348h215l-47 -336q-39 -274 -182.5 -435t-362.5 -192l-65 -477h-211l67 477q-211 31 -310 192.5t-62 434.5l47 336h209l-47 -348q-29 -199 46.5 -316t245.5 -117z" />
    <glyph glyph-name="Yacute.ss01" horiz-adv-x="1294" 
d="M741 659q170 0 275.5 117t132.5 316l49 348h215l-47 -336q-39 -274 -182.5 -435t-362.5 -192l-65 -477h-211l67 477q-211 31 -310 192.5t-62 434.5l47 336h209l-47 -348q-29 -199 46.5 -316t245.5 -117zM1141 1683l-461 -133l-37 129l449 203z" />
    <glyph glyph-name="Ycircumflex.ss01" horiz-adv-x="1294" 
d="M741 659q170 0 275.5 117t132.5 316l49 348h215l-47 -336q-39 -274 -182.5 -435t-362.5 -192l-65 -477h-211l67 477q-211 31 -310 192.5t-62 434.5l47 336h209l-47 -348q-29 -199 46.5 -316t245.5 -117zM877 1696l-146 -135h-196l288 290h158l197 -290h-197z" />
    <glyph glyph-name="Ydieresis.ss01" horiz-adv-x="1294" 
d="M741 659q170 0 275.5 117t132.5 316l49 348h215l-47 -336q-39 -274 -182.5 -435t-362.5 -192l-65 -477h-211l67 477q-211 31 -310 192.5t-62 434.5l47 336h209l-47 -348q-29 -199 46.5 -316t245.5 -117zM1076 1579q-52 0 -82.5 31.5t-30.5 86t43 95.5t96 41t84 -32
t31 -86t-44.5 -95t-96.5 -41zM657 1581q-53 0 -84.5 32t-31.5 86t44 95t97 41t83 -31.5t30 -86t-42.5 -95.5t-95.5 -41z" />
    <glyph glyph-name="Ygrave.ss01" horiz-adv-x="1294" 
d="M741 659q170 0 275.5 117t132.5 316l49 348h215l-47 -336q-39 -274 -182.5 -435t-362.5 -192l-65 -477h-211l67 477q-211 31 -310 192.5t-62 434.5l47 336h209l-47 -348q-29 -199 46.5 -316t245.5 -117zM1112 1688l-63 -129l-428 116l92 201z" />
    <glyph glyph-name="uni1EF8.ss01" horiz-adv-x="1294" 
d="M741 659q170 0 275.5 117t132.5 316l49 348h215l-47 -336q-39 -274 -182.5 -435t-362.5 -192l-65 -477h-211l67 477q-211 31 -310 192.5t-62 434.5l47 336h209l-47 -348q-29 -199 46.5 -316t245.5 -117zM742 1667q-40 0 -83.5 -29t-50.5 -59l-106 98q8 15 22.5 30
t30.5 33q29 32 86.5 61.5t123.5 29.5t139 -50t114 -50q42 0 62 15q20 16 29 24q11 11 27 30l19 29l105 -94q-6 -16 -34 -51t-93.5 -75t-136.5 -40t-142.5 49t-111.5 49z" />
    <glyph glyph-name="ae.001" horiz-adv-x="1665" 
d="M449 123q104 0 181 64.5t101 138.5l4 26q-88 49 -201.5 49t-171 -41t-57.5 -104t39 -98t105 -35zM1262.5 795q-105.5 0 -183.5 -63.5t-108 -174.5h504q8 106 -49.5 172t-163 66zM1665 557q0 -85 -20 -145h-691q4 -115 77 -186.5t205 -71.5t249 92l76 -140
q-164 -125 -373 -124q-125 0 -218 59t-141 164q-139 -223 -417 -223q-160 0 -239 67.5t-79 192.5t110.5 207.5t280 82.5t269.5 -53l10 70q37 250 -211 250q-127 0 -270 -72l-45 145q186 88 360 89q240 0 324 -162q141 162 356 162q182 0 284.5 -110t102.5 -294z" />
    <glyph glyph-name="i.loclTRK" horiz-adv-x="473" 
d="M133 0l135 942h205l-133 -942h-207zM401.5 1122q-63.5 0 -101.5 35t-38 96.5t43 103.5t105.5 42t100.5 -35t38 -95.5t-42 -103.5t-105.5 -43z" />
    <glyph glyph-name="a.ss01" horiz-adv-x="1013" 
d="M449 127q109 0 192.5 71.5t93.5 151.5q-86 51 -211 51q-219 0 -219 -151q0 -57 40.5 -90t103.5 -33zM611.5 961q189.5 0 288.5 -105.5t71 -306.5l-78 -549h-174l14 150q-111 -168 -354 -168q-131 0 -208 66.5t-77 176.5q0 139 111.5 224.5t277 85.5t273.5 -50l8 64
q16 115 -40 182.5t-178 67.5t-265 -72l-43 145q184 89 373.5 89z" />
    <glyph glyph-name="aacute.ss01" horiz-adv-x="1013" 
d="M449 127q109 0 192.5 71.5t93.5 151.5q-86 51 -211 51q-219 0 -219 -151q0 -57 40.5 -90t103.5 -33zM611.5 961q189.5 0 288.5 -105.5t71 -306.5l-78 -549h-174l14 150q-111 -168 -354 -168q-131 0 -208 66.5t-77 176.5q0 139 111.5 224.5t277 85.5t273.5 -50l8 64
q16 115 -40 182.5t-178 67.5t-265 -72l-43 145q184 89 373.5 89zM899 1274l-414 -199l-57 117l395 246z" />
    <glyph glyph-name="abreve.ss01" horiz-adv-x="1013" 
d="M449 127q109 0 192.5 71.5t93.5 151.5q-86 51 -211 51q-219 0 -219 -151q0 -57 40.5 -90t103.5 -33zM611.5 961q189.5 0 288.5 -105.5t71 -306.5l-78 -549h-174l14 150q-111 -168 -354 -168q-131 0 -208 66.5t-77 176.5q0 139 111.5 224.5t277 85.5t273.5 -50l8 64
q16 115 -40 182.5t-178 67.5t-265 -72l-43 145q184 89 373.5 89zM642 1096q-132 0 -202.5 85t-50.5 226h158q-10 -78 21.5 -125t94 -47t108.5 48t54 124h158q-20 -141 -114.5 -226t-226.5 -85z" />
    <glyph glyph-name="acircumflex.ss01" horiz-adv-x="1013" 
d="M449 127q109 0 192.5 71.5t93.5 151.5q-86 51 -211 51q-219 0 -219 -151q0 -57 40.5 -90t103.5 -33zM611.5 961q189.5 0 288.5 -105.5t71 -306.5l-78 -549h-174l14 150q-111 -168 -354 -168q-131 0 -208 66.5t-77 176.5q0 139 111.5 224.5t277 85.5t273.5 -50l8 64
q16 115 -40 182.5t-178 67.5t-265 -72l-43 145q184 89 373.5 89zM664 1264l-150 -172h-184l280 327h158l180 -327h-180z" />
    <glyph glyph-name="adieresis.ss01" horiz-adv-x="1013" 
d="M449 127q109 0 192.5 71.5t93.5 151.5q-86 51 -211 51q-219 0 -219 -151q0 -57 40.5 -90t103.5 -33zM611.5 961q189.5 0 288.5 -105.5t71 -306.5l-78 -549h-174l14 150q-111 -168 -354 -168q-131 0 -208 66.5t-77 176.5q0 139 111.5 224.5t277 85.5t273.5 -50l8 64
q16 115 -40 182.5t-178 67.5t-265 -72l-43 145q184 89 373.5 89zM865 1141q-54 0 -84.5 31.5t-30.5 86.5t42 95.5t95 40.5t83.5 -32t30.5 -88t-41 -95t-95 -39zM447 1143q-54 0 -85.5 31.5t-31.5 86.5t42 95.5t96 40.5t85 -32t31 -88t-41.5 -95t-95.5 -39z" />
    <glyph glyph-name="agrave.ss01" horiz-adv-x="1013" 
d="M449 127q109 0 192.5 71.5t93.5 151.5q-86 51 -211 51q-219 0 -219 -151q0 -57 40.5 -90t103.5 -33zM611.5 961q189.5 0 288.5 -105.5t71 -306.5l-78 -549h-174l14 150q-111 -168 -354 -168q-131 0 -208 66.5t-77 176.5q0 139 111.5 224.5t277 85.5t273.5 -50l8 64
q16 115 -40 182.5t-178 67.5t-265 -72l-43 145q184 89 373.5 89zM877 1192l-84 -117l-363 199l119 166z" />
    <glyph glyph-name="amacron.ss01" horiz-adv-x="1013" 
d="M449 127q109 0 192.5 71.5t93.5 151.5q-86 51 -211 51q-219 0 -219 -151q0 -57 40.5 -90t103.5 -33zM611.5 961q189.5 0 288.5 -105.5t71 -306.5l-78 -549h-174l14 150q-111 -168 -354 -168q-131 0 -208 66.5t-77 176.5q0 139 111.5 224.5t277 85.5t273.5 -50l8 64
q16 115 -40 182.5t-178 67.5t-265 -72l-43 145q184 89 373.5 89zM971 1317l-23 -162h-590l23 162h590z" />
    <glyph glyph-name="aogonek.ss01" horiz-adv-x="1013" 
d="M449 127q109 0 192.5 71.5t93.5 151.5q-86 51 -211 51q-219 0 -219 -151q0 -57 40.5 -90t103.5 -33zM692 -256q0 -86 84 -86q39 0 76 29l43 -111q-84 -61 -174 -61t-140.5 48t-50.5 130q0 174 189 313l14 144q-111 -168 -354 -168q-131 0 -208 66.5t-77 176.5
q0 139 111.5 224.5t277 85.5t273.5 -50l8 64q16 115 -40 182.5t-178 67.5t-265 -72l-43 145q184 88 373.5 88.5t288.5 -105t71 -306.5l-78 -549q-123 -62 -179 -171q-22 -42 -22 -85z" />
    <glyph glyph-name="aring.ss01" horiz-adv-x="1013" 
d="M449 127q109 0 192.5 71.5t93.5 151.5q-86 51 -211 51q-219 0 -219 -151q0 -57 40.5 -90t103.5 -33zM611.5 961q189.5 0 288.5 -105.5t71 -306.5l-78 -549h-174l14 150q-111 -168 -354 -168q-131 0 -208 66.5t-77 176.5q0 139 111.5 224.5t277 85.5t273.5 -50l8 64
q16 115 -40 182.5t-178 67.5t-265 -72l-43 145q184 89 373.5 89zM580 1268q0 -88 80 -88q38 0 68 30.5t30 79.5q0 80 -80 80q-39 0 -68.5 -29.5t-29.5 -72.5zM648 1067q-91 0 -142 50t-51 139t71.5 158t162.5 69t141.5 -51.5t50.5 -140.5t-71 -156.5t-162 -67.5z" />
    <glyph glyph-name="atilde.ss01" horiz-adv-x="1013" 
d="M449 127q109 0 192.5 71.5t93.5 151.5q-86 51 -211 51q-219 0 -219 -151q0 -57 40.5 -90t103.5 -33zM611.5 961q189.5 0 288.5 -105.5t71 -306.5l-78 -549h-174l14 150q-111 -168 -354 -168q-131 0 -208 66.5t-77 176.5q0 139 111.5 224.5t277 85.5t273.5 -50l8 64
q16 115 -40 182.5t-178 67.5t-265 -72l-43 145q184 89 373.5 89zM538 1219q-36 0 -66 -19.5t-38 -32t-24 -39.5l-111 86q100 174 242 175q76 0 148.5 -52.5t113.5 -52.5q70 0 123 92l104 -82q-25 -55 -91.5 -116.5t-145 -61.5t-149 51.5t-106.5 51.5z" />
    <glyph glyph-name="a.sc" horiz-adv-x="1079" 
d="M422 358h336l-105 433zM846 0l-51 207h-455l-111 -207h-211l605 1061h135l301 -1061h-213z" />
    <glyph glyph-name="aacute.sc" horiz-adv-x="1079" 
d="M422 358h336l-105 433zM846 0l-51 207h-455l-111 -207h-211l605 1061h135l301 -1061h-213zM969 1319l-418 -189l-62 123l390 238z" />
    <glyph glyph-name="abreve.sc" horiz-adv-x="1079" 
d="M422 358h336l-105 433zM846 0l-51 207h-455l-111 -207h-211l605 1061h135l301 -1061h-213zM696 1153q-127 0 -195.5 83t-47.5 220h157q-10 -74 18.5 -118t88 -44t100.5 44t51 118h158q-20 -137 -111.5 -220t-218.5 -83z" />
    <glyph glyph-name="acircumflex.sc" horiz-adv-x="1079" 
d="M422 358h336l-105 433zM846 0l-51 207h-455l-111 -207h-211l605 1061h135l301 -1061h-213zM717 1321l-158 -170h-186l282 317h158l188 -317h-180z" />
    <glyph glyph-name="adieresis.sc" horiz-adv-x="1079" 
d="M422 358h336l-105 433zM846 0l-51 207h-455l-111 -207h-211l605 1061h135l301 -1061h-213zM915 1182q-55 0 -87.5 30.5t-32.5 85.5t39.5 94.5t95 39.5t87.5 -32t32 -87t-39.5 -93t-94.5 -38zM486 1182q-56 0 -88.5 30.5t-32.5 85.5t39.5 94.5t95 39.5t87 -32t31.5 -87
t-38 -93t-94 -38z" />
    <glyph glyph-name="agrave.sc" horiz-adv-x="1079" 
d="M422 358h336l-105 433zM846 0l-51 207h-455l-111 -207h-211l605 1061h135l301 -1061h-213zM911 1253l-65 -120l-414 186l90 172z" />
    <glyph glyph-name="amacron.sc" horiz-adv-x="1079" 
d="M422 358h336l-105 433zM846 0l-51 207h-455l-111 -207h-211l605 1061h135l301 -1061h-213zM1016 1378l-23 -161h-579l22 161h580z" />
    <glyph glyph-name="aogonek.sc" horiz-adv-x="1079" 
d="M422 358h336l-105 433zM898 -485q-97 0 -153.5 49t-56.5 143q0 162 168 293h-10l-51 207h-455l-111 -207h-211l605 1061h135l301 -1061h-12q-129 -65 -179 -163q-22 -42 -22 -87t23.5 -69.5t62.5 -24.5t82 31l51 -111q-70 -61 -167 -61z" />
    <glyph glyph-name="aring.sc" horiz-adv-x="1079" 
d="M422 358h336l-105 433zM846 0l-51 207h-455l-111 -207h-211l605 1061h135l301 -1061h-213zM724 1419q-38 0 -64.5 -28.5t-26.5 -69.5t22.5 -65.5t60.5 -24.5t63.5 29.5t25.5 70.5t-21.5 64.5t-59.5 23.5zM708 1118q-92 0 -145 52.5t-53 141t64.5 152.5t156.5 64
t145.5 -51.5t53.5 -140t-65 -153.5t-157 -65z" />
    <glyph glyph-name="atilde.sc" horiz-adv-x="1079" 
d="M422 358h336l-105 433zM623 1061h135l301 -1061h-213l-51 207h-455l-111 -207h-211zM579 1274q-42 0 -72 -26.5t-36 -47.5l-121 98q10 25 30.5 53.5t76 63.5t122 35t141.5 -42t116.5 -42t71.5 27.5t38 50.5l119 -94q-22 -67 -93 -112.5t-140 -45.5t-140 41t-113 41z" />
    <glyph glyph-name="ae.sc" horiz-adv-x="1382" 
d="M455 393h233l66 473zM0 0l688 1061h748l-27 -180h-453l-36 -258h391l-23 -166h-391l-39 -279h455l-27 -178h-653l31 225h-310l-143 -225h-211z" />
    <glyph glyph-name="aeacute.sc" horiz-adv-x="1382" 
d="M455 393h233l66 473zM0 0l688 1061h748l-27 -180h-453l-36 -258h391l-23 -166h-391l-39 -279h455l-27 -178h-653l31 225h-310l-143 -225h-211zM893 1126l-62 123l390 238l90 -172z" />
    <glyph glyph-name="b.sc" horiz-adv-x="1042" 
d="M590 164q106 0 159 46q52 46 52 112q0 136 -172 137h-219l-41 -295h221zM827 766q0 132 -147 131h-209l-39 -281h205q92 0 141 43t49 107zM561 0h-414l150 1061h393q172 0 256 -68t84 -174q0 -107 -54 -175t-138 -97q162 -45 161 -217q-1 -152 -111 -241t-327 -89z" />
    <glyph glyph-name="c.sc" horiz-adv-x="1024" 
d="M633 -18q-213 0 -348 137t-135 352q0 270 174 439t434 169q209 0 350 -110l-109 -162q-104 82 -261.5 82t-266.5 -107.5t-109 -268t87.5 -251t228.5 -91.5t252 77l84 -156q-168 -110 -381 -110z" />
    <glyph glyph-name="cacute.sc" horiz-adv-x="1024" 
d="M633 -18q-213 0 -348 137t-135 352q0 270 174 439t434 169q209 0 350 -110l-109 -162q-104 82 -261.5 82t-266.5 -107.5t-109 -268t87.5 -251t228.5 -91.5t252 77l84 -156q-168 -110 -381 -110zM625 1130l-62 123l389 238l90 -172z" />
    <glyph glyph-name="ccaron.sc" horiz-adv-x="1024" 
d="M737.5 889q-157.5 0 -266.5 -107.5t-109 -268t87.5 -251t228.5 -91.5t252 77l84 -156q-168 -111 -381 -110.5t-348 137.5t-135 352q0 270 174 439t434 169q209 0 350 -110l-109 -162q-104 82 -261.5 82zM840 1151h-160l-199 317h183l112 -168l150 168h184z" />
    <glyph glyph-name="ccedilla.sc" horiz-adv-x="1024" 
d="M817 -279.5q0 -86.5 -73.5 -153.5t-201.5 -67t-198 70l59 98q61 -49 132 -51t103 29.5t32 79.5q0 90 -123 90q-10 0 -47 -4l-17 28l70 148q-182 29 -292.5 160t-110.5 323q0 270 174 439t434 169q209 0 350 -110l-109 -162q-104 82 -261.5 82t-266.5 -107.5t-109 -268
t87.5 -251t228.5 -91.5t252 77l84 -156q-154 -102 -338 -110l-33 -72q78 -8 126 -55.5t48 -134z" />
    <glyph glyph-name="cdotaccent.sc" horiz-adv-x="1024" 
d="M633 -18q-213 0 -348 137t-135 352q0 270 174 439t434 169q209 0 350 -110l-109 -162q-104 82 -261.5 82t-266.5 -107.5t-109 -268t87.5 -251t228.5 -91.5t252 77l84 -156q-168 -110 -381 -110zM784 1180q-57 0 -92 33.5t-35 89.5t44 99.5t102.5 43.5t91.5 -34t33 -91
t-43.5 -99t-100.5 -42z" />
    <glyph glyph-name="d.sc" horiz-adv-x="1175" 
d="M559 178q186 0 295 112.5t109 291.5q0 137 -77 219t-210 82h-201l-100 -705h184zM696 1061q219 0 347 -125t128 -332q0 -268 -172 -436t-452 -168h-400l150 1061h399z" />
    <glyph glyph-name="eth.sc" horiz-adv-x="1175" 
d="M559 178q186 0 295 112.5t109 291.5q0 137 -77 219t-210 82h-201l-39 -275h226l-21 -143h-225l-41 -287h184zM696 1061q219 0 347 -125t128 -332q0 -268 -172 -436t-452 -168h-400l66 465h-143l20 143h143l64 453h399z" />
    <glyph glyph-name="dcaron.sc" horiz-adv-x="1175" 
d="M559 178q186 0 295 112.5t109 291.5q0 137 -77 219t-210 82h-201l-100 -705h184zM696 1061q219 0 347 -125t128 -332q0 -268 -172 -436t-452 -168h-400l150 1061h399zM776 1151h-160l-198 317h182l113 -168l149 168h185z" />
    <glyph glyph-name="dcroat.sc" horiz-adv-x="1175" 
d="M559 178q186 0 295 112.5t109 291.5q0 137 -77 219t-210 82h-201l-39 -275h226l-21 -143h-225l-41 -287h184zM696 1061q219 0 347 -125t128 -332q0 -268 -172 -436t-452 -168h-400l66 465h-143l20 143h143l64 453h399z" />
    <glyph glyph-name="e.sc" horiz-adv-x="956" 
d="M985 889h-512l-39 -266h451l-25 -170h-448l-39 -279h512l-25 -174h-710l149 1061h711z" />
    <glyph glyph-name="eacute.sc" horiz-adv-x="956" 
d="M985 889h-512l-39 -266h451l-25 -170h-448l-39 -279h512l-25 -174h-710l149 1061h711zM950 1319l-418 -189l-61 123l389 238z" />
    <glyph glyph-name="ecaron.sc" horiz-adv-x="956" 
d="M150 0l149 1061h711l-25 -172h-512l-39 -266h451l-25 -170h-448l-39 -279h512l-25 -174h-710zM748 1151h-160l-199 317h182l113 -168l150 168h184z" />
    <glyph glyph-name="ecircumflex.sc" horiz-adv-x="956" 
d="M985 889h-512l-39 -266h451l-25 -170h-448l-39 -279h512l-25 -174h-710l149 1061h711zM698 1321l-157 -170h-187l283 317h158l188 -317h-180z" />
    <glyph glyph-name="edieresis.sc" horiz-adv-x="956" 
d="M150 0l149 1061h711l-25 -172h-512l-39 -266h451l-25 -170h-448l-39 -279h512l-25 -174h-710zM897 1182q-55 0 -88 30.5t-33 85.5t40 94.5t95 39.5t87 -32t32 -87t-39 -93t-94 -38zM468 1182q-56 0 -89 30.5t-33 85.5t40 94.5t95 39.5t87 -32t32 -87t-38 -93t-94 -38z
" />
    <glyph glyph-name="edotaccent.sc" horiz-adv-x="956" 
d="M985 889h-512l-39 -266h451l-25 -170h-448l-39 -279h512l-25 -174h-710l149 1061h711zM692 1180q-57 0 -92 33.5t-35 89.5t44 99.5t102.5 43.5t91.5 -34t33 -91t-43.5 -99t-100.5 -42z" />
    <glyph glyph-name="egrave.sc" horiz-adv-x="956" 
d="M985 889h-512l-39 -266h451l-25 -170h-448l-39 -279h512l-25 -174h-710l149 1061h711zM893 1253l-66 -120l-413 186l90 172z" />
    <glyph glyph-name="emacron.sc" horiz-adv-x="956" 
d="M985 889h-512l-39 -266h451l-25 -170h-448l-39 -279h512l-25 -174h-710l149 1061h711zM997 1378l-22 -161h-580l23 161h579z" />
    <glyph glyph-name="eogonek.sc" horiz-adv-x="956" 
d="M659 -250q0 -45 24 -69.5t62.5 -24.5t81.5 31l52 -111q-70 -61 -167.5 -61t-153.5 49t-56 143q0 162 168 293h-520l149 1061h711l-25 -172h-512l-39 -266h451l-25 -170h-448l-39 -279h512l-25 -174q-130 -65 -180 -163q-22 -42 -21 -87z" />
    <glyph glyph-name="f.sc" horiz-adv-x="915" 
d="M977 883h-502l-47 -338h434l-24 -178h-437l-51 -367h-203l150 1061h704z" />
    <glyph glyph-name="g.sc" horiz-adv-x="1128" 
d="M150 469q0 272 179 441t445 169q201 0 361 -104l-115 -160q-106 74 -271 74t-277 -104.5t-112 -295.5q0 -145 93.5 -234t234.5 -89q96 0 182 45l43 317h189l-60 -430q-164 -117 -386 -116.5t-364 136.5t-142 351z" />
    <glyph glyph-name="gbreve.sc" horiz-adv-x="1128" 
d="M150 469q0 272 179 441t445 169q201 0 361 -104l-115 -160q-106 74 -271 74t-277 -104.5t-112 -295.5q0 -145 93.5 -234t234.5 -89q96 0 182 45l43 317h189l-60 -430q-164 -117 -386 -116.5t-364 136.5t-142 351zM778 1153q-127 0 -195.5 83t-47.5 220h157
q-10 -74 18.5 -118t88 -44t100.5 44t51 118h158q-20 -137 -111.5 -220t-218.5 -83z" />
    <glyph glyph-name="gcommaaccent.sc" horiz-adv-x="1128" 
d="M621.5 -111q60.5 0 91 -33.5t30.5 -88.5q0 -96 -64.5 -190.5t-166.5 -145.5l-49 67q117 87 121 144q-6 -2 -33 -2t-51.5 27.5t-24.5 81.5t43 97t103.5 43zM150 469q0 272 179 441t445 169q201 0 361 -104l-115 -160q-106 74 -271 74t-277 -104.5t-112 -295.5
q0 -145 93.5 -234t234.5 -89q96 0 182 45l43 317h189l-60 -430q-164 -117 -386 -116.5t-364 136.5t-142 351z" />
    <glyph glyph-name="gdotaccent.sc" horiz-adv-x="1128" 
d="M150 469q0 272 179 441t445 169q201 0 361 -104l-115 -160q-106 74 -271 74t-277 -104.5t-112 -295.5q0 -145 93.5 -234t234.5 -89q96 0 182 45l43 317h189l-60 -430q-164 -117 -386 -116.5t-364 136.5t-142 351zM792 1180q-57 0 -91.5 33.5t-34.5 89.5t44 99.5t102 43.5
t91 -34t33 -91t-43.5 -99t-100.5 -42z" />
    <glyph glyph-name="h.sc" horiz-adv-x="1232" 
d="M1030 1061h205l-150 -1061h-204l61 438h-516l-61 -438h-218l150 1061h217l-61 -434h516z" />
    <glyph glyph-name="hbar.sc" horiz-adv-x="1232" 
d="M969 627l18 125h-516l-18 -125h516zM1331 897l-18 -145h-121l-107 -752h-204l61 438h-516l-61 -438h-218l107 752h-121l19 145h122l23 164h217l-22 -164h516l22 164h205l-23 -164h119z" />
    <glyph glyph-name="i.sc" horiz-adv-x="499" 
d="M147 0l150 1061h203l-150 -1061h-203z" />
    <glyph glyph-name="dotlessi.sc" horiz-adv-x="499" 
d="M147 0l150 1061h203l-150 -1061h-203z" />
    <glyph glyph-name="iacute.sc" horiz-adv-x="499" 
d="M147 0l150 1061h203l-150 -1061h-203zM264 1130l-61 123l389 238l90 -172z" />
    <glyph glyph-name="icircumflex.sc" horiz-adv-x="499" 
d="M147 0l150 1061h203l-150 -1061h-203zM526 1468l189 -317h-180l-105 170l-158 -170h-186l283 317h157z" />
    <glyph glyph-name="idieresis.sc" horiz-adv-x="499" 
d="M147 0l150 1061h203l-150 -1061h-203zM629 1182q-55 0 -88 30.5t-33 85.5t40 94.5t95 39.5t87 -32t32 -87t-39 -93t-94 -38zM200 1182q-56 0 -89 30.5t-33 85.5t40 94.5t95 39.5t87 -32t32 -87t-38 -93t-94 -38z" />
    <glyph glyph-name="igrave.sc" horiz-adv-x="499" 
d="M147 0l150 1061h203l-150 -1061h-203zM559 1133l-414 186l91 172l389 -238z" />
    <glyph glyph-name="ij.sc" horiz-adv-x="1251" 
d="M768.5 -18q-153.5 0 -240.5 61l101 172q53 -35 127 -35q184 0 213 217l94 664h201l-97 -692q-27 -188 -136 -287.5t-262.5 -99.5zM147 0l150 1061h203l-150 -1061h-203z" />
    <glyph glyph-name="imacron.sc" horiz-adv-x="499" 
d="M147 0l150 1061h203l-150 -1061h-203zM180 1217l19 161h463l-17 -161h-465z" />
    <glyph glyph-name="iogonek.sc" horiz-adv-x="499" 
d="M233 -344q39 0 82 31l52 -111q-70 -61 -167.5 -61t-153.5 49t-56 143q0 162 168 293h-11l150 1061h203l-150 -1061h-2q-130 -65 -180 -163q-22 -42 -21.5 -87t24 -69.5t62.5 -24.5z" />
    <glyph glyph-name="itilde.sc" horiz-adv-x="499" 
d="M147 0l150 1061h203l-150 -1061h-203zM515 1192q-54 0 -111.5 41t-91.5 41t-58.5 -27.5t-26.5 -46.5l-98 98q19 65 75 108.5t109 43.5t112.5 -42t93.5 -42t57.5 27.5t29.5 50.5l96 -94q-21 -69 -77 -113.5t-110 -44.5z" />
    <glyph glyph-name="j.sc" horiz-adv-x="751" 
d="M268 -18q-154 0 -239 61l100 172q53 -35 127 -35q184 0 213 217l94 664h201l-96 -692q-26 -187 -136 -287t-264 -100z" />
    <glyph glyph-name="uni0237.sc" horiz-adv-x="751" 
d="M268 -18q-154 0 -239 61l100 172q53 -35 127 -35q184 0 213 217l94 664h201l-96 -692q-26 -187 -136 -287t-264 -100z" />
    <glyph glyph-name="k.sc" horiz-adv-x="1042" 
d="M1155 1061l-537 -537l418 -524h-260l-362 449l-64 -449h-203l150 1061h203l-66 -471l471 471h250z" />
    <glyph glyph-name="kcommaaccent.sc" horiz-adv-x="1042" 
d="M508.5 -111q60.5 0 91.5 -33.5t31 -88.5q0 -96 -64.5 -190.5t-167.5 -145.5l-49 67q117 87 121 144q-6 -2 -32.5 -2t-51.5 27.5t-25 81.5t43 97t103.5 43zM1155 1061l-537 -537l418 -524h-260l-362 449l-64 -449h-203l150 1061h203l-66 -471l471 471h250z" />
    <glyph glyph-name="kgreenlandic.sc" horiz-adv-x="1042" 
d="M1155 1061l-537 -537l418 -524h-260l-362 449l-64 -449h-203l150 1061h203l-66 -471l471 471h250z" />
    <glyph glyph-name="l.sc" horiz-adv-x="901" 
d="M377 180h516l-27 -180h-719l150 1061h203z" />
    <glyph glyph-name="lacute.sc" horiz-adv-x="901" 
d="M377 180h516l-27 -180h-719l150 1061h203zM676 1319l-418 -189l-61 123l389 238z" />
    <glyph glyph-name="lcaron.sc" horiz-adv-x="901" 
d="M751.5 811q-30.5 0 -55 27.5t-24.5 81.5t46 97.5t106 43.5t92 -34t32 -89q0 -102 -68.5 -201.5t-172.5 -154.5l-50 69q47 33 86 80t43 82q-4 -2 -34.5 -2zM500 1061l-123 -881h516l-27 -180h-719l150 1061h203z" />
    <glyph glyph-name="lcommaaccent.sc" horiz-adv-x="901" 
d="M486.5 -111q60.5 0 91 -33.5t30.5 -88.5q0 -96 -64.5 -190.5t-166.5 -145.5l-49 67q115 86 121 144q-6 -2 -33 -2t-51.5 27.5t-24.5 81.5t43 97t103.5 43zM377 180h516l-27 -180h-719l150 1061h203z" />
    <glyph glyph-name="ldot.sc" horiz-adv-x="901" 
d="M774.5 461q-61.5 0 -99.5 34.5t-38 94.5t42 101.5t104 41.5t98.5 -33.5t36.5 -94.5t-41 -102.5t-102.5 -41.5zM500 1061l-123 -881h516l-27 -180h-719l150 1061h203z" />
    <glyph glyph-name="lslash.sc" horiz-adv-x="901" 
d="M377 180h516l-27 -180h-719l62 438l-135 -71l-62 135l224 116l61 443h203l-45 -326l166 88l59 -135l-250 -133z" />
    <glyph glyph-name="m.sc" horiz-adv-x="1380" 
d="M1239 1061h125l-119 -1061h-194l79 637l-366 -512h-119l-219 524l-100 -649h-193l184 1061h129l295 -699z" />
    <glyph glyph-name="n.sc" horiz-adv-x="1226" 
d="M1028 1061h201l-154 -1079h-112l-514 735l-101 -717h-198l151 1079h115l514 -727z" />
    <glyph glyph-name="nacute.sc" horiz-adv-x="1226" 
d="M1028 1061h201l-154 -1079h-112l-514 735l-101 -717h-198l151 1079h115l514 -727zM1036 1319l-418 -189l-61 123l389 238z" />
    <glyph glyph-name="napostrophe.sc" horiz-adv-x="1226" 
d="M1028 1061h201l-154 -1079h-112l-514 735l-101 -717h-198l151 1079h115l514 -727zM326 1403q0 -102 -69 -201.5t-173 -154.5l-49 69q47 33 86 80t43 82q-4 -2 -35 -2t-55.5 27.5t-24.5 81.5q0 53 46 97q47 44 107 44t92 -34t32 -89z" />
    <glyph glyph-name="ncaron.sc" horiz-adv-x="1226" 
d="M1028 1061h201l-154 -1079h-112l-514 735l-101 -717h-198l151 1079h115l514 -727zM834 1151h-160l-199 317h182l113 -168l150 168h184z" />
    <glyph glyph-name="ncommaaccent.sc" horiz-adv-x="1226" 
d="M602.5 -111q60.5 0 91.5 -33.5t31 -88.5q0 -96 -64.5 -190.5t-166.5 -145.5l-50 67q117 87 121 144q-6 -2 -32.5 -2t-51 27.5t-24.5 81.5t42.5 97t103 43zM1028 1061h201l-154 -1079h-112l-514 735l-101 -717h-198l151 1079h115l514 -727z" />
    <glyph glyph-name="eng.sc" horiz-adv-x="1288" 
d="M678 -418q-139 0 -197 47l90 178q33 -23 113 -22.5t128 45.5t62 150l17 106l-442 631l-101 -717h-198l151 1079h115l514 -727l98 709h201l-154 -1079l-2 -13q-53 -387 -395 -387z" />
    <glyph glyph-name="ntilde.sc" horiz-adv-x="1226" 
d="M1028 1061h201l-154 -1079h-112l-514 735l-101 -717h-198l151 1079h115l514 -727zM646 1274q-42 0 -71.5 -26.5t-35.5 -47.5l-121 98q10 25 30.5 53.5t76 63.5t121.5 35t141 -42t117 -42t72 27.5t38 50.5l119 -94q-22 -66 -93 -112t-140 -46t-140.5 41t-113.5 41z" />
    <glyph glyph-name="o.sc" horiz-adv-x="1257" 
d="M682.5 172q148.5 0 254 108.5t105.5 264t-85 250t-233.5 94.5t-256 -109.5t-107.5 -266t87 -249t235.5 -92.5zM670.5 -18q-241.5 0 -381 141t-139.5 358q0 262 174 430t415.5 168t378.5 -141t137 -358q0 -266 -171.5 -432t-413 -166z" />
    <glyph glyph-name="oacute.sc" horiz-adv-x="1257" 
d="M682.5 172q148.5 0 254 108.5t105.5 264t-85 250t-233.5 94.5t-256 -109.5t-107.5 -266t87 -249t235.5 -92.5zM670.5 -18q-241.5 0 -381 141t-139.5 358q0 262 174 430t415.5 168t378.5 -141t137 -358q0 -266 -171.5 -432t-413 -166zM645 1130l-61 123l389 238l90 -172z
" />
    <glyph glyph-name="ocircumflex.sc" horiz-adv-x="1257" 
d="M682.5 172q148.5 0 254 108.5t105.5 264t-85 250t-233.5 94.5t-256 -109.5t-107.5 -266t87 -249t235.5 -92.5zM739.5 1079q241.5 0 378.5 -141t137 -358q0 -266 -172 -432t-413 -166t-380.5 141t-139.5 358q0 262 174 430t415.5 168zM811 1321l-158 -170h-186l283 317
h157l189 -317h-181z" />
    <glyph glyph-name="odieresis.sc" horiz-adv-x="1257" 
d="M682.5 172q148.5 0 254 108.5t105.5 264t-85 250t-233.5 94.5t-256 -109.5t-107.5 -266t87 -249t235.5 -92.5zM670.5 -18q-241.5 0 -381 141t-139.5 358q0 262 174 430t415.5 168t378.5 -141t137 -358q0 -266 -171.5 -432t-413 -166zM1010 1182q-55 0 -88 30.5t-33 85.5
t40 94.5t95 39.5t87 -32t32 -87t-39 -93t-94 -38zM580 1182q-56 0 -88.5 30.5t-32.5 85.5t40 94.5t95 39.5t87 -32t32 -87t-38.5 -93t-94.5 -38z" />
    <glyph glyph-name="ograve.sc" horiz-adv-x="1257" 
d="M682.5 172q148.5 0 254 108.5t105.5 264t-85 250t-233.5 94.5t-256 -109.5t-107.5 -266t87 -249t235.5 -92.5zM670.5 -18q-241.5 0 -381 141t-139.5 358q0 262 174 430t415.5 168t378.5 -141t137 -358q0 -266 -171.5 -432t-413 -166zM940 1133l-414 186l90 172l390 -238z
" />
    <glyph glyph-name="ohungarumlaut.sc" horiz-adv-x="1257" 
d="M682.5 172q148.5 0 254 108.5t105.5 264t-85 250t-233.5 94.5t-256 -109.5t-107.5 -266t87 -249t235.5 -92.5zM670.5 -18q-241.5 0 -381 141t-139.5 358q0 262 174 430t415.5 168t378.5 -141t137 -358q0 -266 -171.5 -432t-413 -166zM979 1112l-121 68l168 366l166 -90z
M594 1112l-119 68l168 366l166 -90z" />
    <glyph glyph-name="omacron.sc" horiz-adv-x="1257" 
d="M682.5 172q148.5 0 254 108.5t105.5 264t-85 250t-233.5 94.5t-256 -109.5t-107.5 -266t87 -249t235.5 -92.5zM670.5 -18q-241.5 0 -381 141t-139.5 358q0 262 174 430t415.5 168t378.5 -141t137 -358q0 -266 -171.5 -432t-413 -166zM508 1217l22 161h580l-23 -161h-579z
" />
    <glyph glyph-name="uni01EB.sc" horiz-adv-x="1257" 
d="M360 513.5q0 -156.5 87.5 -249t235.5 -92.5t253.5 108.5t105.5 264t-85 250t-233.5 94.5t-256 -109.5t-107.5 -266zM559 -246q0 -49 23.5 -73.5t62.5 -24.5t82 31l51 -111q-70 -61 -167 -61t-153.5 49t-56.5 143q0 156 156 283q-188 31 -297.5 167t-109.5 324
q0 262 174 430t415.5 168t378.5 -141t137 -372.5t-148.5 -393t-373.5 -186.5q-174 -102 -174 -232z" />
    <glyph glyph-name="oslash.sc" horiz-adv-x="1257" 
d="M1042 563q0 106 -49 187l-467 -543q70 -35 160 -35q145 0 250.5 108.5t105.5 282.5zM360 496q0 -109 54 -191l471 547q-74 37 -160 37q-150 0 -257.5 -109.5t-107.5 -283.5zM662 -18q-152 0 -273 65l-129 -149l-115 96l127 147q-123 135 -122 340q0 262 174 430t424 168
q156 0 274 -67l121 139l112 -96l-118 -137q119 -135 118 -338q0 -266 -172 -432t-421 -166z" />
    <glyph glyph-name="oslashacute.sc" horiz-adv-x="1257" 
d="M1042 563q0 106 -49 187l-467 -543q70 -35 160 -35q145 0 250.5 108.5t105.5 282.5zM360 496q0 -109 54 -191l471 547q-74 37 -160 37q-150 0 -257.5 -109.5t-107.5 -283.5zM662 -18q-152 0 -273 65l-129 -149l-115 96l127 147q-123 135 -122 340q0 262 174 430t424 168
q156 0 274 -67l121 139l112 -96l-118 -137q119 -135 118 -338q0 -266 -172 -432t-421 -166zM1063 1319l-418 -189l-61 123l389 238z" />
    <glyph glyph-name="otilde.sc" horiz-adv-x="1257" 
d="M682.5 172q148.5 0 254 108.5t105.5 264t-85 250t-233.5 94.5t-256 -109.5t-107.5 -266t87 -249t235.5 -92.5zM670.5 -18q-241.5 0 -381 141t-139.5 358q0 262 174 430t415.5 168t378.5 -141t137 -358q0 -266 -171.5 -432t-413 -166zM927 1192q-69 0 -140.5 41t-113.5 41
t-72 -26.5t-36 -47.5l-121 98q26 66 94 109t134.5 43t141.5 -42t117 -42t71.5 27.5t37.5 50.5l119 -94q-22 -67 -92.5 -112.5t-139.5 -45.5z" />
    <glyph glyph-name="oe.sc" horiz-adv-x="1792" 
d="M682.5 172q148.5 0 254 108.5t105.5 264t-85 250t-233.5 94.5t-256 -109.5t-107.5 -266t87 -249t235.5 -92.5zM662 -18q-233 0 -372.5 141t-139.5 358q0 262 174 430t415.5 168t378.5 -143l19 125h710l-24 -172h-512l-39 -266h450l-24 -170h-449l-39 -279h512l-24 -174
h-711l10 80q-150 -98 -335 -98z" />
    <glyph glyph-name="p.sc" horiz-adv-x="1003" 
d="M578 479q118 0 188 65t70 159t-54 141t-147 47h-164l-57 -412h164zM672 1061q170 0 268 -88t98 -242q0 -193 -135 -307t-350 -115l-164 -2l-43 -307h-196l149 1061h373z" />
    <glyph glyph-name="thorn.sc" horiz-adv-x="1009" 
d="M553 328q113 0 185 63t73 161q0 98 -55 143q-55 46 -148 46h-149l-58 -413h152zM651 920q164 0 262 -90t99 -242q0 -199 -132 -319t-339 -119h-166l-21 -150h-207l150 1061h207l-21 -141h168z" />
    <glyph glyph-name="q.sc" horiz-adv-x="1257" 
d="M360 513.5q0 -156.5 87.5 -249t235.5 -92.5t253.5 108.5t105.5 264t-85 250t-233.5 94.5t-256 -109.5t-107.5 -266zM1255 580q0 -162 -68.5 -291t-187.5 -209l207 -182l-123 -140l-270 242q-74 -18 -151 -18q-233 0 -372.5 141t-139.5 358q0 262 174 430t415.5 168
t378.5 -141t137 -358z" />
    <glyph glyph-name="r.sc" horiz-adv-x="1054" 
d="M580 477q119 0 189.5 64.5t70.5 160t-53.5 143.5t-147.5 48h-168l-57 -416h166zM1044 742.5q0 -142.5 -68.5 -243t-189.5 -149.5l201 -350h-229l-172 307h-197l-43 -307h-196l149 1061h379q168 0 267 -88t99 -230.5z" />
    <glyph glyph-name="racute.sc" horiz-adv-x="1054" 
d="M580 477q119 0 189.5 64.5t70.5 160t-53.5 143.5t-147.5 48h-168l-57 -416h166zM1044 742.5q0 -142.5 -68.5 -243t-189.5 -149.5l201 -350h-229l-172 307h-197l-43 -307h-196l149 1061h379q168 0 267 -88t99 -230.5zM934 1319l-418 -189l-61 123l389 238z" />
    <glyph glyph-name="rcaron.sc" horiz-adv-x="1054" 
d="M580 477q119 0 189.5 64.5t70.5 160t-53.5 143.5t-147.5 48h-168l-57 -416h166zM1044 742.5q0 -142.5 -68.5 -243t-189.5 -149.5l201 -350h-229l-172 307h-197l-43 -307h-196l149 1061h379q168 0 267 -88t99 -230.5zM731 1151h-160l-198 317h182l113 -168l149 168h184z
" />
    <glyph glyph-name="rcommaaccent.sc" horiz-adv-x="1054" 
d="M506.5 -111q60.5 0 91.5 -33.5t31 -88.5q0 -96 -64.5 -190.5t-167.5 -145.5l-49 67q117 87 121 144q-6 -2 -33 -2t-51.5 27.5t-24.5 81.5t43 97t103.5 43zM580 477q119 0 189.5 64.5t70.5 160t-53.5 143.5t-147.5 48h-168l-57 -416h166zM1044 742.5q0 -142.5 -68.5 -243
t-189.5 -149.5l201 -350h-229l-172 307h-197l-43 -307h-196l149 1061h379q168 0 267 -88t99 -230.5z" />
    <glyph glyph-name="s.sc" horiz-adv-x="915" 
d="M432.5 -18q-215.5 0 -356.5 122l117 158q125 -102 284 -102q195 0 195 149q0 51 -43 86t-167 74t-188.5 104.5t-64.5 174.5q0 145 116.5 237t316.5 92t321 -104l-109 -152q-111 82 -260 82q-86 0 -132 -36t-46 -89t42 -81.5t167.5 -68.5t188.5 -108.5t63 -175.5
q0 -170 -114.5 -266t-330 -96z" />
    <glyph glyph-name="sacute.sc" horiz-adv-x="915" 
d="M432.5 -18q-215.5 0 -356.5 122l117 158q125 -102 284 -102q195 0 195 149q0 51 -43 86t-167 74t-188.5 104.5t-64.5 174.5q0 145 116.5 237t316.5 92t321 -104l-109 -152q-111 82 -260 82q-86 0 -132 -36t-46 -89t42 -81.5t167.5 -68.5t188.5 -108.5t63 -175.5
q0 -170 -114.5 -266t-330 -96zM494 1130l-62 123l389 238l90 -172z" />
    <glyph glyph-name="scaron.sc" horiz-adv-x="915" 
d="M594 903q-86 0 -132 -36t-46 -89t42 -81.5t168 -68.5t188.5 -108.5t62.5 -175.5q0 -170 -115 -266t-330 -96t-356 122l117 158q125 -102 284 -102q195 0 195 149q0 51 -43 86t-167 74t-188.5 104.5t-64.5 174.5q0 145 116.5 237t316.5 92t321 -104l-109 -152
q-110 82 -260 82zM709 1151h-160l-199 317h182l113 -168l150 168h184z" />
    <glyph glyph-name="scedilla.sc" horiz-adv-x="915" 
d="M877 344q0 -156 -98.5 -250t-266.5 -110l-35 -74q78 -8 126 -55.5t48 -134t-73.5 -153.5t-201.5 -67t-198 70l60 98q61 -49 131.5 -51t102.5 29.5t32 79.5q0 90 -123 90q-10 0 -47 -4l-17 28l68 144q-190 18 -309 120l117 158q125 -102 284 -102q195 0 195 149
q0 51 -43 86t-167 74t-188.5 104.5t-64.5 174.5q0 145 116.5 237t316.5 92t321 -104l-109 -152q-111 82 -260 82q-86 0 -132 -36t-46 -89t41.5 -81.5t167.5 -68.5t189 -108.5t63 -175.5z" />
    <glyph glyph-name="scommaaccent.sc" horiz-adv-x="915" 
d="M358.5 -360q-26.5 0 -51 27.5t-24.5 81.5t43 97t103 43t91 -33.5t31 -88.5q0 -96 -65 -190.5t-167 -145.5l-49 67q117 87 121 144q-6 -2 -32.5 -2zM432.5 -18q-215.5 0 -356.5 122l117 158q125 -102 284 -102q195 0 195 149q0 51 -43 86t-167 74t-188.5 104.5
t-64.5 174.5q0 145 116.5 237t316.5 92t321 -104l-109 -152q-111 82 -260 82q-86 0 -132 -36t-46 -89t42 -81.5t167.5 -68.5t188.5 -108.5t63 -175.5q0 -170 -114.5 -266t-330 -96z" />
    <glyph glyph-name="germandbls.sc" horiz-adv-x="1140" 
d="M740 -14q-161 0 -240 63l102 164q56 -45 144 -45t132 48t44 116q0 138 -146 137h-141l22 160l228 250h-215q-96 1 -158 -53t-78 -144l-94 -682h-205l96 682q53 379 463 379h445l-23 -160l-239 -274q111 -10 179 -84t66 -191q0 -156 -110 -261t-272 -105z" />
    <glyph glyph-name="t.sc" horiz-adv-x="962" 
d="M1077 1061l-24 -178h-344l-125 -883h-205l125 883h-344l24 178h893z" />
    <glyph glyph-name="tbar.sc" horiz-adv-x="962" 
d="M1053 883h-344l-43 -297h227l-21 -144h-227l-61 -442h-205l61 442h-225l18 144h228l43 297h-344l24 178h893z" />
    <glyph glyph-name="tcaron.sc" horiz-adv-x="962" 
d="M1077 1061l-24 -178h-344l-125 -883h-205l125 883h-344l24 178h893zM711 1151h-160l-199 317h183l112 -168l150 168h184z" />
    <glyph glyph-name="uni0163.sc" horiz-adv-x="962" 
d="M688 -279.5q0 -86.5 -73.5 -153.5t-201.5 -67t-198 70l59 98q61 -49 132 -51t103 29.5t32 79.5q0 90 -123 90q-10 0 -47 -4l-17 28l74 160h-49l125 883h-344l24 178h893l-24 -178h-344l-125 -883h-29l-41 -90q78 -8 126 -55.5t48 -134z" />
    <glyph glyph-name="uni021B.sc" horiz-adv-x="962" 
d="M465.5 -111q60.5 0 91.5 -33.5t31 -88.5q0 -96 -64.5 -190.5t-167.5 -145.5l-49 67q117 87 121 144q-6 -2 -32.5 -2t-51.5 27.5t-25 81.5t43 97t103.5 43zM1077 1061l-24 -178h-344l-125 -883h-205l125 883h-344l24 178h893z" />
    <glyph glyph-name="u.sc" horiz-adv-x="1175" 
d="M585 -18q-210 0 -315.5 122.5t-74.5 348.5l86 608h202l-86 -621q-18 -119 38.5 -195.5t178 -76.5t196.5 75.5t93 196.5l88 621h203l-86 -608q-31 -225 -172 -348t-351 -123z" />
    <glyph glyph-name="uacute.sc" horiz-adv-x="1175" 
d="M585 -18q-210 0 -315.5 122.5t-74.5 348.5l86 608h202l-86 -621q-18 -119 38.5 -195.5t178 -76.5t196.5 75.5t93 196.5l88 621h203l-86 -608q-31 -225 -172 -348t-351 -123zM610 1130l-61 123l389 238l90 -172z" />
    <glyph glyph-name="ucircumflex.sc" horiz-adv-x="1175" 
d="M585 -18q-210 0 -315.5 122.5t-74.5 348.5l86 608h202l-86 -621q-18 -119 38.5 -195.5t178 -76.5t196.5 75.5t93 196.5l88 621h203l-86 -608q-31 -225 -172 -348t-351 -123zM776 1321l-158 -170h-186l283 317h157l189 -317h-180z" />
    <glyph glyph-name="udieresis.sc" horiz-adv-x="1175" 
d="M585 -18q-210 0 -315.5 122.5t-74.5 348.5l86 608h202l-86 -621q-18 -119 38.5 -195.5t178 -76.5t196.5 75.5t93 196.5l88 621h203l-86 -608q-31 -225 -172 -348t-351 -123zM975 1182q-55 0 -88 30.5t-33 85.5t40 94.5t95 39.5t87 -32t32 -87t-39 -93t-94 -38zM546 1182
q-56 0 -89 30.5t-33 85.5t40 94.5t95 39.5t87 -32t32 -87t-38 -93t-94 -38z" />
    <glyph glyph-name="ugrave.sc" horiz-adv-x="1175" 
d="M585 -18q-210 0 -315.5 122.5t-74.5 348.5l86 608h202l-86 -621q-18 -119 38.5 -195.5t178 -76.5t196.5 75.5t93 196.5l88 621h203l-86 -608q-31 -225 -172 -348t-351 -123zM905 1133l-413 186l90 172l389 -238z" />
    <glyph glyph-name="uhungarumlaut.sc" horiz-adv-x="1175" 
d="M585 -18q-210 0 -315.5 122.5t-74.5 348.5l86 608h202l-86 -621q-18 -119 38.5 -195.5t178 -76.5t196.5 75.5t93 196.5l88 621h203l-86 -608q-31 -225 -172 -348t-351 -123zM944 1112l-121 68l168 366l166 -90zM559 1112l-119 68l168 366l166 -90z" />
    <glyph glyph-name="umacron.sc" horiz-adv-x="1175" 
d="M585 -18q-210 0 -315.5 122.5t-74.5 348.5l86 608h202l-86 -621q-18 -119 38.5 -195.5t178 -76.5t196.5 75.5t93 196.5l88 621h203l-86 -608q-31 -225 -172 -348t-351 -123zM473 1217l23 161h579l-22 -161h-580z" />
    <glyph glyph-name="uogonek.sc" horiz-adv-x="1175" 
d="M510 -242q0 -102 86 -102q39 0 82 31l51 -111q-70 -61 -167 -61t-153.5 49t-56.5 143q0 150 152 281q-172 23 -255 142.5t-54 322.5l86 608h202l-86 -621q-18 -119 38.5 -195.5t178 -76.5t196.5 75.5t93 196.5l88 621h203l-86 -608q-27 -195 -136.5 -314t-279.5 -149
q-87 -45 -134.5 -112.5t-47.5 -119.5z" />
    <glyph glyph-name="uring.sc" horiz-adv-x="1175" 
d="M585 -18q-210 0 -315.5 122.5t-74.5 348.5l86 608h202l-86 -621q-18 -119 38.5 -195.5t178 -76.5t196.5 75.5t93 196.5l88 621h203l-86 -608q-31 -225 -172 -348t-351 -123zM775 1231q38 0 63.5 29.5t25.5 70.5t-21.5 64.5t-59.5 23.5t-64.5 -28.5t-26.5 -69.5
t22.5 -65.5t60.5 -24.5zM768 1118q-92 0 -145.5 52.5t-53.5 141t64.5 152.5t157 64t145.5 -51.5t53 -140t-64.5 -153.5t-156.5 -65z" />
    <glyph glyph-name="utilde.sc" horiz-adv-x="1175" 
d="M585 -18q-210 0 -315.5 122.5t-74.5 348.5l86 608h202l-86 -621q-18 -119 38.5 -195.5t178 -76.5t196.5 75.5t93 196.5l88 621h203l-86 -608q-31 -225 -172 -348t-351 -123zM892 1192q-69 0 -140.5 41t-113.5 41t-71.5 -26.5t-36.5 -47.5l-120 98q10 25 30.5 53.5
t75.5 63.5t121.5 35t141.5 -42t117 -42t71.5 27.5t38.5 50.5l118 -94q-22 -67 -92.5 -112.5t-139.5 -45.5z" />
    <glyph glyph-name="v.sc" horiz-adv-x="1048" 
d="M954 1061h217l-575 -1061h-139l-281 1061h223l158 -662l16 -88l37 88z" />
    <glyph glyph-name="w.sc" horiz-adv-x="1460" 
d="M1376 1061h195l-451 -1061h-147l-137 752l-359 -752h-147l-156 1061h211l59 -586l19 -168l72 168l274 586h135l113 -588l26 -180z" />
    <glyph glyph-name="wacute.sc" horiz-adv-x="1460" 
d="M1376 1061h195l-451 -1061h-147l-137 752l-359 -752h-147l-156 1061h211l59 -586l19 -168l72 168l274 586h135l113 -588l26 -180zM1159 1319l-418 -189l-61 123l389 238z" />
    <glyph glyph-name="wcircumflex.sc" horiz-adv-x="1460" 
d="M1376 1061h195l-451 -1061h-147l-137 752l-359 -752h-147l-156 1061h211l59 -586l19 -168l72 168l274 586h135l113 -588l26 -180zM907 1321l-157 -170h-187l283 317h158l188 -317h-180z" />
    <glyph glyph-name="wdieresis.sc" horiz-adv-x="1460" 
d="M1376 1061h195l-451 -1061h-147l-137 752l-359 -752h-147l-156 1061h211l59 -586l19 -168l72 168l274 586h135l113 -588l26 -180zM1106 1182q-55 0 -88 30.5t-33 85.5t40 94.5t95 39.5t87 -32t32 -87t-39 -93t-94 -38zM677 1182q-56 0 -89 30.5t-33 85.5t40 94.5t95 39.5
t87 -32t32 -87t-38 -93t-94 -38z" />
    <glyph glyph-name="wgrave.sc" horiz-adv-x="1460" 
d="M1376 1061h195l-451 -1061h-147l-137 752l-359 -752h-147l-156 1061h211l59 -586l19 -168l72 168l274 586h135l113 -588l26 -180zM1102 1253l-66 -120l-413 186l90 172z" />
    <glyph glyph-name="x.sc" horiz-adv-x="1056" 
d="M1161 1061l-436 -524l299 -537h-240l-211 389l-309 -389h-244l455 541l-285 520h236l197 -373l297 373h241z" />
    <glyph glyph-name="y.sc" horiz-adv-x="1036" 
d="M1153 1061l-473 -645l-59 -416h-205l59 416l-291 645h242l180 -451l312 451h235z" />
    <glyph glyph-name="yacute.sc" horiz-adv-x="1036" 
d="M1153 1061l-473 -645l-59 -416h-205l59 416l-291 645h242l180 -451l312 451h235zM961 1319l-418 -189l-62 123l389 238z" />
    <glyph glyph-name="ycircumflex.sc" horiz-adv-x="1036" 
d="M1153 1061l-473 -645l-59 -416h-205l59 416l-291 645h242l180 -451l312 451h235zM709 1321l-158 -170h-186l282 317h158l188 -317h-180z" />
    <glyph glyph-name="ydieresis.sc" horiz-adv-x="1036" 
d="M1153 1061l-473 -645l-59 -416h-205l59 416l-291 645h242l180 -451l312 451h235zM907 1182q-55 0 -88 30.5t-33 85.5t40 94.5t95.5 39.5t87 -32t31.5 -87t-39 -93t-94 -38zM478 1182q-56 0 -89 30.5t-33 85.5t40 94.5t95.5 39.5t87 -32t31.5 -87t-38 -93t-94 -38z" />
    <glyph glyph-name="ygrave.sc" horiz-adv-x="1036" 
d="M1153 1061l-473 -645l-59 -416h-205l59 416l-291 645h242l180 -451l312 451h235zM903 1253l-65 -120l-414 186l90 172z" />
    <glyph glyph-name="uni1EF9.sc" horiz-adv-x="1036" 
d="M1153 1061l-473 -645l-59 -416h-205l59 416l-291 645h242l180 -451l312 451h235zM571 1274q-42 0 -72 -26.5t-36 -47.5l-121 98q10 25 30.5 53.5t76 63.5t121.5 35t141 -42t117 -42t72 27.5t38 50.5l119 -94q-22 -67 -93 -112.5t-140 -45.5t-140 41t-113 41z" />
    <glyph glyph-name="z.sc" horiz-adv-x="985" 
d="M1051 1061l-19 -131l-678 -752h578l-25 -178h-835l18 129l668 754h-543l27 178h809z" />
    <glyph glyph-name="zacute.sc" horiz-adv-x="985" 
d="M1051 1061l-19 -131l-678 -752h578l-25 -178h-835l18 129l668 754h-543l27 178h809zM930 1319l-418 -189l-61 123l389 238z" />
    <glyph glyph-name="zcaron.sc" horiz-adv-x="985" 
d="M1051 1061l-19 -131l-678 -752h578l-25 -178h-835l18 129l668 754h-543l27 178h809zM727 1151h-160l-198 317h182l113 -168l149 168h184z" />
    <glyph glyph-name="zdotaccent.sc" horiz-adv-x="985" 
d="M1051 1061l-19 -131l-678 -752h578l-25 -178h-835l18 129l668 754h-543l27 178h809zM672 1180q-57 0 -92 33.5t-35 89.5t44 99.5t102 43.5t91 -34t33 -91t-43 -99t-100 -42z" />
    <glyph glyph-name="a.sc.ss01" horiz-adv-x="1136" 
d="M695 891q-114 0 -183.5 -75t-87.5 -198l-21 -143h461l21 143q18 123 -29 198t-161 75zM721 1079q207 0 303 -122.5t63 -356.5l-83 -600h-205l43 311h-461l-43 -311h-205l84 600q33 233 165 356t339 123z" />
    <glyph glyph-name="aacute.sc.ss01" horiz-adv-x="1136" 
d="M695 891q-114 0 -183.5 -75t-87.5 -198l-21 -143h461l21 143q18 123 -29 198t-161 75zM721 1079q207 0 303 -122.5t63 -356.5l-83 -600h-205l43 311h-461l-43 -311h-205l84 600q33 233 165 356t339 123zM999 1319l-417 -189l-62 123l389 238z" />
    <glyph glyph-name="abreve.sc.ss01" horiz-adv-x="1136" 
d="M695 891q-114 0 -183.5 -75t-87.5 -198l-21 -143h461l21 143q18 123 -29 198t-161 75zM721 1079q207 0 303 -122.5t63 -356.5l-83 -600h-205l43 311h-461l-43 -311h-205l84 600q33 233 165 356t339 123zM727 1153q-127 0 -195.5 83t-48.5 220h158q-10 -74 18.5 -118
t88 -44t100.5 44t51 118h158q-20 -137 -111.5 -220t-218.5 -83z" />
    <glyph glyph-name="acircumflex.sc.ss01" horiz-adv-x="1136" 
d="M695 891q-114 0 -183.5 -75t-87.5 -198l-21 -143h461l21 143q18 123 -29 198t-161 75zM721 1079q207 0 303 -122.5t63 -356.5l-83 -600h-205l43 311h-461l-43 -311h-205l84 600q33 233 165 356t339 123zM748 1321l-158 -170h-187l283 317h158l188 -317h-180z" />
    <glyph glyph-name="adieresis.sc.ss01" horiz-adv-x="1136" 
d="M695 891q-114 0 -183.5 -75t-87.5 -198l-21 -143h461l21 143q18 123 -29 198t-161 75zM721 1079q207 0 303 -122.5t63 -356.5l-83 -600h-205l43 311h-461l-43 -311h-205l84 600q33 233 165 356t339 123zM946 1182q-55 0 -88 30.5t-33 85.5t40 94.5t95.5 39.5t87 -32
t31.5 -87t-39 -93t-94 -38zM517 1182q-56 0 -89 30.5t-33 85.5t40 94.5t95.5 39.5t87 -32t31.5 -87t-38 -93t-94 -38z" />
    <glyph glyph-name="agrave.sc.ss01" horiz-adv-x="1136" 
d="M695 891q-114 0 -183.5 -75t-87.5 -198l-21 -143h461l21 143q18 123 -29 198t-161 75zM721 1079q207 0 303 -122.5t63 -356.5l-83 -600h-205l43 311h-461l-43 -311h-205l84 600q33 233 165 356t339 123zM942 1253l-65 -120l-414 186l90 172z" />
    <glyph glyph-name="amacron.sc.ss01" horiz-adv-x="1136" 
d="M695 891q-114 0 -183.5 -75t-87.5 -198l-21 -143h461l21 143q18 123 -29 198t-161 75zM721 1079q207 0 303 -122.5t63 -356.5l-83 -600h-205l43 311h-461l-43 -311h-205l84 600q33 233 165 356t339 123zM1047 1378l-23 -161h-580l23 161h580z" />
    <glyph glyph-name="aogonek.sc.ss01" horiz-adv-x="1136" 
d="M695 891q-114 0 -183.5 -75t-87.5 -198l-21 -143h461l21 143q18 123 -29 198t-161 75zM803 -250q0 -45 23.5 -69.5t62.5 -24.5t82 31l51 -111q-70 -61 -167 -61t-153.5 49t-56.5 143q0 162 168 293h-14l43 311h-461l-43 -311h-205l84 600q33 233 165 356t339 123
t303 -122.5t63 -356.5l-83 -600q-130 -65 -180 -163q-22 -42 -21 -87z" />
    <glyph glyph-name="aring.sc.ss01" horiz-adv-x="1136" 
d="M695 891q-114 0 -183.5 -75t-87.5 -198l-21 -143h461l21 143q18 123 -29 198t-161 75zM721 1079q207 0 303 -122.5t63 -356.5l-83 -600h-205l43 311h-461l-43 -311h-205l84 600q33 233 165 356t339 123zM755 1419q-38 0 -64.5 -28.5t-26.5 -69.5t22.5 -65.5t60 -24.5
t63.5 29.5t26 70.5t-21.5 64.5t-59.5 23.5zM739 1118q-92 0 -145 52.5t-53 141t64.5 152.5t156.5 64t145.5 -51.5t53.5 -140t-65 -153.5t-157 -65z" />
    <glyph glyph-name="atilde.sc.ss01" horiz-adv-x="1136" 
d="M695 891q-114 0 -183.5 -75t-87.5 -198l-21 -143h461l21 143q18 123 -29 198t-161 75zM721 1079q207 0 303 -122.5t63 -356.5l-83 -600h-205l43 311h-461l-43 -311h-205l84 600q33 233 165 356t339 123zM609 1274q-42 0 -71.5 -26.5t-35.5 -47.5l-121 98q10 25 30.5 53.5
t76 63.5t121.5 35t141 -42t117 -42t72 27.5t38 50.5l119 -94q-22 -67 -93 -112.5t-140 -45.5t-140.5 41t-113.5 41z" />
    <glyph glyph-name="r.sc.ss01" horiz-adv-x="1067" 
d="M578 477q117 0 188.5 64.5t71.5 160t-54.5 143.5t-146.5 48h-166l-57 -416h164zM976 145q36 0 50 2l-22 -153q-43 -12 -117 -12t-135.5 50t-89.5 110q-76 161 -136 165h-137l-43 -307h-196l149 1061h371q172 0 272 -89t100 -231.5t-69.5 -243t-192.5 -149.5
q29 -20 60.5 -73.5t65.5 -91.5t70 -38z" />
    <glyph glyph-name="racute.sc.ss01" horiz-adv-x="1067" 
d="M578 477q117 0 188.5 64.5t71.5 160t-54.5 143.5t-146.5 48h-166l-57 -416h164zM976 145q36 0 50 2l-22 -153q-43 -12 -117 -12t-135.5 50t-89.5 110q-76 161 -136 165h-137l-43 -307h-196l149 1061h371q172 0 272 -89t100 -231.5t-69.5 -243t-192.5 -149.5
q29 -20 60.5 -73.5t65.5 -91.5t70 -38zM938 1319l-418 -189l-61 123l389 238z" />
    <glyph glyph-name="rcaron.sc.ss01" horiz-adv-x="1067" 
d="M578 477q117 0 188.5 64.5t71.5 160t-54.5 143.5t-146.5 48h-166l-57 -416h164zM976 145q36 0 50 2l-22 -153q-43 -12 -117 -12t-135.5 50t-89.5 110q-76 161 -136 165h-137l-43 -307h-196l149 1061h371q172 0 272 -89t100 -231.5t-69.5 -243t-192.5 -149.5
q29 -20 60.5 -73.5t65.5 -91.5t70 -38zM735 1151h-160l-198 317h182l113 -168l149 168h185z" />
    <glyph glyph-name="rcommaaccent.sc.ss01" horiz-adv-x="1067" 
d="M510.5 -111q60.5 0 91.5 -33.5t31 -88.5q0 -96 -64.5 -190.5t-167.5 -145.5l-49 67q117 87 121 144q-6 -2 -32.5 -2t-51 27.5t-24.5 81.5t42.5 97t103 43zM578 477q117 0 188.5 64.5t71.5 160t-54.5 143.5t-146.5 48h-166l-57 -416h164zM976 145q36 0 50 2l-22 -153
q-43 -12 -117 -12t-135.5 50t-89.5 110q-76 161 -136 165h-137l-43 -307h-196l149 1061h371q172 0 272 -89t100 -231.5t-69.5 -243t-192.5 -149.5q29 -20 60.5 -73.5t65.5 -91.5t70 -38z" />
    <glyph glyph-name="y.sc.ss01" horiz-adv-x="1044" 
d="M596 514q115 0 183.5 74t86.5 194l39 279h203l-35 -260q-27 -203 -133 -323t-270 -146l-49 -332h-203l49 332q-156 29 -226.5 148.5t-43.5 320.5l34 260h205l-39 -279q-18 -121 33 -194.5t166 -73.5z" />
    <glyph glyph-name="yacute.sc.ss01" horiz-adv-x="1044" 
d="M596 514q115 0 183.5 74t86.5 194l39 279h203l-35 -260q-27 -203 -133 -323t-270 -146l-49 -332h-203l49 332q-156 29 -226.5 148.5t-43.5 320.5l34 260h205l-39 -279q-18 -121 33 -194.5t166 -73.5zM952 1319l-417 -189l-62 123l389 238z" />
    <glyph glyph-name="ycircumflex.sc.ss01" horiz-adv-x="1044" 
d="M596 514q115 0 183.5 74t86.5 194l39 279h203l-35 -260q-27 -203 -133 -323t-270 -146l-49 -332h-203l49 332q-156 29 -226.5 148.5t-43.5 320.5l34 260h205l-39 -279q-18 -121 33 -194.5t166 -73.5zM700 1321l-157 -170h-187l283 317h158l188 -317h-180z" />
    <glyph glyph-name="ydieresis.sc.ss01" horiz-adv-x="1044" 
d="M596 514q115 0 183.5 74t86.5 194l39 279h203l-35 -260q-27 -203 -133 -323t-270 -146l-49 -332h-203l49 332q-156 29 -226.5 148.5t-43.5 320.5l34 260h205l-39 -279q-18 -121 33 -194.5t166 -73.5zM899 1182q-55 0 -88 30.5t-33 85.5t40 94.5t95.5 39.5t87 -32
t31.5 -87t-39 -93t-94 -38zM470 1182q-56 0 -89 30.5t-33 85.5t40 94.5t95 39.5t87 -32t32 -87t-38 -93t-94 -38z" />
    <glyph glyph-name="ygrave.sc.ss01" horiz-adv-x="1044" 
d="M596 514q115 0 183.5 74t86.5 194l39 279h203l-35 -260q-27 -203 -133 -323t-270 -146l-49 -332h-203l49 332q-156 29 -226.5 148.5t-43.5 320.5l34 260h205l-39 -279q-18 -121 33 -194.5t166 -73.5zM895 1253l-66 -120l-413 186l90 172z" />
    <glyph glyph-name="uni1EF9.sc.ss01" horiz-adv-x="1044" 
d="M596 514q115 0 183.5 74t86.5 194l39 279h203l-35 -260q-27 -203 -133 -323t-270 -146l-49 -332h-203l49 332q-156 29 -226.5 148.5t-43.5 320.5l34 260h205l-39 -279q-18 -121 33 -194.5t166 -73.5zM562 1274q-42 0 -71.5 -26.5t-35.5 -47.5l-121 98q10 25 30.5 53.5
t76 63.5t121.5 35t141 -42t117 -42t72 27.5t38 50.5l119 -94q-22 -66 -93 -112t-140 -46t-140.5 41t-113.5 41z" />
    <glyph glyph-name="seven.ss01" horiz-adv-x="1007" 
d="M203 0l305 553h-246l27 182h315l287 516h-678l27 189h923l-14 -103l-332 -602h187l-25 -182h-262l-303 -553h-211z" />
    <glyph glyph-name="zero.sc" horiz-adv-x="1095" 
d="M578 160q143 0 229 119t86 335q0 139 -56 214t-161 75q-140 0 -232 -119t-92 -335q0 -141 60 -215t166 -74zM551 -18q-184 0 -290 119q-105 120 -105 333q0 295 154 470q155 175 390 175q182 0 286 -121t104 -329q0 -295 -152 -471t-387 -176z" />
    <glyph glyph-name="one.sc" horiz-adv-x="690" 
d="M553 1061h119l-150 -1061h-196l116 829l-247 -79l-39 168z" />
    <glyph glyph-name="two.sc" horiz-adv-x="907" 
d="M686 717q0 86 -51 133t-135 47q-133 0 -252 -66l-41 158q143 90 323 90t273 -85q92 -85 92 -212t-51 -221t-180 -217q-111 -102 -213 -166h397l-27 -178h-731l19 135q227 137 341 231t174 180q62 86 62 171z" />
    <glyph glyph-name="three.sc" horiz-adv-x="886" 
d="M858 373q0 -168 -122 -280q-122 -111 -338 -111t-326 84l88 145q106 -66 234 -66q128 1 195 53t67 141q-1 175 -173 175q-82 0 -168 -29l-39 109l342 295h-405l25 172h669l-18 -131l-326 -273q151 -3 223 -79t72 -205z" />
    <glyph glyph-name="four.sc" horiz-adv-x="933" 
d="M936 395l-25 -170h-112l-31 -225h-195l31 225h-522l18 127l369 729l166 -61l-309 -625h303l53 377h195l-54 -377h113z" />
    <glyph glyph-name="five.sc" horiz-adv-x="890" 
d="M424 141q120 -1 186 59t66 145q0 163 -166 163q-115 2 -217 -53l-84 61l78 545h624l-24 -172h-438l-33 -246q80 25 168 21q135 -2 213 -73t77 -204q0 -186 -129 -296q-129 -109 -327 -109t-334 94l88 149q131 -84 252 -84z" />
    <glyph glyph-name="six.sc" horiz-adv-x="925" 
d="M510 141q98 -1 160 63t61 156q0 92 -49 141q-49 50 -139 50t-158 -54t-72 -151q-9 -90 45 -148t152 -57zM604 698q131 0 222 -82t92 -221q0 -180 -122 -297q-122 -116 -295 -116t-273 90q-99 90 -99 243q0 246 171 441t466 327l78 -139q-287 -125 -412 -291q84 45 172 45
z" />
    <glyph glyph-name="seven.sc" horiz-adv-x="833" 
d="M172 0l516 883h-520l27 178h753l-12 -90l-567 -971h-197z" />
    <glyph glyph-name="eight.sc" horiz-adv-x="978" 
d="M733 322q0 162 -182 163q-88 0 -154 -54q-65 -54 -65 -135t47 -120t139 -39t154 52q61 51 61 133zM770 798q0 132 -156 132q-78 0 -132 -44t-54 -110t42 -101q42 -34 118 -34t129 46q53 45 53 111zM502 -18q-184 0 -280 78q-97 78 -97 195q0 118 62 199t169 119
q-120 53 -120 191t113 227q115 88 279 88t253 -69q88 -70 88 -187q0 -83 -49 -149t-136 -101q154 -61 154 -226t-126 -265t-310 -100z" />
    <glyph glyph-name="nine.sc" horiz-adv-x="927" 
d="M344 705q0 -91 51 -142t141 -51t154 48q62 48 74 144t-43 155q-55 61 -153 61t-162 -62q-62 -62 -62 -153zM158 698q0 162 120 272t297 109q177 0 276 -94t99 -252q0 -239 -172 -431t-467 -322l-75 139q297 127 419 295q-82 -49 -180 -49q-141 -2 -229 85q-88 86 -88 248
z" />
    <glyph glyph-name="braceleft.sc" horiz-adv-x="606" 
d="M180 440h-47l23 156h47q82 0 92 98l35 240q41 291 354 291l-20 -158q-137 0 -162 -170l-27 -197q-18 -127 -131 -182q98 -55 80 -182l-29 -197q-25 -170 113 -170l-21 -157q-313 0 -274 290l35 240q10 98 -68 98z" />
    <glyph glyph-name="braceright.sc" horiz-adv-x="604" 
d="M571 596h45l-20 -154h-47q-80 0 -94 -98l-33 -240q-41 -290 -354 -290l20 157q137 0 160 168l28 197q18 131 132 184q-98 51 -80 182l28 195q23 172 -112 172l22 156q313 0 273 -291l-33 -238q-14 -100 65 -100z" />
    <glyph glyph-name="bracketleft.sc" horiz-adv-x="663" 
d="M729 1026h-229l-144 -1012h232l-25 -166h-411l190 1346h410z" />
    <glyph glyph-name="bracketright.sc" horiz-adv-x="665" 
d="M250 1194h409l-188 -1346h-412l25 166h229l144 1012h-232z" />
    <glyph glyph-name="exclam.sc" horiz-adv-x="530" 
d="M416 122q0 -56 -42 -98t-100 -42q-57 0 -91 32q-33 32 -33 89t43 99t99 42t90 -33t34 -89zM242 403l61 711h238l-144 -711h-155z" />
    <glyph glyph-name="exclamdown.sc" horiz-adv-x="530" 
d="M139 -55l140 708h157l-61 -708h-236zM386 813q-56 0 -90 34t-34 89t44 98t100 43t89 -34t33 -90t-43 -98t-99 -42z" />
    <glyph glyph-name="numbersign.sc" horiz-adv-x="1316" 
d="M848 406l102 247h-299l-98 -247h295zM1339 653h-204l-101 -247h178l-28 -164h-217l-99 -242h-186l98 242h-293l-96 -242h-186l96 242h-154l31 164h191l98 247h-188l22 166h234l96 242h184l-96 -242h299l98 242h184l-98 -242h160z" />
    <glyph glyph-name="parenleft.sc" horiz-adv-x="612" 
d="M340 432q0 -283 207 -475l-113 -141q-123 86 -203 244t-79 354q0 290 140 502t341 329l74 -143q-367 -266 -367 -670z" />
    <glyph glyph-name="parenright.sc" horiz-adv-x="614" 
d="M608 647q0 -289 -140 -503t-341 -328l-72 141q324 246 363 606q37 317 -203 539l113 143q124 -84 202 -243t78 -355z" />
    <glyph glyph-name="question.sc" horiz-adv-x="708" 
d="M289 -14q-51 0 -82 30t-31 80q0 51 38 87t89 36t82 -30q31 -29 31 -79t-38 -87t-89 -37zM557 816q0 54 -37 85t-98 31q-115 0 -195 -49l-39 151q138 74 280 74t219 -67t77 -162t-33 -156t-82 -98t-98 -69q-121 -79 -135 -169l-4 -31h-158l6 43q12 85 62 147t100 93
q51 31 93 77t42 100z" />
    <glyph glyph-name="questiondown.sc" horiz-adv-x="708" 
d="M254 264q0 -54 37 -86q37 -31 98 -31q115 0 195 50l39 -152q-139 -74 -281 -74t-218 67q-77 67 -77 162q0 166 115 255q49 37 98 69q121 78 135 168l4 31h158l-6 -43q-11 -84 -61 -146t-101 -94t-93 -76q-42 -46 -42 -100zM522 1094q51 0 82 -30t31 -81t-38 -87t-89 -36
t-82 30t-31 80t38 87t89 37z" />
    <glyph glyph-name="at.sc" horiz-adv-x="1277" 
d="M565 502q0 -70 34 -110q33 -38 95 -38t109 44t57 117t-24 118q-35 45 -103 45t-118 -53t-50 -123zM811 1090q223 0 357 -126t134 -316t-81 -302q-82 -113 -209 -114t-156 90q-86 -98 -200 -98t-175 71t-61 195t92 220t206 97q114 0 173 -64l10 58h115l-47 -336
q-14 -111 57 -111q63 0 100 71t37 185q0 162 -103 256t-280 90q-219 -4 -359 -142t-140 -361q0 -165 96 -269q95 -104 245 -107t269 62l31 -110q-139 -80 -295 -80q-221 0 -355 133q-133 133 -133 352q1 284 193 470t479 186z" />
    <glyph glyph-name="ampersand.sc" horiz-adv-x="1085" 
d="M475 141q88 0 201 70l-230 266q-145 -74 -145 -201q0 -63 43 -99t131 -36zM592 936q-55 0 -95 -39q-97 -95 35 -244q172 74 173 185q0 42 -29 70t-84 28zM418 -18q-141 0 -222 74t-81 195q0 122 70 206q71 84 173 127q-80 88 -80 208t96 203q95 84 228 84t203 -58
q69 -57 69 -155t-70 -173t-188 -148l195 -232q98 96 184 228l115 -82q-6 -6 -64 -84t-141 -160l119 -127l-121 -117l-129 138q-158 -127 -356 -127z" />
    <glyph glyph-name="cent.sc" horiz-adv-x="821" 
d="M143 480q1 148 105 274q104 127 264 161l27 193h166l-27 -186q115 -12 190 -80l-106 -142q-63 56 -167 56q-103 0 -181 -80t-78 -184t55 -165q55 -60 149 -60t165 57l69 -144q-92 -63 -211 -78l-24 -174h-164l24 183q-117 29 -187 125t-69 244z" />
    <glyph glyph-name="currency.sc" horiz-adv-x="925" 
d="M698 532q0 160 -146 160q-73 0 -125 -57t-52 -139q1 -160 147 -160q72 0 124 58t52 138zM490 182q-102 0 -171 49l-96 -86l-84 93l99 90q-29 63 -29 139q0 137 76 240l-68 84l111 92l67 -84q81 47 185 47t174 -47l96 88l82 -96l-96 -89q30 -74 22 -180t-74 -196l68 -84
l-111 -95l-67 82q-82 -47 -184 -47z" />
    <glyph glyph-name="dollar.sc" horiz-adv-x="792" 
d="M410 203q78 0 124 33t46 85q0 53 -41 79t-86 40q-139 45 -198 98q-60 52 -60 156t71 182q72 79 193 103l18 129h172l-16 -127q119 -20 194 -82l-86 -135q-96 66 -186 66q-178 -1 -178 -113q1 -41 33 -63t96 -44t92 -36q108 -50 139 -116q20 -44 21 -104q0 -114 -70 -192
t-190 -103l-19 -131h-174l19 125q-141 18 -234 92l88 142q106 -84 232 -84z" />
    <glyph glyph-name="Euro.sc" horiz-adv-x="1163" 
d="M872 918q-264 0 -368 -201h379l-17 -123h-405q-10 -61 -10 -119v-10h397l-17 -123h-362q68 -199 301 -199q143 0 262 78l68 -131q-57 -35 -95 -53q-38 -19 -113 -37t-157 -18q-180 0 -302 96t-154 264h-156l18 123h125q0 68 13 129h-121l18 123h137q68 170 219 266
q152 96 355 96t330 -110l-103 -138q-101 87 -242 87z" />
    <glyph glyph-name="plus.sc" horiz-adv-x="839" 
d="M854 604l-18 -135h-279l-43 -307h-139l43 307h-283l19 135h282l43 305h139l-43 -305h279z" />
    <glyph glyph-name="minus.sc" horiz-adv-x="940" 
d="M184 469l21 135h700l-18 -135h-703z" />
    <glyph glyph-name="multiply.sc" horiz-adv-x="798" 
d="M801 745l-234 -210l170 -213l-108 -93l-168 209l-230 -207l-81 95l233 211l-172 213l108 94l170 -211l232 209z" />
    <glyph glyph-name="divide.sc" horiz-adv-x="825" 
d="M539 276q0 -46 -29 -76t-69 -30q-39 0 -61 23t-22 63t30 69q30 30 73 29q78 0 78 -78zM164 477l16 125h635l-16 -125h-635zM516 719q-84 0 -84 84q0 41 30 69t75 29q77 0 77 -84q0 -41 -28 -69t-70 -29z" />
    <glyph glyph-name="equal.sc" horiz-adv-x="950" 
d="M166 291l18 135h701l-19 -135h-700zM217 651l19 135h700l-21 -135h-698z" />
    <glyph glyph-name="notequal.sc" horiz-adv-x="950" 
d="M915 653h-247l-95 -225h312l-19 -135h-350l-78 -187h-159l79 187h-192l18 135h232l94 225h-293l19 135h331l76 177h156l-74 -177h211z" />
    <glyph glyph-name="greater.sc" horiz-adv-x="681" 
d="M248 928l452 -320l-20 -149l-541 -320l23 162l375 231l-312 234z" />
    <glyph glyph-name="less.sc" horiz-adv-x="681" 
d="M692 928l-22 -162l-375 -231l311 -234l-22 -162l-451 320l19 149z" />
    <glyph glyph-name="plusminus.sc" horiz-adv-x="825" 
d="M131 109l16 122h594l-16 -122h-594zM578 717h225l-19 -131h-225l-37 -271h-133l37 271h-223l18 131h223l37 262h133z" />
    <glyph glyph-name="percent.sc" horiz-adv-x="1366" 
d="M1068 117q50 0 90 41t40 95t-28 83t-78 29t-88 -40q-39 -41 -39 -95q0 -114 103 -113zM1056 -12q-110 0 -168 60t-58 172t81 192t191 80t170 -58t59 -170q0 -112 -83 -194q-82 -82 -192 -82zM319 816q0 -111 105 -111q51 -1 90 39t39 94t-28 84q-27 28 -77 28t-90 -40
t-39 -94zM412 573q-108 1 -168 61t-60 173t83 193t193 79q110 0 168 -58q60 -58 60 -170t-84 -195t-192 -83zM420 -68l-119 68l803 1137l119 -74z" />
    <glyph glyph-name="perthousand.sc" horiz-adv-x="1941" 
d="M1542 230q0 -114 103 -113q50 0 91 41q40 41 40 94t-29 83t-79 30t-88 -40q-38 -41 -38 -95zM1068 117q50 0 90 41t40 95t-28 83t-78 29t-88 -40q-39 -41 -39 -95q0 -114 103 -113zM1634 -12q-110 0 -170 60q-59 60 -59 172t83 192q82 80 192 80t169 -58t59 -170
t-82 -194t-192 -82zM1056 -12q-110 0 -168 60t-58 172t81 192t191 80t170 -58t59 -170q0 -112 -83 -194q-82 -82 -192 -82zM319 816q0 -111 105 -111q51 -1 90 39t39 94t-28 84q-27 28 -77 28t-90 -40t-39 -94zM412 573q-108 1 -168 61t-60 173t83 193t193 79q110 0 168 -58
q60 -58 60 -170t-84 -195t-192 -83zM420 -68l-119 68l803 1137l119 -74z" />
    <glyph glyph-name="sterling.sc" horiz-adv-x="886" 
d="M711 926q-86 0 -151 -56t-77 -155l-26 -193h211l-17 -129h-211l-34 -252h417l-20 -141h-717l18 141h136l34 252h-131l17 129h133l31 213q20 158 128 251t256 93t240 -84l-90 -123q-61 54 -147 54z" />
    <glyph glyph-name="yen.sc" horiz-adv-x="1003" 
d="M1112 1061l-407 -555h145l-16 -117h-197l-19 -135h195l-14 -119h-199l-18 -135h-164l18 135h-198l16 119h199l18 135h-199l17 117h149l-245 555h190l207 -479l340 479h182z" />
    <glyph glyph-name="caroncomb.alt" 
d="M-28.5 1223q-30.5 0 -55.5 27.5t-25 81.5t46.5 97.5t106.5 43.5t92 -34t32 -89q0 -102 -69 -202t-173 -155l-49 70q47 33 86 80t43 82q-4 -2 -34.5 -2z" />
    <glyph glyph-name="uni0308.case" 
d="M75 1579q-52 0 -83 31.5t-31 86t43 95.5t96 41t84 -32t31 -86t-44 -95t-96 -41zM-344 1581q-53 0 -85 32t-32 86t44 95t97.5 41t83 -31.5t29.5 -86t-42 -95.5t-95 -41z" />
    <glyph glyph-name="uni0307.case" 
d="M84 1569q-55 0 -88 33.5t-33 90t45 100.5t100.5 44t87 -34t31.5 -90t-44 -100t-99 -44z" />
    <glyph glyph-name="gravecomb.case" 
d="M143 1559l-428 116l92 201l400 -188z" />
    <glyph glyph-name="acutecomb.case" 
d="M-250 1550l-37 129l449 203l49 -199z" />
    <glyph glyph-name="uni030B.case" 
d="M-145 1520l-99 79l234 340l145 -106zM-545 1520l-98 79l231 340l148 -106z" />
    <glyph glyph-name="uni0302.case" 
d="M162 1561h-197l-104 135l-146 -135h-196l288 290h158z" />
    <glyph glyph-name="uni030C.case" 
d="M14 1851h195l-289 -290h-158l-196 290h196l107 -135z" />
    <glyph glyph-name="uni0306.case" 
d="M-122 1571q-130 0 -197.5 74.5t-51.5 199.5h160q-8 -59 22.5 -95t88 -36t96.5 36t47 95h162q-16 -125 -106.5 -199.5t-220.5 -74.5z" />
    <glyph glyph-name="uni030A.case" 
d="M98 1742q0 85 -76 85q-36 0 -66 -31t-30 -71t20.5 -63.5t57.5 -23.5t65.5 32t28.5 72zM-6 1526q-90 0 -141.5 50t-51.5 139t71 155.5t161 66.5t140 -50t50 -138t-69.5 -155.5t-159.5 -67.5z" />
    <glyph glyph-name="tildecomb.case" 
d="M-283 1831q63 0 136 -50t115 -50t61.5 15t29 23.5t15.5 15.5t12 15t9 13.5t7 9.5l2 6l105 -94q-6 -16 -34 -51t-93 -75t-136 -40t-142.5 49t-111.5 49t-83 -28.5t-51 -59.5l-107 98q112 154 266 154z" />
    <glyph glyph-name="uni0304.case" 
d="M-457 1597l23 160h641l-23 -160h-641z" />
    <glyph glyph-name="uni0326.case" 
d="M-203.5 -315q-29.5 0 -58.5 31.5t-30 82.5t36 87t97 36t97 -39t37 -116.5t-50 -156.5t-132 -120l-59 64q39 29 68.5 67.5t29.5 65.5q-6 -2 -35.5 -2z" />
    <glyph glyph-name="uni0327.case" 
d="M-330 -500q-125 0 -202 72l67 106q82 -49 131 -51q109 -6 129 88q10 55 -33 84t-137 17l-18 28l90 191h137l-53 -111q76 -6 123 -52t47 -122q0 -113 -78 -181.5t-203 -68.5z" />
    <glyph glyph-name="uni0328.case" 
d="M-288 -473q-94 0 -154 53q-60 54 -60 128q0 140 88 224t148 111l26 12l78 -55q-6 -4 -18 -11q-43 -24 -99.5 -85t-56.5 -145.5t82 -84.5q43 0 74 25l59 -119q-72 -53 -167 -53z" />
    <glyph glyph-name="uni0337.case" 
d="M-606 352l-62 135l643 353l60 -135z" />
    <glyph glyph-name="uni0338.case" 
d="M-1081 -37l-115 96l1266 1483l112 -96z" />
    <glyph glyph-name="caron.alt" horiz-adv-x="333" 
d="M289 1223q-31 -1 -56 27t-25 82t47 98t107 43q60 0 92 -34t31 -89q-1 -102 -69 -202t-172 -155l-49 70q47 33 86 80t43 82q-4 -2 -35 -2z" />
    <glyph glyph-name="acute.case" horiz-adv-x="593" 
d="M319 1550l-36 129l448 203l49 -199z" />
    <glyph glyph-name="breve.case" horiz-adv-x="708" 
d="M562 1571q-130 0 -197.5 74.5t-51.5 199.5h160q-8 -59 22.5 -95t88 -36t96.5 36t47 95h162q-16 -125 -106.5 -199.5t-220.5 -74.5z" />
    <glyph glyph-name="caron.case" horiz-adv-x="782" 
d="M768 1851h195l-289 -290h-158l-197 290h197l107 -135z" />
    <glyph glyph-name="circumflex.case" horiz-adv-x="782" 
d="M915 1561h-196l-105 135l-145 -135h-197l289 290h158z" />
    <glyph glyph-name="dieresis.case" horiz-adv-x="747" 
d="M806 1579q-52 0 -83 31.5t-31 86t43 95.5t96.5 41t84 -32t30.5 -86t-44 -95t-96 -41zM387 1581q-53 0 -85 32t-32 86t44 95t97.5 41t83 -31.5t29.5 -86t-42 -95.5t-95 -41z" />
    <glyph glyph-name="dotaccent.case" horiz-adv-x="288" 
d="M375 1569q-55 0 -88 33.5t-33 90t45 100.5t100.5 44t87 -34t31.5 -90t-44 -100t-99 -44z" />
    <glyph glyph-name="grave.case" horiz-adv-x="593" 
d="M713 1559l-428 116l92 201l399 -188z" />
    <glyph glyph-name="hungarumlaut.case" horiz-adv-x="995" 
d="M791 1520l-99 79l234 340l145 -106zM391 1520l-98 79l231 340l148 -106z" />
    <glyph glyph-name="macron.case" horiz-adv-x="753" 
d="M268 1597l23 160h641l-23 -160h-641z" />
    <glyph glyph-name="ring.case" horiz-adv-x="475" 
d="M559 1742q0 85 -76 85q-37 0 -66.5 -31t-29.5 -71t20.5 -63.5t57.5 -23.5t65.5 32t28.5 72zM454 1526q-90 0 -141 50t-51 139t70.5 155.5t161 66.5t140.5 -50t50 -138t-70 -155.5t-160 -67.5z" />
    <glyph glyph-name="tilde.case" horiz-adv-x="851" 
d="M765 1569q-71 0 -142.5 49t-111.5 49t-83 -28.5t-51 -59.5l-107 98l26 33q111 121 241 121q63 0 135.5 -50t114.5 -50t61.5 15t29 23.5t15.5 15.5t12 15t9.5 13.5t7.5 9.5l2 6l104 -94q-6 -16 -33.5 -51t-93 -75t-136.5 -40z" />
    <glyph glyph-name="uni0308.sc" horiz-adv-x="755" 
d="M692 1182q-55 0 -88 30t-33 86q0 54 40 94q39 40 95 40t88 -32t32 -87t-40 -93q-39 -38 -94 -38zM263 1182q-56 0 -89 30t-33 86q0 54 40 94q39 40 95 40t88 -32t32 -87t-39 -93q-38 -38 -94 -38z" />
    <glyph glyph-name="uni0307.sc" horiz-adv-x="290" 
d="M461 1321q1 -57 -43 -99t-101 -42t-92 34t-35 89t44 99t102 44t92 -34q33 -34 33 -91z" />
    <glyph glyph-name="gravecomb.sc" horiz-adv-x="593" 
d="M487 1133l-413 186l90 172l389 -238z" />
    <glyph glyph-name="acutecomb.sc" horiz-adv-x="595" 
d="M135 1130l-61 123l389 238l90 -172z" />
    <glyph glyph-name="uni030B.sc" horiz-adv-x="970" 
d="M612 1112l-120 68l167 366l166 -90zM227 1112l-118 68l167 366l166 -90z" />
    <glyph glyph-name="uni0302.sc" horiz-adv-x="669" 
d="M688 1151h-180l-105 170l-157 -170h-187l283 317h158z" />
    <glyph glyph-name="uni030C.sc" horiz-adv-x="669" 
d="M528 1468h185l-271 -317h-159l-199 317h182l113 -168z" />
    <glyph glyph-name="uni0306.sc" horiz-adv-x="641" 
d="M481 1153q-127 0 -195 83t-48 220h157q-10 -74 19 -118t88 -44t100 44t51 118h158q-19 -137 -111 -220t-219 -83z" />
    <glyph glyph-name="uni030A.sc" horiz-adv-x="460" 
d="M413 1231q37 0 63 30q26 31 26 71t-22 64t-60 24t-64 -30q-26 -28 -26 -69t22 -66q23 -24 61 -24zM405 1118q-92 0 -145 52t-53 141t64 153q65 64 157 64t145 -51t53 -140t-64 -154q-65 -65 -157 -65z" />
    <glyph glyph-name="tildecomb.sc" horiz-adv-x="776" 
d="M632 1192q-69 0 -140.5 41t-113.5 41t-72 -26.5t-36 -47.5l-120 98q10 25 30.5 53.5t75.5 63.5t121.5 35t141.5 -42t117 -42t71.5 27.5t37.5 50.5l119 -94q-22 -67 -92.5 -112.5t-139.5 -45.5z" />
    <glyph glyph-name="uni0304.sc" horiz-adv-x="724" 
d="M244 1217l22 161h580l-23 -161h-579z" />
    <glyph glyph-name="uni0326.sc" horiz-adv-x="315" 
d="M64 -360q-26 0 -52 28q-24 28 -24 81q0 54 43 97t103 43q60 1 91 -33t31 -89q0 -97 -64 -191t-167 -145l-50 67q117 87 121 144q-6 -2 -32 -2z" />
    <glyph glyph-name="uni0327.sc" horiz-adv-x="495" 
d="M163 -500q-128 0 -198 70l60 98q61 -49 131.5 -51t102.5 29.5t32 79.5q0 90 -123 90q-10 0 -47 -4l-17 28l84 180h127l-51 -110q78 -8 126 -55.5t48 -134t-73.5 -153.5t-201.5 -67z" />
    <glyph glyph-name="uni0328.sc" horiz-adv-x="448" 
d="M138 -485q-97 0 -153 49q-57 48 -57 160t98 210t183 136l78 -70l-22 -11q-111 -60 -157 -152q-22 -42 -22 -87q0 -46 24 -70t62 -24t82 31l51 -111q-70 -61 -167 -61z" />
    <glyph glyph-name="uni0335.sc" horiz-adv-x="731" 
d="M129 479l21 144h571l-21 -144h-571z" />
    <glyph glyph-name="uni0337.sc" horiz-adv-x="823" 
d="M225 356l-61 136l608 321l59 -135z" />
    <glyph glyph-name="uni0338.sc" horiz-adv-x="1249" 
d="M242 -86l-115 96l997 1157l113 -96z" />
    <glyph glyph-name="sevensc.ss01" horiz-adv-x="833" 
d="M178 0l219 397h-164l21 148h223l197 352h-481l24 164h694l-12 -88l-237 -428h131l-21 -148h-192l-220 -397h-182z" />
    </font>
</defs>
</svg>
