<?xml version="1.0" standalone="no"?>
<!DOCTYPE svg PUBLIC "-//W3C//DTD SVG 1.1//EN" "http://www.w3.org/Graphics/SVG/1.1/DTD/svg11.dtd" >
<svg xmlns="http://www.w3.org/2000/svg">
<metadata>
Created by FontPrep 20130207 at Fri May 26 16:13:04 2017
 By Lizzy Knight
Copyright 2016 by URW++ Design &#38; Development GmbH
</metadata>
<defs>
<font id="fb80acaa2f7db745c469ef8e63e44a3c" horiz-adv-x='1024' >
  <font-face 
    font-family="URWDINSemiCond-MediumItalic"
    font-weight="500"
    font-style="italic"
    font-stretch="normal"
    units-per-em="2048"
    panose-1="0 0 6 0 0 0 0 0 0 0"
    ascent="1462"
    descent="-586"
    x-height="1040"
    cap-height="1462"
    bbox="-350 -498 2245 2093"
    underline-thickness="139"
    underline-position="-154"
    slope="-10"
    unicode-range="U+0020-FB04"
  />
<missing-glyph horiz-adv-x="368" 
 />
    <glyph glyph-name="ff" unicode="ff" horiz-adv-x="1148" 
d="M791 883h-103l27 157h104l29 164q25 154 89 208q65 54 220 50h113l-27 -145h-51q-82 4 -112 -25t-46 -125l-22 -127h190l-26 -157h-193l-156 -883h-192zM242 883h-109l27 157h110l29 164q25 154 89 208q65 54 220 50h105l-27 -145h-43q-82 2 -112 -26t-46 -124l-22 -127
h151l-26 -157h-154l-155 -883h-193z" />
    <glyph glyph-name="fi" unicode="fi" horiz-adv-x="1073" 
d="M645 0l182 1040h195l-184 -1040h-193zM864 1237l41 233h193l-41 -233h-193zM242 883h-109l27 157h110l29 164q25 154 89 208q65 54 220 50h113l-27 -145h-51q-82 2 -112 -26t-46 -124l-22 -127h190l-26 -157h-193l-155 -883h-193z" />
    <glyph glyph-name="fl" unicode="fl" horiz-adv-x="1134" 
d="M891 253q0 -95 133 -93h31l-29 -160h-37q-163 0 -229 46t-66 144t23 211l186 1061h193l-195 -1102q-10 -61 -10 -107zM242 883h-109l27 157h110l29 164q25 154 89 208q65 54 220 50h113l-27 -145h-51q-82 2 -112 -26t-46 -124l-22 -127h190l-26 -157h-193l-155 -883h-193
z" />
    <glyph glyph-name="ffi" unicode="ffi" horiz-adv-x="1622" 
d="M791 883h-103l27 157h104l29 164q25 154 89 208q65 54 220 50h113l-27 -145h-51q-82 4 -112 -25t-46 -125l-22 -127h190l-26 -157h-193l-156 -883h-192zM1196 0l184 1040h193l-184 -1040h-193zM1415 1237l41 233h193l-41 -233h-193zM242 883h-109l27 157h110l29 164
q25 154 89 208q65 54 220 50h105l-27 -145h-43q-82 2 -112 -26t-46 -124l-22 -127h151l-26 -157h-154l-155 -883h-193z" />
    <glyph glyph-name="ffl" unicode="ffl" horiz-adv-x="1683" 
d="M791 883h-103l27 157h104l29 164q25 154 89 208q65 54 220 50h113l-27 -145h-51q-82 4 -112 -25t-46 -125l-22 -127h190l-26 -157h-193l-156 -883h-192zM1440 255q0 -48 30 -72t103 -23h31l-29 -160h-37q-164 0 -230 46t-65 144q0 98 23 211l186 1061h193l-195 -1102
q-10 -57 -10 -105zM242 883h-109l27 157h110l29 164q25 154 89 208q65 54 220 50h105l-27 -145h-43q-82 2 -112 -26t-46 -124l-22 -127h151l-26 -157h-154l-155 -883h-193z" />
    <glyph glyph-name=".notdef" horiz-adv-x="368" 
 />
    <glyph glyph-name=".null" horiz-adv-x="0" 
 />
    <glyph glyph-name="nonmarkingreturn" horiz-adv-x="681" 
 />
    <glyph glyph-name="space" unicode=" " horiz-adv-x="368" 
 />
    <glyph glyph-name="exclam" unicode="!" horiz-adv-x="569" 
d="M98 0l39 223h195l-39 -223h-195zM184 399l158 1063h219l-217 -1063h-160z" />
    <glyph glyph-name="quotedbl" unicode="&#x22;" horiz-adv-x="755" 
d="M526 905l84 557h201l-113 -557h-172zM193 905l83 557h201l-112 -557h-172z" />
    <glyph glyph-name="numbersign" unicode="#" 
d="M408 592h176l63 227h-174zM244 592l65 227h-180l39 129h180l105 361h163l-104 -361h174l105 361h163l-104 -361h168l-39 -129h-168l-66 -227h168l-41 -129h-165l-105 -367h-164l107 367h-176l-105 -367h-164l105 367h-182l38 129h183z" />
    <glyph glyph-name="dollar" unicode="$" 
d="M424 176q170 0 238 117q47 80 47 162t-39 123q-22 28 -50 38t-153 50q-283 88 -283 352q0 211 131 330q90 82 250 96l37 219h197l-41 -233q209 -45 225 -267l-180 -49q-21 96 -61 133t-135 37t-161 -68t-65 -180q0 -76 47 -121q46 -45 186 -90t201 -96q92 -76 92 -227
q0 -98 -33 -192t-86 -156q-96 -109 -278 -134l-53 -292h-195l51 297q-145 27 -215 100q-69 74 -75 211l182 49q10 -109 61 -159t158 -50z" />
    <glyph glyph-name="percent" unicode="%" horiz-adv-x="1622" 
d="M434 0l649 1462h181l-650 -1462h-180zM1384 553q0 104 -98 104q-63 0 -97 -43t-54 -149l-29 -166q-8 -49 -8 -86q0 -104 100 -104q64 0 98 44t52 146l28 160q8 49 8 94zM1556 573q0 -55 -12 -116l-31 -172q-27 -162 -101 -232t-220 -69q-264 0 -264 213q0 37 14 127
l29 170q29 158 101 224t218 64q266 0 266 -209zM600 1251q0 104 -100 105q-66 0 -100 -43t-52 -148l-29 -166q-8 -61 -8 -88q0 -104 101 -104q63 0 97 44t52 148l29 158q10 61 10 94zM504 1481q266 0 266 -209q0 -55 -12 -117l-31 -170q-15 -92 -35 -139q-72 -164 -286 -164
q-264 0 -265 213q1 37 15 129l30 168q27 156 100 222t218 67z" />
    <glyph glyph-name="ampersand" unicode="&#x26;" horiz-adv-x="1392" 
d="M295 260q0 -158 172 -158q111 0 225 74q11 4 101 80l-195 393q-133 -80 -192 -139q-111 -115 -111 -250zM797 1339q-82 0 -133 -62q-52 -62 -52 -146t76 -246q127 77 184 153t58 170q0 131 -133 131zM92 246q0 199 146 354q51 53 92 82t182 115q-94 197 -94 317
q0 162 108 277q104 106 264 106t248 -77q86 -77 86 -212q0 -266 -352 -465l164 -337q92 129 149 274h189q-104 -264 -246 -432l135 -248h-231l-55 113q-135 -101 -229 -139t-218 -37q-164 -1 -251 79t-87 230z" />
    <glyph glyph-name="quotesingle" unicode="'" horiz-adv-x="419" 
d="M193 905l83 557h201l-112 -557h-172z" />
    <glyph glyph-name="parenleft" unicode="(" horiz-adv-x="772" 
d="M229 397q0 426 205 830q131 266 287 438l125 -92q-194 -267 -302 -583q-210 -617 -5 -1160l-144 -82q-166 309 -166 649z" />
    <glyph glyph-name="parenright" unicode=")" horiz-adv-x="772" 
d="M610 1014q0 -420 -204 -830q-141 -279 -287 -436l-125 92q194 266 302 582q211 618 5 1159l143 84q166 -313 166 -651z" />
    <glyph glyph-name="asterisk" unicode="*" 
d="M590 1049l-201 -248l-137 125l231 229l-270 117l78 158l258 -148l41 309l186 -32l-67 -306l292 50l19 -175l-293 -16l139 -295l-172 -69z" />
    <glyph glyph-name="plus" unicode="+" 
d="M109 662l26 155h326l63 359h168l-63 -359h325l-26 -155h-326l-63 -359h-168l63 359h-325z" />
    <glyph glyph-name="comma" unicode="," horiz-adv-x="499" 
d="M-80 -385l191 606h213l-232 -606h-172z" />
    <glyph glyph-name="hyphen" unicode="-" horiz-adv-x="811" 
d="M170 655l29 168h520l-29 -168h-520z" />
    <glyph glyph-name="period" unicode="." horiz-adv-x="501" 
d="M57 0l39 223h203l-39 -223h-203z" />
    <glyph glyph-name="slash" unicode="/" horiz-adv-x="702" 
d="M-49 -43l688 1548h192l-688 -1548h-192z" />
    <glyph glyph-name="zero" unicode="0" 
d="M776 1139q0 178 -147 178q-99 0 -155 -83t-91 -278l-80 -450q-20 -123 -20 -184q0 -176 147 -177q98 0 155 82q56 82 91 279l80 450q20 121 20 183zM637 1483q338 0 338 -328q0 -86 -23 -209l-88 -491q-24 -139 -54 -214t-83 -137q-111 -125 -303 -124q-340 0 -340 327
q-1 80 22 209l87 492q25 139 54 215q30 76 83 135q111 125 307 125z" />
    <glyph glyph-name="one" unicode="1" 
d="M324 0l219 1245l-215 -96l-58 149l377 164h135l-256 -1462h-202z" />
    <glyph glyph-name="two" unicode="2" 
d="M612 1317q-166 0 -227 -238l-188 8q45 203 149 299t268 96q334 0 334 -310q0 -217 -182 -445q-47 -59 -195 -223l-297 -336h502l-31 -168h-753l24 137l449 508q279 317 278 537q0 135 -131 135z" />
    <glyph glyph-name="three" unicode="3" 
d="M473 850q117 0 191 81t75 233q0 152 -143 153q-80 0 -131 -50t-84 -159l-184 10q80 365 413 365q164 0 250 -78t86 -227q0 -295 -229 -406q77 -52 109 -116t32 -164q0 -205 -100 -347q-115 -166 -359 -165q-174 0 -270 78t-96 223q0 23 6 81l192 13q-4 -25 -4 -53
q0 -176 170 -177q135 0 201 121q55 94 55 221q0 203 -209 203h-100l29 160h100z" />
    <glyph glyph-name="four" unicode="4" 
d="M506 0l47 266h-516l22 123l592 1073h211l-569 -1032h289l71 404h185l-72 -404h121l-29 -166h-121l-47 -264h-184z" />
    <glyph glyph-name="five" unicode="5" 
d="M584 915q137 -1 214 -77q76 -76 76 -205t-32 -267t-80 -210q-115 -174 -363 -174q-166 0 -257 78t-91 219q0 25 6 83l193 13q-4 -27 -4 -58q0 -170 160 -170q131 1 195 137t65 316q0 156 -146 156q-106 0 -198 -90l-142 30l189 766h624l-30 -168h-453l-107 -424
q88 36 109 41q21 4 72 4z" />
    <glyph glyph-name="six" unicode="6" 
d="M543 758q-131 0 -187 -131q-26 -63 -48 -163t-21 -169q0 -152 143 -152q135 0 193 156q57 163 57 311t-137 148zM623 911q121 1 191 -75t69 -199q0 -123 -29 -251t-72 -210q-106 -197 -362 -196q-158 0 -247 78t-89 216q0 199 72 381q35 86 125 222l389 585h223
l-379 -571q68 20 109 20z" />
    <glyph glyph-name="seven" unicode="7" 
d="M117 0l645 1294h-498l29 168h708l-22 -121l-631 -1341h-231z" />
    <glyph glyph-name="eight" unicode="8" 
d="M684 539q0 149 -152 149t-204 -113q-23 -51 -42 -139t-20 -145q0 -147 164 -148q141 0 195 115q59 143 59 281zM635 1329q-125 0 -170 -106q-51 -129 -51 -257t132 -128t180 122t48 242q0 59 -36 93t-103 34zM639 1483q326 -1 326 -297q0 -152 -68 -291
q-37 -76 -131 -125q117 -66 117 -238q0 -102 -29 -214t-74 -177q-106 -162 -350 -161q-365 0 -364 299q0 96 27 202q28 106 74 183t144 114l-32 31q-55 51 -56 164q0 213 92 356q94 154 324 154z" />
    <glyph glyph-name="nine" unicode="9" 
d="M625 1319q-129 0 -181 -113q-25 -53 -44 -144t-19 -155q0 -145 145 -145q127 0 185 127q59 145 59 287t-145 143zM178 876q0 120 30 246t71 193q106 168 350 168q166 0 255 -76q89 -77 89 -229t-64 -320q-33 -84 -108 -201l-428 -657h-223l411 631q-70 -20 -121 -21
q-122 0 -192 73t-70 193z" />
    <glyph glyph-name="colon" unicode=":" horiz-adv-x="501" 
d="M201 817l39 223h202l-39 -223h-202zM57 0l39 223h203l-39 -223h-203z" />
    <glyph glyph-name="semicolon" unicode=";" horiz-adv-x="499" 
d="M221 817l39 223h203l-39 -223h-203zM-80 -385l191 606h213l-232 -606h-172z" />
    <glyph glyph-name="less" unicode="&#x3c;" 
d="M350 739l463 -270l-31 -174l-647 395l21 113l784 393l-33 -186z" />
    <glyph glyph-name="equal" unicode="=" 
d="M166 823l24 150h764l-26 -150h-762zM109 506l26 151h764l-27 -151h-763z" />
    <glyph glyph-name="greater" unicode="&#x3e;" 
d="M715 754l-461 270l31 172l645 -393l-19 -113l-786 -395l33 188z" />
    <glyph glyph-name="question" unicode="?" horiz-adv-x="1011" 
d="M309 0l39 223h195l-39 -223h-195zM221 1067q105 416 453 416t348 -323q0 -163 -104 -298q-42 -55 -190 -178t-165 -235l-10 -54h-158l13 74q20 121 64 194t161 173q106 96 144 166t38 153q0 162 -151 162q-94 1 -154 -61t-104 -203z" />
    <glyph glyph-name="at" unicode="@" horiz-adv-x="1630" 
d="M944 938q-109 0 -205 -178q-88 -172 -88 -305q0 -84 72 -84q109 0 213 182q92 169 92 277t-84 108zM1071 424q0 -57 57 -57q117 0 213 155q47 80 76 192t29 210q0 206 -119 318t-338 112q-360 0 -571 -334q-80 -127 -128 -303t-48 -344q0 -436 510 -436q215 0 442 102
l43 -121q-256 -115 -506 -115q-330 0 -498 152q-156 137 -155 418q0 205 66 415t175 359q252 342 674 342q145 0 271 -45t206 -127q137 -137 138 -377q0 -291 -152 -500t-364 -209q-152 0 -152 154q-64 -84 -124 -120t-144 -36q-84 1 -137 57t-54 154q0 199 134 415t327 216
q100 0 143 -61q10 -14 27 -70l43 109h121l-172 -488q-33 -88 -33 -137z" />
    <glyph glyph-name="A" unicode="A" horiz-adv-x="1064" 
d="M731 475l-74 723l-329 -723h403zM745 309h-489l-139 -309h-223l710 1462h187l200 -1462h-215z" />
    <glyph glyph-name="B" unicode="B" horiz-adv-x="1132" 
d="M553 166q129 0 186 72q80 100 80 258q0 92 -39 132t-131 40h-256l-88 -502h248zM659 831q117 0 172 68q78 92 78 234q0 87 -40 125t-136 38h-229l-82 -465h237zM743 1462q209 0 293 -78q82 -82 82 -225t-55 -245t-156 -152q68 -57 82 -88q35 -66 35 -180
q0 -233 -127 -377q-57 -63 -129 -90t-188 -27h-506l258 1462h411z" />
    <glyph glyph-name="C" unicode="C" horiz-adv-x="1101" 
d="M494 -20q-184 0 -280 87q-95 87 -95 257q0 94 24 223l76 428q27 153 60 233t92 142q127 129 344 129q178 0 275 -80t97 -230q0 -35 -8 -92l-188 -6q2 23 2 51q0 190 -182 191q-125 0 -193 -87t-104 -294l-72 -404q-20 -123 -20 -182q0 -201 186 -201q219 0 278 256
l191 -10q-33 -174 -115 -264q-129 -147 -368 -147z" />
    <glyph glyph-name="D" unicode="D" horiz-adv-x="1181" 
d="M305 166h184q156 -2 236 78t115 276l75 424q16 94 17 158q0 195 -242 194h-184zM707 1462q213 0 309 -71q121 -92 121 -271q0 -78 -21 -182l-84 -475q-68 -471 -526 -463h-432l258 1462h375z" />
    <glyph glyph-name="E" unicode="E" horiz-adv-x="1013" 
d="M76 0l258 1462h751l-28 -168h-551l-84 -471h469l-31 -168h-467l-86 -487h555l-28 -168h-758z" />
    <glyph glyph-name="F" unicode="F" horiz-adv-x="958" 
d="M76 0l258 1462h743l-28 -168h-543l-84 -481h457l-31 -168h-457l-112 -645h-203z" />
    <glyph glyph-name="G" unicode="G" horiz-adv-x="1157" 
d="M522 -20q-199 0 -300 89t-101 261q0 86 24 217l74 428q29 149 63 231t95 144q129 129 333 129t302 -81t98 -233q0 -37 -8 -88l-189 -8q2 23 2 47q0 197 -190 197q-131 0 -202 -87t-107 -294l-72 -404q-20 -113 -20 -176q0 -207 204 -207q127 0 202 80t104 250l26 146
h-225l29 157h423l-51 -289q-24 -145 -54 -221t-89 -141q-133 -147 -371 -147z" />
    <glyph glyph-name="H" unicode="H" horiz-adv-x="1191" 
d="M76 0l258 1462h203l-113 -639h453l112 639h203l-258 -1462h-203l117 655h-455l-114 -655h-203z" />
    <glyph glyph-name="I" unicode="I" horiz-adv-x="534" 
d="M76 0l258 1462h203l-258 -1462h-203z" />
    <glyph glyph-name="J" unicode="J" horiz-adv-x="817" 
d="M228 147q112 0 171 127q27 57 58 240l168 948h202l-172 -973q-31 -182 -47 -239t-53 -113q-100 -156 -319 -155q-111 0 -189 32t-151 109l139 133q81 -109 193 -109z" />
    <glyph glyph-name="K" unicode="K" horiz-adv-x="1079" 
d="M78 0l258 1462h201l-123 -700l585 700h230l-518 -600l290 -862h-223l-223 717l-188 -225l-88 -492h-201z" />
    <glyph glyph-name="L" unicode="L" horiz-adv-x="950" 
d="M76 0l258 1462h203l-230 -1294h559l-28 -168h-762z" />
    <glyph glyph-name="M" unicode="M" horiz-adv-x="1429" 
d="M76 0l258 1462h190l199 -895l512 895h195l-259 -1462h-194l184 1044l-420 -741h-127l-159 741l-185 -1044h-194z" />
    <glyph glyph-name="N" unicode="N" horiz-adv-x="1255" 
d="M76 0l258 1462h198l338 -1083l193 1083h194l-258 -1462h-194l-342 1087l-193 -1087h-194z" />
    <glyph glyph-name="O" unicode="O" horiz-adv-x="1179" 
d="M711 1317q-117 0 -188 -83t-105 -284l-78 -438q-18 -104 -18 -183t54 -131t170 -52t188 83q71 84 106 283l75 438q20 115 21 166q0 201 -225 201zM717 1483q420 0 422 -350q0 -76 -23 -195l-82 -475q-26 -139 -58 -215t-91 -137q-129 -131 -357 -131q-410 0 -409 348
q0 73 20 196l84 475q25 139 57 214t93 139q129 131 344 131z" />
    <glyph glyph-name="P" unicode="P" horiz-adv-x="1062" 
d="M592 723q150 0 217 96q82 117 82 287q0 102 -45 146t-150 44h-192l-103 -573h191zM696 1462q213 0 299 -78q102 -90 103 -251q0 -258 -125 -424q-63 -82 -153 -117t-228 -35h-215l-98 -557h-203l258 1462h362z" />
    <glyph glyph-name="Q" unicode="Q" horiz-adv-x="1179" 
d="M711 1317q-117 0 -188 -83t-105 -284l-78 -438q-18 -104 -18 -183t54 -131t152 -52t160 44l-170 177l129 112l146 -151q25 59 47 184l75 438q20 115 21 166q0 201 -225 201zM717 1483q420 0 422 -350q0 -76 -23 -195l-82 -475q-33 -184 -96 -287l104 -108l-127 -113
l-98 100q-111 -76 -289 -75q-410 0 -409 348q0 74 20 196l84 475q25 139 57 214t93 139q129 131 344 131z" />
    <glyph glyph-name="R" unicode="R" horiz-adv-x="1130" 
d="M621 784q150 0 213 84q78 98 77 254q0 94 -47 134t-155 40h-203l-90 -512h205zM725 1462q213 0 299 -76q96 -80 96 -235q0 -113 -34 -223q-78 -252 -295 -285l161 -643h-225l-137 625h-199l-110 -625h-203l258 1462h389z" />
    <glyph glyph-name="S" unicode="S" horiz-adv-x="1019" 
d="M729 448q0 94 -51 134q-26 20 -50 30t-143 50q-293 92 -292 346q1 196 111 334t335 139q180 0 270 -74t101 -231l-183 -50q-14 104 -58 146q-45 42 -145 43q-100 0 -166 -76t-65 -201q0 -82 46 -126t173 -89q180 -61 249 -139t69 -217q0 -201 -107 -330
q-127 -157 -392 -157t-357 135q-46 63 -54 196l185 51q10 -116 63 -166t166 -51q176 0 246 123q49 86 49 180z" />
    <glyph glyph-name="T" unicode="T" horiz-adv-x="940" 
d="M279 0l229 1294h-334l29 168h868l-29 -168h-331l-230 -1294h-202z" />
    <glyph glyph-name="U" unicode="U" horiz-adv-x="1204" 
d="M342 326q0 -178 199 -179q154 0 229 121q37 59 66 211l172 983h202l-178 -1018q-24 -140 -50 -204t-77 -119q-127 -139 -361 -139t-333 110q-72 88 -72 209q0 74 25 215l166 946h202l-172 -983q-18 -109 -18 -153z" />
    <glyph glyph-name="V" unicode="V" horiz-adv-x="1040" 
d="M342 0l-158 1462h199l96 -1153l504 1153h207l-672 -1462h-176z" />
    <glyph glyph-name="W" unicode="W" horiz-adv-x="1587" 
d="M414 1462v-1128l465 1128h151l68 -1128l399 1128h205l-559 -1462h-178l-72 1092l-457 -1092h-178l-45 1462h201z" />
    <glyph glyph-name="X" unicode="X" horiz-adv-x="1015" 
d="M440 778l-225 684h209l168 -528l328 528h221l-477 -727l241 -735h-209l-184 580l-360 -580h-222z" />
    <glyph glyph-name="Y" unicode="Y" horiz-adv-x="952" 
d="M287 0l92 526l-227 936h208l156 -710l406 710h219l-559 -936l-93 -526h-202z" />
    <glyph glyph-name="Z" unicode="Z" horiz-adv-x="954" 
d="M-16 0l22 125l750 1169h-508l31 168h735l-21 -125l-749 -1169h567l-29 -168h-798z" />
    <glyph glyph-name="bracketleft" unicode="[" horiz-adv-x="772" 
d="M141 -201l320 1813h375l-27 -146h-178l-269 -1521h179l-25 -146h-375z" />
    <glyph glyph-name="backslash" unicode="\" horiz-adv-x="702" 
d="M555 -43h-193l-141 1548h193z" />
    <glyph glyph-name="bracketright" unicode="]" horiz-adv-x="772" 
d="M698 1612l-319 -1813h-375l25 146h180l268 1521h-178l25 146h374z" />
    <glyph glyph-name="asciicircum" unicode="^" 
d="M625 1239l-289 -463h-227l495 697h111l252 -697h-217z" />
    <glyph glyph-name="underscore" unicode="_" horiz-adv-x="817" 
d="M-199 -362l25 139h903l-24 -139h-904z" />
    <glyph glyph-name="grave" unicode="`" horiz-adv-x="1024" 
d="M743 1190h-141l-164 299h207z" />
    <glyph glyph-name="a" unicode="a" horiz-adv-x="942" 
d="M453 475q-125 0 -179 -59q-55 -66 -55 -180q0 -57 35 -81t127 -24t136 41t63 152l26 151h-153zM653 774q0 127 -137 127q-70 0 -114 -33t-80 -110l-158 49q102 252 364 252q317 0 318 -260q0 -53 -19 -172l-110 -627h-154l-6 47q-82 -68 -235 -67q-297 0 -297 221
q0 203 93 309t320 106h193l12 60q10 63 10 98z" />
    <glyph glyph-name="b" unicode="b" horiz-adv-x="999" 
d="M721 739q0 158 -139 158q-94 0 -150 -70t-84 -217l-33 -180q-12 -74 -12 -121q0 -170 150 -170q88 0 140 68t79 215l37 205q12 74 12 112zM627 1059q289 0 288 -281q0 -70 -20 -184l-35 -199q-39 -223 -127 -319q-89 -96 -237 -96t-220 59q-12 10 -49 55l-30 -94h-150
l258 1462h193l-86 -483q90 80 215 80z" />
    <glyph glyph-name="c" unicode="c" horiz-adv-x="870" 
d="M412 -20q-158 0 -241 78t-83 227q0 70 18 180l29 166q37 215 117 311q100 119 274 119q174 -1 248 -63t82 -203l-172 -39q-6 78 -38 112t-110 35q-155 0 -210 -289l-35 -198q-12 -80 -12 -119q0 -158 145 -158q131 1 186 144l164 -35q-68 -268 -362 -268z" />
    <glyph glyph-name="d" unicode="d" horiz-adv-x="999" 
d="M281 303q0 -162 139 -162q180 0 231 289l33 180q12 80 12 119q0 170 -149 170q-170 0 -217 -268l-37 -201q-12 -74 -12 -127zM385 -20q-299 0 -299 286q0 84 18 189l37 209q39 211 126 303t251 92q82 1 129 -17t101 -65l86 485h192l-258 -1462h-150l3 78q-4 -2 -13 -10
q-90 -88 -223 -88z" />
    <glyph glyph-name="e" unicode="e" horiz-adv-x="968" 
d="M326 621h372q14 88 15 131q0 158 -154 157q-182 0 -225 -250zM279 299q0 -164 161 -164q76 0 124 35t81 113l160 -37q-53 -142 -143 -204t-248 -62q-326 0 -326 303q0 90 18 190l27 150q39 217 123 315q102 121 303 121q334 0 334 -301q0 -98 -35 -281h-557l-12 -74
q-10 -66 -10 -104z" />
    <glyph glyph-name="f" unicode="f" horiz-adv-x="600" 
d="M242 883h-109l27 157h110l29 164q25 154 89 208q65 54 220 50h113l-27 -145h-51q-82 2 -112 -26t-46 -124l-22 -127h190l-26 -157h-193l-155 -883h-193z" />
    <glyph glyph-name="g" unicode="g" horiz-adv-x="999" 
d="M281 305q0 -164 139 -164q180 0 231 289l33 180q10 61 10 119q0 170 -147 170q-88 -1 -141 -65t-78 -203l-37 -207q-10 -61 -10 -119zM86 266q0 92 18 191l37 207q37 211 123 303t252 92t250 -96l37 77h149l-188 -1067q-41 -233 -153 -343t-310 -109q-145 0 -214 56
t-77 187l170 39q10 -73 41 -101t117 -28q181 0 229 281l19 100q-84 -76 -215 -75q-285 0 -285 286z" />
    <glyph glyph-name="h" unicode="h" horiz-adv-x="1003" 
d="M47 0l258 1462h193l-84 -475q55 41 101 56t118 16q131 0 203 -66t71 -184q0 -84 -22 -203l-107 -606h-192l108 616q14 84 15 129q0 145 -134 146q-96 0 -150 -72t-83 -237l-102 -582h-193z" />
    <glyph glyph-name="i" unicode="i" horiz-adv-x="475" 
d="M49 0l182 1040h195l-184 -1040h-193zM268 1237l41 233h193l-41 -233h-193z" />
    <glyph glyph-name="j" unicode="j" horiz-adv-x="485" 
d="M279 1237l40 233h193l-41 -233h-192zM244 1040h192l-188 -1065q-39 -266 -138 -358t-341 -88l28 162q115 -7 174 59t84 223z" />
    <glyph glyph-name="k" unicode="k" horiz-adv-x="931" 
d="M51 0l258 1462h193l-166 -946l436 524h215l-385 -438l223 -602h-207l-159 467l-166 -195l-49 -272h-193z" />
    <glyph glyph-name="l" unicode="l" horiz-adv-x="536" 
d="M293 253q0 -95 133 -93h31l-29 -160h-37q-163 0 -229 46t-66 144t23 211l186 1061h193l-195 -1102q-10 -61 -10 -107z" />
    <glyph glyph-name="m" unicode="m" horiz-adv-x="1482" 
d="M377 1040v-84q51 57 106 80t138 23q184 0 243 -121q92 121 260 121q129 1 197 -63t68 -185q0 -63 -23 -205l-106 -606h-195l109 612q16 92 16 138q0 143 -121 143q-88 0 -138 -72t-79 -239l-102 -582h-193l107 612q16 96 16 140q0 141 -119 141q-88 0 -138 -73t-81 -245
l-102 -575h-193l182 1040h148z" />
    <glyph glyph-name="n" unicode="n" horiz-adv-x="1003" 
d="M377 1040v-86q97 104 243 104t217 -65q71 -66 70 -184q0 -84 -22 -203l-107 -606h-192l106 612q16 82 17 133q0 147 -134 148q-96 0 -149 -73t-84 -247l-102 -573h-193l182 1040h148z" />
    <glyph glyph-name="o" unicode="o" horiz-adv-x="987" 
d="M430 137q98 1 150 63t79 212l39 217q12 74 13 121q0 152 -154 151q-98 0 -151 -63t-78 -209l-39 -217q-12 -68 -13 -121q0 -154 154 -154zM561 1059q342 0 342 -293q0 -61 -18 -170l-37 -213q-39 -217 -136 -310t-286 -93q-342 0 -342 294q0 72 18 170l37 213
q39 217 136 309t286 93z" />
    <glyph glyph-name="p" unicode="p" horiz-adv-x="999" 
d="M719 737q0 160 -139 160q-94 0 -150 -70t-84 -217l-31 -180q-12 -66 -12 -121q0 -170 148 -170q88 0 141 69t80 214l37 209q10 61 10 106zM621 1059q294 0 292 -283q0 -72 -16 -174l-37 -209q-41 -221 -129 -317q-87 -96 -239 -96t-242 83l-92 -524h-193l264 1501h150
l10 -71q92 90 232 90z" />
    <glyph glyph-name="q" unicode="q" horiz-adv-x="999" 
d="M281 305q0 -164 139 -164q180 0 231 289l33 180q10 61 10 121q0 168 -147 168q-88 -1 -141 -65t-76 -203l-37 -209q-12 -66 -12 -117zM86 268q0 82 18 187l37 209q39 213 126 304t252 91t249 -96l35 77h149l-264 -1501h-194l92 514q-86 -74 -207 -73q-293 0 -293 288z
" />
    <glyph glyph-name="r" unicode="r" horiz-adv-x="684" 
d="M614 1059q80 0 164 -58l-112 -159q-57 51 -113 51q-82 0 -135 -91t-88 -296l-90 -506h-193l182 1040h150l8 -88q49 59 98 83t129 24z" />
    <glyph glyph-name="s" unicode="s" horiz-adv-x="864" 
d="M760 354q0 -374 -430 -374q-220 0 -293 120q-31 50 -39 148l174 37q10 -82 50 -115t136 -33t156 51q59 51 59 142q0 58 -35 78q-34 20 -164 49t-188 85q-57 56 -57 186t88 230q91 100 287 100t266 -106q31 -49 37 -143l-170 -41q-8 135 -143 135q-80 0 -129 -49
q-49 -50 -49 -114t32 -90t144 -50t174 -55q94 -57 94 -191z" />
    <glyph glyph-name="t" unicode="t" horiz-adv-x="606" 
d="M408 0q-160 0 -224 42q-63 42 -63 144q0 68 24 213l86 484h-106l27 157h110l66 318h180l-55 -318h174l-27 -157h-176l-92 -523q-12 -80 -12 -118q-1 -80 120 -80h35l-29 -162h-38z" />
    <glyph glyph-name="u" unicode="u" 
d="M293 293q0 -145 123 -146q92 0 143 73t82 247l100 573h193l-182 -1040h-140l-4 94q-51 -63 -106 -89t-142 -25q-126 0 -196 64t-70 183q0 78 25 217l104 596h195l-107 -604q-18 -94 -18 -143z" />
    <glyph glyph-name="v" unicode="v" horiz-adv-x="878" 
d="M256 0l-127 1040h190l70 -784l344 784h201l-496 -1040h-182z" />
    <glyph glyph-name="w" unicode="w" horiz-adv-x="1359" 
d="M227 0l-80 1040h193l27 -768l333 768h136l65 -768l295 768h199l-445 -1040h-164l-69 723l-328 -723h-162z" />
    <glyph glyph-name="x" unicode="x" horiz-adv-x="835" 
d="M315 539l-184 501h203l123 -346l231 346h217l-381 -520l193 -520h-203l-129 360l-242 -360h-219z" />
    <glyph glyph-name="y" unicode="y" horiz-adv-x="880" 
d="M252 2l-129 1038h190l76 -804l342 804h199l-539 -1183q-96 -207 -182 -267t-289 -61l29 162q106 1 148 31t100 153z" />
    <glyph glyph-name="z" unicode="z" horiz-adv-x="821" 
d="M-29 0l21 117l551 764h-379l26 159h617l-21 -116l-550 -764h442l-29 -160h-678z" />
    <glyph glyph-name="braceleft" unicode="{" horiz-adv-x="772" 
d="M473 618q0 -41 -27 -190l-36 -205q-23 -133 -23 -184q0 -106 121 -107h37l-23 -133h-78q-139 0 -198 44q-60 45 -60 137t29 245l37 209q23 131 22 160q0 90 -108 90h-14l20 119h14q86 2 118 49t56 205l33 176q33 229 106 304t259 75h84l-23 -133h-39q-94 -2 -132 -62
t-73 -250l-18 -108q-27 -164 -55 -221t-107 -95q78 -39 78 -125z" />
    <glyph glyph-name="bar" unicode="|" 
d="M281 -201l319 1813h168l-319 -1813h-168z" />
    <glyph glyph-name="braceright" unicode="}" horiz-adv-x="772" 
d="M377 872q0 29 29 187l22 129q23 127 23 184q0 106 -121 107h-37l22 133h78q139 0 199 -45t59 -133q0 -88 -28 -248l-23 -135q-25 -129 -25 -160q0 -88 109 -88h14l-20 -119h-14q-86 -4 -118 -50t-57 -206l-45 -250q-34 -229 -106 -305t-258 -74h-84l22 133h39
q94 2 132 60t73 252l31 184q27 164 56 221q30 57 108 94q-80 37 -80 129z" />
    <glyph glyph-name="asciitilde" unicode="~" 
d="M371 739q-78 0 -146 -141l-112 27q57 141 121 202q65 61 155 62q49 1 84 -15t90 -61t79 -58t52 -14q76 0 144 136l108 -35q-111 -250 -259 -250q-70 0 -103 17q-32 17 -100 73t-113 57z" />
    <glyph glyph-name="uni00A0" unicode="&#xa0;" horiz-adv-x="368" 
 />
    <glyph glyph-name="exclamdown" unicode="&#xa1;" horiz-adv-x="569" 
d="M473 1036l-39 -223h-194l39 223h194zM387 635l-158 -1063h-219l217 1063h160z" />
    <glyph glyph-name="cent" unicode="&#xa2;" 
d="M182 574q0 96 19 194l28 168q33 203 116 303t235 119l38 219h197l-41 -231q90 -25 133 -82t47 -160l-166 -41q-6 78 -38 113q-33 34 -116 34t-137 -68t-83 -224l-35 -197q-10 -61 -10 -119q0 -162 147 -162q76 0 122 36t79 116l157 -39q-72 -225 -284 -256l-41 -231h-197
l43 237l-20 6q-59 19 -88 37t-54 55q-51 77 -51 173z" />
    <glyph glyph-name="sterling" unicode="&#xa3;" 
d="M305 555q0 12 -4 57h-188l28 168h121q-33 172 -33 236q0 219 112 342t312 123q358 0 359 -336q0 -29 -2 -51l-183 -35v47q0 211 -172 211q-100 0 -161 -83t-62 -216q0 -76 49 -238h301l-30 -168h-254q2 -20 2 -43q0 -248 -187 -401h557l-30 -168h-832l25 145
q121 41 197 155t75 255z" />
    <glyph glyph-name="currency" unicode="&#xa4;" 
d="M520 963q-106 0 -168 -76q-63 -76 -63 -204t63 -205q64 -77 168 -77t168 77t64 203t-63 204t-169 78zM127 682q0 143 74 258l-152 170l101 90l145 -164q102 70 225 70t225 -70l148 164l98 -90l-151 -170q76 -113 76 -256t-76 -260l151 -168l-98 -92l-148 166
q-102 -72 -224 -72t-226 72l-145 -166l-101 92l152 168q-74 115 -74 258z" />
    <glyph glyph-name="yen" unicode="&#xa5;" 
d="M301 0l53 301h-266l21 117h266l22 125h-266l21 116h217l-199 803h211l151 -708l400 708h219l-481 -803h219l-21 -116h-268l-22 -125h268l-21 -117h-268l-53 -301h-203z" />
    <glyph glyph-name="brokenbar" unicode="&#xa6;" horiz-adv-x="870" 
d="M250 0l92 524h186l-92 -524h-186zM412 915l96 547h186l-96 -547h-186z" />
    <glyph glyph-name="section" unicode="&#xa7;" 
d="M311 621q0 -57 33 -89t141 -77l86 -37l58 41q80 55 80 176q0 61 -30 89t-149 79l-86 35q-6 -6 -10 -7l-37 -24q-86 -57 -86 -186zM569 127q0 53 -30 86q-31 33 -160 85t-194 118q-65 64 -64 170q0 199 211 315q-76 78 -76 193q0 184 100 286t290 102t263 -104
q35 -47 43 -131l-174 -47q-12 53 -28 76q-35 47 -111 47t-129 -53q-53 -52 -53 -124q1 -72 27 -100t152 -80q265 -110 265 -288q0 -104 -63 -199q-41 -57 -152 -123q50 -38 68 -74t18 -119t-55 -194q-98 -190 -367 -190q-162 1 -246 63t-102 195l174 47q21 -84 61 -115
q41 -31 125 -31t146 53q61 52 61 136z" />
    <glyph glyph-name="dieresis" unicode="&#xa8;" horiz-adv-x="1024" 
d="M719 1202l41 228h172l-39 -228h-174zM371 1202l39 228h174l-39 -228h-174z" />
    <glyph glyph-name="copyright" unicode="&#xa9;" horiz-adv-x="1619" 
d="M1397 729q0 271 -165 451t-421 180t-422 -176t-166 -452t166 -453t422 -177t421 178t165 449zM810 -31q-322 0 -530 215q-210 215 -210 548t210 547t530 214q322 0 531 -217t209 -546t-209 -545t-531 -216zM811 371q-139 0 -202 71q-62 72 -62 238v102q0 164 63 237
q62 73 198 73t198 -50t67 -155l-139 -4q-12 94 -113 94q-67 0 -95 -42t-28 -138v-131q0 -98 29 -140t96 -41q101 1 119 95l141 -7q-1 -104 -67 -153t-205 -49z" />
    <glyph glyph-name="ordfeminine" unicode="&#xaa;" horiz-adv-x="610" 
d="M399 1098q-135 0 -135 -133q0 -63 86 -64q109 0 123 96l19 101h-93zM516 1294q0 72 -75 72t-117 -70l-107 37q76 141 238 142q211 0 211 -156q0 -45 -15 -117l-69 -395h-121l2 41q-53 -53 -148 -53q-195 0 -194 157q0 127 67 184q68 56 224 56h88l10 49q6 37 6 53z" />
    <glyph glyph-name="guillemotleft" unicode="&#xab;" horiz-adv-x="813" 
d="M274 590l105 -258l-133 -66l-180 338l301 338l102 -96zM627 590l106 -258l-133 -66l-180 338l299 338l104 -96z" />
    <glyph glyph-name="logicalnot" unicode="&#xac;" 
d="M125 662l27 155h737l-98 -555h-187l72 400h-551z" />
    <glyph glyph-name="uni00AD" unicode="&#xad;" horiz-adv-x="811" 
d="M170 655l29 168h520l-29 -168h-520z" />
    <glyph glyph-name="registered" unicode="&#xae;" horiz-adv-x="1310" 
d="M653 1651q-199 0 -321 -131t-121 -333q0 -202 121 -334q122 -132 322 -132t321 132t121 335t-122 333t-321 130zM655 1774q251 0 415 -169t165 -421q0 -252 -166 -419t-416 -167q-249 0 -415 167t-166 422t166 421t417 166zM578 1204h96q86 0 86 86t-88 86h-94v-172z
M580 1126v-223h-129v565h231q109 0 158 -40t49 -128q0 -127 -101 -161l121 -236h-139l-104 223h-86z" />
    <glyph glyph-name="macron" unicode="&#xaf;" horiz-adv-x="1024" 
d="M391 1255l25 142h502l-25 -142h-502z" />
    <glyph glyph-name="degree" unicode="&#xb0;" horiz-adv-x="735" 
d="M492 1395q-170 0 -170 -189q0 -90 43 -138t125 -48t124 49q43 49 43 139q-1 90 -43 138t-122 49zM491 1526q153 0 239 -86t87 -234q0 -148 -88 -232t-240 -85q-151 0 -239 85q-88 84 -88 234t88 234t241 84z" />
    <glyph glyph-name="plusminus" unicode="&#xb1;" 
d="M-2 39l27 156h819l-27 -156h-819zM111 678l26 156h326l61 350h168l-61 -350h325l-26 -156h-326l-61 -350h-168l61 350h-325z" />
    <glyph glyph-name="twosuperior" unicode="&#xb2;" horiz-adv-x="634" 
d="M503 1677q232 0 232 -190q0 -111 -49 -189t-182 -215l-164 -168h295l-23 -124h-503l18 102l281 295q164 170 163 285q0 80 -77 79q-92 0 -132 -135l-145 6q31 133 100 194q70 60 186 60z" />
    <glyph glyph-name="threesuperior" unicode="&#xb3;" horiz-adv-x="634" 
d="M420 1307q66 0 108 44t43 111q0 90 -84 90q-90 0 -125 -112l-143 8q31 121 96 175q66 54 185 54q231 0 231 -192q0 -162 -125 -232q76 -55 76 -173t-64 -203q-78 -98 -241 -99q-123 0 -188 46t-64 132q0 2 4 64l150 12q-2 -18 -3 -31q0 -98 101 -98q67 0 107 48t40 128
q0 117 -125 117h-80l21 111h80z" />
    <glyph glyph-name="acute" unicode="&#xb4;" horiz-adv-x="1024" 
d="M522 1190l191 299h221l-266 -299h-146z" />
    <glyph glyph-name="mu" unicode="&#xb5;" 
d="M297 291q0 -147 125 -148q90 0 142 77t83 253l101 563h186l-182 -1036h-129l-5 113q-84 -133 -229 -133q-92 0 -143 65l-92 -506h-187l264 1497h187l-107 -602q-14 -90 -14 -143z" />
    <glyph glyph-name="paragraph" unicode="&#xb6;" horiz-adv-x="1138" 
d="M385 688q-119 0 -182 43q-104 70 -105 244q0 125 54 245q99 223 311 240q31 2 160 2h493l-305 -1741h-184l280 1582h-188l-279 -1582h-182l170 967h-43z" />
    <glyph glyph-name="periodcentered" unicode="&#xb7;" horiz-adv-x="499" 
d="M168 627l39 223h203l-39 -223h-203z" />
    <glyph glyph-name="cedilla" unicode="&#xb8;" horiz-adv-x="1024" 
d="M207 -463l145 324h189l-203 -324h-131z" />
    <glyph glyph-name="onesuperior" unicode="&#xb9;" horiz-adv-x="550" 
d="M264 791l127 716l-139 -55l-37 115l254 100h109l-156 -876h-158z" />
    <glyph glyph-name="ordmasculine" unicode="&#xba;" horiz-adv-x="628" 
d="M547 1272q0 86 -86 86q-104 0 -129 -146l-27 -149q-6 -27 -6 -64q0 -88 86 -88q104 1 129 144l27 151q6 23 6 66zM698 1286q0 -45 -12 -106l-24 -146q-23 -127 -89 -183t-190 -56q-236 0 -236 186q1 43 13 106l24 146q23 129 88 185q66 56 191 57q235 0 235 -189z" />
    <glyph glyph-name="guillemotright" unicode="&#xbb;" horiz-adv-x="813" 
d="M569 618l-104 256l131 68l182 -338l-301 -338l-102 96zM215 618l-104 256l133 68l180 -338l-301 -338l-103 96z" />
    <glyph glyph-name="onequarter" unicode="&#xbc;" horiz-adv-x="1622" 
d="M377 0l651 1462h180l-651 -1462h-180zM1180 0l28 156h-340l17 94l368 627h162l-350 -596h164l37 198h137l-35 -198h76l-23 -125h-75l-29 -156h-137zM289 586l127 717l-140 -56l-36 115l254 100h108l-156 -876h-157z" />
    <glyph glyph-name="onehalf" unicode="&#xbd;" horiz-adv-x="1599" 
d="M358 0l652 1462h180l-651 -1462h-181zM1262 764q-92 0 -132 -137l-145 8q33 133 101 193q69 60 190 61q227 0 227 -193q0 -111 -59 -204q-35 -57 -172 -199l-164 -168h295l-23 -125h-503l18 102l281 295q164 172 163 287q0 80 -77 80zM285 586l127 717l-140 -56l-36 115
l253 100h109l-156 -876h-157z" />
    <glyph glyph-name="threequarters" unicode="&#xbe;" horiz-adv-x="1599" 
d="M444 0l652 1462h180l-651 -1462h-181zM1208 0l27 156h-340l16 94l369 627h162l-350 -596h165l35 198h138l-35 -198h78l-23 -125h-78l-26 -156h-138zM391 1102q66 0 109 44t43 111q0 90 -84 91q-90 0 -125 -113l-144 8q29 121 96 175t185 55q231 0 231 -193
q0 -162 -124 -231q76 -57 76 -175t-64 -202q-78 -98 -244 -99q-250 0 -250 181q0 4 4 61l150 12q-2 -16 -2 -30q0 -98 100 -99q66 0 107 48t41 128q0 117 -125 117h-80l20 111h80z" />
    <glyph glyph-name="questiondown" unicode="&#xbf;" horiz-adv-x="1011" 
d="M719 1034l-39 -223h-195l39 223h195zM807 -33q-103 -416 -451 -416t-348 337q0 171 105 300q49 59 202 185q131 102 150 213l8 53h160l-12 -74q-21 -121 -65 -193t-156 -169q-112 -98 -150 -170q-39 -72 -39 -154q0 -162 151 -162q94 1 154 61t105 204z" />
    <glyph glyph-name="Agrave" unicode="&#xc0;" horiz-adv-x="1064" 
d="M805 1612h-141l-164 299h207zM731 475l-74 723l-329 -723h403zM745 309h-489l-139 -309h-223l710 1462h187l200 -1462h-215z" />
    <glyph glyph-name="Aacute" unicode="&#xc1;" horiz-adv-x="1064" 
d="M637 1612l190 297h222l-267 -297h-145zM731 475l-74 723l-329 -723h403zM745 309h-489l-139 -309h-223l710 1462h187l200 -1462h-215z" />
    <glyph glyph-name="Acircumflex" unicode="&#xc2;" horiz-adv-x="1064" 
d="M745 1782l-135 -164h-196l278 283h135l181 -283h-183zM731 475l-74 723l-329 -723h403zM745 309h-489l-139 -309h-223l710 1462h187l200 -1462h-215z" />
    <glyph glyph-name="Atilde" unicode="&#xc3;" horiz-adv-x="1064" 
d="M638 1886q75 0 132 -63q61 -63 86 -63t42 24q17 25 40 88h119q-47 -150 -90 -201t-124 -51t-134 64t-80 63q-51 0 -90 -113h-119q49 144 96 198t122 54zM731 475l-74 723l-329 -723h403zM745 309h-489l-139 -309h-223l710 1462h187l200 -1462h-215z" />
    <glyph glyph-name="Adieresis" unicode="&#xc4;" horiz-adv-x="1064" 
d="M809 1624l41 225h172l-39 -225h-174zM455 1624l39 225h174l-39 -225h-174zM731 475l-74 723l-329 -723h403zM745 309h-489l-139 -309h-223l710 1462h187l200 -1462h-215z" />
    <glyph glyph-name="Aring" unicode="&#xc5;" horiz-adv-x="1064" 
d="M768 1925q-55 0 -88 -43t-33 -115q0 -80 82 -79q53 0 86 43t33 112q0 82 -80 82zM764 2021q100 0 154 -50t55 -144q0 -94 -72 -165t-171 -71t-153 50q-55 51 -55 147t70 164q72 68 172 69zM731 475l-74 723l-329 -723h403zM745 309h-489l-139 -309h-223l710 1462h187
l200 -1462h-215z" />
    <glyph glyph-name="AE" unicode="&#xc6;" horiz-adv-x="1665" 
d="M817 498l141 796h-18l-547 -796h424zM788 332h-505l-228 -332h-233l1036 1462h881l-29 -168h-553l-84 -471h469l-29 -168h-469l-86 -487h558l-29 -168h-758z" />
    <glyph glyph-name="Ccedilla" unicode="&#xc7;" horiz-adv-x="1101" 
d="M223 -463l146 324h188l-203 -324h-131zM494 -20q-184 0 -280 87q-95 87 -95 257q0 94 24 223l76 428q27 153 60 233t92 142q127 129 344 129q178 0 275 -80t97 -230q0 -35 -8 -92l-188 -6q2 23 2 51q0 190 -182 191q-125 0 -193 -87t-104 -294l-72 -404
q-20 -123 -20 -182q0 -201 186 -201q219 0 278 256l191 -10q-33 -174 -115 -264q-129 -147 -368 -147z" />
    <glyph glyph-name="Egrave" unicode="&#xc8;" horiz-adv-x="1013" 
d="M844 1612h-142l-163 299h206zM76 0l258 1462h751l-28 -168h-551l-84 -471h469l-31 -168h-467l-86 -487h555l-28 -168h-758z" />
    <glyph glyph-name="Eacute" unicode="&#xc9;" horiz-adv-x="1013" 
d="M623 1612l190 297h221l-266 -297h-145zM76 0l258 1462h751l-28 -168h-551l-84 -471h469l-31 -168h-467l-86 -487h555l-28 -168h-758z" />
    <glyph glyph-name="Ecircumflex" unicode="&#xca;" horiz-adv-x="1013" 
d="M762 1782l-135 -164h-197l279 283h135l180 -283h-182zM76 0l258 1462h751l-28 -168h-551l-84 -471h469l-31 -168h-467l-86 -487h555l-28 -168h-758z" />
    <glyph glyph-name="Edieresis" unicode="&#xcb;" horiz-adv-x="1013" 
d="M821 1624l41 225h172l-39 -225h-174zM467 1624l39 225h174l-39 -225h-174zM76 0l258 1462h751l-28 -168h-551l-84 -471h469l-31 -168h-467l-86 -487h555l-28 -168h-758z" />
    <glyph glyph-name="Igrave" unicode="&#xcc;" horiz-adv-x="534" 
d="M561 1612h-141l-164 299h207zM76 0l258 1462h203l-258 -1462h-203z" />
    <glyph glyph-name="Iacute" unicode="&#xcd;" horiz-adv-x="534" 
d="M354 1612l191 297h221l-266 -297h-146zM70 0l258 1462h202l-258 -1462h-202z" />
    <glyph glyph-name="Icircumflex" unicode="&#xce;" horiz-adv-x="534" 
d="M498 1782l-136 -164h-196l278 283h136l180 -283h-182zM76 0l258 1462h203l-258 -1462h-203z" />
    <glyph glyph-name="Idieresis" unicode="&#xcf;" horiz-adv-x="534" 
d="M553 1624l39 225h174l-41 -225h-172zM199 1624l41 225h172l-39 -225h-174zM76 0l258 1462h203l-258 -1462h-203z" />
    <glyph glyph-name="Eth" unicode="&#xd0;" horiz-adv-x="1181" 
d="M391 657l-86 -491h184q156 -4 236 77t115 275l75 426q16 102 17 158q0 195 -242 194h-184l-84 -475h246l-29 -164h-248zM707 1462q213 0 309 -71q121 -92 121 -269q0 -66 -21 -184l-84 -475q-70 -471 -528 -463h-430l114 657h-135l29 164h137l113 641h375z" />
    <glyph glyph-name="Ntilde" unicode="&#xd1;" horiz-adv-x="1255" 
d="M742 1886q74 0 132 -63q61 -63 86 -63t42 24q17 25 40 88h119q-47 -150 -90 -201t-125 -51t-134 64t-79 63q-51 0 -90 -113h-119q48 144 96 198t122 54zM76 0l258 1462h198l338 -1083l193 1083h194l-258 -1462h-194l-342 1087l-193 -1087h-194z" />
    <glyph glyph-name="Ograve" unicode="&#xd2;" horiz-adv-x="1179" 
d="M897 1612h-141l-164 299h207zM711 1317q-117 0 -188 -83t-105 -284l-78 -438q-18 -104 -18 -183t54 -131t170 -52t188 83q71 84 106 283l75 438q20 115 21 166q0 201 -225 201zM717 1483q420 0 422 -350q0 -76 -23 -195l-82 -475q-26 -139 -58 -215t-91 -137
q-129 -131 -357 -131q-410 0 -409 348q0 73 20 196l84 475q25 139 57 214t93 139q129 131 344 131z" />
    <glyph glyph-name="Oacute" unicode="&#xd3;" horiz-adv-x="1179" 
d="M674 1612l190 297h221l-266 -297h-145zM711 1317q-117 0 -188 -83t-105 -284l-78 -438q-18 -104 -18 -183t54 -131t170 -52t188 83q71 84 106 283l75 438q20 115 21 166q0 201 -225 201zM717 1483q420 0 422 -350q0 -76 -23 -195l-82 -475q-26 -139 -58 -215t-91 -137
q-129 -131 -357 -131q-410 0 -409 348q0 73 20 196l84 475q25 139 57 214t93 139q129 131 344 131z" />
    <glyph glyph-name="Ocircumflex" unicode="&#xd4;" horiz-adv-x="1179" 
d="M813 1782l-135 -164h-197l279 283h135l180 -283h-182zM711 1317q-117 0 -188 -83t-105 -284l-78 -438q-18 -104 -18 -183t54 -131t170 -52t188 83q71 84 106 283l75 438q20 115 21 166q0 201 -225 201zM717 1483q420 0 422 -350q0 -76 -23 -195l-82 -475
q-26 -139 -58 -215t-91 -137q-129 -131 -357 -131q-410 0 -409 348q0 73 20 196l84 475q25 139 57 214t93 139q129 131 344 131z" />
    <glyph glyph-name="Otilde" unicode="&#xd5;" horiz-adv-x="1179" 
d="M708 1886q75 0 132 -63q61 -63 86 -63t42 24q17 25 40 88h118q-47 -150 -90 -201t-124 -51t-134 64t-80 63q-51 0 -90 -113h-119q49 144 97 198t122 54zM711 1317q-117 0 -188 -83t-105 -284l-78 -438q-18 -104 -18 -183t54 -131t170 -52t188 83q71 84 106 283l75 438
q20 115 21 166q0 201 -225 201zM717 1483q420 0 422 -350q0 -76 -23 -195l-82 -475q-26 -139 -58 -215t-91 -137q-129 -131 -357 -131q-410 0 -409 348q0 73 20 196l84 475q25 139 57 214t93 139q129 131 344 131z" />
    <glyph glyph-name="Odieresis" unicode="&#xd6;" horiz-adv-x="1179" 
d="M877 1624l41 225h172l-39 -225h-174zM522 1624l39 225h174l-39 -225h-174zM711 1317q-117 0 -188 -83t-105 -284l-78 -438q-18 -104 -18 -183t54 -131t170 -52t188 83q71 84 106 283l75 438q20 115 21 166q0 201 -225 201zM717 1483q420 0 422 -350q0 -76 -23 -195
l-82 -475q-26 -139 -58 -215t-91 -137q-129 -131 -357 -131q-410 0 -409 348q0 73 20 196l84 475q25 139 57 214t93 139q129 131 344 131z" />
    <glyph glyph-name="multiply" unicode="&#xd7;" 
d="M416 739l-234 285l129 109l234 -285l334 285l90 -109l-334 -285l233 -284l-127 -109l-235 285l-334 -285l-90 109z" />
    <glyph glyph-name="Oslash" unicode="&#xd8;" horiz-adv-x="1177" 
d="M723 1317q-131 0 -202 -83t-105 -284l-76 -438q-8 -37 -10 -57l575 776q-51 86 -182 86zM532 145q131 0 201 84t105 283l77 438q3 19 9 56l-574 -775q51 -86 182 -86zM542 -20q-216 0 -317 86l-80 -111l-122 86l114 154q-20 69 -20 139t20 190l84 475q25 137 57 213
t93 140q129 131 362 131q190 0 295 -86l80 104l121 -84l-113 -151q39 -122 0 -328l-84 -475q-24 -139 -56 -214t-93 -138q-125 -131 -341 -131z" />
    <glyph glyph-name="Ugrave" unicode="&#xd9;" horiz-adv-x="1204" 
d="M909 1612h-141l-164 299h207zM342 326q0 -178 199 -179q154 0 229 121q37 59 66 211l172 983h202l-178 -1018q-24 -140 -50 -204t-77 -119q-127 -139 -361 -139t-333 110q-72 88 -72 209q0 74 25 215l166 946h202l-172 -983q-18 -109 -18 -153z" />
    <glyph glyph-name="Uacute" unicode="&#xda;" horiz-adv-x="1204" 
d="M690 1612l191 297h221l-266 -297h-146zM342 326q0 -178 199 -179q154 0 229 121q37 59 66 211l172 983h202l-178 -1018q-24 -140 -50 -204t-77 -119q-127 -139 -361 -139t-333 110q-72 88 -72 209q0 74 25 215l166 946h202l-172 -983q-18 -109 -18 -153z" />
    <glyph glyph-name="Ucircumflex" unicode="&#xdb;" horiz-adv-x="1204" 
d="M829 1782l-135 -164h-196l278 283h135l181 -283h-183zM342 326q0 -178 199 -179q154 0 229 121q37 59 66 211l172 983h202l-178 -1018q-24 -140 -50 -204t-77 -119q-127 -139 -361 -139t-333 110q-72 88 -72 209q0 74 25 215l166 946h202l-172 -983q-18 -109 -18 -153z
" />
    <glyph glyph-name="Udieresis" unicode="&#xdc;" horiz-adv-x="1204" 
d="M887 1624l41 225h172l-39 -225h-174zM532 1624l39 225h174l-38 -225h-175zM342 326q0 -178 199 -179q154 0 229 121q37 59 66 211l172 983h202l-178 -1018q-24 -140 -50 -204t-77 -119q-127 -139 -361 -139t-333 110q-72 88 -72 209q0 74 25 215l166 946h202l-172 -983
q-18 -109 -18 -153z" />
    <glyph glyph-name="Yacute" unicode="&#xdd;" horiz-adv-x="952" 
d="M584 1612l190 297h221l-266 -297h-145zM287 0l92 526l-227 936h208l156 -710l406 710h219l-559 -936l-93 -526h-202z" />
    <glyph glyph-name="Thorn" unicode="&#xde;" horiz-adv-x="1062" 
d="M551 489q150 0 217 97q82 119 82 291q0 100 -45 144t-150 44h-190l-103 -576h189zM655 1229q205 0 293 -72q109 -86 109 -258q0 -119 -34 -233q-71 -239 -245 -308q-88 -35 -227 -34h-215l-57 -324h-203l258 1462h203l-41 -233h159z" />
    <glyph glyph-name="germandbls" unicode="&#xdf;" horiz-adv-x="1003" 
d="M620 1479q162 0 246 -69t84 -198q0 -190 -133 -305q51 -39 73 -90q41 -95 5 -303l-18 -102q-35 -226 -122 -318t-266 -94h-104l27 158h57q102 0 146 53t73 219l21 115q12 69 12 139t-28 96t-107 27h-29l25 143h30q76 0 115 75t39 169q0 129 -139 129q-84 0 -127 -48
t-64 -165l-196 -1110h-193l201 1135q33 182 121 263t251 81z" />
    <glyph glyph-name="agrave" unicode="&#xe0;" horiz-adv-x="942" 
d="M709 1190h-142l-164 299h207zM453 475q-125 0 -179 -59q-55 -66 -55 -180q0 -57 35 -81t127 -24t136 41t63 152l26 151h-153zM653 774q0 127 -137 127q-70 0 -114 -33t-80 -110l-158 49q102 252 364 252q317 0 318 -260q0 -53 -19 -172l-110 -627h-154l-6 47
q-82 -68 -235 -67q-297 0 -297 221q0 203 93 309t320 106h193l12 60q10 63 10 98z" />
    <glyph glyph-name="aacute" unicode="&#xe1;" horiz-adv-x="942" 
d="M494 1190l190 299h221l-266 -299h-145zM453 475q-125 0 -179 -59q-55 -66 -55 -180q0 -57 35 -81t127 -24t136 41t63 152l26 151h-153zM653 774q0 127 -137 127q-70 0 -114 -33t-80 -110l-158 49q102 252 364 252q317 0 318 -260q0 -53 -19 -172l-110 -627h-154l-6 47
q-82 -68 -235 -67q-297 0 -297 221q0 203 93 309t320 106h193l12 60q10 63 10 98z" />
    <glyph glyph-name="acircumflex" unicode="&#xe2;" horiz-adv-x="942" 
d="M621 1362l-136 -164h-196l278 283h135l181 -283h-183zM453 475q-125 0 -179 -59q-55 -66 -55 -180q0 -57 35 -81t127 -24t136 41t63 152l26 151h-153zM653 774q0 127 -137 127q-70 0 -114 -33t-80 -110l-158 49q102 252 364 252q317 0 318 -260q0 -53 -19 -172l-110 -627
h-154l-6 47q-82 -68 -235 -67q-297 0 -297 221q0 203 93 309t320 106h193l12 60q10 63 10 98z" />
    <glyph glyph-name="atilde" unicode="&#xe3;" horiz-adv-x="942" 
d="M508 1466q76 0 132 -64t83 -65q27 0 44 25t40 90h119q-45 -150 -89 -202t-124 -52t-140 68q-49 61 -75 61q-51 0 -90 -113h-119q49 144 96 198t123 54zM453 475q-125 0 -179 -59q-55 -66 -55 -180q0 -57 35 -81t127 -24t136 41t63 152l26 151h-153zM653 774
q0 127 -137 127q-70 0 -114 -33t-80 -110l-158 49q102 252 364 252q317 0 318 -260q0 -53 -19 -172l-110 -627h-154l-6 47q-82 -68 -235 -67q-297 0 -297 221q0 203 93 309t320 106h193l12 60q10 63 10 98z" />
    <glyph glyph-name="adieresis" unicode="&#xe4;" horiz-adv-x="942" 
d="M680 1202l41 228h172l-39 -228h-174zM332 1202l39 228h174l-39 -228h-174zM453 475q-125 0 -179 -59q-55 -66 -55 -180q0 -57 35 -81t127 -24t136 41t63 152l26 151h-153zM653 774q0 127 -137 127q-70 0 -114 -33t-80 -110l-158 49q102 252 364 252q317 0 318 -260
q0 -53 -19 -172l-110 -627h-154l-6 47q-82 -68 -235 -67q-297 0 -297 221q0 203 93 309t320 106h193l12 60q10 63 10 98z" />
    <glyph glyph-name="aring" unicode="&#xe5;" horiz-adv-x="942" 
d="M643 1505q-53 0 -86 -43t-33 -114q0 -80 82 -80q53 0 86 43t33 112q0 82 -82 82zM607 1171q-99 1 -153 51t-54 146t70 165t170 69t156 -50q54 -50 54 -145q0 -94 -72 -165t-171 -71zM453 475q-125 0 -179 -59q-55 -66 -55 -180q0 -57 35 -81t127 -24t136 41t63 152
l26 151h-153zM653 774q0 127 -137 127q-70 0 -114 -33t-80 -110l-158 49q102 252 364 252q317 0 318 -260q0 -53 -19 -172l-110 -627h-154l-6 47q-82 -68 -235 -67q-297 0 -297 221q0 203 93 309t320 106h193l12 60q10 63 10 98z" />
    <glyph glyph-name="ae" unicode="&#xe6;" horiz-adv-x="1472" 
d="M829 621h373q14 86 15 131q0 158 -154 157q-182 0 -227 -250zM453 477q-125 1 -179 -63t-55 -178q0 -57 35 -81t125 -24t136 45t67 158l26 143h-155zM1307 246q-90 -266 -358 -266q-131 0 -197 34t-107 111q-63 -84 -130 -115t-187 -30q-303 0 -303 221q0 203 93 310
t320 107h195l10 58q10 72 10 96q0 129 -137 129q-70 -1 -111 -29t-90 -112l-149 51q53 129 140 188t223 59t216 -59q16 -14 48 -67q59 70 122 98t160 29q322 0 322 -299q0 -92 -35 -283h-559l-12 -74q-10 -61 -11 -102q0 -166 164 -166q143 0 203 148z" />
    <glyph glyph-name="ccedilla" unicode="&#xe7;" horiz-adv-x="870" 
d="M121 -463l145 324h189l-203 -324h-131zM412 -20q-158 0 -241 78t-83 227q0 70 18 180l29 166q37 215 117 311q100 119 274 119q174 -1 248 -63t82 -203l-172 -39q-6 78 -38 112t-110 35q-155 0 -210 -289l-35 -198q-12 -80 -12 -119q0 -158 145 -158q131 1 186 144
l164 -35q-68 -268 -362 -268z" />
    <glyph glyph-name="egrave" unicode="&#xe8;" horiz-adv-x="968" 
d="M717 1190h-142l-163 299h206zM326 621h372q14 88 15 131q0 158 -154 157q-182 0 -225 -250zM279 299q0 -164 161 -164q76 0 124 35t81 113l160 -37q-53 -142 -143 -204t-248 -62q-326 0 -326 303q0 90 18 190l27 150q39 217 123 315q102 121 303 121q334 0 334 -301
q0 -98 -35 -281h-557l-12 -74q-10 -66 -10 -104z" />
    <glyph glyph-name="eacute" unicode="&#xe9;" horiz-adv-x="968" 
d="M498 1190l190 299h221l-266 -299h-145zM326 621h372q14 88 15 131q0 158 -154 157q-182 0 -225 -250zM279 299q0 -164 161 -164q76 0 124 35t81 113l160 -37q-53 -142 -143 -204t-248 -62q-326 0 -326 303q0 90 18 190l27 150q39 217 123 315q102 121 303 121
q334 0 334 -301q0 -98 -35 -281h-557l-12 -74q-10 -66 -10 -104z" />
    <glyph glyph-name="ecircumflex" unicode="&#xea;" horiz-adv-x="968" 
d="M643 1362l-135 -164h-197l279 283h135l180 -283h-182zM326 621h372q14 88 15 131q0 158 -154 157q-182 0 -225 -250zM279 299q0 -164 161 -164q76 0 124 35t81 113l160 -37q-53 -142 -143 -204t-248 -62q-326 0 -326 303q0 90 18 190l27 150q39 217 123 315
q102 121 303 121q334 0 334 -301q0 -98 -35 -281h-557l-12 -74q-10 -66 -10 -104z" />
    <glyph glyph-name="edieresis" unicode="&#xeb;" horiz-adv-x="968" 
d="M700 1202l41 228h172l-39 -228h-174zM352 1202l39 228h174l-39 -228h-174zM326 621h372q14 88 15 131q0 158 -154 157q-182 0 -225 -250zM279 299q0 -164 161 -164q76 0 124 35t81 113l160 -37q-53 -142 -143 -204t-248 -62q-326 0 -326 303q0 90 18 190l27 150
q39 217 123 315q102 121 303 121q334 0 334 -301q0 -98 -35 -281h-557l-12 -74q-10 -66 -10 -104z" />
    <glyph glyph-name="igrave" unicode="&#xec;" horiz-adv-x="475" 
d="M455 1190h-142l-163 299h206zM49 0l182 1040h195l-184 -1040h-193z" />
    <glyph glyph-name="iacute" unicode="&#xed;" horiz-adv-x="475" 
d="M254 1190l190 299h222l-267 -299h-145zM45 0l182 1040h195l-184 -1040h-193z" />
    <glyph glyph-name="icircumflex" unicode="&#xee;" horiz-adv-x="475" 
d="M393 1362l-135 -164h-197l279 283h135l180 -283h-182zM49 0l182 1040h195l-184 -1040h-193z" />
    <glyph glyph-name="idieresis" unicode="&#xef;" horiz-adv-x="475" 
d="M444 1202l41 228h172l-39 -228h-174zM98 1202l39 228h174l-41 -228h-172zM49 0l182 1040h195l-184 -1040h-193z" />
    <glyph glyph-name="eth" unicode="&#xf0;" horiz-adv-x="987" 
d="M557 881q-99 0 -153 -66t-80 -211l-33 -188q-12 -74 -12 -123q0 -156 149 -156q98 0 153 66q54 66 81 213l32 182q12 90 13 129q0 154 -150 154zM420 -20q-336 0 -336 288q0 72 16 164l37 209q37 207 125 291q109 109 279 108q104 0 159 -41q-8 57 -27 117t-38 80
l-199 -98l-49 94l160 80q-76 61 -152 80l49 131q84 -10 142 -36t133 -85l170 84l49 -94l-139 -68q47 -72 77 -194q58 -238 7 -512l-35 -199q-37 -213 -137 -306t-291 -93z" />
    <glyph glyph-name="ntilde" unicode="&#xf1;" horiz-adv-x="1003" 
d="M539 1466q76 0 132 -64t83 -65q27 0 44 25t40 90h118q-45 -150 -89 -202t-124 -52t-139 68q-49 61 -76 61q-51 0 -90 -113h-119q49 144 97 198t123 54zM377 1040v-86q97 104 243 104t217 -65q71 -66 70 -184q0 -84 -22 -203l-107 -606h-192l106 612q16 82 17 133
q0 147 -134 148q-96 0 -149 -73t-84 -247l-102 -573h-193l182 1040h148z" />
    <glyph glyph-name="ograve" unicode="&#xf2;" horiz-adv-x="987" 
d="M725 1190h-141l-164 299h207zM430 137q98 1 150 63t79 212l39 217q12 74 13 121q0 152 -154 151q-98 0 -151 -63t-78 -209l-39 -217q-12 -68 -13 -121q0 -154 154 -154zM561 1059q342 0 342 -293q0 -61 -18 -170l-37 -213q-39 -217 -136 -310t-286 -93q-342 0 -342 294
q0 72 18 170l37 213q39 217 136 309t286 93z" />
    <glyph glyph-name="oacute" unicode="&#xf3;" horiz-adv-x="987" 
d="M502 1190l190 299h221l-266 -299h-145zM430 137q98 1 150 63t79 212l39 217q12 74 13 121q0 152 -154 151q-98 0 -151 -63t-78 -209l-39 -217q-12 -68 -13 -121q0 -154 154 -154zM561 1059q342 0 342 -293q0 -61 -18 -170l-37 -213q-39 -217 -136 -310t-286 -93
q-342 0 -342 294q0 72 18 170l37 213q39 217 136 309t286 93z" />
    <glyph glyph-name="ocircumflex" unicode="&#xf4;" horiz-adv-x="987" 
d="M647 1362l-135 -164h-197l279 283h135l180 -283h-182zM430 137q98 1 150 63t79 212l39 217q12 74 13 121q0 152 -154 151q-98 0 -151 -63t-78 -209l-39 -217q-12 -68 -13 -121q0 -154 154 -154zM561 1059q342 0 342 -293q0 -61 -18 -170l-37 -213q-39 -217 -136 -310
t-286 -93q-342 0 -342 294q0 72 18 170l37 213q39 217 136 309t286 93z" />
    <glyph glyph-name="otilde" unicode="&#xf5;" horiz-adv-x="987" 
d="M537 1466q76 0 132 -64t83 -65q27 0 44 25t40 90h118q-45 -150 -89 -202t-124 -52t-139 68q-49 61 -76 61q-51 0 -90 -113h-119q49 144 97 198t123 54zM430 137q98 1 150 63t79 212l39 217q12 74 13 121q0 152 -154 151q-98 0 -151 -63t-78 -209l-39 -217
q-12 -68 -13 -121q0 -154 154 -154zM561 1059q342 0 342 -293q0 -61 -18 -170l-37 -213q-39 -217 -136 -310t-286 -93q-342 0 -342 294q0 72 18 170l37 213q39 217 136 309t286 93z" />
    <glyph glyph-name="odieresis" unicode="&#xf6;" horiz-adv-x="987" 
d="M702 1202l41 228h172l-38 -228h-175zM354 1202l39 228h174l-39 -228h-174zM430 137q98 1 150 63t79 212l39 217q12 74 13 121q0 152 -154 151q-98 0 -151 -63t-78 -209l-39 -217q-12 -68 -13 -121q0 -154 154 -154zM561 1059q342 0 342 -293q0 -61 -18 -170l-37 -213
q-39 -217 -136 -310t-286 -93q-342 0 -342 294q0 72 18 170l37 213q39 217 136 309t286 93z" />
    <glyph glyph-name="divide" unicode="&#xf7;" 
d="M483 967l35 196h176l-35 -196h-176zM369 315l34 197h177l-35 -197h-176zM109 662l26 155h819l-26 -155h-819z" />
    <glyph glyph-name="oslash" unicode="&#xf8;" horiz-adv-x="989" 
d="M554 901q-93 0 -146 -63t-80 -211l-37 -213q-12 -70 -12 -76l407 512q-39 51 -132 51zM437 137q93 -1 145 63t80 214l38 213q5 18 11 75l-406 -512q39 -53 132 -53zM442 -20q-172 0 -258 61l-61 -78l-90 64l80 100q-29 63 -29 141t18 176l37 213q39 215 136 309t267 93
q170 0 263 -60l61 78l90 -63l-79 -101q51 -101 10 -317l-37 -213q-39 -217 -137 -310q-99 -93 -271 -93z" />
    <glyph glyph-name="ugrave" unicode="&#xf9;" 
d="M723 1190h-141l-164 299h207zM293 293q0 -145 123 -146q92 0 143 73t82 247l100 573h193l-182 -1040h-140l-4 94q-51 -63 -106 -89t-142 -25q-126 0 -196 64t-70 183q0 78 25 217l104 596h195l-107 -604q-18 -94 -18 -143z" />
    <glyph glyph-name="uacute" unicode="&#xfa;" 
d="M500 1190l190 299h221l-266 -299h-145zM293 293q0 -145 123 -146q92 0 143 73t82 247l100 573h193l-182 -1040h-140l-4 94q-51 -63 -106 -89t-142 -25q-126 0 -196 64t-70 183q0 78 25 217l104 596h195l-107 -604q-18 -94 -18 -143z" />
    <glyph glyph-name="ucircumflex" unicode="&#xfb;" 
d="M641 1362l-135 -164h-197l279 283h135l180 -283h-182zM293 293q0 -145 123 -146q92 0 143 73t82 247l100 573h193l-182 -1040h-140l-4 94q-51 -63 -106 -89t-142 -25q-126 0 -196 64t-70 183q0 78 25 217l104 596h195l-107 -604q-18 -94 -18 -143z" />
    <glyph glyph-name="udieresis" unicode="&#xfc;" 
d="M698 1202l41 228h172l-39 -228h-174zM350 1202l39 228h174l-39 -228h-174zM293 293q0 -145 123 -146q92 0 143 73t82 247l100 573h193l-182 -1040h-140l-4 94q-51 -63 -106 -89t-142 -25q-126 0 -196 64t-70 183q0 78 25 217l104 596h195l-107 -604q-18 -94 -18 -143z
" />
    <glyph glyph-name="yacute" unicode="&#xfd;" horiz-adv-x="880" 
d="M461 1190l190 299h221l-266 -299h-145zM252 2l-129 1038h190l76 -804l342 804h199l-539 -1183q-96 -207 -182 -267t-289 -61l29 162q106 1 148 31t100 153z" />
    <glyph glyph-name="thorn" unicode="&#xfe;" horiz-adv-x="997" 
d="M719 737q0 160 -139 160q-184 0 -232 -287l-33 -180q-12 -61 -12 -119q0 -172 148 -172q88 0 141 69t80 214l37 209q10 61 10 106zM623 1059q291 0 290 -283q0 -72 -16 -174l-37 -209q-39 -221 -128 -317t-253 -96q-76 0 -121 16t-108 63l-92 -520h-193l340 1923h193
l-84 -477q90 74 209 74z" />
    <glyph glyph-name="ydieresis" unicode="&#xff;" horiz-adv-x="880" 
d="M637 1202l41 228h172l-39 -228h-174zM289 1202l39 228h174l-39 -228h-174zM252 2l-129 1038h190l76 -804l342 804h199l-539 -1183q-96 -207 -182 -267t-289 -61l29 162q106 1 148 31t100 153z" />
    <glyph glyph-name="Amacron" unicode="&#x100;" horiz-adv-x="1064" 
d="M479 1675l25 142h502l-25 -142h-502zM731 475l-74 723l-329 -723h403zM745 309h-489l-139 -309h-223l710 1462h187l200 -1462h-215z" />
    <glyph glyph-name="amacron" unicode="&#x101;" horiz-adv-x="942" 
d="M336 1257l24 142h502l-24 -142h-502zM453 475q-125 0 -179 -59q-55 -66 -55 -180q0 -57 35 -81t127 -24t136 41t63 152l26 151h-153zM653 774q0 127 -137 127q-70 0 -114 -33t-80 -110l-158 49q102 252 364 252q317 0 318 -260q0 -53 -19 -172l-110 -627h-154l-6 47
q-82 -68 -235 -67q-297 0 -297 221q0 203 93 309t320 106h193l12 60q10 63 10 98z" />
    <glyph glyph-name="Abreve" unicode="&#x102;" horiz-adv-x="1064" 
d="M610 1843q0 -102 125 -102q74 0 111 33t63 118h127q-26 -164 -94 -228t-213 -65q-250 0 -250 189q0 38 10 104h125q-4 -25 -4 -49zM731 475l-74 723l-329 -723h403zM745 309h-489l-139 -309h-223l710 1462h187l200 -1462h-215z" />
    <glyph glyph-name="abreve" unicode="&#x103;" horiz-adv-x="942" 
d="M481 1423q0 -100 125 -100q74 0 111 32t63 118h127q-20 -127 -55 -179q-72 -115 -250 -114q-252 0 -252 188q0 37 10 105h125q-4 -23 -4 -50zM453 475q-125 0 -179 -59q-55 -66 -55 -180q0 -57 35 -81t127 -24t136 41t63 152l26 151h-153zM653 774q0 127 -137 127
q-70 0 -114 -33t-80 -110l-158 49q102 252 364 252q317 0 318 -260q0 -53 -19 -172l-110 -627h-154l-6 47q-82 -68 -235 -67q-297 0 -297 221q0 203 93 309t320 106h193l12 60q10 63 10 98z" />
    <glyph glyph-name="Aogonek" unicode="&#x104;" horiz-adv-x="1064" 
d="M731 475l-74 723l-329 -723h403zM862 -295q49 0 109 21l2 -105q-78 -31 -168 -31q-197 0 -197 144q0 76 65 150t167 116h-64l-31 309h-489l-139 -309h-223l710 1462h187l200 -1462q-202 -135 -203 -238q0 -57 74 -57z" />
    <glyph glyph-name="aogonek" unicode="&#x105;" horiz-adv-x="942" 
d="M453 475q-125 0 -179 -59q-55 -66 -55 -180q0 -57 35 -81t127 -24t136 41t63 152l26 151h-153zM512 -240q0 -56 76 -55q39 0 106 21l2 -105q-78 -31 -168 -31q-197 0 -196 144q0 76 62 148t169 118l-6 47q-82 -68 -235 -67q-297 0 -297 221q0 203 93 309t320 106h193
l12 60q10 63 10 98q0 127 -137 127q-70 0 -114 -33t-80 -110l-158 49q102 252 364 252q317 0 318 -260q0 -53 -19 -172l-110 -627h-2l-19 -12q-102 -72 -143 -122t-41 -106z" />
    <glyph glyph-name="Cacute" unicode="&#x106;" horiz-adv-x="1101" 
d="M662 1612l190 297h221l-266 -297h-145zM494 -20q-184 0 -280 87q-95 87 -95 257q0 94 24 223l76 428q27 153 60 233t92 142q127 129 344 129q178 0 275 -80t97 -230q0 -35 -8 -92l-188 -6q2 23 2 51q0 190 -182 191q-125 0 -193 -87t-104 -294l-72 -404
q-20 -123 -20 -182q0 -201 186 -201q219 0 278 256l191 -10q-33 -174 -115 -264q-129 -147 -368 -147z" />
    <glyph glyph-name="cacute" unicode="&#x107;" horiz-adv-x="870" 
d="M496 1190l190 299h221l-266 -299h-145zM412 -20q-158 0 -241 78t-83 227q0 70 18 180l29 166q37 215 117 311q100 119 274 119q174 -1 248 -63t82 -203l-172 -39q-6 78 -38 112t-110 35q-155 0 -210 -289l-35 -198q-12 -80 -12 -119q0 -158 145 -158q131 1 186 144
l164 -35q-68 -268 -362 -268z" />
    <glyph glyph-name="Ccircumflex" unicode="&#x108;" horiz-adv-x="1101" 
d="M791 1782l-136 -164h-196l278 283h135l181 -283h-183zM494 -20q-184 0 -280 87q-95 87 -95 257q0 94 24 223l76 428q27 153 60 233t92 142q127 129 344 129q178 0 275 -80t97 -230q0 -35 -8 -92l-188 -6q2 23 2 51q0 190 -182 191q-125 0 -193 -87t-104 -294l-72 -404
q-20 -123 -20 -182q0 -201 186 -201q219 0 278 256l191 -10q-33 -174 -115 -264q-129 -147 -368 -147z" />
    <glyph glyph-name="ccircumflex" unicode="&#x109;" horiz-adv-x="870" 
d="M627 1362l-135 -164h-197l278 283h136l180 -283h-182zM412 -20q-158 0 -241 78t-83 227q0 70 18 180l29 166q37 215 117 311q100 119 274 119q174 -1 248 -63t82 -203l-172 -39q-6 78 -38 112t-110 35q-155 0 -210 -289l-35 -198q-12 -80 -12 -119q0 -158 145 -158
q131 1 186 144l164 -35q-68 -268 -362 -268z" />
    <glyph glyph-name="Cdotaccent" unicode="&#x10a;" horiz-adv-x="1101" 
d="M664 1622l41 227h186l-41 -227h-186zM494 -20q-184 0 -280 87q-95 87 -95 257q0 94 24 223l76 428q27 153 60 233t92 142q127 129 344 129q178 0 275 -80t97 -230q0 -35 -8 -92l-188 -6q2 23 2 51q0 190 -182 191q-125 0 -193 -87t-104 -294l-72 -404q-20 -123 -20 -182
q0 -201 186 -201q219 0 278 256l191 -10q-33 -174 -115 -264q-129 -147 -368 -147z" />
    <glyph glyph-name="cdotaccent" unicode="&#x10b;" horiz-adv-x="870" 
d="M492 1202l40 228h187l-41 -228h-186zM412 -20q-158 0 -241 78t-83 227q0 70 18 180l29 166q37 215 117 311q100 119 274 119q174 -1 248 -63t82 -203l-172 -39q-6 78 -38 112t-110 35q-155 0 -210 -289l-35 -198q-12 -80 -12 -119q0 -158 145 -158q131 1 186 144l164 -35
q-68 -268 -362 -268z" />
    <glyph glyph-name="Ccaron" unicode="&#x10c;" horiz-adv-x="1101" 
d="M774 1733l135 163h197l-279 -284h-135l-180 284h182zM494 -20q-184 0 -280 87q-95 87 -95 257q0 94 24 223l76 428q27 153 60 233t92 142q127 129 344 129q178 0 275 -80t97 -230q0 -35 -8 -92l-188 -6q2 23 2 51q0 190 -182 191q-125 0 -193 -87t-104 -294l-72 -404
q-20 -123 -20 -182q0 -201 186 -201q219 0 278 256l191 -10q-33 -174 -115 -264q-129 -147 -368 -147z" />
    <glyph glyph-name="ccaron" unicode="&#x10d;" horiz-adv-x="870" 
d="M608 1315l135 162h197l-278 -283h-136l-180 283h182zM412 -20q-158 0 -241 78t-83 227q0 70 18 180l29 166q37 215 117 311q100 119 274 119q174 -1 248 -63t82 -203l-172 -39q-6 78 -38 112t-110 35q-155 0 -210 -289l-35 -198q-12 -80 -12 -119q0 -158 145 -158
q131 1 186 144l164 -35q-68 -268 -362 -268z" />
    <glyph glyph-name="Dcaron" unicode="&#x10e;" horiz-adv-x="1181" 
d="M739 1733l135 163h197l-278 -284h-136l-180 284h182zM305 166h184q156 -2 236 78t115 276l75 424q16 94 17 158q0 195 -242 194h-184zM707 1462q213 0 309 -71q121 -92 121 -271q0 -78 -21 -182l-84 -475q-68 -471 -526 -463h-432l258 1462h375z" />
    <glyph glyph-name="dcaron" unicode="&#x10f;" horiz-adv-x="1171" 
d="M1059 985l139 498h186l-190 -498h-135zM281 303q0 -162 139 -162q180 0 231 289l33 180q12 80 12 119q0 170 -149 170q-170 0 -217 -268l-37 -201q-12 -74 -12 -127zM385 -20q-299 0 -299 286q0 84 18 189l37 209q39 211 126 303t251 92q82 1 129 -17t101 -65l86 485h192
l-258 -1462h-150l3 78q-4 -2 -13 -10q-90 -88 -223 -88z" />
    <glyph glyph-name="Dcroat" unicode="&#x110;" horiz-adv-x="1181" 
d="M391 657l-86 -491h184q156 -4 236 77t115 275l75 426q16 102 17 158q0 195 -242 194h-184l-84 -475h246l-29 -164h-248zM707 1462q213 0 309 -71q121 -92 121 -269q0 -66 -21 -184l-84 -475q-70 -471 -528 -463h-430l114 657h-135l29 164h137l113 641h375z" />
    <glyph glyph-name="dcroat" unicode="&#x111;" horiz-adv-x="999" 
d="M281 303q0 -162 139 -162q180 0 231 289l33 180q12 80 12 119q0 170 -149 170q-170 0 -217 -268l-37 -201q-12 -74 -12 -127zM385 -20q-299 0 -299 286q0 84 18 189l37 209q39 211 126 303t251 92q82 1 129 -17t101 -65l34 190h-256l23 138h256l29 157h192l-27 -157h134
l-25 -138h-133l-207 -1167h-150l3 78q-4 -2 -13 -10q-90 -88 -223 -88z" />
    <glyph glyph-name="Emacron" unicode="&#x112;" horiz-adv-x="1013" 
d="M485 1675l25 142h502l-25 -142h-502zM76 0l258 1462h751l-28 -168h-551l-84 -471h469l-31 -168h-467l-86 -487h555l-28 -168h-758z" />
    <glyph glyph-name="emacron" unicode="&#x113;" horiz-adv-x="968" 
d="M362 1255l25 142h502l-25 -142h-502zM326 621h372q14 88 15 131q0 158 -154 157q-182 0 -225 -250zM279 299q0 -164 161 -164q76 0 124 35t81 113l160 -37q-53 -142 -143 -204t-248 -62q-326 0 -326 303q0 90 18 190l27 150q39 217 123 315q102 121 303 121
q334 0 334 -301q0 -98 -35 -281h-557l-12 -74q-10 -66 -10 -104z" />
    <glyph glyph-name="Ebreve" unicode="&#x114;" horiz-adv-x="1013" 
d="M621 1843q0 -102 124 -102q74 0 111 33t64 118h127q-27 -164 -95 -228t-213 -65q-250 0 -250 189q1 38 11 104h125q-4 -25 -4 -49zM76 0l258 1462h751l-28 -168h-551l-84 -471h469l-31 -168h-467l-86 -487h555l-28 -168h-758z" />
    <glyph glyph-name="ebreve" unicode="&#x115;" horiz-adv-x="968" 
d="M492 1423q0 -100 124 -100q74 0 111 32t64 118h127q-20 -127 -56 -179q-72 -115 -250 -114q-252 0 -252 188q1 37 11 105h125q-4 -23 -4 -50zM326 621h372q14 88 15 131q0 158 -154 157q-182 0 -225 -250zM279 299q0 -164 161 -164q76 0 124 35t81 113l160 -37
q-53 -142 -143 -204t-248 -62q-326 0 -326 303q0 90 18 190l27 150q39 217 123 315q102 121 303 121q334 0 334 -301q0 -98 -35 -281h-557l-12 -74q-10 -66 -10 -104z" />
    <glyph glyph-name="Edotaccent" unicode="&#x116;" horiz-adv-x="1013" 
d="M639 1622l41 227h186l-41 -227h-186zM76 0l258 1462h751l-28 -168h-551l-84 -471h469l-31 -168h-467l-86 -487h555l-28 -168h-758z" />
    <glyph glyph-name="edotaccent" unicode="&#x117;" horiz-adv-x="968" 
d="M512 1202l41 228h186l-41 -228h-186zM326 621h372q14 88 15 131q0 158 -154 157q-182 0 -225 -250zM279 299q0 -164 161 -164q76 0 124 35t81 113l160 -37q-53 -142 -143 -204t-248 -62q-326 0 -326 303q0 90 18 190l27 150q39 217 123 315q102 121 303 121
q334 0 334 -301q0 -98 -35 -281h-557l-12 -74q-10 -66 -10 -104z" />
    <glyph glyph-name="Eogonek" unicode="&#x118;" horiz-adv-x="1013" 
d="M631 -240q0 -56 76 -55q47 0 106 21l2 -105q-78 -31 -168 -31q-197 0 -196 144q0 150 229 266h-604l258 1462h751l-28 -168h-551l-84 -471h469l-31 -168h-467l-86 -487h555l-28 -168l-19 -12q-102 -72 -143 -122t-41 -106z" />
    <glyph glyph-name="eogonek" unicode="&#x119;" horiz-adv-x="968" 
d="M326 621h372q14 88 15 131q0 158 -154 157q-182 0 -225 -250zM438 -238q0 -57 76 -57q47 0 107 21l4 -105q-78 -31 -170 -31q-197 0 -197 146q0 131 152 244q-166 4 -244 78t-78 225q0 86 18 190l27 150q39 217 123 315q102 121 303 121q334 0 334 -301q0 -98 -35 -281
h-557l-12 -74q-10 -66 -10 -104q0 -164 161 -164q76 0 124 35t81 113l160 -37q-57 -158 -166 -219l-6 -4l-15 -13q-180 -137 -180 -248z" />
    <glyph glyph-name="Ecaron" unicode="&#x11a;" horiz-adv-x="1013" 
d="M748 1733l135 163h196l-278 -284h-135l-181 284h183zM76 0l258 1462h751l-28 -168h-551l-84 -471h469l-31 -168h-467l-86 -487h555l-28 -168h-758z" />
    <glyph glyph-name="ecaron" unicode="&#x11b;" horiz-adv-x="968" 
d="M621 1315l135 162h196l-278 -283h-135l-181 283h183zM326 621h372q14 88 15 131q0 158 -154 157q-182 0 -225 -250zM279 299q0 -164 161 -164q76 0 124 35t81 113l160 -37q-53 -142 -143 -204t-248 -62q-326 0 -326 303q0 90 18 190l27 150q39 217 123 315
q102 121 303 121q334 0 334 -301q0 -98 -35 -281h-557l-12 -74q-10 -66 -10 -104z" />
    <glyph glyph-name="Gcircumflex" unicode="&#x11c;" horiz-adv-x="1157" 
d="M799 1782l-135 -164h-197l278 283h136l180 -283h-182zM522 -20q-199 0 -300 89t-101 261q0 86 24 217l74 428q29 149 63 231t95 144q129 129 333 129t302 -81t98 -233q0 -37 -8 -88l-189 -8q2 23 2 47q0 197 -190 197q-131 0 -202 -87t-107 -294l-72 -404
q-20 -113 -20 -176q0 -207 204 -207q127 0 202 80t104 250l26 146h-225l29 157h423l-51 -289q-24 -145 -54 -221t-89 -141q-133 -147 -371 -147z" />
    <glyph glyph-name="gcircumflex" unicode="&#x11d;" horiz-adv-x="999" 
d="M655 1362l-135 -164h-196l278 283h135l181 -283h-183zM281 305q0 -164 139 -164q180 0 231 289l33 180q10 61 10 119q0 170 -147 170q-88 -1 -141 -65t-78 -203l-37 -207q-10 -61 -10 -119zM86 266q0 92 18 191l37 207q37 211 123 303t252 92t250 -96l37 77h149
l-188 -1067q-41 -233 -153 -343t-310 -109q-145 0 -214 56t-77 187l170 39q10 -73 41 -101t117 -28q181 0 229 281l19 100q-84 -76 -215 -75q-285 0 -285 286z" />
    <glyph glyph-name="Gbreve" unicode="&#x11e;" horiz-adv-x="1157" 
d="M651 1843q0 -102 125 -102q74 0 111 33t63 118h127q-27 -164 -95 -228t-212 -65q-250 0 -250 189q0 38 10 104h125q-4 -25 -4 -49zM522 -20q-199 0 -300 89t-101 261q0 86 24 217l74 428q29 149 63 231t95 144q129 129 333 129t302 -81t98 -233q0 -37 -8 -88l-189 -8
q2 23 2 47q0 197 -190 197q-131 0 -202 -87t-107 -294l-72 -404q-20 -113 -20 -176q0 -207 204 -207q127 0 202 80t104 250l26 146h-225l29 157h423l-51 -289q-24 -145 -54 -221t-89 -141q-133 -147 -371 -147z" />
    <glyph glyph-name="gbreve" unicode="&#x11f;" horiz-adv-x="999" 
d="M526 1423q0 -100 125 -100q74 0 111 32t63 118h127q-20 -127 -55 -179q-72 -115 -250 -114q-252 0 -252 188q1 37 11 105h124q-4 -23 -4 -50zM281 305q0 -164 139 -164q180 0 231 289l33 180q10 61 10 119q0 170 -147 170q-88 -1 -141 -65t-78 -203l-37 -207
q-10 -61 -10 -119zM86 266q0 92 18 191l37 207q37 211 123 303t252 92t250 -96l37 77h149l-188 -1067q-41 -233 -153 -343t-310 -109q-145 0 -214 56t-77 187l170 39q10 -73 41 -101t117 -28q181 0 229 281l19 100q-84 -76 -215 -75q-285 0 -285 286z" />
    <glyph glyph-name="Gdotaccent" unicode="&#x120;" horiz-adv-x="1157" 
d="M672 1622l41 227h186l-41 -227h-186zM522 -20q-199 0 -300 89t-101 261q0 86 24 217l74 428q29 149 63 231t95 144q129 129 333 129t302 -81t98 -233q0 -37 -8 -88l-189 -8q2 23 2 47q0 197 -190 197q-131 0 -202 -87t-107 -294l-72 -404q-20 -113 -20 -176
q0 -207 204 -207q127 0 202 80t104 250l26 146h-225l29 157h423l-51 -289q-24 -145 -54 -221t-89 -141q-133 -147 -371 -147z" />
    <glyph glyph-name="gdotaccent" unicode="&#x121;" horiz-adv-x="999" 
d="M545 1202l41 228h186l-41 -228h-186zM281 305q0 -164 139 -164q180 0 231 289l33 180q10 61 10 119q0 170 -147 170q-88 -1 -141 -65t-78 -203l-37 -207q-10 -61 -10 -119zM86 266q0 92 18 191l37 207q37 211 123 303t252 92t250 -96l37 77h149l-188 -1067
q-41 -233 -153 -343t-310 -109q-145 0 -214 56t-77 187l170 39q10 -73 41 -101t117 -28q181 0 229 281l19 100q-84 -76 -215 -75q-285 0 -285 286z" />
    <glyph glyph-name="Gcommaaccent" unicode="&#x122;" horiz-adv-x="1157" 
d="M254 -463l145 324h189l-203 -324h-131zM522 -20q-199 0 -300 89t-101 261q0 86 24 217l74 428q29 149 63 231t95 144q129 129 333 129t302 -81t98 -233q0 -37 -8 -88l-189 -8q2 23 2 47q0 197 -190 197q-131 0 -202 -87t-107 -294l-72 -404q-20 -113 -20 -176
q0 -207 204 -207q127 0 202 80t104 250l26 146h-225l29 157h423l-51 -289q-24 -145 -54 -221t-89 -141q-133 -147 -371 -147z" />
    <glyph glyph-name="gcommaaccent" unicode="&#x123;" horiz-adv-x="999" 
d="M516 1190l266 299h144l-191 -299h-219zM281 305q0 -164 139 -164q180 0 231 289l33 180q10 61 10 119q0 170 -147 170q-88 -1 -141 -65t-78 -203l-37 -207q-10 -61 -10 -119zM86 266q0 92 18 191l37 207q37 211 123 303t252 92t250 -96l37 77h149l-188 -1067
q-41 -233 -153 -343t-310 -109q-145 0 -214 56t-77 187l170 39q10 -73 41 -101t117 -28q181 0 229 281l19 100q-84 -76 -215 -75q-285 0 -285 286z" />
    <glyph glyph-name="Hcircumflex" unicode="&#x124;" horiz-adv-x="1191" 
d="M823 1782l-135 -164h-196l278 283h135l180 -283h-182zM76 0l258 1462h203l-113 -639h453l112 639h203l-258 -1462h-203l117 655h-455l-114 -655h-203z" />
    <glyph glyph-name="hcircumflex" unicode="&#x125;" horiz-adv-x="1003" 
d="M508 1782l-135 -164h-197l279 283h135l180 -283h-182zM47 0l258 1462h193l-84 -475q55 41 101 56t118 16q131 0 203 -66t71 -184q0 -84 -22 -203l-107 -606h-192l108 616q14 84 15 129q0 145 -134 146q-96 0 -150 -72t-83 -237l-102 -582h-193z" />
    <glyph glyph-name="Hbar" unicode="&#x126;" horiz-adv-x="1191" 
d="M424 823h453l34 193h-454zM76 0l178 1016h-123l27 147h123l53 299h203l-54 -299h453l53 299h203l-53 -299h125l-27 -147h-123l-180 -1016h-203l117 655h-455l-114 -655h-203z" />
    <glyph glyph-name="hbar" unicode="&#x127;" horiz-adv-x="1003" 
d="M637 1059q127 0 199 -66t71 -186q0 -76 -22 -201l-107 -606h-192l108 616q14 84 15 127q0 147 -134 148q-96 0 -150 -72t-83 -237l-102 -582h-193l205 1167h-133l22 138h135l29 157h193l-27 -157h254l-23 -138h-256l-32 -180q96 72 223 72z" />
    <glyph glyph-name="Itilde" unicode="&#x128;" horiz-adv-x="534" 
d="M386 1886q75 0 132 -63q61 -63 86 -63t42 24q17 25 40 88h119q-47 -150 -90 -201t-125 -51t-134 64t-79 63q-51 0 -90 -113h-119q49 144 96 198t122 54zM76 0l258 1462h203l-258 -1462h-203z" />
    <glyph glyph-name="itilde" unicode="&#x129;" horiz-adv-x="475" 
d="M283 1466q76 0 132 -64t83 -65q27 0 44 25t40 90h118q-45 -150 -89 -202t-124 -52t-139 68q-49 61 -76 61q-51 0 -90 -113h-119q49 144 97 198t123 54zM49 0l182 1040h195l-184 -1040h-193z" />
    <glyph glyph-name="Imacron" unicode="&#x12a;" horiz-adv-x="534" 
d="M223 1675l25 142h502l-25 -142h-502zM76 0l258 1462h203l-258 -1462h-203z" />
    <glyph glyph-name="imacron" unicode="&#x12b;" horiz-adv-x="475" 
d="M117 1257l24 142h502l-25 -142h-501zM49 0l182 1040h195l-184 -1040h-193z" />
    <glyph glyph-name="Ibreve" unicode="&#x12c;" horiz-adv-x="534" 
d="M358 1843q0 -102 125 -102q74 0 111 33t63 118h127q-26 -164 -94 -228t-213 -65q-250 0 -250 189q1 38 11 104h124q-4 -25 -4 -49zM76 0l258 1462h203l-258 -1462h-203z" />
    <glyph glyph-name="ibreve" unicode="&#x12d;" horiz-adv-x="475" 
d="M252 1423q0 -100 125 -100q75 0 111 32t63 118h127q-20 -127 -55 -179q-72 -115 -250 -114q-252 0 -252 188q0 37 10 105h125q-4 -23 -4 -50zM49 0l182 1040h195l-184 -1040h-193z" />
    <glyph glyph-name="Iogonek" unicode="&#x12e;" horiz-adv-x="534" 
d="M82 -236q0 -59 72 -59q45 0 104 21l2 -105q-76 -31 -166 -31q-193 0 -192 148q0 74 60 144t165 118h-51l258 1462h203l-258 -1462q-5 -2 -13 -8t-12 -8q-172 -117 -172 -220z" />
    <glyph glyph-name="iogonek" unicode="&#x12f;" horiz-adv-x="475" 
d="M268 1237l41 233h193l-41 -233h-193zM47 -236q0 -59 72 -59q45 0 104 21l2 -105q-76 -31 -166 -31q-193 0 -192 148q0 74 61 144t164 118h-43l184 1040h193l-182 -1040l-25 -16q-172 -121 -172 -220z" />
    <glyph glyph-name="Idotaccent" unicode="&#x130;" horiz-adv-x="534" 
d="M369 1622l41 227h186l-41 -227h-186zM76 0l258 1462h203l-258 -1462h-203z" />
    <glyph glyph-name="dotlessi" unicode="&#x131;" horiz-adv-x="475" 
d="M49 0l182 1040h195l-184 -1040h-193z" />
    <glyph glyph-name="IJ" unicode="&#x132;" horiz-adv-x="1071" 
d="M379 -332q123 0 180 127q27 59 59 242l250 1425h203l-254 -1448q-29 -160 -51 -232q-83 -279 -377 -280q-104 0 -203 37l101 152q47 -23 92 -23zM76 0l258 1462h203l-258 -1462h-203z" />
    <glyph glyph-name="ij" unicode="&#x133;" horiz-adv-x="956" 
d="M711 1040h194l-188 -1065q-39 -266 -138 -358t-341 -88l28 162q115 -7 174 59t84 223zM745 1237l41 233h195l-41 -233h-195zM49 0l182 1040h195l-184 -1040h-193zM268 1237l41 233h193l-41 -233h-193z" />
    <glyph glyph-name="Jcircumflex" unicode="&#x134;" horiz-adv-x="817" 
d="M735 1782l-135 -164h-197l279 283h135l180 -283h-182zM228 147q112 0 171 127q27 57 58 240l168 948h202l-172 -973q-31 -182 -47 -239t-53 -113q-100 -156 -319 -155q-111 0 -189 32t-151 109l139 133q81 -109 193 -109z" />
    <glyph glyph-name="jcircumflex" unicode="&#x135;" horiz-adv-x="485" 
d="M389 1362l-135 -164h-197l279 283h135l180 -283h-182zM242 1040h192l-188 -1065q-39 -266 -138 -358t-341 -88l28 162q115 -7 174 59t84 223z" />
    <glyph glyph-name="Kcommaaccent" unicode="&#x136;" horiz-adv-x="1079" 
d="M262 -463l146 324h188l-203 -324h-131zM78 0l258 1462h201l-123 -700l585 700h230l-518 -600l290 -862h-223l-223 717l-188 -225l-88 -492h-201z" />
    <glyph glyph-name="kcommaaccent" unicode="&#x137;" horiz-adv-x="931" 
d="M168 -463l145 324h189l-203 -324h-131zM51 0l258 1462h193l-166 -946l436 524h215l-385 -438l223 -602h-207l-159 467l-166 -195l-49 -272h-193z" />
    <glyph glyph-name="kgreenlandic" unicode="&#x138;" horiz-adv-x="931" 
d="M51 0l182 1040h195l-92 -524l436 524h215l-385 -438l223 -602h-207l-159 467l-166 -195l-49 -272h-193z" />
    <glyph glyph-name="Lacute" unicode="&#x139;" horiz-adv-x="950" 
d="M403 1612l191 297h221l-266 -297h-146zM76 0l258 1462h203l-230 -1294h559l-28 -168h-762z" />
    <glyph glyph-name="lacute" unicode="&#x13a;" horiz-adv-x="536" 
d="M346 1612l191 299h221l-266 -299h-146zM293 253q0 -95 133 -93h31l-29 -160h-37q-163 0 -229 46t-66 144t23 211l186 1061h193l-195 -1102q-10 -61 -10 -107z" />
    <glyph glyph-name="Lcommaaccent" unicode="&#x13b;" horiz-adv-x="950" 
d="M213 -463l145 324h189l-203 -324h-131zM76 0l258 1462h203l-230 -1294h559l-28 -168h-762z" />
    <glyph glyph-name="lcommaaccent" unicode="&#x13c;" horiz-adv-x="536" 
d="M-39 -463l145 324h189l-203 -324h-131zM291 250q0 -92 135 -90h29l-29 -160h-37q-163 0 -229 46t-66 163q0 59 23 192l186 1061h195l-195 -1102q-12 -66 -12 -110z" />
    <glyph glyph-name="Lcaron" unicode="&#x13d;" horiz-adv-x="950" 
d="M625 985l139 498h186l-190 -498h-135zM76 0l258 1462h203l-230 -1294h559l-28 -168h-762z" />
    <glyph glyph-name="lcaron" unicode="&#x13e;" horiz-adv-x="659" 
d="M549 985l139 498h186l-190 -498h-135zM293 253q0 -95 133 -93h31l-29 -160h-37q-163 0 -229 46t-66 144t23 211l186 1061h193l-195 -1102q-10 -61 -10 -107z" />
    <glyph glyph-name="Ldot" unicode="&#x13f;" horiz-adv-x="950" 
d="M659 629l39 221h172l-39 -221h-172zM76 0l258 1462h203l-230 -1294h559l-28 -168h-762z" />
    <glyph glyph-name="ldot" unicode="&#x140;" horiz-adv-x="630" 
d="M483 629l39 221h172l-39 -221h-172zM293 253q0 -95 133 -93h31l-29 -160h-37q-163 0 -229 46t-66 144t23 211l186 1061h193l-195 -1102q-10 -61 -10 -107z" />
    <glyph glyph-name="Lslash" unicode="&#x141;" horiz-adv-x="950" 
d="M76 0l74 420l-142 -94l33 186l141 94l152 856h203l-127 -721l374 250l-32 -186l-375 -250l-70 -387h559l-28 -168h-762z" />
    <glyph glyph-name="lslash" unicode="&#x142;" horiz-adv-x="569" 
d="M408 0q-162 0 -228 46t-65 159q0 63 12 133l37 215l-178 -117l32 193l179 116l127 717h192l-104 -590l225 150l-33 -193l-225 -147l-57 -322q-10 -68 -10 -110q-1 -91 132 -90h31l-29 -160h-38z" />
    <glyph glyph-name="Nacute" unicode="&#x143;" horiz-adv-x="1255" 
d="M731 1612l191 297h221l-266 -297h-146zM76 0l258 1462h198l338 -1083l193 1083h194l-258 -1462h-194l-342 1087l-193 -1087h-194z" />
    <glyph glyph-name="nacute" unicode="&#x144;" horiz-adv-x="1003" 
d="M518 1190l191 299h221l-266 -299h-146zM377 1040v-86q97 104 243 104t217 -65q71 -66 70 -184q0 -84 -22 -203l-107 -606h-192l106 612q16 82 17 133q0 147 -134 148q-96 0 -149 -73t-84 -247l-102 -573h-193l182 1040h148z" />
    <glyph glyph-name="Ncommaaccent" unicode="&#x145;" horiz-adv-x="1255" 
d="M315 -463l146 324h188l-203 -324h-131zM76 0l258 1462h198l338 -1083l193 1083h194l-258 -1462h-194l-342 1087l-193 -1087h-194z" />
    <glyph glyph-name="ncommaaccent" unicode="&#x146;" horiz-adv-x="1003" 
d="M186 -463l146 324h188l-203 -324h-131zM377 1040v-86q97 104 243 104t217 -65q71 -66 70 -184q0 -84 -22 -203l-107 -606h-192l106 612q16 82 17 133q0 147 -134 148q-96 0 -149 -73t-84 -247l-102 -573h-193l182 1040h148z" />
    <glyph glyph-name="Ncaron" unicode="&#x147;" horiz-adv-x="1255" 
d="M842 1733l135 163h197l-279 -284h-135l-180 284h182zM76 0l258 1462h198l338 -1083l193 1083h194l-258 -1462h-194l-342 1087l-193 -1087h-194z" />
    <glyph glyph-name="ncaron" unicode="&#x148;" horiz-adv-x="1003" 
d="M627 1315l135 162h196l-278 -283h-135l-180 283h182zM377 1040v-86q97 104 243 104t217 -65q71 -66 70 -184q0 -84 -22 -203l-107 -606h-192l106 612q16 82 17 133q0 147 -134 148q-96 0 -149 -73t-84 -247l-102 -573h-193l182 1040h148z" />
    <glyph glyph-name="napostrophe" unicode="&#x149;" horiz-adv-x="1126" 
d="M63 961l148 501h207l-187 -501h-168zM479 1040v-86q55 57 113 81t143 24q133 0 204 -65t71 -187q0 -70 -23 -201l-106 -606h-195l109 612q16 86 16 133q0 147 -133 148q-96 0 -150 -73t-86 -247l-100 -573h-192l182 1040h147z" />
    <glyph glyph-name="Eng" unicode="&#x14a;" horiz-adv-x="1255" 
d="M76 0l258 1462h198l340 -1079l191 1079h194l-262 -1482q-41 -260 -142 -356t-333 -95l27 156q111 -5 171 59t83 213l10 53l-348 1077l-193 -1087h-194z" />
    <glyph glyph-name="eng" unicode="&#x14b;" horiz-adv-x="1003" 
d="M377 1040v-86q97 104 243 104t217 -65q71 -66 70 -184q0 -84 -22 -203l-111 -624q-39 -262 -141 -358t-340 -95l29 162q115 -7 174 59t84 223l112 639q16 82 17 133q0 147 -134 148q-96 0 -149 -73t-84 -247l-102 -573h-193l182 1040h148z" />
    <glyph glyph-name="Omacron" unicode="&#x14c;" horiz-adv-x="1179" 
d="M532 1675l25 142h502l-25 -142h-502zM711 1317q-117 0 -188 -83t-105 -284l-78 -438q-18 -104 -18 -183t54 -131t170 -52t188 83q71 84 106 283l75 438q20 115 21 166q0 201 -225 201zM717 1483q420 0 422 -350q0 -76 -23 -195l-82 -475q-26 -139 -58 -215t-91 -137
q-129 -131 -357 -131q-410 0 -409 348q0 73 20 196l84 475q25 139 57 214t93 139q129 131 344 131z" />
    <glyph glyph-name="omacron" unicode="&#x14d;" horiz-adv-x="987" 
d="M369 1257l24 142h502l-25 -142h-501zM430 137q98 1 150 63t79 212l39 217q12 74 13 121q0 152 -154 151q-98 0 -151 -63t-78 -209l-39 -217q-12 -68 -13 -121q0 -154 154 -154zM561 1059q342 0 342 -293q0 -61 -18 -170l-37 -213q-39 -217 -136 -310t-286 -93
q-342 0 -342 294q0 72 18 170l37 213q39 217 136 309t286 93z" />
    <glyph glyph-name="Obreve" unicode="&#x14e;" horiz-adv-x="1179" 
d="M682 1843q0 -102 125 -102q74 0 111 33t63 118h127q-26 -164 -94 -228t-213 -65q-250 0 -250 189q0 38 10 104h125q-4 -25 -4 -49zM711 1317q-117 0 -188 -83t-105 -284l-78 -438q-18 -104 -18 -183t54 -131t170 -52t188 83q71 84 106 283l75 438q20 115 21 166
q0 201 -225 201zM717 1483q420 0 422 -350q0 -76 -23 -195l-82 -475q-26 -139 -58 -215t-91 -137q-129 -131 -357 -131q-410 0 -409 348q0 73 20 196l84 475q25 139 57 214t93 139q129 131 344 131z" />
    <glyph glyph-name="obreve" unicode="&#x14f;" horiz-adv-x="987" 
d="M510 1423q0 -100 125 -100q75 0 111 32t63 118h127q-20 -127 -55 -179q-72 -115 -250 -114q-252 0 -252 188q0 37 10 105h125q-4 -23 -4 -50zM430 137q98 1 150 63t79 212l39 217q12 74 13 121q0 152 -154 151q-98 0 -151 -63t-78 -209l-39 -217q-12 -68 -13 -121
q0 -154 154 -154zM561 1059q342 0 342 -293q0 -61 -18 -170l-37 -213q-39 -217 -136 -310t-286 -93q-342 0 -342 294q0 72 18 170l37 213q39 217 136 309t286 93z" />
    <glyph glyph-name="Ohungarumlaut" unicode="&#x150;" horiz-adv-x="1179" 
d="M834 1612l161 297h199l-225 -297h-135zM563 1612l162 297h199l-226 -297h-135zM711 1317q-117 0 -188 -83t-105 -284l-78 -438q-18 -104 -18 -183t54 -131t170 -52t188 83q71 84 106 283l75 438q20 115 21 166q0 201 -225 201zM717 1483q420 0 422 -350q0 -76 -23 -195
l-82 -475q-26 -139 -58 -215t-91 -137q-129 -131 -357 -131q-410 0 -409 348q0 73 20 196l84 475q25 139 57 214t93 139q129 131 344 131z" />
    <glyph glyph-name="ohungarumlaut" unicode="&#x151;" horiz-adv-x="987" 
d="M664 1190l161 299h199l-225 -299h-135zM393 1190l162 299h199l-226 -299h-135zM430 137q98 1 150 63t79 212l39 217q12 74 13 121q0 152 -154 151q-98 0 -151 -63t-78 -209l-39 -217q-12 -68 -13 -121q0 -154 154 -154zM561 1059q342 0 342 -293q0 -61 -18 -170l-37 -213
q-39 -217 -136 -310t-286 -93q-342 0 -342 294q0 72 18 170l37 213q39 217 136 309t286 93z" />
    <glyph glyph-name="OE" unicode="&#x152;" horiz-adv-x="1687" 
d="M322 333q0 -81 54 -133t170 -52t188 85q73 86 108 277l76 432q20 106 20 166q0 207 -209 207q-133 0 -205 -84t-106 -281l-78 -440q-18 -96 -18 -177zM119 326q0 78 20 196l84 477q25 135 57 214t89 139q125 131 316 131t280 -72l55 -68l22 119h719l-28 -168h-551
l-84 -471h469l-31 -168h-467l-86 -487h555l-29 -168h-725l21 117q-76 -83 -141 -111q-65 -27 -172 -26q-178 0 -276 90q-97 90 -97 256z" />
    <glyph glyph-name="oe" unicode="&#x153;" horiz-adv-x="1536" 
d="M1280 752q0 158 -154 157q-182 0 -225 -250l-8 -38h373q14 88 14 131zM559 901q-98 -1 -151 -65t-80 -211l-39 -211q-10 -61 -10 -117q0 -158 151 -158q96 0 151 65q54 65 81 210l36 211q12 61 13 118q0 158 -152 158zM553 1059q117 0 185 -33t110 -108q57 76 123 108
t166 33q324 0 323 -299q0 -94 -35 -283h-559l-12 -76q-10 -53 -10 -100q0 -166 164 -166q147 0 202 148l162 -37q-51 -138 -139 -202q-87 -64 -217 -64t-196 34t-107 111q-59 -80 -126 -113t-173 -32q-330 0 -330 290q0 63 16 172l39 211q39 219 134 313t280 93z" />
    <glyph glyph-name="Racute" unicode="&#x154;" horiz-adv-x="1130" 
d="M631 1612l190 297h221l-266 -297h-145zM621 784q150 0 213 84q78 98 77 254q0 94 -47 134t-155 40h-203l-90 -512h205zM725 1462q213 0 299 -76q96 -80 96 -235q0 -113 -34 -223q-78 -252 -295 -285l161 -643h-225l-137 625h-199l-110 -625h-203l258 1462h389z" />
    <glyph glyph-name="racute" unicode="&#x155;" horiz-adv-x="684" 
d="M401 1190l191 299h221l-266 -299h-146zM614 1059q80 0 164 -58l-112 -159q-57 51 -113 51q-82 0 -135 -91t-88 -296l-90 -506h-193l182 1040h150l8 -88q49 59 98 83t129 24z" />
    <glyph glyph-name="Rcommaaccent" unicode="&#x156;" horiz-adv-x="1130" 
d="M254 -463l145 324h189l-203 -324h-131zM621 784q150 0 213 84q78 98 77 254q0 94 -47 134t-155 40h-203l-90 -512h205zM725 1462q213 0 299 -76q96 -80 96 -235q0 -113 -34 -223q-78 -252 -295 -285l161 -643h-225l-137 625h-199l-110 -625h-203l258 1462h389z" />
    <glyph glyph-name="rcommaaccent" unicode="&#x157;" horiz-adv-x="684" 
d="M-111 -463l146 324h188l-203 -324h-131zM615 1059q81 0 163 -58l-112 -159q-57 51 -113 51q-82 0 -135 -91t-88 -296l-90 -506h-193l184 1040h148l8 -88q49 59 98 83t130 24z" />
    <glyph glyph-name="Rcaron" unicode="&#x158;" horiz-adv-x="1130" 
d="M725 1733l135 163h197l-279 -284h-135l-180 284h182zM621 784q150 0 213 84q78 98 77 254q0 94 -47 134t-155 40h-203l-90 -512h205zM725 1462q213 0 299 -76q96 -80 96 -235q0 -113 -34 -223q-78 -252 -295 -285l161 -643h-225l-137 625h-199l-110 -625h-203l258 1462
h389z" />
    <glyph glyph-name="rcaron" unicode="&#x159;" horiz-adv-x="684" 
d="M508 1315l135 162h197l-279 -283h-135l-180 283h182zM614 1059q80 0 164 -58l-112 -159q-57 51 -113 51q-82 0 -135 -91t-88 -296l-90 -506h-193l182 1040h150l8 -88q49 59 98 83t129 24z" />
    <glyph glyph-name="Sacute" unicode="&#x15a;" horiz-adv-x="1019" 
d="M594 1612l190 297h222l-267 -297h-145zM729 448q0 94 -51 134q-26 20 -50 30t-143 50q-293 92 -292 346q1 196 111 334t335 139q180 0 270 -74t101 -231l-183 -50q-14 104 -58 146q-45 42 -145 43q-100 0 -166 -76t-65 -201q0 -82 46 -126t173 -89q180 -61 249 -139
t69 -217q0 -201 -107 -330q-127 -157 -392 -157t-357 135q-46 63 -54 196l185 51q10 -116 63 -166t166 -51q176 0 246 123q49 86 49 180z" />
    <glyph glyph-name="sacute" unicode="&#x15b;" horiz-adv-x="864" 
d="M440 1190l191 299h221l-266 -299h-146zM760 354q0 -374 -430 -374q-220 0 -293 120q-31 50 -39 148l174 37q10 -82 50 -115t136 -33t156 51q59 51 59 142q0 58 -35 78q-34 20 -164 49t-188 85q-57 56 -57 186t88 230q91 100 287 100t266 -106q31 -49 37 -143l-170 -41
q-8 135 -143 135q-80 0 -129 -49q-49 -50 -49 -114t32 -90t144 -50t174 -55q94 -57 94 -191z" />
    <glyph glyph-name="Scircumflex" unicode="&#x15c;" horiz-adv-x="1019" 
d="M725 1782l-135 -164h-197l279 283h135l180 -283h-182zM729 448q0 94 -51 134q-26 20 -50 30t-143 50q-293 92 -292 346q1 196 111 334t335 139q180 0 270 -74t101 -231l-183 -50q-14 104 -58 146q-45 42 -145 43q-100 0 -166 -76t-65 -201q0 -82 46 -126t173 -89
q180 -61 249 -139t69 -217q0 -201 -107 -330q-127 -157 -392 -157t-357 135q-46 63 -54 196l185 51q10 -116 63 -166t166 -51q176 0 246 123q49 86 49 180z" />
    <glyph glyph-name="scircumflex" unicode="&#x15d;" horiz-adv-x="864" 
d="M580 1362l-136 -164h-196l278 283h136l180 -283h-183zM760 354q0 -374 -430 -374q-220 0 -293 120q-31 50 -39 148l174 37q10 -82 50 -115t136 -33t156 51q59 51 59 142q0 58 -35 78q-34 20 -164 49t-188 85q-57 56 -57 186t88 230q91 100 287 100t266 -106
q31 -49 37 -143l-170 -41q-8 135 -143 135q-80 0 -129 -49q-49 -50 -49 -114t32 -90t144 -50t174 -55q94 -57 94 -191z" />
    <glyph glyph-name="Scedilla" unicode="&#x15e;" horiz-adv-x="1019" 
d="M174 -463l145 324h189l-203 -324h-131zM729 448q0 94 -51 134q-26 20 -50 30t-143 50q-293 92 -292 346q1 196 111 334t335 139q180 0 270 -74t101 -231l-183 -50q-14 104 -58 146q-45 42 -145 43q-100 0 -166 -76t-65 -201q0 -82 46 -126t173 -89q180 -61 249 -139
t69 -217q0 -201 -107 -330q-127 -157 -392 -157t-357 135q-46 63 -54 196l185 51q10 -116 63 -166t166 -51q176 0 246 123q49 86 49 180z" />
    <glyph glyph-name="scedilla" unicode="&#x15f;" horiz-adv-x="864" 
d="M106 -463l146 324h188l-202 -324h-132zM760 354q0 -374 -430 -374q-220 0 -293 120q-31 50 -39 148l174 37q10 -82 50 -115t136 -33t156 51q59 51 59 142q0 58 -35 78q-34 20 -164 49t-188 85q-57 56 -57 186t88 230q91 100 287 100t266 -106q31 -49 37 -143l-170 -41
q-8 135 -143 135q-80 0 -129 -49q-49 -50 -49 -114t32 -90t144 -50t174 -55q94 -57 94 -191z" />
    <glyph glyph-name="Scaron" unicode="&#x160;" horiz-adv-x="1019" 
d="M698 1733l136 163h196l-278 -284h-136l-180 284h182zM729 448q0 94 -51 134q-26 20 -50 30t-143 50q-293 92 -292 346q1 196 111 334t335 139q180 0 270 -74t101 -231l-183 -50q-14 104 -58 146q-45 42 -145 43q-100 0 -166 -76t-65 -201q0 -82 46 -126t173 -89
q180 -61 249 -139t69 -217q0 -201 -107 -330q-127 -157 -392 -157t-357 135q-46 63 -54 196l185 51q10 -116 63 -166t166 -51q176 0 246 123q49 86 49 180z" />
    <glyph glyph-name="scaron" unicode="&#x161;" horiz-adv-x="864" 
d="M557 1315l135 162h197l-279 -283h-135l-180 283h182zM760 354q0 -374 -430 -374q-220 0 -293 120q-31 50 -39 148l174 37q10 -82 50 -115t136 -33t156 51q59 51 59 142q0 58 -35 78q-34 20 -164 49t-188 85q-57 56 -57 186t88 230q91 100 287 100t266 -106
q31 -49 37 -143l-170 -41q-8 135 -143 135q-80 0 -129 -49q-49 -50 -49 -114t32 -90t144 -50t174 -55q94 -57 94 -191z" />
    <glyph glyph-name="Tcommaaccent" unicode="&#x162;" horiz-adv-x="940" 
d="M123 -463l145 324h189l-203 -324h-131zM279 0l229 1294h-334l29 168h868l-29 -168h-331l-230 -1294h-202z" />
    <glyph glyph-name="tcommaaccent" unicode="&#x163;" horiz-adv-x="606" 
d="M-2 -463l145 324h189l-203 -324h-131zM442 162h33l-29 -162h-38q-160 0 -224 42q-63 42 -63 128t26 229l84 484h-106l29 157h108l66 318h182l-57 -318h176l-29 -157h-174l-92 -523q-14 -78 -14 -118t26 -60q27 -20 96 -20z" />
    <glyph glyph-name="Tcaron" unicode="&#x164;" horiz-adv-x="940" 
d="M680 1733l135 163h197l-279 -284h-135l-180 284h182zM279 0l229 1294h-334l29 168h868l-29 -168h-331l-230 -1294h-202z" />
    <glyph glyph-name="tcaron" unicode="&#x165;" horiz-adv-x="724" 
d="M641 1147l121 430h184l-170 -430h-135zM408 0q-160 0 -224 42q-63 42 -63 144q0 68 24 213l86 484h-106l27 157h110l66 318h180l-55 -318h174l-27 -157h-176l-92 -523q-12 -80 -12 -118q-1 -80 120 -80h35l-29 -162h-38z" />
    <glyph glyph-name="Tbar" unicode="&#x166;" horiz-adv-x="940" 
d="M279 0l116 657h-227l29 164h227l82 473h-332l29 168h868l-29 -168h-333l-82 -473h225l-29 -164h-225l-117 -657h-202z" />
    <glyph glyph-name="tbar" unicode="&#x167;" horiz-adv-x="608" 
d="M322 240q0 -82 122 -80h33l-26 -160h-39q-162 0 -226 41q-63 41 -63 145q0 61 18 166l39 226h-106l24 137h107l31 168h-109l29 157h106l68 318h182l-57 -318h176l-29 -157h-174l-31 -168h174l-24 -137h-172l-43 -238q-10 -63 -10 -100z" />
    <glyph glyph-name="Utilde" unicode="&#x168;" horiz-adv-x="1204" 
d="M720 1886q75 0 132 -63q61 -63 86 -63t42 24q17 25 40 88h119q-47 -150 -90 -201t-124 -51t-135 64t-79 63q-51 0 -90 -113h-119q49 144 96 198t122 54zM342 326q0 -178 199 -179q154 0 229 121q37 59 66 211l172 983h202l-178 -1018q-24 -140 -50 -204t-77 -119
q-127 -139 -361 -139t-333 110q-72 88 -72 209q0 74 25 215l166 946h202l-172 -983q-18 -109 -18 -153z" />
    <glyph glyph-name="utilde" unicode="&#x169;" 
d="M537 1466q76 0 132 -64t83 -65q27 0 44 25t40 90h118q-45 -150 -89 -202t-124 -52t-139 68q-49 61 -76 61q-51 0 -90 -113h-119q49 144 97 198t123 54zM293 293q0 -145 123 -146q92 0 143 73t82 247l100 573h193l-182 -1040h-140l-4 94q-51 -63 -106 -89t-142 -25
q-126 0 -196 64t-70 183q0 78 25 217l104 596h195l-107 -604q-18 -94 -18 -143z" />
    <glyph glyph-name="Umacron" unicode="&#x16a;" horiz-adv-x="1204" 
d="M549 1675l24 142h502l-24 -142h-502zM342 326q0 -178 199 -179q154 0 229 121q37 59 66 211l172 983h202l-178 -1018q-24 -140 -50 -204t-77 -119q-127 -139 -361 -139t-333 110q-72 88 -72 209q0 74 25 215l166 946h202l-172 -983q-18 -109 -18 -153z" />
    <glyph glyph-name="umacron" unicode="&#x16b;" 
d="M365 1257l24 142h502l-25 -142h-501zM293 293q0 -145 123 -146q92 0 143 73t82 247l100 573h193l-182 -1040h-140l-4 94q-51 -63 -106 -89t-142 -25q-126 0 -196 64t-70 183q0 78 25 217l104 596h195l-107 -604q-18 -94 -18 -143z" />
    <glyph glyph-name="Ubreve" unicode="&#x16c;" horiz-adv-x="1204" 
d="M692 1843q0 -102 125 -102q74 0 111 33t63 118h127q-26 -164 -94 -228t-213 -65q-250 0 -250 189q0 38 10 104h125q-4 -25 -4 -49zM342 326q0 -178 199 -179q154 0 229 121q37 59 66 211l172 983h202l-178 -1018q-24 -140 -50 -204t-77 -119q-127 -139 -361 -139
t-333 110q-72 88 -72 209q0 74 25 215l166 946h202l-172 -983q-18 -109 -18 -153z" />
    <glyph glyph-name="ubreve" unicode="&#x16d;" 
d="M498 1423q0 -100 125 -100q75 0 111 32t63 118h127q-20 -127 -56 -179q-72 -115 -250 -114q-252 0 -251 188q0 37 10 105h125q-4 -23 -4 -50zM293 293q0 -145 123 -146q92 0 143 73t82 247l100 573h193l-182 -1040h-140l-4 94q-51 -63 -106 -89t-142 -25q-126 0 -196 64
t-70 183q0 78 25 217l104 596h195l-107 -604q-18 -94 -18 -143z" />
    <glyph glyph-name="Uring" unicode="&#x16e;" horiz-adv-x="1204" 
d="M850 1925q-55 0 -88 -43t-33 -115q0 -80 82 -79q53 0 86 43t33 112q0 82 -80 82zM604 1788q0 96 70 164t172 69q100 0 154 -50t54 -144t-71 -165q-72 -71 -171 -71t-154 50q-54 51 -54 147zM342 326q0 -178 199 -179q154 0 229 121q37 59 66 211l172 983h202l-178 -1018
q-24 -140 -50 -204t-77 -119q-127 -139 -361 -139t-333 110q-72 88 -72 209q0 74 25 215l166 946h202l-172 -983q-18 -109 -18 -153z" />
    <glyph glyph-name="uring" unicode="&#x16f;" 
d="M662 1505q-52 0 -86 -43t-33 -114q0 -80 82 -80q53 0 86 43t32 112q1 82 -81 82zM660 1602q100 0 154 -50t54 -145q0 -94 -72 -165t-170 -71q-100 1 -154 51t-54 146t70 165q72 69 172 69zM293 293q0 -145 123 -146q92 0 143 73t82 247l100 573h193l-182 -1040h-140
l-4 94q-51 -63 -106 -89t-142 -25q-126 0 -196 64t-70 183q0 78 25 217l104 596h195l-107 -604q-18 -94 -18 -143z" />
    <glyph glyph-name="Uhungarumlaut" unicode="&#x170;" horiz-adv-x="1204" 
d="M846 1612l162 297h198l-225 -297h-135zM575 1612l162 297h199l-225 -297h-136zM342 326q0 -178 199 -179q154 0 229 121q37 59 66 211l172 983h202l-178 -1018q-24 -140 -50 -204t-77 -119q-127 -139 -361 -139t-333 110q-72 88 -72 209q0 74 25 215l166 946h202
l-172 -983q-18 -109 -18 -153z" />
    <glyph glyph-name="uhungarumlaut" unicode="&#x171;" 
d="M659 1190l162 299h199l-225 -299h-136zM389 1190l162 299h199l-226 -299h-135zM293 293q0 -145 123 -146q92 0 143 73t82 247l100 573h193l-182 -1040h-140l-4 94q-51 -63 -106 -89t-142 -25q-126 0 -196 64t-70 183q0 78 25 217l104 596h195l-107 -604q-18 -94 -18 -143
z" />
    <glyph glyph-name="Uogonek" unicode="&#x172;" horiz-adv-x="1204" 
d="M522 -238q0 -58 76 -57q39 0 107 21l2 -105q-78 -31 -168 -31q-197 0 -197 146q0 133 176 246q-180 2 -266 71q-113 88 -113 248q0 74 25 215l166 946h202l-172 -983q-18 -109 -18 -153q0 -178 199 -179q154 0 229 121q37 59 66 211l172 983h202l-178 -1018
q-28 -188 -102 -292t-215 -150q-101 -70 -147 -126t-46 -114z" />
    <glyph glyph-name="uogonek" unicode="&#x173;" 
d="M549 -238q0 -57 74 -57q41 0 108 21l2 -105q-78 -31 -168 -31q-197 0 -196 146q1 76 67 150t176 120l-4 88q-51 -63 -106 -89t-142 -25q-126 0 -196 64t-70 183q0 78 25 217l104 596h195l-107 -604q-18 -94 -18 -143q0 -145 123 -146q92 0 143 73t82 247l100 573h193
l-182 -1040q-6 -6 -27 -16q-176 -119 -176 -222z" />
    <glyph glyph-name="Wcircumflex" unicode="&#x174;" horiz-adv-x="1587" 
d="M1010 1782l-136 -164h-196l278 283h136l180 -283h-182zM414 1462v-1128l465 1128h151l68 -1128l399 1128h205l-559 -1462h-178l-72 1092l-457 -1092h-178l-45 1462h201z" />
    <glyph glyph-name="wcircumflex" unicode="&#x175;" horiz-adv-x="1359" 
d="M825 1362l-135 -164h-196l278 283h135l180 -283h-182zM227 0l-80 1040h193l27 -768l333 768h136l65 -768l295 768h199l-445 -1040h-164l-69 723l-328 -723h-162z" />
    <glyph glyph-name="Ycircumflex" unicode="&#x176;" horiz-adv-x="952" 
d="M702 1782l-135 -164h-196l278 283h135l181 -283h-183zM287 0l92 526l-227 936h208l156 -710l406 710h219l-559 -936l-93 -526h-202z" />
    <glyph glyph-name="ycircumflex" unicode="&#x177;" horiz-adv-x="880" 
d="M584 1362l-135 -164h-197l278 283h136l180 -283h-182zM252 2l-129 1038h190l76 -804l342 804h199l-539 -1183q-96 -207 -182 -267t-289 -61l29 162q106 1 148 31t100 153z" />
    <glyph glyph-name="Ydieresis" unicode="&#x178;" horiz-adv-x="952" 
d="M762 1624l41 225h172l-39 -225h-174zM408 1624l38 225h175l-39 -225h-174zM287 0l92 526l-227 936h208l156 -710l406 710h219l-559 -936l-93 -526h-202z" />
    <glyph glyph-name="Zacute" unicode="&#x179;" horiz-adv-x="954" 
d="M578 1612l190 297h221l-266 -297h-145zM-16 0l22 125l750 1169h-508l31 168h735l-21 -125l-749 -1169h567l-29 -168h-798z" />
    <glyph glyph-name="zacute" unicode="&#x17a;" horiz-adv-x="821" 
d="M444 1190l191 299h221l-266 -299h-146zM-29 0l21 117l551 764h-379l26 159h617l-21 -116l-550 -764h442l-29 -160h-678z" />
    <glyph glyph-name="Zdotaccent" unicode="&#x17b;" horiz-adv-x="954" 
d="M582 1622l41 227h186l-41 -227h-186zM-16 0l22 125l750 1169h-508l31 168h735l-21 -125l-749 -1169h567l-29 -168h-798z" />
    <glyph glyph-name="zdotaccent" unicode="&#x17c;" horiz-adv-x="821" 
d="M442 1202l41 228h187l-41 -228h-187zM-29 0l21 117l551 764h-379l26 159h617l-21 -116l-550 -764h442l-29 -160h-678z" />
    <glyph glyph-name="Zcaron" unicode="&#x17d;" horiz-adv-x="954" 
d="M698 1733l136 163h196l-278 -284h-136l-180 284h182zM-16 0l22 125l750 1169h-508l31 168h735l-21 -125l-749 -1169h567l-29 -168h-798z" />
    <glyph glyph-name="zcaron" unicode="&#x17e;" horiz-adv-x="821" 
d="M549 1315l135 162h197l-279 -283h-135l-180 283h182zM-29 0l21 117l551 764h-379l26 159h617l-21 -116l-550 -764h442l-29 -160h-678z" />
    <glyph glyph-name="Ohorn" unicode="&#x1a0;" horiz-adv-x="1245" 
d="M710 1315q-116 0 -187 -84t-105 -281l-78 -438q-18 -102 -18 -182t54 -132t170 -52t188 83q71 84 106 283l75 438q20 111 21 166q0 199 -226 199zM530 -20q-412 0 -411 350q0 86 20 194l84 475q25 137 58 214q116 270 452 270q360 0 400 -293q139 94 139 221q0 33 -12 74
h167q4 -25 5 -51q0 -147 -111 -242q-63 -55 -188 -123l-3 -10v-29q-4 -47 -14 -92l-82 -475q-26 -137 -58 -214t-91 -138q-129 -131 -355 -131z" />
    <glyph glyph-name="ohorn" unicode="&#x1a1;" horiz-adv-x="1058" 
d="M430 137q98 1 150 63t79 212l39 217q12 74 13 121q0 152 -154 151q-98 0 -151 -63t-78 -209l-39 -217q-12 -68 -13 -121q0 -154 154 -154zM1178 1004q0 -106 -69 -192t-216 -161q-8 -59 -10 -65l-35 -203q-39 -217 -136 -310t-286 -93q-342 0 -342 294q0 72 18 170
l37 213q39 217 136 309t279 93q182 0 262 -68q81 -68 85 -217q6 4 12 10q104 92 105 201q0 35 -12 72h168q4 -27 4 -53z" />
    <glyph glyph-name="Uhorn" unicode="&#x1af;" horiz-adv-x="1308" 
d="M342 326q0 -178 201 -179q152 0 227 121q37 61 66 211l172 983h202l-53 -307q105 55 151 115t46 143q0 31 -11 72h168q2 -27 2 -53q0 -198 -224 -326q-42 -25 -154 -80l-103 -582q-24 -140 -50 -204t-77 -119q-127 -139 -363 -139t-331 110q-72 88 -72 209q0 74 25 215
l166 946h202l-172 -983q-18 -109 -18 -153z" />
    <glyph glyph-name="uhorn" unicode="&#x1b0;" horiz-adv-x="1103" 
d="M293 291q0 -143 123 -144q92 0 143 73t82 247l100 573h193l-55 -313q199 102 198 260q0 31 -10 70h168q2 -23 2 -51q0 -125 -82 -213t-299 -195l-104 -598h-140l-4 94q-49 -63 -105 -89t-143 -25q-126 0 -196 64t-70 166q0 101 25 234l104 596h195l-107 -604
q-18 -92 -18 -145z" />
    <glyph glyph-name="uni01C4" unicode="&#x1c4;" horiz-adv-x="2080" 
d="M1112 0l21 125l751 1169h-508l29 168h737l-22 -125l-750 -1169h569l-30 -168h-797zM1825 1733l137 163h197l-281 -284h-133l-180 284h182zM305 166h184q156 -2 236 78t115 276l75 424q16 94 17 158q0 195 -242 194h-184zM707 1462q213 0 309 -71q121 -92 121 -271
q0 -78 -21 -182l-84 -475q-68 -471 -526 -463h-432l258 1462h375z" />
    <glyph glyph-name="uni01C5" unicode="&#x1c5;" horiz-adv-x="2002" 
d="M1726 1315l138 162h194l-278 -283h-135l-179 283h181zM1151 0l20 117l551 764h-379l29 159h615l-21 -116l-551 -764h443l-29 -160h-678zM305 166h184q156 -2 236 78t115 276l75 424q16 94 17 158q0 195 -242 194h-184zM707 1462q213 0 309 -71q121 -92 121 -271
q0 -78 -21 -182l-84 -475q-68 -471 -526 -463h-432l258 1462h375z" />
    <glyph glyph-name="uni01C6" unicode="&#x1c6;" horiz-adv-x="1820" 
d="M969 0l20 117l553 764h-381l29 159h614l-20 -116l-551 -764h442l-26 -160h-680zM1546 1315l135 162h197l-281 -283h-133l-180 283h182zM281 303q0 -162 139 -162q180 0 231 289l33 180q12 80 12 119q0 170 -149 170q-170 0 -217 -268l-37 -201q-12 -74 -12 -127zM385 -20
q-299 0 -299 286q0 84 18 189l37 209q39 211 126 303t251 92q82 1 129 -17t101 -65l86 485h192l-258 -1462h-150l3 78q-4 -2 -13 -10q-90 -88 -223 -88z" />
    <glyph glyph-name="uni01C7" unicode="&#x1c7;" horiz-adv-x="1484" 
d="M793 -332q123 0 180 127q25 51 59 242l252 1425h203l-256 -1448q-29 -164 -51 -234q-85 -277 -377 -278q-102 0 -203 37l100 152q47 -23 93 -23zM76 0l258 1462h203l-230 -1294h559l-28 -168h-762z" />
    <glyph glyph-name="uni01C8" unicode="&#x1c8;" horiz-adv-x="1435" 
d="M1192 1040h192l-186 -1065q-39 -266 -139 -358t-340 -88l26 162q115 -6 175 59q59 66 84 223zM1227 1237l41 233h194l-41 -233h-194zM76 0l258 1462h203l-230 -1294h559l-28 -168h-762z" />
    <glyph glyph-name="uni01C9" unicode="&#x1c9;" horiz-adv-x="1024" 
d="M778 1040h195l-189 -1065q-39 -266 -138 -358t-341 -88l27 162q115 -7 174 59t84 223zM813 1237l41 233h195l-41 -233h-195zM293 253q0 -95 133 -93h31l-29 -160h-37q-163 0 -229 46t-66 144t23 211l186 1061h193l-195 -1102q-10 -61 -10 -107z" />
    <glyph glyph-name="uni01CA" unicode="&#x1ca;" horiz-adv-x="1792" 
d="M1110 -498q-104 0 -205 37l103 152q47 -23 90 -23q123 0 180 127q29 59 59 242l252 1425h203l-256 -1448q-45 -268 -104 -356q-106 -156 -322 -156zM76 0l258 1462h198l338 -1083l193 1083h194l-258 -1462h-194l-342 1087l-193 -1087h-194z" />
    <glyph glyph-name="uni01CB" unicode="&#x1cb;" horiz-adv-x="1742" 
d="M1499 1040h193l-189 -1065q-39 -266 -138 -358t-341 -88l29 162q115 -7 174 59t84 223zM1534 1237l41 233h192l-41 -233h-192zM76 0l258 1462h198l338 -1083l193 1083h194l-258 -1462h-194l-342 1087l-193 -1087h-194z" />
    <glyph glyph-name="uni01CC" unicode="&#x1cc;" horiz-adv-x="1488" 
d="M1245 1040h193l-189 -1065q-39 -266 -138 -358t-341 -88l29 162q115 -7 174 59t84 223zM1280 1237l41 233h192l-40 -233h-193zM377 1040v-86q97 104 243 104t217 -65q71 -66 70 -184q0 -84 -22 -203l-107 -606h-192l106 612q16 82 17 133q0 147 -134 148q-96 0 -149 -73
t-84 -247l-102 -573h-193l182 1040h148z" />
    <glyph glyph-name="uni01CD" unicode="&#x1cd;" horiz-adv-x="1064" 
d="M729 1733l135 163h197l-279 -284h-135l-180 284h182zM731 475l-74 723l-329 -723h403zM745 309h-489l-139 -309h-223l710 1462h187l200 -1462h-215z" />
    <glyph glyph-name="uni01CE" unicode="&#x1ce;" horiz-adv-x="942" 
d="M602 1315l135 162h197l-279 -283h-135l-180 283h182zM453 475q-125 0 -179 -59q-55 -66 -55 -180q0 -57 35 -81t127 -24t136 41t63 152l26 151h-153zM653 774q0 127 -137 127q-70 0 -114 -33t-80 -110l-158 49q102 252 364 252q317 0 318 -260q0 -53 -19 -172l-110 -627
h-154l-6 47q-82 -68 -235 -67q-297 0 -297 221q0 203 93 309t320 106h193l12 60q10 63 10 98z" />
    <glyph glyph-name="uni01CF" unicode="&#x1cf;" horiz-adv-x="534" 
d="M475 1733l137 163h195l-279 -284h-133l-180 284h182zM76 0l258 1462h203l-258 -1462h-203z" />
    <glyph glyph-name="uni01D0" unicode="&#x1d0;" horiz-adv-x="475" 
d="M371 1315l137 162h194l-278 -283h-135l-178 283h180zM49 0l184 1040h193l-184 -1040h-193z" />
    <glyph glyph-name="uni01D1" unicode="&#x1d1;" horiz-adv-x="1179" 
d="M799 1733l135 163h196l-278 -284h-135l-180 284h182zM711 1317q-117 0 -188 -83t-105 -284l-78 -438q-18 -104 -18 -183t54 -131t170 -52t188 83q71 84 106 283l75 438q20 115 21 166q0 201 -225 201zM717 1483q420 0 422 -350q0 -76 -23 -195l-82 -475
q-26 -139 -58 -215t-91 -137q-129 -131 -357 -131q-410 0 -409 348q0 73 20 196l84 475q25 139 57 214t93 139q129 131 344 131z" />
    <glyph glyph-name="uni01D2" unicode="&#x1d2;" horiz-adv-x="987" 
d="M629 1315l135 162h197l-279 -283h-135l-180 283h182zM430 137q98 1 150 63t79 212l39 217q12 74 13 121q0 152 -154 151q-98 0 -151 -63t-78 -209l-39 -217q-12 -68 -13 -121q0 -154 154 -154zM561 1059q342 0 342 -293q0 -61 -18 -170l-37 -213q-39 -217 -136 -310
t-286 -93q-342 0 -342 294q0 72 18 170l37 213q39 217 136 309t286 93z" />
    <glyph glyph-name="uni01D3" unicode="&#x1d3;" horiz-adv-x="1204" 
d="M803 1733l135 163h197l-279 -284h-135l-180 284h182zM342 326q0 -178 199 -179q154 0 229 121q37 59 66 211l172 983h202l-178 -1018q-24 -140 -50 -204t-77 -119q-127 -139 -361 -139t-333 110q-72 88 -72 209q0 74 25 215l166 946h202l-172 -983q-18 -109 -18 -153z
" />
    <glyph glyph-name="uni01D4" unicode="&#x1d4;" 
d="M625 1315l135 162h196l-278 -283h-135l-181 283h183zM293 293q0 -145 123 -146q92 0 143 73t82 247l100 573h193l-182 -1040h-140l-4 94q-51 -63 -106 -89t-142 -25q-126 0 -196 64t-70 183q0 78 25 217l104 596h195l-107 -604q-18 -94 -18 -143z" />
    <glyph glyph-name="Gcaron" unicode="&#x1e6;" horiz-adv-x="1157" 
d="M778 1733l135 163h197l-279 -284h-135l-180 284h182zM522 -20q-199 0 -300 89t-101 261q0 86 24 217l74 428q29 149 63 231t95 144q129 129 333 129t302 -81t98 -233q0 -37 -8 -88l-189 -8q2 23 2 47q0 197 -190 197q-131 0 -202 -87t-107 -294l-72 -404
q-20 -113 -20 -176q0 -207 204 -207q127 0 202 80t104 250l26 146h-225l29 157h423l-51 -289q-24 -145 -54 -221t-89 -141q-133 -147 -371 -147z" />
    <glyph glyph-name="gcaron" unicode="&#x1e7;" horiz-adv-x="999" 
d="M635 1315l135 162h197l-279 -283h-135l-180 283h182zM281 305q0 -164 139 -164q180 0 231 289l33 180q10 61 10 119q0 170 -147 170q-88 -1 -141 -65t-78 -203l-37 -207q-10 -61 -10 -119zM86 266q0 92 18 191l37 207q37 211 123 303t252 92t250 -96l37 77h149
l-188 -1067q-41 -233 -153 -343t-310 -109q-145 0 -214 56t-77 187l170 39q10 -73 41 -101t117 -28q181 0 229 281l19 100q-84 -76 -215 -75q-285 0 -285 286z" />
    <glyph glyph-name="uni01EA" unicode="&#x1ea;" horiz-adv-x="1179" 
d="M711 1317q-117 0 -188 -83t-105 -284l-78 -438q-18 -104 -18 -183t54 -131t170 -52t188 83q71 84 106 283l75 438q20 115 21 166q0 201 -225 201zM516 -240q0 -55 76 -55q43 0 106 21l2 -105q-86 -31 -168 -31q-197 0 -196 144q0 135 180 246q-174 6 -260 63
q-137 92 -137 287q0 72 20 194l84 475q25 139 57 214t93 139q129 131 344 131q420 0 422 -350q0 -76 -23 -195l-82 -475q-53 -367 -317 -457q-201 -129 -201 -246z" />
    <glyph glyph-name="uni01EB" unicode="&#x1eb;" horiz-adv-x="987" 
d="M430 139q98 0 151 63q51 63 78 210l39 217q12 74 13 121q0 152 -154 151q-98 0 -150 -62t-79 -210l-39 -217q-12 -70 -13 -121q0 -152 154 -152zM418 -240q0 -55 76 -55q45 0 106 21l2 -105q-84 -31 -166 -31q-199 0 -198 144q0 135 168 246q-168 8 -245 78t-77 216
q0 74 18 170l37 213q39 217 136 309t286 93q342 0 342 -293q0 -61 -18 -170l-37 -213q-25 -154 -81 -242t-157 -131q-84 -53 -138 -124t-54 -126z" />
    <glyph glyph-name="uni01F1" unicode="&#x1f1;" horiz-adv-x="2080" 
d="M1112 0l21 125l751 1169h-508l29 168h737l-22 -125l-750 -1169h569l-30 -168h-797zM305 166h184q156 -2 236 78t115 276l75 424q16 94 17 158q0 195 -242 194h-184zM707 1462q213 0 309 -71q121 -92 121 -271q0 -78 -21 -182l-84 -475q-68 -471 -526 -463h-432l258 1462
h375z" />
    <glyph glyph-name="uni01F2" unicode="&#x1f2;" horiz-adv-x="2002" 
d="M1151 0l20 117l551 764h-379l29 159h615l-21 -116l-551 -764h443l-29 -160h-678zM305 166h184q156 -2 236 78t115 276l75 424q16 94 17 158q0 195 -242 194h-184zM707 1462q213 0 309 -71q121 -92 121 -271q0 -78 -21 -182l-84 -475q-68 -471 -526 -463h-432l258 1462
h375z" />
    <glyph glyph-name="uni01F3" unicode="&#x1f3;" horiz-adv-x="1820" 
d="M969 0l20 117l553 764h-381l29 159h614l-20 -116l-551 -764h442l-26 -160h-680zM281 303q0 -162 139 -162q180 0 231 289l33 180q12 80 12 119q0 170 -149 170q-170 0 -217 -268l-37 -201q-12 -74 -12 -127zM385 -20q-299 0 -299 286q0 84 18 189l37 209q39 211 126 303
t251 92q82 1 129 -17t101 -65l86 485h192l-258 -1462h-150l3 78q-4 -2 -13 -10q-90 -88 -223 -88z" />
    <glyph glyph-name="uni01F4" unicode="&#x1f4;" horiz-adv-x="1157" 
d="M662 1612l190 297h221l-266 -297h-145zM522 -20q-199 0 -300 89t-101 261q0 86 24 217l74 428q29 149 63 231t95 144q129 129 333 129t302 -81t98 -233q0 -37 -8 -88l-189 -8q2 23 2 47q0 197 -190 197q-131 0 -202 -87t-107 -294l-72 -404q-20 -113 -20 -176
q0 -207 204 -207q127 0 202 80t104 250l26 146h-225l29 157h423l-51 -289q-24 -145 -54 -221t-89 -141q-133 -147 -371 -147z" />
    <glyph glyph-name="uni01F5" unicode="&#x1f5;" horiz-adv-x="999" 
d="M516 1190l191 299h221l-266 -299h-146zM281 305q0 -164 139 -164q180 0 231 289l33 180q10 61 10 119q0 170 -147 170q-88 -1 -141 -65t-78 -203l-37 -207q-10 -61 -10 -119zM86 266q0 92 18 191l37 207q37 211 123 303t252 92t250 -96l37 77h149l-188 -1067
q-41 -233 -153 -343t-310 -109q-145 0 -214 56t-77 187l170 39q10 -73 41 -101t117 -28q181 0 229 281l19 100q-84 -76 -215 -75q-285 0 -285 286z" />
    <glyph glyph-name="Aringacute" unicode="&#x1fa;" horiz-adv-x="1064" 
d="M678 1837l147 250h236l-258 -250h-125zM741 1702q-55 0 -88 -43t-33 -97q1 -97 82 -98q53 0 86 43t33 111q0 84 -80 84zM731 475l-74 723l-329 -723h403zM946 1621q0 -79 -40 -140t-105 -92l190 -1389h-215l-31 309h-489l-139 -309h-223l681 1401q-79 53 -79 156t69 173
q70 68 171 68q102 0 156 -49t54 -128z" />
    <glyph glyph-name="aringacute" unicode="&#x1fb;" horiz-adv-x="942" 
d="M594 1640l147 250h236l-258 -250h-125zM649 1470q-53 0 -87 -43t-34 -112q0 -80 82 -80q53 0 87 42t34 112q0 81 -82 81zM646 1567q102 0 156 -50q54 -49 54 -143t-72 -165t-171 -71t-154 51q-55 50 -55 146t70 164t172 68zM453 475q-125 0 -179 -59q-55 -66 -55 -180
q0 -57 35 -81t127 -24t136 41t63 152l26 151h-153zM653 774q0 127 -137 127q-70 0 -114 -33t-80 -110l-158 49q102 252 364 252q317 0 318 -260q0 -53 -19 -172l-110 -627h-154l-6 47q-82 -68 -235 -67q-297 0 -297 221q0 203 93 309t320 106h193l12 60q10 63 10 98z" />
    <glyph glyph-name="AEacute" unicode="&#x1fc;" horiz-adv-x="1665" 
d="M1208 1612l191 297h221l-266 -297h-146zM817 498l141 796h-18l-547 -796h424zM788 332h-505l-228 -332h-233l1036 1462h881l-29 -168h-553l-84 -471h469l-29 -168h-469l-86 -487h558l-29 -168h-758z" />
    <glyph glyph-name="aeacute" unicode="&#x1fd;" horiz-adv-x="1472" 
d="M745 1190l191 299h221l-266 -299h-146zM829 621h373q14 86 15 131q0 158 -154 157q-182 0 -227 -250zM453 477q-125 1 -179 -63t-55 -178q0 -57 35 -81t125 -24t136 45t67 158l26 143h-155zM1307 246q-90 -266 -358 -266q-131 0 -197 34t-107 111q-63 -84 -130 -115
t-187 -30q-303 0 -303 221q0 203 93 310t320 107h195l10 58q10 72 10 96q0 129 -137 129q-70 -1 -111 -29t-90 -112l-149 51q53 129 140 188t223 59t216 -59q16 -14 48 -67q59 70 122 98t160 29q322 0 322 -299q0 -92 -35 -283h-559l-12 -74q-10 -61 -11 -102
q0 -166 164 -166q143 0 203 148z" />
    <glyph glyph-name="Oslashacute" unicode="&#x1fe;" horiz-adv-x="1177" 
d="M674 1612l190 297h221l-266 -297h-145zM723 1317q-131 0 -202 -83t-105 -284l-76 -438q-8 -37 -10 -57l575 776q-51 86 -182 86zM532 145q131 0 201 84t105 283l77 438q3 19 9 56l-574 -775q51 -86 182 -86zM542 -20q-216 0 -317 86l-80 -111l-122 86l114 154
q-20 69 -20 139t20 190l84 475q25 137 57 213t93 140q129 131 362 131q190 0 295 -86l80 104l121 -84l-113 -151q39 -122 0 -328l-84 -475q-24 -139 -56 -214t-93 -138q-125 -131 -341 -131z" />
    <glyph glyph-name="oslashacute" unicode="&#x1ff;" horiz-adv-x="989" 
d="M506 1190l190 299h222l-267 -299h-145zM554 901q-93 0 -146 -63t-80 -211l-37 -213q-12 -70 -12 -76l407 512q-39 51 -132 51zM437 137q93 -1 145 63t80 214l38 213q5 18 11 75l-406 -512q39 -53 132 -53zM442 -20q-172 0 -258 61l-61 -78l-90 64l80 100q-29 63 -29 141
t18 176l37 213q39 215 136 309t267 93q170 0 263 -60l61 78l90 -63l-79 -101q51 -101 10 -317l-37 -213q-39 -217 -137 -310q-99 -93 -271 -93z" />
    <glyph glyph-name="uni0200" unicode="&#x200;" horiz-adv-x="1064" 
d="M674 1612h-135l-121 299h198zM942 1612h-133l-121 299h199zM731 475l-74 723l-329 -723h403zM745 309h-489l-139 -309h-223l710 1462h187l200 -1462h-215z" />
    <glyph glyph-name="uni0201" unicode="&#x201;" horiz-adv-x="942" 
d="M541 1190h-135l-121 299h198zM811 1190h-135l-121 299h199zM444 475q-125 0 -178 -59q-55 -66 -55 -180q0 -57 35 -81t127 -24t136 41t62 152l27 151h-154zM645 774q0 127 -137 127q-70 0 -114 -33t-81 -110l-157 49q102 252 364 252q317 0 318 -260q0 -53 -19 -172
l-110 -627h-154l-6 47q-82 -68 -236 -67q-297 0 -297 221q0 203 94 309t320 106h193l12 60q10 63 10 98z" />
    <glyph glyph-name="uni0202" unicode="&#x202;" horiz-adv-x="1064" 
d="M756 1769q-76 -1 -114 -33t-62 -118h-127q25 164 93 230t212 65q252 0 252 -191q-1 -38 -11 -104h-125q4 31 5 51q0 100 -123 100zM731 475l-74 723l-329 -723h403zM745 309h-489l-139 -309h-223l710 1462h187l200 -1462h-215z" />
    <glyph glyph-name="uni0203" unicode="&#x203;" horiz-adv-x="942" 
d="M743 1247q0 100 -125 101q-74 0 -112 -33t-62 -117h-127q25 162 93 228t213 65q252 0 251 -188q0 -37 -10 -105h-125q4 31 4 49zM453 475q-125 0 -179 -59q-55 -66 -55 -180q0 -57 35 -81t127 -24t136 41t63 152l26 151h-153zM653 774q0 127 -137 127q-70 0 -114 -33
t-80 -110l-158 49q102 252 364 252q317 0 318 -260q0 -53 -19 -172l-110 -627h-154l-6 47q-82 -68 -235 -67q-297 0 -297 221q0 203 93 309t320 106h193l12 60q10 63 10 98z" />
    <glyph glyph-name="uni0204" unicode="&#x204;" horiz-adv-x="1013" 
d="M684 1612h-135l-121 299h199zM952 1612h-133l-121 299h199zM63 0l259 1462h751l-29 -168h-550l-84 -471h469l-31 -168h-467l-86 -487h555l-29 -168h-758z" />
    <glyph glyph-name="uni0205" unicode="&#x205;" horiz-adv-x="968" 
d="M545 1190h-135l-121 299h198zM815 1190h-135l-121 299h199zM700 752q0 158 -153 157q-182 0 -225 -250l-9 -38h373q14 88 14 131zM266 299q0 -164 162 -164q76 0 124 35t81 113l160 -37q-53 -142 -143 -204t-249 -62q-326 0 -325 303q0 90 18 190l27 150q39 217 123 315
q102 121 303 121q334 0 334 -301q0 -98 -35 -281h-557l-13 -74q-10 -66 -10 -104z" />
    <glyph glyph-name="uni0206" unicode="&#x206;" horiz-adv-x="1013" 
d="M891 1669q0 100 -123 100q-76 -1 -114 -33t-62 -118h-127q25 164 93 230t212 65q252 0 252 -191q0 -38 -10 -104h-125q4 31 4 51zM76 0l258 1462h751l-28 -168h-551l-84 -471h469l-31 -168h-467l-86 -487h555l-28 -168h-758z" />
    <glyph glyph-name="uni0207" unicode="&#x207;" horiz-adv-x="968" 
d="M756 1247q0 100 -125 101q-74 0 -112 -33t-62 -117h-127q24 162 92 228t213 65q252 0 252 -188q0 -37 -10 -105h-125q4 31 4 49zM326 621h372q14 88 15 131q0 158 -154 157q-182 0 -225 -250zM279 299q0 -164 161 -164q76 0 124 35t81 113l160 -37q-53 -142 -143 -204
t-248 -62q-326 0 -326 303q0 90 18 190l27 150q39 217 123 315q102 121 303 121q334 0 334 -301q0 -98 -35 -281h-557l-12 -74q-10 -66 -10 -104z" />
    <glyph glyph-name="uni0208" unicode="&#x208;" horiz-adv-x="534" 
d="M412 1612h-136l-120 299h198zM680 1612h-133l-121 299h199zM76 0l258 1462h203l-258 -1462h-203z" />
    <glyph glyph-name="uni0209" unicode="&#x209;" horiz-adv-x="475" 
d="M305 1190h-135l-121 299h199zM575 1190h-135l-121 299h199zM49 0l182 1040h195l-184 -1040h-193z" />
    <glyph glyph-name="uni020A" unicode="&#x20a;" horiz-adv-x="536" 
d="M614 1669q0 100 -122 100q-76 -1 -114 -33t-63 -118h-127q25 164 93 230t213 65q252 0 251 -191q0 -38 -10 -104h-125q4 31 4 51zM76 0l258 1462h203l-258 -1462h-203z" />
    <glyph glyph-name="uni020B" unicode="&#x20b;" horiz-adv-x="475" 
d="M510 1247q0 100 -125 101q-74 0 -112 -33t-62 -117h-127q24 162 92 228t213 65q252 0 252 -188q0 -37 -10 -105h-125q4 31 4 49zM49 0l182 1040h195l-184 -1040h-193z" />
    <glyph glyph-name="uni020C" unicode="&#x20c;" horiz-adv-x="1179" 
d="M733 1612h-135l-121 299h199zM1001 1612h-133l-120 299h198zM711 1317q-117 0 -188 -83t-105 -284l-78 -438q-18 -104 -18 -183t54 -131t170 -52t188 83q71 84 106 283l75 438q20 115 21 166q0 201 -225 201zM717 1483q420 0 422 -350q0 -76 -23 -195l-82 -475
q-26 -139 -58 -215t-91 -137q-129 -131 -357 -131q-410 0 -409 348q0 73 20 196l84 475q25 139 57 214t93 139q129 131 344 131z" />
    <glyph glyph-name="uni020D" unicode="&#x20d;" horiz-adv-x="987" 
d="M551 1190h-135l-121 299h199zM821 1190h-135l-121 299h199zM700 750q0 152 -153 151q-97 0 -151 -63t-79 -209l-38 -217q-12 -68 -13 -121q0 -154 154 -154q98 1 150 63t79 212l39 217q12 74 12 121zM551 1059q342 0 342 -293q0 -61 -19 -170l-36 -213
q-38 -217 -136 -310t-286 -93q-342 0 -342 294q0 72 18 170l37 213q39 217 136 309t286 93z" />
    <glyph glyph-name="uni020E" unicode="&#x20e;" horiz-adv-x="1179" 
d="M936 1669q0 100 -123 100q-76 -1 -114 -33t-62 -118h-127q24 164 92 230t213 65q252 0 252 -191q0 -38 -10 -104h-125q4 31 4 51zM711 1317q-117 0 -188 -83t-105 -284l-78 -438q-18 -104 -18 -183t54 -131t170 -52t188 83q71 84 106 283l75 438q20 115 21 166
q0 201 -225 201zM717 1483q420 0 422 -350q0 -76 -23 -195l-82 -475q-26 -139 -58 -215t-91 -137q-129 -131 -357 -131q-410 0 -409 348q0 73 20 196l84 475q25 139 57 214t93 139q129 131 344 131z" />
    <glyph glyph-name="uni020F" unicode="&#x20f;" horiz-adv-x="987" 
d="M766 1247q0 100 -125 101q-74 0 -112 -33t-62 -117h-127q24 162 92 228t213 65q252 0 252 -188q0 -37 -10 -105h-125q4 31 4 49zM430 137q98 1 150 63t79 212l39 217q12 74 13 121q0 152 -154 151q-98 0 -151 -63t-78 -209l-39 -217q-12 -68 -13 -121q0 -154 154 -154z
M561 1059q342 0 342 -293q0 -61 -18 -170l-37 -213q-39 -217 -136 -310t-286 -93q-342 0 -342 294q0 72 18 170l37 213q39 217 136 309t286 93z" />
    <glyph glyph-name="uni0210" unicode="&#x210;" horiz-adv-x="1130" 
d="M649 1612h-135l-121 299h199zM918 1612h-134l-120 299h198zM606 784q150 0 213 84q78 98 78 254q0 94 -47 134t-156 40h-202l-91 -512h205zM711 1462q213 0 299 -76q96 -80 96 -235q0 -113 -34 -223q-78 -252 -296 -285l162 -643h-225l-138 625h-198l-111 -625h-203
l259 1462h389z" />
    <glyph glyph-name="uni0211" unicode="&#x211;" horiz-adv-x="684" 
d="M440 1190h-135l-121 299h199zM711 1190h-136l-120 299h198zM614 1059q80 0 164 -58l-112 -159q-57 51 -113 51q-82 0 -135 -91t-88 -296l-90 -506h-193l182 1040h150l8 -88q49 59 98 83t129 24z" />
    <glyph glyph-name="uni0212" unicode="&#x212;" horiz-adv-x="1130" 
d="M870 1669q0 100 -122 100q-76 -1 -114 -33t-63 -118h-127q25 164 93 230t213 65q252 0 251 -191q0 -38 -10 -104h-125q4 31 4 51zM621 784q150 0 213 84q78 98 77 254q0 94 -47 134t-155 40h-203l-90 -512h205zM725 1462q213 0 299 -76q96 -80 96 -235q0 -113 -34 -223
q-78 -252 -295 -285l161 -643h-225l-137 625h-199l-110 -625h-203l258 1462h389z" />
    <glyph glyph-name="uni0213" unicode="&#x213;" horiz-adv-x="684" 
d="M657 1247q0 100 -125 101q-74 0 -112 -33t-62 -117h-127q25 162 93 228t213 65q252 0 251 -188q0 -37 -10 -105h-125q4 31 4 49zM614 1059q80 0 164 -58l-112 -159q-57 51 -113 51q-82 0 -135 -91t-88 -296l-90 -506h-193l182 1040h150l8 -88q49 59 98 83t129 24z" />
    <glyph glyph-name="uni0214" unicode="&#x214;" horiz-adv-x="1204" 
d="M745 1612h-135l-121 299h199zM1014 1612h-133l-121 299h198zM342 326q0 -178 199 -179q154 0 229 121q37 59 66 211l172 983h202l-178 -1018q-24 -140 -50 -204t-77 -119q-127 -139 -361 -139t-333 110q-72 88 -72 209q0 74 25 215l166 946h202l-172 -983
q-18 -109 -18 -153z" />
    <glyph glyph-name="uni0215" unicode="&#x215;" 
d="M545 1190h-135l-121 299h198zM815 1190h-135l-121 299h199zM279 293q0 -145 122 -146q92 0 144 73q51 73 82 247l100 573h193l-183 -1040h-139l-4 94q-50 -63 -106 -89t-142 -25q-126 0 -196 64t-70 183q0 78 24 217l105 596h194l-106 -604q-18 -94 -18 -143z" />
    <glyph glyph-name="uni0216" unicode="&#x216;" horiz-adv-x="1204" 
d="M948 1669q0 100 -123 100q-75 -1 -113 -33t-63 -118h-127q24 164 92 230t213 65q252 0 252 -191q0 -38 -10 -104h-125q4 31 4 51zM342 326q0 -178 199 -179q154 0 229 121q37 59 66 211l172 983h202l-178 -1018q-24 -140 -50 -204t-77 -119q-127 -139 -361 -139t-333 110
q-72 88 -72 209q0 74 25 215l166 946h202l-172 -983q-18 -109 -18 -153z" />
    <glyph glyph-name="uni0217" unicode="&#x217;" 
d="M764 1247q0 100 -125 101q-74 0 -112 -33t-62 -117h-127q24 162 92 228t213 65q252 0 252 -188q0 -37 -10 -105h-125q4 31 4 49zM293 293q0 -145 123 -146q92 0 143 73t82 247l100 573h193l-182 -1040h-140l-4 94q-51 -63 -106 -89t-142 -25q-126 0 -196 64t-70 183
q0 78 25 217l104 596h195l-107 -604q-18 -94 -18 -143z" />
    <glyph glyph-name="Scommaaccent" unicode="&#x218;" horiz-adv-x="1019" 
d="M174 -463l145 324h189l-203 -324h-131zM729 448q0 94 -51 134q-26 20 -50 30t-143 50q-293 92 -292 346q1 196 111 334t335 139q180 0 270 -74t101 -231l-183 -50q-14 104 -58 146q-45 42 -145 43q-100 0 -166 -76t-65 -201q0 -82 46 -126t173 -89q180 -61 249 -139
t69 -217q0 -201 -107 -330q-127 -157 -392 -157t-357 135q-46 63 -54 196l185 51q10 -116 63 -166t166 -51q176 0 246 123q49 86 49 180z" />
    <glyph glyph-name="scommaaccent" unicode="&#x219;" horiz-adv-x="864" 
d="M98 -463l146 324h188l-203 -324h-131zM760 354q0 -374 -430 -374q-220 0 -293 120q-31 50 -39 148l174 37q10 -82 50 -115t136 -33t156 51q59 51 59 142q0 58 -35 78q-34 20 -164 49t-188 85q-57 56 -57 186t88 230q91 100 287 100t266 -106q31 -49 37 -143l-170 -41
q-8 135 -143 135q-80 0 -129 -49q-49 -50 -49 -114t32 -90t144 -50t174 -55q94 -57 94 -191z" />
    <glyph glyph-name="uni021A" unicode="&#x21a;" horiz-adv-x="940" 
d="M123 -463l145 324h189l-203 -324h-131zM279 0l229 1294h-334l29 168h868l-29 -168h-331l-230 -1294h-202z" />
    <glyph glyph-name="uni021B" unicode="&#x21b;" horiz-adv-x="606" 
d="M-2 -463l145 324h189l-203 -324h-131zM442 162h33l-29 -162h-38q-160 0 -224 42q-63 42 -63 128t26 229l84 484h-106l29 157h108l66 318h182l-57 -318h176l-29 -157h-174l-92 -523q-14 -78 -14 -118t26 -60q27 -20 96 -20z" />
    <glyph glyph-name="uni0226" unicode="&#x226;" horiz-adv-x="1064" 
d="M627 1622l41 227h186l-41 -227h-186zM731 475l-74 723l-329 -723h403zM745 309h-489l-139 -309h-223l710 1462h187l200 -1462h-215z" />
    <glyph glyph-name="uni0227" unicode="&#x227;" horiz-adv-x="942" 
d="M502 1202l41 228h186l-41 -228h-186zM453 475q-125 0 -179 -59q-55 -66 -55 -180q0 -57 35 -81t127 -24t136 41t63 152l26 151h-153zM653 774q0 127 -137 127q-70 0 -114 -33t-80 -110l-158 49q102 252 364 252q317 0 318 -260q0 -53 -19 -172l-110 -627h-154l-6 47
q-82 -68 -235 -67q-297 0 -297 221q0 203 93 309t320 106h193l12 60q10 63 10 98z" />
    <glyph glyph-name="uni0237" unicode="&#x237;" horiz-adv-x="485" 
d="M244 1040h192l-188 -1065q-39 -266 -138 -358t-341 -88l28 162q115 -7 174 59t84 223z" />
    <glyph glyph-name="afii57929" unicode="&#x2bc;" horiz-adv-x="360" 
d="M127 963l147 499h203l-188 -499h-162z" />
    <glyph glyph-name="uni02C0" unicode="&#x2c0;" horiz-adv-x="1024" 
d="M762 1833q0 35 -46 35t-114 -29l-16 117q96 33 166 33q172 0 172 -146q0 -45 -16 -71t-62 -65q-44 -41 -53 -59t-17 -61h-135q14 76 28 104q13 28 53 71t40 71z" />
    <glyph glyph-name="circumflex" unicode="&#x2c6;" horiz-adv-x="1024" 
d="M668 1362l-136 -164h-196l278 283h136l180 -283h-182z" />
    <glyph glyph-name="caron" unicode="&#x2c7;" horiz-adv-x="1024" 
d="M647 1315l135 162h197l-279 -283h-135l-180 283h182z" />
    <glyph glyph-name="uni02C9" unicode="&#x2c9;" horiz-adv-x="1024" 
d="M391 1255l25 142h502l-25 -142h-502z" />
    <glyph glyph-name="breve" unicode="&#x2d8;" horiz-adv-x="1024" 
d="M528 1423q0 -100 125 -100q74 0 111 32t63 118h127q-20 -127 -55 -179q-72 -115 -250 -114q-252 0 -252 188q1 37 11 105h124q-4 -23 -4 -50z" />
    <glyph glyph-name="dotaccent" unicode="&#x2d9;" horiz-adv-x="1024" 
d="M539 1202l41 228h186l-41 -228h-186z" />
    <glyph glyph-name="ring" unicode="&#x2da;" horiz-adv-x="1024" 
d="M684 1505q-53 0 -86 -43t-33 -114q0 -80 82 -80q53 0 86 43t33 112q0 82 -82 82zM648 1171q-99 1 -153 51q-55 50 -55 146t70 165t172 69q100 0 154 -50t55 -145q0 -94 -72 -165t-171 -71z" />
    <glyph glyph-name="ogonek" unicode="&#x2db;" horiz-adv-x="1024" 
d="M436 -238q0 -56 76 -57q45 0 106 21l3 -105q-86 -31 -168 -31q-197 0 -197 144q0 149 229 266h154q-117 -80 -160 -131t-43 -107z" />
    <glyph glyph-name="tilde" unicode="&#x2dc;" horiz-adv-x="1024" 
d="M557 1466q76 0 132 -64t83 -65q27 0 44 25t40 90h119q-45 -150 -89 -202t-124 -52t-139 68q-49 61 -76 61q-51 0 -90 -113h-119q49 144 96 198t123 54z" />
    <glyph glyph-name="hungarumlaut" unicode="&#x2dd;" horiz-adv-x="1024" 
d="M682 1190l162 299h198l-225 -299h-135zM412 1190l161 299h199l-225 -299h-135z" />
    <glyph glyph-name="uni0309" unicode="&#x309;" horiz-adv-x="1024" 
d="M688 1423q0 35 -46 35t-114 -28l-16 116q96 33 166 33q172 0 172 -145q0 -45 -15 -71t-61 -67t-54 -58t-18 -60h-135q17 78 29 104t52 70q40 43 40 71z" />
    <glyph glyph-name="uni0312" unicode="&#x312;" horiz-adv-x="1024" 
d="M522 1190l266 299h144l-191 -299h-219z" />
    <glyph glyph-name="uni0313" unicode="&#x313;" horiz-adv-x="172" 
d="M61 987l140 498h186l-190 -498h-136z" />
    <glyph glyph-name="uni031B" unicode="&#x31b;" horiz-adv-x="172" 
d="M61 987l140 498h186l-190 -498h-136z" />
    <glyph glyph-name="uni0323" unicode="&#x323;" horiz-adv-x="1024" 
d="M254 -406l41 228h186l-41 -228h-186z" />
    <glyph glyph-name="uni037E" unicode="&#x37e;" horiz-adv-x="499" 
d="M221 817l39 223h203l-39 -223h-203zM-80 -385l191 606h213l-232 -606h-172z" />
    <glyph glyph-name="uni0387" unicode="&#x387;" horiz-adv-x="499" 
d="M168 627l39 223h203l-39 -223h-203z" />
    <glyph glyph-name="uni04D4" unicode="&#x4d4;" horiz-adv-x="1665" 
d="M817 498l141 796h-18l-547 -796h424zM788 332h-505l-228 -332h-233l1036 1462h881l-29 -168h-553l-84 -471h469l-29 -168h-469l-86 -487h558l-29 -168h-758z" />
    <glyph glyph-name="uni04D5" unicode="&#x4d5;" horiz-adv-x="1472" 
d="M829 621h373q14 86 15 131q0 158 -154 157q-182 0 -227 -250zM453 477q-125 1 -179 -63t-55 -178q0 -57 35 -81t125 -24t136 45t67 158l26 143h-155zM1307 246q-90 -266 -358 -266q-131 0 -197 34t-107 111q-63 -84 -130 -115t-187 -30q-303 0 -303 221q0 203 93 310
t320 107h195l10 58q10 72 10 96q0 129 -137 129q-70 -1 -111 -29t-90 -112l-149 51q53 129 140 188t223 59t216 -59q16 -14 48 -67q59 70 122 98t160 29q322 0 322 -299q0 -92 -35 -283h-559l-12 -74q-10 -61 -11 -102q0 -166 164 -166q143 0 203 148z" />
    <glyph glyph-name="uni1E02" unicode="&#x1e02;" horiz-adv-x="1132" 
d="M641 1622l41 227h186l-41 -227h-186zM553 166q129 0 186 72q80 100 80 258q0 92 -39 132t-131 40h-256l-88 -502h248zM659 831q117 0 172 68q78 92 78 234q0 87 -40 125t-136 38h-229l-82 -465h237zM743 1462q209 0 293 -78q82 -82 82 -225t-55 -245t-156 -152
q68 -57 82 -88q35 -66 35 -180q0 -233 -127 -377q-57 -63 -129 -90t-188 -27h-506l258 1462h411z" />
    <glyph glyph-name="uni1E03" unicode="&#x1e03;" horiz-adv-x="999" 
d="M645 1202l41 228h186l-41 -228h-186zM721 739q0 158 -139 158q-94 0 -150 -70t-84 -217l-33 -180q-12 -74 -12 -121q0 -170 150 -170q88 0 140 68t79 215l37 205q12 74 12 112zM627 1059q289 0 288 -281q0 -70 -20 -184l-35 -199q-39 -223 -127 -319q-89 -96 -237 -96
t-220 59q-12 10 -49 55l-30 -94h-150l258 1462h193l-86 -483q90 80 215 80z" />
    <glyph glyph-name="uni1E0C" unicode="&#x1e0c;" horiz-adv-x="1181" 
d="M287 -406l41 228h186l-41 -228h-186zM305 166h184q156 -2 236 78t115 276l75 424q16 94 17 158q0 195 -242 194h-184zM707 1462q213 0 309 -71q121 -92 121 -271q0 -78 -21 -182l-84 -475q-68 -471 -526 -463h-432l258 1462h375z" />
    <glyph glyph-name="uni1E0D" unicode="&#x1e0d;" horiz-adv-x="999" 
d="M281 -406l41 228h186l-41 -228h-186zM281 303q0 -162 139 -162q180 0 231 289l33 180q12 80 12 119q0 170 -149 170q-170 0 -217 -268l-37 -201q-12 -74 -12 -127zM385 -20q-299 0 -299 286q0 84 18 189l37 209q39 211 126 303t251 92q82 1 129 -17t101 -65l86 485h192
l-258 -1462h-150l3 78q-4 -2 -13 -10q-90 -88 -223 -88z" />
    <glyph glyph-name="uni1E1E" unicode="&#x1e1e;" horiz-adv-x="958" 
d="M643 1622l41 227h186l-41 -227h-186zM76 0l258 1462h743l-28 -168h-543l-84 -481h457l-31 -168h-457l-112 -645h-203z" />
    <glyph glyph-name="uni1E1F" unicode="&#x1e1f;" horiz-adv-x="600" 
d="M467 1622l41 227h186l-41 -227h-186zM242 883h-109l27 157h110l29 164q25 154 89 208q65 54 220 50h113l-27 -145h-51q-82 2 -112 -26t-46 -124l-22 -127h190l-26 -157h-193l-155 -883h-193z" />
    <glyph glyph-name="uni1E24" unicode="&#x1e24;" horiz-adv-x="1191" 
d="M338 -406l41 228h186l-41 -228h-186zM76 0l258 1462h203l-113 -639h453l112 639h203l-258 -1462h-203l117 655h-455l-114 -655h-203z" />
    <glyph glyph-name="uni1E25" unicode="&#x1e25;" horiz-adv-x="1003" 
d="M244 -406l41 228h186l-41 -228h-186zM47 0l258 1462h193l-84 -475q55 41 101 56t118 16q131 0 203 -66t71 -184q0 -84 -22 -203l-107 -606h-192l108 616q14 84 15 129q0 145 -134 146q-96 0 -150 -72t-83 -237l-102 -582h-193z" />
    <glyph glyph-name="uni1E44" unicode="&#x1e44;" horiz-adv-x="1255" 
d="M750 1622l41 227h186l-41 -227h-186zM76 0l258 1462h198l338 -1083l193 1083h194l-258 -1462h-194l-342 1087l-193 -1087h-194z" />
    <glyph glyph-name="uni1E45" unicode="&#x1e45;" horiz-adv-x="1003" 
d="M537 1202l41 228h186l-41 -228h-186zM377 1040v-86q97 104 243 104t217 -65q71 -66 70 -184q0 -84 -22 -203l-107 -606h-192l106 612q16 82 17 133q0 147 -134 148q-96 0 -149 -73t-84 -247l-102 -573h-193l182 1040h148z" />
    <glyph glyph-name="uni1E5A" unicode="&#x1e5a;" horiz-adv-x="1130" 
d="M307 -406l41 228h187l-41 -228h-187zM621 784q150 0 213 84q78 98 77 254q0 94 -47 134t-155 40h-203l-90 -512h205zM725 1462q213 0 299 -76q96 -80 96 -235q0 -113 -34 -223q-78 -252 -295 -285l161 -643h-225l-137 625h-199l-110 -625h-203l258 1462h389z" />
    <glyph glyph-name="uni1E5B" unicode="&#x1e5b;" horiz-adv-x="684" 
d="M-20 -406l40 228h187l-41 -228h-186zM615 1059q81 0 163 -58l-112 -159q-53 51 -113 51q-82 0 -134 -91t-89 -296l-88 -506h-193l182 1040h150l8 -88q49 59 97 83t129 24z" />
    <glyph glyph-name="uni1E62" unicode="&#x1e62;" horiz-adv-x="1019" 
d="M229 -406l41 228h187l-41 -228h-187zM729 448q0 94 -51 134q-26 20 -50 30t-143 50q-293 92 -292 346q1 196 111 334t335 139q180 0 270 -74t101 -231l-183 -50q-14 104 -58 146q-45 42 -145 43q-100 0 -166 -76t-65 -201q0 -82 46 -126t173 -89q180 -61 249 -139
t69 -217q0 -201 -107 -330q-127 -157 -392 -157t-357 135q-46 63 -54 196l185 51q10 -116 63 -166t166 -51q176 0 246 123q49 86 49 180z" />
    <glyph glyph-name="uni1E63" unicode="&#x1e63;" horiz-adv-x="864" 
d="M160 -406l41 228h186l-41 -228h-186zM760 354q0 -374 -430 -374q-220 0 -293 120q-31 50 -39 148l174 37q10 -82 50 -115t136 -33t156 51q59 51 59 142q0 58 -35 78q-34 20 -164 49t-188 85q-57 56 -57 186t88 230q91 100 287 100t266 -106q31 -49 37 -143l-170 -41
q-8 135 -143 135q-80 0 -129 -49q-49 -50 -49 -114t32 -90t144 -50t174 -55q94 -57 94 -191z" />
    <glyph glyph-name="uni1E6C" unicode="&#x1e6c;" horiz-adv-x="940" 
d="M213 -406l41 228h186l-41 -228h-186zM279 0l229 1294h-334l29 168h868l-29 -168h-331l-230 -1294h-202z" />
    <glyph glyph-name="uni1E6D" unicode="&#x1e6d;" horiz-adv-x="606" 
d="M45 -406l41 228h186l-41 -228h-186zM440 162h33l-27 -162h-38q-160 0 -224 42q-63 42 -63 133t24 224l86 484h-108l29 157h108l68 318h180l-57 -318h176l-29 -157h-174l-92 -523q-12 -66 -12 -112t26 -66q27 -20 94 -20z" />
    <glyph glyph-name="Wgrave" unicode="&#x1e80;" horiz-adv-x="1587" 
d="M1100 1612h-142l-163 299h206zM414 1462v-1128l465 1128h151l68 -1128l399 1128h205l-559 -1462h-178l-72 1092l-457 -1092h-178l-45 1462h201z" />
    <glyph glyph-name="wgrave" unicode="&#x1e81;" horiz-adv-x="1359" 
d="M911 1190h-141l-164 299h207zM227 0l-80 1040h193l27 -768l333 768h136l65 -768l295 768h199l-445 -1040h-164l-69 723l-328 -723h-162z" />
    <glyph glyph-name="Wacute" unicode="&#x1e82;" horiz-adv-x="1587" 
d="M877 1612l190 297h221l-266 -297h-145zM414 1462v-1128l465 1128h151l68 -1128l399 1128h205l-559 -1462h-178l-72 1092l-457 -1092h-178l-45 1462h201z" />
    <glyph glyph-name="wacute" unicode="&#x1e83;" horiz-adv-x="1359" 
d="M690 1190l191 299h221l-266 -299h-146zM227 0l-80 1040h193l27 -768l333 768h136l65 -768l295 768h199l-445 -1040h-164l-69 723l-328 -723h-162z" />
    <glyph glyph-name="Wdieresis" unicode="&#x1e84;" horiz-adv-x="1587" 
d="M1069 1624l41 225h172l-39 -225h-174zM715 1624l39 225h174l-39 -225h-174zM414 1462v-1128l465 1128h151l68 -1128l399 1128h205l-559 -1462h-178l-72 1092l-457 -1092h-178l-45 1462h201z" />
    <glyph glyph-name="wdieresis" unicode="&#x1e85;" horiz-adv-x="1359" 
d="M881 1202l41 228h172l-39 -228h-174zM532 1202l39 228h174l-38 -228h-175zM227 0l-80 1040h193l27 -768l333 768h136l65 -768l295 768h199l-445 -1040h-164l-69 723l-328 -723h-162z" />
    <glyph glyph-name="uni1E92" unicode="&#x1e92;" horiz-adv-x="954" 
d="M242 -406l41 228h186l-41 -228h-186zM-16 0l22 125l750 1169h-508l31 168h735l-21 -125l-749 -1169h567l-29 -168h-798z" />
    <glyph glyph-name="uni1E93" unicode="&#x1e93;" horiz-adv-x="821" 
d="M168 -406l41 228h186l-41 -228h-186zM-29 0l21 117l551 764h-379l26 159h617l-21 -116l-550 -764h442l-29 -160h-678z" />
    <glyph glyph-name="uni1EA0" unicode="&#x1ea0;" horiz-adv-x="1064" 
d="M328 -406l39 228h188l-41 -228h-186zM731 475l-74 723l-329 -723h403zM745 309h-489l-139 -309h-223l710 1462h187l200 -1462h-215z" />
    <glyph glyph-name="uni1EA1" unicode="&#x1ea1;" horiz-adv-x="942" 
d="M213 -406l39 228h188l-41 -228h-186zM453 475q-125 0 -179 -59q-55 -66 -55 -180q0 -57 35 -81t127 -24t136 41t63 152l26 151h-153zM653 774q0 127 -137 127q-70 0 -114 -33t-80 -110l-158 49q102 252 364 252q317 0 318 -260q0 -53 -19 -172l-110 -627h-154l-6 47
q-82 -68 -235 -67q-297 0 -297 221q0 203 93 309t320 106h193l12 60q10 63 10 98z" />
    <glyph glyph-name="uni1EA2" unicode="&#x1ea2;" horiz-adv-x="1064" 
d="M766 1833q0 35 -44 35t-116 -29l-16 117q96 33 168 33q170 0 170 -146q0 -45 -16 -69t-59 -66t-53 -60t-20 -61h-135q14 76 28 103q13 27 53 73t40 70zM731 475l-74 723l-329 -723h403zM745 309h-489l-139 -309h-223l710 1462h187l200 -1462h-215z" />
    <glyph glyph-name="uni1EA3" unicode="&#x1ea3;" horiz-adv-x="942" 
d="M611 1458q-46 0 -113 -28l-17 116q96 33 166 33q172 0 172 -145q0 -45 -15 -71q-14 -26 -60 -67t-55 -59t-17 -59h-135q14 76 27 102t65 84q29 35 28 59q0 35 -46 35zM453 475q-125 0 -179 -59q-55 -66 -55 -180q0 -57 35 -81t127 -24t136 41t63 152l26 151h-153z
M653 774q0 127 -137 127q-70 0 -114 -33t-80 -110l-158 49q102 252 364 252q317 0 318 -260q0 -53 -19 -172l-110 -627h-154l-6 47q-82 -68 -235 -67q-297 0 -297 221q0 203 93 309t320 106h193l12 60q10 63 10 98z" />
    <glyph glyph-name="uni1EA4" unicode="&#x1ea4;" horiz-adv-x="1064" 
d="M725 1675l-129 -114h-186l266 227h127l186 -227h-174zM676 1843l145 236h164l-201 -236h-108zM731 475l-74 723l-329 -723h403zM745 309h-489l-139 -309h-223l710 1462h187l200 -1462h-215z" />
    <glyph glyph-name="uni1EA5" unicode="&#x1ea5;" horiz-adv-x="942" 
d="M606 1255l-129 -114h-186l266 229h127l186 -229h-174zM557 1423l145 236h164l-200 -236h-109zM453 475q-125 0 -179 -59q-55 -66 -55 -180q0 -57 35 -81t127 -24t136 41t63 152l26 151h-153zM653 774q0 127 -137 127q-70 0 -114 -33t-80 -110l-158 49q102 252 364 252
q317 0 318 -260q0 -53 -19 -172l-110 -627h-154l-6 47q-82 -68 -235 -67q-297 0 -297 221q0 203 93 309t320 106h193l12 60q10 63 10 98z" />
    <glyph glyph-name="uni1EA6" unicode="&#x1ea6;" horiz-adv-x="1064" 
d="M725 1675l-129 -114h-186l266 227h127l186 -227h-174zM809 1843h-98l-129 236h151zM731 475l-74 723l-329 -723h403zM745 309h-489l-139 -309h-223l710 1462h187l200 -1462h-215z" />
    <glyph glyph-name="uni1EA7" unicode="&#x1ea7;" horiz-adv-x="942" 
d="M606 1255l-129 -114h-186l266 229h127l186 -229h-174zM690 1423h-98l-129 236h151zM453 475q-125 0 -179 -59q-55 -66 -55 -180q0 -57 35 -81t127 -24t136 41t63 152l26 151h-153zM653 774q0 127 -137 127q-70 0 -114 -33t-80 -110l-158 49q102 252 364 252
q317 0 318 -260q0 -53 -19 -172l-110 -627h-154l-6 47q-82 -68 -235 -67q-297 0 -297 221q0 203 93 309t320 106h193l12 60q10 63 10 98z" />
    <glyph glyph-name="uni1EA8" unicode="&#x1ea8;" horiz-adv-x="1064" 
d="M721 1671l-129 -110h-186l266 215h125l188 -215h-172zM734 2001q-32 0 -83 -23l-14 88q68 27 135 27q129 0 129 -102q0 -31 -11 -51t-50 -55q-39 -36 -41 -79h-119q8 47 19 69t39 50t28 47q0 29 -32 29zM731 475l-74 723l-329 -723h403zM745 309h-489l-139 -309h-223
l710 1462h187l200 -1462h-215z" />
    <glyph glyph-name="uni1EA9" unicode="&#x1ea9;" horiz-adv-x="942" 
d="M604 1251l-131 -110h-186l266 215h125l188 -215h-172zM647 1552q0 29 -31 29t-84 -22l-14 88q72 27 133 26q131 0 131 -102q0 -31 -11 -50t-50 -55t-41 -80h-119q6 45 19 68q12 23 40 51t27 47zM453 475q-125 0 -179 -59q-55 -66 -55 -180q0 -57 35 -81t127 -24t136 41
t63 152l26 151h-153zM653 774q0 127 -137 127q-70 0 -114 -33t-80 -110l-158 49q102 252 364 252q317 0 318 -260q0 -53 -19 -172l-110 -627h-154l-6 47q-82 -68 -235 -67q-297 0 -297 221q0 203 93 309t320 106h193l12 60q10 63 10 98z" />
    <glyph glyph-name="uni1EAA" unicode="&#x1eaa;" horiz-adv-x="1064" 
d="M731 1675l-129 -114h-188l268 227h125l186 -227h-172zM689 2077q63 1 103 -47t50 -57t20 -9q39 0 72 98h102q-38 -121 -76 -168t-105 -47t-114 60q-29 37 -38 45t-23 8q-45 0 -80 -98h-102q43 121 85 168t106 47zM731 475l-74 723l-329 -723h403zM745 309h-489l-139 -309
h-223l710 1462h187l200 -1462h-215z" />
    <glyph glyph-name="uni1EAB" unicode="&#x1eab;" horiz-adv-x="942" 
d="M612 1255l-129 -114h-188l268 229h125l186 -229h-172zM572 1659q66 0 103 -48q38 -47 48 -57t20 -10q39 0 72 101h103q-39 -125 -77 -171t-105 -46t-113 61q-29 37 -38 45t-22 8q-49 0 -82 -100h-102q41 121 84 169t109 48zM453 475q-125 0 -179 -59q-55 -66 -55 -180
q0 -57 35 -81t127 -24t136 41t63 152l26 151h-153zM653 774q0 127 -137 127q-70 0 -114 -33t-80 -110l-158 49q102 252 364 252q317 0 318 -260q0 -53 -19 -172l-110 -627h-154l-6 47q-82 -68 -235 -67q-297 0 -297 221q0 203 93 309t320 106h193l12 60q10 63 10 98z" />
    <glyph glyph-name="uni1EAC" unicode="&#x1eac;" horiz-adv-x="1064" 
d="M332 -406l41 228h186l-39 -228h-188zM729 1782l-135 -164h-197l281 283h133l180 -283h-182zM731 475l-74 723l-329 -723h403zM745 309h-489l-139 -309h-223l710 1462h187l200 -1462h-215z" />
    <glyph glyph-name="uni1EAD" unicode="&#x1ead;" horiz-adv-x="942" 
d="M233 -406l39 228h189l-41 -228h-187zM621 1362l-138 -164h-194l278 283h135l179 -283h-181zM453 475q-125 0 -179 -59q-55 -66 -55 -180q0 -57 35 -81t127 -24t136 41t63 152l26 151h-153zM653 774q0 127 -137 127q-70 0 -114 -33t-80 -110l-158 49q102 252 364 252
q317 0 318 -260q0 -53 -19 -172l-110 -627h-154l-6 47q-82 -68 -235 -67q-297 0 -297 221q0 203 93 309t320 106h193l12 60q10 63 10 98z" />
    <glyph glyph-name="uni1EAE" unicode="&#x1eae;" horiz-adv-x="1064" 
d="M596 1788q0 -98 127 -98q74 0 112 30t60 103h127q-23 -115 -59 -166q-78 -104 -254 -105q-238 0 -238 181q0 31 8 90h119q-2 -23 -2 -35zM676 1843l145 236h164l-201 -236h-108zM731 475l-74 723l-329 -723h403zM745 309h-489l-139 -309h-223l710 1462h187l200 -1462
h-215z" />
    <glyph glyph-name="uni1EAF" unicode="&#x1eaf;" horiz-adv-x="942" 
d="M477 1370q0 -102 127 -102q74 0 113 30t59 105h127q-27 -147 -96 -209q-70 -61 -204 -61t-192 44t-59 138q0 29 8 88h119q-2 -18 -2 -33zM557 1423l145 236h164l-200 -236h-109zM453 475q-125 0 -179 -59q-55 -66 -55 -180q0 -57 35 -81t127 -24t136 41t63 152l26 151
h-153zM653 774q0 127 -137 127q-70 0 -114 -33t-80 -110l-158 49q102 252 364 252q317 0 318 -260q0 -53 -19 -172l-110 -627h-154l-6 47q-82 -68 -235 -67q-297 0 -297 221q0 203 93 309t320 106h193l12 60q10 63 10 98z" />
    <glyph glyph-name="uni1EB0" unicode="&#x1eb0;" horiz-adv-x="1064" 
d="M596 1788q0 -98 127 -98q74 0 112 30t60 103h127q-23 -115 -59 -166q-78 -104 -254 -105q-238 0 -238 181q0 31 8 90h119q-2 -23 -2 -35zM817 1843h-98l-129 236h151zM731 475l-74 723l-329 -723h403zM745 309h-489l-139 -309h-223l710 1462h187l200 -1462h-215z" />
    <glyph glyph-name="uni1EB1" unicode="&#x1eb1;" horiz-adv-x="942" 
d="M477 1370q0 -102 127 -102q74 0 113 30t59 105h127q-27 -147 -96 -209q-70 -61 -204 -61t-192 44t-59 138q0 29 8 88h119q-2 -18 -2 -33zM698 1423h-98l-129 236h152zM453 475q-125 0 -179 -59q-55 -66 -55 -180q0 -57 35 -81t127 -24t136 41t63 152l26 151h-153z
M653 774q0 127 -137 127q-70 0 -114 -33t-80 -110l-158 49q102 252 364 252q317 0 318 -260q0 -53 -19 -172l-110 -627h-154l-6 47q-82 -68 -235 -67q-297 0 -297 221q0 203 93 309t320 106h193l12 60q10 63 10 98z" />
    <glyph glyph-name="uni1EB2" unicode="&#x1eb2;" horiz-adv-x="1064" 
d="M596 1788q0 -98 127 -98q74 0 112 30t60 103h127q-23 -115 -59 -166q-78 -104 -254 -105q-238 0 -238 181q0 31 8 90h119q-2 -23 -2 -35zM766 1972q0 29 -32 29t-83 -25l-12 90q68 27 133 27q129 0 129 -104q0 -35 -11 -55t-48 -55q-37 -36 -45 -87h-117q8 72 47 113
q39 47 39 67zM731 475l-74 723l-329 -723h403zM745 309h-489l-139 -309h-223l710 1462h187l200 -1462h-215z" />
    <glyph glyph-name="uni1EB3" unicode="&#x1eb3;" horiz-adv-x="942" 
d="M477 1370q0 -102 127 -102q74 0 113 30t59 105h127q-27 -147 -96 -209q-70 -61 -204 -61t-192 44t-59 138q0 29 8 88h119q-2 -18 -2 -33zM647 1552q0 29 -31 29t-84 -22l-12 88q68 27 133 26q129 0 129 -104q0 -33 -11 -52t-48 -57t-45 -86h-117q8 68 47 112t39 66z
M453 475q-125 0 -179 -59q-55 -66 -55 -180q0 -57 35 -81t127 -24t136 41t63 152l26 151h-153zM653 774q0 127 -137 127q-70 0 -114 -33t-80 -110l-158 49q102 252 364 252q317 0 318 -260q0 -53 -19 -172l-110 -627h-154l-6 47q-82 -68 -235 -67q-297 0 -297 221
q0 203 93 309t320 106h193l12 60q10 63 10 98z" />
    <glyph glyph-name="uni1EB4" unicode="&#x1eb4;" horiz-adv-x="1064" 
d="M582 1772q0 -92 129 -93q71 0 107 28t59 97h118q-27 -113 -57 -153q-74 -96 -242 -97q-233 0 -233 172q0 31 8 78h113q-2 -20 -2 -32zM685 2087q64 0 112 -55q31 -42 40 -50t21 -8q39 0 72 99h102q-39 -125 -78 -170q-40 -45 -106 -45t-113 59q-29 37 -37 45t-22 8
q-43 0 -82 -98h-100q41 121 84 168t107 47zM731 475l-74 723l-329 -723h403zM745 309h-489l-139 -309h-223l710 1462h187l200 -1462h-215z" />
    <glyph glyph-name="uni1EB5" unicode="&#x1eb5;" horiz-adv-x="942" 
d="M463 1354q0 -94 127 -94q74 0 110 28t58 96h119q-25 -113 -58 -153q-74 -96 -241 -96q-233 0 -234 172q0 30 8 77h113q-2 -14 -2 -30zM566 1667q64 0 112 -55q31 -41 40 -49t21 -9q41 0 72 99h102q-41 -125 -79 -170t-104 -45q-67 0 -112 59q-29 37 -37 45q-9 8 -24 8
q-45 0 -82 -98h-100q41 119 84 167t107 48zM453 475q-125 0 -179 -59q-55 -66 -55 -180q0 -57 35 -81t127 -24t136 41t63 152l26 151h-153zM653 774q0 127 -137 127q-70 0 -114 -33t-80 -110l-158 49q102 252 364 252q317 0 318 -260q0 -53 -19 -172l-110 -627h-154l-6 47
q-82 -68 -235 -67q-297 0 -297 221q0 203 93 309t320 106h193l12 60q10 63 10 98z" />
    <glyph glyph-name="uni1EB6" unicode="&#x1eb6;" horiz-adv-x="1064" 
d="M332 -406l41 228h186l-39 -228h-188zM594 1845q0 -102 125 -102q73 0 111 33t61 116h129q-20 -127 -55 -178q-70 -115 -252 -115q-250 0 -250 189q0 38 10 104h125q-4 -37 -4 -47zM731 475l-74 723l-329 -723h403zM745 309h-489l-139 -309h-223l710 1462h187l200 -1462
h-215z" />
    <glyph glyph-name="uni1EB7" unicode="&#x1eb7;" horiz-adv-x="942" 
d="M217 -406l41 228h186l-38 -228h-189zM469 1423q0 -100 123 -100q76 0 113 32t61 118h127q-18 -125 -53 -179q-70 -115 -250 -114q-252 0 -252 188q0 37 10 105h125q-4 -29 -4 -50zM453 475q-125 0 -179 -59q-55 -66 -55 -180q0 -57 35 -81t127 -24t136 41t63 152l26 151
h-153zM653 774q0 127 -137 127q-70 0 -114 -33t-80 -110l-158 49q102 252 364 252q317 0 318 -260q0 -53 -19 -172l-110 -627h-154l-6 47q-82 -68 -235 -67q-297 0 -297 221q0 203 93 309t320 106h193l12 60q10 63 10 98z" />
    <glyph glyph-name="uni1EB8" unicode="&#x1eb8;" horiz-adv-x="1013" 
d="M358 -406l39 228h189l-41 -228h-187zM76 0l258 1462h751l-28 -168h-551l-84 -471h469l-31 -168h-467l-86 -487h555l-28 -168h-758z" />
    <glyph glyph-name="uni1EB9" unicode="&#x1eb9;" horiz-adv-x="968" 
d="M256 -406l39 228h188l-41 -228h-186zM326 621h372q14 88 15 131q0 158 -154 157q-182 0 -225 -250zM279 299q0 -164 161 -164q76 0 124 35t81 113l160 -37q-53 -142 -143 -204t-248 -62q-326 0 -326 303q0 90 18 190l27 150q39 217 123 315q102 121 303 121
q334 0 334 -301q0 -98 -35 -281h-557l-12 -74q-10 -66 -10 -104z" />
    <glyph glyph-name="uni1EBA" unicode="&#x1eba;" horiz-adv-x="1013" 
d="M766 1833q0 35 -46 35t-114 -29l-16 117q96 33 168 33q170 0 170 -146q0 -45 -16 -69t-59 -66t-53 -60t-20 -61h-133q14 76 27 103q12 27 52 71t40 72zM76 0l258 1462h751l-28 -168h-551l-84 -471h469l-31 -168h-467l-86 -487h555l-28 -168h-758z" />
    <glyph glyph-name="uni1EBB" unicode="&#x1ebb;" horiz-adv-x="968" 
d="M645 1423q0 35 -46 35t-114 -28l-16 116q96 33 166 33q172 0 172 -145q0 -45 -15 -71q-16 -26 -60 -66t-54 -58t-19 -61h-135q14 78 26 102t54 72q41 47 41 71zM326 621h372q14 88 15 131q0 158 -154 157q-182 0 -225 -250zM279 299q0 -164 161 -164q76 0 124 35t81 113
l160 -37q-53 -142 -143 -204t-248 -62q-326 0 -326 303q0 90 18 190l27 150q39 217 123 315q102 121 303 121q334 0 334 -301q0 -98 -35 -281h-557l-12 -74q-10 -66 -10 -104z" />
    <glyph glyph-name="uni1EBC" unicode="&#x1ebc;" horiz-adv-x="1013" 
d="M642 1886q75 0 132 -63q61 -63 86 -63t42 24q17 25 40 88h119q-47 -150 -90 -201t-124 -51t-134 64t-80 63q-51 0 -90 -113h-119q49 144 96 198t122 54zM76 0l258 1462h751l-28 -168h-551l-84 -471h469l-31 -168h-467l-86 -487h555l-28 -168h-758z" />
    <glyph glyph-name="uni1EBD" unicode="&#x1ebd;" horiz-adv-x="968" 
d="M528 1466q76 0 132 -64t83 -65q27 0 44 25t40 90h119q-45 -150 -89 -202t-124 -52t-139 68q-49 61 -76 61q-51 0 -90 -113h-119q49 144 97 198q46 54 122 54zM326 621h372q14 88 15 131q0 158 -154 157q-182 0 -225 -250zM279 299q0 -164 161 -164q76 0 124 35t81 113
l160 -37q-53 -142 -143 -204t-248 -62q-326 0 -326 303q0 90 18 190l27 150q39 217 123 315q102 121 303 121q334 0 334 -301q0 -98 -35 -281h-557l-12 -74q-10 -66 -10 -104z" />
    <glyph glyph-name="uni1EBE" unicode="&#x1ebe;" horiz-adv-x="1013" 
d="M741 1675l-129 -114h-186l266 227h127l187 -227h-175zM692 1843l146 236h163l-200 -236h-109zM76 0l258 1462h751l-28 -168h-551l-84 -471h469l-31 -168h-467l-86 -487h555l-28 -168h-758z" />
    <glyph glyph-name="uni1EBF" unicode="&#x1ebf;" horiz-adv-x="968" 
d="M621 1255l-129 -114h-189l268 229h125l189 -229h-174zM569 1423l148 236h164l-201 -236h-111zM326 621h372q14 88 15 131q0 158 -154 157q-182 0 -225 -250zM279 299q0 -164 161 -164q76 0 124 35t81 113l160 -37q-53 -142 -143 -204t-248 -62q-326 0 -326 303
q0 90 18 190l27 150q39 217 123 315q102 121 303 121q334 0 334 -301q0 -98 -35 -281h-557l-12 -74q-10 -66 -10 -104z" />
    <glyph glyph-name="uni1EC0" unicode="&#x1ec0;" horiz-adv-x="1013" 
d="M741 1675l-129 -114h-186l268 227h125l187 -227h-175zM825 1843h-98l-129 236h152zM76 0l258 1462h751l-28 -168h-551l-84 -471h469l-31 -168h-467l-86 -487h555l-28 -168h-758z" />
    <glyph glyph-name="uni1EC1" unicode="&#x1ec1;" horiz-adv-x="968" 
d="M621 1255l-129 -114h-189l268 229h125l189 -229h-174zM705 1423h-99l-129 236h152zM326 621h372q14 88 15 131q0 158 -154 157q-182 0 -225 -250zM279 299q0 -164 161 -164q76 0 124 35t81 113l160 -37q-53 -142 -143 -204t-248 -62q-326 0 -326 303q0 90 18 190l27 150
q39 217 123 315q102 121 303 121q334 0 334 -301q0 -98 -35 -281h-557l-12 -74q-10 -66 -10 -104z" />
    <glyph glyph-name="uni1EC2" unicode="&#x1ec2;" horiz-adv-x="1013" 
d="M739 1671l-129 -110h-188l266 215h125l188 -215h-172zM782 1972q0 29 -32 29t-82 -23l-15 88q66 27 135 27q129 0 130 -102q0 -31 -12 -51t-48 -54q-37 -35 -43 -80h-119q8 47 20 69q10 22 38 50t28 47zM76 0l258 1462h751l-28 -168h-551l-84 -471h469l-31 -168h-467
l-86 -487h555l-28 -168h-758z" />
    <glyph glyph-name="uni1EC3" unicode="&#x1ec3;" horiz-adv-x="968" 
d="M616 1251l-129 -110h-186l264 215h127l189 -215h-174zM630 1581q-32 0 -85 -22l-13 88q68 27 134 26q131 0 131 -102q-1 -31 -13 -51t-49 -56t-43 -78h-117q6 45 18 68q11 23 48 59q20 25 21 39q0 29 -32 29zM326 621h372q14 88 15 131q0 158 -154 157q-182 0 -225 -250z
M279 299q0 -164 161 -164q76 0 124 35t81 113l160 -37q-53 -142 -143 -204t-248 -62q-326 0 -326 303q0 90 18 190l27 150q39 217 123 315q102 121 303 121q334 0 334 -301q0 -98 -35 -281h-557l-12 -74q-10 -66 -10 -104z" />
    <glyph glyph-name="uni1EC4" unicode="&#x1ec4;" horiz-adv-x="1013" 
d="M748 1675l-130 -114h-188l268 227h125l189 -227h-174zM706 2077q64 1 103 -47t49 -57t21 -9q39 0 71 98h103q-39 -123 -77 -169t-105 -46t-113 60q-29 37 -38 45t-22 8q-47 0 -82 -98h-102q43 121 85 168q43 47 107 47zM76 0l258 1462h751l-28 -168h-551l-84 -471h469
l-31 -168h-467l-86 -487h555l-28 -168h-758z" />
    <glyph glyph-name="uni1EC5" unicode="&#x1ec5;" horiz-adv-x="968" 
d="M627 1255l-131 -114h-187l266 229h127l187 -229h-174zM586 1659q66 0 104 -49q38 -50 46 -58q9 -8 22 -8q39 0 71 101h103q-41 -125 -79 -171q-37 -46 -103 -46t-115 61q-29 37 -37 45t-23 8q-46 0 -81 -100h-103q41 121 85 169t110 48zM326 621h372q14 88 15 131
q0 158 -154 157q-182 0 -225 -250zM279 299q0 -164 161 -164q76 0 124 35t81 113l160 -37q-53 -142 -143 -204t-248 -62q-326 0 -326 303q0 90 18 190l27 150q39 217 123 315q102 121 303 121q334 0 334 -301q0 -98 -35 -281h-557l-12 -74q-10 -66 -10 -104z" />
    <glyph glyph-name="uni1EC6" unicode="&#x1ec6;" horiz-adv-x="1013" 
d="M352 -406l41 228h187l-39 -228h-189zM762 1782l-137 -164h-195l279 283h135l178 -283h-180zM76 0l258 1462h751l-28 -168h-551l-84 -471h469l-31 -168h-467l-86 -487h555l-28 -168h-758z" />
    <glyph glyph-name="uni1EC7" unicode="&#x1ec7;" horiz-adv-x="968" 
d="M238 -406l38 228h189l-41 -228h-186zM643 1362l-137 -164h-195l279 283h135l178 -283h-180zM326 621h372q14 88 15 131q0 158 -154 157q-182 0 -225 -250zM279 299q0 -164 161 -164q76 0 124 35t81 113l160 -37q-53 -142 -143 -204t-248 -62q-326 0 -326 303q0 90 18 190
l27 150q39 217 123 315q102 121 303 121q334 0 334 -301q0 -98 -35 -281h-557l-12 -74q-10 -66 -10 -104z" />
    <glyph glyph-name="uni1EC8" unicode="&#x1ec8;" horiz-adv-x="534" 
d="M510 1833q0 35 -46 35t-114 -29l-16 117q96 33 166 33q172 0 172 -146q0 -45 -16 -71t-76 -78q-28 -30 -38 -48t-18 -59h-135q14 76 28 104q13 28 53 71t40 71zM76 0l258 1462h203l-258 -1462h-203z" />
    <glyph glyph-name="uni1EC9" unicode="&#x1ec9;" horiz-adv-x="475" 
d="M357 1458q-46 0 -113 -28l-17 116q96 33 166 33q172 0 172 -145q0 -45 -15 -71t-77 -81q-29 -29 -38 -45t-17 -59h-135q14 76 27 102q14 26 54 71q40 44 39 72q0 35 -46 35zM49 0l182 1040h195l-184 -1040h-193z" />
    <glyph glyph-name="uni1ECA" unicode="&#x1eca;" horiz-adv-x="536" 
d="M10 -406l41 228h187l-41 -228h-187zM76 0l258 1462h203l-258 -1462h-203z" />
    <glyph glyph-name="uni1ECB" unicode="&#x1ecb;" horiz-adv-x="475" 
d="M-20 -406l40 228h187l-41 -228h-186zM49 0l184 1040h193l-184 -1040h-193zM268 1237l41 233h193l-41 -233h-193z" />
    <glyph glyph-name="uni1ECC" unicode="&#x1ecc;" horiz-adv-x="1179" 
d="M334 -406l39 228h188l-41 -228h-186zM711 1317q-117 0 -188 -83t-105 -284l-78 -438q-18 -104 -18 -183t54 -131t170 -52t188 83q71 84 106 283l75 438q20 115 21 166q0 201 -225 201zM717 1483q420 0 422 -350q0 -76 -23 -195l-82 -475q-26 -139 -58 -215t-91 -137
q-129 -131 -357 -131q-410 0 -409 348q0 73 20 196l84 475q25 139 57 214t93 139q129 131 344 131z" />
    <glyph glyph-name="uni1ECD" unicode="&#x1ecd;" horiz-adv-x="987" 
d="M236 -406l40 228h187l-39 -228h-188zM430 137q98 1 150 63t79 212l39 217q12 74 13 121q0 152 -154 151q-98 0 -151 -63t-78 -209l-39 -217q-12 -68 -13 -121q0 -154 154 -154zM561 1059q342 0 342 -293q0 -61 -18 -170l-37 -213q-39 -217 -136 -310t-286 -93
q-342 0 -342 294q0 72 18 170l37 213q39 217 136 309t286 93z" />
    <glyph glyph-name="uni1ECE" unicode="&#x1ece;" horiz-adv-x="1179" 
d="M838 1833q0 35 -46 35t-114 -29l-16 117q96 33 165 33q172 0 172 -146q0 -45 -16 -71q-17 -26 -61 -65q-44 -41 -53 -59t-17 -61h-135q14 76 27 104q14 28 54 71t40 71zM711 1317q-117 0 -188 -83t-105 -284l-78 -438q-18 -104 -18 -183t54 -131t170 -52t188 83
q71 84 106 283l75 438q20 115 21 166q0 201 -225 201zM717 1483q420 0 422 -350q0 -76 -23 -195l-82 -475q-26 -139 -58 -215t-91 -137q-129 -131 -357 -131q-410 0 -409 348q0 73 20 196l84 475q25 139 57 214t93 139q129 131 344 131z" />
    <glyph glyph-name="uni1ECF" unicode="&#x1ecf;" horiz-adv-x="987" 
d="M666 1423q0 35 -46 35t-116 -28l-15 116q94 33 166 33q172 0 172 -145q0 -45 -16 -72q-17 -27 -61 -67t-52 -57t-18 -60h-135q16 80 28 106t64 80q29 35 29 59zM430 137q98 1 150 63t79 212l39 217q12 74 13 121q0 152 -154 151q-98 0 -151 -63t-78 -209l-39 -217
q-12 -68 -13 -121q0 -154 154 -154zM561 1059q342 0 342 -293q0 -61 -18 -170l-37 -213q-39 -217 -136 -310t-286 -93q-342 0 -342 294q0 72 18 170l37 213q39 217 136 309t286 93z" />
    <glyph glyph-name="uni1ED0" unicode="&#x1ed0;" horiz-adv-x="1179" 
d="M788 1675l-131 -114h-186l268 227h125l187 -227h-174zM737 1843l146 236h164l-201 -236h-109zM711 1317q-117 0 -188 -83t-105 -284l-78 -438q-18 -104 -18 -183t54 -131t170 -52t188 83q71 84 106 283l75 438q20 115 21 166q0 201 -225 201zM717 1483q420 0 422 -350
q0 -76 -23 -195l-82 -475q-26 -139 -58 -215t-91 -137q-129 -131 -357 -131q-410 0 -409 348q0 73 20 196l84 475q25 139 57 214t93 139q129 131 344 131z" />
    <glyph glyph-name="uni1ED1" unicode="&#x1ed1;" horiz-adv-x="987" 
d="M627 1255l-131 -114h-187l266 229h127l187 -229h-174zM575 1423l146 236h164l-201 -236h-109zM430 137q98 1 150 63t79 212l39 217q12 74 13 121q0 152 -154 151q-98 0 -151 -63t-78 -209l-39 -217q-12 -68 -13 -121q0 -154 154 -154zM561 1059q342 0 342 -293
q0 -61 -18 -170l-37 -213q-39 -217 -136 -310t-286 -93q-342 0 -342 294q0 72 18 170l37 213q39 217 136 309t286 93z" />
    <glyph glyph-name="uni1ED2" unicode="&#x1ed2;" horiz-adv-x="1179" 
d="M788 1675l-131 -114h-186l268 227h125l187 -227h-174zM870 1843h-98l-127 236h150zM711 1317q-117 0 -188 -83t-105 -284l-78 -438q-18 -104 -18 -183t54 -131t170 -52t188 83q71 84 106 283l75 438q20 115 21 166q0 201 -225 201zM717 1483q420 0 422 -350
q0 -76 -23 -195l-82 -475q-26 -139 -58 -215t-91 -137q-129 -131 -357 -131q-410 0 -409 348q0 73 20 196l84 475q25 139 57 214t93 139q129 131 344 131z" />
    <glyph glyph-name="uni1ED3" unicode="&#x1ed3;" horiz-adv-x="987" 
d="M627 1255l-131 -114h-187l269 229h124l187 -229h-174zM709 1423h-99l-127 236h150zM430 137q98 1 150 63t79 212l39 217q12 74 13 121q0 152 -154 151q-98 0 -151 -63t-78 -209l-39 -217q-12 -68 -13 -121q0 -154 154 -154zM561 1059q342 0 342 -293q0 -61 -18 -170
l-37 -213q-39 -217 -136 -310t-286 -93q-342 0 -342 294q0 72 18 170l37 213q39 217 136 309t286 93z" />
    <glyph glyph-name="uni1ED4" unicode="&#x1ed4;" horiz-adv-x="1179" 
d="M784 1671l-129 -110h-188l266 215h125l191 -215h-175zM827 1972q1 29 -31 29t-83 -23l-15 88q68 27 136 27q129 0 129 -102q1 -31 -11 -51t-49 -54q-37 -35 -43 -80h-119q8 47 20 69q11 22 39 50t27 47zM711 1317q-117 0 -188 -83t-105 -284l-78 -438q-18 -104 -18 -183
t54 -131t170 -52t188 83q71 84 106 283l75 438q20 115 21 166q0 201 -225 201zM717 1483q420 0 422 -350q0 -76 -23 -195l-82 -475q-26 -139 -58 -215t-91 -137q-129 -131 -357 -131q-410 0 -409 348q0 73 20 196l84 475q25 139 57 214t93 139q129 131 344 131z" />
    <glyph glyph-name="uni1ED5" unicode="&#x1ed5;" horiz-adv-x="987" 
d="M623 1251l-129 -110h-189l266 215h125l191 -215h-174zM635 1581q-31 0 -84 -22l-14 88q72 27 135 26q129 0 129 -102q0 -33 -11 -51q-10 -18 -48 -54t-44 -80h-118q6 45 18 69t40 51t28 46q0 29 -31 29zM430 137q98 1 150 63t79 212l39 217q12 74 13 121q0 152 -154 151
q-98 0 -151 -63t-78 -209l-39 -217q-12 -68 -13 -121q0 -154 154 -154zM561 1059q342 0 342 -293q0 -61 -18 -170l-37 -213q-39 -217 -136 -310t-286 -93q-342 0 -342 294q0 72 18 170l37 213q39 217 136 309t286 93z" />
    <glyph glyph-name="uni1ED6" unicode="&#x1ed6;" horiz-adv-x="1179" 
d="M793 1675l-129 -114h-187l266 227h125l189 -227h-174zM753 2077q67 0 109 -56q33 -41 42 -49t22 -8q37 0 69 98h103q-39 -123 -77 -169q-39 -46 -105 -46t-113 60q-29 37 -38 45t-22 8q-46 0 -81 -98h-103q45 123 86 169t108 46zM711 1317q-117 0 -188 -83t-105 -284
l-78 -438q-18 -104 -18 -183t54 -131t170 -52t188 83q71 84 106 283l75 438q20 115 21 166q0 201 -225 201zM717 1483q420 0 422 -350q0 -76 -23 -195l-82 -475q-26 -139 -58 -215t-91 -137q-129 -131 -357 -131q-410 0 -409 348q0 73 20 196l84 475q25 139 57 214t93 139
q129 131 344 131z" />
    <glyph glyph-name="uni1ED7" unicode="&#x1ed7;" horiz-adv-x="987" 
d="M623 1255l-131 -114h-187l266 229h127l187 -229h-174zM582 1659q66 0 104 -49q38 -50 46 -58q9 -8 22 -8q39 0 71 101h103q-39 -127 -78 -172t-105 -45t-114 61q-29 37 -37 45t-23 8q-47 0 -82 -100h-100q41 121 84 169t109 48zM430 137q98 1 150 63t79 212l39 217
q12 74 13 121q0 152 -154 151q-98 0 -151 -63t-78 -209l-39 -217q-12 -68 -13 -121q0 -154 154 -154zM561 1059q342 0 342 -293q0 -61 -18 -170l-37 -213q-39 -217 -136 -310t-286 -93q-342 0 -342 294q0 72 18 170l37 213q39 217 136 309t286 93z" />
    <glyph glyph-name="uni1ED8" unicode="&#x1ed8;" horiz-adv-x="1179" 
d="M334 -406l39 228h188l-41 -228h-186zM801 1782l-137 -164h-195l279 283h135l180 -283h-182zM711 1317q-117 0 -188 -83t-105 -284l-78 -438q-18 -104 -18 -183t54 -131t170 -52t188 83q71 84 106 283l75 438q20 115 21 166q0 201 -225 201zM717 1483q420 0 422 -350
q0 -76 -23 -195l-82 -475q-26 -139 -58 -215t-91 -137q-129 -131 -357 -131q-410 0 -409 348q0 73 20 196l84 475q25 139 57 214t93 139q129 131 344 131z" />
    <glyph glyph-name="uni1ED9" unicode="&#x1ed9;" horiz-adv-x="987" 
d="M236 -406l40 228h187l-39 -228h-188zM643 1362l-137 -164h-195l279 283h135l180 -283h-182zM430 137q98 1 150 63t79 212l39 217q12 74 13 121q0 152 -154 151q-98 0 -151 -63t-78 -209l-39 -217q-12 -68 -13 -121q0 -154 154 -154zM561 1059q342 0 342 -293
q0 -61 -18 -170l-37 -213q-39 -217 -136 -310t-286 -93q-342 0 -342 294q0 72 18 170l37 213q39 217 136 309t286 93z" />
    <glyph glyph-name="uni1EDA" unicode="&#x1eda;" horiz-adv-x="1245" 
d="M719 1612l192 297h219l-266 -297h-145zM710 1315q-116 0 -187 -84t-105 -281l-78 -438q-18 -102 -18 -182t54 -132t170 -52t188 83q71 84 106 283l75 438q20 111 21 166q0 199 -226 199zM530 -20q-412 0 -411 350q0 86 20 194l84 475q25 137 58 214q116 270 452 270
q360 0 400 -293q139 94 139 221q0 33 -12 74h167q4 -25 5 -51q0 -147 -111 -242q-63 -55 -188 -123l-3 -10v-29q-4 -47 -14 -92l-82 -475q-26 -137 -58 -214t-91 -138q-129 -131 -355 -131z" />
    <glyph glyph-name="uni1EDB" unicode="&#x1edb;" horiz-adv-x="1058" 
d="M545 1190l190 299h221l-268 -299h-143zM430 137q98 1 150 63t79 212l39 217q12 74 13 121q0 152 -154 151q-98 0 -151 -63t-78 -209l-39 -217q-12 -68 -13 -121q0 -154 154 -154zM1178 1004q0 -106 -69 -192t-216 -161q-8 -59 -10 -65l-35 -203q-39 -217 -136 -310
t-286 -93q-342 0 -342 294q0 72 18 170l37 213q39 217 136 309t279 93q182 0 262 -68q81 -68 85 -217q6 4 12 10q104 92 105 201q0 35 -12 72h168q4 -27 4 -53z" />
    <glyph glyph-name="uni1EDC" unicode="&#x1edc;" horiz-adv-x="1245" 
d="M924 1612h-142l-164 299h207zM710 1315q-116 0 -187 -84t-105 -281l-78 -438q-18 -102 -18 -182t54 -132t170 -52t188 83q71 84 106 283l75 438q20 111 21 166q0 199 -226 199zM530 -20q-412 0 -411 350q0 86 20 194l84 475q25 137 58 214q116 270 452 270
q360 0 400 -293q139 94 139 221q0 33 -12 74h167q4 -25 5 -51q0 -147 -111 -242q-63 -55 -188 -123l-3 -10v-29q-4 -47 -14 -92l-82 -475q-26 -137 -58 -214t-91 -138q-129 -131 -355 -131z" />
    <glyph glyph-name="uni1EDD" unicode="&#x1edd;" horiz-adv-x="1058" 
d="M750 1190h-140l-164 299h207zM430 137q98 1 150 63t79 212l39 217q12 74 13 121q0 152 -154 151q-98 0 -151 -63t-78 -209l-39 -217q-12 -68 -13 -121q0 -154 154 -154zM1178 1004q0 -106 -69 -192t-216 -161q-8 -59 -10 -65l-35 -203q-39 -217 -136 -310t-286 -93
q-342 0 -342 294q0 72 18 170l37 213q39 217 136 309t279 93q182 0 262 -68q81 -68 85 -217q6 4 12 10q104 92 105 201q0 35 -12 72h168q4 -27 4 -53z" />
    <glyph glyph-name="uni1EDE" unicode="&#x1ede;" horiz-adv-x="1245" 
d="M838 1833q0 35 -48 35t-114 -29l-14 117q92 33 165 33q172 0 172 -146q0 -45 -16 -71t-76 -78q-29 -28 -38 -46t-17 -61h-135q14 76 26 103t66 84q29 35 29 59zM710 1315q-116 0 -187 -84t-105 -281l-78 -438q-18 -102 -18 -182t54 -132t170 -52t188 83q71 84 106 283
l75 438q20 111 21 166q0 199 -226 199zM530 -20q-412 0 -411 350q0 86 20 194l84 475q25 137 58 214q116 270 452 270q360 0 400 -293q139 94 139 221q0 33 -12 74h167q4 -25 5 -51q0 -147 -111 -242q-63 -55 -188 -123l-3 -10v-29q-4 -47 -14 -92l-82 -475
q-26 -137 -58 -214t-91 -138q-129 -131 -355 -131z" />
    <glyph glyph-name="uni1EDF" unicode="&#x1edf;" horiz-adv-x="1058" 
d="M664 1423q0 35 -46 35t-114 -28l-17 116q96 33 166 33q172 0 172 -145q0 -45 -15 -71q-14 -26 -60 -67t-54 -58t-18 -60h-135q14 76 26 102t66 84q29 35 29 59zM430 137q98 1 150 63t79 212l39 217q12 74 13 121q0 152 -154 151q-98 0 -151 -63t-78 -209l-39 -217
q-12 -68 -13 -121q0 -154 154 -154zM1178 1004q0 -106 -69 -192t-216 -161q-8 -59 -10 -65l-35 -203q-39 -217 -136 -310t-286 -93q-342 0 -342 294q0 72 18 170l37 213q39 217 136 309t279 93q182 0 262 -68q81 -68 85 -217q6 4 12 10q104 92 105 201q0 35 -12 72h168
q4 -27 4 -53z" />
    <glyph glyph-name="uni1EE0" unicode="&#x1ee0;" horiz-adv-x="1245" 
d="M720 1886q75 0 133 -63t83 -63t42 24q17 25 40 88h119q-29 -100 -58 -154q-57 -98 -146 -98t-143 64t-81 63q-52 0 -91 -113h-118q47 140 96 196t124 56zM710 1315q-116 0 -187 -84t-105 -281l-78 -438q-18 -102 -18 -182t54 -132t170 -52t188 83q71 84 106 283l75 438
q20 111 21 166q0 199 -226 199zM530 -20q-412 0 -411 350q0 86 20 194l84 475q25 137 58 214q116 270 452 270q360 0 400 -293q139 94 139 221q0 33 -12 74h167q4 -25 5 -51q0 -147 -111 -242q-63 -55 -188 -123l-3 -10v-29q-4 -47 -14 -92l-82 -475q-26 -137 -58 -214
t-91 -138q-129 -131 -355 -131z" />
    <glyph glyph-name="uni1EE1" unicode="&#x1ee1;" horiz-adv-x="1058" 
d="M532 1466q76 0 132 -64t82 -65q26 0 45 24q18 24 40 91h119q-45 -150 -89 -202t-125 -52t-134 64t-80 65q-53 0 -90 -113h-119q47 144 95 198t124 54zM430 137q98 1 150 63t79 212l39 217q12 74 13 121q0 152 -154 151q-98 0 -151 -63t-78 -209l-39 -217
q-12 -68 -13 -121q0 -154 154 -154zM1178 1004q0 -106 -69 -192t-216 -161q-8 -59 -10 -65l-35 -203q-39 -217 -136 -310t-286 -93q-342 0 -342 294q0 72 18 170l37 213q39 217 136 309t279 93q182 0 262 -68q81 -68 85 -217q6 4 12 10q104 92 105 201q0 35 -12 72h168
q4 -27 4 -53z" />
    <glyph glyph-name="uni1EE2" unicode="&#x1ee2;" horiz-adv-x="1245" 
d="M360 -406l39 228h189l-41 -228h-187zM710 1315q-116 0 -187 -84t-105 -281l-78 -438q-18 -102 -18 -182t54 -132t170 -52t188 83q71 84 106 283l75 438q20 111 21 166q0 199 -226 199zM530 -20q-412 0 -411 350q0 86 20 194l84 475q25 137 58 214q116 270 452 270
q360 0 400 -293q139 94 139 221q0 33 -12 74h167q4 -25 5 -51q0 -147 -111 -242q-63 -55 -188 -123l-3 -10v-29q-4 -47 -14 -92l-82 -475q-26 -137 -58 -214t-91 -138q-129 -131 -355 -131z" />
    <glyph glyph-name="uni1EE3" unicode="&#x1ee3;" horiz-adv-x="1058" 
d="M252 -406l39 228h188l-41 -228h-186zM430 137q98 1 150 63t79 212l39 217q12 74 13 121q0 152 -154 151q-98 0 -151 -63t-78 -209l-39 -217q-12 -68 -13 -121q0 -154 154 -154zM1178 1004q0 -106 -69 -192t-216 -161q-8 -59 -10 -65l-35 -203q-39 -217 -136 -310
t-286 -93q-342 0 -342 294q0 72 18 170l37 213q39 217 136 309t279 93q182 0 262 -68q81 -68 85 -217q6 4 12 10q104 92 105 201q0 35 -12 72h168q4 -27 4 -53z" />
    <glyph glyph-name="uni1EE4" unicode="&#x1ee4;" horiz-adv-x="1204" 
d="M344 -406l41 228h186l-39 -228h-188zM342 326q0 -178 199 -179q154 0 229 121q37 59 66 211l172 983h202l-178 -1018q-24 -140 -50 -204t-77 -119q-127 -139 -361 -139t-333 110q-72 88 -72 209q0 74 25 215l166 946h202l-172 -983q-18 -109 -18 -153z" />
    <glyph glyph-name="uni1EE5" unicode="&#x1ee5;" 
d="M233 -406l39 228h189l-41 -228h-187zM293 293q0 -145 123 -146q92 0 143 73t82 247l100 573h193l-182 -1040h-140l-4 94q-51 -63 -106 -89t-142 -25q-126 0 -196 64t-70 183q0 78 25 217l104 596h195l-107 -604q-18 -94 -18 -143z" />
    <glyph glyph-name="uni1EE6" unicode="&#x1ee6;" horiz-adv-x="1204" 
d="M838 1833q0 35 -48 35t-112 -29l-16 117q92 33 167 33q170 0 170 -146q0 -45 -16 -71t-76 -78q-29 -28 -38 -46t-17 -61h-135q14 76 26 103t66 84q29 35 29 59zM342 326q0 -178 199 -179q154 0 229 121q37 59 66 211l172 983h202l-178 -1018q-24 -140 -50 -204t-77 -119
q-127 -139 -361 -139t-333 110q-72 88 -72 209q0 74 25 215l166 946h202l-172 -983q-18 -109 -18 -153z" />
    <glyph glyph-name="uni1EE7" unicode="&#x1ee7;" 
d="M647 1423q0 35 -46 35t-114 -28l-16 116q96 33 166 33q172 0 172 -145q0 -45 -15 -71t-77 -81q-29 -29 -38 -45t-17 -59h-136q14 76 28 102t53 71q40 44 40 72zM293 293q0 -145 123 -146q92 0 143 73t82 247l100 573h193l-182 -1040h-140l-4 94q-51 -63 -106 -89
t-142 -25q-126 0 -196 64t-70 183q0 78 25 217l104 596h195l-107 -604q-18 -94 -18 -143z" />
    <glyph glyph-name="uni1EE8" unicode="&#x1ee8;" horiz-adv-x="1308" 
d="M745 1612l191 297h221l-268 -297h-144zM342 326q0 -178 201 -179q152 0 227 121q37 61 66 211l172 983h202l-53 -307q105 55 151 115t46 143q0 31 -11 72h168q2 -27 2 -53q0 -198 -224 -326q-42 -25 -154 -80l-103 -582q-24 -140 -50 -204t-77 -119q-127 -139 -363 -139
t-331 110q-72 88 -72 209q0 74 25 215l166 946h202l-172 -983q-18 -109 -18 -153z" />
    <glyph glyph-name="uni1EE9" unicode="&#x1ee9;" horiz-adv-x="1103" 
d="M547 1190l190 299h221l-266 -299h-145zM293 291q0 -143 123 -144q92 0 143 73t82 247l100 573h193l-55 -313q199 102 198 260q0 31 -10 70h168q2 -23 2 -51q0 -125 -82 -213t-299 -195l-104 -598h-140l-4 94q-49 -63 -105 -89t-143 -25q-126 0 -196 64t-70 166
q0 101 25 234l104 596h195l-107 -604q-18 -92 -18 -145z" />
    <glyph glyph-name="uni1EEA" unicode="&#x1eea;" horiz-adv-x="1308" 
d="M922 1612h-140l-164 299h207zM342 326q0 -178 201 -179q152 0 227 121q37 61 66 211l172 983h202l-53 -307q105 55 151 115t46 143q0 31 -11 72h168q2 -27 2 -53q0 -198 -224 -326q-42 -25 -154 -80l-103 -582q-24 -140 -50 -204t-77 -119q-127 -139 -363 -139t-331 110
q-72 88 -72 209q0 74 25 215l166 946h202l-172 -983q-18 -109 -18 -153z" />
    <glyph glyph-name="uni1EEB" unicode="&#x1eeb;" horiz-adv-x="1103" 
d="M698 1190h-139l-164 299h207zM293 291q0 -143 123 -144q92 0 143 73t82 247l100 573h193l-55 -313q199 102 198 260q0 31 -10 70h168q2 -23 2 -51q0 -125 -82 -213t-299 -195l-104 -598h-140l-4 94q-49 -63 -105 -89t-143 -25q-126 0 -196 64t-70 166q0 101 25 234
l104 596h195l-107 -604q-18 -92 -18 -145z" />
    <glyph glyph-name="uni1EEC" unicode="&#x1eec;" horiz-adv-x="1308" 
d="M852 1833q0 35 -46 35t-114 -29l-16 117q96 33 166 33q172 0 172 -146q0 -45 -16 -71t-76 -78q-28 -30 -38 -48t-18 -59h-135q14 76 28 104q13 28 64 83q29 35 29 59zM342 326q0 -178 201 -179q152 0 227 121q37 61 66 211l172 983h202l-53 -307q105 55 151 115t46 143
q0 31 -11 72h168q2 -27 2 -53q0 -198 -224 -326q-42 -25 -154 -80l-103 -582q-24 -140 -50 -204t-77 -119q-127 -139 -363 -139t-331 110q-72 88 -72 209q0 74 25 215l166 946h202l-172 -983q-18 -109 -18 -153z" />
    <glyph glyph-name="uni1EED" unicode="&#x1eed;" horiz-adv-x="1103" 
d="M666 1423q0 35 -46 35t-116 -28l-15 116q94 33 166 33q172 0 172 -145q0 -45 -15 -71q-14 -26 -60 -67t-55 -59t-17 -59h-135q16 80 28 106t64 80q29 35 29 59zM293 291q0 -143 123 -144q92 0 143 73t82 247l100 573h193l-55 -313q199 102 198 260q0 31 -10 70h168
q2 -23 2 -51q0 -125 -82 -213t-299 -195l-104 -598h-140l-4 94q-49 -63 -105 -89t-143 -25q-126 0 -196 64t-70 166q0 101 25 234l104 596h195l-107 -604q-18 -92 -18 -145z" />
    <glyph glyph-name="uni1EEE" unicode="&#x1eee;" horiz-adv-x="1308" 
d="M726 1886q75 0 133 -63t83 -63t42 24q17 25 40 88h119q-29 -100 -58 -154q-57 -98 -147 -98t-145 68q-51 59 -78 59q-51 0 -90 -113h-119q47 140 96 196t124 56zM342 326q0 -178 201 -179q152 0 227 121q37 61 66 211l172 983h202l-53 -307q105 55 151 115t46 143
q0 31 -11 72h168q2 -27 2 -53q0 -198 -224 -326q-42 -25 -154 -80l-103 -582q-24 -140 -50 -204t-77 -119q-127 -139 -363 -139t-331 110q-72 88 -72 209q0 74 25 215l166 946h202l-172 -983q-18 -109 -18 -153z" />
    <glyph glyph-name="uni1EEF" unicode="&#x1eef;" horiz-adv-x="1103" 
d="M533 1466q74 0 135 -63q57 -66 83 -66t43 25t40 90h118q-31 -104 -57 -154q-55 -100 -158 -100q-78 0 -137 68q-49 61 -76 61q-51 0 -90 -113h-119q49 144 97 198t121 54zM293 291q0 -143 123 -144q92 0 143 73t82 247l100 573h193l-55 -313q199 102 198 260q0 31 -10 70
h168q2 -23 2 -51q0 -125 -82 -213t-299 -195l-104 -598h-140l-4 94q-49 -63 -105 -89t-143 -25q-126 0 -196 64t-70 166q0 101 25 234l104 596h195l-107 -604q-18 -92 -18 -145z" />
    <glyph glyph-name="uni1EF0" unicode="&#x1ef0;" horiz-adv-x="1308" 
d="M369 -406l41 228h186l-39 -228h-188zM342 326q0 -178 201 -179q152 0 227 121q37 61 66 211l172 983h202l-53 -307q105 55 151 115t46 143q0 31 -11 72h168q2 -27 2 -53q0 -198 -224 -326q-42 -25 -154 -80l-103 -582q-24 -140 -50 -204t-77 -119q-127 -139 -363 -139
t-331 110q-72 88 -72 209q0 74 25 215l166 946h202l-172 -983q-18 -109 -18 -153z" />
    <glyph glyph-name="uni1EF1" unicode="&#x1ef1;" horiz-adv-x="1103" 
d="M266 -406l41 228h187l-41 -228h-187zM293 291q0 -143 123 -144q92 0 143 73t82 247l100 573h193l-55 -313q199 102 198 260q0 31 -10 70h168q2 -23 2 -51q0 -125 -82 -213t-299 -195l-104 -598h-140l-4 94q-49 -63 -105 -89t-143 -25q-126 0 -196 64t-70 166
q0 101 25 234l104 596h195l-107 -604q-18 -92 -18 -145z" />
    <glyph glyph-name="Ygrave" unicode="&#x1ef2;" horiz-adv-x="952" 
d="M782 1612h-141l-164 299h207zM287 0l92 526l-227 936h208l156 -710l406 710h219l-559 -936l-93 -526h-202z" />
    <glyph glyph-name="ygrave" unicode="&#x1ef3;" horiz-adv-x="880" 
d="M670 1190h-142l-163 299h206zM252 2l-129 1038h190l76 -804l342 804h199l-539 -1183q-96 -207 -182 -267t-289 -61l29 162q106 1 148 31t100 153z" />
    <glyph glyph-name="uni1EF4" unicode="&#x1ef4;" horiz-adv-x="952" 
d="M219 -406l41 228h186l-40 -228h-187zM287 0l92 526l-227 936h208l156 -710l406 710h219l-559 -936l-93 -526h-202z" />
    <glyph glyph-name="uni1EF5" unicode="&#x1ef5;" horiz-adv-x="880" 
d="M457 -406l41 228h186l-39 -228h-188zM252 2l-129 1038h190l76 -804l342 804h199l-539 -1183q-96 -207 -182 -267t-289 -61l29 162q106 1 148 31t100 153z" />
    <glyph glyph-name="uni1EF6" unicode="&#x1ef6;" horiz-adv-x="952" 
d="M707 1833q-1 35 -45 35t-115 -29l-17 117q92 33 168 33q170 0 170 -146q0 -45 -16 -71t-76 -78q-29 -28 -37 -46t-18 -61h-135q14 76 26 103t66 84q29 35 29 59zM287 0l92 526l-227 936h208l156 -710l406 710h219l-559 -936l-93 -526h-202z" />
    <glyph glyph-name="uni1EF7" unicode="&#x1ef7;" horiz-adv-x="880" 
d="M604 1423q0 35 -46 35t-114 -28l-16 116q96 33 166 33q172 0 172 -145q0 -45 -15 -71t-61 -67t-54 -58t-18 -60h-135q15 76 27 102t65 84q29 35 29 59zM252 2l-129 1038h190l76 -804l342 804h199l-539 -1183q-96 -207 -182 -267t-289 -61l29 162q106 1 148 31t100 153z
" />
    <glyph glyph-name="uni1EF8" unicode="&#x1ef8;" horiz-adv-x="952" 
d="M581 1886q75 0 133 -63t83 -63t42 24q17 25 40 88h118q-29 -100 -57 -154q-56 -98 -146 -98t-144 64t-81 63q-51 0 -90 -113h-119q46 140 96 196t125 56zM287 0l92 526l-227 936h208l156 -710l406 710h219l-559 -936l-93 -526h-202z" />
    <glyph glyph-name="uni1EF9" unicode="&#x1ef9;" horiz-adv-x="880" 
d="M473 1466q76 0 133 -64t82 -65q49 0 84 115h119q-45 -150 -89 -202t-124 -52t-133 64t-82 65q-51 0 -90 -113h-119q49 144 96 198t123 54zM252 2l-129 1038h190l76 -804l342 804h199l-539 -1183q-96 -207 -182 -267t-289 -61l29 162q106 1 148 31t100 153z" />
    <glyph glyph-name="uni2002" unicode="&#x2002;" horiz-adv-x="1024" 
 />
    <glyph glyph-name="uni2003" unicode="&#x2003;" horiz-adv-x="2048" 
 />
    <glyph glyph-name="uni2004" unicode="&#x2004;" horiz-adv-x="681" 
 />
    <glyph glyph-name="uni2005" unicode="&#x2005;" horiz-adv-x="512" 
 />
    <glyph glyph-name="uni2006" unicode="&#x2006;" horiz-adv-x="342" 
 />
    <glyph glyph-name="uni2007" unicode="&#x2007;" 
 />
    <glyph glyph-name="uni2008" unicode="&#x2008;" horiz-adv-x="0" 
 />
    <glyph glyph-name="uni2009" unicode="&#x2009;" horiz-adv-x="409" 
 />
    <glyph glyph-name="uni200A" unicode="&#x200a;" horiz-adv-x="256" 
 />
    <glyph glyph-name="uni2011" unicode="&#x2011;" horiz-adv-x="811" 
d="M170 655l29 168h520l-29 -168h-520z" />
    <glyph glyph-name="figuredash" unicode="&#x2012;" 
d="M156 655l28 168h723l-30 -168h-721z" />
    <glyph glyph-name="endash" unicode="&#x2013;" 
d="M156 655l28 168h723l-30 -168h-721z" />
    <glyph glyph-name="emdash" unicode="&#x2014;" 
d="M45 655l29 168h944l-29 -168h-944z" />
    <glyph glyph-name="afii00208" unicode="&#x2015;" 
d="M45 655l29 168h944l-29 -168h-944z" />
    <glyph glyph-name="underscoredbl" unicode="&#x2017;" horiz-adv-x="817" 
d="M-180 -264l20 110h903l-20 -110h-903zM-213 -451l20 111h904l-21 -111h-903z" />
    <glyph glyph-name="quoteleft" unicode="&#x2018;" horiz-adv-x="360" 
d="M477 1462l-147 -499h-203l188 499h162z" />
    <glyph glyph-name="quoteright" unicode="&#x2019;" horiz-adv-x="360" 
d="M127 963l147 499h203l-188 -499h-162z" />
    <glyph glyph-name="quotesinglbase" unicode="&#x201a;" horiz-adv-x="360" 
d="M-92 -279l147 500h203l-188 -500h-162z" />
    <glyph glyph-name="quotedblleft" unicode="&#x201c;" horiz-adv-x="706" 
d="M477 1462l-147 -499h-203l188 499h162zM823 1462l-147 -499h-203l189 499h161z" />
    <glyph glyph-name="quotedblright" unicode="&#x201d;" horiz-adv-x="706" 
d="M473 963l148 499h202l-188 -499h-162zM127 963l147 499h203l-188 -499h-162z" />
    <glyph glyph-name="quotedblbase" unicode="&#x201e;" horiz-adv-x="706" 
d="M254 -279l147 500h203l-188 -500h-162zM-92 -279l147 500h203l-188 -500h-162z" />
    <glyph glyph-name="dagger" unicode="&#x2020;" 
d="M453 850h-291l28 166h291l80 446h197l-78 -446h289l-29 -166h-291l-205 -1167h-198z" />
    <glyph glyph-name="daggerdbl" unicode="&#x2021;" 
d="M453 850h-291l28 166h291l80 446h197l-78 -446h289l-29 -166h-291l-51 -301h266l-28 -166h-269l-123 -700h-198l125 700h-269l29 166h268z" />
    <glyph glyph-name="bullet" unicode="&#x2022;" 
d="M495 1079q151 0 251 -98q100 -99 102 -245q0 -146 -102 -246t-254 -99q-152 0 -253 99q-101 100 -101 246t102 244q104 98 255 99z" />
    <glyph glyph-name="ellipsis" unicode="&#x2026;" horiz-adv-x="1505" 
d="M1061 0l39 223h203l-39 -223h-203zM559 0l39 223h203l-39 -223h-203zM57 0l39 223h203l-39 -223h-203z" />
    <glyph glyph-name="perthousand" unicode="&#x2030;" horiz-adv-x="2308" 
d="M434 0l649 1462h181l-650 -1462h-180zM1972 657q-63 0 -97 -43t-52 -149l-29 -166q-8 -41 -8 -86q0 -104 98 -104q62 0 98 44t54 146l26 160q10 47 11 94q0 104 -101 104zM1616 197q0 49 14 127l29 170q29 158 101 224t218 64q266 0 267 -209q0 -43 -13 -116l-30 -172
q-29 -164 -104 -233t-220 -68q-262 0 -262 213zM1384 553q0 104 -98 104q-63 0 -97 -43t-54 -149l-29 -166q-8 -49 -8 -86q0 -104 100 -104q64 0 98 44t52 146l28 160q8 49 8 94zM1556 573q0 -55 -12 -116l-31 -172q-27 -162 -101 -232t-220 -69q-264 0 -264 213
q0 37 14 127l29 170q29 158 101 224t218 64q266 0 266 -209zM600 1251q0 104 -100 105q-66 0 -100 -43t-52 -148l-29 -166q-8 -61 -8 -88q0 -104 101 -104q63 0 97 44t52 148l29 158q10 61 10 94zM504 1481q266 0 266 -209q0 -55 -12 -117l-31 -170q-15 -92 -35 -139
q-72 -164 -286 -164q-264 0 -265 213q1 37 15 129l30 168q27 156 100 222t218 67z" />
    <glyph glyph-name="guilsinglleft" unicode="&#x2039;" horiz-adv-x="458" 
d="M274 590l105 -258l-133 -66l-180 338l301 338l102 -96z" />
    <glyph glyph-name="guilsinglright" unicode="&#x203a;" horiz-adv-x="458" 
d="M215 618l-104 256l133 68l180 -338l-301 -338l-103 96z" />
    <glyph glyph-name="uni203E" unicode="&#x203e;" horiz-adv-x="817" 
d="M158 1657l24 139h903l-24 -139h-903z" />
    <glyph glyph-name="fraction" unicode="&#x2044;" horiz-adv-x="305" 
d="M-205 0l651 1462h181l-652 -1462h-180z" />
    <glyph glyph-name="zerosuperior" unicode="&#x2070;" horiz-adv-x="659" 
d="M600 1460q0 96 -86 96q-57 0 -90 -46t-51 -148l-47 -266q-12 -63 -13 -97q0 -98 86 -98q57 -1 91 45t51 150l47 266q12 74 12 98zM391 778q-233 0 -233 207q0 53 14 123l47 274q27 160 97 229q71 69 206 68q233 0 234 -206q0 -45 -15 -123l-47 -275q-28 -161 -98 -229
t-205 -68z" />
    <glyph glyph-name="foursuperior" unicode="&#x2074;" horiz-adv-x="657" 
d="M440 791l27 155h-340l16 94l369 627h162l-350 -596h165l35 199h138l-35 -199h78l-23 -125h-78l-26 -155h-138z" />
    <glyph glyph-name="fivesuperior" unicode="&#x2075;" horiz-adv-x="634" 
d="M690 1168q0 -85 -20 -166t-52 -121q-74 -102 -241 -103q-240 0 -240 183q0 2 4 59l150 12q-2 -14 -2 -31q0 -98 92 -98q67 -1 107 63t40 164t-82 99q-66 0 -118 -53l-115 20l119 471h428l-23 -125h-293l-55 -215q49 21 123 21t126 -48t52 -132z" />
    <glyph glyph-name="sixsuperior" unicode="&#x2076;" horiz-adv-x="657" 
d="M459 1231q-74 0 -107 -68q-41 -78 -41 -171t86 -93q76 0 107 68q39 74 39 178q0 86 -84 86zM700 1172q0 -78 -22 -160t-49 -127q-72 -106 -240 -107q-233 0 -233 193q0 119 47 223q18 43 78 127l251 346h183l-240 -326q27 4 53 5q78 0 125 -48t47 -126z" />
    <glyph glyph-name="sevensuperior" unicode="&#x2077;" horiz-adv-x="567" 
d="M127 791l387 749h-309l22 127h478l-17 -92l-383 -784h-178z" />
    <glyph glyph-name="eightsuperior" unicode="&#x2078;" horiz-adv-x="657" 
d="M545 1105q0 85 -88 85q-158 0 -158 -211q0 -82 87 -82t122 53q37 70 37 155zM602 1491q0 76 -81 76q-81 -1 -111 -59t-29 -134q0 -76 80 -76t108 54q33 57 33 139zM143 961q0 222 140 296q-45 45 -45 117q0 131 59 211q63 94 227 94q221 0 221 -172q0 -180 -110 -254
q66 -45 65 -135q0 -160 -72 -250t-239 -90q-246 0 -246 183z" />
    <glyph glyph-name="ninesuperior" unicode="&#x2079;" horiz-adv-x="657" 
d="M514 1559q-76 0 -104 -58q-37 -70 -37 -158t84 -88q73 0 107 66t34 152t-84 86zM395 1143q-86 0 -133 45t-47 122q1 76 21 154t51 119q68 96 235 96q233 0 234 -180q0 -109 -41 -209q-18 -45 -70 -119l-270 -380h-182l253 358q-35 -6 -51 -6z" />
    <glyph glyph-name="zeroinferior" unicode="&#x2080;" horiz-adv-x="659" 
d="M424 465q0 96 -86 96q-57 0 -90 -46t-51 -148l-47 -267q-12 -63 -13 -96q0 -98 86 -98q57 0 91 45t51 149l47 267q12 63 12 98zM346 684q233 0 234 -207q0 -53 -15 -123l-47 -274q-28 -160 -98 -228t-205 -69q-233 0 -233 205q0 55 14 125l47 274q27 161 97 229t206 68z
" />
    <glyph glyph-name="oneinferior" unicode="&#x2081;" horiz-adv-x="550" 
d="M88 -205l127 717l-139 -55l-37 114l254 101h108l-155 -877h-158z" />
    <glyph glyph-name="twoinferior" unicode="&#x2082;" horiz-adv-x="634" 
d="M395 477q0 82 -78 82q-94 0 -131 -137l-145 8q31 133 100 194q70 60 191 60q227 0 227 -192q0 -106 -59 -205q-35 -55 -172 -199l-164 -168h295l-23 -125h-504l19 103l280 295q164 172 164 284z" />
    <glyph glyph-name="threeinferior" unicode="&#x2083;" horiz-adv-x="634" 
d="M244 311q66 0 108 44t43 112q0 90 -84 90q-90 0 -125 -113l-143 9q29 121 95 175q67 54 186 54q231 0 231 -193q0 -162 -125 -231q76 -57 76 -174t-69 -209t-238 -92q-250 0 -250 180q0 4 4 62l149 12q-2 -16 -2 -31q0 -98 101 -98q67 0 107 48t40 128q0 117 -125 117
h-80l21 110h80z" />
    <glyph glyph-name="fourinferior" unicode="&#x2084;" horiz-adv-x="657" 
d="M264 -205l27 156h-340l16 94l369 627h162l-351 -596h166l35 198h137l-34 -198h75l-20 -125h-78l-27 -156h-137z" />
    <glyph glyph-name="fiveinferior" unicode="&#x2085;" horiz-adv-x="634" 
d="M313 352q97 0 149 -47t52 -131t-20 -166t-52 -123q-74 -102 -241 -102q-240 0 -240 180q0 33 4 62l150 12q-2 -16 -2 -31q0 -98 90 -98q84 0 117 76q32 76 32 162t-82 87q-66 0 -118 -53l-115 21l119 471h428l-23 -125h-293l-55 -215q49 20 100 20z" />
    <glyph glyph-name="sixinferior" unicode="&#x2086;" horiz-adv-x="657" 
d="M283 236q-72 0 -109 -68q-39 -82 -39 -173t86 -91q76 0 111 74t35 166t-84 92zM352 350q78 0 125 -48t47 -125t-20 -160t-51 -128q-72 -106 -240 -106q-233 0 -233 192q0 119 47 224q18 47 77 127l252 346h183l-240 -326q33 4 53 4z" />
    <glyph glyph-name="seveninferior" unicode="&#x2087;" horiz-adv-x="567" 
d="M-47 -205l387 750h-309l22 127h477l-16 -92l-383 -785h-178z" />
    <glyph glyph-name="eightinferior" unicode="&#x2088;" horiz-adv-x="657" 
d="M280 195q-88 0 -120 -58q-37 -59 -37 -147t87 -88t122 53q37 70 37 156q-1 84 -89 84zM426 492q0 79 -79 79t-111 -57t-31 -134q0 -77 80 -77t108 53q33 57 33 136zM61 379q0 125 58 211q68 94 229 94q221 0 221 -172q0 -180 -110 -254q66 -45 65 -135q0 -160 -72 -250
t-239 -90q-246 0 -246 184q0 127 53 219q31 45 86 76q-45 45 -45 117z" />
    <glyph glyph-name="nineinferior" unicode="&#x2089;" horiz-adv-x="657" 
d="M340 563q-76 1 -108 -63t-33 -152q0 -88 84 -88q73 0 107 66t34 152t-84 85zM41 314q0 76 20 155q20 78 52 119q68 96 235 96q233 0 234 -180q0 -104 -41 -209q-14 -37 -70 -119l-270 -381h-183l254 359q-33 -6 -51 -7q-86 -1 -133 45t-47 122z" />
    <glyph glyph-name="franc" unicode="&#x20a3;" horiz-adv-x="1363" 
d="M1272 924q76 0 153 -52l-108 -155q-49 51 -100 51q-85 0 -141 -94t-93 -301l-65 -373h-187l160 903h143l4 -110q58 71 108 101t126 30zM61 0l258 1462h639l-28 -168h-443l-86 -481h359l-29 -168h-358l-115 -645h-197z" />
    <glyph glyph-name="lira" unicode="&#x20a4;" 
d="M229 1006q0 229 112 352t318 123q352 0 353 -346q0 -25 -2 -43l-183 -33v35q0 117 -40 170q-39 53 -133 53t-158 -82t-64 -215q0 -74 25 -158h344l-21 -117h-288q12 -72 12 -127h254l-21 -116h-250q-18 -190 -174 -334h557l-30 -168h-832l25 145q100 33 176 135t90 222
h-217l20 116h197q-6 61 -27 127h-147l20 117h97l-2 17l-7 43q-4 45 -4 84z" />
    <glyph glyph-name="peseta" unicode="&#x20a7;" 
d="M440 946l-45 -252h109q213 -8 276 252h-340zM803 1116q0 98 -45 142t-146 45h-108l-43 -242h338q4 27 4 55zM608 1462q125 0 198 -22t118 -76q76 -90 75 -240q0 -23 -2 -63h123l-20 -115h-121q-47 -217 -165 -316t-320 -95h-123l-95 -535h-196l166 946h-152l21 115h151
l72 401h270z" />
    <glyph glyph-name="uni20AB" unicode="&#x20ab;" 
d="M240 303q0 -162 139 -162q180 0 231 289l33 180q12 78 12 119q0 170 -149 170q-170 0 -217 -268l-37 -201q-12 -80 -12 -127zM344 -20q-299 0 -299 286q0 78 18 189l37 209q39 211 127 303t250 92q82 1 129 -17t101 -65l34 190h-256l23 138h258l27 157h192l-27 -157h134
l-23 -138h-135l-205 -1167h-151l2 78l-13 -10q-88 -88 -223 -88zM-70 -362l25 137h793l-25 -137h-793z" />
    <glyph glyph-name="Euro" unicode="&#x20ac;" 
d="M677 1481q361 0 361 -301q0 -39 -8 -103l-188 -6q4 37 4 70q0 174 -154 174q-109 0 -171 -87t-97 -288l-14 -78h471l-66 -117h-426l-24 -137h376l-63 -116h-332q-16 -92 -16 -160q0 -188 168 -189q193 0 241 209l185 -12q-74 -362 -436 -362t-361 341q0 66 16 173h-157
l63 116h113l24 137h-155l63 117h113l20 117q27 147 59 229t87 142q119 131 304 131z" />
    <glyph glyph-name="uni20B4" unicode="&#x20b4;" 
d="M780 1159q0 162 -149 162q-133 0 -201 -139l-162 39q109 260 375 260q156 0 240 -83t84 -239q0 -201 -123 -321l125 -41l-49 -111l-177 57q-68 -39 -235 -100l350 -113l-51 -110l-453 145q-104 -94 -104 -260t182 -166t252 154l164 -39q-106 -274 -432 -274
q-354 0 -355 311q0 195 109 332l-119 36l51 113l164 -53q28 18 122 56t108 44l-334 107l51 112l436 -139q131 98 131 260z" />
    <glyph glyph-name="uni2101" unicode="&#x2101;" horiz-adv-x="1579" 
d="M1163 113q72 0 117 43t45 98t-29 78q-18 18 -116 49q-182 59 -183 215q0 133 82 212t221 79q190 0 246 -131l-135 -72q-37 78 -121 78q-57 0 -94 -40t-37 -90t30 -78t121 -56t133 -75q42 -46 42 -132q0 -143 -84 -223t-234 -80q-231 -1 -288 149l139 72q33 -96 145 -96z
M541 866l-52 400l-192 -400h244zM729 651l361 811h159l-649 -1462h-160l260 586h-125l-20 170h-309l-82 -170h-170l463 876h131z" />
    <glyph glyph-name="afii61248" unicode="&#x2105;" horiz-adv-x="1613" 
d="M422 0l651 1462h160l-651 -1462h-160zM1401 567q0 127 -127 127q-82 0 -129 -54t-68 -169l-22 -133q-12 -70 -13 -96q0 -127 127 -127q83 0 131 54t68 169l23 129q10 57 10 100zM1280 823q276 0 276 -241q0 -72 -12 -127l-24 -150q-31 -168 -115 -244t-240 -75
q-279 0 -278 241q0 55 12 127l27 148q28 168 112 244t242 77zM397 639q-127 0 -193 67t-67 191q0 61 15 135l14 86q33 184 116 270t228 87q188 0 254 -152l-129 -63q-39 86 -120 86t-128 -62t-70 -192l-14 -82q-10 -47 -10 -107q0 -135 121 -135q93 0 159 86l113 -74
q-109 -141 -289 -141z" />
    <glyph glyph-name="afii61289" unicode="&#x2113;" horiz-adv-x="940" 
d="M711 1266q0 92 -54 92q-59 0 -101 -136t-89 -487q244 297 244 531zM459 100q29 0 46 20t46 80t59 60q39 0 39 -47q0 -82 -72 -167t-165 -85q-172 0 -172 248q0 68 8 211q-37 -49 -77 -86t-52 -37t-25 21q-12 22 -12 48t54 82q54 54 122 142q68 492 156 698t231 207
q80 0 130 -59t50 -154q1 -323 -374 -704l-11 -82q-30 -240 -30 -318t49 -78z" />
    <glyph glyph-name="afii61352" unicode="&#x2116;" horiz-adv-x="2027" 
d="M1167 0l27 156h670l-29 -156h-668zM1802 928q0 127 -116 127q-76 1 -120 -55t-67 -181l-16 -96q-10 -57 -10 -105q0 -131 116 -131q77 -1 121 55t64 181l18 96q10 66 10 109zM1690 1210q303 0 303 -264q0 -61 -17 -143l-20 -117q-35 -188 -122 -272t-249 -84
q-303 0 -303 264q0 61 14 145l23 117q33 186 120 270t251 84zM70 0l258 1462h198l338 -1083l193 1083h194l-258 -1462h-194l-342 1087l-193 -1087h-194z" />
    <glyph glyph-name="trademark" unicode="&#x2122;" horiz-adv-x="1527" 
d="M707 586l153 876h148l127 -510l307 510h149l-155 -876h-150l100 571l-229 -395h-108l-93 395l-100 -571h-149zM244 586l133 747h-221l22 129h596l-22 -129h-217l-134 -747h-157z" />
    <glyph glyph-name="uni2126" unicode="&#x2126;" horiz-adv-x="1169" 
d="M143 508q0 82 23 211l51 280q25 137 57 213q33 76 95 140q129 131 343 131q419 0 421 -353q0 -70 -23 -192l-49 -281q-55 -356 -293 -450l-12 -60h235l-26 -147h-392l56 319q184 49 235 375l45 256q21 110 21 186t-54 128t-171 53q-117 0 -189 -85t-106 -282l-45 -256
q-20 -113 -21 -176q0 -160 125 -199l-55 -319h-394l27 147h234l12 68q-53 31 -76 59q-74 92 -74 234z" />
    <glyph glyph-name="estimated" unicode="&#x212e;" horiz-adv-x="1044" 
d="M766 770v223q-53 250 -238 250q-88 0 -141 -57t-92 -191v-225h471zM958 645h-663v-258q33 -147 87 -207t148 -59q192 0 258 246h140q-37 -158 -88 -228q-117 -159 -318 -159q-200 0 -318 183t-118 511t120 519t324 191q132 0 232 -84t148 -230t48 -425z" />
    <glyph glyph-name="onethird" unicode="&#x2153;" horiz-adv-x="1599" 
d="M352 0l649 1462h181l-650 -1462h-180zM1176 516q66 0 108 44t43 114q0 88 -84 88q-92 0 -125 -113l-143 8q29 119 95 174q67 55 185 56q231 0 232 -193q0 -164 -127 -231q78 -57 78 -175t-69 -209t-239 -91q-250 0 -249 180q0 31 4 61l147 13v-31q0 -98 101 -98
q67 0 107 48t40 128q0 117 -125 117h-80l19 110h82zM279 586l127 717l-140 -56l-37 115l254 100h109l-156 -876h-157z" />
    <glyph glyph-name="twothirds" unicode="&#x2154;" horiz-adv-x="1576" 
d="M420 0l651 1462h180l-651 -1462h-180zM1085 211q0 -98 101 -98q66 0 106 48t41 128q0 117 -125 117h-80l21 110h80q67 0 109 44t42 112q0 90 -84 90q-90 0 -125 -113l-143 8q31 121 96 176q66 54 185 54q231 0 231 -193q0 -162 -125 -231q76 -55 76 -173t-69 -210
t-238 -92q-250 0 -250 180l4 61l149 13q-2 -14 -2 -31zM539 1268q0 82 -78 82q-94 0 -131 -138l-146 9q33 133 102 193t189 61q227 0 227 -193q0 -110 -49 -188t-182 -215l-164 -168h295l-22 -125h-504l18 102l281 295q164 172 164 285z" />
    <glyph glyph-name="uni2155" unicode="&#x2155;" horiz-adv-x="1599" 
d="M344 0l649 1462h181l-650 -1462h-180zM1231 557q96 0 148 -47q89 -80 32 -298q-20 -81 -51 -122q-74 -102 -242 -102q-240 0 -239 182q0 16 6 59l147 13q-2 -14 -2 -31q0 -98 90 -98q68 0 109 63q41 62 41 162t-82 100q-68 0 -119 -55l-115 23l119 471h430l-22 -125h-295
l-56 -215q51 20 101 20zM276 586l127 717l-139 -56l-37 115l254 100h109l-156 -876h-158z" />
    <glyph glyph-name="uni2156" unicode="&#x2156;" horiz-adv-x="1576" 
d="M420 0l651 1462h180l-651 -1462h-180zM1282 557q96 0 148 -47t53 -132q-1 -85 -21 -166t-51 -122q-74 -102 -242 -102q-240 0 -239 182q0 16 6 59l147 13q-2 -14 -2 -29q0 -100 90 -100q68 0 109 63q41 62 41 162t-82 100q-68 0 -119 -55l-114 23l118 471h430l-22 -125
h-295l-55 -215q51 20 100 20zM535 1268q0 82 -78 82q-94 0 -131 -138l-146 9q33 133 102 193t189 61q227 0 227 -193q0 -110 -49 -188t-182 -215l-164 -168h295l-23 -125h-503l18 102l281 295q164 172 164 285z" />
    <glyph glyph-name="uni2157" unicode="&#x2157;" horiz-adv-x="1576" 
d="M424 0l649 1462h180l-649 -1462h-180zM1282 557q96 0 148 -47t53 -132q-1 -85 -21 -166t-51 -122q-74 -102 -242 -102q-240 0 -239 182q0 6 4 59l149 13q-2 -14 -2 -29q0 -100 90 -100q68 0 109 63q41 62 41 162t-82 100q-68 0 -119 -55l-114 23l118 471h428l-22 -125
h-293l-55 -215q51 20 100 20zM387 1102q66 0 109 44t43 111q0 90 -84 91q-90 0 -125 -113l-144 8q29 121 96 175t185 55q231 0 231 -193q0 -162 -125 -231q76 -57 76 -175t-63 -202q-78 -98 -244 -99q-250 0 -250 181q0 4 4 61l150 12q-2 -16 -2 -30q0 -98 100 -99
q66 0 107 48t41 128q0 117 -125 117h-80l20 111h80z" />
    <glyph glyph-name="uni2158" unicode="&#x2158;" horiz-adv-x="1599" 
d="M428 0l649 1462h180l-649 -1462h-180zM1286 557q96 0 148 -47t53 -132q-1 -85 -21 -166t-51 -122q-74 -102 -241 -102q-240 0 -240 182q0 6 4 59l149 13q-2 -14 -2 -31q0 -98 91 -98q68 0 108 63q40 62 41 162q0 100 -82 100q-68 0 -119 -55l-114 23l118 471h428
l-22 -125h-293l-55 -215q51 20 100 20zM403 586l27 155h-340l16 95l369 626h162l-350 -596h166l34 199h138l-35 -199h76l-21 -125h-78l-26 -155h-138z" />
    <glyph glyph-name="uni2159" unicode="&#x2159;" horiz-adv-x="1622" 
d="M369 0l651 1462h180l-651 -1462h-180zM1184 440q-74 0 -111 -72t-37 -166q0 -93 86 -93q76 1 111 75t35 165t-84 91zM1253 555q78 0 125 -48t47 -125t-20 -160t-51 -128q-72 -106 -240 -106q-233 0 -233 192q0 119 47 223q18 45 80 127l249 347h183l-240 -326q29 4 53 4z
M289 586l127 717l-140 -56l-36 115l254 100h108l-156 -876h-157z" />
    <glyph glyph-name="uni215A" unicode="&#x215a;" horiz-adv-x="1599" 
d="M453 0l651 1462h180l-651 -1462h-180zM1327 349q0 91 -82 91q-73 0 -111 -72t-38 -166q0 -93 86 -93q72 0 106 67q39 82 39 173zM1174 -12q-234 0 -234 204q0 106 47 211q20 45 80 127l250 347h182l-239 -326q29 4 53 4q78 0 125 -48t47 -126q-1 -78 -21 -160t-49 -127
q-72 -106 -241 -106zM268 795q0 -97 87 -97t120 76t33 163t-82 87q-63 0 -119 -55l-114 22l118 471h428l-22 -125h-293l-55 -215q51 20 123 20t125 -46q88 -79 32 -297q-20 -82 -51 -123q-74 -102 -242 -103q-240 0 -239 181q0 33 4 61l149 12q-2 -16 -2 -32z" />
    <glyph glyph-name="oneeighth" unicode="&#x215b;" horiz-adv-x="1622" 
d="M332 0l651 1462h180l-651 -1462h-180zM1276 314q0 84 -88 85q-158 0 -158 -209q0 -84 88 -84t121 54q37 70 37 154zM1333 696q0 80 -79 80q-78 0 -110 -57t-32 -134t80 -77t108 53q33 55 33 135zM1120 -12q-246 0 -246 182q1 227 142 297q-47 41 -47 117q0 131 59 211
q63 94 227 94q221 0 222 -172q0 -180 -109 -254q63 -45 64 -135q0 -340 -312 -340zM279 586l127 717l-140 -56l-37 115l254 100h109l-156 -876h-157z" />
    <glyph glyph-name="threeeighths" unicode="&#x215c;" horiz-adv-x="1599" 
d="M414 0l651 1462h178l-649 -1462h-180zM1325 314q0 84 -87 85q-157 0 -157 -209q0 -84 97 -84q78 0 110 54q37 70 37 154zM1249 508q135 0 133 192q0 76 -80 76q-139 0 -139 -192q0 -76 86 -76zM1169 -12q-244 0 -243 184q0 127 53 219q33 47 86 76q-45 45 -45 117
q0 305 285 305q221 0 221 -172q0 -180 -109 -254q63 -45 64 -135q0 -340 -312 -340zM389 1102q66 0 109 44t43 111q0 90 -84 91q-90 0 -125 -113l-144 8q29 121 96 175t185 55q231 0 231 -193q0 -162 -125 -231q76 -57 76 -175q1 -118 -69 -209t-238 -92q-250 0 -250 181
q0 4 4 61l150 12q-2 -16 -2 -30q0 -98 100 -99q66 0 107 48t41 128q0 117 -125 117h-80l20 111h80z" />
    <glyph glyph-name="fiveeighths" unicode="&#x215d;" horiz-adv-x="1599" 
d="M412 0l651 1462h180l-651 -1462h-180zM1327 314q0 84 -88 85q-158 0 -158 -209q0 -84 97 -84q78 0 112 54q37 70 37 154zM1302 776q-139 0 -139 -192q0 -76 80 -76t109 53q31 61 30 137q0 78 -80 78zM1483 328q0 -340 -312 -340q-246 0 -245 184q0 127 53 219
q33 47 86 76q-45 41 -45 117q0 305 285 305q221 0 221 -172q0 -180 -109 -254q66 -45 66 -135zM659 965q0 -84 -20 -166t-51 -123q-74 -102 -242 -103q-240 0 -240 181q0 33 5 61l149 12q-2 -16 -2 -32q0 -97 87 -97t120 76t33 163t-82 87q-63 0 -119 -55l-115 22l119 471
h428l-22 -125h-293l-56 -215q51 20 124 20t125 -46q52 -47 52 -131z" />
    <glyph glyph-name="seveneighths" unicode="&#x215e;" horiz-adv-x="1622" 
d="M342 0l649 1462h180l-649 -1462h-180zM1284 314q0 84 -87 85q-157 0 -157 -211q0 -82 88 -82t119 54q37 70 37 154zM1261 776q-139 0 -139 -192q0 -76 80 -76t109 53q31 61 30 139q0 76 -80 76zM1128 -12q-244 0 -243 184q0 127 53 219q33 47 86 76q-45 45 -45 117
q-1 125 61 215t224 90q221 0 221 -172q0 -180 -109 -254q63 -45 64 -135q0 -340 -312 -340zM154 586l397 749h-315l22 127h483l-16 -92l-393 -784h-178z" />
    <glyph glyph-name="arrowleft" unicode="&#x2190;" horiz-adv-x="1638" 
d="M1505 655h-1134l368 -368l-121 -119l-520 534v74l520 535l121 -119l-368 -369h1134v-168z" />
    <glyph glyph-name="arrowup" unicode="&#x2191;" horiz-adv-x="1638" 
d="M709 0v1202l-369 -368l-119 118l537 523h71l537 -523l-119 -118l-368 368v-1202h-170z" />
    <glyph glyph-name="arrowright" unicode="&#x2192;" horiz-adv-x="1638" 
d="M135 655v168h1135l-369 369l119 119l522 -535v-74l-522 -534l-119 119l369 368h-1135z" />
    <glyph glyph-name="arrowdown" unicode="&#x2193;" horiz-adv-x="1638" 
d="M707 1462h170v-1202l368 369l119 -119l-537 -522h-71l-537 522l119 119l369 -369v1202z" />
    <glyph glyph-name="arrowboth" unicode="&#x2194;" horiz-adv-x="1638" 
d="M1309 655h-979l319 -321l-119 -119l-473 487v74l473 488l119 -119l-319 -322h979l-320 322l119 119l473 -488v-74l-473 -487l-119 119z" />
    <glyph glyph-name="arrowupdn" unicode="&#x2195;" horiz-adv-x="1638" 
d="M709 223v1016l-322 -321l-119 118l488 473h73l488 -473l-119 -118l-321 321v-1016l321 322l119 -119l-488 -473h-73l-488 473l119 119z" />
    <glyph glyph-name="uni2196" unicode="&#x2196;" horiz-adv-x="1638" 
d="M463 471h-170v746l65 63h744v-168h-520l809 -811l-119 -119l-809 811v-522z" />
    <glyph glyph-name="uni2197" unicode="&#x2197;" horiz-adv-x="1638" 
d="M537 1112v168h743l66 -63v-746h-170v522l-809 -811l-119 119l809 811h-520z" />
    <glyph glyph-name="uni2198" unicode="&#x2198;" horiz-adv-x="1638" 
d="M1176 995h170v-745l-66 -64h-743v168h520l-809 811l119 119l809 -811v522z" />
    <glyph glyph-name="uni2199" unicode="&#x2199;" horiz-adv-x="1638" 
d="M1102 354v-168h-744l-65 64v745h170v-522l809 811l119 -119l-809 -811h520z" />
    <glyph glyph-name="partialdiff" unicode="&#x2202;" 
d="M559 883q-99 0 -155 -67t-82 -214l-33 -188q-12 -68 -13 -125q0 -156 150 -156q96 -1 151 65t82 216l35 188q12 74 13 125q0 156 -148 156zM901 838q0 -117 -22 -248l-35 -199q-39 -221 -136 -316t-286 -95q-336 0 -336 282q0 74 16 156l37 211q35 201 121 293
q102 113 275 112q102 0 163 -49q-27 162 -99 249q-73 87 -206 116l47 127q229 -35 338 -183q123 -162 123 -456z" />
    <glyph glyph-name="emptyset" unicode="&#x2205;" 
d="M494 406q124 0 202 94t78 246t-98 266l-264 -594q47 -12 82 -12zM471 1087q-121 0 -200 -95q-79 -96 -79 -254t115 -271l268 602q-66 18 -104 18zM913 748q-1 -207 -119 -338t-307 -131q-57 0 -127 18l-163 -375l-109 43l166 377q-199 131 -199 403q0 207 118 338
t302 131q62 1 152 -24l145 332l109 -41l-150 -340q182 -135 182 -393z" />
    <glyph glyph-name="Delta" unicode="&#x2206;" 
d="M715 162l-101 1020l-458 -1020h559zM952 0h-1097l716 1462h177z" />
    <glyph glyph-name="product" unicode="&#x220f;" horiz-adv-x="1101" 
d="M-27 -424l332 1886h823l-331 -1886h-195l301 1714h-432l-301 -1714h-197z" />
    <glyph glyph-name="summation" unicode="&#x2211;" horiz-adv-x="1042" 
d="M-49 -424l22 131l508 868l-202 754l24 133h807l-29 -168h-579l196 -721l-471 -829h604l-30 -168h-850z" />
    <glyph glyph-name="minus" unicode="&#x2212;" 
d="M109 662l26 155h819l-26 -155h-819z" />
    <glyph glyph-name="uni2215" unicode="&#x2215;" horiz-adv-x="305" 
d="M-205 0l651 1462h181l-652 -1462h-180z" />
    <glyph glyph-name="uni2218" unicode="&#x2218;" 
d="M494 985q-109 0 -182 -71q-72 -70 -72 -178t72 -180t181 -71q109 0 181 72t71 178q0 106 -71 178t-180 72zM495 1090q155 0 259 -102t104 -253q0 -152 -104 -253t-261 -101t-262 102q-104 103 -104 253t106 252q107 102 262 102z" />
    <glyph glyph-name="uni2219" unicode="&#x2219;" horiz-adv-x="499" 
d="M168 627l39 223h203l-39 -223h-203z" />
    <glyph glyph-name="radical" unicode="&#x221a;" 
d="M262 0l-78 598h-127l29 164h264l43 -502l602 1536h488l-25 -139h-323l-674 -1657h-199z" />
    <glyph glyph-name="infinity" unicode="&#x221e;" horiz-adv-x="1411" 
d="M1012 557q68 0 112 50t43 131q0 81 -44 131t-115 51q-102 0 -213 -160l-15 -21l17 -22q55 -76 82 -101q65 -59 133 -59zM403 920q-69 0 -113 -50t-44 -132q0 -81 44 -131t114 -50t135 61q20 20 77 99l15 22l-13 21q-111 160 -215 160zM1035 1061q124 0 204 -86t80 -236
q0 -151 -80 -237t-217 -86t-236 92q-20 20 -79 108q-10 -15 -17 -22q-37 -58 -55 -78q-88 -100 -259 -100q-124 0 -204 87t-80 237t80 235q80 86 220 86t233 -92q12 -8 82 -109l14 23q41 61 57 79t49 42q84 57 208 57z" />
    <glyph glyph-name="integral" unicode="&#x222b;" horiz-adv-x="897" 
d="M285 -53q66 0 86 63q12 39 12 189l2 966q0 231 27 314q49 143 213 143q70 0 151 -25l-35 -151q-39 18 -71 18q-66 0 -84 -65q-14 -39 -15 -182v-973q0 -225 -28 -314q-49 -141 -213 -141q-72 0 -150 23l35 151q43 -16 70 -16z" />
    <glyph glyph-name="similar" unicode="&#x223c;" 
d="M371 739q-78 0 -146 -141l-112 27q57 141 121 202q65 61 155 62q49 1 84 -15t90 -61t79 -58t52 -14q76 0 144 136l108 -35q-111 -250 -259 -250q-70 0 -103 17q-32 17 -100 73t-113 57z" />
    <glyph glyph-name="uni2243" unicode="&#x2243;" 
d="M700 762q-51 0 -85 17t-101 75t-111 57q-77 0 -147 -143l-113 27q57 143 122 204t157 62q49 0 84 -15q35 -14 89 -60t79 -60t53 -15q72 0 141 136l109 -35q-59 -134 -124 -192t-153 -58zM109 506l26 151h764l-27 -151h-763z" />
    <glyph glyph-name="approxequal" unicode="&#x2248;" 
d="M700 762q-51 0 -86 18t-101 74q-65 56 -109 57q-44 -1 -78 -33t-70 -110l-113 27q57 143 122 204t155 62q51 0 86 -15q35 -14 89 -60t79 -60t53 -15q72 0 141 136l109 -35q-59 -134 -124 -192t-153 -58zM342 569q-77 0 -145 -141l-113 27q55 139 121 201t155 63
q49 1 85 -15q37 -16 91 -61t78 -58t52 -14q76 0 143 136l109 -35q-110 -250 -260 -250q-70 0 -103 17t-101 73t-112 57z" />
    <glyph glyph-name="notequal" unicode="&#x2260;" 
d="M109 506l26 151h262l99 166h-330l24 150h396l139 246l135 -60l-104 -186h198l-24 -150h-264l-99 -166h332l-27 -151h-393l-141 -246l-135 59l106 187h-200z" />
    <glyph glyph-name="lessequal" unicode="&#x2264;" 
d="M29 39l26 156h709l-29 -156h-706zM354 756l463 -260l-31 -174l-649 385l21 112l784 383l-35 -188z" />
    <glyph glyph-name="greaterequal" unicode="&#x2265;" 
d="M80 39l26 156h709l-29 -156h-706zM717 770l-463 260l31 172l649 -383l-21 -112l-784 -385l33 188z" />
    <glyph glyph-name="dotmath" unicode="&#x22c5;" horiz-adv-x="499" 
d="M168 627l39 223h203l-39 -223h-203z" />
    <glyph glyph-name="filledrect" unicode="&#x25ac;" 
d="M170 412v645h645v-645h-645z" />
    <glyph glyph-name="uni25B4" unicode="&#x25b4;" 
d="M106 401l388 773l387 -773h-775z" />
    <glyph glyph-name="uni25B8" unicode="&#x25b8;" 
d="M190 348v774l773 -387z" />
    <glyph glyph-name="uni25BE" unicode="&#x25be;" 
d="M106 1069h775l-387 -772z" />
    <glyph glyph-name="uni25C2" unicode="&#x25c2;" 
d="M795 348l-772 387l772 387v-774z" />
    <glyph glyph-name="lozenge" unicode="&#x25ca;" 
d="M217 717l275 -465l276 465l-276 465zM6 717l486 774l487 -774l-487 -776z" />
    <glyph glyph-name="openbullet" unicode="&#x25e6;" 
d="M494 985q-109 0 -182 -71q-72 -70 -72 -178t72 -180t181 -71q109 0 181 72t71 178q0 106 -71 178t-180 72zM495 1090q155 0 259 -102t104 -253q0 -152 -104 -253t-261 -101t-262 102q-104 103 -104 253t106 252q107 102 262 102z" />
    <glyph glyph-name="commaaccent" unicode="&#xf6c3;" horiz-adv-x="1024" 
d="M207 -463l145 324h189l-203 -324h-131z" />
    <glyph glyph-name="Acute" unicode="&#xf6c9;" horiz-adv-x="1024" 
d="M596 1612l190 297h222l-267 -297h-145z" />
    <glyph glyph-name="Caron" unicode="&#xf6ca;" horiz-adv-x="1024" 
d="M721 1733l135 163h197l-279 -284h-135l-180 284h182z" />
    <glyph glyph-name="Dieresis" unicode="&#xf6cb;" horiz-adv-x="1024" 
d="M797 1624l41 225h172l-39 -225h-174zM442 1624l39 225h174l-39 -225h-174z" />
    <glyph glyph-name="Grave" unicode="&#xf6ce;" horiz-adv-x="1024" 
d="M817 1612h-141l-164 299h207z" />
    <glyph glyph-name="Hungarumlaut" unicode="&#xf6cf;" horiz-adv-x="1024" 
d="M756 1612l162 297h198l-225 -297h-135zM485 1612l162 297h199l-225 -297h-136z" />
    <glyph glyph-name="Macron" unicode="&#xf6d0;" horiz-adv-x="1024" 
d="M465 1675l24 142h502l-24 -142h-502z" />
    <glyph glyph-name="zerooldstyle" unicode="&#xf730;" horiz-adv-x="978" 
d="M563 967q-94 0 -143 -67t-78 -232l-39 -226q-20 -115 -20 -155q0 -145 143 -146q96 1 146 67t79 234l39 224q20 117 21 151q0 150 -148 150zM561 1126q174 0 260 -78t86 -223q0 -61 -20 -182l-43 -246q-38 -221 -140 -319t-275 -98q-343 0 -343 301q0 61 20 184l44 244
q39 219 138 318t273 99z" />
    <glyph glyph-name="oneoldstyle" unicode="&#xf731;" horiz-adv-x="643" 
d="M160 0l157 893l-211 -98l-61 149l377 164h137l-197 -1108h-202z" />
    <glyph glyph-name="twooldstyle" unicode="&#xf732;" horiz-adv-x="835" 
d="M606 846q0 119 -135 119q-80 0 -129 -43t-78 -138l-180 23q76 319 397 319q158 0 242 -68t84 -200q0 -133 -82 -244q-43 -55 -82 -93t-178 -156l-236 -205h465l-28 -160h-732l23 131l385 342q150 133 207 215t57 158z" />
    <glyph glyph-name="threeoldstyle" unicode="&#xf733;" horiz-adv-x="882" 
d="M127 829q74 299 385 299t311 -310q0 -265 -237 -378q84 -49 120 -111t35 -159q0 -195 -98 -334q-115 -164 -367 -164q-338 0 -344 297l189 33q0 -45 20 -98q25 -70 135 -70q137 0 205 119q53 95 53 199q1 206 -212 206h-115l29 160h112q125 0 197 82q71 82 71 224
t-129 143q-129 0 -180 -162z" />
    <glyph glyph-name="fouroldstyle" unicode="&#xf734;" horiz-adv-x="858" 
d="M395 -309l54 309h-523l23 125l565 983h211l-553 -948h305l72 401h178l-72 -401h136l-29 -160h-133l-56 -309h-178z" />
    <glyph glyph-name="fiveoldstyle" unicode="&#xf735;" horiz-adv-x="933" 
d="M776 303q0 -125 -31 -251t-75 -197q-117 -182 -369 -183q-334 0 -340 297l189 33v-12q0 -33 18 -84q29 -72 133 -72q143 0 213 158q55 124 55 276t-143 152q-102 0 -190 -90l-142 30l185 748h608l-29 -168h-438l-105 -408q96 45 177 46q136 0 210 -75t74 -200z" />
    <glyph glyph-name="sixoldstyle" unicode="&#xf736;" horiz-adv-x="972" 
d="M539 762q-131 0 -185 -131q-28 -70 -50 -170t-21 -170q0 -154 143 -154q129 0 184 144q27 63 46 163q20 100 20 169t-36 109t-101 40zM616 911q123 -1 193 -75t70 -196t-30 -257t-75 -218t-140 -134q-96 -51 -236 -51t-229 78t-89 221q0 201 78 383q29 68 118 202
l383 563h224l-371 -534q57 18 104 18z" />
    <glyph glyph-name="sevenoldstyle" unicode="&#xf737;" horiz-adv-x="710" 
d="M-92 -309l616 1249h-479l31 168h684l-21 -121l-602 -1296h-229z" />
    <glyph glyph-name="eightoldstyle" unicode="&#xf738;" horiz-adv-x="995" 
d="M528 672q-137 0 -192 -105q-27 -49 -46 -135t-20 -151q0 -145 166 -146q133 0 189 109q25 51 44 137q19 85 19 151t-42 103t-118 37zM633 1296q-117 0 -164 -96q-21 -45 -37 -124t-16 -134q0 -125 128 -125t175 105q51 119 51 249q0 125 -137 125zM227 967q0 90 26 186
t66 156q92 139 314 139q160 0 243 -71t82 -203q0 -88 -24 -178t-60 -140q-43 -63 -112 -96q123 -80 123 -234q0 -102 -29 -214t-74 -177q-106 -156 -348 -155q-365 0 -364 296q0 111 32 224q33 113 81 169t134 93q-90 76 -90 205z" />
    <glyph glyph-name="nineoldstyle" unicode="&#xf739;" horiz-adv-x="970" 
d="M551 969q-137 0 -191 -144q-27 -66 -46 -165t-19 -162q0 -154 141 -154q125 0 180 131q29 70 51 170t21 170q0 154 -137 154zM352 195q-120 -1 -190 75t-70 197t30 256t75 218t140 134t237 51t229 -78q88 -78 88 -221q0 -197 -78 -383q-33 -76 -121 -202l-381 -557h-223
l371 528q-61 -18 -107 -18z" />
    <glyph glyph-name="Dbreve" horiz-adv-x="1181" 
d="M610 1843q0 -102 125 -102q74 0 111 33t63 118h127q-26 -164 -94 -228t-213 -65q-250 0 -250 189q0 38 10 104h125q-4 -25 -4 -49zM305 166h184q156 -2 236 78t115 276l75 424q16 94 17 158q0 195 -242 194h-184zM707 1462q213 0 309 -71q121 -92 121 -271
q0 -78 -21 -182l-84 -475q-68 -471 -526 -463h-432l258 1462h375z" />
    <glyph glyph-name="ahungarumlaut" horiz-adv-x="942" 
d="M643 1190l162 299h199l-226 -299h-135zM373 1190l162 299h198l-225 -299h-135zM453 475q-125 0 -179 -59q-55 -66 -55 -180q0 -57 35 -81t127 -24t136 41t63 152l26 151h-153zM653 774q0 127 -137 127q-70 0 -114 -33t-80 -110l-158 49q102 252 364 252q317 0 318 -260
q0 -53 -19 -172l-110 -627h-154l-6 47q-82 -68 -235 -67q-297 0 -297 221q0 203 93 309t320 106h193l12 60q10 63 10 98z" />
    <glyph glyph-name="uni0204.sc" horiz-adv-x="856" 
d="M535 1251h-136l-120 299h198zM805 1251h-135l-121 299h199zM37 0l194 1108h631l-28 -160h-435l-53 -309h367l-29 -160h-367l-57 -319h438l-26 -160h-635z" />
    <glyph glyph-name="uni0206.sc" horiz-adv-x="856" 
d="M623 1411q-74 0 -112 -33t-62 -118h-127q26 164 94 230t211 64q252 0 252 -188q-1 -38 -11 -106h-125q4 31 5 51q0 100 -125 100zM59 0l195 1108h631l-29 -160h-434l-53 -309h366l-28 -160h-367l-57 -319h438l-27 -160h-635z" />
    <glyph glyph-name="uni0208.sc" horiz-adv-x="495" 
d="M326 1251h-136l-120 299h198zM596 1251h-135l-121 299h199zM57 0l195 1108h197l-195 -1108h-197z" />
    <glyph glyph-name="uni020A.sc" horiz-adv-x="495" 
d="M530 1311q0 100 -124 100q-74 0 -112 -33t-63 -118h-127q27 164 95 230t211 64q252 0 252 -188q-1 -38 -11 -106h-125q4 31 4 51zM57 0l195 1108h197l-195 -1108h-197z" />
    <glyph glyph-name="uni020C.sc" horiz-adv-x="995" 
d="M557 1251h-135l-121 299h199zM827 1251h-135l-121 299h199zM702 832q0 58 -39 97q-40 38 -124 38q-85 1 -135 -61t-76 -208l-52 -288q-12 -63 -12 -127t39 -103t123 -39t135 62t78 207l49 288q14 76 14 134zM557 1126q344 0 344 -284q0 -51 -18 -160l-56 -317
q-35 -195 -129 -289t-288 -94q-344 0 -344 284q0 56 16 158l57 319q20 113 46 172q93 211 372 211z" />
    <glyph glyph-name="uni020E.sc" horiz-adv-x="995" 
d="M774 1311q0 100 -125 100q-73 0 -111 -33t-63 -118h-127q26 164 94 230t211 64q252 0 252 -188q0 -38 -10 -106h-125q4 31 4 51zM723 832q0 58 -40 97q-40 38 -124 38q-84 1 -134 -61t-77 -208l-51 -288q-12 -63 -12 -127t39 -103q38 -39 122 -39t136 62q50 62 77 207
l50 288q14 76 14 134zM578 1126q344 0 344 -284q0 -51 -19 -160l-55 -317q-35 -195 -129 -289t-289 -94q-344 0 -344 284q0 56 16 158l58 319q20 113 46 172q93 211 372 211z" />
    <glyph glyph-name="uni0210.sc" horiz-adv-x="964" 
d="M524 1251h-135l-121 299h199zM795 1251h-136l-120 299h198zM483 604q109 0 158 58q53 68 53 150t-35 110t-116 28h-137l-62 -346h139zM551 1108q180 0 263 -60t83 -190q0 -84 -27 -165q-26 -81 -78 -133t-151 -77l145 -483h-221l-114 455h-132l-79 -455h-197l195 1108
h313z" />
    <glyph glyph-name="uni0212.sc" horiz-adv-x="964" 
d="M741 1311q0 100 -125 100q-74 0 -112 -33t-62 -118h-127q27 164 95 230t211 64q252 0 251 -188q0 -38 -10 -106h-125q4 31 4 51zM500 604q109 0 157 58q53 68 53 150t-34 110q-35 28 -117 28h-137l-62 -346h140zM567 1108q180 0 263 -60t83 -190q-1 -84 -27 -165
t-78 -133t-151 -77l146 -483h-221l-115 455h-131l-80 -455h-197l195 1108h313z" />
    <glyph glyph-name="uni0214.sc" horiz-adv-x="1021" 
d="M563 1251h-135l-121 299h199zM834 1251h-136l-120 299h198zM416 141q96 0 143 49t70 177l129 741h198l-137 -770q-21 -113 -39 -160t-61 -90q-104 -106 -311 -106q-160 0 -246 63t-86 182q0 49 20 164l125 717h197l-129 -733q-12 -82 -13 -109q0 -125 140 -125z" />
    <glyph glyph-name="uni0216.sc" horiz-adv-x="1021" 
d="M668 1411q-74 0 -112 -33t-62 -118h-127q27 164 95 230t210 64q252 0 252 -188q-1 -38 -11 -106h-125q4 31 5 51q0 100 -125 100zM305 266q0 -125 139 -125q96 0 144 49q47 49 69 177l129 741h199l-137 -770q-20 -113 -38 -160t-62 -90q-104 -106 -312 -106
q-160 0 -246 63t-86 182q0 49 21 164l125 717h196l-129 -733q-12 -82 -12 -109z" />
    <glyph glyph-name="uni1E24.sc" horiz-adv-x="1021" 
d="M252 -406l41 228h186l-41 -228h-186zM57 0l195 1108h197l-82 -469h327l84 469h197l-197 -1108h-196l84 479h-328l-84 -479h-197z" />
    <glyph glyph-name="uni1E5A.sc" horiz-adv-x="964" 
d="M227 -406l41 228h187l-41 -228h-187zM500 604q109 0 157 58q53 68 53 150t-34 110q-35 28 -117 28h-137l-62 -346h140zM567 1108q180 0 263 -60t83 -190q-1 -84 -27 -165t-78 -133t-151 -77l146 -483h-221l-115 455h-131l-80 -455h-197l195 1108h313z" />
    <glyph glyph-name="uni1E62.sc" horiz-adv-x="843" 
d="M152 -406l41 228h186l-41 -228h-186zM352 141q92 -1 148 55t57 148q1 46 -25 72t-46 34t-119 35q-240 70 -240 269q0 170 100 270q99 100 263 100t240 -61t83 -193l-178 -49q-14 82 -44 113q-31 31 -101 31q-70 1 -118 -51t-48 -120t36 -99q36 -33 160 -69t178 -91
t56 -160q0 -160 -88 -269q-106 -125 -322 -124q-172 0 -255 66t-89 208l184 45q6 -160 168 -160z" />
    <glyph glyph-name="uni1E6C.sc" horiz-adv-x="759" 
d="M123 -406l41 228h186l-41 -228h-186zM190 0l168 948h-264l29 160h723l-29 -160h-262l-168 -948h-197z" />
    <glyph glyph-name="uni1E92.sc" horiz-adv-x="786" 
d="M135 -406l41 228h186l-40 -228h-187zM-35 0l21 121l559 827h-383l28 160h617l-21 -121l-559 -827h435l-29 -160h-668z" />
    <glyph glyph-name="uni1E44.sc" horiz-adv-x="1067" 
d="M584 1266l41 227h186l-41 -227h-186zM57 0l195 1108h188l260 -750l131 750h189l-195 -1108h-170l-274 770l-135 -770h-189z" />
    </font>
</defs>
</svg>
