<?xml version="1.0" encoding="UTF-8"?>
<svg xmlns="http://www.w3.org/2000/svg" xmlns:xlink="http://www.w3.org/1999/xlink" version="1.2" >
<font id="Baskerville URW Regular Italic">
<font-face  font-family="Baskerville URW" units-per-em="1000" ascent="699" descent="-301" font-style="italic" font-weight="400" font-stretch="normal" slope="-17.5" cap-height="659" x-height="419" underline-position="-110" underline-thickness="33" />
<missing-glyph  horiz-adv-x="251" d="" />
<glyph glyph-name="NULL" d="" />
<glyph glyph-name="CR" unicode="&#xd;" horiz-adv-x="250" d="" />
<glyph glyph-name="space" unicode="&#x20;" horiz-adv-x="251" d="" />
<glyph glyph-name="exclam" unicode="&#x21;" horiz-adv-x="248" d="M109 234 L154 220 L300 595 C308 615 312 630 312 638 C312 659 285 679 256 679 C226 679 214 667 203 620 L109 234 Z M74 86 C46 86 20 63 20 36 C20 10 45 -14 74 -14 C102 -14 127 10 127 36 C127 62 102 86 74 86 L74 86 Z " />
<glyph glyph-name="quotedbl" unicode="&#x22;" horiz-adv-x="335" d="M147 411 L187 411 L267 609 C274 626 279 642 279 648 C279 661 264 672 245 672 C228 672 213 664 203 649 C195 639 195 639 187 603 L147 411 Z M288 411 L328 411 L408 609 C416 629 420 641 420 648 C420 661 405 672 386 672 C369 672 353 664 343 649 C336 639 336 639 327 603 L288 411 Z " />
<glyph glyph-name="numbersign" unicode="&#x23;" horiz-adv-x="502" d="M283 446 L367 643 L330 643 L247 446 L145 446 L127 403 L228 403 L165 253 L63 253 L45 210 L146 210 L57 0 L94 0 L183 210 L318 210 L229 0 L265 0 L354 210 L448 210 L467 253 L372 253 L436 403 L530 403 L549 446 L454 446 L538 643 L502 643 L418 446 L283 446 Z M265 403 L400 403 L337 253 L201 253 L265 403 Z " />
<glyph glyph-name="dollar" unicode="&#x24;" horiz-adv-x="503" d="M391 732 L370 658 C357 659 350 659 343 659 C240 659 162 591 162 501 C162 450 188 405 271 312 L189 29 C157 39 142 52 120 87 C104 112 90 122 73 122 C55 122 38 108 38 92 C38 67 73 33 116 16 C133 9 142 6 179 -3 L150 -105 L181 -105 L209 -6 C221 -7 228 -7 235 -7 C347 -7 437 73 437 172 C437 229 410 278 326 371 L320 377 L391 625 C419 620 437 604 461 564 C473 545 482 538 497 538 C512 538 525 551 525 565 C525 586 494 618 455 637 C434 647 425 650 400 655 L423 732 L391 732 Z M297 401 C250 458 236 486 236 525 C236 587 280 630 343 630 L361 630 L297 401 Z M294 288 L299 283 C349 217 362 187 362 142 C362 70 314 21 244 21 C238 21 232 21 217 23 L294 288 Z " />
<glyph glyph-name="percent" unicode="&#x25;" horiz-adv-x="662" d="M183 0 L218 0 L586 659 L549 659 L183 0 Z M558 328 C470 328 373 204 373 92 C373 34 404 -3 453 -3 C544 -3 636 117 636 236 C636 296 609 328 558 328 L558 328 Z M558 314 C585 314 597 299 597 265 C597 225 579 163 551 105 C518 38 490 10 456 10 C430 10 415 30 415 64 C415 104 440 183 468 235 C499 291 525 314 558 314 L558 314 Z M309 662 C221 662 124 538 124 426 C124 368 155 331 204 331 C295 331 387 451 387 570 C387 630 360 662 309 662 L309 662 Z M309 648 C336 648 348 633 348 599 C348 559 330 497 302 439 C269 372 241 344 207 344 C181 344 166 364 166 398 C166 438 191 516 219 569 C250 625 276 648 309 648 L309 648 Z " />
<glyph glyph-name="ampersand" unicode="&#x26;" horiz-adv-x="885" d="M468 495 C507 519 531 555 531 588 C531 637 477 679 412 679 C306 679 213 593 213 493 C213 467 218 448 230 420 L234 412 C205 406 205 406 191 401 C123 376 82 313 82 236 C82 91 222 -21 402 -21 C585 -21 741 98 741 237 C741 292 720 336 679 365 C675 368 670 372 665 375 L681 375 L699 375 C768 375 815 385 848 406 C886 432 909 478 909 530 C909 614 845 679 761 679 C699 679 648 642 648 598 C648 569 673 545 701 545 C725 545 746 564 746 586 C746 594 742 603 736 612 C730 620 729 622 729 629 C729 643 742 651 767 651 C826 651 868 604 868 536 C868 468 828 438 733 433 L618 427 C518 422 467 406 427 368 C400 343 384 307 384 273 C384 218 425 178 481 178 C528 178 568 208 568 244 C568 266 546 285 521 285 C502 285 483 273 483 262 C483 260 484 255 485 249 C486 246 486 243 486 241 C486 224 478 214 464 214 C438 214 419 239 419 272 C419 334 471 373 553 373 C644 373 701 324 701 243 C701 130 589 46 438 46 C274 46 151 142 151 269 C151 335 187 383 236 383 C252 383 260 379 276 363 C292 348 307 340 320 340 C337 340 354 355 354 369 C354 395 321 410 263 411 C256 436 254 450 254 473 C254 555 322 627 400 627 C448 627 475 602 475 559 C475 538 470 524 457 504 L468 495 Z " />
<glyph glyph-name="quotesingle" unicode="&#x27;" horiz-adv-x="194" d="M147 411 L187 411 L267 609 C274 626 279 642 279 648 C279 661 264 672 245 672 C228 672 213 664 203 649 C195 639 195 639 187 603 L147 411 Z " />
<glyph glyph-name="parenleft" unicode="&#x28;" horiz-adv-x="291" d="M168 -205 C144 -144 128 -43 128 50 C128 206 170 359 250 492 C299 575 355 639 415 681 L399 706 C208 607 59 337 59 88 C59 -28 90 -150 139 -222 L168 -205 Z " />
<glyph glyph-name="parenright" unicode="&#x29;" horiz-adv-x="284" d="M161 689 C184 629 200 528 200 435 C200 258 145 82 45 -60 C1 -121 -40 -164 -87 -197 L-71 -222 C122 -121 269 147 269 396 C269 513 238 634 189 706 L161 689 Z " />
<glyph glyph-name="asterisk" unicode="&#x2a;" horiz-adv-x="462" d="M212 629 C192 629 172 609 172 590 C172 576 185 563 214 551 C247 537 286 524 297 524 C301 524 307 528 307 530 C307 530 306 532 305 533 C304 535 300 541 294 551 C283 570 248 611 232 623 C226 627 219 629 212 629 L212 629 Z M298 491 C286 491 248 479 214 464 C184 451 172 440 172 424 C172 406 193 386 212 386 C219 386 226 388 232 393 C249 406 284 446 294 464 C299 474 303 480 305 482 C306 483 307 484 307 485 C307 487 301 491 298 491 L298 491 Z M341 478 C332 477 329 471 329 450 C329 359 338 335 371 335 C393 335 413 351 413 369 C413 390 354 479 341 478 L341 478 Z M476 543 C450 544 358 517 358 508 C358 498 446 472 477 472 C496 472 512 488 512 507 C512 527 497 542 476 543 L476 543 Z M371 681 C338 681 329 657 329 566 C329 546 332 538 341 538 C355 538 413 626 413 647 C413 665 393 681 371 681 L371 681 Z " />
<glyph glyph-name="plus" unicode="&#x2b;" horiz-adv-x="502" d="M69 306 L275 306 L275 111 L315 111 L315 306 L521 306 L521 339 L315 339 L315 535 L275 535 L275 339 L69 339 L69 306 Z " />
<glyph glyph-name="comma" unicode="&#x2c;" horiz-adv-x="221" d="M-21 -134 L-22 -134 C-15 -143 -14 -144 -8 -144 C13 -144 61 -120 88 -95 C119 -65 142 -15 142 24 C142 70 116 104 79 104 C51 104 25 79 25 52 C25 34 39 13 56 8 C82 -1 82 -1 82 -18 C82 -44 71 -70 50 -89 C35 -103 14 -118 3 -122 C-9 -125 -17 -129 -18 -131 L-21 -134 Z " />
<glyph glyph-name="hyphen" unicode="&#x2d;" horiz-adv-x="164" d="M8 196 L165 196 L180 242 L23 242 L8 196 Z " />
<glyph glyph-name="period" unicode="&#x2e;" horiz-adv-x="221" d="M86 87 C58 87 32 64 32 37 C32 11 57 -13 86 -13 C114 -13 139 11 139 37 C139 63 114 87 86 87 L86 87 Z " />
<glyph glyph-name="slash" unicode="&#x2f;" horiz-adv-x="400" d="M-76 -208 L-23 -208 L478 693 L423 693 L-76 -208 Z " />
<glyph glyph-name="zero" unicode="0" horiz-adv-x="503" d="M399 666 C324 666 245 618 178 533 C101 434 52 299 52 187 C52 67 108 -7 199 -7 C289 -7 378 54 447 162 C501 248 542 386 542 484 C542 599 490 666 399 666 L399 666 Z M397 635 C447 635 473 602 473 539 C473 507 466 465 450 405 C419 287 389 209 342 130 C300 59 253 22 204 22 C155 22 125 62 125 128 C125 221 164 353 225 474 C284 588 334 635 397 635 L397 635 Z " />
<glyph glyph-name="one" unicode="1" horiz-adv-x="502" d="M280 0 L481 656 L442 656 C400 628 269 578 183 557 L182 526 C245 541 338 569 374 585 L195 0 L280 0 Z " />
<glyph glyph-name="two" unicode="2" horiz-adv-x="503" d="M448 104 L429 104 C415 75 405 68 377 68 L90 68 C100 77 111 86 121 94 C325 269 362 303 423 373 C472 429 498 486 498 536 C498 606 442 658 366 658 C282 658 200 596 165 507 L195 496 C228 568 268 601 323 601 C371 601 400 568 400 511 C400 453 369 393 295 304 C242 241 164 168 26 54 L26 56 L17 0 L402 0 L448 104 Z " />
<glyph glyph-name="three" unicode="3" horiz-adv-x="502" d="M237 537 C271 592 317 621 368 621 C412 621 439 599 439 563 C439 529 425 499 392 462 C353 418 290 373 236 349 C217 341 212 337 212 330 C212 320 223 307 232 307 C237 307 240 309 252 322 C267 339 291 350 313 350 C350 350 371 325 371 279 C371 227 350 164 314 111 C274 51 230 23 178 23 C124 23 100 47 97 103 C95 139 86 152 63 152 C42 152 25 132 25 109 C25 48 98 -7 177 -7 C319 -7 453 123 453 262 C453 316 426 353 376 367 C357 373 357 373 301 373 C444 438 523 514 523 587 C523 631 473 666 410 666 C328 666 261 629 209 553 L237 537 Z " />
<glyph glyph-name="four" unicode="4" horiz-adv-x="502" d="M493 659 L421 659 L60 211 C42 189 30 173 30 171 C30 167 41 162 51 162 L271 162 L224 0 L303 0 L350 162 L469 162 L490 233 L468 233 C456 202 444 190 425 191 L358 191 L493 659 Z M279 191 L83 191 L385 561 L279 191 Z " />
<glyph glyph-name="five" unicode="5" horiz-adv-x="502" d="M560 659 L268 659 L148 343 L186 343 C212 392 255 421 303 421 C355 421 383 386 383 321 C383 265 366 200 338 143 C297 62 243 20 181 20 C135 20 106 47 106 91 C106 98 106 105 107 112 C108 119 109 126 109 128 C109 146 94 160 76 160 C53 160 34 139 34 111 C34 93 43 67 56 49 C83 12 124 -7 180 -7 C254 -7 320 24 375 86 C433 150 469 237 469 310 C469 395 415 453 336 453 C291 453 253 439 209 407 L281 598 L531 598 L560 659 Z " />
<glyph glyph-name="six" unicode="6" horiz-adv-x="503" d="M206 364 C241 442 248 457 272 496 C328 586 389 633 448 633 C473 633 494 622 508 601 C524 578 530 574 544 574 C562 574 581 591 581 607 C581 639 526 666 464 666 C378 666 294 620 221 534 C134 430 77 289 77 176 C77 65 134 -7 223 -7 C340 -7 467 144 467 283 C467 369 419 423 343 423 C293 423 257 407 206 364 L206 364 Z M314 389 C364 389 392 353 392 290 C392 238 379 181 355 131 C319 55 280 19 231 19 C178 19 146 64 146 138 C146 187 157 239 178 283 C210 353 256 389 314 389 L314 389 Z " />
<glyph glyph-name="seven" unicode="7" horiz-adv-x="502" d="M582 659 L188 659 L155 508 L182 508 C198 580 214 599 258 596 L511 596 L197 122 C160 65 142 32 142 20 C142 6 159 -7 177 -7 C201 -7 221 10 243 49 L582 659 Z " />
<glyph glyph-name="eight" unicode="8" horiz-adv-x="503" d="M364 343 C404 358 414 363 435 376 C493 414 529 475 529 535 C529 613 474 666 391 666 C281 666 184 576 184 475 C184 446 193 420 211 394 C219 381 219 381 246 359 C205 352 196 349 170 334 C99 294 50 215 50 141 C50 55 115 -7 207 -7 C265 -7 331 19 370 58 C414 101 442 162 442 213 C442 248 428 287 407 312 C395 326 394 327 364 343 L364 343 Z M390 641 C432 641 452 619 452 572 C452 535 440 490 419 449 C392 395 360 369 319 369 C281 369 258 395 258 438 C258 477 273 530 296 573 C322 620 351 641 390 641 L390 641 Z M287 343 C336 343 366 310 366 255 C366 215 351 157 330 115 C299 54 255 21 204 21 C153 21 125 54 125 115 C125 229 206 343 287 343 L287 343 Z " />
<glyph glyph-name="nine" unicode="9" horiz-adv-x="502" d="M411 320 C383 242 370 213 342 164 C292 78 223 26 156 26 C135 26 116 34 104 48 C95 57 94 62 87 92 C82 110 72 119 57 119 C37 119 19 99 19 77 C19 31 74 -7 140 -7 C328 -7 527 245 527 483 C527 596 470 666 378 666 C261 666 147 545 147 420 C147 328 203 266 286 266 C335 266 366 279 411 320 L411 320 Z M375 638 C430 638 457 599 457 517 C457 469 446 417 427 377 C400 321 354 288 303 288 C254 288 227 324 227 391 C227 440 241 502 263 548 C292 609 328 638 375 638 L375 638 Z " />
<glyph glyph-name="colon" unicode="&#x3a;" horiz-adv-x="221" d="M86 87 C58 87 32 64 32 37 C32 11 57 -13 86 -13 C114 -13 139 11 139 37 C139 63 114 87 86 87 L86 87 Z M164 418 C136 418 110 395 110 368 C110 342 135 318 164 318 C192 318 217 342 217 368 C217 394 192 418 164 418 L164 418 Z " />
<glyph glyph-name="semicolon" unicode="&#x3b;" horiz-adv-x="221" d="M-20 -134 L-21 -134 C-14 -143 -12 -144 -7 -144 C15 -144 62 -120 89 -95 C120 -66 143 -16 143 23 C143 70 116 104 79 104 C52 104 26 79 26 52 C26 34 40 13 57 8 C82 -1 83 -1 83 -19 C83 -45 72 -70 52 -89 C37 -103 15 -118 4 -122 C-8 -125 -16 -129 -17 -131 L-20 -134 Z M180 418 C152 418 126 394 126 368 C126 342 151 318 180 318 C208 318 233 342 233 368 C233 394 208 418 180 418 L180 418 Z " />
<glyph glyph-name="less" unicode="&#x3c;" horiz-adv-x="503" d="M452 586 L54 333 L452 80 L452 125 L123 333 L452 541 L452 586 Z " />
<glyph glyph-name="equal" unicode="&#x3d;" horiz-adv-x="502" d="M72 380 L524 380 L524 413 L72 413 L72 380 Z M72 233 L524 233 L524 266 L72 266 L72 233 Z " />
<glyph glyph-name="greater" unicode="&#x3e;" horiz-adv-x="503" d="M51 80 L449 333 L51 586 L51 541 L379 333 L51 125 L51 80 Z " />
<glyph glyph-name="question" unicode="&#x3f;" horiz-adv-x="437" d="M233 206 C256 303 271 324 339 352 C409 385 445 412 472 451 C492 480 504 518 504 551 C504 630 444 679 347 679 C292 679 244 660 212 627 C192 606 179 580 179 560 C179 545 190 535 206 535 C233 535 255 557 263 590 C270 622 270 623 283 633 C296 643 312 648 333 648 C390 648 418 615 418 548 C418 492 403 447 372 411 C349 385 345 382 253 343 C211 325 206 314 185 206 L233 206 Z M173 87 C145 87 119 64 119 37 C119 11 144 -13 173 -13 C201 -13 226 11 226 37 C226 63 201 87 173 87 L173 87 Z " />
<glyph glyph-name="at" unicode="&#x40;" horiz-adv-x="740" d="M562 485 L545 440 C541 456 540 460 537 465 C527 482 507 492 480 492 C377 492 271 361 271 235 C271 185 301 154 350 154 C394 154 419 170 467 227 C466 212 465 203 465 201 C465 171 489 152 528 152 C644 152 752 287 752 434 C752 573 637 674 480 674 C281 674 113 498 113 291 C113 108 237 -15 421 -15 C493 -15 546 -1 621 38 L612 57 C539 19 492 6 428 6 C258 6 150 118 150 294 C150 493 297 655 477 655 C620 655 718 564 718 431 C718 301 631 165 547 165 C527 165 517 177 517 199 C517 212 522 235 530 256 L614 485 L562 485 Z M485 480 C511 480 526 461 526 426 C526 321 429 166 363 166 C342 166 330 184 330 217 C330 268 359 354 399 418 C424 458 454 480 485 480 L485 480 Z " />
<glyph glyph-name="A" unicode="A" horiz-adv-x="602" d="M508 674 L466 674 L74 105 C26 37 7 22 -37 21 L-52 21 L-59 0 L174 0 L181 21 L170 21 C118 21 101 29 101 55 C101 69 112 94 134 126 L212 242 L398 242 L389 94 C385 34 370 20 311 21 L297 21 L292 0 L537 0 L542 21 L524 21 C490 21 471 46 474 87 L475 95 L508 674 Z M399 266 L229 266 L415 538 L399 266 Z " />
<glyph glyph-name="B" unicode="B" horiz-adv-x="640" d="M189 659 L182 638 L215 638 C246 638 263 624 263 599 C263 588 260 571 254 553 L108 89 C93 36 77 22 29 21 L-2 21 L-9 0 C17 3 62 4 100 4 C121 4 135 4 177 2 C217 0 262 -1 285 -1 C411 -1 484 21 534 75 C564 106 582 152 582 197 C582 259 546 308 480 335 C459 343 459 343 386 356 C461 362 461 362 484 368 C575 389 634 453 634 529 C634 566 617 603 590 626 C562 650 526 659 467 659 L189 659 Z M284 363 L370 637 L422 637 C466 637 487 631 505 613 C524 595 533 569 533 536 C533 473 503 416 455 387 C429 372 389 363 347 363 L284 363 Z M276 339 L335 339 C435 339 479 300 479 213 C479 154 457 97 419 61 C389 32 348 18 296 18 C229 18 195 34 195 65 C195 78 197 89 206 115 L276 339 Z " />
<glyph glyph-name="C" unicode="C" horiz-adv-x="595" d="M666 659 L644 659 L602 616 C570 654 509 679 449 679 C263 679 73 460 73 245 C73 90 170 -20 307 -20 C356 -20 398 -9 457 21 L468 -14 L493 -14 L567 191 L534 191 C481 65 418 10 325 10 C228 10 172 82 172 206 C172 298 200 400 249 489 C309 600 376 653 455 653 C539 653 592 590 592 490 C592 479 591 472 588 454 L615 454 L666 659 Z " />
<glyph glyph-name="D" unicode="D" horiz-adv-x="690" d="M-9 0 L225 -1 L288 -2 C388 -2 454 14 516 53 C623 119 695 255 695 390 C695 482 659 563 598 609 C552 645 494 661 414 661 L169 661 L163 638 L196 638 C235 638 250 628 250 600 C250 589 247 574 241 555 L103 102 C85 31 78 23 25 21 L-2 21 L-9 0 Z M358 640 L367 640 C440 640 483 632 514 614 C566 583 594 517 594 423 C594 295 546 168 469 91 C421 44 357 20 277 20 C212 20 185 33 185 63 C185 73 187 87 191 100 L358 640 Z " />
<glyph glyph-name="E" unicode="E" horiz-adv-x="617" d="M633 659 L182 659 L175 638 L206 638 C243 638 257 628 257 600 C257 588 254 575 247 553 L105 102 C86 31 80 24 34 21 L-2 21 L-9 0 L541 0 L596 175 L570 175 C551 133 531 104 503 78 C457 33 408 18 313 18 C222 18 189 30 189 64 C189 77 193 96 200 120 L270 339 L347 339 C394 339 414 320 414 275 C414 255 412 242 406 215 L432 215 L513 470 L486 470 C452 383 425 363 347 366 L278 366 L364 639 L477 639 C560 642 601 601 611 506 L633 506 L633 659 Z " />
<glyph glyph-name="F" unicode="F" horiz-adv-x="576" d="M656 659 L182 659 L175 638 L202 638 C242 638 257 628 257 599 C257 588 254 576 247 553 L105 102 C85 30 81 24 34 21 L-2 21 L-9 0 L262 0 L268 21 L238 21 C204 21 187 34 187 60 C187 70 191 89 196 106 L268 334 L369 334 C421 334 437 322 437 281 C437 261 432 234 422 205 L451 205 L532 464 L503 464 C482 385 458 361 401 361 L276 361 L364 639 L496 639 C581 644 624 606 631 518 L657 518 L656 659 Z " />
<glyph glyph-name="G" unicode="G" horiz-adv-x="683" d="M546 0 L588 170 C605 239 611 245 661 246 L682 246 L689 275 L430 275 L423 246 L441 246 C495 246 507 241 507 215 C507 205 506 198 499 178 L468 79 C425 31 381 10 322 10 C230 10 179 74 179 193 C179 285 207 394 255 486 C313 598 387 653 477 653 C569 653 622 592 622 486 C622 475 622 467 620 454 L647 454 L698 659 L668 659 L636 612 C602 656 546 679 469 679 C260 679 79 483 79 255 C79 92 176 -20 316 -20 C386 -20 445 3 497 51 L531 0 L546 0 Z " />
<glyph glyph-name="H" unicode="H" horiz-adv-x="745" d="M568 638 L590 638 C633 638 649 628 649 600 C649 589 646 572 640 556 L578 356 L275 356 L338 556 C360 629 371 639 428 638 L439 638 L445 659 L182 659 L175 638 L201 638 C242 638 257 628 257 599 C257 588 254 573 247 553 L105 102 C84 28 79 24 22 21 L-2 21 L-9 0 L261 0 L268 21 L244 21 C202 21 187 32 187 61 C187 71 190 88 196 106 L267 329 L569 329 L497 102 C477 30 469 23 412 21 L390 21 L383 0 L653 0 L660 21 L642 21 C594 21 579 30 579 57 C579 66 584 92 588 106 L730 556 C753 629 764 639 820 638 L831 638 L838 659 L574 659 L568 638 Z " />
<glyph glyph-name="I" unicode="I" horiz-adv-x="353" d="M175 638 L201 638 C242 638 257 628 257 599 C257 588 254 575 247 553 L106 102 C86 28 81 23 25 21 L-2 21 L-9 0 L261 0 L268 21 L243 21 C203 21 188 31 188 60 C188 70 192 90 197 106 L338 556 C360 629 371 639 428 638 L439 638 L445 659 L182 659 L175 638 Z " />
<glyph glyph-name="J" unicode="J" horiz-adv-x="354" d="M454 659 L192 659 L185 638 L211 638 C252 638 266 628 266 599 C266 588 262 569 257 553 L83 1 C47 -113 3 -166 -56 -166 C-87 -166 -107 -151 -113 -125 C-119 -94 -119 -94 -124 -86 C-130 -77 -143 -70 -156 -70 C-177 -70 -196 -87 -196 -107 C-196 -149 -128 -188 -53 -188 C3 -188 56 -168 93 -132 C133 -93 157 -48 183 33 L348 556 C370 629 381 639 438 638 L448 638 L454 659 Z " />
<glyph glyph-name="K" unicode="K" horiz-adv-x="644" d="M736 659 L505 659 L500 638 L515 638 C555 638 565 633 565 612 C565 601 561 594 544 578 L252 293 L333 556 C355 629 366 639 422 638 L433 638 L439 659 L176 659 L170 638 L196 638 C237 638 251 628 251 598 C251 587 248 571 242 553 L105 102 C83 27 80 23 27 21 L-2 21 L-9 0 L261 0 L268 21 L242 21 C201 21 186 32 186 60 C186 71 189 87 195 106 L237 242 L339 339 L432 81 C437 67 440 53 440 47 C440 26 426 21 374 21 L362 21 L355 0 L622 0 L628 21 L605 21 C554 22 545 29 527 77 L404 400 L594 583 C641 625 672 640 715 638 L730 638 L736 659 Z " />
<glyph glyph-name="L" unicode="L" horiz-adv-x="592" d="M567 168 L540 168 C529 135 515 111 494 87 C448 36 399 18 302 18 C216 18 189 30 189 67 C189 78 191 92 196 107 L338 556 C360 629 371 639 428 638 L438 638 L445 659 L182 659 L175 638 L201 638 C242 638 256 628 256 599 C256 588 253 570 247 553 L106 102 C87 29 80 22 26 20 L-2 20 L-9 0 L513 0 L567 168 Z " />
<glyph glyph-name="M" unicode="M" horiz-adv-x="842" d="M908 659 L734 659 L395 135 L365 659 L186 659 L183 638 L204 638 C247 638 247 638 258 635 C271 631 279 619 279 602 C279 595 278 588 275 581 L86 87 C67 32 56 21 15 21 L-8 21 L-13 0 L190 0 L194 21 L184 21 C132 21 119 27 119 52 C119 63 124 84 132 104 L284 513 L315 0 L343 0 L720 583 L603 113 C586 33 576 22 516 21 L491 21 L486 0 L760 0 L765 21 L737 21 C703 21 684 37 684 65 C684 74 685 83 687 92 L807 568 C822 630 834 639 895 638 L902 638 L908 659 Z " />
<glyph glyph-name="N" unicode="N" horiz-adv-x="680" d="M783 659 L573 659 L567 638 L582 638 C639 638 652 632 652 608 C652 599 648 578 643 562 L520 139 L318 659 L162 659 L156 638 L196 638 C221 638 238 623 246 595 L95 98 C77 34 62 21 16 21 L-3 21 L-9 0 L204 0 L209 21 L199 21 C140 21 124 28 124 52 C124 60 127 78 131 91 L268 545 L496 -25 L507 -25 L681 560 C699 626 711 639 760 638 L777 638 L783 659 Z " />
<glyph glyph-name="O" unicode="O" horiz-adv-x="629" d="M428 679 C253 679 83 465 83 245 C83 150 120 63 182 16 C211 -7 252 -20 294 -20 C373 -20 450 20 515 96 C590 183 637 303 637 407 C637 564 548 679 428 679 L428 679 Z M431 653 C503 653 538 597 538 479 C538 399 514 280 482 200 C432 74 370 10 297 10 C225 10 181 75 181 185 C181 313 242 504 307 583 C347 631 386 653 431 653 L431 653 Z " />
<glyph glyph-name="P" unicode="P" horiz-adv-x="581" d="M262 305 L324 305 C453 305 488 312 545 350 C601 387 632 443 632 509 C632 554 616 592 586 618 C553 649 512 661 445 661 L329 659 L176 659 L170 638 L181 638 C235 638 235 638 245 632 C251 628 254 620 254 610 C254 600 251 587 246 567 L111 103 C96 40 77 22 24 21 L-3 21 L-9 0 L273 0 L279 21 L250 21 C215 21 195 36 195 61 C195 71 198 87 206 114 L262 305 Z M269 328 L360 639 L399 639 C449 639 480 633 498 621 C521 606 534 573 534 528 C534 472 516 417 485 379 C453 339 421 328 336 328 L269 328 Z " />
<glyph glyph-name="Q" unicode="Q" horiz-adv-x="629" d="M292 -20 C346 -20 392 -4 442 32 C559 114 637 269 637 418 C637 565 546 679 429 679 C253 679 82 465 82 243 C82 136 130 39 202 2 C217 -6 232 -12 248 -16 C228 -48 203 -63 129 -89 C58 -113 35 -126 35 -140 C35 -147 45 -154 54 -154 C65 -154 67 -153 95 -127 C113 -112 130 -104 153 -101 C231 -58 251 -45 278 -20 L292 -20 Z M433 653 C503 653 539 595 539 482 C539 403 514 282 481 200 C428 72 367 10 293 10 C223 10 181 75 181 183 C181 264 202 359 239 452 C294 587 357 653 433 653 L433 653 Z M162 -100 C211 -100 228 -107 316 -169 C370 -206 416 -224 454 -224 C484 -224 520 -210 541 -190 C564 -170 582 -131 582 -106 C582 -100 579 -95 575 -95 C572 -95 570 -98 567 -104 C554 -133 516 -155 479 -155 C453 -155 420 -147 391 -133 C291 -86 279 -82 247 -82 C223 -82 217 -83 159 -100 L162 -100 Z " />
<glyph glyph-name="R" unicode="R" horiz-adv-x="645" d="M624 63 C604 39 586 28 563 28 C543 28 527 39 518 58 C511 75 507 92 499 151 C478 283 457 306 337 336 C410 336 410 336 444 344 C553 368 612 428 612 518 C612 605 545 662 442 662 L331 659 L176 659 L170 638 L181 638 C241 638 253 633 253 608 C253 598 250 580 245 564 L110 101 C95 40 78 23 30 21 L-3 21 L-9 0 L268 0 L274 21 L250 21 C212 21 192 35 193 62 C193 73 196 85 199 98 L269 336 L304 336 C388 332 401 311 407 157 C411 89 420 46 435 22 C449 0 480 -15 512 -15 C557 -15 600 7 636 48 L624 63 Z M275 354 L358 639 C377 641 384 641 392 641 C490 641 524 613 524 536 C524 467 494 406 446 378 C411 358 392 354 307 354 L275 354 Z " />
<glyph glyph-name="S" unicode="S" horiz-adv-x="508" d="M550 663 L522 663 L494 609 C466 654 416 679 355 679 C253 679 168 593 168 490 C168 427 195 378 270 299 C346 220 367 183 367 132 C367 59 316 9 240 9 C149 9 86 81 86 186 C86 190 87 201 88 213 L63 213 L19 0 L52 0 L90 55 C129 4 179 -20 246 -20 C362 -20 452 64 452 171 C452 221 428 274 385 319 C291 419 291 419 269 450 C250 478 242 502 242 531 C242 605 287 653 355 653 C411 653 455 623 475 569 C485 544 489 516 489 468 L517 468 L550 663 Z " />
<glyph glyph-name="T" unicode="T" horiz-adv-x="606" d="M713 659 L169 659 L115 511 L140 511 C174 600 217 635 296 634 L383 634 L216 105 C199 36 185 23 121 21 L90 21 L83 0 L394 0 L401 21 L375 21 C322 21 299 34 299 65 C299 75 301 90 305 100 L473 634 L573 634 C631 634 651 619 651 575 C651 558 648 542 639 511 L666 511 L713 659 Z " />
<glyph glyph-name="U" unicode="U" horiz-adv-x="730" d="M844 659 L630 659 L623 638 L631 638 C694 638 705 634 705 612 C705 600 702 582 697 567 L583 204 C558 125 534 83 498 52 C465 24 422 10 371 10 C272 10 213 54 213 126 C213 146 217 168 223 189 L344 571 C360 627 373 638 422 638 L448 638 L455 659 L183 659 L176 638 L208 638 C244 638 258 628 258 599 C258 588 255 575 248 553 L143 218 C131 180 126 156 126 131 C126 90 144 55 176 32 C223 -2 288 -20 359 -20 C427 -20 481 -3 525 31 C569 65 596 112 622 194 L741 570 C757 626 768 637 813 638 L838 638 L844 659 Z " />
<glyph glyph-name="V" unicode="V" horiz-adv-x="606" d="M752 659 L526 659 L526 638 L539 638 C595 638 608 633 608 608 C608 594 605 585 593 568 L280 97 L304 552 C308 630 318 641 390 638 L400 638 L400 659 L134 659 L134 638 L146 638 C207 638 216 632 216 587 C216 580 216 580 214 554 L184 -29 L240 -29 L622 541 C681 634 686 637 742 638 L752 638 L752 659 Z " />
<glyph glyph-name="W" unicode="W" horiz-adv-x="890" d="M641 659 L597 659 L285 146 L307 576 C310 632 319 640 385 638 L395 638 L395 659 L135 659 L135 638 L144 638 C212 638 215 636 215 576 L215 559 L188 -28 L221 -28 L543 493 L517 -28 L550 -28 L918 556 C959 627 972 638 1021 638 L1042 638 L1042 659 L817 659 L817 638 L827 638 C880 638 880 638 890 631 C896 627 899 619 899 610 C899 598 895 587 880 563 L616 146 L641 659 Z " />
<glyph glyph-name="X" unicode="X" horiz-adv-x="657" d="M751 659 L523 659 L523 638 L540 638 C585 638 592 635 592 615 C592 601 585 589 566 569 L403 401 L357 558 C352 576 349 595 349 607 C349 616 352 624 357 629 C366 638 368 638 408 638 L418 638 L418 659 L161 659 L161 638 L189 638 C225 637 242 625 249 593 C253 581 255 573 255 572 L329 325 L96 85 C40 27 33 23 -5 21 L-28 21 L-28 0 L196 0 L196 21 L165 21 C128 21 117 27 117 46 C117 59 121 67 132 78 L339 290 L401 83 C404 73 408 53 408 47 C408 27 394 21 352 21 L333 21 L333 0 L598 0 L598 21 L572 21 C526 22 511 34 499 78 L414 365 L607 565 C666 628 677 635 724 638 L751 638 L751 659 Z " />
<glyph glyph-name="Y" unicode="Y" horiz-adv-x="628" d="M778 659 L526 659 L521 638 L529 638 C578 638 578 638 588 634 C596 630 601 622 601 611 C601 598 596 589 581 573 L380 357 L314 570 C306 594 306 594 306 604 C306 617 313 629 323 634 C332 638 337 638 374 638 L384 638 L389 659 L131 659 L126 638 L153 638 C198 636 208 629 219 588 L308 317 L242 102 C221 31 210 21 146 21 L127 21 L121 0 L402 0 L408 21 L386 21 C338 21 324 31 324 62 C324 74 326 86 332 105 L399 336 L636 579 C684 629 709 641 761 638 L773 638 L778 659 Z " />
<glyph glyph-name="Z" unicode="Z" horiz-adv-x="636" d="M676 659 L190 659 L139 498 L168 498 C209 598 256 633 351 633 L557 638 L28 9 L29 11 L25 0 L546 0 L600 182 L567 182 C525 75 464 29 360 26 L147 22 L674 653 L674 652 L676 659 Z " />
<glyph glyph-name="bracketleft" unicode="&#x5b;" horiz-adv-x="301" d="M428 693 L232 693 L-50 -211 L146 -211 L154 -185 L25 -185 L291 667 L420 667 L428 693 Z " />
<glyph glyph-name="backslash" unicode="&#x5c;" horiz-adv-x="400" d="M226 -208 L276 -208 L259 693 L207 693 L226 -208 Z " />
<glyph glyph-name="bracketright" unicode="&#x5d;" horiz-adv-x="301" d="M192 693 L184 667 L313 667 L47 -185 L-82 -185 L-90 -211 L106 -211 L388 693 L192 693 Z " />
<glyph glyph-name="asciicircum" unicode="&#x5e;" horiz-adv-x="502" d="M59 417 L100 417 L234 623 L371 417 L444 417 L249 706 L244 706 L59 417 Z " />
<glyph glyph-name="underscore" unicode="&#x5f;" horiz-adv-x="503" d="M-32 -142 L467 -142 L467 -109 L-32 -109 L-32 -142 Z " />
<glyph glyph-name="grave" unicode="&#x60;" horiz-adv-x="503" d="M334 619 L267 619 C258 619 258 619 253 614 L347 494 C350 491 356 489 361 489 C364 489 366 489 367 491 C369 492 370 493 370 493 L371 493 L370 499 L334 619 Z " />
<glyph glyph-name="a" unicode="a" horiz-adv-x="461" d="M425 107 C394 52 359 18 334 18 C323 18 317 26 317 41 C317 48 318 55 320 62 L430 418 L357 418 L351 399 C337 424 327 431 299 431 C245 431 189 399 137 339 C72 264 30 167 30 94 C30 30 65 -13 119 -13 C163 -13 200 8 255 68 L255 58 L254 52 L254 49 C254 14 280 -14 313 -14 C357 -14 404 25 446 97 L425 107 Z M299 409 C322 409 337 394 337 371 C337 342 310 258 267 158 C232 74 182 19 140 19 C116 19 103 40 103 80 C103 136 130 216 175 292 C224 373 262 409 299 409 L299 409 Z " />
<glyph glyph-name="b" unicode="b" horiz-adv-x="417" d="M139 662 L167 662 C195 662 206 655 206 639 C206 633 204 626 201 616 L52 139 C43 110 38 84 38 66 C38 19 77 -13 132 -13 C270 -13 403 152 403 322 C403 388 367 431 312 431 C288 431 261 422 239 406 C225 396 222 393 198 364 L301 695 L295 699 C251 686 220 683 146 683 L139 662 Z M304 405 C329 403 339 389 339 357 C339 303 314 214 278 145 C232 55 190 14 145 14 C121 14 108 28 108 54 C108 93 136 186 173 266 C216 362 260 408 304 405 L304 405 Z " />
<glyph glyph-name="c" unicode="c" horiz-adv-x="330" d="M262 136 C232 62 188 17 146 17 C116 17 103 36 103 76 C103 135 126 217 166 300 C205 378 231 408 262 408 C274 408 281 402 281 391 C281 388 280 383 278 378 C276 371 275 366 275 363 C275 349 289 336 304 336 C324 336 341 354 341 376 C341 406 311 431 276 431 C165 431 30 255 30 109 C30 36 72 -13 134 -13 C190 -13 247 39 286 124 L262 136 Z " />
<glyph glyph-name="d" unicode="d" horiz-adv-x="460" d="M356 662 L378 662 C413 662 424 657 423 640 C423 633 421 625 418 616 L353 407 C336 425 322 431 299 431 C179 431 31 246 31 96 C31 33 70 -13 124 -13 C164 -13 198 8 253 68 C253 52 254 41 255 35 C261 7 283 -13 311 -13 C355 -13 406 29 444 97 L423 107 C393 54 357 19 332 19 C321 19 315 27 315 41 C315 51 315 53 323 77 L518 695 L511 699 C467 686 438 682 363 683 L356 662 Z M303 405 C324 405 337 394 337 374 C337 363 337 363 311 280 C272 157 261 131 232 84 C204 39 176 17 144 17 C117 17 102 37 102 76 C102 123 116 175 143 234 C191 339 253 405 303 405 L303 405 Z " />
<glyph glyph-name="e" unicode="e" horiz-adv-x="326" d="M255 133 C219 56 180 17 140 17 C111 17 95 41 95 85 C95 106 101 140 107 160 L108 163 C108 163 109 165 110 168 C244 229 328 308 328 373 C328 405 300 431 266 431 C159 431 27 247 27 98 C27 34 67 -13 120 -13 C182 -13 237 32 282 119 L255 133 Z M119 196 C130 241 131 244 141 269 C175 355 217 404 254 404 C271 404 282 391 282 370 C282 341 261 301 229 271 C198 242 175 226 125 199 L119 196 Z " />
<glyph glyph-name="f" unicode="f" horiz-adv-x="278" d="M325 410 L228 410 L255 508 C275 576 289 611 308 638 C323 659 348 673 371 673 C392 673 397 668 404 640 C410 616 424 604 445 604 C466 604 484 620 484 640 C484 671 438 701 389 701 C342 701 296 681 260 642 C216 597 193 550 159 436 L151 410 L45 410 L39 385 L145 385 L9 -103 C-25 -227 -50 -272 -83 -272 C-95 -272 -103 -265 -103 -253 C-103 -246 -102 -243 -97 -235 C-92 -228 -88 -219 -88 -213 C-88 -200 -105 -187 -121 -187 C-144 -187 -164 -209 -164 -234 C-164 -268 -131 -295 -89 -295 C-10 -295 55 -214 97 -64 L221 385 L319 385 L325 410 Z " />
<glyph glyph-name="g" unicode="g" horiz-adv-x="394" d="M319 398 C290 424 275 431 245 431 C155 431 71 338 71 238 C71 202 87 168 114 148 C119 145 119 145 137 132 C100 125 95 123 81 118 C41 101 15 69 15 39 C15 4 41 -18 103 -35 C169 -54 211 -67 229 -75 C267 -92 283 -112 283 -142 C283 -198 227 -238 147 -238 C62 -238 5 -201 5 -147 C5 -115 20 -94 57 -72 C58 -71 58 -71 59 -69 C51 -64 45 -62 29 -62 C-17 -62 -56 -100 -56 -145 C-56 -212 23 -261 129 -261 C247 -261 337 -194 337 -106 C337 -51 296 -17 205 3 C104 24 104 24 93 30 C78 38 72 47 72 63 C72 94 88 104 152 112 C212 120 247 130 274 148 C321 180 355 248 355 310 C355 336 351 349 331 385 C343 400 347 402 357 402 C367 402 371 400 379 390 C385 382 391 379 399 379 C414 379 429 392 429 406 C429 422 410 437 389 437 C366 437 349 428 319 398 L319 398 Z M247 413 C279 413 294 394 294 354 C294 324 282 264 268 227 C244 163 216 133 180 133 C150 133 133 157 133 199 C133 235 144 279 165 328 C191 390 213 413 247 413 L247 413 Z " />
<glyph glyph-name="h" unicode="h" horiz-adv-x="454" d="M304 695 L297 699 C253 686 225 683 149 683 L141 662 L170 662 C193 660 193 660 195 660 C203 657 208 649 208 640 C208 632 207 624 204 616 L10 0 L85 0 L146 198 C167 267 191 312 226 349 C252 378 287 398 310 398 C325 398 335 387 334 372 C334 363 330 346 327 335 L260 122 C248 84 241 53 241 40 C241 11 269 -13 303 -13 C351 -13 398 24 440 95 L419 105 C383 46 354 17 330 17 C319 17 313 25 313 37 C313 46 316 58 323 80 L395 309 C404 338 408 356 408 370 C408 405 377 431 338 431 C291 431 246 404 195 344 L304 695 Z " />
<glyph glyph-name="i" unicode="i" horiz-adv-x="267" d="M215 110 C183 46 166 26 143 26 C133 26 127 34 127 48 C127 56 128 63 133 76 L219 340 C226 362 229 377 229 388 C229 412 204 431 172 431 C122 431 87 398 45 311 L73 304 C99 367 115 389 136 389 C145 389 149 383 149 372 C149 364 146 352 141 334 L59 83 C51 61 48 45 48 35 C48 9 77 -13 110 -13 C156 -13 203 27 239 97 L215 110 Z M241 634 C213 634 188 611 188 586 C188 560 212 537 240 537 C267 537 292 560 292 586 C292 611 267 634 241 634 L241 634 Z " />
<glyph glyph-name="j" unicode="j" horiz-adv-x="257" d="M81 306 C103 357 133 390 155 390 C165 390 171 383 171 369 C171 356 160 315 141 254 L38 -73 C-13 -234 -31 -267 -70 -267 C-87 -267 -97 -259 -97 -246 C-97 -242 -95 -236 -90 -228 C-84 -217 -81 -211 -81 -206 C-81 -194 -96 -181 -111 -181 C-132 -181 -151 -200 -151 -221 C-151 -255 -117 -282 -73 -282 C-28 -282 19 -254 53 -204 C79 -168 92 -138 115 -66 L212 243 C238 325 247 361 247 387 C247 414 228 431 198 431 C142 431 93 391 54 313 L81 306 Z M256 634 C228 634 203 611 203 586 C203 560 228 537 255 537 C282 537 307 560 307 586 C307 611 282 634 256 634 L256 634 Z " />
<glyph glyph-name="k" unicode="k" horiz-adv-x="447" d="M138 662 L157 662 C193 662 205 656 205 638 C205 633 203 624 201 616 L9 0 L82 0 L152 221 C171 233 180 236 193 236 C222 236 236 217 236 176 L235 128 C233 101 232 76 232 69 C232 19 259 -13 299 -13 C351 -13 396 30 420 103 L395 113 C379 59 357 31 330 31 C322 31 314 35 311 42 C303 55 302 60 299 118 C294 217 274 247 209 254 C273 341 322 385 355 385 C362 385 371 383 382 380 C394 377 404 375 411 375 C431 375 450 391 450 407 C450 423 430 438 407 438 C356 438 300 399 220 306 C196 280 188 270 155 230 L302 695 L295 699 C251 686 223 683 146 683 L138 662 Z " />
<glyph glyph-name="l" unicode="l" horiz-adv-x="253" d="M139 662 L167 662 C196 662 205 656 205 636 C205 630 204 625 201 616 L46 120 C35 84 31 65 31 48 C31 12 59 -13 100 -13 C155 -13 196 22 245 114 L219 127 C188 61 156 26 127 26 C113 26 105 36 105 54 C105 69 108 82 120 119 L302 695 L295 699 C251 686 223 683 146 683 L139 662 Z " />
<glyph glyph-name="m" unicode="m" horiz-adv-x="686" d="M63 300 C94 359 118 387 137 387 C147 387 153 379 153 365 C153 351 149 335 132 283 L43 0 L118 0 L175 181 C219 319 275 398 329 398 C347 398 357 386 357 366 C357 356 355 343 351 331 L250 0 L323 0 L380 179 C423 316 484 398 541 398 C559 398 568 388 568 369 C568 357 566 346 560 328 L489 102 C477 64 476 59 476 45 C476 13 504 -13 540 -13 C589 -13 635 25 673 97 L649 113 C622 54 591 18 567 18 C555 18 549 28 549 45 C549 56 549 56 555 76 L631 315 C638 338 642 356 642 369 C642 403 606 431 562 431 C511 431 468 399 415 322 C417 350 417 350 417 359 C417 403 389 431 344 431 C295 431 255 398 202 312 C213 361 213 361 213 376 C213 411 194 431 162 431 C118 431 79 391 39 306 L63 300 Z " />
<glyph glyph-name="n" unicode="n" horiz-adv-x="472" d="M118 0 L174 176 C196 246 210 279 231 313 C266 368 301 398 329 398 C346 398 356 387 356 369 C356 353 350 328 339 295 L278 116 C264 75 259 53 259 36 C259 8 284 -13 317 -13 C369 -13 421 29 458 101 L433 113 C404 55 378 28 352 28 C341 28 335 35 335 49 C335 59 336 65 343 84 L411 288 C423 321 428 346 428 364 C428 401 394 431 352 431 C302 431 258 395 192 298 C209 356 209 358 209 385 C209 413 190 431 160 431 C118 431 78 390 39 306 L63 300 C89 353 118 387 137 387 C147 387 153 378 153 364 C153 350 149 333 132 282 L43 0 L118 0 Z " />
<glyph glyph-name="o" unicode="o" horiz-adv-x="393" d="M258 432 C146 432 40 289 40 137 C40 46 82 -13 148 -13 C261 -13 368 135 368 293 C368 375 323 432 258 432 L258 432 Z M259 404 C288 404 305 382 305 345 C305 297 285 204 261 145 C224 53 190 13 150 13 C119 13 104 37 104 83 C104 133 122 207 153 286 C187 370 218 404 259 404 L259 404 Z " />
<glyph glyph-name="p" unicode="p" horiz-adv-x="434" d="M211 562 L179 473 C170 458 164 448 163 446 L88 335 C62 297 43 263 16 209 L47 209 C85 286 116 334 150 369 L-24 -183 C-37 -227 -45 -234 -91 -234 L-108 -234 L-114 -254 L106 -254 L112 -234 L94 -234 C54 -234 46 -230 46 -211 C46 -203 48 -191 52 -178 L119 33 C142 -1 161 -13 192 -13 C299 -13 417 153 417 302 C417 380 378 431 319 431 C285 431 261 419 220 380 C226 397 231 412 235 426 C262 506 268 523 285 562 L211 562 Z M302 404 C333 404 348 383 348 337 C348 266 323 172 283 95 C258 47 221 17 188 17 C160 17 141 39 141 71 C141 108 177 234 213 320 C236 374 268 404 302 404 L302 404 Z " />
<glyph glyph-name="q" unicode="q" horiz-adv-x="422" d="M424 418 L349 418 L336 379 C329 397 327 402 321 409 C309 422 287 431 267 431 C158 431 37 267 37 120 C37 39 75 -13 135 -13 C165 -13 188 -3 226 28 L159 -186 C143 -233 141 -234 83 -234 L75 -234 L69 -254 L280 -254 L286 -234 L277 -234 C230 -233 226 -231 227 -212 C227 -206 228 -200 230 -194 L424 418 Z M271 401 C299 401 316 382 316 349 C316 327 314 316 300 269 C259 136 254 120 243 93 C221 41 196 17 162 17 C128 17 108 45 108 93 C108 166 142 266 193 343 C217 380 245 401 271 401 L271 401 Z " />
<glyph glyph-name="r" unicode="r" horiz-adv-x="321" d="M126 0 L180 171 C223 306 259 377 284 377 C291 377 297 373 302 366 C317 344 318 343 327 343 C343 343 359 365 359 388 C359 417 340 438 315 438 C290 438 265 418 236 373 C212 335 207 326 181 260 C195 327 195 327 195 355 C195 404 176 431 142 431 C102 431 64 383 38 298 L66 298 C88 359 112 396 132 396 C142 396 147 387 147 370 C147 345 137 296 114 212 L56 0 L126 0 Z " />
<glyph glyph-name="s" unicode="s" horiz-adv-x="293" d="M213 431 C141 431 84 384 84 323 C84 298 91 278 119 219 C177 101 177 100 177 74 C177 38 145 10 104 10 C71 10 62 19 60 51 C58 85 45 105 23 105 C6 105 -8 91 -8 74 C-8 28 43 -13 101 -13 C179 -13 243 44 243 113 C243 145 228 183 188 257 C161 305 151 332 151 355 C151 387 173 408 206 408 C230 408 246 396 248 375 C251 348 256 342 276 342 C294 342 310 356 310 373 C310 407 269 431 213 431 L213 431 Z " />
<glyph glyph-name="t" unicode="t" horiz-adv-x="280" d="M290 410 L220 410 L267 555 L192 555 L147 411 L80 411 L72 386 L139 386 L51 106 C41 74 37 57 37 43 C37 10 65 -13 104 -13 C161 -13 209 31 253 123 L226 137 C194 63 163 24 133 24 C118 24 112 32 112 51 C112 60 114 70 118 82 L214 386 L282 386 L290 410 Z " />
<glyph glyph-name="u" unicode="u" horiz-adv-x="466" d="M444 418 L370 418 L328 284 C279 129 208 22 153 22 C139 22 131 32 131 49 C131 60 133 73 139 91 L207 307 C219 343 223 363 223 380 C223 412 204 431 171 431 C124 431 77 387 48 317 L75 310 C97 365 119 393 139 393 C147 393 151 388 151 375 C151 368 150 360 146 350 L67 100 C61 80 58 63 58 49 C58 14 86 -13 123 -13 C160 -13 198 9 237 51 C252 68 255 73 281 109 C272 66 272 66 272 50 C272 12 293 -13 324 -13 C364 -13 406 27 444 100 L421 111 C393 53 367 21 347 21 C338 21 332 29 332 41 C332 50 335 67 338 78 L444 418 Z " />
<glyph glyph-name="v" unicode="v" horiz-adv-x="393" d="M66 340 C68 365 75 376 89 376 C98 376 110 371 124 363 C144 351 149 349 157 349 C159 349 163 349 168 350 L176 351 L185 352 C177 340 169 328 161 315 C112 240 105 228 93 206 C65 152 51 109 51 72 C51 23 92 -13 146 -13 C209 -13 263 26 309 106 C351 179 378 273 378 347 C378 398 362 432 338 432 C319 432 302 415 302 396 C302 385 305 371 310 357 C327 308 329 298 329 276 C329 231 315 180 288 128 C253 61 215 27 174 27 C143 27 125 52 125 96 C125 155 174 283 238 394 C245 406 248 412 248 415 C248 423 236 432 225 432 C218 432 217 432 210 411 C204 394 194 383 185 383 C175 383 167 389 152 405 C131 429 121 436 107 436 C79 436 62 411 44 345 L66 340 Z " />
<glyph glyph-name="w" unicode="w" horiz-adv-x="665" d="M74 344 C77 369 85 381 98 381 C105 381 110 379 133 367 C146 361 152 359 160 359 C166 359 170 360 182 363 L193 365 C180 346 177 341 174 337 C99 233 99 233 90 217 C62 169 49 129 49 89 C49 29 90 -13 149 -13 C200 -13 249 17 310 86 C319 64 323 56 330 45 C352 9 388 -13 424 -13 C483 -13 544 34 589 114 C629 187 655 280 655 350 C655 404 638 439 612 439 C594 439 576 423 576 405 C576 397 579 385 584 372 C604 322 608 305 608 273 C608 161 520 30 446 30 C405 30 375 79 370 156 C439 238 485 329 485 382 C485 411 468 431 444 431 C377 431 302 294 302 170 C302 157 303 143 305 119 C249 55 208 27 172 27 C141 27 122 53 122 96 C122 163 155 254 222 368 C250 416 250 416 250 420 C250 428 238 437 227 437 C217 437 213 431 210 413 C207 396 201 387 191 387 C183 387 176 392 167 403 C142 433 129 443 114 443 C88 443 63 406 52 350 L74 344 Z M367 194 L368 197 L368 203 L368 216 C369 274 376 308 396 352 C410 382 424 398 438 398 C447 398 453 389 453 374 C453 332 430 282 375 204 L367 194 Z " />
<glyph glyph-name="x" unicode="x" horiz-adv-x="416" d="M251 246 L322 338 C357 382 364 389 374 389 C384 389 389 381 389 366 C389 353 388 348 374 311 L397 305 C415 347 424 380 424 406 C424 424 412 437 395 437 C368 437 343 414 284 334 L243 278 L216 373 C203 420 186 441 163 441 C128 441 104 405 76 316 L98 312 C113 364 122 380 135 380 C143 380 147 374 152 355 C153 350 154 346 155 342 L190 208 L120 117 C68 50 50 32 38 32 C31 32 27 38 27 49 C27 63 32 78 48 112 L24 118 C3 78 -9 41 -9 14 C-9 -2 2 -14 18 -14 C44 -14 73 12 134 90 L200 176 L225 75 C241 13 259 -13 287 -13 C323 -13 357 30 390 117 L364 124 C350 81 331 52 318 52 C308 52 303 61 293 96 L251 246 Z " />
<glyph glyph-name="y" unicode="y" horiz-adv-x="360" d="M54 284 C63 346 80 387 96 387 C104 387 111 376 115 358 C128 286 138 179 138 103 C138 -23 119 -93 68 -155 C33 -196 -13 -226 -42 -226 C-49 -226 -55 -225 -62 -222 C-95 -208 -95 -208 -108 -208 C-127 -208 -147 -223 -147 -239 C-147 -257 -122 -273 -93 -273 C-51 -273 3 -248 52 -206 C121 -148 186 -52 268 115 C326 231 349 300 349 357 C349 403 329 435 300 435 C284 435 270 421 270 405 C270 398 275 386 281 378 C306 347 306 347 306 328 C306 288 294 248 258 167 C233 110 224 95 197 55 C201 93 201 99 201 125 C201 332 174 431 119 431 C78 431 48 386 30 298 L54 284 Z " />
<glyph glyph-name="z" unicode="z" horiz-adv-x="354" d="M87 323 C99 352 111 365 127 365 C136 365 154 361 173 354 C197 346 226 341 245 341 C254 341 256 341 286 347 L62 107 C6 48 -12 27 -12 20 C-12 12 1 0 9 0 C19 0 23 4 38 29 C52 54 70 68 88 68 C104 68 122 59 160 30 C187 9 205 0 220 0 C261 0 303 52 318 120 L293 127 C290 110 288 103 283 93 C276 79 259 67 246 68 C236 68 219 73 196 81 C176 89 144 95 129 95 C117 95 112 94 73 84 L264 283 C350 372 377 403 377 414 C377 421 365 431 356 431 C347 431 343 426 333 409 C318 383 295 365 276 365 C263 365 250 373 224 397 C198 421 179 431 159 431 C125 431 85 389 64 331 L87 323 Z " />
<glyph glyph-name="braceleft" unicode="&#x7b;" horiz-adv-x="275" d="M23 233 C54 229 67 216 67 188 C67 162 62 142 42 81 C-20 -103 -20 -103 -20 -137 C-20 -190 11 -211 88 -211 L123 -211 L130 -188 C75 -188 51 -171 51 -131 C51 -101 59 -70 101 53 C125 121 135 159 135 178 C135 199 123 217 104 227 C95 231 95 231 54 242 C156 258 181 287 222 435 C278 640 299 667 401 670 L408 693 L376 693 C260 694 208 642 165 479 C108 276 98 258 28 249 L23 233 Z " />
<glyph glyph-name="bar" unicode="&#x7c;" horiz-adv-x="503" d="M228 659 L228 -167 L274 -167 L274 659 L228 659 Z " />
<glyph glyph-name="braceright" unicode="&#x7d;" horiz-adv-x="275" d="M293 249 C261 253 249 266 249 294 C249 320 254 340 274 401 C336 585 336 585 336 619 C336 672 305 693 228 693 L193 693 L186 670 C241 670 265 652 265 613 C265 583 256 551 215 429 C191 361 181 323 181 304 C181 284 193 265 212 255 C221 250 221 250 262 241 C158 221 135 195 94 47 C38 -158 17 -186 -85 -188 L-92 -211 L-60 -211 C56 -212 108 -159 150 3 C208 206 218 224 288 233 L293 249 Z " />
<glyph glyph-name="asciitilde" unicode="&#x7e;" horiz-adv-x="503" d="M453 659 C423 621 391 603 353 603 C332 603 316 607 267 624 C217 641 196 646 173 646 C124 646 83 618 37 555 L49 548 C98 599 109 606 144 606 C170 606 197 600 255 579 C293 565 307 562 328 562 C378 562 427 594 465 652 L453 659 Z " />
<glyph glyph-name="uni00A0" unicode="&#xa0;" horiz-adv-x="251" d="" />
<glyph glyph-name="exclamdown" unicode="&#xa1;" horiz-adv-x="248" d="M152 184 L108 198 L-39 -176 C-47 -198 -51 -212 -51 -220 C-51 -241 -24 -261 5 -261 C36 -261 47 -249 58 -202 L152 184 Z M189 432 C160 432 135 409 135 382 C135 356 160 332 188 332 C216 332 241 356 241 382 C241 408 216 432 189 432 L189 432 Z " />
<glyph glyph-name="cent" unicode="&#xa2;" horiz-adv-x="503" d="M171 0 L199 0 L232 89 C240 88 247 87 251 87 C312 87 362 131 406 225 L382 236 C352 162 307 115 263 115 C259 115 255 115 242 117 L386 510 C407 509 415 505 415 492 C415 489 414 484 413 479 C410 472 409 466 409 463 C409 450 423 438 438 438 C458 438 474 456 474 477 C474 508 445 532 405 532 L394 532 L426 619 L397 619 L364 529 C253 509 133 339 133 201 C133 153 157 118 205 95 L171 0 Z M218 128 C204 145 198 165 198 192 C198 259 243 385 291 453 C308 477 320 487 357 508 L218 128 Z " />
<glyph glyph-name="sterling" unicode="&#xa3;" horiz-adv-x="604" d="M447 345 L283 345 L285 353 L291 369 C350 556 353 567 370 603 C395 659 421 684 453 684 C467 684 478 678 491 663 C509 642 517 637 533 637 C554 637 572 654 572 674 C572 703 537 725 491 725 C432 725 368 681 313 601 C269 539 255 507 206 355 L203 345 L97 345 L88 316 L196 316 C156 175 110 89 37 23 C19 8 16 5 16 2 C16 -2 27 -7 37 -7 C50 -7 61 -2 74 11 C112 47 123 53 149 53 C181 53 211 37 251 -2 C349 -98 349 -98 362 -107 C394 -130 424 -141 456 -141 C503 -141 539 -118 569 -70 C591 -34 600 -4 602 41 L576 38 C572 -23 539 -62 490 -62 C453 -62 411 -44 347 0 C244 70 222 80 177 80 C160 80 158 80 109 61 C173 113 219 184 274 316 L438 316 L447 345 Z " />
<glyph glyph-name="currency" unicode="&#xa4;" horiz-adv-x="502" d="M113 535 L91 513 L162 442 C128 397 117 369 117 327 C117 287 128 258 162 215 L91 144 L113 122 L185 194 C221 167 255 155 293 155 C335 155 366 167 407 197 L478 126 L500 148 L429 219 C460 261 471 290 471 329 C471 369 459 399 429 438 L500 509 L478 531 L407 460 C368 490 336 502 295 502 C255 502 224 491 185 463 L113 535 Z M296 472 C372 472 434 408 434 329 C434 249 373 186 294 186 C215 186 154 249 154 330 C154 411 216 472 296 472 L296 472 Z " />
<glyph glyph-name="yen" unicode="&#xa5;" horiz-adv-x="607" d="M555 386 L432 386 L614 579 C655 629 676 641 720 638 L731 638 L737 659 L524 659 L519 638 L526 638 C573 638 581 634 581 611 C581 598 577 589 562 573 L368 357 L307 571 C302 591 301 595 301 604 C301 629 315 638 353 638 L362 638 L367 659 L156 659 L151 638 L170 638 C205 637 214 628 224 588 L280 386 L165 386 L156 357 L287 357 L298 317 L287 278 L132 278 L123 249 L278 249 L232 102 C212 31 201 21 140 21 L122 21 L116 0 L382 0 L389 21 L368 21 C323 21 310 30 310 62 C310 73 313 88 318 105 L360 249 L514 249 L522 278 L368 278 L385 336 L405 357 L546 357 L555 386 Z " />
<glyph glyph-name="brokenbar" unicode="&#xa6;" horiz-adv-x="503" d="M228 659 L228 331 L274 331 L274 659 L228 659 Z M228 143 L228 -167 L274 -167 L274 143 L228 143 Z " />
<glyph glyph-name="section" unicode="&#xa7;" horiz-adv-x="536" d="M263 472 C241 496 231 518 231 544 C231 605 291 655 363 655 C423 655 461 628 461 587 C461 582 461 577 460 570 C459 563 459 557 459 553 C459 529 476 511 500 511 C526 511 544 529 544 557 C544 626 469 679 370 679 C256 679 166 604 166 510 C166 475 175 458 216 414 C130 376 86 323 86 258 C86 217 105 181 155 127 L308 -39 C335 -67 346 -91 346 -120 C346 -193 283 -245 197 -245 C127 -245 80 -212 80 -164 C80 -153 82 -143 85 -137 C102 -109 104 -103 104 -89 C104 -68 86 -50 66 -50 C35 -50 11 -80 11 -118 C11 -205 93 -269 203 -269 C320 -269 416 -191 416 -96 C416 -61 401 -22 379 2 C376 5 375 7 361 20 C385 32 392 35 405 44 C454 76 486 132 486 183 C486 219 470 252 431 293 L263 472 Z M191 186 C159 220 146 250 146 285 C146 338 169 374 219 396 L352 254 C390 214 404 186 404 150 C404 97 377 57 329 38 L191 186 Z " />
<glyph glyph-name="dieresis" unicode="&#xa8;" horiz-adv-x="439" d="M218 587 C193 587 170 566 170 543 C170 520 193 499 218 499 C242 499 265 520 265 543 C265 566 242 587 218 587 L218 587 Z M375 587 C350 587 327 566 327 543 C327 520 350 499 375 499 C399 499 422 520 422 543 C422 566 399 587 375 587 L375 587 Z " />
<glyph glyph-name="copyright" unicode="&#xa9;" horiz-adv-x="796" d="M610 525 L594 525 L570 501 C552 522 514 537 479 537 C369 537 255 407 255 280 C255 188 314 122 396 122 C423 122 451 129 483 145 L489 126 L507 126 L552 249 L528 249 C498 175 460 142 406 142 C350 142 318 183 318 257 C318 311 334 371 363 424 C399 488 438 519 484 519 C532 519 562 483 562 425 C562 418 561 413 559 402 L580 402 L610 525 Z M479 674 C273 674 96 501 96 299 C96 122 235 -15 415 -15 C617 -15 793 160 793 360 C793 535 654 674 479 674 L479 674 Z M476 658 C640 658 767 527 767 359 C767 165 607 1 417 1 C249 1 122 130 122 301 C122 496 283 658 476 658 L476 658 Z " />
<glyph glyph-name="ordfeminine" unicode="&#xaa;" horiz-adv-x="307" d="M335 334 C316 302 294 281 279 281 C274 281 271 285 271 293 C271 297 272 303 273 306 L342 517 L292 517 L289 510 C282 521 273 525 257 525 C223 525 187 506 153 470 C112 425 85 367 85 324 C85 286 109 260 144 260 C171 260 194 272 226 303 C228 288 230 282 233 277 C239 267 253 260 266 260 C295 260 325 284 352 327 L335 334 Z M258 509 C271 509 279 501 279 487 C279 470 263 423 235 362 C213 313 182 281 157 281 C143 281 136 292 136 316 C136 350 153 396 182 441 C212 488 235 509 258 509 L258 509 Z " />
<glyph glyph-name="guillemotleft" unicode="&#xab;" horiz-adv-x="414" d="M332 78 C319 131 307 167 283 222 C311 244 389 325 423 366 L387 366 C381 361 380 361 374 354 C341 319 259 258 215 235 L213 222 C266 155 271 146 304 78 L332 78 Z M176 78 C163 131 151 167 127 222 C156 244 233 324 267 366 L231 366 C225 361 224 361 218 354 C184 319 103 258 59 235 L57 222 C110 155 115 147 148 78 L176 78 Z " />
<glyph glyph-name="logicalnot" unicode="&#xac;" horiz-adv-x="503" d="M401 0 L452 0 L452 258 L32 258 L32 220 L401 220 L401 0 Z " />
<glyph glyph-name="uni00AD" unicode="&#xad;" horiz-adv-x="164" d="M8 196 L165 196 L180 242 L23 242 L8 196 Z " />
<glyph glyph-name="registered" unicode="&#xae;" horiz-adv-x="796" d="M601 175 C589 159 579 153 566 153 C544 153 539 164 530 224 C518 297 511 306 456 330 C497 337 500 337 512 341 C565 356 597 393 597 440 C597 492 556 527 494 527 L428 525 L335 525 L331 510 L340 510 C375 510 380 508 380 494 C380 487 378 476 376 468 L296 194 C287 159 278 150 251 149 L230 149 L225 134 L393 134 L398 149 L381 149 C359 149 350 156 350 172 C350 178 351 186 353 193 L394 332 L413 332 C461 329 467 319 471 228 C474 187 479 162 488 148 C497 135 516 125 535 125 C563 125 587 137 611 163 L601 175 Z M398 345 L447 511 C454 512 458 512 464 512 C521 512 540 497 540 452 C540 410 523 375 495 359 C476 347 464 345 415 345 L398 345 Z M479 674 C273 674 96 501 96 299 C96 122 235 -15 415 -15 C617 -15 793 160 793 360 C793 535 654 674 479 674 L479 674 Z M476 658 C640 658 767 527 767 359 C767 165 607 1 417 1 C249 1 122 130 122 301 C122 496 283 658 476 658 L476 658 Z " />
<glyph glyph-name="macron" unicode="&#xaf;" horiz-adv-x="502" d="M232 563 L221 526 L459 526 L470 563 L232 563 Z " />
<glyph glyph-name="degree" unicode="&#xb0;" horiz-adv-x="343" d="M287 666 C218 666 163 613 163 546 C163 480 218 427 286 427 C354 427 409 480 409 546 C409 612 354 666 287 666 L287 666 Z M287 635 C335 635 371 598 371 547 C371 495 335 458 286 458 C237 458 201 495 201 546 C201 599 236 635 287 635 L287 635 Z " />
<glyph glyph-name="plusminus" unicode="&#xb1;" horiz-adv-x="502" d="M46 306 L252 306 L252 117 L292 117 L292 306 L498 306 L498 339 L292 339 L292 535 L252 535 L252 339 L46 339 L46 306 Z M46 39 L498 39 L498 72 L46 72 L46 39 Z " />
<glyph glyph-name="twosuperior" unicode="&#xb2;" horiz-adv-x="333" d="M354 331 L337 331 C329 313 324 310 307 310 L130 310 L142 320 L147 324 C298 446 298 446 337 488 C368 521 385 556 385 585 C385 626 348 658 299 658 C245 658 197 624 170 568 L193 560 C215 603 238 622 272 622 C302 622 318 604 318 571 C318 507 251 431 83 300 L83 303 L77 268 L324 268 L354 331 Z " />
<glyph glyph-name="threesuperior" unicode="&#xb3;" horiz-adv-x="333" d="M219 584 C241 617 269 634 300 634 C328 634 343 622 343 601 C343 581 334 563 314 542 C289 516 251 490 217 476 C205 471 200 468 200 464 C200 458 209 449 215 449 C219 449 222 450 230 459 C238 468 253 474 266 474 C289 474 300 460 300 434 C300 402 287 366 265 335 C240 300 213 284 181 284 C148 284 135 297 133 330 C131 351 124 360 108 360 C94 360 82 347 82 333 C82 298 130 264 181 264 C271 264 357 342 357 424 C357 446 347 465 330 477 C319 484 308 487 272 492 C310 512 312 513 324 521 C374 552 401 585 401 615 C401 641 368 663 328 663 C275 663 233 641 198 595 L219 584 Z " />
<glyph glyph-name="acute" unicode="&#xb4;" horiz-adv-x="503" d="M379 619 L297 494 L295 491 C298 489 299 489 301 489 C307 489 314 491 318 495 L460 611 L464 615 L466 617 L465 617 C464 619 463 619 455 619 L379 619 Z " />
<glyph glyph-name="mu" unicode="&#xb5;" horiz-adv-x="466" d="M82 20 C104 -6 115 -13 137 -13 C171 -13 205 9 241 51 C254 68 256 70 282 111 C272 66 272 66 272 50 C272 12 293 -13 325 -13 C364 -13 408 28 445 100 L422 111 C393 53 367 21 348 21 C338 21 332 29 332 41 C332 50 335 65 339 78 L444 418 L370 418 L328 284 C277 122 212 22 159 22 C143 22 134 32 134 49 C134 59 137 84 140 91 L243 418 L168 418 L74 105 L74 102 L-20 -139 C-25 -151 -28 -161 -28 -165 C-28 -177 -10 -190 7 -190 C27 -190 33 -182 40 -153 L82 20 Z " />
<glyph glyph-name="paragraph" unicode="&#xb6;" horiz-adv-x="503" d="M312 272 L180 -147 L215 -147 L454 613 L517 613 L277 -147 L312 -147 L529 543 C549 611 565 621 646 626 L652 646 L427 646 C313 646 288 642 241 614 C170 573 121 491 121 413 C121 362 146 314 183 293 C208 278 240 272 291 272 L312 272 Z " />
<glyph glyph-name="periodcentered" unicode="&#xb7;" horiz-adv-x="221" d="M123 269 C95 269 69 246 69 219 C69 193 94 169 123 169 C151 169 176 193 176 219 C176 245 151 269 123 269 L123 269 Z " />
<glyph glyph-name="cedilla" unicode="&#xb8;" horiz-adv-x="503" d="M225 -11 L204 -11 L169 -78 C209 -86 224 -99 224 -126 C224 -157 193 -180 151 -180 C136 -180 123 -177 97 -169 L84 -186 C110 -198 134 -204 160 -204 C223 -204 277 -167 277 -124 C277 -104 262 -83 243 -75 C233 -70 224 -68 205 -65 L197 -63 L225 -11 Z " />
<glyph glyph-name="onesuperior" unicode="&#xb9;" horiz-adv-x="333" d="M246 268 L374 657 L346 657 C316 639 237 611 180 598 L180 577 C202 582 279 603 294 609 L301 612 L188 268 L246 268 Z " />
<glyph glyph-name="ordmasculine" unicode="&#xba;" horiz-adv-x="264" d="M231 525 C159 525 91 439 91 350 C91 296 119 260 162 260 C234 260 303 349 303 442 C303 490 273 525 231 525 L231 525 Z M232 506 C249 506 258 494 258 473 C258 443 246 390 231 355 C208 302 187 278 163 278 C145 278 137 291 137 318 C137 349 148 391 168 438 C189 487 207 506 232 506 L232 506 Z " />
<glyph glyph-name="guillemotright" unicode="&#xbb;" horiz-adv-x="414" d="M105 361 C117 309 130 272 154 217 L148 212 C126 196 41 107 14 73 L49 73 C56 78 56 78 63 85 C99 122 176 180 221 204 L224 217 C172 281 165 292 133 361 L105 361 Z M261 361 C274 309 286 273 306 226 L310 217 C279 193 204 115 170 73 L205 73 C212 78 212 78 219 85 C255 123 332 180 377 204 L380 217 C328 282 321 292 289 361 L261 361 Z " />
<glyph glyph-name="onequarter" unicode="&#xbc;" horiz-adv-x="772" d="M246 268 L374 657 L346 657 C316 639 237 611 180 598 L180 577 C202 582 279 603 294 609 L301 612 L188 268 L246 268 Z M224 0 L266 0 L634 659 L590 659 L224 0 Z M737 391 L688 391 L460 127 C445 110 445 110 441 102 C445 98 448 96 456 96 L592 96 L563 0 L617 0 L647 96 L722 96 L735 141 L717 141 C710 123 702 115 692 116 L653 116 L737 391 Z M598 116 L480 116 L662 324 L598 116 Z " />
<glyph glyph-name="onehalf" unicode="&#xbd;" horiz-adv-x="772" d="M246 268 L374 657 L346 657 C316 639 237 611 180 598 L180 577 C202 582 279 603 294 609 L301 612 L188 268 L246 268 Z M224 0 L266 0 L634 659 L590 659 L224 0 Z M709 63 L692 63 C684 45 679 42 662 42 L485 42 L497 52 L502 56 C653 179 653 179 692 221 C723 254 740 288 740 317 C740 359 703 391 654 391 C600 391 552 357 525 300 L548 292 C570 336 593 355 627 355 C657 355 673 336 673 303 C673 240 608 164 438 32 L438 35 L432 0 L679 0 L709 63 Z " />
<glyph glyph-name="threequarters" unicode="&#xbe;" horiz-adv-x="773" d="M219 584 C241 617 269 634 300 634 C328 634 343 622 343 601 C343 581 334 563 314 542 C289 516 251 490 217 476 C205 471 200 468 200 464 C200 458 209 449 215 449 C219 449 222 450 230 459 C238 468 253 474 266 474 C289 474 300 460 300 434 C300 402 287 366 265 335 C240 300 213 284 181 284 C148 284 135 297 133 330 C131 351 124 360 108 360 C94 360 82 347 82 333 C82 298 130 264 181 264 C271 264 357 342 357 424 C357 446 347 465 330 477 C319 484 308 487 272 492 C310 512 312 513 324 521 C374 552 401 585 401 615 C401 641 368 663 328 663 C275 663 233 641 198 595 L219 584 Z M225 0 L267 0 L635 659 L591 659 L225 0 Z M738 391 L689 391 L460 127 C458 124 455 120 452 117 L449 114 C446 109 445 108 442 102 C446 98 449 96 457 96 L593 96 L563 0 L618 0 L647 96 L723 96 L736 141 L718 141 C711 123 703 115 693 116 L653 116 L738 391 Z M599 116 L481 116 L663 324 L599 116 Z " />
<glyph glyph-name="questiondown" unicode="&#xbf;" horiz-adv-x="437" d="M229 213 C205 116 190 95 123 66 C51 33 16 7 -11 -33 C-31 -62 -43 -99 -43 -133 C-43 -212 17 -261 115 -261 C169 -261 218 -242 250 -209 C270 -188 283 -162 283 -142 C283 -127 272 -117 256 -117 C229 -117 206 -139 199 -172 C192 -204 191 -205 179 -215 C166 -225 149 -230 128 -230 C71 -230 43 -197 43 -130 C43 -73 58 -29 89 7 C112 33 117 36 208 76 C250 94 255 104 276 213 L229 213 Z M290 432 C262 432 236 409 236 382 C236 356 261 332 290 332 C318 332 343 356 343 382 C343 408 318 432 290 432 L290 432 Z " />
<glyph glyph-name="Agrave" unicode="&#xc0;" horiz-adv-x="602" d="M484 858 L414 858 C405 858 404 858 399 852 L401 849 L498 726 C501 723 507 721 513 721 C516 721 518 722 519 723 L523 725 C524 725 524 726 524 726 C524 727 524 729 523 731 L484 858 Z M508 674 L466 674 L74 105 C26 37 7 22 -37 21 L-52 21 L-59 0 L174 0 L181 21 L170 21 C118 21 101 29 101 55 C101 69 112 94 134 126 L212 242 L398 242 L389 94 C385 34 370 20 311 21 L297 21 L292 0 L537 0 L542 21 L524 21 C490 21 471 46 474 87 L475 95 L508 674 Z M399 266 L229 266 L415 538 L399 266 Z " />
<glyph glyph-name="Aacute" unicode="&#xc1;" horiz-adv-x="602" d="M555 858 L468 727 L466 723 C470 721 471 721 474 721 C480 721 486 724 490 727 L639 850 L644 854 L645 855 L646 856 L645 856 L644 857 C644 857 644 858 643 858 L634 858 L555 858 Z M508 674 L466 674 L74 105 C26 37 7 22 -37 21 L-52 21 L-59 0 L174 0 L181 21 L170 21 C118 21 101 29 101 55 C101 69 112 94 134 126 L212 242 L398 242 L389 94 C385 34 370 20 311 21 L297 21 L292 0 L537 0 L542 21 L524 21 C490 21 471 46 474 87 L475 95 L508 674 Z M399 266 L229 266 L415 538 L399 266 Z " />
<glyph glyph-name="Acircumflex" unicode="&#xc2;" horiz-adv-x="602" d="M518 866 L362 742 C358 738 355 736 355 735 L352 732 C351 731 351 731 351 730 C351 727 359 720 363 720 C367 720 371 721 381 727 L504 798 L585 727 C589 723 595 720 599 720 C604 720 611 725 614 729 C616 732 617 734 618 734 L618 735 C618 735 617 738 613 742 L518 866 Z M508 674 L466 674 L74 105 C26 37 7 22 -37 21 L-52 21 L-59 0 L174 0 L181 21 L170 21 C118 21 101 29 101 55 C101 69 112 94 134 126 L212 242 L398 242 L389 94 C385 34 370 20 311 21 L297 21 L292 0 L537 0 L542 21 L524 21 C490 21 471 46 474 87 L475 95 L508 674 Z M399 266 L229 266 L415 538 L399 266 Z " />
<glyph glyph-name="Atilde" unicode="&#xc3;" horiz-adv-x="602" d="M641 824 C615 800 600 793 577 793 C564 793 546 797 524 806 C484 822 481 823 466 823 C432 823 396 798 353 747 L365 740 C392 766 409 775 428 775 C440 775 459 770 490 760 C528 747 532 746 542 746 C573 746 613 772 651 817 L641 824 Z M508 674 L466 674 L74 105 C26 37 7 22 -37 21 L-52 21 L-59 0 L174 0 L181 21 L170 21 C118 21 101 29 101 55 C101 69 112 94 134 126 L212 242 L398 242 L389 94 C385 34 370 20 311 21 L297 21 L292 0 L537 0 L542 21 L524 21 C490 21 471 46 474 87 L475 95 L508 674 Z M399 266 L229 266 L415 538 L399 266 Z " />
<glyph glyph-name="Adieresis" unicode="&#xc4;" horiz-adv-x="602" d="M400 828 C371 828 345 804 345 778 C345 751 371 727 399 727 C427 727 453 751 453 778 C453 804 427 828 400 828 L400 828 Z M593 828 C564 828 538 804 538 778 C538 751 564 727 592 727 C620 727 646 751 646 778 C646 804 620 828 593 828 L593 828 Z M508 674 L466 674 L74 105 C26 37 7 22 -37 21 L-52 21 L-59 0 L174 0 L181 21 L170 21 C118 21 101 29 101 55 C101 69 112 94 134 126 L212 242 L398 242 L389 94 C385 34 370 20 311 21 L297 21 L292 0 L537 0 L542 21 L524 21 C490 21 471 46 474 87 L475 95 L508 674 Z M399 266 L229 266 L415 538 L399 266 Z " />
<glyph glyph-name="Aring" unicode="&#xc5;" horiz-adv-x="602" d="M497 884 C449 884 408 845 408 800 C408 754 449 715 496 715 C542 715 583 754 583 800 C583 844 542 884 497 884 L497 884 Z M496 853 C524 853 545 830 545 800 C545 769 524 746 496 746 C467 746 446 769 446 800 C446 831 467 853 496 853 L496 853 Z M508 674 L466 674 L74 105 C26 37 7 22 -37 21 L-52 21 L-59 0 L174 0 L181 21 L170 21 C118 21 101 29 101 55 C101 69 112 94 134 126 L212 242 L398 242 L389 94 C385 34 370 20 311 21 L297 21 L292 0 L537 0 L542 21 L524 21 C490 21 471 46 474 87 L475 95 L508 674 Z M399 266 L229 266 L415 538 L399 266 Z " />
<glyph glyph-name="AE" unicode="&#xc6;" horiz-adv-x="843" d="M863 659 L378 659 L373 638 L384 638 C431 638 431 638 437 636 C443 634 446 628 446 621 C446 610 440 597 427 579 L60 81 C27 35 4 19 -27 20 L-53 20 L-59 0 L154 0 L160 20 L149 20 C98 20 88 25 88 46 C88 60 89 62 112 93 L286 333 L434 333 L368 102 C351 31 343 23 289 20 L263 20 L257 0 L765 0 L815 174 L790 174 C779 141 760 108 735 78 C693 30 663 20 561 17 L537 17 C470 16 447 25 447 51 C447 58 450 73 455 89 L524 332 L622 332 C650 332 664 320 664 295 C664 274 659 249 649 218 L676 218 L749 472 L722 472 C702 390 676 361 619 359 L532 359 L612 639 L721 639 C803 642 835 609 841 517 L865 517 L863 659 Z M441 356 L304 356 L526 651 L441 356 Z " />
<glyph glyph-name="Ccedilla" unicode="&#xc7;" horiz-adv-x="595" d="M314 -20 C363 -18 406 -5 457 21 L468 -14 L493 -14 L567 191 L534 191 C482 65 417 9 324 9 C230 9 172 82 172 200 C172 326 221 467 300 567 C345 624 398 653 456 653 C541 653 592 591 592 488 C592 476 591 469 588 454 L615 454 L666 659 L644 659 L602 616 C570 654 509 679 449 679 C261 679 73 460 73 240 C73 119 135 25 235 -8 C255 -15 261 -16 292 -20 L259 -82 C301 -90 317 -104 317 -133 C317 -165 284 -189 241 -189 C225 -189 210 -186 184 -177 L170 -195 C196 -208 223 -214 250 -214 C316 -214 373 -175 373 -130 C373 -104 353 -81 324 -73 C313 -70 305 -69 290 -66 L314 -20 Z " />
<glyph glyph-name="Egrave" unicode="&#xc8;" horiz-adv-x="617" d="M633 659 L182 659 L175 638 L206 638 C243 638 257 628 257 600 C257 588 254 575 247 553 L105 102 C86 31 80 24 34 21 L-2 21 L-9 0 L541 0 L596 175 L570 175 C551 133 531 104 503 78 C457 33 408 18 313 18 C222 18 189 30 189 64 C189 77 193 96 200 120 L270 339 L347 339 C394 339 414 320 414 275 C414 255 412 242 406 215 L432 215 L513 470 L486 470 C452 383 425 363 347 366 L278 366 L364 639 L477 639 C560 642 601 601 611 506 L633 506 L633 659 Z M464 858 L394 858 C385 858 384 858 379 852 L382 849 L478 726 C481 723 487 721 493 721 C496 721 498 722 499 723 L503 725 C504 725 504 726 504 726 C504 727 504 729 503 731 L464 858 Z " />
<glyph glyph-name="Eacute" unicode="&#xc9;" horiz-adv-x="617" d="M633 659 L182 659 L175 638 L206 638 C243 638 257 628 257 600 C257 588 254 575 247 553 L105 102 C86 31 80 24 34 21 L-2 21 L-9 0 L541 0 L596 175 L570 175 C551 133 531 104 503 78 C457 33 408 18 313 18 C222 18 189 30 189 64 C189 77 193 96 200 120 L270 339 L347 339 C394 339 414 320 414 275 C414 255 412 242 406 215 L432 215 L513 470 L486 470 C452 383 425 363 347 366 L278 366 L364 639 L477 639 C560 642 601 601 611 506 L633 506 L633 659 Z M512 858 L425 727 L423 723 C427 721 428 721 431 721 C437 721 443 724 447 727 L596 850 L601 854 L602 855 L603 856 L602 856 L601 857 C601 857 601 858 600 858 L591 858 L512 858 Z " />
<glyph glyph-name="Ecircumflex" unicode="&#xca;" horiz-adv-x="617" d="M633 659 L182 659 L175 638 L206 638 C243 638 257 628 257 600 C257 588 254 575 247 553 L105 102 C86 31 80 24 34 21 L-2 21 L-9 0 L541 0 L596 175 L570 175 C551 133 531 104 503 78 C457 33 408 18 313 18 C222 18 189 30 189 64 C189 77 193 96 200 120 L270 339 L347 339 C394 339 414 320 414 275 C414 255 412 242 406 215 L432 215 L513 470 L486 470 C452 383 425 363 347 366 L278 366 L364 639 L477 639 C560 642 601 601 611 506 L633 506 L633 659 Z M498 866 L342 742 L335 735 L333 732 L332 730 L336 723 C337 722 341 720 344 720 C348 720 350 721 361 727 L484 798 L565 727 C569 723 575 720 579 720 C584 720 592 725 594 729 C596 732 597 734 598 734 C598 734 599 734 599 735 C599 735 597 738 594 742 L498 866 Z " />
<glyph glyph-name="Edieresis" unicode="&#xcb;" horiz-adv-x="617" d="M633 659 L182 659 L175 638 L206 638 C243 638 257 628 257 600 C257 588 254 575 247 553 L105 102 C86 31 80 24 34 21 L-2 21 L-9 0 L541 0 L596 175 L570 175 C551 133 531 104 503 78 C457 33 408 18 313 18 C222 18 189 30 189 64 C189 77 193 96 200 120 L270 339 L347 339 C394 339 414 320 414 275 C414 255 412 242 406 215 L432 215 L513 470 L486 470 C452 383 425 363 347 366 L278 366 L364 639 L477 639 C560 642 601 601 611 506 L633 506 L633 659 Z M380 828 C351 828 325 804 325 778 C325 751 351 727 379 727 C407 727 433 751 433 778 C433 804 407 828 380 828 L380 828 Z M574 828 C545 828 519 804 519 778 C519 751 545 727 573 727 C601 727 627 751 627 778 C627 804 601 828 574 828 L574 828 Z " />
<glyph glyph-name="Igrave" unicode="&#xcc;" horiz-adv-x="353" d="M175 638 L201 638 C242 638 257 628 257 599 C257 588 254 575 247 553 L106 102 C86 28 81 23 25 21 L-2 21 L-9 0 L261 0 L268 21 L243 21 C203 21 188 31 188 60 C188 70 192 90 197 106 L338 556 C360 629 371 639 428 638 L439 638 L445 659 L182 659 L175 638 Z M332 858 L262 858 C253 858 252 858 247 852 L249 849 L346 726 C349 723 355 721 361 721 C364 721 366 722 367 723 L371 725 C372 725 372 726 372 726 C372 727 372 729 371 731 L332 858 Z " />
<glyph glyph-name="Iacute" unicode="&#xcd;" horiz-adv-x="353" d="M175 638 L201 638 C242 638 257 628 257 599 C257 588 254 575 247 553 L106 102 C86 28 81 23 25 21 L-2 21 L-9 0 L261 0 L268 21 L243 21 C203 21 188 31 188 60 C188 70 192 90 197 106 L338 556 C360 629 371 639 428 638 L439 638 L445 659 L182 659 L175 638 Z M401 858 L314 727 L312 723 C315 721 317 721 320 721 C326 721 332 724 336 727 L485 850 L490 854 L491 855 L492 856 L491 856 C490 858 490 858 480 858 L401 858 Z " />
<glyph glyph-name="Icircumflex" unicode="&#xce;" horiz-adv-x="353" d="M175 638 L201 638 C242 638 257 628 257 599 C257 588 254 575 247 553 L106 102 C86 28 81 23 25 21 L-2 21 L-9 0 L261 0 L268 21 L243 21 C203 21 188 31 188 60 C188 70 192 90 197 106 L338 556 C360 629 371 639 428 638 L439 638 L445 659 L182 659 L175 638 Z M366 866 L210 742 C206 738 203 736 203 735 L200 732 C199 731 199 731 199 730 C199 727 207 720 211 720 C216 720 219 721 229 727 L352 798 L433 727 C437 723 443 720 447 720 C452 720 460 725 462 729 C464 732 465 734 466 734 L466 735 C466 735 465 738 461 742 L366 866 Z " />
<glyph glyph-name="Idieresis" unicode="&#xcf;" horiz-adv-x="353" d="M175 638 L201 638 C242 638 257 628 257 599 C257 588 254 575 247 553 L106 102 C86 28 81 23 25 21 L-2 21 L-9 0 L261 0 L268 21 L243 21 C203 21 188 31 188 60 C188 70 192 90 197 106 L338 556 C360 629 371 639 428 638 L439 638 L445 659 L182 659 L175 638 Z M259 828 C230 828 204 804 204 778 C204 751 230 727 258 727 C286 727 312 751 312 778 C312 804 286 828 259 828 L259 828 Z M417 828 C388 828 362 804 362 778 C362 751 388 727 416 727 C444 727 470 751 470 778 C470 804 444 828 417 828 L417 828 Z " />
<glyph glyph-name="Eth" unicode="&#xd0;" horiz-adv-x="690" d="M172 328 L103 102 C85 34 76 24 28 21 L-2 21 L-9 0 L225 -1 L288 -2 C388 -2 454 14 516 53 C623 119 695 254 695 389 C695 482 659 562 598 609 C552 645 494 661 414 661 L169 661 L163 638 L194 638 C233 638 250 627 250 600 C250 589 247 574 241 555 L181 357 L93 357 L84 328 L172 328 Z M262 328 L351 328 L360 357 L270 357 L358 640 L367 640 C440 640 483 632 514 614 C566 583 594 517 594 423 C594 294 546 167 469 91 C422 44 357 20 277 20 C212 20 185 33 185 63 C185 73 187 87 191 99 L262 328 Z " />
<glyph glyph-name="Ntilde" unicode="&#xd1;" horiz-adv-x="680" d="M783 659 L573 659 L567 638 L582 638 C639 638 652 632 652 608 C652 599 648 578 643 562 L520 139 L318 659 L162 659 L156 638 L196 638 C221 638 238 623 246 595 L95 98 C77 34 62 21 16 21 L-3 21 L-9 0 L204 0 L209 21 L199 21 C140 21 124 28 124 52 C124 60 127 78 131 91 L268 545 L496 -25 L507 -25 L681 560 C699 626 711 639 760 638 L777 638 L783 659 Z M646 824 C620 800 605 793 583 793 C569 793 551 797 529 806 C490 822 487 823 471 823 C438 823 401 798 359 747 L371 740 C397 766 414 775 433 775 C445 775 464 770 495 760 C534 747 537 746 547 746 C578 746 619 773 656 817 L646 824 Z " />
<glyph glyph-name="Ograve" unicode="&#xd2;" horiz-adv-x="629" d="M471 858 L401 858 C392 858 391 858 386 852 L388 849 L485 726 C488 723 494 721 500 721 C503 721 505 722 506 723 L510 725 C511 725 511 726 511 726 C511 727 511 728 510 731 L471 858 Z M428 679 C253 679 83 465 83 245 C83 150 120 63 182 16 C211 -7 252 -20 294 -20 C373 -20 450 20 515 96 C590 183 637 303 637 407 C637 564 548 679 428 679 L428 679 Z M431 653 C503 653 538 597 538 479 C538 399 514 280 482 200 C432 74 370 10 297 10 C225 10 181 75 181 185 C181 313 242 504 307 583 C347 631 386 653 431 653 L431 653 Z " />
<glyph glyph-name="Oacute" unicode="&#xd3;" horiz-adv-x="629" d="M509 858 L422 727 L420 723 C424 721 425 721 428 721 C434 721 440 724 444 727 L594 850 L598 854 L599 855 L600 856 L599 856 C598 858 598 858 589 858 L509 858 Z M428 679 C253 679 83 465 83 245 C83 150 120 63 182 16 C211 -7 252 -20 294 -20 C373 -20 450 20 515 96 C590 183 637 303 637 407 C637 564 548 679 428 679 L428 679 Z M431 653 C503 653 538 597 538 479 C538 399 514 280 482 200 C432 74 370 10 297 10 C225 10 181 75 181 185 C181 313 242 504 307 583 C347 631 386 653 431 653 L431 653 Z " />
<glyph glyph-name="Ocircumflex" unicode="&#xd4;" horiz-adv-x="629" d="M478 866 L322 742 C318 738 315 736 315 735 L312 732 L311 730 L315 723 C316 722 321 720 323 720 C328 720 331 721 341 727 L464 798 L545 727 C549 723 555 720 559 720 C564 720 572 725 574 729 C576 732 577 734 578 734 C578 734 579 734 579 735 C579 735 577 738 574 742 L478 866 Z M428 679 C253 679 83 465 83 245 C83 150 120 63 182 16 C211 -7 252 -20 294 -20 C373 -20 450 20 515 96 C590 183 637 303 637 407 C637 564 548 679 428 679 L428 679 Z M431 653 C503 653 538 597 538 479 C538 399 514 280 482 200 C432 74 370 10 297 10 C225 10 181 75 181 185 C181 313 242 504 307 583 C347 631 386 653 431 653 L431 653 Z " />
<glyph glyph-name="Otilde" unicode="&#xd5;" horiz-adv-x="629" d="M594 824 C568 800 553 793 531 793 C517 793 499 797 477 806 C438 822 435 823 419 823 C386 823 350 799 307 747 L319 740 C345 766 362 775 381 775 C393 775 412 770 443 760 C482 747 485 746 495 746 C526 746 566 772 604 817 L594 824 Z M428 679 C253 679 83 465 83 245 C83 150 120 63 182 16 C211 -7 252 -20 294 -20 C373 -20 450 20 515 96 C590 183 637 303 637 407 C637 564 548 679 428 679 L428 679 Z M431 653 C503 653 538 597 538 479 C538 399 514 280 482 200 C432 74 370 10 297 10 C225 10 181 75 181 185 C181 313 242 504 307 583 C347 631 386 653 431 653 L431 653 Z " />
<glyph glyph-name="Odieresis" unicode="&#xd6;" horiz-adv-x="629" d="M367 828 C338 828 312 804 312 778 C312 751 338 727 366 727 C394 727 420 751 420 778 C420 804 394 828 367 828 L367 828 Z M560 828 C531 828 505 804 505 778 C505 751 531 727 559 727 C587 727 613 751 613 778 C613 804 587 828 560 828 L560 828 Z M428 679 C253 679 83 465 83 245 C83 150 120 63 182 16 C211 -7 252 -20 294 -20 C373 -20 450 20 515 96 C590 183 637 303 637 407 C637 564 548 679 428 679 L428 679 Z M431 653 C503 653 538 597 538 479 C538 399 514 280 482 200 C432 74 370 10 297 10 C225 10 181 75 181 185 C181 313 242 504 307 583 C347 631 386 653 431 653 L431 653 Z " />
<glyph glyph-name="multiply" unicode="&#xd7;" horiz-adv-x="503" d="M150 153 L295 298 L441 153 L466 177 L320 323 L466 469 L441 493 L295 348 L150 493 L125 469 L271 323 L125 177 L150 153 Z " />
<glyph glyph-name="Oslash" unicode="&#xd8;" horiz-adv-x="629" d="M644 664 L620 683 L566 612 C531 654 479 678 427 678 C252 678 81 464 81 244 C81 181 102 105 132 66 C134 63 134 63 137 59 L82 -10 L107 -29 L157 37 C190 0 239 -21 294 -21 C372 -21 448 19 514 95 C592 186 638 306 638 421 C638 482 623 537 596 577 C595 579 595 579 587 589 L644 664 Z M540 529 C542 501 542 498 542 485 C542 395 520 291 482 199 C428 70 369 9 297 9 C263 9 231 24 212 49 C207 56 206 57 194 79 L540 529 Z M182 115 C179 133 178 140 178 155 C178 245 202 367 236 453 C287 582 355 652 429 652 C465 652 501 632 517 603 C523 593 524 591 529 567 L182 115 Z " />
<glyph glyph-name="Ugrave" unicode="&#xd9;" horiz-adv-x="730" d="M844 659 L630 659 L623 638 L631 638 C694 638 705 634 705 612 C705 600 702 582 697 567 L583 204 C558 125 534 83 498 52 C465 24 422 10 371 10 C272 10 213 54 213 126 C213 146 217 168 223 189 L344 571 C360 627 373 638 422 638 L448 638 L455 659 L183 659 L176 638 L208 638 C244 638 258 628 258 599 C258 588 255 575 248 553 L143 218 C131 180 126 156 126 131 C126 90 144 55 176 32 C223 -2 288 -20 359 -20 C427 -20 481 -3 525 31 C569 65 596 112 622 194 L741 570 C757 626 768 637 813 638 L838 638 L844 659 Z M558 858 L488 858 C479 858 479 858 474 852 L476 849 L573 726 C575 723 581 721 587 721 C590 721 592 722 593 723 L597 725 C598 725 598 725 598 726 C598 727 598 729 597 731 L558 858 Z " />
<glyph glyph-name="Uacute" unicode="&#xda;" horiz-adv-x="730" d="M844 659 L630 659 L623 638 L631 638 C694 638 705 634 705 612 C705 600 702 582 697 567 L583 204 C558 125 534 83 498 52 C465 24 422 10 371 10 C272 10 213 54 213 126 C213 146 217 168 223 189 L344 571 C360 627 373 638 422 638 L448 638 L455 659 L183 659 L176 638 L208 638 C244 638 258 628 258 599 C258 588 255 575 248 553 L143 218 C131 180 126 156 126 131 C126 90 144 55 176 32 C223 -2 288 -20 359 -20 C427 -20 481 -3 525 31 C569 65 596 112 622 194 L741 570 C757 626 768 637 813 638 L838 638 L844 659 Z M614 858 L528 727 L526 723 C529 721 530 721 533 721 C539 721 546 724 550 727 L699 850 C701 852 703 853 703 854 L704 855 L705 856 L704 856 C703 858 703 858 694 858 L614 858 Z " />
<glyph glyph-name="Ucircumflex" unicode="&#xdb;" horiz-adv-x="730" d="M844 659 L630 659 L623 638 L631 638 C694 638 705 634 705 612 C705 600 702 582 697 567 L583 204 C558 125 534 83 498 52 C465 24 422 10 371 10 C272 10 213 54 213 126 C213 146 217 168 223 189 L344 571 C360 627 373 638 422 638 L448 638 L455 659 L183 659 L176 638 L208 638 C244 638 258 628 258 599 C258 588 255 575 248 553 L143 218 C131 180 126 156 126 131 C126 90 144 55 176 32 C223 -2 288 -20 359 -20 C427 -20 481 -3 525 31 C569 65 596 112 622 194 L741 570 C757 626 768 637 813 638 L838 638 L844 659 Z M577 866 L422 742 C418 739 415 736 414 735 L412 732 L411 730 L415 723 C416 722 420 720 423 720 C427 720 429 721 440 727 L563 798 L644 727 C649 723 654 720 658 720 C663 720 671 725 674 729 C675 732 676 734 677 734 C678 734 678 734 678 735 C678 735 678 736 677 736 L673 742 L577 866 Z " />
<glyph glyph-name="Udieresis" unicode="&#xdc;" horiz-adv-x="730" d="M844 659 L630 659 L623 638 L631 638 C694 638 705 634 705 612 C705 600 702 582 697 567 L583 204 C558 125 534 83 498 52 C465 24 422 10 371 10 C272 10 213 54 213 126 C213 146 217 168 223 189 L344 571 C360 627 373 638 422 638 L448 638 L455 659 L183 659 L176 638 L208 638 C244 638 258 628 258 599 C258 588 255 575 248 553 L143 218 C131 180 126 156 126 131 C126 90 144 55 176 32 C223 -2 288 -20 359 -20 C427 -20 481 -3 525 31 C569 65 596 112 622 194 L741 570 C757 626 768 637 813 638 L838 638 L844 659 Z M451 828 C422 828 396 804 396 778 C396 751 422 727 450 727 C478 727 504 751 504 778 C504 804 478 828 451 828 L451 828 Z M644 828 C615 828 589 804 589 778 C589 751 615 727 643 727 C671 727 697 751 697 778 C697 804 671 828 644 828 L644 828 Z " />
<glyph glyph-name="Yacute" unicode="&#xdd;" horiz-adv-x="628" d="M778 659 L526 659 L521 638 L529 638 C578 638 578 638 588 634 C596 630 601 622 601 611 C601 598 596 589 581 573 L380 357 L314 570 C306 594 306 594 306 604 C306 617 313 629 323 634 C332 638 337 638 374 638 L384 638 L389 659 L131 659 L126 638 L153 638 C198 636 208 629 219 588 L308 317 L242 102 C221 31 210 21 146 21 L127 21 L121 0 L402 0 L408 21 L386 21 C338 21 324 31 324 62 C324 74 326 86 332 105 L399 336 L636 579 C684 629 709 641 761 638 L773 638 L778 659 Z M534 858 L448 727 L446 723 C449 721 450 721 453 721 C459 721 466 724 470 727 L619 850 L623 854 L624 855 L625 856 L624 856 C623 858 623 858 614 858 L534 858 Z " />
<glyph glyph-name="Thorn" unicode="&#xde;" horiz-adv-x="587" d="M184 659 L177 638 L188 638 C241 638 241 638 251 631 C257 627 260 619 260 610 C260 602 256 584 251 567 L105 103 C84 39 69 23 24 21 L-10 21 L-17 0 L265 0 L272 21 L238 21 C204 21 189 33 189 61 C189 73 192 87 201 114 L235 218 L297 218 C425 218 460 225 520 264 C578 302 610 360 610 427 C610 481 586 525 540 551 C505 571 486 574 375 574 L348 574 L351 582 C363 624 378 637 417 638 L441 638 L448 659 L184 659 Z M243 242 L341 552 L379 552 C430 552 460 547 478 534 C500 520 512 487 512 445 C512 389 492 331 460 293 C427 253 395 242 309 242 L243 242 Z " />
<glyph glyph-name="germandbls" unicode="&#xdf;" horiz-adv-x="499" d="M225 482 C257 601 303 657 368 657 C411 657 437 629 437 584 C437 555 427 525 409 500 C389 471 379 461 320 410 C281 376 265 354 265 333 C265 315 269 307 307 265 C395 163 395 163 395 123 C395 60 351 13 293 13 C249 13 216 38 216 70 C216 78 218 87 221 96 C225 105 227 113 227 117 C227 127 211 138 196 138 C173 138 152 115 152 89 C152 30 204 -13 274 -13 C374 -13 465 69 465 160 C465 192 451 218 407 270 C330 358 330 358 330 376 C330 395 342 410 378 437 C462 500 462 500 479 519 C493 536 503 562 503 580 C503 632 443 674 370 674 C264 674 179 590 140 447 L-12 -115 C-33 -193 -37 -207 -50 -230 C-63 -253 -77 -265 -92 -265 C-99 -265 -104 -260 -104 -251 C-104 -245 -103 -240 -98 -229 C-96 -223 -94 -217 -94 -212 C-94 -198 -111 -185 -129 -185 C-152 -185 -171 -205 -171 -229 C-171 -262 -140 -289 -101 -289 C-26 -289 35 -218 69 -94 L225 482 Z " />
<glyph glyph-name="agrave" unicode="&#xe0;" horiz-adv-x="461" d="M348 619 L280 619 C272 619 271 619 267 614 L361 494 C363 491 370 489 375 489 C378 489 379 489 381 491 C383 492 384 493 384 493 L385 493 L384 499 L348 619 Z M425 107 C394 52 359 18 334 18 C323 18 317 26 317 41 C317 48 318 55 320 62 L430 418 L357 418 L351 399 C337 424 327 431 299 431 C245 431 189 399 137 339 C72 264 30 167 30 94 C30 30 65 -13 119 -13 C163 -13 200 8 255 68 L255 58 L254 52 L254 49 C254 14 280 -14 313 -14 C357 -14 404 25 446 97 L425 107 Z M299 409 C322 409 337 394 337 371 C337 342 310 258 267 158 C232 74 182 19 140 19 C116 19 103 40 103 80 C103 136 130 216 175 292 C224 373 262 409 299 409 L299 409 Z " />
<glyph glyph-name="aacute" unicode="&#xe1;" horiz-adv-x="461" d="M391 619 L309 494 L307 491 C310 489 312 489 314 489 C319 489 326 491 330 495 L472 611 L476 615 L478 617 L477 617 C476 619 475 619 467 619 L391 619 Z M425 107 C394 52 359 18 334 18 C323 18 317 26 317 41 C317 48 318 55 320 62 L430 418 L357 418 L351 399 C337 424 327 431 299 431 C245 431 189 399 137 339 C72 264 30 167 30 94 C30 30 65 -13 119 -13 C163 -13 200 8 255 68 L255 58 L254 52 L254 49 C254 14 280 -14 313 -14 C357 -14 404 25 446 97 L425 107 Z M299 409 C322 409 337 394 337 371 C337 342 310 258 267 158 C232 74 182 19 140 19 C116 19 103 40 103 80 C103 136 130 216 175 292 C224 373 262 409 299 409 L299 409 Z " />
<glyph glyph-name="acircumflex" unicode="&#xe2;" horiz-adv-x="461" d="M365 627 L217 509 C214 506 211 504 210 502 L208 499 L207 498 L208 496 C212 489 214 488 218 488 C222 488 222 488 235 495 L352 563 L429 495 C434 491 439 488 442 488 C447 488 455 493 457 497 C458 500 460 501 460 502 L461 502 L461 503 C461 503 459 505 456 509 L365 627 Z M425 107 C394 52 359 18 334 18 C323 18 317 26 317 41 C317 48 318 55 320 62 L430 418 L357 418 L351 399 C337 424 327 431 299 431 C245 431 189 399 137 339 C72 264 30 167 30 94 C30 30 65 -13 119 -13 C163 -13 200 8 255 68 L255 58 L254 52 L254 49 C254 14 280 -14 313 -14 C357 -14 404 25 446 97 L425 107 Z M299 409 C322 409 337 394 337 371 C337 342 310 258 267 158 C232 74 182 19 140 19 C116 19 103 40 103 80 C103 136 130 216 175 292 C224 373 262 409 299 409 L299 409 Z " />
<glyph glyph-name="atilde" unicode="&#xe3;" horiz-adv-x="461" d="M461 587 C438 564 426 558 407 558 C394 558 379 562 360 571 C327 586 324 587 311 587 C282 587 250 562 215 514 L225 508 C247 533 262 542 279 542 C288 542 306 537 332 527 C366 514 367 514 376 514 C402 514 436 538 469 581 L461 587 Z M425 107 C394 52 359 18 334 18 C323 18 317 26 317 41 C317 48 318 55 320 62 L430 418 L357 418 L351 399 C337 424 327 431 299 431 C245 431 189 399 137 339 C72 264 30 167 30 94 C30 30 65 -13 119 -13 C163 -13 200 8 255 68 L255 58 L254 52 L254 49 C254 14 280 -14 313 -14 C357 -14 404 25 446 97 L425 107 Z M299 409 C322 409 337 394 337 371 C337 342 310 258 267 158 C232 74 182 19 140 19 C116 19 103 40 103 80 C103 136 130 216 175 292 C224 373 262 409 299 409 L299 409 Z " />
<glyph glyph-name="adieresis" unicode="&#xe4;" horiz-adv-x="461" d="M249 587 C224 587 201 566 201 543 C201 520 224 499 249 499 C273 499 296 520 296 543 C296 566 273 587 249 587 L249 587 Z M406 587 C381 587 358 566 358 543 C358 520 381 499 406 499 C430 499 453 520 453 543 C453 566 430 587 406 587 L406 587 Z M425 107 C394 52 359 18 334 18 C323 18 317 26 317 41 C317 48 318 55 320 62 L430 418 L357 418 L351 399 C337 424 327 431 299 431 C245 431 189 399 137 339 C72 264 30 167 30 94 C30 30 65 -13 119 -13 C163 -13 200 8 255 68 L255 58 L254 52 L254 49 C254 14 280 -14 313 -14 C357 -14 404 25 446 97 L425 107 Z M299 409 C322 409 337 394 337 371 C337 342 310 258 267 158 C232 74 182 19 140 19 C116 19 103 40 103 80 C103 136 130 216 175 292 C224 373 262 409 299 409 L299 409 Z " />
<glyph glyph-name="aring" unicode="&#xe5;" horiz-adv-x="461" d="M339 644 C293 644 254 607 254 565 C254 521 293 484 338 484 C382 484 421 521 421 564 C421 606 382 644 339 644 L339 644 Z M338 615 C365 615 385 593 385 564 C385 534 365 513 338 513 C310 513 290 534 290 564 C290 594 310 615 338 615 L338 615 Z M425 107 C394 52 359 18 334 18 C323 18 317 26 317 41 C317 48 318 55 320 62 L430 418 L357 418 L351 399 C337 424 327 431 299 431 C245 431 189 399 137 339 C72 264 30 167 30 94 C30 30 65 -13 119 -13 C163 -13 200 8 255 68 L255 58 L254 52 L254 49 C254 14 280 -14 313 -14 C357 -14 404 25 446 97 L425 107 Z M299 409 C322 409 337 394 337 371 C337 342 310 258 267 158 C232 74 182 19 140 19 C116 19 103 40 103 80 C103 136 130 216 175 292 C224 373 262 409 299 409 L299 409 Z " />
<glyph glyph-name="ae" unicode="&#xe6;" horiz-adv-x="575" d="M359 429 L354 406 C340 426 327 432 299 432 C179 432 30 242 30 87 C30 27 63 -13 115 -13 C165 -13 204 12 256 79 C261 58 262 54 265 45 C278 8 309 -13 349 -13 C413 -13 474 36 515 121 L487 127 C454 58 412 20 371 20 C341 20 325 42 325 80 C325 108 330 134 342 170 C389 188 446 220 491 252 C550 295 580 336 580 373 C580 408 554 432 519 432 C487 432 465 422 420 389 L433 429 L359 429 Z M355 199 C387 317 454 409 508 409 C525 409 536 396 535 378 C532 315 474 257 355 199 L355 199 Z M304 415 C328 415 341 401 341 376 C341 336 286 194 233 98 C208 53 170 21 140 21 C117 21 105 39 105 74 C105 129 128 203 172 285 C219 375 260 415 304 415 L304 415 Z " />
<glyph glyph-name="ccedilla" unicode="&#xe7;" horiz-adv-x="330" d="M136 -13 C188 -15 249 41 287 124 L262 136 C234 64 187 16 146 16 C117 16 103 35 103 75 C103 135 126 216 166 300 C205 379 231 409 262 409 C275 409 281 403 281 392 C281 389 280 383 278 379 C276 372 275 366 275 363 C275 349 289 336 304 336 C324 336 341 354 341 376 C341 407 311 432 275 432 C163 432 30 254 30 103 C30 42 60 3 117 -12 L82 -78 C122 -86 137 -99 137 -126 C137 -157 106 -180 64 -180 C49 -180 36 -177 10 -169 L-3 -186 C23 -198 47 -204 73 -204 C136 -204 190 -167 190 -124 C190 -104 175 -83 156 -75 C146 -70 137 -68 118 -65 L110 -63 L136 -13 Z " />
<glyph glyph-name="egrave" unicode="&#xe8;" horiz-adv-x="326" d="M286 619 L219 619 C210 619 210 619 205 614 L299 494 C302 491 308 489 313 489 C316 489 318 490 319 491 C321 492 322 493 322 493 L323 493 L322 499 L286 619 Z M255 133 C219 56 180 17 140 17 C111 17 95 41 95 85 C95 106 101 140 107 160 L108 163 C108 163 109 165 110 168 C244 229 328 308 328 373 C328 405 300 431 266 431 C159 431 27 247 27 98 C27 34 67 -13 120 -13 C182 -13 237 32 282 119 L255 133 Z M119 196 C130 241 131 244 141 269 C175 355 217 404 254 404 C271 404 282 391 282 370 C282 341 261 301 229 271 C198 242 175 226 125 199 L119 196 Z " />
<glyph glyph-name="eacute" unicode="&#xe9;" horiz-adv-x="326" d="M345 619 L262 494 L261 491 C264 489 265 489 267 489 C272 489 280 491 283 495 L425 611 L430 615 L431 617 C429 619 429 619 421 619 L345 619 Z M255 133 C219 56 180 17 140 17 C111 17 95 41 95 85 C95 106 101 140 107 160 L108 163 C108 163 109 165 110 168 C244 229 328 308 328 373 C328 405 300 431 266 431 C159 431 27 247 27 98 C27 34 67 -13 120 -13 C182 -13 237 32 282 119 L255 133 Z M119 196 C130 241 131 244 141 269 C175 355 217 404 254 404 C271 404 282 391 282 370 C282 341 261 301 229 271 C198 242 175 226 125 199 L119 196 Z " />
<glyph glyph-name="ecircumflex" unicode="&#xea;" horiz-adv-x="326" d="M293 627 L144 509 C141 506 138 504 137 502 L135 499 L134 498 L135 496 C139 489 141 488 146 488 C149 488 149 488 162 495 L279 563 L356 495 C361 491 366 488 370 488 C374 488 382 493 384 497 C386 500 387 501 388 502 L388 504 L384 509 L293 627 Z M255 133 C219 56 180 17 140 17 C111 17 95 41 95 85 C95 106 101 140 107 160 L108 163 C108 163 109 165 110 168 C244 229 328 308 328 373 C328 405 300 431 266 431 C159 431 27 247 27 98 C27 34 67 -13 120 -13 C182 -13 237 32 282 119 L255 133 Z M119 196 C130 241 131 244 141 269 C175 355 217 404 254 404 C271 404 282 391 282 370 C282 341 261 301 229 271 C198 242 175 226 125 199 L119 196 Z " />
<glyph glyph-name="edieresis" unicode="&#xeb;" horiz-adv-x="326" d="M202 587 C177 587 154 566 154 543 C154 520 177 499 202 499 C226 499 249 520 249 543 C249 565 226 587 202 587 L202 587 Z M333 587 C308 587 285 566 285 543 C285 520 308 499 333 499 C357 499 380 520 380 543 C380 565 357 587 333 587 L333 587 Z M255 133 C219 56 180 17 140 17 C111 17 95 41 95 85 C95 106 101 140 107 160 L108 163 C108 163 109 165 110 168 C244 229 328 308 328 373 C328 405 300 431 266 431 C159 431 27 247 27 98 C27 34 67 -13 120 -13 C182 -13 237 32 282 119 L255 133 Z M119 196 C130 241 131 244 141 269 C175 355 217 404 254 404 C271 404 282 391 282 370 C282 341 261 301 229 271 C198 242 175 226 125 199 L119 196 Z " />
<glyph glyph-name="igrave" unicode="&#xec;" horiz-adv-x="267" d="M215 110 C183 46 166 26 143 26 C133 26 127 34 127 48 C127 56 128 63 133 76 L219 340 C226 362 229 377 229 388 C229 412 204 431 172 431 C122 431 87 398 45 311 L73 304 C99 367 115 389 136 389 C145 389 149 383 149 372 C149 364 146 352 141 334 L59 83 C51 61 48 45 48 35 C48 9 77 -13 110 -13 C156 -13 203 27 239 97 L215 110 Z M216 619 L149 619 C140 619 140 619 135 614 L229 494 C231 491 238 489 243 489 C246 489 248 490 249 491 C251 492 252 493 252 493 L253 493 L252 499 L216 619 Z " />
<glyph glyph-name="iacute" unicode="&#xed;" horiz-adv-x="267" d="M215 110 C183 46 166 26 143 26 C133 26 127 34 127 48 C127 56 128 63 133 76 L219 340 C226 362 229 377 229 388 C229 412 204 431 172 431 C122 431 87 398 45 311 L73 304 C99 367 115 389 136 389 C145 389 149 383 149 372 C149 364 146 352 141 334 L59 83 C51 61 48 45 48 35 C48 9 77 -13 110 -13 C156 -13 203 27 239 97 L215 110 Z M266 619 L184 494 L182 491 C185 489 187 489 189 489 C194 489 201 491 205 495 L347 611 L351 615 L353 617 L352 617 C351 619 350 619 342 619 L266 619 Z " />
<glyph glyph-name="icircumflex" unicode="&#xee;" horiz-adv-x="267" d="M215 110 C183 46 166 26 143 26 C133 26 127 34 127 48 C127 56 128 63 133 76 L219 340 C226 362 229 377 229 388 C229 412 204 431 172 431 C122 431 87 398 45 311 L73 304 C99 367 115 389 136 389 C145 389 149 383 149 372 C149 364 146 352 141 334 L59 83 C51 61 48 45 48 35 C48 9 77 -13 110 -13 C156 -13 203 27 239 97 L215 110 Z M222 627 L74 509 C70 506 68 504 67 502 L65 499 L64 498 L65 496 C69 489 71 488 76 488 C79 488 79 488 92 495 L209 563 L286 495 C291 491 296 488 299 488 C304 488 312 493 314 497 C315 500 317 501 317 502 L318 502 C318 503 318 503 317 504 L313 509 L222 627 Z " />
<glyph glyph-name="idieresis" unicode="&#xef;" horiz-adv-x="267" d="M215 110 C183 46 166 26 143 26 C133 26 127 34 127 48 C127 56 128 63 133 76 L219 340 C226 362 229 377 229 388 C229 412 204 431 172 431 C122 431 87 398 45 311 L73 304 C99 367 115 389 136 389 C145 389 149 383 149 372 C149 364 146 352 141 334 L59 83 C51 61 48 45 48 35 C48 9 77 -13 110 -13 C156 -13 203 27 239 97 L215 110 Z M140 587 C115 587 92 566 92 543 C92 520 115 499 140 499 C164 499 187 520 187 543 C187 566 164 587 140 587 L140 587 Z M284 587 C259 587 236 566 236 543 C236 520 259 499 284 499 C308 499 331 520 331 543 C331 565 308 587 284 587 L284 587 Z " />
<glyph glyph-name="eth" unicode="&#xf0;" horiz-adv-x="393" d="M424 611 L332 582 L327 587 C283 638 264 654 224 677 L209 658 C246 625 264 604 287 564 L194 531 L200 511 L297 543 C310 513 316 480 316 444 C316 435 316 435 315 410 C292 428 282 431 256 431 C141 431 37 290 37 133 C37 46 81 -13 145 -13 C191 -13 243 16 287 67 C345 135 380 262 380 406 C380 470 374 500 348 555 L345 562 L430 590 L424 611 Z M255 404 C285 404 301 383 301 343 C301 285 276 185 244 115 C212 45 182 14 147 14 C116 14 101 37 101 84 C101 137 124 228 157 306 C185 372 217 404 255 404 L255 404 Z " />
<glyph glyph-name="ntilde" unicode="&#xf1;" horiz-adv-x="472" d="M118 0 L174 176 C196 246 210 279 231 313 C266 368 301 398 329 398 C346 398 356 387 356 369 C356 353 350 328 339 295 L278 116 C264 75 259 53 259 36 C259 8 284 -13 317 -13 C369 -13 421 29 458 101 L433 113 C404 55 378 28 352 28 C341 28 335 35 335 49 C335 59 336 65 343 84 L411 288 C423 321 428 346 428 364 C428 401 394 431 352 431 C302 431 258 395 192 298 C209 356 209 358 209 385 C209 413 190 431 160 431 C118 431 78 390 39 306 L63 300 C89 353 118 387 137 387 C147 387 153 378 153 364 C153 350 149 333 132 282 L43 0 L118 0 Z M450 587 C427 564 415 558 396 558 C384 558 368 562 349 571 C315 586 313 587 300 587 C271 587 239 562 204 514 L214 508 C236 533 251 542 268 542 C278 542 295 537 321 527 C355 515 357 514 365 514 C392 514 424 537 458 581 L450 587 Z " />
<glyph glyph-name="ograve" unicode="&#xf2;" horiz-adv-x="393" d="M293 619 L226 619 C218 619 217 619 212 614 L307 494 C309 491 316 489 321 489 C324 489 326 490 327 491 C329 492 330 493 330 493 L331 493 L330 499 L293 619 Z M258 432 C146 432 40 289 40 137 C40 46 82 -13 148 -13 C261 -13 368 135 368 293 C368 375 323 432 258 432 L258 432 Z M259 404 C288 404 305 382 305 345 C305 297 285 204 261 145 C224 53 190 13 150 13 C119 13 104 37 104 83 C104 133 122 207 153 286 C187 370 218 404 259 404 L259 404 Z " />
<glyph glyph-name="oacute" unicode="&#xf3;" horiz-adv-x="393" d="M345 619 L262 494 L261 491 C263 489 265 489 267 489 C272 489 279 491 283 495 L425 611 L430 615 L431 617 C429 619 429 619 420 619 L345 619 Z M258 432 C146 432 40 289 40 137 C40 46 82 -13 148 -13 C261 -13 368 135 368 293 C368 375 323 432 258 432 L258 432 Z M259 404 C288 404 305 382 305 345 C305 297 285 204 261 145 C224 53 190 13 150 13 C119 13 104 37 104 83 C104 133 122 207 153 286 C187 370 218 404 259 404 L259 404 Z " />
<glyph glyph-name="ocircumflex" unicode="&#xf4;" horiz-adv-x="393" d="M309 627 L161 509 C158 506 154 503 154 502 L152 499 L151 498 L152 496 C156 489 158 488 162 488 C166 488 166 488 178 495 L296 563 L373 495 C377 491 383 488 386 488 C391 488 399 493 401 497 C402 500 403 501 404 502 L405 502 C405 503 405 503 404 504 C403 505 401 507 400 509 L309 627 Z M258 432 C146 432 40 289 40 137 C40 46 82 -13 148 -13 C261 -13 368 135 368 293 C368 375 323 432 258 432 L258 432 Z M259 404 C288 404 305 382 305 345 C305 297 285 204 261 145 C224 53 190 13 150 13 C119 13 104 37 104 83 C104 133 122 207 153 286 C187 370 218 404 259 404 L259 404 Z " />
<glyph glyph-name="otilde" unicode="&#xf5;" horiz-adv-x="393" d="M396 587 C373 564 361 558 342 558 C330 558 314 562 296 571 C262 586 259 587 246 587 C218 587 186 562 150 514 L160 508 C182 533 197 542 214 542 C224 542 241 537 267 527 C301 515 303 514 311 514 C338 514 370 537 404 581 L396 587 Z M258 432 C146 432 40 289 40 137 C40 46 82 -13 148 -13 C261 -13 368 135 368 293 C368 375 323 432 258 432 L258 432 Z M259 404 C288 404 305 382 305 345 C305 297 285 204 261 145 C224 53 190 13 150 13 C119 13 104 37 104 83 C104 133 122 207 153 286 C187 370 218 404 259 404 L259 404 Z " />
<glyph glyph-name="odieresis" unicode="&#xf6;" horiz-adv-x="393" d="M195 587 C170 587 147 566 147 543 C147 520 170 499 195 499 C219 499 242 520 242 543 C242 566 219 587 195 587 L195 587 Z M352 587 C327 587 304 566 304 543 C304 520 327 499 352 499 C376 499 399 520 399 543 C399 566 376 587 352 587 L352 587 Z M258 432 C146 432 40 289 40 137 C40 46 82 -13 148 -13 C261 -13 368 135 368 293 C368 375 323 432 258 432 L258 432 Z M259 404 C288 404 305 382 305 345 C305 297 285 204 261 145 C224 53 190 13 150 13 C119 13 104 37 104 83 C104 133 122 207 153 286 C187 370 218 404 259 404 L259 404 Z " />
<glyph glyph-name="divide" unicode="&#xf7;" horiz-adv-x="502" d="M69 306 L521 306 L521 339 L69 339 L69 306 Z M295 204 C270 204 249 184 249 161 C249 139 270 119 294 119 C320 119 341 138 341 162 C341 184 320 204 295 204 L295 204 Z M295 527 C270 527 249 507 249 485 C249 462 270 442 294 442 C320 442 341 461 341 485 C341 507 320 527 295 527 L295 527 Z " />
<glyph glyph-name="oslash" unicode="&#xf8;" horiz-adv-x="393" d="M348 379 L386 429 L369 443 L334 397 C312 421 289 431 258 431 C146 431 40 287 40 135 C40 98 46 68 59 45 L63 38 L25 -12 L43 -26 L76 19 C97 -4 120 -14 149 -14 C261 -14 369 133 369 285 C369 323 363 352 352 372 L348 379 Z M305 329 L303 316 C293 228 272 156 234 85 C209 36 181 12 150 12 C131 12 114 26 109 46 C108 49 108 50 107 54 L305 329 Z M105 88 C110 140 113 158 125 201 C163 335 208 403 259 403 C279 403 294 392 302 372 L304 365 L105 88 Z " />
<glyph glyph-name="ugrave" unicode="&#xf9;" horiz-adv-x="466" d="M444 418 L370 418 L328 284 C279 129 208 22 153 22 C139 22 131 32 131 49 C131 60 133 73 139 91 L207 307 C219 343 223 363 223 380 C223 412 204 431 171 431 C124 431 77 387 48 317 L75 310 C97 365 119 393 139 393 C147 393 151 388 151 375 C151 368 150 360 146 350 L67 100 C61 80 58 63 58 49 C58 14 86 -13 123 -13 C160 -13 198 9 237 51 C252 68 255 73 281 109 C272 66 272 66 272 50 C272 12 293 -13 324 -13 C364 -13 406 27 444 100 L421 111 C393 53 367 21 347 21 C338 21 332 29 332 41 C332 50 335 67 338 78 L444 418 Z M315 619 L248 619 C239 619 239 619 234 614 L328 494 C331 491 337 489 342 489 C345 489 347 490 348 491 C350 492 351 493 351 493 L352 493 L351 499 L315 619 Z " />
<glyph glyph-name="uacute" unicode="&#xfa;" horiz-adv-x="466" d="M444 418 L370 418 L328 284 C279 129 208 22 153 22 C139 22 131 32 131 49 C131 60 133 73 139 91 L207 307 C219 343 223 363 223 380 C223 412 204 431 171 431 C124 431 77 387 48 317 L75 310 C97 365 119 393 139 393 C147 393 151 388 151 375 C151 368 150 360 146 350 L67 100 C61 80 58 63 58 49 C58 14 86 -13 123 -13 C160 -13 198 9 237 51 C252 68 255 73 281 109 C272 66 272 66 272 50 C272 12 293 -13 324 -13 C364 -13 406 27 444 100 L421 111 C393 53 367 21 347 21 C338 21 332 29 332 41 C332 50 335 67 338 78 L444 418 Z M381 619 L299 494 L297 491 C300 489 301 489 303 489 C309 489 316 491 320 495 L462 611 L466 615 C467 617 468 617 468 617 L467 617 C466 619 465 619 457 619 L381 619 Z " />
<glyph glyph-name="ucircumflex" unicode="&#xfb;" horiz-adv-x="466" d="M444 418 L370 418 L328 284 C279 129 208 22 153 22 C139 22 131 32 131 49 C131 60 133 73 139 91 L207 307 C219 343 223 363 223 380 C223 412 204 431 171 431 C124 431 77 387 48 317 L75 310 C97 365 119 393 139 393 C147 393 151 388 151 375 C151 368 150 360 146 350 L67 100 C61 80 58 63 58 49 C58 14 86 -13 123 -13 C160 -13 198 9 237 51 C252 68 255 73 281 109 C272 66 272 66 272 50 C272 12 293 -13 324 -13 C364 -13 406 27 444 100 L421 111 C393 53 367 21 347 21 C338 21 332 29 332 41 C332 50 335 67 338 78 L444 418 Z M335 627 L187 509 C183 506 180 503 180 502 L177 499 L176 498 L177 496 C181 489 183 488 188 488 C191 488 193 489 204 495 L322 563 L399 495 C403 491 409 488 412 488 C417 488 425 493 427 497 C428 500 429 501 430 502 L431 502 L430 504 L426 509 L335 627 Z " />
<glyph glyph-name="udieresis" unicode="&#xfc;" horiz-adv-x="466" d="M444 418 L370 418 L328 284 C279 129 208 22 153 22 C139 22 131 32 131 49 C131 60 133 73 139 91 L207 307 C219 343 223 363 223 380 C223 412 204 431 171 431 C124 431 77 387 48 317 L75 310 C97 365 119 393 139 393 C147 393 151 388 151 375 C151 368 150 360 146 350 L67 100 C61 80 58 63 58 49 C58 14 86 -13 123 -13 C160 -13 198 9 237 51 C252 68 255 73 281 109 C272 66 272 66 272 50 C272 12 293 -13 324 -13 C364 -13 406 27 444 100 L421 111 C393 53 367 21 347 21 C338 21 332 29 332 41 C332 50 335 67 338 78 L444 418 Z M231 587 C206 587 183 566 183 543 C183 520 206 499 231 499 C255 499 278 520 278 543 C278 565 255 587 231 587 L231 587 Z M389 587 C364 587 341 566 341 543 C341 520 364 499 388 499 C413 499 436 520 436 543 C436 565 413 587 389 587 L389 587 Z " />
<glyph glyph-name="yacute" unicode="&#xfd;" horiz-adv-x="360" d="M54 284 C63 346 80 387 96 387 C104 387 111 376 115 358 C128 286 138 179 138 103 C138 -23 119 -93 68 -155 C33 -196 -13 -226 -42 -226 C-49 -226 -55 -225 -62 -222 C-95 -208 -95 -208 -108 -208 C-127 -208 -147 -223 -147 -239 C-147 -257 -122 -273 -93 -273 C-51 -273 3 -248 52 -206 C121 -148 186 -52 268 115 C326 231 349 300 349 357 C349 403 329 435 300 435 C284 435 270 421 270 405 C270 398 275 386 281 378 C306 347 306 347 306 328 C306 288 294 248 258 167 C233 110 224 95 197 55 C201 93 201 99 201 125 C201 332 174 431 119 431 C78 431 48 386 30 298 L54 284 Z M308 619 L225 494 L223 491 C226 489 228 489 230 489 C235 489 242 491 246 495 L388 611 L393 615 L394 617 C392 619 391 619 383 619 L308 619 Z " />
<glyph glyph-name="thorn" unicode="&#xfe;" horiz-adv-x="430" d="M326 689 L319 693 C281 682 242 676 198 676 L171 676 L163 656 L188 656 C217 656 230 649 230 633 C230 630 227 614 226 610 L-24 -183 C-38 -227 -48 -235 -94 -234 L-108 -234 L-114 -254 L100 -254 L107 -234 L97 -234 C54 -234 46 -230 46 -210 C46 -205 49 -187 52 -178 L119 33 C141 -1 160 -13 192 -13 C301 -13 417 154 417 309 C417 380 376 431 319 431 C288 431 264 420 232 391 L326 689 Z M302 404 C333 404 348 382 348 339 C348 253 311 135 262 66 C237 31 217 17 190 17 C160 17 141 38 141 71 C141 109 178 235 213 320 C236 374 268 404 302 404 L302 404 Z " />
<glyph glyph-name="ydieresis" unicode="&#xff;" horiz-adv-x="360" d="M54 284 C63 346 80 387 96 387 C104 387 111 376 115 358 C128 286 138 179 138 103 C138 -23 119 -93 68 -155 C33 -196 -13 -226 -42 -226 C-49 -226 -55 -225 -62 -222 C-95 -208 -95 -208 -108 -208 C-127 -208 -147 -223 -147 -239 C-147 -257 -122 -273 -93 -273 C-51 -273 3 -248 52 -206 C121 -148 186 -52 268 115 C326 231 349 300 349 357 C349 403 329 435 300 435 C284 435 270 421 270 405 C270 398 275 386 281 378 C306 347 306 347 306 328 C306 288 294 248 258 167 C233 110 224 95 197 55 C201 93 201 99 201 125 C201 332 174 431 119 431 C78 431 48 386 30 298 L54 284 Z M179 587 C154 587 131 566 131 543 C131 520 154 499 179 499 C203 499 226 520 226 543 C226 566 203 587 179 587 L179 587 Z M336 587 C311 587 288 566 288 543 C288 520 311 499 336 499 C360 499 383 520 383 543 C383 565 360 587 336 587 L336 587 Z " />
<glyph glyph-name="Amacron" unicode="&#x100;" horiz-adv-x="602" d="M362 792 L350 752 L644 752 L656 792 L362 792 Z M508 674 L466 674 L74 105 C26 37 7 22 -37 21 L-52 21 L-59 0 L174 0 L181 21 L170 21 C118 21 101 29 101 55 C101 69 112 94 134 126 L212 242 L398 242 L389 94 C385 34 370 20 311 21 L297 21 L292 0 L537 0 L542 21 L524 21 C490 21 471 46 474 87 L475 95 L508 674 Z M399 266 L229 266 L415 538 L399 266 Z " />
<glyph glyph-name="amacron" unicode="&#x101;" horiz-adv-x="461" d="M224 563 L213 526 L451 526 L462 563 L224 563 Z M425 107 C394 52 359 18 334 18 C323 18 317 26 317 41 C317 48 318 55 320 62 L430 418 L357 418 L351 399 C337 424 327 431 299 431 C245 431 189 399 137 339 C72 264 30 167 30 94 C30 30 65 -13 119 -13 C163 -13 200 8 255 68 L255 58 L254 52 L254 49 C254 14 280 -14 313 -14 C357 -14 404 25 446 97 L425 107 Z M299 409 C322 409 337 394 337 371 C337 342 310 258 267 158 C232 74 182 19 140 19 C116 19 103 40 103 80 C103 136 130 216 175 292 C224 373 262 409 299 409 L299 409 Z " />
<glyph glyph-name="Abreve" unicode="&#x102;" horiz-adv-x="602" d="M379 839 C378 831 377 823 377 820 C377 767 422 731 489 731 C563 731 624 772 649 839 L626 839 C603 799 572 785 503 785 C435 785 406 801 401 839 L379 839 Z M508 674 L466 674 L74 105 C26 37 7 22 -37 21 L-52 21 L-59 0 L174 0 L181 21 L170 21 C118 21 101 29 101 55 C101 69 112 94 134 126 L212 242 L398 242 L389 94 C385 34 370 20 311 21 L297 21 L292 0 L537 0 L542 21 L524 21 C490 21 471 46 474 87 L475 95 L508 674 Z M399 266 L229 266 L415 538 L399 266 Z " />
<glyph glyph-name="abreve" unicode="&#x103;" horiz-adv-x="461" d="M241 601 C240 594 239 587 239 583 C239 533 277 499 334 499 C398 499 450 538 471 601 L452 601 C433 563 406 550 347 550 C289 550 263 565 259 601 L241 601 Z M425 107 C394 52 359 18 334 18 C323 18 317 26 317 41 C317 48 318 55 320 62 L430 418 L357 418 L351 399 C337 424 327 431 299 431 C245 431 189 399 137 339 C72 264 30 167 30 94 C30 30 65 -13 119 -13 C163 -13 200 8 255 68 L255 58 L254 52 L254 49 C254 14 280 -14 313 -14 C357 -14 404 25 446 97 L425 107 Z M299 409 C322 409 337 394 337 371 C337 342 310 258 267 158 C232 74 182 19 140 19 C116 19 103 40 103 80 C103 136 130 216 175 292 C224 373 262 409 299 409 L299 409 Z " />
<glyph glyph-name="Aogonek" unicode="&#x104;" horiz-adv-x="602" d="M559 -103 C543 -110 533 -112 522 -112 C500 -112 486 -98 486 -76 C486 -51 506 -22 537 0 L537 -3 L542 21 L524 21 C490 21 471 46 474 87 L475 95 L508 674 L466 674 L74 105 C26 37 7 22 -37 21 L-52 21 L-59 0 L174 0 L181 21 L170 21 C118 21 101 29 101 55 C101 69 112 94 134 126 L212 242 L398 242 L389 94 C385 34 370 20 311 21 L297 21 L292 0 L520 0 C492 -16 492 -16 487 -19 C444 -46 422 -74 422 -101 C422 -126 448 -147 479 -147 C504 -147 531 -138 554 -121 L553 -122 L559 -103 Z M399 266 L229 266 L415 538 L399 266 Z " />
<glyph glyph-name="aogonek" unicode="&#x105;" horiz-adv-x="461" d="M385 -101 C370 -107 360 -109 349 -109 C327 -109 314 -96 314 -74 C314 -52 330 -25 355 -5 C404 34 419 51 446 97 L425 107 C394 53 359 19 334 19 C323 19 317 27 317 42 C317 48 318 55 320 62 L430 418 L357 418 L351 399 C337 424 327 431 299 431 C245 431 189 399 137 339 C72 264 30 167 30 94 C30 30 65 -13 119 -13 C163 -13 200 8 255 68 L255 58 L254 52 L254 49 C258 8 275 -9 319 -16 C304 -26 296 -32 295 -32 C268 -52 252 -77 252 -98 C252 -123 277 -143 307 -143 C332 -143 358 -134 379 -117 L379 -119 L385 -101 Z M299 409 C322 409 337 394 337 371 C337 342 310 258 267 158 C232 74 182 19 140 19 C116 19 103 40 103 80 C103 136 130 216 175 292 C224 373 262 409 299 409 L299 409 Z " />
<glyph glyph-name="Cacute" unicode="&#x106;" horiz-adv-x="595" d="M666 659 L644 659 L602 616 C570 654 509 679 449 679 C263 679 73 460 73 245 C73 90 170 -20 307 -20 C356 -20 398 -9 457 21 L468 -14 L493 -14 L567 191 L534 191 C481 65 418 10 325 10 C228 10 172 82 172 206 C172 298 200 400 249 489 C309 600 376 653 455 653 C539 653 592 590 592 490 C592 479 591 472 588 454 L615 454 L666 659 Z M521 858 L434 727 L432 723 C436 721 437 721 440 721 C446 721 452 724 456 727 L605 850 C612 855 612 855 612 856 L611 856 C610 858 610 858 600 858 L521 858 Z " />
<glyph glyph-name="cacute" unicode="&#x107;" horiz-adv-x="330" d="M262 136 C232 62 188 17 146 17 C116 17 103 36 103 76 C103 135 126 217 166 300 C205 378 231 408 262 408 C274 408 281 402 281 391 C281 388 280 383 278 378 C276 371 275 366 275 363 C275 349 289 336 304 336 C324 336 341 354 341 376 C341 406 311 431 276 431 C165 431 30 255 30 109 C30 36 72 -13 134 -13 C190 -13 247 39 286 124 L262 136 Z M349 619 L266 494 L264 491 C267 489 269 489 271 489 C276 489 284 491 287 495 L429 611 L434 615 L435 617 C433 619 433 619 424 619 L349 619 Z " />
<glyph glyph-name="Ccircumflex" unicode="&#x108;" horiz-adv-x="595" d="M666 659 L644 659 L602 616 C570 654 509 679 449 679 C263 679 73 460 73 245 C73 90 170 -20 307 -20 C356 -20 398 -9 457 21 L468 -14 L493 -14 L567 191 L534 191 C481 65 418 10 325 10 C228 10 172 82 172 206 C172 298 200 400 249 489 C309 600 376 653 455 653 C539 653 592 590 592 490 C592 479 591 472 588 454 L615 454 L666 659 Z M500 866 L345 742 C341 738 338 736 338 735 L335 732 C334 731 334 731 334 730 C334 727 342 720 346 720 C350 720 353 721 364 727 L487 798 L567 727 C572 723 578 720 581 720 C586 720 594 725 597 729 C598 732 600 734 600 734 C601 734 601 734 601 735 C601 735 599 738 596 742 L500 866 Z " />
<glyph glyph-name="ccircumflex" unicode="&#x109;" horiz-adv-x="330" d="M262 136 C232 62 188 17 146 17 C116 17 103 36 103 76 C103 135 126 217 166 300 C205 378 231 408 262 408 C274 408 281 402 281 391 C281 388 280 383 278 378 C276 371 275 366 275 363 C275 349 289 336 304 336 C324 336 341 354 341 376 C341 406 311 431 276 431 C165 431 30 255 30 109 C30 36 72 -13 134 -13 C190 -13 247 39 286 124 L262 136 Z M320 627 L172 509 C169 506 165 503 165 502 L163 499 L162 498 L163 496 C167 489 169 488 173 488 C177 488 177 488 190 495 L307 563 L384 495 C389 491 394 488 397 488 C402 488 410 493 412 497 C413 500 414 501 415 502 L416 502 L416 503 C416 503 414 505 411 509 L320 627 Z " />
<glyph glyph-name="Cdotaccent" unicode="&#x10a;" horiz-adv-x="595" d="M666 659 L644 659 L602 616 C570 654 509 679 449 679 C263 679 73 460 73 245 C73 90 170 -20 307 -20 C356 -20 398 -9 457 21 L468 -14 L493 -14 L567 191 L534 191 C481 65 418 10 325 10 C228 10 172 82 172 206 C172 298 200 400 249 489 C309 600 376 653 455 653 C539 653 592 590 592 490 C592 479 591 472 588 454 L615 454 L666 659 Z M486 828 C457 828 431 804 431 778 C431 751 457 727 485 727 C513 727 539 751 539 778 C539 804 513 828 486 828 L486 828 Z " />
<glyph glyph-name="cdotaccent" unicode="&#x10b;" horiz-adv-x="330" d="M262 136 C232 62 188 17 146 17 C116 17 103 36 103 76 C103 135 126 217 166 300 C205 378 231 408 262 408 C274 408 281 402 281 391 C281 388 280 383 278 378 C276 371 275 366 275 363 C275 349 289 336 304 336 C324 336 341 354 341 376 C341 406 311 431 276 431 C165 431 30 255 30 109 C30 36 72 -13 134 -13 C190 -13 247 39 286 124 L262 136 Z M286 587 C261 587 238 566 238 543 C238 520 261 499 286 499 C310 499 333 520 333 543 C333 565 310 587 286 587 L286 587 Z " />
<glyph glyph-name="Ccaron" unicode="&#x10c;" horiz-adv-x="595" d="M666 659 L644 659 L602 616 C570 654 509 679 449 679 C263 679 73 460 73 245 C73 90 170 -20 307 -20 C356 -20 398 -9 457 21 L468 -14 L493 -14 L567 191 L534 191 C481 65 418 10 325 10 C228 10 172 82 172 206 C172 298 200 400 249 489 C309 600 376 653 455 653 C539 653 592 590 592 490 C592 479 591 472 588 454 L615 454 L666 659 Z M466 714 L615 833 C625 842 633 850 633 853 L632 854 C628 860 625 862 620 862 C616 862 604 857 596 852 L479 782 L405 853 C402 856 390 862 386 862 C379 862 366 853 366 848 C366 846 370 840 375 833 L466 714 Z " />
<glyph glyph-name="ccaron" unicode="&#x10d;" horiz-adv-x="330" d="M262 136 C232 62 188 17 146 17 C116 17 103 36 103 76 C103 135 126 217 166 300 C205 378 231 408 262 408 C274 408 281 402 281 391 C281 388 280 383 278 378 C276 371 275 366 275 363 C275 349 289 336 304 336 C324 336 341 354 341 376 C341 406 311 431 276 431 C165 431 30 255 30 109 C30 36 72 -13 134 -13 C190 -13 247 39 286 124 L262 136 Z M280 483 L422 596 C426 600 431 604 431 604 L436 610 L439 615 L436 618 C435 621 430 623 427 623 C423 623 411 618 404 614 L293 548 L223 615 C220 617 208 623 205 623 C198 623 185 615 185 610 C185 608 187 605 194 596 L280 483 Z " />
<glyph glyph-name="Dcaron" unicode="&#x10e;" horiz-adv-x="690" d="M453 714 L602 833 C611 841 620 850 620 853 L619 854 C615 860 612 862 607 862 C603 862 591 857 583 852 L467 782 L393 853 C389 856 377 862 373 862 C366 862 353 853 353 848 C353 846 356 841 362 833 L453 714 Z M-9 0 L225 -1 L288 -2 C388 -2 454 14 516 53 C623 119 695 255 695 390 C695 482 659 563 598 609 C552 645 494 661 414 661 L169 661 L163 638 L196 638 C235 638 250 628 250 600 C250 589 247 574 241 555 L103 102 C85 31 78 23 25 21 L-2 21 L-9 0 Z M358 640 L367 640 C440 640 483 632 514 614 C566 583 594 517 594 423 C594 295 546 168 469 91 C421 44 357 20 277 20 C212 20 185 33 185 63 C185 73 187 87 191 100 L358 640 Z " />
<glyph glyph-name="dcaron" unicode="&#x10f;" horiz-adv-x="550" d="M555 506 C624 528 668 576 668 628 C668 653 646 672 618 672 C590 672 563 651 563 628 C563 610 581 594 602 594 C608 594 610 594 616 595 L622 595 C623 560 597 527 554 512 L555 506 Z M356 662 L378 662 C413 662 424 657 423 640 C423 633 421 625 418 616 L353 407 C336 425 322 431 299 431 C179 431 31 246 31 96 C31 33 70 -13 124 -13 C164 -13 198 8 253 68 C253 52 254 41 255 35 C261 7 283 -13 311 -13 C355 -13 406 29 444 97 L423 107 C393 54 357 19 332 19 C321 19 315 27 315 41 C315 51 315 53 323 77 L518 695 L511 699 C467 686 438 682 363 683 L356 662 Z M303 405 C324 405 337 394 337 374 C337 363 337 363 311 280 C272 157 261 131 232 84 C204 39 176 17 144 17 C117 17 102 37 102 76 C102 123 116 175 143 234 C191 339 253 405 303 405 L303 405 Z " />
<glyph glyph-name="Dcroat" unicode="&#x110;" horiz-adv-x="690" d="M172 328 L103 102 C85 34 76 24 28 21 L-2 21 L-9 0 L225 -1 L288 -2 C388 -2 454 14 516 53 C623 119 695 254 695 389 C695 482 659 562 598 609 C552 645 494 661 414 661 L169 661 L163 638 L194 638 C233 638 250 627 250 600 C250 589 247 574 241 555 L181 357 L93 357 L84 328 L172 328 Z M262 328 L351 328 L360 357 L270 357 L358 640 L367 640 C440 640 483 632 514 614 C566 583 594 517 594 423 C594 294 546 167 469 91 C422 44 357 20 277 20 C212 20 185 33 185 63 C185 73 187 87 191 99 L262 328 Z " />
<glyph glyph-name="dcroat" unicode="&#x111;" horiz-adv-x="460" d="M474 556 L518 695 L511 700 C473 688 432 682 393 682 C386 682 377 682 363 683 L356 662 L385 662 C413 662 423 656 423 639 C423 636 420 623 418 616 L399 556 L266 556 L258 531 L392 531 L353 407 C336 425 322 431 299 431 C178 431 31 245 31 92 C31 33 72 -13 124 -13 C164 -13 198 8 253 68 C253 51 254 41 255 35 C261 6 283 -14 311 -14 C355 -14 402 25 444 97 L423 107 C393 53 357 18 332 18 C321 18 315 26 315 40 C315 50 316 55 323 77 L466 531 L556 531 L564 556 L474 556 Z M303 405 C324 405 337 394 337 376 C337 363 329 332 308 266 C277 170 250 107 225 73 C197 35 171 17 144 17 C117 17 102 38 102 75 C102 133 124 204 164 275 C211 359 260 405 303 405 L303 405 Z " />
<glyph glyph-name="Emacron" unicode="&#x112;" horiz-adv-x="617" d="M633 659 L182 659 L175 638 L206 638 C243 638 257 628 257 600 C257 588 254 575 247 553 L105 102 C86 31 80 24 34 21 L-2 21 L-9 0 L541 0 L596 175 L570 175 C551 133 531 104 503 78 C457 33 408 18 313 18 C222 18 189 30 189 64 C189 77 193 96 200 120 L270 339 L347 339 C394 339 414 320 414 275 C414 255 412 242 406 215 L432 215 L513 470 L486 470 C452 383 425 363 347 366 L278 366 L364 639 L477 639 C560 642 601 601 611 506 L633 506 L633 659 Z M333 792 L321 752 L615 752 L627 792 L333 792 Z " />
<glyph glyph-name="emacron" unicode="&#x113;" horiz-adv-x="326" d="M164 563 L153 526 L391 526 L402 563 L164 563 Z M255 133 C219 56 180 17 140 17 C111 17 95 41 95 85 C95 106 101 140 107 160 L108 163 C108 163 109 165 110 168 C244 229 328 308 328 373 C328 405 300 431 266 431 C159 431 27 247 27 98 C27 34 67 -13 120 -13 C182 -13 237 32 282 119 L255 133 Z M119 196 C130 241 131 244 141 269 C175 355 217 404 254 404 C271 404 282 391 282 370 C282 341 261 301 229 271 C198 242 175 226 125 199 L119 196 Z " />
<glyph glyph-name="Ebreve" unicode="&#x114;" horiz-adv-x="617" d="M633 659 L182 659 L175 638 L206 638 C243 638 257 628 257 600 C257 588 254 575 247 553 L105 102 C86 31 80 24 34 21 L-2 21 L-9 0 L541 0 L596 175 L570 175 C551 133 531 104 503 78 C457 33 408 18 313 18 C222 18 189 30 189 64 C189 77 193 96 200 120 L270 339 L347 339 C394 339 414 320 414 275 C414 255 412 242 406 215 L432 215 L513 470 L486 470 C452 383 425 363 347 366 L278 366 L364 639 L477 639 C560 642 601 601 611 506 L633 506 L633 659 Z M344 839 C343 831 342 823 342 820 C342 767 387 731 454 731 C528 731 589 772 614 839 L591 839 C569 799 537 785 468 785 C401 785 371 801 366 839 L344 839 Z " />
<glyph glyph-name="ebreve" unicode="&#x115;" horiz-adv-x="326" d="M180 601 L179 583 C179 533 218 499 274 499 C338 499 389 538 411 601 L392 601 C373 563 346 550 287 550 C228 550 203 565 199 601 L180 601 Z M255 133 C219 56 180 17 140 17 C111 17 95 41 95 85 C95 106 101 140 107 160 L108 163 C108 163 109 165 110 168 C244 229 328 308 328 373 C328 405 300 431 266 431 C159 431 27 247 27 98 C27 34 67 -13 120 -13 C182 -13 237 32 282 119 L255 133 Z M119 196 C130 241 131 244 141 269 C175 355 217 404 254 404 C271 404 282 391 282 370 C282 341 261 301 229 271 C198 242 175 226 125 199 L119 196 Z " />
<glyph glyph-name="Edotaccent" unicode="&#x116;" horiz-adv-x="617" d="M633 659 L182 659 L175 638 L206 638 C243 638 257 628 257 600 C257 588 254 575 247 553 L105 102 C86 31 80 24 34 21 L-2 21 L-9 0 L541 0 L596 175 L570 175 C551 133 531 104 503 78 C457 33 408 18 313 18 C222 18 189 30 189 64 C189 77 193 96 200 120 L270 339 L347 339 C394 339 414 320 414 275 C414 255 412 242 406 215 L432 215 L513 470 L486 470 C452 383 425 363 347 366 L278 366 L364 639 L477 639 C560 642 601 601 611 506 L633 506 L633 659 Z M477 828 C448 828 422 804 422 778 C422 751 448 727 476 727 C504 727 530 751 530 778 C530 804 504 828 477 828 L477 828 Z " />
<glyph glyph-name="edotaccent" unicode="&#x117;" horiz-adv-x="326" d="M284 587 C259 587 236 566 236 543 C236 520 259 499 284 499 C308 499 331 520 331 543 C331 566 308 587 284 587 L284 587 Z M255 133 C219 56 180 17 140 17 C111 17 95 41 95 85 C95 106 101 140 107 160 L108 163 C108 163 109 165 110 168 C244 229 328 308 328 373 C328 405 300 431 266 431 C159 431 27 247 27 98 C27 34 67 -13 120 -13 C182 -13 237 32 282 119 L255 133 Z M119 196 C130 241 131 244 141 269 C175 355 217 404 254 404 C271 404 282 391 282 370 C282 341 261 301 229 271 C198 242 175 226 125 199 L119 196 Z " />
<glyph glyph-name="Eogonek" unicode="&#x118;" horiz-adv-x="617" d="M562 -103 C546 -110 536 -112 525 -112 C503 -112 489 -98 489 -76 C489 -50 503 -29 540 -1 L540 -2 L596 175 L570 175 C551 133 531 104 503 78 C457 33 408 18 313 18 C222 18 189 30 189 64 C189 77 193 96 200 120 L270 339 L347 339 C394 339 414 320 414 275 C414 255 412 242 406 215 L432 215 L513 470 L486 470 C452 383 425 363 347 366 L278 366 L364 639 L477 639 C560 642 601 601 611 506 L633 506 L633 659 L182 659 L175 638 L206 638 C243 638 257 628 257 600 C257 588 254 575 247 553 L105 102 C86 31 80 24 34 21 L-2 21 L-9 0 L522 0 C503 -12 492 -18 490 -19 C447 -46 425 -74 425 -101 C425 -126 451 -147 482 -147 C507 -147 534 -138 557 -121 L556 -122 L562 -103 Z " />
<glyph glyph-name="eogonek" unicode="&#x119;" horiz-adv-x="326" d="M204 -101 C189 -107 180 -109 168 -109 C147 -109 133 -95 133 -74 C133 -46 150 -23 194 11 C236 43 253 65 282 119 L255 133 C218 55 180 16 140 16 C111 16 95 40 95 84 C95 105 101 140 107 159 L108 162 C108 163 109 165 110 168 C244 229 328 308 328 373 C328 405 300 431 266 431 C159 431 27 247 27 98 C27 31 66 -13 125 -13 L142 -13 C119 -29 119 -29 114 -32 C87 -52 71 -77 71 -98 C71 -123 96 -143 127 -143 C151 -143 177 -134 199 -117 L198 -119 L204 -101 Z M119 196 C130 241 131 244 141 269 C175 355 217 404 254 404 C271 404 282 391 282 370 C282 341 261 301 229 271 C198 242 175 226 125 199 L119 196 Z " />
<glyph glyph-name="Ecaron" unicode="&#x11a;" horiz-adv-x="617" d="M633 659 L182 659 L175 638 L206 638 C243 638 257 628 257 600 C257 588 254 575 247 553 L105 102 C86 31 80 24 34 21 L-2 21 L-9 0 L541 0 L596 175 L570 175 C551 133 531 104 503 78 C457 33 408 18 313 18 C222 18 189 30 189 64 C189 77 193 96 200 120 L270 339 L347 339 C394 339 414 320 414 275 C414 255 412 242 406 215 L432 215 L513 470 L486 470 C452 383 425 363 347 366 L278 366 L364 639 L477 639 C560 642 601 601 611 506 L633 506 L633 659 Z M457 714 L605 833 C616 842 624 850 624 853 L623 854 C619 860 616 862 611 862 C607 862 594 857 587 852 L470 782 L396 853 C393 856 380 862 377 862 C369 862 356 853 356 848 C356 846 357 844 366 833 L457 714 Z " />
<glyph glyph-name="ecaron" unicode="&#x11b;" horiz-adv-x="326" d="M279 483 L421 596 C430 604 438 612 438 614 C438 615 438 615 437 615 C433 621 431 623 425 623 C422 623 409 618 403 614 L292 548 L221 615 C219 617 206 623 203 623 C197 623 184 615 184 610 C184 608 187 603 193 596 L279 483 Z M255 133 C219 56 180 17 140 17 C111 17 95 41 95 85 C95 106 101 140 107 160 L108 163 C108 163 109 165 110 168 C244 229 328 308 328 373 C328 405 300 431 266 431 C159 431 27 247 27 98 C27 34 67 -13 120 -13 C182 -13 237 32 282 119 L255 133 Z M119 196 C130 241 131 244 141 269 C175 355 217 404 254 404 C271 404 282 391 282 370 C282 341 261 301 229 271 C198 242 175 226 125 199 L119 196 Z " />
<glyph glyph-name="Gcircumflex" unicode="&#x11c;" horiz-adv-x="683" d="M546 0 L588 170 C605 239 611 245 661 246 L682 246 L689 275 L430 275 L423 246 L441 246 C495 246 507 241 507 215 C507 205 506 198 499 178 L468 79 C425 31 381 10 322 10 C230 10 179 74 179 193 C179 285 207 394 255 486 C313 598 387 653 477 653 C569 653 622 592 622 486 C622 475 622 467 620 454 L647 454 L698 659 L668 659 L636 612 C602 656 546 679 469 679 C260 679 79 483 79 255 C79 92 176 -20 316 -20 C386 -20 445 3 497 51 L531 0 L546 0 Z M517 866 L362 742 C358 738 355 736 355 735 L352 732 L351 730 L355 723 C356 722 361 720 363 720 C367 720 370 721 381 727 L504 798 L584 727 C589 723 595 720 598 720 C603 720 611 725 614 729 C616 732 617 734 617 734 C618 734 618 734 618 735 C618 735 616 738 613 742 L517 866 Z " />
<glyph glyph-name="gcircumflex" unicode="&#x11d;" horiz-adv-x="394" d="M300 627 L151 509 C148 506 145 504 144 502 L142 499 L141 498 L142 496 C146 489 148 488 153 488 C156 488 157 488 169 495 L286 563 L363 495 C368 491 373 488 377 488 C381 488 389 493 391 497 C393 500 394 501 395 502 L395 504 L390 509 L300 627 Z M319 398 C290 424 275 431 245 431 C155 431 71 338 71 238 C71 202 87 168 114 148 C119 145 119 145 137 132 C100 125 95 123 81 118 C41 101 15 69 15 39 C15 4 41 -18 103 -35 C169 -54 211 -67 229 -75 C267 -92 283 -112 283 -142 C283 -198 227 -238 147 -238 C62 -238 5 -201 5 -147 C5 -115 20 -94 57 -72 C58 -71 58 -71 59 -69 C51 -64 45 -62 29 -62 C-17 -62 -56 -100 -56 -145 C-56 -212 23 -261 129 -261 C247 -261 337 -194 337 -106 C337 -51 296 -17 205 3 C104 24 104 24 93 30 C78 38 72 47 72 63 C72 94 88 104 152 112 C212 120 247 130 274 148 C321 180 355 248 355 310 C355 336 351 349 331 385 C343 400 347 402 357 402 C367 402 371 400 379 390 C385 382 391 379 399 379 C414 379 429 392 429 406 C429 422 410 437 389 437 C366 437 349 428 319 398 L319 398 Z M247 413 C279 413 294 394 294 354 C294 324 282 264 268 227 C244 163 216 133 180 133 C150 133 133 157 133 199 C133 235 144 279 165 328 C191 390 213 413 247 413 L247 413 Z " />
<glyph glyph-name="Gbreve" unicode="&#x11e;" horiz-adv-x="683" d="M546 0 L588 170 C605 239 611 245 661 246 L682 246 L689 275 L430 275 L423 246 L441 246 C495 246 507 241 507 215 C507 205 506 198 499 178 L468 79 C425 31 381 10 322 10 C230 10 179 74 179 193 C179 285 207 394 255 486 C313 598 387 653 477 653 C569 653 622 592 622 486 C622 475 622 467 620 454 L647 454 L698 659 L668 659 L636 612 C602 656 546 679 469 679 C260 679 79 483 79 255 C79 92 176 -20 316 -20 C386 -20 445 3 497 51 L531 0 L546 0 Z M385 839 C384 831 383 823 383 820 C383 767 428 731 495 731 C569 731 630 772 655 839 L632 839 C610 799 578 785 510 785 C442 785 412 801 408 839 L385 839 Z " />
<glyph glyph-name="gbreve" unicode="&#x11f;" horiz-adv-x="394" d="M201 601 C200 594 199 586 199 583 C199 533 238 499 294 499 C358 499 410 538 431 601 L412 601 C394 564 366 550 307 550 C249 550 224 565 220 601 L201 601 Z M319 398 C290 424 275 431 245 431 C155 431 71 338 71 238 C71 202 87 168 114 148 C119 145 119 145 137 132 C100 125 95 123 81 118 C41 101 15 69 15 39 C15 4 41 -18 103 -35 C169 -54 211 -67 229 -75 C267 -92 283 -112 283 -142 C283 -198 227 -238 147 -238 C62 -238 5 -201 5 -147 C5 -115 20 -94 57 -72 C58 -71 58 -71 59 -69 C51 -64 45 -62 29 -62 C-17 -62 -56 -100 -56 -145 C-56 -212 23 -261 129 -261 C247 -261 337 -194 337 -106 C337 -51 296 -17 205 3 C104 24 104 24 93 30 C78 38 72 47 72 63 C72 94 88 104 152 112 C212 120 247 130 274 148 C321 180 355 248 355 310 C355 336 351 349 331 385 C343 400 347 402 357 402 C367 402 371 400 379 390 C385 382 391 379 399 379 C414 379 429 392 429 406 C429 422 410 437 389 437 C366 437 349 428 319 398 L319 398 Z M247 413 C279 413 294 394 294 354 C294 324 282 264 268 227 C244 163 216 133 180 133 C150 133 133 157 133 199 C133 235 144 279 165 328 C191 390 213 413 247 413 L247 413 Z " />
<glyph glyph-name="Gdotaccent" unicode="&#x120;" horiz-adv-x="683" d="M546 0 L588 170 C605 239 611 245 661 246 L682 246 L689 275 L430 275 L423 246 L441 246 C495 246 507 241 507 215 C507 205 506 198 499 178 L468 79 C425 31 381 10 322 10 C230 10 179 74 179 193 C179 285 207 394 255 486 C313 598 387 653 477 653 C569 653 622 592 622 486 C622 475 622 467 620 454 L647 454 L698 659 L668 659 L636 612 C602 656 546 679 469 679 C260 679 79 483 79 255 C79 92 176 -20 316 -20 C386 -20 445 3 497 51 L531 0 L546 0 Z M510 828 C481 828 455 804 455 778 C455 751 481 727 509 727 C537 727 563 751 563 778 C563 804 537 828 510 828 L510 828 Z " />
<glyph glyph-name="gdotaccent" unicode="&#x121;" horiz-adv-x="394" d="M285 587 C260 587 237 566 237 543 C237 520 260 499 285 499 C309 499 332 520 332 543 C332 566 309 587 285 587 L285 587 Z M319 398 C290 424 275 431 245 431 C155 431 71 338 71 238 C71 202 87 168 114 148 C119 145 119 145 137 132 C100 125 95 123 81 118 C41 101 15 69 15 39 C15 4 41 -18 103 -35 C169 -54 211 -67 229 -75 C267 -92 283 -112 283 -142 C283 -198 227 -238 147 -238 C62 -238 5 -201 5 -147 C5 -115 20 -94 57 -72 C58 -71 58 -71 59 -69 C51 -64 45 -62 29 -62 C-17 -62 -56 -100 -56 -145 C-56 -212 23 -261 129 -261 C247 -261 337 -194 337 -106 C337 -51 296 -17 205 3 C104 24 104 24 93 30 C78 38 72 47 72 63 C72 94 88 104 152 112 C212 120 247 130 274 148 C321 180 355 248 355 310 C355 336 351 349 331 385 C343 400 347 402 357 402 C367 402 371 400 379 390 C385 382 391 379 399 379 C414 379 429 392 429 406 C429 422 410 437 389 437 C366 437 349 428 319 398 L319 398 Z M247 413 C279 413 294 394 294 354 C294 324 282 264 268 227 C244 163 216 133 180 133 C150 133 133 157 133 199 C133 235 144 279 165 328 C191 390 213 413 247 413 L247 413 Z " />
<glyph glyph-name="Gcommaaccent" unicode="&#x122;" horiz-adv-x="683" d="M546 0 L588 170 C605 239 611 245 661 246 L682 246 L689 275 L430 275 L423 246 L441 246 C495 246 507 241 507 215 C507 205 506 198 499 178 L468 79 C425 31 381 10 322 10 C230 10 179 74 179 193 C179 285 207 394 255 486 C313 598 387 653 477 653 C569 653 622 592 622 486 C622 475 622 467 620 454 L647 454 L698 659 L668 659 L636 612 C602 656 546 679 469 679 C260 679 79 483 79 255 C79 92 176 -20 316 -20 C386 -20 445 3 497 51 L531 0 L546 0 Z M229 -252 C306 -227 354 -174 354 -116 C354 -88 330 -67 298 -67 C267 -67 238 -91 238 -117 C238 -139 257 -155 282 -155 C287 -155 290 -155 294 -154 L297 -154 L303 -153 C304 -192 275 -228 227 -245 L229 -252 Z " />
<glyph glyph-name="gcommaaccent" unicode="&#x123;" horiz-adv-x="394" d="M343 652 C275 631 232 586 232 536 C232 512 254 494 283 494 C311 494 337 515 337 536 C337 553 318 569 298 569 C293 569 286 568 278 567 C275 601 301 632 344 647 L343 652 Z M319 398 C290 424 275 431 245 431 C155 431 71 338 71 238 C71 202 87 168 114 148 C119 145 119 145 137 132 C100 125 95 123 81 118 C41 101 15 69 15 39 C15 4 41 -18 103 -35 C169 -54 211 -67 229 -75 C267 -92 283 -112 283 -142 C283 -198 227 -238 147 -238 C62 -238 5 -201 5 -147 C5 -115 20 -94 57 -72 C58 -71 58 -71 59 -69 C51 -64 45 -62 29 -62 C-17 -62 -56 -100 -56 -145 C-56 -212 23 -261 129 -261 C247 -261 337 -194 337 -106 C337 -51 296 -17 205 3 C104 24 104 24 93 30 C78 38 72 47 72 63 C72 94 88 104 152 112 C212 120 247 130 274 148 C321 180 355 248 355 310 C355 336 351 349 331 385 C343 400 347 402 357 402 C367 402 371 400 379 390 C385 382 391 379 399 379 C414 379 429 392 429 406 C429 422 410 437 389 437 C366 437 349 428 319 398 L319 398 Z M247 413 C279 413 294 394 294 354 C294 324 282 264 268 227 C244 163 216 133 180 133 C150 133 133 157 133 199 C133 235 144 279 165 328 C191 390 213 413 247 413 L247 413 Z " />
<glyph glyph-name="Hcircumflex" unicode="&#x124;" horiz-adv-x="745" d="M568 638 L590 638 C633 638 649 628 649 600 C649 589 646 572 640 556 L578 356 L275 356 L338 556 C360 629 371 639 428 638 L439 638 L445 659 L182 659 L175 638 L201 638 C242 638 257 628 257 599 C257 588 254 573 247 553 L105 102 C84 28 79 24 22 21 L-2 21 L-9 0 L261 0 L268 21 L244 21 C202 21 187 32 187 61 C187 71 190 88 196 106 L267 329 L569 329 L497 102 C477 30 469 23 412 21 L390 21 L383 0 L653 0 L660 21 L642 21 C594 21 579 30 579 57 C579 66 584 92 588 106 L730 556 C753 629 764 639 820 638 L831 638 L838 659 L574 659 L568 638 Z M555 866 L400 742 C396 739 393 736 392 735 L390 732 C389 731 389 731 389 730 C389 727 396 720 401 720 C405 720 408 721 418 727 L541 798 L622 727 C627 723 633 720 636 720 C641 720 649 725 652 729 C653 732 654 734 655 734 C656 734 656 734 656 735 C656 735 654 738 651 742 L555 866 Z " />
<glyph glyph-name="hcircumflex" unicode="&#x125;" horiz-adv-x="454" d="M302 887 L153 768 L146 762 L144 759 C143 758 143 758 143 757 L144 756 C148 749 150 748 155 748 C158 748 161 749 171 755 L288 822 L365 755 C369 751 375 748 379 748 C383 748 391 753 393 757 C395 759 396 761 397 761 L397 762 C397 762 395 765 392 769 L302 887 Z M304 695 L297 699 C253 686 225 683 149 683 L141 662 L170 662 C193 660 193 660 195 660 C203 657 208 649 208 640 C208 632 207 624 204 616 L10 0 L85 0 L146 198 C167 267 191 312 226 349 C252 378 287 398 310 398 C325 398 335 387 334 372 C334 363 330 346 327 335 L260 122 C248 84 241 53 241 40 C241 11 269 -13 303 -13 C351 -13 398 24 440 95 L419 105 C383 46 354 17 330 17 C319 17 313 25 313 37 C313 46 316 58 323 80 L395 309 C404 338 408 356 408 370 C408 405 377 431 338 431 C291 431 246 404 195 344 L304 695 Z " />
<glyph glyph-name="Hbar" unicode="&#x126;" horiz-adv-x="745" d="M222 474 L142 474 L136 454 L216 454 L105 102 C84 28 79 24 22 21 L-2 21 L-9 0 L261 0 L268 21 L244 21 C202 21 187 32 187 61 C187 71 190 88 196 106 L267 329 L569 329 L497 102 C477 30 469 23 412 21 L390 21 L383 0 L653 0 L660 21 L642 21 C594 21 579 30 579 57 C579 66 584 92 588 106 L698 454 L777 454 L783 474 L704 474 L730 556 C753 629 764 639 820 638 L831 638 L838 659 L574 659 L568 638 L590 638 C633 638 649 628 649 600 C649 590 646 572 640 556 L615 474 L312 474 L338 556 C360 629 371 639 428 638 L439 638 L445 659 L182 659 L175 638 L201 638 C242 638 257 628 257 599 C257 588 254 574 247 553 L222 474 Z M608 454 L578 356 L275 356 L306 454 L608 454 Z " />
<glyph glyph-name="hbar" unicode="&#x127;" horiz-adv-x="454" d="M261 556 L304 695 L297 700 C259 688 220 682 176 682 C165 682 160 682 149 683 L141 662 L170 662 C193 661 193 661 195 660 C203 657 208 650 208 640 C208 633 207 624 204 616 L185 556 L110 556 L103 531 L177 531 L10 0 L85 0 L146 198 C167 267 191 312 226 349 C252 378 287 398 309 398 C325 398 333 388 333 370 C333 360 331 348 327 335 L260 122 C246 77 241 56 241 40 C241 11 269 -13 303 -13 C351 -13 398 24 440 95 L419 105 C383 46 354 17 330 17 C319 17 313 25 313 39 C313 49 313 50 323 80 L395 309 C403 336 408 358 408 371 C408 405 377 431 338 431 C291 431 246 404 195 344 L253 531 L400 531 L408 556 L261 556 Z " />
<glyph glyph-name="Itilde" unicode="&#x128;" horiz-adv-x="454" d="M304 695 L297 699 C253 686 225 683 149 683 L141 662 L170 662 C193 660 193 660 195 660 C203 657 208 649 208 640 C208 632 207 624 204 616 L10 0 L85 0 L146 198 C167 267 191 312 226 349 C252 378 287 398 310 398 C325 398 335 387 334 372 C334 363 330 346 327 335 L260 122 C248 84 241 53 241 40 C241 11 269 -13 303 -13 C351 -13 398 24 440 95 L419 105 C383 46 354 17 330 17 C319 17 313 25 313 37 C313 46 316 58 323 80 L395 309 C404 338 408 356 408 370 C408 405 377 431 338 431 C291 431 246 404 195 344 L304 695 Z M418 824 C392 800 377 793 355 793 C341 793 323 797 301 806 C261 822 259 823 243 823 C210 823 173 798 131 747 L142 740 C169 766 186 775 205 775 C217 775 236 770 267 760 C306 747 309 746 319 746 C350 746 390 772 428 817 L418 824 Z " />
<glyph glyph-name="itilde" unicode="&#x129;" horiz-adv-x="267" d="M345 603 C319 580 304 573 282 573 C268 573 250 577 228 586 C188 602 186 603 170 603 C137 603 99 577 58 527 L69 520 C96 546 113 555 132 555 C144 555 163 550 194 540 C233 527 236 526 246 526 C277 526 317 552 355 597 L345 603 Z M215 110 C183 46 166 26 143 26 C133 26 127 34 127 48 C127 56 128 63 133 76 L219 340 C226 362 229 377 229 388 C229 412 204 431 172 431 C122 431 87 398 45 311 L73 304 C99 367 115 389 136 389 C145 389 149 383 149 372 C149 364 146 352 141 334 L59 83 C51 61 48 45 48 35 C48 9 77 -13 110 -13 C156 -13 203 27 239 97 L215 110 Z " />
<glyph glyph-name="Imacron" unicode="&#x12a;" horiz-adv-x="353" d="M175 638 L201 638 C242 638 257 628 257 599 C257 588 254 575 247 553 L106 102 C86 28 81 23 25 21 L-2 21 L-9 0 L261 0 L268 21 L243 21 C203 21 188 31 188 60 C188 70 192 90 197 106 L338 556 C360 629 371 639 428 638 L439 638 L445 659 L182 659 L175 638 Z M201 792 L189 752 L483 752 L495 792 L201 792 Z " />
<glyph glyph-name="imacron" unicode="&#x12b;" horiz-adv-x="267" d="M215 110 C183 46 166 26 143 26 C133 26 127 34 127 48 C127 56 128 63 133 76 L219 340 C226 362 229 377 229 388 C229 412 204 431 172 431 C122 431 87 398 45 311 L73 304 C99 367 115 389 136 389 C145 389 149 383 149 372 C149 364 146 352 141 334 L59 83 C51 61 48 45 48 35 C48 9 77 -13 110 -13 C156 -13 203 27 239 97 L215 110 Z M107 563 L96 526 L334 526 L345 563 L107 563 Z " />
<glyph glyph-name="Ibreve" unicode="&#x12c;" horiz-adv-x="353" d="M175 638 L201 638 C242 638 257 628 257 599 C257 588 254 575 247 553 L106 102 C86 28 81 23 25 21 L-2 21 L-9 0 L261 0 L268 21 L243 21 C203 21 188 31 188 60 C188 70 192 90 197 106 L338 556 C360 629 371 639 428 638 L439 638 L445 659 L182 659 L175 638 Z M234 839 C233 831 232 824 232 820 C232 767 277 731 344 731 C418 731 478 772 503 839 L480 839 C459 799 426 785 358 785 C290 785 261 801 256 839 L234 839 Z " />
<glyph glyph-name="ibreve" unicode="&#x12d;" horiz-adv-x="267" d="M215 110 C183 46 166 26 143 26 C133 26 127 34 127 48 C127 56 128 63 133 76 L219 340 C226 362 229 377 229 388 C229 412 204 431 172 431 C122 431 87 398 45 311 L73 304 C99 367 115 389 136 389 C145 389 149 383 149 372 C149 364 146 352 141 334 L59 83 C51 61 48 45 48 35 C48 9 77 -13 110 -13 C156 -13 203 27 239 97 L215 110 Z M124 601 C123 594 122 587 122 583 C122 533 160 499 217 499 C281 499 333 538 354 601 L335 601 C316 563 289 550 230 550 C172 550 146 565 142 601 L124 601 Z " />
<glyph glyph-name="Iogonek" unicode="&#x12e;" horiz-adv-x="353" d="M283 -103 C267 -110 258 -112 246 -112 C224 -112 210 -98 210 -76 C210 -51 229 -24 261 -1 L260 -2 L268 21 L243 21 C203 21 188 31 188 60 C188 70 192 90 197 106 L338 556 C360 629 371 639 428 638 L439 638 L445 659 L182 659 L175 638 L201 638 C242 638 257 628 257 599 C257 588 254 575 247 553 L106 102 C86 28 81 23 25 21 L-2 21 L-9 0 L243 0 C216 -16 216 -16 211 -19 C168 -46 146 -74 146 -101 C146 -126 172 -147 204 -147 C229 -147 255 -138 278 -121 L277 -122 L283 -103 Z " />
<glyph glyph-name="iogonek" unicode="&#x12f;" horiz-adv-x="267" d="M175 -101 C160 -107 151 -109 139 -109 C118 -109 104 -95 104 -74 C104 -49 118 -28 154 -2 C199 31 215 49 240 97 L215 110 C183 45 166 25 144 25 C134 25 128 33 128 47 C128 55 130 65 133 76 L219 340 C228 367 230 377 230 388 C230 412 205 431 173 431 C122 431 88 398 46 311 L74 304 C99 366 116 389 137 389 C146 389 150 383 150 372 C150 364 148 355 141 334 L59 82 C53 62 49 45 49 35 C49 20 58 6 72 -3 C80 -8 82 -9 110 -15 C98 -23 91 -28 91 -28 C59 -51 42 -76 42 -98 C42 -123 67 -143 97 -143 C122 -143 148 -134 169 -117 L169 -119 L175 -101 Z M242 634 C214 634 189 611 189 586 C189 560 213 537 241 537 C268 537 293 560 293 586 C293 611 268 634 242 634 L242 634 Z " />
<glyph glyph-name="Idotaccent" unicode="&#x130;" horiz-adv-x="353" d="M175 638 L201 638 C242 638 257 628 257 599 C257 588 254 575 247 553 L106 102 C86 28 81 23 25 21 L-2 21 L-9 0 L261 0 L268 21 L243 21 C203 21 188 31 188 60 C188 70 192 90 197 106 L338 556 C360 629 371 639 428 638 L439 638 L445 659 L182 659 L175 638 Z M345 828 C316 828 290 804 290 778 C290 751 316 727 344 727 C372 727 398 751 398 778 C398 804 372 828 345 828 L345 828 Z " />
<glyph glyph-name="dotlessi" unicode="&#x131;" horiz-adv-x="267" d="M215 110 C183 46 166 26 143 26 C133 26 127 34 127 48 C127 56 128 63 133 76 L219 340 C226 362 229 377 229 388 C229 412 204 431 172 431 C122 431 87 398 45 311 L73 304 C99 367 115 389 136 389 C145 389 149 383 149 372 C149 364 146 352 141 334 L59 83 C51 61 48 45 48 35 C48 9 77 -13 110 -13 C156 -13 203 27 239 97 L215 110 Z " />
<glyph glyph-name="IJ" unicode="&#x132;" horiz-adv-x="707" d="M175 638 L201 638 C242 638 257 628 257 599 C257 588 254 575 247 553 L106 102 C86 28 81 23 25 21 L-2 21 L-9 0 L261 0 L268 21 L243 21 C203 21 188 31 188 60 C188 70 192 90 197 106 L338 556 C360 629 371 639 428 638 L439 638 L445 659 L182 659 L175 638 Z M807 659 L545 659 L538 638 L563 638 C605 638 619 628 619 599 C619 588 616 570 610 553 L436 1 C400 -113 356 -166 297 -166 C266 -166 246 -151 240 -125 C234 -94 234 -94 229 -86 C223 -77 209 -70 197 -70 C176 -70 157 -87 157 -107 C157 -149 225 -188 300 -188 C415 -188 487 -120 536 33 L701 556 C723 629 734 639 791 638 L801 638 L807 659 Z " />
<glyph glyph-name="ij" unicode="&#x133;" horiz-adv-x="524" d="M215 110 C183 46 166 26 143 26 C133 26 127 34 127 48 C127 56 128 63 133 76 L219 340 C226 362 229 377 229 388 C229 412 204 431 172 431 C122 431 87 398 45 311 L73 304 C99 367 115 389 136 389 C145 389 149 383 149 372 C149 364 146 352 141 334 L59 83 C51 61 48 45 48 35 C48 9 77 -13 110 -13 C156 -13 203 27 239 97 L215 110 Z M241 634 C213 634 188 611 188 586 C188 560 212 537 240 537 C267 537 292 560 292 586 C292 611 267 634 241 634 L241 634 Z M347 306 C370 358 399 390 422 390 C433 390 438 383 438 369 C438 356 429 322 408 254 L305 -73 C254 -233 235 -267 196 -267 C179 -267 169 -259 169 -246 C169 -241 171 -236 176 -228 C183 -217 186 -211 186 -207 C186 -193 171 -181 155 -181 C134 -181 115 -200 115 -221 C115 -255 149 -282 193 -282 C239 -282 285 -254 320 -204 C345 -168 359 -137 381 -66 L479 243 C506 330 514 362 514 387 C514 414 495 431 465 431 C409 431 358 390 320 313 L347 306 Z M523 634 C495 634 470 611 470 586 C470 560 494 537 522 537 C549 537 574 560 574 586 C574 611 549 634 523 634 L523 634 Z " />
<glyph glyph-name="Jcircumflex" unicode="&#x134;" horiz-adv-x="353" d="M175 638 L201 638 C242 638 257 628 257 599 C257 588 254 575 247 553 L106 102 C86 28 81 23 25 21 L-2 21 L-9 0 L261 0 L268 21 L243 21 C203 21 188 31 188 60 C188 70 192 90 197 106 L338 556 C360 629 371 639 428 638 L439 638 L445 659 L182 659 L175 638 Z M234 839 C233 831 232 824 232 820 C232 767 277 731 344 731 C418 731 478 772 503 839 L480 839 C459 799 426 785 358 785 C290 785 261 801 256 839 L234 839 Z " />
<glyph glyph-name="jcircumflex" unicode="&#x135;" horiz-adv-x="257" d="M81 306 C103 357 133 390 155 390 C165 390 171 383 171 369 C171 356 160 315 141 254 L38 -73 C-13 -234 -31 -267 -70 -267 C-87 -267 -97 -259 -97 -246 C-97 -242 -95 -236 -90 -228 C-84 -217 -81 -211 -81 -206 C-81 -194 -96 -181 -111 -181 C-132 -181 -151 -200 -151 -221 C-151 -255 -117 -282 -73 -282 C-28 -282 19 -254 53 -204 C79 -168 92 -138 115 -66 L212 243 C238 325 247 361 247 387 C247 414 228 431 198 431 C142 431 93 391 54 313 L81 306 Z M271 627 L123 509 C120 506 117 504 116 502 L114 499 L113 498 L114 496 C118 489 120 488 124 488 C128 488 128 488 141 495 L258 563 L335 495 C340 491 345 488 348 488 C353 488 361 493 363 497 C364 500 366 501 366 502 L367 502 L367 503 C367 503 365 505 362 509 L271 627 Z " />
<glyph glyph-name="Kcommaaccent" unicode="&#x136;" horiz-adv-x="644" d="M736 659 L505 659 L500 638 L515 638 C555 638 565 633 565 612 C565 601 561 594 544 578 L252 293 L333 556 C355 629 366 639 422 638 L433 638 L439 659 L176 659 L170 638 L196 638 C237 638 251 628 251 598 C251 587 248 571 242 553 L105 102 C83 27 80 23 27 21 L-2 21 L-9 0 L261 0 L268 21 L242 21 C201 21 186 32 186 60 C186 71 189 87 195 106 L237 242 L339 339 L432 81 C437 67 440 53 440 47 C440 26 426 21 374 21 L362 21 L355 0 L622 0 L628 21 L605 21 C554 22 545 29 527 77 L404 400 L594 583 C641 625 672 640 715 638 L730 638 L736 659 Z M210 -252 C286 -227 334 -174 334 -116 C334 -88 310 -67 279 -67 C247 -67 219 -91 219 -117 C219 -139 238 -155 263 -155 C268 -155 271 -155 275 -154 C279 -154 279 -154 283 -153 C285 -192 256 -228 208 -245 L210 -252 Z " />
<glyph glyph-name="kcommaaccent" unicode="&#x137;" horiz-adv-x="447" d="M138 662 L157 662 C193 662 205 656 205 638 C205 633 203 624 201 616 L9 0 L82 0 L152 221 C171 233 180 236 193 236 C222 236 236 217 236 176 L235 128 C233 101 232 76 232 69 C232 19 259 -13 299 -13 C351 -13 396 30 420 103 L395 113 C379 59 357 31 330 31 C322 31 314 35 311 42 C303 55 302 60 299 118 C294 217 274 247 209 254 C273 341 322 385 355 385 C362 385 371 383 382 380 C394 377 404 375 411 375 C431 375 450 391 450 407 C450 423 430 438 407 438 C356 438 300 399 220 306 C196 280 188 270 155 230 L302 695 L295 699 C251 686 223 683 146 683 L138 662 Z M92 -235 C160 -214 203 -169 203 -119 C203 -96 181 -77 152 -77 C125 -77 98 -97 98 -119 C98 -136 117 -152 137 -152 C142 -152 150 -151 157 -150 C160 -184 133 -216 91 -230 L92 -235 Z " />
<glyph glyph-name="kgreenlandic" unicode="&#x138;" horiz-adv-x="482" d="M194 234 C213 308 221 348 221 376 C221 410 199 431 162 431 C118 431 79 391 39 306 L63 300 C89 353 118 387 137 387 C147 387 153 378 153 364 C153 350 149 333 132 282 L43 0 L118 0 L189 222 C207 233 216 236 228 236 C257 236 271 216 271 176 L270 128 C268 102 267 77 267 69 C267 19 293 -13 334 -13 C386 -13 432 30 455 103 L430 113 C416 60 393 31 366 31 C358 31 350 35 346 42 C339 55 338 59 334 118 C329 217 309 247 244 254 C306 339 357 385 390 385 C397 385 406 383 417 380 C429 377 440 375 446 375 C466 375 485 391 485 407 C485 423 465 438 442 438 C399 438 350 408 290 345 C265 319 240 290 202 243 L194 234 Z " />
<glyph glyph-name="Lacute" unicode="&#x139;" horiz-adv-x="592" d="M567 168 L540 168 C529 135 515 111 494 87 C448 36 399 18 302 18 C216 18 189 30 189 67 C189 78 191 92 196 107 L338 556 C360 629 371 639 428 638 L438 638 L445 659 L182 659 L175 638 L201 638 C242 638 256 628 256 599 C256 588 253 570 247 553 L106 102 C87 29 80 22 26 20 L-2 20 L-9 0 L513 0 L567 168 Z M399 858 L312 727 L310 723 C313 721 315 721 318 721 C324 721 330 724 334 727 L483 850 L488 854 L489 855 L490 856 L489 856 C488 858 488 858 478 858 L399 858 Z " />
<glyph glyph-name="lacute" unicode="&#x13a;" horiz-adv-x="253" d="M139 662 L167 662 C196 662 205 656 205 636 C205 630 204 625 201 616 L46 120 C35 84 31 65 31 48 C31 12 59 -13 100 -13 C155 -13 196 22 245 114 L219 127 C188 61 156 26 127 26 C113 26 105 36 105 54 C105 69 108 82 120 119 L302 695 L295 699 C251 686 223 683 146 683 L139 662 Z M330 858 L244 727 L242 723 C245 721 246 721 249 721 C255 721 262 724 266 727 L415 850 C417 852 419 853 419 854 C420 854 420 854 420 855 L421 856 L420 856 C419 858 419 858 410 858 L330 858 Z " />
<glyph glyph-name="Lcommaaccent" unicode="&#x13b;" horiz-adv-x="592" d="M567 168 L540 168 C529 135 515 111 494 87 C448 36 399 18 302 18 C216 18 189 30 189 67 C189 78 191 92 196 107 L338 556 C360 629 371 639 428 638 L438 638 L445 659 L182 659 L175 638 L201 638 C242 638 256 628 256 599 C256 588 253 570 247 553 L106 102 C87 29 80 22 26 20 L-2 20 L-9 0 L513 0 L567 168 Z M184 -252 C260 -227 308 -175 308 -116 C308 -88 284 -67 253 -67 C221 -67 193 -91 193 -117 C193 -139 212 -155 236 -155 C242 -155 245 -155 249 -154 C253 -154 253 -154 257 -153 C259 -192 230 -227 182 -245 L184 -252 Z " />
<glyph glyph-name="lcommaaccent" unicode="&#x13c;" horiz-adv-x="253" d="M138 662 L166 662 C196 662 205 656 205 636 C205 631 204 626 201 616 L46 120 C35 86 31 65 31 48 C31 12 59 -13 100 -13 C155 -13 196 23 245 114 L219 127 C188 61 156 26 127 26 C113 26 105 36 105 54 C105 69 109 85 120 119 L301 695 L294 699 C250 686 222 683 146 683 L138 662 Z M-5 -235 C63 -214 106 -169 106 -119 C106 -96 84 -77 56 -77 C28 -77 2 -97 2 -119 C2 -136 21 -152 41 -152 C46 -152 52 -151 60 -150 C63 -184 37 -215 -6 -230 L-5 -235 Z " />
<glyph glyph-name="Lcaron" unicode="&#x13d;" horiz-adv-x="592" d="M567 168 L540 168 C529 135 515 111 494 87 C448 36 399 18 302 18 C216 18 189 30 189 67 C189 78 191 92 196 107 L338 556 C360 629 371 639 428 638 L438 638 L445 659 L182 659 L175 638 L201 638 C242 638 256 628 256 599 C256 588 253 570 247 553 L106 102 C87 29 80 22 26 20 L-2 20 L-9 0 L513 0 L567 168 Z M482 487 C559 513 607 565 607 623 C607 651 583 672 551 672 C520 672 491 648 491 622 C491 601 510 585 534 585 C540 585 549 585 556 586 C557 547 528 512 480 495 L482 487 Z " />
<glyph glyph-name="lcaron" unicode="&#x13e;" horiz-adv-x="312" d="M139 662 L167 662 C195 662 206 655 206 639 C206 636 206 636 203 625 L201 616 L46 120 C35 84 31 65 31 48 C31 12 59 -13 100 -13 C155 -13 196 22 245 114 L219 127 C192 66 156 26 126 26 C112 26 104 36 104 53 C104 64 109 84 120 119 L302 695 L295 699 C255 687 217 682 173 682 C166 682 161 682 146 683 L139 662 Z M318 506 C386 528 430 576 430 628 C430 653 409 672 380 672 C353 672 326 651 326 628 C326 610 344 594 365 594 C371 594 372 594 379 595 L384 595 C386 560 360 527 316 512 L318 506 Z " />
<glyph glyph-name="Ldot" unicode="&#x13f;" horiz-adv-x="592" d="M567 168 L540 168 C529 135 515 111 494 87 C448 36 399 18 302 18 C216 18 189 30 189 67 C189 78 191 92 196 107 L338 556 C360 629 371 639 428 638 L438 638 L445 659 L182 659 L175 638 L201 638 C242 638 256 628 256 599 C256 588 253 570 247 553 L106 102 C87 29 80 22 26 20 L-2 20 L-9 0 L513 0 L567 168 Z M513 389 C481 389 453 363 453 334 C453 304 481 278 512 278 C543 278 571 304 571 334 C571 362 543 389 513 389 L513 389 Z " />
<glyph glyph-name="ldot" unicode="&#x140;" horiz-adv-x="313" d="M139 662 L167 662 C196 662 205 656 205 636 C205 630 204 625 201 616 L46 120 C35 84 31 65 31 48 C31 12 59 -13 100 -13 C155 -13 196 22 245 114 L219 127 C188 61 156 26 127 26 C113 26 105 36 105 54 C105 69 108 82 120 119 L302 695 L295 699 C251 686 223 683 146 683 L139 662 Z M307 383 C279 383 253 360 253 333 C253 307 278 283 307 283 C334 283 360 307 360 333 C360 359 335 383 307 383 L307 383 Z " />
<glyph glyph-name="Lslash" unicode="&#x141;" horiz-adv-x="592" d="M159 270 L106 102 C87 29 80 22 26 20 L-2 20 L-9 0 L513 0 L567 168 L540 168 C529 135 515 111 494 87 C448 36 399 18 302 18 C216 18 189 30 189 67 C189 78 191 92 196 107 L260 310 L502 409 L500 431 L268 335 L338 556 C360 629 371 639 428 638 L438 638 L445 659 L182 659 L175 638 L201 638 C242 638 256 628 256 599 C256 588 253 570 247 553 L166 294 L55 249 L59 228 L159 270 Z " />
<glyph glyph-name="lslash" unicode="&#x142;" horiz-adv-x="253" d="M199 378 L300 695 L293 699 C253 687 215 682 171 682 C164 682 159 682 144 683 L137 662 L165 662 C192 662 204 655 204 639 C204 636 201 621 199 616 L114 342 L26 306 L27 290 L108 323 L44 120 C33 84 29 65 29 48 C29 12 58 -13 98 -13 C153 -13 195 23 243 114 L217 127 C191 67 154 26 124 26 C110 26 102 36 102 53 C102 64 107 85 118 119 L193 358 L287 399 L285 414 L199 378 Z " />
<glyph glyph-name="Nacute" unicode="&#x143;" horiz-adv-x="680" d="M783 659 L573 659 L567 638 L582 638 C639 638 652 632 652 608 C652 599 648 578 643 562 L520 139 L318 659 L162 659 L156 638 L196 638 C221 638 238 623 246 595 L95 98 C77 34 62 21 16 21 L-3 21 L-9 0 L204 0 L209 21 L199 21 C140 21 124 28 124 52 C124 60 127 78 131 91 L268 545 L496 -25 L507 -25 L681 560 C699 626 711 639 760 638 L777 638 L783 659 Z M543 858 L457 727 L455 723 C458 721 460 721 463 721 C469 721 475 724 479 727 L628 850 L633 854 L634 855 L635 856 L634 856 C633 858 633 858 623 858 L543 858 Z " />
<glyph glyph-name="nacute" unicode="&#x144;" horiz-adv-x="472" d="M118 0 L174 176 C196 246 210 279 231 313 C266 368 301 398 329 398 C346 398 356 387 356 369 C356 353 350 328 339 295 L278 116 C264 75 259 53 259 36 C259 8 284 -13 317 -13 C369 -13 421 29 458 101 L433 113 C404 55 378 28 352 28 C341 28 335 35 335 49 C335 59 336 65 343 84 L411 288 C423 321 428 346 428 364 C428 401 394 431 352 431 C302 431 258 395 192 298 C209 356 209 358 209 385 C209 413 190 431 160 431 C118 431 78 390 39 306 L63 300 C89 353 118 387 137 387 C147 387 153 378 153 364 C153 350 149 333 132 282 L43 0 L118 0 Z M364 619 L282 494 L280 491 C283 489 284 489 286 489 C291 489 299 491 303 495 L444 611 L449 615 C450 617 450 617 451 617 L450 617 C449 619 448 619 440 619 L364 619 Z " />
<glyph glyph-name="Ncommaaccent" unicode="&#x145;" horiz-adv-x="680" d="M783 659 L573 659 L567 638 L582 638 C639 638 652 632 652 608 C652 599 648 578 643 562 L520 139 L318 659 L162 659 L156 638 L196 638 C221 638 238 623 246 595 L95 98 C77 34 62 21 16 21 L-3 21 L-9 0 L204 0 L209 21 L199 21 C140 21 124 28 124 52 C124 60 127 78 131 91 L268 545 L496 -25 L507 -25 L681 560 C699 626 711 639 760 638 L777 638 L783 659 Z M228 -252 C305 -226 353 -175 353 -116 C353 -88 329 -67 297 -67 C266 -67 237 -91 237 -118 C237 -139 256 -155 281 -155 C286 -155 289 -155 293 -154 C298 -154 298 -154 302 -153 C303 -192 274 -227 226 -245 L228 -252 Z " />
<glyph glyph-name="ncommaaccent" unicode="&#x146;" horiz-adv-x="472" d="M118 0 L174 176 C196 246 210 279 231 313 C266 368 301 398 329 398 C346 398 356 387 356 369 C356 353 350 328 339 295 L278 116 C264 75 259 53 259 36 C259 8 284 -13 317 -13 C369 -13 421 29 458 101 L433 113 C404 55 378 28 352 28 C341 28 335 35 335 49 C335 59 336 65 343 84 L411 288 C423 321 428 346 428 364 C428 401 394 431 352 431 C302 431 258 395 192 298 C209 356 209 358 209 385 C209 413 190 431 160 431 C118 431 78 390 39 306 L63 300 C89 353 118 387 137 387 C147 387 153 378 153 364 C153 350 149 333 132 282 L43 0 L118 0 Z M106 -235 C173 -214 216 -169 216 -119 C216 -96 194 -77 165 -77 C138 -77 112 -97 112 -119 C112 -136 131 -152 151 -152 C156 -152 162 -151 171 -150 C173 -184 147 -215 104 -230 L106 -235 Z " />
<glyph glyph-name="Ncaron" unicode="&#x147;" horiz-adv-x="680" d="M783 659 L573 659 L567 638 L582 638 C639 638 652 632 652 608 C652 599 648 578 643 562 L520 139 L318 659 L162 659 L156 638 L196 638 C221 638 238 623 246 595 L95 98 C77 34 62 21 16 21 L-3 21 L-9 0 L204 0 L209 21 L199 21 C140 21 124 28 124 52 C124 60 127 78 131 91 L268 545 L496 -25 L507 -25 L681 560 C699 626 711 639 760 638 L777 638 L783 659 Z M488 714 L637 833 C648 842 656 850 656 853 L655 854 C651 860 648 862 643 862 C639 862 626 857 618 852 L502 782 L428 853 C425 856 412 862 409 862 C401 862 388 853 388 848 C388 846 389 844 398 833 L488 714 Z " />
<glyph glyph-name="ncaron" unicode="&#x148;" horiz-adv-x="472" d="M118 0 L174 176 C196 246 210 279 231 313 C266 368 301 398 329 398 C346 398 356 387 356 369 C356 353 350 328 339 295 L278 116 C264 75 259 53 259 36 C259 8 284 -13 317 -13 C369 -13 421 29 458 101 L433 113 C404 55 378 28 352 28 C341 28 335 35 335 49 C335 59 336 65 343 84 L411 288 C423 321 428 346 428 364 C428 401 394 431 352 431 C302 431 258 395 192 298 C209 356 209 358 209 385 C209 413 190 431 160 431 C118 431 78 390 39 306 L63 300 C89 353 118 387 137 387 C147 387 153 378 153 364 C153 350 149 333 132 282 L43 0 L118 0 Z M299 483 L441 596 L450 604 C452 606 454 608 455 610 L458 615 L456 618 C454 621 449 623 446 623 C442 623 430 618 423 614 L313 548 L242 615 C239 617 227 623 224 623 C217 623 204 615 204 610 C204 608 205 607 213 596 L299 483 Z " />
<glyph glyph-name="napostrophe" unicode="&#x149;" horiz-adv-x="613" d="M104 442 L103 442 C110 433 111 432 117 432 C138 432 186 456 213 481 C244 510 267 560 267 599 C267 646 241 679 204 679 C176 679 150 654 150 627 C150 609 165 588 181 583 C207 575 207 575 207 557 C207 531 196 506 175 487 C160 472 140 458 128 454 C116 451 108 447 107 445 L104 442 Z M258 0 L314 176 C336 247 350 279 371 313 C406 367 441 398 469 398 C486 398 496 387 496 369 C496 353 490 328 479 295 L418 116 C404 75 399 53 399 37 C399 8 424 -13 457 -13 C509 -13 560 28 598 101 L573 113 C544 55 518 28 492 28 C481 28 475 35 475 50 C475 60 476 63 483 84 L551 288 C563 322 568 346 568 364 C568 401 534 431 492 431 C441 431 398 395 332 298 C347 350 349 360 349 385 C349 413 330 431 300 431 C258 431 218 390 179 306 L203 300 C229 353 258 387 277 387 C287 387 293 378 293 364 C293 350 289 335 272 282 L183 0 L258 0 Z " />
<glyph glyph-name="Eng" unicode="&#x14a;" horiz-adv-x="773" d="M182 659 L175 638 L201 638 C242 638 257 628 257 599 C257 588 254 575 247 553 L106 102 C86 28 81 23 25 21 L-2 21 L-9 0 L261 0 L268 21 L243 21 C203 21 188 31 188 60 C188 70 192 90 197 106 L307 456 C314 478 341 528 357 550 C407 616 467 649 536 649 C622 649 675 605 675 534 C675 514 672 495 664 470 L516 1 C480 -112 436 -165 377 -165 C346 -165 326 -150 320 -124 C314 -93 314 -93 309 -86 C303 -77 289 -70 277 -70 C256 -70 237 -87 237 -107 C237 -149 305 -187 380 -187 C495 -187 568 -119 616 33 L744 441 C756 478 761 504 761 528 C761 618 680 679 559 679 C476 679 426 656 347 582 L371 659 L182 659 Z " />
<glyph glyph-name="eng" unicode="&#x14b;" horiz-adv-x="452" d="M117 0 L173 176 C195 245 210 279 231 313 C266 368 301 398 329 398 C347 398 356 387 356 366 C356 351 354 345 339 295 L223 -73 C173 -233 154 -267 115 -267 C98 -267 88 -259 88 -246 C88 -242 90 -236 95 -228 C101 -217 104 -211 104 -206 C104 -194 89 -181 74 -181 C53 -181 34 -200 34 -221 C34 -255 68 -282 112 -282 C157 -282 204 -254 238 -204 C263 -169 278 -136 300 -66 L414 299 C425 331 428 348 428 364 C428 401 394 431 352 431 C301 431 258 395 192 298 C208 356 209 359 209 385 C209 413 190 431 160 431 C118 431 78 390 39 306 L63 300 C88 352 118 387 137 387 C147 387 153 378 153 364 C153 350 150 337 132 282 L43 0 L117 0 Z " />
<glyph glyph-name="Omacron" unicode="&#x14c;" horiz-adv-x="629" d="M320 792 L308 752 L602 752 L614 792 L320 792 Z M428 679 C253 679 83 465 83 245 C83 150 120 63 182 16 C211 -7 252 -20 294 -20 C373 -20 450 20 515 96 C590 183 637 303 637 407 C637 564 548 679 428 679 L428 679 Z M431 653 C503 653 538 597 538 479 C538 399 514 280 482 200 C432 74 370 10 297 10 C225 10 181 75 181 185 C181 313 242 504 307 583 C347 631 386 653 431 653 L431 653 Z " />
<glyph glyph-name="omacron" unicode="&#x14d;" horiz-adv-x="393" d="M176 563 L165 526 L404 526 L415 563 L176 563 Z M258 432 C146 432 40 289 40 137 C40 46 82 -13 148 -13 C261 -13 368 135 368 293 C368 375 323 432 258 432 L258 432 Z M259 404 C288 404 305 382 305 345 C305 297 285 204 261 145 C224 53 190 13 150 13 C119 13 104 37 104 83 C104 133 122 207 153 286 C187 370 218 404 259 404 L259 404 Z " />
<glyph glyph-name="Obreve" unicode="&#x14e;" horiz-adv-x="629" d="M428 679 C253 679 83 465 83 245 C83 150 120 63 182 16 C211 -7 252 -20 294 -20 C373 -20 450 20 515 96 C590 183 637 303 637 407 C637 564 548 679 428 679 L428 679 Z M431 653 C503 653 538 597 538 479 C538 399 514 280 482 200 C432 74 370 10 297 10 C225 10 181 75 181 185 C181 313 242 504 307 583 C347 631 386 653 431 653 L431 653 Z M327 839 C326 831 325 823 325 820 C325 767 370 731 437 731 C511 731 572 772 597 839 L574 839 C552 799 520 785 452 785 C384 785 354 801 350 839 L327 839 Z " />
<glyph glyph-name="obreve" unicode="&#x14f;" horiz-adv-x="393" d="M258 432 C146 432 40 289 40 137 C40 46 82 -13 148 -13 C261 -13 368 135 368 293 C368 375 323 432 258 432 L258 432 Z M259 404 C288 404 305 382 305 345 C305 297 285 204 261 145 C224 53 190 13 150 13 C119 13 104 37 104 83 C104 133 122 207 153 286 C187 370 218 404 259 404 L259 404 Z M191 618 L190 599 C190 545 235 509 302 509 C376 509 436 550 461 618 L438 618 C417 577 384 563 316 563 C248 563 219 579 214 618 L191 618 Z " />
<glyph glyph-name="Ohungarumlaut" unicode="&#x150;" horiz-adv-x="629" d="M446 856 L362 728 L360 724 C363 722 365 722 367 722 C373 722 380 724 384 728 L530 848 L534 852 L535 853 L536 854 L535 854 C534 856 534 856 525 856 L446 856 Z M587 856 L503 728 L501 724 C504 722 505 722 508 722 C514 722 520 724 524 728 L670 848 L675 852 C677 853 677 854 677 854 L676 854 C675 856 675 856 665 856 L587 856 Z M428 679 C253 679 83 465 83 245 C83 150 120 63 182 16 C211 -7 252 -20 294 -20 C373 -20 450 20 515 96 C590 183 637 303 637 407 C637 564 548 679 428 679 L428 679 Z M431 653 C503 653 538 597 538 479 C538 399 514 280 482 200 C432 74 370 10 297 10 C225 10 181 75 181 185 C181 313 242 504 307 583 C347 631 386 653 431 653 L431 653 Z " />
<glyph glyph-name="ohungarumlaut" unicode="&#x151;" horiz-adv-x="393" d="M291 618 L210 496 L208 493 C211 491 213 491 215 491 C221 491 227 493 230 496 L370 611 L374 614 L375 616 L375 617 L375 616 L374 617 C374 617 373 617 373 618 L371 618 L365 618 L291 618 Z M425 618 L344 496 L342 493 C345 491 347 491 349 491 C355 491 361 493 364 496 L504 611 L508 614 L509 616 L509 617 L509 616 L508 617 C508 617 507 617 507 618 L505 618 L499 618 L425 618 Z M258 432 C146 432 40 289 40 137 C40 46 82 -13 148 -13 C261 -13 368 135 368 293 C368 375 323 432 258 432 L258 432 Z M259 404 C288 404 305 382 305 345 C305 297 285 204 261 145 C224 53 190 13 150 13 C119 13 104 37 104 83 C104 133 122 207 153 286 C187 370 218 404 259 404 L259 404 Z " />
<glyph glyph-name="OE" unicode="&#x152;" horiz-adv-x="937" d="M841 471 L813 471 C789 373 778 361 708 360 L625 360 L705 639 L818 639 C902 642 936 608 936 519 L960 519 L960 659 L630 659 L492 679 C384 679 289 642 218 573 C133 489 80 367 80 255 C80 97 186 -11 340 -11 C362 -11 390 -8 413 -3 C425 -1 438 1 438 0 L857 0 L907 174 L879 174 C867 134 854 106 835 81 C796 31 760 18 654 18 C554 18 541 22 541 53 C541 63 543 73 550 97 L618 333 L708 333 C743 333 759 323 759 300 C759 279 753 249 741 217 L768 217 L841 471 Z M464 112 C444 42 415 19 347 19 C240 19 179 94 179 224 C179 313 213 429 263 514 C321 611 396 653 513 653 C575 653 601 640 601 607 C601 596 598 578 593 561 L464 112 Z " />
<glyph glyph-name="oe" unicode="&#x153;" horiz-adv-x="564" d="M480 126 C438 57 397 20 361 20 C332 20 316 42 316 79 C316 106 320 122 334 160 L334 162 C482 238 569 318 569 379 C569 409 540 431 502 431 C456 431 413 409 358 358 C341 409 311 431 257 431 C208 431 163 408 125 363 C70 298 37 209 37 125 C37 41 80 -13 147 -13 C188 -13 221 2 263 41 C282 3 308 -13 348 -13 C404 -13 457 30 508 118 L480 126 Z M343 193 C385 325 443 408 493 408 C509 408 520 396 520 379 C520 341 478 283 417 238 C393 220 381 213 343 193 L343 193 Z M257 403 C287 403 304 383 304 349 C304 318 293 266 272 197 C232 63 200 16 152 16 C120 16 103 39 103 82 C103 138 118 206 144 273 C179 363 214 403 257 403 L257 403 Z " />
<glyph glyph-name="Racute" unicode="&#x154;" horiz-adv-x="645" d="M467 858 L380 727 L378 723 C382 721 383 721 386 721 C392 721 398 724 402 727 L552 850 L556 854 L557 855 L558 856 L557 856 C556 858 556 858 547 858 L467 858 Z M624 63 C604 39 586 28 563 28 C543 28 527 39 518 58 C511 75 507 92 499 151 C478 283 457 306 337 336 C410 336 410 336 444 344 C553 368 612 428 612 518 C612 605 545 662 442 662 L331 659 L176 659 L170 638 L181 638 C241 638 253 633 253 608 C253 598 250 580 245 564 L110 101 C95 40 78 23 30 21 L-3 21 L-9 0 L268 0 L274 21 L250 21 C212 21 192 35 193 62 C193 73 196 85 199 98 L269 336 L304 336 C388 332 401 311 407 157 C411 89 420 46 435 22 C449 0 480 -15 512 -15 C557 -15 600 7 636 48 L624 63 Z M275 354 L358 639 C377 641 384 641 392 641 C490 641 524 613 524 536 C524 467 494 406 446 378 C411 358 392 354 307 354 L275 354 Z " />
<glyph glyph-name="racute" unicode="&#x155;" horiz-adv-x="321" d="M126 0 L180 171 C223 306 259 377 284 377 C291 377 297 373 302 366 C317 344 318 343 327 343 C343 343 359 365 359 388 C359 417 340 438 315 438 C290 438 265 418 236 373 C212 335 207 326 181 260 C195 327 195 327 195 355 C195 404 176 431 142 431 C102 431 64 383 38 298 L66 298 C88 359 112 396 132 396 C142 396 147 387 147 370 C147 345 137 296 114 212 L56 0 L126 0 Z M311 619 L229 494 L227 491 C230 489 232 489 234 489 C239 489 246 491 250 495 L392 611 L396 615 L398 617 L397 617 C396 619 395 619 387 619 L311 619 Z " />
<glyph glyph-name="Rcommaaccent" unicode="&#x156;" horiz-adv-x="645" d="M211 -252 C288 -226 335 -175 335 -116 C335 -88 311 -67 280 -67 C248 -67 220 -91 220 -118 C220 -139 239 -155 263 -155 C269 -155 272 -155 276 -154 C280 -154 280 -154 284 -153 C286 -192 257 -227 209 -245 L211 -252 Z M624 63 C604 39 586 28 563 28 C543 28 527 39 518 58 C511 75 507 92 499 151 C478 283 457 306 337 336 C410 336 410 336 444 344 C553 368 612 428 612 518 C612 605 545 662 442 662 L331 659 L176 659 L170 638 L181 638 C241 638 253 633 253 608 C253 598 250 580 245 564 L110 101 C95 40 78 23 30 21 L-3 21 L-9 0 L268 0 L274 21 L250 21 C212 21 192 35 193 62 C193 73 196 85 199 98 L269 336 L304 336 C388 332 401 311 407 157 C411 89 420 46 435 22 C449 0 480 -15 512 -15 C557 -15 600 7 636 48 L624 63 Z M275 354 L358 639 C377 641 384 641 392 641 C490 641 524 613 524 536 C524 467 494 406 446 378 C411 358 392 354 307 354 L275 354 Z " />
<glyph glyph-name="rcommaaccent" unicode="&#x157;" horiz-adv-x="321" d="M126 0 L180 171 C222 305 259 377 284 377 C290 377 297 373 301 366 C316 344 318 343 327 343 C343 343 359 365 359 388 C359 417 340 438 315 438 C290 438 266 418 236 373 C212 335 207 326 181 260 C194 326 194 327 194 355 C194 404 175 431 141 431 C101 431 65 383 38 298 L66 298 C86 358 112 396 131 396 C141 396 146 387 146 370 C146 345 134 287 114 212 L56 0 L126 0 Z M9 -235 C77 -214 120 -169 120 -119 C120 -96 98 -77 70 -77 C42 -77 16 -97 16 -119 C16 -136 35 -152 55 -152 C60 -152 66 -151 74 -150 C77 -184 51 -215 8 -230 L9 -235 Z " />
<glyph glyph-name="Rcaron" unicode="&#x158;" horiz-adv-x="645" d="M414 714 L563 833 C572 841 581 850 581 853 L580 854 C576 860 573 862 568 862 C564 862 552 857 544 852 L428 782 L354 853 C350 856 338 862 334 862 C327 862 314 853 314 848 C314 846 317 841 323 833 L414 714 Z M624 63 C604 39 586 28 563 28 C543 28 527 39 518 58 C511 75 507 92 499 151 C478 283 457 306 337 336 C410 336 410 336 444 344 C553 368 612 428 612 518 C612 605 545 662 442 662 L331 659 L176 659 L170 638 L181 638 C241 638 253 633 253 608 C253 598 250 580 245 564 L110 101 C95 40 78 23 30 21 L-3 21 L-9 0 L268 0 L274 21 L250 21 C212 21 192 35 193 62 C193 73 196 85 199 98 L269 336 L304 336 C388 332 401 311 407 157 C411 89 420 46 435 22 C449 0 480 -15 512 -15 C557 -15 600 7 636 48 L624 63 Z M275 354 L358 639 C377 641 384 641 392 641 C490 641 524 613 524 536 C524 467 494 406 446 378 C411 358 392 354 307 354 L275 354 Z " />
<glyph glyph-name="rcaron" unicode="&#x159;" horiz-adv-x="321" d="M126 0 L180 171 C223 306 259 377 284 377 C291 377 297 373 302 366 C317 344 318 343 327 343 C343 343 359 365 359 388 C359 417 340 438 315 438 C290 438 265 418 236 373 C212 335 207 326 181 260 C195 327 195 327 195 355 C195 404 176 431 142 431 C102 431 64 383 38 298 L66 298 C88 359 112 396 132 396 C142 396 147 387 147 370 C147 345 137 296 114 212 L56 0 L126 0 Z M223 483 L365 596 C375 605 383 612 383 614 C383 615 383 615 382 615 C378 621 375 623 370 623 C367 623 354 618 348 614 L237 548 L166 615 C163 617 151 623 148 623 C141 623 128 615 128 610 C128 608 129 607 137 596 L223 483 Z " />
<glyph glyph-name="Sacute" unicode="&#x15a;" horiz-adv-x="508" d="M550 663 L522 663 L494 609 C466 654 416 679 355 679 C253 679 168 593 168 490 C168 427 195 378 270 299 C346 220 367 183 367 132 C367 59 316 9 240 9 C149 9 86 81 86 186 C86 190 87 201 88 213 L63 213 L19 0 L52 0 L90 55 C129 4 179 -20 246 -20 C362 -20 452 64 452 171 C452 221 428 274 385 319 C291 419 291 419 269 450 C250 478 242 502 242 531 C242 605 287 653 355 653 C411 653 455 623 475 569 C485 544 489 516 489 468 L517 468 L550 663 Z M437 858 L351 727 L349 723 C352 721 353 721 356 721 C362 721 369 724 373 727 L522 850 C525 852 526 853 526 854 L527 855 L528 856 L527 856 C526 858 526 858 517 858 L437 858 Z " />
<glyph glyph-name="sacute" unicode="&#x15b;" horiz-adv-x="293" d="M213 431 C141 431 84 384 84 323 C84 298 91 278 119 219 C177 101 177 100 177 74 C177 38 145 10 104 10 C71 10 62 19 60 51 C58 85 45 105 23 105 C6 105 -8 91 -8 74 C-8 28 43 -13 101 -13 C179 -13 243 44 243 113 C243 145 228 183 188 257 C161 305 151 332 151 355 C151 387 173 408 206 408 C230 408 246 396 248 375 C251 348 256 342 276 342 C294 342 310 356 310 373 C310 407 269 431 213 431 L213 431 Z M290 619 L208 494 L206 491 C209 489 211 489 213 489 C218 489 225 491 229 495 L371 611 L375 615 L377 617 L376 617 C375 619 374 619 366 619 L290 619 Z " />
<glyph glyph-name="Scircumflex" unicode="&#x15c;" horiz-adv-x="508" d="M550 663 L522 663 L494 609 C466 654 416 679 355 679 C253 679 168 593 168 490 C168 427 195 378 270 299 C346 220 367 183 367 132 C367 59 316 9 240 9 C149 9 86 81 86 186 C86 190 87 201 88 213 L63 213 L19 0 L52 0 L90 55 C129 4 179 -20 246 -20 C362 -20 452 64 452 171 C452 221 428 274 385 319 C291 419 291 419 269 450 C250 478 242 502 242 531 C242 605 287 653 355 653 C411 653 455 623 475 569 C485 544 489 516 489 468 L517 468 L550 663 Z M430 866 L275 742 C270 738 267 735 265 732 C264 731 264 731 264 730 C264 726 271 720 276 720 C280 720 283 721 293 727 L416 798 L497 727 C502 723 508 720 511 720 C516 720 524 725 527 729 C528 732 529 734 530 734 C531 734 531 734 531 735 C531 735 529 738 526 742 L430 866 Z " />
<glyph glyph-name="scircumflex" unicode="&#x15d;" horiz-adv-x="293" d="M213 431 C141 431 84 384 84 323 C84 298 91 278 119 219 C177 101 177 100 177 74 C177 38 145 10 104 10 C71 10 62 19 60 51 C58 85 45 105 23 105 C6 105 -8 91 -8 74 C-8 28 43 -13 101 -13 C179 -13 243 44 243 113 C243 145 228 183 188 257 C161 305 151 332 151 355 C151 387 173 408 206 408 C230 408 246 396 248 375 C251 348 256 342 276 342 C294 342 310 356 310 373 C310 407 269 431 213 431 L213 431 Z M262 627 L114 509 C110 506 107 503 107 502 L104 499 L103 498 L104 496 C108 489 110 488 115 488 C118 488 119 488 131 495 L249 563 L326 495 C330 491 336 488 339 488 C344 488 352 493 354 497 C355 500 356 501 357 502 L358 502 L357 504 L353 509 L262 627 Z " />
<glyph glyph-name="Scedilla" unicode="&#x15e;" horiz-adv-x="508" d="M237 -20 C273 -20 296 -17 325 -6 C401 21 452 93 452 171 C452 221 428 274 385 319 C291 419 291 419 269 450 C250 478 242 502 242 531 C242 605 287 653 355 653 C411 653 455 623 475 569 C485 544 489 516 489 468 L517 468 L550 663 L522 663 L494 609 C466 654 416 679 355 679 C253 679 168 593 168 490 C168 427 195 378 270 299 C346 220 367 183 367 132 C367 59 316 9 240 9 C149 9 86 81 86 186 C86 190 87 201 88 213 L63 213 L19 0 L52 0 L90 55 C120 14 161 -10 216 -18 L182 -82 C224 -91 240 -104 240 -133 C240 -165 207 -189 164 -189 C148 -189 133 -186 107 -177 L93 -195 C120 -208 146 -214 173 -214 C239 -214 296 -175 296 -130 C296 -104 276 -81 247 -73 C237 -70 229 -69 213 -66 L237 -20 Z " />
<glyph glyph-name="scedilla" unicode="&#x15f;" horiz-adv-x="293" d="M97 -13 C181 -12 243 42 243 113 C243 145 228 184 187 257 C160 305 150 331 150 354 C150 387 172 408 206 408 C229 408 245 396 248 375 C251 348 256 342 275 342 C294 342 310 356 310 373 C310 407 269 431 211 431 C140 431 83 383 83 324 C83 298 89 279 119 219 C177 100 177 100 177 74 C177 38 145 10 104 10 C71 10 62 19 60 51 C58 85 45 105 23 105 C6 105 -8 91 -8 74 C-8 52 8 24 30 8 C44 -2 49 -4 78 -12 L43 -78 C83 -86 98 -99 98 -126 C98 -157 67 -180 25 -180 C10 -180 -3 -177 -29 -169 L-42 -186 C-16 -198 8 -204 34 -204 C97 -204 151 -167 151 -124 C151 -94 127 -73 85 -66 L79 -65 L71 -63 L97 -13 Z " />
<glyph glyph-name="Scaron" unicode="&#x160;" horiz-adv-x="508" d="M550 663 L522 663 L494 609 C466 654 416 679 355 679 C253 679 168 593 168 490 C168 427 195 378 270 299 C346 220 367 183 367 132 C367 59 316 9 240 9 C149 9 86 81 86 186 C86 190 87 201 88 213 L63 213 L19 0 L52 0 L90 55 C129 4 179 -20 246 -20 C362 -20 452 64 452 171 C452 221 428 274 385 319 C291 419 291 419 269 450 C250 478 242 502 242 531 C242 605 287 653 355 653 C411 653 455 623 475 569 C485 544 489 516 489 468 L517 468 L550 663 Z M382 714 L531 833 C541 841 549 850 549 853 L548 854 C544 860 541 862 536 862 C532 862 520 857 512 852 L396 782 L322 853 C318 856 306 862 302 862 C295 862 282 853 282 848 C282 846 284 842 291 833 L382 714 Z " />
<glyph glyph-name="scaron" unicode="&#x161;" horiz-adv-x="293" d="M213 431 C141 431 84 384 84 323 C84 298 91 278 119 219 C177 101 177 100 177 74 C177 38 145 10 104 10 C71 10 62 19 60 51 C58 85 45 105 23 105 C6 105 -8 91 -8 74 C-8 28 43 -13 101 -13 C179 -13 243 44 243 113 C243 145 228 183 188 257 C161 305 151 332 151 355 C151 387 173 408 206 408 C230 408 246 396 248 375 C251 348 256 342 276 342 C294 342 310 356 310 373 C310 407 269 431 213 431 L213 431 Z M222 483 L364 596 C370 601 373 604 374 604 L379 610 L382 615 L379 618 C378 621 373 623 369 623 C366 623 353 618 346 614 L236 548 L165 615 C162 618 150 623 147 623 C139 623 127 615 127 610 C127 608 127 607 136 596 L222 483 Z " />
<glyph glyph-name="Tcommaaccent" unicode="&#x162;" horiz-adv-x="606" d="M713 659 L169 659 L115 511 L140 511 C174 600 217 635 296 634 L383 634 L216 105 C199 36 185 23 121 21 L90 21 L83 0 L394 0 L401 21 L375 21 C322 21 299 34 299 65 C299 75 301 90 305 100 L473 634 L573 634 C631 634 651 619 651 575 C651 558 648 542 639 511 L666 511 L713 659 Z M151 -252 C228 -226 276 -175 276 -116 C276 -88 252 -67 220 -67 C189 -67 160 -91 160 -118 C160 -139 179 -155 204 -155 C210 -155 212 -155 217 -154 L219 -154 L225 -153 C226 -192 197 -227 150 -245 L151 -252 Z " />
<glyph glyph-name="tcommaaccent" unicode="&#x163;" horiz-adv-x="280" d="M290 410 L221 410 L267 555 L193 555 L147 411 L81 411 L73 386 L139 386 L51 106 C40 71 37 57 37 43 C37 10 65 -13 104 -13 C162 -13 210 31 253 123 L226 137 C193 61 163 24 133 24 C118 24 112 32 112 51 C112 60 113 67 118 82 L214 386 L283 386 L290 410 Z M9 -235 C77 -214 120 -169 120 -119 C120 -96 98 -77 70 -77 C42 -77 16 -97 16 -119 C16 -136 35 -152 55 -152 C60 -152 66 -151 74 -150 C77 -184 51 -215 8 -230 L9 -235 Z " />
<glyph glyph-name="Tcaron" unicode="&#x164;" horiz-adv-x="606" d="M713 659 L169 659 L115 511 L140 511 C174 600 217 635 296 634 L383 634 L216 105 C199 36 185 23 121 21 L90 21 L83 0 L394 0 L401 21 L375 21 C322 21 299 34 299 65 C299 75 301 90 305 100 L473 634 L573 634 C631 634 651 619 651 575 C651 558 648 542 639 511 L666 511 L713 659 Z M452 714 L601 833 C611 842 619 850 619 853 L618 854 C614 860 611 862 606 862 C602 862 590 857 582 852 L466 782 L392 853 C388 856 376 862 372 862 C365 862 352 853 352 848 C352 846 355 840 361 833 L452 714 Z " />
<glyph glyph-name="tcaron" unicode="&#x165;" horiz-adv-x="320" d="M290 410 L220 410 L267 555 L192 555 L147 411 L80 411 L72 386 L139 386 L51 106 C41 74 37 57 37 43 C37 10 65 -13 104 -13 C161 -13 209 31 253 123 L226 137 C194 63 163 24 133 24 C118 24 112 32 112 51 C112 60 114 70 118 82 L214 386 L282 386 L290 410 Z M333 510 C401 532 444 576 444 626 C444 649 422 668 393 668 C365 668 339 648 339 627 C339 610 358 594 379 594 C385 594 386 594 391 595 L393 595 L398 595 C401 561 375 530 332 515 L333 510 Z " />
<glyph glyph-name="Tbar" unicode="&#x166;" horiz-adv-x="606" d="M386 357 L473 634 L573 634 C631 634 651 619 651 575 C651 558 648 542 639 511 L666 511 L713 659 L169 659 L115 511 L140 511 C174 600 217 635 296 634 L383 634 L296 357 L203 357 L194 328 L287 328 L216 105 C199 36 185 23 121 21 L90 21 L83 0 L394 0 L401 21 L375 21 C322 21 299 34 299 65 C299 75 301 89 305 100 L377 328 L463 328 L472 357 L386 357 Z " />
<glyph glyph-name="tbar" unicode="&#x167;" horiz-adv-x="280" d="M182 285 L257 285 L265 309 L189 309 L214 386 L282 386 L290 410 L220 410 L267 555 L192 555 L147 411 L80 411 L72 386 L139 386 L115 310 L55 310 L47 285 L107 285 L51 106 C41 74 37 57 37 43 C37 10 65 -13 104 -13 C161 -13 209 31 253 123 L226 136 C195 63 163 24 133 24 C118 24 112 32 112 51 C112 60 114 70 118 82 L182 285 Z " />
<glyph glyph-name="Utilde" unicode="&#x168;" horiz-adv-x="730" d="M844 659 L630 659 L623 638 L631 638 C694 638 705 634 705 612 C705 600 702 582 697 567 L583 204 C558 125 534 83 498 52 C465 24 422 10 371 10 C272 10 213 54 213 126 C213 146 217 168 223 189 L344 571 C360 627 373 638 422 638 L448 638 L455 659 L183 659 L176 638 L208 638 C244 638 258 628 258 599 C258 588 255 575 248 553 L143 218 C131 180 126 156 126 131 C126 90 144 55 176 32 C223 -2 288 -20 359 -20 C427 -20 481 -3 525 31 C569 65 596 112 622 194 L741 570 C757 626 768 637 813 638 L838 638 L844 659 Z M714 824 C687 800 672 793 650 793 C636 793 619 797 597 806 C557 822 554 823 538 823 C505 823 468 798 426 747 L438 740 C465 766 482 775 501 775 C512 775 532 770 563 760 C601 747 604 746 615 746 C646 746 685 772 723 817 L714 824 Z " />
<glyph glyph-name="utilde" unicode="&#x169;" horiz-adv-x="466" d="M444 418 L370 418 L328 284 C279 129 208 22 153 22 C139 22 131 32 131 49 C131 60 133 73 139 91 L207 307 C219 343 223 363 223 380 C223 412 204 431 171 431 C124 431 77 387 48 317 L75 310 C97 365 119 393 139 393 C147 393 151 388 151 375 C151 368 150 360 146 350 L67 100 C61 80 58 63 58 49 C58 14 86 -13 123 -13 C160 -13 198 9 237 51 C252 68 255 73 281 109 C272 66 272 66 272 50 C272 12 293 -13 324 -13 C364 -13 406 27 444 100 L421 111 C393 53 367 21 347 21 C338 21 332 29 332 41 C332 50 335 67 338 78 L444 418 Z M446 587 C423 564 411 558 392 558 C380 558 364 562 345 571 C311 586 309 587 296 587 C267 587 235 562 200 514 L210 508 C232 533 247 542 264 542 C274 542 291 537 317 527 C351 515 353 514 361 514 C387 514 421 538 454 581 L446 587 Z " />
<glyph glyph-name="Umacron" unicode="&#x16a;" horiz-adv-x="730" d="M844 659 L630 659 L623 638 L631 638 C694 638 705 634 705 612 C705 600 702 582 697 567 L583 204 C558 125 534 83 498 52 C465 24 422 10 371 10 C272 10 213 54 213 126 C213 146 217 168 223 189 L344 571 C360 627 373 638 422 638 L448 638 L455 659 L183 659 L176 638 L208 638 C244 638 258 628 258 599 C258 588 255 575 248 553 L143 218 C131 180 126 156 126 131 C126 90 144 55 176 32 C223 -2 288 -20 359 -20 C427 -20 481 -3 525 31 C569 65 596 112 622 194 L741 570 C757 626 768 637 813 638 L838 638 L844 659 Z M417 792 L405 752 L700 752 L712 792 L417 792 Z " />
<glyph glyph-name="umacron" unicode="&#x16b;" horiz-adv-x="466" d="M444 418 L370 418 L328 284 C279 129 208 22 153 22 C139 22 131 32 131 49 C131 60 133 73 139 91 L207 307 C219 343 223 363 223 380 C223 412 204 431 171 431 C124 431 77 387 48 317 L75 310 C97 365 119 393 139 393 C147 393 151 388 151 375 C151 368 150 360 146 350 L67 100 C61 80 58 63 58 49 C58 14 86 -13 123 -13 C160 -13 198 9 237 51 C252 68 255 73 281 109 C272 66 272 66 272 50 C272 12 293 -13 324 -13 C364 -13 406 27 444 100 L421 111 C393 53 367 21 347 21 C338 21 332 29 332 41 C332 50 335 67 338 78 L444 418 Z M213 563 L202 526 L440 526 L451 563 L213 563 Z " />
<glyph glyph-name="Ubreve" unicode="&#x16c;" horiz-adv-x="730" d="M844 659 L630 659 L623 638 L631 638 C694 638 705 634 705 612 C705 600 702 582 697 567 L583 204 C558 125 534 83 498 52 C465 24 422 10 371 10 C272 10 213 54 213 126 C213 146 217 168 223 189 L344 571 C360 627 373 638 422 638 L448 638 L455 659 L183 659 L176 638 L208 638 C244 638 258 628 258 599 C258 588 255 575 248 553 L143 218 C131 180 126 156 126 131 C126 90 144 55 176 32 C223 -2 288 -20 359 -20 C427 -20 481 -3 525 31 C569 65 596 112 622 194 L741 570 C757 626 768 637 813 638 L838 638 L844 659 Z M444 839 C443 831 442 823 442 820 C442 767 487 731 554 731 C628 731 689 772 714 839 L691 839 C670 799 637 785 569 785 C501 785 472 801 467 839 L444 839 Z " />
<glyph glyph-name="ubreve" unicode="&#x16d;" horiz-adv-x="466" d="M444 418 L370 418 L328 284 C279 129 208 22 153 22 C139 22 131 32 131 49 C131 60 133 73 139 91 L207 307 C219 343 223 363 223 380 C223 412 204 431 171 431 C124 431 77 387 48 317 L75 310 C97 365 119 393 139 393 C147 393 151 388 151 375 C151 368 150 360 146 350 L67 100 C61 80 58 63 58 49 C58 14 86 -13 123 -13 C160 -13 198 9 237 51 C252 68 255 73 281 109 C272 66 272 66 272 50 C272 12 293 -13 324 -13 C364 -13 406 27 444 100 L421 111 C393 53 367 21 347 21 C338 21 332 29 332 41 C332 50 335 67 338 78 L444 418 Z M223 601 C222 594 221 586 221 583 C221 533 260 499 316 499 C380 499 432 538 453 601 L434 601 C416 563 388 550 329 550 C271 550 246 565 242 601 L223 601 Z " />
<glyph glyph-name="Uring" unicode="&#x16e;" horiz-adv-x="730" d="M844 659 L630 659 L623 638 L631 638 C694 638 705 634 705 612 C705 600 702 582 697 567 L583 204 C558 125 534 83 498 52 C465 24 422 10 371 10 C272 10 213 54 213 126 C213 146 217 168 223 189 L344 571 C360 627 373 638 422 638 L448 638 L455 659 L183 659 L176 638 L208 638 C244 638 258 628 258 599 C258 588 255 575 248 553 L143 218 C131 180 126 156 126 131 C126 90 144 55 176 32 C223 -2 288 -20 359 -20 C427 -20 481 -3 525 31 C569 65 596 112 622 194 L741 570 C757 626 768 637 813 638 L838 638 L844 659 Z M552 884 C504 884 463 845 463 800 C463 754 503 715 551 715 C597 715 638 754 638 800 C638 844 597 884 552 884 L552 884 Z M551 853 C579 853 600 830 600 800 C600 769 579 746 551 746 C522 746 501 769 501 800 C501 831 522 853 551 853 L551 853 Z " />
<glyph glyph-name="uring" unicode="&#x16f;" horiz-adv-x="466" d="M444 418 L370 418 L328 284 C279 129 208 22 153 22 C139 22 131 32 131 49 C131 60 133 73 139 91 L207 307 C219 343 223 363 223 380 C223 412 204 431 171 431 C124 431 77 387 48 317 L75 310 C97 365 119 393 139 393 C147 393 151 388 151 375 C151 368 150 360 146 350 L67 100 C61 80 58 63 58 49 C58 14 86 -13 123 -13 C160 -13 198 9 237 51 C252 68 255 73 281 109 C272 66 272 66 272 50 C272 12 293 -13 324 -13 C364 -13 406 27 444 100 L421 111 C393 53 367 21 347 21 C338 21 332 29 332 41 C332 50 335 67 338 78 L444 418 Z M321 644 C275 644 236 607 236 565 C236 521 275 484 320 484 C364 484 403 521 403 564 C403 606 364 644 321 644 L321 644 Z M320 615 C347 615 367 593 367 564 C367 535 347 513 320 513 C292 513 272 535 272 564 C272 594 292 615 320 615 L320 615 Z " />
<glyph glyph-name="Uhungarumlaut" unicode="&#x170;" horiz-adv-x="730" d="M844 659 L630 659 L623 638 L631 638 C694 638 705 634 705 612 C705 600 702 582 697 567 L583 204 C558 125 534 83 498 52 C465 24 422 10 371 10 C272 10 213 54 213 126 C213 146 217 168 223 189 L344 571 C360 627 373 638 422 638 L448 638 L455 659 L183 659 L176 638 L208 638 C244 638 258 628 258 599 C258 588 255 575 248 553 L143 218 C131 180 126 156 126 131 C126 90 144 55 176 32 C223 -2 288 -20 359 -20 C427 -20 481 -3 525 31 C569 65 596 112 622 194 L741 570 C757 626 768 637 813 638 L838 638 L844 659 Z M532 856 L448 728 L446 724 C449 722 451 722 453 722 C459 722 465 724 469 728 L615 848 L620 852 L621 853 L622 854 L621 854 C620 856 619 856 611 856 L532 856 Z M673 856 L588 728 L587 724 C590 722 591 722 594 722 C599 722 606 724 610 728 L756 848 C761 852 762 853 762 854 L761 854 L760 855 C760 855 760 856 759 856 L751 856 L673 856 Z " />
<glyph glyph-name="uhungarumlaut" unicode="&#x171;" horiz-adv-x="466" d="M444 418 L370 418 L328 284 C279 129 208 22 153 22 C139 22 131 32 131 49 C131 60 133 73 139 91 L207 307 C219 343 223 363 223 380 C223 412 204 431 171 431 C124 431 77 387 48 317 L75 310 C97 365 119 393 139 393 C147 393 151 388 151 375 C151 368 150 360 146 350 L67 100 C61 80 58 63 58 49 C58 14 86 -13 123 -13 C160 -13 198 9 237 51 C252 68 255 73 281 109 C272 66 272 66 272 50 C272 12 293 -13 324 -13 C364 -13 406 27 444 100 L421 111 C393 53 367 21 347 21 C338 21 332 29 332 41 C332 50 335 67 338 78 L444 418 Z M308 618 L227 496 L226 493 C229 491 230 491 233 491 C238 491 244 493 248 496 L387 611 L391 614 L393 616 L393 617 L392 616 L391 617 L390 618 L389 618 L382 618 L308 618 Z M442 618 L361 496 L360 493 C363 491 364 491 367 491 C372 491 378 493 382 496 L521 611 L525 614 L527 616 L527 617 L526 616 L525 617 L524 618 L523 618 L516 618 L442 618 Z " />
<glyph glyph-name="Uogonek" unicode="&#x172;" horiz-adv-x="730" d="M482 -103 C467 -110 457 -112 445 -112 C423 -112 409 -98 409 -77 C409 -46 430 -24 489 8 C556 45 588 89 622 194 L741 570 C757 626 768 637 813 638 L838 638 L844 659 L630 659 L623 638 L631 638 C694 638 705 634 705 612 C705 600 702 582 697 567 L583 204 C558 125 534 83 498 52 C465 24 422 10 371 10 C272 10 213 54 213 126 C213 146 217 168 223 189 L344 571 C360 627 373 638 422 638 L448 638 L455 659 L183 659 L176 638 L208 638 C244 638 258 628 258 599 C258 588 255 575 248 553 L143 218 C131 180 126 156 126 131 C126 90 144 55 176 32 C223 -1 288 -20 359 -20 C381 -20 381 -20 427 -15 C400 -31 400 -31 397 -33 C365 -54 345 -79 345 -101 C345 -126 371 -147 402 -147 C427 -147 454 -138 477 -121 L476 -122 L482 -103 Z " />
<glyph glyph-name="uogonek" unicode="&#x173;" horiz-adv-x="466" d="M394 -101 C379 -107 369 -109 358 -109 C336 -109 323 -95 323 -73 C323 -53 340 -20 359 -5 C401 28 416 46 444 100 L421 111 C393 52 367 20 347 20 C338 20 332 28 332 40 C332 50 335 67 338 78 L444 418 L370 418 L328 284 C279 129 208 22 153 22 C139 22 131 32 131 49 C131 60 133 73 139 91 L207 307 C219 343 223 363 223 380 C223 412 204 431 171 431 C124 431 77 387 48 317 L75 310 C97 365 119 393 139 393 C147 393 151 388 151 375 C151 368 150 360 146 350 L67 100 C61 80 58 63 58 49 C58 14 86 -13 123 -13 C160 -13 198 9 237 51 C252 68 255 73 281 109 C272 66 272 66 272 50 C272 27 279 8 292 -3 C299 -8 303 -9 328 -16 C309 -29 308 -30 304 -32 C277 -52 261 -77 261 -98 C261 -123 286 -143 317 -143 C341 -143 366 -134 388 -117 L388 -119 L394 -101 Z " />
<glyph glyph-name="Wcircumflex" unicode="&#x174;" horiz-adv-x="890" d="M641 659 L597 659 L285 146 L307 576 C310 632 319 640 385 638 L395 638 L395 659 L135 659 L135 638 L144 638 C212 638 215 636 215 576 L215 559 L188 -28 L221 -28 L543 493 L517 -28 L550 -28 L918 556 C959 627 972 638 1021 638 L1042 638 L1042 659 L817 659 L817 638 L827 638 C880 638 880 638 890 631 C896 627 899 619 899 610 C899 598 895 587 880 563 L616 146 L641 659 Z M661 866 L505 742 C501 738 498 736 498 735 L495 732 C494 731 494 731 494 730 C494 727 502 720 506 720 C510 720 514 721 524 727 L647 798 L728 727 C732 723 738 720 742 720 C747 720 755 725 757 729 C759 732 760 734 761 734 L761 735 C761 735 760 738 757 742 L661 866 Z " />
<glyph glyph-name="wcircumflex" unicode="&#x175;" horiz-adv-x="665" d="M74 344 C77 369 85 381 98 381 C105 381 110 379 133 367 C146 361 152 359 160 359 C166 359 170 360 182 363 L193 365 C180 346 177 341 174 337 C99 233 99 233 90 217 C62 169 49 129 49 89 C49 29 90 -13 149 -13 C200 -13 249 17 310 86 C319 64 323 56 330 45 C352 9 388 -13 424 -13 C483 -13 544 34 589 114 C629 187 655 280 655 350 C655 404 638 439 612 439 C594 439 576 423 576 405 C576 397 579 385 584 372 C604 322 608 305 608 273 C608 161 520 30 446 30 C405 30 375 79 370 156 C439 238 485 329 485 382 C485 411 468 431 444 431 C377 431 302 294 302 170 C302 157 303 143 305 119 C249 55 208 27 172 27 C141 27 122 53 122 96 C122 163 155 254 222 368 C250 416 250 416 250 420 C250 428 238 437 227 437 C217 437 213 431 210 413 C207 396 201 387 191 387 C183 387 176 392 167 403 C142 433 129 443 114 443 C88 443 63 406 52 350 L74 344 Z M367 194 L368 197 L368 203 L368 216 C369 274 376 308 396 352 C410 382 424 398 438 398 C447 398 453 389 453 374 C453 332 430 282 375 204 L367 194 Z M474 627 L325 509 C322 506 319 504 318 502 L316 499 L315 498 L316 496 C320 489 322 488 327 488 C330 488 330 488 343 495 L460 563 L537 495 C542 491 547 488 551 488 C555 488 563 493 565 497 C567 500 568 501 569 502 L569 503 C569 503 568 505 565 509 L474 627 Z " />
<glyph glyph-name="Ycircumflex" unicode="&#x176;" horiz-adv-x="628" d="M778 659 L526 659 L521 638 L529 638 C578 638 578 638 588 634 C596 630 601 622 601 611 C601 598 596 589 581 573 L380 357 L314 570 C306 594 306 594 306 604 C306 617 313 629 323 634 C332 638 337 638 374 638 L384 638 L389 659 L131 659 L126 638 L153 638 C198 636 208 629 219 588 L308 317 L242 102 C221 31 210 21 146 21 L127 21 L121 0 L402 0 L408 21 L386 21 C338 21 324 31 324 62 C324 74 326 86 332 105 L399 336 L636 579 C684 629 709 641 761 638 L773 638 L778 659 Z M504 866 L348 742 C344 738 341 736 341 735 L338 732 L337 730 L341 723 C342 722 346 720 349 720 C353 720 356 721 367 727 L490 798 L571 727 C575 723 581 720 584 720 C589 720 597 725 600 729 C602 732 603 734 603 734 C604 734 604 734 604 735 C604 735 602 738 599 742 L504 866 Z " />
<glyph glyph-name="ycircumflex" unicode="&#x177;" horiz-adv-x="360" d="M54 284 C63 346 80 387 96 387 C104 387 111 376 115 358 C128 286 138 179 138 103 C138 -23 119 -93 68 -155 C33 -196 -13 -226 -42 -226 C-49 -226 -55 -225 -62 -222 C-95 -208 -95 -208 -108 -208 C-127 -208 -147 -223 -147 -239 C-147 -257 -122 -273 -93 -273 C-51 -273 3 -248 52 -206 C121 -148 186 -52 268 115 C326 231 349 300 349 357 C349 403 329 435 300 435 C284 435 270 421 270 405 C270 398 275 386 281 378 C306 347 306 347 306 328 C306 288 294 248 258 167 C233 110 224 95 197 55 C201 93 201 99 201 125 C201 332 174 431 119 431 C78 431 48 386 30 298 L54 284 Z M283 627 L134 509 C131 506 128 504 127 502 L125 499 L124 498 L125 496 C129 489 131 488 136 488 C139 488 139 488 152 495 L269 563 L346 495 C351 491 356 488 360 488 C364 488 372 493 374 497 C376 500 377 501 378 502 L378 503 C378 503 376 505 373 509 L283 627 Z " />
<glyph glyph-name="Ydieresis" unicode="&#x178;" horiz-adv-x="628" d="M778 659 L526 659 L521 638 L529 638 C578 638 578 638 588 634 C596 630 601 622 601 611 C601 598 596 589 581 573 L380 357 L314 570 C306 594 306 594 306 604 C306 617 313 629 323 634 C332 638 337 638 374 638 L384 638 L389 659 L131 659 L126 638 L153 638 C198 636 208 629 219 588 L308 317 L242 102 C221 31 210 21 146 21 L127 21 L121 0 L402 0 L408 21 L386 21 C338 21 324 31 324 62 C324 74 326 86 332 105 L399 336 L636 579 C684 629 709 641 761 638 L773 638 L778 659 Z M386 828 C357 828 331 804 331 778 C331 751 357 727 385 727 C413 727 439 751 439 778 C439 804 413 828 386 828 L386 828 Z M579 828 C550 828 524 804 524 778 C524 751 550 727 578 727 C606 727 632 751 632 778 C632 804 606 828 579 828 L579 828 Z " />
<glyph glyph-name="Zacute" unicode="&#x179;" horiz-adv-x="636" d="M676 659 L190 659 L139 498 L168 498 C209 598 256 633 351 633 L557 638 L28 9 L29 11 L25 0 L546 0 L600 182 L567 182 C525 75 464 29 360 26 L147 22 L674 653 L674 652 L676 659 Z M508 858 L422 727 L420 723 C423 721 424 721 427 721 C433 721 440 724 444 727 L593 850 L597 854 C598 854 598 854 598 855 L599 856 L598 856 C597 858 597 858 588 858 L508 858 Z " />
<glyph glyph-name="zacute" unicode="&#x17a;" horiz-adv-x="354" d="M87 323 C99 352 111 365 127 365 C136 365 154 361 173 354 C197 346 226 341 245 341 C254 341 256 341 286 347 L62 107 C6 48 -12 27 -12 20 C-12 12 1 0 9 0 C19 0 23 4 38 29 C52 54 70 68 88 68 C104 68 122 59 160 30 C187 9 205 0 220 0 C261 0 303 52 318 120 L293 127 C290 110 288 103 283 93 C276 79 259 67 246 68 C236 68 219 73 196 81 C176 89 144 95 129 95 C117 95 112 94 73 84 L264 283 C350 372 377 403 377 414 C377 421 365 431 356 431 C347 431 343 426 333 409 C318 383 295 365 276 365 C263 365 250 373 224 397 C198 421 179 431 159 431 C125 431 85 389 64 331 L87 323 Z M304 619 L222 494 L220 491 C223 489 224 489 226 489 C232 489 239 491 243 495 L385 611 L389 615 L391 617 L390 617 C389 619 388 619 380 619 L304 619 Z " />
<glyph glyph-name="Zdotaccent" unicode="&#x17b;" horiz-adv-x="636" d="M676 659 L190 659 L139 498 L168 498 C209 598 256 633 351 633 L557 638 L28 9 L29 11 L25 0 L546 0 L600 182 L567 182 C525 75 464 29 360 26 L147 22 L674 653 L674 652 L676 659 Z M456 828 C427 828 401 804 401 778 C401 751 427 727 455 727 C483 727 509 751 509 778 C509 804 483 828 456 828 L456 828 Z " />
<glyph glyph-name="zdotaccent" unicode="&#x17c;" horiz-adv-x="354" d="M87 323 C99 352 111 365 127 365 C136 365 154 361 173 354 C197 346 226 341 245 341 C254 341 256 341 286 347 L62 107 C6 48 -12 27 -12 20 C-12 12 1 0 9 0 C19 0 23 4 38 29 C52 54 70 68 88 68 C104 68 122 59 160 30 C187 9 205 0 220 0 C261 0 303 52 318 120 L293 127 C290 110 288 103 283 93 C276 79 259 67 246 68 C236 68 219 73 196 81 C176 89 144 95 129 95 C117 95 112 94 73 84 L264 283 C350 372 377 403 377 414 C377 421 365 431 356 431 C347 431 343 426 333 409 C318 383 295 365 276 365 C263 365 250 373 224 397 C198 421 179 431 159 431 C125 431 85 389 64 331 L87 323 Z M264 587 C239 587 216 566 216 543 C216 520 239 499 264 499 C288 499 311 520 311 543 C311 566 288 587 264 587 L264 587 Z " />
<glyph glyph-name="Zcaron" unicode="&#x17d;" horiz-adv-x="636" d="M676 659 L190 659 L139 498 L168 498 C209 598 256 633 351 633 L557 638 L28 9 L29 11 L25 0 L546 0 L600 182 L567 182 C525 75 464 29 360 26 L147 22 L674 653 L674 652 L676 659 Z M444 714 L593 833 C604 842 612 850 612 853 L611 854 C607 860 604 862 599 862 C595 862 582 857 575 852 L458 782 L384 853 C381 856 368 862 364 862 C357 862 344 853 344 848 C344 846 345 844 354 833 L444 714 Z " />
<glyph glyph-name="zcaron" unicode="&#x17e;" horiz-adv-x="354" d="M87 323 C99 352 111 365 127 365 C136 365 154 361 173 354 C197 346 226 341 245 341 C254 341 256 341 286 347 L62 107 C6 48 -12 27 -12 20 C-12 12 1 0 9 0 C19 0 23 4 38 29 C52 54 70 68 88 68 C104 68 122 59 160 30 C187 9 205 0 220 0 C261 0 303 52 318 120 L293 127 C290 110 288 103 283 93 C276 79 259 67 246 68 C236 68 219 73 196 81 C176 89 144 95 129 95 C117 95 112 94 73 84 L264 283 C350 372 377 403 377 414 C377 421 365 431 356 431 C347 431 343 426 333 409 C318 383 295 365 276 365 C263 365 250 373 224 397 C198 421 179 431 159 431 C125 431 85 389 64 331 L87 323 Z M253 483 L395 596 C404 603 412 612 412 614 C412 615 412 615 411 615 L409 618 C408 621 403 623 400 623 C396 623 384 618 377 614 L266 548 L196 615 C193 617 181 623 178 623 C171 623 158 615 158 610 C158 608 160 604 167 596 L253 483 Z " />
<glyph glyph-name="uni018F" unicode="&#x18f;" horiz-adv-x="781" d="M225 538 C311 609 380 639 457 639 C567 639 637 548 637 405 C637 393 636 382 635 370 C631 370 631 370 627 369 C578 366 517 364 470 364 C455 364 358 366 207 369 C190 370 143 370 90 371 C73 324 63 262 63 207 C63 63 146 -17 297 -17 C422 -17 537 32 614 118 C694 206 743 332 743 451 C743 599 660 678 505 678 C408 678 332 652 237 586 L225 538 Z M629 323 C619 268 599 215 571 166 C517 74 437 23 347 23 C239 23 169 115 169 255 C169 280 171 301 175 325 C250 329 303 331 361 331 C417 331 529 328 612 324 L620 324 L629 323 Z " />
<glyph glyph-name="florin" unicode="&#x192;" horiz-adv-x="503" d="M419 399 L318 399 L384 605 C399 650 413 667 436 667 C453 667 464 657 467 638 C471 613 471 613 475 608 C481 600 492 595 506 595 C528 595 547 610 547 629 C547 663 501 693 450 693 C404 693 365 673 338 635 C311 595 292 553 260 455 L242 399 L146 399 L138 376 L235 376 L90 -75 C74 -126 62 -141 40 -141 C20 -141 8 -132 4 -113 C-3 -79 -12 -70 -35 -70 C-57 -70 -76 -87 -76 -106 C-76 -139 -28 -168 26 -168 C66 -168 104 -151 125 -124 C154 -88 186 -15 224 104 L312 376 L412 376 L419 399 Z " />
<glyph glyph-name="uni01C4" unicode="&#x1c4;" horiz-adv-x="437" d="M305 454 C281 357 266 336 199 307 C127 274 92 248 65 208 C45 179 33 142 33 108 C33 29 93 -20 191 -20 C245 -20 294 -1 326 32 C346 53 359 79 359 99 C359 114 348 124 332 124 C305 124 282 102 275 69 C268 37 267 36 255 26 C242 16 225 11 204 11 C147 11 119 44 119 111 C119 168 134 212 165 248 C188 274 193 277 284 317 C326 335 331 345 352 454 L305 454 Z M366 673 C338 673 312 650 312 623 C312 597 337 573 366 573 C394 573 419 597 419 623 C419 649 394 673 366 673 L366 673 Z " />
<glyph glyph-name="uni01CD" unicode="&#x1cd;" horiz-adv-x="602" d="M493 714 L642 833 C652 841 660 850 660 853 L659 854 C655 860 652 862 647 862 C643 862 631 857 623 852 L507 782 L433 853 C429 856 417 862 413 862 C406 862 393 853 393 848 C393 846 395 843 402 833 L493 714 Z M508 674 L466 674 L74 105 C26 37 7 22 -37 21 L-52 21 L-59 0 L174 0 L181 21 L170 21 C118 21 101 29 101 55 C101 69 112 94 134 126 L212 242 L398 242 L389 94 C385 34 370 20 311 21 L297 21 L292 0 L537 0 L542 21 L524 21 C490 21 471 46 474 87 L475 95 L508 674 Z M399 266 L229 266 L415 538 L399 266 Z " />
<glyph glyph-name="uni01CE" unicode="&#x1ce;" horiz-adv-x="461" d="M328 483 L470 596 L479 604 L484 610 L487 615 L484 618 C483 621 478 623 475 623 C471 623 458 618 452 614 L341 548 L271 615 C267 618 256 623 252 623 C245 623 233 615 233 610 C233 608 236 604 242 596 L328 483 Z M425 107 C394 52 359 18 334 18 C323 18 317 26 317 41 C317 48 318 55 320 62 L430 418 L357 418 L351 399 C337 424 327 431 299 431 C245 431 189 399 137 339 C72 264 30 167 30 94 C30 30 65 -13 119 -13 C163 -13 200 8 255 68 L255 58 L254 52 L254 49 C254 14 280 -14 313 -14 C357 -14 404 25 446 97 L425 107 Z M299 409 C322 409 337 394 337 371 C337 342 310 258 267 158 C232 74 182 19 140 19 C116 19 103 40 103 80 C103 136 130 216 175 292 C224 373 262 409 299 409 L299 409 Z " />
<glyph glyph-name="uni01D1" unicode="&#x1d1;" horiz-adv-x="248" d="M228 425 L184 439 L37 65 C29 43 25 29 25 21 C25 0 52 -20 81 -20 C112 -20 123 -8 134 39 L228 425 Z M265 673 C236 673 211 650 211 623 C211 597 236 573 264 573 C292 573 317 597 317 623 C317 649 292 673 265 673 L265 673 Z " />
<glyph glyph-name="uni01D2" unicode="&#x1d2;" horiz-adv-x="393" d="M258 432 C146 432 40 289 40 137 C40 46 82 -13 148 -13 C261 -13 368 135 368 293 C368 375 323 432 258 432 L258 432 Z M259 404 C288 404 305 382 305 345 C305 297 285 204 261 145 C224 53 190 13 150 13 C119 13 104 37 104 83 C104 133 122 207 153 286 C187 370 218 404 259 404 L259 404 Z M272 483 L413 596 C419 601 422 603 423 604 L428 610 L431 615 C427 621 424 623 418 623 C415 623 402 618 396 614 L285 548 L214 615 C211 617 199 623 196 623 C189 623 177 615 177 610 C177 608 180 603 185 596 L272 483 Z " />
<glyph glyph-name="uni01D3" unicode="&#x1d3;" horiz-adv-x="730" d="M844 659 L630 659 L623 638 L631 638 C694 638 705 634 705 612 C705 600 702 582 697 567 L583 204 C558 125 534 83 498 52 C465 24 422 10 371 10 C272 10 213 54 213 126 C213 146 217 168 223 189 L344 571 C360 627 373 638 422 638 L448 638 L455 659 L183 659 L176 638 L208 638 C244 638 258 628 258 599 C258 588 255 575 248 553 L143 218 C131 180 126 156 126 131 C126 90 144 55 176 32 C223 -2 288 -20 359 -20 C427 -20 481 -3 525 31 C569 65 596 112 622 194 L741 570 C757 626 768 637 813 638 L838 638 L844 659 Z M541 714 L690 833 C700 842 708 850 708 853 L707 854 C703 860 700 862 695 862 C691 862 678 857 671 852 L554 782 L480 853 C477 856 465 862 461 862 C454 862 441 853 441 848 C441 846 445 840 450 833 L541 714 Z " />
<glyph glyph-name="uni01D4" unicode="&#x1d4;" horiz-adv-x="466" d="M444 418 L370 418 L328 284 C279 129 208 22 153 22 C139 22 131 32 131 49 C131 60 133 73 139 91 L207 307 C219 343 223 363 223 380 C223 412 204 431 171 431 C124 431 77 387 48 317 L75 310 C97 365 119 393 139 393 C147 393 151 388 151 375 C151 368 150 360 146 350 L67 100 C61 80 58 63 58 49 C58 14 86 -13 123 -13 C160 -13 198 9 237 51 C252 68 255 73 281 109 C272 66 272 66 272 50 C272 12 293 -13 324 -13 C364 -13 406 27 444 100 L421 111 C393 53 367 21 347 21 C338 21 332 29 332 41 C332 50 335 67 338 78 L444 418 Z M295 483 L437 596 C448 605 455 612 455 614 C455 615 455 615 454 615 C450 621 447 623 442 623 C439 623 426 618 419 614 L309 548 L238 615 C235 617 223 623 220 623 C213 623 200 615 200 610 C200 608 201 607 209 596 L295 483 Z " />
<glyph glyph-name="uni01DD" unicode="&#x1dd;" horiz-adv-x="393" d="M100 285 C137 363 175 402 215 402 C244 402 260 378 260 334 C260 312 255 281 248 259 L247 256 L246 250 C111 189 27 110 27 45 C27 13 55 -13 89 -13 C196 -13 328 172 328 321 C328 385 288 432 235 432 C173 432 118 386 73 299 L100 285 Z M236 222 C225 177 224 174 214 149 C180 63 139 14 101 14 C84 14 73 27 73 48 C73 77 95 117 126 147 C157 176 180 192 230 219 L236 222 Z " />
<glyph glyph-name="Gcaron" unicode="&#x1e6;" horiz-adv-x="683" d="M546 0 L588 170 C605 239 611 245 661 246 L682 246 L689 275 L430 275 L423 246 L441 246 C495 246 507 241 507 215 C507 205 506 198 499 178 L468 79 C425 31 381 10 322 10 C230 10 179 74 179 193 C179 285 207 394 255 486 C313 598 387 653 477 653 C569 653 622 592 622 486 C622 475 622 467 620 454 L647 454 L698 659 L668 659 L636 612 C602 656 546 679 469 679 C260 679 79 483 79 255 C79 92 176 -20 316 -20 C386 -20 445 3 497 51 L531 0 L546 0 Z M489 714 L638 833 C649 842 657 850 657 853 L656 854 C652 860 649 862 644 862 C640 862 627 857 620 852 L503 782 L429 853 C426 856 413 862 409 862 C402 862 389 853 389 848 C389 846 390 844 399 833 L489 714 Z " />
<glyph glyph-name="gcaron" unicode="&#x1e7;" horiz-adv-x="394" d="M273 483 L415 596 C420 601 424 604 425 604 L430 610 L433 615 L430 618 C429 621 424 623 420 623 C417 623 404 618 397 614 L287 548 L216 615 C213 617 201 623 198 623 C191 623 178 615 178 610 C178 608 179 607 187 596 L273 483 Z M319 398 C290 424 275 431 245 431 C155 431 71 338 71 238 C71 202 87 168 114 148 C119 145 119 145 137 132 C100 125 95 123 81 118 C41 101 15 69 15 39 C15 4 41 -18 103 -35 C169 -54 211 -67 229 -75 C267 -92 283 -112 283 -142 C283 -198 227 -238 147 -238 C62 -238 5 -201 5 -147 C5 -115 20 -94 57 -72 C58 -71 58 -71 59 -69 C51 -64 45 -62 29 -62 C-17 -62 -56 -100 -56 -145 C-56 -212 23 -261 129 -261 C247 -261 337 -194 337 -106 C337 -51 296 -17 205 3 C104 24 104 24 93 30 C78 38 72 47 72 63 C72 94 88 104 152 112 C212 120 247 130 274 148 C321 180 355 248 355 310 C355 336 351 349 331 385 C343 400 347 402 357 402 C367 402 371 400 379 390 C385 382 391 379 399 379 C414 379 429 392 429 406 C429 422 410 437 389 437 C366 437 349 428 319 398 L319 398 Z M247 413 C279 413 294 394 294 354 C294 324 282 264 268 227 C244 163 216 133 180 133 C150 133 133 157 133 199 C133 235 144 279 165 328 C191 390 213 413 247 413 L247 413 Z " />
<glyph glyph-name="uni01F4" unicode="&#x1f4;" horiz-adv-x="683" d="M546 0 L588 170 C605 239 611 245 661 246 L682 246 L689 275 L430 275 L423 246 L441 246 C495 246 507 241 507 215 C507 205 506 198 499 178 L468 79 C425 31 381 10 322 10 C230 10 179 74 179 193 C179 285 207 394 255 486 C313 598 387 653 477 653 C569 653 622 592 622 486 C622 475 622 467 620 454 L647 454 L698 659 L668 659 L636 612 C602 656 546 679 469 679 C260 679 79 483 79 255 C79 92 176 -20 316 -20 C386 -20 445 3 497 51 L531 0 L546 0 Z M531 858 L445 727 L443 723 C446 721 447 721 450 721 C456 721 463 724 467 727 L616 850 C619 852 620 853 620 854 L621 855 L622 856 L621 856 C620 858 620 858 611 858 L531 858 Z " />
<glyph glyph-name="Scommaaccent" unicode="&#x218;" horiz-adv-x="508" d="M550 663 L522 663 L494 609 C466 654 416 679 355 679 C253 679 168 593 168 490 C168 427 195 378 270 299 C346 220 367 183 367 132 C367 59 316 9 240 9 C149 9 86 81 86 186 C86 190 87 201 88 213 L63 213 L19 0 L52 0 L90 55 C129 4 179 -20 246 -20 C362 -20 452 64 452 171 C452 221 428 274 385 319 C291 419 291 419 269 450 C250 478 242 502 242 531 C242 605 287 653 355 653 C411 653 455 623 475 569 C485 544 489 516 489 468 L517 468 L550 663 Z M142 -252 C219 -226 267 -175 267 -116 C267 -88 243 -67 211 -67 C180 -67 151 -91 151 -118 C151 -139 170 -155 195 -155 C200 -155 203 -155 207 -154 L210 -154 L215 -153 C217 -192 188 -227 140 -245 L142 -252 Z " />
<glyph glyph-name="scommaaccent" unicode="&#x219;" horiz-adv-x="293" d="M213 431 C141 431 84 384 84 323 C84 298 91 278 119 219 C177 101 177 100 177 74 C177 38 145 10 104 10 C71 10 62 19 60 51 C58 85 45 105 23 105 C6 105 -8 91 -8 74 C-8 28 43 -13 101 -13 C179 -13 243 44 243 113 C243 145 228 183 188 257 C161 305 151 332 151 355 C151 387 173 408 206 408 C230 408 246 396 248 375 C251 348 256 342 276 342 C294 342 310 356 310 373 C310 407 269 431 213 431 L213 431 Z M15 -235 C83 -214 126 -169 126 -119 C126 -96 104 -77 75 -77 C48 -77 21 -97 21 -119 C21 -136 40 -152 60 -152 C65 -152 72 -151 80 -150 C83 -184 57 -215 14 -230 L15 -235 Z " />
<glyph glyph-name="uni021A" unicode="&#x21a;" horiz-adv-x="606" d="M713 659 L169 659 L115 511 L140 511 C174 600 217 635 296 634 L383 634 L216 105 C199 36 185 23 121 21 L90 21 L83 0 L394 0 L401 21 L375 21 C322 21 299 34 299 65 C299 75 301 90 305 100 L473 634 L573 634 C631 634 651 619 651 575 C651 558 648 542 639 511 L666 511 L713 659 Z M151 -252 C228 -226 276 -175 276 -116 C276 -88 252 -67 220 -67 C189 -67 160 -91 160 -118 C160 -139 179 -155 204 -155 C210 -155 212 -155 217 -154 L219 -154 L225 -153 C226 -192 197 -227 150 -245 L151 -252 Z " />
<glyph glyph-name="uni021B" unicode="&#x21b;" horiz-adv-x="280" d="M290 410 L221 410 L267 555 L193 555 L147 411 L81 411 L73 386 L139 386 L51 106 C40 71 37 57 37 43 C37 10 65 -13 104 -13 C162 -13 210 31 253 123 L226 137 C193 61 163 24 133 24 C118 24 112 32 112 51 C112 60 113 67 118 82 L214 386 L283 386 L290 410 Z M9 -235 C77 -214 120 -169 120 -119 C120 -96 98 -77 70 -77 C42 -77 16 -97 16 -119 C16 -136 35 -152 55 -152 C60 -152 66 -151 74 -150 C77 -184 51 -215 8 -230 L9 -235 Z " />
<glyph glyph-name="uni0226" unicode="&#x226;" horiz-adv-x="602" d="M497 828 C468 828 442 804 442 778 C442 751 468 727 496 727 C524 727 550 751 550 778 C550 804 524 828 497 828 L497 828 Z M508 674 L466 674 L74 105 C26 37 7 22 -37 21 L-52 21 L-59 0 L174 0 L181 21 L170 21 C118 21 101 29 101 55 C101 69 112 94 134 126 L212 242 L398 242 L389 94 C385 34 370 20 311 21 L297 21 L292 0 L537 0 L542 21 L524 21 C490 21 471 46 474 87 L475 95 L508 674 Z M399 266 L229 266 L415 538 L399 266 Z " />
<glyph glyph-name="uni0227" unicode="&#x227;" horiz-adv-x="461" d="M338 587 C313 587 290 566 290 543 C290 520 313 499 338 499 C362 499 385 520 385 543 C385 565 362 587 338 587 L338 587 Z M425 107 C394 52 359 18 334 18 C323 18 317 26 317 41 C317 48 318 55 320 62 L430 418 L357 418 L351 399 C337 424 327 431 299 431 C245 431 189 399 137 339 C72 264 30 167 30 94 C30 30 65 -13 119 -13 C163 -13 200 8 255 68 L255 58 L254 52 L254 49 C254 14 280 -14 313 -14 C357 -14 404 25 446 97 L425 107 Z M299 409 C322 409 337 394 337 371 C337 342 310 258 267 158 C232 74 182 19 140 19 C116 19 103 40 103 80 C103 136 130 216 175 292 C224 373 262 409 299 409 L299 409 Z " />
<glyph glyph-name="uni0237" unicode="&#x237;" horiz-adv-x="257" d="M81 306 C103 357 133 390 155 390 C165 390 171 383 171 369 C171 356 160 315 141 254 L38 -73 C-13 -234 -31 -267 -70 -267 C-87 -267 -97 -259 -97 -246 C-97 -242 -95 -236 -90 -228 C-84 -217 -81 -211 -81 -206 C-81 -194 -96 -181 -111 -181 C-132 -181 -151 -200 -151 -221 C-151 -255 -117 -282 -73 -282 C-28 -282 19 -254 53 -204 C79 -168 92 -138 115 -66 L212 243 C238 325 247 361 247 387 C247 414 228 431 198 431 C142 431 93 391 54 313 L81 306 Z " />
<glyph glyph-name="afii57929" unicode="&#x2bc;" horiz-adv-x="221" d="M131 442 L130 442 C137 433 138 432 144 432 C165 432 213 456 240 481 C271 510 294 560 294 599 C294 646 268 679 231 679 C203 679 177 654 177 627 C177 609 192 588 208 583 C234 575 234 575 234 557 C234 531 223 506 202 487 C187 472 167 458 155 454 C143 451 135 447 134 445 L131 442 Z " />
<glyph glyph-name="circumflex" unicode="&#x2c6;" horiz-adv-x="502" d="M354 627 L205 509 C202 506 199 504 198 502 L196 499 L195 498 L196 496 C200 489 202 488 207 488 C210 488 210 488 223 495 L340 563 L417 495 C422 491 427 488 431 488 C435 488 443 493 445 497 C447 500 448 501 449 502 L449 503 C449 503 447 505 444 509 L354 627 Z " />
<glyph glyph-name="caron" unicode="&#x2c7;" horiz-adv-x="503" d="M314 483 L456 596 C461 600 464 603 465 604 L470 610 L473 615 L470 618 C469 621 464 623 461 623 C457 623 445 618 438 614 L327 548 L257 615 C254 617 242 623 239 623 C231 623 219 615 219 610 C219 608 221 605 228 596 L314 483 Z " />
<glyph glyph-name="uni02C9" unicode="&#x2c9;" horiz-adv-x="502" d="M232 563 L221 526 L459 526 L470 563 L232 563 Z " />
<glyph glyph-name="breve" unicode="&#x2d8;" horiz-adv-x="503" d="M242 601 C241 594 240 587 240 583 C240 533 279 499 335 499 C399 499 451 538 472 601 L453 601 C435 564 407 550 348 550 C290 550 264 565 260 601 L242 601 Z " />
<glyph glyph-name="dotaccent" unicode="&#x2d9;" horiz-adv-x="503" d="M339 587 C314 587 291 566 291 543 C291 520 314 499 339 499 C363 499 386 520 386 543 C386 566 363 587 339 587 L339 587 Z " />
<glyph glyph-name="ring" unicode="&#x2da;" horiz-adv-x="503" d="M340 644 C294 644 255 607 255 565 C255 521 294 484 338 484 C383 484 422 521 422 564 C422 606 383 644 340 644 L340 644 Z M339 615 C366 615 386 593 386 564 C386 535 366 513 338 513 C311 513 291 534 291 564 C291 594 311 615 339 615 L339 615 Z " />
<glyph glyph-name="ogonek" unicode="&#x2db;" horiz-adv-x="492" d="M231 -11 C177 -42 154 -69 154 -98 C154 -123 179 -143 209 -143 C234 -143 260 -134 281 -117 L281 -119 L287 -101 C272 -107 262 -109 251 -109 C230 -109 216 -95 216 -74 C216 -54 228 -33 252 -11 L231 -11 Z " />
<glyph glyph-name="tilde" unicode="&#x2dc;" horiz-adv-x="503" d="M451 587 C428 564 416 558 397 558 C385 558 369 562 350 571 C317 586 314 587 301 587 C273 587 240 562 205 514 L215 508 C237 533 252 542 269 542 C279 542 296 537 322 527 C356 515 358 514 366 514 C393 514 425 537 459 581 L451 587 Z " />
<glyph glyph-name="hungarumlaut" unicode="&#x2dd;" horiz-adv-x="502" d="M293 618 L213 496 L211 493 C214 491 215 491 218 491 C224 491 230 493 233 496 L372 611 L377 614 L378 616 L378 617 L378 616 L377 617 C376 617 376 617 376 618 L374 618 L368 618 L293 618 Z M427 618 L347 496 L345 493 C348 491 349 491 352 491 C358 491 364 493 367 496 L506 611 L511 614 L512 616 L512 617 L512 616 L511 617 C510 617 510 617 510 618 L508 618 L502 618 L427 618 Z " />
<glyph glyph-name="pi" unicode="&#x3c0;" horiz-adv-x="498" d="M175 367 L56 0 L130 0 L249 367 L351 367 L269 106 C259 75 255 57 255 43 C255 11 283 -13 321 -13 C369 -13 414 24 457 97 L436 108 C406 54 370 19 345 19 C334 19 328 27 328 42 C328 47 329 55 332 62 L426 367 L516 367 L530 410 L171 410 C118 411 96 396 26 307 L39 296 C85 353 111 368 167 367 L175 367 Z " />
<glyph glyph-name="uni1E1E" unicode="&#x1e1e;" horiz-adv-x="576" d="M656 659 L182 659 L175 638 L202 638 C242 638 257 628 257 599 C257 588 254 576 247 553 L105 102 C85 30 81 24 34 21 L-2 21 L-9 0 L262 0 L268 21 L238 21 C204 21 187 34 187 60 C187 70 191 89 196 106 L268 334 L369 334 C421 334 437 322 437 281 C437 261 432 234 422 205 L451 205 L532 464 L503 464 C482 385 458 361 401 361 L276 361 L364 639 L496 639 C581 644 624 606 631 518 L657 518 L656 659 Z M456 828 C427 828 401 804 401 778 C401 751 427 727 455 727 C483 727 509 751 509 778 C509 804 483 828 456 828 L456 828 Z " />
<glyph glyph-name="Wgrave" unicode="&#x1e80;" horiz-adv-x="889" d="M641 659 L597 659 L285 146 L307 576 C310 632 319 640 385 638 L395 638 L395 659 L135 659 L135 638 L144 638 C212 638 215 636 215 576 L215 559 L188 -28 L221 -28 L543 493 L517 -28 L550 -28 L918 556 C959 627 972 638 1021 638 L1042 638 L1042 659 L817 659 L817 638 L827 638 C880 638 880 638 890 631 C896 627 899 619 899 610 C899 598 895 587 880 563 L616 146 L641 659 Z M594 858 L524 858 C516 858 515 858 510 852 L512 849 L609 726 C611 723 618 721 624 721 C626 721 629 722 630 723 L634 725 C635 725 635 726 635 726 L633 731 L594 858 Z " />
</font>
</svg>
