<?xml version="1.0" encoding="UTF-8"?>
<svg xmlns="http://www.w3.org/2000/svg" xmlns:xlink="http://www.w3.org/1999/xlink" version="1.2" >
<font id="Clarendon URW Narrow">
<font-face  font-family="Clarendon URW Narrow" units-per-em="1000" ascent="667" descent="-333" font-style="normal" font-weight="400" font-stretch="semi-condensed" cap-height="667" x-height="469" underline-position="-63" underline-thickness="74" />
<missing-glyph  horiz-adv-x="250" d="" />
<glyph glyph-name="NULL" d="" />
<glyph glyph-name="CR" unicode="&#xd;" horiz-adv-x="250" d="" />
<glyph glyph-name="space" unicode="&#x20;" horiz-adv-x="250" d="" />
<glyph glyph-name="exclam" unicode="&#x21;" horiz-adv-x="302" d="M184 130 C145 130 113 97 113 58 C113 16 144 -17 184 -17 C222 -17 253 16 253 57 C253 97 222 130 184 130 L184 130 Z M213 190 C220 292 225 335 242 476 C255 582 255 586 255 609 C255 662 233 687 185 687 C138 687 115 661 115 609 C115 588 115 585 127 476 C146 309 147 298 154 190 L213 190 Z " />
<glyph glyph-name="quotedbl" unicode="&#x22;" horiz-adv-x="343" d="M129 399 L148 667 L34 667 L52 399 L129 399 Z M291 399 L310 667 L196 667 L214 399 L291 399 Z " />
<glyph glyph-name="numbersign" unicode="&#x23;" horiz-adv-x="590" d="M542 288 L443 288 L458 391 L556 391 L570 488 L472 488 L499 667 L394 667 L367 488 L267 488 L294 667 L190 667 L164 488 L65 488 L51 391 L150 391 L135 288 L35 288 L21 191 L121 191 L92 0 L195 0 L224 191 L323 191 L292 0 L400 0 L429 191 L528 191 L542 288 Z M352 391 L337 288 L239 288 L254 391 L352 391 Z " />
<glyph glyph-name="dollar" unicode="&#x24;" horiz-adv-x="590" d="M253 -104 L320 -104 L320 -1 C397 7 431 18 468 45 C514 77 537 124 537 181 C537 231 517 275 482 303 C447 329 412 342 320 364 L320 543 C378 538 401 530 438 502 C398 498 378 480 378 447 C378 414 406 388 443 388 C482 388 510 420 510 462 C510 496 490 532 457 560 C424 587 392 597 320 605 L320 680 L253 680 L253 605 C184 594 153 582 119 554 C80 521 58 475 58 425 C58 373 82 327 122 300 C150 282 176 272 253 248 L253 63 C181 68 164 75 120 114 C163 114 185 133 185 173 C185 209 156 235 118 235 C75 235 47 203 47 154 C47 110 67 72 104 45 C142 18 181 6 253 0 L253 -104 Z M320 235 C403 216 426 197 426 149 C426 96 392 69 320 65 L320 235 Z M253 378 C190 394 169 414 169 458 C169 505 195 531 253 542 L253 378 Z " />
<glyph glyph-name="percent" unicode="&#x25;" horiz-adv-x="910" d="M208 622 C103 622 28 543 28 433 C28 317 101 239 209 239 C315 239 389 318 389 431 C389 543 315 622 208 622 L208 622 Z M209 559 C257 559 278 518 278 428 C278 341 257 302 209 302 C162 302 140 342 140 430 C140 517 162 559 209 559 L209 559 Z M669 622 L592 622 L238 -17 L315 -17 L669 622 Z M698 366 C593 366 518 287 518 177 C518 61 591 -17 699 -17 C805 -17 879 62 879 174 C879 287 805 366 698 366 L698 366 Z M698 303 C746 303 767 262 767 172 C767 85 746 46 698 46 C651 46 629 86 629 174 C629 261 651 303 698 303 L698 303 Z " />
<glyph glyph-name="ampersand" unicode="&#x26;" horiz-adv-x="797" d="M684 229 C680 181 678 165 670 142 C658 105 631 85 594 85 C569 85 553 93 524 120 C569 177 590 207 604 235 C653 331 658 335 724 339 L757 339 L757 415 L456 415 L456 339 L484 339 C527 339 542 333 542 317 C542 283 518 239 470 188 C414 265 395 293 349 374 C437 434 471 485 471 559 C471 637 418 687 335 687 C237 687 170 616 170 512 C170 476 176 451 196 399 C145 372 114 351 94 331 C54 291 33 241 33 186 C33 67 125 -19 252 -19 C313 -19 352 -7 430 36 C495 -7 530 -20 577 -20 C639 -20 694 9 724 57 C747 96 755 137 757 229 L684 229 Z M234 315 C284 216 304 185 369 101 C333 84 315 78 292 78 C223 78 174 134 174 212 C174 257 189 282 234 315 L234 315 Z M306 452 C285 491 277 517 277 548 C277 584 299 610 331 610 C361 610 382 587 382 553 C382 513 362 486 306 452 L306 452 Z " />
<glyph glyph-name="quotesingle" unicode="&#x27;" horiz-adv-x="175" d="M125 399 L144 667 L30 667 L49 399 L125 399 Z " />
<glyph glyph-name="parenleft" unicode="&#x28;" horiz-adv-x="363" d="M335 -130 C270 -93 246 -68 220 -8 C192 56 178 139 178 247 C178 347 190 426 214 488 C240 557 266 586 335 624 L335 687 C218 647 168 613 118 540 C65 463 38 363 38 247 C38 141 61 48 106 -26 C157 -111 210 -149 335 -192 L335 -130 Z " />
<glyph glyph-name="parenright" unicode="&#x29;" horiz-adv-x="363" d="M33 -192 C150 -152 200 -118 250 -45 C303 31 330 132 330 247 C330 354 307 447 262 521 C211 605 158 644 33 687 L33 624 C98 588 122 563 148 502 C176 439 190 355 190 247 C190 147 178 68 155 7 C128 -62 102 -91 33 -130 L33 -192 Z " />
<glyph glyph-name="asterisk" unicode="&#x2a;" horiz-adv-x="472" d="M231 490 C201 512 188 525 167 558 C136 607 133 610 110 610 C81 610 57 583 57 551 C57 533 65 518 80 510 C93 502 95 502 134 500 C171 497 191 492 224 475 C192 460 174 455 136 452 C97 449 94 449 82 442 C67 434 57 417 57 401 C57 370 81 342 108 342 C133 342 140 349 167 393 C188 426 203 441 232 462 C230 428 225 410 207 369 C188 330 188 330 188 314 C188 285 209 266 240 266 C269 266 290 287 290 315 C290 328 287 338 271 369 C253 406 250 420 247 462 C275 443 285 432 310 393 C338 349 346 342 369 342 C396 342 420 369 420 399 C420 428 402 448 373 450 C307 454 289 458 254 477 C286 492 301 496 342 500 C387 504 387 504 396 509 C410 515 420 534 420 551 C420 582 396 610 370 610 C346 610 337 602 310 559 C288 524 275 510 245 490 C251 535 255 550 270 582 C287 616 290 625 290 639 C290 666 268 687 238 687 C207 687 187 667 187 636 C187 620 188 619 206 583 C221 552 228 528 231 490 L231 490 Z " />
<glyph glyph-name="plus" unicode="&#x2b;" horiz-adv-x="538" d="M63 358 L63 267 L220 267 L220 104 L318 104 L318 267 L475 267 L475 358 L318 358 L318 521 L220 521 L220 358 L63 358 Z " />
<glyph glyph-name="comma" unicode="&#x2c;" horiz-adv-x="226" d="M31 -143 C124 -127 183 -63 183 24 C183 87 147 130 94 130 C52 130 23 102 23 61 C23 24 46 -1 79 -1 C94 -1 103 2 121 14 C119 -46 90 -82 31 -99 L31 -143 Z " />
<glyph glyph-name="hyphen" unicode="&#x2d;" horiz-adv-x="256" d="M0 184 L256 184 L256 290 L0 290 L0 184 Z " />
<glyph glyph-name="period" unicode="&#x2e;" horiz-adv-x="292" d="M146 130 C107 130 75 97 75 58 C75 16 106 -17 146 -17 C184 -17 215 16 215 57 C215 97 184 130 146 130 L146 130 Z " />
<glyph glyph-name="slash" unicode="&#x2f;" horiz-adv-x="351" d="M81 -92 L313 686 L243 686 L11 -92 L81 -92 Z " />
<glyph glyph-name="zero" unicode="0" horiz-adv-x="590" d="M294 621 C139 621 28 490 28 307 C28 113 135 -17 295 -17 C451 -17 560 114 560 302 C560 490 451 621 294 621 L294 621 Z M294 544 C371 544 406 468 406 302 C406 136 371 60 294 60 C217 60 182 135 182 300 C182 468 217 544 294 544 L294 544 Z " />
<glyph glyph-name="one" unicode="1" horiz-adv-x="590" d="M118 0 L473 0 L473 71 L425 71 C368 71 362 77 362 128 L362 611 L283 611 C247 542 220 527 118 519 L118 448 L234 448 L234 130 C234 79 224 71 160 71 L118 71 L118 0 Z " />
<glyph glyph-name="two" unicode="2" horiz-adv-x="590" d="M102 -4 C109 47 122 64 154 64 C171 64 191 58 208 49 C270 15 270 15 283 10 C320 -7 363 -17 391 -17 C437 -17 476 7 501 50 C526 93 533 131 534 217 L480 217 C475 164 471 146 461 132 C449 114 428 104 404 104 C392 104 379 106 329 117 C282 127 220 137 202 137 C178 137 160 131 127 111 C163 182 210 211 336 239 C416 259 455 278 483 314 C506 342 519 383 519 425 C519 476 499 527 466 558 C424 597 353 622 280 622 C158 622 60 541 60 440 C60 381 98 337 150 337 C194 337 226 370 226 415 C226 453 200 482 164 482 C156 482 143 480 129 476 C141 501 151 515 162 524 C183 542 214 553 244 553 C318 553 369 505 369 435 C369 374 342 339 270 304 C93 222 42 151 47 -4 L102 -4 Z " />
<glyph glyph-name="three" unicode="3" horiz-adv-x="590" d="M234 286 C287 286 311 282 335 269 C365 253 384 214 384 167 C384 97 331 52 249 52 C198 52 168 64 129 99 C156 100 170 104 182 113 C197 126 207 149 207 172 C207 216 177 247 132 247 C82 247 47 208 47 152 C47 110 67 69 100 40 C146 1 200 -17 274 -17 C433 -17 535 56 535 169 C535 212 518 251 488 278 C463 301 437 312 376 326 C429 340 452 349 473 366 C501 389 518 426 518 464 C518 560 430 622 296 622 C166 622 67 555 67 467 C67 418 99 385 146 385 C189 385 219 415 219 458 C219 494 201 513 162 521 C203 550 224 558 263 558 C330 558 375 517 375 456 C375 418 359 389 331 375 C310 364 289 360 234 359 L234 286 Z " />
<glyph glyph-name="four" unicode="4" horiz-adv-x="590" d="M215 0 L549 0 L549 71 L496 71 C447 75 438 84 438 125 L438 168 L549 168 L549 254 L438 254 L438 610 L347 610 L33 244 L33 168 L319 168 L319 125 C320 78 312 72 249 71 L215 71 L215 0 Z M319 254 L136 254 L322 471 L319 254 Z " />
<glyph glyph-name="five" unicode="5" horiz-adv-x="590" d="M159 487 C210 479 235 477 263 477 C319 477 368 486 409 505 C455 525 477 553 500 619 C411 594 374 588 300 588 C223 588 186 594 99 620 L70 298 L134 295 C174 342 204 358 251 358 C333 358 383 300 383 207 C383 108 333 52 245 52 C199 52 170 63 128 94 C153 95 168 99 178 107 C196 119 207 143 207 168 C207 210 175 240 131 240 C80 240 44 202 44 150 C44 52 142 -17 282 -17 C355 -17 410 1 453 38 C501 80 529 143 529 212 C529 341 433 431 297 431 C247 431 216 423 152 395 L159 487 Z " />
<glyph glyph-name="six" unicode="6" horiz-adv-x="590" d="M414 536 C381 522 370 508 370 479 C370 441 399 414 440 414 C485 414 518 446 518 490 C518 566 437 622 327 622 C238 622 171 591 125 530 C78 466 52 381 52 286 C52 203 72 125 107 76 C151 13 217 -18 308 -18 C449 -18 545 66 545 189 C545 301 458 386 342 386 C288 386 257 375 197 334 C205 441 216 485 243 517 C266 546 300 561 340 561 C367 561 384 555 414 536 L414 536 Z M300 301 C361 301 396 257 396 179 C396 100 362 55 303 55 C241 55 208 99 208 181 C208 256 242 301 300 301 L300 301 Z " />
<glyph glyph-name="seven" unicode="7" horiz-adv-x="590" d="M365 -4 C363 178 380 242 469 388 C510 451 533 488 540 500 C557 534 563 551 572 605 L512 605 C499 575 486 564 460 564 C443 564 428 568 383 586 C339 604 307 611 273 611 C222 611 195 594 153 537 L153 606 L80 606 L80 330 L149 330 C151 401 155 427 165 449 C177 474 205 491 234 491 C249 491 267 489 289 484 C330 476 356 472 375 472 C399 472 419 477 458 492 C447 479 435 464 425 451 C411 435 397 419 382 403 C329 345 301 305 276 256 C242 181 237 145 237 -4 L365 -4 Z " />
<glyph glyph-name="eight" unicode="8" horiz-adv-x="590" d="M158 291 C121 276 98 263 83 249 C54 223 38 188 38 150 C38 51 140 -17 288 -17 C365 -17 439 3 482 37 C521 67 546 120 546 175 C546 251 513 294 422 340 C498 379 524 412 524 471 C524 561 431 622 294 622 C157 622 62 549 62 444 C62 381 87 341 158 291 L158 291 Z M355 218 C400 203 422 178 422 142 C422 89 378 61 295 61 C200 61 151 95 151 160 C151 203 180 241 227 262 L355 218 Z M249 397 C208 409 183 438 183 474 C183 522 227 553 296 553 C372 553 417 520 417 464 C417 421 400 394 356 367 L249 397 Z " />
<glyph glyph-name="nine" unicode="9" horiz-adv-x="590" d="M183 64 C215 79 225 93 225 121 C225 159 196 186 156 186 C110 186 77 154 77 109 C77 36 155 -19 261 -19 C327 -19 383 -2 425 31 C494 85 537 193 537 312 C537 399 514 484 476 534 C433 593 368 622 283 622 C140 622 42 537 42 413 C42 300 128 216 243 216 C300 216 333 228 394 273 C388 164 379 121 353 88 C330 58 294 41 253 41 C228 41 213 46 183 64 L183 64 Z M284 549 C344 549 378 503 378 421 C378 346 344 302 287 302 C226 302 191 347 191 427 C191 506 224 549 284 549 L284 549 Z " />
<glyph glyph-name="colon" unicode="&#x3a;" horiz-adv-x="302" d="M184 130 C145 130 113 97 113 58 C113 16 144 -17 184 -17 C222 -17 253 16 253 57 C253 97 222 130 184 130 L184 130 Z M184 447 C145 447 113 414 113 375 C113 333 144 300 184 300 C222 300 253 333 253 374 C253 414 222 447 184 447 L184 447 Z " />
<glyph glyph-name="semicolon" unicode="&#x3b;" horiz-adv-x="302" d="M195 447 C157 447 124 414 124 375 C124 333 155 300 196 300 C234 300 265 333 265 374 C265 414 234 447 195 447 L195 447 Z M120 -143 C213 -127 272 -63 272 24 C272 87 236 130 183 130 C141 130 112 102 112 61 C112 24 135 -1 168 -1 C183 -1 192 2 210 14 C208 -46 179 -82 120 -99 L120 -143 Z " />
<glyph glyph-name="less" unicode="&#x3c;" horiz-adv-x="475" d="M444 603 L32 385 L32 282 L444 63 L444 184 L155 333 L444 482 L444 603 Z " />
<glyph glyph-name="equal" unicode="&#x3d;" horiz-adv-x="538" d="M63 442 L63 356 L475 356 L475 442 L63 442 Z M63 280 L63 194 L475 194 L475 280 L63 280 Z " />
<glyph glyph-name="greater" unicode="&#x3e;" horiz-adv-x="475" d="M32 603 L32 482 L321 333 L32 184 L32 63 L443 282 L443 385 L32 603 Z " />
<glyph glyph-name="question" unicode="&#x3f;" horiz-adv-x="500" d="M237 130 C198 130 166 97 166 58 C166 16 197 -17 237 -17 C275 -17 306 16 306 57 C306 97 275 130 237 130 L237 130 Z M268 189 C270 246 283 270 332 310 C409 368 409 368 432 393 C464 426 479 462 479 504 C479 611 388 687 261 687 C136 687 47 610 47 503 C47 432 88 379 143 379 C187 379 222 413 222 456 C222 493 196 521 162 521 C144 521 132 516 109 498 C113 542 121 562 144 583 C165 603 193 614 223 614 C291 614 337 569 337 503 C337 463 328 444 277 383 C220 316 207 286 207 226 C207 218 207 205 208 189 L268 189 Z " />
<glyph glyph-name="at" unicode="&#x40;" horiz-adv-x="705" d="M460 493 L451 449 C433 484 398 504 355 504 C265 504 188 411 188 302 C188 211 246 143 323 143 C371 143 416 168 441 208 C449 174 478 151 514 151 C598 151 672 261 672 385 C672 555 543 681 370 681 C182 681 34 526 34 328 C34 234 71 140 134 77 C195 16 274 -15 372 -15 C446 -15 515 -3 573 20 L555 92 C500 69 440 58 374 58 C291 58 230 82 184 133 C138 183 112 254 112 328 C112 486 226 609 373 609 C507 609 601 516 601 384 C601 301 559 217 517 217 C503 217 493 231 493 252 C493 260 494 269 499 297 L536 493 L460 493 Z M367 418 C405 418 431 387 431 340 C431 278 391 224 345 224 C306 224 279 257 279 304 C279 365 320 418 367 418 L367 418 Z " />
<glyph glyph-name="A" unicode="A" horiz-adv-x="679" d="M-14 0 L281 0 L281 76 L231 76 C190 76 181 80 181 98 C181 104 184 116 188 129 L216 212 L424 212 L451 134 C457 118 460 107 460 101 C460 81 449 76 407 76 L356 76 L356 0 L683 0 L683 76 L664 76 C616 76 607 84 588 140 L399 667 L266 667 L90 140 C75 91 55 76 6 76 L-14 76 L-14 0 Z M398 290 L242 290 L317 522 L398 290 Z " />
<glyph glyph-name="B" unicode="B" horiz-adv-x="689" d="M24 0 L373 0 C492 0 551 13 594 48 C629 77 648 123 648 180 C648 234 631 277 598 306 C574 328 551 339 497 353 C591 382 623 421 623 503 C623 613 547 667 390 667 L24 667 L24 591 L59 591 C112 592 119 584 119 529 L119 137 C119 83 112 75 59 76 L24 76 L24 0 Z M259 75 L259 307 L354 307 C418 307 447 300 470 279 C491 261 503 230 503 192 C503 154 491 120 472 102 C451 83 418 75 363 75 L259 75 Z M259 383 L259 590 L359 590 C410 590 437 583 456 566 C474 549 483 522 483 487 C483 456 475 432 458 414 C437 390 411 383 349 383 L259 383 Z " />
<glyph glyph-name="C" unicode="C" horiz-adv-x="670" d="M540 258 C527 186 515 155 488 123 C459 90 419 72 373 72 C318 72 266 98 235 142 C204 186 189 247 189 330 C189 501 258 605 372 605 C422 605 467 583 498 544 C525 510 536 478 548 404 L620 404 L620 677 L552 677 L534 617 C460 671 420 686 349 686 C171 686 33 532 33 335 C33 130 168 -19 355 -19 C444 -19 511 11 558 72 C595 119 609 162 620 258 L540 258 Z " />
<glyph glyph-name="D" unicode="D" horiz-adv-x="764" d="M24 0 L385 0 C605 0 719 114 719 333 C719 553 605 667 385 667 L24 667 L24 591 L59 591 C112 592 119 584 119 530 L119 137 C119 83 112 75 59 76 L24 76 L24 0 Z M259 76 L259 591 L341 591 C435 591 477 578 508 538 C543 494 563 421 563 333 C563 246 543 173 508 129 C477 89 435 76 341 76 L259 76 Z " />
<glyph glyph-name="E" unicode="E" horiz-adv-x="712" d="M24 0 L647 0 L647 283 L575 283 C561 113 534 75 422 76 L260 76 L260 310 L296 310 C373 311 386 294 393 174 L464 174 L464 507 L393 507 C385 398 377 388 295 386 L260 386 L260 591 L409 591 C538 593 569 558 575 402 L647 402 L647 667 L24 667 L24 591 L60 591 C113 592 120 584 120 529 L120 138 C120 83 113 75 60 76 L24 76 L24 0 Z " />
<glyph glyph-name="F" unicode="F" horiz-adv-x="656" d="M24 0 L363 0 L363 76 L320 76 C267 75 260 83 260 138 L260 310 L276 310 C352 312 365 293 372 174 L445 174 L445 507 L372 507 C364 397 356 388 275 386 L260 386 L260 591 L373 591 C506 593 537 556 540 390 L612 390 L612 667 L24 667 L24 591 L60 591 C113 592 120 584 120 529 L120 138 C120 83 113 75 60 76 L24 76 L24 0 Z " />
<glyph glyph-name="G" unicode="G" horiz-adv-x="745" d="M574 -4 L648 -4 L648 219 C649 274 654 280 698 281 L736 281 L736 357 L401 357 L401 281 L440 281 C503 282 511 277 510 226 L510 189 C510 149 503 129 480 108 C453 83 415 69 374 69 C257 69 189 166 189 333 C189 501 258 606 368 606 C417 606 462 584 496 544 C524 510 538 480 554 411 L628 411 L628 671 L559 671 L532 614 C462 672 424 687 347 687 C168 687 33 535 33 334 C33 131 166 -19 347 -19 C424 -19 463 -5 539 52 L574 -4 Z " />
<glyph glyph-name="H" unicode="H" horiz-adv-x="783" d="M22 0 L361 0 L361 76 L318 76 C265 75 258 83 258 137 L258 302 L525 302 L525 137 C525 83 518 75 464 76 L421 76 L421 0 L760 0 L760 76 L725 76 C672 75 665 83 665 137 L665 529 C665 584 672 592 725 591 L760 591 L760 667 L421 667 L421 591 L464 591 C518 592 525 584 525 529 L525 382 L258 382 L258 529 C258 584 265 592 318 591 L361 591 L361 667 L22 667 L22 591 L58 591 C111 592 118 584 118 529 L118 137 C118 83 111 75 58 76 L22 76 L22 0 Z " />
<glyph glyph-name="I" unicode="I" horiz-adv-x="392" d="M25 0 L366 0 L366 76 L327 76 C273 75 266 83 266 137 L266 530 C266 584 273 592 327 591 L366 591 L366 667 L25 667 L25 591 L64 591 C117 592 124 584 124 530 L124 137 C124 83 117 75 64 76 L25 76 L25 0 Z " />
<glyph glyph-name="J" unicode="J" horiz-adv-x="547" d="M192 591 L235 591 C288 592 295 584 295 530 L295 193 C295 134 291 111 277 91 C263 69 235 57 202 57 C170 57 154 63 125 86 C170 100 189 124 189 166 C189 214 159 246 113 246 C58 246 24 208 24 148 C24 49 108 -20 227 -20 C294 -20 353 1 390 39 C427 76 438 117 438 213 L438 530 C438 584 445 592 498 591 L525 591 L525 667 L192 667 L192 591 Z " />
<glyph glyph-name="K" unicode="K" horiz-adv-x="731" d="M257 229 L357 324 L487 128 C496 114 502 101 502 93 C502 80 494 76 462 76 L411 76 L411 0 L762 0 L762 76 L730 76 C682 76 672 82 640 126 L447 414 L540 503 C611 570 647 590 700 591 L722 591 L722 667 L403 667 L403 591 L445 591 C470 591 482 587 482 578 C482 572 476 562 467 553 L257 342 L257 530 C257 584 264 592 317 591 L346 591 L346 667 L24 667 L24 591 L60 591 C113 592 120 584 120 530 L120 137 C120 83 113 75 60 76 L24 76 L24 0 L341 0 L341 76 L317 76 C264 75 257 83 257 137 L257 229 Z " />
<glyph glyph-name="L" unicode="L" horiz-adv-x="656" d="M24 667 L24 591 L60 591 C113 592 120 584 120 530 L120 137 C120 83 113 75 60 76 L24 76 L24 0 L612 0 L612 288 L540 288 C539 113 508 74 373 76 L260 76 L260 530 C260 584 267 592 320 591 L363 591 L363 667 L24 667 Z " />
<glyph glyph-name="M" unicode="M" horiz-adv-x="920" d="M573 0 L899 0 L899 76 L864 76 C810 75 803 83 803 137 L803 530 C803 584 810 592 864 591 L899 591 L899 667 L615 667 L459 234 L319 667 L24 667 L24 591 L57 591 C111 592 118 584 118 530 L118 137 C118 83 111 75 57 76 L24 76 L24 0 L320 0 L320 76 L284 76 C230 75 223 83 223 137 L223 579 L412 0 L474 0 L675 569 L675 137 C675 83 668 75 614 76 L573 76 L573 0 Z " />
<glyph glyph-name="N" unicode="N" horiz-adv-x="774" d="M665 0 L665 530 C665 584 672 592 726 591 L756 591 L756 667 L457 667 L457 591 L500 591 C553 592 560 584 560 530 L560 183 L284 667 L13 667 L13 591 L52 591 C106 592 113 584 113 530 L113 137 C113 83 106 75 52 76 L9 76 L9 0 L321 0 L321 76 L279 76 C225 75 218 83 218 137 L218 543 L527 0 L665 0 Z " />
<glyph glyph-name="O" unicode="O" horiz-adv-x="764" d="M383 686 C176 686 34 544 34 339 C34 225 67 139 137 73 C200 11 282 -19 383 -19 C591 -19 731 123 731 334 C731 545 591 686 383 686 L383 686 Z M383 607 C443 607 493 580 528 529 C560 481 575 420 575 333 C575 161 504 60 383 60 C321 60 271 87 237 138 C204 188 190 247 190 337 C190 506 262 607 383 607 L383 607 Z " />
<glyph glyph-name="P" unicode="P" horiz-adv-x="646" d="M363 76 L320 76 C267 75 260 83 260 137 L260 301 L344 301 C452 301 503 310 544 335 C589 364 615 417 615 481 C615 541 591 592 548 622 C505 653 446 667 357 667 L24 667 L24 591 L60 591 C113 592 120 584 120 530 L120 137 C120 83 113 75 60 76 L24 76 L24 0 L363 0 L363 76 Z M260 377 L260 591 L313 591 C371 591 392 589 413 581 C449 567 469 533 469 485 C469 450 458 420 439 404 C417 384 385 377 320 377 L260 377 Z " />
<glyph glyph-name="Q" unicode="Q" horiz-adv-x="788" d="M726 130 C723 86 722 75 718 64 C712 48 702 39 688 39 C667 39 652 50 629 79 C698 148 730 229 730 335 C730 544 589 686 381 686 C173 686 33 545 33 333 C33 123 173 -19 381 -19 C431 -19 461 -13 525 7 C585 -54 611 -69 656 -69 C693 -69 726 -56 747 -31 C777 1 787 41 788 130 L726 130 Z M470 86 C441 64 413 55 376 55 C334 55 303 83 303 121 C303 157 326 182 359 182 C402 182 432 156 470 86 L470 86 Z M558 169 C480 246 434 271 370 271 C294 271 251 226 251 147 C251 144 251 132 252 122 C228 146 218 161 209 189 C195 229 188 279 188 333 C188 504 262 607 384 607 C509 607 581 503 581 323 C581 261 575 224 558 169 L558 169 Z " />
<glyph glyph-name="R" unicode="R" horiz-adv-x="731" d="M363 76 L320 76 C267 75 260 83 260 137 L260 314 L303 314 C414 314 444 287 448 181 L451 103 C454 25 497 -19 574 -19 C642 -19 682 12 696 78 C702 103 703 122 703 190 L642 190 C642 92 638 79 612 79 C594 79 587 92 585 135 L581 194 C579 286 549 321 454 337 C517 348 544 357 574 378 C615 407 636 451 636 506 C636 557 616 601 580 626 C541 655 487 667 402 667 L24 667 L24 591 L60 591 C113 592 120 584 120 529 L120 137 C120 83 113 75 60 76 L24 76 L24 0 L363 0 L363 76 Z M260 390 L260 591 L365 591 C411 591 433 587 452 575 C476 561 490 530 490 491 C490 420 453 390 367 390 L260 390 Z " />
<glyph glyph-name="S" unicode="S" horiz-adv-x="608" d="M40 0 L105 0 L126 62 C210 1 263 -19 337 -19 C475 -19 574 69 574 193 C574 252 549 308 508 341 C476 366 424 390 371 402 L244 433 C185 447 157 475 157 520 C157 573 201 606 274 606 C319 606 368 588 399 560 C433 528 455 482 468 414 L540 414 L540 667 L484 667 L450 618 C375 673 337 687 265 687 C129 687 38 604 38 480 C38 375 98 317 245 281 L348 256 C418 239 450 208 450 158 C450 102 405 71 326 71 C266 71 223 86 184 123 C146 158 129 194 113 275 L40 275 L40 0 Z " />
<glyph glyph-name="T" unicode="T" horiz-adv-x="642" d="M251 137 C251 83 244 75 190 76 L137 76 L137 0 L504 0 L504 76 L451 76 C398 75 391 83 391 137 L391 593 C503 595 543 543 547 391 L619 391 L619 667 L23 667 L23 391 L95 391 C98 543 138 596 251 593 L251 137 Z " />
<glyph glyph-name="U" unicode="U" horiz-adv-x="722" d="M19 591 L48 591 C101 592 108 584 108 530 L108 211 C108 127 128 75 175 37 C222 -1 284 -20 359 -20 C523 -20 612 61 612 211 L612 530 C612 584 619 592 672 591 L700 591 L700 667 L407 667 L407 591 L443 591 C497 592 504 584 504 530 L504 211 C504 161 496 134 474 114 C450 91 412 78 372 78 C335 78 299 90 277 111 C255 131 248 155 248 211 L248 530 C248 584 255 592 309 591 L348 591 L348 667 L19 667 L19 591 Z " />
<glyph glyph-name="V" unicode="V" horiz-adv-x="675" d="M264 0 L395 0 L582 526 C601 580 613 589 663 591 L682 591 L682 667 L381 667 L381 591 L423 591 C469 591 482 585 482 565 C482 556 477 533 473 520 L347 166 L230 512 C223 533 219 551 219 561 C219 583 232 591 269 591 L318 591 L318 667 L-14 667 L-14 591 L14 591 C54 590 71 575 87 528 L264 0 Z " />
<glyph glyph-name="W" unicode="W" horiz-adv-x="925" d="M231 0 L351 0 L466 357 L565 0 L690 0 L835 524 C847 570 868 592 898 591 L919 591 L919 667 L660 667 L660 591 L691 591 C727 591 744 582 744 562 C744 549 741 530 735 511 L640 173 L534 537 C531 546 529 559 529 565 C529 584 541 591 573 591 L608 591 L608 667 L330 667 L330 591 L353 591 C395 591 413 569 425 507 L312 163 L213 539 C211 547 210 556 210 563 C210 582 223 591 249 591 L279 591 L279 667 L9 667 L9 591 L25 591 C68 588 79 575 98 502 L231 0 Z " />
<glyph glyph-name="X" unicode="X" horiz-adv-x="745" d="M330 76 L286 76 C252 76 242 81 242 97 C242 112 249 125 271 152 L361 261 L464 124 C471 116 475 104 475 95 C475 81 464 76 431 76 L388 76 L388 0 L751 0 L751 76 L723 76 C669 75 659 81 609 146 L449 357 L589 517 C642 579 657 590 689 591 L723 591 L723 667 L426 667 L426 591 L462 591 C489 591 504 585 504 574 C504 567 498 556 489 545 L388 435 L305 540 C294 554 290 563 290 572 C290 585 299 591 317 591 L360 591 L360 667 L25 667 L25 591 L57 591 C103 588 118 580 151 537 L300 341 L118 124 C79 80 73 77 31 76 L0 76 L0 0 L330 0 L330 76 Z " />
<glyph glyph-name="Y" unicode="Y" horiz-adv-x="693" d="M530 76 L477 76 C423 75 416 83 416 137 L416 279 L601 547 C627 583 639 590 674 591 L696 591 L696 667 L403 667 L403 591 L461 591 C483 591 493 585 493 572 C493 564 489 553 481 543 L367 381 L258 538 C249 550 245 561 245 570 C245 585 256 591 285 591 L335 591 L335 667 L0 667 L0 591 L31 591 C69 589 87 576 123 523 L276 279 L276 137 C276 83 269 75 215 76 L162 76 L162 0 L530 0 L530 76 Z " />
<glyph glyph-name="Z" unicode="Z" horiz-adv-x="623" d="M38 0 L573 0 L573 302 L501 302 C485 105 458 75 299 76 L198 76 L573 581 L573 667 L57 667 L57 387 L129 387 C133 554 169 595 309 591 L416 591 L38 80 L38 0 Z " />
<glyph glyph-name="bracketleft" unicode="&#x5b;" horiz-adv-x="363" d="M85 -172 L321 -172 L321 -105 L213 -105 L213 600 L321 600 L321 667 L85 667 L85 -172 Z " />
<glyph glyph-name="backslash" unicode="&#x5c;" horiz-adv-x="351" d="M270 -92 L340 -92 L108 686 L38 686 L270 -92 Z " />
<glyph glyph-name="bracketright" unicode="&#x5d;" horiz-adv-x="363" d="M278 -172 L278 667 L42 667 L42 600 L150 600 L150 -105 L42 -105 L42 -172 L278 -172 Z " />
<glyph glyph-name="asciicircum" unicode="&#x5e;" horiz-adv-x="475" d="M125 360 L238 588 L351 360 L455 360 L303 670 L174 670 L21 360 L125 360 Z " />
<glyph glyph-name="underscore" unicode="&#x5f;" horiz-adv-x="500" d="M0 -63 L0 -137 L500 -137 L500 -63 L0 -63 Z " />
<glyph glyph-name="grave" unicode="&#x60;" horiz-adv-x="488" d="M325 540 L190 683 C157 718 138 730 115 730 C84 730 61 707 61 677 C61 653 75 637 111 619 L270 540 L325 540 Z " />
<glyph glyph-name="a" unicode="a" horiz-adv-x="538" d="M478 175 C479 90 472 65 450 65 C435 65 428 76 428 100 L428 308 C428 394 419 421 381 450 C352 472 296 486 234 486 C123 486 49 437 49 363 C49 317 79 285 123 285 C161 285 188 311 188 348 C188 384 170 400 127 403 C154 424 176 432 214 432 C279 432 312 405 312 353 C312 309 291 289 231 273 C161 255 128 244 97 227 C52 204 27 161 27 110 C27 34 81 -18 161 -18 C228 -18 266 1 311 57 C330 3 358 -17 415 -17 C469 -17 503 4 521 48 C531 73 534 97 535 175 L478 175 Z M308 188 C308 144 301 119 281 95 C264 76 241 65 215 65 C181 65 161 86 161 122 C161 156 183 185 220 202 L266 222 C273 225 288 233 308 245 L308 188 Z " />
<glyph glyph-name="b" unicode="b" horiz-adv-x="561" d="M175 60 C228 4 271 -17 338 -17 C402 -17 445 5 482 55 C517 102 532 157 532 235 C532 392 460 486 339 486 C271 486 232 462 190 395 L190 667 L0 667 L0 600 L18 600 C63 599 70 591 70 541 L70 -5 L135 -5 L175 60 Z M297 400 C363 400 396 343 396 230 C396 123 361 66 297 66 C228 66 190 126 190 233 C190 340 228 400 297 400 L297 400 Z " />
<glyph glyph-name="c" unicode="c" horiz-adv-x="486" d="M383 195 C370 106 341 72 277 72 C201 72 163 127 163 235 C163 354 207 421 287 421 C318 421 337 413 372 385 C334 378 317 358 317 323 C317 284 345 257 386 257 C430 257 460 291 460 341 C460 425 382 486 274 486 C127 486 28 383 28 232 C28 81 118 -17 257 -17 C325 -17 378 5 411 48 C439 84 449 119 456 195 L383 195 Z " />
<glyph glyph-name="d" unicode="d" horiz-adv-x="590" d="M275 600 L316 600 C366 598 373 591 373 541 L373 391 C335 462 297 486 226 486 C103 486 33 395 33 236 C33 77 103 -14 226 -14 C297 -14 335 10 373 82 L373 0 L572 0 L572 67 L546 67 C499 69 493 76 493 126 L493 667 L275 667 L275 600 Z M268 400 C335 400 373 340 373 233 C373 126 335 66 268 66 C202 66 169 123 169 236 C169 343 203 400 268 400 L268 400 Z " />
<glyph glyph-name="e" unicode="e" horiz-adv-x="505" d="M393 167 C382 122 372 103 355 87 C337 71 308 62 276 62 C235 62 207 76 187 107 C168 135 161 162 157 225 L475 225 C471 325 458 371 423 416 C387 463 334 486 263 486 C122 486 28 385 28 233 C28 83 121 -18 259 -18 C317 -18 366 -2 404 30 C443 62 459 95 472 167 L393 167 Z M161 295 C176 383 207 420 263 420 C317 420 340 387 350 295 L161 295 Z " />
<glyph glyph-name="f" unicode="f" horiz-adv-x="354" d="M109 398 L109 126 C109 76 102 69 51 67 L24 67 L24 0 L319 0 L319 67 L277 67 C230 70 223 77 223 126 L223 398 L319 398 L319 467 L223 467 L223 535 C223 607 239 633 285 633 C302 633 311 630 325 619 C298 610 285 592 285 564 C285 530 310 506 345 506 C383 506 408 535 408 580 C408 642 353 684 273 684 C163 684 109 617 109 483 L109 467 L24 467 L24 398 L109 398 Z " />
<glyph glyph-name="g" unicode="g" horiz-adv-x="627" d="M206 81 C166 81 150 91 150 114 C150 127 155 135 169 149 C216 136 238 132 272 132 C401 132 480 199 480 308 C480 341 474 362 454 403 C476 433 494 444 517 444 C528 444 535 441 548 431 C516 421 503 405 503 376 C503 342 529 316 564 316 C600 316 626 345 626 388 C626 448 586 486 524 486 C486 486 463 475 430 441 C378 474 338 486 275 486 C147 486 64 416 64 309 C64 256 80 223 128 175 C68 149 44 121 44 76 C44 31 67 5 121 -13 C55 -35 33 -56 33 -99 C33 -171 121 -214 268 -214 C351 -214 425 -200 471 -175 C514 -152 542 -104 542 -53 C542 -7 519 35 482 56 C449 75 412 81 335 81 L206 81 Z M271 428 C325 428 349 391 349 309 C349 230 325 195 271 195 C218 195 195 231 195 315 C195 392 219 428 271 428 L271 428 Z M273 -25 C389 -25 425 -39 425 -84 C425 -132 370 -157 260 -157 C157 -157 106 -135 106 -89 C106 -72 115 -56 131 -45 C150 -31 193 -25 273 -25 L273 -25 Z " />
<glyph glyph-name="h" unicode="h" horiz-adv-x="613" d="M24 600 L48 600 C94 598 100 591 100 541 L100 126 C100 76 94 69 48 67 L24 67 L24 0 L290 0 L290 67 L272 67 C226 69 220 76 220 126 L220 243 C220 300 227 330 246 358 C268 389 299 407 331 407 C354 407 375 397 386 381 C396 366 399 352 399 311 L399 126 C399 76 393 69 347 67 L329 67 L329 0 L596 0 L596 67 L571 67 C525 69 519 76 519 126 L519 311 C519 382 510 418 486 443 C463 468 421 484 380 484 C319 484 279 460 220 387 L220 667 L24 667 L24 600 Z " />
<glyph glyph-name="i" unicode="i" horiz-adv-x="330" d="M162 675 C122 675 88 642 88 603 C88 560 121 527 163 527 C203 527 236 560 236 601 C236 642 203 675 162 675 L162 675 Z M24 0 L310 0 L310 67 L283 67 C236 69 230 77 230 126 L230 469 L24 469 L24 402 L58 402 C106 399 112 393 112 343 L112 126 C112 76 106 70 58 67 L24 67 L24 0 Z " />
<glyph glyph-name="j" unicode="j" horiz-adv-x="308" d="M9 402 L48 402 C99 400 106 392 106 343 L106 -58 C106 -105 104 -120 95 -137 C86 -153 67 -164 48 -164 C38 -164 26 -161 6 -154 C43 -147 58 -132 58 -99 C58 -65 36 -43 3 -43 C-34 -43 -61 -72 -61 -113 C-61 -171 -6 -214 70 -214 C126 -214 174 -192 200 -156 C220 -129 227 -93 227 -26 L227 469 L9 469 L9 402 Z M159 675 C119 675 85 642 85 603 C85 560 118 527 160 527 C200 527 233 560 233 601 C233 642 200 675 159 675 L159 675 Z " />
<glyph glyph-name="k" unicode="k" horiz-adv-x="604" d="M220 241 L220 667 L24 667 L24 600 L49 600 C97 598 103 591 103 541 L103 126 C103 76 97 69 49 67 L24 67 L24 0 L282 0 L282 67 L271 67 C226 69 220 76 220 126 L220 149 L306 223 L381 108 C387 98 392 87 392 82 C392 73 381 67 365 67 L333 67 L333 0 L606 0 L606 67 L584 67 C548 68 523 84 497 123 L385 289 L473 365 C508 395 518 400 555 402 L574 402 L574 469 L292 469 L292 402 L343 402 C370 402 377 399 377 388 C377 381 372 375 360 364 L220 241 Z " />
<glyph glyph-name="l" unicode="l" horiz-adv-x="321" d="M220 667 L19 667 L19 600 L48 600 C95 598 102 591 102 541 L102 126 C102 76 95 69 48 67 L19 67 L19 0 L301 0 L301 67 L273 67 C226 69 220 76 220 126 L220 667 Z " />
<glyph glyph-name="m" unicode="m" horiz-adv-x="877" d="M221 469 L24 469 L24 402 L55 402 C103 400 109 393 109 343 L109 126 C109 76 103 69 55 67 L24 67 L24 0 L286 0 L286 67 L275 67 C227 69 221 76 221 126 L221 277 C221 350 266 407 325 407 C347 407 367 398 376 383 C385 369 387 356 387 311 L387 126 C387 76 381 69 335 67 L325 67 L325 0 L567 0 L567 67 L557 67 C511 69 505 76 505 126 L505 277 C505 350 550 407 607 407 C629 407 648 398 657 383 C666 369 668 356 668 311 L668 126 C668 76 662 69 616 67 L606 67 L606 0 L864 0 L864 67 L838 67 C792 69 786 76 786 126 L786 311 C786 394 780 419 756 445 C733 470 696 484 657 484 C600 484 567 464 500 389 C473 458 439 484 376 484 C316 484 279 462 221 390 L221 469 Z " />
<glyph glyph-name="n" unicode="n" horiz-adv-x="618" d="M24 0 L296 0 L296 67 L277 67 C230 69 223 76 223 126 L223 247 C223 303 229 329 250 358 C271 389 303 407 336 407 C359 407 381 397 392 381 C402 366 405 352 405 311 L405 126 C405 76 399 69 353 67 L335 67 L335 0 L603 0 L603 67 L577 67 C531 69 525 76 525 126 L525 311 C525 382 516 418 492 443 C469 468 426 484 385 484 C323 484 283 460 223 387 L223 469 L24 469 L24 402 L55 402 C103 400 109 393 109 343 L109 126 C109 76 103 69 55 67 L24 67 L24 0 Z " />
<glyph glyph-name="o" unicode="o" horiz-adv-x="557" d="M279 486 C129 486 27 386 27 238 C27 82 125 -17 280 -17 C430 -17 530 83 530 234 C530 386 430 486 279 486 L279 486 Z M279 416 C356 416 394 356 394 234 C394 113 356 53 279 53 C201 53 163 113 163 237 C163 356 202 416 279 416 L279 416 Z " />
<glyph glyph-name="p" unicode="p" horiz-adv-x="590" d="M13 402 L37 402 C86 400 92 393 92 343 L92 -88 C92 -137 85 -144 37 -147 L9 -147 L9 -214 L302 -214 L302 -147 L260 -147 C213 -145 206 -137 206 -88 L206 78 C245 7 283 -17 355 -17 C479 -17 550 74 550 233 C550 392 479 483 355 483 C283 483 245 459 206 387 L206 469 L13 469 L13 402 Z M314 403 C380 403 414 346 414 233 C414 126 379 69 314 69 C245 69 206 129 206 236 C206 343 245 403 314 403 L314 403 Z " />
<glyph glyph-name="q" unicode="q" horiz-adv-x="594" d="M584 -147 L554 -147 C507 -145 500 -137 500 -88 L500 343 C500 393 506 400 554 402 L578 402 L578 469 L386 469 L386 387 C347 459 309 483 237 483 C113 483 42 392 42 233 C42 74 113 -17 236 -17 C309 -17 347 7 386 78 L386 -88 C386 -137 379 -145 332 -147 L290 -147 L290 -214 L584 -214 L584 -147 Z M278 403 C347 403 386 343 386 236 C386 129 347 69 279 69 C212 69 178 126 178 239 C178 346 213 403 278 403 L278 403 Z " />
<glyph glyph-name="r" unicode="r" horiz-adv-x="467" d="M324 67 L277 67 C230 69 223 77 223 126 L223 253 C223 301 234 347 253 377 C273 408 304 429 330 429 C340 429 355 425 372 419 C330 405 314 386 314 352 C314 315 340 291 378 291 C423 291 455 326 455 375 C455 436 408 482 343 482 C292 482 259 459 223 399 L223 469 L24 469 L24 402 L55 402 C103 400 109 393 109 343 L109 126 C109 77 103 70 55 67 L24 67 L24 0 L324 0 L324 67 Z " />
<glyph glyph-name="s" unicode="s" horiz-adv-x="467" d="M28 -6 L91 -6 L107 36 C173 -8 200 -17 259 -17 C370 -17 439 41 439 136 C439 215 391 261 280 289 L195 310 C164 317 147 335 147 360 C147 394 174 415 216 415 C246 415 283 402 305 383 C327 364 338 345 351 302 L415 302 L415 475 L361 475 L341 439 C292 473 257 486 206 486 C102 486 33 427 33 339 C33 266 80 219 178 194 L247 177 C297 165 320 145 320 115 C320 78 290 55 243 55 C214 55 188 62 168 74 C130 97 112 125 97 186 L28 186 L28 -6 Z " />
<glyph glyph-name="t" unicode="t" horiz-adv-x="382" d="M84 400 L84 147 C84 87 89 59 106 32 C126 -1 159 -17 207 -17 C259 -17 300 6 319 46 C335 80 340 114 340 186 L340 221 L278 221 C277 133 276 115 270 99 C263 82 253 75 237 75 C212 75 204 89 204 133 L204 400 L326 400 L326 469 L203 469 L203 653 L143 653 C132 526 104 486 14 465 L14 400 L84 400 Z " />
<glyph glyph-name="u" unicode="u" horiz-adv-x="613" d="M24 402 L47 402 C97 400 104 392 104 343 L104 158 C104 87 113 51 136 26 C158 1 199 -15 238 -15 C297 -15 337 10 394 82 L394 0 L592 0 L592 67 L568 67 C520 69 514 76 514 126 L514 469 L291 469 L291 402 L337 402 C387 400 394 392 394 343 L394 221 C394 167 388 138 369 111 C349 80 319 62 288 62 C266 62 247 72 236 88 C226 103 224 117 224 158 L224 469 L24 469 L24 402 Z " />
<glyph glyph-name="v" unicode="v" horiz-adv-x="524" d="M198 0 L318 0 L432 342 C446 383 461 399 489 402 L513 402 L513 469 L293 469 L293 402 L316 402 C346 402 358 394 358 375 C358 367 356 354 352 344 L276 118 L206 335 C201 351 198 367 198 377 C198 395 208 402 235 402 L250 402 L250 469 L5 469 L5 402 L32 402 C59 400 73 385 83 352 L198 0 Z " />
<glyph glyph-name="w" unicode="w" horiz-adv-x="778" d="M191 0 L304 0 L389 262 L469 0 L580 0 L687 337 C704 389 715 402 740 402 L760 402 L760 469 L564 469 L564 402 L587 402 C607 402 618 393 618 377 C618 366 615 349 608 328 L538 103 L463 348 C460 359 458 371 458 379 C458 395 466 402 487 402 L515 402 L515 469 L287 469 L287 402 L305 402 C337 402 348 395 348 373 C348 366 346 357 341 342 L262 109 L198 338 C193 356 190 370 190 378 C190 396 197 402 220 402 L243 402 L243 469 L9 469 L9 402 L29 402 C62 400 70 391 85 344 L191 0 Z " />
<glyph glyph-name="x" unicode="x" horiz-adv-x="608" d="M5 0 L259 0 L259 67 L223 67 C207 67 196 73 196 81 C196 86 199 90 213 104 L292 178 L360 105 C368 95 373 87 373 81 C373 72 360 67 337 67 L317 67 L317 0 L597 0 L597 67 L578 67 C550 67 531 78 490 120 L369 252 L473 352 C509 388 527 398 564 402 L583 402 L583 469 L344 469 L344 402 L364 402 C384 402 395 397 395 388 C395 381 390 374 375 359 L317 303 L263 365 C251 379 249 383 249 388 C249 397 259 402 276 402 L296 402 L296 469 L24 469 L24 402 L43 402 C79 400 97 390 128 355 L239 231 L108 107 C80 81 50 66 28 67 L5 67 L5 0 Z " />
<glyph glyph-name="y" unicode="y" horiz-adv-x="552" d="M241 0 C196 -115 168 -149 116 -149 C96 -149 86 -144 68 -125 C115 -125 138 -106 138 -66 C138 -28 111 0 73 0 C27 0 -5 -36 -5 -88 C-5 -161 51 -214 127 -214 C220 -214 264 -160 347 56 L452 331 C475 385 490 400 522 402 L543 402 L543 469 L315 469 L315 402 L340 402 C370 402 383 395 383 378 C383 370 381 360 376 347 L298 140 L211 356 C208 364 206 372 206 380 C206 395 217 402 238 402 L271 402 L271 469 L-3 469 L-3 402 L25 402 C61 400 76 387 96 342 L241 0 Z " />
<glyph glyph-name="z" unicode="z" horiz-adv-x="476" d="M19 0 L437 0 L437 224 L370 224 C363 85 347 66 236 67 L154 67 L437 394 L437 469 L38 469 L38 262 L105 262 C108 377 126 402 207 402 L306 402 L19 73 L19 0 Z " />
<glyph glyph-name="braceleft" unicode="&#x7b;" horiz-adv-x="363" d="M218 522 C219 577 220 582 234 594 C247 605 258 607 302 607 C305 607 315 607 325 606 L325 669 C282 671 270 671 255 671 C130 671 90 637 90 529 L90 358 C89 303 77 282 40 272 L40 212 C78 201 90 179 90 122 L90 -41 C90 -151 130 -187 252 -187 C274 -187 293 -187 325 -185 L325 -122 C315 -123 306 -123 302 -123 C264 -123 247 -120 236 -112 C220 -101 219 -95 218 -37 L218 119 C217 184 202 215 158 242 C203 269 216 295 218 365 L218 522 Z " />
<glyph glyph-name="bar" unicode="&#x7c;" horiz-adv-x="481" d="M179 667 L179 -167 L301 -167 L301 667 L179 667 Z " />
<glyph glyph-name="braceright" unicode="&#x7d;" horiz-adv-x="363" d="M146 -39 C145 -94 144 -98 130 -110 C117 -121 105 -123 61 -123 C58 -123 48 -123 38 -122 L38 -185 C83 -187 95 -187 109 -187 C234 -187 274 -153 274 -45 L274 126 C275 181 287 202 323 211 L323 272 C286 282 274 304 274 362 L274 525 C274 635 234 671 112 671 C87 671 69 670 38 669 L38 606 C48 607 58 607 61 607 C100 607 117 604 128 596 C144 584 145 579 146 521 L146 365 C147 299 162 268 206 242 C161 215 148 189 146 119 L146 -39 Z " />
<glyph glyph-name="asciitilde" unicode="&#x7e;" horiz-adv-x="657" d="M150 564 C178 613 198 630 228 630 C249 630 263 625 321 600 C388 570 403 565 428 565 C488 565 530 603 571 693 L510 743 C483 695 461 676 431 676 C410 676 399 680 343 705 C286 732 259 740 232 740 C172 740 126 700 89 613 L150 564 Z " />
<glyph glyph-name="uni00A0" unicode="&#xa0;" horiz-adv-x="250" d="" />
<glyph glyph-name="exclamdown" unicode="&#xa1;" horiz-adv-x="292" d="M146 484 C108 484 77 451 77 410 C77 369 108 336 146 336 C185 336 217 369 217 408 C217 451 186 484 146 484 L146 484 Z M118 277 C109 171 105 128 88 -9 C75 -116 75 -119 75 -142 C75 -196 97 -220 145 -220 C192 -220 215 -195 215 -142 C215 -120 215 -118 203 -9 C184 161 183 170 176 277 L118 277 Z " />
<glyph glyph-name="cent" unicode="&#xa2;" horiz-adv-x="590" d="M137 -99 L193 -99 L243 5 C267 2 292 0 304 0 C368 0 425 26 458 71 C482 104 493 138 500 212 L426 212 C419 169 414 151 401 131 C384 106 354 90 323 90 C313 90 300 91 286 93 L382 290 C401 277 410 274 427 274 C473 274 503 309 503 361 C503 394 494 414 463 453 L519 569 L464 569 L421 482 C377 499 356 504 320 504 C171 504 71 402 71 250 C71 200 82 152 101 114 C119 77 141 56 196 21 L137 -99 Z M242 116 C214 155 206 184 206 253 C206 372 251 438 330 438 C361 438 380 430 415 402 C390 396 387 394 369 375 L242 116 Z " />
<glyph glyph-name="sterling" unicode="&#xa3;" horiz-adv-x="590" d="M77 -14 C124 32 154 47 197 47 C227 47 256 39 302 17 C361 -10 382 -17 413 -17 C464 -17 506 10 527 56 C543 92 548 118 548 182 C548 182 547 189 547 195 L496 195 C491 124 476 98 440 98 C426 98 420 100 370 123 C337 138 301 148 276 148 C255 148 234 142 192 122 L189 129 C239 162 268 211 270 270 L383 270 L383 329 L263 329 C230 438 230 438 230 465 C230 520 274 559 335 559 C374 559 396 549 434 515 C397 499 385 482 385 453 C385 415 415 386 456 386 C502 386 536 422 536 472 C536 557 440 621 310 621 C177 621 84 552 84 454 C84 420 92 391 121 329 L46 329 L46 270 L139 270 C141 170 122 130 42 66 L77 -14 Z " />
<glyph glyph-name="currency" unicode="&#xa4;" horiz-adv-x="633" d="M30 133 L88 72 L183 172 C232 138 271 125 318 125 C366 125 408 140 452 172 L548 72 L605 133 L510 234 C541 283 553 322 553 372 C553 422 540 461 508 512 L603 612 L545 673 L450 573 C405 605 366 618 318 618 C269 618 230 605 183 572 L87 673 L29 612 L126 511 C95 464 82 423 82 373 C82 322 96 277 125 233 L30 133 Z M319 518 C391 518 451 452 451 372 C451 291 391 225 317 225 C244 225 184 291 184 371 C184 453 243 518 319 518 L319 518 Z " />
<glyph glyph-name="yen" unicode="&#xa5;" horiz-adv-x="687" d="M279 203 L279 125 C279 75 273 68 224 69 L176 69 L176 0 L510 0 L510 69 L461 69 C412 68 406 75 406 125 L406 203 L570 203 L570 261 L411 261 L449 316 L577 316 L577 374 L489 374 L574 496 C599 529 609 535 641 536 L661 536 L661 605 L394 605 L394 536 L447 536 C467 536 476 531 476 519 C476 512 472 501 466 492 L361 345 L263 487 C255 498 251 508 251 516 C251 531 260 536 288 536 L333 536 L333 605 L29 605 L29 536 L57 536 C90 535 110 520 141 474 L204 374 L109 374 L109 316 L240 316 L274 261 L116 261 L116 203 L279 203 Z " />
<glyph glyph-name="brokenbar" unicode="&#xa6;" horiz-adv-x="481" d="M179 667 L179 322 L301 322 L301 667 L179 667 Z M179 153 L179 -167 L301 -167 L301 153 L179 153 Z " />
<glyph glyph-name="section" unicode="&#xa7;" horiz-adv-x="561" d="M261 458 C198 483 176 506 176 548 C176 599 222 634 290 634 C318 634 336 630 372 616 C349 597 340 581 340 559 C340 526 369 498 404 498 C441 498 468 529 468 571 C468 639 394 687 290 687 C165 687 81 622 81 526 C81 474 101 441 161 396 C77 360 42 314 42 245 C42 200 61 158 94 133 C121 113 157 95 218 72 L294 44 C358 21 382 -6 382 -52 C382 -88 370 -113 344 -131 C319 -148 286 -157 252 -157 C220 -157 201 -151 159 -130 C194 -112 203 -99 203 -68 C203 -32 175 -6 138 -6 C98 -6 67 -40 67 -83 C67 -156 154 -214 264 -214 C393 -214 483 -138 483 -29 C483 28 462 60 396 104 C437 125 453 136 471 153 C498 180 514 217 514 254 C514 322 466 378 379 412 L261 458 Z M196 196 C154 214 136 237 136 274 C136 322 167 351 227 360 L347 313 C395 294 418 266 418 224 C418 179 391 153 330 139 L196 196 Z " />
<glyph glyph-name="dieresis" unicode="&#xa8;" horiz-adv-x="482" d="M153 699 C115 699 82 667 82 630 C82 591 113 560 153 560 C191 560 221 590 221 629 C221 668 190 699 153 699 L153 699 Z M333 699 C295 699 262 667 262 630 C262 591 293 560 333 560 C371 560 401 590 401 629 C401 668 370 699 333 699 L333 699 Z " />
<glyph glyph-name="copyright" unicode="&#xa9;" horiz-adv-x="751" d="M482 294 C469 221 442 190 391 190 C326 190 289 241 289 331 C289 425 327 482 390 482 C417 482 442 470 459 449 C474 430 481 412 487 370 L534 370 L534 529 L490 529 L480 497 C439 526 416 534 376 534 C273 534 193 446 193 334 C193 217 271 132 380 132 C431 132 471 149 498 184 C520 212 528 237 534 294 L482 294 Z M381 681 C187 681 34 528 34 333 C34 142 188 -14 377 -14 C565 -14 718 141 718 333 C718 523 565 681 381 681 L381 681 Z M380 625 C529 625 653 493 653 334 C653 173 529 42 377 42 C224 42 99 173 99 333 C99 497 223 625 380 625 L380 625 Z " />
<glyph glyph-name="ordfeminine" unicode="&#xaa;" horiz-adv-x="345" d="M301 438 C300 409 299 394 299 392 C298 379 294 373 287 373 C279 373 276 378 276 390 L276 513 C276 566 270 582 245 600 C226 614 191 622 150 622 C79 622 31 591 31 545 C31 516 52 496 81 496 C107 496 125 513 125 536 C125 557 115 568 92 572 C105 580 119 584 138 584 C176 584 196 569 196 541 C196 516 184 505 147 497 C47 473 17 449 17 396 C17 349 53 317 105 317 C146 317 171 328 198 359 C211 329 229 318 264 318 C299 318 322 331 334 358 C341 373 343 388 343 438 L301 438 Z M194 443 C194 399 174 373 139 373 C119 373 108 384 108 404 C108 422 121 438 143 447 L172 459 C175 461 183 465 194 471 L194 443 Z " />
<glyph glyph-name="guillemotleft" unicode="&#xab;" horiz-adv-x="458" d="M145 72 L213 72 L186 139 C177 160 164 221 164 237 C164 254 177 315 186 336 L213 403 L145 403 L107 346 C76 299 57 257 57 238 C57 218 76 176 107 129 L145 72 Z M330 72 L398 72 L371 139 C363 160 349 221 349 237 C349 254 363 315 371 336 L398 403 L330 403 L292 346 C261 298 242 257 242 238 C242 218 261 177 292 129 L330 72 Z " />
<glyph glyph-name="logicalnot" unicode="&#xac;" horiz-adv-x="475" d="M326 0 L444 0 L444 286 L32 286 L32 179 L326 179 L326 0 Z " />
<glyph glyph-name="uni00AD" unicode="&#xad;" horiz-adv-x="256" d="M0 184 L256 184 L256 290 L0 290 L0 184 Z " />
<glyph glyph-name="registered" unicode="&#xae;" horiz-adv-x="751" d="M389 192 L361 192 C332 192 330 194 330 223 L330 320 L352 320 C413 320 429 305 431 247 L433 204 C434 158 461 132 505 132 C563 132 583 161 583 241 L583 256 L542 256 C542 202 540 193 528 193 C519 193 517 199 515 222 L513 255 C512 304 497 325 455 336 C515 348 544 379 544 430 C544 493 500 523 408 523 L189 523 L189 474 L212 474 C240 474 243 472 243 443 L243 223 C243 195 241 192 212 192 L189 192 L189 143 L389 143 L389 192 Z M330 369 L330 474 L387 474 C437 474 454 461 454 422 C454 384 435 369 388 369 L330 369 Z M381 681 C187 681 34 528 34 333 C34 142 188 -14 377 -14 C565 -14 718 141 718 333 C718 523 565 681 381 681 L381 681 Z M380 625 C529 625 653 493 653 334 C653 173 529 42 377 42 C224 42 99 173 99 333 C99 497 223 625 380 625 L380 625 Z " />
<glyph glyph-name="macron" unicode="&#xaf;" horiz-adv-x="490" d="M96 588 L394 588 L394 670 L96 670 L96 588 Z " />
<glyph glyph-name="degree" unicode="&#xb0;" horiz-adv-x="400" d="M203 686 C117 686 50 619 50 534 C50 448 116 381 200 381 C284 381 350 448 350 533 C350 619 286 686 203 686 L203 686 Z M202 629 C252 629 293 586 293 534 C293 480 252 438 200 438 C148 438 106 481 106 533 C106 587 148 629 202 629 L202 629 Z " />
<glyph glyph-name="plusminus" unicode="&#xb1;" horiz-adv-x="549" d="M11 55 L11 0 L535 0 L535 55 L11 55 Z M302 662 L247 662 L247 423 L10 423 L10 368 L247 368 L247 129 L302 129 L302 368 L539 368 L539 423 L302 423 L302 662 Z " />
<glyph glyph-name="twosuperior" unicode="&#xb2;" horiz-adv-x="373" d="M66 264 C70 293 78 302 99 302 C109 302 122 299 132 294 C195 264 216 257 248 257 C277 257 301 270 317 295 C333 318 337 340 338 388 L304 388 C298 338 288 325 256 325 C249 325 240 326 208 332 C177 338 140 343 128 343 C113 343 103 340 82 328 C105 369 133 384 213 401 C296 419 328 447 328 505 C328 571 268 615 178 615 C101 615 39 570 39 513 C39 480 63 455 96 455 C124 455 144 473 144 498 C144 520 128 536 105 536 C99 536 92 535 83 533 C99 564 120 576 155 576 C201 576 233 549 233 510 C233 476 216 456 171 437 C60 390 28 351 31 264 L66 264 Z " />
<glyph glyph-name="threesuperior" unicode="&#xb3;" horiz-adv-x="373" d="M146 427 C179 427 194 425 209 417 C228 409 240 386 240 361 C240 321 207 296 155 296 C123 296 104 303 80 322 C112 323 129 336 129 363 C129 388 110 405 81 405 C50 405 28 383 28 352 C28 297 88 257 170 257 C271 257 335 298 335 361 C335 385 324 408 306 422 C289 435 273 441 236 449 C269 457 283 462 297 472 C314 484 325 505 325 527 C325 580 270 615 185 615 C103 615 41 577 41 528 C41 501 61 482 91 482 C118 482 137 499 137 523 C137 543 125 554 100 558 C127 575 140 579 164 579 C207 579 235 556 235 522 C235 501 225 485 207 476 C194 470 181 469 146 468 L146 427 Z " />
<glyph glyph-name="acute" unicode="&#xb4;" horiz-adv-x="488" d="M141 540 L196 540 L354 619 C391 637 405 653 405 677 C405 707 382 730 352 730 C328 730 309 718 276 683 L141 540 Z " />
<glyph glyph-name="mu" unicode="&#xb5;" horiz-adv-x="576" d="M442 500 L353 500 L354 131 C318 80 284 58 242 58 C184 58 150 99 150 169 L150 500 L62 500 L62 20 C62 -1 58 -26 51 -56 C34 -118 33 -123 33 -147 C33 -190 54 -219 83 -219 C112 -219 132 -189 132 -145 C132 -124 129 -110 113 -53 C102 -17 101 -8 101 21 L101 33 C143 -3 165 -13 200 -13 C250 -13 301 18 354 80 C362 48 367 36 377 21 C392 0 419 -13 449 -13 C510 -13 553 31 567 108 L540 109 C536 71 515 41 492 41 C462 41 442 77 442 131 L442 500 Z " />
<glyph glyph-name="paragraph" unicode="&#xb6;" horiz-adv-x="572" d="M210 -94 L305 -94 L305 581 L385 581 L385 -94 L480 -94 L480 581 L542 581 L542 667 L245 667 C189 667 137 657 107 640 C57 611 28 557 28 490 C28 389 97 319 198 319 C199 319 205 319 210 320 L210 -94 Z " />
<glyph glyph-name="periodcentered" unicode="&#xb7;" horiz-adv-x="292" d="M146 308 C107 308 75 275 75 236 C75 194 106 161 146 161 C184 161 215 194 215 235 C215 275 184 308 146 308 L146 308 Z " />
<glyph glyph-name="cedilla" unicode="&#xb8;" horiz-adv-x="474" d="M110 -182 C175 -214 218 -227 262 -227 C325 -227 365 -192 365 -136 C365 -88 333 -53 290 -53 C278 -53 265 -54 251 -56 L251 0 L209 0 L209 -99 C219 -97 230 -96 236 -96 C262 -96 276 -110 276 -135 C276 -158 261 -171 236 -171 C205 -171 170 -158 132 -132 L110 -182 Z " />
<glyph glyph-name="onesuperior" unicode="&#xb9;" horiz-adv-x="373" d="M85 267 L309 267 L309 307 L279 307 C243 307 239 310 239 339 L239 609 L189 609 C166 570 150 563 85 557 L85 518 L158 518 L158 340 C158 311 152 307 111 307 L85 307 L85 267 Z " />
<glyph glyph-name="ordmasculine" unicode="&#xba;" horiz-adv-x="357" d="M179 621 C82 621 17 561 17 472 C17 378 80 318 179 318 C276 318 340 379 340 469 C340 561 276 621 179 621 L179 621 Z M178 573 C225 573 248 539 248 469 C248 400 225 366 179 366 C131 366 109 400 109 471 C109 539 132 573 178 573 L178 573 Z " />
<glyph glyph-name="guillemotright" unicode="&#xbb;" horiz-adv-x="458" d="M125 72 L162 129 C194 177 213 218 213 238 C213 257 194 298 162 346 L125 403 L57 403 L84 336 C93 314 106 255 106 237 C106 220 93 161 84 139 L57 72 L125 72 Z M310 72 L348 129 C379 177 398 218 398 238 C398 257 379 298 348 346 L310 403 L242 403 L269 336 C278 315 291 255 291 237 C291 220 278 160 269 139 L242 72 L310 72 Z " />
<glyph glyph-name="onequarter" unicode="&#xbc;" horiz-adv-x="901" d="M85 267 L309 267 L309 307 L279 307 C243 307 239 310 239 339 L239 609 L189 609 C166 570 150 563 85 557 L85 518 L158 518 L158 340 C158 311 152 307 111 307 L85 307 L85 267 Z M217 -17 L289 -17 L689 622 L614 622 L217 -17 Z M662 0 L872 0 L872 40 L839 40 C808 42 803 47 803 70 L803 94 L872 94 L872 142 L803 142 L803 342 L746 342 L547 136 L547 94 L728 94 L728 70 C728 44 724 40 683 40 L662 40 L662 0 Z M728 142 L612 142 L730 264 L728 142 Z " />
<glyph glyph-name="onehalf" unicode="&#xbd;" horiz-adv-x="901" d="M85 267 L309 267 L309 307 L279 307 C243 307 239 310 239 339 L239 609 L189 609 C166 570 150 563 85 557 L85 518 L158 518 L158 340 C158 311 152 307 111 307 L85 307 L85 267 Z M217 -17 L289 -17 L689 622 L614 622 L217 -17 Z M591 -2 C596 26 604 35 624 35 C635 35 648 32 658 27 C718 -2 742 -9 774 -9 C803 -9 827 4 843 28 C858 52 863 73 863 121 L830 121 C824 72 814 58 782 58 C775 58 765 59 734 65 C703 71 666 76 654 76 C639 76 628 73 607 62 C630 101 660 118 739 134 C822 151 854 180 854 238 C854 304 794 348 704 348 C627 348 565 303 565 246 C565 213 589 188 621 188 C649 188 669 206 669 231 C669 253 653 269 631 269 C625 269 617 268 608 266 C625 297 646 309 681 309 C727 309 759 282 759 243 C759 209 742 189 697 170 C586 124 553 84 557 -2 L591 -2 Z " />
<glyph glyph-name="threequarters" unicode="&#xbe;" horiz-adv-x="901" d="M146 427 C179 427 194 425 209 417 C228 409 240 386 240 361 C240 321 207 296 155 296 C123 296 104 303 80 322 C112 323 129 336 129 363 C129 388 110 405 81 405 C50 405 28 383 28 352 C28 297 88 257 170 257 C271 257 335 298 335 361 C335 385 324 408 306 422 C289 435 273 441 236 449 C269 457 283 462 297 472 C314 484 325 505 325 527 C325 580 270 615 185 615 C103 615 41 577 41 528 C41 501 61 482 91 482 C118 482 137 499 137 523 C137 543 125 554 100 558 C127 575 140 579 164 579 C207 579 235 556 235 522 C235 501 225 485 207 476 C194 470 181 469 146 468 L146 427 Z M217 -17 L289 -17 L689 622 L614 622 L217 -17 Z M662 0 L872 0 L872 40 L838 40 C807 42 802 47 802 70 L802 94 L872 94 L872 142 L802 142 L802 342 L745 342 L547 136 L547 94 L727 94 L727 70 C728 44 723 40 683 40 L662 40 L662 0 Z M727 142 L612 142 L729 264 L727 142 Z " />
<glyph glyph-name="questiondown" unicode="&#xbf;" horiz-adv-x="472" d="M261 483 C223 483 192 450 192 409 C192 369 223 336 261 336 C300 336 332 369 332 408 C332 450 301 483 261 483 L261 483 Z M230 277 C228 220 215 196 166 157 C89 98 89 98 66 74 C34 41 19 5 19 -38 C19 -144 110 -220 237 -220 C362 -220 451 -143 451 -36 C451 34 409 87 355 87 C311 87 276 53 276 10 C276 -27 302 -55 336 -55 C354 -55 366 -49 389 -31 C385 -76 377 -95 354 -116 C333 -136 305 -147 275 -147 C208 -147 161 -102 161 -37 C161 4 171 23 221 83 C278 150 291 180 291 239 C291 246 291 260 290 277 L230 277 Z " />
<glyph glyph-name="Agrave" unicode="&#xc0;" horiz-adv-x="679" d="M-14 0 L281 0 L281 76 L231 76 C190 76 181 80 181 98 C181 104 184 116 188 129 L216 212 L424 212 L451 134 C457 118 460 107 460 101 C460 81 449 76 407 76 L356 76 L356 0 L683 0 L683 76 L664 76 C616 76 607 84 588 140 L399 667 L266 667 L90 140 C75 91 55 76 6 76 L-14 76 L-14 0 Z M398 290 L242 290 L317 522 L398 290 Z M378 721 L432 721 L295 842 C273 862 260 868 244 868 C219 868 198 847 198 822 C198 801 214 782 241 772 L378 721 Z " />
<glyph glyph-name="Aacute" unicode="&#xc1;" horiz-adv-x="679" d="M-14 0 L281 0 L281 76 L231 76 C190 76 181 80 181 98 C181 104 184 116 188 129 L216 212 L424 212 L451 134 C457 118 460 107 460 101 C460 81 449 76 407 76 L356 76 L356 0 L683 0 L683 76 L664 76 C616 76 607 84 588 140 L399 667 L266 667 L90 140 C75 91 55 76 6 76 L-14 76 L-14 0 Z M398 290 L242 290 L317 522 L398 290 Z M302 721 L440 772 C466 782 483 801 483 822 C483 847 462 868 437 868 C421 868 408 862 386 842 L248 721 L302 721 Z " />
<glyph glyph-name="Acircumflex" unicode="&#xc2;" horiz-adv-x="679" d="M-14 0 L281 0 L281 76 L231 76 C190 76 181 80 181 98 C181 104 184 116 188 129 L216 212 L424 212 L451 134 C457 118 460 107 460 101 C460 81 449 76 407 76 L356 76 L356 0 L683 0 L683 76 L664 76 C616 76 607 84 588 140 L399 667 L266 667 L90 140 C75 91 55 76 6 76 L-14 76 L-14 0 Z M398 290 L242 290 L317 522 L398 290 Z M186 721 L232 721 L340 776 L447 721 L494 721 L398 858 L282 858 L186 721 Z " />
<glyph glyph-name="Atilde" unicode="&#xc3;" horiz-adv-x="679" d="M-14 0 L281 0 L281 76 L231 76 C190 76 181 80 181 98 C181 104 184 116 188 129 L216 212 L424 212 L451 134 C457 118 460 107 460 101 C460 81 449 76 407 76 L356 76 L356 0 L683 0 L683 76 L664 76 C616 76 607 84 588 140 L399 667 L266 667 L90 140 C75 91 55 76 6 76 L-14 76 L-14 0 Z M398 290 L242 290 L317 522 L398 290 Z M227 720 C235 748 248 761 269 761 C277 761 287 759 299 756 L354 741 C364 739 376 737 385 737 C412 737 435 748 453 769 C472 790 480 810 491 858 L453 858 C442 828 432 818 409 818 C404 818 396 819 388 821 L332 836 C320 839 308 841 295 841 C237 841 208 808 189 720 L227 720 Z " />
<glyph glyph-name="Adieresis" unicode="&#xc4;" horiz-adv-x="679" d="M-14 0 L281 0 L281 76 L231 76 C190 76 181 80 181 98 C181 104 184 116 188 129 L216 212 L424 212 L451 134 C457 118 460 107 460 101 C460 81 449 76 407 76 L356 76 L356 0 L683 0 L683 76 L664 76 C616 76 607 84 588 140 L399 667 L266 667 L90 140 C75 91 55 76 6 76 L-14 76 L-14 0 Z M398 290 L242 290 L317 522 L398 290 Z M248 858 C212 858 180 826 180 791 C180 752 210 722 249 722 C285 722 316 753 316 789 C316 826 285 858 248 858 L248 858 Z M425 858 C389 858 357 826 357 791 C357 752 387 722 426 722 C462 722 493 753 493 789 C493 826 462 858 425 858 L425 858 Z " />
<glyph glyph-name="Aring" unicode="&#xc5;" horiz-adv-x="679" d="M-14 0 L281 0 L281 76 L231 76 C190 76 181 80 181 98 C181 104 184 116 188 129 L216 212 L424 212 L451 134 C457 118 460 107 460 101 C460 81 449 76 407 76 L356 76 L356 0 L683 0 L683 76 L664 76 C616 76 607 84 588 140 L399 667 L266 667 L90 140 C75 91 55 76 6 76 L-14 76 L-14 0 Z M398 290 L242 290 L317 522 L398 290 Z M332 932 C272 932 223 885 223 828 C223 766 272 716 332 716 C390 716 440 767 440 826 C440 885 392 932 332 932 L332 932 Z M332 873 C358 873 381 851 381 824 C381 798 359 776 332 776 C304 776 282 798 282 825 C282 851 305 873 332 873 L332 873 Z " />
<glyph glyph-name="AE" unicode="&#xc6;" horiz-adv-x="1043" d="M254 234 L446 234 L446 138 C446 83 439 75 386 76 L343 76 L343 0 L970 0 L970 283 L898 283 C885 113 857 75 746 76 L583 76 L583 310 L619 310 C696 312 710 293 717 174 L788 174 L788 507 L717 507 C708 398 700 388 618 386 L583 386 L583 591 L732 591 C862 593 893 558 898 402 L970 402 L970 667 L209 667 L209 591 L254 591 C298 591 311 586 311 568 C311 560 309 554 296 529 L96 140 C71 97 39 76 1 76 L-14 76 L-14 0 L274 0 L274 76 L229 76 C201 76 188 81 188 93 C188 101 192 110 207 141 L254 234 Z M446 310 L292 310 L428 591 L446 591 L446 310 Z " />
<glyph glyph-name="Ccedilla" unicode="&#xc7;" horiz-adv-x="670" d="M349 -19 C517 -17 605 74 620 258 L540 258 C527 186 515 155 488 123 C459 90 419 72 373 72 C318 72 267 98 235 142 C204 186 189 247 189 330 C189 501 258 605 372 605 C422 605 467 583 498 544 C525 510 536 478 548 404 L620 404 L620 677 L553 677 L534 617 C460 671 420 686 348 686 C171 686 33 532 33 334 C33 149 144 6 307 -16 L307 -101 C318 -99 329 -98 335 -98 C360 -98 375 -113 375 -136 C375 -158 360 -171 335 -171 C304 -171 268 -158 229 -132 L207 -182 C274 -214 316 -227 361 -227 C424 -227 465 -191 465 -137 C465 -91 431 -55 388 -55 C377 -55 364 -56 349 -59 L349 -19 Z " />
<glyph glyph-name="Egrave" unicode="&#xc8;" horiz-adv-x="712" d="M24 0 L647 0 L647 283 L575 283 C561 113 534 75 422 76 L260 76 L260 310 L296 310 C373 311 386 294 393 174 L464 174 L464 507 L393 507 C385 398 377 388 295 386 L260 386 L260 591 L409 591 C538 593 569 558 575 402 L647 402 L647 667 L24 667 L24 591 L60 591 C113 592 120 584 120 529 L120 138 C120 83 113 75 60 76 L24 76 L24 0 Z M395 721 L449 721 L312 842 C290 861 277 868 260 868 C235 868 214 847 214 822 C214 801 230 782 258 772 L395 721 Z " />
<glyph glyph-name="Eacute" unicode="&#xc9;" horiz-adv-x="712" d="M24 0 L647 0 L647 283 L575 283 C561 113 534 75 422 76 L260 76 L260 310 L296 310 C373 311 386 294 393 174 L464 174 L464 507 L393 507 C385 398 377 388 295 386 L260 386 L260 591 L409 591 C538 593 569 558 575 402 L647 402 L647 667 L24 667 L24 591 L60 591 C113 592 120 584 120 529 L120 138 C120 83 113 75 60 76 L24 76 L24 0 Z M319 721 L457 772 C484 782 500 801 500 822 C500 847 479 868 454 868 C438 868 425 861 403 842 L265 721 L319 721 Z " />
<glyph glyph-name="Ecircumflex" unicode="&#xca;" horiz-adv-x="712" d="M24 0 L647 0 L647 283 L575 283 C561 113 534 75 422 76 L260 76 L260 310 L296 310 C373 311 386 294 393 174 L464 174 L464 507 L393 507 C385 398 377 388 295 386 L260 386 L260 591 L409 591 C538 593 569 558 575 402 L647 402 L647 667 L24 667 L24 591 L60 591 C113 592 120 584 120 529 L120 138 C120 83 113 75 60 76 L24 76 L24 0 Z M202 721 L249 721 L356 776 L464 721 L511 721 L414 858 L299 858 L202 721 Z " />
<glyph glyph-name="Edieresis" unicode="&#xcb;" horiz-adv-x="712" d="M24 0 L647 0 L647 283 L575 283 C561 113 534 75 422 76 L260 76 L260 310 L296 310 C373 311 386 294 393 174 L464 174 L464 507 L393 507 C385 398 377 388 295 386 L260 386 L260 591 L409 591 C538 593 569 558 575 402 L647 402 L647 667 L24 667 L24 591 L60 591 C113 592 120 584 120 529 L120 138 C120 83 113 75 60 76 L24 76 L24 0 Z M268 858 C232 858 200 826 200 791 C200 752 230 722 269 722 C305 722 336 753 336 789 C336 826 305 858 268 858 L268 858 Z M445 858 C409 858 377 826 377 791 C377 752 407 722 446 722 C482 722 513 753 513 789 C513 826 482 858 445 858 L445 858 Z " />
<glyph glyph-name="Igrave" unicode="&#xcc;" horiz-adv-x="392" d="M25 0 L366 0 L366 76 L327 76 C273 75 266 83 266 137 L266 530 C266 584 273 592 327 591 L366 591 L366 667 L25 667 L25 591 L64 591 C117 592 124 584 124 530 L124 137 C124 83 117 75 64 76 L25 76 L25 0 Z M234 721 L288 721 L151 842 C129 861 116 868 99 868 C74 868 53 847 53 822 C53 801 69 782 97 772 L234 721 Z " />
<glyph glyph-name="Iacute" unicode="&#xcd;" horiz-adv-x="392" d="M25 0 L366 0 L366 76 L327 76 C273 75 266 83 266 137 L266 530 C266 584 273 592 327 591 L366 591 L366 667 L25 667 L25 591 L64 591 C117 592 124 584 124 530 L124 137 C124 83 117 75 64 76 L25 76 L25 0 Z M158 721 L296 772 C323 782 339 801 339 822 C339 847 318 868 293 868 C277 868 264 861 242 842 L104 721 L158 721 Z " />
<glyph glyph-name="Icircumflex" unicode="&#xce;" horiz-adv-x="392" d="M25 0 L366 0 L366 76 L327 76 C273 75 266 83 266 137 L266 530 C266 584 273 592 327 591 L366 591 L366 667 L25 667 L25 591 L64 591 C117 592 124 584 124 530 L124 137 C124 83 117 75 64 76 L25 76 L25 0 Z M41 721 L88 721 L195 776 L303 721 L350 721 L253 858 L138 858 L41 721 Z " />
<glyph glyph-name="Idieresis" unicode="&#xcf;" horiz-adv-x="392" d="M25 0 L366 0 L366 76 L327 76 C273 75 266 83 266 137 L266 530 C266 584 273 592 327 591 L366 591 L366 667 L25 667 L25 591 L64 591 C117 592 124 584 124 530 L124 137 C124 83 117 75 64 76 L25 76 L25 0 Z M110 858 C74 858 42 826 42 791 C42 752 72 722 111 722 C147 722 178 753 178 789 C178 826 147 858 110 858 L110 858 Z M281 858 C245 858 213 826 213 791 C213 752 243 722 282 722 C318 722 349 753 349 789 C349 826 318 858 281 858 L281 858 Z " />
<glyph glyph-name="Eth" unicode="&#xd0;" horiz-adv-x="769" d="M25 0 L386 0 C606 0 721 114 721 333 C721 553 606 667 386 667 L25 667 L25 591 L60 591 C114 592 121 584 121 530 L121 377 L0 377 L0 308 L121 308 L121 137 C121 83 114 75 60 76 L25 76 L25 0 Z M261 76 L261 308 L417 308 L417 377 L261 377 L261 591 L342 591 C436 591 478 578 510 538 C545 494 565 420 565 333 C565 247 545 173 510 129 C478 89 436 76 342 76 L261 76 Z " />
<glyph glyph-name="Ntilde" unicode="&#xd1;" horiz-adv-x="774" d="M665 0 L665 530 C665 584 672 592 726 591 L756 591 L756 667 L457 667 L457 591 L500 591 C553 592 560 584 560 530 L560 183 L284 667 L13 667 L13 591 L52 591 C106 592 113 584 113 530 L113 137 C113 83 106 75 52 76 L9 76 L9 0 L321 0 L321 76 L279 76 C225 75 218 83 218 137 L218 543 L527 0 L665 0 Z M273 720 C281 748 295 761 315 761 C323 761 334 759 346 756 L401 741 C411 739 423 737 432 737 C458 737 481 748 500 769 C518 790 527 810 537 858 L499 858 C489 828 478 818 456 818 C450 818 442 819 435 821 L379 836 C367 839 354 841 342 841 C284 841 255 808 236 720 L273 720 Z " />
<glyph glyph-name="Ograve" unicode="&#xd2;" horiz-adv-x="764" d="M383 686 C176 686 34 544 34 339 C34 225 67 139 137 73 C200 11 282 -19 383 -19 C591 -19 731 123 731 334 C731 545 591 686 383 686 L383 686 Z M383 607 C443 607 493 580 528 529 C560 481 575 420 575 333 C575 161 504 60 383 60 C321 60 271 87 237 138 C204 188 190 247 190 337 C190 506 262 607 383 607 L383 607 Z M421 721 L475 721 L338 842 C316 862 303 868 286 868 C261 868 240 847 240 822 C240 801 256 782 283 772 L421 721 Z " />
<glyph glyph-name="Oacute" unicode="&#xd3;" horiz-adv-x="764" d="M383 686 C176 686 34 544 34 339 C34 225 67 139 137 73 C200 11 282 -19 383 -19 C591 -19 731 123 731 334 C731 545 591 686 383 686 L383 686 Z M383 607 C443 607 493 580 528 529 C560 481 575 420 575 333 C575 161 504 60 383 60 C321 60 271 87 237 138 C204 188 190 247 190 337 C190 506 262 607 383 607 L383 607 Z M345 721 L483 772 C510 782 526 801 526 822 C526 847 505 868 480 868 C463 868 450 861 428 842 L291 721 L345 721 Z " />
<glyph glyph-name="Ocircumflex" unicode="&#xd4;" horiz-adv-x="764" d="M383 686 C176 686 34 544 34 339 C34 225 67 139 137 73 C200 11 282 -19 383 -19 C591 -19 731 123 731 334 C731 545 591 686 383 686 L383 686 Z M383 607 C443 607 493 580 528 529 C560 481 575 420 575 333 C575 161 504 60 383 60 C321 60 271 87 237 138 C204 188 190 247 190 337 C190 506 262 607 383 607 L383 607 Z M228 721 L275 721 L382 776 L490 721 L536 721 L440 858 L324 858 L228 721 Z " />
<glyph glyph-name="Otilde" unicode="&#xd5;" horiz-adv-x="764" d="M383 686 C176 686 34 544 34 339 C34 225 67 139 137 73 C200 11 282 -19 383 -19 C591 -19 731 123 731 334 C731 545 591 686 383 686 L383 686 Z M383 607 C443 607 493 580 528 529 C560 481 575 420 575 333 C575 161 504 60 383 60 C321 60 271 87 237 138 C204 188 190 247 190 337 C190 506 262 607 383 607 L383 607 Z M269 720 C277 748 291 761 311 761 C319 761 330 759 342 756 L397 741 C407 739 419 737 428 737 C454 737 477 748 496 769 C514 790 523 810 533 858 L495 858 C485 828 474 818 452 818 C446 818 438 819 431 821 L375 836 C363 839 350 841 338 841 C280 841 251 808 232 720 L269 720 Z " />
<glyph glyph-name="Odieresis" unicode="&#xd6;" horiz-adv-x="764" d="M382 686 C175 686 33 544 33 339 C33 225 66 139 136 73 C199 11 281 -19 382 -19 C590 -19 730 123 730 334 C730 545 590 686 382 686 L382 686 Z M382 607 C442 607 492 580 527 529 C559 481 574 420 574 333 C574 161 503 60 382 60 C320 60 270 87 236 138 C203 188 189 247 189 337 C189 506 261 607 382 607 L382 607 Z M290 858 C254 858 222 826 222 791 C222 752 252 722 291 722 C327 722 358 753 358 789 C358 826 327 858 290 858 L290 858 Z M467 858 C431 858 399 826 399 791 C399 752 429 722 468 722 C504 722 535 753 535 789 C535 826 504 858 467 858 L467 858 Z " />
<glyph glyph-name="multiply" unicode="&#xd7;" horiz-adv-x="538" d="M72 170 L133 105 L269 249 L405 105 L467 170 L330 313 L467 456 L405 521 L269 377 L133 521 L72 456 L208 313 L72 170 Z " />
<glyph glyph-name="Oslash" unicode="&#xd8;" horiz-adv-x="764" d="M659 700 L592 624 C529 668 466 686 382 686 C174 686 34 545 34 334 C34 235 62 155 120 90 L55 16 L100 -32 L169 46 C231 1 297 -19 383 -19 C591 -19 731 122 731 333 C731 434 702 515 641 581 L705 653 L659 700 Z M210 192 C197 230 190 277 190 336 C190 506 262 607 382 607 C439 607 482 586 519 541 L210 192 Z M552 481 C568 440 575 393 575 332 C575 161 504 60 383 60 C324 60 280 82 243 130 L552 481 Z " />
<glyph glyph-name="Ugrave" unicode="&#xd9;" horiz-adv-x="722" d="M19 591 L48 591 C101 592 108 584 108 530 L108 211 C108 127 128 75 175 37 C222 -1 284 -20 359 -20 C523 -20 612 61 612 211 L612 530 C612 584 619 592 672 591 L700 591 L700 667 L407 667 L407 591 L443 591 C497 592 504 584 504 530 L504 211 C504 161 496 134 474 114 C450 91 412 78 372 78 C335 78 299 90 277 111 C255 131 248 155 248 211 L248 530 C248 584 255 592 309 591 L348 591 L348 667 L19 667 L19 591 Z M400 721 L454 721 L316 842 C294 862 281 868 265 868 C240 868 219 847 219 822 C219 801 235 782 262 772 L400 721 Z " />
<glyph glyph-name="Uacute" unicode="&#xda;" horiz-adv-x="722" d="M19 591 L48 591 C101 592 108 584 108 530 L108 211 C108 127 128 75 175 37 C222 -1 284 -20 359 -20 C523 -20 612 61 612 211 L612 530 C612 584 619 592 672 591 L700 591 L700 667 L407 667 L407 591 L443 591 C497 592 504 584 504 530 L504 211 C504 161 496 134 474 114 C450 91 412 78 372 78 C335 78 299 90 277 111 C255 131 248 155 248 211 L248 530 C248 584 255 592 309 591 L348 591 L348 667 L19 667 L19 591 Z M324 721 L461 772 C488 782 504 801 504 822 C504 847 483 868 458 868 C442 868 429 862 407 842 L270 721 L324 721 Z " />
<glyph glyph-name="Ucircumflex" unicode="&#xdb;" horiz-adv-x="722" d="M19 591 L48 591 C101 592 108 584 108 530 L108 211 C108 127 128 75 175 37 C222 -1 284 -20 359 -20 C523 -20 612 61 612 211 L612 530 C612 584 619 592 672 591 L700 591 L700 667 L407 667 L407 591 L443 591 C497 592 504 584 504 530 L504 211 C504 161 496 134 474 114 C450 91 412 78 372 78 C335 78 299 90 277 111 C255 131 248 155 248 211 L248 530 C248 584 255 592 309 591 L348 591 L348 667 L19 667 L19 591 Z M207 721 L253 721 L361 776 L468 721 L515 721 L419 858 L303 858 L207 721 Z " />
<glyph glyph-name="Udieresis" unicode="&#xdc;" horiz-adv-x="722" d="M19 591 L48 591 C101 592 108 584 108 530 L108 211 C108 127 128 75 175 37 C222 -1 284 -20 359 -20 C523 -20 612 61 612 211 L612 530 C612 584 619 592 672 591 L700 591 L700 667 L407 667 L407 591 L443 591 C497 592 504 584 504 530 L504 211 C504 161 496 134 474 114 C450 91 412 78 372 78 C335 78 299 90 277 111 C255 131 248 155 248 211 L248 530 C248 584 255 592 309 591 L348 591 L348 667 L19 667 L19 591 Z M272 858 C236 858 204 826 204 791 C204 752 234 722 273 722 C309 722 340 753 340 789 C340 826 309 858 272 858 L272 858 Z M448 858 C412 858 380 826 380 791 C380 752 410 722 449 722 C485 722 516 753 516 789 C516 826 485 858 448 858 L448 858 Z " />
<glyph glyph-name="Yacute" unicode="&#xdd;" horiz-adv-x="693" d="M530 76 L477 76 C423 75 416 83 416 137 L416 279 L601 547 C627 583 639 590 674 591 L696 591 L696 667 L403 667 L403 591 L461 591 C483 591 493 585 493 572 C493 564 489 553 481 543 L367 381 L258 538 C249 550 245 561 245 570 C245 585 256 591 285 591 L335 591 L335 667 L0 667 L0 591 L31 591 C69 589 87 576 123 523 L276 279 L276 137 C276 83 269 75 215 76 L162 76 L162 0 L530 0 L530 76 Z M309 721 L447 772 C473 782 490 801 490 822 C490 847 469 868 444 868 C428 868 415 862 393 842 L255 721 L309 721 Z " />
<glyph glyph-name="Thorn" unicode="&#xde;" horiz-adv-x="646" d="M24 0 L363 0 L363 76 L318 76 C263 75 256 83 256 137 L256 157 L344 157 C451 157 503 166 544 191 C588 220 615 273 615 337 C615 397 591 448 548 478 C505 509 446 523 356 523 L256 523 L256 530 C256 584 263 592 318 591 L363 591 L363 667 L24 667 L24 591 L61 591 C116 592 123 584 123 530 L123 137 C123 83 116 75 61 76 L24 76 L24 0 Z M256 233 L256 447 L311 447 C370 447 391 445 412 437 C449 423 469 389 469 341 C469 306 458 276 439 260 C416 240 385 233 318 233 L256 233 Z " />
<glyph glyph-name="germandbls" unicode="&#xdf;" horiz-adv-x="594" d="M19 0 L222 0 L222 484 C222 528 227 556 238 576 C250 599 278 614 308 614 C354 614 383 582 383 530 C383 500 372 472 355 458 C339 446 318 441 271 439 L271 368 C384 368 408 337 408 196 C408 95 398 60 368 60 C341 60 334 80 332 170 L265 170 C265 106 266 100 270 73 C281 14 320 -17 382 -17 C432 -17 468 1 496 39 C528 83 544 141 544 210 C544 275 528 323 494 360 C470 385 448 397 398 412 C482 445 513 478 513 537 C513 625 430 684 307 684 C243 684 196 669 160 635 C119 598 102 549 102 470 L102 126 C102 76 95 69 45 67 L19 67 L19 0 Z " />
<glyph glyph-name="agrave" unicode="&#xe0;" horiz-adv-x="538" d="M478 175 C479 90 472 65 450 65 C435 65 428 76 428 100 L428 308 C428 394 419 421 381 450 C352 472 296 486 234 486 C123 486 49 437 49 363 C49 317 79 285 123 285 C161 285 188 311 188 348 C188 384 170 400 127 403 C154 424 176 432 214 432 C279 432 312 405 312 353 C312 309 291 289 231 273 C161 255 128 244 97 227 C52 204 27 161 27 110 C27 34 81 -18 161 -18 C228 -18 266 1 311 57 C330 3 358 -17 415 -17 C469 -17 503 4 521 48 C531 73 534 97 535 175 L478 175 Z M308 188 C308 144 301 119 281 95 C264 76 241 65 215 65 C181 65 161 86 161 122 C161 156 183 185 220 202 L266 222 C273 225 288 233 308 245 L308 188 Z M349 540 L214 683 C181 718 163 730 139 730 C109 730 86 707 86 677 C86 653 100 636 136 619 L294 540 L349 540 Z " />
<glyph glyph-name="aacute" unicode="&#xe1;" horiz-adv-x="538" d="M478 175 C479 90 472 65 450 65 C435 65 428 76 428 100 L428 308 C428 394 419 421 381 450 C352 472 296 486 234 486 C123 486 49 437 49 363 C49 317 79 285 123 285 C161 285 188 311 188 348 C188 384 170 400 127 403 C154 424 176 432 214 432 C279 432 312 405 312 353 C312 309 291 289 231 273 C161 255 128 244 97 227 C52 204 27 161 27 110 C27 34 81 -18 161 -18 C228 -18 266 1 311 57 C330 3 358 -17 415 -17 C469 -17 503 4 521 48 C531 73 534 97 535 175 L478 175 Z M308 188 C308 144 301 119 281 95 C264 76 241 65 215 65 C181 65 161 86 161 122 C161 156 183 185 220 202 L266 222 C273 225 288 233 308 245 L308 188 Z M166 540 L221 540 L379 619 C415 637 429 653 429 677 C429 707 406 730 376 730 C352 730 333 718 300 683 L166 540 Z " />
<glyph glyph-name="acircumflex" unicode="&#xe2;" horiz-adv-x="538" d="M478 175 C479 90 472 65 450 65 C435 65 428 76 428 100 L428 308 C428 394 419 421 381 450 C352 472 296 486 234 486 C123 486 49 437 49 363 C49 317 79 285 123 285 C161 285 188 311 188 348 C188 384 170 400 127 403 C154 424 176 432 214 432 C279 432 312 405 312 353 C312 309 291 289 231 273 C161 255 128 244 97 227 C52 204 27 161 27 110 C27 34 81 -18 161 -18 C228 -18 266 1 311 57 C330 3 358 -17 415 -17 C469 -17 503 4 521 48 C531 73 534 97 535 175 L478 175 Z M308 188 C308 144 301 119 281 95 C264 76 241 65 215 65 C181 65 161 86 161 122 C161 156 183 185 220 202 L266 222 C273 225 288 233 308 245 L308 188 Z M97 540 L146 540 L253 623 L360 540 L408 540 L298 720 L208 720 L97 540 Z " />
<glyph glyph-name="atilde" unicode="&#xe3;" horiz-adv-x="538" d="M478 175 C479 90 472 65 450 65 C435 65 428 76 428 100 L428 308 C428 394 419 421 381 450 C352 472 296 486 234 486 C123 486 49 437 49 363 C49 317 79 285 123 285 C161 285 188 311 188 348 C188 384 170 400 127 403 C154 424 176 432 214 432 C279 432 312 405 312 353 C312 309 291 289 231 273 C161 255 128 244 97 227 C52 204 27 161 27 110 C27 34 81 -18 161 -18 C228 -18 266 1 311 57 C330 3 358 -17 415 -17 C469 -17 503 4 521 48 C531 73 534 97 535 175 L478 175 Z M308 188 C308 144 301 119 281 95 C264 76 241 65 215 65 C181 65 161 86 161 122 C161 156 183 185 220 202 L266 222 C273 225 288 233 308 245 L308 188 Z M133 555 C141 587 155 601 178 601 C185 601 197 599 209 596 L266 580 C276 577 287 576 299 576 C327 576 353 587 370 608 C388 630 397 651 410 704 L370 704 C358 670 348 660 325 660 C318 660 310 661 302 663 L243 679 C230 682 216 684 205 684 C145 684 114 649 93 555 L133 555 Z " />
<glyph glyph-name="adieresis" unicode="&#xe4;" horiz-adv-x="538" d="M478 175 C479 90 472 65 450 65 C435 65 428 76 428 100 L428 308 C428 394 419 421 381 450 C352 472 296 486 234 486 C123 486 49 437 49 363 C49 317 79 285 123 285 C161 285 188 311 188 348 C188 384 170 400 127 403 C154 424 176 432 214 432 C279 432 312 405 312 353 C312 309 291 289 231 273 C161 255 128 244 97 227 C52 204 27 161 27 110 C27 34 81 -18 161 -18 C228 -18 266 1 311 57 C330 3 358 -17 415 -17 C469 -17 503 4 521 48 C531 73 534 97 535 175 L478 175 Z M308 188 C308 144 301 119 281 95 C264 76 241 65 215 65 C181 65 161 86 161 122 C161 156 183 185 220 202 L266 222 C273 225 288 233 308 245 L308 188 Z M192 699 C154 699 121 667 121 630 C121 591 152 560 192 560 C230 560 260 590 260 629 C260 667 229 699 192 699 L192 699 Z M370 699 C333 699 300 667 300 630 C300 591 331 560 371 560 C409 560 439 590 439 629 C439 667 408 699 370 699 L370 699 Z " />
<glyph glyph-name="aring" unicode="&#xe5;" horiz-adv-x="538" d="M478 175 C479 89 473 65 450 65 C434 65 428 75 428 100 L428 308 C428 394 419 421 381 450 C352 472 296 486 234 486 C123 486 49 437 49 363 C49 317 79 285 123 285 C161 285 188 311 188 348 C188 384 170 400 127 403 C154 424 176 432 214 432 C279 432 312 405 312 353 C312 309 291 289 231 273 C161 255 128 244 97 227 C52 204 27 161 27 110 C27 34 81 -18 161 -18 C228 -18 266 1 311 57 C330 3 358 -17 415 -17 C469 -17 503 4 521 48 C531 73 534 97 535 175 L478 175 Z M308 188 C308 144 301 119 281 95 C264 76 241 65 215 65 C181 65 161 86 161 122 C161 156 183 185 220 202 L266 222 C273 225 288 233 308 245 L308 188 Z M243 778 C173 778 114 721 114 652 C114 577 170 520 244 520 C314 520 372 578 372 649 C372 720 314 778 243 778 L243 778 Z M243 714 C279 714 308 685 308 649 C308 613 279 584 243 584 C206 584 178 612 178 650 C178 685 207 714 243 714 L243 714 Z " />
<glyph glyph-name="ae" unicode="&#xe6;" horiz-adv-x="802" d="M677 167 C667 123 657 103 638 87 C620 71 592 62 562 62 C519 62 486 78 467 109 C450 137 444 163 442 225 L760 225 C755 325 743 371 708 416 C673 461 619 486 556 486 C500 486 468 473 409 428 C350 471 305 486 234 486 C122 486 47 437 47 363 C47 317 78 285 122 285 C162 285 189 311 189 348 C189 384 171 401 126 403 C170 427 192 433 228 433 C296 433 335 404 335 351 C335 309 312 289 250 275 C165 256 113 238 84 219 C46 194 26 156 26 109 C26 32 86 -19 175 -19 C210 -19 244 -11 274 4 C309 21 329 40 364 88 C425 8 471 -17 555 -17 C620 -17 664 0 703 42 C734 76 746 103 757 167 L677 167 Z M332 188 C332 144 324 118 304 95 C285 74 254 61 222 61 C183 61 159 84 159 123 C159 159 179 180 236 203 C253 210 270 217 288 225 C294 227 313 236 332 246 L332 188 Z M446 295 C457 386 484 420 545 420 C602 420 624 390 635 295 L446 295 Z " />
<glyph glyph-name="ccedilla" unicode="&#xe7;" horiz-adv-x="486" d="M257 -17 C384 -16 448 53 456 195 L383 195 C370 106 341 72 277 72 C201 72 163 127 163 236 C163 354 207 421 286 421 C318 421 337 413 372 385 C335 378 318 358 318 323 C318 284 346 257 386 257 C430 257 460 291 460 341 C460 425 382 486 274 486 C127 486 28 383 28 232 C28 146 57 76 113 29 C143 4 169 -7 215 -14 L215 -99 C226 -97 236 -96 243 -96 C267 -96 282 -110 282 -134 C282 -158 268 -171 242 -171 C211 -171 176 -158 138 -132 L116 -182 C182 -214 224 -227 269 -227 C331 -227 371 -191 371 -136 C371 -88 339 -53 296 -53 C284 -53 272 -54 257 -56 L257 -17 Z " />
<glyph glyph-name="egrave" unicode="&#xe8;" horiz-adv-x="505" d="M393 167 C382 122 372 103 355 87 C337 71 308 62 276 62 C235 62 207 76 187 107 C168 135 161 162 157 225 L475 225 C471 325 458 371 423 416 C387 463 334 486 263 486 C122 486 28 385 28 233 C28 83 121 -18 259 -18 C317 -18 366 -2 404 30 C443 62 459 95 472 167 L393 167 Z M161 295 C176 383 207 420 263 420 C317 420 340 387 350 295 L161 295 Z M333 540 L198 683 C165 718 146 730 122 730 C92 730 69 707 69 677 C69 653 83 637 119 619 L278 540 L333 540 Z " />
<glyph glyph-name="eacute" unicode="&#xe9;" horiz-adv-x="505" d="M393 167 C382 122 372 103 355 87 C337 71 308 62 276 62 C235 62 207 76 187 107 C168 135 161 162 157 225 L475 225 C471 325 458 371 423 416 C387 463 334 486 263 486 C122 486 28 385 28 233 C28 83 121 -18 259 -18 C317 -18 366 -2 404 30 C443 62 459 95 472 167 L393 167 Z M161 295 C176 383 207 420 263 420 C317 420 340 387 350 295 L161 295 Z M149 540 L204 540 L362 619 C399 637 413 653 413 677 C413 707 390 730 360 730 C336 730 317 718 284 683 L149 540 Z " />
<glyph glyph-name="ecircumflex" unicode="&#xea;" horiz-adv-x="505" d="M393 167 C382 122 372 103 355 87 C337 71 308 62 276 62 C235 62 207 76 187 107 C168 135 161 162 157 225 L475 225 C471 325 458 371 423 416 C387 463 334 486 263 486 C122 486 28 385 28 233 C28 83 121 -18 259 -18 C317 -18 366 -2 404 30 C443 62 459 95 472 167 L393 167 Z M161 295 C176 383 207 420 263 420 C317 420 340 387 350 295 L161 295 Z M96 540 L145 540 L252 623 L359 540 L408 540 L297 720 L207 720 L96 540 Z " />
<glyph glyph-name="edieresis" unicode="&#xeb;" horiz-adv-x="505" d="M393 167 C382 122 372 103 355 87 C337 71 308 62 276 62 C235 62 207 76 187 107 C168 135 161 162 157 225 L475 225 C471 325 458 371 423 416 C387 463 334 486 263 486 C122 486 28 385 28 233 C28 83 121 -18 259 -18 C317 -18 366 -2 404 30 C443 62 459 95 472 167 L393 167 Z M161 295 C176 383 207 420 263 420 C317 420 340 387 350 295 L161 295 Z M164 699 C126 699 93 667 93 630 C93 591 124 560 164 560 C202 560 232 590 232 629 C232 668 201 699 164 699 L164 699 Z M343 699 C305 699 272 667 272 630 C272 591 303 560 343 560 C381 560 411 590 411 629 C411 668 380 699 343 699 L343 699 Z " />
<glyph glyph-name="igrave" unicode="&#xec;" horiz-adv-x="330" d="M24 0 L310 0 L310 67 L283 67 C236 69 230 77 230 126 L230 469 L24 469 L24 402 L58 402 C106 399 112 393 112 343 L112 126 C112 76 106 70 58 67 L24 67 L24 0 Z M218 538 L137 678 C118 710 100 723 75 723 C48 723 27 703 27 677 C27 656 40 639 73 614 L178 538 L218 538 Z " />
<glyph glyph-name="iacute" unicode="&#xed;" horiz-adv-x="330" d="M80 538 L120 538 L224 614 C257 638 270 656 270 677 C270 704 250 723 222 723 C197 723 179 710 161 678 L80 538 Z M24 0 L310 0 L310 67 L283 67 C236 69 230 77 230 126 L230 469 L24 469 L24 402 L58 402 C106 399 112 393 112 343 L112 126 C112 76 106 70 58 67 L24 67 L24 0 Z " />
<glyph glyph-name="icircumflex" unicode="&#xee;" horiz-adv-x="337" d="M22 538 L69 538 L161 630 L253 538 L299 538 L205 715 L116 715 L22 538 Z M30 0 L316 0 L316 67 L289 67 C243 69 237 77 237 126 L237 469 L30 469 L30 402 L64 402 C112 399 119 392 119 343 L119 126 C119 77 112 70 64 67 L30 67 L30 0 Z " />
<glyph glyph-name="idieresis" unicode="&#xef;" horiz-adv-x="334" d="M28 0 L314 0 L314 67 L287 67 C240 69 234 77 234 126 L234 469 L28 469 L28 402 L62 402 C110 399 116 393 116 343 L116 126 C116 76 110 70 62 67 L28 67 L28 0 Z M76 699 C38 699 5 667 5 630 C5 591 36 560 76 560 C114 560 144 590 144 629 C144 668 113 699 76 699 L76 699 Z M246 699 C208 699 175 667 175 630 C175 591 206 560 246 560 C284 560 314 590 314 629 C314 668 283 699 246 699 L246 699 Z " />
<glyph glyph-name="eth" unicode="&#xf0;" horiz-adv-x="559" d="M210 667 C225 646 229 640 254 604 L184 575 L208 522 L282 555 C316 501 316 501 328 477 C307 483 294 485 271 485 C127 485 29 383 29 235 C29 82 128 -17 282 -17 C432 -17 532 83 532 232 C532 338 490 422 353 589 L425 618 L402 671 L316 636 L284 667 L210 667 Z M281 416 C358 416 396 356 396 234 C396 113 358 53 281 53 C203 53 165 113 165 237 C165 356 204 416 281 416 L281 416 Z " />
<glyph glyph-name="ntilde" unicode="&#xf1;" horiz-adv-x="618" d="M24 0 L296 0 L296 67 L277 67 C230 69 223 76 223 126 L223 247 C223 303 229 329 250 358 C271 389 303 407 336 407 C359 407 381 397 392 381 C402 366 405 352 405 311 L405 126 C405 76 399 69 353 67 L335 67 L335 0 L603 0 L603 67 L577 67 C531 69 525 76 525 126 L525 311 C525 382 516 418 492 443 C469 468 426 484 385 484 C323 484 283 460 223 387 L223 469 L24 469 L24 402 L55 402 C103 400 109 393 109 343 L109 126 C109 76 103 69 55 67 L24 67 L24 0 Z M191 555 C200 587 213 601 236 601 C244 601 255 599 267 596 L324 580 C335 577 345 576 357 576 C386 576 411 587 428 608 C446 630 455 651 468 704 L428 704 C416 670 406 660 383 660 C377 660 368 661 360 663 L301 679 C288 682 274 684 263 684 C203 684 173 649 151 555 L191 555 Z " />
<glyph glyph-name="ograve" unicode="&#xf2;" horiz-adv-x="557" d="M279 486 C129 486 27 386 27 238 C27 82 125 -17 280 -17 C430 -17 530 83 530 234 C530 386 430 486 279 486 L279 486 Z M279 416 C356 416 394 356 394 234 C394 113 356 53 279 53 C201 53 163 113 163 237 C163 356 202 416 279 416 L279 416 Z M359 540 L224 683 C191 718 173 730 149 730 C119 730 96 707 96 677 C96 653 110 637 146 619 L304 540 L359 540 Z " />
<glyph glyph-name="oacute" unicode="&#xf3;" horiz-adv-x="557" d="M279 486 C129 486 27 386 27 238 C27 82 125 -17 280 -17 C430 -17 530 83 530 234 C530 386 430 486 279 486 L279 486 Z M279 416 C356 416 394 356 394 234 C394 113 356 53 279 53 C201 53 163 113 163 237 C163 356 202 416 279 416 L279 416 Z M176 540 L231 540 L389 619 C425 637 439 653 439 677 C439 707 416 730 386 730 C362 730 343 718 310 683 L176 540 Z " />
<glyph glyph-name="ocircumflex" unicode="&#xf4;" horiz-adv-x="557" d="M279 486 C129 486 27 386 27 238 C27 82 125 -17 280 -17 C430 -17 530 83 530 234 C530 386 430 486 279 486 L279 486 Z M279 416 C356 416 394 356 394 234 C394 113 356 53 279 53 C201 53 163 113 163 237 C163 356 202 416 279 416 L279 416 Z M123 540 L172 540 L279 623 L386 540 L434 540 L324 720 L234 720 L123 540 Z " />
<glyph glyph-name="otilde" unicode="&#xf5;" horiz-adv-x="557" d="M279 486 C129 486 27 386 27 238 C27 82 125 -17 280 -17 C430 -17 530 83 530 234 C530 386 430 486 279 486 L279 486 Z M279 416 C356 416 394 356 394 234 C394 113 356 53 279 53 C201 53 163 113 163 237 C163 356 202 416 279 416 L279 416 Z M160 555 C169 587 182 601 205 601 C213 601 224 599 237 596 L293 580 C304 577 315 576 326 576 C355 576 380 587 397 608 C416 630 424 651 437 704 L397 704 C385 670 375 660 352 660 C346 660 337 661 329 663 L271 679 C257 682 244 684 232 684 C172 684 142 649 120 555 L160 555 Z " />
<glyph glyph-name="odieresis" unicode="&#xf6;" horiz-adv-x="557" d="M280 486 C130 486 28 386 28 238 C28 82 126 -17 281 -17 C431 -17 531 83 531 234 C531 386 431 486 280 486 L280 486 Z M280 416 C357 416 395 356 395 234 C395 113 357 53 280 53 C202 53 164 113 164 237 C164 356 203 416 280 416 L280 416 Z M197 699 C159 699 126 667 126 630 C126 591 157 560 197 560 C235 560 265 590 265 629 C265 668 234 699 197 699 L197 699 Z M376 699 C338 699 305 667 305 630 C305 591 336 560 376 560 C414 560 444 590 444 629 C444 668 413 699 376 699 L376 699 Z " />
<glyph glyph-name="divide" unicode="&#xf7;" horiz-adv-x="549" d="M273 126 C239 126 211 99 211 64 C211 30 238 2 273 2 C306 2 334 30 334 64 C334 98 306 126 273 126 L273 126 Z M273 525 C239 525 211 498 211 463 C211 429 238 401 273 401 C306 401 334 429 334 463 C334 497 306 525 273 525 L273 525 Z M10 294 L10 239 L536 239 L536 294 L10 294 Z " />
<glyph glyph-name="oslash" unicode="&#xf8;" horiz-adv-x="557" d="M493 504 L433 441 C390 472 341 486 278 486 C127 486 27 386 27 235 C27 168 45 114 81 69 L24 8 L63 -35 L124 29 C168 -3 216 -17 280 -17 C430 -17 530 83 530 234 C530 302 513 354 476 401 L534 463 L493 504 Z M169 161 C165 188 163 208 163 235 C163 356 202 416 278 416 C318 416 346 401 367 370 L169 161 Z M388 309 C392 280 394 260 394 233 C394 114 355 53 279 53 C239 53 211 68 190 99 L388 309 Z " />
<glyph glyph-name="ugrave" unicode="&#xf9;" horiz-adv-x="613" d="M24 402 L47 402 C97 400 104 392 104 343 L104 158 C104 87 113 51 136 26 C158 1 199 -15 238 -15 C297 -15 337 10 394 82 L394 0 L592 0 L592 67 L568 67 C520 69 514 76 514 126 L514 469 L291 469 L291 402 L337 402 C387 400 394 392 394 343 L394 221 C394 167 388 138 369 111 C349 80 319 62 288 62 C266 62 247 72 236 88 C226 103 224 117 224 158 L224 469 L24 469 L24 402 Z M388 540 L253 683 C220 718 201 730 177 730 C147 730 124 707 124 677 C124 653 138 637 174 619 L333 540 L388 540 Z " />
<glyph glyph-name="uacute" unicode="&#xfa;" horiz-adv-x="613" d="M24 402 L47 402 C97 400 104 392 104 343 L104 158 C104 87 113 51 136 26 C158 1 199 -15 238 -15 C297 -15 337 10 394 82 L394 0 L592 0 L592 67 L568 67 C520 69 514 76 514 126 L514 469 L291 469 L291 402 L337 402 C387 400 394 392 394 343 L394 221 C394 167 388 138 369 111 C349 80 319 62 288 62 C266 62 247 72 236 88 C226 103 224 117 224 158 L224 469 L24 469 L24 402 Z M204 540 L259 540 L417 619 C454 637 468 653 468 677 C468 707 445 730 415 730 C391 730 372 718 339 683 L204 540 Z " />
<glyph glyph-name="ucircumflex" unicode="&#xfb;" horiz-adv-x="613" d="M24 402 L47 402 C97 400 104 392 104 343 L104 158 C104 87 113 51 136 26 C158 1 199 -15 238 -15 C297 -15 337 10 394 82 L394 0 L592 0 L592 67 L568 67 C520 69 514 76 514 126 L514 469 L291 469 L291 402 L337 402 C387 400 394 392 394 343 L394 221 C394 167 388 138 369 111 C349 80 319 62 288 62 C266 62 247 72 236 88 C226 103 224 117 224 158 L224 469 L24 469 L24 402 Z M151 540 L200 540 L307 623 L414 540 L463 540 L352 720 L262 720 L151 540 Z " />
<glyph glyph-name="udieresis" unicode="&#xfc;" horiz-adv-x="613" d="M24 402 L47 402 C97 400 104 392 104 343 L104 158 C104 87 113 51 136 26 C158 1 199 -15 238 -15 C297 -15 337 10 394 82 L394 0 L592 0 L592 67 L568 67 C520 69 514 76 514 126 L514 469 L291 469 L291 402 L337 402 C387 400 394 392 394 343 L394 221 C394 167 388 138 369 111 C349 80 319 62 288 62 C266 62 247 72 236 88 C226 103 224 117 224 158 L224 469 L24 469 L24 402 Z M219 699 C181 699 148 667 148 630 C148 591 179 560 219 560 C257 560 287 590 287 629 C287 668 256 699 219 699 L219 699 Z M398 699 C360 699 327 667 327 630 C327 591 358 560 398 560 C436 560 466 590 466 629 C466 668 435 699 398 699 L398 699 Z " />
<glyph glyph-name="yacute" unicode="&#xfd;" horiz-adv-x="552" d="M241 0 C196 -115 168 -149 116 -149 C96 -149 86 -144 68 -125 C115 -125 138 -106 138 -66 C138 -28 111 0 73 0 C27 0 -5 -36 -5 -88 C-5 -161 51 -214 127 -214 C220 -214 264 -160 347 56 L452 331 C475 385 490 400 522 402 L543 402 L543 469 L315 469 L315 402 L340 402 C370 402 383 395 383 378 C383 370 381 360 376 347 L298 140 L211 356 C208 364 206 372 206 380 C206 395 217 402 238 402 L271 402 L271 469 L-3 469 L-3 402 L25 402 C61 400 76 387 96 342 L241 0 Z M173 540 L228 540 L386 619 C422 637 436 653 436 677 C436 707 413 730 383 730 C359 730 340 718 308 683 L173 540 Z " />
<glyph glyph-name="thorn" unicode="&#xfe;" horiz-adv-x="590" d="M13 600 L36 600 C83 598 89 591 89 541 L89 -88 C89 -137 83 -145 36 -147 L9 -147 L9 -214 L302 -214 L302 -147 L261 -147 C215 -145 209 -137 209 -88 L209 78 C247 7 285 -17 357 -17 C479 -17 550 74 550 233 C550 392 480 483 357 483 C285 483 247 459 209 387 L209 667 L13 667 L13 600 Z M315 403 C381 403 414 346 414 233 C414 126 380 69 315 69 C247 69 209 129 209 236 C209 343 247 403 315 403 L315 403 Z " />
<glyph glyph-name="ydieresis" unicode="&#xff;" horiz-adv-x="552" d="M241 0 C196 -115 168 -149 116 -149 C96 -149 86 -144 68 -125 C115 -125 138 -106 138 -66 C138 -28 111 0 73 0 C27 0 -5 -36 -5 -88 C-5 -161 51 -214 127 -214 C220 -214 264 -160 347 56 L452 331 C475 385 490 400 522 402 L543 402 L543 469 L315 469 L315 402 L340 402 C370 402 383 395 383 378 C383 370 381 360 376 347 L298 140 L211 356 C208 364 206 372 206 380 C206 395 217 402 238 402 L271 402 L271 469 L-3 469 L-3 402 L25 402 C61 400 76 387 96 342 L241 0 Z M187 699 C149 699 116 667 116 630 C116 591 147 560 187 560 C225 560 255 590 255 629 C255 668 224 699 187 699 L187 699 Z M367 699 C329 699 296 667 296 630 C296 591 327 560 367 560 C405 560 435 590 435 629 C435 668 404 699 367 699 L367 699 Z " />
<glyph glyph-name="Amacron" unicode="&#x100;" horiz-adv-x="679" d="M-14 0 L281 0 L281 76 L231 76 C190 76 181 80 181 98 C181 104 184 116 188 129 L216 212 L424 212 L451 134 C457 118 460 107 460 101 C460 81 449 76 407 76 L356 76 L356 0 L683 0 L683 76 L664 76 C616 76 607 84 588 140 L399 667 L266 667 L90 140 C75 91 55 76 6 76 L-14 76 L-14 0 Z M398 290 L242 290 L317 522 L398 290 Z M195 750 L484 750 L484 829 L195 829 L195 750 Z " />
<glyph glyph-name="amacron" unicode="&#x101;" horiz-adv-x="538" d="M478 175 C479 90 472 65 450 65 C435 65 428 76 428 100 L428 308 C428 394 419 421 381 450 C352 472 296 486 234 486 C123 486 49 437 49 363 C49 317 79 285 123 285 C161 285 188 311 188 348 C188 384 170 400 127 403 C154 424 176 432 214 432 C279 432 312 405 312 353 C312 309 291 289 231 273 C161 255 128 244 97 227 C52 204 27 161 27 110 C27 34 81 -18 161 -18 C228 -18 266 1 311 57 C330 3 358 -17 415 -17 C469 -17 503 4 521 48 C531 73 534 97 535 175 L478 175 Z M308 188 C308 144 301 119 281 95 C264 76 241 65 215 65 C181 65 161 86 161 122 C161 156 183 185 220 202 L266 222 C273 225 288 233 308 245 L308 188 Z M120 588 L417 588 L417 670 L120 670 L120 588 Z " />
<glyph glyph-name="Abreve" unicode="&#x102;" horiz-adv-x="679" d="M-14 0 L281 0 L281 76 L231 76 C190 76 181 80 181 98 C181 104 184 116 188 129 L216 212 L424 212 L451 134 C457 118 460 107 460 101 C460 81 449 76 407 76 L356 76 L356 0 L683 0 L683 76 L664 76 C616 76 607 84 588 140 L399 667 L266 667 L90 140 C75 91 55 76 6 76 L-14 76 L-14 0 Z M398 290 L242 290 L317 522 L398 290 Z M183 858 C194 808 204 786 226 764 C254 736 295 720 340 720 C385 720 426 736 454 764 C476 786 486 808 497 858 L451 858 C436 820 407 806 340 806 C273 806 245 819 228 858 L183 858 Z " />
<glyph glyph-name="abreve" unicode="&#x103;" horiz-adv-x="538" d="M478 175 C479 90 472 65 450 65 C435 65 428 76 428 100 L428 308 C428 394 419 421 381 450 C352 472 296 486 234 486 C123 486 49 437 49 363 C49 317 79 285 123 285 C161 285 188 311 188 348 C188 384 170 400 127 403 C154 424 176 432 214 432 C279 432 312 405 312 353 C312 309 291 289 231 273 C161 255 128 244 97 227 C52 204 27 161 27 110 C27 34 81 -18 161 -18 C228 -18 266 1 311 57 C330 3 358 -17 415 -17 C469 -17 503 4 521 48 C531 73 534 97 535 175 L478 175 Z M308 188 C308 144 301 119 281 95 C264 76 241 65 215 65 C181 65 161 86 161 122 C161 156 183 185 220 202 L266 222 C273 225 288 233 308 245 L308 188 Z M110 704 C122 649 132 624 155 600 C183 571 224 555 268 555 C314 555 355 572 383 600 C405 623 416 649 427 704 L381 704 C365 659 338 644 269 644 C200 644 173 658 156 704 L110 704 Z " />
<glyph glyph-name="Aogonek" unicode="&#x104;" horiz-adv-x="679" d="M683 0 L683 76 L664 76 C616 76 607 84 588 140 L399 667 L266 667 L90 140 C75 91 55 76 6 76 L-14 76 L-14 0 L281 0 L281 76 L231 76 C190 76 181 80 181 99 C181 104 184 116 188 129 L216 212 L424 212 L451 134 C457 119 460 106 460 100 C460 81 448 76 407 76 L356 76 L356 0 L621 0 C548 -47 506 -103 506 -155 C506 -201 537 -230 586 -230 C634 -230 667 -204 695 -143 L679 -133 C659 -162 652 -167 632 -167 C608 -167 594 -149 594 -117 C594 -76 611 -43 654 0 L683 0 Z M398 290 L242 290 L317 522 L398 290 Z " />
<glyph glyph-name="aogonek" unicode="&#x105;" horiz-adv-x="538" d="M478 175 C478 87 473 64 451 64 C435 64 428 75 428 100 L428 308 C428 394 419 421 381 450 C352 472 296 486 233 486 C123 486 49 437 49 363 C49 317 79 285 123 285 C161 285 188 311 188 348 C188 384 170 400 127 403 C154 424 176 432 214 432 C279 432 312 405 312 353 C312 309 291 289 231 273 C161 255 128 244 97 227 C52 204 27 161 27 110 C27 34 81 -18 161 -18 C228 -18 266 1 311 57 C327 7 351 -12 403 -17 C341 -62 308 -112 308 -159 C308 -205 338 -234 387 -234 C435 -234 467 -208 496 -147 L480 -137 C460 -166 453 -171 433 -171 C409 -171 395 -153 395 -121 C395 -84 411 -50 444 -15 C514 0 536 45 535 175 L478 175 Z M308 188 C308 144 301 119 281 95 C264 76 241 65 215 65 C181 65 161 86 161 122 C161 156 183 185 220 202 L266 222 C273 225 288 233 308 245 L308 188 Z " />
<glyph glyph-name="Cacute" unicode="&#x106;" horiz-adv-x="670" d="M540 258 C527 186 515 155 488 123 C459 90 419 72 373 72 C318 72 266 98 235 142 C204 186 189 247 189 330 C189 501 258 605 372 605 C422 605 467 583 498 544 C525 510 536 478 548 404 L620 404 L620 677 L552 677 L534 617 C460 671 420 686 349 686 C171 686 33 532 33 335 C33 130 168 -19 355 -19 C444 -19 511 11 558 72 C595 119 609 162 620 258 L540 258 Z M298 721 L435 772 C462 782 478 801 478 822 C478 847 457 868 432 868 C416 868 403 862 381 842 L244 721 L298 721 Z " />
<glyph glyph-name="cacute" unicode="&#x107;" horiz-adv-x="486" d="M383 195 C370 106 341 72 277 72 C201 72 163 127 163 235 C163 354 207 421 287 421 C318 421 337 413 372 385 C334 378 317 358 317 323 C317 284 345 257 386 257 C430 257 460 291 460 341 C460 425 382 486 274 486 C127 486 28 383 28 232 C28 81 118 -17 257 -17 C325 -17 378 5 411 48 C439 84 449 119 456 195 L383 195 Z M140 540 L195 540 L353 619 C389 637 403 653 403 677 C403 707 380 730 350 730 C326 730 307 718 275 683 L140 540 Z " />
<glyph glyph-name="Ccaron" unicode="&#x10c;" horiz-adv-x="670" d="M540 258 C527 186 515 155 488 123 C459 90 419 72 373 72 C318 72 266 98 235 142 C204 186 189 247 189 330 C189 501 258 605 372 605 C422 605 467 583 498 544 C525 510 536 478 548 404 L620 404 L620 677 L552 677 L534 617 C460 671 420 686 349 686 C171 686 33 532 33 335 C33 130 168 -19 355 -19 C444 -19 511 11 558 72 C595 119 609 162 620 258 L540 258 Z M181 858 L277 721 L393 721 L489 858 L442 858 L335 803 L227 858 L181 858 Z " />
<glyph glyph-name="ccaron" unicode="&#x10d;" horiz-adv-x="486" d="M383 195 C370 106 341 72 277 72 C201 72 163 127 163 235 C163 354 207 421 287 421 C318 421 337 413 372 385 C334 378 317 358 317 323 C317 284 345 257 386 257 C430 257 460 291 460 341 C460 425 382 486 274 486 C127 486 28 383 28 232 C28 81 118 -17 257 -17 C325 -17 378 5 411 48 C439 84 449 119 456 195 L383 195 Z M87 719 L198 540 L288 540 L398 719 L350 719 L243 636 L136 719 L87 719 Z " />
<glyph glyph-name="Dcaron" unicode="&#x10e;" horiz-adv-x="764" d="M24 0 L385 0 C605 0 719 114 719 333 C719 553 605 667 385 667 L24 667 L24 591 L59 591 C112 592 119 584 119 530 L119 137 C119 83 112 75 59 76 L24 76 L24 0 Z M259 76 L259 591 L341 591 C435 591 477 578 508 538 C543 494 563 421 563 333 C563 246 543 173 508 129 C477 89 435 76 341 76 L259 76 Z M118 858 L214 721 L330 721 L426 858 L380 858 L272 803 L165 858 L118 858 Z " />
<glyph glyph-name="dcaron" unicode="&#x10f;" horiz-adv-x="590" d="M275 600 L316 600 C366 598 373 591 373 541 L373 391 C335 462 297 486 226 486 C103 486 33 395 33 236 C33 77 103 -14 226 -14 C297 -14 335 10 373 82 L373 0 L572 0 L572 67 L546 67 C499 69 493 76 493 126 L493 667 L275 667 L275 600 Z M268 400 C335 400 373 340 373 233 C373 126 335 66 268 66 C202 66 169 123 169 236 C169 343 203 400 268 400 L268 400 Z M562 451 C604 456 627 465 649 487 C673 511 687 547 687 586 C687 639 655 675 605 675 C567 675 540 650 540 615 C540 585 562 563 591 563 C603 563 612 566 629 575 C624 521 607 498 562 491 L562 451 Z " />
<glyph glyph-name="Dcroat" unicode="&#x110;" horiz-adv-x="769" d="M25 0 L386 0 C606 0 721 114 721 333 C721 553 606 667 386 667 L25 667 L25 591 L60 591 C114 592 121 584 121 530 L121 377 L0 377 L0 308 L121 308 L121 137 C121 83 114 75 60 76 L25 76 L25 0 Z M261 76 L261 308 L417 308 L417 377 L261 377 L261 591 L342 591 C436 591 478 578 510 538 C545 494 565 420 565 333 C565 247 545 173 510 129 C478 89 436 76 342 76 L261 76 Z " />
<glyph glyph-name="dcroat" unicode="&#x111;" horiz-adv-x="590" d="M493 576 L493 667 L275 667 L275 600 L316 600 C350 599 367 592 370 576 L214 576 L214 518 L373 518 L373 391 C335 462 298 486 225 486 C103 486 33 395 33 236 C33 77 103 -14 225 -14 C298 -14 335 10 373 82 L373 0 L572 0 L572 67 L546 67 C499 69 493 76 493 126 L493 518 L552 518 L552 576 L493 576 Z M268 400 C335 400 373 340 373 233 C373 126 335 66 268 66 C202 66 169 123 169 236 C169 343 203 400 268 400 L268 400 Z " />
<glyph glyph-name="Emacron" unicode="&#x112;" horiz-adv-x="712" d="M24 0 L647 0 L647 283 L575 283 C561 113 534 75 422 76 L260 76 L260 310 L296 310 C373 311 386 294 393 174 L464 174 L464 507 L393 507 C385 398 377 388 295 386 L260 386 L260 591 L409 591 C538 593 569 558 575 402 L647 402 L647 667 L24 667 L24 591 L60 591 C113 592 120 584 120 529 L120 138 C120 83 113 75 60 76 L24 76 L24 0 Z M212 750 L501 750 L501 829 L212 829 L212 750 Z " />
<glyph glyph-name="emacron" unicode="&#x113;" horiz-adv-x="505" d="M393 167 C382 122 372 103 355 87 C337 71 308 62 276 62 C235 62 207 76 187 107 C168 135 161 162 157 225 L475 225 C471 325 458 371 423 416 C387 463 334 486 263 486 C122 486 28 385 28 233 C28 83 121 -18 259 -18 C317 -18 366 -2 404 30 C443 62 459 95 472 167 L393 167 Z M161 295 C176 383 207 420 263 420 C317 420 340 387 350 295 L161 295 Z M103 588 L401 588 L401 670 L103 670 L103 588 Z " />
<glyph glyph-name="Edotaccent" unicode="&#x116;" horiz-adv-x="712" d="M24 0 L647 0 L647 283 L575 283 C561 113 534 75 422 76 L260 76 L260 310 L296 310 C373 311 386 294 393 174 L464 174 L464 507 L393 507 C385 398 377 388 295 386 L260 386 L260 591 L409 591 C538 593 569 558 575 402 L647 402 L647 667 L24 667 L24 591 L60 591 C113 592 120 584 120 529 L120 138 C120 83 113 75 60 76 L24 76 L24 0 Z M357 862 C320 862 286 829 286 792 C286 753 318 721 357 721 C395 721 427 753 427 791 C427 829 394 862 357 862 L357 862 Z " />
<glyph glyph-name="edotaccent" unicode="&#x117;" horiz-adv-x="505" d="M393 167 C382 122 372 103 355 87 C337 71 308 62 276 62 C235 62 207 76 187 107 C168 135 161 162 157 225 L475 225 C471 325 458 371 423 416 C387 463 334 486 263 486 C122 486 28 385 28 233 C28 83 121 -18 259 -18 C317 -18 366 -2 404 30 C443 62 459 95 472 167 L393 167 Z M161 295 C176 383 207 420 263 420 C317 420 340 387 350 295 L161 295 Z M254 702 C215 702 180 668 180 631 C180 590 213 557 254 557 C294 557 325 589 325 629 C325 669 293 702 254 702 L254 702 Z " />
<glyph glyph-name="Eogonek" unicode="&#x118;" horiz-adv-x="712" d="M647 0 L647 283 L575 283 C561 113 534 75 422 76 L260 76 L260 310 L296 310 C373 311 386 294 393 174 L464 174 L464 507 L393 507 C385 398 377 388 295 386 L260 386 L260 591 L409 591 C538 593 569 558 575 402 L647 402 L647 667 L24 667 L24 591 L60 591 C113 592 120 584 120 529 L120 138 C120 83 113 75 60 76 L24 76 L24 0 L572 0 C504 -45 465 -100 465 -149 C465 -196 496 -224 546 -224 C594 -224 627 -198 655 -138 L639 -128 C619 -157 611 -162 591 -162 C567 -162 553 -144 553 -112 C553 -72 569 -41 608 0 L647 0 Z " />
<glyph glyph-name="eogonek" unicode="&#x119;" horiz-adv-x="505" d="M393 167 C382 122 372 102 355 87 C337 70 308 61 276 61 C235 61 207 75 187 106 C168 134 161 162 157 225 L475 225 C471 325 458 371 423 416 C387 463 334 486 263 486 C122 486 28 385 28 233 C28 154 54 86 103 40 C144 0 195 -18 263 -18 C267 -18 269 -18 273 -17 C214 -66 189 -106 189 -151 C189 -197 219 -226 268 -226 C316 -226 348 -200 377 -139 L361 -129 C341 -157 333 -163 314 -163 C289 -163 275 -145 275 -114 C275 -68 300 -23 333 -8 L386 16 C396 20 412 34 428 53 C453 85 461 106 472 167 L393 167 Z M161 295 C176 383 207 420 263 420 C317 420 340 387 350 295 L161 295 Z " />
<glyph glyph-name="Ecaron" unicode="&#x11a;" horiz-adv-x="712" d="M24 0 L647 0 L647 283 L575 283 C561 113 534 75 422 76 L260 76 L260 310 L296 310 C373 311 386 294 393 174 L464 174 L464 507 L393 507 C385 398 377 388 295 386 L260 386 L260 591 L409 591 C538 593 569 558 575 402 L647 402 L647 667 L24 667 L24 591 L60 591 C113 592 120 584 120 529 L120 138 C120 83 113 75 60 76 L24 76 L24 0 Z M202 858 L299 721 L414 721 L511 858 L464 858 L356 803 L249 858 L202 858 Z " />
<glyph glyph-name="ecaron" unicode="&#x11b;" horiz-adv-x="505" d="M393 167 C382 122 372 103 355 87 C337 71 308 62 276 62 C235 62 207 76 187 107 C168 135 161 162 157 225 L475 225 C471 325 458 371 423 416 C387 463 334 486 263 486 C122 486 28 385 28 233 C28 83 121 -18 259 -18 C317 -18 366 -2 404 30 C443 62 459 95 472 167 L393 167 Z M161 295 C176 383 207 420 263 420 C317 420 340 387 350 295 L161 295 Z M96 719 L207 540 L297 540 L408 719 L359 719 L252 636 L145 719 L96 719 Z " />
<glyph glyph-name="Gbreve" unicode="&#x11e;" horiz-adv-x="745" d="M574 -4 L648 -4 L648 219 C649 274 654 280 698 281 L736 281 L736 357 L401 357 L401 281 L440 281 C503 282 511 277 510 226 L510 189 C510 149 503 129 480 108 C453 83 415 69 374 69 C257 69 189 166 189 333 C189 501 258 606 368 606 C417 606 462 584 496 544 C524 510 538 480 554 411 L628 411 L628 671 L559 671 L532 614 C462 672 424 687 347 687 C168 687 33 535 33 334 C33 131 166 -19 347 -19 C424 -19 463 -5 539 52 L574 -4 Z M170 858 C181 808 191 786 213 764 C241 736 282 720 327 720 C372 720 413 736 441 764 C463 786 473 808 484 858 L438 858 C423 820 394 806 327 806 C261 806 232 819 215 858 L170 858 Z " />
<glyph glyph-name="gbreve" unicode="&#x11f;" horiz-adv-x="627" d="M206 81 C166 81 150 91 150 114 C150 127 155 135 169 149 C216 136 238 132 272 132 C401 132 480 199 480 308 C480 341 474 362 454 403 C476 433 494 444 517 444 C528 444 535 441 548 431 C516 421 503 405 503 376 C503 342 529 316 564 316 C600 316 626 345 626 388 C626 448 586 486 524 486 C486 486 463 475 430 441 C378 474 338 486 275 486 C147 486 64 416 64 309 C64 256 80 223 128 175 C68 149 44 121 44 76 C44 31 67 5 121 -13 C55 -35 33 -56 33 -99 C33 -171 121 -214 268 -214 C351 -214 425 -200 471 -175 C514 -152 542 -104 542 -53 C542 -7 519 35 482 56 C449 75 412 81 335 81 L206 81 Z M271 428 C325 428 349 391 349 309 C349 230 325 195 271 195 C218 195 195 231 195 315 C195 392 219 428 271 428 L271 428 Z M273 -25 C389 -25 425 -39 425 -84 C425 -132 370 -157 260 -157 C157 -157 106 -135 106 -89 C106 -72 115 -56 131 -45 C150 -31 193 -25 273 -25 L273 -25 Z M121 704 C133 649 143 624 166 600 C194 571 234 555 279 555 C324 555 366 572 394 600 C416 623 427 649 438 704 L392 704 C376 659 349 644 280 644 C210 644 184 658 166 704 L121 704 Z " />
<glyph glyph-name="Gcommaaccent" unicode="&#x122;" horiz-adv-x="745" d="M574 -4 L648 -4 L648 219 C649 274 654 280 698 281 L736 281 L736 357 L401 357 L401 281 L440 281 C503 282 511 277 510 226 L510 189 C510 149 503 129 480 108 C453 83 415 69 374 69 C257 69 189 166 189 333 C189 501 258 606 368 606 C417 606 462 584 496 544 C524 510 538 480 554 411 L628 411 L628 671 L559 671 L532 614 C462 672 424 687 347 687 C168 687 33 535 33 334 C33 131 166 -19 347 -19 C424 -19 463 -5 539 52 L574 -4 Z M320 -280 C363 -276 385 -266 407 -245 C431 -220 445 -185 445 -146 C445 -92 413 -57 363 -57 C325 -57 298 -82 298 -116 C298 -146 320 -168 349 -168 C361 -168 370 -165 387 -157 C382 -210 364 -233 320 -240 L320 -280 Z " />
<glyph glyph-name="gcommaaccent" unicode="&#x123;" horiz-adv-x="627" d="M206 81 C166 81 150 91 150 114 C150 127 155 135 169 149 C216 136 238 132 272 132 C401 132 480 199 480 308 C480 341 474 362 454 403 C476 433 494 444 517 444 C528 444 535 441 548 431 C516 421 503 405 503 376 C503 342 529 316 564 316 C600 316 626 345 626 388 C626 448 586 486 524 486 C486 486 463 475 430 441 C378 474 338 486 275 486 C147 486 64 416 64 309 C64 256 80 223 128 175 C68 149 44 121 44 76 C44 31 67 5 121 -13 C55 -35 33 -56 33 -99 C33 -171 121 -214 268 -214 C351 -214 425 -200 471 -175 C514 -152 542 -104 542 -53 C542 -7 519 35 482 56 C449 75 412 81 335 81 L206 81 Z M271 428 C325 428 349 391 349 309 C349 230 325 195 271 195 C218 195 195 231 195 315 C195 392 219 428 271 428 L271 428 Z M273 -25 C389 -25 425 -39 425 -84 C425 -132 370 -157 260 -157 C157 -157 106 -135 106 -89 C106 -72 115 -56 131 -45 C150 -31 193 -25 273 -25 L273 -25 Z M335 749 C292 745 270 735 248 714 C224 689 210 654 210 615 C210 561 242 526 292 526 C330 526 357 551 357 585 C357 615 335 637 306 637 C294 637 285 634 268 626 C273 679 291 702 335 709 L335 749 Z " />
<glyph glyph-name="Imacron" unicode="&#x12a;" horiz-adv-x="392" d="M25 0 L366 0 L366 76 L327 76 C273 75 266 83 266 137 L266 530 C266 584 273 592 327 591 L366 591 L366 667 L25 667 L25 591 L64 591 C117 592 124 584 124 530 L124 137 C124 83 117 75 64 76 L25 76 L25 0 Z M51 750 L340 750 L340 829 L51 829 L51 750 Z " />
<glyph glyph-name="imacron" unicode="&#x12b;" horiz-adv-x="330" d="M23 0 L310 0 L310 67 L283 67 C236 69 230 77 230 126 L230 469 L23 469 L23 402 L57 402 C105 399 112 392 112 343 L112 126 C112 77 105 70 57 67 L23 67 L23 0 Z M16 588 L314 588 L314 670 L16 670 L16 588 Z " />
<glyph glyph-name="Iogonek" unicode="&#x12e;" horiz-adv-x="392" d="M366 0 L366 76 L327 76 C273 75 266 83 266 137 L266 530 C266 584 273 592 327 591 L366 591 L366 667 L25 667 L25 591 L64 591 C117 592 124 584 124 530 L124 137 C124 83 117 75 64 76 L25 76 L25 0 L303 0 C226 -48 183 -104 183 -157 C183 -203 214 -232 263 -232 C312 -232 345 -206 373 -146 L357 -136 C337 -165 329 -170 309 -170 C285 -170 271 -152 271 -120 C271 -78 289 -43 334 0 L366 0 Z " />
<glyph glyph-name="iogonek" unicode="&#x12f;" horiz-adv-x="330" d="M310 0 L310 67 L283 67 C236 69 230 77 230 126 L230 469 L24 469 L24 402 L58 402 C106 399 112 393 112 343 L112 126 C112 76 106 70 58 67 L24 67 L24 0 L252 0 C181 -48 142 -101 142 -152 C142 -198 172 -227 222 -227 C270 -227 303 -201 331 -140 L315 -130 C296 -158 288 -164 268 -164 C244 -164 230 -146 230 -114 C230 -74 247 -39 287 0 L310 0 Z M163 675 C121 675 88 642 88 599 C88 560 122 527 162 527 C203 527 236 560 236 601 C236 642 203 675 163 675 L163 675 Z " />
<glyph glyph-name="Idotaccent" unicode="&#x130;" horiz-adv-x="392" d="M25 0 L366 0 L366 76 L327 76 C273 75 266 83 266 137 L266 530 C266 584 273 592 327 591 L366 591 L366 667 L25 667 L25 591 L64 591 C117 592 124 584 124 530 L124 137 C124 83 117 75 64 76 L25 76 L25 0 Z M196 862 C159 862 125 829 125 792 C125 753 157 721 196 721 C234 721 266 753 266 791 C266 829 233 862 196 862 L196 862 Z " />
<glyph glyph-name="dotlessi" unicode="&#x131;" horiz-adv-x="330" d="M24 0 L310 0 L310 67 L283 67 C236 69 230 77 230 126 L230 469 L24 469 L24 402 L58 402 C106 399 112 393 112 343 L112 126 C112 76 106 70 58 67 L24 67 L24 0 Z " />
<glyph glyph-name="Kcommaaccent" unicode="&#x136;" horiz-adv-x="731" d="M257 229 L357 324 L487 128 C496 114 502 101 502 93 C502 80 494 76 462 76 L411 76 L411 0 L762 0 L762 76 L730 76 C682 76 672 82 640 126 L447 414 L540 503 C611 570 647 590 700 591 L722 591 L722 667 L403 667 L403 591 L445 591 C470 591 482 587 482 578 C482 572 476 562 467 553 L257 342 L257 530 C257 584 264 592 317 591 L346 591 L346 667 L24 667 L24 591 L60 591 C113 592 120 584 120 530 L120 137 C120 83 113 75 60 76 L24 76 L24 0 L341 0 L341 76 L317 76 C264 75 257 83 257 137 L257 229 Z M313 -280 C356 -276 378 -266 400 -245 C424 -220 438 -185 438 -146 C438 -92 406 -57 356 -57 C318 -57 291 -82 291 -116 C291 -146 313 -168 342 -168 C354 -168 363 -165 380 -157 C375 -210 357 -233 313 -240 L313 -280 Z " />
<glyph glyph-name="kcommaaccent" unicode="&#x137;" horiz-adv-x="604" d="M220 241 L220 667 L24 667 L24 600 L49 600 C97 598 103 591 103 541 L103 126 C103 76 97 69 49 67 L24 67 L24 0 L282 0 L282 67 L271 67 C226 69 220 76 220 126 L220 149 L306 223 L381 108 C387 98 392 87 392 82 C392 73 381 67 365 67 L333 67 L333 0 L606 0 L606 67 L584 67 C548 68 523 84 497 123 L385 289 L473 365 C508 395 518 400 555 402 L574 402 L574 469 L292 469 L292 402 L343 402 C370 402 377 399 377 388 C377 381 372 375 360 364 L220 241 Z M250 -280 C293 -276 315 -266 337 -245 C361 -220 375 -185 375 -146 C375 -92 343 -57 293 -57 C255 -57 228 -82 228 -116 C228 -146 250 -168 279 -168 C291 -168 300 -165 317 -157 C312 -210 294 -233 250 -240 L250 -280 Z " />
<glyph glyph-name="Lacute" unicode="&#x139;" horiz-adv-x="656" d="M24 667 L24 591 L60 591 C113 592 120 584 120 530 L120 137 C120 83 113 75 60 76 L24 76 L24 0 L612 0 L612 288 L540 288 C539 113 508 74 373 76 L260 76 L260 530 C260 584 267 592 320 591 L363 591 L363 667 L24 667 Z M291 721 L429 772 C456 782 472 801 472 822 C472 847 451 868 426 868 C409 868 396 861 374 842 L237 721 L291 721 Z " />
<glyph glyph-name="lacute" unicode="&#x13a;" horiz-adv-x="310" d="M220 667 L19 667 L19 600 L48 600 C95 598 102 591 102 541 L102 126 C102 76 95 69 48 67 L19 67 L19 0 L301 0 L301 67 L273 67 C226 69 220 76 220 126 L220 667 Z M135 720 L190 720 L348 799 C384 816 398 833 398 857 C398 887 375 910 345 910 C321 910 303 898 270 863 L135 720 Z " />
<glyph glyph-name="Lcommaaccent" unicode="&#x13b;" horiz-adv-x="656" d="M24 667 L24 591 L60 591 C113 592 120 584 120 530 L120 137 C120 83 113 75 60 76 L24 76 L24 0 L612 0 L612 288 L540 288 C539 113 508 74 373 76 L260 76 L260 530 C260 584 267 592 320 591 L363 591 L363 667 L24 667 Z M276 -280 C319 -276 341 -266 363 -245 C387 -220 401 -185 401 -146 C401 -92 369 -57 319 -57 C281 -57 254 -82 254 -116 C254 -146 276 -168 305 -168 C317 -168 326 -165 343 -157 C338 -210 320 -233 276 -240 L276 -280 Z " />
<glyph glyph-name="lcommaaccent" unicode="&#x13c;" horiz-adv-x="321" d="M220 667 L19 667 L19 600 L48 600 C95 598 102 591 102 541 L102 126 C102 76 95 69 48 67 L19 67 L19 0 L301 0 L301 67 L273 67 C226 69 220 76 220 126 L220 667 Z M108 -280 C151 -276 173 -266 195 -245 C219 -220 233 -185 233 -146 C233 -92 201 -57 151 -57 C113 -57 86 -82 86 -116 C86 -146 108 -168 137 -168 C149 -168 158 -165 175 -157 C170 -210 152 -233 108 -240 L108 -280 Z " />
<glyph glyph-name="Lcaron" unicode="&#x13d;" horiz-adv-x="656" d="M24 667 L24 591 L60 591 C113 592 120 584 120 530 L120 137 C120 83 113 75 60 76 L24 76 L24 0 L612 0 L612 288 L540 288 C539 113 508 74 373 76 L260 76 L260 530 C260 584 267 592 320 591 L363 591 L363 667 L24 667 Z M448 456 C488 461 509 470 530 492 C553 516 566 552 566 591 C566 644 535 680 489 680 C453 680 427 655 427 621 C427 590 448 568 475 568 C487 568 495 571 511 580 C507 526 491 504 448 496 L448 456 Z " />
<glyph glyph-name="lcaron" unicode="&#x13e;" horiz-adv-x="321" d="M220 667 L19 667 L19 600 L48 600 C95 598 102 591 102 541 L102 126 C102 76 95 69 48 67 L19 67 L19 0 L301 0 L301 67 L273 67 C226 69 220 76 220 126 L220 667 Z M299 455 C341 460 364 470 386 491 C410 515 424 552 424 590 C424 644 392 680 342 680 C304 680 277 655 277 620 C277 590 299 568 328 568 C340 568 349 571 366 579 C361 525 344 503 299 495 L299 455 Z " />
<glyph glyph-name="Lslash" unicode="&#x141;" horiz-adv-x="656" d="M259 394 L259 530 C259 584 266 592 320 591 L363 591 L363 667 L23 667 L23 591 L59 591 C112 592 119 584 119 530 L119 303 L2 227 L2 147 L119 222 L119 137 C119 83 112 75 59 76 L23 76 L23 0 L611 0 L611 288 L539 288 C538 113 507 74 373 76 L259 76 L259 313 L420 418 L420 499 L259 394 Z " />
<glyph glyph-name="lslash" unicode="&#x142;" horiz-adv-x="321" d="M220 410 L220 667 L19 667 L19 600 L48 600 C95 598 102 591 102 541 L102 336 L0 273 L0 209 L102 272 L102 126 C102 76 95 69 48 67 L19 67 L19 0 L301 0 L301 67 L273 67 C226 69 220 76 220 126 L220 346 L327 412 L327 476 L220 410 Z " />
<glyph glyph-name="Nacute" unicode="&#x143;" horiz-adv-x="774" d="M665 0 L665 530 C665 584 672 592 726 591 L756 591 L756 667 L457 667 L457 591 L500 591 C553 592 560 584 560 530 L560 183 L284 667 L13 667 L13 591 L52 591 C106 592 113 584 113 530 L113 137 C113 83 106 75 52 76 L9 76 L9 0 L321 0 L321 76 L279 76 C225 75 218 83 218 137 L218 543 L527 0 L665 0 Z M349 721 L487 772 C514 782 530 801 530 822 C530 847 509 868 484 868 C467 868 454 861 432 842 L295 721 L349 721 Z " />
<glyph glyph-name="nacute" unicode="&#x144;" horiz-adv-x="618" d="M24 0 L296 0 L296 67 L277 67 C230 69 223 76 223 126 L223 247 C223 303 229 329 250 358 C271 389 303 407 336 407 C359 407 381 397 392 381 C402 366 405 352 405 311 L405 126 C405 76 399 69 353 67 L335 67 L335 0 L603 0 L603 67 L577 67 C531 69 525 76 525 126 L525 311 C525 382 516 418 492 443 C469 468 426 484 385 484 C323 484 283 460 223 387 L223 469 L24 469 L24 402 L55 402 C103 400 109 393 109 343 L109 126 C109 76 103 69 55 67 L24 67 L24 0 Z M206 540 L261 540 L420 619 C456 637 470 653 470 677 C470 707 447 730 417 730 C393 730 374 718 341 683 L206 540 Z " />
<glyph glyph-name="Ncommaaccent" unicode="&#x145;" horiz-adv-x="774" d="M665 0 L665 530 C665 584 672 592 726 591 L756 591 L756 667 L457 667 L457 591 L500 591 C553 592 560 584 560 530 L560 183 L284 667 L13 667 L13 591 L52 591 C106 592 113 584 113 530 L113 137 C113 83 106 75 52 76 L9 76 L9 0 L321 0 L321 76 L279 76 C225 75 218 83 218 137 L218 543 L527 0 L665 0 Z M334 -280 C377 -276 399 -266 421 -245 C445 -220 459 -185 459 -146 C459 -92 427 -57 377 -57 C339 -57 312 -82 312 -116 C312 -146 334 -168 363 -168 C375 -168 384 -165 401 -157 C396 -210 378 -233 334 -240 L334 -280 Z " />
<glyph glyph-name="ncommaaccent" unicode="&#x146;" horiz-adv-x="618" d="M24 0 L296 0 L296 67 L277 67 C230 69 223 76 223 126 L223 247 C223 303 229 329 250 358 C271 389 303 407 336 407 C359 407 381 397 392 381 C402 366 405 352 405 311 L405 126 C405 76 399 69 353 67 L335 67 L335 0 L603 0 L603 67 L577 67 C531 69 525 76 525 126 L525 311 C525 382 516 418 492 443 C469 468 426 484 385 484 C323 484 283 460 223 387 L223 469 L24 469 L24 402 L55 402 C103 400 109 393 109 343 L109 126 C109 76 103 69 55 67 L24 67 L24 0 Z M257 -280 C300 -276 322 -266 344 -245 C368 -220 382 -185 382 -146 C382 -92 350 -57 300 -57 C262 -57 235 -82 235 -116 C235 -146 257 -168 286 -168 C298 -168 307 -165 324 -157 C319 -210 301 -233 257 -240 L257 -280 Z " />
<glyph glyph-name="Ncaron" unicode="&#x147;" horiz-adv-x="774" d="M665 0 L665 530 C665 584 672 592 726 591 L756 591 L756 667 L457 667 L457 591 L500 591 C553 592 560 584 560 530 L560 183 L284 667 L13 667 L13 591 L52 591 C106 592 113 584 113 530 L113 137 C113 83 106 75 52 76 L9 76 L9 0 L321 0 L321 76 L279 76 C225 75 218 83 218 137 L218 543 L527 0 L665 0 Z M232 858 L328 721 L444 721 L541 858 L494 858 L386 803 L279 858 L232 858 Z " />
<glyph glyph-name="ncaron" unicode="&#x148;" horiz-adv-x="618" d="M24 0 L296 0 L296 67 L277 67 C230 69 223 76 223 126 L223 247 C223 303 229 329 250 358 C271 389 303 407 336 407 C359 407 381 397 392 381 C402 366 405 352 405 311 L405 126 C405 76 399 69 353 67 L335 67 L335 0 L603 0 L603 67 L577 67 C531 69 525 76 525 126 L525 311 C525 382 516 418 492 443 C469 468 426 484 385 484 C323 484 283 460 223 387 L223 469 L24 469 L24 402 L55 402 C103 400 109 393 109 343 L109 126 C109 76 103 69 55 67 L24 67 L24 0 Z M154 719 L265 540 L354 540 L465 719 L416 719 L309 636 L202 719 L154 719 Z " />
<glyph glyph-name="Omacron" unicode="&#x14c;" horiz-adv-x="764" d="M383 686 C176 686 34 544 34 339 C34 225 67 139 137 73 C200 11 282 -19 383 -19 C591 -19 731 123 731 334 C731 545 591 686 383 686 L383 686 Z M383 607 C443 607 493 580 528 529 C560 481 575 420 575 333 C575 161 504 60 383 60 C321 60 271 87 237 138 C204 188 190 247 190 337 C190 506 262 607 383 607 L383 607 Z M238 750 L527 750 L527 829 L238 829 L238 750 Z " />
<glyph glyph-name="omacron" unicode="&#x14d;" horiz-adv-x="557" d="M279 486 C129 486 27 386 27 238 C27 82 125 -17 280 -17 C430 -17 530 83 530 234 C530 386 430 486 279 486 L279 486 Z M279 416 C356 416 394 356 394 234 C394 113 356 53 279 53 C201 53 163 113 163 237 C163 356 202 416 279 416 L279 416 Z M130 588 L427 588 L427 670 L130 670 L130 588 Z " />
<glyph glyph-name="Ohungarumlaut" unicode="&#x150;" horiz-adv-x="764" d="M383 686 C176 686 34 544 34 339 C34 225 67 139 137 73 C200 11 282 -19 383 -19 C591 -19 731 123 731 334 C731 545 591 686 383 686 L383 686 Z M383 607 C443 607 493 580 528 529 C560 481 575 420 575 333 C575 161 504 60 383 60 C321 60 271 87 237 138 C204 188 190 247 190 337 C190 506 262 607 383 607 L383 607 Z M298 721 L393 786 C410 798 420 813 420 828 C420 850 400 869 378 869 C360 869 346 858 329 831 L260 721 L298 721 Z M424 721 L545 783 C569 795 580 809 580 826 C580 848 560 868 538 868 C522 868 507 859 488 838 L386 721 L424 721 Z " />
<glyph glyph-name="ohungarumlaut" unicode="&#x151;" horiz-adv-x="557" d="M279 486 C129 486 27 386 27 238 C27 82 125 -17 280 -17 C430 -17 530 83 530 234 C530 386 430 486 279 486 L279 486 Z M279 416 C356 416 394 356 394 234 C394 113 356 53 279 53 C201 53 163 113 163 237 C163 356 202 416 279 416 L279 416 Z M160 540 L204 540 L312 637 C332 654 342 671 342 687 C342 711 322 731 297 731 C271 731 256 718 231 671 L160 540 Z M284 540 L328 540 L468 631 C493 647 507 665 507 682 C507 708 487 729 461 729 C437 729 423 719 392 680 L284 540 Z " />
<glyph glyph-name="OE" unicode="&#x152;" horiz-adv-x="1175" d="M1105 667 L689 667 L388 686 C175 686 33 545 33 333 C33 123 176 -19 387 -19 C426 -19 484 -16 541 -10 C607 -3 668 1 689 0 L1105 0 L1105 283 L1033 283 C1019 112 992 76 881 76 L719 76 L719 310 L755 310 C832 312 845 293 852 174 L923 174 L923 507 L852 507 C843 398 836 388 754 386 L719 386 L719 591 L868 591 C997 593 1028 558 1033 402 L1105 402 L1105 667 Z M579 138 C579 99 576 88 561 80 C536 67 476 57 421 57 C267 57 189 150 189 333 C189 518 266 610 423 610 C473 610 530 601 556 589 C576 580 579 571 579 529 L579 138 Z " />
<glyph glyph-name="oe" unicode="&#x153;" horiz-adv-x="868" d="M758 167 C747 122 737 103 719 87 C700 71 669 61 639 61 C601 61 568 79 548 109 C530 137 524 164 522 225 L840 225 C836 326 823 371 788 416 C753 462 699 486 631 486 C563 486 521 468 462 415 C396 467 345 486 273 486 C128 486 28 383 28 235 C28 85 128 -17 275 -17 C320 -17 364 -7 397 11 C420 24 435 36 462 67 C485 40 499 26 516 16 C549 -5 594 -17 639 -17 C701 -17 745 1 783 42 C814 76 826 103 837 167 L758 167 Z M283 416 C363 416 402 356 402 235 C402 113 363 53 283 53 C202 53 164 112 164 237 C164 356 204 416 283 416 L283 416 Z M526 295 C538 389 563 420 624 420 C683 420 705 390 715 295 L526 295 Z " />
<glyph glyph-name="Racute" unicode="&#x154;" horiz-adv-x="731" d="M363 76 L320 76 C267 75 260 83 260 137 L260 314 L303 314 C414 314 444 287 448 181 L451 103 C454 25 497 -19 574 -19 C642 -19 682 12 696 78 C702 103 703 122 703 190 L642 190 C642 92 638 79 612 79 C594 79 587 92 585 135 L581 194 C579 286 549 321 454 337 C517 348 544 357 574 378 C615 407 636 451 636 506 C636 557 616 601 580 626 C541 655 487 667 402 667 L24 667 L24 591 L60 591 C113 592 120 584 120 529 L120 137 C120 83 113 75 60 76 L24 76 L24 0 L363 0 L363 76 Z M260 390 L260 591 L365 591 C411 591 433 587 452 575 C476 561 490 530 490 491 C490 420 453 390 367 390 L260 390 Z M263 721 L401 772 C428 782 444 801 444 822 C444 847 423 868 398 868 C382 868 369 861 347 842 L209 721 L263 721 Z " />
<glyph glyph-name="racute" unicode="&#x155;" horiz-adv-x="467" d="M324 67 L277 67 C230 69 223 77 223 126 L223 253 C223 301 234 347 253 377 C273 408 304 429 330 429 C340 429 355 425 372 419 C330 405 314 386 314 352 C314 315 340 291 378 291 C423 291 455 326 455 375 C455 436 408 482 343 482 C292 482 259 459 223 399 L223 469 L24 469 L24 402 L55 402 C103 400 109 393 109 343 L109 126 C109 77 103 70 55 67 L24 67 L24 0 L324 0 L324 67 Z M131 540 L186 540 L344 619 C380 636 394 653 394 677 C394 707 371 730 341 730 C318 730 299 718 266 683 L131 540 Z " />
<glyph glyph-name="Rcommaaccent" unicode="&#x156;" horiz-adv-x="731" d="M363 76 L320 76 C267 75 260 83 260 137 L260 314 L303 314 C414 314 444 287 448 181 L451 103 C454 25 497 -19 574 -19 C642 -19 682 12 696 78 C702 103 703 122 703 190 L642 190 C642 92 638 79 612 79 C594 79 587 92 585 135 L581 194 C579 286 549 321 454 337 C517 348 544 357 574 378 C615 407 636 451 636 506 C636 557 616 601 580 626 C541 655 487 667 402 667 L24 667 L24 591 L60 591 C113 592 120 584 120 529 L120 137 C120 83 113 75 60 76 L24 76 L24 0 L363 0 L363 76 Z M260 390 L260 591 L365 591 C411 591 433 587 452 575 C476 561 490 530 490 491 C490 420 453 390 367 390 L260 390 Z M313 -280 C356 -276 378 -266 400 -245 C424 -220 438 -185 438 -146 C438 -92 406 -57 356 -57 C318 -57 291 -82 291 -116 C291 -146 313 -168 342 -168 C354 -168 363 -165 380 -157 C375 -210 357 -233 313 -240 L313 -280 Z " />
<glyph glyph-name="rcommaaccent" unicode="&#x157;" horiz-adv-x="467" d="M324 67 L277 67 C230 69 223 77 223 126 L223 253 C223 301 234 347 253 377 C273 408 304 429 330 429 C340 429 355 425 372 419 C330 405 314 386 314 352 C314 315 340 291 378 291 C423 291 455 326 455 375 C455 436 408 482 343 482 C292 482 259 459 223 399 L223 469 L24 469 L24 402 L55 402 C103 400 109 393 109 343 L109 126 C109 77 103 70 55 67 L24 67 L24 0 L324 0 L324 67 Z M122 -280 C165 -276 187 -266 209 -245 C233 -220 247 -185 247 -146 C247 -92 215 -57 165 -57 C127 -57 100 -82 100 -116 C100 -146 122 -168 151 -168 C163 -168 172 -165 189 -157 C184 -210 166 -233 122 -240 L122 -280 Z " />
<glyph glyph-name="Rcaron" unicode="&#x158;" horiz-adv-x="731" d="M363 76 L320 76 C267 75 260 83 260 137 L260 314 L303 314 C414 314 444 287 448 181 L451 103 C454 25 497 -19 574 -19 C642 -19 682 12 696 78 C702 103 703 122 703 190 L642 190 C642 92 638 79 612 79 C594 79 587 92 585 135 L581 194 C579 286 549 321 454 337 C517 348 544 357 574 378 C615 407 636 451 636 506 C636 557 616 601 580 626 C541 655 487 667 402 667 L24 667 L24 591 L60 591 C113 592 120 584 120 529 L120 137 C120 83 113 75 60 76 L24 76 L24 0 L363 0 L363 76 Z M260 390 L260 591 L365 591 C411 591 433 587 452 575 C476 561 490 530 490 491 C490 420 453 390 367 390 L260 390 Z M124 858 L220 721 L335 721 L432 858 L385 858 L278 803 L170 858 L124 858 Z " />
<glyph glyph-name="rcaron" unicode="&#x159;" horiz-adv-x="467" d="M324 67 L277 67 C230 69 223 77 223 126 L223 253 C223 301 234 347 253 377 C273 408 304 429 330 429 C340 429 355 425 372 419 C330 405 314 386 314 352 C314 315 340 291 378 291 C423 291 455 326 455 375 C455 436 408 482 343 482 C292 482 259 459 223 399 L223 469 L24 469 L24 402 L55 402 C103 400 109 393 109 343 L109 126 C109 77 103 70 55 67 L24 67 L24 0 L324 0 L324 67 Z M78 719 L189 540 L279 540 L390 719 L341 719 L234 636 L127 719 L78 719 Z " />
<glyph glyph-name="Sacute" unicode="&#x15a;" horiz-adv-x="608" d="M40 0 L105 0 L126 62 C210 1 263 -19 337 -19 C475 -19 574 69 574 193 C574 252 549 308 508 341 C476 366 424 390 371 402 L244 433 C185 447 157 475 157 520 C157 573 201 606 274 606 C319 606 368 588 399 560 C433 528 455 482 468 414 L540 414 L540 667 L484 667 L450 618 C375 673 337 687 265 687 C129 687 38 604 38 480 C38 375 98 317 245 281 L348 256 C418 239 450 208 450 158 C450 102 405 71 326 71 C266 71 223 86 184 123 C146 158 129 194 113 275 L40 275 L40 0 Z M267 721 L405 772 C432 782 448 801 448 822 C448 847 427 868 402 868 C385 868 373 862 351 842 L213 721 L267 721 Z " />
<glyph glyph-name="sacute" unicode="&#x15b;" horiz-adv-x="467" d="M28 -6 L91 -6 L107 36 C173 -8 200 -17 259 -17 C370 -17 439 41 439 136 C439 215 391 261 280 289 L195 310 C164 317 147 335 147 360 C147 394 174 415 216 415 C246 415 283 402 305 383 C327 364 338 345 351 302 L415 302 L415 475 L361 475 L341 439 C292 473 257 486 206 486 C102 486 33 427 33 339 C33 266 80 219 178 194 L247 177 C297 165 320 145 320 115 C320 78 290 55 243 55 C214 55 188 62 168 74 C130 97 112 125 97 186 L28 186 L28 -6 Z M130 540 L185 540 L343 619 C380 637 394 653 394 677 C394 707 371 730 341 730 C317 730 298 718 265 683 L130 540 Z " />
<glyph glyph-name="Scedilla" unicode="&#x15e;" horiz-adv-x="608" d="M318 -19 L336 -19 C475 -19 574 69 574 193 C574 252 549 308 508 341 C476 366 424 389 371 402 L244 433 C185 447 157 475 157 520 C157 574 201 606 274 606 C319 606 368 588 398 560 C433 528 455 482 468 414 L540 414 L540 667 L484 667 L450 618 C375 673 336 687 265 687 C129 687 38 604 38 480 C38 375 98 317 245 281 L348 256 C418 239 450 208 450 158 C450 102 405 71 326 71 C266 71 223 86 184 123 C146 158 129 194 113 275 L40 275 L40 0 L105 0 L126 62 C190 16 221 0 276 -13 L276 -101 C286 -99 298 -98 304 -98 C328 -98 343 -112 343 -136 C343 -158 328 -171 303 -171 C272 -171 237 -158 199 -132 L177 -182 C243 -214 286 -227 330 -227 C393 -227 434 -191 434 -137 C434 -91 400 -55 357 -55 C346 -55 333 -56 318 -59 L318 -19 Z " />
<glyph glyph-name="scedilla" unicode="&#x15f;" horiz-adv-x="467" d="M247 -17 L250 -17 L257 -17 C370 -17 439 41 439 135 C439 215 391 261 279 289 L195 310 C164 317 147 335 147 360 C147 394 174 415 216 415 C246 415 283 402 304 383 C326 365 338 345 351 302 L415 302 L415 475 L361 475 L341 439 C293 473 257 486 206 486 C102 486 33 427 33 339 C33 266 80 219 178 194 L247 177 C298 164 320 145 320 115 C320 78 290 55 242 55 C214 55 188 62 168 74 C130 97 112 125 97 186 L28 186 L28 -6 L91 -6 L107 36 C151 7 178 -7 205 -12 L205 -99 C215 -97 226 -96 232 -96 C258 -96 272 -110 272 -135 C272 -158 257 -171 232 -171 C201 -171 166 -158 128 -132 L106 -182 C171 -214 215 -227 258 -227 C321 -227 361 -191 361 -136 C361 -88 329 -53 286 -53 C274 -53 261 -54 247 -56 L247 -17 Z " />
<glyph glyph-name="Scaron" unicode="&#x160;" horiz-adv-x="608" d="M40 0 L105 0 L126 62 C210 1 263 -19 337 -19 C475 -19 574 69 574 193 C574 252 549 308 508 341 C476 366 424 390 371 402 L244 433 C185 447 157 475 157 520 C157 573 201 606 274 606 C319 606 368 588 399 560 C433 528 455 482 468 414 L540 414 L540 667 L484 667 L450 618 C375 673 337 687 265 687 C129 687 38 604 38 480 C38 375 98 317 245 281 L348 256 C418 239 450 208 450 158 C450 102 405 71 326 71 C266 71 223 86 184 123 C146 158 129 194 113 275 L40 275 L40 0 Z M150 858 L247 721 L362 721 L459 858 L412 858 L304 803 L197 858 L150 858 Z " />
<glyph glyph-name="scaron" unicode="&#x161;" horiz-adv-x="467" d="M28 -6 L91 -6 L107 36 C173 -8 200 -17 259 -17 C370 -17 439 41 439 136 C439 215 391 261 280 289 L195 310 C164 317 147 335 147 360 C147 394 174 415 216 415 C246 415 283 402 305 383 C327 364 338 345 351 302 L415 302 L415 475 L361 475 L341 439 C292 473 257 486 206 486 C102 486 33 427 33 339 C33 266 80 219 178 194 L247 177 C297 165 320 145 320 115 C320 78 290 55 243 55 C214 55 188 62 168 74 C130 97 112 125 97 186 L28 186 L28 -6 Z M77 719 L189 540 L278 540 L389 719 L340 719 L233 636 L126 719 L77 719 Z " />
<glyph glyph-name="Tcommaaccent" unicode="&#x162;" horiz-adv-x="642" d="M251 137 C251 83 244 75 190 76 L137 76 L137 0 L504 0 L504 76 L451 76 C398 75 391 83 391 137 L391 593 C503 595 543 543 547 391 L619 391 L619 667 L23 667 L23 391 L95 391 C98 543 138 596 251 593 L251 137 Z M268 -280 C311 -276 333 -266 355 -245 C379 -220 393 -185 393 -146 C393 -92 361 -57 311 -57 C273 -57 246 -82 246 -116 C246 -146 268 -168 297 -168 C309 -168 318 -165 335 -157 C330 -210 312 -233 268 -240 L268 -280 Z " />
<glyph glyph-name="tcommaaccent" unicode="&#x163;" horiz-adv-x="382" d="M84 400 L84 147 C84 87 89 59 106 32 C126 -1 159 -17 207 -17 C259 -17 300 6 319 46 C335 80 340 114 340 186 L340 221 L278 221 C277 133 276 115 270 99 C263 82 253 75 237 75 C212 75 204 89 204 133 L204 400 L326 400 L326 469 L203 469 L203 653 L143 653 C132 526 104 486 14 465 L14 400 L84 400 Z M138 -280 C181 -276 203 -266 225 -245 C249 -220 263 -185 263 -146 C263 -92 231 -57 181 -57 C143 -57 116 -82 116 -116 C116 -146 138 -168 167 -168 C179 -168 188 -165 205 -157 C200 -210 182 -233 138 -240 L138 -280 Z " />
<glyph glyph-name="Tcaron" unicode="&#x164;" horiz-adv-x="642" d="M251 137 C251 83 244 75 190 76 L137 76 L137 0 L504 0 L504 76 L451 76 C398 75 391 83 391 137 L391 593 C503 595 543 543 547 391 L619 391 L619 667 L23 667 L23 391 L95 391 C98 543 138 596 251 593 L251 137 Z M167 858 L263 721 L379 721 L475 858 L428 858 L321 803 L213 858 L167 858 Z " />
<glyph glyph-name="tcaron" unicode="&#x165;" horiz-adv-x="382" d="M84 400 L84 147 C84 87 89 59 106 32 C126 -1 159 -17 207 -17 C259 -17 300 6 319 46 C335 80 340 114 340 186 L340 221 L278 221 C277 133 276 115 270 99 C263 82 253 75 237 75 C212 75 204 89 204 133 L204 400 L326 400 L326 469 L203 469 L203 653 L143 653 C132 526 104 486 14 465 L14 400 L84 400 Z M299 531 C341 536 364 545 386 567 C410 591 424 627 424 666 C424 720 392 755 342 755 C304 755 277 730 277 695 C277 665 299 643 328 643 C340 643 349 646 366 655 C361 601 344 579 299 571 L299 531 Z " />
<glyph glyph-name="Umacron" unicode="&#x16a;" horiz-adv-x="722" d="M19 591 L48 591 C101 592 108 584 108 530 L108 211 C108 127 128 75 175 37 C222 -1 284 -20 359 -20 C523 -20 612 61 612 211 L612 530 C612 584 619 592 672 591 L700 591 L700 667 L407 667 L407 591 L443 591 C497 592 504 584 504 530 L504 211 C504 161 496 134 474 114 C450 91 412 78 372 78 C335 78 299 90 277 111 C255 131 248 155 248 211 L248 530 C248 584 255 592 309 591 L348 591 L348 667 L19 667 L19 591 Z M216 750 L506 750 L506 829 L216 829 L216 750 Z " />
<glyph glyph-name="umacron" unicode="&#x16b;" horiz-adv-x="613" d="M24 402 L47 402 C97 400 104 392 104 343 L104 158 C104 87 113 51 136 26 C158 1 199 -15 238 -15 C297 -15 337 10 394 82 L394 0 L592 0 L592 67 L568 67 C520 69 514 76 514 126 L514 469 L291 469 L291 402 L337 402 C387 400 394 392 394 343 L394 221 C394 167 388 138 369 111 C349 80 319 62 288 62 C266 62 247 72 236 88 C226 103 224 117 224 158 L224 469 L24 469 L24 402 Z M158 588 L456 588 L456 670 L158 670 L158 588 Z " />
<glyph glyph-name="Uring" unicode="&#x16e;" horiz-adv-x="722" d="M19 591 L48 591 C101 592 108 584 108 530 L108 211 C108 127 128 75 175 37 C222 -1 284 -20 359 -20 C523 -20 612 61 612 211 L612 530 C612 584 619 592 672 591 L700 591 L700 667 L407 667 L407 591 L443 591 C497 592 504 584 504 530 L504 211 C504 161 496 134 474 114 C450 91 412 78 372 78 C335 78 299 90 277 111 C255 131 248 155 248 211 L248 530 C248 584 255 592 309 591 L348 591 L348 667 L19 667 L19 591 Z M361 932 C302 932 253 885 253 828 C253 766 302 716 362 716 C419 716 469 767 469 826 C469 885 421 932 361 932 L361 932 Z M361 873 C388 873 410 851 410 824 C410 798 388 776 362 776 C334 776 312 798 312 825 C312 851 335 873 361 873 L361 873 Z " />
<glyph glyph-name="uring" unicode="&#x16f;" horiz-adv-x="613" d="M24 402 L47 402 C97 400 104 392 104 343 L104 158 C104 87 113 51 136 26 C158 1 199 -15 238 -15 C297 -15 337 10 394 82 L394 0 L592 0 L592 67 L568 67 C520 69 514 76 514 126 L514 469 L291 469 L291 402 L337 402 C387 400 394 392 394 343 L394 221 C394 167 388 138 369 111 C349 80 319 62 288 62 C266 62 247 72 236 88 C226 103 224 117 224 158 L224 469 L24 469 L24 402 Z M282 778 C212 778 153 721 153 652 C153 577 209 520 283 520 C353 520 411 578 411 649 C411 720 353 778 282 778 L282 778 Z M282 714 C318 714 347 685 347 649 C347 613 318 584 282 584 C245 584 217 612 217 650 C217 685 246 714 282 714 L282 714 Z " />
<glyph glyph-name="Uhungarumlaut" unicode="&#x170;" horiz-adv-x="722" d="M19 591 L48 591 C101 592 108 584 108 530 L108 211 C108 127 128 75 175 37 C222 -1 284 -20 359 -20 C523 -20 612 61 612 211 L612 530 C612 584 619 592 672 591 L700 591 L700 667 L407 667 L407 591 L443 591 C497 592 504 584 504 530 L504 211 C504 161 496 134 474 114 C450 91 412 78 372 78 C335 78 299 90 277 111 C255 131 248 155 248 211 L248 530 C248 584 255 592 309 591 L348 591 L348 667 L19 667 L19 591 Z M277 721 L372 786 C389 798 399 813 399 828 C399 850 379 869 357 869 C338 869 324 858 308 831 L239 721 L277 721 Z M403 721 L524 783 C547 795 558 809 558 826 C558 848 538 868 516 868 C500 868 486 860 467 838 L364 721 L403 721 Z " />
<glyph glyph-name="uhungarumlaut" unicode="&#x171;" horiz-adv-x="613" d="M24 402 L47 402 C97 400 104 392 104 343 L104 158 C104 87 113 51 136 26 C158 1 199 -15 238 -15 C297 -15 337 10 394 82 L394 0 L592 0 L592 67 L568 67 C520 69 514 76 514 126 L514 469 L291 469 L291 402 L337 402 C387 400 394 392 394 343 L394 221 C394 167 388 138 369 111 C349 80 319 62 288 62 C266 62 247 72 236 88 C226 103 224 117 224 158 L224 469 L24 469 L24 402 Z M188 540 L232 540 L340 637 C360 654 370 671 370 687 C370 711 350 731 325 731 C299 731 284 718 259 671 L188 540 Z M313 540 L356 540 L497 631 C523 648 536 665 536 682 C536 708 516 729 490 729 C465 729 451 719 421 680 L313 540 Z " />
<glyph glyph-name="Uogonek" unicode="&#x172;" horiz-adv-x="722" d="M700 591 L700 667 L407 667 L407 591 L443 591 C497 592 504 584 504 530 L504 211 C504 161 496 134 474 114 C450 91 412 78 372 78 C335 78 299 90 277 111 C255 131 248 155 248 211 L248 530 C248 584 255 592 309 591 L348 591 L348 667 L19 667 L19 591 L48 591 C101 592 108 584 108 530 L108 211 C108 127 128 75 175 37 C222 -1 284 -20 358 -20 C387 -20 411 -18 435 -12 C374 -61 347 -102 347 -147 C347 -193 378 -222 428 -222 C476 -222 509 -196 537 -135 L521 -125 C502 -153 494 -159 474 -159 C449 -159 436 -141 436 -108 C436 -70 455 -33 488 -7 C519 17 545 38 567 58 C571 62 574 67 577 71 C600 108 612 157 612 211 L612 530 C612 584 619 592 672 591 L700 591 Z " />
<glyph glyph-name="uogonek" unicode="&#x173;" horiz-adv-x="577" d="M533 0 C456 -51 417 -103 417 -156 C417 -202 447 -231 496 -231 C544 -231 577 -205 605 -144 L589 -134 C569 -163 562 -168 542 -168 C518 -168 504 -150 504 -118 C504 -77 521 -44 562 -2 L565 0 L592 0 L592 67 L568 67 C520 69 514 76 514 126 L514 469 L291 469 L291 402 L337 402 C387 400 394 392 394 343 L394 221 C394 167 388 138 369 111 C349 80 319 62 288 62 C266 62 247 72 236 88 C226 103 224 117 224 158 L224 469 L24 469 L24 402 L47 402 C97 400 104 392 104 343 L104 158 C104 87 113 51 136 26 C158 1 199 -15 238 -15 C297 -15 337 10 394 82 L394 0 L533 0 Z " />
<glyph glyph-name="Ydieresis" unicode="&#x178;" horiz-adv-x="693" d="M530 76 L477 76 C423 75 416 83 416 137 L416 279 L601 547 C627 583 639 590 674 591 L696 591 L696 667 L403 667 L403 591 L461 591 C483 591 493 585 493 572 C493 564 489 553 481 543 L367 381 L258 538 C249 550 245 561 245 570 C245 585 256 591 285 591 L335 591 L335 667 L0 667 L0 591 L31 591 C69 589 87 576 123 523 L276 279 L276 137 C276 83 269 75 215 76 L162 76 L162 0 L530 0 L530 76 Z M258 858 C222 858 190 826 190 791 C190 752 220 722 259 722 C295 722 326 753 326 789 C326 826 295 858 258 858 L258 858 Z M435 858 C399 858 367 826 367 791 C367 752 397 722 436 722 C472 722 503 753 503 789 C503 826 472 858 435 858 L435 858 Z " />
<glyph glyph-name="Zacute" unicode="&#x179;" horiz-adv-x="623" d="M38 0 L573 0 L573 302 L501 302 C485 105 458 75 299 76 L198 76 L573 581 L573 667 L57 667 L57 387 L129 387 C133 554 169 595 309 591 L416 591 L38 80 L38 0 Z M274 721 L412 772 C439 782 455 801 455 822 C455 847 434 868 409 868 C393 868 380 862 358 842 L220 721 L274 721 Z " />
<glyph glyph-name="zacute" unicode="&#x17a;" horiz-adv-x="476" d="M19 0 L437 0 L437 224 L370 224 C363 85 347 66 236 67 L154 67 L437 394 L437 469 L38 469 L38 262 L105 262 C108 377 126 402 207 402 L306 402 L19 73 L19 0 Z M135 540 L190 540 L349 619 C385 637 399 653 399 677 C399 707 376 730 346 730 C322 730 303 718 270 683 L135 540 Z " />
<glyph glyph-name="Zdotaccent" unicode="&#x17b;" horiz-adv-x="623" d="M38 0 L573 0 L573 302 L501 302 C485 105 458 75 299 76 L198 76 L573 581 L573 667 L57 667 L57 387 L129 387 C133 554 169 595 309 591 L416 591 L38 80 L38 0 Z M312 862 C275 862 241 829 241 792 C241 753 273 721 312 721 C350 721 382 753 382 791 C382 829 349 862 312 862 L312 862 Z " />
<glyph glyph-name="zdotaccent" unicode="&#x17c;" horiz-adv-x="476" d="M19 0 L437 0 L437 224 L370 224 C363 85 347 66 236 67 L154 67 L437 394 L437 469 L38 469 L38 262 L105 262 C108 377 126 402 207 402 L306 402 L19 73 L19 0 Z M240 702 C201 702 166 668 166 631 C166 590 199 557 240 557 C280 557 311 589 311 629 C311 669 279 702 240 702 L240 702 Z " />
<glyph glyph-name="Zcaron" unicode="&#x17d;" horiz-adv-x="623" d="M38 0 L573 0 L573 302 L501 302 C485 105 458 75 299 76 L198 76 L573 581 L573 667 L57 667 L57 387 L129 387 C133 554 169 595 309 591 L416 591 L38 80 L38 0 Z M157 858 L254 721 L369 721 L466 858 L419 858 L311 803 L204 858 L157 858 Z " />
<glyph glyph-name="zcaron" unicode="&#x17e;" horiz-adv-x="476" d="M19 0 L437 0 L437 224 L370 224 C363 85 347 66 236 67 L154 67 L437 394 L437 469 L38 469 L38 262 L105 262 C108 377 126 402 207 402 L306 402 L19 73 L19 0 Z M83 719 L194 540 L283 540 L394 719 L345 719 L238 636 L131 719 L83 719 Z " />
<glyph glyph-name="florin" unicode="&#x192;" horiz-adv-x="577" d="M368 398 L465 398 L475 467 L379 467 L389 535 C400 608 420 633 466 633 C483 633 491 630 504 619 C472 609 455 586 455 554 C455 525 475 506 507 506 C550 506 582 545 582 595 C582 649 534 684 461 684 C351 684 288 618 268 483 L265 467 L180 467 L170 398 L255 398 L193 -15 C182 -87 162 -113 116 -113 C99 -113 90 -110 78 -99 C110 -89 127 -66 127 -35 C127 -5 107 13 74 13 C31 13 -1 -25 -1 -76 C-1 -129 47 -164 120 -164 C230 -164 294 -98 314 37 L368 398 Z " />
<glyph glyph-name="uni01D3" unicode="&#x1d3;" horiz-adv-x="722" d="M19 591 L48 591 C101 592 108 584 108 530 L108 211 C108 127 128 75 175 37 C222 -1 284 -20 359 -20 C523 -20 612 61 612 211 L612 530 C612 584 619 592 672 591 L700 591 L700 667 L407 667 L407 591 L443 591 C497 592 504 584 504 530 L504 211 C504 161 496 134 474 114 C450 91 412 78 372 78 C335 78 299 90 277 111 C255 131 248 155 248 211 L248 530 C248 584 255 592 309 591 L348 591 L348 667 L19 667 L19 591 Z M207 858 L303 721 L419 721 L515 858 L468 858 L361 803 L253 858 L207 858 Z " />
<glyph glyph-name="Scommaaccent" unicode="&#x218;" horiz-adv-x="608" d="M40 0 L105 0 L126 62 C210 1 263 -19 337 -19 C475 -19 574 69 574 193 C574 252 549 308 508 341 C476 366 424 390 371 402 L244 433 C185 447 157 475 157 520 C157 573 201 606 274 606 C319 606 368 588 399 560 C433 528 455 482 468 414 L540 414 L540 667 L484 667 L450 618 C375 673 337 687 265 687 C129 687 38 604 38 480 C38 375 98 317 245 281 L348 256 C418 239 450 208 450 158 C450 102 405 71 326 71 C266 71 223 86 184 123 C146 158 129 194 113 275 L40 275 L40 0 Z M247 -280 C290 -276 312 -266 334 -245 C358 -220 372 -185 372 -146 C372 -92 340 -57 290 -57 C252 -57 225 -82 225 -116 C225 -146 247 -168 276 -168 C288 -168 297 -165 314 -157 C309 -210 291 -233 247 -240 L247 -280 Z " />
<glyph glyph-name="scommaaccent" unicode="&#x219;" horiz-adv-x="467" d="M28 -6 L91 -6 L107 36 C173 -8 200 -17 259 -17 C370 -17 439 41 439 136 C439 215 391 261 280 289 L195 310 C164 317 147 335 147 360 C147 394 174 415 216 415 C246 415 283 402 305 383 C327 364 338 345 351 302 L415 302 L415 475 L361 475 L341 439 C292 473 257 486 206 486 C102 486 33 427 33 339 C33 266 80 219 178 194 L247 177 C297 165 320 145 320 115 C320 78 290 55 243 55 C214 55 188 62 168 74 C130 97 112 125 97 186 L28 186 L28 -6 Z M181 -280 C224 -276 246 -266 268 -245 C292 -220 306 -185 306 -146 C306 -92 274 -57 224 -57 C186 -57 159 -82 159 -116 C159 -146 181 -168 210 -168 C222 -168 231 -165 248 -157 C243 -210 225 -233 181 -240 L181 -280 Z " />
<glyph glyph-name="uni021A" unicode="&#x21a;" horiz-adv-x="642" d="M251 137 C251 83 244 75 190 76 L137 76 L137 0 L504 0 L504 76 L451 76 C398 75 391 83 391 137 L391 593 C503 595 543 543 547 391 L619 391 L619 667 L23 667 L23 391 L95 391 C98 543 138 596 251 593 L251 137 Z M268 -280 C311 -276 333 -266 355 -245 C379 -220 393 -185 393 -146 C393 -92 361 -57 311 -57 C273 -57 246 -82 246 -116 C246 -146 268 -168 297 -168 C309 -168 318 -165 335 -157 C330 -210 312 -233 268 -240 L268 -280 Z " />
<glyph glyph-name="uni021B" unicode="&#x21b;" horiz-adv-x="382" d="M84 400 L84 147 C84 87 89 59 106 32 C126 -1 159 -17 207 -17 C259 -17 300 6 319 46 C335 80 340 114 340 186 L340 221 L278 221 C277 133 276 115 270 99 C263 82 253 75 237 75 C212 75 204 89 204 133 L204 400 L326 400 L326 469 L203 469 L203 653 L143 653 C132 526 104 486 14 465 L14 400 L84 400 Z M138 -280 C181 -276 203 -266 225 -245 C249 -220 263 -185 263 -146 C263 -92 231 -57 181 -57 C143 -57 116 -82 116 -116 C116 -146 138 -168 167 -168 C179 -168 188 -165 205 -157 C200 -210 182 -233 138 -240 L138 -280 Z " />
<glyph glyph-name="afii57929" unicode="&#x2bc;" horiz-adv-x="226" d="M31 413 C124 428 183 493 183 581 C183 644 147 687 94 687 C52 687 23 659 23 617 C23 581 46 555 79 555 C93 555 103 558 121 570 C119 510 90 474 31 457 L31 413 Z " />
<glyph glyph-name="circumflex" unicode="&#x2c6;" horiz-adv-x="491" d="M90 540 L139 540 L246 623 L353 540 L401 540 L291 720 L201 720 L90 540 Z " />
<glyph glyph-name="caron" unicode="&#x2c7;" horiz-adv-x="491" d="M90 719 L201 540 L291 540 L401 719 L353 719 L246 636 L139 719 L90 719 Z " />
<glyph glyph-name="uni02C9" unicode="&#x2c9;" horiz-adv-x="490" d="M96 588 L394 588 L394 670 L96 670 L96 588 Z " />
<glyph glyph-name="breve" unicode="&#x2d8;" horiz-adv-x="491" d="M87 704 C98 649 109 624 131 600 C159 571 200 555 245 555 C290 555 332 572 360 600 C382 623 392 649 403 704 L358 704 C342 659 315 644 245 644 C176 644 150 658 132 704 L87 704 Z " />
<glyph glyph-name="dotaccent" unicode="&#x2d9;" horiz-adv-x="482" d="M243 702 C204 702 169 668 169 631 C169 590 202 557 243 557 C283 557 314 589 314 629 C314 669 282 702 243 702 L243 702 Z " />
<glyph glyph-name="ring" unicode="&#x2da;" horiz-adv-x="488" d="M219 778 C149 778 90 721 90 652 C90 577 146 520 220 520 C290 520 348 578 348 649 C348 720 290 778 219 778 L219 778 Z M219 714 C255 714 284 685 284 649 C284 613 255 584 219 584 C182 584 154 612 154 650 C154 685 183 714 219 714 L219 714 Z " />
<glyph glyph-name="ogonek" unicode="&#x2db;" horiz-adv-x="475" d="M275 14 C184 -43 143 -95 143 -152 C143 -198 173 -227 222 -227 C270 -227 302 -201 331 -140 L315 -130 C295 -158 287 -164 268 -164 C243 -164 229 -146 229 -114 C229 -69 246 -39 301 14 L275 14 Z " />
<glyph glyph-name="tilde" unicode="&#x2dc;" horiz-adv-x="491" d="M127 555 C136 587 149 601 172 601 C180 601 191 599 204 596 L260 580 C271 577 282 576 293 576 C322 576 347 587 364 608 C383 630 391 651 404 704 L364 704 C352 670 342 660 319 660 C313 660 304 661 296 663 L238 679 C224 682 211 684 199 684 C139 684 109 649 87 555 L127 555 Z " />
<glyph glyph-name="hungarumlaut" unicode="&#x2dd;" horiz-adv-x="485" d="M124 540 L168 540 L276 637 C296 654 306 671 306 687 C306 711 286 731 261 731 C235 731 220 718 195 671 L124 540 Z M248 540 L292 540 L433 631 C457 647 471 665 471 682 C471 708 451 729 425 729 C401 729 387 719 356 680 L248 540 Z " />
<glyph glyph-name="uni2011" unicode="&#x2011;" horiz-adv-x="256" d="M0 184 L256 184 L256 290 L0 290 L0 184 Z " />
<glyph glyph-name="figuredash" unicode="&#x2012;" horiz-adv-x="529" d="M29 196 L501 196 L501 279 L29 279 L29 196 Z " />
<glyph glyph-name="endash" unicode="&#x2013;" horiz-adv-x="529" d="M29 196 L501 196 L501 279 L29 279 L29 196 Z " />
<glyph glyph-name="emdash" unicode="&#x2014;" horiz-adv-x="674" d="M0 196 L674 196 L674 279 L0 279 L0 196 Z " />
<glyph glyph-name="afii00208" unicode="&#x2015;" horiz-adv-x="674" d="M0 196 L674 196 L674 279 L0 279 L0 196 Z " />
<glyph glyph-name="quoteleft" unicode="&#x2018;" horiz-adv-x="227" d="M199 687 C106 671 47 606 47 519 C47 456 83 413 137 413 C178 413 207 441 207 483 C207 519 184 545 151 545 C136 545 127 542 109 530 C111 589 140 626 199 642 L199 687 Z " />
<glyph glyph-name="quoteright" unicode="&#x2019;" horiz-adv-x="226" d="M31 413 C124 428 183 493 183 581 C183 644 147 687 94 687 C52 687 23 659 23 617 C23 581 46 555 79 555 C93 555 103 558 121 570 C119 510 90 474 31 457 L31 413 Z " />
<glyph glyph-name="quotesinglbase" unicode="&#x201a;" horiz-adv-x="226" d="M31 -143 C124 -128 183 -63 183 24 C183 87 147 130 94 130 C52 130 23 102 23 61 C23 25 46 -1 79 -1 C94 -1 103 2 121 14 C119 -46 90 -82 31 -99 L31 -143 Z " />
<glyph glyph-name="quotedblleft" unicode="&#x201c;" horiz-adv-x="453" d="M423 687 C330 671 271 606 271 519 C271 456 307 413 360 413 C402 413 431 442 431 483 C431 519 408 545 375 545 C360 545 351 542 333 530 C335 589 363 625 423 642 L423 687 Z M199 687 C106 671 47 606 47 519 C47 456 83 413 137 413 C178 413 207 441 207 483 C207 519 184 545 151 545 C136 545 127 542 109 530 C111 589 140 626 199 642 L199 687 Z " />
<glyph glyph-name="quotedblright" unicode="&#x201d;" horiz-adv-x="453" d="M255 413 C348 428 407 493 407 581 C407 644 371 687 318 687 C276 687 247 659 247 617 C247 581 270 555 303 555 C317 555 327 558 345 570 C343 510 314 474 255 457 L255 413 Z M31 413 C124 428 183 493 183 581 C183 644 147 687 94 687 C52 687 23 659 23 617 C23 581 46 555 79 555 C93 555 103 558 121 570 C119 510 90 474 31 457 L31 413 Z " />
<glyph glyph-name="quotedblbase" unicode="&#x201e;" horiz-adv-x="453" d="M255 -143 C349 -127 407 -63 407 24 C407 87 371 130 318 130 C276 130 247 102 247 61 C247 24 270 -1 303 -1 C318 -1 327 2 345 14 C343 -46 314 -82 255 -99 L255 -143 Z M31 -143 C124 -127 183 -63 183 24 C183 87 147 130 94 130 C52 130 23 102 23 61 C23 24 46 -1 79 -1 C94 -1 103 2 121 14 C119 -46 90 -82 31 -99 L31 -143 Z " />
<glyph glyph-name="dagger" unicode="&#x2020;" horiz-adv-x="561" d="M307 404 C310 477 313 498 332 582 C335 600 338 618 338 629 C338 665 316 687 281 687 C245 687 223 665 223 629 C223 618 226 600 229 582 C248 498 251 477 254 404 C219 409 213 410 181 421 C143 433 125 437 104 437 C68 437 47 418 47 385 C47 352 68 333 104 333 C125 333 144 337 181 349 C214 360 219 361 254 366 C252 220 249 163 232 -19 C222 -114 222 -114 222 -137 C222 -187 242 -214 280 -214 C317 -214 337 -187 337 -137 C337 -122 336 -104 334 -87 C311 132 306 221 307 366 C342 361 348 360 380 349 C418 337 436 333 458 333 C493 333 514 352 514 385 C514 418 493 437 458 437 C436 437 418 433 380 421 C348 410 342 409 307 404 L307 404 Z " />
<glyph glyph-name="daggerdbl" unicode="&#x2021;" horiz-adv-x="561" d="M221 236 C246 171 253 134 254 74 C219 79 213 81 181 91 C143 103 125 107 104 107 C68 107 47 88 47 55 C47 23 68 4 104 4 C126 4 143 8 181 20 C213 30 219 31 254 37 C252 -11 249 -28 241 -63 C223 -134 223 -135 223 -155 C223 -192 245 -214 281 -214 C316 -214 338 -192 338 -155 C338 -143 336 -125 332 -109 C311 -28 310 -24 307 37 C342 31 349 30 380 20 C419 8 436 4 457 4 C493 4 514 23 514 55 C514 88 493 107 457 107 C436 107 418 103 380 91 C348 81 342 79 307 74 C307 130 316 171 340 236 C316 302 310 329 307 398 C342 393 348 391 380 381 C418 369 436 365 458 365 C493 365 514 384 514 417 C514 450 493 469 458 469 C436 469 418 465 380 453 C348 442 342 441 307 436 C309 483 312 501 320 536 C338 607 338 608 338 628 C338 665 317 687 281 687 C245 687 223 665 223 628 C223 616 226 598 229 582 C250 500 251 496 254 436 C219 441 213 442 181 453 C143 465 125 469 104 469 C68 469 47 450 47 417 C47 384 68 365 104 365 C125 365 143 369 181 381 C213 391 219 393 254 398 C254 341 246 301 221 236 L221 236 Z " />
<glyph glyph-name="bullet" unicode="&#x2022;" horiz-adv-x="633" d="M318 480 C244 480 186 418 186 340 C186 263 244 200 317 200 C389 200 447 263 447 340 C447 417 389 480 318 480 L318 480 Z " />
<glyph glyph-name="ellipsis" unicode="&#x2026;" horiz-adv-x="877" d="M146 130 C107 130 75 97 75 58 C75 16 106 -17 146 -17 C184 -17 215 16 215 57 C215 97 184 130 146 130 L146 130 Z M438 130 C399 130 367 97 367 58 C367 16 398 -17 439 -17 C477 -17 508 16 508 57 C508 97 477 130 438 130 L438 130 Z M731 130 C692 130 660 97 660 58 C660 16 691 -17 731 -17 C769 -17 800 16 800 57 C800 97 769 130 731 130 L731 130 Z " />
<glyph glyph-name="perthousand" unicode="&#x2030;" horiz-adv-x="1315" d="M208 622 C103 622 28 543 28 433 C28 317 101 239 209 239 C315 239 389 318 389 431 C389 543 315 622 208 622 L208 622 Z M209 559 C257 559 278 518 278 428 C278 341 257 302 209 302 C162 302 140 342 140 430 C140 517 162 559 209 559 L209 559 Z M669 622 L592 622 L238 -17 L315 -17 L669 622 Z M698 366 C593 366 518 287 518 177 C518 61 591 -17 699 -17 C805 -17 879 62 879 174 C879 287 805 366 698 366 L698 366 Z M698 303 C746 303 767 262 767 172 C767 85 746 46 698 46 C651 46 629 86 629 174 C629 261 651 303 698 303 L698 303 Z M1103 366 C998 366 923 287 923 177 C923 61 996 -17 1104 -17 C1210 -17 1284 62 1284 174 C1284 287 1210 366 1103 366 L1103 366 Z M1103 303 C1151 303 1172 262 1172 171 C1172 85 1151 46 1103 46 C1056 46 1034 86 1034 175 C1034 261 1056 303 1103 303 L1103 303 Z " />
<glyph glyph-name="guilsinglleft" unicode="&#x2039;" horiz-adv-x="274" d="M145 72 L213 72 L186 139 C177 160 164 220 164 237 C164 255 177 315 186 336 L213 403 L145 403 L107 346 C76 299 57 257 57 238 C57 218 76 176 107 129 L145 72 Z " />
<glyph glyph-name="guilsinglright" unicode="&#x203a;" horiz-adv-x="274" d="M125 72 L163 129 C194 177 213 218 213 238 C213 257 194 299 163 346 L125 403 L57 403 L84 336 C93 314 106 255 106 237 C106 220 93 161 84 139 L57 72 L125 72 Z " />
<glyph glyph-name="uni203E" unicode="&#x203e;" horiz-adv-x="499" d="M0 785 L0 711 L500 711 L500 785 L0 785 Z " />
<glyph glyph-name="fraction" unicode="&#x2044;" horiz-adv-x="156" d="M-156 -17 L-84 -17 L316 622 L241 622 L-156 -17 Z " />
<glyph glyph-name="Euro" unicode="&#x20ac;" horiz-adv-x="715" d="M98 355 L98 335 C98 327 98 321 99 311 L52 311 L28 252 L106 252 C140 86 261 -19 420 -19 C509 -19 576 11 623 72 C660 119 674 162 685 258 L605 258 C592 186 579 155 553 123 C524 90 484 72 438 72 C370 72 313 109 282 173 C271 197 266 214 260 252 L449 252 L473 311 L255 311 C254 317 254 322 254 328 C254 340 254 345 255 355 L491 355 L514 414 L261 414 C281 536 344 605 437 605 C487 605 532 583 563 544 C590 510 601 478 613 404 L685 404 L685 677 L617 677 L599 618 C525 671 485 686 414 686 C265 686 134 571 105 414 L52 414 L28 355 L98 355 Z " />
<glyph glyph-name="uni2117" unicode="&#x2117;" horiz-adv-x="297" d="M145 474 C111 474 81 451 81 423 C81 394 109 370 144 370 C181 370 209 393 209 422 C209 451 181 474 145 474 L145 474 Z M19 0 L281 0 L281 47 L256 47 C213 49 208 53 208 89 L208 330 L19 330 L19 283 L50 283 C94 281 100 277 100 241 L100 89 C100 53 95 49 50 47 L19 47 L19 0 Z " />
<glyph glyph-name="trademark" unicode="&#x2122;" horiz-adv-x="949" d="M150 367 C150 338 148 336 117 336 L83 336 L83 287 L309 287 L309 336 L274 336 C243 336 241 338 241 367 L241 619 C305 620 327 591 328 506 L378 506 L378 667 L14 667 L14 506 L64 506 C65 590 87 620 150 619 L150 367 Z M735 287 L937 287 L937 336 L913 336 C882 336 880 339 880 367 L880 587 C880 616 883 618 913 618 L937 618 L937 667 L761 667 L670 431 L589 667 L406 667 L406 618 L429 618 C459 618 462 615 462 587 L462 367 C462 339 460 336 429 336 L406 336 L406 287 L590 287 L590 336 L565 336 C534 336 532 338 532 367 L532 596 L640 287 L681 287 L796 592 L796 367 C796 338 794 336 763 336 L735 336 L735 287 Z " />
<glyph glyph-name="uni2126" unicode="&#x2126;" horiz-adv-x="768" d="M326 0 L308 155 C230 199 180 288 180 382 C180 434 195 493 221 540 C257 605 317 642 385 642 C453 642 513 605 549 540 C575 493 590 434 590 382 C590 288 540 199 462 155 L444 0 L736 0 L736 153 L712 153 C704 108 684 90 643 90 L497 90 L500 128 C535 141 557 151 580 166 C657 215 702 296 702 382 C702 449 673 522 625 578 C564 648 480 686 385 686 C290 686 206 648 145 578 C97 522 68 449 68 382 C68 296 113 215 190 166 C213 151 235 141 270 128 L273 90 L127 90 C86 90 66 108 58 153 L34 153 L34 0 L326 0 Z " />
<glyph glyph-name="partialdiff" unicode="&#x2202;" horiz-adv-x="494" d="M107 674 C152 697 184 706 219 706 C321 706 379 611 379 447 C379 418 377 394 372 346 C308 396 272 412 221 412 C172 412 131 394 95 355 C51 309 26 246 26 184 C26 76 109 -10 213 -10 C282 -10 341 22 383 84 C429 152 462 286 462 403 C462 519 428 611 360 681 C312 730 259 753 195 753 C155 753 122 746 66 725 L107 674 Z M366 312 C350 201 340 158 314 107 C288 54 245 21 201 21 C146 21 113 73 113 159 C113 273 180 367 261 367 C299 367 324 354 366 312 L366 312 Z " />
<glyph glyph-name="Delta" unicode="&#x2206;" horiz-adv-x="612" d="M6 0 L608 0 L327 688 L6 0 Z M77 51 L290 509 L479 51 L77 51 Z " />
<glyph glyph-name="product" unicode="&#x220f;" horiz-adv-x="823" d="M25 -124 L315 -124 L315 -98 L312 -98 C242 -94 221 -67 224 18 L224 594 C224 656 228 677 242 690 C260 707 272 708 413 708 C556 708 568 707 586 690 C600 677 604 656 604 594 L604 18 C607 -67 586 -94 516 -98 L513 -98 L513 -124 L803 -124 L803 -98 L800 -98 C730 -94 709 -67 712 18 L712 609 C709 694 730 721 800 725 L803 725 L803 751 L25 751 L25 725 L28 725 C98 721 119 694 116 609 L116 18 C119 -67 98 -94 28 -98 L25 -98 L25 -124 Z " />
<glyph glyph-name="summation" unicode="&#x2211;" horiz-adv-x="713" d="M176 711 L444 711 C560 710 590 688 606 587 L632 587 L622 752 L23 752 L256 285 L14 -123 L641 -123 L695 87 L669 87 C639 7 605 -12 491 -11 L163 -11 L364 341 L176 711 Z " />
<glyph glyph-name="minus" unicode="&#x2212;" horiz-adv-x="538" d="M63 358 L63 267 L475 267 L475 358 L63 358 Z " />
<glyph glyph-name="uni2215" unicode="&#x2215;" horiz-adv-x="156" d="M-156 -17 L-84 -17 L316 622 L241 622 L-156 -17 Z " />
<glyph glyph-name="uni2219" unicode="&#x2219;" horiz-adv-x="292" d="M146 308 C107 308 75 275 75 236 C75 194 106 161 146 161 C184 161 215 194 215 235 C215 275 184 308 146 308 L146 308 Z " />
<glyph glyph-name="radical" unicode="&#x221a;" horiz-adv-x="549" d="M363 -35 L515 908 L480 913 L353 123 L156 520 L10 449 L26 414 L121 461 L363 -35 Z " />
<glyph glyph-name="infinity" unicode="&#x221e;" horiz-adv-x="713" d="M357 227 C415 156 485 115 548 115 C631 115 688 176 688 266 C688 354 629 414 543 414 C476 414 412 376 357 303 C300 375 234 414 171 414 C86 414 26 351 26 263 C26 176 84 115 167 115 C224 115 281 142 327 192 L357 227 Z M391 264 C434 325 493 362 546 362 C600 362 638 321 638 264 C638 205 603 167 549 167 C495 167 461 188 391 264 L391 264 Z M324 266 C275 203 216 167 163 167 C111 167 76 207 76 266 C76 323 113 362 167 362 C218 362 258 337 324 266 L324 266 Z " />
<glyph glyph-name="integral" unicode="&#x222b;" horiz-adv-x="274" d="M180 576 C180 653 179 691 176 746 C174 774 173 800 173 815 C173 855 184 878 202 878 C208 878 213 876 215 872 C232 845 239 839 256 839 C276 839 291 853 291 871 C291 898 267 916 231 916 C186 916 152 887 138 838 C123 784 113 682 113 577 L113 232 C113 160 114 124 117 63 C119 34 120 4 120 -12 C120 -47 108 -70 89 -70 C81 -70 74 -65 68 -52 C59 -35 51 -30 37 -30 C17 -30 2 -44 2 -63 C2 -89 26 -107 62 -107 C107 -107 141 -78 155 -29 C170 25 180 126 180 232 L180 576 Z " />
<glyph glyph-name="approxequal" unicode="&#x2248;" horiz-adv-x="549" d="M489 251 C444 199 423 187 384 187 C365 187 354 190 285 211 C212 234 188 239 160 239 C101 239 54 211 14 155 L57 121 C103 174 120 184 159 184 C180 184 180 184 271 157 C350 133 354 132 385 132 C449 132 496 160 527 217 L489 251 Z M489 408 C444 356 423 344 384 344 C365 344 354 347 285 368 C212 391 188 396 160 396 C101 396 54 369 14 312 L57 278 C103 331 120 341 159 341 C180 341 180 341 271 314 C350 290 354 289 385 289 C449 289 496 318 527 375 L489 408 Z " />
<glyph glyph-name="notequal" unicode="&#x2260;" horiz-adv-x="549" d="M187 142 L115 -1 L161 -25 L246 142 L540 142 L540 197 L273 197 L344 336 L540 336 L540 391 L371 391 L439 525 L392 549 L312 391 L15 391 L15 336 L285 336 L215 197 L15 197 L15 142 L187 142 Z " />
<glyph glyph-name="lessequal" unicode="&#x2264;" horiz-adv-x="549" d="M526 55 L29 55 L29 0 L526 0 L526 55 Z M526 639 L29 405 L29 350 L526 117 L526 179 L108 378 L526 577 L526 639 Z " />
<glyph glyph-name="greaterequal" unicode="&#x2265;" horiz-adv-x="549" d="M526 55 L29 55 L29 0 L526 0 L526 55 Z M29 639 L29 577 L447 378 L29 179 L29 117 L526 350 L526 405 L29 639 Z " />
<glyph glyph-name="lozenge" unicode="&#x25ca;" horiz-adv-x="494" d="M209 0 L269 -1 L466 374 L277 740 L214 740 L18 377 L209 0 Z M240 58 L81 376 L245 683 L402 373 L240 58 Z " />
<glyph glyph-name="fi" unicode="&#xfb01;" horiz-adv-x="618" d="M220 467 L220 494 C220 587 251 623 331 623 C355 623 369 620 395 608 C382 591 378 582 378 566 C378 530 404 508 447 508 C490 508 515 532 515 572 C515 642 444 684 325 684 C252 684 200 670 162 640 C121 607 106 566 106 483 L106 467 L14 467 L14 398 L106 398 L106 126 C106 77 99 70 51 67 L14 67 L14 0 L292 0 L292 67 L273 67 C226 69 220 77 220 126 L220 398 L350 398 C396 395 402 388 402 339 L402 126 C402 77 396 70 350 67 L332 67 L332 0 L610 0 L610 67 L574 67 C528 69 522 77 522 126 L522 467 L220 467 Z " />
<glyph glyph-name="fl" unicode="&#xfb02;" horiz-adv-x="618" d="M24 0 L296 0 L296 67 L277 67 C230 69 223 76 223 126 L223 398 L350 398 L350 467 L223 467 L223 494 C223 587 254 624 332 624 C358 624 374 620 398 608 C385 591 381 582 381 566 C381 545 386 535 405 518 L405 126 C405 76 399 69 354 67 L335 67 L335 0 L602 0 L602 67 L577 67 C531 69 525 76 525 126 L525 667 L453 667 C392 681 364 685 322 685 C254 685 203 671 165 641 C124 608 109 566 109 483 L109 467 L24 467 L24 398 L109 398 L109 126 C109 76 103 69 55 67 L24 67 L24 0 Z " />
</font>
</svg>
