<?xml version="1.0" standalone="no"?>
<!DOCTYPE svg PUBLIC "-//W3C//DTD SVG 1.1//EN" "http://www.w3.org/Graphics/SVG/1.1/DTD/svg11.dtd" >
<svg xmlns="http://www.w3.org/2000/svg">
<metadata>
Created by FontPrep 20130207 at Fri May 26 16:01:19 2017
 By Lizzy Knight
Copyright 2016 by URW++ Design &#38; Development GmbH
</metadata>
<defs>
<font id="43a5f12410312c9751dc652e3e5014a2" horiz-adv-x='1024' >
  <font-face 
    font-family="URWDINCond-Black"
    font-weight="900"
    font-stretch="normal"
    units-per-em="2048"
    panose-1="0 0 10 0 0 0 0 0 0 0"
    ascent="1462"
    descent="-586"
    x-height="1073"
    cap-height="1462"
    bbox="-199 -502 2359.01 2140"
    underline-thickness="196"
    underline-position="-86"
    unicode-range="U+0020-FB04"
  />
<missing-glyph horiz-adv-x="327" 
 />
    <glyph glyph-name="ff" unicode="ff" horiz-adv-x="1110" 
d="M653 842h-84v231h84v53q-2 199 67 271t259 65h121v-213h-60q-68 1 -84 -21t-16 -112v-43h166v-231h-166v-842h-287v842zM127 842h-104v231h104v53q-2 199 67 271t259 65h108v-213h-45q-70 1 -86 -21t-16 -112v-43h100v-231h-100v-842h-287v842z" />
    <glyph glyph-name="fi" unicode="fi" horiz-adv-x="1046" 
d="M672 0v1073h286v-1073h-286zM672 1192v283h286v-283h-286zM127 842h-104v231h104v53q-2 199 67 271t259 65h120v-213h-59q-68 1 -84 -21t-16 -112v-43h166v-231h-166v-842h-287v842z" />
    <glyph glyph-name="fl" unicode="fl" horiz-adv-x="1107" 
d="M674 1462h287v-1009q-1 -125 31 -171t120 -44h14v-238h-26q-139 0 -218 18q-160 36 -193 220q-15 88 -15 243v981zM127 842h-104v231h104v53q-2 199 67 271t259 65h120v-213h-59q-68 1 -84 -21t-16 -112v-43h166v-231h-166v-842h-287v842z" />
    <glyph glyph-name="ffi" unicode="ffi" horiz-adv-x="1572" 
d="M1198 0v1073h287v-1073h-287zM1198 1192v283h287v-283h-287zM653 842h-84v231h84v53q-2 199 67 271t259 65h121v-213h-60q-68 1 -84 -21t-16 -112v-43h166v-231h-166v-842h-287v842zM127 842h-104v231h104v53q-2 199 67 271t259 65h108v-213h-45q-70 1 -86 -21t-16 -112
v-43h100v-231h-100v-842h-287v842z" />
    <glyph glyph-name="ffl" unicode="ffl" horiz-adv-x="1634" 
d="M1198 1462h287v-1009q-2 -125 31 -171t120 -44h15v-238h-27q-139 0 -218 18q-160 36 -193 220q-15 88 -15 243v981zM653 842h-84v231h84v53q-2 199 67 271t259 65h121v-213h-60q-68 1 -84 -21t-16 -112v-43h166v-231h-166v-842h-287v842zM127 842h-104v231h104v53
q-2 199 67 271t259 65h108v-213h-45q-70 1 -86 -21t-16 -112v-43h100v-231h-100v-842h-287v842z" />
    <glyph glyph-name=".notdef" horiz-adv-x="327" 
 />
    <glyph glyph-name=".null" horiz-adv-x="0" 
 />
    <glyph glyph-name="nonmarkingreturn" horiz-adv-x="681" 
 />
    <glyph glyph-name="space" unicode=" " horiz-adv-x="327" 
 />
    <glyph glyph-name="exclam" unicode="!" horiz-adv-x="583" 
d="M150 0v283h288v-283h-288zM176 424l-45 1038h324l-43 -1038h-236z" />
    <glyph glyph-name="quotedbl" unicode="&#x22;" horiz-adv-x="811" 
d="M469 852l-23 610h299l-22 -610h-254zM88 852l-22 610h299l-23 -610h-254z" />
    <glyph glyph-name="numbersign" unicode="#" 
d="M365 602h106l23 193h-107zM129 602l23 193h-93l23 178h92l37 325h235l-38 -325h106l39 325h233l-36 -325h92l-25 -178h-88l-22 -193h94l-25 -180h-92l-37 -316h-233l37 316h-107l-37 -316h-235l37 316h-93l25 180h88z" />
    <glyph glyph-name="dollar" unicode="$" 
d="M420 240q128 0 127 189q1 95 -27 127t-50 42t-126 47q-162 55 -232 153t-69 265q0 324 246 379v225h295v-242q203 -86 204 -366h-276q-8 96 -26 128t-68 32q-94 0 -94 -142q0 -77 36 -117t168 -85q130 -45 191 -101q109 -94 108 -317q0 -352 -243 -428v-308h-295v299
q-271 70 -271 457h279q2 -131 29 -184q28 -53 94 -53z" />
    <glyph glyph-name="percent" unicode="%" horiz-adv-x="1679" 
d="M524 0l365 1462h264l-365 -1462h-264zM1380 291v149q0 80 -14 110t-53 30t-55 -30t-15 -110v-149q0 -80 15 -110q14 -29 54 -29t54 30t14 109zM989 326v80q0 194 72 270t251 76t251 -77t71 -269v-80q0 -193 -72 -270q-72 -76 -250 -76q-179 0 -251 76t-72 270zM436 1024
v150q0 80 -14 110t-54 29q-40 0 -54 -30t-15 -109v-150q0 -80 14 -110q15 -30 55 -30t54 30t14 110zM45 1059v80q0 193 72 269t251 77q178 0 250 -77t72 -269v-80q0 -193 -72 -269t-250 -77q-178 1 -251 77q-72 76 -72 269z" />
    <glyph glyph-name="ampersand" unicode="&#x26;" horiz-adv-x="1236" 
d="M346 340q0 -158 158 -158q106 0 198 72l-231 317q-69 -51 -97 -102t-28 -129zM670 1128q0 132 -95 132q-94 0 -94 -119q0 -94 72 -213q117 68 117 200zM473 -61q-227 0 -330 104q-100 106 -100 293q0 143 65 252t207 207q-69 113 -93 183t-23 146q0 168 98 266t274 97
q177 0 279 -97t102 -270q0 -238 -254 -401l160 -219q23 78 49 213h279q-45 -276 -150 -459l183 -254h-334l-31 41q-154 -102 -381 -102z" />
    <glyph glyph-name="quotesingle" unicode="'" horiz-adv-x="430" 
d="M88 852l-22 610h299l-23 -610h-254z" />
    <glyph glyph-name="parenleft" unicode="(" horiz-adv-x="737" 
d="M164 706q0 286 79 516t253 457l190 -133q-219 -389 -219 -839q0 -237 52 -437t167 -405l-190 -131q-174 225 -253 455q-79 231 -79 517z" />
    <glyph glyph-name="parenright" unicode=")" horiz-adv-x="737" 
d="M51 1546l191 133q176 -231 254 -459t78 -513t-78 -514t-254 -459l-191 131q102 182 148 332q71 235 71 517t-82 531q-45 137 -137 301z" />
    <glyph glyph-name="asterisk" unicode="*" 
d="M430 1010l-106 -224l-222 123l146 217l-207 56l65 219l203 -88l-12 268h266l-14 -268l203 88l65 -219l-207 -56l148 -217l-221 -123z" />
    <glyph glyph-name="plus" unicode="+" 
d="M45 614v224h262v309h246v-309h262v-224h-262v-311h-246v311h-262z" />
    <glyph glyph-name="comma" unicode="," horiz-adv-x="481" 
d="M35 -385l78 661h313l-129 -661h-262z" />
    <glyph glyph-name="hyphen" unicode="-" horiz-adv-x="704" 
d="M88 602v248h528v-248h-528z" />
    <glyph glyph-name="period" unicode="." horiz-adv-x="483" 
d="M90 0v283h303v-283h-303z" />
    <glyph glyph-name="slash" unicode="/" horiz-adv-x="630" 
d="M-16 -41l383 1544h280l-383 -1544h-280z" />
    <glyph glyph-name="zero" unicode="0" 
d="M520 512v438q0 178 -17 234t-73 57q-56 0 -72 -56q-18 -56 -18 -235v-438q0 -178 17 -234t73 -56t72 56q18 56 18 234zM45 485v492q0 274 88 391t297 117t297 -117t88 -391v-492q0 -274 -88 -391t-297 -117t-297 117t-88 391z" />
    <glyph glyph-name="one" unicode="1" 
d="M299 0v1133l-160 -91l-110 240l377 180h196v-1462h-303z" />
    <glyph glyph-name="two" unicode="2" 
d="M29 0v213l313 475q154 233 154 404q0 84 -18 116t-64 33q-48 0 -68 -47t-24 -162h-279q4 236 96 344q93 108 281 109q377 0 379 -383q0 -186 -84 -344q-41 -74 -180 -277l-162 -233h422v-248h-766z" />
    <glyph glyph-name="three" unicode="3" 
d="M256 653v234h100q76 0 101 37t24 147q0 170 -80 170q-45 0 -63 -39t-27 -141h-276q6 186 65 276q98 147 296 147q388 1 388 -394q0 -244 -96 -318q66 -49 94 -130t29 -222q0 -225 -97 -334t-296 -109q-248 0 -340 189q-41 82 -47 256h276q6 -201 99 -201q102 0 102 209
q0 117 -32 170t-101 53h-119z" />
    <glyph glyph-name="four" unicode="4" 
d="M469 0v252h-440v182l340 1028h307l-318 -968h111v260h270v-260h90v-242h-90v-252h-270z" />
    <glyph glyph-name="five" unicode="5" 
d="M766 1462v-248h-383l-12 -294q47 16 118 16q170 0 241 -95t71 -359t-78 -371q-91 -133 -327 -133t-328 188q-41 82 -48 256h277q6 -201 98 -201q53 -1 78 61t25 198t-18 182t-78 45q-60 0 -97 -84l-217 45l33 794h645z" />
    <glyph glyph-name="six" unicode="6" 
d="M430 721q-68 0 -82 -84q-8 -35 -8 -179t10 -177q18 -72 82 -72t78 84q8 35 8 179t-10 177q-19 72 -78 72zM535 938q113 0 172 -60t81 -152q22 -93 21 -255t-21 -249t-71 -138q-100 -106 -298 -106t-298 128q-72 92 -72 347q0 141 20 232q19 91 83 233l241 544h330
l-238 -528q37 4 50 4z" />
    <glyph glyph-name="seven" unicode="7" 
d="M66 1214v248h690v-180l-320 -1282h-321l344 1214h-393z" />
    <glyph glyph-name="eight" unicode="8" 
d="M428 655q-64 0 -86 -71q-8 -31 -8 -156t12 -158q24 -61 88 -61t84 72q8 31 8 153t-12 160q-22 61 -86 61zM429 1270q-58 0 -77 -68q-6 -34 -6 -144t10 -143q18 -57 76 -57t76 68q6 34 6 146t-10 140q-17 58 -75 58zM784 1079q0 -137 -19 -193t-29 -68q-10 -13 -48 -44
q57 -35 80 -82q49 -98 49 -274q0 -232 -91 -336t-296 -104t-296 104t-91 311t49 299q25 47 80 82q-55 43 -72 94q-25 88 -24 207q0 211 86 310t267 99t268 -98q87 -100 87 -307z" />
    <glyph glyph-name="nine" unicode="9" 
d="M426 1253q-64 0 -78 -75q-8 -31 -8 -159t10 -159q18 -66 82 -66t78 76q8 31 8 159t-10 159q-18 65 -82 65zM322 578q-158 0 -224 122q-49 92 -49 282t21 271q20 82 71 131q100 100 299 100t297 -120q72 -88 72 -328q-1 -137 -21 -225t-81 -227l-267 -584h-327l266 584
q-37 -6 -57 -6z" />
    <glyph glyph-name="colon" unicode=":" horiz-adv-x="483" 
d="M90 782v283h303v-283h-303zM90 0v283h303v-283h-303z" />
    <glyph glyph-name="semicolon" unicode=";" horiz-adv-x="479" 
d="M123 782v283h303v-283h-303zM35 -385l78 661h313l-129 -661h-262z" />
    <glyph glyph-name="less" unicode="&#x3c;" 
d="M356 737l377 -207v-260l-651 387v158l651 389v-262z" />
    <glyph glyph-name="equal" unicode="=" 
d="M76 807v213h706v-213h-706zM76 428v217h706v-217h-706z" />
    <glyph glyph-name="greater" unicode="&#x3e;" 
d="M504 737l-377 205v262l651 -389v-158l-651 -387v260z" />
    <glyph glyph-name="question" unicode="?" horiz-adv-x="911" 
d="M305 0v283h289v-283h-289zM332 416v80q-2 130 24 200t113 174q53 68 72 110q18 42 18 103q0 154 -94 154q-53 0 -73 -41t-32 -164h-276q2 158 47 256q94 193 346 193q201 0 293 -91t92 -288q0 -131 -40 -218q-40 -86 -128 -182t-110 -138q-20 -42 -21 -105v-43h-231z" />
    <glyph glyph-name="at" unicode="@" horiz-adv-x="1550" 
d="M866 746q0 112 -52 112t-91 -108t-39 -232t35 -125q47 0 97 120q50 121 50 233zM1047 455q0 -76 38 -76q33 1 66 23t51 57q57 115 58 301q0 244 -125 394t-328 149q-236 0 -372 -204q-136 -205 -136 -531t111 -478q126 -166 438 -166q163 0 362 90l64 -166
q-231 -113 -455 -112q-167 0 -319 52t-242 140q-201 197 -201 622t195 687q90 121 233 187t312 67q309 0 503 -201t193 -524q0 -250 -122 -413t-308 -163q-78 0 -122 35t-67 115q-49 -82 -96 -116t-114 -34q-102 0 -159 77q-56 77 -56 216q0 242 96 408q86 156 239 156
q66 0 103 -26t59 -85l19 88h168l-72 -455q-14 -92 -14 -114z" />
    <glyph glyph-name="A" unicode="A" horiz-adv-x="1005" 
d="M625 518l-119 541l-117 -541h236zM676 279h-340l-60 -279h-327l430 1462h254l430 -1462h-326z" />
    <glyph glyph-name="B" unicode="B" horiz-adv-x="1040" 
d="M412 242h104q90 0 123 39t33 149t-31 152q-31 41 -115 41h-114v-381zM412 864h102q76 0 108 40t32 138t-31 139q-31 40 -109 40h-102v-357zM109 0v1462h428q227 0 323 -95t96 -313t-118 -290q137 -86 137 -361q0 -223 -109 -325q-47 -42 -106 -60t-164 -18h-487z" />
    <glyph glyph-name="C" unicode="C" horiz-adv-x="980" 
d="M516 -23q-250 0 -356 154q-76 111 -76 379v438q0 293 94 404q109 129 330 129q264 0 366 -189q47 -86 54 -260h-277q-10 121 -38 163q-29 42 -101 42t-98 -62t-27 -249v-394q0 -186 28 -248q27 -62 105 -62t111 52q33 54 37 177h276q-6 -209 -72 -308
q-106 -166 -356 -166z" />
    <glyph glyph-name="D" unicode="D" horiz-adv-x="1060" 
d="M412 242h92q78 2 112 22t46 72t12 176v438q0 123 -12 175q-12 53 -46 73t-112 23h-92v-979zM109 0v1462h380q270 4 381 -100t107 -358v-545q4 -255 -107 -359t-381 -100h-380z" />
    <glyph glyph-name="E" unicode="E" horiz-adv-x="915" 
d="M111 0v1462h745v-248h-442v-354h372v-248h-372v-364h454v-248h-757z" />
    <glyph glyph-name="F" unicode="F" horiz-adv-x="884" 
d="M111 0v1462h733v-248h-430v-364h354v-248h-354v-602h-303z" />
    <glyph glyph-name="G" unicode="G" horiz-adv-x="1040" 
d="M539 584v231h438v-252q0 -295 -72 -411q-109 -174 -370 -174t-371 153q-80 109 -80 379v438q0 295 98 404q113 129 344 129q266 0 367 -189q47 -86 53 -260h-276q-10 121 -38 163t-106 42t-109 -63q-30 -63 -30 -248v-394q0 -162 21 -223q29 -88 119 -88q91 -1 121 59
t30 218v86h-139z" />
    <glyph glyph-name="H" unicode="H" horiz-adv-x="1081" 
d="M109 0v1462h303v-602h258v602h303v-1462h-303v612h-258v-612h-303z" />
    <glyph glyph-name="I" unicode="I" horiz-adv-x="520" 
d="M109 0v1462h303v-1462h-303z" />
    <glyph glyph-name="J" unicode="J" horiz-adv-x="757" 
d="M352 1462h303v-944q0 -283 -43 -375q-80 -166 -313 -166q-117 0 -196 32t-169 116l175 194q90 -98 150 -98q61 -1 77 57t16 236v948z" />
    <glyph glyph-name="K" unicode="K" horiz-adv-x="976" 
d="M113 0v1462h303v-485l284 485h328l-381 -600l385 -862h-334l-231 618l-51 -86v-532h-303z" />
    <glyph glyph-name="L" unicode="L" horiz-adv-x="876" 
d="M109 0v1462h303v-1214h450v-248h-753z" />
    <glyph glyph-name="M" unicode="M" horiz-adv-x="1302" 
d="M109 0v1462h278l264 -747l262 747h281v-1462h-289v801l-157 -484h-193l-158 484v-801h-288z" />
    <glyph glyph-name="N" unicode="N" horiz-adv-x="1126" 
d="M109 0v1462h303l323 -858v858h283v-1462h-287l-340 874v-874h-282z" />
    <glyph glyph-name="O" unicode="O" horiz-adv-x="1062" 
d="M676 502v459q0 170 -29 225t-116 55t-115 -55t-29 -225v-459q0 -170 29 -226q30 -56 116 -55q86 -1 115 55t29 226zM84 477v508q0 246 80 356q102 143 368 144q150 0 240 -40t143 -128q63 -111 64 -332v-508q0 -246 -80 -356q-102 -143 -367 -144q-150 0 -240 40
t-145 128q-63 111 -63 332z" />
    <glyph glyph-name="P" unicode="P" horiz-adv-x="958" 
d="M403 758h89q78 0 108 51t29 183q0 132 -31 180t-106 49h-89v-463zM412 514v-514h-303v1462h380q137 0 217 -26q226 -74 226 -452t-238 -447q-76 -23 -205 -23h-77z" />
    <glyph glyph-name="Q" unicode="Q" horiz-adv-x="1062" 
d="M676 961q0 170 -29 225t-116 55t-115 -55t-29 -225v-459q0 -170 29 -226t116 -55q37 0 60 10l-170 160l158 148l96 -90v512zM84 477v508q0 246 80 356q102 143 368 144q150 0 240 -40t143 -128q63 -111 64 -332v-508q0 -176 -39 -280l109 -103l-158 -149l-90 86
q-98 -53 -269 -54q-289 0 -385 168q-63 111 -63 332z" />
    <glyph glyph-name="R" unicode="R" horiz-adv-x="1019" 
d="M406 819h86q88 0 124 45t35 156q0 111 -33 156t-120 45h-92v-402zM414 588v-588h-303v1462h401q139 0 214 -22q228 -64 228 -388q0 -214 -41 -304q-41 -88 -149 -138l244 -610h-336l-203 588h-55z" />
    <glyph glyph-name="S" unicode="S" horiz-adv-x="929" 
d="M451 221q77 0 111 44q34 43 34 139t-30 127t-52 41t-135 46q-174 56 -250 154t-76 270q0 438 391 439q254 0 355 -189q43 -84 49 -260h-277q-8 121 -32 163q-25 42 -84 42q-113 0 -113 -182q0 -78 39 -120t181 -89t206 -98q117 -92 117 -322q0 -449 -432 -449
q-274 0 -375 201q-43 85 -49 273h276q4 -125 36 -177t110 -53z" />
    <glyph glyph-name="T" unicode="T" horiz-adv-x="831" 
d="M264 0v1214h-260v248h823v-248h-260v-1214h-303z" />
    <glyph glyph-name="U" unicode="U" horiz-adv-x="1083" 
d="M104 1462h304v-985q0 -156 26 -206t107 -50q83 0 109 48t26 208v985h303v-985q0 -145 -15 -220q-14 -75 -64 -143q-101 -138 -357 -137q-145 0 -237 41t-144 132q-57 92 -58 327v985z" />
    <glyph glyph-name="V" unicode="V" horiz-adv-x="1013" 
d="M373 0l-385 1462h303l217 -999l217 999h301l-385 -1462h-268z" />
    <glyph glyph-name="W" unicode="W" horiz-adv-x="1531" 
d="M291 0l-273 1462h304l122 -954l203 954h238l202 -954l125 954h301l-272 -1462h-274l-201 901l-201 -901h-274z" />
    <glyph glyph-name="X" unicode="X" horiz-adv-x="968" 
d="M313 778l-323 684h332l202 -432l150 432h317l-325 -731l344 -731h-330l-225 479l-170 -479h-318z" />
    <glyph glyph-name="Y" unicode="Y" horiz-adv-x="884" 
d="M295 0v494l-365 968h320l196 -610l195 610h322l-365 -968v-494h-303z" />
    <glyph glyph-name="Z" unicode="Z" horiz-adv-x="839" 
d="M10 0v160l461 1054h-412v248h742v-159l-461 -1055h481v-248h-811z" />
    <glyph glyph-name="bracketleft" unicode="[" horiz-adv-x="737" 
d="M213 -201v1813h428v-207h-139v-1399h139v-207h-428z" />
    <glyph glyph-name="backslash" unicode="\" horiz-adv-x="630" 
d="M647 -41h-280l-383 1544h280z" />
    <glyph glyph-name="bracketright" unicode="]" horiz-adv-x="737" 
d="M522 1612v-1813h-426v207h137v1399h-137v207h426z" />
    <glyph glyph-name="asciicircum" unicode="^" 
d="M430 1130l-123 -368h-319l356 708h170l356 -708h-319z" />
    <glyph glyph-name="underscore" unicode="_" horiz-adv-x="749" 
d="M-39 -381v197h830v-197h-830z" />
    <glyph glyph-name="grave" unicode="`" horiz-adv-x="1024" 
d="M657 1186h-213l-239 321h311z" />
    <glyph glyph-name="a" unicode="a" horiz-adv-x="884" 
d="M520 459h-47q-80 0 -112 -31q-31 -31 -31 -104q0 -74 20 -98t74 -24t75 30q22 30 21 106v121zM520 651v19q0 110 -19 150t-69 40t-72 -24q-20 -25 -20 -82h-266q6 156 57 223q88 119 294 119t294 -106t88 -343v-647h-223l-17 59q-73 -82 -225 -82t-226 79t-73 263
q0 185 75 259t267 73h135z" />
    <glyph glyph-name="b" unicode="b" horiz-adv-x="917" 
d="M555 424v274q0 82 -19 117t-65 35q-102 0 -102 -201v-225q0 -201 100 -201q47 0 67 46q19 46 19 155zM82 0v1462h287v-422q74 55 176 56q157 0 227 -100t70 -320v-213q0 -264 -72 -375t-242 -111q-121 0 -211 89l-16 -66h-219z" />
    <glyph glyph-name="c" unicode="c" horiz-adv-x="827" 
d="M458 -23q-208 -1 -296 105q-86 106 -86 344v223q0 238 87 343t281 106q240 0 318 -156q35 -66 41 -213h-264q0 133 -88 133q-51 0 -69 -41t-20 -149v-269q0 -109 20 -149t71 -41q82 0 90 115h266q-6 -154 -57 -230q-86 -121 -294 -121z" />
    <glyph glyph-name="d" unicode="d" horiz-adv-x="917" 
d="M362 698v-270q0 -113 20 -159t67 -46q100 0 100 201v225q0 201 -103 201q-44 0 -64 -35t-20 -117zM76 676q0 221 70 320q71 99 227 100q102 0 176 -56v422h287v-1462h-220l-16 66q-51 -52 -97 -70t-114 -19q-170 0 -242 112t-71 374v213z" />
    <glyph glyph-name="e" unicode="e" horiz-adv-x="915" 
d="M362 668h211v26q0 102 -23 140q-24 36 -85 36t-82 -36q-20 -37 -21 -140v-26zM465 213q96 0 98 115h266q-6 -162 -57 -230q-86 -121 -302 -121t-305 114t-89 374v137q0 266 89 380t296 114t297 -114t90 -380v-141h-486v-60q0 -109 22 -149t81 -39z" />
    <glyph glyph-name="f" unicode="f" horiz-adv-x="583" 
d="M127 842h-104v231h104v53q-2 199 67 271t259 65h120v-213h-59q-68 1 -84 -21t-16 -112v-43h166v-231h-166v-842h-287v842z" />
    <glyph glyph-name="g" unicode="g" horiz-adv-x="917" 
d="M362 698v-264q0 -119 20 -165t69 -46q98 0 98 201v225q0 201 -100 201q-47 0 -67 -35t-20 -117zM549 -35v53q-63 -41 -162 -41q-168 0 -240 112t-71 374v213q0 221 69 320q69 100 211 100t232 -97l28 74h220v-1065q0 -248 -80 -358q-94 -133 -314 -133t-290 141
q-31 63 -37 195h254q2 -61 19 -86q18 -25 68 -25t72 47t21 176z" />
    <glyph glyph-name="h" unicode="h" horiz-adv-x="923" 
d="M82 0v1462h287v-415q61 49 172 49q205 0 270 -152q35 -78 35 -260v-684h-287v643q0 119 -20 163q-19 44 -75 44t-76 -42t-19 -163v-645h-287z" />
    <glyph glyph-name="i" unicode="i" horiz-adv-x="462" 
d="M88 0v1073h287v-1073h-287zM88 1192v283h287v-283h-287z" />
    <glyph glyph-name="j" unicode="j" horiz-adv-x="473" 
d="M98 1192v283h287v-283h-287zM98 1073h287v-1022q2 -164 -15 -261q-16 -96 -72 -158t-143 -84t-237 -19v238q104 -4 143 51t37 205v1050z" />
    <glyph glyph-name="k" unicode="k" horiz-adv-x="880" 
d="M92 0v1462h287v-768l244 379h299l-306 -444l306 -629h-314l-172 424l-57 -80v-344h-287z" />
    <glyph glyph-name="l" unicode="l" horiz-adv-x="524" 
d="M90 1462h287v-1009q-2 -125 31 -171t120 -44h15v-238h-27q-139 0 -218 18q-160 36 -193 220q-15 88 -15 243v981z" />
    <glyph glyph-name="m" unicode="m" horiz-adv-x="1376" 
d="M82 0v1073h213l20 -86q47 59 99 84t127 25q166 0 239 -109q47 59 94 84t123 25q203 0 267 -152q35 -82 34 -262v-682h-286v641q0 121 -20 165t-70 44q-52 0 -70 -41t-18 -154v-655h-287v641q-1 121 -19 165t-69 44t-71 -43t-19 -162v-645h-287z" />
    <glyph glyph-name="n" unicode="n" horiz-adv-x="923" 
d="M82 0v1073h213l20 -86q49 61 99 85t138 24q87 0 158 -40q72 -40 104 -115t32 -259v-682h-287v641q0 121 -20 165q-19 44 -75 44t-76 -42t-19 -163v-645h-287z" />
    <glyph glyph-name="o" unicode="o" horiz-adv-x="921" 
d="M559 403v267q0 110 -20 150q-19 40 -77 40t-78 -40t-22 -150v-267q0 -111 20 -151t78 -39q58 -1 78 39t21 151zM76 426v223q0 240 89 343q89 104 296 104t296 -104t89 -343v-223q0 -242 -89 -345t-296 -103t-296 102q-89 104 -89 346z" />
    <glyph glyph-name="p" unicode="p" horiz-adv-x="917" 
d="M555 424v274q0 82 -19 117t-65 35q-102 0 -102 -201v-225q0 -201 100 -201q47 0 67 46q19 46 19 155zM82 -461v1534h219l29 -74q88 97 230 97t212 -100t70 -320v-213q0 -262 -72 -374t-240 -112q-96 0 -161 41v-479h-287z" />
    <glyph glyph-name="q" unicode="q" horiz-adv-x="917" 
d="M362 698v-270q0 -113 20 -159t67 -46q100 0 100 201v225q0 201 -103 201q-44 0 -64 -35t-20 -117zM549 -461v479q-66 -41 -162 -41q-168 0 -240 112t-71 374v213q0 221 69 320q69 100 211 100t232 -97l28 74h220v-1534h-287z" />
    <glyph glyph-name="r" unicode="r" horiz-adv-x="665" 
d="M82 0v1073h217l37 -86q37 59 77 84q39 25 115 25t170 -70l-125 -240q-63 63 -114 64q-51 0 -71 -75t-19 -259v-516h-287z" />
    <glyph glyph-name="s" unicode="s" horiz-adv-x="819" 
d="M412 213q113 0 112 98q0 57 -24 73t-138 50q-114 33 -154 51t-75 54q-80 85 -80 241t86 236t252 80q236 0 316 -138q37 -59 43 -192h-265q-4 94 -86 94t-82 -88q0 -51 27 -76t164 -59t194 -84q86 -78 86 -247t-94 -249t-295 -80q-254 0 -336 146q-34 66 -40 205h266
q1 -68 27 -92t96 -23z" />
    <glyph glyph-name="t" unicode="t" horiz-adv-x="610" 
d="M123 842h-105v231h105l18 289h269v-289h172v-231h-172v-451q-2 -92 24 -124t96 -29h45v-238h-77q-127 0 -196 15t-113 63t-56 126q-12 77 -10 216v422z" />
    <glyph glyph-name="u" unicode="u" horiz-adv-x="901" 
d="M78 1073h287v-641q0 -119 18 -164q19 -45 67 -45t65 42t17 163v645h287v-1073h-213l-20 86q-50 -61 -96 -85t-119 -24q-197 0 -260 152q-33 80 -33 262v682z" />
    <glyph glyph-name="v" unicode="v" horiz-adv-x="841" 
d="M281 0l-277 1073h291l127 -680l125 680h291l-275 -1073h-282z" />
    <glyph glyph-name="w" unicode="w" horiz-adv-x="1257" 
d="M242 0l-226 1073h291l82 -641l137 641h205l137 -641l82 641h291l-225 -1073h-252l-135 592l-135 -592h-252z" />
    <glyph glyph-name="x" unicode="x" horiz-adv-x="788" 
d="M229 553l-262 520h312l135 -266l106 266h311l-282 -530l276 -543h-313l-143 283l-113 -283h-311z" />
    <glyph glyph-name="y" unicode="y" horiz-adv-x="843" 
d="M57 -471v238q111 -1 145 29t62 161l10 45l-270 1071h291l125 -690l125 690h293l-277 -1139q-59 -256 -151 -330t-353 -75z" />
    <glyph glyph-name="z" unicode="z" horiz-adv-x="702" 
d="M4 0v168l346 670h-305v235h635v-168l-346 -669h368v-236h-698z" />
    <glyph glyph-name="braceleft" unicode="{" horiz-adv-x="737" 
d="M502 1159v-121q2 -168 -12 -217t-72 -90q57 -37 71 -87t13 -220v-172q0 -160 20 -212t84 -50h43v-191h-112q-207 -2 -270 79q-62 81 -56 343v221q2 131 -13 167t-75 36h-14v170h14q59 2 75 38q15 36 13 167v170q-6 262 56 343t270 79h112v-191h-43q-64 2 -84 -50
t-20 -212z" />
    <glyph glyph-name="bar" unicode="|" 
d="M305 -201v1813h248v-1813h-248z" />
    <glyph glyph-name="braceright" unicode="}" horiz-adv-x="737" 
d="M231 252v172q-2 170 13 220q14 50 71 87q-59 41 -72 90t-12 217v121q0 158 -20 211t-84 51h-43v191h113q207 2 269 -79t56 -343v-170q-2 -131 14 -167t74 -38h15v-170h-15q-59 0 -74 -36t-14 -167v-221q6 -262 -56 -343t-269 -79h-113v191h43q63 -2 84 51q20 53 20 211z
" />
    <glyph glyph-name="asciitilde" unicode="~" 
d="M303 899q45 0 65 -8t83 -57q63 -50 77 -58t35 -8q51 0 84 123l156 -49q-33 -117 -74 -178q-76 -109 -184 -109q-35 0 -65 15q-30 16 -92 66t-93 50q-45 0 -78 -133l-162 37q53 309 248 309z" />
    <glyph glyph-name="uni00A0" unicode="&#xa0;" horiz-adv-x="327" 
 />
    <glyph glyph-name="exclamdown" unicode="&#xa1;" horiz-adv-x="583" 
d="M438 1057v-283h-288v283h288zM412 633l43 -1039h-324l45 1039h236z" />
    <glyph glyph-name="cent" unicode="&#xa2;" 
d="M315 61v226q-119 35 -173 134t-54 286v225q0 188 53 288t174 132v225h295v-229q104 -37 150 -116t49 -224h-254q0 141 -96 141q-53 0 -73 -42t-21 -155v-266q0 -110 20 -152t76 -42q92 0 98 139h256q-2 -145 -50 -225t-155 -113v-232h-295z" />
    <glyph glyph-name="sterling" unicode="&#xa3;" 
d="M49 0v213q178 51 178 258q0 55 -10 102h-170v248h88q-53 137 -53 277q0 383 371 383q231 0 323 -178q49 -100 51 -271h-276q-5 121 -23 163t-63 42q-80 0 -80 -164q0 -96 64 -252h251v-248h-192q2 -31 2 -77q0 -168 -68 -248h408v-248h-801z" />
    <glyph glyph-name="currency" unicode="&#xa4;" 
d="M575 674q0 232 -145 233q-145 0 -145 -232t145 -233q145 0 145 232zM53 674q0 146 53 246l-118 133l139 133l113 -127q88 51 190 51t193 -51l110 127l139 -133l-116 -133q51 -100 51 -244t-51 -246l116 -133l-139 -133l-110 127q-89 -51 -193 -51t-190 51l-113 -127
l-139 133l118 133q-53 98 -53 244z" />
    <glyph glyph-name="yen" unicode="&#xa5;" 
d="M283 0v276h-213v160h213v94h-213v160h153l-289 772h320l180 -631l178 631h322l-291 -772h156v-160h-213v-94h213v-160h-213v-276h-303z" />
    <glyph glyph-name="brokenbar" unicode="&#xa6;" horiz-adv-x="798" 
d="M262 0v557h275v-557h-275zM262 879v583h275v-583h-275z" />
    <glyph glyph-name="section" unicode="&#xa7;" 
d="M315 666q0 -60 30 -96t122 -83l57 -28q37 55 37 113q1 58 -29 92t-120 81l-58 31q-39 -51 -39 -110zM512 90q0 59 -32 89t-170 84t-202 131t-63 198q0 72 33 131t121 141q-63 54 -88 116t-25 165q0 340 346 340q229 0 307 -135q35 -59 41 -191h-254q-4 94 -82 94
q-70 0 -69 -92q0 -73 32 -105t144 -77q157 -59 219 -139t62 -206t-154 -265q70 -53 96 -109t27 -154q-1 -182 -99 -268t-307 -86q-260 0 -338 146q-35 63 -41 200h256q2 -63 29 -89q27 -25 91 -25t92 24t28 82z" />
    <glyph glyph-name="dieresis" unicode="&#xa8;" horiz-adv-x="1024" 
d="M559 1192v270h254v-270h-254zM209 1192v270h254v-270h-254z" />
    <glyph glyph-name="copyright" unicode="&#xa9;" horiz-adv-x="1660" 
d="M828 1315q-236 0 -380 -169t-145 -420q1 -251 149 -415t378 -164t379 165t149 418t-148 419q-146 166 -382 166zM832 1503q322 0 535 -221q212 -221 212 -553t-212 -551t-536 -219q-325 0 -537 219t-212 555t213 549q215 221 537 221zM1112 604q0 -72 -10 -104t-41 -62
q-72 -70 -227 -70q-156 0 -220 74t-63 246v84q0 172 64 247q65 75 227 75t223 -90q33 -43 35 -146h-199q-6 44 -20 60t-48 16q-33 0 -47 -29t-14 -110v-129q0 -80 14 -109t50 -29t52 18q15 18 23 58h201z" />
    <glyph glyph-name="ordfeminine" unicode="&#xaa;" horiz-adv-x="593" 
d="M336 1065h-43q-61 0 -61 -80t49 -80q55 0 55 70v90zM324 1188v45q0 55 -10 75t-38 21q-26 0 -36 -11t-17 -48h-160q5 113 59 160t173 47q168 0 213 -93q27 -51 27 -182v-430h-166l-7 39q-45 -53 -140 -53t-141 50t-46 166t56 165t196 49h37z" />
    <glyph glyph-name="guillemotleft" unicode="&#xab;" horiz-adv-x="878" 
d="M322 604l127 -260l-179 -121l-252 381l252 379l179 -121zM727 604l127 -260l-178 -121l-252 381l252 379l178 -121z" />
    <glyph glyph-name="logicalnot" unicode="&#xac;" 
d="M76 614v224h669v-629h-274v405h-395z" />
    <glyph glyph-name="uni00AD" unicode="&#xad;" horiz-adv-x="704" 
d="M88 602v248h528v-248h-528z" />
    <glyph glyph-name="registered" unicode="&#xae;" horiz-adv-x="1337" 
d="M1094 1186q0 194 -117 322t-309 128t-308 -128t-116 -322t116 -323q116 -128 310 -128t308 128q116 128 116 323zM670 1808q268 0 445 -179t177 -445t-177 -444t-445 -177q-268 0 -447 177q-178 176 -178 446t178 446q179 176 447 176zM627 1206h39q35 0 47 16t12 60
q0 68 -53 68h-45v-144zM633 1108v-209h-182v574h243q117 0 164 -41q47 -40 47 -126t-16 -122t-58 -58l107 -227h-195l-77 209h-33z" />
    <glyph glyph-name="macron" unicode="&#xaf;" horiz-adv-x="1024" 
d="M227 1225v207h570v-207h-570z" />
    <glyph glyph-name="degree" unicode="&#xb0;" horiz-adv-x="749" 
d="M375 1364q-57 0 -82 -34t-25 -112t25 -113q25 -34 82 -34t82 35t24 113q-1 77 -25 111t-81 34zM377 899q-164 0 -254 78t-90 237q0 158 88 240t252 82q344 0 344 -319q0 -154 -88 -236t-252 -82z" />
    <glyph glyph-name="plusminus" unicode="&#xb1;" 
d="M45 0v223h770v-223h-770zM45 614v224h262v309h246v-309h262v-224h-262v-311h-246v311h-262z" />
    <glyph glyph-name="twosuperior" unicode="&#xb2;" horiz-adv-x="634" 
d="M35 791v153l207 275q98 129 98 207t-37 77q-29 1 -39 -23t-12 -96h-207q1 160 63 228t203 67q266 0 267 -235q0 -100 -28 -158t-149 -213l-79 -102h251v-180h-538z" />
    <glyph glyph-name="threesuperior" unicode="&#xb3;" horiz-adv-x="634" 
d="M186 1171v158h84q44 -1 60 19t16 73q0 82 -51 82q-25 0 -35 -18t-14 -64h-205q2 111 39 164q63 94 227 94q260 0 260 -241q0 -125 -59 -185q43 -35 59 -79t17 -125q0 -141 -66 -206t-211 -65q-190 0 -246 125q-20 49 -22 146h205q2 -94 55 -95q63 0 63 97q0 121 -79 120
h-97z" />
    <glyph glyph-name="acute" unicode="&#xb4;" horiz-adv-x="1024" 
d="M367 1186l141 321h311l-239 -321h-213z" />
    <glyph glyph-name="mu" unicode="&#xb5;" 
d="M70 1057h274v-596q0 -141 18 -195t66 -53q48 0 69 54q19 54 19 190v600h275v-1057h-181l-37 102q-23 -57 -36 -75q-41 -53 -99 -53t-94 34v-469h-274v1518z" />
    <glyph glyph-name="paragraph" unicode="&#xb6;" horiz-adv-x="1228" 
d="M360 -279v938h-26q-208 0 -291 191q-41 94 -41 216t45 219t125 138q47 27 90 33t174 6h590v-1741h-268v1508h-129v-1508h-269z" />
    <glyph glyph-name="periodcentered" unicode="&#xb7;" horiz-adv-x="483" 
d="M90 582v282h303v-282h-303z" />
    <glyph glyph-name="cedilla" unicode="&#xb8;" horiz-adv-x="1024" 
d="M350 -494l74 367h266l-149 -367h-191z" />
    <glyph glyph-name="onesuperior" unicode="&#xb9;" horiz-adv-x="634" 
d="M246 791v653l-99 -45l-63 137l238 131h153v-876h-229z" />
    <glyph glyph-name="ordmasculine" unicode="&#xba;" horiz-adv-x="591" 
d="M348 1030v174q0 111 -51 111t-51 -111v-174q0 -111 51 -110q51 -1 51 110zM35 1047v141q0 158 59 224q60 66 202 65q142 0 202 -66t59 -223v-141q0 -158 -59 -224q-60 -65 -202 -65t-202 65q-59 66 -59 224z" />
    <glyph glyph-name="guillemotright" unicode="&#xbb;" horiz-adv-x="878" 
d="M557 604l-127 258l178 121l252 -379l-252 -381l-178 121zM152 604l-127 258l178 121l252 -379l-252 -381l-178 121z" />
    <glyph glyph-name="onequarter" unicode="&#xbc;" horiz-adv-x="1595" 
d="M444 0l365 1462h262l-362 -1462h-265zM1239 0v145h-313v131l211 601h225l-195 -558h72v150h186v-150h58v-174h-58v-145h-186zM256 586v637l-109 -45l-77 172l262 112h153v-876h-229z" />
    <glyph glyph-name="onehalf" unicode="&#xbd;" horiz-adv-x="1595" 
d="M387 0l363 1462h264l-365 -1462h-262zM913 0v154l207 274q98 129 98 207t-36 78q-29 0 -39 -24t-13 -95h-206q2 160 63 228t203 67q266 0 266 -236q0 -100 -28 -158t-148 -212l-80 -103h252v-180h-539zM215 586v637l-109 -45l-77 172l262 112h153v-876h-229z" />
    <glyph glyph-name="threequarters" unicode="&#xbe;" horiz-adv-x="1595" 
d="M510 0l362 1462h265l-365 -1462h-262zM1284 0v145h-313v131l211 601h225l-195 -558h72v150h186v-150h58v-174h-58v-145h-186zM207 967v157h84q43 0 59 20t17 73q0 82 -52 81q-25 0 -35 -18t-14 -63h-205q2 111 39 163q63 94 228 95q260 0 260 -242q0 -125 -60 -184
q44 -35 60 -80t16 -125q0 -141 -66 -206t-210 -65q-190 0 -246 125q-20 49 -23 146h205q2 -94 55 -94q63 0 64 96q0 121 -80 121h-96z" />
    <glyph glyph-name="questiondown" unicode="&#xbf;" horiz-adv-x="913" 
d="M635 1057v-283h-289v283h289zM608 641v-80q2 -129 -24 -200t-98 -157q-70 -86 -88 -128t-17 -103q0 -154 94 -153q53 0 74 41q20 41 29 164h278q-6 -166 -49 -256q-92 -193 -346 -193q-199 0 -291 91t-92 288q0 131 40 218t128 183t108 137q20 42 23 105v43h231z" />
    <glyph glyph-name="Agrave" unicode="&#xc0;" horiz-adv-x="1005" 
d="M614 1589h-213l-239 322h311zM625 518l-119 541l-117 -541h236zM676 279h-340l-60 -279h-327l430 1462h254l430 -1462h-326z" />
    <glyph glyph-name="Aacute" unicode="&#xc1;" horiz-adv-x="1005" 
d="M385 1589l141 322h312l-240 -322h-213zM625 518l-119 541l-117 -541h236zM676 279h-340l-60 -279h-327l430 1462h254l430 -1462h-326z" />
    <glyph glyph-name="Acircumflex" unicode="&#xc2;" horiz-adv-x="1005" 
d="M504 1751l-76 -158h-260l227 316h215l228 -316h-258zM625 518l-119 541l-117 -541h236zM676 279h-340l-60 -279h-327l430 1462h254l430 -1462h-326z" />
    <glyph glyph-name="Atilde" unicode="&#xc3;" horiz-adv-x="1005" 
d="M394 1909q88 1 144 -61t70 -62q41 0 47 108h168q-8 -164 -56 -238q-49 -74 -147 -73q-98 -1 -146 61t-66 62q-50 0 -56 -109h-168q30 312 210 312zM625 518l-119 541l-117 -541h236zM676 279h-340l-60 -279h-327l430 1462h254l430 -1462h-326z" />
    <glyph glyph-name="Adieresis" unicode="&#xc4;" horiz-adv-x="1005" 
d="M557 1595v269h254v-269h-254zM197 1595v269h254v-269h-254zM625 518l-119 541l-117 -541h236zM676 279h-340l-60 -279h-327l430 1462h254l430 -1462h-326z" />
    <glyph glyph-name="Aring" unicode="&#xc5;" horiz-adv-x="1005" 
d="M504 1913q-80 0 -80 -107t80 -106q80 0 80 106t-80 107zM254 1810q0 106 68 170t182 64t182 -65t68 -170t-70 -173t-180 -68t-180 68t-70 174zM625 518l-119 541l-117 -541h236zM676 279h-340l-60 -279h-327l430 1462h254l430 -1462h-326z" />
    <glyph glyph-name="AE" unicode="&#xc6;" horiz-adv-x="1527" 
d="M727 553v661h-33l-258 -661h291zM727 311h-385l-121 -311h-348l659 1462h936v-248h-446v-354h377v-248h-377v-364h459v-248h-754v311z" />
    <glyph glyph-name="Ccedilla" unicode="&#xc7;" horiz-adv-x="980" 
d="M330 -494l73 367h267l-150 -367h-190zM516 -23q-250 0 -356 154q-76 111 -76 379v438q0 293 94 404q109 129 330 129q264 0 366 -189q47 -86 54 -260h-277q-10 121 -38 163q-29 42 -101 42t-98 -62t-27 -249v-394q0 -186 28 -248q27 -62 105 -62t111 52q33 54 37 177h276
q-6 -209 -72 -308q-106 -166 -356 -166z" />
    <glyph glyph-name="Egrave" unicode="&#xc8;" horiz-adv-x="915" 
d="M645 1589h-213l-239 322h311zM111 0v1462h745v-248h-442v-354h372v-248h-372v-364h454v-248h-757z" />
    <glyph glyph-name="Eacute" unicode="&#xc9;" horiz-adv-x="915" 
d="M346 1589l141 322h312l-240 -322h-213zM111 0v1462h745v-248h-442v-354h372v-248h-372v-364h454v-248h-757z" />
    <glyph glyph-name="Ecircumflex" unicode="&#xca;" horiz-adv-x="915" 
d="M471 1751l-76 -158h-260l227 316h216l227 -316h-258zM111 0v1462h745v-248h-442v-354h372v-248h-372v-364h454v-248h-757z" />
    <glyph glyph-name="Edieresis" unicode="&#xcb;" horiz-adv-x="915" 
d="M539 1595v269h254v-269h-254zM178 1595v269h254v-269h-254zM111 0v1462h745v-248h-442v-354h372v-248h-372v-364h454v-248h-757z" />
    <glyph glyph-name="Igrave" unicode="&#xcc;" horiz-adv-x="520" 
d="M371 1589h-213l-240 322h311zM109 0v1462h303v-1462h-303z" />
    <glyph glyph-name="Iacute" unicode="&#xcd;" horiz-adv-x="520" 
d="M141 1589l142 322h311l-240 -322h-213zM109 0v1462h303v-1462h-303z" />
    <glyph glyph-name="Icircumflex" unicode="&#xce;" horiz-adv-x="520" 
d="M260 1751l-76 -158h-260l228 316h215l227 -316h-258zM109 0v1462h303v-1462h-303z" />
    <glyph glyph-name="Idieresis" unicode="&#xcf;" horiz-adv-x="520" 
d="M313 1595v269h254v-269h-254zM-47 1595v269h254v-269h-254zM109 0v1462h303v-1462h-303z" />
    <glyph glyph-name="Eth" unicode="&#xd0;" horiz-adv-x="1058" 
d="M412 858h125v-240h-125v-376h92q78 2 112 22t46 72t12 176v438q0 123 -12 175q-12 53 -46 73t-112 23h-92v-363zM109 858v604h376q272 4 383 -99t107 -359v-545q4 -255 -107 -359t-383 -100h-376v618h-109v240h109z" />
    <glyph glyph-name="Ntilde" unicode="&#xd1;" horiz-adv-x="1126" 
d="M668 1786q41 0 47 108h168q-9 -164 -57 -238t-146 -73q-98 -1 -146 61t-67 62q-49 0 -55 -109h-168q32 312 210 312q88 1 143 -61q56 -62 71 -62zM109 0v1462h303l323 -858v858h283v-1462h-287l-340 874v-874h-282z" />
    <glyph glyph-name="Ograve" unicode="&#xd2;" horiz-adv-x="1062" 
d="M678 1589h-213l-240 322h312zM676 502v459q0 170 -29 225t-116 55t-115 -55t-29 -225v-459q0 -170 29 -226q30 -56 116 -55q86 -1 115 55t29 226zM84 477v508q0 246 80 356q102 143 368 144q150 0 240 -40t143 -128q63 -111 64 -332v-508q0 -246 -80 -356
q-102 -143 -367 -144q-150 0 -240 40t-145 128q-63 111 -63 332z" />
    <glyph glyph-name="Oacute" unicode="&#xd3;" horiz-adv-x="1062" 
d="M387 1589l141 322h312l-240 -322h-213zM676 502v459q0 170 -29 225t-116 55t-115 -55t-29 -225v-459q0 -170 29 -226q30 -56 116 -55q86 -1 115 55t29 226zM84 477v508q0 246 80 356q102 143 368 144q150 0 240 -40t143 -128q63 -111 64 -332v-508q0 -246 -80 -356
q-102 -143 -367 -144q-150 0 -240 40t-145 128q-63 111 -63 332z" />
    <glyph glyph-name="Ocircumflex" unicode="&#xd4;" horiz-adv-x="1062" 
d="M532 1751l-75 -158h-260l227 316h215l227 -316h-258zM676 502v459q0 170 -29 225t-116 55t-115 -55t-29 -225v-459q0 -170 29 -226q30 -56 116 -55q86 -1 115 55t29 226zM84 477v508q0 246 80 356q102 143 368 144q150 0 240 -40t143 -128q63 -111 64 -332v-508
q0 -246 -80 -356q-102 -143 -367 -144q-150 0 -240 40t-145 128q-63 111 -63 332z" />
    <glyph glyph-name="Otilde" unicode="&#xd5;" horiz-adv-x="1062" 
d="M423 1909q87 1 143 -61t71 -62q41 0 47 108h168q-8 -164 -56 -238t-146 -73q-98 -1 -147 61q-48 62 -67 62q-49 0 -55 -109h-168q31 312 210 312zM676 502v459q0 170 -29 225t-116 55t-115 -55t-29 -225v-459q0 -170 29 -226q30 -56 116 -55q86 -1 115 55t29 226zM84 477
v508q0 246 80 356q102 143 368 144q150 0 240 -40t143 -128q63 -111 64 -332v-508q0 -246 -80 -356q-102 -143 -367 -144q-150 0 -240 40t-145 128q-63 111 -63 332z" />
    <glyph glyph-name="Odieresis" unicode="&#xd6;" horiz-adv-x="1062" 
d="M586 1595v269h254v-269h-254zM225 1595v269h254v-269h-254zM676 502v459q0 170 -29 225t-116 55t-115 -55t-29 -225v-459q0 -170 29 -226q30 -56 116 -55q86 -1 115 55t29 226zM84 477v508q0 246 80 356q102 143 368 144q150 0 240 -40t143 -128q63 -111 64 -332v-508
q0 -246 -80 -356q-102 -143 -367 -144q-150 0 -240 40t-145 128q-63 111 -63 332z" />
    <glyph glyph-name="multiply" unicode="&#xd7;" 
d="M270 725l-252 252l160 160l252 -252l252 252l160 -160l-252 -252l252 -252l-160 -160l-252 252l-252 -252l-160 160z" />
    <glyph glyph-name="Oslash" unicode="&#xd8;" horiz-adv-x="1062" 
d="M526 1241q-84 0 -112 -56t-29 -224v-261l258 494q-33 47 -117 47zM536 221q84 1 113 57t29 224v260l-258 -492q32 -49 116 -49zM979 985v-508q0 -246 -80 -356q-102 -143 -364 -144q-160 0 -248 41l-33 -65l-209 100l76 146q-37 109 -37 278v508q0 246 80 356
q102 143 364 144q156 0 248 -41l33 65l209 -100l-78 -145q39 -106 39 -279z" />
    <glyph glyph-name="Ugrave" unicode="&#xd9;" horiz-adv-x="1083" 
d="M688 1589h-213l-239 322h311zM104 1462h304v-985q0 -156 26 -206t107 -50q83 0 109 48t26 208v985h303v-985q0 -145 -15 -220q-14 -75 -64 -143q-101 -138 -357 -137q-145 0 -237 41t-144 132q-57 92 -58 327v985z" />
    <glyph glyph-name="Uacute" unicode="&#xda;" horiz-adv-x="1083" 
d="M397 1589l142 322h311l-240 -322h-213zM104 1462h304v-985q0 -156 26 -206t107 -50q83 0 109 48t26 208v985h303v-985q0 -145 -15 -220q-14 -75 -64 -143q-101 -138 -357 -137q-145 0 -237 41t-144 132q-57 92 -58 327v985z" />
    <glyph glyph-name="Ucircumflex" unicode="&#xdb;" horiz-adv-x="1083" 
d="M543 1751l-76 -158h-260l227 316h215l228 -316h-259zM104 1462h304v-985q0 -156 26 -206t107 -50q83 0 109 48t26 208v985h303v-985q0 -145 -15 -220q-14 -75 -64 -143q-101 -138 -357 -137q-145 0 -237 41t-144 132q-57 92 -58 327v985z" />
    <glyph glyph-name="Udieresis" unicode="&#xdc;" horiz-adv-x="1083" 
d="M596 1595v269h254v-269h-254zM236 1595v269h253v-269h-253zM104 1462h304v-985q0 -156 26 -206t107 -50q83 0 109 48t26 208v985h303v-985q0 -145 -15 -220q-14 -75 -64 -143q-101 -138 -357 -137q-145 0 -237 41t-144 132q-57 92 -58 327v985z" />
    <glyph glyph-name="Yacute" unicode="&#xdd;" horiz-adv-x="884" 
d="M317 1589l142 322h311l-240 -322h-213zM295 0v494l-365 968h320l196 -610l195 610h322l-365 -968v-494h-303z" />
    <glyph glyph-name="Thorn" unicode="&#xde;" horiz-adv-x="958" 
d="M403 535h89q78 0 108 51t29 183q0 132 -31 180t-106 48h-89v-462zM412 291v-291h-303v1462h303v-223h77q137 0 217 -27q226 -76 226 -446q0 -262 -111 -375q-51 -55 -127 -78t-205 -22h-77z" />
    <glyph glyph-name="germandbls" unicode="&#xdf;" horiz-adv-x="923" 
d="M82 0v1114q0 190 70 266q90 100 277 100t279 -81q92 -82 93 -242q0 -160 -66 -260q129 -100 127 -367v-61q2 -265 -79 -365t-296 -104h-61v229h27q84 4 103 38t19 184v94q-2 129 -24 167q-23 38 -100 36h-21v208h29q27 0 39 10q37 33 38 132q0 98 -20 128t-68 30t-64 -28
q-15 -28 -15 -110v-1118h-287z" />
    <glyph glyph-name="agrave" unicode="&#xe0;" horiz-adv-x="884" 
d="M604 1186h-213l-239 321h311zM520 459h-47q-80 0 -112 -31q-31 -31 -31 -104q0 -74 20 -98t74 -24t75 30q22 30 21 106v121zM520 651v19q0 110 -19 150t-69 40t-72 -24q-20 -25 -20 -82h-266q6 156 57 223q88 119 294 119t294 -106t88 -343v-647h-223l-17 59
q-73 -82 -225 -82t-226 79t-73 263q0 185 75 259t267 73h135z" />
    <glyph glyph-name="aacute" unicode="&#xe1;" horiz-adv-x="884" 
d="M313 1186l142 321h311l-240 -321h-213zM520 459h-47q-80 0 -112 -31q-31 -31 -31 -104q0 -74 20 -98t74 -24t75 30q22 30 21 106v121zM520 651v19q0 110 -19 150t-69 40t-72 -24q-20 -25 -20 -82h-266q6 156 57 223q88 119 294 119t294 -106t88 -343v-647h-223l-17 59
q-73 -82 -225 -82t-226 79t-73 263q0 185 75 259t267 73h135z" />
    <glyph glyph-name="acircumflex" unicode="&#xe2;" horiz-adv-x="884" 
d="M459 1348l-76 -158h-260l227 315h215l228 -315h-258zM520 459h-47q-80 0 -112 -31q-31 -31 -31 -104q0 -74 20 -98t74 -24t75 30q22 30 21 106v121zM520 651v19q0 110 -19 150t-69 40t-72 -24q-20 -25 -20 -82h-266q6 156 57 223q88 119 294 119t294 -106t88 -343v-647
h-223l-17 59q-73 -82 -225 -82t-226 79t-73 263q0 185 75 259t267 73h135z" />
    <glyph glyph-name="atilde" unicode="&#xe3;" horiz-adv-x="884" 
d="M307 1194h-168q31 314 210 312q87 0 143 -62q56 -61 71 -62q41 0 47 109h168q-8 -164 -56 -238q-48 -73 -146 -73t-147 61q-48 61 -67 62q-49 0 -55 -109zM520 459h-47q-80 0 -112 -31q-31 -31 -31 -104q0 -74 20 -98t74 -24t75 30q22 30 21 106v121zM520 651v19
q0 110 -19 150t-69 40t-72 -24q-20 -25 -20 -82h-266q6 156 57 223q88 119 294 119t294 -106t88 -343v-647h-223l-17 59q-73 -82 -225 -82t-226 79t-73 263q0 185 75 259t267 73h135z" />
    <glyph glyph-name="adieresis" unicode="&#xe4;" horiz-adv-x="884" 
d="M506 1192v270h254v-270h-254zM156 1192v270h254v-270h-254zM520 459h-47q-80 0 -112 -31q-31 -31 -31 -104q0 -74 20 -98t74 -24t75 30q22 30 21 106v121zM520 651v19q0 110 -19 150t-69 40t-72 -24q-20 -25 -20 -82h-266q6 156 57 223q88 119 294 119t294 -106t88 -343
v-647h-223l-17 59q-73 -82 -225 -82t-226 79t-73 263q0 185 75 259t267 73h135z" />
    <glyph glyph-name="aring" unicode="&#xe5;" horiz-adv-x="884" 
d="M459 1509q-80 -1 -80 -107t80 -106t80 106t-80 107zM209 1407q1 105 69 169t181 64t181 -64t69 -170q0 -105 -70 -173q-71 -68 -181 -68t-180 68t-69 174zM520 459h-47q-80 0 -112 -31q-31 -31 -31 -104q0 -74 20 -98t74 -24t75 30q22 30 21 106v121zM520 651v19
q0 110 -19 150t-69 40t-72 -24q-20 -25 -20 -82h-266q6 156 57 223q88 119 294 119t294 -106t88 -343v-647h-223l-17 59q-73 -82 -225 -82t-226 79t-73 263q0 185 75 259t267 73h135z" />
    <glyph glyph-name="ae" unicode="&#xe6;" horiz-adv-x="1359" 
d="M807 657h211v39q0 102 -24 138t-85 36t-82 -36q-20 -37 -20 -138v-39zM520 459h-47q-80 0 -112 -31q-31 -31 -31 -103q0 -71 20 -97t74 -26t75 30q22 30 21 106v121zM340 754h-266q6 154 55 223q84 119 289 119q162 0 252 -90q90 90 272 90t266 -115t84 -377v-143h-485
v-58q-1 -111 21 -151t76 -39q54 0 78 27t26 88h266q-6 -156 -53 -230q-81 -121 -277 -121t-289 105q-105 -104 -285 -104t-254 78q-74 79 -73 263q0 185 75 259t267 73h135v19q0 110 -19 150t-69 40t-72 -24q-20 -25 -20 -82z" />
    <glyph glyph-name="ccedilla" unicode="&#xe7;" horiz-adv-x="827" 
d="M238 -494l73 367h267l-150 -367h-190zM458 -23q-208 -1 -296 105q-86 106 -86 344v223q0 238 87 343t281 106q240 0 318 -156q35 -66 41 -213h-264q0 133 -88 133q-51 0 -69 -41t-20 -149v-269q0 -109 20 -149t71 -41q82 0 90 115h266q-6 -154 -57 -230
q-86 -121 -294 -121z" />
    <glyph glyph-name="egrave" unicode="&#xe8;" horiz-adv-x="915" 
d="M621 1186h-213l-240 321h311zM362 668h211v26q0 102 -23 140q-24 36 -85 36t-82 -36q-20 -37 -21 -140v-26zM465 213q96 0 98 115h266q-6 -162 -57 -230q-86 -121 -302 -121t-305 114t-89 374v137q0 266 89 380t296 114t297 -114t90 -380v-141h-486v-60q0 -109 22 -149
t81 -39z" />
    <glyph glyph-name="eacute" unicode="&#xe9;" horiz-adv-x="915" 
d="M330 1186l141 321h311l-239 -321h-213zM362 668h211v26q0 102 -23 140q-24 36 -85 36t-82 -36q-20 -37 -21 -140v-26zM465 213q96 0 98 115h266q-6 -162 -57 -230q-86 -121 -302 -121t-305 114t-89 374v137q0 266 89 380t296 114t297 -114t90 -380v-141h-486v-60
q0 -109 22 -149t81 -39z" />
    <glyph glyph-name="ecircumflex" unicode="&#xea;" horiz-adv-x="915" 
d="M475 1348l-76 -158h-260l228 315h215l227 -315h-258zM362 668h211v26q0 102 -23 140q-24 36 -85 36t-82 -36q-20 -37 -21 -140v-26zM465 213q96 0 98 115h266q-6 -162 -57 -230q-86 -121 -302 -121t-305 114t-89 374v137q0 266 89 380t296 114t297 -114t90 -380v-141
h-486v-60q0 -109 22 -149t81 -39z" />
    <glyph glyph-name="edieresis" unicode="&#xeb;" horiz-adv-x="915" 
d="M522 1192v270h254v-270h-254zM172 1192v270h254v-270h-254zM362 668h211v26q0 102 -23 140q-24 36 -85 36t-82 -36q-20 -37 -21 -140v-26zM465 213q96 0 98 115h266q-6 -162 -57 -230q-86 -121 -302 -121t-305 114t-89 374v137q0 266 89 380t296 114t297 -114t90 -380
v-141h-486v-60q0 -109 22 -149t81 -39z" />
    <glyph glyph-name="igrave" unicode="&#xec;" horiz-adv-x="462" 
d="M377 1186h-213l-240 321h312zM88 0v1073h287v-1073h-287z" />
    <glyph glyph-name="iacute" unicode="&#xed;" horiz-adv-x="462" 
d="M86 1186l141 321h312l-240 -321h-213zM88 0v1073h287v-1073h-287z" />
    <glyph glyph-name="icircumflex" unicode="&#xee;" horiz-adv-x="462" 
d="M231 1348l-75 -158h-260l227 315h215l227 -315h-258zM88 0v1073h287v-1073h-287z" />
    <glyph glyph-name="idieresis" unicode="&#xef;" horiz-adv-x="462" 
d="M279 1192v270h253v-270h-253zM-72 1192v270h254v-270h-254zM88 0v1073h287v-1073h-287z" />
    <glyph glyph-name="eth" unicode="&#xf0;" horiz-adv-x="921" 
d="M559 418v205q-1 113 -23 157t-75 45q-53 0 -76 -45t-23 -157v-205q0 -115 22 -160t76 -45t77 46q22 46 22 159zM76 395v250q0 416 307 416q78 0 111 -31q-18 68 -72 141l-158 -108l-94 127l125 88q-37 18 -98 35l36 190q170 -18 275 -78l129 91l94 -130l-90 -61
q199 -219 205 -678v-252q0 -225 -89 -321t-296 -96t-296 96t-89 321z" />
    <glyph glyph-name="ntilde" unicode="&#xf1;" horiz-adv-x="923" 
d="M311 1194h-168q31 314 211 312q88 0 143 -62q56 -61 70 -62q41 0 47 109h168q-8 -164 -56 -238q-48 -73 -146 -73t-147 61q-48 61 -66 62q-50 0 -56 -109zM82 0v1073h213l20 -86q49 61 99 85t138 24q87 0 158 -40q72 -40 104 -115t32 -259v-682h-287v641q0 121 -20 165
q-19 44 -75 44t-76 -42t-19 -163v-645h-287z" />
    <glyph glyph-name="ograve" unicode="&#xf2;" horiz-adv-x="921" 
d="M606 1186h-213l-239 321h311zM559 403v267q0 110 -20 150q-19 40 -77 40t-78 -40t-22 -150v-267q0 -111 20 -151t78 -39q58 -1 78 39t21 151zM76 426v223q0 240 89 343q89 104 296 104t296 -104t89 -343v-223q0 -242 -89 -345t-296 -103t-296 102q-89 104 -89 346z" />
    <glyph glyph-name="oacute" unicode="&#xf3;" horiz-adv-x="921" 
d="M315 1186l142 321h311l-240 -321h-213zM559 403v267q0 110 -20 150q-19 40 -77 40t-78 -40t-22 -150v-267q0 -111 20 -151t78 -39q58 -1 78 39t21 151zM76 426v223q0 240 89 343q89 104 296 104t296 -104t89 -343v-223q0 -242 -89 -345t-296 -103t-296 102
q-89 104 -89 346z" />
    <glyph glyph-name="ocircumflex" unicode="&#xf4;" horiz-adv-x="921" 
d="M461 1348l-76 -158h-260l227 315h215l228 -315h-258zM559 403v267q0 110 -20 150q-19 40 -77 40t-78 -40t-22 -150v-267q0 -111 20 -151t78 -39q58 -1 78 39t21 151zM76 426v223q0 240 89 343q89 104 296 104t296 -104t89 -343v-223q0 -242 -89 -345t-296 -103t-296 102
q-89 104 -89 346z" />
    <glyph glyph-name="otilde" unicode="&#xf5;" horiz-adv-x="921" 
d="M309 1194h-168q31 314 210 312q87 0 143 -62q56 -61 71 -62q41 0 47 109h168q-8 -164 -56 -238q-48 -73 -146 -73t-147 61q-48 61 -66 62q-50 0 -56 -109zM559 403v267q0 110 -20 150q-19 40 -77 40t-78 -40t-22 -150v-267q0 -111 20 -151t78 -39q58 -1 78 39t21 151z
M76 426v223q0 240 89 343q89 104 296 104t296 -104t89 -343v-223q0 -242 -89 -345t-296 -103t-296 102q-89 104 -89 346z" />
    <glyph glyph-name="odieresis" unicode="&#xf6;" horiz-adv-x="921" 
d="M508 1192v270h254v-270h-254zM158 1192v270h254v-270h-254zM559 403v267q0 110 -20 150q-19 40 -77 40t-78 -40t-22 -150v-267q0 -111 20 -151t78 -39q58 -1 78 39t21 151zM76 426v223q0 240 89 343q89 104 296 104t296 -104t89 -343v-223q0 -242 -89 -345t-296 -103
t-296 102q-89 104 -89 346z" />
    <glyph glyph-name="divide" unicode="&#xf7;" 
d="M303 965v233h254v-233h-254zM303 252v233h254v-233h-254zM45 614v224h770v-224h-770z" />
    <glyph glyph-name="oslash" unicode="&#xf8;" horiz-adv-x="921" 
d="M460 860q-56 0 -76 -39t-22 -147v-146l173 299q-19 33 -75 33zM464 213q54 0 75 39q20 39 20 147v146l-172 -301q23 -31 77 -31zM846 653v-231q0 -238 -89 -341t-294 -104q-129 0 -209 37l-33 -53l-145 72l55 94q-55 98 -55 295v231q0 238 89 340t294 103q129 0 209 -37
l32 55l146 -74l-55 -94q55 -98 55 -293z" />
    <glyph glyph-name="ugrave" unicode="&#xf9;" horiz-adv-x="901" 
d="M596 1186h-213l-240 321h312zM78 1073h287v-641q0 -119 18 -164q19 -45 67 -45t65 42t17 163v645h287v-1073h-213l-20 86q-50 -61 -96 -85t-119 -24q-197 0 -260 152q-33 80 -33 262v682z" />
    <glyph glyph-name="uacute" unicode="&#xfa;" horiz-adv-x="901" 
d="M305 1186l141 321h312l-240 -321h-213zM78 1073h287v-641q0 -119 18 -164q19 -45 67 -45t65 42t17 163v645h287v-1073h-213l-20 86q-50 -61 -96 -85t-119 -24q-197 0 -260 152q-33 80 -33 262v682z" />
    <glyph glyph-name="ucircumflex" unicode="&#xfb;" horiz-adv-x="901" 
d="M451 1348l-76 -158h-260l227 315h215l227 -315h-258zM78 1073h287v-641q0 -119 18 -164q19 -45 67 -45t65 42t17 163v645h287v-1073h-213l-20 86q-50 -61 -96 -85t-119 -24q-197 0 -260 152q-33 80 -33 262v682z" />
    <glyph glyph-name="udieresis" unicode="&#xfc;" horiz-adv-x="901" 
d="M498 1192v270h254v-270h-254zM147 1192v270h254v-270h-254zM78 1073h287v-641q0 -119 18 -164q19 -45 67 -45t65 42t17 163v645h287v-1073h-213l-20 86q-50 -61 -96 -85t-119 -24q-197 0 -260 152q-33 80 -33 262v682z" />
    <glyph glyph-name="yacute" unicode="&#xfd;" horiz-adv-x="843" 
d="M303 1186l141 321h312l-240 -321h-213zM57 -471v238q111 -1 145 29t62 161l10 45l-270 1071h291l125 -690l125 690h293l-277 -1139q-59 -256 -151 -330t-353 -75z" />
    <glyph glyph-name="thorn" unicode="&#xfe;" horiz-adv-x="919" 
d="M559 424v274q0 82 -19 117q-20 35 -70 35q-101 0 -99 -201v-225q0 -201 100 -201q47 0 68 45q20 45 20 156zM373 -461h-287v1923h287v-424q57 57 176 58q155 0 225 -100t70 -320v-213q0 -262 -72 -374t-240 -112q-91 0 -159 41v-479z" />
    <glyph glyph-name="ydieresis" unicode="&#xff;" horiz-adv-x="843" 
d="M469 1192v270h254v-270h-254zM119 1192v270h254v-270h-254zM57 -471v238q111 -1 145 29t62 161l10 45l-270 1071h291l125 -690l125 690h293l-277 -1139q-59 -256 -151 -330t-353 -75z" />
    <glyph glyph-name="Amacron" unicode="&#x100;" horiz-adv-x="1005" 
d="M219 1628v207h569v-207h-569zM625 518l-119 541l-117 -541h236zM676 279h-340l-60 -279h-327l430 1462h254l430 -1462h-326z" />
    <glyph glyph-name="amacron" unicode="&#x101;" horiz-adv-x="884" 
d="M158 1225v207h569v-207h-569zM520 459h-47q-80 0 -112 -31q-31 -31 -31 -104q0 -74 20 -98t74 -24t75 30q22 30 21 106v121zM520 651v19q0 110 -19 150t-69 40t-72 -24q-20 -25 -20 -82h-266q6 156 57 223q88 119 294 119t294 -106t88 -343v-647h-223l-17 59
q-73 -82 -225 -82t-226 79t-73 263q0 185 75 259t267 73h135z" />
    <glyph glyph-name="Abreve" unicode="&#x102;" horiz-adv-x="1005" 
d="M190 1905h172q10 -78 40 -106q30 -27 101 -27t101 28t39 105h172q-4 -97 -11 -135t-26 -72q-39 -70 -102 -100t-172 -29q-223 0 -287 151q-21 46 -27 185zM625 518l-119 541l-117 -541h236zM676 279h-340l-60 -279h-327l430 1462h254l430 -1462h-326z" />
    <glyph glyph-name="abreve" unicode="&#x103;" horiz-adv-x="884" 
d="M458 1368q70 0 100 29t40 104h172q-4 -98 -11 -135t-26 -72q-39 -70 -102 -100t-172 -29q-223 0 -287 152q-21 45 -27 184h172q10 -77 40 -105t101 -28zM520 459h-47q-80 0 -112 -31q-31 -31 -31 -104q0 -74 20 -98t74 -24t75 30q22 30 21 106v121zM520 651v19
q0 110 -19 150t-69 40t-72 -24q-20 -25 -20 -82h-266q6 156 57 223q88 119 294 119t294 -106t88 -343v-647h-223l-17 59q-73 -82 -225 -82t-226 79t-73 263q0 185 75 259t267 73h135z" />
    <glyph glyph-name="Aogonek" unicode="&#x104;" horiz-adv-x="1005" 
d="M625 518l-119 541l-117 -541h236zM940 -210q0 -71 59 -71q39 0 101 21l28 -139q-84 -41 -194 -41q-246 0 -246 176q0 121 129 223q39 33 45 41h-125l-61 279h-340l-60 -279h-327l430 1462h254l430 -1462q-12 -16 -16 -22t-11 -9l-20 -26q-76 -82 -76 -153z" />
    <glyph glyph-name="aogonek" unicode="&#x105;" horiz-adv-x="884" 
d="M520 459h-47q-80 0 -112 -31q-31 -31 -31 -104q0 -74 20 -98t74 -24t75 30q22 30 21 106v121zM682 -210q0 -71 59 -71q39 0 101 21l30 -139q-84 -41 -200 -41t-178 45q-63 45 -64 131q0 121 129 223q39 31 47 41h-22l-17 59q-73 -82 -225 -82t-226 79t-73 263
q0 185 75 259t267 73h135v19q0 110 -19 150t-69 40t-72 -24q-20 -25 -20 -82h-266q6 156 57 223q88 119 294 119t294 -106t88 -343v-647l-49 -57q-76 -82 -76 -153z" />
    <glyph glyph-name="Cacute" unicode="&#x106;" horiz-adv-x="980" 
d="M367 1589l141 322h311l-239 -322h-213zM516 -23q-250 0 -356 154q-76 111 -76 379v438q0 293 94 404q109 129 330 129q264 0 366 -189q47 -86 54 -260h-277q-10 121 -38 163q-29 42 -101 42t-98 -62t-27 -249v-394q0 -186 28 -248q27 -62 105 -62t111 52q33 54 37 177
h276q-6 -209 -72 -308q-106 -166 -356 -166z" />
    <glyph glyph-name="cacute" unicode="&#x107;" horiz-adv-x="827" 
d="M315 1186l142 321h311l-240 -321h-213zM458 -23q-208 -1 -296 105q-86 106 -86 344v223q0 238 87 343t281 106q240 0 318 -156q35 -66 41 -213h-264q0 133 -88 133q-51 0 -69 -41t-20 -149v-269q0 -109 20 -149t71 -41q82 0 90 115h266q-6 -154 -57 -230
q-86 -121 -294 -121z" />
    <glyph glyph-name="Ccircumflex" unicode="&#x108;" horiz-adv-x="980" 
d="M512 1751l-76 -158h-260l227 316h215l228 -316h-258zM516 -23q-250 0 -356 154q-76 111 -76 379v438q0 293 94 404q109 129 330 129q264 0 366 -189q47 -86 54 -260h-277q-10 121 -38 163q-29 42 -101 42t-98 -62t-27 -249v-394q0 -186 28 -248q27 -62 105 -62t111 52
q33 54 37 177h276q-6 -209 -72 -308q-106 -166 -356 -166z" />
    <glyph glyph-name="ccircumflex" unicode="&#x109;" horiz-adv-x="827" 
d="M444 1348l-75 -158h-260l227 315h215l227 -315h-258zM458 -23q-208 -1 -296 105q-86 106 -86 344v223q0 238 87 343t281 106q240 0 318 -156q35 -66 41 -213h-264q0 133 -88 133q-51 0 -69 -41t-20 -149v-269q0 -109 20 -149t71 -41q82 0 90 115h266q-6 -154 -57 -230
q-86 -121 -294 -121z" />
    <glyph glyph-name="Cdotaccent" unicode="&#x10a;" horiz-adv-x="980" 
d="M375 1591v273h274v-273h-274zM516 -23q-250 0 -356 154q-76 111 -76 379v438q0 293 94 404q109 129 330 129q264 0 366 -189q47 -86 54 -260h-277q-10 121 -38 163q-29 42 -101 42t-98 -62t-27 -249v-394q0 -186 28 -248q27 -62 105 -62t111 52q33 54 37 177h276
q-6 -209 -72 -308q-106 -166 -356 -166z" />
    <glyph glyph-name="cdotaccent" unicode="&#x10b;" horiz-adv-x="827" 
d="M317 1190v272h275v-272h-275zM458 -23q-208 -1 -296 105q-86 106 -86 344v223q0 238 87 343t281 106q240 0 318 -156q35 -66 41 -213h-264q0 133 -88 133q-51 0 -69 -41t-20 -149v-269q0 -109 20 -149t71 -41q82 0 90 115h266q-6 -154 -57 -230q-86 -121 -294 -121z" />
    <glyph glyph-name="Ccaron" unicode="&#x10c;" horiz-adv-x="980" 
d="M518 1745l76 158h258l-227 -318h-213l-230 318h260zM516 -23q-250 0 -356 154q-76 111 -76 379v438q0 293 94 404q109 129 330 129q264 0 366 -189q47 -86 54 -260h-277q-10 121 -38 163q-29 42 -101 42t-98 -62t-27 -249v-394q0 -186 28 -248q27 -62 105 -62t111 52
q33 54 37 177h276q-6 -209 -72 -308q-106 -166 -356 -166z" />
    <glyph glyph-name="ccaron" unicode="&#x10d;" horiz-adv-x="827" 
d="M449 1341l75 158h258l-227 -315h-213l-229 315h260zM458 -23q-208 -1 -296 105q-86 106 -86 344v223q0 238 87 343t281 106q240 0 318 -156q35 -66 41 -213h-264q0 133 -88 133q-51 0 -69 -41t-20 -149v-269q0 -109 20 -149t71 -41q82 0 90 115h266q-6 -154 -57 -230
q-86 -121 -294 -121z" />
    <glyph glyph-name="Dcaron" unicode="&#x10e;" horiz-adv-x="1058" 
d="M487 1745l76 158h258l-227 -318h-213l-229 318h260zM412 242h92q78 2 112 22t46 72t12 176v438q0 123 -12 175q-12 53 -46 73t-112 23h-92v-979zM109 0v1462h380q270 4 381 -100t107 -358v-545q4 -255 -107 -359t-381 -100h-380z" />
    <glyph glyph-name="dcaron" unicode="&#x10f;" horiz-adv-x="1161" 
d="M889 913l61 586h264l-127 -586h-198zM362 698v-270q0 -113 20 -159t67 -46q100 0 100 201v225q0 201 -103 201q-44 0 -64 -35t-20 -117zM76 676q0 221 70 320q71 99 227 100q102 0 176 -56v422h287v-1462h-220l-16 66q-51 -52 -97 -70t-114 -19q-170 0 -242 112t-71 374
v213z" />
    <glyph glyph-name="Dcroat" unicode="&#x110;" horiz-adv-x="1058" 
d="M412 858h125v-240h-125v-376h92q78 2 112 22t46 72t12 176v438q0 123 -12 175q-12 53 -46 73t-112 23h-92v-363zM109 858v604h376q272 4 383 -99t107 -359v-545q4 -255 -107 -359t-383 -100h-376v618h-109v240h109z" />
    <glyph glyph-name="dcroat" unicode="&#x111;" horiz-adv-x="915" 
d="M360 698v-270q0 -113 20 -159t66 -46q100 0 101 201v225q0 201 -103 201q-44 0 -64 -35t-20 -117zM547 1161h-221v197h221v104h287v-104h110v-197h-110v-1161h-220l-16 66q-51 -52 -97 -70t-114 -19q-168 0 -240 112t-71 374v213q0 221 69 320q70 99 226 100
q106 0 176 -56v121z" />
    <glyph glyph-name="Emacron" unicode="&#x112;" horiz-adv-x="915" 
d="M201 1628v207h569v-207h-569zM111 0v1462h745v-248h-442v-354h372v-248h-372v-364h454v-248h-757z" />
    <glyph glyph-name="emacron" unicode="&#x113;" horiz-adv-x="915" 
d="M180 1225v207h570v-207h-570zM362 668h211v26q0 102 -23 140q-24 36 -85 36t-82 -36q-20 -37 -21 -140v-26zM465 213q96 0 98 115h266q-6 -162 -57 -230q-86 -121 -302 -121t-305 114t-89 374v137q0 266 89 380t296 114t297 -114t90 -380v-141h-486v-60q0 -109 22 -149
t81 -39z" />
    <glyph glyph-name="Ebreve" unicode="&#x114;" horiz-adv-x="915" 
d="M186 1905h172q10 -78 40 -106q30 -27 101 -27t101 28t39 105h172q-4 -97 -11 -135t-26 -72q-39 -70 -102 -100t-172 -29q-223 0 -287 151q-21 46 -27 185zM111 0v1462h745v-248h-442v-354h372v-248h-372v-364h454v-248h-757z" />
    <glyph glyph-name="ebreve" unicode="&#x115;" horiz-adv-x="915" 
d="M478 1368q70 0 101 29q30 29 39 104h173q-3 -98 -11 -135t-26 -72q-38 -70 -102 -100t-173 -29q-223 0 -286 152q-21 45 -27 184h172q10 -77 40 -105t100 -28zM362 668h211v26q0 102 -23 140q-24 36 -85 36t-82 -36q-20 -37 -21 -140v-26zM465 213q96 0 98 115h266
q-6 -162 -57 -230q-86 -121 -302 -121t-305 114t-89 374v137q0 266 89 380t296 114t297 -114t90 -380v-141h-486v-60q0 -109 22 -149t81 -39z" />
    <glyph glyph-name="Edotaccent" unicode="&#x116;" horiz-adv-x="915" 
d="M375 1591v273h274v-273h-274zM111 0v1462h745v-248h-442v-354h372v-248h-372v-364h454v-248h-757z" />
    <glyph glyph-name="edotaccent" unicode="&#x117;" horiz-adv-x="915" 
d="M338 1190v272h274v-272h-274zM362 668h211v26q0 102 -23 140q-24 36 -85 36t-82 -36q-20 -37 -21 -140v-26zM465 213q96 0 98 115h266q-6 -162 -57 -230q-86 -121 -302 -121t-305 114t-89 374v137q0 266 89 380t296 114t297 -114t90 -380v-141h-486v-60q0 -109 22 -149
t81 -39z" />
    <glyph glyph-name="Eogonek" unicode="&#x118;" horiz-adv-x="915" 
d="M111 0v1462h745v-248h-442v-354h372v-248h-372v-364h454v-248q-4 -4 -49 -57q-76 -82 -76 -153t60 -71q39 0 100 21l31 -139q-84 -41 -197 -41q-246 0 -245 176q0 74 36 128q37 54 142 136h-559z" />
    <glyph glyph-name="eogonek" unicode="&#x119;" horiz-adv-x="915" 
d="M362 668h211v26q0 102 -23 140q-24 36 -85 36t-82 -36q-20 -37 -21 -140v-26zM465 213q96 0 98 115h266q-5 -119 -33 -187t-96 -110q-74 -87 -102 -139t-27 -103q0 -70 60 -70q39 0 100 21l29 -139q-84 -41 -197 -41q-244 0 -244 178q0 131 115 239q-194 10 -276 123
t-82 365v137q0 266 89 380t296 114t297 -114t90 -380v-141h-486v-60q0 -109 22 -149t81 -39z" />
    <glyph glyph-name="Ecaron" unicode="&#x11a;" horiz-adv-x="915" 
d="M506 1745l76 158h258l-228 -318h-213l-229 318h260zM111 0v1462h745v-248h-442v-354h372v-248h-372v-364h454v-248h-757z" />
    <glyph glyph-name="ecaron" unicode="&#x11b;" horiz-adv-x="915" 
d="M475 1341l76 158h258l-227 -315h-213l-230 315h260zM362 668h211v26q0 102 -23 140q-24 36 -85 36t-82 -36q-20 -37 -21 -140v-26zM465 213q96 0 98 115h266q-6 -162 -57 -230q-86 -121 -302 -121t-305 114t-89 374v137q0 266 89 380t296 114t297 -114t90 -380v-141h-486
v-60q0 -109 22 -149t81 -39z" />
    <glyph glyph-name="Gcircumflex" unicode="&#x11c;" horiz-adv-x="1040" 
d="M530 1751l-75 -158h-260l227 316h215l227 -316h-258zM539 584v231h438v-252q0 -295 -72 -411q-109 -174 -370 -174t-371 153q-80 109 -80 379v438q0 295 98 404q113 129 344 129q266 0 367 -189q47 -86 53 -260h-276q-10 121 -38 163t-106 42t-109 -63q-30 -63 -30 -248
v-394q0 -162 21 -223q29 -88 119 -88q91 -1 121 59t30 218v86h-139z" />
    <glyph glyph-name="gcircumflex" unicode="&#x11d;" horiz-adv-x="917" 
d="M471 1348l-76 -158h-260l227 315h216l227 -315h-258zM362 698v-264q0 -119 20 -165t69 -46q98 0 98 201v225q0 201 -100 201q-47 0 -67 -35t-20 -117zM549 -35v53q-63 -41 -162 -41q-168 0 -240 112t-71 374v213q0 221 69 320q69 100 211 100t232 -97l28 74h220v-1065
q0 -248 -80 -358q-94 -133 -314 -133t-290 141q-31 63 -37 195h254q2 -61 19 -86q18 -25 68 -25t72 47t21 176z" />
    <glyph glyph-name="Gbreve" unicode="&#x11e;" horiz-adv-x="1040" 
d="M207 1905h172q10 -78 40 -106q31 -27 101 -27t100 28t39 105h172q-4 -97 -11 -135t-25 -72q-39 -70 -103 -100t-172 -29q-223 0 -287 151q-20 46 -26 185zM539 584v231h438v-252q0 -295 -72 -411q-109 -174 -370 -174t-371 153q-80 109 -80 379v438q0 295 98 404
q113 129 344 129q266 0 367 -189q47 -86 53 -260h-276q-10 121 -38 163t-106 42t-109 -63q-30 -63 -30 -248v-394q0 -162 21 -223q29 -88 119 -88q91 -1 121 59t30 218v86h-139z" />
    <glyph glyph-name="gbreve" unicode="&#x11f;" horiz-adv-x="917" 
d="M470 1368q70 0 100 29t40 104h172q-4 -98 -11 -135t-26 -72q-39 -70 -102 -100t-172 -29q-223 0 -287 152q-20 45 -26 184h172q10 -77 40 -105t100 -28zM362 698v-264q0 -119 20 -165t69 -46q98 0 98 201v225q0 201 -100 201q-47 0 -67 -35t-20 -117zM549 -35v53
q-63 -41 -162 -41q-168 0 -240 112t-71 374v213q0 221 69 320q69 100 211 100t232 -97l28 74h220v-1065q0 -248 -80 -358q-94 -133 -314 -133t-290 141q-31 63 -37 195h254q2 -61 19 -86q18 -25 68 -25t72 47t21 176z" />
    <glyph glyph-name="Gdotaccent" unicode="&#x120;" horiz-adv-x="1040" 
d="M383 1591v273h274v-273h-274zM539 584v231h438v-252q0 -295 -72 -411q-109 -174 -370 -174t-371 153q-80 109 -80 379v438q0 295 98 404q113 129 344 129q266 0 367 -189q47 -86 53 -260h-276q-10 121 -38 163t-106 42t-109 -63q-30 -63 -30 -248v-394q0 -162 21 -223
q29 -88 119 -88q91 -1 121 59t30 218v86h-139z" />
    <glyph glyph-name="gdotaccent" unicode="&#x121;" horiz-adv-x="917" 
d="M362 1190v272h275v-272h-275zM362 698v-264q0 -119 20 -165t69 -46q98 0 98 201v225q0 201 -100 201q-47 0 -67 -35t-20 -117zM549 -35v53q-63 -41 -162 -41q-168 0 -240 112t-71 374v213q0 221 69 320q69 100 211 100t232 -97l28 74h220v-1065q0 -248 -80 -358
q-94 -133 -314 -133t-290 141q-31 63 -37 195h254q2 -61 19 -86q18 -25 68 -25t72 47t21 176z" />
    <glyph glyph-name="Gcommaaccent" unicode="&#x122;" horiz-adv-x="1040" 
d="M332 -494l74 367h266l-150 -367h-190zM539 584v231h438v-252q0 -295 -72 -411q-109 -174 -370 -174t-371 153q-80 109 -80 379v438q0 295 98 404q113 129 344 129q266 0 367 -189q47 -86 53 -260h-276q-10 121 -38 163t-106 42t-109 -63q-30 -63 -30 -248v-394
q0 -162 21 -223q29 -88 119 -88q91 -1 121 59t30 218v86h-139z" />
    <glyph glyph-name="gcommaaccent" unicode="&#x123;" horiz-adv-x="917" 
d="M326 1186l239 321h213l-141 -321h-311zM362 698v-264q0 -119 20 -165t69 -46q98 0 98 201v225q0 201 -100 201q-47 0 -67 -35t-20 -117zM549 -35v53q-63 -41 -162 -41q-168 0 -240 112t-71 374v213q0 221 69 320q69 100 211 100t232 -97l28 74h220v-1065q0 -248 -80 -358
q-94 -133 -314 -133t-290 141q-31 63 -37 195h254q2 -61 19 -86q18 -25 68 -25t72 47t21 176z" />
    <glyph glyph-name="Hcircumflex" unicode="&#x124;" horiz-adv-x="1081" 
d="M541 1751l-76 -158h-260l227 316h215l227 -316h-258zM109 0v1462h303v-602h258v602h303v-1462h-303v612h-258v-612h-303z" />
    <glyph glyph-name="hcircumflex" unicode="&#x125;" horiz-adv-x="923" 
d="M326 1751l-76 -158h-260l227 316h215l227 -316h-258zM82 0v1462h287v-415q61 49 172 49q205 0 270 -152q35 -78 35 -260v-684h-287v643q0 119 -20 163q-19 44 -75 44t-76 -42t-19 -163v-645h-287z" />
    <glyph glyph-name="Hbar" unicode="&#x126;" horiz-adv-x="1081" 
d="M412 860h258v152h-258v-152zM109 0v1012h-134v213h134v237h303v-237h258v237h303v-237h133v-213h-133v-1012h-303v612h-258v-612h-303z" />
    <glyph glyph-name="hbar" unicode="&#x127;" horiz-adv-x="931" 
d="M86 1161h-113v197h113v104h287v-104h221v-197h-221v-114q61 49 174 49q205 0 268 -152q35 -78 35 -260v-684h-287v643q0 119 -20 163q-19 44 -75 44t-76 -42t-19 -163v-645h-287v1161z" />
    <glyph glyph-name="Itilde" unicode="&#x128;" horiz-adv-x="520" 
d="M150 1909q88 1 144 -61t71 -62q41 0 47 108h168q-8 -164 -56 -238t-147 -73q-99 -1 -147 61t-66 62q-49 0 -55 -109h-168q30 312 209 312zM109 0v1462h303v-1462h-303z" />
    <glyph glyph-name="itilde" unicode="&#x129;" horiz-adv-x="462" 
d="M80 1194h-168q31 314 210 312q87 0 143 -62q56 -61 71 -62q41 0 47 109h168q-8 -164 -56 -238q-49 -73 -147 -73t-146 61t-67 62q-49 0 -55 -109zM88 0v1073h287v-1073h-287z" />
    <glyph glyph-name="Imacron" unicode="&#x12a;" horiz-adv-x="520" 
d="M-25 1628v207h570v-207h-570zM109 0v1462h303v-1462h-303z" />
    <glyph glyph-name="imacron" unicode="&#x12b;" horiz-adv-x="462" 
d="M-53 1225v207h569v-207h-569zM88 0v1073h287v-1073h-287z" />
    <glyph glyph-name="Ibreve" unicode="&#x12c;" horiz-adv-x="520" 
d="M-53 1905h172q10 -78 40 -106q31 -27 101 -27t100 28t39 105h172q-4 -97 -11 -135t-25 -72q-39 -70 -103 -100t-172 -29q-223 0 -287 151q-20 46 -26 185zM109 0v1462h303v-1462h-303z" />
    <glyph glyph-name="ibreve" unicode="&#x12d;" horiz-adv-x="462" 
d="M230 1368q70 0 101 29q30 29 40 104h172q-3 -98 -11 -135t-26 -72q-38 -70 -102 -100t-173 -29q-223 0 -286 152q-21 45 -27 184h172q10 -77 40 -105t100 -28zM88 0v1073h287v-1073h-287z" />
    <glyph glyph-name="Iogonek" unicode="&#x12e;" horiz-adv-x="520" 
d="M346 -281q39 0 100 21l31 -139q-83 -41 -199 -41t-180 45q-63 45 -63 131q0 121 129 223q39 31 47 41h-102v1462h303v-1462l-50 -57q-76 -82 -76 -153t60 -71z" />
    <glyph glyph-name="iogonek" unicode="&#x12f;" horiz-adv-x="462" 
d="M88 1192v283h287v-283h-287zM250 -210q0 -71 59 -71q39 0 101 21l30 -139q-84 -41 -200 -41t-179 45t-63 131q0 121 129 223q39 31 47 41h-86v1073h287v-1073l-49 -57q-76 -82 -76 -153z" />
    <glyph glyph-name="Idotaccent" unicode="&#x130;" horiz-adv-x="520" 
d="M123 1591v273h274v-273h-274zM109 0v1462h303v-1462h-303z" />
    <glyph glyph-name="dotlessi" unicode="&#x131;" horiz-adv-x="462" 
d="M88 0v1073h287v-1073h-287z" />
    <glyph glyph-name="IJ" unicode="&#x132;" horiz-adv-x="1040" 
d="M629 1462h303v-1423q0 -172 -8 -248t-35 -127q-78 -166 -316 -166q-94 0 -204 37l110 225q35 -18 64 -18q53 0 69 57t17 236v1427zM109 0v1462h303v-1462h-303z" />
    <glyph glyph-name="ij" unicode="&#x133;" horiz-adv-x="935" 
d="M561 1192v283h287v-283h-287zM561 1073h287v-1022q2 -164 -15 -261q-34 -197 -216 -242q-87 -22 -236 -19v238q104 -4 143 51t37 205v1050zM88 0v1073h287v-1073h-287zM88 1192v283h287v-283h-287z" />
    <glyph glyph-name="Jcircumflex" unicode="&#x134;" horiz-adv-x="757" 
d="M473 1751l-76 -158h-260l228 316h215l227 -316h-258zM352 1462h303v-944q0 -283 -43 -375q-80 -166 -313 -166q-117 0 -196 32t-169 116l175 194q90 -98 150 -98q61 -1 77 57t16 236v948z" />
    <glyph glyph-name="jcircumflex" unicode="&#x135;" horiz-adv-x="473" 
d="M238 1348l-76 -158h-260l227 315h215l227 -315h-258zM98 1073h287v-1022q2 -164 -15 -261q-16 -96 -72 -158t-143 -84t-237 -19v238q104 -4 143 51t37 205v1050z" />
    <glyph glyph-name="Kcommaaccent" unicode="&#x136;" horiz-adv-x="976" 
d="M348 -494l74 367h266l-149 -367h-191zM113 0v1462h303v-485l284 485h328l-381 -600l385 -862h-334l-231 618l-51 -86v-532h-303z" />
    <glyph glyph-name="kcommaaccent" unicode="&#x137;" horiz-adv-x="880" 
d="M279 -494l73 367h266l-149 -367h-190zM92 0v1462h287v-768l244 379h299l-306 -444l306 -629h-314l-172 424l-57 -80v-344h-287z" />
    <glyph glyph-name="kgreenlandic" unicode="&#x138;" horiz-adv-x="880" 
d="M92 0v1073h287v-379l244 379h299l-306 -444l306 -629h-314l-172 424l-57 -80v-344h-287z" />
    <glyph glyph-name="Lacute" unicode="&#x139;" horiz-adv-x="876" 
d="M164 1589l141 322h311l-239 -322h-213zM109 0v1462h303v-1214h450v-248h-753z" />
    <glyph glyph-name="lacute" unicode="&#x13a;" horiz-adv-x="524" 
d="M117 1589l141 322h311l-239 -322h-213zM90 1462h287v-1009q-2 -125 31 -171t120 -44h15v-238h-27q-139 0 -218 18q-160 36 -193 220q-15 88 -15 243v981z" />
    <glyph glyph-name="Lcommaaccent" unicode="&#x13b;" horiz-adv-x="876" 
d="M276 -494l74 367h266l-149 -367h-191zM109 0v1462h303v-1214h450v-248h-753z" />
    <glyph glyph-name="lcommaaccent" unicode="&#x13c;" horiz-adv-x="524" 
d="M100 -494l74 367h266l-149 -367h-191zM90 1462h287v-1009q-2 -125 31 -171t120 -44h15v-238h-27q-139 0 -218 18q-160 36 -193 220q-15 88 -15 243v981z" />
    <glyph glyph-name="Lcaron" unicode="&#x13d;" horiz-adv-x="876" 
d="M539 913l61 586h264l-127 -586h-198zM109 0v1462h303v-1214h450v-248h-753z" />
    <glyph glyph-name="lcaron" unicode="&#x13e;" horiz-adv-x="739" 
d="M467 913l61 586h265l-127 -586h-199zM90 1462h287v-1009q-2 -125 31 -171t120 -44h15v-238h-27q-139 0 -218 18q-160 36 -193 220q-15 88 -15 243v981z" />
    <glyph glyph-name="Ldot" unicode="&#x13f;" horiz-adv-x="876" 
d="M565 582v282h246v-282h-246zM109 0v1462h303v-1214h450v-248h-753z" />
    <glyph glyph-name="ldot" unicode="&#x140;" horiz-adv-x="712" 
d="M467 582v282h246v-282h-246zM90 1462h287v-1009q-2 -125 31 -171t120 -44h15v-238h-27q-139 0 -218 18q-160 36 -193 220q-15 88 -15 243v981z" />
    <glyph glyph-name="Lslash" unicode="&#x141;" horiz-adv-x="874" 
d="M109 0v362l-101 -69v260l101 72v837h303v-622l256 182v-262l-256 -180v-332h448v-248h-751z" />
    <glyph glyph-name="lslash" unicode="&#x142;" horiz-adv-x="579" 
d="M117 1462h286v-522l177 121v-275l-177 -120v-213q-2 -125 31 -171t121 -44h14v-238h-26q-135 0 -213 17q-160 35 -195 205q-16 83 -18 227v20l-131 -90v272l131 90v721z" />
    <glyph glyph-name="Nacute" unicode="&#x143;" horiz-adv-x="1126" 
d="M438 1589l142 322h311l-240 -322h-213zM109 0v1462h303l323 -858v858h283v-1462h-287l-340 874v-874h-282z" />
    <glyph glyph-name="nacute" unicode="&#x144;" horiz-adv-x="923" 
d="M317 1186l142 321h311l-240 -321h-213zM82 0v1073h213l20 -86q49 61 99 85t138 24q87 0 158 -40q72 -40 104 -115t32 -259v-682h-287v641q0 121 -20 165q-19 44 -75 44t-76 -42t-19 -163v-645h-287z" />
    <glyph glyph-name="Ncommaaccent" unicode="&#x145;" horiz-adv-x="1126" 
d="M375 -494l74 367h266l-150 -367h-190zM109 0v1462h303l323 -858v858h283v-1462h-287l-340 874v-874h-282z" />
    <glyph glyph-name="ncommaaccent" unicode="&#x146;" horiz-adv-x="923" 
d="M272 -494l74 367h266l-149 -367h-191zM82 0v1073h213l20 -86q49 61 99 85t138 24q87 0 158 -40q72 -40 104 -115t32 -259v-682h-287v641q0 121 -20 165q-19 44 -75 44t-76 -42t-19 -163v-645h-287z" />
    <glyph glyph-name="Ncaron" unicode="&#x147;" horiz-adv-x="1126" 
d="M571 1745l76 158h258l-227 -318h-213l-229 318h260zM109 0v1462h303l323 -858v858h283v-1462h-287l-340 874v-874h-282z" />
    <glyph glyph-name="ncaron" unicode="&#x148;" horiz-adv-x="923" 
d="M463 1341l76 158h258l-228 -315h-213l-229 315h260zM82 0v1073h213l20 -86q49 61 99 85t138 24q87 0 158 -40q72 -40 104 -115t32 -259v-682h-287v641q0 121 -20 165q-19 44 -75 44t-76 -42t-19 -163v-645h-287z" />
    <glyph glyph-name="napostrophe" unicode="&#x149;" horiz-adv-x="1132" 
d="M-35 920l47 542h307l-100 -542h-254zM293 0v1073h213l20 -86q48 61 98 85t137 24t158 -40t103 -117t33 -257v-682h-287v641q0 121 -20 165t-74 44t-74 -43t-20 -162v-645h-287z" />
    <glyph glyph-name="Eng" unicode="&#x14a;" horiz-adv-x="1126" 
d="M109 0v1462h303l323 -858v858h283v-1446q2 -291 -90 -391t-365 -96v225q94 -4 135 48t43 178v20l-350 874v-874h-282z" />
    <glyph glyph-name="eng" unicode="&#x14b;" horiz-adv-x="923" 
d="M82 0v1073h213l20 -86q49 61 99 85t138 24q87 0 158 -40q72 -40 104 -115t32 -257v-633q4 -315 -89 -421t-378 -101v238q102 -4 142 52t38 204v620q0 119 -20 163q-19 44 -75 44t-76 -42t-19 -163v-645h-287z" />
    <glyph glyph-name="Omacron" unicode="&#x14c;" horiz-adv-x="1062" 
d="M248 1628v207h569v-207h-569zM676 502v459q0 170 -29 225t-116 55t-115 -55t-29 -225v-459q0 -170 29 -226q30 -56 116 -55q86 -1 115 55t29 226zM84 477v508q0 246 80 356q102 143 368 144q150 0 240 -40t143 -128q63 -111 64 -332v-508q0 -246 -80 -356
q-102 -143 -367 -144q-150 0 -240 40t-145 128q-63 111 -63 332z" />
    <glyph glyph-name="omacron" unicode="&#x14d;" horiz-adv-x="921" 
d="M176 1225v207h569v-207h-569zM559 403v267q0 110 -20 150q-19 40 -77 40t-78 -40t-22 -150v-267q0 -111 20 -151t78 -39q58 -1 78 39t21 151zM76 426v223q0 240 89 343q89 104 296 104t296 -104t89 -343v-223q0 -242 -89 -345t-296 -103t-296 102q-89 104 -89 346z" />
    <glyph glyph-name="Obreve" unicode="&#x14e;" horiz-adv-x="1062" 
d="M219 1905h172q10 -78 40 -106q31 -27 101 -27t100 28t40 105h172q-4 -97 -11 -135t-26 -72q-39 -70 -102 -100t-173 -29q-223 0 -286 151q-21 46 -27 185zM676 502v459q0 170 -29 225t-116 55t-115 -55t-29 -225v-459q0 -170 29 -226q30 -56 116 -55q86 -1 115 55t29 226
zM84 477v508q0 246 80 356q102 143 368 144q150 0 240 -40t143 -128q63 -111 64 -332v-508q0 -246 -80 -356q-102 -143 -367 -144q-150 0 -240 40t-145 128q-63 111 -63 332z" />
    <glyph glyph-name="obreve" unicode="&#x14f;" horiz-adv-x="921" 
d="M460 1368q70 0 100 29t40 104h172q-4 -98 -11 -135t-26 -72q-39 -70 -102 -100t-172 -29q-223 0 -287 152q-21 45 -27 184h172q10 -77 40 -105t101 -28zM559 403v267q0 110 -20 150q-19 40 -77 40t-78 -40t-22 -150v-267q0 -111 20 -151t78 -39q58 -1 78 39t21 151z
M76 426v223q0 240 89 343q89 104 296 104t296 -104t89 -343v-223q0 -242 -89 -345t-296 -103t-296 102q-89 104 -89 346z" />
    <glyph glyph-name="Ohungarumlaut" unicode="&#x150;" horiz-adv-x="1062" 
d="M567 1589l111 322h285l-199 -322h-197zM250 1589l110 322h283l-197 -322h-196zM676 502v459q0 170 -29 225t-116 55t-115 -55t-29 -225v-459q0 -170 29 -226q30 -56 116 -55q86 -1 115 55t29 226zM84 477v508q0 246 80 356q102 143 368 144q150 0 240 -40t143 -128
q63 -111 64 -332v-508q0 -246 -80 -356q-102 -143 -367 -144q-150 0 -240 40t-145 128q-63 111 -63 332z" />
    <glyph glyph-name="ohungarumlaut" unicode="&#x151;" horiz-adv-x="921" 
d="M496 1186l110 321h285l-199 -321h-196zM178 1186l111 321h282l-196 -321h-197zM559 403v267q0 110 -20 150q-19 40 -77 40t-78 -40t-22 -150v-267q0 -111 20 -151t78 -39q58 -1 78 39t21 151zM76 426v223q0 240 89 343q89 104 296 104t296 -104t89 -343v-223
q0 -242 -89 -345t-296 -103t-296 102q-89 104 -89 346z" />
    <glyph glyph-name="OE" unicode="&#x152;" horiz-adv-x="1480" 
d="M385 961v-459q0 -170 29 -226q30 -56 118 -55q88 0 117 55t29 226v459q0 170 -29 225t-118 55t-117 -55t-29 -225zM733 0v47q-82 -70 -252 -70q-248 0 -338 170q-59 104 -59 330v508q0 246 74 356q96 143 325 144q168 0 250 -70v47h690v-248h-444v-354h375v-248h-375
v-364h455v-248h-701z" />
    <glyph glyph-name="oe" unicode="&#x153;" horiz-adv-x="1398" 
d="M846 668h211v26q0 102 -24 140t-85 36q-61 0 -82 -36q-20 -37 -20 -140v-26zM559 403v267q0 110 -20 150q-19 40 -77 40t-78 -40t-22 -150v-267q0 -111 20 -151t78 -39q58 -1 78 39t21 151zM76 424v223q0 240 84 344q84 105 270 105t277 -90q89 90 273 90t268 -115
t83 -379v-141h-485v-60q0 -109 22 -149t75 -39q54 0 78 27t26 88h266q-6 -156 -53 -230q-82 -121 -291 -121q-172 0 -262 91q-90 -90 -276 -90q-187 0 -271 104t-84 342z" />
    <glyph glyph-name="Racute" unicode="&#x154;" horiz-adv-x="1019" 
d="M365 1589l141 322h311l-239 -322h-213zM406 819h86q88 0 124 45t35 156q0 111 -33 156t-120 45h-92v-402zM414 588v-588h-303v1462h401q139 0 214 -22q228 -64 228 -388q0 -214 -41 -304q-41 -88 -149 -138l244 -610h-336l-203 588h-55z" />
    <glyph glyph-name="racute" unicode="&#x155;" horiz-adv-x="665" 
d="M215 1186l141 321h312l-240 -321h-213zM82 0v1073h217l37 -86q37 59 77 84q39 25 115 25t170 -70l-125 -240q-63 63 -114 64q-51 0 -71 -75t-19 -259v-516h-287z" />
    <glyph glyph-name="Rcommaaccent" unicode="&#x156;" horiz-adv-x="1019" 
d="M348 -494l74 367h266l-149 -367h-191zM406 819h86q88 0 124 45t35 156q0 111 -33 156t-120 45h-92v-402zM414 588v-588h-303v1462h401q139 0 214 -22q228 -64 228 -388q0 -214 -41 -304q-41 -88 -149 -138l244 -610h-336l-203 588h-55z" />
    <glyph glyph-name="rcommaaccent" unicode="&#x157;" horiz-adv-x="665" 
d="M29 -494l73 367h267l-150 -367h-190zM82 0v1073h217l37 -86q37 59 77 84q39 25 115 25t170 -70l-125 -240q-63 63 -114 64q-51 0 -71 -75t-19 -259v-516h-287z" />
    <glyph glyph-name="Rcaron" unicode="&#x158;" horiz-adv-x="1019" 
d="M483 1745l76 158h258l-227 -318h-213l-230 318h261zM406 819h86q88 0 124 45t35 156q0 111 -33 156t-120 45h-92v-402zM414 588v-588h-303v1462h401q139 0 214 -22q228 -64 228 -388q0 -214 -41 -304q-41 -88 -149 -138l244 -610h-336l-203 588h-55z" />
    <glyph glyph-name="rcaron" unicode="&#x159;" horiz-adv-x="665" 
d="M367 1341l75 158h258l-227 -315h-213l-229 315h260zM82 0v1073h217l37 -86q37 59 77 84q39 25 115 25t170 -70l-125 -240q-63 63 -114 64q-51 0 -71 -75t-19 -259v-516h-287z" />
    <glyph glyph-name="Sacute" unicode="&#x15a;" horiz-adv-x="929" 
d="M319 1589l142 322h311l-240 -322h-213zM451 221q77 0 111 44q34 43 34 139t-30 127t-52 41t-135 46q-174 56 -250 154t-76 270q0 438 391 439q254 0 355 -189q43 -84 49 -260h-277q-8 121 -32 163q-25 42 -84 42q-113 0 -113 -182q0 -78 39 -120t181 -89t206 -98
q117 -92 117 -322q0 -449 -432 -449q-274 0 -375 201q-43 85 -49 273h276q4 -125 36 -177t110 -53z" />
    <glyph glyph-name="sacute" unicode="&#x15b;" horiz-adv-x="819" 
d="M264 1186l142 321h311l-240 -321h-213zM412 213q113 0 112 98q0 57 -24 73t-138 50q-114 33 -154 51t-75 54q-80 85 -80 241t86 236t252 80q236 0 316 -138q37 -59 43 -192h-265q-4 94 -86 94t-82 -88q0 -51 27 -76t164 -59t194 -84q86 -78 86 -247t-94 -249t-295 -80
q-254 0 -336 146q-34 66 -40 205h266q1 -68 27 -92t96 -23z" />
    <glyph glyph-name="Scircumflex" unicode="&#x15c;" horiz-adv-x="929" 
d="M467 1751l-76 -158h-260l227 316h215l228 -316h-258zM451 221q77 0 111 44q34 43 34 139t-30 127t-52 41t-135 46q-174 56 -250 154t-76 270q0 438 391 439q254 0 355 -189q43 -84 49 -260h-277q-8 121 -32 163q-25 42 -84 42q-113 0 -113 -182q0 -78 39 -120t181 -89
t206 -98q117 -92 117 -322q0 -449 -432 -449q-274 0 -375 201q-43 85 -49 273h276q4 -125 36 -177t110 -53z" />
    <glyph glyph-name="scircumflex" unicode="&#x15d;" horiz-adv-x="819" 
d="M410 1348l-76 -158h-260l227 315h215l227 -315h-258zM412 213q113 0 112 98q0 57 -24 73t-138 50q-114 33 -154 51t-75 54q-80 85 -80 241t86 236t252 80q236 0 316 -138q37 -59 43 -192h-265q-4 94 -86 94t-82 -88q0 -51 27 -76t164 -59t194 -84q86 -78 86 -247
t-94 -249t-295 -80q-254 0 -336 146q-34 66 -40 205h266q1 -68 27 -92t96 -23z" />
    <glyph glyph-name="Scedilla" unicode="&#x15e;" horiz-adv-x="929" 
d="M270 -494l74 367h266l-149 -367h-191zM451 221q77 0 111 44q34 43 34 139t-30 127t-52 41t-135 46q-174 56 -250 154t-76 270q0 438 391 439q254 0 355 -189q43 -84 49 -260h-277q-8 121 -32 163q-25 42 -84 42q-113 0 -113 -182q0 -78 39 -120t181 -89t206 -98
q117 -92 117 -322q0 -449 -432 -449q-274 0 -375 201q-43 85 -49 273h276q4 -125 36 -177t110 -53z" />
    <glyph glyph-name="scedilla" unicode="&#x15f;" horiz-adv-x="819" 
d="M215 -494l74 367h266l-149 -367h-191zM412 213q113 0 112 98q0 57 -24 73t-138 50q-114 33 -154 51t-75 54q-80 85 -80 241t86 236t252 80q236 0 316 -138q37 -59 43 -192h-265q-4 94 -86 94t-82 -88q0 -51 27 -76t164 -59t194 -84q86 -78 86 -247t-94 -249t-295 -80
q-254 0 -336 146q-34 66 -40 205h266q1 -68 27 -92t96 -23z" />
    <glyph glyph-name="Scaron" unicode="&#x160;" horiz-adv-x="929" 
d="M453 1745l75 158h258l-227 -318h-213l-229 318h260zM451 221q77 0 111 44q34 43 34 139t-30 127t-52 41t-135 46q-174 56 -250 154t-76 270q0 438 391 439q254 0 355 -189q43 -84 49 -260h-277q-8 121 -32 163q-25 42 -84 42q-113 0 -113 -182q0 -78 39 -120t181 -89
t206 -98q117 -92 117 -322q0 -449 -432 -449q-274 0 -375 201q-43 85 -49 273h276q4 -125 36 -177t110 -53z" />
    <glyph glyph-name="scaron" unicode="&#x161;" horiz-adv-x="819" 
d="M410 1341l75 158h258l-227 -315h-213l-229 315h260zM412 213q113 0 112 98q0 57 -24 73t-138 50q-114 33 -154 51t-75 54q-80 85 -80 241t86 236t252 80q236 0 316 -138q37 -59 43 -192h-265q-4 94 -86 94t-82 -88q0 -51 27 -76t164 -59t194 -84q86 -78 86 -247t-94 -249
t-295 -80q-254 0 -336 146q-34 66 -40 205h266q1 -68 27 -92t96 -23z" />
    <glyph glyph-name="Tcommaaccent" unicode="&#x162;" horiz-adv-x="831" 
d="M207 -494l74 367h266l-150 -367h-190zM264 0v1214h-260v248h823v-248h-260v-1214h-303z" />
    <glyph glyph-name="tcommaaccent" unicode="&#x163;" horiz-adv-x="610" 
d="M143 -494l74 367h266l-149 -367h-191zM123 842h-105v231h105l18 289h269v-289h172v-231h-172v-451q-2 -92 24 -124t96 -29h45v-238h-77q-127 0 -196 15t-113 63t-56 126q-12 77 -10 216v422z" />
    <glyph glyph-name="Tcaron" unicode="&#x164;" horiz-adv-x="831" 
d="M416 1745l76 158h258l-228 -318h-213l-229 318h260zM264 0v1214h-260v248h823v-248h-260v-1214h-303z" />
    <glyph glyph-name="tcaron" unicode="&#x165;" horiz-adv-x="821" 
d="M567 1104l43 450h264l-106 -450h-201zM123 842h-105v231h105l18 289h269v-289h172v-231h-172v-451q-2 -92 24 -124t96 -29h45v-238h-77q-127 0 -196 15t-113 63t-56 126q-12 77 -10 216v422z" />
    <glyph glyph-name="Tbar" unicode="&#x166;" horiz-adv-x="831" 
d="M264 0v621h-176v237h176v356h-260v248h823v-248h-260v-356h176v-237h-176v-621h-303z" />
    <glyph glyph-name="tbar" unicode="&#x167;" horiz-adv-x="610" 
d="M123 842h-105v231h105l18 289h269v-289h172v-231h-172v-121h157v-197h-157v-133q-2 -92 24 -124t96 -29h45v-238h-77q-127 0 -196 15t-113 63t-56 126q-12 77 -10 216v104h-105v197h105v121z" />
    <glyph glyph-name="Utilde" unicode="&#x168;" horiz-adv-x="1083" 
d="M433 1909q87 1 143 -61t71 -62q41 0 47 108h168q-8 -164 -56 -238t-146 -73q-98 -1 -147 61q-48 62 -67 62q-49 0 -55 -109h-168q31 312 210 312zM104 1462h304v-985q0 -156 26 -206t107 -50q83 0 109 48t26 208v985h303v-985q0 -145 -15 -220q-14 -75 -64 -143
q-101 -138 -357 -137q-145 0 -237 41t-144 132q-57 92 -58 327v985z" />
    <glyph glyph-name="utilde" unicode="&#x169;" horiz-adv-x="901" 
d="M299 1194h-168q31 314 210 312q87 0 143 -62q56 -61 71 -62q41 0 47 109h168q-8 -164 -56 -238q-48 -73 -146 -73t-147 61q-48 61 -67 62q-49 0 -55 -109zM78 1073h287v-641q0 -119 18 -164q19 -45 67 -45t65 42t17 163v645h287v-1073h-213l-20 86q-50 -61 -96 -85
t-119 -24q-197 0 -260 152q-33 80 -33 262v682z" />
    <glyph glyph-name="Umacron" unicode="&#x16a;" horiz-adv-x="1083" 
d="M258 1628v207h569v-207h-569zM104 1462h304v-985q0 -156 26 -206t107 -50q83 0 109 48t26 208v985h303v-985q0 -145 -15 -220q-14 -75 -64 -143q-101 -138 -357 -137q-145 0 -237 41t-144 132q-57 92 -58 327v985z" />
    <glyph glyph-name="umacron" unicode="&#x16b;" horiz-adv-x="901" 
d="M166 1225v207h569v-207h-569zM78 1073h287v-641q0 -119 18 -164q19 -45 67 -45t65 42t17 163v645h287v-1073h-213l-20 86q-50 -61 -96 -85t-119 -24q-197 0 -260 152q-33 80 -33 262v682z" />
    <glyph glyph-name="Ubreve" unicode="&#x16c;" horiz-adv-x="1083" 
d="M229 1905h172q10 -78 40 -106q30 -27 101 -27q70 0 100 28t40 105h172q-4 -97 -11 -135t-26 -72q-39 -70 -102 -100t-172 -29q-223 0 -287 151q-21 46 -27 185zM104 1462h304v-985q0 -156 26 -206t107 -50q83 0 109 48t26 208v985h303v-985q0 -145 -15 -220
q-14 -75 -64 -143q-101 -138 -357 -137q-145 0 -237 41t-144 132q-57 92 -58 327v985z" />
    <glyph glyph-name="ubreve" unicode="&#x16d;" horiz-adv-x="901" 
d="M450 1368q70 0 100 29t40 104h172q-4 -98 -11 -135t-26 -72q-39 -70 -102 -100t-172 -29q-223 0 -287 152q-21 45 -27 184h172q10 -77 40 -105t101 -28zM78 1073h287v-641q0 -119 18 -164q19 -45 67 -45t65 42t17 163v645h287v-1073h-213l-20 86q-50 -61 -96 -85
t-119 -24q-197 0 -260 152q-33 80 -33 262v682z" />
    <glyph glyph-name="Uring" unicode="&#x16e;" horiz-adv-x="1083" 
d="M543 1913q-80 0 -80 -107t80 -106q80 0 80 106t-80 107zM543 2044q113 0 181 -65t69 -170q0 -105 -70 -173q-71 -68 -181 -68t-180 68t-69 174q0 106 68 170q69 64 182 64zM104 1462h304v-985q0 -156 26 -206t107 -50q83 0 109 48t26 208v985h303v-985q0 -145 -15 -220
q-14 -75 -64 -143q-101 -138 -357 -137q-145 0 -237 41t-144 132q-57 92 -58 327v985z" />
    <glyph glyph-name="uring" unicode="&#x16f;" horiz-adv-x="901" 
d="M451 1509q-80 -1 -80 -107t80 -106t80 106t-80 107zM451 1640q113 0 181 -64t68 -170q0 -105 -70 -173t-180 -68t-180 68t-69 174q0 106 68 170q69 63 182 63zM78 1073h287v-641q0 -119 18 -164q19 -45 67 -45t65 42t17 163v645h287v-1073h-213l-20 86q-50 -61 -96 -85
t-119 -24q-197 0 -260 152q-33 80 -33 262v682z" />
    <glyph glyph-name="Uhungarumlaut" unicode="&#x170;" horiz-adv-x="1083" 
d="M578 1589l110 322h285l-199 -322h-196zM260 1589l111 322h282l-196 -322h-197zM104 1462h304v-985q0 -156 26 -206t107 -50q83 0 109 48t26 208v985h303v-985q0 -145 -15 -220q-14 -75 -64 -143q-101 -138 -357 -137q-145 0 -237 41t-144 132q-57 92 -58 327v985z" />
    <glyph glyph-name="uhungarumlaut" unicode="&#x171;" horiz-adv-x="901" 
d="M485 1186l111 321h285l-199 -321h-197zM168 1186l111 321h282l-196 -321h-197zM78 1073h287v-641q0 -119 18 -164q19 -45 67 -45t65 42t17 163v645h287v-1073h-213l-20 86q-50 -61 -96 -85t-119 -24q-197 0 -260 152q-33 80 -33 262v682z" />
    <glyph glyph-name="Uogonek" unicode="&#x172;" horiz-adv-x="1083" 
d="M117 1462h303v-985q0 -156 26 -206t107 -50q82 0 109 48t26 208v985h303v-985q4 -195 -41 -298t-162 -163q-121 -131 -120 -227q0 -70 59 -70q39 0 100 21l29 -139q-84 -41 -197 -41q-244 0 -243 178q0 125 127 239q-233 2 -335 120q-101 118 -91 380v985z" />
    <glyph glyph-name="uogonek" unicode="&#x173;" horiz-adv-x="901" 
d="M694 -210q0 -71 60 -71q39 0 100 21l31 -139q-84 -41 -200 -41t-179 45t-64 131q0 121 129 223q39 31 47 41h-12l-20 86q-50 -61 -96 -85t-119 -24q-197 0 -260 152q-33 80 -33 262v682h287v-641q0 -119 18 -164q19 -45 67 -45t65 42t17 163v645h287v-1073l-49 -57
q-76 -82 -76 -153z" />
    <glyph glyph-name="Wcircumflex" unicode="&#x174;" horiz-adv-x="1531" 
d="M766 1751l-76 -158h-260l227 316h215l228 -316h-258zM291 0l-273 1462h304l122 -954l203 954h238l202 -954l125 954h301l-272 -1462h-274l-201 901l-201 -901h-274z" />
    <glyph glyph-name="wcircumflex" unicode="&#x175;" horiz-adv-x="1257" 
d="M629 1348l-76 -158h-260l227 315h215l228 -315h-258zM242 0l-226 1073h291l82 -641l137 641h205l137 -641l82 641h291l-225 -1073h-252l-135 592l-135 -592h-252z" />
    <glyph glyph-name="Ycircumflex" unicode="&#x176;" horiz-adv-x="884" 
d="M442 1751l-75 -158h-261l228 316h215l227 -316h-258zM295 0v494l-365 968h320l196 -610l195 610h322l-365 -968v-494h-303z" />
    <glyph glyph-name="ycircumflex" unicode="&#x177;" horiz-adv-x="843" 
d="M422 1348l-76 -158h-260l227 315h215l228 -315h-258zM57 -471v238q111 -1 145 29t62 161l10 45l-270 1071h291l125 -690l125 690h293l-277 -1139q-59 -256 -151 -330t-353 -75z" />
    <glyph glyph-name="Ydieresis" unicode="&#x178;" horiz-adv-x="884" 
d="M496 1595v269h254v-269h-254zM135 1595v269h254v-269h-254zM295 0v494l-365 968h320l196 -610l195 610h322l-365 -968v-494h-303z" />
    <glyph glyph-name="Zacute" unicode="&#x179;" horiz-adv-x="839" 
d="M330 1589l141 322h311l-239 -322h-213zM10 0v160l461 1054h-412v248h742v-159l-461 -1055h481v-248h-811z" />
    <glyph glyph-name="zacute" unicode="&#x17a;" horiz-adv-x="702" 
d="M254 1186l141 321h312l-240 -321h-213zM4 0v168l346 670h-305v235h635v-168l-346 -669h368v-236h-698z" />
    <glyph glyph-name="Zdotaccent" unicode="&#x17b;" horiz-adv-x="839" 
d="M324 1591v273h274v-273h-274zM10 0v160l461 1054h-412v248h742v-159l-461 -1055h481v-248h-811z" />
    <glyph glyph-name="zdotaccent" unicode="&#x17c;" horiz-adv-x="702" 
d="M242 1190v272h274v-272h-274zM4 0v168l346 670h-305v235h635v-168l-346 -669h368v-236h-698z" />
    <glyph glyph-name="Zcaron" unicode="&#x17d;" horiz-adv-x="839" 
d="M461 1745l76 158h258l-228 -318h-213l-229 318h260zM10 0v160l461 1054h-412v248h742v-159l-461 -1055h481v-248h-811z" />
    <glyph glyph-name="zcaron" unicode="&#x17e;" horiz-adv-x="702" 
d="M385 1341l76 158h258l-227 -315h-213l-230 315h260zM4 0v168l346 670h-305v235h635v-168l-346 -669h368v-236h-698z" />
    <glyph glyph-name="Ohorn" unicode="&#x1a0;" horiz-adv-x="1146" 
d="M676 502v459q0 170 -29 225t-116 55t-115 -55t-29 -225v-459q0 -170 29 -226q30 -56 116 -55q86 -1 115 55t29 226zM979 477q0 -246 -80 -356q-102 -143 -367 -144q-150 0 -240 40t-145 128q-63 111 -63 332v508q0 248 80 356q53 76 140 110t255 34t268 -69t136 -226
q41 49 41 137t-43 160h239q18 -49 18 -141t-50 -164t-189 -166v-539z" />
    <glyph glyph-name="ohorn" unicode="&#x1a1;" horiz-adv-x="1028" 
d="M559 403v267q0 112 -20 152q-19 40 -77 40t-78 -40t-22 -152v-267q0 -111 20 -151t78 -39q58 -1 78 39t21 151zM1081 965q0 -197 -237 -344l2 -21v-174q0 -242 -89 -345t-296 -103t-296 102q-89 104 -89 346v223q0 240 89 343q89 104 279 104t277 -70q88 -70 115 -225
q60 147 -13 282h238q20 -68 20 -118z" />
    <glyph glyph-name="Uhorn" unicode="&#x1af;" horiz-adv-x="1230" 
d="M104 1462h304v-985q0 -156 26 -206t107 -50q83 0 109 48t26 208v985h303v-319q100 76 100 192q0 78 -37 152h238q16 -57 16 -115q0 -123 -66 -207t-251 -196v-492q0 -145 -15 -220q-14 -75 -64 -143q-101 -138 -357 -137q-145 0 -237 41t-144 132q-57 92 -58 327v985z
" />
    <glyph glyph-name="uhorn" unicode="&#x1b0;" horiz-adv-x="1089" 
d="M78 1073h287v-641q0 -119 18 -164q19 -45 67 -45t65 42t17 163v645h287v-334q100 70 101 195q0 78 -37 149h237q16 -55 17 -112q0 -121 -67 -207t-251 -201v-563h-213l-20 86q-50 -61 -96 -85t-119 -24q-197 0 -260 152q-33 80 -33 262v682z" />
    <glyph glyph-name="uni01C4" unicode="&#x1c4;" horiz-adv-x="1900" 
d="M1522 1745l75 158h261l-230 -318h-213l-229 318h260zM1071 0v160l461 1054h-412v248h742v-159l-461 -1055h481v-248h-811zM412 242h92q78 2 112 22t46 72t12 176v438q0 123 -12 175q-12 53 -46 73t-112 23h-92v-979zM109 0v1462h380q270 4 381 -100t107 -358v-545
q4 -255 -107 -359t-381 -100h-380z" />
    <glyph glyph-name="uni01C5" unicode="&#x1c5;" horiz-adv-x="1763" 
d="M1446 1341l76 158h260l-230 -315h-213l-229 315h260zM1065 0v168l346 670h-305v235h635v-168l-346 -669h368v-236h-698zM412 242h92q78 2 112 22t46 72t12 176v438q0 123 -12 175q-12 53 -46 73t-112 23h-92v-979zM109 0v1462h380q270 4 381 -100t107 -358v-545
q4 -255 -107 -359t-381 -100h-380z" />
    <glyph glyph-name="uni01C6" unicode="&#x1c6;" horiz-adv-x="1619" 
d="M1303 1341l75 158h260l-229 -315h-213l-229 315h260zM922 0v168l346 670h-305v235h634v-168l-346 -669h369v-236h-698zM362 698v-270q0 -113 20 -159t67 -46q100 0 100 201v225q0 201 -103 201q-44 0 -64 -35t-20 -117zM76 676q0 221 70 320q71 99 227 100q102 0 176 -56
v422h287v-1462h-220l-16 66q-51 -52 -97 -70t-114 -19q-170 0 -242 112t-71 374v213z" />
    <glyph glyph-name="uni01C7" unicode="&#x1c7;" horiz-adv-x="1396" 
d="M985 1462h303v-1423q0 -172 -8 -248t-35 -127q-78 -166 -315 -166q-94 0 -205 37l111 225q35 -18 63 -18q53 0 70 57q16 57 16 236v1427zM109 0v1462h303v-1214h450v-248h-753z" />
    <glyph glyph-name="uni01C8" unicode="&#x1c8;" horiz-adv-x="1349" 
d="M975 1073h287v-1022q2 -164 -16 -261q-36 -197 -215 -242q-87 -22 -236 -19v238q104 -4 143 51t37 205v1050zM975 1192v283h287v-283h-287zM109 0v1462h303v-1214h450v-248h-753z" />
    <glyph glyph-name="uni01C9" unicode="&#x1c9;" horiz-adv-x="997" 
d="M625 1073h286v-1022q2 -164 -15 -261q-16 -96 -72 -158t-143 -84t-237 -19v238q104 -4 144 51q39 55 37 205v1050zM625 1192v283h286v-283h-286zM90 1462h287v-1009q-2 -125 31 -171t120 -44h15v-238h-27q-139 0 -218 18q-160 36 -193 220q-15 88 -15 243v981z" />
    <glyph glyph-name="uni01CA" unicode="&#x1ca;" horiz-adv-x="1646" 
d="M1235 1462h303v-1423q0 -172 -8 -248t-35 -127q-78 -166 -315 -166q-94 0 -205 37l110 225q35 -18 64 -18q53 0 70 57q16 57 16 236v1427zM109 0v1462h303l323 -858v858h283v-1462h-287l-340 874v-874h-282z" />
    <glyph glyph-name="uni01CB" unicode="&#x1cb;" horiz-adv-x="1599" 
d="M1225 1192v283h286v-283h-286zM1225 1073h286v-1022q2 -164 -15 -261q-16 -96 -72 -158t-143 -84t-237 -19v238q104 -4 144 51q39 55 37 205v1050zM109 0v1462h303l323 -858v858h283v-1462h-287l-340 874v-874h-282z" />
    <glyph glyph-name="uni01CC" unicode="&#x1cc;" horiz-adv-x="1396" 
d="M1022 1073h287v-1022q3 -164 -15 -261q-36 -197 -216 -242q-87 -22 -236 -19v238q104 -4 143 51t37 205v1050zM1022 1192v283h287v-283h-287zM82 0v1073h213l20 -86q49 61 99 85t138 24q87 0 158 -40q72 -40 104 -115t32 -259v-682h-287v641q0 121 -20 165q-19 44 -75 44
t-76 -42t-19 -163v-645h-287z" />
    <glyph glyph-name="uni01CD" unicode="&#x1cd;" horiz-adv-x="1005" 
d="M504 1745l76 158h258l-228 -318h-213l-229 318h260zM625 518l-119 541l-117 -541h236zM676 279h-340l-60 -279h-327l430 1462h254l430 -1462h-326z" />
    <glyph glyph-name="uni01CE" unicode="&#x1ce;" horiz-adv-x="884" 
d="M459 1341l76 158h258l-228 -315h-213l-229 315h260zM520 459h-47q-80 0 -112 -31q-31 -31 -31 -104q0 -74 20 -98t74 -24t75 30q22 30 21 106v121zM520 651v19q0 110 -19 150t-69 40t-72 -24q-20 -25 -20 -82h-266q6 156 57 223q88 119 294 119t294 -106t88 -343v-647
h-223l-17 59q-73 -82 -225 -82t-226 79t-73 263q0 185 75 259t267 73h135z" />
    <glyph glyph-name="uni01CF" unicode="&#x1cf;" horiz-adv-x="520" 
d="M260 1745l76 158h258l-227 -318h-213l-230 318h260zM109 0v1462h303v-1462h-303z" />
    <glyph glyph-name="uni01D0" unicode="&#x1d0;" horiz-adv-x="462" 
d="M231 1341l76 158h258l-227 -315h-213l-229 315h260zM88 0v1073h287v-1073h-287z" />
    <glyph glyph-name="uni01D1" unicode="&#x1d1;" horiz-adv-x="1062" 
d="M532 1745l76 158h258l-227 -318h-213l-229 318h258zM676 502v459q0 170 -29 225t-116 55t-115 -55t-29 -225v-459q0 -170 29 -226q30 -56 116 -55q86 -1 115 55t29 226zM84 477v508q0 246 80 356q102 143 368 144q150 0 240 -40t143 -128q63 -111 64 -332v-508
q0 -246 -80 -356q-102 -143 -367 -144q-150 0 -240 40t-145 128q-63 111 -63 332z" />
    <glyph glyph-name="uni01D2" unicode="&#x1d2;" horiz-adv-x="921" 
d="M461 1341l76 158h258l-228 -315h-213l-229 315h260zM559 403v267q0 110 -20 150q-19 40 -77 40t-78 -40t-22 -150v-267q0 -111 20 -151t78 -39q58 -1 78 39t21 151zM76 426v223q0 240 89 343q89 104 296 104t296 -104t89 -343v-223q0 -242 -89 -345t-296 -103t-296 102
q-89 104 -89 346z" />
    <glyph glyph-name="uni01D3" unicode="&#x1d3;" horiz-adv-x="1083" 
d="M543 1745l75 158h259l-228 -318h-213l-229 318h260zM104 1462h304v-985q0 -156 26 -206t107 -50q83 0 109 48t26 208v985h303v-985q0 -145 -15 -220q-14 -75 -64 -143q-101 -138 -357 -137q-145 0 -237 41t-144 132q-57 92 -58 327v985z" />
    <glyph glyph-name="uni01D4" unicode="&#x1d4;" horiz-adv-x="901" 
d="M451 1341l75 158h258l-227 -315h-213l-229 315h260zM78 1073h287v-641q0 -119 18 -164q19 -45 67 -45t65 42t17 163v645h287v-1073h-213l-20 86q-50 -61 -96 -85t-119 -24q-197 0 -260 152q-33 80 -33 262v682z" />
    <glyph glyph-name="Gcaron" unicode="&#x1e6;" horiz-adv-x="1040" 
d="M520 1745l76 158h258l-227 -318h-213l-230 318h260zM539 584v231h438v-252q0 -295 -72 -411q-109 -174 -370 -174t-371 153q-80 109 -80 379v438q0 295 98 404q113 129 344 129q266 0 367 -189q47 -86 53 -260h-276q-10 121 -38 163t-106 42t-109 -63q-30 -63 -30 -248
v-394q0 -162 21 -223q29 -88 119 -88q91 -1 121 59t30 218v86h-139z" />
    <glyph glyph-name="gcaron" unicode="&#x1e7;" horiz-adv-x="917" 
d="M479 1341l76 158h258l-227 -315h-213l-230 315h260zM362 698v-264q0 -119 20 -165t69 -46q98 0 98 201v225q0 201 -100 201q-47 0 -67 -35t-20 -117zM549 -35v53q-63 -41 -162 -41q-168 0 -240 112t-71 374v213q0 221 69 320q69 100 211 100t232 -97l28 74h220v-1065
q0 -248 -80 -358q-94 -133 -314 -133t-290 141q-31 63 -37 195h254q2 -61 19 -86q18 -25 68 -25t72 47t21 176z" />
    <glyph glyph-name="uni01EA" unicode="&#x1ea;" horiz-adv-x="1062" 
d="M682 502v459q0 170 -29 225t-115 55t-116 -55q-29 -55 -29 -225v-459q0 -170 29 -226t116 -55q88 -1 116 55t28 226zM985 985v-508q4 -195 -48 -305t-169 -160q-117 -123 -117 -223q0 -70 60 -70q39 0 98 21l31 -139q-84 -41 -197 -41q-244 0 -244 176q0 70 29 123
t102 118q-238 0 -341 117t-99 383v508q0 246 80 356q102 143 369 144q149 0 239 -40t144 -128q63 -111 63 -332z" />
    <glyph glyph-name="uni01EB" unicode="&#x1eb;" horiz-adv-x="921" 
d="M559 403v267q0 110 -20 150q-19 40 -77 40t-78 -40t-22 -150v-267q0 -111 20 -151t78 -39q58 -1 78 39t21 151zM846 649v-223q0 -170 -40 -265t-128 -141q-104 -133 -105 -231q0 -70 60 -70q39 0 100 21l31 -139q-88 -41 -197 -41q-246 0 -245 178q0 127 110 239
q-192 9 -274 113t-82 336v223q0 240 89 343q89 104 296 104t296 -104t89 -343z" />
    <glyph glyph-name="uni01F1" unicode="&#x1f1;" horiz-adv-x="1900" 
d="M1071 0v160l461 1054h-412v248h742v-159l-461 -1055h481v-248h-811zM412 242h92q78 2 112 22t46 72t12 176v438q0 123 -12 175q-12 53 -46 73t-112 23h-92v-979zM109 0v1462h380q270 4 381 -100t107 -358v-545q4 -255 -107 -359t-381 -100h-380z" />
    <glyph glyph-name="uni01F2" unicode="&#x1f2;" horiz-adv-x="1763" 
d="M1065 0v168l346 670h-305v235h635v-168l-346 -669h368v-236h-698zM412 242h92q78 2 112 22t46 72t12 176v438q0 123 -12 175q-12 53 -46 73t-112 23h-92v-979zM109 0v1462h380q270 4 381 -100t107 -358v-545q4 -255 -107 -359t-381 -100h-380z" />
    <glyph glyph-name="uni01F3" unicode="&#x1f3;" horiz-adv-x="1619" 
d="M922 0v168l346 670h-305v235h634v-168l-346 -669h369v-236h-698zM362 698v-270q0 -113 20 -159t67 -46q100 0 100 201v225q0 201 -103 201q-44 0 -64 -35t-20 -117zM76 676q0 221 70 320q71 99 227 100q102 0 176 -56v422h287v-1462h-220l-16 66q-51 -52 -97 -70
t-114 -19q-170 0 -242 112t-71 374v213z" />
    <glyph glyph-name="uni01F4" unicode="&#x1f4;" horiz-adv-x="1040" 
d="M389 1589l141 322h312l-240 -322h-213zM539 584v231h438v-252q0 -295 -72 -411q-109 -174 -370 -174t-371 153q-80 109 -80 379v438q0 295 98 404q113 129 344 129q266 0 367 -189q47 -86 53 -260h-276q-10 121 -38 163t-106 42t-109 -63q-30 -63 -30 -248v-394
q0 -162 21 -223q29 -88 119 -88q91 -1 121 59t30 218v86h-139z" />
    <glyph glyph-name="uni01F5" unicode="&#x1f5;" horiz-adv-x="917" 
d="M360 1186l142 321h311l-240 -321h-213zM362 698v-264q0 -119 20 -165t69 -46q98 0 98 201v225q0 201 -100 201q-47 0 -67 -35t-20 -117zM549 -35v53q-63 -41 -162 -41q-168 0 -240 112t-71 374v213q0 221 69 320q69 100 211 100t232 -97l28 74h220v-1065q0 -248 -80 -358
q-94 -133 -314 -133t-290 141q-31 63 -37 195h254q2 -61 19 -86q18 -25 68 -25t72 47t21 176z" />
    <glyph glyph-name="Aringacute" unicode="&#x1fa;" horiz-adv-x="1005" 
d="M381 1849l117 275h360l-276 -275h-201zM504 1675q-80 -1 -80 -107t80 -106t80 106t-80 107zM625 518l-119 541l-117 -541h236zM254 1562q0 116 69 180t181 64t182 -63q68 -63 68 -178t-97 -187l406 -1378h-326l-61 279h-340l-60 -279h-327l405 1374q-100 72 -100 188z
" />
    <glyph glyph-name="aringacute" unicode="&#x1fb;" horiz-adv-x="884" 
d="M342 1683l117 275h358l-274 -275h-201zM463 1495q-80 -1 -80 -107t80 -106t80 106t-80 107zM213 1393q1 105 69 169t181 64t181 -64t69 -170q0 -105 -70 -173q-71 -68 -181 -68t-180 68t-69 174zM520 459h-47q-80 0 -112 -31q-31 -31 -31 -104q0 -74 20 -98t74 -24t75 30
q22 30 21 106v121zM520 651v19q0 110 -19 150t-69 40t-72 -24q-20 -25 -20 -82h-266q6 156 57 223q88 119 294 119t294 -106t88 -343v-647h-223l-17 59q-73 -82 -225 -82t-226 79t-73 263q0 185 75 259t267 73h135z" />
    <glyph glyph-name="AEacute" unicode="&#x1fc;" horiz-adv-x="1527" 
d="M862 1589l142 322h311l-240 -322h-213zM727 553v661h-33l-258 -661h291zM727 311h-385l-121 -311h-348l659 1462h936v-248h-446v-354h377v-248h-377v-364h459v-248h-754v311z" />
    <glyph glyph-name="aeacute" unicode="&#x1fd;" horiz-adv-x="1359" 
d="M535 1186l141 321h311l-239 -321h-213zM807 657h211v39q0 102 -24 138t-85 36t-82 -36q-20 -37 -20 -138v-39zM520 459h-47q-80 0 -112 -31q-31 -31 -31 -103q0 -71 20 -97t74 -26t75 30q22 30 21 106v121zM340 754h-266q6 154 55 223q84 119 289 119q162 0 252 -90
q90 90 272 90t266 -115t84 -377v-143h-485v-58q-1 -111 21 -151t76 -39q54 0 78 27t26 88h266q-6 -156 -53 -230q-81 -121 -277 -121t-289 105q-105 -104 -285 -104t-254 78q-74 79 -73 263q0 185 75 259t267 73h135v19q0 110 -19 150t-69 40t-72 -24q-20 -25 -20 -82z" />
    <glyph glyph-name="Oslashacute" unicode="&#x1fe;" horiz-adv-x="1062" 
d="M387 1589l141 322h312l-240 -322h-213zM526 1241q-84 0 -112 -56t-29 -224v-261l258 494q-33 47 -117 47zM536 221q84 1 113 57t29 224v260l-258 -492q32 -49 116 -49zM979 985v-508q0 -246 -80 -356q-102 -143 -364 -144q-160 0 -248 41l-33 -65l-209 100l76 146
q-37 109 -37 278v508q0 246 80 356q102 143 364 144q156 0 248 -41l33 65l209 -100l-78 -145q39 -106 39 -279z" />
    <glyph glyph-name="oslashacute" unicode="&#x1ff;" horiz-adv-x="921" 
d="M315 1186l142 321h311l-240 -321h-213zM460 860q-56 0 -76 -39t-22 -147v-146l173 299q-19 33 -75 33zM464 213q54 0 75 39q20 39 20 147v146l-172 -301q23 -31 77 -31zM846 653v-231q0 -238 -89 -341t-294 -104q-129 0 -209 37l-33 -53l-145 72l55 94q-55 98 -55 295
v231q0 238 89 340t294 103q129 0 209 -37l32 55l146 -74l-55 -94q55 -98 55 -293z" />
    <glyph glyph-name="uni0200" unicode="&#x200;" horiz-adv-x="1005" 
d="M467 1589h-195l-198 322h282zM786 1589h-196l-199 322h285zM625 518l-119 541l-117 -541h236zM676 279h-340l-60 -279h-327l430 1462h254l430 -1462h-326z" />
    <glyph glyph-name="uni0201" unicode="&#x201;" horiz-adv-x="884" 
d="M406 1186h-195l-199 321h283zM725 1186h-197l-198 321h284zM520 459h-47q-80 0 -112 -31q-31 -31 -31 -104q0 -74 20 -98t74 -24t75 30q22 30 21 106v121zM520 651v19q0 110 -19 150t-69 40t-72 -24q-20 -25 -20 -82h-266q6 156 57 223q88 119 294 119t294 -106t88 -343
v-647h-223l-17 59q-73 -82 -225 -82t-226 79t-73 263q0 185 75 259t267 73h135z" />
    <glyph glyph-name="uni0202" unicode="&#x202;" horiz-adv-x="1005" 
d="M513 1925q214 0 278 -151q22 -52 26 -185h-172q-10 76 -40 105q-31 28 -101 28t-100 -28t-39 -105h-172q5 149 39 213q68 122 281 123zM625 518l-119 541l-117 -541h236zM676 279h-340l-60 -279h-327l430 1462h254l430 -1462h-326z" />
    <glyph glyph-name="uni0203" unicode="&#x203;" horiz-adv-x="884" 
d="M443 1319q-71 0 -101 -28t-39 -105h-172q4 150 37 207q38 69 102 99t172 30q223 0 287 -152q23 -51 27 -184h-172q-10 76 -40 104t-101 29zM520 459h-47q-80 0 -112 -31q-31 -31 -31 -104q0 -74 20 -98t74 -24t75 30q22 30 21 106v121zM520 651v19q0 110 -19 150t-69 40
t-72 -24q-20 -25 -20 -82h-266q6 156 57 223q88 119 294 119t294 -106t88 -343v-647h-223l-17 59q-73 -82 -225 -82t-226 79t-73 263q0 185 75 259t267 73h135z" />
    <glyph glyph-name="uni0204" unicode="&#x204;" horiz-adv-x="915" 
d="M455 1589h-195l-199 322h283zM774 1589h-196l-199 322h285zM111 0v1462h745v-248h-442v-354h372v-248h-372v-364h454v-248h-757z" />
    <glyph glyph-name="uni0205" unicode="&#x205;" horiz-adv-x="915" 
d="M422 1186h-195l-198 321h282zM741 1186h-196l-199 321h285zM362 668h211v26q0 102 -23 140q-24 36 -85 36t-82 -36q-20 -37 -21 -140v-26zM465 213q96 0 98 115h266q-6 -162 -57 -230q-86 -121 -302 -121t-305 114t-89 374v137q0 266 89 380t296 114t297 -114t90 -380
v-141h-486v-60q0 -109 22 -149t81 -39z" />
    <glyph glyph-name="uni0206" unicode="&#x206;" horiz-adv-x="915" 
d="M471 1925q223 0 287 -151q22 -52 26 -185h-172q-10 76 -40 105q-30 28 -100 28t-100 -28t-40 -105h-172q4 150 37 207q37 70 101 100t173 29zM111 0v1462h745v-248h-442v-354h372v-248h-372v-364h454v-248h-757z" />
    <glyph glyph-name="uni0207" unicode="&#x207;" horiz-adv-x="915" 
d="M460 1319q-70 0 -101 -28q-30 -28 -40 -105h-172q4 150 37 207q37 69 102 99t173 30q223 0 286 -152q23 -51 27 -184h-172q-10 76 -40 104t-100 29zM362 668h211v26q0 102 -23 140q-24 36 -85 36t-82 -36q-20 -37 -21 -140v-26zM465 213q96 0 98 115h266
q-6 -162 -57 -230q-86 -121 -302 -121t-305 114t-89 374v137q0 266 89 380t296 114t297 -114t90 -380v-141h-486v-60q0 -109 22 -149t81 -39z" />
    <glyph glyph-name="uni0208" unicode="&#x208;" horiz-adv-x="520" 
d="M223 1589h-194l-199 322h283zM543 1589h-197l-199 322h285zM109 0v1462h303v-1462h-303z" />
    <glyph glyph-name="uni0209" unicode="&#x209;" horiz-adv-x="462" 
d="M195 1186h-195l-199 321h283zM514 1186h-197l-198 321h284zM88 0v1073h287v-1073h-287z" />
    <glyph glyph-name="uni020A" unicode="&#x20a;" horiz-adv-x="520" 
d="M260 1925q223 0 287 -151q22 -52 26 -185h-172q-10 76 -40 105q-31 28 -101 28t-100 -28t-39 -105h-172q4 150 37 207q38 70 102 100t172 29zM109 0v1462h303v-1462h-303z" />
    <glyph glyph-name="uni020B" unicode="&#x20b;" horiz-adv-x="462" 
d="M232 1319q-70 0 -100 -28t-40 -105h-172q4 150 37 207q37 69 101 99t173 30q223 0 287 -152q23 -51 27 -184h-172q-10 76 -40 104t-101 29zM88 0v1073h287v-1073h-287z" />
    <glyph glyph-name="uni020C" unicode="&#x20c;" horiz-adv-x="1062" 
d="M496 1589h-195l-199 322h283zM815 1589h-197l-198 322h285zM676 502v459q0 170 -29 225t-116 55t-115 -55t-29 -225v-459q0 -170 29 -226q30 -56 116 -55q86 -1 115 55t29 226zM84 477v508q0 246 80 356q102 143 368 144q150 0 240 -40t143 -128q63 -111 64 -332v-508
q0 -246 -80 -356q-102 -143 -367 -144q-150 0 -240 40t-145 128q-63 111 -63 332z" />
    <glyph glyph-name="uni020D" unicode="&#x20d;" horiz-adv-x="921" 
d="M424 1186h-195l-198 321h282zM743 1186h-196l-199 321h285zM559 403v267q0 110 -20 150q-19 40 -77 40t-78 -40t-22 -150v-267q0 -111 20 -151t78 -39q58 -1 78 39t21 151zM76 426v223q0 240 89 343q89 104 296 104t296 -104t89 -343v-223q0 -242 -89 -345t-296 -103
t-296 102q-89 104 -89 346z" />
    <glyph glyph-name="uni020E" unicode="&#x20e;" horiz-adv-x="1062" 
d="M532 1925q223 0 287 -151q23 -52 27 -185h-172q-10 76 -40 105q-30 28 -100 28t-101 -28q-30 -28 -40 -105h-172q4 150 37 207q38 70 102 100t172 29zM676 502v459q0 170 -29 225t-116 55t-115 -55t-29 -225v-459q0 -170 29 -226q30 -56 116 -55q86 -1 115 55t29 226z
M84 477v508q0 246 80 356q102 143 368 144q150 0 240 -40t143 -128q63 -111 64 -332v-508q0 -246 -80 -356q-102 -143 -367 -144q-150 0 -240 40t-145 128q-63 111 -63 332z" />
    <glyph glyph-name="uni020F" unicode="&#x20f;" horiz-adv-x="921" 
d="M462 1319q-70 0 -101 -28q-30 -28 -39 -105h-172q4 150 38 214q67 122 282 122q214 0 278 -152q22 -51 26 -184h-172q-10 76 -40 104t-100 29zM559 403v267q0 110 -20 150q-19 40 -77 40t-78 -40t-22 -150v-267q0 -111 20 -151t78 -39q58 -1 78 39t21 151zM76 426v223
q0 240 89 343q89 104 296 104t296 -104t89 -343v-223q0 -242 -89 -345t-296 -103t-296 102q-89 104 -89 346z" />
    <glyph glyph-name="uni0210" unicode="&#x210;" horiz-adv-x="1021" 
d="M406 1589h-195l-199 322h283zM725 1589h-197l-198 322h284zM406 819h86q88 0 124 45t35 156q0 111 -33 156t-120 45h-92v-402zM414 588v-588h-303v1462h401q139 0 214 -22q228 -64 228 -388q0 -214 -41 -304q-41 -88 -149 -138l244 -610h-336l-203 588h-55z" />
    <glyph glyph-name="uni0211" unicode="&#x211;" horiz-adv-x="665" 
d="M297 1186h-195l-198 321h282zM616 1186h-196l-199 321h285zM82 0v1073h217l37 -86q37 59 77 84q39 25 115 25t170 -70l-125 -240q-63 63 -114 64q-51 0 -71 -75t-19 -259v-516h-287z" />
    <glyph glyph-name="uni0212" unicode="&#x212;" horiz-adv-x="1019" 
d="M471 1925q223 0 287 -151q22 -52 26 -185h-172q-10 76 -40 105q-30 28 -100 28t-100 -28t-40 -105h-172q4 150 37 207q37 70 101 100t173 29zM406 819h86q88 0 124 45t35 156q0 111 -33 156t-120 45h-92v-402zM414 588v-588h-303v1462h401q139 0 214 -22
q228 -64 228 -388q0 -214 -41 -304q-41 -88 -149 -138l244 -610h-336l-203 588h-55z" />
    <glyph glyph-name="uni0213" unicode="&#x213;" horiz-adv-x="665" 
d="M361 1319q-71 0 -101 -28t-39 -105h-172q4 150 37 207q38 69 102 99t172 30q223 0 287 -152q23 -51 27 -184h-172q-10 76 -40 104t-101 29zM82 0v1073h217l37 -86q37 59 77 84q39 25 115 25t170 -70l-125 -240q-63 63 -114 64q-51 0 -71 -75t-19 -259v-516h-287z" />
    <glyph glyph-name="uni0214" unicode="&#x214;" horiz-adv-x="1083" 
d="M506 1589h-195l-198 322h282zM825 1589h-196l-199 322h285zM104 1462h304v-985q0 -156 26 -206t107 -50q83 0 109 48t26 208v985h303v-985q0 -145 -15 -220q-14 -75 -64 -143q-101 -138 -357 -137q-145 0 -237 41t-144 132q-57 92 -58 327v985z" />
    <glyph glyph-name="uni0215" unicode="&#x215;" horiz-adv-x="901" 
d="M414 1186h-195l-199 321h283zM733 1186h-196l-199 321h285zM78 1073h287v-641q0 -119 18 -164q19 -45 67 -45t65 42t17 163v645h287v-1073h-213l-20 86q-50 -61 -96 -85t-119 -24q-197 0 -260 152q-33 80 -33 262v682z" />
    <glyph glyph-name="uni0216" unicode="&#x216;" horiz-adv-x="1083" 
d="M543 1925q223 0 286 -151q23 -52 27 -185h-172q-10 76 -40 105q-30 28 -100 28t-101 -28q-30 -28 -40 -105h-172q4 150 37 207q37 70 102 100t173 29zM104 1462h304v-985q0 -156 26 -206t107 -50q83 0 109 48t26 208v985h303v-985q0 -145 -15 -220q-14 -75 -64 -143
q-101 -138 -357 -137q-145 0 -237 41t-144 132q-57 92 -58 327v985z" />
    <glyph glyph-name="uni0217" unicode="&#x217;" horiz-adv-x="901" 
d="M452 1319q-70 0 -101 -28q-30 -28 -40 -105h-172q4 150 37 207q37 69 102 99t173 30q223 0 286 -152q23 -51 27 -184h-172q-10 76 -40 104t-100 29zM78 1073h287v-641q0 -119 18 -164q19 -45 67 -45t65 42t17 163v645h287v-1073h-213l-20 86q-50 -61 -96 -85t-119 -24
q-197 0 -260 152q-33 80 -33 262v682z" />
    <glyph glyph-name="Scommaaccent" unicode="&#x218;" horiz-adv-x="929" 
d="M256 -494l74 367h266l-150 -367h-190zM451 221q77 0 111 44q34 43 34 139t-30 127t-52 41t-135 46q-174 56 -250 154t-76 270q0 438 391 439q254 0 355 -189q43 -84 49 -260h-277q-8 121 -32 163q-25 42 -84 42q-113 0 -113 -182q0 -78 39 -120t181 -89t206 -98
q117 -92 117 -322q0 -449 -432 -449q-274 0 -375 201q-43 85 -49 273h276q4 -125 36 -177t110 -53z" />
    <glyph glyph-name="scommaaccent" unicode="&#x219;" horiz-adv-x="819" 
d="M215 -494l74 367h266l-149 -367h-191zM412 213q113 0 112 98q0 57 -24 73t-138 50q-114 33 -154 51t-75 54q-80 85 -80 241t86 236t252 80q236 0 316 -138q37 -59 43 -192h-265q-4 94 -86 94t-82 -88q0 -51 27 -76t164 -59t194 -84q86 -78 86 -247t-94 -249t-295 -80
q-254 0 -336 146q-34 66 -40 205h266q1 -68 27 -92t96 -23z" />
    <glyph glyph-name="uni021A" unicode="&#x21a;" horiz-adv-x="831" 
d="M207 -494l74 367h266l-150 -367h-190zM264 0v1214h-260v248h823v-248h-260v-1214h-303z" />
    <glyph glyph-name="uni021B" unicode="&#x21b;" horiz-adv-x="610" 
d="M143 -494l74 367h266l-149 -367h-191zM123 842h-105v231h105l18 289h269v-289h172v-231h-172v-451q-2 -92 24 -124t96 -29h45v-238h-77q-127 0 -196 15t-113 63t-56 126q-12 77 -10 216v422z" />
    <glyph glyph-name="uni0226" unicode="&#x226;" horiz-adv-x="1005" 
d="M367 1591v273h274v-273h-274zM625 518l-119 541l-117 -541h236zM676 279h-340l-60 -279h-327l430 1462h254l430 -1462h-326z" />
    <glyph glyph-name="uni0227" unicode="&#x227;" horiz-adv-x="884" 
d="M305 1190v272h275v-272h-275zM520 459h-47q-80 0 -112 -31q-31 -31 -31 -104q0 -74 20 -98t74 -24t75 30q22 30 21 106v121zM520 651v19q0 110 -19 150t-69 40t-72 -24q-20 -25 -20 -82h-266q6 156 57 223q88 119 294 119t294 -106t88 -343v-647h-223l-17 59
q-73 -82 -225 -82t-226 79t-73 263q0 185 75 259t267 73h135z" />
    <glyph glyph-name="uni0237" unicode="&#x237;" horiz-adv-x="473" 
d="M98 1073h287v-1022q2 -164 -15 -261q-16 -96 -72 -158t-143 -84t-237 -19v238q104 -4 143 51t37 205v1050z" />
    <glyph glyph-name="afii57929" unicode="&#x2bc;" horiz-adv-x="401" 
d="M29 924l47 538h297l-99 -538h-245z" />
    <glyph glyph-name="uni02C0" unicode="&#x2c0;" horiz-adv-x="1024" 
d="M623 1567h-201q0 111 9 145t39 72q30 36 32 53q0 31 -39 31t-125 -39l-53 184q137 43 239 43t163 -53q60 -53 61 -150q0 -47 -16 -75t-75 -84q-23 -28 -29 -50t-5 -77z" />
    <glyph glyph-name="circumflex" unicode="&#x2c6;" horiz-adv-x="1024" 
d="M512 1348l-76 -158h-260l227 315h215l228 -315h-258z" />
    <glyph glyph-name="caron" unicode="&#x2c7;" horiz-adv-x="1024" 
d="M512 1341l76 158h258l-228 -315h-212l-230 315h260z" />
    <glyph glyph-name="uni02C9" unicode="&#x2c9;" horiz-adv-x="1024" 
d="M227 1225v207h570v-207h-570z" />
    <glyph glyph-name="breve" unicode="&#x2d8;" horiz-adv-x="1024" 
d="M512 1368q70 0 100 29t39 104h172q-4 -98 -11 -135t-26 -72q-39 -70 -102 -100t-172 -29q-223 0 -287 152q-20 45 -26 184h172q10 -77 40 -105q31 -28 101 -28z" />
    <glyph glyph-name="dotaccent" unicode="&#x2d9;" horiz-adv-x="1024" 
d="M375 1190v272h274v-272h-274z" />
    <glyph glyph-name="ring" unicode="&#x2da;" horiz-adv-x="1024" 
d="M512 1509q-80 -1 -80 -107t80 -106t80 106t-80 107zM262 1407q0 105 68 169t182 64t182 -64t68 -170q0 -105 -70 -173t-180 -68t-180 68t-70 174z" />
    <glyph glyph-name="ogonek" unicode="&#x2db;" horiz-adv-x="1024" 
d="M684 -281q39 0 100 21l31 -139q-88 -41 -197 -41q-246 0 -245 176q0 121 129 223q31 25 47 41h201q-10 -14 -13 -14l-37 -43q-76 -80 -76 -152t60 -72z" />
    <glyph glyph-name="tilde" unicode="&#x2dc;" horiz-adv-x="1024" 
d="M360 1194h-167q31 314 209 312q88 0 144 -62q56 -61 70 -62q41 0 48 109h167q-8 -164 -56 -238q-48 -73 -146 -73q-99 0 -147 61t-66 62q-50 0 -56 -109z" />
    <glyph glyph-name="hungarumlaut" unicode="&#x2dd;" horiz-adv-x="1024" 
d="M547 1186l110 321h285l-199 -321h-196zM229 1186l111 321h283l-197 -321h-197z" />
    <glyph glyph-name="uni0309" unicode="&#x309;" horiz-adv-x="1024" 
d="M623 1180h-201q0 110 9 144t39 73t32 53q0 31 -39 31t-125 -41l-53 184q137 45 239 45t163 -53q60 -53 61 -152q0 -48 -16 -74t-75 -83q-34 -39 -34 -127z" />
    <glyph glyph-name="uni0312" unicode="&#x312;" horiz-adv-x="1024" 
d="M367 1186l239 321h213l-141 -321h-311z" />
    <glyph glyph-name="uni0313" unicode="&#x313;" horiz-adv-x="243" 
d="M-29 913l62 586h264l-127 -586h-199z" />
    <glyph glyph-name="uni031B" unicode="&#x31b;" horiz-adv-x="243" 
d="M-29 913l62 586h264l-127 -586h-199z" />
    <glyph glyph-name="uni0323" unicode="&#x323;" horiz-adv-x="1024" 
d="M375 -436v272h274v-272h-274z" />
    <glyph glyph-name="uni037E" unicode="&#x37e;" horiz-adv-x="479" 
d="M123 782v283h303v-283h-303zM35 -385l78 661h313l-129 -661h-262z" />
    <glyph glyph-name="uni0387" unicode="&#x387;" horiz-adv-x="483" 
d="M90 582v282h303v-282h-303z" />
    <glyph glyph-name="uni04D4" unicode="&#x4d4;" horiz-adv-x="1527" 
d="M727 553v661h-33l-258 -661h291zM727 311h-385l-121 -311h-348l659 1462h936v-248h-446v-354h377v-248h-377v-364h459v-248h-754v311z" />
    <glyph glyph-name="uni04D5" unicode="&#x4d5;" horiz-adv-x="1359" 
d="M807 657h211v39q0 102 -24 138t-85 36t-82 -36q-20 -37 -20 -138v-39zM520 459h-47q-80 0 -112 -31q-31 -31 -31 -103q0 -71 20 -97t74 -26t75 30q22 30 21 106v121zM340 754h-266q6 154 55 223q84 119 289 119q162 0 252 -90q90 90 272 90t266 -115t84 -377v-143h-485
v-58q-1 -111 21 -151t76 -39q54 0 78 27t26 88h266q-6 -156 -53 -230q-81 -121 -277 -121t-289 105q-105 -104 -285 -104t-254 78q-74 79 -73 263q0 185 75 259t267 73h135v19q0 110 -19 150t-69 40t-72 -24q-20 -25 -20 -82z" />
    <glyph glyph-name="uni1E02" unicode="&#x1e02;" horiz-adv-x="1040" 
d="M369 1591v273h274v-273h-274zM412 242h104q90 0 123 39t33 149t-31 152q-31 41 -115 41h-114v-381zM412 864h102q76 0 108 40t32 138t-31 139q-31 40 -109 40h-102v-357zM109 0v1462h428q227 0 323 -95t96 -313t-118 -290q137 -86 137 -361q0 -223 -109 -325
q-47 -42 -106 -60t-164 -18h-487z" />
    <glyph glyph-name="uni1E03" unicode="&#x1e03;" horiz-adv-x="917" 
d="M492 1190v272h274v-272h-274zM555 424v274q0 82 -19 117t-65 35q-102 0 -102 -201v-225q0 -201 100 -201q47 0 67 46q19 46 19 155zM82 0v1462h287v-422q74 55 176 56q157 0 227 -100t70 -320v-213q0 -264 -72 -375t-242 -111q-121 0 -211 89l-16 -66h-219z" />
    <glyph glyph-name="uni1E0C" unicode="&#x1e0c;" horiz-adv-x="1060" 
d="M338 -436v272h274v-272h-274zM412 242h92q78 2 112 22t46 72t12 176v438q0 123 -12 175q-12 53 -46 73t-112 23h-92v-979zM109 0v1462h380q270 4 381 -100t107 -358v-545q4 -255 -107 -359t-381 -100h-380z" />
    <glyph glyph-name="uni1E0D" unicode="&#x1e0d;" horiz-adv-x="917" 
d="M336 -436v272h274v-272h-274zM362 698v-270q0 -113 20 -159t67 -46q100 0 100 201v225q0 201 -103 201q-44 0 -64 -35t-20 -117zM76 676q0 221 70 320q71 99 227 100q102 0 176 -56v422h287v-1462h-220l-16 66q-51 -52 -97 -70t-114 -19q-170 0 -242 112t-71 374v213z
" />
    <glyph glyph-name="uni1E1E" unicode="&#x1e1e;" horiz-adv-x="884" 
d="M360 1591v273h275v-273h-275zM111 0v1462h733v-248h-430v-364h354v-248h-354v-602h-303z" />
    <glyph glyph-name="uni1E1F" unicode="&#x1e1f;" horiz-adv-x="583" 
d="M244 1591v273h274v-273h-274zM127 842h-104v231h104v53q-2 199 67 271t259 65h120v-213h-59q-68 1 -84 -21t-16 -112v-43h166v-231h-166v-842h-287v842z" />
    <glyph glyph-name="uni1E24" unicode="&#x1e24;" horiz-adv-x="1081" 
d="M403 -436v272h275v-272h-275zM109 0v1462h303v-602h258v602h303v-1462h-303v612h-258v-612h-303z" />
    <glyph glyph-name="uni1E25" unicode="&#x1e25;" horiz-adv-x="923" 
d="M326 -436v272h274v-272h-274zM82 0v1462h287v-415q61 49 172 49q205 0 270 -152q35 -78 35 -260v-684h-287v643q0 119 -20 163q-19 44 -75 44t-76 -42t-19 -163v-645h-287z" />
    <glyph glyph-name="uni1E44" unicode="&#x1e44;" horiz-adv-x="1126" 
d="M440 1591v273h275v-273h-275zM109 0v1462h303l323 -858v858h283v-1462h-287l-340 874v-874h-282z" />
    <glyph glyph-name="uni1E45" unicode="&#x1e45;" horiz-adv-x="923" 
d="M326 1190v272h274v-272h-274zM82 0v1073h213l20 -86q49 61 99 85t138 24q87 0 158 -40q72 -40 104 -115t32 -259v-682h-287v641q0 121 -20 165q-19 44 -75 44t-76 -42t-19 -163v-645h-287z" />
    <glyph glyph-name="uni1E5A" unicode="&#x1e5a;" horiz-adv-x="1019" 
d="M387 -436v272h275v-272h-275zM406 819h86q88 0 124 45t35 156q0 111 -33 156t-120 45h-92v-402zM414 588v-588h-303v1462h401q139 0 214 -22q228 -64 228 -388q0 -214 -41 -304q-41 -88 -149 -138l244 -610h-336l-203 588h-55z" />
    <glyph glyph-name="uni1E5B" unicode="&#x1e5b;" horiz-adv-x="665" 
d="M88 -436v272h274v-272h-274zM82 0v1073h217l37 -86q37 59 77 84q39 25 115 25t170 -70l-125 -240q-63 63 -114 64q-51 0 -71 -75t-19 -259v-516h-287z" />
    <glyph glyph-name="uni1E62" unicode="&#x1e62;" horiz-adv-x="929" 
d="M315 -436v272h275v-272h-275zM451 221q77 0 111 44q34 43 34 139t-30 127t-52 41t-135 46q-174 56 -250 154t-76 270q0 438 391 439q254 0 355 -189q43 -84 49 -260h-277q-8 121 -32 163q-25 42 -84 42q-113 0 -113 -182q0 -78 39 -120t181 -89t206 -98q117 -92 117 -322
q0 -449 -432 -449q-274 0 -375 201q-43 85 -49 273h276q4 -125 36 -177t110 -53z" />
    <glyph glyph-name="uni1E63" unicode="&#x1e63;" horiz-adv-x="819" 
d="M246 -436v272h274v-272h-274zM412 213q113 0 112 98q0 57 -24 73t-138 50q-114 33 -154 51t-75 54q-80 85 -80 241t86 236t252 80q236 0 316 -138q37 -59 43 -192h-265q-4 94 -86 94t-82 -88q0 -51 27 -76t164 -59t194 -84q86 -78 86 -247t-94 -249t-295 -80
q-254 0 -336 146q-34 66 -40 205h266q1 -68 27 -92t96 -23z" />
    <glyph glyph-name="uni1E6C" unicode="&#x1e6c;" horiz-adv-x="831" 
d="M279 -436v272h274v-272h-274zM264 0v1214h-260v248h823v-248h-260v-1214h-303z" />
    <glyph glyph-name="uni1E6D" unicode="&#x1e6d;" horiz-adv-x="610" 
d="M168 -436v272h274v-272h-274zM123 842h-105v231h105l18 289h269v-289h172v-231h-172v-451q-2 -92 24 -124t96 -29h45v-238h-77q-127 0 -196 15t-113 63t-56 126q-12 77 -10 216v422z" />
    <glyph glyph-name="Wgrave" unicode="&#x1e80;" horiz-adv-x="1531" 
d="M911 1589h-213l-239 322h311zM291 0l-273 1462h304l122 -954l203 954h238l202 -954l125 954h301l-272 -1462h-274l-201 901l-201 -901h-274z" />
    <glyph glyph-name="wgrave" unicode="&#x1e81;" horiz-adv-x="1257" 
d="M774 1186h-213l-239 321h311zM242 0l-226 1073h291l82 -641l137 641h205l137 -641l82 641h291l-225 -1073h-252l-135 592l-135 -592h-252z" />
    <glyph glyph-name="Wacute" unicode="&#x1e82;" horiz-adv-x="1531" 
d="M621 1589l141 322h311l-239 -322h-213zM291 0l-273 1462h304l122 -954l203 954h238l202 -954l125 954h301l-272 -1462h-274l-201 901l-201 -901h-274z" />
    <glyph glyph-name="wacute" unicode="&#x1e83;" horiz-adv-x="1257" 
d="M483 1186l142 321h311l-240 -321h-213zM242 0l-226 1073h291l82 -641l137 641h205l137 -641l82 641h291l-225 -1073h-252l-135 592l-135 -592h-252z" />
    <glyph glyph-name="Wdieresis" unicode="&#x1e84;" horiz-adv-x="1531" 
d="M819 1595v269h254v-269h-254zM459 1595v269h254v-269h-254zM291 0l-273 1462h304l122 -954l203 954h238l202 -954l125 954h301l-272 -1462h-274l-201 901l-201 -901h-274z" />
    <glyph glyph-name="wdieresis" unicode="&#x1e85;" horiz-adv-x="1257" 
d="M678 1192v270h254v-270h-254zM328 1192v270h254v-270h-254zM242 0l-226 1073h291l82 -641l137 641h205l137 -641l82 641h291l-225 -1073h-252l-135 592l-135 -592h-252z" />
    <glyph glyph-name="uni1E92" unicode="&#x1e92;" horiz-adv-x="839" 
d="M297 -436v272h274v-272h-274zM10 0v160l461 1054h-412v248h742v-159l-461 -1055h481v-248h-811z" />
    <glyph glyph-name="uni1E93" unicode="&#x1e93;" horiz-adv-x="702" 
d="M227 -436v272h275v-272h-275zM4 0v168l346 670h-305v235h635v-168l-346 -669h368v-236h-698z" />
    <glyph glyph-name="uni1EA0" unicode="&#x1ea0;" horiz-adv-x="1005" 
d="M367 -436v272h274v-272h-274zM625 518l-119 541l-117 -541h236zM676 279h-340l-60 -279h-327l430 1462h254l430 -1462h-326z" />
    <glyph glyph-name="uni1EA1" unicode="&#x1ea1;" horiz-adv-x="884" 
d="M305 -436v272h275v-272h-275zM520 459h-47q-80 0 -112 -31q-31 -31 -31 -104q0 -74 20 -98t74 -24t75 30q22 30 21 106v121zM520 651v19q0 110 -19 150t-69 40t-72 -24q-20 -25 -20 -82h-266q6 156 57 223q88 119 294 119t294 -106t88 -343v-647h-223l-17 59
q-73 -82 -225 -82t-226 79t-73 263q0 185 75 259t267 73h135z" />
    <glyph glyph-name="uni1EA2" unicode="&#x1ea2;" horiz-adv-x="1005" 
d="M456 1868q-36 0 -126 -39l-54 184q137 43 239 43t162 -53t60 -150q0 -47 -14 -73t-74 -86q-35 -39 -37 -127h-200q2 111 11 145t39 72q30 36 30 53q0 31 -36 31zM625 518l-119 541l-117 -541h236zM676 279h-340l-60 -279h-327l430 1462h254l430 -1462h-326z" />
    <glyph glyph-name="uni1EA3" unicode="&#x1ea3;" horiz-adv-x="884" 
d="M553 1180h-201q0 110 9 144t53 87q18 25 18 39q0 31 -39 31t-123 -41l-55 184q137 45 240 45t163 -53t60 -152q0 -48 -15 -74t-73 -83q-23 -25 -30 -49t-7 -78zM520 459h-47q-80 0 -112 -31q-31 -31 -31 -104q0 -74 20 -98t74 -24t75 30q22 30 21 106v121zM520 651v19
q0 110 -19 150t-69 40t-72 -24q-20 -25 -20 -82h-266q6 156 57 223q88 119 294 119t294 -106t88 -343v-647h-223l-17 59q-73 -82 -225 -82t-226 79t-73 263q0 185 75 259t267 73h135z" />
    <glyph glyph-name="uni1EA4" unicode="&#x1ea4;" horiz-adv-x="1005" 
d="M504 1667l-70 -108h-239l208 258h199l209 -258h-240zM422 1872l98 242h207l-156 -242h-149zM625 518l-119 541l-117 -541h236zM676 279h-340l-60 -279h-327l430 1462h254l430 -1462h-326z" />
    <glyph glyph-name="uni1EA5" unicode="&#x1ea5;" horiz-adv-x="884" 
d="M442 1264l-67 -109h-240l209 258h197l209 -258h-238zM360 1468l99 242h209l-158 -242h-150zM520 459h-47q-80 0 -112 -31q-31 -31 -31 -104q0 -74 20 -98t74 -24t75 30q22 30 21 106v121zM520 651v19q0 110 -19 150t-69 40t-72 -24q-20 -25 -20 -82h-266q6 156 57 223
q88 119 294 119t294 -106t88 -343v-647h-223l-17 59q-73 -82 -225 -82t-226 79t-73 263q0 185 75 259t267 73h135z" />
    <glyph glyph-name="uni1EA6" unicode="&#x1ea6;" horiz-adv-x="1005" 
d="M504 1667l-70 -108h-239l208 258h199l209 -258h-240zM578 1872h-148l-158 242h209zM625 518l-119 541l-117 -541h236zM676 279h-340l-60 -279h-327l430 1462h254l430 -1462h-326z" />
    <glyph glyph-name="uni1EA7" unicode="&#x1ea7;" horiz-adv-x="884" 
d="M442 1264l-69 -109h-238l209 258h197l209 -258h-240zM518 1468h-149l-156 242h207zM520 459h-47q-80 0 -112 -31q-31 -31 -31 -104q0 -74 20 -98t74 -24t75 30q22 30 21 106v121zM520 651v19q0 110 -19 150t-69 40t-72 -24q-20 -25 -20 -82h-266q6 156 57 223
q88 119 294 119t294 -106t88 -343v-647h-223l-17 59q-73 -82 -225 -82t-226 79t-73 263q0 185 75 259t267 73h135z" />
    <glyph glyph-name="uni1EA8" unicode="&#x1ea8;" horiz-adv-x="1005" 
d="M504 1659l-70 -100h-237l209 233h196l209 -233h-240zM444 2011q-18 0 -65 -29l-37 123q66 33 142 33t117 -38q42 -38 42 -93t-33 -88l-22 -27q-12 -20 -13 -41l-2 -28h-157q2 66 5 84t19 43q20 25 20 43q2 18 -16 18zM625 518l-119 541l-117 -541h236zM676 279h-340
l-60 -279h-327l430 1462h254l430 -1462h-326z" />
    <glyph glyph-name="uni1EA9" unicode="&#x1ea9;" horiz-adv-x="884" 
d="M442 1255l-67 -100h-240l209 234h197l211 -234h-240zM356 1419q0 66 3 85t21 45t19 43q0 17 -14 18q-18 0 -68 -31l-36 123q73 35 145 35t114 -38q42 -39 42 -95t-28 -84t-32 -37q-4 -8 -6 -33t-4 -31h-156zM520 459h-47q-80 0 -112 -31q-31 -31 -31 -104q0 -74 20 -98
t74 -24t75 30q22 30 21 106v121zM520 651v19q0 110 -19 150t-69 40t-72 -24q-20 -25 -20 -82h-266q6 156 57 223q88 119 294 119t294 -106t88 -343v-647h-223l-17 59q-73 -82 -225 -82t-226 79t-73 263q0 185 75 259t267 73h135z" />
    <glyph glyph-name="uni1EAA" unicode="&#x1eaa;" horiz-adv-x="1005" 
d="M502 1667l-68 -108h-239l208 258h197l211 -258h-240zM580 2017q31 0 34 88h134q-4 -131 -43 -190t-116 -59t-118 48q-41 50 -53 50t-26 -26t-17 -60h-133q28 250 166 250q70 0 114 -50q45 -50 58 -51zM625 518l-119 541l-117 -541h236zM676 279h-340l-60 -279h-327
l430 1462h254l430 -1462h-326z" />
    <glyph glyph-name="uni1EAB" unicode="&#x1eab;" horiz-adv-x="884" 
d="M440 1264l-67 -109h-240l209 258h199l209 -258h-240zM688 1702q-8 -252 -160 -252q-76 0 -122 55q-34 45 -48 45t-28 -26t-17 -62h-133q27 252 166 252q68 0 114 -50t58 -50q31 0 35 88h135zM520 459h-47q-80 0 -112 -31q-31 -31 -31 -104q0 -74 20 -98t74 -24t75 30
q22 30 21 106v121zM520 651v19q0 110 -19 150t-69 40t-72 -24q-20 -25 -20 -82h-266q6 156 57 223q88 119 294 119t294 -106t88 -343v-647h-223l-17 59q-73 -82 -225 -82t-226 79t-73 263q0 185 75 259t267 73h135z" />
    <glyph glyph-name="uni1EAC" unicode="&#x1eac;" horiz-adv-x="1005" 
d="M367 -436v272h274v-272h-274zM502 1751l-74 -158h-260l227 316h215l228 -316h-258zM625 518l-119 541l-117 -541h236zM676 279h-340l-60 -279h-327l430 1462h254l430 -1462h-326z" />
    <glyph glyph-name="uni1EAD" unicode="&#x1ead;" horiz-adv-x="884" 
d="M305 -436v272h275v-272h-275zM459 1348l-76 -158h-260l229 315h213l230 -315h-260zM520 459h-47q-80 0 -112 -31q-31 -31 -31 -104q0 -74 20 -98t74 -24t75 30q22 30 21 106v121zM520 651v19q0 110 -19 150t-69 40t-72 -24q-20 -25 -20 -82h-266q6 156 57 223
q88 119 294 119t294 -106t88 -343v-647h-223l-17 59q-73 -82 -225 -82t-226 79t-73 263q0 185 75 259t267 73h135z" />
    <glyph glyph-name="uni1EAE" unicode="&#x1eae;" horiz-adv-x="1005" 
d="M496 1546q-196 0 -256 142q-21 51 -23 172h158q8 -70 36 -95q27 -25 93 -25t92 26q26 24 35 94h160q-4 -139 -33 -193q-66 -121 -262 -121zM422 1872l98 242h207l-156 -242h-149zM625 518l-119 541l-117 -541h236zM676 279h-340l-60 -279h-327l430 1462h254l430 -1462
h-326z" />
    <glyph glyph-name="uni1EAF" unicode="&#x1eaf;" horiz-adv-x="884" 
d="M442 1337q63 0 92 25q28 25 37 94h158q-4 -138 -36 -198t-91 -88q-58 -28 -162 -28q-200 1 -254 127q-24 58 -30 187h157q10 -70 38 -94t91 -25zM362 1468l97 242h209l-158 -242h-148zM520 459h-47q-80 0 -112 -31q-31 -31 -31 -104q0 -74 20 -98t74 -24t75 30
q22 30 21 106v121zM520 651v19q0 110 -19 150t-69 40t-72 -24q-20 -25 -20 -82h-266q6 156 57 223q88 119 294 119t294 -106t88 -343v-647h-223l-17 59q-73 -82 -225 -82t-226 79t-73 263q0 185 75 259t267 73h135z" />
    <glyph glyph-name="uni1EB0" unicode="&#x1eb0;" horiz-adv-x="1005" 
d="M496 1546q-196 0 -256 142q-21 51 -23 172h158q8 -70 36 -95q27 -25 93 -25t92 26q26 24 35 94h160q-4 -139 -33 -193q-66 -121 -262 -121zM596 1872h-150l-155 242h207zM625 518l-119 541l-117 -541h236zM676 279h-340l-60 -279h-327l430 1462h254l430 -1462h-326z" />
    <glyph glyph-name="uni1EB1" unicode="&#x1eb1;" horiz-adv-x="884" 
d="M442 1337q63 0 92 25q28 25 37 94h158q-4 -138 -36 -198t-91 -88q-58 -28 -162 -28q-200 1 -254 127q-24 58 -30 187h157q10 -70 38 -94t91 -25zM535 1468h-148l-158 242h207zM520 459h-47q-80 0 -112 -31q-31 -31 -31 -104q0 -74 20 -98t74 -24t75 30q22 30 21 106v121z
M520 651v19q0 110 -19 150t-69 40t-72 -24q-20 -25 -20 -82h-266q6 156 57 223q88 119 294 119t294 -106t88 -343v-647h-223l-17 59q-73 -82 -225 -82t-226 79t-73 263q0 185 75 259t267 73h135z" />
    <glyph glyph-name="uni1EB2" unicode="&#x1eb2;" horiz-adv-x="1005" 
d="M496 1546q-196 0 -256 142q-21 51 -23 172h154q10 -72 38 -99q29 -27 95 -27t94 28q28 26 37 98h156q-4 -139 -33 -193q-66 -121 -262 -121zM420 1819q0 66 4 85t22 46t18 45t-13 18q-20 0 -70 -28l-37 120q74 35 148 35t114 -39t41 -94q0 -55 -29 -85q-30 -30 -34 -43
t-6 -60h-158zM625 518l-119 541l-117 -541h236zM676 279h-340l-60 -279h-327l430 1462h254l430 -1462h-326z" />
    <glyph glyph-name="uni1EB3" unicode="&#x1eb3;" horiz-adv-x="884" 
d="M442 1331q66 0 95 27t36 98h156q-4 -138 -36 -198t-91 -88q-58 -28 -162 -28q-200 1 -254 127q-24 58 -30 187h155q8 -72 37 -98q28 -26 94 -27zM403 1591q0 18 -14 19q-18 0 -67 -31l-39 123q77 35 149 35t113 -39q41 -40 41 -96t-33 -86q-25 -28 -29 -40t-8 -61h-158
q2 68 6 86q3 18 21 45t18 45zM520 459h-47q-80 0 -112 -31q-31 -31 -31 -104q0 -74 20 -98t74 -24t75 30q22 30 21 106v121zM520 651v19q0 110 -19 150t-69 40t-72 -24q-20 -25 -20 -82h-266q6 156 57 223q88 119 294 119t294 -106t88 -343v-647h-223l-17 59
q-73 -82 -225 -82t-226 79t-73 263q0 185 75 259t267 73h135z" />
    <glyph glyph-name="uni1EB4" unicode="&#x1eb4;" horiz-adv-x="1005" 
d="M217 1829h150q9 -57 35 -79t90 -22t90 22q27 22 34 79h150q-4 -125 -31 -172q-63 -107 -251 -107t-244 125q-19 41 -23 154zM416 2138q59 0 106 -50t60 -50q31 0 34 88h134q-4 -132 -43 -192t-116 -60t-117 50t-53 50t-27 -26t-17 -62h-133q20 252 172 252zM625 518
l-119 541l-117 -541h236zM676 279h-340l-60 -279h-327l430 1462h254l430 -1462h-326z" />
    <glyph glyph-name="uni1EB5" unicode="&#x1eb5;" horiz-adv-x="884" 
d="M432 1325q64 0 90 22t35 78h150q-4 -121 -33 -172q-63 -106 -251 -106t-243 125q-20 38 -24 153h149q8 -57 35 -79q28 -22 92 -21zM356 1735q60 0 106 -50t58 -51q31 0 35 88h135q-6 -133 -45 -192q-39 -60 -116 -60t-117 50t-52 51q-14 -1 -28 -27t-17 -61h-133
q25 252 174 252zM520 459h-47q-80 0 -112 -31q-31 -31 -31 -104q0 -74 20 -98t74 -24t75 30q22 30 21 106v121zM520 651v19q0 110 -19 150t-69 40t-72 -24q-20 -25 -20 -82h-266q6 156 57 223q88 119 294 119t294 -106t88 -343v-647h-223l-17 59q-73 -82 -225 -82t-226 79
t-73 263q0 185 75 259t267 73h135z" />
    <glyph glyph-name="uni1EB6" unicode="&#x1eb6;" horiz-adv-x="1005" 
d="M367 -436v272h274v-272h-274zM190 1905h172q10 -78 40 -106q30 -27 101 -27t101 28t39 105h170q-4 -149 -39 -213q-69 -124 -281 -124q-212 1 -276 152q-21 46 -27 185zM625 518l-119 541l-117 -541h236zM676 279h-340l-60 -279h-327l430 1462h254l430 -1462h-326z" />
    <glyph glyph-name="uni1EB7" unicode="&#x1eb7;" horiz-adv-x="884" 
d="M305 -436v272h275v-272h-275zM458 1368q70 0 100 28t40 105h172q-4 -98 -11 -135t-26 -72q-39 -70 -102 -100t-172 -29q-223 0 -287 152q-21 45 -27 184h172q10 -77 40 -105t101 -28zM520 459h-47q-80 0 -112 -31q-31 -31 -31 -104q0 -74 20 -98t74 -24t75 30
q22 30 21 106v121zM520 651v19q0 110 -19 150t-69 40t-72 -24q-20 -25 -20 -82h-266q6 156 57 223q88 119 294 119t294 -106t88 -343v-647h-223l-17 59q-73 -82 -225 -82t-226 79t-73 263q0 185 75 259t267 73h135z" />
    <glyph glyph-name="uni1EB8" unicode="&#x1eb8;" horiz-adv-x="915" 
d="M369 -436v272h274v-272h-274zM111 0v1462h745v-248h-442v-354h372v-248h-372v-364h454v-248h-757z" />
    <glyph glyph-name="uni1EB9" unicode="&#x1eb9;" horiz-adv-x="915" 
d="M322 -436v272h274v-272h-274zM362 668h211v26q0 102 -23 140q-24 36 -85 36t-82 -36q-20 -37 -21 -140v-26zM465 213q96 0 98 115h266q-6 -162 -57 -230q-86 -121 -302 -121t-305 114t-89 374v137q0 266 89 380t296 114t297 -114t90 -380v-141h-486v-60q0 -109 22 -149
t81 -39z" />
    <glyph glyph-name="uni1EBA" unicode="&#x1eba;" horiz-adv-x="915" 
d="M471 1837q0 31 -37 31t-125 -39l-53 184q136 43 238 43t162 -53t61 -150q-1 -47 -15 -73t-73 -86q-23 -26 -29 -48t-8 -79h-201q2 111 11 145t39 72q30 36 30 53zM111 0v1462h745v-248h-442v-354h372v-248h-372v-364h454v-248h-757z" />
    <glyph glyph-name="uni1EBB" unicode="&#x1ebb;" horiz-adv-x="915" 
d="M446 1450q0 31 -36 31t-125 -41l-54 184q137 45 239 45t162 -53t60 -152q0 -48 -14 -74t-74 -83q-35 -39 -37 -127h-200q2 110 11 144q8 34 38 73t30 53zM362 668h211v26q0 102 -23 140q-24 36 -85 36t-82 -36q-20 -37 -21 -140v-26zM465 213q96 0 98 115h266
q-6 -162 -57 -230q-86 -121 -302 -121t-305 114t-89 374v137q0 266 89 380t296 114t297 -114t90 -380v-141h-486v-60q0 -109 22 -149t81 -39z" />
    <glyph glyph-name="uni1EBC" unicode="&#x1ebc;" horiz-adv-x="915" 
d="M374 1909q88 1 143 -61q56 -62 71 -62q41 0 47 108h168q-9 -164 -57 -238t-146 -73q-98 -1 -146 61t-67 62q-49 0 -55 -109h-168q31 312 210 312zM111 0v1462h745v-248h-442v-354h372v-248h-372v-364h454v-248h-757z" />
    <glyph glyph-name="uni1EBD" unicode="&#x1ebd;" horiz-adv-x="915" 
d="M307 1194h-168q31 314 210 312q87 0 143 -62q56 -61 71 -62q41 0 47 109h168q-8 -164 -56 -238q-48 -73 -146 -73t-147 61q-48 61 -67 62q-49 0 -55 -109zM362 668h211v26q0 102 -23 140q-24 36 -85 36t-82 -36q-20 -37 -21 -140v-26zM465 213q96 0 98 115h266
q-6 -162 -57 -230q-86 -121 -302 -121t-305 114t-89 374v137q0 266 89 380t296 114t297 -114t90 -380v-141h-486v-60q0 -109 22 -149t81 -39z" />
    <glyph glyph-name="uni1EBE" unicode="&#x1ebe;" horiz-adv-x="915" 
d="M481 1667l-67 -108h-240l209 258h199l209 -258h-240zM401 1872l99 242h207l-156 -242h-150zM111 0v1462h745v-248h-442v-354h372v-248h-372v-364h454v-248h-757z" />
    <glyph glyph-name="uni1EBF" unicode="&#x1ebf;" horiz-adv-x="915" 
d="M457 1264l-68 -109h-239l208 258h199l209 -258h-240zM377 1468l98 242h207l-156 -242h-149zM362 668h211v26q0 102 -23 140q-24 36 -85 36t-82 -36q-20 -37 -21 -140v-26zM465 213q96 0 98 115h266q-6 -162 -57 -230q-86 -121 -302 -121t-305 114t-89 374v137
q0 266 89 380t296 114t297 -114t90 -380v-141h-486v-60q0 -109 22 -149t81 -39z" />
    <glyph glyph-name="uni1EC0" unicode="&#x1ec0;" horiz-adv-x="915" 
d="M483 1667l-69 -108h-240l209 258h199l209 -258h-240zM557 1872h-147l-158 242h209zM111 0v1462h745v-248h-442v-354h372v-248h-372v-364h454v-248h-757z" />
    <glyph glyph-name="uni1EC1" unicode="&#x1ec1;" horiz-adv-x="915" 
d="M459 1264l-70 -109h-239l208 258h199l209 -258h-240zM532 1468h-147l-158 242h209zM362 668h211v26q0 102 -23 140q-24 36 -85 36t-82 -36q-20 -37 -21 -140v-26zM465 213q96 0 98 115h266q-6 -162 -57 -230q-86 -121 -302 -121t-305 114t-89 374v137q0 266 89 380
t296 114t297 -114t90 -380v-141h-486v-60q0 -109 22 -149t81 -39z" />
    <glyph glyph-name="uni1EC2" unicode="&#x1ec2;" horiz-adv-x="915" 
d="M483 1659l-69 -100h-240l209 233h199l209 -233h-240zM440 1993q0 18 -14 18q-20 0 -68 -29l-39 123q68 33 144 33t118 -38t42 -93t-33 -88q-23 -27 -25 -27q-10 -16 -10 -41l-2 -28h-158q2 70 5 86t20 41q20 25 20 43zM111 0v1462h745v-248h-442v-354h372v-248h-372v-364
h454v-248h-757z" />
    <glyph glyph-name="uni1EC3" unicode="&#x1ec3;" horiz-adv-x="915" 
d="M459 1255l-70 -100h-239l208 234h199l209 -234h-240zM442 1737q72 0 114 -38q42 -39 42 -95t-33 -88q-20 -23 -27 -33t-8 -35l-2 -29h-157q2 70 5 87t21 43q19 26 19 43t-15 18q-18 0 -67 -31l-39 123q75 35 147 35zM362 668h211v26q0 102 -23 140q-24 36 -85 36t-82 -36
q-20 -37 -21 -140v-26zM465 213q96 0 98 115h266q-6 -162 -57 -230q-86 -121 -302 -121t-305 114t-89 374v137q0 266 89 380t296 114t297 -114t90 -380v-141h-486v-60q0 -109 22 -149t81 -39z" />
    <glyph glyph-name="uni1EC4" unicode="&#x1ec4;" horiz-adv-x="915" 
d="M481 1667l-67 -108h-240l209 258h197l211 -258h-240zM557 2017q31 0 37 88h133q-4 -131 -43 -190t-116 -59t-118 48q-41 50 -53 50q-11 0 -25 -26t-18 -60h-133q27 250 165 250q70 0 116 -50t55 -51zM111 0v1462h745v-248h-442v-354h372v-248h-372v-364h454v-248h-757z
" />
    <glyph glyph-name="uni1EC5" unicode="&#x1ec5;" horiz-adv-x="915" 
d="M457 1264l-68 -109h-239l208 258h197l211 -258h-240zM532 1614q31 0 37 88h133q-8 -252 -163 -252q-72 0 -112 50t-53 50q-12 0 -26 -26t-18 -62h-133q27 252 165 252q70 0 114 -50t56 -50zM362 668h211v26q0 102 -23 140q-24 36 -85 36t-82 -36q-20 -37 -21 -140v-26z
M465 213q96 0 98 115h266q-6 -162 -57 -230q-86 -121 -302 -121t-305 114t-89 374v137q0 266 89 380t296 114t297 -114t90 -380v-141h-486v-60q0 -109 22 -149t81 -39z" />
    <glyph glyph-name="uni1EC6" unicode="&#x1ec6;" horiz-adv-x="915" 
d="M322 -436v272h274v-272h-274zM471 1751l-76 -158h-260l230 316h213l229 -316h-260zM111 0v1462h745v-248h-442v-354h372v-248h-372v-364h454v-248h-757z" />
    <glyph glyph-name="uni1EC7" unicode="&#x1ec7;" horiz-adv-x="915" 
d="M322 -436v272h274v-272h-274zM473 1348l-76 -158h-258l228 315h213l229 -315h-258zM362 668h211v26q0 102 -23 140q-24 36 -85 36t-82 -36q-20 -37 -21 -140v-26zM465 213q96 0 98 115h266q-6 -162 -57 -230q-86 -121 -302 -121t-305 114t-89 374v137q0 266 89 380
t296 114t297 -114t90 -380v-141h-486v-60q0 -109 22 -149t81 -39z" />
    <glyph glyph-name="uni1EC8" unicode="&#x1ec8;" horiz-adv-x="520" 
d="M371 1567h-201q0 111 9 145t39 72q30 36 32 53q0 31 -39 31t-125 -39l-53 184q137 43 239 43t163 -53q60 -53 61 -150q0 -47 -16 -75t-74 -84q-23 -28 -29 -50t-6 -77zM109 0v1462h303v-1462h-303z" />
    <glyph glyph-name="uni1EC9" unicode="&#x1ec9;" horiz-adv-x="462" 
d="M342 1180h-201q-1 110 9 144t40 73t31 53q0 31 -39 31t-125 -41l-53 184q137 45 240 45t163 -53t60 -152q0 -48 -15 -74t-75 -83q-35 -39 -35 -127zM88 0v1073h287v-1073h-287z" />
    <glyph glyph-name="uni1ECA" unicode="&#x1eca;" horiz-adv-x="520" 
d="M123 -436v272h274v-272h-274zM109 0v1462h303v-1462h-303z" />
    <glyph glyph-name="uni1ECB" unicode="&#x1ecb;" horiz-adv-x="462" 
d="M94 -436v272h275v-272h-275zM88 0v1073h287v-1073h-287zM88 1192v283h287v-283h-287z" />
    <glyph glyph-name="uni1ECC" unicode="&#x1ecc;" horiz-adv-x="1062" 
d="M395 -436v272h275v-272h-275zM676 502v459q0 170 -29 225t-116 55t-115 -55t-29 -225v-459q0 -170 29 -226q30 -56 116 -55q86 -1 115 55t29 226zM84 477v508q0 246 80 356q102 143 368 144q150 0 240 -40t143 -128q63 -111 64 -332v-508q0 -246 -80 -356
q-102 -143 -367 -144q-150 0 -240 40t-145 128q-63 111 -63 332z" />
    <glyph glyph-name="uni1ECD" unicode="&#x1ecd;" horiz-adv-x="921" 
d="M324 -436v272h274v-272h-274zM559 403v267q0 110 -20 150q-19 40 -77 40t-78 -40t-22 -150v-267q0 -111 20 -151t78 -39q58 -1 78 39t21 151zM76 426v223q0 240 89 343q89 104 296 104t296 -104t89 -343v-223q0 -242 -89 -345t-296 -103t-296 102q-89 104 -89 346z" />
    <glyph glyph-name="uni1ECE" unicode="&#x1ece;" horiz-adv-x="1062" 
d="M520 1837q0 31 -37 31t-125 -39l-53 184q137 43 239 43t162 -53t60 -150q0 -47 -14 -73t-74 -86q-23 -26 -29 -48t-8 -79h-201q2 111 12 145t38 72q30 36 30 53zM676 502v459q0 170 -29 225t-116 55t-115 -55t-29 -225v-459q0 -170 29 -226q30 -56 116 -55q86 -1 115 55
t29 226zM84 477v508q0 246 80 356q102 143 368 144q150 0 240 -40t143 -128q63 -111 64 -332v-508q0 -246 -80 -356q-102 -143 -367 -144q-150 0 -240 40t-145 128q-63 111 -63 332z" />
    <glyph glyph-name="uni1ECF" unicode="&#x1ecf;" horiz-adv-x="921" 
d="M571 1180h-200q0 110 9 144q10 34 40 73t31 53q0 31 -39 31t-123 -41l-56 184q137 45 240 45t163 -53t60 -152q0 -48 -15 -74t-73 -83q-23 -25 -30 -49t-7 -78zM559 403v267q0 110 -20 150q-19 40 -77 40t-78 -40t-22 -150v-267q0 -111 20 -151t78 -39q58 -1 78 39
t21 151zM76 426v223q0 240 89 343q89 104 296 104t296 -104t89 -343v-223q0 -242 -89 -345t-296 -103t-296 102q-89 104 -89 346z" />
    <glyph glyph-name="uni1ED0" unicode="&#x1ed0;" horiz-adv-x="1062" 
d="M530 1667l-67 -108h-240l209 258h199l209 -258h-240zM451 1872l98 242h207l-156 -242h-149zM676 502v459q0 170 -29 225t-116 55t-115 -55t-29 -225v-459q0 -170 29 -226q30 -56 116 -55q86 -1 115 55t29 226zM84 477v508q0 246 80 356q102 143 368 144q150 0 240 -40
t143 -128q63 -111 64 -332v-508q0 -246 -80 -356q-102 -143 -367 -144q-150 0 -240 40t-145 128q-63 111 -63 332z" />
    <glyph glyph-name="uni1ED1" unicode="&#x1ed1;" horiz-adv-x="921" 
d="M461 1264l-68 -109h-239l208 258h197l209 -258h-238zM379 1468l98 242h209l-158 -242h-149zM559 403v267q0 110 -20 150q-19 40 -77 40t-78 -40t-22 -150v-267q0 -111 20 -151t78 -39q58 -1 78 39t21 151zM76 426v223q0 240 89 343q89 104 296 104t296 -104t89 -343v-223
q0 -242 -89 -345t-296 -103t-296 102q-89 104 -89 346z" />
    <glyph glyph-name="uni1ED2" unicode="&#x1ed2;" horiz-adv-x="1062" 
d="M532 1667l-69 -108h-240l209 258h199l209 -258h-240zM606 1872h-147l-158 242h209zM676 502v459q0 170 -29 225t-116 55t-115 -55t-29 -225v-459q0 -170 29 -226q30 -56 116 -55q86 -1 115 55t29 226zM84 477v508q0 246 80 356q102 143 368 144q150 0 240 -40t143 -128
q63 -111 64 -332v-508q0 -246 -80 -356q-102 -143 -367 -144q-150 0 -240 40t-145 128q-63 111 -63 332z" />
    <glyph glyph-name="uni1ED3" unicode="&#x1ed3;" horiz-adv-x="921" 
d="M461 1264l-70 -109h-237l208 258h197l209 -258h-240zM537 1468h-150l-156 242h207zM559 403v267q0 110 -20 150q-19 40 -77 40t-78 -40t-22 -150v-267q0 -111 20 -151t78 -39q58 -1 78 39t21 151zM76 426v223q0 240 89 343q89 104 296 104t296 -104t89 -343v-223
q0 -242 -89 -345t-296 -103t-296 102q-89 104 -89 346z" />
    <glyph glyph-name="uni1ED4" unicode="&#x1ed4;" horiz-adv-x="1062" 
d="M532 1659l-69 -100h-240l209 233h199l209 -233h-240zM489 1993q0 18 -14 18q-20 0 -67 -29l-39 123q67 33 143 33t118 -38t42 -93t-33 -88q-23 -27 -25 -27q-10 -16 -10 -41l-2 -28h-158q2 70 6 86q3 16 19 41q20 25 20 43zM676 502v459q0 170 -29 225t-116 55t-115 -55
t-29 -225v-459q0 -170 29 -226q30 -56 116 -55q86 -1 115 55t29 226zM84 477v508q0 246 80 356q102 143 368 144q150 0 240 -40t143 -128q63 -111 64 -332v-508q0 -246 -80 -356q-102 -143 -367 -144q-150 0 -240 40t-145 128q-63 111 -63 332z" />
    <glyph glyph-name="uni1ED5" unicode="&#x1ed5;" horiz-adv-x="921" 
d="M461 1255l-68 -100h-239l208 234h197l211 -234h-240zM375 1419q0 66 3 85t21 45q19 26 19 43t-15 18q-18 0 -67 -31l-37 123q73 35 145 35t114 -38q42 -39 42 -95t-28 -84t-32 -37q-4 -8 -8 -35q0 -23 -2 -29h-155zM559 403v267q0 110 -20 150q-19 40 -77 40t-78 -40
t-22 -150v-267q0 -111 20 -151t78 -39q58 -1 78 39t21 151zM76 426v223q0 240 89 343q89 104 296 104t296 -104t89 -343v-223q0 -242 -89 -345t-296 -103t-296 102q-89 104 -89 346z" />
    <glyph glyph-name="uni1ED6" unicode="&#x1ed6;" horiz-adv-x="1062" 
d="M530 1667l-67 -108h-240l209 258h197l211 -258h-240zM606 2017q31 0 37 88h133q-4 -131 -43 -190t-116 -59t-117 48q-40 50 -52 50q-13 0 -27 -26t-18 -60h-133q27 248 166 250q68 0 114 -50t56 -51zM676 502v459q0 170 -29 225t-116 55t-115 -55t-29 -225v-459
q0 -170 29 -226q30 -56 116 -55q86 -1 115 55t29 226zM84 477v508q0 246 80 356q102 143 368 144q150 0 240 -40t143 -128q63 -111 64 -332v-508q0 -246 -80 -356q-102 -143 -367 -144q-150 0 -240 40t-145 128q-63 111 -63 332z" />
    <glyph glyph-name="uni1ED7" unicode="&#x1ed7;" horiz-adv-x="921" 
d="M459 1264l-68 -109h-239l208 258h199l209 -258h-240zM707 1702q-8 -252 -160 -252q-76 0 -123 55q-33 45 -47 45t-29 -26q-14 -27 -16 -62h-133q27 252 165 252q70 0 115 -50t58 -50q31 0 34 88h136zM559 403v267q0 110 -20 150q-19 40 -77 40t-78 -40t-22 -150v-267
q0 -111 20 -151t78 -39q58 -1 78 39t21 151zM76 426v223q0 240 89 343q89 104 296 104t296 -104t89 -343v-223q0 -242 -89 -345t-296 -103t-296 102q-89 104 -89 346z" />
    <glyph glyph-name="uni1ED8" unicode="&#x1ed8;" horiz-adv-x="1062" 
d="M395 -436v272h275v-272h-275zM530 1751l-75 -158h-258l227 316h213l229 -316h-258zM676 502v459q0 170 -29 225t-116 55t-115 -55t-29 -225v-459q0 -170 29 -226q30 -56 116 -55q86 -1 115 55t29 226zM84 477v508q0 246 80 356q102 143 368 144q150 0 240 -40t143 -128
q63 -111 64 -332v-508q0 -246 -80 -356q-102 -143 -367 -144q-150 0 -240 40t-145 128q-63 111 -63 332z" />
    <glyph glyph-name="uni1ED9" unicode="&#x1ed9;" horiz-adv-x="921" 
d="M324 -436v272h274v-272h-274zM461 1348l-76 -158h-260l229 315h213l230 -315h-260zM559 403v267q0 110 -20 150q-19 40 -77 40t-78 -40t-22 -150v-267q0 -111 20 -151t78 -39q58 -1 78 39t21 151zM76 426v223q0 240 89 343q89 104 296 104t296 -104t89 -343v-223
q0 -242 -89 -345t-296 -103t-296 102q-89 104 -89 346z" />
    <glyph glyph-name="uni1EDA" unicode="&#x1eda;" horiz-adv-x="1146" 
d="M424 1589l141 322h312l-240 -322h-213zM676 502v459q0 170 -29 225t-116 55t-115 -55t-29 -225v-459q0 -170 29 -226q30 -56 116 -55q86 -1 115 55t29 226zM979 477q0 -246 -80 -356q-102 -143 -367 -144q-150 0 -240 40t-145 128q-63 111 -63 332v508q0 248 80 356
q53 76 140 110t255 34t268 -69t136 -226q41 49 41 137t-43 160h239q18 -49 18 -141t-50 -164t-189 -166v-539z" />
    <glyph glyph-name="uni1EDB" unicode="&#x1edb;" horiz-adv-x="1028" 
d="M352 1186l142 321h311l-242 -321h-211zM559 403v267q0 112 -20 152q-19 40 -77 40t-78 -40t-22 -152v-267q0 -111 20 -151t78 -39q58 -1 78 39t21 151zM1081 965q0 -197 -237 -344l2 -21v-174q0 -242 -89 -345t-296 -103t-296 102q-89 104 -89 346v223q0 240 89 343
q89 104 279 104t277 -70q88 -70 115 -225q60 147 -13 282h238q20 -68 20 -118z" />
    <glyph glyph-name="uni1EDC" unicode="&#x1edc;" horiz-adv-x="1146" 
d="M721 1589h-213l-240 322h312zM676 502v459q0 170 -29 225t-116 55t-115 -55t-29 -225v-459q0 -170 29 -226q30 -56 116 -55q86 -1 115 55t29 226zM979 477q0 -246 -80 -356q-102 -143 -367 -144q-150 0 -240 40t-145 128q-63 111 -63 332v508q0 248 80 356q53 76 140 110
t255 34t268 -69t136 -226q41 49 41 137t-43 160h239q18 -49 18 -141t-50 -164t-189 -166v-539z" />
    <glyph glyph-name="uni1EDD" unicode="&#x1edd;" horiz-adv-x="1028" 
d="M647 1186h-211l-241 321h311zM559 403v267q0 112 -20 152q-19 40 -77 40t-78 -40t-22 -152v-267q0 -111 20 -151t78 -39q58 -1 78 39t21 151zM1081 965q0 -197 -237 -344l2 -21v-174q0 -242 -89 -345t-296 -103t-296 102q-89 104 -89 346v223q0 240 89 343
q89 104 279 104t277 -70q88 -70 115 -225q60 147 -13 282h238q20 -68 20 -118z" />
    <glyph glyph-name="uni1EDE" unicode="&#x1ede;" horiz-adv-x="1146" 
d="M504 1868q-37 0 -125 -39l-55 184q138 43 240 43t162 -53t60 -150q0 -47 -14 -73t-74 -86q-22 -26 -28 -48t-8 -79h-201q2 113 10 147q9 34 39 70t31 53q0 31 -37 31zM676 502v459q0 170 -29 225t-116 55t-115 -55t-29 -225v-459q0 -170 29 -226q30 -56 116 -55
q86 -1 115 55t29 226zM979 477q0 -246 -80 -356q-102 -143 -367 -144q-150 0 -240 40t-145 128q-63 111 -63 332v508q0 248 80 356q53 76 140 110t255 34t268 -69t136 -226q41 49 41 137t-43 160h239q18 -49 18 -141t-50 -164t-189 -166v-539z" />
    <glyph glyph-name="uni1EDF" unicode="&#x1edf;" horiz-adv-x="1028" 
d="M569 1180h-200q0 110 9 144q10 34 40 73t31 53q0 31 -39 31t-125 -41l-54 184q137 45 240 45t163 -53t60 -152q0 -48 -15 -74t-75 -83q-35 -39 -35 -127zM559 403v267q0 112 -20 152q-19 40 -77 40t-78 -40t-22 -152v-267q0 -111 20 -151t78 -39q58 -1 78 39t21 151z
M1081 965q0 -197 -237 -344l2 -21v-174q0 -242 -89 -345t-296 -103t-296 102q-89 104 -89 346v223q0 240 89 343q89 104 279 104t277 -70q88 -70 115 -225q60 147 -13 282h238q20 -68 20 -118z" />
    <glyph glyph-name="uni1EE0" unicode="&#x1ee0;" horiz-adv-x="1146" 
d="M410 1909q86 1 144 -61t73 -62q41 0 47 108h168q-8 -164 -58 -238t-146 -73q-98 -1 -146 61t-66 62q-49 0 -55 -109h-168q30 312 207 312zM676 502v459q0 170 -29 225t-116 55t-115 -55t-29 -225v-459q0 -170 29 -226q30 -56 116 -55q86 -1 115 55t29 226zM979 477
q0 -246 -80 -356q-102 -143 -367 -144q-150 0 -240 40t-145 128q-63 111 -63 332v508q0 248 80 356q53 76 140 110t255 34t268 -69t136 -226q41 49 41 137t-43 160h239q18 -49 18 -141t-50 -164t-189 -166v-539z" />
    <glyph glyph-name="uni1EE1" unicode="&#x1ee1;" horiz-adv-x="1028" 
d="M311 1194h-168q15 162 69 237t153 74q72 0 130 -61t72 -62q41 0 47 109h168q-8 -164 -56 -238q-48 -73 -146 -73t-147 61q-48 61 -66 62q-50 0 -56 -109zM559 403v267q0 112 -20 152q-19 40 -77 40t-78 -40t-22 -152v-267q0 -111 20 -151t78 -39q58 -1 78 39t21 151z
M1081 965q0 -197 -237 -344l2 -21v-174q0 -242 -89 -345t-296 -103t-296 102q-89 104 -89 346v223q0 240 89 343q89 104 279 104t277 -70q88 -70 115 -225q60 147 -13 282h238q20 -68 20 -118z" />
    <glyph glyph-name="uni1EE2" unicode="&#x1ee2;" horiz-adv-x="1146" 
d="M385 -436v272h274v-272h-274zM676 502v459q0 170 -29 225t-116 55t-115 -55t-29 -225v-459q0 -170 29 -226q30 -56 116 -55q86 -1 115 55t29 226zM979 477q0 -246 -80 -356q-102 -143 -367 -144q-150 0 -240 40t-145 128q-63 111 -63 332v508q0 248 80 356q53 76 140 110
t255 34t268 -69t136 -226q41 49 41 137t-43 160h239q18 -49 18 -141t-50 -164t-189 -166v-539z" />
    <glyph glyph-name="uni1EE3" unicode="&#x1ee3;" horiz-adv-x="1028" 
d="M338 -436v272h274v-272h-274zM559 403v267q0 112 -20 152q-19 40 -77 40t-78 -40t-22 -152v-267q0 -111 20 -151t78 -39q58 -1 78 39t21 151zM1081 965q0 -197 -237 -344l2 -21v-174q0 -242 -89 -345t-296 -103t-296 102q-89 104 -89 346v223q0 240 89 343
q89 104 279 104t277 -70q88 -70 115 -225q60 147 -13 282h238q20 -68 20 -118z" />
    <glyph glyph-name="uni1EE4" unicode="&#x1ee4;" horiz-adv-x="1083" 
d="M406 -436v272h274v-272h-274zM104 1462h304v-985q0 -156 26 -206t107 -50q83 0 109 48t26 208v985h303v-985q0 -145 -15 -220q-14 -75 -64 -143q-101 -138 -357 -137q-145 0 -237 41t-144 132q-57 92 -58 327v985z" />
    <glyph glyph-name="uni1EE5" unicode="&#x1ee5;" horiz-adv-x="901" 
d="M313 -436v272h275v-272h-275zM78 1073h287v-641q0 -119 18 -164q19 -45 67 -45t65 42t17 163v645h287v-1073h-213l-20 86q-50 -61 -96 -85t-119 -24q-197 0 -260 152q-33 80 -33 262v682z" />
    <glyph glyph-name="uni1EE6" unicode="&#x1ee6;" horiz-adv-x="1083" 
d="M530 1837q0 31 -36 31t-125 -39l-54 184q137 43 239 43t162 -53t60 -150q0 -47 -14 -73t-74 -86q-23 -26 -29 -48t-8 -79h-200q2 111 11 145q8 34 38 72q30 36 30 53zM104 1462h304v-985q0 -156 26 -206t107 -50q83 0 109 48t26 208v985h303v-985q0 -145 -15 -220
q-14 -75 -64 -143q-101 -138 -357 -137q-145 0 -237 41t-144 132q-57 92 -58 327v985z" />
    <glyph glyph-name="uni1EE7" unicode="&#x1ee7;" horiz-adv-x="901" 
d="M561 1180h-201q0 110 10 144t40 73t30 53q0 31 -39 31t-122 -41l-56 184q137 45 240 45t163 -53t60 -152q0 -48 -15 -74t-73 -83q-23 -25 -30 -49t-7 -78zM78 1073h287v-641q0 -119 18 -164q19 -45 67 -45t65 42t17 163v645h287v-1073h-213l-20 86q-50 -61 -96 -85
t-119 -24q-197 0 -260 152q-33 80 -33 262v682z" />
    <glyph glyph-name="uni1EE8" unicode="&#x1ee8;" horiz-adv-x="1230" 
d="M475 1589l141 322h312l-242 -322h-211zM104 1462h304v-985q0 -156 26 -206t107 -50q83 0 109 48t26 208v985h303v-319q100 76 100 192q0 78 -37 152h238q16 -57 16 -115q0 -123 -66 -207t-251 -196v-492q0 -145 -15 -220q-14 -75 -64 -143q-101 -138 -357 -137
q-145 0 -237 41t-144 132q-57 92 -58 327v985z" />
    <glyph glyph-name="uni1EE9" unicode="&#x1ee9;" horiz-adv-x="1089" 
d="M381 1186l141 321h312l-240 -321h-213zM78 1073h287v-641q0 -119 18 -164q19 -45 67 -45t65 42t17 163v645h287v-334q100 70 101 195q0 78 -37 149h237q16 -55 17 -112q0 -121 -67 -207t-251 -201v-563h-213l-20 86q-50 -61 -96 -85t-119 -24q-197 0 -260 152
q-33 80 -33 262v682z" />
    <glyph glyph-name="uni1EEA" unicode="&#x1eea;" horiz-adv-x="1230" 
d="M676 1589h-213l-240 322h312zM104 1462h304v-985q0 -156 26 -206t107 -50q83 0 109 48t26 208v985h303v-319q100 76 100 192q0 78 -37 152h238q16 -57 16 -115q0 -123 -66 -207t-251 -196v-492q0 -145 -15 -220q-14 -75 -64 -143q-101 -138 -357 -137q-145 0 -237 41
t-144 132q-57 92 -58 327v985z" />
    <glyph glyph-name="uni1EEB" unicode="&#x1eeb;" horiz-adv-x="1089" 
d="M602 1186h-213l-239 321h311zM78 1073h287v-641q0 -119 18 -164q19 -45 67 -45t65 42t17 163v645h287v-334q100 70 101 195q0 78 -37 149h237q16 -55 17 -112q0 -121 -67 -207t-251 -201v-563h-213l-20 86q-50 -61 -96 -85t-119 -24q-197 0 -260 152q-33 80 -33 262v682z
" />
    <glyph glyph-name="uni1EEC" unicode="&#x1eec;" horiz-adv-x="1230" 
d="M522 1837q0 31 -37 31t-125 -39l-55 184q139 43 241 43t162 -53t60 -150q0 -47 -14 -73t-74 -86q-23 -26 -29 -48t-8 -79h-201q2 113 10 147t40 70q30 36 30 53zM104 1462h304v-985q0 -156 26 -206t107 -50q83 0 109 48t26 208v985h303v-319q100 76 100 192q0 78 -37 152
h238q16 -57 16 -115q0 -123 -66 -207t-251 -196v-492q0 -145 -15 -220q-14 -75 -64 -143q-101 -138 -357 -137q-145 0 -237 41t-144 132q-57 92 -58 327v985z" />
    <glyph glyph-name="uni1EED" unicode="&#x1eed;" horiz-adv-x="1089" 
d="M578 1180h-201q0 110 9 144q10 34 40 73t31 53q0 31 -39 31t-123 -41l-55 184q138 45 240 45t162 -53t60 -152q0 -48 -15 -74t-73 -83q-24 -25 -30 -49t-6 -78zM78 1073h287v-641q0 -119 18 -164q19 -45 67 -45t65 42t17 163v645h287v-334q100 70 101 195q0 78 -37 149
h237q16 -55 17 -112q0 -121 -67 -207t-251 -201v-563h-213l-20 86q-50 -61 -96 -85t-119 -24q-197 0 -260 152q-33 80 -33 262v682z" />
    <glyph glyph-name="uni1EEE" unicode="&#x1eee;" horiz-adv-x="1230" 
d="M664 1786q39 0 45 108h168q-9 -164 -57 -238t-145 -73q-97 -1 -145 61t-69 62q-49 0 -55 -109h-168q34 312 210 312q86 0 142 -62q59 -61 74 -61zM104 1462h304v-985q0 -156 26 -206t107 -50q83 0 109 48t26 208v985h303v-319q100 76 100 192q0 78 -37 152h238
q16 -57 16 -115q0 -123 -66 -207t-251 -196v-492q0 -145 -15 -220q-14 -75 -64 -143q-101 -138 -357 -137q-145 0 -237 41t-144 132q-57 92 -58 327v985z" />
    <glyph glyph-name="uni1EEF" unicode="&#x1eef;" horiz-adv-x="1089" 
d="M305 1194h-166q31 314 209 312q86 0 141 -62q59 -61 74 -62q41 0 45 109h168q-6 -164 -55 -238q-49 -73 -147 -73t-145 61q-48 61 -69 62q-45 0 -55 -109zM78 1073h287v-641q0 -119 18 -164q19 -45 67 -45t65 42t17 163v645h287v-334q100 70 101 195q0 78 -37 149h237
q16 -55 17 -112q0 -121 -67 -207t-251 -201v-563h-213l-20 86q-50 -61 -96 -85t-119 -24q-197 0 -260 152q-33 80 -33 262v682z" />
    <glyph glyph-name="uni1EF0" unicode="&#x1ef0;" horiz-adv-x="1230" 
d="M420 -436v272h274v-272h-274zM104 1462h304v-985q0 -156 26 -206t107 -50q83 0 109 48t26 208v985h303v-319q100 76 100 192q0 78 -37 152h238q16 -57 16 -115q0 -123 -66 -207t-251 -196v-492q0 -145 -15 -220q-14 -75 -64 -143q-101 -138 -357 -137q-145 0 -237 41
t-144 132q-57 92 -58 327v985z" />
    <glyph glyph-name="uni1EF1" unicode="&#x1ef1;" horiz-adv-x="1089" 
d="M348 -436v272h275v-272h-275zM78 1073h287v-641q0 -119 18 -164q19 -45 67 -45t65 42t17 163v645h287v-334q100 70 101 195q0 78 -37 149h237q16 -55 17 -112q0 -121 -67 -207t-251 -201v-563h-213l-20 86q-50 -61 -96 -85t-119 -24q-197 0 -260 152q-33 80 -33 262v682z
" />
    <glyph glyph-name="Ygrave" unicode="&#x1ef2;" horiz-adv-x="884" 
d="M588 1589h-213l-240 322h311zM295 0v494l-365 968h320l196 -610l195 610h322l-365 -968v-494h-303z" />
    <glyph glyph-name="ygrave" unicode="&#x1ef3;" horiz-adv-x="843" 
d="M567 1186h-213l-239 321h311zM57 -471v238q111 -1 145 29t62 161l10 45l-270 1071h291l125 -690l125 690h293l-277 -1139q-59 -256 -151 -330t-353 -75z" />
    <glyph glyph-name="uni1EF4" unicode="&#x1ef4;" horiz-adv-x="884" 
d="M305 -436v272h275v-272h-275zM295 0v494l-365 968h320l196 -610l195 610h322l-365 -968v-494h-303z" />
    <glyph glyph-name="uni1EF5" unicode="&#x1ef5;" horiz-adv-x="843" 
d="M618 -436v272h275v-272h-275zM57 -471v238q111 -1 145 29t62 161l10 45l-270 1071h291l125 -690l125 690h293l-277 -1139q-59 -256 -151 -330t-353 -75z" />
    <glyph glyph-name="uni1EF6" unicode="&#x1ef6;" horiz-adv-x="884" 
d="M432 1837q0 31 -37 31t-127 -39l-53 184q137 43 240 43t163 -53t60 -150q0 -47 -15 -75t-75 -84q-23 -26 -29 -48t-8 -79h-201q2 111 11 145t40 72q31 36 31 53zM295 0v494l-365 968h320l196 -610l195 610h322l-365 -968v-494h-303z" />
    <glyph glyph-name="uni1EF7" unicode="&#x1ef7;" horiz-adv-x="843" 
d="M532 1180h-200q0 110 9 144t39 73t32 53q0 31 -39 31t-125 -41l-53 184q137 45 239 45t163 -53q60 -53 60 -152q0 -48 -15 -74t-75 -83q-35 -39 -35 -127zM57 -471v238q111 -1 145 29t62 161l10 45l-270 1071h291l125 -690l125 690h293l-277 -1139q-59 -256 -151 -330
t-353 -75z" />
    <glyph glyph-name="uni1EF8" unicode="&#x1ef8;" horiz-adv-x="884" 
d="M331 1909q85 1 143 -61t73 -62q41 0 45 108h168q-6 -164 -55 -238t-147 -73q-98 -1 -145 61q-48 62 -69 62q-47 0 -53 -109h-168q31 312 208 312zM295 0v494l-365 968h320l196 -610l195 610h322l-365 -968v-494h-303z" />
    <glyph glyph-name="uni1EF9" unicode="&#x1ef9;" horiz-adv-x="843" 
d="M276 1194h-167q35 314 211 312q86 0 142 -62q56 -61 73 -62q39 0 45 109h168q-8 -164 -56 -238q-48 -73 -146 -73q-96 0 -146 61t-68 62q-50 0 -56 -109zM57 -471v238q111 -1 145 29t62 161l10 45l-270 1071h291l125 -690l125 690h293l-277 -1139q-59 -256 -151 -330
t-353 -75z" />
    <glyph glyph-name="uni2002" unicode="&#x2002;" horiz-adv-x="1024" 
 />
    <glyph glyph-name="uni2003" unicode="&#x2003;" horiz-adv-x="2048" 
 />
    <glyph glyph-name="uni2004" unicode="&#x2004;" horiz-adv-x="681" 
 />
    <glyph glyph-name="uni2005" unicode="&#x2005;" horiz-adv-x="512" 
 />
    <glyph glyph-name="uni2006" unicode="&#x2006;" horiz-adv-x="342" 
 />
    <glyph glyph-name="uni2007" unicode="&#x2007;" 
 />
    <glyph glyph-name="uni2008" unicode="&#x2008;" horiz-adv-x="0" 
 />
    <glyph glyph-name="uni2009" unicode="&#x2009;" horiz-adv-x="409" 
 />
    <glyph glyph-name="uni200A" unicode="&#x200a;" horiz-adv-x="256" 
 />
    <glyph glyph-name="uni2011" unicode="&#x2011;" horiz-adv-x="704" 
d="M88 602v248h528v-248h-528z" />
    <glyph glyph-name="figuredash" unicode="&#x2012;" 
d="M78 602v248h704v-248h-704z" />
    <glyph glyph-name="endash" unicode="&#x2013;" 
d="M78 602v248h704v-248h-704z" />
    <glyph glyph-name="emdash" unicode="&#x2014;" 
d="M-20 602v248h901v-248h-901z" />
    <glyph glyph-name="afii00208" unicode="&#x2015;" 
d="M-20 602v248h901v-248h-901z" />
    <glyph glyph-name="underscoredbl" unicode="&#x2017;" horiz-adv-x="749" 
d="M-39 -268v149h830v-149h-830zM-39 -487v149h830v-149h-830z" />
    <glyph glyph-name="quoteleft" unicode="&#x2018;" horiz-adv-x="401" 
d="M373 1462l-47 -538h-297l100 538h244z" />
    <glyph glyph-name="quoteright" unicode="&#x2019;" horiz-adv-x="401" 
d="M29 924l47 538h297l-99 -538h-245z" />
    <glyph glyph-name="quotesinglbase" unicode="&#x201a;" horiz-adv-x="401" 
d="M29 -262l47 538h297l-99 -538h-245z" />
    <glyph glyph-name="quotedblleft" unicode="&#x201c;" horiz-adv-x="780" 
d="M373 1462l-47 -538h-297l100 538h244zM752 1462l-47 -538h-297l100 538h244z" />
    <glyph glyph-name="quotedblright" unicode="&#x201d;" horiz-adv-x="780" 
d="M408 924l47 538h297l-99 -538h-245zM29 924l47 538h297l-99 -538h-245z" />
    <glyph glyph-name="quotedblbase" unicode="&#x201e;" horiz-adv-x="780" 
d="M408 -262l47 538h297l-99 -538h-245zM29 -262l47 538h297l-99 -538h-245z" />
    <glyph glyph-name="dagger" unicode="&#x2020;" 
d="M283 797h-234v243h234v422h295v-422h233v-243h-233v-1104h-295v1104z" />
    <glyph glyph-name="daggerdbl" unicode="&#x2021;" 
d="M283 797h-234v243h234v422h295v-422h233v-243h-233v-228h210v-243h-210v-633h-295v633h-211v243h211v228z" />
    <glyph glyph-name="bullet" unicode="&#x2022;" 
d="M430 1071q156 0 262 -103t106 -256t-104 -256q-106 -104 -265 -104t-264 104t-105 257q0 154 106 256q108 102 264 102z" />
    <glyph glyph-name="ellipsis" unicode="&#x2026;" horiz-adv-x="1447" 
d="M1055 0v283h303v-283h-303zM573 0v283h304v-283h-304zM90 0v283h303v-283h-303z" />
    <glyph glyph-name="perthousand" unicode="&#x2030;" horiz-adv-x="2404" 
d="M524 0l365 1462h264l-365 -1462h-264zM2105 291v149q0 80 -14 110t-53 30q-38 0 -54 -30t-16 -110v-149q0 -80 15 -110q15 -29 55 -29t53 30q14 30 14 109zM1714 326v80q0 194 72 270t251 76t251 -77t71 -269v-80q1 -193 -71 -270q-72 -76 -251 -76t-251 76t-72 270z
M1380 291v149q0 80 -14 110t-53 30t-55 -30t-15 -110v-149q0 -80 15 -110q14 -29 54 -29t54 30t14 109zM989 326v80q0 194 72 270t251 76t251 -77t71 -269v-80q0 -193 -72 -270q-72 -76 -250 -76q-179 0 -251 76t-72 270zM436 1024v150q0 80 -14 110t-54 29q-40 0 -54 -30
t-15 -109v-150q0 -80 14 -110q15 -30 55 -30t54 30t14 110zM45 1059v80q0 193 72 269t251 77q178 0 250 -77t72 -269v-80q0 -193 -72 -269t-250 -77q-178 1 -251 77q-72 76 -72 269z" />
    <glyph glyph-name="guilsinglleft" unicode="&#x2039;" horiz-adv-x="473" 
d="M322 604l127 -260l-179 -121l-252 381l252 379l179 -121z" />
    <glyph glyph-name="guilsinglright" unicode="&#x203a;" horiz-adv-x="473" 
d="M152 604l-127 258l178 121l252 -379l-252 -381l-178 121z" />
    <glyph glyph-name="uni203E" unicode="&#x203e;" horiz-adv-x="749" 
d="M-39 1649v196h830v-196h-830z" />
    <glyph glyph-name="fraction" unicode="&#x2044;" horiz-adv-x="325" 
d="M-117 0l365 1462h262l-363 -1462h-264z" />
    <glyph glyph-name="zerosuperior" unicode="&#x2070;" horiz-adv-x="634" 
d="M369 1102v254q-1 88 -11 118t-41 30t-41 -30t-10 -118v-254q0 -88 10 -118t41 -30t41 30t11 118zM37 1108v242q0 182 62 256t218 74t219 -74q62 -74 62 -256v-242q0 -182 -62 -256t-218 -74t-219 74q-62 74 -62 256z" />
    <glyph glyph-name="foursuperior" unicode="&#x2074;" horiz-adv-x="634" 
d="M352 791v145h-313v131l211 600h225l-194 -557h71v150h187v-150h57v-174h-57v-145h-187z" />
    <glyph glyph-name="fivesuperior" unicode="&#x2075;" horiz-adv-x="634" 
d="M555 1667v-180h-262l-6 -129q41 6 69 6q127 0 174 -60q48 -60 48 -222t-54 -224q-68 -80 -223 -80q-190 0 -246 125q-20 49 -22 146h205q2 -94 55 -95q35 0 49 25t14 93t-10 96t-41 28t-55 -51l-174 31l22 491h457z" />
    <glyph glyph-name="sixsuperior" unicode="&#x2076;" horiz-adv-x="634" 
d="M314 1198q-34 0 -44 -24t-10 -101t10 -101t44 -24t44 24t10 102t-10 100q-10 24 -44 24zM590 1077q0 -159 -66 -229t-212 -70t-210 66q-63 66 -63 217q0 92 13 142t63 138l178 326h262l-178 -305q121 -2 167 -64t46 -221z" />
    <glyph glyph-name="sevensuperior" unicode="&#x2077;" horiz-adv-x="634" 
d="M68 1487v180h487v-131l-211 -745h-252l238 696h-262z" />
    <glyph glyph-name="eightsuperior" unicode="&#x2078;" horiz-adv-x="634" 
d="M317 1161q-35 1 -47 -21t-12 -85t12 -85t47 -22t48 22q12 22 12 85t-12 85q-13 21 -48 21zM318 1522q-36 0 -47 -20t-11 -82t11 -82t46 -19q35 0 47 19q11 20 11 82t-10 82q-11 20 -47 20zM318 1679q136 0 196 -60q60 -61 61 -191q0 -130 -63 -171q86 -51 86 -203
t-67 -214t-214 -62t-214 62t-67 212t87 205q-63 41 -63 171t60 190q62 60 198 61z" />
    <glyph glyph-name="ninesuperior" unicode="&#x2079;" horiz-adv-x="634" 
d="M318 1509q-34 0 -44 -20t-10 -92q0 -71 10 -93t44 -22t44 22t10 94t-10 91q-10 20 -44 20zM43 1393q0 151 66 219q65 68 211 68t210 -63q64 -62 64 -208q0 -92 -14 -145t-62 -142l-176 -331h-262l184 331q-125 2 -173 60t-48 211z" />
    <glyph glyph-name="zeroinferior" unicode="&#x2080;" horiz-adv-x="634" 
d="M369 106v254q-1 88 -11 118t-41 30t-41 -30t-10 -118v-254q0 -88 10 -118t41 -29q31 -1 41 29t11 118zM37 113v241q0 182 62 256t218 74q157 0 219 -74t62 -256v-241q0 -182 -62 -256t-218 -74t-219 74q-62 74 -62 256z" />
    <glyph glyph-name="oneinferior" unicode="&#x2081;" horiz-adv-x="634" 
d="M246 -205v654l-99 -46l-63 138l238 131h153v-877h-229z" />
    <glyph glyph-name="twoinferior" unicode="&#x2082;" horiz-adv-x="634" 
d="M35 -205v154l207 274q98 129 98 207t-37 78q-29 0 -39 -24t-12 -95h-207q1 159 63 227t203 68q266 0 267 -235q0 -101 -28 -159t-149 -212l-79 -103h251v-180h-538z" />
    <glyph glyph-name="threeinferior" unicode="&#x2083;" horiz-adv-x="634" 
d="M186 176v158h84q43 0 60 19q16 19 16 73q0 82 -51 82q-25 0 -35 -18t-14 -64h-205q2 111 39 164q63 94 227 94q260 0 260 -242q0 -125 -59 -184q43 -35 59 -80t17 -125q0 -141 -66 -206t-211 -64q-190 0 -246 125q-20 49 -22 145h205q2 -94 55 -94q63 0 63 96
q0 121 -79 121h-97z" />
    <glyph glyph-name="fourinferior" unicode="&#x2084;" horiz-adv-x="634" 
d="M352 -205v146h-313v131l211 600h225l-194 -557h71v149h187v-149h57v-174h-57v-146h-187z" />
    <glyph glyph-name="fiveinferior" unicode="&#x2085;" horiz-adv-x="634" 
d="M555 672v-180h-262l-6 -130q41 6 69 7q127 -1 174 -61q48 -60 48 -222t-54 -223q-68 -80 -223 -80q-190 0 -246 125q-20 49 -22 145h205q2 -94 55 -94q35 0 49 25q14 26 14 94t-10 96t-41 27q-31 0 -55 -51l-174 30l22 492h457z" />
    <glyph glyph-name="sixinferior" unicode="&#x2086;" horiz-adv-x="634" 
d="M314 203q-34 0 -44 -24q-10 -23 -10 -101t10 -102t44 -24t44 24t11 102q-1 78 -11 102t-44 23zM590 82q0 -158 -66 -228t-212 -71q-146 0 -210 65q-63 66 -63 218q0 92 13 142t63 138l178 326h262l-178 -305q121 -3 167 -65t46 -220z" />
    <glyph glyph-name="seveninferior" unicode="&#x2087;" horiz-adv-x="634" 
d="M68 492v180h487v-131l-211 -746h-252l238 697h-262z" />
    <glyph glyph-name="eightinferior" unicode="&#x2088;" horiz-adv-x="634" 
d="M317 166q-35 0 -47 -22t-12 -85t12 -85t47 -22t48 22q12 22 12 85t-12 85q-13 22 -48 22zM318 526q-36 0 -47 -19t-11 -81t11 -82t46 -20t47 19q11 19 11 81t-10 83q-11 19 -47 19zM318 684q136 0 196 -60t61 -190q0 -130 -63 -172q86 -52 86 -204t-67 -214t-214 -61
q-147 0 -214 61t-67 212t87 206q-63 41 -63 171q0 131 60 191q62 60 198 60z" />
    <glyph glyph-name="nineinferior" unicode="&#x2089;" horiz-adv-x="634" 
d="M264 402q0 -72 10 -94t44 -22t44 22t10 94t-10 92t-44 20t-44 -20t-10 -92zM43 397q0 151 66 219q65 68 211 68t210 -62t64 -208q0 -92 -14 -146t-62 -141l-176 -332h-262l184 332q-125 2 -173 60t-48 210z" />
    <glyph glyph-name="franc" unicode="&#x20a3;" horiz-adv-x="1308" 
d="M743 0v913h209l35 -86q39 47 51 62q43 47 116 47t171 -57l-121 -230q-47 59 -86 60q-53 0 -77 -80t-23 -262v-367h-275zM113 0v1462h637v-248h-342v-364h268v-248h-268v-602h-295z" />
    <glyph glyph-name="lira" unicode="&#x20a4;" 
d="M49 0v213q182 51 178 250h-192v160h172q-10 39 -33 96h-139v160h82q-35 117 -35 219q0 383 370 383t375 -449h-278q-7 123 -23 164t-61 41q-80 0 -80 -164q0 -90 47 -194h283v-160h-226q10 -43 17 -96h209v-160h-207q-6 -139 -66 -215h408v-248h-801z" />
    <glyph glyph-name="peseta" unicode="&#x20a7;" 
d="M393 1059h150q-10 96 -36 135t-83 37h-31v-172zM393 901v-188h31q105 -8 121 188h-152zM106 901h-118v158h118v403h304q205 6 304 -90t113 -313h103v-158h-103q-8 -225 -109 -327t-308 -95h-9v-479h-295v901z" />
    <glyph glyph-name="uni20AB" unicode="&#x20ab;" 
d="M303 698v-270q-1 -113 19 -159t67 -46q100 0 100 201v225q0 201 -102 201q-45 0 -65 -35t-19 -117zM489 1161h-221v197h221v104h287v-104h111v-197h-111v-1161h-219l-16 66q-51 -52 -97 -70t-114 -19q-168 0 -240 112t-72 374v213q0 221 70 320t225 100q106 0 176 -56
v121zM39 -381v197h790v-197h-790z" />
    <glyph glyph-name="Euro" unicode="&#x20ac;" 
d="M96 635v100h-131l58 160h73v57q0 291 84 402q98 131 299 131q240 0 332 -191q41 -86 47 -258h-278q-6 121 -24 163t-70 42q-50 0 -68 -62t-19 -249v-35h346l-59 -160h-287v-100h260l-59 -160h-201q3 -154 23 -204t80 -50q92 0 94 148h276q-2 -170 -63 -256
q-96 -135 -320 -136q-274 0 -352 211q-39 104 -41 287h-131l58 160h73z" />
    <glyph glyph-name="uni20B4" unicode="&#x20b4;" 
d="M520 1106q0 131 -90 131q-43 0 -59 -22t-23 -80h-276q2 145 63 227q94 119 305 119q369 0 369 -385q0 -145 -49 -254l80 -29l-45 -149l-146 47q-51 -39 -147 -84l276 -95l-45 -149l-391 129q-29 -50 -29 -140t28 -120t93 -31q65 0 92 27t31 90h277q-2 -156 -68 -236
q-98 -125 -332 -125q-410 0 -409 383q0 145 41 246l-76 25l45 151l139 -47q45 35 150 86l-273 90l47 152l381 -127q41 68 41 170z" />
    <glyph glyph-name="uni2101" unicode="&#x2101;" horiz-adv-x="1558" 
d="M1214 158q76 0 76 94q0 39 -21 58q-22 19 -112 54q-90 34 -136 96t-46 176t72 184t204 69q195 0 258 -156l-174 -102q-23 51 -41 68t-49 18q-49 -1 -49 -55t22 -78t100 -54q78 -28 116 -59q78 -68 77 -219q0 -266 -270 -266q-125 0 -200 40q-74 40 -111 128l178 104
q27 -64 46 -82t60 -18zM438 883l-78 317l-75 -317h153zM692 756l174 706h230l-363 -1462h-229l145 586h-139l-37 147h-225l-35 -147h-240l293 876h189z" />
    <glyph glyph-name="afii61248" unicode="&#x2105;" horiz-adv-x="1529" 
d="M451 0l362 1462h229l-362 -1462h-229zM1260 340v125q0 98 -18 138t-64 40q-44 0 -62 -40t-18 -138v-125q0 -98 17 -137t63 -39t64 39t18 137zM872 328v149q0 186 71 266t235 80t234 -80t71 -266v-149q0 -184 -71 -264q-70 -80 -234 -80t-235 80t-71 264zM336 635
q-289 0 -289 401v31q0 410 285 410q96 0 162 -42t112 -132l-164 -95q-39 88 -98 88q-41 0 -58 -52t-18 -177v-31q0 -121 20 -171t64 -50q45 0 72 37q1 2 11 20q10 17 16 29l165 -92q-86 -174 -280 -174z" />
    <glyph glyph-name="afii61289" unicode="&#x2113;" horiz-adv-x="862" 
d="M649 1195q0 81 -48 81t-73 -94q-47 -158 -61 -414q78 102 130 224t52 203zM473 158q12 0 21 12q8 12 24 57q25 70 68 70q59 0 59 -80q0 -109 -74 -191t-175 -83q-101 0 -164 100q-62 100 -78 291q-42 -56 -58 -74t-34 -18t-37 36t-19 70t9 50t55 74t84 122
q27 334 106 567q109 326 315 326q107 0 175 -77t68 -210t-95 -304q-94 -171 -268 -341l-4 -72q-10 -135 -11 -198q0 -127 33 -127z" />
    <glyph glyph-name="afii61352" unicode="&#x2116;" horiz-adv-x="1912" 
d="M1135 0v223h698v-223h-698zM1554 770v109q0 96 -16 135t-55 39t-55 -39t-17 -135v-109q0 -96 16 -135q15 -39 55 -39t56 39t16 135zM1135 752v145q0 203 82 293t267 90t267 -90t82 -293v-145q0 -203 -82 -293t-267 -90t-267 89t-82 294zM109 0v1462h303l323 -858v858h283
v-1462h-287l-340 874v-874h-282z" />
    <glyph glyph-name="trademark" unicode="&#x2122;" horiz-adv-x="1425" 
d="M635 586v876h211l158 -438l157 438h211v-876h-209v467l-73 -283h-172l-74 283v-467h-209zM174 586v700h-188v176h604v-176h-184v-700h-232z" />
    <glyph glyph-name="uni2126" unicode="&#x2126;" horiz-adv-x="1060" 
d="M66 0v217h167v59q-83 50 -117 148t-34 281v280q0 246 80 356q102 143 368 144q150 0 240 -40t143 -128q63 -111 64 -332v-280q0 -181 -35 -279t-117 -150v-59h168v-217h-399v436q49 29 64 80t16 191v254q0 170 -29 225t-116 55t-115 -55t-29 -225v-254q0 -139 15 -191
t65 -80v-436h-399z" />
    <glyph glyph-name="estimated" unicode="&#x212e;" horiz-adv-x="958" 
d="M639 801v170q-16 113 -54 164q-37 51 -101 51t-99 -49t-55 -166v-170h309zM330 614v-206q23 -127 59 -179q37 -51 105 -51q131 0 176 225h202q-29 -178 -86 -264q-112 -164 -308 -164q-196 -1 -308 183t-113 516q0 332 115 523t313 192q125 0 219 -82q94 -81 144 -225
q49 -144 51 -468h-569z" />
    <glyph glyph-name="onethird" unicode="&#x2153;" horiz-adv-x="1595" 
d="M387 0l363 1462h264l-365 -1462h-262zM1065 381v158h84q45 0 60 19t16 73q0 82 -51 82q-45 0 -48 -82h-204q2 115 36 164q63 94 228 94q260 0 260 -242q0 -125 -60 -184q44 -35 60 -80t16 -125q0 -141 -66 -206t-210 -64q-190 0 -244 125q-23 47 -24 145h206
q0 -94 54 -94q63 0 63 96q0 121 -80 121h-96zM215 586v637l-109 -45l-77 172l262 112h153v-876h-229z" />
    <glyph glyph-name="twothirds" unicode="&#x2154;" horiz-adv-x="1595" 
d="M506 0l362 1462h265l-365 -1462h-262zM1135 381v158h84q45 0 60 19t15 73q0 82 -51 82q-45 0 -47 -82h-205q2 115 37 164q63 94 227 94q260 0 261 -242q0 -125 -60 -184q44 -35 60 -80t16 -125q0 -141 -66 -206t-211 -64q-190 0 -243 125q-23 47 -25 145h207
q0 -94 53 -94q63 0 64 96q0 121 -80 121h-96zM63 586v153l207 275q98 129 98 207t-36 77q-29 0 -39 -24t-12 -94h-207q2 160 63 228t203 67q266 0 266 -236q0 -101 -28 -159t-148 -212l-80 -102h252v-180h-539z" />
    <glyph glyph-name="uni2155" unicode="&#x2155;" horiz-adv-x="1595" 
d="M422 0l362 1462h265l-365 -1462h-262zM1468 877v-181h-262l-6 -129q43 6 70 6q127 0 174 -60t47 -221t-51 -224q-68 -80 -226 -80q-190 0 -245 125q-20 49 -23 145h207q0 -51 12 -73q12 -21 45 -21t46 24q14 24 14 94q0 68 -10 96t-41 28t-56 -52l-174 31l23 492h456z
M250 586v637l-109 -45l-78 172l263 112h153v-876h-229z" />
    <glyph glyph-name="uni2156" unicode="&#x2156;" horiz-adv-x="1595" 
d="M489 0l365 1462h264l-364 -1462h-265zM1489 877v-181h-262l-6 -129q43 6 69 6q127 0 174 -60t47 -221t-51 -224q-68 -80 -225 -80q-190 0 -246 125q-20 49 -22 145h207q0 -51 12 -73q12 -21 45 -21t46 24t13 94q0 68 -10 96t-41 28t-55 -52l-174 31l22 492h457zM55 586
v153l207 275q98 129 98 207t-36 77q-29 0 -39 -24t-13 -94h-206q2 160 63 228t203 67q266 0 266 -236q0 -101 -28 -159t-148 -212l-80 -102h252v-180h-539z" />
    <glyph glyph-name="uni2157" unicode="&#x2157;" horiz-adv-x="1595" 
d="M500 0l364 1462h262l-362 -1462h-264zM1501 877v-181h-262l-6 -129q41 6 70 6q127 0 174 -60t47 -222t-54 -223q-68 -80 -223 -80q-193 0 -246 125q-20 49 -22 145h205q2 -94 55 -94q35 0 49 24t14 94q0 68 -10 96t-41 28t-55 -52l-174 31l22 492h457zM213 967v157h84
q43 0 59 20t17 73q0 82 -51 81q-25 0 -36 -18t-14 -63h-204q2 111 38 163q63 94 228 95q260 0 260 -242q0 -125 -59 -184q43 -35 59 -80t16 -125q0 -141 -66 -206t-210 -65q-190 0 -246 125q-20 49 -22 146h204q2 -94 56 -94q63 0 63 96q0 121 -80 121h-96z" />
    <glyph glyph-name="uni2158" unicode="&#x2158;" horiz-adv-x="1595" 
d="M498 0l362 1462h264l-364 -1462h-262zM1495 877v-181h-262l-6 -129q43 6 69 6q127 0 174 -60q48 -60 48 -221t-52 -224q-68 -80 -225 -80q-190 0 -246 125q-20 49 -22 145h207q0 -51 12 -73q12 -21 45 -21t46 24t13 94q0 68 -10 96t-40 28t-56 -52l-174 31l22 492h457z
M369 586v145h-314v131l211 600h226l-195 -557h72v150h186v-150h57v-174h-57v-145h-186z" />
    <glyph glyph-name="uni2159" unicode="&#x2159;" horiz-adv-x="1595" 
d="M414 0l364 1462h262l-362 -1462h-264zM1164 408q-34 0 -44 -24t-10 -102t10 -101t44 -23t44 24t11 101q-1 77 -11 101t-44 24zM1440 287q0 -158 -66 -229q-66 -70 -212 -70t-210 65q-63 66 -63 217q0 92 13 140t65 141l176 326h262l-176 -306q119 -2 165 -64t46 -220z
M236 586v637l-109 -45l-78 172l262 112h154v-876h-229z" />
    <glyph glyph-name="uni215A" unicode="&#x215a;" horiz-adv-x="1595" 
d="M496 0l362 1462h264l-364 -1462h-262zM1284 283q0 77 -10 101t-44 24t-44 -24t-10 -102t10 -101t44 -23t44 24t10 101zM1505 287q1 -158 -65 -229q-66 -70 -212 -70t-210 65q-63 66 -64 217q0 92 14 142t62 139l178 326h260l-176 -306q121 -2 167 -64t46 -220zM569 1462
v-180h-262l-6 -129q41 6 70 6q127 0 174 -60t47 -222t-53 -224q-68 -80 -224 -80q-190 0 -245 125q-20 49 -23 146h205q2 -94 55 -94q35 0 49 24t14 94q0 68 -10 96t-40 28t-56 -52l-174 31l23 491h456z" />
    <glyph glyph-name="oneeighth" unicode="&#x215b;" horiz-adv-x="1595" 
d="M408 0l362 1462h264l-364 -1462h-262zM1200 371q-35 0 -47 -22t-12 -85t12 -85q12 -21 47 -21t47 22t13 84q0 63 -12 85t-48 22zM1143 630q0 -62 11 -82t46 -20t46 20t11 82t-10 82t-46 19q-36 0 -47 -19q-11 -20 -11 -82zM1458 638q0 -130 -63 -171q86 -51 86 -203
t-67 -214t-214 -62t-214 61q-66 61 -66 212t86 206q-64 41 -64 171t62 190t197 60q137 0 197 -60t60 -190zM236 586v637l-109 -45l-78 172l262 112h154v-876h-229z" />
    <glyph glyph-name="threeeighths" unicode="&#x215c;" horiz-adv-x="1595" 
d="M467 0l364 1462h263l-363 -1462h-264zM1248 371q-36 -1 -47 -21t-11 -86t11 -86t47 -20t48 22t13 84q-1 63 -13 85t-48 22zM1192 630q0 -62 11 -82t46 -20t46 20t11 82t-10 82t-46 19q-36 0 -47 -19q-11 -20 -11 -82zM1507 638q0 -130 -63 -171q86 -55 86 -205t-67 -212
t-214 -62t-214 61t-67 214t85 204q-61 41 -61 171t60 190q62 60 197 60t197 -60t61 -190zM186 967v157h84q44 0 60 20t16 73q0 82 -51 81q-25 0 -35 -18t-14 -63h-205q2 111 39 163q63 94 227 95q260 0 260 -242q0 -125 -59 -184q43 -35 59 -80t17 -125q0 -141 -66 -206
t-211 -65q-190 0 -246 125q-20 49 -22 146h205q2 -94 55 -94q63 0 63 96q0 121 -79 121h-97z" />
    <glyph glyph-name="fiveeighths" unicode="&#x215d;" horiz-adv-x="1595" 
d="M473 0l365 1462h264l-365 -1462h-264zM1261 371q-35 -1 -47 -21t-12 -86t11 -86t47 -20t49 22q12 22 12 84q0 63 -12 85t-48 22zM1263 731q-35 0 -47 -19q-12 -20 -12 -82t11 -82t47 -20t46 20q11 20 11 82t-10 82t-46 19zM1004 638q0 130 61 190t197 60t197 -60t61 -190
t-62 -171q84 -51 84 -203t-66 -215q-67 -61 -214 -61t-214 61t-67 212t86 206q-63 41 -63 171zM555 1462v-180h-262l-6 -129q41 6 69 6q127 0 174 -60q48 -60 48 -222t-54 -224q-68 -80 -223 -80q-190 0 -246 125q-20 49 -22 146h205q2 -94 55 -94q35 0 49 24t14 94
q0 68 -10 96t-41 28t-55 -52l-174 31l22 491h457z" />
    <glyph glyph-name="seveneighths" unicode="&#x215e;" horiz-adv-x="1595" 
d="M422 0l364 1462h265l-365 -1462h-264zM1210 371q-35 0 -47 -22t-12 -85t12 -85q12 -21 47 -21t47 22t13 84q0 63 -12 85t-48 22zM1153 630q0 -62 11 -82t46 -20t46 20q12 20 12 82t-10 82t-47 19q-36 0 -47 -19q-11 -20 -11 -82zM1468 638q0 -130 -63 -171
q86 -51 86 -203t-67 -214t-214 -62t-214 61q-66 61 -66 212t86 206q-64 41 -64 171t62 190t197 60q137 0 197 -60t60 -190zM92 1282v180h488v-131l-211 -745h-252l237 696h-262z" />
    <glyph glyph-name="arrowleft" unicode="&#x2190;" horiz-adv-x="1638" 
d="M1503 602h-1011l333 -334l-176 -174l-551 580v104l551 580l176 -174l-333 -334h1011v-248z" />
    <glyph glyph-name="arrowup" unicode="&#x2191;" horiz-adv-x="1638" 
d="M694 0v1069l-334 -334l-174 176l580 551h104l580 -551l-174 -176l-334 334v-1069h-248z" />
    <glyph glyph-name="arrowright" unicode="&#x2192;" horiz-adv-x="1638" 
d="M135 602v248h1012l-334 334l176 174l551 -580v-104l-551 -580l-176 174l334 334h-1012z" />
    <glyph glyph-name="arrowdown" unicode="&#x2193;" horiz-adv-x="1638" 
d="M694 1462h248v-1069l334 334l174 -176l-580 -551h-104l-580 551l174 176l334 -334v1069z" />
    <glyph glyph-name="arrowboth" unicode="&#x2194;" horiz-adv-x="1638" 
d="M1223 602h-809l241 -242l-174 -174l-461 488v104l461 488l174 -174l-241 -242h809l-242 242l174 174l461 -488v-104l-461 -488l-174 174z" />
    <glyph glyph-name="arrowupdn" unicode="&#x2195;" horiz-adv-x="1638" 
d="M694 336v790l-241 -241l-174 174l487 461h104l488 -461l-174 -174l-242 241v-790l242 242l174 -175l-488 -460h-104l-487 460l174 175z" />
    <glyph glyph-name="uni2196" unicode="&#x2196;" horiz-adv-x="1638" 
d="M530 383h-247v795l100 100h795v-248h-471l714 -717l-174 -174l-717 715v-471z" />
    <glyph glyph-name="uni2197" unicode="&#x2197;" horiz-adv-x="1638" 
d="M459 1030v248h794l101 -100v-795h-248v471l-717 -715l-174 174l715 717h-471z" />
    <glyph glyph-name="uni2198" unicode="&#x2198;" horiz-adv-x="1638" 
d="M1106 1024h248v-795l-101 -100h-794v248h471l-715 717l174 174l717 -715v471z" />
    <glyph glyph-name="uni2199" unicode="&#x2199;" horiz-adv-x="1638" 
d="M1178 377v-248h-795l-100 100v795h247v-471l717 715l174 -174l-714 -717h471z" />
    <glyph glyph-name="partialdiff" unicode="&#x2202;" 
d="M522 408v208q0 115 -20 161t-72 46t-72 -46t-20 -161v-208q0 -115 20 -162t72 -47t72 47t20 162zM61 387v250q0 408 287 407q72 0 111 -30q-82 238 -297 286l35 183q301 -33 448 -239t154 -607v-250q0 -219 -85 -314t-284 -95t-284 94q-85 96 -85 315z" />
    <glyph glyph-name="emptyset" unicode="&#x2205;" 
d="M434 446q100 0 156 77q55 77 55 208t-47 209l-178 -494h14zM430 1028q-102 0 -158 -76t-57 -215q0 -139 61 -221l187 512h-33zM850 737q0 -209 -116 -339t-302 -130q-35 0 -76 6l-133 -370l-147 57l133 367q-92 59 -144 168t-53 241q0 209 115 339t299 130q49 0 98 -8
l113 315l147 -57l-114 -319q180 -135 180 -400z" />
    <glyph glyph-name="Delta" unicode="&#x2206;" 
d="M590 238l-158 821l-156 -821h314zM989 0h-1114l430 1462h254z" />
    <glyph glyph-name="product" unicode="&#x220f;" horiz-adv-x="1071" 
d="M127 -422v1884h817v-1884h-289v1628h-239v-1628h-289z" />
    <glyph glyph-name="summation" unicode="&#x2211;" horiz-adv-x="964" 
d="M80 -422v205l301 776l-281 690v213h764v-248h-456l266 -651l-264 -737h481v-248h-811z" />
    <glyph glyph-name="minus" unicode="&#x2212;" 
d="M45 614v224h770v-224h-770z" />
    <glyph glyph-name="uni2215" unicode="&#x2215;" horiz-adv-x="325" 
d="M-117 0l365 1462h262l-363 -1462h-264z" />
    <glyph glyph-name="uni2218" unicode="&#x2218;" 
d="M430 944q-96 0 -162 -66t-66 -165q0 -100 64 -167t162 -67t163 67t64 167q0 100 -64 166q-65 65 -161 65zM430 1092q164 0 277 -110t113 -270t-114 -271q-112 -109 -278 -109t-278 110t-111 271q-1 163 113 271t278 108z" />
    <glyph glyph-name="uni2219" unicode="&#x2219;" horiz-adv-x="483" 
d="M90 582v282h303v-282h-303z" />
    <glyph glyph-name="radical" unicode="&#x221a;" 
d="M-16 563v240h305l92 -412l260 1454h530v-196h-286l-342 -1649h-293l-170 563h-96z" />
    <glyph glyph-name="infinity" unicode="&#x221e;" horiz-adv-x="1357" 
d="M1071 719q0 69 -28 111q-29 42 -71 42t-72 -22t-101 -109l-19 -20l72 -82q56 -53 70 -62t53 -9t67 40q28 41 29 111zM394 567q50 0 95 51l68 80l21 23l-19 20q-70 82 -101 107q-32 24 -72 24t-68 -42t-28 -110t28 -111q26 -42 76 -42zM70 721q0 168 80 261t220 93
t236 -90q29 -27 72 -94q66 102 135 143q70 41 172 41q143 0 223 -93t80 -261t-80 -262t-222 -94t-234 90q-29 26 -74 94q-45 -70 -84 -105q-92 -80 -228 -80t-216 95q-80 94 -80 262z" />
    <glyph glyph-name="integral" unicode="&#x222b;" horiz-adv-x="737" 
d="M169 12q38 0 47 45t9 224v763q0 307 21 392q41 188 231 188q94 0 207 -33l-51 -221q-39 27 -67 27t-38 -7q-12 -7 -20 -50t-8 -212v-766q0 -307 -21 -391q-43 -186 -235 -186q-103 0 -203 33l51 219q39 -25 77 -25z" />
    <glyph glyph-name="similar" unicode="&#x223c;" 
d="M303 899q45 0 65 -8t83 -57q63 -50 77 -58t35 -8q51 0 84 123l156 -49q-33 -117 -74 -178q-76 -109 -184 -109q-35 0 -65 15q-30 16 -92 66t-93 50q-45 0 -78 -133l-162 37q53 309 248 309z" />
    <glyph glyph-name="uni2243" unicode="&#x2243;" 
d="M303 1083q45 0 65 -8t83 -57t77 -57t35 -9q51 0 84 123l156 -49q-31 -119 -74 -178q-76 -109 -184 -109q-35 -1 -65 15t-92 66t-93 50q-45 0 -78 -133l-162 37q53 309 248 309zM76 428v217h706v-217h-706z" />
    <glyph glyph-name="approxequal" unicode="&#x2248;" 
d="M303 1083q45 0 65 -8t83 -57t77 -57t35 -9q51 0 84 123l156 -49q-31 -119 -74 -178q-76 -109 -184 -109q-35 -1 -65 15t-92 66t-93 50q-45 0 -78 -133l-162 37q53 309 248 309zM303 715q45 0 65 -8q20 -7 83 -57t77 -58t35 -8q51 0 84 123l156 -50q-33 -117 -74 -178
q-76 -109 -184 -108q-35 0 -65 15q-30 16 -92 66t-93 50q-45 0 -78 -133l-162 37q53 309 248 309z" />
    <glyph glyph-name="notequal" unicode="&#x2260;" 
d="M76 428v217h200l64 162h-264v213h344l86 223l213 -80l-55 -143h118v-213h-200l-62 -162h262v-217h-344l-86 -223l-213 80l56 143h-119z" />
    <glyph glyph-name="lessequal" unicode="&#x2264;" 
d="M82 0v223h651v-223h-651zM356 737l377 -207v-260l-651 387v158l651 389v-262z" />
    <glyph glyph-name="greaterequal" unicode="&#x2265;" 
d="M127 0v223h651v-223h-651zM504 737l-377 205v262l651 -389v-158l-651 -387v260z" />
    <glyph glyph-name="dotmath" unicode="&#x22c5;" horiz-adv-x="483" 
d="M90 582v282h303v-282h-303z" />
    <glyph glyph-name="filledrect" unicode="&#x25ac;" 
d="M100 381v659h660v-659h-660z" />
    <glyph glyph-name="uni25B4" unicode="&#x25b4;" 
d="M45 369l385 770l387 -770h-772z" />
    <glyph glyph-name="uni25B8" unicode="&#x25b8;" 
d="M139 326v772l770 -385z" />
    <glyph glyph-name="uni25BE" unicode="&#x25be;" 
d="M45 1055h772l-387 -770z" />
    <glyph glyph-name="uni25C2" unicode="&#x25c2;" 
d="M721 326l-770 387l770 385v-772z" />
    <glyph glyph-name="lozenge" unicode="&#x25ca;" 
d="M246 725l184 -317l186 317l-186 317zM-47 725l477 788l477 -788l-477 -788z" />
    <glyph glyph-name="openbullet" unicode="&#x25e6;" 
d="M430 944q-96 0 -162 -66t-66 -165q0 -100 64 -167t162 -67t163 67t64 167q0 100 -64 166q-65 65 -161 65zM430 1092q164 0 277 -110t113 -270t-114 -271q-112 -109 -278 -109t-278 110t-111 271q-1 163 113 271t278 108z" />
    <glyph glyph-name="commaaccent" unicode="&#xf6c3;" horiz-adv-x="1024" 
d="M350 -494l74 367h266l-149 -367h-191z" />
    <glyph glyph-name="Acute" unicode="&#xf6c9;" horiz-adv-x="1024" 
d="M367 1589l141 322h311l-239 -322h-213z" />
    <glyph glyph-name="Caron" unicode="&#xf6ca;" horiz-adv-x="1024" 
d="M512 1745l76 158h258l-228 -318h-212l-230 318h260z" />
    <glyph glyph-name="Dieresis" unicode="&#xf6cb;" horiz-adv-x="1024" 
d="M565 1595v269h254v-269h-254zM205 1595v269h254v-269h-254z" />
    <glyph glyph-name="Grave" unicode="&#xf6ce;" horiz-adv-x="1024" 
d="M657 1589h-213l-239 322h311z" />
    <glyph glyph-name="Hungarumlaut" unicode="&#xf6cf;" horiz-adv-x="1024" 
d="M547 1589l110 322h285l-199 -322h-196zM229 1589l111 322h283l-197 -322h-197z" />
    <glyph glyph-name="Macron" unicode="&#xf6d0;" horiz-adv-x="1024" 
d="M227 1628v207h570v-207h-570z" />
    <glyph glyph-name="zerooldstyle" unicode="&#xf730;" horiz-adv-x="909" 
d="M545 512v123q1 178 -17 234q-18 57 -73 57t-73 -56t-17 -235v-123q0 -178 17 -234q16 -56 72 -56t74 56t17 234zM70 485v177q0 266 80 376q90 131 302 131q212 -1 300 -117t88 -390v-177q0 -274 -88 -391t-308 -117t-311 156q-63 110 -63 352z" />
    <glyph glyph-name="oneoldstyle" unicode="&#xf731;" horiz-adv-x="614" 
d="M199 0v817l-140 -67l-108 229l352 168h199v-1147h-303z" />
    <glyph glyph-name="twooldstyle" unicode="&#xf732;" horiz-adv-x="784" 
d="M12 0v203l303 358q152 181 152 273t-76 92q-47 0 -69 -30t-25 -99h-272q2 193 92 283t278 89q360 0 361 -317q0 -154 -86 -277q-39 -55 -178 -208l-119 -129h379v-238h-740z" />
    <glyph glyph-name="threeoldstyle" unicode="&#xf733;" horiz-adv-x="843" 
d="M207 338v233h88q111 0 147 38t35 153q0 164 -74 164q-37 0 -53 -30t-22 -105h-277q6 168 64 247q97 131 287 131q378 0 378 -389q0 -231 -125 -323q82 -49 117 -130t35 -225q0 -213 -97 -315t-296 -102q-246 0 -336 157q-41 72 -47 219h276q6 -133 92 -133q104 0 105 185
q0 119 -45 172t-146 53h-106z" />
    <glyph glyph-name="fouroldstyle" unicode="&#xf734;" horiz-adv-x="778" 
d="M436 -293v293h-456v182l339 965h308l-318 -905h127v260h271v-260h106v-242h-106v-293h-271z" />
    <glyph glyph-name="fiveoldstyle" unicode="&#xf735;" horiz-adv-x="856" 
d="M758 1147v-248h-383l-13 -293q51 14 119 15q174 1 243 -95t69 -338q1 -150 -17 -234q-56 -269 -377 -269q-244 0 -336 157q-41 72 -47 219h277q6 -133 90 -133q57 0 82 56t25 186q0 131 -19 176q-18 45 -78 45t-96 -84l-217 45l33 795h645z" />
    <glyph glyph-name="sixoldstyle" unicode="&#xf736;" horiz-adv-x="870" 
d="M442 721q-68 0 -82 -84q-8 -35 -8 -179t10 -177q18 -72 82 -72t78 84q8 35 8 179t-10 177q-19 72 -78 72zM547 938q203 0 253 -212q22 -93 22 -255t-21 -249q-20 -87 -72 -138q-100 -106 -298 -106t-298 128q-72 92 -72 347q0 139 23 240t80 225l242 516h329l-237 -500
q37 4 49 4z" />
    <glyph glyph-name="sevenoldstyle" unicode="&#xf737;" horiz-adv-x="661" 
d="M-16 899v248h661v-180l-291 -1260h-321l315 1192h-364z" />
    <glyph glyph-name="eightoldstyle" unicode="&#xf738;" horiz-adv-x="892" 
d="M444 643q-64 0 -86 -70q-8 -27 -8 -149t12 -156q24 -59 88 -59t85 70q8 27 8 147t-13 158q-22 59 -86 59zM447 1241q-59 0 -78 -63q-7 -34 -7 -140t11 -137q18 -55 75 -55t76 65q6 31 6 139t-10 136q-14 55 -73 55zM92 1055q0 205 86 303t267 98t269 -97t87 -300
q1 -135 -19 -189t-30 -66q-10 -13 -47 -42q57 -35 79 -82q50 -94 50 -296t-92 -304t-296 -102q-206 0 -296 102t-90 306t49 296q24 45 79 80q-57 43 -71 90q-25 88 -25 203z" />
    <glyph glyph-name="nineoldstyle" unicode="&#xf739;" horiz-adv-x="870" 
d="M430 938q-68 0 -82 -84q-8 -34 -8 -178t10 -178q18 -72 78 -72q68 0 82 84q8 34 8 178t-10 178q-19 72 -78 72zM324 209q-112 0 -172 59q-60 58 -82 152t-21 256q0 162 21 249q20 87 71 138q100 106 298 106t298 -129q72 -92 72 -346q0 -141 -19 -232t-83 -233l-242 -544
h-330l238 528q-37 -4 -49 -4z" />
    <glyph glyph-name="Dbreve" horiz-adv-x="1058" 
d="M188 1905h172q10 -78 40 -106q30 -27 101 -27t101 28t39 105h172q-4 -97 -11 -135t-26 -72q-39 -70 -102 -100t-172 -29q-223 0 -287 151q-21 46 -27 185zM412 242h92q78 2 112 22t46 72t12 176v438q0 123 -12 175q-12 53 -46 73t-112 23h-92v-979zM109 0v1462h380
q270 4 381 -100t107 -358v-545q4 -255 -107 -359t-381 -100h-380z" />
    <glyph glyph-name="ahungarumlaut" horiz-adv-x="884" 
d="M477 1186l111 321h284l-198 -321h-197zM160 1186l110 321h283l-197 -321h-196zM520 459h-47q-80 0 -112 -31q-31 -31 -31 -104q0 -74 20 -98t74 -24t75 30q22 30 21 106v121zM520 651v19q0 110 -19 150t-69 40t-72 -24q-20 -25 -20 -82h-266q6 156 57 223q88 119 294 119
t294 -106t88 -343v-647h-223l-17 59q-73 -82 -225 -82t-226 79t-73 263q0 185 75 259t267 73h135z" />
    <glyph glyph-name="uni0204.sc" horiz-adv-x="800" 
d="M385 1264h-195l-198 321h282zM705 1264h-197l-199 321h285zM96 0v1147h662v-238h-367v-213h309v-237h-309v-221h377v-238h-672z" />
    <glyph glyph-name="uni0206.sc" horiz-adv-x="800" 
d="M414 1397q-70 0 -100 -28t-40 -105h-172q4 150 37 206q37 70 102 100t173 29q223 0 286 -151q23 -51 27 -184h-172q-10 76 -40 104q-31 28 -101 29zM96 0v1147h662v-238h-367v-213h309v-237h-309v-221h377v-238h-672z" />
    <glyph glyph-name="uni0208.sc" horiz-adv-x="483" 
d="M205 1264h-195l-198 321h282zM524 1264h-196l-199 321h285zM94 0v1147h295v-1147h-295z" />
    <glyph glyph-name="uni020A.sc" horiz-adv-x="483" 
d="M242 1397q-70 0 -100 -28t-40 -105h-172q4 150 37 206q37 70 102 100t173 29q223 0 286 -151q23 -51 27 -184h-172q-10 76 -40 104q-31 28 -101 29zM94 0v1147h295v-1147h-295z" />
    <glyph glyph-name="uni020C.sc" horiz-adv-x="925" 
d="M426 1264h-195l-198 321h282zM745 1264h-196l-199 321h285zM563 430v287q0 125 -16 157q-25 52 -84 52t-79 -43t-22 -166v-287q0 -125 17 -158q25 -51 87 -51t85 62q12 30 12 147zM70 412v323q0 238 87 333t323 95t323 -141q53 -92 53 -287v-323q0 -215 -68 -308
q-88 -120 -316 -120t-315 95t-87 333z" />
    <glyph glyph-name="uni020E.sc" horiz-adv-x="925" 
d="M458 1397q-70 0 -101 -28q-30 -28 -40 -105h-172q4 150 37 206q37 70 102 100t173 29q223 0 286 -151q23 -51 27 -184h-172q-10 76 -40 104t-100 29zM563 430v287q0 125 -16 157q-25 52 -84 52t-79 -43t-22 -166v-287q0 -125 17 -158q25 -51 87 -51t85 62q12 30 12 147z
M70 412v323q0 238 87 333t323 95t323 -141q53 -92 53 -287v-323q0 -215 -68 -308q-88 -120 -316 -120t-315 95t-87 333z" />
    <glyph glyph-name="uni0210.sc" horiz-adv-x="901" 
d="M367 1264h-195l-199 321h283zM686 1264h-197l-198 321h284zM385 666h49q59 0 84 26t25 96q0 68 -23 97t-82 28h-53v-247zM391 440v-440h-295v1147h314q242 0 336 -77t94 -273q0 -123 -37 -193t-127 -115l227 -489h-336l-159 440h-17z" />
    <glyph glyph-name="uni0212.sc" horiz-adv-x="901" 
d="M437 1397q-71 0 -101 -28t-39 -105h-172q4 150 37 206q38 70 102 100t172 29q223 0 287 -151q23 -51 27 -184h-172q-10 76 -40 104t-101 29zM385 666h49q59 0 84 26t25 96q0 68 -23 97t-82 28h-53v-247zM391 440v-440h-295v1147h314q242 0 336 -77t94 -273
q0 -123 -37 -193t-127 -115l227 -489h-336l-159 440h-17z" />
    <glyph glyph-name="uni0214.sc" horiz-adv-x="948" 
d="M438 1264h-194l-199 321h283zM758 1264h-197l-199 321h285zM90 1147h295v-764q0 -96 17 -129q16 -33 70 -33t73 32q18 32 18 130v764h295v-764q0 -119 -13 -178q-49 -222 -370 -221q-248 0 -336 135q-49 74 -49 264v764z" />
    <glyph glyph-name="uni0216.sc" horiz-adv-x="948" 
d="M476 1397q-70 0 -100 -28t-40 -105h-172q4 150 37 206q37 70 101 100t173 29q223 0 287 -151q22 -51 26 -184h-172q-10 76 -40 104t-100 29zM90 1147h295v-764q0 -96 17 -129q16 -33 70 -33t73 32q18 32 18 130v764h295v-764q0 -119 -13 -178q-49 -222 -370 -221
q-248 0 -336 135q-49 74 -49 264v764z" />
    <glyph glyph-name="uni1E24.sc" horiz-adv-x="964" 
d="M346 -436v272h275v-272h-275zM94 0v1147h295v-451h186v451h295v-1147h-295v459h-186v-459h-295z" />
    <glyph glyph-name="uni1E5A.sc" horiz-adv-x="901" 
d="M313 -436v272h275v-272h-275zM385 666h49q59 0 84 26t25 96q0 68 -23 97t-82 28h-53v-247zM391 440v-440h-295v1147h314q242 0 336 -77t94 -273q0 -123 -37 -193t-127 -115l227 -489h-336l-159 440h-17z" />
    <glyph glyph-name="uni1E62.sc" horiz-adv-x="798" 
d="M262 -436v272h275v-272h-275zM385 221q98 0 98 117q0 71 -62 95q-17 7 -139 42t-184 112q-63 77 -63 220q0 352 346 352q238 0 319 -162q33 -68 39 -225h-272q-5 88 -21 119t-52 31q-73 0 -75 -105q0 -47 31 -75q32 -28 146 -62t172 -74q100 -72 100 -260t-92 -275
t-291 -87q-264 0 -340 188q-29 67 -31 217h275q1 -92 23 -130t73 -38z" />
    <glyph glyph-name="uni1E6C.sc" horiz-adv-x="706" 
d="M217 -436v272h275v-272h-275zM205 0v909h-215v238h727v-238h-217v-909h-295z" />
    <glyph glyph-name="uni1E92.sc" horiz-adv-x="716" 
d="M221 -436v272h275v-272h-275zM-4 0v160l362 749h-321v238h657v-160l-362 -749h381v-238h-717z" />
    <glyph glyph-name="uni1E44.sc" horiz-adv-x="987" 
d="M356 1268v272h275v-272h-275zM94 0v1147h287l237 -551v551h275v-1147h-244l-280 608v-608h-275z" />
    <glyph glyph-name="uni1E0C.sc" horiz-adv-x="923" 
d="M276 -436v272h275v-272h-275zM389 233h53q78 4 98 34q19 30 19 143v327q0 113 -19 143t-98 33h-53v-680zM94 0v1147h334q238 4 334 -80t92 -291v-405q4 -207 -92 -291t-334 -80h-334z" />
    <glyph glyph-name="uni1E02.sc" horiz-adv-x="907" 
d="M283 1268v272h274v-272h-274zM389 233h66q59 0 82 25q23 24 23 90t-22 92t-75 27h-74v-234zM389 698h64q92 0 92 107q0 57 -22 83t-70 25h-64v-215zM94 0v1147h377q205 0 288 -75t83 -244t-70 -232q84 -86 84 -269t-94 -266q-72 -61 -242 -61h-426z" />
    <glyph glyph-name="idotaccent" horiz-adv-x="462" 
d="M88 0v1073h287v-1073h-287zM88 1192v283h287v-283h-287z" />
    <glyph glyph-name="one.fitted" horiz-adv-x="614" 
d="M199 0v1133l-140 -68l-108 229l352 168h199v-1462h-303z" />
    <glyph glyph-name="two.fitted" horiz-adv-x="804" 
d="M-27 0v213l314 475q154 233 153 404q0 84 -17 116t-65 33q-48 0 -67 -47q-20 -47 -25 -162h-278q4 236 96 344t280 109q378 0 379 -383q0 -186 -84 -344q-41 -74 -180 -277l-162 -233h422v-248h-766z" />
    <glyph glyph-name="three.fitted" horiz-adv-x="800" 
d="M217 653v234h100q76 0 101 37t24 147q0 170 -80 170q-45 0 -63 -39t-27 -141h-276q6 186 65 276q98 147 296 147q388 1 388 -394q0 -244 -96 -318q67 -49 95 -130t28 -222q0 -225 -97 -334t-296 -109q-248 0 -340 189q-41 82 -47 256h276q6 -201 99 -201q102 0 102 209
q0 117 -32 170t-101 53h-119z" />
    <glyph glyph-name="four.fitted" horiz-adv-x="833" 
d="M449 0v252h-441v182l340 1028h307l-317 -968h111v260h270v-260h90v-242h-90v-252h-270z" />
    <glyph glyph-name="five.fitted" horiz-adv-x="856" 
d="M758 1462v-248h-383l-13 -294q47 16 119 16q170 0 241 -95t71 -359t-78 -371q-92 -133 -328 -133t-328 188q-41 82 -47 256h277q6 -201 98 -201q53 -1 78 61t25 198t-18 182q-17 46 -78 45q-61 0 -97 -84l-217 45l33 794h645z" />
    <glyph glyph-name="six.fitted" horiz-adv-x="870" 
d="M442 721q-68 0 -82 -84q-8 -35 -8 -179t10 -177q18 -72 82 -72t78 84q8 35 8 179t-10 177q-19 72 -78 72zM547 938q203 0 253 -212q22 -93 22 -255t-21 -249q-20 -87 -72 -138q-100 -106 -298 -106t-298 128q-72 92 -72 347q0 141 20 232q19 91 83 233l242 544h329
l-237 -528q37 4 49 4z" />
    <glyph glyph-name="seven.fitted" horiz-adv-x="661" 
d="M-16 1214v248h661v-180l-291 -1282h-321l315 1214h-364z" />
    <glyph glyph-name="eight.fitted" horiz-adv-x="892" 
d="M444 655q-64 0 -86 -71q-8 -31 -8 -156t12 -158q24 -61 88 -61t85 72q8 31 8 153t-13 160q-22 61 -86 61zM446 1270q-58 0 -77 -68q-7 -34 -7 -144t11 -143q18 -57 75 -57t76 68q6 34 6 146t-10 140q-16 58 -74 58zM92 1075q0 211 86 310t267 99t269 -98q88 -100 87 -307
q1 -137 -19 -193t-30 -68q-10 -13 -47 -44q57 -35 79 -82q50 -98 50 -302t-92 -308t-296 -104q-206 0 -296 104t-90 311t49 299q24 47 79 82q-55 43 -71 94q-25 88 -25 207z" />
    <glyph glyph-name="nine.fitted" horiz-adv-x="870" 
d="M426 1253q-64 0 -78 -75q-8 -31 -8 -159t10 -159q18 -66 82 -66t78 76q8 31 8 159t-10 159q-18 65 -82 65zM322 578q-158 0 -224 122q-49 92 -49 282t21 271q20 82 71 131q100 100 299 100t297 -120q72 -88 72 -328q-1 -137 -21 -225t-81 -227l-267 -584h-327l266 584
q-37 -6 -57 -6z" />
    <glyph glyph-name="zero.fitted" horiz-adv-x="909" 
d="M545 512v438q1 178 -17 234t-73 57q-55 0 -73 -56t-17 -235v-438q0 -178 17 -234q16 -56 72 -56t74 56t17 234zM70 485v492q0 274 88 391t297 117t297 -117t88 -391v-492q0 -274 -88 -391t-297 -117t-297 117t-88 391z" />
    <glyph glyph-name="sterling.fitted" horiz-adv-x="866" 
d="M66 0v213q178 51 178 258q0 55 -11 102h-170v248h89q-53 137 -54 277q0 383 371 383q231 0 324 -178q49 -100 51 -271h-277q-6 121 -23 163t-63 42q-80 0 -80 -164q0 -96 64 -252h252v-248h-193q2 -31 2 -77q0 -168 -67 -248h407v-248h-800z" />
    <glyph glyph-name="dollar.fitted" horiz-adv-x="901" 
d="M436 240q128 0 127 189q1 95 -27 127t-50 42t-126 47q-162 55 -232 153t-69 265q0 324 246 379v225h295v-242q203 -86 205 -366h-277q-8 96 -26 128t-68 32q-94 0 -94 -142q0 -77 37 -117t167 -85t191 -101q109 -94 109 -317q0 -352 -244 -428v-308h-295v299
q-270 70 -270 457h278q2 -131 29 -184q28 -53 94 -53z" />
    <glyph glyph-name="cent.fitted" 
d="M326 61v226q-119 35 -173 134t-55 286v225q0 188 54 288t174 132v225h295v-229q104 -37 150 -116t48 -224h-254q0 141 -96 141q-53 0 -73 -42t-21 -155v-266q0 -110 20 -152t76 -42q92 0 98 139h256q-2 -145 -50 -225t-154 -113v-232h-295z" />
    <glyph glyph-name="Euro.fitted" horiz-adv-x="942" 
d="M154 635v100h-131l57 160h74v57q0 291 84 402q98 131 299 131q240 0 331 -191q41 -86 47 -258h-278q-7 121 -25 163t-68 42t-68 -62t-19 -249v-35h346l-60 -160h-286v-100h260l-60 -160h-200q2 -154 22 -204t80 -50q92 0 94 148h277q-2 -170 -64 -256q-96 -135 -319 -136
q-274 0 -352 211q-39 104 -41 287h-131l57 160h74z" />
    <glyph glyph-name="yen.fitted" horiz-adv-x="917" 
d="M307 0v276h-213v160h213v94h-213v160h154l-289 772h320l180 -631l178 631h321l-290 -772h155v-160h-213v-94h213v-160h-213v-276h-303z" />
    <glyph glyph-name="one.numerator" horiz-adv-x="634" 
d="M215 586v637l-109 -45l-77 172l262 112h153v-876h-229z" />
    <glyph glyph-name="two.numerator" horiz-adv-x="634" 
d="M35 586v153l207 275q98 129 98 207t-37 77q-29 0 -39 -24t-12 -94h-207q1 160 63 228t203 67q266 0 267 -236q0 -101 -28 -159t-149 -212l-79 -102h251v-180h-538z" />
    <glyph glyph-name="three.numerator" horiz-adv-x="634" 
d="M186 967v157h84q44 0 60 20t16 73q0 82 -51 81q-25 0 -35 -18t-14 -63h-205q2 111 39 163q63 94 227 95q260 0 260 -242q0 -125 -59 -184q43 -35 59 -80t17 -125q0 -141 -66 -206t-211 -65q-190 0 -246 125q-20 49 -22 146h205q2 -94 55 -94q63 0 63 96q0 121 -79 121
h-97z" />
    <glyph glyph-name="four.numerator" horiz-adv-x="634" 
d="M352 586v145h-313v131l211 600h225l-194 -557h71v150h187v-150h57v-174h-57v-145h-187z" />
    <glyph glyph-name="five.numerator" horiz-adv-x="634" 
d="M555 1462v-180h-262l-6 -129q41 6 69 6q127 0 174 -60q48 -60 48 -222t-54 -224q-68 -80 -223 -80q-190 0 -246 125q-20 49 -22 146h205q2 -94 55 -94q35 0 49 24t14 94q0 68 -10 96t-41 28t-55 -52l-174 31l22 491h457z" />
    <glyph glyph-name="six.numerator" horiz-adv-x="634" 
d="M314 993q-34 1 -44 -23t-10 -102t10 -102t44 -23q34 0 44 24q10 23 10 101t-10 102t-44 23zM590 872q0 -158 -66 -228t-212 -71q-146 0 -210 66q-63 66 -63 217q0 92 13 142t63 139l178 325h262l-178 -305q121 -2 167 -64q46 -63 46 -221z" />
    <glyph glyph-name="seven.numerator" horiz-adv-x="634" 
d="M61 1282v180h488v-131l-211 -745h-252l238 696h-263z" />
    <glyph glyph-name="eight.numerator" horiz-adv-x="634" 
d="M317 956q-35 0 -47 -22t-12 -84q0 -63 12 -85t47 -22t48 22q12 22 12 85t-12 85q-13 21 -48 21zM318 1317q-36 1 -47 -19t-11 -82t11 -82t46 -20t47 20t11 82t-11 82t-46 19zM575 1224q0 -130 -63 -171q86 -51 86 -204t-67 -214t-214 -61t-214 60q-67 62 -67 213t87 206
q-63 41 -63 171t60 190q62 60 198 60t196 -60t61 -190z" />
    <glyph glyph-name="nine.numerator" horiz-adv-x="634" 
d="M318 1305q-34 -1 -44 -21t-10 -92t10 -94t44 -21q34 0 44 22q10 21 10 93t-10 92t-44 21zM43 1188q0 152 66 220q65 68 211 67t210 -63t64 -208q0 -92 -14 -145t-62 -141l-176 -332h-262l184 332q-125 2 -173 60t-48 210z" />
    <glyph glyph-name="zero.numerator" horiz-adv-x="634" 
d="M369 897v254q-1 88 -11 118q-10 29 -41 29t-41 -30t-10 -117v-254q0 -88 10 -118q10 -29 41 -29t41 30t11 117zM37 903v242q0 182 62 256t218 74q157 0 219 -74t62 -256v-242q0 -182 -62 -256t-218 -74t-219 74q-62 74 -62 256z" />
    <glyph glyph-name="one.denominator" horiz-adv-x="634" 
d="M215 0v637l-109 -45l-77 172l262 113h153v-877h-229z" />
    <glyph glyph-name="two.denominator" horiz-adv-x="634" 
d="M35 0v154l207 274q98 129 98 207t-37 78q-29 0 -39 -24t-12 -95h-207q1 160 63 228t203 67q266 0 267 -236q0 -100 -28 -158t-149 -212l-79 -103h251v-180h-538z" />
    <glyph glyph-name="three.denominator" horiz-adv-x="634" 
d="M186 381v158h84q43 0 60 19q16 19 16 73q0 82 -51 82q-25 -1 -35 -19t-14 -63h-205q2 111 39 164q63 94 227 94q260 0 260 -242q0 -125 -59 -184q43 -35 59 -80t17 -125q0 -141 -66 -206t-211 -64q-190 0 -246 125q-20 49 -22 145h205q2 -94 55 -94q63 0 63 96
q0 121 -79 121h-97z" />
    <glyph glyph-name="four.denominator" horiz-adv-x="634" 
d="M352 0v145h-313v131l211 601h225l-194 -558h71v150h187v-150h57v-174h-57v-145h-187z" />
    <glyph glyph-name="five.denominator" horiz-adv-x="634" 
d="M555 877v-181h-262l-6 -129q41 6 69 6q127 0 174 -60q48 -60 48 -222t-54 -223q-68 -80 -223 -80q-190 0 -246 125q-20 49 -22 145h205q2 -94 55 -94q35 0 49 24t14 94q0 68 -10 96t-41 28t-55 -52l-174 31l22 492h457z" />
    <glyph glyph-name="six.denominator" horiz-adv-x="634" 
d="M314 408q-34 0 -44 -24t-10 -102t10 -101t44 -23t44 24t11 101q-1 77 -11 101t-44 24zM590 287q0 -158 -66 -229q-66 -70 -212 -70t-210 65q-63 66 -63 217q0 92 13 142t63 139l178 326h262l-178 -306q121 -2 167 -64t46 -220z" />
    <glyph glyph-name="seven.denominator" horiz-adv-x="634" 
d="M61 696v181h488v-132l-211 -745h-252l238 696h-263z" />
    <glyph glyph-name="eight.denominator" horiz-adv-x="634" 
d="M317 371q-35 0 -47 -22t-12 -85t12 -85q12 -21 47 -21t48 21q12 22 12 85t-12 85q-13 22 -48 22zM318 731q-36 0 -47 -19q-11 -20 -11 -82t11 -82t46 -20t47 20t11 82q0 62 -10 82q-11 19 -47 19zM575 638q0 -130 -63 -171q86 -51 86 -203t-67 -214t-214 -62t-214 61
t-67 212t87 206q-63 41 -63 171t60 190q62 60 198 60t196 -60t61 -190z" />
    <glyph glyph-name="nine.denominator" horiz-adv-x="634" 
d="M264 606q0 -72 10 -94t44 -20q34 0 44 22t10 92q0 72 -10 92t-44 21q-34 -1 -44 -21t-10 -92zM43 602q0 152 66 220q65 68 211 67t210 -63t64 -208q0 -92 -14 -145t-62 -141l-176 -332h-262l184 332q-125 2 -173 60t-48 210z" />
    <glyph glyph-name="zero.denominator" horiz-adv-x="634" 
d="M369 311v254q-1 88 -11 118t-41 30t-41 -30t-10 -118v-254q0 -87 10 -117t41 -30t41 30t11 117zM37 317v242q0 182 62 256t218 74q157 0 219 -74t62 -256v-242q0 -182 -62 -256q-62 -73 -218 -73t-219 74q-62 74 -62 255z" />
    <glyph glyph-name="oneone" horiz-adv-x="1595" 
d="M416 0l362 1462h264l-364 -1462h-262zM1122 0v637l-108 -45l-78 172l262 113h154v-877h-230zM244 586v637l-109 -45l-78 172l262 112h154v-876h-229z" />
    <glyph glyph-name="Dotaccent" horiz-adv-x="1024" 
d="M375 1591v273h274v-273h-274z" />
    <glyph glyph-name="Ring" horiz-adv-x="1024" 
d="M512 1913q-80 0 -80 -107t80 -106q80 0 80 106t-80 107zM262 1810q0 106 68 170t182 64t182 -65t68 -170t-70 -173t-180 -68t-180 68t-70 174z" />
    <glyph glyph-name="Circumflex" horiz-adv-x="1024" 
d="M512 1751l-76 -158h-260l227 316h215l228 -316h-258z" />
    <glyph glyph-name="Breve" horiz-adv-x="1024" 
d="M199 1905h172q10 -78 40 -106q31 -27 101 -27t100 28t39 105h172q-4 -97 -11 -135t-26 -72q-39 -70 -102 -100t-172 -29q-223 0 -287 151q-20 46 -26 185z" />
    <glyph glyph-name="Tilde" horiz-adv-x="1024" 
d="M402 1909q88 1 144 -61t70 -62q41 0 48 108h167q-8 -164 -56 -238t-146 -73q-99 -1 -147 61t-66 62q-50 0 -56 -109h-167q30 312 209 312z" />
    <glyph glyph-name="Cedilla" horiz-adv-x="1024" 
d="M350 -494l74 367h266l-149 -367h-191z" />
    <glyph glyph-name="Ogonek" horiz-adv-x="1024" 
d="M684 -281q39 0 100 21l31 -139q-88 -41 -197 -41q-246 0 -245 176q0 121 129 223q31 25 47 41h201q-10 -14 -13 -14l-37 -43q-76 -80 -76 -152t60 -72z" />
    <glyph glyph-name="Commaaccent" horiz-adv-x="1024" 
d="M350 -494l74 367h266l-149 -367h-191z" />
    <glyph glyph-name="Comma.high" horiz-adv-x="296" 
d="M-10 913l61 586h264l-127 -586h-198z" />
    <glyph glyph-name="Croatumlaut" horiz-adv-x="1024" 
d="M475 1589h-194l-199 322h283zM795 1589h-197l-199 322h285z" />
    <glyph glyph-name="Croatbreve" horiz-adv-x="1024" 
d="M512 1925q223 0 287 -151q22 -52 26 -185h-172q-10 76 -40 105q-31 28 -101 28t-100 -28t-39 -105h-172q4 150 37 207q38 70 102 100t172 29z" />
    <glyph glyph-name="Cicumflexacute" horiz-adv-x="1024" 
d="M741 1739l131 295h283l-242 -322h-153l86 -119h-258l-76 158l-76 -158h-260l227 316h215z" />
    <glyph glyph-name="Ringacute" horiz-adv-x="1024" 
d="M391 1849l117 275h358l-274 -275h-201zM512 1675q-80 -1 -80 -107t80 -106t80 106t-80 107zM262 1573q0 105 68 169t182 64t182 -64t68 -170q0 -105 -70 -173t-180 -68t-180 68t-70 174z" />
    <glyph glyph-name="croatumlaut" horiz-adv-x="1024" 
d="M475 1186h-194l-199 321h283zM795 1186h-197l-199 321h285z" />
    <glyph glyph-name="croatbreve" horiz-adv-x="1024" 
d="M512 1319q-70 0 -100 -28t-39 -105h-172q4 150 37 207q38 69 102 99t172 30q223 0 287 -152q22 -51 26 -184h-172q-10 76 -40 104q-31 28 -101 29z" />
    <glyph glyph-name="cicumflexacute" horiz-adv-x="1024" 
d="M741 1331l131 295h283l-242 -321h-153l86 -119h-258l-76 157l-76 -157h-260l227 315h215z" />
    <glyph glyph-name="ringacute" horiz-adv-x="1024" 
d="M391 1683l117 275h358l-274 -275h-201zM512 1509q-80 -1 -80 -107t80 -106t80 106t-80 107zM262 1407q0 105 68 169t182 64t182 -64t68 -170q0 -105 -70 -173t-180 -68t-180 68t-70 174z" />
    <glyph glyph-name="Ohorn.sc" horiz-adv-x="1038" 
d="M563 430v285q0 127 -16 159q-25 52 -84 52t-79 -43t-22 -168v-285q0 -125 17 -158q25 -51 87 -51t85 62q12 30 12 147zM856 412q0 -215 -68 -308q-88 -120 -316 -120t-315 95t-87 333v323q0 238 87 333t287 95q200 1 290 -65q89 -66 114 -219q25 63 25 131t-39 147h237
q20 -70 21 -119q0 -199 -236 -342v-284z" />
    <glyph glyph-name="Uhorn.sc" horiz-adv-x="1128" 
d="M90 1147h295v-764q0 -96 17 -129q16 -33 70 -33t73 32q18 32 18 130v764h295v-334q100 70 100 195q0 78 -36 149h237q16 -55 17 -113q0 -120 -67 -206t-251 -201v-254q0 -119 -13 -178q-49 -222 -370 -221q-248 0 -336 135q-49 74 -49 264v764z" />
    <glyph glyph-name="uni1EA0.sc" horiz-adv-x="856" 
d="M291 -436v272h274v-272h-274zM512 428l-80 371l-82 -371h162zM559 209h-256l-45 -209h-324l359 1147h276l359 -1147h-324z" />
    <glyph glyph-name="uni1EA2.sc" horiz-adv-x="856" 
d="M403 1528q1 31 -35 31t-126 -39l-54 184q137 43 239 43t162 -53t60 -150q0 -47 -14 -73q-13 -26 -55 -69q-42 -44 -48 -66t-8 -79h-200q2 111 11 147t39 72t29 52zM512 428l-80 371l-82 -371h162zM559 209h-256l-45 -209h-324l359 1147h276l359 -1147h-324z" />
    <glyph glyph-name="uni1EA4.sc" horiz-adv-x="856" 
d="M428 1341l-68 -108h-239l209 258h196l211 -258h-239zM348 1546l96 242h209l-157 -242h-148zM512 428l-80 371l-82 -371h162zM559 209h-256l-45 -209h-324l359 1147h276l359 -1147h-324z" />
    <glyph glyph-name="uni1EA6.sc" horiz-adv-x="856" 
d="M428 1341l-68 -108h-239l209 258h196l209 -258h-237zM504 1546h-150l-155 242h207zM512 428l-80 371l-82 -371h162zM559 209h-256l-45 -209h-324l359 1147h276l359 -1147h-324z" />
    <glyph glyph-name="uni1EA8.sc" horiz-adv-x="856" 
d="M428 1333l-68 -100h-239l209 233h196l211 -233h-239zM500 1497h-158q0 66 3 84t21 44t19 43q0 17 -14 18q-18 0 -68 -29l-37 123q68 32 143 32t117 -38t41 -92q0 -56 -30 -89l-25 -26q-12 -19 -12 -70zM512 428l-80 371l-82 -371h162zM559 209h-256l-45 -209h-324
l359 1147h276l359 -1147h-324z" />
    <glyph glyph-name="uni1EAA.sc" horiz-adv-x="856" 
d="M428 1341l-70 -108h-239l209 258h198l209 -258h-239zM674 1780q-8 -250 -160 -250q-76 0 -121 55q-39 43 -51 43t-26 -26t-17 -60h-133q28 250 166 250q70 0 114 -50q45 -50 58 -50q31 0 37 88h133zM512 428l-80 371l-82 -371h162zM559 209h-256l-45 -209h-324l359 1147
h276l359 -1147h-324z" />
    <glyph glyph-name="uni1EAC.sc" horiz-adv-x="856" 
d="M291 -436v272h274v-272h-274zM428 1425l-76 -157h-260l230 315h213l229 -315h-260zM512 428l-80 371l-82 -371h162zM559 209h-256l-45 -209h-324l359 1147h276l359 -1147h-324z" />
    <glyph glyph-name="uni1EAE.sc" horiz-adv-x="856" 
d="M427 1415q64 0 92 25t38 94h158q-4 -143 -33 -193q-35 -65 -94 -93q-58 -28 -162 -28t-167 34q-62 34 -93 108q-19 43 -25 172h160q8 -70 35 -94t91 -25zM348 1546l96 242h209l-157 -242h-148zM512 428l-80 371l-82 -371h162zM559 209h-256l-45 -209h-324l359 1147h276
l359 -1147h-324z" />
    <glyph glyph-name="uni1EB0.sc" horiz-adv-x="856" 
d="M427 1415q64 0 92 25t38 94h158q-4 -143 -33 -193q-35 -65 -94 -93q-58 -28 -162 -28t-167 34q-62 34 -93 108q-19 43 -25 172h160q8 -70 35 -94t91 -25zM520 1546h-147l-158 242h207zM512 428l-80 371l-82 -371h162zM559 209h-256l-45 -209h-324l359 1147h276l359 -1147
h-324z" />
    </font>
</defs>
</svg>
