<?xml version="1.0" standalone="no"?>
<!DOCTYPE svg PUBLIC "-//W3C//DTD SVG 1.1//EN" "http://www.w3.org/Graphics/SVG/1.1/DTD/svg11.dtd" >
<svg xmlns="http://www.w3.org/2000/svg">
<metadata>
Created by FontPrep 20130207 at Fri May 26 16:05:42 2017
 By Lizzy Knight
Copyright 2016 by URW++ Design &#38; Development GmbH
</metadata>
<defs>
<font id="c5d7c8a62d300672e26dd7eabc89adec" horiz-adv-x='1024' >
  <font-face 
    font-family="URWDINCond-ThinItalic"
    font-weight="200"
    font-style="italic"
    font-stretch="normal"
    units-per-em="2048"
    panose-1="0 0 3 0 0 0 0 0 0 0"
    ascent="1462"
    descent="-586"
    x-height="1004"
    cap-height="1462"
    bbox="-289 -494 1579 2048"
    underline-thickness="57"
    underline-position="-252"
    slope="-10"
    unicode-range="U+0020-FB04"
  />
<missing-glyph horiz-adv-x="327" 
 />
    <glyph glyph-name="ff" unicode="ff" horiz-adv-x="815" 
d="M635 946h-80l10 58h80l43 235q23 133 64 179t135 44h43l-10 -53h-25q-71 2 -99 -32t-51 -154l-38 -219h141l-10 -58h-142l-166 -946h-61zM238 946h-80l10 58h80l43 235q23 133 63 179q41 46 135 44h43l-10 -53h-24q-72 2 -100 -32t-50 -154l-39 -219h142l-11 -58h-141
l-166 -946h-61z" />
    <glyph glyph-name="fi" unicode="fi" horiz-adv-x="757" 
d="M463 0l176 1004h61l-176 -1004h-61zM690 1294l31 168h61l-30 -168h-62zM238 946h-80l10 58h80l43 235q23 133 63 179q41 46 135 44h43l-10 -53h-24q-72 2 -100 -32t-50 -154l-39 -219h142l-11 -58h-141l-166 -946h-61z" />
    <glyph glyph-name="fl" unicode="fl" horiz-adv-x="794" 
d="M551 132q0 -40 20 -57t70 -18h27l-11 -57h-28q-141 0 -142 115q0 45 13 116l217 1231h61l-217 -1233q-10 -57 -10 -97zM238 946h-80l10 58h80l43 235q23 133 63 179q41 46 135 44h43l-10 -53h-24q-72 2 -100 -32t-50 -154l-39 -219h142l-11 -58h-141l-166 -946h-61z" />
    <glyph glyph-name="ffi" unicode="ffi" horiz-adv-x="1155" 
d="M635 946h-80l10 58h80l43 235q23 133 64 179t135 44h43l-10 -53h-25q-71 2 -99 -32t-51 -154l-38 -219h141l-10 -58h-142l-166 -946h-61zM860 0l176 1004h62l-176 -1004h-62zM1087 1294l31 168h62l-31 -168h-62zM238 946h-80l10 58h80l43 235q23 133 63 179q41 46 135 44
h43l-10 -53h-24q-72 2 -100 -32t-50 -154l-39 -219h142l-11 -58h-141l-166 -946h-61z" />
    <glyph glyph-name="ffl" unicode="ffl" horiz-adv-x="1191" 
d="M635 946h-80l10 58h80l43 235q23 133 64 179t135 44h43l-10 -53h-25q-71 2 -99 -32t-51 -154l-38 -219h141l-10 -58h-142l-166 -946h-61zM948 132q0 -40 20 -57t70 -18h27l-10 -57h-29q-141 0 -141 115q0 45 12 116l217 1231h62l-218 -1233q-10 -57 -10 -97zM238 946h-80
l10 58h80l43 235q23 133 63 179q41 46 135 44h43l-10 -53h-24q-72 2 -100 -32t-50 -154l-39 -219h142l-11 -58h-141l-166 -946h-61z" />
    <glyph glyph-name=".notdef" horiz-adv-x="327" 
 />
    <glyph glyph-name=".null" horiz-adv-x="0" 
 />
    <glyph glyph-name="nonmarkingreturn" horiz-adv-x="681" 
 />
    <glyph glyph-name="space" unicode=" " horiz-adv-x="327" 
 />
    <glyph glyph-name="exclam" unicode="!" horiz-adv-x="358" 
d="M61 0l25 141h61l-24 -141h-62zM129 365l186 1097h68l-203 -1097h-51z" />
    <glyph glyph-name="quotedbl" unicode="&#x22;" horiz-adv-x="432" 
d="M385 981l82 481h61l-88 -481h-55zM162 981l82 481h61l-88 -481h-55z" />
    <glyph glyph-name="numbersign" unicode="#" 
d="M336 575h194l74 279h-194zM281 575l73 279h-227l16 57h226l104 387h55l-104 -387h197l102 387h55l-102 -387h227l-18 -57h-226l-73 -279h225l-18 -57h-222l-108 -412h-55l108 412h-197l-108 -412h-55l110 412h-231l18 57h228z" />
    <glyph glyph-name="dollar" unicode="$" 
d="M178 264q0 -90 50 -138t143 -48q152 0 219 160q51 112 51 228q0 170 -73 214q-19 12 -103 51q-191 84 -191 288t99 329q74 92 200 94l39 217h62l-41 -221q178 -37 178 -224q0 -37 -14 -114h-58q8 68 9 104q0 86 -46 133t-127 47q-121 0 -184 -120q-53 -100 -53 -210
t38 -166t122 -95t114 -61q94 -70 93 -226q0 -211 -93 -359q-72 -115 -227 -127l-51 -286h-62l52 289q-209 29 -209 217q0 45 16 151h57q-10 -82 -10 -127z" />
    <glyph glyph-name="percent" unicode="%" horiz-adv-x="1034" 
d="M264 0l531 1462h59l-530 -1462h-60zM932 592q0 104 -96 104q-60 0 -92 -43t-50 -149l-47 -262q-8 -49 -8 -86q0 -106 96 -107q57 1 91 45t51 148l47 262q8 41 8 88zM995 616q0 -58 -8 -106l-49 -274q-43 -244 -211 -244q-150 0 -149 160q0 45 10 96l49 274q23 123 69 177
q46 55 127 55t121 -40t41 -98zM479 1315q0 104 -96 104q-57 0 -90 -44t-51 -148l-45 -262q-10 -53 -11 -88q0 -104 97 -105q59 0 92 44t51 149l45 262q8 53 8 88zM543 1336q0 -60 -8 -103l-50 -275q-41 -244 -213 -243q-147 0 -147 159q0 40 10 97l49 274q20 123 68 177
t129 54q80 0 121 -39q41 -41 41 -101z" />
    <glyph glyph-name="ampersand" unicode="&#x26;" horiz-adv-x="1013" 
d="M164 178q0 -88 36 -136t101 -48q159 0 315 231l-141 502q-111 -88 -141 -117t-64 -80q-106 -147 -106 -352zM459 1134q0 -120 53 -305q96 88 147 162q96 141 97 316q0 150 -119 149q-90 0 -137 -110q-41 -92 -41 -212zM297 -63q-94 0 -145 62t-52 175q0 223 123 395
q41 55 75 86t161 131q-63 238 -64 340q0 168 64 277q70 111 178 110q86 0 134 -56t48 -157q0 -188 -112 -346q-55 -78 -179 -182l136 -473q98 178 147 338h61q-10 -20 -14 -37q-78 -219 -174 -379l64 -221h-68l-41 150q-162 -213 -342 -213z" />
    <glyph glyph-name="quotesingle" unicode="'" horiz-adv-x="208" 
d="M162 981l82 481h61l-88 -481h-55z" />
    <glyph glyph-name="parenleft" unicode="(" horiz-adv-x="532" 
d="M250 193q0 -234 39 -410l-53 -16q-49 186 -50 440q0 373 105 767q104 394 278 671l41 -29q-162 -279 -261 -672t-99 -751z" />
    <glyph glyph-name="parenright" unicode=")" horiz-adv-x="532" 
d="M420 1206q0 -373 -104 -767t-279 -672l-41 28q162 281 261 673t99 751q0 235 -39 409l54 17q49 -186 49 -439z" />
    <glyph glyph-name="asterisk" unicode="*" 
d="M555 1145l-211 -275l-57 50l233 266l-276 129l39 65l260 -151l49 334l72 -15l-68 -329l297 55l14 -76l-305 -27l129 -331l-72 -25z" />
    <glyph glyph-name="plus" unicode="+" 
d="M176 731l10 57h269l59 334h53l-59 -334h268l-10 -57h-268l-60 -334h-53l59 334h-268z" />
    <glyph glyph-name="comma" unicode="," horiz-adv-x="335" 
d="M-74 -385l150 526h69l-170 -526h-49z" />
    <glyph glyph-name="hyphen" unicode="-" horiz-adv-x="595" 
d="M176 731l10 57h326l-10 -57h-326z" />
    <glyph glyph-name="period" unicode="." horiz-adv-x="339" 
d="M51 0l25 141h61l-24 -141h-62z" />
    <glyph glyph-name="slash" unicode="/" horiz-adv-x="505" 
d="M-18 -47l565 1556h63l-567 -1556h-61z" />
    <glyph glyph-name="zero" unicode="0" 
d="M774 1206q0 102 -49 158t-141 57q-125 0 -201 -112q-51 -74 -86 -254l-113 -647q-16 -94 -16 -174t49 -136t141 -57q125 0 199 113q53 76 86 254l113 647q18 102 18 151zM572 1479q132 0 198 -70t66 -195q0 -61 -19 -161l-117 -668q-72 -401 -332 -401q-132 0 -196 68
q-66 68 -66 196q1 68 17 162l117 667q37 203 110 291q90 111 222 111z" />
    <glyph glyph-name="one" unicode="1" 
d="M334 0l246 1393l-203 -115l-27 45l256 139h47l-258 -1462h-61z" />
    <glyph glyph-name="two" unicode="2" 
d="M719 1241q0 180 -177 180q-91 0 -153 -76q-61 -77 -92 -245h-57q27 158 65 229q84 150 250 150q109 0 168 -65t59 -181q0 -171 -68 -321t-243 -380l-358 -475h469l-11 -57h-548l8 45l399 526q152 199 220 354t69 316z" />
    <glyph glyph-name="three" unicode="3" 
d="M428 799q98 0 180 86q115 119 115 328t-176 208q-109 1 -169 -73t-93 -248h-58q27 160 68 229q82 150 254 150q238 0 237 -260q0 -162 -68 -283t-186 -166q154 -60 154 -278t-93 -363t-267 -145q-127 0 -195 63t-68 184q0 66 19 160h57q-12 -88 -12 -149q0 -201 197 -201
q162 0 237 152q61 119 62 296q1 115 -55 184t-146 68h-103l11 58h98z" />
    <glyph glyph-name="four" unicode="4" 
d="M475 0l51 287h-446l8 43l553 1132h66l-547 -1118h377l96 541h61l-96 -541h117l-10 -59h-117l-51 -285h-62z" />
    <glyph glyph-name="five" unicode="5" 
d="M489 881q229 0 230 -265q0 -102 -26 -232t-62 -208q-86 -193 -293 -192q-127 0 -194 61t-66 176q0 66 18 170h58q-12 -88 -13 -149q0 -201 197 -201q186 0 256 209q61 180 61 377t-174 196q-59 1 -106 -21t-111 -77l-43 8l172 729h455l-10 -57h-404l-139 -600
q84 76 194 76z" />
    <glyph glyph-name="six" unicode="6" 
d="M498 819q-145 0 -222 -151q-36 -76 -66 -210t-30 -224t46 -142q46 -51 134 -51t154 62t94 178q51 229 51 333q0 204 -161 205zM515 877q89 1 149 -63t59 -190q0 -126 -53 -354q-70 -287 -312 -286q-114 0 -178 66t-64 158q0 93 21 207q20 115 49 193t93 191l370 663h70
l-346 -622q53 37 142 37z" />
    <glyph glyph-name="seven" unicode="7" 
d="M158 0l616 1405h-473l10 57h539l-6 -39l-613 -1423h-73z" />
    <glyph glyph-name="eight" unicode="8" 
d="M477 741q-176 0 -244 -147q-31 -68 -53 -178t-22 -196q0 -85 52 -132t148 -47q162 0 228 133q33 63 56 180q24 117 24 204t-50 135t-139 48zM588 1421q-162 0 -215 -141q-23 -58 -40 -160t-18 -166q0 -156 167 -156t223 152q23 62 39 158t18 164q0 68 -46 108t-128 41z
M252 950q0 78 20 189t47 174q70 166 265 166q115 1 178 -55t63 -139t-18 -184t-43 -167q-45 -119 -162 -162q127 -43 127 -209q0 -104 -27 -230t-63 -196q-84 -154 -281 -153q-128 0 -196 62t-68 162t26 221q26 120 58 192q53 114 178 151q-104 47 -104 178z" />
    <glyph glyph-name="nine" unicode="9" 
d="M584 1421q-152 0 -213 -133q-29 -61 -56 -191t-27 -214t45 -131q44 -47 122 -47q158 0 231 167q31 72 54 182q24 110 24 190t-47 129q-47 48 -133 48zM438 647q-94 -1 -153 61t-59 162t26 234q27 135 57 205q78 170 271 170q120 -1 184 -63q126 -122 10 -490
q-25 -72 -96 -201l-410 -725h-69l391 692q-58 -45 -152 -45z" />
    <glyph glyph-name="colon" unicode=":" horiz-adv-x="339" 
d="M203 862l24 142h62l-25 -142h-61zM51 0l25 141h61l-24 -141h-62z" />
    <glyph glyph-name="semicolon" unicode=";" horiz-adv-x="337" 
d="M205 862l26 142h62l-27 -142h-61zM-74 -385l150 526h69l-170 -526h-49z" />
    <glyph glyph-name="less" unicode="&#x3c;" 
d="M233 756l424 -305l-10 -62l-489 359l4 24l616 358l-12 -69z" />
    <glyph glyph-name="equal" unicode="=" 
d="M211 834l10 57h559l-10 -57h-559zM174 629l10 57h559l-10 -57h-559z" />
    <glyph glyph-name="greater" unicode="&#x3e;" 
d="M719 764l-424 305l10 61l490 -358l-4 -24l-617 -359l12 70z" />
    <glyph glyph-name="question" unicode="?" horiz-adv-x="722" 
d="M236 0l24 141h62l-25 -141h-61zM684 1237q0 184 -166 184q-100 0 -159 -75q-58 -76 -89 -246h-57q27 156 66 231q80 147 241 148q109 1 168 -61t60 -177q0 -170 -72 -313q-35 -66 -137 -187q-84 -94 -120 -156t-50 -151l-13 -69h-53l14 77q16 102 55 174q38 72 133 184
t128 185q51 119 51 252z" />
    <glyph glyph-name="at" unicode="@" horiz-adv-x="1196" 
d="M731 1051q-96 0 -180 -177q-109 -223 -109 -417q0 -51 20 -83t52 -32q109 0 202 212t93 354t-78 143zM764 420q0 -72 61 -72q129 0 213 170q47 90 81 244t34 276q0 190 -95 290q-94 100 -270 102q-176 0 -296 -85q-224 -158 -325 -607q-46 -206 -46 -338q0 -247 108 -357
q88 -84 279 -84q104 1 175 21t163 75l24 -47q-174 -106 -378 -106t-318 106q-53 52 -85 148t-32 200q-1 210 59 444t148 378q193 309 512 309q209 0 325 -119t116 -332q1 -162 -45 -330t-113 -262q-113 -154 -248 -153q-104 0 -104 96q0 16 6 59q-51 -88 -97 -124t-107 -37
q-60 0 -95 46t-35 133t34 211t87 228q106 205 241 205q111 0 117 -160l41 137h47l-162 -536q-20 -82 -20 -129z" />
    <glyph glyph-name="A" unicode="A" horiz-adv-x="745" 
d="M555 412l-31 934l-360 -934h391zM557 354h-416l-137 -354h-67l579 1462h51l68 -1462h-66z" />
    <glyph glyph-name="B" unicode="B" horiz-adv-x="858" 
d="M342 57q82 0 132 24t89 79q96 145 96 338q0 125 -42 178t-140 53h-211l-119 -672h195zM483 786q121 0 189 99q92 125 92 303q0 119 -46 168t-159 49h-174l-109 -619h207zM541 1462q168 0 227 -64t59 -209q0 -144 -61 -264t-158 -165q115 -55 115 -270t-113 -371
q-47 -67 -106 -93t-160 -26h-268l258 1462h207z" />
    <glyph glyph-name="C" unicode="C" horiz-adv-x="827" 
d="M338 -16q-229 0 -229 241q0 76 18 170l121 697q37 205 113 296q77 91 200 91q123 -1 187 -63t63 -173q0 -49 -14 -143h-58q8 82 9 127q0 195 -175 194q-111 0 -172 -79t-92 -259l-125 -704q-14 -86 -14 -141q0 -197 166 -197q122 0 188 82t99 268h57q-25 -150 -62 -227
q-84 -180 -280 -180z" />
    <glyph glyph-name="D" unicode="D" horiz-adv-x="880" 
d="M582 1405h-197l-238 -1348h197q129 -2 209 83t106 253l119 676q14 88 15 125q0 211 -211 211zM588 1462q266 0 266 -260q0 -53 -14 -133l-123 -698q-29 -181 -123 -277t-240 -94h-278l258 1462h254z" />
    <glyph glyph-name="E" unicode="E" horiz-adv-x="747" 
d="M76 0l258 1462h493l-10 -57h-432l-113 -635h369l-10 -57h-369l-115 -656h431l-11 -57h-491z" />
    <glyph glyph-name="F" unicode="F" horiz-adv-x="694" 
d="M76 0l258 1462h489l-10 -57h-428l-115 -647h367l-10 -58h-367l-123 -700h-61z" />
    <glyph glyph-name="G" unicode="G" horiz-adv-x="849" 
d="M109 236q0 63 18 161l121 695q37 201 104 282q86 104 213 104t192 -58q65 -60 64 -169q0 -55 -16 -151h-57q10 74 10 125q0 197 -183 196q-111 0 -173 -79t-93 -259l-125 -702q-14 -88 -14 -135q0 -205 184 -205q238 0 299 346l49 285h-204l10 57h266l-61 -346
q-67 -401 -361 -399q-119 0 -181 64t-62 188z" />
    <glyph glyph-name="H" unicode="H" horiz-adv-x="880" 
d="M76 0l258 1462h61l-123 -692h430l123 692h62l-258 -1462h-62l125 713h-430l-125 -713h-61z" />
    <glyph glyph-name="I" unicode="I" horiz-adv-x="389" 
d="M76 0l258 1462h61l-258 -1462h-61z" />
    <glyph glyph-name="J" unicode="J" horiz-adv-x="552" 
d="M97 -14q-132 0 -191 104l49 37q53 -84 133 -84q117 0 178 125q27 55 56 227l188 1067h61l-188 -1073q-27 -145 -39 -191t-39 -89q-76 -123 -208 -123z" />
    <glyph glyph-name="K" unicode="K" horiz-adv-x="794" 
d="M76 0l258 1462h61l-153 -870l587 870h70l-416 -610l195 -852h-62l-180 782l-217 -321l-82 -461h-61z" />
    <glyph glyph-name="L" unicode="L" horiz-adv-x="704" 
d="M76 0l258 1462h61l-248 -1405h449l-10 -57h-510z" />
    <glyph glyph-name="M" unicode="M" horiz-adv-x="1046" 
d="M76 0l258 1462h65l109 -1036l475 1036h70l-258 -1462h-62l228 1286l-461 -1003h-31l-104 1003l-228 -1286h-61z" />
    <glyph glyph-name="N" unicode="N" horiz-adv-x="935" 
d="M76 0l258 1462h59l258 -1302l230 1302h61l-258 -1462h-59l-258 1303l-230 -1303h-61z" />
    <glyph glyph-name="O" unicode="O" horiz-adv-x="876" 
d="M594 1421q-131 0 -207 -106q-53 -74 -82 -244l-121 -680q-14 -86 -14 -133q0 -102 51 -160t146 -57q131 0 206 106q53 78 82 244l121 680q14 84 15 133q1 102 -51 160t-146 57zM852 1212q0 -63 -14 -141l-125 -704q-31 -186 -107 -279q-92 -104 -226 -104t-203 70
t-68 194q0 65 14 143l125 705q20 113 42 169t64 107q88 106 224 106t206 -70q68 -71 68 -196z" />
    <glyph glyph-name="P" unicode="P" horiz-adv-x="794" 
d="M393 670q100 0 159 29q58 30 105 106q96 154 97 364q0 127 -62 189q-45 47 -164 47h-141l-129 -735h135zM528 1462q158 0 224 -70t65 -218q0 -238 -108 -408q-51 -82 -123 -118t-183 -36h-155l-109 -612h-61l258 1462h192z" />
    <glyph glyph-name="Q" unicode="Q" horiz-adv-x="876" 
d="M594 1421q-131 0 -207 -106q-53 -74 -82 -244l-121 -680q-14 -86 -14 -133q0 -102 52 -160t158 -57q106 0 175 84l-152 197l48 34l139 -182q41 72 65 217l121 680q14 84 15 133q1 102 -51 160t-146 57zM377 -16q-131 0 -200 70t-68 194q0 66 14 143l125 705
q20 113 42 169t64 107q88 106 224 106t206 -70q68 -71 68 -196q0 -63 -14 -141l-125 -704q-27 -158 -82 -244l88 -113l-47 -35l-78 101q-86 -92 -217 -92z" />
    <glyph glyph-name="R" unicode="R" horiz-adv-x="841" 
d="M410 733q102 0 159 27t105 96q90 137 90 326q0 113 -52 168t-177 55h-148l-119 -672h142zM535 1462q165 0 229 -72t63 -202q0 -190 -79 -329q-80 -138 -209 -171l90 -688h-66l-84 676h-221l-119 -676h-61l258 1462h199z" />
    <glyph glyph-name="S" unicode="S" horiz-adv-x="763" 
d="M119 242q0 -96 49 -148t139 -53q152 0 225 170q54 127 54 247q1 167 -80 219q-24 15 -112 61t-133 118q-44 72 -44 184q0 170 80 304t229 135q106 -1 168 -63t64 -171q0 -53 -17 -145h-59q12 66 12 121q0 201 -170 200q-121 0 -186 -131q-57 -111 -57 -222t37 -171
q38 -59 142 -113t146 -113t43 -209q0 -150 -67 -294q-88 -184 -275 -184q-113 0 -181 64t-69 173q1 53 19 170h57q-14 -106 -14 -149z" />
    <glyph glyph-name="T" unicode="T" horiz-adv-x="634" 
d="M199 0l247 1405h-247l10 57h557l-10 -57h-248l-248 -1405h-61z" />
    <glyph glyph-name="U" unicode="U" horiz-adv-x="894" 
d="M373 43q141 0 215 115q37 63 61 196l195 1108h61l-196 -1120q-17 -104 -35 -154t-53 -92q-90 -111 -248 -110q-121 0 -187 59t-65 170q0 57 16 152l193 1095h61l-194 -1108q-14 -84 -15 -131q0 -180 191 -180z" />
    <glyph glyph-name="V" unicode="V" horiz-adv-x="737" 
d="M256 0l-33 1462h62l22 -1302l481 1302h66l-549 -1462h-49z" />
    <glyph glyph-name="W" unicode="W" horiz-adv-x="1120" 
d="M178 0l70 1462h57l-63 -1269l467 1269h36l23 -1269l383 1269h59l-444 -1462h-47l-23 1276l-469 -1276h-49z" />
    <glyph glyph-name="X" unicode="X" horiz-adv-x="722" 
d="M377 772l-117 690h62l104 -628l313 628h68l-367 -717l127 -745h-61l-115 684l-342 -684h-67z" />
    <glyph glyph-name="Y" unicode="Y" horiz-adv-x="708" 
d="M236 0l100 561l-127 901h61l111 -805l393 805h66l-443 -901l-100 -561h-61z" />
    <glyph glyph-name="Z" unicode="Z" horiz-adv-x="696" 
d="M-4 0l6 39l674 1366h-408l11 57h475l-6 -39l-674 -1366h450l-10 -57h-518z" />
    <glyph glyph-name="bracketleft" unicode="[" horiz-adv-x="532" 
d="M92 -201l320 1813h204l-10 -58h-143l-299 -1697h143l-10 -58h-205z" />
    <glyph glyph-name="backslash" unicode="\" horiz-adv-x="505" 
d="M332 -47h-64l-16 1556h61z" />
    <glyph glyph-name="bracketright" unicode="]" horiz-adv-x="532" 
d="M514 1612l-319 -1813h-205l10 58h143l299 1697h-143l10 58h205z" />
    <glyph glyph-name="asciicircum" unicode="^" 
d="M588 1378l-305 -583h-70l373 680h30l136 -680h-66z" />
    <glyph glyph-name="underscore" unicode="_" horiz-adv-x="577" 
d="M-178 -338l10 57h639l-10 -57h-639z" />
    <glyph glyph-name="grave" unicode="`" horiz-adv-x="1024" 
d="M684 1196h-41l-80 266h78z" />
    <glyph glyph-name="a" unicode="a" horiz-adv-x="694" 
d="M338 500q-252 0 -252 -328q0 -70 36 -100t128 -31q92 0 137 51t70 191l39 217h-158zM404 963q-157 0 -203 -269h-58q25 147 70 217q70 109 203 109q186 0 186 -197q0 -70 -16 -159l-117 -664h-51l8 72q-35 -48 -77 -68t-116 -20q-211 0 -210 180q0 76 20 157t53 128
q72 109 246 108h164l20 123q33 191 -15 248q-29 35 -107 35z" />
    <glyph glyph-name="b" unicode="b" horiz-adv-x="743" 
d="M600 782q0 180 -129 181q-186 0 -258 -400l-20 -123q-20 -117 -21 -186q0 -213 133 -213q174 0 225 301l54 297q16 92 16 143zM471 1020q92 0 141 -57q50 -57 50 -143t-21 -210l-51 -280q-61 -346 -283 -346q-143 0 -176 137l-27 -121h-51l258 1462h62l-101 -571
q74 129 199 129z" />
    <glyph glyph-name="c" unicode="c" horiz-adv-x="679" 
d="M80 195q0 66 16 170l54 299q33 188 98 272q66 84 167 84q201 0 201 -203q0 -43 -14 -123h-57q10 74 10 119q0 150 -127 150q-86 0 -138 -73t-79 -235l-55 -307q-14 -74 -15 -145q0 -162 125 -162q115 0 174 113q32 65 52 184h57q-29 -174 -74 -244q-70 -111 -211 -110
q-184 0 -184 211z" />
    <glyph glyph-name="d" unicode="d" horiz-adv-x="743" 
d="M274 41q184 0 254 399l23 123q18 104 18 187q0 213 -137 213q-166 0 -221 -301l-55 -320q-12 -63 -13 -119q0 -182 131 -182zM274 -16q-193 0 -192 233q0 59 14 137l56 320q59 346 284 346q135 0 172 -129l101 571h61l-258 -1462h-49l14 121q-76 -137 -203 -137z" />
    <glyph glyph-name="e" unicode="e" horiz-adv-x="700" 
d="M436 963q-92 0 -144 -68t-79 -223l-20 -109h346q35 180 34 244q0 156 -137 156zM276 41q94 0 148 65q53 66 80 216h57q-27 -154 -65 -220q-72 -119 -222 -118q-94 0 -145 55t-51 139t16 176l58 320q31 182 90 254q78 92 184 92q209 0 209 -209q-1 -57 -21 -173t-24 -132
h-408l-28 -174q-14 -72 -15 -131q0 -160 137 -160z" />
    <glyph glyph-name="f" unicode="f" horiz-adv-x="417" 
d="M238 946h-80l10 58h80l43 235q23 133 63 179q41 46 135 44h43l-10 -53h-24q-72 2 -100 -32t-50 -154l-39 -219h142l-11 -58h-141l-166 -946h-61z" />
    <glyph glyph-name="g" unicode="g" horiz-adv-x="743" 
d="M274 41q180 0 254 399l21 123q20 117 20 187q0 213 -139 213q-168 0 -219 -301l-57 -320q-10 -57 -11 -121q0 -180 131 -180zM274 -16q-193 0 -192 233q0 70 12 137l58 320q59 346 282 346q135 0 172 -129l31 113h51l-203 -1147q-31 -180 -95 -256t-170 -76
q-202 0 -204 164q0 49 15 121h57q-8 -66 -8 -95q0 -133 127 -133q94 0 142 64t77 219l43 244q-76 -125 -195 -125z" />
    <glyph glyph-name="h" unicode="h" horiz-adv-x="745" 
d="M479 1020q84 0 130 -50t46 -132t-18 -189l-115 -649h-61l117 659q16 96 16 150q0 154 -121 154q-99 -1 -159 -91t-95 -288l-102 -584h-62l258 1462h62l-99 -559q78 117 203 117z" />
    <glyph glyph-name="i" unicode="i" horiz-adv-x="352" 
d="M57 0l176 1004h62l-176 -1004h-62zM285 1294l30 168h62l-31 -168h-61z" />
    <glyph glyph-name="j" unicode="j" horiz-adv-x="356" 
d="M289 1294l28 168h62l-29 -168h-61zM238 1004h61l-190 -1084q-31 -209 -100 -303t-185 -88l10 59q82 -8 133 71t78 253z" />
    <glyph glyph-name="k" unicode="k" horiz-adv-x="704" 
d="M55 0l258 1462h62l-197 -1110l422 652h72l-283 -426l131 -578h-65l-109 514l-190 -289l-39 -225h-62z" />
    <glyph glyph-name="l" unicode="l" horiz-adv-x="389" 
d="M223 0q-141 0 -141 115q0 45 12 116l217 1231h62l-217 -1233q-22 -128 10 -154q20 -17 70 -18h26l-10 -57h-29z" />
    <glyph glyph-name="m" unicode="m" horiz-adv-x="1097" 
d="M465 1020q145 0 164 -148q47 80 96 114t124 34t118 -48t43 -122t-21 -201l-115 -649h-61l117 659q18 106 18 158q0 145 -108 146q-90 1 -148 -89t-92 -280l-104 -594h-62l117 659q16 90 16 160q0 143 -106 144q-91 1 -149 -89t-93 -290l-102 -584h-62l176 1004h52
l-17 -117q78 133 199 133z" />
    <glyph glyph-name="n" unicode="n" horiz-adv-x="745" 
d="M477 1020q86 0 132 -50t46 -132t-18 -189l-115 -649h-61l117 659q16 98 16 152q0 152 -121 152q-99 -1 -159 -91t-95 -288l-102 -584h-62l176 1004h52l-17 -117q82 133 211 133z" />
    <glyph glyph-name="o" unicode="o" horiz-adv-x="724" 
d="M446 963q-98 0 -152 -68t-81 -223l-59 -340q-14 -72 -15 -131q0 -160 142 -160q96 -1 151 67t82 224l59 340q14 84 15 129q0 162 -142 162zM433 1020q216 0 216 -215q0 -45 -18 -156l-58 -319q-18 -106 -37 -160t-55 -94q-78 -92 -188 -92q-215 0 -215 213q0 46 16 157
l58 320q18 106 37 160t55 94q78 92 189 92z" />
    <glyph glyph-name="p" unicode="p" horiz-adv-x="743" 
d="M600 782q0 180 -131 181q-184 0 -254 -400l-20 -123q-20 -109 -21 -186q0 -213 133 -213q172 0 225 301l58 320q10 66 10 120zM469 1020q193 0 193 -227q0 -72 -13 -144l-57 -319q-61 -346 -285 -346q-135 0 -172 125l-100 -570h-62l258 1465h52l-9 -105q74 121 195 121z
" />
    <glyph glyph-name="q" unicode="q" horiz-adv-x="743" 
d="M276 41q182 0 252 399l23 123q18 104 18 187q0 213 -137 213q-166 0 -221 -301l-55 -320q-12 -63 -13 -119q0 -182 133 -182zM274 -16q-193 0 -192 233q0 63 14 137l56 320q59 346 284 346q137 0 172 -129l31 113h51l-258 -1465h-61l100 570q-76 -125 -197 -125z" />
    <glyph glyph-name="r" unicode="r" horiz-adv-x="493" 
d="M444 1020q62 0 113 -45l-41 -51q-37 39 -78 39q-80 0 -136 -113t-97 -354l-88 -496h-62l176 1004h52l-15 -117q37 73 76 103q38 30 100 30z" />
    <glyph glyph-name="s" unicode="s" horiz-adv-x="651" 
d="M242 41q102 0 169 82t66 207q0 59 -35 98q-25 24 -122 58t-138 81t-41 129q0 144 73 234t177 90q205 0 205 -195q0 -49 -16 -131h-58q14 68 15 121q0 147 -131 148q-88 0 -144 -74t-57 -189q0 -74 57 -116q29 -18 146 -62q133 -49 133 -180q0 -156 -83 -257
q-84 -101 -198 -101q-226 0 -225 192q0 60 18 162h58q-18 -94 -19 -145q0 -152 150 -152z" />
    <glyph glyph-name="t" unicode="t" horiz-adv-x="405" 
d="M238 0q-144 0 -144 112q0 56 21 179l116 655h-77l10 58h78l63 352h60l-62 -352h115l-10 -58h-115l-121 -682q-16 -88 -16 -127q0 -80 77 -80h25l-10 -57h-10z" />
    <glyph glyph-name="u" unicode="u" horiz-adv-x="729" 
d="M150 188q0 -147 112 -147q94 0 154 90q59 90 94 289l102 584h62l-178 -1004h-50l17 117q-43 -72 -90 -103q-47 -30 -122 -30t-119 49t-44 127t21 194l114 650h62l-117 -660q-18 -111 -18 -156z" />
    <glyph glyph-name="v" unicode="v" horiz-adv-x="626" 
d="M201 0l-51 1004h57l33 -900l352 900h61l-405 -1004h-47z" />
    <glyph glyph-name="w" unicode="w" horiz-adv-x="985" 
d="M180 0l-16 1004h59l4 -871l332 871h39l25 -871l309 871h63l-368 -1004h-43l-29 866l-332 -866h-43z" />
    <glyph glyph-name="x" unicode="x" horiz-adv-x="593" 
d="M262 518l-94 486h63l82 -418l228 418h71l-282 -502l98 -502h-66l-83 432l-236 -432h-72z" />
    <glyph glyph-name="y" unicode="y" horiz-adv-x="626" 
d="M199 -18l-56 1022h58l43 -934l344 934h61l-473 -1254q-53 -129 -103 -174t-143 -47l11 57q69 2 103 36t75 140z" />
    <glyph glyph-name="z" unicode="z" horiz-adv-x="618" 
d="M-4 0l6 31l506 915h-322l11 58h389l-4 -31l-508 -916h364l-10 -57h-432z" />
    <glyph glyph-name="braceleft" unicode="{" horiz-adv-x="532" 
d="M297 639q0 -29 -31 -205l-51 -291q-23 -131 -23 -182q1 -110 97 -108h22l-10 -54h-31q-139 0 -139 150q0 59 29 237l41 232q33 180 32 213q0 106 -90 106h-8l8 47h9q76 4 108 64t62 256l26 145q33 211 84 287t158 76h31l-9 -53h-22q-78 -2 -116 -76t-77 -305l-16 -93
q-27 -172 -55 -233t-88 -92q59 -31 59 -121z" />
    <glyph glyph-name="bar" unicode="|" 
d="M281 -201l319 1813h53l-319 -1813h-53z" />
    <glyph glyph-name="braceright" unicode="}" horiz-adv-x="532" 
d="M330 881q0 35 30 204l31 183q23 122 23 178q0 112 -97 113h-22l10 53h31q139 0 139 -150q0 -76 -29 -237l-22 -121q-31 -178 -31 -213q0 -106 88 -107h11l-9 -47h-10q-75 -4 -107 -65t-63 -254l-45 -256q-33 -211 -84 -287t-158 -76h-30l10 54h20q80 5 117 77t76 303
l37 201q28 176 54 236t89 90q-59 31 -59 121z" />
    <glyph glyph-name="asciitilde" unicode="~" 
d="M603 709q60 0 120 147l41 -14q-45 -104 -86 -148t-88 -43q-48 1 -68 15t-72 80t-92 65q-68 0 -129 -152l-43 15q82 195 185 194q37 0 63 -16t64 -66q39 -50 57 -64q18 -13 48 -13z" />
    <glyph glyph-name="uni00A0" unicode="&#xa0;" horiz-adv-x="327" 
 />
    <glyph glyph-name="exclamdown" unicode="&#xa1;" horiz-adv-x="358" 
d="M299 1004l-25 -142h-61l25 142h61zM231 639l-186 -1098h-68l201 1098h53z" />
    <glyph glyph-name="cent" unicode="&#xa2;" 
d="M231 549q0 68 17 160l53 301q51 348 281 354l36 213h62l-39 -219q164 -33 164 -201q0 -49 -14 -119h-58q8 74 8 109q0 76 -40 118q-41 42 -123 42t-136 -71t-82 -237l-53 -307q-14 -80 -14 -135q0 -172 151 -172q125 0 185 113q31 57 49 184h57q-23 -180 -87 -262
t-187 -92l-41 -226h-62l41 230q-168 25 -168 217z" />
    <glyph glyph-name="sterling" unicode="&#xa3;" 
d="M303 578q0 10 -4 88h-152l11 57h133q-4 20 -9 48t-20 91t-14 137q0 197 87 338t265 142q125 0 195 -65t69 -181q0 -51 -16 -133h-57q10 68 10 119q0 203 -199 202q-141 0 -217 -121q-74 -125 -74 -282q1 -60 21 -162t26 -133h263l-11 -57h-245q2 -29 2 -66
q1 -150 -59 -293t-167 -250h547l-10 -57h-643l8 49q72 43 154 164q106 170 106 365z" />
    <glyph glyph-name="currency" unicode="&#xa4;" 
d="M727 687q-1 141 -75 235t-188 94t-189 -92t-75 -234t76 -236t189 -94t187 94t75 233zM139 688q0 158 84 275l-139 178l37 35l137 -181q100 78 208 78t204 -78l137 181l37 -35l-139 -178q83 -115 83 -275t-83 -274l139 -178l-37 -35l-137 178q-98 -76 -204 -76t-208 76
l-137 -178l-37 35l139 178q-84 116 -84 274z" />
    <glyph glyph-name="yen" unicode="&#xa5;" 
d="M311 0l60 334h-246l10 57h244l31 170h-244l10 57h225l-141 844h59l136 -805l419 805h66l-438 -844h225l-10 -57h-246l-31 -170h246l-10 -57h-244l-59 -334h-62z" />
    <glyph glyph-name="brokenbar" unicode="&#xa6;" horiz-adv-x="616" 
d="M188 0l84 479h62l-84 -479h-62zM358 969l88 493h62l-88 -493h-62z" />
    <glyph glyph-name="section" unicode="&#xa7;" 
d="M213 626q0 -88 28 -118t138 -80l102 -49q104 61 142 113q59 82 59 202q0 66 -26 94t-140 80l-104 50q-199 -107 -199 -292zM756 1253q0 168 -176 168q-92 0 -162 -86t-70 -217q0 -70 35 -106t149 -88q114 -51 150 -78q63 -51 63 -148q0 -168 -100 -264q-41 -41 -115 -82
q59 -37 83 -77t24 -105q0 -158 -96 -254t-252 -96q-117 0 -180 56t-64 161q0 49 16 129h58q-10 -70 -10 -115q0 -174 180 -174q127 0 206 80t78 209q0 78 -36 117q-37 39 -167 89t-175 96t-45 134q0 147 88 250q35 37 127 92q-45 33 -63 70q-17 37 -17 96q-1 150 77 260
t232 109q106 1 166 -55t59 -156q0 -47 -12 -107h-57q6 63 6 92z" />
    <glyph glyph-name="dieresis" unicode="&#xa8;" horiz-adv-x="1024" 
d="M727 1219l29 167h57l-29 -167h-57zM494 1219l28 167h58l-29 -167h-57z" />
    <glyph glyph-name="copyright" unicode="&#xa9;" horiz-adv-x="1417" 
d="M712 1423q-265 -1 -433 -193t-168 -498t168 -500t430 -194t430 196q168 194 168 494t-154 484q-176 211 -441 211zM710 1479q292 0 475 -211t183 -539q0 -329 -184 -537t-475 -208t-476 209q-184 209 -184 539t184 539q185 208 477 208zM715 371q-94 -1 -134 67t-40 226
v135q0 157 40 225t130 68q150 0 155 -174h-49q-8 121 -102 120q-63 0 -92 -56t-29 -183v-135q0 -128 30 -184t95 -56q100 0 106 121h49q-6 -174 -159 -174z" />
    <glyph glyph-name="ordfeminine" unicode="&#xaa;" horiz-adv-x="407" 
d="M328 1147q-94 0 -125 -49t-31 -135q0 -66 78 -66t104 47q20 29 33 84l21 119h-80zM434 1348q0 72 -78 71q-42 0 -64 -19t-38 -71h-61q31 143 167 143t138 -112q0 -31 -13 -105l-71 -401h-54l7 43q-39 -53 -119 -53q-139 0 -139 121q0 99 47 167t149 68h105l10 55
q14 74 14 93z" />
    <glyph glyph-name="guillemotleft" unicode="&#xab;" horiz-adv-x="481" 
d="M143 600l72 -256l-43 -18l-98 278l198 281l33 -27zM336 600l72 -256l-43 -18l-99 278l199 281l33 -27z" />
    <glyph glyph-name="logicalnot" unicode="&#xac;" 
d="M176 731l10 57h562l-70 -391h-62l60 334h-500z" />
    <glyph glyph-name="uni00AD" unicode="&#xad;" horiz-adv-x="595" 
d="M176 731l10 57h326l-10 -57h-326z" />
    <glyph glyph-name="registered" unicode="&#xae;" horiz-adv-x="1052" 
d="M522 1669q-194 0 -308 -138q-112 -138 -112 -345t114 -345q114 -139 310 -139t311 140q113 140 113 348q0 209 -116 344q-118 135 -312 135zM527 1722q212 0 349 -152q136 -153 136 -385t-138 -384t-349 -152q-212 0 -348 151q-136 150 -136 386t137 386t349 150z
M455 1202h98q76 0 76 106t-82 105h-92v-211zM455 1153v-244h-54v553h148q135 0 135 -153q0 -133 -86 -152l88 -248h-55l-84 244h-92z" />
    <glyph glyph-name="macron" unicode="&#xaf;" horiz-adv-x="1024" 
d="M514 1300l8 50h279l-8 -50h-279z" />
    <glyph glyph-name="degree" unicode="&#xb0;" horiz-adv-x="468" 
d="M370 1466q-81 0 -129 -53t-48 -144t48 -145t129 -53q81 0 129 53q48 54 48 144t-48 144t-129 54zM131 1269q1 115 67 183t172 68t173 -70q65 -70 65 -182t-66 -181t-172 -69q-108 0 -174 68t-65 183z" />
    <glyph glyph-name="plusminus" unicode="&#xb1;" 
d="M76 164l10 57h590l-10 -57h-590zM176 731l10 57h269l57 334h53l-57 -334h268l-10 -57h-268l-60 -334h-53l59 334h-268z" />
    <glyph glyph-name="twosuperior" unicode="&#xb2;" horiz-adv-x="540" 
d="M545 1526q0 96 -96 96q-63 0 -97 -43t-57 -145h-53q20 131 69 186t140 55q152 0 151 -155q0 -100 -43 -192t-151 -224l-211 -260h286l-8 -53h-362l6 40l250 312q100 127 138 207t38 176z" />
    <glyph glyph-name="threesuperior" unicode="&#xb3;" horiz-adv-x="540" 
d="M356 1280q84 0 137 62q52 62 52 171t-99 109q-66 0 -104 -44t-55 -144h-56q19 131 69 186t146 55q156 0 156 -169t-135 -251q78 -53 78 -177q1 -124 -57 -211t-175 -87q-178 0 -178 150q0 41 15 110h53q-10 -51 -10 -92q0 -115 118 -114q80 0 128 68t48 159q0 90 -34 128
q-35 38 -99 38h-61l8 53h55z" />
    <glyph glyph-name="acute" unicode="&#xb4;" horiz-adv-x="1024" 
d="M588 1196l133 266h82l-168 -266h-47z" />
    <glyph glyph-name="mu" unicode="&#xb5;" 
d="M334 41q94 0 152 90t94 289l102 584h61l-176 -1004h-51l16 117q-43 -72 -90 -103t-112 -30q-100 0 -142 77l-92 -522h-61l258 1465h61l-116 -660q-16 -98 -17 -158q0 -145 113 -145z" />
    <glyph glyph-name="paragraph" unicode="&#xb6;" horiz-adv-x="747" 
d="M301 729q-96 0 -139 56q-43 55 -43 179t41 250t91 178q50 50 88 60t155 10h292l-307 -1741h-61l297 1684h-195l-297 -1684h-61l178 1008h-39z" />
    <glyph glyph-name="periodcentered" unicode="&#xb7;" horiz-adv-x="337" 
d="M172 690l25 139h61l-25 -139h-61z" />
    <glyph glyph-name="cedilla" unicode="&#xb8;" horiz-adv-x="1024" 
d="M285 -422l112 266h78l-145 -266h-45z" />
    <glyph glyph-name="onesuperior" unicode="&#xb9;" horiz-adv-x="540" 
d="M303 791l143 806l-120 -63l-27 45l172 88h45l-156 -876h-57z" />
    <glyph glyph-name="ordmasculine" unicode="&#xba;" horiz-adv-x="434" 
d="M463 1325q0 94 -90 94q-100 0 -125 -141l-37 -207q-8 -41 -8 -76q0 -96 90 -96q100 0 125 139l37 207q8 39 8 80zM524 1329q0 -29 -10 -94l-35 -201q-33 -188 -194 -188q-70 0 -107 37q-36 37 -36 85t10 115l34 199q18 98 62 144t121 46q75 0 115 -36q40 -37 40 -107z
" />
    <glyph glyph-name="guillemotright" unicode="&#xbb;" horiz-adv-x="481" 
d="M375 608l-72 258l43 19l98 -281l-198 -278l-33 26zM182 608l-71 258l43 19l98 -281l-199 -278l-33 26z" />
    <glyph glyph-name="onequarter" unicode="&#xbc;" horiz-adv-x="1263" 
d="M326 0l532 1462h57l-530 -1462h-59zM924 0l30 168h-280l6 43l342 666h61l-335 -652h215l57 314h57l-57 -314h74l-9 -59h-73l-31 -166h-57zM258 586l143 807l-120 -64l-27 45l172 88h45l-156 -876h-57z" />
    <glyph glyph-name="onehalf" unicode="&#xbd;" horiz-adv-x="1263" 
d="M297 0l532 1462h58l-531 -1462h-59zM991 831q-63 0 -99 -43t-54 -145h-56q20 129 70 185t141 57q152 0 152 -156q0 -102 -42 -192t-153 -224l-211 -260h287l-8 -53h-363l7 41l247 311q102 127 141 207q38 80 37 168q0 104 -96 104zM258 586l143 807l-120 -64l-27 45
l172 88h45l-156 -876h-57z" />
    <glyph glyph-name="threequarters" unicode="&#xbe;" horiz-adv-x="1263" 
d="M381 0l532 1462h58l-531 -1462h-59zM926 0l28 168h-280l8 43l342 666h61l-335 -652h215l55 314h57l-55 -314h74l-11 -59h-73l-29 -166h-57zM322 1075q84 1 136 63t52 171t-98 108q-68 0 -105 -44t-55 -144h-55q20 131 69 186t146 55q156 0 156 -168t-136 -251
q78 -53 78 -177t-57 -211t-172 -88q-180 0 -181 148q0 41 15 113h53q-10 -51 -10 -93q0 -115 118 -114q80 1 128 69t49 183q0 65 -35 103t-99 38h-61l8 53h56z" />
    <glyph glyph-name="questiondown" unicode="&#xbf;" horiz-adv-x="722" 
d="M492 1004l-25 -142h-61l24 142h62zM43 -233q0 -184 166 -185q100 0 159 76q58 76 89 246h57q-27 -156 -65 -232q-80 -147 -242 -147q-109 0 -168 61t-59 176q0 170 71 314q35 66 137 186q84 94 119 158t51 149l13 70h53l-14 -78q-16 -102 -54 -174q-38 -71 -134 -183
q-95 -112 -128 -186q-51 -119 -51 -251z" />
    <glyph glyph-name="Agrave" unicode="&#xc0;" horiz-adv-x="745" 
d="M571 1638h-41l-79 267h77zM555 412l-31 934l-360 -934h391zM557 354h-416l-137 -354h-67l579 1462h51l68 -1462h-66z" />
    <glyph glyph-name="Aacute" unicode="&#xc1;" horiz-adv-x="745" 
d="M553 1638l135 267h80l-168 -267h-47zM555 412l-31 934l-360 -934h391zM557 354h-416l-137 -354h-67l579 1462h51l68 -1462h-66z" />
    <glyph glyph-name="Acircumflex" unicode="&#xc2;" horiz-adv-x="745" 
d="M594 1825l-121 -172h-78l191 237h32l107 -237h-70zM555 412l-31 934l-360 -934h391zM557 354h-416l-137 -354h-67l579 1462h51l68 -1462h-66z" />
    <glyph glyph-name="Atilde" unicode="&#xc3;" horiz-adv-x="745" 
d="M662 1720q33 0 67 119h41q-26 -92 -54 -130t-75 -38t-82 68q-23 43 -34 55t-25 12q-31 1 -68 -118h-43q27 90 55 129q29 39 73 39t83 -68t62 -68zM555 412l-31 934l-360 -934h391zM557 354h-416l-137 -354h-67l579 1462h51l68 -1462h-66z" />
    <glyph glyph-name="Adieresis" unicode="&#xc4;" horiz-adv-x="745" 
d="M649 1661l29 168h57l-28 -168h-58zM416 1661l28 168h58l-29 -168h-57zM555 412l-31 934l-360 -934h391zM557 354h-416l-137 -354h-67l579 1462h51l68 -1462h-66z" />
    <glyph glyph-name="Aring" unicode="&#xc5;" horiz-adv-x="745" 
d="M606 1942q-51 0 -84 -50t-33 -110q0 -108 82 -109q49 0 82 49t33 125q0 95 -80 95zM602 1991q144 0 142 -162q0 -80 -51 -142q-50 -62 -124 -63q-137 0 -137 162q0 82 50 144t120 61zM555 412l-31 934l-360 -934h391zM557 354h-416l-137 -354h-67l579 1462h51l68 -1462
h-66z" />
    <glyph glyph-name="AE" unicode="&#xc6;" horiz-adv-x="1198" 
d="M600 416l174 989h-8l-559 -989h393zM590 358h-416l-203 -358h-71l837 1462h541l-10 -57h-432l-113 -635h369l-11 -57h-368l-115 -656h430l-10 -57h-492z" />
    <glyph glyph-name="Ccedilla" unicode="&#xc7;" horiz-adv-x="827" 
d="M152 -422l112 266h78l-145 -266h-45zM338 -16q-229 0 -229 241q0 76 18 170l121 697q37 205 113 296q77 91 200 91q123 -1 187 -63t63 -173q0 -49 -14 -143h-58q8 82 9 127q0 195 -175 194q-111 0 -172 -79t-92 -259l-125 -704q-14 -86 -14 -141q0 -197 166 -197
q122 0 188 82t99 268h57q-25 -150 -62 -227q-84 -180 -280 -180z" />
    <glyph glyph-name="Egrave" unicode="&#xc8;" horiz-adv-x="747" 
d="M651 1638h-41l-80 267h78zM76 0l258 1462h493l-10 -57h-432l-113 -635h369l-10 -57h-369l-115 -656h431l-11 -57h-491z" />
    <glyph glyph-name="Eacute" unicode="&#xc9;" horiz-adv-x="747" 
d="M557 1638l135 267h80l-168 -267h-47zM76 0l258 1462h493l-10 -57h-432l-113 -635h369l-10 -57h-369l-115 -656h431l-11 -57h-491z" />
    <glyph glyph-name="Ecircumflex" unicode="&#xca;" horiz-adv-x="747" 
d="M639 1825l-121 -172h-78l191 237h33l106 -237h-70zM76 0l258 1462h493l-10 -57h-432l-113 -635h369l-10 -57h-369l-115 -656h431l-11 -57h-491z" />
    <glyph glyph-name="Edieresis" unicode="&#xcb;" horiz-adv-x="747" 
d="M694 1661l29 168h57l-28 -168h-58zM461 1661l28 168h58l-29 -168h-57zM76 0l258 1462h493l-10 -57h-432l-113 -635h369l-10 -57h-369l-115 -656h431l-11 -57h-491z" />
    <glyph glyph-name="Igrave" unicode="&#xcc;" horiz-adv-x="389" 
d="M444 1638h-41l-79 267h77zM76 0l258 1462h61l-258 -1462h-61z" />
    <glyph glyph-name="Iacute" unicode="&#xcd;" horiz-adv-x="389" 
d="M348 1638l135 267h80l-168 -267h-47zM76 0l258 1462h61l-258 -1462h-61z" />
    <glyph glyph-name="Icircumflex" unicode="&#xce;" horiz-adv-x="389" 
d="M432 1825l-121 -172h-78l191 237h33l106 -237h-69zM76 0l258 1462h61l-258 -1462h-61z" />
    <glyph glyph-name="Idieresis" unicode="&#xcf;" horiz-adv-x="389" 
d="M487 1661l29 168h57l-28 -168h-58zM254 1661l29 168h57l-29 -168h-57zM76 0l258 1462h61l-258 -1462h-61z" />
    <glyph glyph-name="Eth" unicode="&#xd0;" horiz-adv-x="880" 
d="M582 1405h-197l-113 -635h244l-10 -57h-244l-115 -656h197q129 -2 209 83t106 253l119 676q14 88 15 125q0 211 -211 211zM588 1462q266 0 266 -260q0 -53 -14 -133l-123 -698q-29 -181 -123 -277t-240 -94h-278l125 713h-111l10 57h111l123 692h254z" />
    <glyph glyph-name="Ntilde" unicode="&#xd1;" horiz-adv-x="935" 
d="M760 1720q33 0 67 119h41q-26 -92 -54 -130t-75 -38t-82 68q-23 43 -33 55q-11 12 -26 12q-31 1 -68 -118h-43q27 90 56 129t73 39t82 -68q39 -68 62 -68zM76 0l258 1462h59l258 -1302l230 1302h61l-258 -1462h-59l-258 1303l-230 -1303h-61z" />
    <glyph glyph-name="Ograve" unicode="&#xd2;" horiz-adv-x="876" 
d="M688 1638h-41l-80 267h78zM594 1421q-131 0 -207 -106q-53 -74 -82 -244l-121 -680q-14 -86 -14 -133q0 -102 51 -160t146 -57q131 0 206 106q53 78 82 244l121 680q14 84 15 133q1 102 -51 160t-146 57zM852 1212q0 -63 -14 -141l-125 -704q-31 -186 -107 -279
q-92 -104 -226 -104t-203 70t-68 194q0 65 14 143l125 705q20 113 42 169t64 107q88 106 224 106t206 -70q68 -71 68 -196z" />
    <glyph glyph-name="Oacute" unicode="&#xd3;" horiz-adv-x="876" 
d="M594 1638l135 267h80l-168 -267h-47zM594 1421q-131 0 -207 -106q-53 -74 -82 -244l-121 -680q-14 -86 -14 -133q0 -102 51 -160t146 -57q131 0 206 106q53 78 82 244l121 680q14 84 15 133q1 102 -51 160t-146 57zM852 1212q0 -63 -14 -141l-125 -704
q-31 -186 -107 -279q-92 -104 -226 -104t-203 70t-68 194q0 65 14 143l125 705q20 113 42 169t64 107q88 106 224 106t206 -70q68 -71 68 -196z" />
    <glyph glyph-name="Ocircumflex" unicode="&#xd4;" horiz-adv-x="876" 
d="M676 1825l-121 -172h-78l191 237h32l107 -237h-70zM594 1421q-131 0 -207 -106q-53 -74 -82 -244l-121 -680q-14 -86 -14 -133q0 -102 51 -160t146 -57q131 0 206 106q53 78 82 244l121 680q14 84 15 133q1 102 -51 160t-146 57zM852 1212q0 -63 -14 -141l-125 -704
q-31 -186 -107 -279q-92 -104 -226 -104t-203 70t-68 194q0 65 14 143l125 705q20 113 42 169t64 107q88 106 224 106t206 -70q68 -71 68 -196z" />
    <glyph glyph-name="Otilde" unicode="&#xd5;" horiz-adv-x="876" 
d="M743 1720q33 0 68 119h41q-26 -92 -54 -130t-75 -38t-82 68q-23 43 -34 55t-25 12q-31 1 -68 -118h-43q27 90 55 129q29 39 73 39t83 -68t61 -68zM594 1421q-131 0 -207 -106q-53 -74 -82 -244l-121 -680q-14 -86 -14 -133q0 -102 51 -160t146 -57q131 0 206 106
q53 78 82 244l121 680q14 84 15 133q1 102 -51 160t-146 57zM852 1212q0 -63 -14 -141l-125 -704q-31 -186 -107 -279q-92 -104 -226 -104t-203 70t-68 194q0 65 14 143l125 705q20 113 42 169t64 107q88 106 224 106t206 -70q68 -71 68 -196z" />
    <glyph glyph-name="Odieresis" unicode="&#xd6;" horiz-adv-x="876" 
d="M731 1661l29 168h57l-29 -168h-57zM498 1661l28 168h58l-29 -168h-57zM594 1421q-131 0 -207 -106q-53 -74 -82 -244l-121 -680q-14 -86 -14 -133q0 -102 51 -160t146 -57q131 0 206 106q53 78 82 244l121 680q14 84 15 133q1 102 -51 160t-146 57zM852 1212
q0 -63 -14 -141l-125 -704q-31 -186 -107 -279q-92 -104 -226 -104t-203 70t-68 194q0 65 14 143l125 705q20 113 42 169t64 107q88 106 224 106t206 -70q68 -71 68 -196z" />
    <glyph glyph-name="multiply" unicode="&#xd7;" 
d="M422 760l-223 268l45 39l221 -270l317 270l31 -39l-317 -268l223 -268l-45 -39l-221 270l-318 -270l-31 39z" />
    <glyph glyph-name="Oslash" unicode="&#xd8;" horiz-adv-x="876" 
d="M595 1421q-134 0 -210 -106q-53 -74 -82 -244l-119 -680q-16 -87 -16 -109t2 -38l604 1054q-45 123 -179 123zM366 41q132 0 205 106q53 72 84 244l119 680q14 73 14 139l-604 -1052q50 -117 182 -117zM850 1203q0 -46 -14 -132l-123 -704q-35 -193 -109 -279
q-88 -104 -240 -104t-217 108l-63 -110l-51 22l86 152q-26 96 4 235l123 705q20 111 43 168q86 214 301 215q150 0 223 -113l59 107l52 -23l-84 -150q10 -51 10 -97z" />
    <glyph glyph-name="Ugrave" unicode="&#xd9;" horiz-adv-x="894" 
d="M696 1638h-41l-80 267h78zM373 43q141 0 215 115q37 63 61 196l195 1108h61l-196 -1120q-17 -104 -35 -154t-53 -92q-90 -111 -248 -110q-121 0 -187 59t-65 170q0 57 16 152l193 1095h61l-194 -1108q-14 -84 -15 -131q0 -180 191 -180z" />
    <glyph glyph-name="Uacute" unicode="&#xda;" horiz-adv-x="894" 
d="M602 1638l135 267h80l-168 -267h-47zM373 43q141 0 215 115q37 63 61 196l195 1108h61l-196 -1120q-17 -104 -35 -154t-53 -92q-90 -111 -248 -110q-121 0 -187 59t-65 170q0 57 16 152l193 1095h61l-194 -1108q-14 -84 -15 -131q0 -180 191 -180z" />
    <glyph glyph-name="Ucircumflex" unicode="&#xdb;" horiz-adv-x="894" 
d="M684 1825l-121 -172h-78l191 237h33l106 -237h-70zM373 43q141 0 215 115q37 63 61 196l195 1108h61l-196 -1120q-17 -104 -35 -154t-53 -92q-90 -111 -248 -110q-121 0 -187 59t-65 170q0 57 16 152l193 1095h61l-194 -1108q-14 -84 -15 -131q0 -180 191 -180z" />
    <glyph glyph-name="Udieresis" unicode="&#xdc;" horiz-adv-x="894" 
d="M739 1661l29 168h57l-28 -168h-58zM506 1661l29 168h57l-29 -168h-57zM373 43q141 0 215 115q37 63 61 196l195 1108h61l-196 -1120q-17 -104 -35 -154t-53 -92q-90 -111 -248 -110q-121 0 -187 59t-65 170q0 57 16 152l193 1095h61l-194 -1108q-14 -84 -15 -131
q0 -180 191 -180z" />
    <glyph glyph-name="Yacute" unicode="&#xdd;" horiz-adv-x="708" 
d="M516 1638l135 267h80l-168 -267h-47zM236 0l100 561l-127 901h61l111 -805l393 805h66l-443 -901l-100 -561h-61z" />
    <glyph glyph-name="Thorn" unicode="&#xde;" horiz-adv-x="794" 
d="M350 424q100 0 158 30t106 105q96 150 97 359q-1 123 -51 182t-175 59h-141l-131 -735h137zM483 1217q154 0 223 -70t68 -227q0 -104 -30 -214t-80 -189t-121 -115q-72 -36 -183 -35h-155l-66 -367h-61l258 1462h61l-43 -245h129z" />
    <glyph glyph-name="germandbls" unicode="&#xdf;" horiz-adv-x="739" 
d="M700 1260q0 -98 -34 -196t-86 -144q39 -27 54 -68q15 -40 15 -108t-12 -144l-37 -203q-33 -211 -94 -305t-164 -92h-74l11 57h57q82 0 126 75t79 276l32 182q33 217 -6 267q-23 30 -80 30h-24l10 53h21q59 0 101 101t42 229q0 150 -121 149q-152 0 -197 -262l-204 -1157
h-62l207 1169q53 307 258 308q182 0 182 -217z" />
    <glyph glyph-name="agrave" unicode="&#xe0;" horiz-adv-x="694" 
d="M520 1196h-41l-80 266h78zM338 500q-252 0 -252 -328q0 -70 36 -100t128 -31q92 0 137 51t70 191l39 217h-158zM404 963q-157 0 -203 -269h-58q25 147 70 217q70 109 203 109q186 0 186 -197q0 -70 -16 -159l-117 -664h-51l8 72q-35 -48 -77 -68t-116 -20
q-211 0 -210 180q0 76 20 157t53 128q72 109 246 108h164l20 123q33 191 -15 248q-29 35 -107 35z" />
    <glyph glyph-name="aacute" unicode="&#xe1;" horiz-adv-x="694" 
d="M424 1196l133 266h82l-168 -266h-47zM338 500q-252 0 -252 -328q0 -70 36 -100t128 -31q92 0 137 51t70 191l39 217h-158zM404 963q-157 0 -203 -269h-58q25 147 70 217q70 109 203 109q186 0 186 -197q0 -70 -16 -159l-117 -664h-51l8 72q-35 -48 -77 -68t-116 -20
q-211 0 -210 180q0 76 20 157t53 128q72 109 246 108h164l20 123q33 191 -15 248q-29 35 -107 35z" />
    <glyph glyph-name="acircumflex" unicode="&#xe2;" horiz-adv-x="694" 
d="M508 1382l-121 -172h-78l191 238h32l107 -238h-70zM338 500q-252 0 -252 -328q0 -70 36 -100t128 -31q92 0 137 51t70 191l39 217h-158zM404 963q-157 0 -203 -269h-58q25 147 70 217q70 109 203 109q186 0 186 -197q0 -70 -16 -159l-117 -664h-51l8 72q-35 -48 -77 -68
t-116 -20q-211 0 -210 180q0 76 20 157t53 128q72 109 246 108h164l20 123q33 191 -15 248q-29 35 -107 35z" />
    <glyph glyph-name="atilde" unicode="&#xe3;" horiz-adv-x="694" 
d="M430 1413q43 0 84 -67q39 -68 61 -68q31 0 68 119h41q-26 -94 -54 -131t-75 -37t-82 67q-23 44 -34 56t-25 12q-31 0 -68 -119h-43q27 90 55 129q29 39 72 39zM338 500q-252 0 -252 -328q0 -70 36 -100t128 -31q92 0 137 51t70 191l39 217h-158zM404 963
q-157 0 -203 -269h-58q25 147 70 217q70 109 203 109q186 0 186 -197q0 -70 -16 -159l-117 -664h-51l8 72q-35 -48 -77 -68t-116 -20q-211 0 -210 180q0 76 20 157t53 128q72 109 246 108h164l20 123q33 191 -15 248q-29 35 -107 35z" />
    <glyph glyph-name="adieresis" unicode="&#xe4;" horiz-adv-x="694" 
d="M563 1219l29 167h57l-28 -167h-58zM330 1219l28 167h58l-29 -167h-57zM338 500q-252 0 -252 -328q0 -70 36 -100t128 -31q92 0 137 51t70 191l39 217h-158zM404 963q-157 0 -203 -269h-58q25 147 70 217q70 109 203 109q186 0 186 -197q0 -70 -16 -159l-117 -664h-51
l8 72q-35 -48 -77 -68t-116 -20q-211 0 -210 180q0 76 20 157t53 128q72 109 246 108h164l20 123q33 191 -15 248q-29 35 -107 35z" />
    <glyph glyph-name="aring" unicode="&#xe5;" horiz-adv-x="694" 
d="M520 1499q-51 0 -84 -50q-33 -49 -33 -109q0 -111 82 -109q49 0 82 49t33 134t-80 85zM516 1548q144 0 142 -162q0 -80 -51 -142q-50 -62 -124 -62q-137 0 -137 162q0 82 50 142q50 62 120 62zM338 500q-252 0 -252 -328q0 -70 36 -100t128 -31q92 0 137 51t70 191
l39 217h-158zM404 963q-157 0 -203 -269h-58q25 147 70 217q70 109 203 109q186 0 186 -197q0 -70 -16 -159l-117 -664h-51l8 72q-35 -48 -77 -68t-116 -20q-211 0 -210 180q0 76 20 157t53 128q72 109 246 108h164l20 123q33 191 -15 248q-29 35 -107 35z" />
    <glyph glyph-name="ae" unicode="&#xe6;" horiz-adv-x="1079" 
d="M813 963q-90 0 -143 -68t-80 -223l-19 -109h347q33 180 32 244q0 156 -137 156zM336 506q-133 0 -191 -88q-61 -98 -61 -246q0 -70 36 -100t128 -31q92 0 137 51t70 191l39 223h-158zM422 1020q142 0 176 -119q74 119 213 119q96 0 148 -54q53 -54 53 -134t-43 -326h-414
l-31 -174q-14 -84 -14 -131q0 -160 141 -160q96 0 151 65q54 66 81 216h57q-27 -154 -66 -220q-76 -118 -219 -118t-194 114q-70 -115 -228 -114q-211 0 -213 171q0 85 22 168t54 130q74 111 246 110h162l20 117q34 192 -16 248q-32 35 -108 35q-154 0 -201 -269h-58
q25 147 70 217q69 109 211 109z" />
    <glyph glyph-name="ccedilla" unicode="&#xe7;" horiz-adv-x="679" 
d="M98 -422l113 266h78l-146 -266h-45zM80 195q0 66 16 170l54 299q33 188 98 272q66 84 167 84q201 0 201 -203q0 -43 -14 -123h-57q10 74 10 119q0 150 -127 150q-86 0 -138 -73t-79 -235l-55 -307q-14 -74 -15 -145q0 -162 125 -162q115 0 174 113q32 65 52 184h57
q-29 -174 -74 -244q-70 -111 -211 -110q-184 0 -184 211z" />
    <glyph glyph-name="egrave" unicode="&#xe8;" horiz-adv-x="700" 
d="M528 1196h-41l-79 266h77zM436 963q-92 0 -144 -68t-79 -223l-20 -109h346q35 180 34 244q0 156 -137 156zM276 41q94 0 148 65q53 66 80 216h57q-27 -154 -65 -220q-72 -119 -222 -118q-94 0 -145 55t-51 139t16 176l58 320q31 182 90 254q78 92 184 92q209 0 209 -209
q-1 -57 -21 -173t-24 -132h-408l-28 -174q-14 -72 -15 -131q0 -160 137 -160z" />
    <glyph glyph-name="eacute" unicode="&#xe9;" horiz-adv-x="700" 
d="M434 1196l133 266h82l-168 -266h-47zM436 963q-92 0 -144 -68t-79 -223l-20 -109h346q35 180 34 244q0 156 -137 156zM276 41q94 0 148 65q53 66 80 216h57q-27 -154 -65 -220q-72 -119 -222 -118q-94 0 -145 55t-51 139t16 176l58 320q31 182 90 254q78 92 184 92
q209 0 209 -209q-1 -57 -21 -173t-24 -132h-408l-28 -174q-14 -72 -15 -131q0 -160 137 -160z" />
    <glyph glyph-name="ecircumflex" unicode="&#xea;" horiz-adv-x="700" 
d="M516 1382l-121 -172h-78l191 238h33l106 -238h-69zM436 963q-92 0 -144 -68t-79 -223l-20 -109h346q35 180 34 244q0 156 -137 156zM276 41q94 0 148 65q53 66 80 216h57q-27 -154 -65 -220q-72 -119 -222 -118q-94 0 -145 55t-51 139t16 176l58 320q31 182 90 254
q78 92 184 92q209 0 209 -209q-1 -57 -21 -173t-24 -132h-408l-28 -174q-14 -72 -15 -131q0 -160 137 -160z" />
    <glyph glyph-name="edieresis" unicode="&#xeb;" horiz-adv-x="700" 
d="M571 1219l29 167h57l-28 -167h-58zM338 1219l29 167h57l-29 -167h-57zM436 963q-92 0 -144 -68t-79 -223l-20 -109h346q35 180 34 244q0 156 -137 156zM276 41q94 0 148 65q53 66 80 216h57q-27 -154 -65 -220q-72 -119 -222 -118q-94 0 -145 55t-51 139t16 176l58 320
q31 182 90 254q78 92 184 92q209 0 209 -209q-1 -57 -21 -173t-24 -132h-408l-28 -174q-14 -72 -15 -131q0 -160 137 -160z" />
    <glyph glyph-name="igrave" unicode="&#xec;" horiz-adv-x="352" 
d="M348 1196h-41l-80 266h78zM57 0l176 1004h62l-176 -1004h-62z" />
    <glyph glyph-name="iacute" unicode="&#xed;" horiz-adv-x="352" 
d="M254 1196l133 266h82l-168 -266h-47zM57 0l176 1004h62l-176 -1004h-62z" />
    <glyph glyph-name="icircumflex" unicode="&#xee;" horiz-adv-x="352" 
d="M336 1382l-121 -172h-78l191 238h32l107 -238h-70zM57 0l176 1004h62l-176 -1004h-62z" />
    <glyph glyph-name="idieresis" unicode="&#xef;" horiz-adv-x="352" 
d="M391 1219l29 167h57l-28 -167h-58zM158 1219l28 167h58l-29 -167h-57zM57 0l176 1004h62l-176 -1004h-62z" />
    <glyph glyph-name="eth" unicode="&#xf0;" horiz-adv-x="724" 
d="M440 963q-94 0 -146 -67t-81 -224l-59 -340q-12 -68 -13 -131q0 -160 148 -160q94 1 145 67t80 224l59 340q14 74 15 129q0 162 -148 162zM429 1020q111 0 169 -64q-8 193 -39 281l-145 -66l-17 46l142 63q-61 115 -158 137l16 53q119 -20 199 -163l133 61l14 -45
l-129 -59q41 -127 41 -305t-30 -351l-50 -278q-18 -106 -37 -160t-55 -94q-74 -92 -184 -92q-219 0 -219 217q0 49 16 153l58 320q31 182 90 254q74 92 185 92z" />
    <glyph glyph-name="ntilde" unicode="&#xf1;" horiz-adv-x="745" 
d="M455 1413q43 0 84 -67q39 -68 61 -68q31 0 68 119h41q-27 -94 -55 -131t-74 -37t-82 67q-23 44 -34 56t-26 12q-30 0 -67 -119h-43q27 90 55 129q29 39 72 39zM477 1020q86 0 132 -50t46 -132t-18 -189l-115 -649h-61l117 659q16 98 16 152q0 152 -121 152
q-99 -1 -159 -91t-95 -288l-102 -584h-62l176 1004h52l-17 -117q82 133 211 133z" />
    <glyph glyph-name="ograve" unicode="&#xf2;" horiz-adv-x="724" 
d="M535 1196h-41l-80 266h78zM446 963q-98 0 -152 -68t-81 -223l-59 -340q-14 -72 -15 -131q0 -160 142 -160q96 -1 151 67t82 224l59 340q14 84 15 129q0 162 -142 162zM433 1020q216 0 216 -215q0 -45 -18 -156l-58 -319q-18 -106 -37 -160t-55 -94q-78 -92 -188 -92
q-215 0 -215 213q0 46 16 157l58 320q18 106 37 160t55 94q78 92 189 92z" />
    <glyph glyph-name="oacute" unicode="&#xf3;" horiz-adv-x="724" 
d="M440 1196l133 266h82l-168 -266h-47zM446 963q-98 0 -152 -68t-81 -223l-59 -340q-14 -72 -15 -131q0 -160 142 -160q96 -1 151 67t82 224l59 340q14 84 15 129q0 162 -142 162zM433 1020q216 0 216 -215q0 -45 -18 -156l-58 -319q-18 -106 -37 -160t-55 -94
q-78 -92 -188 -92q-215 0 -215 213q0 46 16 157l58 320q18 106 37 160t55 94q78 92 189 92z" />
    <glyph glyph-name="ocircumflex" unicode="&#xf4;" horiz-adv-x="724" 
d="M522 1382l-121 -172h-77l190 238h33l106 -238h-69zM446 963q-98 0 -152 -68t-81 -223l-59 -340q-14 -72 -15 -131q0 -160 142 -160q96 -1 151 67t82 224l59 340q14 84 15 129q0 162 -142 162zM433 1020q216 0 216 -215q0 -45 -18 -156l-58 -319q-18 -106 -37 -160
t-55 -94q-78 -92 -188 -92q-215 0 -215 213q0 46 16 157l58 320q18 106 37 160t55 94q78 92 189 92z" />
    <glyph glyph-name="otilde" unicode="&#xf5;" horiz-adv-x="724" 
d="M444 1413q42 0 84 -67q39 -68 62 -68q31 0 67 119h41q-26 -94 -54 -131t-75 -37t-82 67q-23 43 -33 56q-11 12 -26 12q-31 0 -68 -119h-43q27 90 56 129t71 39zM446 963q-98 0 -152 -68t-81 -223l-59 -340q-14 -72 -15 -131q0 -160 142 -160q96 -1 151 67t82 224l59 340
q14 84 15 129q0 162 -142 162zM433 1020q216 0 216 -215q0 -45 -18 -156l-58 -319q-18 -106 -37 -160t-55 -94q-78 -92 -188 -92q-215 0 -215 213q0 46 16 157l58 320q18 106 37 160t55 94q78 92 189 92z" />
    <glyph glyph-name="odieresis" unicode="&#xf6;" horiz-adv-x="724" 
d="M578 1219l28 167h58l-29 -167h-57zM344 1219l29 167h57l-29 -167h-57zM446 963q-98 0 -152 -68t-81 -223l-59 -340q-14 -72 -15 -131q0 -160 142 -160q96 -1 151 67t82 224l59 340q14 84 15 129q0 162 -142 162zM433 1020q216 0 216 -215q0 -45 -18 -156l-58 -319
q-18 -106 -37 -160t-55 -94q-78 -92 -188 -92q-215 0 -215 213q0 46 16 157l58 320q18 106 37 160t55 94q78 92 189 92z" />
    <glyph glyph-name="divide" unicode="&#xf7;" 
d="M479 956l27 142h61l-26 -142h-62zM385 422l27 141h61l-27 -141h-61zM176 731l10 57h590l-10 -57h-590z" />
    <glyph glyph-name="oslash" unicode="&#xf8;" horiz-adv-x="724" 
d="M441 963q-93 0 -148 -68t-82 -223l-59 -340q-12 -78 -13 -121v-25l428 709q-33 68 -126 68zM285 41q92 0 145 68t82 223l59 340q14 74 15 121v24l-430 -708q37 -68 129 -68zM647 798q0 -54 -18 -149l-56 -319q-31 -178 -92 -254q-77 -92 -193 -92t-167 65l-45 -74l-47 29
l61 102q-12 42 -12 96t16 152l56 320q35 184 94 254q78 92 194 92t166 -66l45 74l47 -29l-61 -102q12 -45 12 -99z" />
    <glyph glyph-name="ugrave" unicode="&#xf9;" horiz-adv-x="729" 
d="M535 1196h-41l-80 266h78zM150 188q0 -147 112 -147q94 0 154 90q59 90 94 289l102 584h62l-178 -1004h-50l17 117q-43 -72 -90 -103q-47 -30 -122 -30t-119 49t-44 127t21 194l114 650h62l-117 -660q-18 -111 -18 -156z" />
    <glyph glyph-name="uacute" unicode="&#xfa;" horiz-adv-x="729" 
d="M440 1196l133 266h82l-168 -266h-47zM150 188q0 -147 112 -147q94 0 154 90q59 90 94 289l102 584h62l-178 -1004h-50l17 117q-43 -72 -90 -103q-47 -30 -122 -30t-119 49t-44 127t21 194l114 650h62l-117 -660q-18 -111 -18 -156z" />
    <glyph glyph-name="ucircumflex" unicode="&#xfb;" horiz-adv-x="729" 
d="M522 1382l-121 -172h-77l190 238h33l106 -238h-69zM150 188q0 -147 112 -147q94 0 154 90q59 90 94 289l102 584h62l-178 -1004h-50l17 117q-43 -72 -90 -103q-47 -30 -122 -30t-119 49t-44 127t21 194l114 650h62l-117 -660q-18 -111 -18 -156z" />
    <glyph glyph-name="udieresis" unicode="&#xfc;" horiz-adv-x="729" 
d="M578 1219l28 167h58l-29 -167h-57zM344 1219l29 167h57l-29 -167h-57zM150 188q0 -147 112 -147q94 0 154 90q59 90 94 289l102 584h62l-178 -1004h-50l17 117q-43 -72 -90 -103q-47 -30 -122 -30t-119 49t-44 127t21 194l114 650h62l-117 -660q-18 -111 -18 -156z" />
    <glyph glyph-name="yacute" unicode="&#xfd;" horiz-adv-x="626" 
d="M397 1196l133 266h82l-168 -266h-47zM199 -18l-56 1022h58l43 -934l344 934h61l-473 -1254q-53 -129 -103 -174t-143 -47l11 57q69 2 103 36t75 140z" />
    <glyph glyph-name="thorn" unicode="&#xfe;" horiz-adv-x="737" 
d="M600 782q0 180 -131 181q-184 0 -254 -400l-20 -123q-20 -109 -21 -186q0 -213 133 -213q172 0 225 301l58 320q10 66 10 120zM471 1020q190 0 191 -232q0 -66 -13 -139l-57 -319q-61 -346 -285 -346q-135 0 -172 125l-100 -570h-62l340 1923h62l-103 -571
q76 129 199 129z" />
    <glyph glyph-name="ydieresis" unicode="&#xff;" horiz-adv-x="626" 
d="M528 1219l29 167h57l-28 -167h-58zM295 1219l29 167h57l-29 -167h-57zM199 -18l-56 1022h58l43 -934l344 934h61l-473 -1254q-53 -129 -103 -174t-143 -47l11 57q69 2 103 36t75 140z" />
    <glyph glyph-name="Amacron" unicode="&#x100;" horiz-adv-x="745" 
d="M444 1743l9 49h278l-8 -49h-279zM555 412l-31 934l-360 -934h391zM557 354h-416l-137 -354h-67l579 1462h51l68 -1462h-66z" />
    <glyph glyph-name="amacron" unicode="&#x101;" horiz-adv-x="694" 
d="M336 1300l8 50h279l-9 -50h-278zM338 500q-252 0 -252 -328q0 -70 36 -100t128 -31q92 0 137 51t70 191l39 217h-158zM404 963q-157 0 -203 -269h-58q25 147 70 217q70 109 203 109q186 0 186 -197q0 -70 -16 -159l-117 -664h-51l8 72q-35 -48 -77 -68t-116 -20
q-211 0 -210 180q0 76 20 157t53 128q72 109 246 108h164l20 123q33 191 -15 248q-29 35 -107 35z" />
    <glyph glyph-name="Abreve" unicode="&#x102;" horiz-adv-x="745" 
d="M496 1788q0 -88 71 -88q53 0 81 39t46 137h56q-18 -100 -39 -143q-45 -90 -144 -91q-61 0 -95 31t-34 80t13 123h53q-8 -51 -8 -88zM555 412l-31 934l-360 -934h391zM557 354h-416l-137 -354h-67l579 1462h51l68 -1462h-66z" />
    <glyph glyph-name="abreve" unicode="&#x103;" horiz-adv-x="694" 
d="M410 1346q0 -88 71 -89q53 0 81 39t46 138h56q-23 -109 -39 -144q-45 -90 -144 -90q-61 0 -95 31t-34 75t13 128h53q-8 -51 -8 -88zM338 500q-252 0 -252 -328q0 -70 36 -100t128 -31q92 0 137 51t70 191l39 217h-158zM404 963q-157 0 -203 -269h-58q25 147 70 217
q70 109 203 109q186 0 186 -197q0 -70 -16 -159l-117 -664h-51l8 72q-35 -48 -77 -68t-116 -20q-211 0 -210 180q0 76 20 157t53 128q72 109 246 108h164l20 123q33 191 -15 248q-29 35 -107 35z" />
    <glyph glyph-name="Aogonek" unicode="&#x104;" horiz-adv-x="745" 
d="M555 412l-31 934l-360 -934h391zM444 -250q0 -53 76 -53q33 0 76 14v-55q-49 -16 -94 -16q-121 0 -121 96q0 74 52 148t136 116l-12 354h-416l-137 -354h-67l579 1462h51l68 -1462l-17 -12q-174 -121 -174 -238z" />
    <glyph glyph-name="aogonek" unicode="&#x105;" horiz-adv-x="694" 
d="M338 500q-252 0 -252 -328q0 -70 36 -100t128 -31q92 0 137 51t70 191l39 217h-158zM354 -303q33 0 76 14v-55q-49 -16 -94 -16q-121 0 -121 96q0 160 203 274l8 62q-35 -48 -77 -68t-116 -20q-211 0 -210 180q0 76 20 157t53 128q72 109 246 108h164l20 123
q33 191 -15 248q-29 35 -107 35q-157 0 -203 -269h-58q25 147 70 217q70 109 203 109q186 0 186 -197q0 -69 -16 -159l-117 -664q-80 -55 -107 -82q-84 -80 -83 -168q0 -53 75 -53z" />
    <glyph glyph-name="Cacute" unicode="&#x106;" horiz-adv-x="827" 
d="M588 1638l135 267h80l-168 -267h-47zM338 -16q-229 0 -229 241q0 76 18 170l121 697q37 205 113 296q77 91 200 91q123 -1 187 -63t63 -173q0 -49 -14 -143h-58q8 82 9 127q0 195 -175 194q-111 0 -172 -79t-92 -259l-125 -704q-14 -86 -14 -141q0 -197 166 -197
q122 0 188 82t99 268h57q-25 -150 -62 -227q-84 -180 -280 -180z" />
    <glyph glyph-name="cacute" unicode="&#x107;" horiz-adv-x="679" 
d="M434 1196l133 266h82l-168 -266h-47zM80 195q0 66 16 170l54 299q33 188 98 272q66 84 167 84q201 0 201 -203q0 -43 -14 -123h-57q10 74 10 119q0 150 -127 150q-86 0 -138 -73t-79 -235l-55 -307q-14 -74 -15 -145q0 -162 125 -162q115 0 174 113q32 65 52 184h57
q-29 -174 -74 -244q-70 -111 -211 -110q-184 0 -184 211z" />
    <glyph glyph-name="Ccircumflex" unicode="&#x108;" horiz-adv-x="827" 
d="M643 1825l-121 -172h-78l191 237h33l106 -237h-69zM338 -16q-229 0 -229 241q0 76 18 170l121 697q37 205 113 296q77 91 200 91q123 -1 187 -63t63 -173q0 -49 -14 -143h-58q8 82 9 127q0 195 -175 194q-111 0 -172 -79t-92 -259l-125 -704q-14 -86 -14 -141
q0 -197 166 -197q122 0 188 82t99 268h57q-25 -150 -62 -227q-84 -180 -280 -180z" />
    <glyph glyph-name="ccircumflex" unicode="&#x109;" horiz-adv-x="679" 
d="M500 1382l-121 -172h-78l191 238h32l107 -238h-70zM80 195q0 66 16 170l54 299q33 188 98 272q66 84 167 84q201 0 201 -203q0 -43 -14 -123h-57q10 74 10 119q0 150 -127 150q-86 0 -138 -73t-79 -235l-55 -307q-14 -74 -15 -145q0 -162 125 -162q115 0 174 113
q32 65 52 184h57q-29 -174 -74 -244q-70 -111 -211 -110q-184 0 -184 211z" />
    <glyph glyph-name="Cdotaccent" unicode="&#x10a;" horiz-adv-x="827" 
d="M586 1661l28 168h62l-29 -168h-61zM338 -16q-229 0 -229 241q0 76 18 170l121 697q37 205 113 296q77 91 200 91q123 -1 187 -63t63 -173q0 -49 -14 -143h-58q8 82 9 127q0 195 -175 194q-111 0 -172 -79t-92 -259l-125 -704q-14 -86 -14 -141q0 -197 166 -197
q122 0 188 82t99 268h57q-25 -150 -62 -227q-84 -180 -280 -180z" />
    <glyph glyph-name="cdotaccent" unicode="&#x10b;" horiz-adv-x="679" 
d="M438 1219l29 167h61l-28 -167h-62zM80 195q0 66 16 170l54 299q33 188 98 272q66 84 167 84q201 0 201 -203q0 -43 -14 -123h-57q10 74 10 119q0 150 -127 150q-86 0 -138 -73t-79 -235l-55 -307q-14 -74 -15 -145q0 -162 125 -162q115 0 174 113q32 65 52 184h57
q-29 -174 -74 -244q-70 -111 -211 -110q-184 0 -184 211z" />
    <glyph glyph-name="Ccaron" unicode="&#x10c;" horiz-adv-x="827" 
d="M610 1718l123 172h76l-191 -237h-32l-107 237h70zM338 -16q-229 0 -229 241q0 76 18 170l121 697q37 205 113 296q77 91 200 91q123 -1 187 -63t63 -173q0 -49 -14 -143h-58q8 82 9 127q0 195 -175 194q-111 0 -172 -79t-92 -259l-125 -704q-14 -86 -14 -141
q0 -197 166 -197q122 0 188 82t99 268h57q-25 -150 -62 -227q-84 -180 -280 -180z" />
    <glyph glyph-name="ccaron" unicode="&#x10d;" horiz-adv-x="679" 
d="M479 1276l123 172h76l-191 -238h-32l-107 238h70zM80 195q0 66 16 170l54 299q33 188 98 272q66 84 167 84q201 0 201 -203q0 -43 -14 -123h-57q10 74 10 119q0 150 -127 150q-86 0 -138 -73t-79 -235l-55 -307q-14 -74 -15 -145q0 -162 125 -162q115 0 174 113
q32 65 52 184h57q-29 -174 -74 -244q-70 -111 -211 -110q-184 0 -184 211z" />
    <glyph glyph-name="Dcaron" unicode="&#x10e;" horiz-adv-x="880" 
d="M604 1718l123 172h76l-191 -237h-32l-107 237h70zM582 1405h-197l-238 -1348h197q129 -2 209 83t106 253l119 676q14 88 15 125q0 211 -211 211zM588 1462q266 0 266 -260q0 -53 -14 -133l-123 -698q-29 -181 -123 -277t-240 -94h-278l258 1462h254z" />
    <glyph glyph-name="dcaron" unicode="&#x10f;" horiz-adv-x="796" 
d="M834 1087l92 375h69l-118 -375h-43zM274 41q184 0 254 399l23 123q18 104 18 187q0 213 -137 213q-166 0 -221 -301l-55 -320q-12 -63 -13 -119q0 -182 131 -182zM274 -16q-193 0 -192 233q0 59 14 137l56 320q59 346 284 346q135 0 172 -129l101 571h61l-258 -1462h-49
l14 121q-76 -137 -203 -137z" />
    <glyph glyph-name="Dcroat" unicode="&#x110;" horiz-adv-x="880" 
d="M582 1405h-197l-113 -635h244l-10 -57h-244l-115 -656h197q129 -2 209 83t106 253l119 676q14 88 15 125q0 211 -211 211zM588 1462q266 0 266 -260q0 -53 -14 -133l-123 -698q-29 -181 -123 -277t-240 -94h-278l125 713h-111l10 57h111l123 692h254z" />
    <glyph glyph-name="dcroat" unicode="&#x111;" horiz-adv-x="743" 
d="M274 41q184 0 254 399l23 123q18 104 18 187q0 213 -137 213q-166 0 -221 -301l-55 -320q-12 -63 -13 -119q0 -182 131 -182zM274 -16q-193 0 -192 233q0 59 14 137l56 320q59 346 284 346q135 0 172 -129l51 295h-196l10 57h197l39 219h61l-39 -219h98l-10 -57h-98
l-209 -1186h-49l14 121q-76 -137 -203 -137z" />
    <glyph glyph-name="Emacron" unicode="&#x112;" horiz-adv-x="747" 
d="M487 1743l9 49h278l-8 -49h-279zM76 0l258 1462h493l-10 -57h-432l-113 -635h369l-10 -57h-369l-115 -656h431l-11 -57h-491z" />
    <glyph glyph-name="emacron" unicode="&#x113;" horiz-adv-x="700" 
d="M352 1300l8 50h279l-8 -50h-279zM436 963q-92 0 -144 -68t-79 -223l-20 -109h346q35 180 34 244q0 156 -137 156zM276 41q94 0 148 65q53 66 80 216h57q-27 -154 -65 -220q-72 -119 -222 -118q-94 0 -145 55t-51 139t16 176l58 320q31 182 90 254q78 92 184 92
q209 0 209 -209q-1 -57 -21 -173t-24 -132h-408l-28 -174q-14 -72 -15 -131q0 -160 137 -160z" />
    <glyph glyph-name="Ebreve" unicode="&#x114;" horiz-adv-x="747" 
d="M541 1788q0 -88 71 -88q53 0 81 39t46 137h56q-18 -100 -39 -143q-45 -90 -144 -91q-61 0 -95 31q-33 31 -33 80t12 123h53q-8 -51 -8 -88zM76 0l258 1462h493l-10 -57h-432l-113 -635h369l-10 -57h-369l-115 -656h431l-11 -57h-491z" />
    <glyph glyph-name="ebreve" unicode="&#x115;" horiz-adv-x="700" 
d="M412 1346q0 -88 71 -89q53 0 81 39t46 138h56q-23 -109 -39 -144q-45 -90 -144 -90q-61 0 -95 31t-34 75t13 128h53q-8 -51 -8 -88zM436 963q-92 0 -144 -68t-79 -223l-20 -109h346q35 180 34 244q0 156 -137 156zM276 41q94 0 148 65q53 66 80 216h57q-27 -154 -65 -220
q-72 -119 -222 -118q-94 0 -145 55t-51 139t16 176l58 320q31 182 90 254q78 92 184 92q209 0 209 -209q-1 -57 -21 -173t-24 -132h-408l-28 -174q-14 -72 -15 -131q0 -160 137 -160z" />
    <glyph glyph-name="Edotaccent" unicode="&#x116;" horiz-adv-x="747" 
d="M575 1661l29 168h62l-29 -168h-62zM76 0l258 1462h493l-10 -57h-432l-113 -635h369l-10 -57h-369l-115 -656h431l-11 -57h-491z" />
    <glyph glyph-name="edotaccent" unicode="&#x117;" horiz-adv-x="700" 
d="M453 1219l28 167h62l-29 -167h-61zM436 963q-92 0 -144 -68t-79 -223l-20 -109h346q35 180 34 244q0 156 -137 156zM276 41q94 0 148 65q53 66 80 216h57q-27 -154 -65 -220q-72 -119 -222 -118q-94 0 -145 55t-51 139t16 176l58 320q31 182 90 254q78 92 184 92
q209 0 209 -209q-1 -57 -21 -173t-24 -132h-408l-28 -174q-14 -72 -15 -131q0 -160 137 -160z" />
    <glyph glyph-name="Eogonek" unicode="&#x118;" horiz-adv-x="747" 
d="M377 -250q0 -53 76 -53q33 0 75 14v-55q-49 -16 -94 -16q-121 0 -121 96q-1 74 51 146t136 118h-424l258 1462h493l-10 -57h-432l-113 -635h369l-10 -57h-369l-115 -656h431l-11 -57q-80 -55 -106 -82q-84 -80 -84 -168z" />
    <glyph glyph-name="eogonek" unicode="&#x119;" horiz-adv-x="700" 
d="M436 963q-92 0 -144 -68t-79 -223l-20 -109h346q35 180 34 244q0 156 -137 156zM203 -250q0 -53 76 -53q33 0 75 14v-55q-49 -16 -96 -16q-119 0 -119 98q0 131 146 246h-13q-92 0 -143 56t-51 140t16 174l58 320q31 182 90 254q78 92 184 92q209 0 209 -209
q-1 -57 -21 -173t-24 -132h-408l-28 -174q-14 -72 -15 -131q0 -160 137 -160q94 0 148 65q53 66 80 216h57q-20 -139 -60 -211t-116 -107q-182 -129 -182 -254z" />
    <glyph glyph-name="Ecaron" unicode="&#x11a;" horiz-adv-x="747" 
d="M612 1718l123 172h76l-190 -237h-33l-107 237h70zM76 0l258 1462h493l-10 -57h-432l-113 -635h369l-10 -57h-369l-115 -656h431l-11 -57h-491z" />
    <glyph glyph-name="ecaron" unicode="&#x11b;" horiz-adv-x="700" 
d="M489 1276l123 172h76l-190 -238h-33l-107 238h70zM436 963q-92 0 -144 -68t-79 -223l-20 -109h346q35 180 34 244q0 156 -137 156zM276 41q94 0 148 65q53 66 80 216h57q-27 -154 -65 -220q-72 -119 -222 -118q-94 0 -145 55t-51 139t16 176l58 320q31 182 90 254
q78 92 184 92q209 0 209 -209q-1 -57 -21 -173t-24 -132h-408l-28 -174q-14 -72 -15 -131q0 -160 137 -160z" />
    <glyph glyph-name="Gcircumflex" unicode="&#x11c;" horiz-adv-x="849" 
d="M649 1825l-121 -172h-77l190 237h33l106 -237h-69zM109 236q0 63 18 161l121 695q37 201 104 282q86 104 213 104t192 -58q65 -60 64 -169q0 -55 -16 -151h-57q10 74 10 125q0 197 -183 196q-111 0 -173 -79t-93 -259l-125 -702q-14 -88 -14 -135q0 -205 184 -205
q238 0 299 346l49 285h-204l10 57h266l-61 -346q-67 -401 -361 -399q-119 0 -181 64t-62 188z" />
    <glyph glyph-name="gcircumflex" unicode="&#x11d;" horiz-adv-x="743" 
d="M530 1382l-120 -172h-78l190 238h33l107 -238h-70zM274 41q180 0 254 399l21 123q20 117 20 187q0 213 -139 213q-168 0 -219 -301l-57 -320q-10 -57 -11 -121q0 -180 131 -180zM274 -16q-193 0 -192 233q0 70 12 137l58 320q59 346 282 346q135 0 172 -129l31 113h51
l-203 -1147q-31 -180 -95 -256t-170 -76q-202 0 -204 164q0 49 15 121h57q-8 -66 -8 -95q0 -133 127 -133q94 0 142 64t77 219l43 244q-76 -125 -195 -125z" />
    <glyph glyph-name="Gbreve" unicode="&#x11e;" horiz-adv-x="849" 
d="M539 1788q0 -88 71 -88q53 0 81 39t46 137h56q-18 -100 -39 -143q-45 -90 -144 -91q-61 0 -95 31q-33 31 -33 80t12 123h53q-8 -51 -8 -88zM109 236q0 63 18 161l121 695q37 201 104 282q86 104 213 104t192 -58q65 -60 64 -169q0 -55 -16 -151h-57q10 74 10 125
q0 197 -183 196q-111 0 -173 -79t-93 -259l-125 -702q-14 -88 -14 -135q0 -205 184 -205q238 0 299 346l49 285h-204l10 57h266l-61 -346q-67 -401 -361 -399q-119 0 -181 64t-62 188z" />
    <glyph glyph-name="gbreve" unicode="&#x11f;" horiz-adv-x="743" 
d="M451 1346q0 -88 71 -89q53 0 81 39t46 138h56q-23 -109 -39 -144q-45 -90 -144 -90q-61 0 -95 31q-33 31 -33 75t12 128h53q-8 -51 -8 -88zM274 41q180 0 254 399l21 123q20 117 20 187q0 213 -139 213q-168 0 -219 -301l-57 -320q-10 -57 -11 -121q0 -180 131 -180z
M274 -16q-193 0 -192 233q0 70 12 137l58 320q59 346 282 346q135 0 172 -129l31 113h51l-203 -1147q-31 -180 -95 -256t-170 -76q-202 0 -204 164q0 49 15 121h57q-8 -66 -8 -95q0 -133 127 -133q94 0 142 64t77 219l43 244q-76 -125 -195 -125z" />
    <glyph glyph-name="Gdotaccent" unicode="&#x120;" horiz-adv-x="849" 
d="M584 1661l28 168h62l-29 -168h-61zM109 236q0 63 18 161l121 695q37 201 104 282q86 104 213 104t192 -58q65 -60 64 -169q0 -55 -16 -151h-57q10 74 10 125q0 197 -183 196q-111 0 -173 -79t-93 -259l-125 -702q-14 -88 -14 -135q0 -205 184 -205q238 0 299 346l49 285
h-204l10 57h266l-61 -346q-67 -401 -361 -399q-119 0 -181 64t-62 188z" />
    <glyph glyph-name="gdotaccent" unicode="&#x121;" horiz-adv-x="743" 
d="M483 1219l29 167h61l-28 -167h-62zM274 41q180 0 254 399l21 123q20 117 20 187q0 213 -139 213q-168 0 -219 -301l-57 -320q-10 -57 -11 -121q0 -180 131 -180zM274 -16q-193 0 -192 233q0 70 12 137l58 320q59 346 282 346q135 0 172 -129l31 113h51l-203 -1147
q-31 -180 -95 -256t-170 -76q-202 0 -204 164q0 49 15 121h57q-8 -66 -8 -95q0 -133 127 -133q94 0 142 64t77 219l43 244q-76 -125 -195 -125z" />
    <glyph glyph-name="Gcommaaccent" unicode="&#x122;" horiz-adv-x="849" 
d="M158 -422l112 266h78l-145 -266h-45zM109 236q0 63 18 161l121 695q37 201 104 282q86 104 213 104t192 -58q65 -60 64 -169q0 -55 -16 -151h-57q10 74 10 125q0 197 -183 196q-111 0 -173 -79t-93 -259l-125 -702q-14 -88 -14 -135q0 -205 184 -205q238 0 299 346
l49 285h-204l10 57h266l-61 -346q-67 -401 -361 -399q-119 0 -181 64t-62 188z" />
    <glyph glyph-name="gcommaaccent" unicode="&#x123;" horiz-adv-x="743" 
d="M465 1196l168 266h47l-133 -266h-82zM274 41q180 0 254 399l21 123q20 117 20 187q0 213 -139 213q-168 0 -219 -301l-57 -320q-10 -57 -11 -121q0 -180 131 -180zM274 -16q-193 0 -192 233q0 70 12 137l58 320q59 346 282 346q135 0 172 -129l31 113h51l-203 -1147
q-31 -180 -95 -256t-170 -76q-202 0 -204 164q0 49 15 121h57q-8 -66 -8 -95q0 -133 127 -133q94 0 142 64t77 219l43 244q-76 -125 -195 -125z" />
    <glyph glyph-name="Hcircumflex" unicode="&#x124;" horiz-adv-x="880" 
d="M670 1825l-121 -172h-78l191 237h32l107 -237h-70zM76 0l258 1462h61l-123 -692h430l123 692h62l-258 -1462h-62l125 713h-430l-125 -713h-61z" />
    <glyph glyph-name="hcircumflex" unicode="&#x125;" horiz-adv-x="745" 
d="M442 1825l-120 -172h-78l190 237h33l106 -237h-69zM479 1020q84 0 130 -50t46 -132t-18 -189l-115 -649h-61l117 659q16 96 16 150q0 154 -121 154q-99 -1 -159 -91t-95 -288l-102 -584h-62l258 1462h62l-99 -559q78 117 203 117z" />
    <glyph glyph-name="Hbar" unicode="&#x126;" horiz-adv-x="880" 
d="M272 770h430l43 246h-430zM76 0l178 1016h-74l10 57h74l70 389h61l-69 -389h430l69 389h62l-70 -389h74l-10 -57h-74l-178 -1016h-62l125 713h-430l-125 -713h-61z" />
    <glyph glyph-name="hbar" unicode="&#x127;" horiz-adv-x="745" 
d="M479 1020q84 0 130 -50t46 -132t-18 -189l-115 -649h-61l117 659q16 96 16 150q0 154 -121 154q-99 -1 -159 -91t-95 -288l-102 -584h-62l209 1186h-104l10 57h104l39 219h62l-39 -219h190l-10 -57h-190l-50 -283q78 117 203 117z" />
    <glyph glyph-name="Itilde" unicode="&#x128;" horiz-adv-x="389" 
d="M500 1720q33 0 67 119h41q-26 -92 -54 -130t-75 -38t-82 68q-23 43 -33 55q-11 12 -26 12q-31 1 -68 -118h-43q27 90 56 129t73 39t82 -68q39 -68 62 -68zM76 0l258 1462h61l-258 -1462h-61z" />
    <glyph glyph-name="itilde" unicode="&#x129;" horiz-adv-x="352" 
d="M258 1413q43 0 84 -67q39 -68 61 -68q31 0 68 119h41q-26 -94 -54 -131t-75 -37t-82 67q-23 44 -34 56t-25 12q-31 0 -68 -119h-43q27 90 55 129q29 39 72 39zM57 0l176 1004h62l-176 -1004h-62z" />
    <glyph glyph-name="Imacron" unicode="&#x12a;" horiz-adv-x="389" 
d="M274 1743l9 49h278l-8 -49h-279zM76 0l258 1462h61l-258 -1462h-61z" />
    <glyph glyph-name="imacron" unicode="&#x12b;" horiz-adv-x="352" 
d="M178 1300l8 50h279l-8 -50h-279zM57 0l176 1004h62l-176 -1004h-62z" />
    <glyph glyph-name="Ibreve" unicode="&#x12c;" horiz-adv-x="389" 
d="M334 1788q0 -88 72 -88q52 0 80 39t46 137h56q-18 -100 -39 -143q-45 -90 -143 -91q-61 0 -96 31q-34 31 -34 80t13 123h53q-8 -51 -8 -88zM76 0l258 1462h61l-258 -1462h-61z" />
    <glyph glyph-name="ibreve" unicode="&#x12d;" horiz-adv-x="352" 
d="M238 1346q0 -88 71 -89q53 0 81 39t46 138h56q-23 -109 -39 -144q-45 -90 -144 -90q-61 0 -95 31t-34 75t13 128h53q-8 -51 -8 -88zM57 0l176 1004h62l-176 -1004h-62z" />
    <glyph glyph-name="Iogonek" unicode="&#x12e;" horiz-adv-x="389" 
d="M-51 -250q0 -53 76 -53q33 0 75 14v-55q-49 -16 -96 -16q-119 0 -119 96q-1 76 53 150t140 116l256 1460h61l-256 -1462q-80 -55 -106 -82q-84 -80 -84 -168z" />
    <glyph glyph-name="iogonek" unicode="&#x12f;" horiz-adv-x="352" 
d="M287 1294l28 168h62l-29 -168h-61zM-70 -250q0 -53 76 -53q33 0 76 14v-55q-49 -16 -96 -16q-119 0 -119 96q0 76 51 148t141 120l177 1000h61l-176 -1004q-80 -55 -107 -82q-84 -80 -84 -168z" />
    <glyph glyph-name="Idotaccent" unicode="&#x130;" horiz-adv-x="389" 
d="M367 1661l28 168h62l-29 -168h-61zM76 0l258 1462h61l-258 -1462h-61z" />
    <glyph glyph-name="dotlessi" unicode="&#x131;" horiz-adv-x="352" 
d="M57 0l176 1004h62l-176 -1004h-62z" />
    <glyph glyph-name="IJ" unicode="&#x132;" horiz-adv-x="778" 
d="M217 -494q-57 0 -117 29l37 51q39 -23 78 -22q117 0 178 125q27 59 58 227l272 1546h61l-274 -1552q-39 -213 -78 -281q-78 -123 -215 -123zM76 0l258 1462h61l-258 -1462h-61z" />
    <glyph glyph-name="ij" unicode="&#x133;" horiz-adv-x="684" 
d="M565 1004h62l-191 -1084q-32 -209 -100 -303t-184 -88l10 59q82 -8 133 71t78 253zM616 1294l31 168h62l-31 -168h-62zM57 0l176 1004h62l-176 -1004h-62zM285 1294l30 168h62l-31 -168h-61z" />
    <glyph glyph-name="Jcircumflex" unicode="&#x134;" horiz-adv-x="552" 
d="M588 1825l-121 -172h-78l191 237h32l107 -237h-70zM97 -14q-132 0 -191 104l49 37q53 -84 133 -84q117 0 178 125q27 55 56 227l188 1067h61l-188 -1073q-27 -145 -39 -191t-39 -89q-76 -123 -208 -123z" />
    <glyph glyph-name="jcircumflex" unicode="&#x135;" horiz-adv-x="356" 
d="M336 1382l-121 -172h-78l191 238h32l107 -238h-70zM238 1004h61l-190 -1084q-31 -209 -100 -303t-185 -88l10 59q82 -8 133 71t78 253z" />
    <glyph glyph-name="Kcommaaccent" unicode="&#x136;" horiz-adv-x="794" 
d="M211 -422l113 266h77l-145 -266h-45zM76 0l258 1462h61l-153 -870l587 870h70l-416 -610l195 -852h-62l-180 782l-217 -321l-82 -461h-61z" />
    <glyph glyph-name="kcommaaccent" unicode="&#x137;" horiz-adv-x="704" 
d="M125 -422l113 266h77l-145 -266h-45zM55 0l258 1462h62l-197 -1110l422 652h72l-283 -426l131 -578h-65l-109 514l-190 -289l-39 -225h-62z" />
    <glyph glyph-name="kgreenlandic" unicode="&#x138;" horiz-adv-x="704" 
d="M55 0l176 1004h62l-115 -652l422 652h72l-283 -426l131 -578h-65l-109 514l-190 -289l-39 -225h-62z" />
    <glyph glyph-name="Lacute" unicode="&#x139;" horiz-adv-x="704" 
d="M383 1638l135 267h80l-168 -267h-47zM76 0l258 1462h61l-248 -1405h449l-10 -57h-510z" />
    <glyph glyph-name="lacute" unicode="&#x13a;" horiz-adv-x="389" 
d="M348 1638l133 267h82l-168 -267h-47zM223 0q-141 0 -141 115q0 45 12 116l217 1231h62l-217 -1233q-22 -128 10 -154q20 -17 70 -18h26l-10 -57h-29z" />
    <glyph glyph-name="Lcommaaccent" unicode="&#x13b;" horiz-adv-x="704" 
d="M166 -422l113 266h77l-145 -266h-45zM76 0l258 1462h61l-248 -1405h449l-10 -57h-510z" />
    <glyph glyph-name="lcommaaccent" unicode="&#x13c;" horiz-adv-x="389" 
d="M-33 -422l113 266h78l-146 -266h-45zM225 0q-143 0 -143 108q0 52 12 123l217 1231h62l-217 -1233q-10 -69 -10 -103q-1 -68 90 -69h26l-10 -57h-27z" />
    <glyph glyph-name="Lcaron" unicode="&#x13d;" horiz-adv-x="704" 
d="M473 1087l92 375h70l-119 -375h-43zM76 0l258 1462h61l-248 -1405h449l-10 -57h-510z" />
    <glyph glyph-name="lcaron" unicode="&#x13e;" horiz-adv-x="409" 
d="M446 1087l93 375h69l-119 -375h-43zM223 0q-141 0 -141 115q0 45 12 116l217 1231h62l-217 -1233q-22 -128 10 -154q20 -17 70 -18h26l-10 -57h-29z" />
    <glyph glyph-name="Ldot" unicode="&#x13f;" horiz-adv-x="704" 
d="M524 690l25 139h61l-24 -139h-62zM76 0l258 1462h61l-248 -1405h449l-10 -57h-510z" />
    <glyph glyph-name="ldot" unicode="&#x140;" horiz-adv-x="389" 
d="M356 690l25 139h61l-24 -139h-62zM223 0q-141 0 -141 115q0 45 12 116l217 1231h62l-217 -1233q-22 -128 10 -154q20 -17 70 -18h26l-10 -57h-29z" />
    <glyph glyph-name="Lslash" unicode="&#x141;" horiz-adv-x="704" 
d="M78 0l84 477l-119 -115l16 91l119 114l158 895h61l-145 -823l319 311l-14 -90l-321 -311l-86 -492h448l-10 -57h-510z" />
    <glyph glyph-name="lslash" unicode="&#x142;" horiz-adv-x="389" 
d="M225 0q-143 0 -143 104q0 48 12 127l74 418l-143 -137l16 90l143 137l127 723h62l-115 -651l174 166l-16 -90l-174 -166l-86 -492q-10 -61 -10 -99t20 -55t70 -18h26l-10 -57h-27z" />
    <glyph glyph-name="Nacute" unicode="&#x143;" horiz-adv-x="935" 
d="M623 1638l135 267h80l-168 -267h-47zM76 0l258 1462h59l258 -1302l230 1302h61l-258 -1462h-59l-258 1303l-230 -1303h-61z" />
    <glyph glyph-name="nacute" unicode="&#x144;" horiz-adv-x="745" 
d="M449 1196l133 266h82l-168 -266h-47zM477 1020q86 0 132 -50t46 -132t-18 -189l-115 -649h-61l117 659q16 98 16 152q0 152 -121 152q-99 -1 -159 -91t-95 -288l-102 -584h-62l176 1004h52l-17 -117q82 133 211 133z" />
    <glyph glyph-name="Ncommaaccent" unicode="&#x145;" horiz-adv-x="935" 
d="M219 -422l113 266h78l-146 -266h-45zM76 0l258 1462h59l258 -1302l230 1302h61l-258 -1462h-59l-258 1303l-230 -1303h-61z" />
    <glyph glyph-name="ncommaaccent" unicode="&#x146;" horiz-adv-x="745" 
d="M127 -422l113 266h77l-145 -266h-45zM477 1020q86 0 132 -50t46 -132t-18 -189l-115 -649h-61l117 659q16 98 16 152q0 152 -121 152q-99 -1 -159 -91t-95 -288l-102 -584h-62l176 1004h52l-17 -117q82 133 211 133z" />
    <glyph glyph-name="Ncaron" unicode="&#x147;" horiz-adv-x="935" 
d="M672 1718l123 172h75l-190 -237h-33l-106 237h69zM76 0l258 1462h59l258 -1302l230 1302h61l-258 -1462h-59l-258 1303l-230 -1303h-61z" />
    <glyph glyph-name="ncaron" unicode="&#x148;" horiz-adv-x="745" 
d="M506 1276l123 172h76l-191 -238h-33l-106 238h69zM477 1020q86 0 132 -50t46 -132t-18 -189l-115 -649h-61l117 659q16 98 16 152q0 152 -121 152q-99 -1 -159 -91t-95 -288l-102 -584h-62l176 1004h52l-17 -117q82 133 211 133z" />
    <glyph glyph-name="napostrophe" unicode="&#x149;" horiz-adv-x="763" 
d="M141 1018l125 444h66l-144 -444h-47zM496 1020q86 0 132 -50t46 -132t-19 -189l-114 -649h-62l117 659q16 98 16 152q0 152 -120 152q-98 -1 -158 -91t-96 -288l-103 -584h-61l176 1004h51l-16 -117q82 133 211 133z" />
    <glyph glyph-name="Eng" unicode="&#x14a;" horiz-adv-x="935" 
d="M76 0l258 1462h59l258 -1302l230 1302h61l-274 -1554q-33 -201 -100 -291t-183 -88l10 59q82 -8 133 70t80 254l17 88l-258 1303l-230 -1303h-61z" />
    <glyph glyph-name="eng" unicode="&#x14b;" horiz-adv-x="745" 
d="M477 1020q86 0 132 -50t46 -132t-18 -189l-131 -741q-32 -199 -100 -290t-183 -89l10 59q82 -8 134 71q51 79 77 253l134 747q16 98 16 152q0 152 -121 152q-99 -1 -159 -91t-95 -288l-102 -584h-62l176 1004h52l-17 -117q82 133 211 133z" />
    <glyph glyph-name="Omacron" unicode="&#x14c;" horiz-adv-x="876" 
d="M492 1743l8 49h278l-8 -49h-278zM594 1421q-131 0 -207 -106q-53 -74 -82 -244l-121 -680q-14 -86 -14 -133q0 -102 51 -160t146 -57q131 0 206 106q53 78 82 244l121 680q14 84 15 133q1 102 -51 160t-146 57zM852 1212q0 -63 -14 -141l-125 -704q-31 -186 -107 -279
q-92 -104 -226 -104t-203 70t-68 194q0 65 14 143l125 705q20 113 42 169t64 107q88 106 224 106t206 -70q68 -71 68 -196z" />
    <glyph glyph-name="omacron" unicode="&#x14d;" horiz-adv-x="724" 
d="M365 1300l8 50h278l-8 -50h-278zM446 963q-98 0 -152 -68t-81 -223l-59 -340q-14 -72 -15 -131q0 -160 142 -160q96 -1 151 67t82 224l59 340q14 84 15 129q0 162 -142 162zM433 1020q216 0 216 -215q0 -45 -18 -156l-58 -319q-18 -106 -37 -160t-55 -94
q-78 -92 -188 -92q-215 0 -215 213q0 46 16 157l58 320q18 106 37 160t55 94q78 92 189 92z" />
    <glyph glyph-name="Obreve" unicode="&#x14e;" horiz-adv-x="876" 
d="M578 1788q0 -88 71 -88q53 0 81 39t46 137h55q-18 -100 -38 -143q-45 -90 -144 -91q-61 0 -95 31t-34 80t12 123h54q-8 -51 -8 -88zM594 1421q-131 0 -207 -106q-53 -74 -82 -244l-121 -680q-14 -86 -14 -133q0 -102 51 -160t146 -57q131 0 206 106q53 78 82 244l121 680
q14 84 15 133q1 102 -51 160t-146 57zM852 1212q0 -63 -14 -141l-125 -704q-31 -186 -107 -279q-92 -104 -226 -104t-203 70t-68 194q0 65 14 143l125 705q20 113 42 169t64 107q88 106 224 106t206 -70q68 -71 68 -196z" />
    <glyph glyph-name="obreve" unicode="&#x14f;" horiz-adv-x="724" 
d="M424 1346q0 -88 72 -89q53 0 81 39t46 138h55q-23 -109 -39 -144q-45 -90 -143 -90q-61 0 -96 31q-34 31 -34 75t13 128h53q-8 -51 -8 -88zM446 963q-98 0 -152 -68t-81 -223l-59 -340q-14 -72 -15 -131q0 -160 142 -160q96 -1 151 67t82 224l59 340q14 84 15 129
q0 162 -142 162zM433 1020q216 0 216 -215q0 -45 -18 -156l-58 -319q-18 -106 -37 -160t-55 -94q-78 -92 -188 -92q-215 0 -215 213q0 46 16 157l58 320q18 106 37 160t55 94q78 92 189 92z" />
    <glyph glyph-name="Ohungarumlaut" unicode="&#x150;" horiz-adv-x="876" 
d="M682 1638l117 267h73l-145 -267h-45zM541 1638l116 267h74l-145 -267h-45zM594 1421q-131 0 -207 -106q-53 -74 -82 -244l-121 -680q-14 -86 -14 -133q0 -102 51 -160t146 -57q131 0 206 106q53 78 82 244l121 680q14 84 15 133q1 102 -51 160t-146 57zM852 1212
q0 -63 -14 -141l-125 -704q-31 -186 -107 -279q-92 -104 -226 -104t-203 70t-68 194q0 65 14 143l125 705q20 113 42 169t64 107q88 106 224 106t206 -70q68 -71 68 -196z" />
    <glyph glyph-name="ohungarumlaut" unicode="&#x151;" horiz-adv-x="724" 
d="M528 1196l117 266h74l-146 -266h-45zM387 1196l117 266h74l-146 -266h-45zM446 963q-98 0 -152 -68t-81 -223l-59 -340q-14 -72 -15 -131q0 -160 142 -160q96 -1 151 67t82 224l59 340q14 84 15 129q0 162 -142 162zM433 1020q216 0 216 -215q0 -45 -18 -156l-58 -319
q-18 -106 -37 -160t-55 -94q-78 -92 -188 -92q-215 0 -215 213q0 46 16 157l58 320q18 106 37 160t55 94q78 92 189 92z" />
    <glyph glyph-name="OE" unicode="&#x152;" horiz-adv-x="1257" 
d="M170 258q0 -104 49 -160t141 -57q233 0 295 350l121 680q14 84 15 133q1 102 -51 160t-144 57q-121 0 -203 -106q-61 -82 -88 -244l-121 -680q-14 -86 -14 -133zM588 0l18 106q-102 -122 -234 -122t-198 70t-65 194q0 66 14 143l125 705q33 188 112 278q96 104 247 104
t218 -122l19 106h493l-8 -57h-432l-113 -635h369l-10 -57h-369l-115 -656h431l-11 -57h-491z" />
    <glyph glyph-name="oe" unicode="&#x153;" horiz-adv-x="1128" 
d="M862 963q-90 0 -143 -68t-80 -223l-18 -109h346q33 180 32 244q0 156 -137 156zM444 963q-96 0 -151 -68t-82 -223l-59 -340q-12 -68 -13 -131q0 -160 142 -160q96 -1 149 67t82 224l59 340q14 78 15 129q0 162 -142 162zM446 1020q158 0 195 -125q80 125 221 125
q94 0 146 -54t53 -155q0 -57 -21 -176l-14 -76l-8 -53h-414l-31 -174q-14 -76 -14 -129q0 -162 141 -162q96 0 151 65q54 66 79 216h57q-25 -154 -63 -220q-76 -118 -230 -118t-188 133q-82 -133 -227 -133q-98 0 -151 54q-52 54 -52 135t16 169l55 320q35 186 104 272
t195 86z" />
    <glyph glyph-name="Racute" unicode="&#x154;" horiz-adv-x="841" 
d="M549 1638l135 267h80l-168 -267h-47zM410 733q102 0 159 27t105 96q90 137 90 326q0 113 -52 168t-177 55h-148l-119 -672h142zM535 1462q165 0 229 -72t63 -202q0 -190 -79 -329q-80 -138 -209 -171l90 -688h-66l-84 676h-221l-119 -676h-61l258 1462h199z" />
    <glyph glyph-name="racute" unicode="&#x155;" horiz-adv-x="493" 
d="M356 1196l133 266h82l-168 -266h-47zM444 1020q62 0 113 -45l-41 -51q-37 39 -78 39q-80 0 -136 -113t-97 -354l-88 -496h-62l176 1004h52l-15 -117q37 73 76 103q38 30 100 30z" />
    <glyph glyph-name="Rcommaaccent" unicode="&#x156;" horiz-adv-x="841" 
d="M178 -422l113 266h78l-146 -266h-45zM410 733q102 0 159 27t105 96q90 137 90 326q0 113 -52 168t-177 55h-148l-119 -672h142zM535 1462q165 0 229 -72t63 -202q0 -190 -79 -329q-80 -138 -209 -171l90 -688h-66l-84 676h-221l-119 -676h-61l258 1462h199z" />
    <glyph glyph-name="rcommaaccent" unicode="&#x157;" horiz-adv-x="493" 
d="M-86 -422l113 266h77l-145 -266h-45zM444 1020q62 0 113 -45l-41 -51q-37 39 -78 39q-80 0 -136 -113t-97 -354l-88 -496h-62l176 1004h52l-15 -117q37 73 76 103q38 30 100 30z" />
    <glyph glyph-name="Rcaron" unicode="&#x158;" horiz-adv-x="841" 
d="M584 1718l123 172h75l-190 -237h-33l-106 237h69zM410 733q102 0 159 27t105 96q90 137 90 326q0 113 -52 168t-177 55h-148l-119 -672h142zM535 1462q165 0 229 -72t63 -202q0 -190 -79 -329q-80 -138 -209 -171l90 -688h-66l-84 676h-221l-119 -676h-61l258 1462h199z
" />
    <glyph glyph-name="rcaron" unicode="&#x159;" horiz-adv-x="493" 
d="M399 1276l123 172h76l-190 -238h-33l-107 238h70zM444 1020q62 0 113 -45l-41 -51q-37 39 -78 39q-80 0 -136 -113t-97 -354l-88 -496h-62l176 1004h52l-15 -117q37 73 76 103q38 30 100 30z" />
    <glyph glyph-name="Sacute" unicode="&#x15a;" horiz-adv-x="763" 
d="M537 1638l135 267h80l-168 -267h-47zM119 242q0 -96 49 -148t139 -53q152 0 225 170q54 127 54 247q1 167 -80 219q-24 15 -112 61t-133 118q-44 72 -44 184q0 170 80 304t229 135q106 -1 168 -63t64 -171q0 -53 -17 -145h-59q12 66 12 121q0 201 -170 200
q-121 0 -186 -131q-57 -111 -57 -222t37 -171q38 -59 142 -113t146 -113t43 -209q0 -150 -67 -294q-88 -184 -275 -184q-113 0 -181 64t-69 173q1 53 19 170h57q-14 -106 -14 -149z" />
    <glyph glyph-name="sacute" unicode="&#x15b;" horiz-adv-x="651" 
d="M401 1196l134 266h81l-167 -266h-48zM242 41q102 0 169 82t66 207q0 59 -35 98q-25 24 -122 58t-138 81t-41 129q0 144 73 234t177 90q205 0 205 -195q0 -49 -16 -131h-58q14 68 15 121q0 147 -131 148q-88 0 -144 -74t-57 -189q0 -74 57 -116q29 -18 146 -62
q133 -49 133 -180q0 -156 -83 -257q-84 -101 -198 -101q-226 0 -225 192q0 60 18 162h58q-18 -94 -19 -145q0 -152 150 -152z" />
    <glyph glyph-name="Scircumflex" unicode="&#x15c;" horiz-adv-x="763" 
d="M600 1825l-121 -172h-78l191 237h33l106 -237h-69zM119 242q0 -96 49 -148t139 -53q152 0 225 170q54 127 54 247q1 167 -80 219q-24 15 -112 61t-133 118q-44 72 -44 184q0 170 80 304t229 135q106 -1 168 -63t64 -171q0 -53 -17 -145h-59q12 66 12 121q0 201 -170 200
q-121 0 -186 -131q-57 -111 -57 -222t37 -171q38 -59 142 -113t146 -113t43 -209q0 -150 -67 -294q-88 -184 -275 -184q-113 0 -181 64t-69 173q1 53 19 170h57q-14 -106 -14 -149z" />
    <glyph glyph-name="scircumflex" unicode="&#x15d;" horiz-adv-x="651" 
d="M485 1382l-120 -172h-78l190 238h33l106 -238h-69zM242 41q102 0 169 82t66 207q0 59 -35 98q-25 24 -122 58t-138 81t-41 129q0 144 73 234t177 90q205 0 205 -195q0 -49 -16 -131h-58q14 68 15 121q0 147 -131 148q-88 0 -144 -74t-57 -189q0 -74 57 -116
q29 -18 146 -62q133 -49 133 -180q0 -156 -83 -257q-84 -101 -198 -101q-226 0 -225 192q0 60 18 162h58q-18 -94 -19 -145q0 -152 150 -152z" />
    <glyph glyph-name="Scedilla" unicode="&#x15e;" horiz-adv-x="763" 
d="M121 -422l112 266h78l-145 -266h-45zM119 242q0 -96 49 -148t139 -53q152 0 225 170q54 127 54 247q1 167 -80 219q-24 15 -112 61t-133 118q-44 72 -44 184q0 170 80 304t229 135q106 -1 168 -63t64 -171q0 -53 -17 -145h-59q12 66 12 121q0 201 -170 200
q-121 0 -186 -131q-57 -111 -57 -222t37 -171q38 -59 142 -113t146 -113t43 -209q0 -150 -67 -294q-88 -184 -275 -184q-113 0 -181 64t-69 173q1 53 19 170h57q-14 -106 -14 -149z" />
    <glyph glyph-name="scedilla" unicode="&#x15f;" horiz-adv-x="651" 
d="M84 -422l113 266h77l-145 -266h-45zM242 41q102 0 169 82t66 207q0 59 -35 98q-25 24 -122 58t-138 81t-41 129q0 144 73 234t177 90q205 0 205 -195q0 -49 -16 -131h-58q14 68 15 121q0 147 -131 148q-88 0 -144 -74t-57 -189q0 -74 57 -116q29 -18 146 -62
q133 -49 133 -180q0 -156 -83 -257q-84 -101 -198 -101q-226 0 -225 192q0 60 18 162h58q-18 -94 -19 -145q0 -152 150 -152z" />
    <glyph glyph-name="Scaron" unicode="&#x160;" horiz-adv-x="763" 
d="M594 1718l123 172h76l-191 -237h-33l-106 237h69zM119 242q0 -96 49 -148t139 -53q152 0 225 170q54 127 54 247q1 167 -80 219q-24 15 -112 61t-133 118q-44 72 -44 184q0 170 80 304t229 135q106 -1 168 -63t64 -171q0 -53 -17 -145h-59q12 66 12 121q0 201 -170 200
q-121 0 -186 -131q-57 -111 -57 -222t37 -171q38 -59 142 -113t146 -113t43 -209q0 -150 -67 -294q-88 -184 -275 -184q-113 0 -181 64t-69 173q1 53 19 170h57q-14 -106 -14 -149z" />
    <glyph glyph-name="scaron" unicode="&#x161;" horiz-adv-x="651" 
d="M459 1276l123 172h75l-190 -238h-33l-106 238h69zM242 41q102 0 169 82t66 207q0 59 -35 98q-25 24 -122 58t-138 81t-41 129q0 144 73 234t177 90q205 0 205 -195q0 -49 -16 -131h-58q14 68 15 121q0 147 -131 148q-88 0 -144 -74t-57 -189q0 -74 57 -116
q29 -18 146 -62q133 -49 133 -180q0 -156 -83 -257q-84 -101 -198 -101q-226 0 -225 192q0 60 18 162h58q-18 -94 -19 -145q0 -152 150 -152z" />
    <glyph glyph-name="Tcommaaccent" unicode="&#x162;" horiz-adv-x="634" 
d="M55 -422l113 266h78l-146 -266h-45zM199 0l247 1405h-247l10 57h557l-10 -57h-248l-248 -1405h-61z" />
    <glyph glyph-name="tcommaaccent" unicode="&#x163;" horiz-adv-x="405" 
d="M-25 -422l113 266h78l-146 -266h-45zM240 0q-144 0 -144 112q0 56 21 179l116 655h-77l10 58h78l61 352h62l-62 -352h115l-10 -58h-115l-121 -682q-16 -88 -16 -127q0 -80 78 -80h24l-10 -57h-10z" />
    <glyph glyph-name="Tcaron" unicode="&#x164;" horiz-adv-x="634" 
d="M528 1718l123 172h76l-190 -237h-33l-107 237h70zM199 0l247 1405h-247l10 57h557l-10 -57h-248l-248 -1405h-61z" />
    <glyph glyph-name="tcaron" unicode="&#x165;" horiz-adv-x="448" 
d="M485 1108l93 375h69l-119 -375h-43zM238 0q-144 0 -144 112q0 56 21 179l116 655h-77l10 58h78l63 352h60l-62 -352h115l-10 -58h-115l-121 -682q-16 -88 -16 -127q0 -80 77 -80h25l-10 -57h-10z" />
    <glyph glyph-name="Tbar" unicode="&#x166;" horiz-adv-x="634" 
d="M199 0l125 713h-183l11 57h182l112 635h-247l10 57h557l-10 -57h-248l-113 -635h183l-11 -57h-182l-125 -713h-61z" />
    <glyph glyph-name="tbar" unicode="&#x167;" horiz-adv-x="405" 
d="M156 137q0 -80 77 -80h25l-10 -57h-10q-78 0 -111 28t-33 84t21 179l65 366h-78l11 58h77l41 231h-77l10 58h78l63 352h60l-62 -352h115l-10 -58h-115l-41 -231h119l-11 -58h-118l-70 -393q-16 -88 -16 -127z" />
    <glyph glyph-name="Utilde" unicode="&#x168;" horiz-adv-x="894" 
d="M752 1720q33 0 67 119h41q-26 -92 -54 -130t-75 -38t-82 68q-23 43 -34 55t-25 12q-31 1 -68 -118h-43q27 90 56 129t73 39t82 -68q39 -68 62 -68zM373 43q141 0 215 115q37 63 61 196l195 1108h61l-196 -1120q-17 -104 -35 -154t-53 -92q-90 -111 -248 -110
q-121 0 -187 59t-65 170q0 57 16 152l193 1095h61l-194 -1108q-14 -84 -15 -131q0 -180 191 -180z" />
    <glyph glyph-name="utilde" unicode="&#x169;" horiz-adv-x="729" 
d="M444 1413q42 0 84 -67q39 -68 62 -68q31 0 67 119h41q-26 -94 -54 -131t-75 -37t-82 67q-23 43 -33 56q-11 12 -26 12q-31 0 -68 -119h-43q27 90 56 129t71 39zM150 188q0 -147 112 -147q94 0 154 90q59 90 94 289l102 584h62l-178 -1004h-50l17 117q-43 -72 -90 -103
q-47 -30 -122 -30t-119 49t-44 127t21 194l114 650h62l-117 -660q-18 -111 -18 -156z" />
    <glyph glyph-name="Umacron" unicode="&#x16a;" horiz-adv-x="894" 
d="M520 1743l8 49h279l-8 -49h-279zM373 43q141 0 215 115q37 63 61 196l195 1108h61l-196 -1120q-17 -104 -35 -154t-53 -92q-90 -111 -248 -110q-121 0 -187 59t-65 170q0 57 16 152l193 1095h61l-194 -1108q-14 -84 -15 -131q0 -180 191 -180z" />
    <glyph glyph-name="umacron" unicode="&#x16b;" horiz-adv-x="729" 
d="M367 1300l8 50h278l-8 -50h-278zM150 188q0 -147 112 -147q94 0 154 90q59 90 94 289l102 584h62l-178 -1004h-50l17 117q-43 -72 -90 -103q-47 -30 -122 -30t-119 49t-44 127t21 194l114 650h62l-117 -660q-18 -111 -18 -156z" />
    <glyph glyph-name="Ubreve" unicode="&#x16c;" horiz-adv-x="894" 
d="M586 1788q0 -88 71 -88q53 0 81 39t46 137h56q-18 -100 -39 -143q-45 -90 -144 -91q-61 0 -95 31t-34 80t13 123h53q-8 -51 -8 -88zM373 43q141 0 215 115q37 63 61 196l195 1108h61l-196 -1120q-17 -104 -35 -154t-53 -92q-90 -111 -248 -110q-121 0 -187 59t-65 170
q0 57 16 152l193 1095h61l-194 -1108q-14 -84 -15 -131q0 -180 191 -180z" />
    <glyph glyph-name="ubreve" unicode="&#x16d;" horiz-adv-x="729" 
d="M426 1346q0 -88 72 -89q53 0 81 39t46 138h55q-23 -109 -39 -144q-45 -90 -143 -90q-61 0 -96 31q-34 31 -34 75t13 128h53q-8 -51 -8 -88zM150 188q0 -147 112 -147q94 0 154 90q59 90 94 289l102 584h62l-178 -1004h-50l17 117q-43 -72 -90 -103q-47 -30 -122 -30
t-119 49t-44 127t21 194l114 650h62l-117 -660q-18 -111 -18 -156z" />
    <glyph glyph-name="Uring" unicode="&#x16e;" horiz-adv-x="894" 
d="M696 1942q-51 0 -84 -50q-32 -50 -32 -110q1 -108 82 -109q50 0 82 49t32 125q0 95 -80 95zM692 1991q142 0 142 -162q0 -80 -50 -142t-125 -63q-137 0 -137 162q0 82 50 144t120 61zM373 43q141 0 215 115q37 63 61 196l195 1108h61l-196 -1120q-17 -104 -35 -154
t-53 -92q-90 -111 -248 -110q-121 0 -187 59t-65 170q0 57 16 152l193 1095h61l-194 -1108q-14 -84 -15 -131q0 -180 191 -180z" />
    <glyph glyph-name="uring" unicode="&#x16f;" horiz-adv-x="729" 
d="M537 1499q-51 0 -84 -50q-33 -49 -33 -109q0 -111 82 -109q49 0 82 49t32 125q1 94 -79 94zM532 1548q142 0 142 -162q0 -80 -50 -142t-124 -62q-138 0 -138 162q0 82 50 142q50 62 120 62zM150 188q0 -147 112 -147q94 0 154 90q59 90 94 289l102 584h62l-178 -1004h-50
l17 117q-43 -72 -90 -103q-47 -30 -122 -30t-119 49t-44 127t21 194l114 650h62l-117 -660q-18 -111 -18 -156z" />
    <glyph glyph-name="Uhungarumlaut" unicode="&#x170;" horiz-adv-x="894" 
d="M690 1638l117 267h74l-146 -267h-45zM549 1638l117 267h73l-145 -267h-45zM373 43q141 0 215 115q37 63 61 196l195 1108h61l-196 -1120q-17 -104 -35 -154t-53 -92q-90 -111 -248 -110q-121 0 -187 59t-65 170q0 57 16 152l193 1095h61l-194 -1108q-14 -84 -15 -131
q0 -180 191 -180z" />
    <glyph glyph-name="uhungarumlaut" unicode="&#x171;" horiz-adv-x="729" 
d="M530 1196l117 266h74l-146 -266h-45zM389 1196l117 266h74l-146 -266h-45zM150 188q0 -147 112 -147q94 0 154 90q59 90 94 289l102 584h62l-178 -1004h-50l17 117q-43 -72 -90 -103q-47 -30 -122 -30t-119 49t-44 127t21 194l114 650h62l-117 -660q-18 -111 -18 -156z
" />
    <glyph glyph-name="Uogonek" unicode="&#x172;" horiz-adv-x="894" 
d="M299 -250q0 -53 76 -53q33 0 76 14v-55q-49 -16 -97 -16q-119 0 -118 98q0 139 155 248h-20q-121 0 -186 59t-64 170q0 57 16 152l193 1095h61l-194 -1108q-14 -84 -15 -131q0 -180 191 -180q141 0 215 115q37 63 61 196l195 1108h61l-196 -1120q-40 -279 -226 -342
l-16 -10q-168 -121 -168 -240z" />
    <glyph glyph-name="uogonek" unicode="&#x173;" horiz-adv-x="729" 
d="M307 -250q0 -53 76 -53q33 0 76 14v-55q-49 -16 -97 -16q-119 0 -118 96q0 147 205 278l14 103q-43 -72 -90 -103q-47 -30 -122 -30t-119 49t-44 127t21 194l114 650h62l-117 -660q-18 -111 -18 -156q0 -147 112 -147q94 0 154 90q59 90 94 289l102 584h62l-178 -1004
q-8 -6 -25 -18q-164 -113 -164 -232z" />
    <glyph glyph-name="Wcircumflex" unicode="&#x174;" horiz-adv-x="1120" 
d="M797 1825l-121 -172h-78l190 237h33l107 -237h-70zM178 0l70 1462h57l-63 -1269l467 1269h36l23 -1269l383 1269h59l-444 -1462h-47l-23 1276l-469 -1276h-49z" />
    <glyph glyph-name="wcircumflex" unicode="&#x175;" horiz-adv-x="985" 
d="M651 1382l-121 -172h-77l190 238h33l106 -238h-69zM180 0l-16 1004h59l4 -871l332 871h39l25 -871l309 871h63l-368 -1004h-43l-29 866l-332 -866h-43z" />
    <glyph glyph-name="Ycircumflex" unicode="&#x176;" horiz-adv-x="708" 
d="M592 1825l-121 -172h-78l191 237h32l107 -237h-70zM236 0l100 561l-127 901h61l111 -805l393 805h66l-443 -901l-100 -561h-61z" />
    <glyph glyph-name="ycircumflex" unicode="&#x177;" horiz-adv-x="626" 
d="M473 1382l-121 -172h-78l191 238h33l106 -238h-69zM199 -18l-56 1022h58l43 -934l344 934h61l-473 -1254q-53 -129 -103 -174t-143 -47l11 57q69 2 103 36t75 140z" />
    <glyph glyph-name="Ydieresis" unicode="&#x178;" horiz-adv-x="708" 
d="M647 1661l29 168h57l-28 -168h-58zM414 1661l28 168h58l-29 -168h-57zM236 0l100 561l-127 901h61l111 -805l393 805h66l-443 -901l-100 -561h-61z" />
    <glyph glyph-name="Zacute" unicode="&#x179;" horiz-adv-x="696" 
d="M502 1638l135 267h80l-168 -267h-47zM-4 0l6 39l674 1366h-408l11 57h475l-6 -39l-674 -1366h450l-10 -57h-518z" />
    <glyph glyph-name="zacute" unicode="&#x17a;" horiz-adv-x="618" 
d="M410 1196l133 266h82l-168 -266h-47zM-4 0l6 31l506 915h-322l11 58h389l-4 -31l-508 -916h364l-10 -57h-432z" />
    <glyph glyph-name="Zdotaccent" unicode="&#x17b;" horiz-adv-x="696" 
d="M520 1661l29 168h61l-28 -168h-62zM-4 0l6 39l674 1366h-408l11 57h475l-6 -39l-674 -1366h450l-10 -57h-518z" />
    <glyph glyph-name="zdotaccent" unicode="&#x17c;" horiz-adv-x="618" 
d="M403 1219l29 167h62l-29 -167h-62zM-4 0l6 31l506 915h-322l11 58h389l-4 -31l-508 -916h364l-10 -57h-432z" />
    <glyph glyph-name="Zcaron" unicode="&#x17d;" horiz-adv-x="696" 
d="M559 1718l123 172h76l-191 -237h-32l-107 237h70zM-4 0l6 39l674 1366h-408l11 57h475l-6 -39l-674 -1366h450l-10 -57h-518z" />
    <glyph glyph-name="zcaron" unicode="&#x17e;" horiz-adv-x="618" 
d="M442 1276l123 172h76l-190 -238h-33l-107 238h70zM-4 0l6 31l506 915h-322l11 58h389l-4 -31l-508 -916h364l-10 -57h-432z" />
    <glyph glyph-name="Ohorn" unicode="&#x1a0;" horiz-adv-x="921" 
d="M788 1222q0 84 -51 142t-145 57q-129 0 -205 -106q-53 -74 -82 -244l-121 -680q-14 -86 -14 -133q0 -102 51 -160t146 -57q131 0 206 106q53 78 82 244l121 680q12 67 12 151zM1061 1479v-23q0 -92 -37 -150q-36 -58 -58 -75q-22 -18 -118 -82q-8 -61 -10 -78l-125 -704
q-31 -186 -107 -279q-92 -104 -226 -104t-203 70t-68 194q0 66 14 143l125 705q20 111 42 169t64 109q92 104 226 104t202 -70q68 -71 70 -198q86 63 113 107q39 68 39 133q-1 15 -5 29h62z" />
    <glyph glyph-name="ohorn" unicode="&#x1a1;" horiz-adv-x="751" 
d="M446 963q-98 0 -152 -68t-81 -223l-59 -340q-14 -72 -15 -131q0 -160 142 -160q96 -1 151 67t82 224l59 340q14 84 15 129q0 162 -142 162zM293 -16q-215 0 -215 213q0 47 16 157l58 320q18 106 37 160t55 94q78 92 189 92q216 0 216 -217q0 -25 -2 -47q135 100 135 235
q0 15 -2 29h60v-25q2 -178 -203 -303l-64 -362q-18 -106 -37 -160t-55 -94q-78 -92 -188 -92z" />
    <glyph glyph-name="Uhorn" unicode="&#x1af;" horiz-adv-x="954" 
d="M373 43q141 0 215 115q37 63 61 196l195 1108h61l-51 -293q115 71 163 135t48 148q0 14 -4 27h61v-29q0 -115 -75 -199q-41 -45 -67 -64t-136 -83l-135 -762q-17 -104 -35 -154t-53 -92q-90 -111 -248 -110q-121 0 -187 59t-65 170q0 57 16 152l193 1095h61l-194 -1108
q-14 -84 -15 -131q0 -180 191 -180z" />
    <glyph glyph-name="uhorn" unicode="&#x1b0;" horiz-adv-x="778" 
d="M150 188q0 -147 112 -147q94 0 154 90q59 90 94 289l102 584h62l-51 -295q111 69 159 135t49 147q0 16 -2 29h60q7 -121 -57 -207t-222 -168l-114 -645h-50l17 117q-43 -72 -90 -103q-47 -30 -122 -30t-119 49t-44 127t21 194l114 650h62l-117 -660q-18 -111 -18 -156z
" />
    <glyph glyph-name="uni01C4" unicode="&#x1c4;" horiz-adv-x="1515" 
d="M817 0l6 39l672 1366h-408l11 57h475l-6 -39l-672 -1366h448l-8 -57h-518zM1380 1718l121 172h78l-193 -237h-30l-109 237h70zM582 1405h-197l-238 -1348h197q129 -2 209 83t106 253l119 676q14 88 15 125q0 211 -211 211zM588 1462q266 0 266 -260q0 -53 -14 -133
l-123 -698q-29 -181 -123 -277t-240 -94h-278l258 1462h254z" />
    <glyph glyph-name="uni01C5" unicode="&#x1c5;" horiz-adv-x="1499" 
d="M1323 1276l123 172h78l-193 -238h-31l-108 238h70zM877 0l6 31l506 915h-320l10 58h389l-6 -31l-508 -916h365l-10 -57h-432zM582 1405h-197l-238 -1348h197q129 -2 209 83t106 253l119 676q14 88 15 125q0 211 -211 211zM588 1462q266 0 266 -260q0 -53 -14 -133
l-123 -698q-29 -181 -123 -277t-240 -94h-278l258 1462h254z" />
    <glyph glyph-name="uni01C6" unicode="&#x1c6;" horiz-adv-x="1361" 
d="M737 0l6 31l506 915h-319l10 58h389l-6 -31l-506 -916h363l-11 -57h-432zM1186 1276l121 172h77l-190 -238h-33l-108 238h71zM274 41q184 0 254 399l23 123q18 104 18 187q0 213 -137 213q-166 0 -221 -301l-55 -320q-12 -63 -13 -119q0 -182 131 -182zM274 -16
q-193 0 -192 233q0 59 14 137l56 320q59 346 284 346q135 0 172 -129l101 571h61l-258 -1462h-49l14 121q-76 -137 -203 -137z" />
    <glyph glyph-name="uni01C7" unicode="&#x1c7;" horiz-adv-x="1093" 
d="M532 -494q-57 0 -116 29l37 51q39 -23 77 -22q117 0 179 125q27 59 57 227l272 1546h62l-275 -1552q-39 -213 -77 -281q-78 -123 -216 -123zM76 0l258 1462h61l-248 -1405h449l-10 -57h-510z" />
    <glyph glyph-name="uni01C8" unicode="&#x1c8;" horiz-adv-x="1060" 
d="M942 1004h62l-191 -1084q-31 -209 -99 -303t-186 -88l11 59q82 -8 133 71t78 253zM993 1294l31 168h61l-30 -168h-62zM76 0l258 1462h61l-248 -1405h449l-10 -57h-510z" />
    <glyph glyph-name="uni01C9" unicode="&#x1c9;" horiz-adv-x="745" 
d="M627 1004h61l-190 -1084q-31 -209 -100 -303t-185 -88l10 59q82 -8 133 71t78 253zM678 1294l31 168h61l-31 -168h-61zM223 0q-141 0 -141 115q0 45 12 116l217 1231h62l-217 -1233q-22 -128 10 -154q20 -17 70 -18h26l-10 -57h-29z" />
    <glyph glyph-name="uni01CA" unicode="&#x1ca;" horiz-adv-x="1325" 
d="M764 -494q-57 0 -117 29l37 51q39 -23 78 -22q117 0 178 125q27 59 57 227l273 1546h61l-274 -1552q-39 -213 -78 -281q-78 -123 -215 -123zM76 0l258 1462h59l258 -1302l230 1302h61l-258 -1462h-59l-258 1303l-230 -1303h-61z" />
    <glyph glyph-name="uni01CB" unicode="&#x1cb;" horiz-adv-x="1292" 
d="M1174 1004h61l-191 -1084q-32 -209 -100 -303t-184 -88l10 59q82 -8 133 71t78 253zM1225 1294l30 168h62l-31 -168h-61zM76 0l258 1462h59l258 -1302l230 1302h61l-258 -1462h-59l-258 1303l-230 -1303h-61z" />
    <glyph glyph-name="uni01CC" unicode="&#x1cc;" horiz-adv-x="1101" 
d="M983 1004h61l-190 -1084q-32 -209 -100 -303t-185 -88l11 59q82 -8 133 71t78 253zM1034 1294l31 168h61l-30 -168h-62zM477 1020q86 0 132 -50t46 -132t-18 -189l-115 -649h-61l117 659q16 98 16 152q0 152 -121 152q-99 -1 -159 -91t-95 -288l-102 -584h-62l176 1004
h52l-17 -117q82 133 211 133z" />
    <glyph glyph-name="uni01CD" unicode="&#x1cd;" horiz-adv-x="745" 
d="M567 1718l123 172h76l-191 -237h-32l-107 237h70zM555 412l-31 934l-360 -934h391zM557 354h-416l-137 -354h-67l579 1462h51l68 -1462h-66z" />
    <glyph glyph-name="uni01CE" unicode="&#x1ce;" horiz-adv-x="694" 
d="M481 1276l123 172h76l-191 -238h-32l-107 238h70zM338 500q-252 0 -252 -328q0 -70 36 -100t128 -31q92 0 137 51t70 191l39 217h-158zM404 963q-157 0 -203 -269h-58q25 147 70 217q70 109 203 109q186 0 186 -197q0 -70 -16 -159l-117 -664h-51l8 72q-35 -48 -77 -68
t-116 -20q-211 0 -210 180q0 76 20 157t53 128q72 109 246 108h164l20 123q33 191 -15 248q-29 35 -107 35z" />
    <glyph glyph-name="uni01CF" unicode="&#x1cf;" horiz-adv-x="389" 
d="M406 1718l122 172h76l-190 -237h-33l-107 237h70zM76 0l258 1462h61l-258 -1462h-61z" />
    <glyph glyph-name="uni01D0" unicode="&#x1d0;" horiz-adv-x="352" 
d="M309 1276l123 172h76l-191 -238h-32l-107 238h70zM57 0l176 1004h62l-176 -1004h-62z" />
    <glyph glyph-name="uni01D1" unicode="&#x1d1;" horiz-adv-x="876" 
d="M649 1718l123 172h78l-193 -237h-30l-109 237h70zM594 1421q-131 0 -207 -106q-53 -74 -82 -244l-121 -680q-14 -86 -14 -133q0 -102 51 -160t146 -57q131 0 206 106q53 78 82 244l121 680q14 84 15 133q1 102 -51 160t-146 57zM852 1212q0 -63 -14 -141l-125 -704
q-31 -186 -107 -279q-92 -104 -226 -104t-203 70t-68 194q0 65 14 143l125 705q20 113 42 169t64 107q88 106 224 106t206 -70q68 -71 68 -196z" />
    <glyph glyph-name="uni01D2" unicode="&#x1d2;" horiz-adv-x="724" 
d="M496 1276l122 172h76l-190 -238h-33l-106 238h69zM446 963q-98 0 -152 -68t-81 -223l-59 -340q-14 -72 -15 -131q0 -160 142 -160q96 -1 151 67t82 224l59 340q14 84 15 129q0 162 -142 162zM433 1020q216 0 216 -215q0 -45 -18 -156l-58 -319q-18 -106 -37 -160t-55 -94
q-78 -92 -188 -92q-215 0 -215 213q0 46 16 157l58 320q18 106 37 160t55 94q78 92 189 92z" />
    <glyph glyph-name="uni01D3" unicode="&#x1d3;" horiz-adv-x="894" 
d="M643 1718l123 172h76l-191 -237h-33l-106 237h70zM373 43q141 0 215 115q37 63 61 196l195 1108h61l-196 -1120q-17 -104 -35 -154t-53 -92q-90 -111 -248 -110q-121 0 -187 59t-65 170q0 57 16 152l193 1095h61l-194 -1108q-14 -84 -15 -131q0 -180 191 -180z" />
    <glyph glyph-name="uni01D4" unicode="&#x1d4;" horiz-adv-x="729" 
d="M496 1276l122 172h76l-190 -238h-33l-106 238h69zM150 188q0 -147 112 -147q94 0 154 90q59 90 94 289l102 584h62l-178 -1004h-50l17 117q-43 -72 -90 -103q-47 -30 -122 -30t-119 49t-44 127t21 194l114 650h62l-117 -660q-18 -111 -18 -156z" />
    <glyph glyph-name="Gcaron" unicode="&#x1e6;" horiz-adv-x="849" 
d="M623 1718l122 172h76l-190 -237h-33l-106 237h69zM109 236q0 63 18 161l121 695q37 201 104 282q86 104 213 104t192 -58q65 -60 64 -169q0 -55 -16 -151h-57q10 74 10 125q0 197 -183 196q-111 0 -173 -79t-93 -259l-125 -702q-14 -88 -14 -135q0 -205 184 -205
q238 0 299 346l49 285h-204l10 57h266l-61 -346q-67 -401 -361 -399q-119 0 -181 64t-62 188z" />
    <glyph glyph-name="gcaron" unicode="&#x1e7;" horiz-adv-x="743" 
d="M504 1276l123 172h75l-190 -238h-33l-106 238h69zM274 41q180 0 254 399l21 123q20 117 20 187q0 213 -139 213q-168 0 -219 -301l-57 -320q-10 -57 -11 -121q0 -180 131 -180zM274 -16q-193 0 -192 233q0 70 12 137l58 320q59 346 282 346q135 0 172 -129l31 113h51
l-203 -1147q-31 -180 -95 -256t-170 -76q-202 0 -204 164q0 49 15 121h57q-8 -66 -8 -95q0 -133 127 -133q94 0 142 64t77 219l43 244q-76 -125 -195 -125z" />
    <glyph glyph-name="uni01EA" unicode="&#x1ea;" horiz-adv-x="876" 
d="M594 1421q-131 0 -207 -106q-53 -74 -82 -244l-121 -680q-14 -86 -14 -133q0 -102 51 -160t146 -57q131 0 206 106q53 78 82 244l121 680q14 84 15 133q1 102 -51 160t-146 57zM291 -250q0 -53 76 -53q33 0 75 14v-55q-49 -16 -96 -16q-119 0 -119 96q0 137 154 248h-14
q-121 0 -190 70t-68 194q0 66 14 143l125 705q20 113 42 169t64 107q88 106 224 106t206 -70q68 -71 68 -196q0 -63 -14 -141l-125 -704q-43 -306 -240 -369l-8 -6q-174 -116 -174 -242z" />
    <glyph glyph-name="uni01EB" unicode="&#x1eb;" horiz-adv-x="724" 
d="M446 963q-98 0 -152 -68t-81 -223l-59 -340q-14 -72 -15 -131q0 -160 142 -160q96 -1 151 67t82 224l59 340q14 84 15 129q0 162 -142 162zM215 -250q0 -53 76 -53q33 0 76 14v-55q-49 -16 -97 -16q-119 0 -118 96q0 133 143 248h-16q-96 0 -149 55q-52 55 -52 139
t16 176l58 320q18 106 37 160t55 94q78 92 189 92q216 0 216 -215q0 -45 -18 -156l-58 -319q-20 -133 -60 -207t-114 -115l-8 -6l-8 -4q-168 -125 -168 -248z" />
    <glyph glyph-name="uni01F1" unicode="&#x1f1;" horiz-adv-x="1515" 
d="M817 0l6 39l672 1366h-408l11 57h475l-6 -39l-672 -1366h448l-8 -57h-518zM582 1405h-197l-238 -1348h197q129 -2 209 83t106 253l119 676q14 88 15 125q0 211 -211 211zM588 1462q266 0 266 -260q0 -53 -14 -133l-123 -698q-29 -181 -123 -277t-240 -94h-278l258 1462
h254z" />
    <glyph glyph-name="uni01F2" unicode="&#x1f2;" horiz-adv-x="1499" 
d="M877 0l6 31l506 915h-320l10 58h389l-6 -31l-508 -916h365l-10 -57h-432zM582 1405h-197l-238 -1348h197q129 -2 209 83t106 253l119 676q14 88 15 125q0 211 -211 211zM588 1462q266 0 266 -260q0 -53 -14 -133l-123 -698q-29 -181 -123 -277t-240 -94h-278l258 1462
h254z" />
    <glyph glyph-name="uni01F3" unicode="&#x1f3;" horiz-adv-x="1361" 
d="M737 0l6 31l506 915h-319l10 58h389l-6 -31l-506 -916h363l-11 -57h-432zM274 41q184 0 254 399l23 123q18 104 18 187q0 213 -137 213q-166 0 -221 -301l-55 -320q-12 -63 -13 -119q0 -182 131 -182zM274 -16q-193 0 -192 233q0 59 14 137l56 320q59 346 284 346
q135 0 172 -129l101 571h61l-258 -1462h-49l14 121q-76 -137 -203 -137z" />
    <glyph glyph-name="uni01F4" unicode="&#x1f4;" horiz-adv-x="849" 
d="M580 1638l135 267h80l-168 -267h-47zM109 236q0 63 18 161l121 695q37 201 104 282q86 104 213 104t192 -58q65 -60 64 -169q0 -55 -16 -151h-57q10 74 10 125q0 197 -183 196q-111 0 -173 -79t-93 -259l-125 -702q-14 -88 -14 -135q0 -205 184 -205q238 0 299 346
l49 285h-204l10 57h266l-61 -346q-67 -401 -361 -399q-119 0 -181 64t-62 188z" />
    <glyph glyph-name="uni01F5" unicode="&#x1f5;" horiz-adv-x="743" 
d="M459 1196l133 266h82l-168 -266h-47zM274 41q180 0 254 399l21 123q20 117 20 187q0 213 -139 213q-168 0 -219 -301l-57 -320q-10 -57 -11 -121q0 -180 131 -180zM274 -16q-193 0 -192 233q0 70 12 137l58 320q59 346 282 346q135 0 172 -129l31 113h51l-203 -1147
q-31 -180 -95 -256t-170 -76q-202 0 -204 164q0 49 15 121h57q-8 -66 -8 -95q0 -133 127 -133q94 0 142 64t77 219l43 244q-76 -125 -195 -125z" />
    <glyph glyph-name="Aringacute" unicode="&#x1fa;" horiz-adv-x="745" 
d="M559 1827l129 221h98l-184 -221h-43zM586 1737q-51 0 -84 -50q-33 -49 -33 -109q0 -110 82 -110q49 0 82 50t33 124q0 95 -80 95zM555 412l-31 934l-360 -934h391zM412 1571q0 90 50 152q50 63 118 63t106 -40q37 -40 37 -118t-45 -139t-109 -68l66 -1421h-66l-12 354
h-416l-137 -354h-67l565 1425q-90 27 -90 146z" />
    <glyph glyph-name="aringacute" unicode="&#x1fb;" horiz-adv-x="694" 
d="M494 1589l129 221h98l-186 -221h-41zM512 1458q-51 0 -84 -50t-33 -110q0 -111 82 -108q49 0 82 49t33 134t-80 85zM508 1507q142 1 141 -161q0 -80 -50 -142t-124 -63q-137 -1 -137 161q0 82 50 144t120 61zM338 500q-252 0 -252 -328q0 -70 36 -100t128 -31
q92 0 137 51t70 191l39 217h-158zM404 963q-157 0 -203 -269h-58q25 147 70 217q70 109 203 109q186 0 186 -197q0 -70 -16 -159l-117 -664h-51l8 72q-35 -48 -77 -68t-116 -20q-211 0 -210 180q0 76 20 157t53 128q72 109 246 108h164l20 123q33 191 -15 248
q-29 35 -107 35z" />
    <glyph glyph-name="AEacute" unicode="&#x1fc;" horiz-adv-x="1198" 
d="M991 1638l135 267h80l-168 -267h-47zM600 416l174 989h-8l-559 -989h393zM590 358h-416l-203 -358h-71l837 1462h541l-10 -57h-432l-113 -635h369l-11 -57h-368l-115 -656h430l-10 -57h-492z" />
    <glyph glyph-name="aeacute" unicode="&#x1fd;" horiz-adv-x="1079" 
d="M616 1196l134 266h81l-167 -266h-48zM813 963q-90 0 -143 -68t-80 -223l-19 -109h347q33 180 32 244q0 156 -137 156zM336 506q-133 0 -191 -88q-61 -98 -61 -246q0 -70 36 -100t128 -31q92 0 137 51t70 191l39 223h-158zM422 1020q142 0 176 -119q74 119 213 119
q96 0 148 -54q53 -54 53 -134t-43 -326h-414l-31 -174q-14 -84 -14 -131q0 -160 141 -160q96 0 151 65q54 66 81 216h57q-27 -154 -66 -220q-76 -118 -219 -118t-194 114q-70 -115 -228 -114q-211 0 -213 171q0 85 22 168t54 130q74 111 246 110h162l20 117q34 192 -16 248
q-32 35 -108 35q-154 0 -201 -269h-58q25 147 70 217q69 109 211 109z" />
    <glyph glyph-name="Oslashacute" unicode="&#x1fe;" horiz-adv-x="876" 
d="M592 1638l135 267h80l-168 -267h-47zM595 1421q-134 0 -210 -106q-53 -74 -82 -244l-119 -680q-16 -87 -16 -109t2 -38l604 1054q-45 123 -179 123zM366 41q132 0 205 106q53 72 84 244l119 680q14 73 14 139l-604 -1052q50 -117 182 -117zM850 1203q0 -46 -14 -132
l-123 -704q-35 -193 -109 -279q-88 -104 -240 -104t-217 108l-63 -110l-51 22l86 152q-26 96 4 235l123 705q20 111 43 168q86 214 301 215q150 0 223 -113l59 107l52 -23l-84 -150q10 -51 10 -97z" />
    <glyph glyph-name="oslashacute" unicode="&#x1ff;" horiz-adv-x="724" 
d="M438 1196l133 266h82l-168 -266h-47zM441 963q-93 0 -148 -68t-82 -223l-59 -340q-12 -78 -13 -121v-25l428 709q-33 68 -126 68zM285 41q92 0 145 68t82 223l59 340q14 74 15 121v24l-430 -708q37 -68 129 -68zM647 798q0 -54 -18 -149l-56 -319q-31 -178 -92 -254
q-77 -92 -193 -92t-167 65l-45 -74l-47 29l61 102q-12 42 -12 96t16 152l56 320q35 184 94 254q78 92 194 92t166 -66l45 74l47 -29l-61 -102q12 -45 12 -99z" />
    <glyph glyph-name="uni0200" unicode="&#x200;" horiz-adv-x="745" 
d="M530 1638h-45l-51 267h74zM672 1638h-45l-52 267h74zM555 412l-31 934l-360 -934h391zM557 354h-416l-137 -354h-67l579 1462h51l68 -1462h-66z" />
    <glyph glyph-name="uni0201" unicode="&#x201;" horiz-adv-x="694" 
d="M428 1196h-45l-51 266h74zM569 1196h-45l-51 266h74zM338 500q-252 0 -252 -328q0 -70 36 -100t128 -31q92 0 137 51t70 191l39 217h-158zM404 963q-157 0 -203 -269h-58q25 147 70 217q70 109 203 109q186 0 186 -197q0 -70 -16 -159l-117 -664h-51l8 72
q-35 -48 -77 -68t-116 -20q-211 0 -210 180q0 76 20 157t53 128q72 109 246 108h164l20 123q33 191 -15 248q-29 35 -107 35z" />
    <glyph glyph-name="uni0202" unicode="&#x202;" horiz-adv-x="745" 
d="M680 1751q0 43 -16 63t-62 21q-46 0 -74 -37q-27 -37 -49 -139h-53q23 109 39 143q43 90 143 90q61 0 95 -30t34 -80q0 -49 -12 -123h-53q8 49 8 92zM555 412l-31 934l-360 -934h391zM557 354h-416l-137 -354h-67l579 1462h51l68 -1462h-66z" />
    <glyph glyph-name="uni0203" unicode="&#x203;" horiz-adv-x="694" 
d="M506 1393q-53 0 -81 -39t-48 -137h-53q18 100 38 143q43 90 144 90q61 0 95 -31t34 -79t-12 -123h-54q8 51 9 88q0 88 -72 88zM338 500q-252 0 -252 -328q0 -70 36 -100t128 -31q92 0 137 51t70 191l39 217h-158zM404 963q-157 0 -203 -269h-58q25 147 70 217
q70 109 203 109q186 0 186 -197q0 -70 -16 -159l-117 -664h-51l8 72q-35 -48 -77 -68t-116 -20q-211 0 -210 180q0 76 20 157t53 128q72 109 246 108h164l20 123q33 191 -15 248q-29 35 -107 35z" />
    <glyph glyph-name="uni0204" unicode="&#x204;" horiz-adv-x="747" 
d="M559 1638h-45l-51 267h74zM700 1638h-45l-51 267h74zM76 0l258 1462h493l-10 -57h-432l-113 -635h369l-10 -57h-369l-115 -656h431l-11 -57h-491z" />
    <glyph glyph-name="uni0205" unicode="&#x205;" horiz-adv-x="700" 
d="M444 1196h-45l-51 266h74zM586 1196h-45l-52 266h74zM436 963q-92 0 -144 -68t-79 -223l-20 -109h346q35 180 34 244q0 156 -137 156zM276 41q94 0 148 65q53 66 80 216h57q-27 -154 -65 -220q-72 -119 -222 -118q-94 0 -145 55t-51 139t16 176l58 320q31 182 90 254
q78 92 184 92q209 0 209 -209q-1 -57 -21 -173t-24 -132h-408l-28 -174q-14 -72 -15 -131q0 -160 137 -160z" />
    <glyph glyph-name="uni0206" unicode="&#x206;" horiz-adv-x="747" 
d="M729 1751q0 43 -16 63q-17 20 -63 21q-46 0 -72 -37t-50 -139h-53q23 109 39 143q43 90 143 90q61 0 96 -30q33 -31 33 -80t-12 -123h-53q8 49 8 92zM76 0l258 1462h493l-10 -57h-432l-113 -635h369l-10 -57h-369l-115 -656h431l-11 -57h-491z" />
    <glyph glyph-name="uni0207" unicode="&#x207;" horiz-adv-x="700" 
d="M510 1393q-53 0 -81 -39t-48 -137h-53q18 100 39 143q43 90 143 90q61 0 95 -31t34 -79t-12 -123h-54q8 51 9 88q0 88 -72 88zM436 963q-92 0 -144 -68t-79 -223l-20 -109h346q35 180 34 244q0 156 -137 156zM276 41q94 0 148 65q53 66 80 216h57q-27 -154 -65 -220
q-72 -119 -222 -118q-94 0 -145 55t-51 139t16 176l58 320q31 182 90 254q78 92 184 92q209 0 209 -209q-1 -57 -21 -173t-24 -132h-408l-28 -174q-14 -72 -15 -131q0 -160 137 -160z" />
    <glyph glyph-name="uni0208" unicode="&#x208;" horiz-adv-x="389" 
d="M352 1638h-45l-51 267h74zM494 1638h-45l-52 267h74zM76 0l258 1462h61l-258 -1462h-61z" />
    <glyph glyph-name="uni0209" unicode="&#x209;" horiz-adv-x="352" 
d="M256 1196h-45l-51 266h73zM397 1196h-45l-51 266h74zM57 0l176 1004h62l-176 -1004h-62z" />
    <glyph glyph-name="uni020A" unicode="&#x20a;" horiz-adv-x="389" 
d="M502 1751q0 43 -16 63t-63 21q-46 0 -73 -37t-49 -139h-53q23 109 39 143q43 90 143 90q61 0 95 -30t34 -80q0 -49 -12 -123h-53q8 49 8 92zM76 0l258 1462h61l-258 -1462h-61z" />
    <glyph glyph-name="uni020B" unicode="&#x20b;" horiz-adv-x="352" 
d="M336 1393q-53 0 -81 -39t-48 -137h-53q18 100 39 143q43 90 143 90q61 0 95 -31t34 -79t-12 -123h-54q8 51 9 88q0 88 -72 88zM57 0l176 1004h62l-176 -1004h-62z" />
    <glyph glyph-name="uni020C" unicode="&#x20c;" horiz-adv-x="876" 
d="M596 1638h-45l-51 267h73zM737 1638h-45l-51 267h74zM594 1421q-131 0 -207 -106q-53 -74 -82 -244l-121 -680q-14 -86 -14 -133q0 -102 51 -160t146 -57q131 0 206 106q53 78 82 244l121 680q14 84 15 133q1 102 -51 160t-146 57zM852 1212q0 -63 -14 -141l-125 -704
q-31 -186 -107 -279q-92 -104 -226 -104t-203 70t-68 194q0 65 14 143l125 705q20 113 42 169t64 107q88 106 224 106t206 -70q68 -71 68 -196z" />
    <glyph glyph-name="uni020D" unicode="&#x20d;" horiz-adv-x="724" 
d="M442 1196h-45l-51 266h74zM584 1196h-45l-52 266h74zM446 963q-98 0 -152 -68t-81 -223l-59 -340q-14 -72 -15 -131q0 -160 142 -160q96 -1 151 67t82 224l59 340q14 84 15 129q0 162 -142 162zM433 1020q216 0 216 -215q0 -45 -18 -156l-58 -319q-18 -106 -37 -160
t-55 -94q-78 -92 -188 -92q-215 0 -215 213q0 46 16 157l58 320q18 106 37 160t55 94q78 92 189 92z" />
    <glyph glyph-name="uni020E" unicode="&#x20e;" horiz-adv-x="876" 
d="M669 1835q-46 0 -73 -37t-49 -139h-53q23 109 38 143q43 90 144 90q61 0 95 -30t34 -80q0 -49 -12 -123h-54q21 121 -7 155q-16 20 -63 21zM594 1421q-131 0 -207 -106q-53 -74 -82 -244l-121 -680q-14 -86 -14 -133q0 -102 51 -160t146 -57q131 0 206 106q53 78 82 244
l121 680q14 84 15 133q1 102 -51 160t-146 57zM852 1212q0 -63 -14 -141l-125 -704q-31 -186 -107 -279q-92 -104 -226 -104t-203 70t-68 194q0 65 14 143l125 705q20 113 42 169t64 107q88 106 224 106t206 -70q68 -71 68 -196z" />
    <glyph glyph-name="uni020F" unicode="&#x20f;" horiz-adv-x="724" 
d="M594 1305q0 88 -72 88q-53 0 -81 -39t-48 -137h-53q18 100 39 143q43 90 143 90q61 0 95 -31t34 -79t-12 -123h-53q8 51 8 88zM446 963q-98 0 -152 -68t-81 -223l-59 -340q-14 -72 -15 -131q0 -160 142 -160q96 -1 151 67t82 224l59 340q14 84 15 129q0 162 -142 162z
M433 1020q216 0 216 -215q0 -45 -18 -156l-58 -319q-18 -106 -37 -160t-55 -94q-78 -92 -188 -92q-215 0 -215 213q0 46 16 157l58 320q18 106 37 160t55 94q78 92 189 92z" />
    <glyph glyph-name="uni0210" unicode="&#x210;" horiz-adv-x="841" 
d="M537 1638h-45l-52 267h74zM678 1638h-45l-51 267h73zM410 733q102 0 159 27t105 96q90 137 90 326q0 113 -52 168t-177 55h-148l-119 -672h142zM535 1462q165 0 229 -72t63 -202q0 -190 -79 -329q-80 -138 -209 -171l90 -688h-66l-84 676h-221l-119 -676h-61l258 1462
h199z" />
    <glyph glyph-name="uni0211" unicode="&#x211;" horiz-adv-x="493" 
d="M352 1196h-45l-51 266h74zM494 1196h-45l-52 266h74zM444 1020q62 0 113 -45l-41 -51q-37 39 -78 39q-80 0 -136 -113t-97 -354l-88 -496h-62l176 1004h52l-15 -117q37 73 76 103q38 30 100 30z" />
    <glyph glyph-name="uni0212" unicode="&#x212;" horiz-adv-x="841" 
d="M694 1751q0 43 -16 63t-62 21q-46 0 -73 -37t-49 -139h-54q23 109 39 143q43 90 144 90q61 0 95 -30t34 -80q0 -49 -13 -123h-53q8 49 8 92zM410 733q102 0 159 27t105 96q90 137 90 326q0 113 -52 168t-177 55h-148l-119 -672h142zM535 1462q165 0 229 -72t63 -202
q0 -190 -79 -329q-80 -138 -209 -171l90 -688h-66l-84 676h-221l-119 -676h-61l258 1462h199z" />
    <glyph glyph-name="uni0213" unicode="&#x213;" horiz-adv-x="493" 
d="M510 1305q0 88 -72 88q-53 0 -81 -39t-48 -137h-53q18 100 39 143q43 90 143 90q62 0 96 -31t34 -79t-13 -123h-53q8 51 8 88zM444 1020q62 0 113 -45l-41 -51q-37 39 -78 39q-80 0 -136 -113t-97 -354l-88 -496h-62l176 1004h52l-15 -117q37 73 76 103q38 30 100 30z
" />
    <glyph glyph-name="uni0214" unicode="&#x214;" horiz-adv-x="894" 
d="M604 1638h-45l-51 267h74zM745 1638h-45l-51 267h74zM373 43q141 0 215 115q37 63 61 196l195 1108h61l-196 -1120q-17 -104 -35 -154t-53 -92q-90 -111 -248 -110q-121 0 -187 59t-65 170q0 57 16 152l193 1095h61l-194 -1108q-14 -84 -15 -131q0 -180 191 -180z" />
    <glyph glyph-name="uni0215" unicode="&#x215;" horiz-adv-x="729" 
d="M442 1196h-45l-51 266h74zM584 1196h-45l-52 266h74zM150 188q0 -147 112 -147q94 0 154 90q59 90 94 289l102 584h62l-178 -1004h-50l17 117q-43 -72 -90 -103q-47 -30 -122 -30t-119 49t-44 127t21 194l114 650h62l-117 -660q-18 -111 -18 -156z" />
    <glyph glyph-name="uni0216" unicode="&#x216;" horiz-adv-x="894" 
d="M756 1751q0 43 -16 63t-63 21q-46 0 -73 -37t-49 -139h-53q23 109 39 143q43 90 143 90q61 0 95 -30t34 -80q0 -49 -12 -123h-53q8 49 8 92zM373 43q141 0 215 115q37 63 61 196l195 1108h61l-196 -1120q-17 -104 -35 -154t-53 -92q-90 -111 -248 -110q-121 0 -187 59
t-65 170q0 57 16 152l193 1095h61l-194 -1108q-14 -84 -15 -131q0 -180 191 -180z" />
    <glyph glyph-name="uni0217" unicode="&#x217;" horiz-adv-x="729" 
d="M594 1305q0 88 -72 88q-53 0 -81 -39t-48 -137h-53q18 100 39 143q43 90 143 90q61 0 95 -31t34 -79t-12 -123h-53q8 51 8 88zM150 188q0 -147 112 -147q94 0 154 90q59 90 94 289l102 584h62l-178 -1004h-50l17 117q-43 -72 -90 -103q-47 -30 -122 -30t-119 49t-44 127
t21 194l114 650h62l-117 -660q-18 -111 -18 -156z" />
    <glyph glyph-name="Scommaaccent" unicode="&#x218;" horiz-adv-x="763" 
d="M111 -422l112 266h78l-145 -266h-45zM119 242q0 -96 49 -148t139 -53q152 0 225 170q54 127 54 247q1 167 -80 219q-24 15 -112 61t-133 118q-44 72 -44 184q0 170 80 304t229 135q106 -1 168 -63t64 -171q0 -53 -17 -145h-59q12 66 12 121q0 201 -170 200
q-121 0 -186 -131q-57 -111 -57 -222t37 -171q38 -59 142 -113t146 -113t43 -209q0 -150 -67 -294q-88 -184 -275 -184q-113 0 -181 64t-69 173q1 53 19 170h57q-14 -106 -14 -149z" />
    <glyph glyph-name="scommaaccent" unicode="&#x219;" horiz-adv-x="651" 
d="M57 -422l113 266h78l-146 -266h-45zM242 41q102 0 169 82t66 207q0 59 -35 98q-25 24 -122 58t-138 81t-41 129q0 144 73 234t177 90q205 0 205 -195q0 -49 -16 -131h-58q14 68 15 121q0 147 -131 148q-88 0 -144 -74t-57 -189q0 -74 57 -116q29 -18 146 -62
q133 -49 133 -180q0 -156 -83 -257q-84 -101 -198 -101q-226 0 -225 192q0 60 18 162h58q-18 -94 -19 -145q0 -152 150 -152z" />
    <glyph glyph-name="uni021A" unicode="&#x21a;" horiz-adv-x="634" 
d="M55 -422l113 266h78l-146 -266h-45zM199 0l247 1405h-247l10 57h557l-10 -57h-248l-248 -1405h-61z" />
    <glyph glyph-name="uni021B" unicode="&#x21b;" horiz-adv-x="405" 
d="M-25 -422l113 266h78l-146 -266h-45zM240 0q-144 0 -144 112q0 56 21 179l116 655h-77l10 58h78l61 352h62l-62 -352h115l-10 -58h-115l-121 -682q-16 -88 -16 -127q0 -80 78 -80h24l-10 -57h-10z" />
    <glyph glyph-name="uni0226" unicode="&#x226;" horiz-adv-x="745" 
d="M545 1661l28 168h62l-29 -168h-61zM555 412l-31 934l-360 -934h391zM557 354h-416l-137 -354h-67l579 1462h51l68 -1462h-66z" />
    <glyph glyph-name="uni0227" unicode="&#x227;" horiz-adv-x="694" 
d="M442 1219l29 167h61l-28 -167h-62zM338 500q-252 0 -252 -328q0 -70 36 -100t128 -31q92 0 137 51t70 191l39 217h-158zM404 963q-157 0 -203 -269h-58q25 147 70 217q70 109 203 109q186 0 186 -197q0 -70 -16 -159l-117 -664h-51l8 72q-35 -48 -77 -68t-116 -20
q-211 0 -210 180q0 76 20 157t53 128q72 109 246 108h164l20 123q33 191 -15 248q-29 35 -107 35z" />
    <glyph glyph-name="uni0237" unicode="&#x237;" horiz-adv-x="356" 
d="M238 1004h61l-190 -1084q-31 -209 -100 -303t-185 -88l10 59q82 -8 133 71t78 253z" />
    <glyph glyph-name="afii57929" unicode="&#x2bc;" horiz-adv-x="202" 
d="M137 1018l125 444h66l-144 -444h-47z" />
    <glyph glyph-name="uni02C0" unicode="&#x2c0;" horiz-adv-x="1024" 
d="M723 1870q-35 0 -84 -19l-8 43q49 23 100 23q123 0 123 -96q0 -51 -46 -103t-54 -63q-8 -12 -13 -45h-57q8 41 15 56q7 14 49 68t43 87q0 49 -68 49z" />
    <glyph glyph-name="circumflex" unicode="&#x2c6;" horiz-adv-x="1024" 
d="M672 1382l-121 -172h-78l191 238h32l107 -238h-70z" />
    <glyph glyph-name="caron" unicode="&#x2c7;" horiz-adv-x="1024" 
d="M645 1276l123 172h76l-191 -238h-32l-107 238h70z" />
    <glyph glyph-name="uni02C9" unicode="&#x2c9;" horiz-adv-x="1024" 
d="M514 1300l8 50h279l-8 -50h-279z" />
    <glyph glyph-name="breve" unicode="&#x2d8;" horiz-adv-x="1024" 
d="M645 1200q-61 0 -95 31t-34 75t12 128h54q-8 -51 -9 -88q0 -88 72 -89q53 0 81 39t46 138h55q-23 -109 -39 -144q-45 -90 -143 -90z" />
    <glyph glyph-name="dotaccent" unicode="&#x2d9;" horiz-adv-x="1024" 
d="M606 1219l29 167h61l-28 -167h-62z" />
    <glyph glyph-name="ring" unicode="&#x2da;" horiz-adv-x="1024" 
d="M684 1499q-51 0 -84 -50q-33 -49 -33 -109q0 -111 82 -109q49 0 82 49t33 134t-80 85zM680 1548q142 0 141 -162q0 -80 -50 -142t-124 -62q-137 0 -137 162q0 82 50 142q50 62 120 62z" />
    <glyph glyph-name="ogonek" unicode="&#x2db;" horiz-adv-x="1024" 
d="M365 -250q0 -53 75 -53q33 0 76 14v-55q-49 -16 -96 -16q-119 0 -119 96q0 74 51 146t135 118h68q-94 -63 -127 -102q-63 -74 -63 -148z" />
    <glyph glyph-name="tilde" unicode="&#x2dc;" horiz-adv-x="1024" 
d="M594 1413q43 0 84 -67q39 -68 61 -68q31 0 68 119h41q-26 -94 -54 -131t-75 -37t-82 67q-23 44 -34 56t-25 12q-31 0 -68 -119h-43q27 90 55 129q29 39 72 39z" />
    <glyph glyph-name="hungarumlaut" unicode="&#x2dd;" horiz-adv-x="1024" 
d="M678 1196l117 266h73l-145 -266h-45zM537 1196l116 266h74l-145 -266h-45z" />
    <glyph glyph-name="uni0309" unicode="&#x309;" horiz-adv-x="1024" 
d="M649 1438q-37 0 -86 -19l-8 43q53 23 100 23q123 0 123 -96q0 -49 -45 -99t-53 -65q-8 -14 -14 -47h-58q8 41 16 56q6 14 48 68t43 87q0 49 -66 49z" />
    <glyph glyph-name="uni0312" unicode="&#x312;" horiz-adv-x="1024" 
d="M512 1196l168 266h47l-133 -266h-82z" />
    <glyph glyph-name="uni0313" unicode="&#x313;" horiz-adv-x="53" 
d="M90 1087l92 375h70l-119 -375h-43z" />
    <glyph glyph-name="uni031B" unicode="&#x31b;" horiz-adv-x="53" 
d="M90 1087l92 375h70l-119 -375h-43z" />
    <glyph glyph-name="uni0323" unicode="&#x323;" horiz-adv-x="1024" 
d="M328 -367l28 168h62l-29 -168h-61z" />
    <glyph glyph-name="uni037E" unicode="&#x37e;" horiz-adv-x="337" 
d="M205 862l26 142h62l-27 -142h-61zM-74 -385l150 526h69l-170 -526h-49z" />
    <glyph glyph-name="uni0387" unicode="&#x387;" horiz-adv-x="337" 
d="M172 690l25 139h61l-25 -139h-61z" />
    <glyph glyph-name="uni04D4" unicode="&#x4d4;" horiz-adv-x="1198" 
d="M600 416l174 989h-8l-559 -989h393zM590 358h-416l-203 -358h-71l837 1462h541l-10 -57h-432l-113 -635h369l-11 -57h-368l-115 -656h430l-10 -57h-492z" />
    <glyph glyph-name="uni04D5" unicode="&#x4d5;" horiz-adv-x="1079" 
d="M813 963q-90 0 -143 -68t-80 -223l-19 -109h347q33 180 32 244q0 156 -137 156zM336 506q-133 0 -191 -88q-61 -98 -61 -246q0 -70 36 -100t128 -31q92 0 137 51t70 191l39 223h-158zM422 1020q142 0 176 -119q74 119 213 119q96 0 148 -54q53 -54 53 -134t-43 -326h-414
l-31 -174q-14 -84 -14 -131q0 -160 141 -160q96 0 151 65q54 66 81 216h57q-27 -154 -66 -220q-76 -118 -219 -118t-194 114q-70 -115 -228 -114q-211 0 -213 171q0 85 22 168t54 130q74 111 246 110h162l20 117q34 192 -16 248q-32 35 -108 35q-154 0 -201 -269h-58
q25 147 70 217q69 109 211 109z" />
    <glyph glyph-name="uni1E02" unicode="&#x1e02;" horiz-adv-x="858" 
d="M567 1661l29 168h61l-28 -168h-62zM342 57q82 0 132 24t89 79q96 145 96 338q0 125 -42 178t-140 53h-211l-119 -672h195zM483 786q121 0 189 99q92 125 92 303q0 119 -46 168t-159 49h-174l-109 -619h207zM541 1462q168 0 227 -64t59 -209q0 -144 -61 -264t-158 -165
q115 -55 115 -270t-113 -371q-47 -67 -106 -93t-160 -26h-268l258 1462h207z" />
    <glyph glyph-name="uni1E03" unicode="&#x1e03;" horiz-adv-x="743" 
d="M528 1219l29 167h61l-28 -167h-62zM600 782q0 180 -129 181q-186 0 -258 -400l-20 -123q-20 -117 -21 -186q0 -213 133 -213q174 0 225 301l54 297q16 92 16 143zM471 1020q92 0 141 -57q50 -57 50 -143t-21 -210l-51 -280q-61 -346 -283 -346q-143 0 -176 137l-27 -121
h-51l258 1462h62l-101 -571q74 129 199 129z" />
    <glyph glyph-name="uni1E0C" unicode="&#x1e0c;" horiz-adv-x="880" 
d="M229 -367l29 168h61l-28 -168h-62zM582 1405h-197l-238 -1348h197q129 -2 209 83t106 253l119 676q14 88 15 125q0 211 -211 211zM588 1462q266 0 266 -260q0 -53 -14 -133l-123 -698q-29 -181 -123 -277t-240 -94h-278l258 1462h254z" />
    <glyph glyph-name="uni1E0D" unicode="&#x1e0d;" horiz-adv-x="743" 
d="M201 -367l28 168h62l-29 -168h-61zM274 41q184 0 254 399l23 123q18 104 18 187q0 213 -137 213q-166 0 -221 -301l-55 -320q-12 -63 -13 -119q0 -182 131 -182zM274 -16q-193 0 -192 233q0 59 14 137l56 320q59 346 284 346q135 0 172 -129l101 571h61l-258 -1462h-49
l14 121q-76 -137 -203 -137z" />
    <glyph glyph-name="uni1E1E" unicode="&#x1e1e;" horiz-adv-x="694" 
d="M567 1661l29 168h61l-28 -168h-62zM76 0l258 1462h489l-10 -57h-428l-115 -647h367l-10 -58h-367l-123 -700h-61z" />
    <glyph glyph-name="uni1E1F" unicode="&#x1e1f;" horiz-adv-x="417" 
d="M432 1661l29 168h61l-28 -168h-62zM238 946h-80l10 58h80l43 235q23 133 63 179q41 46 135 44h43l-10 -53h-24q-72 2 -100 -32t-50 -154l-39 -219h142l-11 -58h-141l-166 -946h-61z" />
    <glyph glyph-name="uni1E24" unicode="&#x1e24;" horiz-adv-x="880" 
d="M256 -367l29 168h61l-29 -168h-61zM76 0l258 1462h61l-123 -692h430l123 692h62l-258 -1462h-62l125 713h-430l-125 -713h-61z" />
    <glyph glyph-name="uni1E25" unicode="&#x1e25;" horiz-adv-x="745" 
d="M188 -367l29 168h62l-29 -168h-62zM479 1020q84 0 130 -50t46 -132t-18 -189l-115 -649h-61l117 659q16 96 16 150q0 154 -121 154q-99 -1 -159 -91t-95 -288l-102 -584h-62l258 1462h62l-99 -559q78 117 203 117z" />
    <glyph glyph-name="uni1E44" unicode="&#x1e44;" horiz-adv-x="935" 
d="M653 1661l29 168h61l-28 -168h-62zM76 0l258 1462h59l258 -1302l230 1302h61l-258 -1462h-59l-258 1303l-230 -1303h-61z" />
    <glyph glyph-name="uni1E45" unicode="&#x1e45;" horiz-adv-x="745" 
d="M467 1219l29 167h61l-29 -167h-61zM477 1020q86 0 132 -50t46 -132t-18 -189l-115 -649h-61l117 659q16 98 16 152q0 152 -121 152q-99 -1 -159 -91t-95 -288l-102 -584h-62l176 1004h52l-17 -117q82 133 211 133z" />
    <glyph glyph-name="uni1E5A" unicode="&#x1e5a;" horiz-adv-x="841" 
d="M236 -367l28 168h62l-29 -168h-61zM410 733q102 0 159 27t105 96q90 137 90 326q0 113 -52 168t-177 55h-148l-119 -672h142zM535 1462q165 0 229 -72t63 -202q0 -190 -79 -329q-80 -138 -209 -171l90 -688h-66l-84 676h-221l-119 -676h-61l258 1462h199z" />
    <glyph glyph-name="uni1E5B" unicode="&#x1e5b;" horiz-adv-x="493" 
d="M-8 -367l28 168h62l-29 -168h-61zM445 1020q60 0 112 -45l-39 -51q-37 39 -80 39q-78 0 -134 -113t-99 -354l-86 -496h-62l176 1004h50l-15 -117q37 73 77 103t100 30z" />
    <glyph glyph-name="uni1E62" unicode="&#x1e62;" horiz-adv-x="763" 
d="M178 -367l29 168h61l-28 -168h-62zM119 242q0 -96 49 -148t139 -53q152 0 225 170q54 127 54 247q1 167 -80 219q-24 15 -112 61t-133 118q-44 72 -44 184q0 170 80 304t229 135q106 -1 168 -63t64 -171q0 -53 -17 -145h-59q12 66 12 121q0 201 -170 200
q-121 0 -186 -131q-57 -111 -57 -222t37 -171q38 -59 142 -113t146 -113t43 -209q0 -150 -67 -294q-88 -184 -275 -184q-113 0 -181 64t-69 173q1 53 19 170h57q-14 -106 -14 -149z" />
    <glyph glyph-name="uni1E63" unicode="&#x1e63;" horiz-adv-x="651" 
d="M141 -367l29 168h61l-28 -168h-62zM242 41q102 0 169 82t66 207q0 59 -35 98q-25 24 -122 58t-138 81t-41 129q0 144 73 234t177 90q205 0 205 -195q0 -49 -16 -131h-58q14 68 15 121q0 147 -131 148q-88 0 -144 -74t-57 -189q0 -74 57 -116q29 -18 146 -62
q133 -49 133 -180q0 -156 -83 -257q-84 -101 -198 -101q-226 0 -225 192q0 60 18 162h58q-18 -94 -19 -145q0 -152 150 -152z" />
    <glyph glyph-name="uni1E6C" unicode="&#x1e6c;" horiz-adv-x="634" 
d="M133 -367l29 168h61l-28 -168h-62zM199 0l247 1405h-247l10 57h557l-10 -57h-248l-248 -1405h-61z" />
    <glyph glyph-name="uni1E6D" unicode="&#x1e6d;" horiz-adv-x="405" 
d="M18 -367l29 168h62l-29 -168h-62zM240 0q-144 0 -144 113q0 57 21 178l116 655h-77l8 58h80l61 352h62l-64 -352h115l-8 -58h-115l-121 -682q-16 -88 -16 -127q0 -80 78 -80h24l-10 -57h-10z" />
    <glyph glyph-name="Wgrave" unicode="&#x1e80;" horiz-adv-x="1120" 
d="M809 1638h-41l-80 267h78zM178 0l70 1462h57l-63 -1269l467 1269h36l23 -1269l383 1269h59l-444 -1462h-47l-23 1276l-469 -1276h-49z" />
    <glyph glyph-name="wgrave" unicode="&#x1e81;" horiz-adv-x="985" 
d="M664 1196h-41l-80 266h78zM180 0l-16 1004h59l4 -871l332 871h39l25 -871l309 871h63l-368 -1004h-43l-29 866l-332 -866h-43z" />
    <glyph glyph-name="Wacute" unicode="&#x1e82;" horiz-adv-x="1120" 
d="M715 1638l135 267h80l-168 -267h-47zM178 0l70 1462h57l-63 -1269l467 1269h36l23 -1269l383 1269h59l-444 -1462h-47l-23 1276l-469 -1276h-49z" />
    <glyph glyph-name="wacute" unicode="&#x1e83;" horiz-adv-x="985" 
d="M569 1196l133 266h82l-168 -266h-47zM180 0l-16 1004h59l4 -871l332 871h39l25 -871l309 871h63l-368 -1004h-43l-29 866l-332 -866h-43z" />
    <glyph glyph-name="Wdieresis" unicode="&#x1e84;" horiz-adv-x="1120" 
d="M852 1661l29 168h57l-29 -168h-57zM618 1661l29 168h58l-29 -168h-58zM178 0l70 1462h57l-63 -1269l467 1269h36l23 -1269l383 1269h59l-444 -1462h-47l-23 1276l-469 -1276h-49z" />
    <glyph glyph-name="wdieresis" unicode="&#x1e85;" horiz-adv-x="985" 
d="M707 1219l28 167h58l-29 -167h-57zM473 1219l29 167h57l-29 -167h-57zM180 0l-16 1004h59l4 -871l332 871h39l25 -871l309 871h63l-368 -1004h-43l-29 866l-332 -866h-43z" />
    <glyph glyph-name="uni1E92" unicode="&#x1e92;" horiz-adv-x="696" 
d="M190 -367l29 168h62l-29 -168h-62zM-4 0l6 39l674 1366h-408l11 57h475l-6 -39l-674 -1366h450l-10 -57h-518z" />
    <glyph glyph-name="uni1E93" unicode="&#x1e93;" horiz-adv-x="618" 
d="M125 -367l29 168h61l-29 -168h-61zM-4 0l6 31l506 915h-322l11 58h389l-4 -31l-508 -916h364l-10 -57h-432z" />
    <glyph glyph-name="uni1EA0" unicode="&#x1ea0;" horiz-adv-x="745" 
d="M215 -367l29 168h61l-29 -168h-61zM555 412l-31 934l-360 -934h391zM557 354h-416l-137 -354h-67l579 1462h51l68 -1462h-66z" />
    <glyph glyph-name="uni1EA1" unicode="&#x1ea1;" horiz-adv-x="694" 
d="M164 -367l29 168h61l-29 -168h-61zM338 500q-252 0 -252 -328q0 -70 36 -100t128 -31q92 0 137 51t70 191l39 217h-158zM404 963q-157 0 -203 -269h-58q25 147 70 217q70 109 203 109q186 0 186 -197q0 -70 -16 -159l-117 -664h-51l8 72q-35 -48 -77 -68t-116 -20
q-211 0 -210 180q0 76 20 157t53 128q72 109 246 108h164l20 123q33 191 -15 248q-29 35 -107 35z" />
    <glyph glyph-name="uni1EA2" unicode="&#x1ea2;" horiz-adv-x="745" 
d="M639 1821q0 49 -68 49q-35 0 -86 -19l-8 43q49 23 101 23q125 0 124 -96q0 -49 -47 -101t-54 -65q-7 -12 -13 -45h-58q10 54 60 116t49 95zM555 412l-31 934l-360 -934h391zM557 354h-416l-137 -354h-67l579 1462h51l68 -1462h-66z" />
    <glyph glyph-name="uni1EA3" unicode="&#x1ea3;" horiz-adv-x="694" 
d="M551 1389q0 49 -68 49q-37 0 -84 -19l-8 43q49 23 98 23q125 0 125 -96q0 -49 -47 -101t-54 -66q-7 -13 -11 -44h-60q8 39 16 54q7 16 50 68t43 89zM338 500q-252 0 -252 -328q0 -70 36 -100t128 -31q92 0 137 51t70 191l39 217h-158zM404 963q-157 0 -203 -269h-58
q25 147 70 217q70 109 203 109q186 0 186 -197q0 -70 -16 -159l-117 -664h-51l8 72q-35 -48 -77 -68t-116 -20q-211 0 -210 180q0 76 20 157t53 128q72 109 246 108h164l20 123q33 191 -15 248q-29 35 -107 35z" />
    <glyph glyph-name="uni1EA4" unicode="&#x1ea4;" horiz-adv-x="745" 
d="M586 1686l-140 -123h-81l215 188h26l150 -188h-76zM555 1806l123 226h82l-160 -226h-45zM555 412l-31 934l-360 -934h391zM557 354h-416l-137 -354h-67l579 1462h51l68 -1462h-66z" />
    <glyph glyph-name="uni1EA5" unicode="&#x1ea5;" horiz-adv-x="694" 
d="M483 1243l-139 -123h-82l215 189h29l147 -189h-75zM453 1364l122 225h82l-159 -225h-45zM338 500q-252 0 -252 -328q0 -70 36 -100t128 -31q92 0 137 51t70 191l39 217h-158zM404 963q-157 0 -203 -269h-58q25 147 70 217q70 109 203 109q186 0 186 -197q0 -70 -16 -159
l-117 -664h-51l8 72q-35 -48 -77 -68t-116 -20q-211 0 -210 180q0 76 20 157t53 128q72 109 246 108h164l20 123q33 191 -15 248q-29 35 -107 35z" />
    <glyph glyph-name="uni1EA6" unicode="&#x1ea6;" horiz-adv-x="745" 
d="M586 1686l-140 -123h-81l215 188h26l150 -188h-76zM649 1806h-43l-82 226h72zM555 412l-31 934l-360 -934h391zM557 354h-416l-137 -354h-67l579 1462h51l68 -1462h-66z" />
    <glyph glyph-name="uni1EA7" unicode="&#x1ea7;" horiz-adv-x="694" 
d="M483 1243l-139 -123h-82l215 189h29l147 -189h-75zM547 1364h-43l-82 225h72zM338 500q-252 0 -252 -328q0 -70 36 -100t128 -31q92 0 137 51t70 191l39 217h-158zM404 963q-157 0 -203 -269h-58q25 147 70 217q70 109 203 109q186 0 186 -197q0 -70 -16 -159l-117 -664
h-51l8 72q-35 -48 -77 -68t-116 -20q-211 0 -210 180q0 76 20 157t53 128q72 109 246 108h164l20 123q33 191 -15 248q-29 35 -107 35z" />
    <glyph glyph-name="uni1EA8" unicode="&#x1ea8;" horiz-adv-x="745" 
d="M580 1686l-138 -123h-84l215 188h29l148 -188h-76zM653 1944q0 41 -45 41q-25 0 -65 -15l-4 45q39 16 77 17q92 0 93 -80q-1 -27 -11 -46t-53 -71q-16 -22 -20 -51h-52q8 43 44 88t36 72zM555 412l-31 934l-360 -934h391zM557 354h-416l-137 -354h-67l579 1462h51
l68 -1462h-66z" />
    <glyph glyph-name="uni1EA9" unicode="&#x1ea9;" horiz-adv-x="694" 
d="M477 1243l-137 -123h-84l215 189h29l147 -189h-76zM551 1501q0 41 -45 41q-27 0 -64 -14l-6 45q39 16 78 16q92 0 92 -80q0 -27 -11 -46t-40 -56t-33 -66h-51q8 43 44 88t36 72zM338 500q-252 0 -252 -328q0 -70 36 -100t128 -31q92 0 137 51t70 191l39 217h-158z
M404 963q-157 0 -203 -269h-58q25 147 70 217q70 109 203 109q186 0 186 -197q0 -70 -16 -159l-117 -664h-51l8 72q-35 -48 -77 -68t-116 -20q-211 0 -210 180q0 76 20 157t53 128q72 109 246 108h164l20 123q33 191 -15 248q-29 35 -107 35z" />
    <glyph glyph-name="uni1EAA" unicode="&#x1eaa;" horiz-adv-x="745" 
d="M594 1686l-137 -123h-84l215 188h28l148 -188h-76zM565 2019q47 0 80 -65q31 -66 51 -66q37 0 76 115h45q-29 -92 -57 -130t-72 -38q-43 0 -74 66t-55 65q-35 0 -86 -115h-45q59 168 137 168zM555 412l-31 934l-360 -934h391zM557 354h-416l-137 -354h-67l579 1462h51
l68 -1462h-66z" />
    <glyph glyph-name="uni1EAB" unicode="&#x1eab;" horiz-adv-x="694" 
d="M492 1243l-138 -123h-84l215 189h29l148 -189h-76zM463 1577q47 0 79 -66t52 -65q35 0 76 115h45q-53 -168 -123 -168q-49 -1 -80 65t-55 66q-37 0 -86 -115h-45q59 168 137 168zM338 500q-252 0 -252 -328q0 -70 36 -100t128 -31q92 0 137 51t70 191l39 217h-158z
M404 963q-157 0 -203 -269h-58q25 147 70 217q70 109 203 109q186 0 186 -197q0 -70 -16 -159l-117 -664h-51l8 72q-35 -48 -77 -68t-116 -20q-211 0 -210 180q0 76 20 157t53 128q72 109 246 108h164l20 123q33 191 -15 248q-29 35 -107 35z" />
    <glyph glyph-name="uni1EAC" unicode="&#x1eac;" horiz-adv-x="745" 
d="M188 -367l29 168h62l-29 -168h-62zM594 1825l-123 -172h-76l191 237h32l107 -237h-70zM555 412l-31 934l-360 -934h391zM557 354h-416l-137 -354h-67l579 1462h51l68 -1462h-66z" />
    <glyph glyph-name="uni1EAD" unicode="&#x1ead;" horiz-adv-x="694" 
d="M164 -367l29 168h61l-29 -168h-61zM508 1382l-123 -172h-76l191 238h32l107 -238h-70zM338 500q-252 0 -252 -328q0 -70 36 -100t128 -31q92 0 137 51t70 191l39 217h-158zM404 963q-157 0 -203 -269h-58q25 147 70 217q70 109 203 109q186 0 186 -197q0 -70 -16 -159
l-117 -664h-51l8 72q-35 -48 -77 -68t-116 -20q-211 0 -210 180q0 76 20 157t53 128q72 109 246 108h164l20 123q33 191 -15 248q-29 35 -107 35z" />
    <glyph glyph-name="uni1EAE" unicode="&#x1eae;" horiz-adv-x="745" 
d="M465 1722q0 -106 104 -106q63 0 98 36q34 36 56 120h53q-24 -119 -70 -166t-134 -47q-88 1 -122 33q-36 32 -36 108q0 23 6 72h49q-4 -27 -4 -50zM555 1806l123 226h80l-158 -226h-45zM555 412l-31 934l-360 -934h391zM557 354h-416l-137 -354h-67l579 1462h51l68 -1462
h-66z" />
    <glyph glyph-name="uni1EAF" unicode="&#x1eaf;" horiz-adv-x="694" 
d="M467 1174q63 0 99 36t57 119h51q-27 -121 -72 -167t-132 -46t-123 33t-36 106q0 19 6 74h50q-4 -27 -5 -49q0 -106 105 -106zM453 1364l122 225h82l-159 -225h-45zM338 500q-252 0 -252 -328q0 -70 36 -100t128 -31q92 0 137 51t70 191l39 217h-158zM404 963
q-157 0 -203 -269h-58q25 147 70 217q70 109 203 109q186 0 186 -197q0 -70 -16 -159l-117 -664h-51l8 72q-35 -48 -77 -68t-116 -20q-211 0 -210 180q0 76 20 157t53 128q72 109 246 108h164l20 123q33 191 -15 248q-29 35 -107 35z" />
    <glyph glyph-name="uni1EB0" unicode="&#x1eb0;" horiz-adv-x="745" 
d="M465 1722q0 -106 104 -106q63 0 98 36q34 36 56 120h53q-24 -119 -70 -166t-134 -47q-88 1 -122 33q-36 32 -36 108q0 23 6 72h49q-4 -27 -4 -50zM649 1806h-43l-82 226h72zM555 412l-31 934l-360 -934h391zM557 354h-416l-137 -354h-67l579 1462h51l68 -1462h-66z" />
    <glyph glyph-name="uni1EB1" unicode="&#x1eb1;" horiz-adv-x="694" 
d="M467 1174q63 0 99 36t57 119h51q-27 -121 -72 -167t-132 -46t-123 33t-36 106q0 19 6 74h50q-4 -27 -5 -49q0 -106 105 -106zM547 1364h-43l-82 225h72zM338 500q-252 0 -252 -328q0 -70 36 -100t128 -31q92 0 137 51t70 191l39 217h-158zM404 963q-157 0 -203 -269h-58
q25 147 70 217q70 109 203 109q186 0 186 -197q0 -70 -16 -159l-117 -664h-51l8 72q-35 -48 -77 -68t-116 -20q-211 0 -210 180q0 76 20 157t53 128q72 109 246 108h164l20 123q33 191 -15 248q-29 35 -107 35z" />
    <glyph glyph-name="uni1EB2" unicode="&#x1eb2;" horiz-adv-x="745" 
d="M465 1722q0 -106 104 -106q63 0 98 36q34 36 56 120h53q-24 -119 -70 -166t-134 -47q-88 1 -122 33q-36 32 -36 108q0 23 6 72h49q-4 -27 -4 -50zM653 1944q0 41 -45 41q-29 0 -63 -15l-6 45q39 16 77 17q92 0 93 -84q0 -41 -43 -97q-44 -51 -48 -92h-49q8 49 46 100
t38 85zM555 412l-31 934l-360 -934h391zM557 354h-416l-137 -354h-67l579 1462h51l68 -1462h-66z" />
    <glyph glyph-name="uni1EB3" unicode="&#x1eb3;" horiz-adv-x="694" 
d="M467 1174q63 0 99 36t57 119h51q-27 -121 -72 -167t-132 -46t-123 33t-36 106q0 19 6 74h50q-4 -27 -5 -49q0 -106 105 -106zM551 1501q0 41 -45 41q-27 0 -64 -14l-6 45q39 16 78 16q92 0 92 -84q0 -41 -42 -93t-48 -95h-49q10 49 47 100t37 84zM338 500
q-252 0 -252 -328q0 -70 36 -100t128 -31q92 0 137 51t70 191l39 217h-158zM404 963q-157 0 -203 -269h-58q25 147 70 217q70 109 203 109q186 0 186 -197q0 -70 -16 -159l-117 -664h-51l8 72q-35 -48 -77 -68t-116 -20q-211 0 -210 180q0 76 20 157t53 128q72 109 246 108
h164l20 123q33 191 -15 248q-29 35 -107 35z" />
    <glyph glyph-name="uni1EB4" unicode="&#x1eb4;" horiz-adv-x="745" 
d="M563 1559q-152 0 -151 139q0 25 6 74h49l-4 -48q0 -109 104 -108q63 0 98 36q34 36 56 120h53q-27 -119 -73 -166t-138 -47zM563 2019q49 1 80 -65t53 -66q35 0 74 115h47q-31 -92 -59 -130t-71 -38q-44 0 -75 66t-53 65q-20 0 -39 -24q-18 -25 -47 -91h-47
q59 168 137 168zM555 412l-31 934l-360 -934h391zM557 354h-416l-137 -354h-67l579 1462h51l68 -1462h-66z" />
    <glyph glyph-name="uni1EB5" unicode="&#x1eb5;" horiz-adv-x="694" 
d="M463 1116q-152 0 -152 139q0 19 6 74h48q-2 -25 -3 -47q0 -109 103 -108q63 0 97 36t56 119h54q-29 -121 -73 -167t-136 -46zM461 1577q49 0 80 -66t53 -65q37 0 74 115h47q-31 -92 -59 -130t-72 -38t-74 65q-29 66 -53 66q-39 0 -86 -115h-47q59 168 137 168zM338 500
q-252 0 -252 -328q0 -70 36 -100t128 -31q92 0 137 51t70 191l39 217h-158zM404 963q-157 0 -203 -269h-58q25 147 70 217q70 109 203 109q186 0 186 -197q0 -70 -16 -159l-117 -664h-51l8 72q-35 -48 -77 -68t-116 -20q-211 0 -210 180q0 76 20 157t53 128q72 109 246 108
h164l20 123q33 191 -15 248q-29 35 -107 35z" />
    <glyph glyph-name="uni1EB6" unicode="&#x1eb6;" horiz-adv-x="745" 
d="M201 -367l30 168h62l-31 -168h-61zM496 1788q0 -88 71 -88q53 0 81 39t46 137h56q-18 -100 -39 -143q-45 -90 -144 -91q-61 0 -95 32t-34 75t13 127h53q-8 -51 -8 -88zM555 412l-31 934l-360 -934h391zM557 354h-416l-137 -354h-67l579 1462h51l68 -1462h-66z" />
    <glyph glyph-name="uni1EB7" unicode="&#x1eb7;" horiz-adv-x="694" 
d="M164 -367l29 168h61l-29 -168h-61zM410 1346q0 -88 71 -89q53 0 81 38t46 139h56q-23 -109 -39 -144q-43 -90 -144 -90q-61 0 -95 32t-34 75t13 127h53q-8 -55 -8 -88zM338 500q-252 0 -252 -328q0 -70 36 -100t128 -31q92 0 137 51t70 191l39 217h-158zM404 963
q-157 0 -203 -269h-58q25 147 70 217q70 109 203 109q186 0 186 -197q0 -70 -16 -159l-117 -664h-51l8 72q-35 -48 -77 -68t-116 -20q-211 0 -210 180q0 76 20 157t53 128q72 109 246 108h164l20 123q33 191 -15 248q-29 35 -107 35z" />
    <glyph glyph-name="uni1EB8" unicode="&#x1eb8;" horiz-adv-x="747" 
d="M250 -367l31 168h61l-31 -168h-61zM76 0l258 1462h493l-10 -57h-432l-113 -635h369l-10 -57h-369l-115 -656h431l-11 -57h-491z" />
    <glyph glyph-name="uni1EB9" unicode="&#x1eb9;" horiz-adv-x="700" 
d="M166 -367l29 168h61l-29 -168h-61zM436 963q-92 0 -144 -68t-79 -223l-20 -109h346q35 180 34 244q0 156 -137 156zM276 41q94 0 148 65q53 66 80 216h57q-27 -154 -65 -220q-72 -119 -222 -118q-94 0 -145 55t-51 139t16 176l58 320q31 182 90 254q78 92 184 92
q209 0 209 -209q-1 -57 -21 -173t-24 -132h-408l-28 -174q-14 -72 -15 -131q0 -160 137 -160z" />
    <glyph glyph-name="uni1EBA" unicode="&#x1eba;" horiz-adv-x="747" 
d="M606 1870q-35 0 -84 -19l-8 43q49 23 100 23q123 0 123 -96q0 -51 -46 -101t-53 -63q-7 -12 -13 -47h-60q10 54 59 116t50 95q0 49 -68 49zM76 0l258 1462h493l-10 -57h-432l-113 -635h369l-10 -57h-369l-115 -656h431l-11 -57h-491z" />
    <glyph glyph-name="uni1EBB" unicode="&#x1ebb;" horiz-adv-x="700" 
d="M547 1389q0 49 -68 49q-37 0 -84 -19l-8 43q49 23 98 23q125 0 125 -96q0 -49 -47 -101t-54 -66q-7 -13 -11 -44h-60q8 39 16 54q7 16 50 68t43 89zM436 963q-92 0 -144 -68t-79 -223l-20 -109h346q35 180 34 244q0 156 -137 156zM276 41q94 0 148 65q53 66 80 216h57
q-27 -154 -65 -220q-72 -119 -222 -118q-94 0 -145 55t-51 139t16 176l58 320q31 182 90 254q78 92 184 92q209 0 209 -209q-1 -57 -21 -173t-24 -132h-408l-28 -174q-14 -72 -15 -131q0 -160 137 -160z" />
    <glyph glyph-name="uni1EBC" unicode="&#x1ebc;" horiz-adv-x="747" 
d="M698 1720q33 0 68 119h41q-27 -92 -55 -130t-74 -38q-47 0 -82 68q-23 43 -34 55t-25 12q-31 1 -68 -118h-43q27 90 55 129q29 39 73 39t83 -68t61 -68zM76 0l258 1462h493l-10 -57h-432l-113 -635h369l-10 -57h-369l-115 -656h431l-11 -57h-491z" />
    <glyph glyph-name="uni1EBD" unicode="&#x1ebd;" horiz-adv-x="700" 
d="M432 1413q43 0 84 -67q39 -68 62 -68q31 0 67 119h41q-26 -94 -54 -131t-75 -37t-82 67q-23 44 -34 56t-25 12q-31 0 -68 -119h-43q27 90 55 129q29 39 72 39zM436 963q-92 0 -144 -68t-79 -223l-20 -109h346q35 180 34 244q0 156 -137 156zM276 41q94 0 148 65
q53 66 80 216h57q-27 -154 -65 -220q-72 -119 -222 -118q-94 0 -145 55t-51 139t16 176l58 320q31 182 90 254q78 92 184 92q209 0 209 -209q-1 -57 -21 -173t-24 -132h-408l-28 -174q-14 -72 -15 -131q0 -160 137 -160z" />
    <glyph glyph-name="uni1EBE" unicode="&#x1ebe;" horiz-adv-x="747" 
d="M610 1686l-137 -123h-82l213 188h29l149 -188h-77zM582 1806l123 226h79l-159 -226h-43zM76 0l258 1462h493l-10 -57h-432l-113 -635h369l-10 -57h-369l-115 -656h431l-11 -57h-491z" />
    <glyph glyph-name="uni1EBF" unicode="&#x1ebf;" horiz-adv-x="700" 
d="M485 1243l-137 -123h-84l215 189h29l147 -189h-75zM457 1364l121 225h81l-159 -225h-43zM436 963q-92 0 -144 -68t-79 -223l-20 -109h346q35 180 34 244q0 156 -137 156zM276 41q94 0 148 65q53 66 80 216h57q-27 -154 -65 -220q-72 -119 -222 -118q-94 0 -145 55
t-51 139t16 176l58 320q31 182 90 254q78 92 184 92q209 0 209 -209q-1 -57 -21 -173t-24 -132h-408l-28 -174q-14 -72 -15 -131q0 -160 137 -160z" />
    <glyph glyph-name="uni1EC0" unicode="&#x1ec0;" horiz-adv-x="747" 
d="M610 1686l-137 -123h-82l213 188h29l149 -188h-77zM676 1806h-45l-80 226h72zM76 0l258 1462h493l-10 -57h-432l-113 -635h369l-10 -57h-369l-115 -656h431l-11 -57h-491z" />
    <glyph glyph-name="uni1EC1" unicode="&#x1ec1;" horiz-adv-x="700" 
d="M485 1243l-137 -123h-84l215 189h29l147 -189h-75zM549 1364h-43l-80 225h72zM436 963q-92 0 -144 -68t-79 -223l-20 -109h346q35 180 34 244q0 156 -137 156zM276 41q94 0 148 65q53 66 80 216h57q-27 -154 -65 -220q-72 -119 -222 -118q-94 0 -145 55t-51 139t16 176
l58 320q31 182 90 254q78 92 184 92q209 0 209 -209q-1 -57 -21 -173t-24 -132h-408l-28 -174q-14 -72 -15 -131q0 -160 137 -160z" />
    <glyph glyph-name="uni1EC2" unicode="&#x1ec2;" horiz-adv-x="747" 
d="M606 1686l-139 -123h-82l215 188h27l149 -188h-76zM651 1784h-51q6 43 43 89t37 71q0 41 -45 41q-29 0 -66 -15l-6 45q39 16 80 17q92 0 92 -80q0 -27 -11 -46t-42 -58t-31 -64zM76 0l258 1462h493l-10 -57h-432l-113 -635h369l-10 -57h-369l-115 -656h431l-11 -57h-491z
" />
    <glyph glyph-name="uni1EC3" unicode="&#x1ec3;" horiz-adv-x="700" 
d="M479 1243l-137 -123h-82l213 189h29l149 -189h-78zM555 1501q0 41 -47 41q-23 0 -64 -14l-6 45q39 16 80 16q92 0 92 -80q0 -27 -11 -46t-54 -70q-19 -29 -21 -52h-49q8 43 37 82q43 51 43 78zM436 963q-92 0 -144 -68t-79 -223l-20 -109h346q35 180 34 244
q0 156 -137 156zM276 41q94 0 148 65q53 66 80 216h57q-27 -154 -65 -220q-72 -119 -222 -118q-94 0 -145 55t-51 139t16 176l58 320q31 182 90 254q78 92 184 92q209 0 209 -209q-1 -57 -21 -173t-24 -132h-408l-28 -174q-14 -72 -15 -131q0 -160 137 -160z" />
    <glyph glyph-name="uni1EC4" unicode="&#x1ec4;" horiz-adv-x="747" 
d="M621 1686l-140 -123h-82l215 188h29l148 -188h-76zM592 2019q47 0 80 -65q29 -66 51 -66q35 0 74 115h47q-31 -92 -59 -130q-27 -38 -71 -38t-73 66q-31 66 -55 65q-35 0 -86 -115h-47q59 168 139 168zM76 0l258 1462h493l-10 -57h-432l-113 -635h369l-10 -57h-369
l-115 -656h431l-11 -57h-491z" />
    <glyph glyph-name="uni1EC5" unicode="&#x1ec5;" horiz-adv-x="700" 
d="M494 1243l-138 -123h-82l215 189h27l150 -189h-76zM465 1577q49 0 80 -66t53 -65q37 0 74 115h47q-31 -92 -59 -130t-72 -38t-74 65q-29 66 -53 66q-39 0 -86 -115h-47q59 168 137 168zM436 963q-92 0 -144 -68t-79 -223l-20 -109h346q35 180 34 244q0 156 -137 156z
M276 41q94 0 148 65q53 66 80 216h57q-27 -154 -65 -220q-72 -119 -222 -118q-94 0 -145 55t-51 139t16 176l58 320q31 182 90 254q78 92 184 92q209 0 209 -209q-1 -57 -21 -173t-24 -132h-408l-28 -174q-14 -72 -15 -131q0 -160 137 -160z" />
    <glyph glyph-name="uni1EC6" unicode="&#x1ec6;" horiz-adv-x="747" 
d="M264 -367l29 168h61l-28 -168h-62zM627 1825l-123 -172h-76l190 237h33l107 -237h-70zM76 0l258 1462h493l-10 -57h-432l-113 -635h369l-10 -57h-369l-115 -656h431l-11 -57h-491z" />
    <glyph glyph-name="uni1EC7" unicode="&#x1ec7;" horiz-adv-x="700" 
d="M180 -367l29 168h61l-28 -168h-62zM516 1382l-121 -172h-78l191 238h33l108 -238h-71zM436 963q-92 0 -144 -68t-79 -223l-20 -109h346q35 180 34 244q0 156 -137 156zM276 41q94 0 148 65q53 66 80 216h57q-27 -154 -65 -220q-72 -119 -222 -118q-94 0 -145 55t-51 139
t16 176l58 320q31 182 90 254q78 92 184 92q209 0 209 -209q-1 -57 -21 -173t-24 -132h-408l-28 -174q-14 -72 -15 -131q0 -160 137 -160z" />
    <glyph glyph-name="uni1EC8" unicode="&#x1ec8;" horiz-adv-x="389" 
d="M461 1821q0 49 -68 49q-35 0 -84 -19l-10 43q49 23 100 23q125 0 125 -96q0 -49 -47 -101t-54 -65q-7 -12 -13 -45h-58q10 54 60 116t49 95zM76 0l258 1462h61l-258 -1462h-61z" />
    <glyph glyph-name="uni1EC9" unicode="&#x1ec9;" horiz-adv-x="352" 
d="M379 1389q0 49 -68 49q-35 0 -84 -19l-8 43q49 23 100 23q123 0 123 -96q0 -51 -46 -101t-54 -64q-8 -13 -12 -46h-60q10 54 60 114t49 97zM57 0l176 1004h62l-176 -1004h-62z" />
    <glyph glyph-name="uni1ECA" unicode="&#x1eca;" horiz-adv-x="389" 
d="M10 -367l29 168h61l-28 -168h-62zM76 0l258 1462h61l-258 -1462h-61z" />
    <glyph glyph-name="uni1ECB" unicode="&#x1ecb;" horiz-adv-x="352" 
d="M-8 -367l28 168h62l-29 -168h-61zM57 0l179 1004h61l-178 -1004h-62zM287 1294l28 168h62l-29 -168h-61z" />
    <glyph glyph-name="uni1ECC" unicode="&#x1ecc;" horiz-adv-x="876" 
d="M254 -367l29 168h61l-29 -168h-61zM594 1421q-131 0 -207 -106q-53 -74 -82 -244l-121 -680q-14 -86 -14 -133q0 -102 51 -160t146 -57q131 0 206 106q53 78 82 244l121 680q14 84 15 133q1 102 -51 160t-146 57zM852 1212q0 -63 -14 -141l-125 -704q-31 -186 -107 -279
q-92 -104 -226 -104t-203 70t-68 194q0 65 14 143l125 705q20 113 42 169t64 107q88 106 224 106t206 -70q68 -71 68 -196z" />
    <glyph glyph-name="uni1ECD" unicode="&#x1ecd;" horiz-adv-x="724" 
d="M178 -367l29 168h61l-28 -168h-62zM446 963q-98 0 -152 -68t-81 -223l-59 -340q-14 -72 -15 -131q0 -160 142 -160q96 -1 151 67t82 224l59 340q14 84 15 129q0 162 -142 162zM433 1020q216 0 216 -215q0 -45 -18 -156l-58 -319q-18 -106 -37 -160t-55 -94
q-78 -92 -188 -92q-215 0 -215 213q0 46 16 157l58 320q18 106 37 160t55 94q78 92 189 92z" />
    <glyph glyph-name="uni1ECE" unicode="&#x1ece;" horiz-adv-x="876" 
d="M645 1870q-35 0 -86 -19l-8 43q49 23 100 23q125 0 125 -96q0 -53 -61 -117q-33 -37 -40 -49t-13 -45h-58q8 41 16 56q8 14 50 68t43 87q0 49 -68 49zM594 1421q-131 0 -207 -106q-53 -74 -82 -244l-121 -680q-14 -86 -14 -133q0 -102 51 -160t146 -57q131 0 206 106
q53 78 82 244l121 680q14 84 15 133q1 102 -51 160t-146 57zM852 1212q0 -63 -14 -141l-125 -704q-31 -186 -107 -279q-92 -104 -226 -104t-203 70t-68 194q0 65 14 143l125 705q20 113 42 169t64 107q88 106 224 106t206 -70q68 -71 68 -196z" />
    <glyph glyph-name="uni1ECF" unicode="&#x1ecf;" horiz-adv-x="724" 
d="M553 1389q0 49 -68 49q-37 0 -86 -19l-8 43q53 23 101 23q125 0 124 -96q0 -49 -47 -101t-54 -64q-7 -13 -13 -46h-58q8 41 16 56q7 14 50 68t43 87zM446 963q-98 0 -152 -68t-81 -223l-59 -340q-14 -72 -15 -131q0 -160 142 -160q96 -1 151 67t82 224l59 340
q14 84 15 129q0 162 -142 162zM433 1020q216 0 216 -215q0 -45 -18 -156l-58 -319q-18 -106 -37 -160t-55 -94q-78 -92 -188 -92q-215 0 -215 213q0 46 16 157l58 320q18 106 37 160t55 94q78 92 189 92z" />
    <glyph glyph-name="uni1ED0" unicode="&#x1ed0;" horiz-adv-x="876" 
d="M651 1686l-137 -123h-84l215 188h29l147 -188h-76zM623 1806l120 226h82l-159 -226h-43zM594 1421q-131 0 -207 -106q-53 -74 -82 -244l-121 -680q-14 -86 -14 -133q0 -102 51 -160t146 -57q131 0 206 106q53 78 82 244l121 680q14 84 15 133q1 102 -51 160t-146 57z
M852 1212q0 -63 -14 -141l-125 -704q-31 -186 -107 -279q-92 -104 -226 -104t-203 70t-68 194q0 65 14 143l125 705q20 113 42 169t64 107q88 106 224 106t206 -70q68 -71 68 -196z" />
    <glyph glyph-name="uni1ED1" unicode="&#x1ed1;" horiz-adv-x="724" 
d="M498 1243l-138 -123h-84l216 189h28l148 -189h-76zM469 1364l121 225h82l-160 -225h-43zM446 963q-98 0 -152 -68t-81 -223l-59 -340q-14 -72 -15 -131q0 -160 142 -160q96 -1 151 67t82 224l59 340q14 84 15 129q0 162 -142 162zM433 1020q216 0 216 -215
q0 -45 -18 -156l-58 -319q-18 -106 -37 -160t-55 -94q-78 -92 -188 -92q-215 0 -215 213q0 46 16 157l58 320q18 106 37 160t55 94q78 92 189 92z" />
    <glyph glyph-name="uni1ED2" unicode="&#x1ed2;" horiz-adv-x="876" 
d="M651 1686l-137 -123h-84l215 188h29l147 -188h-76zM715 1806h-43l-80 226h72zM594 1421q-131 0 -207 -106q-53 -74 -82 -244l-121 -680q-14 -86 -14 -133q0 -102 51 -160t146 -57q131 0 206 106q53 78 82 244l121 680q14 84 15 133q1 102 -51 160t-146 57zM852 1212
q0 -63 -14 -141l-125 -704q-31 -186 -107 -279q-92 -104 -226 -104t-203 70t-68 194q0 65 14 143l125 705q20 113 42 169t64 107q88 106 224 106t206 -70q68 -71 68 -196z" />
    <glyph glyph-name="uni1ED3" unicode="&#x1ed3;" horiz-adv-x="724" 
d="M498 1243l-138 -123h-84l216 189h28l148 -189h-76zM561 1364h-43l-80 225h72zM446 963q-98 0 -152 -68t-81 -223l-59 -340q-14 -72 -15 -131q0 -160 142 -160q96 -1 151 67t82 224l59 340q14 84 15 129q0 162 -142 162zM433 1020q216 0 216 -215q0 -45 -18 -156l-58 -319
q-18 -106 -37 -160t-55 -94q-78 -92 -188 -92q-215 0 -215 213q0 46 16 157l58 320q18 106 37 160t55 94q78 92 189 92z" />
    <glyph glyph-name="uni1ED4" unicode="&#x1ed4;" horiz-adv-x="876" 
d="M645 1686l-137 -123h-82l213 188h29l149 -188h-78zM721 1944q0 41 -47 41q-27 0 -64 -15l-6 45q39 16 80 17q92 0 92 -80q0 -27 -11 -47t-54 -70q-19 -28 -21 -51h-49q6 39 37 82q43 51 43 78zM594 1421q-131 0 -207 -106q-53 -74 -82 -244l-121 -680q-14 -86 -14 -133
q0 -102 51 -160t146 -57q131 0 206 106q53 78 82 244l121 680q14 84 15 133q1 102 -51 160t-146 57zM852 1212q0 -63 -14 -141l-125 -704q-31 -186 -107 -279q-92 -104 -226 -104t-203 70t-68 194q0 65 14 143l125 705q20 113 42 169t64 107q88 106 224 106t206 -70
q68 -71 68 -196z" />
    <glyph glyph-name="uni1ED5" unicode="&#x1ed5;" horiz-adv-x="724" 
d="M492 1243l-138 -123h-82l213 189h29l150 -189h-78zM567 1501q0 41 -47 41q-23 0 -63 -14l-6 45q39 16 79 16q92 0 93 -80q1 -27 -11 -46t-55 -70q-18 -29 -20 -52h-50q8 43 37 82q43 51 43 78zM446 963q-98 0 -152 -68t-81 -223l-59 -340q-14 -72 -15 -131
q0 -160 142 -160q96 -1 151 67t82 224l59 340q14 84 15 129q0 162 -142 162zM433 1020q216 0 216 -215q0 -45 -18 -156l-58 -319q-18 -106 -37 -160t-55 -94q-78 -92 -188 -92q-215 0 -215 213q0 46 16 157l58 320q18 106 37 160t55 94q78 92 189 92z" />
    <glyph glyph-name="uni1ED6" unicode="&#x1ed6;" horiz-adv-x="876" 
d="M662 1686l-140 -123h-82l215 188h27l149 -188h-75zM633 2019q47 1 78 -65t53 -66q35 0 74 115h47q-31 -92 -59 -130t-72 -38t-74 66q-29 66 -53 65q-35 0 -86 -115h-47q59 168 139 168zM594 1421q-131 0 -207 -106q-53 -74 -82 -244l-121 -680q-14 -86 -14 -133
q0 -102 51 -160t146 -57q131 0 206 106q53 78 82 244l121 680q14 84 15 133q1 102 -51 160t-146 57zM852 1212q0 -63 -14 -141l-125 -704q-31 -186 -107 -279q-92 -104 -226 -104t-203 70t-68 194q0 65 14 143l125 705q20 113 42 169t64 107q88 106 224 106t206 -70
q68 -71 68 -196z" />
    <glyph glyph-name="uni1ED7" unicode="&#x1ed7;" horiz-adv-x="724" 
d="M506 1243l-137 -123h-82l215 189h26l150 -189h-76zM477 1577q49 0 80 -66t53 -65q37 0 74 115h47q-31 -92 -59 -130t-71 -38q-44 0 -75 65q-29 66 -53 66q-39 0 -86 -115h-47q59 168 137 168zM446 963q-98 0 -152 -68t-81 -223l-59 -340q-14 -72 -15 -131
q0 -160 142 -160q96 -1 151 67t82 224l59 340q14 84 15 129q0 162 -142 162zM433 1020q216 0 216 -215q0 -45 -18 -156l-58 -319q-18 -106 -37 -160t-55 -94q-78 -92 -188 -92q-215 0 -215 213q0 46 16 157l58 320q18 106 37 160t55 94q78 92 189 92z" />
    <glyph glyph-name="uni1ED8" unicode="&#x1ed8;" horiz-adv-x="876" 
d="M254 -367l29 168h61l-29 -168h-61zM676 1825l-121 -172h-78l191 237h32l109 -237h-72zM594 1421q-131 0 -207 -106q-53 -74 -82 -244l-121 -680q-14 -86 -14 -133q0 -102 51 -160t146 -57q131 0 206 106q53 78 82 244l121 680q14 84 15 133q1 102 -51 160t-146 57z
M852 1212q0 -63 -14 -141l-125 -704q-31 -186 -107 -279q-92 -104 -226 -104t-203 70t-68 194q0 65 14 143l125 705q20 113 42 169t64 107q88 106 224 106t206 -70q68 -71 68 -196z" />
    <glyph glyph-name="uni1ED9" unicode="&#x1ed9;" horiz-adv-x="724" 
d="M178 -367l29 168h61l-28 -168h-62zM522 1382l-121 -172h-77l190 238h33l108 -238h-71zM446 963q-98 0 -152 -68t-81 -223l-59 -340q-14 -72 -15 -131q0 -160 142 -160q96 -1 151 67t82 224l59 340q14 84 15 129q0 162 -142 162zM433 1020q216 0 216 -215q0 -45 -18 -156
l-58 -319q-18 -106 -37 -160t-55 -94q-78 -92 -188 -92q-215 0 -215 213q0 46 16 157l58 320q18 106 37 160t55 94q78 92 189 92z" />
    <glyph glyph-name="uni1EDA" unicode="&#x1eda;" horiz-adv-x="921" 
d="M616 1638l134 267h81l-167 -267h-48zM788 1222q0 84 -51 142t-145 57q-129 0 -205 -106q-53 -74 -82 -244l-121 -680q-14 -86 -14 -133q0 -102 51 -160t146 -57q131 0 206 106q53 78 82 244l121 680q12 67 12 151zM1061 1479v-23q0 -92 -37 -150q-36 -58 -58 -75
q-22 -18 -118 -82q-8 -61 -10 -78l-125 -704q-31 -186 -107 -279q-92 -104 -226 -104t-203 70t-68 194q0 66 14 143l125 705q20 111 42 169t64 109q92 104 226 104t202 -70q68 -71 70 -198q86 63 113 107q39 68 39 133q-1 15 -5 29h62z" />
    <glyph glyph-name="uni1EDB" unicode="&#x1edb;" horiz-adv-x="751" 
d="M457 1196l135 266h82l-170 -266h-47zM446 963q-98 0 -152 -68t-81 -223l-59 -340q-14 -72 -15 -131q0 -160 142 -160q96 -1 151 67t82 224l59 340q14 84 15 129q0 162 -142 162zM293 -16q-215 0 -215 213q0 47 16 157l58 320q18 106 37 160t55 94q78 92 189 92
q216 0 216 -217q0 -25 -2 -47q135 100 135 235q0 15 -2 29h60v-25q2 -178 -203 -303l-64 -362q-18 -106 -37 -160t-55 -94q-78 -92 -188 -92z" />
    <glyph glyph-name="uni1EDC" unicode="&#x1edc;" horiz-adv-x="921" 
d="M676 1638h-43l-78 267h76zM788 1222q0 84 -51 142t-145 57q-129 0 -205 -106q-53 -74 -82 -244l-121 -680q-14 -86 -14 -133q0 -102 51 -160t146 -57q131 0 206 106q53 78 82 244l121 680q12 67 12 151zM1061 1479v-23q0 -92 -37 -150q-36 -58 -58 -75q-22 -18 -118 -82
q-8 -61 -10 -78l-125 -704q-31 -186 -107 -279q-92 -104 -226 -104t-203 70t-68 194q0 66 14 143l125 705q20 111 42 169t64 109q92 104 226 104t202 -70q68 -71 70 -198q86 63 113 107q39 68 39 133q-1 15 -5 29h62z" />
    <glyph glyph-name="uni1EDD" unicode="&#x1edd;" horiz-adv-x="751" 
d="M530 1196h-43l-77 266h75zM446 963q-98 0 -152 -68t-81 -223l-59 -340q-14 -72 -15 -131q0 -160 142 -160q96 -1 151 67t82 224l59 340q14 84 15 129q0 162 -142 162zM293 -16q-215 0 -215 213q0 47 16 157l58 320q18 106 37 160t55 94q78 92 189 92q216 0 216 -217
q0 -25 -2 -47q135 100 135 235q0 15 -2 29h60v-25q2 -178 -203 -303l-64 -362q-18 -106 -37 -160t-55 -94q-78 -92 -188 -92z" />
    <glyph glyph-name="uni1EDE" unicode="&#x1ede;" horiz-adv-x="921" 
d="M637 1870q-35 0 -84 -19l-8 43q49 23 100 23q123 0 123 -96q0 -51 -59 -117q-33 -33 -41 -46t-13 -48h-57q8 41 15 56q7 14 49 68t43 87q0 49 -68 49zM788 1222q0 84 -51 142t-145 57q-129 0 -205 -106q-53 -74 -82 -244l-121 -680q-14 -86 -14 -133q0 -102 51 -160
t146 -57q131 0 206 106q53 78 82 244l121 680q12 67 12 151zM1061 1479v-23q0 -92 -37 -150q-36 -58 -58 -75q-22 -18 -118 -82q-8 -61 -10 -78l-125 -704q-31 -186 -107 -279q-92 -104 -226 -104t-203 70t-68 194q0 66 14 143l125 705q20 111 42 169t64 109q92 104 226 104
t202 -70q68 -71 70 -198q86 63 113 107q39 68 39 133q-1 15 -5 29h62z" />
    <glyph glyph-name="uni1EDF" unicode="&#x1edf;" horiz-adv-x="751" 
d="M563 1389q0 49 -67 49q-37 0 -86 -19l-9 43q49 23 101 23q125 0 125 -96q1 -49 -47 -101t-55 -64q-7 -13 -13 -46h-57q8 41 15 56q7 14 50 68t43 87zM446 963q-98 0 -152 -68t-81 -223l-59 -340q-14 -72 -15 -131q0 -160 142 -160q96 -1 151 67t82 224l59 340
q14 84 15 129q0 162 -142 162zM293 -16q-215 0 -215 213q0 47 16 157l58 320q18 106 37 160t55 94q78 92 189 92q216 0 216 -217q0 -25 -2 -47q135 100 135 235q0 15 -2 29h60v-25q2 -178 -203 -303l-64 -362q-18 -106 -37 -160t-55 -94q-78 -92 -188 -92z" />
    <glyph glyph-name="uni1EE0" unicode="&#x1ee0;" horiz-adv-x="921" 
d="M729 1720q33 0 68 119h41q-27 -92 -55 -130q-29 -38 -75 -38t-81 68q-23 43 -34 55t-26 12q-30 1 -67 -118h-43q27 90 55 129q29 39 73 39t83 -68t61 -68zM788 1222q0 84 -51 142t-145 57q-129 0 -205 -106q-53 -74 -82 -244l-121 -680q-14 -86 -14 -133q0 -102 51 -160
t146 -57q131 0 206 106q53 78 82 244l121 680q12 67 12 151zM1061 1479v-23q0 -92 -37 -150q-36 -58 -58 -75q-22 -18 -118 -82q-8 -61 -10 -78l-125 -704q-31 -186 -107 -279q-92 -104 -226 -104t-203 70t-68 194q0 66 14 143l125 705q20 111 42 169t64 109q92 104 226 104
t202 -70q68 -71 70 -198q86 63 113 107q39 68 39 133q-1 15 -5 29h62z" />
    <glyph glyph-name="uni1EE1" unicode="&#x1ee1;" horiz-adv-x="751" 
d="M419 1413q42 0 83 -67q39 -68 61 -68q35 0 68 119h43q-29 -94 -57 -131q-29 -37 -73 -37t-75 55q-31 56 -42 68t-26 12q-30 0 -67 -119h-43q29 90 57 129q29 39 71 39zM446 963q-98 0 -152 -68t-81 -223l-59 -340q-14 -72 -15 -131q0 -160 142 -160q96 -1 151 67t82 224
l59 340q14 84 15 129q0 162 -142 162zM293 -16q-215 0 -215 213q0 47 16 157l58 320q18 106 37 160t55 94q78 92 189 92q216 0 216 -217q0 -25 -2 -47q135 100 135 235q0 15 -2 29h60v-25q2 -178 -203 -303l-64 -362q-18 -106 -37 -160t-55 -94q-78 -92 -188 -92z" />
    <glyph glyph-name="uni1EE2" unicode="&#x1ee2;" horiz-adv-x="921" 
d="M276 -367l29 168h62l-29 -168h-62zM788 1222q0 84 -51 142t-145 57q-129 0 -205 -106q-53 -74 -82 -244l-121 -680q-14 -86 -14 -133q0 -102 51 -160t146 -57q131 0 206 106q53 78 82 244l121 680q12 67 12 151zM1061 1479v-23q0 -92 -37 -150q-36 -58 -58 -75
q-22 -18 -118 -82q-8 -61 -10 -78l-125 -704q-31 -186 -107 -279q-92 -104 -226 -104t-203 70t-68 194q0 66 14 143l125 705q20 111 42 169t64 109q92 104 226 104t202 -70q68 -71 70 -198q86 63 113 107q39 68 39 133q-1 15 -5 29h62z" />
    <glyph glyph-name="uni1EE3" unicode="&#x1ee3;" horiz-adv-x="751" 
d="M182 -367l29 168h61l-28 -168h-62zM446 963q-98 0 -152 -68t-81 -223l-59 -340q-14 -72 -15 -131q0 -160 142 -160q96 -1 151 67t82 224l59 340q14 84 15 129q0 162 -142 162zM293 -16q-215 0 -215 213q0 47 16 157l58 320q18 106 37 160t55 94q78 92 189 92
q216 0 216 -217q0 -25 -2 -47q135 100 135 235q0 15 -2 29h60v-25q2 -178 -203 -303l-64 -362q-18 -106 -37 -160t-55 -94q-78 -92 -188 -92z" />
    <glyph glyph-name="uni1EE4" unicode="&#x1ee4;" horiz-adv-x="894" 
d="M262 -367l29 168h61l-28 -168h-62zM373 43q141 0 215 115q37 63 61 196l195 1108h61l-196 -1120q-17 -104 -35 -154t-53 -92q-90 -111 -248 -110q-121 0 -187 59t-65 170q0 57 16 152l193 1095h61l-194 -1108q-14 -84 -15 -131q0 -180 191 -180z" />
    <glyph glyph-name="uni1EE5" unicode="&#x1ee5;" horiz-adv-x="729" 
d="M178 -367l31 168h61l-30 -168h-62zM150 188q0 -147 112 -147q94 0 154 90q59 90 94 289l102 584h62l-178 -1004h-50l17 117q-43 -72 -90 -103q-47 -30 -122 -30t-119 49t-44 127t21 194l114 650h62l-117 -660q-18 -111 -18 -156z" />
    <glyph glyph-name="uni1EE6" unicode="&#x1ee6;" horiz-adv-x="894" 
d="M639 1870q-35 0 -84 -19l-8 43q47 23 98 23q125 0 125 -96q0 -53 -61 -117q-31 -33 -39 -46t-13 -48h-59q10 54 59 116t50 95q0 49 -68 49zM373 43q141 0 215 115q37 63 61 196l195 1108h61l-196 -1120q-17 -104 -35 -154t-53 -92q-90 -111 -248 -110q-121 0 -187 59
t-65 170q0 57 16 152l193 1095h61l-194 -1108q-14 -84 -15 -131q0 -180 191 -180z" />
    <glyph glyph-name="uni1EE7" unicode="&#x1ee7;" horiz-adv-x="729" 
d="M553 1389q0 49 -68 49q-39 0 -84 -19l-8 43q49 23 99 23q125 0 124 -96q0 -49 -47 -101t-54 -66q-7 -13 -11 -44h-60q8 39 16 54q7 16 50 68t43 89zM150 188q0 -147 112 -147q94 0 154 90q59 90 94 289l102 584h62l-178 -1004h-50l17 117q-43 -72 -90 -103
q-47 -30 -122 -30t-119 49t-44 127t21 194l114 650h62l-117 -660q-18 -111 -18 -156z" />
    <glyph glyph-name="uni1EE8" unicode="&#x1ee8;" horiz-adv-x="954" 
d="M641 1638l135 267h82l-170 -267h-47zM373 43q141 0 215 115q37 63 61 196l195 1108h61l-51 -293q115 71 163 135t48 148q0 14 -4 27h61v-29q0 -115 -75 -199q-41 -45 -67 -64t-136 -83l-135 -762q-17 -104 -35 -154t-53 -92q-90 -111 -248 -110q-121 0 -187 59t-65 170
q0 57 16 152l193 1095h61l-194 -1108q-14 -84 -15 -131q0 -180 191 -180z" />
    <glyph glyph-name="uni1EE9" unicode="&#x1ee9;" horiz-adv-x="778" 
d="M475 1196l133 266h82l-168 -266h-47zM150 188q0 -147 112 -147q94 0 154 90q59 90 94 289l102 584h62l-51 -295q111 69 159 135t49 147q0 16 -2 29h60q7 -121 -57 -207t-222 -168l-114 -645h-50l17 117q-43 -72 -90 -103q-47 -30 -122 -30t-119 49t-44 127t21 194
l114 650h62l-117 -660q-18 -111 -18 -156z" />
    <glyph glyph-name="uni1EEA" unicode="&#x1eea;" horiz-adv-x="954" 
d="M700 1638h-41l-79 267h77zM373 43q141 0 215 115q37 63 61 196l195 1108h61l-51 -293q115 71 163 135t48 148q0 14 -4 27h61v-29q0 -115 -75 -199q-41 -45 -67 -64t-136 -83l-135 -762q-17 -104 -35 -154t-53 -92q-90 -111 -248 -110q-121 0 -187 59t-65 170q0 57 16 152
l193 1095h61l-194 -1108q-14 -84 -15 -131q0 -180 191 -180z" />
    <glyph glyph-name="uni1EEB" unicode="&#x1eeb;" horiz-adv-x="778" 
d="M508 1196h-43l-80 266h78zM150 188q0 -147 112 -147q94 0 154 90q59 90 94 289l102 584h62l-51 -295q111 69 159 135t49 147q0 16 -2 29h60q7 -121 -57 -207t-222 -168l-114 -645h-50l17 117q-43 -72 -90 -103q-47 -30 -122 -30t-119 49t-44 127t21 194l114 650h62
l-117 -660q-18 -111 -18 -156z" />
    <glyph glyph-name="uni1EEC" unicode="&#x1eec;" horiz-adv-x="954" 
d="M643 1870q-35 0 -84 -19l-8 43q47 23 98 23q125 0 125 -96q0 -53 -61 -117q-31 -35 -38 -47t-13 -47h-60q8 41 15 56q7 14 50 68t44 87q0 49 -68 49zM373 43q141 0 215 115q37 63 61 196l195 1108h61l-51 -293q115 71 163 135t48 148q0 14 -4 27h61v-29q0 -115 -75 -199
q-41 -45 -67 -64t-136 -83l-135 -762q-17 -104 -35 -154t-53 -92q-90 -111 -248 -110q-121 0 -187 59t-65 170q0 57 16 152l193 1095h61l-194 -1108q-14 -84 -15 -131q0 -180 191 -180z" />
    <glyph glyph-name="uni1EED" unicode="&#x1eed;" horiz-adv-x="778" 
d="M479 1438q-37 0 -86 -19l-8 43q53 23 100 23q123 0 123 -96q0 -49 -45 -99t-53 -65q-8 -14 -14 -47h-58q8 41 16 56q6 14 48 68t43 87q0 49 -66 49zM150 188q0 -147 112 -147q94 0 154 90q59 90 94 289l102 584h62l-51 -295q111 69 159 135t49 147q0 16 -2 29h60
q7 -121 -57 -207t-222 -168l-114 -645h-50l17 117q-43 -72 -90 -103q-47 -30 -122 -30t-119 49t-44 127t21 194l114 650h62l-117 -660q-18 -111 -18 -156z" />
    <glyph glyph-name="uni1EEE" unicode="&#x1eee;" horiz-adv-x="954" 
d="M741 1720q33 0 68 119h41q-26 -92 -54 -130t-75 -38t-82 68q-25 43 -35 55t-24 12q-31 1 -68 -118h-43q27 90 55 129q29 39 73 39t83 -68t61 -68zM373 43q141 0 215 115q37 63 61 196l195 1108h61l-51 -293q115 71 163 135t48 148q0 14 -4 27h61v-29q0 -115 -75 -199
q-41 -45 -67 -64t-136 -83l-135 -762q-17 -104 -35 -154t-53 -92q-90 -111 -248 -110q-121 0 -187 59t-65 170q0 57 16 152l193 1095h61l-194 -1108q-14 -84 -15 -131q0 -180 191 -180z" />
    <glyph glyph-name="uni1EEF" unicode="&#x1eef;" horiz-adv-x="778" 
d="M436 1413q42 0 82 -67q43 -68 64 -68q33 0 65 119h43q-30 -96 -56 -132t-73 -36t-82 67q-25 44 -35 56t-24 12q-31 0 -68 -119h-43q27 90 56 129t71 39zM150 188q0 -147 112 -147q94 0 154 90q59 90 94 289l102 584h62l-51 -295q111 69 159 135t49 147q0 16 -2 29h60
q7 -121 -57 -207t-222 -168l-114 -645h-50l17 117q-43 -72 -90 -103q-47 -30 -122 -30t-119 49t-44 127t21 194l114 650h62l-117 -660q-18 -111 -18 -156z" />
    <glyph glyph-name="uni1EF0" unicode="&#x1ef0;" horiz-adv-x="954" 
d="M281 -367l28 168h62l-29 -168h-61zM373 43q141 0 215 115q37 63 61 196l195 1108h61l-51 -293q115 71 163 135t48 148q0 14 -4 27h61v-29q0 -115 -75 -199q-41 -45 -67 -64t-136 -83l-135 -762q-17 -104 -35 -154t-53 -92q-90 -111 -248 -110q-121 0 -187 59t-65 170
q0 57 16 152l193 1095h61l-194 -1108q-14 -84 -15 -131q0 -180 191 -180z" />
    <glyph glyph-name="uni1EF1" unicode="&#x1ef1;" horiz-adv-x="778" 
d="M184 -367l31 168h61l-30 -168h-62zM150 188q0 -147 112 -147q94 0 154 90q59 90 94 289l102 584h62l-51 -295q111 69 159 135t49 147q0 16 -2 29h60q7 -121 -57 -207t-222 -168l-114 -645h-50l17 117q-43 -72 -90 -103q-47 -30 -122 -30t-119 49t-44 127t21 194l114 650
h62l-117 -660q-18 -111 -18 -156z" />
    <glyph glyph-name="Ygrave" unicode="&#x1ef2;" horiz-adv-x="708" 
d="M604 1638h-41l-80 267h78zM236 0l100 561l-127 901h61l111 -805l393 805h66l-443 -901l-100 -561h-61z" />
    <glyph glyph-name="ygrave" unicode="&#x1ef3;" horiz-adv-x="626" 
d="M485 1196h-41l-79 266h77zM199 -18l-56 1022h58l43 -934l344 934h61l-473 -1254q-53 -129 -103 -174t-143 -47l11 57q69 2 103 36t75 140z" />
    <glyph glyph-name="uni1EF4" unicode="&#x1ef4;" horiz-adv-x="708" 
d="M170 -367l29 168h61l-29 -168h-61zM236 0l100 561l-127 901h61l111 -805l395 805h64l-443 -901l-100 -561h-61z" />
    <glyph glyph-name="uni1EF5" unicode="&#x1ef5;" horiz-adv-x="626" 
d="M299 -367l29 168h61l-29 -168h-61zM199 -18l-56 1022h58l43 -934l344 934h61l-473 -1254q-53 -129 -103 -174t-143 -47l11 57q69 2 103 36t75 140z" />
    <glyph glyph-name="uni1EF6" unicode="&#x1ef6;" horiz-adv-x="708" 
d="M600 1821q0 49 -68 49q-35 0 -83 -19l-9 43q47 23 99 23q125 0 125 -96q0 -53 -62 -117q-31 -33 -38 -46t-13 -48h-59q10 54 59 116t49 95zM236 0l100 561l-127 901h61l111 -805l393 805h66l-443 -901l-100 -561h-61z" />
    <glyph glyph-name="uni1EF7" unicode="&#x1ef7;" horiz-adv-x="626" 
d="M489 1389q0 49 -67 49q-37 0 -84 -19l-10 43q53 23 100 23q125 0 125 -96q0 -49 -47 -101q-46 -52 -54 -64q-8 -13 -12 -46h-59q8 39 15 54q7 14 50 68t43 89zM199 -18l-56 1022h58l43 -934l344 934h61l-473 -1254q-53 -129 -103 -174t-143 -47l11 57q69 2 103 36t75 140
z" />
    <glyph glyph-name="uni1EF8" unicode="&#x1ef8;" horiz-adv-x="708" 
d="M631 1720q35 0 67 119h43q-29 -92 -57 -130t-72 -38q-45 -1 -76 55t-41 68q-11 12 -26 12q-29 1 -68 -118h-41q27 90 55 129q29 39 73 39t82 -68t61 -68zM236 0l100 561l-127 901h61l111 -805l393 805h66l-443 -901l-100 -561h-61z" />
    <glyph glyph-name="uni1EF9" unicode="&#x1ef9;" horiz-adv-x="626" 
d="M382 1413q42 0 83 -67q39 -68 61 -68q35 0 68 119h43q-29 -94 -57 -131t-72 -37q-45 0 -76 55q-31 56 -42 68t-25 12q-31 0 -68 -119h-43q29 90 57 129q29 39 71 39zM199 -18l-56 1022h58l43 -934l344 934h61l-473 -1254q-53 -129 -103 -174t-143 -47l11 57q69 2 103 36
t75 140z" />
    <glyph glyph-name="uni2002" unicode="&#x2002;" horiz-adv-x="1024" 
 />
    <glyph glyph-name="uni2003" unicode="&#x2003;" horiz-adv-x="2048" 
 />
    <glyph glyph-name="uni2004" unicode="&#x2004;" horiz-adv-x="681" 
 />
    <glyph glyph-name="uni2005" unicode="&#x2005;" horiz-adv-x="512" 
 />
    <glyph glyph-name="uni2006" unicode="&#x2006;" horiz-adv-x="342" 
 />
    <glyph glyph-name="uni2007" unicode="&#x2007;" 
 />
    <glyph glyph-name="uni2008" unicode="&#x2008;" horiz-adv-x="0" 
 />
    <glyph glyph-name="uni2009" unicode="&#x2009;" horiz-adv-x="409" 
 />
    <glyph glyph-name="uni200A" unicode="&#x200a;" horiz-adv-x="256" 
 />
    <glyph glyph-name="uni2011" unicode="&#x2011;" horiz-adv-x="595" 
d="M176 731l10 57h326l-10 -57h-326z" />
    <glyph glyph-name="figuredash" unicode="&#x2012;" 
d="M203 731l10 57h535l-11 -57h-534z" />
    <glyph glyph-name="endash" unicode="&#x2013;" 
d="M203 731l10 57h535l-11 -57h-534z" />
    <glyph glyph-name="emdash" unicode="&#x2014;" 
d="M152 731l10 57h639l-10 -57h-639z" />
    <glyph glyph-name="afii00208" unicode="&#x2015;" 
d="M152 731l10 57h639l-10 -57h-639z" />
    <glyph glyph-name="underscoredbl" unicode="&#x2017;" horiz-adv-x="577" 
d="M-164 -258l10 57h639l-10 -57h-639zM-188 -395l10 57h639l-10 -57h-639z" />
    <glyph glyph-name="quoteleft" unicode="&#x2018;" horiz-adv-x="202" 
d="M328 1462l-125 -444h-66l144 444h47z" />
    <glyph glyph-name="quoteright" unicode="&#x2019;" horiz-adv-x="202" 
d="M137 1018l125 444h66l-144 -444h-47z" />
    <glyph glyph-name="quotesinglbase" unicode="&#x201a;" horiz-adv-x="202" 
d="M-96 -303l125 444h65l-143 -444h-47z" />
    <glyph glyph-name="quotedblleft" unicode="&#x201c;" horiz-adv-x="403" 
d="M328 1462l-125 -444h-66l144 444h47zM530 1462l-127 -444h-65l143 444h49z" />
    <glyph glyph-name="quotedblright" unicode="&#x201d;" horiz-adv-x="403" 
d="M338 1018l127 444h65l-143 -444h-49zM137 1018l125 444h66l-144 -444h-47z" />
    <glyph glyph-name="quotedblbase" unicode="&#x201e;" horiz-adv-x="403" 
d="M104 -303l127 444h66l-143 -444h-50zM-96 -303l125 444h65l-143 -444h-47z" />
    <glyph glyph-name="dagger" unicode="&#x2020;" 
d="M473 922h-268l10 57h268l86 483h62l-86 -483h268l-10 -57h-268l-222 -1256h-61z" />
    <glyph glyph-name="daggerdbl" unicode="&#x2021;" 
d="M473 922h-268l10 57h268l86 483h62l-86 -483h268l-10 -57h-268l-70 -400h252l-10 -57h-252l-142 -799h-61l141 799h-254l11 57h253z" />
    <glyph glyph-name="bullet" unicode="&#x2022;" 
d="M430 1065q133 0 224 -87t91 -218t-91 -218t-226 -87t-225 88t-90 218t92 217t225 87z" />
    <glyph glyph-name="ellipsis" unicode="&#x2026;" horiz-adv-x="1017" 
d="M729 0l25 141h61l-24 -141h-62zM389 0l25 141h61l-24 -141h-62zM51 0l25 141h61l-24 -141h-62z" />
    <glyph glyph-name="perthousand" unicode="&#x2030;" horiz-adv-x="1488" 
d="M264 0l531 1462h59l-530 -1462h-60zM1386 592q0 104 -96 104q-59 0 -91 -43t-50 -149l-47 -262q-8 -49 -8 -86q0 -106 96 -107q57 1 90 45t51 148l47 262q8 41 8 88zM1450 616q0 -58 -8 -106l-49 -274q-43 -244 -211 -244q-150 0 -150 160q0 45 10 96l50 274
q23 123 68 177q46 55 127 55t122 -40t41 -98zM932 592q0 104 -96 104q-60 0 -92 -43t-50 -149l-47 -262q-8 -49 -8 -86q0 -106 96 -107q57 1 91 45t51 148l47 262q8 41 8 88zM995 616q0 -58 -8 -106l-49 -274q-43 -244 -211 -244q-150 0 -149 160q0 45 10 96l49 274
q23 123 69 177q46 55 127 55t121 -40t41 -98zM479 1315q0 104 -96 104q-57 0 -90 -44t-51 -148l-45 -262q-10 -53 -11 -88q0 -104 97 -105q59 0 92 44t51 149l45 262q8 53 8 88zM543 1336q0 -60 -8 -103l-50 -275q-41 -244 -213 -243q-147 0 -147 159q0 40 10 97l49 274
q20 123 68 177t129 54q80 0 121 -39q41 -41 41 -101z" />
    <glyph glyph-name="guilsinglleft" unicode="&#x2039;" horiz-adv-x="286" 
d="M143 600l72 -256l-43 -18l-98 278l198 281l33 -27z" />
    <glyph glyph-name="guilsinglright" unicode="&#x203a;" horiz-adv-x="286" 
d="M182 608l-71 258l43 19l98 -281l-199 -278l-33 26z" />
    <glyph glyph-name="uni203E" unicode="&#x203e;" horiz-adv-x="577" 
d="M176 1671l10 58h639l-10 -58h-639z" />
    <glyph glyph-name="fraction" unicode="&#x2044;" horiz-adv-x="182" 
d="M-160 0l533 1462h57l-530 -1462h-60z" />
    <glyph glyph-name="zerosuperior" unicode="&#x2070;" horiz-adv-x="540" 
d="M471 1624q-137 0 -174 -205l-66 -381q-12 -63 -12 -82q0 -123 109 -122q137 -1 174 204l65 381q12 57 13 84q0 121 -109 121zM467 1677q168 0 168 -166q0 -43 -10 -98l-70 -393q-21 -125 -75 -182t-148 -58q-168 0 -168 168q0 37 10 96l70 394q20 125 74 182t149 57z" />
    <glyph glyph-name="foursuperior" unicode="&#x2074;" horiz-adv-x="540" 
d="M397 791l29 167h-281l7 43l344 666h59l-336 -651h217l56 313h57l-55 -313h73l-10 -60h-74l-28 -165h-58z" />
    <glyph glyph-name="fivesuperior" unicode="&#x2075;" horiz-adv-x="540" 
d="M416 1325q152 0 151 -162q0 -129 -45 -245q-49 -137 -198 -138q-176 0 -177 150q0 37 13 110h55q-10 -53 -10 -92q0 -114 120 -114t158 145q27 94 27 184q0 113 -96 113q-61 0 -142 -64l-41 9l107 446h305l-8 -53h-254l-76 -320q51 31 111 31z" />
    <glyph glyph-name="sixsuperior" unicode="&#x2076;" horiz-adv-x="540" 
d="M412 1270q-86 0 -129 -84q-23 -41 -40 -116t-18 -126q0 -111 103 -110q88 0 127 79q20 39 37 117q16 78 16 130t-26 81t-70 29zM414 1323q74 0 114 -40t39 -111q0 -70 -19 -160t-44 -135q-49 -96 -174 -97q-162 0 -162 164t100 334l232 389h65l-205 -352q25 8 54 8z" />
    <glyph glyph-name="sevensuperior" unicode="&#x2077;" horiz-adv-x="540" 
d="M180 791l379 823h-301l8 53h363l-6 -41l-375 -835h-68z" />
    <glyph glyph-name="eightsuperior" unicode="&#x2078;" horiz-adv-x="540" 
d="M401 1223q-92 0 -133 -60q-20 -31 -38 -101t-17 -128q0 -100 115 -100q90 0 131 59q19 33 37 103t18 126q0 101 -113 101zM567 1534q0 90 -97 90t-130 -82q-33 -90 -33 -178q-1 -88 95 -88t128 72q37 86 37 186zM250 1360q0 133 46 225t171 92q76 0 117 -36t41 -93
q1 -57 -15 -128q-16 -72 -36 -106t-64 -61q61 -37 61 -115t-19 -158t-44 -118q-53 -82 -176 -82q-84 0 -130 38t-46 104t18 149t45 121t78 61q-47 37 -47 107z" />
    <glyph glyph-name="ninesuperior" unicode="&#x2079;" horiz-adv-x="540" 
d="M469 1624q-92 0 -129 -74q-18 -34 -34 -106t-15 -119q0 -102 100 -102q84 0 129 77q18 33 35 105q16 72 16 117q0 102 -102 102zM233 1312q0 64 19 149q18 85 41 126q49 90 172 90q164 0 164 -153t-92 -307l-254 -426h-68l234 391q-33 -12 -85 -12t-91 38q-40 40 -40 104
z" />
    <glyph glyph-name="zeroinferior" unicode="&#x2080;" horiz-adv-x="540" 
d="M403 508q0 121 -108 121q-137 0 -174 -205l-66 -381q-12 -63 -12 -82q0 -123 109 -123q137 0 174 205l65 381q12 57 12 84zM291 682q168 0 168 -168q0 -37 -10 -96l-70 -393q-21 -125 -75 -183t-148 -57q-168 0 -168 166q0 41 10 98l70 393q20 124 74 182t149 58z" />
    <glyph glyph-name="oneinferior" unicode="&#x2081;" horiz-adv-x="540" 
d="M129 -205l143 807l-120 -63l-27 45l172 88h45l-156 -877h-57z" />
    <glyph glyph-name="twoinferior" unicode="&#x2082;" horiz-adv-x="540" 
d="M369 520q0 106 -97 107q-63 0 -98 -43t-55 -146h-53q16 106 43 148q55 94 165 94q152 0 152 -156q0 -100 -43 -191t-152 -224l-211 -261h287l-8 -53h-362l6 41l250 311q100 127 138 207t38 166z" />
    <glyph glyph-name="threeinferior" unicode="&#x2083;" horiz-adv-x="540" 
d="M180 285q84 0 136 62t52 171t-100 109q-66 0 -102 -44t-55 -145h-56q19 130 69 186t146 56q156 0 156 -167t-135 -253q78 -53 78 -177q1 -124 -57 -211t-173 -87q-180 0 -180 147q0 41 14 113h54q-10 -51 -11 -92q0 -115 119 -115q80 0 128 69t48 159q0 167 -133 165h-61
l8 54h55z" />
    <glyph glyph-name="fourinferior" unicode="&#x2084;" horiz-adv-x="540" 
d="M221 -205l29 168h-281l6 43l344 666h60l-336 -652h217l55 314h58l-56 -314h74l-10 -59h-74l-28 -166h-58z" />
    <glyph glyph-name="fiveinferior" unicode="&#x2085;" horiz-adv-x="540" 
d="M240 330q152 0 151 -162q0 -127 -48 -255t-196 -128q-176 0 -176 147q0 35 13 113h55q-10 -53 -10 -92q-1 -115 119 -115t159 146q27 94 27 184q0 113 -96 113q-63 0 -142 -64l-41 8l107 447h305l-8 -54h-254l-76 -319q51 31 111 31z" />
    <glyph glyph-name="sixinferior" unicode="&#x2086;" horiz-adv-x="540" 
d="M238 274q-84 0 -129 -84q-23 -42 -40 -116t-17 -126t26 -81q27 -29 74 -29q90 0 129 80q20 39 36 116q17 77 17 129q0 51 -26 81t-70 30zM393 178q0 -70 -19 -162t-44 -135q-47 -96 -174 -96q-162 0 -162 163t100 335l232 389h65l-205 -353q25 8 54 9q74 0 114 -40
t39 -110z" />
    <glyph glyph-name="seveninferior" unicode="&#x2087;" horiz-adv-x="540" 
d="M4 -205l379 823h-301l8 54h363l-7 -41l-374 -836h-68z" />
    <glyph glyph-name="eightinferior" unicode="&#x2088;" horiz-adv-x="540" 
d="M227 227q-92 0 -133 -59q-20 -30 -38 -102t-17 -127q0 -100 115 -101q90 0 131 60q19 30 37 102t18 127q0 100 -113 100zM296 629q-97 0 -130 -84t-33 -174t95 -90q95 1 130 77t35 174t-97 97zM76 365q0 133 46 225t171 92q76 0 117 -36t41 -92q1 -56 -15 -128t-36 -106
t-64 -62q61 -37 61 -115q0 -79 -19 -159t-44 -117q-57 -82 -176 -82q-84 0 -130 38t-46 104q0 67 18 149t45 120t78 62q-47 37 -47 107z" />
    <glyph glyph-name="nineinferior" unicode="&#x2089;" horiz-adv-x="540" 
d="M295 629q-94 0 -129 -74q-18 -35 -34 -107t-15 -118q0 -102 100 -103q84 0 129 78q18 33 35 105q16 72 16 118q0 101 -102 101zM211 174q-72 0 -112 39t-40 103t19 150q18 85 41 126q49 90 172 90q164 0 164 -154q0 -157 -93 -307l-253 -426h-68l233 391q-33 -12 -63 -12
z" />
    <glyph glyph-name="franc" unicode="&#x20a3;" horiz-adv-x="1011" 
d="M964 877q60 0 105 -46l-39 -51q-37 39 -80 39q-78 1 -134 -111t-99 -356l-62 -352h-61l151 860h52l-17 -117q39 72 81 103q43 31 103 31zM53 0l258 1462h490l-10 -57h-429l-114 -647h366l-10 -58h-366l-123 -700h-62z" />
    <glyph glyph-name="lira" unicode="&#x20a4;" 
d="M248 995q0 203 84 336q90 147 268 148q125 0 195 -65t69 -181q0 -51 -16 -133h-57q10 68 10 119q0 203 -199 202q-141 0 -217 -121q-74 -125 -74 -290q0 -82 25 -170h305l-10 -58h-283q14 -66 19 -168h233l-10 -57h-225q-5 -135 -67 -272t-157 -228h547l-10 -57h-643
l8 49q106 70 181 216t79 292h-176l10 57h166q-6 86 -24 168h-111l10 58h88q-18 96 -18 155z" />
    <glyph glyph-name="peseta" unicode="&#x20a7;" 
d="M362 1008l-59 -338h111q135 -8 219 74t125 264h-396zM774 1157q0 129 -49 189t-176 59h-117l-59 -340h393q8 49 8 92zM549 1462q157 0 223 -70t66 -235q0 -39 -7 -92h121l-10 -57h-121q-47 -210 -143 -306t-254 -90h-131l-109 -612h-61l178 1008h-143l10 57h143l70 397
h168z" />
    <glyph glyph-name="uni20AB" unicode="&#x20ab;" 
d="M317 41q180 0 254 399l21 123q20 117 20 187q0 213 -139 213q-166 0 -219 -301l-57 -320q-12 -61 -13 -119q0 -182 133 -182zM315 -16q-193 0 -192 233q0 51 14 137l58 320q59 346 282 346q135 0 172 -129l53 295h-196l8 57h199l37 219h61l-37 -219h96l-8 -57h-98
l-209 -1186h-51l14 121q-76 -137 -203 -137zM8 -338l10 57h533l-10 -57h-533z" />
    <glyph glyph-name="Euro" unicode="&#x20ac;" 
d="M199 231q0 -190 186 -190q121 0 187 75t94 246h61q-23 -133 -55 -198q-86 -180 -289 -180q-119 0 -183 60t-65 162q0 102 39 324h-131l31 58h110l33 190h-131l31 58h110l45 256q35 198 113 292t210 94t199 -62t66 -177q0 -55 -16 -139h-58q10 72 11 125q0 197 -191 196
q-115 0 -178 -78t-96 -260l-43 -247h465l-31 -58h-444l-33 -190h387l-29 -58h-368q-37 -217 -37 -299z" />
    <glyph glyph-name="uni20B4" unicode="&#x20b4;" 
d="M739 1223q0 199 -164 198q-94 0 -147 -58t-74 -183h-57q18 117 55 178q74 121 226 121q108 0 166 -67t59 -191q0 -244 -146 -383l168 -64l-22 -55l-199 76q-58 -37 -146 -72t-112 -47l385 -148l-22 -55l-414 158q-55 -59 -88 -163t-33 -220q0 -207 184 -207
q135 0 203 102q33 53 49 160h58q-23 -145 -70 -211q-80 -109 -242 -108q-246 0 -245 262q0 262 122 407l-122 49l22 56l148 -58q37 29 59 40t98 43t92 40l-327 125l22 56l367 -140q147 121 147 359z" />
    <glyph glyph-name="uni2101" unicode="&#x2101;" horiz-adv-x="1038" 
d="M279 0l530 1462h55l-530 -1462h-55zM731 49q72 0 119 66t47 151t-49 121q-12 8 -62 31q-120 61 -120 187t58 203t148 77q121 0 156 -94l-53 -35q-23 72 -99 72t-111 -76q-36 -75 -36 -140q0 -92 105 -145q74 -35 100 -75t27 -132t-57 -180t-173 -88q-141 0 -172 121
l51 26q25 -90 121 -90zM406 846l-29 500l-203 -500h232zM408 788h-256l-82 -202h-62l365 876h47l57 -876h-57z" />
    <glyph glyph-name="afii61248" unicode="&#x2105;" horiz-adv-x="1105" 
d="M289 0l532 1462h56l-533 -1462h-55zM1016 631q0 135 -119 135q-152 0 -184 -201l-58 -317q-6 -43 -6 -68q0 -131 119 -131q151 0 184 199l56 303q8 57 8 80zM1077 641q0 -39 -8 -88l-57 -317q-43 -244 -240 -244q-184 0 -184 182q0 35 10 86l55 318q43 246 242 245
q182 0 182 -182zM279 641q-166 0 -166 182q0 39 12 113l47 268q25 139 81 205t150 66q123 0 170 -109l-57 -33q-33 84 -113 84q-133 0 -174 -239l-43 -240q-12 -72 -12 -104q0 -135 105 -136q81 1 149 93l43 -35q-78 -115 -192 -115z" />
    <glyph glyph-name="afii61289" unicode="&#x2113;" horiz-adv-x="663" 
d="M522 1308q0 136 -59 136q-68 0 -110 -151t-93 -591q133 178 182 287q80 183 80 319zM2 358q-6 0 -13 8t-7 20q0 10 66 68t140 146q54 462 90 620t76 220q40 61 100 61t93 -51t33 -135q0 -221 -142 -459q-63 -102 -188 -256q-47 -334 -47 -448t71 -115q45 0 76 32t70 115
q18 39 38 39t21 -22q0 -55 -63 -139t-150 -82q-63 0 -92 38t-29 123q0 172 33 381q-150 -164 -176 -164z" />
    <glyph glyph-name="afii61352" unicode="&#x2116;" horiz-adv-x="1396" 
d="M813 0l10 57h416l-10 -57h-416zM1317 903q0 154 -119 154q-72 -1 -116 -63t-68 -201l-35 -197q-10 -68 -10 -111q0 -154 118 -153q72 0 116 62t69 202l35 197q10 55 10 110zM1192 1114q186 0 186 -207q0 -59 -12 -127l-35 -196q-29 -160 -87 -235t-150 -75t-140 54
q-46 54 -46 130t12 150l34 197q29 161 87 235q57 74 151 74zM53 0l258 1462h60l258 -1302l229 1302h62l-258 -1462h-60l-258 1303l-229 -1303h-62z" />
    <glyph glyph-name="trademark" unicode="&#x2122;" horiz-adv-x="1062" 
d="M504 586l155 876h52l75 -602l287 602h55l-155 -876h-53l122 690l-256 -524h-34l-72 524l-123 -690h-53zM205 586l145 819h-166l11 57h380l-10 -57h-162l-145 -819h-53z" />
    <glyph glyph-name="uni2126" unicode="&#x2126;" horiz-adv-x="833" 
d="M113 385q0 80 20 190l90 521q20 109 45 168t68 108q92 106 223 106t200 -70q69 -71 68 -196q0 -72 -14 -141l-90 -520q-61 -352 -260 -438l-12 -64h198l-8 -49h-252l27 154q193 59 248 421l88 496q14 75 14 155t-52 138t-145 57q-123 0 -202 -106q-55 -78 -86 -244
l-88 -496q-18 -117 -19 -184q0 -190 121 -237l-27 -154h-252l9 49h198l13 70q-123 55 -123 266z" />
    <glyph glyph-name="estimated" unicode="&#x212e;" horiz-adv-x="737" 
d="M586 731v297q-57 307 -213 307q-76 1 -122 -67t-85 -236v-301h420zM664 688h-498v-332q31 -176 78 -250t128 -74t134 68t88 213h45q-20 -106 -57 -178q-84 -152 -209 -151q-143 0 -220 180t-77 511t81 520t220 189q63 0 123 -53q164 -147 164 -643z" />
    <glyph glyph-name="onethird" unicode="&#x2153;" horiz-adv-x="1263" 
d="M293 0l532 1462h58l-531 -1462h-59zM887 489q84 1 136 63t52 171t-100 108q-125 0 -158 -188h-55q20 131 69 186t146 56q156 0 156 -169t-136 -251q78 -51 78 -176t-57 -212t-174 -87q-178 0 -178 147q0 43 14 113h55q-12 -49 -12 -92q0 -115 119 -115q80 0 128 69
t48 159q0 165 -133 165h-62l8 53h56zM258 586l143 807l-120 -64l-27 45l172 88h45l-156 -876h-57z" />
    <glyph glyph-name="twothirds" unicode="&#x2154;" horiz-adv-x="1263" 
d="M352 0l531 1462h59l-532 -1462h-58zM940 489q84 1 136 63t52 171t-98 108q-66 0 -104 -45t-56 -143h-55q23 131 72 186t143 56q156 0 156 -169t-135 -251q77 -51 77 -175t-57 -212t-174 -88q-178 0 -178 147q0 43 14 113h55q-12 -61 -12 -92q0 -115 119 -115q80 0 128 69
t48 159q0 165 -131 165h-63l8 53h55zM508 1311q0 106 -96 106q-62 0 -98 -43t-56 -145h-53q16 106 43 147q55 94 166 94q152 0 151 -155q0 -101 -43 -193t-151 -223l-211 -260h286l-8 -53h-362l6 41l250 311q100 127 138 207t38 166z" />
    <glyph glyph-name="uni2155" unicode="&#x2155;" horiz-adv-x="1263" 
d="M303 0l533 1462h57l-531 -1462h-59zM950 535q152 0 152 -162q0 -131 -45 -248q-51 -135 -199 -135q-176 0 -176 149q0 51 12 111h54q-8 -57 -9 -92q0 -115 120 -115t159 145q27 92 26 185q0 113 -96 112q-63 0 -143 -63l-39 8l106 447h306l-11 -54h-254l-75 -319
q51 31 112 31zM264 586l144 807l-121 -64l-27 45l172 88h45l-155 -876h-58z" />
    <glyph glyph-name="uni2156" unicode="&#x2156;" horiz-adv-x="1263" 
d="M352 0l531 1462h59l-532 -1462h-58zM981 535q152 0 152 -162q0 -131 -46 -248q-51 -135 -198 -135q-176 0 -176 149q0 37 12 111h55q-10 -51 -10 -92q0 -115 120 -115t159 145q27 92 26 185q0 113 -96 112q-66 0 -141 -63l-41 8l106 447h305l-8 -54h-256l-76 -319
q59 31 113 31zM508 1311q0 106 -96 106q-62 0 -98 -43t-56 -145h-53q16 106 43 147q55 94 166 94q152 0 151 -155q0 -101 -43 -193t-151 -223l-211 -260h286l-8 -53h-362l6 41l250 311q100 127 138 207t38 166z" />
    <glyph glyph-name="uni2157" unicode="&#x2157;" horiz-adv-x="1263" 
d="M360 0l533 1462h57l-530 -1462h-60zM979 535q150 0 149 -162q0 -131 -45 -248q-51 -135 -198 -135q-176 0 -176 149q0 37 12 111h55q-10 -51 -10 -92q0 -115 120 -115t158 145q27 92 27 185q0 113 -96 112q-66 0 -141 -63l-41 8l108 447h303l-8 -54h-254l-76 -319
q51 31 113 31zM322 1075q84 1 136 63t52 171t-98 108q-68 0 -105 -44t-55 -144h-55q20 131 69 186t146 55q156 0 156 -168t-136 -251q78 -53 78 -177t-57 -211t-172 -88q-180 0 -181 148q0 41 15 113h53q-10 -51 -10 -93q0 -115 118 -114q80 1 128 69t49 183q0 65 -35 103
t-99 38h-61l8 53h56z" />
    <glyph glyph-name="uni2158" unicode="&#x2158;" horiz-adv-x="1263" 
d="M381 0l532 1462h60l-533 -1462h-59zM999 535q152 0 152 -162q0 -131 -45 -248q-51 -135 -199 -135q-176 0 -176 149q0 37 12 111h54q-8 -57 -9 -92q0 -115 120 -115t159 145q27 92 27 185q0 113 -97 112q-63 0 -141 -63l-41 8l107 447h305l-10 -54h-254l-76 -319
q53 31 112 31zM360 586l29 168h-280l6 43l344 665h59l-336 -651h217l56 313h57l-55 -313h73l-10 -59h-74l-28 -166h-58z" />
    <glyph glyph-name="uni2159" unicode="&#x2159;" horiz-adv-x="1263" 
d="M319 0l533 1462h57l-530 -1462h-60zM928 479q-86 0 -129 -84q-23 -41 -40 -115t-18 -126q0 -111 103 -111q86 0 127 80q20 37 37 115q16 78 16 130t-26 82t-70 29zM928 532q76 0 116 -40t39 -110q0 -71 -19 -161t-44 -135q-49 -96 -174 -96q-162 0 -162 163t100 334
l230 390h67l-207 -353q27 8 54 8zM264 586l144 807l-121 -64l-27 45l172 88h45l-155 -876h-58z" />
    <glyph glyph-name="uni215A" unicode="&#x215a;" horiz-adv-x="1263" 
d="M389 0l531 1462h59l-533 -1462h-57zM975 479q-86 0 -129 -84q-23 -41 -40 -115t-18 -126q0 -111 103 -111q86 0 127 80q20 37 37 115q16 78 16 130t-25 82q-26 29 -71 29zM975 532q76 0 116 -40q39 -40 39 -110q0 -71 -19 -161t-44 -135q-47 -96 -174 -96
q-162 0 -162 163t100 334l230 390h67l-206 -353q27 8 53 8zM537 958q0 -129 -45 -245q-51 -137 -199 -138q-176 0 -176 148q0 35 12 113h55q-10 -53 -10 -93q0 -115 120 -115t159 146q27 96 26 184q0 113 -96 113q-63 0 -141 -63l-41 8l106 446h305l-8 -53h-254l-76 -319
q51 31 111 30q152 0 152 -162z" />
    <glyph glyph-name="oneeighth" unicode="&#x215b;" horiz-adv-x="1263" 
d="M283 0l532 1462h57l-530 -1462h-59zM915 432q-90 0 -133 -59q-20 -31 -38 -102t-17 -128q0 -100 115 -100q92 0 133 59q20 33 38 103q17 70 17 127q0 100 -115 100zM985 834q-98 0 -129 -82q-35 -86 -35 -179q-1 -88 97 -88t126 72q39 82 39 186q0 91 -98 91zM764 569
q0 133 46 225t171 93q76 0 118 -35t42 -93q1 -58 -15 -129t-35 -107t-67 -60q63 -37 63 -115t-19 -159t-44 -117q-57 -82 -178 -82q-84 0 -130 38t-46 104t19 148t44 122q25 38 78 61q-47 39 -47 106zM244 586l143 807l-121 -64l-26 45l172 88h45l-156 -876h-57z" />
    <glyph glyph-name="threeeighths" unicode="&#x215c;" horiz-adv-x="1263" 
d="M352 0l533 1462h57l-530 -1462h-60zM944 432q-92 0 -133 -59q-19 -31 -37 -102t-18 -128q0 -100 114 -100q90 0 131 59q20 33 38 104q17 71 18 126q0 100 -113 100zM1110 743q0 91 -97 91t-130 -84t-33 -177q0 -88 95 -88t128 72q37 86 37 186zM793 569q0 133 46 225
t171 93q76 0 116 -36t41 -93q0 -57 -15 -128t-34 -104q-18 -37 -65 -63q61 -37 61 -115t-19 -159t-44 -117q-53 -82 -177 -82q-84 0 -130 38t-46 104t18 148t46 120q27 40 78 63q-47 37 -47 106zM322 1075q84 1 136 63t52 171t-98 108q-68 0 -105 -44t-55 -144h-55
q20 131 69 186t146 55q156 0 156 -168t-136 -251q78 -53 78 -177t-57 -211t-172 -88q-180 0 -181 148q0 41 15 113h53q-10 -51 -10 -93q0 -115 118 -114q80 1 128 69t49 183q0 65 -35 103t-99 38h-61l8 53h56z" />
    <glyph glyph-name="fiveeighths" unicode="&#x215d;" horiz-adv-x="1263" 
d="M352 0l531 1462h59l-532 -1462h-58zM944 432q-92 0 -133 -59q-19 -31 -37 -102t-18 -128q0 -100 114 -100q90 0 131 59q20 33 38 104q17 71 18 126q0 100 -113 100zM1110 743q0 91 -97 91t-130 -84t-33 -177q0 -88 95 -88t128 72q37 86 37 186zM793 569q0 133 46 225
t171 93q76 0 116 -36t41 -93q0 -57 -15 -128t-36 -108t-65 -59q63 -37 63 -115t-19 -159t-44 -117q-53 -82 -177 -82q-84 0 -130 38t-46 104t18 148t44 120q25 40 78 63q-45 37 -45 106zM109 723q0 35 12 113h55q-10 -53 -10 -93q0 -115 120 -115t158 146q27 96 27 184
q0 113 -96 113q-63 0 -142 -63l-40 8l106 446h305l-8 -53h-254l-76 -319q51 31 111 30q152 0 151 -162q0 -129 -45 -245q-51 -137 -198 -138q-176 0 -176 148z" />
    <glyph glyph-name="seveneighths" unicode="&#x215e;" horiz-adv-x="1263" 
d="M305 0l531 1462h59l-533 -1462h-57zM938 432q-92 0 -133 -59q-19 -31 -37 -102t-18 -128q0 -100 114 -100q90 0 131 59q20 33 38 104q17 71 18 126q0 100 -113 100zM1104 743q0 91 -97 91t-130 -84t-33 -177q0 -88 95 -88t128 72q37 86 37 186zM1004 887q76 0 116 -36
t41 -93q0 -57 -15 -128t-36 -108t-63 -59q61 -37 61 -115t-19 -159t-45 -117q-53 -82 -176 -82q-84 0 -130 38t-46 104t18 148t46 122q27 41 78 61q-47 37 -48 106q0 133 46 225t172 93zM154 586l378 823h-301l9 53h362l-6 -41l-375 -835h-67z" />
    <glyph glyph-name="arrowleft" unicode="&#x2190;" horiz-adv-x="1638" 
d="M1491 731h-1284l418 -420l-41 -41l-475 478v24l475 477l41 -41l-420 -420h1286v-57z" />
    <glyph glyph-name="arrowup" unicode="&#x2191;" horiz-adv-x="1638" 
d="M733 0v1384l-418 -417l-41 41l476 475h26l477 -475l-41 -41l-417 417v-1384h-62z" />
    <glyph glyph-name="arrowright" unicode="&#x2192;" horiz-adv-x="1638" 
d="M147 731v57h1287l-420 420l41 41l475 -477v-24l-475 -478l-41 41l420 420h-1287z" />
    <glyph glyph-name="arrowdown" unicode="&#x2193;" horiz-adv-x="1638" 
d="M733 1462h62v-1384l417 418l41 -41l-477 -475h-26l-476 475l41 41l418 -418v1384z" />
    <glyph glyph-name="arrowboth" unicode="&#x2194;" horiz-adv-x="1638" 
d="M1434 731h-1227l418 -420l-41 -41l-475 478v24l475 477l41 -41l-420 -420h1229l-420 420l41 41l475 -477v-24l-475 -478l-41 41z" />
    <glyph glyph-name="arrowupdn" unicode="&#x2195;" horiz-adv-x="1638" 
d="M735 78v1308l-420 -419l-41 41l476 475h26l477 -475l-41 -41l-419 419v-1310l419 420l41 -41l-477 -475h-26l-476 475l41 41z" />
    <glyph glyph-name="uni2196" unicode="&#x2196;" horiz-adv-x="1638" 
d="M373 582h-58v671l19 19h672v-58h-592l923 -923l-41 -41l-923 924v-592z" />
    <glyph glyph-name="uni2197" unicode="&#x2197;" horiz-adv-x="1638" 
d="M633 1214v58h672l18 -19v-671h-57v592l-926 -924l-39 41l924 923h-592z" />
    <glyph glyph-name="uni2198" unicode="&#x2198;" horiz-adv-x="1638" 
d="M1266 952h57v-671l-18 -19h-672v57h592l-924 924l39 43l926 -926v592z" />
    <glyph glyph-name="uni2199" unicode="&#x2199;" horiz-adv-x="1638" 
d="M1006 319v-57h-672l-19 19v671h58v-592l925 926l39 -43l-923 -924h592z" />
    <glyph glyph-name="partialdiff" unicode="&#x2202;" 
d="M655 801q0 162 -141 162q-96 0 -150 -68t-81 -223l-60 -340q-14 -72 -14 -131q0 -160 141 -160q96 -1 152 67t82 224l59 340q12 70 12 129zM500 1020q110 0 166 -64q-6 212 -56 318t-161 143l16 53q258 -55 258 -501q0 -193 -29 -348l-49 -279q-19 -109 -39 -165t-55 -99
q-75 -94 -187 -94q-214 0 -217 213q1 46 17 157l57 320q17 106 37 160t55 94q77 92 187 92z" />
    <glyph glyph-name="emptyset" unicode="&#x2205;" 
d="M569 1085l-229 -677q43 -14 86 -15q121 -1 195 101t73 270q0 210 -125 321zM295 432l229 682q-45 18 -98 19q-121 1 -195 -101t-73 -268q0 -234 137 -332zM756 764q0 -196 -91 -312t-241 -116q-53 0 -102 16l-136 -401l-49 18l137 406q-178 111 -178 389q0 194 91 310
t241 116q58 -1 117 -21l121 363l49 -16l-125 -371q166 -115 166 -381z" />
    <glyph glyph-name="Delta" unicode="&#x2206;" 
d="M625 57l-43 1289l-498 -1289h541zM694 0h-700l581 1462h54z" />
    <glyph glyph-name="product" unicode="&#x220f;" 
d="M-23 -424l332 1886h582l-332 -1886h-61l321 1829h-459l-321 -1829h-62z" />
    <glyph glyph-name="summation" unicode="&#x2211;" 
d="M12 -424l4 23l445 991l-111 842l6 30h545l-10 -57h-475l110 -817l-428 -955h492l-8 -57h-570z" />
    <glyph glyph-name="minus" unicode="&#x2212;" 
d="M176 731l10 57h590l-10 -57h-590z" />
    <glyph glyph-name="uni2215" unicode="&#x2215;" horiz-adv-x="182" 
d="M-160 0l533 1462h57l-530 -1462h-60z" />
    <glyph glyph-name="uni2218" unicode="&#x2218;" 
d="M430 1008q-112 0 -186 -71t-74 -177t74 -178q74 -70 186 -70t184 71q74 71 74 177t-74 177t-184 71zM430 1065q133 0 224 -87t91 -218t-91 -218t-226 -87t-225 88t-90 218t92 217t225 87z" />
    <glyph glyph-name="uni2219" unicode="&#x2219;" horiz-adv-x="337" 
d="M172 690l25 139h61l-25 -139h-61z" />
    <glyph glyph-name="radical" unicode="&#x221a;" 
d="M319 707v-631l555 1653h285l-10 -58h-236l-569 -1671h-65l-15 649h-98l6 58h147z" />
    <glyph glyph-name="infinity" unicode="&#x221e;" horiz-adv-x="1118" 
d="M805 543q78 0 127 61q49 62 49 160t-48 160t-128 61q-80 0 -134 -72t-73 -129l-8 -20l8 -23q16 -53 70 -120q59 -78 137 -78zM314 985q-78 0 -128 -61q-49 -62 -49 -160t48 -160t129 -61q81 0 137 78q47 59 69 120l8 23l-8 20q-23 57 -69 123q-59 78 -137 78zM307 487
q-102 0 -164 76q-61 76 -61 201t61 201q61 75 167 75t179 -96q23 -29 70 -129q57 127 113 176t148 49q93 0 155 -75q61 -76 61 -201t-61 -201t-155 -76q-94 -1 -148 49q-56 50 -113 175q-49 -104 -80 -142q-70 -82 -172 -82z" />
    <glyph glyph-name="integral" unicode="&#x222b;" horiz-adv-x="1064" 
d="M547 1333q0 160 33 222t114 63q33 0 60 -8l-11 -58q-25 8 -43 9q-51 -1 -71 -51t-21 -173v-1259q0 -158 -33 -221t-114 -64q-35 0 -60 8l11 58q23 -8 45 -9q51 0 70 52t20 180v1251z" />
    <glyph glyph-name="similar" unicode="&#x223c;" 
d="M603 709q60 0 120 147l41 -14q-45 -104 -86 -148t-88 -43q-48 1 -68 15t-72 80t-92 65q-68 0 -129 -152l-43 15q82 195 185 194q37 0 63 -16t64 -66q39 -50 57 -64q18 -13 48 -13z" />
    <glyph glyph-name="uni2243" unicode="&#x2243;" 
d="M613 774q-48 0 -68 14q-21 14 -73 80t-91 66q-68 0 -129 -152l-43 15q80 195 184 194q37 0 63 -17q26 -16 64 -66t58 -63q18 -13 45 -14q63 0 122 148l41 -14q-77 -191 -173 -191zM174 629l10 57h559l-10 -57h-559z" />
    <glyph glyph-name="approxequal" unicode="&#x2248;" 
d="M613 774q-48 0 -68 14q-21 14 -61 66t-59 66t-44 14q-68 0 -129 -152l-43 15q84 195 186 194q35 0 62 -17q27 -18 65 -66t56 -62q20 -14 45 -15q63 0 122 148l41 -14q-77 -191 -173 -191zM583 586q58 0 119 147l41 -14q-45 -107 -86 -149t-88 -42t-67 14t-72 80t-92 66
q-68 1 -129 -151l-43 14q82 195 184 194q37 0 63 -16q27 -17 65 -67t56 -63t49 -13z" />
    <glyph glyph-name="notequal" unicode="&#x2260;" 
d="M174 629l10 57h230l67 148h-270l10 57h287l131 280l49 -16l-123 -264h215l-10 -57h-231l-68 -148h272l-10 -57h-289l-129 -281l-49 17l121 264h-213z" />
    <glyph glyph-name="lessequal" unicode="&#x2264;" 
d="M92 164l10 57h514l-10 -57h-514zM231 756l426 -305l-12 -62l-489 359l4 24l616 358l-12 -69z" />
    <glyph glyph-name="greaterequal" unicode="&#x2265;" 
d="M137 164l10 57h515l-11 -57h-514zM723 764l-426 305l10 61l490 -358l-4 -24l-617 -359l12 70z" />
    <glyph glyph-name="dotmath" unicode="&#x22c5;" horiz-adv-x="337" 
d="M172 690l25 139h61l-25 -139h-61z" />
    <glyph glyph-name="filledrect" unicode="&#x25ac;" 
d="M137 467v586h586v-586h-586z" />
    <glyph glyph-name="uni25B4" unicode="&#x25b4;" 
d="M78 457l352 704l352 -704h-704z" />
    <glyph glyph-name="uni25B8" unicode="&#x25b8;" 
d="M137 408v704l705 -352z" />
    <glyph glyph-name="uni25BE" unicode="&#x25be;" 
d="M78 1061h704l-352 -705z" />
    <glyph glyph-name="uni25C2" unicode="&#x25c2;" 
d="M725 408l-705 352l705 352v-704z" />
    <glyph glyph-name="lozenge" unicode="&#x25ca;" 
d="M145 705l285 -631l285 631l-285 630zM80 705l350 755l348 -755l-348 -756z" />
    <glyph glyph-name="openbullet" unicode="&#x25e6;" 
d="M430 1008q-112 0 -186 -71t-74 -177t74 -178q74 -70 186 -70t184 71q74 71 74 177t-74 177t-184 71zM430 1065q133 0 224 -87t91 -218t-91 -218t-226 -87t-225 88t-90 218t92 217t225 87z" />
    <glyph glyph-name="commaaccent" unicode="&#xf6c3;" horiz-adv-x="1024" 
d="M285 -422l112 266h78l-145 -266h-45z" />
    <glyph glyph-name="Acute" unicode="&#xf6c9;" horiz-adv-x="1024" 
d="M666 1638l135 267h80l-168 -267h-47z" />
    <glyph glyph-name="Caron" unicode="&#xf6ca;" horiz-adv-x="1024" 
d="M723 1718l123 172h76l-191 -237h-33l-106 237h70z" />
    <glyph glyph-name="Dieresis" unicode="&#xf6cb;" horiz-adv-x="1024" 
d="M805 1661l29 168h57l-29 -168h-57zM571 1661l29 168h57l-28 -168h-58z" />
    <glyph glyph-name="Grave" unicode="&#xf6ce;" horiz-adv-x="1024" 
d="M762 1638h-41l-80 267h78z" />
    <glyph glyph-name="Hungarumlaut" unicode="&#xf6cf;" horiz-adv-x="1024" 
d="M756 1638l116 267h74l-145 -267h-45zM614 1638l117 267h74l-146 -267h-45z" />
    <glyph glyph-name="Macron" unicode="&#xf6d0;" horiz-adv-x="1024" 
d="M592 1743l8 49h279l-9 -49h-278z" />
    <glyph glyph-name="zerooldstyle" unicode="&#xf730;" horiz-adv-x="841" 
d="M692 840q0 184 -186 184q-113 0 -174 -69t-88 -228l-68 -379q-14 -88 -14 -127q0 -180 188 -180q113 -1 173 69t89 232l68 381q12 84 12 117zM754 848q0 -55 -15 -135l-71 -408q-57 -322 -318 -321q-114 0 -182 63t-68 170q1 35 17 139l71 400q55 326 316 325
q114 0 182 -63t68 -170z" />
    <glyph glyph-name="oneoldstyle" unicode="&#xf731;" horiz-adv-x="499" 
d="M141 0l176 995l-208 -118l-21 49l256 139h47l-188 -1065h-62z" />
    <glyph glyph-name="twooldstyle" unicode="&#xf732;" horiz-adv-x="694" 
d="M406 1081q233 0 233 -240q0 -118 -57 -217t-211 -249l-324 -318h453l-11 -57h-534l8 47l369 367q141 139 192 230q51 90 51 192t-40 145q-41 43 -138 43t-155 -65t-84 -211h-58q25 137 66 204q80 129 240 129z" />
    <glyph glyph-name="threeoldstyle" unicode="&#xf733;" horiz-adv-x="714" 
d="M317 455q117 -1 199 107t82 259q0 203 -164 203t-219 -217h-55q51 274 280 274q106 0 164 -66q58 -67 58 -200t-65 -241t-175 -146q154 -57 153 -278q0 -182 -83 -318q-98 -162 -285 -162q-111 0 -172 51t-62 146q0 41 11 113h57q-6 -61 -6 -86q0 -166 174 -166
q156 0 242 157q61 117 61 247t-54 198t-147 67h-104l10 58h100z" />
    <glyph glyph-name="fouroldstyle" unicode="&#xf734;" horiz-adv-x="737" 
d="M362 -315l56 315h-467l8 45l535 1020h65l-528 -1008h397l96 543h62l-97 -543h125l-10 -57h-125l-55 -315h-62z" />
    <glyph glyph-name="fiveoldstyle" unicode="&#xf735;" horiz-adv-x="808" 
d="M608 246q0 -236 -93 -406t-284 -170q-113 0 -176 54t-63 145q0 39 10 111h57q-6 -59 -6 -84q0 -168 174 -168q162 0 248 174q70 143 70 342q0 223 -168 223q-98 0 -219 -98l-41 10l170 686h442l-10 -57h-389l-137 -551q89 67 195 67t163 -72t57 -206z" />
    <glyph glyph-name="sixoldstyle" unicode="&#xf736;" horiz-adv-x="811" 
d="M477 819q-143 0 -217 -151q-45 -90 -73 -212t-27 -220q0 -195 174 -195q160 0 225 168q29 74 54 208q26 134 26 219t-43 134t-119 49zM497 877q89 -1 147 -63t58 -162t-26 -241q-26 -139 -60 -229t-110 -144t-182 -54t-166 64q-61 64 -62 185q0 182 72 377q29 74 90 183
l365 628h69l-340 -581q57 37 145 37z" />
    <glyph glyph-name="sevenoldstyle" unicode="&#xf737;" horiz-adv-x="522" 
d="M-88 -315l567 1323h-438l10 57h506l-8 -39l-563 -1341h-74z" />
    <glyph glyph-name="eightoldstyle" unicode="&#xf738;" horiz-adv-x="827" 
d="M457 721q-156 0 -226 -109q-35 -53 -63 -178t-29 -213q0 -88 52 -134t147 -46q152 0 217 109q33 55 61 180q29 125 29 212t-50 133t-138 46zM565 1380q-145 0 -198 -114q-25 -52 -47 -158t-21 -178q0 -152 157 -152t212 127q25 55 44 155t19 171q0 69 -43 109t-123 40z
M236 924q0 98 27 220q28 122 62 176t97 86q62 32 156 32t155 -54t62 -151q0 -133 -47 -289t-166 -199q127 -41 127 -196q0 -107 -31 -239t-70 -193q-82 -133 -270 -133q-125 0 -194 60t-68 169q0 63 18 172t41 170q58 164 201 203q-100 43 -100 166z" />
    <glyph glyph-name="nineoldstyle" unicode="&#xf739;" horiz-adv-x="808" 
d="M496 1024q-166 0 -234 -168q-28 -76 -54 -209t-26 -218t43 -134t121 -49q141 0 215 151q45 90 73 212t28 218q0 97 -43 147t-123 50zM324 188q-88 0 -146 62t-59 162q0 100 26 240q27 140 61 230t109 145q75 54 181 54t168 -65q61 -66 61 -187q0 -289 -162 -557
l-356 -587h-70l332 540q-57 -37 -145 -37z" />
    <glyph glyph-name="Dbreve" horiz-adv-x="880" 
d="M506 1788q0 -88 72 -88q52 0 80 39t47 137h55q-18 -100 -39 -143q-45 -90 -143 -91q-61 0 -96 31q-34 31 -34 80t13 123h53q-8 -51 -8 -88zM582 1405h-197l-238 -1348h197q129 -2 209 83t106 253l119 676q14 88 15 125q0 211 -211 211zM588 1462q266 0 266 -260
q0 -53 -14 -133l-123 -698q-29 -181 -123 -277t-240 -94h-278l258 1462h254z" />
    <glyph glyph-name="ahungarumlaut" horiz-adv-x="694" 
d="M514 1196l117 266h74l-146 -266h-45zM373 1196l116 266h74l-145 -266h-45zM338 500q-252 0 -252 -328q0 -70 36 -100t128 -31q92 0 137 51t70 191l39 217h-158zM404 963q-157 0 -203 -269h-58q25 147 70 217q70 109 203 109q186 0 186 -197q0 -70 -16 -159l-117 -664h-51
l8 72q-35 -48 -77 -68t-116 -20q-211 0 -210 180q0 76 20 157t53 128q72 109 246 108h164l20 123q33 191 -15 248q-29 35 -107 35z" />
    <glyph glyph-name="uni0204.sc" horiz-adv-x="622" 
d="M440 1241h-45l-51 266h74zM582 1241h-45l-52 266h74zM63 0l189 1069h393l-10 -57h-332l-78 -447h283l-10 -57h-283l-80 -451h332l-10 -57h-394z" />
    <glyph glyph-name="uni0206.sc" horiz-adv-x="622" 
d="M590 1350q0 88 -72 88q-51 0 -80 -39t-49 -137h-53q18 100 39 143q43 90 143 90q61 0 95 -31q34 -32 34 -80t-12 -122h-53q8 51 8 88zM63 0l189 1069h393l-10 -57h-332l-78 -447h283l-10 -57h-283l-80 -451h332l-10 -57h-394z" />
    <glyph glyph-name="uni0208.sc" horiz-adv-x="364" 
d="M268 1241h-45l-51 266h74zM410 1241h-45l-52 266h74zM63 0l189 1065h61l-188 -1065h-62z" />
    <glyph glyph-name="uni020A.sc" horiz-adv-x="364" 
d="M420 1350q0 88 -72 88q-51 0 -80 -39t-49 -137h-53q18 100 39 143q43 90 143 90q61 0 95 -31q34 -32 34 -80t-12 -122h-53q8 51 8 88zM63 0l189 1065h61l-188 -1065h-62z" />
    <glyph glyph-name="uni020C.sc" horiz-adv-x="735" 
d="M455 1241h-45l-52 266h74zM596 1241h-45l-51 266h73zM606 870q0 154 -151 154q-91 0 -141 -57t-74 -191l-86 -487q-10 -63 -11 -94q0 -154 154 -154q88 -1 138 57t75 191l84 487q12 59 12 94zM82 190q0 42 12 103l88 504q52 285 264 285q106 0 164 -55q57 -54 58 -150
q0 -29 -13 -105l-88 -504q-53 -284 -265 -284q-107 0 -164 54q-56 54 -56 152z" />
    <glyph glyph-name="uni020E.sc" horiz-adv-x="735" 
d="M606 1350q0 88 -71 88q-51 0 -80 -39t-49 -137h-54q18 100 39 143q43 90 144 90q61 0 95 -31q34 -32 34 -80t-13 -122h-53q8 51 8 88zM606 870q0 154 -151 154q-91 0 -141 -57t-74 -191l-86 -487q-10 -63 -11 -94q0 -154 154 -154q88 -1 138 57t75 191l84 487
q12 59 12 94zM82 190q0 42 12 103l88 504q52 285 264 285q106 0 164 -55q57 -54 58 -150q0 -29 -13 -105l-88 -504q-53 -284 -265 -284q-107 0 -164 54q-56 54 -56 152z" />
    <glyph glyph-name="uni0210.sc" horiz-adv-x="718" 
d="M426 1241h-45l-51 266h73zM567 1241h-45l-51 266h74zM334 539q78 0 120 18t74 68q66 92 66 231q0 84 -40 120t-132 36h-117l-84 -473h113zM422 1069q236 0 235 -215q0 -136 -60 -236t-161 -126l82 -492h-61l-74 481h-172l-84 -481h-61l188 1069h168z" />
    <glyph glyph-name="uni0212.sc" horiz-adv-x="718" 
d="M563 1350q0 88 -71 88q-51 0 -80 -39t-50 -137h-53q18 100 39 143q43 90 144 90q61 0 95 -31q33 -32 33 -80t-12 -122h-53q8 51 8 88zM334 539q78 0 120 18t74 68q66 92 66 231q0 84 -40 120t-132 36h-117l-84 -473h113zM422 1069q236 0 235 -215q0 -136 -60 -236
t-161 -126l82 -492h-61l-74 481h-172l-84 -481h-61l188 1069h168z" />
    <glyph glyph-name="uni0214.sc" horiz-adv-x="757" 
d="M465 1241h-45l-51 266h73zM606 1241h-45l-51 266h74zM158 168q0 -127 145 -127q104 0 160 80q29 43 45 139l141 805h62l-144 -817q-20 -127 -69 -182q-74 -82 -184 -82t-163 47q-54 47 -55 131q0 37 19 141l133 762h61l-135 -776q-16 -82 -16 -121z" />
    <glyph glyph-name="uni0216.sc" horiz-adv-x="757" 
d="M616 1350q0 88 -71 88q-51 0 -80 -39t-49 -137h-54q18 100 39 143q43 90 144 90q61 0 95 -31q34 -32 34 -80t-12 -122h-54q8 51 8 88zM158 168q0 -127 145 -127q104 0 160 80q29 43 45 139l141 805h62l-144 -817q-20 -127 -69 -182q-74 -82 -184 -82t-163 47
q-54 47 -55 131q0 37 19 141l133 762h61l-135 -776q-16 -82 -16 -121z" />
    <glyph glyph-name="uni1E24.sc" horiz-adv-x="749" 
d="M190 -367l29 168h62l-29 -168h-62zM63 0l189 1065h61l-88 -500h324l88 500h61l-188 -1065h-61l90 508h-324l-90 -508h-62z" />
    <glyph glyph-name="uni1E5A.sc" horiz-adv-x="718" 
d="M174 -367l29 168h61l-28 -168h-62zM334 539q78 0 120 18t74 68q66 92 66 231q0 84 -40 120t-132 36h-117l-84 -473h113zM422 1069q236 0 235 -215q0 -136 -60 -236t-161 -126l82 -492h-61l-74 481h-172l-84 -481h-61l188 1069h168z" />
    <glyph glyph-name="uni1E62.sc" horiz-adv-x="628" 
d="M129 -367l29 168h61l-29 -168h-61zM90 182q0 -141 141 -141q121 0 172 127q37 92 37 190t-60 136q-13 8 -81 34q-150 63 -149 220q0 129 59 225q63 109 182 108q86 0 137 -51t52 -137q0 -37 -11 -94h-55q8 57 8 90q0 135 -129 135q-94 0 -137 -91t-43 -169t30 -116
q31 -40 113 -76t115 -79q33 -44 33 -153t-53 -219q-70 -137 -213 -137q-94 0 -150 49q-55 49 -55 133q0 43 12 121h55q-10 -63 -10 -105z" />
    <glyph glyph-name="uni1E6C.sc" horiz-adv-x="497" 
d="M63 -367l29 168h62l-29 -168h-62zM133 0l178 1012h-194l10 57h444l-10 -57h-188l-178 -1012h-62z" />
    <glyph glyph-name="uni1E92.sc" horiz-adv-x="569" 
d="M100 -367l29 168h61l-28 -168h-62zM-16 0l6 39l508 973h-314l11 57h378l-6 -39l-508 -973h351l-11 -57h-415z" />
    </font>
</defs>
</svg>
