<?xml version="1.0" encoding="UTF-8"?>
<svg xmlns="http://www.w3.org/2000/svg" xmlns:xlink="http://www.w3.org/1999/xlink" version="1.2" >
<font id="Bodoni URW Medium">
<font-face  font-family="Bodoni URW" units-per-em="1000" ascent="678" descent="-322" font-style="normal" font-weight="500" font-stretch="normal" cap-height="667" x-height="393" underline-position="-91" underline-thickness="69" />
<missing-glyph  horiz-adv-x="250" d="" />
<glyph glyph-name="NULL" d="" />
<glyph glyph-name="CR" unicode="&#xd;" horiz-adv-x="250" d="" />
<glyph glyph-name="space" unicode="&#x20;" horiz-adv-x="250" d="" />
<glyph glyph-name="exclam" unicode="&#x21;" horiz-adv-x="289" d="M146 228 L157 228 C158 339 167 392 212 545 C221 574 223 584 223 598 C223 646 191 679 146 679 C100 679 68 646 68 598 C68 584 70 574 79 545 C124 391 133 340 134 228 L146 228 Z M144 146 C102 146 67 112 67 70 C67 27 101 -7 144 -7 C186 -7 220 27 220 70 C220 112 186 146 144 146 L144 146 Z " />
<glyph glyph-name="quotedbl" unicode="&#x22;" horiz-adv-x="291" d="M64 413 L92 413 L119 567 C122 582 124 602 124 612 C124 650 105 677 77 677 C52 677 33 650 33 612 C33 603 35 576 37 567 L64 413 Z M198 413 L226 413 L253 567 C255 576 257 603 257 612 C257 651 238 677 211 677 C185 677 167 650 167 612 C167 602 169 575 171 567 L198 413 Z " />
<glyph glyph-name="numbersign" unicode="&#x23;" horiz-adv-x="500" d="M226 444 L254 647 L147 647 L119 444 L36 444 L36 414 L114 414 L90 241 L7 241 L7 211 L86 211 L56 0 L163 0 L193 211 L274 211 L244 0 L351 0 L381 211 L464 211 L463 241 L385 241 L410 414 L493 414 L492 444 L414 444 L442 647 L335 647 L307 444 L226 444 Z M222 414 L302 414 L278 241 L197 241 L222 414 Z " />
<glyph glyph-name="dollar" unicode="&#x24;" horiz-adv-x="500" d="M222 -99 L259 -99 L259 0 C381 8 461 93 461 213 C461 284 427 350 378 379 C355 391 318 405 259 421 L259 637 C325 624 371 566 382 479 L407 479 L407 650 L382 650 L355 621 C322 645 294 657 259 664 L259 747 L222 747 L222 666 C111 661 33 579 33 467 C33 421 48 378 76 348 C99 323 119 312 172 295 C189 289 206 284 222 278 L222 27 C141 39 78 103 60 192 L35 192 L35 16 L60 16 L91 56 C134 25 175 8 222 2 L222 -99 Z M222 432 L215 434 C136 458 109 484 109 536 C109 594 155 638 222 641 L222 432 Z M259 267 L270 263 C306 252 323 245 338 234 C364 215 380 183 380 147 C380 84 330 33 259 26 L259 267 Z " />
<glyph glyph-name="percent" unicode="&#x25;" horiz-adv-x="716" d="M169 650 C91 650 27 574 27 483 C27 392 91 316 169 316 C245 316 310 392 310 481 C310 574 247 650 169 650 L169 650 Z M169 628 C188 628 202 617 208 598 C214 575 218 530 218 484 C218 440 214 392 208 368 C203 349 189 338 168 338 C149 338 136 348 130 368 C123 391 119 436 119 483 C119 530 123 575 130 598 C136 618 149 628 169 628 L169 628 Z M521 643 L483 643 L195 0 L233 0 L521 643 Z M548 327 C470 327 406 251 406 161 C406 70 470 -6 548 -6 C624 -6 689 70 689 159 C689 251 626 327 548 327 L548 327 Z M548 305 C567 305 581 294 587 275 C593 252 597 207 597 161 C597 118 593 69 587 46 C582 27 568 16 547 16 C528 16 515 26 509 46 C502 69 498 113 498 160 C498 208 502 252 509 275 C515 295 528 305 548 305 L548 305 Z " />
<glyph glyph-name="ampersand" unicode="&#x26;" horiz-adv-x="627" d="M328 336 C423 376 453 405 453 454 C453 515 392 557 305 557 C221 557 157 502 157 429 C157 395 168 368 203 310 C94 271 32 204 32 125 C32 43 104 -18 201 -18 C263 -18 325 7 373 50 L405 0 L603 0 L603 25 L534 25 L460 140 C483 175 507 222 519 254 C535 302 545 311 586 310 L608 310 L608 336 L417 336 L417 310 L466 310 C496 310 502 307 502 291 C502 264 483 218 447 161 L328 336 Z M270 428 C247 464 245 468 245 486 C245 515 272 537 307 537 C348 537 371 507 371 455 C371 404 352 371 315 360 L270 428 Z M361 69 C334 44 304 30 275 30 C243 30 215 49 192 88 C161 138 144 184 144 216 C144 254 166 278 217 293 L361 69 Z " />
<glyph glyph-name="quotesingle" unicode="&#x27;" horiz-adv-x="157" d="M64 413 L92 413 L119 567 C122 582 124 602 124 612 C124 650 105 677 77 677 C52 677 33 650 33 612 C33 603 35 576 37 567 L64 413 Z " />
<glyph glyph-name="parenleft" unicode="&#x28;" horiz-adv-x="299" d="M274 -173 C191 -51 156 67 156 233 C156 314 167 393 191 479 C213 558 231 598 274 661 L257 677 C105 546 32 405 32 244 C32 89 107 -56 257 -190 L274 -173 Z " />
<glyph glyph-name="parenright" unicode="&#x29;" horiz-adv-x="299" d="M25 661 C110 535 144 418 144 258 C144 177 133 98 108 9 C88 -67 69 -108 25 -173 L43 -190 C113 -127 150 -86 186 -29 C239 55 268 152 268 245 C268 330 244 413 194 499 C156 565 118 610 43 677 L25 661 Z " />
<glyph glyph-name="asterisk" unicode="&#x2a;" horiz-adv-x="500" d="M239 502 C144 561 119 574 102 574 C80 574 63 556 63 532 C63 496 86 489 232 480 C134 397 119 381 119 360 C119 339 138 320 160 320 C179 320 192 332 205 361 C222 397 236 431 250 466 C305 333 313 320 341 320 C362 320 382 339 382 360 C382 381 357 407 269 480 C340 485 377 489 394 492 C423 498 437 510 437 533 C437 555 420 574 399 574 C382 574 345 555 262 502 C284 592 290 622 290 641 C290 664 273 680 250 680 C227 680 210 664 210 641 C210 622 221 570 239 502 L239 502 Z " />
<glyph glyph-name="plus" unicode="&#x2b;" horiz-adv-x="500" d="M233 307 L233 128 L266 128 L266 307 L455 307 L455 340 L266 340 L266 519 L233 519 L233 340 L44 340 L44 307 L233 307 Z " />
<glyph glyph-name="comma" unicode="&#x2c;" horiz-adv-x="260" d="M105 -172 C188 -104 222 -47 222 24 C222 93 176 147 118 147 C74 147 38 113 38 70 C38 29 70 -5 110 -5 C137 -5 159 9 173 35 C177 20 179 12 179 -1 C179 -54 145 -110 89 -151 L105 -172 Z " />
<glyph glyph-name="hyphen" unicode="&#x2d;" horiz-adv-x="215" d="M0 250 L0 167 L215 167 L215 250 L0 250 Z " />
<glyph glyph-name="period" unicode="&#x2e;" horiz-adv-x="260" d="M130 146 C88 146 53 112 53 70 C53 27 87 -7 130 -7 C172 -7 206 27 206 70 C206 112 172 146 130 146 L130 146 Z " />
<glyph glyph-name="slash" unicode="&#x2f;" horiz-adv-x="439" d="M410 667 L314 667 L-46 -180 L50 -180 L410 667 Z " />
<glyph glyph-name="zero" unicode="0" horiz-adv-x="500" d="M250 654 C132 654 34 503 34 322 C34 141 132 -10 250 -10 C366 -10 466 141 466 318 C466 503 369 654 250 654 L250 654 Z M250 627 C284 627 309 602 317 560 C327 507 333 412 333 319 C333 233 326 133 317 84 C309 42 284 17 250 17 C216 17 191 42 183 84 C174 134 167 233 167 322 C167 411 174 510 183 560 C191 602 216 627 250 627 L250 627 Z " />
<glyph glyph-name="one" unicode="1" horiz-adv-x="500" d="M201 25 L96 25 L96 0 L438 0 L438 25 L333 25 L333 662 C298 652 230 644 181 644 L121 644 L96 644 L96 616 L201 616 L201 25 Z " />
<glyph glyph-name="two" unicode="2" horiz-adv-x="500" d="M443 208 L417 208 C412 114 411 113 361 113 L109 113 C135 134 135 134 174 163 C271 235 286 248 326 286 C404 362 439 423 439 482 C439 580 357 654 250 654 C136 654 46 576 46 476 C46 422 77 383 120 383 C153 383 180 411 180 446 C180 482 150 510 112 510 L105 510 C100 509 97 509 95 509 C88 509 84 514 84 521 C84 532 92 549 106 566 C129 595 159 611 191 611 C257 611 300 552 300 461 C300 385 279 336 216 259 C172 205 118 152 30 76 L30 0 L432 0 L443 208 Z " />
<glyph glyph-name="three" unicode="3" horiz-adv-x="500" d="M118 334 C137 335 146 335 156 335 C261 335 305 292 305 189 C305 77 266 18 191 18 C152 18 116 35 116 53 C116 59 118 61 127 67 C150 81 163 104 163 129 C163 167 135 197 99 197 C65 197 37 165 37 126 C37 49 113 -10 214 -10 C344 -10 448 77 448 185 C448 283 368 347 241 350 C350 372 414 433 414 514 C414 597 339 654 229 654 C134 654 65 605 65 537 C65 498 90 468 121 468 C156 468 179 491 179 524 C179 550 166 575 148 587 C141 591 139 593 139 598 C139 613 176 629 210 629 C259 629 283 590 283 510 C283 405 246 363 151 363 C146 363 132 364 118 365 L118 334 Z " />
<glyph glyph-name="four" unicode="4" horiz-adv-x="500" d="M240 170 L240 25 L166 25 L166 0 L440 0 L440 25 L367 25 L367 170 L416 170 C451 172 460 164 459 128 L459 96 L486 96 L486 267 L459 267 L459 246 C460 207 453 199 416 200 L367 200 L367 643 L292 643 L14 200 L14 170 L240 170 Z M240 200 L47 200 L240 508 L240 200 Z " />
<glyph glyph-name="five" unicode="5" horiz-adv-x="500" d="M121 528 L333 528 C375 527 387 535 404 573 C416 602 423 637 422 674 L395 674 C393 651 382 642 357 643 L152 643 C109 644 96 631 95 584 L81 350 L109 334 C141 354 169 364 197 364 C265 364 319 284 319 183 C319 86 268 14 200 14 C166 14 118 35 118 50 C118 54 121 58 126 61 C157 76 170 96 170 126 C170 164 141 195 104 195 C66 195 38 161 38 117 C38 45 112 -10 208 -10 C271 -10 339 14 386 53 C428 88 451 140 451 197 C451 313 354 397 222 397 C178 397 144 389 109 370 L121 528 Z " />
<glyph glyph-name="six" unicode="6" horiz-adv-x="500" d="M406 671 C311 671 244 641 170 567 C86 482 42 381 42 275 C42 117 139 -10 260 -10 C372 -10 465 98 465 228 C465 338 389 425 293 425 C253 425 215 407 186 374 C195 521 285 631 406 645 L406 671 Z M274 392 C299 392 318 379 328 354 C338 327 344 272 344 212 C344 71 320 17 258 17 C197 17 172 72 172 208 C172 280 181 327 201 354 C218 377 246 392 274 392 L274 392 Z " />
<glyph glyph-name="seven" unicode="7" horiz-adv-x="500" d="M61 431 L91 431 L103 471 C118 524 125 530 181 530 L402 530 C263 284 197 136 197 64 C197 17 224 -16 263 -16 C300 -16 326 17 326 65 C326 75 325 95 324 118 C321 163 321 163 321 182 C321 284 353 377 460 583 C475 612 476 615 476 622 C476 639 468 643 430 643 L118 643 L61 431 Z " />
<glyph glyph-name="eight" unicode="8" horiz-adv-x="500" d="M315 336 C405 371 452 425 452 494 C452 583 362 654 251 654 C139 654 49 583 49 494 C49 425 96 371 186 336 C90 309 27 241 27 165 C27 67 126 -10 251 -10 C375 -10 474 67 474 165 C474 241 412 309 315 336 L315 336 Z M251 627 C275 627 294 616 306 595 C316 576 320 544 320 480 C320 379 305 350 251 350 C197 350 182 379 182 482 C182 538 186 571 194 590 C204 614 225 627 251 627 L251 627 Z M253 321 C278 321 300 310 314 291 C331 268 337 232 337 161 C337 58 313 17 253 17 C192 17 168 58 168 163 C168 226 173 262 187 284 C200 308 224 321 253 321 L253 321 Z " />
<glyph glyph-name="nine" unicode="9" horiz-adv-x="500" d="M77 -43 C171 -40 242 -11 311 53 C402 136 460 259 460 366 C460 523 357 654 234 654 C129 654 31 543 31 425 C31 312 113 218 210 218 C251 218 284 232 317 264 C297 94 223 8 77 -17 L77 -43 Z M242 627 C272 627 296 610 309 580 C320 554 325 503 325 422 C325 355 318 316 302 290 C287 266 262 252 234 252 C178 252 156 304 156 440 C156 512 162 564 173 586 C186 611 212 627 242 627 L242 627 Z " />
<glyph glyph-name="colon" unicode="&#x3a;" horiz-adv-x="260" d="M130 146 C88 146 53 112 53 70 C53 27 87 -7 130 -7 C172 -7 206 27 206 70 C206 112 172 146 130 146 L130 146 Z M130 399 C88 399 53 365 53 323 C53 280 87 246 130 246 C172 246 206 280 206 323 C206 365 172 399 130 399 L130 399 Z " />
<glyph glyph-name="semicolon" unicode="&#x3b;" horiz-adv-x="260" d="M116 399 C74 399 39 365 39 323 C39 280 73 246 116 246 C158 246 192 280 192 323 C192 365 158 399 116 399 L116 399 Z M105 -172 C188 -104 222 -48 222 24 C222 93 176 147 117 147 C74 147 38 113 38 71 C38 29 71 -5 110 -5 C137 -5 159 9 173 35 C178 21 179 12 179 -1 C179 -54 146 -109 89 -151 L105 -172 Z " />
<glyph glyph-name="less" unicode="&#x3c;" horiz-adv-x="500" d="M456 607 L44 340 L44 334 L456 61 L456 140 L125 360 L456 577 L456 607 Z " />
<glyph glyph-name="equal" unicode="&#x3d;" horiz-adv-x="500" d="M44 280 L44 247 L455 247 L455 280 L44 280 Z M44 400 L44 367 L455 367 L455 400 L44 400 Z " />
<glyph glyph-name="greater" unicode="&#x3e;" horiz-adv-x="500" d="M44 61 L456 328 L456 333 L44 607 L44 527 L374 307 L44 91 L44 61 Z " />
<glyph glyph-name="question" unicode="&#x3f;" horiz-adv-x="394" d="M160 205 C157 217 156 223 156 230 C156 263 178 293 226 322 C318 379 362 441 362 516 C362 607 288 679 194 679 C110 679 29 615 29 548 C29 513 52 488 85 488 C120 488 146 511 146 541 C146 567 133 583 101 597 C88 604 87 604 87 607 C87 610 89 614 94 618 C118 640 150 652 184 652 C238 652 278 618 278 572 C278 544 267 526 231 494 C155 428 122 369 122 299 C122 269 128 237 140 205 L160 205 Z M156 146 C114 146 79 112 79 70 C79 27 113 -7 156 -7 C198 -7 232 27 232 70 C232 112 198 146 156 146 L156 146 Z " />
<glyph glyph-name="at" unicode="&#x40;" horiz-adv-x="761" d="M474 494 L464 447 C449 488 426 505 386 505 C284 505 190 399 190 285 C190 203 235 148 301 148 C348 148 381 171 417 227 C422 167 440 148 490 148 C526 148 561 160 596 184 C666 233 704 306 704 391 C704 548 569 671 396 671 C207 671 53 516 53 325 C53 135 201 -13 390 -13 C448 -13 509 2 552 26 C583 42 601 58 631 93 L578 93 C530 50 466 27 390 27 C226 27 96 159 96 325 C96 494 229 630 396 630 C542 630 661 522 661 390 C661 332 640 275 605 235 C579 207 546 187 524 187 C517 187 514 191 514 199 C514 203 514 206 515 209 L576 494 L474 494 Z M394 483 C425 483 452 442 450 398 C448 354 428 288 404 247 C380 203 341 173 310 173 C294 173 286 182 286 201 C286 231 298 288 319 359 C347 454 364 483 394 483 L394 483 Z " />
<glyph glyph-name="A" unicode="A" horiz-adv-x="627" d="M367 179 L421 25 L335 25 L335 0 L634 0 L634 25 L563 25 L335 667 L304 667 L94 82 C78 31 70 24 25 25 L-10 25 L-10 0 L197 0 L197 25 L143 25 C118 25 110 28 110 40 C110 45 112 51 118 67 L157 179 L367 179 Z M357 204 L167 204 L262 469 L357 204 Z " />
<glyph glyph-name="B" unicode="B" horiz-adv-x="653" d="M110 25 L30 25 L30 0 L325 0 C380 0 422 2 442 4 C482 10 521 24 546 43 C589 74 613 122 613 176 C613 239 581 289 520 321 C488 338 462 344 410 348 C514 359 582 421 582 506 C582 578 534 634 452 657 C421 666 403 667 311 667 L30 667 L30 642 L110 642 L110 25 Z M250 358 L250 642 L311 642 C368 642 391 637 409 618 C430 598 439 561 439 502 C439 393 408 358 314 358 L250 358 Z M250 25 L250 333 L314 333 C380 333 395 330 417 311 C445 288 458 247 458 181 C458 119 447 78 423 51 C402 29 387 25 325 25 L250 25 Z " />
<glyph glyph-name="C" unicode="C" horiz-adv-x="619" d="M561 667 L534 667 L516 626 C475 665 425 684 361 684 C183 684 38 521 38 321 C38 209 81 113 159 51 C214 8 286 -17 357 -17 C421 -17 463 1 513 48 L540 0 L567 0 L576 186 L549 186 C515 74 445 10 356 10 C282 10 236 49 216 130 C207 166 205 200 205 299 C205 481 212 541 240 586 C268 634 311 657 371 657 C461 657 517 603 542 493 L568 493 L561 667 Z " />
<glyph glyph-name="D" unicode="D" horiz-adv-x="712" d="M110 25 L30 25 L30 0 L342 0 C400 0 428 1 445 3 C485 9 524 26 557 52 C632 113 674 213 674 332 C674 485 601 612 490 652 C455 664 430 667 342 667 L30 667 L30 642 L110 642 L110 25 Z M250 25 L250 642 L342 642 C412 642 443 628 468 587 C498 536 507 477 507 334 C507 190 498 131 468 80 C443 39 412 25 342 25 L250 25 Z " />
<glyph glyph-name="E" unicode="E" horiz-adv-x="627" d="M110 25 L30 25 L30 0 L578 0 L592 212 L565 212 C533 64 484 23 343 25 L250 25 L250 326 L276 326 C368 325 395 296 398 197 L425 197 L425 469 L398 469 C399 384 364 349 278 351 L250 351 L250 642 L367 642 C477 646 521 609 545 497 L571 497 L556 667 L30 667 L30 642 L110 642 L110 25 Z " />
<glyph glyph-name="F" unicode="F" horiz-adv-x="569" d="M103 25 L23 25 L23 0 L345 0 L345 25 L243 25 L243 326 L282 326 C374 325 401 296 404 197 L431 197 L431 469 L404 469 C405 384 370 349 284 351 L243 351 L243 642 L345 642 C450 649 513 592 535 474 L562 474 L552 667 L23 667 L23 642 L103 642 L103 25 Z " />
<glyph glyph-name="G" unicode="G" horiz-adv-x="662" d="M566 667 L539 667 L509 635 C461 668 409 684 353 684 C281 684 207 654 149 602 C74 534 35 440 35 326 C35 127 160 -17 334 -17 C393 -17 461 4 512 37 C539 55 559 72 594 109 L594 224 L654 224 L654 249 L354 249 L354 224 L454 224 L454 109 C454 52 402 10 332 10 C307 10 282 15 264 25 C232 41 218 65 211 116 C207 149 202 268 202 350 C202 489 211 559 232 596 C254 635 301 657 359 657 C414 657 465 636 493 602 C517 572 529 540 539 480 L566 480 L566 667 Z " />
<glyph glyph-name="H" unicode="H" horiz-adv-x="733" d="M110 25 L30 25 L30 0 L340 0 L340 25 L250 25 L250 330 L483 330 L483 25 L393 25 L393 0 L703 0 L703 25 L623 25 L623 642 L703 642 L703 667 L393 667 L393 642 L483 642 L483 355 L250 355 L250 642 L340 642 L340 667 L30 667 L30 642 L110 642 L110 25 Z " />
<glyph glyph-name="I" unicode="I" horiz-adv-x="360" d="M110 25 L30 25 L30 0 L330 0 L330 25 L250 25 L250 642 L330 642 L330 667 L30 667 L30 642 L110 642 L110 25 Z " />
<glyph glyph-name="J" unicode="J" horiz-adv-x="446" d="M206 642 L206 54 C206 -4 202 -26 189 -46 C176 -65 160 -76 145 -76 C130 -76 119 -67 119 -55 C119 -50 121 -45 125 -39 C138 -19 141 -12 141 3 C141 37 111 64 75 64 C35 64 7 35 7 -7 C7 -64 56 -103 128 -103 C192 -103 262 -71 301 -25 C335 17 346 59 346 151 L346 642 L406 642 L406 667 L126 667 L126 642 L206 642 Z " />
<glyph glyph-name="K" unicode="K" horiz-adv-x="695" d="M110 25 L30 25 L30 0 L330 0 L330 25 L250 25 L250 642 L330 642 L330 667 L30 667 L30 642 L110 642 L110 25 Z M372 427 L531 596 C567 635 582 643 626 642 L647 642 L647 667 L423 667 L423 642 L477 642 C501 642 511 638 511 629 C511 623 509 619 498 607 L257 347 L477 25 L399 25 L399 0 L695 0 L695 25 L647 25 L372 427 Z " />
<glyph glyph-name="L" unicode="L" horiz-adv-x="582" d="M110 25 L30 25 L30 0 L539 0 L558 210 L532 210 C505 87 431 19 331 25 L250 25 L250 642 L330 642 L330 667 L30 667 L30 642 L110 642 L110 25 Z " />
<glyph glyph-name="M" unicode="M" horiz-adv-x="786" d="M103 642 L103 97 C104 33 98 25 49 25 L23 25 L23 0 L213 0 L213 25 L187 25 C138 25 132 32 133 97 L133 642 L323 0 L345 0 L536 635 L536 25 L446 25 L446 0 L756 0 L756 25 L676 25 L676 642 L756 642 L756 667 L515 667 L390 254 L269 667 L23 667 L23 642 L103 642 Z " />
<glyph glyph-name="N" unicode="N" horiz-adv-x="692" d="M566 -7 L589 -7 L589 570 C588 635 594 642 643 642 L669 642 L669 667 L479 667 L479 642 L505 642 C554 642 560 635 559 570 L559 241 L239 667 L23 667 L23 642 L49 642 C98 642 104 634 103 570 L103 97 C104 33 98 25 49 25 L23 25 L23 0 L226 0 L226 25 L187 25 C138 25 132 32 133 97 L133 585 L566 -7 Z " />
<glyph glyph-name="O" unicode="O" horiz-adv-x="732" d="M365 684 C279 684 204 654 146 597 C78 531 38 432 38 334 C38 234 78 136 146 70 C205 12 279 -17 365 -17 C452 -17 526 12 585 70 C652 135 693 235 693 329 C693 433 654 530 585 597 C525 655 453 684 365 684 L365 684 Z M366 657 C424 657 462 638 489 594 C516 550 526 476 526 329 C526 206 517 129 496 87 C470 34 430 10 366 10 C307 10 269 29 242 73 C216 117 205 192 205 334 C205 461 214 537 235 580 C260 633 301 657 366 657 L366 657 Z " />
<glyph glyph-name="P" unicode="P" horiz-adv-x="625" d="M110 25 L30 25 L30 0 L340 0 L340 25 L250 25 L250 312 L325 312 C461 312 507 322 548 359 C585 392 605 438 605 488 C605 540 584 588 546 620 C503 658 459 667 324 667 L30 667 L30 642 L110 642 L110 25 Z M250 337 L250 642 L322 642 C427 642 453 611 453 487 C453 375 421 337 324 337 L250 337 Z " />
<glyph glyph-name="Q" unicode="Q" horiz-adv-x="732" d="M435 -10 C586 22 693 164 693 334 C693 433 653 531 585 597 C526 655 452 684 366 684 C279 684 205 655 146 597 C78 531 38 433 38 334 C38 166 144 23 293 -9 L293 -24 C295 -118 303 -146 339 -174 C391 -216 461 -233 583 -233 C601 -233 613 -233 639 -231 L639 -202 C617 -203 605 -204 593 -204 C474 -204 435 -160 435 -25 L435 -17 L435 -10 Z M366 657 C424 657 462 638 489 594 C516 550 526 476 526 329 C526 206 517 129 496 87 C470 34 430 10 366 10 C307 10 269 29 242 73 C216 117 205 192 205 334 C205 461 214 537 235 580 C260 633 301 657 366 657 L366 657 Z " />
<glyph glyph-name="R" unicode="R" horiz-adv-x="690" d="M110 25 L30 25 L30 0 L330 0 L330 25 L250 25 L250 343 L305 343 C385 346 412 311 418 192 C423 118 427 97 442 65 C463 19 503 -4 561 -4 C596 -4 631 3 670 18 L670 44 C651 37 636 33 623 33 C588 33 573 56 573 108 C573 116 573 123 574 134 L574 155 C574 259 503 336 390 355 C461 359 478 362 509 379 C559 407 588 455 588 512 C588 560 569 601 532 628 C490 659 447 667 324 667 L30 667 L30 642 L110 642 L110 25 Z M250 368 L250 642 L324 642 C378 642 400 637 418 620 C437 601 446 569 446 515 C446 398 421 368 324 368 L250 368 Z " />
<glyph glyph-name="S" unicode="S" horiz-adv-x="530" d="M435 667 L408 667 L380 636 C334 670 293 684 245 684 C130 684 42 593 42 475 C42 415 65 364 107 331 C131 312 131 312 245 275 C338 246 343 244 363 230 C390 210 407 176 407 138 C407 67 344 10 266 10 C171 10 97 77 72 186 L45 186 L45 0 L71 0 L104 42 C163 1 214 -17 272 -17 C398 -17 492 79 492 207 C492 265 472 317 437 355 C410 384 382 396 280 426 C191 452 191 452 167 465 C138 481 121 511 121 546 C121 609 174 657 245 657 C333 657 394 594 408 487 L435 487 L435 667 Z " />
<glyph glyph-name="T" unicode="T" horiz-adv-x="622" d="M241 25 L151 25 L151 0 L471 0 L471 25 L381 25 L381 642 L408 642 C514 649 574 588 585 462 L612 462 L599 667 L23 667 L10 462 L37 462 C48 588 108 649 214 642 L241 642 L241 25 Z " />
<glyph glyph-name="U" unicode="U" horiz-adv-x="669" d="M100 642 L100 213 C100 160 101 133 104 119 C109 91 124 65 146 45 C187 8 267 -17 347 -17 C426 -17 493 7 530 48 C564 85 572 117 572 213 L572 570 C571 635 577 642 626 642 L652 642 L652 667 L462 667 L462 642 L488 642 C537 642 543 634 542 570 L542 214 C542 138 536 106 515 76 C490 39 442 18 381 18 C325 18 283 38 260 76 C244 101 240 130 240 213 L240 642 L330 642 L330 667 L20 667 L20 642 L100 642 Z " />
<glyph glyph-name="V" unicode="V" horiz-adv-x="621" d="M204 642 L284 642 L284 667 L-5 667 L-5 642 L57 642 L312 -13 L337 -13 L534 580 C548 627 566 642 608 642 L624 642 L624 667 L432 667 L432 642 L458 642 C504 642 514 638 514 621 C514 616 513 610 510 601 L376 197 L204 642 Z " />
<glyph glyph-name="W" unicode="W" horiz-adv-x="899" d="M617 642 L672 642 L672 667 L-2 667 L-2 642 L66 642 L313 -13 L335 -13 L467 292 L584 -13 L611 -13 L810 579 C827 628 843 641 882 642 L901 642 L901 667 L716 667 L716 642 L750 642 C782 642 790 637 790 619 C790 614 789 609 783 592 L649 192 L543 469 L617 642 Z M585 642 L528 510 L477 642 L585 642 Z M334 642 L451 333 L384 179 L210 642 L334 642 Z " />
<glyph glyph-name="X" unicode="X" horiz-adv-x="621" d="M257 304 L109 78 C82 34 67 25 13 25 L-3 25 L-3 0 L209 0 L209 25 L173 25 C140 25 127 30 127 42 C127 50 131 58 144 77 L273 275 L412 25 L333 25 L333 0 L631 0 L631 25 L573 25 L359 405 L481 592 C509 636 517 641 566 642 L579 642 L579 667 L389 667 L389 642 L421 642 C456 642 463 639 463 627 C463 620 459 611 451 598 L343 434 L225 642 L291 642 L291 667 L-3 667 L-3 642 L67 642 L257 304 Z " />
<glyph glyph-name="Y" unicode="Y" horiz-adv-x="599" d="M233 25 L143 25 L143 0 L463 0 L463 25 L373 25 L373 307 L515 590 C536 632 547 640 588 642 L606 642 L606 667 L413 667 L413 642 L463 642 C491 642 498 639 498 626 C498 620 498 620 487 598 L364 351 L201 642 L286 642 L286 667 L-21 667 L-21 642 L40 642 L233 307 L233 25 Z " />
<glyph glyph-name="Z" unicode="Z" horiz-adv-x="563" d="M20 32 L20 0 L517 0 L523 213 L496 213 C471 83 395 17 279 25 L173 25 L517 648 L517 667 L66 667 L54 490 L81 490 C105 600 168 649 279 642 L355 642 L20 32 Z " />
<glyph glyph-name="bracketleft" unicode="&#x5b;" horiz-adv-x="299" d="M63 -180 L277 -180 L277 -155 L168 -155 L168 642 L277 642 L277 667 L63 667 L63 -180 Z " />
<glyph glyph-name="backslash" unicode="&#x5c;" horiz-adv-x="439" d="M30 667 L390 -180 L486 -180 L125 667 L30 667 Z " />
<glyph glyph-name="bracketright" unicode="&#x5d;" horiz-adv-x="299" d="M236 667 L22 667 L22 642 L131 642 L131 -155 L22 -155 L22 -180 L236 -180 L236 667 Z " />
<glyph glyph-name="asciicircum" unicode="&#x5e;" horiz-adv-x="500" d="M530 280 L265 700 L257 700 L-29 280 L127 280 L304 542 L471 280 L530 280 Z " />
<glyph glyph-name="underscore" unicode="&#x5f;" horiz-adv-x="500" d="M11 -91 L11 -160 L489 -160 L489 -91 L11 -91 Z " />
<glyph glyph-name="grave" unicode="&#x60;" horiz-adv-x="500" d="M222 621 L125 621 L125 596 L285 471 L302 480 L222 621 Z " />
<glyph glyph-name="a" unicode="a" horiz-adv-x="457" d="M439 56 C429 46 421 41 412 41 C395 41 391 49 391 81 L391 263 C391 326 387 341 366 361 C339 387 288 403 229 403 C137 403 65 359 65 302 C65 272 86 249 114 249 C145 249 170 272 170 300 C170 312 167 321 159 333 C154 342 152 346 152 350 C152 366 177 376 214 376 C243 376 262 368 271 353 C278 339 278 339 279 258 L279 233 C119 220 32 168 32 84 C32 27 76 -10 142 -10 C195 -10 243 13 279 56 C299 17 330 -5 365 -5 C398 -5 430 11 455 40 L439 56 Z M279 156 C279 109 276 90 266 73 C254 53 235 42 212 42 C172 42 144 73 144 116 C144 175 191 205 279 206 L279 156 Z " />
<glyph glyph-name="b" unicode="b" horiz-adv-x="543" d="M70 25 L3 25 L3 0 L190 0 L190 59 C226 11 268 -10 326 -10 C373 -10 417 8 448 38 C487 78 512 140 512 199 C512 315 431 403 325 403 C268 403 223 379 190 330 L190 678 C146 670 115 667 34 667 L3 667 L3 642 L70 642 L70 25 Z M311 373 C334 373 352 364 364 347 C377 328 382 298 382 225 C382 149 377 86 370 61 C362 35 338 20 305 20 C232 20 185 89 185 195 C185 256 198 303 224 333 C246 358 279 373 311 373 L311 373 Z " />
<glyph glyph-name="c" unicode="c" horiz-adv-x="431" d="M397 118 C365 54 318 20 263 20 C190 20 162 66 162 187 C162 331 185 376 260 376 C288 376 301 371 319 355 C296 339 282 316 282 291 C282 257 309 231 344 231 C379 231 408 260 408 295 C408 355 339 403 255 403 C132 403 32 309 32 193 C32 80 127 -10 244 -10 C325 -10 384 29 421 106 L397 118 Z " />
<glyph glyph-name="d" unicode="d" horiz-adv-x="523" d="M333 0 L520 0 L520 25 L453 25 L453 678 C410 670 379 667 297 667 L266 667 L266 642 L333 642 L333 335 C295 384 261 403 211 403 C113 403 32 308 32 193 C32 79 112 -10 215 -10 C266 -10 303 12 333 60 L333 0 Z M239 373 C264 373 291 356 309 329 C328 303 337 256 337 194 C337 94 297 21 241 21 C218 21 199 32 187 52 C173 77 162 144 162 211 C162 318 188 373 239 373 L239 373 Z " />
<glyph glyph-name="e" unicode="e" horiz-adv-x="440" d="M417 221 L417 234 C417 327 336 403 236 403 C119 403 32 315 32 198 C32 128 60 73 113 33 C150 6 197 -10 240 -10 C316 -10 374 29 417 110 L393 121 C357 54 311 20 257 20 C221 20 192 37 179 66 C169 89 169 89 168 199 L168 221 L417 221 Z M168 246 L168 274 C168 319 170 335 176 348 C184 367 203 376 231 376 C258 376 276 368 285 352 C293 339 295 323 295 274 L295 246 L168 246 Z " />
<glyph glyph-name="f" unicode="f" horiz-adv-x="318" d="M80 25 L13 25 L13 0 L291 0 L291 25 L200 25 L200 368 L291 368 L291 393 L200 393 L200 555 C200 596 203 613 213 626 C222 639 238 647 254 647 C268 647 280 640 280 631 C280 628 279 627 272 620 C263 610 259 601 259 590 C259 565 281 545 309 545 C340 545 362 568 362 600 C362 641 323 674 273 674 C214 674 154 641 119 589 C91 548 80 500 80 426 L80 393 L13 393 L13 368 L80 368 L80 25 Z " />
<glyph glyph-name="g" unicode="g" horiz-adv-x="494" d="M221 35 L138 35 L129 35 C93 35 78 43 78 64 C78 89 107 116 146 127 C178 112 207 106 240 106 C343 106 417 169 417 256 C417 282 411 304 397 327 C397 339 401 345 408 345 C412 345 413 344 417 340 C427 328 437 323 451 323 C472 323 488 340 488 363 C488 389 469 408 443 408 C414 408 394 389 380 350 C339 387 296 403 239 403 C137 403 60 339 60 255 C60 208 80 172 123 141 C66 124 27 76 27 23 C27 -25 53 -59 103 -73 C54 -86 29 -114 29 -154 C29 -222 115 -271 232 -271 C371 -271 460 -202 460 -94 C460 -54 447 -20 422 4 C398 27 368 36 315 36 L221 35 Z M177 292 C177 327 180 341 189 354 C199 368 217 376 238 376 C259 376 277 368 287 354 C296 341 299 327 299 292 L299 217 C299 156 282 133 238 133 C194 133 177 156 177 217 L177 292 Z M359 -81 C396 -81 413 -98 413 -132 C413 -196 338 -244 236 -244 C151 -244 95 -205 95 -146 C95 -122 104 -102 126 -81 L359 -81 Z " />
<glyph glyph-name="h" unicode="h" horiz-adv-x="548" d="M77 25 L10 25 L10 0 L250 0 L250 25 L197 25 L197 196 C197 250 202 279 216 304 C234 338 269 360 303 360 C320 360 337 353 345 342 C355 330 357 317 357 271 L357 25 L304 25 L304 0 L543 0 L543 25 L477 25 L477 271 C477 330 471 351 450 371 C429 392 393 403 350 403 C287 403 241 380 197 326 L197 678 C153 670 121 667 41 667 L10 667 L10 642 L77 642 L77 25 Z " />
<glyph glyph-name="i" unicode="i" horiz-adv-x="279" d="M85 25 L18 25 L18 0 L271 0 L271 25 L205 25 L205 404 C162 396 130 393 49 393 L18 393 L18 368 L85 368 L85 25 Z M132 635 C96 635 66 605 66 569 C66 532 95 502 132 502 C169 502 199 532 199 569 C199 605 169 635 132 635 L132 635 Z " />
<glyph glyph-name="j" unicode="j" horiz-adv-x="245" d="M70 368 L70 -144 C70 -201 69 -213 64 -225 C59 -236 48 -243 35 -243 C23 -243 15 -238 15 -232 C15 -229 16 -227 18 -223 C25 -212 27 -206 27 -197 C27 -173 6 -153 -20 -153 C-48 -153 -70 -175 -70 -202 C-70 -242 -34 -270 18 -270 C79 -270 129 -232 161 -162 C182 -114 190 -67 190 18 L190 404 C147 396 116 393 34 393 L3 393 L3 368 L70 368 Z M118 635 C81 635 51 605 51 569 C51 532 80 502 118 502 C154 502 184 532 184 569 C184 605 154 635 118 635 L118 635 Z " />
<glyph glyph-name="k" unicode="k" horiz-adv-x="531" d="M70 25 L3 25 L3 0 L243 0 L243 25 L190 25 L190 678 C147 670 115 667 34 667 L3 667 L3 642 L70 642 L70 25 Z M298 268 L363 328 C400 365 408 368 446 368 L470 368 L470 393 L270 393 L270 368 L313 368 C341 368 346 366 346 357 C346 350 341 345 323 328 L196 212 L334 25 L281 25 L281 0 L527 0 L527 25 L478 25 L298 268 Z " />
<glyph glyph-name="l" unicode="l" horiz-adv-x="260" d="M70 25 L3 25 L3 0 L256 0 L256 25 L190 25 L190 678 C147 670 116 667 34 667 L3 667 L3 642 L70 642 L70 25 Z " />
<glyph glyph-name="m" unicode="m" horiz-adv-x="817" d="M90 25 L23 25 L23 0 L263 0 L263 25 L210 25 L210 217 C210 269 213 285 226 309 C243 341 277 363 308 363 C324 363 338 357 346 345 C356 331 358 323 358 269 L358 25 L305 25 L305 0 L531 0 L531 25 L478 25 L478 217 C478 268 484 294 502 319 C521 346 550 363 578 363 C596 363 610 356 618 344 C625 333 626 331 626 269 L626 25 L572 25 L572 0 L812 0 L812 25 L746 25 L746 269 C746 329 741 348 719 370 C697 391 661 403 621 403 C560 403 514 378 478 325 C460 374 414 403 354 403 C298 403 248 379 210 333 L210 404 C166 396 134 393 54 393 L23 393 L23 368 L90 368 L90 25 Z " />
<glyph glyph-name="n" unicode="n" horiz-adv-x="557" d="M90 25 L23 25 L23 0 L263 0 L263 25 L210 25 L210 218 C210 267 212 278 223 300 C242 337 281 363 317 363 C354 363 367 340 367 274 L367 25 L313 25 L313 0 L553 0 L553 25 L487 25 L487 274 C487 329 480 351 456 372 C434 392 399 403 361 403 C301 403 247 377 210 331 L210 404 C166 396 134 393 54 393 L23 393 L23 368 L90 368 L90 25 Z " />
<glyph glyph-name="o" unicode="o" horiz-adv-x="512" d="M255 403 C130 403 32 312 32 197 C32 80 130 -10 256 -10 C381 -10 480 80 480 194 C480 313 383 403 255 403 L255 403 Z M256 376 C289 376 316 363 331 339 C345 318 350 279 350 195 C350 123 345 81 335 60 C321 33 292 17 256 17 C223 17 196 30 181 54 C167 75 162 115 162 196 C162 271 167 312 177 333 C191 360 220 376 256 376 L256 376 Z " />
<glyph glyph-name="p" unicode="p" horiz-adv-x="523" d="M70 -242 L3 -242 L3 -267 L256 -267 L256 -242 L190 -242 L190 70 C229 12 263 -10 316 -10 C411 -10 491 85 491 200 C491 310 410 403 313 403 C263 403 228 382 190 329 L190 404 C147 396 116 393 34 393 L3 393 L3 368 L70 368 L70 -242 Z M289 373 C341 373 361 322 361 190 C361 74 338 20 290 20 C231 20 185 96 185 193 C185 293 231 373 289 373 L289 373 Z " />
<glyph glyph-name="q" unicode="q" horiz-adv-x="524" d="M334 -242 L267 -242 L267 -267 L521 -267 L521 -242 L454 -242 L454 368 L521 368 L521 393 L482 393 C416 393 373 396 334 405 L334 337 C317 359 309 368 298 376 C277 392 244 403 213 403 C114 403 32 311 32 199 C32 83 112 -10 210 -10 C263 -10 295 8 334 63 L334 -242 Z M236 373 C297 373 338 308 338 210 C338 159 325 100 306 67 C291 40 259 20 231 20 C184 20 162 72 162 187 C162 321 183 373 236 373 L236 373 Z " />
<glyph glyph-name="r" unicode="r" horiz-adv-x="412" d="M85 25 L18 25 L18 0 L282 0 L282 25 L205 25 L205 200 C205 261 217 300 248 338 C260 353 280 367 289 367 C294 367 297 364 297 359 C297 356 296 354 294 352 C285 340 282 331 282 318 C282 285 307 261 340 261 C376 261 403 288 403 325 C403 370 368 403 321 403 C275 403 231 371 205 318 L205 404 C162 396 130 393 45 393 L18 393 L18 368 L85 368 L85 25 Z " />
<glyph glyph-name="s" unicode="s" horiz-adv-x="372" d="M313 403 L288 403 C286 382 282 376 273 376 C267 376 261 378 249 383 C215 398 193 403 167 403 C95 403 38 346 38 275 C38 231 64 190 102 172 C118 165 149 155 182 146 C233 133 238 131 253 122 C270 111 279 95 279 78 C279 44 242 17 195 17 C152 17 109 39 84 75 C68 96 62 115 59 146 L33 146 L33 0 L59 0 C59 17 64 26 74 26 C80 26 84 24 94 18 C122 -1 155 -10 192 -10 C279 -10 341 51 341 136 C341 186 316 221 267 241 C247 249 212 260 161 273 C122 282 104 299 104 324 C104 355 132 376 174 376 C207 376 241 361 264 337 C278 322 284 311 288 286 L313 286 L313 403 Z " />
<glyph glyph-name="t" unicode="t" horiz-adv-x="304" d="M70 368 L70 89 C70 22 102 -10 170 -10 C214 -10 254 7 276 36 C289 51 296 68 302 97 L274 102 C262 54 249 37 222 37 C201 37 190 54 190 89 L190 368 L273 368 L273 393 L190 393 L190 564 L163 564 C129 482 71 416 4 384 L4 368 L70 368 Z " />
<glyph glyph-name="u" unicode="u" horiz-adv-x="526" d="M336 0 L522 0 L522 25 L456 25 L456 404 C412 396 381 393 300 393 L269 393 L269 368 L336 368 L336 171 C336 122 332 105 319 83 C301 54 266 33 236 33 C221 33 208 39 200 50 C191 61 190 69 190 110 L190 404 C146 396 115 393 34 393 L3 393 L3 368 L70 368 L70 133 C70 74 76 48 95 25 C113 2 145 -10 186 -10 C249 -10 289 11 336 69 L336 0 Z " />
<glyph glyph-name="v" unicode="v" horiz-adv-x="446" d="M158 368 L220 368 L220 393 L-12 393 L-12 368 L33 368 L212 -13 L239 -13 L375 320 C393 365 397 367 435 368 L458 368 L458 393 L288 393 L288 368 L325 368 C349 368 357 364 357 353 C357 348 356 343 350 329 L269 132 L158 368 Z " />
<glyph glyph-name="w" unicode="w" horiz-adv-x="641" d="M164 368 L230 368 L230 393 L-12 393 L-12 368 L35 368 L189 -13 L213 -13 L312 237 L420 -13 L443 -13 L569 322 C583 362 592 368 630 368 L653 368 L653 393 L483 393 L483 368 L524 368 C544 368 550 365 550 354 C550 349 550 349 543 329 L477 149 L377 393 L347 393 L250 149 L164 368 Z " />
<glyph glyph-name="x" unicode="x" horiz-adv-x="487" d="M196 168 L105 69 C72 33 59 25 27 25 L-2 25 L-2 0 L172 0 L172 25 L131 25 C118 25 114 27 114 33 C114 39 120 47 135 64 L211 148 L302 25 L245 25 L245 0 L485 0 L485 25 L445 25 L287 234 L382 339 C405 364 416 369 450 368 L470 368 L470 393 L302 393 L302 368 L331 368 C355 368 361 366 361 359 C361 355 360 354 347 339 L273 254 L186 368 L245 368 L245 393 L-2 393 L-2 368 L44 368 L196 168 Z " />
<glyph glyph-name="y" unicode="y" horiz-adv-x="447" d="M210 2 L162 -126 C142 -178 129 -200 119 -200 C113 -200 109 -197 105 -191 C91 -169 74 -158 54 -158 C25 -158 2 -182 2 -211 C2 -245 30 -270 67 -270 C91 -270 113 -259 132 -237 C149 -218 158 -200 183 -139 L374 329 C388 362 399 369 435 368 L459 368 L459 393 L289 393 L289 368 L321 368 C345 368 351 364 351 350 C351 344 349 335 343 322 L271 145 L170 368 L218 368 L218 393 L-12 393 L-12 368 L37 368 L210 2 Z " />
<glyph glyph-name="z" unicode="z" horiz-adv-x="430" d="M394 393 L56 393 L51 246 L74 246 C93 336 137 373 218 368 L261 368 L27 20 L27 0 L394 0 L404 163 L377 163 C356 66 304 20 220 25 L162 25 L394 373 L394 393 Z " />
<glyph glyph-name="braceleft" unicode="&#x7b;" horiz-adv-x="299" d="M18 247 C63 241 65 235 66 105 L66 22 C68 -98 72 -119 101 -149 C130 -174 163 -180 262 -180 L262 -155 C181 -152 169 -130 171 7 L171 103 C175 210 152 250 84 256 L84 260 C151 266 175 306 171 403 L171 495 C168 602 189 637 262 642 L262 667 C156 664 143 662 115 646 C74 615 64 578 66 469 L66 398 C63 277 62 273 18 269 L18 247 Z " />
<glyph glyph-name="bar" unicode="&#x7c;" horiz-adv-x="500" d="M205 667 L205 -167 L296 -167 L296 667 L205 667 Z " />
<glyph glyph-name="braceright" unicode="&#x7d;" horiz-adv-x="299" d="M281 269 C237 273 235 277 233 398 L233 469 C234 574 226 607 191 640 C162 662 148 664 37 667 L37 642 C110 637 131 602 128 495 L128 403 C123 306 147 266 214 260 L214 256 C147 250 124 209 128 103 L128 7 C130 -130 117 -152 37 -155 L37 -180 C130 -180 162 -175 191 -154 C226 -125 231 -104 233 22 L233 105 C233 235 235 241 281 247 L281 269 Z " />
<glyph glyph-name="asciitilde" unicode="&#x7e;" horiz-adv-x="500" d="M108 284 C127 310 144 320 170 320 C186 320 203 316 245 301 C277 290 287 287 300 287 C341 287 371 310 411 372 L392 382 C374 357 361 348 341 348 C326 348 319 350 276 366 C246 377 226 381 209 381 C161 381 125 355 89 293 L108 284 Z " />
<glyph glyph-name="uni00A0" unicode="&#xa0;" horiz-adv-x="250" d="" />
<glyph glyph-name="exclamdown" unicode="&#xa1;" horiz-adv-x="289" d="M144 181 L133 181 C131 69 122 17 78 -137 C69 -166 67 -175 67 -189 C67 -237 99 -270 144 -270 C190 -270 222 -237 222 -189 C222 -175 220 -165 211 -136 C166 18 157 69 156 181 L144 181 Z M146 415 C104 415 70 381 70 338 C70 296 104 262 146 262 C188 262 223 296 223 338 C223 381 189 415 146 415 L146 415 Z " />
<glyph glyph-name="cent" unicode="&#xa2;" horiz-adv-x="500" d="M250 41 L284 41 L284 136 C360 142 418 182 448 251 L424 264 C392 199 343 164 284 166 L284 522 C317 521 329 517 346 501 C323 485 309 462 309 437 C309 403 336 377 371 377 C406 377 435 406 435 441 C435 501 370 547 284 549 L284 639 L250 639 L250 547 C135 527 59 444 59 338 C59 233 136 151 250 137 L250 41 Z M250 173 C204 193 189 233 189 332 C189 454 204 499 250 517 L250 173 Z " />
<glyph glyph-name="sterling" unicode="&#xa3;" horiz-adv-x="500" d="M177 271 C219 220 227 202 227 159 C227 148 226 141 224 127 C183 142 145 150 111 150 C44 150 -8 114 -8 68 C-8 24 39 -10 100 -10 C143 -10 171 0 224 34 C268 2 321 -18 361 -18 C451 -18 501 51 500 173 L470 173 C468 110 436 69 388 69 C365 69 323 82 276 104 C289 131 295 161 295 194 C295 222 290 251 282 271 L402 271 L402 307 L267 307 C259 320 259 320 216 376 C189 412 169 471 169 515 C169 590 221 649 286 649 C316 649 341 637 359 614 C365 606 369 599 369 595 C369 589 367 586 360 582 C338 567 325 546 325 524 C325 491 354 464 390 464 C429 464 458 495 458 538 C458 617 370 680 259 680 C131 680 39 604 39 498 C39 434 73 372 144 307 L43 307 L43 271 L177 271 Z M185 58 C165 39 130 26 95 26 C59 26 31 44 31 68 C31 85 48 98 72 98 C102 98 146 82 185 58 L185 58 Z " />
<glyph glyph-name="currency" unicode="&#xa4;" horiz-adv-x="500" d="M380 485 C344 516 298 532 250 532 C202 532 159 517 120 485 L53 552 L27 525 L94 459 C63 421 47 376 47 328 C47 280 61 240 93 198 L27 132 L53 106 L120 172 C156 142 203 125 250 125 C297 125 344 142 381 172 L447 106 L473 132 L407 198 C438 237 454 281 454 329 C454 377 439 419 407 459 L473 525 L447 552 L380 485 Z M250 457 C322 457 379 400 379 327 C379 257 321 200 248 200 C180 200 122 258 122 328 C122 400 179 457 250 457 L250 457 Z " />
<glyph glyph-name="yen" unicode="&#xa5;" horiz-adv-x="500" d="M186 298 L186 25 L102 25 L102 0 L399 0 L399 25 L316 25 L316 298 L454 298 L454 323 L326 323 L366 431 L477 431 L477 456 L375 456 L418 569 C431 607 446 618 485 618 L495 618 L495 643 L322 643 L322 618 L366 618 L379 619 C388 620 396 613 396 604 C396 599 394 593 388 577 L302 344 L187 618 L267 618 L267 643 L-12 643 L-12 618 L38 618 L113 456 L16 456 L16 431 L124 431 L174 323 L43 323 L43 298 L186 298 Z " />
<glyph glyph-name="brokenbar" unicode="&#xa6;" horiz-adv-x="500" d="M205 667 L205 316 L296 316 L296 667 L205 667 Z M205 153 L205 -167 L296 -167 L296 153 L205 153 Z " />
<glyph glyph-name="section" unicode="&#xa7;" horiz-adv-x="500" d="M350 108 C422 140 460 193 460 265 C460 315 440 349 390 382 C367 397 302 435 216 483 C171 509 154 531 154 566 C154 617 199 653 264 653 C309 653 350 634 350 614 C350 609 347 605 341 602 C313 591 301 575 301 550 C301 522 326 499 358 499 C395 499 421 526 421 564 C421 630 348 680 253 680 C155 680 79 611 79 522 C79 479 99 442 142 403 C73 368 40 319 40 252 C40 187 65 152 139 111 C161 98 186 84 213 69 C246 49 270 36 283 29 C349 -7 369 -29 369 -68 C369 -125 313 -166 236 -166 C182 -166 115 -139 115 -117 C115 -113 119 -111 128 -109 C156 -104 177 -79 177 -49 C177 -14 151 12 116 12 C79 12 50 -20 50 -62 C50 -91 68 -127 94 -149 C127 -178 177 -193 236 -193 C359 -193 448 -125 448 -30 C448 33 415 79 350 108 L350 108 Z M167 375 C185 375 196 371 227 353 C245 342 262 333 278 324 C356 282 356 282 371 269 C389 254 400 230 400 208 C400 169 370 139 332 139 C306 139 282 149 212 189 C191 201 175 210 164 216 C116 243 97 266 97 301 C97 341 129 375 167 375 L167 375 Z " />
<glyph glyph-name="dieresis" unicode="&#xa8;" horiz-adv-x="500" d="M164 610 C130 610 102 583 102 549 C102 514 129 487 164 487 C198 487 225 515 225 549 C225 583 198 610 164 610 L164 610 Z M337 610 C303 610 275 583 275 549 C275 514 302 487 337 487 C371 487 398 515 398 549 C398 583 371 610 337 610 L337 610 Z " />
<glyph glyph-name="copyright" unicode="&#xa9;" horiz-adv-x="785" d="M534 523 L512 523 L502 502 C477 523 446 533 409 533 C298 533 208 440 208 327 C208 216 292 134 406 134 C444 134 471 144 500 168 L516 143 L537 143 L543 254 L521 254 C500 191 459 156 405 156 C378 156 356 165 341 183 C321 206 316 233 316 315 C316 415 320 449 337 473 C354 499 379 511 414 511 C469 511 501 482 516 419 L538 419 L534 523 Z M392 684 C197 684 38 527 38 333 C38 143 197 -17 386 -17 C586 -17 746 137 746 331 C746 527 589 684 392 684 L392 684 Z M392 644 C562 644 698 505 698 331 C698 160 560 23 387 23 C223 23 86 165 86 333 C86 505 223 644 392 644 L392 644 Z " />
<glyph glyph-name="ordfeminine" unicode="&#xaa;" horiz-adv-x="333" d="M325 330 L9 330 L9 297 L325 297 L325 330 Z M305 444 C299 435 293 432 287 432 C278 432 276 437 276 457 L276 578 C276 621 273 631 258 645 C239 663 205 674 164 674 C100 674 50 643 50 604 C50 582 65 566 86 566 C108 566 126 583 126 603 C126 611 124 617 118 627 C115 632 114 634 114 636 C114 645 131 651 154 651 C172 651 184 646 189 637 C194 628 194 628 195 574 L195 560 C87 552 27 515 27 458 C27 419 58 393 104 393 C140 393 174 408 197 435 C210 411 233 397 256 397 C280 397 302 408 320 429 L305 444 Z M195 506 C195 453 183 433 152 433 C126 433 108 453 108 480 C108 516 138 536 195 537 L195 506 Z " />
<glyph glyph-name="guillemotleft" unicode="&#xab;" horiz-adv-x="370" d="M40 213 L122 113 L200 113 L121 213 L200 303 L121 303 L40 213 Z M163 213 L245 113 L323 113 L245 213 L323 303 L245 303 L163 213 Z " />
<glyph glyph-name="logicalnot" unicode="&#xac;" horiz-adv-x="500" d="M320 0 L469 0 L469 267 L31 267 L31 203 L320 203 L320 0 Z " />
<glyph glyph-name="uni00AD" unicode="&#xad;" horiz-adv-x="215" d="M0 250 L0 167 L215 167 L215 250 L0 250 Z " />
<glyph glyph-name="registered" unicode="&#xae;" horiz-adv-x="785" d="M252 164 L203 164 L203 143 L393 143 L393 164 L344 164 L344 335 L374 335 C421 337 436 319 440 254 C443 212 445 200 455 182 C468 155 494 141 530 141 C553 141 574 145 600 154 L600 176 C584 171 576 169 568 169 C549 169 541 180 541 208 C541 211 541 216 542 222 L542 234 C542 286 512 322 451 343 C512 349 550 383 550 433 C550 461 538 484 514 500 C488 518 462 523 386 523 L203 523 L203 502 L252 502 L252 164 Z M344 356 L344 502 L386 502 C442 502 456 489 456 435 C456 371 442 356 386 356 L344 356 Z M392 684 C197 684 38 527 38 333 C38 143 197 -17 386 -17 C586 -17 746 137 746 331 C746 527 589 684 392 684 L392 684 Z M392 644 C562 644 698 505 698 331 C698 160 560 23 387 23 C223 23 86 165 86 333 C86 505 223 644 392 644 L392 644 Z " />
<glyph glyph-name="macron" unicode="&#xaf;" horiz-adv-x="350" d="M33 563 L33 516 L316 516 L316 563 L33 563 Z " />
<glyph glyph-name="degree" unicode="&#xb0;" horiz-adv-x="400" d="M203 686 C117 686 50 619 50 534 C50 448 116 380 200 380 C284 380 350 447 350 533 C350 619 286 686 203 686 L203 686 Z M202 629 C252 629 293 586 293 533 C293 479 252 437 200 437 C148 437 106 480 106 532 C106 587 148 629 202 629 L202 629 Z " />
<glyph glyph-name="plusminus" unicode="&#xb1;" horiz-adv-x="500" d="M233 307 L233 128 L266 128 L266 307 L455 307 L455 340 L266 340 L266 519 L233 519 L233 340 L44 340 L44 307 L233 307 Z M44 15 L455 15 L455 48 L44 48 L44 15 Z " />
<glyph glyph-name="twosuperior" unicode="&#xb2;" horiz-adv-x="337" d="M295 387 L272 387 C271 367 269 346 267 341 C264 332 261 331 239 331 L88 331 L101 340 C197 407 206 414 237 445 C276 485 292 514 292 546 C292 605 238 650 168 650 C93 650 34 602 34 542 C34 509 56 484 85 484 C108 484 127 502 127 524 C127 549 106 566 75 565 C66 565 65 565 65 570 C67 592 102 618 130 618 C170 618 196 585 196 533 C196 466 159 417 24 307 L24 257 L288 257 L295 387 Z " />
<glyph glyph-name="threesuperior" unicode="&#xb3;" horiz-adv-x="337" d="M81 453 C93 454 103 455 108 455 C175 455 201 431 201 372 C201 307 177 274 131 274 C110 274 87 283 87 291 C87 293 88 294 92 297 C106 305 116 321 116 336 C116 361 97 380 72 380 C48 380 29 360 29 335 C29 287 79 251 146 251 C231 251 299 303 299 369 C299 423 261 456 187 469 C249 490 277 520 277 563 C277 614 227 649 155 649 C92 649 47 619 47 577 C47 552 64 533 86 533 C111 533 127 548 127 569 C127 585 118 602 105 608 C102 610 101 611 101 613 C101 619 126 627 144 627 C173 627 187 605 187 561 C187 501 165 478 106 478 C101 478 91 478 81 479 L81 453 Z " />
<glyph glyph-name="acute" unicode="&#xb4;" horiz-adv-x="500" d="M278 621 L198 480 L215 471 L375 596 L375 621 L278 621 Z " />
<glyph glyph-name="mu" unicode="&#xb5;" horiz-adv-x="576" d="M442 500 L353 500 L354 131 C318 80 284 58 242 58 C184 58 150 99 150 169 L150 500 L62 500 L62 20 C62 -1 58 -26 51 -56 C34 -118 33 -123 33 -147 C33 -190 54 -219 83 -219 C112 -219 132 -189 132 -145 C132 -124 129 -110 113 -53 C102 -17 101 -8 101 21 L101 33 C143 -3 165 -13 200 -13 C250 -13 301 18 354 80 C362 48 367 36 377 21 C392 0 419 -13 449 -13 C510 -13 553 31 567 108 L540 109 C536 71 515 41 492 41 C462 41 442 77 442 131 L442 500 Z " />
<glyph glyph-name="paragraph" unicode="&#xb6;" horiz-adv-x="500" d="M226 -155 L149 -155 L149 -180 L474 -180 L474 -155 L415 -155 L415 642 L474 642 L474 667 L226 667 C177 667 136 658 106 640 C56 609 25 548 25 483 C25 374 100 301 210 301 L226 301 L226 -155 Z M281 -155 L281 642 L360 642 L360 -155 L281 -155 Z " />
<glyph glyph-name="periodcentered" unicode="&#xb7;" horiz-adv-x="260" d="M130 280 C88 280 53 246 53 204 C53 161 87 127 130 127 C172 127 206 161 206 204 C206 246 172 280 130 280 L130 280 Z " />
<glyph glyph-name="cedilla" unicode="&#xb8;" horiz-adv-x="500" d="M275 0 L250 0 L223 -72 C258 -74 278 -94 278 -125 C278 -154 256 -180 231 -180 C213 -180 197 -166 196 -150 L196 -145 C197 -141 197 -139 197 -135 C197 -123 186 -114 173 -114 C158 -114 148 -125 148 -140 C148 -172 187 -197 236 -197 C299 -197 353 -159 353 -115 C353 -77 317 -49 269 -49 C267 -49 262 -49 256 -50 L275 0 Z " />
<glyph glyph-name="onesuperior" unicode="&#xb9;" horiz-adv-x="337" d="M134 280 L67 280 L67 257 L292 257 L292 280 L225 280 L225 655 C202 648 160 643 125 643 L86 643 L67 643 L67 620 L134 620 L134 280 Z " />
<glyph glyph-name="ordmasculine" unicode="&#xba;" horiz-adv-x="333" d="M325 330 L9 330 L9 297 L325 297 L325 330 Z M167 674 C80 674 12 612 12 533 C12 454 80 393 167 393 C253 393 322 455 322 532 C322 613 255 674 167 674 L167 674 Z M167 651 C189 651 206 643 216 628 C226 614 229 588 229 532 C229 484 226 457 219 443 C209 426 191 416 167 416 C145 416 128 424 118 439 C109 453 105 479 105 533 C105 583 108 610 115 624 C125 641 143 651 167 651 L167 651 Z " />
<glyph glyph-name="guillemotright" unicode="&#xbb;" horiz-adv-x="370" d="M330 203 L249 303 L170 303 L249 203 L170 113 L249 113 L330 203 Z M207 203 L125 303 L47 303 L125 203 L47 113 L125 113 L207 203 Z " />
<glyph glyph-name="onequarter" unicode="&#xbc;" horiz-adv-x="783" d="M134 280 L67 280 L67 257 L292 257 L292 280 L225 280 L225 655 C202 648 160 643 125 643 L86 643 L67 643 L67 620 L134 620 L134 280 Z M577 643 L535 643 L247 0 L289 0 L577 643 Z M605 100 L605 23 L558 23 L558 0 L740 0 L740 23 L693 23 L693 100 L722 100 C743 101 746 98 746 79 L746 65 L770 65 L770 161 L746 161 L746 148 C746 126 744 124 721 124 L693 124 L693 386 L640 386 L461 122 L461 100 L605 100 Z M610 124 L492 124 L610 299 L610 124 Z " />
<glyph glyph-name="onehalf" unicode="&#xbd;" horiz-adv-x="783" d="M134 280 L67 280 L67 257 L292 257 L292 280 L225 280 L225 655 C202 648 160 643 125 643 L86 643 L67 643 L67 620 L134 620 L134 280 Z M557 643 L515 643 L227 0 L269 0 L557 643 Z M742 130 L719 130 C718 109 716 89 714 84 C711 75 708 74 686 74 L535 74 C546 82 546 82 569 97 C630 140 640 147 666 170 C716 216 739 252 739 288 C739 347 685 392 615 392 C540 392 481 344 481 284 C481 251 503 226 532 226 C555 226 574 244 574 266 C574 289 553 307 526 307 L522 307 C519 306 517 306 516 306 C513 306 512 308 512 311 C514 334 549 360 577 360 C617 360 643 327 643 275 C643 208 607 161 471 50 L471 0 L735 0 L742 130 Z " />
<glyph glyph-name="threequarters" unicode="&#xbe;" horiz-adv-x="783" d="M81 453 C93 454 103 455 108 455 C175 455 201 431 201 372 C201 307 177 274 131 274 C110 274 87 283 87 291 C87 293 88 294 92 297 C106 305 116 321 116 336 C116 361 97 380 72 380 C48 380 29 360 29 335 C29 287 79 251 146 251 C231 251 299 303 299 369 C299 423 261 456 187 469 C249 490 277 520 277 563 C277 614 227 649 155 649 C92 649 47 619 47 577 C47 552 64 533 86 533 C111 533 127 548 127 569 C127 585 118 602 105 608 C102 610 101 611 101 613 C101 619 126 627 144 627 C173 627 187 605 187 561 C187 501 165 478 106 478 C101 478 91 478 81 479 L81 453 Z M576 643 L535 643 L247 0 L289 0 L576 643 Z M605 100 L605 23 L558 23 L558 0 L740 0 L740 23 L693 23 L693 100 L721 100 C742 101 746 98 745 79 L745 65 L769 65 L769 161 L745 161 L745 148 C746 126 743 124 721 124 L693 124 L693 386 L640 386 L461 122 L461 100 L605 100 Z M610 124 L492 124 L610 299 L610 124 Z " />
<glyph glyph-name="questiondown" unicode="&#xbf;" horiz-adv-x="394" d="M234 204 C237 191 238 186 238 178 C238 145 216 115 168 86 C76 29 32 -33 32 -107 C32 -198 106 -270 200 -270 C284 -270 365 -206 365 -140 C365 -105 342 -80 309 -80 C274 -80 248 -103 248 -133 C248 -158 261 -174 293 -189 C307 -195 307 -195 307 -199 C307 -201 305 -205 300 -209 C276 -231 243 -243 210 -243 C155 -243 116 -209 116 -163 C116 -136 127 -117 163 -86 C239 -19 272 40 272 109 C272 139 266 171 254 204 L234 204 Z M237 415 C195 415 161 381 161 338 C161 296 195 262 237 262 C279 262 314 296 314 338 C314 381 280 415 237 415 L237 415 Z " />
<glyph glyph-name="Agrave" unicode="&#xc0;" horiz-adv-x="627" d="M367 179 L421 25 L335 25 L335 0 L634 0 L634 25 L563 25 L335 667 L304 667 L94 82 C78 31 70 24 25 25 L-10 25 L-10 0 L197 0 L197 25 L143 25 C118 25 110 28 110 40 C110 45 112 51 118 67 L157 179 L367 179 Z M357 204 L167 204 L262 469 L357 204 Z M276 846 L141 846 L141 821 L395 726 L407 740 L276 846 Z " />
<glyph glyph-name="Aacute" unicode="&#xc1;" horiz-adv-x="627" d="M367 179 L421 25 L335 25 L335 0 L634 0 L634 25 L563 25 L335 667 L304 667 L94 82 C78 31 70 24 25 25 L-10 25 L-10 0 L197 0 L197 25 L143 25 C118 25 110 28 110 40 C110 45 112 51 118 67 L157 179 L367 179 Z M357 204 L167 204 L262 469 L357 204 Z M395 846 L264 740 L276 726 L529 821 L529 846 L395 846 Z " />
<glyph glyph-name="Acircumflex" unicode="&#xc2;" horiz-adv-x="627" d="M367 179 L421 25 L335 25 L335 0 L634 0 L634 25 L563 25 L335 667 L304 667 L94 82 C78 31 70 24 25 25 L-10 25 L-10 0 L197 0 L197 25 L143 25 C118 25 110 28 110 40 C110 45 112 51 118 67 L157 179 L367 179 Z M357 204 L167 204 L262 469 L357 204 Z M162 726 L319 775 L475 726 L489 742 L336 846 L301 846 L148 742 L162 726 Z " />
<glyph glyph-name="Atilde" unicode="&#xc3;" horiz-adv-x="627" d="M367 179 L421 25 L335 25 L335 0 L634 0 L634 25 L563 25 L335 667 L304 667 L94 82 C78 31 70 24 25 25 L-10 25 L-10 0 L197 0 L197 25 L143 25 C118 25 110 28 110 40 C110 45 112 51 118 67 L157 179 L367 179 Z M357 204 L167 204 L262 469 L357 204 Z M183 737 C202 763 219 773 245 773 C261 773 278 769 321 754 C352 743 362 740 376 740 C398 740 425 752 444 770 C458 784 466 795 486 825 L467 836 C449 810 436 801 416 801 C401 801 394 803 351 819 C321 830 301 834 284 834 C236 834 200 808 164 746 L183 737 Z " />
<glyph glyph-name="Adieresis" unicode="&#xc4;" horiz-adv-x="627" d="M367 179 L421 25 L335 25 L335 0 L634 0 L634 25 L563 25 L335 667 L304 667 L94 82 C78 31 70 24 25 25 L-10 25 L-10 0 L197 0 L197 25 L143 25 C118 25 110 28 110 40 C110 45 112 51 118 67 L157 179 L367 179 Z M357 204 L167 204 L262 469 L357 204 Z M226 850 C192 850 164 822 164 789 C164 755 191 727 226 727 C260 727 287 755 287 789 C287 823 260 850 226 850 L226 850 Z M412 850 C378 850 350 822 350 789 C350 755 377 727 412 727 C446 727 473 755 473 789 C473 823 446 850 412 850 L412 850 Z " />
<glyph glyph-name="Aring" unicode="&#xc5;" horiz-adv-x="627" d="M367 179 L421 25 L335 25 L335 0 L634 0 L634 25 L563 25 L335 667 L304 667 L94 82 C78 31 70 24 25 25 L-10 25 L-10 0 L197 0 L197 25 L143 25 C118 25 110 28 110 40 C110 45 112 51 118 67 L157 179 L367 179 Z M357 204 L167 204 L262 469 L357 204 Z M321 877 C272 877 232 840 232 795 C232 747 271 710 321 710 C369 710 409 747 409 794 C409 840 370 877 321 877 L321 877 Z M321 838 C346 838 367 818 367 793 C367 769 346 749 321 749 C295 749 274 769 274 794 C274 818 295 838 321 838 L321 838 Z " />
<glyph glyph-name="AE" unicode="&#xc6;" horiz-adv-x="927" d="M410 182 L410 25 L329 25 L329 0 L878 0 L892 212 L865 212 C833 64 784 23 643 25 L549 25 L549 326 L575 326 C667 325 695 296 698 197 L725 197 L725 469 L698 469 C698 383 664 349 577 351 L549 351 L549 642 L667 642 C776 646 821 609 845 497 L871 497 L856 667 L328 667 L328 642 L364 642 C390 642 397 639 397 627 C397 620 393 610 385 596 L80 64 C59 33 41 24 5 25 L-20 25 L-20 0 L190 0 L190 25 L148 25 C112 25 105 28 105 43 C105 50 107 54 116 70 L180 182 L410 182 Z M410 207 L196 207 L410 582 L410 207 Z " />
<glyph glyph-name="Ccedilla" unicode="&#xc7;" horiz-adv-x="619" d="M362 -17 C425 -15 468 4 513 48 L540 0 L567 0 L576 186 L549 186 C515 74 445 10 356 10 C282 10 236 49 216 130 C207 166 205 200 205 299 C205 481 212 541 240 586 C268 634 311 657 371 657 C461 657 517 603 542 493 L568 493 L561 667 L534 667 L516 626 C475 665 425 684 361 684 C183 684 38 521 38 321 C38 136 154 2 331 -16 L308 -76 C343 -87 353 -98 353 -123 C353 -155 331 -180 304 -180 C282 -180 263 -167 263 -153 C263 -151 264 -148 265 -144 C268 -136 268 -133 268 -128 C268 -114 258 -104 244 -104 C228 -104 215 -118 215 -136 C215 -176 265 -207 329 -207 C400 -207 452 -173 452 -125 C452 -86 418 -59 368 -59 C364 -59 356 -60 346 -62 L362 -17 Z " />
<glyph glyph-name="Egrave" unicode="&#xc8;" horiz-adv-x="627" d="M110 25 L30 25 L30 0 L578 0 L592 212 L565 212 C533 64 484 23 343 25 L250 25 L250 326 L276 326 C368 325 395 296 398 197 L425 197 L425 469 L398 469 C399 384 364 349 278 351 L250 351 L250 642 L367 642 C477 646 521 609 545 497 L571 497 L556 667 L30 667 L30 642 L110 642 L110 25 Z M308 846 L173 846 L173 821 L427 726 L439 740 L308 846 Z " />
<glyph glyph-name="Eacute" unicode="&#xc9;" horiz-adv-x="627" d="M110 25 L30 25 L30 0 L578 0 L592 212 L565 212 C533 64 484 23 343 25 L250 25 L250 326 L276 326 C368 325 395 296 398 197 L425 197 L425 469 L398 469 C399 384 364 349 278 351 L250 351 L250 642 L367 642 C477 646 521 609 545 497 L571 497 L556 667 L30 667 L30 642 L110 642 L110 25 Z M392 846 L261 740 L272 726 L526 821 L526 846 L392 846 Z " />
<glyph glyph-name="Ecircumflex" unicode="&#xca;" horiz-adv-x="627" d="M110 25 L30 25 L30 0 L578 0 L592 212 L565 212 C533 64 484 23 343 25 L250 25 L250 326 L276 326 C368 325 395 296 398 197 L425 197 L425 469 L398 469 C399 384 364 349 278 351 L250 351 L250 642 L367 642 C477 646 521 609 545 497 L571 497 L556 667 L30 667 L30 642 L110 642 L110 25 Z M170 726 L327 775 L483 726 L497 742 L344 846 L309 846 L156 742 L170 726 Z " />
<glyph glyph-name="Edieresis" unicode="&#xcb;" horiz-adv-x="627" d="M110 25 L30 25 L30 0 L578 0 L592 212 L565 212 C533 64 484 23 343 25 L250 25 L250 326 L276 326 C368 325 395 296 398 197 L425 197 L425 469 L398 469 C399 384 364 349 278 351 L250 351 L250 642 L367 642 C477 646 521 609 545 497 L571 497 L556 667 L30 667 L30 642 L110 642 L110 25 Z M225 850 C191 850 163 822 163 789 C163 755 190 727 225 727 C259 727 286 755 286 789 C286 823 259 850 225 850 L225 850 Z M412 850 C378 850 350 822 350 789 C350 755 377 727 412 727 C446 727 473 755 473 789 C473 823 446 850 412 850 L412 850 Z " />
<glyph glyph-name="Igrave" unicode="&#xcc;" horiz-adv-x="360" d="M110 25 L30 25 L30 0 L330 0 L330 25 L250 25 L250 642 L330 642 L330 667 L30 667 L30 642 L110 642 L110 25 Z M158 846 L24 846 L24 821 L278 726 L289 740 L158 846 Z " />
<glyph glyph-name="Iacute" unicode="&#xcd;" horiz-adv-x="360" d="M110 25 L30 25 L30 0 L330 0 L330 25 L250 25 L250 642 L330 642 L330 667 L30 667 L30 642 L110 642 L110 25 Z M253 846 L122 740 L133 726 L387 821 L387 846 L253 846 Z " />
<glyph glyph-name="Icircumflex" unicode="&#xce;" horiz-adv-x="360" d="M110 25 L30 25 L30 0 L330 0 L330 25 L250 25 L250 642 L330 642 L330 667 L30 667 L30 642 L110 642 L110 25 Z M30 726 L180 775 L330 726 L344 742 L198 846 L162 846 L16 742 L30 726 Z " />
<glyph glyph-name="Idieresis" unicode="&#xcf;" horiz-adv-x="360" d="M110 25 L30 25 L30 0 L330 0 L330 25 L250 25 L250 642 L330 642 L330 667 L30 667 L30 642 L110 642 L110 25 Z M95 850 C61 850 33 822 33 789 C33 755 60 727 95 727 C129 727 156 755 156 789 C156 823 129 850 95 850 L95 850 Z M265 850 C231 850 203 822 203 789 C203 755 230 727 265 727 C299 727 326 755 326 789 C326 823 299 850 265 850 L265 850 Z " />
<glyph glyph-name="Eth" unicode="&#xd0;" horiz-adv-x="712" d="M110 330 L110 25 L30 25 L30 0 L342 0 C400 0 428 1 445 3 C485 9 524 26 557 52 C632 113 674 213 674 332 C674 485 601 612 490 652 C455 664 430 667 342 667 L30 667 L30 642 L110 642 L110 355 L30 355 L30 330 L110 330 Z M250 330 L390 330 L390 355 L250 355 L250 642 L342 642 C412 642 443 628 468 587 C498 536 507 477 507 334 C507 190 498 131 468 81 C443 39 412 25 342 25 L250 25 L250 330 Z " />
<glyph glyph-name="Ntilde" unicode="&#xd1;" horiz-adv-x="692" d="M566 -7 L589 -7 L589 570 C588 635 594 642 643 642 L669 642 L669 667 L479 667 L479 642 L505 642 C554 642 560 635 559 570 L559 241 L239 667 L23 667 L23 642 L49 642 C98 642 104 634 103 570 L103 97 C104 33 98 25 49 25 L23 25 L23 0 L226 0 L226 25 L187 25 C138 25 132 32 133 97 L133 585 L566 -7 Z M226 737 C246 763 263 773 289 773 C305 773 322 769 364 754 C395 743 406 740 419 740 C441 740 469 752 487 770 C502 784 510 795 530 825 L511 836 C493 810 479 801 460 801 C444 801 437 803 394 819 C364 830 345 834 328 834 C280 834 244 808 208 746 L226 737 Z " />
<glyph glyph-name="Ograve" unicode="&#xd2;" horiz-adv-x="732" d="M365 684 C279 684 204 654 146 597 C78 531 38 432 38 334 C38 234 78 136 146 70 C205 12 279 -17 365 -17 C452 -17 526 12 585 70 C652 135 693 235 693 329 C693 433 654 530 585 597 C525 655 453 684 365 684 L365 684 Z M366 657 C424 657 462 638 489 594 C516 550 526 476 526 329 C526 206 517 129 496 87 C470 34 430 10 366 10 C307 10 269 29 242 73 C216 117 205 192 205 334 C205 461 214 537 235 580 C260 633 301 657 366 657 L366 657 Z M328 846 L194 846 L194 821 L448 726 L459 740 L328 846 Z " />
<glyph glyph-name="Oacute" unicode="&#xd3;" horiz-adv-x="732" d="M365 684 C279 684 204 654 146 597 C78 531 38 432 38 334 C38 234 78 136 146 70 C205 12 279 -17 365 -17 C452 -17 526 12 585 70 C652 135 693 235 693 329 C693 433 654 530 585 597 C525 655 453 684 365 684 L365 684 Z M366 657 C424 657 462 638 489 594 C516 550 526 476 526 329 C526 206 517 129 496 87 C470 34 430 10 366 10 C307 10 269 29 242 73 C216 117 205 192 205 334 C205 461 214 537 235 580 C260 633 301 657 366 657 L366 657 Z M425 846 L294 740 L305 726 L559 821 L559 846 L425 846 Z " />
<glyph glyph-name="Ocircumflex" unicode="&#xd4;" horiz-adv-x="732" d="M365 684 C279 684 204 654 146 597 C78 531 38 432 38 334 C38 234 78 136 146 70 C205 12 279 -17 365 -17 C452 -17 526 12 585 70 C652 135 693 235 693 329 C693 433 654 530 585 597 C525 655 453 684 365 684 L365 684 Z M366 657 C424 657 462 638 489 594 C516 550 526 476 526 329 C526 206 517 129 496 87 C470 34 430 10 366 10 C307 10 269 29 242 73 C216 117 205 192 205 334 C205 461 214 537 235 580 C260 633 301 657 366 657 L366 657 Z M212 726 L369 775 L526 726 L540 742 L387 846 L352 846 L198 742 L212 726 Z " />
<glyph glyph-name="Otilde" unicode="&#xd5;" horiz-adv-x="732" d="M365 684 C279 684 204 654 146 597 C78 531 38 432 38 334 C38 234 78 136 146 70 C205 12 279 -17 365 -17 C452 -17 526 12 585 70 C652 135 693 235 693 329 C693 433 654 530 585 597 C525 655 453 684 365 684 L365 684 Z M366 657 C424 657 462 638 489 594 C516 550 526 476 526 329 C526 206 517 129 496 87 C470 34 430 10 366 10 C307 10 269 29 242 73 C216 117 205 192 205 334 C205 461 214 537 235 580 C260 633 301 657 366 657 L366 657 Z M240 737 C260 763 277 773 302 773 C318 773 335 769 378 754 C409 743 420 740 433 740 C455 740 482 752 501 770 C515 784 524 795 544 825 L525 836 C507 810 493 801 473 801 C458 801 451 803 408 819 C378 830 359 834 341 834 C293 834 257 808 221 746 L240 737 Z " />
<glyph glyph-name="Odieresis" unicode="&#xd6;" horiz-adv-x="732" d="M365 684 C279 684 204 654 146 597 C78 531 38 432 38 334 C38 234 78 136 146 70 C205 12 279 -17 365 -17 C452 -17 526 12 585 70 C652 135 693 235 693 329 C693 433 654 530 585 597 C525 655 453 684 365 684 L365 684 Z M366 657 C424 657 462 638 489 594 C516 550 526 476 526 329 C526 206 517 129 496 87 C470 34 430 10 366 10 C307 10 269 29 242 73 C216 117 205 192 205 334 C205 461 214 537 235 580 C260 633 301 657 366 657 L366 657 Z M276 850 C242 850 214 822 214 789 C214 755 241 727 276 727 C310 727 337 755 337 789 C337 823 310 850 276 850 L276 850 Z M463 850 C429 850 401 822 401 789 C401 755 428 727 463 727 C497 727 524 755 524 789 C524 823 497 850 463 850 L463 850 Z " />
<glyph glyph-name="multiply" unicode="&#xd7;" horiz-adv-x="500" d="M250 300 L398 152 L421 175 L273 323 L421 471 L398 494 L250 346 L102 494 L79 471 L227 323 L79 175 L102 152 L250 300 Z " />
<glyph glyph-name="Oslash" unicode="&#xd8;" horiz-adv-x="732" d="M681 662 L660 683 L582 600 C515 660 453 684 365 684 C279 684 205 655 146 597 C78 531 38 433 38 335 C38 242 69 158 127 92 L49 5 L72 -17 L148 68 C211 9 278 -17 366 -17 C452 -17 526 12 585 70 C653 136 693 234 693 333 C693 423 663 504 605 577 L681 662 Z M519 492 C525 437 526 406 526 340 C526 205 517 130 496 87 C471 34 430 10 367 10 C283 10 236 50 219 136 L519 492 Z M212 175 C207 231 205 264 205 328 C205 462 214 537 235 580 C261 633 301 657 365 657 C449 657 498 614 512 529 L212 175 Z " />
<glyph glyph-name="Ugrave" unicode="&#xd9;" horiz-adv-x="669" d="M100 642 L100 213 C100 160 101 133 104 119 C109 91 124 65 146 45 C187 8 267 -17 347 -17 C426 -17 493 7 530 48 C564 85 572 117 572 213 L572 570 C571 635 577 642 626 642 L652 642 L652 667 L462 667 L462 642 L488 642 C537 642 543 634 542 570 L542 214 C542 138 536 106 515 76 C490 39 442 18 381 18 C325 18 283 38 260 76 C244 101 240 130 240 213 L240 642 L330 642 L330 667 L20 667 L20 642 L100 642 Z M325 846 L191 846 L191 821 L444 726 L456 740 L325 846 Z " />
<glyph glyph-name="Uacute" unicode="&#xda;" horiz-adv-x="669" d="M100 642 L100 213 C100 160 101 133 104 119 C109 91 124 65 146 45 C187 8 267 -17 347 -17 C426 -17 493 7 530 48 C564 85 572 117 572 213 L572 570 C571 635 577 642 626 642 L652 642 L652 667 L462 667 L462 642 L488 642 C537 642 543 634 542 570 L542 214 C542 138 536 106 515 76 C490 39 442 18 381 18 C325 18 283 38 260 76 C244 101 240 130 240 213 L240 642 L330 642 L330 667 L20 667 L20 642 L100 642 Z M436 846 L305 740 L316 726 L570 821 L570 846 L436 846 Z " />
<glyph glyph-name="Ucircumflex" unicode="&#xdb;" horiz-adv-x="669" d="M100 642 L100 213 C100 160 101 133 104 119 C109 91 124 65 146 45 C187 8 267 -17 347 -17 C426 -17 493 7 530 48 C564 85 572 117 572 213 L572 570 C571 635 577 642 626 642 L652 642 L652 667 L462 667 L462 642 L488 642 C537 642 543 634 542 570 L542 214 C542 138 536 106 515 76 C490 39 442 18 381 18 C325 18 283 38 260 76 C244 101 240 130 240 213 L240 642 L330 642 L330 667 L20 667 L20 642 L100 642 Z M200 726 L357 775 L514 726 L528 742 L375 846 L339 846 L186 742 L200 726 Z " />
<glyph glyph-name="Udieresis" unicode="&#xdc;" horiz-adv-x="669" d="M100 642 L100 213 C100 160 101 133 104 119 C109 91 124 65 146 45 C187 8 267 -17 347 -17 C426 -17 493 7 530 48 C564 85 572 117 572 213 L572 570 C571 635 577 642 626 642 L652 642 L652 667 L462 667 L462 642 L488 642 C537 642 543 634 542 570 L542 214 C542 138 536 106 515 76 C490 39 442 18 381 18 C325 18 283 38 260 76 C244 101 240 130 240 213 L240 642 L330 642 L330 667 L20 667 L20 642 L100 642 Z M268 850 C234 850 206 822 206 789 C206 755 233 727 268 727 C302 727 329 755 329 789 C329 823 302 850 268 850 L268 850 Z M455 850 C421 850 393 822 393 789 C393 755 420 727 455 727 C489 727 516 755 516 789 C516 823 489 850 455 850 L455 850 Z " />
<glyph glyph-name="Yacute" unicode="&#xdd;" horiz-adv-x="599" d="M233 25 L143 25 L143 0 L463 0 L463 25 L373 25 L373 307 L515 590 C536 632 547 640 588 642 L606 642 L606 667 L413 667 L413 642 L463 642 C491 642 498 639 498 626 C498 620 498 620 487 598 L364 351 L201 642 L286 642 L286 667 L-21 667 L-21 642 L40 642 L233 307 L233 25 Z M415 846 L284 740 L295 726 L549 821 L549 846 L415 846 Z " />
<glyph glyph-name="Thorn" unicode="&#xde;" horiz-adv-x="629" d="M110 25 L30 25 L30 0 L340 0 L340 25 L250 25 L250 200 L325 200 C461 200 507 210 548 247 C585 280 605 326 605 376 C605 428 584 476 546 508 C503 546 459 555 324 555 L250 555 L250 642 L340 642 L340 667 L30 667 L30 642 L110 642 L110 25 Z M250 225 L250 530 L322 530 C427 530 453 499 453 375 C453 263 421 225 324 225 L250 225 Z " />
<glyph glyph-name="germandbls" unicode="&#xdf;" horiz-adv-x="553" d="M10 25 L10 0 L250 0 L250 25 L197 25 L197 250 C197 296 200 312 216 331 C238 357 278 376 313 376 C355 376 389 346 389 309 C389 276 361 249 324 245 C315 244 304 244 266 244 L266 219 L296 219 C331 219 349 215 367 202 C391 186 406 151 406 113 C406 63 378 20 345 20 C333 20 324 27 324 35 C324 38 325 41 328 44 C344 60 348 68 348 83 C348 105 329 123 305 123 C277 123 257 102 257 73 C257 26 306 -10 371 -10 C456 -10 520 44 520 116 C520 173 475 215 400 228 C456 234 492 266 492 309 C492 367 435 403 343 403 C277 403 239 389 197 349 L197 504 C197 568 199 592 209 611 C221 635 251 652 282 652 C303 652 324 642 324 631 C324 627 323 626 317 621 C309 614 304 602 304 590 C304 563 325 545 355 545 C385 545 409 568 409 597 C409 642 361 674 294 674 C221 674 146 639 113 589 C87 550 77 496 77 393 L77 25 L10 25 Z " />
<glyph glyph-name="agrave" unicode="&#xe0;" horiz-adv-x="457" d="M439 56 C429 46 421 41 412 41 C395 41 391 49 391 81 L391 263 C391 326 387 341 366 361 C339 387 288 403 229 403 C137 403 65 359 65 302 C65 272 86 249 114 249 C145 249 170 272 170 300 C170 312 167 321 159 333 C154 342 152 346 152 350 C152 366 177 376 214 376 C243 376 262 368 271 353 C278 339 278 339 279 258 L279 233 C119 220 32 168 32 84 C32 27 76 -10 142 -10 C195 -10 243 13 279 56 C299 17 330 -5 365 -5 C398 -5 430 11 455 40 L439 56 Z M279 156 C279 109 276 90 266 73 C254 53 235 42 212 42 C172 42 144 73 144 116 C144 175 191 205 279 206 L279 156 Z M235 621 L138 621 L138 596 L299 471 L315 480 L235 621 Z " />
<glyph glyph-name="aacute" unicode="&#xe1;" horiz-adv-x="457" d="M439 56 C429 46 421 41 412 41 C395 41 391 49 391 81 L391 263 C391 326 387 341 366 361 C339 387 288 403 229 403 C137 403 65 359 65 302 C65 272 86 249 114 249 C145 249 170 272 170 300 C170 312 167 321 159 333 C154 342 152 346 152 350 C152 366 177 376 214 376 C243 376 262 368 271 353 C278 339 278 339 279 258 L279 233 C119 220 32 168 32 84 C32 27 76 -10 142 -10 C195 -10 243 13 279 56 C299 17 330 -5 365 -5 C398 -5 430 11 455 40 L439 56 Z M279 156 C279 109 276 90 266 73 C254 53 235 42 212 42 C172 42 144 73 144 116 C144 175 191 205 279 206 L279 156 Z M296 621 L215 480 L232 471 L392 596 L392 621 L296 621 Z " />
<glyph glyph-name="acircumflex" unicode="&#xe2;" horiz-adv-x="457" d="M439 56 C429 46 421 41 412 41 C395 41 391 49 391 81 L391 263 C391 326 387 341 366 361 C339 387 288 403 229 403 C137 403 65 359 65 302 C65 272 86 249 114 249 C145 249 170 272 170 300 C170 312 167 321 159 333 C154 342 152 346 152 350 C152 366 177 376 214 376 C243 376 262 368 271 353 C278 339 278 339 279 258 L279 233 C119 220 32 168 32 84 C32 27 76 -10 142 -10 C195 -10 243 13 279 56 C299 17 330 -5 365 -5 C398 -5 430 11 455 40 L439 56 Z M279 156 C279 109 276 90 266 73 C254 53 235 42 212 42 C172 42 144 73 144 116 C144 175 191 205 279 206 L279 156 Z M130 472 L245 534 L360 472 L374 485 L257 621 L233 621 L116 485 L130 472 Z " />
<glyph glyph-name="atilde" unicode="&#xe3;" horiz-adv-x="457" d="M439 56 C429 46 421 41 412 41 C395 41 391 49 391 81 L391 263 C391 326 387 341 366 361 C339 387 288 403 229 403 C137 403 65 359 65 302 C65 272 86 249 114 249 C145 249 170 272 170 300 C170 312 167 321 159 333 C154 342 152 346 152 350 C152 366 177 376 214 376 C243 376 262 368 271 353 C278 339 278 339 279 258 L279 233 C119 220 32 168 32 84 C32 27 76 -10 142 -10 C195 -10 243 13 279 56 C299 17 330 -5 365 -5 C398 -5 430 11 455 40 L439 56 Z M279 156 C279 109 276 90 266 73 C254 53 235 42 212 42 C172 42 144 73 144 116 C144 175 191 205 279 206 L279 156 Z M121 495 C139 519 152 528 172 528 C189 528 217 521 242 511 C274 498 278 497 291 497 C328 497 363 527 391 581 L371 591 C358 569 343 558 326 558 C317 558 309 560 269 575 C238 586 225 589 209 589 C167 589 138 566 101 505 L121 495 Z " />
<glyph glyph-name="adieresis" unicode="&#xe4;" horiz-adv-x="457" d="M439 56 C429 46 421 41 412 41 C395 41 391 49 391 81 L391 263 C391 326 387 341 366 361 C339 387 288 403 229 403 C137 403 65 359 65 302 C65 272 86 249 114 249 C145 249 170 272 170 300 C170 312 167 321 159 333 C154 342 152 346 152 350 C152 366 177 376 214 376 C243 376 262 368 271 353 C278 339 278 339 279 258 L279 233 C119 220 32 168 32 84 C32 27 76 -10 142 -10 C195 -10 243 13 279 56 C299 17 330 -5 365 -5 C398 -5 430 11 455 40 L439 56 Z M279 156 C279 109 276 90 266 73 C254 53 235 42 212 42 C172 42 144 73 144 116 C144 175 191 205 279 206 L279 156 Z M156 610 C122 610 94 583 94 549 C94 514 121 487 156 487 C190 487 217 515 217 549 C217 583 190 610 156 610 L156 610 Z M329 610 C295 610 267 583 267 549 C267 514 294 487 329 487 C363 487 390 515 390 549 C390 583 363 610 329 610 L329 610 Z " />
<glyph glyph-name="aring" unicode="&#xe5;" horiz-adv-x="457" d="M439 56 C429 46 421 41 412 41 C395 41 391 49 391 81 L391 263 C391 326 387 341 366 361 C339 387 288 403 229 403 C137 403 65 359 65 302 C65 272 86 249 114 249 C145 249 170 272 170 300 C170 312 167 321 159 333 C154 342 152 346 152 350 C152 366 177 376 214 376 C243 376 262 368 271 353 C278 339 278 339 279 258 L279 233 C119 220 32 168 32 84 C32 27 76 -10 142 -10 C195 -10 243 13 279 56 C299 17 330 -5 365 -5 C398 -5 430 11 455 40 L439 56 Z M279 156 C279 109 276 90 266 73 C254 53 235 42 212 42 C172 42 144 73 144 116 C144 175 191 205 279 206 L279 156 Z M248 630 C200 630 160 591 160 545 C160 497 199 460 248 460 C297 460 336 497 336 544 C336 592 297 630 248 630 L248 630 Z M248 591 C273 591 294 570 294 544 C294 519 274 499 248 499 C222 499 202 519 202 544 C202 570 223 591 248 591 L248 591 Z " />
<glyph glyph-name="ae" unicode="&#xe6;" horiz-adv-x="673" d="M650 221 C641 332 568 403 463 403 C422 403 386 392 344 368 C314 392 279 403 229 403 C137 403 64 355 64 296 C64 267 87 244 117 244 C145 244 165 265 165 296 C165 310 161 322 153 337 C150 343 149 346 149 348 C149 361 184 376 216 376 C255 376 271 357 271 313 L271 228 C133 228 32 168 32 85 C32 31 80 -10 145 -10 C210 -10 262 18 305 77 C331 20 385 -10 462 -10 C518 -10 562 6 598 39 C617 55 628 71 650 110 L628 122 C588 51 544 20 483 20 C452 20 428 30 412 48 C393 69 388 89 388 141 L388 221 L650 221 Z M388 246 L388 274 C388 318 390 335 396 347 C405 367 422 376 451 376 C478 376 495 368 504 352 C512 338 514 323 514 274 L514 246 L388 246 Z M271 141 C271 101 270 89 263 77 C252 54 227 39 200 39 C164 39 141 67 141 110 C141 166 186 203 256 203 C261 203 264 203 271 202 L271 141 Z " />
<glyph glyph-name="ccedilla" unicode="&#xe7;" horiz-adv-x="431" d="M247 -10 C325 -9 391 34 421 106 L397 118 C365 54 318 20 263 20 C190 20 162 66 162 187 C162 331 185 376 260 376 C288 376 301 371 319 355 C296 339 282 316 282 291 C282 257 309 231 344 231 C379 231 408 260 408 295 C408 355 339 403 255 403 C132 403 32 309 32 193 C32 88 114 2 222 -9 L199 -72 C234 -74 254 -94 254 -125 C254 -154 232 -180 207 -180 C189 -180 173 -166 172 -150 L172 -145 C173 -141 173 -139 173 -135 C173 -123 162 -114 149 -114 C134 -114 124 -125 124 -140 C124 -172 163 -197 212 -197 C275 -197 329 -159 329 -115 C329 -77 293 -49 245 -49 C243 -49 238 -49 232 -50 L247 -10 Z " />
<glyph glyph-name="egrave" unicode="&#xe8;" horiz-adv-x="440" d="M417 221 L417 234 C417 327 336 403 236 403 C119 403 32 315 32 198 C32 128 60 73 113 33 C150 6 197 -10 240 -10 C316 -10 374 29 417 110 L393 121 C357 54 311 20 257 20 C221 20 192 37 179 66 C169 89 169 89 168 199 L168 221 L417 221 Z M168 246 L168 274 C168 319 170 335 176 348 C184 367 203 376 231 376 C258 376 276 368 285 352 C293 339 295 323 295 274 L295 246 L168 246 Z M221 621 L124 621 L124 596 L285 471 L301 480 L221 621 Z " />
<glyph glyph-name="eacute" unicode="&#xe9;" horiz-adv-x="440" d="M417 221 L417 234 C417 327 336 403 236 403 C119 403 32 315 32 198 C32 128 60 73 113 33 C150 6 197 -10 240 -10 C316 -10 374 29 417 110 L393 121 C357 54 311 20 257 20 C221 20 192 37 179 66 C169 89 169 89 168 199 L168 221 L417 221 Z M168 246 L168 274 C168 319 170 335 176 348 C184 367 203 376 231 376 C258 376 276 368 285 352 C293 339 295 323 295 274 L295 246 L168 246 Z M282 621 L202 480 L218 471 L379 596 L379 621 L282 621 Z " />
<glyph glyph-name="ecircumflex" unicode="&#xea;" horiz-adv-x="440" d="M417 221 L417 234 C417 327 336 403 236 403 C119 403 32 315 32 198 C32 128 60 73 113 33 C150 6 197 -10 240 -10 C316 -10 374 29 417 110 L393 121 C357 54 311 20 257 20 C221 20 192 37 179 66 C169 89 169 89 168 199 L168 221 L417 221 Z M168 246 L168 274 C168 319 170 335 176 348 C184 367 203 376 231 376 C258 376 276 368 285 352 C293 339 295 323 295 274 L295 246 L168 246 Z M126 472 L242 534 L357 472 L371 485 L253 621 L230 621 L113 485 L126 472 Z " />
<glyph glyph-name="edieresis" unicode="&#xeb;" horiz-adv-x="440" d="M417 221 L417 234 C417 327 336 403 236 403 C119 403 32 315 32 198 C32 128 60 73 113 33 C150 6 197 -10 240 -10 C316 -10 374 29 417 110 L393 121 C357 54 311 20 257 20 C221 20 192 37 179 66 C169 89 169 89 168 199 L168 221 L417 221 Z M168 246 L168 274 C168 319 170 335 176 348 C184 367 203 376 231 376 C258 376 276 368 285 352 C293 339 295 323 295 274 L295 246 L168 246 Z M150 610 C116 610 88 583 88 549 C88 514 115 487 150 487 C184 487 211 515 211 549 C211 583 184 610 150 610 L150 610 Z M323 610 C289 610 261 583 261 549 C261 514 288 487 323 487 C357 487 384 515 384 549 C384 583 357 610 323 610 L323 610 Z " />
<glyph glyph-name="igrave" unicode="&#xec;" horiz-adv-x="279" d="M85 25 L18 25 L18 0 L271 0 L271 25 L205 25 L205 404 C162 396 130 393 49 393 L18 393 L18 368 L85 368 L85 25 Z M117 621 L20 621 L20 596 L180 471 L197 480 L117 621 Z " />
<glyph glyph-name="iacute" unicode="&#xed;" horiz-adv-x="279" d="M85 25 L18 25 L18 0 L271 0 L271 25 L205 25 L205 404 C162 396 130 393 49 393 L18 393 L18 368 L85 368 L85 25 Z M200 621 L119 480 L136 471 L296 596 L296 621 L200 621 Z " />
<glyph glyph-name="icircumflex" unicode="&#xee;" horiz-adv-x="279" d="M84 25 L17 25 L17 0 L271 0 L271 25 L204 25 L204 404 C161 396 130 393 48 393 L17 393 L17 368 L84 368 L84 25 Z M15 472 L131 534 L246 472 L260 485 L143 621 L119 621 L2 485 L15 472 Z " />
<glyph glyph-name="idieresis" unicode="&#xef;" horiz-adv-x="279" d="M84 25 L17 25 L17 0 L271 0 L271 25 L204 25 L204 404 C161 396 130 393 48 393 L17 393 L17 368 L84 368 L84 25 Z M56 610 C22 610 -6 583 -6 549 C-6 514 21 487 56 487 C90 487 117 515 117 549 C117 583 90 610 56 610 L56 610 Z M213 610 C179 610 151 583 151 549 C151 514 178 487 213 487 C247 487 274 515 274 549 C274 583 247 610 213 610 L213 610 Z " />
<glyph glyph-name="eth" unicode="&#xf0;" horiz-adv-x="512" d="M177 517 L192 497 L274 555 C300 518 320 462 336 383 C305 399 290 403 257 403 C130 403 32 313 32 197 C32 80 129 -10 255 -10 C386 -10 480 79 480 202 C480 322 421 459 315 581 L397 639 L382 660 L299 602 C290 610 284 615 281 617 C271 626 260 635 250 645 C239 654 222 667 198 684 L179 661 C201 646 239 607 260 578 L177 517 Z M256 376 C289 376 316 363 331 339 C345 318 350 279 350 195 C350 123 345 81 335 60 C321 33 292 17 256 17 C223 17 196 30 181 54 C167 75 162 115 162 196 C162 271 167 312 177 333 C191 360 220 376 256 376 L256 376 Z " />
<glyph glyph-name="ntilde" unicode="&#xf1;" horiz-adv-x="557" d="M90 25 L23 25 L23 0 L263 0 L263 25 L210 25 L210 218 C210 267 212 278 223 300 C242 337 281 363 317 363 C354 363 367 340 367 274 L367 25 L313 25 L313 0 L553 0 L553 25 L487 25 L487 274 C487 329 480 351 456 372 C434 392 399 403 361 403 C301 403 247 377 210 331 L210 404 C166 396 134 393 54 393 L23 393 L23 368 L90 368 L90 25 Z M160 495 C178 519 191 528 211 528 C228 528 256 521 281 511 C313 498 317 497 331 497 C367 497 402 527 431 581 L410 591 C397 569 382 558 365 558 C356 558 348 560 308 575 C277 586 264 589 248 589 C206 589 177 566 140 505 L160 495 Z " />
<glyph glyph-name="ograve" unicode="&#xf2;" horiz-adv-x="512" d="M255 403 C130 403 32 312 32 197 C32 80 130 -10 256 -10 C381 -10 480 80 480 194 C480 313 383 403 255 403 L255 403 Z M256 376 C289 376 316 363 331 339 C345 318 350 279 350 195 C350 123 345 81 335 60 C321 33 292 17 256 17 C223 17 196 30 181 54 C167 75 162 115 162 196 C162 271 167 312 177 333 C191 360 220 376 256 376 L256 376 Z M254 621 L157 621 L157 596 L317 471 L334 480 L254 621 Z " />
<glyph glyph-name="oacute" unicode="&#xf3;" horiz-adv-x="512" d="M255 403 C130 403 32 312 32 197 C32 80 130 -10 256 -10 C381 -10 480 80 480 194 C480 313 383 403 255 403 L255 403 Z M256 376 C289 376 316 363 331 339 C345 318 350 279 350 195 C350 123 345 81 335 60 C321 33 292 17 256 17 C223 17 196 30 181 54 C167 75 162 115 162 196 C162 271 167 312 177 333 C191 360 220 376 256 376 L256 376 Z M317 621 L237 480 L254 471 L414 596 L414 621 L317 621 Z " />
<glyph glyph-name="ocircumflex" unicode="&#xf4;" horiz-adv-x="512" d="M255 403 C130 403 32 312 32 197 C32 80 130 -10 256 -10 C381 -10 480 80 480 194 C480 313 383 403 255 403 L255 403 Z M256 376 C289 376 316 363 331 339 C345 318 350 279 350 195 C350 123 345 81 335 60 C321 33 292 17 256 17 C223 17 196 30 181 54 C167 75 162 115 162 196 C162 271 167 312 177 333 C191 360 220 376 256 376 L256 376 Z M150 472 L266 534 L381 472 L395 485 L278 621 L254 621 L137 485 L150 472 Z " />
<glyph glyph-name="otilde" unicode="&#xf5;" horiz-adv-x="512" d="M255 403 C130 403 32 312 32 197 C32 80 130 -10 256 -10 C381 -10 480 80 480 194 C480 313 383 403 255 403 L255 403 Z M256 376 C289 376 316 363 331 339 C345 318 350 279 350 195 C350 123 345 81 335 60 C321 33 292 17 256 17 C223 17 196 30 181 54 C167 75 162 115 162 196 C162 271 167 312 177 333 C191 360 220 376 256 376 L256 376 Z M143 495 C161 519 174 528 194 528 C211 528 239 521 264 511 C296 498 300 497 314 497 C350 497 385 527 414 581 L393 591 C380 569 365 558 348 558 C339 558 331 560 291 575 C260 586 247 589 231 589 C189 589 160 566 123 505 L143 495 Z " />
<glyph glyph-name="odieresis" unicode="&#xf6;" horiz-adv-x="512" d="M255 403 C130 403 32 312 32 197 C32 80 130 -10 256 -10 C381 -10 480 80 480 194 C480 313 383 403 255 403 L255 403 Z M256 376 C289 376 316 363 331 339 C345 318 350 279 350 195 C350 123 345 81 335 60 C321 33 292 17 256 17 C223 17 196 30 181 54 C167 75 162 115 162 196 C162 271 167 312 177 333 C191 360 220 376 256 376 L256 376 Z M173 610 C139 610 111 583 111 549 C111 514 138 487 173 487 C207 487 234 515 234 549 C234 583 207 610 173 610 L173 610 Z M346 610 C312 610 284 583 284 549 C284 514 311 487 346 487 C380 487 407 515 407 549 C407 583 380 610 346 610 L346 610 Z " />
<glyph glyph-name="divide" unicode="&#xf7;" horiz-adv-x="500" d="M44 307 L455 307 L455 340 L44 340 L44 307 Z M250 248 C210 248 177 216 177 176 C177 135 209 103 250 103 C290 103 322 135 322 176 C322 216 290 248 250 248 L250 248 Z M250 546 C210 546 177 514 177 474 C177 433 209 401 250 401 C290 401 322 433 322 474 C322 514 290 546 250 546 L250 546 Z " />
<glyph glyph-name="oslash" unicode="&#xf8;" horiz-adv-x="512" d="M459 397 L438 417 L390 363 C348 391 309 403 256 403 C130 403 32 313 32 197 C32 138 54 90 101 46 L54 -5 L76 -25 L125 28 C165 2 205 -10 256 -10 C382 -10 480 80 480 197 C480 253 458 302 413 345 L459 397 Z M348 282 C350 240 350 221 350 196 C350 122 345 81 335 60 C321 33 292 17 256 17 C213 17 185 36 173 74 L348 282 Z M165 109 C163 156 162 173 162 199 C162 271 167 312 177 333 C192 360 220 376 256 376 C301 376 332 353 340 317 L165 109 Z " />
<glyph glyph-name="ugrave" unicode="&#xf9;" horiz-adv-x="526" d="M336 0 L522 0 L522 25 L456 25 L456 404 C412 396 381 393 300 393 L269 393 L269 368 L336 368 L336 171 C336 122 332 105 319 83 C301 54 266 33 236 33 C221 33 208 39 200 50 C191 61 190 69 190 110 L190 404 C146 396 115 393 34 393 L3 393 L3 368 L70 368 L70 133 C70 74 76 48 95 25 C113 2 145 -10 186 -10 C249 -10 289 11 336 69 L336 0 Z M264 621 L167 621 L167 596 L327 471 L344 480 L264 621 Z " />
<glyph glyph-name="uacute" unicode="&#xfa;" horiz-adv-x="526" d="M336 0 L522 0 L522 25 L456 25 L456 404 C412 396 381 393 300 393 L269 393 L269 368 L336 368 L336 171 C336 122 332 105 319 83 C301 54 266 33 236 33 C221 33 208 39 200 50 C191 61 190 69 190 110 L190 404 C146 396 115 393 34 393 L3 393 L3 368 L70 368 L70 133 C70 74 76 48 95 25 C113 2 145 -10 186 -10 C249 -10 289 11 336 69 L336 0 Z M314 621 L233 480 L250 471 L410 596 L410 621 L314 621 Z " />
<glyph glyph-name="ucircumflex" unicode="&#xfb;" horiz-adv-x="526" d="M336 0 L522 0 L522 25 L456 25 L456 404 C412 396 381 393 300 393 L269 393 L269 368 L336 368 L336 171 C336 122 332 105 319 83 C301 54 266 33 236 33 C221 33 208 39 200 50 C191 61 190 69 190 110 L190 404 C146 396 115 393 34 393 L3 393 L3 368 L70 368 L70 133 C70 74 76 48 95 25 C113 2 145 -10 186 -10 C249 -10 289 11 336 69 L336 0 Z M153 472 L268 534 L384 472 L397 485 L280 621 L256 621 L139 485 L153 472 Z " />
<glyph glyph-name="udieresis" unicode="&#xfc;" horiz-adv-x="526" d="M336 0 L522 0 L522 25 L456 25 L456 404 C412 396 381 393 300 393 L269 393 L269 368 L336 368 L336 171 C336 122 332 105 319 83 C301 54 266 33 236 33 C221 33 208 39 200 50 C191 61 190 69 190 110 L190 404 C146 396 115 393 34 393 L3 393 L3 368 L70 368 L70 133 C70 74 76 48 95 25 C113 2 145 -10 186 -10 C249 -10 289 11 336 69 L336 0 Z M183 610 C150 610 122 583 122 549 C122 514 149 487 183 487 C217 487 245 515 245 549 C245 583 217 610 183 610 L183 610 Z M357 610 C324 610 296 583 296 549 C296 514 323 487 357 487 C391 487 419 515 419 549 C419 583 391 610 357 610 L357 610 Z " />
<glyph glyph-name="yacute" unicode="&#xfd;" horiz-adv-x="447" d="M210 2 L162 -126 C142 -178 129 -200 119 -200 C113 -200 109 -197 105 -191 C91 -169 74 -158 54 -158 C25 -158 2 -182 2 -211 C2 -245 30 -270 67 -270 C91 -270 113 -259 132 -237 C149 -218 158 -200 183 -139 L374 329 C388 362 399 369 435 368 L459 368 L459 393 L289 393 L289 368 L321 368 C345 368 351 364 351 350 C351 344 349 335 343 322 L271 145 L170 368 L218 368 L218 393 L-12 393 L-12 368 L37 368 L210 2 Z M289 621 L209 480 L225 471 L386 596 L386 621 L289 621 Z " />
<glyph glyph-name="thorn" unicode="&#xfe;" horiz-adv-x="523" d="M70 -242 L3 -242 L3 -267 L256 -267 L256 -242 L190 -242 L190 70 C229 12 263 -10 316 -10 C411 -10 491 85 491 200 C491 310 410 403 313 403 C263 403 228 382 190 329 L190 678 C147 670 116 667 34 667 L3 667 L3 642 L70 642 L70 -242 Z M289 373 C341 373 361 322 361 190 C361 74 338 20 290 20 C231 20 185 96 185 193 C185 293 231 373 289 373 L289 373 Z " />
<glyph glyph-name="ydieresis" unicode="&#xff;" horiz-adv-x="447" d="M210 2 L162 -126 C142 -178 129 -200 119 -200 C113 -200 109 -197 105 -191 C91 -169 74 -158 54 -158 C25 -158 2 -182 2 -211 C2 -245 30 -270 67 -270 C91 -270 113 -259 132 -237 C149 -218 158 -200 183 -139 L374 329 C388 362 399 369 435 368 L459 368 L459 393 L289 393 L289 368 L321 368 C345 368 351 364 351 350 C351 344 349 335 343 322 L271 145 L170 368 L218 368 L218 393 L-12 393 L-12 368 L37 368 L210 2 Z M151 610 C117 610 89 583 89 549 C89 514 116 487 151 487 C185 487 212 515 212 549 C212 583 185 610 151 610 L151 610 Z M324 610 C290 610 262 583 262 549 C262 514 289 487 324 487 C358 487 385 515 385 549 C385 583 358 610 324 610 L324 610 Z " />
<glyph glyph-name="Amacron" unicode="&#x100;" horiz-adv-x="627" d="M367 179 L421 25 L335 25 L335 0 L634 0 L634 25 L563 25 L335 667 L304 667 L94 82 C78 31 70 24 25 25 L-10 25 L-10 0 L197 0 L197 25 L143 25 C118 25 110 28 110 40 C110 45 112 51 118 67 L157 179 L367 179 Z M357 204 L167 204 L262 469 L357 204 Z M148 806 L148 760 L476 760 L476 806 L148 806 Z " />
<glyph glyph-name="amacron" unicode="&#x101;" horiz-adv-x="457" d="M439 56 C429 46 421 41 412 41 C395 41 391 49 391 81 L391 263 C391 326 387 341 366 361 C339 387 288 403 229 403 C137 403 65 359 65 302 C65 272 86 249 114 249 C145 249 170 272 170 300 C170 312 167 321 159 333 C154 342 152 346 152 350 C152 366 177 376 214 376 C243 376 262 368 271 353 C278 339 278 339 279 258 L279 233 C119 220 32 168 32 84 C32 27 76 -10 142 -10 C195 -10 243 13 279 56 C299 17 330 -5 365 -5 C398 -5 430 11 455 40 L439 56 Z M279 156 C279 109 276 90 266 73 C254 53 235 42 212 42 C172 42 144 73 144 116 C144 175 191 205 279 206 L279 156 Z M93 563 L93 516 L377 516 L377 563 L93 563 Z " />
<glyph glyph-name="Abreve" unicode="&#x102;" horiz-adv-x="627" d="M367 179 L421 25 L335 25 L335 0 L634 0 L634 25 L563 25 L335 667 L304 667 L94 82 C78 31 70 24 25 25 L-10 25 L-10 0 L197 0 L197 25 L143 25 C118 25 110 28 110 40 C110 45 112 51 118 67 L157 179 L367 179 Z M357 204 L167 204 L262 469 L357 204 Z M167 848 C189 771 244 726 316 726 C388 726 443 771 465 848 L438 848 C410 811 374 796 316 796 C259 796 223 811 194 848 L167 848 Z " />
<glyph glyph-name="abreve" unicode="&#x103;" horiz-adv-x="457" d="M439 56 C429 46 421 41 412 41 C395 41 391 49 391 81 L391 263 C391 326 387 341 366 361 C339 387 288 403 229 403 C137 403 65 359 65 302 C65 272 86 249 114 249 C145 249 170 272 170 300 C170 312 167 321 159 333 C154 342 152 346 152 350 C152 366 177 376 214 376 C243 376 262 368 271 353 C278 339 278 339 279 258 L279 233 C119 220 32 168 32 84 C32 27 76 -10 142 -10 C195 -10 243 13 279 56 C299 17 330 -5 365 -5 C398 -5 430 11 455 40 L439 56 Z M279 156 C279 109 276 90 266 73 C254 53 235 42 212 42 C172 42 144 73 144 116 C144 175 191 205 279 206 L279 156 Z M345 615 C322 571 294 552 250 552 C208 552 176 574 161 615 L135 615 C143 532 190 477 253 477 C315 477 359 530 369 615 L345 615 Z " />
<glyph glyph-name="Aogonek" unicode="&#x104;" horiz-adv-x="627" d="M634 0 L634 25 L563 25 L335 667 L304 667 L94 82 C78 31 70 24 25 25 L-10 25 L-10 0 L197 0 L197 25 L143 25 C118 25 110 28 110 40 C110 45 112 51 118 67 L157 179 L367 179 L421 25 L335 25 L335 0 L526 0 C450 -37 424 -64 424 -107 C424 -152 458 -178 515 -178 C550 -178 575 -172 612 -154 L612 -127 C593 -134 583 -136 567 -136 C530 -136 508 -117 508 -86 C508 -57 527 -32 572 0 L634 0 Z M357 204 L167 204 L262 469 L357 204 Z " />
<glyph glyph-name="aogonek" unicode="&#x105;" horiz-adv-x="457" d="M439 56 C429 46 421 41 412 41 C395 41 391 49 391 81 L391 263 C391 326 387 341 366 361 C339 387 288 403 229 403 C137 403 65 359 65 302 C65 272 86 249 114 249 C145 249 170 272 170 300 C170 312 167 321 159 333 C154 342 152 346 152 350 C152 366 177 376 214 376 C243 376 262 368 271 353 C278 339 278 339 279 258 L279 233 C119 220 32 168 32 84 C32 27 76 -10 142 -10 C195 -10 243 13 279 56 C294 23 327 -2 358 -4 C292 -36 265 -66 265 -104 C265 -144 297 -169 348 -169 C384 -169 399 -165 446 -145 L446 -121 C427 -127 418 -129 401 -129 C365 -129 343 -112 343 -83 C343 -56 360 -34 415 8 C432 17 443 25 455 40 L439 56 Z M279 156 C279 109 276 90 266 73 C254 53 235 42 212 42 C172 42 144 73 144 116 C144 175 191 205 279 206 L279 156 Z " />
<glyph glyph-name="Cacute" unicode="&#x106;" horiz-adv-x="619" d="M561 667 L534 667 L516 626 C475 665 425 684 361 684 C183 684 38 521 38 321 C38 209 81 113 159 51 C214 8 286 -17 357 -17 C421 -17 463 1 513 48 L540 0 L567 0 L576 186 L549 186 C515 74 445 10 356 10 C282 10 236 49 216 130 C207 166 205 200 205 299 C205 481 212 541 240 586 C268 634 311 657 371 657 C461 657 517 603 542 493 L568 493 L561 667 Z M393 846 L262 740 L274 726 L528 821 L528 846 L393 846 Z " />
<glyph glyph-name="cacute" unicode="&#x107;" horiz-adv-x="431" d="M397 118 C365 54 318 20 263 20 C190 20 162 66 162 187 C162 331 185 376 260 376 C288 376 301 371 319 355 C296 339 282 316 282 291 C282 257 309 231 344 231 C379 231 408 260 408 295 C408 355 339 403 255 403 C132 403 32 309 32 193 C32 80 127 -10 244 -10 C325 -10 384 29 421 106 L397 118 Z M293 621 L213 480 L229 471 L390 596 L390 621 L293 621 Z " />
<glyph glyph-name="Ccircumflex" unicode="&#x108;" horiz-adv-x="619" d="M561 667 L534 667 L516 626 C475 665 425 684 361 684 C183 684 38 521 38 321 C38 209 81 113 159 51 C214 8 286 -17 357 -17 C421 -17 463 1 513 48 L540 0 L567 0 L576 186 L549 186 C515 74 445 10 356 10 C282 10 236 49 216 130 C207 166 205 200 205 299 C205 481 212 541 240 586 C268 634 311 657 371 657 C461 657 517 603 542 493 L568 493 L561 667 Z M207 726 L364 775 L520 726 L534 742 L381 846 L346 846 L193 742 L207 726 Z " />
<glyph glyph-name="Cdotaccent" unicode="&#x10a;" horiz-adv-x="619" d="M561 667 L534 667 L516 626 C475 665 425 684 361 684 C183 684 38 521 38 321 C38 209 81 113 159 51 C214 8 286 -17 357 -17 C421 -17 463 1 513 48 L540 0 L567 0 L576 186 L549 186 C515 74 445 10 356 10 C282 10 236 49 216 130 C207 166 205 200 205 299 C205 481 212 541 240 586 C268 634 311 657 371 657 C461 657 517 603 542 493 L568 493 L561 667 Z M353 850 C319 850 291 822 291 789 C291 755 318 727 353 727 C387 727 414 755 414 789 C414 823 387 850 353 850 L353 850 Z " />
<glyph glyph-name="cdotaccent" unicode="&#x10b;" horiz-adv-x="431" d="M397 118 C365 54 318 20 263 20 C190 20 162 66 162 187 C162 331 185 376 260 376 C288 376 301 371 319 355 C296 339 282 316 282 291 C282 257 309 231 344 231 C379 231 408 260 408 295 C408 355 339 403 255 403 C132 403 32 309 32 193 C32 80 127 -10 244 -10 C325 -10 384 29 421 106 L397 118 Z M254 610 C220 610 192 583 192 549 C192 514 219 487 254 487 C288 487 315 515 315 549 C315 583 288 610 254 610 L254 610 Z " />
<glyph glyph-name="Ccaron" unicode="&#x10c;" horiz-adv-x="619" d="M561 667 L534 667 L516 626 C475 665 425 684 361 684 C183 684 38 521 38 321 C38 209 81 113 159 51 C214 8 286 -17 357 -17 C421 -17 463 1 513 48 L540 0 L567 0 L576 186 L549 186 C515 74 445 10 356 10 C282 10 236 49 216 130 C207 166 205 200 205 299 C205 481 212 541 240 586 C268 634 311 657 371 657 C461 657 517 603 542 493 L568 493 L561 667 Z M516 847 L359 798 L203 847 L189 831 L342 727 L377 727 L530 831 L516 847 Z " />
<glyph glyph-name="ccaron" unicode="&#x10d;" horiz-adv-x="431" d="M397 118 C365 54 318 20 263 20 C190 20 162 66 162 187 C162 331 185 376 260 376 C288 376 301 371 319 355 C296 339 282 316 282 291 C282 257 309 231 344 231 C379 231 408 260 408 295 C408 355 339 403 255 403 C132 403 32 309 32 193 C32 80 127 -10 244 -10 C325 -10 384 29 421 106 L397 118 Z M369 621 L254 559 L138 621 L125 608 L242 472 L266 472 L383 608 L369 621 Z " />
<glyph glyph-name="Dcaron" unicode="&#x10e;" horiz-adv-x="712" d="M110 25 L30 25 L30 0 L342 0 C400 0 428 1 445 3 C485 9 524 26 557 52 C632 113 674 213 674 332 C674 485 601 612 490 652 C455 664 430 667 342 667 L30 667 L30 642 L110 642 L110 25 Z M250 25 L250 642 L342 642 C412 642 443 628 468 587 C498 536 507 477 507 334 C507 190 498 131 468 80 C443 39 412 25 342 25 L250 25 Z M484 847 L327 798 L170 847 L156 831 L309 727 L345 727 L498 831 L484 847 Z " />
<glyph glyph-name="dcaron" unicode="&#x10f;" horiz-adv-x="652" d="M333 0 L520 0 L520 25 L453 25 L453 678 C410 670 379 667 297 667 L266 667 L266 642 L333 642 L333 335 C295 384 261 403 211 403 C113 403 32 308 32 193 C32 79 112 -10 215 -10 C266 -10 303 12 333 60 L333 0 Z M239 373 C264 373 291 356 309 329 C328 303 337 256 337 194 C337 94 297 21 241 21 C218 21 199 32 187 52 C173 77 162 144 162 211 C162 318 188 373 239 373 L239 373 Z M544 439 C619 485 650 524 650 576 C650 632 610 678 561 678 C524 678 493 649 493 614 C493 579 521 550 554 550 C577 550 596 561 608 583 C612 571 614 564 614 555 C614 520 580 485 523 461 L544 439 Z " />
<glyph glyph-name="Dcroat" unicode="&#x110;" horiz-adv-x="712" d="M110 330 L110 25 L30 25 L30 0 L342 0 C400 0 428 1 445 3 C485 9 524 26 557 52 C632 113 674 213 674 332 C674 485 601 612 490 652 C455 664 430 667 342 667 L30 667 L30 642 L110 642 L110 355 L30 355 L30 330 L110 330 Z M250 330 L390 330 L390 355 L250 355 L250 642 L342 642 C412 642 443 628 468 587 C498 536 507 477 507 334 C507 190 498 131 468 81 C443 39 412 25 342 25 L250 25 L250 330 Z " />
<glyph glyph-name="dcroat" unicode="&#x111;" horiz-adv-x="523" d="M333 534 L333 335 C295 384 261 403 211 403 C113 403 32 308 32 193 C32 79 112 -10 215 -10 C266 -10 303 12 333 60 L333 0 L520 0 L520 25 L453 25 L453 534 L520 534 L520 559 L453 559 L453 678 C410 670 379 667 297 667 L266 667 L266 642 L333 642 L333 559 L165 559 L165 534 L333 534 Z M239 373 C264 373 291 356 309 329 C328 303 337 256 337 194 C337 94 297 21 241 21 C218 21 199 32 187 52 C173 77 162 144 162 211 C162 318 188 373 239 373 L239 373 Z " />
<glyph glyph-name="Emacron" unicode="&#x112;" horiz-adv-x="627" d="M110 25 L30 25 L30 0 L578 0 L592 212 L565 212 C533 64 484 23 343 25 L250 25 L250 326 L276 326 C368 325 395 296 398 197 L425 197 L425 469 L398 469 C399 384 364 349 278 351 L250 351 L250 642 L367 642 C477 646 521 609 545 497 L571 497 L556 667 L30 667 L30 642 L110 642 L110 25 Z M154 806 L154 760 L481 760 L481 806 L154 806 Z " />
<glyph glyph-name="emacron" unicode="&#x113;" horiz-adv-x="440" d="M417 221 L417 234 C417 327 336 403 236 403 C119 403 32 315 32 198 C32 128 60 73 113 33 C150 6 197 -10 240 -10 C316 -10 374 29 417 110 L393 121 C357 54 311 20 257 20 C221 20 192 37 179 66 C169 89 169 89 168 199 L168 221 L417 221 Z M168 246 L168 274 C168 319 170 335 176 348 C184 367 203 376 231 376 C258 376 276 368 285 352 C293 339 295 323 295 274 L295 246 L168 246 Z M89 563 L89 516 L372 516 L372 563 L89 563 Z " />
<glyph glyph-name="Ebreve" unicode="&#x114;" horiz-adv-x="627" d="M110 25 L30 25 L30 0 L578 0 L592 212 L565 212 C533 64 484 23 343 25 L250 25 L250 326 L276 326 C368 325 395 296 398 197 L425 197 L425 469 L398 469 C399 384 364 349 278 351 L250 351 L250 642 L367 642 C477 646 521 609 545 497 L571 497 L556 667 L30 667 L30 642 L110 642 L110 25 Z M183 848 C205 771 260 726 332 726 C404 726 459 771 481 848 L454 848 C425 811 390 796 332 796 C275 796 239 811 210 848 L183 848 Z " />
<glyph glyph-name="ebreve" unicode="&#x115;" horiz-adv-x="440" d="M417 221 L417 234 C417 327 336 403 236 403 C119 403 32 315 32 198 C32 128 60 73 113 33 C150 6 197 -10 240 -10 C316 -10 374 29 417 110 L393 121 C357 54 311 20 257 20 C221 20 192 37 179 66 C169 89 169 89 168 199 L168 221 L417 221 Z M168 246 L168 274 C168 319 170 335 176 348 C184 367 203 376 231 376 C258 376 276 368 285 352 C293 339 295 323 295 274 L295 246 L168 246 Z M330 615 C307 571 280 552 236 552 C193 552 161 574 146 615 L120 615 C128 532 175 477 238 477 C300 477 344 530 354 615 L330 615 Z " />
<glyph glyph-name="Edotaccent" unicode="&#x116;" horiz-adv-x="627" d="M110 25 L30 25 L30 0 L578 0 L592 212 L565 212 C533 64 484 23 343 25 L250 25 L250 326 L276 326 C368 325 395 296 398 197 L425 197 L425 469 L398 469 C399 384 364 349 278 351 L250 351 L250 642 L367 642 C477 646 521 609 545 497 L571 497 L556 667 L30 667 L30 642 L110 642 L110 25 Z M332 850 C298 850 270 822 270 789 C270 755 297 727 332 727 C366 727 393 755 393 789 C393 823 366 850 332 850 L332 850 Z " />
<glyph glyph-name="edotaccent" unicode="&#x117;" horiz-adv-x="440" d="M417 221 L417 234 C417 327 336 403 236 403 C119 403 32 315 32 198 C32 128 60 73 113 33 C150 6 197 -10 240 -10 C316 -10 374 29 417 110 L393 121 C357 54 311 20 257 20 C221 20 192 37 179 66 C169 89 169 89 168 199 L168 221 L417 221 Z M168 246 L168 274 C168 319 170 335 176 348 C184 367 203 376 231 376 C258 376 276 368 285 352 C293 339 295 323 295 274 L295 246 L168 246 Z M240 610 C206 610 178 583 178 549 C178 514 205 487 240 487 C274 487 301 515 301 549 C301 583 274 610 240 610 L240 610 Z " />
<glyph glyph-name="Eogonek" unicode="&#x118;" horiz-adv-x="627" d="M578 0 L592 212 L565 212 C533 64 484 23 343 25 L250 25 L250 326 L276 326 C368 325 395 296 398 197 L425 197 L425 469 L398 469 C399 384 364 349 278 351 L250 351 L250 642 L367 642 C477 646 521 609 545 497 L571 497 L556 667 L30 667 L30 642 L110 642 L110 25 L30 25 L30 0 L492 0 C416 -37 390 -64 390 -107 C390 -152 424 -178 481 -178 C516 -178 541 -172 578 -154 L578 -127 C559 -134 549 -136 533 -136 C496 -136 474 -117 474 -86 C474 -57 493 -32 538 0 L578 0 Z " />
<glyph glyph-name="eogonek" unicode="&#x119;" horiz-adv-x="440" d="M366 -121 C347 -127 337 -129 321 -129 C285 -129 263 -112 263 -83 C263 -60 275 -42 310 -12 C389 60 392 63 417 110 L393 121 C357 54 311 20 257 20 C221 20 192 37 179 66 C169 89 169 89 168 199 L168 221 L417 221 L417 234 C417 327 336 403 236 403 C119 403 32 315 32 198 C32 128 60 73 113 33 C150 6 197 -10 241 -10 C252 -10 260 -9 272 -7 C208 -41 185 -66 185 -104 C185 -144 217 -169 268 -169 C304 -169 319 -165 366 -145 L366 -121 Z M168 246 L168 274 C168 319 170 335 176 348 C184 367 203 376 231 376 C258 376 276 368 285 352 C293 339 295 323 295 274 L295 246 L168 246 Z " />
<glyph glyph-name="Ecaron" unicode="&#x11a;" horiz-adv-x="627" d="M110 25 L30 25 L30 0 L578 0 L592 212 L565 212 C533 64 484 23 343 25 L250 25 L250 326 L276 326 C368 325 395 296 398 197 L425 197 L425 469 L398 469 C399 384 364 349 278 351 L250 351 L250 642 L367 642 C477 646 521 609 545 497 L571 497 L556 667 L30 667 L30 642 L110 642 L110 25 Z M489 847 L332 798 L175 847 L161 831 L315 727 L350 727 L503 831 L489 847 Z " />
<glyph glyph-name="ecaron" unicode="&#x11b;" horiz-adv-x="440" d="M417 221 L417 234 C417 327 336 403 236 403 C119 403 32 315 32 198 C32 128 60 73 113 33 C150 6 197 -10 240 -10 C316 -10 374 29 417 110 L393 121 C357 54 311 20 257 20 C221 20 192 37 179 66 C169 89 169 89 168 199 L168 221 L417 221 Z M168 246 L168 274 C168 319 170 335 176 348 C184 367 203 376 231 376 C258 376 276 368 285 352 C293 339 295 323 295 274 L295 246 L168 246 Z M363 621 L248 559 L132 621 L119 608 L236 472 L260 472 L377 608 L363 621 Z " />
<glyph glyph-name="Gcircumflex" unicode="&#x11c;" horiz-adv-x="662" d="M566 667 L539 667 L509 635 C461 668 409 684 353 684 C281 684 207 654 149 602 C74 534 35 440 35 326 C35 127 160 -17 334 -17 C393 -17 461 4 512 37 C539 55 559 72 594 109 L594 224 L654 224 L654 249 L354 249 L354 224 L454 224 L454 109 C454 52 402 10 332 10 C307 10 282 15 264 25 C232 41 218 65 211 116 C207 149 202 268 202 350 C202 489 211 559 232 596 C254 635 301 657 359 657 C414 657 465 636 493 602 C517 572 529 540 539 480 L566 480 L566 667 Z M200 726 L357 775 L514 726 L528 742 L375 846 L340 846 L187 742 L200 726 Z " />
<glyph glyph-name="gcircumflex" unicode="&#x11d;" horiz-adv-x="494" d="M221 35 L138 35 L129 35 C93 35 78 43 78 64 C78 89 107 116 146 127 C178 112 207 106 240 106 C343 106 417 169 417 256 C417 282 411 304 397 327 C397 339 401 345 408 345 C412 345 413 344 417 340 C427 328 437 323 451 323 C472 323 488 340 488 363 C488 389 469 408 443 408 C414 408 394 389 380 350 C339 387 296 403 239 403 C137 403 60 339 60 255 C60 208 80 172 123 141 C66 124 27 76 27 23 C27 -25 53 -59 103 -73 C54 -86 29 -114 29 -154 C29 -222 115 -271 232 -271 C371 -271 460 -202 460 -94 C460 -54 447 -20 422 4 C398 27 368 36 315 36 L221 35 Z M177 292 C177 327 180 341 189 354 C199 368 217 376 238 376 C259 376 277 368 287 354 C296 341 299 327 299 292 L299 217 C299 156 282 133 238 133 C194 133 177 156 177 217 L177 292 Z M359 -81 C396 -81 413 -98 413 -132 C413 -196 338 -244 236 -244 C151 -244 95 -205 95 -146 C95 -122 104 -102 126 -81 L359 -81 Z M134 472 L249 534 L365 472 L378 485 L261 621 L237 621 L120 485 L134 472 Z " />
<glyph glyph-name="Gbreve" unicode="&#x11e;" horiz-adv-x="662" d="M566 667 L539 667 L509 635 C461 668 409 684 353 684 C281 684 207 654 149 602 C74 534 35 440 35 326 C35 127 160 -17 334 -17 C393 -17 461 4 512 37 C539 55 559 72 594 109 L594 224 L654 224 L654 249 L354 249 L354 224 L454 224 L454 109 C454 52 402 10 332 10 C307 10 282 15 264 25 C232 41 218 65 211 116 C207 149 202 268 202 350 C202 489 211 559 232 596 C254 635 301 657 359 657 C414 657 465 636 493 602 C517 572 529 540 539 480 L566 480 L566 667 Z M202 848 C224 771 279 726 351 726 C423 726 478 771 500 848 L473 848 C444 811 408 796 351 796 C294 796 258 811 229 848 L202 848 Z " />
<glyph glyph-name="gbreve" unicode="&#x11f;" horiz-adv-x="494" d="M221 35 L138 35 L129 35 C93 35 78 43 78 64 C78 89 107 116 146 127 C178 112 207 106 240 106 C343 106 417 169 417 256 C417 282 411 304 397 327 C397 339 401 345 408 345 C412 345 413 344 417 340 C427 328 437 323 451 323 C472 323 488 340 488 363 C488 389 469 408 443 408 C414 408 394 389 380 350 C339 387 296 403 239 403 C137 403 60 339 60 255 C60 208 80 172 123 141 C66 124 27 76 27 23 C27 -25 53 -59 103 -73 C54 -86 29 -114 29 -154 C29 -222 115 -271 232 -271 C371 -271 460 -202 460 -94 C460 -54 447 -20 422 4 C398 27 368 36 315 36 L221 35 Z M177 292 C177 327 180 341 189 354 C199 368 217 376 238 376 C259 376 277 368 287 354 C296 341 299 327 299 292 L299 217 C299 156 282 133 238 133 C194 133 177 156 177 217 L177 292 Z M359 -81 C396 -81 413 -98 413 -132 C413 -196 338 -244 236 -244 C151 -244 95 -205 95 -146 C95 -122 104 -102 126 -81 L359 -81 Z M340 615 C317 571 289 552 245 552 C203 552 171 574 156 615 L130 615 C138 532 185 477 248 477 C310 477 354 530 364 615 L340 615 Z " />
<glyph glyph-name="Gdotaccent" unicode="&#x120;" horiz-adv-x="662" d="M566 667 L539 667 L509 635 C461 668 409 684 353 684 C281 684 207 654 149 602 C74 534 35 440 35 326 C35 127 160 -17 334 -17 C393 -17 461 4 512 37 C539 55 559 72 594 109 L594 224 L654 224 L654 249 L354 249 L354 224 L454 224 L454 109 C454 52 402 10 332 10 C307 10 282 15 264 25 C232 41 218 65 211 116 C207 149 202 268 202 350 C202 489 211 559 232 596 C254 635 301 657 359 657 C414 657 465 636 493 602 C517 572 529 540 539 480 L566 480 L566 667 Z M351 850 C317 850 289 822 289 789 C289 755 316 727 351 727 C385 727 412 755 412 789 C412 823 385 850 351 850 L351 850 Z " />
<glyph glyph-name="gdotaccent" unicode="&#x121;" horiz-adv-x="494" d="M221 35 L138 35 L129 35 C93 35 78 43 78 64 C78 89 107 116 146 127 C178 112 207 106 240 106 C343 106 417 169 417 256 C417 282 411 304 397 327 C397 339 401 345 408 345 C412 345 413 344 417 340 C427 328 437 323 451 323 C472 323 488 340 488 363 C488 389 469 408 443 408 C414 408 394 389 380 350 C339 387 296 403 239 403 C137 403 60 339 60 255 C60 208 80 172 123 141 C66 124 27 76 27 23 C27 -25 53 -59 103 -73 C54 -86 29 -114 29 -154 C29 -222 115 -271 232 -271 C371 -271 460 -202 460 -94 C460 -54 447 -20 422 4 C398 27 368 36 315 36 L221 35 Z M177 292 C177 327 180 341 189 354 C199 368 217 376 238 376 C259 376 277 368 287 354 C296 341 299 327 299 292 L299 217 C299 156 282 133 238 133 C194 133 177 156 177 217 L177 292 Z M359 -81 C396 -81 413 -98 413 -132 C413 -196 338 -244 236 -244 C151 -244 95 -205 95 -146 C95 -122 104 -102 126 -81 L359 -81 Z M245 610 C211 610 183 583 183 549 C183 514 210 487 245 487 C279 487 306 515 306 549 C306 583 279 610 245 610 L245 610 Z " />
<glyph glyph-name="Gcommaaccent" unicode="&#x122;" horiz-adv-x="662" d="M566 667 L539 667 L509 635 C461 668 409 684 353 684 C281 684 207 654 149 602 C74 534 35 440 35 326 C35 127 160 -17 334 -17 C393 -17 461 4 512 37 C539 55 559 72 594 109 L594 224 L654 224 L654 249 L354 249 L354 224 L454 224 L454 109 C454 52 402 10 332 10 C307 10 282 15 264 25 C232 41 218 65 211 116 C207 149 202 268 202 350 C202 489 211 559 232 596 C254 635 301 657 359 657 C414 657 465 636 493 602 C517 572 529 540 539 480 L566 480 L566 667 Z M312 -319 C397 -263 430 -218 430 -158 C430 -98 388 -49 336 -49 C296 -49 264 -80 264 -117 C264 -154 293 -185 329 -185 C353 -185 373 -173 385 -150 C390 -162 392 -170 392 -181 C392 -224 357 -268 296 -300 L312 -319 Z " />
<glyph glyph-name="gcommaaccent" unicode="&#x123;" horiz-adv-x="494" d="M221 35 L138 35 L129 35 C93 35 78 43 78 64 C78 89 107 116 146 127 C178 112 207 106 240 106 C343 106 417 169 417 256 C417 282 411 304 397 327 C397 339 401 345 408 345 C412 345 413 344 417 340 C427 328 437 323 451 323 C472 323 488 340 488 363 C488 389 469 408 443 408 C414 408 394 389 380 350 C339 387 296 403 239 403 C137 403 60 339 60 255 C60 208 80 172 123 141 C66 124 27 76 27 23 C27 -25 53 -59 103 -73 C54 -86 29 -114 29 -154 C29 -222 115 -271 232 -271 C371 -271 460 -202 460 -94 C460 -54 447 -20 422 4 C398 27 368 36 315 36 L221 35 Z M177 292 C177 327 180 341 189 354 C199 368 217 376 238 376 C259 376 277 368 287 354 C296 341 299 327 299 292 L299 217 C299 156 282 133 238 133 C194 133 177 156 177 217 L177 292 Z M359 -81 C396 -81 413 -98 413 -132 C413 -196 338 -244 236 -244 C151 -244 95 -205 95 -146 C95 -122 104 -102 126 -81 L359 -81 Z M267 685 C191 639 161 600 161 548 C161 492 201 446 250 446 C287 446 317 475 317 511 C317 546 289 575 256 575 C233 575 214 563 203 541 C198 554 197 560 197 569 C197 604 231 639 287 663 L267 685 Z " />
<glyph glyph-name="Hcircumflex" unicode="&#x124;" horiz-adv-x="733" d="M110 25 L30 25 L30 0 L340 0 L340 25 L250 25 L250 330 L483 330 L483 25 L393 25 L393 0 L703 0 L703 25 L623 25 L623 642 L703 642 L703 667 L393 667 L393 642 L483 642 L483 355 L250 355 L250 642 L340 642 L340 667 L30 667 L30 642 L110 642 L110 25 Z M210 726 L367 775 L523 726 L537 742 L384 846 L349 846 L196 742 L210 726 Z " />
<glyph glyph-name="Hbar" unicode="&#x126;" horiz-adv-x="733" d="M110 458 L110 25 L30 25 L30 0 L340 0 L340 25 L250 25 L250 330 L483 330 L483 25 L393 25 L393 0 L703 0 L703 25 L623 25 L623 458 L692 458 L692 483 L623 483 L623 642 L703 642 L703 667 L393 667 L393 642 L483 642 L483 483 L250 483 L250 642 L340 642 L340 667 L30 667 L30 642 L110 642 L110 483 L36 483 L36 458 L110 458 Z M250 458 L483 458 L483 355 L250 355 L250 458 Z " />
<glyph glyph-name="hbar" unicode="&#x127;" horiz-adv-x="548" d="M77 534 L77 25 L10 25 L10 0 L250 0 L250 25 L197 25 L197 196 C197 250 202 279 216 304 C234 338 269 360 303 360 C320 360 337 353 345 342 C355 330 357 317 357 271 L357 25 L304 25 L304 0 L543 0 L543 25 L477 25 L477 271 C477 330 471 351 450 371 C429 392 393 403 350 403 C287 403 241 380 197 326 L197 534 L363 534 L363 559 L197 559 L197 678 C153 670 121 667 41 667 L10 667 L10 642 L77 642 L77 559 L10 559 L10 534 L77 534 Z " />
<glyph glyph-name="Imacron" unicode="&#x12a;" horiz-adv-x="360" d="M110 25 L30 25 L30 0 L330 0 L330 25 L250 25 L250 642 L330 642 L330 667 L30 667 L30 642 L110 642 L110 25 Z M16 806 L16 760 L343 760 L343 806 L16 806 Z " />
<glyph glyph-name="imacron" unicode="&#x12b;" horiz-adv-x="279" d="M85 25 L18 25 L18 0 L272 0 L272 25 L205 25 L205 404 C162 396 131 393 49 393 L18 393 L18 368 L85 368 L85 25 Z M3 563 L3 516 L255 516 L255 563 L3 563 Z " />
<glyph glyph-name="ibreve" unicode="&#x12d;" horiz-adv-x="279" d="M85 25 L18 25 L18 0 L271 0 L271 25 L205 25 L205 404 C162 396 130 393 49 393 L18 393 L18 368 L85 368 L85 25 Z M237 615 C215 571 187 552 143 552 C100 552 69 574 53 615 L27 615 C36 532 82 477 145 477 C207 477 252 530 262 615 L237 615 Z " />
<glyph glyph-name="Iogonek" unicode="&#x12e;" horiz-adv-x="360" d="M330 0 L330 25 L250 25 L250 642 L330 642 L330 667 L30 667 L30 642 L110 642 L110 25 L30 25 L30 0 L216 0 C138 -38 113 -64 113 -107 C113 -152 147 -178 204 -178 C239 -178 264 -172 302 -154 L302 -127 C282 -134 273 -136 256 -136 C219 -136 197 -117 197 -86 C197 -57 215 -33 262 0 L330 0 Z " />
<glyph glyph-name="iogonek" unicode="&#x12f;" horiz-adv-x="279" d="M271 0 L271 25 L205 25 L205 404 C162 396 130 393 49 393 L18 393 L18 368 L85 368 L85 25 L18 25 L18 0 L179 0 C104 -37 78 -64 78 -104 C78 -144 110 -169 161 -169 C197 -169 212 -165 259 -145 L259 -121 C239 -127 230 -129 214 -129 C178 -129 156 -112 156 -83 C156 -56 175 -31 219 0 L271 0 Z M132 635 C96 635 66 605 66 569 C66 532 95 502 132 502 C169 502 199 532 199 569 C199 605 169 635 132 635 L132 635 Z " />
<glyph glyph-name="Idotaccent" unicode="&#x130;" horiz-adv-x="360" d="M110 25 L30 25 L30 0 L330 0 L330 25 L250 25 L250 642 L330 642 L330 667 L30 667 L30 642 L110 642 L110 25 Z M180 850 C146 850 118 822 118 789 C118 755 145 727 180 727 C214 727 241 755 241 789 C241 823 214 850 180 850 L180 850 Z " />
<glyph glyph-name="dotlessi" unicode="&#x131;" horiz-adv-x="279" d="M85 25 L18 25 L18 0 L271 0 L271 25 L205 25 L205 404 C162 396 130 393 49 393 L18 393 L18 368 L85 368 L85 25 Z " />
<glyph glyph-name="Kcommaaccent" unicode="&#x136;" horiz-adv-x="695" d="M110 25 L30 25 L30 0 L330 0 L330 25 L250 25 L250 642 L330 642 L330 667 L30 667 L30 642 L110 642 L110 25 Z M372 427 L531 596 C567 635 582 643 626 642 L647 642 L647 667 L423 667 L423 642 L477 642 C501 642 511 638 511 629 C511 623 509 619 498 607 L257 347 L477 25 L399 25 L399 0 L695 0 L695 25 L647 25 L372 427 Z M321 -319 C405 -263 439 -218 439 -158 C439 -98 397 -49 345 -49 C305 -49 273 -80 273 -117 C273 -154 302 -185 338 -185 C362 -185 382 -173 395 -150 C399 -163 401 -170 401 -181 C401 -224 366 -267 306 -300 L321 -319 Z " />
<glyph glyph-name="kcommaaccent" unicode="&#x137;" horiz-adv-x="531" d="M70 25 L3 25 L3 0 L243 0 L243 25 L190 25 L190 678 C147 670 115 667 34 667 L3 667 L3 642 L70 642 L70 25 Z M298 268 L363 328 C400 365 408 368 446 368 L470 368 L470 393 L270 393 L270 368 L313 368 C341 368 346 366 346 357 C346 350 341 345 323 328 L196 212 L334 25 L281 25 L281 0 L527 0 L527 25 L478 25 L298 268 Z M238 -288 C315 -242 345 -203 345 -151 C345 -95 305 -49 255 -49 C218 -49 188 -78 188 -114 C188 -148 215 -177 249 -177 C272 -177 291 -165 302 -144 C307 -156 309 -163 309 -172 C309 -207 274 -242 218 -266 L238 -288 Z " />
<glyph glyph-name="Lacute" unicode="&#x139;" horiz-adv-x="582" d="M110 25 L30 25 L30 0 L539 0 L558 210 L532 210 C505 87 431 19 331 25 L250 25 L250 642 L330 642 L330 667 L30 667 L30 642 L110 642 L110 25 Z M303 846 L172 740 L184 726 L437 821 L437 846 L303 846 Z " />
<glyph glyph-name="lacute" unicode="&#x13a;" horiz-adv-x="260" d="M70 25 L3 25 L3 0 L256 0 L256 25 L190 25 L190 678 C147 670 116 667 34 667 L3 667 L3 642 L70 642 L70 25 Z M195 846 L64 740 L75 726 L329 821 L329 846 L195 846 Z " />
<glyph glyph-name="Lcommaaccent" unicode="&#x13b;" horiz-adv-x="582" d="M110 25 L30 25 L30 0 L539 0 L558 210 L532 210 C505 87 431 19 331 25 L250 25 L250 642 L330 642 L330 667 L30 667 L30 642 L110 642 L110 25 Z M270 -319 C354 -263 388 -218 388 -158 C388 -98 346 -49 294 -49 C255 -49 223 -80 223 -117 C223 -154 252 -185 287 -185 C312 -185 331 -173 344 -150 C349 -162 350 -170 350 -181 C350 -224 315 -268 255 -300 L270 -319 Z " />
<glyph glyph-name="lcommaaccent" unicode="&#x13c;" horiz-adv-x="260" d="M70 25 L3 25 L3 0 L256 0 L256 25 L190 25 L190 678 C147 670 116 667 34 667 L3 667 L3 642 L70 642 L70 25 Z M108 -288 C184 -242 214 -203 214 -151 C214 -95 174 -49 125 -49 C88 -49 58 -78 58 -113 C58 -148 85 -177 119 -177 C142 -177 161 -165 172 -144 C176 -157 178 -163 178 -172 C178 -206 144 -242 88 -266 L108 -288 Z " />
<glyph glyph-name="Lcaron" unicode="&#x13d;" horiz-adv-x="582" d="M110 25 L30 25 L30 0 L539 0 L558 210 L532 210 C505 87 431 19 331 25 L250 25 L250 642 L330 642 L330 667 L30 667 L30 642 L110 642 L110 25 Z M409 397 C494 451 528 498 528 558 C528 618 486 667 434 667 C394 667 362 636 362 598 C362 561 391 530 427 530 C451 530 471 542 483 566 C488 553 490 546 490 534 C490 492 455 448 394 416 L409 397 Z " />
<glyph glyph-name="lcaron" unicode="&#x13e;" horiz-adv-x="386" d="M70 25 L3 25 L3 0 L256 0 L256 25 L190 25 L190 678 C147 670 116 667 34 667 L3 667 L3 642 L70 642 L70 25 Z M276 439 C352 485 383 524 383 576 C383 632 343 678 294 678 C256 678 226 649 226 614 C226 579 253 550 287 550 C310 550 329 562 340 583 C345 571 347 564 347 555 C347 520 312 485 256 461 L276 439 Z " />
<glyph glyph-name="Ldot" unicode="&#x13f;" horiz-adv-x="582" d="M110 25 L30 25 L30 0 L539 0 L558 210 L532 210 C505 87 431 19 331 25 L250 25 L250 642 L330 642 L330 667 L30 667 L30 642 L110 642 L110 25 Z M372 373 C338 373 310 346 310 312 C310 277 337 250 372 250 C406 250 433 278 433 312 C433 346 406 373 372 373 L372 373 Z " />
<glyph glyph-name="ldot" unicode="&#x140;" horiz-adv-x="349" d="M70 25 L3 25 L3 0 L256 0 L256 25 L190 25 L190 678 C147 670 116 667 34 667 L3 667 L3 642 L70 642 L70 25 Z M293 389 C260 389 232 362 232 328 C232 293 259 266 293 266 C327 266 355 294 355 328 C355 362 327 389 293 389 L293 389 Z " />
<glyph glyph-name="Lslash" unicode="&#x141;" horiz-adv-x="582" d="M110 292 L30 230 L30 197 L110 259 L110 25 L30 25 L30 0 L539 0 L558 210 L532 210 C505 87 431 19 331 25 L250 25 L250 333 L394 443 L394 476 L250 366 L250 642 L330 642 L330 667 L30 667 L30 642 L110 642 L110 292 Z " />
<glyph glyph-name="lslash" unicode="&#x142;" horiz-adv-x="260" d="M70 341 L3 289 L3 257 L70 309 L70 25 L3 25 L3 0 L256 0 L256 25 L190 25 L190 373 L256 424 L256 456 L190 404 L190 678 C147 670 116 667 34 667 L3 667 L3 642 L70 642 L70 341 Z " />
<glyph glyph-name="Nacute" unicode="&#x143;" horiz-adv-x="692" d="M566 -7 L589 -7 L589 570 C588 635 594 642 643 642 L669 642 L669 667 L479 667 L479 642 L505 642 C554 642 560 635 559 570 L559 241 L239 667 L23 667 L23 642 L49 642 C98 642 104 634 103 570 L103 97 C104 33 98 25 49 25 L23 25 L23 0 L226 0 L226 25 L187 25 C138 25 132 32 133 97 L133 585 L566 -7 Z M409 846 L278 740 L290 726 L543 821 L543 846 L409 846 Z " />
<glyph glyph-name="nacute" unicode="&#x144;" horiz-adv-x="557" d="M90 25 L23 25 L23 0 L263 0 L263 25 L210 25 L210 218 C210 267 212 278 223 300 C242 337 281 363 317 363 C354 363 367 340 367 274 L367 25 L313 25 L313 0 L553 0 L553 25 L487 25 L487 274 C487 329 480 351 456 372 C434 392 399 403 361 403 C301 403 247 377 210 331 L210 404 C166 396 134 393 54 393 L23 393 L23 368 L90 368 L90 25 Z M336 621 L255 480 L272 471 L432 596 L432 621 L336 621 Z " />
<glyph glyph-name="Ncommaaccent" unicode="&#x145;" horiz-adv-x="692" d="M566 -7 L589 -7 L589 570 C588 635 594 642 643 642 L669 642 L669 667 L479 667 L479 642 L505 642 C554 642 560 635 559 570 L559 241 L239 667 L23 667 L23 642 L49 642 C98 642 104 634 103 570 L103 97 C104 33 98 25 49 25 L23 25 L23 0 L226 0 L226 25 L187 25 C138 25 132 32 133 97 L133 585 L566 -7 Z M311 -319 C397 -263 430 -218 430 -158 C430 -98 388 -49 336 -49 C296 -49 264 -80 264 -117 C264 -154 293 -185 329 -185 C353 -185 373 -173 385 -150 C390 -162 392 -170 392 -181 C392 -224 357 -268 296 -300 L311 -319 Z " />
<glyph glyph-name="ncommaaccent" unicode="&#x146;" horiz-adv-x="557" d="M90 25 L23 25 L23 0 L263 0 L263 25 L210 25 L210 218 C210 267 212 278 223 300 C242 337 281 363 317 363 C354 363 367 340 367 274 L367 25 L313 25 L313 0 L553 0 L553 25 L487 25 L487 274 C487 329 480 351 456 372 C434 392 399 403 361 403 C301 403 247 377 210 331 L210 404 C166 396 134 393 54 393 L23 393 L23 368 L90 368 L90 25 Z M272 -288 C347 -242 378 -203 378 -151 C378 -95 338 -49 289 -49 C252 -49 222 -78 222 -114 C222 -148 249 -177 283 -177 C305 -177 324 -165 336 -144 C340 -156 342 -163 342 -172 C342 -207 308 -242 251 -266 L272 -288 Z " />
<glyph glyph-name="Ncaron" unicode="&#x147;" horiz-adv-x="692" d="M566 -7 L589 -7 L589 570 C588 635 594 642 643 642 L669 642 L669 667 L479 667 L479 642 L505 642 C554 642 560 635 559 570 L559 241 L239 667 L23 667 L23 642 L49 642 C98 642 104 634 103 570 L103 97 C104 33 98 25 49 25 L23 25 L23 0 L226 0 L226 25 L187 25 C138 25 132 32 133 97 L133 585 L566 -7 Z M517 847 L361 798 L204 847 L190 831 L343 727 L378 727 L531 831 L517 847 Z " />
<glyph glyph-name="ncaron" unicode="&#x148;" horiz-adv-x="557" d="M90 25 L23 25 L23 0 L263 0 L263 25 L210 25 L210 218 C210 267 212 278 223 300 C242 337 281 363 317 363 C354 363 367 340 367 274 L367 25 L313 25 L313 0 L553 0 L553 25 L487 25 L487 274 C487 329 480 351 456 372 C434 392 399 403 361 403 C301 403 247 377 210 331 L210 404 C166 396 134 393 54 393 L23 393 L23 368 L90 368 L90 25 Z M416 621 L301 559 L185 621 L172 608 L289 472 L313 472 L430 608 L416 621 Z " />
<glyph glyph-name="Omacron" unicode="&#x14c;" horiz-adv-x="732" d="M365 684 C279 684 204 654 146 597 C78 531 38 432 38 334 C38 234 78 136 146 70 C205 12 279 -17 365 -17 C452 -17 526 12 585 70 C652 135 693 235 693 329 C693 433 654 530 585 597 C525 655 453 684 365 684 L365 684 Z M366 657 C424 657 462 638 489 594 C516 550 526 476 526 329 C526 206 517 129 496 87 C470 34 430 10 366 10 C307 10 269 29 242 73 C216 117 205 192 205 334 C205 461 214 537 235 580 C260 633 301 657 366 657 L366 657 Z M202 806 L202 760 L529 760 L529 806 L202 806 Z " />
<glyph glyph-name="omacron" unicode="&#x14d;" horiz-adv-x="512" d="M255 403 C130 403 32 312 32 197 C32 80 130 -10 256 -10 C381 -10 480 80 480 194 C480 313 383 403 255 403 L255 403 Z M256 376 C289 376 316 363 331 339 C345 318 350 279 350 195 C350 123 345 81 335 60 C321 33 292 17 256 17 C223 17 196 30 181 54 C167 75 162 115 162 196 C162 271 167 312 177 333 C191 360 220 376 256 376 L256 376 Z M114 563 L114 516 L398 516 L398 563 L114 563 Z " />
<glyph glyph-name="Ohungarumlaut" unicode="&#x150;" horiz-adv-x="732" d="M365 684 C279 684 204 654 146 597 C78 531 38 432 38 334 C38 234 78 136 146 70 C205 12 279 -17 365 -17 C452 -17 526 12 585 70 C652 135 693 235 693 329 C693 433 654 530 585 597 C525 655 453 684 365 684 L365 684 Z M366 657 C424 657 462 638 489 594 C516 550 526 476 526 329 C526 206 517 129 496 87 C470 34 430 10 366 10 C307 10 269 29 242 73 C216 117 205 192 205 334 C205 461 214 537 235 580 C260 633 301 657 366 657 L366 657 Z M350 846 L234 737 L243 726 L471 823 L471 846 L350 846 Z M546 846 L430 737 L439 726 L667 823 L667 846 L546 846 Z " />
<glyph glyph-name="ohungarumlaut" unicode="&#x151;" horiz-adv-x="512" d="M255 403 C130 403 32 312 32 197 C32 80 130 -10 256 -10 C381 -10 480 80 480 194 C480 313 383 403 255 403 L255 403 Z M256 376 C289 376 316 363 331 339 C345 318 350 279 350 195 C350 123 345 81 335 60 C321 33 292 17 256 17 C223 17 196 30 181 54 C167 75 162 115 162 196 C162 271 167 312 177 333 C191 360 220 376 256 376 L256 376 Z M241 621 L177 478 L191 471 L328 599 L328 621 L241 621 Z M378 621 L314 478 L327 471 L464 599 L464 621 L378 621 Z " />
<glyph glyph-name="OE" unicode="&#x152;" horiz-adv-x="1002" d="M442 667 C407 679 382 684 350 684 C179 684 38 521 38 324 C38 129 171 -17 348 -17 C383 -17 412 -12 454 0 L953 0 L967 212 L940 212 C908 64 859 23 718 25 L625 25 L625 326 L651 326 C743 325 770 296 773 197 L800 197 L800 469 L773 469 C774 384 739 349 653 351 L625 351 L625 642 L742 642 C852 646 896 609 920 497 L946 497 L931 667 L442 667 Z M485 143 C485 86 482 73 463 50 C441 24 407 10 364 10 C310 10 269 31 245 70 C219 111 205 210 205 344 C205 469 217 555 240 594 C263 633 309 657 363 657 C403 657 443 640 463 615 C479 595 485 570 485 520 L485 143 Z " />
<glyph glyph-name="oe" unicode="&#x153;" horiz-adv-x="740" d="M717 221 C706 337 640 403 535 403 C482 403 441 389 400 358 C343 391 305 403 256 403 C135 403 32 308 32 196 C32 84 133 -10 254 -10 C302 -10 345 3 400 33 C440 4 482 -10 531 -10 C612 -10 670 28 717 113 L693 125 C655 55 609 20 554 20 C528 20 506 29 488 46 C466 67 459 89 459 136 L459 221 L717 221 Z M459 246 L459 274 C459 318 461 335 467 347 C476 367 494 376 522 376 C549 376 566 368 576 352 C583 338 585 323 585 274 L585 246 L459 246 Z M251 376 C283 376 310 363 326 339 C340 319 345 280 345 195 C345 122 340 79 330 60 C315 33 286 17 251 17 C219 17 192 30 176 53 C162 74 157 113 157 196 C157 271 162 314 172 333 C187 360 216 376 251 376 L251 376 Z " />
<glyph glyph-name="Racute" unicode="&#x154;" horiz-adv-x="690" d="M110 25 L30 25 L30 0 L330 0 L330 25 L250 25 L250 343 L305 343 C385 346 412 311 418 192 C423 118 427 97 442 65 C463 19 503 -4 561 -4 C596 -4 631 3 670 18 L670 44 C651 37 636 33 623 33 C588 33 573 56 573 108 C573 116 573 123 574 134 L574 155 C574 259 503 336 390 355 C461 359 478 362 509 379 C559 407 588 455 588 512 C588 560 569 601 532 628 C490 659 447 667 324 667 L30 667 L30 642 L110 642 L110 25 Z M250 368 L250 642 L324 642 C378 642 400 637 418 620 C437 601 446 569 446 515 C446 398 421 368 324 368 L250 368 Z M397 846 L266 740 L277 726 L531 821 L531 846 L397 846 Z " />
<glyph glyph-name="racute" unicode="&#x155;" horiz-adv-x="412" d="M85 25 L18 25 L18 0 L282 0 L282 25 L205 25 L205 200 C205 261 217 300 248 338 C260 353 280 367 289 367 C294 367 297 364 297 359 C297 356 296 354 294 352 C285 340 282 331 282 318 C282 285 307 261 340 261 C376 261 403 288 403 325 C403 370 368 403 321 403 C275 403 231 371 205 318 L205 404 C162 396 130 393 45 393 L18 393 L18 368 L85 368 L85 25 Z M270 621 L190 480 L207 471 L367 596 L367 621 L270 621 Z " />
<glyph glyph-name="Rcommaaccent" unicode="&#x156;" horiz-adv-x="690" d="M110 25 L30 25 L30 0 L330 0 L330 25 L250 25 L250 343 L305 343 C385 346 412 311 418 192 C423 118 427 97 442 65 C463 19 503 -4 561 -4 C596 -4 631 3 670 18 L670 44 C651 37 636 33 623 33 C588 33 573 56 573 108 C573 116 573 123 574 134 L574 155 C574 259 503 336 390 355 C461 359 478 362 509 379 C559 407 588 455 588 512 C588 560 569 601 532 628 C490 659 447 667 324 667 L30 667 L30 642 L110 642 L110 25 Z M250 368 L250 642 L324 642 C378 642 400 637 418 620 C437 601 446 569 446 515 C446 398 421 368 324 368 L250 368 Z M316 -319 C402 -263 435 -218 435 -158 C435 -98 393 -49 341 -49 C301 -49 269 -80 269 -117 C269 -154 298 -185 333 -185 C358 -185 377 -173 390 -150 C395 -162 397 -170 397 -181 C397 -224 361 -268 301 -300 L316 -319 Z " />
<glyph glyph-name="rcommaaccent" unicode="&#x157;" horiz-adv-x="412" d="M85 25 L18 25 L18 0 L282 0 L282 25 L205 25 L205 200 C205 261 217 300 248 338 C260 353 280 367 289 367 C294 367 297 364 297 359 C297 356 296 354 294 352 C285 340 282 331 282 318 C282 285 307 261 340 261 C376 261 403 288 403 325 C403 370 368 403 321 403 C275 403 231 371 205 318 L205 404 C162 396 130 393 45 393 L18 393 L18 368 L85 368 L85 25 Z M126 -288 C202 -241 232 -203 232 -151 C232 -95 192 -49 143 -49 C106 -49 76 -78 76 -114 C76 -148 103 -177 136 -177 C159 -177 178 -165 190 -144 C194 -156 196 -163 196 -172 C196 -207 162 -242 105 -266 L126 -288 Z " />
<glyph glyph-name="Rcaron" unicode="&#x158;" horiz-adv-x="690" d="M110 25 L30 25 L30 0 L330 0 L330 25 L250 25 L250 343 L305 343 C385 346 412 311 418 192 C423 118 427 97 442 65 C463 19 503 -4 561 -4 C596 -4 631 3 670 18 L670 44 C651 37 636 33 623 33 C588 33 573 56 573 108 C573 116 573 123 574 134 L574 155 C574 259 503 336 390 355 C461 359 478 362 509 379 C559 407 588 455 588 512 C588 560 569 601 532 628 C490 659 447 667 324 667 L30 667 L30 642 L110 642 L110 25 Z M250 368 L250 642 L324 642 C378 642 400 637 418 620 C437 601 446 569 446 515 C446 398 421 368 324 368 L250 368 Z M484 847 L327 798 L170 847 L157 831 L310 727 L345 727 L498 831 L484 847 Z " />
<glyph glyph-name="rcaron" unicode="&#x159;" horiz-adv-x="412" d="M85 25 L18 25 L18 0 L282 0 L282 25 L205 25 L205 200 C205 261 217 300 248 338 C260 353 280 367 289 367 C294 367 297 364 297 359 C297 356 296 354 294 352 C285 340 282 331 282 318 C282 285 307 261 340 261 C376 261 403 288 403 325 C403 370 368 403 321 403 C275 403 231 371 205 318 L205 404 C162 396 130 393 45 393 L18 393 L18 368 L85 368 L85 25 Z M334 621 L219 559 L103 621 L90 608 L207 472 L231 472 L348 608 L334 621 Z " />
<glyph glyph-name="Sacute" unicode="&#x15a;" horiz-adv-x="530" d="M435 667 L408 667 L380 636 C334 670 293 684 245 684 C130 684 42 593 42 475 C42 415 65 364 107 331 C131 312 131 312 245 275 C338 246 343 244 363 230 C390 210 407 176 407 138 C407 67 344 10 266 10 C171 10 97 77 72 186 L45 186 L45 0 L71 0 L104 42 C163 1 214 -17 272 -17 C398 -17 492 79 492 207 C492 265 472 317 437 355 C410 384 382 396 280 426 C191 452 191 452 167 465 C138 481 121 511 121 546 C121 609 174 657 245 657 C333 657 394 594 408 487 L435 487 L435 667 Z M316 846 L185 740 L197 726 L450 821 L450 846 L316 846 Z " />
<glyph glyph-name="sacute" unicode="&#x15b;" horiz-adv-x="372" d="M313 403 L288 403 C286 382 282 376 273 376 C267 376 261 378 249 383 C215 398 193 403 167 403 C95 403 38 346 38 275 C38 231 64 190 102 172 C118 165 149 155 182 146 C233 133 238 131 253 122 C270 111 279 95 279 78 C279 44 242 17 195 17 C152 17 109 39 84 75 C68 96 62 115 59 146 L33 146 L33 0 L59 0 C59 17 64 26 74 26 C80 26 84 24 94 18 C122 -1 155 -10 192 -10 C279 -10 341 51 341 136 C341 186 316 221 267 241 C247 249 212 260 161 273 C122 282 104 299 104 324 C104 355 132 376 174 376 C207 376 241 361 264 337 C278 322 284 311 288 286 L313 286 L313 403 Z M233 621 L152 480 L169 471 L329 596 L329 621 L233 621 Z " />
<glyph glyph-name="Scircumflex" unicode="&#x15c;" horiz-adv-x="530" d="M435 667 L408 667 L380 636 C334 670 293 684 245 684 C130 684 42 593 42 475 C42 415 65 364 107 331 C131 312 131 312 245 275 C338 246 343 244 363 230 C390 210 407 176 407 138 C407 67 344 10 266 10 C171 10 97 77 72 186 L45 186 L45 0 L71 0 L104 42 C163 1 214 -17 272 -17 C398 -17 492 79 492 207 C492 265 472 317 437 355 C410 384 382 396 280 426 C191 452 191 452 167 465 C138 481 121 511 121 546 C121 609 174 657 245 657 C333 657 394 594 408 487 L435 487 L435 667 Z M111 726 L268 775 L424 726 L438 742 L285 846 L250 846 L97 742 L111 726 Z " />
<glyph glyph-name="scircumflex" unicode="&#x15d;" horiz-adv-x="372" d="M313 403 L288 403 C286 382 282 376 273 376 C267 376 261 378 249 383 C215 398 193 403 167 403 C95 403 38 346 38 275 C38 231 64 190 102 172 C118 165 149 155 182 146 C233 133 238 131 253 122 C270 111 279 95 279 78 C279 44 242 17 195 17 C152 17 109 39 84 75 C68 96 62 115 59 146 L33 146 L33 0 L59 0 C59 17 64 26 74 26 C80 26 84 24 94 18 C122 -1 155 -10 192 -10 C279 -10 341 51 341 136 C341 186 316 221 267 241 C247 249 212 260 161 273 C122 282 104 299 104 324 C104 355 132 376 174 376 C207 376 241 361 264 337 C278 322 284 311 288 286 L313 286 L313 403 Z M76 472 L191 534 L307 472 L320 485 L203 621 L180 621 L63 485 L76 472 Z " />
<glyph glyph-name="Scedilla" unicode="&#x15e;" horiz-adv-x="530" d="M294 -16 C411 -4 492 87 492 207 C492 265 472 318 437 355 C410 384 382 396 280 426 C191 452 191 452 167 465 C138 481 121 511 121 546 C121 609 174 657 245 657 C333 657 394 594 408 487 L435 487 L435 667 L408 667 L380 636 C334 670 293 684 245 684 C130 684 42 593 42 475 C42 415 65 364 107 331 C131 312 131 312 245 275 C338 246 343 244 363 230 C390 210 407 176 407 138 C407 67 344 10 266 10 C171 10 97 77 72 186 L45 186 L45 0 L71 0 L104 42 C154 6 205 -13 262 -17 L240 -76 C274 -87 284 -98 284 -123 C284 -155 262 -180 235 -180 C213 -180 194 -167 194 -153 C194 -151 195 -148 196 -144 C200 -135 200 -134 200 -128 C200 -114 190 -104 176 -104 C160 -104 147 -118 147 -136 C147 -176 197 -207 261 -207 C331 -207 383 -173 383 -125 C383 -86 349 -59 300 -59 C295 -59 287 -60 277 -62 L294 -16 Z " />
<glyph glyph-name="scedilla" unicode="&#x15f;" horiz-adv-x="372" d="M198 -10 C282 -7 341 53 341 136 C341 186 316 221 267 241 C247 249 212 260 161 273 C122 282 104 299 104 324 C104 355 132 376 174 376 C207 376 241 361 264 337 C278 322 284 311 288 286 L313 286 L313 403 L288 403 C286 382 282 376 273 376 C267 376 261 378 249 383 C215 398 193 403 167 403 C95 403 38 346 38 275 C38 231 64 190 102 172 C118 165 149 155 182 146 C233 133 238 131 253 122 C270 111 279 95 279 78 C279 44 242 17 195 17 C152 17 109 39 84 75 C68 96 62 115 59 146 L33 146 L33 0 L59 0 C59 17 64 26 74 26 C80 26 84 24 94 18 C115 4 141 -5 173 -9 L149 -72 C184 -74 204 -94 204 -125 C204 -154 182 -180 157 -180 C139 -180 122 -165 122 -150 C122 -149 122 -147 123 -145 C124 -141 124 -137 124 -135 C124 -123 113 -114 100 -114 C85 -114 74 -125 74 -140 C74 -172 113 -197 162 -197 C225 -197 279 -159 279 -115 C279 -77 243 -49 196 -49 C193 -49 188 -49 183 -50 L198 -10 Z " />
<glyph glyph-name="Scaron" unicode="&#x160;" horiz-adv-x="530" d="M435 667 L408 667 L380 636 C334 670 293 684 245 684 C130 684 42 593 42 475 C42 415 65 364 107 331 C131 312 131 312 245 275 C338 246 343 244 363 230 C390 210 407 176 407 138 C407 67 344 10 266 10 C171 10 97 77 72 186 L45 186 L45 0 L71 0 L104 42 C163 1 214 -17 272 -17 C398 -17 492 79 492 207 C492 265 472 317 437 355 C410 384 382 396 280 426 C191 452 191 452 167 465 C138 481 121 511 121 546 C121 609 174 657 245 657 C333 657 394 594 408 487 L435 487 L435 667 Z M412 847 L255 798 L98 847 L84 831 L237 727 L273 727 L426 831 L412 847 Z " />
<glyph glyph-name="scaron" unicode="&#x161;" horiz-adv-x="372" d="M313 403 L288 403 C286 382 282 376 273 376 C267 376 261 378 249 383 C215 398 193 403 167 403 C95 403 38 346 38 275 C38 231 64 190 102 172 C118 165 149 155 182 146 C233 133 238 131 253 122 C270 111 279 95 279 78 C279 44 242 17 195 17 C152 17 109 39 84 75 C68 96 62 115 59 146 L33 146 L33 0 L59 0 C59 17 64 26 74 26 C80 26 84 24 94 18 C122 -1 155 -10 192 -10 C279 -10 341 51 341 136 C341 186 316 221 267 241 C247 249 212 260 161 273 C122 282 104 299 104 324 C104 355 132 376 174 376 C207 376 241 361 264 337 C278 322 284 311 288 286 L313 286 L313 403 Z M306 621 L190 559 L75 621 L62 608 L179 472 L202 472 L319 608 L306 621 Z " />
<glyph glyph-name="Tcommaaccent" unicode="&#x162;" horiz-adv-x="622" d="M241 25 L151 25 L151 0 L471 0 L471 25 L381 25 L381 642 L408 642 C514 649 574 588 585 462 L612 462 L599 667 L23 667 L10 462 L37 462 C48 588 108 649 214 642 L241 642 L241 25 Z M279 -319 C364 -263 397 -218 397 -158 C397 -98 355 -49 303 -49 C263 -49 231 -80 231 -117 C231 -155 260 -185 296 -185 C320 -185 340 -172 353 -150 C358 -162 359 -170 359 -181 C359 -224 324 -267 264 -300 L279 -319 Z " />
<glyph glyph-name="tcommaaccent" unicode="&#x163;" horiz-adv-x="304" d="M70 368 L70 89 C70 22 102 -10 170 -10 C214 -10 254 7 276 36 C289 51 296 68 302 97 L274 102 C262 54 249 37 222 37 C201 37 190 54 190 89 L190 368 L273 368 L273 393 L190 393 L190 564 L163 564 C129 482 71 416 4 384 L4 368 L70 368 Z M140 -288 C216 -241 246 -203 246 -151 C246 -95 206 -49 157 -49 C120 -49 90 -78 90 -114 C90 -148 118 -177 151 -177 C174 -177 193 -165 204 -144 C209 -156 210 -163 210 -172 C210 -207 176 -242 120 -266 L140 -288 Z " />
<glyph glyph-name="Tcaron" unicode="&#x164;" horiz-adv-x="622" d="M241 25 L151 25 L151 0 L471 0 L471 25 L381 25 L381 642 L408 642 C514 649 574 588 585 462 L612 462 L599 667 L23 667 L10 462 L37 462 C48 588 108 649 214 642 L241 642 L241 25 Z M468 847 L311 798 L154 847 L140 831 L294 727 L329 727 L482 831 L468 847 Z " />
<glyph glyph-name="tcaron" unicode="&#x165;" horiz-adv-x="369" d="M70 368 L70 89 C70 22 102 -10 170 -10 C214 -10 254 7 276 36 C289 51 296 68 302 97 L274 102 C262 54 249 37 222 37 C201 37 190 54 190 89 L190 368 L273 368 L273 393 L190 393 L190 564 L163 564 C129 482 71 416 4 384 L4 368 L70 368 Z M260 456 C335 502 366 542 366 594 C366 650 326 696 277 696 C240 696 210 667 210 631 C210 596 238 567 271 567 C294 567 313 579 324 601 C329 588 330 581 330 572 C330 538 296 502 240 479 L260 456 Z " />
<glyph glyph-name="utilde" unicode="&#x169;" horiz-adv-x="526" d="M336 0 L522 0 L522 25 L456 25 L456 404 C412 396 381 393 300 393 L269 393 L269 368 L336 368 L336 171 C336 122 332 105 319 83 C301 54 266 33 236 33 C221 33 208 39 200 50 C191 61 190 69 190 110 L190 404 C146 396 115 393 34 393 L3 393 L3 368 L70 368 L70 133 C70 74 76 48 95 25 C113 2 145 -10 186 -10 C249 -10 289 11 336 69 L336 0 Z M152 495 C169 519 183 528 203 528 C220 528 248 521 273 511 C305 498 309 497 322 497 C359 497 394 527 422 581 L402 591 C389 569 374 558 357 558 C348 558 340 560 300 575 C269 586 255 589 240 589 C198 589 169 566 132 505 L152 495 Z " />
<glyph glyph-name="Umacron" unicode="&#x16a;" horiz-adv-x="669" d="M100 642 L100 213 C100 160 101 133 104 119 C109 91 124 65 146 45 C187 8 267 -17 347 -17 C426 -17 493 7 530 48 C564 85 572 117 572 213 L572 570 C571 635 577 642 626 642 L652 642 L652 667 L462 667 L462 642 L488 642 C537 642 543 634 542 570 L542 214 C542 138 536 106 515 76 C490 39 442 18 381 18 C325 18 283 38 260 76 C244 101 240 130 240 213 L240 642 L330 642 L330 667 L20 667 L20 642 L100 642 Z M183 806 L183 760 L510 760 L510 806 L183 806 Z " />
<glyph glyph-name="umacron" unicode="&#x16b;" horiz-adv-x="526" d="M336 0 L522 0 L522 25 L456 25 L456 404 C412 396 381 393 300 393 L269 393 L269 368 L336 368 L336 171 C336 122 332 105 319 83 C301 54 266 33 236 33 C221 33 208 39 200 50 C191 61 190 69 190 110 L190 404 C146 396 115 393 34 393 L3 393 L3 368 L70 368 L70 133 C70 74 76 48 95 25 C113 2 145 -10 186 -10 C249 -10 289 11 336 69 L336 0 Z M131 563 L131 516 L415 516 L415 563 L131 563 Z " />
<glyph glyph-name="ubreve" unicode="&#x16d;" horiz-adv-x="526" d="M336 0 L522 0 L522 25 L456 25 L456 404 C412 396 381 393 300 393 L269 393 L269 368 L336 368 L336 171 C336 122 332 105 319 83 C301 54 266 33 236 33 C221 33 208 39 200 50 C191 61 190 69 190 110 L190 404 C146 396 115 393 34 393 L3 393 L3 368 L70 368 L70 133 C70 74 76 48 95 25 C113 2 145 -10 186 -10 C249 -10 289 11 336 69 L336 0 Z M355 615 C333 571 305 552 261 552 C218 552 187 574 171 615 L145 615 C154 532 200 477 263 477 C325 477 370 530 380 615 L355 615 Z " />
<glyph glyph-name="Uring" unicode="&#x16e;" horiz-adv-x="669" d="M100 642 L100 213 C100 160 101 133 104 119 C109 91 124 65 146 45 C187 8 267 -17 347 -17 C426 -17 493 7 530 48 C564 85 572 117 572 213 L572 570 C571 635 577 642 626 642 L652 642 L652 667 L462 667 L462 642 L488 642 C537 642 543 634 542 570 L542 214 C542 138 536 106 515 76 C490 39 442 18 381 18 C325 18 283 38 260 76 C244 101 240 130 240 213 L240 642 L330 642 L330 667 L20 667 L20 642 L100 642 Z M364 877 C315 877 275 840 275 795 C275 747 314 710 364 710 C412 710 452 747 452 794 C452 840 413 877 364 877 L364 877 Z M364 838 C389 838 410 818 410 793 C410 769 389 749 364 749 C338 749 317 769 317 794 C317 818 338 838 364 838 L364 838 Z " />
<glyph glyph-name="uring" unicode="&#x16f;" horiz-adv-x="526" d="M336 0 L522 0 L522 25 L456 25 L456 404 C412 396 381 393 300 393 L269 393 L269 368 L336 368 L336 171 C336 122 332 105 319 83 C301 54 266 33 236 33 C221 33 208 39 200 50 C191 61 190 69 190 110 L190 404 C146 396 115 393 34 393 L3 393 L3 368 L70 368 L70 133 C70 74 76 48 95 25 C113 2 145 -10 186 -10 C249 -10 289 11 336 69 L336 0 Z M275 630 C227 630 187 591 187 545 C187 497 226 460 275 460 C324 460 364 497 364 544 C364 592 324 630 275 630 L275 630 Z M275 591 C301 591 322 570 322 544 C322 519 301 499 275 499 C249 499 229 519 229 544 C229 570 250 591 275 591 L275 591 Z " />
<glyph glyph-name="Uhungarumlaut" unicode="&#x170;" horiz-adv-x="669" d="M100 642 L100 213 C100 160 101 133 104 119 C109 91 124 65 146 45 C187 8 267 -17 347 -17 C426 -17 493 7 530 48 C564 85 572 117 572 213 L572 570 C571 635 577 642 626 642 L652 642 L652 667 L462 667 L462 642 L488 642 C537 642 543 634 542 570 L542 214 C542 138 536 106 515 76 C490 39 442 18 381 18 C325 18 283 38 260 76 C244 101 240 130 240 213 L240 642 L330 642 L330 667 L20 667 L20 642 L100 642 Z M329 846 L213 737 L222 726 L450 823 L450 846 L329 846 Z M525 846 L408 737 L417 726 L646 823 L646 846 L525 846 Z " />
<glyph glyph-name="uhungarumlaut" unicode="&#x171;" horiz-adv-x="526" d="M336 0 L522 0 L522 25 L456 25 L456 404 C412 396 381 393 300 393 L269 393 L269 368 L336 368 L336 171 C336 122 332 105 319 83 C301 54 266 33 236 33 C221 33 208 39 200 50 C191 61 190 69 190 110 L190 404 C146 396 115 393 34 393 L3 393 L3 368 L70 368 L70 133 C70 74 76 48 95 25 C113 2 145 -10 186 -10 C249 -10 289 11 336 69 L336 0 Z M237 621 L173 478 L186 471 L323 599 L323 621 L237 621 Z M373 621 L310 478 L323 471 L460 599 L460 621 L373 621 Z " />
<glyph glyph-name="Uogonek" unicode="&#x172;" horiz-adv-x="669" d="M514 -127 C495 -134 485 -136 469 -136 C432 -136 410 -117 410 -86 C410 -56 429 -32 495 18 C558 64 574 105 572 213 L572 570 C571 635 577 642 626 642 L652 642 L652 667 L462 667 L462 642 L488 642 C537 642 543 634 542 570 L542 214 C542 138 536 106 515 76 C490 39 442 18 381 18 C325 18 283 38 260 76 C244 101 240 130 240 213 L240 642 L330 642 L330 667 L20 667 L20 642 L100 642 L100 213 C100 160 101 133 104 119 C109 91 124 65 146 45 C187 8 267 -17 347 -17 C368 -17 385 -16 404 -12 C351 -40 326 -70 326 -107 C326 -152 360 -178 417 -178 C452 -178 477 -172 514 -154 L514 -127 Z " />
<glyph glyph-name="uogonek" unicode="&#x173;" horiz-adv-x="526" d="M522 0 L522 25 L456 25 L456 404 C412 396 381 393 300 393 L269 393 L269 368 L336 368 L336 171 C336 122 332 105 319 83 C301 54 266 33 236 33 C221 33 208 39 200 50 C191 61 190 69 190 110 L190 404 C146 396 115 393 34 393 L3 393 L3 368 L70 368 L70 133 C70 74 76 48 95 25 C113 2 145 -10 186 -10 C249 -10 289 11 336 69 L336 0 L430 0 C355 -37 329 -64 329 -104 C329 -144 361 -169 412 -169 C448 -169 463 -165 510 -145 L510 -121 C490 -127 481 -129 465 -129 C429 -129 407 -112 407 -83 C407 -56 426 -31 470 0 L522 0 Z " />
<glyph glyph-name="Wcircumflex" unicode="&#x174;" horiz-adv-x="899" d="M617 642 L672 642 L672 667 L-2 667 L-2 642 L66 642 L313 -13 L335 -13 L467 292 L584 -13 L611 -13 L810 579 C827 628 843 641 882 642 L901 642 L901 667 L716 667 L716 642 L750 642 C782 642 790 637 790 619 C790 614 789 609 783 592 L649 192 L543 469 L617 642 Z M585 642 L528 510 L477 642 L585 642 Z M334 642 L451 333 L384 179 L210 642 L334 642 Z M316 726 L473 775 L630 726 L643 742 L490 846 L455 846 L302 742 L316 726 Z " />
<glyph glyph-name="Ycircumflex" unicode="&#x176;" horiz-adv-x="599" d="M233 25 L143 25 L143 0 L463 0 L463 25 L373 25 L373 307 L515 590 C536 632 547 640 588 642 L606 642 L606 667 L413 667 L413 642 L463 642 C491 642 498 639 498 626 C498 620 498 620 487 598 L364 351 L201 642 L286 642 L286 667 L-21 667 L-21 642 L40 642 L233 307 L233 25 Z M163 726 L319 775 L476 726 L490 742 L337 846 L302 846 L149 742 L163 726 Z " />
<glyph glyph-name="ycircumflex" unicode="&#x177;" horiz-adv-x="447" d="M210 2 L162 -126 C142 -178 129 -200 119 -200 C113 -200 109 -197 105 -191 C91 -169 74 -158 54 -158 C25 -158 2 -182 2 -211 C2 -245 30 -270 67 -270 C91 -270 113 -259 132 -237 C149 -218 158 -200 183 -139 L374 329 C388 362 399 369 435 368 L459 368 L459 393 L289 393 L289 368 L321 368 C345 368 351 364 351 350 C351 344 349 335 343 322 L271 145 L170 368 L218 368 L218 393 L-12 393 L-12 368 L37 368 L210 2 Z M121 472 L236 534 L352 472 L365 485 L248 621 L224 621 L107 485 L121 472 Z " />
<glyph glyph-name="Ydieresis" unicode="&#x178;" horiz-adv-x="599" d="M233 25 L143 25 L143 0 L463 0 L463 25 L373 25 L373 307 L515 590 C536 632 547 640 588 642 L606 642 L606 667 L413 667 L413 642 L463 642 C491 642 498 639 498 626 C498 620 498 620 487 598 L364 351 L201 642 L286 642 L286 667 L-21 667 L-21 642 L40 642 L233 307 L233 25 Z M227 850 C194 850 166 822 166 789 C166 755 193 727 227 727 C261 727 289 755 289 789 C289 823 261 850 227 850 L227 850 Z M414 850 C381 850 353 822 353 789 C353 755 380 727 414 727 C448 727 476 755 476 789 C476 823 448 850 414 850 L414 850 Z " />
<glyph glyph-name="Zacute" unicode="&#x179;" horiz-adv-x="563" d="M20 32 L20 0 L517 0 L523 213 L496 213 C471 83 395 17 279 25 L173 25 L517 648 L517 667 L66 667 L54 490 L81 490 C105 600 168 649 279 642 L355 642 L20 32 Z M366 846 L235 740 L247 726 L501 821 L501 846 L366 846 Z " />
<glyph glyph-name="zacute" unicode="&#x17a;" horiz-adv-x="430" d="M394 393 L56 393 L51 246 L74 246 C93 336 137 373 218 368 L261 368 L27 20 L27 0 L394 0 L404 163 L377 163 C356 66 304 20 220 25 L162 25 L394 373 L394 393 Z M267 621 L187 480 L204 471 L364 596 L364 621 L267 621 Z " />
<glyph glyph-name="Zdotaccent" unicode="&#x17b;" horiz-adv-x="563" d="M20 32 L20 0 L517 0 L523 213 L496 213 C471 83 395 17 279 25 L173 25 L517 648 L517 667 L66 667 L54 490 L81 490 C105 600 168 649 279 642 L355 642 L20 32 Z M299 850 C265 850 237 822 237 789 C237 755 264 727 299 727 C333 727 360 755 360 789 C360 823 333 850 299 850 L299 850 Z " />
<glyph glyph-name="zdotaccent" unicode="&#x17c;" horiz-adv-x="430" d="M394 393 L56 393 L51 246 L74 246 C93 336 137 373 218 368 L261 368 L27 20 L27 0 L394 0 L404 163 L377 163 C356 66 304 20 220 25 L162 25 L394 373 L394 393 Z M233 610 C199 610 171 583 171 549 C171 514 198 487 233 487 C267 487 294 515 294 549 C294 583 267 610 233 610 L233 610 Z " />
<glyph glyph-name="Zcaron" unicode="&#x17d;" horiz-adv-x="563" d="M20 32 L20 0 L517 0 L523 213 L496 213 C471 83 395 17 279 25 L173 25 L517 648 L517 667 L66 667 L54 490 L81 490 C105 600 168 649 279 642 L355 642 L20 32 Z M459 847 L302 798 L145 847 L131 831 L284 727 L319 727 L472 831 L459 847 Z " />
<glyph glyph-name="zcaron" unicode="&#x17e;" horiz-adv-x="430" d="M394 393 L56 393 L51 246 L74 246 C93 336 137 373 218 368 L261 368 L27 20 L27 0 L394 0 L404 163 L377 163 C356 66 304 20 220 25 L162 25 L394 373 L394 393 Z M354 621 L239 559 L124 621 L110 608 L227 472 L251 472 L368 608 L354 621 Z " />
<glyph glyph-name="florin" unicode="&#x192;" horiz-adv-x="500" d="M190 315 L120 -48 C96 -173 87 -200 66 -224 C53 -239 39 -247 23 -247 C10 -247 0 -243 0 -237 C0 -235 1 -233 3 -230 C9 -222 12 -214 12 -206 C12 -187 -3 -173 -24 -173 C-46 -173 -63 -190 -63 -213 C-63 -245 -29 -268 16 -268 C70 -268 122 -233 158 -174 C194 -113 210 -65 235 62 L284 315 L375 315 L380 340 L289 340 L310 450 C332 563 348 607 382 640 C393 652 408 659 423 659 C430 659 434 656 434 651 C434 648 432 645 430 643 C416 634 412 628 412 615 C412 594 430 578 452 578 C478 578 499 598 499 624 C499 657 468 680 425 680 C370 680 316 646 276 586 C237 527 221 480 195 340 L107 340 L102 315 L190 315 Z " />
<glyph glyph-name="uni01CD" unicode="&#x1cd;" horiz-adv-x="627" d="M367 179 L421 25 L335 25 L335 0 L634 0 L634 25 L563 25 L335 667 L304 667 L94 82 C78 31 70 24 25 25 L-10 25 L-10 0 L197 0 L197 25 L143 25 C118 25 110 28 110 40 C110 45 112 51 118 67 L157 179 L367 179 Z M357 204 L167 204 L262 469 L357 204 Z M477 847 L320 798 L164 847 L150 831 L303 727 L338 727 L491 831 L477 847 Z " />
<glyph glyph-name="uni01CE" unicode="&#x1ce;" horiz-adv-x="457" d="M439 56 C429 46 421 41 412 41 C395 41 391 49 391 81 L391 263 C391 326 387 341 366 361 C339 387 288 403 229 403 C137 403 65 359 65 302 C65 272 86 249 114 249 C145 249 170 272 170 300 C170 312 167 321 159 333 C154 342 152 346 152 350 C152 366 177 376 214 376 C243 376 262 368 271 353 C278 339 278 339 279 258 L279 233 C119 220 32 168 32 84 C32 27 76 -10 142 -10 C195 -10 243 13 279 56 C299 17 330 -5 365 -5 C398 -5 430 11 455 40 L439 56 Z M279 156 C279 109 276 90 266 73 C254 53 235 42 212 42 C172 42 144 73 144 116 C144 175 191 205 279 206 L279 156 Z M367 621 L252 559 L136 621 L123 608 L240 472 L264 472 L381 608 L367 621 Z " />
<glyph glyph-name="uni01D3" unicode="&#x1d3;" horiz-adv-x="669" d="M100 642 L100 213 C100 160 101 133 104 119 C109 91 124 65 146 45 C187 8 267 -17 347 -17 C426 -17 493 7 530 48 C564 85 572 117 572 213 L572 570 C571 635 577 642 626 642 L652 642 L652 667 L462 667 L462 642 L488 642 C537 642 543 634 542 570 L542 214 C542 138 536 106 515 76 C490 39 442 18 381 18 C325 18 283 38 260 76 C244 101 240 130 240 213 L240 642 L330 642 L330 667 L20 667 L20 642 L100 642 Z M527 847 L370 798 L213 847 L199 831 L352 727 L387 727 L541 831 L527 847 Z " />
<glyph glyph-name="uni01D4" unicode="&#x1d4;" horiz-adv-x="526" d="M336 0 L522 0 L522 25 L456 25 L456 404 C412 396 381 393 300 393 L269 393 L269 368 L336 368 L336 171 C336 122 332 105 319 83 C301 54 266 33 236 33 C221 33 208 39 200 50 C191 61 190 69 190 110 L190 404 C146 396 115 393 34 393 L3 393 L3 368 L70 368 L70 133 C70 74 76 48 95 25 C113 2 145 -10 186 -10 C249 -10 289 11 336 69 L336 0 Z M390 621 L275 559 L160 621 L146 608 L263 472 L287 472 L404 608 L390 621 Z " />
<glyph glyph-name="Gcaron" unicode="&#x1e6;" horiz-adv-x="662" d="M566 667 L539 667 L509 635 C461 668 409 684 353 684 C281 684 207 654 149 602 C74 534 35 440 35 326 C35 127 160 -17 334 -17 C393 -17 461 4 512 37 C539 55 559 72 594 109 L594 224 L654 224 L654 249 L354 249 L354 224 L454 224 L454 109 C454 52 402 10 332 10 C307 10 282 15 264 25 C232 41 218 65 211 116 C207 149 202 268 202 350 C202 489 211 559 232 596 C254 635 301 657 359 657 C414 657 465 636 493 602 C517 572 529 540 539 480 L566 480 L566 667 Z M506 847 L349 798 L192 847 L178 831 L331 727 L367 727 L520 831 L506 847 Z " />
<glyph glyph-name="gcaron" unicode="&#x1e7;" horiz-adv-x="494" d="M221 35 L138 35 L129 35 C93 35 78 43 78 64 C78 89 107 116 146 127 C178 112 207 106 240 106 C343 106 417 169 417 256 C417 282 411 304 397 327 C397 339 401 345 408 345 C412 345 413 344 417 340 C427 328 437 323 451 323 C472 323 488 340 488 363 C488 389 469 408 443 408 C414 408 394 389 380 350 C339 387 296 403 239 403 C137 403 60 339 60 255 C60 208 80 172 123 141 C66 124 27 76 27 23 C27 -25 53 -59 103 -73 C54 -86 29 -114 29 -154 C29 -222 115 -271 232 -271 C371 -271 460 -202 460 -94 C460 -54 447 -20 422 4 C398 27 368 36 315 36 L221 35 Z M177 292 C177 327 180 341 189 354 C199 368 217 376 238 376 C259 376 277 368 287 354 C296 341 299 327 299 292 L299 217 C299 156 282 133 238 133 C194 133 177 156 177 217 L177 292 Z M359 -81 C396 -81 413 -98 413 -132 C413 -196 338 -244 236 -244 C151 -244 95 -205 95 -146 C95 -122 104 -102 126 -81 L359 -81 Z M362 621 L247 559 L132 621 L118 608 L235 472 L259 472 L376 608 L362 621 Z " />
<glyph glyph-name="Scommaaccent" unicode="&#x218;" horiz-adv-x="530" d="M435 667 L408 667 L380 636 C334 670 293 684 245 684 C130 684 42 593 42 475 C42 415 65 364 107 331 C131 312 131 312 245 275 C338 246 343 244 363 230 C390 210 407 176 407 138 C407 67 344 10 266 10 C171 10 97 77 72 186 L45 186 L45 0 L71 0 L104 42 C163 1 214 -17 272 -17 C398 -17 492 79 492 207 C492 265 472 317 437 355 C410 384 382 396 280 426 C191 452 191 452 167 465 C138 481 121 511 121 546 C121 609 174 657 245 657 C333 657 394 594 408 487 L435 487 L435 667 Z M234 -319 C319 -263 353 -218 353 -158 C353 -98 311 -49 259 -49 C219 -49 187 -80 187 -117 C187 -155 216 -185 252 -185 C276 -185 296 -172 308 -150 C313 -162 315 -170 315 -181 C315 -224 280 -268 219 -300 L234 -319 Z " />
<glyph glyph-name="scommaaccent" unicode="&#x219;" horiz-adv-x="372" d="M313 403 L288 403 C286 382 282 376 273 376 C267 376 261 378 249 383 C215 398 193 403 167 403 C95 403 38 346 38 275 C38 231 64 190 102 172 C118 165 149 155 182 146 C233 133 238 131 253 122 C270 111 279 95 279 78 C279 44 242 17 195 17 C152 17 109 39 84 75 C68 96 62 115 59 146 L33 146 L33 0 L59 0 C59 17 64 26 74 26 C80 26 84 24 94 18 C122 -1 155 -10 192 -10 C279 -10 341 51 341 136 C341 186 316 221 267 241 C247 249 212 260 161 273 C122 282 104 299 104 324 C104 355 132 376 174 376 C207 376 241 361 264 337 C278 322 284 311 288 286 L313 286 L313 403 Z M165 -288 C241 -242 271 -203 271 -151 C271 -95 231 -49 182 -49 C145 -49 115 -78 115 -114 C115 -148 143 -177 176 -177 C199 -177 218 -165 229 -144 C234 -156 235 -163 235 -172 C235 -206 201 -242 145 -266 L165 -288 Z " />
<glyph glyph-name="uni021A" unicode="&#x21a;" horiz-adv-x="622" d="M241 25 L151 25 L151 0 L471 0 L471 25 L381 25 L381 642 L408 642 C514 649 574 588 585 462 L612 462 L599 667 L23 667 L10 462 L37 462 C48 588 108 649 214 642 L241 642 L241 25 Z M279 -319 C364 -263 397 -218 397 -158 C397 -98 355 -49 303 -49 C263 -49 231 -80 231 -117 C231 -155 260 -185 296 -185 C320 -185 340 -172 353 -150 C358 -162 359 -170 359 -181 C359 -224 324 -267 264 -300 L279 -319 Z " />
<glyph glyph-name="uni021B" unicode="&#x21b;" horiz-adv-x="304" d="M70 368 L70 89 C70 22 102 -10 170 -10 C214 -10 254 7 276 36 C289 51 296 68 302 97 L274 102 C262 54 249 37 222 37 C201 37 190 54 190 89 L190 368 L273 368 L273 393 L190 393 L190 564 L163 564 C129 482 71 416 4 384 L4 368 L70 368 Z M140 -288 C216 -241 246 -203 246 -151 C246 -95 206 -49 157 -49 C120 -49 90 -78 90 -114 C90 -148 118 -177 151 -177 C174 -177 193 -165 204 -144 C209 -156 210 -163 210 -172 C210 -207 176 -242 120 -266 L140 -288 Z " />
<glyph glyph-name="circumflex" unicode="&#x2c6;" horiz-adv-x="500" d="M134 472 L250 534 L365 472 L379 485 L262 621 L238 621 L121 485 L134 472 Z " />
<glyph glyph-name="caron" unicode="&#x2c7;" horiz-adv-x="500" d="M365 621 L250 559 L134 621 L121 608 L238 472 L262 472 L379 608 L365 621 Z " />
<glyph glyph-name="uni02C9" unicode="&#x2c9;" horiz-adv-x="350" d="M33 563 L33 516 L316 516 L316 563 L33 563 Z " />
<glyph glyph-name="breve" unicode="&#x2d8;" horiz-adv-x="500" d="M343 615 C321 571 293 552 249 552 C206 552 175 574 159 615 L133 615 C142 532 188 477 251 477 C313 477 358 530 368 615 L343 615 Z " />
<glyph glyph-name="dotaccent" unicode="&#x2d9;" horiz-adv-x="500" d="M250 610 C216 610 188 583 188 549 C188 514 215 487 250 487 C284 487 311 515 311 549 C311 583 284 610 250 610 L250 610 Z " />
<glyph glyph-name="ring" unicode="&#x2da;" horiz-adv-x="500" d="M250 630 C202 630 162 591 162 545 C162 497 201 460 250 460 C299 460 338 497 338 544 C338 592 299 630 250 630 L250 630 Z M250 591 C275 591 296 570 296 544 C296 519 276 499 250 499 C224 499 204 519 204 544 C204 570 225 591 250 591 L250 591 Z " />
<glyph glyph-name="ogonek" unicode="&#x2db;" horiz-adv-x="500" d="M396 0 C321 -36 294 -64 294 -104 C294 -144 326 -169 378 -169 C414 -169 429 -165 475 -145 L475 -121 C456 -127 447 -129 430 -129 C394 -129 372 -112 372 -83 C372 -57 393 -30 435 0 L396 0 Z " />
<glyph glyph-name="tilde" unicode="&#x2dc;" horiz-adv-x="500" d="M125 495 C143 519 156 528 176 528 C193 528 221 521 246 511 C278 498 282 497 296 497 C332 497 367 527 396 581 L375 591 C362 569 347 558 330 558 C321 558 313 560 273 575 C242 586 229 589 213 589 C171 589 142 566 105 505 L125 495 Z " />
<glyph glyph-name="hungarumlaut" unicode="&#x2dd;" horiz-adv-x="500" d="M208 621 L144 478 L157 471 L294 599 L294 621 L208 621 Z M344 621 L281 478 L294 471 L431 599 L431 621 L344 621 Z " />
<glyph glyph-name="Wdieresis" unicode="&#x1e84;" horiz-adv-x="899" d="M617 642 L672 642 L672 667 L-2 667 L-2 642 L66 642 L313 -13 L335 -13 L467 292 L584 -13 L611 -13 L810 579 C827 628 843 641 882 642 L901 642 L901 667 L716 667 L716 642 L750 642 C782 642 790 637 790 619 C790 614 789 609 783 592 L649 192 L543 469 L617 642 Z M585 642 L528 510 L477 642 L585 642 Z M334 642 L451 333 L384 179 L210 642 L334 642 Z M376 850 C342 850 314 822 314 789 C314 755 341 727 376 727 C410 727 437 755 437 789 C437 823 410 850 376 850 L376 850 Z M562 850 C528 850 500 822 500 789 C500 755 527 727 562 727 C595 727 623 755 623 789 C623 823 596 850 562 850 L562 850 Z " />
<glyph glyph-name="uni2011" unicode="&#x2011;" horiz-adv-x="215" d="M0 250 L0 167 L215 167 L215 250 L0 250 Z " />
<glyph glyph-name="figuredash" unicode="&#x2012;" horiz-adv-x="500" d="M34 250 L34 167 L465 167 L465 250 L34 250 Z " />
<glyph glyph-name="endash" unicode="&#x2013;" horiz-adv-x="500" d="M34 250 L34 167 L465 167 L465 250 L34 250 Z " />
<glyph glyph-name="emdash" unicode="&#x2014;" horiz-adv-x="656" d="M0 250 L0 167 L656 167 L656 250 L0 250 Z " />
<glyph glyph-name="afii00208" unicode="&#x2015;" horiz-adv-x="656" d="M0 250 L0 167 L656 167 L656 250 L0 250 Z " />
<glyph glyph-name="quoteleft" unicode="&#x2018;" horiz-adv-x="264" d="M157 680 C74 613 40 556 40 485 C40 416 86 362 144 362 C188 362 224 396 224 438 C224 479 192 513 152 513 C125 513 103 499 89 474 C84 488 82 496 82 510 C82 562 116 618 173 659 L157 680 Z " />
<glyph glyph-name="quoteright" unicode="&#x2019;" horiz-adv-x="264" d="M107 358 C190 426 224 482 224 552 C224 621 178 674 119 674 C76 674 40 640 40 599 C40 559 73 525 112 525 C139 525 161 539 175 565 C180 550 181 542 181 528 C181 476 147 420 91 379 L107 358 Z " />
<glyph glyph-name="quotesinglbase" unicode="&#x201a;" horiz-adv-x="264" d="M107 -172 C190 -104 224 -47 224 24 C224 93 178 147 120 147 C76 147 40 113 40 70 C40 29 72 -5 112 -5 C139 -5 161 9 175 35 C179 20 181 12 181 -1 C181 -54 147 -110 91 -151 L107 -172 Z " />
<glyph glyph-name="quotedblleft" unicode="&#x201c;" horiz-adv-x="499" d="M157 680 C74 613 40 556 40 485 C40 416 86 362 145 362 C188 362 224 396 224 438 C224 479 191 513 152 513 C125 513 103 499 89 474 C84 488 83 497 83 511 C83 562 117 618 173 659 L157 680 Z M391 680 C308 612 275 556 275 485 C275 416 321 362 380 362 C423 362 459 396 459 438 C459 479 426 513 387 513 C360 513 338 499 324 474 C319 488 318 496 318 510 C318 562 351 617 408 659 L391 680 Z " />
<glyph glyph-name="quotedblright" unicode="&#x201d;" horiz-adv-x="501" d="M107 358 C190 425 224 482 224 552 C224 621 178 674 119 674 C76 674 40 640 40 599 C40 559 73 525 112 525 C139 525 161 539 175 565 C179 551 181 542 181 529 C181 476 147 420 91 379 L107 358 Z M344 358 C427 425 461 482 461 552 C461 621 415 674 356 674 C312 674 276 640 276 599 C276 559 309 525 348 525 C375 525 398 539 411 565 C416 551 418 543 418 529 C418 476 384 420 327 379 L344 358 Z " />
<glyph glyph-name="quotedblbase" unicode="&#x201e;" horiz-adv-x="498" d="M107 -172 C190 -104 224 -47 224 24 C224 93 178 147 120 147 C76 147 40 113 40 70 C40 29 73 -5 112 -5 C139 -5 161 9 175 35 C180 20 181 12 181 -1 C181 -54 147 -110 91 -151 L107 -172 Z M342 -172 C424 -105 458 -47 458 24 C458 93 412 147 354 147 C310 147 274 113 274 70 C274 29 307 -5 346 -5 C373 -5 395 9 409 35 C414 20 415 12 415 -1 C415 -54 381 -110 325 -151 L342 -172 Z " />
<glyph glyph-name="dagger" unicode="&#x2020;" horiz-adv-x="500" d="M241 370 C163 405 107 423 77 423 C40 423 10 392 10 353 C10 316 39 288 79 288 C101 288 110 290 166 312 C220 333 220 333 242 342 C213 218 186 20 186 -61 C186 -140 215 -193 259 -193 C298 -193 326 -147 326 -83 C326 -5 308 111 262 342 C332 311 396 290 420 290 C462 290 489 316 489 356 C489 396 461 423 419 423 C394 423 381 419 262 370 C312 528 322 569 322 605 C322 648 293 680 254 680 C216 680 188 650 188 607 C188 583 194 551 209 493 C216 468 223 443 229 418 C231 412 235 395 241 370 L241 370 Z " />
<glyph glyph-name="daggerdbl" unicode="&#x2021;" horiz-adv-x="500" d="M164 128 C130 142 97 150 77 150 C40 150 10 119 10 80 C10 43 39 15 79 15 C103 15 129 24 237 67 L227 42 C178 -74 176 -81 176 -119 C176 -162 203 -193 242 -193 C282 -193 312 -160 312 -115 C312 -91 311 -87 288 -7 C271 50 271 50 266 67 C349 34 398 18 420 18 C462 18 489 44 489 83 C489 123 461 150 419 150 C394 150 394 150 288 108 L266 98 C268 134 288 209 307 254 C285 306 274 348 266 401 C338 370 395 352 421 352 C462 352 489 378 489 417 C489 457 461 484 419 484 C399 484 381 479 340 463 C320 454 303 447 266 433 C304 540 312 569 312 602 C312 649 286 680 246 680 C205 680 177 649 177 603 C177 572 180 563 216 482 L237 433 C159 467 107 484 77 484 C40 484 10 453 10 414 C10 377 39 349 79 349 C103 349 146 363 237 401 C232 354 223 318 199 254 C217 205 231 148 237 100 L164 128 Z " />
<glyph glyph-name="bullet" unicode="&#x2022;" horiz-adv-x="667" d="M335 479 C257 479 196 418 196 339 C196 262 258 200 334 200 C410 200 471 262 471 340 C471 416 410 479 335 479 L335 479 Z " />
<glyph glyph-name="ellipsis" unicode="&#x2026;" horiz-adv-x="780" d="M130 146 C88 146 53 112 53 70 C53 27 87 -7 130 -7 C172 -7 206 27 206 70 C206 112 172 146 130 146 L130 146 Z M390 146 C348 146 313 112 313 70 C313 27 347 -7 390 -7 C432 -7 466 27 466 70 C466 112 432 146 390 146 L390 146 Z M650 146 C608 146 573 112 573 70 C573 27 607 -7 650 -7 C692 -7 726 27 726 70 C726 112 692 146 650 146 L650 146 Z " />
<glyph glyph-name="perthousand" unicode="&#x2030;" horiz-adv-x="1053" d="M169 650 C91 650 27 574 27 483 C27 392 91 316 169 316 C245 316 310 392 310 481 C310 574 247 650 169 650 L169 650 Z M169 628 C188 628 202 617 208 598 C214 575 218 530 218 484 C218 440 214 392 208 368 C203 349 189 338 168 338 C149 338 136 348 130 368 C123 391 119 436 119 483 C119 530 123 575 130 598 C136 618 149 628 169 628 L169 628 Z M521 643 L483 643 L195 0 L233 0 L521 643 Z M548 327 C470 327 406 251 406 161 C406 70 470 -6 548 -6 C624 -6 689 70 689 159 C689 251 626 327 548 327 L548 327 Z M548 305 C567 305 581 294 587 275 C593 252 597 207 597 161 C597 118 593 69 587 46 C582 27 568 16 547 16 C528 16 515 26 509 46 C502 69 498 113 498 160 C498 208 502 252 509 275 C515 295 528 305 548 305 L548 305 Z M885 327 C807 327 743 251 743 161 C743 70 807 -6 885 -6 C961 -6 1026 70 1026 159 C1026 251 963 327 885 327 L885 327 Z M885 305 C904 305 918 294 924 275 C930 252 934 207 934 161 C934 118 930 69 924 46 C919 27 905 16 884 16 C865 16 852 26 846 46 C839 69 835 113 835 160 C835 208 839 252 846 275 C852 295 865 305 885 305 L885 305 Z " />
<glyph glyph-name="guilsinglleft" unicode="&#x2039;" horiz-adv-x="246" d="M40 213 L121 113 L200 113 L121 213 L200 303 L121 303 L40 213 Z " />
<glyph glyph-name="guilsinglright" unicode="&#x203a;" horiz-adv-x="246" d="M207 203 L125 303 L47 303 L125 203 L47 113 L125 113 L207 203 Z " />
<glyph glyph-name="uni203E" unicode="&#x203e;" horiz-adv-x="500" d="M0 847 L0 807 L500 807 L500 847 L0 847 Z " />
<glyph glyph-name="fraction" unicode="&#x2044;" horiz-adv-x="109" d="M219 643 L178 643 L-110 0 L-68 0 L219 643 Z " />
<glyph glyph-name="franc" unicode="&#x20a3;" horiz-adv-x="831" d="M103 25 L23 25 L23 0 L345 0 L345 25 L243 25 L243 326 L282 326 C374 325 401 296 404 197 L431 197 L431 469 L404 469 C405 384 370 349 284 351 L243 351 L243 642 L345 642 C450 649 513 592 535 474 L562 474 L552 667 L23 667 L23 642 L103 642 L103 25 Z M532 25 L465 25 L465 0 L729 0 L729 25 L652 25 L652 166 C652 228 664 266 695 304 C708 320 728 334 736 334 C741 334 744 331 744 326 C744 323 743 321 741 319 C732 307 729 298 729 285 C729 252 754 228 788 228 C824 228 850 255 850 292 C850 337 815 370 768 370 C722 370 678 338 652 285 L652 371 C609 363 578 360 493 360 L465 360 L465 335 L532 335 L532 25 Z " />
<glyph glyph-name="Euro" unicode="&#x20ac;" horiz-adv-x="659" d="M254 386 C256 488 260 517 276 562 C298 622 350 657 419 657 C510 657 566 603 590 493 L617 493 L610 667 L583 667 L565 626 C523 665 473 684 410 684 C255 684 120 557 92 386 L49 386 L34 350 L88 350 C87 344 86 325 86 321 C86 320 86 319 87 317 L49 317 L34 281 L88 281 C106 105 236 -17 405 -17 C470 -17 512 0 562 48 L589 0 L616 0 L624 186 L597 186 C564 74 494 10 404 10 C343 10 297 40 276 93 C258 140 253 177 253 281 L446 281 L461 317 L253 317 L253 320 L253 327 L253 347 L253 350 L476 350 L491 386 L254 386 Z " />
<glyph glyph-name="trademark" unicode="&#x2122;" horiz-adv-x="863" d="M150 309 L96 309 L96 287 L294 287 L294 309 L241 309 L241 645 L252 645 C314 649 348 615 353 545 L377 545 L369 667 L21 667 L13 545 L37 545 C42 615 76 649 138 645 L150 645 L150 309 Z M436 645 L436 345 C436 311 434 309 408 309 L388 309 L388 287 L509 287 L509 309 L489 309 C463 309 461 311 462 345 L462 623 L566 287 L585 287 L691 619 L691 309 L638 309 L638 287 L829 287 L829 309 L782 309 L782 645 L829 645 L829 667 L679 667 L609 446 L541 667 L388 667 L388 645 L436 645 Z " />
<glyph glyph-name="uni2126" unicode="&#x2126;" horiz-adv-x="768" d="M326 0 L308 155 C230 199 180 288 180 382 C180 434 195 493 221 540 C257 605 317 642 385 642 C453 642 513 605 549 540 C575 493 590 434 590 382 C590 288 540 199 462 155 L444 0 L736 0 L736 153 L712 153 C704 108 684 90 643 90 L497 90 L500 128 C535 141 557 151 580 166 C657 215 702 296 702 382 C702 449 673 522 625 578 C564 648 480 686 385 686 C290 686 206 648 145 578 C97 522 68 449 68 382 C68 296 113 215 190 166 C213 151 235 141 270 128 L273 90 L127 90 C86 90 66 108 58 153 L34 153 L34 0 L326 0 Z " />
<glyph glyph-name="partialdiff" unicode="&#x2202;" horiz-adv-x="494" d="M107 673 C152 697 184 706 219 706 C321 706 379 611 379 447 C379 418 377 394 372 346 C308 396 272 412 221 412 C172 412 131 394 95 355 C51 309 26 246 26 184 C26 76 109 -10 213 -10 C282 -10 341 22 383 84 C429 152 462 286 462 402 C462 519 429 610 360 681 C312 730 259 753 195 753 C156 753 121 745 66 724 L107 673 Z M366 312 C350 201 340 158 314 106 C288 54 245 21 201 21 C146 21 113 73 113 159 C113 273 180 367 261 367 C299 367 324 354 366 312 L366 312 Z " />
<glyph glyph-name="Delta" unicode="&#x2206;" horiz-adv-x="612" d="M6 0 L608 0 L327 688 L6 0 Z M77 51 L290 509 L479 51 L77 51 Z " />
<glyph glyph-name="product" unicode="&#x220f;" horiz-adv-x="823" d="M25 -124 L315 -124 L315 -98 L312 -98 C242 -94 221 -67 224 18 L224 594 C224 656 228 677 242 690 C260 707 272 708 413 708 C556 708 568 707 586 690 C600 677 604 656 604 594 L604 18 C607 -67 586 -94 516 -98 L513 -98 L513 -124 L803 -124 L803 -98 L800 -98 C730 -94 709 -67 712 18 L712 609 C709 694 730 721 800 725 L803 725 L803 751 L25 751 L25 725 L28 725 C98 721 119 694 116 609 L116 18 C119 -67 98 -94 28 -98 L25 -98 L25 -124 Z " />
<glyph glyph-name="summation" unicode="&#x2211;" horiz-adv-x="713" d="M176 711 L444 711 C560 710 590 688 606 587 L632 587 L622 752 L23 752 L256 285 L14 -123 L641 -123 L695 87 L669 87 C639 7 605 -12 491 -11 L163 -11 L364 341 L176 711 Z " />
<glyph glyph-name="minus" unicode="&#x2212;" horiz-adv-x="500" d="M44 340 L44 307 L455 307 L455 340 L44 340 Z " />
<glyph glyph-name="uni2215" unicode="&#x2215;" horiz-adv-x="109" d="M219 643 L178 643 L-110 0 L-68 0 L219 643 Z " />
<glyph glyph-name="uni2219" unicode="&#x2219;" horiz-adv-x="260" d="M130 280 C88 280 53 246 53 204 C53 161 87 127 130 127 C172 127 206 161 206 204 C206 246 172 280 130 280 L130 280 Z " />
<glyph glyph-name="radical" unicode="&#x221a;" horiz-adv-x="549" d="M363 -35 L515 908 L480 913 L353 123 L156 520 L10 449 L26 414 L121 461 L363 -35 Z " />
<glyph glyph-name="infinity" unicode="&#x221e;" horiz-adv-x="713" d="M357 227 C415 156 485 115 548 115 C631 115 688 176 688 266 C688 354 629 414 543 414 C476 414 412 376 357 303 C300 375 234 414 171 414 C86 414 26 351 26 263 C26 176 84 115 167 115 C224 115 281 142 327 192 L357 227 Z M391 264 C434 325 493 362 546 362 C600 362 638 321 638 264 C638 205 603 167 549 167 C495 167 461 188 391 264 L391 264 Z M324 266 C275 203 216 167 163 167 C111 167 76 207 76 266 C76 323 113 362 167 362 C218 362 258 337 324 266 L324 266 Z " />
<glyph glyph-name="integral" unicode="&#x222b;" horiz-adv-x="274" d="M180 576 C180 653 179 691 176 746 C174 774 173 800 173 815 C173 855 184 878 202 878 C208 878 213 876 215 872 C232 845 239 839 256 839 C276 839 291 853 291 871 C291 898 267 916 231 916 C186 916 152 887 138 838 C123 784 113 682 113 577 L113 232 C113 160 114 124 117 63 C119 34 120 4 120 -12 C120 -47 108 -70 89 -70 C81 -70 74 -65 68 -52 C59 -35 51 -30 37 -30 C17 -30 2 -44 2 -63 C2 -89 26 -107 62 -107 C107 -107 141 -78 155 -29 C170 25 180 126 180 232 L180 576 Z " />
<glyph glyph-name="approxequal" unicode="&#x2248;" horiz-adv-x="549" d="M489 251 C444 199 423 187 384 187 C365 187 354 190 285 211 C212 234 188 239 160 239 C101 239 54 211 14 155 L57 121 C103 174 120 184 159 184 C180 184 180 184 271 157 C350 133 354 132 385 132 C449 132 496 160 527 217 L489 251 Z M489 408 C443 356 423 344 384 344 C365 344 354 347 285 368 C212 391 188 396 160 396 C101 396 54 369 14 312 L57 278 C103 331 119 341 159 341 C180 341 180 341 271 314 C350 290 354 289 385 289 C449 289 496 317 527 374 L489 408 Z " />
<glyph glyph-name="notequal" unicode="&#x2260;" horiz-adv-x="549" d="M187 142 L115 -1 L161 -25 L246 142 L540 142 L540 197 L273 197 L344 336 L540 336 L540 391 L371 391 L439 525 L392 549 L312 391 L15 391 L15 336 L285 336 L215 197 L15 197 L15 142 L187 142 Z " />
<glyph glyph-name="lessequal" unicode="&#x2264;" horiz-adv-x="549" d="M526 55 L29 55 L29 0 L526 0 L526 55 Z M526 639 L29 405 L29 350 L526 117 L526 179 L108 378 L526 577 L526 639 Z " />
<glyph glyph-name="greaterequal" unicode="&#x2265;" horiz-adv-x="549" d="M526 55 L29 55 L29 0 L526 0 L526 55 Z M29 639 L29 577 L447 378 L29 179 L29 117 L526 350 L526 405 L29 639 Z " />
<glyph glyph-name="lozenge" unicode="&#x25ca;" horiz-adv-x="494" d="M209 0 L269 -1 L466 374 L277 740 L214 740 L18 377 L209 0 Z M240 58 L81 376 L245 683 L402 373 L240 58 Z " />
<glyph glyph-name="fi" unicode="&#xfb01;" horiz-adv-x="542" d="M200 393 L200 555 C200 618 230 647 295 647 C333 647 359 639 359 628 C359 624 357 622 350 613 C337 599 333 587 333 569 C333 530 359 503 396 503 C433 503 460 530 460 566 C460 626 389 674 302 674 C230 674 164 643 124 589 C93 547 80 500 80 426 L80 393 L13 393 L13 368 L80 368 L80 25 L13 25 L13 0 L253 0 L253 25 L200 25 L200 368 L347 368 L347 25 L293 25 L293 0 L533 0 L533 25 L467 25 L467 404 C424 396 392 393 311 393 L200 393 Z " />
<glyph glyph-name="fl" unicode="&#xfb02;" horiz-adv-x="537" d="M467 678 C428 671 402 668 355 668 C332 672 318 674 299 674 C224 674 160 644 122 591 C93 550 80 500 80 426 L80 393 L13 393 L13 368 L80 368 L80 25 L13 25 L13 0 L253 0 L253 25 L200 25 L200 368 L291 368 L291 393 L200 393 L200 555 C200 619 225 647 284 647 C313 647 333 638 341 621 C346 611 347 599 347 560 L347 25 L293 25 L293 0 L533 0 L533 25 L467 25 L467 678 Z " />
</font>
</svg>
