<?xml version="1.0" encoding="UTF-8"?>
<svg xmlns="http://www.w3.org/2000/svg" xmlns:xlink="http://www.w3.org/1999/xlink" version="1.2" >
<font id="Baskerville URW Wide Extra Bold Oblique">
<font-face  font-family="Baskerville URW Wide" units-per-em="1000" ascent="679" descent="-321" font-style="italic" font-weight="800" font-stretch="normal" cap-height="665" x-height="403" underline-position="-94" underline-thickness="89" />
<missing-glyph  horiz-adv-x="250" d="" />
<glyph glyph-name="NULL" d="" />
<glyph glyph-name="CR" unicode="&#xd;" horiz-adv-x="250" d="" />
<glyph glyph-name="space" unicode="&#x20;" horiz-adv-x="250" d="" />
<glyph glyph-name="exclam" unicode="&#x21;" horiz-adv-x="352" d="M180 220 L301 557 C314 596 319 613 319 627 C319 663 298 679 250 679 C177 679 152 649 146 554 L123 220 L180 220 Z M140 160 C79 160 24 109 24 53 C24 13 56 -18 99 -18 C160 -18 215 33 215 89 C215 129 182 160 140 160 L140 160 Z " />
<glyph glyph-name="quotedbl" unicode="&#x22;" horiz-adv-x="518" d="M182 399 L292 667 L108 667 L104 399 L182 399 Z M442 399 L553 667 L369 667 L364 399 L442 399 Z " />
<glyph glyph-name="numbersign" unicode="&#x23;" horiz-adv-x="603" d="M379 227 L492 227 L518 293 L413 293 L461 388 L574 388 L600 454 L495 454 L604 667 L526 667 L417 454 L314 454 L423 667 L346 667 L238 454 L116 454 L90 388 L204 388 L156 293 L32 293 L6 227 L122 227 L6 0 L83 0 L198 227 L301 227 L186 0 L264 0 L379 227 Z M383 388 L335 293 L232 293 L280 388 L383 388 Z " />
<glyph glyph-name="dollar" unicode="&#x24;" horiz-adv-x="573" d="M204 -133 L229 -13 C382 3 496 106 496 227 C496 294 450 349 361 389 L330 403 C325 405 321 407 319 408 L358 594 C396 587 408 575 415 540 C422 502 422 502 432 490 C440 478 455 471 469 471 C506 471 540 504 540 540 C540 600 467 647 370 649 L376 679 L320 679 L313 647 C244 636 197 616 161 584 C115 543 86 484 86 432 C86 394 101 358 130 329 C148 310 162 301 218 274 L232 267 L185 43 C155 50 137 71 129 106 C121 137 106 150 77 150 C36 150 3 119 3 82 C3 29 64 -6 173 -15 L147 -133 L204 -133 Z M283 240 C291 235 291 235 297 232 C324 217 324 217 333 211 C356 193 365 177 365 152 C365 94 319 53 241 42 L283 240 Z M265 432 C233 445 214 472 214 503 C214 543 244 578 289 590 C294 591 298 593 300 594 L265 432 Z " />
<glyph glyph-name="percent" unicode="&#x25;" horiz-adv-x="827" d="M273 680 C208 680 158 656 116 604 C82 563 62 509 62 458 C62 379 110 333 192 333 C261 333 311 356 351 406 C385 448 404 499 404 552 C404 635 358 680 273 680 L273 680 Z M262 638 C287 638 299 621 299 586 C299 531 278 445 255 407 C242 386 226 375 206 375 C180 375 167 393 167 427 C167 459 180 525 196 574 C210 616 233 638 262 638 L262 638 Z M201 0 L703 668 L628 668 L126 0 L201 0 Z M633 334 C569 334 518 310 476 258 C442 217 423 163 423 112 C423 33 471 -13 553 -13 C622 -13 672 10 712 60 C746 102 765 153 765 206 C765 289 719 334 633 334 L633 334 Z M623 292 C648 292 659 276 659 241 C659 174 638 93 609 51 C600 38 583 29 567 29 C541 29 528 47 528 81 C528 127 550 216 572 259 C582 279 602 292 623 292 L623 292 Z " />
<glyph glyph-name="ampersand" unicode="&#x26;" horiz-adv-x="815" d="M503 211 L454 293 L397 388 C492 431 543 491 543 558 C543 617 490 654 404 654 C279 654 191 576 191 464 C191 435 196 418 218 364 C78 296 8 219 8 134 C8 52 84 -14 177 -14 C251 -14 315 7 405 60 C444 11 493 -13 553 -13 C611 -13 668 12 703 52 C724 76 737 103 748 145 L691 145 C674 95 655 76 621 76 C592 76 568 97 541 146 C538 152 537 154 532 162 C558 188 580 213 615 255 C675 327 698 344 747 354 L759 407 L556 407 L545 354 C571 352 583 344 583 327 C583 307 556 268 509 217 L503 211 Z M248 305 L270 268 L301 216 L334 161 L366 109 L368 105 C341 87 310 77 283 77 C216 77 163 138 163 214 C163 253 192 287 244 312 L248 305 Z M362 439 C340 472 327 506 327 531 C327 569 354 597 391 597 C422 597 442 576 442 545 C442 505 416 471 362 439 L362 439 Z " />
<glyph glyph-name="quotesingle" unicode="&#x27;" horiz-adv-x="285" d="M198 399 L309 667 L118 667 L114 399 L198 399 Z " />
<glyph glyph-name="parenleft" unicode="&#x28;" horiz-adv-x="363" d="M214 -245 C156 -122 138 -49 138 56 C138 204 186 367 271 504 C306 560 334 595 411 679 L330 679 C165 524 58 278 58 51 C58 -57 82 -149 134 -245 L214 -245 Z " />
<glyph glyph-name="parenright" unicode="&#x29;" horiz-adv-x="363" d="M-16 -245 C165 -55 256 155 256 385 C256 500 231 597 180 679 L99 679 C156 566 176 489 176 380 C176 239 133 87 55 -48 C24 -102 -16 -153 -97 -245 L-16 -245 Z " />
<glyph glyph-name="asterisk" unicode="&#x2a;" horiz-adv-x="562" d="M290 385 C303 365 307 351 308 326 C309 261 309 258 315 242 C323 221 339 208 359 208 C404 208 454 249 454 285 C454 310 443 322 393 353 C365 369 343 390 333 412 C353 420 369 423 395 423 C409 423 426 422 445 420 C463 419 472 418 478 418 C527 418 564 451 564 494 C564 527 542 552 513 552 C491 552 468 543 442 524 C383 480 362 467 330 458 C330 481 340 507 372 555 C402 601 407 613 407 634 C407 663 386 679 349 679 C304 679 268 647 268 607 C268 600 269 594 270 589 C285 522 286 514 286 494 C286 483 284 473 278 458 C259 460 238 474 205 509 C174 540 159 549 135 549 C95 549 54 505 54 463 C54 432 77 416 120 416 C128 416 136 416 143 417 C181 421 181 421 195 421 C225 421 242 418 255 412 C238 390 216 376 162 349 C101 319 77 295 77 265 C77 235 107 208 140 208 C179 208 204 231 229 291 C251 343 269 371 290 385 L290 385 Z " />
<glyph glyph-name="plus" unicode="&#x2b;" horiz-adv-x="525" d="M19 414 L0 325 L213 325 L170 120 L263 120 L306 325 L521 325 L540 414 L325 414 L368 617 L275 617 L232 414 L19 414 Z " />
<glyph glyph-name="comma" unicode="&#x2c;" horiz-adv-x="352" d="M-43 -200 C102 -195 217 -81 217 54 C217 120 184 156 123 156 C59 156 6 105 6 45 C6 8 34 -18 73 -18 C80 -18 87 -17 93 -15 C109 -11 109 -11 115 -11 C125 -11 132 -17 132 -27 C132 -79 55 -134 -31 -142 L-43 -200 Z " />
<glyph glyph-name="hyphen" unicode="&#x2d;" horiz-adv-x="363" d="M15 254 L-1 180 L304 180 L320 254 L15 254 Z " />
<glyph glyph-name="period" unicode="&#x2e;" horiz-adv-x="352" d="M140 160 C79 160 24 109 24 53 C24 13 56 -18 99 -18 C160 -18 215 33 215 89 C215 129 182 160 140 160 L140 160 Z " />
<glyph glyph-name="slash" unicode="&#x2f;" horiz-adv-x="363" d="M413 694 L297 694 L-145 -267 L-31 -267 L413 694 Z " />
<glyph glyph-name="zero" unicode="0" horiz-adv-x="573" d="M359 677 C256 677 162 616 104 512 C56 426 23 296 23 197 C23 69 97 -14 210 -14 C321 -14 426 62 483 185 C518 261 546 386 546 469 C546 593 470 677 359 677 L359 677 Z M349 621 C384 621 405 597 405 557 C405 535 399 493 390 453 C379 404 370 361 345 243 C330 165 327 152 312 114 C296 70 263 44 225 44 C188 44 170 68 170 114 C170 186 232 481 262 550 C283 599 310 621 349 621 L349 621 Z " />
<glyph glyph-name="one" unicode="1" horiz-adv-x="573" d="M159 567 L169 567 C224 567 251 555 251 530 C251 529 251 529 246 488 L167 114 C156 71 135 55 87 55 L61 55 L49 0 L395 0 L406 55 L379 55 C343 55 325 66 325 89 C325 98 327 114 330 128 L447 679 L395 679 C332 641 268 624 171 620 L159 567 Z " />
<glyph glyph-name="two" unicode="2" horiz-adv-x="573" d="M-9 0 L333 0 C360 0 368 -4 368 -16 C368 -19 367 -23 366 -25 L365 -27 L362 -37 L360 -40 L414 -40 L471 100 L175 100 C301 201 454 339 494 387 C533 434 551 480 551 533 C551 562 544 587 529 608 C499 650 432 677 359 677 C253 677 154 628 113 556 C100 533 96 514 96 478 C96 446 102 428 113 428 C118 428 127 430 137 435 L139 435 C144 437 150 439 156 441 C162 444 169 446 175 448 C184 452 192 455 201 458 C211 462 216 465 216 470 C216 472 214 478 211 484 C204 498 201 512 201 524 C201 573 252 617 311 617 C360 617 387 587 387 535 C387 400 241 215 1 46 L-9 0 Z " />
<glyph glyph-name="three" unicode="3" horiz-adv-x="573" d="M493 277 C490 345 449 382 368 391 C366 391 365 391 364 392 L362 394 L361 393 C446 437 486 464 507 490 C531 522 542 547 542 574 C542 635 474 678 374 678 C227 678 98 595 98 499 C98 474 108 454 120 454 C126 454 134 456 142 459 C146 461 149 462 149 462 L162 465 C163 465 168 467 177 471 C180 472 184 474 188 475 C219 485 231 491 231 497 C231 499 230 502 228 504 C216 518 209 531 209 541 C209 579 263 618 316 618 C352 618 384 590 384 559 C384 488 333 425 231 373 C188 351 173 338 173 321 C173 307 185 295 199 295 C210 295 221 300 240 315 C260 330 273 335 290 335 C318 335 331 321 331 292 C331 249 315 173 295 126 C275 77 224 42 171 42 C141 42 126 56 120 89 C114 117 113 121 105 131 C95 143 79 151 63 151 C18 151 -22 115 -22 75 C-22 23 41 -15 128 -15 C332 -15 493 114 493 277 L493 277 Z " />
<glyph glyph-name="four" unicode="4" horiz-adv-x="573" d="M254 228 L232 125 C220 70 205 58 147 55 L119 55 L108 0 L461 0 L472 55 L445 55 C410 55 388 69 388 91 C388 99 390 115 393 129 L414 228 L509 228 L544 322 L509 322 L501 313 C489 297 486 296 466 296 L460 296 L454 296 L442 296 L429 296 L509 674 L424 674 L29 302 L13 228 L254 228 Z M268 296 L94 296 L311 494 L268 296 Z " />
<glyph glyph-name="five" unicode="5" horiz-adv-x="573" d="M158 336 C189 374 213 388 251 388 C301 388 329 362 329 315 C329 268 306 171 282 116 C263 72 222 43 179 43 C148 43 123 60 115 86 C103 121 103 121 93 132 C83 142 70 148 55 148 C13 148 -25 114 -25 75 C-25 25 47 -14 140 -14 C336 -14 490 117 490 284 C490 381 413 449 304 449 C253 449 206 435 169 409 L207 565 L397 565 L418 565 L426 565 L427 565 C451 562 470 582 518 658 C521 663 521 664 525 668 L175 668 L93 336 L158 336 Z " />
<glyph glyph-name="six" unicode="6" horiz-adv-x="573" d="M247 401 C265 475 292 533 330 581 C348 604 374 618 399 618 C424 618 439 608 450 586 C466 555 482 541 506 541 C543 541 580 574 580 608 C580 646 528 677 463 677 C366 677 271 638 198 570 C101 478 34 320 34 182 C34 66 113 -14 226 -14 C386 -14 519 115 519 271 C519 323 501 363 467 386 C433 410 385 424 338 424 C305 424 276 417 247 401 L247 401 Z M300 368 C334 368 352 346 352 305 C352 277 349 259 332 172 C314 81 286 42 238 42 C205 42 187 66 187 108 C187 136 196 199 208 257 C223 330 255 368 300 368 L300 368 Z " />
<glyph glyph-name="seven" unicode="7" horiz-adv-x="573" d="M599 668 L274 668 C253 668 248 670 248 681 C248 685 249 687 252 695 L195 695 L83 493 L139 493 C165 538 175 544 226 544 L466 544 L153 121 C123 82 107 50 107 34 C107 6 133 -14 168 -14 C211 -14 242 12 277 76 L599 668 Z " />
<glyph glyph-name="eight" unicode="8" horiz-adv-x="573" d="M373 356 C493 386 557 453 557 547 C557 629 482 681 363 681 C205 681 92 595 92 475 C92 414 136 372 218 356 C150 345 106 326 72 295 C29 256 3 196 3 136 C3 107 10 82 25 60 C56 16 133 -14 216 -14 C384 -14 507 88 507 227 C507 299 466 338 373 356 L373 356 Z M351 626 C386 626 403 610 403 575 C403 526 387 453 370 422 C353 393 330 379 299 379 C260 379 240 397 240 433 C240 462 249 513 261 548 C279 603 305 626 351 626 L351 626 Z M160 106 C160 136 171 197 184 236 C206 303 232 325 289 325 C330 325 351 306 351 268 C351 224 334 144 315 98 C300 62 268 41 227 41 C181 41 160 61 160 103 L160 106 Z " />
<glyph glyph-name="nine" unicode="9" horiz-adv-x="573" d="M325 262 C307 188 280 130 242 82 C224 59 197 45 172 45 C148 45 132 55 122 77 C106 109 90 122 66 122 C29 122 -8 89 -8 55 C-8 17 44 -14 109 -14 C205 -14 301 25 374 93 C471 185 538 343 538 481 C538 597 459 677 346 677 C186 677 53 548 53 392 C53 340 71 300 105 277 C139 253 187 239 234 239 C266 239 295 246 325 262 L325 262 Z M334 621 C367 621 385 597 385 555 C385 526 376 463 364 406 C349 332 317 294 272 294 C238 294 220 316 220 357 C220 386 224 412 240 491 C258 583 286 621 334 621 L334 621 Z " />
<glyph glyph-name="colon" unicode="&#x3a;" horiz-adv-x="352" d="M142 160 C81 160 26 109 26 53 C26 13 58 -18 101 -18 C162 -18 217 33 217 89 C217 129 184 160 142 160 L142 160 Z M197 419 C136 419 81 368 81 312 C81 271 113 240 157 240 C217 240 272 292 272 347 C272 388 240 419 197 419 L197 419 Z " />
<glyph glyph-name="semicolon" unicode="&#x3b;" horiz-adv-x="352" d="M-43 -200 C102 -195 217 -81 217 54 C217 120 184 156 123 156 C59 156 6 105 6 45 C6 8 34 -18 73 -18 C80 -18 87 -17 93 -15 C109 -11 109 -11 115 -11 C125 -11 132 -17 132 -27 C132 -79 55 -134 -31 -142 L-43 -200 Z M195 419 C134 419 79 368 79 312 C79 272 111 241 154 241 C215 241 270 292 270 348 C270 389 238 419 195 419 L195 419 Z " />
<glyph glyph-name="less" unicode="&#x3c;" horiz-adv-x="525" d="M551 644 L49 381 L47 372 L431 78 L474 278 L273 431 L535 569 L551 644 Z " />
<glyph glyph-name="equal" unicode="&#x3d;" horiz-adv-x="525" d="M46 490 L27 403 L528 403 L546 490 L46 490 Z M2 335 L-16 248 L505 248 L523 335 L2 335 Z " />
<glyph glyph-name="greater" unicode="&#x3e;" horiz-adv-x="525" d="M-15 78 L487 341 L489 350 L105 644 L63 444 L264 291 L1 153 L-15 78 Z " />
<glyph glyph-name="question" unicode="&#x3f;" horiz-adv-x="507" d="M147 160 C86 160 31 109 31 54 C31 13 64 -18 107 -18 C167 -18 223 33 223 89 C223 130 190 160 147 160 L147 160 Z M128 222 L189 222 L208 312 C232 305 251 302 274 302 C395 302 498 403 498 522 C498 620 425 679 303 679 C196 679 92 621 92 561 C92 540 115 522 141 522 C172 522 197 539 214 572 C227 597 228 599 236 606 C247 616 267 623 284 623 C320 623 343 594 343 546 C343 512 336 470 326 441 C310 394 282 369 245 369 C229 369 218 374 209 385 L163 385 L128 222 Z " />
<glyph glyph-name="at" unicode="&#x40;" horiz-adv-x="827" d="M553 481 C533 512 504 526 463 526 C392 526 317 481 257 403 C216 349 190 288 190 244 C190 180 230 139 292 139 C331 139 357 149 415 185 C418 180 418 180 423 168 C430 154 459 141 484 141 C549 141 631 182 690 244 C745 302 777 375 777 445 C777 578 662 677 508 677 C273 677 62 481 62 263 C62 107 185 -10 351 -10 C488 -10 621 57 712 172 L647 173 C568 90 468 45 365 45 C223 45 118 143 118 276 C118 462 294 625 495 625 C626 625 723 542 723 431 C723 383 704 331 670 289 C627 235 559 189 521 189 C511 189 503 197 503 207 C503 211 504 214 508 221 C508 222 512 230 520 246 L667 513 C634 511 613 511 570 511 L553 481 Z M453 309 C419 251 416 246 400 229 C370 197 341 180 314 180 C289 180 273 195 273 219 C273 251 305 317 352 383 C402 455 438 483 479 483 C503 483 519 467 519 443 C519 439 518 434 517 431 L517 429 L516 427 C513 418 509 409 504 400 L453 309 Z " />
<glyph glyph-name="A" unicode="A" horiz-adv-x="687" d="M630 0 L642 55 L637 55 C589 60 576 78 555 162 L446 679 L385 679 L77 188 L70 177 C21 98 -22 60 -67 55 L-73 55 L-85 0 L146 0 L158 55 L150 55 C114 55 93 67 93 88 C93 98 105 124 123 153 L139 180 L355 180 L363 143 C367 122 371 97 371 89 C371 66 347 55 301 55 L295 55 L283 0 L630 0 Z M344 236 L174 236 L299 436 L344 236 Z " />
<glyph glyph-name="B" unicode="B" horiz-adv-x="721" d="M99 663 L87 609 L95 609 C150 609 170 594 170 555 C170 545 169 536 167 527 L84 136 C73 79 42 55 -23 55 L-30 55 L-42 0 L323 0 C437 0 514 18 570 59 C620 95 651 153 651 209 C651 253 630 289 589 317 C563 335 532 345 478 355 C618 387 690 450 690 538 C690 577 672 611 641 631 C597 660 534 671 417 671 C379 671 379 671 251 667 L99 663 Z M298 324 L313 324 C385 324 410 320 433 306 C451 294 463 269 463 240 C463 201 452 146 438 121 C418 82 373 59 320 59 C276 59 254 74 254 104 C254 112 256 126 261 150 L298 324 Z M311 383 L360 613 C368 614 372 614 382 614 C429 614 471 602 486 584 C495 574 499 558 499 537 C499 487 480 436 453 413 C425 390 399 383 331 383 L313 383 L311 383 Z " />
<glyph glyph-name="C" unicode="C" horiz-adv-x="778" d="M644 256 C624 212 587 157 556 126 C512 81 435 51 368 51 C281 51 222 108 222 191 C222 270 249 394 283 473 C322 562 398 615 489 615 C599 615 661 546 668 412 L725 412 L771 658 L714 658 C701 633 692 617 679 599 C628 654 567 679 479 679 C341 679 216 618 129 509 C68 431 34 341 34 254 C34 93 151 -14 327 -14 C417 -14 512 18 575 70 C585 54 590 34 591 6 L648 6 L702 256 L644 256 Z " />
<glyph glyph-name="D" unicode="D" horiz-adv-x="836" d="M88 613 L96 613 C147 613 172 597 172 564 C172 555 170 542 168 531 L84 136 C72 78 43 55 -22 55 L-30 55 L-42 0 L209 0 C447 1 487 7 578 54 C713 124 799 260 799 404 C799 504 751 583 665 627 C601 659 501 673 331 673 C286 673 229 672 169 670 L161 670 C149 670 146 670 129 669 C109 668 106 668 100 667 L88 613 Z M360 615 C365 616 370 616 376 616 C455 616 492 608 530 583 C580 549 604 500 604 434 C604 357 580 259 546 195 C496 101 426 59 322 59 C281 59 256 78 256 108 C256 117 259 137 263 156 L360 615 Z " />
<glyph glyph-name="E" unicode="E" horiz-adv-x="705" d="M591 219 C534 100 474 57 371 59 L353 59 C289 59 258 74 258 106 C258 114 260 122 266 154 L301 319 L370 319 C418 319 435 307 435 274 C435 265 434 253 432 243 L431 235 L490 235 L538 461 L478 461 L477 455 C460 394 442 379 380 378 L314 378 L363 608 L496 608 C551 607 570 601 583 581 C598 558 608 529 612 494 L669 494 L696 667 L100 667 L88 613 L102 613 C151 613 176 597 176 564 C176 555 175 543 172 531 L88 136 C77 79 46 55 -17 55 L-30 55 L-42 0 L598 0 L649 219 L591 219 Z " />
<glyph glyph-name="F" unicode="F" horiz-adv-x="628" d="M687 667 L100 667 L88 613 L101 613 C155 613 175 599 175 560 C175 553 174 541 172 531 L88 136 C76 78 47 55 -18 55 L-28 55 L-40 0 L337 0 L349 55 L334 55 C281 55 259 70 259 108 C259 118 260 127 262 136 L301 318 L357 318 C404 318 418 306 418 269 C418 257 417 247 416 237 L415 231 L473 231 L521 460 L463 460 L461 453 C443 393 426 379 371 378 L313 378 L362 608 L480 608 C534 607 556 600 569 579 C584 555 593 527 595 490 L654 490 L687 667 Z " />
<glyph glyph-name="G" unicode="G" horiz-adv-x="827" d="M475 308 L464 254 L472 253 C514 249 532 235 532 206 C532 199 532 195 531 190 L525 166 L524 135 C513 86 446 49 369 49 C274 49 223 94 223 180 C223 247 248 365 277 440 C321 555 392 609 497 609 C601 609 659 553 673 439 L727 439 L771 672 L718 672 C711 647 700 626 683 602 C630 654 563 679 481 679 C345 679 216 614 127 502 C67 427 33 337 33 255 C33 94 151 -14 327 -14 C371 -14 412 -8 502 10 C562 22 618 29 655 29 C659 29 665 29 677 28 L706 168 C720 230 730 241 780 252 L791 254 L802 308 L475 308 Z " />
<glyph glyph-name="H" unicode="H" horiz-adv-x="895" d="M592 319 L553 136 C541 77 513 55 448 55 L438 29 L432 0 L795 0 L807 55 L798 55 C746 55 725 69 725 107 C725 119 726 127 728 136 L811 531 C826 592 850 610 917 612 L926 612 L937 667 L573 667 L562 612 L566 612 C619 612 640 598 640 561 C640 549 639 541 637 531 L605 381 L309 381 L341 531 C354 590 383 612 447 612 L453 612 L465 667 L100 667 L88 612 L96 612 C146 612 170 596 170 562 C170 550 169 541 167 531 L83 136 C72 79 40 55 -22 55 L-30 55 L-42 0 L323 0 L334 55 L329 55 C288 55 273 61 259 83 C254 90 253 95 253 103 C253 110 255 124 257 136 L296 319 L592 319 Z " />
<glyph glyph-name="I" unicode="I" horiz-adv-x="428" d="M88 612 L97 612 C149 612 171 598 171 564 C171 552 170 542 168 531 L84 136 C72 78 43 55 -22 55 L-30 55 L-42 0 L328 0 L340 55 L329 55 C279 55 254 70 254 101 C254 111 255 124 258 136 L342 531 C355 591 383 613 447 612 L458 612 L470 667 L100 667 L88 612 Z " />
<glyph glyph-name="J" unicode="J" horiz-adv-x="426" d="M100 667 L89 612 L107 612 C159 612 181 598 181 565 C181 552 180 542 178 531 L66 8 C35 -142 6 -183 -66 -183 C-87 -183 -100 -176 -100 -165 C-100 -160 -97 -155 -92 -148 C-79 -134 -76 -127 -76 -114 C-76 -85 -102 -66 -142 -66 C-201 -66 -251 -106 -251 -153 C-251 -204 -188 -237 -90 -237 C-1 -237 76 -215 133 -172 C196 -126 224 -72 250 53 L352 531 C365 591 393 613 457 612 L467 612 L478 667 L100 667 Z " />
<glyph glyph-name="K" unicode="K" horiz-adv-x="838" d="M305 345 L345 531 C358 591 385 613 450 612 L462 612 L473 667 L100 667 L88 612 L100 612 C152 612 174 598 174 564 C174 555 173 542 170 531 L86 136 C75 78 46 55 -19 55 L-30 55 L-42 0 L322 0 L334 55 L331 55 C281 55 257 70 257 101 C257 113 258 124 261 136 L288 264 L376 327 L471 142 C472 137 475 130 480 121 C488 106 491 97 491 91 C491 66 466 55 412 55 L406 55 L394 0 L796 0 L808 55 L803 55 C740 54 702 86 667 167 L532 440 L608 496 C722 581 777 608 845 612 L853 612 L864 667 L554 667 L543 612 L551 612 C583 612 600 604 600 588 C600 568 578 543 535 511 L305 345 Z " />
<glyph glyph-name="L" unicode="L" horiz-adv-x="684" d="M646 222 L591 222 C540 110 469 60 365 60 L351 60 C285 60 256 74 256 107 C256 114 258 128 263 150 L344 531 C357 591 385 613 449 612 L463 612 L475 667 L100 667 L88 612 L99 612 C151 612 173 598 173 564 C173 553 172 542 169 531 L86 136 C74 78 45 55 -20 55 L-30 55 L-42 0 L596 0 L646 222 Z " />
<glyph glyph-name="M" unicode="M" horiz-adv-x="1053" d="M369 667 L98 667 L86 612 L92 612 C140 612 161 598 161 564 C161 551 160 540 157 528 L83 178 C69 94 38 60 -28 55 L-32 55 L-44 0 L198 0 L210 55 L205 55 C161 55 132 80 132 119 C132 129 134 143 141 175 L214 520 L364 0 L405 0 L786 528 L702 136 C691 78 662 55 596 55 L582 55 L570 0 L953 0 L965 55 L948 55 C899 55 873 71 873 102 C873 113 874 124 877 136 L961 531 C974 592 1001 613 1067 612 L1082 612 L1093 667 L815 667 L496 229 L369 667 Z " />
<glyph glyph-name="N" unicode="N" horiz-adv-x="824" d="M643 -11 L752 501 C764 570 792 601 854 612 L861 612 L873 667 L631 667 L619 612 L625 612 C665 612 695 586 695 550 C695 537 693 521 689 503 L637 259 L335 667 L98 667 L86 612 L91 612 C144 612 170 588 170 539 C170 526 169 520 167 511 L95 170 C85 123 81 111 71 99 C52 74 9 54 -24 55 L-28 55 L-40 0 L224 0 L236 55 L222 55 C184 54 150 83 150 116 C150 125 154 149 158 171 L223 477 L580 -11 L643 -11 Z " />
<glyph glyph-name="O" unicode="O" horiz-adv-x="870" d="M516 679 C374 679 249 630 160 541 C82 462 35 356 35 260 C35 170 77 86 142 44 C201 6 278 -14 364 -14 C496 -14 612 30 701 114 C785 193 834 300 834 402 C834 570 709 679 516 679 L516 679 Z M497 615 C562 615 607 588 626 538 C633 519 636 498 636 469 C636 342 597 201 541 125 C508 81 443 50 380 50 C286 50 233 105 233 203 C233 295 271 440 314 512 C355 580 417 615 497 615 L497 615 Z " />
<glyph glyph-name="P" unicode="P" horiz-adv-x="702" d="M99 667 L88 612 L105 612 C157 612 179 598 179 564 C179 552 178 542 176 531 L92 136 C80 78 51 55 -13 55 L-26 55 L-38 0 L342 0 L353 55 L336 55 C287 55 262 70 262 101 C262 111 264 124 266 136 L300 295 L387 295 C479 295 542 307 596 335 C671 373 717 444 717 519 C717 576 687 617 628 644 C585 663 521 672 428 672 C410 672 380 672 337 671 L255 670 L99 667 Z M313 354 L367 613 C483 617 528 590 528 517 C528 476 515 436 490 405 C462 370 419 354 348 354 L313 354 Z " />
<glyph glyph-name="Q" unicode="Q" horiz-adv-x="869" d="M478 -2 C567 18 639 55 699 112 C783 192 833 298 833 400 C833 458 817 511 786 558 C734 636 636 679 508 679 C352 679 215 615 124 499 C67 427 35 342 35 260 C35 170 76 87 142 44 C193 11 275 -13 339 -13 L348 -13 L327 -23 L315 -29 C232 -70 179 -101 162 -120 C155 -128 152 -136 152 -146 C152 -162 163 -173 179 -173 C192 -173 208 -165 227 -150 C276 -110 296 -101 334 -101 C369 -101 404 -118 436 -151 C486 -205 486 -205 500 -215 C536 -243 580 -256 637 -256 C769 -256 868 -189 913 -70 L857 -70 C822 -106 767 -128 710 -128 C678 -128 619 -118 599 -110 C527 -79 527 -79 481 -65 C454 -57 408 -47 399 -47 C398 -47 395 -47 389 -48 L478 -2 Z M495 615 C537 615 580 599 602 575 C625 551 636 514 636 467 C636 361 600 221 556 152 C514 86 452 51 379 51 C286 51 235 101 235 193 C235 230 244 310 253 354 C288 524 373 615 495 615 L495 615 Z " />
<glyph glyph-name="R" unicode="R" horiz-adv-x="776" d="M735 0 L746 55 L740 55 C698 56 668 91 628 185 C600 253 567 306 541 326 C653 359 721 433 721 522 C721 579 689 623 631 647 C595 661 502 669 369 669 C336 669 302 669 292 668 L277 668 L100 667 L88 612 L103 612 C155 612 177 598 177 564 C177 555 175 542 173 531 L89 136 C78 78 49 55 -16 55 L-30 55 L-42 0 L335 0 L347 55 L334 55 C285 55 260 71 260 101 C260 115 261 124 263 136 L297 294 L307 294 C377 298 403 275 437 177 C466 98 500 21 516 0 L735 0 Z M310 354 L363 606 L390 606 C463 606 495 598 519 571 C532 556 538 541 538 519 C538 469 516 415 484 388 C456 363 418 354 344 354 L310 354 Z " />
<glyph glyph-name="S" unicode="S" horiz-adv-x="595" d="M-10 11 L52 11 C61 34 69 49 81 65 C114 16 179 -14 254 -14 C402 -14 534 102 534 231 C534 316 479 372 341 429 C265 460 234 489 234 528 C234 579 282 620 343 620 C417 620 468 561 472 470 L530 470 L572 667 L512 667 L510 663 L507 656 C501 642 495 632 486 622 C455 657 403 679 347 679 C209 679 85 566 85 441 C85 370 133 314 231 269 C302 236 356 199 366 176 C371 165 373 156 373 147 C373 95 316 49 251 49 C193 49 147 79 121 134 C110 160 104 188 101 239 L38 239 L-10 11 Z " />
<glyph glyph-name="T" unicode="T" horiz-adv-x="731" d="M103 477 C144 585 173 607 272 608 L334 608 L234 136 C223 81 188 54 129 55 L111 55 L99 0 L486 0 L498 55 L479 55 C432 55 404 73 404 105 C404 113 406 125 408 136 L508 608 L571 608 C661 608 682 584 687 477 L746 477 L786 667 L85 667 L45 477 L103 477 Z " />
<glyph glyph-name="U" unicode="U" horiz-adv-x="814" d="M618 667 L607 612 L612 612 C660 612 689 587 689 546 C689 536 687 521 685 510 L637 286 C622 213 612 183 596 158 C554 94 481 55 404 55 C325 55 268 102 268 169 C268 193 273 228 281 268 L337 531 C350 592 376 613 439 612 L451 612 L462 667 L90 667 L78 612 L86 612 C136 612 157 598 157 566 C157 555 156 543 153 531 L97 268 C86 214 85 208 85 182 C85 61 181 -14 337 -14 C425 -14 515 12 574 56 C634 99 677 176 698 274 L747 507 C760 574 785 600 850 612 L856 612 L867 667 L618 667 Z " />
<glyph glyph-name="V" unicode="V" horiz-adv-x="750" d="M346 -14 L659 460 C749 596 762 610 808 613 L823 612 L835 667 L598 667 L586 612 L591 612 C630 612 653 599 653 575 C653 565 637 528 625 510 L426 207 L342 510 C337 529 333 552 333 567 C333 598 359 612 413 612 L420 612 L432 667 L57 667 L45 612 L50 612 C116 611 124 601 148 498 L280 -14 L346 -14 Z " />
<glyph glyph-name="W" unicode="W" horiz-adv-x="990" d="M680 -14 L922 465 C980 580 1006 609 1052 613 L1062 612 L1074 667 L850 667 L839 612 L844 612 C877 612 896 596 897 570 L897 569 C898 559 888 532 876 507 L740 236 L655 667 L574 667 L335 236 L301 534 C300 542 299 551 299 557 C299 597 316 612 360 612 L366 612 L377 667 L59 667 L47 612 L56 613 L61 613 L62 613 C101 610 108 596 119 515 L177 -14 L260 -14 L512 434 L599 -14 L680 -14 Z " />
<glyph glyph-name="X" unicode="X" horiz-adv-x="843" d="M879 667 L599 667 L587 612 L595 612 C632 612 649 605 649 589 C649 577 635 556 618 541 L488 429 L417 547 C411 557 407 570 407 580 C407 603 424 612 466 612 L473 612 L484 667 L89 667 L78 612 L83 612 C155 608 161 604 222 500 L338 307 L149 147 C72 81 18 54 -35 55 L-39 55 L-51 0 L257 0 L268 55 L250 54 C215 54 194 66 194 87 C194 103 205 120 232 142 L368 258 L443 135 C451 122 456 107 456 96 C456 67 431 55 370 55 L364 55 L352 0 L780 0 L792 55 L790 55 L786 54 L785 54 C715 63 701 74 639 178 L519 382 L664 506 C761 588 793 605 867 612 L866 613 L870 623 L879 667 Z " />
<glyph glyph-name="Y" unicode="Y" horiz-adv-x="699" d="M59 667 L47 612 L53 612 C98 609 112 595 138 532 L249 273 L220 136 C209 78 180 55 115 55 L103 55 L91 0 L467 0 L478 55 L468 55 C418 55 393 70 393 101 C393 114 394 124 397 136 L428 284 L609 489 L628 512 C695 589 725 610 767 612 L772 612 L783 667 L543 667 L531 612 L537 612 C574 612 591 601 591 578 C591 562 579 539 561 517 L419 353 L347 534 C341 549 336 567 336 575 C336 599 356 612 393 612 L398 612 L410 667 L59 667 Z " />
<glyph glyph-name="Z" unicode="Z" horiz-adv-x="715" d="M-35 0 L594 0 L649 198 L591 198 C525 85 480 57 362 59 L201 59 L717 622 L726 667 L137 667 L89 489 L144 489 C198 590 233 608 374 608 L487 608 L-26 44 L-35 0 Z " />
<glyph glyph-name="bracketleft" unicode="&#x5b;" horiz-adv-x="452" d="M308 -235 L320 -182 L229 -182 C192 -182 175 -170 175 -145 C175 -141 177 -130 178 -121 L321 553 C331 597 353 615 398 614 L489 614 L500 667 L203 667 L11 -235 L308 -235 Z " />
<glyph glyph-name="backslash" unicode="&#x5c;" horiz-adv-x="525" d="M350 -126 L228 669 L149 669 L272 -126 L350 -126 Z " />
<glyph glyph-name="bracketright" unicode="&#x5d;" horiz-adv-x="452" d="M-98 -235 L199 -235 L391 667 L94 667 L82 614 L173 614 C210 614 227 603 227 577 C227 573 225 562 223 553 L80 -121 C71 -165 49 -183 4 -182 L-87 -182 L-98 -235 Z " />
<glyph glyph-name="asciicircum" unicode="&#x5e;" horiz-adv-x="525" d="M547 275 L362 700 L352 700 L-47 275 L163 275 L371 497 L468 275 L547 275 Z " />
<glyph glyph-name="underscore" unicode="&#x5f;" horiz-adv-x="500" d="M-88 -93 L-107 -182 L389 -182 L408 -93 L-88 -93 Z " />
<glyph glyph-name="grave" unicode="&#x60;" horiz-adv-x="513" d="M346 486 L314 643 L135 643 L133 632 L303 486 L346 486 Z " />
<glyph glyph-name="a" unicode="a" horiz-adv-x="593" d="M495 90 C487 72 474 62 460 62 C446 62 438 70 438 83 C438 87 439 97 441 105 L481 291 C486 319 487 322 487 331 C487 391 433 419 315 419 C229 419 169 407 116 381 C73 358 48 330 48 301 C48 276 70 259 102 259 C144 259 169 276 184 313 C191 331 199 344 206 349 C219 358 244 364 267 364 C306 364 326 352 326 328 C326 319 325 311 323 303 L316 266 L292 259 L207 233 C119 204 44 166 18 138 C-5 114 -16 89 -16 64 C-16 18 25 -10 92 -10 C156 -10 219 8 277 43 C291 8 329 -10 387 -10 C467 -10 522 26 539 90 L495 90 Z M304 211 L280 96 C252 74 221 62 194 62 C165 62 143 80 143 104 C143 138 188 174 259 196 C279 202 293 207 298 209 L304 211 Z " />
<glyph glyph-name="b" unicode="b" horiz-adv-x="650" d="M80 645 L69 593 L72 593 C96 593 119 586 127 576 C131 571 133 563 133 553 C133 544 132 536 130 527 L16 -11 L57 -11 C71 0 82 8 110 26 L140 47 L144 50 C147 52 150 54 153 57 C155 58 157 59 159 61 C198 14 255 -12 320 -12 C466 -12 590 111 590 256 C590 355 520 419 413 419 C360 419 313 404 256 369 L321 679 L316 679 C289 673 261 669 224 665 C206 664 178 660 88 646 L80 645 Z M241 301 C282 335 317 350 353 350 C400 350 422 324 422 268 C422 201 402 133 371 93 C352 69 314 52 278 52 C238 52 209 72 203 102 C202 106 201 109 201 110 L201 111 L241 301 Z " />
<glyph glyph-name="c" unicode="c" horiz-adv-x="520" d="M399 124 C364 74 318 49 260 49 C227 49 199 60 185 78 C176 91 171 111 171 138 C171 193 184 258 203 296 C226 341 262 366 306 366 C332 366 344 356 344 334 C345 302 347 297 355 282 C364 267 382 258 403 258 C447 258 485 294 485 336 C485 388 429 419 334 419 C150 419 2 299 2 150 C2 49 83 -16 209 -16 C315 -16 400 26 447 102 L399 124 Z " />
<glyph glyph-name="d" unicode="d" horiz-adv-x="646" d="M575 66 L567 66 C527 66 510 78 510 108 C510 118 511 124 512 132 L628 679 L623 679 C598 674 587 673 546 666 L476 655 C424 647 411 645 395 642 L384 590 L387 590 C425 590 439 579 439 551 C439 539 438 533 437 525 L403 366 C377 400 327 419 267 419 C180 419 103 378 53 305 C23 262 2 190 2 130 C2 47 66 -10 161 -10 C222 -10 275 10 337 56 C334 42 332 29 332 18 C332 8 333 2 335 -9 C395 1 463 7 564 11 L575 66 Z M352 124 C319 85 278 64 235 64 C195 64 170 90 170 131 C170 180 188 254 207 289 C228 326 265 348 306 348 C338 348 363 336 390 307 L352 124 Z " />
<glyph glyph-name="e" unicode="e" horiz-adv-x="542" d="M395 104 C353 64 311 45 268 45 C212 45 179 79 179 138 C179 163 183 189 189 206 L479 206 C484 231 486 246 486 266 C486 360 414 419 298 419 C138 419 6 301 6 157 C6 53 87 -16 211 -16 C295 -16 385 21 438 77 L395 104 Z M200 255 C213 307 220 323 236 342 C246 355 269 365 288 365 C320 365 337 344 337 305 C337 288 335 277 330 256 L200 255 Z " />
<glyph glyph-name="f" unicode="f" horiz-adv-x="386" d="M379 403 L284 403 L287 415 C299 476 306 507 311 528 C328 594 348 623 375 623 C391 623 403 612 404 595 C407 559 409 552 418 538 C428 523 448 513 469 513 C518 513 563 555 563 600 C563 650 509 679 416 679 C343 679 277 660 228 623 C170 580 146 534 121 417 L118 403 L33 403 L21 350 L107 350 L57 118 C46 68 30 55 -24 52 L-42 52 L-53 0 L293 0 L304 52 L277 52 C237 52 221 64 221 93 C221 102 222 110 223 118 L273 350 L367 350 L379 403 Z " />
<glyph glyph-name="g" unicode="g" horiz-adv-x="564" d="M190 -64 L200 -64 L236 -64 L260 -63 C304 -61 345 -70 355 -82 C360 -87 362 -95 362 -103 C362 -161 280 -197 149 -197 C71 -197 24 -175 24 -139 C24 -127 30 -113 40 -101 L43 -97 L44 -96 C26 -88 15 -85 1 -85 C-36 -85 -70 -120 -70 -158 C-70 -218 -1 -249 136 -249 C248 -249 324 -230 382 -188 C434 -149 463 -98 463 -42 C463 35 408 66 271 66 L232 66 L202 65 L161 65 L153 65 C123 65 106 72 106 85 C106 112 143 128 211 128 C297 129 362 147 409 181 C452 213 477 258 477 304 C477 318 475 329 469 345 C480 354 485 356 494 356 C502 356 506 354 515 345 C526 334 532 331 542 331 C568 331 587 354 587 383 C587 406 572 419 544 419 C518 419 496 409 444 376 C410 405 365 418 295 418 C137 418 32 352 32 252 C32 198 63 161 125 144 C37 123 -6 82 -6 20 C-6 -38 53 -64 184 -64 L190 -64 Z M274 365 C308 365 328 346 328 312 C328 277 314 234 295 209 C283 194 262 185 240 185 C203 185 184 205 184 242 C184 315 221 365 273 365 L274 365 Z " />
<glyph glyph-name="h" unicode="h" horiz-adv-x="638" d="M318 679 C289 672 263 668 224 663 C197 660 158 654 84 640 L73 588 L76 588 C99 588 123 581 130 572 C133 569 135 562 135 553 C135 546 133 533 131 522 L45 118 C33 68 17 54 -38 52 L-41 52 L-52 0 L235 0 L247 52 L243 52 C214 53 201 66 201 91 C201 98 202 109 204 118 L237 272 C282 316 314 335 345 335 C372 335 387 322 387 296 C387 284 387 280 385 272 L352 118 C341 72 326 57 288 53 L282 52 L271 0 L558 0 L570 52 L565 52 C526 52 511 64 511 94 C511 102 512 110 513 118 L543 255 C548 280 551 303 551 319 C551 379 501 419 427 419 C364 419 307 395 253 348 L323 679 L318 679 Z " />
<glyph glyph-name="i" unicode="i" horiz-adv-x="343" d="M256 679 C198 679 146 627 146 571 C146 531 176 501 216 501 C273 501 326 553 326 609 C326 649 296 679 256 679 L256 679 Z M277 419 L271 419 C241 413 240 413 143 398 C57 385 52 384 27 382 L16 330 L28 330 C51 330 73 323 80 314 C83 310 85 303 85 293 C85 286 84 274 81 264 L50 118 C38 67 23 54 -31 52 L-43 52 L-54 0 L262 0 L273 52 L268 52 C226 52 210 64 210 94 C210 100 211 110 213 118 L277 419 Z " />
<glyph glyph-name="j" unicode="j" horiz-adv-x="331" d="M293 419 L287 419 C251 413 250 413 129 394 L60 383 L46 381 L35 329 L50 329 C89 329 104 319 104 293 C104 282 103 273 101 264 L32 -61 C17 -134 11 -150 -7 -172 C-16 -184 -28 -191 -40 -191 C-54 -191 -65 -183 -67 -171 C-74 -130 -88 -116 -121 -116 C-163 -116 -200 -149 -200 -187 C-200 -224 -156 -247 -87 -247 C19 -247 116 -202 161 -132 C179 -103 189 -71 208 18 L293 419 Z M264 679 C207 679 154 627 154 571 C154 531 184 501 224 501 C282 501 335 553 335 609 C335 650 305 679 264 679 L264 679 Z " />
<glyph glyph-name="k" unicode="k" horiz-adv-x="629" d="M371 403 L360 351 L364 351 C387 351 398 347 398 338 C398 334 394 326 392 325 C390 323 389 323 389 322 L391 323 L390 322 C388 321 387 320 387 320 L386 319 C353 299 316 277 275 253 L226 225 L322 679 L317 679 C288 672 262 668 224 663 C194 660 154 653 84 640 L73 588 L78 588 C100 588 122 582 129 573 C133 569 134 563 134 554 C134 546 133 533 130 523 L44 118 C32 68 15 54 -39 52 L-43 52 L-54 0 L238 0 L249 52 L245 52 C214 54 200 66 200 91 C200 98 201 109 203 118 L212 160 L266 190 L322 100 C329 90 333 79 333 74 C333 61 320 52 300 52 L297 52 L286 0 L553 0 L564 52 L559 53 C537 53 526 65 481 137 L400 270 C407 274 414 278 415 279 C418 281 422 284 426 286 L428 288 L431 290 C532 347 539 350 583 351 L586 351 L597 403 L371 403 Z " />
<glyph glyph-name="l" unicode="l" horiz-adv-x="342" d="M323 679 L317 679 C287 673 266 669 207 660 C186 656 182 656 142 649 L132 648 C116 645 108 644 84 640 L73 588 L78 588 C101 588 122 582 129 573 C132 569 134 563 134 554 C134 542 133 533 131 522 L45 118 C33 67 16 54 -38 52 L-42 52 L-53 0 L255 0 L266 52 L261 52 C219 52 201 64 201 93 C201 99 202 109 204 118 L323 679 Z " />
<glyph glyph-name="m" unicode="m" horiz-adv-x="928" d="M17 320 L20 320 C61 320 79 306 79 276 C79 272 78 265 77 260 L47 118 C35 67 18 54 -36 52 L-38 52 L-49 0 L232 0 L243 52 L240 52 C215 53 203 65 203 89 C203 101 204 108 206 118 L239 274 L244 278 L251 285 C288 320 315 335 340 335 C362 335 375 322 375 300 C375 288 374 280 372 270 L340 118 C329 71 319 58 288 53 L284 52 L272 0 L525 0 L536 52 L533 52 C511 53 500 65 500 86 C500 96 501 107 504 118 L537 272 C585 317 614 334 643 334 C666 334 679 322 679 299 C679 293 678 283 676 275 L643 118 C632 71 619 58 583 53 L578 52 L567 0 L849 0 L860 52 L855 52 C816 52 801 64 801 94 C801 99 802 109 804 118 L834 257 C841 292 843 305 843 319 C843 379 794 419 721 419 C662 419 598 390 541 338 C531 387 487 419 429 419 C368 419 308 395 258 350 L259 353 C262 365 263 374 263 386 C263 394 262 399 260 408 L257 408 C229 402 207 399 178 395 C167 394 155 392 28 372 L17 320 Z " />
<glyph glyph-name="n" unicode="n" horiz-adv-x="639" d="M256 408 C228 402 208 399 179 395 C147 391 105 384 28 372 L17 320 L21 320 C61 320 79 306 79 276 C79 269 79 265 78 260 L47 118 C36 68 19 54 -36 52 L-38 52 L-49 0 L238 0 L249 52 L245 52 C216 53 203 66 203 91 C203 98 204 109 206 118 L239 273 C289 318 319 335 347 335 C376 335 391 321 391 296 C391 292 390 286 389 281 L355 118 C344 72 329 57 290 53 L284 52 L273 0 L560 0 L571 52 L567 52 C528 52 513 64 513 94 C513 100 514 110 516 118 L546 258 C551 285 554 304 554 319 C554 379 505 419 431 419 C370 419 311 395 259 350 C262 368 263 381 263 392 C263 399 263 401 261 408 L256 408 Z " />
<glyph glyph-name="o" unicode="o" horiz-adv-x="594" d="M316 419 C141 419 5 302 5 152 C5 117 14 87 32 62 C66 15 140 -16 220 -16 C394 -16 532 102 532 251 C532 285 524 313 506 338 C471 387 396 419 316 419 L316 419 Z M304 364 C348 364 372 340 372 298 C372 261 356 182 337 125 C318 67 284 38 236 38 C193 38 166 66 166 108 C166 141 180 224 193 264 C216 336 247 364 304 364 L304 364 Z " />
<glyph glyph-name="p" unicode="p" horiz-adv-x="648" d="M245 419 C214 413 190 409 160 405 C142 402 133 401 35 386 L22 383 L11 331 L15 331 C57 331 74 319 74 289 C74 281 73 273 72 266 L-10 -120 C-22 -169 -39 -183 -95 -185 L-99 -185 L-110 -237 L211 -237 L222 -185 L205 -185 C162 -185 146 -173 146 -143 C146 -137 147 -127 149 -120 L183 40 C225 1 267 -16 318 -16 C463 -16 588 111 588 259 C588 351 521 419 431 419 C367 419 303 395 245 349 C249 375 251 392 251 402 C251 407 251 411 250 419 L245 419 Z M234 282 C270 324 311 346 353 346 C397 346 422 318 422 271 C422 236 411 180 397 142 C378 91 334 58 284 58 C251 58 217 74 195 100 L234 282 Z " />
<glyph glyph-name="q" unicode="q" horiz-adv-x="619" d="M537 419 C524 411 518 407 506 398 L473 377 L438 353 L432 349 C389 396 340 418 276 418 C125 418 4 295 4 142 C4 43 69 -16 178 -16 C234 -16 279 -1 338 37 L305 -120 C293 -168 274 -183 221 -185 L206 -185 L195 -237 L515 -237 L526 -185 L521 -185 C479 -185 462 -173 462 -143 C462 -133 463 -127 464 -120 L579 419 L537 419 Z M352 102 C312 71 274 55 237 55 C195 55 171 81 171 125 C171 175 187 250 205 286 C227 329 260 351 303 351 C342 351 365 337 393 295 L352 102 Z " />
<glyph glyph-name="r" unicode="r" horiz-adv-x="498" d="M236 416 L173 404 L97 389 L38 378 L29 376 L17 324 L22 324 C64 324 80 312 80 282 C80 274 79 266 77 258 L48 118 C36 68 19 54 -34 52 L-39 52 L-50 0 L263 0 L274 52 L264 52 C222 52 205 64 205 94 C205 105 205 110 207 118 L216 162 C239 269 271 318 319 318 C333 318 345 311 355 298 C376 270 383 265 408 265 C455 265 494 305 494 353 C494 393 465 419 421 419 C358 419 296 384 243 318 C249 348 251 370 251 391 C251 402 251 407 249 419 L236 416 Z " />
<glyph glyph-name="s" unicode="s" horiz-adv-x="481" d="M-29 -12 L17 -12 C25 0 33 8 44 15 C50 13 51 13 58 10 C103 -9 137 -16 179 -16 C262 -16 326 10 366 61 C390 90 403 126 403 158 C403 184 395 206 378 225 C354 253 304 272 223 284 C177 291 149 308 149 328 C149 355 185 374 234 374 C304 374 349 344 358 292 L404 292 L430 415 L388 415 C378 403 371 397 362 391 C312 411 273 420 228 420 C122 420 29 345 29 261 C29 237 38 213 52 200 C86 169 110 159 220 133 C258 123 276 109 276 90 C276 59 231 35 174 35 C105 35 60 67 51 123 L0 123 L-29 -12 Z " />
<glyph glyph-name="t" unicode="t" horiz-adv-x="377" d="M371 349 L382 403 L255 403 L283 536 L228 536 C199 458 121 402 41 402 C39 402 33 402 26 403 L15 349 L77 349 L27 115 C24 100 22 85 22 77 C22 20 68 -16 142 -16 C223 -16 291 18 328 78 L281 94 C259 64 242 53 218 53 C200 53 189 64 189 82 C189 92 191 107 199 140 L243 349 L371 349 Z " />
<glyph glyph-name="u" unicode="u" horiz-adv-x="625" d="M555 403 L331 403 L320 351 L323 351 C360 351 374 340 374 313 C374 305 373 295 371 285 L338 131 C333 125 331 124 327 119 C294 85 261 68 230 68 C207 68 190 84 191 103 C191 113 193 126 196 140 L252 403 L25 403 L14 351 L17 351 C55 351 71 339 71 309 C71 303 70 293 68 285 L35 131 C29 103 28 93 28 81 C28 23 77 -16 149 -16 C210 -16 268 8 322 55 C321 51 321 50 320 48 C319 42 318 37 317 34 C315 21 312 7 310 0 C308 -8 308 -9 307 -16 L312 -16 C345 -8 472 1 544 0 L555 52 L551 52 C509 52 492 64 492 95 C492 103 493 110 494 118 L555 403 Z " />
<glyph glyph-name="v" unicode="v" horiz-adv-x="540" d="M249 -7 L445 258 C504 340 508 344 545 351 L549 351 L560 403 L404 403 L393 351 L397 351 C417 351 430 344 430 334 C430 328 424 317 415 305 L286 130 L231 302 C228 311 226 320 226 326 C226 342 242 351 271 351 L276 351 L287 403 L9 403 L-2 351 L2 351 C32 350 39 342 63 272 L152 -7 L249 -7 Z " />
<glyph glyph-name="w" unicode="w" horiz-adv-x="826" d="M565 -9 L733 254 C783 336 796 348 834 351 L836 351 L847 403 L671 403 L659 351 L663 351 C695 351 712 343 712 328 C712 322 712 322 700 300 L604 145 L531 403 L441 403 L261 145 L227 296 C224 308 222 321 222 328 C222 344 238 351 276 351 L280 351 L291 403 L6 403 L-5 351 L0 351 C33 350 40 342 55 287 L127 -9 L219 -9 L397 249 L472 -9 L565 -9 Z " />
<glyph glyph-name="x" unicode="x" horiz-adv-x="565" d="M536 351 L547 403 L369 403 L358 351 L361 351 C383 351 391 348 391 340 C391 333 380 321 357 305 L310 272 L278 314 C271 324 267 331 267 334 C267 346 277 351 299 351 L305 351 L316 403 L23 403 L12 351 L17 351 C38 348 60 328 97 277 L171 175 L82 111 C36 78 0 61 -39 54 L-46 52 L-57 0 L131 0 L142 52 L138 52 L129 52 L124 52 L123 52 C111 52 104 56 104 63 C104 71 113 80 133 93 L203 140 L240 88 C247 80 250 73 250 70 C250 59 235 52 210 52 L203 52 L196 52 L185 0 L486 0 L497 52 L492 53 C478 56 462 71 434 106 L334 236 L408 286 L436 305 C485 338 507 349 533 351 L536 351 Z " />
<glyph glyph-name="y" unicode="y" horiz-adv-x="550" d="M9 403 L-3 351 L5 350 C31 348 38 338 58 282 L179 -18 L162 -44 C128 -90 104 -104 25 -121 C-32 -133 -60 -158 -60 -197 C-60 -229 -34 -251 4 -251 C32 -251 61 -241 87 -221 C109 -205 127 -184 173 -121 L192 -96 L427 230 C497 333 509 346 540 350 L549 351 L560 403 L398 403 L387 351 L396 351 C411 352 425 341 425 330 C425 323 414 303 396 278 L297 139 L238 295 C237 297 237 299 236 302 L236 305 C232 324 232 324 232 327 C232 342 243 350 266 351 L274 351 L285 403 L9 403 Z " />
<glyph glyph-name="z" unicode="z" horiz-adv-x="516" d="M-40 0 L403 0 L445 138 L390 138 C345 71 322 53 279 53 L185 53 L484 357 L494 403 L71 403 L35 279 L91 279 C136 345 142 350 174 350 L272 350 L-31 41 L-40 0 Z " />
<glyph glyph-name="braceleft" unicode="&#x7b;" horiz-adv-x="435" d="M41 199 C87 196 107 181 107 150 C107 143 103 104 102 98 L64 -80 C61 -96 59 -113 59 -128 C59 -168 71 -195 97 -212 C119 -226 163 -232 250 -232 L287 -232 L293 -201 C260 -200 242 -196 227 -185 C213 -175 202 -151 202 -131 C202 -118 206 -88 212 -63 L244 89 C247 103 248 115 248 131 C248 174 212 203 145 214 L146 221 C243 238 284 272 298 346 L331 497 C349 597 387 634 471 636 L478 667 L441 667 C350 666 301 660 280 646 C236 625 205 579 191 515 L153 336 C135 261 114 240 49 235 L41 199 Z " />
<glyph glyph-name="bar" unicode="&#x7c;" horiz-adv-x="520" d="M270 667 L93 -167 L214 -167 L391 667 L270 667 Z " />
<glyph glyph-name="braceright" unicode="&#x7d;" horiz-adv-x="437" d="M347 235 C298 239 280 253 280 289 C280 302 282 320 286 336 L324 515 C327 530 328 543 328 562 C328 602 316 629 290 646 C268 661 224 667 138 667 L101 667 L95 636 C127 635 145 630 160 619 C174 609 185 586 185 566 C185 550 181 521 176 497 L144 346 C141 331 139 315 139 304 C139 260 174 233 243 221 L242 214 C146 197 103 162 89 89 L57 -63 C39 -162 1 -199 -83 -201 L-90 -232 L-53 -232 C38 -231 86 -225 108 -212 C152 -190 183 -145 197 -80 L235 98 C252 174 274 194 339 199 L347 235 Z " />
<glyph glyph-name="asciitilde" unicode="&#x7e;" horiz-adv-x="681" d="M590 733 C562 708 536 694 516 694 C495 694 468 701 437 713 C407 725 380 732 360 732 C320 732 271 694 210 614 L232 598 C270 631 284 638 313 638 C334 638 350 633 388 617 C417 605 435 600 456 600 C486 600 510 610 535 631 C567 660 592 687 613 717 L590 733 Z " />
<glyph glyph-name="uni00A0" unicode="&#xa0;" horiz-adv-x="250" d="" />
<glyph glyph-name="exclamdown" unicode="&#xa1;" horiz-adv-x="352" d="M124 210 L5 -124 C-9 -162 -14 -182 -14 -198 C-14 -232 8 -248 58 -248 C93 -248 117 -239 133 -218 C150 -197 155 -179 158 -127 L181 210 L124 210 Z M204 448 C143 448 88 397 88 341 C88 301 120 270 164 270 C223 270 279 321 279 377 C279 418 247 448 204 448 L204 448 Z " />
<glyph glyph-name="cent" unicode="&#xa2;" horiz-adv-x="573" d="M440 124 C407 77 350 46 295 46 C284 46 274 49 265 56 L387 345 C390 344 392 342 392 338 C392 336 391 331 390 322 C389 318 389 314 389 312 C389 281 413 258 444 258 C488 258 528 294 528 334 C528 377 488 406 417 416 L500 613 L445 613 L362 419 L357 419 C350 419 327 416 303 413 C256 405 237 400 203 383 C102 332 41 244 41 149 C41 65 87 14 182 -9 L106 -190 L161 -190 L235 -16 C245 -17 251 -18 257 -18 C294 -18 360 -1 394 17 C436 39 465 65 488 102 L440 124 Z M226 95 C217 111 213 129 213 157 C213 275 262 356 340 365 L226 95 Z " />
<glyph glyph-name="sterling" unicode="&#xa3;" horiz-adv-x="764" d="M2 198 L157 198 C134 143 111 99 81 51 C-11 6 -58 -38 -58 -76 C-58 -99 -31 -120 -1 -120 C29 -120 62 -97 90 -58 L117 -19 L121 -14 L125 -8 C128 -3 129 -2 131 1 C144 6 153 8 162 8 C181 8 206 -8 238 -44 C288 -98 330 -120 383 -120 C443 -120 507 -99 558 -63 C619 -20 662 45 662 93 C662 127 640 148 605 148 C566 148 535 117 535 78 C535 68 536 59 539 51 C547 19 547 19 547 9 C547 -15 518 -39 487 -39 C456 -39 427 -20 376 34 C336 77 297 97 253 97 C237 97 222 94 192 86 C238 134 270 173 285 198 L467 198 L503 275 L336 275 C358 302 411 415 478 578 C518 678 557 721 607 721 C637 721 652 710 667 679 C686 638 697 628 726 628 C767 628 805 662 805 700 C805 746 743 781 659 781 C536 781 440 726 352 606 C300 535 270 474 201 296 L199 291 L196 285 L194 280 L192 275 L39 275 L2 198 Z " />
<glyph glyph-name="currency" unicode="&#xa4;" horiz-adv-x="700" d="M-33 88 L17 28 L145 130 C195 98 235 86 296 86 C353 86 402 99 466 130 L551 29 L627 88 L539 193 C594 258 622 328 622 401 C622 433 618 453 603 492 L738 599 L688 659 L555 553 C506 584 457 598 402 598 C345 598 283 582 235 555 L150 657 L75 597 L159 497 C97 418 74 363 74 289 C74 254 79 225 94 188 L-33 88 Z M378 466 C443 466 490 423 490 365 C490 288 411 218 322 218 C258 218 209 261 209 318 C209 396 289 466 378 466 L378 466 Z " />
<glyph glyph-name="yen" unicode="&#xa5;" horiz-adv-x="551" d="M422 479 L278 479 L259 533 C254 547 251 565 251 577 C251 599 270 612 302 612 L307 612 L318 667 L2 667 L-9 612 L-4 612 C37 608 47 597 73 524 L89 479 L-2 479 L-14 424 L108 424 L165 274 L-37 274 L-49 219 L154 219 L137 136 C122 72 104 57 40 55 L29 55 L18 0 L355 0 L367 55 L358 55 C330 55 307 62 298 72 C293 78 291 86 291 98 C291 109 293 123 295 136 L313 219 L516 219 L528 274 L328 274 L330 285 L443 424 L568 424 L580 479 L486 479 C569 584 602 613 639 612 L643 612 L654 667 L438 667 L426 612 L432 612 C466 612 488 601 488 582 C488 571 480 554 467 537 L422 479 Z M378 424 L322 353 L297 424 L378 424 Z " />
<glyph glyph-name="brokenbar" unicode="&#xa6;" horiz-adv-x="520" d="M270 667 L193 304 L314 304 L391 667 L270 667 Z M161 153 L93 -167 L214 -167 L282 153 L161 153 Z " />
<glyph glyph-name="section" unicode="&#xa7;" horiz-adv-x="540" d="M160 372 C62 352 0 283 0 194 C0 132 37 80 126 15 C207 -43 214 -49 228 -62 C251 -83 260 -100 260 -121 C260 -159 219 -191 168 -191 C131 -191 108 -172 105 -138 C101 -94 100 -92 92 -82 C82 -69 66 -62 49 -62 C4 -62 -35 -99 -35 -144 C-35 -203 34 -246 129 -246 C269 -246 381 -163 381 -58 C381 -14 362 26 326 56 C376 71 398 82 422 106 C458 139 480 193 480 245 C480 277 470 307 451 335 C430 365 407 385 324 441 C233 503 218 519 218 552 C218 591 261 623 312 623 C337 623 358 613 368 598 C373 590 375 580 379 560 C383 530 385 525 390 516 C399 503 412 496 431 496 C479 496 519 532 519 576 C519 633 448 677 355 677 C213 677 99 592 99 486 C99 439 117 406 160 372 L160 372 Z M180 331 C205 331 251 307 293 272 C344 229 368 194 368 162 C368 129 337 102 300 102 C269 102 237 120 180 170 C132 211 111 242 111 272 C111 302 146 331 180 331 L180 331 Z " />
<glyph glyph-name="dieresis" unicode="&#xa8;" horiz-adv-x="442" d="M169 638 C124 638 82 597 82 554 C82 522 106 498 138 498 C182 498 224 539 224 583 C224 614 200 638 169 638 L169 638 Z M405 638 C360 638 318 597 318 553 C318 522 342 498 374 498 C419 498 461 539 461 583 C461 614 437 638 405 638 L405 638 Z " />
<glyph glyph-name="copyright" unicode="&#xa9;" horiz-adv-x="844" d="M500 680 C265 680 50 481 50 264 C50 106 176 -13 344 -13 C579 -13 793 185 793 402 C793 563 669 680 500 680 L500 680 Z M490 633 C563 633 643 600 686 552 C725 509 745 454 745 392 C745 205 559 34 354 34 C208 34 98 137 98 274 C98 343 126 417 174 477 C254 577 368 633 490 633 L490 633 Z M545 292 C513 219 463 179 404 179 C360 179 330 209 330 254 C330 295 345 366 363 409 C384 458 423 487 469 487 C525 487 555 450 559 376 L589 376 L614 513 L584 513 L582 509 C578 501 574 492 566 481 C539 511 510 524 465 524 C342 524 234 413 234 287 C234 200 292 142 380 142 C428 142 473 158 509 188 C514 176 515 168 516 153 L546 153 L575 292 L545 292 Z " />
<glyph glyph-name="ordfeminine" unicode="&#xaa;" horiz-adv-x="368" d="M335 329 C328 317 322 312 313 312 C306 312 301 317 301 324 C301 328 301 332 302 336 L327 453 C329 463 330 470 330 482 C330 519 298 537 230 537 C137 537 66 503 66 459 C66 441 79 430 100 430 C126 430 143 443 153 468 C161 492 172 499 199 499 C219 499 230 492 230 479 C230 470 230 467 228 460 L224 440 L212 435 C209 434 206 433 199 431 C179 425 167 421 162 419 C110 401 65 378 49 360 C33 343 26 327 26 309 C26 279 51 261 92 261 C129 261 163 271 200 292 C209 272 232 261 267 261 C320 261 356 286 366 329 L335 329 Z M216 400 L200 329 L199 328 C182 316 167 310 153 310 C136 310 123 321 123 335 C123 357 153 381 197 394 L209 398 L216 400 Z " />
<glyph glyph-name="guillemotleft" unicode="&#xab;" horiz-adv-x="595" d="M-16 217 L143 0 L202 0 L166 217 L293 433 L234 433 L-16 217 Z M263 217 L422 0 L481 0 L445 217 L572 433 L513 433 L263 217 Z " />
<glyph glyph-name="logicalnot" unicode="&#xac;" horiz-adv-x="525" d="M426 0 L483 267 L14 267 L-3 185 L273 185 L233 0 L426 0 Z " />
<glyph glyph-name="uni00AD" unicode="&#xad;" horiz-adv-x="363" d="M15 254 L-1 180 L304 180 L320 254 L15 254 Z " />
<glyph glyph-name="registered" unicode="&#xae;" horiz-adv-x="844" d="M500 680 C265 680 50 481 50 264 C50 106 176 -13 344 -13 C579 -13 793 185 793 402 C793 563 669 680 500 680 L500 680 Z M490 633 C563 633 643 600 686 552 C725 509 745 454 745 392 C745 205 559 34 354 34 C208 34 98 137 98 274 C98 343 126 417 174 477 C254 577 368 633 490 633 L490 633 Z M199 150 L392 150 L399 181 L392 181 C366 181 355 189 355 206 C355 213 356 219 357 225 L375 312 L385 312 C417 311 423 304 444 248 C464 192 474 165 484 150 L596 150 L603 181 L599 181 C578 182 563 201 543 253 C527 294 517 312 500 330 C556 346 593 389 593 439 C593 464 582 486 563 499 C539 514 505 519 422 519 L396 519 L376 519 L368 519 L277 518 L271 487 L279 487 C306 487 315 480 315 461 C315 451 315 448 314 443 L267 225 C260 192 249 183 214 181 L206 181 L199 150 Z M383 346 L412 483 L455 482 C487 477 499 465 499 438 C499 413 491 389 477 371 C463 354 441 346 405 346 L396 346 L393 346 L383 346 Z " />
<glyph glyph-name="macron" unicode="&#xaf;" horiz-adv-x="402" d="M88 591 L75 529 L410 529 L423 591 L88 591 Z " />
<glyph glyph-name="degree" unicode="&#xb0;" horiz-adv-x="400" d="M204 686 C118 686 50 619 50 534 C50 449 116 381 200 381 C284 381 350 448 350 534 C350 619 286 686 204 686 L204 686 Z M202 629 C252 629 293 586 293 534 C293 480 252 438 200 438 C148 438 106 481 106 533 C106 587 148 629 202 629 L202 629 Z " />
<glyph glyph-name="plusminus" unicode="&#xb1;" horiz-adv-x="525" d="M19 414 L0 325 L213 325 L170 120 L263 120 L306 325 L521 325 L540 414 L325 414 L368 617 L275 617 L232 414 L19 414 Z M-50 89 L-69 -1 L452 -1 L471 89 L-50 89 Z " />
<glyph glyph-name="twosuperior" unicode="&#xb2;" horiz-adv-x="382" d="M31 267 L251 267 C268 267 269 267 269 261 C269 256 268 251 266 249 C264 246 263 245 263 245 L263 243 L307 243 L344 333 L162 333 C360 490 390 524 390 584 C390 638 341 672 263 672 C167 672 93 621 93 555 C93 535 100 519 107 519 C113 519 121 521 139 528 C152 532 160 535 162 536 C173 539 179 543 179 546 C179 547 178 549 177 551 C172 559 169 570 169 580 C169 608 199 632 232 632 C259 632 277 612 277 583 C277 506 188 400 38 299 L31 267 Z " />
<glyph glyph-name="threesuperior" unicode="&#xb3;" horiz-adv-x="382" d="M280 504 C352 540 383 571 383 609 C383 646 336 673 272 673 C177 673 95 624 95 566 C95 549 102 535 112 535 C123 535 177 553 185 559 C187 560 188 562 188 564 C188 565 187 568 184 570 C176 579 173 585 173 592 C173 612 202 631 233 631 C258 631 274 617 274 595 C274 556 245 525 179 492 C151 478 143 471 143 460 C143 449 151 441 164 441 C173 441 181 444 194 454 C206 462 212 465 221 465 C238 465 244 458 244 440 C244 414 233 367 222 345 C209 317 181 299 151 299 C133 299 126 305 122 325 C115 352 104 363 81 363 C49 363 22 340 22 314 C22 281 64 259 126 259 C251 259 355 336 355 429 C355 472 334 493 280 504 L280 504 Z " />
<glyph glyph-name="acute" unicode="&#xb4;" horiz-adv-x="513" d="M229 486 L272 486 L504 632 L506 643 L328 643 L229 486 Z " />
<glyph glyph-name="mu" unicode="&#xb5;" horiz-adv-x="576" d="M442 500 L353 500 L354 131 C318 80 284 58 242 58 C184 58 150 99 150 169 L150 500 L62 500 L62 20 C62 -1 58 -26 51 -56 C34 -118 33 -123 33 -147 C33 -190 54 -219 83 -219 C112 -219 132 -189 132 -146 C132 -124 129 -111 113 -53 C103 -17 101 -8 101 21 L101 33 C143 -3 165 -13 200 -13 C250 -13 301 18 354 80 C362 48 367 36 377 21 C392 0 419 -13 449 -13 C510 -13 553 31 567 108 L540 109 C536 71 515 41 492 41 C462 41 442 77 442 131 L442 500 Z " />
<glyph glyph-name="paragraph" unicode="&#xb6;" horiz-adv-x="695" d="M689 667 L385 667 L310 667 C260 666 231 659 197 642 C130 608 85 538 85 469 C85 426 104 390 138 368 C168 348 206 340 268 340 L302 340 L231 4 C230 1 228 -6 226 -16 L225 -20 C221 -41 216 -43 157 -43 L134 -43 L126 -79 L301 -79 L451 628 L521 628 L371 -79 L516 -79 L524 -43 L499 -43 L496 -43 L495 -43 C480 -43 470 -39 470 -33 C470 -30 471 -21 473 -12 L474 -9 L475 -2 L595 561 C602 596 610 617 616 623 C621 628 640 631 668 631 L681 631 L689 667 Z M364 631 L311 380 L285 380 C247 380 224 409 224 459 C224 485 231 518 242 547 C267 613 290 631 345 631 L364 631 Z " />
<glyph glyph-name="periodcentered" unicode="&#xb7;" horiz-adv-x="308" d="M166 421 C106 421 51 370 51 314 C51 274 83 243 127 243 C187 243 242 294 242 350 C242 391 210 421 166 421 L166 421 Z " />
<glyph glyph-name="cedilla" unicode="&#xb8;" horiz-adv-x="525" d="M162 0 C147 -48 135 -80 123 -103 C149 -104 163 -115 163 -133 C163 -155 145 -169 117 -169 C96 -169 80 -167 56 -160 C49 -182 48 -185 40 -205 C58 -213 76 -216 103 -216 C189 -216 250 -170 250 -107 C250 -69 230 -48 190 -44 C198 -23 199 -20 206 0 L162 0 Z " />
<glyph glyph-name="onesuperior" unicode="&#xb9;" horiz-adv-x="382" d="M279 674 C242 652 196 641 140 639 L132 601 L134 601 L146 601 L148 601 L157 601 L166 601 C181 602 188 597 188 588 C188 583 186 570 184 558 L137 338 C131 312 124 307 93 306 L69 306 L61 267 L292 267 L300 306 L277 306 C255 306 244 311 245 323 C245 328 246 333 247 340 L319 674 L279 674 Z " />
<glyph glyph-name="ordmasculine" unicode="&#xba;" horiz-adv-x="368" d="M229 537 C123 537 39 460 39 364 C39 299 90 257 167 257 C273 257 358 334 358 431 C358 494 305 537 229 537 L229 537 Z M219 496 C244 496 257 483 257 459 C257 425 240 350 226 328 C213 306 199 297 177 297 C154 297 140 312 140 338 C140 360 149 407 159 443 C170 478 190 496 219 496 L219 496 Z " />
<glyph glyph-name="guillemotright" unicode="&#xbb;" horiz-adv-x="595" d="M544 217 L386 433 L326 433 L362 217 L234 0 L292 0 L544 217 Z M265 217 L107 433 L48 433 L83 217 L-45 0 L14 0 L265 217 Z " />
<glyph glyph-name="onequarter" unicode="&#xbc;" horiz-adv-x="951" d="M278 674 C241 652 195 641 139 639 L131 601 L133 601 L145 601 L147 601 L156 601 L165 601 C179 602 186 597 186 588 C186 581 184 566 183 558 L136 338 C130 312 123 307 92 306 L69 306 L61 267 L290 267 L298 306 L275 306 C254 306 244 311 244 322 C244 326 245 333 246 340 L317 674 L278 674 Z M292 0 L795 668 L720 668 L217 0 L292 0 Z M704 134 L691 77 C684 46 677 40 643 39 L621 39 L613 0 L846 0 L854 39 L831 39 C809 39 800 45 800 60 C800 66 801 73 802 79 L814 134 L874 134 L897 201 L868 201 L864 195 C857 186 847 181 834 181 L824 181 L871 404 L810 404 L561 182 L551 134 L704 134 Z M714 181 L616 181 L735 283 L714 181 Z " />
<glyph glyph-name="onehalf" unicode="&#xbd;" horiz-adv-x="951" d="M278 674 C241 652 195 641 139 639 L131 601 L133 601 L145 601 L147 601 L156 601 L165 601 C179 602 186 597 186 588 C186 581 184 566 183 558 L136 338 C130 312 123 307 92 306 L69 306 L61 267 L290 267 L298 306 L275 306 C254 306 244 311 244 322 C244 326 245 333 246 340 L317 674 L278 674 Z M271 0 L774 668 L699 668 L196 0 L271 0 Z M539 0 L760 0 C774 0 778 -1 778 -6 C778 -9 778 -10 776 -12 L772 -22 L771 -24 L816 -24 L853 66 L670 66 C868 222 899 257 899 316 C899 371 849 406 772 406 C676 406 601 354 601 288 C601 268 608 252 616 252 C620 252 634 256 648 261 L671 269 C682 272 688 276 688 279 C688 280 687 282 686 284 C680 292 677 302 677 313 C677 340 706 364 739 364 C768 364 786 346 786 316 C786 238 698 135 546 32 L539 0 Z " />
<glyph glyph-name="threequarters" unicode="&#xbe;" horiz-adv-x="951" d="M280 504 C352 540 383 571 383 609 C383 646 336 673 272 673 C177 673 95 624 95 566 C95 549 102 535 112 535 C123 535 177 553 185 559 C187 560 188 562 188 564 C188 565 187 568 184 570 C176 579 173 585 173 592 C173 612 202 631 233 631 C258 631 274 617 274 595 C274 556 245 525 179 492 C151 478 143 471 143 460 C143 449 151 441 164 441 C173 441 181 444 194 454 C206 462 212 465 221 465 C238 465 244 458 244 440 C244 414 233 367 222 345 C209 317 181 299 151 299 C133 299 126 305 122 325 C115 352 104 363 81 363 C49 363 22 340 22 314 C22 281 64 259 126 259 C251 259 355 336 355 429 C355 472 334 493 280 504 L280 504 Z M290 0 L792 668 L717 668 L215 0 L290 0 Z M707 134 L695 77 C688 46 680 40 647 39 L625 39 L617 0 L849 0 L857 39 L834 39 C812 39 803 45 803 60 C803 64 804 72 806 79 L817 134 L877 134 L901 201 L871 201 L867 195 C860 186 851 181 837 181 L827 181 L875 404 L814 404 L565 182 L555 134 L707 134 Z M717 181 L620 181 L739 283 L717 181 Z " />
<glyph glyph-name="questiondown" unicode="&#xbf;" horiz-adv-x="507" d="M329 445 C269 445 213 394 213 339 C213 298 245 267 289 267 C349 267 405 318 405 374 C405 415 373 445 329 445 L329 445 Z M308 205 L247 205 L227 115 C205 122 187 125 163 125 C40 125 -62 25 -62 -94 C-62 -193 11 -252 132 -252 C239 -252 344 -194 344 -134 C344 -113 321 -95 295 -95 C263 -95 240 -111 222 -145 C209 -170 207 -172 200 -179 C189 -189 169 -196 152 -196 C114 -196 93 -167 93 -116 L93 -111 C93 -60 109 -1 132 29 C144 46 170 58 191 58 C207 58 219 53 226 42 L273 42 L308 205 Z " />
<glyph glyph-name="Agrave" unicode="&#xc0;" horiz-adv-x="687" d="M630 0 L642 55 L637 55 C589 60 576 78 555 162 L446 679 L385 679 L77 188 L70 177 C21 98 -22 60 -67 55 L-73 55 L-85 0 L146 0 L158 55 L150 55 C114 55 93 67 93 88 C93 98 105 124 123 153 L139 180 L355 180 L363 143 C367 122 371 97 371 89 C371 66 347 55 301 55 L295 55 L283 0 L630 0 Z M344 236 L174 236 L299 436 L344 236 Z M476 732 L516 732 L451 892 L251 892 L248 880 L476 732 Z " />
<glyph glyph-name="Aacute" unicode="&#xc1;" horiz-adv-x="687" d="M630 0 L642 55 L637 55 C589 60 576 78 555 162 L446 679 L385 679 L77 188 L70 177 C21 98 -22 60 -67 55 L-73 55 L-85 0 L146 0 L158 55 L150 55 C114 55 93 67 93 88 C93 98 105 124 123 153 L139 180 L355 180 L363 143 C367 122 371 97 371 89 C371 66 347 55 301 55 L295 55 L283 0 L630 0 Z M344 236 L174 236 L299 436 L344 236 Z M380 732 L420 732 L710 880 L713 892 L513 892 L380 732 Z " />
<glyph glyph-name="Acircumflex" unicode="&#xc2;" horiz-adv-x="687" d="M630 0 L642 55 L637 55 C589 60 576 78 555 162 L446 679 L385 679 L77 188 L70 177 C21 98 -22 60 -67 55 L-73 55 L-85 0 L146 0 L158 55 L150 55 C114 55 93 67 93 88 C93 98 105 124 123 153 L139 180 L355 180 L363 143 C367 122 371 97 371 89 C371 66 347 55 301 55 L295 55 L283 0 L630 0 Z M344 236 L174 236 L299 436 L344 236 Z M362 887 L228 728 L267 728 L441 821 L586 728 L624 728 L555 887 L362 887 Z " />
<glyph glyph-name="Atilde" unicode="&#xc3;" horiz-adv-x="687" d="M630 0 L642 55 L637 55 C589 60 576 78 555 162 L446 679 L385 679 L77 188 L70 177 C21 98 -22 60 -67 55 L-73 55 L-85 0 L146 0 L158 55 L150 55 C114 55 93 67 93 88 C93 98 105 124 123 153 L139 180 L355 180 L363 143 C367 122 371 97 371 89 C371 66 347 55 301 55 L295 55 L283 0 L630 0 Z M344 236 L174 236 L299 436 L344 236 Z M279 724 C284 753 309 775 337 775 C348 775 360 772 377 763 C447 727 465 721 503 721 C578 721 631 775 646 869 L607 869 C593 833 574 815 552 815 C535 815 520 820 474 843 C431 864 410 870 381 870 C304 870 253 819 239 724 L279 724 Z " />
<glyph glyph-name="Adieresis" unicode="&#xc4;" horiz-adv-x="687" d="M630 0 L642 55 L637 55 C589 60 576 78 555 162 L446 679 L385 679 L77 188 L70 177 C21 98 -22 60 -67 55 L-73 55 L-85 0 L146 0 L158 55 L150 55 C114 55 93 67 93 88 C93 98 105 124 123 153 L139 180 L355 180 L363 143 C367 122 371 97 371 89 C371 66 347 55 301 55 L295 55 L283 0 L630 0 Z M344 236 L174 236 L299 436 L344 236 Z M307 881 C257 881 211 836 211 787 C211 752 237 726 273 726 C323 726 369 771 369 820 C369 855 343 881 307 881 L307 881 Z M602 881 C552 881 506 836 506 788 C506 752 532 726 567 726 C617 726 663 771 663 820 C663 855 637 881 602 881 L602 881 Z " />
<glyph glyph-name="Aring" unicode="&#xc5;" horiz-adv-x="687" d="M77 188 L70 177 C21 98 -22 60 -67 55 L-73 55 L-85 0 L146 0 L158 55 L150 55 C114 55 93 67 93 88 C93 98 105 124 123 153 L139 180 L355 180 L363 143 C367 122 371 97 371 89 C371 66 347 55 301 55 L295 55 L283 0 L630 0 L642 55 L637 55 C589 60 576 78 555 162 L448 668 C501 688 540 739 540 790 C540 839 504 875 455 875 C386 875 322 813 322 746 C322 708 342 679 378 666 L77 188 Z M344 236 L174 236 L299 435 L344 236 Z M444 828 C472 828 492 808 492 781 C492 743 456 708 417 708 C390 708 370 728 370 755 C370 793 406 828 444 828 L444 828 Z " />
<glyph glyph-name="AE" unicode="&#xc6;" horiz-adv-x="1002" d="M425 318 L387 136 C375 78 346 55 281 55 L267 55 L255 0 L898 0 L949 219 L891 219 C833 103 770 56 675 59 L661 59 C588 59 559 73 559 107 C559 120 561 136 564 153 L600 318 L675 318 C718 318 731 308 731 274 C731 270 731 263 730 257 L729 247 L729 241 L728 236 L788 236 L836 460 L776 460 L774 454 C754 390 735 375 677 377 L612 377 L661 608 L807 608 C874 612 896 588 912 494 L971 494 L996 667 L304 667 L293 613 L321 613 C361 613 377 608 377 594 C377 583 363 558 342 532 L68 179 C-7 84 -38 58 -84 55 L-96 0 L114 0 L125 55 L120 55 C94 55 77 66 77 84 C77 95 90 120 109 144 L248 318 L425 318 Z M438 377 L296 377 L490 625 L438 377 Z " />
<glyph glyph-name="Ccedilla" unicode="&#xc7;" horiz-adv-x="778" d="M358 -12 C434 -8 520 25 575 70 C585 54 590 34 591 6 L648 6 L702 256 L644 256 C624 212 587 157 556 126 C512 81 435 51 367 51 C280 51 222 108 222 193 C222 270 249 394 283 473 C321 562 398 615 489 615 C599 615 661 546 668 412 L725 412 L770 658 L714 658 C701 633 692 617 679 599 C628 654 567 679 478 679 C341 679 216 618 129 509 C68 431 34 341 34 254 C34 102 138 -3 300 -13 C287 -55 275 -83 257 -114 C291 -115 312 -128 312 -148 C312 -173 289 -188 252 -188 C224 -188 202 -185 170 -177 C162 -202 161 -205 151 -227 C175 -236 200 -240 232 -240 C348 -240 426 -192 426 -121 C426 -79 398 -54 343 -49 L358 -12 Z " />
<glyph glyph-name="Egrave" unicode="&#xc8;" horiz-adv-x="705" d="M591 219 C534 100 474 57 371 59 L353 59 C289 59 258 74 258 106 C258 114 260 122 266 154 L301 319 L370 319 C418 319 435 307 435 274 C435 265 434 253 432 243 L431 235 L490 235 L538 461 L478 461 L477 455 C460 394 442 379 380 378 L314 378 L363 608 L496 608 C551 607 570 601 583 581 C598 558 608 529 612 494 L669 494 L696 667 L100 667 L88 613 L102 613 C151 613 176 597 176 564 C176 555 175 543 172 531 L88 136 C77 79 46 55 -17 55 L-30 55 L-42 0 L598 0 L649 219 L591 219 Z M523 732 L563 732 L498 892 L298 892 L296 880 L523 732 Z " />
<glyph glyph-name="Eacute" unicode="&#xc9;" horiz-adv-x="705" d="M591 219 C534 100 474 57 371 59 L353 59 C289 59 258 74 258 106 C258 114 260 122 266 154 L301 319 L370 319 C418 319 435 307 435 274 C435 265 434 253 432 243 L431 235 L490 235 L538 461 L478 461 L477 455 C460 394 442 379 380 378 L314 378 L363 608 L496 608 C551 607 570 601 583 581 C598 558 608 529 612 494 L669 494 L696 667 L100 667 L88 613 L102 613 C151 613 176 597 176 564 C176 555 175 543 172 531 L88 136 C77 79 46 55 -17 55 L-30 55 L-42 0 L598 0 L649 219 L591 219 Z M371 732 L410 732 L701 880 L704 892 L504 892 L371 732 Z " />
<glyph glyph-name="Ecircumflex" unicode="&#xca;" horiz-adv-x="705" d="M591 219 C534 100 474 57 371 59 L353 59 C289 59 258 74 258 106 C258 114 260 122 266 154 L301 319 L370 319 C418 319 435 307 435 274 C435 265 434 253 432 243 L431 235 L490 235 L538 461 L478 461 L477 455 C460 394 442 379 380 378 L314 378 L363 608 L496 608 C551 607 570 601 583 581 C598 558 608 529 612 494 L669 494 L696 667 L100 667 L88 613 L102 613 C151 613 176 597 176 564 C176 555 175 543 172 531 L88 136 C77 79 46 55 -17 55 L-30 55 L-42 0 L598 0 L649 219 L591 219 Z M388 887 L255 728 L293 728 L468 821 L612 728 L651 728 L581 887 L388 887 Z " />
<glyph glyph-name="Edieresis" unicode="&#xcb;" horiz-adv-x="705" d="M591 219 C534 100 474 57 371 59 L353 59 C289 59 258 74 258 106 C258 114 260 122 266 154 L301 319 L370 319 C418 319 435 307 435 274 C435 265 434 253 432 243 L431 235 L490 235 L538 461 L478 461 L477 455 C460 394 442 379 380 378 L314 378 L363 608 L496 608 C551 607 570 601 583 581 C598 558 608 529 612 494 L669 494 L696 667 L100 667 L88 613 L102 613 C151 613 176 597 176 564 C176 555 175 543 172 531 L88 136 C77 79 46 55 -17 55 L-30 55 L-42 0 L598 0 L649 219 L591 219 Z M334 881 C284 881 238 836 238 787 C238 752 264 726 299 726 C349 726 395 771 395 820 C395 855 369 881 334 881 L334 881 Z M628 881 C578 881 532 836 532 788 C532 752 558 726 594 726 C644 726 690 771 690 820 C690 855 664 881 628 881 L628 881 Z " />
<glyph glyph-name="Igrave" unicode="&#xcc;" horiz-adv-x="428" d="M88 612 L97 612 C149 612 171 598 171 564 C171 552 170 542 168 531 L84 136 C72 78 43 55 -22 55 L-30 55 L-42 0 L328 0 L340 55 L329 55 C279 55 254 70 254 101 C254 111 255 124 258 136 L342 531 C355 591 383 613 447 612 L458 612 L470 667 L100 667 L88 612 Z M378 732 L417 732 L352 892 L153 892 L150 880 L378 732 Z " />
<glyph glyph-name="Iacute" unicode="&#xcd;" horiz-adv-x="428" d="M88 612 L97 612 C149 612 171 598 171 564 C171 552 170 542 168 531 L84 136 C72 78 43 55 -22 55 L-30 55 L-42 0 L328 0 L340 55 L329 55 C279 55 254 70 254 101 C254 111 255 124 258 136 L342 531 C355 591 383 613 447 612 L458 612 L470 667 L100 667 L88 612 Z M244 732 L284 732 L574 880 L577 892 L377 892 L244 732 Z " />
<glyph glyph-name="Icircumflex" unicode="&#xce;" horiz-adv-x="428" d="M88 612 L97 612 C149 612 171 598 171 564 C171 552 170 542 168 531 L84 136 C72 78 43 55 -22 55 L-30 55 L-42 0 L328 0 L340 55 L329 55 C279 55 254 70 254 101 C254 111 255 124 258 136 L342 531 C355 591 383 613 447 612 L458 612 L470 667 L100 667 L88 612 Z M237 887 L103 728 L141 728 L316 821 L461 728 L499 728 L429 887 L237 887 Z " />
<glyph glyph-name="Idieresis" unicode="&#xcf;" horiz-adv-x="428" d="M88 612 L97 612 C149 612 171 598 171 564 C171 552 170 542 168 531 L84 136 C72 78 43 55 -22 55 L-30 55 L-42 0 L328 0 L340 55 L329 55 C279 55 254 70 254 101 C254 111 255 124 258 136 L342 531 C355 591 383 613 447 612 L458 612 L470 667 L100 667 L88 612 Z M208 881 C158 881 112 836 112 787 C112 752 138 726 173 726 C223 726 269 771 269 820 C269 855 243 881 208 881 L208 881 Z M452 881 C402 881 356 836 356 788 C356 752 382 726 417 726 C467 726 513 771 513 820 C513 855 487 881 452 881 L452 881 Z " />
<glyph glyph-name="Eth" unicode="&#xd0;" horiz-adv-x="840" d="M137 365 L32 365 L18 301 L123 301 L88 136 C76 78 47 55 -18 55 L-26 55 L-38 0 L213 0 C451 1 491 7 582 54 C717 124 803 261 803 404 C803 504 755 583 669 627 C605 659 505 673 335 673 C290 673 233 672 173 670 L165 670 C153 670 150 670 133 669 C113 668 110 668 104 667 L92 613 L100 613 C151 613 176 597 176 564 C176 555 174 542 172 531 L137 365 Z M311 365 L364 615 C369 616 374 616 380 616 C459 616 496 608 534 583 C584 549 608 500 608 434 C608 357 584 259 550 195 C500 101 430 59 326 59 C285 59 260 78 260 108 C260 117 263 137 267 156 L298 301 L440 301 L454 365 L311 365 Z " />
<glyph glyph-name="Ntilde" unicode="&#xd1;" horiz-adv-x="824" d="M643 -11 L752 501 C764 570 792 601 854 612 L861 612 L873 667 L631 667 L619 612 L625 612 C665 612 695 586 695 550 C695 537 693 521 689 503 L637 259 L335 667 L98 667 L86 612 L91 612 C144 612 170 588 170 539 C170 526 169 520 167 511 L95 170 C85 123 81 111 71 99 C52 74 9 54 -24 55 L-28 55 L-40 0 L224 0 L236 55 L222 55 C184 54 150 83 150 116 C150 125 154 149 158 171 L223 477 L580 -11 L643 -11 Z M360 724 C366 753 390 775 418 775 C430 775 441 772 458 763 C529 727 546 721 584 721 C660 721 712 775 727 869 L688 869 C674 833 655 815 633 815 C616 815 602 820 556 843 C513 864 492 870 462 870 C385 870 335 819 320 724 L360 724 Z " />
<glyph glyph-name="Ograve" unicode="&#xd2;" horiz-adv-x="870" d="M516 679 C374 679 249 630 160 541 C82 462 35 356 35 260 C35 170 77 86 142 44 C201 6 278 -14 364 -14 C496 -14 612 30 701 114 C785 193 834 300 834 402 C834 570 709 679 516 679 L516 679 Z M497 615 C562 615 607 588 626 538 C633 519 636 498 636 469 C636 342 597 201 541 125 C508 81 443 50 380 50 C286 50 233 105 233 203 C233 295 271 440 314 512 C355 580 417 615 497 615 L497 615 Z M584 732 L624 732 L559 892 L359 892 L357 880 L584 732 Z " />
<glyph glyph-name="Oacute" unicode="&#xd3;" horiz-adv-x="870" d="M516 679 C374 679 249 630 160 541 C82 462 35 356 35 260 C35 170 77 86 142 44 C201 6 278 -14 364 -14 C496 -14 612 30 701 114 C785 193 834 300 834 402 C834 570 709 679 516 679 L516 679 Z M497 615 C562 615 607 588 626 538 C633 519 636 498 636 469 C636 342 597 201 541 125 C508 81 443 50 380 50 C286 50 233 105 233 203 C233 295 271 440 314 512 C355 580 417 615 497 615 L497 615 Z M457 732 L497 732 L787 880 L790 892 L590 892 L457 732 Z " />
<glyph glyph-name="Ocircumflex" unicode="&#xd4;" horiz-adv-x="870" d="M516 679 C374 679 249 630 160 541 C82 462 35 356 35 260 C35 170 77 86 142 44 C201 6 278 -14 364 -14 C496 -14 612 30 701 114 C785 193 834 300 834 402 C834 570 709 679 516 679 L516 679 Z M497 615 C562 615 607 588 626 538 C633 519 636 498 636 469 C636 342 597 201 541 125 C508 81 443 50 380 50 C286 50 233 105 233 203 C233 295 271 440 314 512 C355 580 417 615 497 615 L497 615 Z M458 887 L324 728 L362 728 L537 821 L682 728 L720 728 L650 887 L458 887 Z " />
<glyph glyph-name="Otilde" unicode="&#xd5;" horiz-adv-x="870" d="M516 679 C374 679 249 630 160 541 C82 462 35 356 35 260 C35 170 77 86 142 44 C201 6 278 -14 364 -14 C496 -14 612 30 701 114 C785 193 834 300 834 402 C834 570 709 679 516 679 L516 679 Z M497 615 C562 615 607 588 626 538 C633 519 636 498 636 469 C636 342 597 201 541 125 C508 81 443 50 380 50 C286 50 233 105 233 203 C233 295 271 440 314 512 C355 580 417 615 497 615 L497 615 Z M375 724 C380 753 404 775 432 775 C444 775 456 772 473 763 C543 727 560 721 599 721 C674 721 727 775 741 869 L703 869 C688 833 670 815 647 815 C631 815 616 820 570 843 C527 864 506 870 477 870 C400 870 348 817 335 724 L375 724 Z " />
<glyph glyph-name="Odieresis" unicode="&#xd6;" horiz-adv-x="870" d="M516 679 C374 679 249 630 160 541 C82 462 35 356 35 260 C35 170 77 86 142 44 C201 6 278 -14 364 -14 C496 -14 612 30 701 114 C785 193 834 300 834 402 C834 570 709 679 516 679 L516 679 Z M497 615 C562 615 607 588 626 538 C633 519 636 498 636 469 C636 342 597 201 541 125 C508 81 443 50 380 50 C286 50 233 105 233 203 C233 295 271 440 314 512 C355 580 417 615 497 615 L497 615 Z M405 881 C355 881 309 836 309 787 C309 752 335 726 371 726 C421 726 467 771 467 820 C467 855 441 881 405 881 L405 881 Z M699 881 C649 881 603 836 603 788 C603 752 629 726 665 726 C715 726 761 771 761 820 C761 855 735 881 699 881 L699 881 Z " />
<glyph glyph-name="multiply" unicode="&#xd7;" horiz-adv-x="525" d="M164 576 L84 513 L205 371 L20 226 L75 160 L259 306 L378 162 L458 225 L337 368 L521 513 L466 579 L283 433 L164 576 Z " />
<glyph glyph-name="Oslash" unicode="&#xd8;" horiz-adv-x="870" d="M41 23 L78 -13 L142 44 C196 8 282 -14 367 -14 C496 -14 613 31 701 114 C785 193 834 299 834 401 C834 475 809 541 761 589 L823 643 L789 680 L723 622 C671 659 598 679 512 679 C373 679 249 630 160 541 C82 461 35 357 35 261 C35 189 60 123 103 77 L41 23 Z M233 191 L233 194 L233 211 C233 297 272 442 314 512 C354 578 417 615 491 615 C562 615 607 589 626 537 L233 191 Z M636 478 L636 465 C636 342 597 202 541 125 C509 81 442 50 379 50 C312 50 263 80 244 133 L636 478 Z " />
<glyph glyph-name="Ugrave" unicode="&#xd9;" horiz-adv-x="814" d="M618 667 L607 612 L612 612 C660 612 689 587 689 546 C689 536 687 521 685 510 L637 286 C622 213 612 183 596 158 C554 94 481 55 404 55 C325 55 268 102 268 169 C268 193 273 228 281 268 L337 531 C350 592 376 613 439 612 L451 612 L462 667 L90 667 L78 612 L86 612 C136 612 157 598 157 566 C157 555 156 543 153 531 L97 268 C86 214 85 208 85 182 C85 61 181 -14 337 -14 C425 -14 515 12 574 56 C634 99 677 176 698 274 L747 507 C760 574 785 600 850 612 L856 612 L867 667 L618 667 Z M586 732 L626 732 L561 892 L361 892 L359 880 L586 732 Z " />
<glyph glyph-name="Uacute" unicode="&#xda;" horiz-adv-x="814" d="M618 667 L607 612 L612 612 C660 612 689 587 689 546 C689 536 687 521 685 510 L637 286 C622 213 612 183 596 158 C554 94 481 55 404 55 C325 55 268 102 268 169 C268 193 273 228 281 268 L337 531 C350 592 376 613 439 612 L451 612 L462 667 L90 667 L78 612 L86 612 C136 612 157 598 157 566 C157 555 156 543 153 531 L97 268 C86 214 85 208 85 182 C85 61 181 -14 337 -14 C425 -14 515 12 574 56 C634 99 677 176 698 274 L747 507 C760 574 785 600 850 612 L856 612 L867 667 L618 667 Z M465 732 L505 732 L795 880 L798 892 L598 892 L465 732 Z " />
<glyph glyph-name="Ucircumflex" unicode="&#xdb;" horiz-adv-x="814" d="M618 667 L607 612 L612 612 C660 612 689 587 689 546 C689 536 687 521 685 510 L637 286 C622 213 612 183 596 158 C554 94 481 55 404 55 C325 55 268 102 268 169 C268 193 273 228 281 268 L337 531 C350 592 376 613 439 612 L451 612 L462 667 L90 667 L78 612 L86 612 C136 612 157 598 157 566 C157 555 156 543 153 531 L97 268 C86 214 85 208 85 182 C85 61 181 -14 337 -14 C425 -14 515 12 574 56 C634 99 677 176 698 274 L747 507 C760 574 785 600 850 612 L856 612 L867 667 L618 667 Z M445 887 L311 728 L350 728 L524 821 L669 728 L707 728 L638 887 L445 887 Z " />
<glyph glyph-name="Udieresis" unicode="&#xdc;" horiz-adv-x="814" d="M618 667 L607 612 L612 612 C660 612 689 587 689 546 C689 536 687 521 685 510 L637 286 C622 213 612 183 596 158 C554 94 481 55 404 55 C325 55 268 102 268 169 C268 193 273 228 281 268 L337 531 C350 592 376 613 439 612 L451 612 L462 667 L90 667 L78 612 L86 612 C136 612 157 598 157 566 C157 555 156 543 153 531 L97 268 C86 214 85 208 85 182 C85 61 181 -14 337 -14 C425 -14 515 12 574 56 C634 99 677 176 698 274 L747 507 C760 574 785 600 850 612 L856 612 L867 667 L618 667 Z M405 881 C355 881 309 836 309 787 C309 752 335 726 371 726 C421 726 467 771 467 820 C467 855 441 881 405 881 L405 881 Z M699 881 C649 881 603 836 603 788 C603 752 629 726 665 726 C715 726 761 771 761 820 C761 855 735 881 699 881 L699 881 Z " />
<glyph glyph-name="Yacute" unicode="&#xdd;" horiz-adv-x="699" d="M59 667 L47 612 L53 612 C98 609 112 595 138 532 L249 273 L220 136 C209 78 180 55 115 55 L103 55 L91 0 L467 0 L478 55 L468 55 C418 55 393 70 393 101 C393 114 394 124 397 136 L428 284 L609 489 L628 512 C695 589 725 610 767 612 L772 612 L783 667 L543 667 L531 612 L537 612 C574 612 591 601 591 578 C591 562 579 539 561 517 L419 353 L347 534 C341 549 336 567 336 575 C336 599 356 612 393 612 L398 612 L410 667 L59 667 Z M422 732 L462 732 L752 880 L755 892 L555 892 L422 732 Z " />
<glyph glyph-name="Thorn" unicode="&#xde;" horiz-adv-x="709" d="M483 667 L99 667 L88 612 L105 612 C157 612 179 598 179 565 C179 552 178 542 176 531 L92 136 C80 78 51 55 -13 55 L-26 55 L-38 0 L342 0 L353 55 L336 55 C306 55 277 63 268 75 C264 79 262 86 262 96 C262 110 263 123 266 136 L268 145 L355 144 C462 144 540 164 597 205 C652 245 685 307 685 370 C685 473 596 523 411 523 L382 523 L357 522 L348 522 C362 593 381 609 455 612 L472 612 L483 667 Z M281 204 L336 463 L345 463 C411 463 437 459 462 443 C484 429 496 403 496 368 C496 326 482 284 457 253 C430 219 386 204 316 204 L281 204 Z " />
<glyph glyph-name="germandbls" unicode="&#xdf;" horiz-adv-x="653" d="M42 118 C30 66 17 55 -39 52 L-43 52 L-54 0 L225 0 L236 52 L230 52 C206 53 196 62 196 83 C196 89 197 99 199 107 L285 510 C295 558 301 575 315 594 C330 613 361 625 395 625 C446 625 469 602 469 553 C469 504 448 448 420 423 C406 410 364 394 342 394 L341 394 L337 395 L336 395 L325 343 L326 343 L333 343 C385 343 414 298 414 218 C414 182 410 149 402 112 C392 64 372 38 348 38 C331 38 317 53 319 68 L320 75 C322 87 315 94 304 94 C285 94 269 77 269 55 C269 16 305 -9 361 -9 C484 -9 584 92 584 217 C584 296 538 346 442 371 C552 395 622 463 622 547 C622 631 545 679 410 679 C320 679 256 660 205 620 C155 581 129 530 109 432 L42 118 Z " />
<glyph glyph-name="agrave" unicode="&#xe0;" horiz-adv-x="593" d="M495 90 C487 72 474 62 460 62 C446 62 438 70 438 83 C438 87 439 97 441 105 L481 291 C486 319 487 322 487 331 C487 391 433 419 315 419 C229 419 169 407 116 381 C73 358 48 330 48 301 C48 276 70 259 102 259 C144 259 169 276 184 313 C191 331 199 344 206 349 C219 358 244 364 267 364 C306 364 326 352 326 328 C326 319 325 311 323 303 L316 266 L292 259 L207 233 C119 204 44 166 18 138 C-5 114 -16 89 -16 64 C-16 18 25 -10 92 -10 C156 -10 219 8 277 43 C291 8 329 -10 387 -10 C467 -10 522 26 539 90 L495 90 Z M304 211 L280 96 C252 74 221 62 194 62 C165 62 143 80 143 104 C143 138 188 174 259 196 C279 202 293 207 298 209 L304 211 Z M428 486 L395 643 L217 643 L214 632 L385 486 L428 486 Z " />
<glyph glyph-name="aacute" unicode="&#xe1;" horiz-adv-x="593" d="M495 90 C487 72 474 62 460 62 C446 62 438 70 438 83 C438 87 439 97 441 105 L481 291 C486 319 487 322 487 331 C487 391 433 419 315 419 C229 419 169 407 116 381 C73 358 48 330 48 301 C48 276 70 259 102 259 C144 259 169 276 184 313 C191 331 199 344 206 349 C219 358 244 364 267 364 C306 364 326 352 326 328 C326 319 325 311 323 303 L316 266 L292 259 L207 233 C119 204 44 166 18 138 C-5 114 -16 89 -16 64 C-16 18 25 -10 92 -10 C156 -10 219 8 277 43 C291 8 329 -10 387 -10 C467 -10 522 26 539 90 L495 90 Z M304 211 L280 96 C252 74 221 62 194 62 C165 62 143 80 143 104 C143 138 188 174 259 196 C279 202 293 207 298 209 L304 211 Z M275 486 L318 486 L551 632 L553 643 L375 643 L275 486 Z " />
<glyph glyph-name="acircumflex" unicode="&#xe2;" horiz-adv-x="593" d="M495 90 C487 72 474 62 460 62 C446 62 438 70 438 83 C438 87 439 97 441 105 L481 291 C486 319 487 322 487 331 C487 391 433 419 315 419 C229 419 169 407 116 381 C73 358 48 330 48 301 C48 276 70 259 102 259 C144 259 169 276 184 313 C191 331 199 344 206 349 C219 358 244 364 267 364 C306 364 326 352 326 328 C326 319 325 311 323 303 L316 266 L292 259 L207 233 C119 204 44 166 18 138 C-5 114 -16 89 -16 64 C-16 18 25 -10 92 -10 C156 -10 219 8 277 43 C291 8 329 -10 387 -10 C467 -10 522 26 539 90 L495 90 Z M304 211 L280 96 C252 74 221 62 194 62 C165 62 143 80 143 104 C143 138 188 174 259 196 C279 202 293 207 298 209 L304 211 Z M444 484 L487 484 L438 647 L306 647 L182 484 L222 484 L354 568 L444 484 Z " />
<glyph glyph-name="atilde" unicode="&#xe3;" horiz-adv-x="593" d="M495 90 C487 72 474 62 460 62 C446 62 438 70 438 83 C438 87 439 97 441 105 L481 291 C486 319 487 322 487 331 C487 391 433 419 315 419 C229 419 169 407 116 381 C73 358 48 330 48 301 C48 276 70 259 102 259 C144 259 169 276 184 313 C191 331 199 344 206 349 C219 358 244 364 267 364 C306 364 326 352 326 328 C326 319 325 311 323 303 L316 266 L292 259 L207 233 C119 204 44 166 18 138 C-5 114 -16 89 -16 64 C-16 18 25 -10 92 -10 C156 -10 219 8 277 43 C291 8 329 -10 387 -10 C467 -10 522 26 539 90 L495 90 Z M304 211 L280 96 C252 74 221 62 194 62 C165 62 143 80 143 104 C143 138 188 174 259 196 C279 202 293 207 298 209 L304 211 Z M216 493 C228 518 242 529 261 529 C277 529 302 522 331 510 C356 500 385 493 401 493 C456 493 505 549 521 633 L483 633 C475 605 456 588 434 588 C424 588 393 596 368 606 C340 617 315 623 297 623 C272 623 234 604 217 583 C200 561 189 535 179 493 L216 493 Z " />
<glyph glyph-name="adieresis" unicode="&#xe4;" horiz-adv-x="593" d="M495 90 C487 72 474 62 460 62 C446 62 438 70 438 83 C438 87 439 97 441 105 L481 291 C486 319 487 322 487 331 C487 391 433 419 315 419 C229 419 169 407 116 381 C73 358 48 330 48 301 C48 276 70 259 102 259 C144 259 169 276 184 313 C191 331 199 344 206 349 C219 358 244 364 267 364 C306 364 326 352 326 328 C326 319 325 311 323 303 L316 266 L292 259 L207 233 C119 204 44 166 18 138 C-5 114 -16 89 -16 64 C-16 18 25 -10 92 -10 C156 -10 219 8 277 43 C291 8 329 -10 387 -10 C467 -10 522 26 539 90 L495 90 Z M304 211 L280 96 C252 74 221 62 194 62 C165 62 143 80 143 104 C143 138 188 174 259 196 C279 202 293 207 298 209 L304 211 Z M241 638 C196 638 154 597 154 554 C154 522 178 498 210 498 C255 498 297 539 297 583 C297 615 274 638 241 638 L241 638 Z M478 638 C433 638 391 597 391 553 C391 522 415 498 447 498 C491 498 533 539 533 583 C533 614 509 638 478 638 L478 638 Z " />
<glyph glyph-name="aring" unicode="&#xe5;" horiz-adv-x="593" d="M495 90 C487 72 474 62 460 62 C446 62 438 70 438 83 C438 87 439 97 441 105 L481 291 C486 319 487 322 487 331 C487 391 433 419 315 419 C229 419 169 407 116 381 C73 358 48 330 48 301 C48 276 70 259 102 259 C144 259 169 276 184 313 C191 331 199 344 206 349 C219 358 244 364 267 364 C306 364 326 352 326 328 C326 319 325 311 323 303 L316 266 L292 259 L207 233 C119 204 44 166 18 138 C-5 114 -16 89 -16 64 C-16 18 25 -10 92 -10 C156 -10 219 8 277 43 C291 8 329 -10 387 -10 C467 -10 522 26 539 90 L495 90 Z M304 211 L280 96 C252 74 221 62 194 62 C165 62 143 80 143 104 C143 138 188 174 259 196 C279 202 293 207 298 209 L304 211 Z M375 682 C306 682 242 620 242 554 C242 505 279 469 327 469 C396 469 460 531 460 597 C460 646 424 682 375 682 L375 682 Z M364 633 C390 633 410 614 410 588 C410 552 375 518 338 518 C311 518 292 537 292 563 C292 599 327 633 364 633 L364 633 Z " />
<glyph glyph-name="ae" unicode="&#xe6;" horiz-adv-x="793" d="M644 105 C605 70 564 52 523 52 C474 52 445 87 445 146 C445 166 446 180 450 196 L452 206 L730 206 C734 228 735 240 735 257 C735 299 725 333 705 358 C675 396 617 419 554 419 C515 419 481 411 444 395 C381 415 359 419 294 419 C153 419 42 367 42 301 C42 277 65 261 98 261 C134 261 163 280 174 311 C183 336 183 336 190 344 C201 356 224 364 249 364 C283 364 306 348 306 322 C306 317 304 305 302 293 L296 266 C147 219 88 194 35 154 C4 132 -17 95 -17 66 C-17 24 27 -9 85 -9 C146 -9 217 15 292 62 C332 15 392 -9 469 -9 C556 -9 636 22 686 77 L644 105 Z M586 256 L462 256 C481 334 506 366 548 366 C575 366 594 344 594 312 C594 302 592 290 588 266 L586 256 Z M260 95 C236 77 206 65 182 65 C159 65 141 82 141 104 C141 144 185 177 285 211 L260 95 Z " />
<glyph glyph-name="ccedilla" unicode="&#xe7;" horiz-adv-x="520" d="M399 124 C364 74 318 49 260 49 C228 49 199 60 185 78 C176 91 171 111 171 138 C171 193 184 258 203 296 C226 341 262 366 306 366 C332 366 344 356 344 334 C345 302 347 297 355 282 C364 267 382 258 403 258 C447 258 485 294 485 336 C485 388 429 419 334 419 C150 419 2 299 2 150 C2 56 70 -6 185 -15 C171 -56 163 -78 150 -102 C175 -104 190 -115 190 -133 C190 -155 172 -169 144 -169 C123 -169 107 -166 83 -159 C76 -181 75 -184 67 -205 C84 -212 104 -216 130 -216 C216 -216 277 -170 277 -107 C277 -69 257 -48 217 -44 C223 -28 224 -25 227 -15 C326 -10 406 33 447 102 L399 124 Z " />
<glyph glyph-name="egrave" unicode="&#xe8;" horiz-adv-x="542" d="M395 104 C353 64 311 45 268 45 C212 45 179 79 179 138 C179 163 183 189 189 206 L479 206 C484 231 486 246 486 266 C486 360 414 419 298 419 C138 419 6 301 6 157 C6 53 87 -16 211 -16 C295 -16 385 21 438 77 L395 104 Z M200 255 C213 307 220 323 236 342 C246 355 269 365 288 365 C320 365 337 344 337 305 C337 288 335 277 330 256 L200 255 Z M410 486 L378 643 L199 643 L197 632 L367 486 L410 486 Z " />
<glyph glyph-name="eacute" unicode="&#xe9;" horiz-adv-x="542" d="M395 104 C353 64 311 45 268 45 C212 45 179 79 179 138 C179 163 183 189 189 206 L479 206 C484 231 486 246 486 266 C486 360 414 419 298 419 C138 419 6 301 6 157 C6 53 87 -16 211 -16 C295 -16 385 21 438 77 L395 104 Z M200 255 C213 307 220 323 236 342 C246 355 269 365 288 365 C320 365 337 344 337 305 C337 288 335 277 330 256 L200 255 Z M268 486 L311 486 L543 632 L546 643 L367 643 L268 486 Z " />
<glyph glyph-name="ecircumflex" unicode="&#xea;" horiz-adv-x="542" d="M395 104 C353 64 311 45 268 45 C212 45 179 79 179 138 C179 163 183 189 189 206 L479 206 C484 231 486 246 486 266 C486 360 414 419 298 419 C138 419 6 301 6 157 C6 53 87 -16 211 -16 C295 -16 385 21 438 77 L395 104 Z M200 255 C213 307 220 323 236 342 C246 355 269 365 288 365 C320 365 337 344 337 305 C337 288 335 277 330 256 L200 255 Z M428 484 L471 484 L423 647 L290 647 L166 484 L207 484 L338 568 L428 484 Z " />
<glyph glyph-name="edieresis" unicode="&#xeb;" horiz-adv-x="542" d="M395 104 C353 64 311 45 268 45 C212 45 179 79 179 138 C179 163 183 189 189 206 L479 206 C484 231 486 246 486 266 C486 360 414 419 298 419 C138 419 6 301 6 157 C6 53 87 -16 211 -16 C295 -16 385 21 438 77 L395 104 Z M200 255 C213 307 220 323 236 342 C246 355 269 365 288 365 C320 365 337 344 337 305 C337 288 335 277 330 256 L200 255 Z M232 638 C187 638 145 597 145 554 C145 522 169 498 201 498 C246 498 288 539 288 583 C288 614 264 638 232 638 L232 638 Z M469 638 C423 638 382 597 382 553 C382 522 406 498 437 498 C482 498 524 539 524 583 C524 614 500 638 469 638 L469 638 Z " />
<glyph glyph-name="igrave" unicode="&#xec;" horiz-adv-x="343" d="M277 419 L271 419 C241 413 240 413 143 398 C57 385 52 384 27 382 L16 330 L28 330 C51 330 73 323 80 314 C83 310 85 303 85 293 C85 286 84 274 81 264 L50 118 C38 67 23 54 -31 52 L-43 52 L-54 0 L262 0 L273 52 L268 52 C226 52 210 64 210 94 C210 100 211 110 213 118 L277 419 Z M304 486 L272 643 L93 643 L91 632 L261 486 L304 486 Z " />
<glyph glyph-name="iacute" unicode="&#xed;" horiz-adv-x="343" d="M277 419 L271 419 C241 413 240 413 143 398 C57 385 52 384 27 382 L16 330 L28 330 C51 330 73 323 80 314 C83 310 85 303 85 293 C85 286 84 274 81 264 L50 118 C38 67 23 54 -31 52 L-43 52 L-54 0 L262 0 L273 52 L268 52 C226 52 210 64 210 94 C210 100 211 110 213 118 L277 419 Z M160 486 L203 486 L436 632 L438 643 L260 643 L160 486 Z " />
<glyph glyph-name="icircumflex" unicode="&#xee;" horiz-adv-x="343" d="M277 419 L271 419 C241 413 240 413 143 398 C57 385 52 384 27 382 L16 330 L28 330 C51 330 73 323 80 314 C83 310 85 303 85 293 C85 286 84 274 81 264 L50 118 C38 67 23 54 -31 52 L-43 52 L-54 0 L262 0 L273 52 L268 52 C226 52 210 64 210 94 C210 100 211 110 213 118 L277 419 Z M316 484 L359 484 L311 647 L178 647 L54 484 L95 484 L226 568 L316 484 Z " />
<glyph glyph-name="idieresis" unicode="&#xef;" horiz-adv-x="343" d="M277 419 L271 419 C241 413 240 413 143 398 C57 385 52 384 27 382 L16 330 L28 330 C51 330 73 323 80 314 C83 310 85 303 85 293 C85 286 84 274 81 264 L50 118 C38 67 23 54 -31 52 L-43 52 L-54 0 L262 0 L273 52 L268 52 C226 52 210 64 210 94 C210 100 211 110 213 118 L277 419 Z M145 638 C100 638 58 597 58 554 C58 522 82 498 114 498 C159 498 201 539 201 583 C201 614 177 638 145 638 L145 638 Z M337 638 C292 638 250 597 250 553 C250 522 274 498 305 498 C350 498 392 539 392 583 C392 614 368 638 337 638 L337 638 Z " />
<glyph glyph-name="eth" unicode="&#xf0;" horiz-adv-x="593" d="M224 604 C256 583 261 580 288 557 L180 508 L194 461 L324 519 C346 492 368 438 371 406 C353 414 340 417 313 417 C141 417 6 302 6 157 C6 49 88 -14 229 -14 C320 -14 388 13 450 75 C508 131 544 230 544 329 C544 421 514 497 447 573 L530 611 L514 658 L409 611 C381 634 350 654 301 677 L224 604 Z M303 361 C343 361 367 333 367 286 C367 245 353 175 335 128 C313 72 278 42 236 42 C191 42 169 67 169 119 C169 178 191 265 217 311 C235 342 268 361 303 361 L303 361 Z " />
<glyph glyph-name="ntilde" unicode="&#xf1;" horiz-adv-x="639" d="M256 408 C228 402 208 399 179 395 C147 391 105 384 28 372 L17 320 L21 320 C61 320 79 306 79 276 C79 269 79 265 78 260 L47 118 C36 68 19 54 -36 52 L-38 52 L-49 0 L238 0 L249 52 L245 52 C216 53 203 66 203 91 C203 98 204 109 206 118 L239 273 C289 318 319 335 347 335 C376 335 391 321 391 296 C391 292 390 286 389 281 L355 118 C344 72 329 57 290 53 L284 52 L273 0 L560 0 L571 52 L567 52 C528 52 513 64 513 94 C513 100 514 110 516 118 L546 258 C551 285 554 304 554 319 C554 379 505 419 431 419 C370 419 311 395 259 350 C262 368 263 381 263 392 C263 399 263 401 261 408 L256 408 Z M243 493 C255 518 269 529 288 529 C304 529 329 522 359 510 C383 500 412 493 428 493 C484 493 531 548 548 633 L510 633 C501 605 483 588 461 588 C451 588 421 596 395 606 C367 617 342 623 325 623 C299 623 261 604 244 583 C227 561 216 535 207 493 L243 493 Z " />
<glyph glyph-name="ograve" unicode="&#xf2;" horiz-adv-x="594" d="M316 419 C141 419 5 302 5 152 C5 117 14 87 32 62 C66 15 140 -16 220 -16 C394 -16 532 102 532 251 C532 285 524 313 506 338 C471 387 396 419 316 419 L316 419 Z M304 364 C348 364 372 340 372 298 C372 261 356 182 337 125 C318 67 284 38 236 38 C193 38 166 66 166 108 C166 141 180 224 193 264 C216 336 247 364 304 364 L304 364 Z M430 486 L398 643 L219 643 L217 632 L388 486 L430 486 Z " />
<glyph glyph-name="oacute" unicode="&#xf3;" horiz-adv-x="594" d="M316 419 C141 419 5 302 5 152 C5 117 14 87 32 62 C66 15 140 -16 220 -16 C394 -16 532 102 532 251 C532 285 524 313 506 338 C471 387 396 419 316 419 L316 419 Z M304 364 C348 364 372 340 372 298 C372 261 356 182 337 125 C318 67 284 38 236 38 C193 38 166 66 166 108 C166 141 180 224 193 264 C216 336 247 364 304 364 L304 364 Z M291 486 L333 486 L566 632 L568 643 L390 643 L291 486 Z " />
<glyph glyph-name="ocircumflex" unicode="&#xf4;" horiz-adv-x="594" d="M316 419 C141 419 5 302 5 152 C5 117 14 87 32 62 C66 15 140 -16 220 -16 C394 -16 532 102 532 251 C532 285 524 313 506 338 C471 387 396 419 316 419 L316 419 Z M304 364 C348 364 372 340 372 298 C372 261 356 182 337 125 C318 67 284 38 236 38 C193 38 166 66 166 108 C166 141 180 224 193 264 C216 336 247 364 304 364 L304 364 Z M442 484 L486 484 L437 647 L305 647 L181 484 L221 484 L353 568 L442 484 Z " />
<glyph glyph-name="otilde" unicode="&#xf5;" horiz-adv-x="594" d="M316 419 C141 419 5 302 5 152 C5 117 14 87 32 62 C66 15 140 -16 220 -16 C394 -16 532 102 532 251 C532 285 524 313 506 338 C471 387 396 419 316 419 L316 419 Z M304 364 C348 364 372 340 372 298 C372 261 356 182 337 125 C318 67 284 38 236 38 C193 38 166 66 166 108 C166 141 180 224 193 264 C216 336 247 364 304 364 L304 364 Z M215 493 C227 518 241 529 260 529 C275 529 301 522 330 510 C354 500 383 493 399 493 C455 493 503 549 520 633 L481 633 C473 605 454 588 433 588 C422 588 392 596 366 606 C338 617 314 623 296 623 C271 623 232 604 216 583 C198 561 187 535 178 493 L215 493 Z " />
<glyph glyph-name="odieresis" unicode="&#xf6;" horiz-adv-x="594" d="M316 419 C141 419 5 302 5 152 C5 117 14 87 32 62 C66 15 140 -16 220 -16 C394 -16 532 102 532 251 C532 285 524 313 506 338 C471 387 396 419 316 419 L316 419 Z M304 364 C348 364 372 340 372 298 C372 261 356 182 337 125 C318 67 284 38 236 38 C193 38 166 66 166 108 C166 141 180 224 193 264 C216 336 247 364 304 364 L304 364 Z M248 638 C203 638 161 597 161 554 C161 522 185 498 217 498 C262 498 304 539 304 583 C304 615 280 638 248 638 L248 638 Z M485 638 C440 638 398 597 398 553 C398 522 422 498 453 498 C498 498 540 539 540 583 C540 614 516 638 485 638 L485 638 Z " />
<glyph glyph-name="divide" unicode="&#xf7;" horiz-adv-x="525" d="M19 414 L0 325 L521 325 L540 414 L19 414 Z M246 248 C191 248 141 201 141 151 C141 114 170 86 210 86 C265 86 315 132 315 183 C315 221 286 248 246 248 L246 248 Z M331 647 C276 647 226 601 226 550 C226 513 255 485 294 485 C349 485 400 532 400 582 C400 619 371 647 331 647 L331 647 Z " />
<glyph glyph-name="oslash" unicode="&#xf8;" horiz-adv-x="594" d="M92 13 C130 -6 175 -16 223 -16 C395 -16 533 103 533 251 C533 297 518 331 485 362 L537 407 L503 442 L443 390 C407 409 360 419 311 419 C141 419 5 301 5 152 C5 107 19 72 51 42 L0 -3 L35 -38 L92 13 Z M369 259 C363 215 351 165 338 125 C318 67 284 38 237 38 C203 38 179 54 171 83 L369 259 Z M170 147 C180 214 186 239 194 264 C216 334 248 364 303 364 C337 364 362 349 369 324 L170 147 Z " />
<glyph glyph-name="ugrave" unicode="&#xf9;" horiz-adv-x="625" d="M555 403 L331 403 L320 351 L323 351 C360 351 374 340 374 313 C374 305 373 295 371 285 L338 131 C333 125 331 124 327 119 C294 85 261 68 230 68 C207 68 190 84 191 103 C191 113 193 126 196 140 L252 403 L25 403 L14 351 L17 351 C55 351 71 339 71 309 C71 303 70 293 68 285 L35 131 C29 103 28 93 28 81 C28 23 77 -16 149 -16 C210 -16 268 8 322 55 C321 51 321 50 320 48 C319 42 318 37 317 34 C315 21 312 7 310 0 C308 -8 308 -9 307 -16 L312 -16 C345 -8 472 1 544 0 L555 52 L551 52 C509 52 492 64 492 95 C492 103 493 110 494 118 L555 403 Z M435 486 L403 643 L225 643 L222 632 L393 486 L435 486 Z " />
<glyph glyph-name="uacute" unicode="&#xfa;" horiz-adv-x="625" d="M555 403 L331 403 L320 351 L323 351 C360 351 374 340 374 313 C374 305 373 295 371 285 L338 131 C333 125 331 124 327 119 C294 85 261 68 230 68 C207 68 190 84 191 103 C191 113 193 126 196 140 L252 403 L25 403 L14 351 L17 351 C55 351 71 339 71 309 C71 303 70 293 68 285 L35 131 C29 103 28 93 28 81 C28 23 77 -16 149 -16 C210 -16 268 8 322 55 C321 51 321 50 320 48 C319 42 318 37 317 34 C315 21 312 7 310 0 C308 -8 308 -9 307 -16 L312 -16 C345 -8 472 1 544 0 L555 52 L551 52 C509 52 492 64 492 95 C492 103 493 110 494 118 L555 403 Z M304 486 L347 486 L580 632 L582 643 L404 643 L304 486 Z " />
<glyph glyph-name="ucircumflex" unicode="&#xfb;" horiz-adv-x="625" d="M555 403 L331 403 L320 351 L323 351 C360 351 374 340 374 313 C374 305 373 295 371 285 L338 131 C333 125 331 124 327 119 C294 85 261 68 230 68 C207 68 190 84 191 103 C191 113 193 126 196 140 L252 403 L25 403 L14 351 L17 351 C55 351 71 339 71 309 C71 303 70 293 68 285 L35 131 C29 103 28 93 28 81 C28 23 77 -16 149 -16 C210 -16 268 8 322 55 C321 51 321 50 320 48 C319 42 318 37 317 34 C315 21 312 7 310 0 C308 -8 308 -9 307 -16 L312 -16 C345 -8 472 1 544 0 L555 52 L551 52 C509 52 492 64 492 95 C492 103 493 110 494 118 L555 403 Z M462 484 L505 484 L457 647 L324 647 L200 484 L241 484 L373 568 L462 484 Z " />
<glyph glyph-name="udieresis" unicode="&#xfc;" horiz-adv-x="625" d="M555 403 L331 403 L320 351 L323 351 C360 351 374 340 374 313 C374 305 373 295 371 285 L338 131 C333 125 331 124 327 119 C294 85 261 68 230 68 C207 68 190 84 191 103 C191 113 193 126 196 140 L252 403 L25 403 L14 351 L17 351 C55 351 71 339 71 309 C71 303 70 293 68 285 L35 131 C29 103 28 93 28 81 C28 23 77 -16 149 -16 C210 -16 268 8 322 55 C321 51 321 50 320 48 C319 42 318 37 317 34 C315 21 312 7 310 0 C308 -8 308 -9 307 -16 L312 -16 C345 -8 472 1 544 0 L555 52 L551 52 C509 52 492 64 492 95 C492 103 493 110 494 118 L555 403 Z M273 638 C228 638 186 597 186 554 C186 522 210 498 242 498 C286 498 328 539 328 583 C328 614 304 638 273 638 L273 638 Z M509 638 C463 638 422 597 422 553 C422 522 446 498 477 498 C522 498 564 539 564 583 C564 614 540 638 509 638 L509 638 Z " />
<glyph glyph-name="yacute" unicode="&#xfd;" horiz-adv-x="550" d="M9 403 L-3 351 L5 350 C31 348 38 338 58 282 L179 -18 L162 -44 C128 -90 104 -104 25 -121 C-32 -133 -60 -158 -60 -197 C-60 -229 -34 -251 4 -251 C32 -251 61 -241 87 -221 C109 -205 127 -184 173 -121 L192 -96 L427 230 C497 333 509 346 540 350 L549 351 L560 403 L398 403 L387 351 L396 351 C411 352 425 341 425 330 C425 323 414 303 396 278 L297 139 L238 295 C237 297 237 299 236 302 L236 305 C232 324 232 324 232 327 C232 342 243 350 266 351 L274 351 L285 403 L9 403 Z M293 486 L336 486 L568 632 L570 643 L392 643 L293 486 Z " />
<glyph glyph-name="thorn" unicode="&#xfe;" horiz-adv-x="648" d="M65 588 L69 588 C113 588 129 576 129 545 C129 540 128 530 126 522 L-10 -120 C-22 -170 -39 -183 -95 -185 L-99 -185 L-110 -237 L211 -237 L222 -185 L205 -185 C162 -185 146 -173 146 -143 C146 -136 147 -127 149 -120 L183 40 C225 1 267 -16 318 -16 C463 -16 588 111 588 259 C588 353 522 419 426 419 C364 419 305 396 245 349 L315 679 L310 679 C258 669 199 659 133 649 C113 647 97 644 76 640 L65 588 Z M234 282 C270 324 311 346 354 346 C397 346 423 318 423 270 C423 238 410 173 397 137 C379 91 333 58 285 58 C251 58 217 74 195 100 L234 282 Z " />
<glyph glyph-name="ydieresis" unicode="&#xff;" horiz-adv-x="550" d="M9 403 L-3 351 L5 350 C31 348 38 338 58 282 L179 -18 L162 -44 C128 -90 104 -104 25 -121 C-32 -133 -60 -158 -60 -197 C-60 -229 -34 -251 4 -251 C32 -251 61 -241 87 -221 C109 -205 127 -184 173 -121 L192 -96 L427 230 C497 333 509 346 540 350 L549 351 L560 403 L398 403 L387 351 L396 351 C411 352 425 341 425 330 C425 323 414 303 396 278 L297 139 L238 295 C237 297 237 299 236 302 L236 305 C232 324 232 324 232 327 C232 342 243 350 266 351 L274 351 L285 403 L9 403 Z M244 638 C199 638 157 597 157 554 C157 522 181 498 213 498 C258 498 300 539 300 583 C300 615 276 638 244 638 L244 638 Z M481 638 C436 638 394 597 394 553 C394 522 418 498 449 498 C494 498 536 539 536 583 C536 614 512 638 481 638 L481 638 Z " />
<glyph glyph-name="Amacron" unicode="&#x100;" horiz-adv-x="687" d="M630 0 L642 55 L637 55 C589 60 576 78 555 162 L446 679 L385 679 L77 188 L70 177 C21 98 -22 60 -67 55 L-73 55 L-85 0 L146 0 L158 55 L150 55 C114 55 93 67 93 88 C93 98 105 124 123 153 L139 180 L355 180 L363 143 C367 122 371 97 371 89 C371 66 347 55 301 55 L295 55 L283 0 L630 0 Z M344 236 L174 236 L299 436 L344 236 Z M254 818 L241 756 L618 756 L631 818 L254 818 Z " />
<glyph glyph-name="amacron" unicode="&#x101;" horiz-adv-x="593" d="M495 90 C487 72 474 62 460 62 C446 62 438 70 438 83 C438 87 439 97 441 105 L481 291 C486 319 487 322 487 331 C487 391 433 419 315 419 C229 419 169 407 116 381 C73 358 48 330 48 301 C48 276 70 259 102 259 C144 259 169 276 184 313 C191 331 199 344 206 349 C219 358 244 364 267 364 C306 364 326 352 326 328 C326 319 325 311 323 303 L316 266 L292 259 L207 233 C119 204 44 166 18 138 C-5 114 -16 89 -16 64 C-16 18 25 -10 92 -10 C156 -10 219 8 277 43 C291 8 329 -10 387 -10 C467 -10 522 26 539 90 L495 90 Z M304 211 L280 96 C252 74 221 62 194 62 C165 62 143 80 143 104 C143 138 188 174 259 196 C279 202 293 207 298 209 L304 211 Z M183 591 L170 529 L505 529 L518 591 L183 591 Z " />
<glyph glyph-name="Abreve" unicode="&#x102;" horiz-adv-x="687" d="M630 0 L642 55 L637 55 C589 60 576 78 555 162 L446 679 L385 679 L77 188 L70 177 C21 98 -22 60 -67 55 L-73 55 L-85 0 L146 0 L158 55 L150 55 C114 55 93 67 93 88 C93 98 105 124 123 153 L139 180 L355 180 L363 143 C367 122 371 97 371 89 C371 66 347 55 301 55 L295 55 L283 0 L630 0 Z M344 236 L174 236 L299 436 L344 236 Z M261 882 C273 784 337 725 431 725 C521 725 608 785 660 882 L601 882 C569 840 511 815 444 815 C380 815 339 837 321 882 L261 882 Z " />
<glyph glyph-name="abreve" unicode="&#x103;" horiz-adv-x="593" d="M495 90 C487 72 474 62 460 62 C446 62 438 70 438 83 C438 87 439 97 441 105 L481 291 C486 319 487 322 487 331 C487 391 433 419 315 419 C229 419 169 407 116 381 C73 358 48 330 48 301 C48 276 70 259 102 259 C144 259 169 276 184 313 C191 331 199 344 206 349 C219 358 244 364 267 364 C306 364 326 352 326 328 C326 319 325 311 323 303 L316 266 L292 259 L207 233 C119 204 44 166 18 138 C-5 114 -16 89 -16 64 C-16 18 25 -10 92 -10 C156 -10 219 8 277 43 C291 8 329 -10 387 -10 C467 -10 522 26 539 90 L495 90 Z M304 211 L280 96 C252 74 221 62 194 62 C165 62 143 80 143 104 C143 138 188 174 259 196 C279 202 293 207 298 209 L304 211 Z M218 647 C214 633 213 623 213 610 C213 533 263 478 332 478 C416 478 496 550 518 647 L485 647 C456 593 412 566 354 566 C293 566 257 595 252 647 L218 647 Z " />
<glyph glyph-name="Aogonek" unicode="&#x104;" horiz-adv-x="687" d="M630 0 L642 55 L637 55 C589 60 576 78 555 162 L446 679 L385 679 L77 188 L70 177 C21 98 -22 60 -67 55 L-73 55 L-85 0 L146 0 L158 55 L150 55 C114 55 93 67 93 88 C93 98 105 124 123 153 L139 180 L355 180 L363 143 C367 122 371 97 371 89 C371 66 347 55 301 55 L295 55 L283 0 L493 0 C413 -35 365 -87 365 -139 C365 -186 410 -219 476 -219 C519 -219 553 -209 605 -180 L593 -150 C571 -158 558 -160 542 -160 C500 -160 473 -139 473 -107 C473 -71 501 -36 559 0 L630 0 Z M344 236 L174 236 L299 436 L344 236 Z " />
<glyph glyph-name="aogonek" unicode="&#x105;" horiz-adv-x="593" d="M495 90 C487 72 474 62 460 62 C446 62 438 70 438 83 C438 87 439 97 441 105 L481 291 C486 319 487 322 487 331 C487 391 433 419 315 419 C229 419 169 407 116 381 C73 358 48 330 48 301 C48 276 70 259 102 259 C144 259 169 276 184 313 C191 331 199 344 206 349 C219 358 244 364 267 364 C306 364 326 352 326 328 C326 319 325 311 323 303 L316 266 L292 259 L207 233 C119 204 44 166 18 138 C-5 114 -16 89 -16 64 C-16 18 25 -10 92 -10 C156 -10 219 8 277 43 C287 19 305 5 340 -4 C282 -35 246 -80 246 -122 C246 -165 288 -196 347 -196 C387 -196 419 -186 466 -160 L455 -132 C434 -139 423 -141 409 -141 C372 -141 349 -122 349 -92 C349 -66 368 -35 401 -9 C477 -3 524 31 539 90 L495 90 Z M304 211 L280 96 C252 74 221 62 194 62 C165 62 143 80 143 104 C143 138 188 174 259 196 C279 202 293 207 298 209 L304 211 Z " />
<glyph glyph-name="Cacute" unicode="&#x106;" horiz-adv-x="778" d="M644 256 C624 212 587 157 556 126 C512 81 435 51 368 51 C281 51 222 108 222 191 C222 270 249 394 283 473 C322 562 398 615 489 615 C599 615 661 546 668 412 L725 412 L771 658 L714 658 C701 633 692 617 679 599 C628 654 567 679 479 679 C341 679 216 618 129 509 C68 431 34 341 34 254 C34 93 151 -14 327 -14 C417 -14 512 18 575 70 C585 54 590 34 591 6 L648 6 L702 256 L644 256 Z M430 732 L469 732 L760 880 L762 892 L563 892 L430 732 Z " />
<glyph glyph-name="cacute" unicode="&#x107;" horiz-adv-x="520" d="M399 124 C364 74 318 49 260 49 C227 49 199 60 185 78 C176 91 171 111 171 138 C171 193 184 258 203 296 C226 341 262 366 306 366 C332 366 344 356 344 334 C345 302 347 297 355 282 C364 267 382 258 403 258 C447 258 485 294 485 336 C485 388 429 419 334 419 C150 419 2 299 2 150 C2 49 83 -16 209 -16 C315 -16 400 26 447 102 L399 124 Z M271 486 L313 486 L546 632 L548 643 L370 643 L271 486 Z " />
<glyph glyph-name="Ccircumflex" unicode="&#x108;" horiz-adv-x="778" d="M644 256 C624 212 587 157 556 126 C512 81 435 51 368 51 C281 51 222 108 222 191 C222 270 249 394 283 473 C322 562 398 615 489 615 C599 615 661 546 668 412 L725 412 L771 658 L714 658 C701 633 692 617 679 599 C628 654 567 679 479 679 C341 679 216 618 129 509 C68 431 34 341 34 254 C34 93 151 -14 327 -14 C417 -14 512 18 575 70 C585 54 590 34 591 6 L648 6 L702 256 L644 256 Z M428 887 L294 728 L333 728 L508 821 L652 728 L690 728 L621 887 L428 887 Z " />
<glyph glyph-name="Cdotaccent" unicode="&#x10a;" horiz-adv-x="778" d="M644 256 C624 212 587 157 556 126 C512 81 435 51 368 51 C281 51 222 108 222 191 C222 270 249 394 283 473 C322 562 398 615 489 615 C599 615 661 546 668 412 L725 412 L771 658 L714 658 C701 633 692 617 679 599 C628 654 567 679 479 679 C341 679 216 618 129 509 C68 431 34 341 34 254 C34 93 151 -14 327 -14 C417 -14 512 18 575 70 C585 54 590 34 591 6 L648 6 L702 256 L644 256 Z M525 881 C475 881 429 836 429 787 C429 752 456 726 491 726 C541 726 587 771 587 820 C587 855 561 881 525 881 L525 881 Z " />
<glyph glyph-name="cdotaccent" unicode="&#x10b;" horiz-adv-x="520" d="M399 124 C364 74 318 49 260 49 C227 49 199 60 185 78 C176 91 171 111 171 138 C171 193 184 258 203 296 C226 341 262 366 306 366 C332 366 344 356 344 334 C345 302 347 297 355 282 C364 267 382 258 403 258 C447 258 485 294 485 336 C485 388 429 419 334 419 C150 419 2 299 2 150 C2 49 83 -16 209 -16 C315 -16 400 26 447 102 L399 124 Z M370 638 C325 638 283 597 283 554 C283 522 307 498 339 498 C383 498 425 539 425 583 C425 614 401 638 370 638 L370 638 Z " />
<glyph glyph-name="Ccaron" unicode="&#x10c;" horiz-adv-x="778" d="M644 256 C624 212 587 157 556 126 C512 81 435 51 368 51 C281 51 222 108 222 191 C222 270 249 394 283 473 C322 562 398 615 489 615 C599 615 661 546 668 412 L725 412 L771 658 L714 658 C701 633 692 617 679 599 C628 654 567 679 479 679 C341 679 216 618 129 509 C68 431 34 341 34 254 C34 93 151 -14 327 -14 C417 -14 512 18 575 70 C585 54 590 34 591 6 L648 6 L702 256 L644 256 Z M584 728 L721 887 L683 887 L507 795 L364 887 L325 887 L391 728 L584 728 Z " />
<glyph glyph-name="ccaron" unicode="&#x10d;" horiz-adv-x="520" d="M399 124 C364 74 318 49 260 49 C227 49 199 60 185 78 C176 91 171 111 171 138 C171 193 184 258 203 296 C226 341 262 366 306 366 C332 366 344 356 344 334 C345 302 347 297 355 282 C364 267 382 258 403 258 C447 258 485 294 485 336 C485 388 429 419 334 419 C150 419 2 299 2 150 C2 49 83 -16 209 -16 C315 -16 400 26 447 102 L399 124 Z M251 654 L211 654 L266 491 L399 491 L516 654 L473 654 L348 570 L251 654 Z " />
<glyph glyph-name="Dcaron" unicode="&#x10e;" horiz-adv-x="836" d="M88 613 L96 613 C147 613 172 597 172 564 C172 555 170 542 168 531 L84 136 C72 78 43 55 -22 55 L-30 55 L-42 0 L209 0 C447 1 487 7 578 54 C713 124 799 260 799 404 C799 504 751 583 665 627 C601 659 501 673 331 673 C286 673 229 672 169 670 L161 670 C149 670 146 670 129 669 C109 668 106 668 100 667 L88 613 Z M360 615 C365 616 370 616 376 616 C455 616 492 608 530 583 C580 549 604 500 604 434 C604 357 580 259 546 195 C496 101 426 59 322 59 C281 59 256 78 256 108 C256 117 259 137 263 156 L360 615 Z M551 728 L688 887 L650 887 L474 795 L330 887 L292 887 L358 728 L551 728 Z " />
<glyph glyph-name="dcaron" unicode="&#x10f;" horiz-adv-x="766" d="M575 66 L567 66 C527 66 510 78 510 108 C510 118 511 124 512 132 L628 679 L623 679 C598 674 587 673 546 666 L476 655 C424 647 411 645 395 642 L384 590 L387 590 C425 590 439 579 439 551 C439 539 438 533 437 525 L403 366 C377 400 327 419 267 419 C180 419 103 378 53 305 C23 262 2 190 2 130 C2 47 66 -10 161 -10 C222 -10 275 10 337 56 C334 42 332 29 332 18 C332 8 333 2 335 -9 C395 1 463 7 564 11 L575 66 Z M352 124 C319 85 278 64 235 64 C195 64 170 90 170 131 C170 180 188 254 207 289 C228 326 265 348 306 348 C338 348 363 336 390 307 L352 124 Z M625 432 C731 434 813 508 813 604 C813 652 786 679 738 679 C689 679 648 643 648 601 C648 575 669 555 698 555 C703 555 710 556 717 558 C723 559 729 560 733 560 C740 560 745 554 745 546 C745 534 735 517 719 504 C699 486 673 477 634 474 L625 432 Z " />
<glyph glyph-name="Dcroat" unicode="&#x110;" horiz-adv-x="840" d="M137 365 L32 365 L18 301 L123 301 L88 136 C76 78 47 55 -18 55 L-26 55 L-38 0 L213 0 C451 1 491 7 582 54 C717 124 803 261 803 404 C803 504 755 583 669 627 C605 659 505 673 335 673 C290 673 233 672 173 670 L165 670 C153 670 150 670 133 669 C113 668 110 668 104 667 L92 613 L100 613 C151 613 176 597 176 564 C176 555 174 542 172 531 L137 365 Z M311 365 L364 615 C369 616 374 616 380 616 C459 616 496 608 534 583 C584 549 608 500 608 434 C608 357 584 259 550 195 C500 101 430 59 326 59 C285 59 260 78 260 108 C260 117 263 137 267 156 L298 301 L440 301 L454 365 L311 365 Z " />
<glyph glyph-name="dcroat" unicode="&#x111;" horiz-adv-x="646" d="M426 475 L403 366 C377 400 327 419 267 419 C179 419 103 378 53 305 C23 262 2 190 2 130 C2 47 66 -10 161 -10 C222 -10 275 10 337 56 C334 42 332 29 332 18 C332 8 333 2 335 -9 C395 1 463 7 564 11 L575 66 L567 66 C527 66 510 78 510 108 C510 118 511 124 512 132 L585 475 L662 475 L675 537 L598 537 L628 679 L623 679 C598 674 587 673 546 666 L476 655 C424 647 411 645 395 642 L384 590 L387 590 C425 590 439 580 439 551 L439 537 L257 537 L244 475 L426 475 Z M352 124 C319 85 278 64 235 64 C195 64 170 90 170 131 C170 180 188 254 207 289 C228 326 265 348 306 348 C338 348 363 336 390 307 L352 124 Z " />
<glyph glyph-name="Emacron" unicode="&#x112;" horiz-adv-x="705" d="M591 219 C534 100 474 57 371 59 L353 59 C289 59 258 74 258 106 C258 114 260 122 266 154 L301 319 L370 319 C418 319 435 307 435 274 C435 265 434 253 432 243 L431 235 L490 235 L538 461 L478 461 L477 455 C460 394 442 379 380 378 L314 378 L363 608 L496 608 C551 607 570 601 583 581 C598 558 608 529 612 494 L669 494 L696 667 L100 667 L88 613 L102 613 C151 613 176 597 176 564 C176 555 175 543 172 531 L88 136 C77 79 46 55 -17 55 L-30 55 L-42 0 L598 0 L649 219 L591 219 Z M276 818 L263 756 L640 756 L653 818 L276 818 Z " />
<glyph glyph-name="emacron" unicode="&#x113;" horiz-adv-x="542" d="M395 104 C353 64 311 45 268 45 C212 45 179 79 179 138 C179 163 183 189 189 206 L479 206 C484 231 486 246 486 266 C486 360 414 419 298 419 C138 419 6 301 6 157 C6 53 87 -16 211 -16 C295 -16 385 21 438 77 L395 104 Z M200 255 C213 307 220 323 236 342 C246 355 269 365 288 365 C320 365 337 344 337 305 C337 288 335 277 330 256 L200 255 Z M168 591 L155 529 L490 529 L503 591 L168 591 Z " />
<glyph glyph-name="Ebreve" unicode="&#x114;" horiz-adv-x="705" d="M591 219 C534 100 474 57 371 59 L353 59 C289 59 258 74 258 106 C258 114 260 122 266 154 L301 319 L370 319 C418 319 435 307 435 274 C435 265 434 253 432 243 L431 235 L490 235 L538 461 L478 461 L477 455 C460 394 442 379 380 378 L314 378 L363 608 L496 608 C551 607 570 601 583 581 C598 558 608 529 612 494 L669 494 L696 667 L100 667 L88 613 L102 613 C151 613 176 597 176 564 C176 555 175 543 172 531 L88 136 C77 79 46 55 -17 55 L-30 55 L-42 0 L598 0 L649 219 L591 219 Z M281 882 C293 784 357 725 451 725 C541 725 628 785 680 882 L621 882 C589 840 531 815 464 815 C400 815 359 837 341 882 L281 882 Z " />
<glyph glyph-name="ebreve" unicode="&#x115;" horiz-adv-x="542" d="M395 104 C353 64 311 45 268 45 C212 45 179 79 179 138 C179 163 183 189 189 206 L479 206 C484 231 486 246 486 266 C486 360 414 419 298 419 C138 419 6 301 6 157 C6 53 87 -16 211 -16 C295 -16 385 21 438 77 L395 104 Z M200 255 C213 307 220 323 236 342 C246 355 269 365 288 365 C320 365 337 344 337 305 C337 288 335 277 330 256 L200 255 Z M200 647 C196 633 195 623 195 610 C195 533 245 478 314 478 C398 478 479 551 500 647 L467 647 C439 594 394 566 336 566 C275 566 239 595 234 647 L200 647 Z " />
<glyph glyph-name="Edotaccent" unicode="&#x116;" horiz-adv-x="705" d="M591 219 C534 100 474 57 371 59 L353 59 C289 59 258 74 258 106 C258 114 260 122 266 154 L301 319 L370 319 C418 319 435 307 435 274 C435 265 434 253 432 243 L431 235 L490 235 L538 461 L478 461 L477 455 C460 394 442 379 380 378 L314 378 L363 608 L496 608 C551 607 570 601 583 581 C598 558 608 529 612 494 L669 494 L696 667 L100 667 L88 613 L102 613 C151 613 176 597 176 564 C176 555 175 543 172 531 L88 136 C77 79 46 55 -17 55 L-30 55 L-42 0 L598 0 L649 219 L591 219 Z M481 881 C431 881 385 836 385 787 C385 752 411 726 446 726 C496 726 542 771 542 820 C542 855 516 881 481 881 L481 881 Z " />
<glyph glyph-name="edotaccent" unicode="&#x117;" horiz-adv-x="542" d="M395 104 C353 64 311 45 268 45 C212 45 179 79 179 138 C179 163 183 189 189 206 L479 206 C484 231 486 246 486 266 C486 360 414 419 298 419 C138 419 6 301 6 157 C6 53 87 -16 211 -16 C295 -16 385 21 438 77 L395 104 Z M200 255 C213 307 220 323 236 342 C246 355 269 365 288 365 C320 365 337 344 337 305 C337 288 335 277 330 256 L200 255 Z M354 638 C309 638 267 597 267 554 C267 522 291 498 323 498 C368 498 410 539 410 583 C410 614 386 638 354 638 L354 638 Z " />
<glyph glyph-name="Eogonek" unicode="&#x118;" horiz-adv-x="705" d="M598 0 L649 219 L591 219 C534 100 474 57 371 59 L353 59 C289 59 258 74 258 106 C258 114 260 122 266 154 L301 319 L370 319 C418 319 435 307 435 274 C435 265 434 253 432 243 L431 235 L490 235 L538 461 L478 461 L477 455 C460 394 442 379 380 378 L314 378 L363 608 L496 608 C551 607 570 601 583 581 C598 558 608 529 612 494 L669 494 L696 667 L100 667 L88 613 L102 613 C151 613 176 597 176 564 C176 555 175 543 172 531 L88 136 C77 79 46 55 -17 55 L-30 55 L-42 0 L450 0 C370 -35 322 -87 322 -139 C322 -186 368 -219 433 -219 C476 -219 510 -209 562 -180 L550 -150 C528 -158 515 -160 499 -160 C457 -160 430 -139 430 -107 C430 -71 458 -36 516 0 L598 0 Z " />
<glyph glyph-name="eogonek" unicode="&#x119;" horiz-adv-x="542" d="M395 104 C353 64 311 45 268 45 C212 45 179 79 179 138 C179 163 183 189 189 206 L479 206 C484 231 486 246 486 266 C486 360 414 419 298 419 C138 419 6 301 6 157 C6 54 87 -16 208 -16 L219 -16 L222 -16 C175 -47 148 -85 148 -122 C148 -165 190 -196 249 -196 C289 -196 322 -186 368 -160 L357 -132 C337 -139 326 -141 311 -141 C275 -141 251 -122 251 -92 C251 -60 275 -28 321 3 C365 19 414 50 438 77 L395 104 Z M200 255 C213 307 220 323 236 342 C246 355 269 365 288 365 C320 365 337 344 337 305 C337 288 335 277 330 256 L200 255 Z " />
<glyph glyph-name="Ecaron" unicode="&#x11a;" horiz-adv-x="705" d="M591 219 C534 100 474 57 371 59 L353 59 C289 59 258 74 258 106 C258 114 260 122 266 154 L301 319 L370 319 C418 319 435 307 435 274 C435 265 434 253 432 243 L431 235 L490 235 L538 461 L478 461 L477 455 C460 394 442 379 380 378 L314 378 L363 608 L496 608 C551 607 570 601 583 581 C598 558 608 529 612 494 L669 494 L696 667 L100 667 L88 613 L102 613 C151 613 176 597 176 564 C176 555 175 543 172 531 L88 136 C77 79 46 55 -17 55 L-30 55 L-42 0 L598 0 L649 219 L591 219 Z M540 728 L677 887 L639 887 L463 795 L319 887 L281 887 L347 728 L540 728 Z " />
<glyph glyph-name="ecaron" unicode="&#x11b;" horiz-adv-x="542" d="M395 104 C353 64 311 45 268 45 C212 45 179 79 179 138 C179 163 183 189 189 206 L479 206 C484 231 486 246 486 266 C486 360 414 419 298 419 C138 419 6 301 6 157 C6 53 87 -16 211 -16 C295 -16 385 21 438 77 L395 104 Z M200 255 C213 307 220 323 236 342 C246 355 269 365 288 365 C320 365 337 344 337 305 C337 288 335 277 330 256 L200 255 Z M243 654 L202 654 L257 491 L390 491 L507 654 L464 654 L340 570 L243 654 Z " />
<glyph glyph-name="Gcircumflex" unicode="&#x11c;" horiz-adv-x="827" d="M475 308 L464 254 L472 253 C514 249 532 235 532 206 C532 199 532 195 531 190 L525 166 L524 135 C513 86 446 49 369 49 C274 49 223 94 223 180 C223 247 248 365 277 440 C321 555 392 609 497 609 C601 609 659 553 673 439 L727 439 L771 672 L718 672 C711 647 700 626 683 602 C630 654 563 679 481 679 C345 679 216 614 127 502 C67 427 33 337 33 255 C33 94 151 -14 327 -14 C371 -14 412 -8 502 10 C562 22 618 29 655 29 C659 29 665 29 677 28 L706 168 C720 230 730 241 780 252 L791 254 L802 308 L475 308 Z M444 887 L310 728 L348 728 L523 821 L668 728 L706 728 L636 887 L444 887 Z " />
<glyph glyph-name="gcircumflex" unicode="&#x11d;" horiz-adv-x="564" d="M190 -64 L200 -64 L236 -64 L260 -63 C304 -61 345 -70 355 -82 C360 -87 362 -95 362 -103 C362 -161 280 -197 149 -197 C71 -197 24 -175 24 -139 C24 -127 30 -113 40 -101 L43 -97 L44 -96 C26 -88 15 -85 1 -85 C-36 -85 -70 -120 -70 -158 C-70 -218 -1 -249 136 -249 C248 -249 324 -230 382 -188 C434 -149 463 -98 463 -42 C463 35 408 66 271 66 L232 66 L202 65 L161 65 L153 65 C123 65 106 72 106 85 C106 112 143 128 211 128 C297 129 362 147 409 181 C452 213 477 258 477 304 C477 318 475 329 469 345 C480 354 485 356 494 356 C502 356 506 354 515 345 C526 334 532 331 542 331 C568 331 587 354 587 383 C587 406 572 419 544 419 C518 419 496 409 444 376 C410 405 365 418 295 418 C137 418 32 352 32 252 C32 198 63 161 125 144 C37 123 -6 82 -6 20 C-6 -38 53 -64 184 -64 L190 -64 Z M274 365 C308 365 328 346 328 312 C328 277 314 234 295 209 C283 194 262 185 240 185 C203 185 184 205 184 242 C184 315 221 365 273 365 L274 365 Z M421 484 L465 484 L416 647 L284 647 L160 484 L200 484 L332 568 L421 484 Z " />
<glyph glyph-name="Gbreve" unicode="&#x11e;" horiz-adv-x="827" d="M475 308 L464 254 L472 253 C514 249 532 235 532 206 C532 199 532 195 531 190 L525 166 L524 135 C513 86 446 49 369 49 C274 49 223 94 223 180 C223 247 248 365 277 440 C321 555 392 609 497 609 C601 609 659 553 673 439 L727 439 L771 672 L718 672 C711 647 700 626 683 602 C630 654 563 679 481 679 C345 679 216 614 127 502 C67 427 33 337 33 255 C33 94 151 -14 327 -14 C371 -14 412 -8 502 10 C562 22 618 29 655 29 C659 29 665 29 677 28 L706 168 C720 230 730 241 780 252 L791 254 L802 308 L475 308 Z M336 882 C348 784 413 725 506 725 C596 725 683 785 735 882 L677 882 C644 840 586 815 519 815 C455 815 414 837 396 882 L336 882 Z " />
<glyph glyph-name="gbreve" unicode="&#x11f;" horiz-adv-x="564" d="M190 -64 L200 -64 L236 -64 L260 -63 C304 -61 345 -70 355 -82 C360 -87 362 -95 362 -103 C362 -161 280 -197 149 -197 C71 -197 24 -175 24 -139 C24 -127 30 -113 40 -101 L43 -97 L44 -96 C26 -88 15 -85 1 -85 C-36 -85 -70 -120 -70 -158 C-70 -218 -1 -249 136 -249 C248 -249 324 -230 382 -188 C434 -149 463 -98 463 -42 C463 35 408 66 271 66 L232 66 L202 65 L161 65 L153 65 C123 65 106 72 106 85 C106 112 143 128 211 128 C297 129 362 147 409 181 C452 213 477 258 477 304 C477 318 475 329 469 345 C480 354 485 356 494 356 C502 356 506 354 515 345 C526 334 532 331 542 331 C568 331 587 354 587 383 C587 406 572 419 544 419 C518 419 496 409 444 376 C410 405 365 418 295 418 C137 418 32 352 32 252 C32 198 63 161 125 144 C37 123 -6 82 -6 20 C-6 -38 53 -64 184 -64 L190 -64 Z M274 365 C308 365 328 346 328 312 C328 277 314 234 295 209 C283 194 262 185 240 185 C203 185 184 205 184 242 C184 315 221 365 273 365 L274 365 Z M197 647 C194 633 192 622 192 610 C192 581 200 553 217 528 C239 494 270 478 312 478 C396 478 475 551 498 647 L465 647 C436 593 392 566 333 566 C273 566 237 595 231 647 L197 647 Z " />
<glyph glyph-name="Gdotaccent" unicode="&#x120;" horiz-adv-x="827" d="M475 308 L464 254 L472 253 C514 249 532 235 532 206 C532 199 532 195 531 190 L525 166 L524 135 C513 86 446 49 369 49 C274 49 223 94 223 180 C223 247 248 365 277 440 C321 555 392 609 497 609 C601 609 659 553 673 439 L727 439 L771 672 L718 672 C711 647 700 626 683 602 C630 654 563 679 481 679 C345 679 216 614 127 502 C67 427 33 337 33 255 C33 94 151 -14 327 -14 C371 -14 412 -8 502 10 C562 22 618 29 655 29 C659 29 665 29 677 28 L706 168 C720 230 730 241 780 252 L791 254 L802 308 L475 308 Z M530 881 C480 881 434 836 434 787 C434 752 460 726 495 726 C545 726 591 771 591 820 C591 855 565 881 530 881 L530 881 Z " />
<glyph glyph-name="gdotaccent" unicode="&#x121;" horiz-adv-x="564" d="M190 -64 L200 -64 L236 -64 L260 -63 C304 -61 345 -70 355 -82 C360 -87 362 -95 362 -103 C362 -161 280 -197 149 -197 C71 -197 24 -175 24 -139 C24 -127 30 -113 40 -101 L43 -97 L44 -96 C26 -88 15 -85 1 -85 C-36 -85 -70 -120 -70 -158 C-70 -218 -1 -249 136 -249 C248 -249 324 -230 382 -188 C434 -149 463 -98 463 -42 C463 35 408 66 271 66 L232 66 L202 65 L161 65 L153 65 C123 65 106 72 106 85 C106 112 143 128 211 128 C297 129 362 147 409 181 C452 213 477 258 477 304 C477 318 475 329 469 345 C480 354 485 356 494 356 C502 356 506 354 515 345 C526 334 532 331 542 331 C568 331 587 354 587 383 C587 406 572 419 544 419 C518 419 496 409 444 376 C410 405 365 418 295 418 C137 418 32 352 32 252 C32 198 63 161 125 144 C37 123 -6 82 -6 20 C-6 -38 53 -64 184 -64 L190 -64 Z M274 365 C308 365 328 346 328 312 C328 277 314 234 295 209 C283 194 262 185 240 185 C203 185 184 205 184 242 C184 315 221 365 273 365 L274 365 Z M346 638 C301 638 259 597 259 554 C259 522 283 498 315 498 C359 498 401 539 401 583 C401 614 378 638 346 638 L346 638 Z " />
<glyph glyph-name="Gcommaaccent" unicode="&#x122;" horiz-adv-x="827" d="M475 308 L464 254 L472 253 C514 249 532 235 532 206 C532 199 532 195 531 190 L525 166 L524 135 C513 86 446 49 369 49 C274 49 223 94 223 180 C223 247 248 365 277 440 C321 555 392 609 497 609 C601 609 659 553 673 439 L727 439 L771 672 L718 672 C711 647 700 626 683 602 C630 654 563 679 481 679 C345 679 216 614 127 502 C67 427 33 337 33 255 C33 94 151 -14 327 -14 C371 -14 412 -8 502 10 C562 22 618 29 655 29 C659 29 665 29 677 28 L706 168 C720 230 730 241 780 252 L791 254 L802 308 L475 308 Z M189 -339 C246 -337 287 -324 325 -293 C371 -256 399 -198 399 -141 C399 -89 369 -59 318 -59 C264 -59 218 -104 218 -157 C218 -188 240 -212 270 -212 C275 -212 283 -211 291 -209 C295 -208 298 -207 300 -207 L307 -206 C307 -206 307 -205 308 -205 L309 -205 C314 -205 319 -212 319 -218 C319 -231 309 -246 292 -260 C268 -279 241 -288 199 -290 L189 -339 Z " />
<glyph glyph-name="gcommaaccent" unicode="&#x123;" horiz-adv-x="564" d="M190 -64 L200 -64 L236 -64 L260 -63 C304 -61 345 -70 355 -82 C360 -87 362 -95 362 -103 C362 -161 280 -197 149 -197 C71 -197 24 -175 24 -139 C24 -127 30 -113 40 -101 L43 -97 L44 -96 C26 -88 15 -85 1 -85 C-36 -85 -70 -120 -70 -158 C-70 -218 -1 -249 136 -249 C248 -249 324 -230 382 -188 C434 -149 463 -98 463 -42 C463 35 408 66 271 66 L232 66 L202 65 L161 65 L153 65 C123 65 106 72 106 85 C106 112 143 128 211 128 C297 129 362 147 409 181 C452 213 477 258 477 304 C477 318 475 329 469 345 C480 354 485 356 494 356 C502 356 506 354 515 345 C526 334 532 331 542 331 C568 331 587 354 587 383 C587 406 572 419 544 419 C518 419 496 409 444 376 C410 405 365 418 295 418 C137 418 32 352 32 252 C32 198 63 161 125 144 C37 123 -6 82 -6 20 C-6 -38 53 -64 184 -64 L190 -64 Z M274 365 C308 365 328 346 328 312 C328 277 314 234 295 209 C283 194 262 185 240 185 C203 185 184 205 184 242 C184 315 221 365 273 365 L274 365 Z M428 721 C321 719 239 645 239 549 C239 501 266 474 315 474 C364 474 405 510 405 552 C405 578 383 598 355 598 C349 598 342 597 335 595 C329 594 323 593 319 593 C312 593 307 599 307 607 C307 619 317 636 333 649 C353 667 379 676 419 679 L428 721 Z " />
<glyph glyph-name="Hcircumflex" unicode="&#x124;" horiz-adv-x="895" d="M592 319 L553 136 C541 77 513 55 448 55 L438 29 L432 0 L795 0 L807 55 L798 55 C746 55 725 69 725 107 C725 119 726 127 728 136 L811 531 C826 592 850 610 917 612 L926 612 L937 667 L573 667 L562 612 L566 612 C619 612 640 598 640 561 C640 549 639 541 637 531 L605 381 L309 381 L341 531 C354 590 383 612 447 612 L453 612 L465 667 L100 667 L88 612 L96 612 C146 612 170 596 170 562 C170 550 169 541 167 531 L83 136 C72 79 40 55 -22 55 L-30 55 L-42 0 L323 0 L334 55 L329 55 C288 55 273 61 259 83 C254 90 253 95 253 103 C253 110 255 124 257 136 L296 319 L592 319 Z M470 887 L336 728 L375 728 L550 821 L694 728 L732 728 L663 887 L470 887 Z " />
<glyph glyph-name="Hbar" unicode="&#x126;" horiz-adv-x="895" d="M147 435 L83 136 C72 79 40 55 -22 55 L-30 55 L-42 0 L323 0 L334 55 L329 55 C288 55 273 61 259 83 C254 90 253 95 253 103 C253 110 255 124 257 136 L296 319 L592 319 L553 136 C541 77 513 55 448 55 L438 29 L432 0 L795 0 L807 55 L798 55 C746 55 725 69 725 107 C725 119 726 127 728 136 L791 435 L862 435 L875 497 L804 497 L811 531 C826 592 850 610 917 612 L926 612 L937 667 L573 667 L562 612 L566 612 C619 612 640 598 640 561 C640 549 639 541 637 531 L630 497 L334 497 L341 531 C354 590 383 613 447 612 L453 612 L465 667 L100 667 L88 612 L96 612 C146 612 170 596 170 562 C170 550 169 542 167 531 L160 497 L92 497 L79 435 L147 435 Z M321 435 L617 435 L605 381 L309 381 L321 435 Z " />
<glyph glyph-name="hbar" unicode="&#x127;" horiz-adv-x="638" d="M293 537 L323 679 L318 679 C289 672 263 668 224 663 C197 660 158 654 84 640 L73 588 L76 588 C99 588 122 581 129 573 C132 569 134 562 134 553 L134 537 L61 537 L48 475 L121 475 L45 118 C33 68 17 54 -38 52 L-41 52 L-52 0 L235 0 L247 52 L243 52 C214 53 201 66 201 91 C201 98 202 109 204 118 L237 272 C282 316 314 335 345 335 C372 335 387 322 387 296 C387 284 387 280 385 272 L352 118 C341 72 326 57 288 53 L282 52 L271 0 L558 0 L570 52 L565 52 C526 52 511 64 511 94 C511 102 512 110 513 118 L543 255 C548 280 551 303 551 319 C551 379 501 419 427 419 C364 419 307 395 253 348 L280 475 L438 475 L451 537 L293 537 Z " />
<glyph glyph-name="Imacron" unicode="&#x12a;" horiz-adv-x="428" d="M88 612 L97 612 C149 612 171 598 171 564 C171 552 170 542 168 531 L84 136 C72 78 43 55 -22 55 L-30 55 L-42 0 L328 0 L340 55 L329 55 C279 55 254 70 254 101 C254 111 255 124 258 136 L342 531 C355 591 383 613 447 612 L458 612 L470 667 L100 667 L88 612 Z M128 818 L115 756 L492 756 L506 818 L128 818 Z " />
<glyph glyph-name="imacron" unicode="&#x12b;" horiz-adv-x="343" d="M278 419 L272 419 C242 413 241 413 144 398 C58 385 53 384 28 382 L17 330 L29 330 C52 330 74 323 81 314 C84 310 86 303 86 293 C86 286 85 274 82 264 L51 118 C39 67 24 54 -30 52 L-42 52 L-53 0 L263 0 L274 52 L269 52 C227 52 211 64 211 94 C211 100 212 110 214 118 L278 419 Z M63 591 L50 529 L362 529 L375 591 L63 591 Z " />
<glyph glyph-name="ibreve" unicode="&#x12d;" horiz-adv-x="343" d="M277 419 L271 419 C241 413 240 413 143 398 C57 385 52 384 27 382 L16 330 L28 330 C51 330 73 323 80 314 C83 310 85 303 85 293 C85 286 84 274 81 264 L50 118 C38 67 23 54 -31 52 L-43 52 L-54 0 L262 0 L273 52 L268 52 C226 52 210 64 210 94 C210 100 211 110 213 118 L277 419 Z M86 647 C82 633 81 622 81 610 C81 533 131 478 200 478 C284 478 365 551 386 647 L353 647 C325 594 280 566 222 566 C161 566 125 595 120 647 L86 647 Z " />
<glyph glyph-name="Iogonek" unicode="&#x12e;" horiz-adv-x="428" d="M328 0 L340 55 L329 55 C279 55 254 70 254 101 C254 111 255 124 258 136 L342 531 C355 591 383 613 447 612 L458 612 L470 667 L100 667 L88 612 L97 612 C149 612 171 598 171 564 C171 552 170 542 168 531 L84 136 C72 78 43 55 -22 55 L-30 55 L-42 0 L180 0 C100 -35 52 -87 52 -139 C52 -186 98 -219 163 -219 C206 -219 241 -209 293 -180 L281 -150 C258 -158 246 -160 229 -160 C187 -160 160 -139 160 -107 C160 -71 188 -37 247 0 L328 0 Z " />
<glyph glyph-name="iogonek" unicode="&#x12f;" horiz-adv-x="343" d="M262 0 L273 52 L268 52 C226 52 210 64 210 94 C210 100 211 110 213 118 L277 419 L271 419 C241 413 240 413 143 398 C57 385 52 384 27 382 L16 330 L28 330 C51 330 73 323 80 314 C83 310 85 303 85 293 C85 286 84 274 81 264 L50 118 C38 67 23 54 -31 52 L-43 52 L-54 0 L124 0 C58 -33 21 -78 21 -122 C21 -166 62 -196 122 -196 C162 -196 195 -186 242 -160 L231 -132 C210 -139 199 -141 184 -141 C147 -141 124 -122 124 -92 C124 -62 148 -28 190 0 L262 0 Z M256 679 C198 679 146 627 146 571 C146 531 176 501 216 501 C273 501 326 553 326 609 C326 649 296 679 256 679 L256 679 Z " />
<glyph glyph-name="Idotaccent" unicode="&#x130;" horiz-adv-x="428" d="M88 612 L97 612 C149 612 171 598 171 564 C171 552 170 542 168 531 L84 136 C72 78 43 55 -22 55 L-30 55 L-42 0 L328 0 L340 55 L329 55 C279 55 254 70 254 101 C254 111 255 124 258 136 L342 531 C355 591 383 613 447 612 L458 612 L470 667 L100 667 L88 612 Z M331 881 C281 881 235 836 235 787 C235 752 261 726 297 726 C347 726 393 771 393 820 C393 855 367 881 331 881 L331 881 Z " />
<glyph glyph-name="dotlessi" unicode="&#x131;" horiz-adv-x="343" d="M277 419 L271 419 C241 413 240 413 143 398 C57 385 52 384 27 382 L16 330 L28 330 C51 330 73 323 80 314 C83 310 85 303 85 293 C85 286 84 274 81 264 L50 118 C38 67 23 54 -31 52 L-43 52 L-54 0 L262 0 L273 52 L268 52 C226 52 210 64 210 94 C210 100 211 110 213 118 L277 419 Z " />
<glyph glyph-name="Kcommaaccent" unicode="&#x136;" horiz-adv-x="838" d="M305 345 L345 531 C358 591 385 613 450 612 L462 612 L473 667 L100 667 L88 612 L100 612 C152 612 174 598 174 564 C174 555 173 542 170 531 L86 136 C75 78 46 55 -19 55 L-30 55 L-42 0 L322 0 L334 55 L331 55 C281 55 257 70 257 101 C257 113 258 124 261 136 L288 264 L376 327 L471 142 C472 137 475 130 480 121 C488 106 491 97 491 91 C491 66 466 55 412 55 L406 55 L394 0 L796 0 L808 55 L803 55 C740 54 702 86 667 167 L532 440 L608 496 C722 581 777 608 845 612 L853 612 L864 667 L554 667 L543 612 L551 612 C583 612 600 604 600 588 C600 568 578 543 535 511 L305 345 Z M172 -339 C229 -337 270 -324 308 -293 C354 -256 382 -198 382 -140 C382 -89 352 -59 301 -59 C247 -59 201 -104 201 -157 C201 -188 223 -212 252 -212 C258 -212 266 -211 273 -209 C278 -208 281 -207 282 -207 L289 -206 L290 -205 L291 -205 C296 -205 301 -212 301 -218 C301 -231 291 -246 274 -260 C251 -279 224 -288 182 -290 L172 -339 Z " />
<glyph glyph-name="kcommaaccent" unicode="&#x137;" horiz-adv-x="629" d="M371 403 L360 351 L364 351 C387 351 398 347 398 338 C398 334 394 326 392 325 C390 323 389 323 389 322 L391 323 L390 322 C388 321 387 320 387 320 L386 319 C353 299 316 277 275 253 L226 225 L322 679 L317 679 C288 672 262 668 224 663 C194 660 154 653 84 640 L73 588 L78 588 C100 588 122 582 129 573 C133 569 134 563 134 554 C134 546 133 533 130 523 L44 118 C32 68 15 54 -39 52 L-43 52 L-54 0 L238 0 L249 52 L245 52 C214 54 200 66 200 91 C200 98 201 109 203 118 L212 160 L266 190 L322 100 C329 90 333 79 333 74 C333 61 320 52 300 52 L297 52 L286 0 L553 0 L564 52 L559 53 C537 53 526 65 481 137 L400 270 C407 274 414 278 415 279 C418 281 422 284 426 286 L428 288 L431 290 C532 347 539 350 583 351 L586 351 L597 403 L371 403 Z M112 -306 C218 -305 300 -230 300 -134 C300 -86 273 -59 225 -59 C176 -59 135 -95 135 -137 C135 -163 157 -183 185 -183 C190 -183 197 -182 204 -180 C210 -179 217 -178 220 -178 C227 -178 232 -184 232 -192 C232 -204 222 -221 206 -234 C186 -252 160 -261 121 -264 L112 -306 Z " />
<glyph glyph-name="Lacute" unicode="&#x139;" horiz-adv-x="684" d="M646 222 L591 222 C540 110 469 60 365 60 L351 60 C285 60 256 74 256 107 C256 114 258 128 263 150 L344 531 C357 591 385 613 449 612 L463 612 L475 667 L100 667 L88 612 L99 612 C151 612 173 598 173 564 C173 553 172 542 169 531 L86 136 C74 78 45 55 -20 55 L-30 55 L-42 0 L596 0 L646 222 Z M281 732 L320 732 L611 880 L614 892 L414 892 L281 732 Z " />
<glyph glyph-name="lacute" unicode="&#x13a;" horiz-adv-x="342" d="M323 679 L317 679 C287 673 266 669 207 660 C186 656 182 656 142 649 L132 648 C116 645 108 644 84 640 L73 588 L78 588 C101 588 122 582 129 573 C132 569 134 563 134 554 C134 542 133 533 131 522 L45 118 C33 67 16 54 -38 52 L-42 52 L-53 0 L255 0 L266 52 L261 52 C219 52 201 64 201 93 C201 99 202 109 204 118 L323 679 Z M196 732 L235 732 L526 880 L528 892 L329 892 L196 732 Z " />
<glyph glyph-name="Lcommaaccent" unicode="&#x13b;" horiz-adv-x="684" d="M646 222 L591 222 C540 110 469 60 365 60 L351 60 C285 60 256 74 256 107 C256 114 258 128 263 150 L344 531 C357 591 385 613 449 612 L463 612 L475 667 L100 667 L88 612 L99 612 C151 612 173 598 173 564 C173 553 172 542 169 531 L86 136 C74 78 45 55 -20 55 L-30 55 L-42 0 L596 0 L646 222 Z M134 -339 C192 -337 232 -324 270 -293 C317 -256 345 -198 345 -140 C345 -89 315 -59 263 -59 C209 -59 163 -104 163 -157 C163 -188 185 -212 215 -212 C221 -212 228 -211 236 -209 C240 -208 243 -207 245 -207 L252 -206 L253 -205 L254 -205 C259 -205 264 -211 264 -218 C264 -231 254 -246 237 -260 C213 -279 186 -288 145 -290 L134 -339 Z " />
<glyph glyph-name="lcommaaccent" unicode="&#x13c;" horiz-adv-x="342" d="M323 679 L317 679 C287 673 266 669 207 660 C186 656 182 656 142 649 L132 648 C116 645 108 644 84 640 L73 588 L78 588 C101 588 122 582 129 573 C132 569 134 563 134 554 C134 542 133 533 131 522 L45 118 C33 67 16 54 -38 52 L-42 52 L-53 0 L255 0 L266 52 L261 52 C219 52 201 64 201 93 C201 99 202 109 204 118 L323 679 Z M-35 -306 C72 -305 154 -230 154 -134 C154 -86 127 -59 78 -59 C30 -59 -12 -95 -12 -137 C-12 -163 10 -183 38 -183 C43 -183 50 -182 57 -180 C63 -179 70 -178 73 -178 C80 -178 85 -184 85 -192 C85 -204 75 -221 59 -234 C39 -252 13 -261 -26 -264 L-35 -306 Z " />
<glyph glyph-name="Lcaron" unicode="&#x13d;" horiz-adv-x="684" d="M646 222 L591 222 C540 110 469 60 365 60 L351 60 C285 60 256 74 256 107 C256 114 258 128 263 150 L344 531 C357 591 385 613 449 612 L463 612 L475 667 L100 667 L88 612 L99 612 C151 612 173 598 173 564 C173 553 172 542 169 531 L86 136 C74 78 45 55 -20 55 L-30 55 L-42 0 L596 0 L646 222 Z M455 388 C512 389 553 403 590 433 C637 470 665 528 665 586 C665 637 635 667 584 667 C530 667 484 622 484 569 C484 539 506 515 535 515 C541 515 549 516 556 518 C560 519 563 519 565 520 L572 520 L573 521 L574 521 C579 521 584 514 584 508 C584 495 574 480 557 466 C533 447 507 438 465 436 L455 388 Z " />
<glyph glyph-name="lcaron" unicode="&#x13e;" horiz-adv-x="468" d="M323 679 L317 679 C287 673 266 669 207 660 C186 656 182 656 142 649 L132 648 C116 645 108 644 84 640 L73 588 L78 588 C101 588 122 582 129 573 C132 569 134 563 134 554 C134 542 133 533 131 522 L45 118 C33 67 16 54 -38 52 L-42 52 L-53 0 L255 0 L266 52 L261 52 C219 52 201 64 201 93 C201 99 202 109 204 118 L323 679 Z M327 432 C433 434 515 508 515 604 C515 652 488 679 440 679 C391 679 350 643 350 601 C350 575 371 555 400 555 C405 555 412 556 419 558 C425 559 432 560 435 560 C442 560 447 554 447 546 C447 534 437 517 421 504 C401 486 375 477 335 474 L327 432 Z " />
<glyph glyph-name="Ldot" unicode="&#x13f;" horiz-adv-x="684" d="M646 222 L591 222 C540 110 469 60 365 60 L351 60 C285 60 256 74 256 107 C256 114 258 128 263 150 L344 531 C357 591 385 613 449 612 L463 612 L475 667 L100 667 L88 612 L99 612 C151 612 173 598 173 564 C173 553 172 542 169 531 L86 136 C74 78 45 55 -20 55 L-30 55 L-42 0 L596 0 L646 222 Z M458 405 C413 405 371 364 371 321 C371 289 395 265 427 265 C471 265 513 306 513 350 C513 381 489 405 458 405 L458 405 Z " />
<glyph glyph-name="ldot" unicode="&#x140;" horiz-adv-x="430" d="M323 679 L317 679 C287 673 266 669 207 660 C186 656 182 656 142 649 L132 648 C116 645 108 644 84 640 L73 588 L78 588 C101 588 122 582 129 573 C132 569 134 563 134 554 C134 542 133 533 131 522 L45 118 C33 67 16 54 -38 52 L-42 52 L-53 0 L255 0 L266 52 L261 52 C219 52 201 64 201 93 C201 99 202 109 204 118 L323 679 Z M377 407 C332 407 290 366 290 323 C290 291 314 267 346 267 C391 267 433 308 433 352 C433 383 409 407 377 407 L377 407 Z " />
<glyph glyph-name="Lslash" unicode="&#x141;" horiz-adv-x="684" d="M-30 55 L-42 0 L596 0 L646 222 L591 222 C543 113 467 58 365 60 L351 60 C285 60 256 74 256 107 C256 114 258 128 263 150 L301 331 L449 407 L463 473 L315 397 L344 531 C357 591 385 613 449 612 L463 612 L475 667 L100 667 L88 612 L99 612 C151 612 173 598 173 564 C173 553 172 542 169 531 L120 296 L16 243 L2 178 L106 231 L86 136 C74 78 45 55 -20 55 L-30 55 Z " />
<glyph glyph-name="lslash" unicode="&#x142;" horiz-adv-x="342" d="M247 322 L342 377 L355 439 L260 384 L323 679 L317 679 C287 673 266 669 207 660 C186 656 182 656 142 649 L132 648 C116 645 108 644 84 640 L73 588 L78 588 C101 588 122 582 129 573 C132 569 134 563 134 554 C134 542 133 533 131 522 L79 278 L-5 229 L-18 168 L66 217 L45 118 C33 67 16 54 -38 52 L-42 52 L-53 0 L255 0 L266 52 L261 52 C219 52 201 64 201 93 C201 99 202 109 204 118 L247 322 Z " />
<glyph glyph-name="Nacute" unicode="&#x143;" horiz-adv-x="824" d="M643 -11 L752 501 C764 570 792 601 854 612 L861 612 L873 667 L631 667 L619 612 L625 612 C665 612 695 586 695 550 C695 537 693 521 689 503 L637 259 L335 667 L98 667 L86 612 L91 612 C144 612 170 588 170 539 C170 526 169 520 167 511 L95 170 C85 123 81 111 71 99 C52 74 9 54 -24 55 L-28 55 L-40 0 L224 0 L236 55 L222 55 C184 54 150 83 150 116 C150 125 154 149 158 171 L223 477 L580 -11 L643 -11 Z M463 732 L503 732 L794 880 L796 892 L597 892 L463 732 Z " />
<glyph glyph-name="nacute" unicode="&#x144;" horiz-adv-x="639" d="M256 408 C228 402 208 399 179 395 C147 391 105 384 28 372 L17 320 L21 320 C61 320 79 306 79 276 C79 269 79 265 78 260 L47 118 C36 68 19 54 -36 52 L-38 52 L-49 0 L238 0 L249 52 L245 52 C216 53 203 66 203 91 C203 98 204 109 206 118 L239 273 C289 318 319 335 347 335 C376 335 391 321 391 296 C391 292 390 286 389 281 L355 118 C344 72 329 57 290 53 L284 52 L273 0 L560 0 L571 52 L567 52 C528 52 513 64 513 94 C513 100 514 110 516 118 L546 258 C551 285 554 304 554 319 C554 379 505 419 431 419 C370 419 311 395 259 350 C262 368 263 381 263 392 C263 399 263 401 261 408 L256 408 Z M307 486 L350 486 L582 632 L584 643 L406 643 L307 486 Z " />
<glyph glyph-name="Ncommaaccent" unicode="&#x145;" horiz-adv-x="824" d="M643 -11 L752 501 C764 570 792 601 854 612 L861 612 L873 667 L631 667 L619 612 L625 612 C665 612 695 586 695 550 C695 537 693 521 689 503 L637 259 L335 667 L98 667 L86 612 L91 612 C144 612 170 588 170 539 C170 526 169 520 167 511 L95 170 C85 123 81 111 71 99 C52 74 9 54 -24 55 L-28 55 L-40 0 L224 0 L236 55 L222 55 C184 54 150 83 150 116 C150 125 154 149 158 171 L223 477 L580 -11 L643 -11 Z M199 -339 C257 -337 297 -324 335 -293 C382 -256 410 -198 410 -140 C410 -89 380 -59 328 -59 C274 -59 228 -104 228 -157 C228 -188 250 -212 280 -212 C286 -212 293 -211 301 -209 C305 -208 308 -207 310 -207 L317 -206 L318 -205 L319 -205 C324 -205 329 -211 329 -218 C329 -231 319 -246 302 -260 C278 -279 251 -288 210 -290 L199 -339 Z " />
<glyph glyph-name="ncommaaccent" unicode="&#x146;" horiz-adv-x="639" d="M256 408 C228 402 208 399 179 395 C147 391 105 384 28 372 L17 320 L21 320 C61 320 79 306 79 276 C79 269 79 265 78 260 L47 118 C36 68 19 54 -36 52 L-38 52 L-49 0 L238 0 L249 52 L245 52 C216 53 203 66 203 91 C203 98 204 109 206 118 L239 273 C289 318 319 335 347 335 C376 335 391 321 391 296 C391 292 390 286 389 281 L355 118 C344 72 329 57 290 53 L284 52 L273 0 L560 0 L571 52 L567 52 C528 52 513 64 513 94 C513 100 514 110 516 118 L546 258 C551 285 554 304 554 319 C554 379 505 419 431 419 C370 419 311 395 259 350 C262 368 263 381 263 392 C263 399 263 401 261 408 L256 408 Z M125 -306 C232 -305 314 -230 314 -134 C314 -86 287 -59 238 -59 C190 -59 148 -95 148 -137 C148 -163 170 -183 198 -183 C203 -183 210 -182 217 -180 C223 -179 230 -178 233 -178 C240 -178 245 -184 245 -192 C245 -204 235 -221 219 -234 C199 -252 173 -261 134 -264 L125 -306 Z " />
<glyph glyph-name="Ncaron" unicode="&#x147;" horiz-adv-x="824" d="M643 -11 L752 501 C764 570 792 601 854 612 L861 612 L873 667 L631 667 L619 612 L625 612 C665 612 695 586 695 550 C695 537 693 521 689 503 L637 259 L335 667 L98 667 L86 612 L91 612 C144 612 170 588 170 539 C170 526 169 520 167 511 L95 170 C85 123 81 111 71 99 C52 74 9 54 -24 55 L-28 55 L-40 0 L224 0 L236 55 L222 55 C184 54 150 83 150 116 C150 125 154 149 158 171 L223 477 L580 -11 L643 -11 Z M601 728 L738 887 L700 887 L524 795 L381 887 L342 887 L408 728 L601 728 Z " />
<glyph glyph-name="ncaron" unicode="&#x148;" horiz-adv-x="639" d="M256 408 C228 402 208 399 179 395 C147 391 105 384 28 372 L17 320 L21 320 C61 320 79 306 79 276 C79 269 79 265 78 260 L47 118 C36 68 19 54 -36 52 L-38 52 L-49 0 L238 0 L249 52 L245 52 C216 53 203 66 203 91 C203 98 204 109 206 118 L239 273 C289 318 319 335 347 335 C376 335 391 321 391 296 C391 292 390 286 389 281 L355 118 C344 72 329 57 290 53 L284 52 L273 0 L560 0 L571 52 L567 52 C528 52 513 64 513 94 C513 100 514 110 516 118 L546 258 C551 285 554 304 554 319 C554 379 505 419 431 419 C370 419 311 395 259 350 C262 368 263 381 263 392 C263 399 263 401 261 408 L256 408 Z M283 654 L243 654 L298 491 L431 491 L548 654 L505 654 L380 570 L283 654 Z " />
<glyph glyph-name="Omacron" unicode="&#x14c;" horiz-adv-x="870" d="M516 679 C374 679 249 630 160 541 C82 462 35 356 35 260 C35 170 77 86 142 44 C201 6 278 -14 364 -14 C496 -14 612 30 701 114 C785 193 834 300 834 402 C834 570 709 679 516 679 L516 679 Z M497 615 C562 615 607 588 626 538 C633 519 636 498 636 469 C636 342 597 201 541 125 C508 81 443 50 380 50 C286 50 233 105 233 203 C233 295 271 440 314 512 C355 580 417 615 497 615 L497 615 Z M350 818 L337 756 L714 756 L727 818 L350 818 Z " />
<glyph glyph-name="omacron" unicode="&#x14d;" horiz-adv-x="594" d="M316 419 C141 419 5 302 5 152 C5 117 14 87 32 62 C66 15 140 -16 220 -16 C394 -16 532 102 532 251 C532 285 524 313 506 338 C471 387 396 419 316 419 L316 419 Z M304 364 C348 364 372 340 372 298 C372 261 356 182 337 125 C318 67 284 38 236 38 C193 38 166 66 166 108 C166 141 180 224 193 264 C216 336 247 364 304 364 L304 364 Z M184 591 L171 529 L506 529 L519 591 L184 591 Z " />
<glyph glyph-name="Ohungarumlaut" unicode="&#x150;" horiz-adv-x="870" d="M516 679 C374 679 249 630 160 541 C82 462 35 356 35 260 C35 170 77 86 142 44 C201 6 278 -14 364 -14 C496 -14 612 30 701 114 C785 193 834 300 834 402 C834 570 709 679 516 679 L516 679 Z M497 615 C562 615 607 588 626 538 C633 519 636 498 636 469 C636 342 597 201 541 125 C508 81 443 50 380 50 C286 50 233 105 233 203 C233 295 271 440 314 512 C355 580 417 615 497 615 L497 615 Z M379 732 L419 732 L673 880 L675 892 L513 892 L379 732 Z M607 732 L647 732 L900 880 L903 892 L741 892 L607 732 Z " />
<glyph glyph-name="ohungarumlaut" unicode="&#x151;" horiz-adv-x="594" d="M316 419 C141 419 5 302 5 152 C5 117 14 87 32 62 C66 15 140 -16 220 -16 C394 -16 532 102 532 251 C532 285 524 313 506 338 C471 387 396 419 316 419 L316 419 Z M304 364 C348 364 372 340 372 298 C372 261 356 182 337 125 C318 67 284 38 236 38 C193 38 166 66 166 108 C166 141 180 224 193 264 C216 336 247 364 304 364 L304 364 Z M208 486 L251 486 L446 632 L448 643 L307 643 L208 486 Z M398 486 L441 486 L636 632 L638 643 L498 643 L398 486 Z " />
<glyph glyph-name="OE" unicode="&#x152;" horiz-adv-x="1049" d="M997 219 L940 219 C886 110 820 60 727 60 L718 60 L702 60 L690 61 C647 65 632 75 632 100 C632 106 633 116 635 124 L639 142 L677 318 L738 318 C781 318 795 305 795 268 C795 258 795 252 793 245 L792 235 L851 235 L899 461 L840 461 L837 451 C820 395 801 379 753 378 L689 378 L738 608 L839 608 C922 612 945 590 959 492 L1018 492 L1044 667 L619 667 L582 667 L581 667 L572 667 L537 667 C525 668 524 668 516 668 C376 668 288 643 207 581 C103 501 38 377 38 258 C38 204 53 152 80 110 C126 38 220 0 351 0 L368 0 C392 0 400 0 416 1 L450 1 L484 1 L453 0 L945 0 L997 219 Z M468 155 C459 113 453 98 443 86 C431 71 402 61 371 61 C283 61 230 122 230 224 C230 309 254 405 293 475 C341 562 408 607 488 607 C531 607 551 593 551 563 C551 553 549 540 547 527 L468 155 Z " />
<glyph glyph-name="oe" unicode="&#x153;" horiz-adv-x="849" d="M702 104 C662 65 619 45 577 45 C525 45 495 78 495 136 C495 162 499 190 505 206 L786 206 C791 230 793 244 793 263 C793 357 720 419 611 419 C556 419 507 403 458 369 C420 401 366 419 305 419 C143 419 5 296 5 151 C5 53 92 -16 217 -16 C279 -16 334 1 388 37 C418 5 468 -16 517 -16 C601 -16 691 20 744 75 L702 104 Z M516 255 C535 332 560 364 603 364 C632 364 648 344 648 307 C648 291 647 278 643 255 L516 255 Z M299 363 C341 363 364 341 364 301 C364 252 343 155 321 102 C305 63 269 37 231 37 C190 37 166 63 166 107 C166 130 172 169 182 217 C204 322 237 363 299 363 L299 363 Z " />
<glyph glyph-name="Racute" unicode="&#x154;" horiz-adv-x="776" d="M735 0 L746 55 L740 55 C698 56 668 91 628 185 C600 253 567 306 541 326 C653 359 721 433 721 522 C721 579 689 623 631 647 C595 661 502 669 369 669 C336 669 302 669 292 668 L277 668 L100 667 L88 612 L103 612 C155 612 177 598 177 564 C177 555 175 542 173 531 L89 136 C78 78 49 55 -16 55 L-30 55 L-42 0 L335 0 L347 55 L334 55 C285 55 260 71 260 101 C260 115 261 124 263 136 L297 294 L307 294 C377 298 403 275 437 177 C466 98 500 21 516 0 L735 0 Z M310 354 L363 606 L390 606 C463 606 495 598 519 571 C532 556 538 541 538 519 C538 469 516 415 484 388 C456 363 418 354 344 354 L310 354 Z M395 732 L434 732 L725 880 L728 892 L528 892 L395 732 Z " />
<glyph glyph-name="racute" unicode="&#x155;" horiz-adv-x="498" d="M236 416 L173 404 L97 389 L38 378 L29 376 L17 324 L22 324 C64 324 80 312 80 282 C80 274 79 266 77 258 L48 118 C36 68 19 54 -34 52 L-39 52 L-50 0 L263 0 L274 52 L264 52 C222 52 205 64 205 94 C205 105 205 110 207 118 L216 162 C239 269 271 318 319 318 C333 318 345 311 355 298 C376 270 383 265 408 265 C455 265 494 305 494 353 C494 393 465 419 421 419 C358 419 296 384 243 318 C249 348 251 370 251 391 C251 402 251 407 249 419 L236 416 Z M246 486 L288 486 L521 632 L523 643 L345 643 L246 486 Z " />
<glyph glyph-name="Rcommaaccent" unicode="&#x156;" horiz-adv-x="776" d="M735 0 L746 55 L740 55 C698 56 668 91 628 185 C600 253 567 306 541 326 C653 359 721 433 721 522 C721 579 689 623 631 647 C595 661 502 669 369 669 C336 669 302 669 292 668 L277 668 L100 667 L88 612 L103 612 C155 612 177 598 177 564 C177 555 175 542 173 531 L89 136 C78 78 49 55 -16 55 L-30 55 L-42 0 L335 0 L347 55 L334 55 C285 55 260 71 260 101 C260 115 261 124 263 136 L297 294 L307 294 C377 298 403 275 437 177 C466 98 500 21 516 0 L735 0 Z M310 354 L363 606 L390 606 C463 606 495 598 519 571 C532 556 538 541 538 519 C538 469 516 415 484 388 C456 363 418 354 344 354 L310 354 Z M175 -339 C232 -337 272 -324 310 -293 C357 -256 385 -198 385 -140 C385 -89 355 -59 304 -59 C250 -59 204 -104 204 -157 C204 -188 226 -212 255 -212 C261 -212 269 -211 276 -209 C281 -208 284 -207 285 -207 L292 -206 L293 -205 L294 -205 C299 -205 304 -212 304 -218 C304 -231 294 -246 277 -260 C253 -279 227 -288 185 -290 L175 -339 Z " />
<glyph glyph-name="rcommaaccent" unicode="&#x157;" horiz-adv-x="498" d="M236 416 L173 404 L97 389 L38 378 L29 376 L17 324 L22 324 C64 324 80 312 80 282 C80 274 79 266 77 258 L48 118 C36 68 19 54 -34 52 L-39 52 L-50 0 L263 0 L274 52 L264 52 C222 52 205 64 205 94 C205 105 205 110 207 118 L216 162 C239 269 271 318 319 318 C333 318 345 311 355 298 C376 270 383 265 408 265 C455 265 494 305 494 353 C494 393 465 419 421 419 C358 419 296 384 243 318 C249 348 251 370 251 391 C251 402 251 407 249 419 L236 416 Z M-18 -306 C88 -305 170 -230 170 -134 C170 -86 143 -59 95 -59 C46 -59 5 -95 5 -137 C5 -163 27 -183 55 -183 C60 -183 67 -182 74 -180 C80 -179 87 -178 90 -178 C97 -178 102 -184 102 -192 C102 -204 92 -221 76 -234 C56 -252 30 -261 -9 -264 L-18 -306 Z " />
<glyph glyph-name="Rcaron" unicode="&#x158;" horiz-adv-x="776" d="M735 0 L746 55 L740 55 C698 56 668 91 628 185 C600 253 567 306 541 326 C653 359 721 433 721 522 C721 579 689 623 631 647 C595 661 502 669 369 669 C336 669 302 669 292 668 L277 668 L100 667 L88 612 L103 612 C155 612 177 598 177 564 C177 555 175 542 173 531 L89 136 C78 78 49 55 -16 55 L-30 55 L-42 0 L335 0 L347 55 L334 55 C285 55 260 71 260 101 C260 115 261 124 263 136 L297 294 L307 294 C377 298 403 275 437 177 C466 98 500 21 516 0 L735 0 Z M310 354 L363 606 L390 606 C463 606 495 598 519 571 C532 556 538 541 538 519 C538 469 516 415 484 388 C456 363 418 354 344 354 L310 354 Z M549 728 L686 887 L648 887 L472 795 L329 887 L290 887 L356 728 L549 728 Z " />
<glyph glyph-name="rcaron" unicode="&#x159;" horiz-adv-x="498" d="M236 416 L173 404 L97 389 L38 378 L29 376 L17 324 L22 324 C64 324 80 312 80 282 C80 274 79 266 77 258 L48 118 C36 68 19 54 -34 52 L-39 52 L-50 0 L263 0 L274 52 L264 52 C222 52 205 64 205 94 C205 105 205 110 207 118 L216 162 C239 269 271 318 319 318 C333 318 345 311 355 298 C376 270 383 265 408 265 C455 265 494 305 494 353 C494 393 465 419 421 419 C358 419 296 384 243 318 C249 348 251 370 251 391 C251 402 251 407 249 419 L236 416 Z M199 654 L159 654 L214 491 L346 491 L464 654 L421 654 L296 570 L199 654 Z " />
<glyph glyph-name="Sacute" unicode="&#x15a;" horiz-adv-x="595" d="M-10 11 L52 11 C61 34 69 49 81 65 C114 16 179 -14 254 -14 C402 -14 534 102 534 231 C534 316 479 372 341 429 C265 460 234 489 234 528 C234 579 282 620 343 620 C417 620 468 561 472 470 L530 470 L572 667 L512 667 L510 663 L507 656 C501 642 495 632 486 622 C455 657 403 679 347 679 C209 679 85 566 85 441 C85 370 133 314 231 269 C302 236 356 199 366 176 C371 165 373 156 373 147 C373 95 316 49 251 49 C193 49 147 79 121 134 C110 160 104 188 101 239 L38 239 L-10 11 Z M324 732 L364 732 L654 880 L657 892 L457 892 L324 732 Z " />
<glyph glyph-name="sacute" unicode="&#x15b;" horiz-adv-x="481" d="M-29 -12 L17 -12 C25 0 33 8 44 15 C50 13 51 13 58 10 C103 -9 137 -16 179 -16 C262 -16 326 10 366 61 C390 90 403 126 403 158 C403 184 395 206 378 225 C354 253 304 272 223 284 C177 291 149 308 149 328 C149 355 185 374 234 374 C304 374 349 344 358 292 L404 292 L430 415 L388 415 C378 403 371 397 362 391 C312 411 273 420 228 420 C122 420 29 345 29 261 C29 237 38 213 52 200 C86 169 110 159 220 133 C258 123 276 109 276 90 C276 59 231 35 174 35 C105 35 60 67 51 123 L0 123 L-29 -12 Z M220 486 L262 486 L495 632 L497 643 L319 643 L220 486 Z " />
<glyph glyph-name="Scircumflex" unicode="&#x15c;" horiz-adv-x="595" d="M-10 11 L52 11 C61 34 69 49 81 65 C114 16 179 -14 254 -14 C402 -14 534 102 534 231 C534 316 479 372 341 429 C265 460 234 489 234 528 C234 579 282 620 343 620 C417 620 468 561 472 470 L530 470 L572 667 L512 667 L510 663 L507 656 C501 642 495 632 486 622 C455 657 403 679 347 679 C209 679 85 566 85 441 C85 370 133 314 231 269 C302 236 356 199 366 176 C371 165 373 156 373 147 C373 95 316 49 251 49 C193 49 147 79 121 134 C110 160 104 188 101 239 L38 239 L-10 11 Z M331 887 L197 728 L236 728 L411 821 L555 728 L593 728 L524 887 L331 887 Z " />
<glyph glyph-name="scircumflex" unicode="&#x15d;" horiz-adv-x="481" d="M-29 -12 L17 -12 C25 0 33 8 44 15 C50 13 51 13 58 10 C103 -9 137 -16 179 -16 C262 -16 326 10 366 61 C390 90 403 126 403 158 C403 184 395 206 378 225 C354 253 304 272 223 284 C177 291 149 308 149 328 C149 355 185 374 234 374 C304 374 349 344 358 292 L404 292 L430 415 L388 415 C378 403 371 397 362 391 C312 411 273 420 228 420 C122 420 29 345 29 261 C29 237 38 213 52 200 C86 169 110 159 220 133 C258 123 276 109 276 90 C276 59 231 35 174 35 C105 35 60 67 51 123 L0 123 L-29 -12 Z M396 484 L440 484 L391 647 L259 647 L135 484 L175 484 L307 568 L396 484 Z " />
<glyph glyph-name="Scedilla" unicode="&#x15e;" horiz-adv-x="595" d="M530 470 L572 667 L512 667 L510 663 L507 656 C501 642 495 632 486 622 C455 657 403 679 347 679 C209 679 85 566 85 441 C85 370 133 314 231 269 C302 236 356 199 366 176 C371 165 373 156 373 147 C373 95 316 49 251 49 C193 49 147 79 121 134 C110 160 104 188 101 239 L38 239 L-10 11 L52 11 C61 34 69 49 81 65 C104 29 152 0 206 -10 C192 -53 180 -82 162 -114 C196 -116 217 -129 217 -149 C217 -173 194 -188 157 -188 C129 -188 107 -185 75 -177 C67 -202 66 -205 56 -227 C80 -236 106 -240 137 -240 C253 -240 331 -192 331 -122 C331 -79 303 -54 248 -49 C256 -30 258 -27 262 -14 C408 -8 534 105 534 232 C534 316 479 373 341 429 C265 460 234 489 234 528 C234 579 282 620 343 620 C417 620 468 561 472 470 L530 470 Z " />
<glyph glyph-name="scedilla" unicode="&#x15f;" horiz-adv-x="481" d="M404 292 L430 415 L388 415 C378 403 371 397 362 391 C312 411 273 420 228 420 C122 420 29 345 29 260 C29 237 38 213 52 200 C86 168 109 159 220 132 C258 123 276 109 276 89 C276 58 231 34 174 34 C105 34 60 66 51 123 L0 123 L-29 -12 L17 -12 C25 0 33 8 44 15 C50 13 51 13 58 10 C90 -3 120 -12 144 -14 C134 -50 124 -75 110 -103 C135 -104 149 -115 149 -133 C149 -155 131 -169 103 -169 C83 -169 67 -167 42 -160 C35 -182 34 -185 26 -205 C44 -213 62 -216 89 -216 C175 -216 236 -170 236 -107 C236 -69 216 -49 176 -44 C182 -29 184 -24 186 -16 C246 -15 300 1 335 29 C377 62 403 112 403 158 C403 184 395 206 378 225 C354 253 303 272 223 284 C177 291 149 308 149 328 C149 355 185 374 234 374 C304 374 349 344 358 292 L404 292 Z " />
<glyph glyph-name="Scaron" unicode="&#x160;" horiz-adv-x="595" d="M-10 11 L52 11 C61 34 69 49 81 65 C114 16 179 -14 254 -14 C402 -14 534 102 534 231 C534 316 479 372 341 429 C265 460 234 489 234 528 C234 579 282 620 343 620 C417 620 468 561 472 470 L530 470 L572 667 L512 667 L510 663 L507 656 C501 642 495 632 486 622 C455 657 403 679 347 679 C209 679 85 566 85 441 C85 370 133 314 231 269 C302 236 356 199 366 176 C371 165 373 156 373 147 C373 95 316 49 251 49 C193 49 147 79 121 134 C110 160 104 188 101 239 L38 239 L-10 11 Z M483 728 L620 887 L582 887 L406 795 L262 887 L224 887 L290 728 L483 728 Z " />
<glyph glyph-name="scaron" unicode="&#x161;" horiz-adv-x="481" d="M-29 -12 L17 -12 C25 0 33 8 44 15 C50 13 51 13 58 10 C103 -9 137 -16 179 -16 C262 -16 326 10 366 61 C390 90 403 126 403 158 C403 184 395 206 378 225 C354 253 304 272 223 284 C177 291 149 308 149 328 C149 355 185 374 234 374 C304 374 349 344 358 292 L404 292 L430 415 L388 415 C378 403 371 397 362 391 C312 411 273 420 228 420 C122 420 29 345 29 261 C29 237 38 213 52 200 C86 169 110 159 220 133 C258 123 276 109 276 90 C276 59 231 35 174 35 C105 35 60 67 51 123 L0 123 L-29 -12 Z M200 654 L160 654 L215 491 L347 491 L465 654 L422 654 L297 570 L200 654 Z " />
<glyph glyph-name="Tcommaaccent" unicode="&#x162;" horiz-adv-x="731" d="M103 477 C144 585 173 607 272 608 L334 608 L234 136 C223 81 188 54 129 55 L111 55 L99 0 L486 0 L498 55 L479 55 C432 55 404 73 404 105 C404 113 406 125 408 136 L508 608 L571 608 C661 608 682 584 687 477 L746 477 L786 667 L85 667 L45 477 L103 477 Z M143 -339 C200 -337 241 -324 279 -293 C325 -256 353 -198 353 -141 C353 -89 323 -59 272 -59 C218 -59 172 -104 172 -157 C172 -188 194 -212 224 -212 C229 -212 237 -211 245 -209 C249 -208 252 -207 254 -207 L261 -206 L262 -205 L263 -205 C268 -205 273 -212 273 -218 C273 -231 263 -246 246 -260 C222 -279 195 -288 154 -290 L143 -339 Z " />
<glyph glyph-name="tcommaaccent" unicode="&#x163;" horiz-adv-x="377" d="M370 349 L381 403 L254 403 L282 536 L227 536 C198 458 120 402 41 402 C39 402 32 402 26 403 L14 349 L76 349 L26 115 C23 99 21 85 21 77 C21 20 67 -16 142 -16 C222 -16 291 19 328 78 L280 94 C259 64 240 52 216 52 C200 52 188 64 188 81 L188 86 L189 95 C189 98 193 115 198 140 L242 349 L370 349 Z M-6 -306 C101 -305 183 -230 183 -134 C183 -86 156 -59 107 -59 C58 -59 17 -95 17 -137 C17 -163 38 -183 67 -183 C72 -183 79 -182 86 -180 C92 -179 99 -178 102 -178 C109 -178 114 -184 114 -192 C114 -204 104 -221 88 -234 C68 -252 42 -261 3 -264 L-6 -306 Z " />
<glyph glyph-name="Tcaron" unicode="&#x164;" horiz-adv-x="731" d="M103 477 C144 585 173 607 272 608 L334 608 L234 136 C223 81 188 54 129 55 L111 55 L99 0 L486 0 L498 55 L479 55 C432 55 404 73 404 105 C404 113 406 125 408 136 L508 608 L571 608 C661 608 682 584 687 477 L746 477 L786 667 L85 667 L45 477 L103 477 Z M541 728 L678 887 L640 887 L464 795 L320 887 L282 887 L348 728 L541 728 Z " />
<glyph glyph-name="tcaron" unicode="&#x165;" horiz-adv-x="451" d="M371 349 L382 403 L255 403 L283 536 L228 536 C199 458 121 402 41 402 C39 402 33 402 26 403 L15 349 L77 349 L27 115 C24 100 22 85 22 77 C22 20 68 -16 142 -16 C223 -16 291 18 328 78 L281 94 C259 64 242 53 218 53 C200 53 189 64 189 82 C189 92 191 107 199 140 L243 349 L371 349 Z M317 466 C424 467 506 541 506 637 C506 685 479 712 430 712 C381 712 340 676 340 635 C340 609 362 589 390 589 C397 589 403 590 410 591 C416 592 422 593 426 593 C433 593 438 587 438 579 C438 567 428 550 412 537 C392 519 366 510 326 507 L317 466 Z " />
<glyph glyph-name="utilde" unicode="&#x169;" horiz-adv-x="625" d="M555 403 L331 403 L320 351 L323 351 C360 351 374 340 374 313 C374 305 373 295 371 285 L338 131 C333 125 331 124 327 119 C294 85 261 68 230 68 C207 68 190 84 191 103 C191 113 193 126 196 140 L252 403 L25 403 L14 351 L17 351 C55 351 71 339 71 309 C71 303 70 293 68 285 L35 131 C29 103 28 93 28 81 C28 23 77 -16 149 -16 C210 -16 268 8 322 55 C321 51 321 50 320 48 C319 42 318 37 317 34 C315 21 312 7 310 0 C308 -8 308 -9 307 -16 L312 -16 C345 -8 472 1 544 0 L555 52 L551 52 C509 52 492 64 492 95 C492 103 493 110 494 118 L555 403 Z M239 493 C251 518 265 529 284 529 C299 529 325 522 354 510 C378 500 407 493 423 493 C479 493 527 548 544 633 L505 633 C497 605 478 588 457 588 C446 588 416 596 390 606 C362 617 338 623 320 623 C294 623 256 604 240 583 C222 561 211 534 202 493 L239 493 Z " />
<glyph glyph-name="Umacron" unicode="&#x16a;" horiz-adv-x="814" d="M618 667 L607 612 L612 612 C660 612 689 587 689 546 C689 536 687 521 685 510 L637 286 C622 213 612 183 596 158 C554 94 481 55 404 55 C325 55 268 102 268 169 C268 193 273 228 281 268 L337 531 C350 592 376 613 439 612 L451 612 L462 667 L90 667 L78 612 L86 612 C136 612 157 598 157 566 C157 555 156 543 153 531 L97 268 C86 214 85 208 85 182 C85 61 181 -14 337 -14 C425 -14 515 12 574 56 C634 99 677 176 698 274 L747 507 C760 574 785 600 850 612 L856 612 L867 667 L618 667 Z M335 818 L322 756 L699 756 L712 818 L335 818 Z " />
<glyph glyph-name="umacron" unicode="&#x16b;" horiz-adv-x="625" d="M555 403 L331 403 L320 351 L323 351 C360 351 374 340 374 313 C374 305 373 295 371 285 L338 131 C333 125 331 124 327 119 C294 85 261 68 230 68 C207 68 190 84 191 103 C191 113 193 126 196 140 L252 403 L25 403 L14 351 L17 351 C55 351 71 339 71 309 C71 303 70 293 68 285 L35 131 C29 103 28 93 28 81 C28 23 77 -16 149 -16 C210 -16 268 8 322 55 C321 51 321 50 320 48 C319 42 318 37 317 34 C315 21 312 7 310 0 C308 -8 308 -9 307 -16 L312 -16 C345 -8 472 1 544 0 L555 52 L551 52 C509 52 492 64 492 95 C492 103 493 110 494 118 L555 403 Z M204 591 L191 529 L526 529 L539 591 L204 591 Z " />
<glyph glyph-name="ubreve" unicode="&#x16d;" horiz-adv-x="625" d="M555 403 L331 403 L320 351 L323 351 C360 351 374 340 374 313 C374 305 373 295 371 285 L338 131 C333 125 331 124 327 119 C294 85 261 68 230 68 C207 68 190 84 191 103 C191 113 193 126 196 140 L252 403 L25 403 L14 351 L17 351 C55 351 71 339 71 309 C71 303 70 293 68 285 L35 131 C29 103 28 93 28 81 C28 23 77 -16 149 -16 C210 -16 268 8 322 55 C321 51 321 50 320 48 C319 42 318 37 317 34 C315 21 312 7 310 0 C308 -8 308 -9 307 -16 L312 -16 C345 -8 472 1 544 0 L555 52 L551 52 C509 52 492 64 492 95 C492 103 493 110 494 118 L555 403 Z M232 647 C228 632 227 622 227 610 C227 581 236 553 252 528 C274 494 304 478 346 478 C430 478 510 550 532 647 L499 647 C470 593 426 566 368 566 C307 566 271 595 266 647 L232 647 Z " />
<glyph glyph-name="Uring" unicode="&#x16e;" horiz-adv-x="814" d="M618 667 L607 612 L612 612 C660 612 689 587 689 546 C689 536 687 521 685 510 L637 286 C622 213 612 183 596 158 C554 94 481 55 404 55 C325 55 268 102 268 169 C268 193 273 228 281 268 L337 531 C350 592 376 613 439 612 L451 612 L462 667 L90 667 L78 612 L86 612 C136 612 157 598 157 566 C157 555 156 543 153 531 L97 268 C86 214 85 208 85 182 C85 61 181 -14 337 -14 C425 -14 515 12 574 56 C634 99 677 176 698 274 L747 507 C760 574 785 600 850 612 L856 612 L867 667 L618 667 Z M565 911 C496 911 432 849 432 782 C432 733 469 697 517 697 C586 697 650 759 650 826 C650 875 614 911 565 911 L565 911 Z M554 864 C581 864 602 844 602 817 C602 779 566 744 527 744 C500 744 480 764 480 791 C480 829 516 864 554 864 L554 864 Z " />
<glyph glyph-name="uring" unicode="&#x16f;" horiz-adv-x="625" d="M555 403 L331 403 L320 351 L323 351 C360 351 374 340 374 313 C374 305 373 295 371 285 L338 131 C333 125 331 124 327 119 C294 85 261 68 230 68 C207 68 190 84 191 103 C191 113 193 126 196 140 L252 403 L25 403 L14 351 L17 351 C55 351 71 339 71 309 C71 303 70 293 68 285 L35 131 C29 103 28 93 28 81 C28 23 77 -16 149 -16 C210 -16 268 8 322 55 C321 51 321 50 320 48 C319 42 318 37 317 34 C315 21 312 7 310 0 C308 -8 308 -9 307 -16 L312 -16 C345 -8 472 1 544 0 L555 52 L551 52 C509 52 492 64 492 95 C492 103 493 110 494 118 L555 403 Z M396 682 C327 682 263 620 263 553 C263 505 300 469 348 469 C417 469 481 531 481 597 C481 646 445 682 396 682 L396 682 Z M385 633 C411 633 431 614 431 588 C431 552 396 518 359 518 C333 518 314 537 314 563 C314 599 348 633 385 633 L385 633 Z " />
<glyph glyph-name="Uhungarumlaut" unicode="&#x170;" horiz-adv-x="814" d="M618 667 L607 612 L612 612 C660 612 689 587 689 546 C689 536 687 521 685 510 L637 286 C622 213 612 183 596 158 C554 94 481 55 404 55 C325 55 268 102 268 169 C268 193 273 228 281 268 L337 531 C350 592 376 613 439 612 L451 612 L462 667 L90 667 L78 612 L86 612 C136 612 157 598 157 566 C157 555 156 543 153 531 L97 268 C86 214 85 208 85 182 C85 61 181 -14 337 -14 C425 -14 515 12 574 56 C634 99 677 176 698 274 L747 507 C760 574 785 600 850 612 L856 612 L867 667 L618 667 Z M369 732 L408 732 L662 880 L664 892 L502 892 L369 732 Z M597 732 L636 732 L890 880 L892 892 L730 892 L597 732 Z " />
<glyph glyph-name="uhungarumlaut" unicode="&#x171;" horiz-adv-x="625" d="M555 403 L331 403 L320 351 L323 351 C360 351 374 340 374 313 C374 305 373 295 371 285 L338 131 C333 125 331 124 327 119 C294 85 261 68 230 68 C207 68 190 84 191 103 C191 113 193 126 196 140 L252 403 L25 403 L14 351 L17 351 C55 351 71 339 71 309 C71 303 70 293 68 285 L35 131 C29 103 28 93 28 81 C28 23 77 -16 149 -16 C210 -16 268 8 322 55 C321 51 321 50 320 48 C319 42 318 37 317 34 C315 21 312 7 310 0 C308 -8 308 -9 307 -16 L312 -16 C345 -8 472 1 544 0 L555 52 L551 52 C509 52 492 64 492 95 C492 103 493 110 494 118 L555 403 Z M215 486 L258 486 L453 632 L455 643 L314 643 L215 486 Z M406 486 L448 486 L644 632 L646 643 L505 643 L406 486 Z " />
<glyph glyph-name="Uogonek" unicode="&#x172;" horiz-adv-x="814" d="M531 -150 C509 -158 496 -160 480 -160 C438 -160 411 -139 411 -107 C411 -66 445 -31 550 38 C621 79 670 158 698 274 L747 507 C760 574 785 600 850 612 L856 612 L867 667 L618 667 L607 612 L612 612 C660 612 689 587 689 546 C689 536 687 521 685 510 L637 286 C622 213 612 183 596 158 C554 94 481 55 404 55 C325 55 268 102 268 169 C268 193 273 228 281 268 L337 531 C350 592 376 613 439 612 L451 612 L462 667 L90 667 L78 612 L86 612 C136 612 157 598 157 566 C157 555 156 543 153 531 L97 268 C86 215 85 208 85 182 C85 62 181 -14 334 -14 C362 -14 387 -12 417 -6 C346 -41 303 -91 303 -139 C303 -186 348 -219 413 -219 C457 -219 491 -209 543 -180 L531 -150 Z " />
<glyph glyph-name="uogonek" unicode="&#x173;" horiz-adv-x="625" d="M555 52 L551 52 C509 52 492 64 492 95 C492 103 493 110 494 118 L555 403 L331 403 L320 351 L323 351 C360 351 374 340 374 313 C374 305 373 295 371 285 L338 131 C333 125 331 124 327 119 C294 85 261 68 230 68 C207 68 190 84 191 103 C191 113 193 126 196 140 L252 403 L25 403 L14 351 L17 351 C55 351 71 339 71 309 C71 303 70 293 68 285 L35 131 C29 103 28 93 28 81 C28 23 77 -16 149 -16 C210 -16 268 8 322 55 C321 51 321 50 320 48 C319 42 318 37 317 34 C315 21 312 7 310 0 C308 -8 308 -9 307 -16 L312 -16 C333 -12 347 -10 378 -7 C319 -42 289 -81 289 -122 C289 -166 330 -196 390 -196 C430 -196 463 -186 510 -160 L499 -132 C478 -139 467 -141 452 -141 C416 -141 392 -122 392 -92 C392 -63 415 -30 455 -2 C484 0 507 0 544 0 L555 52 Z " />
<glyph glyph-name="Wcircumflex" unicode="&#x174;" horiz-adv-x="990" d="M680 -14 L922 465 C980 580 1006 609 1052 613 L1062 612 L1074 667 L850 667 L839 612 L844 612 C877 612 896 596 897 570 L897 569 C898 559 888 532 876 507 L740 236 L655 667 L574 667 L335 236 L301 534 C300 542 299 551 299 557 C299 597 316 612 360 612 L366 612 L377 667 L59 667 L47 612 L56 613 L61 613 L62 613 C101 610 108 596 119 515 L177 -14 L260 -14 L512 434 L599 -14 L680 -14 Z M545 887 L411 728 L450 728 L625 821 L769 728 L807 728 L738 887 L545 887 Z " />
<glyph glyph-name="Ycircumflex" unicode="&#x176;" horiz-adv-x="699" d="M59 667 L47 612 L53 612 C98 609 112 595 138 532 L249 273 L220 136 C209 78 180 55 115 55 L103 55 L91 0 L467 0 L478 55 L468 55 C418 55 393 70 393 101 C393 114 394 124 397 136 L428 284 L609 489 L628 512 C695 589 725 610 767 612 L772 612 L783 667 L543 667 L531 612 L537 612 C574 612 591 601 591 578 C591 562 579 539 561 517 L419 353 L347 534 C341 549 336 567 336 575 C336 599 356 612 393 612 L398 612 L410 667 L59 667 Z M381 887 L247 728 L286 728 L460 821 L605 728 L643 728 L574 887 L381 887 Z " />
<glyph glyph-name="ycircumflex" unicode="&#x177;" horiz-adv-x="550" d="M9 403 L-3 351 L5 350 C31 348 38 338 58 282 L179 -18 L162 -44 C128 -90 104 -104 25 -121 C-32 -133 -60 -158 -60 -197 C-60 -229 -34 -251 4 -251 C32 -251 61 -241 87 -221 C109 -205 127 -184 173 -121 L192 -96 L427 230 C497 333 509 346 540 350 L549 351 L560 403 L398 403 L387 351 L396 351 C411 352 425 341 425 330 C425 323 414 303 396 278 L297 139 L238 295 C237 297 237 299 236 302 L236 305 C232 324 232 324 232 327 C232 342 243 350 266 351 L274 351 L285 403 L9 403 Z M434 484 L477 484 L429 647 L296 647 L172 484 L212 484 L344 568 L434 484 Z " />
<glyph glyph-name="Ydieresis" unicode="&#x178;" horiz-adv-x="699" d="M59 667 L47 612 L53 612 C98 609 112 595 138 532 L249 273 L220 136 C209 78 180 55 115 55 L103 55 L91 0 L467 0 L478 55 L468 55 C418 55 393 70 393 101 C393 114 394 124 397 136 L428 284 L609 489 L628 512 C695 589 725 610 767 612 L772 612 L783 667 L543 667 L531 612 L537 612 C574 612 591 601 591 578 C591 562 579 539 561 517 L419 353 L347 534 C341 549 336 567 336 575 C336 599 356 612 393 612 L398 612 L410 667 L59 667 Z M335 881 C285 881 239 836 239 787 C239 752 265 726 300 726 C350 726 396 771 396 820 C396 855 370 881 335 881 L335 881 Z M629 881 C579 881 533 836 533 788 C533 752 559 726 595 726 C645 726 691 771 691 820 C691 855 665 881 629 881 L629 881 Z " />
<glyph glyph-name="Zacute" unicode="&#x179;" horiz-adv-x="715" d="M-35 0 L594 0 L649 198 L591 198 C525 85 480 57 362 59 L201 59 L717 622 L726 667 L137 667 L89 489 L144 489 C198 590 233 608 374 608 L487 608 L-26 44 L-35 0 Z M406 732 L445 732 L736 880 L738 892 L539 892 L406 732 Z " />
<glyph glyph-name="zacute" unicode="&#x17a;" horiz-adv-x="516" d="M-40 0 L403 0 L445 138 L390 138 C345 71 322 53 279 53 L185 53 L484 357 L494 403 L71 403 L35 279 L91 279 C136 345 142 350 174 350 L272 350 L-31 41 L-40 0 Z M261 486 L304 486 L536 632 L539 643 L360 643 L261 486 Z " />
<glyph glyph-name="Zdotaccent" unicode="&#x17b;" horiz-adv-x="715" d="M-35 0 L594 0 L649 198 L591 198 C525 85 480 57 362 59 L201 59 L717 622 L726 667 L137 667 L89 489 L144 489 C198 590 233 608 374 608 L487 608 L-26 44 L-35 0 Z M497 881 C447 881 401 836 401 787 C401 752 427 726 463 726 C513 726 559 771 559 820 C559 855 533 881 497 881 L497 881 Z " />
<glyph glyph-name="zdotaccent" unicode="&#x17c;" horiz-adv-x="516" d="M-40 0 L403 0 L445 138 L390 138 C345 71 322 53 279 53 L185 53 L484 357 L494 403 L71 403 L35 279 L91 279 C136 345 142 350 174 350 L272 350 L-31 41 L-40 0 Z M350 638 C305 638 263 597 263 554 C263 522 287 498 319 498 C363 498 405 539 405 583 C405 614 381 638 350 638 L350 638 Z " />
<glyph glyph-name="Zcaron" unicode="&#x17d;" horiz-adv-x="715" d="M-35 0 L594 0 L649 198 L591 198 C525 85 480 57 362 59 L201 59 L717 622 L726 667 L137 667 L89 489 L144 489 C198 590 233 608 374 608 L487 608 L-26 44 L-35 0 Z M556 728 L693 887 L655 887 L479 795 L335 887 L297 887 L363 728 L556 728 Z " />
<glyph glyph-name="zcaron" unicode="&#x17e;" horiz-adv-x="516" d="M-40 0 L403 0 L445 138 L390 138 C345 71 322 53 279 53 L185 53 L484 357 L494 403 L71 403 L35 279 L91 279 C136 345 142 350 174 350 L272 350 L-31 41 L-40 0 Z M238 654 L198 654 L252 491 L385 491 L503 654 L459 654 L335 570 L238 654 Z " />
<glyph glyph-name="florin" unicode="&#x192;" horiz-adv-x="572" d="M425 445 C441 489 445 503 451 548 C457 596 463 617 478 636 C488 650 508 660 524 660 C532 660 537 656 537 651 C537 648 537 648 525 633 C523 631 521 628 520 626 L517 619 C508 599 508 599 508 594 C508 576 523 563 544 563 C581 563 613 596 613 633 C613 665 586 683 539 683 C467 683 420 649 360 557 C298 459 285 450 206 445 L180 385 L253 385 L251 380 L248 374 L230 330 L226 321 L221 310 L189 232 C105 36 103 30 73 -125 C67 -160 43 -187 16 -187 C10 -187 3 -183 3 -179 C3 -177 4 -175 5 -174 C19 -154 20 -153 20 -141 C20 -124 3 -111 -20 -111 C-53 -111 -85 -139 -85 -169 C-85 -196 -57 -217 -19 -217 C38 -217 99 -185 150 -129 C188 -87 236 0 292 133 L400 385 L479 385 L504 445 L425 445 Z " />
<glyph glyph-name="uni01CD" unicode="&#x1cd;" horiz-adv-x="687" d="M630 0 L642 55 L637 55 C589 60 576 78 555 162 L446 679 L385 679 L77 188 L70 177 C21 98 -22 60 -67 55 L-73 55 L-85 0 L146 0 L158 55 L150 55 C114 55 93 67 93 88 C93 98 105 124 123 153 L139 180 L355 180 L363 143 C367 122 371 97 371 89 C371 66 347 55 301 55 L295 55 L283 0 L630 0 Z M344 236 L174 236 L299 436 L344 236 Z M520 728 L657 887 L619 887 L443 795 L299 887 L261 887 L327 728 L520 728 Z " />
<glyph glyph-name="uni01CE" unicode="&#x1ce;" horiz-adv-x="593" d="M495 90 C487 72 474 62 460 62 C446 62 438 70 438 83 C438 87 439 97 441 105 L481 291 C486 319 487 322 487 331 C487 391 433 419 315 419 C229 419 169 407 116 381 C73 358 48 330 48 301 C48 276 70 259 102 259 C144 259 169 276 184 313 C191 331 199 344 206 349 C219 358 244 364 267 364 C306 364 326 352 326 328 C326 319 325 311 323 303 L316 266 L292 259 L207 233 C119 204 44 166 18 138 C-5 114 -16 89 -16 64 C-16 18 25 -10 92 -10 C156 -10 219 8 277 43 C291 8 329 -10 387 -10 C467 -10 522 26 539 90 L495 90 Z M304 211 L280 96 C252 74 221 62 194 62 C165 62 143 80 143 104 C143 138 188 174 259 196 C279 202 293 207 298 209 L304 211 Z M256 654 L216 654 L271 491 L403 491 L521 654 L478 654 L353 570 L256 654 Z " />
<glyph glyph-name="uni01D3" unicode="&#x1d3;" horiz-adv-x="814" d="M618 667 L607 612 L612 612 C660 612 689 587 689 546 C689 536 687 521 685 510 L637 286 C622 213 612 183 596 158 C554 94 481 55 404 55 C325 55 268 102 268 169 C268 193 273 228 281 268 L337 531 C350 592 376 613 439 612 L451 612 L462 667 L90 667 L78 612 L86 612 C136 612 157 598 157 566 C157 555 156 543 153 531 L97 268 C86 214 85 208 85 182 C85 61 181 -14 337 -14 C425 -14 515 12 574 56 C634 99 677 176 698 274 L747 507 C760 574 785 600 850 612 L856 612 L867 667 L618 667 Z M611 728 L748 887 L710 887 L534 795 L391 887 L352 887 L418 728 L611 728 Z " />
<glyph glyph-name="uni01D4" unicode="&#x1d4;" horiz-adv-x="625" d="M555 403 L331 403 L320 351 L323 351 C360 351 374 340 374 313 C374 305 373 295 371 285 L338 131 C333 125 331 124 327 119 C294 85 261 68 230 68 C207 68 190 84 191 103 C191 113 193 126 196 140 L252 403 L25 403 L14 351 L17 351 C55 351 71 339 71 309 C71 303 70 293 68 285 L35 131 C29 103 28 93 28 81 C28 23 77 -16 149 -16 C210 -16 268 8 322 55 C321 51 321 50 320 48 C319 42 318 37 317 34 C315 21 312 7 310 0 C308 -8 308 -9 307 -16 L312 -16 C345 -8 472 1 544 0 L555 52 L551 52 C509 52 492 64 492 95 C492 103 493 110 494 118 L555 403 Z M277 654 L236 654 L291 491 L424 491 L541 654 L498 654 L374 570 L277 654 Z " />
<glyph glyph-name="Gcaron" unicode="&#x1e6;" horiz-adv-x="827" d="M475 308 L464 254 L472 253 C514 249 532 235 532 206 C532 199 532 195 531 190 L525 166 L524 135 C513 86 446 49 369 49 C274 49 223 94 223 180 C223 247 248 365 277 440 C321 555 392 609 497 609 C601 609 659 553 673 439 L727 439 L771 672 L718 672 C711 647 700 626 683 602 C630 654 563 679 481 679 C345 679 216 614 127 502 C67 427 33 337 33 255 C33 94 151 -14 327 -14 C371 -14 412 -8 502 10 C562 22 618 29 655 29 C659 29 665 29 677 28 L706 168 C720 230 730 241 780 252 L791 254 L802 308 L475 308 Z M593 728 L730 887 L692 887 L516 795 L372 887 L334 887 L400 728 L593 728 Z " />
<glyph glyph-name="gcaron" unicode="&#x1e7;" horiz-adv-x="564" d="M190 -64 L200 -64 L236 -64 L260 -63 C304 -61 345 -70 355 -82 C360 -87 362 -95 362 -103 C362 -161 280 -197 149 -197 C71 -197 24 -175 24 -139 C24 -127 30 -113 40 -101 L43 -97 L44 -96 C26 -88 15 -85 1 -85 C-36 -85 -70 -120 -70 -158 C-70 -218 -1 -249 136 -249 C248 -249 324 -230 382 -188 C434 -149 463 -98 463 -42 C463 35 408 66 271 66 L232 66 L202 65 L161 65 L153 65 C123 65 106 72 106 85 C106 112 143 128 211 128 C297 129 362 147 409 181 C452 213 477 258 477 304 C477 318 475 329 469 345 C480 354 485 356 494 356 C502 356 506 354 515 345 C526 334 532 331 542 331 C568 331 587 354 587 383 C587 406 572 419 544 419 C518 419 496 409 444 376 C410 405 365 418 295 418 C137 418 32 352 32 252 C32 198 63 161 125 144 C37 123 -6 82 -6 20 C-6 -38 53 -64 184 -64 L190 -64 Z M274 365 C308 365 328 346 328 312 C328 277 314 234 295 209 C283 194 262 185 240 185 C203 185 184 205 184 242 C184 315 221 365 273 365 L274 365 Z M227 654 L187 654 L242 491 L375 491 L492 654 L449 654 L324 570 L227 654 Z " />
<glyph glyph-name="Scommaaccent" unicode="&#x218;" horiz-adv-x="595" d="M-10 11 L52 11 C61 34 69 49 81 65 C114 16 179 -14 254 -14 C402 -14 534 102 534 231 C534 316 479 372 341 429 C265 460 234 489 234 528 C234 579 282 620 343 620 C417 620 468 561 472 470 L530 470 L572 667 L512 667 L510 663 L507 656 C501 642 495 632 486 622 C455 657 403 679 347 679 C209 679 85 566 85 441 C85 370 133 314 231 269 C302 236 356 199 366 176 C371 165 373 156 373 147 C373 95 316 49 251 49 C193 49 147 79 121 134 C110 160 104 188 101 239 L38 239 L-10 11 Z M89 -339 C147 -337 188 -323 225 -293 C272 -256 300 -198 300 -141 C300 -89 270 -59 219 -59 C164 -59 118 -104 118 -157 C118 -188 140 -212 170 -212 C175 -212 183 -211 191 -209 C195 -208 198 -207 200 -207 L207 -206 L208 -205 L209 -205 C214 -205 219 -212 219 -218 C219 -231 209 -246 192 -260 C168 -279 141 -288 100 -290 L89 -339 Z " />
<glyph glyph-name="scommaaccent" unicode="&#x219;" horiz-adv-x="481" d="M-29 -12 L17 -12 C25 0 33 8 44 15 C50 13 51 13 58 10 C103 -9 137 -16 179 -16 C262 -16 326 10 366 61 C390 90 403 126 403 158 C403 184 395 206 378 225 C354 253 304 272 223 284 C177 291 149 308 149 328 C149 355 185 374 234 374 C304 374 349 344 358 292 L404 292 L430 415 L388 415 C378 403 371 397 362 391 C312 411 273 420 228 420 C122 420 29 345 29 261 C29 237 38 213 52 200 C86 169 110 159 220 133 C258 123 276 109 276 90 C276 59 231 35 174 35 C105 35 60 67 51 123 L0 123 L-29 -12 Z M36 -306 C142 -305 224 -230 224 -134 C224 -86 197 -59 149 -59 C100 -59 59 -95 59 -137 C59 -163 80 -183 109 -183 C114 -183 121 -182 128 -180 C134 -179 141 -178 144 -178 C151 -178 156 -184 156 -192 C156 -204 146 -221 130 -234 C110 -252 84 -261 44 -264 L36 -306 Z " />
<glyph glyph-name="uni021A" unicode="&#x21a;" horiz-adv-x="731" d="M103 477 C144 585 173 607 272 608 L334 608 L234 136 C223 81 188 54 129 55 L111 55 L99 0 L486 0 L498 55 L479 55 C432 55 404 73 404 105 C404 113 406 125 408 136 L508 608 L571 608 C661 608 682 584 687 477 L746 477 L786 667 L85 667 L45 477 L103 477 Z M143 -339 C200 -337 241 -324 279 -293 C325 -256 353 -198 353 -141 C353 -89 323 -59 272 -59 C218 -59 172 -104 172 -157 C172 -188 194 -212 224 -212 C229 -212 237 -211 245 -209 C249 -208 252 -207 254 -207 L261 -206 L262 -205 L263 -205 C268 -205 273 -212 273 -218 C273 -231 263 -246 246 -260 C222 -279 195 -288 154 -290 L143 -339 Z " />
<glyph glyph-name="uni021B" unicode="&#x21b;" horiz-adv-x="377" d="M370 349 L381 403 L254 403 L282 536 L227 536 C198 458 120 402 41 402 C39 402 32 402 26 403 L14 349 L76 349 L26 115 C23 99 21 85 21 77 C21 20 67 -16 142 -16 C222 -16 291 19 328 78 L280 94 C259 64 240 52 216 52 C200 52 188 64 188 81 L188 86 L189 95 C189 98 193 115 198 140 L242 349 L370 349 Z M-6 -306 C101 -305 183 -230 183 -134 C183 -86 156 -59 107 -59 C58 -59 17 -95 17 -137 C17 -163 38 -183 67 -183 C72 -183 79 -182 86 -180 C92 -179 99 -178 102 -178 C109 -178 114 -184 114 -192 C114 -204 104 -221 88 -234 C68 -252 42 -261 3 -264 L-6 -306 Z " />
<glyph glyph-name="afii57929" unicode="&#x2bc;" horiz-adv-x="351" d="M75 328 C218 332 330 443 330 579 C330 643 297 679 237 679 C173 679 120 629 120 569 C120 531 147 505 186 505 C193 505 201 506 208 508 C217 511 225 512 229 512 C237 512 244 505 244 495 C244 445 170 393 87 386 L75 328 Z " />
<glyph glyph-name="circumflex" unicode="&#x2c6;" horiz-adv-x="510" d="M397 484 L440 484 L391 647 L259 647 L135 484 L175 484 L307 568 L397 484 Z " />
<glyph glyph-name="caron" unicode="&#x2c7;" horiz-adv-x="510" d="M211 654 L171 654 L226 491 L358 491 L476 654 L433 654 L308 570 L211 654 Z " />
<glyph glyph-name="uni02C9" unicode="&#x2c9;" horiz-adv-x="402" d="M88 591 L75 529 L410 529 L423 591 L88 591 Z " />
<glyph glyph-name="breve" unicode="&#x2d8;" horiz-adv-x="510" d="M166 647 C162 633 161 623 161 610 C161 533 211 478 280 478 C364 478 445 551 466 647 L433 647 C405 593 360 566 302 566 C241 566 205 595 200 647 L166 647 Z " />
<glyph glyph-name="dotaccent" unicode="&#x2d9;" horiz-adv-x="518" d="M325 638 C280 638 238 597 238 554 C238 522 262 498 294 498 C338 498 380 539 380 583 C380 614 356 638 325 638 L325 638 Z " />
<glyph glyph-name="ring" unicode="&#x2da;" horiz-adv-x="500" d="M323 682 C254 682 190 620 190 554 C190 505 227 469 275 469 C344 469 408 531 408 598 C408 646 372 682 323 682 L323 682 Z M312 633 C338 633 358 613 358 588 C358 552 323 518 286 518 C260 518 241 537 241 563 C241 600 275 633 312 633 L312 633 Z " />
<glyph glyph-name="ogonek" unicode="&#x2db;" horiz-adv-x="500" d="M274 15 C228 -5 207 -17 182 -40 C156 -63 139 -95 139 -122 C139 -165 180 -196 240 -196 C280 -196 312 -186 359 -160 L348 -132 C328 -139 317 -141 302 -141 C265 -141 242 -122 242 -92 C242 -56 267 -25 330 15 L274 15 Z " />
<glyph glyph-name="tilde" unicode="&#x2dc;" horiz-adv-x="509" d="M167 493 C179 518 193 529 212 529 C228 529 253 522 282 510 C307 500 335 493 351 493 C407 493 456 549 472 633 L433 633 C425 605 406 588 385 588 C374 588 344 596 318 606 C291 617 266 623 248 623 C223 623 185 604 168 583 C151 561 139 534 130 493 L167 493 Z " />
<glyph glyph-name="hungarumlaut" unicode="&#x2dd;" horiz-adv-x="515" d="M141 486 L184 486 L379 632 L381 643 L240 643 L141 486 Z M331 486 L374 486 L569 632 L571 643 L431 643 L331 486 Z " />
<glyph glyph-name="Wdieresis" unicode="&#x1e84;" horiz-adv-x="990" d="M680 -14 L922 465 C980 580 1006 609 1052 613 L1062 612 L1074 667 L850 667 L839 612 L844 612 C877 612 896 596 897 570 L897 569 C898 559 888 532 876 507 L740 236 L655 667 L574 667 L335 236 L301 534 C300 542 299 551 299 557 C299 597 316 612 360 612 L366 612 L377 667 L59 667 L47 612 L56 613 L61 613 L62 613 C101 610 108 596 119 515 L177 -14 L260 -14 L512 434 L599 -14 L680 -14 Z M499 881 C449 881 403 836 403 787 C403 752 429 726 465 726 C515 726 561 771 561 820 C561 855 535 881 499 881 L499 881 Z M793 881 C743 881 697 836 697 788 C697 752 723 726 759 726 C809 726 855 771 855 820 C855 855 829 881 793 881 L793 881 Z " />
<glyph glyph-name="uni2011" unicode="&#x2011;" horiz-adv-x="363" d="M15 254 L-1 180 L304 180 L320 254 L15 254 Z " />
<glyph glyph-name="figuredash" unicode="&#x2012;" horiz-adv-x="583" d="M5 254 L-9 190 L532 190 L546 254 L5 254 Z " />
<glyph glyph-name="endash" unicode="&#x2013;" horiz-adv-x="583" d="M5 254 L-9 190 L532 190 L546 254 L5 254 Z " />
<glyph glyph-name="emdash" unicode="&#x2014;" horiz-adv-x="930" d="M5 254 L-9 190 L879 190 L892 254 L5 254 Z " />
<glyph glyph-name="afii00208" unicode="&#x2015;" horiz-adv-x="930" d="M5 254 L-9 190 L879 190 L892 254 L5 254 Z " />
<glyph glyph-name="quoteleft" unicode="&#x2018;" horiz-adv-x="351" d="M350 679 C208 675 95 564 95 427 C95 363 129 327 188 327 C251 327 305 378 305 437 C305 475 278 501 239 501 C232 501 224 500 217 498 C207 495 200 494 196 494 C187 494 180 501 180 511 C180 562 255 614 337 620 L350 679 Z " />
<glyph glyph-name="quoteright" unicode="&#x2019;" horiz-adv-x="318" d="M58 328 C201 332 313 443 313 579 C313 643 280 679 220 679 C156 679 103 629 103 569 C103 531 130 505 169 505 C176 505 184 506 191 508 C200 511 208 512 212 512 C220 512 227 505 227 495 C227 445 153 393 70 386 L58 328 Z " />
<glyph glyph-name="quotesinglbase" unicode="&#x201a;" horiz-adv-x="352" d="M-36 -196 C108 -191 220 -81 220 55 C220 120 186 156 127 156 C63 156 9 106 9 46 C9 8 37 -18 76 -18 C84 -18 91 -17 98 -15 C108 -12 115 -11 119 -11 C128 -11 135 -19 135 -28 C135 -44 122 -68 103 -86 C72 -116 30 -133 -24 -137 L-36 -196 Z " />
<glyph glyph-name="quotedblleft" unicode="&#x201c;" horiz-adv-x="626" d="M345 679 C203 675 90 564 90 427 C90 363 124 327 183 327 C246 327 300 378 300 437 C300 475 273 501 234 501 C227 501 219 500 212 498 C202 495 195 494 191 494 C182 494 175 501 175 511 C175 562 250 614 332 620 L345 679 Z M628 679 C487 675 374 564 374 427 C374 363 408 327 467 327 C530 327 584 378 584 437 C584 475 557 501 518 501 C511 501 503 500 495 498 C486 495 478 494 474 494 C466 494 459 501 459 511 C459 562 534 614 616 620 L628 679 Z " />
<glyph glyph-name="quotedblright" unicode="&#x201d;" horiz-adv-x="626" d="M67 328 C210 332 322 443 322 579 C322 643 289 679 229 679 C165 679 112 629 112 569 C112 531 139 505 178 505 C185 505 193 506 200 508 C209 511 217 512 221 512 C229 512 236 505 236 495 C236 445 162 393 79 386 L67 328 Z M353 328 C496 332 608 443 608 578 C608 643 575 679 515 679 C451 679 398 629 398 569 C398 531 425 505 464 505 C471 505 478 506 486 508 C495 511 503 512 507 512 C515 512 522 505 522 495 C522 445 448 393 365 386 L353 328 Z " />
<glyph glyph-name="quotedblbase" unicode="&#x201e;" horiz-adv-x="628" d="M-49 -196 C94 -192 207 -81 207 55 C207 119 173 156 113 156 C50 156 -5 105 -5 45 C-5 10 23 -18 59 -18 C67 -18 76 -17 85 -15 C90 -13 96 -12 96 -13 C101 -12 104 -12 105 -12 C107 -11 109 -10 110 -10 C114 -10 123 -20 123 -26 C123 -41 107 -71 90 -87 C59 -115 15 -133 -37 -137 L-49 -196 Z M237 -196 C379 -192 493 -81 493 55 C493 119 458 156 400 156 C336 156 281 105 281 46 C281 10 309 -18 345 -18 C353 -18 362 -17 371 -15 C376 -13 382 -12 382 -13 C387 -12 390 -12 391 -12 L395 -10 C401 -10 408 -19 408 -26 C408 -79 334 -130 249 -137 L237 -196 Z " />
<glyph glyph-name="dagger" unicode="&#x2020;" horiz-adv-x="562" d="M193 -245 L210 -166 C239 -43 256 21 279 92 C328 243 334 270 334 330 C334 348 333 357 329 370 C343 367 344 366 366 357 C416 336 443 328 470 328 C519 328 557 367 557 418 C557 452 536 471 499 471 C475 471 441 463 405 450 C398 447 392 445 385 443 C374 439 367 436 362 434 C353 432 348 431 336 427 C393 515 423 582 423 622 C423 655 398 679 364 679 C300 679 261 631 261 552 C261 519 269 462 278 427 C266 429 261 430 245 437 C172 469 158 473 131 473 C82 473 45 432 45 377 C45 348 69 328 103 328 C126 328 161 336 214 355 L238 363 L245 365 C252 368 256 368 266 370 C232 327 212 263 202 167 C182 -8 181 -15 152 -164 L135 -245 L193 -245 Z " />
<glyph glyph-name="daggerdbl" unicode="&#x2021;" horiz-adv-x="584" d="M314 252 C320 269 323 278 334 298 C347 325 351 338 351 357 C351 375 348 388 341 408 C363 401 387 392 391 390 C443 369 459 365 484 365 C533 365 571 406 571 459 C571 492 549 513 513 513 C488 513 465 507 423 491 C416 489 410 487 403 484 C393 480 385 477 381 476 C371 473 366 471 353 468 C360 481 364 489 382 519 C419 580 429 604 429 631 C429 662 407 679 368 679 C308 679 274 644 274 582 C274 564 276 552 281 529 C291 492 291 487 291 468 C278 471 273 473 255 480 C191 507 174 512 147 512 C99 512 59 470 59 420 C59 387 80 365 112 365 C130 365 167 373 194 382 C253 402 253 402 279 408 C250 370 238 346 238 323 C238 317 238 310 239 303 C241 287 241 284 241 277 C241 269 241 263 239 252 L314 252 Z M224 179 C217 159 215 154 202 128 C189 104 186 94 186 80 C186 63 190 44 197 23 C181 27 173 30 155 37 C96 60 74 66 49 66 C3 66 -36 24 -36 -26 C-36 -58 -14 -80 20 -80 C47 -80 68 -75 143 -48 C164 -41 170 -39 184 -36 C177 -54 173 -61 149 -97 C120 -140 107 -171 107 -198 C107 -229 131 -247 174 -247 C229 -247 261 -213 261 -152 C261 -138 260 -124 258 -115 C249 -70 247 -51 246 -36 C260 -40 270 -44 279 -48 C346 -77 357 -81 386 -81 C437 -81 477 -40 477 14 C477 45 455 66 421 66 C401 66 372 60 341 49 C323 43 312 39 307 38 C307 38 291 33 271 27 L259 23 C287 57 300 86 300 113 C300 118 300 126 299 133 C297 147 297 152 297 157 C297 164 297 168 299 179 L224 179 Z " />
<glyph glyph-name="bullet" unicode="&#x2022;" horiz-adv-x="700" d="M383 480 C290 480 204 400 204 312 C204 247 253 200 321 200 C413 200 499 281 499 369 C499 433 450 480 383 480 L383 480 Z " />
<glyph glyph-name="ellipsis" unicode="&#x2026;" horiz-adv-x="1057" d="M139 160 C78 160 23 109 23 54 C23 13 55 -18 98 -18 C159 -18 214 33 214 89 C214 130 182 160 139 160 L139 160 Z M489 160 C429 160 374 109 374 53 C374 12 406 -18 449 -18 C509 -18 564 33 564 89 C564 130 532 160 489 160 L489 160 Z M839 160 C778 160 723 109 723 53 C723 12 755 -18 798 -18 C859 -18 914 33 914 89 C914 130 882 160 839 160 L839 160 Z " />
<glyph glyph-name="perthousand" unicode="&#x2030;" horiz-adv-x="1220" d="M276 680 C213 680 163 655 120 604 C87 563 67 510 67 458 C67 379 115 333 197 333 C265 333 316 356 355 403 C390 446 410 500 410 552 C410 635 363 680 276 680 L276 680 Z M267 638 C292 638 304 622 304 588 C304 552 296 502 285 465 C265 402 243 375 211 375 C185 375 172 393 172 427 C172 463 191 551 206 586 C222 622 241 638 267 638 L267 638 Z M206 0 L708 668 L633 668 L131 0 L206 0 Z M637 334 C574 334 524 309 481 258 C448 217 428 164 428 112 C428 33 476 -13 558 -13 C626 -13 677 10 716 57 C751 100 771 154 771 206 C771 289 724 334 637 334 L637 334 Z M629 292 C654 292 665 276 665 242 C665 207 657 156 646 119 C626 56 604 29 572 29 C546 29 533 47 533 80 C533 127 555 216 577 259 C587 279 607 292 629 292 L629 292 Z M1021 334 C956 334 906 310 863 258 C829 217 810 163 810 112 C810 33 858 -13 940 -13 C1009 -13 1058 10 1099 60 C1133 102 1152 153 1152 206 C1152 289 1106 334 1021 334 L1021 334 Z M1009 292 C1035 292 1047 275 1047 240 C1047 187 1029 112 1006 66 C993 42 975 29 954 29 C928 29 915 47 915 81 C915 113 928 179 944 228 C958 270 981 292 1009 292 L1009 292 Z " />
<glyph glyph-name="guilsinglleft" unicode="&#x2039;" horiz-adv-x="319" d="M0 217 L159 0 L218 0 L182 217 L309 433 L250 433 L0 217 Z " />
<glyph glyph-name="guilsinglright" unicode="&#x203a;" horiz-adv-x="319" d="M264 217 L106 433 L47 433 L82 217 L-46 0 L13 0 L264 217 Z " />
<glyph glyph-name="uni203E" unicode="&#x203e;" horiz-adv-x="500" d="M110 847 L101 807 L601 807 L610 847 L110 847 Z " />
<glyph glyph-name="fraction" unicode="&#x2044;" horiz-adv-x="187" d="M-119 0 L383 668 L308 668 L-194 0 L-119 0 Z " />
<glyph glyph-name="franc" unicode="&#x20a3;" horiz-adv-x="932" d="M687 667 L100 667 L88 613 L101 613 C155 613 175 599 175 560 C175 553 174 541 172 531 L88 136 C76 78 47 55 -18 55 L-28 55 L-40 0 L337 0 L349 55 L334 55 C281 55 259 70 259 108 C259 118 260 127 262 136 L301 318 L357 318 C404 318 418 306 418 269 C418 257 417 247 416 237 L415 231 L473 231 L521 460 L463 460 L461 453 C443 393 426 379 371 378 L313 378 L362 608 L480 608 C534 607 556 600 569 579 C584 555 593 527 595 490 L654 490 L687 667 Z M531 333 L520 285 L524 285 C563 285 578 274 578 246 C578 241 577 232 575 225 L551 108 C540 62 524 50 476 48 L471 48 L461 0 L749 0 L759 48 L749 48 C710 48 695 59 695 87 C695 93 696 101 697 108 L703 136 C724 234 754 280 798 280 C811 280 821 274 831 262 C850 235 857 231 880 231 C923 231 959 268 959 312 C959 349 933 373 892 373 C833 373 776 341 728 280 C733 308 735 326 735 348 C735 357 735 363 733 373 C712 369 712 369 663 359 C626 352 585 344 539 335 L531 333 Z " />
<glyph glyph-name="Euro" unicode="&#x20ac;" horiz-adv-x="826" d="M318 390 C333 440 346 474 360 498 C404 574 471 615 553 615 C664 615 725 546 733 412 L790 412 L835 658 L778 658 C765 633 756 617 744 599 C693 654 631 679 543 679 C358 679 196 566 125 390 L77 390 L40 335 L108 335 L102 306 L59 306 L22 251 L98 251 C100 214 105 184 116 154 C152 49 256 -14 392 -14 C482 -14 578 18 640 70 C649 54 654 34 655 6 L713 6 L766 256 L708 256 C676 188 630 128 590 101 C542 69 485 51 433 51 C389 51 345 68 319 97 C297 121 286 153 286 197 C286 212 287 226 290 251 L511 251 L547 306 L298 306 C301 317 302 323 304 335 L566 335 L603 390 L318 390 Z " />
<glyph glyph-name="trademark" unicode="&#x2122;" horiz-adv-x="1024" d="M446 563 L468 667 L85 667 L63 563 L84 563 C100 619 127 640 185 641 L211 641 L149 347 C141 314 133 308 96 306 L81 306 L77 287 L315 287 L319 306 L304 306 C278 306 267 312 267 327 C267 334 268 341 269 347 L331 641 L358 641 C406 641 427 624 427 584 C427 577 427 572 425 563 L446 563 Z M482 667 L478 648 C518 647 527 645 527 632 C527 628 527 624 526 620 L468 347 C462 319 447 308 407 306 L403 287 L542 287 L546 306 C513 308 500 317 500 333 C500 341 500 342 501 347 L556 605 L634 287 L654 287 L870 595 L817 347 C810 314 803 308 766 306 L750 306 L746 287 L977 287 L981 306 L966 306 C943 306 932 312 932 325 C932 330 933 339 935 347 L990 607 C998 640 1005 646 1039 648 L1056 648 L1060 667 L883 667 L725 447 L672 667 L482 667 Z " />
<glyph glyph-name="uni2126" unicode="&#x2126;" horiz-adv-x="768" d="M326 0 L308 155 C230 199 180 288 180 383 C180 434 196 493 221 540 C257 605 316 642 385 642 C454 642 513 605 549 540 C575 493 590 435 590 381 C590 288 540 199 462 155 L444 0 L736 0 L736 153 L712 153 C704 108 684 90 643 90 L497 90 L500 128 C535 141 557 151 580 166 C657 215 702 296 702 382 C702 449 673 522 625 578 C564 648 480 686 385 686 C290 686 206 648 145 578 C97 522 68 448 68 382 C68 296 114 215 190 166 C213 151 234 141 270 128 L273 90 L127 90 C86 90 66 108 58 153 L34 153 L34 0 L326 0 Z " />
<glyph glyph-name="partialdiff" unicode="&#x2202;" horiz-adv-x="494" d="M107 674 C152 697 184 706 219 706 C321 706 379 611 379 448 C379 418 377 395 372 346 C308 396 272 412 221 412 C172 412 131 394 95 355 C51 309 26 246 26 184 C26 76 109 -10 213 -10 C282 -10 341 23 383 84 C429 152 462 286 462 403 C462 519 428 611 360 681 C312 730 259 753 194 753 C155 753 121 746 66 725 L107 674 Z M366 312 C350 201 340 158 314 107 C288 54 245 21 201 21 C147 21 113 74 113 159 C113 273 180 367 261 367 C299 367 324 354 366 312 L366 312 Z " />
<glyph glyph-name="Delta" unicode="&#x2206;" horiz-adv-x="612" d="M6 0 L608 0 L327 688 L6 0 Z M77 51 L290 509 L479 51 L77 51 Z " />
<glyph glyph-name="product" unicode="&#x220f;" horiz-adv-x="823" d="M25 -124 L315 -124 L315 -98 L312 -98 C242 -94 221 -67 224 18 L224 594 C224 656 228 677 242 690 C260 707 271 708 413 708 C557 708 567 707 586 690 C600 677 604 656 604 594 L604 18 C607 -67 586 -94 516 -98 L513 -98 L513 -124 L803 -124 L803 -98 L800 -98 C730 -94 709 -67 712 18 L712 609 C709 694 730 721 800 725 L803 725 L803 751 L25 751 L25 725 L28 725 C98 721 119 694 116 609 L116 18 C119 -67 98 -94 28 -98 L25 -98 L25 -124 Z " />
<glyph glyph-name="summation" unicode="&#x2211;" horiz-adv-x="713" d="M176 711 L444 711 C560 710 590 688 606 587 L632 587 L622 752 L23 752 L256 285 L14 -123 L641 -123 L695 87 L669 87 C639 7 605 -12 491 -11 L163 -11 L364 341 L176 711 Z " />
<glyph glyph-name="minus" unicode="&#x2212;" horiz-adv-x="525" d="M19 414 L0 325 L521 325 L540 414 L19 414 Z " />
<glyph glyph-name="uni2215" unicode="&#x2215;" horiz-adv-x="187" d="M-119 0 L383 668 L308 668 L-194 0 L-119 0 Z " />
<glyph glyph-name="uni2219" unicode="&#x2219;" horiz-adv-x="308" d="M166 421 C106 421 51 370 51 314 C51 274 83 243 127 243 C187 243 242 294 242 350 C242 391 210 421 166 421 L166 421 Z " />
<glyph glyph-name="radical" unicode="&#x221a;" horiz-adv-x="549" d="M363 -35 L515 908 L480 913 L353 123 L156 520 L10 449 L26 414 L121 461 L363 -35 Z " />
<glyph glyph-name="infinity" unicode="&#x221e;" horiz-adv-x="713" d="M357 303 C300 375 234 414 171 414 C87 414 26 351 26 263 C26 176 84 115 167 115 C224 115 282 143 327 192 C335 201 340 207 357 228 C415 156 485 115 549 115 C631 115 688 176 688 266 C688 354 629 414 543 414 C476 414 412 376 357 303 L357 303 Z M391 265 C434 325 493 362 546 362 C600 362 638 321 638 264 C638 205 603 167 549 167 C495 167 461 188 391 265 L391 265 Z M324 266 C275 203 216 167 163 167 C111 167 76 208 76 266 C76 323 113 362 167 362 C218 362 259 337 324 266 L324 266 Z " />
<glyph glyph-name="integral" unicode="&#x222b;" horiz-adv-x="274" d="M180 576 C180 653 179 691 176 746 C174 774 173 800 173 815 C173 855 184 878 202 878 C208 878 213 876 215 872 C232 845 239 839 256 839 C276 839 291 853 291 871 C291 898 267 916 231 916 C186 916 152 887 138 838 C123 784 113 682 113 577 L113 232 C113 160 114 124 117 63 C119 34 120 4 120 -12 C120 -47 108 -70 89 -70 C81 -70 75 -65 68 -52 C59 -35 51 -30 37 -30 C17 -30 2 -44 2 -63 C2 -89 26 -107 62 -107 C107 -107 141 -79 155 -29 C170 25 180 126 180 232 L180 576 Z " />
<glyph glyph-name="approxequal" unicode="&#x2248;" horiz-adv-x="549" d="M489 251 C444 199 423 187 384 187 C365 187 354 190 285 211 C212 234 188 239 160 239 C101 239 54 212 14 155 L57 121 C103 174 120 184 159 184 C180 184 180 184 271 157 C350 133 354 132 385 132 C449 132 496 160 527 217 L489 251 Z M489 408 C443 356 424 344 384 344 C365 344 354 347 285 369 C211 392 188 397 160 397 C101 397 54 369 14 312 L57 279 C104 332 119 342 159 342 C181 342 181 342 271 315 C351 290 354 289 385 289 C449 289 496 318 527 375 L489 408 Z " />
<glyph glyph-name="notequal" unicode="&#x2260;" horiz-adv-x="549" d="M187 142 L115 -1 L161 -25 L246 142 L540 142 L540 197 L273 197 L344 336 L540 336 L540 391 L371 391 L439 525 L392 549 L312 391 L15 391 L15 336 L285 336 L215 197 L15 197 L15 142 L187 142 Z " />
<glyph glyph-name="lessequal" unicode="&#x2264;" horiz-adv-x="549" d="M467 55 L-30 55 L-42 0 L455 0 L467 55 Z M591 639 L44 405 L32 350 L480 117 L493 179 L117 378 L578 577 L591 639 Z " />
<glyph glyph-name="greaterequal" unicode="&#x2265;" horiz-adv-x="549" d="M467 55 L-30 55 L-42 0 L455 0 L467 55 Z M94 639 L81 577 L457 378 L-4 179 L-17 117 L529 350 L541 405 L94 639 Z " />
<glyph glyph-name="lozenge" unicode="&#x25ca;" horiz-adv-x="494" d="M209 0 L269 -1 L466 374 L277 740 L214 740 L18 377 L209 0 Z M240 58 L81 376 L245 683 L402 373 L240 58 Z " />
<glyph glyph-name="fi" unicode="&#xfb01;" horiz-adv-x="691" d="M18 350 L98 350 L48 117 C37 67 21 54 -33 52 L-45 52 L-56 0 L258 0 L269 52 L266 52 C227 52 212 64 212 93 C212 100 213 109 215 117 L264 350 L362 350 C416 350 430 342 430 309 C430 302 429 296 428 290 L391 117 C379 67 364 54 314 52 L309 52 L298 0 L609 0 L620 52 L607 52 C565 52 548 64 548 94 C548 102 549 109 550 117 L614 415 L608 415 C569 407 500 403 415 403 L275 403 L292 483 C305 544 314 570 328 589 C346 611 376 624 410 624 C451 624 467 610 475 569 C484 525 500 508 535 508 C584 508 632 549 632 591 C632 611 618 634 596 648 C566 669 513 679 440 679 C364 679 308 667 256 640 C180 601 138 540 116 436 L109 403 L30 403 L18 350 Z " />
<glyph glyph-name="fl" unicode="&#xfb02;" horiz-adv-x="690" d="M112 403 L32 403 L20 350 L100 350 L51 117 C39 67 23 54 -30 52 L-43 52 L-54 0 L260 0 L271 52 L268 52 C229 52 214 64 214 93 C214 99 215 108 217 117 L266 350 L441 350 L391 117 C380 68 363 54 314 52 L310 52 L299 0 L610 0 L621 52 L607 52 C565 52 548 64 548 94 C548 102 549 109 550 117 L670 679 L667 679 L662 678 L663 679 C603 668 593 666 560 664 C530 674 490 679 450 679 C347 679 266 655 211 609 C166 571 134 510 116 422 L112 403 Z M278 403 L297 494 C308 544 325 584 343 599 C361 614 387 623 415 623 C447 623 474 607 481 585 C484 575 485 570 485 569 C486 568 486 567 487 567 L452 403 L278 403 Z " />
</font>
</svg>
