<?xml version="1.0" encoding="UTF-8"?>
<svg xmlns="http://www.w3.org/2000/svg" xmlns:xlink="http://www.w3.org/1999/xlink" version="1.2" >
<font id="Clarendon URW Narrow Medium">
<font-face  font-family="Clarendon URW Narrow" units-per-em="1000" ascent="667" descent="-333" font-style="normal" font-weight="500" font-stretch="semi-condensed" cap-height="667" x-height="469" underline-position="-59" underline-thickness="85" />
<missing-glyph  horiz-adv-x="250" d="" />
<glyph glyph-name="NULL" d="" />
<glyph glyph-name="CR" unicode="&#xd;" horiz-adv-x="250" d="" />
<glyph glyph-name="space" unicode="&#x20;" horiz-adv-x="250" d="" />
<glyph glyph-name="exclam" unicode="&#x21;" horiz-adv-x="330" d="M184 140 C143 140 109 105 109 64 C109 18 142 -17 184 -17 C225 -17 258 18 258 62 C258 105 225 140 184 140 L184 140 Z M220 199 C226 292 231 338 251 476 C261 546 263 568 263 593 C263 654 235 687 184 687 C133 687 104 654 104 594 C104 569 106 549 116 476 C136 331 141 291 147 199 L220 199 Z " />
<glyph glyph-name="quotedbl" unicode="&#x22;" horiz-adv-x="357" d="M135 399 L157 667 L27 667 L49 399 L135 399 Z M308 399 L330 667 L200 667 L221 399 L308 399 Z " />
<glyph glyph-name="numbersign" unicode="&#x23;" horiz-adv-x="594" d="M548 293 L450 293 L464 387 L561 387 L576 492 L479 492 L506 667 L392 667 L365 492 L272 492 L300 667 L187 667 L162 492 L64 492 L49 387 L147 387 L132 293 L34 293 L19 188 L117 188 L89 0 L200 0 L228 188 L320 188 L290 0 L406 0 L435 188 L533 188 L548 293 Z M350 387 L336 293 L245 293 L258 387 L350 387 Z " />
<glyph glyph-name="dollar" unicode="&#x24;" horiz-adv-x="594" d="M256 -110 L325 -110 L325 0 C408 9 445 21 484 51 C526 84 549 132 549 184 C549 246 518 297 464 325 C430 343 404 351 325 369 L325 541 C377 540 408 530 427 508 C396 493 384 478 384 452 C384 419 413 393 452 393 C496 393 525 422 525 467 C525 502 508 535 476 560 C440 589 402 600 325 606 L325 675 L256 675 L256 604 C180 591 148 580 113 552 C73 520 50 472 50 418 C50 362 74 317 117 290 C149 271 171 263 256 236 L256 61 C199 62 160 75 135 101 C174 111 190 128 190 159 C190 200 161 228 119 228 C74 228 40 191 40 141 C40 109 54 79 79 55 C117 19 162 5 256 -1 L256 -110 Z M325 224 C361 216 376 211 391 201 C410 189 421 168 421 144 C421 98 393 74 325 64 L325 224 Z M256 383 C226 392 220 395 209 402 C189 413 178 435 178 462 C178 508 202 532 256 538 L256 383 Z " />
<glyph glyph-name="percent" unicode="&#x25;" horiz-adv-x="910" d="M237 -17 L316 -17 L670 623 L592 623 L237 -17 Z M211 622 C106 622 33 545 33 433 C33 316 103 240 211 240 C318 240 389 317 389 432 C389 546 318 622 211 622 L211 622 Z M211 556 C253 556 272 517 272 431 C272 345 253 306 211 306 C169 306 150 345 150 433 C150 516 170 556 211 556 L211 556 Z M698 365 C593 365 520 288 520 177 C520 59 590 -17 698 -17 C805 -17 876 60 876 175 C876 289 805 365 698 365 L698 365 Z M699 297 C741 297 759 259 759 173 C759 86 741 50 697 50 C655 50 637 88 637 176 C637 260 656 297 699 297 L699 297 Z " />
<glyph glyph-name="ampersand" unicode="&#x26;" horiz-adv-x="821" d="M697 231 C697 134 672 89 619 89 C592 89 576 98 549 128 C590 187 605 211 618 234 C655 303 655 303 673 317 C688 328 706 333 731 333 C737 333 748 333 760 332 L760 414 L469 414 L469 332 L489 332 C536 332 550 328 550 313 C550 288 531 253 488 197 C437 261 416 293 370 375 C451 432 481 477 481 544 C481 629 421 688 335 688 C240 688 167 615 167 519 C167 485 174 459 197 405 C80 346 37 287 37 186 C37 62 129 -19 270 -19 C330 -19 369 -7 444 36 C515 -9 545 -20 598 -20 C667 -20 718 5 749 54 C771 88 779 126 779 192 C779 198 779 214 778 231 L697 231 Z M322 456 C299 500 292 523 292 551 C292 584 311 605 341 605 C369 605 387 584 387 550 C387 511 371 488 322 456 L322 456 Z M239 313 C293 217 328 163 378 102 C349 85 334 80 309 80 C239 80 191 133 191 211 C191 254 203 280 239 313 L239 313 Z " />
<glyph glyph-name="quotesingle" unicode="&#x27;" horiz-adv-x="184" d="M135 399 L157 667 L27 667 L49 399 L135 399 Z " />
<glyph glyph-name="parenleft" unicode="&#x28;" horiz-adv-x="377" d="M354 687 C269 670 226 650 175 603 C86 522 42 405 42 246 C42 86 86 -32 175 -112 C226 -158 269 -178 354 -196 L354 -119 C301 -98 277 -79 254 -37 C217 27 202 110 202 246 C202 381 217 464 254 528 C277 570 301 589 354 610 L354 687 Z " />
<glyph glyph-name="parenright" unicode="&#x29;" horiz-adv-x="377" d="M24 -196 C108 -179 151 -159 203 -112 C292 -31 335 86 335 245 C335 405 291 523 203 603 C152 649 109 669 24 687 L24 609 C77 588 100 569 124 528 C160 464 175 380 175 245 C175 110 160 26 124 -38 C100 -79 77 -98 24 -119 L24 -196 Z " />
<glyph glyph-name="asterisk" unicode="&#x2a;" horiz-adv-x="472" d="M226 492 C194 516 187 524 165 559 C139 602 130 610 105 610 C76 610 52 583 52 550 C52 532 60 516 74 508 C87 499 88 499 130 497 C169 495 188 490 216 474 C186 459 172 456 133 452 C94 449 90 449 78 443 C62 436 52 419 52 400 C52 367 76 339 105 339 C130 339 138 346 165 390 C188 428 200 440 227 456 C224 428 219 408 203 371 C183 329 183 329 183 312 C183 283 204 264 235 264 C267 264 289 285 289 314 C289 328 285 340 270 369 C252 403 248 417 245 458 C269 442 277 433 305 391 C337 342 341 338 364 338 C394 338 418 365 418 400 C418 420 410 434 395 443 C382 450 382 450 341 452 C302 455 282 460 253 476 C281 490 296 494 338 497 C382 500 382 500 394 507 C409 515 418 533 418 552 C418 583 394 611 366 611 C342 611 332 602 306 559 C283 523 270 509 244 493 C249 535 253 551 268 580 C287 618 288 621 288 636 C288 665 265 687 234 687 C203 687 182 667 182 637 C182 621 184 615 201 582 C217 550 222 530 226 492 L226 492 Z " />
<glyph glyph-name="plus" unicode="&#x2b;" horiz-adv-x="565" d="M70 366 L70 263 L229 263 L229 100 L337 100 L337 263 L496 263 L496 366 L337 366 L337 530 L229 530 L229 366 L70 366 Z " />
<glyph glyph-name="comma" unicode="&#x2c;" horiz-adv-x="255" d="M45 -144 C99 -133 125 -121 153 -94 C187 -62 207 -14 207 35 C207 96 171 140 121 140 C76 140 41 103 41 57 C41 21 67 -10 98 -10 C106 -10 119 -7 133 -1 C123 -60 108 -76 45 -94 L45 -144 Z " />
<glyph glyph-name="hyphen" unicode="&#x2d;" horiz-adv-x="261" d="M0 172 L261 172 L261 299 L0 299 L0 172 Z " />
<glyph glyph-name="period" unicode="&#x2e;" horiz-adv-x="297" d="M150 140 C109 140 75 105 75 64 C75 18 108 -17 150 -17 C192 -17 225 18 225 62 C225 105 192 140 150 140 L150 140 Z " />
<glyph glyph-name="slash" unicode="&#x2f;" horiz-adv-x="364" d="M83 -92 L326 686 L252 686 L9 -92 L83 -92 Z " />
<glyph glyph-name="zero" unicode="0" horiz-adv-x="594" d="M301 621 C137 621 28 493 28 301 C28 113 138 -17 298 -17 C457 -17 567 113 567 302 C567 489 457 621 301 621 L301 621 Z M297 539 C367 539 398 465 398 302 C398 140 366 65 298 65 C229 65 197 139 197 296 C197 464 228 539 297 539 L297 539 Z " />
<glyph glyph-name="one" unicode="1" horiz-adv-x="594" d="M229 444 L229 135 C228 85 222 78 181 76 L123 76 L123 0 L484 0 L484 76 L429 76 C388 78 382 86 382 135 L382 607 L275 607 C254 552 213 528 124 519 L124 444 L229 444 Z " />
<glyph glyph-name="two" unicode="2" horiz-adv-x="594" d="M121 0 C131 39 144 53 169 53 C184 53 205 47 235 33 C327 -9 352 -17 398 -17 C459 -17 506 11 530 61 C543 89 548 123 548 177 L548 213 L481 213 C478 142 461 117 415 117 C397 117 372 122 329 133 C292 142 266 147 249 147 C219 147 196 140 151 116 C182 172 207 190 304 219 C430 255 430 255 466 279 C510 309 535 361 535 422 C535 540 439 622 300 622 C224 622 164 601 119 558 C80 522 58 475 58 428 C58 367 96 324 150 324 C197 324 233 359 233 406 C233 443 207 472 173 472 C167 472 155 470 143 467 C151 492 158 503 170 514 C189 530 218 539 248 539 C317 539 364 496 364 432 C364 381 341 347 283 315 C99 219 47 148 51 0 L121 0 Z " />
<glyph glyph-name="three" unicode="3" horiz-adv-x="594" d="M233 280 C289 278 308 275 327 263 C354 246 371 211 371 173 C371 102 322 58 244 58 C193 58 168 67 134 98 C187 106 209 127 209 170 C209 217 175 252 129 252 C74 252 37 210 37 148 C37 46 129 -18 277 -18 C442 -18 539 51 539 169 C539 215 522 253 490 280 C466 300 445 310 393 326 C489 352 525 389 525 462 C525 560 437 622 297 622 C159 622 57 553 57 460 C57 409 91 374 140 374 C185 374 219 406 219 448 C219 487 199 506 150 515 C181 540 212 551 254 551 C318 551 356 515 356 454 C356 419 342 390 318 377 C299 365 280 362 233 360 L233 280 Z " />
<glyph glyph-name="four" unicode="4" horiz-adv-x="594" d="M562 77 L504 77 C461 80 455 87 456 136 L456 177 L556 177 L556 264 L456 264 L456 607 L338 607 L33 260 L33 177 L315 177 L315 136 C313 86 307 79 264 77 L214 77 L214 -1 L562 -1 L562 77 Z M132 264 L317 465 L315 264 L132 264 Z " />
<glyph glyph-name="five" unicode="5" horiz-adv-x="594" d="M168 490 C220 483 249 480 272 480 C395 480 501 539 501 607 C501 615 499 619 495 619 C492 619 487 618 483 617 C422 597 397 594 320 594 C245 594 197 599 97 618 L74 302 L153 302 C187 341 214 355 254 355 C324 355 367 300 367 211 C367 118 318 58 244 58 C202 58 171 70 140 97 C194 108 216 130 216 171 C216 217 183 249 137 249 C83 249 45 207 45 149 C45 49 135 -18 270 -18 C433 -18 535 73 535 217 C535 349 442 434 298 434 C244 434 217 427 162 397 L168 490 Z " />
<glyph glyph-name="six" unicode="6" horiz-adv-x="594" d="M404 534 C378 515 368 499 368 474 C368 434 400 407 446 407 C496 407 529 439 529 488 C529 567 449 622 334 622 C161 622 52 494 52 289 C52 95 151 -19 320 -19 C460 -19 553 61 553 181 C553 298 472 378 354 378 C303 378 270 368 212 333 C214 414 221 452 239 488 C260 528 304 554 349 554 C373 554 386 549 404 534 L404 534 Z M305 294 C356 294 389 244 389 169 C389 99 359 57 308 57 C256 57 223 104 223 176 C223 248 255 294 305 294 L305 294 Z " />
<glyph glyph-name="seven" unicode="7" horiz-adv-x="594" d="M368 -2 C370 187 390 256 489 408 C558 512 566 530 566 590 L566 605 L503 605 C496 576 484 566 459 566 C445 566 432 569 421 573 C324 613 324 613 281 613 C220 613 187 592 152 532 L152 605 L71 605 L71 324 L152 324 C152 404 154 417 170 446 C183 468 205 480 236 480 C250 480 250 480 313 468 C333 464 353 462 370 462 C396 462 414 467 449 484 C414 439 414 439 351 371 C236 245 214 185 216 -2 L368 -2 Z " />
<glyph glyph-name="eight" unicode="8" horiz-adv-x="594" d="M147 295 C63 256 33 218 33 154 C33 49 131 -17 288 -17 C366 -17 436 0 477 29 C526 64 554 119 554 180 C554 227 538 268 508 298 C490 315 468 328 425 347 C498 382 526 416 526 471 C526 561 435 622 301 622 C152 622 57 551 57 439 C57 380 74 352 147 295 L147 295 Z M355 374 C262 409 256 411 242 418 C209 435 195 453 195 479 C195 519 236 546 296 546 C365 546 408 514 408 464 C408 426 394 402 355 374 L355 374 Z M218 257 C299 227 347 209 361 202 C396 187 412 168 412 144 C412 92 365 60 290 60 C205 60 152 100 152 163 C152 203 169 227 218 257 L218 257 Z " />
<glyph glyph-name="nine" unicode="9" horiz-adv-x="594" d="M190 69 C216 89 226 105 226 129 C226 169 194 197 148 197 C98 197 65 165 65 116 C65 36 145 -19 261 -19 C434 -19 543 109 543 314 C543 508 444 622 275 622 C135 622 41 542 41 422 C41 305 122 225 240 225 C291 225 324 235 382 270 C380 189 374 151 355 115 C334 75 291 49 245 49 C221 49 209 54 190 69 L190 69 Z M286 546 C338 546 372 499 372 427 C372 355 340 309 289 309 C238 309 205 357 205 433 C205 505 234 546 286 546 L286 546 Z " />
<glyph glyph-name="colon" unicode="&#x3a;" horiz-adv-x="330" d="M179 447 C138 447 104 412 104 370 C104 324 137 289 179 289 C221 289 254 324 254 368 C254 412 221 447 179 447 L179 447 Z M179 143 C138 143 104 108 104 66 C104 20 137 -15 179 -15 C221 -15 254 20 254 64 C254 108 221 143 179 143 L179 143 Z " />
<glyph glyph-name="semicolon" unicode="&#x3b;" horiz-adv-x="330" d="M187 447 C146 447 112 412 112 370 C112 324 145 289 187 289 C229 289 262 324 262 368 C262 412 229 447 187 447 L187 447 Z M107 -144 C161 -133 187 -121 215 -94 C249 -62 269 -14 269 35 C269 96 233 140 183 140 C138 140 103 103 103 57 C103 21 129 -10 160 -10 C168 -10 181 -7 195 -1 C185 -60 170 -76 107 -94 L107 -144 Z " />
<glyph glyph-name="less" unicode="&#x3c;" horiz-adv-x="475" d="M444 618 L32 393 L32 274 L444 49 L444 190 L175 333 L444 477 L444 618 Z " />
<glyph glyph-name="equal" unicode="&#x3d;" horiz-adv-x="565" d="M70 449 L70 352 L496 352 L496 449 L70 449 Z M70 282 L70 185 L496 185 L496 282 L70 282 Z " />
<glyph glyph-name="greater" unicode="&#x3e;" horiz-adv-x="475" d="M32 618 L32 477 L301 333 L32 190 L32 49 L443 274 L443 393 L32 618 Z " />
<glyph glyph-name="question" unicode="&#x3f;" horiz-adv-x="566" d="M266 140 C225 140 192 105 192 61 C192 18 226 -17 266 -17 C308 -17 341 18 341 62 C341 105 308 140 266 140 L266 140 Z M227 199 L307 199 C308 244 324 275 364 306 C433 358 433 358 446 370 C490 410 510 453 510 505 C510 611 417 687 289 687 C160 687 69 607 69 493 C69 421 109 373 169 373 C219 373 250 403 250 452 C250 492 223 521 186 521 C171 521 160 518 138 506 C143 537 150 555 161 568 C179 590 209 603 243 603 C302 603 348 561 348 505 C348 463 335 435 279 362 C239 309 227 278 227 226 L227 199 Z " />
<glyph glyph-name="at" unicode="&#x40;" horiz-adv-x="704" d="M457 493 L449 451 C431 484 396 504 354 504 C265 504 187 410 187 302 C187 211 245 143 322 143 C370 143 415 168 440 208 C449 174 478 151 514 151 C597 151 671 262 671 384 C671 555 543 681 369 681 C181 681 33 526 33 328 C33 233 70 139 133 76 C194 15 273 -15 371 -15 C444 -15 513 -3 570 18 L552 93 C497 72 437 61 373 61 C291 61 231 84 185 134 C140 184 114 254 114 327 C114 484 227 606 373 606 C505 606 597 515 597 384 C597 302 556 219 517 219 C503 219 494 233 494 253 C494 261 496 275 500 298 L536 493 L457 493 Z M367 415 C404 415 429 385 429 339 C429 279 390 227 346 227 C308 227 282 259 282 305 C282 364 322 415 367 415 L367 415 Z " />
<glyph glyph-name="A" unicode="A" horiz-adv-x="670" d="M680 82 L656 82 C611 81 604 88 582 149 L413 667 L251 667 L84 153 C70 101 53 85 12 82 L-19 82 L-19 0 L266 0 L266 82 L226 82 C189 82 178 88 178 108 C178 116 180 128 185 142 L209 214 L402 214 L426 145 C430 133 433 119 433 112 C433 88 421 82 376 82 L341 82 L341 0 L680 0 L680 82 Z M376 297 L236 297 L305 512 L376 297 Z " />
<glyph glyph-name="B" unicode="B" horiz-adv-x="693" d="M19 667 L19 585 L53 585 C103 586 110 578 110 524 L110 143 C110 89 103 81 53 82 L19 82 L19 0 L385 0 C489 0 543 10 584 39 C627 68 651 119 651 181 C651 231 635 272 604 303 C578 328 553 340 498 352 C542 368 561 378 581 398 C610 426 624 463 624 506 C624 558 604 604 569 629 C533 656 482 667 394 667 L19 667 Z M273 385 L273 585 L327 585 C381 585 405 579 425 562 C443 546 452 521 452 486 C452 412 417 385 322 385 L273 385 Z M273 81 L273 305 L330 305 C396 305 425 299 448 278 C469 261 479 233 479 194 C479 154 467 122 445 105 C422 87 394 81 332 81 L273 81 Z " />
<glyph glyph-name="C" unicode="C" horiz-adv-x="679" d="M547 258 C541 195 534 167 514 136 C488 93 443 69 391 69 C282 69 219 166 219 334 C219 502 282 599 392 599 C442 599 484 577 513 535 C536 501 545 472 553 404 L634 404 L634 675 L558 675 L540 621 C466 673 426 687 356 687 C171 687 33 536 33 334 C33 228 69 136 135 70 C195 10 271 -19 367 -19 C471 -19 538 11 586 80 C619 125 630 166 636 258 L547 258 Z " />
<glyph glyph-name="D" unicode="D" horiz-adv-x="759" d="M19 0 L352 0 C481 0 557 20 619 73 C687 130 722 218 722 334 C722 449 687 537 619 594 C557 647 482 667 352 667 L19 667 L19 585 L53 585 C103 586 110 578 110 524 L110 143 C110 89 104 81 53 82 L19 82 L19 0 Z M273 83 L273 585 L350 585 C418 585 471 562 497 521 C522 481 536 415 536 334 C536 252 522 186 497 146 C472 106 419 83 350 83 L273 83 Z " />
<glyph glyph-name="E" unicode="E" horiz-adv-x="708" d="M644 667 L19 667 L19 585 L54 585 C104 586 111 578 111 524 L111 143 C111 89 104 81 54 82 L19 82 L19 0 L643 0 L643 279 L564 279 C554 116 520 79 384 82 L274 82 L274 306 L308 306 C370 306 389 284 390 213 L390 182 L467 182 L467 500 L390 500 C387 405 377 391 308 389 L274 389 L274 585 L394 585 C526 588 555 558 566 408 L644 408 L644 667 Z " />
<glyph glyph-name="F" unicode="F" horiz-adv-x="651" d="M608 667 L19 667 L19 585 L54 585 C104 586 111 578 111 524 L111 143 C111 89 104 81 54 82 L19 82 L19 0 L372 0 L372 82 L331 82 C280 81 273 89 273 143 L273 306 L302 306 C352 306 367 285 369 213 L369 182 L445 182 L445 500 L369 500 C366 404 358 390 302 389 L274 389 L274 585 L359 585 C493 588 521 557 531 393 L608 393 L608 667 Z " />
<glyph glyph-name="G" unicode="G" horiz-adv-x="745" d="M725 273 L725 354 L394 354 L394 273 L443 273 C488 272 492 268 492 222 L492 168 C492 133 489 121 475 105 C456 82 423 69 387 69 C281 69 219 167 219 334 C219 502 282 599 391 599 C441 599 481 577 510 535 C533 501 543 472 550 404 L634 404 L634 675 L555 675 L537 621 C464 673 424 687 354 687 C169 687 33 536 33 332 C33 124 164 -20 352 -20 C426 -20 469 -5 541 47 L575 -7 L655 -7 L655 229 C656 265 663 273 694 273 L725 273 Z " />
<glyph glyph-name="H" unicode="H" horiz-adv-x="778" d="M359 667 L19 667 L19 585 L54 585 C104 586 111 578 111 524 L111 143 C111 89 104 81 54 82 L19 82 L19 0 L359 0 L359 82 L324 82 C280 81 273 89 274 143 L274 301 L504 301 L504 143 C504 89 498 81 454 82 L419 82 L419 0 L759 0 L759 82 L724 82 C674 81 667 89 667 143 L667 524 C667 578 674 586 724 585 L759 585 L759 667 L419 667 L419 585 L454 585 C498 586 504 578 504 524 L504 387 L274 387 L274 524 C273 578 280 586 324 585 L359 585 L359 667 Z " />
<glyph glyph-name="I" unicode="I" horiz-adv-x="391" d="M21 0 L370 0 L370 82 L333 82 C283 81 276 89 276 143 L276 524 C276 578 283 586 333 585 L370 585 L370 667 L21 667 L21 585 L56 585 C106 586 113 578 113 524 L113 143 C113 89 106 81 56 82 L21 82 L21 0 Z " />
<glyph glyph-name="J" unicode="J" horiz-adv-x="561" d="M193 585 L234 585 C285 586 292 578 292 524 L292 224 C292 151 289 130 277 107 C263 83 232 68 197 68 C158 68 142 76 116 106 C173 111 200 137 200 187 C200 236 165 271 117 271 C58 271 18 224 18 155 C18 53 111 -19 244 -19 C329 -19 393 9 425 61 C449 98 455 133 455 224 L455 524 C455 578 462 586 513 585 L543 585 L543 667 L193 667 L193 585 Z " />
<glyph glyph-name="K" unicode="K" horiz-adv-x="750" d="M354 667 L19 667 L19 585 L53 585 C104 586 111 578 111 524 L111 143 C111 89 104 81 53 82 L19 82 L19 0 L352 0 L352 82 L328 82 C278 81 271 89 271 143 L271 225 L370 319 L491 122 C496 113 499 106 499 101 C499 88 484 82 451 82 L417 82 L417 0 L764 0 L764 82 L730 82 C702 82 684 94 664 124 L478 418 L607 536 C647 572 675 586 707 585 L731 585 L731 667 L415 667 L415 585 L456 585 C481 585 489 581 489 569 C489 563 485 555 476 547 L271 351 L271 524 C271 578 278 586 328 585 L354 585 L354 667 Z " />
<glyph glyph-name="L" unicode="L" horiz-adv-x="651" d="M373 667 L19 667 L19 585 L54 585 C104 586 111 578 111 524 L111 143 C111 89 104 81 54 82 L19 82 L19 0 L615 0 L615 279 L537 279 C528 116 497 79 371 82 L274 82 L274 524 C274 578 281 586 332 585 L373 585 L373 667 Z " />
<glyph glyph-name="M" unicode="M" horiz-adv-x="925" d="M902 667 L596 667 L462 238 L331 667 L19 667 L19 585 L52 585 C103 586 110 578 110 524 L110 143 C110 89 103 81 52 82 L19 82 L19 0 L304 0 L304 82 L277 82 C226 81 219 89 219 143 L219 549 L385 0 L490 0 L657 550 L657 143 C657 89 650 81 600 82 L572 82 L572 0 L902 0 L902 82 L868 82 C817 81 810 89 810 143 L810 524 C810 578 817 586 868 585 L902 585 L902 667 Z " />
<glyph glyph-name="N" unicode="N" horiz-adv-x="774" d="M317 82 L276 82 C224 81 217 89 217 143 L217 522 L500 0 L667 0 L667 524 C667 578 674 586 725 585 L753 585 L753 667 L458 667 L458 585 L499 585 C551 586 558 578 558 524 L558 191 L299 667 L19 667 L19 585 L50 585 C101 586 108 578 108 524 L108 143 C108 89 101 81 50 82 L19 82 L19 0 L317 0 L317 82 Z " />
<glyph glyph-name="O" unicode="O" horiz-adv-x="769" d="M385 686 C174 686 33 544 33 334 C33 125 174 -19 380 -19 C486 -19 567 10 633 73 C701 138 736 226 736 335 C736 545 595 686 385 686 L385 686 Z M387 599 C436 599 480 571 509 523 C537 477 550 418 550 334 C550 167 489 69 385 69 C281 69 219 167 219 332 C219 418 231 475 260 523 C289 573 333 599 387 599 L387 599 Z " />
<glyph glyph-name="P" unicode="P" horiz-adv-x="670" d="M19 585 L54 585 C104 586 111 578 111 524 L111 143 C111 89 104 81 54 82 L19 82 L19 0 L373 0 L373 82 L332 82 C281 81 274 89 274 143 L274 295 L389 295 C486 295 535 307 575 340 C613 372 634 422 634 480 C634 537 614 586 579 618 C540 653 487 667 389 667 L19 667 L19 585 Z M274 377 L274 585 L330 585 C388 585 414 579 435 561 C455 545 464 519 464 482 C464 405 427 377 325 377 L274 377 Z " />
<glyph glyph-name="Q" unicode="Q" horiz-adv-x="783" d="M738 152 C737 122 737 105 736 102 C733 78 722 66 705 66 C688 66 674 74 651 97 C711 177 731 237 731 333 C731 545 590 686 380 686 C169 686 28 545 28 334 C28 123 169 -19 379 -19 C443 -19 483 -10 545 18 C601 -42 628 -59 670 -59 C715 -59 752 -35 774 9 C792 46 797 74 797 152 L738 152 Z M478 103 C435 70 410 60 374 60 C323 60 288 89 288 131 C288 166 312 192 345 192 C386 192 419 170 478 103 L478 103 Z M542 207 C484 267 430 294 367 294 C331 294 298 281 275 256 C253 232 245 208 242 155 C218 227 213 256 213 326 C213 498 274 599 379 599 C442 599 492 561 521 490 C538 448 546 391 546 308 C546 268 545 234 542 207 L542 207 Z " />
<glyph glyph-name="R" unicode="R" horiz-adv-x="741" d="M19 585 L54 585 C104 586 111 578 111 524 L111 143 C111 89 104 81 54 82 L19 82 L19 0 L373 0 L373 82 L332 82 C281 81 274 89 274 143 L274 310 L362 310 C421 313 451 281 453 211 L455 144 C456 74 463 46 485 22 C509 -4 549 -20 591 -20 C652 -20 699 10 719 63 C729 91 732 115 732 188 L664 188 C663 96 658 78 634 78 C614 78 609 91 608 142 L605 212 C600 297 578 323 497 344 C549 359 570 369 594 388 C629 415 647 455 647 504 C647 555 626 600 589 627 C551 655 497 667 411 667 L19 667 L19 585 Z M274 390 L274 585 L333 585 C412 585 425 583 448 564 C467 548 477 522 477 489 C477 454 466 425 446 410 C425 394 399 390 329 390 L274 390 Z " />
<glyph glyph-name="S" unicode="S" horiz-adv-x="623" d="M118 -5 L140 49 C212 -3 261 -20 343 -20 C500 -20 602 67 602 201 C602 265 573 322 525 352 C485 378 428 398 330 421 C216 449 191 466 191 518 C191 567 232 597 296 597 C348 597 399 578 432 546 C460 518 473 488 485 421 L565 421 L565 669 L495 669 L472 623 C402 671 358 686 285 686 C137 686 38 600 38 473 C38 412 65 356 109 326 C146 301 202 281 305 256 C418 229 445 210 445 157 C445 107 399 74 329 74 C276 74 228 92 192 126 C157 158 142 190 126 262 L44 262 L44 -5 L118 -5 Z " />
<glyph glyph-name="T" unicode="T" horiz-adv-x="646" d="M241 143 C241 89 234 81 184 82 L143 82 L143 0 L503 0 L503 82 L462 82 C411 81 404 89 404 143 L404 587 C508 588 544 541 545 402 L627 402 L627 667 L19 667 L19 402 L101 402 C102 541 138 588 241 587 L241 143 Z " />
<glyph glyph-name="U" unicode="U" horiz-adv-x="726" d="M705 667 L419 667 L419 585 L458 585 C506 586 512 578 512 524 L512 211 C512 158 505 131 487 111 C467 91 428 78 382 78 C347 78 321 86 302 104 C278 125 270 155 270 217 L270 524 C270 578 277 586 327 585 L368 585 L368 667 L19 667 L19 585 L49 585 C100 586 107 578 107 524 L107 206 C107 136 122 91 159 51 C204 2 268 -21 356 -21 C532 -21 622 58 622 213 L622 524 C622 579 628 586 676 585 L705 585 L705 667 Z " />
<glyph glyph-name="V" unicode="V" horiz-adv-x="670" d="M-14 585 L10 585 C51 584 67 569 86 519 L255 0 L407 0 L582 514 C599 569 614 583 654 585 L681 585 L681 667 L391 667 L391 587 L436 585 C479 583 483 581 483 561 C483 549 481 538 477 526 L357 169 L245 522 C240 538 237 551 237 560 C237 580 247 585 290 585 L332 585 L332 667 L-14 667 L-14 585 Z " />
<glyph glyph-name="W" unicode="W" horiz-adv-x="925" d="M336 585 C383 585 394 575 414 519 L425 486 L326 169 L233 523 C228 539 226 553 226 561 C226 581 234 585 274 585 L294 585 L294 667 L14 667 L14 585 C57 583 69 572 86 519 L226 0 L373 0 L469 316 L553 0 L701 0 L838 515 C854 568 868 584 904 585 L921 585 L921 667 L673 667 L673 587 L705 587 C736 587 748 580 748 562 C748 553 746 542 742 527 L653 169 L560 523 C554 549 553 551 553 557 C553 579 564 585 602 585 L631 585 L631 667 L336 667 L336 585 Z " />
<glyph glyph-name="X" unicode="X" horiz-adv-x="703" d="M8 585 L39 585 C68 584 80 577 100 550 L269 327 L115 145 C72 94 59 86 27 82 L-14 82 L-14 0 L298 0 L298 82 L272 82 C237 82 224 88 224 103 C224 113 229 123 242 139 L328 248 L413 133 C421 123 425 112 425 102 C425 90 409 82 384 82 L350 82 L350 0 L710 0 L710 82 L670 82 C641 83 629 90 609 117 L427 360 L587 547 C610 576 622 583 651 585 L686 585 L686 667 L395 667 L395 585 L415 585 C446 585 459 579 459 563 C459 555 455 547 440 530 L364 438 L296 534 C288 545 284 556 284 564 C284 577 299 585 325 585 L344 585 L344 667 L8 667 L8 585 Z " />
<glyph glyph-name="Y" unicode="Y" horiz-adv-x="665" d="M-14 585 L10 585 C44 587 73 565 105 514 L250 277 L250 143 C250 89 243 81 192 82 L146 82 L146 0 L518 0 L518 82 L471 82 C420 81 413 89 413 143 L413 277 L567 520 C600 572 618 586 655 585 L677 585 L677 667 L394 667 L394 587 L426 587 C457 587 472 580 472 563 C472 555 468 545 463 537 L360 389 L268 528 C260 540 255 551 255 559 C255 579 267 585 303 585 L332 585 L332 667 L-14 667 L-14 585 Z " />
<glyph glyph-name="Z" unicode="Z" horiz-adv-x="618" d="M19 0 L573 0 L573 286 L489 286 C480 124 449 86 323 81 L203 81 L573 575 L573 667 L39 667 L39 403 L117 403 C125 544 162 585 278 585 L391 585 L19 84 L19 0 Z " />
<glyph glyph-name="bracketleft" unicode="&#x5b;" horiz-adv-x="377" d="M360 -176 L360 -99 L255 -99 L255 590 L360 590 L360 667 L108 667 L108 -176 L360 -176 Z " />
<glyph glyph-name="backslash" unicode="&#x5c;" horiz-adv-x="364" d="M281 -92 L355 -92 L112 686 L38 686 L281 -92 Z " />
<glyph glyph-name="bracketright" unicode="&#x5d;" horiz-adv-x="377" d="M19 667 L19 590 L123 590 L123 -100 L19 -100 L19 -177 L270 -177 L270 667 L19 667 Z " />
<glyph glyph-name="asciicircum" unicode="&#x5e;" horiz-adv-x="475" d="M136 353 L237 575 L339 353 L459 353 L312 670 L162 670 L16 353 L136 353 Z " />
<glyph glyph-name="underscore" unicode="&#x5f;" horiz-adv-x="500" d="M0 -58 L0 -143 L500 -143 L500 -58 L0 -58 Z " />
<glyph glyph-name="grave" unicode="&#x60;" horiz-adv-x="488" d="M331 540 L196 683 C163 718 144 730 121 730 C90 730 67 707 67 677 C67 653 81 637 117 619 L276 540 L331 540 Z " />
<glyph glyph-name="a" unicode="a" horiz-adv-x="557" d="M544 173 L484 173 L484 120 C484 88 477 74 462 74 C448 74 441 90 441 120 L441 313 C441 393 434 415 403 442 C368 471 316 486 246 486 C120 486 40 436 40 358 C40 313 71 282 116 282 C157 282 189 310 189 345 C189 377 170 397 135 402 C158 423 177 430 211 430 C267 430 304 398 304 351 C304 302 278 281 200 264 C132 249 93 235 66 215 C37 193 20 157 20 116 C20 34 75 -18 161 -18 C221 -18 261 1 313 54 C338 1 366 -17 425 -17 C465 -17 497 -4 518 20 C538 44 544 70 544 127 L544 173 Z M300 169 C300 108 272 73 223 73 C193 73 173 94 173 128 C173 143 178 157 188 170 C197 183 208 189 250 210 C257 213 278 224 300 237 L300 169 Z " />
<glyph glyph-name="b" unicode="b" horiz-adv-x="580" d="M5 593 L23 593 C66 588 72 581 72 534 L72 -4 L158 -4 L200 66 C243 3 283 -18 355 -18 C478 -18 546 71 546 234 C546 388 477 483 366 483 C302 483 263 458 215 385 L215 667 L5 667 L5 593 Z M303 393 C362 393 389 341 389 231 C389 119 361 66 303 66 C276 66 256 78 241 105 C223 135 217 169 217 239 C217 343 245 393 303 393 L303 393 Z " />
<glyph glyph-name="c" unicode="c" horiz-adv-x="495" d="M367 179 C356 101 330 69 274 69 C245 69 219 83 206 107 C190 136 181 186 181 242 C181 353 216 410 284 410 C312 410 329 403 358 379 C317 370 299 348 299 310 C299 267 330 236 374 236 C425 236 460 274 460 331 C460 421 380 487 271 487 C206 487 145 464 100 423 C49 376 24 313 24 230 C24 79 116 -18 258 -18 C332 -18 390 9 421 57 C442 90 449 118 450 179 L367 179 Z " />
<glyph glyph-name="d" unicode="d" horiz-adv-x="585" d="M355 394 C316 460 279 483 212 483 C93 483 24 392 24 235 C24 76 93 -17 212 -17 C249 -17 285 -7 311 12 C331 25 343 41 362 75 L362 0 L570 0 L570 70 L544 70 C503 73 498 80 498 130 L498 667 L269 667 L269 593 L288 593 C347 591 355 584 355 534 L355 394 Z M268 393 C296 393 316 382 333 358 C351 330 357 301 357 234 C357 122 328 67 268 67 C209 67 181 120 181 231 C181 342 209 393 268 393 L268 393 Z " />
<glyph glyph-name="e" unicode="e" horiz-adv-x="514" d="M383 161 C368 95 339 69 279 69 C241 69 216 82 198 109 C181 136 176 161 174 218 L485 218 C483 318 469 368 430 414 C391 461 330 488 259 488 C118 488 24 384 24 228 C24 79 117 -18 261 -18 C336 -18 397 7 436 55 C459 84 468 108 475 161 L383 161 Z M177 294 C178 337 182 356 193 375 C207 397 230 409 259 409 C288 409 311 397 325 375 C337 356 341 337 342 294 L177 294 Z " />
<glyph glyph-name="f" unicode="f" horiz-adv-x="354" d="M321 74 L288 74 C248 76 242 84 242 133 L242 389 L329 389 L329 469 L242 469 L242 528 C242 603 255 628 296 628 C308 628 317 625 333 616 C304 601 294 588 294 563 C294 529 320 504 355 504 C395 504 422 532 422 575 C422 640 362 685 274 685 C214 685 159 662 130 623 C108 595 99 562 99 507 L99 469 L24 469 L24 389 L99 389 L99 133 C98 83 92 76 51 74 L24 74 L24 0 L321 0 L321 74 Z " />
<glyph glyph-name="g" unicode="g" horiz-adv-x="604" d="M106 165 C48 138 28 113 28 68 C28 22 48 -4 102 -27 C41 -45 19 -67 19 -110 C19 -179 98 -214 256 -214 C441 -214 529 -163 529 -56 C529 30 470 74 354 74 C345 74 326 74 305 73 C274 72 247 72 237 72 C148 72 133 77 133 106 C133 119 138 127 154 139 C196 124 216 120 250 120 C379 120 462 188 462 293 C462 338 453 369 431 404 C456 429 473 439 488 439 C496 439 505 436 519 428 C495 416 483 398 483 373 C483 341 510 316 543 316 C581 316 607 345 607 388 C607 444 564 484 503 484 C467 484 445 474 404 440 C353 475 317 486 257 486 C130 486 47 415 47 306 C47 252 64 213 106 165 L106 165 Z M255 420 C300 420 316 388 316 298 C316 214 299 181 253 181 C212 181 193 218 193 296 C193 384 211 420 255 420 L255 420 Z M273 -46 C303 -46 342 -49 366 -52 C410 -58 424 -69 424 -97 C424 -135 375 -152 268 -152 C160 -152 119 -136 119 -95 C119 -72 132 -59 165 -53 C186 -49 235 -46 273 -46 L273 -46 Z " />
<glyph glyph-name="h" unicode="h" horiz-adv-x="623" d="M326 0 L604 0 L604 74 L583 74 C537 76 531 83 531 133 L531 311 C531 382 522 418 498 443 C475 469 434 484 390 484 C324 484 283 460 232 391 L232 667 L19 667 L19 593 L41 593 C83 591 88 584 89 534 L89 133 C88 83 83 76 41 74 L19 74 L19 0 L293 0 L293 74 L277 74 C237 76 232 83 232 133 L232 272 C232 349 270 401 326 401 C348 401 366 392 376 376 C386 361 388 347 388 309 L388 133 C388 83 382 76 342 74 L326 74 L326 0 Z " />
<glyph glyph-name="i" unicode="i" horiz-adv-x="335" d="M314 74 L287 74 C247 76 241 83 241 133 L241 469 L24 469 L24 395 L52 395 C95 393 101 386 102 336 L102 133 C101 83 95 76 52 74 L24 74 L24 0 L314 0 L314 74 Z M160 667 C118 667 83 633 83 591 C83 546 116 512 161 512 C204 512 238 546 238 590 C238 632 203 667 160 667 L160 667 Z " />
<glyph glyph-name="j" unicode="j" horiz-adv-x="323" d="M168 667 C126 667 91 633 91 591 C91 546 124 512 169 512 C212 512 246 546 246 590 C246 632 211 667 168 667 L168 667 Z M16 395 L49 395 C95 393 101 386 102 336 L102 -64 C102 -134 89 -157 51 -157 C42 -157 34 -155 19 -149 C48 -135 59 -121 59 -96 C59 -62 36 -38 3 -38 C-36 -38 -62 -68 -62 -113 C-62 -176 -10 -214 77 -214 C139 -214 189 -194 217 -159 C242 -128 245 -111 245 -12 L245 469 L16 469 L16 395 Z " />
<glyph glyph-name="k" unicode="k" horiz-adv-x="618" d="M14 593 L42 593 C85 591 91 584 92 534 L92 133 C91 83 85 76 42 74 L14 74 L14 0 L284 0 L284 74 L273 74 C234 78 232 82 231 143 L309 215 L375 115 C381 105 385 95 385 89 C385 79 375 74 359 74 L329 74 L329 0 L605 0 L605 74 L589 74 C560 73 533 92 511 128 L405 295 L469 352 C502 383 517 391 550 395 L574 395 L574 469 L296 469 L296 395 L354 395 C371 395 377 393 377 385 C377 380 372 372 361 362 L231 243 L231 667 L14 667 L14 593 Z " />
<glyph glyph-name="l" unicode="l" horiz-adv-x="321" d="M231 667 L14 667 L14 593 L42 593 C85 591 91 584 92 534 L92 133 C91 83 85 76 42 74 L14 74 L14 0 L304 0 L304 74 L277 74 C237 76 231 83 231 133 L231 667 Z " />
<glyph glyph-name="m" unicode="m" horiz-adv-x="887" d="M19 0 L289 0 L289 74 L280 74 C241 76 236 84 236 133 L236 272 C236 347 274 401 327 401 C344 401 359 391 366 376 C372 361 374 347 374 309 L374 133 C374 83 370 76 340 74 L323 74 L323 0 L569 0 L569 74 L557 74 C522 77 517 85 517 133 L517 272 C517 348 555 401 609 401 C626 401 640 391 647 376 C653 361 655 347 655 309 L655 133 C655 83 651 76 622 74 L605 74 L605 0 L869 0 L869 74 L846 74 C803 76 798 83 798 133 L798 311 C798 382 790 417 768 443 C747 469 709 484 668 484 C610 484 572 461 512 390 C487 460 456 484 394 484 C327 484 288 461 230 391 L230 469 L19 469 L19 395 L45 395 C86 393 92 386 93 336 L93 133 C92 83 86 76 45 74 L19 74 L19 0 Z " />
<glyph glyph-name="n" unicode="n" horiz-adv-x="623" d="M330 0 L605 0 L605 74 L586 74 C541 76 535 83 535 133 L535 311 C535 382 526 418 502 443 C478 469 436 484 391 484 C328 484 293 463 230 385 L230 469 L19 469 L19 395 L45 395 C86 393 92 386 93 336 L93 133 C92 83 86 76 45 74 L19 74 L19 0 L297 0 L297 74 L282 74 C241 76 236 83 236 133 L236 272 C236 349 274 401 330 401 C352 401 370 392 380 376 C390 361 392 347 392 309 L392 133 C392 83 386 76 346 74 L330 74 L330 0 Z " />
<glyph glyph-name="o" unicode="o" horiz-adv-x="561" d="M281 486 C129 486 26 386 26 238 C26 82 125 -17 282 -17 C435 -17 536 83 536 234 C536 387 435 486 281 486 L281 486 Z M281 409 C347 409 379 351 379 235 C379 117 347 60 281 60 C215 60 183 117 183 237 C183 351 216 409 281 409 L281 409 Z " />
<glyph glyph-name="p" unicode="p" horiz-adv-x="594" d="M219 469 L14 469 L14 395 L35 395 C77 393 82 386 82 336 L82 -81 C82 -131 77 -138 35 -140 L14 -140 L14 -214 L306 -214 L306 -140 L285 -140 C232 -138 225 -131 225 -81 L225 78 C258 8 295 -17 366 -17 C483 -17 552 75 552 231 C552 388 484 484 372 484 C304 484 267 460 219 385 L219 469 Z M309 400 C367 400 395 346 395 235 C395 125 367 73 309 73 C282 73 262 85 247 108 C229 137 223 167 223 234 C223 345 252 400 309 400 L309 400 Z " />
<glyph glyph-name="q" unicode="q" horiz-adv-x="585" d="M279 -214 L573 -214 L573 -140 L551 -140 C510 -137 504 -130 503 -80 L503 336 C504 386 510 393 551 395 L573 395 L573 469 L367 469 L367 391 C319 463 281 487 216 487 C104 487 33 388 33 231 C33 75 102 -17 219 -17 C251 -17 282 -9 306 6 C327 19 342 38 361 78 L361 -80 C361 -130 354 -137 300 -140 L279 -140 L279 -214 Z M276 400 C303 400 323 388 339 361 C357 333 363 297 363 228 C363 124 335 73 276 73 C218 73 190 125 190 235 C190 347 218 400 276 400 L276 400 Z " />
<glyph glyph-name="r" unicode="r" horiz-adv-x="462" d="M226 469 L19 469 L19 395 L41 395 C83 393 88 386 89 336 L89 133 C88 83 83 76 41 74 L19 74 L19 0 L320 0 L320 74 L278 74 C238 76 232 84 232 133 L232 253 C232 322 238 353 258 383 C275 408 300 423 325 423 C333 423 340 421 352 414 C318 401 303 381 303 349 C303 312 331 285 369 285 C417 285 450 323 450 376 C450 440 407 482 343 482 C292 482 260 461 226 408 L226 469 Z " />
<glyph glyph-name="s" unicode="s" horiz-adv-x="514" d="M125 30 C186 -5 231 -18 288 -18 C398 -18 475 47 475 138 C475 190 451 234 410 258 C383 273 346 286 289 302 C223 320 216 322 202 335 C194 341 189 353 189 365 C189 394 212 412 249 412 C273 412 300 404 321 391 C345 376 361 358 387 314 L451 314 L451 474 L387 474 L373 445 C320 476 284 487 229 487 C119 487 41 423 41 333 C41 290 59 255 94 230 C121 211 161 192 198 182 C291 157 293 156 310 145 C323 136 329 126 329 112 C329 81 301 61 256 61 C224 61 198 69 174 87 C145 108 133 127 117 176 L43 176 L43 -7 L109 -7 L125 30 Z " />
<glyph glyph-name="t" unicode="t" horiz-adv-x="410" d="M287 224 L287 180 C287 99 279 76 250 76 C226 76 219 92 219 144 L219 391 L332 391 L332 469 L216 469 L216 652 L140 652 C126 528 99 488 14 463 L14 391 L77 391 L77 170 C77 93 81 72 99 41 C122 3 164 -17 218 -17 C274 -17 312 1 336 38 C353 66 359 94 359 154 L359 224 L287 224 Z " />
<glyph glyph-name="u" unicode="u" horiz-adv-x="623" d="M19 395 L37 395 C87 393 94 386 94 336 L94 156 C94 85 103 49 127 24 C150 -2 191 -17 236 -17 C300 -17 340 6 395 76 L395 0 L604 0 L604 74 L577 74 C536 76 531 83 531 133 L531 469 L310 469 L310 395 L337 395 C382 393 388 386 388 336 L388 194 C388 118 351 66 297 66 C276 66 258 75 248 91 C240 105 237 120 237 157 L237 469 L19 469 L19 395 Z " />
<glyph glyph-name="v" unicode="v" horiz-adv-x="533" d="M290 108 L220 343 C217 353 215 364 215 370 C215 388 227 396 254 396 C260 396 263 396 270 395 L270 469 L5 469 L5 395 C57 393 68 383 87 329 L190 0 L338 0 L449 328 C469 390 475 395 520 395 L528 395 L528 469 L312 469 L312 395 L333 395 C359 395 373 388 373 376 C373 368 371 358 364 338 L290 108 Z " />
<glyph glyph-name="w" unicode="w" horiz-adv-x="792" d="M266 469 L5 469 L5 395 C59 393 72 382 91 329 L186 0 L322 0 L403 245 L472 0 L610 0 L712 328 C730 388 737 395 787 395 L787 469 L585 469 L585 395 L597 395 C622 395 636 388 636 376 C636 368 634 359 628 338 L561 112 L496 343 C493 353 491 364 491 370 C491 388 500 394 528 396 C530 396 535 396 540 395 L540 469 L305 469 L305 395 L320 395 C347 395 359 388 359 371 C359 365 359 365 350 338 L282 113 L226 343 C223 358 221 367 221 371 C221 389 231 395 257 395 L266 395 L266 469 Z " />
<glyph glyph-name="x" unicode="x" horiz-adv-x="609" d="M18 395 C66 393 84 383 122 341 L219 231 L107 123 C63 80 50 74 0 74 L0 0 L244 0 L244 74 L225 74 C206 74 197 78 197 86 C197 93 204 104 213 113 L273 172 L319 116 C327 107 333 94 333 85 C333 77 324 74 304 74 L291 74 L291 0 L589 0 L589 74 C536 76 521 83 480 128 L369 250 L474 345 C514 381 542 395 578 395 L587 395 L587 469 L342 469 L342 395 C346 396 349 396 351 396 C367 397 379 391 379 381 C379 376 375 368 366 359 L316 303 L277 352 C265 368 261 375 261 382 C261 390 271 395 288 396 C291 396 296 396 302 395 L302 469 L18 469 L18 395 Z " />
<glyph glyph-name="y" unicode="y" horiz-adv-x="538" d="M452 326 C474 386 485 395 535 396 L535 469 L322 469 L322 396 L341 396 C367 396 381 389 381 375 C381 367 378 355 371 338 L300 152 L222 343 C218 353 216 363 216 372 C216 389 227 396 256 396 L276 396 L276 469 L0 469 L0 396 C54 395 64 387 89 327 L230 -16 C208 -80 194 -106 170 -130 C154 -144 133 -154 116 -154 C99 -154 87 -148 68 -130 C96 -129 110 -125 121 -116 C136 -105 145 -85 145 -64 C145 -24 116 3 73 3 C26 3 -6 -34 -6 -90 C-6 -164 49 -216 125 -216 C205 -216 262 -162 310 -38 L452 326 Z " />
<glyph glyph-name="z" unicode="z" horiz-adv-x="505" d="M28 0 L451 0 L451 218 L376 218 C375 96 360 76 267 74 L186 74 L451 389 L451 469 L48 469 L48 267 L119 267 C121 382 134 397 228 395 L293 395 L28 83 L28 0 Z " />
<glyph glyph-name="braceleft" unicode="&#x7b;" horiz-adv-x="377" d="M265 510 C264 590 272 597 360 596 L360 668 C316 670 307 670 298 670 C228 670 193 662 168 639 C142 617 131 582 131 528 L131 361 C130 305 118 283 81 274 L81 205 C119 195 131 173 131 115 L131 -46 C131 -155 171 -191 295 -191 C312 -191 327 -191 360 -189 L360 -117 C270 -117 264 -112 265 -30 L265 115 C264 182 249 213 205 239 C250 267 263 293 265 363 L265 510 Z " />
<glyph glyph-name="bar" unicode="&#x7c;" horiz-adv-x="482" d="M170 667 L170 -167 L312 -167 L312 667 L170 667 Z " />
<glyph glyph-name="braceright" unicode="&#x7d;" horiz-adv-x="377" d="M113 -31 C115 -101 106 -114 54 -117 L33 -117 L17 -117 L17 -189 C60 -191 69 -191 80 -191 C206 -191 247 -156 247 -49 L247 118 C248 174 260 196 296 205 L296 274 C259 284 247 306 247 364 L247 525 C247 634 207 670 83 670 C67 670 58 670 17 668 L17 596 C107 597 114 590 113 509 L113 363 C114 297 129 266 173 239 C128 212 115 186 113 116 L113 -31 Z " />
<glyph glyph-name="asciitilde" unicode="&#x7e;" horiz-adv-x="657" d="M158 556 C183 602 202 619 230 619 C245 619 263 614 287 604 C394 558 398 557 423 557 C462 557 498 576 526 611 C542 631 553 652 571 692 L501 749 C476 704 456 686 428 686 C409 686 400 689 345 714 C288 739 261 747 234 747 C172 747 126 705 88 613 L158 556 Z " />
<glyph glyph-name="uni00A0" unicode="&#xa0;" horiz-adv-x="250" d="" />
<glyph glyph-name="exclamdown" unicode="&#xa1;" horiz-adv-x="297" d="M150 483 C109 483 76 448 76 405 C76 362 109 326 149 326 C192 326 225 360 225 405 C225 448 192 483 150 483 L150 483 Z M114 267 C108 175 103 134 83 -9 C73 -81 71 -102 71 -126 C71 -186 99 -220 150 -220 C202 -220 230 -187 230 -127 C230 -101 228 -80 218 -9 C198 128 193 173 187 267 L114 267 Z " />
<glyph glyph-name="cent" unicode="&#xa2;" horiz-adv-x="594" d="M128 -101 L189 -101 L243 9 C276 2 291 0 312 0 C396 0 458 36 485 101 C498 133 500 147 501 197 L418 197 C411 148 402 126 381 107 C367 94 346 86 326 86 C315 86 305 88 286 95 L375 274 C394 258 404 254 425 254 C476 254 511 292 511 348 C511 388 500 413 464 455 L522 570 L462 570 L419 485 C380 502 361 506 325 506 C174 506 75 403 75 247 C75 142 114 69 192 28 L128 -101 Z M248 139 C232 187 228 214 228 259 C228 367 267 428 335 428 C363 428 380 421 409 397 C381 390 377 388 360 365 L248 139 Z " />
<glyph glyph-name="sterling" unicode="&#xa3;" horiz-adv-x="594" d="M68 -16 C132 29 164 44 200 44 C224 44 241 39 320 7 C358 -8 394 -17 420 -17 C458 -17 499 7 523 44 C544 75 553 112 553 167 L552 202 L490 202 C486 134 474 111 443 111 C429 111 410 116 392 123 C320 154 316 155 288 155 C263 155 240 149 189 128 C250 175 268 207 270 268 L381 268 L381 336 L265 336 C246 427 244 439 244 465 C244 518 284 555 342 555 C376 555 396 546 430 517 C396 498 384 481 384 454 C384 414 419 382 461 382 C508 382 541 417 541 468 C541 559 446 623 312 623 C227 623 163 598 121 549 C95 519 82 483 82 446 C82 414 89 388 113 336 L43 336 L43 268 L133 268 C134 255 135 238 135 232 C135 167 110 128 33 75 L68 -16 Z " />
<glyph glyph-name="currency" unicode="&#xa4;" horiz-adv-x="633" d="M19 137 L85 67 L183 169 C232 137 269 125 316 125 C364 125 406 139 451 170 L548 67 L614 138 L517 241 C546 288 558 328 558 377 C558 427 546 466 515 517 L612 619 L545 689 L447 587 C404 616 365 629 317 629 C268 629 228 616 184 586 L85 690 L18 619 L117 515 C88 469 75 428 75 378 C75 329 89 283 116 240 L19 137 Z M318 512 C384 512 439 451 439 377 C439 302 384 242 316 242 C249 242 194 303 194 377 C194 453 248 512 318 512 L318 512 Z " />
<glyph glyph-name="yen" unicode="&#xa5;" horiz-adv-x="666" d="M487 379 L547 472 C578 520 593 531 626 531 L646 531 L646 605 L390 605 L390 533 L420 533 C448 533 461 526 461 511 C461 503 458 495 452 487 L360 353 L276 478 C270 488 265 500 265 507 C265 525 276 531 308 531 L334 531 L334 605 L20 605 L20 531 L42 531 C74 532 98 513 128 466 L182 379 L91 379 L91 311 L223 311 L257 255 L100 255 L100 187 L260 187 L260 130 C260 80 254 73 207 74 L165 74 L165 0 L502 0 L502 74 L460 74 C414 73 408 80 408 130 L408 187 L567 187 L567 255 L411 255 L446 311 L576 311 L576 379 L487 379 Z " />
<glyph glyph-name="brokenbar" unicode="&#xa6;" horiz-adv-x="482" d="M170 667 L170 317 L312 317 L312 667 L170 667 Z M170 153 L170 -167 L312 -167 L312 153 L170 153 Z " />
<glyph glyph-name="section" unicode="&#xa7;" horiz-adv-x="566" d="M161 395 C79 349 52 311 52 243 C52 156 100 112 256 56 C359 19 386 -4 386 -54 C386 -111 336 -150 265 -150 C231 -150 208 -143 178 -123 C205 -104 215 -88 215 -62 C215 -23 191 2 153 2 C109 2 79 -31 79 -80 C79 -156 161 -211 275 -211 C409 -211 493 -141 493 -29 C493 32 474 64 411 109 C446 128 461 138 477 154 C505 181 520 217 520 256 C520 307 494 355 449 384 C408 410 378 424 261 469 C209 489 190 509 190 546 C190 594 232 626 296 626 C327 626 342 622 375 605 C353 586 346 574 346 554 C346 519 372 494 408 494 C448 494 477 524 477 566 C477 637 400 688 292 688 C172 688 86 619 86 522 C86 469 107 433 161 395 L161 395 Z M150 279 C150 312 155 323 172 336 C186 347 201 352 220 352 C247 352 351 312 385 288 C414 268 416 263 416 225 C416 202 412 186 405 177 C389 159 364 146 346 148 C330 149 254 178 206 201 C162 221 149 237 150 268 L150 279 Z " />
<glyph glyph-name="dieresis" unicode="&#xa8;" horiz-adv-x="482" d="M153 699 C115 699 82 667 82 630 C82 591 113 560 153 560 C191 560 221 590 221 629 C221 668 190 699 153 699 L153 699 Z M333 699 C295 699 262 667 262 630 C262 591 293 560 333 560 C371 560 401 590 401 629 C401 668 370 699 333 699 L333 699 Z " />
<glyph glyph-name="copyright" unicode="&#xa9;" horiz-adv-x="757" d="M483 294 C480 258 476 242 465 224 C451 201 426 188 397 188 C337 188 303 241 303 334 C303 426 337 479 398 479 C450 479 479 444 487 370 L539 370 L539 528 L490 528 L481 499 C440 527 417 535 378 535 C270 535 190 449 190 334 C190 214 268 132 384 132 C444 132 483 149 511 189 C530 215 537 239 541 294 L483 294 Z M384 685 C187 685 33 530 33 333 C33 140 189 -18 379 -18 C570 -18 724 139 724 333 C724 525 570 685 384 685 L384 685 Z M383 622 C530 622 652 491 652 333 C652 174 530 45 379 45 C229 45 105 175 105 333 C105 495 227 622 383 622 L383 622 Z " />
<glyph glyph-name="ordfeminine" unicode="&#xaa;" horiz-adv-x="362" d="M354 437 L309 437 L309 403 C309 385 306 378 297 378 C289 378 285 386 285 403 L285 516 C285 558 282 570 270 586 C250 609 210 622 159 622 C77 622 25 591 25 543 C25 515 47 495 77 495 C105 495 127 513 127 535 C127 554 117 567 98 571 C109 579 120 582 138 582 C173 582 196 565 196 538 C196 512 180 500 131 491 C43 473 12 450 12 400 C12 350 49 318 106 318 C145 318 170 328 203 358 C219 329 238 318 275 318 C330 318 354 345 354 407 L354 437 Z M193 431 C193 397 176 378 146 378 C128 378 117 389 117 407 C117 427 126 435 164 452 C169 454 180 460 193 466 L193 431 Z " />
<glyph glyph-name="guillemotleft" unicode="&#xab;" horiz-adv-x="458" d="M331 72 L411 72 L381 139 C368 167 356 216 356 238 C356 254 370 314 378 336 L405 403 L331 403 L292 346 C258 297 238 257 238 238 C238 218 258 178 292 129 L331 72 Z M145 72 L224 72 L194 139 C182 166 170 216 170 238 C170 254 183 315 192 336 L219 403 L145 403 L105 346 C73 299 52 257 52 238 C52 218 73 176 105 129 L145 72 Z " />
<glyph glyph-name="logicalnot" unicode="&#xac;" horiz-adv-x="475" d="M306 0 L444 0 L444 289 L32 289 L32 165 L306 165 L306 0 Z " />
<glyph glyph-name="uni00AD" unicode="&#xad;" horiz-adv-x="261" d="M0 172 L261 172 L261 299 L0 299 L0 172 Z " />
<glyph glyph-name="registered" unicode="&#xae;" horiz-adv-x="757" d="M188 471 L210 471 C238 471 240 468 240 440 L240 226 C240 198 238 195 210 195 L188 195 L188 143 L396 143 L396 195 L370 195 C342 195 340 198 340 226 L340 316 L387 316 C419 317 434 301 435 265 L436 227 C437 187 441 171 455 156 C469 141 492 132 517 132 C546 132 572 145 585 164 C597 183 601 202 601 243 L601 255 L556 255 C555 203 553 193 542 193 C533 193 531 199 530 226 L528 265 C526 310 513 328 475 339 C529 355 552 383 552 428 C552 492 507 523 414 523 L188 523 L188 471 Z M340 368 L340 471 L371 471 C414 471 421 469 434 459 C444 451 449 438 449 420 C449 379 432 368 368 368 L340 368 Z M384 685 C187 685 33 530 33 333 C33 140 189 -18 379 -18 C570 -18 724 139 724 333 C724 525 570 685 384 685 L384 685 Z M383 622 C530 622 652 491 652 333 C652 174 530 45 379 45 C229 45 105 175 105 333 C105 495 227 622 383 622 L383 622 Z " />
<glyph glyph-name="macron" unicode="&#xaf;" horiz-adv-x="490" d="M96 588 L394 588 L394 670 L96 670 L96 588 Z " />
<glyph glyph-name="degree" unicode="&#xb0;" horiz-adv-x="400" d="M203 686 C117 686 50 619 50 534 C50 448 116 381 200 381 C284 381 350 448 350 533 C350 619 286 686 203 686 L203 686 Z M202 629 C252 629 293 586 293 534 C293 480 252 438 200 438 C148 438 106 481 106 533 C106 587 148 629 202 629 L202 629 Z " />
<glyph glyph-name="plusminus" unicode="&#xb1;" horiz-adv-x="549" d="M11 55 L11 0 L535 0 L535 55 L11 55 Z M302 662 L247 662 L247 423 L10 423 L10 368 L247 368 L247 129 L302 129 L302 368 L539 368 L539 423 L302 423 L302 662 Z " />
<glyph glyph-name="twosuperior" unicode="&#xb2;" horiz-adv-x="373" d="M75 266 C82 288 89 296 106 296 C115 296 129 292 147 285 C205 260 221 256 250 256 C298 256 332 281 340 322 C344 340 344 341 344 386 L302 386 C300 346 289 332 260 332 C249 332 234 334 206 341 C183 346 166 349 156 349 C137 349 123 345 94 332 C114 363 130 373 190 389 C269 409 269 409 292 423 C320 439 336 469 336 503 C336 569 275 615 188 615 C101 615 35 568 35 507 C35 473 59 449 93 449 C123 449 146 468 146 494 C146 515 129 531 108 531 C104 531 97 530 89 528 C100 557 120 569 155 569 C198 569 228 545 228 509 C228 480 213 461 177 443 C61 390 28 350 31 266 L75 266 Z " />
<glyph glyph-name="threesuperior" unicode="&#xb3;" horiz-adv-x="373" d="M147 424 C183 422 195 420 206 414 C223 405 234 385 234 364 C234 324 203 300 154 300 C122 300 106 305 84 321 C118 326 132 338 132 362 C132 388 111 408 82 408 C47 408 24 385 24 350 C24 293 82 257 175 257 C279 257 340 295 340 361 C340 407 315 431 248 450 C308 464 331 484 331 525 C331 580 275 615 187 615 C100 615 36 576 36 524 C36 496 57 476 88 476 C117 476 138 494 138 518 C138 539 125 550 95 555 C115 569 134 575 161 575 C201 575 225 555 225 521 C225 484 205 470 147 469 L147 424 Z " />
<glyph glyph-name="acute" unicode="&#xb4;" horiz-adv-x="488" d="M144 540 L199 540 L357 619 C394 637 408 653 408 677 C408 707 385 730 355 730 C331 730 312 718 279 683 L144 540 Z " />
<glyph glyph-name="mu" unicode="&#xb5;" horiz-adv-x="576" d="M442 500 L353 500 L354 131 C318 80 284 58 242 58 C184 58 150 99 150 169 L150 500 L62 500 L62 20 C62 -1 58 -26 51 -56 C34 -118 33 -123 33 -147 C33 -190 54 -219 83 -219 C112 -219 132 -189 132 -145 C132 -124 129 -110 113 -53 C102 -17 101 -8 101 21 L101 33 C143 -3 165 -13 200 -13 C250 -13 301 18 354 80 C362 48 367 36 377 21 C392 0 419 -13 449 -13 C510 -13 553 31 567 108 L540 109 C536 71 515 41 492 41 C462 41 442 77 442 131 L442 500 Z " />
<glyph glyph-name="paragraph" unicode="&#xb6;" horiz-adv-x="624" d="M205 -93 L310 -93 L310 572 L384 572 L384 -93 L489 -93 L489 572 L554 572 L554 667 L244 667 C186 667 134 657 103 640 C53 611 25 557 25 490 C25 389 93 320 194 320 C195 320 200 320 205 321 L205 -93 Z " />
<glyph glyph-name="periodcentered" unicode="&#xb7;" horiz-adv-x="297" d="M150 313 C109 313 75 278 75 237 C75 191 108 156 150 156 C192 156 225 191 225 235 C225 278 192 313 150 313 L150 313 Z " />
<glyph glyph-name="cedilla" unicode="&#xb8;" horiz-adv-x="475" d="M104 -181 C177 -216 212 -227 256 -227 C320 -227 360 -192 360 -136 C360 -88 328 -53 284 -53 C273 -53 259 -54 245 -56 L245 0 L203 0 L203 -99 C214 -97 225 -95 231 -95 C255 -95 270 -110 270 -135 C270 -157 255 -171 231 -171 C202 -171 167 -158 125 -132 L104 -181 Z " />
<glyph glyph-name="onesuperior" unicode="&#xb9;" horiz-adv-x="373" d="M152 515 L152 343 C151 315 148 311 122 310 L91 310 L91 267 L308 267 L308 310 L275 310 C251 311 248 315 248 343 L248 607 L181 607 C167 576 140 562 80 557 L80 515 L152 515 Z " />
<glyph glyph-name="ordmasculine" unicode="&#xba;" horiz-adv-x="366" d="M185 621 C82 621 16 562 16 469 C16 378 82 318 183 318 C283 318 349 378 349 469 C349 560 283 621 185 621 L185 621 Z M180 569 C222 569 242 537 242 470 C242 402 223 370 183 370 C137 370 122 405 122 510 C122 543 148 569 180 569 L180 569 Z " />
<glyph glyph-name="guillemotright" unicode="&#xbb;" horiz-adv-x="458" d="M131 72 L171 129 C203 176 224 218 224 238 C224 257 203 299 171 346 L131 403 L57 403 L84 336 C92 316 106 254 106 238 C106 216 94 166 82 139 L52 72 L131 72 Z M318 72 L357 129 C391 178 411 218 411 238 C411 257 391 297 357 346 L318 403 L244 403 L271 336 C279 314 293 254 293 238 C293 216 281 167 268 139 L238 72 L318 72 Z " />
<glyph glyph-name="onequarter" unicode="&#xbc;" horiz-adv-x="901" d="M152 515 L152 342 C151 314 147 310 119 309 L86 309 L86 266 L312 266 L312 309 L277 309 C251 310 248 314 248 342 L248 607 L181 607 C167 576 140 562 80 557 L80 515 L152 515 Z M222 -17 L300 -17 L690 622 L611 622 L222 -17 Z M880 43 L844 43 C817 44 813 48 814 76 L814 99 L877 99 L877 148 L814 148 L814 340 L740 340 L550 146 L550 99 L726 99 L726 76 C724 48 721 44 694 43 L663 43 L663 0 L880 0 L880 43 Z M612 148 L727 261 L726 148 L612 148 Z " />
<glyph glyph-name="onehalf" unicode="&#xbd;" horiz-adv-x="901" d="M152 515 L152 342 C151 314 147 310 119 309 L86 309 L86 266 L312 266 L312 309 L277 309 C251 310 248 314 248 342 L248 607 L181 607 C167 576 140 563 80 557 L80 515 L152 515 Z M222 -17 L300 -17 L690 622 L610 622 L222 -17 Z M603 0 C609 21 617 29 633 29 C642 29 655 25 674 18 C733 -6 748 -10 776 -10 C839 -10 870 26 870 97 C870 100 870 110 869 119 L828 119 C826 79 815 65 786 65 C775 65 760 68 733 74 C710 79 693 82 683 82 C664 82 650 78 621 65 C641 97 656 106 717 122 C795 143 795 143 818 156 C845 172 861 202 861 236 C861 302 801 348 714 348 C628 348 563 301 563 240 C563 206 587 182 621 182 C651 182 673 201 673 227 C673 248 657 264 635 264 C631 264 624 263 617 261 C627 290 646 302 681 302 C724 302 753 278 753 242 C753 213 739 194 703 176 C589 123 556 83 559 0 L603 0 Z " />
<glyph glyph-name="threequarters" unicode="&#xbe;" horiz-adv-x="901" d="M147 424 C183 422 195 420 206 414 C223 405 234 385 234 364 C234 324 203 300 154 300 C122 300 106 305 84 321 C118 326 132 338 132 362 C132 388 111 408 82 408 C47 408 24 385 24 350 C24 293 82 257 175 257 C279 257 340 295 340 361 C340 407 315 431 248 450 C308 464 331 484 331 525 C331 580 275 615 187 615 C100 615 36 576 36 524 C36 496 57 476 88 476 C117 476 138 494 138 518 C138 539 125 550 95 555 C115 569 134 575 161 575 C201 575 225 555 225 521 C225 484 205 470 147 469 L147 424 Z M217 -17 L296 -17 L689 622 L609 622 L217 -17 Z M881 43 L844 43 C817 44 814 48 814 76 L814 99 L877 99 L877 148 L814 148 L814 340 L740 340 L548 146 L548 99 L725 99 L725 76 C724 48 720 44 693 43 L662 43 L662 0 L881 0 L881 43 Z M610 148 L727 261 L725 148 L610 148 Z " />
<glyph glyph-name="questiondown" unicode="&#xbf;" horiz-adv-x="533" d="M291 483 C249 483 216 448 216 405 C216 362 249 326 289 326 C333 326 366 360 366 405 C366 448 332 483 291 483 L291 483 Z M250 267 C250 223 233 192 194 160 C124 109 124 109 111 97 C67 56 47 14 47 -38 C47 -144 140 -220 268 -220 C397 -220 488 -140 488 -27 C488 45 448 93 389 93 C339 93 308 63 308 14 C308 -26 334 -55 371 -55 C387 -55 398 -51 419 -39 C414 -70 407 -88 396 -101 C379 -122 348 -135 315 -135 C255 -135 209 -93 209 -38 C209 4 222 32 278 105 C319 158 331 189 331 241 C331 245 331 255 330 267 L250 267 Z " />
<glyph glyph-name="Agrave" unicode="&#xc0;" horiz-adv-x="670" d="M680 82 L656 82 C611 81 604 88 582 149 L413 667 L251 667 L84 153 C70 101 53 85 12 82 L-19 82 L-19 0 L266 0 L266 82 L226 82 C189 82 178 88 178 108 C178 116 180 128 185 142 L209 214 L402 214 L426 145 C430 133 433 119 433 112 C433 88 421 82 376 82 L341 82 L341 0 L680 0 L680 82 Z M376 297 L236 297 L305 512 L376 297 Z M367 721 L421 721 L284 842 C262 861 249 868 232 868 C207 868 186 847 186 822 C186 801 202 782 229 772 L367 721 Z " />
<glyph glyph-name="Aacute" unicode="&#xc1;" horiz-adv-x="670" d="M680 82 L656 82 C611 81 604 88 582 149 L413 667 L251 667 L84 153 C70 101 53 85 12 82 L-19 82 L-19 0 L266 0 L266 82 L226 82 C189 82 178 88 178 108 C178 116 180 128 185 142 L209 214 L402 214 L426 145 C430 133 433 119 433 112 C433 88 421 82 376 82 L341 82 L341 0 L680 0 L680 82 Z M376 297 L236 297 L305 512 L376 297 Z M294 721 L432 772 C459 782 475 801 475 822 C475 847 454 868 429 868 C413 868 400 861 378 842 L240 721 L294 721 Z " />
<glyph glyph-name="Acircumflex" unicode="&#xc2;" horiz-adv-x="670" d="M680 82 L656 82 C611 81 604 88 582 149 L413 667 L251 667 L84 153 C70 101 53 85 12 82 L-19 82 L-19 0 L266 0 L266 82 L226 82 C189 82 178 88 178 108 C178 116 180 128 185 142 L209 214 L402 214 L426 145 C430 133 433 119 433 112 C433 88 421 82 376 82 L341 82 L341 0 L680 0 L680 82 Z M376 297 L236 297 L305 512 L376 297 Z M181 721 L227 721 L335 776 L442 721 L489 721 L393 858 L277 858 L181 721 Z " />
<glyph glyph-name="Atilde" unicode="&#xc3;" horiz-adv-x="670" d="M680 82 L656 82 C611 81 604 88 582 149 L413 667 L251 667 L84 153 C70 101 53 85 12 82 L-19 82 L-19 0 L266 0 L266 82 L226 82 C189 82 178 88 178 108 C178 116 180 128 185 142 L209 214 L402 214 L426 145 C430 133 433 119 433 112 C433 88 421 82 376 82 L341 82 L341 0 L680 0 L680 82 Z M376 297 L236 297 L305 512 L376 297 Z M222 720 C230 748 243 761 264 761 C272 761 282 759 294 756 L349 741 C359 739 371 737 380 737 C407 737 430 748 448 769 C467 790 475 810 486 858 L448 858 C437 828 427 818 405 818 C399 818 391 819 383 821 L327 836 C315 839 303 841 290 841 C233 841 203 808 184 720 L222 720 Z " />
<glyph glyph-name="Adieresis" unicode="&#xc4;" horiz-adv-x="670" d="M680 82 L656 82 C611 81 604 88 582 149 L413 667 L251 667 L84 153 C70 101 53 85 12 82 L-19 82 L-19 0 L266 0 L266 82 L226 82 C189 82 178 88 178 108 C178 116 180 128 185 142 L209 214 L402 214 L426 145 C430 133 433 119 433 112 C433 88 421 82 376 82 L341 82 L341 0 L680 0 L680 82 Z M376 297 L236 297 L305 512 L376 297 Z M233 858 C197 858 165 826 165 791 C165 752 195 722 233 722 C270 722 301 753 301 789 C301 826 269 858 233 858 L233 858 Z M410 858 C374 858 342 826 342 791 C342 752 372 722 410 722 C447 722 478 753 478 789 C478 826 446 858 410 858 L410 858 Z " />
<glyph glyph-name="Aring" unicode="&#xc5;" horiz-adv-x="670" d="M680 82 L656 82 C611 81 604 88 582 149 L413 667 L251 667 L84 153 C70 101 53 85 12 82 L-19 82 L-19 0 L266 0 L266 82 L226 82 C189 82 178 88 178 108 C178 116 180 128 185 142 L209 214 L402 214 L426 145 C430 133 433 119 433 112 C433 88 421 82 376 82 L341 82 L341 0 L680 0 L680 82 Z M376 297 L236 297 L305 512 L376 297 Z M332 932 C272 932 223 885 223 828 C223 766 272 716 332 716 C390 716 440 767 440 826 C440 885 392 932 332 932 L332 932 Z M332 869 C357 869 377 849 377 824 C377 799 357 779 332 779 C306 779 286 799 286 825 C286 849 307 869 332 869 L332 869 Z " />
<glyph glyph-name="AE" unicode="&#xc6;" horiz-adv-x="1019" d="M332 0 L958 0 L958 279 L879 279 C869 116 835 79 699 82 L589 82 L589 306 L623 306 C684 306 703 284 705 213 L705 182 L782 182 L782 500 L705 500 C702 405 692 390 623 389 L589 389 L589 585 L710 585 C842 587 866 562 883 408 L959 408 L959 667 L194 667 L194 585 L228 585 C273 585 286 579 286 556 C286 546 283 534 277 523 L83 144 C61 99 40 84 2 82 L-33 82 L-33 0 L268 0 L268 82 L230 82 C197 82 184 89 184 106 C184 113 187 121 196 139 L248 241 L430 241 L430 143 C430 89 423 81 373 82 L332 82 L332 0 Z M430 324 L291 324 L420 591 L430 591 L430 324 Z " />
<glyph glyph-name="Ccedilla" unicode="&#xc7;" horiz-adv-x="679" d="M360 -19 C534 -23 631 74 636 258 L547 258 C541 195 534 167 514 136 C488 93 443 69 390 69 C282 69 219 166 219 334 C219 502 282 599 392 599 C442 599 483 577 512 535 C536 501 545 472 553 404 L634 404 L634 675 L558 675 L540 621 C466 673 426 687 355 687 C171 687 33 536 33 334 C33 143 145 5 318 -16 L318 -101 C329 -98 340 -96 346 -96 C371 -96 386 -111 386 -135 C386 -157 371 -171 346 -171 C317 -171 282 -158 240 -132 L218 -181 C294 -217 327 -227 371 -227 C436 -227 478 -192 478 -136 C478 -90 444 -54 400 -54 C389 -54 375 -55 360 -58 L360 -19 Z " />
<glyph glyph-name="Egrave" unicode="&#xc8;" horiz-adv-x="708" d="M644 667 L19 667 L19 585 L54 585 C104 586 111 578 111 524 L111 143 C111 89 104 81 54 82 L19 82 L19 0 L643 0 L643 279 L564 279 C554 116 520 79 384 82 L274 82 L274 306 L308 306 C370 306 389 284 390 213 L390 182 L467 182 L467 500 L390 500 C387 405 377 391 308 389 L274 389 L274 585 L394 585 C526 588 555 558 566 408 L644 408 L644 667 Z M386 721 L440 721 L303 842 C281 861 268 868 251 868 C226 868 205 847 205 822 C205 801 221 782 249 772 L386 721 Z " />
<glyph glyph-name="Eacute" unicode="&#xc9;" horiz-adv-x="708" d="M644 667 L19 667 L19 585 L54 585 C104 586 111 578 111 524 L111 143 C111 89 104 81 54 82 L19 82 L19 0 L643 0 L643 279 L564 279 C554 116 520 79 384 82 L274 82 L274 306 L308 306 C370 306 389 284 390 213 L390 182 L467 182 L467 500 L390 500 C387 405 377 391 308 389 L274 389 L274 585 L394 585 C526 588 555 558 566 408 L644 408 L644 667 Z M313 721 L451 772 C478 782 494 801 494 822 C494 847 473 868 448 868 C432 868 419 862 397 842 L259 721 L313 721 Z " />
<glyph glyph-name="Ecircumflex" unicode="&#xca;" horiz-adv-x="708" d="M644 667 L19 667 L19 585 L54 585 C104 586 111 578 111 524 L111 143 C111 89 104 81 54 82 L19 82 L19 0 L643 0 L643 279 L564 279 C554 116 520 79 384 82 L274 82 L274 306 L308 306 C370 306 389 284 390 213 L390 182 L467 182 L467 500 L390 500 C387 405 377 391 308 389 L274 389 L274 585 L394 585 C526 588 555 558 566 408 L644 408 L644 667 Z M200 721 L246 721 L354 776 L461 721 L508 721 L412 858 L296 858 L200 721 Z " />
<glyph glyph-name="Edieresis" unicode="&#xcb;" horiz-adv-x="708" d="M644 667 L19 667 L19 585 L54 585 C104 586 111 578 111 524 L111 143 C111 89 104 81 54 82 L19 82 L19 0 L643 0 L643 279 L564 279 C554 116 520 79 384 82 L274 82 L274 306 L308 306 C370 306 389 284 390 213 L390 182 L467 182 L467 500 L390 500 C387 405 377 391 308 389 L274 389 L274 585 L394 585 C526 588 555 558 566 408 L644 408 L644 667 Z M265 858 C229 858 197 826 197 791 C197 752 227 722 266 722 C302 722 333 753 333 789 C333 826 302 858 265 858 L265 858 Z M442 858 C406 858 374 826 374 791 C374 752 404 722 443 722 C479 722 510 753 510 789 C510 826 479 858 442 858 L442 858 Z " />
<glyph glyph-name="Igrave" unicode="&#xcc;" horiz-adv-x="391" d="M21 0 L370 0 L370 82 L333 82 C283 81 276 89 276 143 L276 524 C276 578 283 586 333 585 L370 585 L370 667 L21 667 L21 585 L56 585 C106 586 113 578 113 524 L113 143 C113 89 106 81 56 82 L21 82 L21 0 Z M228 721 L282 721 L145 842 C123 861 110 868 93 868 C68 868 47 847 47 822 C47 801 63 782 90 772 L228 721 Z " />
<glyph glyph-name="Iacute" unicode="&#xcd;" horiz-adv-x="391" d="M21 0 L370 0 L370 82 L333 82 C283 81 276 89 276 143 L276 524 C276 578 283 586 333 585 L370 585 L370 667 L21 667 L21 585 L56 585 C106 586 113 578 113 524 L113 143 C113 89 106 81 56 82 L21 82 L21 0 Z M155 721 L293 772 C320 782 336 801 336 822 C336 847 315 868 290 868 C274 868 261 862 239 842 L101 721 L155 721 Z " />
<glyph glyph-name="Icircumflex" unicode="&#xce;" horiz-adv-x="391" d="M21 0 L370 0 L370 82 L333 82 C283 81 276 89 276 143 L276 524 C276 578 283 586 333 585 L370 585 L370 667 L21 667 L21 585 L56 585 C106 586 113 578 113 524 L113 143 C113 89 106 81 56 82 L21 82 L21 0 Z M42 721 L88 721 L196 776 L303 721 L350 721 L254 858 L138 858 L42 721 Z " />
<glyph glyph-name="Idieresis" unicode="&#xcf;" horiz-adv-x="391" d="M21 0 L370 0 L370 82 L333 82 C283 81 276 89 276 143 L276 524 C276 578 283 586 333 585 L370 585 L370 667 L21 667 L21 585 L56 585 C106 586 113 578 113 524 L113 143 C113 89 106 81 56 82 L21 82 L21 0 Z M110 858 C74 858 42 826 42 791 C42 752 72 722 111 722 C147 722 178 753 178 789 C178 826 147 858 110 858 L110 858 Z M281 858 C245 858 213 826 213 791 C213 752 243 722 282 722 C318 722 349 753 349 789 C349 826 318 858 281 858 L281 858 Z " />
<glyph glyph-name="Eth" unicode="&#xd0;" horiz-adv-x="769" d="M21 0 L353 0 C483 0 558 20 621 73 C689 130 724 217 724 333 C724 449 689 537 621 594 C558 647 483 667 353 667 L21 667 L21 585 L56 585 C106 586 113 578 113 524 L113 381 L0 381 L0 305 L113 305 L113 143 C113 89 106 81 56 82 L21 82 L21 0 Z M276 83 L276 305 L409 305 L409 381 L276 381 L276 585 L351 585 C420 585 473 562 499 521 C524 481 538 414 538 333 C538 252 524 186 499 146 C473 106 420 83 351 83 L276 83 Z " />
<glyph glyph-name="Ntilde" unicode="&#xd1;" horiz-adv-x="774" d="M317 82 L276 82 C224 81 217 89 217 143 L217 522 L500 0 L667 0 L667 524 C667 578 674 586 725 585 L753 585 L753 667 L458 667 L458 585 L499 585 C551 586 558 578 558 524 L558 191 L299 667 L19 667 L19 585 L50 585 C101 586 108 578 108 524 L108 143 C108 89 101 81 50 82 L19 82 L19 0 L317 0 L317 82 Z M279 720 C287 748 300 761 321 761 C329 761 339 759 351 756 L406 741 C416 739 428 737 437 737 C464 737 487 748 505 769 C524 790 532 810 543 858 L505 858 C494 828 484 818 461 818 C456 818 448 819 440 821 L384 836 C372 839 360 841 347 841 C289 841 260 808 241 720 L279 720 Z " />
<glyph glyph-name="Ograve" unicode="&#xd2;" horiz-adv-x="769" d="M385 686 C174 686 33 544 33 334 C33 125 174 -19 380 -19 C486 -19 567 10 633 73 C701 138 736 226 736 335 C736 545 595 686 385 686 L385 686 Z M387 599 C436 599 480 571 509 523 C537 477 550 418 550 334 C550 167 489 69 385 69 C281 69 219 167 219 332 C219 418 231 475 260 523 C289 573 333 599 387 599 L387 599 Z M417 721 L471 721 L333 842 C311 861 299 868 282 868 C257 868 236 847 236 822 C236 801 252 782 279 772 L417 721 Z " />
<glyph glyph-name="Oacute" unicode="&#xd3;" horiz-adv-x="769" d="M385 686 C174 686 33 544 33 334 C33 125 174 -19 380 -19 C486 -19 567 10 633 73 C701 138 736 226 736 335 C736 545 595 686 385 686 L385 686 Z M387 599 C436 599 480 571 509 523 C537 477 550 418 550 334 C550 167 489 69 385 69 C281 69 219 167 219 332 C219 418 231 475 260 523 C289 573 333 599 387 599 L387 599 Z M344 721 L482 772 C509 782 525 801 525 822 C525 847 504 868 479 868 C462 868 450 862 428 842 L290 721 L344 721 Z " />
<glyph glyph-name="Ocircumflex" unicode="&#xd4;" horiz-adv-x="769" d="M385 686 C174 686 33 544 33 334 C33 125 174 -19 380 -19 C486 -19 567 10 633 73 C701 138 736 226 736 335 C736 545 595 686 385 686 L385 686 Z M387 599 C436 599 480 571 509 523 C537 477 550 418 550 334 C550 167 489 69 385 69 C281 69 219 167 219 332 C219 418 231 475 260 523 C289 573 333 599 387 599 L387 599 Z M230 721 L277 721 L384 776 L492 721 L539 721 L442 858 L327 858 L230 721 Z " />
<glyph glyph-name="Otilde" unicode="&#xd5;" horiz-adv-x="769" d="M385 686 C174 686 33 544 33 334 C33 125 174 -19 380 -19 C486 -19 567 10 633 73 C701 138 736 226 736 335 C736 545 595 686 385 686 L385 686 Z M387 599 C436 599 480 571 509 523 C537 477 550 418 550 334 C550 167 489 69 385 69 C281 69 219 167 219 332 C219 418 231 475 260 523 C289 573 333 599 387 599 L387 599 Z M272 720 C280 748 293 761 314 761 C322 761 332 759 344 756 L399 741 C409 739 421 737 430 737 C457 737 480 748 498 769 C517 790 525 810 535 858 L498 858 C487 828 477 818 454 818 C449 818 440 819 433 821 L377 836 C365 839 352 841 340 841 C282 841 253 808 234 720 L272 720 Z " />
<glyph glyph-name="Odieresis" unicode="&#xd6;" horiz-adv-x="769" d="M385 686 C174 686 33 544 33 334 C33 125 174 -19 380 -19 C486 -19 567 10 633 73 C701 138 736 226 736 335 C736 545 595 686 385 686 L385 686 Z M387 599 C436 599 480 571 509 523 C537 477 550 418 550 334 C550 167 489 69 385 69 C281 69 219 167 219 332 C219 418 231 475 260 523 C289 573 333 599 387 599 L387 599 Z M296 858 C260 858 228 826 228 791 C228 752 258 722 296 722 C333 722 364 753 364 789 C364 826 332 858 296 858 L296 858 Z M473 858 C437 858 405 826 405 791 C405 752 435 722 473 722 C510 722 541 753 541 789 C541 826 509 858 473 858 L473 858 Z " />
<glyph glyph-name="multiply" unicode="&#xd7;" horiz-adv-x="565" d="M78 172 L147 99 L283 242 L418 99 L487 172 L352 315 L487 457 L418 530 L283 387 L147 530 L78 457 L214 315 L78 172 Z " />
<glyph glyph-name="Oslash" unicode="&#xd8;" horiz-adv-x="769" d="M43 12 L92 -39 L169 47 C249 -5 295 -19 382 -19 C595 -19 736 121 736 334 C736 433 713 499 651 575 L720 650 L672 701 L598 620 C522 670 469 686 383 686 C173 686 33 544 33 331 C33 272 45 212 66 168 C78 143 90 126 118 94 L43 12 Z M546 460 C549 406 550 378 550 343 C550 250 538 194 508 144 C478 95 434 69 380 69 C327 69 292 89 256 142 L546 460 Z M225 211 C222 266 221 292 221 328 C221 422 233 478 263 528 C293 577 337 603 391 603 C444 603 479 583 515 530 L225 211 Z " />
<glyph glyph-name="Ugrave" unicode="&#xd9;" horiz-adv-x="726" d="M705 667 L419 667 L419 585 L458 585 C506 586 512 578 512 524 L512 211 C512 158 505 131 487 111 C467 91 428 78 382 78 C347 78 321 86 302 104 C278 125 270 155 270 217 L270 524 C270 578 277 586 327 585 L368 585 L368 667 L19 667 L19 585 L49 585 C100 586 107 578 107 524 L107 206 C107 136 122 91 159 51 C204 2 268 -21 356 -21 C532 -21 622 58 622 213 L622 524 C622 579 628 586 676 585 L705 585 L705 667 Z M396 721 L450 721 L312 842 C290 862 277 868 261 868 C236 868 215 847 215 822 C215 801 231 782 258 772 L396 721 Z " />
<glyph glyph-name="Uacute" unicode="&#xda;" horiz-adv-x="726" d="M705 667 L419 667 L419 585 L458 585 C506 586 512 578 512 524 L512 211 C512 158 505 131 487 111 C467 91 428 78 382 78 C347 78 321 86 302 104 C278 125 270 155 270 217 L270 524 C270 578 277 586 327 585 L368 585 L368 667 L19 667 L19 585 L49 585 C100 586 107 578 107 524 L107 206 C107 136 122 91 159 51 C204 2 268 -21 356 -21 C532 -21 622 58 622 213 L622 524 C622 579 628 586 676 585 L705 585 L705 667 Z M323 721 L460 772 C487 782 504 801 504 822 C504 847 483 868 458 868 C441 868 428 861 406 842 L269 721 L323 721 Z " />
<glyph glyph-name="Ucircumflex" unicode="&#xdb;" horiz-adv-x="726" d="M705 667 L419 667 L419 585 L458 585 C506 586 512 578 512 524 L512 211 C512 158 505 131 487 111 C467 91 428 78 382 78 C347 78 321 86 302 104 C278 125 270 155 270 217 L270 524 C270 578 277 586 327 585 L368 585 L368 667 L19 667 L19 585 L49 585 C100 586 107 578 107 524 L107 206 C107 136 122 91 159 51 C204 2 268 -21 356 -21 C532 -21 622 58 622 213 L622 524 C622 579 628 586 676 585 L705 585 L705 667 Z M209 721 L256 721 L363 776 L471 721 L517 721 L421 858 L305 858 L209 721 Z " />
<glyph glyph-name="Udieresis" unicode="&#xdc;" horiz-adv-x="726" d="M705 667 L419 667 L419 585 L458 585 C506 586 512 578 512 524 L512 211 C512 158 505 131 487 111 C467 91 428 78 382 78 C347 78 321 86 302 104 C278 125 270 155 270 217 L270 524 C270 578 277 586 327 585 L368 585 L368 667 L19 667 L19 585 L49 585 C100 586 107 578 107 524 L107 206 C107 136 122 91 159 51 C204 2 268 -21 356 -21 C532 -21 622 58 622 213 L622 524 C622 579 628 586 676 585 L705 585 L705 667 Z M272 858 C236 858 204 826 204 791 C204 752 234 722 273 722 C309 722 340 753 340 789 C340 826 309 858 272 858 L272 858 Z M448 858 C412 858 380 826 380 791 C380 752 410 722 449 722 C485 722 516 753 516 789 C516 826 485 858 448 858 L448 858 Z " />
<glyph glyph-name="Yacute" unicode="&#xdd;" horiz-adv-x="665" d="M-14 585 L10 585 C44 587 73 565 105 514 L250 277 L250 143 C250 89 243 81 192 82 L146 82 L146 0 L518 0 L518 82 L471 82 C420 81 413 89 413 143 L413 277 L567 520 C600 572 618 586 655 585 L677 585 L677 667 L394 667 L394 587 L426 587 C457 587 472 580 472 563 C472 555 468 545 463 537 L360 389 L268 528 C260 540 255 551 255 559 C255 579 267 585 303 585 L332 585 L332 667 L-14 667 L-14 585 Z M292 721 L430 772 C457 782 473 801 473 822 C473 847 452 868 427 868 C411 868 398 862 376 842 L238 721 L292 721 Z " />
<glyph glyph-name="Thorn" unicode="&#xde;" horiz-adv-x="670" d="M19 0 L373 0 L373 82 L330 82 C277 81 270 89 270 143 L270 154 L389 154 C486 154 535 166 575 199 C613 231 634 281 634 339 C634 396 614 445 579 477 C540 512 487 526 389 526 L270 526 L270 534 C271 578 280 586 330 585 L373 585 L373 667 L19 667 L19 585 L55 585 C106 586 115 578 115 534 L115 143 C115 89 108 81 55 82 L19 82 L19 0 Z M270 236 L270 444 L328 444 C387 444 413 438 435 420 C455 404 464 378 464 341 C464 264 426 236 323 236 L270 236 Z " />
<glyph glyph-name="germandbls" unicode="&#xdf;" horiz-adv-x="590" d="M97 133 C96 84 89 76 44 74 L19 74 L19 0 L240 0 L240 508 C240 539 243 562 249 575 C260 598 283 612 311 612 C353 612 376 584 376 533 C376 499 367 472 350 457 C338 446 323 442 285 440 L285 363 C342 363 354 360 373 341 C397 316 402 286 402 171 C402 105 401 96 394 77 C390 68 381 61 372 61 C356 61 346 79 346 107 L346 165 L275 165 L275 107 C275 26 315 -18 390 -18 C488 -18 555 74 555 208 C555 276 538 327 503 362 C481 384 459 396 409 411 C445 423 468 434 482 448 C506 471 520 506 520 544 C520 635 445 687 315 687 C239 687 181 666 142 623 C107 586 97 546 97 450 L97 133 Z " />
<glyph glyph-name="agrave" unicode="&#xe0;" horiz-adv-x="557" d="M544 173 L484 173 L484 120 C484 88 477 74 462 74 C448 74 441 90 441 120 L441 313 C441 393 434 415 403 442 C368 471 316 486 246 486 C120 486 40 436 40 358 C40 313 71 282 116 282 C157 282 189 310 189 345 C189 377 170 397 135 402 C158 423 177 430 211 430 C267 430 304 398 304 351 C304 302 278 281 200 264 C132 249 93 235 66 215 C37 193 20 157 20 116 C20 34 75 -18 161 -18 C221 -18 261 1 313 54 C338 1 366 -17 425 -17 C465 -17 497 -4 518 20 C538 44 544 70 544 127 L544 173 Z M300 169 C300 108 272 73 223 73 C193 73 173 94 173 128 C173 143 178 157 188 170 C197 183 208 189 250 210 C257 213 278 224 300 237 L300 169 Z M365 540 L230 683 C197 719 179 730 155 730 C125 730 102 707 102 677 C102 653 116 637 152 619 L310 540 L365 540 Z " />
<glyph glyph-name="aacute" unicode="&#xe1;" horiz-adv-x="557" d="M544 173 L484 173 L484 120 C484 88 477 74 462 74 C448 74 441 90 441 120 L441 313 C441 393 434 415 403 442 C368 471 316 486 246 486 C120 486 40 436 40 358 C40 313 71 282 116 282 C157 282 189 310 189 345 C189 377 170 397 135 402 C158 423 177 430 211 430 C267 430 304 398 304 351 C304 302 278 281 200 264 C132 249 93 235 66 215 C37 193 20 157 20 116 C20 34 75 -18 161 -18 C221 -18 261 1 313 54 C338 1 366 -17 425 -17 C465 -17 497 -4 518 20 C538 44 544 70 544 127 L544 173 Z M300 169 C300 108 272 73 223 73 C193 73 173 94 173 128 C173 143 178 157 188 170 C197 183 208 189 250 210 C257 213 278 224 300 237 L300 169 Z M179 540 L234 540 L392 619 C428 637 442 653 442 677 C442 707 419 730 389 730 C365 730 346 718 313 683 L179 540 Z " />
<glyph glyph-name="acircumflex" unicode="&#xe2;" horiz-adv-x="557" d="M544 173 L484 173 L484 120 C484 88 477 74 462 74 C448 74 441 90 441 120 L441 313 C441 393 434 415 403 442 C368 471 316 486 246 486 C120 486 40 436 40 358 C40 313 71 282 116 282 C157 282 189 310 189 345 C189 377 170 397 135 402 C158 423 177 430 211 430 C267 430 304 398 304 351 C304 302 278 281 200 264 C132 249 93 235 66 215 C37 193 20 157 20 116 C20 34 75 -18 161 -18 C221 -18 261 1 313 54 C338 1 366 -17 425 -17 C465 -17 497 -4 518 20 C538 44 544 70 544 127 L544 173 Z M300 169 C300 108 272 73 223 73 C193 73 173 94 173 128 C173 143 178 157 188 170 C197 183 208 189 250 210 C257 213 278 224 300 237 L300 169 Z M123 540 L171 540 L278 623 L385 540 L434 540 L323 719 L234 719 L123 540 Z " />
<glyph glyph-name="atilde" unicode="&#xe3;" horiz-adv-x="557" d="M544 173 L484 173 L484 120 C484 88 477 74 462 74 C448 74 441 90 441 120 L441 313 C441 393 434 415 403 442 C368 471 316 486 246 486 C120 486 40 436 40 358 C40 313 71 282 116 282 C157 282 189 310 189 345 C189 377 170 397 135 402 C158 423 177 430 211 430 C267 430 304 398 304 351 C304 302 278 281 200 264 C132 249 93 235 66 215 C37 193 20 157 20 116 C20 34 75 -18 161 -18 C221 -18 261 1 313 54 C338 1 366 -17 425 -17 C465 -17 497 -4 518 20 C538 44 544 70 544 127 L544 173 Z M300 169 C300 108 272 73 223 73 C193 73 173 94 173 128 C173 143 178 157 188 170 C197 183 208 189 250 210 C257 213 278 224 300 237 L300 169 Z M143 540 C151 568 165 581 185 581 C194 581 204 579 216 576 L271 561 C281 558 292 557 301 557 C328 557 351 568 370 589 C388 610 397 630 407 678 L369 678 C359 648 348 638 326 638 C321 638 312 639 305 641 L248 656 C237 659 224 661 212 661 C154 661 125 628 105 540 L143 540 Z " />
<glyph glyph-name="adieresis" unicode="&#xe4;" horiz-adv-x="557" d="M544 173 L484 173 L484 120 C484 88 477 74 462 74 C448 74 441 90 441 120 L441 313 C441 393 434 415 403 442 C368 471 316 486 246 486 C120 486 40 436 40 358 C40 313 71 282 116 282 C157 282 189 310 189 345 C189 377 170 397 135 402 C158 423 177 430 211 430 C267 430 304 398 304 351 C304 302 278 281 200 264 C132 249 93 235 66 215 C37 193 20 157 20 116 C20 34 75 -18 161 -18 C221 -18 261 1 313 54 C338 1 366 -17 425 -17 C465 -17 497 -4 518 20 C538 44 544 70 544 127 L544 173 Z M300 169 C300 108 272 73 223 73 C193 73 173 94 173 128 C173 143 178 157 188 170 C197 183 208 189 250 210 C257 213 278 224 300 237 L300 169 Z M194 699 C156 699 123 667 123 630 C123 591 154 560 194 560 C232 560 262 590 262 629 C262 668 231 699 194 699 L194 699 Z M374 699 C336 699 303 667 303 630 C303 591 334 560 374 560 C412 560 442 590 442 629 C442 668 411 699 374 699 L374 699 Z " />
<glyph glyph-name="aring" unicode="&#xe5;" horiz-adv-x="557" d="M544 173 L484 173 L484 120 C484 88 477 74 462 74 C448 74 441 90 441 120 L441 313 C441 393 434 415 403 442 C368 471 316 486 246 486 C120 486 40 436 40 358 C40 313 71 282 116 282 C157 282 189 310 189 345 C189 377 170 397 135 402 C158 423 177 430 211 430 C267 430 304 398 304 351 C304 302 278 281 200 264 C132 249 93 235 66 215 C37 193 20 157 20 116 C20 34 75 -18 161 -18 C221 -18 261 1 313 54 C338 1 366 -17 425 -17 C465 -17 497 -4 518 20 C538 44 544 70 544 127 L544 173 Z M300 169 C300 108 272 73 223 73 C193 73 173 94 173 128 C173 143 178 157 188 170 C197 183 208 189 250 210 C257 213 278 224 300 237 L300 169 Z M246 777 C176 777 117 720 117 651 C117 576 173 519 247 519 C318 519 375 577 375 648 C375 719 317 777 246 777 L246 777 Z M246 707 C278 707 305 680 305 648 C305 615 279 589 247 589 C212 589 187 615 187 649 C187 681 214 707 246 707 L246 707 Z " />
<glyph glyph-name="ae" unicode="&#xe6;" horiz-adv-x="774" d="M641 161 C626 95 597 69 537 69 C499 69 474 81 456 109 C439 136 434 161 433 218 L743 218 C741 300 734 337 710 381 C675 446 606 486 530 486 C481 486 449 475 387 435 C341 469 288 486 230 486 C174 486 116 469 80 440 C56 421 40 389 40 358 C40 313 71 282 117 282 C158 282 190 310 190 345 C190 378 172 397 136 402 C160 423 178 430 214 430 C275 430 316 398 316 350 C316 302 289 281 202 263 C67 235 19 196 19 115 C19 32 77 -20 170 -20 C245 -20 286 -1 349 64 C399 6 450 -17 525 -17 C595 -17 656 9 694 55 C717 84 727 108 734 161 L641 161 Z M314 169 C314 108 283 73 227 73 C193 73 172 94 172 128 C172 143 177 157 188 170 C199 183 211 189 258 209 C266 213 289 224 314 237 L314 169 Z M435 294 C437 375 461 408 517 408 C546 408 569 396 583 375 C595 356 599 337 600 294 L435 294 Z " />
<glyph glyph-name="ccedilla" unicode="&#xe7;" horiz-adv-x="495" d="M256 -18 C385 -17 453 52 450 179 L367 179 C357 101 330 69 274 69 C245 69 219 83 206 107 C190 136 181 186 181 242 C181 353 216 410 284 410 C312 410 329 403 358 379 C317 370 299 348 299 310 C299 267 330 236 374 236 C425 236 460 274 460 330 C460 421 380 487 271 487 C206 487 145 464 100 423 C49 376 24 313 24 230 C24 96 94 6 214 -15 L214 -99 C225 -97 236 -95 242 -95 C267 -95 282 -110 282 -135 C282 -157 267 -171 242 -171 C213 -171 179 -159 136 -132 L114 -181 C189 -217 223 -227 267 -227 C331 -227 372 -192 372 -136 C372 -88 339 -53 295 -53 C284 -53 271 -54 256 -57 L256 -18 Z " />
<glyph glyph-name="egrave" unicode="&#xe8;" horiz-adv-x="514" d="M383 161 C368 95 339 69 279 69 C241 69 216 82 198 109 C181 136 176 161 174 218 L485 218 C483 318 469 368 430 414 C391 461 330 488 259 488 C118 488 24 384 24 228 C24 79 117 -18 261 -18 C336 -18 397 7 436 55 C459 84 468 108 475 161 L383 161 Z M177 294 C178 337 182 356 193 375 C207 397 230 409 259 409 C288 409 311 397 325 375 C337 356 341 337 342 294 L177 294 Z M344 540 L209 683 C177 718 158 730 134 730 C104 730 81 707 81 677 C81 653 95 637 131 619 L289 540 L344 540 Z " />
<glyph glyph-name="eacute" unicode="&#xe9;" horiz-adv-x="514" d="M383 161 C368 95 339 69 279 69 C241 69 216 82 198 109 C181 136 176 161 174 218 L485 218 C483 318 469 368 430 414 C391 461 330 488 259 488 C118 488 24 384 24 228 C24 79 117 -18 261 -18 C336 -18 397 7 436 55 C459 84 468 108 475 161 L383 161 Z M177 294 C178 337 182 356 193 375 C207 397 230 409 259 409 C288 409 311 397 325 375 C337 356 341 337 342 294 L177 294 Z M158 540 L213 540 L371 619 C407 637 421 653 421 677 C421 707 398 730 368 730 C344 730 326 718 293 683 L158 540 Z " />
<glyph glyph-name="ecircumflex" unicode="&#xea;" horiz-adv-x="514" d="M383 161 C368 95 339 69 279 69 C241 69 216 82 198 109 C181 136 176 161 174 218 L485 218 C483 318 469 368 430 414 C391 461 330 488 259 488 C118 488 24 384 24 228 C24 79 117 -18 261 -18 C336 -18 397 7 436 55 C459 84 468 108 475 161 L383 161 Z M177 294 C178 337 182 356 193 375 C207 397 230 409 259 409 C288 409 311 397 325 375 C337 356 341 337 342 294 L177 294 Z M102 540 L151 540 L257 623 L365 540 L413 540 L302 719 L213 719 L102 540 Z " />
<glyph glyph-name="edieresis" unicode="&#xeb;" horiz-adv-x="514" d="M383 161 C368 95 339 69 279 69 C241 69 216 82 198 109 C181 136 176 161 174 218 L485 218 C483 318 469 368 430 414 C391 461 330 488 259 488 C118 488 24 384 24 228 C24 79 117 -18 261 -18 C336 -18 397 7 436 55 C459 84 468 108 475 161 L383 161 Z M177 294 C178 337 182 356 193 375 C207 397 230 409 259 409 C288 409 311 397 325 375 C337 356 341 337 342 294 L177 294 Z M169 699 C131 699 98 667 98 630 C98 591 129 560 169 560 C207 560 237 590 237 629 C237 668 206 699 169 699 L169 699 Z M349 699 C311 699 278 667 278 630 C278 591 309 560 349 560 C387 560 417 590 417 629 C417 668 386 699 349 699 L349 699 Z " />
<glyph glyph-name="igrave" unicode="&#xec;" horiz-adv-x="335" d="M314 74 L287 74 C247 76 241 83 241 133 L241 469 L24 469 L24 395 L52 395 C95 393 101 386 102 336 L102 133 C101 83 95 76 52 74 L24 74 L24 0 L314 0 L314 74 Z M232 537 L144 676 C122 711 102 726 77 726 C51 726 31 707 31 682 C31 660 45 639 72 619 L186 537 L232 537 Z " />
<glyph glyph-name="iacute" unicode="&#xed;" horiz-adv-x="335" d="M69 537 L115 537 L229 619 C257 639 270 660 270 682 C270 707 250 726 224 726 C199 726 179 711 157 676 L69 537 Z M314 74 L287 74 C247 76 241 83 241 133 L241 469 L24 469 L24 395 L52 395 C95 393 101 386 102 336 L102 133 C101 83 95 76 52 74 L24 74 L24 0 L314 0 L314 74 Z " />
<glyph glyph-name="icircumflex" unicode="&#xee;" horiz-adv-x="342" d="M17 537 L63 537 L160 628 L257 537 L303 537 L205 717 L115 717 L17 537 Z M321 74 L293 74 C253 76 247 83 247 133 L247 469 L30 469 L30 395 L58 395 C101 393 107 386 108 336 L108 133 C107 83 101 76 58 74 L30 74 L30 0 L321 0 L321 74 Z " />
<glyph glyph-name="idieresis" unicode="&#xef;" horiz-adv-x="338" d="M317 74 L290 74 C249 76 244 83 244 133 L244 469 L27 469 L27 395 L55 395 C98 393 104 386 105 336 L105 133 C104 83 98 76 55 74 L27 74 L27 0 L317 0 L317 74 Z M76 699 C38 699 5 667 5 630 C5 591 36 560 76 560 C114 560 144 590 144 629 C144 668 113 699 76 699 L76 699 Z M246 699 C208 699 175 667 175 630 C175 591 206 560 246 560 C284 560 314 590 314 629 C314 668 283 699 246 699 L246 699 Z " />
<glyph glyph-name="eth" unicode="&#xf0;" horiz-adv-x="565" d="M199 667 C214 645 218 640 242 604 L172 574 L196 517 L273 551 C277 544 280 539 281 537 C284 533 292 519 304 498 C305 497 312 484 315 479 C296 483 283 485 266 485 C206 485 147 461 103 420 C55 373 31 312 31 235 C31 82 132 -17 287 -17 C439 -17 541 83 541 232 C541 313 517 377 456 463 C431 497 411 522 356 588 L426 617 L401 673 L314 638 C302 651 298 654 285 667 L199 667 Z M286 410 C352 410 384 352 384 235 C384 118 352 60 286 60 C220 60 188 117 188 237 C188 352 221 410 286 410 L286 410 Z " />
<glyph glyph-name="ntilde" unicode="&#xf1;" horiz-adv-x="623" d="M330 0 L605 0 L605 74 L586 74 C541 76 535 83 535 133 L535 311 C535 382 526 418 502 443 C478 469 436 484 391 484 C328 484 293 463 230 385 L230 469 L19 469 L19 395 L45 395 C86 393 92 386 93 336 L93 133 C92 83 86 76 45 74 L19 74 L19 0 L297 0 L297 74 L282 74 C241 76 236 83 236 133 L236 272 C236 349 274 401 330 401 C352 401 370 392 380 376 C390 361 392 347 392 309 L392 133 C392 83 386 76 346 74 L330 74 L330 0 Z M198 540 C206 568 220 581 241 581 C249 581 259 579 271 576 L326 561 C336 558 347 557 357 557 C383 557 406 568 425 589 C443 610 452 630 462 678 L425 678 C414 648 403 638 381 638 C376 638 367 639 360 641 L304 656 C292 659 279 661 267 661 C209 661 180 628 161 540 L198 540 Z " />
<glyph glyph-name="ograve" unicode="&#xf2;" horiz-adv-x="561" d="M368 540 L233 683 C200 718 181 730 158 730 C127 730 104 707 104 677 C104 653 118 637 154 619 L313 540 L368 540 Z M281 486 C129 486 26 386 26 238 C26 82 125 -17 282 -17 C435 -17 536 83 536 234 C536 387 435 486 281 486 L281 486 Z M281 409 C347 409 379 351 379 235 C379 117 347 60 281 60 C215 60 183 117 183 237 C183 351 216 409 281 409 L281 409 Z " />
<glyph glyph-name="oacute" unicode="&#xf3;" horiz-adv-x="561" d="M181 540 L236 540 L394 619 C431 637 445 653 445 677 C445 707 422 730 392 730 C368 730 349 718 316 683 L181 540 Z M281 486 C129 486 26 386 26 238 C26 82 125 -17 282 -17 C435 -17 536 83 536 234 C536 387 435 486 281 486 L281 486 Z M281 409 C347 409 379 351 379 235 C379 117 347 60 281 60 C215 60 183 117 183 237 C183 351 216 409 281 409 L281 409 Z " />
<glyph glyph-name="ocircumflex" unicode="&#xf4;" horiz-adv-x="561" d="M125 540 L174 540 L281 623 L388 540 L437 540 L326 719 L236 719 L125 540 Z M281 486 C129 486 26 386 26 238 C26 82 125 -17 282 -17 C435 -17 536 83 536 234 C536 387 435 486 281 486 L281 486 Z M281 409 C347 409 379 351 379 235 C379 117 347 60 281 60 C215 60 183 117 183 237 C183 351 216 409 281 409 L281 409 Z " />
<glyph glyph-name="otilde" unicode="&#xf5;" horiz-adv-x="561" d="M168 540 C176 568 189 581 210 581 C218 581 229 579 241 576 L295 561 C306 558 316 557 326 557 C353 557 376 568 394 589 C413 610 422 630 432 678 L394 678 C383 648 373 638 351 638 C345 638 337 639 329 641 L273 656 C261 659 249 661 236 661 C179 661 149 628 130 540 L168 540 Z M281 486 C129 486 26 386 26 238 C26 82 125 -17 282 -17 C435 -17 536 83 536 234 C536 387 435 486 281 486 L281 486 Z M281 409 C347 409 379 351 379 235 C379 117 347 60 281 60 C215 60 183 117 183 237 C183 351 216 409 281 409 L281 409 Z " />
<glyph glyph-name="odieresis" unicode="&#xf6;" horiz-adv-x="561" d="M189 699 C151 699 118 667 118 630 C118 591 149 560 189 560 C227 560 257 590 257 629 C257 667 226 699 189 699 L189 699 Z M368 699 C331 699 298 667 298 630 C298 591 329 560 369 560 C407 560 437 590 437 629 C437 667 406 699 368 699 L368 699 Z M281 486 C129 486 26 386 26 238 C26 82 125 -17 282 -17 C435 -17 536 83 536 234 C536 387 435 486 281 486 L281 486 Z M281 409 C347 409 379 351 379 235 C379 117 347 60 281 60 C215 60 183 117 183 237 C183 351 216 409 281 409 L281 409 Z " />
<glyph glyph-name="divide" unicode="&#xf7;" horiz-adv-x="549" d="M273 126 C239 126 211 99 211 64 C211 30 238 2 273 2 C306 2 334 30 334 64 C334 98 306 126 273 126 L273 126 Z M273 525 C239 525 211 498 211 463 C211 429 238 401 273 401 C306 401 334 429 334 463 C334 497 306 525 273 525 L273 525 Z M10 294 L10 239 L536 239 L536 294 L10 294 Z " />
<glyph glyph-name="oslash" unicode="&#xf8;" horiz-adv-x="561" d="M65 -38 L126 27 C174 -5 215 -17 281 -17 C434 -17 535 83 535 233 C535 303 523 338 477 402 L533 461 L487 504 L430 443 C369 478 339 486 280 486 C126 486 25 387 25 234 C25 165 36 134 81 70 L24 10 L65 -38 Z M178 174 C178 186 179 199 180 211 L182 251 C184 294 188 318 193 334 C208 382 239 409 281 409 C312 409 330 399 358 367 L178 174 Z M380 298 C381 186 381 186 372 149 C358 92 324 60 278 60 C244 60 225 71 199 105 L380 298 Z " />
<glyph glyph-name="ugrave" unicode="&#xf9;" horiz-adv-x="623" d="M19 395 L37 395 C87 393 94 386 94 336 L94 156 C94 85 103 49 127 24 C150 -2 191 -17 236 -17 C300 -17 340 6 395 76 L395 0 L604 0 L604 74 L577 74 C536 76 531 83 531 133 L531 469 L310 469 L310 395 L337 395 C382 393 388 386 388 336 L388 194 C388 118 351 66 297 66 C276 66 258 75 248 91 C240 105 237 120 237 157 L237 469 L19 469 L19 395 Z M398 540 L263 683 C230 718 212 730 188 730 C158 730 135 707 135 677 C135 653 149 637 185 619 L343 540 L398 540 Z " />
<glyph glyph-name="uacute" unicode="&#xfa;" horiz-adv-x="623" d="M19 395 L37 395 C87 393 94 386 94 336 L94 156 C94 85 103 49 127 24 C150 -2 191 -17 236 -17 C300 -17 340 6 395 76 L395 0 L604 0 L604 74 L577 74 C536 76 531 83 531 133 L531 469 L310 469 L310 395 L337 395 C382 393 388 386 388 336 L388 194 C388 118 351 66 297 66 C276 66 258 75 248 91 C240 105 237 120 237 157 L237 469 L19 469 L19 395 Z M212 540 L267 540 L425 619 C461 637 475 653 475 677 C475 707 452 730 422 730 C398 730 379 718 347 683 L212 540 Z " />
<glyph glyph-name="ucircumflex" unicode="&#xfb;" horiz-adv-x="623" d="M19 395 L37 395 C87 393 94 386 94 336 L94 156 C94 85 103 49 127 24 C150 -2 191 -17 236 -17 C300 -17 340 6 395 76 L395 0 L604 0 L604 74 L577 74 C536 76 531 83 531 133 L531 469 L310 469 L310 395 L337 395 C382 393 388 386 388 336 L388 194 C388 118 351 66 297 66 C276 66 258 75 248 91 C240 105 237 120 237 157 L237 469 L19 469 L19 395 Z M156 540 L204 540 L311 623 L418 540 L467 540 L356 719 L267 719 L156 540 Z " />
<glyph glyph-name="udieresis" unicode="&#xfc;" horiz-adv-x="623" d="M19 395 L37 395 C87 393 94 386 94 336 L94 156 C94 85 103 49 127 24 C150 -2 191 -17 236 -17 C300 -17 340 6 395 76 L395 0 L604 0 L604 74 L577 74 C536 76 531 83 531 133 L531 469 L310 469 L310 395 L337 395 C382 393 388 386 388 336 L388 194 C388 118 351 66 297 66 C276 66 258 75 248 91 C240 105 237 120 237 157 L237 469 L19 469 L19 395 Z M222 699 C185 699 152 667 152 630 C152 591 183 560 223 560 C261 560 291 590 291 629 C291 667 260 699 222 699 L222 699 Z M402 699 C364 699 331 667 331 630 C331 591 362 560 402 560 C440 560 470 590 470 629 C470 668 439 699 402 699 L402 699 Z " />
<glyph glyph-name="yacute" unicode="&#xfd;" horiz-adv-x="538" d="M452 326 C474 386 485 395 535 396 L535 469 L322 469 L322 396 L341 396 C367 396 381 389 381 375 C381 367 378 355 371 338 L300 152 L222 343 C218 353 216 363 216 372 C216 389 227 396 256 396 L276 396 L276 469 L0 469 L0 396 C54 395 64 387 89 327 L230 -16 C208 -80 194 -106 170 -130 C154 -144 133 -154 116 -154 C99 -154 87 -148 68 -130 C96 -129 110 -125 121 -116 C136 -105 145 -85 145 -64 C145 -24 116 3 73 3 C26 3 -6 -34 -6 -90 C-6 -164 49 -216 125 -216 C205 -216 262 -162 310 -38 L452 326 Z M169 540 L224 540 L382 619 C418 637 432 653 432 677 C432 707 409 730 379 730 C355 730 337 718 304 683 L169 540 Z " />
<glyph glyph-name="thorn" unicode="&#xfe;" horiz-adv-x="603" d="M233 667 L16 667 L16 593 L43 593 C83 591 89 584 90 534 L90 -81 C90 -130 85 -138 44 -140 L23 -140 L23 -214 L315 -214 L315 -140 L294 -140 C240 -138 233 -130 233 -81 L233 78 C266 8 304 -17 375 -17 C492 -17 561 75 561 231 C561 388 493 484 383 484 C318 484 268 452 233 387 L233 667 Z M319 400 C376 400 404 347 404 235 C404 125 377 73 319 73 C291 73 271 84 256 108 C238 137 232 166 232 234 C232 345 261 400 319 400 L319 400 Z " />
<glyph glyph-name="ydieresis" unicode="&#xff;" horiz-adv-x="538" d="M452 326 C474 386 485 395 535 396 L535 469 L322 469 L322 396 L341 396 C367 396 381 389 381 375 C381 367 378 355 371 338 L300 152 L222 343 C218 353 216 363 216 372 C216 389 227 396 256 396 L276 396 L276 469 L0 469 L0 396 C54 395 64 387 89 327 L230 -16 C208 -80 194 -106 170 -130 C154 -144 133 -154 116 -154 C99 -154 87 -148 68 -130 C96 -129 110 -125 121 -116 C136 -105 145 -85 145 -64 C145 -24 116 3 73 3 C26 3 -6 -34 -6 -90 C-6 -164 49 -216 125 -216 C205 -216 262 -162 310 -38 L452 326 Z M180 699 C142 699 109 667 109 630 C109 591 140 560 180 560 C218 560 248 590 248 629 C248 668 217 699 180 699 L180 699 Z M360 699 C322 699 289 667 289 630 C289 591 320 560 360 560 C398 560 428 590 428 629 C428 668 397 699 360 699 L360 699 Z " />
<glyph glyph-name="Amacron" unicode="&#x100;" horiz-adv-x="670" d="M680 82 L656 82 C611 81 604 88 582 149 L413 667 L251 667 L84 153 C70 101 53 85 12 82 L-19 82 L-19 0 L266 0 L266 82 L226 82 C189 82 178 88 178 108 C178 116 180 128 185 142 L209 214 L402 214 L426 145 C430 133 433 119 433 112 C433 88 421 82 376 82 L341 82 L341 0 L680 0 L680 82 Z M376 297 L236 297 L305 512 L376 297 Z M190 750 L479 750 L479 829 L190 829 L190 750 Z " />
<glyph glyph-name="amacron" unicode="&#x101;" horiz-adv-x="557" d="M544 173 L484 173 L484 120 C484 88 477 74 462 74 C448 74 441 90 441 120 L441 313 C441 393 434 415 403 442 C368 471 316 486 246 486 C120 486 40 436 40 358 C40 313 71 282 116 282 C157 282 189 310 189 345 C189 377 170 397 135 402 C158 423 177 430 211 430 C267 430 304 398 304 351 C304 302 278 281 200 264 C132 249 93 235 66 215 C37 193 20 157 20 116 C20 34 75 -18 161 -18 C221 -18 261 1 313 54 C338 1 366 -17 425 -17 C465 -17 497 -4 518 20 C538 44 544 70 544 127 L544 173 Z M300 169 C300 108 272 73 223 73 C193 73 173 94 173 128 C173 143 178 157 188 170 C197 183 208 189 250 210 C257 213 278 224 300 237 L300 169 Z M130 588 L427 588 L427 670 L130 670 L130 588 Z " />
<glyph glyph-name="Abreve" unicode="&#x102;" horiz-adv-x="670" d="M680 82 L656 82 C611 81 604 88 582 149 L413 667 L251 667 L84 153 C70 101 53 85 12 82 L-19 82 L-19 0 L266 0 L266 82 L226 82 C189 82 178 88 178 108 C178 116 180 128 185 142 L209 214 L402 214 L426 145 C430 133 433 119 433 112 C433 88 421 82 376 82 L341 82 L341 0 L680 0 L680 82 Z M376 297 L236 297 L305 512 L376 297 Z M178 858 C189 808 199 786 221 764 C249 736 290 720 335 720 C380 720 421 736 449 764 C471 786 481 808 492 858 L446 858 C431 820 402 806 335 806 C268 806 240 819 223 858 L178 858 Z " />
<glyph glyph-name="abreve" unicode="&#x103;" horiz-adv-x="557" d="M544 173 L484 173 L484 120 C484 88 477 74 462 74 C448 74 441 90 441 120 L441 313 C441 393 434 415 403 442 C368 471 316 486 246 486 C120 486 40 436 40 358 C40 313 71 282 116 282 C157 282 189 310 189 345 C189 377 170 397 135 402 C158 423 177 430 211 430 C267 430 304 398 304 351 C304 302 278 281 200 264 C132 249 93 235 66 215 C37 193 20 157 20 116 C20 34 75 -18 161 -18 C221 -18 261 1 313 54 C338 1 366 -17 425 -17 C465 -17 497 -4 518 20 C538 44 544 70 544 127 L544 173 Z M300 169 C300 108 272 73 223 73 C193 73 173 94 173 128 C173 143 178 157 188 170 C197 183 208 189 250 210 C257 213 278 224 300 237 L300 169 Z M120 704 C132 649 142 624 165 600 C193 571 233 555 278 555 C323 555 365 572 393 600 C415 623 426 649 437 704 L391 704 C375 659 348 644 279 644 C209 644 183 658 165 704 L120 704 Z " />
<glyph glyph-name="Aogonek" unicode="&#x104;" horiz-adv-x="670" d="M680 0 L680 82 L656 82 C611 81 604 88 582 149 L413 667 L251 667 L84 153 C70 101 53 85 12 82 L-19 82 L-19 0 L266 0 L266 82 L226 82 C189 82 178 88 178 109 C178 116 181 128 185 142 L209 214 L402 214 L426 145 C430 133 433 119 433 111 C433 88 420 82 376 82 L341 82 L341 0 L633 0 C556 -48 512 -106 512 -159 C512 -205 543 -234 592 -234 C641 -234 674 -207 702 -147 L686 -137 C665 -166 658 -171 638 -171 C614 -171 600 -153 600 -121 C600 -79 619 -42 664 0 L680 0 Z M376 297 L236 297 L305 512 L376 297 Z " />
<glyph glyph-name="aogonek" unicode="&#x105;" horiz-adv-x="557" d="M544 173 L484 173 L484 120 C484 88 478 74 463 74 C448 74 441 89 441 120 L441 313 C441 393 434 415 403 442 C368 471 316 486 246 486 C119 486 40 436 40 357 C40 313 72 282 117 282 C157 282 189 310 189 345 C189 377 170 397 135 402 C158 423 177 430 211 430 C267 430 304 398 304 351 C304 302 278 281 200 264 C132 249 93 235 66 215 C37 193 20 157 20 116 C20 34 75 -18 161 -18 C221 -18 261 1 313 54 C336 3 360 -14 420 -17 C361 -65 336 -105 336 -150 C336 -197 366 -225 415 -225 C462 -225 495 -199 524 -139 L508 -129 C487 -157 480 -162 460 -162 C436 -162 422 -144 422 -112 C422 -77 436 -45 467 -12 C524 7 545 45 544 127 L544 173 Z M300 169 C300 108 272 73 223 73 C193 73 173 94 173 128 C173 143 178 157 188 170 C197 183 208 189 250 210 C257 213 278 224 300 237 L300 169 Z " />
<glyph glyph-name="Cacute" unicode="&#x106;" horiz-adv-x="679" d="M547 258 C541 195 534 167 514 136 C488 93 443 69 391 69 C282 69 219 166 219 334 C219 502 282 599 392 599 C442 599 484 577 513 535 C536 501 545 472 553 404 L634 404 L634 675 L558 675 L540 621 C466 673 426 687 356 687 C171 687 33 536 33 334 C33 228 69 136 135 70 C195 10 271 -19 367 -19 C471 -19 538 11 586 80 C619 125 630 166 636 258 L547 258 Z M299 721 L437 772 C464 782 480 801 480 822 C480 847 459 868 434 868 C417 868 405 862 383 842 L245 721 L299 721 Z " />
<glyph glyph-name="cacute" unicode="&#x107;" horiz-adv-x="495" d="M367 179 C356 101 330 69 274 69 C245 69 219 83 206 107 C190 136 181 186 181 242 C181 353 216 410 284 410 C312 410 329 403 358 379 C317 370 299 348 299 310 C299 267 330 236 374 236 C425 236 460 274 460 331 C460 421 380 487 271 487 C206 487 145 464 100 423 C49 376 24 313 24 230 C24 79 116 -18 258 -18 C332 -18 390 9 421 57 C442 90 449 118 450 179 L367 179 Z M148 540 L203 540 L362 619 C398 637 412 653 412 677 C412 707 389 730 359 730 C335 730 316 718 283 683 L148 540 Z " />
<glyph glyph-name="Ccaron" unicode="&#x10c;" horiz-adv-x="679" d="M547 258 C541 195 534 167 514 136 C488 93 443 69 391 69 C282 69 219 166 219 334 C219 502 282 599 392 599 C442 599 484 577 513 535 C536 501 545 472 553 404 L634 404 L634 675 L558 675 L540 621 C466 673 426 687 356 687 C171 687 33 536 33 334 C33 228 69 136 135 70 C195 10 271 -19 367 -19 C471 -19 538 11 586 80 C619 125 630 166 636 258 L547 258 Z M186 858 L282 720 L397 720 L494 858 L447 858 L340 803 L232 858 L186 858 Z " />
<glyph glyph-name="ccaron" unicode="&#x10d;" horiz-adv-x="495" d="M367 179 C356 101 330 69 274 69 C245 69 219 83 206 107 C190 136 181 186 181 242 C181 353 216 410 284 410 C312 410 329 403 358 379 C317 370 299 348 299 310 C299 267 330 236 374 236 C425 236 460 274 460 331 C460 421 380 487 271 487 C206 487 145 464 100 423 C49 376 24 313 24 230 C24 79 116 -18 258 -18 C332 -18 390 9 421 57 C442 90 449 118 450 179 L367 179 Z M404 719 L355 719 L248 636 L141 719 L92 719 L203 540 L293 540 L404 719 Z " />
<glyph glyph-name="Dcaron" unicode="&#x10e;" horiz-adv-x="759" d="M19 0 L352 0 C481 0 557 20 619 73 C687 130 722 218 722 334 C722 449 687 537 619 594 C557 647 482 667 352 667 L19 667 L19 585 L53 585 C103 586 110 578 110 524 L110 143 C110 89 104 81 53 82 L19 82 L19 0 Z M273 83 L273 585 L350 585 C418 585 471 562 497 521 C522 481 536 415 536 334 C536 252 522 186 497 146 C472 106 419 83 350 83 L273 83 Z M125 858 L221 720 L337 720 L433 858 L387 858 L279 803 L171 858 L125 858 Z " />
<glyph glyph-name="dcaron" unicode="&#x10f;" horiz-adv-x="585" d="M355 394 C316 460 279 483 212 483 C93 483 24 392 24 235 C24 76 93 -17 212 -17 C249 -17 285 -7 311 12 C331 25 343 41 362 75 L362 0 L570 0 L570 70 L544 70 C503 73 498 80 498 130 L498 667 L269 667 L269 593 L288 593 C347 591 355 584 355 534 L355 394 Z M268 393 C296 393 316 382 333 358 C351 330 357 301 357 234 C357 122 328 67 268 67 C209 67 181 120 181 231 C181 342 209 393 268 393 L268 393 Z M572 446 C613 451 638 460 660 481 C686 505 702 544 702 584 C702 637 669 673 620 673 C581 673 553 646 553 609 C553 575 576 554 612 554 C620 554 627 555 640 559 C634 515 615 495 572 490 L572 446 Z " />
<glyph glyph-name="Dcroat" unicode="&#x110;" horiz-adv-x="769" d="M21 0 L353 0 C483 0 558 20 621 73 C689 130 724 217 724 333 C724 449 689 537 621 594 C558 647 483 667 353 667 L21 667 L21 585 L56 585 C106 586 113 578 113 524 L113 381 L0 381 L0 305 L113 305 L113 143 C113 89 106 81 56 82 L21 82 L21 0 Z M276 83 L276 305 L409 305 L409 381 L276 381 L276 585 L351 585 C420 585 473 562 499 521 C524 481 538 414 538 333 C538 252 524 186 499 146 C473 106 420 83 351 83 L276 83 Z " />
<glyph glyph-name="dcroat" unicode="&#x111;" horiz-adv-x="585" d="M355 507 L355 394 C316 460 279 483 212 483 C93 483 24 392 24 235 C24 76 93 -17 213 -17 C249 -17 285 -7 311 12 C331 25 343 41 362 75 L362 0 L570 0 L570 70 L543 70 C503 73 498 80 498 130 L498 507 L548 507 L548 575 L498 575 L498 667 L269 667 L269 593 L288 593 C321 593 344 586 349 575 L210 575 L210 507 L355 507 Z M268 393 C296 393 316 382 332 358 C351 330 357 301 357 234 C357 122 328 67 268 67 C209 67 181 120 181 231 C181 341 209 393 268 393 L268 393 Z " />
<glyph glyph-name="Emacron" unicode="&#x112;" horiz-adv-x="708" d="M644 667 L19 667 L19 585 L54 585 C104 586 111 578 111 524 L111 143 C111 89 104 81 54 82 L19 82 L19 0 L643 0 L643 279 L564 279 C554 116 520 79 384 82 L274 82 L274 306 L308 306 C370 306 389 284 390 213 L390 182 L467 182 L467 500 L390 500 C387 405 377 391 308 389 L274 389 L274 585 L394 585 C526 588 555 558 566 408 L644 408 L644 667 Z M209 750 L499 750 L499 829 L209 829 L209 750 Z " />
<glyph glyph-name="emacron" unicode="&#x113;" horiz-adv-x="514" d="M383 161 C368 95 339 69 279 69 C241 69 216 82 198 109 C181 136 176 161 174 218 L485 218 C483 318 469 368 430 414 C391 461 330 488 259 488 C118 488 24 384 24 228 C24 79 117 -18 261 -18 C336 -18 397 7 436 55 C459 84 468 108 475 161 L383 161 Z M177 294 C178 337 182 356 193 375 C207 397 230 409 259 409 C288 409 311 397 325 375 C337 356 341 337 342 294 L177 294 Z M109 588 L406 588 L406 670 L109 670 L109 588 Z " />
<glyph glyph-name="Edotaccent" unicode="&#x116;" horiz-adv-x="708" d="M644 667 L19 667 L19 585 L54 585 C104 586 111 578 111 524 L111 143 C111 89 104 81 54 82 L19 82 L19 0 L643 0 L643 279 L564 279 C554 116 520 79 384 82 L274 82 L274 306 L308 306 C370 306 389 284 390 213 L390 182 L467 182 L467 500 L390 500 C387 405 377 391 308 389 L274 389 L274 585 L394 585 C526 588 555 558 566 408 L644 408 L644 667 Z M354 862 C317 862 283 829 283 792 C283 753 315 721 354 721 C392 721 424 753 424 791 C424 829 391 862 354 862 L354 862 Z " />
<glyph glyph-name="edotaccent" unicode="&#x117;" horiz-adv-x="514" d="M383 161 C368 95 339 69 279 69 C241 69 216 82 198 109 C181 136 176 161 174 218 L485 218 C483 318 469 368 430 414 C391 461 330 488 259 488 C118 488 24 384 24 228 C24 79 117 -18 261 -18 C336 -18 397 7 436 55 C459 84 468 108 475 161 L383 161 Z M177 294 C178 337 182 356 193 375 C207 397 230 409 259 409 C288 409 311 397 325 375 C337 356 341 337 342 294 L177 294 Z M259 702 C220 702 185 668 185 631 C185 590 218 557 259 557 C299 557 330 589 330 629 C330 669 298 702 259 702 L259 702 Z " />
<glyph glyph-name="Eogonek" unicode="&#x118;" horiz-adv-x="708" d="M643 0 L643 279 L564 279 C554 116 520 79 384 82 L274 82 L274 306 L308 306 C370 306 389 284 390 213 L390 182 L467 182 L467 500 L390 500 C387 405 377 391 308 389 L274 389 L274 585 L394 585 C526 588 555 558 566 408 L644 408 L644 667 L19 667 L19 585 L54 585 C104 586 111 578 111 524 L111 143 C111 89 104 81 54 82 L19 82 L19 0 L574 0 C498 -52 461 -101 461 -153 C461 -199 492 -228 542 -228 C590 -228 623 -201 651 -141 L635 -131 C614 -160 607 -165 588 -165 C563 -165 549 -147 549 -115 C549 -75 566 -42 608 0 L643 0 Z " />
<glyph glyph-name="eogonek" unicode="&#x119;" horiz-adv-x="514" d="M383 161 C368 95 339 69 279 69 C241 69 216 82 198 109 C181 136 176 161 174 218 L485 218 C483 318 469 368 430 414 C391 461 330 488 259 488 C118 488 24 384 24 228 C24 78 117 -18 261 -18 C262 -18 269 -18 275 -17 C217 -63 189 -107 189 -152 C189 -199 219 -227 268 -227 C315 -227 349 -201 376 -140 L361 -130 C340 -159 333 -164 313 -164 C289 -164 275 -146 275 -113 C275 -89 283 -65 297 -45 C311 -24 316 -21 365 3 C437 39 467 82 475 161 L383 161 Z M177 294 C178 337 182 356 193 375 C207 397 230 409 259 409 C288 409 311 397 325 375 C337 356 341 337 342 294 L177 294 Z " />
<glyph glyph-name="Ecaron" unicode="&#x11a;" horiz-adv-x="708" d="M644 667 L19 667 L19 585 L54 585 C104 586 111 578 111 524 L111 143 C111 89 104 81 54 82 L19 82 L19 0 L643 0 L643 279 L564 279 C554 116 520 79 384 82 L274 82 L274 306 L308 306 C370 306 389 284 390 213 L390 182 L467 182 L467 500 L390 500 C387 405 377 391 308 389 L274 389 L274 585 L394 585 C526 588 555 558 566 408 L644 408 L644 667 Z M200 858 L296 720 L412 720 L508 858 L461 858 L354 803 L246 858 L200 858 Z " />
<glyph glyph-name="ecaron" unicode="&#x11b;" horiz-adv-x="514" d="M383 161 C368 95 339 69 279 69 C241 69 216 82 198 109 C181 136 176 161 174 218 L485 218 C483 318 469 368 430 414 C391 461 330 488 259 488 C118 488 24 384 24 228 C24 79 117 -18 261 -18 C336 -18 397 7 436 55 C459 84 468 108 475 161 L383 161 Z M177 294 C178 337 182 356 193 375 C207 397 230 409 259 409 C288 409 311 397 325 375 C337 356 341 337 342 294 L177 294 Z M413 719 L365 719 L258 636 L151 719 L102 719 L213 540 L302 540 L413 719 Z " />
<glyph glyph-name="Gbreve" unicode="&#x11e;" horiz-adv-x="745" d="M725 273 L725 354 L394 354 L394 273 L443 273 C488 272 492 268 492 222 L492 168 C492 133 489 121 475 105 C456 82 423 69 387 69 C281 69 219 167 219 334 C219 502 282 599 391 599 C441 599 481 577 510 535 C533 501 543 472 550 404 L634 404 L634 675 L555 675 L537 621 C464 673 424 687 354 687 C169 687 33 536 33 332 C33 124 164 -20 352 -20 C426 -20 469 -5 541 47 L575 -7 L655 -7 L655 229 C656 265 663 273 694 273 L725 273 Z M175 858 C186 808 196 786 218 764 C246 736 286 720 331 720 C377 720 418 736 446 764 C468 786 478 808 488 858 L443 858 C428 820 398 806 332 806 C265 806 237 819 220 858 L175 858 Z " />
<glyph glyph-name="gbreve" unicode="&#x11f;" horiz-adv-x="604" d="M106 165 C48 138 28 113 28 68 C28 22 48 -4 102 -27 C41 -45 19 -67 19 -110 C19 -179 98 -214 256 -214 C441 -214 529 -163 529 -56 C529 30 470 74 354 74 C345 74 326 74 305 73 C274 72 247 72 237 72 C148 72 133 77 133 106 C133 119 138 127 154 139 C196 124 216 120 250 120 C379 120 462 188 462 293 C462 338 453 369 431 404 C456 429 473 439 488 439 C496 439 505 436 519 428 C495 416 483 398 483 373 C483 341 510 316 543 316 C581 316 607 345 607 388 C607 444 564 484 503 484 C467 484 445 474 404 440 C353 475 317 486 257 486 C130 486 47 415 47 306 C47 252 64 213 106 165 L106 165 Z M255 420 C300 420 316 388 316 298 C316 214 299 181 253 181 C212 181 193 218 193 296 C193 384 211 420 255 420 L255 420 Z M273 -46 C303 -46 342 -49 366 -52 C410 -58 424 -69 424 -97 C424 -135 375 -152 268 -152 C160 -152 119 -136 119 -95 C119 -72 132 -59 165 -53 C186 -49 235 -46 273 -46 L273 -46 Z M100 704 C111 649 122 624 144 600 C172 571 213 555 258 555 C303 555 345 572 373 600 C395 623 405 649 416 704 L371 704 C355 659 328 644 258 644 C189 644 163 658 145 704 L100 704 Z " />
<glyph glyph-name="Gcommaaccent" unicode="&#x122;" horiz-adv-x="745" d="M725 273 L725 354 L394 354 L394 273 L443 273 C488 272 492 268 492 222 L492 168 C492 133 489 121 475 105 C456 82 423 69 387 69 C281 69 219 167 219 334 C219 502 282 599 391 599 C441 599 481 577 510 535 C533 501 543 472 550 404 L634 404 L634 675 L555 675 L537 621 C464 673 424 687 354 687 C169 687 33 536 33 332 C33 124 164 -20 352 -20 C426 -20 469 -5 541 47 L575 -7 L655 -7 L655 229 C656 265 663 273 694 273 L725 273 Z M316 -281 C357 -276 381 -267 404 -246 C430 -222 446 -183 446 -143 C446 -90 413 -54 364 -54 C325 -54 297 -80 297 -118 C297 -152 320 -173 356 -173 C363 -173 370 -172 384 -168 C378 -212 359 -231 316 -237 L316 -281 Z " />
<glyph glyph-name="gcommaaccent" unicode="&#x123;" horiz-adv-x="604" d="M106 165 C48 138 28 113 28 68 C28 22 48 -4 102 -27 C41 -45 19 -67 19 -110 C19 -179 98 -214 256 -214 C441 -214 529 -163 529 -56 C529 30 470 74 354 74 C345 74 326 74 305 73 C274 72 247 72 237 72 C148 72 133 77 133 106 C133 119 138 127 154 139 C196 124 216 120 250 120 C379 120 462 188 462 293 C462 338 453 369 431 404 C456 429 473 439 488 439 C496 439 505 436 519 428 C495 416 483 398 483 373 C483 341 510 316 543 316 C581 316 607 345 607 388 C607 444 564 484 503 484 C467 484 445 474 404 440 C353 475 317 486 257 486 C130 486 47 415 47 306 C47 252 64 213 106 165 L106 165 Z M255 420 C300 420 316 388 316 298 C316 214 299 181 253 181 C212 181 193 218 193 296 C193 384 211 420 255 420 L255 420 Z M273 -46 C303 -46 342 -49 366 -52 C410 -58 424 -69 424 -97 C424 -135 375 -152 268 -152 C160 -152 119 -136 119 -95 C119 -72 132 -59 165 -53 C186 -49 235 -46 273 -46 L273 -46 Z M323 753 C282 748 257 738 235 718 C209 693 193 655 193 614 C193 561 226 525 275 525 C314 525 342 552 342 589 C342 623 319 645 283 645 C275 645 268 644 255 640 C261 684 280 703 323 709 L323 753 Z " />
<glyph glyph-name="Imacron" unicode="&#x12a;" horiz-adv-x="391" d="M21 0 L370 0 L370 82 L333 82 C283 81 276 89 276 143 L276 524 C276 578 283 586 333 585 L370 585 L370 667 L21 667 L21 585 L56 585 C106 586 113 578 113 524 L113 143 C113 89 106 81 56 82 L21 82 L21 0 Z M51 750 L340 750 L340 829 L51 829 L51 750 Z " />
<glyph glyph-name="imacron" unicode="&#x12b;" horiz-adv-x="335" d="M314 74 L287 74 C247 76 241 83 241 133 L241 469 L24 469 L24 395 L52 395 C95 393 101 386 102 336 L102 133 C101 83 95 76 52 74 L24 74 L24 0 L314 0 L314 74 Z M19 588 L317 588 L317 670 L19 670 L19 588 Z " />
<glyph glyph-name="Iogonek" unicode="&#x12e;" horiz-adv-x="391" d="M370 0 L370 82 L333 82 C283 81 276 89 276 143 L276 524 C276 578 283 586 333 585 L370 585 L370 667 L21 667 L21 585 L56 585 C106 586 113 578 113 524 L113 143 C113 89 106 81 56 82 L21 82 L21 0 L305 0 C231 -50 194 -101 194 -152 C194 -198 225 -227 275 -227 C323 -227 357 -200 384 -140 L368 -130 C347 -159 340 -164 320 -164 C296 -164 282 -146 282 -114 C282 -74 299 -40 339 0 L370 0 Z " />
<glyph glyph-name="iogonek" unicode="&#x12f;" horiz-adv-x="335" d="M314 0 L314 74 L287 74 C247 76 241 83 241 133 L241 469 L24 469 L24 395 L52 395 C95 393 101 386 102 336 L102 133 C101 83 95 76 52 74 L24 74 L24 0 L253 0 C177 -52 142 -101 142 -152 C142 -198 173 -227 222 -227 C270 -227 304 -200 331 -140 L315 -130 C294 -159 288 -164 268 -164 C244 -164 230 -146 230 -114 C230 -74 248 -39 287 0 L314 0 Z M161 667 C117 667 83 633 83 589 C83 546 117 512 160 512 C204 512 238 546 238 590 C238 632 203 667 161 667 L161 667 Z " />
<glyph glyph-name="Idotaccent" unicode="&#x130;" horiz-adv-x="391" d="M21 0 L370 0 L370 82 L333 82 C283 81 276 89 276 143 L276 524 C276 578 283 586 333 585 L370 585 L370 667 L21 667 L21 585 L56 585 C106 586 113 578 113 524 L113 143 C113 89 106 81 56 82 L21 82 L21 0 Z M196 862 C159 862 125 829 125 792 C125 753 157 721 196 721 C234 721 266 753 266 791 C266 829 233 862 196 862 L196 862 Z " />
<glyph glyph-name="dotlessi" unicode="&#x131;" horiz-adv-x="335" d="M314 74 L287 74 C247 76 241 83 241 133 L241 469 L24 469 L24 395 L52 395 C95 393 101 386 102 336 L102 133 C101 83 95 76 52 74 L24 74 L24 0 L314 0 L314 74 Z " />
<glyph glyph-name="Kcommaaccent" unicode="&#x136;" horiz-adv-x="750" d="M354 667 L19 667 L19 585 L53 585 C104 586 111 578 111 524 L111 143 C111 89 104 81 53 82 L19 82 L19 0 L352 0 L352 82 L328 82 C278 81 271 89 271 143 L271 225 L370 319 L491 122 C496 113 499 106 499 101 C499 88 484 82 451 82 L417 82 L417 0 L764 0 L764 82 L730 82 C702 82 684 94 664 124 L478 418 L607 536 C647 572 675 586 707 585 L731 585 L731 667 L415 667 L415 585 L456 585 C481 585 489 581 489 569 C489 563 485 555 476 547 L271 351 L271 524 C271 578 278 586 328 585 L354 585 L354 667 Z M319 -281 C360 -276 384 -267 407 -246 C433 -222 449 -183 449 -143 C449 -90 416 -54 367 -54 C328 -54 300 -80 300 -118 C300 -152 323 -173 359 -173 C366 -173 373 -172 387 -168 C381 -212 362 -231 319 -237 L319 -281 Z " />
<glyph glyph-name="kcommaaccent" unicode="&#x137;" horiz-adv-x="618" d="M14 593 L42 593 C85 591 91 584 92 534 L92 133 C91 83 85 76 42 74 L14 74 L14 0 L284 0 L284 74 L273 74 C234 78 232 82 231 143 L309 215 L375 115 C381 105 385 95 385 89 C385 79 375 74 359 74 L329 74 L329 0 L605 0 L605 74 L589 74 C560 73 533 92 511 128 L405 295 L469 352 C502 383 517 391 550 395 L574 395 L574 469 L296 469 L296 395 L354 395 C371 395 377 393 377 385 C377 380 372 372 361 362 L231 243 L231 667 L14 667 L14 593 Z M252 -281 C293 -276 317 -267 340 -246 C366 -222 382 -183 382 -143 C382 -90 349 -54 300 -54 C261 -54 233 -80 233 -118 C233 -152 256 -173 292 -173 C299 -173 306 -172 320 -168 C314 -212 295 -231 252 -237 L252 -281 Z " />
<glyph glyph-name="Lacute" unicode="&#x139;" horiz-adv-x="651" d="M373 667 L19 667 L19 585 L54 585 C104 586 111 578 111 524 L111 143 C111 89 104 81 54 82 L19 82 L19 0 L615 0 L615 279 L537 279 C528 116 497 79 371 82 L274 82 L274 524 C274 578 281 586 332 585 L373 585 L373 667 Z M285 721 L423 772 C450 782 466 801 466 822 C466 847 445 868 420 868 C403 868 390 862 368 842 L231 721 L285 721 Z " />
<glyph glyph-name="lacute" unicode="&#x13a;" horiz-adv-x="321" d="M231 667 L14 667 L14 593 L42 593 C85 591 91 584 92 534 L92 133 C91 83 85 76 42 74 L14 74 L14 0 L304 0 L304 74 L277 74 C237 76 231 83 231 133 L231 667 Z M145 726 L200 726 L359 805 C395 823 409 839 409 863 C409 893 386 916 356 916 C332 916 313 904 280 869 L145 726 Z " />
<glyph glyph-name="Lcommaaccent" unicode="&#x13b;" horiz-adv-x="651" d="M373 667 L19 667 L19 585 L54 585 C104 586 111 578 111 524 L111 143 C111 89 104 81 54 82 L19 82 L19 0 L615 0 L615 279 L537 279 C528 116 497 79 371 82 L274 82 L274 524 C274 578 281 586 332 585 L373 585 L373 667 Z M269 -281 C310 -276 334 -267 357 -246 C383 -222 399 -183 399 -143 C399 -90 366 -54 317 -54 C278 -54 250 -80 250 -118 C250 -152 273 -173 309 -173 C316 -173 323 -172 337 -168 C331 -212 312 -231 269 -237 L269 -281 Z " />
<glyph glyph-name="lcommaaccent" unicode="&#x13c;" horiz-adv-x="321" d="M231 667 L14 667 L14 593 L42 593 C85 591 91 584 92 534 L92 133 C91 83 85 76 42 74 L14 74 L14 0 L304 0 L304 74 L277 74 C237 76 231 83 231 133 L231 667 Z M104 -281 C145 -276 169 -267 192 -246 C218 -222 234 -183 234 -143 C234 -90 201 -54 152 -54 C113 -54 85 -80 85 -118 C85 -152 108 -173 144 -173 C151 -173 158 -172 172 -168 C166 -212 147 -231 104 -237 L104 -281 Z " />
<glyph glyph-name="Lcaron" unicode="&#x13d;" horiz-adv-x="651" d="M373 667 L19 667 L19 585 L54 585 C104 586 111 578 111 524 L111 143 C111 89 104 81 54 82 L19 82 L19 0 L615 0 L615 279 L537 279 C528 116 497 79 371 82 L274 82 L274 524 C274 578 281 586 332 585 L373 585 L373 667 Z M452 453 C491 458 515 467 536 488 C561 512 576 551 576 591 C576 644 544 680 497 680 C460 680 434 654 434 616 C434 582 456 561 490 561 C497 561 504 562 517 566 C511 522 493 503 452 497 L452 453 Z " />
<glyph glyph-name="lcaron" unicode="&#x13e;" horiz-adv-x="321" d="M231 667 L14 667 L14 593 L42 593 C85 591 91 584 92 534 L92 133 C91 83 85 76 42 74 L14 74 L14 0 L304 0 L304 74 L277 74 C237 76 231 83 231 133 L231 667 Z M311 454 C352 459 377 468 399 489 C425 513 441 552 441 592 C441 645 408 681 359 681 C320 681 292 654 292 617 C292 583 315 562 351 562 C359 562 366 563 379 567 C373 523 354 503 311 498 L311 454 Z " />
<glyph glyph-name="Lslash" unicode="&#x141;" horiz-adv-x="660" d="M379 667 L25 667 L25 585 L60 585 C110 586 117 578 117 524 L117 324 L5 242 L5 154 L117 236 L117 143 C117 89 110 81 60 82 L25 82 L25 0 L621 0 L621 279 L543 279 C534 116 503 79 377 82 L280 82 L280 305 L435 419 L435 507 L280 393 L280 524 C280 578 287 586 338 585 L379 585 L379 667 Z " />
<glyph glyph-name="lslash" unicode="&#x142;" horiz-adv-x="330" d="M101 280 L101 133 C100 83 94 76 51 74 L23 74 L23 0 L313 0 L313 74 L286 74 C245 76 240 83 240 133 L240 334 L340 406 L340 476 L240 404 L240 667 L23 667 L23 593 L51 593 C94 591 100 584 101 534 L101 350 L5 283 L5 213 L101 280 Z " />
<glyph glyph-name="Nacute" unicode="&#x143;" horiz-adv-x="774" d="M317 82 L276 82 C224 81 217 89 217 143 L217 522 L500 0 L667 0 L667 524 C667 578 674 586 725 585 L753 585 L753 667 L458 667 L458 585 L499 585 C551 586 558 578 558 524 L558 191 L299 667 L19 667 L19 585 L50 585 C101 586 108 578 108 524 L108 143 C108 89 101 81 50 82 L19 82 L19 0 L317 0 L317 82 Z M346 721 L484 772 C511 782 527 801 527 822 C527 847 506 868 481 868 C465 868 452 862 430 842 L292 721 L346 721 Z " />
<glyph glyph-name="nacute" unicode="&#x144;" horiz-adv-x="623" d="M330 0 L605 0 L605 74 L586 74 C541 76 535 83 535 133 L535 311 C535 382 526 418 502 443 C478 469 436 484 391 484 C328 484 293 463 230 385 L230 469 L19 469 L19 395 L45 395 C86 393 92 386 93 336 L93 133 C92 83 86 76 45 74 L19 74 L19 0 L297 0 L297 74 L282 74 C241 76 236 83 236 133 L236 272 C236 349 274 401 330 401 C352 401 370 392 380 376 C390 361 392 347 392 309 L392 133 C392 83 386 76 346 74 L330 74 L330 0 Z M212 540 L267 540 L425 619 C461 637 475 653 475 677 C475 707 452 730 422 730 C398 730 379 718 346 683 L212 540 Z " />
<glyph glyph-name="Ncommaaccent" unicode="&#x145;" horiz-adv-x="774" d="M317 82 L276 82 C224 81 217 89 217 143 L217 522 L500 0 L667 0 L667 524 C667 578 674 586 725 585 L753 585 L753 667 L458 667 L458 585 L499 585 C551 586 558 578 558 524 L558 191 L299 667 L19 667 L19 585 L50 585 C101 586 108 578 108 524 L108 143 C108 89 101 81 50 82 L19 82 L19 0 L317 0 L317 82 Z M330 -281 C371 -276 395 -267 418 -246 C444 -222 460 -183 460 -143 C460 -90 427 -54 378 -54 C339 -54 311 -80 311 -118 C311 -152 334 -173 370 -173 C377 -173 384 -172 398 -168 C392 -212 373 -231 330 -237 L330 -281 Z " />
<glyph glyph-name="ncommaaccent" unicode="&#x146;" horiz-adv-x="623" d="M330 0 L605 0 L605 74 L586 74 C541 76 535 83 535 133 L535 311 C535 382 526 418 502 443 C478 469 436 484 391 484 C328 484 293 463 230 385 L230 469 L19 469 L19 395 L45 395 C86 393 92 386 93 336 L93 133 C92 83 86 76 45 74 L19 74 L19 0 L297 0 L297 74 L282 74 C241 76 236 83 236 133 L236 272 C236 349 274 401 330 401 C352 401 370 392 380 376 C390 361 392 347 392 309 L392 133 C392 83 386 76 346 74 L330 74 L330 0 Z M255 -281 C296 -276 320 -267 343 -246 C369 -222 385 -183 385 -143 C385 -90 352 -54 303 -54 C264 -54 236 -80 236 -118 C236 -152 259 -173 295 -173 C302 -173 309 -172 323 -168 C317 -212 298 -231 255 -237 L255 -281 Z " />
<glyph glyph-name="Ncaron" unicode="&#x147;" horiz-adv-x="774" d="M317 82 L276 82 C224 81 217 89 217 143 L217 522 L500 0 L667 0 L667 524 C667 578 674 586 725 585 L753 585 L753 667 L458 667 L458 585 L499 585 C551 586 558 578 558 524 L558 191 L299 667 L19 667 L19 585 L50 585 C101 586 108 578 108 524 L108 143 C108 89 101 81 50 82 L19 82 L19 0 L317 0 L317 82 Z M233 858 L329 720 L445 720 L541 858 L494 858 L387 803 L279 858 L233 858 Z " />
<glyph glyph-name="ncaron" unicode="&#x148;" horiz-adv-x="623" d="M330 0 L605 0 L605 74 L586 74 C541 76 535 83 535 133 L535 311 C535 382 526 418 502 443 C478 469 436 484 391 484 C328 484 293 463 230 385 L230 469 L19 469 L19 395 L45 395 C86 393 92 386 93 336 L93 133 C92 83 86 76 45 74 L19 74 L19 0 L297 0 L297 74 L282 74 C241 76 236 83 236 133 L236 272 C236 349 274 401 330 401 C352 401 370 392 380 376 C390 361 392 347 392 309 L392 133 C392 83 386 76 346 74 L330 74 L330 0 Z M467 719 L418 719 L312 636 L204 719 L156 719 L267 540 L356 540 L467 719 Z " />
<glyph glyph-name="Omacron" unicode="&#x14c;" horiz-adv-x="769" d="M385 686 C174 686 33 544 33 334 C33 125 174 -19 380 -19 C486 -19 567 10 633 73 C701 138 736 226 736 335 C736 545 595 686 385 686 L385 686 Z M387 599 C436 599 480 571 509 523 C537 477 550 418 550 334 C550 167 489 69 385 69 C281 69 219 167 219 332 C219 418 231 475 260 523 C289 573 333 599 387 599 L387 599 Z M240 750 L529 750 L529 829 L240 829 L240 750 Z " />
<glyph glyph-name="omacron" unicode="&#x14d;" horiz-adv-x="561" d="M281 486 C129 486 26 386 26 238 C26 82 125 -17 282 -17 C435 -17 536 83 536 234 C536 387 435 486 281 486 L281 486 Z M281 409 C347 409 379 351 379 235 C379 117 347 60 281 60 C215 60 183 117 183 237 C183 351 216 409 281 409 L281 409 Z M132 588 L430 588 L430 670 L132 670 L132 588 Z " />
<glyph glyph-name="Ohungarumlaut" unicode="&#x150;" horiz-adv-x="769" d="M385 686 C174 686 33 544 33 334 C33 125 174 -19 380 -19 C486 -19 567 10 633 73 C701 138 736 226 736 335 C736 545 595 686 385 686 L385 686 Z M387 599 C436 599 480 571 509 523 C537 477 550 418 550 334 C550 167 489 69 385 69 C281 69 219 167 219 332 C219 418 231 475 260 523 C289 573 333 599 387 599 L387 599 Z M294 721 L389 786 C406 798 416 813 416 828 C416 850 396 869 374 869 C356 869 342 858 325 831 L256 721 L294 721 Z M420 721 L541 783 C565 795 576 809 576 826 C576 848 556 868 534 868 C517 868 503 859 484 838 L382 721 L420 721 Z " />
<glyph glyph-name="ohungarumlaut" unicode="&#x151;" horiz-adv-x="561" d="M281 486 C129 486 26 386 26 238 C26 82 125 -17 282 -17 C435 -17 536 83 536 234 C536 387 435 486 281 486 L281 486 Z M281 409 C347 409 379 351 379 235 C379 117 347 60 281 60 C215 60 183 117 183 237 C183 351 216 409 281 409 L281 409 Z M165 540 L209 540 L317 637 C337 654 347 671 347 687 C347 711 327 731 302 731 C276 731 261 718 236 671 L165 540 Z M290 540 L333 540 L474 631 C500 648 513 665 513 682 C513 708 493 729 467 729 C442 729 428 719 398 680 L290 540 Z " />
<glyph glyph-name="OE" unicode="&#x152;" horiz-adv-x="1142" d="M1089 667 L765 667 C655 667 637 668 532 677 C475 683 418 686 382 686 C175 686 33 542 33 334 C33 124 175 -19 384 -19 C423 -19 473 -16 526 -11 C585 -6 644 -1 656 -1 L781 0 L1088 0 L1088 279 L1010 279 C1000 116 966 79 831 82 L721 82 L721 306 L755 306 C816 306 835 284 836 213 L836 182 L913 182 L913 500 L836 500 C834 405 823 391 755 389 L721 389 L721 585 L841 585 C972 587 997 562 1014 408 L1089 408 L1089 667 Z M557 247 C557 167 549 126 528 102 C507 79 465 66 413 66 C283 66 219 155 219 333 C219 511 285 603 413 603 C465 603 508 589 528 567 C549 543 557 502 557 422 L557 247 Z " />
<glyph glyph-name="oe" unicode="&#x153;" horiz-adv-x="863" d="M734 161 C719 95 690 69 630 69 C592 69 567 82 549 109 C532 136 527 161 526 218 L836 218 C834 300 827 337 803 381 C768 447 697 487 616 487 C556 487 516 471 452 420 C397 468 348 486 275 486 C125 486 24 384 24 234 C24 85 126 -17 273 -17 C347 -17 397 3 452 55 C506 2 550 -17 618 -17 C688 -17 749 9 787 55 C810 84 820 108 827 161 L734 161 Z M528 294 C529 337 533 356 545 375 C558 397 581 409 610 409 C639 409 662 397 676 375 C688 356 692 337 693 294 L528 294 Z M278 409 C343 409 375 351 375 234 C375 117 343 60 278 60 C212 60 180 117 180 236 C180 351 213 409 278 409 L278 409 Z " />
<glyph glyph-name="Racute" unicode="&#x154;" horiz-adv-x="741" d="M19 585 L54 585 C104 586 111 578 111 524 L111 143 C111 89 104 81 54 82 L19 82 L19 0 L373 0 L373 82 L332 82 C281 81 274 89 274 143 L274 310 L362 310 C421 313 451 281 453 211 L455 144 C456 74 463 46 485 22 C509 -4 549 -20 591 -20 C652 -20 699 10 719 63 C729 91 732 115 732 188 L664 188 C663 96 658 78 634 78 C614 78 609 91 608 142 L605 212 C600 297 578 323 497 344 C549 359 570 369 594 388 C629 415 647 455 647 504 C647 555 626 600 589 627 C551 655 497 667 411 667 L19 667 L19 585 Z M274 390 L274 585 L333 585 C412 585 425 583 448 564 C467 548 477 522 477 489 C477 454 466 425 446 410 C425 394 399 390 329 390 L274 390 Z M240 721 L377 772 C404 782 420 801 420 822 C420 847 399 868 374 868 C358 868 345 862 323 842 L186 721 L240 721 Z " />
<glyph glyph-name="racute" unicode="&#x155;" horiz-adv-x="462" d="M226 469 L19 469 L19 395 L41 395 C83 393 88 386 89 336 L89 133 C88 83 83 76 41 74 L19 74 L19 0 L320 0 L320 74 L278 74 C238 76 232 84 232 133 L232 253 C232 322 238 353 258 383 C275 408 300 423 325 423 C333 423 340 421 352 414 C318 401 303 381 303 349 C303 312 331 285 369 285 C417 285 450 323 450 376 C450 440 407 482 343 482 C292 482 260 461 226 408 L226 469 Z M131 540 L186 540 L345 619 C381 637 395 653 395 677 C395 707 372 730 342 730 C318 730 299 718 266 683 L131 540 Z " />
<glyph glyph-name="Rcommaaccent" unicode="&#x156;" horiz-adv-x="741" d="M19 585 L54 585 C104 586 111 578 111 524 L111 143 C111 89 104 81 54 82 L19 82 L19 0 L373 0 L373 82 L332 82 C281 81 274 89 274 143 L274 310 L362 310 C421 313 451 281 453 211 L455 144 C456 74 463 46 485 22 C509 -4 549 -20 591 -20 C652 -20 699 10 719 63 C729 91 732 115 732 188 L664 188 C663 96 658 78 634 78 C614 78 609 91 608 142 L605 212 C600 297 578 323 497 344 C549 359 570 369 594 388 C629 415 647 455 647 504 C647 555 626 600 589 627 C551 655 497 667 411 667 L19 667 L19 585 Z M274 390 L274 585 L333 585 C412 585 425 583 448 564 C467 548 477 522 477 489 C477 454 466 425 446 410 C425 394 399 390 329 390 L274 390 Z M314 -281 C355 -276 379 -267 402 -246 C428 -222 444 -183 444 -143 C444 -90 411 -54 362 -54 C323 -54 295 -80 295 -118 C295 -152 318 -173 354 -173 C361 -173 368 -172 382 -168 C376 -212 357 -231 314 -237 L314 -281 Z " />
<glyph glyph-name="rcommaaccent" unicode="&#x157;" horiz-adv-x="462" d="M226 469 L19 469 L19 395 L41 395 C83 393 88 386 89 336 L89 133 C88 83 83 76 41 74 L19 74 L19 0 L320 0 L320 74 L278 74 C238 76 232 84 232 133 L232 253 C232 322 238 353 258 383 C275 408 300 423 325 423 C333 423 340 421 352 414 C318 401 303 381 303 349 C303 312 331 285 369 285 C417 285 450 323 450 376 C450 440 407 482 343 482 C292 482 260 461 226 408 L226 469 Z M99 -281 C140 -276 164 -267 187 -246 C213 -222 229 -183 229 -143 C229 -90 196 -54 147 -54 C108 -54 80 -80 80 -118 C80 -152 103 -173 139 -173 C146 -173 153 -172 167 -168 C161 -212 142 -231 99 -237 L99 -281 Z " />
<glyph glyph-name="Rcaron" unicode="&#x158;" horiz-adv-x="741" d="M19 585 L54 585 C104 586 111 578 111 524 L111 143 C111 89 104 81 54 82 L19 82 L19 0 L373 0 L373 82 L332 82 C281 81 274 89 274 143 L274 310 L362 310 C421 313 451 281 453 211 L455 144 C456 74 463 46 485 22 C509 -4 549 -20 591 -20 C652 -20 699 10 719 63 C729 91 732 115 732 188 L664 188 C663 96 658 78 634 78 C614 78 609 91 608 142 L605 212 C600 297 578 323 497 344 C549 359 570 369 594 388 C629 415 647 455 647 504 C647 555 626 600 589 627 C551 655 497 667 411 667 L19 667 L19 585 Z M274 390 L274 585 L333 585 C412 585 425 583 448 564 C467 548 477 522 477 489 C477 454 466 425 446 410 C425 394 399 390 329 390 L274 390 Z M117 858 L213 720 L328 720 L425 858 L378 858 L271 803 L163 858 L117 858 Z " />
<glyph glyph-name="rcaron" unicode="&#x159;" horiz-adv-x="462" d="M226 469 L19 469 L19 395 L41 395 C83 393 88 386 89 336 L89 133 C88 83 83 76 41 74 L19 74 L19 0 L320 0 L320 74 L278 74 C238 76 232 84 232 133 L232 253 C232 322 238 353 258 383 C275 408 300 423 325 423 C333 423 340 421 352 414 C318 401 303 381 303 349 C303 312 331 285 369 285 C417 285 450 323 450 376 C450 440 407 482 343 482 C292 482 260 461 226 408 L226 469 Z M355 719 L306 719 L199 636 L92 719 L43 719 L154 540 L244 540 L355 719 Z " />
<glyph glyph-name="Sacute" unicode="&#x15a;" horiz-adv-x="623" d="M118 -5 L140 49 C212 -3 261 -20 343 -20 C500 -20 602 67 602 201 C602 265 573 322 525 352 C485 378 428 398 330 421 C216 449 191 466 191 518 C191 567 232 597 296 597 C348 597 399 578 432 546 C460 518 473 488 485 421 L565 421 L565 669 L495 669 L472 623 C402 671 358 686 285 686 C137 686 38 600 38 473 C38 412 65 356 109 326 C146 301 202 281 305 256 C418 229 445 210 445 157 C445 107 399 74 329 74 C276 74 228 92 192 126 C157 158 142 190 126 262 L44 262 L44 -5 L118 -5 Z M270 721 L408 772 C434 782 451 801 451 822 C451 847 430 868 405 868 C389 868 376 862 354 842 L216 721 L270 721 Z " />
<glyph glyph-name="sacute" unicode="&#x15b;" horiz-adv-x="514" d="M125 30 C186 -5 231 -18 288 -18 C398 -18 475 47 475 138 C475 190 451 234 410 258 C383 273 346 286 289 302 C223 320 216 322 202 335 C194 341 189 353 189 365 C189 394 212 412 249 412 C273 412 300 404 321 391 C345 376 361 358 387 314 L451 314 L451 474 L387 474 L373 445 C320 476 284 487 229 487 C119 487 41 423 41 333 C41 290 59 255 94 230 C121 211 161 192 198 182 C291 157 293 156 310 145 C323 136 329 126 329 112 C329 81 301 61 256 61 C224 61 198 69 174 87 C145 108 133 127 117 176 L43 176 L43 -7 L109 -7 L125 30 Z M157 540 L212 540 L370 619 C406 636 420 653 420 677 C420 707 397 730 367 730 C343 730 325 718 292 683 L157 540 Z " />
<glyph glyph-name="Scedilla" unicode="&#x15e;" horiz-adv-x="623" d="M325 -20 L343 -20 C500 -20 602 67 602 201 C602 265 573 322 525 352 C485 378 428 398 330 421 C216 449 191 466 191 518 C191 567 232 597 296 597 C348 597 399 578 432 546 C460 518 473 488 485 421 L565 421 L565 669 L495 669 L472 623 C402 671 358 686 285 686 C137 686 38 600 38 472 C38 412 65 356 109 326 C147 301 202 281 305 256 C418 229 445 210 445 157 C445 107 399 74 329 74 C276 74 228 92 192 126 C157 158 142 190 126 262 L44 262 L44 -5 L118 -5 L140 49 C191 11 231 -7 283 -15 L283 -101 C293 -99 305 -97 311 -97 C335 -97 350 -111 350 -135 C350 -158 335 -171 311 -171 C282 -171 247 -158 205 -132 L184 -181 C260 -217 292 -227 336 -227 C401 -227 442 -192 442 -137 C442 -90 408 -55 364 -55 C352 -55 340 -56 325 -58 L325 -20 Z " />
<glyph glyph-name="scedilla" unicode="&#x15f;" horiz-adv-x="514" d="M264 -17 C272 -18 279 -18 287 -18 C398 -18 475 46 475 138 C475 190 451 235 410 258 C383 273 346 286 289 302 C223 319 216 322 202 335 C194 341 189 353 189 365 C189 394 212 412 249 412 C273 412 300 404 321 391 C345 376 361 358 387 314 L451 314 L451 474 L387 474 L373 445 C320 476 283 487 229 487 C119 487 41 423 41 333 C41 290 59 255 94 230 C120 211 160 193 197 182 C290 157 293 156 309 145 C322 136 328 126 328 112 C328 81 300 61 256 61 C223 61 198 69 173 87 C145 108 133 127 117 176 L43 176 L43 -7 L109 -7 L125 30 C161 9 189 -2 222 -10 L222 -99 C233 -97 244 -95 250 -95 C274 -95 289 -110 289 -134 C289 -157 275 -171 250 -171 C221 -171 187 -159 145 -132 L123 -181 C198 -217 231 -227 275 -227 C340 -227 380 -192 380 -136 C380 -88 347 -53 303 -53 C292 -53 278 -54 264 -56 L264 -17 Z " />
<glyph glyph-name="Scaron" unicode="&#x160;" horiz-adv-x="623" d="M118 -5 L140 49 C212 -3 261 -20 343 -20 C500 -20 602 67 602 201 C602 265 573 322 525 352 C485 378 428 398 330 421 C216 449 191 466 191 518 C191 567 232 597 296 597 C348 597 399 578 432 546 C460 518 473 488 485 421 L565 421 L565 669 L495 669 L472 623 C402 671 358 686 285 686 C137 686 38 600 38 473 C38 412 65 356 109 326 C146 301 202 281 305 256 C418 229 445 210 445 157 C445 107 399 74 329 74 C276 74 228 92 192 126 C157 158 142 190 126 262 L44 262 L44 -5 L118 -5 Z M157 858 L253 720 L369 720 L465 858 L418 858 L311 803 L203 858 L157 858 Z " />
<glyph glyph-name="scaron" unicode="&#x161;" horiz-adv-x="514" d="M125 30 C186 -5 231 -18 288 -18 C398 -18 475 47 475 138 C475 190 451 234 410 258 C383 273 346 286 289 302 C223 320 216 322 202 335 C194 341 189 353 189 365 C189 394 212 412 249 412 C273 412 300 404 321 391 C345 376 361 358 387 314 L451 314 L451 474 L387 474 L373 445 C320 476 284 487 229 487 C119 487 41 423 41 333 C41 290 59 255 94 230 C121 211 161 192 198 182 C291 157 293 156 310 145 C323 136 329 126 329 112 C329 81 301 61 256 61 C224 61 198 69 174 87 C145 108 133 127 117 176 L43 176 L43 -7 L109 -7 L125 30 Z M412 719 L364 719 L257 636 L150 719 L101 719 L212 540 L301 540 L412 719 Z " />
<glyph glyph-name="Tcommaaccent" unicode="&#x162;" horiz-adv-x="646" d="M241 143 C241 89 234 81 184 82 L143 82 L143 0 L503 0 L503 82 L462 82 C411 81 404 89 404 143 L404 587 C508 588 544 541 545 402 L627 402 L627 667 L19 667 L19 402 L101 402 C102 541 138 588 241 587 L241 143 Z M266 -281 C307 -276 331 -267 354 -246 C380 -222 396 -183 396 -143 C396 -90 363 -54 314 -54 C275 -54 247 -80 247 -118 C247 -152 270 -173 306 -173 C313 -173 320 -172 334 -168 C328 -212 309 -231 266 -237 L266 -281 Z " />
<glyph glyph-name="tcommaaccent" unicode="&#x163;" horiz-adv-x="410" d="M287 224 L287 180 C287 99 279 76 250 76 C226 76 219 92 219 144 L219 391 L332 391 L332 469 L216 469 L216 652 L140 652 C126 528 99 488 14 463 L14 391 L77 391 L77 170 C77 93 81 72 99 41 C122 3 164 -17 218 -17 C274 -17 312 1 336 38 C353 66 359 94 359 154 L359 224 L287 224 Z M149 -281 C190 -276 214 -267 237 -246 C263 -222 279 -183 279 -143 C279 -90 246 -54 197 -54 C158 -54 130 -80 130 -118 C130 -152 153 -173 189 -173 C196 -173 203 -172 217 -168 C211 -212 192 -231 149 -237 L149 -281 Z " />
<glyph glyph-name="Tcaron" unicode="&#x164;" horiz-adv-x="646" d="M241 143 C241 89 234 81 184 82 L143 82 L143 0 L503 0 L503 82 L462 82 C411 81 404 89 404 143 L404 587 C508 588 544 541 545 402 L627 402 L627 667 L19 667 L19 402 L101 402 C102 541 138 588 241 587 L241 143 Z M169 858 L265 720 L381 720 L477 858 L430 858 L323 803 L215 858 L169 858 Z " />
<glyph glyph-name="tcaron" unicode="&#x165;" horiz-adv-x="410" d="M287 224 L287 180 C287 99 279 76 250 76 C226 76 219 92 219 144 L219 391 L332 391 L332 469 L216 469 L216 652 L140 652 C126 528 99 488 14 463 L14 391 L77 391 L77 170 C77 93 81 72 99 41 C122 3 164 -17 218 -17 C274 -17 312 1 336 38 C353 66 359 94 359 154 L359 224 L287 224 Z M316 531 C357 536 382 545 404 566 C430 590 446 629 446 669 C446 722 413 758 364 758 C325 758 297 731 297 694 C297 660 320 639 356 639 C364 639 371 640 384 644 C378 600 359 580 316 575 L316 531 Z " />
<glyph glyph-name="Umacron" unicode="&#x16a;" horiz-adv-x="726" d="M705 667 L419 667 L419 585 L458 585 C506 586 512 578 512 524 L512 211 C512 158 505 131 487 111 C467 91 428 78 382 78 C347 78 321 86 302 104 C278 125 270 155 270 217 L270 524 C270 578 277 586 327 585 L368 585 L368 667 L19 667 L19 585 L49 585 C100 586 107 578 107 524 L107 206 C107 136 122 91 159 51 C204 2 268 -21 356 -21 C532 -21 622 58 622 213 L622 524 C622 579 628 586 676 585 L705 585 L705 667 Z M219 750 L508 750 L508 829 L219 829 L219 750 Z " />
<glyph glyph-name="umacron" unicode="&#x16b;" horiz-adv-x="623" d="M19 395 L37 395 C87 393 94 386 94 336 L94 156 C94 85 103 49 127 24 C150 -2 191 -17 236 -17 C300 -17 340 6 395 76 L395 0 L604 0 L604 74 L577 74 C536 76 531 83 531 133 L531 469 L310 469 L310 395 L337 395 C382 393 388 386 388 336 L388 194 C388 118 351 66 297 66 C276 66 258 75 248 91 C240 105 237 120 237 157 L237 469 L19 469 L19 395 Z M163 588 L460 588 L460 670 L163 670 L163 588 Z " />
<glyph glyph-name="Uring" unicode="&#x16e;" horiz-adv-x="726" d="M705 667 L419 667 L419 585 L458 585 C506 586 512 578 512 524 L512 211 C512 158 505 131 487 111 C467 91 428 78 382 78 C347 78 321 86 302 104 C278 125 270 155 270 217 L270 524 C270 578 277 586 327 585 L368 585 L368 667 L19 667 L19 585 L49 585 C100 586 107 578 107 524 L107 206 C107 136 122 91 159 51 C204 2 268 -21 356 -21 C532 -21 622 58 622 213 L622 524 C622 579 628 586 676 585 L705 585 L705 667 Z M363 932 C304 932 255 885 255 828 C255 766 304 716 364 716 C421 716 471 767 471 826 C471 885 423 932 363 932 L363 932 Z M363 869 C388 869 408 849 408 824 C408 799 388 779 364 779 C338 779 318 799 318 825 C318 849 339 869 363 869 L363 869 Z " />
<glyph glyph-name="uring" unicode="&#x16f;" horiz-adv-x="623" d="M19 395 L37 395 C87 393 94 386 94 336 L94 156 C94 85 103 49 127 24 C150 -2 191 -17 236 -17 C300 -17 340 6 395 76 L395 0 L604 0 L604 74 L577 74 C536 76 531 83 531 133 L531 469 L310 469 L310 395 L337 395 C382 393 388 386 388 336 L388 194 C388 118 351 66 297 66 C276 66 258 75 248 91 C240 105 237 120 237 157 L237 469 L19 469 L19 395 Z M279 777 C209 777 150 720 150 651 C150 576 206 519 280 519 C351 519 408 577 408 648 C408 719 350 777 279 777 L279 777 Z M279 707 C311 707 338 680 338 648 C338 615 312 589 280 589 C245 589 220 615 220 649 C220 681 247 707 279 707 L279 707 Z " />
<glyph glyph-name="Uhungarumlaut" unicode="&#x170;" horiz-adv-x="726" d="M705 667 L419 667 L419 585 L458 585 C506 586 512 578 512 524 L512 211 C512 158 505 131 487 111 C467 91 428 78 382 78 C347 78 321 86 302 104 C278 125 270 155 270 217 L270 524 C270 578 277 586 327 585 L368 585 L368 667 L19 667 L19 585 L49 585 C100 586 107 578 107 524 L107 206 C107 136 122 91 159 51 C204 2 268 -21 356 -21 C532 -21 622 58 622 213 L622 524 C622 579 628 586 676 585 L705 585 L705 667 Z M273 721 L368 786 C385 798 395 813 395 828 C395 850 375 869 353 869 C334 869 320 858 304 831 L235 721 L273 721 Z M399 721 L520 783 C543 795 554 809 554 826 C554 848 534 868 512 868 C496 868 482 860 463 838 L360 721 L399 721 Z " />
<glyph glyph-name="uhungarumlaut" unicode="&#x171;" horiz-adv-x="623" d="M19 395 L37 395 C87 393 94 386 94 336 L94 156 C94 85 103 49 127 24 C150 -2 191 -17 236 -17 C300 -17 340 6 395 76 L395 0 L604 0 L604 74 L577 74 C536 76 531 83 531 133 L531 469 L310 469 L310 395 L337 395 C382 393 388 386 388 336 L388 194 C388 118 351 66 297 66 C276 66 258 75 248 91 C240 105 237 120 237 157 L237 469 L19 469 L19 395 Z M196 540 L240 540 L348 637 C368 654 378 671 378 687 C378 711 358 731 333 731 C307 731 292 718 267 671 L196 540 Z M320 540 L364 540 L504 631 C529 647 543 665 543 682 C543 708 523 729 497 729 C473 729 459 719 428 680 L320 540 Z " />
<glyph glyph-name="Uogonek" unicode="&#x172;" horiz-adv-x="726" d="M705 585 L705 667 L419 667 L419 585 L458 585 C506 586 512 578 512 524 L512 211 C512 157 505 131 487 111 C467 90 428 78 381 78 C347 78 321 87 302 104 C278 125 270 155 270 217 L270 524 C270 578 277 586 327 585 L368 585 L368 667 L19 667 L19 585 L49 585 C100 586 107 578 107 524 L107 206 C107 136 122 91 159 51 C205 2 268 -21 356 -21 C373 -21 390 -20 409 -18 C342 -71 317 -108 317 -156 C317 -203 347 -231 397 -231 C446 -231 480 -204 507 -144 L491 -134 C471 -163 463 -168 444 -168 C419 -168 405 -150 405 -117 C405 -76 426 -40 463 -17 C493 0 523 18 552 36 C565 42 583 65 598 94 C615 129 622 162 622 213 L622 524 C622 579 628 586 676 585 L705 585 Z " />
<glyph glyph-name="uogonek" unicode="&#x173;" horiz-adv-x="623" d="M604 0 L604 74 L577 74 C536 76 531 83 531 133 L531 469 L310 469 L310 395 L337 395 C382 393 388 386 388 336 L388 194 C388 118 351 66 297 66 C276 66 258 75 248 91 C240 105 237 120 237 157 L237 469 L19 469 L19 395 L37 395 C87 393 94 386 94 336 L94 156 C94 85 103 49 127 24 C150 -2 192 -17 236 -17 C300 -17 339 6 395 76 L395 0 L555 0 C480 -48 438 -105 438 -157 C438 -204 468 -232 517 -232 C564 -232 598 -206 625 -146 L610 -135 C589 -164 582 -169 562 -169 C538 -169 524 -151 524 -119 C524 -78 544 -41 587 0 L604 0 Z " />
<glyph glyph-name="Ydieresis" unicode="&#x178;" horiz-adv-x="665" d="M-14 585 L10 585 C44 587 73 565 105 514 L250 277 L250 143 C250 89 243 81 192 82 L146 82 L146 0 L518 0 L518 82 L471 82 C420 81 413 89 413 143 L413 277 L567 520 C600 572 618 586 655 585 L677 585 L677 667 L394 667 L394 587 L426 587 C457 587 472 580 472 563 C472 555 468 545 463 537 L360 389 L268 528 C260 540 255 551 255 559 C255 579 267 585 303 585 L332 585 L332 667 L-14 667 L-14 585 Z M244 858 C208 858 176 826 176 791 C176 752 206 722 245 722 C281 722 312 753 312 789 C312 826 281 858 244 858 L244 858 Z M421 858 C385 858 353 826 353 791 C353 752 383 722 422 722 C458 722 489 753 489 789 C489 826 458 858 421 858 L421 858 Z " />
<glyph glyph-name="Zacute" unicode="&#x179;" horiz-adv-x="618" d="M19 0 L573 0 L573 286 L489 286 C480 124 449 86 323 81 L203 81 L573 575 L573 667 L39 667 L39 403 L117 403 C125 544 162 585 278 585 L391 585 L19 84 L19 0 Z M269 721 L406 772 C433 782 449 801 449 822 C449 847 428 868 403 868 C387 868 374 862 352 842 L215 721 L269 721 Z " />
<glyph glyph-name="zacute" unicode="&#x17a;" horiz-adv-x="505" d="M28 0 L451 0 L451 218 L376 218 C375 96 360 76 267 74 L186 74 L451 389 L451 469 L48 469 L48 267 L119 267 C121 382 134 397 228 395 L293 395 L28 83 L28 0 Z M152 540 L207 540 L365 619 C402 637 416 653 416 677 C416 707 393 730 363 730 C339 730 320 718 287 683 L152 540 Z " />
<glyph glyph-name="Zdotaccent" unicode="&#x17b;" horiz-adv-x="618" d="M19 0 L573 0 L573 286 L489 286 C480 124 449 86 323 81 L203 81 L573 575 L573 667 L39 667 L39 403 L117 403 C125 544 162 585 278 585 L391 585 L19 84 L19 0 Z M310 862 C273 862 239 829 239 792 C239 753 271 721 310 721 C348 721 380 753 380 791 C380 829 347 862 310 862 L310 862 Z " />
<glyph glyph-name="zdotaccent" unicode="&#x17c;" horiz-adv-x="505" d="M28 0 L451 0 L451 218 L376 218 C375 96 360 76 267 74 L186 74 L451 389 L451 469 L48 469 L48 267 L119 267 C121 382 134 397 228 395 L293 395 L28 83 L28 0 Z M254 702 C215 702 180 668 180 631 C180 590 213 557 254 557 C294 557 325 589 325 629 C325 669 293 702 254 702 L254 702 Z " />
<glyph glyph-name="Zcaron" unicode="&#x17d;" horiz-adv-x="618" d="M19 0 L573 0 L573 286 L489 286 C480 124 449 86 323 81 L203 81 L573 575 L573 667 L39 667 L39 403 L117 403 C125 544 162 585 278 585 L391 585 L19 84 L19 0 Z M155 858 L251 720 L367 720 L463 858 L417 858 L309 803 L201 858 L155 858 Z " />
<glyph glyph-name="zcaron" unicode="&#x17e;" horiz-adv-x="505" d="M28 0 L451 0 L451 218 L376 218 C375 96 360 76 267 74 L186 74 L451 389 L451 469 L48 469 L48 267 L119 267 C121 382 134 397 228 395 L293 395 L28 83 L28 0 Z M408 719 L359 719 L252 636 L145 719 L96 719 L207 540 L297 540 L408 719 Z " />
<glyph glyph-name="florin" unicode="&#x192;" horiz-adv-x="607" d="M394 389 L485 389 L497 469 L406 469 L415 528 C426 603 443 628 486 628 C498 628 507 625 523 616 C489 601 474 583 474 555 C474 524 495 504 528 504 C573 504 607 540 607 589 C607 648 556 685 476 685 C416 685 359 662 324 623 C298 594 284 562 276 507 L270 469 L192 469 L180 389 L258 389 L198 -10 C187 -86 169 -110 127 -110 C114 -110 106 -107 89 -98 C124 -83 139 -65 139 -37 C139 -6 118 14 85 14 C40 14 6 -22 6 -71 C6 -130 57 -167 137 -167 C197 -167 254 -144 289 -105 C315 -77 329 -44 337 11 L394 389 Z " />
<glyph glyph-name="uni01D3" unicode="&#x1d3;" horiz-adv-x="726" d="M705 667 L419 667 L419 585 L458 585 C506 586 512 578 512 524 L512 211 C512 158 505 131 487 111 C467 91 428 78 382 78 C347 78 321 86 302 104 C278 125 270 155 270 217 L270 524 C270 578 277 586 327 585 L368 585 L368 667 L19 667 L19 585 L49 585 C100 586 107 578 107 524 L107 206 C107 136 122 91 159 51 C204 2 268 -21 356 -21 C532 -21 622 58 622 213 L622 524 C622 579 628 586 676 585 L705 585 L705 667 Z M209 858 L305 720 L421 720 L518 858 L471 858 L363 803 L256 858 L209 858 Z " />
<glyph glyph-name="Scommaaccent" unicode="&#x218;" horiz-adv-x="623" d="M118 -5 L140 49 C212 -3 261 -20 343 -20 C500 -20 602 67 602 201 C602 265 573 322 525 352 C485 378 428 398 330 421 C216 449 191 466 191 518 C191 567 232 597 296 597 C348 597 399 578 432 546 C460 518 473 488 485 421 L565 421 L565 669 L495 669 L472 623 C402 671 358 686 285 686 C137 686 38 600 38 473 C38 412 65 356 109 326 C146 301 202 281 305 256 C418 229 445 210 445 157 C445 107 399 74 329 74 C276 74 228 92 192 126 C157 158 142 190 126 262 L44 262 L44 -5 L118 -5 Z M258 -281 C299 -276 323 -267 346 -246 C372 -222 388 -183 388 -143 C388 -90 355 -54 306 -54 C267 -54 239 -80 239 -118 C239 -152 262 -173 298 -173 C305 -173 312 -172 326 -168 C320 -212 301 -231 258 -237 L258 -281 Z " />
<glyph glyph-name="scommaaccent" unicode="&#x219;" horiz-adv-x="514" d="M125 30 C186 -5 231 -18 288 -18 C398 -18 475 47 475 138 C475 190 451 234 410 258 C383 273 346 286 289 302 C223 320 216 322 202 335 C194 341 189 353 189 365 C189 394 212 412 249 412 C273 412 300 404 321 391 C345 376 361 358 387 314 L451 314 L451 474 L387 474 L373 445 C320 476 284 487 229 487 C119 487 41 423 41 333 C41 290 59 255 94 230 C121 211 161 192 198 182 C291 157 293 156 310 145 C323 136 329 126 329 112 C329 81 301 61 256 61 C224 61 198 69 174 87 C145 108 133 127 117 176 L43 176 L43 -7 L109 -7 L125 30 Z M200 -281 C241 -276 265 -267 288 -246 C314 -222 330 -183 330 -143 C330 -90 297 -54 248 -54 C209 -54 181 -80 181 -118 C181 -152 204 -173 240 -173 C247 -173 254 -172 268 -168 C262 -212 243 -231 200 -237 L200 -281 Z " />
<glyph glyph-name="uni021A" unicode="&#x21a;" horiz-adv-x="646" d="M241 143 C241 89 234 81 184 82 L143 82 L143 0 L503 0 L503 82 L462 82 C411 81 404 89 404 143 L404 587 C508 588 544 541 545 402 L627 402 L627 667 L19 667 L19 402 L101 402 C102 541 138 588 241 587 L241 143 Z M266 -281 C307 -276 331 -267 354 -246 C380 -222 396 -183 396 -143 C396 -90 363 -54 314 -54 C275 -54 247 -80 247 -118 C247 -152 270 -173 306 -173 C313 -173 320 -172 334 -168 C328 -212 309 -231 266 -237 L266 -281 Z " />
<glyph glyph-name="uni021B" unicode="&#x21b;" horiz-adv-x="410" d="M287 224 L287 180 C287 99 279 76 250 76 C226 76 219 92 219 144 L219 391 L332 391 L332 469 L216 469 L216 652 L140 652 C126 528 99 488 14 463 L14 391 L77 391 L77 170 C77 93 81 72 99 41 C122 3 164 -17 218 -17 C274 -17 312 1 336 38 C353 66 359 94 359 154 L359 224 L287 224 Z M149 -281 C190 -276 214 -267 237 -246 C263 -222 279 -183 279 -143 C279 -90 246 -54 197 -54 C158 -54 130 -80 130 -118 C130 -152 153 -173 189 -173 C196 -173 203 -172 217 -168 C211 -212 192 -231 149 -237 L149 -281 Z " />
<glyph glyph-name="afii57929" unicode="&#x2bc;" horiz-adv-x="236" d="M36 403 C90 414 116 426 144 453 C178 485 198 533 198 582 C198 644 162 687 112 687 C67 687 32 650 32 604 C32 568 58 537 89 537 C97 537 110 540 124 546 C114 488 99 471 36 453 L36 403 Z " />
<glyph glyph-name="circumflex" unicode="&#x2c6;" horiz-adv-x="491" d="M90 540 L139 540 L246 623 L353 540 L401 540 L291 719 L201 719 L90 540 Z " />
<glyph glyph-name="caron" unicode="&#x2c7;" horiz-adv-x="491" d="M401 719 L353 719 L246 636 L139 719 L90 719 L201 540 L290 540 L401 719 Z " />
<glyph glyph-name="uni02C9" unicode="&#x2c9;" horiz-adv-x="490" d="M96 588 L394 588 L394 670 L96 670 L96 588 Z " />
<glyph glyph-name="breve" unicode="&#x2d8;" horiz-adv-x="491" d="M87 704 C98 649 109 624 131 600 C159 571 200 555 245 555 C290 555 332 572 360 600 C382 623 392 649 403 704 L358 704 C342 659 315 644 245 644 C176 644 150 658 132 704 L87 704 Z " />
<glyph glyph-name="dotaccent" unicode="&#x2d9;" horiz-adv-x="482" d="M243 702 C204 702 169 668 169 631 C169 590 202 557 243 557 C283 557 314 589 314 629 C314 669 282 702 243 702 L243 702 Z " />
<glyph glyph-name="ring" unicode="&#x2da;" horiz-adv-x="488" d="M212 777 C142 777 83 720 83 651 C83 576 139 519 213 519 C284 519 341 577 341 648 C341 719 283 777 212 777 L212 777 Z M212 707 C244 707 271 680 271 648 C271 615 245 589 213 589 C178 589 153 615 153 649 C153 681 180 707 212 707 L212 707 Z " />
<glyph glyph-name="ogonek" unicode="&#x2db;" horiz-adv-x="475" d="M275 14 C184 -43 143 -95 143 -152 C143 -198 173 -227 222 -227 C270 -227 303 -201 331 -140 L315 -130 C294 -159 287 -164 268 -164 C243 -164 229 -146 229 -114 C229 -69 247 -38 301 14 L275 14 Z " />
<glyph glyph-name="tilde" unicode="&#x2dc;" horiz-adv-x="490" d="M132 540 C140 568 153 581 174 581 C182 581 193 579 204 576 L259 561 C270 558 280 557 290 557 C317 557 340 568 358 589 C377 610 385 630 396 678 L358 678 C347 648 337 638 315 638 C309 638 301 639 293 641 L237 656 C225 659 212 661 200 661 C142 661 113 628 94 540 L132 540 Z " />
<glyph glyph-name="hungarumlaut" unicode="&#x2dd;" horiz-adv-x="485" d="M127 540 L171 540 L279 637 C299 654 309 671 309 687 C309 711 289 731 264 731 C238 731 223 718 198 671 L127 540 Z M251 540 L295 540 L436 631 C460 647 474 665 474 682 C474 708 454 729 428 729 C404 729 390 719 359 680 L251 540 Z " />
<glyph glyph-name="uni2011" unicode="&#x2011;" horiz-adv-x="261" d="M0 172 L261 172 L261 299 L0 299 L0 172 Z " />
<glyph glyph-name="figuredash" unicode="&#x2012;" horiz-adv-x="526" d="M27 187 L499 187 L499 284 L27 284 L27 187 Z " />
<glyph glyph-name="endash" unicode="&#x2013;" horiz-adv-x="526" d="M27 187 L499 187 L499 284 L27 284 L27 187 Z " />
<glyph glyph-name="emdash" unicode="&#x2014;" horiz-adv-x="698" d="M0 187 L698 187 L698 284 L0 284 L0 187 Z " />
<glyph glyph-name="afii00208" unicode="&#x2015;" horiz-adv-x="698" d="M0 187 L698 187 L698 284 L0 284 L0 187 Z " />
<glyph glyph-name="quoteleft" unicode="&#x2018;" horiz-adv-x="236" d="M195 687 C140 675 115 663 87 637 C53 604 33 557 33 508 C33 446 69 403 119 403 C164 403 199 439 199 486 C199 521 173 552 142 552 C134 552 121 549 107 543 C117 602 132 618 195 637 L195 687 Z " />
<glyph glyph-name="quoteright" unicode="&#x2019;" horiz-adv-x="236" d="M36 403 C90 414 116 426 144 453 C178 485 198 533 198 582 C198 644 162 687 112 687 C67 687 32 650 32 604 C32 568 58 537 89 537 C97 537 110 540 124 546 C114 488 99 471 36 453 L36 403 Z " />
<glyph glyph-name="quotesinglbase" unicode="&#x201a;" horiz-adv-x="236" d="M36 -144 C90 -133 116 -121 144 -94 C178 -62 198 -14 198 35 C198 97 162 140 112 140 C67 140 32 103 32 57 C32 21 58 -10 89 -10 C97 -10 110 -7 124 -1 C114 -59 99 -76 36 -94 L36 -144 Z " />
<glyph glyph-name="quotedblleft" unicode="&#x201c;" horiz-adv-x="458" d="M422 687 C367 675 342 663 314 637 C280 604 260 557 260 507 C260 446 296 403 346 403 C391 403 426 440 426 485 C426 521 400 552 369 552 C361 552 348 549 334 543 C344 602 359 618 422 637 L422 687 Z M200 687 C145 675 120 663 92 637 C58 604 38 557 38 508 C38 446 74 403 124 403 C169 403 204 439 204 485 C204 521 178 552 147 552 C139 552 126 549 112 543 C122 602 137 618 200 637 L200 687 Z " />
<glyph glyph-name="quotedblright" unicode="&#x201d;" horiz-adv-x="458" d="M258 403 C312 414 338 426 366 453 C400 485 420 533 420 582 C420 644 384 687 334 687 C289 687 254 650 254 604 C254 568 280 537 311 537 C319 537 332 540 346 546 C336 487 321 471 258 453 L258 403 Z M36 403 C90 414 116 426 144 453 C178 485 198 533 198 582 C198 644 162 687 112 687 C67 687 32 650 32 604 C32 568 58 537 89 537 C97 537 110 540 124 546 C114 488 99 471 36 453 L36 403 Z " />
<glyph glyph-name="quotedblbase" unicode="&#x201e;" horiz-adv-x="458" d="M41 -144 C96 -133 121 -121 149 -94 C183 -62 203 -14 203 35 C203 97 167 140 117 140 C72 140 37 103 37 57 C37 21 63 -10 94 -10 C102 -10 115 -7 129 -1 C119 -59 104 -76 41 -94 L41 -144 Z M263 -144 C317 -133 343 -121 371 -94 C405 -62 425 -14 425 35 C425 97 389 140 339 140 C294 140 259 103 259 57 C259 21 285 -10 316 -10 C324 -10 337 -7 351 -1 C341 -60 326 -76 263 -94 L263 -144 Z " />
<glyph glyph-name="dagger" unicode="&#x2020;" horiz-adv-x="566" d="M185 340 C198 344 207 347 213 349 C226 353 237 356 260 360 L259 329 L255 276 C250 182 250 175 235 28 C224 -66 223 -81 223 -105 C223 -174 243 -208 283 -208 C328 -208 347 -176 347 -103 C347 -75 345 -56 335 28 C320 171 310 302 311 360 C340 355 354 351 371 345 C429 324 435 322 459 322 C491 322 514 347 514 384 C514 422 491 446 454 446 C437 446 437 446 391 430 C385 428 373 424 354 419 C349 417 332 413 314 407 C315 456 317 473 334 545 C343 584 347 606 347 619 C347 663 325 687 285 687 C246 687 223 663 223 621 C223 605 227 583 236 546 C253 479 256 459 257 407 C239 413 222 417 217 419 C198 424 186 428 180 430 C134 446 134 446 118 446 C80 446 57 421 57 383 C57 346 79 322 112 322 C128 322 147 326 163 331 L185 340 Z " />
<glyph glyph-name="daggerdbl" unicode="&#x2021;" horiz-adv-x="566" d="M372 100 L359 96 C343 92 335 91 311 89 C317 162 327 199 351 238 C326 286 317 323 311 392 C339 389 352 387 372 380 C431 360 436 359 461 359 C495 359 518 382 518 416 C518 450 495 473 458 473 C440 473 432 471 393 458 C365 450 353 447 315 442 C315 476 316 482 326 517 C347 591 349 599 349 620 C349 661 324 687 285 687 C246 687 222 662 222 621 C222 599 226 580 244 517 C254 482 255 476 256 442 C218 447 206 449 177 458 C138 471 130 473 113 473 C76 473 52 450 52 415 C52 380 73 359 109 359 C126 359 145 362 160 367 C173 372 186 376 198 380 L211 384 C227 388 235 390 260 392 C253 321 244 287 219 238 C243 198 253 160 259 89 C231 91 220 93 198 100 C140 120 134 121 109 121 C75 121 52 99 52 65 C52 29 75 7 112 7 C130 7 138 9 177 22 C205 31 218 34 256 39 C255 4 254 -1 244 -36 C224 -106 221 -119 221 -140 C221 -180 246 -206 285 -206 C324 -206 348 -181 348 -140 C348 -117 345 -103 326 -36 C316 -2 315 4 315 39 C352 34 365 31 393 22 C432 9 440 7 458 7 C494 7 518 30 518 65 C518 100 497 121 461 121 C444 121 425 118 410 113 L372 100 Z " />
<glyph glyph-name="bullet" unicode="&#x2022;" horiz-adv-x="633" d="M318 480 C244 480 186 418 186 340 C186 263 244 200 317 200 C389 200 447 263 447 340 C447 417 389 480 318 480 L318 480 Z " />
<glyph glyph-name="ellipsis" unicode="&#x2026;" horiz-adv-x="892" d="M150 140 C109 140 75 105 75 64 C75 18 108 -17 150 -17 C192 -17 225 18 225 62 C225 105 192 140 150 140 L150 140 Z M447 140 C406 140 372 105 372 64 C372 18 405 -17 447 -17 C489 -17 522 18 522 62 C522 105 489 140 447 140 L447 140 Z M744 140 C703 140 669 105 669 64 C669 18 702 -17 744 -17 C786 -17 819 18 819 62 C819 105 786 140 744 140 L744 140 Z " />
<glyph glyph-name="perthousand" unicode="&#x2030;" horiz-adv-x="1314" d="M211 622 C106 622 33 545 33 433 C33 316 103 240 211 240 C318 240 389 317 389 432 C389 546 318 622 211 622 L211 622 Z M211 556 C253 556 272 517 272 431 C272 345 253 306 211 306 C169 306 150 345 150 433 C150 516 170 556 211 556 L211 556 Z M698 365 C593 365 520 288 520 177 C520 59 590 -17 698 -17 C805 -17 876 60 876 175 C876 289 805 365 698 365 L698 365 Z M699 297 C741 297 759 259 759 173 C759 86 741 50 697 50 C655 50 637 88 637 176 C637 260 656 297 699 297 L699 297 Z M237 -17 L316 -17 L670 623 L592 623 L237 -17 Z M1102 365 C997 365 924 288 924 177 C924 59 994 -17 1102 -17 C1209 -17 1280 60 1280 175 C1280 289 1209 365 1102 365 L1102 365 Z M1103 297 C1145 297 1163 259 1163 173 C1163 86 1145 50 1101 50 C1059 50 1041 88 1041 176 C1041 260 1060 297 1103 297 L1103 297 Z " />
<glyph glyph-name="guilsinglleft" unicode="&#x2039;" horiz-adv-x="274" d="M145 72 L224 72 L194 139 C182 166 170 216 170 238 C170 254 183 315 192 336 L219 403 L145 403 L105 346 C73 299 52 257 52 238 C52 218 73 176 105 129 L145 72 Z " />
<glyph glyph-name="guilsinglright" unicode="&#x203a;" horiz-adv-x="274" d="M131 72 L171 129 C203 176 224 218 224 238 C224 257 203 299 171 346 L131 403 L57 403 L84 336 C92 316 106 254 106 238 C106 216 94 166 82 139 L52 72 L131 72 Z " />
<glyph glyph-name="uni203E" unicode="&#x203e;" horiz-adv-x="501" d="M0 787 L0 702 L500 702 L500 787 L0 787 Z " />
<glyph glyph-name="fraction" unicode="&#x2044;" horiz-adv-x="156" d="M-156 -17 L-77 -17 L316 622 L236 622 L-156 -17 Z " />
<glyph glyph-name="Euro" unicode="&#x20ac;" horiz-adv-x="732" d="M103 355 C102 348 102 344 102 336 C102 330 102 324 103 312 L55 312 L28 244 L111 244 C149 78 269 -19 436 -19 C540 -19 607 11 655 80 C687 125 699 166 705 258 L615 258 C610 195 603 167 583 136 C557 93 512 69 460 69 C374 69 313 134 295 244 L455 244 L482 312 L289 312 C288 324 288 329 288 336 C288 343 288 348 289 355 L499 355 L527 423 L295 423 C313 533 374 598 461 598 C511 598 553 576 581 535 C605 501 614 471 622 404 L703 404 L703 675 L626 675 L609 621 C535 673 495 687 425 687 C271 687 147 582 111 423 L55 423 L28 355 L103 355 Z " />
<glyph glyph-name="trademark" unicode="&#x2122;" horiz-adv-x="971" d="M147 371 C147 342 145 339 115 339 L87 339 L87 287 L314 287 L314 339 L286 339 C255 339 253 342 253 371 L253 615 C313 615 333 590 333 512 L389 512 L389 667 L12 667 L12 512 L68 512 C68 590 88 616 147 615 L147 371 Z M957 667 L764 667 L686 434 L609 667 L412 667 L412 615 L435 615 C465 615 468 612 468 584 L468 370 C468 342 465 339 435 339 L412 339 L412 287 L593 287 L593 339 L574 339 C543 339 541 342 541 370 L541 578 L637 287 L705 287 L801 579 L801 370 C801 342 799 339 769 339 L749 339 L749 287 L957 287 L957 339 L933 339 C903 339 901 342 901 370 L901 584 C901 612 904 615 933 615 L957 615 L957 667 Z " />
<glyph glyph-name="uni2126" unicode="&#x2126;" horiz-adv-x="768" d="M326 0 L308 155 C230 199 180 288 180 382 C180 434 195 493 221 540 C257 605 317 642 385 642 C453 642 513 605 549 540 C575 493 590 434 590 382 C590 288 540 199 462 155 L444 0 L736 0 L736 153 L712 153 C704 108 684 90 643 90 L497 90 L500 128 C535 141 557 151 580 166 C657 215 702 296 702 382 C702 449 673 522 625 578 C564 648 480 686 385 686 C290 686 206 648 145 578 C97 522 68 449 68 382 C68 296 113 215 190 166 C213 151 235 141 270 128 L273 90 L127 90 C86 90 66 108 58 153 L34 153 L34 0 L326 0 Z " />
<glyph glyph-name="partialdiff" unicode="&#x2202;" horiz-adv-x="494" d="M107 674 C152 697 184 706 219 706 C321 706 379 611 379 447 C379 418 377 394 372 346 C308 396 272 412 221 412 C172 412 131 394 95 355 C51 309 26 246 26 184 C26 76 109 -10 213 -10 C282 -10 341 22 383 84 C429 152 462 286 462 403 C462 519 428 611 360 681 C312 730 259 753 195 753 C155 753 122 746 66 725 L107 674 Z M366 312 C350 201 340 158 314 107 C288 54 245 21 201 21 C146 21 113 73 113 159 C113 273 180 367 261 367 C299 367 324 354 366 312 L366 312 Z " />
<glyph glyph-name="Delta" unicode="&#x2206;" horiz-adv-x="612" d="M6 0 L608 0 L327 688 L6 0 Z M77 51 L290 509 L479 51 L77 51 Z " />
<glyph glyph-name="product" unicode="&#x220f;" horiz-adv-x="823" d="M25 -124 L315 -124 L315 -98 L312 -98 C242 -94 221 -67 224 18 L224 594 C224 656 228 677 242 690 C260 707 272 708 413 708 C556 708 568 707 586 690 C600 677 604 656 604 594 L604 18 C607 -67 586 -94 516 -98 L513 -98 L513 -124 L803 -124 L803 -98 L800 -98 C730 -94 709 -67 712 18 L712 609 C709 694 730 721 800 725 L803 725 L803 751 L25 751 L25 725 L28 725 C98 721 119 694 116 609 L116 18 C119 -67 98 -94 28 -98 L25 -98 L25 -124 Z " />
<glyph glyph-name="summation" unicode="&#x2211;" horiz-adv-x="713" d="M176 711 L444 711 C560 710 590 688 606 587 L632 587 L622 752 L23 752 L256 285 L14 -123 L641 -123 L695 87 L669 87 C639 7 605 -12 491 -11 L163 -11 L364 341 L176 711 Z " />
<glyph glyph-name="minus" unicode="&#x2212;" horiz-adv-x="565" d="M70 366 L70 263 L496 263 L496 366 L70 366 Z " />
<glyph glyph-name="uni2215" unicode="&#x2215;" horiz-adv-x="156" d="M-156 -17 L-77 -17 L316 622 L236 622 L-156 -17 Z " />
<glyph glyph-name="uni2219" unicode="&#x2219;" horiz-adv-x="297" d="M150 313 C109 313 75 278 75 237 C75 191 108 156 150 156 C192 156 225 191 225 235 C225 278 192 313 150 313 L150 313 Z " />
<glyph glyph-name="radical" unicode="&#x221a;" horiz-adv-x="549" d="M363 -35 L515 908 L480 913 L353 123 L156 520 L10 449 L26 414 L121 461 L363 -35 Z " />
<glyph glyph-name="infinity" unicode="&#x221e;" horiz-adv-x="713" d="M357 227 C415 156 485 115 548 115 C631 115 688 176 688 266 C688 354 629 414 543 414 C476 414 412 376 357 303 C300 375 234 414 171 414 C86 414 26 351 26 263 C26 176 84 115 167 115 C224 115 281 142 327 192 L357 227 Z M391 264 C434 325 493 362 546 362 C600 362 638 321 638 264 C638 205 603 167 549 167 C495 167 461 188 391 264 L391 264 Z M324 266 C275 203 216 167 163 167 C111 167 76 207 76 266 C76 323 113 362 167 362 C218 362 258 337 324 266 L324 266 Z " />
<glyph glyph-name="integral" unicode="&#x222b;" horiz-adv-x="274" d="M180 576 C180 653 179 691 176 746 C174 774 173 800 173 815 C173 855 184 878 202 878 C208 878 213 876 215 872 C232 845 239 839 256 839 C276 839 291 853 291 871 C291 898 267 916 231 916 C186 916 152 887 138 838 C123 784 113 682 113 577 L113 232 C113 160 114 124 117 63 C119 34 120 4 120 -12 C120 -47 108 -70 89 -70 C81 -70 74 -65 68 -52 C59 -35 51 -30 37 -30 C17 -30 2 -44 2 -63 C2 -89 26 -107 62 -107 C107 -107 141 -78 155 -29 C170 25 180 126 180 232 L180 576 Z " />
<glyph glyph-name="approxequal" unicode="&#x2248;" horiz-adv-x="549" d="M489 251 C444 199 423 187 384 187 C365 187 354 190 285 211 C212 234 188 239 160 239 C101 239 54 211 14 155 L57 121 C103 174 120 184 159 184 C180 184 180 184 271 157 C350 133 354 132 385 132 C449 132 496 160 527 217 L489 251 Z M489 408 C444 356 423 344 384 344 C365 344 354 347 285 368 C212 391 188 396 160 396 C101 396 54 369 14 312 L57 278 C103 331 120 341 159 341 C180 341 180 341 271 314 C350 290 354 289 385 289 C449 289 496 318 527 375 L489 408 Z " />
<glyph glyph-name="notequal" unicode="&#x2260;" horiz-adv-x="549" d="M187 142 L115 -1 L161 -25 L246 142 L540 142 L540 197 L273 197 L344 336 L540 336 L540 391 L371 391 L439 525 L392 549 L312 391 L15 391 L15 336 L285 336 L215 197 L15 197 L15 142 L187 142 Z " />
<glyph glyph-name="lessequal" unicode="&#x2264;" horiz-adv-x="549" d="M526 55 L29 55 L29 0 L526 0 L526 55 Z M526 639 L29 405 L29 350 L526 117 L526 179 L108 378 L526 577 L526 639 Z " />
<glyph glyph-name="greaterequal" unicode="&#x2265;" horiz-adv-x="549" d="M526 55 L29 55 L29 0 L526 0 L526 55 Z M29 639 L29 577 L447 378 L29 179 L29 117 L526 350 L526 405 L29 639 Z " />
<glyph glyph-name="lozenge" unicode="&#x25ca;" horiz-adv-x="494" d="M209 0 L269 -1 L466 374 L277 740 L214 740 L18 377 L209 0 Z M240 58 L81 376 L245 683 L402 373 L240 58 Z " />
<glyph glyph-name="fi" unicode="&#xfb01;" horiz-adv-x="641" d="M302 74 L286 74 C247 76 241 83 241 133 L241 389 L359 389 C398 389 405 380 406 330 L406 133 C405 82 399 74 359 74 L345 74 L345 0 L620 0 L620 74 L595 74 C554 76 548 83 548 133 L548 469 L241 469 L241 528 C241 588 275 620 340 620 C362 620 376 617 402 607 C387 590 382 580 382 563 C382 527 412 502 454 502 C500 502 530 530 530 574 C530 642 455 684 333 684 C250 684 177 661 138 623 C112 597 98 557 98 507 L98 469 L24 469 L24 389 L98 389 L98 133 C97 83 91 76 51 74 L24 74 L24 0 L302 0 L302 74 Z " />
<glyph glyph-name="fl" unicode="&#xfb02;" horiz-adv-x="641" d="M302 74 L286 74 C247 76 241 83 241 133 L241 389 L346 389 L346 469 L241 469 L241 528 C241 588 275 620 340 620 C362 620 375 617 402 607 C386 590 382 580 382 563 C382 542 387 532 406 515 L406 133 C405 83 399 76 359 74 L345 74 L345 0 L620 0 L620 74 L595 74 C554 76 548 83 548 133 L548 667 L445 667 C391 681 364 685 324 685 C243 685 177 663 138 624 C112 597 98 557 98 507 L98 469 L24 469 L24 389 L98 389 L98 133 C97 83 91 76 50 74 L24 74 L24 0 L302 0 L302 74 Z " />
</font>
</svg>
