<?xml version="1.0" standalone="no"?>
<!DOCTYPE svg PUBLIC "-//W3C//DTD SVG 1.1//EN" "http://www.w3.org/Graphics/SVG/1.1/DTD/svg11.dtd" >
<svg xmlns="http://www.w3.org/2000/svg">
<metadata>
Created by FontPrep 20130207 at Tue Apr  4 12:52:29 2017
 By Tina Muller
Copyright (c) 2016 by Daniel Hernandez &#38; Paula Nazal. All rights reserved.
</metadata>
<defs>
<font id="52db970ba4cba20f0e768c78b44c62d9" horiz-adv-x='1024' >
  <font-face 
    font-family="Trenda-BoldIt"
    font-weight="700"
    font-style="italic"
    font-stretch="normal"
    units-per-em="2048"
    panose-1="0 0 8 0 0 0 0 0 0 0"
    ascent="1638"
    descent="-410"
    x-height="942"
    cap-height="1440"
    bbox="-1477 -602 2767 1991"
    underline-thickness="102"
    underline-position="-102"
    slope="-8"
    unicode-range="U+0020-FB02"
  />
<missing-glyph horiz-adv-x="1179" 
 />
    <glyph glyph-name="fi" unicode="fi" horiz-adv-x="1300" 
d="M915 0l134 942h268l-133 -942h-269zM1401 1283q-1 -75 -53 -127t-129 -52t-123 43t-45 117q0 74 52 128q52 52 129 52t123 -43t46 -118zM794 1479q164 0 259 -74l-129 -201q-55 31 -109 31q-162 0 -188 -197l-13 -96h263l-33 -225h-262l-101 -717h-268l100 717h-170
l33 225h174l15 111q29 197 147 311t282 115z" />
    <glyph glyph-name="fl" unicode="fl" horiz-adv-x="1280" 
d="M893 0l205 1462h268l-205 -1462h-268zM794 1479q164 0 259 -74l-129 -201q-55 31 -109 31q-162 0 -188 -197l-13 -96h263l-33 -225h-262l-101 -717h-268l100 717h-170l33 225h174l15 111q29 197 147 311t282 115z" />
    <glyph glyph-name=".notdef" horiz-adv-x="1179" 
 />
    <glyph glyph-name=".null" 
 />
    <glyph glyph-name="nonmarkingreturn" horiz-adv-x="681" 
 />
    <glyph glyph-name="space" unicode=" " horiz-adv-x="446" 
 />
    <glyph glyph-name="exclam" unicode="!" horiz-adv-x="550" 
d="M467 162q-1 -68 -59 -123t-126 -55t-110 42q-41 42 -41 112t56 125q56 56 127 56t112 -45q41 -44 41 -112zM231 436l101 1067h309l-205 -1067h-205z" />
    <glyph glyph-name="quotedbl" unicode="&#x22;" horiz-adv-x="751" 
d="M604 1051l29 422h229l-84 -422h-174zM270 1051l29 422h236l-91 -422h-174z" />
    <glyph glyph-name="numbersign" unicode="#" horiz-adv-x="1347" 
d="M854 573l127 297h-281l-125 -297h279zM1450 1442l-152 -361h146l-31 -211h-203l-127 -297h207l-28 -211h-267l-151 -360h-232l154 360h-281l-151 -360h-223l151 360h-137l29 211h198l125 297h-201l29 211h262l152 361h223l-151 -361h278l154 361h227z" />
    <glyph glyph-name="dollar" unicode="$" horiz-adv-x="1097" 
d="M246 986q0 148 101 245q101 98 265 129l25 176h272l-26 -176q164 -29 274 -117l-123 -201q-143 96 -309 97q-92 0 -148 -33q-57 -33 -57 -91t48 -89t140 -62q92 -30 140 -52q47 -22 101 -62q112 -84 112 -248t-97 -265t-268 -131l-22 -176h-271l25 172q-203 31 -330 134
l129 206q162 -115 346 -114q113 0 166 30t53 100t-54 104t-192 78t-219 121t-81 225z" />
    <glyph glyph-name="percent" unicode="%" horiz-adv-x="1689" 
d="M1161 318q0 -78 37 -120q38 -40 106 -40t120 57t52 134t-37 118q-38 41 -107 41t-120 -56t-51 -134zM1667 387q1 -184 -111 -299t-268 -115t-237 84q-82 84 -82 226q0 182 111 297q112 114 266 114t238 -84q83 -84 83 -223zM599 1356q-69 0 -119 -56t-50 -134t37 -118
t105 -40t120 57q51 57 51 134t-37 117q-38 40 -107 40zM541 819q-137 0 -220 86t-83 228q0 179 112 295t266 116q152 0 235 -85t83 -224q0 -182 -110 -299t-283 -117zM506 -39l-189 92l1055 1499l189 -102z" />
    <glyph glyph-name="ampersand" unicode="&#x26;" horiz-adv-x="1355" 
d="M610 207q104 0 215 90l-270 309q-150 -88 -149 -227q0 -80 50 -126t154 -46zM778 1249q-68 0 -122 -56t-54 -138t80 -189q236 106 236 254q0 57 -36 93t-104 36zM129 344q0 270 297 420q-84 137 -84 268q0 188 134 307t335 119q160 0 254 -83t94 -219t-91 -251t-253 -196
l215 -248q147 147 205 270l170 -119q-84 -162 -240 -309l148 -168q-4 -8 -189 -180l-157 180q-190 -154 -424 -153q-186 0 -300 99t-114 263z" />
    <glyph glyph-name="quotesingle" unicode="'" horiz-adv-x="419" 
d="M270 1051l29 422h236l-91 -422h-174z" />
    <glyph glyph-name="parenleft" unicode="(" horiz-adv-x="704" 
d="M158 537q0 391 168 677t467 465l96 -186q-111 -82 -191 -163q-80 -80 -150 -190q-143 -223 -142 -571q0 -217 74 -364t202 -268l-160 -189q-168 119 -266 321t-98 468z" />
    <glyph glyph-name="parenright" unicode=")" horiz-adv-x="702" 
d="M500 870q0 375 -264 623l147 186q166 -121 264 -321t98 -465q1 -391 -167 -678t-465 -467l-109 189q115 87 193 163q204 200 266 443q37 145 37 327z" />
    <glyph glyph-name="asterisk" unicode="*" horiz-adv-x="827" 
d="M909 1241l-221 -96l195 -103l-105 -145l-160 137l-10 -237h-159l49 235l-201 -135l-57 145l221 101l-195 98l103 145l159 -133l15 228h162l-50 -228l193 133z" />
    <glyph glyph-name="plus" unicode="+" horiz-adv-x="1095" 
d="M1098 707l-31 -213h-336l-51 -369h-221l51 369h-344l31 213h342l51 368h221l-51 -368h338z" />
    <glyph glyph-name="comma" unicode="," horiz-adv-x="516" 
d="M229 -10q-55 0 -90 38t-35 104t50 114q50 47 127 47q75 0 119 -49q44 -50 44 -144t-80 -200t-202 -160l-64 86q127 88 142 164h-11z" />
    <glyph glyph-name="hyphen" unicode="-" horiz-adv-x="733" 
d="M166 399l31 222h516l-33 -222h-514z" />
    <glyph glyph-name="period" unicode="." horiz-adv-x="509" 
d="M271 -14q-75 0 -119 42t-46 114q0 72 52 122q52 51 125 51q75 0 119 -42q44 -41 44 -113t-50 -123t-125 -51z" />
    <glyph glyph-name="slash" unicode="/" horiz-adv-x="796" 
d="M10 -315l740 1943h219l-738 -1943h-221z" />
    <glyph glyph-name="zero" unicode="0" horiz-adv-x="1351" 
d="M721 227q166 0 268 164t103 459q0 180 -65 272t-183 92q-172 0 -278 -157q-105 -158 -105 -461q0 -184 67 -277q68 -92 193 -92zM684 -18q-236 0 -369 156t-133 440q0 416 194 648t503 232q233 0 362 -156t129 -438q0 -408 -192 -645t-494 -237z" />
    <glyph glyph-name="one" unicode="1" horiz-adv-x="823" 
d="M692 1440h168l-203 -1440h-272l160 1130l-305 -110l-54 223z" />
    <glyph glyph-name="two" unicode="2" horiz-adv-x="1110" 
d="M638 1458q232 0 360 -110t128 -304q0 -158 -76 -299t-210 -278q-136 -137 -258 -225h497l-32 -242h-955l21 156q301 188 495 391q125 133 177 232q53 99 53 201t-66 166q-66 65 -182 64q-168 0 -299 -82l-68 215q183 115 415 115z" />
    <glyph glyph-name="three" unicode="3" horiz-adv-x="1079" 
d="M1067 504q0 -234 -167 -378t-437 -144t-416 127l127 206q126 -104 286 -104t245 76q83 76 83 187q-1 214 -219 214q-111 0 -202 -41l-43 144l426 411h-521l35 238h871l-25 -176l-385 -375q162 -11 252 -111t90 -274z" />
    <glyph glyph-name="four" unicode="4" horiz-adv-x="1163" 
d="M1182 543l-35 -240h-133l-43 -303h-266l43 303h-666l24 174l474 977l223 -82l-387 -829h364l72 501h266l-71 -501h135z" />
    <glyph glyph-name="five" unicode="5" horiz-adv-x="1099" 
d="M842 480q0 220 -254 220q-120 0 -230 -55l-100 78l100 717h799l-35 -236h-524l-41 -299q82 16 150 17q187 0 295 -100t108 -285q0 -244 -157 -400t-439 -155q-161 0 -281 48q-45 17 -93 40t-56 24l123 215l46 -23q152 -78 284 -77q132 0 219 77q86 78 86 194z" />
    <glyph glyph-name="six" unicode="6" horiz-adv-x="1198" 
d="M424 440q0 -92 61 -156t180 -65q119 0 197 72q78 71 78 185t-63 175t-175 61t-194 -71q-82 -72 -84 -182v-19zM800 932q186 0 292 -113t106 -291q0 -242 -161 -394t-393 -152t-361 130t-129 347q0 629 847 1001l101 -200q-473 -195 -613 -459q125 131 311 131z" />
    <glyph glyph-name="seven" unicode="7" horiz-adv-x="1024" 
d="M162 0l686 1190h-647l37 250h970l-16 -127l-746 -1313h-284z" />
    <glyph glyph-name="eight" unicode="8" horiz-adv-x="1232" 
d="M926 446q0 97 -60 149t-170 52q-110 -1 -190 -69t-80 -166t60 -150q60 -53 170 -53t190 70t80 167zM746 864q91 0 160 60t69 145q0 84 -51 130t-142 46t-159 -60q-68 -61 -68 -145t50 -130t141 -46zM1204 469q0 -207 -156 -347t-410 -140t-375 103q-120 103 -120 259
t83 268q83 113 206 160q-139 78 -139 262q1 184 153 304t358 120t321 -93q116 -93 116 -249q0 -236 -221 -344q84 -35 134 -115t50 -188z" />
    <glyph glyph-name="nine" unicode="9" horiz-adv-x="1191" 
d="M728 1223q-118 0 -194 -75q-76 -74 -75 -186q0 -112 63 -174t175 -61q112 0 191 70t87 182v18q0 96 -65 161q-64 65 -182 65zM744 1460q232 0 366 -129q133 -129 133 -340q0 -342 -224 -607t-632 -402l-92 200q430 168 592 432q-117 -104 -291 -104t-285 117t-110 299
q0 238 155 386q156 148 388 148z" />
    <glyph glyph-name="colon" unicode=":" horiz-adv-x="550" 
d="M310 301q70 0 112 -43q42 -44 41 -112t-59 -124t-129 -57q-71 0 -111 42t-39 113q0 71 57 126q58 55 128 55zM372 637q-70 0 -112 43q-41 42 -41 112t57 126t128 55q71 0 111 -43t40 -113t-56 -125q-57 -55 -127 -55z" />
    <glyph glyph-name="semicolon" unicode=";" horiz-adv-x="620" 
d="M249 -25q-34 0 -63 33q-28 34 -28 100t55 117t130 51t113 -40t38 -109q0 -117 -79 -229t-202 -172l-61 86q55 37 94 84t43 81q-6 -2 -40 -2zM604 788q0 -70 -57 -124q-57 -56 -127 -56t-112 42q-40 42 -40 112t58 126t126 56q70 0 111 -43t41 -113z" />
    <glyph glyph-name="less" unicode="&#x3c;" horiz-adv-x="884" 
d="M926 1145l-37 -258l-483 -293l401 -293l-35 -256l-627 432l33 234z" />
    <glyph glyph-name="equal" unicode="=" horiz-adv-x="1224" 
d="M160 262l30 215h977l-28 -215h-979zM223 705l29 213h979l-31 -213h-977z" />
    <glyph glyph-name="greater" unicode="&#x3e;" horiz-adv-x="884" 
d="M283 1143l624 -434l-33 -234l-745 -430l35 254l483 293l-399 293z" />
    <glyph glyph-name="question" unicode="?" horiz-adv-x="888" 
d="M362 -16q-66 0 -106 40q-39 40 -39 106t52 115q53 50 119 50t104 -39q38 -38 38 -104t-51 -117t-117 -51zM520 1272q-100 0 -223 -66l-74 197q189 102 371 102t286 -87t105 -240q0 -205 -146 -337q-61 -57 -125 -107q-155 -123 -177 -271l-7 -45h-239l12 78q14 98 61 179
q46 81 102 132t111 97q127 108 125 220q0 70 -40 109q-42 39 -142 39z" />
    <glyph glyph-name="at" unicode="@" horiz-adv-x="1867" 
d="M969 315q76 1 134 57q57 56 71 147t-29 147t-130 57q-87 0 -147 -67t-59 -157q0 -90 42 -137t118 -47zM1135 1376q337 0 535 -186t198 -490q0 -258 -123 -422t-317 -166q-194 -1 -242 113q-117 -129 -307 -129q-143 0 -233 104t-89 261q0 203 132 343t317 140
q133 0 219 -76l12 52h197l-62 -445q-23 -137 74 -137q82 0 132 90t50 236q0 223 -147 355t-398 130q-309 -4 -508 -204t-198 -513q0 -230 131 -374t342 -149t383 75l45 -213q-193 -90 -424 -90q-334 -1 -530 195t-195 519q0 425 288 703t718 278z" />
    <glyph glyph-name="A" unicode="A" horiz-adv-x="1368" 
d="M963 510l-134 524l-282 -524h416zM1075 0l-67 279h-572l-147 -279h-297l803 1440h184l393 -1440h-297z" />
    <glyph glyph-name="B" unicode="B" horiz-adv-x="1323" 
d="M745 236q135 0 207 58t72 146q0 174 -223 174h-275l-53 -378h272zM1061 1044q0 160 -215 160h-236l-53 -364h256q121 0 185 54t63 150zM1300 461q0 -213 -146 -337t-441 -124h-549l203 1440h518q233 0 346 -89t113 -229t-69 -235q-68 -94 -181 -135q102 -31 154 -109
t52 -182z" />
    <glyph glyph-name="C" unicode="C" horiz-adv-x="1306" 
d="M832.5 -18q-289.5 0 -474 181t-184.5 458q0 358 217 598.5t578 240.5q285 0 479 -141l-156 -225q-137 106 -343.5 106t-341 -152.5t-134.5 -398.5q0 -184 107.5 -296.5t292.5 -112.5t311 102l112 -209q-174 -151 -463.5 -151z" />
    <glyph glyph-name="D" unicode="D" horiz-adv-x="1501" 
d="M700 250q260 0 397.5 149.5t137.5 399.5q0 180 -103.5 285.5t-293.5 105.5h-226l-133 -940h221zM877 1440q303 0 476 -167t173 -444q0 -373 -232.5 -601t-627.5 -228h-504l203 1440h512z" />
    <glyph glyph-name="E" unicode="E" horiz-adv-x="1212" 
d="M1274 1190h-664l-47 -338h584l-35 -250h-584l-49 -354h668l-35 -248h-950l203 1440h944z" />
    <glyph glyph-name="F" unicode="F" horiz-adv-x="1159" 
d="M1266 1190h-656l-61 -449h567l-35 -249h-567l-70 -492h-282l203 1440h935z" />
    <glyph glyph-name="G" unicode="G" horiz-adv-x="1437" 
d="M172 625q0 360 219 597.5t584 237.5q299 0 491 -153l-151 -217q-135 111 -352 110.5t-354.5 -149t-137.5 -398.5q0 -186 107.5 -299.5t287.5 -113.5q137 0 250 53l60 424h264l-82 -584q-215 -152 -517 -151.5t-485.5 182.5t-183.5 461z" />
    <glyph glyph-name="H" unicode="H" horiz-adv-x="1570" 
d="M1327 1440h283l-203 -1440h-283l84 596h-680l-84 -596h-282l203 1440h282l-84 -594h680z" />
    <glyph glyph-name="I" unicode="I" horiz-adv-x="606" 
d="M162 0l203 1440h282l-203 -1440h-282z" />
    <glyph glyph-name="J" unicode="J" horiz-adv-x="954" 
d="M336 -18q-193 0 -320 94l142 237q70 -55 184 -55q219 0 252 250l131 932h283l-134 -940q-40 -266 -170 -392t-368 -126z" />
    <glyph glyph-name="K" unicode="K" horiz-adv-x="1359" 
d="M1571 1440l-766 -731l594 -709h-359l-512 602l-84 -602h-282l200 1440h283l-86 -623l666 625z" />
    <glyph glyph-name="L" unicode="L" horiz-adv-x="1120" 
d="M479 248h658l-35 -248h-940l203 1440h282z" />
    <glyph glyph-name="M" unicode="M" horiz-adv-x="1767" 
d="M1612 1440h178l-166 -1440h-278l108 844l-461 -676h-176l-260 686l-135 -854h-277l248 1440h182l379 -938z" />
    <glyph glyph-name="N" unicode="N" horiz-adv-x="1556" 
d="M1317 1440h278l-204 -1456h-158l-660 962l-133 -946h-276l205 1454h159l654 -958z" />
    <glyph glyph-name="O" unicode="O" horiz-adv-x="1605" 
d="M878.5 240q190.5 0 323.5 147.5t133 409.5q0 176 -108.5 289.5t-299 113.5t-323.5 -148.5t-133 -408.5q0 -180 108.5 -291.5t299 -111.5zM865.5 -18q-326.5 0 -510 186t-183.5 455q0 369 220 602t547.5 233t511 -184t183.5 -455q0 -373 -221 -605t-547.5 -232z" />
    <glyph glyph-name="P" unicode="P" horiz-adv-x="1265" 
d="M733 666q150 0 238 85t88 196t-67 177t-187 66h-195l-73 -524h196zM858 1440q228 0 360 -121t132 -328q0 -260 -180 -418t-468 -159h-202l-58 -414h-280l203 1440h493z" />
    <glyph glyph-name="Q" unicode="Q" horiz-adv-x="1601" 
d="M465 643q0 -180 108.5 -291.5t299 -111.5t323.5 147.5t133 409.5q0 176 -108.5 289.5t-299 113.5t-323.5 -148.5t-133 -408.5zM1628 835q0 -254 -94 -439t-262 -294l205 -225l-207 -203l-289 318q-72 -10 -137 -10q-311 0 -494.5 186t-183.5 455q0 369 220 602t547.5 233
t511 -184.5t183.5 -438.5z" />
    <glyph glyph-name="R" unicode="R" horiz-adv-x="1323" 
d="M737 659q145 0 236.5 83t91.5 206.5t-67.5 185.5t-186.5 62h-203l-76 -537h205zM1358 1006.5q0 -193.5 -93.5 -328.5t-254.5 -203l252 -475h-304l-210 420h-248l-60 -420h-278l203 1440h505q227 0 357.5 -120t130.5 -313.5z" />
    <glyph glyph-name="S" unicode="S" horiz-adv-x="1159" 
d="M592 -18q-319 0 -522 174l145 215q188 -143 395 -144q111 0 176.5 48.5t65.5 134.5t-55.5 130t-192.5 83q-178 59 -268 149t-90 242q0 204 152 324t416 120t437 -147l-147 -203q-164 104 -332 104q-109 0 -172 -39.5t-63 -114.5t55 -114q56 -39 212 -89t245.5 -142
t89.5 -262q0 -213 -146.5 -341t-400.5 -128z" />
    <glyph glyph-name="T" unicode="T" horiz-adv-x="1228" 
d="M1413 1440l-37 -250h-452l-168 -1190h-283l168 1190h-453l35 250h1190z" />
    <glyph glyph-name="U" unicode="U" horiz-adv-x="1501" 
d="M751.5 -18q-277.5 0 -420.5 165.5t-100 470.5l115 822h285l-119 -844q-20 -156 47.5 -257t225 -101t255 101t119.5 257l117 844h280l-114 -822q-43 -305 -228 -470.5t-462.5 -165.5z" />
    <glyph glyph-name="V" unicode="V" horiz-adv-x="1333" 
d="M1225 1440h303l-772 -1440h-178l-369 1440h315l158 -731l51 -297l131 297z" />
    <glyph glyph-name="W" unicode="W" horiz-adv-x="1890" 
d="M1804 1440h283l-631 -1440h-211l-162 981l-438 -981h-213l-225 1440h301l65 -518l41 -486l193 469l246 535h188l92 -535l68 -483l194 502z" />
    <glyph glyph-name="X" unicode="X" horiz-adv-x="1349" 
d="M1518 1440l-568 -713l393 -727h-335l-269 520l-395 -520h-326l594 743l-368 697h336l237 -494l375 494h326z" />
    <glyph glyph-name="Y" unicode="Y" horiz-adv-x="1318" 
d="M1509 1440l-628 -871l-80 -569h-285l82 567l-379 873h336l227 -588l402 588h325z" />
    <glyph glyph-name="Z" unicode="Z" horiz-adv-x="1259" 
d="M1372 1440l-26 -178l-889 -1012h764l-37 -250h-1118l24 176l881 1014h-729l37 250h1093z" />
    <glyph glyph-name="bracketleft" unicode="[" horiz-adv-x="735" 
d="M881 1401h-310l-196 -1393h311l-31 -215h-542l256 1821h540z" />
    <glyph glyph-name="backslash" unicode="\" horiz-adv-x="796" 
d="M471 -336l-197 1892h220l200 -1892h-223z" />
    <glyph glyph-name="bracketright" unicode="]" horiz-adv-x="735" 
d="M276 1614h543l-256 -1821h-540l30 215h309l197 1393h-311z" />
    <glyph glyph-name="asciicircum" unicode="^" horiz-adv-x="1028" 
d="M1042 786h-231l-123 357l-250 -357h-252l447 621h201z" />
    <glyph glyph-name="underscore" unicode="_" horiz-adv-x="1212" 
d="M94 -68l29 209h1005l-30 -209h-1004z" />
    <glyph glyph-name="grave" unicode="`" horiz-adv-x="563" 
d="M590 1061l-397 205l151 219l356 -273z" />
    <glyph glyph-name="a" unicode="a" horiz-adv-x="1153" 
d="M613.5 225q103.5 0 167 79t63.5 187.5t-53.5 167t-150.5 58.5t-167 -77t-70 -185.5t53.5 -169t157 -60.5zM133 408q0 248 145.5 400.5t352.5 152.5q170 0 268 -103l23 84h247l-133 -942h-237l6 90q-98 -109 -276.5 -108.5t-287 117t-108.5 309.5z" />
    <glyph glyph-name="b" unicode="b" horiz-adv-x="1153" 
d="M442 448q0 -108 54 -166t156 -57q103 0 167 81q63 80 63 188t-54 165t-154 57t-166 -79q-66 -81 -66 -189zM772 961q164 0 272 -120t109 -332q0 -212 -139 -370t-369 -157q-186 0 -289 127l-22 -109h-215l205 1462h266l-80 -579q98 78 262 78z" />
    <glyph glyph-name="c" unicode="c" horiz-adv-x="907" 
d="M563.5 -18q-193.5 0 -314 120.5t-120.5 307.5q0 244 150.5 397.5t390.5 153.5q195 0 305 -99l-135 -213q-72 68 -186 68t-184.5 -76t-70.5 -187.5t53.5 -170t149.5 -58.5t180 64l123 -187q-148 -120 -341.5 -120z" />
    <glyph glyph-name="d" unicode="d" horiz-adv-x="1153" 
d="M612.5 225q102.5 0 167 79t64.5 186.5t-54.5 167t-155 59.5t-167 -80t-66.5 -186.5t54.5 -166t157 -59.5zM131 408q0 236 137.5 394.5t360.5 158.5q162 0 258 -101l84 602h268l-205 -1462h-217l6 94q-113 -113 -294 -112.5t-289.5 119t-108.5 307.5z" />
    <glyph glyph-name="e" unicode="e" horiz-adv-x="1054" 
d="M635 745q-82 0 -140.5 -45t-84.5 -125h401v5q0 76 -47 120.5t-129 44.5zM1061 567q0 -91 -23 -164h-647q10 -88 69.5 -141t168.5 -53t211 80l112 -180q-154 -127 -366.5 -127t-333.5 120.5t-121 309.5q0 248 151.5 398.5t358.5 150.5t313.5 -109t106.5 -285z" />
    <glyph glyph-name="f" unicode="f" horiz-adv-x="774" 
d="M794 1479q164 0 259 -74l-129 -201q-55 31 -109 31q-162 0 -188 -197l-13 -96h263l-33 -225h-262l-101 -717h-268l100 717h-170l33 225h174l15 111q29 197 147 311t282 115z" />
    <glyph glyph-name="g" unicode="g" horiz-adv-x="1146" 
d="M609 225q101 0 166 77t65 185.5t-54.5 169t-154.5 60.5t-167 -78t-67 -185.5t55.5 -168t156.5 -60.5zM466 -418q-253 0 -398 125l141 197q125 -92 267.5 -92t211 62.5t82.5 162.5l4 29q-94 -84 -257 -84t-275.5 114.5t-112.5 300.5q0 250 141.5 407t356.5 157
q168 0 268 -105l23 86h245l-125 -881q-31 -221 -175 -350t-397 -129z" />
    <glyph glyph-name="h" unicode="h" horiz-adv-x="1148" 
d="M785 961q173 0 265.5 -120t63.5 -321l-74 -520h-268l68 487q14 113 -29 172.5t-127 59.5t-140.5 -47t-78.5 -131l-76 -541h-270l205 1462h266l-86 -594q108 93 281 93z" />
    <glyph glyph-name="i" unicode="i" horiz-adv-x="503" 
d="M119 0l133 942h268l-133 -942h-268zM423 1104q-77 0 -123 43t-46 117t52 128q52 52 129 52t123 -43t46 -118t-52 -127t-129 -52z" />
    <glyph glyph-name="j" unicode="j" horiz-adv-x="520" 
d="M-16 -418q-119 0 -201 47l108 213q33 -16 91 -16q129 0 151 170l133 946h266l-131 -942q-27 -198 -132 -308t-285 -110zM437 1104q-77 0 -123 43t-46 117t52 128q52 52 130 52q76 0 122 -43t46 -118t-52 -127t-129 -52z" />
    <glyph glyph-name="k" unicode="k" horiz-adv-x="1044" 
d="M1165 942l-473 -457l361 -485h-328l-285 397l-55 -397h-268l205 1462h268l-123 -882l362 362h336z" />
    <glyph glyph-name="l" unicode="l" horiz-adv-x="505" 
d="M119 0l205 1462h268l-205 -1462h-268z" />
    <glyph glyph-name="m" unicode="m" horiz-adv-x="1736" 
d="M1362 961q192 -1 282 -107t66 -283l-80 -571h-268l72 516q14 100 -24 152t-118 51q-80 0 -135 -53t-78 -150l-71 -516h-269l72 516q14 100 -24 152q-39 52 -117 51q-78 0 -135 -55t-76 -152l-74 -512h-268l133 942h196l-12 -151q49 73 133 121t187 49q227 0 305 -166
q111 166 303 166z" />
    <glyph glyph-name="n" unicode="n" horiz-adv-x="1144" 
d="M776 961q180 0 272.5 -120t63.5 -321l-74 -520h-268l68 487q16 113 -27 172.5t-133 59.5t-149.5 -60.5t-73.5 -166.5l-70 -492h-268l133 942h196l-2 -141q113 160 332 160z" />
    <glyph glyph-name="o" unicode="o" horiz-adv-x="1110" 
d="M608.5 225q100.5 0 167 80t66.5 186.5t-55.5 166t-155 59.5t-166 -81t-66.5 -186.5t54.5 -165t155 -59.5zM587 -18q-215 0 -336.5 120.5t-121.5 309.5q0 246 154.5 397.5t371 151.5t337 -121t120.5 -312q0 -244 -155 -395t-370 -151z" />
    <glyph glyph-name="p" unicode="p" horiz-adv-x="1153" 
d="M883 492q1 106 -53 165t-154 59t-166 -78q-68 -80 -68 -188t54 -166t155 -59q102 0 167 80q65 81 65 187zM765 961q173 0 281 -119t107 -303q0 -238 -138 -398t-366 -159q-162 0 -252 110l-67 -491h-267l189 1341h219l-6 -104q127 123 300 123z" />
    <glyph glyph-name="q" unicode="q" horiz-adv-x="1150" 
d="M401 456q-1 -108 53 -170t158 -61q104 0 168 79q64 78 64 186t-54 167t-152 59t-168 -76q-69 -76 -69 -184zM641 961q182 0 281 -130l24 111h219l-188 -1341h-264l63 460q-94 -79 -263 -79t-275 122t-107 314q0 236 141 390t369 153z" />
    <glyph glyph-name="r" unicode="r" horiz-adv-x="749" 
d="M778 961q47 0 78 -9l-59 -266q-45 18 -90 19q-90 0 -160 -58.5t-90 -148.5l-72 -498h-268l133 942h223l-14 -168q39 82 126 134.5t193 52.5z" />
    <glyph glyph-name="s" unicode="s" horiz-adv-x="923" 
d="M481 -18q-250 0 -409 120l137 197q123 -102 289 -102q117 0 116 79q0 35 -30.5 55.5t-112.5 41.5q-283 70 -283 262q0 147 115 236.5t321 89.5t341 -107l-113 -186q-127 78 -259 78t-132 -70q0 -35 33.5 -53.5t119.5 -40.5t137.5 -47t94.5 -83.5t43 -142.5
q0 -145 -110 -236t-298 -91z" />
    <glyph glyph-name="t" unicode="t" horiz-adv-x="878" 
d="M577 -18q-178 0 -261 95t-56 271l51 369h-180l33 225h190l45 324h258l-45 -324h328l-33 -225h-327l-48 -334q-23 -160 130 -160q78 0 149 49l70 -198q-126 -92 -304 -92z" />
    <glyph glyph-name="u" unicode="u" horiz-adv-x="1130" 
d="M514.5 -18q-192.5 0 -285 115.5t-63.5 324.5l74 520h268l-68 -475q-29 -227 152 -227q86 0 145.5 64.5t73.5 162.5l68 475h268l-133 -942h-211l10 123q-106 -141 -298.5 -141z" />
    <glyph glyph-name="v" unicode="v" horiz-adv-x="1054" 
d="M883 942h286l-546 -944h-191l-280 944h294l134 -596z" />
    <glyph glyph-name="w" unicode="w" horiz-adv-x="1589" 
d="M1421 942h283l-485 -942h-193l-137 571l-299 -571h-199l-239 942h288l107 -598l299 598h180l135 -612z" />
    <glyph glyph-name="x" unicode="x" horiz-adv-x="1017" 
d="M1102 942l-377 -479l250 -463h-309l-127 285l-201 -285h-313l387 483l-234 459h311l113 -266l186 266h314z" />
    <glyph glyph-name="y" unicode="y" horiz-adv-x="1044" 
d="M1165 942l-508 -958l-200 -383h-279l225 409l-251 932h301l133 -627l299 627h280z" />
    <glyph glyph-name="z" unicode="z" horiz-adv-x="962" 
d="M1010 942l-29 -199l-541 -518h478l-31 -225h-815l28 199l541 518h-451l33 225h787z" />
    <glyph glyph-name="braceleft" unicode="{" horiz-adv-x="702" 
d="M221 600h-88l31 201h88q76 0 94 137l47 342q27 178 154 276t317 99l-28 -209q-92 0 -142 -44t-65 -140l-45 -332q-14 -102 -41 -150t-97 -82q60 -29 74 -81t-2 -148l-47 -332q-14 -100 24 -143t132 -43l-31 -205q-190 0 -291 97q-100 97 -76 272l50 348q18 137 -58 137z
" />
    <glyph glyph-name="bar" unicode="|" horiz-adv-x="516" 
d="M113 -213l233 1675h232l-234 -1675h-231z" />
    <glyph glyph-name="braceright" unicode="}" horiz-adv-x="700" 
d="M676 801h88l-29 -201h-88q-76 0 -94 -137l-49 -348q-25 -173 -153 -271t-318 -98l28 205q94 0 144 43q49 43 63 143l47 332q14 105 41 153t95 76q-59 33 -74 85q-14 52 2 147l47 332q14 96 -24 140t-130 44l29 209q191 -1 291 -99t74 -276l-45 -344q-23 -135 55 -135z
" />
    <glyph glyph-name="asciitilde" unicode="~" horiz-adv-x="1134" 
d="M831 625q63 0 142 86l135 -125q-2 0 -28 -34t-81 -73q-107 -76 -200 -76t-183 43t-129 43q-90 0 -150 -60q-7 -7 -9 -7l-140 127q2 0 18 17q129 142 298 145q74 0 169 -43t158 -43z" />
    <glyph glyph-name="uni00A0" unicode="&#xa0;" horiz-adv-x="446" 
 />
    <glyph glyph-name="exclamdown" unicode="&#xa1;" horiz-adv-x="552" 
d="M66 -399l200 1067h207l-96 -1067h-311zM428 1120q70 0 112 -43t42 -111t-58 -124q-58 -58 -129 -58q-69 0 -109 43t-40 113t56 125t126 55z" />
    <glyph glyph-name="cent" unicode="&#xa2;" horiz-adv-x="1085" 
d="M172 655q0 233 141.5 402.5t364.5 216.5l37 260h250l-37 -254q133 -20 250 -113l-134 -202q-94 82 -243.5 80.5t-250.5 -103.5t-101 -240.5t76.5 -216t204.5 -78t243 75.5l78 -202q-145 -88 -277 -111l-35 -238h-250l35 246q-162 41 -257 171t-95 306z" />
    <glyph glyph-name="sterling" unicode="&#xa3;" horiz-adv-x="1163" 
d="M948 1214q-242 0 -280 -260l-33 -227h364l-28 -209h-361l-39 -287h543l-33 -231h-987l33 231h174l41 287h-174l29 209h174l35 258q29 217 171 345t359 128q133 0 219 -37t121 -78l-139 -194q-80 65 -189 65z" />
    <glyph glyph-name="currency" unicode="&#xa4;" horiz-adv-x="1196" 
d="M687 496q95 0 158 72q62 72 62 176t-51 157t-145 53t-157 -70q-62 -70 -62 -174t50 -159t145 -55zM1133 791q0 -172 -91 -308l95 -114l-168 -148l-90 111q-95 -53 -225 -53t-228 63l-139 -125l-129 143l145 134q-35 82 -35 184q0 164 88 295l-96 117l168 143l94 -113
q102 51 231 51t226 -63l141 129l125 -147l-143 -134q31 -73 31 -165z" />
    <glyph glyph-name="yen" unicode="&#xa5;" horiz-adv-x="1386" 
d="M1540 1440l-493 -682h223l-27 -195h-336l-22 -162h334l-29 -194h-332l-29 -207h-272l29 207h-350l26 194h350l23 162h-348l28 195h240l-297 682h313l252 -609l420 609h297z" />
    <glyph glyph-name="brokenbar" unicode="&#xa6;" horiz-adv-x="520" 
d="M117 -211l98 713h229l-98 -713h-229zM252 760l98 702h230l-99 -702h-229z" />
    <glyph glyph-name="section" unicode="&#xa7;" horiz-adv-x="1056" 
d="M483 745q0 -83 148 -129q59 -18 69 -21t21 -7q78 39 78 104q-1 42 -23 62q-46 40 -122 66q-15 4 -50 16t-47 16q-74 -39 -74 -107zM987 285q0 -186 -140 -296q-141 -110 -363 -110t-404 144l113 192q160 -117 317 -117q100 0 163 37q62 37 62 95t-33 83l-21 17
q-9 8 -43 24t-80 30q-47 13 -87 25q-178 58 -225 166q-23 51 -23 117q0 162 121 279q-57 72 -57 170q0 180 138 297q138 116 355 116t363 -124l-119 -189q-127 98 -270 98q-96 0 -150 -42t-55 -104q0 -62 82 -102q31 -15 95 -37q126 -44 206 -96q120 -79 121 -231
q0 -152 -125 -264q59 -78 59 -178z" />
    <glyph glyph-name="dieresis" unicode="&#xa8;" horiz-adv-x="841" 
d="M649 1269q0 67 52 115q51 48 117 50q66 0 104 -39t36 -106q0 -67 -52 -116t-116 -49t-103 39q-38 39 -38 106zM526 1293q0 -67 -51 -116t-117 -49t-103 39q-38 39 -38 106t52 116q53 49 117 49t102 -39t38 -106z" />
    <glyph glyph-name="copyright" unicode="&#xa9;" horiz-adv-x="1576" 
d="M858 356q-133 0 -219 88t-86 251t116 277t294 113q115 0 202 -59l-67 -149q-70 43 -158 43t-148 -64t-60 -152q0 -90 42 -136q43 -46 123 -46t158 39l41 -147q-105 -58 -238 -58zM868 172q232 0 380 170t149 451q0 209 -125 341q-124 132 -352 132t-384 -171t-155 -450
q0 -205 128 -339q127 -134 359 -134zM829 -18q-299 0 -477 182t-178 463q0 367 224 599t560 232q295 0 469 -180t175 -465q0 -373 -216 -602t-557 -229z" />
    <glyph glyph-name="ordfeminine" unicode="&#xaa;" horiz-adv-x="862" 
d="M741 1388q-1 140 -127 140q-64 0 -106 -51q-43 -51 -43 -117t31 -103q30 -38 92 -38t108 51q46 52 45 118zM528 1059q-120 0 -186 76t-66 213t96 240q96 104 221 104q124 0 179 -74l16 61h164l-86 -608h-159l10 82q-70 -94 -189 -94z" />
    <glyph glyph-name="guillemotleft" unicode="&#xab;" horiz-adv-x="989" 
d="M678 141l-174 363l276 362h242l-283 -362l181 -363h-242zM313 141l-174 363l277 362h243l-282 -362l180 -363h-244z" />
    <glyph glyph-name="logicalnot" unicode="&#xac;" horiz-adv-x="1093" 
d="M1067 741l-63 -454h-213l34 248h-624l30 206h836z" />
    <glyph glyph-name="registered" unicode="&#xae;" horiz-adv-x="968" 
d="M655 1249q35 -1 55 17t21 49q0 49 -59 49h-45l-17 -115h45zM698 1470q78 0 122 -40t44 -98q0 -117 -104 -163l74 -137h-142l-59 119h-37l-16 -119h-123l61 438h180zM639 938q129 0 225 98t96 230t-74 210q-75 76 -204 76t-226 -97q-98 -97 -98 -229t76 -210t205 -78z
M694 1673q182 1 286 -107q105 -108 105 -268q0 -205 -138 -342q-137 -137 -319 -137t-288 109t-107 268q-1 203 139 340t322 137z" />
    <glyph glyph-name="macron" unicode="&#xaf;" horiz-adv-x="673" 
d="M180 1135l29 206h618l-30 -206h-617z" />
    <glyph glyph-name="degree" unicode="&#xb0;" horiz-adv-x="876" 
d="M424 1143q0 -176 166 -176q82 0 136 60q54 59 54 145q0 174 -164 174q-80 0 -136 -58t-56 -145zM572 782q-167 0 -256 90t-89 255t118 285t284 120t256 -89t90 -253t-118 -286t-285 -122z" />
    <glyph glyph-name="plusminus" unicode="&#xb1;" horiz-adv-x="1030" 
d="M117 12l26 193h801l-26 -193h-801zM737 874h297l-28 -204h-297l-50 -348h-198l49 348h-297l29 204h297l47 340h200z" />
    <glyph glyph-name="uni00B2" unicode="&#xb2;" horiz-adv-x="794" 
d="M610 1262q0 44 -36 74t-90 30t-140 -29l-51 154q2 0 17 9q16 9 26 14l31 15q84 38 209 38q124 0 201 -67q77 -66 77 -194t-117 -259q-49 -55 -168 -146h246l-27 -186h-587l16 123l21 10q372 223 372 414z" />
    <glyph glyph-name="uni00B3" unicode="&#xb3;" horiz-adv-x="722" 
d="M780 1012q0 -140 -96 -224t-258 -84t-260 66l90 156q70 -45 162 -45q152 0 151 120q0 41 -28 65q-29 24 -76 24t-96 -23l-35 113l237 194h-303l25 176h538l-18 -135l-223 -198q88 -11 139 -65t51 -140z" />
    <glyph glyph-name="acute" unicode="&#xb4;" horiz-adv-x="620" 
d="M262 1061l-76 151l428 269l101 -215z" />
    <glyph glyph-name="paragraph" unicode="&#xb6;" horiz-adv-x="1386" 
d="M813 1241q-430 0 -430 -369q0 -268 340 -268h12l90 637h-12zM694 406q-244 0 -377 116t-133 328q0 274 180 432t476 158h577l-223 -1585h-211l195 1386h-142l-194 -1386h-213l78 551h-13z" />
    <glyph glyph-name="periodcentered" unicode="&#xb7;" horiz-adv-x="516" 
d="M354 545q-76 0 -121 41q-45 42 -45 114t52 123t126 51q76 0 120 -42t44 -113q0 -72 -50 -123t-126 -51z" />
    <glyph glyph-name="cedilla" unicode="&#xb8;" horiz-adv-x="538" 
d="M176 -498q-58 0 -112 20t-78 38l-25 18l76 123q78 -51 133 -51q113 0 113 90q0 74 -113 74q-39 0 -61 -4l-21 30l98 203h154l-61 -119q86 -2 134 -49t48 -125q0 -112 -80 -180t-205 -68z" />
    <glyph glyph-name="uni00B9" unicode="&#xb9;" horiz-adv-x="567" 
d="M342 715l84 592l-166 -68l-27 182l345 129h81l-118 -835h-199z" />
    <glyph glyph-name="ordmasculine" unicode="&#xba;" horiz-adv-x="794" 
d="M733 1392q1 142 -127 142q-64 0 -108 -50t-43 -120q-1 -142 129 -141q64 0 106 50q42 49 43 119zM572 1061q-144 0 -221 73t-77 197q0 162 100 262q100 101 244 101t220 -73t75 -196q0 -162 -98 -263q-99 -101 -243 -101z" />
    <glyph glyph-name="guillemotright" unicode="&#xbb;" horiz-adv-x="991" 
d="M479 141l283 371l-182 354h245l174 -354l-276 -371h-244zM106 141l283 371l-182 354h244l174 -354l-277 -371h-242z" />
    <glyph glyph-name="onequarter" unicode="&#xbc;" horiz-adv-x="1583" 
d="M1249 0l23 168h-420l18 125l297 567l162 -59l-231 -459h198l37 260h187l-35 -260h78l-25 -174h-78l-24 -168h-187zM348 606l82 592l-164 -68l-26 183l344 127h82l-119 -834h-199zM508 -14l-176 88l844 1384l176 -98z" />
    <glyph glyph-name="onehalf" unicode="&#xbd;" horiz-adv-x="1671" 
d="M1407 537q0 51 -34 83t-85 32t-147 -29l-43 155q2 0 24 12q111 61 244 62q133 0 210 -66t77 -196t-119 -258q-68 -74 -160 -146h240l-27 -186h-588l19 123q6 1 58 35q166 109 227 178q104 111 104 201zM348 606l82 592l-164 -68l-26 183l344 127h82l-119 -834h-199z
M508 -14l-176 88l844 1384l176 -98z" />
    <glyph glyph-name="threequarters" unicode="&#xbe;" horiz-adv-x="1638" 
d="M1548 342h80l-24 -174h-80l-23 -168h-188l22 168h-420l17 125l301 567l162 -59l-234 -459h199l37 260h188zM764 903q0 -141 -95 -225t-259 -84t-260 68l92 153q66 -45 159 -45q152 0 152 119q0 43 -29 67t-77 23q-48 0 -93 -23l-35 115l236 193h-301l25 176h538l-20 -135
l-219 -197q88 -10 137 -66t49 -139zM1241 1458l176 -98l-842 -1374l-176 88z" />
    <glyph glyph-name="questiondown" unicode="&#xbf;" horiz-adv-x="931" 
d="M227 -30q1 -144 183 -144q100 0 223 65l74 -196q-189 -103 -371 -103t-287 87q-104 87 -104 241q0 205 146 337q61 57 125 107q155 124 177 271l6 45h240l-12 -78q-15 -98 -61 -179t-102 -132t-111 -97q-126 -107 -126 -224zM399 946q0 66 51 117q52 51 118 51t106 -40
t39 -106t-53 -115q-52 -50 -118 -50t-105 39q-38 38 -38 104z" />
    <glyph glyph-name="Agrave" unicode="&#xc0;" horiz-adv-x="1368" 
d="M963 510l-134 524l-282 -524h416zM1075 0l-67 279h-572l-147 -279h-297l803 1440h184l393 -1440h-297zM1192 1718l-80 -168l-477 125l110 252z" />
    <glyph glyph-name="Aacute" unicode="&#xc1;" horiz-adv-x="1368" 
d="M963 510l-134 524l-282 -524h416zM1075 0l-67 279h-572l-147 -279h-297l803 1440h184l393 -1440h-297zM1214 1686l-512 -144l-49 166l492 221z" />
    <glyph glyph-name="Acircumflex" unicode="&#xc2;" horiz-adv-x="1368" 
d="M963 510l-134 524l-282 -524h416zM1075 0l-67 279h-572l-147 -279h-297l803 1440h184l393 -1440h-297zM918 1696l-140 -140h-254l324 334h205l217 -334h-252z" />
    <glyph glyph-name="Atilde" unicode="&#xc3;" horiz-adv-x="1368" 
d="M963 510l-134 524l-282 -524h416zM1075 0l-67 279h-572l-147 -279h-297l803 1440h184l393 -1440h-297zM780 1657q-84 0 -127 -86l-135 127q13 21 43 54q112 118 245 118q71 0 146.5 -50.5t115.5 -50.5t73 27t46 49.5t13 28.5l137 -125q-4 -16 -35.5 -57t-104.5 -87
t-150 -46t-150.5 49t-116.5 49z" />
    <glyph glyph-name="Adieresis" unicode="&#xc4;" horiz-adv-x="1368" 
d="M963 510l-134 524l-282 -524h416zM1075 0l-67 279h-572l-147 -279h-297l803 1440h184l393 -1440h-297zM1140.5 1573q-64.5 0 -103 39t-38.5 105.5t52.5 115.5t118 49t102.5 -39t37 -105.5t-52 -115.5t-116.5 -49zM684.5 1575q-65.5 0 -102.5 38t-37 104.5t52 115.5
t117.5 49t102.5 -38t37 -104.5t-52 -115.5t-117.5 -49z" />
    <glyph glyph-name="Aring" unicode="&#xc5;" horiz-adv-x="1368" 
d="M963 510l-134 524l-282 -524h416zM1075 0l-67 279h-572l-147 -279h-297l803 1440h184l393 -1440h-297zM944 1837q-41 0 -68.5 -28.5t-27.5 -68.5t19.5 -62.5t54.5 -22.5t61.5 30.5t26.5 75.5q0 76 -66 76zM907.5 1513q-102.5 0 -160 56.5t-57.5 157t79 175t182.5 74.5
t159.5 -56t56 -155.5t-78.5 -175.5t-181 -76z" />
    <glyph glyph-name="AE" unicode="&#xc6;" horiz-adv-x="1798" 
d="M598 541h289l90 622zM-33 0l912 1440h1011l-32 -250h-596l-50 -346l517 4l-35 -248l-516 -4l-48 -348h605l-37 -250l-887 2l43 301h-410l-184 -301h-293z" />
    <glyph glyph-name="Ccedilla" unicode="&#xc7;" horiz-adv-x="1306" 
d="M1024 -242q0 -113 -81 -183.5t-206 -70.5t-215 76l78 121q126 -81 200 -33q32 20 42 62.5t-33 70t-137 11.5l-21 30l72 148q-254 39 -401.5 212t-147.5 419q0 358 217 598.5t578 240.5q285 0 479 -141l-156 -225q-137 106 -343.5 106t-341 -152.5t-134.5 -398.5
q0 -184 107.5 -296.5t292.5 -112.5t311 102l112 -209q-162 -139 -409 -151l-29 -56q74 -4 120 -50t46 -118z" />
    <glyph glyph-name="Egrave" unicode="&#xc8;" horiz-adv-x="1212" 
d="M1274 1190h-664l-47 -338h584l-35 -250h-584l-49 -354h668l-35 -248h-950l203 1440h944zM1153 1718l-80 -168l-477 125l111 252z" />
    <glyph glyph-name="Eacute" unicode="&#xc9;" horiz-adv-x="1212" 
d="M1274 1190h-664l-47 -338h584l-35 -250h-584l-49 -354h668l-35 -248h-950l203 1440h944zM1176 1686l-512 -144l-50 166l492 221z" />
    <glyph glyph-name="Ecircumflex" unicode="&#xca;" horiz-adv-x="1212" 
d="M1274 1190h-664l-47 -338h584l-35 -250h-584l-49 -354h668l-35 -248h-950l203 1440h944zM879 1696l-140 -140h-254l324 334h205l217 -334h-252z" />
    <glyph glyph-name="Edieresis" unicode="&#xcb;" horiz-adv-x="1212" 
d="M1274 1190h-664l-47 -338h584l-35 -250h-584l-49 -354h668l-35 -248h-950l203 1440h944zM1101.5 1573q-64.5 0 -102.5 39t-38 105.5t52 115.5t117.5 49t102.5 -39t37 -105.5t-52 -115.5t-116.5 -49zM645.5 1575q-65.5 0 -102.5 38t-37 104.5t52 115.5t117.5 49t102.5 -38
t37 -104.5t-52 -115.5t-117.5 -49z" />
    <glyph glyph-name="Igrave" unicode="&#xcc;" horiz-adv-x="606" 
d="M162 0l203 1440h282l-203 -1440h-282zM731 1550l-477 125l111 252l446 -209z" />
    <glyph glyph-name="Iacute" unicode="&#xcd;" horiz-adv-x="606" 
d="M162 0l203 1440h282l-203 -1440h-282zM322 1542l-50 166l492 221l70 -243z" />
    <glyph glyph-name="Icircumflex" unicode="&#xce;" horiz-adv-x="606" 
d="M162 0l203 1440h282l-203 -1440h-282zM537 1696l-140 -140h-254l324 334h205l217 -334h-252z" />
    <glyph glyph-name="Idieresis" unicode="&#xcf;" horiz-adv-x="606" 
d="M162 0l203 1440h282l-203 -1440h-282zM759.5 1573q-64.5 0 -103 39t-38.5 105.5t52.5 115.5t118 49t102.5 -39t37 -105.5t-52 -115.5t-116.5 -49zM303.5 1575q-65.5 0 -102.5 38t-37 104.5t52 115.5t117.5 49t102.5 -38t37 -104.5t-52 -115.5t-117.5 -49z" />
    <glyph glyph-name="Eth" unicode="&#xd0;" horiz-adv-x="1501" 
d="M700 250q260 0 397.5 149.5t137.5 399.5q0 180 -103.5 285.5t-293.5 105.5h-226l-53 -375h299l-27 -182h-299l-53 -383h221zM877 1440q303 0 476 -167t173 -444q0 -373 -232.5 -601t-627.5 -228h-504l90 633h-139l26 182h137l89 625h512z" />
    <glyph glyph-name="Ntilde" unicode="&#xd1;" horiz-adv-x="1556" 
d="M1317 1440h278l-204 -1456h-158l-660 962l-133 -946h-276l205 1454h159l654 -958zM868 1657q-84 0 -127 -86l-135 127l26 34q119 137 262 138q71 0 146.5 -50.5t115.5 -50.5t73 27t46 49.5t13 28.5l137 -125q-4 -16 -35.5 -57t-104.5 -87t-150 -46t-150.5 49t-116.5 49z
" />
    <glyph glyph-name="Ograve" unicode="&#xd2;" horiz-adv-x="1605" 
d="M878.5 240q190.5 0 323.5 147.5t133 409.5q0 176 -108.5 289.5t-299 113.5t-323.5 -148.5t-133 -408.5q0 -180 108.5 -291.5t299 -111.5zM865.5 -18q-326.5 0 -510 186t-183.5 455q0 369 220 602t547.5 233t511 -184t183.5 -455q0 -373 -221 -605t-547.5 -232zM1233 1550
l-477 125l110 252l447 -209z" />
    <glyph glyph-name="Oacute" unicode="&#xd3;" horiz-adv-x="1605" 
d="M878.5 240q190.5 0 323.5 147.5t133 409.5q0 176 -108.5 289.5t-299 113.5t-323.5 -148.5t-133 -408.5q0 -180 108.5 -291.5t299 -111.5zM865.5 -18q-326.5 0 -510 186t-183.5 455q0 369 220 602t547.5 233t511 -184t183.5 -455q0 -373 -221 -605t-547.5 -232zM823 1542
l-49 166l492 221l69 -243z" />
    <glyph glyph-name="Ocircumflex" unicode="&#xd4;" horiz-adv-x="1605" 
d="M878.5 240q190.5 0 323.5 147.5t133 409.5q0 176 -108.5 289.5t-299 113.5t-323.5 -148.5t-133 -408.5q0 -180 108.5 -291.5t299 -111.5zM939.5 1458q327.5 0 511 -184t183.5 -455q0 -373 -221 -605t-547.5 -232t-510 186t-183.5 455q0 369 220 602t547.5 233zM1038 1696
l-139 -140h-254l324 334h205l217 -334h-252z" />
    <glyph glyph-name="Otilde" unicode="&#xd5;" horiz-adv-x="1605" 
d="M878.5 240q190.5 0 323.5 147.5t133 409.5q0 176 -108.5 289.5t-299 113.5t-323.5 -148.5t-133 -408.5q0 -180 108.5 -291.5t299 -111.5zM865.5 -18q-326.5 0 -510 186t-183.5 455q0 369 220 602t547.5 233t511 -184t183.5 -455q0 -373 -221 -605t-547.5 -232zM1168 1559
q-77 0 -150.5 49t-116.5 49q-84 0 -127 -86l-135 127l27 34q119 138 261 138q71 0 146.5 -50.5t115.5 -50.5t72.5 27t46 49.5t13.5 28.5l137 -125q-4 -16 -35.5 -57t-104.5 -87t-150 -46z" />
    <glyph glyph-name="Odieresis" unicode="&#xd6;" horiz-adv-x="1605" 
d="M878.5 240q190.5 0 323.5 147.5t133 409.5q0 176 -108.5 289.5t-299 113.5t-323.5 -148.5t-133 -408.5q0 -180 108.5 -291.5t299 -111.5zM865.5 -18q-326.5 0 -510 186t-183.5 455q0 369 220 602t547.5 233t511 -184t183.5 -455q0 -373 -221 -605t-547.5 -232z
M1260.5 1573q-64.5 0 -102.5 39t-38 105.5t52.5 115.5t117.5 49t102.5 -39t37.5 -105.5t-52.5 -115.5t-117 -49zM805.5 1575q-65.5 0 -102.5 38t-37 104.5t52 115.5t117.5 49t102.5 -38t37 -104.5t-52 -115.5t-117.5 -49z" />
    <glyph glyph-name="multiply" unicode="&#xd7;" horiz-adv-x="1021" 
d="M1061 881l-320 -287l230 -287l-170 -147l-230 284l-311 -278l-127 149l313 283l-231 289l172 149l229 -286l316 284z" />
    <glyph glyph-name="Oslash" unicode="&#xd8;" horiz-adv-x="1605" 
d="M874 240q195 0 328 147.5t133 409.5q0 121 -53 215l-620 -723q93 -49 212 -49zM471 643q0 -125 53 -219l623 725q-90 51 -211 51q-199 0 -332 -148.5t-133 -408.5zM850 -18q-211 0 -373 94l-139 -164l-148 123l140 162q-158 176 -158 426q0 369 220 602t562 233
q217 0 379 -94l135 158l146 -123l-133 -156q154 -176 153 -424q0 -373 -221 -605t-563 -232z" />
    <glyph glyph-name="Ugrave" unicode="&#xd9;" horiz-adv-x="1501" 
d="M751.5 -18q-277.5 0 -420.5 165.5t-100 470.5l115 822h285l-119 -844q-20 -156 47.5 -257t225 -101t255 101t119.5 257l117 844h280l-114 -822q-43 -305 -228 -470.5t-462.5 -165.5zM1178 1550l-478 125l111 252l446 -209z" />
    <glyph glyph-name="Uacute" unicode="&#xda;" horiz-adv-x="1501" 
d="M751.5 -18q-277.5 0 -420.5 165.5t-100 470.5l115 822h285l-119 -844q-20 -156 47.5 -257t225 -101t255 101t119.5 257l117 844h280l-114 -822q-43 -305 -228 -470.5t-462.5 -165.5zM768 1542l-49 166l491 221l70 -243z" />
    <glyph glyph-name="Ucircumflex" unicode="&#xdb;" horiz-adv-x="1501" 
d="M751 -18q-277 0 -420 165.5t-100 470.5l115 822h285l-119 -844q-20 -156 47.5 -257t225 -101t255 101t119.5 257l117 844h280l-114 -822q-43 -305 -228.5 -470.5t-462.5 -165.5zM983 1696l-139 -140h-254l323 334h205l217 -334h-252z" />
    <glyph glyph-name="Udieresis" unicode="&#xdc;" horiz-adv-x="1501" 
d="M751.5 -18q-277.5 0 -420.5 165.5t-100 470.5l115 822h285l-119 -844q-20 -156 47.5 -257t225 -101t255 101t119.5 257l117 844h280l-114 -822q-43 -305 -228 -470.5t-462.5 -165.5zM1205.5 1573q-64.5 0 -102.5 39t-38 105.5t52 115.5t117.5 49t102.5 -39t37 -105.5
t-52 -115.5t-116.5 -49zM749.5 1575q-65.5 0 -102.5 38t-37 104.5t52.5 115.5t117.5 49t102.5 -38t37.5 -104.5t-52.5 -115.5t-118 -49z" />
    <glyph glyph-name="Yacute" unicode="&#xdd;" horiz-adv-x="1318" 
d="M1509 1440l-628 -871l-80 -569h-285l82 567l-379 873h336l227 -588l402 588h325zM1204 1686l-512 -144l-49 166l492 221z" />
    <glyph glyph-name="Thorn" unicode="&#xde;" horiz-adv-x="1302" 
d="M709 465q149 0 237 84q88 85 88 193t-66 170q-67 62 -190 63h-184l-72 -510h187zM836 1243q238 0 370 -124t133 -326q0 -260 -179 -427t-472 -167h-203l-28 -199h-295l203 1440h294l-28 -197h205z" />
    <glyph glyph-name="germandbls" unicode="&#xdf;" horiz-adv-x="1120" 
d="M676 -18q-133 0 -217 38l82 232q47 -25 131 -25q84 1 144 59t60 148q1 174 -182 174h-104l10 70h-2l20 137h15q106 0 166 68q59 67 59 147t-39 122t-107 42t-120 -49q-53 -49 -64 -129l-143 -1016h-268l145 1036q27 180 165 301q139 121 319 121t276 -98t96 -254
q0 -217 -160 -340q186 -90 186 -300t-132 -347q-133 -137 -336 -137z" />
    <glyph glyph-name="agrave" unicode="&#xe0;" horiz-adv-x="1153" 
d="M613.5 225q103.5 0 167 79t63.5 187.5t-53.5 167t-150.5 58.5t-167 -77t-70 -185.5t53.5 -169t157 -60.5zM133 408q0 248 145.5 400.5t352.5 152.5q170 0 268 -103l23 84h247l-133 -942h-237l6 90q-98 -109 -276.5 -108.5t-287 117t-108.5 309.5zM1010 1212l-111 -151
l-397 205l151 219z" />
    <glyph glyph-name="aacute" unicode="&#xe1;" horiz-adv-x="1153" 
d="M613.5 225q103.5 0 167 79t63.5 187.5t-53.5 167t-150.5 58.5t-167 -77t-70 -185.5t53.5 -169t157 -60.5zM133 408q0 248 145.5 400.5t352.5 152.5q170 0 268 -103l23 84h247l-133 -942h-237l6 90q-98 -109 -276.5 -108.5t-287 117t-108.5 309.5zM1028 1266l-453 -205
l-75 151l428 269z" />
    <glyph glyph-name="acircumflex" unicode="&#xe2;" horiz-adv-x="1153" 
d="M613.5 225q103.5 0 167 79t63.5 187.5t-53.5 167t-150.5 58.5t-167 -77t-70 -185.5t53.5 -169t157 -60.5zM133 408q0 248 145.5 400.5t352.5 152.5q170 0 268 -103l23 84h247l-133 -942h-237l6 90q-98 -109 -276.5 -108.5t-287 117t-108.5 309.5zM758 1260l-146 -170
h-225l301 358h205l190 -358h-223z" />
    <glyph glyph-name="atilde" unicode="&#xe3;" horiz-adv-x="1153" 
d="M613.5 225q103.5 0 167 79t63.5 187.5t-53.5 167t-150.5 58.5t-167 -77t-70 -185.5t53.5 -169t157 -60.5zM133 408q0 248 145.5 400.5t352.5 152.5q170 0 268 -103l23 84h247l-133 -942h-237l6 90q-98 -109 -276.5 -108.5t-287 117t-108.5 309.5zM631 1204
q-76 0 -123 -84l-139 121q125 186 270 186q74 0 148.5 -50t113.5 -50q74 0 121 94l135 -118q-14 -47 -92 -122t-167 -75t-159.5 49t-107.5 49z" />
    <glyph glyph-name="adieresis" unicode="&#xe4;" horiz-adv-x="1153" 
d="M613.5 225q103.5 0 167 79t63.5 187.5t-53.5 167t-150.5 58.5t-167 -77t-70 -185.5t53.5 -169t157 -60.5zM133 408q0 248 145.5 400.5t352.5 152.5q170 0 268 -103l23 84h247l-133 -942h-237l6 90q-98 -109 -276.5 -108.5t-287 117t-108.5 309.5zM968.5 1124
q-64.5 0 -103 39t-38.5 106t52.5 116t118 49t102.5 -39t37 -106t-52 -116t-116.5 -49zM536.5 1128q-65.5 0 -103.5 39t-38 106t52.5 116t116.5 49t102.5 -39t38.5 -106t-51.5 -116t-117 -49z" />
    <glyph glyph-name="aring" unicode="&#xe5;" horiz-adv-x="1153" 
d="M613.5 225q103.5 0 167 79t63.5 187.5t-53.5 167t-150.5 58.5t-167 -77t-70 -185.5t53.5 -169t157 -60.5zM133 408q0 248 145.5 400.5t352.5 152.5q170 0 268 -103l23 84h247l-133 -942h-237l6 90q-98 -109 -276.5 -108.5t-287 117t-108.5 309.5zM782 1382
q-43 0 -69.5 -28.5t-26.5 -70.5q0 -85 70 -85q39 0 66.5 31t27.5 76q0 77 -68 77zM745.5 1057q-104.5 0 -162 56t-57.5 157t80 176.5t183.5 75.5t161 -57.5t57.5 -157t-79 -175t-183.5 -75.5z" />
    <glyph glyph-name="ae" unicode="&#xe6;" horiz-adv-x="1841" 
d="M613.5 225q103.5 0 167 79t63.5 187.5t-53.5 167t-150.5 58.5t-167 -77t-70 -185.5t53.5 -169t157 -60.5zM1419 745q-82 0 -140 -45t-85 -127h401v5q0 78 -47 122.5t-129 44.5zM1845 563q0 -78 -14 -141l-6 -21h-647q12 -88 71.5 -140t163.5 -52t213 80l113 -180
q-154 -127 -366 -127t-335 118l-32 -100h-189l-4 100q-100 -119 -281.5 -118.5t-290 118t-108.5 310.5q0 248 145.5 399.5t352.5 151.5q174 0 272 -109l25 90h188v-90q141 109 329 109t294 -109t106 -289z" />
    <glyph glyph-name="ccedilla" unicode="&#xe7;" horiz-adv-x="907" 
d="M762 -250q0 -113 -80 -180.5t-205 -67.5q-59 0 -112.5 19.5t-77.5 38.5l-25 18l76 123q78 -51 133 -51q113 0 113 90q0 74 -113 74q-39 0 -61 -4l-21 30l74 152q-156 33 -245 146.5t-89 271.5q0 244 150.5 397.5t390.5 153.5q195 0 305 -99l-135 -213q-72 68 -186 68
t-184.5 -76t-70.5 -187.5t53.5 -170t149.5 -58.5t180 64l123 -187q-139 -111 -295 -118l-30 -60q86 -2 134 -49t48 -125z" />
    <glyph glyph-name="egrave" unicode="&#xe8;" horiz-adv-x="1054" 
d="M635 745q-82 0 -140.5 -45t-84.5 -125h401v5q0 76 -47 120.5t-129 44.5zM1061 567q0 -91 -23 -164h-647q10 -88 69.5 -141t168.5 -53t211 80l112 -180q-154 -127 -366.5 -127t-333.5 120.5t-121 309.5q0 248 151.5 398.5t358.5 150.5t313.5 -109t106.5 -285zM956 1212
l-110 -151l-397 205l151 219z" />
    <glyph glyph-name="eacute" unicode="&#xe9;" horiz-adv-x="1054" 
d="M635 745q-82 0 -140.5 -45t-84.5 -125h401v5q0 76 -47 120.5t-129 44.5zM1061 567q0 -91 -23 -164h-647q10 -88 69.5 -141t168.5 -53t211 80l112 -180q-154 -127 -366.5 -127t-333.5 120.5t-121 309.5q0 248 151.5 398.5t358.5 150.5t313.5 -109t106.5 -285zM975 1266
l-453 -205l-76 151l428 269z" />
    <glyph glyph-name="ecircumflex" unicode="&#xea;" horiz-adv-x="1054" 
d="M635 745q-82 0 -140.5 -45t-84.5 -125h401v5q0 76 -47 120.5t-129 44.5zM1061 567q0 -91 -23 -164h-647q10 -88 69.5 -141t168.5 -53t211 80l112 -180q-154 -127 -366.5 -127t-333.5 120.5t-121 309.5q0 248 151.5 398.5t358.5 150.5t313.5 -109t106.5 -285zM705 1260
l-146 -170h-225l301 358h205l190 -358h-223z" />
    <glyph glyph-name="edieresis" unicode="&#xeb;" horiz-adv-x="1054" 
d="M635 745q-82 0 -140.5 -45t-84.5 -125h401v5q0 76 -47 120.5t-129 44.5zM1061 567q0 -91 -23 -164h-647q10 -88 69.5 -141t168.5 -53t211 80l112 -180q-154 -127 -366.5 -127t-333.5 120.5t-121 309.5q0 248 151.5 398.5t358.5 150.5t313.5 -109t106.5 -285zM914.5 1124
q-64.5 0 -102.5 39t-38 106t52.5 116t117.5 49t102 -39t37 -106t-52 -116t-116.5 -49zM483.5 1128q-65.5 0 -103.5 39t-38 106t52 116t116.5 49t102.5 -39t38 -106t-51 -116t-116.5 -49z" />
    <glyph glyph-name="igrave" unicode="&#xec;" horiz-adv-x="505" 
d="M119 0l133 942h268l-133 -942h-268zM563 1061l-397 205l151 219l357 -273z" />
    <glyph glyph-name="iacute" unicode="&#xed;" horiz-adv-x="505" 
d="M119 0l133 942h268l-133 -942h-268zM240 1061l-76 151l428 269l100 -215z" />
    <glyph glyph-name="icircumflex" unicode="&#xee;" horiz-adv-x="505" 
d="M119 0l133 942h268l-133 -942h-268zM557 1448l191 -358h-224l-102 170l-146 -170h-225l301 358h205z" />
    <glyph glyph-name="idieresis" unicode="&#xef;" horiz-adv-x="505" 
d="M119 0l133 942h268l-133 -942h-268zM632.5 1124q-64.5 0 -102.5 39t-38 106t52 116t117.5 49t102.5 -39t37 -106t-52 -116t-116.5 -49zM201.5 1128q-65.5 0 -104 39t-38.5 106t52.5 116t117 49t102.5 -39t38 -106t-51 -116t-116.5 -49z" />
    <glyph glyph-name="eth" unicode="&#xf0;" horiz-adv-x="1146" 
d="M626 219q108 0 180 70q72 69 73 185t-59 177t-172 61t-184 -73q-72 -74 -71 -184q0 -110 62 -173q63 -63 171 -63zM1143 633q-1 -295 -145 -473t-408 -178q-203 0 -328 122t-125 330q-1 209 143 353t353 145q129 0 225 -64q-47 131 -182 244l-135 -127l-97 96l121 113
q-61 39 -135 80l170 188q74 -43 148 -96l139 129l98 -96l-131 -121q289 -266 289 -645z" />
    <glyph glyph-name="ntilde" unicode="&#xf1;" horiz-adv-x="1144" 
d="M776 961q180 0 272.5 -120t63.5 -321l-74 -520h-268l68 487q16 113 -27 172.5t-133 59.5t-149.5 -60.5t-73.5 -166.5l-70 -492h-268l133 942h196l-2 -141q113 160 332 160zM635 1204q-76 0 -123 -84l-139 121q125 186 270 186q74 0 148.5 -50t113.5 -50q74 0 121 94
l135 -118q-14 -47 -92 -122t-167 -75t-159.5 49t-107.5 49z" />
    <glyph glyph-name="ograve" unicode="&#xf2;" horiz-adv-x="1110" 
d="M608.5 225q100.5 0 167 80t66.5 186.5t-55.5 166t-155 59.5t-166 -81t-66.5 -186.5t54.5 -165t155 -59.5zM587 -18q-215 0 -336.5 120.5t-121.5 309.5q0 246 154.5 397.5t371 151.5t337 -121t120.5 -312q0 -244 -155 -395t-370 -151zM866 1061l-397 205l152 219l356 -273
z" />
    <glyph glyph-name="oacute" unicode="&#xf3;" horiz-adv-x="1110" 
d="M608.5 225q100.5 0 167 80t66.5 186.5t-55.5 166t-155 59.5t-166 -81t-66.5 -186.5t54.5 -165t155 -59.5zM587 -18q-215 0 -336.5 120.5t-121.5 309.5q0 246 154.5 397.5t371 151.5t337 -121t120.5 -312q0 -244 -155 -395t-370 -151zM543 1061l-76 151l428 269l100 -215z
" />
    <glyph glyph-name="ocircumflex" unicode="&#xf4;" horiz-adv-x="1110" 
d="M608.5 225q100.5 0 167 80t66.5 186.5t-55.5 166t-155 59.5t-166 -81t-66.5 -186.5t54.5 -165t155 -59.5zM655 961q216 0 336.5 -121t120.5 -312q0 -244 -154.5 -395t-370 -151t-337 120.5t-121.5 309.5q0 246 155 397.5t371 151.5zM725 1260l-145 -170h-226l301 358h205
l191 -358h-224z" />
    <glyph glyph-name="otilde" unicode="&#xf5;" horiz-adv-x="1110" 
d="M608.5 225q100.5 0 167 80t66.5 186.5t-55.5 166t-155 59.5t-166 -81t-66.5 -186.5t54.5 -165t155 -59.5zM587 -18q-215 0 -336.5 120.5t-121.5 309.5q0 246 154.5 397.5t371 151.5t337 -121t120.5 -312q0 -244 -155 -395t-370 -151zM865 1106q-89 0 -159.5 49t-107.5 49
q-76 0 -123 -84l-139 121q125 186 270 186q74 0 148.5 -50t113.5 -50q74 0 121 94l135 -118q-14 -47 -92 -122t-167 -75z" />
    <glyph glyph-name="odieresis" unicode="&#xf6;" horiz-adv-x="1110" 
d="M608.5 225q100.5 0 167 80t66.5 186.5t-55.5 166t-155 59.5t-166 -81t-66.5 -186.5t54.5 -165t155 -59.5zM587 -18q-215 0 -336.5 120.5t-121.5 309.5q0 246 154.5 397.5t371 151.5t337 -121t120.5 -312q0 -244 -155 -395t-370 -151zM935.5 1124q-64.5 0 -102.5 39
t-38 106t52 116t117.5 49t102.5 -39t37 -106t-52 -116t-116.5 -49zM504.5 1128q-65.5 0 -104 39t-38.5 106t52.5 116t117 49t102.5 -39t38 -106t-51 -116t-116.5 -49z" />
    <glyph glyph-name="divide" unicode="&#xf7;" horiz-adv-x="1081" 
d="M588 338q126 0 125 -124q0 -62 -44 -106q-45 -45 -105 -45q-124 -1 -124 125q0 62 43 106t105 44zM166 494l31 213h901l-31 -213h-901zM696 1106q123 0 123 -124q-1 -62 -43 -104q-42 -44 -104 -44q-124 0 -123 122q0 62 43 106t104 44z" />
    <glyph glyph-name="oslash" unicode="&#xf8;" horiz-adv-x="1110" 
d="M842 502q0 43 -13 78l-303 -342q35 -12 74 -13q109 0 175.5 80t66.5 197zM399 438q0 -43 13 -80l305 347q-33 12 -74 12q-111 0 -177.5 -81t-66.5 -198zM1112 528q0 -244 -154.5 -395t-382.5 -151q-131 0 -229 51l-115 -129l-127 110l113 127q-88 111 -88 271
q0 246 154.5 397.5t380.5 151.5q135 0 235 -54l113 127l121 -112l-107 -121q86 -115 86 -273z" />
    <glyph glyph-name="ugrave" unicode="&#xf9;" horiz-adv-x="1130" 
d="M514.5 -18q-192.5 0 -285 115.5t-63.5 324.5l74 520h268l-68 -475q-29 -227 152 -227q86 0 145.5 64.5t73.5 162.5l68 475h268l-133 -942h-211l10 123q-106 -141 -298.5 -141zM979 1212l-111 -151l-397 205l152 219z" />
    <glyph glyph-name="uacute" unicode="&#xfa;" horiz-adv-x="1130" 
d="M514.5 -18q-192.5 0 -285 115.5t-63.5 324.5l74 520h268l-68 -475q-29 -227 152 -227q86 0 145.5 64.5t73.5 162.5l68 475h268l-133 -942h-211l10 123q-106 -141 -298.5 -141zM997 1266l-452 -205l-76 151l428 269z" />
    <glyph glyph-name="ucircumflex" unicode="&#xfb;" horiz-adv-x="1130" 
d="M514.5 -18q-192.5 0 -285 115.5t-63.5 324.5l74 520h268l-68 -475q-29 -227 152 -227q86 0 145.5 64.5t73.5 162.5l68 475h268l-133 -942h-211l10 123q-106 -141 -298.5 -141zM727 1260l-145 -170h-226l301 358h205l191 -358h-224z" />
    <glyph glyph-name="udieresis" unicode="&#xfc;" horiz-adv-x="1130" 
d="M514.5 -18q-192.5 0 -285 115.5t-63.5 324.5l74 520h268l-68 -475q-29 -227 152 -227q86 0 145.5 64.5t73.5 162.5l68 475h268l-133 -942h-211l10 123q-106 -141 -298.5 -141zM937.5 1124q-64.5 0 -102.5 39t-38 106t52 116t117.5 49t102.5 -39t37 -106t-52 -116
t-116.5 -49zM506.5 1128q-65.5 0 -103.5 39t-38 106t52 116t116.5 49t102.5 -39t38 -106t-51 -116t-116.5 -49z" />
    <glyph glyph-name="yacute" unicode="&#xfd;" horiz-adv-x="1044" 
d="M1165 942l-508 -958l-200 -383h-279l225 409l-251 932h301l133 -627l299 627h280zM981 1266l-453 -205l-75 151l428 269z" />
    <glyph glyph-name="thorn" unicode="&#xfe;" horiz-adv-x="1153" 
d="M444 450q0 -108 54 -166t154 -59q101 0 166 80q65 81 65 187q1 106 -53 165t-152 59t-166 -79t-68 -187zM1153 530q0 -233 -139 -391t-361 -157q-176 0 -256 116l-71 -497h-263l261 1861h258l-84 -608q106 106 275 106t275 -119q106 -120 105 -311z" />
    <glyph glyph-name="ydieresis" unicode="&#xff;" horiz-adv-x="1044" 
d="M1165 942l-508 -958l-200 -383h-279l225 409l-251 932h301l133 -627l299 627h280zM920.5 1124q-64.5 0 -102.5 39t-38 106t52.5 116t117.5 49t102.5 -39t37.5 -106t-52.5 -116t-117 -49zM489.5 1128q-65.5 0 -103.5 39t-38 106t52.5 116t116.5 49t102 -39t38 -106
t-51 -116t-116.5 -49z" />
    <glyph glyph-name="Amacron" unicode="&#x100;" horiz-adv-x="1368" 
d="M963 510l-134 524l-282 -524h416zM1075 0l-67 279h-572l-147 -279h-297l803 1440h184l393 -1440h-297zM1280 1800l-29 -209h-688l29 209h688z" />
    <glyph glyph-name="amacron" unicode="&#x101;" horiz-adv-x="1153" 
d="M613.5 225q103.5 0 167 79t63.5 187.5t-53.5 167t-150.5 58.5t-167 -77t-70 -185.5t53.5 -169t157 -60.5zM133 408q0 248 145.5 400.5t352.5 152.5q170 0 268 -103l23 84h247l-133 -942h-237l6 90q-98 -109 -276.5 -108.5t-287 117t-108.5 309.5zM1087 1341l-30 -206
h-617l29 206h618z" />
    <glyph glyph-name="Abreve" unicode="&#x102;" horiz-adv-x="1368" 
d="M963 510l-134 524l-282 -524h416zM1075 0l-67 279h-572l-147 -279h-297l803 1440h184l393 -1440h-297zM903.5 1567q-145.5 0 -225.5 85t-60 226h207q-8 -57 20.5 -93t84.5 -36t94.5 36t46.5 93h207q-20 -141 -124.5 -226t-250 -85z" />
    <glyph glyph-name="abreve" unicode="&#x103;" horiz-adv-x="1153" 
d="M613.5 225q103.5 0 167 79t63.5 187.5t-53.5 167t-150.5 58.5t-167 -77t-70 -185.5t53.5 -169t157 -60.5zM133 408q0 248 145.5 400.5t352.5 152.5q170 0 268 -103l23 84h247l-133 -942h-237l6 90q-98 -109 -276.5 -108.5t-287 117t-108.5 309.5zM739.5 1094
q-145.5 0 -222.5 91t-56 245h205q-10 -72 16.5 -115t81.5 -43t95 43t50 115h205q-20 -154 -124.5 -245t-250 -91z" />
    <glyph glyph-name="Aogonek" unicode="&#x104;" horiz-adv-x="1368" 
d="M963 510l-134 524l-282 -524h416zM1204.5 -481q-104.5 0 -169 58t-64.5 153q0 156 153 270h-49l-67 279h-572l-147 -279h-297l803 1440h184l393 -1440h-37q-18 -10 -44.5 -27.5t-70.5 -73t-44 -112.5q0 -86 81 -86q33 0 64 23l70 -144q-82 -61 -186.5 -61z" />
    <glyph glyph-name="aogonek" unicode="&#x105;" horiz-adv-x="1153" 
d="M613.5 225q103.5 0 167 79t63.5 187.5t-53.5 167t-150.5 58.5t-167 -77t-70 -185.5t53.5 -169t157 -60.5zM922 -307q35 0 67 24l51 -139q-96 -63 -191 -63t-149.5 50t-54.5 136q0 168 168 299h-14l6 90q-98 -109 -276.5 -108.5t-287 117t-108.5 309.5q0 248 145.5 400.5
t352.5 152.5q170 0 268 -103l23 84h247l-133 -942q-114 -57 -166 -156q-20 -39 -20 -75q0 -76 72 -76z" />
    <glyph glyph-name="Cacute" unicode="&#x106;" horiz-adv-x="1306" 
d="M832.5 -18q-289.5 0 -474 181t-184.5 458q0 358 217 598.5t578 240.5q285 0 479 -141l-156 -225q-137 106 -343.5 106t-341 -152.5t-134.5 -398.5q0 -184 107.5 -296.5t292.5 -112.5t311 102l112 -209q-174 -151 -463.5 -151zM791 1542l-50 166l492 221l70 -243z" />
    <glyph glyph-name="cacute" unicode="&#x107;" horiz-adv-x="907" 
d="M563.5 -18q-193.5 0 -314 120.5t-120.5 307.5q0 244 150.5 397.5t390.5 153.5q195 0 305 -99l-135 -213q-72 68 -186 68t-184.5 -76t-70.5 -187.5t53.5 -170t149.5 -58.5t180 64l123 -187q-148 -120 -341.5 -120zM516 1061l-76 151l428 269l101 -215z" />
    <glyph glyph-name="Cdotaccent" unicode="&#x10a;" horiz-adv-x="1306" 
d="M832.5 -18q-289.5 0 -474 181t-184.5 458q0 358 217 598.5t578 240.5q285 0 479 -141l-156 -225q-137 106 -343.5 106t-341 -152.5t-134.5 -398.5q0 -184 107.5 -296.5t292.5 -112.5t311 102l112 -209q-174 -151 -463.5 -151zM996.5 1556q-68.5 0 -108.5 41t-40 112
t56.5 123t125.5 52t108.5 -40t39.5 -110.5t-56.5 -124t-125 -53.5z" />
    <glyph glyph-name="cdotaccent" unicode="&#x10b;" horiz-adv-x="907" 
d="M563.5 -18q-193.5 0 -314 120.5t-120.5 307.5q0 244 150.5 397.5t390.5 153.5q195 0 305 -99l-135 -213q-72 68 -186 68t-184.5 -76t-70.5 -187.5t53.5 -170t149.5 -58.5t180 64l123 -187q-148 -120 -341.5 -120zM693 1104q-77 0 -124 43t-47 117.5t53.5 127t130.5 52.5
t122.5 -43t45.5 -118t-52 -127t-129 -52z" />
    <glyph glyph-name="Ccaron" unicode="&#x10c;" horiz-adv-x="1306" 
d="M873 240q185 0 311 102l112 -209q-174 -152 -463.5 -151.5t-474 181.5t-184.5 458q0 358 217 598.5t578 240.5q285 0 479 -141l-156 -225q-137 106 -343.5 106t-341 -152.5t-134.5 -398.5q0 -184 107.5 -296.5t292.5 -112.5zM1094 1556h-205l-217 334h252l100 -139
l139 139h254z" />
    <glyph glyph-name="ccaron" unicode="&#x10d;" horiz-adv-x="907" 
d="M654 717q-114 0 -184.5 -76t-70.5 -187.5t53.5 -170t149.5 -58.5t180 64l123 -187q-147 -121 -341 -120.5t-314.5 121t-120.5 307.5q0 244 150.5 397.5t390.5 153.5q195 0 305 -99l-135 -213q-72 68 -186 68zM774 1090h-205l-190 358h223l103 -172l145 172h225z" />
    <glyph glyph-name="Dcaron" unicode="&#x10e;" horiz-adv-x="1501" 
d="M700 250q260 0 397.5 149.5t137.5 399.5q0 180 -103.5 285.5t-293.5 105.5h-226l-133 -940h221zM877 1440q303 0 476 -167t173 -444q0 -373 -232.5 -601t-627.5 -228h-504l203 1440h512zM1047 1556h-205l-217 334h252l100 -139l139 139h254z" />
    <glyph glyph-name="dcaron" unicode="&#x10f;" horiz-adv-x="1292" 
d="M612.5 225q102.5 0 167 79t64.5 186.5t-54.5 167t-155 59.5t-167 -80t-66.5 -186.5t54.5 -166t157 -59.5zM1466 1462q75 0 113.5 -41t38.5 -108q0 -117 -80 -228.5t-203 -171.5l-61 84q129 90 139 166q-4 -2 -38.5 -2t-64.5 33t-30 99.5t55.5 117.5t130.5 51zM131 408
q0 236 137.5 394.5t360.5 158.5q162 -1 258 -101l84 602h268l-205 -1462h-217l6 94q-113 -113 -294 -112.5t-289.5 119t-108.5 307.5z" />
    <glyph glyph-name="Dcroat" unicode="&#x110;" horiz-adv-x="1501" 
d="M700 250q260 0 397.5 149.5t137.5 399.5q0 180 -103.5 285.5t-293.5 105.5h-226l-53 -375h299l-27 -182h-299l-53 -383h221zM877 1440q303 0 476 -167t173 -444q0 -373 -232.5 -601t-627.5 -228h-504l90 633h-139l26 182h137l89 625h512z" />
    <glyph glyph-name="dcroat" unicode="&#x111;" horiz-adv-x="1153" 
d="M612.5 225q102.5 0 167 79t64.5 186.5t-54.5 167t-155 59.5t-167 -80t-66.5 -186.5t54.5 -166t157 -59.5zM131 408q0 236 137.5 394.5t360.5 158.5q162 0 258 -101l37 256h-279l25 182h278l23 164h268l-22 -164h114l-24 -182h-117l-156 -1116h-217l6 94
q-113 -113 -294 -112.5t-289.5 119t-108.5 307.5z" />
    <glyph glyph-name="Emacron" unicode="&#x112;" horiz-adv-x="1212" 
d="M1274 1190h-664l-47 -338h584l-35 -250h-584l-49 -354h668l-35 -248h-950l203 1440h944zM1241 1800l-29 -209h-688l29 209h688z" />
    <glyph glyph-name="emacron" unicode="&#x113;" horiz-adv-x="1054" 
d="M635 745q-82 0 -140.5 -45t-84.5 -125h401v5q0 76 -47 120.5t-129 44.5zM1061 567q0 -91 -23 -164h-647q10 -88 69.5 -141t168.5 -53t211 80l112 -180q-154 -127 -366.5 -127t-333.5 120.5t-121 309.5q0 248 151.5 398.5t358.5 150.5t313.5 -109t106.5 -285zM1034 1341
l-30 -206h-617l29 206h618z" />
    <glyph glyph-name="Edotaccent" unicode="&#x116;" horiz-adv-x="1212" 
d="M1274 1190h-664l-47 -338h584l-35 -250h-584l-49 -354h668l-35 -248h-950l203 1440h944zM869.5 1556q-68.5 0 -108.5 41t-40 112t56.5 123t125.5 52t108.5 -40t39.5 -110.5t-56.5 -124t-125 -53.5z" />
    <glyph glyph-name="edotaccent" unicode="&#x117;" horiz-adv-x="1054" 
d="M635 745q-82 0 -140.5 -45t-84.5 -125h401v5q0 76 -47 120.5t-129 44.5zM1061 567q0 -91 -23 -164h-647q10 -88 69.5 -141t168.5 -53t211 80l112 -180q-154 -127 -366.5 -127t-333.5 120.5t-121 309.5q0 248 151.5 398.5t358.5 150.5t313.5 -109t106.5 -285zM699 1104
q-77 0 -124 43t-47 117.5t53.5 127t130.5 52.5t123 -43t46 -118t-52.5 -127t-129.5 -52z" />
    <glyph glyph-name="Eogonek" unicode="&#x118;" horiz-adv-x="1212" 
d="M952 -213q0 -86 82 -86q33 0 64 23l69 -144q-82 -61 -186 -61t-168.5 58t-64.5 153q0 156 153 270h-739l203 1440h944l-35 -250h-664l-47 -338h584l-35 -250h-584l-49 -354h668l-35 -248q-18 -10 -45 -27.5t-71 -73t-44 -112.5z" />
    <glyph glyph-name="eogonek" unicode="&#x119;" horiz-adv-x="1054" 
d="M635 745q-82 0 -140.5 -45t-84.5 -125h401v5q0 76 -47 120.5t-129 44.5zM1061 567q0 -91 -23 -164h-647q10 -88 69.5 -141t168.5 -53t211 80l112 -180q-43 -35 -84 -58q-102 -86 -102 -168t72 -82q35 0 67 25l51 -139q-96 -63 -191 -63.5t-149.5 50t-54.5 138.5t51 170
h-30q-209 0 -330 120.5t-121 309.5q0 248 151.5 398.5t358.5 150.5t313.5 -109t106.5 -285z" />
    <glyph glyph-name="Ecaron" unicode="&#x11a;" horiz-adv-x="1212" 
d="M1274 1190h-664l-47 -338h584l-35 -250h-584l-49 -354h668l-35 -248h-950l203 1440h944zM967 1556h-205l-217 334h252l100 -139l139 139h254z" />
    <glyph glyph-name="ecaron" unicode="&#x11b;" horiz-adv-x="1054" 
d="M635 745q-82 0 -140.5 -45t-84.5 -125h401v5q0 76 -47 120.5t-129 44.5zM1061 567q0 -91 -23 -164h-647q10 -88 69.5 -141t168.5 -53t211 80l112 -180q-154 -127 -366.5 -127t-333.5 120.5t-121 309.5q0 248 151.5 398.5t358.5 150.5t313.5 -109t106.5 -285zM780 1090
h-205l-190 358h223l103 -172l145 172h225z" />
    <glyph glyph-name="Gbreve" unicode="&#x11e;" horiz-adv-x="1437" 
d="M172 625q0 360 219 597.5t584 237.5q299 0 491 -153l-151 -217q-135 111 -352 110.5t-354.5 -149t-137.5 -398.5q0 -186 107.5 -299.5t287.5 -113.5q137 0 250 53l60 424h264l-82 -584q-215 -152 -517 -151.5t-485.5 182.5t-183.5 461zM989.5 1567q-145.5 0 -225.5 85
t-59 226h206q-8 -57 21 -93t84 -36t94 36t47 93h207q-20 -141 -124.5 -226t-250 -85z" />
    <glyph glyph-name="gbreve" unicode="&#x11f;" horiz-adv-x="1146" 
d="M609 225q101 0 166 77t65 185.5t-54.5 169t-154.5 60.5t-167 -78t-67 -185.5t55.5 -168t156.5 -60.5zM466 -418q-253 0 -398 125l141 197q125 -92 267.5 -92t211 62.5t82.5 162.5l4 29q-94 -84 -257 -84t-275.5 114.5t-112.5 300.5q0 250 141.5 407t356.5 157
q168 0 268 -105l23 86h245l-125 -881q-31 -221 -175 -350t-397 -129zM720.5 1094q-145.5 0 -222 91t-56.5 245h205q-10 -72 16.5 -115t81.5 -43t95.5 43t50.5 115h205q-20 -154 -125 -245t-250.5 -91z" />
    <glyph glyph-name="Gdotaccent" unicode="&#x120;" horiz-adv-x="1437" 
d="M172 625q0 360 219 597.5t584 237.5q299 0 491 -153l-151 -217q-135 111 -352 110.5t-354.5 -149t-137.5 -398.5q0 -186 107.5 -299.5t287.5 -113.5q137 0 250 53l60 424h264l-82 -584q-215 -152 -517 -151.5t-485.5 182.5t-183.5 461zM994.5 1556q-68.5 0 -108.5 41
t-40 112t56 123t125.5 52t109 -40t39.5 -110.5t-56.5 -124t-125 -53.5z" />
    <glyph glyph-name="gdotaccent" unicode="&#x121;" horiz-adv-x="1146" 
d="M609 225q101 0 166 77t65 185.5t-54.5 169t-154.5 60.5t-167 -78t-67 -185.5t55.5 -168t156.5 -60.5zM466 -418q-253 0 -398 125l141 197q125 -92 267.5 -92t211 62.5t82.5 162.5l4 29q-94 -84 -257 -84t-275.5 114.5t-112.5 300.5q0 250 141.5 407t356.5 157
q168 0 268 -105l23 86h245l-125 -881q-31 -221 -175 -350t-397 -129zM734 1104q-77 0 -124 43t-47 117.5t53.5 127t130.5 52.5t122.5 -43t45.5 -118t-52 -127t-129 -52z" />
    <glyph glyph-name="Gcommaaccent" unicode="&#x122;" horiz-adv-x="1437" 
d="M819.5 -68q71.5 0 114.5 -45t44 -131.5t-55.5 -174t-150.5 -132.5l-72 80q43 29 70 65.5t27 65.5q-4 -2 -36 -2t-65.5 35t-34.5 96t43 102t115.5 41zM172 625q0 360 219 597.5t584 237.5q299 0 491 -153l-151 -217q-135 111 -352 110.5t-354.5 -149t-137.5 -398.5
q0 -186 107.5 -299.5t287.5 -113.5q137 0 250 53l60 424h264l-82 -584q-215 -152 -517 -151.5t-485.5 182.5t-183.5 461z" />
    <glyph glyph-name="gcommaaccent" unicode="&#x123;" horiz-adv-x="1146" 
d="M609 225q101 0 166 77t65 185.5t-54.5 169t-154.5 60.5t-167 -78t-67 -185.5t55.5 -168t156.5 -60.5zM466 -418q-253 0 -398 125l141 197q125 -92 267.5 -92t211 62.5t82.5 162.5l4 29q-94 -84 -257 -84t-275.5 114.5t-112.5 300.5q0 250 141.5 407t356.5 157
q168 0 268 -105l23 86h245l-125 -881q-31 -221 -175 -350t-397 -129zM724 1042q-142 0 -142 161q0 85 69.5 184.5t175.5 152.5l58 -82q-100 -78 -111 -145q6 2 35 2t57.5 -29t28.5 -90.5t-50.5 -107.5t-120.5 -46z" />
    <glyph glyph-name="Hbar" unicode="&#x126;" horiz-adv-x="1570" 
d="M1243 846l29 196h-680l-29 -196h680zM1755 1241l-31 -199h-170l-147 -1042h-283l84 596h-680l-84 -596h-282l147 1042h-145l29 199h143l29 199h282l-29 -199h680l29 199h283l-29 -199h174z" />
    <glyph glyph-name="hbar" unicode="&#x127;" horiz-adv-x="1148" 
d="M785 961q173 0 265.5 -120t63.5 -321l-74 -520h-268l68 487q14 113 -29 172.5t-127 59.5t-140.5 -47t-78.5 -131l-76 -541h-270l155 1116h-112l24 182h115l23 164h266l-23 -164h281l-25 -182h-282l-37 -248q108 93 281 93z" />
    <glyph glyph-name="Itilde" unicode="&#x128;" horiz-adv-x="606" 
d="M162 0l203 1440h282l-203 -1440h-282zM644.5 1559q-66.5 0 -129 49t-108.5 49t-76 -42q-5 -7 -9 -13q-14 -18 -15 -29l-2 -2l-117 127l24 34q104 138 224 138q61 0 127 -50.5t100 -50.5t61.5 27t39.5 49.5t12 28.5l119 -125q-4 -16 -30.5 -57t-90 -87t-130 -46z" />
    <glyph glyph-name="itilde" unicode="&#x129;" horiz-adv-x="505" 
d="M119 0l133 942h268l-133 -942h-268zM544 1106q-80 0 -143 49t-96 49q-74 0 -110 -84l-125 121q10 16 19 31.5t23 33.5t28 34q77 88 178 87q61 0 127.5 -50t101.5 -50q61 0 108 94l121 -118q-10 -47 -81 -122t-151 -75z" />
    <glyph glyph-name="Imacron" unicode="&#x12a;" horiz-adv-x="606" 
d="M162 0l203 1440h282l-203 -1440h-282zM182 1591l29 209h688l-29 -209h-688z" />
    <glyph glyph-name="imacron" unicode="&#x12b;" horiz-adv-x="505" 
d="M119 0l133 942h268l-133 -942h-268zM150 1135l24 206h516l-24 -206h-516z" />
    <glyph glyph-name="Iogonek" unicode="&#x12e;" horiz-adv-x="606" 
d="M342 -299q33 0 64 23l69 -144q-82 -61 -186 -61t-169 58t-65 153q0 156 154 270h-47l203 1440h282l-203 -1440h-24q-18 -10 -45 -27.5t-71 -73t-44 -112.5q0 -86 82 -86z" />
    <glyph glyph-name="iogonek" unicode="&#x12f;" horiz-adv-x="505" 
d="M201 -231q0 -76 71 -76q35 0 68 24l51 -139q-96 -63 -191 -63t-149.5 50t-54.5 136q0 168 168 299h-45l133 942h268l-133 -942q-113 -57 -165 -156q-20 -39 -21 -75zM429 1444q77 0 123 -43t46 -118t-52 -127t-129 -52t-124 43t-47 117.5t53 127t130 52.5z" />
    <glyph glyph-name="Idotaccent" unicode="&#x130;" horiz-adv-x="606" 
d="M162 0l203 1440h282l-203 -1440h-282zM527.5 1556q-68.5 0 -108.5 41t-40 112t56.5 123t125.5 52t108.5 -40t39.5 -110.5t-56.5 -124t-125 -53.5z" />
    <glyph glyph-name="dotlessi" unicode="&#x131;" horiz-adv-x="505" 
d="M119 0l133 942h268l-133 -942h-268z" />
    <glyph glyph-name="IJ" unicode="&#x132;" horiz-adv-x="1560" 
d="M942 -18q-193 0 -319 94l141 237q70 -55 184 -55q219 0 252 250l131 932h283l-133 -940q-39 -266 -170 -392t-369 -126zM162 0l203 1440h282l-203 -1440h-282z" />
    <glyph glyph-name="ij" unicode="&#x133;" horiz-adv-x="1024" 
d="M487 -418q-119 0 -200 47l108 213q33 -16 90 -16q129 0 152 170l133 946h266l-131 -942q-27 -198 -133 -308t-285 -110zM119 0l133 942h268l-133 -942h-268zM941 1104q-77 0 -123 43t-46 117t52 128q52 52 129 52t123 -43t46 -118t-52 -127t-129 -52zM423 1104
q-77 0 -123 43t-46 117t52 128q52 52 129 52t123 -43t46 -118t-52 -127t-129 -52z" />
    <glyph glyph-name="Kcommaaccent" unicode="&#x136;" horiz-adv-x="1359" 
d="M807 -68q72 0 115 -45t44 -131t-55.5 -174t-150.5 -133l-72 80q43 29 69.5 65.5t26.5 65.5q-4 -2 -36 -2t-65.5 35t-34.5 96t43 102t116 41zM1571 1440l-766 -731l594 -709h-359l-512 602l-84 -602h-282l200 1440h283l-86 -623l666 625z" />
    <glyph glyph-name="kcommaaccent" unicode="&#x137;" horiz-adv-x="1044" 
d="M508 -100q142 0 143 -161q0 -85 -69.5 -184.5t-175.5 -152.5l-58 82q100 78 111 145q-6 -2 -35 -2t-57.5 29t-28.5 90.5t50 107.5t120 46zM1165 942l-473 -457l361 -485h-328l-285 397l-55 -397h-268l205 1462h268l-123 -882l362 362h336z" />
    <glyph glyph-name="kgreenlandic" unicode="&#x138;" horiz-adv-x="1044" 
d="M1165 942l-473 -459l361 -483h-328l-285 397l-55 -397h-268l133 942h268l-51 -362l362 362h336z" />
    <glyph glyph-name="Lacute" unicode="&#x139;" horiz-adv-x="1120" 
d="M479 248h658l-35 -248h-940l203 1440h282zM893 1686l-512 -144l-49 166l491 221z" />
    <glyph glyph-name="lacute" unicode="&#x13a;" horiz-adv-x="505" 
d="M119 0l205 1462h268l-205 -1462h-268zM291 1565l-49 166l491 221l70 -244z" />
    <glyph glyph-name="Lcommaaccent" unicode="&#x13b;" horiz-adv-x="1120" 
d="M612.5 -68q71.5 0 114.5 -45t44 -131t-55.5 -174t-150.5 -133l-71 80q43 29 69.5 65.5t26.5 65.5q-4 -2 -36 -2t-65.5 35t-34.5 96t43 102t115.5 41zM479 248h658l-35 -248h-940l203 1440h282z" />
    <glyph glyph-name="lcommaaccent" unicode="&#x13c;" horiz-adv-x="505" 
d="M224 -100q143 0 143 -161q0 -85 -70 -184.5t-176 -152.5l-58 82q100 78 111 145q-6 -2 -34.5 -2t-57.5 29t-29 90.5t50.5 107.5t120.5 46zM119 0l205 1462h268l-205 -1462h-268z" />
    <glyph glyph-name="Lcaron" unicode="&#x13d;" horiz-adv-x="1120" 
d="M1130.5 1440q73.5 0 112.5 -41t39 -107q0 -117 -80 -229.5t-203 -171.5l-59 86q127 90 137 166q-8 -4 -24 -4q-49 0 -79 32.5t-30 99t56.5 118t130 51.5zM647 1440l-168 -1192h658l-35 -248h-940l203 1440h282z" />
    <glyph glyph-name="lcaron" unicode="&#x13e;" horiz-adv-x="649" 
d="M730 1161q-34 0 -63.5 33t-29.5 99.5t54 117.5t129 51t115 -41t40 -108q0 -117 -81 -229t-204 -171l-61 84q129 90 139 166q-4 -2 -38 -2zM119 0l205 1462h268l-205 -1462h-268z" />
    <glyph glyph-name="Ldot" unicode="&#x13f;" horiz-adv-x="1120" 
d="M920 639q-75 0 -119.5 41t-44.5 113.5t51 124t126 51.5t120 -42t45 -114t-51.5 -123t-126.5 -51zM479 248h658l-35 -248h-940l203 1440h282z" />
    <glyph glyph-name="ldot" unicode="&#x140;" horiz-adv-x="768" 
d="M723.5 541q-69.5 0 -111 43t-41.5 111.5t57.5 125t127 56.5t110.5 -43t41 -112t-57 -125t-126.5 -56zM119 0l205 1462h268l-205 -1462h-268z" />
    <glyph glyph-name="Lslash" unicode="&#x141;" horiz-adv-x="1120" 
d="M479 248h658l-35 -248h-940l78 545l-134 -70l-79 176l245 131l93 658h282l-69 -496l155 84l80 -176l-270 -143z" />
    <glyph glyph-name="lslash" unicode="&#x142;" horiz-adv-x="833" 
d="M950 836l-297 -160l-94 -676h-268l74 520l-187 -100l-72 160l287 153l103 729h268l-80 -571l195 104z" />
    <glyph glyph-name="Nacute" unicode="&#x143;" horiz-adv-x="1556" 
d="M1317 1440h278l-204 -1456h-158l-660 962l-133 -946h-276l205 1454h159l654 -958zM1303 1686l-512 -144l-50 166l492 221z" />
    <glyph glyph-name="nacute" unicode="&#x144;" horiz-adv-x="1144" 
d="M776 961q180 0 272.5 -120t63.5 -321l-74 -520h-268l68 487q16 113 -27 172.5t-133 59.5t-149.5 -60.5t-73.5 -166.5l-70 -492h-268l133 942h196l-2 -141q113 160 332 160zM1032 1266l-452 -205l-76 151l428 269z" />
    <glyph glyph-name="Ncommaaccent" unicode="&#x145;" horiz-adv-x="1556" 
d="M807 -68q72 0 115 -45t44 -131t-55.5 -174t-150.5 -133l-72 80q43 29 69.5 65.5t26.5 65.5q-4 -2 -36 -2t-65.5 35t-34.5 96t43 102t116 41zM1317 1440h278l-204 -1456h-158l-660 962l-133 -946h-276l205 1454h159l654 -958z" />
    <glyph glyph-name="ncommaaccent" unicode="&#x146;" horiz-adv-x="1144" 
d="M554 -100q142 0 142 -161q0 -85 -69.5 -184.5t-175.5 -152.5l-58 82q100 78 111 145q-6 -2 -35 -2t-57.5 29t-28.5 90.5t50.5 107.5t120.5 46zM776 961q180 0 272.5 -120t63.5 -321l-74 -520h-268l68 487q16 113 -27 172.5t-133 59.5t-149.5 -60.5t-73.5 -166.5l-70 -492
h-268l133 942h196l-2 -141q113 160 332 160z" />
    <glyph glyph-name="Ncaron" unicode="&#x147;" horiz-adv-x="1556" 
d="M1317 1440h278l-204 -1456h-158l-660 962l-133 -946h-276l205 1454h159l654 -958zM1094 1556h-205l-217 334h252l100 -139l139 139h254z" />
    <glyph glyph-name="ncaron" unicode="&#x148;" horiz-adv-x="1144" 
d="M776 961q180 0 272.5 -120t63.5 -321l-74 -520h-268l68 487q16 113 -27 172.5t-133 59.5t-149.5 -60.5t-73.5 -166.5l-70 -492h-268l133 942h196l-2 -141q113 160 332 160zM838 1090h-205l-191 358h224l102 -172l145 172h226z" />
    <glyph glyph-name="napostrophe" unicode="&#x149;" horiz-adv-x="1214" 
d="M846 961q180 0 272 -120t64 -321l-74 -520h-268l67 487q16 113 -26.5 172.5t-132.5 59.5t-149.5 -60.5t-74.5 -166.5l-69 -492h-269l133 942h197l-2 -141q113 160 332 160zM438 1350q0 -117 -79.5 -229.5t-202.5 -172.5l-60 86q127 90 137 166q-8 -4 -24 -4q-49 0 -79 33
t-30 99t56 118t130 51.5t113 -41t39 -106.5z" />
    <glyph glyph-name="Eng" unicode="&#x14a;" horiz-adv-x="1648" 
d="M873 -418q-214 0 -308 80l142 238q72 -41 179 -41t164.5 62.5t73.5 187.5l4 28l-555 809l-133 -946h-276l205 1454h159l654 -958l135 944h278l-204 -1456q-31 -180 -167.5 -291t-350.5 -111z" />
    <glyph glyph-name="eng" unicode="&#x14b;" horiz-adv-x="1144" 
d="M776 961q180 0 272.5 -120t63.5 -321l-78 -557q-53 -381 -428 -381q-113 0 -182 43l111 213q27 -14 63 -14q150 0 172 174v2l68 487q16 113 -27 172.5t-133 59.5t-149.5 -60.5t-73.5 -166.5l-70 -492h-268l133 942h196l-2 -141q113 160 332 160z" />
    <glyph glyph-name="Omacron" unicode="&#x14c;" horiz-adv-x="1605" 
d="M878.5 240q190.5 0 323.5 147.5t133 409.5q0 176 -108.5 289.5t-299 113.5t-323.5 -148.5t-133 -408.5q0 -180 108.5 -291.5t299 -111.5zM865.5 -18q-326.5 0 -510 186t-183.5 455q0 369 220 602t547.5 233t511 -184t183.5 -455q0 -373 -221 -605t-547.5 -232zM684 1591
l29 209h688l-29 -209h-688z" />
    <glyph glyph-name="omacron" unicode="&#x14d;" horiz-adv-x="1110" 
d="M608.5 225q100.5 0 167 80t66.5 186.5t-55.5 166t-155 59.5t-166 -81t-66.5 -186.5t54.5 -165t155 -59.5zM587 -18q-215 0 -336.5 120.5t-121.5 309.5q0 246 154.5 397.5t371 151.5t337 -121t120.5 -312q0 -244 -155 -395t-370 -151zM408 1135l28 206h619l-31 -206h-616z
" />
    <glyph glyph-name="Ohungarumlaut" unicode="&#x150;" horiz-adv-x="1605" 
d="M878.5 240q190.5 0 323.5 147.5t133 409.5q0 176 -108.5 289.5t-299 113.5t-323.5 -148.5t-133 -408.5q0 -180 108.5 -291.5t299 -111.5zM865.5 -18q-326.5 0 -510 186t-183.5 455q0 369 220 602t547.5 233t511 -184t183.5 -455q0 -373 -221 -605t-547.5 -232zM1184 1518
l-121 106l260 367l178 -140zM762 1518l-121 106l260 367l178 -140z" />
    <glyph glyph-name="ohungarumlaut" unicode="&#x151;" horiz-adv-x="1110" 
d="M608.5 225q100.5 0 167 80t66.5 186.5t-55.5 166t-155 59.5t-166 -81t-66.5 -186.5t54.5 -165t155 -59.5zM587 -18q-215 0 -336.5 120.5t-121.5 309.5q0 246 154.5 397.5t371 151.5t337 -121t120.5 -312q0 -244 -155 -395t-370 -151zM874 1034l-133 68l201 401l197 -98z
M514 1034l-135 68l201 401l198 -98z" />
    <glyph glyph-name="OE" unicode="&#x152;" horiz-adv-x="2301" 
d="M878.5 240q190.5 0 323.5 147.5t133 409.5q0 176 -108.5 289.5t-299 113.5t-323.5 -148.5t-133 -408.5q0 -180 108.5 -291.5t299 -111.5zM172 623q0 369 220 602t562 233q295 0 480 -168l20 150h944l-35 -250h-663l-47 -338h583l-34 -250h-584l-49 -354h667l-34 -248
h-951l13 94q-178 -113 -414 -112q-311 0 -494.5 186t-183.5 455z" />
    <glyph glyph-name="oe" unicode="&#x153;" horiz-adv-x="1767" 
d="M608.5 225q100.5 0 167 80t66.5 186.5t-55.5 166t-155 59.5t-166 -81t-66.5 -186.5t54.5 -165t155 -59.5zM1348 745q-82 0 -140.5 -45t-85.5 -125h402v5q0 76 -47 120.5t-129 44.5zM1774 567q0 -91 -23 -164h-647q10 -88 69.5 -141t168 -53t210.5 80l113 -180
q-154 -127 -374 -127t-345 141q-152 -141 -363 -141t-332.5 120.5t-121.5 309.5q0 246 154.5 397.5t376 151.5t348.5 -140q145 139 349 139.5t310.5 -108.5t106.5 -285z" />
    <glyph glyph-name="Racute" unicode="&#x154;" horiz-adv-x="1323" 
d="M737 659q145 0 236.5 83t91.5 206.5t-67.5 185.5t-186.5 62h-203l-76 -537h205zM1358 1006.5q0 -193.5 -93.5 -328.5t-254.5 -203l252 -475h-304l-210 420h-248l-60 -420h-278l203 1440h505q227 0 357.5 -120t130.5 -313.5zM1174 1686l-512 -144l-50 166l492 221z" />
    <glyph glyph-name="racute" unicode="&#x155;" horiz-adv-x="749" 
d="M778 961q47 0 78 -9l-59 -266q-45 18 -90 19q-90 0 -160 -58.5t-90 -148.5l-72 -498h-268l133 942h223l-14 -168q39 82 126 134.5t193 52.5zM866 1266l-452 -205l-76 151l428 269z" />
    <glyph glyph-name="Rcommaaccent" unicode="&#x156;" horiz-adv-x="1323" 
d="M678 -68q72 0 115 -45t44 -131.5t-55.5 -174t-150.5 -132.5l-72 80q43 29 69.5 65.5t26.5 65.5q-4 -2 -35.5 -2t-65.5 35t-35 96t43 102t116 41zM737 659q145 0 236.5 83t91.5 206.5t-67.5 185.5t-186.5 62h-203l-76 -537h205zM1358 1006.5q0 -193.5 -93.5 -328.5
t-254.5 -203l252 -475h-304l-210 420h-248l-60 -420h-278l203 1440h505q227 0 357.5 -120t130.5 -313.5z" />
    <glyph glyph-name="rcommaaccent" unicode="&#x157;" horiz-adv-x="749" 
d="M226 -100q144 0 143 -161q0 -85 -70 -184.5t-176 -152.5l-57 82q100 78 110 145q-6 -2 -34.5 -2t-57.5 29t-29 90.5t50.5 107.5t120.5 46zM778 961q47 0 78 -9l-59 -266q-45 18 -90 19q-90 0 -160 -58.5t-90 -148.5l-72 -498h-268l133 942h223l-14 -168q39 82 126 134.5
t193 52.5z" />
    <glyph glyph-name="Rcaron" unicode="&#x158;" horiz-adv-x="1323" 
d="M737 659q145 0 236.5 83t91.5 206.5t-67.5 185.5t-186.5 62h-203l-76 -537h205zM1358 1006.5q0 -193.5 -93.5 -328.5t-254.5 -203l252 -475h-304l-210 420h-248l-60 -420h-278l203 1440h505q227 0 357.5 -120t130.5 -313.5zM965 1556h-205l-217 334h252l100 -139l139 139
h254z" />
    <glyph glyph-name="rcaron" unicode="&#x159;" horiz-adv-x="749" 
d="M778 961q47 0 78 -9l-59 -266q-45 18 -90 19q-90 0 -160 -58.5t-90 -148.5l-72 -498h-268l133 942h223l-14 -168q39 82 126 134.5t193 52.5zM672 1090h-205l-191 358h224l102 -172l146 172h225z" />
    <glyph glyph-name="Sacute" unicode="&#x15a;" horiz-adv-x="1159" 
d="M592 -18q-319 0 -522 174l145 215q188 -143 395 -144q111 0 176.5 48.5t65.5 134.5t-55.5 130t-192.5 83q-178 59 -268 149t-90 242q0 204 152 324t416 120t437 -147l-147 -203q-164 104 -332 104q-109 0 -172 -39.5t-63 -114.5t55 -114q56 -39 212 -89t245.5 -142
t89.5 -262q0 -213 -146.5 -341t-400.5 -128zM629 1542l-49 166l491 221l70 -243z" />
    <glyph glyph-name="sacute" unicode="&#x15b;" horiz-adv-x="923" 
d="M481 -18q-250 0 -409 120l137 197q123 -102 289 -102q117 0 116 79q0 35 -30.5 55.5t-112.5 41.5q-283 70 -283 262q0 147 115 236.5t321 89.5t341 -107l-113 -186q-127 78 -259 78t-132 -70q0 -35 33.5 -53.5t119.5 -40.5t137.5 -47t94.5 -83.5t43 -142.5
q0 -145 -110 -236t-298 -91zM455 1061l-76 151l428 269l100 -215z" />
    <glyph glyph-name="Scedilla" unicode="&#x15e;" horiz-adv-x="1159" 
d="M1139 434.5q0 -186.5 -134.5 -312.5t-365.5 -138l-29 -58q74 -4 120 -50t46 -118q0 -113 -81 -183.5t-206 -70.5t-215 76l78 121q124 -81 200 -33q32 20 42 62.5t-33 70t-137 11.5l-21 30l72 146q-238 27 -405 168l145 215q188 -143 395 -144q111 0 176.5 48.5
t65.5 134.5t-55.5 130t-192.5 83q-178 59 -268 149t-90 242q0 203 152.5 323.5t416 120.5t436.5 -147l-147 -203q-164 104 -332 104q-109 0 -172 -39.5t-63 -114.5t55 -114t211.5 -89t246 -142t89.5 -278.5z" />
    <glyph glyph-name="scedilla" unicode="&#x15f;" horiz-adv-x="923" 
d="M889 309q0 -137 -98.5 -227t-268.5 -98l-30 -60q86 -2 134 -49t48 -125q0 -113 -80 -180.5t-205 -67.5q-59 0 -112.5 19.5t-77.5 38.5l-25 18l76 123q78 -51 133 -51q113 0 113 90q0 74 -113 74q-39 0 -61 -4l-21 30l72 148q-172 18 -301 114l137 197q123 -102 289 -102
q117 0 116 79q0 35 -30.5 55.5t-112.5 41.5q-283 70 -283 262q0 147 115 236.5t321.5 89.5t340.5 -107l-113 -186q-127 78 -259 77.5t-132 -69.5q0 -35 34 -53t120 -40.5t137 -47.5t94 -83.5t43 -142.5z" />
    <glyph glyph-name="Scaron" unicode="&#x160;" horiz-adv-x="1159" 
d="M772 1212q-109 0 -172 -39.5t-63 -114.5t55 -114q56 -39 212 -89t245.5 -142t89.5 -262q0 -213 -146.5 -341t-400.5 -128q-319 0 -522 174l145 215q188 -143 395 -144q111 0 176.5 48.5t65.5 134.5t-55.5 130t-192.5 83q-178 59 -268 149t-90 242q0 204 152 324t416 120
t437 -147l-147 -203q-164 104 -332 104zM932 1556h-205l-217 334h252l100 -139l139 139h254z" />
    <glyph glyph-name="scaron" unicode="&#x161;" horiz-adv-x="923" 
d="M593 745q-132 0 -132 -69q0 -35 33.5 -53.5t120 -40.5t137.5 -47t94 -83.5t43 -142.5q0 -145 -109.5 -236t-298.5 -91q-250 0 -409 120l137 197q123 -102 289 -102q117 0 116 79q0 35 -30.5 55.5t-112.5 41.5q-283 70 -283 262q0 147 115 236.5t321.5 89.5t340.5 -107
l-113 -186q-127 77 -259 77zM713 1090h-205l-191 358h224l102 -172l145 172h226z" />
    <glyph glyph-name="uni0162" unicode="&#x162;" horiz-adv-x="1228" 
d="M834 -242q0 -113 -81 -183.5t-206 -70.5t-215 76l78 121q124 -81 199 -33q32 20 42 62.5t-33 70t-137 11.5l-20 30l78 158h-66l168 1190h-453l35 250h1190l-37 -250h-452l-168 -1190h-51l-37 -74q74 -4 120 -50t46 -118z" />
    <glyph glyph-name="uni0163" unicode="&#x163;" horiz-adv-x="878" 
d="M662 223q78 0 149 49l70 -198q-115 -84 -273 -92l-33 -62q86 -2 134.5 -49t48.5 -125q0 -113 -80 -180.5t-205 -67.5q-59 0 -112.5 19.5t-77.5 38.5l-25 18l76 123q78 -51 133 -51q113 0 113 90q0 74 -113 74q-39 0 -61 -5l-21 31l76 158q-117 29 -169 120t-32 234
l51 369h-180l33 225h190l45 324h258l-45 -324h328l-33 -225h-327l-48 -334q-23 -160 130 -160z" />
    <glyph glyph-name="Tcaron" unicode="&#x164;" horiz-adv-x="1228" 
d="M1413 1440l-37 -250h-452l-168 -1190h-283l168 1190h-453l35 250h1190zM936 1556h-205l-217 334h252l100 -139l140 139h254z" />
    <glyph glyph-name="tcaron" unicode="&#x165;" horiz-adv-x="878" 
d="M577 -18q-178 0 -261 95t-56 271l51 369h-180l33 225h190l45 324h258l-45 -324h328l-33 -225h-327l-48 -334q-23 -160 130 -160q78 0 149 49l70 -198q-126 -92 -304 -92zM882 1233q-34 0 -62.5 32.5t-28.5 99.5t54 118t129 51t113.5 -41t38.5 -109q0 -117 -79.5 -229.5
t-202.5 -169.5l-62 84q127 88 138 166q-4 -2 -38 -2z" />
    <glyph glyph-name="Tbar" unicode="&#x166;" horiz-adv-x="1228" 
d="M1376 1190h-452l-60 -420h215l-26 -182h-215l-82 -588h-283l82 588h-221l26 182h222l59 420h-453l35 250h1190z" />
    <glyph glyph-name="tbar" unicode="&#x167;" horiz-adv-x="878" 
d="M662 223q78 0 149 49l70 -198q-125 -92 -303.5 -92t-261.5 95t-56 271l10 80h-153l22 160h154l18 129h-180l33 225h190l45 324h258l-45 -324h328l-33 -225h-327l-19 -129h180l-20 -160h-182l-7 -45q-23 -160 130 -160z" />
    <glyph glyph-name="Utilde" unicode="&#x168;" horiz-adv-x="1501" 
d="M751.5 -18q-277.5 0 -420.5 165.5t-100 470.5l115 822h285l-119 -844q-20 -156 47.5 -257t225 -101t255 101t119.5 257l117 844h280l-114 -822q-43 -305 -228 -470.5t-462.5 -165.5zM1113 1559q-77 0 -150.5 49t-116.5 49q-84 0 -127 -86l-135 127q11 19 42 52
q110 120 246 120q71 0 146.5 -50.5t115.5 -50.5t72.5 27t46 49.5t13.5 28.5l137 -125q-4 -16 -36 -57t-104.5 -87t-149.5 -46z" />
    <glyph glyph-name="utilde" unicode="&#x169;" horiz-adv-x="1130" 
d="M514.5 -18q-192.5 0 -285 115.5t-63.5 324.5l74 520h268l-68 -475q-29 -227 152 -227q86 0 145.5 64.5t73.5 162.5l68 475h268l-133 -942h-211l10 123q-106 -141 -298.5 -141zM600 1204q-76 0 -123 -84l-139 121q125 186 270 186q74 0 148.5 -50t113.5 -50q74 0 121 94
l135 -118q-14 -47 -92 -122t-167 -75t-159.5 49t-107.5 49z" />
    <glyph glyph-name="Umacron" unicode="&#x16a;" horiz-adv-x="1501" 
d="M751.5 -18q-277.5 0 -420.5 165.5t-100 470.5l115 822h285l-119 -844q-20 -156 47.5 -257t225 -101t255 101t119.5 257l117 844h280l-114 -822q-43 -305 -228 -470.5t-462.5 -165.5zM629 1591l28 209h689l-29 -209h-688z" />
    <glyph glyph-name="umacron" unicode="&#x16b;" horiz-adv-x="1130" 
d="M514.5 -18q-192.5 0 -285 115.5t-63.5 324.5l74 520h268l-68 -475q-29 -227 152 -227q86 0 145.5 64.5t73.5 162.5l68 475h268l-133 -942h-211l10 123q-106 -141 -298.5 -141zM1057 1341l-31 -206h-616l28 206h619z" />
    <glyph glyph-name="Uring" unicode="&#x16e;" horiz-adv-x="1501" 
d="M751.5 -18q-277.5 0 -420.5 165.5t-100 470.5l115 822h285l-119 -844q-20 -156 47.5 -257t225 -101t255 101t119.5 257l117 844h280l-114 -822q-43 -305 -228 -470.5t-462.5 -165.5zM987 1655q35 0 61.5 30.5t26.5 75.5q0 76 -65 76q-41 0 -69 -28.5t-28 -68.5
t19.5 -62.5t54.5 -22.5zM973.5 1513q-102.5 0 -160 56.5t-57.5 157t78.5 175t182 74.5t160 -56t56.5 -155.5t-78.5 -175.5t-181 -76z" />
    <glyph glyph-name="uring" unicode="&#x16f;" horiz-adv-x="1130" 
d="M514.5 -18q-192.5 0 -285 115.5t-63.5 324.5l74 520h268l-68 -475q-29 -227 152 -227q86 0 145.5 64.5t73.5 162.5l68 475h268l-133 -942h-211l10 123q-106 -141 -298.5 -141zM752 1382q-43 0 -70 -28.5t-27 -70.5q0 -85 70 -85q39 0 66.5 31t27.5 76q1 77 -67 77z
M715.5 1057q-104.5 0 -162 56t-57.5 157t79.5 176.5t183 75.5t161 -57.5t57.5 -157t-78.5 -175t-183 -75.5z" />
    <glyph glyph-name="Uhungarumlaut" unicode="&#x170;" horiz-adv-x="1501" 
d="M751.5 -18q-277.5 0 -420.5 165.5t-100 470.5l115 822h285l-119 -844q-20 -156 47.5 -257t225 -101t255 101t119.5 257l117 844h280l-114 -822q-43 -305 -228 -470.5t-462.5 -165.5zM1128 1518l-120 106l260 367l178 -140zM707 1518l-121 106l260 367l178 -140z" />
    <glyph glyph-name="uhungarumlaut" unicode="&#x171;" horiz-adv-x="1130" 
d="M514.5 -18q-192.5 0 -285 115.5t-63.5 324.5l74 520h268l-68 -475q-29 -227 152 -227q86 0 145.5 64.5t73.5 162.5l68 475h268l-133 -942h-211l10 123q-106 -141 -298.5 -141zM877 1034l-134 68l201 401l197 -98zM780 1405l-264 -371l-135 68l201 401z" />
    <glyph glyph-name="Uogonek" unicode="&#x172;" horiz-adv-x="1501" 
d="M762 -213q0 -86 82 -86q33 0 63 23l70 -144q-82 -61 -186.5 -61t-169 58t-64.5 153q0 145 133 254q-250 18 -375 182t-84 452l115 822h285l-119 -844q-20 -156 47.5 -257t225 -101t255 101t119.5 257l117 844h280l-114 -822q-35 -256 -172 -414.5t-350 -203.5
q-158 -98 -158 -213z" />
    <glyph glyph-name="uogonek" unicode="&#x173;" horiz-adv-x="1130" 
d="M899 -307q35 0 68 24l51 -139q-96 -63 -191.5 -63t-149.5 50t-54 136q0 178 180 307l10 115q-106 -141 -298.5 -141t-285 115.5t-63.5 324.5l74 520h268l-68 -475q-29 -227 152 -227q86 0 145.5 64.5t73.5 162.5l68 475h268l-133 -942q-61 -31 -104 -74q-83 -85 -83 -159
t72 -74z" />
    <glyph glyph-name="Wcircumflex" unicode="&#x174;" horiz-adv-x="1890" 
d="M1804 1440h283l-631 -1440h-211l-162 981l-438 -981h-213l-225 1440h301l65 -518l41 -486l193 469l246 535h188l92 -535l68 -483l194 502zM1174 1696l-140 -140h-254l324 334h205l217 -334h-252z" />
    <glyph glyph-name="wcircumflex" unicode="&#x175;" horiz-adv-x="1589" 
d="M1421 942h283l-485 -942h-193l-137 571l-299 -571h-199l-239 942h288l107 -598l299 598h180l135 -612zM967 1260l-146 -170h-225l301 358h205l190 -358h-223z" />
    <glyph glyph-name="Ycircumflex" unicode="&#x176;" horiz-adv-x="1318" 
d="M1509 1440l-628 -871l-80 -569h-285l82 567l-379 873h336l227 -588l402 588h325zM907 1696l-139 -140h-254l324 334h204l218 -334h-252z" />
    <glyph glyph-name="ycircumflex" unicode="&#x177;" horiz-adv-x="1044" 
d="M1165 942l-508 -958l-200 -383h-279l225 409l-251 932h301l133 -627l299 627h280zM711 1260l-146 -170h-225l301 358h205l190 -358h-223z" />
    <glyph glyph-name="Ydieresis" unicode="&#x178;" horiz-adv-x="1318" 
d="M1509 1440l-628 -871l-80 -569h-285l82 567l-379 873h336l227 -588l402 588h325zM1129.5 1573q-64.5 0 -102.5 39t-38 105.5t52.5 115.5t117.5 49t102 -39t37 -105.5t-52 -115.5t-116.5 -49zM674.5 1575q-65.5 0 -102.5 38t-37 104.5t52 115.5t117.5 49t102.5 -38
t37 -104.5t-52 -115.5t-117.5 -49z" />
    <glyph glyph-name="Zacute" unicode="&#x179;" horiz-adv-x="1259" 
d="M1372 1440l-26 -178l-889 -1012h764l-37 -250h-1118l24 176l881 1014h-729l37 250h1093zM1137 1686l-512 -144l-50 166l492 221z" />
    <glyph glyph-name="zacute" unicode="&#x17a;" horiz-adv-x="962" 
d="M1010 942l-29 -199l-541 -518h478l-31 -225h-815l28 199l541 518h-451l33 225h787zM911 1266l-452 -205l-76 151l428 269z" />
    <glyph glyph-name="Zdotaccent" unicode="&#x17b;" horiz-adv-x="1259" 
d="M1372 1440l-26 -178l-889 -1012h764l-37 -250h-1118l24 176l881 1014h-729l37 250h1093zM830.5 1556q-68.5 0 -108.5 41t-40 112t56.5 123t125.5 52t108.5 -40t39.5 -110.5t-56.5 -124t-125 -53.5z" />
    <glyph glyph-name="zdotaccent" unicode="&#x17c;" horiz-adv-x="962" 
d="M1010 942l-29 -199l-541 -518h478l-31 -225h-815l28 199l541 518h-451l33 225h787zM636 1104q-77 0 -124 43t-47 117.5t53 127t130 52.5t123 -43t46 -118t-52 -127t-129 -52z" />
    <glyph glyph-name="Zcaron" unicode="&#x17d;" horiz-adv-x="1259" 
d="M1372 1440l-26 -178l-889 -1012h764l-37 -250h-1118l24 176l881 1014h-729l37 250h1093zM928 1556h-205l-217 334h252l100 -139l139 139h254z" />
    <glyph glyph-name="zcaron" unicode="&#x17e;" horiz-adv-x="962" 
d="M190 717l33 225h787l-29 -199l-541 -518h478l-31 -225h-815l28 199l541 518h-451zM717 1090h-205l-190 358h223l102 -172l146 172h225z" />
    <glyph glyph-name="uni01EA" unicode="&#x1ea;" horiz-adv-x="1605" 
d="M471 643q0 -180 108.5 -291.5t299 -111.5t323.5 147.5t133 409.5q0 176 -108.5 289.5t-299 113.5t-323.5 -148.5t-133 -408.5zM901 -299q33 0 64 23l69 -144q-82 -61 -186 -61t-169 58t-65 153q0 141 138 258q-268 31 -424 211t-156 424q0 369 220 602t547.5 233
t511 -184t183.5 -455q0 -340 -186 -566t-487 -265q-141 -88 -142 -201q0 -86 82 -86z" />
    <glyph glyph-name="uni01EB" unicode="&#x1eb;" horiz-adv-x="1110" 
d="M399 449.5q0 -105.5 54.5 -165t155 -59.5t167 80t66.5 186.5t-55.5 166t-155 59.5t-166 -81t-66.5 -186.5zM504 -231q0 -76 71 -76q35 0 68 24l51 -139q-96 -63 -191 -63t-149.5 50t-54.5 136q0 166 160 293q-154 33 -242 146.5t-88 271.5q0 246 154.5 397.5t371 151.5
t337 -121t120.5 -325t-123.5 -349t-316.5 -176q-168 -102 -168 -221z" />
    <glyph glyph-name="AEacute" unicode="&#x1fc;" horiz-adv-x="1798" 
d="M598 541h289l90 622zM-33 0l912 1440h1011l-32 -250h-596l-50 -346l517 4l-35 -248l-516 -4l-48 -348h605l-37 -250l-887 2l43 301h-410l-184 -301h-293zM1178 1544l-50 166l492 221l70 -243z" />
    <glyph glyph-name="aeacute" unicode="&#x1fd;" horiz-adv-x="1841" 
d="M613.5 225q103.5 0 167 79t63.5 187.5t-53.5 167t-150.5 58.5t-167 -77t-70 -185.5t53.5 -169t157 -60.5zM1419 745q-82 0 -140 -45t-85 -127h401v5q0 78 -47 122.5t-129 44.5zM1845 563q0 -78 -14 -141l-6 -21h-647q12 -88 71.5 -140t163.5 -52t213 80l113 -180
q-154 -127 -366 -127t-335 118l-32 -100h-189l-4 100q-100 -119 -281.5 -118.5t-290 118t-108.5 310.5q0 248 145.5 399.5t352.5 151.5q174 0 272 -109l25 90h188v-90q141 109 329 109t294 -109t106 -289zM1327 1266l-453 -205l-75 151l428 269z" />
    <glyph glyph-name="Oslashacute" unicode="&#x1fe;" horiz-adv-x="1605" 
d="M874 240q195 0 328 147.5t133 409.5q0 121 -53 215l-620 -723q93 -49 212 -49zM471 643q0 -125 53 -219l623 725q-90 51 -211 51q-199 0 -332 -148.5t-133 -408.5zM850 -18q-211 0 -373 94l-139 -164l-148 123l140 162q-158 176 -158 426q0 369 220 602t562 233
q217 0 379 -94l135 158l146 -123l-133 -156q154 -176 153 -424q0 -373 -221 -605t-563 -232zM1280 1683l-512 -143l-49 166l491 221z" />
    <glyph glyph-name="oslashacute" unicode="&#x1ff;" horiz-adv-x="1110" 
d="M842 502q0 43 -13 78l-303 -342q35 -12 74 -13q109 0 175.5 80t66.5 197zM399 438q0 -43 13 -80l305 347q-33 12 -74 12q-111 0 -177.5 -81t-66.5 -198zM1112 528q0 -244 -154.5 -395t-382.5 -151q-131 0 -229 51l-115 -129l-127 110l113 127q-88 111 -88 271
q0 246 154.5 397.5t380.5 151.5q135 0 235 -54l113 127l121 -112l-107 -121q86 -115 86 -273zM995 1266l-452 -205l-76 151l428 269z" />
    <glyph glyph-name="Scommaaccent" unicode="&#x218;" horiz-adv-x="1159" 
d="M505 -342q-32 0 -65.5 35t-34.5 96t43 102t115.5 41t114.5 -45t44 -131.5t-55.5 -174t-150.5 -132.5l-72 80q43 29 70 65.5t27 65.5q-4 -2 -36 -2zM592 -18q-319 0 -522 174l145 215q188 -143 395 -144q111 0 176.5 48.5t65.5 134.5t-55.5 130t-192.5 83
q-178 59 -268 149t-90 242q0 203 152.5 323.5t416 120.5t436.5 -147l-147 -203q-164 104 -332 104q-109 0 -172 -39.5t-63 -114.5t55 -114t211.5 -89t246 -142t89.5 -262q0 -213 -146.5 -341t-400.5 -128z" />
    <glyph glyph-name="scommaaccent" unicode="&#x219;" horiz-adv-x="923" 
d="M430 -100q142 0 143 -161q0 -85 -69.5 -184.5t-175.5 -152.5l-58 82q100 78 111 145q-6 -2 -35 -2t-57.5 29t-28.5 90.5t50 107.5t120 46zM481 -18q-250 0 -409 120l137 197q123 -102 289 -102q117 0 116 79q0 35 -30.5 55.5t-112.5 41.5q-283 70 -283 262
q0 147 115 236.5t321.5 89.5t340.5 -107l-113 -186q-127 78 -259 77.5t-132 -69.5q0 -35 33.5 -53.5t120 -40.5t137.5 -47t94 -83.5t43 -142.5q0 -145 -110 -236t-298 -91z" />
    <glyph glyph-name="uni021A" unicode="&#x21a;" horiz-adv-x="1228" 
d="M620.5 -68q71.5 0 114.5 -45t44 -131t-55 -174t-151 -133l-71 80q43 29 69.5 65.5t26.5 65.5q-4 -2 -36 -2t-65.5 35t-34.5 96t43 102t115.5 41zM1413 1440l-37 -250h-452l-168 -1190h-283l168 1190h-453l35 250h1190z" />
    <glyph glyph-name="uni021B" unicode="&#x21b;" horiz-adv-x="878" 
d="M514 -104q142 0 143 -161q0 -85 -69.5 -184.5t-175.5 -152.5l-58 82q100 78 111 145q-6 -2 -35 -2t-57.5 29t-28.5 90.5t50 107.5t120 46zM577 -18q-178 0 -261 95t-56 271l51 369h-180l33 225h190l45 324h258l-45 -324h328l-33 -225h-327l-48 -334q-23 -160 130 -160
q78 0 149 49l70 -198q-126 -92 -304 -92z" />
    <glyph glyph-name="uni0237" unicode="&#x237;" horiz-adv-x="518" 
d="M-16 -418q-119 0 -201 47l108 213q33 -16 91 -16q129 0 151 170l133 946h266l-131 -942q-27 -198 -132 -308t-285 -110z" />
    <glyph glyph-name="circumflex" unicode="&#x2c6;" horiz-adv-x="854" 
d="M891 1090h-223l-103 170l-145 -170h-225l301 358h204z" />
    <glyph glyph-name="caron" unicode="&#x2c7;" horiz-adv-x="770" 
d="M711 1448h225l-301 -358h-205l-190 358h223l102 -172z" />
    <glyph glyph-name="breve" unicode="&#x2d8;" horiz-adv-x="753" 
d="M526.5 1094q-145.5 0 -222.5 91t-56 245h205q-10 -72 16.5 -115t81.5 -43t95 43t50 115h205q-20 -154 -124.5 -245t-250 -91z" />
    <glyph glyph-name="dotaccent" unicode="&#x2d9;" horiz-adv-x="329" 
d="M335 1104q-77 0 -124 43t-47 117t53 128q53 52 130 52t123 -43t46 -118t-52 -127t-129 -52z" />
    <glyph glyph-name="ring" unicode="&#x2da;" horiz-adv-x="528" 
d="M358 1283q0 -85 73 -85q36 0 63.5 31t27.5 76q0 78 -67 77q-43 0 -70 -28.5t-27 -70.5zM418.5 1057q-104.5 0 -162 56t-57.5 157t79.5 176.5t183 75.5t161 -57.5t57.5 -157t-78.5 -175t-183 -75.5z" />
    <glyph glyph-name="ogonek" unicode="&#x2db;" horiz-adv-x="473" 
d="M187 -485q-95 0 -149 50t-54 134t41 158q41 75 97 119q111 88 171 102l82 -78q-116 -58 -166 -156q-20 -39 -21 -75q0 -76 72 -76q35 0 68 24l51 -139q-97 -63 -192 -63z" />
    <glyph glyph-name="tilde" unicode="&#x2dc;" horiz-adv-x="907" 
d="M748 1106q-89 0 -159.5 49t-107.5 49q-76 0 -123 -84l-139 121q125 186 270 186q74 0 149 -50t114 -50q74 0 120 94l136 -118q-14 -47 -92.5 -122t-167.5 -75z" />
    <glyph glyph-name="hungarumlaut" unicode="&#x2dd;" horiz-adv-x="774" 
d="M643 1034l-133 68l201 401l196 -98zM283 1034l-136 68l201 401l199 -98z" />
    <glyph glyph-name="gravecomb" unicode="&#x300;" 
d="M29 1061l-398 205l152 219l356 -273z" />
    <glyph glyph-name="acutecomb" unicode="&#x301;" 
d="M-287 1061l-75 151l428 269l100 -215z" />
    <glyph glyph-name="uni0302" unicode="&#x302;" 
d="M104 1090h-223l-102 170l-146 -170h-225l301 358h205z" />
    <glyph glyph-name="tildecomb" unicode="&#x303;" 
d="M-124 1106q-89 0 -159.5 49t-107.5 49q-76 0 -123 -84l-139 121q125 186 270 186q74 0 148.5 -50t113.5 -50q74 0 121 94l135 -118q-14 -47 -92 -122t-167 -75z" />
    <glyph glyph-name="uni0304" unicode="&#x304;" 
d="M-475 1135l29 206h618l-31 -206h-616z" />
    <glyph glyph-name="uni0306" unicode="&#x306;" 
d="M-221.5 1094q-145.5 0 -222 91t-56.5 245h205q-10 -72 16.5 -115t81.5 -43t95.5 43t50.5 115h205q-20 -154 -125 -245t-250.5 -91z" />
    <glyph glyph-name="uni0307" unicode="&#x307;" 
d="M-3 1104q-77 0 -124 43t-47 117.5t53 127t130 52.5t123 -43t46 -118t-52 -127t-129 -52z" />
    <glyph glyph-name="uni0308" unicode="&#x308;" 
d="M-25.5 1124q-64.5 0 -102.5 39t-38 106t52.5 116t117.5 49t102 -39t37 -106t-52 -116t-116.5 -49zM-456.5 1128q-65.5 0 -103.5 39t-38 106t52 116t116.5 49t102.5 -39t38 -106t-51 -116t-116.5 -49z" />
    <glyph glyph-name="uni030A" unicode="&#x30a;" 
d="M-158 1283q0 -85 73 -85q36 0 63.5 31t27.5 76q0 78 -67 77q-43 0 -70 -28.5t-27 -70.5zM-98.5 1057q-104.5 0 -161.5 56t-57 157t79.5 176.5t183 75.5t161 -57.5t57.5 -157t-79 -175t-183.5 -75.5z" />
    <glyph glyph-name="uni030B" unicode="&#x30b;" 
d="M-156 1034l-133 68l201 401l197 -98zM-516 1034l-135 68l200 401l199 -98z" />
    <glyph glyph-name="uni030C" unicode="&#x30c;" 
d="M-66 1448h226l-301 -358h-205l-191 358h224l102 -172z" />
    <glyph glyph-name="uni0326" unicode="&#x326;" 
d="M-206 -100q143 0 143 -161q0 -85 -70 -184.5t-176 -152.5l-58 82q100 78 111 145q-6 -2 -35 -2t-57.5 29t-28.5 90.5t50.5 107.5t120.5 46z" />
    <glyph glyph-name="uni0327" unicode="&#x327;" 
d="M-342 -498q-59 0 -112.5 19.5t-77.5 38.5l-25 18l76 123q78 -51 133 -51q113 0 112 90q0 74 -112 74q-39 0 -62 -4l-20 30l98 203h154l-62 -119q86 -2 134.5 -49t48.5 -125q0 -113 -80 -180.5t-205 -67.5z" />
    <glyph glyph-name="uni0328" unicode="&#x328;" 
d="M-328 -485q-96 0 -150 50t-54 134q0 83 40 157q42 74 98 119q111 89 171 103l82 -78q-115 -57 -167 -156q-20 -39 -20 -75q0 -76 72 -76q35 0 68 24l51 -139q-95 -63 -191 -63z" />
    <glyph glyph-name="uni0335" unicode="&#x335;" 
d="M-688 465l26 182h719l-26 -182h-719z" />
    <glyph glyph-name="uni0336" unicode="&#x336;" 
d="M-1477 553l29 199h1532l-29 -199h-1532z" />
    <glyph glyph-name="uni0337" unicode="&#x337;" 
d="M-696 317l-74 158l760 418l71 -160z" />
    <glyph glyph-name="uni0338" unicode="&#x338;" 
d="M-821 -18l-127 110l907 1020l121 -113z" />
    <glyph glyph-name="Wgrave" unicode="&#x1e80;" horiz-adv-x="1890" 
d="M1804 1440h283l-631 -1440h-211l-162 981l-438 -981h-213l-225 1440h301l65 -518l41 -486l193 469l246 535h188l92 -535l68 -483l194 502zM1448 1718l-80 -168l-477 125l110 252z" />
    <glyph glyph-name="wgrave" unicode="&#x1e81;" horiz-adv-x="1589" 
d="M1421 942h283l-485 -942h-193l-137 571l-299 -571h-199l-239 942h288l107 -598l299 598h180l135 -612zM1219 1212l-111 -151l-397 205l151 219z" />
    <glyph glyph-name="Wacute" unicode="&#x1e82;" horiz-adv-x="1890" 
d="M1804 1440h283l-631 -1440h-211l-162 981l-438 -981h-213l-225 1440h301l65 -518l41 -486l193 469l246 535h188l92 -535l68 -483l194 502zM1470 1686l-512 -144l-49 166l492 221z" />
    <glyph glyph-name="wacute" unicode="&#x1e83;" horiz-adv-x="1589" 
d="M1421 942h283l-485 -942h-193l-137 571l-299 -571h-199l-239 942h288l107 -598l299 598h180l135 -612zM1237 1266l-453 -205l-75 151l428 269z" />
    <glyph glyph-name="Wdieresis" unicode="&#x1e84;" horiz-adv-x="1890" 
d="M1804 1440h283l-631 -1440h-211l-162 981l-438 -981h-213l-225 1440h301l65 -518l41 -486l193 469l246 535h188l92 -535l68 -483l194 502zM1396.5 1573q-64.5 0 -103 39t-38.5 105.5t52.5 115.5t118 49t102.5 -39t37 -105.5t-52 -115.5t-116.5 -49zM940.5 1575
q-65.5 0 -102.5 38t-37 104.5t52 115.5t117.5 49t102.5 -38t37 -104.5t-52 -115.5t-117.5 -49z" />
    <glyph glyph-name="wdieresis" unicode="&#x1e85;" horiz-adv-x="1589" 
d="M1421 942h283l-485 -942h-193l-137 571l-299 -571h-199l-239 942h288l107 -598l299 598h180l135 -612zM1176.5 1124q-64.5 0 -102.5 39t-38 106t52.5 116t117.5 49t102.5 -39t37.5 -106t-52.5 -116t-117 -49zM745.5 1128q-65.5 0 -103.5 39t-38 106t52.5 116t116.5 49
t102 -39t38 -106t-51 -116t-116.5 -49z" />
    <glyph glyph-name="uni1E9E" unicode="&#x1e9e;" horiz-adv-x="1458" 
d="M930 -18q-193 0 -314 84l134 217q76 -59 192 -59t188 71q74 72 74 173q0 102 -56 154t-161 52h-174l31 211l284 309h-268q-118 0 -198 -71t-97 -189l-131 -934h-282l131 934q33 233 182 370q150 136 432 136h594l-29 -209l-338 -348q162 -15 256 -117t95 -266
q0 -230 -154 -374t-391 -144z" />
    <glyph glyph-name="Ygrave" unicode="&#x1ef2;" horiz-adv-x="1318" 
d="M1509 1440l-628 -871l-80 -569h-285l82 567l-379 873h336l227 -588l402 588h325zM1182 1718l-80 -168l-477 125l110 252z" />
    <glyph glyph-name="ygrave" unicode="&#x1ef3;" horiz-adv-x="1044" 
d="M1165 942l-508 -958l-200 -383h-279l225 409l-251 932h301l133 -627l299 627h280zM963 1212l-111 -151l-397 205l151 219z" />
    <glyph glyph-name="uni1EF8" unicode="&#x1ef8;" horiz-adv-x="1318" 
d="M1509 1440l-628 -871l-80 -569h-285l82 567l-379 873h336l227 -588l402 588h325zM770 1657q-84 0 -127 -86l-135 127l26 34q119 138 262 138q71 0 146.5 -50.5t115.5 -50.5t72.5 27t46 49.5t13.5 28.5l137 -125q-4 -16 -35.5 -57t-104.5 -87t-150 -46t-150.5 49
t-116.5 49z" />
    <glyph glyph-name="uni1EF9" unicode="&#x1ef9;" horiz-adv-x="1044" 
d="M1165 942l-508 -958l-200 -383h-279l225 409l-251 932h301l133 -627l299 627h280zM584 1204q-76 0 -123 -84l-139 121q125 186 270 186q74 0 148.5 -50t113.5 -50q74 0 121 94l135 -118q-14 -47 -92 -122t-167 -75t-159.5 49t-107.5 49z" />
    <glyph glyph-name="endash" unicode="&#x2013;" horiz-adv-x="1026" 
d="M172 399l29 211h796l-28 -211h-797z" />
    <glyph glyph-name="emdash" unicode="&#x2014;" horiz-adv-x="1867" 
d="M172 399l29 209h1626l-29 -209h-1626z" />
    <glyph glyph-name="quoteleft" unicode="&#x2018;" horiz-adv-x="493" 
d="M381 901q-76 0 -115 41t-39 109q0 117 80 229t203 172l61 -86q-129 -86 -139 -166q12 4 25 4q49 0 78 -34t29 -100t-54 -118q-53 -51 -129 -51z" />
    <glyph glyph-name="quoteright" unicode="&#x2019;" horiz-adv-x="477" 
d="M333 1159q-34 0 -64 33q-29 34 -29 100t55 117t130 51t113 -41t37 -108q-1 -119 -79 -231t-201 -171l-62 86q55 37 96 84q40 47 44 82q-6 -2 -40 -2z" />
    <glyph glyph-name="quotesinglbase" unicode="&#x201a;" horiz-adv-x="512" 
d="M190 -76q-34 0 -63 33t-29 99t54 118q54 51 130 51t114 -41t38 -108q0 -117 -80 -230t-200 -172l-64 86q55 37 95 84t44 82q-5 -2 -39 -2z" />
    <glyph glyph-name="quotedblleft" unicode="&#x201c;" horiz-adv-x="884" 
d="M765 901q-75 0 -113 41t-38 109q0 119 79 231t202 170l61 -86q-129 -86 -139 -166q12 4 25 4q49 0 79 -34q29 -34 29 -100t-55 -118q-55 -51 -130 -51zM376 901q-75 0 -114 41t-39 109q0 119 79 231t204 170l61 -86q-129 -86 -139 -166q8 4 23 4q49 0 79 -33t29 -101
q0 -68 -54 -118q-54 -51 -129 -51z" />
    <glyph glyph-name="quotedblright" unicode="&#x201d;" horiz-adv-x="866" 
d="M723 1159q-35 0 -64 33q-29 34 -29 100t55 117q54 51 129 51t114 -41t39 -108q0 -119 -80 -231t-203 -171l-61 86q55 37 95 84t44 82q-4 -2 -39 -2zM333 1159q-34 0 -64 33q-29 34 -29 100t55 117t130 51t113 -41t37 -108q-1 -119 -79 -231t-201 -171l-62 86q55 37 96 84
q40 47 44 82q-6 -2 -40 -2z" />
    <glyph glyph-name="quotedblbase" unicode="&#x201e;" horiz-adv-x="905" 
d="M581 -76q-34 0 -65 33t-31 99q1 66 55 118q54 51 130 51t116 -41t39 -108q1 -117 -79 -229t-203 -173l-64 86q55 37 96 84t46 82q-6 -2 -40 -2zM190 -76q-34 0 -63 33t-29 99t54 118q54 51 130 51t114 -41t38 -108q0 -117 -80 -230t-200 -172l-64 86q55 37 95 84t44 82
q-5 -2 -39 -2z" />
    <glyph glyph-name="dagger" unicode="&#x2020;" horiz-adv-x="1169" 
d="M1219 1065l-35 -246h-357l-114 -819h-246l117 819h-367l35 246h364l62 428h244l-60 -428h357z" />
    <glyph glyph-name="daggerdbl" unicode="&#x2021;" horiz-adv-x="1169" 
d="M1194 897h-358l-45 -326h358l-35 -245h-358l-45 -326h-246l45 326h-363l35 245h363l47 326h-365l37 248h363l49 348h244l-50 -348h361z" />
    <glyph glyph-name="bullet" unicode="&#x2022;" horiz-adv-x="796" 
d="M483 465q-121 0 -189 70q-68 71 -69 189q0 118 81 207q82 89 202 89t188 -70t68 -190t-80 -208q-80 -87 -201 -87z" />
    <glyph glyph-name="ellipsis" unicode="&#x2026;" horiz-adv-x="1546" 
d="M1310 -20q-68 0 -110 43q-41 43 -41 111t56 125q56 56 127 56t112 -43q41 -44 41 -112t-58 -124q-59 -56 -127 -56zM810 315q70 0 110 -42q40 -41 41 -111q-1 -70 -57 -126t-126 -56t-112 43q-41 43 -41 111t57 125q58 56 128 56zM244 -20q-70 0 -110 42t-40 112t56 126
q56 55 128 55q70 0 111 -43q41 -44 41 -112t-58 -124t-128 -56z" />
    <glyph glyph-name="perthousand" unicode="&#x2030;" horiz-adv-x="2471" 
d="M1960 318q0 -78 37 -120q37 -40 105 -40t121 57q52 57 52 134t-39 118q-40 41 -108 41t-118 -56t-50 -134zM1161 316q0 -78 37 -118q38 -40 106 -40t120 57t52 134t-38 118q-39 41 -107 41t-119 -57t-51 -135zM1272 -27q-137 0 -220 84t-83 224q0 182 111 298
q112 115 266 115t238 -84q83 -84 83 -223q1 -182 -111 -298t-284 -116zM2466 387q0 -182 -112 -298t-266 -116q-156 0 -240 85q-83 85 -83 227q0 180 113 296q114 115 268 115t237 -85t83 -224zM599 1356q-69 0 -119 -56t-50 -134t37 -118t105 -40t120 57q51 57 51 134
t-37 117q-38 40 -107 40zM541 819q-137 0 -220 86t-83 228q0 179 112 295t266 116q152 0 235 -85t83 -224q0 -182 -110 -299t-283 -117zM506 -39l-189 92l1055 1499l189 -102z" />
    <glyph glyph-name="guilsinglleft" unicode="&#x2039;" horiz-adv-x="614" 
d="M305 141l-172 363l275 362h243l-282 -362l182 -363h-246z" />
    <glyph glyph-name="guilsinglright" unicode="&#x203a;" horiz-adv-x="616" 
d="M106 141l283 363l-182 362h246l170 -362l-273 -363h-244z" />
    <glyph glyph-name="fraction" unicode="&#x2044;" horiz-adv-x="851" 
d="M186 -14l-174 88l842 1384l176 -98z" />
    <glyph glyph-name="Euro" unicode="&#x20ac;" horiz-adv-x="1550" 
d="M1032 240q188 0 314 102l112 -209q-174 -151 -439 -151t-439 131t-226 346h-211l25 182h168q4 82 14 145h-162l27 183h184q88 225 278.5 358t464.5 133t468 -141l-156 -225q-137 106 -330 106q-279 0 -411 -231h450l-26 -183h-490q-12 -66 -12 -137v-8h481l-24 -182h-420
q45 -102 138 -160.5t222 -58.5z" />
    <glyph glyph-name="trademark" unicode="&#x2122;" horiz-adv-x="1335" 
d="M258 1290l18 146h437l-21 -146h-143l-57 -401h-152l57 401h-139zM1270 1438h116l-55 -549h-143l35 301l-129 -182h-107l-80 182l-45 -301h-145l100 549h117l129 -283z" />
    <glyph glyph-name="minus" unicode="&#x2212;" horiz-adv-x="1095" 
d="M166 494l31 213h901l-31 -213h-901z" />
    <glyph glyph-name="approxequal" unicode="&#x2248;" horiz-adv-x="1173" 
d="M440 266q-68 0 -141 -71l-133 131l32 34q194 208 464 90q100 -44 150 -44t95 26t72 64l127 -129q-4 -8 -14 -21q-138 -164 -322 -164q-70 0 -166 42t-164 42zM545 946q80 0 181 -42t152 -42t72 12q20 12 40 26q20 13 30 24q10 12 20 22l2 4l129 -127l-2 -2
q-135 -184 -317 -184q-88 0 -183 41t-147 41q-52 1 -88 -17q-37 -18 -54 -33t-18 -20l-131 131q136 166 314 166z" />
    <glyph glyph-name="notequal" unicode="&#x2260;" horiz-adv-x="1224" 
d="M1190 705h-336l-80 -228h383l-29 -215h-430l-80 -229h-247l80 229h-301l30 215h346l78 228h-391l31 213h436l74 212h250l-74 -212h291z" />
    <glyph glyph-name="uniF8FF" unicode="&#xf8ff;" horiz-adv-x="2822" 
d="M2238 31h15q8 0 8 6t-8 6h-15v-12zM2228 4v47h23q20 0 20 -14t-14 -14l12 -19h-12l-8 19h-11v-19h-10zM2249 -10q37 0 37 37t-37 37t-37 -38q0 -36 37 -36zM2249 -20q-49 0 -49 47t49 47t49 -47t-49 -47zM1448 223q0 47 -43 47t-43 -63q0 -29 10 -60q30 -1 53 23t23 53z
M1921 223h82q6 55 -35 56q-47 -1 -47 -56zM1987 -10q-289 0 -289 250q0 122 66 190t185 68q118 0 180 -62t62 -176q0 -43 -6 -72h-254q23 -36 98 -36t117 24v-153q-46 -33 -159 -33zM1143 -90q0 291 20 577h160q14 -86 14 -155q35 166 164 166q76 0 120 -60t44 -172
q0 -276 -281 -276q2 -31 2 -80h-243zM1110 210q0 -172 -68 -242t-218 -70t-206 34v170q49 -32 118 -32q136 1 136 57q-33 -23 -100 -23q-184 0 -184 170v27h-113l6 -133q12 -8 35 -8t33 10v-150q-39 -30 -135 -30t-133 35t-37 113t6 163h-37v164l240 59l-2 -37h362v-243
q0 -33 6 -44t25 -12q33 0 33 56v243h213q20 -106 20 -277zM2517 707q45 0 45 57t-45 57t-45 -57t45 -57zM752 707q47 0 47 57t-47 57t-47 -57t47 -57zM2519 1053q248 0 248 -255t-251 -255t-251 255t254 255zM1708 553q0 358 21 489h163q12 -90 13 -155q4 31 13 61t49 68
q39 37 113 37q74 1 108 -51t38 -166l6 -283h-233l4 190q0 59 -31 60q-37 0 -37 -60l7 -190h-234zM1012 813v-260h-170l-17 125q-24 -135 -153 -135q-188 0 -189 233q0 276 275 277q254 0 254 -240zM1032 854v162l244 61l2 -35h364q20 -131 21 -489h-242q0 188 6 301h-124
l6 -133q9 -8 33 -8t34 10v-152q-28 -30 -139 -30q-168 0 -168 135l8 178h-45zM205 553q0 274 18 643h205q20 -410 21 -643h-244zM1540 1069q-53 0 -89 37t-36 89t36 89t89 37t90 -37t37 -90t-37 -89t-90 -36z" />
    <glyph glyph-name="A.ss01" horiz-adv-x="1462" 
d="M899 1204q-152 0 -242 -103.5t-114 -283.5l-25 -180h606l25 180q25 176 -36.5 281.5t-213.5 105.5zM928.5 1458q274.5 0 411.5 -169t90 -492l-113 -797h-283l56 395h-607l-55 -395h-283l111 797q47 330 222.5 495.5t450 165.5z" />
    <glyph glyph-name="Aacute.ss01" horiz-adv-x="1462" 
d="M899 1204q-152 0 -242 -103.5t-114 -283.5l-25 -180h606l25 180q25 176 -36.5 281.5t-213.5 105.5zM928.5 1458q274.5 0 411.5 -169t90 -492l-113 -797h-283l56 395h-607l-55 -395h-283l111 797q47 330 222.5 495.5t450 165.5zM1262 1686l-512 -144l-50 166l492 221z" />
    <glyph glyph-name="Abreve.ss01" horiz-adv-x="1462" 
d="M899 1204q-152 0 -242 -103.5t-114 -283.5l-25 -180h606l25 180q25 176 -36.5 281.5t-213.5 105.5zM928.5 1458q274.5 0 411.5 -169t90 -492l-113 -797h-283l56 395h-607l-55 -395h-283l111 797q47 330 222.5 495.5t450 165.5zM950.5 1567q-145.5 0 -225.5 85t-59 226
h206q-8 -57 21 -93t84 -36t94 36t47 93h207q-20 -141 -124.5 -226t-250 -85z" />
    <glyph glyph-name="Acircumflex.ss01" horiz-adv-x="1462" 
d="M899 1204q-152 0 -242 -103.5t-114 -283.5l-25 -180h606l25 180q25 176 -36.5 281.5t-213.5 105.5zM928.5 1458q274.5 0 411.5 -169t90 -492l-113 -797h-283l56 395h-607l-55 -395h-283l111 797q47 330 222.5 495.5t450 165.5zM965 1696l-140 -140h-254l324 334h205
l217 -334h-252z" />
    <glyph glyph-name="Adieresis.ss01" horiz-adv-x="1462" 
d="M899 1204q-152 0 -242 -103.5t-114 -283.5l-25 -180h606l25 180q25 176 -36.5 281.5t-213.5 105.5zM928.5 1458q274.5 0 411.5 -169t90 -492l-113 -797h-283l56 395h-607l-55 -395h-283l111 797q47 330 222.5 495.5t450 165.5zM1187.5 1573q-64.5 0 -102.5 39t-38 105.5
t52 115.5t117.5 49t102.5 -39t37 -105.5t-52 -115.5t-116.5 -49zM731.5 1575q-65.5 0 -102.5 38t-37 104.5t52 115.5t117.5 49t102.5 -38t37 -104.5t-52 -115.5t-117.5 -49z" />
    <glyph glyph-name="Agrave.ss01" horiz-adv-x="1462" 
d="M899 1204q-152 0 -242 -103.5t-114 -283.5l-25 -180h606l25 180q25 176 -36.5 281.5t-213.5 105.5zM928.5 1458q274.5 0 411.5 -169t90 -492l-113 -797h-283l56 395h-607l-55 -395h-283l111 797q47 330 222.5 495.5t450 165.5zM1239 1718l-80 -168l-477 125l111 252z" />
    <glyph glyph-name="Aogonek.ss01" horiz-adv-x="1462" 
d="M899 1204q-152 0 -242 -103.5t-114 -283.5l-25 -180h606l25 180q25 176 -36.5 281.5t-213.5 105.5zM1157 -213q0 -86 82 -86q33 0 64 23l69 -144q-82 -61 -186 -61t-169 58t-65 153q0 156 154 270h-72l56 395h-607l-55 -395h-283l111 797q47 330 222 495.5t450 165.5
t412 -169t90 -492l-113 -797q-18 -10 -45 -27.5t-71 -73t-44 -112.5z" />
    <glyph glyph-name="Aring.ss01" horiz-adv-x="1462" 
d="M899 1204q-152 0 -242 -103.5t-114 -283.5l-25 -180h606l25 180q25 176 -36.5 281.5t-213.5 105.5zM928.5 1458q274.5 0 411.5 -169t90 -492l-113 -797h-283l56 395h-607l-55 -395h-283l111 797q47 330 222.5 495.5t450 165.5zM991 1837q-41 0 -68.5 -28.5t-27.5 -68.5
t19.5 -62.5t54.5 -22.5t61.5 30.5t26.5 75.5q0 76 -66 76zM954.5 1513q-102.5 0 -160 56.5t-57.5 157t79 175t182.5 74.5t159.5 -56t56 -155.5t-78.5 -175.5t-181 -76z" />
    <glyph glyph-name="Atilde.ss01" horiz-adv-x="1462" 
d="M899 1204q-152 0 -242 -103.5t-114 -283.5l-25 -180h606l25 180q25 176 -36.5 281.5t-213.5 105.5zM928.5 1458q274.5 0 411.5 -169t90 -492l-113 -797h-283l56 395h-607l-55 -395h-283l111 797q47 330 222.5 495.5t450 165.5zM827 1657q-84 0 -127 -86l-135 127l27 34
q119 138 261 138q71 0 146.5 -50.5t115.5 -50.5t73 27t46 49.5t13 28.5l137 -125q-4 -16 -35.5 -57t-104.5 -87t-150 -46t-150.5 49t-116.5 49z" />
    <glyph glyph-name="R.ss01" horiz-adv-x="1353" 
d="M721 659q147 0 239.5 83t92.5 204t-67.5 183.5t-186.5 62.5h-189l-75 -533h186zM1253.5 215q51.5 0 67.5 2l-31 -219q-16 -16 -121.5 -16t-176 44t-112.5 106.5t-76 124.5t-71 107.5t-78 47.5h-155l-58 -412h-278l203 1440h483q227 0 359 -120t132 -313.5t-93 -329.5
t-255 -206q41 -31 82 -99.5t84 -112.5t94.5 -44z" />
    <glyph glyph-name="Racute.ss01" horiz-adv-x="1353" 
d="M721 659q147 0 239.5 83t92.5 204t-67.5 183.5t-186.5 62.5h-189l-75 -533h186zM1253.5 215q51.5 0 67.5 2l-31 -219q-16 -16 -121.5 -16t-176 44t-112.5 106.5t-76 124.5t-71 107.5t-78 47.5h-155l-58 -412h-278l203 1440h483q227 0 359 -120t132 -313.5t-93 -329.5
t-255 -206q41 -31 82 -99.5t84 -112.5t94.5 -44zM1143 1686l-512 -144l-49 166l491 221z" />
    <glyph glyph-name="Rcaron.ss01" horiz-adv-x="1353" 
d="M721 659q147 0 239.5 83t92.5 204t-67.5 183.5t-186.5 62.5h-189l-75 -533h186zM1253.5 215q51.5 0 67.5 2l-31 -219q-16 -16 -121.5 -16t-176 44t-112.5 106.5t-76 124.5t-71 107.5t-78 47.5h-155l-58 -412h-278l203 1440h483q227 0 359 -120t132 -313.5t-93 -329.5
t-255 -206q41 -31 82 -99.5t84 -112.5t94.5 -44zM934 1556h-205l-217 334h252l100 -139l140 139h253z" />
    <glyph glyph-name="Rcommaaccent.ss01" horiz-adv-x="1353" 
d="M673.5 -68q71.5 0 114.5 -45t44 -131.5t-55 -174t-150 -132.5l-72 80q43 29 69.5 65.5t26.5 65.5q-4 -2 -35.5 -2t-65.5 35t-35 96t43 102t115.5 41zM721 659q147 0 239.5 83t92.5 204t-67.5 183.5t-186.5 62.5h-189l-75 -533h186zM1253.5 215q51.5 0 67.5 2l-31 -219
q-16 -16 -121.5 -16t-176 44t-112.5 106.5t-76 124.5t-71 107.5t-78 47.5h-155l-58 -412h-278l203 1440h483q227 0 359 -120t132 -313.5t-93 -329.5t-255 -206q41 -31 82 -99.5t84 -112.5t94.5 -44z" />
    <glyph glyph-name="Y.ss01" horiz-adv-x="1327" 
d="M761.5 696q149.5 0 239 102.5t113.5 268.5l51 373h283l-49 -353q-37 -268 -176.5 -428.5t-354.5 -201.5l-63 -457h-283l64 459q-201 41 -295 201.5t-58 426.5l50 353h280l-51 -373q-23 -164 38.5 -267.5t211 -103.5z" />
    <glyph glyph-name="Yacute.ss01" horiz-adv-x="1327" 
d="M761.5 696q149.5 0 239 102.5t113.5 268.5l51 373h283l-49 -353q-37 -268 -176.5 -428.5t-354.5 -201.5l-63 -457h-283l64 459q-201 41 -295 201.5t-58 426.5l50 353h280l-51 -373q-23 -164 38.5 -267.5t211 -103.5zM1186 1686l-512 -144l-49 166l491 221z" />
    <glyph glyph-name="Ycircumflex.ss01" horiz-adv-x="1327" 
d="M761.5 696q149.5 0 239 102.5t113.5 268.5l51 373h283l-49 -353q-37 -268 -176.5 -428.5t-354.5 -201.5l-63 -457h-283l64 459q-201 41 -295 201.5t-58 426.5l50 353h280l-51 -373q-23 -164 38.5 -267.5t211 -103.5zM889 1696l-139 -140h-254l323 334h205l217 -334h-252z
" />
    <glyph glyph-name="Ydieresis.ss01" horiz-adv-x="1327" 
d="M761.5 696q149.5 0 239 102.5t113.5 268.5l51 373h283l-49 -353q-37 -268 -176.5 -428.5t-354.5 -201.5l-63 -457h-283l64 459q-201 41 -295 201.5t-58 426.5l50 353h280l-51 -373q-23 -164 38.5 -267.5t211 -103.5zM1111.5 1573q-64.5 0 -102.5 39t-38 105.5t52 115.5
t117.5 49t102.5 -39t37 -105.5t-52 -115.5t-116.5 -49zM655.5 1575q-65.5 0 -102.5 38t-37 104.5t52.5 115.5t117.5 49t102 -38t37 -104.5t-52 -115.5t-117.5 -49z" />
    <glyph glyph-name="Ygrave.ss01" horiz-adv-x="1327" 
d="M761.5 696q149.5 0 239 102.5t113.5 268.5l51 373h283l-49 -353q-37 -268 -176.5 -428.5t-354.5 -201.5l-63 -457h-283l64 459q-201 41 -295 201.5t-58 426.5l50 353h280l-51 -373q-23 -164 38.5 -267.5t211 -103.5zM1163 1718l-80 -168l-477 125l111 252z" />
    <glyph glyph-name="uni1EF8.ss01" horiz-adv-x="1327" 
d="M761.5 696q149.5 0 239 102.5t113.5 268.5l51 373h283l-49 -353q-37 -268 -176.5 -428.5t-354.5 -201.5l-63 -457h-283l64 459q-201 41 -295 201.5t-58 426.5l50 353h280l-51 -373q-23 -164 38.5 -267.5t211 -103.5zM782 1870q66 0 141.5 -50.5t115.5 -50.5t73 27
t46 49.5t13 28.5l138 -125q-4 -16 -36 -57t-104.5 -87t-149.5 -46t-150.5 49t-116.5 49q-84 0 -127 -86l-136 127q120 172 293 172z" />
    <glyph glyph-name="ae.001" horiz-adv-x="1654" 
d="M365 256q1 -98 131 -98q70 0 135 58t71 122q-68 39 -157.5 39t-134.5 -32t-45 -89zM1243 748q-82 0 -145.5 -47.5t-91.5 -131.5h405q4 80 -41 129.5t-127 49.5zM987 397q22 -190 253 -190q122 0 222 76l99 -174q-174 -127 -383 -127q-119 0 -210 52t-143 146
q-141 -199 -405 -198q-168 0 -251 68.5t-83 195.5t109.5 206.5t271 79.5t258.5 -43l6 50q29 211 -188 211q-121 0 -248 -64l-64 184q180 90 390 90.5t309 -133.5q139 133 330.5 133.5t296 -110.5t104.5 -301q0 -83 -16 -131l-7 -21h-651z" />
    <glyph glyph-name="i.loclTRK" horiz-adv-x="505" 
d="M119 0l133 942h268l-133 -942h-268zM417 1104q-77 0 -124 43t-47 117.5t53 127t130 52.5t123 -43t46 -118t-52 -127t-129 -52z" />
    <glyph glyph-name="a.ss01" horiz-adv-x="1032" 
d="M365 254q1 -96 131 -96q70 0 135 58t71 122q-68 39 -163 39q-174 0 -174 -123zM615 961q204 0 309.5 -106.5t74.5 -317.5l-75 -537h-217l10 135q-111 -154 -340 -153q-133 0 -211 65.5t-78 190t111.5 211t267 86.5t258.5 -43l6 47q14 100 -37 155.5t-161.5 55.5
t-243.5 -62l-58 182q180 91 384 91z" />
    <glyph glyph-name="aacute.ss01" horiz-adv-x="1032" 
d="M365 254q1 -96 131 -96q70 0 135 58t71 122q-68 39 -163 39q-174 0 -174 -123zM615 961q204 0 309.5 -106.5t74.5 -317.5l-75 -537h-217l10 135q-111 -154 -340 -153q-133 0 -211 65.5t-78 190t111.5 211t267 86.5t258.5 -43l6 47q14 100 -37 155.5t-161.5 55.5
t-243.5 -62l-58 182q180 91 384 91zM940 1266l-453 -205l-75 151l428 269z" />
    <glyph glyph-name="abreve.ss01" horiz-adv-x="1032" 
d="M365 254q1 -96 131 -96q70 0 135 58t71 122q-68 39 -163 39q-174 0 -174 -123zM615 961q204 0 309.5 -106.5t74.5 -317.5l-75 -537h-217l10 135q-111 -154 -340 -153q-133 0 -211 65.5t-78 190t111.5 211t267 86.5t258.5 -43l6 47q14 100 -37 155.5t-161.5 55.5
t-243.5 -62l-58 182q180 91 384 91zM651.5 1094q-145.5 0 -222.5 91t-56 245h205q-10 -72 16.5 -115t81.5 -43t95 43t50 115h205q-20 -154 -124.5 -245t-250 -91z" />
    <glyph glyph-name="acircumflex.ss01" horiz-adv-x="1032" 
d="M365 254q1 -96 131 -96q70 0 135 58t71 122q-68 39 -163 39q-174 0 -174 -123zM615 961q204 0 309.5 -106.5t74.5 -317.5l-75 -537h-217l10 135q-111 -154 -340 -153q-133 0 -211 65.5t-78 190t111.5 211t267 86.5t258.5 -43l6 47q14 100 -37 155.5t-161.5 55.5
t-243.5 -62l-58 182q180 91 384 91zM670 1260l-146 -170h-225l301 358h205l190 -358h-223z" />
    <glyph glyph-name="adieresis.ss01" horiz-adv-x="1032" 
d="M365 254q1 -96 131 -96q70 0 135 58t71 122q-68 39 -163 39q-174 0 -174 -123zM615 961q204 0 309.5 -106.5t74.5 -317.5l-75 -537h-217l10 135q-111 -154 -340 -153q-133 0 -211 65.5t-78 190t111.5 211t267 86.5t258.5 -43l6 47q14 100 -37 155.5t-161.5 55.5
t-243.5 -62l-58 182q180 91 384 91zM879.5 1124q-64.5 0 -102.5 39t-38 106t52.5 116t117.5 49t102.5 -39t37.5 -106t-52.5 -116t-117 -49zM448.5 1128q-65.5 0 -103.5 39t-38 106t52.5 116t116.5 49t102 -39t38 -106t-51 -116t-116.5 -49z" />
    <glyph glyph-name="agrave.ss01" horiz-adv-x="1032" 
d="M365 254q1 -96 131 -96q70 0 135 58t71 122q-68 39 -163 39q-174 0 -174 -123zM615 961q204 0 309.5 -106.5t74.5 -317.5l-75 -537h-217l10 135q-111 -154 -340 -153q-133 0 -211 65.5t-78 190t111.5 211t267 86.5t258.5 -43l6 47q14 100 -37 155.5t-161.5 55.5
t-243.5 -62l-58 182q180 91 384 91zM922 1212l-111 -151l-397 205l151 219z" />
    <glyph glyph-name="amacron.ss01" horiz-adv-x="1032" 
d="M365 254q1 -96 131 -96q70 0 135 58t71 122q-68 39 -163 39q-174 0 -174 -123zM615 961q204 0 309.5 -106.5t74.5 -317.5l-75 -537h-217l10 135q-111 -154 -340 -153q-133 0 -211 65.5t-78 190t111.5 211t267 86.5t258.5 -43l6 47q14 100 -37 155.5t-161.5 55.5
t-243.5 -62l-58 182q180 91 384 91zM999 1341l-30 -206h-617l29 206h618z" />
    <glyph glyph-name="aogonek.ss01" horiz-adv-x="1032" 
d="M365 254q1 -96 131 -96q70 0 135 58t71 122q-68 39 -163 39q-174 0 -174 -123zM737 -231q0 -76 72 -76q35 0 68 24l51 -139q-96 -63 -191.5 -63t-150 50t-54.5 136q0 176 175 303l10 131q-111 -154 -340 -153q-133 0 -211 65.5t-78 190t111.5 211t267 86.5t258.5 -43
l6 47q14 100 -37 155.5t-161.5 55.5t-243.5 -62l-58 182q180 90 384 90.5t309.5 -106t74.5 -317.5l-75 -537q-114 -57 -166 -156q-20 -39 -21 -75z" />
    <glyph glyph-name="aring.ss01" horiz-adv-x="1032" 
d="M365 254q1 -96 131 -96q70 0 135 58t71 122q-68 39 -163 39q-174 0 -174 -123zM615 961q204 0 309.5 -106.5t74.5 -317.5l-75 -537h-217l10 135q-111 -154 -340 -153q-133 0 -211 65.5t-78 190t111.5 211t267 86.5t258.5 -43l6 47q14 100 -37 155.5t-161.5 55.5
t-243.5 -62l-58 182q180 91 384 91zM694 1382q-43 0 -69.5 -28.5t-26.5 -70.5q0 -85 70 -85q39 0 66.5 31t27.5 76q0 77 -68 77zM657.5 1057q-104.5 0 -162 56t-57.5 157t80 176.5t183.5 75.5t161 -57.5t57.5 -157t-79 -175t-183.5 -75.5z" />
    <glyph glyph-name="atilde.ss01" horiz-adv-x="1032" 
d="M365 254q1 -96 131 -96q70 0 135 58t71 122q-68 39 -163 39q-174 0 -174 -123zM615 961q204 0 309.5 -106.5t74.5 -317.5l-75 -537h-217l10 135q-111 -154 -340 -153q-133 0 -211 65.5t-78 190t111.5 211t267 86.5t258.5 -43l6 47q14 100 -37 155.5t-161.5 55.5
t-243.5 -62l-58 182q180 91 384 91zM543 1204q-76 0 -123 -84l-139 121q125 186 270 186q74 0 148.5 -50t113.5 -50q74 0 121 94l135 -118q-14 -47 -92 -122t-167 -75t-159.5 49t-107.5 49z" />
    <glyph glyph-name="a.sc" horiz-adv-x="1103" 
d="M467 360h270l-84 367zM819 0l-41 182h-403l-92 -182h-277l608 1063h177l303 -1063h-275z" />
    <glyph glyph-name="aacute.sc" horiz-adv-x="1103" 
d="M467 360h270l-84 367zM819 0l-41 182h-403l-92 -182h-277l608 1063h177l303 -1063h-275zM1004 1317l-463 -189l-74 162l428 248z" />
    <glyph glyph-name="abreve.sc" horiz-adv-x="1103" 
d="M467 360h270l-84 367zM819 0l-41 182h-403l-92 -182h-277l608 1063h177l303 -1063h-275zM708.5 1161q-141.5 0 -217 89t-53.5 237h205q-10 -66 14.5 -106t76.5 -40t88 39t46 107h205q-20 -147 -121.5 -236.5t-243 -89.5z" />
    <glyph glyph-name="acircumflex.sc" horiz-adv-x="1103" 
d="M467 360h270l-84 367zM819 0l-41 182h-403l-92 -182h-277l608 1063h177l303 -1063h-275zM725 1319l-145 -160h-228l295 338h207l193 -338h-224z" />
    <glyph glyph-name="adieresis.sc" horiz-adv-x="1103" 
d="M467 360h270l-84 367zM614 1063h177l303 -1063h-275l-41 182h-403l-92 -182h-277zM942.5 1176q-67.5 0 -108.5 37.5t-41 102.5t48 112t114 47t107.5 -38t41.5 -104t-47 -111.5t-114.5 -45.5zM485.5 1176q-67.5 0 -108.5 37.5t-41 102.5t48 112t115.5 47t107.5 -38
t40 -104t-47 -111.5t-114.5 -45.5z" />
    <glyph glyph-name="agrave.sc" horiz-adv-x="1103" 
d="M467 360h270l-84 367zM819 0l-41 182h-403l-92 -182h-277l608 1063h177l303 -1063h-275zM965 1290l-82 -160l-455 187l107 221z" />
    <glyph glyph-name="amacron.sc" horiz-adv-x="1103" 
d="M467 360h270l-84 367zM819 0l-41 182h-403l-92 -182h-277l608 1063h177l303 -1063h-275zM1049 1421l-29 -207h-610l30 207h609z" />
    <glyph glyph-name="aogonek.sc" horiz-adv-x="1103" 
d="M467 360h270l-84 367zM915.5 -487q-106.5 0 -167 51t-60.5 149q0 158 162 287h-31l-41 182h-403l-92 -182h-277l608 1063h177l303 -1063h-23q-9 -4 -21 -10q-46 -22 -104.5 -79.5t-58.5 -114.5q0 -103 76 -103q34 -1 69 26l68 -143q-78 -63 -184.5 -63z" />
    <glyph glyph-name="aring.sc" horiz-adv-x="1103" 
d="M467 360h270l-84 367zM819 0l-41 182h-403l-92 -182h-277l608 1063h177l303 -1063h-275zM815 1360q0 78 -74 78q-37 0 -63.5 -29t-26.5 -69t20.5 -62.5t56.5 -22.5t61.5 30t25.5 75zM718.5 1114q-105.5 0 -165 57.5t-59.5 159t75.5 174t180 72.5t164 -57.5t59.5 -161
t-74.5 -174t-180 -70.5z" />
    <glyph glyph-name="atilde.sc" horiz-adv-x="1103" 
d="M467 360h270l-84 367zM614 1063h177l303 -1063h-275l-41 182h-403l-92 -182h-277zM581 1255q-44 0 -73 -25.5t-35 -47.5l-156 127q45 113 147 157q50 22 113.5 21.5t143.5 -39.5t125 -39t73.5 27.5t32.5 54.5l154 -123q-12 -42 -54 -89q-87 -99 -208 -99
q-72 0 -145.5 37.5t-117.5 37.5z" />
    <glyph glyph-name="ae.sc" horiz-adv-x="1429" 
d="M512 412h186l58 399zM-4 0l661 1063h828l-33 -232h-436l-27 -186h377l-31 -213h-374l-29 -203h436l-33 -229h-694l29 197h-279l-117 -197h-278z" />
    <glyph glyph-name="aeacute.sc" horiz-adv-x="1429" 
d="M512 412h186l58 399zM-4 0l661 1063h828l-33 -232h-436l-27 -186h377l-31 -213h-374l-29 -203h436l-33 -229h-694l29 197h-279l-117 -197h-278zM897 1122l-74 162l428 248l109 -221z" />
    <glyph glyph-name="b.sc" horiz-adv-x="1058" 
d="M610 205q82 0 124 38t42 97q0 102 -137 102h-190l-33 -237h194zM799 757q0 105 -119 103h-172l-31 -223h168q76 0 115 35t39 85zM1026 343q0 -163 -111 -253t-344 -90h-438l150 1063h428q174 0 259 -68t85 -173q-1 -104 -53 -174t-138 -97q162 -45 162 -208z" />
    <glyph glyph-name="c.sc" horiz-adv-x="1026" 
d="M636 -18q-220 0 -357.5 138t-137.5 349q0 272 179.5 442t420 170t373.5 -114l-143 -207q-92 74 -228 74t-227.5 -90.5t-91.5 -227.5t70.5 -211t189.5 -76t227 76l103 -205q-158 -118 -378 -118z" />
    <glyph glyph-name="cacute.sc" horiz-adv-x="1026" 
d="M636 -18q-220 0 -357.5 138t-137.5 349q0 272 179.5 442t420 170t373.5 -114l-143 -207q-92 74 -228 74t-227.5 -90.5t-91.5 -227.5t70.5 -211t189.5 -76t227 76l103 -205q-158 -118 -378 -118zM598 1128l-74 162l428 248l109 -221z" />
    <glyph glyph-name="ccaron.sc" horiz-adv-x="1026" 
d="M743 834q-136 0 -227.5 -90.5t-91.5 -227.5t70.5 -211t189.5 -76t227 76l103 -205q-158 -119 -378 -118.5t-357.5 138.5t-137.5 349q0 272 179.5 442t420 170t373.5 -114l-143 -207q-92 74 -228 74zM860 1159h-205l-198 338h223l102 -162l142 162h227z" />
    <glyph glyph-name="ccedilla.sc" horiz-adv-x="1026" 
d="M829 -268q0 -106 -75.5 -173t-208.5 -67q-70 0 -129.5 25.5t-83.5 50.5l74 117q61 -49 126.5 -50.5t91 25.5t25.5 68q0 76 -108 75q-25 0 -60 -6l-18 31l78 162q-182 31 -291 162t-109 317q0 272 179.5 442t420 170t373.5 -114l-143 -207q-92 74 -228 74t-227.5 -90.5
t-91.5 -227.5t70.5 -211t189.5 -76t227 76l103 -205q-135 -102 -320 -116l-37 -74q78 -8 125 -56.5t47 -121.5z" />
    <glyph glyph-name="cdotaccent.sc" horiz-adv-x="1026" 
d="M636 -18q-220 0 -357.5 138t-137.5 349q0 272 179.5 442t420 170t373.5 -114l-143 -207q-92 74 -228 74t-227.5 -90.5t-91.5 -227.5t70.5 -211t189.5 -76t227 76l103 -205q-158 -118 -378 -118zM778 1171q-74 0 -118 41t-44 112t53.5 122t125.5 51t115.5 -40t43.5 -111.5
t-51 -123t-125 -51.5z" />
    <glyph glyph-name="d.sc" horiz-adv-x="1185" 
d="M588 233q152 0 239.5 96.5t87.5 230.5t-62 202.5t-175 68.5h-162l-84 -598h156zM713 1063q221 0 350 -124t129 -333q0 -268 -175 -437t-454 -169h-430l150 1063h430z" />
    <glyph glyph-name="eth.sc" horiz-adv-x="1185" 
d="M588 233q152 0 239.5 96.5t87.5 230.5t-62 202.5t-175 68.5h-162l-29 -202h197l-25 -183h-196l-31 -213h156zM713 1063q221 0 350 -124t129 -333q0 -268 -175 -437t-454 -169h-430l64 446h-125l26 183h123l62 434h430z" />
    <glyph glyph-name="dcaron.sc" horiz-adv-x="1185" 
d="M588 233q152 0 239.5 96.5t87.5 230.5t-62 202.5t-175 68.5h-162l-84 -598h156zM713 1063q221 0 350 -124t129 -333q0 -268 -175 -437t-454 -169h-430l150 1063h430zM799 1159h-205l-199 338h223l103 -162l141 162h228z" />
    <glyph glyph-name="dcroat.sc" horiz-adv-x="1185" 
d="M588 233q152 0 239.5 96.5t87.5 230.5t-62 202.5t-175 68.5h-162l-29 -202h197l-25 -183h-196l-31 -213h156zM713 1063q221 0 350 -124t129 -333q0 -268 -175 -437t-454 -169h-430l64 446h-125l26 183h123l62 434h430z" />
    <glyph glyph-name="e.sc" horiz-adv-x="968" 
d="M993 840h-483l-27 -195h422l-31 -215h-421l-29 -205h481l-31 -225h-739l150 1063h739z" />
    <glyph glyph-name="eacute.sc" horiz-adv-x="968" 
d="M993 840h-483l-27 -195h422l-31 -215h-421l-29 -205h481l-31 -225h-739l150 1063h739zM971 1317l-463 -189l-74 162l428 248z" />
    <glyph glyph-name="ecaron.sc" horiz-adv-x="968" 
d="M135 0l150 1063h739l-31 -223h-483l-27 -195h422l-31 -215h-421l-29 -205h481l-31 -225h-739zM770 1159h-205l-198 338h223l102 -162l142 162h227z" />
    <glyph glyph-name="ecircumflex.sc" horiz-adv-x="968" 
d="M993 840h-483l-27 -195h422l-31 -215h-421l-29 -205h481l-31 -225h-739l150 1063h739zM692 1319l-145 -160h-228l295 338h207l193 -338h-223z" />
    <glyph glyph-name="edieresis.sc" horiz-adv-x="968" 
d="M135 0l150 1063h739l-31 -223h-483l-27 -195h422l-31 -215h-421l-29 -205h481l-31 -225h-739zM922.5 1475q66.5 0 107.5 -38t41 -104t-47 -111.5t-114.5 -45.5t-108.5 37.5t-41 102.5t48 112t114.5 47zM453.5 1176q-67.5 0 -109 37.5t-41.5 102.5t48 112t115.5 47
t107.5 -38t40 -104t-46.5 -111.5t-114 -45.5z" />
    <glyph glyph-name="edotaccent.sc" horiz-adv-x="968" 
d="M993 840h-483l-27 -195h422l-31 -215h-421l-29 -205h481l-31 -225h-739l150 1063h739zM688 1171q-74 0 -118 41t-44 112t53.5 122t125.5 51t115.5 -40t43.5 -111.5t-51 -123t-125 -51.5z" />
    <glyph glyph-name="egrave.sc" horiz-adv-x="968" 
d="M993 840h-483l-27 -195h422l-31 -215h-421l-29 -205h481l-31 -225h-739l150 1063h739zM932 1290l-82 -160l-455 187l107 221z" />
    <glyph glyph-name="emacron.sc" horiz-adv-x="968" 
d="M993 840h-483l-27 -195h422l-31 -215h-421l-29 -205h481l-31 -225h-739l150 1063h739zM1016 1421l-29 -207h-610l31 207h608z" />
    <glyph glyph-name="eogonek.sc" horiz-adv-x="968" 
d="M690 -220q0 -40 21.5 -63.5t55.5 -23.5t69 26l67 -143q-78 -63 -184 -63t-166.5 51t-60.5 149q0 158 161 287h-518l150 1063h739l-31 -223h-483l-27 -195h422l-31 -215h-421l-29 -205h481l-31 -225l-20 -10q-96 -48 -144 -134q-20 -36 -20 -76z" />
    <glyph glyph-name="f.sc" horiz-adv-x="931" 
d="M987 831h-471l-37 -268h402l-35 -233h-400l-47 -330h-266l150 1063h737z" />
    <glyph glyph-name="g.sc" horiz-adv-x="1134" 
d="M141 467q0 268 178.5 441t462.5 173q96 0 183.5 -25.5t110 -38.5t71.5 -44l-148 -211q-111 72 -256 72t-235 -93.5t-90 -233t74.5 -213t193.5 -73.5q80 0 139 31l43 305h246l-63 -455q-162 -121 -394.5 -120.5t-374 137.5t-141.5 348z" />
    <glyph glyph-name="gbreve.sc" horiz-adv-x="1134" 
d="M141 467q0 268 178.5 441t462.5 173q96 0 183.5 -25.5t110 -38.5t71.5 -44l-148 -211q-111 72 -256 72t-235 -93.5t-90 -233t74.5 -213t193.5 -73.5q80 0 139 31l43 305h246l-63 -455q-162 -121 -394.5 -120.5t-374 137.5t-141.5 348zM778.5 1161q-141.5 0 -217.5 89
t-53 237h205q-10 -66 14.5 -106t76.5 -40t88 39t46 107h205q-20 -147 -121.5 -236.5t-243 -89.5z" />
    <glyph glyph-name="gcommaaccent.sc" horiz-adv-x="1134" 
d="M618.5 -92q69.5 0 106.5 -39t37 -105q0 -104 -73 -204.5t-187 -151.5l-60 82q117 80 123 129q-6 -2 -34.5 -2t-56.5 30.5t-28 94.5t51.5 115t121 51zM141 467q0 268 178.5 441t462.5 173q96 0 183.5 -25.5t110 -38.5t71.5 -44l-148 -211q-111 72 -256 72t-235 -93.5
t-90 -233t74.5 -213t193.5 -73.5q80 0 139 31l43 305h246l-63 -455q-162 -121 -394.5 -120.5t-374 137.5t-141.5 348z" />
    <glyph glyph-name="gdotaccent.sc" horiz-adv-x="1134" 
d="M141 467q0 268 178.5 441t462.5 173q96 0 183.5 -25.5t110 -38.5t71.5 -44l-148 -211q-111 72 -256 72t-235 -93.5t-90 -233t74.5 -213t193.5 -73.5q80 0 139 31l43 305h246l-63 -455q-162 -121 -394.5 -120.5t-374 137.5t-141.5 348zM790 1171q-74 0 -117.5 41
t-43.5 112t53 122t125 51t116 -40t44 -111.5t-51.5 -123t-125.5 -51.5z" />
    <glyph glyph-name="h.sc" horiz-adv-x="1241" 
d="M989 1063h268l-149 -1063h-268l57 406h-414l-57 -406h-293l150 1063h292l-57 -410h414z" />
    <glyph glyph-name="hbar.sc" horiz-adv-x="1241" 
d="M932 653l14 99h-414l-14 -99h414zM1346 934l-23 -182h-109l-106 -752h-268l57 406h-414l-57 -406h-293l107 752h-111l23 182h112l19 129h292l-18 -129h414l18 129h268l-18 -129h107z" />
    <glyph glyph-name="i.sc" horiz-adv-x="530" 
d="M133 0l150 1063h266l-150 -1063h-266z" />
    <glyph glyph-name="dotlessi.sc" horiz-adv-x="530" 
d="M133 0l150 1063h266l-150 -1063h-266z" />
    <glyph glyph-name="iacute.sc" horiz-adv-x="530" 
d="M133 0l150 1063h266l-150 -1063h-266zM260 1128l-74 162l428 248l109 -221z" />
    <glyph glyph-name="icircumflex.sc" horiz-adv-x="530" 
d="M133 0l150 1063h266l-150 -1063h-266zM444 1319l-145 -160h-227l295 338h206l193 -338h-223z" />
    <glyph glyph-name="idieresis.sc" horiz-adv-x="530" 
d="M133 0l150 1063h266l-150 -1063h-266zM661.5 1176q-67.5 0 -108.5 37.5t-41 102.5t48 112t114.5 47t107.5 -38t41 -104t-47 -111.5t-114.5 -45.5zM205.5 1176q-67.5 0 -109 37.5t-41.5 102.5t48.5 112t115.5 47t107.5 -38t40.5 -104t-47 -111.5t-114.5 -45.5z" />
    <glyph glyph-name="igrave.sc" horiz-adv-x="530" 
d="M133 0l150 1063h266l-150 -1063h-266zM602 1130l-455 187l107 221l430 -248z" />
    <glyph glyph-name="ij.sc" horiz-adv-x="1304" 
d="M810.5 -18q-160.5 0 -263.5 65l131 225q53 -31 115 -30q162 0 184 182l92 639h264l-96 -680q-27 -190 -146.5 -295.5t-280 -105.5zM133 0l150 1063h266l-150 -1063h-266z" />
    <glyph glyph-name="imacron.sc" horiz-adv-x="530" 
d="M133 0l150 1063h266l-150 -1063h-266zM186 1214l25 207h487l-24 -207h-488z" />
    <glyph glyph-name="iogonek.sc" horiz-adv-x="530" 
d="M209 -204q0 -103 77 -103q34 0 68 26l68 -143q-78 -63 -184.5 -63t-167 51t-60.5 149q0 158 162 287h-39l150 1063h266l-150 -1063h-6q-9 -4 -21 -10q-46 -22 -104.5 -80t-58.5 -114z" />
    <glyph glyph-name="itilde.sc" horiz-adv-x="530" 
d="M133 0l150 1063h266l-150 -1063h-266zM528 1180q-53 0 -112.5 37.5t-88 37.5t-57.5 -20.5t-34 -52.5l-123 127q8 31 25.5 65.5t66.5 73.5t107 39t122 -39t100.5 -39t59 27.5t27.5 54.5l122 -123q-11 -40 -44 -89.5t-75.5 -74t-95.5 -24.5z" />
    <glyph glyph-name="j.sc" horiz-adv-x="774" 
d="M280 -18q-160 0 -264 65l131 225q51 -31 115 -30q162 0 184 182l93 639h264l-96 -680q-27 -189 -147 -295t-280 -106z" />
    <glyph glyph-name="uni0237.sc" horiz-adv-x="774" 
d="M280 -18q-160 0 -264 65l131 225q51 -31 115 -30q162 0 184 182l93 639h264l-96 -680q-27 -189 -147 -295t-280 -106z" />
    <glyph glyph-name="k.sc" horiz-adv-x="1087" 
d="M1208 1063l-485 -535l358 -528h-333l-289 426l-60 -426h-266l150 1063h266l-64 -451l406 451h317z" />
    <glyph glyph-name="kcommaaccent.sc" horiz-adv-x="1087" 
d="M528.5 -92q69.5 0 106.5 -39t37 -105q0 -104 -73 -204.5t-187 -151.5l-60 82q117 80 123 129q-6 -2 -34.5 -2t-56.5 30.5t-28 94.5t51.5 115t121 51zM1208 1063l-485 -535l358 -528h-333l-289 426l-60 -426h-266l150 1063h266l-64 -451l406 451h317z" />
    <glyph glyph-name="kgreenlandic.sc" horiz-adv-x="1087" 
d="M1208 1063l-485 -535l358 -528h-333l-289 426l-60 -426h-266l150 1063h266l-64 -451l406 451h317z" />
    <glyph glyph-name="l.sc" horiz-adv-x="915" 
d="M432 233h483l-32 -233h-750l150 1063h266z" />
    <glyph glyph-name="lacute.sc" horiz-adv-x="915" 
d="M432 233h483l-32 -233h-750l150 1063h266zM717 1317l-463 -189l-74 162l428 248z" />
    <glyph glyph-name="lcaron.sc" horiz-adv-x="915" 
d="M770 762q-49 0 -78.5 32.5t-29.5 99.5t56 118t129.5 51t112.5 -41t39 -107q0 -117 -79.5 -229.5t-202.5 -171.5l-60 86q127 90 138 166q-8 -4 -25 -4zM549 1063l-117 -830h483l-32 -233h-750l150 1063h266z" />
    <glyph glyph-name="lcommaaccent.sc" horiz-adv-x="915" 
d="M483.5 -92q69.5 0 106.5 -39t37 -105q0 -104 -73 -204.5t-187 -151.5l-60 82q117 80 123 129q-6 -2 -34.5 -2t-56.5 30.5t-28 94.5t51.5 115t121 51zM432 233h483l-32 -233h-750l150 1063h266z" />
    <glyph glyph-name="ldot.sc" horiz-adv-x="915" 
d="M820 797q75 0 120 -42t45 -114t-50 -123t-126 -51t-121 41t-45 113.5t51 124t126 51.5zM549 1063l-117 -830h483l-32 -233h-750l150 1063h266z" />
    <glyph glyph-name="lslash.sc" horiz-adv-x="915" 
d="M432 233h483l-32 -233h-750l60 426l-123 -66l-80 177l235 125l58 401h266l-35 -250l150 80l79 -176l-262 -139z" />
    <glyph glyph-name="m.sc" horiz-adv-x="1396" 
d="M1241 1063h156l-121 -1063h-250l72 528l-314 -434h-145l-197 453l-73 -547h-248l178 1063h166l295 -666z" />
    <glyph glyph-name="n.sc" horiz-adv-x="1239" 
d="M999 1063h256l-151 -1075h-143l-480 635l-88 -623h-258l152 1075h145l481 -629z" />
    <glyph glyph-name="nacute.sc" horiz-adv-x="1239" 
d="M999 1063h256l-151 -1075h-143l-480 635l-88 -623h-258l152 1075h145l481 -629zM1069 1317l-463 -189l-74 162l429 248z" />
    <glyph glyph-name="napostrophe.sc" horiz-adv-x="1239" 
d="M999 1063h256l-151 -1075h-143l-480 635l-88 -623h-258l152 1075h145l481 -629zM311 1378q0 -117 -79.5 -229.5t-202.5 -171.5l-60 86q127 90 137 166q-8 -4 -24 -4q-49 0 -79 32.5t-30 98.5t56.5 118t130.5 52t112.5 -41t38.5 -107z" />
    <glyph glyph-name="ncaron.sc" horiz-adv-x="1239" 
d="M999 1063h256l-151 -1075h-143l-480 635l-88 -623h-258l152 1075h145l481 -629zM868 1159h-204l-199 338h223l103 -162l141 162h227z" />
    <glyph glyph-name="ncommaaccent.sc" horiz-adv-x="1239" 
d="M622.5 -92q69.5 0 106.5 -39t37 -105q0 -104 -72.5 -204.5t-187.5 -151.5l-60 82q117 80 123 129q-6 -2 -34.5 -2t-56 30.5t-27.5 94.5t51 115t120.5 51zM999 1063h256l-151 -1075h-143l-480 635l-88 -623h-258l152 1075h145l481 -629z" />
    <glyph glyph-name="eng.sc" horiz-adv-x="1302" 
d="M686 -418q-137 0 -201 47l107 238q31 -20 88 -21q143 0 168 162l16 109l-383 506l-88 -623h-258l152 1075h145l481 -629l86 617h256l-151 -1081q-29 -193 -124 -296.5t-294 -103.5z" />
    <glyph glyph-name="ntilde.sc" horiz-adv-x="1239" 
d="M999 1063h256l-151 -1075h-143l-480 635l-88 -623h-258l152 1075h145l481 -629zM383 1309q71 178 261 178q64 0 143 -39t124 -39t74 27.5t33 54.5l153 -123q-13 -44 -54 -91q-88 -97 -208 -97q-72 0 -145.5 37.5t-117.5 37.5t-72.5 -25.5t-34.5 -47.5z" />
    <glyph glyph-name="o.sc" horiz-adv-x="1253" 
d="M685 233q126 0 211 94.5t85 225.5t-67.5 206t-193.5 75t-213 -94.5t-87 -224.5t69.5 -206t195.5 -76zM668.5 -18q-246.5 0 -387 141t-140.5 360q0 262 174 430t422 168t386.5 -139t138.5 -360q0 -264 -173.5 -432t-420 -168z" />
    <glyph glyph-name="oacute.sc" horiz-adv-x="1253" 
d="M685 233q126 0 211 94.5t85 225.5t-67.5 206t-193.5 75t-213 -94.5t-87 -224.5t69.5 -206t195.5 -76zM668.5 -18q-246.5 0 -387 141t-140.5 360q0 262 174 430t422 168t386.5 -139t138.5 -360q0 -264 -173.5 -432t-420 -168zM623 1128l-74 162l428 248l108 -221z" />
    <glyph glyph-name="ocircumflex.sc" horiz-adv-x="1253" 
d="M685 233q126 0 211 94.5t85 225.5t-67.5 206t-193.5 75t-213 -94.5t-87 -224.5t69.5 -206t195.5 -76zM737.5 1081q247.5 0 386 -139t138.5 -360q0 -264 -173.5 -432t-420 -168t-387 141t-140.5 360q0 262 174.5 430t422 168zM807 1319l-145 -160h-228l295 338h207
l192 -338h-223z" />
    <glyph glyph-name="odieresis.sc" horiz-adv-x="1253" 
d="M685 233q126 0 211 94.5t85 225.5t-67.5 206t-193.5 75t-213 -94.5t-87 -224.5t69.5 -206t195.5 -76zM668.5 -18q-246.5 0 -387 141t-140.5 360q0 262 174 430t422 168t386.5 -139t138.5 -360q0 -264 -173.5 -432t-420 -168zM1024.5 1176q-67.5 0 -109 37.5t-41.5 102.5
t48.5 112t114.5 47t107.5 -38t41.5 -104t-47 -111.5t-114.5 -45.5zM567.5 1176q-67.5 0 -108.5 37.5t-41 102.5t48 112t115.5 47t107.5 -38t40 -104t-47 -111.5t-114.5 -45.5z" />
    <glyph glyph-name="ograve.sc" horiz-adv-x="1253" 
d="M685 233q126 0 211 94.5t85 225.5t-67.5 206t-193.5 75t-213 -94.5t-87 -224.5t69.5 -206t195.5 -76zM668.5 -18q-246.5 0 -387 141t-140.5 360q0 262 174 430t422 168t386.5 -139t138.5 -360q0 -264 -173.5 -432t-420 -168zM965 1130l-455 187l106 221l431 -248z" />
    <glyph glyph-name="ohungarumlaut.sc" horiz-adv-x="1253" 
d="M685 233q126 0 211 94.5t85 225.5t-67.5 206t-193.5 75t-213 -94.5t-87 -224.5t69.5 -206t195.5 -76zM668.5 -18q-246.5 0 -387 141t-140.5 360q0 262 174 430t422 168t386.5 -139t138.5 -360q0 -264 -173.5 -432t-420 -168zM1018 1114l-152 86l176 387l213 -119z
M600 1114l-149 86l176 387l211 -119z" />
    <glyph glyph-name="omacron.sc" horiz-adv-x="1253" 
d="M685 233q126 0 211 94.5t85 225.5t-67.5 206t-193.5 75t-213 -94.5t-87 -224.5t69.5 -206t195.5 -76zM668.5 -18q-246.5 0 -387 141t-140.5 360q0 262 174 430t422 168t386.5 -139t138.5 -360q0 -264 -173.5 -432t-420 -168zM492 1214l30 207h608l-28 -207h-610z" />
    <glyph glyph-name="uni01EB.sc" horiz-adv-x="1253" 
d="M420 515q0 -130 69.5 -206t195.5 -76t211 94.5t85 225.5t-67.5 206t-193.5 75t-213 -94.5t-87 -224.5zM656.5 -307q33.5 0 68.5 26l68 -143q-78 -63 -184.5 -63t-167 51t-60.5 149q0 158 154 279q-182 37 -288 171t-106 320q0 262 174 430t422 168t386.5 -139
t138.5 -370.5t-146 -393t-377 -190.5q-160 -100 -159 -205q0 -43 21.5 -66.5t55 -23.5z" />
    <glyph glyph-name="oslash.sc" horiz-adv-x="1253" 
d="M981 569q0 66 -20 113l-375 -434q51 -14 96 -15q129 0 214 94.5t85 241.5zM420 498q0 -61 22 -119l381 438q-45 16 -96 17q-133 0 -220 -94.5t-87 -241.5zM653 -18q-137 0 -252 55l-118 -137l-150 123l117 135q-109 133 -109 325q0 262 174 430t439 168q137 0 252 -55
l118 137l146 -123l-115 -133q106 -133 107 -325q0 -264 -173.5 -432t-435.5 -168z" />
    <glyph glyph-name="oslashacute.sc" horiz-adv-x="1253" 
d="M981 569q0 66 -20 113l-375 -434q51 -14 96 -15q129 0 214 94.5t85 241.5zM420 498q0 -61 22 -119l381 438q-45 16 -96 17q-133 0 -220 -94.5t-87 -241.5zM653 -18q-137 0 -252 55l-118 -137l-150 123l117 135q-109 133 -109 325q0 262 174 430t439 168q137 0 252 -55
l118 137l146 -123l-115 -133q106 -133 107 -325q0 -264 -173.5 -432t-435.5 -168zM1085 1317l-462 -189l-74 162l428 248z" />
    <glyph glyph-name="otilde.sc" horiz-adv-x="1253" 
d="M685 233q126 0 211 94.5t85 225.5t-67.5 206t-193.5 75t-213 -94.5t-87 -224.5t69.5 -206t195.5 -76zM668.5 -18q-246.5 0 -387 141t-140.5 360q0 262 174 430t422 168t386.5 -139t138.5 -360q0 -264 -173.5 -432t-420 -168zM920.5 1180q-66.5 0 -140 37.5t-117.5 37.5
t-73 -25.5t-35 -47.5l-156 127q45 113 147 157q50 22 113.5 21.5t143.5 -39.5t125 -39t73.5 27.5t32.5 54.5l154 -123q-12 -42 -54 -89.5t-94.5 -73t-119 -25.5z" />
    <glyph glyph-name="oe.sc" horiz-adv-x="1763" 
d="M685 233q126 0 211 94.5t85 225.5t-67.5 206t-193.5 75t-213 -94.5t-87 -224.5t69.5 -206t195.5 -76zM653 -18q-231 0 -371.5 141t-140.5 360q0 262 174 430t439 168q184 0 315 -92l10 74h740l-31 -223h-483l-27 -195h422l-31 -215h-422l-28 -205h481l-31 -225h-739l6 43
q-133 -61 -283 -61z" />
    <glyph glyph-name="p.sc" horiz-adv-x="1015" 
d="M588 502q98 0 154 56t56 133t-43 116q-44 39 -120 39h-127l-49 -344h129zM682 1063q176 0 275 -92t100 -250q-1 -197 -141 -317t-363 -119l-125 -2l-39 -283h-254l150 1063h397z" />
    <glyph glyph-name="thorn.sc" horiz-adv-x="1021" 
d="M561 371q92 0 151 52q58 52 58 130q0 152 -164 152h-102l-47 -334h104zM662 938q170 0 271 -97t101 -251q0 -201 -137 -327t-350 -126h-123l-18 -137h-273l150 1063h272l-18 -125h125z" />
    <glyph glyph-name="q.sc" horiz-adv-x="1253" 
d="M420 515q0 -130 69.5 -206t195.5 -76t211 94.5t85 225.5t-67.5 206t-193.5 75t-213 -94.5t-87 -224.5zM1262 582q0 -313 -238 -488l203 -180l-160 -180l-291 258q-66 -10 -123 -10q-231 0 -371.5 141t-140.5 360q0 262 174 430t422 168t386.5 -139t138.5 -360z" />
    <glyph glyph-name="r.sc" horiz-adv-x="1073" 
d="M602 500q96 0 153.5 53t57.5 133q0 162 -166 162h-139l-49 -348h143zM1077 732q0 -276 -243 -394l186 -338h-295l-145 283h-152l-39 -283h-254l150 1063h413q176 0 277.5 -94.5t101.5 -236.5z" />
    <glyph glyph-name="racute.sc" horiz-adv-x="1073" 
d="M602 500q96 0 153.5 53t57.5 133q0 162 -166 162h-139l-49 -348h143zM1077 732q0 -276 -243 -394l186 -338h-295l-145 283h-152l-39 -283h-254l150 1063h413q176 0 277.5 -94.5t101.5 -236.5zM969 1317l-463 -189l-74 162l428 248z" />
    <glyph glyph-name="rcaron.sc" horiz-adv-x="1073" 
d="M602 500q96 0 153.5 53t57.5 133q0 162 -166 162h-139l-49 -348h143zM1077 732q0 -276 -243 -394l186 -338h-295l-145 283h-152l-39 -283h-254l150 1063h413q176 0 277.5 -94.5t101.5 -236.5zM768 1159h-205l-198 338h223l102 -162l141 162h228z" />
    <glyph glyph-name="rcommaaccent.sc" horiz-adv-x="1073" 
d="M518.5 -92q70.5 0 107 -39t36.5 -105q0 -104 -73 -204.5t-188 -151.5l-59 82q117 80 123 129q-6 -2 -35 -2t-56.5 30.5t-27.5 94.5t51 115t121.5 51zM602 500q96 0 153.5 53t57.5 133q0 162 -166 162h-139l-49 -348h143zM1077 732q0 -276 -243 -394l186 -338h-295
l-145 283h-152l-39 -283h-254l150 1063h413q176 0 277.5 -94.5t101.5 -236.5z" />
    <glyph glyph-name="s.sc" horiz-adv-x="940" 
d="M467 -18q-250 0 -399 129l147 204q127 -104 278.5 -104t151.5 104q0 37 -38 65q-39 28 -159 66q-248 79 -247 281q0 158 122.5 256t331.5 98t344 -116l-137 -195q-113 84 -254 84t-141 -92q0 -34 36 -54q35 -20 157 -59q248 -80 249 -287q0 -176 -119.5 -278t-322.5 -102
z" />
    <glyph glyph-name="sacute.sc" horiz-adv-x="940" 
d="M467 -18q-250 0 -399 129l147 204q127 -104 278.5 -104t151.5 104q0 37 -38 65q-39 28 -159 66q-248 79 -247 281q0 158 122.5 256t331.5 98t344 -116l-137 -195q-113 84 -254 84t-141 -92q0 -34 36 -54q35 -20 157 -59q248 -80 249 -287q0 -176 -119.5 -278t-322.5 -102
zM487 1128l-73 162l428 248l108 -221z" />
    <glyph glyph-name="scaron.sc" horiz-adv-x="940" 
d="M608.5 854q-141.5 0 -141.5 -92q0 -34 36 -54q35 -20 157 -59q248 -80 249 -287q0 -176 -119.5 -278t-322.5 -102q-250 0 -399 129l147 204q127 -104 278.5 -104t151.5 104q0 37 -38 65q-39 28 -159 66q-248 79 -247 281q0 158 122.5 256t331.5 98t344 -116l-137 -195
q-112 84 -253.5 84zM750 1159h-205l-199 338h223l103 -162l141 162h227z" />
    <glyph glyph-name="scedilla.sc" horiz-adv-x="940" 
d="M909 362q0 -160 -101 -260t-276 -116l-36 -76q78 -8 125 -56.5t47 -121.5q0 -106 -76 -173t-209 -67q-70 0 -129 25.5t-84 50.5l74 117q61 -49 126.5 -50.5t91 25.5t25.5 68q0 76 -108 75q-27 0 -60 -6l-18 31l76 158q-188 23 -309 125l147 204q127 -104 278.5 -104
t151.5 104q0 37 -38 65q-39 28 -159 66q-248 79 -247 281q0 158 122.5 256t331.5 98t344 -116l-137 -195q-113 84 -254 84t-141 -92q0 -34 36 -54q35 -20 157 -59q248 -80 249 -287z" />
    <glyph glyph-name="scommaaccent.sc" horiz-adv-x="940" 
d="M348 -383q-29 0 -56.5 30.5t-27.5 94.5t51.5 115t121.5 51t106.5 -39t36.5 -105q0 -104 -73 -204.5t-188 -151.5l-59 82q117 80 123 129q-6 -2 -35 -2zM467 -18q-250 0 -399 129l147 204q127 -104 278.5 -104t151.5 104q0 37 -38 65q-39 28 -159 66q-248 79 -247 281
q0 158 122.5 256t331.5 98t344 -116l-137 -195q-113 84 -254 84t-141 -92q0 -34 36 -54q35 -20 157 -59q248 -80 249 -287q0 -176 -119.5 -278t-322.5 -102z" />
    <glyph glyph-name="germandbls.sc" horiz-adv-x="1163" 
d="M1151 356q0 -158 -115 -263q-116 -105 -276 -105t-244 53l119 217q63 -35 127 -35t97 34q32 34 32 87q0 88 -98 88h-158l29 203l172 190h-152q-82 0 -137 -46t-66 -117l-94 -662h-266l92 662q59 403 504 403h442l-29 -209l-196 -229q98 -20 158 -93t59 -178z" />
    <glyph glyph-name="t.sc" horiz-adv-x="1007" 
d="M1122 1063l-32 -232h-338l-117 -831h-268l116 831h-331l32 232h938z" />
    <glyph glyph-name="tbar.sc" horiz-adv-x="1007" 
d="M1090 831h-338l-33 -239h225l-26 -182h-226l-57 -410h-268l57 410h-225l26 182h226l32 239h-331l32 232h938z" />
    <glyph glyph-name="tcaron.sc" horiz-adv-x="1007" 
d="M1122 1063l-32 -232h-338l-117 -831h-268l116 831h-331l32 232h938zM758 1159h-205l-199 338h224l102 -162l141 162h228z" />
    <glyph glyph-name="uni0163.sc" horiz-adv-x="1007" 
d="M719 -268q0 -106 -76 -173t-209 -67q-70 0 -129 25.5t-84 50.5l74 117q61 -49 126.5 -50.5t91.5 25.5t26 68q0 76 -109 75q-27 0 -59 -6l-19 31l82 172h-67l116 831h-331l32 232h938l-32 -232h-338l-117 -831h-43l-45 -90q78 -8 125 -56.5t47 -121.5z" />
    <glyph glyph-name="uni021B.sc" horiz-adv-x="1007" 
d="M487.5 -92q69.5 0 106.5 -39t37 -105q0 -104 -73 -204.5t-187 -151.5l-60 82q117 80 123 129q-6 -2 -34.5 -2t-56.5 30.5t-28 94.5t51.5 115t121 51zM1122 1063l-32 -232h-338l-117 -831h-268l116 831h-331l32 232h938z" />
    <glyph glyph-name="u.sc" horiz-adv-x="1185" 
d="M587 -18q-220 0 -328.5 127t-76.5 362l84 592h269l-86 -610q-14 -94 29.5 -162t147 -68t165 67.5t75.5 162.5l84 610h267l-84 -592q-33 -236 -179.5 -362.5t-366.5 -126.5z" />
    <glyph glyph-name="uacute.sc" horiz-adv-x="1185" 
d="M587 -18q-220 0 -328.5 127t-76.5 362l84 592h269l-86 -610q-14 -94 29.5 -162t147 -68t165 67.5t75.5 162.5l84 610h267l-84 -592q-33 -236 -179.5 -362.5t-366.5 -126.5zM598 1128l-74 162l428 248l109 -221z" />
    <glyph glyph-name="ucircumflex.sc" horiz-adv-x="1185" 
d="M587 -18q-220 0 -328.5 127t-76.5 362l84 592h269l-86 -610q-14 -94 29.5 -162t147 -68t165 67.5t75.5 162.5l84 610h267l-84 -592q-33 -236 -179.5 -362.5t-366.5 -126.5zM782 1319l-145 -160h-227l295 338h206l193 -338h-223z" />
    <glyph glyph-name="udieresis.sc" horiz-adv-x="1185" 
d="M587 -18q-220 0 -328.5 127t-76.5 362l84 592h269l-86 -610q-14 -94 29.5 -162t147 -68t165 67.5t75.5 162.5l84 610h267l-84 -592q-33 -236 -179.5 -362.5t-366.5 -126.5zM999.5 1176q-67.5 0 -108.5 37.5t-41 102.5t48 112t114.5 47t107.5 -38t41 -104t-47 -111.5
t-114.5 -45.5zM543.5 1176q-67.5 0 -109 37.5t-41.5 102.5t48 112t115.5 47t108 -38t40.5 -104t-47 -111.5t-114.5 -45.5z" />
    <glyph glyph-name="ugrave.sc" horiz-adv-x="1185" 
d="M587 -18q-220 0 -328.5 127t-76.5 362l84 592h269l-86 -610q-14 -94 29.5 -162t147 -68t165 67.5t75.5 162.5l84 610h267l-84 -592q-33 -236 -179.5 -362.5t-366.5 -126.5zM940 1130l-455 187l107 221l430 -248z" />
    <glyph glyph-name="uhungarumlaut.sc" horiz-adv-x="1185" 
d="M587 -18q-220 0 -328.5 127t-76.5 362l84 592h269l-86 -610q-14 -94 29.5 -162t147 -68t165 67.5t75.5 162.5l84 610h267l-84 -592q-33 -236 -179.5 -362.5t-366.5 -126.5zM993 1114l-151 86l176 387l213 -119zM575 1114l-149 86l176 387l211 -119z" />
    <glyph glyph-name="umacron.sc" horiz-adv-x="1185" 
d="M587 -18q-220 0 -328.5 127t-76.5 362l84 592h269l-86 -610q-14 -94 29.5 -162t147 -68t165 67.5t75.5 162.5l84 610h267l-84 -592q-33 -236 -179.5 -362.5t-366.5 -126.5zM467 1214l31 207h608l-29 -207h-610z" />
    <glyph glyph-name="uogonek.sc" horiz-adv-x="1185" 
d="M532 -215q0 -45 21.5 -68.5t55.5 -23.5t69 26l67 -143q-78 -63 -184 -63t-166.5 51t-60.5 149q0 152 149 277q-170 31 -249.5 153.5t-51.5 327.5l84 592h269l-86 -610q-14 -94 29.5 -162t147 -68t165 67.5t75.5 162.5l84 610h267l-84 -592q-29 -203 -144 -327t-291 -154
q-79 -43 -122.5 -101.5t-43.5 -103.5z" />
    <glyph glyph-name="uring.sc" horiz-adv-x="1185" 
d="M587 -18q-220 0 -328.5 127t-76.5 362l84 592h269l-86 -610q-14 -94 29.5 -162t147 -68t165 67.5t75.5 162.5l84 610h267l-84 -592q-33 -236 -179.5 -362.5t-366.5 -126.5zM785 1255q36 0 61.5 30t25.5 70q0 83 -69 83q-41 0 -67.5 -29t-26.5 -69t20 -62.5t56 -22.5z
M775.5 1114q-105.5 0 -165 57.5t-59.5 159t75.5 174t180 72.5t164 -57.5t59.5 -161t-74.5 -174t-180 -70.5z" />
    <glyph glyph-name="utilde.sc" horiz-adv-x="1185" 
d="M587 -18q-220 0 -328.5 127t-76.5 362l84 592h269l-86 -610q-14 -94 29.5 -162t147 -68t165 67.5t75.5 162.5l84 610h267l-84 -592q-33 -236 -179.5 -362.5t-366.5 -126.5zM375 1309q71 178 260 178q64 0 143.5 -39t124.5 -39t74 27.5t33 54.5l153 -123
q-12 -42 -54 -89.5t-94.5 -73t-119 -25.5t-140 37.5t-117.5 37.5t-72.5 -25.5t-35.5 -47.5z" />
    <glyph glyph-name="v.sc" horiz-adv-x="1064" 
d="M911 1063h291l-575 -1063h-183l-280 1063h297l119 -553l16 -109l45 109z" />
    <glyph glyph-name="w.sc" horiz-adv-x="1503" 
d="M1380 1063h250l-467 -1063h-188l-131 694l-334 -694h-191l-169 1063h270l49 -488l23 -204l92 204l229 490h168l96 -490l35 -221l86 221z" />
    <glyph glyph-name="wacute.sc" horiz-adv-x="1503" 
d="M1380 1063h250l-467 -1063h-188l-131 694l-334 -694h-191l-169 1063h270l49 -488l23 -204l92 204l229 490h168l96 -490l35 -221l86 221zM1204 1317l-463 -189l-73 162l428 248z" />
    <glyph glyph-name="wcircumflex.sc" horiz-adv-x="1503" 
d="M1380 1063h250l-467 -1063h-188l-131 694l-334 -694h-191l-169 1063h270l49 -488l23 -204l92 204l229 490h168l96 -490l35 -221l86 221zM926 1319l-146 -160h-227l295 338h207l192 -338h-223z" />
    <glyph glyph-name="wdieresis.sc" horiz-adv-x="1503" 
d="M1380 1063h250l-467 -1063h-188l-131 694l-334 -694h-191l-169 1063h270l49 -488l23 -204l92 204l229 490h168l96 -490l35 -221l86 221zM1143.5 1176q-67.5 0 -109 37.5t-41.5 102.5t48.5 112t114.5 47t107.5 -38t41.5 -104t-47 -111.5t-114.5 -45.5zM686.5 1176
q-67.5 0 -108.5 37.5t-41 102.5t48 112t115.5 47t107.5 -38t40 -104t-47 -111.5t-114.5 -45.5z" />
    <glyph glyph-name="wgrave.sc" horiz-adv-x="1503" 
d="M1380 1063h250l-467 -1063h-188l-131 694l-334 -694h-191l-169 1063h270l49 -488l23 -204l92 204l229 490h168l96 -490l35 -221l86 221zM1165 1290l-82 -160l-454 187l106 221z" />
    <glyph glyph-name="x.sc" horiz-adv-x="1097" 
d="M1208 1063l-422 -514l291 -549h-317l-174 350l-258 -350h-314l445 545l-277 518h316l155 -328l246 328h309z" />
    <glyph glyph-name="y.sc" horiz-adv-x="1067" 
d="M1196 1063l-467 -643l-59 -420h-271l58 414l-283 649h315l146 -385l254 385h307z" />
    <glyph glyph-name="yacute.sc" horiz-adv-x="1067" 
d="M1196 1063l-467 -643l-59 -420h-271l58 414l-283 649h315l146 -385l254 385h307zM1004 1317l-463 -189l-74 162l428 248z" />
    <glyph glyph-name="ycircumflex.sc" horiz-adv-x="1067" 
d="M1196 1063l-467 -643l-59 -420h-271l58 414l-283 649h315l146 -385l254 385h307zM725 1319l-145 -160h-228l295 338h207l193 -338h-224z" />
    <glyph glyph-name="ydieresis.sc" horiz-adv-x="1067" 
d="M1196 1063l-467 -643l-59 -420h-271l58 414l-283 649h315l146 -385l254 385h307zM942.5 1176q-67.5 0 -108.5 37.5t-41 102.5t48 112t114 47t107.5 -38t41.5 -104t-47 -111.5t-114.5 -45.5zM485.5 1176q-67.5 0 -108.5 37.5t-41 102.5t48 112t115.5 47t107.5 -38t40 -104
t-47 -111.5t-114.5 -45.5z" />
    <glyph glyph-name="ygrave.sc" horiz-adv-x="1067" 
d="M1196 1063l-467 -643l-59 -420h-271l58 414l-283 649h315l146 -385l254 385h307zM965 1290l-82 -160l-455 187l107 221z" />
    <glyph glyph-name="uni1EF9.sc" horiz-adv-x="1067" 
d="M1196 1063l-467 -643l-59 -420h-271l58 414l-283 649h315l146 -385l254 385h307zM581 1255q-44 0 -73 -25.5t-35 -47.5l-156 127q45 113 147 157q50 22 113.5 21.5t143.5 -39.5t125 -39t73.5 27.5t32.5 54.5l154 -123q-12 -42 -54 -89q-87 -99 -208 -99
q-72 0 -145.5 37.5t-117.5 37.5z" />
    <glyph glyph-name="z.sc" horiz-adv-x="1034" 
d="M1090 1063l-23 -164l-616 -666h534l-33 -233h-874l22 166l607 665h-502l33 232h852z" />
    <glyph glyph-name="zacute.sc" horiz-adv-x="1034" 
d="M1090 1063l-23 -164l-616 -666h534l-33 -233h-874l22 166l607 665h-502l33 232h852zM973 1317l-463 -189l-74 162l428 248z" />
    <glyph glyph-name="zcaron.sc" horiz-adv-x="1034" 
d="M1090 1063l-23 -164l-616 -666h534l-33 -233h-874l22 166l607 665h-502l33 232h852zM772 1159h-205l-198 338h223l102 -162l142 162h227z" />
    <glyph glyph-name="zdotaccent.sc" horiz-adv-x="1034" 
d="M1090 1063l-23 -164l-616 -666h534l-33 -233h-874l22 166l607 665h-502l33 232h852zM690 1171q-74 0 -118 41t-44 112t53.5 122t125.5 51t115.5 -40t43.5 -111.5t-51 -123t-125 -51.5z" />
    <glyph glyph-name="a.sc.ss01" horiz-adv-x="1140" 
d="M689 836q-95 0 -148.5 -61.5t-65.5 -151.5l-18 -129h366l19 129q12 90 -23 151.5t-130 61.5zM722 1081q214 0 315.5 -123.5t68.5 -361.5l-84 -596h-268l41 287h-367l-41 -287h-266l84 596q33 238 168 361.5t349 123.5z" />
    <glyph glyph-name="aacute.sc.ss01" horiz-adv-x="1140" 
d="M689 836q-95 0 -148.5 -61.5t-65.5 -151.5l-18 -129h366l19 129q12 90 -23 151.5t-130 61.5zM722 1081q214 0 315.5 -123.5t68.5 -361.5l-84 -596h-268l41 287h-367l-41 -287h-266l84 596q33 238 168 361.5t349 123.5zM1024 1317l-463 -189l-74 162l428 248z" />
    <glyph glyph-name="abreve.sc.ss01" horiz-adv-x="1140" 
d="M689 836q-95 0 -148.5 -61.5t-65.5 -151.5l-18 -129h366l19 129q12 90 -23 151.5t-130 61.5zM722 1081q214 0 315.5 -123.5t68.5 -361.5l-84 -596h-268l41 287h-367l-41 -287h-266l84 596q33 238 168 361.5t349 123.5zM729 1161q-141 0 -217 89t-53 237h205
q-10 -66 14 -106t76.5 -40t88.5 39t46 107h205q-20 -147 -122 -236.5t-243 -89.5z" />
    <glyph glyph-name="acircumflex.sc.ss01" horiz-adv-x="1140" 
d="M689 836q-95 0 -148.5 -61.5t-65.5 -151.5l-18 -129h366l19 129q12 90 -23 151.5t-130 61.5zM722 1081q214 0 315.5 -123.5t68.5 -361.5l-84 -596h-268l41 287h-367l-41 -287h-266l84 596q33 238 168 361.5t349 123.5zM745 1319l-145 -160h-227l295 338h206l193 -338
h-223z" />
    <glyph glyph-name="adieresis.sc.ss01" horiz-adv-x="1140" 
d="M689 836q-95 0 -148.5 -61.5t-65.5 -151.5l-18 -129h366l19 129q12 90 -23 151.5t-130 61.5zM722 1081q214 0 315.5 -123.5t68.5 -361.5l-84 -596h-268l41 287h-367l-41 -287h-266l84 596q33 238 168 361.5t349 123.5zM962.5 1176q-67.5 0 -108.5 37.5t-41 102.5t48 112
t114.5 47t107.5 -38t41 -104t-47 -111.5t-114.5 -45.5zM506.5 1176q-67.5 0 -109 37.5t-41.5 102.5t48.5 112t115.5 47t107.5 -38t40.5 -104t-47 -111.5t-114.5 -45.5z" />
    <glyph glyph-name="agrave.sc.ss01" horiz-adv-x="1140" 
d="M689 836q-95 0 -148.5 -61.5t-65.5 -151.5l-18 -129h366l19 129q12 90 -23 151.5t-130 61.5zM722 1081q214 0 315.5 -123.5t68.5 -361.5l-84 -596h-268l41 287h-367l-41 -287h-266l84 596q33 238 168 361.5t349 123.5zM985 1290l-82 -160l-454 187l106 221z" />
    <glyph glyph-name="amacron.sc.ss01" horiz-adv-x="1140" 
d="M689 836q-95 0 -148.5 -61.5t-65.5 -151.5l-18 -129h366l19 129q12 90 -23 151.5t-130 61.5zM722 1081q214 0 315.5 -123.5t68.5 -361.5l-84 -596h-268l41 287h-367l-41 -287h-266l84 596q33 238 168 361.5t349 123.5zM1069 1421l-29 -207h-610l31 207h608z" />
    <glyph glyph-name="aogonek.sc.ss01" horiz-adv-x="1140" 
d="M689 836q-95 0 -148.5 -61.5t-65.5 -151.5l-18 -129h366l19 129q12 90 -23 151.5t-130 61.5zM838 -220q0 -40 21.5 -63.5t55 -23.5t68.5 26l68 -143q-78 -63 -184.5 -63t-167 51t-60.5 149q0 158 162 287h-47l41 287h-367l-41 -287h-266l84 596q33 238 168 361.5
t349 123.5t315.5 -123.5t68.5 -361.5l-84 -596q-8 -4 -20.5 -10t-44 -28.5t-56 -46.5t-44 -59.5t-19.5 -75.5z" />
    <glyph glyph-name="aring.sc.ss01" horiz-adv-x="1140" 
d="M689 836q-95 0 -148.5 -61.5t-65.5 -151.5l-18 -129h366l19 129q12 90 -23 151.5t-130 61.5zM722 1081q214 0 315.5 -123.5t68.5 -361.5l-84 -596h-268l41 287h-367l-41 -287h-266l84 596q33 238 168 361.5t349 123.5zM836 1360q0 78 -74 78q-37 0 -63.5 -29t-26.5 -69
t20.5 -62.5t56 -22.5t61.5 30t26 75zM738.5 1114q-105.5 0 -165 57.5t-59.5 159t76 174t180 72.5t163.5 -57.5t59.5 -161t-74.5 -174t-180 -70.5z" />
    <glyph glyph-name="atilde.sc.ss01" horiz-adv-x="1140" 
d="M689 836q-95 0 -148.5 -61.5t-65.5 -151.5l-18 -129h366l19 129q12 90 -23 151.5t-130 61.5zM722 1081q214 0 315.5 -123.5t68.5 -361.5l-84 -596h-268l41 287h-367l-41 -287h-266l84 596q33 238 168 361.5t349 123.5zM338 1309q70 178 260 178q64 0 143.5 -39t124.5 -39
t74 27.5t33 54.5l153 -123q-13 -44 -54 -91q-88 -97 -208 -97q-72 0 -145.5 37.5t-117.5 37.5t-72.5 -25.5t-34.5 -47.5z" />
    <glyph glyph-name="r.sc.ss01" horiz-adv-x="1087" 
d="M600 500q92 0 149.5 54t57.5 132t-43 120t-121 42h-135l-49 -348h141zM1003 190q34 0 48 3l-27 -195q-61 -16 -140 -16t-144.5 46t-94.5 102t-61.5 103.5t-65.5 49.5h-90l-39 -283h-254l150 1063h401q178 0 281.5 -95.5t103.5 -235.5t-63 -238.5t-174 -153.5
q25 -18 52 -59t55 -66t62 -25z" />
    <glyph glyph-name="racute.sc.ss01" horiz-adv-x="1087" 
d="M600 500q92 0 149.5 54t57.5 132t-43 120t-121 42h-135l-49 -348h141zM1003 190q34 0 48 3l-27 -195q-61 -16 -140 -16t-144.5 46t-94.5 102t-61.5 103.5t-65.5 49.5h-90l-39 -283h-254l150 1063h401q178 0 281.5 -95.5t103.5 -235.5t-63 -238.5t-174 -153.5
q25 -18 52 -59t55 -66t62 -25zM965 1317l-463 -189l-74 162l428 248z" />
    <glyph glyph-name="rcaron.sc.ss01" horiz-adv-x="1087" 
d="M600 500q92 0 149.5 54t57.5 132t-43 120t-121 42h-135l-49 -348h141zM1003 190q34 0 48 3l-27 -195q-61 -16 -140 -16t-144.5 46t-94.5 102t-61.5 103.5t-65.5 49.5h-90l-39 -283h-254l150 1063h401q178 0 281.5 -95.5t103.5 -235.5t-63 -238.5t-174 -153.5
q25 -18 52 -59t55 -66t62 -25zM764 1159h-205l-199 338h224l102 -162l141 162h228z" />
    <glyph glyph-name="rcommaaccent.sc.ss01" horiz-adv-x="1087" 
d="M519.5 -92q69.5 0 107 -39t37.5 -105q0 -104 -73 -204.5t-188 -151.5l-59 82q117 80 123 129q-6 -2 -35 -2t-56.5 30.5t-27.5 94.5t51 115t120.5 51zM600 500q92 0 149.5 54t57.5 132t-43 120t-121 42h-135l-49 -348h141zM1003 190q34 0 48 3l-27 -195q-61 -16 -140 -16
t-144.5 46t-94.5 102t-61.5 103.5t-65.5 49.5h-90l-39 -283h-254l150 1063h401q178 0 281.5 -95.5t103.5 -235.5t-63 -238.5t-174 -153.5q25 -18 52 -59t55 -66t62 -25z" />
    <glyph glyph-name="y.sc.ss01" horiz-adv-x="1075" 
d="M615 545q95 0 150.5 62.5t68.5 150.5l43 305h266l-39 -279q-27 -197 -128.5 -316.5t-258.5 -154.5l-45 -313h-266l45 313q-150 35 -217.5 155t-40.5 316l38 279h267l-43 -305q-12 -88 26.5 -150.5t133.5 -62.5z" />
    <glyph glyph-name="yacute.sc.ss01" horiz-adv-x="1075" 
d="M615 545q95 0 150.5 62.5t68.5 150.5l43 305h266l-39 -279q-27 -197 -128.5 -316.5t-258.5 -154.5l-45 -313h-266l45 313q-150 35 -217.5 155t-40.5 316l38 279h267l-43 -305q-12 -88 26.5 -150.5t133.5 -62.5zM989 1317l-463 -189l-73 162l428 248z" />
    <glyph glyph-name="ycircumflex.sc.ss01" horiz-adv-x="1075" 
d="M615 545q95 0 150.5 62.5t68.5 150.5l43 305h266l-39 -279q-27 -197 -128.5 -316.5t-258.5 -154.5l-45 -313h-266l45 313q-150 35 -217.5 155t-40.5 316l38 279h267l-43 -305q-12 -88 26.5 -150.5t133.5 -62.5zM711 1319l-146 -160h-227l295 338h207l192 -338h-223z" />
    <glyph glyph-name="ydieresis.sc.ss01" horiz-adv-x="1075" 
d="M615 545q95 0 150.5 62.5t68.5 150.5l43 305h266l-39 -279q-27 -197 -128.5 -316.5t-258.5 -154.5l-45 -313h-266l45 313q-150 35 -217.5 155t-40.5 316l38 279h267l-43 -305q-12 -88 26.5 -150.5t133.5 -62.5zM928.5 1176q-67.5 0 -109 37.5t-41.5 102.5t48 112
t114.5 47t108 -38t41.5 -104t-47 -111.5t-114.5 -45.5zM471.5 1176q-67.5 0 -108.5 37.5t-41 102.5t48 112t115 47t107.5 -38t40.5 -104t-47 -111.5t-114.5 -45.5z" />
    <glyph glyph-name="ygrave.sc.ss01" horiz-adv-x="1075" 
d="M615 545q95 0 150.5 62.5t68.5 150.5l43 305h266l-39 -279q-27 -197 -128.5 -316.5t-258.5 -154.5l-45 -313h-266l45 313q-150 35 -217.5 155t-40.5 316l38 279h267l-43 -305q-12 -88 26.5 -150.5t133.5 -62.5zM950 1290l-82 -160l-454 187l106 221z" />
    <glyph glyph-name="uni1EF9.sc.ss01" horiz-adv-x="1075" 
d="M615 545q95 0 150.5 62.5t68.5 150.5l43 305h266l-39 -279q-27 -197 -128.5 -316.5t-258.5 -154.5l-45 -313h-266l45 313q-150 35 -217.5 155t-40.5 316l38 279h267l-43 -305q-12 -88 26.5 -150.5t133.5 -62.5zM303 1309q71 178 261 178q64 0 143 -39t124 -39t74 27.5
t33 54.5l154 -123q-12 -43 -55 -90q-88 -98 -208 -98q-72 0 -145.5 37.5t-117.5 37.5t-72.5 -25.5t-34.5 -47.5z" />
    <glyph glyph-name="seven.ss01" horiz-adv-x="1028" 
d="M174 0l287 522h-199l33 230h291l245 444h-624l35 244h944l-17 -127l-309 -561h166l-33 -230h-258l-289 -522h-272z" />
    <glyph glyph-name="zero.sc" horiz-adv-x="1112" 
d="M594 207q120 -1 194 107t74 290q0 121 -48 188t-136 66q-119 0 -199 -103t-80 -290q1 -123 53 -191t142 -67zM559 -18q-188 0 -300 124t-112 338q0 285 161 461t401 176q190 0 298 -125t107 -333q0 -285 -156 -463t-399 -178z" />
    <glyph glyph-name="one.sc" horiz-adv-x="720" 
d="M565 1063h154l-150 -1063h-254l109 770l-225 -72l-52 217z" />
    <glyph glyph-name="two.sc" horiz-adv-x="927" 
d="M641 686q-1 160 -191 160q-100 0 -198 -55l-51 204q141 86 333 86t286 -89q95 -89 95 -234q0 -109 -47 -198t-159 -200q-78 -74 -166 -127h331l-32 -233h-752l25 174q217 133 315 211t155 151q56 72 56 150z" />
    <glyph glyph-name="three.sc" horiz-adv-x="892" 
d="M621 358q0 124 -149 124q-77 0 -150 -27l-62 129l303 260h-360l30 219h693l-23 -162l-293 -244q135 -7 202 -79t67 -193q0 -170 -125 -287q-124 -116 -346 -116t-345 90l111 182q112 -64 224 -64q220 0 223 168z" />
    <glyph glyph-name="four.sc" horiz-adv-x="952" 
d="M961 424l-31 -221h-101l-28 -203h-250l29 203h-510l22 164l367 723l211 -80l-291 -586h231l49 348h250l-49 -348h101z" />
    <glyph glyph-name="five.sc" horiz-adv-x="901" 
d="M895 395q0 -193 -133 -303t-333 -110t-355 102l110 188q143 -84 246 -84t156 46t53 124q0 117 -137 121q-106 0 -207 -53l-98 70l79 567h656l-31 -219h-414l-26 -189q66 16 147 17q133 -2 210 -74t77 -203z" />
    <glyph glyph-name="six.sc" horiz-adv-x="933" 
d="M516 180q82 0 133 52t51 128t-42 118q-42 40 -116 40t-129 -44t-59 -122t38 -125t124 -47zM934 374q0 -162 -125 -277q-125 -113 -305 -113t-282 95q-101 95 -101 247q0 240 165 438t486 328l92 -179q-266 -109 -385 -247q78 30 148 30q131 4 219 -78t88 -244z" />
    <glyph glyph-name="seven.sc" horiz-adv-x="845" 
d="M152 0l483 836h-473l33 227h774l-17 -111l-546 -952h-254z" />
    <glyph glyph-name="eight.sc" horiz-adv-x="991" 
d="M383 295q0 -119 145 -119q72 0 121 42t49 108q0 130 -137 129q-76 0 -127 -43t-51 -117zM467 767q1 -112 129 -112q60 0 102 38q42 39 43 95q0 112 -116 111q-70 0 -114 -38t-44 -94zM510 -16q-190 0 -292 76q-101 76 -101 192q0 227 215 317q-109 53 -109 193t119 231
q119 92 292 92q173 1 267 -73t94 -191q0 -83 -46 -149t-130 -101q141 -67 141 -227t-130 -260t-320 -100z" />
    <glyph glyph-name="nine.sc" horiz-adv-x="933" 
d="M567 887q-80 1 -131 -51t-51 -128t42 -118t117 -43q75 0 127 43t56 125q8 76 -36 124t-124 48zM578 1083q182 0 283 -97t102 -253q0 -235 -164 -431t-486 -327l-92 177q268 113 385 251q-78 -33 -149 -32q-135 -4 -221 81q-86 86 -86 248t122 273q124 110 306 110z" />
    <glyph glyph-name="braceleft.sc" horiz-adv-x="641" 
d="M186 424h-55l29 201h55q57 0 66 73l32 226q45 309 410 309l-29 -205q-137 0 -155 -154l-25 -165q-16 -127 -125 -185q92 -53 74 -182l-25 -166q-23 -156 115 -156l-29 -202q-174 0 -260 74t-63 233l32 225q8 74 -47 74z" />
    <glyph glyph-name="braceright.sc" horiz-adv-x="641" 
d="M571 424q-55 0 -63 -72l-33 -225q-42 -309 -409 -309l28 205q133 0 156 153l24 166q14 125 123 184q-90 53 -71 183l22 165q23 154 -112 154l28 205q174 0 261 -75t63 -234l-31 -226q-12 -72 45 -71h57l-30 -203h-58z" />
    <glyph glyph-name="bracketleft.sc" horiz-adv-x="716" 
d="M776 971h-246l-124 -901h245l-30 -217h-484l189 1335h481z" />
    <glyph glyph-name="bracketright.sc" horiz-adv-x="718" 
d="M244 1188h483l-188 -1335h-482l31 217h248l127 901h-250z" />
    <glyph glyph-name="exclam.sc" horiz-adv-x="557" 
d="M296 -18q-71 0 -113 38t-42 108q0 69 50 119t120 50t112 -40q42 -41 42 -109t-49 -117t-120 -49zM238 440l47 684h307l-152 -684h-202z" />
    <glyph glyph-name="exclamdown.sc" horiz-adv-x="559" 
d="M117 -63l149 686h205l-47 -686h-307zM400 764q-70 0 -112 39t-42 107t50 119q50 50 120 50t112 -40q42 -41 41 -109q0 -68 -49 -117t-120 -49z" />
    <glyph glyph-name="numbersign.sc" horiz-adv-x="1347" 
d="M838 422l90 219h-256l-88 -219h254zM1364 641h-203l-90 -219h182l-34 -209h-234l-86 -211h-235l88 211h-252l-86 -211h-230l86 211h-143l33 209h196l90 219h-186l31 211h241l86 211h226l-86 -211h256l88 211h233l-86 -211h146z" />
    <glyph glyph-name="parenleft.sc" horiz-adv-x="628" 
d="M143 420q0 272 127 490t357 350l98 -185q-338 -246 -338 -633q0 -260 188 -432l-149 -184q-139 94 -211 256t-72 338z" />
    <glyph glyph-name="parenright.sc" horiz-adv-x="632" 
d="M639 666q0 -272 -128 -490t-355 -350l-99 184q152 113 238 257t98 343q20 272 -186 465l147 185q139 -96 212 -258t73 -336z" />
    <glyph glyph-name="question.sc" horiz-adv-x="735" 
d="M455 138q0 -60 -48 -108q-49 -46 -109 -46t-97 36t-37 98q0 60 48 106t110 46t97 -36q36 -36 36 -96zM528 799q0 90 -110 90t-193 -49l-65 194q156 84 316 84t242 -68q81 -68 81 -186q0 -80 -33 -141t-81 -98t-97 -68q-119 -75 -129 -149l-4 -31h-207l6 47q10 80 55 139
t93 87q126 73 126 149z" />
    <glyph glyph-name="questiondown.sc" horiz-adv-x="735" 
d="M301 274q0 -90 110 -90t193 49l66 -194q-156 -84 -316 -84t-242 69q-81 69 -81 185q0 151 113 240q48 37 98 67q119 74 129 150l4 30h207l-7 -47q-10 -80 -55 -139t-93 -87q-126 -73 -126 -149zM375 936q0 60 48 107q49 47 109 47t97 -37t37 -97t-48 -107
q-48 -46 -110 -46q-61 0 -97 36q-36 37 -36 97z" />
    <glyph glyph-name="at.sc" horiz-adv-x="1290" 
d="M604 500q0 -55 26 -85t76 -30q49 0 87 35q37 35 45 91t-20 91t-82 35t-93 -41t-39 -96zM819 1104q229 0 371 -129t141 -321q0 -192 -90 -307q-90 -114 -225 -116t-172 78q-84 -84 -192 -84t-172 70q-62 69 -62 191t93 217t220 96q80 0 139 -43l11 41h145l-43 -305
q-14 -109 53 -109q53 0 85 61t32 170q0 154 -102 239t-273 81q-211 -4 -345 -134t-134 -347q0 -158 90 -256q91 -97 231 -101t252 62l43 -131q-141 -92 -294 -93q-227 0 -365 136t-137 356q-1 294 201 486t499 192z" />
    <glyph glyph-name="ampersand.sc" horiz-adv-x="1091" 
d="M338 289q0 -115 149 -115q74 0 160 53l-196 224q-113 -61 -113 -162zM692 819q0 37 -24 62q-25 25 -71 25t-78 -34t-32 -80t74 -126q131 61 131 153zM268 784q0 122 100 209q100 88 242 88t216 -60t73 -161q0 -172 -235 -325l153 -179q82 80 164 203l137 -102l-180 -219
l119 -123l-154 -144l-131 135q-147 -125 -352 -124q-147 0 -230 76q-82 77 -81 200q0 219 231 322q-72 82 -72 204z" />
    <glyph glyph-name="cent.sc" horiz-adv-x="829" 
d="M137 480q1 144 101 270q100 127 256 168l28 198h207l-27 -188q104 -12 185 -78l-129 -174q-62 53 -154 53t-161 -71t-69 -165t50 -145q49 -51 132 -51t155 55l82 -174q-94 -66 -207 -82l-25 -172h-205l25 185q-113 37 -179 132t-65 239z" />
    <glyph glyph-name="currency.sc" horiz-adv-x="921" 
d="M664 528q0 132 -116 132q-58 0 -102 -48q-43 -47 -43 -111q-1 -132 119 -132q60 0 101 47q41 46 41 112zM490 182q-91 0 -158 39l-101 -88l-104 117l100 92q-25 55 -24 127q0 131 69 225l-69 84l137 117l70 -86q78 37 170 37t159 -39l101 92l102 -121l-100 -92
q24 -57 20 -137q-2 -117 -65 -209l67 -86l-137 -119l-70 84q-76 -37 -167 -37z" />
    <glyph glyph-name="dollar.sc" horiz-adv-x="815" 
d="M422 233q66 0 104 26t37 62q1 37 -25 59t-53 32t-94 32q-203 68 -203 228q0 114 70 196t188 111l19 137h219l-18 -133q119 -25 194 -88l-102 -166q-115 72 -213 72q-57 0 -92 -25q-35 -26 -35 -60t29 -54t83 -37q154 -51 193 -98q63 -73 63 -173t-68 -181t-183 -112
l-21 -137h-217l16 127q-139 23 -231 96l102 172q123 -86 238 -86z" />
    <glyph glyph-name="Euro.sc" horiz-adv-x="1177" 
d="M794 182q144 0 259 76l84 -164q-179 -112 -391 -112t-346 124t-146 326h-131l29 197h122q50 205 218 329t390 123q222 0 363 -114l-127 -174q-98 88 -244 88t-241 -66q-94 -66 -131 -186h360l-26 -197h-353q14 -118 91 -184q76 -66 220 -66z" />
    <glyph glyph-name="plus.sc" horiz-adv-x="868" 
d="M891 623l-25 -172h-280l-41 -299h-176l41 299h-283l25 172h282l43 303h176l-43 -303h281z" />
    <glyph glyph-name="minus.sc" horiz-adv-x="966" 
d="M176 451l25 172h739l-25 -172h-739z" />
    <glyph glyph-name="multiply.sc" horiz-adv-x="821" 
d="M842 748l-238 -213l170 -213l-137 -121l-170 211l-229 -207l-105 123l234 209l-170 213l137 122l170 -213l233 211z" />
    <glyph glyph-name="divide.sc" horiz-adv-x="800" 
d="M425 156q-99 0 -97 99q0 48 33 83q34 35 88 35q92 0 92 -90q0 -55 -34 -91t-82 -36zM141 461l23 160h649l-22 -160h-650zM519 922q97 0 95 -98q0 -48 -32 -83q-33 -34 -81 -34q-98 0 -98 99q0 48 34 82t82 34z" />
    <glyph glyph-name="equal.sc" horiz-adv-x="970" 
d="M156 276l22 173h740l-25 -173h-737zM205 629l24 172h738l-23 -172h-739z" />
    <glyph glyph-name="notequal.sc" horiz-adv-x="970" 
d="M944 631h-256l-74 -180h304l-25 -172h-350l-70 -170h-205l72 170h-184l22 172h234l75 180h-282l24 172h330l70 168h200l-69 -168h207z" />
    <glyph glyph-name="greater.sc" horiz-adv-x="688" 
d="M242 948l471 -319l-25 -191l-561 -319l29 207l348 209l-291 206z" />
    <glyph glyph-name="less.sc" horiz-adv-x="688" 
d="M711 948l-29 -207l-348 -209l291 -206l-29 -207l-471 319l27 191z" />
    <glyph glyph-name="plusminus.sc" horiz-adv-x="804" 
d="M119 88l20 156h594l-20 -156h-594zM586 745h215l-25 -165h-213l-35 -248h-161l34 248h-213l25 165h211l35 246h162z" />
    <glyph glyph-name="percent.sc" horiz-adv-x="1361" 
d="M989 223q0 -88 84 -88q41 0 74 34t33 78q0 45 -23 69t-63 24t-73 -34q-32 -34 -32 -83zM1337 260q-1 -112 -83 -194t-194 -82t-172 60q-58 60 -58 173t81 193q83 80 195 80t172 -59q60 -58 59 -171zM334 811q0 -88 85 -88q42 0 75 34q32 34 32 78q0 45 -22 69t-65 24
q-41 0 -73 -34t-32 -83zM406 573q-110 1 -170 61t-60 172t84 192t194 79q110 0 168 -58q60 -58 60 -170t-83 -194t-193 -82zM426 -72l-137 72l807 1145l137 -80z" />
    <glyph glyph-name="perthousand.sc" horiz-adv-x="1935" 
d="M1647 135q42 0 75 34t33 78q1 45 -23 69t-65 24t-73 -34t-31 -83q0 -88 84 -88zM989 223q0 -88 84 -88q41 0 74 34t33 78q0 45 -23 69t-63 24t-73 -34q-32 -34 -32 -83zM1634 -16q-112 0 -172 60q-59 60 -59 173t83 193q82 80 194 80t171 -59q59 -58 59 -171
q0 -112 -82 -194t-194 -82zM1337 260q-1 -112 -83 -194t-194 -82t-172 60q-58 60 -58 173t81 193q83 80 195 80t172 -59q60 -58 59 -171zM334 811q0 -88 85 -88q42 0 75 34q32 34 32 78q0 45 -22 69t-65 24q-41 0 -73 -34t-32 -83zM406 573q-110 1 -170 61t-60 172t84 192
t194 79q110 0 168 -58q60 -58 60 -170t-83 -194t-193 -82zM426 -72l-137 72l807 1145l137 -80z" />
    <glyph glyph-name="sterling.sc" horiz-adv-x="897" 
d="M720 885q-79 0 -135 -47t-69 -138l-20 -149h194l-20 -166h-195l-26 -203h397l-27 -182h-735l27 182h125l28 203h-123l23 166h123l24 176q23 162 134 258q112 96 278 96t242 -90l-111 -155q-55 49 -134 49z" />
    <glyph glyph-name="yen.sc" horiz-adv-x="1038" 
d="M1147 1063l-391 -543h135l-21 -147h-194l-14 -109h194l-22 -147h-193l-16 -117h-215l16 117h-195l21 147h194l15 109h-195l23 147h137l-238 543h246l180 -436l301 436h232z" />
    <glyph glyph-name="caroncomb.alt" 
d="M-63 1176q-49 0 -79 32.5t-30 99t56.5 118t130 51.5t112.5 -41t39 -107q0 -117 -80 -229.5t-203 -171.5l-59 86q127 90 137 166q-8 -4 -24 -4z" />
    <glyph glyph-name="uni0308.case" 
d="M50.5 1573q-64.5 0 -102.5 39t-38 105.5t52 115.5t117.5 49t102.5 -39t37 -105.5t-52 -115.5t-116.5 -49zM-405.5 1575q-65.5 0 -102.5 38t-37 104.5t52.5 115.5t117.5 49t102 -38t37 -104.5t-52 -115.5t-117.5 -49z" />
    <glyph glyph-name="uni0307.case" 
d="M54.5 1556q-68.5 0 -108.5 41t-40 112t56 123t125.5 52t109 -40t39.5 -110.5t-56.5 -124t-125 -53.5z" />
    <glyph glyph-name="gravecomb.case" 
d="M133 1550l-477 125l111 252l446 -209z" />
    <glyph glyph-name="acutecomb.case" 
d="M-291 1542l-49 166l492 221l69 -243z" />
    <glyph glyph-name="uni030B.case" 
d="M-197 1518l-120 106l260 367l178 -140zM-618 1518l-121 106l260 367l178 -140z" />
    <glyph glyph-name="uni0302.case" 
d="M174 1556h-252l-100 140l-139 -140h-254l323 334h205z" />
    <glyph glyph-name="uni030C.case" 
d="M-20 1890h253l-323 -334h-205l-217 334h252l100 -139z" />
    <glyph glyph-name="uni0306.case" 
d="M-155.5 1567q-145.5 0 -225.5 85t-59 226h207q-8 -57 20.5 -93t83.5 -36t94 36t47 93h207q-20 -141 -124.5 -226t-250 -85z" />
    <glyph glyph-name="uni030A.case" 
d="M-94 1740q0 -85 73 -85q35 0 62 30.5t27 75.5q0 76 -66 76q-41 0 -68.5 -28.5t-27.5 -68.5zM-34.5 1513q-102.5 0 -160 56.5t-57.5 157t79 175t182 74.5t159.5 -56t56.5 -155.5t-78.5 -175.5t-181 -76z" />
    <glyph glyph-name="tildecomb.case" 
d="M-73 1559q-77 0 -150.5 49t-116.5 49q-84 0 -127 -86l-135 127l26 34q119 138 262 138q71 0 146.5 -50.5t115.5 -50.5t72.5 27t46 49.5t13.5 28.5l137 -125q-4 -16 -35.5 -57t-104.5 -87t-150 -46z" />
    <glyph glyph-name="uni0304.case" 
d="M-506 1591l29 209h688l-29 -209h-688z" />
    <glyph glyph-name="uni0326.case" 
d="M-246.5 -342q-31.5 0 -65.5 35t-35 96t43 102t115.5 41t114.5 -45t44 -131.5t-55 -174t-151 -132.5l-71 80q43 29 69.5 65.5t26.5 65.5q-4 -2 -35.5 -2z" />
    <glyph glyph-name="uni0327.case" 
d="M-328 -496q-125 0 -215 76l78 121q124 -81 200 -33q32 20 42 62.5t-33 70t-137 11.5l-21 30l99 201h168l-60 -117q74 -4 120 -50t46 -118q0 -113 -81 -183.5t-206 -70.5z" />
    <glyph glyph-name="uni0328.case" 
d="M-286.5 -481q-104.5 0 -169 58t-64.5 137q0 146 88 229.5t153 113.5l29 13l94 -70q-18 -10 -44.5 -27.5t-70.5 -73t-44 -112.5q0 -86 82 -86q33 0 63 23l70 -144q-82 -61 -186.5 -61z" />
    <glyph glyph-name="uni0337.case" 
d="M-657 348l-80 176l706 377l80 -176z" />
    <glyph glyph-name="uni0338.case" 
d="M-1092 -53l-147 123l1278 1486l145 -122z" />
    <glyph glyph-name="caron.alt" horiz-adv-x="387" 
d="M295 1176q-33 0 -63 32t-30 100q0 66 57 117q55 51 129 51t114 -40q40 -41 39 -107q0 -117 -80 -229t-203 -172l-59 86q127 90 137 166q-8 -4 -41 -4z" />
    <glyph glyph-name="acute.case" horiz-adv-x="651" 
d="M332 1542l-49 166l491 221l70 -243z" />
    <glyph glyph-name="breve.case" horiz-adv-x="774" 
d="M594 1567q-145 0 -225 85t-60 226h207q-8 -57 20.5 -93t83.5 -36t94.5 36t47.5 93h207q-20 -141 -125 -226t-250 -85z" />
    <glyph glyph-name="caron.case" horiz-adv-x="854" 
d="M805 1890h254l-324 -334h-205l-217 334h252l101 -139z" />
    <glyph glyph-name="circumflex.case" horiz-adv-x="854" 
d="M999 1556h-251l-101 140l-139 -140h-254l324 334h204z" />
    <glyph glyph-name="dieresis.case" horiz-adv-x="833" 
d="M863.5 1573q-64.5 0 -102.5 39t-38 105.5t52 115.5t117.5 49t102.5 -39t37 -105.5t-52 -115.5t-116.5 -49zM407.5 1575q-65.5 0 -102.5 38t-37 104.5t52.5 115.5t117.5 49t102.5 -38t37.5 -104.5t-52.5 -115.5t-118 -49z" />
    <glyph glyph-name="dotaccent.case" horiz-adv-x="329" 
d="M396.5 1556q-68.5 0 -108.5 41t-40 112t56 123t125.5 52t109 -40t39.5 -110.5t-56.5 -124t-125 -53.5z" />
    <glyph glyph-name="grave.case" horiz-adv-x="651" 
d="M756 1550l-477 125l110 252l447 -209z" />
    <glyph glyph-name="hungarumlaut.case" horiz-adv-x="1071" 
d="M827 1518l-120 106l260 367l178 -140zM406 1518l-121 106l260 367l178 -140z" />
    <glyph glyph-name="macron.case" horiz-adv-x="808" 
d="M274 1591l29 209h688l-28 -209h-689z" />
    <glyph glyph-name="ring.case" horiz-adv-x="528" 
d="M496 1655q35 0 61.5 30.5t26.5 75.5q0 76 -66 76q-41 0 -68.5 -28.5t-27.5 -68.5t19.5 -62.5t54.5 -22.5zM481.5 1513q-102.5 0 -160 56.5t-57.5 157t79 175t182.5 74.5t159.5 -56t56 -155.5t-78.5 -175.5t-181 -76z" />
    <glyph glyph-name="tilde.case" horiz-adv-x="907" 
d="M800 1559q-77 0 -151 49t-117 49q-84 0 -126 -86l-136 127l27 34q114 138 266 138q66 0 141.5 -50.5t115.5 -50.5t73 27t46 49.5t13 28.5l138 -125q-4 -16 -36 -57t-104.5 -87t-149.5 -46z" />
    <glyph glyph-name="uni0308.sc" horiz-adv-x="821" 
d="M901 1333q0 -65 -47 -111q-46 -46 -114 -46t-109 38t-41 102q0 66 48 112t114 46t108 -37q41 -38 41 -104zM444 1333q0 -65 -46 -111t-114 -46t-110 37q-41 38 -41 103q0 66 48 112q47 46 115 46t108 -37q40 -38 40 -104z" />
    <glyph glyph-name="uni0307.sc" horiz-adv-x="342" 
d="M184 1324q0 71 54 122t125 51t115 -40q44 -39 44 -111t-51 -124t-125 -51q-74 0 -118 41t-44 112z" />
    <glyph glyph-name="gravecomb.sc" horiz-adv-x="651" 
d="M535 1130l-455 187l106 221l430 -248z" />
    <glyph glyph-name="acutecomb.sc" horiz-adv-x="653" 
d="M154 1128l-74 162l428 248l108 -221z" />
    <glyph glyph-name="uni030B.sc" horiz-adv-x="1058" 
d="M705 1114l-152 86l176 387l213 -119zM287 1114l-150 86l176 387l211 -119z" />
    <glyph glyph-name="uni0302.sc" horiz-adv-x="735" 
d="M797 1159h-224l-98 160l-145 -160h-228l295 338h207z" />
    <glyph glyph-name="uni030C.sc" horiz-adv-x="735" 
d="M596 1497h227l-291 -338h-204l-199 338h223l103 -162z" />
    <glyph glyph-name="uni0306.sc" horiz-adv-x="729" 
d="M526 1161q-141 0 -217 89t-53 237h205q-9 -66 15 -106t76 -40t88 39t46 107h205q-20 -147 -122 -237t-243 -89z" />
    <glyph glyph-name="uni030A.sc" horiz-adv-x="516" 
d="M441 1255q36 0 62 30q25 30 25 70q-1 83 -69 83q-41 0 -68 -29t-27 -69t21 -62q20 -22 56 -23zM207 1330q0 102 76 174t180 73q103 0 163 -57t60 -161q0 -105 -74 -175t-180 -70t-166 57q-59 57 -59 159z" />
    <glyph glyph-name="tildecomb.sc" horiz-adv-x="872" 
d="M168 1309q70 178 260 178q64 0 143.5 -39t124.5 -39t74 27.5t33 54.5l153 -123q-13 -44 -54.5 -90.5t-94 -72t-119 -25.5t-140 37.5t-117.5 37.5t-72.5 -25.5t-34.5 -47.5z" />
    <glyph glyph-name="uni0304.sc" horiz-adv-x="780" 
d="M256 1214l31 207h608l-29 -207h-610z" />
    <glyph glyph-name="uni0326.sc" horiz-adv-x="374" 
d="M76 -383q-29 0 -57 31q-27 30 -27 94t51 115t121 51t106 -39q37 -39 37 -105q-1 -104 -73 -204t-187 -152l-59 82q117 80 123 129q-6 -2 -35 -2z" />
    <glyph glyph-name="uni0327.sc" horiz-adv-x="516" 
d="M174 -508q-70 0 -129 25.5t-84 50.5l74 117q61 -49 127 -51t91.5 25.5t25.5 68.5q0 76 -109 75q-27 0 -59 -6l-19 31l94 197h158l-57 -115q78 -8 125 -56.5t47 -121.5q0 -106 -76 -173t-209 -67z" />
    <glyph glyph-name="uni0328.sc" horiz-adv-x="473" 
d="M162 -487q-106 0 -167 51t-61 147t61 180q93 131 228 185l94 -76l-20 -10q-45 -23 -85 -61q-77 -74 -79 -146q0 -43 22 -67q21 -24 55 -24t69 27l67 -143q-78 -63 -184 -63z" />
    <glyph glyph-name="uni0335.sc" horiz-adv-x="790" 
d="M152 465l26 182h586l-25 -182h-587z" />
    <glyph glyph-name="uni0337.sc" horiz-adv-x="886" 
d="M236 348l-80 176l673 357l80 -176z" />
    <glyph glyph-name="uni0338.sc" horiz-adv-x="1280" 
d="M246 -76l-150 123l991 1141l146 -123z" />
    <glyph glyph-name="sevensc.ss01" horiz-adv-x="858" 
d="M160 0l202 373h-124l26 190h203l162 291h-434l28 209h711l-14 -107l-215 -393h112l-26 -190h-193l-205 -373h-233z" />
    </font>
</defs>
</svg>
