<?xml version="1.0" standalone="no"?>
<!DOCTYPE svg PUBLIC "-//W3C//DTD SVG 1.1//EN" "http://www.w3.org/Graphics/SVG/1.1/DTD/svg11.dtd" >
<svg xmlns="http://www.w3.org/2000/svg">
<metadata>
Created by FontPrep 20130207 at Tue Apr  4 12:52:32 2017
 By Tina Muller
Copyright (c) 2016 by Daniel Hernandez &#38; Paula Nazal. All rights reserved.
</metadata>
<defs>
<font id="2591ef8205d9d537fdb351b466207371" horiz-adv-x='1024' >
  <font-face 
    font-family="Trenda-Heavy"
    font-weight="900"
    font-stretch="normal"
    units-per-em="2048"
    panose-1="0 0 10 0 0 0 0 0 0 0"
    ascent="1638"
    descent="-410"
    x-height="942"
    cap-height="1440"
    bbox="-1743 -639 2767 2052"
    underline-thickness="102"
    underline-position="-102"
    unicode-range="U+0020-FB02"
  />
<missing-glyph horiz-adv-x="1198" 
 />
    <glyph glyph-name="fi" unicode="fi" horiz-adv-x="1488" 
d="M1016 0v942h368v-942h-368zM225 0v633h-176v309h176v78q0 209 125 335t352 126q152 0 269 -74l-137 -283q-40 25 -98 25t-100 -41t-42 -129v-37h250v-309h-250v-633h-369zM1196 1077q-96 1 -161 61t-65 155t65 155q65 59 161 62t163 -59q67 -61 67 -157t-68 -156
q-66 -60 -162 -61z" />
    <glyph glyph-name="fl" unicode="fl" horiz-adv-x="1449" 
d="M981 0v1462h365v-1462h-365zM225 0v633h-176v309h176v78q0 209 125 335t352 126q152 0 269 -74l-137 -283q-40 25 -98 25t-100 -41t-42 -129v-37h250v-309h-250v-633h-369z" />
    <glyph glyph-name=".notdef" horiz-adv-x="1198" 
 />
    <glyph glyph-name=".null" 
 />
    <glyph glyph-name="nonmarkingreturn" horiz-adv-x="681" 
 />
    <glyph glyph-name="space" unicode=" " horiz-adv-x="444" 
 />
    <glyph glyph-name="exclam" unicode="!" horiz-adv-x="612" 
d="M308 -16q-89 0 -150 62q-62 62 -62 150t62 151t151 63t151 -64t62 -150q0 -87 -62 -150q-63 -62 -152 -62zM164 442l-70 1067h422l-74 -1067h-278z" />
    <glyph glyph-name="quotedbl" unicode="&#x22;" horiz-adv-x="856" 
d="M504 1034l-35 428h301l-35 -428h-231zM121 1034l-37 428h307l-39 -428h-231z" />
    <glyph glyph-name="numbersign" unicode="#" horiz-adv-x="1458" 
d="M776 637l72 246h-209l-70 -246h207zM1378 883h-221l-70 -246h224v-283h-305l-101 -352h-311l100 352h-207l-100 -352h-299l100 352h-96v283h178l72 246h-182v284h262l80 275h297l-78 -275h207l80 275h309l-78 -275h139v-284z" />
    <glyph glyph-name="dollar" unicode="$" horiz-adv-x="1150" 
d="M1063 489q0 -133 -75 -230t-210 -142v-197h-366v174q-195 29 -351 129l138 293q170 -119 379 -119q127 0 127 68q-1 39 -49 63t-206 74q-158 49 -248 130q-89 82 -89 230t78 246q79 98 219 142v196h368v-182q162 -31 293 -119l-162 -276q-135 94 -301 94q-125 0 -125 -66
q0 -33 29 -50t119 -48t115 -40q26 -9 69 -27t57 -28q14 -9 50 -31t48 -39q13 -17 37 -45q23 -29 31 -57q24 -94 25 -143z" />
    <glyph glyph-name="percent" unicode="%" horiz-adv-x="1777" 
d="M1364 272q55 0 89 33t34 87t-34 86t-89 32t-87 -32t-32 -86t32 -87t87 -33zM1365 49q-161 0 -258 95t-97 249t98 247t258 93t256 -93t96 -248t-96 -249t-257 -94zM414 1036q55 0 89 33t34 87t-34 86t-89 32t-87 -32t-32 -86t32 -87t87 -33zM415 813q-161 0 -258 95
t-97 249t98 247t258 93t256 -93t96 -248t-96 -249t-257 -94zM575 -27l-270 123l860 1448l273 -135z" />
    <glyph glyph-name="ampersand" unicode="&#x26;" horiz-adv-x="1468" 
d="M613 285q79 0 155 51l-248 221q-80 -51 -80 -121t47 -111q47 -40 126 -40zM680 1174q-53 0 -88 -34t-35 -98t80 -147q72 29 118 77t46 94t-34 77t-87 31zM590 -18q-231 0 -376 120q-144 121 -144 310q0 227 237 354q-102 139 -102 304t128 277q128 111 335 111
q206 0 332 -103t126 -270q0 -117 -74 -225t-194 -168l160 -141q67 75 120 159q53 83 58 78l244 -176q-4 0 -20 -28q-69 -119 -179 -234l178 -157q0 -2 -219 -244l-199 178q-180 -145 -411 -145z" />
    <glyph glyph-name="quotesingle" unicode="'" horiz-adv-x="475" 
d="M121 1034l-37 428h307l-39 -428h-231z" />
    <glyph glyph-name="parenleft" unicode="(" horiz-adv-x="768" 
d="M399 735q0 -231 80 -392t277 -327l-185 -254q-276 180 -390 424t-113 547q0 473 260 764q100 113 243 205l168 -252q-190 -158 -265 -321t-75 -394z" />
    <glyph glyph-name="parenright" unicode=")" horiz-adv-x="765" 
d="M369 735q0 231 -75 394t-263 321l168 252q498 -326 497 -969q0 -305 -112 -548t-385 -423l-189 254q199 166 279 327t80 392z" />
    <glyph glyph-name="asterisk" unicode="*" horiz-adv-x="878" 
d="M801 1239l-197 -82l197 -88l-109 -186l-170 129l25 -215h-207l22 219l-180 -133l-104 186l196 84l-196 86l104 186l176 -131l-18 205h207l-23 -203l168 129z" />
    <glyph glyph-name="plus" unicode="+" horiz-adv-x="1224" 
d="M1118 741v-286h-352v-353h-299v353h-361v286h361v365h299v-365h352z" />
    <glyph glyph-name="comma" unicode="," horiz-adv-x="598" 
d="M268 -6h-28q-68 0 -112 46t-46 131t58 142t156 57t156 -58q58 -58 60 -176t-76 -240q-78 -124 -209 -183l-96 113q137 94 137 168z" />
    <glyph glyph-name="hyphen" unicode="-" horiz-adv-x="821" 
d="M111 358v281h600v-281h-600z" />
    <glyph glyph-name="period" unicode="." horiz-adv-x="573" 
d="M288 -18q-89 0 -152 62q-62 62 -62 150t61 151t151 63t152 -62t62 -151t-62 -151t-150 -62z" />
    <glyph glyph-name="slash" unicode="/" horiz-adv-x="876" 
d="M45 -348l490 1943h296l-487 -1943h-299z" />
    <glyph glyph-name="zero" unicode="0" horiz-adv-x="1460" 
d="M743 313q254 0 254 410t-260 410q-272 0 -272 -414q-1 -205 73 -305t205 -101zM735 -18q-295 0 -473 196t-178 550t176 542t473 188t469 -194t174 -543q2 -351 -172 -545t-469 -194z" />
    <glyph glyph-name="one" unicode="1" horiz-adv-x="917" 
d="M766 1440v-1440h-379v1022l-268 -98l-119 309l537 207h229z" />
    <glyph glyph-name="two" unicode="2" horiz-adv-x="1200" 
d="M90 0v209q285 193 461 385q135 150 131 303q-4 101 -69 163t-205 62t-248 -67l-113 299q59 40 182 72t260 32q264 0 421 -132t157 -370q0 -158 -71 -310t-199 -257q-27 -20 -88 -57h395v-332h-1014z" />
    <glyph glyph-name="three" unicode="3" horiz-adv-x="1148" 
d="M1063 461q0 -225 -154 -352q-155 -127 -435 -127t-468 122l121 277q135 -100 334 -100q229 0 229 192q0 80 -55 127t-158 47t-203 -35l-75 189l313 317h-471v322h954v-238l-313 -315q178 -20 280 -133t101 -293z" />
    <glyph glyph-name="four" unicode="4" horiz-adv-x="1259" 
d="M1198 582v-318h-125v-264h-358v264h-680v238l321 956l324 -110l-242 -766h277v462h358v-462h125z" />
    <glyph glyph-name="five" unicode="5" horiz-adv-x="1193" 
d="M647 924q229 0 359 -119t131 -335q-1 -216 -143 -352t-430 -136t-501 122l121 287q54 -39 156 -76t211 -37t172 47q63 46 61 134q-4 172 -248 172q-116 0 -223 -53l-151 94v768h899v-318h-526v-211q57 13 112 13z" />
    <glyph glyph-name="six" unicode="6" horiz-adv-x="1234" 
d="M622 297q99 0 159 50t61 136q0 85 -60 137t-160 52q-98 0 -158 -50t-60 -138t59 -137q60 -50 159 -50zM709 965q215 0 345 -131t130 -350q0 -218 -159 -360t-415 -142t-407 152q-150 152 -150 409q0 307 199 559t588 377l133 -273q-342 -113 -471 -301q96 60 207 60z" />
    <glyph glyph-name="seven" unicode="7" horiz-adv-x="1103" 
d="M39 1122v318h1063v-166l-586 -1274h-366l522 1122h-633z" />
    <glyph glyph-name="eight" unicode="8" horiz-adv-x="1275" 
d="M635 283q86 0 137 43q51 44 51 112t-51 111t-137 43t-138 -43q-53 -43 -53 -112t52 -111t139 -43zM635 887q72 0 117 43t45 104q0 60 -45 104t-117 44t-114 -42t-42 -106t42 -105q42 -42 114 -42zM1188 416q0 -196 -150 -314t-410 -118q-261 0 -405 109
q-143 110 -143 310q0 240 203 353q-158 102 -158 290t140 300q141 112 373 112t374 -112q141 -112 141 -300t-158 -290q193 -106 193 -340z" />
    <glyph glyph-name="nine" unicode="9" horiz-adv-x="1232" 
d="M408 963q0 -87 55 -139t148 -52t151 51q57 51 57 139t-57 140q-56 51 -150 51t-149 -51t-55 -139zM59 953q1 217 153 361t402 144t401 -145t152 -398q1 -313 -193 -563t-583 -391l-151 260q383 156 489 307q-86 -51 -192 -51q-217 0 -348 129q-130 129 -130 347z" />
    <glyph glyph-name="colon" unicode=":" horiz-adv-x="630" 
d="M316 385q88 0 150 -63q62 -62 62 -150t-62 -150t-151 -63q-90 0 -151 61q-62 62 -62 150t62 152t152 63zM315 997q89 0 151 -62q62 -61 62 -149t-62 -152t-150 -63q-89 1 -151 63t-63 150q0 88 62 150t151 63z" />
    <glyph glyph-name="semicolon" unicode=";" horiz-adv-x="722" 
d="M332 -27h-29q-70 0 -113 45t-45 131q-1 85 59 143t156 58t155 -59q58 -59 60 -156q3 -139 -75 -261t-209 -181l-96 110q137 94 137 170zM360 952q90 0 152 -62t61 -150q1 -88 -61 -150q-62 -64 -151 -64t-151 62t-63 151t61 151t152 62z" />
    <glyph glyph-name="less" unicode="&#x3c;" horiz-adv-x="964" 
d="M836 1182v-348l-416 -244l416 -246v-340l-754 428v313z" />
    <glyph glyph-name="equal" unicode="=" horiz-adv-x="1331" 
d="M119 221v287h1093v-287h-1093zM119 684v287h1093v-287h-1093z" />
    <glyph glyph-name="greater" unicode="&#x3e;" horiz-adv-x="964" 
d="M129 1182l754 -437v-313l-754 -428v340l418 246l-418 244v348z" />
    <glyph glyph-name="question" unicode="?" horiz-adv-x="962" 
d="M383 -18q-82 0 -139 58q-58 58 -58 139t58 137t139 56q82 0 138 -56q57 -56 57 -138t-56 -139t-139 -57zM221 424v88q0 90 31 165t74 124t87 91q105 100 105 175q0 115 -140 115t-255 -68l-125 272q220 125 438 125t344 -103t127 -282q0 -106 -37 -189t-91 -135t-107 -98
q-127 -111 -127 -237v-43h-324z" />
    <glyph glyph-name="at" unicode="@" horiz-adv-x="1986" 
d="M988 399q58 0 93 35t35 92t-35 92t-93 35t-92 -35t-34 -93t34 -92t92 -34zM994 1393q408 0 658 -214q251 -214 251 -554q0 -238 -113 -380q-114 -143 -316 -145t-280 117q-102 -115 -295 -115q-159 0 -267 120t-108 300t113 303t276 123q109 0 203 -49l8 23h267v-379
q0 -152 73 -152q127 0 127 222q0 221 -171 359t-446 131q-276 -7 -442 -170t-160 -413t152 -400q147 -150 383 -157q186 -6 350 57l103 -268q-193 -80 -422 -80q-401 0 -643 224t-242 612q0 387 266 636q267 249 675 249z" />
    <glyph glyph-name="A" unicode="A" horiz-adv-x="1480" 
d="M737 928l-166 -391h330zM1094 0l-99 242h-518l-98 -242h-402l648 1440h235l639 -1440h-405z" />
    <glyph glyph-name="B" unicode="B" horiz-adv-x="1419" 
d="M768 295q98 0 150 39q51 39 51 108q0 143 -201 144h-242v-291h242zM920 1006q0 63 -48 101t-137 38h-209v-281h211q183 1 183 142zM766 0h-614v1440h591q279 0 412 -104t133 -285q0 -104 -61 -182q-62 -76 -166 -111q145 -33 214 -125t68 -219q0 -414 -577 -414z" />
    <glyph glyph-name="C" unicode="C" horiz-adv-x="1361" 
d="M827 -18q-332 0 -542.5 212t-210.5 524t210 526t543 214q281 0 500 -143l-168 -307q-111 92 -288.5 92t-287.5 -102.5t-110 -279.5t109.5 -279.5t296.5 -102.5q70 0 149 26t131 72l168 -307q-55 -37 -91 -57.5t-156 -54t-253 -33.5z" />
    <glyph glyph-name="D" unicode="D" horiz-adv-x="1595" 
d="M741 344q178 0 277.5 101.5t99.5 272.5t-99 274.5t-278 103.5h-202v-752h202zM717 1440q371 0 586 -195.5t215 -523.5t-215.5 -524.5t-585.5 -196.5h-570v1440h570z" />
    <glyph glyph-name="E" unicode="E" horiz-adv-x="1298" 
d="M535 338h657v-338h-1045v1440h1041v-340h-653v-205h573v-334h-573v-223z" />
    <glyph glyph-name="F" unicode="F" horiz-adv-x="1249" 
d="M1184 1075h-643v-284h544v-365h-544v-426h-394v1440h1037v-365z" />
    <glyph glyph-name="G" unicode="G" horiz-adv-x="1519" 
d="M1065 768h358v-600q-72 -70 -217 -128t-362 -58q-334 0 -552 210t-218 522t221 528t556 216t542 -143l-170 -311q-150 96 -337 96t-297 -104.5t-110 -278.5t111.5 -280.5t277.5 -106.5q119 0 197 35v403z" />
    <glyph glyph-name="H" unicode="H" horiz-adv-x="1667" 
d="M1126 1440h392v-1440h-392v541h-585v-541h-391v1440h391v-553h585v553z" />
    <glyph glyph-name="I" unicode="I" horiz-adv-x="688" 
d="M147 0v1440h394v-1440h-394z" />
    <glyph glyph-name="J" unicode="J" horiz-adv-x="1040" 
d="M514 1440h391v-916q-1 -238 -151 -390t-398 -152q-113 0 -225 28t-137 56l149 352q74 -49 169 -49t149 47q53 47 53 119v905z" />
    <glyph glyph-name="K" unicode="K" horiz-adv-x="1441" 
d="M539 0h-392v1440h392v-604l471 604h452l-579 -709l618 -731h-495l-467 571v-571z" />
    <glyph glyph-name="L" unicode="L" horiz-adv-x="1196" 
d="M541 342h639v-342h-1033v1440h394v-1098z" />
    <glyph glyph-name="M" unicode="M" horiz-adv-x="1886" 
d="M1753 0h-383l-4 672l-307 -557h-238l-303 547l-2 -662h-383l35 1440h256l524 -883l525 883h243z" />
    <glyph glyph-name="N" unicode="N" horiz-adv-x="1628" 
d="M1096 1440h383v-1454h-215l-732 800v-786h-382v1456h217l729 -782v766z" />
    <glyph glyph-name="O" unicode="O" horiz-adv-x="1695" 
d="M851 330q161 0 265.5 112.5t104.5 283.5t-104.5 281.5t-266.5 110.5t-268.5 -110.5t-106.5 -281.5t107.5 -283.5t268.5 -112.5zM851 -25q-333 0 -554 216.5t-221 534.5t221 532.5t554 214.5t551 -211t218 -536t-218 -538t-551 -213z" />
    <glyph glyph-name="P" unicode="P" horiz-adv-x="1359" 
d="M686 705q123 0 182 56q60 56 60 141q0 86 -62 146t-180 60h-154v-403h154zM713 1440q279 0 443 -153t163 -390q0 -237 -168 -381t-457 -145l-162 -2v-369h-382v1440h563z" />
    <glyph glyph-name="Q" unicode="Q" horiz-adv-x="1681" 
d="M1214 719q0 165 -104 275t-265 110t-269 -112t-107 -273q0 -162 108 -273q107 -110 267 -110t265 110t105 273zM1608 717q0 -178 -74 -329t-207 -251l266 -237l-241 -252l-377 344q-72 -10 -129 -10q-330 0 -550 212t-220 525t220 526t550 213t546 -210t216 -531z" />
    <glyph glyph-name="R" unicode="R" horiz-adv-x="1454" 
d="M532 1114v-420h191q104 0 166.5 58.5t62.5 149.5t-62.5 151.5t-172.5 60.5h-185zM532 369v-369h-382v1440h604q272 0 430.5 -152.5t158.5 -392.5q0 -150 -71.5 -265.5t-200.5 -183.5l311 -446h-446l-236 369h-168z" />
    <glyph glyph-name="S" unicode="S" horiz-adv-x="1263" 
d="M616 -18q-334 0 -579 178l182 307q104 -82 199.5 -117t232.5 -35t137 101q0 53 -50 84.5t-206 77.5q-233 70 -332.5 168t-99.5 260q0 205 155 328.5t429 123.5t504 -158l-164 -292q-176 116 -352 116t-176 -88q0 -41 47 -68.5t202 -74.5q227 -68 330 -173.5t103 -268.5
q0 -223 -148 -346t-414 -123z" />
    <glyph glyph-name="T" unicode="T" horiz-adv-x="1357" 
d="M1339 1440v-344h-467v-1096h-391v1096h-461v344h1319z" />
    <glyph glyph-name="U" unicode="U" horiz-adv-x="1591" 
d="M795 -18q-307 0 -485.5 171t-178.5 492v795h391v-826q0 -117 65.5 -200.5t206 -83.5t208 85t67.5 199v826h391v-795q0 -322 -179 -492.5t-486 -170.5z" />
    <glyph glyph-name="V" unicode="V" horiz-adv-x="1425" 
d="M1018 1440h414l-601 -1440h-235l-602 1440h434l203 -531l100 -311l96 311z" />
    <glyph glyph-name="W" unicode="W" horiz-adv-x="2080" 
d="M1675 1440h400l-480 -1440h-288l-271 813l-256 -813h-295l-479 1440h422l231 -856l68 239l184 617h254l183 -602l79 -279z" />
    <glyph glyph-name="X" unicode="X" horiz-adv-x="1484" 
d="M1489 0h-461l-295 463l-291 -463h-446l504 721l-482 719h467l252 -439l273 439h446l-483 -703z" />
    <glyph glyph-name="Y" unicode="Y" horiz-adv-x="1435" 
d="M915 0h-395v559l-518 881h473l256 -500l260 500h449l-525 -879v-561z" />
    <glyph glyph-name="Z" unicode="Z" horiz-adv-x="1374" 
d="M1290 336v-336h-1208v246l670 858h-670v336h1186v-244l-693 -860h715z" />
    <glyph glyph-name="bracketleft" unicode="[" horiz-adv-x="849" 
d="M788 1309h-333v-1211h333v-299h-661v1807h661v-297z" />
    <glyph glyph-name="backslash" unicode="\" horiz-adv-x="876" 
d="M532 -334l-487 1870h297l489 -1870h-299z" />
    <glyph glyph-name="bracketright" unicode="]" horiz-adv-x="849" 
d="M59 1606h664v-1807h-664v299h336v1211h-336v297z" />
    <glyph glyph-name="asciicircum" unicode="^" horiz-adv-x="1159" 
d="M1096 762h-326l-184 321l-185 -321h-338l410 682h203z" />
    <glyph glyph-name="underscore" unicode="_" horiz-adv-x="1306" 
d="M113 -70v281h1081v-281h-1081z" />
    <glyph glyph-name="grave" unicode="`" horiz-adv-x="704" 
d="M514 1012l-512 250l172 297l467 -326z" />
    <glyph glyph-name="a" unicode="a" horiz-adv-x="1218" 
d="M597 305q75 0 121 48t46 119t-46 118t-121 47t-121 -48t-46 -117t46 -118t121 -49zM1114 942v-942h-326l-14 96q-111 -115 -260 -114q-197 0 -324 139t-127 349t133.5 350.5t329.5 140.5q133 0 230 -80l14 61h344z" />
    <glyph glyph-name="b" unicode="b" horiz-adv-x="1216" 
d="M619 637q-75 0 -121 -48t-45 -117q-1 -69 45 -118t121 -49t121 48t46 119t-46 118t-121 47zM702 961q195 1 322 -139t127 -350t-131 -350t-330 -140q-162 0 -282 110l-13 -92h-289v1462h365v-581q94 80 231 80z" />
    <glyph glyph-name="c" unicode="c" horiz-adv-x="1001" 
d="M585 -18q-220 0 -372 141t-152 348t150.5 348.5t365 141.5t377.5 -109l-141 -279q-80 55 -174 55.5t-147.5 -43.5t-53.5 -114t53.5 -114t148.5 -44t175 58l146 -279q-156 -110 -376 -110z" />
    <glyph glyph-name="d" unicode="d" horiz-adv-x="1214" 
d="M597 305q75 0 121 48t46 119t-46 118t-121 47t-121 -48t-46 -117t46 -118t121 -49zM743 1462h365v-1462h-287l-12 92q-125 -111 -283 -110q-199 0 -331 140t-132 350t127 349.5t324 139.5q127 0 229 -82v583z" />
    <glyph glyph-name="e" unicode="e" horiz-adv-x="1122" 
d="M579 688q-121 0 -155 -104h291q-15 104 -136 104zM637 262q125 0 229 78l140 -225q-47 -49 -149.5 -91t-262.5 -42q-240 0 -386.5 140t-146.5 354t142.5 349.5t366.5 135.5t357.5 -140.5t133.5 -361.5l-4 -80h-631q45 -117 211 -117z" />
    <glyph glyph-name="f" unicode="f" horiz-adv-x="876" 
d="M225 0v633h-176v309h176v78q0 209 125 335t352 126q152 0 269 -74l-137 -283q-40 25 -98 25t-100 -41t-42 -129v-37h250v-309h-250v-633h-369z" />
    <glyph glyph-name="g" unicode="g" horiz-adv-x="1210" 
d="M597 305q75 0 121 48t46 119t-46 118t-121 47t-121 -48t-46 -117t46 -118t121 -49zM1106 938v-868q0 -217 -142.5 -352.5t-390.5 -135.5q-186 0 -288.5 36t-184.5 99l154 238q109 -74 293 -74q86 0 143.5 36t57.5 95v68q-96 -76 -230 -76q-203 0 -329 129t-126 339
t128 349.5t331 139.5q162 0 285 -107l8 84h291z" />
    <glyph glyph-name="h" unicode="h" horiz-adv-x="1222" 
d="M694 961q193 0 313.5 -122t120.5 -319v-520h-368v444q0 76 -39 121t-101 45t-102.5 -37.5t-46.5 -113.5l2 -459h-364v1462h364v-563q84 62 221 62z" />
    <glyph glyph-name="i" unicode="i" horiz-adv-x="575" 
d="M102 0v942h369v-942h-369zM283 1077q-96 1 -161 61t-65 155t65 155t161 62q97 3 163 -59q66 -61 66 -157t-66 -156t-163 -61z" />
    <glyph glyph-name="j" unicode="j" horiz-adv-x="591" 
d="M31 -418q-164 0 -250 62l106 284q41 -22 97 -22t95 42q40 42 40 124v870h368v-879q-1 -223 -123 -352t-333 -129zM297 1077q-95 1 -159 61t-64 155t63 155t159 62q96 3 164 -59q66 -61 66 -157t-66 -156t-163 -61z" />
    <glyph glyph-name="k" unicode="k" horiz-adv-x="1161" 
d="M471 0h-365v1462h365v-864l242 344h446l-375 -440l394 -502h-451l-256 356v-356z" />
    <glyph glyph-name="l" unicode="l" horiz-adv-x="573" 
d="M104 0v1462h365v-1462h-365z" />
    <glyph glyph-name="m" unicode="m" horiz-adv-x="1824" 
d="M1298 961q184 0 310 -116q125 -116 125 -310v-535h-369v479q0 74 -34 113t-93 39t-96 -44t-37 -124v-463h-371v479q0 72 -35 112q-36 40 -94 40t-94 -43t-37 -129v-459h-369v942h273l10 -125q43 63 123 103t172 41q203 0 322 -132q110 132 294 132z" />
    <glyph glyph-name="n" unicode="n" horiz-adv-x="1222" 
d="M683 961q204 0 324.5 -122t120.5 -319v-520h-368v444q0 76 -39 121t-104 45t-104.5 -44t-39.5 -128v-438h-369v942h273l10 -119q92 138 296 138z" />
    <glyph glyph-name="o" unicode="o" horiz-adv-x="1171" 
d="M587 299q75 0 121 49t46 124t-45 124t-121 49t-122 -49t-46 -123t46 -124t121 -50zM586 -23q-221 0 -373 140.5t-152 354.5t152 354.5t373 140.5t371.5 -140.5t150.5 -354.5t-150.5 -354.5t-371.5 -140.5z" />
    <glyph glyph-name="p" unicode="p" horiz-adv-x="1216" 
d="M619 637q-75 0 -121 -48t-45 -117q-1 -69 45 -118t121 -49t123 49t44 119t-48 117t-119 47zM690 961q199 -1 330 -141t131 -350t-127 -349t-322 -139q-127 0 -229 81v-462h-364v1341h286l13 -92q120 111 282 111z" />
    <glyph glyph-name="q" unicode="q" horiz-adv-x="1216" 
d="M597 305q75 0 121 48t46 119t-46 118t-121 47t-121 -48t-46 -117t46 -118t121 -49zM1108 942v-1341h-365v465q-100 -84 -229 -84q-197 0 -324 139t-127 349q1 210 133 350t330 141q158 0 283 -111l12 92h287z" />
    <glyph glyph-name="r" unicode="r" horiz-adv-x="833" 
d="M715 961q51 0 90 -9l-31 -393q-52 23 -120 23t-125.5 -50.5t-57.5 -152.5v-379h-367v942h302l12 -168q20 84 103 135.5t194 51.5z" />
    <glyph glyph-name="s" unicode="s" horiz-adv-x="1001" 
d="M470.5 -18q-232.5 0 -421.5 127l139 245q147 -111 322 -110q59 0 59 37q0 18 -24.5 30.5t-93 28.5t-109.5 28q-114 35 -181 97t-67 172q0 147 111.5 235.5t310.5 88.5q121 0 234.5 -32t185.5 -83l-131 -248q-147 94 -293 94q-63 0 -63 -39q0 -16 26.5 -25.5t99 -24.5
t104.5 -23.5t82 -32t81.5 -52t56.5 -78.5t25 -114q0 -145 -110.5 -233t-343 -88z" />
    <glyph glyph-name="t" unicode="t" horiz-adv-x="985" 
d="M636.5 -18q-194.5 0 -304 111.5t-109.5 299.5v240h-190v309h211v324h346v-324h315v-309h-315v-199q0 -121 129 -121q76 0 131 37l125 -270q-144 -98 -338.5 -98z" />
    <glyph glyph-name="u" unicode="u" horiz-adv-x="1206" 
d="M735 942h367v-942h-277l-8 113q-90 -131 -288.5 -131t-317.5 111.5t-119 305.5v543h369v-481q0 -72 38 -110t97 -38q139 0 139 172v457z" />
    <glyph glyph-name="v" unicode="v" horiz-adv-x="1161" 
d="M768 942h385l-448 -938h-236l-463 938h397l193 -440z" />
    <glyph glyph-name="w" unicode="w" horiz-adv-x="1724" 
d="M1339 942h373l-371 -942h-272l-203 483l-204 -483h-275l-377 942h385l170 -469l195 469h225l207 -477z" />
    <glyph glyph-name="x" unicode="x" horiz-adv-x="1081" 
d="M1075 0h-430l-119 229l-108 -229h-418l299 471l-293 471h430l99 -221l106 221h418l-299 -469z" />
    <glyph glyph-name="y" unicode="y" horiz-adv-x="1138" 
d="M760 942h375l-531 -1341h-358l164 432l-402 909h410l176 -510z" />
    <glyph glyph-name="z" unicode="z" horiz-adv-x="1050" 
d="M971 309v-309h-889v272l391 361h-375v309h856v-272l-391 -361h408z" />
    <glyph glyph-name="braceleft" unicode="{" horiz-adv-x="794" 
d="M528 483v-309q0 -80 43 -113t140 -32v-275q-227 0 -365 106t-137 279v400q0 36 -33 36h-119v273h119q33 0 33 37v389q0 176 137 285t365 108v-281q-96 0 -140 -31q-43 -32 -43 -108v-313l6 -107q-3 -51 -28 -76q-24 -24 -57 -42q41 -18 60 -46t22 -43q3 -16 0 -68t-3 -69
z" />
    <glyph glyph-name="bar" unicode="|" horiz-adv-x="567" 
d="M127 -236v1698h313v-1698h-313z" />
    <glyph glyph-name="braceright" unicode="}" horiz-adv-x="794" 
d="M618 573q-32 0 -32 -36v-398q0 -171 -138 -279t-366 -108v275q98 1 141 33t43 112v311q0 21 -3 57t-1 72q3 56 84 97q-41 23 -60 51t-23 44q-3 15 0 64t3 64v315q0 76 -43 108t-141 31v279q227 0 365 -109t139 -284v-389q0 -37 32 -37h119v-273h-119z" />
    <glyph glyph-name="asciitilde" unicode="~" horiz-adv-x="1144" 
d="M708 354q-64 0 -144 36q-81 36 -126 36q-80 0 -143 -64l-209 170l20 29q31 47 91 94q108 84 241 84q62 0 150 -38t135 -37q74 0 137 92l205 -166q-2 -2 -26 -41t-70 -84q-111 -111 -261 -111z" />
    <glyph glyph-name="uni00A0" unicode="&#xa0;" horiz-adv-x="444" 
 />
    <glyph glyph-name="exclamdown" unicode="&#xa1;" horiz-adv-x="614" 
d="M98 -399l70 1067h276l76 -1067h-422zM311 1126q89 0 151 -61t62 -149t-62 -152t-151 -64q-88 0 -150 64t-63 151q0 87 62 149t151 62z" />
    <glyph glyph-name="cent" unicode="&#xa2;" horiz-adv-x="1163" 
d="M836 -76h-340v246q-190 55 -308 206.5t-118 347.5t116.5 346.5t309.5 205.5v272h340v-258q129 -25 268 -119l-139 -272q-109 72 -235 72t-205 -68.5t-79 -177.5t79 -178.5t208 -69.5t230 76l143 -277q-2 0 -32 -19q-54 -34 -104 -57.5t-134 -41.5v-234z" />
    <glyph glyph-name="sterling" unicode="&#xa3;" horiz-adv-x="1245" 
d="M1169 299v-299h-1069v299h168v205h-168v282h166v183q-2 219 148 354t395 135q111 0 202 -31t129 -59t38 -33l-146 -266q-90 66 -186 57q-92 0 -154 -52t-61 -154l2 -134h381v-282h-379l2 -205h532z" />
    <glyph glyph-name="currency" unicode="&#xa4;" horiz-adv-x="1241" 
d="M621 571q69 0 109 43t40 112t-41 111t-109 42t-110 -42q-43 -42 -43 -111t43 -112t111 -43zM1069 724q0 -114 -43 -204l129 -125l-201 -198l-127 122q-91 -41 -207 -41t-204 44l-135 -129l-201 192l135 135q-41 94 -41 206t41 204l-135 135l201 192l131 -131
q96 45 212 45t207 -43l136 136l196 -199l-135 -135q41 -92 41 -206z" />
    <glyph glyph-name="yen" unicode="&#xa5;" horiz-adv-x="1515" 
d="M1268 815v-258h-326v-100h322v-256h-322v-201h-371v201h-342v256h342v100h-335v258h184l-369 625h426l297 -522l293 522h403l-372 -625h170z" />
    <glyph glyph-name="brokenbar" unicode="&#xa6;" horiz-adv-x="573" 
d="M131 -231v702h311v-702h-311zM131 760v702h311v-702h-311z" />
    <glyph glyph-name="section" unicode="&#xa7;" horiz-adv-x="1159" 
d="M471 721q0 -55 164 -100q80 25 80 81q0 36 -46 56t-137 41q-61 -29 -61 -78zM1057 717q0 -137 -94 -246q94 -90 94 -231q0 -186 -139 -297t-353 -111q-274 0 -502 164l115 260q193 -125 363 -125q82 0 129 25t47 65q0 50 -118 83q-26 7 -114 30q-261 67 -331 208
q-31 62 -31 144q0 141 86 256q-86 86 -86 221q0 184 133 300t342 116q260 0 459 -141l-123 -256q-168 104 -311 104q-76 0 -115 -28t-39 -56q0 -46 80 -79q31 -11 92 -29t102 -32t107 -46q66 -33 106 -70t70 -97q31 -60 31 -132z" />
    <glyph glyph-name="dieresis" unicode="&#xa8;" horiz-adv-x="958" 
d="M716 1096q-83 0 -138 54q-56 54 -58 139t55 139t141 54t138 -54q55 -54 57 -139t-55 -139t-140 -54zM245 1096q-83 0 -139 53q-55 53 -57 138t55 140q56 55 140 55t139 -54q55 -56 57 -141t-55 -138t-140 -53z" />
    <glyph glyph-name="copyright" unicode="&#xa9;" horiz-adv-x="1640" 
d="M852 365q-176 0 -277 95q-100 95 -100 252t100 253t277 96q119 0 217 -64l-61 -196q-76 43 -151 43t-113 -36t-38 -95t39 -96q39 -35 116 -35t157 45l59 -207q-92 -55 -225 -55zM823 233q205 -1 336 137t131 348t-131 347t-336 137t-339 -139t-134 -346t134 -345
t339 -139zM1563 719q0 -319 -209 -528t-532 -209q-322 0 -534 211t-212 526t212 527t534 212t532 -210q209 -210 209 -529z" />
    <glyph glyph-name="ordfeminine" unicode="&#xaa;" horiz-adv-x="913" 
d="M434 1268q51 0 85 32t34 83q0 52 -33 84t-86 32t-85 -32t-32 -84q0 -51 33 -83t84 -32zM366 1063q-116 0 -201 91t-85 230q0 140 89 234t220 94q90 0 160 -49l12 37h207v-625h-199l-6 66q-81 -78 -197 -78z" />
    <glyph glyph-name="guillemotleft" unicode="&#xab;" horiz-adv-x="1116" 
d="M715 139l-242 357l242 372h325l-252 -372l252 -357h-325zM295 139l-242 357l242 372h326l-250 -372l250 -357h-326z" />
    <glyph glyph-name="logicalnot" unicode="&#xac;" horiz-adv-x="1138" 
d="M117 795h893v-469h-287v188h-606v281z" />
    <glyph glyph-name="registered" unicode="&#xae;" horiz-adv-x="976" 
d="M490 956q108 0 188 70h-152l-63 109h-8v-109h-156q83 -70 191 -70zM455 1323v-61h32q39 0 39 30t-39 31h-32zM197 1247q0 -127 94 -215v430q-94 -88 -94 -215zM778 1250q0 120 -84 205t-202 85t-199 -76h203q96 0 149 -44t53 -128t-80 -129l80 -116q80 83 80 203z
M37 1248q0 188 131 320t318 132q188 0 320 -133t132 -319t-132 -316q-132 -131 -320 -131t-318 130q-131 130 -131 317z" />
    <glyph glyph-name="macron" unicode="&#xaf;" horiz-adv-x="747" 
d="M20 1112v279h707v-279h-707z" />
    <glyph glyph-name="degree" unicode="&#xb0;" horiz-adv-x="983" 
d="M494 985q80 0 127 49t47 130t-48 133q-48 53 -126 53t-127 -52t-49 -134q0 -81 48 -130t128 -49zM494 741q-199 0 -318 118t-119 313q0 194 119 310t318 116q200 0 316 -116t116 -310t-116 -313q-116 -118 -316 -118z" />
    <glyph glyph-name="plusminus" unicode="&#xb1;" horiz-adv-x="1060" 
d="M109 -20v258h843v-258h-843zM657 940h295v-272h-295v-306h-258v306h-290v272h290v307h258v-307z" />
    <glyph glyph-name="uni00B2" unicode="&#xb2;" horiz-adv-x="858" 
d="M758 963v-248h-664v153q4 0 49 29t114 84t113 110t44 115q0 102 -119 103q-70 0 -127 -29l-90 217q125 80 292 80t266 -80t99 -219q0 -102 -55 -184q-53 -70 -125 -131h203z" />
    <glyph glyph-name="uni00B3" unicode="&#xb3;" horiz-adv-x="778" 
d="M700 989q0 -129 -92 -207t-257 -78t-292 78l93 199q63 -45 164 -45t102 65q0 61 -96 62q-45 0 -72 -10l-60 141l158 125h-268v231h588v-172l-172 -151q96 -15 150 -79t54 -159z" />
    <glyph glyph-name="acute" unicode="&#xb4;" horiz-adv-x="724" 
d="M154 1012l-127 221l467 326l172 -297z" />
    <glyph glyph-name="paragraph" unicode="&#xb6;" horiz-adv-x="1536" 
d="M324 892q0 -138 80 -210t264 -78v567q-178 -5 -261 -73t-83 -206zM1374 1440v-1577h-287v1308h-133v-1308h-286v473q-289 8 -448 159t-159 397t161 393q161 146 446 155h706z" />
    <glyph glyph-name="periodcentered" unicode="&#xb7;" horiz-adv-x="583" 
d="M292 528q-90 0 -152 62t-62 151q0 87 62 149t152 62t151 -61q63 -61 63 -149t-62 -152q-62 -62 -152 -62z" />
    <glyph glyph-name="cedilla" unicode="&#xb8;" horiz-adv-x="571" 
d="M270 -494q-64 0 -126 20t-93 42l-31 20l74 152q78 -49 139 -49q86 0 86 57q0 63 -96 64q-35 0 -88 -13l-29 35l82 221h195l-49 -118q100 1 158 -57t59 -156q0 -98 -77 -158t-204 -60z" />
    <glyph glyph-name="uni00B9" unicode="&#xb9;" horiz-adv-x="628" 
d="M238 715v516l-140 -47l-69 246l372 129h107v-844h-270z" />
    <glyph glyph-name="ordmasculine" unicode="&#xba;" horiz-adv-x="829" 
d="M301 1379q0 -53 32 -85t84 -32t83 32q30 32 30 85q0 52 -30 84q-31 32 -83 32t-84 -32t-32 -84zM417 1055q-155 0 -248 88t-93 236q0 147 94 237t248 88t245 -90t91 -234t-91 -236q-91 -89 -246 -89z" />
    <glyph glyph-name="guillemotright" unicode="&#xbb;" horiz-adv-x="1122" 
d="M494 139l258 357l-258 372h333l240 -372l-240 -357h-333zM76 139l258 357l-258 372h334l241 -372l-241 -357h-334z" />
    <glyph glyph-name="onequarter" unicode="&#xbc;" horiz-adv-x="1738" 
d="M1337 0v154h-428v161l217 557l226 -79l-148 -410h133v203h250v-203h82v-229h-82v-154h-250zM264 600v514l-141 -45l-70 244l373 127h106v-840h-268zM633 -12l-256 114l616 1356l258 -123z" />
    <glyph glyph-name="onehalf" unicode="&#xbd;" horiz-adv-x="1822" 
d="M1737 248v-248h-664v154q4 0 49 28t114 84q157 125 157 227q0 101 -119 101q-70 0 -127 -29l-90 217q125 80 291 80t266 -80t100 -219q0 -102 -55 -184q-53 -70 -125 -131h203zM532 600h-268v514l-141 -45l-70 244l373 127h106v-840zM993 1458l258 -123l-618 -1347
l-256 114z" />
    <glyph glyph-name="threequarters" unicode="&#xbe;" horiz-adv-x="1794" 
d="M1655 383h82v-229h-82v-154h-250v154h-428v161l217 557l225 -79l-147 -410h133v203h250v-203zM700 879q0 -129 -92 -207t-257 -78t-292 78l93 198q63 -45 164 -45t102 66q0 61 -96 61q-45 0 -72 -10l-60 141l158 125h-268v232h588v-172l-172 -152q96 -16 150 -80t54 -157
zM1061 1458l258 -123l-619 -1347l-256 114z" />
    <glyph glyph-name="questiondown" unicode="&#xbf;" horiz-adv-x="964" 
d="M745 674v-88q0 -170 -104 -289q-43 -49 -87 -91q-107 -102 -105 -175q0 -115 140 -115t255 68l125 -273q-219 -125 -437 -125t-346 104q-127 104 -127 281q0 105 37 189t90 136t108 98q128 109 128 237v43h323zM584 1116q82 0 139 -58t57 -139t-57 -137t-139 -57
q-82 0 -139 56q-56 57 -56 139t56 139q57 57 139 57z" />
    <glyph glyph-name="Agrave" unicode="&#xc0;" horiz-adv-x="1480" 
d="M737 928l-166 -391h330zM1094 0l-99 242h-518l-98 -242h-402l648 1440h235l639 -1440h-405zM1055 1751l-74 -223l-588 143l105 322z" />
    <glyph glyph-name="Aacute" unicode="&#xc1;" horiz-adv-x="1480" 
d="M737 928l-166 -391h330zM1094 0l-99 242h-518l-98 -242h-402l648 1440h235l639 -1440h-405zM1071 1671l-588 -143l-73 223l557 242z" />
    <glyph glyph-name="Acircumflex" unicode="&#xc2;" horiz-adv-x="1480" 
d="M737 928l-166 -391h330zM1094 0l-99 242h-518l-98 -242h-402l648 1440h235l639 -1440h-405zM741 1671l-104 -121h-320l289 375h279l278 -375h-317z" />
    <glyph glyph-name="Atilde" unicode="&#xc3;" horiz-adv-x="1480" 
d="M737 928l-166 -391h330zM1094 0l-99 242h-518l-98 -242h-402l648 1440h235l639 -1440h-405zM516 1612.5q-22 -32.5 -22 -47.5l-207 170q0 24 35.5 73.5t69.5 79.5q82 74 200 74q76 0 161 -48t122 -48q69 0 91.5 31.5t22.5 48.5l207 -170q0 -27 -36 -75t-70 -79
q-80 -74 -199 -74q-76 0 -161 48.5t-138.5 48.5t-75.5 -32.5z" />
    <glyph glyph-name="Adieresis" unicode="&#xc4;" horiz-adv-x="1480" 
d="M737 928l-166 -391h330zM1094 0l-99 242h-518l-98 -242h-402l648 1440h235l639 -1440h-405zM481 1554q-84 0 -140 55.5t-58 140.5t56 141.5t142 56.5t140.5 -55.5t58.5 -140.5t-56.5 -141.5t-142.5 -56.5zM1001.5 1554q-83.5 0 -142 56.5t-58.5 141.5t58.5 141.5
t142 56.5t142 -56.5t58.5 -141.5t-58.5 -141.5t-142 -56.5z" />
    <glyph glyph-name="Aring" unicode="&#xc5;" horiz-adv-x="1480" 
d="M737 928l-166 -391h330zM1094 0l-99 242h-518l-98 -242h-402l648 1440h235l639 -1440h-405zM742 1849q-36 0 -58 -22.5t-22 -62.5t22.5 -64.5t57 -24.5t57 24.5t22.5 64.5t-21.5 62.5t-57.5 22.5zM741 1489q-127 0 -206.5 75.5t-79.5 195.5t80.5 197t205.5 77t205 -77
t80 -197t-79 -195.5t-206 -75.5z" />
    <glyph glyph-name="AE" unicode="&#xc6;" horiz-adv-x="1982" 
d="M881 582v481l-226 -481h226zM1876 1440v-344h-602v-211l516 4v-342l-516 -8v-197h602v-342h-995v254h-389l-121 -254h-408l721 1440h1192z" />
    <glyph glyph-name="Ccedilla" unicode="&#xc7;" horiz-adv-x="1361" 
d="M1108 -273.5q0 -93.5 -77 -158t-204 -64.5q-63 0 -124.5 20.5t-92.5 41.5l-30 20l71 150q125 -71 195 -38q28 13 34 35t-12 41q-48 53 -174 23l-28 35l57 156q-291 35 -470 239.5t-179 503.5t210 513t543 214q281 0 500 -143l-168 -307q-111 92 -288.5 92t-287.5 -102.5
t-110 -279.5t109.5 -279.5t296.5 -102.5q70 0 148.5 25.5t131.5 72.5l168 -307q-182 -119 -389 -139l-23 -54q88 -8 140.5 -61t52.5 -146.5z" />
    <glyph glyph-name="Egrave" unicode="&#xc8;" horiz-adv-x="1298" 
d="M535 338h657v-338h-1045v1440h1041v-340h-653v-205h573v-334h-573v-223zM999 1751l-73 -223l-588 143l104 322z" />
    <glyph glyph-name="Eacute" unicode="&#xc9;" horiz-adv-x="1298" 
d="M535 338h657v-338h-1045v1440h1041v-340h-653v-205h573v-334h-573v-223zM1016 1671l-588 -143l-74 223l557 242z" />
    <glyph glyph-name="Ecircumflex" unicode="&#xca;" horiz-adv-x="1298" 
d="M535 338h657v-338h-1045v1440h1041v-340h-653v-205h573v-334h-573v-223zM686 1671l-104 -121h-320l289 375h278l279 -375h-317z" />
    <glyph glyph-name="Edieresis" unicode="&#xcb;" horiz-adv-x="1298" 
d="M535 338h657v-338h-1045v1440h1041v-340h-653v-205h573v-334h-573v-223zM426 1554q-84 0 -140.5 55.5t-58.5 140.5t56.5 141.5t142.5 56.5t140.5 -55.5t58.5 -140.5t-56.5 -141.5t-142.5 -56.5zM946 1554q-84 0 -142.5 56.5t-55.5 140.5q-2 86 56 142.5t142 56.5
t142.5 -56.5t58.5 -141.5t-58.5 -141.5t-142.5 -56.5z" />
    <glyph glyph-name="Igrave" unicode="&#xcc;" horiz-adv-x="688" 
d="M147 0v1440h394v-1440h-394zM584 1528l-588 143l104 322l557 -242z" />
    <glyph glyph-name="Iacute" unicode="&#xcd;" horiz-adv-x="688" 
d="M147 0v1440h394v-1440h-394zM86 1528l-74 223l557 242l105 -322z" />
    <glyph glyph-name="Icircumflex" unicode="&#xce;" horiz-adv-x="688" 
d="M147 0v1440h394v-1440h-394zM344 1671l-104 -121h-320l289 375h278l279 -375h-317z" />
    <glyph glyph-name="Idieresis" unicode="&#xcf;" horiz-adv-x="688" 
d="M147 0v1440h394v-1440h-394zM84 1554q-84 0 -140.5 55.5t-58.5 140.5t56.5 141.5t142.5 56.5t140.5 -55.5t58.5 -140.5t-56.5 -141.5t-142.5 -56.5zM604 1554q-84 0 -142.5 56.5t-55.5 140.5q-2 86 56 142.5t142 56.5t142.5 -56.5t58.5 -141.5t-58.5 -141.5t-142.5 -56.5
z" />
    <glyph glyph-name="Eth" unicode="&#xd0;" horiz-adv-x="1595" 
d="M741 344q178 0 277.5 101.5t99.5 272.5t-99 274.5t-278 103.5h-202v-246h335v-246h-335v-260h202zM717 1440q371 0 586 -195.5t215 -523.5t-215.5 -524.5t-585.5 -196.5h-570v604h-120v246h120v590h570z" />
    <glyph glyph-name="Ntilde" unicode="&#xd1;" horiz-adv-x="1628" 
d="M1096 1440h383v-1454h-215l-732 800v-786h-382v1456h217l729 -782v766zM588 1613q-23 -32 -23 -48l-207 170q0 23 36 73t70 80q82 74 200 74q76 0 160.5 -48t121.5 -48q70 0 92.5 31.5t22.5 48.5l207 -170q0 -25 -36 -74t-70 -80q-81 -74 -199 -74q-76 0 -161 48.5
t-138 48.5t-76 -32z" />
    <glyph glyph-name="Ograve" unicode="&#xd2;" horiz-adv-x="1695" 
d="M851 330q161 0 265.5 112.5t104.5 283.5t-104.5 281.5t-266.5 110.5t-268.5 -110.5t-106.5 -281.5t107.5 -283.5t268.5 -112.5zM851 -25q-333 0 -554 216.5t-221 534.5t221 532.5t554 214.5t551 -211t218 -536t-218 -538t-551 -213zM1085 1528l-587 143l104 322l557 -242
z" />
    <glyph glyph-name="Oacute" unicode="&#xd3;" horiz-adv-x="1695" 
d="M851 330q161 0 265.5 112.5t104.5 283.5t-104.5 281.5t-266.5 110.5t-268.5 -110.5t-106.5 -281.5t107.5 -283.5t268.5 -112.5zM851 -25q-333 0 -554 216.5t-221 534.5t221 532.5t554 214.5t551 -211t218 -536t-218 -538t-551 -213zM588 1528l-74 223l557 242l105 -322z
" />
    <glyph glyph-name="Ocircumflex" unicode="&#xd4;" horiz-adv-x="1695" 
d="M851 330q161 0 265.5 112.5t104.5 283.5t-104.5 281.5t-266.5 110.5t-268.5 -110.5t-106.5 -281.5t107.5 -283.5t268.5 -112.5zM851 1473q333 0 551 -211t218 -536t-218 -538t-551 -213t-554 216.5t-221 534.5t221 532.5t554 214.5zM846 1671l-105 -121h-319l289 375h278
l279 -375h-318z" />
    <glyph glyph-name="Otilde" unicode="&#xd5;" horiz-adv-x="1695" 
d="M851 330q161 0 265.5 112.5t104.5 283.5t-104.5 281.5t-266.5 110.5t-268.5 -110.5t-106.5 -281.5t107.5 -283.5t268.5 -112.5zM851 -25q-333 0 -554 216.5t-221 534.5t221 532.5t554 214.5t551 -211t218 -536t-218 -538t-551 -213zM986.5 1548q-67.5 0 -152 48.5
t-121.5 48.5q-69 0 -92 -32t-23 -48l-207 170q0 23 36 73q35 50 69 80q81 74 200 74q76 0 161 -48t122 -48q70 0 92.5 32.5t22.5 47.5l206 -170q0 -26 -35.5 -74.5t-69.5 -79.5t-87.5 -52.5t-121 -21.5z" />
    <glyph glyph-name="Odieresis" unicode="&#xd6;" horiz-adv-x="1695" 
d="M851 330q161 0 265.5 112.5t104.5 283.5t-104.5 281.5t-266.5 110.5t-268.5 -110.5t-106.5 -281.5t107.5 -283.5t268.5 -112.5zM851 -25q-333 0 -554 216.5t-221 534.5t221 532.5t554 214.5t551 -211t218 -536t-218 -538t-551 -213zM586 1554q-84 0 -140.5 55.5
t-58.5 140.5t56.5 141.5t142.5 56.5t140 -55.5t58 -140.5t-56 -141.5t-142 -56.5zM1106 1554q-84 0 -142.5 56.5t-58.5 141.5t58.5 141.5t142.5 56.5t142.5 -56.5t58.5 -141.5t-58.5 -141.5t-142.5 -56.5z" />
    <glyph glyph-name="multiply" unicode="&#xd7;" horiz-adv-x="1122" 
d="M1057 885l-293 -287l280 -289l-200 -198l-283 288l-289 -282l-200 202l288 283l-284 289l203 203l284 -291l293 287z" />
    <glyph glyph-name="Oslash" unicode="&#xd8;" horiz-adv-x="1695" 
d="M852 330q160 0 264.5 112.5t104.5 282.5q0 109 -45 199l-439 -578q56 -16 115 -16zM475 725q0 -111 49 -203l443 580q-59 16 -115 16q-164 0 -270.5 -110.5t-106.5 -282.5zM1620 718.5q0 -317.5 -218 -530.5t-550 -213q-182 0 -342 72l-123 -160l-221 162l119 156
q-209 213 -209 526t221 527.5t555 214.5q188 0 342 -72l111 145l219 -166l-105 -137q201 -207 201 -524.5z" />
    <glyph glyph-name="Ugrave" unicode="&#xd9;" horiz-adv-x="1591" 
d="M795 -18q-307 0 -485.5 171t-178.5 492v795h391v-826q0 -117 65.5 -200.5t206 -83.5t208 85t67.5 199v826h391v-795q0 -322 -179 -492.5t-486 -170.5zM1032 1528l-588 143l105 322l557 -242z" />
    <glyph glyph-name="Uacute" unicode="&#xda;" horiz-adv-x="1591" 
d="M795 -18q-307 0 -485.5 171t-178.5 492v795h391v-826q0 -117 65.5 -200.5t206 -83.5t208 85t67.5 199v826h391v-795q0 -322 -179 -492.5t-486 -170.5zM535 1528l-74 223l557 242l104 -322z" />
    <glyph glyph-name="Ucircumflex" unicode="&#xdb;" horiz-adv-x="1591" 
d="M1069 1440h391v-795q0 -322 -179 -492.5t-486 -170.5t-485.5 171t-178.5 492v795h391v-826q0 -116 66 -200t206 -84t207.5 85t67.5 199v826zM793 1671l-105 -121h-319l288 375h279l278 -375h-317z" />
    <glyph glyph-name="Udieresis" unicode="&#xdc;" horiz-adv-x="1591" 
d="M795 -18q-307 0 -485.5 171t-178.5 492v795h391v-826q0 -117 65.5 -200.5t206 -83.5t208 85t67.5 199v826h391v-795q0 -322 -179 -492.5t-486 -170.5zM532.5 1554q-83.5 0 -140 55.5t-58.5 140.5t56.5 141.5t142 56.5t140 -55.5t58.5 -140.5t-56.5 -141.5t-142 -56.5z
M1053 1554q-84 0 -142.5 56.5t-58.5 141.5t58.5 141.5t142.5 56.5t142 -56.5t58 -141.5t-58 -141.5t-142 -56.5z" />
    <glyph glyph-name="Yacute" unicode="&#xdd;" horiz-adv-x="1435" 
d="M915 0h-395v559l-518 881h473l256 -500l260 500h449l-525 -879v-561zM1065 1671l-588 -143l-74 223l558 242z" />
    <glyph glyph-name="Thorn" unicode="&#xde;" horiz-adv-x="1396" 
d="M676 520q117 0 177 58t60 124t-60 124t-177 59h-117v-365h117zM702 1253q293 -1 461 -157t168 -394t-168 -394t-461 -156h-143v-152h-412v1440h412v-187h143z" />
    <glyph glyph-name="germandbls" unicode="&#xdf;" horiz-adv-x="1204" 
d="M698 297q66 0 101 36t35 91t-38 90t-108 35h-121v278h6q82 0 116 43q34 42 34 100t-36 94t-91 36t-90 -36t-35 -97v-967h-367v999q0 201 136 330t351 129q216 0 344 -124t128 -295t-111 -269q229 -100 230 -362q0 -203 -117 -315t-307 -111q-150 0 -242 47l68 293
q48 -25 114 -25z" />
    <glyph glyph-name="agrave" unicode="&#xe0;" horiz-adv-x="1218" 
d="M597 305q75 0 121 48t46 119t-46 118t-121 47t-121 -48t-46 -117t46 -118t121 -49zM1114 942v-942h-326l-14 96q-111 -115 -260 -114q-197 0 -324 139t-127 349t133.5 350.5t329.5 140.5q133 0 230 -80l14 61h344zM942 1233l-127 -221l-512 250l172 297z" />
    <glyph glyph-name="aacute" unicode="&#xe1;" horiz-adv-x="1218" 
d="M597 305q75 0 121 48t46 119t-46 118t-121 47t-121 -48t-46 -117t46 -118t121 -49zM1114 942v-942h-326l-14 96q-111 -115 -260 -114q-197 0 -324 139t-127 349t133.5 350.5t329.5 140.5q133 0 230 -80l14 61h344zM954 1262l-512 -250l-127 221l467 326z" />
    <glyph glyph-name="acircumflex" unicode="&#xe2;" horiz-adv-x="1218" 
d="M597 305q75 0 121 48t46 119t-46 118t-121 47t-121 -48t-46 -117t46 -118t121 -49zM1114 942v-942h-326l-14 96q-111 -115 -260 -114q-197 0 -324 139t-127 349t133.5 350.5t329.5 140.5q133 0 230 -80l14 61h344zM625 1225l-105 -144h-282l251 396h279l242 -396h-281z
" />
    <glyph glyph-name="atilde" unicode="&#xe3;" horiz-adv-x="1218" 
d="M597 305q75 0 121 48t46 119t-46 118t-121 47t-121 -48t-46 -117t46 -118t121 -49zM1114 942v-942h-326l-14 96q-111 -115 -260 -114q-197 0 -324 139t-127 349t133.5 350.5t329.5 140.5q133 0 230 -80l14 61h344zM399.5 1129.5q-22.5 -31.5 -22.5 -48.5l-207 170
q0 18 29.5 68.5t102.5 105t159 54.5t174 -48.5t124 -48.5q69 0 91 32t22 48l207 -170q-1 -31 -71 -121q-34 -43 -93 -74.5t-135 -31.5t-165 48t-141 48t-74.5 -31.5z" />
    <glyph glyph-name="adieresis" unicode="&#xe4;" horiz-adv-x="1218" 
d="M597 305q75 0 121 48t46 119t-46 118t-121 47t-121 -48t-46 -117t46 -118t121 -49zM1114 942v-942h-326l-14 96q-111 -115 -260 -114q-197 0 -324 139t-127 349t133.5 350.5t329.5 140.5q133 0 230 -80l14 61h344zM859 1096q-83 0 -138 54t-57 139t55 139.5t140 54.5
t138.5 -54.5t57.5 -139.5t-55.5 -139t-140.5 -54zM388 1096q-83 0 -138 53t-57 138t55 140.5t140 55.5t138.5 -55.5t57.5 -140.5t-55.5 -138t-140.5 -53z" />
    <glyph glyph-name="aring" unicode="&#xe5;" horiz-adv-x="1218" 
d="M597 305q75 0 121 48t46 119t-46 118t-121 47t-121 -48t-46 -117t46 -118t121 -49zM1114 942v-942h-326l-14 96q-111 -115 -260 -114q-197 0 -324 139t-127 349t133.5 350.5t329.5 140.5q133 0 230 -80l14 61h344zM625 1401q-35 0 -56.5 -23.5t-21.5 -61.5t22.5 -63.5
t56.5 -25.5t55 25.5t21 62.5q1 86 -77 86zM625 1042q-125 0 -206 76t-81 195t81 194.5t206 75.5t204.5 -75.5t79.5 -194.5t-79.5 -195t-204.5 -76z" />
    <glyph glyph-name="ae" unicode="&#xe6;" horiz-adv-x="1943" 
d="M597 305q75 0 121 48t46 119t-46 118t-121 47t-121 -48t-46 -117t46 -118t121 -49zM1401 688q-121 0 -156 -104h291q-14 104 -135 104zM1458 262q125 0 230 78l139 -225q-47 -49 -147 -91t-248 -42q-193 0 -330 110l-21 -92h-282l-19 84q-109 -102 -266 -102
q-197 0 -324 139t-127 349q-1 210 133 350t330 141q156 0 260 -89l13 70h282l15 -88q133 106 309 107q221 1 349 -139t128 -363l-4 -80h-631q45 -117 211 -117z" />
    <glyph glyph-name="ccedilla" unicode="&#xe7;" horiz-adv-x="1001" 
d="M874 -276q0 -98 -76.5 -158t-203.5 -60q-63 0 -125.5 20.5t-93.5 41.5l-31 20l74 152q78 -49 139 -49q86 0 86 57q0 63 -96 64q-35 0 -88 -13l-29 35l57 156q-188 33 -307 167t-119 327.5t150.5 335t365 141.5t377.5 -109l-141 -279q-80 55 -174 55.5t-147.5 -43.5
t-53.5 -114t53.5 -114t148.5 -44t175 58l146 -279q-121 -86 -283 -104l-21 -51q100 0 158.5 -57.5t58.5 -155.5z" />
    <glyph glyph-name="egrave" unicode="&#xe8;" horiz-adv-x="1122" 
d="M579 688q-121 0 -155 -104h291q-15 104 -136 104zM637 262q125 0 229 78l140 -225q-47 -49 -149.5 -91t-262.5 -42q-240 0 -386.5 140t-146.5 354t142.5 349.5t366.5 135.5t357.5 -140.5t133.5 -361.5l-4 -80h-631q45 -117 211 -117zM885 1233l-127 -221l-512 250
l172 297z" />
    <glyph glyph-name="eacute" unicode="&#xe9;" horiz-adv-x="1122" 
d="M579 688q-121 0 -155 -104h291q-15 104 -136 104zM637 262q125 0 229 78l140 -225q-47 -49 -149.5 -91t-262.5 -42q-240 0 -386.5 140t-146.5 354t142.5 349.5t366.5 135.5t357.5 -140.5t133.5 -361.5l-4 -80h-631q45 -117 211 -117zM897 1262l-512 -250l-127 221
l467 326z" />
    <glyph glyph-name="ecircumflex" unicode="&#xea;" horiz-adv-x="1122" 
d="M579 688q-121 0 -155 -104h291q-15 104 -136 104zM637 262q125 0 229 78l140 -225q-47 -49 -149.5 -91t-262.5 -42q-240 0 -386.5 140t-146.5 354t142.5 349.5t366.5 135.5t357.5 -140.5t133.5 -361.5l-4 -80h-631q45 -117 211 -117zM567 1225l-104 -144h-283l252 396
h279l241 -396h-280z" />
    <glyph glyph-name="edieresis" unicode="&#xeb;" horiz-adv-x="1122" 
d="M579 688q-121 0 -155 -104h291q-15 104 -136 104zM637 262q125 0 229 78l140 -225q-47 -49 -149.5 -91t-262.5 -42q-240 0 -386.5 140t-146.5 354t142.5 349.5t366.5 135.5t357.5 -140.5t133.5 -361.5l-4 -80h-631q45 -117 211 -117zM802 1096q-83 0 -138.5 54t-57.5 139
t55.5 139.5t140.5 54.5t138 -54.5t57 -139.5t-55 -139t-140 -54zM331 1096q-83 0 -138.5 53t-57.5 138t55.5 140.5t140.5 55.5t138 -55.5t57 -140.5t-55 -138t-140 -53z" />
    <glyph glyph-name="igrave" unicode="&#xec;" horiz-adv-x="577" 
d="M104 0v942h369v-942h-369zM477 1012l-512 250l172 297l467 -326z" />
    <glyph glyph-name="iacute" unicode="&#xed;" horiz-adv-x="577" 
d="M104 0v942h369v-942h-369zM104 1012l-127 221l467 326l172 -297z" />
    <glyph glyph-name="icircumflex" unicode="&#xee;" horiz-adv-x="577" 
d="M104 0v942h369v-942h-369zM287 1225l-105 -144h-282l252 396h278l242 -396h-281z" />
    <glyph glyph-name="idieresis" unicode="&#xef;" horiz-adv-x="577" 
d="M104 0v942h369v-942h-369zM521 1096q-83 0 -138 54t-57 139t55 139.5t140 54.5t138.5 -54.5t57.5 -139.5t-55.5 -139t-140.5 -54zM50 1096q-83 0 -138 53t-57 138t55 140.5t140 55.5t138.5 -55.5t57.5 -140.5t-55.5 -138t-140.5 -53z" />
    <glyph glyph-name="eth" unicode="&#xf0;" horiz-adv-x="1220" 
d="M609 303q89 0 141 43q51 43 51 122t-51 126q-50 47 -140 47t-145 -46t-55 -122t55 -123t144 -47zM1151 584q-1 -274 -149 -438t-392 -164t-396 137q-151 137 -151 348t128 339t327 128q74 0 150 -21q-61 63 -156 131l-88 -92l-150 125l70 72q-18 9 -56 29t-59 30l199 254
q98 -53 143 -80l109 113l149 -127l-92 -94q414 -301 414 -690z" />
    <glyph glyph-name="ntilde" unicode="&#xf1;" horiz-adv-x="1222" 
d="M683 961q204 0 324.5 -122t120.5 -319v-520h-368v444q0 76 -39 121t-104 45t-104.5 -44t-39.5 -128v-438h-369v942h273l10 -119q92 138 296 138zM393 1129.5q-22 -31.5 -22 -48.5l-207 170q0 18 29.5 68.5t102.5 105t159 54.5t174 -48.5t124 -48.5q69 0 91 32t22 48
l207 -170q-1 -31 -71 -121q-34 -43 -93 -74.5t-135 -31.5t-165 48t-141.5 48t-74.5 -31.5z" />
    <glyph glyph-name="ograve" unicode="&#xf2;" horiz-adv-x="1171" 
d="M587 299q75 0 121 49t46 124t-45 124t-121 49t-122 -49t-46 -123t46 -124t121 -50zM586 -23q-221 0 -373 140.5t-152 354.5t152 354.5t373 140.5t371.5 -140.5t150.5 -354.5t-150.5 -354.5t-371.5 -140.5zM776 1012l-512 250l172 297l467 -326z" />
    <glyph glyph-name="oacute" unicode="&#xf3;" horiz-adv-x="1171" 
d="M587 299q75 0 121 49t46 124t-45 124t-121 49t-122 -49t-46 -123t46 -124t121 -50zM586 -23q-221 0 -373 140.5t-152 354.5t152 354.5t373 140.5t371.5 -140.5t150.5 -354.5t-150.5 -354.5t-371.5 -140.5zM403 1012l-127 221l467 326l172 -297z" />
    <glyph glyph-name="ocircumflex" unicode="&#xf4;" horiz-adv-x="1171" 
d="M587 299q75 0 121 49t46 124t-45 124t-121 49t-122 -49t-46 -123t46 -124t121 -50zM586 967q221 0 371.5 -140.5t150.5 -354.5t-150.5 -354.5t-371.5 -140.5t-373 140.5t-152 354.5t152 354.5t373 140.5zM586 1225l-105 -144h-282l252 396h278l242 -396h-281z" />
    <glyph glyph-name="otilde" unicode="&#xf5;" horiz-adv-x="1171" 
d="M587 299q75 0 121 49t46 124t-45 124t-121 49t-122 -49t-46 -123t46 -124t121 -50zM586 -23q-221 0 -373 140.5t-152 354.5t152 354.5t373 140.5t371.5 -140.5t150.5 -354.5t-150.5 -354.5t-371.5 -140.5zM742 1065q-76 0 -165.5 48t-125.5 48q-68 0 -90.5 -31.5
t-22.5 -48.5l-207 170q0 18 29.5 68.5t102.5 105t159 54.5t174 -48.5t124 -48.5q69 0 91.5 33t22.5 47l206 -170q0 -10 -18 -44t-52 -77t-93 -74.5t-135 -31.5z" />
    <glyph glyph-name="odieresis" unicode="&#xf6;" horiz-adv-x="1171" 
d="M587 299q75 0 121 49t46 124t-45 124t-121 49t-122 -49t-46 -123t46 -124t121 -50zM586 -23q-221 0 -373 140.5t-152 354.5t152 354.5t373 140.5t371.5 -140.5t150.5 -354.5t-150.5 -354.5t-371.5 -140.5zM820 1096q-83 0 -138 54t-57 139t55 139.5t140 54.5t138.5 -54.5
t57.5 -139.5t-55.5 -139t-140.5 -54zM349 1096q-83 0 -138 53t-57 138t55 140.5t140 55.5t138.5 -55.5t57.5 -140.5t-55.5 -138t-140.5 -53z" />
    <glyph glyph-name="divide" unicode="&#xf7;" horiz-adv-x="1224" 
d="M610 23q-78 0 -122 46t-44 124q0 77 44 123t122 46t124 -46t46 -124t-46 -123q-46 -46 -124 -46zM106 455v286h1012v-286h-1012zM610 840q-78 0 -122 46t-44 123t44 121t122 46q78 0 124 -44t46 -122t-46 -124t-124 -46z" />
    <glyph glyph-name="oslash" unicode="&#xf8;" horiz-adv-x="1171" 
d="M587 299q75 0 121 49t46 124t-45 124t-121 49t-122 -49t-46 -123t46 -124t121 -50zM1108 455.5q0 -197.5 -150.5 -338t-371.5 -140.5q-106 0 -211 39l-105 -131l-188 148l96 121q-117 133 -117 332.5t152 340t373 140.5q115 0 215 -41l102 129l184 -150l-94 -117
q115 -135 115 -332.5z" />
    <glyph glyph-name="ugrave" unicode="&#xf9;" horiz-adv-x="1206" 
d="M735 942h367v-942h-277l-8 113q-90 -131 -288.5 -131t-317.5 111.5t-119 305.5v543h369v-481q0 -72 38 -110t97 -38q139 0 139 172v457zM915 1233l-127 -221l-512 250l173 297z" />
    <glyph glyph-name="uacute" unicode="&#xfa;" horiz-adv-x="1206" 
d="M735 942h367v-942h-277l-8 113q-90 -131 -288.5 -131t-317.5 111.5t-119 305.5v543h369v-481q0 -72 38 -110t97 -38q139 0 139 172v457zM928 1262l-512 -250l-127 221l467 326z" />
    <glyph glyph-name="ucircumflex" unicode="&#xfb;" horiz-adv-x="1206" 
d="M735 942h367v-942h-277l-8 113q-90 -131 -288.5 -131t-317.5 111.5t-119 305.5v543h369v-481q0 -72 38 -110t97 -38q139 0 139 172v457zM598 1225l-104 -144h-283l252 396h278l242 -396h-281z" />
    <glyph glyph-name="udieresis" unicode="&#xfc;" horiz-adv-x="1206" 
d="M735 942h367v-942h-277l-8 113q-90 -131 -288.5 -131t-317.5 111.5t-119 305.5v543h369v-481q0 -72 38 -110t97 -38q139 0 139 172v457zM833 1096q-83 0 -138.5 54t-57.5 139t55.5 139.5t140.5 54.5t138 -54.5t57 -139.5t-55 -139t-140 -54zM361 1096q-83 0 -138 53
t-57 138t55.5 140.5t140 55.5t138 -55.5t57.5 -140.5t-55.5 -138t-140.5 -53z" />
    <glyph glyph-name="yacute" unicode="&#xfd;" horiz-adv-x="1138" 
d="M760 942h375l-531 -1341h-358l164 432l-402 909h410l176 -510zM924 1262l-512 -250l-127 221l467 326z" />
    <glyph glyph-name="thorn" unicode="&#xfe;" horiz-adv-x="1218" 
d="M620 313q76 0 120 45t44 114t-45 113t-121 44t-119 -43q-44 -43 -44 -113t45 -115t120 -45zM104 -399v1861h357v-561q106 59 231 60q199 -1 330 -141t131 -350t-126 -349t-322 -139q-147 0 -261 90v-471h-340z" />
    <glyph glyph-name="ydieresis" unicode="&#xff;" horiz-adv-x="1138" 
d="M760 942h375l-531 -1341h-358l164 432l-402 909h410l176 -510zM828 1096q-83 0 -138 54t-57 139t55 139.5t140 54.5t138.5 -54.5t57.5 -139.5t-55.5 -139t-140.5 -54zM357 1096q-83 0 -138 53t-57 138t55 140.5t140 55.5t138.5 -55.5t57.5 -140.5t-55.5 -138t-140.5 -53z
" />
    <glyph glyph-name="Amacron" unicode="&#x100;" horiz-adv-x="1480" 
d="M737 928l-166 -391h330zM1094 0l-99 242h-518l-98 -242h-402l648 1440h235l639 -1440h-405zM1167 1858v-279h-852v279h852z" />
    <glyph glyph-name="amacron" unicode="&#x101;" horiz-adv-x="1218" 
d="M597 305q75 0 121 48t46 119t-46 118t-121 47t-121 -48t-46 -117t46 -118t121 -49zM1114 942v-942h-326l-14 96q-111 -115 -260 -114q-197 0 -324 139t-127 349t133.5 350.5t329.5 140.5q133 0 230 -80l14 61h344zM977 1391v-279h-707v279h707z" />
    <glyph glyph-name="Abreve" unicode="&#x102;" horiz-adv-x="1480" 
d="M737 928l-166 -391h330zM1094 0l-99 242h-518l-98 -242h-402l648 1440h235l639 -1440h-405zM739 1546q-176 0 -285.5 102.5t-109.5 276.5h277q0 -61 32.5 -99t86.5 -38t87 38t33 99h279q0 -174 -112 -276.5t-288 -102.5z" />
    <glyph glyph-name="abreve" unicode="&#x103;" horiz-adv-x="1218" 
d="M597 305q75 0 121 48t46 119t-46 118t-121 47t-121 -48t-46 -117t46 -118t121 -49zM1114 942v-942h-326l-14 96q-111 -115 -260 -114q-197 0 -324 139t-127 349t133.5 350.5t329.5 140.5q133 0 230 -80l14 61h344zM623 1081q-170 0 -275.5 102.5t-105.5 278.5h276
q0 -66 28.5 -104.5t76 -38.5t76 39t28.5 104h279q0 -176 -106.5 -278.5t-276.5 -102.5z" />
    <glyph glyph-name="Aogonek" unicode="&#x104;" horiz-adv-x="1480" 
d="M737 928l-166 -391h330zM1014 -262q0 145 147 262h-67l-99 242h-518l-98 -242h-402l648 1440h235l639 -1440h-65q-57 -26 -106.5 -78.5t-49.5 -95.5q0 -70 78 -76q29 0 49 12l88 -184q-94 -66 -214 -65.5t-192.5 60.5t-72.5 165z" />
    <glyph glyph-name="aogonek" unicode="&#x105;" horiz-adv-x="1218" 
d="M597 305q75 0 121 48t46 119t-46 118t-121 47t-121 -48t-46 -117t46 -118t121 -49zM694 -262q0 145 129 262h-35l-14 96q-111 -115 -260 -114q-197 0 -324 139t-127 349t133.5 350.5t329.5 140.5q133 0 230 -80l14 61h344v-942q-57 -26 -106.5 -78.5t-49.5 -95.5
q0 -70 78 -76q29 0 49 12l89 -184q-94 -66 -214.5 -65.5t-193 60.5t-72.5 165z" />
    <glyph glyph-name="Cacute" unicode="&#x106;" horiz-adv-x="1361" 
d="M827 -18q-332 0 -542.5 212t-210.5 524t210 526t543 214q281 0 500 -143l-168 -307q-111 92 -288.5 92t-287.5 -102.5t-110 -279.5t109.5 -279.5t296.5 -102.5q70 0 149 26t131 72l168 -307q-55 -37 -91 -57.5t-156 -54t-253 -33.5zM547 1528l-74 223l557 242l105 -322z
" />
    <glyph glyph-name="cacute" unicode="&#x107;" horiz-adv-x="1001" 
d="M585 -18q-220 0 -372 141t-152 348t150.5 348.5t365 141.5t377.5 -109l-141 -279q-80 55 -174 55.5t-147.5 -43.5t-53.5 -114t53.5 -114t148.5 -44t175 58l146 -279q-156 -110 -376 -110zM369 1012l-127 221l467 326l172 -297z" />
    <glyph glyph-name="Cdotaccent" unicode="&#x10a;" horiz-adv-x="1361" 
d="M827 -18q-332 0 -542.5 212t-210.5 524t210 526t543 214q281 0 500 -143l-168 -307q-111 92 -288.5 92t-287.5 -102.5t-110 -279.5t109.5 -279.5t296.5 -102.5q70 0 148.5 25.5t131.5 72.5l168 -307q-55 -37 -91 -57.5t-156 -54t-253 -33.5zM805 1542q-90 0 -151.5 59.5
t-61.5 152.5t62.5 150.5t152.5 57.5t150.5 -60.5t60.5 -151.5t-61.5 -149.5t-151.5 -58.5z" />
    <glyph glyph-name="cdotaccent" unicode="&#x10b;" horiz-adv-x="1001" 
d="M585 -18q-220 0 -372 141t-152 348t150.5 348.5t365 141.5t377.5 -109l-141 -279q-80 55 -174 55.5t-147.5 -43.5t-53.5 -114t53.5 -114t148.5 -44t175 58l146 -279q-156 -110 -376 -110zM550 1092q-87 0 -147.5 59t-60.5 148t60.5 145.5t148.5 56.5t147.5 -58.5
t59.5 -147.5t-60.5 -146t-147.5 -57z" />
    <glyph glyph-name="Ccaron" unicode="&#x10c;" horiz-adv-x="1361" 
d="M879 336q70 0 149 26t131 72l168 -307q-55 -37 -91 -57.5t-155.5 -54t-253.5 -33.5q-332 0 -542.5 212t-210.5 524t210 526t543 214q281 0 500 -143l-168 -307q-111 92 -288.5 92t-287.5 -102.5t-110 -279.5t110 -279.5t296 -102.5zM938 1552h-279l-278 375h317l105 -121
l104 121h320z" />
    <glyph glyph-name="ccaron" unicode="&#x10d;" horiz-adv-x="1001" 
d="M61 471q0 207 150.5 348.5t365 141.5t377.5 -109l-141 -279q-80 55 -174 55.5t-147.5 -43.5t-53.5 -114t53.5 -114t148.5 -43.5t175 57.5l146 -279q-156 -111 -376 -110.5t-372 141.5t-152 348zM684 1085h-278l-238 377h276l105 -133l104 133h279z" />
    <glyph glyph-name="Dcaron" unicode="&#x10e;" horiz-adv-x="1595" 
d="M741 344q178 0 277.5 101.5t99.5 272.5t-99 274.5t-278 103.5h-202v-752h202zM717 1440q371 0 586 -195.5t215 -523.5t-215.5 -524.5t-585.5 -196.5h-570v1440h570zM893 1550h-279l-278 375h317l105 -121l104 121h320z" />
    <glyph glyph-name="dcaron" unicode="&#x10f;" horiz-adv-x="1415" 
d="M599 313q75 0 119 44t45 112t-44 114t-120 46t-120 -45t-45 -114t45 -113t120 -44zM1323 1083q-68 0 -112 47.5t-47 132t58.5 142t157.5 57.5t155.5 -59.5t61.5 -155.5q2 -139 -76.5 -261t-209.5 -181l-94 113q135 96 135 167q-6 -2 -29 -2zM526 -18q-199 0 -331 140
t-132 350t127 349.5t324 139.5q129 0 229 -72v573h369v-1462h-293l-10 82q-131 -100 -283 -100z" />
    <glyph glyph-name="Dcroat" unicode="&#x110;" horiz-adv-x="1595" 
d="M741 344q178 0 277.5 101.5t99.5 272.5t-99 274.5t-278 103.5h-202v-246h335v-246h-335v-260h202zM717 1440q371 0 586 -195.5t215 -523.5t-215.5 -524.5t-585.5 -196.5h-570v604h-120v246h120v590h570z" />
    <glyph glyph-name="dcroat" unicode="&#x111;" horiz-adv-x="1214" 
d="M597 305q75 0 121 48t46 119t-46 118t-121 47t-121 -48t-46 -117t46 -118t121 -49zM1229 1317v-246h-121v-1071h-287l-12 92q-125 -111 -283 -110q-199 0 -331 140t-132 350t127 349.5t324 139.5q127 0 229 -82v192h-266v246h266v145h365v-145h121z" />
    <glyph glyph-name="Emacron" unicode="&#x112;" horiz-adv-x="1298" 
d="M535 338h657v-338h-1045v1440h1041v-340h-653v-205h573v-334h-573v-223zM1112 1858v-279h-852v279h852z" />
    <glyph glyph-name="emacron" unicode="&#x113;" horiz-adv-x="1122" 
d="M579 688q-121 0 -155 -104h291q-15 104 -136 104zM637 262q125 0 229 78l140 -225q-47 -49 -149.5 -91t-262.5 -42q-240 0 -386.5 140t-146.5 354t142.5 349.5t366.5 135.5t357.5 -140.5t133.5 -361.5l-4 -80h-631q45 -117 211 -117zM920 1391v-279h-707v279h707z" />
    <glyph glyph-name="Edotaccent" unicode="&#x116;" horiz-adv-x="1298" 
d="M535 338h657v-338h-1045v1440h1041v-340h-653v-205h573v-334h-573v-223zM686 1542q-90 0 -151.5 59.5t-61.5 152.5t62.5 150.5t152.5 57.5t150.5 -60.5t60.5 -151.5t-61.5 -149.5t-151.5 -58.5z" />
    <glyph glyph-name="edotaccent" unicode="&#x117;" horiz-adv-x="1122" 
d="M579 688q-121 0 -155 -104h291q-15 104 -136 104zM637 262q125 0 229 78l140 -225q-47 -49 -149.5 -91t-262.5 -42q-240 0 -386.5 140t-146.5 354t142.5 349.5t366.5 135.5t357.5 -140.5t133.5 -361.5l-4 -80h-631q45 -117 211 -117zM566 1092q-87 0 -147.5 59t-60.5 148
t60.5 145.5t148.5 56.5t147.5 -58.5t59.5 -147.5t-60.5 -146t-147.5 -57z" />
    <glyph glyph-name="Eogonek" unicode="&#x118;" horiz-adv-x="1298" 
d="M768 -262q0 145 147 262h-768v1440h1041v-340h-653v-205h573v-334h-573v-223h657v-338h-4q-57 -26 -106.5 -78.5t-49.5 -95.5q0 -70 78 -76q29 0 49 12l88 -184q-94 -66 -214 -65.5t-192.5 60.5t-72.5 165z" />
    <glyph glyph-name="eogonek" unicode="&#x119;" horiz-adv-x="1122" 
d="M579 688q-121 0 -155 -104h291q-15 104 -136 104zM851 -373q-120 0 -192.5 60.5t-72.5 165.5q0 68 28 129h-20q-240 0 -386.5 140t-146.5 354t142.5 349.5t366.5 135.5t357.5 -140.5t133.5 -361.5l-4 -80h-631q45 -117 211 -117q125 0 229 78l140 -225q-39 -39 -101 -70
q-55 -51 -55 -104q0 -70 78 -76q26 0 49 12l88 -184q-94 -66 -214 -66z" />
    <glyph glyph-name="Ecaron" unicode="&#x11a;" horiz-adv-x="1298" 
d="M535 338h657v-338h-1045v1440h1041v-340h-653v-205h573v-334h-573v-223zM819 1552h-278l-279 375h318l104 -121l104 121h320z" />
    <glyph glyph-name="ecaron" unicode="&#x11b;" horiz-adv-x="1122" 
d="M579 688q-121 0 -155 -104h291q-15 104 -136 104zM637 262q125 0 229 78l140 -225q-47 -49 -149.5 -91t-262.5 -42q-240 0 -386.5 140t-146.5 354t142.5 349.5t366.5 135.5t357.5 -140.5t133.5 -361.5l-4 -80h-631q45 -117 211 -117zM700 1085h-278l-238 377h277
l104 -133l105 133h278z" />
    <glyph glyph-name="Gbreve" unicode="&#x11e;" horiz-adv-x="1519" 
d="M1065 768h358v-600q-72 -70 -217 -128t-362 -58q-334 0 -552 210t-218 522t221 528t556 216t542 -143l-170 -311q-150 96 -337 96t-297 -104.5t-110 -278.5t111.5 -280.5t277.5 -106.5q119 0 197 35v403zM840 1546q-176 0 -286 102.5t-110 276.5h277q0 -61 32.5 -99
t86.5 -38t87.5 38t33.5 99h278q0 -174 -111.5 -276.5t-287.5 -102.5z" />
    <glyph glyph-name="gbreve" unicode="&#x11f;" horiz-adv-x="1210" 
d="M597 305q75 0 121 48t46 119t-46 118t-121 47t-121 -48t-46 -117t46 -118t121 -49zM1106 938v-868q0 -217 -142.5 -352.5t-390.5 -135.5q-186 0 -288.5 36t-184.5 99l154 238q109 -74 293 -74q86 0 143.5 36t57.5 95v68q-96 -76 -230 -76q-203 0 -329 129t-126 339
t128 349.5t331 139.5q162 0 285 -107l8 84h291zM612 1081q-170 0 -275.5 102.5t-105.5 278.5h277q0 -66 28.5 -104.5t75.5 -38.5t76 39t29 104h278q0 -176 -106.5 -278.5t-276.5 -102.5z" />
    <glyph glyph-name="Gdotaccent" unicode="&#x120;" horiz-adv-x="1519" 
d="M1065 768h358v-600q-72 -70 -217 -128t-362 -58q-334 0 -552 209.5t-218 522t221 528.5t556 216t542 -143l-170 -311q-150 96 -337 96t-297 -104.5t-110 -278.5t111.5 -280.5t277.5 -106.5q119 0 197 35v403zM842 1542q-90 0 -151.5 59.5t-61.5 152.5t62.5 150.5
t152.5 57.5t150.5 -60.5t60.5 -151.5t-61.5 -149.5t-151.5 -58.5z" />
    <glyph glyph-name="gdotaccent" unicode="&#x121;" horiz-adv-x="1210" 
d="M597 305q75 0 121 48t46 119t-46 118t-121 47t-121 -48t-46 -117t46 -118t121 -49zM1106 938v-868q0 -217 -142.5 -352.5t-390.5 -135.5q-186 0 -288.5 36t-184.5 99l154 238q109 -74 293 -74q86 0 143.5 36t57.5 95v68q-96 -76 -230 -76q-203 0 -329 129t-126 339
t128 349.5t331 139.5q162 0 285 -107l8 84h291zM613 1092q-87 0 -147 59t-60 148t60 145.5t148 56.5t147.5 -58.5t59.5 -147.5t-60.5 -146t-147.5 -57z" />
    <glyph glyph-name="Gcommaaccent" unicode="&#x122;" horiz-adv-x="1519" 
d="M867 -51q85 0 138.5 -52.5t53.5 -150.5t-68.5 -197.5t-181.5 -146.5l-78 92q96 74 100 139q-6 -2 -18 -2q-57 0 -96 41t-41 112t52 118t139 47zM1065 768h358v-600q-72 -70 -217 -128t-362 -58q-334 0 -552 209.5t-218 522t221 528.5t556 216t542 -143l-170 -311
q-150 96 -337 96t-297 -104.5t-110 -278.5t111.5 -280.5t277.5 -106.5q119 0 197 35v403z" />
    <glyph glyph-name="gcommaaccent" unicode="&#x123;" horiz-adv-x="1210" 
d="M597 305q75 0 121 48t46 119t-46 118t-121 47t-121 -48t-46 -117t46 -118t121 -49zM1106 938v-868q0 -217 -142.5 -352.5t-390.5 -135.5q-186 0 -288.5 36t-184.5 99l154 238q109 -74 293 -74q86 0 143.5 36t57.5 95v68q-96 -76 -230 -76q-203 0 -329 129t-126 339
t128 349.5t331 139.5q162 0 285 -107l8 84h291zM617 1034q-85 0 -138 52.5t-53 150.5t68.5 197.5t181.5 146.5l78 -92q-96 -74 -101 -139q6 2 19 2q57 0 96 -41t41 -112t-52.5 -118t-139.5 -47z" />
    <glyph glyph-name="Hbar" unicode="&#x126;" horiz-adv-x="1667" 
d="M1126 887v123h-585v-123h585zM1698 1276v-266h-180v-1010h-392v541h-585v-541h-391v1010h-148v266h148v164h391v-164h585v164h392v-164h180z" />
    <glyph glyph-name="hbar" unicode="&#x127;" horiz-adv-x="1222" 
d="M694 961q193 0 313.5 -122t120.5 -319v-520h-368v444q0 76 -39 121t-101 45t-102.5 -37.5t-46.5 -113.5l2 -459h-364v1071h-123v246h123v145h364v-145h264v-246h-264v-172q84 62 221 62z" />
    <glyph glyph-name="Itilde" unicode="&#x128;" horiz-adv-x="688" 
d="M147 0v1440h394v-1440h-394zM485.5 1548q-67.5 0 -152.5 48.5t-122 48.5q-69 0 -92 -32t-23 -48l-207 170q0 23 36 73t70 80q82 74 200 74q76 0 160.5 -48t121.5 -48q70 0 92.5 31.5t22.5 48.5l207 -170q0 -25 -36 -74t-70 -80t-87 -52.5t-120.5 -21.5z" />
    <glyph glyph-name="itilde" unicode="&#x129;" horiz-adv-x="577" 
d="M104 0v942h369v-942h-369zM427 1065q-73 0 -148.5 48t-117.5 48t-63.5 -28.5t-21.5 -51.5l-176 170q0 29 60 121q28 43 79 75t116 32t140.5 -48.5t116.5 -48.5t63.5 30t22.5 50l174 -170q0 -18 -24.5 -68t-86 -104.5t-134.5 -54.5z" />
    <glyph glyph-name="Imacron" unicode="&#x12a;" horiz-adv-x="688" 
d="M147 0v1440h394v-1440h-394zM4 1579v279h682v-279h-682z" />
    <glyph glyph-name="imacron" unicode="&#x12b;" horiz-adv-x="577" 
d="M104 0v942h369v-942h-369zM4 1112v279h565v-279h-565z" />
    <glyph glyph-name="Iogonek" unicode="&#x12e;" horiz-adv-x="688" 
d="M86 -262q0 145 147 262h-86v1440h394v-1440h-35q-57 -26 -106.5 -78.5t-49.5 -95.5q0 -70 78 -76q26 0 49 12l88 -184q-94 -66 -214 -65.5t-192.5 60.5t-72.5 165z" />
    <glyph glyph-name="iogonek" unicode="&#x12f;" horiz-adv-x="577" 
d="M53 -262q0 145 129 262h-78v942h369v-942q-57 -26 -106.5 -78.5t-49.5 -95.5q0 -70 78 -76q26 0 49 12l88 -184q-94 -66 -214 -65.5t-192.5 60.5t-72.5 165zM286 1092q-87 0 -147.5 59t-60.5 148t60.5 145.5t148.5 56.5t147.5 -58.5t59.5 -147.5t-60.5 -146t-147.5 -57z
" />
    <glyph glyph-name="Idotaccent" unicode="&#x130;" horiz-adv-x="688" 
d="M147 0v1440h394v-1440h-394zM344 1542q-90 0 -151.5 59.5t-61.5 152.5t62.5 150.5t152.5 57.5t150.5 -60.5t60.5 -151.5t-61.5 -149.5t-151.5 -58.5z" />
    <glyph glyph-name="dotlessi" unicode="&#x131;" horiz-adv-x="577" 
d="M104 0v942h369v-942h-369z" />
    <glyph glyph-name="IJ" unicode="&#x132;" horiz-adv-x="1728" 
d="M1202 1440h391v-916q0 -238 -150.5 -390t-398.5 -152q-113 0 -225 28t-137 56l149 352q74 -49 169 -49t148.5 47t53.5 119v905zM147 0v1440h394v-1440h-394z" />
    <glyph glyph-name="ij" unicode="&#x133;" horiz-adv-x="1167" 
d="M606 -418q-164 0 -250 62l107 284q41 -22 96 -22t95 42t40 124v870h369v-879q0 -223 -123 -352t-334 -129zM102 0v942h369v-942h-369zM872 1077q-96 1 -159 61t-63 155t62 155q64 60 160 62q96 3 163 -59q67 -61 67 -157t-67 -156t-163 -61zM283 1077q-96 1 -161 61
t-65 155t65 155t161 62q97 3 163 -59q66 -61 66 -157t-66 -156t-163 -61z" />
    <glyph glyph-name="Kcommaaccent" unicode="&#x136;" horiz-adv-x="1441" 
d="M771 -51q85 0 138.5 -52.5t53.5 -150.5t-69 -197.5t-181 -146.5l-78 92q96 74 100 139q-6 -2 -18 -2q-57 0 -96 41t-41 112t52 118t139 47zM539 0h-392v1440h392v-604l471 604h452l-579 -709l618 -731h-495l-467 571v-571z" />
    <glyph glyph-name="kcommaaccent" unicode="&#x137;" horiz-adv-x="1161" 
d="M591 -92q85 0 138 -52.5t53 -150.5t-68.5 -197.5t-181.5 -146.5l-77 92q96 74 100 139q-6 -2 -18 -2q-57 0 -96.5 41t-41.5 112t52.5 118t139.5 47zM471 0h-365v1462h365v-864l242 344h446l-375 -440l394 -502h-451l-256 356v-356z" />
    <glyph glyph-name="kgreenlandic" unicode="&#x138;" horiz-adv-x="1161" 
d="M471 0h-367v942h367v-328l240 328h448l-379 -442l398 -500h-451l-256 342v-342z" />
    <glyph glyph-name="Lacute" unicode="&#x139;" horiz-adv-x="1196" 
d="M541 342h639v-342h-1033v1440h394v-1098zM760 1671l-588 -143l-74 223l557 242z" />
    <glyph glyph-name="lacute" unicode="&#x13a;" horiz-adv-x="573" 
d="M104 0v1462h365v-1462h-365zM53 1550l-73 224l557 241l104 -321z" />
    <glyph glyph-name="Lcommaaccent" unicode="&#x13b;" horiz-adv-x="1196" 
d="M624 -51q85 0 138 -52.5t53 -150.5t-68.5 -197.5t-181.5 -146.5l-78 92q96 74 101 139q-6 -2 -19 -2q-57 0 -96 41t-41 112t52.5 118t139.5 47zM541 342h639v-342h-1033v1440h394v-1098z" />
    <glyph glyph-name="lcommaaccent" unicode="&#x13c;" horiz-adv-x="573" 
d="M221 -410q-57 0 -96 41t-41 112t52 118t139.5 47t138.5 -52.5t53 -150.5t-68.5 -197.5t-181.5 -146.5l-78 92q96 74 101 139q-6 -2 -19 -2zM104 0v1462h365v-1462h-365z" />
    <glyph glyph-name="Lcaron" unicode="&#x13d;" horiz-adv-x="1196" 
d="M874 1063q-70 0 -113.5 46t-45.5 132t58.5 142.5t157.5 56.5t155.5 -58.5t60.5 -156.5q2 -139 -76 -261t-209 -182l-96 113q137 94 137 170q-9 -2 -29 -2zM541 342h639v-342h-1033v1440h394v-1098z" />
    <glyph glyph-name="lcaron" unicode="&#x13e;" horiz-adv-x="778" 
d="M688 1083q-70 0 -114 47.5t-46 132t58.5 142t158 57.5t155.5 -59.5t61 -155.5q2 -139 -77 -261t-210 -181l-94 113q135 94 135 167q-6 -2 -27 -2zM104 0v1462h367v-1462h-367z" />
    <glyph glyph-name="Ldot" unicode="&#x13f;" horiz-adv-x="1196" 
d="M935 637q-89 0 -151.5 62.5t-62.5 150.5t62.5 149.5t151.5 61.5t151.5 -61.5t62.5 -149.5t-62.5 -150.5t-151.5 -62.5zM541 342h639v-342h-1033v1440h394v-1098z" />
    <glyph glyph-name="ldot" unicode="&#x140;" horiz-adv-x="925" 
d="M755 506q-89 0 -151.5 63.5t-62.5 150.5t62.5 148.5t151.5 61.5t151.5 -61.5t62.5 -148.5t-62.5 -150.5t-151.5 -63.5zM104 0v1462h367v-1462h-367z" />
    <glyph glyph-name="Lslash" unicode="&#x141;" horiz-adv-x="1196" 
d="M541 342h639v-342h-1033v500l-127 -70l-141 238l268 149v623h394v-406l149 84l141 -237l-290 -162v-377z" />
    <glyph glyph-name="lslash" unicode="&#x142;" horiz-adv-x="956" 
d="M666 0h-367v467l-172 -96l-127 215l299 166v710h367v-508l176 97l127 -213l-303 -168v-670z" />
    <glyph glyph-name="Nacute" unicode="&#x143;" horiz-adv-x="1628" 
d="M1096 1440h383v-1454h-215l-732 800v-786h-382v1456h217l729 -782v766zM1143 1671l-588 -143l-74 223l557 242z" />
    <glyph glyph-name="nacute" unicode="&#x144;" horiz-adv-x="1222" 
d="M683 961q204 0 324.5 -122t120.5 -319v-520h-368v444q0 76 -39 121t-104 45t-104.5 -44t-39.5 -128v-438h-369v942h273l10 -119q92 138 296 138zM948 1262l-512 -250l-127 221l467 326z" />
    <glyph glyph-name="Ncommaaccent" unicode="&#x145;" horiz-adv-x="1628" 
d="M855 -51q85 0 138.5 -52.5t53.5 -150.5t-69 -197.5t-181 -146.5l-78 92q96 74 100 139q-6 -2 -18 -2q-57 0 -96 41t-41 112t52 118t139 47zM1096 1440h383v-1454h-215l-732 800v-786h-382v1456h217l729 -782v766z" />
    <glyph glyph-name="ncommaaccent" unicode="&#x146;" horiz-adv-x="1222" 
d="M609 -92q85 0 138.5 -52.5t53.5 -150.5t-68.5 -197.5t-181.5 -146.5l-78 92q96 74 100 139q-6 -2 -18 -2q-57 0 -96 41t-41 112t52 118t139 47zM683 961q204 0 324.5 -122t120.5 -319v-520h-368v444q0 76 -39 121t-104 45t-104.5 -44t-39.5 -128v-438h-369v942h273
l10 -119q92 138 296 138z" />
    <glyph glyph-name="Ncaron" unicode="&#x147;" horiz-adv-x="1628" 
d="M1096 1440h383v-1454h-215l-732 800v-786h-382v1456h217l729 -782v766zM946 1552h-278l-279 375h318l104 -121l104 121h320z" />
    <glyph glyph-name="ncaron" unicode="&#x148;" horiz-adv-x="1222" 
d="M683 961q204 0 324.5 -122t120.5 -319v-520h-368v444q0 76 -39 121t-104 45t-104.5 -44t-39.5 -128v-438h-369v942h273l10 -119q92 138 296 138zM752 1085h-279l-237 377h276l104 -133l105 133h278z" />
    <glyph glyph-name="napostrophe" unicode="&#x149;" horiz-adv-x="1361" 
d="M823 961q204 0 324.5 -122t120.5 -319v-520h-369v444q0 76 -39 121t-103.5 45t-104.5 -44t-40 -128v-438h-368v942h272l10 -119q93 138 297 138zM113.5 1548q97.5 0 156 -58.5t60.5 -156.5q2 -139 -76 -261t-209 -181l-96 113q137 94 137 170q-8 -2 -29 -3
q-70 0 -113.5 46.5t-45.5 132t58 142t157.5 56.5z" />
    <glyph glyph-name="Eng" unicode="&#x14a;" horiz-adv-x="1628" 
d="M1096 1440h383v-1454q0 -176 -114 -290t-339 -114t-358 80l147 332q57 -43 152 -43q119 0 118 182v47l-553 606v-786h-382v1456h217l729 -782v766z" />
    <glyph glyph-name="eng" unicode="&#x14b;" horiz-adv-x="1222" 
d="M683 961q204 0 324.5 -122t120.5 -319v-520h-2q-16 -186 -139 -302t-315 -116q-145 0 -283 86l143 266q108 -55 181 16q39 38 47 99v395q0 76 -39 121t-104 45t-104.5 -44t-39.5 -128v-438h-369v942h273l10 -119q92 138 296 138z" />
    <glyph glyph-name="Omacron" unicode="&#x14c;" horiz-adv-x="1695" 
d="M851 330q161 0 265.5 112.5t104.5 283.5t-104.5 281.5t-266.5 110.5t-268.5 -110.5t-106.5 -281.5t107.5 -283.5t268.5 -112.5zM851 -25q-333 0 -554 216.5t-221 534.5t221 532.5t554 214.5t551 -211t218 -536t-218 -538t-551 -213zM420 1579v279h852v-279h-852z" />
    <glyph glyph-name="omacron" unicode="&#x14d;" horiz-adv-x="1171" 
d="M587 299q75 0 121 49t46 124t-45 124t-121 49t-122 -49t-46 -123t46 -124t121 -50zM586 -23q-221 0 -373 140.5t-152 354.5t152 354.5t373 140.5t371.5 -140.5t150.5 -354.5t-150.5 -354.5t-371.5 -140.5zM231 1112v279h707v-279h-707z" />
    <glyph glyph-name="Ohungarumlaut" unicode="&#x150;" horiz-adv-x="1695" 
d="M851 330q161 0 265.5 112.5t104.5 283.5t-104.5 281.5t-266.5 110.5t-268.5 -110.5t-106.5 -281.5t107.5 -283.5t268.5 -112.5zM851 -25q-333 0 -554 216.5t-221 534.5t221 532.5t554 214.5t551 -211t218 -536t-218 -538t-551 -213zM1083 1511l-178 123l252 418l252 -184
zM571 1511l-178 123l252 418l252 -184z" />
    <glyph glyph-name="ohungarumlaut" unicode="&#x151;" horiz-adv-x="1171" 
d="M587 299q75 0 121 49t46 124t-45 124t-121 49t-122 -49t-46 -123t46 -124t121 -50zM586 -23q-221 0 -373 140.5t-152 354.5t152 354.5t373 140.5t371.5 -140.5t150.5 -354.5t-150.5 -354.5t-371.5 -140.5zM809 1036l-197 90l160 433l279 -138zM399 1036l-196 90l159 433
l279 -138z" />
    <glyph glyph-name="OE" unicode="&#x152;" horiz-adv-x="2375" 
d="M851 330q161 0 265.5 112.5t104.5 283.5t-104.5 281.5t-266.5 110.5t-268.5 -110.5t-106.5 -281.5t107.5 -283.5t268.5 -112.5zM1612 338h657v-338h-1044v61q-168 -86 -373 -86q-334 0 -555 216.5t-221 534.5t221 532.5t555 214.5q205 0 373 -87v54h1040v-340h-653v-205
h573v-334h-573v-223z" />
    <glyph glyph-name="oe" unicode="&#x153;" horiz-adv-x="1816" 
d="M587 299q75 0 121 49t46 124t-45 124t-121 49t-122 -49t-46 -123t46 -124t121 -50zM1274 688q-121 0 -156 -104h291q-14 104 -135 104zM1331 262q125 0 230 78l139 -225q-47 -49 -149.5 -91t-262.5 -42q-213 0 -356 114q-145 -119 -356 -119t-363 140.5t-152 354.5
t152 354.5t362 140.5t353 -115q137 109 349 109t345 -140.5t133 -361.5l-4 -80h-631q45 -117 211 -117z" />
    <glyph glyph-name="Racute" unicode="&#x154;" horiz-adv-x="1454" 
d="M532 1114v-420h191q104 0 166.5 58.5t62.5 149.5t-62.5 151.5t-172.5 60.5h-185zM532 369v-369h-382v1440h604q272 0 430.5 -152.5t158.5 -392.5q0 -150 -71.5 -265.5t-200.5 -183.5l311 -446h-446l-236 369h-168zM1022 1671l-588 -143l-74 223l558 242z" />
    <glyph glyph-name="racute" unicode="&#x155;" horiz-adv-x="833" 
d="M715 961q51 0 90 -9l-31 -393q-52 23 -120 23t-125.5 -50.5t-57.5 -152.5v-379h-367v942h302l12 -168q20 84 103 135.5t194 51.5zM793 1262l-512 -250l-127 221l467 326z" />
    <glyph glyph-name="Rcommaaccent" unicode="&#x156;" horiz-adv-x="1454" 
d="M749 -51q85 0 138 -52.5t53 -150.5t-68.5 -197.5t-181.5 -146.5l-78 92q96 74 101 139q-6 -2 -19 -2q-57 0 -96 41t-41 112t52.5 118t139.5 47zM952 902q0 91 -62.5 151.5t-172.5 60.5h-185v-420h191q104 0 166.5 58.5t62.5 149.5zM532 369v-369h-382v1440h604
q272 0 430.5 -152.5t158.5 -392.5q0 -150 -71.5 -265.5t-200.5 -183.5l311 -446h-446l-236 369h-168z" />
    <glyph glyph-name="rcommaaccent" unicode="&#x157;" horiz-adv-x="833" 
d="M280 -92q85 0 138 -52.5t53 -150.5t-68.5 -197.5t-181.5 -146.5l-78 92q96 74 101 139q-6 -2 -19 -2q-57 0 -96 41t-41 112t52.5 118t139.5 47zM715 961q51 0 90 -9l-31 -393q-53 23 -120.5 23t-125 -50.5t-57.5 -152.5v-379h-367v942h302l12 -168q20 84 103 135.5
t194 51.5z" />
    <glyph glyph-name="Rcaron" unicode="&#x158;" horiz-adv-x="1454" 
d="M532 1114v-420h191q104 0 166.5 58.5t62.5 149.5t-62.5 151.5t-172.5 60.5h-185zM532 369v-369h-382v1440h604q272 0 430.5 -152.5t158.5 -392.5q0 -150 -71.5 -265.5t-200.5 -183.5l311 -446h-446l-236 369h-168zM825 1552h-278l-279 375h318l104 -121l105 121h319z" />
    <glyph glyph-name="rcaron" unicode="&#x159;" horiz-adv-x="833" 
d="M715 961q51 0 90 -9l-31 -393q-53 23 -120.5 23t-125 -50.5t-57.5 -152.5v-379h-367v942h302l12 -168q20 84 103 135.5t194 51.5zM596 1085h-279l-237 377h276l105 -133l104 133h279z" />
    <glyph glyph-name="Sacute" unicode="&#x15a;" horiz-adv-x="1263" 
d="M616 -18q-334 0 -579 178l182 307q104 -82 199.5 -117t232.5 -35t137 101q0 53 -50 84.5t-206 77.5q-233 70 -332.5 168t-99.5 260q0 205 155 328.5t429 123.5t504 -158l-164 -292q-176 116 -352 116t-176 -88q0 -41 47 -68.5t202 -74.5q227 -68 330 -173.5t103 -268.5
q0 -223 -148 -346t-414 -123zM408 1528l-74 223l557 242l104 -322z" />
    <glyph glyph-name="sacute" unicode="&#x15b;" horiz-adv-x="1001" 
d="M470.5 -18q-232.5 0 -421.5 127l139 245q147 -111 322 -110q59 0 59 37q0 18 -24.5 30.5t-93 28.5t-109.5 28q-114 35 -181 97t-67 172q0 147 111.5 235.5t310.5 88.5q121 0 234.5 -32t185.5 -83l-131 -248q-147 94 -293 94q-63 0 -63 -39q0 -16 26.5 -25.5t99 -24.5
t104.5 -23.5t82 -32t81.5 -52t56.5 -78.5t25 -114q0 -145 -110.5 -233t-343 -88zM332 1012l-127 221l467 326l172 -297z" />
    <glyph glyph-name="Scedilla" unicode="&#x15e;" horiz-adv-x="1263" 
d="M1178 451q0 -203 -122 -323t-345 -142l-23 -52q88 -8 140.5 -61t52.5 -146.5t-77 -158t-204 -64.5q-63 0 -124.5 20.5t-92.5 41.5l-31 20l72 150q126 -71 196 -38q28 13 32.5 35t-12.5 41q-47 53 -173 23l-29 35l58 156q-258 27 -459 172l182 307q104 -82 199.5 -117
t232.5 -35t137 101q0 53 -50 84.5t-206 77.5q-233 70 -332.5 168t-99.5 260q0 205 155 328.5t429.5 123.5t503.5 -158l-164 -292q-176 117 -352.5 116.5t-175.5 -88.5q0 -41 46.5 -68.5t202.5 -74.5q227 -68 330 -173.5t103 -268.5z" />
    <glyph glyph-name="scedilla" unicode="&#x15f;" horiz-adv-x="1001" 
d="M924 303q0 -127 -87 -213t-255 -104l-21 -49q100 0 158.5 -57.5t58.5 -155.5t-76.5 -158t-203.5 -60q-63 0 -126 20.5t-93 41.5l-31 20l74 152q78 -49 139 -49q86 0 86 57q0 63 -96 64q-37 0 -89 -13l-28 35l57 154q-193 18 -342 121l139 245q147 -111 322 -110
q59 0 59 37q0 18 -24.5 30.5t-93 28.5t-109.5 28q-114 35 -181 97t-67 172q0 147 111.5 235.5t310.5 88.5q121 0 234.5 -32t185.5 -83l-131 -248q-147 94 -293 94q-63 0 -63 -39q0 -16 26.5 -25.5t99 -24.5t104.5 -23.5t82 -32t81.5 -52t56.5 -78.5t25 -114z" />
    <glyph glyph-name="Scaron" unicode="&#x160;" horiz-adv-x="1263" 
d="M1178 451q0 -223 -147.5 -346t-414.5 -123q-334 0 -579 178l182 307q104 -82 199.5 -117t232.5 -35t137 101q0 53 -50 84.5t-206 77.5q-233 70 -332.5 168t-99.5 260q0 205 155 328.5t429.5 123.5t503.5 -158l-164 -292q-176 117 -352.5 116.5t-175.5 -88.5
q0 -41 46.5 -68.5t202.5 -74.5q227 -68 330 -173.5t103 -268.5zM799 1552h-279l-278 375h317l105 -121l104 121h319z" />
    <glyph glyph-name="scaron" unicode="&#x161;" horiz-adv-x="1001" 
d="M924 303q0 -145 -111 -233t-343 -88t-421 127l139 245q147 -111 322 -110q59 0 59 37q0 18 -24.5 30.5t-93 28.5t-109.5 28q-114 35 -181 97t-67 172q0 147 111.5 235.5t310.5 88.5q121 0 234.5 -32t185.5 -83l-131 -248q-147 94 -293 94q-63 0 -63 -39q0 -16 26.5 -25.5
t99 -24.5t104.5 -23.5t82 -32t81.5 -52t56.5 -78.5t25 -114zM647 1085h-278l-238 377h277l104 -133l104 133h279z" />
    <glyph glyph-name="uni0162" unicode="&#x162;" horiz-adv-x="1357" 
d="M872 0h-79l-27 -66q88 -8 140 -61t52 -146.5t-76.5 -158t-203.5 -64.5q-63 0 -124.5 20.5t-92.5 41.5l-31 20l72 150q126 -71 196 -38q28 13 32 35q6 22 -12 41q-49 53 -173 23l-29 35l62 168h-97v1096h-461v344h1319v-344h-467v-1096z" />
    <glyph glyph-name="uni0163" unicode="&#x163;" horiz-adv-x="985" 
d="M883 -274q0 -98 -77 -158t-204 -60q-63 0 -125.5 20.5t-93.5 41.5l-31 20l74 152q78 -49 139 -49q86 0 86 57q0 63 -96 64q-35 0 -88 -13l-29 35l62 164q-135 37 -206 139.5t-71 253.5v240h-190v309h211v324h346v-324h315v-309h-315v-199q0 -121 129 -121q76 0 131 37
l125 -270q-123 -86 -291 -96l-18 -45q100 0 158.5 -57.5t58.5 -155.5z" />
    <glyph glyph-name="Tcaron" unicode="&#x164;" horiz-adv-x="1357" 
d="M1339 1440v-344h-467v-1096h-391v1096h-461v344h1319zM809 1552h-279l-278 375h317l105 -121l104 121h320z" />
    <glyph glyph-name="tcaron" unicode="&#x165;" horiz-adv-x="985" 
d="M636.5 -18q-194.5 0 -304 111.5t-109.5 299.5v240h-190v309h211v324h346v-324h315v-309h-315v-199q0 -121 129 -121q76 0 131 37l125 -270q-144 -98 -338.5 -98zM821 1239q-70 0 -113.5 47t-45.5 132t58 142.5t156.5 57.5t156 -59.5t61.5 -155.5q2 -139 -77 -261
t-210 -181l-94 110q135 96 135 170q-6 -2 -27 -2z" />
    <glyph glyph-name="Tbar" unicode="&#x166;" horiz-adv-x="1357" 
d="M1339 1096h-467v-242h230v-246h-230v-608h-391v608h-227v246h227v242h-461v344h1319v-344z" />
    <glyph glyph-name="tbar" unicode="&#x167;" horiz-adv-x="985" 
d="M639 -18q-193 0 -302.5 106.5t-113.5 288.5h-123v203h123v53h-190v309h211v324h346v-324h315v-309h-315v-53h145v-203h-135q29 -63 112 -63.5t138 36.5l125 -270q-143 -98 -336 -98z" />
    <glyph glyph-name="Utilde" unicode="&#x168;" horiz-adv-x="1591" 
d="M795 -18q-307 0 -485.5 171t-178.5 492v795h391v-826q0 -117 65.5 -200.5t206 -83.5t208 85t67.5 199v826h391v-795q0 -322 -179 -492.5t-486 -170.5zM933.5 1548q-67.5 0 -152.5 48.5t-122 48.5q-70 0 -92 -32.5t-22 -47.5l-207 170q0 25 36 74t70 79q81 74 199 74
q76 0 161 -48t122 -48q70 0 92 32t22 48l207 -170q0 -26 -35.5 -74.5t-69.5 -79.5t-87.5 -52.5t-121 -21.5z" />
    <glyph glyph-name="utilde" unicode="&#x169;" horiz-adv-x="1206" 
d="M735 942h367v-942h-277l-8 113q-90 -131 -288.5 -131t-317.5 111.5t-119 305.5v543h369v-481q0 -72 38 -110t97 -38q139 0 139 172v457zM372.5 1129.5q-22.5 -31.5 -22.5 -48.5l-207 170q0 18 30 68.5t102.5 105t158.5 54.5t174 -48.5t124 -48.5q68 0 91 32t23 48
l207 -170q0 -31 -71 -121q-34 -43 -93.5 -74.5t-135 -31.5t-164.5 48t-141.5 48t-75 -31.5z" />
    <glyph glyph-name="Umacron" unicode="&#x16a;" horiz-adv-x="1591" 
d="M795 -18q-307 0 -485.5 171t-178.5 492v795h391v-826q0 -117 65.5 -200.5t206 -83.5t208 85t67.5 199v826h391v-795q0 -322 -179 -492.5t-486 -170.5zM367 1579v279h852v-279h-852z" />
    <glyph glyph-name="umacron" unicode="&#x16b;" horiz-adv-x="1206" 
d="M735 942h367v-942h-277l-8 113q-90 -131 -288.5 -131t-317.5 111.5t-119 305.5v543h369v-481q0 -72 38 -110t97 -38q139 0 139 172v457zM950 1391v-279h-706v279h706z" />
    <glyph glyph-name="Uring" unicode="&#x16e;" horiz-adv-x="1591" 
d="M795 -18q-307 0 -485.5 171t-178.5 492v795h391v-826q0 -117 65.5 -200.5t206 -83.5t208 85t67.5 199v826h391v-795q0 -322 -179 -492.5t-486 -170.5zM792.5 1675q34.5 0 57 24.5t22.5 64.5t-21.5 62.5t-57 22.5t-58 -22.5t-22.5 -62.5t22.5 -64.5t57 -24.5zM793 1489
q-127 0 -207 75.5t-80 195.5t81 197t206 77t204.5 -77t79.5 -197t-78.5 -195.5t-205.5 -75.5z" />
    <glyph glyph-name="uring" unicode="&#x16f;" horiz-adv-x="1206" 
d="M735 942h367v-942h-277l-8 113q-90 -131 -288.5 -131t-317.5 111.5t-119 305.5v543h369v-481q0 -72 38 -110t97 -38q139 0 139 172v457zM598 1401q-35 0 -56.5 -23.5t-21.5 -61.5t22.5 -63.5t56.5 -25.5t55.5 25.5t21.5 62.5q0 86 -78 86zM598 1042q-125 0 -206 76
t-81 195t81 194.5t206 75.5t205 -75.5t80 -194.5t-80 -195t-205 -76z" />
    <glyph glyph-name="Uhungarumlaut" unicode="&#x170;" horiz-adv-x="1591" 
d="M795 -18q-307 0 -485.5 171t-178.5 492v795h391v-826q0 -117 65.5 -200.5t206 -83.5t208 85t67.5 199v826h391v-795q0 -322 -179 -492.5t-486 -170.5zM1030 1511l-178 123l252 418l252 -184zM518 1511l-178 123l252 418l252 -184z" />
    <glyph glyph-name="uhungarumlaut" unicode="&#x171;" horiz-adv-x="1206" 
d="M735 942h367v-942h-277l-8 113q-90 -131 -288.5 -131t-317.5 111.5t-119 305.5v543h369v-481q0 -72 38 -110t97 -38q139 0 139 172v457zM821 1036l-196 90l159 433l279 -138zM653 1421l-241 -385l-197 90l160 433z" />
    <glyph glyph-name="Uogonek" unicode="&#x172;" horiz-adv-x="1591" 
d="M1069 1440h391v-795q0 -270 -129 -436t-360 -211q-152 -82 -152 -172q0 -70 78 -76q29 0 49 12l88 -184q-94 -66 -214 -66t-192.5 60.5t-72.5 165.5q0 135 131 250q-258 29 -406.5 197.5t-148.5 459.5v795h391v-826q0 -116 66 -200t206 -84t207.5 85t67.5 199v826z" />
    <glyph glyph-name="uogonek" unicode="&#x173;" horiz-adv-x="1206" 
d="M674 -262q0 158 149 280l-6 95q-90 -131 -288.5 -131t-317.5 111.5t-119 305.5v543h369v-481q0 -72 38 -110t97 -38q139 0 139 172v457h367v-942h-8q-57 -26 -106.5 -78.5t-49.5 -95.5q0 -70 78 -76q26 0 49 12l88 -184q-94 -66 -214 -65.5t-192.5 60.5t-72.5 165z" />
    <glyph glyph-name="Wcircumflex" unicode="&#x174;" horiz-adv-x="2080" 
d="M1675 1440h400l-480 -1440h-288l-271 813l-256 -813h-295l-479 1440h422l231 -856l68 239l184 617h254l183 -602l79 -279zM1032 1671l-104 -121h-320l289 375h279l278 -375h-317z" />
    <glyph glyph-name="wcircumflex" unicode="&#x175;" horiz-adv-x="1724" 
d="M1339 942h373l-371 -942h-272l-203 483l-204 -483h-275l-377 942h385l170 -469l195 469h225l207 -477zM866 1225l-104 -144h-283l252 396h279l241 -396h-280z" />
    <glyph glyph-name="Ycircumflex" unicode="&#x176;" horiz-adv-x="1435" 
d="M915 0h-395v559l-518 881h473l256 -500l260 500h449l-525 -879v-561zM735 1671l-104 -121h-320l289 375h279l278 -375h-317z" />
    <glyph glyph-name="ycircumflex" unicode="&#x177;" horiz-adv-x="1138" 
d="M760 942h375l-531 -1341h-358l164 432l-402 909h410l176 -510zM594 1225l-105 -144h-282l252 396h278l242 -396h-281z" />
    <glyph glyph-name="Ydieresis" unicode="&#x178;" horiz-adv-x="1435" 
d="M915 0h-395v559l-518 881h473l256 -500l260 500h449l-525 -879v-561zM475 1554q-84 0 -140 55.5t-58.5 140.5t56 141.5t142.5 56.5t140.5 -55.5t58.5 -140.5t-56.5 -141.5t-142.5 -56.5zM995 1554q-84 0 -142 56.5t-58 141.5t58 141.5t142 56.5t142.5 -56.5t58.5 -141.5
t-58.5 -141.5t-142.5 -56.5z" />
    <glyph glyph-name="Zacute" unicode="&#x179;" horiz-adv-x="1374" 
d="M1290 336v-336h-1208v246l670 858h-670v336h1186v-244l-693 -860h715zM997 1671l-587 -143l-74 223l557 242z" />
    <glyph glyph-name="zacute" unicode="&#x17a;" horiz-adv-x="1050" 
d="M971 309v-309h-889v272l391 361h-375v309h856v-272l-391 -361h408zM842 1262l-512 -250l-127 221l467 326z" />
    <glyph glyph-name="Zdotaccent" unicode="&#x17b;" horiz-adv-x="1374" 
d="M1290 336v-336h-1208v246l670 858h-670v336h1186v-244l-693 -860h715zM668 1542q-90 0 -151.5 59.5t-61.5 152.5t62.5 150.5t152.5 57.5t150.5 -60.5t60.5 -151.5t-61.5 -149.5t-151.5 -58.5z" />
    <glyph glyph-name="zdotaccent" unicode="&#x17c;" horiz-adv-x="1050" 
d="M971 309v-309h-889v272l391 361h-375v309h856v-272l-391 -361h408zM511 1092q-87 0 -147.5 59t-60.5 148t60.5 145.5t148.5 56.5t147.5 -58.5t59.5 -147.5t-60.5 -146t-147.5 -57z" />
    <glyph glyph-name="Zcaron" unicode="&#x17d;" horiz-adv-x="1374" 
d="M1290 336v-336h-1208v246l670 858h-670v336h1186v-244l-693 -860h715zM801 1552h-279l-278 375h317l105 -121l104 121h320z" />
    <glyph glyph-name="zcaron" unicode="&#x17e;" horiz-adv-x="1050" 
d="M971 309v-309h-889v272l391 361h-375v309h856v-272l-391 -361h408zM645 1085h-278l-238 377h277l104 -133l104 133h279z" />
    <glyph glyph-name="uni01EA" unicode="&#x1ea;" horiz-adv-x="1695" 
d="M475 726q0 -171 107.5 -283.5t268.5 -112.5t265.5 112.5t104.5 283.5t-104.5 281.5t-266.5 110.5t-268.5 -110.5t-106.5 -281.5zM893 -174q0 -70 78 -76q29 0 49 12l88 -184q-94 -66 -214 -65.5t-192.5 60.5t-72.5 165q0 133 123 244q-295 35 -485.5 243.5t-190.5 513.5
t221 519.5t554 214.5t551 -211t218 -537q0 -272 -160 -471t-420 -258q-70 -36 -108.5 -83.5t-38.5 -86.5z" />
    <glyph glyph-name="uni01EB" unicode="&#x1eb;" horiz-adv-x="1171" 
d="M588 645q-76 0 -122 -49t-46 -123t46 -124t121 -50t121 49t46 124t-45 124t-121 49zM326 -262q0 139 120 256q-170 41 -277.5 171t-107.5 306q0 215 152 355.5t373 140.5t371.5 -140.5t150.5 -355.5q0 -172 -101.5 -300t-265.5 -173q-152 -82 -151 -172q0 -70 78 -76
q29 0 49 12l88 -184q-94 -66 -214 -65.5t-192.5 60.5t-72.5 165z" />
    <glyph glyph-name="AEacute" unicode="&#x1fc;" horiz-adv-x="1982" 
d="M881 582v481l-226 -481h226zM1876 1440v-344h-602v-211l516 4v-342l-516 -8v-197h602v-342h-995v254h-389l-121 -254h-408l721 1440h1192zM920 1522l-74 223l557 242l104 -322z" />
    <glyph glyph-name="aeacute" unicode="&#x1fd;" horiz-adv-x="1943" 
d="M597 305q75 0 121 48t46 119t-46 118t-121 47t-121 -48t-46 -117t46 -118t121 -49zM1401 688q-121 0 -156 -104h291q-14 104 -135 104zM1458 262q125 0 230 78l139 -225q-47 -49 -146.5 -91t-248.5 -42q-193 0 -330 110l-21 -92h-282l-19 84q-109 -102 -266 -102
q-197 0 -324 139t-127 349t133.5 350.5t329.5 140.5q156 0 260 -89l13 70h282l15 -88q133 106 309 107q221 0 349 -139.5t128 -362.5l-4 -80h-631q45 -117 211 -117zM1303 1262l-512 -250l-127 221l466 326z" />
    <glyph glyph-name="Oslashacute" unicode="&#x1fe;" horiz-adv-x="1695" 
d="M852 330q160 0 264.5 112.5t104.5 282.5q0 109 -45 199l-439 -578q56 -16 115 -16zM475 725q0 -111 49 -203l443 580q-59 16 -115 16q-164 0 -270.5 -110.5t-106.5 -282.5zM1620 718.5q0 -317.5 -218 -530.5t-550 -213q-182 0 -342 72l-123 -160l-221 162l119 156
q-209 213 -209 526t221 527.5t555 214.5q188 0 342 -72l111 145l219 -166l-105 -137q201 -207 201 -524.5zM1147 1669l-588 -143l-74 223l557 242z" />
    <glyph glyph-name="oslashacute" unicode="&#x1ff;" horiz-adv-x="1171" 
d="M587 299q75 0 121 49t46 124t-45 124t-121 49t-122 -49t-46 -123t46 -124t121 -50zM1108 455.5q0 -197.5 -150.5 -338t-371.5 -140.5q-106 0 -211 39l-105 -131l-188 148l96 121q-117 133 -117 332.5t152 340t373 140.5q115 0 215 -41l102 129l184 -150l-94 -117
q115 -135 115 -332.5zM915 1262l-512 -250l-127 221l467 326z" />
    <glyph glyph-name="Scommaaccent" unicode="&#x218;" horiz-adv-x="1263" 
d="M565 -369q-57 0 -96 41t-41 112t52.5 118t139.5 47t138 -52.5t53 -150.5t-68.5 -197.5t-181.5 -146.5l-78 92q96 74 101 139q-6 -2 -19 -2zM616 -18q-334 0 -579 178l182 307q104 -82 199.5 -117t232.5 -35t137 101q0 53 -50 84.5t-206 77.5q-233 70 -332.5 168
t-99.5 260q0 205 155 328.5t429.5 123.5t503.5 -158l-164 -292q-176 117 -352.5 116.5t-175.5 -88.5q0 -41 47 -68.5t202 -74.5q227 -68 330 -173.5t103 -268.5q0 -223 -148 -346t-414 -123z" />
    <glyph glyph-name="scommaaccent" unicode="&#x219;" horiz-adv-x="1001" 
d="M434 -410q-57 0 -96 41t-41 112t52 118t139.5 47t138.5 -52.5t53 -150.5t-68.5 -197.5t-181.5 -146.5l-78 92q96 74 101 139q-6 -2 -19 -2zM470.5 -18q-232.5 0 -421.5 127l139 245q147 -111 322 -110q59 0 59 37q0 18 -24.5 30.5t-93 28.5t-109.5 28q-114 35 -181 97
t-67 172q0 147 111.5 235.5t310.5 88.5q121 0 234.5 -32t185.5 -83l-131 -248q-147 94 -293 94q-63 0 -63 -39q0 -16 26.5 -25.5t99 -24.5t104.5 -23.5t82 -32t81.5 -52t56.5 -78.5t25 -114q0 -145 -110.5 -233t-343 -88z" />
    <glyph glyph-name="uni021A" unicode="&#x21a;" horiz-adv-x="1357" 
d="M697 -51q85 0 138.5 -52.5t53.5 -150.5t-68.5 -197.5t-181.5 -146.5l-78 92q96 74 101 139q-6 -2 -19 -2q-57 0 -96 41t-41 112t52 118t139 47zM1339 1440v-344h-467v-1096h-391v1096h-461v344h1319z" />
    <glyph glyph-name="uni021B" unicode="&#x21b;" horiz-adv-x="985" 
d="M539 -408q-57 0 -96.5 41t-41.5 112t52.5 118t139.5 47t138 -52.5t53 -150.5t-68 -197.5t-181 -146.5l-78 92q96 74 100 139q-6 -2 -18 -2zM636.5 -18q-194.5 0 -304 111.5t-109.5 299.5v240h-190v309h211v324h346v-324h315v-309h-315v-199q0 -121 129 -121q76 0 131 37
l125 -270q-144 -98 -338.5 -98z" />
    <glyph glyph-name="uni0237" unicode="&#x237;" horiz-adv-x="591" 
d="M31 -418q-164 0 -250 62l106 284q41 -22 97 -22t95 42q40 42 40 124v870h368v-879q-1 -223 -123 -352t-333 -129z" />
    <glyph glyph-name="circumflex" unicode="&#x2c6;" horiz-adv-x="813" 
d="M793 1081h-281l-104 144l-105 -144h-283l252 396h279z" />
    <glyph glyph-name="caron" unicode="&#x2c7;" horiz-adv-x="964" 
d="M586 1462h278l-248 -377h-278l-238 377h277l104 -133z" />
    <glyph glyph-name="breve" unicode="&#x2d8;" horiz-adv-x="845" 
d="M436 1081q-170 0 -275.5 102.5t-105.5 278.5h277q0 -66 28.5 -104.5t75.5 -38.5t76 39t29 104h278q0 -176 -106.5 -278.5t-276.5 -102.5z" />
    <glyph glyph-name="dotaccent" unicode="&#x2d9;" horiz-adv-x="456" 
d="M229 1501q87 0 147 -58q60 -57 60 -147t-60 -147t-148 -57q-87 0 -147 59q-61 59 -61 148t60 145t149 57z" />
    <glyph glyph-name="ring" unicode="&#x2da;" horiz-adv-x="612" 
d="M308 1227q34 0 55.5 25.5t21.5 62.5q0 86 -78 86q-35 0 -56.5 -23.5t-21.5 -61.5t22.5 -63.5t56.5 -25.5zM307 1042q-125 0 -206 76t-81 195t81 194.5t206 75.5t205 -75.5t80 -194.5t-80 -195t-205 -76z" />
    <glyph glyph-name="ogonek" unicode="&#x2db;" horiz-adv-x="503" 
d="M292 -487q-120 0 -193 60t-72 165q0 225 297 375l122 -113q-58 -26 -106 -78q-49 -53 -49 -96q0 -70 78 -76q29 0 49 12l88 -184q-94 -65 -214 -65z" />
    <glyph glyph-name="tilde" unicode="&#x2dc;" horiz-adv-x="991" 
d="M651 1065q-76 0 -165 48t-125 48q-68 0 -90.5 -31.5t-22.5 -48.5l-207 170q0 18 29.5 68.5t102.5 105t159 54.5t174 -48.5t124 -48.5q69 0 91 32t22 48l207 -170q0 -31 -70 -121q-34 -43 -93.5 -74.5t-135.5 -31.5z" />
    <glyph glyph-name="hungarumlaut" unicode="&#x2dd;" horiz-adv-x="888" 
d="M627 1036l-197 90l160 433l278 -138zM217 1036l-197 90l160 433l279 -138z" />
    <glyph glyph-name="gravecomb" unicode="&#x300;" 
d="M-190 1012l-512 250l172 297l467 -326z" />
    <glyph glyph-name="acutecomb" unicode="&#x301;" 
d="M-496 1012l-127 221l467 326l172 -297z" />
    <glyph glyph-name="uni0302" unicode="&#x302;" 
d="M-20 1081h-281l-105 144l-104 -144h-283l252 396h279z" />
    <glyph glyph-name="tildecomb" unicode="&#x303;" 
d="M-340 1065q-76 0 -165 48t-125 48q-69 0 -91 -31.5t-22 -48.5l-207 170q0 18 29.5 68.5t102.5 105t159 54.5t174 -48.5t124 -48.5q67 0 90 32t23 48l207 -170q-1 -31 -71 -121q-34 -43 -93 -74.5t-135 -31.5z" />
    <glyph glyph-name="uni0304" unicode="&#x304;" 
d="M-727 1112v279h707v-279h-707z" />
    <glyph glyph-name="uni0306" unicode="&#x306;" 
d="M-436 1081q-170 0 -275.5 102.5t-105.5 278.5h276q0 -66 29 -104.5t76 -38.5t75.5 39t28.5 104h279q0 -176 -106.5 -278.5t-276.5 -102.5z" />
    <glyph glyph-name="uni0307" unicode="&#x307;" 
d="M-228 1092q-87 0 -147.5 59t-60.5 148t60.5 145.5t148.5 56.5t147.5 -58.5t59.5 -147.5t-60.5 -146t-147.5 -57z" />
    <glyph glyph-name="uni0308" unicode="&#x308;" 
d="M-243 1096q-83 0 -138 54t-57 139t55 139.5t140 54.5t138.5 -54.5t57.5 -139.5t-55.5 -139t-140.5 -54zM-714 1096q-83 0 -138 53t-57 138t55 140.5t140 55.5t138.5 -55.5t57.5 -140.5t-55.5 -138t-140.5 -53z" />
    <glyph glyph-name="uni030A" unicode="&#x30a;" 
d="M-304 1227q34 0 55.5 25.5t21.5 62.5q0 86 -78 86q-35 0 -56.5 -23.5t-21.5 -61.5t22.5 -63.5t56.5 -25.5zM-305 1042q-125 0 -206 76t-81 195t81 194.5t206 75.5t205 -75.5t80 -194.5t-80 -195t-205 -76z" />
    <glyph glyph-name="uni030B" unicode="&#x30b;" 
d="M-262 1036l-197 90l160 433l279 -138zM-672 1036l-196 90l159 433l279 -138z" />
    <glyph glyph-name="uni030C" unicode="&#x30c;" 
d="M-379 1462h279l-248 -377h-279l-237 377h276l105 -133z" />
    <glyph glyph-name="uni0326" unicode="&#x326;" 
d="M-287 -410q-57 0 -96 41t-41 112t52.5 118t139.5 47t138 -52.5t53 -150.5t-68.5 -197.5t-181.5 -146.5l-78 92q96 74 101 139q-6 -2 -19 -2z" />
    <glyph glyph-name="uni0327" unicode="&#x327;" 
d="M-301 -494q-63 0 -125.5 20.5t-93.5 41.5l-31 20l74 152q78 -49 139 -49q86 0 86 57q0 63 -96 64q-37 0 -88 -13l-29 35l82 221h195l-50 -118q100 0 159 -57.5t59 -155.5t-77 -158t-204 -60z" />
    <glyph glyph-name="uni0328" unicode="&#x328;" 
d="M-302 -487q-120 0 -192.5 60t-72.5 165q0 225 297 375l123 -113q-57 -26 -106.5 -78.5t-49.5 -95.5q0 -70 78 -76q29 0 49 12l88 -184q-94 -65 -214 -65z" />
    <glyph glyph-name="uni0335" unicode="&#x335;" 
d="M-879 440v246h848v-246h-848z" />
    <glyph glyph-name="uni0336" unicode="&#x336;" 
d="M-1743 539v266h1723v-266h-1723z" />
    <glyph glyph-name="uni0337" unicode="&#x337;" 
d="M-836 319l-127 216l779 430l127 -213z" />
    <glyph glyph-name="uni0338" unicode="&#x338;" 
d="M-911 -18l-189 147l821 1022l185 -150z" />
    <glyph glyph-name="Wgrave" unicode="&#x1e80;" horiz-adv-x="2080" 
d="M1675 1440h400l-480 -1440h-288l-271 813l-256 -813h-295l-479 1440h422l231 -856l68 239l184 617h254l183 -602l79 -279zM1346 1751l-74 -223l-588 143l104 322z" />
    <glyph glyph-name="wgrave" unicode="&#x1e81;" horiz-adv-x="1724" 
d="M1339 942h373l-371 -942h-272l-203 483l-204 -483h-275l-377 942h385l170 -469l195 469h225l207 -477zM1184 1233l-127 -221l-512 250l172 297z" />
    <glyph glyph-name="Wacute" unicode="&#x1e82;" horiz-adv-x="2080" 
d="M1675 1440h400l-480 -1440h-288l-271 813l-256 -813h-295l-479 1440h422l231 -856l68 239l184 617h254l183 -602l79 -279zM1362 1671l-588 -143l-74 223l557 242z" />
    <glyph glyph-name="wacute" unicode="&#x1e83;" horiz-adv-x="1724" 
d="M1339 942h373l-371 -942h-272l-203 483l-204 -483h-275l-377 942h385l170 -469l195 469h225l207 -477zM1196 1262l-512 -250l-127 221l467 326z" />
    <glyph glyph-name="Wdieresis" unicode="&#x1e84;" horiz-adv-x="2080" 
d="M1675 1440h400l-480 -1440h-288l-271 813l-256 -813h-295l-479 1440h422l231 -856l68 239l184 617h254l183 -602l79 -279zM772 1554q-84 0 -140.5 55.5t-58.5 140.5t56.5 141.5t142.5 56.5t140.5 -55.5t58.5 -140.5t-56.5 -141.5t-142.5 -56.5zM1292 1554
q-84 0 -142 56.5t-58 141.5t58 141.5t142 56.5t142.5 -56.5t58.5 -141.5t-58.5 -141.5t-142.5 -56.5z" />
    <glyph glyph-name="wdieresis" unicode="&#x1e85;" horiz-adv-x="1724" 
d="M1339 942h373l-371 -942h-272l-203 483l-204 -483h-275l-377 942h385l170 -469l195 469h225l207 -477zM1101 1096q-83 0 -138.5 54t-57.5 139t55.5 139.5t140.5 54.5t138 -54.5t57 -139.5t-55 -139t-140 -54zM630 1096q-83 0 -138.5 53t-57.5 138t55.5 140.5t140.5 55.5
t138 -55.5t57 -140.5t-55 -138t-140 -53z" />
    <glyph glyph-name="uni1E9E" unicode="&#x1e9e;" horiz-adv-x="1572" 
d="M1026 -18q-221 0 -381 77l135 299q84 -45 176 -45t142 38q49 38 49 110q0 71 -49 109t-140 38h-190v291l193 205h-209q-96 0 -158 -57t-64 -150v-897h-393v897q-1 246 145 394t470 149h643v-285l-242 -270q164 -35 264 -152q101 -117 101 -307t-136 -318
q-136 -126 -356 -126z" />
    <glyph glyph-name="Ygrave" unicode="&#x1ef2;" horiz-adv-x="1435" 
d="M915 0h-395v559l-518 881h473l256 -500l260 500h449l-525 -879v-561zM1049 1751l-74 -223l-588 143l105 322z" />
    <glyph glyph-name="ygrave" unicode="&#x1ef3;" horiz-adv-x="1138" 
d="M760 942h375l-531 -1341h-358l164 432l-402 909h410l176 -510zM911 1233l-127 -221l-512 250l172 297z" />
    <glyph glyph-name="uni1EF8" unicode="&#x1ef8;" horiz-adv-x="1435" 
d="M915 0h-395v559l-518 881h473l256 -500l260 500h449l-525 -879v-561zM509.5 1612q-22.5 -33 -22.5 -47l-206 170q0 24 35.5 73.5t69.5 79.5q82 74 200 74q76 0 160.5 -48t121.5 -48q70 0 92.5 31.5t22.5 48.5l207 -170q0 -25 -36 -74t-70 -80q-80 -74 -199 -74
q-76 0 -161 48.5t-138.5 48.5t-76 -33z" />
    <glyph glyph-name="uni1EF9" unicode="&#x1ef9;" horiz-adv-x="1138" 
d="M760 942h375l-531 -1341h-358l164 432l-402 909h410l176 -510zM368.5 1129.5q-22.5 -31.5 -22.5 -48.5l-207 170q0 18 30 68.5t102.5 105t158.5 54.5t174 -48.5t124 -48.5q69 0 91.5 33t22.5 47l207 -170q0 -31 -71 -121q-34 -43 -93.5 -74.5t-135 -31.5t-164.5 48
t-141.5 48t-75 -31.5z" />
    <glyph glyph-name="endash" unicode="&#x2013;" horiz-adv-x="1054" 
d="M111 358v281h833v-281h-833z" />
    <glyph glyph-name="emdash" unicode="&#x2014;" horiz-adv-x="1947" 
d="M113 356v283h1722v-283h-1722z" />
    <glyph glyph-name="quoteleft" unicode="&#x2018;" horiz-adv-x="569" 
d="M285 850q-96 0 -155 58q-58 58 -60 177t75 241q78 122 209 181l95 -110q-135 -98 -136 -170h27q70 0 114 -46t46 -131q2 -84 -58 -142t-157 -58z" />
    <glyph glyph-name="quoteright" unicode="&#x2019;" horiz-adv-x="546" 
d="M221 1155q-69 0 -113 46t-46 131q-2 84 58 142q62 58 158 58t155 -59q58 -59 61 -156q2 -137 -77 -261t-210 -182l-94 113q135 94 135 170q-6 -2 -27 -2z" />
    <glyph glyph-name="quotesinglbase" unicode="&#x201a;" horiz-adv-x="591" 
d="M240 -100q-68 0 -112 46t-46 131t58 142t156 57t156 -58q58 -58 60 -176t-76 -241t-209 -182l-96 113q137 94 137 170q-6 -2 -28 -2z" />
    <glyph glyph-name="quotedblleft" unicode="&#x201c;" horiz-adv-x="1050" 
d="M764 850q-96 0 -155 58q-58 58 -60 177t76 241t209 181l96 -110q-137 -98 -137 -170h28q70 0 112 -45t46 -131t-57 -144q-62 -57 -158 -57zM285 850q-96 0 -155 58q-58 58 -60 177t75 241q78 122 209 181l95 -110q-135 -98 -136 -170h27q70 0 114 -46t46 -131
q2 -84 -58 -142t-157 -58z" />
    <glyph glyph-name="quotedblright" unicode="&#x201d;" horiz-adv-x="1028" 
d="M700 1155q-70 0 -112 46t-45 131q-2 84 58 142q61 58 157 58t154 -58t61 -157q2 -137 -77 -261t-210 -182l-94 113q137 94 137 170q-8 -2 -29 -2zM221 1155q-69 0 -113 46t-46 131q-2 84 58 142q62 58 158 58t155 -59q58 -59 61 -156q2 -137 -77 -261t-210 -182l-94 113
q135 94 135 170q-6 -2 -27 -2z" />
    <glyph glyph-name="quotedblbase" unicode="&#x201e;" horiz-adv-x="1075" 
d="M721 -100q-70 0 -114 46t-46 131q-3 85 59 142t158 57t154 -59t61 -156q1 -139 -77 -261t-209 -181l-95 113q135 94 136 170q-6 -2 -27 -2zM240 -100q-68 0 -112 46t-46 131t58 142t156 57t156 -58q58 -58 60 -176t-76 -241t-209 -182l-96 113q137 94 137 170
q-6 -2 -28 -2z" />
    <glyph glyph-name="dagger" unicode="&#x2020;" horiz-adv-x="1265" 
d="M1169 1102v-336h-366v-766h-334l2 766h-373v336h373v416h332v-416h366z" />
    <glyph glyph-name="daggerdbl" unicode="&#x2021;" horiz-adv-x="1265" 
d="M1169 842h-368v-219h368v-334h-368v-289h-334v289h-369v334h369l2 219h-371v336h371v340h332v-340h368v-336z" />
    <glyph glyph-name="bullet" unicode="&#x2022;" horiz-adv-x="911" 
d="M456 268q-140 0 -240 102t-101 245q0 145 100 247q101 102 241 102t240 -102t100 -246t-100 -246t-240 -102z" />
    <glyph glyph-name="ellipsis" unicode="&#x2026;" horiz-adv-x="1665" 
d="M1432 -20q-90 0 -153 62q-62 62 -62 150t62 150q63 62 153 64q90 0 151 -62t61 -152q0 -88 -60 -150q-62 -62 -152 -62zM833 -20q-89 0 -152 62t-63 150t62 150t152 64q90 0 151 -62t61 -152q0 -88 -61 -150t-150 -62zM234 -20q-90 0 -152 61t-62 150t62 151t152 64
q90 0 151 -62t61 -152q0 -88 -61 -150t-151 -62z" />
    <glyph glyph-name="perthousand" unicode="&#x2030;" horiz-adv-x="2557" 
d="M2148 272q55 0 89 33t34 87t-34 86t-89 32t-87 -32q-31 -32 -31 -86t32 -87t86 -33zM1364 272q55 0 89 33t34 87t-34 86t-89 32t-87 -32t-32 -86t32 -87t87 -33zM2149 49q-161 0 -258 95t-97 249t98 247t258 93t256 -93t96 -248t-96 -249t-257 -94zM1365 49
q-161 0 -258 95t-97 249t98 247t258 93t256 -93t96 -248t-96 -249t-257 -94zM414 1036q55 0 89 33t34 87t-34 86t-89 32t-87 -32t-32 -86t32 -87t87 -33zM415 813q-161 0 -258 95t-97 249t98 247t258 93t256 -93t96 -248t-96 -249t-257 -94zM575 -27l-270 123l860 1448
l273 -135z" />
    <glyph glyph-name="guilsinglleft" unicode="&#x2039;" horiz-adv-x="692" 
d="M293 135l-242 357l242 372h325l-251 -372l251 -357h-325z" />
    <glyph glyph-name="guilsinglright" unicode="&#x203a;" horiz-adv-x="694" 
d="M74 139l256 357l-256 372h329l238 -372l-238 -357h-329z" />
    <glyph glyph-name="fraction" unicode="&#x2044;" horiz-adv-x="874" 
d="M250 -12l-256 114l616 1356l258 -123z" />
    <glyph glyph-name="Euro" unicode="&#x20ac;" horiz-adv-x="1540" 
d="M1040 315q80 0 189 26t135 52l117 -291q-62 -45 -124 -65q-61 -20 -128 -38t-197 -17q-276 0 -477 122t-287 334h-190v219h141q-2 23 -2 64t2 59h-141v219h186q80 217 282 338t479 121t437 -112l17 -13l-109 -284q-147 74 -330 73q-223 0 -350 -123h400v-219h-502
q-4 -38 -4 -58t4 -65h502v-219h-392q129 -123 342 -123z" />
    <glyph glyph-name="trademark" unicode="&#x2122;" horiz-adv-x="1398" 
d="M80 1239v195h452v-195h-126v-350h-205v350h-121zM807 889h-193l27 549h145l164 -258l160 258h143l25 -549h-186l-5 211l-71 -107h-137l-72 107v-211z" />
    <glyph glyph-name="minus" unicode="&#x2212;" horiz-adv-x="1224" 
d="M106 455v286h1012v-286h-1012z" />
    <glyph glyph-name="approxequal" unicode="&#x2248;" horiz-adv-x="1288" 
d="M467 252q-100 0 -164 -86l-188 160l14 20q37 52 94 98q113 90 244 88q83 0 197 -49t162 -49t88 27t60 51q19 25 19 29l183 -156q-13 -27 -52 -73q-38 -46 -76 -76t-98 -55q-60 -23 -137 -23q-78 0 -183 47t-163 47zM813 618q-77 0 -183 46t-159 47q-53 -1 -94 -21
t-58 -41l-16 -20l-188 157l16 21q36 52 94 96q117 88 242 86q82 0 197 -47q116 -47 164 -47t99 34t66 70l183 -155q-14 -28 -52 -72q-39 -45 -76 -76q-96 -78 -235 -78z" />
    <glyph glyph-name="notequal" unicode="&#x2260;" horiz-adv-x="1331" 
d="M1212 684h-358l-49 -176h407v-287h-487l-41 -149h-315l41 149h-291v287h370l50 176h-420v287h499l46 159h313l-45 -159h280v-287z" />
    <glyph glyph-name="uniF8FF" unicode="&#xf8ff;" horiz-adv-x="2971" 
d="M2238 31h15q8 0 8 6t-8 6h-15v-12zM2228 4v47h23q20 0 20 -14t-14 -14l12 -19h-12l-8 19h-11v-19h-10zM2249 -10q37 0 37 37t-37 37t-37 -38q0 -36 37 -36zM2249 -20q-49 0 -49 47t49 47t49 -47t-49 -47zM1448 223q0 47 -43 47t-43 -63q0 -29 10 -60q30 -1 53 23t23 53z
M1921 223h82q6 55 -35 56q-47 -1 -47 -56zM1987 -10q-289 0 -289 250q0 122 66 190t185 68q118 0 180 -62t62 -176q0 -43 -6 -72h-254q23 -36 98 -36t117 24v-153q-46 -33 -159 -33zM1143 -90q0 291 20 577h160q14 -86 14 -155q35 166 164 166q76 0 120 -60t44 -172
q0 -276 -281 -276q2 -31 2 -80h-243zM1110 210q0 -172 -68 -242t-218 -70t-206 34v170q49 -32 118 -32q136 1 136 57q-33 -23 -100 -23q-184 0 -184 170v27h-113l6 -133q12 -8 35 -8t33 10v-150q-39 -30 -135 -30t-133 35t-37 113t6 163h-37v164l240 59l-2 -37h362v-243
q0 -33 6 -44t25 -12q33 0 33 56v243h213q20 -106 20 -277zM2517 707q45 0 45 57t-45 57t-45 -57t45 -57zM752 707q47 0 47 57t-47 57t-47 -57t47 -57zM2519 1053q248 0 248 -255t-251 -255t-251 255t254 255zM1708 553q0 358 21 489h163q12 -90 13 -155q4 31 13 61t49 68
q39 37 113 37q74 1 108 -51t38 -166l6 -283h-233l4 190q0 59 -31 60q-37 0 -37 -60l7 -190h-234zM1012 813v-260h-170l-17 125q-24 -135 -153 -135q-188 0 -189 233q0 276 275 277q254 0 254 -240zM1032 854v162l244 61l2 -35h364q20 -131 21 -489h-242q0 188 6 301h-124
l6 -133q9 -8 33 -8t34 10v-152q-28 -30 -139 -30q-168 0 -168 135l8 178h-45zM205 553q0 274 18 643h205q20 -410 21 -643h-244zM1540 1069q-53 0 -89 37t-36 89t36 89t89 37t90 -37t37 -90t-37 -89t-90 -36z" />
    <glyph glyph-name="A.ss01" horiz-adv-x="1544" 
d="M522 655h500v154q0 127 -60.5 213t-192.5 86t-189.5 -86t-57.5 -213v-154zM770 1458q297 0 470 -173t173 -507v-778h-391v330h-500v-330h-391v778q0 334 171 507t468 173z" />
    <glyph glyph-name="Aacute.ss01" horiz-adv-x="1544" 
d="M522 655h500v154q0 127 -60.5 213t-192.5 86t-189.5 -86t-57.5 -213v-154zM770 1458q297 0 470 -173t173 -507v-778h-391v330h-500v-330h-391v778q0 334 171 507t468 173zM1098 1671l-588 -143l-74 223l557 242z" />
    <glyph glyph-name="Abreve.ss01" horiz-adv-x="1544" 
d="M522 655h500v154q0 127 -60.5 213t-192.5 86t-189.5 -86t-57.5 -213v-154zM770 1458q297 0 470 -173t173 -507v-778h-391v330h-500v-330h-391v778q0 334 171 507t468 173zM766 1546q-176 0 -285.5 102.5t-109.5 276.5h276q0 -61 33 -99t87 -38t87 38t33 99h278
q0 -174 -111.5 -276.5t-287.5 -102.5z" />
    <glyph glyph-name="Acircumflex.ss01" horiz-adv-x="1544" 
d="M522 655h500v154q0 127 -60.5 213t-192.5 86t-189.5 -86t-57.5 -213v-154zM770 1458q297 0 470 -173t173 -507v-778h-391v330h-500v-330h-391v778q0 334 171 507t468 173zM768 1671l-104 -121h-320l289 375h278l279 -375h-318z" />
    <glyph glyph-name="Adieresis.ss01" horiz-adv-x="1544" 
d="M522 655h500v154q0 127 -60.5 213t-192.5 86t-189.5 -86t-57.5 -213v-154zM770 1458q297 0 470 -173t173 -507v-778h-391v330h-500v-330h-391v778q0 334 171 507t468 173zM508 1554q-84 0 -140.5 55.5t-58.5 140.5t56.5 141.5t142.5 56.5t140.5 -55.5t58.5 -140.5
t-56.5 -141.5t-142.5 -56.5zM1028 1554q-84 0 -142.5 56.5t-58.5 141.5t58.5 141.5t142.5 56.5t142.5 -56.5t58.5 -141.5t-58.5 -141.5t-142.5 -56.5z" />
    <glyph glyph-name="Agrave.ss01" horiz-adv-x="1544" 
d="M522 655h500v154q0 127 -60.5 213t-192.5 86t-189.5 -86t-57.5 -213v-154zM770 1458q297 0 470 -173t173 -507v-778h-391v330h-500v-330h-391v778q0 334 171 507t468 173zM1081 1751l-73 -223l-588 143l104 322z" />
    <glyph glyph-name="Aogonek.ss01" horiz-adv-x="1544" 
d="M522 655h500v154q0 127 -60.5 213t-192.5 86t-189.5 -86t-57.5 -213v-154zM989 -262q0 145 148 262h-115v330h-500v-330h-391v778q0 334 171 507t468 173t470 -173t173 -507v-778h-4q-57 -26 -106.5 -78.5t-49.5 -95.5q0 -70 78 -76q29 0 49 12l88 -184
q-94 -66 -214 -65.5t-192.5 60.5t-72.5 165z" />
    <glyph glyph-name="Aring.ss01" horiz-adv-x="1544" 
d="M522 655h500v154q0 127 -60.5 213t-192.5 86t-189.5 -86t-57.5 -213v-154zM770 1458q297 0 470 -173t173 -507v-778h-391v330h-500v-330h-391v778q0 334 171 507t468 173zM769 1849q-36 0 -58.5 -22.5t-22.5 -62.5t22.5 -64.5t57.5 -24.5t57.5 24.5t22.5 64.5t-21.5 62.5
t-57.5 22.5zM768 1489q-127 0 -207 75.5t-80 195.5t81 197t206 77t205 -77t80 -197t-79 -195.5t-206 -75.5z" />
    <glyph glyph-name="Atilde.ss01" horiz-adv-x="1544" 
d="M522 655h500v154q0 127 -60.5 213t-192.5 86t-189.5 -86t-57.5 -213v-154zM770 1458q297 0 470 -173t173 -507v-778h-391v330h-500v-330h-391v778q0 334 171 507t468 173zM543 1613q-23 -32 -23 -48l-207 170q0 23 36 73t70 80q82 73 199 74q76 0 161 -48t122 -48
q70 0 92.5 31.5t22.5 48.5l207 -170q0 -25 -36 -74t-70 -80q-81 -74 -199 -74q-76 0 -161 48.5t-138 48.5t-76 -32z" />
    <glyph glyph-name="R.ss01" horiz-adv-x="1447" 
d="M528 692h142q109 0 176 59.5t67 149.5t-67.5 153.5t-179.5 63.5h-138v-426zM1293 279q43 0 79 4v-291q-55 -29 -164.5 -29t-197.5 41t-145.5 100.5t-104.5 119.5q-111 143 -174 147h-58v-371h-376v1440h536q276 0 443 -146.5t167 -384.5q0 -145 -71.5 -262t-198.5 -188
q47 -29 94 -78t87.5 -75.5t83.5 -26.5z" />
    <glyph glyph-name="Racute.ss01" horiz-adv-x="1447" 
d="M528 692h142q109 0 176 59.5t67 149.5t-67.5 153.5t-179.5 63.5h-138v-426zM1293 279q43 0 79 4v-291q-55 -29 -164.5 -29t-197.5 41t-145.5 100.5t-104.5 119.5q-111 143 -174 147h-58v-371h-376v1440h536q276 0 443 -146.5t167 -384.5q0 -145 -71.5 -262t-198.5 -188
q47 -29 94 -78t87.5 -75.5t83.5 -26.5zM1018 1671l-588 -143l-74 223l557 242z" />
    <glyph glyph-name="Rcaron.ss01" horiz-adv-x="1447" 
d="M528 692h142q109 0 176 59.5t67 149.5t-67.5 153.5t-179.5 63.5h-138v-426zM1293 279q43 0 79 4v-291q-55 -29 -164.5 -29t-197.5 41t-145.5 100.5t-104.5 119.5q-111 143 -174 147h-58v-371h-376v1440h536q276 0 443 -146.5t167 -384.5q0 -145 -71.5 -262t-198.5 -188
q47 -29 94 -78t87.5 -75.5t83.5 -26.5zM821 1552h-278l-279 375h318l104 -121l105 121h319z" />
    <glyph glyph-name="Rcommaaccent.ss01" horiz-adv-x="1447" 
d="M730 -51q85 0 138.5 -52.5t53.5 -150.5t-69 -197.5t-181 -146.5l-78 92q96 74 100 139q-6 -2 -18 -2q-57 0 -96 41t-41 112t52 118t139 47zM528 692h142q109 0 176 59.5t67 149.5t-67.5 153.5t-179.5 63.5h-138v-426zM1293 279q43 0 79 4v-291q-55 -29 -164.5 -29
t-197.5 41t-145.5 100.5t-104.5 119.5q-111 143 -174 147h-58v-371h-376v1440h536q276 0 443 -146.5t167 -384.5q0 -145 -71.5 -262t-198.5 -188q47 -29 94 -78t87.5 -75.5t83.5 -26.5z" />
    <glyph glyph-name="Y.ss01" horiz-adv-x="1433" 
d="M965 1440h391v-377q0 -258 -114 -419t-318 -214v-430h-394v426q-213 49 -332.5 212t-119.5 425v377h391v-410q0 -111 59.5 -193.5t188.5 -82.5t188.5 83t59.5 193v410z" />
    <glyph glyph-name="Yacute.ss01" horiz-adv-x="1433" 
d="M965 1440h391v-377q0 -258 -114 -419t-318 -214v-430h-394v426q-213 49 -332.5 212t-119.5 425v377h391v-410q0 -111 59.5 -193.5t188.5 -82.5t188.5 83t59.5 193v410zM1038 1671l-587 -143l-74 223l557 242z" />
    <glyph glyph-name="Ycircumflex.ss01" horiz-adv-x="1433" 
d="M965 1440h391v-377q0 -258 -114 -419t-318 -214v-430h-394v426q-213 49 -332.5 212t-119.5 425v377h391v-410q0 -111 59.5 -193.5t188.5 -82.5t188.5 83t59.5 193v410zM709 1671l-105 -121h-319l288 375h279l278 -375h-317z" />
    <glyph glyph-name="Ydieresis.ss01" horiz-adv-x="1433" 
d="M965 1440h391v-377q0 -258 -114 -419t-318 -214v-430h-394v426q-213 49 -332.5 212t-119.5 425v377h391v-410q0 -111 59.5 -193.5t188.5 -82.5t188.5 83t59.5 193v410zM448.5 1554q-83.5 0 -140 55.5t-58.5 140.5t56.5 141.5t142 56.5t140 -55.5t58.5 -140.5
t-56.5 -141.5t-142 -56.5zM969 1554q-84 0 -142.5 56.5t-58.5 141.5t58.5 141.5t142.5 56.5t142 -56.5t58 -141.5t-58 -141.5t-142 -56.5z" />
    <glyph glyph-name="Ygrave.ss01" horiz-adv-x="1433" 
d="M965 1440h391v-377q0 -258 -114 -419t-318 -214v-430h-394v426q-213 49 -332.5 212t-119.5 425v377h391v-410q0 -111 59.5 -193.5t188.5 -82.5t188.5 83t59.5 193v410zM1022 1751l-74 -223l-588 143l105 322z" />
    <glyph glyph-name="uni1EF8.ss01" horiz-adv-x="1433" 
d="M965 1440h391v-377q0 -258 -114 -419t-318 -214v-430h-394v426q-213 49 -332.5 212t-119.5 425v377h391v-410q0 -111 59.5 -193.5t188.5 -82.5t188.5 83t59.5 193v410zM484 1613q-23 -32 -23 -48l-207 170q0 25 36 74t70 79q81 74 199 74q76 0 161 -48t122 -48
q70 0 92 32t22 48l207 -170q0 -26 -35.5 -74.5t-69.5 -79.5q-81 -74 -200 -74q-76 0 -161 48.5t-137.5 48.5t-75.5 -32z" />
    <glyph glyph-name="ae.001" horiz-adv-x="1726" 
d="M514 221q55 0 95 30t40 83q-43 12 -117 12q-111 0 -110 -63q0 -62 92 -62zM1174 688q-111 0 -146 -104h291q-6 47 -44 75.5t-101 28.5zM649 518q1 158 -219 158q-114 0 -223 -53l-101 247q96 47 183.5 69t236.5 22q211 0 342 -130q133 129 320 130q221 0 349 -139.5
t128 -362.5l-4 -80h-631q45 -117 211 -117q125 0 229 78l140 -225q-47 -49 -146.5 -91t-249.5 -42q-256 0 -397 196q-115 -197 -422 -196q-158 0 -252 72.5t-94 198.5t106.5 205t286.5 79q115 0 207 -27v8z" />
    <glyph glyph-name="i.loclTRK" horiz-adv-x="577" 
d="M104 0v942h369v-942h-369zM286 1092q-87 0 -147.5 59t-60.5 148t60.5 145.5t148.5 56.5t147.5 -58.5t59.5 -147.5t-60.5 -146t-147.5 -57z" />
    <glyph glyph-name="a.ss01" horiz-adv-x="1107" 
d="M514 221q55 0 95 30t40 83q-43 12 -117 12q-111 0 -110 -63q0 -62 92 -62zM649 518q1 158 -219 158q-114 0 -223 -53l-101 247q96 45 186.5 68t264 23t316.5 -116t143 -325v-520h-285l-14 123q-90 -141 -322 -141q-158 0 -252 72.5t-94 198.5t106.5 205t286.5 79
q115 0 207 -27v8z" />
    <glyph glyph-name="aacute.ss01" horiz-adv-x="1107" 
d="M514 221q55 0 95 30t40 83q-43 12 -117 12q-111 0 -110 -63q0 -62 92 -62zM649 518q1 158 -219 158q-114 0 -223 -53l-101 247q96 45 186.5 68t264 23t316.5 -116t143 -325v-520h-285l-14 123q-90 -141 -322 -141q-158 0 -252 72.5t-94 198.5t106.5 205t286.5 79
q115 0 207 -27v8zM870 1262l-512 -250l-127 221l467 326z" />
    <glyph glyph-name="abreve.ss01" horiz-adv-x="1107" 
d="M514 221q55 0 95 30t40 83q-43 12 -117 12q-111 0 -110 -63q0 -62 92 -62zM649 518q1 158 -219 158q-114 0 -223 -53l-101 247q96 45 186.5 68t264 23t316.5 -116t143 -325v-520h-285l-14 123q-90 -141 -322 -141q-158 0 -252 72.5t-94 198.5t106.5 205t286.5 79
q115 0 207 -27v8zM539 1081q-170 0 -275.5 102.5t-105.5 278.5h276q0 -66 29 -104.5t76 -38.5t75.5 39t28.5 104h279q0 -176 -106.5 -278.5t-276.5 -102.5z" />
    <glyph glyph-name="acircumflex.ss01" horiz-adv-x="1107" 
d="M514 221q55 0 95 30t40 83q-43 12 -117 12q-111 0 -110 -63q0 -62 92 -62zM649 518q1 158 -219 158q-114 0 -223 -53l-101 247q96 45 186.5 68t264 23t316.5 -116t143 -325v-520h-285l-14 123q-90 -141 -322 -141q-158 0 -252 72.5t-94 198.5t106.5 205t286.5 79
q115 0 207 -27v8zM541 1225l-105 -144h-282l252 396h278l242 -396h-281z" />
    <glyph glyph-name="adieresis.ss01" horiz-adv-x="1107" 
d="M514 221q55 0 95 30t40 83q-43 12 -117 12q-111 0 -110 -63q0 -62 92 -62zM649 518q1 158 -219 158q-114 0 -223 -53l-101 247q96 45 186.5 68t264 23t316.5 -116t143 -325v-520h-285l-14 123q-90 -141 -322 -141q-158 0 -252 72.5t-94 198.5t106.5 205t286.5 79
q115 0 207 -27v8zM775 1096q-83 0 -138 54t-57 139t55 139.5t140 54.5t138.5 -54.5t57.5 -139.5t-55.5 -139t-140.5 -54zM304 1096q-83 0 -138 53t-57 138t55 140.5t140 55.5t138.5 -55.5t57.5 -140.5t-55.5 -138t-140.5 -53z" />
    <glyph glyph-name="agrave.ss01" horiz-adv-x="1107" 
d="M514 221q55 0 95 30t40 83q-43 12 -117 12q-111 0 -110 -63q0 -62 92 -62zM649 518q1 158 -219 158q-114 0 -223 -53l-101 247q96 45 186.5 68t264 23t316.5 -116t143 -325v-520h-285l-14 123q-90 -141 -322 -141q-158 0 -252 72.5t-94 198.5t106.5 205t286.5 79
q115 0 207 -27v8zM858 1233l-127 -221l-512 250l172 297z" />
    <glyph glyph-name="amacron.ss01" horiz-adv-x="1107" 
d="M514 221q55 0 95 30t40 83q-43 12 -117 12q-111 0 -110 -63q0 -62 92 -62zM649 518q1 158 -219 158q-114 0 -223 -53l-101 247q96 45 186.5 68t264 23t316.5 -116t143 -325v-520h-285l-14 123q-90 -141 -322 -141q-158 0 -252 72.5t-94 198.5t106.5 205t286.5 79
q115 0 207 -27v8zM893 1391v-279h-707v279h707z" />
    <glyph glyph-name="aogonek.ss01" horiz-adv-x="1107" 
d="M514 221q55 0 95 30t40 83q-43 12 -117 12q-111 0 -110 -63q0 -62 92 -62zM649 518q1 158 -219 158q-114 0 -223 -53l-101 247q96 45 186.5 68t264 23t316.5 -116t143 -325v-520q-57 -26 -106.5 -78.5t-49.5 -95.5q0 -70 78 -76q26 0 49 12l88 -184q-94 -66 -214 -65.5
t-192.5 60.5t-72.5 165q0 145 135 268l-14 117q-90 -141 -322 -141q-158 0 -252 72.5t-94 198.5t106.5 205t286.5 79q115 0 207 -27v8z" />
    <glyph glyph-name="aring.ss01" horiz-adv-x="1107" 
d="M514 221q55 0 95 30t40 83q-43 12 -117 12q-111 0 -110 -63q0 -62 92 -62zM649 518q1 158 -219 158q-114 0 -223 -53l-101 247q96 45 186.5 68t264 23t316.5 -116t143 -325v-520h-285l-14 123q-90 -141 -322 -141q-158 0 -252 72.5t-94 198.5t106.5 205t286.5 79
q115 0 207 -27v8zM541 1401q-35 0 -56.5 -23.5t-21.5 -61.5t22.5 -63.5t56.5 -25.5t55 25.5t21 62.5q1 86 -77 86zM541 1042q-125 0 -206 76t-81 195t81 194.5t206 75.5t204.5 -75.5t79.5 -194.5t-79.5 -195t-204.5 -76z" />
    <glyph glyph-name="atilde.ss01" horiz-adv-x="1107" 
d="M514 221q55 0 95 30t40 83q-43 12 -117 12q-111 0 -110 -63q0 -62 92 -62zM649 518q1 158 -219 158q-114 0 -223 -53l-101 247q96 45 186.5 68t264 23t316.5 -116t143 -325v-520h-285l-14 123q-90 -141 -322 -141q-158 0 -252 72.5t-94 198.5t106.5 205t286.5 79
q115 0 207 -27v8zM315.5 1129.5q-22.5 -31.5 -22.5 -48.5l-207 170q0 18 29.5 68.5t102.5 105t159 54.5t174 -48.5t124 -48.5q69 0 91 32t22 48l207 -170q-1 -31 -71 -121q-34 -43 -93 -74.5t-135 -31.5t-165 48t-141 48t-74.5 -31.5z" />
    <glyph glyph-name="a.sc" horiz-adv-x="1191" 
d="M496 365h200l-100 276zM827 0l-49 135h-364l-49 -135h-375l487 1069h240l483 -1069h-373z" />
    <glyph glyph-name="aacute.sc" horiz-adv-x="1191" 
d="M496 365h200l-100 276zM827 0l-49 135h-364l-49 -135h-375l487 1069h240l483 -1069h-373zM938 1354l-512 -250l-127 221l467 326z" />
    <glyph glyph-name="abreve.sc" horiz-adv-x="1191" 
d="M496 365h200l-100 276zM827 0l-49 135h-364l-49 -135h-375l487 1069h240l483 -1069h-373zM587 1153q-167 0 -271.5 98.5t-104.5 266.5h276q0 -123 101 -123q96 0 96 123h279q0 -168 -104.5 -266.5t-271.5 -98.5z" />
    <glyph glyph-name="acircumflex.sc" horiz-adv-x="1191" 
d="M496 365h200l-100 276zM827 0l-49 135h-364l-49 -135h-375l487 1069h240l483 -1069h-373zM590 1296l-105 -143h-282l252 395h278l242 -395h-281z" />
    <glyph glyph-name="adieresis.sc" horiz-adv-x="1191" 
d="M496 365h200l-100 276zM827 0l-49 135h-364l-49 -135h-375l487 1069h240l483 -1069h-373zM824 1153q-83 0 -138 54.5t-57 139t55 139t140 54.5t138.5 -54t57.5 -139.5t-55.5 -139.5t-140.5 -54zM353 1153q-83 0 -138 53.5t-57 138t55 140t140 55.5t138.5 -55t57.5 -140.5
t-55.5 -138.5t-140.5 -53z" />
    <glyph glyph-name="agrave.sc" horiz-adv-x="1191" 
d="M496 365h200l-100 276zM827 0l-49 135h-364l-49 -135h-375l487 1069h240l483 -1069h-373zM891 1325l-127 -221l-512 250l172 297z" />
    <glyph glyph-name="amacron.sc" horiz-adv-x="1191" 
d="M496 365h200l-100 276zM827 0l-49 135h-364l-49 -135h-375l487 1069h240l483 -1069h-373zM928 1475v-279h-688v279h688z" />
    <glyph glyph-name="aogonek.sc" horiz-adv-x="1191" 
d="M496 365h200l-100 276zM780 -262q0 145 129 262h-82l-49 135h-364l-49 -135h-375l487 1069h240l483 -1069q-57 -26 -106.5 -78.5t-49.5 -95.5q0 -70 78 -76q29 0 49 12l89 -184q-94 -66 -214.5 -65.5t-193 60.5t-72.5 165z" />
    <glyph glyph-name="aring.sc" horiz-adv-x="1191" 
d="M496 365h200l-100 276zM827 0l-49 135h-364l-49 -135h-375l487 1069h240l483 -1069h-373zM589 1450q-36 0 -58.5 -22.5t-22.5 -62.5t22.5 -64.5t57.5 -24.5t57.5 24.5t22.5 64.5t-21.5 62.5t-57.5 22.5zM588 1090q-127 0 -207 75.5t-80 195.5t81 196.5t206 76.5
t204.5 -76.5t79.5 -196.5t-78.5 -195.5t-205.5 -75.5z" />
    <glyph glyph-name="atilde.sc" horiz-adv-x="1191" 
d="M496 365h200l-100 276zM827 0l-49 135h-364l-49 -135h-375l487 1069h240l483 -1069h-373zM364.5 1211.5q-22.5 -31.5 -22.5 -48.5l-207 170q0 18 30 68.5t102.5 105t158.5 54.5t174 -48.5t124 -48.5q68 0 91 32t23 48l206 -170q0 -10 -18 -44t-52 -77t-93.5 -74.5
t-135 -31.5t-164.5 48t-141.5 48t-75 -31.5z" />
    <glyph glyph-name="ae.sc" horiz-adv-x="1568" 
d="M686 403v332l-154 -332h154zM1470 1069v-287h-448v-110h389v-273h-389v-110h448v-289h-784v154h-248l-63 -154h-383l502 1069h976z" />
    <glyph glyph-name="aeacute.sc" horiz-adv-x="1568" 
d="M686 403v332l-154 -332h154zM1470 1069v-287h-448v-110h389v-273h-389v-110h448v-289h-784v154h-248l-63 -154h-383l502 1069h976zM793 1094l-127 221l467 325l172 -297z" />
    <glyph glyph-name="b.sc" horiz-adv-x="1136" 
d="M627 258q53 0 83 25t30 63t-30 62q-30 25 -85 24h-160v-174h162zM700 735q0 72 -98 72h-137v-150h137q98 0 98 78zM1069 328q0 -328 -453 -328h-493v1069h520q189 0 285 -74t96 -196q0 -76 -41 -132t-113 -81q94 -25 147 -92q52 -68 52 -166z" />
    <glyph glyph-name="c.sc" horiz-adv-x="1085" 
d="M653 -27q-252 0 -419.5 158t-167.5 405t167.5 403.5t415.5 156.5t395 -131l-167 -281q-89 74 -195 74t-168.5 -60.5t-62.5 -159t63.5 -162t173.5 -63.5t189 76l167 -283q-47 -49 -144 -91t-247 -42z" />
    <glyph glyph-name="cacute.sc" horiz-adv-x="1085" 
d="M653 -27q-252 0 -419.5 158t-167.5 405t167.5 403.5t415.5 156.5t395 -131l-167 -281q-89 74 -195 74t-168.5 -60.5t-62.5 -159t63.5 -162t173.5 -63.5t189 76l167 -283q-47 -49 -144 -91t-247 -42zM473 1104l-127 221l467 326l172 -297z" />
    <glyph glyph-name="ccaron.sc" horiz-adv-x="1085" 
d="M687.5 313q109.5 0 189.5 76l167 -283q-47 -49 -144 -91t-247 -42q-252 0 -419.5 158t-167.5 405t167.5 403.5t415.5 156.5t395 -131l-167 -281q-90 74 -195.5 74t-168 -60.5t-62.5 -159t63.5 -162t173 -63.5zM770 1159h-278l-238 377h276l105 -133l104 133h279z" />
    <glyph glyph-name="ccedilla.sc" horiz-adv-x="1085" 
d="M687.5 313q109.5 0 189.5 76l167 -283q-106 -113 -319 -129l-27 -63q100 0 156.5 -55.5t56.5 -150.5t-76.5 -159.5t-213.5 -64.5t-238 82l72 149q84 -49 149.5 -49t65.5 60.5t-84 60.5q-37 0 -88 -10l-29 35l63 172q-207 37 -336.5 186t-129.5 381t167.5 388.5
t415.5 156.5t395 -131l-167 -281q-90 74 -195.5 74t-168 -60.5t-62.5 -159t63.5 -162t173 -63.5z" />
    <glyph glyph-name="cdotaccent.sc" horiz-adv-x="1085" 
d="M653 -27q-252 0 -419.5 158t-167.5 405t167.5 403.5t415.5 156.5t395 -131l-167 -281q-90 74 -195.5 74t-168 -60.5t-62.5 -159t63.5 -162t173 -63.5t189.5 76l167 -283q-47 -49 -144 -91t-247 -42zM636 1137q-87 0 -147.5 58t-60.5 148.5t61.5 146.5t149.5 56t146.5 -58
t58.5 -147.5t-60.5 -146.5t-147.5 -57z" />
    <glyph glyph-name="d.sc" horiz-adv-x="1261" 
d="M606 319q104 0 160.5 57.5t56.5 156.5t-55 158t-162 59h-121v-431h121zM616 1069q262 0 420 -147.5t158 -388.5t-158.5 -387t-419.5 -146h-497v1069h497z" />
    <glyph glyph-name="eth.sc" horiz-adv-x="1261" 
d="M606 319q104 0 160.5 57.5t56.5 156.5t-55 158t-162 59h-121v-84h168v-246h-168v-101h121zM616 1069q262 0 420 -147.5t158 -388.5t-158.5 -387t-419.5 -146h-497v420h-109v246h109v403h497z" />
    <glyph glyph-name="dcaron.sc" horiz-adv-x="1261" 
d="M606 319q104 0 160.5 57.5t56.5 156.5t-55 158t-162 59h-121v-431h121zM616 1069q262 0 420 -147.5t158 -388.5t-158.5 -387t-419.5 -146h-497v1069h497zM778 1159h-278l-238 377h277l104 -133l105 133h278z" />
    <glyph glyph-name="dcroat.sc" horiz-adv-x="1261" 
d="M606 319q104 0 160.5 57.5t56.5 156.5t-55 158t-162 59h-121v-84h168v-246h-168v-101h121zM616 1069q262 0 420 -147.5t158 -388.5t-158.5 -387t-419.5 -146h-497v420h-109v246h109v403h497z" />
    <glyph glyph-name="e.sc" horiz-adv-x="1034" 
d="M938 780h-471v-106h410v-273h-410v-110h471v-291h-813v1069h813v-289z" />
    <glyph glyph-name="eacute.sc" horiz-adv-x="1034" 
d="M938 780h-471v-106h410v-273h-410v-110h471v-291h-813v1069h813v-289zM893 1354l-512 -250l-127 221l467 326z" />
    <glyph glyph-name="ecaron.sc" horiz-adv-x="1034" 
d="M938 780h-471v-106h410v-273h-410v-110h471v-291h-813v1069h813v-289zM678 1159h-279l-237 377h276l105 -133l104 133h279z" />
    <glyph glyph-name="ecircumflex.sc" horiz-adv-x="1034" 
d="M938 780h-471v-106h410v-273h-410v-110h471v-291h-813v1069h813v-289zM545 1296l-105 -143h-282l252 395h278l242 -395h-281z" />
    <glyph glyph-name="edieresis.sc" horiz-adv-x="1034" 
d="M125 0v1069h813v-289h-471v-106h410v-273h-410v-110h471v-291h-813zM779 1153q-83 0 -138 54.5t-57 139t55 139t140 54.5t138.5 -54t57.5 -139.5t-55.5 -139.5t-140.5 -54zM308 1153q-83 0 -138 53.5t-57 138t55 140t140 55.5t138.5 -55t57.5 -140.5t-55.5 -138.5
t-140.5 -53z" />
    <glyph glyph-name="edotaccent.sc" horiz-adv-x="1034" 
d="M938 780h-471v-106h410v-273h-410v-110h471v-291h-813v1069h813v-289zM544 1137q-87 0 -147.5 58t-60.5 148.5t61.5 146.5t149.5 56t146.5 -58t58.5 -147.5t-60.5 -146.5t-147.5 -57z" />
    <glyph glyph-name="egrave.sc" horiz-adv-x="1034" 
d="M938 780h-471v-106h410v-273h-410v-110h471v-291h-813v1069h813v-289zM846 1325l-127 -221l-512 250l172 297z" />
    <glyph glyph-name="emacron.sc" horiz-adv-x="1034" 
d="M938 780h-471v-106h410v-273h-410v-110h471v-291h-813v1069h813v-289zM883 1475v-279h-688v279h688z" />
    <glyph glyph-name="eogonek.sc" horiz-adv-x="1034" 
d="M518 -262q0 145 129 262h-522v1069h813v-289h-471v-106h410v-273h-410v-110h471v-291q-57 -26 -106.5 -78.5t-49.5 -95.5q0 -70 78 -76q29 0 49 12l88 -184q-94 -66 -214 -65.5t-192.5 60.5t-72.5 165z" />
    <glyph glyph-name="f.sc" horiz-adv-x="1003" 
d="M942 750h-457v-162h379v-293h-379v-295h-366v1069h823v-319z" />
    <glyph glyph-name="g.sc" horiz-adv-x="1202" 
d="M782 547h334v-428q-63 -51 -181 -94t-271 -43q-264 0 -431 154t-167 392t170 398.5t429 160.5t437 -110l-156 -291q-98 62 -228 62t-202 -62q-72 -60 -72 -162t65.5 -160.5t174.5 -58.5q66 0 98 14v228z" />
    <glyph glyph-name="gbreve.sc" horiz-adv-x="1202" 
d="M782 547h334v-428q-63 -51 -181 -94t-271 -43q-264 0 -431 153.5t-167 392t170 399t429 160.5t437 -110l-156 -291q-98 61 -228 61.5t-202 -61t-72 -163t65.5 -160t174.5 -58.5q66 0 98 14v228zM646 1153q-167 0 -271.5 98.5t-104.5 266.5h277q0 -123 98 -123t98 123h279
q0 -168 -104.5 -266.5t-271.5 -98.5z" />
    <glyph glyph-name="gcommaaccent.sc" horiz-adv-x="1202" 
d="M669 -72q85 0 138 -52t53 -152t-65.5 -204t-173.5 -155l-97 98q104 78 109 150q-6 -2 -19 -2q-57 0 -96 41t-41 111.5t52.5 117.5t139.5 47zM782 547h334v-428q-63 -51 -181 -94t-271 -43q-264 0 -431 153.5t-167 392t170 399t429 160.5t437 -110l-156 -291
q-98 61 -228 61.5t-202 -61t-72 -163t65.5 -160t174.5 -58.5q66 0 98 14v228z" />
    <glyph glyph-name="gdotaccent.sc" horiz-adv-x="1202" 
d="M782 547h334v-428q-63 -51 -181 -94t-271 -43q-264 0 -431 153.5t-167 392t170 399t429 160.5t437 -110l-156 -291q-98 61 -228 61.5t-202 -61t-72 -163t65.5 -160t174.5 -58.5q66 0 98 14v228zM648 1137q-87 0 -147.5 58t-60.5 148.5t61.5 146.5t149.5 56t146.5 -58
t58.5 -147.5t-60.5 -146.5t-147.5 -57z" />
    <glyph glyph-name="h.sc" horiz-adv-x="1316" 
d="M836 1069h362v-1069h-362v375h-351v-375h-366v1069h366v-371h351v371z" />
    <glyph glyph-name="hbar.sc" horiz-adv-x="1316" 
d="M836 698v76h-351v-76h351zM1298 1010v-236h-100v-774h-362v375h-351v-375h-366v774h-74v236h74v59h366v-59h351v59h362v-59h100z" />
    <glyph glyph-name="i.sc" horiz-adv-x="604" 
d="M119 0v1069h366v-1069h-366z" />
    <glyph glyph-name="dotlessi.sc" horiz-adv-x="604" 
d="M119 0v1069h366v-1069h-366z" />
    <glyph glyph-name="iacute.sc" horiz-adv-x="604" 
d="M119 0v1069h366v-1069h-366zM139 1104l-127 221l467 326l172 -297z" />
    <glyph glyph-name="icircumflex.sc" horiz-adv-x="604" 
d="M119 0v1069h366v-1069h-366zM303 1296l-104 -143h-283l252 395h278l242 -395h-280z" />
    <glyph glyph-name="idieresis.sc" horiz-adv-x="604" 
d="M119 0v1069h366v-1069h-366zM538 1153q-83 0 -138.5 54.5t-57.5 139t55.5 139t140.5 54.5t138 -54t57 -139.5t-55 -139.5t-140 -54zM67 1153q-83 0 -138.5 53.5t-57.5 138t55.5 140t140.5 55.5t138 -55t57 -140.5t-55 -138.5t-140 -53z" />
    <glyph glyph-name="igrave.sc" horiz-adv-x="604" 
d="M119 0v1069h366v-1069h-366zM477 1104l-512 250l172 297l467 -326z" />
    <glyph glyph-name="ij.sc" horiz-adv-x="1454" 
d="M891 -18q-162 0 -293 71l135 309q55 -26 115 -26t95.5 32.5t35.5 96.5v604h367v-661q0 -197 -123 -311.5t-332 -114.5zM119 0v1069h366v-1069h-366z" />
    <glyph glyph-name="imacron.sc" horiz-adv-x="604" 
d="M119 0v1069h366v-1069h-366zM23 1196v279h550v-279h-550z" />
    <glyph glyph-name="iogonek.sc" horiz-adv-x="604" 
d="M43 -262q0 145 129 262h-53v1069h366v-1069h-22q-57 -26 -106.5 -78.5t-49.5 -95.5q0 -70 78 -76q29 0 49 12l88 -184q-94 -66 -214 -65.5t-192.5 60.5t-72.5 165z" />
    <glyph glyph-name="itilde.sc" horiz-adv-x="604" 
d="M119 0v1069h366v-1069h-366zM435 1147q-69 0 -140.5 48t-110.5 48t-59.5 -29.5t-20.5 -50.5l-165 170q0 18 23.5 68.5t81.5 105t127 54.5t139.5 -48.5t109.5 -48.5t59.5 30t20.5 50l166 -170q0 -18 -24 -68.5t-81 -104.5t-126 -54z" />
    <glyph glyph-name="j.sc" horiz-adv-x="849" 
d="M287 -18q-162 0 -293 71l135 309q55 -26 115 -26t95 33q36 33 36 96v604h366v-661q-1 -198 -123 -312t-331 -114z" />
    <glyph glyph-name="uni0237.sc" horiz-adv-x="849" 
d="M287 -18q-162 0 -293 71l135 309q55 -26 115 -26t95 33q36 33 36 96v604h366v-661q-1 -198 -123 -312t-331 -114z" />
    <glyph glyph-name="k.sc" horiz-adv-x="1204" 
d="M485 0h-366v1069h366v-420l281 420h424l-381 -516l393 -553h-446l-271 393v-393z" />
    <glyph glyph-name="kcommaaccent.sc" horiz-adv-x="1204" 
d="M605 -72q85 0 138.5 -52t53.5 -152t-65.5 -204t-174.5 -155l-96 98q104 78 108 150q-6 -2 -18 -2q-57 0 -96 41t-41 111.5t52 117.5t139 47zM485 0h-366v1069h366v-420l281 420h424l-381 -516l393 -553h-446l-271 393v-393z" />
    <glyph glyph-name="kgreenlandic.sc" horiz-adv-x="1204" 
d="M485 0h-366v1069h366v-420l281 420h424l-381 -516l393 -553h-446l-271 393v-393z" />
    <glyph glyph-name="l.sc" horiz-adv-x="983" 
d="M485 317h467v-317h-833v1069h366v-752z" />
    <glyph glyph-name="lacute.sc" horiz-adv-x="983" 
d="M485 317h467v-317h-833v1069h366v-752zM653 1354l-512 -250l-127 221l467 326z" />
    <glyph glyph-name="lcaron.sc" horiz-adv-x="983" 
d="M741 692q-70 0 -113.5 46t-45.5 132t58 142.5t158 56.5t156 -58.5t60 -156.5q2 -139 -76 -261t-209 -181l-96 112q137 94 137 170q-9 -2 -29 -2zM485 1069v-752h467v-317h-833v1069h366z" />
    <glyph glyph-name="lcommaaccent.sc" horiz-adv-x="983" 
d="M525 -72q85 0 138.5 -52t53.5 -152t-65.5 -204t-174.5 -155l-96 98q104 78 108 150q-6 -2 -18 -2q-57 0 -96 41t-41 111.5t52 117.5t139 47zM485 317h467v-317h-833v1069h366v-752z" />
    <glyph glyph-name="ldot.sc" horiz-adv-x="983" 
d="M806 907q89 0 151.5 -61.5t62.5 -149.5t-62.5 -150.5t-151.5 -62.5t-151.5 62.5t-62.5 150.5t62.5 149.5t151.5 61.5zM485 1069v-752h467v-317h-833v1069h366z" />
    <glyph glyph-name="lslash.sc" horiz-adv-x="983" 
d="M485 317h467v-317h-833v354l-96 -53l-142 238l238 131v399h366v-199l125 70l142 -238l-267 -147v-238z" />
    <glyph glyph-name="m.sc" horiz-adv-x="1492" 
d="M1378 0h-325l8 422l-234 -367h-165l-236 373l14 -428h-325l24 1069h230l387 -618l393 618h205z" />
    <glyph glyph-name="n.sc" horiz-adv-x="1320" 
d="M858 1069h338v-1079h-186l-543 499v-489h-342v1079h190l543 -495v485z" />
    <glyph glyph-name="nacute.sc" horiz-adv-x="1320" 
d="M858 1069h338v-1079h-186l-543 499v-489h-342v1079h190l543 -495v485zM1026 1354l-512 -250l-127 221l467 326z" />
    <glyph glyph-name="napostrophe.sc" horiz-adv-x="1437" 
d="M975 1069h338v-1079h-187l-542 499v-489h-342v1079h190l543 -495v485zM22 1526q97 0 155.5 -58.5t60.5 -156.5q2 -139 -76 -261t-209 -182l-96 113q137 94 137 170q-8 -2 -29 -2q-70 0 -114 46t-46 132t59 142.5t158 56.5z" />
    <glyph glyph-name="ncaron.sc" horiz-adv-x="1320" 
d="M858 1069h338v-1079h-186l-543 499v-489h-342v1079h190l543 -495v485zM811 1159h-279l-237 377h276l105 -133l104 133h279z" />
    <glyph glyph-name="ncommaaccent.sc" horiz-adv-x="1320" 
d="M697 -72q85 0 138.5 -52t53.5 -152t-65.5 -204t-174.5 -155l-96 98q104 78 109 150q-6 -2 -19 -2q-57 0 -96 41t-41 111.5t52 117.5t139 47zM858 1069h338v-1079h-186l-543 499v-489h-342v1079h190l543 -495v485z" />
    <glyph glyph-name="eng.sc" horiz-adv-x="1325" 
d="M858 1069h338v-1087q0 -182 -120 -291t-314 -109t-283 68l135 305q46 -35 108 -35t100 28.5t38 82.5v96l-393 362v-489h-342v1079h190l543 -495v485z" />
    <glyph glyph-name="ntilde.sc" horiz-adv-x="1320" 
d="M858 1069h338v-1079h-186l-543 499v-489h-342v1079h190l543 -495v485zM452.5 1211.5q-22.5 -31.5 -22.5 -48.5l-207 170q0 18 30 68.5t102.5 105t158.5 54.5t174 -48.5t124 -48.5q68 0 91 32t23 48l207 -170q0 -31 -71 -121q-34 -43 -93.5 -74.5t-135 -31.5t-164.5 48
t-141.5 48t-75 -31.5z" />
    <glyph glyph-name="o.sc" horiz-adv-x="1327" 
d="M664 311q96 0 156.5 64.5t60.5 164t-58.5 162t-157 62.5t-159 -63.5t-60.5 -160.5t61 -163t157 -66zM664 -27q-256 0 -427 163t-171 403t171 399.5t429 159.5t427 -158t169 -401.5t-171 -404.5t-427 -161z" />
    <glyph glyph-name="oacute.sc" horiz-adv-x="1327" 
d="M664 311q96 0 156.5 64.5t60.5 164t-58.5 162t-157 62.5t-159 -63.5t-60.5 -160.5t61 -163t157 -66zM664 -27q-256 0 -427 163t-171 403t171 399.5t429 159.5t427 -158t169 -401.5t-171 -404.5t-427 -161zM504 1104l-127 221l467 326l172 -297z" />
    <glyph glyph-name="ocircumflex.sc" horiz-adv-x="1327" 
d="M664 311q96 0 156.5 64.5t60.5 164t-58.5 162t-157 62.5t-159 -63.5t-60.5 -160.5t61 -163t157 -66zM666 1098q258 0 427 -158t169 -401.5t-171 -404.5t-427 -161t-427 163t-171 403t171 399.5t429 159.5zM668 1296l-105 -143h-282l251 395h279l242 -395h-281z" />
    <glyph glyph-name="odieresis.sc" horiz-adv-x="1327" 
d="M664 311q96 0 156.5 64.5t60.5 164t-58.5 162t-157 62.5t-159 -63.5t-60.5 -160.5t61 -163t157 -66zM664 -27q-256 0 -427 163t-171 403t171 399.5t429 159.5t427 -158t169 -401.5t-171 -404.5t-427 -161zM902 1153q-83 0 -138 54.5t-57 139t55 139t140 54.5t138.5 -54
t57.5 -139.5t-55.5 -139.5t-140.5 -54zM431 1153q-83 0 -138 53.5t-57 138t55 140t140 55.5t138.5 -55t57.5 -140.5t-55.5 -138.5t-140.5 -53z" />
    <glyph glyph-name="ograve.sc" horiz-adv-x="1327" 
d="M664 311q96 0 156.5 64.5t60.5 164t-58.5 162t-157 62.5t-159 -63.5t-60.5 -160.5t61 -163t157 -66zM664 -27q-256 0 -427 163t-171 403t171 399.5t429 159.5t427 -158t169 -401.5t-171 -404.5t-427 -161zM842 1104l-512 250l172 297l467 -326z" />
    <glyph glyph-name="ohungarumlaut.sc" horiz-adv-x="1327" 
d="M664 311q96 0 156.5 64.5t60.5 164t-58.5 162t-157 62.5t-159 -63.5t-60.5 -160.5t61 -163t157 -66zM664 -27q-256 0 -427 163t-171 403t171 399.5t429 159.5t427 -158t169 -401.5t-171 -404.5t-427 -161zM891 1102l-186 110l221 435l264 -168zM422 1102l-186 110
l221 435l264 -168z" />
    <glyph glyph-name="omacron.sc" horiz-adv-x="1327" 
d="M664 311q96 0 156.5 64.5t60.5 164t-58.5 162t-157 62.5t-159 -63.5t-60.5 -160.5t61 -163t157 -66zM664 -27q-256 0 -427 163t-171 403t171 399.5t429 159.5t427 -158t169 -401.5t-171 -404.5t-427 -161zM317 1196v279h689v-279h-689z" />
    <glyph glyph-name="uni01EB.sc" horiz-adv-x="1327" 
d="M446 540q0 -97 60.5 -163t157 -66t157 64.5t60.5 164t-58.5 162t-157 62.5t-159 -63.5t-60.5 -160.5zM659 -168q0 -76 78 -82q29 0 49 12l88 -184q-94 -66 -214 -65.5t-192.5 60.5t-72.5 165q0 141 119 252q-201 47 -324.5 197.5t-123.5 349.5q0 242 171 401.5t429 159.5
t427 -158t169 -386t-133.5 -380.5t-342.5 -189.5q-127 -76 -127 -152z" />
    <glyph glyph-name="oslash.sc" horiz-adv-x="1327" 
d="M664 311q96 0 156.5 64.5t60.5 164t-58.5 162t-157 62.5t-159 -63.5t-60.5 -160.5t61 -163t157 -66zM666 -27q-115 0 -226 39l-106 -141l-221 162l98 129q-145 156 -145 386.5t171 390t429 159.5q125 0 227 -39l104 137l220 -166l-93 -123q137 -154 137.5 -383
t-170.5 -390t-425 -161z" />
    <glyph glyph-name="oslashacute.sc" horiz-adv-x="1327" 
d="M664 311q96 0 156.5 64.5t60.5 164t-58.5 162t-157 62.5t-159 -63.5t-60.5 -160.5t61 -163t157 -66zM666 -27q-115 0 -226 39l-106 -141l-221 162l98 129q-145 156 -145 386.5t171 390t429 159.5q125 0 227 -39l104 137l220 -166l-93 -123q137 -154 137.5 -383
t-170.5 -390t-425 -161zM1014 1358l-512 -250l-127 221l467 326z" />
    <glyph glyph-name="otilde.sc" horiz-adv-x="1327" 
d="M664 311q96 0 156.5 64.5t60.5 164t-58.5 162t-157 62.5t-159 -63.5t-60.5 -160.5t61 -163t157 -66zM664 -27q-256 0 -427 163t-171 403t171 399.5t429 159.5t427 -158t169 -401.5t-171 -404.5t-427 -161zM823 1147q-76 0 -165 48t-125 48q-68 0 -90.5 -31.5t-22.5 -48.5
l-207 170q0 18 29.5 68.5t102.5 105t159 54.5t174 -48.5t124 -48.5q68 0 90.5 31.5t22.5 48.5l207 -170q0 -31 -70 -121q-34 -43 -93.5 -74.5t-135.5 -31.5z" />
    <glyph glyph-name="oe.sc" horiz-adv-x="1808" 
d="M664 311q96 0 156.5 64.5t60.5 164t-58.5 162t-157 62.5t-159 -63.5t-60.5 -160.5t61 -163t157 -66zM1722 780h-471v-106h410v-273h-410v-110h471v-291h-813v18q-117 -45 -243 -45q-258 0 -429 163t-171 403t171 399.5t429 159.5q133 0 243 -43v14h813v-289z" />
    <glyph glyph-name="p.sc" horiz-adv-x="1048" 
d="M557 526q78 0 110 37t31 84q0 47 -33 85q-34 38 -108 38h-90v-244h90zM592 1069q209 0 331 -121q121 -121 121 -300t-129 -297t-350 -118h-98v-233h-342v1069h467z" />
    <glyph glyph-name="thorn.sc" horiz-adv-x="1095" 
d="M537 436q67 0 105 31t38 78t-39 76t-106 28h-41v-213h43zM567 969q207 0 338 -125t131 -307t-129 -301t-342 -119h-71v-117h-375v1069h375v-100h73z" />
    <glyph glyph-name="q.sc" horiz-adv-x="1310" 
d="M446 540q0 -97 60.5 -163t157 -66t157 64.5t60.5 164t-58.5 162t-157 62.5t-159 -63.5t-60.5 -160.5zM666 -27q-258 0 -429 163t-171 403t171 399.5t429 159.5t427 -158t169 -411.5t-195 -415.5l197 -174l-220 -246l-319 282q-20 -2 -59 -2z" />
    <glyph glyph-name="r.sc" horiz-adv-x="1187" 
d="M467 774v-233h156q59 0 95 34.5t36 81.5t-36 82t-108 35h-143zM467 250v-250h-342v1069h522q211 0 333 -119t122 -301q0 -213 -187 -323l224 -326h-387l-166 250h-119z" />
    <glyph glyph-name="racute.sc" horiz-adv-x="1187" 
d="M467 774v-233h156q59 0 95 34.5t36 81.5t-36 82t-108 35h-143zM467 250v-250h-342v1069h522q211 0 333 -119t122 -301q0 -213 -187 -323l224 -326h-387l-166 250h-119zM928 1354l-512 -250l-127 221l467 326z" />
    <glyph glyph-name="rcaron.sc" horiz-adv-x="1187" 
d="M467 774v-233h156q59 0 95 34.5t36 81.5t-36 82t-108 35h-143zM467 250v-250h-342v1069h522q211 0 333 -119t122 -301q0 -213 -187 -323l224 -326h-387l-166 250h-119zM713 1159h-279l-237 377h276l105 -133l104 133h279z" />
    <glyph glyph-name="rcommaaccent.sc" horiz-adv-x="1187" 
d="M613 -72q85 0 138.5 -52t53.5 -152t-65.5 -204t-174.5 -155l-96 98q104 78 109 150q-6 -2 -19 -2q-57 0 -96 41t-41 111.5t52 117.5t139 47zM754 657q0 47 -36 82t-108 35h-143v-233h156q59 0 95 34.5t36 81.5zM467 250v-250h-342v1069h522q211 0 333 -119t122 -301
q0 -213 -187 -323l224 -326h-387l-166 250h-119z" />
    <glyph glyph-name="s.sc" horiz-adv-x="1024" 
d="M508 -18q-274 0 -461 135l150 268q156 -111 313 -111q86 0 86 52q0 27 -35 44t-145 40q-168 33 -244 112.5t-76 225.5t118 242.5t346 96.5t398 -124l-143 -261q-53 39 -137 66t-158 27t-74 -41q0 -20 33 -36t152 -44q313 -74 313 -336q0 -168 -114.5 -262t-321.5 -94z
" />
    <glyph glyph-name="sacute.sc" horiz-adv-x="1024" 
d="M508 -18q-274 0 -461 135l150 268q156 -111 313 -111q86 0 86 52q0 27 -35 44t-145 40q-168 33 -244 112.5t-76 225.5t118 242.5t346 96.5t398 -124l-143 -261q-53 39 -137 66t-158 27t-74 -41q0 -20 33 -36t152 -44q313 -74 313 -336q0 -168 -114.5 -262t-321.5 -94z
M373 1104l-127 221l467 326l172 -297z" />
    <glyph glyph-name="scaron.sc" horiz-adv-x="1024" 
d="M944 338q0 -168 -114.5 -262t-321.5 -94q-274 0 -461 135l150 268q156 -111 313 -111q86 0 86 52q0 27 -35 44t-145 40q-168 33 -244 112.5t-76 226t118 242.5t345.5 96t398.5 -124l-143 -261q-53 39 -137 66t-158 27t-74 -41q0 -20 33 -35.5t152 -44.5q313 -74 313 -336
zM670 1159h-279l-237 377h276l105 -133l104 133h279z" />
    <glyph glyph-name="scedilla.sc" horiz-adv-x="1024" 
d="M944 338q0 -152 -94 -245t-268 -107l-31 -72q100 0 156.5 -55.5t56.5 -150.5t-77 -159.5t-214 -64.5t-237 82l71 149q84 -49 150 -49t65 60q0 61 -84 61q-37 0 -88 -10l-28 35l65 178q-197 25 -340 127l150 268q156 -111 313 -111q86 0 86 52q0 27 -35 44t-145 40
q-168 33 -244 112.5t-76 226t118 242.5t345.5 96t398.5 -124l-143 -261q-53 39 -137 66t-158 27t-74 -41q0 -20 33 -35.5t152 -44.5q313 -74 313 -336z" />
    <glyph glyph-name="scommaaccent.sc" horiz-adv-x="1024" 
d="M434 -389q-57 0 -96 41t-41 111.5t52 117.5t139.5 47t138.5 -52t53 -152t-65.5 -204t-174.5 -155l-96 98q104 78 109 150q-6 -2 -19 -2zM508 -18q-274 0 -461 135l150 268q156 -111 313 -111q86 0 86 52q0 27 -35 44t-145 40q-168 33 -244 112.5t-76 226t118 242.5
t345.5 96t398.5 -124l-143 -261q-53 39 -137 66t-158 27t-74 -41q0 -20 33 -36t152 -44q313 -74 313 -336q0 -168 -114.5 -262t-321.5 -94z" />
    <glyph glyph-name="germandbls.sc" horiz-adv-x="1257" 
d="M834 -12q-174 0 -269 45l90 293q72 -35 146 -35t73 55q0 55 -69 55h-178v252l82 90h-68q-68 -1 -117 -29t-49 -85v-629h-366v629q-1 197 123 319t409 123h467v-264l-133 -168q102 -31 170 -113t67 -196q0 -150 -102 -246t-276 -96z" />
    <glyph glyph-name="t.sc" horiz-adv-x="1116" 
d="M1083 1069v-319h-346v-750h-366v750h-336v319h1048z" />
    <glyph glyph-name="tbar.sc" horiz-adv-x="1116" 
d="M1083 750h-346v-144h197v-246h-197v-360h-366v360h-201v246h201v144h-336v319h1048v-319z" />
    <glyph glyph-name="tcaron.sc" horiz-adv-x="1116" 
d="M1083 1069v-319h-346v-750h-366v750h-336v319h1048zM688 1159h-278l-238 377h277l104 -133l104 133h279z" />
    <glyph glyph-name="uni0163.sc" horiz-adv-x="1116" 
d="M737 0h-75l-37 -86q100 0 156.5 -55.5t56.5 -150.5t-77 -159.5t-214 -64.5t-238 82l72 149q83 -49 149 -49t66 60t-84 61q-37 0 -88 -10l-29 35l70 188h-94v750h-336v319h1048v-319h-346v-750z" />
    <glyph glyph-name="uni021B.sc" horiz-adv-x="1116" 
d="M562 -72q85 0 138.5 -52t53.5 -152t-65.5 -204t-174.5 -155l-96 98q104 78 108 150q-6 -2 -18 -2q-57 0 -96 41t-41 111.5t52 117.5t139 47zM1083 1069v-319h-346v-750h-366v750h-336v319h1048z" />
    <glyph glyph-name="u.sc" horiz-adv-x="1261" 
d="M622 -18q-249 0 -383.5 128t-134.5 382v577h373v-598q0 -61 40 -111.5t121 -50.5t119 49.5t38 112.5v598h360v-569q0 -252 -142 -385t-391 -133z" />
    <glyph glyph-name="uacute.sc" horiz-adv-x="1261" 
d="M622 -18q-249 0 -383.5 128t-134.5 382v577h373v-598q0 -61 40 -111.5t121 -50.5t119 49.5t38 112.5v598h360v-569q0 -252 -142 -385t-391 -133zM459 1104l-127 221l467 326l172 -297z" />
    <glyph glyph-name="ucircumflex.sc" horiz-adv-x="1261" 
d="M795 1069h360v-569q0 -252 -142.5 -385t-390.5 -133t-383 128t-135 382v577h373v-598q0 -61 40 -111.5t121 -50.5t119 49.5t38 112.5v598zM623 1296l-105 -143h-282l251 395h279l242 -395h-281z" />
    <glyph glyph-name="udieresis.sc" horiz-adv-x="1261" 
d="M622 -18q-249 0 -383.5 128t-134.5 382v577h373v-598q0 -61 40 -111.5t121 -50.5t119 49.5t38 112.5v598h360v-569q0 -252 -142 -385t-391 -133zM857 1153q-83 0 -138 54.5t-57 139t55 139t140 54.5t138.5 -54t57.5 -139.5t-55.5 -139.5t-140.5 -54zM386 1153
q-83 0 -138 53.5t-57.5 138t55 140t140.5 55.5t138.5 -55t57.5 -140.5t-55.5 -138.5t-140.5 -53z" />
    <glyph glyph-name="ugrave.sc" horiz-adv-x="1261" 
d="M622 -18q-249 0 -383.5 128t-134.5 382v577h373v-598q0 -61 40 -111.5t121 -50.5t119 49.5t38 112.5v598h360v-569q0 -252 -142 -385t-391 -133zM797 1104l-512 250l172 297l467 -326z" />
    <glyph glyph-name="uhungarumlaut.sc" horiz-adv-x="1261" 
d="M622 -18q-249 0 -383.5 128t-134.5 382v577h373v-598q0 -61 40 -111.5t121 -50.5t119 49.5t38 112.5v598h360v-569q0 -252 -142 -385t-391 -133zM846 1102l-187 110l222 435l264 -168zM377 1102l-187 110l222 435l264 -168z" />
    <glyph glyph-name="umacron.sc" horiz-adv-x="1261" 
d="M622 -18q-249 0 -383.5 128t-134.5 382v577h373v-598q0 -61 40 -111.5t121 -50.5t119 49.5t38 112.5v598h360v-569q0 -252 -142 -385t-391 -133zM272 1196v279h689v-279h-689z" />
    <glyph glyph-name="uogonek.sc" horiz-adv-x="1261" 
d="M795 1069h360v-569q0 -205 -96 -332t-268 -168q-62 -28 -109 -79.5t-47 -94.5q0 -70 78 -76q29 0 49 12l88 -184q-94 -66 -214 -65.5t-192.5 60.5t-72.5 165q0 137 121 254q-387 63 -388 500v577h373v-598q0 -61 40 -111.5t121 -50.5t119 49.5t38 112.5v598z" />
    <glyph glyph-name="uring.sc" horiz-adv-x="1261" 
d="M622 -18q-249 0 -383.5 128t-134.5 382v577h373v-598q0 -61 40 -111.5t121 -50.5t119 49.5t38 112.5v598h360v-569q0 -252 -142 -385t-391 -133zM620.5 1276q34.5 0 57 24.5t22.5 64.5t-21.5 62.5t-57 22.5t-58 -22.5t-22.5 -62.5t22.5 -64.5t57 -24.5zM621 1090
q-127 0 -207 75.5t-80 195.5t81 196.5t205.5 76.5t204.5 -76.5t80 -196.5t-78.5 -195.5t-205.5 -75.5z" />
    <glyph glyph-name="utilde.sc" horiz-adv-x="1261" 
d="M622 -18q-249 0 -383.5 128t-134.5 382v577h373v-598q0 -61 40 -111.5t121 -50.5t119 49.5t38 112.5v598h360v-569q0 -252 -142 -385t-391 -133zM778 1147q-76 0 -165 48t-125 48q-68 0 -90.5 -31.5t-22.5 -48.5l-207 170q0 18 29.5 68.5t102.5 105t159 54.5t174 -48.5
t124 -48.5q68 0 90.5 31.5t22.5 48.5l207 -170q-1 -31 -71 -121q-34 -43 -93 -74.5t-135 -31.5z" />
    <glyph glyph-name="v.sc" horiz-adv-x="1148" 
d="M754 1069h407l-430 -1069h-291l-448 1069h422l145 -465l37 -145l35 145z" />
    <glyph glyph-name="w.sc" horiz-adv-x="1689" 
d="M1294 1069h373l-373 -1069h-256l-188 532l-193 -532h-258l-376 1069h409l137 -537l181 535h217l184 -555z" />
    <glyph glyph-name="wacute.sc" horiz-adv-x="1689" 
d="M1294 1069h373l-373 -1069h-256l-188 532l-193 -532h-258l-376 1069h409l137 -537l181 535h217l184 -555zM1198 1354l-512 -250l-127 221l467 326z" />
    <glyph glyph-name="wcircumflex.sc" horiz-adv-x="1689" 
d="M1294 1069h373l-373 -1069h-256l-188 532l-193 -532h-258l-376 1069h409l137 -537l181 535h217l184 -555zM850 1296l-105 -143h-282l252 395h278l242 -395h-281z" />
    <glyph glyph-name="wdieresis.sc" horiz-adv-x="1689" 
d="M1294 1069h373l-373 -1069h-256l-188 532l-193 -532h-258l-376 1069h409l137 -537l181 535h217l184 -555zM1084 1153q-83 0 -138 54.5t-57 139t55 139t140 54.5t138.5 -54t57.5 -139.5t-55.5 -139.5t-140.5 -54zM613 1153q-83 0 -138 53.5t-57 138t55 140t140 55.5
t138.5 -55t57.5 -140.5t-55.5 -138.5t-140.5 -53z" />
    <glyph glyph-name="wgrave.sc" horiz-adv-x="1689" 
d="M1294 1069h373l-373 -1069h-256l-188 532l-193 -532h-258l-376 1069h409l137 -537l181 535h217l184 -555zM1151 1325l-127 -221l-512 250l172 297z" />
    <glyph glyph-name="x.sc" horiz-adv-x="1210" 
d="M1206 0h-440l-174 291l-164 -291h-422l367 535l-350 534h436l149 -281l152 281h422l-361 -526z" />
    <glyph glyph-name="y.sc" horiz-adv-x="1165" 
d="M770 0h-371v412l-385 657h435l147 -319l152 319h411l-389 -653v-416z" />
    <glyph glyph-name="yacute.sc" horiz-adv-x="1165" 
d="M770 0h-371v412l-385 657h435l147 -319l152 319h411l-389 -653v-416zM950 1354l-512 -250l-127 221l467 326z" />
    <glyph glyph-name="ycircumflex.sc" horiz-adv-x="1165" 
d="M770 0h-371v412l-385 657h435l147 -319l152 319h411l-389 -653v-416zM602 1296l-104 -143h-283l252 395h278l242 -395h-280z" />
    <glyph glyph-name="ydieresis.sc" horiz-adv-x="1165" 
d="M770 0h-371v412l-385 657h435l147 -319l152 319h411l-389 -653v-416zM837 1153q-83 0 -138.5 54.5t-57.5 139t55.5 139t140.5 54.5t138 -54t57 -139.5t-55 -139.5t-140 -54zM366 1153q-83 0 -138.5 53.5t-57.5 138t55.5 140t140.5 55.5t138 -55t57 -140.5t-55 -138.5
t-140 -53z" />
    <glyph glyph-name="ygrave.sc" horiz-adv-x="1165" 
d="M770 0h-371v412l-385 657h435l147 -319l152 319h411l-389 -653v-416zM903 1325l-127 -221l-512 250l172 297z" />
    <glyph glyph-name="uni1EF9.sc" horiz-adv-x="1165" 
d="M770 0h-371v412l-385 657h435l147 -319l152 319h411l-389 -653v-416zM376.5 1210.5q-22.5 -32.5 -22.5 -47.5l-207 170q0 18 30 68.5t102.5 105t158.5 54.5t174 -48.5t124 -48.5q67 0 90.5 31t23.5 49l207 -170q0 -31 -71 -121q-34 -43 -93 -74.5t-135 -31.5t-165 48
t-141.5 48t-75 -32.5z" />
    <glyph glyph-name="z.sc" horiz-adv-x="1169" 
d="M1085 319v-319h-995v221l471 529h-465v319h975v-221l-489 -529h503z" />
    <glyph glyph-name="zacute.sc" horiz-adv-x="1169" 
d="M1085 319v-319h-995v221l471 529h-465v319h975v-221l-489 -529h503zM938 1354l-512 -250l-127 221l467 326z" />
    <glyph glyph-name="zcaron.sc" horiz-adv-x="1169" 
d="M1085 319v-319h-995v221l471 529h-465v319h975v-221l-489 -529h503zM723 1159h-279l-237 377h276l105 -133l104 133h279z" />
    <glyph glyph-name="zdotaccent.sc" horiz-adv-x="1169" 
d="M1085 319v-319h-995v221l471 529h-465v319h975v-221l-489 -529h503zM589 1137q-87 0 -147.5 58t-60.5 148.5t61.5 146.5t149.5 56t146.5 -58t58.5 -147.5t-60.5 -146.5t-147.5 -57z" />
    <glyph glyph-name="a.sc.ss01" horiz-adv-x="1208" 
d="M471 524h264v105q0 58 -41 90.5t-92 32.5t-91 -31.5t-40 -91.5v-105zM603 1087q237 0 368 -126.5t131 -368.5v-592h-367v246h-264v-246h-362v592q0 242 128.5 368.5t365.5 126.5z" />
    <glyph glyph-name="aacute.sc.ss01" horiz-adv-x="1208" 
d="M471 524h264v105q0 58 -41 90.5t-92 32.5t-91 -31.5t-40 -91.5v-105zM603 1087q237 0 368 -126.5t131 -368.5v-592h-367v246h-264v-246h-362v592q0 242 128.5 368.5t365.5 126.5zM946 1354l-512 -250l-127 221l467 326z" />
    <glyph glyph-name="abreve.sc.ss01" horiz-adv-x="1208" 
d="M471 524h264v105q0 58 -41 90.5t-92 32.5t-91 -31.5t-40 -91.5v-105zM603 1087q237 0 368 -126.5t131 -368.5v-592h-367v246h-264v-246h-362v592q0 242 128.5 368.5t365.5 126.5zM595 1153q-167 0 -271.5 98.5t-104.5 266.5h277q0 -123 98 -123t98 123h279
q0 -168 -104.5 -266.5t-271.5 -98.5z" />
    <glyph glyph-name="acircumflex.sc.ss01" horiz-adv-x="1208" 
d="M471 524h264v105q0 58 -41 90.5t-92 32.5t-91 -31.5t-40 -91.5v-105zM603 1087q237 0 368 -126.5t131 -368.5v-592h-367v246h-264v-246h-362v592q0 242 128.5 368.5t365.5 126.5zM598 1296l-104 -143h-283l252 395h278l242 -395h-281z" />
    <glyph glyph-name="adieresis.sc.ss01" horiz-adv-x="1208" 
d="M471 524h264v105q0 58 -41 90.5t-92 32.5t-91 -31.5t-40 -91.5v-105zM603 1087q237 0 368 -126.5t131 -368.5v-592h-367v246h-264v-246h-362v592q0 242 128.5 368.5t365.5 126.5zM833 1153q-83 0 -138.5 54.5t-57.5 139t55.5 139t140.5 54.5t138 -54t57 -139.5
t-55 -139.5t-140 -54zM361 1153q-83 0 -138 53.5t-57 138t55.5 140t140 55.5t138 -55t57.5 -140.5t-55.5 -138.5t-140.5 -53z" />
    <glyph glyph-name="agrave.sc.ss01" horiz-adv-x="1208" 
d="M471 524h264v105q0 58 -41 90.5t-92 32.5t-91 -31.5t-40 -91.5v-105zM603 1087q237 0 368 -126.5t131 -368.5v-592h-367v246h-264v-246h-362v592q0 242 128.5 368.5t365.5 126.5zM899 1325l-127 -221l-512 250l172 297z" />
    <glyph glyph-name="amacron.sc.ss01" horiz-adv-x="1208" 
d="M471 524h264v105q0 58 -41 90.5t-92 32.5t-91 -31.5t-40 -91.5v-105zM603 1087q237 0 368 -126.5t131 -368.5v-592h-367v246h-264v-246h-362v592q0 242 128.5 368.5t365.5 126.5zM936 1475v-279h-688v279h688z" />
    <glyph glyph-name="aogonek.sc.ss01" horiz-adv-x="1208" 
d="M471 524h264v105q0 58 -41 90.5t-92 32.5t-91 -32t-40 -91v-105zM682 -262q0 145 129 262h-76v246h-264v-246h-362v592q0 242 129 368.5t365.5 126.5t367.5 -126.5t131 -368.5v-592q-57 -26 -106.5 -78.5t-49.5 -95.5q0 -70 78 -76q29 0 49 12l88 -184
q-94 -66 -214 -65.5t-192.5 60.5t-72.5 165z" />
    <glyph glyph-name="aring.sc.ss01" horiz-adv-x="1208" 
d="M471 524h264v105q0 58 -41 90.5t-92 32.5t-91 -31.5t-40 -91.5v-105zM603 1087q237 0 368 -126.5t131 -368.5v-592h-367v246h-264v-246h-362v592q0 242 128.5 368.5t365.5 126.5zM597 1450q-36 0 -58.5 -22.5t-22.5 -62.5t22.5 -64.5t57.5 -24.5t57.5 24.5t22.5 64.5
t-21.5 62.5t-57.5 22.5zM596 1090q-127 0 -207 75.5t-80 195.5t81 196.5t206 76.5t205 -76.5t80 -196.5t-79 -195.5t-206 -75.5z" />
    <glyph glyph-name="atilde.sc.ss01" horiz-adv-x="1208" 
d="M471 524h264v105q0 58 -41 90.5t-92 32.5t-91 -31.5t-40 -91.5v-105zM603 1087q237 0 368 -126.5t131 -368.5v-592h-367v246h-264v-246h-362v592q0 242 128.5 368.5t365.5 126.5zM372.5 1211.5q-22.5 -31.5 -22.5 -48.5l-207 170q0 18 30 68.5t102.5 105t158.5 54.5
t174 -48.5t124 -48.5q67 0 90.5 31t23.5 49l207 -170q0 -31 -71 -121q-34 -43 -93.5 -74.5t-135 -31.5t-164.5 48t-141.5 48t-75 -31.5z" />
    <glyph glyph-name="r.sc.ss01" horiz-adv-x="1169" 
d="M467 541h170q51 0 86 34.5t35 80.5t-35 82t-98 36h-158v-233zM1061 254q25 0 39 2v-254q-57 -20 -151.5 -20t-162 26.5t-107.5 65.5q-41 39 -71 79q-72 94 -108 97h-33v-250h-342v1069h504q217 0 346 -117.5t129 -304.5q0 -102 -52.5 -187t-144.5 -138q6 -4 22.5 -17.5
t20.5 -16.5t16.5 -12.5t18.5 -10.5t17.5 -5t22.5 -5t36 -1z" />
    <glyph glyph-name="racute.sc.ss01" horiz-adv-x="1169" 
d="M467 541h170q51 0 86 34.5t35 80.5t-35 82t-98 36h-158v-233zM1061 254q25 0 39 2v-254q-57 -20 -151.5 -20t-162 26.5t-107.5 65.5q-41 39 -71 79q-72 94 -108 97h-33v-250h-342v1069h504q217 0 346 -117.5t129 -304.5q0 -102 -52.5 -187t-144.5 -138q6 -4 22.5 -17.5
t20.5 -16.5t16.5 -12.5t18.5 -10.5t17.5 -5t22.5 -5t36 -1zM887 1354l-512 -250l-127 221l467 326z" />
    <glyph glyph-name="rcaron.sc.ss01" horiz-adv-x="1169" 
d="M467 541h170q51 0 86 34.5t35 80.5t-35 82t-98 36h-158v-233zM1061 254q25 0 39 2v-254q-57 -20 -151.5 -20t-162 26.5t-107.5 65.5q-41 39 -71 79q-72 94 -108 97h-33v-250h-342v1069h504q217 0 346 -117.5t129 -304.5q0 -102 -52.5 -187t-144.5 -138q6 -4 22.5 -17.5
t20.5 -16.5t16.5 -12.5t18.5 -10.5t17.5 -5t22.5 -5t36 -1zM672 1159h-279l-237 377h276l105 -133l104 133h279z" />
    <glyph glyph-name="rcommaaccent.sc.ss01" horiz-adv-x="1169" 
d="M581 -72q85 0 138 -52t53 -152t-65.5 -204t-174.5 -155l-96 98q104 78 109 150q-6 -2 -19 -2q-57 0 -96 41t-41 111.5t52.5 117.5t139.5 47zM467 541h170q51 0 86 34.5t35 80.5t-35 82t-98 36h-158v-233zM1061 254q25 0 39 2v-254q-57 -20 -151.5 -20t-162 26.5
t-107.5 65.5q-41 39 -71 79q-72 94 -108 97h-33v-250h-342v1069h504q217 0 346 -117.5t129 -304.5q0 -102 -52.5 -187t-144.5 -138q6 -4 22.5 -17.5t20.5 -16.5t16.5 -12.5t18.5 -10.5t17.5 -5t22.5 -5t36 -1z" />
    <glyph glyph-name="y.sc.ss01" horiz-adv-x="1173" 
d="M727 1069h363v-309q0 -383 -318 -477v-283h-362v279q-156 43 -242 164.5t-86 316.5v309h367v-352q0 -39 30.5 -80t106.5 -41t108.5 42t32.5 79v352z" />
    <glyph glyph-name="yacute.sc.ss01" horiz-adv-x="1173" 
d="M727 1069h363v-309q0 -383 -318 -477v-283h-362v279q-156 43 -242 164.5t-86 316.5v309h367v-352q0 -39 30.5 -80t106.5 -41t108.5 42t32.5 79v352zM926 1354l-512 -250l-127 221l467 326z" />
    <glyph glyph-name="ycircumflex.sc.ss01" horiz-adv-x="1173" 
d="M727 1069h363v-309q0 -383 -318 -477v-283h-362v279q-156 43 -242 164.5t-86 316.5v309h367v-352q0 -39 30.5 -80t106.5 -41t108.5 42t32.5 79v352zM578 1296l-105 -143h-283l252 395h279l242 -395h-281z" />
    <glyph glyph-name="ydieresis.sc.ss01" horiz-adv-x="1173" 
d="M727 1069h363v-309q0 -383 -318 -477v-283h-362v279q-156 43 -242 164.5t-86 316.5v309h367v-352q0 -39 30.5 -80t106.5 -41t108.5 42t32.5 79v352zM812 1153q-83 0 -138.5 54.5t-57.5 139t55.5 139t140.5 54.5t138.5 -54t57.5 -139.5t-55.5 -139.5t-140.5 -54zM341 1153
q-83 0 -138.5 53.5t-57.5 138t55.5 140t140.5 55.5t138.5 -55t57.5 -140.5t-55.5 -138.5t-140.5 -53z" />
    <glyph glyph-name="ygrave.sc.ss01" horiz-adv-x="1173" 
d="M727 1069h363v-309q0 -383 -318 -477v-283h-362v279q-156 43 -242 164.5t-86 316.5v309h367v-352q0 -39 30.5 -80t106.5 -41t108.5 42t32.5 79v352zM879 1325l-127 -221l-512 250l172 297z" />
    <glyph glyph-name="uni1EF9.sc.ss01" horiz-adv-x="1173" 
d="M727 1069h363v-309q0 -383 -318 -477v-283h-362v279q-156 43 -242 164.5t-86 316.5v309h367v-352q0 -39 30.5 -80t106.5 -41t108.5 42t32.5 79v352zM352 1211.5q-22 -31.5 -22 -48.5l-207 170q0 18 29.5 68.5t102.5 105t159 54.5t174 -48.5t124 -48.5q68 0 90.5 31.5
t22.5 48.5l207 -170q0 -31 -70 -121q-34 -43 -93.5 -74.5t-135.5 -31.5t-165 48t-141.5 48t-74.5 -31.5z" />
    <glyph glyph-name="seven.ss01" horiz-adv-x="1110" 
d="M203 477v301h274l154 334h-586v328h1022v-166l-217 -496h147v-301h-272l-209 -477h-366l204 477h-151z" />
    <glyph glyph-name="zero.sc" horiz-adv-x="1193" 
d="M606 283q178 0 178 249q0 125 -49 190t-139 64q-186 0 -186 -252t196 -251zM601 -18q-239 0 -383 146t-144 410t144 406q144 143 382 143q238 1 379 -149t141 -411t-140 -403t-379 -142z" />
    <glyph glyph-name="one.sc" horiz-adv-x="794" 
d="M649 1069v-1069h-332v690l-198 -61l-109 282l443 158h196z" />
    <glyph glyph-name="two.sc" horiz-adv-x="1007" 
d="M86 0v236q53 33 140 90t106 69q178 111 176 215q-4 152 -164 152q-102 0 -186 -33l-105 277q123 82 359 82t354 -108q119 -108 119 -278t-140 -305q-23 -23 -100 -80h279v-317h-838z" />
    <glyph glyph-name="three.sc" horiz-adv-x="946" 
d="M567 358q1 84 -125 84q-64 0 -151 -22l-121 162l256 188h-338v299h766v-217l-244 -186q156 -8 230 -96t74 -228q0 -142 -120 -252t-358 -108q-238 0 -391 98l113 246q78 -38 130 -52t150 -14q129 0 129 98z" />
    <glyph glyph-name="four.sc" horiz-adv-x="1030" 
d="M985 444v-274h-90v-170h-338v170h-541v217l301 735l299 -108l-229 -570h170v328h338v-328h90z" />
    <glyph glyph-name="five.sc" horiz-adv-x="966" 
d="M489 -18q-256 0 -442 100l105 242q131 -59 297 -60q125 0 118 92q-4 74 -123 74q-90 0 -196 -45l-137 82v602h745v-295h-418v-119q64 9 142 9q160 -2 250 -86t92 -248q0 -164 -125 -256t-308 -92z" />
    <glyph glyph-name="six.sc" horiz-adv-x="997" 
d="M393 354q0 -52 34 -82t93 -30t94 30t35 81q0 52 -35 82t-94 30t-93 -30t-34 -81zM610 694q146 0 250 -87t104 -253t-124 -269q-125 -103 -331 -103t-321 118q-114 118 -114 311q0 192 134 387q68 99 190 183t280 133l139 -240q-264 -74 -354 -200q63 20 147 20z" />
    <glyph glyph-name="seven.sc" horiz-adv-x="892" 
d="M45 764v305h836v-147l-394 -922h-344l330 764h-428z" />
    <glyph glyph-name="eight.sc" horiz-adv-x="1056" 
d="M531 238q50 0 79 24t29 64q0 38 -29 62t-80 24q-52 0 -80 -24t-28 -64t30 -64q30 -22 79 -22zM533 668q44 0 70 26t26 65t-26 63t-70 24q-43 0 -71 -25t-28 -63t28 -64t71 -26zM532 -18q-208 0 -338 88t-131 241q0 186 183 250q-70 27 -107 85t-37 122q0 143 118 231
t314 88t316 -87q121 -87 121 -232q0 -58 -39 -120t-115 -87q90 -27 134 -93t44 -140q0 -160 -127 -253t-336 -93z" />
    <glyph glyph-name="nine.sc" horiz-adv-x="989" 
d="M348 716q0 -52 35 -82t94 -30t93 30t34 81t-34 82t-93 31t-94 -30t-35 -82zM33 715q1 166 125 269t330 103q206 1 321 -119t115 -317q0 -514 -605 -696l-139 240q266 74 355 202q-72 -23 -140 -22q-154 0 -258 87t-104 253z" />
    <glyph glyph-name="braceleft.sc" horiz-adv-x="720" 
d="M627 -174q-455 0 -455 336v203q0 35 -25 34h-73v273h73q25 0 25 33v204q0 336 455 336v-276q-137 0 -138 -131v-119q0 -125 -96 -184q96 -57 96 -185v-119q0 -131 138 -131v-274z" />
    <glyph glyph-name="braceright.sc" horiz-adv-x="720" 
d="M94 -176v276q137 0 137 131v119q0 125 97 185q-96 59 -97 184v119q0 131 -137 131v274q455 0 455 -334v-204q0 -33 22 -33h76v-275h-76q-23 0 -22 -32v-205q0 -336 -455 -336z" />
    <glyph glyph-name="bracketleft.sc" horiz-adv-x="825" 
d="M752 893h-291v-746h291v-288h-605v1321h605v-287z" />
    <glyph glyph-name="bracketright.sc" horiz-adv-x="825" 
d="M76 1180h602v-1321h-602v288h291v746h-291v287z" />
    <glyph glyph-name="exclam.sc" horiz-adv-x="622" 
d="M516 180q0 -80 -60 -139t-142 -59q-83 0 -141 58t-58 140t59 140t140 59q82 1 142 -59t60 -140zM172 496l-68 647h414l-72 -647h-274z" />
    <glyph glyph-name="exclamdown.sc" horiz-adv-x="622" 
d="M104 -76l72 647h277l65 -647h-414zM308 1085q84 0 142 -58t58 -139q0 -80 -60 -140t-140 -60q-81 0 -140 60t-59 139q0 80 58 139t141 59z" />
    <glyph glyph-name="numbersign.sc" horiz-adv-x="1458" 
d="M801 436l55 195h-207l-55 -195h207zM1378 631h-211l-55 -195h191v-282h-273l-43 -152h-311l43 152h-207l-43 -152h-299l43 152h-129v282h211l55 195h-190v284h272l45 156h297l-45 -156h209l45 156h309l-45 -156h131v-284z" />
    <glyph glyph-name="parenleft.sc" horiz-adv-x="684" 
d="M72 561q0 475 391 721l168 -250q-164 -136 -203 -278q-39 -154 -21 -292t80 -221q62 -84 144 -151l-168 -250q-391 246 -391 721z" />
    <glyph glyph-name="parenright.sc" horiz-adv-x="688" 
d="M285 561q0 202 -97 333q-51 71 -133 138l166 250q393 -246 393 -721t-393 -721l-166 250q164 136 203 279q27 105 27 192z" />
    <glyph glyph-name="question.sc" horiz-adv-x="806" 
d="M345 -16q-79 0 -132 53t-53 129t53 129t132 53t132 -52t53 -129t-53 -130t-132 -53zM215 410v51q0 114 66 175q27 26 55 45q66 45 65 81q0 57 -92 57t-174 -43l-94 266q172 90 348 90q175 0 275 -75q100 -76 100 -210t-94 -219q-39 -34 -79 -62q-97 -68 -95 -126v-30
h-281z" />
    <glyph glyph-name="questiondown.sc" horiz-adv-x="806" 
d="M594 659v-51q0 -111 -66 -175q-26 -26 -54 -45q-66 -45 -66 -81q0 -57 92 -57t174 43l94 -266q-172 -90 -348 -90t-276 75q-99 76 -99 210t94 219q39 34 79 62q97 68 95 126v30h281zM463 1085q78 0 132 -53t54 -129t-53 -129t-132 -53t-132 52t-53 129t53 130t131 53z
" />
    <glyph glyph-name="at.sc" horiz-adv-x="1374" 
d="M694 588q-40 0 -62 -23t-22 -59t22 -60q22 -22 61 -22q38 0 61 22t22 60q0 38 -22 60t-60 22zM29 504q-1 270 189 448q190 176 484 176t472 -145t178 -399q0 -162 -84 -260t-230 -100t-204 73q-72 -76 -192 -76t-198 82t-78 204t83 204q82 82 202 82q63 0 119 -25l10 25
h195v-261q1 -106 69 -106t68 156t-117 239q-117 84 -308 84q-191 -1 -305 -115t-110 -283t106 -271t250 -108t232 46l92 -199q-121 -72 -299 -71q-268 0 -446 165t-178 435z" />
    <glyph glyph-name="ampersand.sc" horiz-adv-x="1153" 
d="M484 223q64 0 124 33l-192 158q-64 -36 -64 -88t34 -78t98 -25zM596 782q0 34 -24 56t-62 22q-36 0 -58 -22t-22 -52q0 -49 90 -102q76 35 76 98zM156 794q0 130 96 212t254 82t252 -76t94 -197q0 -162 -176 -293l127 -102q96 103 127 166l190 -135q-57 -87 -137 -181
l141 -116l-170 -185l-159 131q-137 -118 -336 -118t-297 82t-99 227q-1 94 49 167t130 111q-86 95 -86 225z" />
    <glyph glyph-name="cent.sc" horiz-adv-x="882" 
d="M631 -80h-266v189q-131 47 -210 157t-79 248q0 139 79 247t210 154v211h266v-188q98 -16 198 -72l-131 -223q-57 43 -141 43t-136 -47t-52 -124t53 -125t139 -48t137 47l133 -227q-90 -57 -200 -76v-166z" />
    <glyph glyph-name="currency.sc" horiz-adv-x="966" 
d="M485 412q45 0 72 28t27 74q0 45 -27 74q-27 28 -72 28t-73 -28t-27 -74q-1 -46 27 -74t73 -28zM836 519q0 -89 -33 -165l82 -82l-158 -153l-80 78q-76 -33 -163 -33t-162 33l-84 -80l-158 149l86 86q-35 74 -35 162t33 164l-84 84l158 149l81 -80q78 33 168 33t164 -35
l86 86l152 -153l-86 -86q33 -68 33 -157z" />
    <glyph glyph-name="dollar.sc" horiz-adv-x="882" 
d="M803 331q0 -85 -54 -157t-153 -106v-148h-285v129q-139 23 -258 103l99 219q154 -88 262 -88t108 49q0 25 -30 40q-31 15 -149 52q-117 37 -185 95q-68 57 -68 167t57 184t160 107v149h287v-139q127 -29 217 -94l-98 -211q-141 74 -237 74t-97 -41q1 -23 23 -35t94 -35
t110 -38t91 -50q54 -35 80 -88t26 -138z" />
    <glyph glyph-name="Euro.sc" horiz-adv-x="1212" 
d="M772 252q129 0 217 72l129 -230q-141 -112 -357 -112t-365 111q-148 112 -191 300h-135v277h135q43 190 192 304q150 114 367 114t358 -113l-129 -234q-100 74 -217 74q-197 0 -256 -145h256v-277h-254q60 -141 250 -141z" />
    <glyph glyph-name="plus.sc" horiz-adv-x="948" 
d="M889 651v-229h-293v-285h-240v285h-297v229h297v299h240v-299h293z" />
    <glyph glyph-name="minus.sc" horiz-adv-x="1054" 
d="M113 422v229h829v-229h-829z" />
    <glyph glyph-name="multiply.sc" horiz-adv-x="897" 
d="M827 748l-219 -213l209 -216l-160 -159l-211 215l-215 -211l-159 164l213 211l-209 213l164 161l209 -215l217 213z" />
    <glyph glyph-name="divide.sc" horiz-adv-x="811" 
d="M398 133q-60 0 -95 37t-35 98q0 62 35 98t96 36t97 -36q34 -36 34 -98t-36 -99q-36 -36 -96 -36zM53 434v211h703v-211h-703zM396 688q-60 0 -96 37t-36 96t36 97t96 36q60 0 96 -35q34 -35 34 -97t-35 -98t-95 -36z" />
    <glyph glyph-name="equal.sc" horiz-adv-x="1050" 
d="M111 254v231h829v-231h-829zM111 592v231h829v-231h-829z" />
    <glyph glyph-name="notequal.sc" horiz-adv-x="1050" 
d="M940 594h-278l-31 -107h309v-231h-373l-41 -143h-274l41 143h-182v231h245l31 107h-276v231h342l43 156h274l-43 -156h213v-231z" />
    <glyph glyph-name="greater.sc" horiz-adv-x="733" 
d="M104 981l568 -322v-251l-568 -320v277l295 170l-295 167v279z" />
    <glyph glyph-name="less.sc" horiz-adv-x="733" 
d="M629 981v-279l-295 -167l295 -170v-277l-568 320v251z" />
    <glyph glyph-name="plusminus.sc" horiz-adv-x="819" 
d="M98 55v207h625v-207h-625zM512 793h211v-222h-211v-215h-207v215h-207v222h207v217h207v-217z" />
    <glyph glyph-name="percent.sc" horiz-adv-x="1413" 
d="M1115 172q33 0 55 20t22 55q0 34 -22 54q-22 21 -56 21t-53 -20q-21 -20 -21 -55t20 -55t55 -20zM1391 248q0 -118 -75 -192t-199 -74q-123 0 -199 74t-76 192q0 120 76 192t200 72t198 -73q75 -73 75 -191zM296 750q34 0 56 20t21 54q0 34 -22 54q-21 20 -55 21
q-34 0 -54 -20q-20 -21 -20 -55t20 -54t54 -20zM296 559q-124 0 -199 74q-75 75 -75 193t76 191t200 73t199 -73t75 -192t-76 -193t-200 -73zM465 -98l-197 98l695 1182l198 -111z" />
    <glyph glyph-name="perthousand.sc" horiz-adv-x="2027" 
d="M1655 247q1 -35 21 -55t54 -20t56 20t20 55q0 34 -21 54q-21 21 -55 21t-54 -20t-21 -55zM1115 172q33 0 55 20t22 55q0 34 -22 54q-22 21 -56 21t-53 -20q-21 -20 -21 -55t20 -55t55 -20zM1732 -18q-124 0 -200 74t-76 192q0 120 76 192t200 72t198 -73t75 -191
q-1 -118 -75 -192t-198 -74zM1391 248q0 -118 -75 -192t-199 -74q-123 0 -199 74t-76 192q0 120 76 192t200 72t198 -73q75 -73 75 -191zM296 750q34 0 56 20t21 54q0 34 -22 54q-21 20 -55 21q-34 0 -54 -20q-20 -21 -20 -55t20 -54t54 -20zM296 559q-124 0 -199 74
q-75 75 -75 193t76 191t200 73t199 -73t75 -192t-76 -193t-200 -73zM465 -98l-197 98l695 1182l198 -111z" />
    <glyph glyph-name="sterling.sc" horiz-adv-x="954" 
d="M883 244v-244h-795v244h119v129h-117v223h115v119q0 168 111 270q112 102 298 102q70 0 124 -15q89 -24 151 -85l-111 -207q-61 43 -131 43t-115 -37t-43 -108v-82h187v-223h-182l2 -129h387z" />
    <glyph glyph-name="yen.sc" horiz-adv-x="1134" 
d="M911 543v-195h-200v-65h200v-195h-200v-88h-289v88h-203v195h203v65h-203v195h125l-307 526h332l209 -375l206 375h314l-312 -526h125z" />
    <glyph glyph-name="caroncomb.alt" 
d="M-293 1106q-70 0 -114 46t-46 132t58.5 142.5t158 56.5t155.5 -58.5t61 -156.5q2 -139 -76 -261.5t-209 -181.5l-96 113q137 94 137 170q-8 -2 -29 -2z" />
    <glyph glyph-name="uni0308.case" 
d="M-743 1554q-84 0 -140.5 55.5t-58.5 140.5t56.5 141.5t142.5 56.5t140 -55.5t58 -140.5t-56 -141.5t-142 -56.5zM-223 1554q-84 0 -142.5 56.5t-58.5 141.5t58.5 141.5t142.5 56.5t142 -56.5t58 -141.5t-58 -141.5t-142 -56.5z" />
    <glyph glyph-name="uni0307.case" 
d="M-234 1542q-90 0 -151 59.5t-61 152.5t62 150.5t152.5 57.5t151 -60.5t60.5 -151.5t-62 -149.5t-152 -58.5z" />
    <glyph glyph-name="gravecomb.case" 
d="M-94 1528l-588 143l104 322l558 -242z" />
    <glyph glyph-name="acutecomb.case" 
d="M-608 1528l-74 223l557 242l105 -322z" />
    <glyph glyph-name="uni030B.case" 
d="M-469 1511l-178 123l252 418l252 -184zM-981 1511l-178 123l252 418l252 -184z" />
    <glyph glyph-name="uni0302.case" 
d="M-59 1550h-318l-104 121l-105 -121h-319l289 375h278z" />
    <glyph glyph-name="uni030C.case" 
d="M-379 1927h320l-289 -375h-279l-278 375h317l105 -121z" />
    <glyph glyph-name="uni0306.case" 
d="M-436 1546q-176 0 -285.5 102.5t-109.5 276.5h276q0 -61 33 -99t87 -38t87 38t33 99h278q0 -174 -111.5 -276.5t-287.5 -102.5z" />
    <glyph glyph-name="uni030A.case" 
d="M-305 1675q35 0 57.5 24.5t22.5 64.5t-21.5 62.5t-57.5 22.5t-58.5 -22.5t-22.5 -62.5t22.5 -64.5t57.5 -24.5zM-305 1489q-127 0 -207 75.5t-80 195.5t81 197t206 77t205 -77t80 -197t-79 -195.5t-206 -75.5z" />
    <glyph glyph-name="tildecomb.case" 
d="M-354.5 1548q-67.5 0 -152.5 48.5t-122 48.5q-70 0 -92 -32.5t-22 -47.5l-207 170q0 24 35.5 73.5t69.5 79.5q82 73 200 74q76 0 161 -48t122 -48q69 0 91.5 31.5t22.5 48.5l207 -170q0 -27 -36 -75t-69.5 -79t-87 -52.5t-121 -21.5z" />
    <glyph glyph-name="uni0304.case" 
d="M-872 1579v279h852v-279h-852z" />
    <glyph glyph-name="uni0326.case" 
d="M-209 -369q-57 0 -96 41t-41 112t52 118t139 47t138.5 -52.5t53.5 -150.5t-68.5 -197.5t-181.5 -146.5l-78 92q96 74 101 139q-6 -2 -19 -2z" />
    <glyph glyph-name="uni0327.case" 
d="M-250 -496q-63 0 -124.5 20.5t-92.5 41.5l-31 20l72 150q126 -71 196 -38q28 13 32.5 35t-12.5 41q-47 53 -173 23l-29 35l80 219h219l-49 -117q88 -8 140.5 -61t52.5 -146.5t-77 -158t-204 -64.5z" />
    <glyph glyph-name="uni0328.case" 
d="M-567 -262q0 213 297 354l123 -92q-57 -26 -106.5 -78.5t-49.5 -95.5q0 -70 78 -76q29 0 49 12l88 -184q-94 -66 -214 -65.5t-192.5 60.5t-72.5 165z" />
    <glyph glyph-name="uni0337.case" 
d="M-829 322l-142 237l811 451l142 -238z" />
    <glyph glyph-name="uni0338.case" 
d="M-1157 -78l-221 162l1138 1497l220 -166z" />
    <glyph glyph-name="caron.alt" horiz-adv-x="466" 
d="M178 1106q-70 0 -114 46t-46 132t58 142t158 56t156 -58t61 -156q2 -140 -76 -262t-209 -181l-96 113q137 94 137 170q-8 -2 -29 -2z" />
    <glyph glyph-name="acute.case" horiz-adv-x="741" 
d="M94 1528l-74 223l558 242l104 -322z" />
    <glyph glyph-name="breve.case" horiz-adv-x="872" 
d="M436 1546q-176 0 -285.5 102.5t-109.5 276.5h276q0 -61 33 -99t87 -38t87 38t33 99h279q0 -174 -112 -276.5t-288 -102.5z" />
    <glyph glyph-name="caron.case" horiz-adv-x="964" 
d="M586 1927h319l-289 -375h-278l-279 375h318l104 -121z" />
    <glyph glyph-name="circumflex.case" horiz-adv-x="964" 
d="M905 1550h-317l-105 121l-104 -121h-320l289 375h279z" />
    <glyph glyph-name="dieresis.case" horiz-adv-x="964" 
d="M219 1554q-84 0 -140 56q-57 56 -59 140.5t56.5 141t142.5 56.5t140.5 -55.5t58.5 -140.5t-56.5 -141.5t-142.5 -56.5zM739 1554q-84 0 -142 56.5t-58 141.5t58 141.5t142 56.5t142.5 -56.5t58.5 -141.5t-58.5 -141.5t-142.5 -56.5z" />
    <glyph glyph-name="dotaccent.case" horiz-adv-x="391" 
d="M233 1542q-90 0 -151.5 59.5t-61.5 152.5t62.5 150.5t153 57.5t150.5 -60.5t60 -151.5t-61.5 -149.5t-151.5 -58.5z" />
    <glyph glyph-name="grave.case" horiz-adv-x="741" 
d="M608 1528l-588 143l105 322l557 -242z" />
    <glyph glyph-name="hungarumlaut.case" horiz-adv-x="1185" 
d="M725 1511l-178 123l252 418l252 -184zM213 1511l-178 123l252 418l252 -184z" />
    <glyph glyph-name="macron.case" horiz-adv-x="892" 
d="M20 1579v279h852v-279h-852z" />
    <glyph glyph-name="ring.case" horiz-adv-x="612" 
d="M307 1675q35 0 57.5 24.5t22.5 64.5t-21.5 62.5t-57.5 22.5t-58.5 -22.5t-22.5 -62.5t22.5 -64.5t57.5 -24.5zM307 1489q-127 0 -207 75.5t-80 195.5t81 197t206 77t205 -77t80 -197t-79 -195.5t-206 -75.5z" />
    <glyph glyph-name="tilde.case" horiz-adv-x="991" 
d="M636.5 1548q-67.5 0 -152.5 48.5t-122 48.5q-68 0 -91 -32t-23 -48l-207 170q0 25 36 74q35 49 69 79q81 74 200 74q76 0 161 -48t122 -48q70 0 92 32t22 48l207 -170q0 -26 -35.5 -74.5t-69.5 -79.5t-87.5 -52.5t-121 -21.5z" />
    <glyph glyph-name="uni0308.sc" horiz-adv-x="962" 
d="M716 1153q-83 0 -138.5 54.5t-57.5 139t55.5 139t140.5 54.5t138 -54t57 -139.5t-55 -139.5t-140 -54zM245 1153q-83 0 -138.5 53.5t-57.5 138t55.5 140t140.5 55.5t138 -55t57 -140.5t-55 -138.5t-140 -53z" />
    <glyph glyph-name="uni0307.sc" horiz-adv-x="473" 
d="M237 1137q-87 0 -148 58q-60 59 -60 149t61 146q62 56 150 56t146 -58t58 -148t-60 -146q-60 -57 -147 -57z" />
    <glyph glyph-name="gravecomb.sc" horiz-adv-x="663" 
d="M520 1104l-512 250l172 297l467 -326z" />
    <glyph glyph-name="acutecomb.sc" horiz-adv-x="663" 
d="M160 1104l-127 221l467 326l172 -297z" />
    <glyph glyph-name="uni030B.sc" horiz-adv-x="995" 
d="M717 1102l-187 110l222 435l264 -168zM248 1102l-187 110l222 435l264 -168z" />
    <glyph glyph-name="uni0302.sc" horiz-adv-x="804" 
d="M799 1153h-281l-104 143l-105 -143h-282l252 395h278z" />
    <glyph glyph-name="uni030C.sc" horiz-adv-x="804" 
d="M506 1536h278l-247 -377h-279l-238 377h277l104 -133z" />
    <glyph glyph-name="uni0306.sc" horiz-adv-x="872" 
d="M435 1153q-167 0 -271 98t-105 267h277q0 -123 98 -123t98 123h279q0 -168 -104 -267q-105 -98 -272 -98z" />
    <glyph glyph-name="uni030A.sc" horiz-adv-x="612" 
d="M307 1276q35 0 58 24t23 65t-22 63t-58 22t-58 -23t-23 -63q1 -40 23 -64t57 -24zM307 1090q-127 0 -207 76t-80 195q0 120 81 197q81 76 206 76t205 -76t80 -197q0 -119 -79 -195t-206 -76z" />
    <glyph glyph-name="tildecomb.sc" horiz-adv-x="991" 
d="M651 1147q-76 0 -165 48t-125 48q-68 0 -90.5 -31.5t-22.5 -48.5l-207 170q0 18 29.5 68.5t102.5 105t159 54.5t174 -48.5t124 -48.5q68 0 90.5 31.5t22.5 48.5l207 -170q0 -31 -70 -121q-34 -43 -93.5 -74.5t-135.5 -31.5z" />
    <glyph glyph-name="uni0304.sc" horiz-adv-x="892" 
d="M102 1196v279h689v-279h-689z" />
    <glyph glyph-name="uni0326.sc" horiz-adv-x="471" 
d="M178 -389q-57 0 -96 41q-39 42 -41 112t52 117q53 47 139 47t139 -52t53 -152t-66 -204t-174 -155l-96 98q104 78 109 150q-6 -2 -19 -2z" />
    <glyph glyph-name="uni0327.sc" horiz-adv-x="569" 
d="M258 -516q-137 0 -238 82l72 149q84 -49 149.5 -49t65.5 60.5t-84 60.5q-37 0 -88 -10l-29 35l80 219h199l-49 -117q100 0 156.5 -55.5t56.5 -150.5t-77 -159.5t-214 -64.5z" />
    <glyph glyph-name="uni0328.sc" horiz-adv-x="512" 
d="M312 -487q-120 0 -192 60t-73 165q0 225 297 375l123 -113q-57 -26 -107 -78q-49 -53 -49 -96q0 -70 78 -76q29 0 49 12l88 -184q-94 -65 -214 -65z" />
    <glyph glyph-name="uni0335.sc" horiz-adv-x="909" 
d="M123 440v246h643v-246h-643z" />
    <glyph glyph-name="uni0337.sc" horiz-adv-x="1017" 
d="M217 297l-141 238l729 401l141 -238z" />
    <glyph glyph-name="uni0338.sc" horiz-adv-x="1388" 
d="M354 -115l-221 162l885 1163l219 -166z" />
    <glyph glyph-name="sevensc.ss01" horiz-adv-x="935" 
d="M203 334v258h188l90 192h-395v285h770v-139l-143 -338h90v-258h-199l-145 -334h-316l144 334h-84z" />
    </font>
</defs>
</svg>
