<?xml version="1.0" standalone="no"?>
<!DOCTYPE svg PUBLIC "-//W3C//DTD SVG 1.1//EN" "http://www.w3.org/Graphics/SVG/1.1/DTD/svg11.dtd" >
<svg xmlns="http://www.w3.org/2000/svg">
<metadata>
Created by FontPrep 20130207 at Fri May 26 16:01:30 2017
 By Lizzy Knight
Copyright 2016 by URW++ Design &#38; Development GmbH
</metadata>
<defs>
<font id="18706c10a2f858da42b89fcdb5fb841a" horiz-adv-x='1024' >
  <font-face 
    font-family="URWDINCond-Italic"
    font-weight="400"
    font-style="italic"
    font-stretch="normal"
    units-per-em="2048"
    panose-1="0 0 5 0 0 0 0 0 0 0"
    ascent="1462"
    descent="-586"
    x-height="1028"
    cap-height="1462"
    bbox="-303 -496 1776 2075"
    underline-thickness="108"
    underline-position="-192"
    slope="-10"
    unicode-range="U+0020-FB04"
  />
<missing-glyph horiz-adv-x="327" 
 />
    <glyph glyph-name="ff" unicode="ff" horiz-adv-x="921" 
d="M662 907h-82l22 121h80l35 191q23 143 76 195t176 48h82l-21 -110h-37q-69 2 -95 -29t-46 -139l-27 -156h150l-21 -121h-149l-160 -907h-143zM217 907h-88l21 121h90l32 191q25 145 77 195t177 48h76l-20 -110h-33q-71 2 -95 -29t-44 -139l-29 -156h127l-21 -121h-127
l-159 -907h-144z" />
    <glyph glyph-name="fi" unicode="fi" horiz-adv-x="862" 
d="M504 0l182 1028h141l-180 -1028h-143zM725 1255l37 211h143l-37 -211h-143zM217 907h-88l21 121h90l32 191q25 145 77 195t177 48h80l-20 -110h-37q-71 2 -95 -29t-44 -139l-29 -156h151l-22 -121h-150l-159 -907h-144z" />
    <glyph glyph-name="fl" unicode="fl" horiz-adv-x="907" 
d="M690 210q0 -46 24 -66t77 -21h22l-20 -123h-29q-121 0 -171 38t-50 114t18 190l199 1120h143l-205 -1153q-8 -53 -8 -99zM217 907h-88l21 121h90l32 191q25 145 77 195t177 48h80l-20 -110h-37q-71 2 -95 -29t-44 -139l-29 -156h151l-22 -121h-150l-159 -907h-144z" />
    <glyph glyph-name="ffi" unicode="ffi" horiz-adv-x="1306" 
d="M662 907h-82l22 121h80l35 191q23 143 76 195t176 48h82l-21 -110h-37q-69 2 -95 -29t-46 -139l-27 -156h150l-21 -121h-149l-160 -907h-143zM948 0l180 1028h144l-180 -1028h-144zM1169 1255l37 211h144l-37 -211h-144zM217 907h-88l21 121h90l32 191q25 145 77 195
t177 48h76l-20 -110h-33q-71 2 -95 -29t-44 -139l-29 -156h127l-21 -121h-127l-159 -907h-144z" />
    <glyph glyph-name="ffl" unicode="ffl" horiz-adv-x="1351" 
d="M662 907h-82l22 121h80l35 191q23 143 76 195t176 48h82l-21 -110h-37q-69 2 -95 -29t-46 -139l-27 -156h150l-21 -121h-149l-160 -907h-143zM1135 214q0 -50 23 -71q24 -20 77 -20h22l-22 -123h-27q-121 0 -171 38t-50 121t19 183l196 1120h144l-203 -1153
q-8 -45 -8 -95zM217 907h-88l21 121h90l32 191q25 145 77 195t177 48h76l-20 -110h-33q-71 2 -95 -29t-44 -139l-29 -156h127l-21 -121h-127l-159 -907h-144z" />
    <glyph glyph-name=".notdef" horiz-adv-x="327" 
 />
    <glyph glyph-name=".null" horiz-adv-x="0" 
 />
    <glyph glyph-name="nonmarkingreturn" horiz-adv-x="681" 
 />
    <glyph glyph-name="space" unicode=" " horiz-adv-x="327" 
 />
    <glyph glyph-name="exclam" unicode="!" horiz-adv-x="440" 
d="M59 0l35 193h144l-35 -193h-144zM139 385l168 1077h162l-211 -1077h-119z" />
    <glyph glyph-name="quotedbl" unicode="&#x22;" horiz-adv-x="569" 
d="M436 934l82 528h148l-103 -528h-127zM156 934l82 528h147l-102 -528h-127z" />
    <glyph glyph-name="numbersign" unicode="#" 
d="M354 586h164l66 248h-164zM236 586l65 248h-178l29 100h176l94 364h121l-97 -364h164l97 364h118l-94 -364h178l-28 -100h-176l-66 -248h178l-31 -103h-174l-100 -377h-121l101 377h-164l-101 -377h-118l100 377h-180l28 103h179z" />
    <glyph glyph-name="dollar" unicode="$" 
d="M213 299q0 -162 154 -162q129 0 188 137q43 104 43 202t-28 133t-46 45t-100 46q-205 88 -205 312q0 184 85 304t222 128l39 217h146l-41 -231q168 -66 168 -242q0 -45 -13 -103h-137q6 68 6 91q0 150 -133 149q-100 0 -151 -100q-43 -83 -43 -175q1 -92 35 -139t142 -96
t155 -113q46 -64 46 -180q0 -219 -98 -364q-76 -115 -225 -135l-51 -293h-146l51 295q-207 47 -206 254q0 51 16 143h137q-10 -76 -10 -123z" />
    <glyph glyph-name="percent" unicode="%" horiz-adv-x="1267" 
d="M324 0l563 1462h133l-563 -1462h-133zM1010 655q-53 0 -81 -39t-44 -135l-39 -221q-8 -61 -8 -86q0 -88 80 -88q52 0 80 39t44 135l39 221q8 53 9 88q0 86 -80 86zM1223 578q0 -43 -13 -105l-34 -205q-30 -152 -90 -216t-179 -64q-199 0 -198 184q0 60 12 119l35 205
q27 141 85 199t173 59q209 0 209 -176zM506 1294q0 86 -80 86q-51 0 -79 -38t-44 -134l-39 -223q-10 -47 -10 -84q0 -88 80 -88q53 0 81 39t44 133l39 223q8 41 8 86zM639 1305q0 -37 -10 -105l-37 -205q-27 -153 -88 -217t-178 -63q-201 0 -201 184q0 41 12 119l37 205
q25 139 83 197t175 59q207 0 207 -174z" />
    <glyph glyph-name="ampersand" unicode="&#x26;" horiz-adv-x="1093" 
d="M217 222q0 -161 137 -161q90 0 191 80q30 25 86 95l-152 434q-123 -88 -172 -160q-90 -127 -90 -288zM766 1257q0 127 -104 127q-72 0 -115 -76t-43 -184t49 -260q213 160 213 393zM360 1110q0 170 83 282t211 112t192 -68q63 -66 63 -187q0 -291 -305 -497l129 -381
q74 139 127 293h137q-84 -250 -202 -431l90 -233h-162l-37 111q-102 -99 -180 -137t-192 -38t-182 72q-67 70 -66 203q0 211 122 369q41 55 80 89t158 119q-66 233 -66 322z" />
    <glyph glyph-name="quotesingle" unicode="'" horiz-adv-x="288" 
d="M156 934l82 528h147l-102 -528h-127z" />
    <glyph glyph-name="parenleft" unicode="(" horiz-adv-x="606" 
d="M330 244q0 -240 59 -430l-106 -60q-105 230 -105 582t156 778q127 360 278 543l88 -66q-164 -245 -267 -621t-103 -726z" />
    <glyph glyph-name="parenright" unicode=")" horiz-adv-x="606" 
d="M344 1167q0 246 -59 432l106 58q105 -229 105 -579t-142 -746q-142 -395 -293 -578l-88 68q163 244 267 620t104 725z" />
    <glyph glyph-name="asterisk" unicode="*" 
d="M539 1096l-187 -246l-108 88l217 238l-248 114l61 119l234 -143l43 309l141 -25l-65 -305l268 53l18 -131l-272 -22l121 -299l-131 -45z" />
    <glyph glyph-name="plus" unicode="+" 
d="M133 690l21 117h266l57 323h123l-57 -323h266l-21 -117h-266l-57 -328h-123l57 328h-266z" />
    <glyph glyph-name="comma" unicode="," horiz-adv-x="389" 
d="M-92 -385l166 575h157l-196 -575h-127z" />
    <glyph glyph-name="hyphen" unicode="-" horiz-adv-x="634" 
d="M150 682l22 127h399l-22 -127h-399z" />
    <glyph glyph-name="period" unicode="." horiz-adv-x="391" 
d="M31 0l35 193h147l-33 -193h-149z" />
    <glyph glyph-name="slash" unicode="/" horiz-adv-x="550" 
d="M-55 -45l598 1552h141l-598 -1552h-141z" />
    <glyph glyph-name="zero" unicode="0" 
d="M573 1356q-94 0 -147 -78t-86 -260l-100 -574q-20 -111 -21 -170q0 -168 146 -168q94 0 146 77t87 261l100 574q20 121 21 170q0 168 -146 168zM578 1481q285 0 284 -287q0 -74 -20 -188l-107 -605q-23 -121 -47 -189t-70 -118q-98 -113 -258 -112q-285 0 -284 286
q0 80 18 189l107 604q39 213 118 307q94 113 259 113z" />
    <glyph glyph-name="one" unicode="1" 
d="M279 0l229 1298l-186 -102l-54 111l316 155h102l-258 -1462h-149z" />
    <glyph glyph-name="two" unicode="2" 
d="M678 1217q0 141 -125 141q-86 0 -136 -66t-77 -217h-137q27 178 78 258q100 147 278 148q127 0 199 -72t71 -199q0 -184 -88 -350q-55 -104 -249 -350l-302 -383h451l-23 -127h-626l18 106l400 508q268 342 268 603z" />
    <glyph glyph-name="three" unicode="3" 
d="M426 831q108 -1 178 103t70 263t-135 159q-86 0 -133 -60t-76 -211h-137q27 174 77 252q94 143 275 144q135 0 208 -73q73 -74 73 -216t-59 -256q-58 -114 -161 -164q125 -84 125 -266q0 -221 -98 -373t-295 -151q-143 0 -220 72t-77 206q0 57 16 141h138
q-10 -78 -11 -129q0 -168 156 -168q125 0 186 132q53 113 54 268q0 96 -44 151t-122 56h-109l21 120h100z" />
    <glyph glyph-name="four" unicode="4" 
d="M438 0l49 274h-444l16 95l543 1093h152l-525 -1063h281l76 439h137l-78 -439h109l-23 -127h-106l-50 -272h-137z" />
    <glyph glyph-name="five" unicode="5" 
d="M508 899q246 0 246 -268q0 -105 -30 -245t-67 -216q-96 -188 -317 -188q-143 0 -219 70t-76 200q0 59 16 149h138q-10 -78 -11 -129q0 -168 152 -168q76 0 125 46t82 145q53 164 53 325t-133 160q-96 0 -182 -94l-103 23l170 753h525l-23 -127h-395l-111 -489
q53 35 81 44t79 9z" />
    <glyph glyph-name="six" unicode="6" 
d="M227 254q0 -72 36 -112t99 -40q154 0 201 205q49 225 49 311q0 166 -124 166t-181 -139q-29 -75 -55 -197t-25 -194zM537 899q106 -1 164 -67q59 -66 59 -170t-23 -229q-23 -123 -59 -225t-122 -164q-85 -62 -206 -62q-122 0 -196 72t-74 194q0 80 22 196t50 193
q29 76 106 211l358 614h164l-340 -588q45 25 97 25z" />
    <glyph glyph-name="seven" unicode="7" 
d="M102 0l598 1335h-440l23 127h594l-17 -90l-586 -1372h-172z" />
    <glyph glyph-name="eight" unicode="8" 
d="M471 713q-141 0 -197 -129q-23 -58 -43 -164t-20 -174t40 -106t116 -38q133 0 184 121q25 59 45 167t20 176t-37 108q-38 39 -108 39zM575 1368q-127 0 -167 -123q-18 -51 -34 -147t-18 -150q0 -127 130 -127t176 133q49 152 49 287q0 59 -36 93q-37 34 -100 34zM219 942
q0 104 23 208t55 171q80 160 283 160q130 0 200 -65t70 -183q0 -168 -62 -320q-20 -51 -52 -84t-87 -59q111 -53 111 -221q0 -104 -28 -223t-66 -189q-88 -156 -299 -155q-303 0 -304 264q0 94 27 211t70 199t145 120l-10 8q-76 54 -76 158z" />
    <glyph glyph-name="nine" unicode="9" 
d="M573 1360q-125 0 -174 -121q-25 -55 -47 -174t-22 -187t34 -104q34 -37 97 -37q131 0 188 152q63 182 64 325q0 70 -37 108t-103 38zM592 1481q118 0 193 -69t75 -193q0 -166 -63 -347q-23 -68 -105 -206l-395 -666h-164l385 653q-63 -31 -112 -30q-102 0 -162 66
q-60 67 -60 173t28 242t64 210q36 73 118 120q80 47 198 47z" />
    <glyph glyph-name="colon" unicode=":" horiz-adv-x="391" 
d="M178 831l33 193h149l-34 -193h-148zM31 0l35 193h147l-33 -193h-149z" />
    <glyph glyph-name="semicolon" unicode=";" horiz-adv-x="389" 
d="M190 831l33 193h150l-33 -193h-150zM-94 -385l166 575h157l-196 -575h-127z" />
    <glyph glyph-name="less" unicode="&#x3c;" 
d="M291 745l395 -268l-22 -131l-525 369l13 71l653 371l-25 -141z" />
    <glyph glyph-name="equal" unicode="=" 
d="M178 825l21 113h612l-20 -113h-613zM131 557l21 117h612l-21 -117h-612z" />
    <glyph glyph-name="greater" unicode="&#x3e;" 
d="M653 758l-393 268l23 131l522 -371l-12 -71l-654 -369l25 141z" />
    <glyph glyph-name="question" unicode="?" horiz-adv-x="790" 
d="M227 0l33 193h143l-32 -193h-144zM676 1206q0 147 -133 148q-84 0 -132 -66t-75 -213h-137q25 160 69 240q90 164 283 164q135 0 207 -67t71 -193q0 -199 -98 -349q-31 -49 -170 -196q-104 -111 -127 -232l-10 -59h-117l12 78q19 115 57 185t134 173q92 104 129 187
t37 200z" />
    <glyph glyph-name="at" unicode="@" horiz-adv-x="1325" 
d="M784 981q-90 -1 -174 -189t-84 -346q0 -86 56 -86q92 0 178 190t86 329q-1 102 -62 102zM860 414q0 -53 49 -54q117 0 199 162q43 86 73 220t29 243q0 178 -88 289t-284 110q-315 0 -496 -342q-72 -132 -118 -328t-46 -364q0 -215 106 -308t304 -93q100 0 175 19t183 73
l35 -94q-209 -104 -403 -105q-260 0 -394 121q-133 123 -133 377q0 211 61 437q60 226 158 380q207 332 570 332q236 0 366 -131t131 -367q0 -159 -48 -321t-124 -258q-125 -158 -280 -158q-125 0 -125 127v22q-62 -89 -106 -121t-107 -32q-147 0 -148 188q0 90 34 211
t87 221q119 217 271 217q61 -1 89 -33t35 -110l39 121h90l-155 -508q-29 -90 -29 -143z" />
    <glyph glyph-name="A" unicode="A" horiz-adv-x="839" 
d="M580 451l-27 790l-309 -790h336zM586 328h-389l-127 -328h-162l614 1462h129l105 -1462h-158z" />
    <glyph glyph-name="B" unicode="B" horiz-adv-x="923" 
d="M385 125q74 0 117 18t76 66q82 123 81 297q0 100 -35 142q-36 42 -122 42h-178l-101 -565h162zM514 815q109 0 164 80q80 102 80 266q0 96 -39 136t-133 40h-148l-92 -522h168zM580 1462q192 0 262 -70t70 -218q0 -146 -58 -258q-57 -112 -149 -154q59 -43 83 -99
t23 -155q0 -236 -115 -391q-49 -63 -112 -90t-168 -27h-363l258 1462h269z" />
    <glyph glyph-name="C" unicode="C" horiz-adv-x="882" 
d="M379 -18q-139 0 -213 72t-74 206q0 80 21 195l106 604q39 223 119 311q96 109 248 109t228 -69q77 -69 77 -193q0 -57 -17 -142h-135q8 74 9 115q0 164 -148 164q-100 0 -154 -74t-84 -254l-104 -592q-18 -113 -18 -162q0 -168 147 -168q102 0 160 72q57 72 86 236h141
q-27 -166 -80 -256q-106 -174 -315 -174z" />
    <glyph glyph-name="D" unicode="D" horiz-adv-x="946" 
d="M780 1169q0 168 -182 168h-160l-215 -1212h160q121 -2 185 70t96 241l102 590q14 76 14 143zM594 1462q172 0 246 -61q92 -74 92 -221q0 -61 -17 -156l-112 -641q-61 -391 -420 -383h-330l258 1462h283z" />
    <glyph glyph-name="E" unicode="E" horiz-adv-x="808" 
d="M55 0l258 1462h584l-23 -127h-434l-94 -532h369l-21 -127h-370l-97 -549h439l-23 -127h-588z" />
    <glyph glyph-name="F" unicode="F" horiz-adv-x="763" 
d="M55 0l258 1462h578l-23 -127h-428l-96 -544h363l-23 -127h-362l-117 -664h-150z" />
    <glyph glyph-name="G" unicode="G" horiz-adv-x="919" 
d="M413 -18q-321 0 -321 284q0 76 21 191l106 602q23 125 49 193t72 118q98 109 252 109t233 -68q78 -68 78 -190q0 -51 -14 -146h-137q8 72 8 111q0 168 -154 168q-102 0 -157 -75t-87 -253l-104 -590q-18 -102 -18 -155q0 -174 159 -175q104 0 168 78q63 78 92 244l37 213
h-180l21 121h329l-59 -332q-37 -221 -119 -321q-109 -127 -275 -127z" />
    <glyph glyph-name="H" unicode="H" horiz-adv-x="952" 
d="M53 0l258 1462h150l-117 -659h367l116 659h150l-258 -1462h-150l121 676h-368l-119 -676h-150z" />
    <glyph glyph-name="I" unicode="I" horiz-adv-x="436" 
d="M53 0l258 1462h150l-258 -1462h-150z" />
    <glyph glyph-name="J" unicode="J" horiz-adv-x="626" 
d="M145 -16q-166 0 -256 118l107 95q63 -88 137 -88q96 0 146 114q25 57 53 215l180 1024h147l-184 -1046q-29 -162 -41 -208t-41 -91q-82 -133 -248 -133z" />
    <glyph glyph-name="K" unicode="K" 
d="M55 0l258 1462h150l-129 -731l508 731h164l-443 -608l209 -854h-154l-167 735l-158 -235l-88 -500h-150z" />
    <glyph glyph-name="L" unicode="L" horiz-adv-x="765" 
d="M53 0l258 1462h150l-236 -1335h449l-23 -127h-598z" />
    <glyph glyph-name="M" unicode="M" horiz-adv-x="1138" 
d="M53 0l258 1462h144l116 -932l447 932h145l-258 -1462h-143l194 1110l-381 -815h-90l-92 815l-196 -1110h-144z" />
    <glyph glyph-name="N" unicode="N" horiz-adv-x="1005" 
d="M53 0l258 1462h148l227 -1143l201 1143h141l-258 -1462h-141l-232 1149l-202 -1149h-142z" />
    <glyph glyph-name="O" unicode="O" horiz-adv-x="944" 
d="M782 1201q0 63 -45 109t-138 46t-149 -73t-90 -251l-106 -602q-16 -98 -16 -164t45 -113t139 -47t150 73t87 251l107 602q16 106 16 169zM614 1481q315 0 316 -293q0 -70 -17 -168l-112 -633q-35 -203 -113 -293q-100 -113 -282 -112q-315 0 -316 292q1 70 19 168
l110 633q23 119 46 179q91 227 349 227z" />
    <glyph glyph-name="P" unicode="P" horiz-adv-x="854" 
d="M444 702q82 0 131 26t84 87q82 139 82 320q0 111 -41 157t-141 45h-123l-110 -635h118zM559 1462q178 0 256 -74t78 -239q0 -248 -115 -420q-55 -82 -132 -117t-197 -34h-144l-100 -578h-150l258 1462h246z" />
    <glyph glyph-name="Q" unicode="Q" horiz-adv-x="944" 
d="M782 1201q0 63 -45 109t-138 46t-149 -73t-90 -251l-106 -602q-16 -98 -16 -164t45 -113q45 -46 128 -46t142 53l-154 186l97 76l125 -152q23 59 38 160l107 602q16 106 16 169zM614 1481q315 0 316 -293q0 -70 -17 -168l-112 -633q-29 -160 -78 -242l86 -104l-96 -76
l-72 86q-90 -70 -235 -69q-315 0 -316 292q0 70 19 168l110 633q23 119 46 179q91 227 349 227z" />
    <glyph glyph-name="R" unicode="R" horiz-adv-x="907" 
d="M457 766q86 0 134 22t85 76q80 117 80 291q0 98 -44 140t-147 42h-129l-100 -571h121zM569 1462q188 0 264 -72t76 -202q-1 -128 -33 -238t-87 -182q-55 -70 -164 -106l106 -662h-164l-88 645h-162l-112 -645h-150l258 1462h256z" />
    <glyph glyph-name="S" unicode="S" horiz-adv-x="823" 
d="M180 281q0 -176 162 -177q133 0 197 142q45 106 45 226t-75 165q-17 10 -119 57t-152 124t-50 198q0 182 90 322t263 141q135 0 211 -73t75 -204q0 -47 -14 -127h-139q10 61 10 109q0 170 -139 170q-107 0 -157 -106t-50 -200t36 -143t126 -92q139 -63 186 -128t47 -191
q0 -193 -84 -338q-102 -174 -311 -174q-139 0 -220 72t-81 200q0 60 18 158h135q-10 -82 -10 -131z" />
    <glyph glyph-name="T" unicode="T" horiz-adv-x="706" 
d="M188 0l236 1335h-252l23 127h653l-23 -127h-252l-235 -1335h-150z" />
    <glyph glyph-name="U" unicode="U" horiz-adv-x="962" 
d="M254 260q0 -154 160 -154q127 0 188 107q29 51 55 184l187 1065h149l-192 -1091q-23 -121 -41 -172t-58 -99q-102 -119 -288 -118q-307 0 -308 262q0 74 21 182l182 1036h150l-189 -1065q-16 -94 -16 -137z" />
    <glyph glyph-name="V" unicode="V" horiz-adv-x="837" 
d="M264 0l-67 1462h145l31 -1192l448 1192h154l-584 -1462h-127z" />
    <glyph glyph-name="W" unicode="W" horiz-adv-x="1269" 
d="M180 0l39 1462h148l-58 -1155l432 1155h111l25 -1155l350 1155h147l-475 -1462h-129l-29 1141l-430 -1141h-131z" />
    <glyph glyph-name="X" unicode="X" horiz-adv-x="811" 
d="M371 778l-148 684h150l114 -557l287 557h160l-402 -725l162 -737h-151l-127 608l-314 -608h-159z" />
    <glyph glyph-name="Y" unicode="Y" horiz-adv-x="772" 
d="M223 0l94 537l-149 925h154l102 -733l360 733h160l-477 -925l-94 -537h-150z" />
    <glyph glyph-name="Z" unicode="Z" horiz-adv-x="747" 
d="M-33 0l15 84l659 1251h-405l22 127h571l-14 -84l-659 -1251h458l-22 -127h-625z" />
    <glyph glyph-name="bracketleft" unicode="[" horiz-adv-x="606" 
d="M90 -201l320 1813h284l-18 -111h-141l-281 -1591h141l-20 -111h-285z" />
    <glyph glyph-name="backslash" unicode="\" horiz-adv-x="550" 
d="M410 -45h-142l-51 1552h141z" />
    <glyph glyph-name="bracketright" unicode="]" horiz-adv-x="606" 
d="M586 1612l-320 -1813h-284l20 111h141l279 1591h-141l20 111h285z" />
    <glyph glyph-name="asciicircum" unicode="^" 
d="M569 1290l-262 -506h-162l412 689h82l170 -689h-158z" />
    <glyph glyph-name="underscore" unicode="_" horiz-adv-x="638" 
d="M-186 -354l18 108h709l-19 -108h-708z" />
    <glyph glyph-name="grave" unicode="`" horiz-adv-x="1024" 
d="M717 1192h-105l-116 287h151z" />
    <glyph glyph-name="a" unicode="a" horiz-adv-x="763" 
d="M381 485q-119 -1 -172 -71t-53 -203q0 -57 30 -84t107 -27q76 0 115 44t59 167l31 174h-117zM428 926q-64 0 -104 -49t-60 -162h-133q29 176 102 254q74 78 211 78q242 0 242 -236q0 -66 -18 -172l-113 -639h-113l-2 43q-59 -61 -184 -61q-246 0 -246 206q0 86 25 172
t61 136q84 104 271 104h151l14 76q31 173 -14 221q-26 29 -90 29z" />
    <glyph glyph-name="b" unicode="b" horiz-adv-x="806" 
d="M596 780q0 141 -107 142q-156 0 -213 -328l-28 -160q-16 -102 -17 -151q0 -176 113 -177q139 1 188 265l52 288q12 80 12 121zM518 1047q221 0 221 -240q0 -63 -20 -193l-47 -256q-35 -200 -108 -288t-204 -88t-196 98l-25 -80h-110l258 1462h143l-86 -489q72 74 174 74z
" />
    <glyph glyph-name="c" unicode="c" horiz-adv-x="733" 
d="M696 813q0 -39 -10 -106h-131q6 68 6 90q0 131 -106 131q-72 0 -114 -62t-67 -204l-53 -295q-12 -82 -12 -136q0 -129 104 -129q75 0 119 54t64 178h133q-27 -174 -74 -240q-80 -113 -248 -112q-240 0 -239 243q0 82 18 181l47 272q33 190 98 272q81 98 211 98t192 -60
q62 -62 62 -175z" />
    <glyph glyph-name="d" unicode="d" horiz-adv-x="806" 
d="M213 254q0 -147 106 -148q152 0 211 328l27 160q16 92 16 156q0 174 -116 174q-136 0 -181 -250l-51 -289q-12 -72 -12 -131zM485 0v68q-45 -50 -86 -68t-102 -18q-227 0 -227 251q0 72 18 181l49 280q33 186 106 270t195 83q122 0 187 -74l86 489h143l-258 -1462h-111z
" />
    <glyph glyph-name="e" unicode="e" horiz-adv-x="778" 
d="M586 797q0 131 -119 131q-82 0 -124 -56t-67 -194l-14 -74h299q25 137 25 193zM209 231q0 -129 117 -129q78 0 120 52t64 170h133q-20 -154 -72 -228q-80 -115 -254 -114q-250 0 -249 254q0 68 18 176l45 254q35 201 102 280q82 100 236 101q252 0 252 -248
q0 -80 -43 -312h-436l-23 -131q-10 -72 -10 -125z" />
    <glyph glyph-name="f" unicode="f" horiz-adv-x="477" 
d="M217 907h-88l21 121h90l32 191q25 145 77 195t177 48h80l-20 -110h-37q-71 2 -95 -29t-44 -139l-29 -156h151l-22 -121h-150l-159 -907h-144z" />
    <glyph glyph-name="g" unicode="g" horiz-adv-x="806" 
d="M211 252q0 -145 106 -146q152 0 211 328l27 160q18 104 18 154q0 174 -116 174q-138 0 -183 -248l-53 -299q-10 -57 -10 -123zM68 233q0 82 18 181l49 280q33 186 106 270t199 83q126 0 195 -80l29 61h110l-199 -1137q-35 -199 -113 -283t-207 -85q-249 0 -251 186
q0 47 12 117h129q-6 -57 -6 -76q0 -109 105 -108q80 0 122 58q41 59 68 202l25 145q-72 -66 -168 -65q-223 0 -223 251z" />
    <glyph glyph-name="h" unicode="h" horiz-adv-x="808" 
d="M739 852q0 -84 -20 -211l-115 -641h-141l115 653q16 94 16 138q0 131 -105 131q-84 0 -132 -73t-76 -243l-107 -606h-143l258 1462h143l-86 -479q76 63 180 63t158 -54q54 -56 55 -140z" />
    <glyph glyph-name="i" unicode="i" horiz-adv-x="393" 
d="M35 0l182 1028h141l-180 -1028h-143zM256 1255l37 211h143l-37 -211h-143z" />
    <glyph glyph-name="j" unicode="j" horiz-adv-x="399" 
d="M262 1255l37 211h143l-36 -211h-144zM223 1028h144l-191 -1079q-37 -242 -121 -334t-260 -86l23 123q88 -6 138 64t77 237z" />
    <glyph glyph-name="k" unicode="k" horiz-adv-x="768" 
d="M35 0l258 1462h143l-174 -987l379 553h156l-320 -432l156 -596h-152l-108 481l-148 -213l-47 -268h-143z" />
    <glyph glyph-name="l" unicode="l" horiz-adv-x="438" 
d="M221 210q0 -46 24 -66t77 -21h22l-20 -123h-29q-121 0 -171 38t-50 114t18 190l199 1120h143l-205 -1153q-8 -53 -8 -99z" />
    <glyph glyph-name="m" unicode="m" horiz-adv-x="1198" 
d="M1130 858q0 -80 -24 -217l-113 -641h-143l117 653q18 109 18 146q0 125 -96 125q-76 0 -122 -72t-75 -236l-108 -616h-144l115 653q16 88 16 150q0 119 -92 119q-76 0 -122 -73t-76 -243l-107 -606h-143l182 1028h109l-3 -67q51 51 93 68t112 18q156 0 195 -97
q78 96 211 97q96 -1 148 -55t52 -134z" />
    <glyph glyph-name="n" unicode="n" horiz-adv-x="808" 
d="M739 851q0 -87 -20 -210l-115 -641h-141l115 653q16 96 16 140q0 129 -105 129q-84 0 -132 -73t-76 -243l-107 -606h-143l182 1028h109l-3 -67q49 49 95 67t130 18q86 0 140 -54t55 -141z" />
    <glyph glyph-name="o" unicode="o" horiz-adv-x="796" 
d="M471 926q-82 0 -127 -58t-70 -198l-55 -312q-12 -78 -12 -122q0 -133 117 -134q82 0 126 58t70 198l55 312q14 80 15 123q0 133 -119 133zM731 801q0 -61 -20 -172l-49 -285q-33 -186 -101 -266q-88 -96 -237 -96q-258 0 -258 245q0 68 18 172l49 285q37 193 103 266
q86 96 237 97q258 0 258 -246z" />
    <glyph glyph-name="p" unicode="p" horiz-adv-x="806" 
d="M596 778q0 143 -109 144q-152 0 -208 -328l-29 -160q-16 -82 -17 -158q0 -170 111 -170q143 1 188 265l54 303q10 55 10 104zM516 1047q223 0 223 -242q0 -74 -16 -166l-49 -281q-35 -200 -108 -288q-74 -88 -198 -88t-186 73l-90 -516h-143l262 1489h113l6 -55
q76 74 186 74z" />
    <glyph glyph-name="q" unicode="q" horiz-adv-x="806" 
d="M213 254q0 -147 106 -148q150 0 211 328l27 160q16 92 16 156q0 172 -116 172q-136 0 -181 -248l-53 -301q-10 -61 -10 -119zM293 -18q-223 0 -223 251q0 76 18 181l49 280q35 188 106 270t203 83q132 0 191 -84l29 65h110l-262 -1489h-143l90 504q-68 -61 -168 -61z" />
    <glyph glyph-name="r" unicode="r" horiz-adv-x="555" 
d="M31 0l182 1028h111l2 -76q72 94 162 94t151 -53l-86 -121q-43 51 -88 52q-68 0 -116 -98t-87 -322l-88 -504h-143z" />
    <glyph glyph-name="s" unicode="s" horiz-adv-x="712" 
d="M150 218q0 -52 36 -84t109 -32q74 0 129 65t55 163q0 57 -33 84q-14 16 -29 22t-109 37t-139 85q-46 54 -46 151q0 153 81 245t208 92q126 0 192 -56q66 -58 66 -163q0 -37 -13 -106h-133q10 51 11 86q0 119 -111 119q-72 0 -117 -58t-45 -130q0 -70 28 -100t122 -62
t129 -56q78 -49 77 -168q0 -170 -91 -270t-231 -100t-211 59t-71 162q1 47 15 131h133q-12 -64 -12 -116z" />
    <glyph glyph-name="t" unicode="t" horiz-adv-x="479" 
d="M322 123h32l-22 -123h-35q-115 0 -163 34t-48 100t27 222l98 551h-88l20 121h88l66 330h135l-57 -330h135l-21 -121h-135l-106 -598q-14 -76 -15 -108q0 -78 89 -78z" />
    <glyph glyph-name="u" unicode="u" horiz-adv-x="790" 
d="M215 229q0 -123 96 -123q78 0 124 74t75 242l108 606h142l-180 -1028h-109l4 80q-47 -55 -91 -77q-44 -21 -126 -21t-135 54t-53 140t22 211l113 641h143l-115 -651q-18 -96 -18 -148z" />
    <glyph glyph-name="v" unicode="v" horiz-adv-x="704" 
d="M195 0l-64 1028h141l23 -819l311 819h148l-426 -1028h-133z" />
    <glyph glyph-name="w" unicode="w" horiz-adv-x="1083" 
d="M170 0l-25 1028h144l-8 -786l301 786h100l23 -786l268 786h145l-385 -1028h-119l-28 768l-297 -768h-119z" />
    <glyph glyph-name="x" unicode="x" horiz-adv-x="663" 
d="M254 532l-125 496h152l86 -366l202 366h156l-315 -514l129 -514h-152l-90 381l-211 -381h-158z" />
    <glyph glyph-name="y" unicode="y" horiz-adv-x="704" 
d="M190 -10l-63 1038h139l31 -846l309 846h146l-476 -1210q-72 -174 -142 -231q-71 -56 -222 -58l22 123q82 0 118 32t83 148z" />
    <glyph glyph-name="z" unicode="z" horiz-adv-x="649" 
d="M-35 0l15 82l485 823h-309l20 123h479l-14 -82l-485 -823h358l-20 -123h-529z" />
    <glyph glyph-name="braceleft" unicode="{" horiz-adv-x="606" 
d="M279 4q0 -102 90 -102h28l-18 -103h-55q-102 0 -149 40q-46 40 -46 121t31 249l39 217q25 147 24 186q0 92 -80 93h-12l16 90h11q70 2 98 54t55 224l31 166q33 223 92 298t201 75h63l-18 -103h-29q-73 -3 -107 -67t-71 -271l-18 -102q-29 -174 -54 -230t-88 -89
q59 -33 60 -117q0 -29 -29 -203l-45 -248q-20 -121 -20 -178z" />
    <glyph glyph-name="bar" unicode="|" 
d="M244 -201l319 1813h123l-319 -1813h-123z" />
    <glyph glyph-name="braceright" unicode="}" horiz-adv-x="606" 
d="M350 1612q195 0 195 -156q0 -76 -31 -254l-22 -129q-25 -143 -25 -186q0 -92 80 -92h12l-16 -90h-13q-68 -3 -96 -55t-57 -224l-43 -252q-35 -225 -94 -300t-199 -75h-66l19 103h29q73 2 107 66t71 272l32 190q29 170 54 228t88 92q-57 35 -58 120q0 31 29 199l29 160
q20 115 20 178q0 102 -90 102h-29l19 103h55z" />
    <glyph glyph-name="asciitilde" unicode="~" 
d="M602 729q59 0 117 139l80 -26q-91 -224 -205 -226q-55 0 -79 16t-95 91q-41 41 -74 41q-62 0 -119 -143l-84 22q91 233 207 235q54 0 82 -14q28 -16 80 -76q53 -60 90 -59z" />
    <glyph glyph-name="uni00A0" unicode="&#xa0;" horiz-adv-x="327" 
 />
    <glyph glyph-name="exclamdown" unicode="&#xa1;" horiz-adv-x="440" 
d="M383 1022l-35 -193h-143l35 193h143zM303 637l-170 -1077h-160l211 1077h119z" />
    <glyph glyph-name="cent" unicode="&#xa2;" 
d="M188 557q0 70 19 172l47 272q27 178 96 268q70 89 191 99l37 209h145l-39 -221q158 -43 158 -221q0 -43 -13 -105h-129q6 66 7 86q0 135 -123 135q-78 0 -120 -59t-69 -207l-53 -293q-12 -86 -12 -127q0 -137 121 -137q83 0 125 53t65 178h133q-20 -171 -84 -251
t-190 -97l-39 -223h-148l41 231q-166 39 -166 238z" />
    <glyph glyph-name="sterling" unicode="&#xa3;" 
d="M221 1004q0 186 87 330t284 145q141 0 218 -72t77 -205q0 -47 -15 -127h-137q10 63 10 111q0 168 -147 168q-113 0 -166 -103q-59 -109 -59 -241q0 -59 37 -252h258l-23 -127h-227q2 -8 2 -17q6 -129 -46 -264t-143 -223h498l-22 -127h-701l19 109q106 47 179 177t72 273
l-4 72h-157l22 127h115q-31 180 -31 246z" />
    <glyph glyph-name="currency" unicode="&#xa4;" 
d="M464 975q-98 0 -160 -80t-62 -212t60 -212t160 -80t162 80q60 80 60 211t-60 212q-61 81 -160 81zM807 684q0 -154 -74 -264l131 -162l-73 -72l-127 162q-92 -68 -198 -68t-204 68l-129 -162l-74 72l131 162q-72 102 -72 259t72 267l-131 164l74 70l129 -162
q94 68 200 68t202 -68l127 162l73 -70l-131 -164q74 -108 74 -262z" />
    <glyph glyph-name="yen" unicode="&#xa5;" 
d="M266 0l56 313h-234l16 95h234l24 143h-233l18 94h199l-145 817h151l113 -741l373 741h157l-432 -817h199l-17 -94h-233l-25 -143h234l-19 -95h-231l-55 -313h-150z" />
    <glyph glyph-name="brokenbar" unicode="&#xa6;" horiz-adv-x="681" 
d="M182 0l90 506h138l-88 -506h-140zM348 936l92 526h138l-93 -526h-137z" />
    <glyph glyph-name="section" unicode="&#xa7;" 
d="M256 616q0 -59 27 -90t123 -75l86 -43l12 12l59 43q33 25 55 82q23 57 23 115q1 58 -25 88q-26 28 -124 77l-86 41l-48 -32q-102 -72 -102 -218zM137 59q0 -143 152 -143q105 0 169 64t64 170q0 66 -33 98t-155 83q-122 50 -171 106q-50 56 -50 151q0 141 98 243
q31 31 113 84q-78 72 -78 183q0 164 85 274t257 109q122 1 190 -57t68 -162q0 -41 -10 -101h-129q4 39 4 84t-34 80q-33 35 -105 35t-124 -68t-53 -174q0 -61 32 -94q33 -33 149 -85t162 -104t46 -152q0 -99 -50 -179t-163 -146q100 -78 101 -194q0 -170 -104 -269t-262 -99
q-304 -1 -304 224q0 53 14 121h129q-8 -49 -8 -82z" />
    <glyph glyph-name="dieresis" unicode="&#xa8;" horiz-adv-x="1024" 
d="M709 1208l34 205h129l-36 -205h-127zM432 1208l37 205h127l-35 -205h-129z" />
    <glyph glyph-name="copyright" unicode="&#xa9;" horiz-adv-x="1505" 
d="M753 80q251 0 411 183t161 467t-159 468t-412 184t-413 -181t-161 -469t161 -470t412 -182zM755 1487q301 0 495 -214t194 -543t-195 -542t-497 -213t-496 212q-195 212 -195 545t196 544t498 211zM545 674v114q0 162 49 233q48 71 154 71t154 -48t50 -149h-102
q-12 104 -88 104q-55 0 -79 -46t-24 -156v-133q0 -109 24 -155t75 -46q50 -1 72 23t28 81h105q-2 -92 -37 -131q-55 -66 -169 -66t-163 72q-49 70 -49 232z" />
    <glyph glyph-name="ordfeminine" unicode="&#xaa;" horiz-adv-x="475" 
d="M348 1118q-127 0 -127 -160q0 -59 66 -59q90 0 108 111l21 108h-68zM440 1327q0 59 -63 59q-35 0 -54 -16t-34 -61h-96q33 166 199 166t165 -132q0 -49 -14 -120l-70 -398h-94l4 41q-47 -53 -125 -53q-152 0 -152 137q0 246 234 246h80l10 53q10 61 10 78z" />
    <glyph glyph-name="guillemotleft" unicode="&#xab;" horiz-adv-x="624" 
d="M211 592l74 -256l-99 -47l-129 315l242 318l76 -72zM479 592l76 -256l-98 -47l-129 315l241 318l76 -72z" />
    <glyph glyph-name="logicalnot" unicode="&#xac;" 
d="M145 690l21 117h600l-84 -477h-137l63 360h-463z" />
    <glyph glyph-name="uni00AD" unicode="&#xad;" horiz-adv-x="634" 
d="M150 682l22 127h399l-22 -127h-399z" />
    <glyph glyph-name="registered" unicode="&#xae;" horiz-adv-x="1155" 
d="M576 1657q-192 0 -308 -133q-114 -133 -114 -338t114 -338t311 -133t311 135t114 339t-118 336t-310 132zM43 1187q1 247 153 407t384 159q232 0 383 -163q151 -162 151 -406t-152 -405t-382 -161q-231 0 -384 161t-153 408zM518 1204h78q70 0 70 93t-72 94h-76v-187z
M520 1137v-232h-100v561h182q164 0 164 -161q0 -131 -82 -158l94 -242h-106l-82 232h-70z" />
    <glyph glyph-name="macron" unicode="&#xaf;" horiz-adv-x="1024" 
d="M455 1270l18 108h383l-18 -108h-383z" />
    <glyph glyph-name="degree" unicode="&#xb0;" horiz-adv-x="571" 
d="M416 1071q72 0 112 47t39 132q-1 84 -39 132t-111 48t-113 -46t-40 -133q0 -86 40 -133t112 -47zM417 1526q127 0 201 -75t74 -202t-75 -201t-201 -73q-126 0 -202 74q-75 73 -75 201t75 202t203 74z" />
    <glyph glyph-name="plusminus" unicode="&#xb1;" 
d="M31 104l20 117h656l-21 -117h-655zM133 690l21 117h266l57 323h123l-57 -323h266l-21 -117h-266l-57 -328h-123l57 328h-266z" />
    <glyph glyph-name="twosuperior" unicode="&#xb2;" horiz-adv-x="575" 
d="M459 1577q-51 0 -79 -36t-46 -126h-111q19 137 77 199t167 63q186 0 186 -176q0 -106 -43 -183t-170 -228l-172 -201h275l-17 -98h-426l15 79l250 299q92 109 129 182q36 73 36 149t-71 77z" />
    <glyph glyph-name="threesuperior" unicode="&#xb3;" horiz-adv-x="575" 
d="M371 1298q75 0 117 50t42 141q0 90 -77 90q-51 0 -80 -35t-43 -114h-111q19 131 75 189t156 58q198 0 199 -178q0 -164 -121 -246q68 -53 68 -171t-60 -210t-198 -92q-100 0 -154 43q-53 43 -53 123q0 43 12 96h109q-8 -47 -8 -73q0 -90 92 -90q63 0 102 56t39 152
q0 119 -112 119h-70l16 92h60z" />
    <glyph glyph-name="acute" unicode="&#xb4;" horiz-adv-x="1024" 
d="M549 1192l158 287h163l-215 -287h-106z" />
    <glyph glyph-name="mu" unicode="&#xb5;" 
d="M254 229q0 -125 94 -125q78 0 125 78t78 252l104 588h138l-181 -1022h-96l4 111q-45 -72 -87 -102q-41 -29 -113 -29t-109 63l-88 -504h-139l262 1483h137l-111 -635q-18 -104 -18 -158z" />
    <glyph glyph-name="paragraph" unicode="&#xb6;" horiz-adv-x="921" 
d="M322 705q-215 0 -216 260q0 127 47 252q46 125 109 179t144 62q23 4 126 4h400l-307 -1741h-136l285 1620h-170l-287 -1620h-135l172 984h-32z" />
    <glyph glyph-name="periodcentered" unicode="&#xb7;" horiz-adv-x="391" 
d="M145 649l33 193h150l-33 -193h-150z" />
    <glyph glyph-name="cedilla" unicode="&#xb8;" horiz-adv-x="1024" 
d="M244 -449l123 304h143l-168 -304h-98z" />
    <glyph glyph-name="onesuperior" unicode="&#xb9;" horiz-adv-x="575" 
d="M289 791l131 745l-119 -57l-39 90l217 98h84l-155 -876h-119z" />
    <glyph glyph-name="ordmasculine" unicode="&#xba;" horiz-adv-x="491" 
d="M467 1305q0 78 -72 77q-84 0 -104 -131l-35 -194q-8 -41 -8 -72q0 -78 71 -78q85 0 105 127l35 197q8 39 8 74zM315 815q-182 0 -182 162q0 38 12 108l31 177q20 116 72 164t149 49q184 0 185 -164q0 -37 -13 -109l-32 -178q-17 -109 -71 -159t-151 -50z" />
    <glyph glyph-name="guillemotright" unicode="&#xbb;" horiz-adv-x="624" 
d="M446 616l-73 256l96 50l131 -318l-242 -315l-75 69zM178 616l-76 256l99 50l129 -318l-242 -315l-76 69z" />
    <glyph glyph-name="onequarter" unicode="&#xbc;" horiz-adv-x="1384" 
d="M326 0l563 1462h133l-565 -1462h-131zM993 0l29 160h-293l14 76l332 641h121l-319 -617h163l45 254h105l-47 -254h69l-18 -102h-68l-28 -158h-105zM254 586l131 745l-119 -57l-39 90l217 98h84l-155 -876h-119z" />
    <glyph glyph-name="onehalf" unicode="&#xbd;" horiz-adv-x="1384" 
d="M309 0l563 1462h134l-566 -1462h-131zM1153 710q0 77 -72 76q-51 0 -79 -36t-46 -125h-108q18 137 76 199t166 63q186 0 186 -176q0 -109 -53 -205q-29 -53 -160 -207l-170 -201h274l-16 -98h-426l12 80l252 299q90 109 127 181t37 150zM256 586l131 745l-119 -57l-39 90
l217 98h84l-155 -876h-119z" />
    <glyph glyph-name="threequarters" unicode="&#xbe;" horiz-adv-x="1384" 
d="M393 0l565 1462h134l-566 -1462h-133zM1020 0l29 160h-293l14 76l332 641h121l-320 -617h162l47 254h102l-45 -254h68l-16 -102h-68l-29 -158h-104zM338 1094q76 0 118 50t42 140t-78 90q-51 0 -79 -34t-44 -115h-111q20 131 76 189t156 58t149 -46t49 -132
q0 -164 -120 -245q68 -53 68 -174t-58 -205q-68 -94 -201 -95q-98 0 -152 43t-55 121q0 41 13 99h108q-8 -47 -8 -74q0 -90 92 -90q66 0 104 56t37 155q0 117 -112 116h-70l17 93h59z" />
    <glyph glyph-name="questiondown" unicode="&#xbf;" horiz-adv-x="792" 
d="M575 1022l-32 -193h-144l33 193h143zM127 -184q0 -147 133 -148q84 0 132 65t75 214h137q-25 -160 -69 -240q-90 -164 -283 -164q-133 0 -206 67t-73 189q0 203 99 355q29 45 170 194q104 111 127 232l10 59h117l-13 -78q-20 -113 -57 -183t-129 -172q-92 -101 -131 -186
t-39 -204z" />
    <glyph glyph-name="Agrave" unicode="&#xc0;" horiz-adv-x="839" 
d="M651 1620h-104l-117 287h152zM580 451l-27 790l-309 -790h336zM586 328h-389l-127 -328h-162l614 1462h129l105 -1462h-158z" />
    <glyph glyph-name="Aacute" unicode="&#xc1;" horiz-adv-x="839" 
d="M559 1620l158 287h164l-215 -287h-107zM580 451l-27 790l-309 -790h336zM586 328h-389l-127 -328h-162l614 1462h129l105 -1462h-158z" />
    <glyph glyph-name="Acircumflex" unicode="&#xc2;" horiz-adv-x="839" 
d="M633 1798l-115 -166h-145l225 264h96l131 -264h-135zM580 451l-27 790l-309 -790h336zM586 328h-389l-127 -328h-162l614 1462h129l105 -1462h-158z" />
    <glyph glyph-name="Atilde" unicode="&#xc3;" horiz-adv-x="839" 
d="M550 1876q58 0 103 -67t66 -66q35 0 65 117h88q-32 -123 -68 -172q-36 -50 -102 -50t-106 70q-23 39 -34 51t-25 13q-39 0 -70 -117h-88q33 117 73 169t98 52zM580 451l-27 790l-309 -790h336zM586 328h-389l-127 -328h-162l614 1462h129l105 -1462h-158z" />
    <glyph glyph-name="Adieresis" unicode="&#xc4;" horiz-adv-x="839" 
d="M682 1636l37 205h129l-37 -205h-129zM403 1636l37 205h127l-35 -205h-129zM580 451l-27 790l-309 -790h336zM586 328h-389l-127 -328h-162l614 1462h129l105 -1462h-158z" />
    <glyph glyph-name="Aring" unicode="&#xc5;" horiz-adv-x="839" 
d="M655 1931q-51 0 -82 -46t-31 -124t76 -78q49 1 80 47t31 124t-74 77zM444 1787q0 91 60 157t146 65q85 0 131 -46t46 -129t-56 -157q-57 -73 -147 -73t-135 46t-45 137zM580 451l-27 790l-309 -790h336zM586 328h-389l-127 -328h-162l614 1462h129l105 -1462h-158z" />
    <glyph glyph-name="AE" unicode="&#xc6;" horiz-adv-x="1316" 
d="M647 465l154 870h-17l-493 -870h356zM625 342h-404l-192 -342h-172l860 1462h690l-23 -127h-438l-94 -532h373l-23 -127h-371l-98 -549h441l-23 -127h-586z" />
    <glyph glyph-name="Ccedilla" unicode="&#xc7;" horiz-adv-x="882" 
d="M150 -449l122 304h144l-168 -304h-98zM379 -18q-139 0 -213 72t-74 206q0 80 21 195l106 604q39 223 119 311q96 109 248 109t228 -69q77 -69 77 -193q0 -57 -17 -142h-135q8 74 9 115q0 164 -148 164q-100 0 -154 -74t-84 -254l-104 -592q-18 -113 -18 -162
q0 -168 147 -168q102 0 160 72q57 72 86 236h141q-27 -166 -80 -256q-106 -174 -315 -174z" />
    <glyph glyph-name="Egrave" unicode="&#xc8;" horiz-adv-x="808" 
d="M709 1620h-105l-117 287h152zM55 0l258 1462h584l-23 -127h-434l-94 -532h369l-21 -127h-370l-97 -549h439l-23 -127h-588z" />
    <glyph glyph-name="Eacute" unicode="&#xc9;" horiz-adv-x="808" 
d="M543 1620l157 287h164l-215 -287h-106zM55 0l258 1462h584l-23 -127h-434l-94 -532h369l-21 -127h-370l-97 -549h439l-23 -127h-588z" />
    <glyph glyph-name="Ecircumflex" unicode="&#xca;" horiz-adv-x="808" 
d="M659 1798l-114 -166h-146l226 264h96l131 -264h-135zM55 0l258 1462h584l-23 -127h-434l-94 -532h369l-21 -127h-370l-97 -549h439l-23 -127h-588z" />
    <glyph glyph-name="Edieresis" unicode="&#xcb;" horiz-adv-x="808" 
d="M700 1636l37 205h129l-37 -205h-129zM422 1636l37 205h127l-35 -205h-129zM55 0l258 1462h584l-23 -127h-434l-94 -532h369l-21 -127h-370l-97 -549h439l-23 -127h-588z" />
    <glyph glyph-name="Igrave" unicode="&#xcc;" horiz-adv-x="436" 
d="M487 1620h-104l-117 287h152zM53 0l258 1462h150l-258 -1462h-150z" />
    <glyph glyph-name="Iacute" unicode="&#xcd;" horiz-adv-x="436" 
d="M336 1620l158 287h163l-215 -287h-106zM53 0l258 1462h150l-258 -1462h-150z" />
    <glyph glyph-name="Icircumflex" unicode="&#xce;" horiz-adv-x="436" 
d="M449 1798l-115 -166h-146l226 264h96l131 -264h-135zM53 0l258 1462h150l-258 -1462h-150z" />
    <glyph glyph-name="Idieresis" unicode="&#xcf;" horiz-adv-x="436" 
d="M492 1636l34 205h129l-34 -205h-129zM211 1636l37 205h129l-37 -205h-129zM53 0l258 1462h150l-258 -1462h-150z" />
    <glyph glyph-name="Eth" unicode="&#xd0;" horiz-adv-x="946" 
d="M780 1169q0 168 -182 168h-160l-94 -534h201l-23 -123h-200l-99 -555h160q121 -2 185 70t96 241l102 590q14 82 14 143zM594 1462q172 0 246 -61q92 -74 92 -221q0 -61 -17 -154l-112 -641q-61 -393 -420 -385h-330l119 680h-109l23 123h109l116 659h283z" />
    <glyph glyph-name="Ntilde" unicode="&#xd1;" horiz-adv-x="1005" 
d="M638 1876q58 0 103 -67t66 -66q35 0 65 117h89q-31 -123 -68 -172q-37 -50 -103 -50t-106 70q-23 39 -34 51t-25 13q-39 0 -70 -117h-88q33 117 73 169t98 52zM53 0l258 1462h148l227 -1143l201 1143h141l-258 -1462h-141l-232 1149l-202 -1149h-142z" />
    <glyph glyph-name="Ograve" unicode="&#xd2;" horiz-adv-x="944" 
d="M752 1620h-105l-117 287h152zM782 1201q0 63 -45 109t-138 46t-149 -73t-90 -251l-106 -602q-16 -98 -16 -164t45 -113t139 -47t150 73t87 251l107 602q16 106 16 169zM614 1481q315 0 316 -293q0 -70 -17 -168l-112 -633q-35 -203 -113 -293q-100 -113 -282 -112
q-315 0 -316 292q1 70 19 168l110 633q23 119 46 179q91 227 349 227z" />
    <glyph glyph-name="Oacute" unicode="&#xd3;" horiz-adv-x="944" 
d="M584 1620l157 287h164l-215 -287h-106zM782 1201q0 63 -45 109t-138 46t-149 -73t-90 -251l-106 -602q-16 -98 -16 -164t45 -113t139 -47t150 73t87 251l107 602q16 106 16 169zM614 1481q315 0 316 -293q0 -70 -17 -168l-112 -633q-35 -203 -113 -293
q-100 -113 -282 -112q-315 0 -316 292q1 70 19 168l110 633q23 119 46 179q91 227 349 227z" />
    <glyph glyph-name="Ocircumflex" unicode="&#xd4;" horiz-adv-x="944" 
d="M694 1798l-114 -166h-146l225 264h97l131 -264h-135zM782 1201q0 63 -45 109t-138 46t-149 -73t-90 -251l-106 -602q-16 -98 -16 -164t45 -113t139 -47t150 73t87 251l107 602q16 106 16 169zM614 1481q315 0 316 -293q0 -70 -17 -168l-112 -633q-35 -203 -113 -293
q-100 -113 -282 -112q-315 0 -316 292q1 70 19 168l110 633q23 119 46 179q91 227 349 227z" />
    <glyph glyph-name="Otilde" unicode="&#xd5;" horiz-adv-x="944" 
d="M615 1876q58 0 104 -66q45 -68 65 -67q35 0 66 117h88q-31 -123 -68 -172q-36 -50 -102 -50t-106 70q-23 39 -34 51t-26 13q-39 0 -70 -117h-88q33 117 73 169t98 52zM782 1201q0 63 -45 109t-138 46t-149 -73t-90 -251l-106 -602q-16 -98 -16 -164t45 -113t139 -47
t150 73t87 251l107 602q16 106 16 169zM614 1481q315 0 316 -293q0 -70 -17 -168l-112 -633q-35 -203 -113 -293q-100 -113 -282 -112q-315 0 -316 292q1 70 19 168l110 633q23 119 46 179q91 227 349 227z" />
    <glyph glyph-name="Odieresis" unicode="&#xd6;" horiz-adv-x="944" 
d="M743 1636l37 205h129l-37 -205h-129zM465 1636l37 205h127l-35 -205h-129zM782 1201q0 63 -45 109t-138 46t-149 -73t-90 -251l-106 -602q-16 -98 -16 -164t45 -113t139 -47t150 73t87 251l107 602q16 106 16 169zM614 1481q315 0 316 -293q0 -70 -17 -168l-112 -633
q-35 -203 -113 -293q-100 -113 -282 -112q-315 0 -316 292q1 70 19 168l110 633q23 119 46 179q91 227 349 227z" />
    <glyph glyph-name="multiply" unicode="&#xd7;" 
d="M399 748l-217 262l97 82l217 -263l309 263l67 -82l-309 -262l217 -265l-96 -80l-217 263l-309 -263l-68 80z" />
    <glyph glyph-name="Oslash" unicode="&#xd8;" horiz-adv-x="944" 
d="M252 418l518 837q-36 101 -150 101t-170 -73t-90 -251zM766 1034l-514 -831q36 -97 150 -97t170 73t87 251l107 602v2zM930 1180q0 -62 -17 -160l-112 -633q-20 -115 -44 -176t-69 -117q-98 -112 -271 -112t-253 79l-58 -92l-98 56l94 149q-12 50 -12 112t19 156l110 633
q23 119 46 179q91 227 349 227q164 0 244 -82l55 88l99 -55l-92 -150q10 -40 10 -102z" />
    <glyph glyph-name="Ugrave" unicode="&#xd9;" horiz-adv-x="962" 
d="M762 1620h-105l-116 287h151zM254 260q0 -154 160 -154q127 0 188 107q29 51 55 184l187 1065h149l-192 -1091q-23 -121 -41 -172t-58 -99q-102 -119 -288 -118q-307 0 -308 262q0 74 21 182l182 1036h150l-189 -1065q-16 -94 -16 -137z" />
    <glyph glyph-name="Uacute" unicode="&#xda;" horiz-adv-x="962" 
d="M596 1620l158 287h164l-216 -287h-106zM254 260q0 -154 160 -154q127 0 188 107q29 51 55 184l187 1065h149l-192 -1091q-23 -121 -41 -172t-58 -99q-102 -119 -288 -118q-307 0 -308 262q0 74 21 182l182 1036h150l-189 -1065q-16 -94 -16 -137z" />
    <glyph glyph-name="Ucircumflex" unicode="&#xdb;" horiz-adv-x="962" 
d="M711 1798l-115 -166h-145l225 264h96l131 -264h-135zM254 260q0 -154 160 -154q127 0 188 107q29 51 55 184l187 1065h149l-192 -1091q-23 -121 -41 -172t-58 -99q-102 -119 -288 -118q-307 0 -308 262q0 74 21 182l182 1036h150l-189 -1065q-16 -94 -16 -137z" />
    <glyph glyph-name="Udieresis" unicode="&#xdc;" horiz-adv-x="962" 
d="M754 1636l37 205h129l-37 -205h-129zM475 1636l37 205h127l-35 -205h-129zM254 260q0 -154 160 -154q127 0 188 107q29 51 55 184l187 1065h149l-192 -1091q-23 -121 -41 -172t-58 -99q-102 -119 -288 -118q-307 0 -308 262q0 74 21 182l182 1036h150l-189 -1065
q-16 -94 -16 -137z" />
    <glyph glyph-name="Yacute" unicode="&#xdd;" horiz-adv-x="772" 
d="M516 1620l158 287h164l-215 -287h-107zM223 0l94 537l-149 925h154l102 -733l360 733h160l-477 -925l-94 -537h-150z" />
    <glyph glyph-name="Thorn" unicode="&#xde;" horiz-adv-x="854" 
d="M401 465q84 0 134 25q49 26 83 88q82 139 82 323q0 109 -41 154t-141 45h-123l-112 -635h118zM516 1225q172 0 254 -73t82 -239q0 -250 -115 -421q-53 -82 -130 -117t-199 -35h-144l-59 -340h-150l258 1462h150l-43 -237h96z" />
    <glyph glyph-name="germandbls" unicode="&#xdf;" horiz-adv-x="806" 
d="M530 1479q124 1 187 -61t63 -166t-34 -196q-34 -91 -87 -145q72 -57 72 -202q0 -66 -16 -154l-27 -152q-34 -221 -104 -311t-207 -92h-84l20 121h47q82 0 119 59t70 242l26 151q35 194 -5 238q-22 25 -81 25h-22l18 110h23q55 0 94 88q39 98 39 212t-104 114
q-66 0 -103 -50t-59 -167l-201 -1143h-143l207 1169q29 164 98 237q70 73 194 73z" />
    <glyph glyph-name="agrave" unicode="&#xe0;" horiz-adv-x="763" 
d="M586 1192h-105l-116 287h151zM381 485q-119 -1 -172 -71t-53 -203q0 -57 30 -84t107 -27q76 0 115 44t59 167l31 174h-117zM428 926q-64 0 -104 -49t-60 -162h-133q29 176 102 254q74 78 211 78q242 0 242 -236q0 -66 -18 -172l-113 -639h-113l-2 43q-59 -61 -184 -61
q-246 0 -246 206q0 86 25 172t61 136q84 104 271 104h151l14 76q31 173 -14 221q-26 29 -90 29z" />
    <glyph glyph-name="aacute" unicode="&#xe1;" horiz-adv-x="763" 
d="M426 1192l158 287h164l-216 -287h-106zM381 485q-119 -1 -172 -71t-53 -203q0 -57 30 -84t107 -27q76 0 115 44t59 167l31 174h-117zM428 926q-64 0 -104 -49t-60 -162h-133q29 176 102 254q74 78 211 78q242 0 242 -236q0 -66 -18 -172l-113 -639h-113l-2 43
q-59 -61 -184 -61q-246 0 -246 206q0 86 25 172t61 136q84 104 271 104h151l14 76q31 173 -14 221q-26 29 -90 29z" />
    <glyph glyph-name="acircumflex" unicode="&#xe2;" horiz-adv-x="763" 
d="M532 1370l-114 -168h-146l226 266h96l131 -266h-135zM381 485q-119 -1 -172 -71t-53 -203q0 -57 30 -84t107 -27q76 0 115 44t59 167l31 174h-117zM428 926q-64 0 -104 -49t-60 -162h-133q29 176 102 254q74 78 211 78q242 0 242 -236q0 -66 -18 -172l-113 -639h-113
l-2 43q-59 -61 -184 -61q-246 0 -246 206q0 86 25 172t61 136q84 104 271 104h151l14 76q31 173 -14 221q-26 29 -90 29z" />
    <glyph glyph-name="atilde" unicode="&#xe3;" horiz-adv-x="763" 
d="M446 1446q60 0 104 -66t64 -65q35 0 66 117h88q-31 -123 -68 -172q-38 -50 -102 -50t-106 68q-25 41 -35 52t-25 11q-39 1 -70 -114h-88q33 117 73 168t99 51zM381 485q-119 -1 -172 -71t-53 -203q0 -57 30 -84t107 -27q76 0 115 44t59 167l31 174h-117zM428 926
q-64 0 -104 -49t-60 -162h-133q29 176 102 254q74 78 211 78q242 0 242 -236q0 -66 -18 -172l-113 -639h-113l-2 43q-59 -61 -184 -61q-246 0 -246 206q0 86 25 172t61 136q84 104 271 104h151l14 76q31 173 -14 221q-26 29 -90 29z" />
    <glyph glyph-name="adieresis" unicode="&#xe4;" horiz-adv-x="763" 
d="M584 1208l34 205h130l-37 -205h-127zM307 1208l37 205h127l-35 -205h-129zM381 485q-119 -1 -172 -71t-53 -203q0 -57 30 -84t107 -27q76 0 115 44t59 167l31 174h-117zM428 926q-64 0 -104 -49t-60 -162h-133q29 176 102 254q74 78 211 78q242 0 242 -236
q0 -66 -18 -172l-113 -639h-113l-2 43q-59 -61 -184 -61q-246 0 -246 206q0 86 25 172t61 136q84 104 271 104h151l14 76q31 173 -14 221q-26 29 -90 29z" />
    <glyph glyph-name="aring" unicode="&#xe5;" horiz-adv-x="763" 
d="M629 1423q0 78 -74 78q-51 0 -82 -46t-31 -124t76 -78q49 0 80 46t31 124zM550 1581q85 0 131 -46t46 -129t-56 -157q-57 -73 -147 -73t-135 46t-45 137t60 157q61 65 146 65zM381 485q-119 -1 -172 -71t-53 -203q0 -57 30 -84t107 -27q76 0 115 44t59 167l31 174h-117z
M428 926q-64 0 -104 -49t-60 -162h-133q29 176 102 254q74 78 211 78q242 0 242 -236q0 -66 -18 -172l-113 -639h-113l-2 43q-59 -61 -184 -61q-246 0 -246 206q0 86 25 172t61 136q84 104 271 104h151l14 76q31 173 -14 221q-26 29 -90 29z" />
    <glyph glyph-name="ae" unicode="&#xe6;" horiz-adv-x="1181" 
d="M870 928q-80 0 -122 -56t-68 -194l-14 -74h299q25 139 24 193q0 131 -119 131zM381 487q-223 0 -223 -276q0 -57 30 -84t107 -27q76 0 114 44t58 167l33 176h-119zM438 1047q154 0 209 -107q88 106 232 107q246 0 245 -248q0 -82 -43 -312h-440l-23 -129
q-14 -88 -14 -120q0 -135 119 -136q80 0 125 52t65 170h134q-20 -154 -70 -226q-80 -116 -245 -116t-222 110q-90 -111 -254 -110q-246 0 -246 202q0 86 25 173t61 139q82 109 271 108h153l12 72q12 68 13 127q0 123 -109 123q-72 0 -112 -49t-60 -162h-133q25 150 74 219
q79 113 233 113z" />
    <glyph glyph-name="ccedilla" unicode="&#xe7;" horiz-adv-x="733" 
d="M84 -449l123 304h143l-168 -304h-98zM696 813q0 -39 -10 -106h-131q6 68 6 90q0 131 -106 131q-72 0 -114 -62t-67 -204l-53 -295q-12 -82 -12 -136q0 -129 104 -129q75 0 119 54t64 178h133q-27 -174 -74 -240q-80 -113 -248 -112q-240 0 -239 243q0 82 18 181l47 272
q33 190 98 272q81 98 211 98t192 -60q62 -62 62 -175z" />
    <glyph glyph-name="egrave" unicode="&#xe8;" horiz-adv-x="778" 
d="M598 1192h-104l-117 287h151zM586 797q0 131 -119 131q-82 0 -124 -56t-67 -194l-14 -74h299q25 137 25 193zM209 231q0 -129 117 -129q78 0 120 52t64 170h133q-20 -154 -72 -228q-80 -115 -254 -114q-250 0 -249 254q0 68 18 176l45 254q35 201 102 280q82 100 236 101
q252 0 252 -248q0 -80 -43 -312h-436l-23 -131q-10 -72 -10 -125z" />
    <glyph glyph-name="eacute" unicode="&#xe9;" horiz-adv-x="778" 
d="M430 1192l158 287h164l-215 -287h-107zM586 797q0 131 -119 131q-82 0 -124 -56t-67 -194l-14 -74h299q25 137 25 193zM209 231q0 -129 117 -129q78 0 120 52t64 170h133q-20 -154 -72 -228q-80 -115 -254 -114q-250 0 -249 254q0 68 18 176l45 254q35 201 102 280
q82 100 236 101q252 0 252 -248q0 -80 -43 -312h-436l-23 -131q-10 -72 -10 -125z" />
    <glyph glyph-name="ecircumflex" unicode="&#xea;" horiz-adv-x="778" 
d="M549 1370l-115 -168h-145l225 266h96l131 -266h-135zM586 797q0 131 -119 131q-82 0 -124 -56t-67 -194l-14 -74h299q25 137 25 193zM209 231q0 -129 117 -129q78 0 120 52t64 170h133q-20 -154 -72 -228q-80 -115 -254 -114q-250 0 -249 254q0 68 18 176l45 254
q35 201 102 280q82 100 236 101q252 0 252 -248q0 -80 -43 -312h-436l-23 -131q-10 -72 -10 -125z" />
    <glyph glyph-name="edieresis" unicode="&#xeb;" horiz-adv-x="778" 
d="M594 1208l35 205h129l-37 -205h-127zM317 1208l37 205h127l-35 -205h-129zM586 797q0 131 -119 131q-82 0 -124 -56t-67 -194l-14 -74h299q25 137 25 193zM209 231q0 -129 117 -129q78 0 120 52t64 170h133q-20 -154 -72 -228q-80 -115 -254 -114q-250 0 -249 254
q0 68 18 176l45 254q35 201 102 280q82 100 236 101q252 0 252 -248q0 -80 -43 -312h-436l-23 -131q-10 -72 -10 -125z" />
    <glyph glyph-name="igrave" unicode="&#xec;" horiz-adv-x="393" 
d="M395 1192h-104l-117 287h152zM35 0l182 1028h141l-180 -1028h-143z" />
    <glyph glyph-name="iacute" unicode="&#xed;" horiz-adv-x="393" 
d="M242 1192l157 287h164l-215 -287h-106zM35 0l182 1028h141l-180 -1028h-143z" />
    <glyph glyph-name="icircumflex" unicode="&#xee;" horiz-adv-x="393" 
d="M352 1370l-114 -168h-146l225 266h97l131 -266h-135zM35 0l182 1028h141l-180 -1028h-143z" />
    <glyph glyph-name="idieresis" unicode="&#xef;" horiz-adv-x="393" 
d="M393 1208l37 205h127l-35 -205h-129zM117 1208l37 205h129l-37 -205h-129zM35 0l182 1028h141l-180 -1028h-143z" />
    <glyph glyph-name="eth" unicode="&#xf0;" horiz-adv-x="796" 
d="M465 913q-80 0 -123 -58t-70 -202l-51 -291q-12 -72 -12 -126q0 -133 121 -134q82 0 124 58t68 202l51 291q12 70 13 125q0 135 -121 135zM449 1034q88 0 141 -37q-4 59 -17 127q-12 68 -24 88l-154 -79l-37 73l140 74q-11 9 -31 37q-45 49 -102 63l34 103
q74 -12 119 -40t103 -93l135 69l39 -73l-121 -60q63 -122 63 -318t-28 -360l-47 -270q-33 -182 -97 -260q-88 -96 -233 -96q-266 0 -266 241q0 56 16 160l53 295q33 186 105 271t209 85z" />
    <glyph glyph-name="ntilde" unicode="&#xf1;" horiz-adv-x="808" 
d="M469 1446q59 0 103 -66t65 -65q35 0 65 117h89q-31 -123 -68 -172q-37 -50 -101 -50t-108 68q-25 41 -35 52t-24 11q-39 1 -70 -114h-88q33 117 73 168t99 51zM739 851q0 -87 -20 -210l-115 -641h-141l115 653q16 96 16 140q0 129 -105 129q-84 0 -132 -73t-76 -243
l-107 -606h-143l182 1028h109l-3 -67q49 49 95 67t130 18q86 0 140 -54t55 -141z" />
    <glyph glyph-name="ograve" unicode="&#xf2;" horiz-adv-x="796" 
d="M602 1192h-104l-117 287h151zM471 926q-82 0 -127 -58t-70 -198l-55 -312q-12 -78 -12 -122q0 -133 117 -134q82 0 126 58t70 198l55 312q14 80 15 123q0 133 -119 133zM731 801q0 -61 -20 -172l-49 -285q-33 -186 -101 -266q-88 -96 -237 -96q-258 0 -258 245
q0 68 18 172l49 285q37 193 103 266q86 96 237 97q258 0 258 -246z" />
    <glyph glyph-name="oacute" unicode="&#xf3;" horiz-adv-x="796" 
d="M436 1192l158 287h164l-215 -287h-107zM471 926q-82 0 -127 -58t-70 -198l-55 -312q-12 -78 -12 -122q0 -133 117 -134q82 0 126 58t70 198l55 312q14 80 15 123q0 133 -119 133zM731 801q0 -61 -20 -172l-49 -285q-33 -186 -101 -266q-88 -96 -237 -96q-258 0 -258 245
q0 68 18 172l49 285q37 193 103 266q86 96 237 97q258 0 258 -246z" />
    <glyph glyph-name="ocircumflex" unicode="&#xf4;" horiz-adv-x="796" 
d="M553 1370l-115 -168h-145l225 266h96l131 -266h-135zM471 926q-82 0 -127 -58t-70 -198l-55 -312q-12 -78 -12 -122q0 -133 117 -134q82 0 126 58t70 198l55 312q14 80 15 123q0 133 -119 133zM731 801q0 -61 -20 -172l-49 -285q-33 -186 -101 -266q-88 -96 -237 -96
q-258 0 -258 245q0 68 18 172l49 285q37 193 103 266q86 96 237 97q258 0 258 -246z" />
    <glyph glyph-name="otilde" unicode="&#xf5;" horiz-adv-x="796" 
d="M467 1446q59 0 103 -66t65 -65q35 0 65 117h88q-32 -123 -68 -172q-36 -50 -100 -50t-108 68q-25 41 -35 52t-24 11q-39 1 -70 -114h-88q33 117 73 168t99 51zM471 926q-82 0 -127 -58t-70 -198l-55 -312q-12 -78 -12 -122q0 -133 117 -134q82 0 126 58t70 198l55 312
q14 80 15 123q0 133 -119 133zM731 801q0 -61 -20 -172l-49 -285q-33 -186 -101 -266q-88 -96 -237 -96q-258 0 -258 245q0 68 18 172l49 285q37 193 103 266q86 96 237 97q258 0 258 -246z" />
    <glyph glyph-name="odieresis" unicode="&#xf6;" horiz-adv-x="796" 
d="M596 1208l35 205h129l-37 -205h-127zM319 1208l37 205h127l-34 -205h-130zM471 926q-82 0 -127 -58t-70 -198l-55 -312q-12 -78 -12 -122q0 -133 117 -134q82 0 126 58t70 198l55 312q14 80 15 123q0 133 -119 133zM731 801q0 -61 -20 -172l-49 -285q-33 -186 -101 -266
q-88 -96 -237 -96q-258 0 -258 245q0 68 18 172l49 285q37 193 103 266q86 96 237 97q258 0 258 -246z" />
    <glyph glyph-name="divide" unicode="&#xf7;" 
d="M442 958l31 177h131l-31 -177h-131zM338 360l31 177h131l-31 -177h-131zM133 690l21 117h655l-21 -117h-655z" />
    <glyph glyph-name="oslash" unicode="&#xf8;" horiz-adv-x="796" 
d="M213 313l365 551q-29 62 -109 62t-125 -58t-70 -198l-55 -312q-6 -41 -6 -45zM582 707l-361 -545q27 -60 106 -60t124 58t69 198l55 312q1 4 3 14t4 23zM731 805q0 -55 -20 -176l-49 -285q-33 -188 -103 -266q-84 -96 -221 -96t-201 55l-47 -72l-76 49l68 103
q-16 49 -16 115t18 167l49 285q35 190 103 266q84 96 221 96t202 -55l46 68l77 -49l-67 -101q16 -49 16 -104z" />
    <glyph glyph-name="ugrave" unicode="&#xf9;" horiz-adv-x="790" 
d="M600 1192h-104l-117 287h151zM215 229q0 -123 96 -123q78 0 124 74t75 242l108 606h142l-180 -1028h-109l4 80q-47 -55 -91 -77q-44 -21 -126 -21t-135 54t-53 140t22 211l113 641h143l-115 -651q-18 -96 -18 -148z" />
    <glyph glyph-name="uacute" unicode="&#xfa;" horiz-adv-x="790" 
d="M432 1192l158 287h164l-215 -287h-107zM215 229q0 -123 96 -123q78 0 124 74t75 242l108 606h142l-180 -1028h-109l4 80q-47 -55 -91 -77q-44 -21 -126 -21t-135 54t-53 140t22 211l113 641h143l-115 -651q-18 -96 -18 -148z" />
    <glyph glyph-name="ucircumflex" unicode="&#xfb;" horiz-adv-x="790" 
d="M551 1370l-115 -168h-145l225 266h96l131 -266h-135zM215 229q0 -123 96 -123q78 0 124 74t75 242l108 606h142l-180 -1028h-109l4 80q-47 -55 -91 -77q-44 -21 -126 -21t-135 54t-53 140t22 211l113 641h143l-115 -651q-18 -96 -18 -148z" />
    <glyph glyph-name="udieresis" unicode="&#xfc;" horiz-adv-x="790" 
d="M592 1208l35 205h129l-37 -205h-127zM315 1208l37 205h127l-35 -205h-129zM215 229q0 -123 96 -123q78 0 124 74t75 242l108 606h142l-180 -1028h-109l4 80q-47 -55 -91 -77q-44 -21 -126 -21t-135 54t-53 140t22 211l113 641h143l-115 -651q-18 -96 -18 -148z" />
    <glyph glyph-name="yacute" unicode="&#xfd;" horiz-adv-x="704" 
d="M399 1192l158 287h164l-215 -287h-107zM190 -10l-63 1038h139l31 -846l309 846h146l-476 -1210q-72 -174 -142 -231q-71 -56 -222 -58l22 123q82 0 118 32t83 148z" />
    <glyph glyph-name="thorn" unicode="&#xfe;" horiz-adv-x="802" 
d="M596 778q0 143 -107 144q-154 0 -210 -328l-29 -160q-16 -88 -17 -149q0 -178 113 -179q141 1 186 265l54 303q10 55 10 104zM518 1047q221 0 221 -242q0 -74 -16 -166l-49 -281q-35 -200 -109 -288t-203 -88q-61 0 -98 14t-82 55l-90 -512h-143l340 1923h141l-84 -483
q66 68 172 68z" />
    <glyph glyph-name="ydieresis" unicode="&#xff;" horiz-adv-x="704" 
d="M545 1208l35 205h129l-37 -205h-127zM268 1208l37 205h127l-35 -205h-129zM190 -10l-63 1038h139l31 -846l309 846h146l-476 -1210q-72 -174 -142 -231q-71 -56 -222 -58l22 123q82 0 118 32t83 148z" />
    <glyph glyph-name="Amacron" unicode="&#x100;" horiz-adv-x="839" 
d="M426 1700l18 108h383l-18 -108h-383zM580 451l-27 790l-309 -790h336zM586 328h-389l-127 -328h-162l614 1462h129l105 -1462h-158z" />
    <glyph glyph-name="amacron" unicode="&#x101;" horiz-adv-x="763" 
d="M307 1270l19 108h383l-19 -108h-383zM381 485q-119 -1 -172 -71t-53 -203q0 -57 30 -84t107 -27q76 0 115 44t59 167l31 174h-117zM428 926q-64 0 -104 -49t-60 -162h-133q29 176 102 254q74 78 211 78q242 0 242 -236q0 -66 -18 -172l-113 -639h-113l-2 43
q-59 -61 -184 -61q-246 0 -246 206q0 86 25 172t61 136q84 104 271 104h151l14 76q31 173 -14 221q-26 29 -90 29z" />
    <glyph glyph-name="Abreve" unicode="&#x102;" horiz-adv-x="839" 
d="M614 1616q-186 0 -186 149q0 43 12 121h97q-6 -53 -7 -71q0 -90 86 -91q57 0 89 36q31 36 53 126h98q-18 -121 -43 -164q-55 -106 -199 -106zM580 451l-27 790l-309 -790h336zM586 328h-389l-127 -328h-162l614 1462h129l105 -1462h-158z" />
    <glyph glyph-name="abreve" unicode="&#x103;" horiz-adv-x="763" 
d="M430 1386q0 -90 86 -90q57 0 88 36t53 126h99q-18 -121 -43 -164q-55 -106 -199 -106q-186 0 -186 149q0 39 12 121h96q-6 -53 -6 -72zM381 485q-119 -1 -172 -71t-53 -203q0 -57 30 -84t107 -27q76 0 115 44t59 167l31 174h-117zM428 926q-64 0 -104 -49t-60 -162h-133
q29 176 102 254q74 78 211 78q242 0 242 -236q0 -66 -18 -172l-113 -639h-113l-2 43q-59 -61 -184 -61q-246 0 -246 206q0 86 25 172t61 136q84 104 271 104h151l14 76q31 173 -14 221q-26 29 -90 29z" />
    <glyph glyph-name="Aogonek" unicode="&#x104;" horiz-adv-x="839" 
d="M580 451l-27 790l-309 -790h336zM643 -295q35 0 86 16l2 -83q-61 -27 -135 -27q-156 0 -156 121q0 72 54 144t147 124h-43l-12 328h-389l-127 -328h-162l614 1462h129l105 -1462l-17 -12q-70 -55 -100 -90q-63 -74 -64 -142q0 -51 68 -51z" />
    <glyph glyph-name="aogonek" unicode="&#x105;" horiz-adv-x="763" 
d="M381 485q-119 -1 -172 -71t-53 -203q0 -57 30 -84t107 -27q76 0 115 44t59 167l31 174h-117zM375 -244q0 -51 67 -51q35 0 86 16l2 -83q-61 -27 -135 -27q-156 0 -155 121q0 72 54 144t148 126l-2 41q-59 -61 -184 -61q-246 0 -246 206q0 86 25 172t61 136
q84 104 271 104h151l14 76q31 173 -14 221q-26 29 -90 29t-104 -49t-60 -162h-133q29 176 102 254q74 78 211 78q242 0 242 -236q0 -66 -18 -172l-113 -639q-68 -51 -98 -82q-82 -86 -82 -162z" />
    <glyph glyph-name="Cacute" unicode="&#x106;" horiz-adv-x="882" 
d="M573 1620l158 287h164l-215 -287h-107zM379 -18q-139 0 -213 72t-74 206q0 80 21 195l106 604q39 223 119 311q96 109 248 109t228 -69q77 -69 77 -193q0 -57 -17 -142h-135q8 74 9 115q0 164 -148 164q-100 0 -154 -74t-84 -254l-104 -592q-18 -113 -18 -162
q0 -168 147 -168q102 0 160 72q57 72 86 236h141q-27 -166 -80 -256q-106 -174 -315 -174z" />
    <glyph glyph-name="cacute" unicode="&#x107;" horiz-adv-x="733" 
d="M428 1192l158 287h164l-215 -287h-107zM696 813q0 -39 -10 -106h-131q6 68 6 90q0 131 -106 131q-72 0 -114 -62t-67 -204l-53 -295q-12 -82 -12 -136q0 -129 104 -129q75 0 119 54t64 178h133q-27 -174 -74 -240q-80 -113 -248 -112q-240 0 -239 243q0 82 18 181l47 272
q33 190 98 272q81 98 211 98t192 -60q62 -62 62 -175z" />
    <glyph glyph-name="Ccircumflex" unicode="&#x108;" horiz-adv-x="882" 
d="M668 1798l-115 -166h-145l225 264h96l131 -264h-135zM379 -18q-139 0 -213 72t-74 206q0 80 21 195l106 604q39 223 119 311q96 109 248 109t228 -69q77 -69 77 -193q0 -57 -17 -142h-135q8 74 9 115q0 164 -148 164q-100 0 -154 -74t-84 -254l-104 -592
q-18 -113 -18 -162q0 -168 147 -168q102 0 160 72q57 72 86 236h141q-27 -166 -80 -256q-106 -174 -315 -174z" />
    <glyph glyph-name="ccircumflex" unicode="&#x109;" horiz-adv-x="733" 
d="M526 1370l-114 -168h-146l226 266h96l131 -266h-135zM696 813q0 -39 -10 -106h-131q6 68 6 90q0 131 -106 131q-72 0 -114 -62t-67 -204l-53 -295q-12 -82 -12 -136q0 -129 104 -129q75 0 119 54t64 178h133q-27 -174 -74 -240q-80 -113 -248 -112q-240 0 -239 243
q0 82 18 181l47 272q33 190 98 272q81 98 211 98t192 -60q62 -62 62 -175z" />
    <glyph glyph-name="Cdotaccent" unicode="&#x10a;" horiz-adv-x="882" 
d="M569 1634l37 207h137l-34 -207h-140zM379 -18q-139 0 -213 72t-74 206q0 80 21 195l106 604q39 223 119 311q96 109 248 109t228 -69q77 -69 77 -193q0 -57 -17 -142h-135q8 74 9 115q0 164 -148 164q-100 0 -154 -74t-84 -254l-104 -592q-18 -113 -18 -162
q0 -168 147 -168q102 0 160 72q57 72 86 236h141q-27 -166 -80 -256q-106 -174 -315 -174z" />
    <glyph glyph-name="cdotaccent" unicode="&#x10b;" horiz-adv-x="733" 
d="M426 1206l37 207h137l-35 -207h-139zM696 813q0 -39 -10 -106h-131q6 68 6 90q0 131 -106 131q-72 0 -114 -62t-67 -204l-53 -295q-12 -82 -12 -136q0 -129 104 -129q75 0 119 54t64 178h133q-27 -174 -74 -240q-80 -113 -248 -112q-240 0 -239 243q0 82 18 181l47 272
q33 190 98 272q81 98 211 98t192 -60q62 -62 62 -175z" />
    <glyph glyph-name="Ccaron" unicode="&#x10c;" horiz-adv-x="882" 
d="M647 1729l117 165h143l-223 -266h-98l-131 266h137zM379 -18q-139 0 -213 72t-74 206q0 80 21 195l106 604q39 223 119 311q96 109 248 109t228 -69q77 -69 77 -193q0 -57 -17 -142h-135q8 74 9 115q0 164 -148 164q-100 0 -154 -74t-84 -254l-104 -592
q-18 -113 -18 -162q0 -168 147 -168q102 0 160 72q57 72 86 236h141q-27 -166 -80 -256q-106 -174 -315 -174z" />
    <glyph glyph-name="ccaron" unicode="&#x10d;" horiz-adv-x="733" 
d="M514 1300l117 166h143l-223 -266h-98l-131 266h137zM696 813q0 -39 -10 -106h-131q6 68 6 90q0 131 -106 131q-72 0 -114 -62t-67 -204l-53 -295q-12 -82 -12 -136q0 -129 104 -129q75 0 119 54t64 178h133q-27 -174 -74 -240q-80 -113 -248 -112q-240 0 -239 243
q0 82 18 181l47 272q33 190 98 272q81 98 211 98t192 -60q62 -62 62 -175z" />
    <glyph glyph-name="Dcaron" unicode="&#x10e;" horiz-adv-x="946" 
d="M627 1729l116 165h144l-223 -266h-99l-131 266h137zM780 1169q0 168 -182 168h-160l-215 -1212h160q121 -2 185 70t96 241l102 590q14 76 14 143zM594 1462q172 0 246 -61q92 -74 92 -221q0 -61 -17 -156l-112 -641q-61 -391 -420 -383h-330l258 1462h283z" />
    <glyph glyph-name="dcaron" unicode="&#x10f;" horiz-adv-x="927" 
d="M877 1024l118 453h140l-158 -453h-100zM213 254q0 -147 106 -148q152 0 211 328l27 160q16 92 16 156q0 174 -116 174q-136 0 -181 -250l-51 -289q-12 -72 -12 -131zM485 0v68q-45 -50 -86 -68t-102 -18q-227 0 -227 251q0 72 18 181l49 280q33 186 106 270t195 83
q122 0 187 -74l86 489h143l-258 -1462h-111z" />
    <glyph glyph-name="Dcroat" unicode="&#x110;" horiz-adv-x="946" 
d="M780 1169q0 168 -182 168h-160l-94 -534h201l-23 -123h-200l-99 -555h160q121 -2 185 70t96 241l102 590q14 82 14 143zM594 1462q172 0 246 -61q92 -74 92 -221q0 -61 -17 -154l-112 -641q-61 -393 -420 -385h-330l119 680h-109l23 123h109l116 659h283z" />
    <glyph glyph-name="dcroat" unicode="&#x111;" horiz-adv-x="806" 
d="M213 254q0 -147 106 -148q152 0 211 328l27 160q16 92 16 156q0 174 -116 174q-136 0 -181 -250l-51 -289q-12 -72 -12 -131zM485 0v68q-45 -50 -86 -68t-102 -18q-227 0 -227 251q0 72 18 181l49 280q33 186 106 270t195 83q122 0 187 -74l34 203h-204l18 108h207
l31 178h143l-33 -178h103l-19 -108h-102l-207 -1176h-111z" />
    <glyph glyph-name="Emacron" unicode="&#x112;" horiz-adv-x="808" 
d="M449 1700l18 108h383l-19 -108h-382zM55 0l258 1462h584l-23 -127h-434l-94 -532h369l-21 -127h-370l-97 -549h439l-23 -127h-588z" />
    <glyph glyph-name="emacron" unicode="&#x113;" horiz-adv-x="778" 
d="M324 1270l18 108h383l-18 -108h-383zM586 797q0 131 -119 131q-82 0 -124 -56t-67 -194l-14 -74h299q25 137 25 193zM209 231q0 -129 117 -129q78 0 120 52t64 170h133q-20 -154 -72 -228q-80 -115 -254 -114q-250 0 -249 254q0 68 18 176l45 254q35 201 102 280
q82 100 236 101q252 0 252 -248q0 -80 -43 -312h-436l-23 -131q-10 -72 -10 -125z" />
    <glyph glyph-name="Ebreve" unicode="&#x114;" horiz-adv-x="808" 
d="M547 1815q0 -90 86 -91q57 0 88 36t53 126h98q-18 -121 -43 -164q-55 -106 -198 -106q-186 0 -187 149q1 43 13 121h96q-6 -53 -6 -71zM55 0l258 1462h584l-23 -127h-434l-94 -532h369l-21 -127h-370l-97 -549h439l-23 -127h-588z" />
    <glyph glyph-name="ebreve" unicode="&#x115;" horiz-adv-x="778" 
d="M432 1386q0 -90 86 -90q57 0 88 36t53 126h99q-18 -121 -43 -164q-55 -106 -199 -106q-186 0 -186 149q0 39 12 121h96q-6 -53 -6 -72zM586 797q0 131 -119 131q-82 0 -124 -56t-67 -194l-14 -74h299q25 137 25 193zM209 231q0 -129 117 -129q78 0 120 52t64 170h133
q-20 -154 -72 -228q-80 -115 -254 -114q-250 0 -249 254q0 68 18 176l45 254q35 201 102 280q82 100 236 101q252 0 252 -248q0 -80 -43 -312h-436l-23 -131q-10 -72 -10 -125z" />
    <glyph glyph-name="Edotaccent" unicode="&#x116;" horiz-adv-x="808" 
d="M561 1634l37 207h137l-35 -207h-139zM55 0l258 1462h584l-23 -127h-434l-94 -532h369l-21 -127h-370l-97 -549h439l-23 -127h-588z" />
    <glyph glyph-name="edotaccent" unicode="&#x117;" horiz-adv-x="778" 
d="M442 1206l37 207h137l-34 -207h-140zM586 797q0 131 -119 131q-82 0 -124 -56t-67 -194l-14 -74h299q25 137 25 193zM209 231q0 -129 117 -129q78 0 120 52t64 170h133q-20 -154 -72 -228q-80 -115 -254 -114q-250 0 -249 254q0 68 18 176l45 254q35 201 102 280
q82 100 236 101q252 0 252 -248q0 -80 -43 -312h-436l-23 -131q-10 -72 -10 -125z" />
    <glyph glyph-name="Eogonek" unicode="&#x118;" horiz-adv-x="808" 
d="M530 -295q35 0 84 16l2 -83q-59 -27 -133 -27q-156 0 -155 121q0 145 200 268h-473l258 1462h584l-23 -127h-434l-94 -532h369l-21 -127h-370l-97 -549h439l-23 -127l-16 -12l-9 -6q-156 -123 -155 -226q0 -51 67 -51z" />
    <glyph glyph-name="eogonek" unicode="&#x119;" horiz-adv-x="778" 
d="M586 797q0 131 -119 131q-82 0 -124 -56t-67 -194l-14 -74h299q25 137 25 193zM287 -244q0 -51 67 -51q35 0 86 16l2 -83q-61 -27 -135 -27q-156 0 -155 121q0 135 149 250q-233 12 -233 251q0 70 18 179l45 254q35 201 102 280q82 100 236 101q252 0 252 -248
q0 -80 -43 -312h-436l-23 -131q-10 -72 -10 -125q0 -129 117 -129q78 0 121 52t63 170h133q-18 -139 -61 -212t-129 -108q-166 -137 -166 -248z" />
    <glyph glyph-name="Ecaron" unicode="&#x11a;" horiz-adv-x="808" 
d="M643 1729l117 165h143l-223 -266h-98l-131 266h137zM55 0l258 1462h584l-23 -127h-434l-94 -532h369l-21 -127h-370l-97 -549h439l-23 -127h-588z" />
    <glyph glyph-name="ecaron" unicode="&#x11b;" horiz-adv-x="778" 
d="M522 1300l117 166h143l-223 -266h-98l-131 266h137zM586 797q0 131 -119 131q-82 0 -124 -56t-67 -194l-14 -74h299q25 137 25 193zM209 231q0 -129 117 -129q78 0 120 52t64 170h133q-20 -154 -72 -228q-80 -115 -254 -114q-250 0 -249 254q0 68 18 176l45 254
q35 201 102 280q82 100 236 101q252 0 252 -248q0 -80 -43 -312h-436l-23 -131q-10 -72 -10 -125z" />
    <glyph glyph-name="Gcircumflex" unicode="&#x11c;" horiz-adv-x="919" 
d="M674 1798l-115 -166h-145l225 264h96l131 -264h-135zM413 -18q-321 0 -321 284q0 76 21 191l106 602q23 125 49 193t72 118q98 109 252 109t233 -68q78 -68 78 -190q0 -51 -14 -146h-137q8 72 8 111q0 168 -154 168q-102 0 -157 -75t-87 -253l-104 -590
q-18 -102 -18 -155q0 -174 159 -175q104 0 168 78q63 78 92 244l37 213h-180l21 121h329l-59 -332q-37 -221 -119 -321q-109 -127 -275 -127z" />
    <glyph glyph-name="gcircumflex" unicode="&#x11d;" horiz-adv-x="806" 
d="M561 1370l-115 -168h-145l225 266h97l131 -266h-136zM211 252q0 -145 106 -146q152 0 211 328l27 160q18 104 18 154q0 174 -116 174q-138 0 -183 -248l-53 -299q-10 -57 -10 -123zM68 233q0 82 18 181l49 280q33 186 106 270t199 83q126 0 195 -80l29 61h110l-199 -1137
q-35 -199 -113 -283t-207 -85q-249 0 -251 186q0 47 12 117h129q-6 -57 -6 -76q0 -109 105 -108q80 0 122 58q41 59 68 202l25 145q-72 -66 -168 -65q-223 0 -223 251z" />
    <glyph glyph-name="Gbreve" unicode="&#x11e;" horiz-adv-x="919" 
d="M557 1815q0 -90 86 -91q57 0 88 36t53 126h99q-18 -121 -43 -164q-55 -106 -199 -106q-186 0 -186 149q0 43 12 121h96q-6 -53 -6 -71zM413 -18q-321 0 -321 284q0 76 21 191l106 602q23 125 49 193t72 118q98 109 252 109t233 -68q78 -68 78 -190q0 -51 -14 -146h-137
q8 72 8 111q0 168 -154 168q-102 0 -157 -75t-87 -253l-104 -590q-18 -102 -18 -155q0 -174 159 -175q104 0 168 78q63 78 92 244l37 213h-180l21 121h329l-59 -332q-37 -221 -119 -321q-109 -127 -275 -127z" />
    <glyph glyph-name="gbreve" unicode="&#x11f;" horiz-adv-x="806" 
d="M463 1386q0 -90 86 -90q57 0 88 36t53 126h98q-18 -121 -43 -164q-55 -106 -198 -106q-186 0 -187 149q1 39 13 121h96q-6 -53 -6 -72zM211 252q0 -145 106 -146q152 0 211 328l27 160q18 104 18 154q0 174 -116 174q-138 0 -183 -248l-53 -299q-10 -57 -10 -123zM68 233
q0 82 18 181l49 280q33 186 106 270t199 83q126 0 195 -80l29 61h110l-199 -1137q-35 -199 -113 -283t-207 -85q-249 0 -251 186q0 47 12 117h129q-6 -57 -6 -76q0 -109 105 -108q80 0 122 58q41 59 68 202l25 145q-72 -66 -168 -65q-223 0 -223 251z" />
    <glyph glyph-name="Gdotaccent" unicode="&#x120;" horiz-adv-x="919" 
d="M573 1634l37 207h138l-35 -207h-140zM413 -18q-321 0 -321 284q0 76 21 191l106 602q23 125 49 193t72 118q98 109 252 109t233 -68q78 -68 78 -190q0 -51 -14 -146h-137q8 72 8 111q0 168 -154 168q-102 0 -157 -75t-87 -253l-104 -590q-18 -102 -18 -155
q0 -174 159 -175q104 0 168 78q63 78 92 244l37 213h-180l21 121h329l-59 -332q-37 -221 -119 -321q-109 -127 -275 -127z" />
    <glyph glyph-name="gdotaccent" unicode="&#x121;" horiz-adv-x="806" 
d="M469 1206l37 207h137l-35 -207h-139zM211 252q0 -145 106 -146q152 0 211 328l27 160q18 104 18 154q0 174 -116 174q-138 0 -183 -248l-53 -299q-10 -57 -10 -123zM68 233q0 82 18 181l49 280q33 186 106 270t199 83q126 0 195 -80l29 61h110l-199 -1137
q-35 -199 -113 -283t-207 -85q-249 0 -251 186q0 47 12 117h129q-6 -57 -6 -76q0 -109 105 -108q80 0 122 58q41 59 68 202l25 145q-72 -66 -168 -65q-223 0 -223 251z" />
    <glyph glyph-name="Gcommaaccent" unicode="&#x122;" horiz-adv-x="919" 
d="M164 -449l123 304h143l-168 -304h-98zM413 -18q-321 0 -321 284q0 76 21 191l106 602q23 125 49 193t72 118q98 109 252 109t233 -68q78 -68 78 -190q0 -51 -14 -146h-137q8 72 8 111q0 168 -154 168q-102 0 -157 -75t-87 -253l-104 -590q-18 -102 -18 -155
q0 -174 159 -175q104 0 168 78q63 78 92 244l37 213h-180l21 121h329l-59 -332q-37 -221 -119 -321q-109 -127 -275 -127z" />
    <glyph glyph-name="gcommaaccent" unicode="&#x123;" horiz-adv-x="806" 
d="M455 1192l215 287h106l-158 -287h-163zM211 252q0 -145 106 -146q152 0 211 328l27 160q18 104 18 154q0 174 -116 174q-138 0 -183 -248l-53 -299q-10 -57 -10 -123zM68 233q0 82 18 181l49 280q33 186 106 270t199 83q126 0 195 -80l29 61h110l-199 -1137
q-35 -199 -113 -283t-207 -85q-249 0 -251 186q0 47 12 117h129q-6 -57 -6 -76q0 -109 105 -108q80 0 122 58q41 59 68 202l25 145q-72 -66 -168 -65q-223 0 -223 251z" />
    <glyph glyph-name="Hcircumflex" unicode="&#x124;" horiz-adv-x="952" 
d="M702 1798l-114 -166h-146l226 264h96l131 -264h-135zM53 0l258 1462h150l-117 -659h367l116 659h150l-258 -1462h-150l121 676h-368l-119 -676h-150z" />
    <glyph glyph-name="hcircumflex" unicode="&#x125;" horiz-adv-x="808" 
d="M459 1798l-115 -166h-145l225 264h96l131 -264h-135zM739 852q0 -84 -20 -211l-115 -641h-141l115 653q16 94 16 138q0 131 -105 131q-84 0 -132 -73t-76 -243l-107 -606h-143l258 1462h143l-86 -479q76 63 180 63t158 -54q54 -56 55 -140z" />
    <glyph glyph-name="Hbar" unicode="&#x126;" horiz-adv-x="952" 
d="M344 803h367l39 213h-369zM53 0l178 1016h-94l21 112h94l59 334h150l-60 -334h367l59 334h150l-59 -334h96l-21 -112h-96l-178 -1016h-150l121 676h-368l-119 -676h-150z" />
    <glyph glyph-name="hbar" unicode="&#x127;" horiz-adv-x="808" 
d="M739 852q0 -84 -20 -211l-115 -641h-141l115 653q16 94 16 138q0 131 -105 131q-84 0 -132 -73t-76 -243l-107 -606h-143l207 1176h-105l19 108h106l31 178h143l-33 -178h205l-20 -108h-203l-35 -193q76 63 180 63t158 -54q54 -56 55 -140z" />
    <glyph glyph-name="Itilde" unicode="&#x128;" horiz-adv-x="436" 
d="M361 1876q58 0 104 -66q45 -68 65 -67q35 0 66 117h88q-31 -123 -68 -172q-36 -50 -102 -50t-106 70q-23 39 -34 51t-26 13q-38 0 -69 -117h-89q33 117 73 169t98 52zM53 0l258 1462h150l-258 -1462h-150z" />
    <glyph glyph-name="itilde" unicode="&#x129;" horiz-adv-x="393" 
d="M266 1446q60 0 104 -66t64 -65q35 0 66 117h88q-31 -123 -68 -172q-38 -50 -102 -50t-107 68q-25 41 -35 52t-24 11q-39 1 -70 -114h-88q33 117 73 168t99 51zM35 0l182 1028h141l-180 -1028h-143z" />
    <glyph glyph-name="Imacron" unicode="&#x12a;" horiz-adv-x="436" 
d="M236 1700l18 108h383l-19 -108h-382zM53 0l258 1462h150l-258 -1462h-150z" />
    <glyph glyph-name="imacron" unicode="&#x12b;" horiz-adv-x="393" 
d="M137 1270l19 108h383l-19 -108h-383zM35 0l182 1028h141l-180 -1028h-143z" />
    <glyph glyph-name="Ibreve" unicode="&#x12c;" horiz-adv-x="436" 
d="M342 1815q0 -90 86 -91q57 0 88 36t53 126h99q-18 -121 -43 -164q-55 -106 -199 -106q-186 0 -186 149q0 43 12 121h96q-6 -53 -6 -71zM53 0l258 1462h150l-258 -1462h-150z" />
    <glyph glyph-name="ibreve" unicode="&#x12d;" horiz-adv-x="393" 
d="M244 1386q0 -90 86 -90q57 0 88 36t53 126h98q-18 -121 -43 -164q-55 -106 -198 -106q-186 0 -187 149q1 39 13 121h96q-6 -53 -6 -72zM35 0l182 1028h141l-180 -1028h-143z" />
    <glyph glyph-name="Iogonek" unicode="&#x12e;" horiz-adv-x="436" 
d="M90 -295q35 0 86 16v-83q-59 -27 -133 -27q-156 0 -156 121q-1 70 55 144t146 124h-33l256 1462h150l-258 -1462q-68 -51 -99 -82q-82 -82 -81 -162q0 -51 67 -51z" />
    <glyph glyph-name="iogonek" unicode="&#x12f;" horiz-adv-x="393" 
d="M258 1255l37 211h141l-35 -211h-143zM-2 -244q0 -51 68 -51q35 0 86 16v-83q-59 -27 -134 -27q-156 0 -155 121q0 72 53 142t147 126h-28l182 1028h143l-182 -1028q-68 -51 -98 -82q-82 -82 -82 -162z" />
    <glyph glyph-name="Idotaccent" unicode="&#x130;" horiz-adv-x="436" 
d="M346 1634l37 207h137l-35 -207h-139zM53 0l258 1462h150l-258 -1462h-150z" />
    <glyph glyph-name="dotlessi" unicode="&#x131;" horiz-adv-x="393" 
d="M35 0l182 1028h141l-180 -1028h-143z" />
    <glyph glyph-name="IJ" unicode="&#x132;" horiz-adv-x="872" 
d="M748 1462h149l-268 -1519q-41 -231 -86 -305q-86 -133 -252 -134q-74 0 -158 31l78 115q33 -20 72 -21q98 0 147 115q23 51 53 215zM53 0l258 1462h150l-258 -1462h-150z" />
    <glyph glyph-name="ij" unicode="&#x133;" horiz-adv-x="774" 
d="M598 1028h143l-190 -1079q-37 -244 -120 -335t-261 -85l23 123q88 -6 138 64t79 237zM639 1255l37 211h143l-37 -211h-143zM35 0l182 1028h141l-180 -1028h-143zM256 1255l37 211h143l-37 -211h-143z" />
    <glyph glyph-name="Jcircumflex" unicode="&#x134;" horiz-adv-x="626" 
d="M616 1798l-114 -166h-146l226 264h96l131 -264h-135zM145 -16q-166 0 -256 118l107 95q63 -88 137 -88q96 0 146 114q25 57 53 215l180 1024h147l-184 -1046q-29 -162 -41 -208t-41 -91q-82 -133 -248 -133z" />
    <glyph glyph-name="jcircumflex" unicode="&#x135;" horiz-adv-x="399" 
d="M356 1370l-114 -168h-146l226 266h96l131 -266h-135zM223 1028h144l-191 -1079q-37 -242 -121 -334t-260 -86l23 123q88 -6 138 64t77 237z" />
    <glyph glyph-name="Kcommaaccent" unicode="&#x136;" 
d="M203 -449l123 304h143l-168 -304h-98zM55 0l258 1462h150l-129 -731l508 731h164l-443 -608l209 -854h-154l-167 735l-158 -235l-88 -500h-150z" />
    <glyph glyph-name="kcommaaccent" unicode="&#x137;" horiz-adv-x="768" 
d="M117 -449l123 304h143l-168 -304h-98zM35 0l258 1462h143l-174 -987l379 553h156l-320 -432l156 -596h-152l-108 481l-148 -213l-47 -268h-143z" />
    <glyph glyph-name="kgreenlandic" unicode="&#x138;" horiz-adv-x="768" 
d="M35 0l182 1028h141l-96 -553l379 553h156l-320 -432l156 -596h-152l-108 481l-148 -213l-47 -268h-143z" />
    <glyph glyph-name="Lacute" unicode="&#x139;" horiz-adv-x="765" 
d="M369 1620l157 287h164l-215 -287h-106zM53 0l258 1462h150l-236 -1335h449l-23 -127h-598z" />
    <glyph glyph-name="lacute" unicode="&#x13a;" horiz-adv-x="438" 
d="M334 1620l158 287h163l-215 -287h-106zM221 210q0 -46 24 -66t77 -21h22l-20 -123h-29q-121 0 -171 38t-50 114t18 190l199 1120h143l-205 -1153q-8 -53 -8 -99z" />
    <glyph glyph-name="Lcommaaccent" unicode="&#x13b;" horiz-adv-x="765" 
d="M150 -449l122 304h144l-168 -304h-98zM53 0l258 1462h150l-236 -1335h449l-23 -127h-598z" />
    <glyph glyph-name="lcommaaccent" unicode="&#x13c;" horiz-adv-x="438" 
d="M-49 -449l123 304h143l-168 -304h-98zM221 208q0 -85 101 -85h22l-20 -123h-29q-121 0 -171 38t-50 112t18 192l199 1120h143l-205 -1153q-8 -57 -8 -101z" />
    <glyph glyph-name="Lcaron" unicode="&#x13d;" horiz-adv-x="765" 
d="M520 1024l119 453h139l-157 -453h-101zM53 0l258 1462h150l-236 -1335h449l-23 -127h-598z" />
    <glyph glyph-name="lcaron" unicode="&#x13e;" horiz-adv-x="532" 
d="M483 1024l119 453h139l-157 -453h-101zM221 210q0 -46 24 -66t77 -21h22l-20 -123h-29q-121 0 -171 38t-50 114t18 190l199 1120h143l-205 -1153q-8 -53 -8 -99z" />
    <glyph glyph-name="Ldot" unicode="&#x13f;" horiz-adv-x="765" 
d="M543 651l32 191h130l-35 -191h-127zM53 0l258 1462h150l-236 -1335h449l-23 -127h-598z" />
    <glyph glyph-name="ldot" unicode="&#x140;" horiz-adv-x="503" 
d="M399 651l35 191h127l-33 -191h-129zM221 210q0 -46 24 -66t77 -21h22l-20 -123h-29q-121 0 -171 38t-50 114t18 190l199 1120h143l-205 -1153q-8 -53 -8 -99z" />
    <glyph glyph-name="Lslash" unicode="&#x141;" horiz-adv-x="765" 
d="M53 0l78 436l-117 -98l27 151l117 99l153 874h150l-133 -751l309 264l-27 -150l-309 -266l-76 -432h449l-23 -127h-598z" />
    <glyph glyph-name="lslash" unicode="&#x142;" horiz-adv-x="458" 
d="M332 123h22l-22 -123h-27q-121 0 -172 38t-51 128q0 49 14 145l49 273l-145 -119l27 156l145 120l127 721h143l-106 -606l182 152l-26 -156l-185 -152l-67 -391q-26 -132 13 -166q24 -20 79 -20z" />
    <glyph glyph-name="Nacute" unicode="&#x143;" horiz-adv-x="1005" 
d="M627 1620l157 287h164l-215 -287h-106zM53 0l258 1462h148l227 -1143l201 1143h141l-258 -1462h-141l-232 1149l-202 -1149h-142z" />
    <glyph glyph-name="nacute" unicode="&#x144;" horiz-adv-x="808" 
d="M442 1192l158 287h164l-215 -287h-107zM739 851q0 -87 -20 -210l-115 -641h-141l115 653q16 96 16 140q0 129 -105 129q-84 0 -132 -73t-76 -243l-107 -606h-143l182 1028h109l-3 -67q49 49 95 67t130 18q86 0 140 -54t55 -141z" />
    <glyph glyph-name="Ncommaaccent" unicode="&#x145;" horiz-adv-x="1005" 
d="M219 -449l123 304h143l-168 -304h-98zM53 0l258 1462h148l227 -1143l201 1143h141l-258 -1462h-141l-232 1149l-202 -1149h-142z" />
    <glyph glyph-name="ncommaaccent" unicode="&#x146;" horiz-adv-x="808" 
d="M125 -449l123 304h143l-168 -304h-98zM739 851q0 -87 -20 -210l-115 -641h-141l115 653q16 96 16 140q0 129 -105 129q-84 0 -132 -73t-76 -243l-107 -606h-143l182 1028h109l-3 -67q49 49 95 67t130 18q86 0 140 -54t55 -141z" />
    <glyph glyph-name="Ncaron" unicode="&#x147;" horiz-adv-x="1005" 
d="M709 1729l116 165h144l-224 -266h-98l-131 266h137zM53 0l258 1462h148l227 -1143l201 1143h141l-258 -1462h-141l-232 1149l-202 -1149h-142z" />
    <glyph glyph-name="ncaron" unicode="&#x148;" horiz-adv-x="808" 
d="M530 1300l117 166h144l-224 -266h-98l-131 266h137zM739 851q0 -87 -20 -210l-115 -641h-141l115 653q16 96 16 140q0 129 -105 129q-84 0 -132 -73t-76 -243l-107 -606h-143l182 1028h109l-3 -67q49 49 95 67t130 18q86 0 140 -54t55 -141z" />
    <glyph glyph-name="napostrophe" unicode="&#x149;" horiz-adv-x="897" 
d="M59 983l131 479h154l-162 -479h-123zM784 850q0 -86 -20 -209l-113 -641h-143l115 653q16 86 16 140q0 129 -104 129q-83 0 -131 -73t-78 -243l-107 -606h-143l182 1028h109l-2 -67q53 51 96 68t129 17t140 -54q54 -56 54 -142z" />
    <glyph glyph-name="Eng" unicode="&#x14a;" horiz-adv-x="1005" 
d="M53 0l258 1462h148l227 -1143l201 1143h141l-266 -1515q-37 -231 -122 -325t-255 -93l23 119q82 -8 133 62t77 227l11 63l-232 1149l-202 -1149h-142z" />
    <glyph glyph-name="eng" unicode="&#x14b;" horiz-adv-x="808" 
d="M739 851q0 -87 -20 -210l-121 -682q-37 -240 -123 -336t-260 -94l23 123q88 -6 139 66t78 235l123 700q16 96 16 140q0 129 -105 129q-84 0 -132 -73t-76 -243l-107 -606h-143l182 1028h109l-3 -67q53 51 97 68t128 17q86 0 140 -54t55 -141z" />
    <glyph glyph-name="Omacron" unicode="&#x14c;" horiz-adv-x="944" 
d="M465 1700l18 108h383l-18 -108h-383zM782 1201q0 63 -45 109t-138 46t-149 -73t-90 -251l-106 -602q-16 -98 -16 -164t45 -113t139 -47t150 73t87 251l107 602q16 106 16 169zM614 1481q315 0 316 -293q0 -70 -17 -168l-112 -633q-35 -203 -113 -293q-100 -113 -282 -112
q-315 0 -316 292q1 70 19 168l110 633q23 119 46 179q91 227 349 227z" />
    <glyph glyph-name="omacron" unicode="&#x14d;" horiz-adv-x="796" 
d="M338 1270l18 108h383l-18 -108h-383zM471 926q-82 0 -127 -58t-70 -198l-55 -312q-12 -78 -12 -122q0 -133 117 -134q82 0 126 58t70 198l55 312q14 80 15 123q0 133 -119 133zM731 801q0 -61 -20 -172l-49 -285q-33 -186 -101 -266q-88 -96 -237 -96q-258 0 -258 245
q0 68 18 172l49 285q37 193 103 266q86 96 237 97q258 0 258 -246z" />
    <glyph glyph-name="Obreve" unicode="&#x14e;" horiz-adv-x="944" 
d="M596 1815q0 -90 86 -91q57 0 88 36t53 126h99q-18 -121 -43 -164q-55 -106 -199 -106q-186 0 -186 149q0 43 12 121h96q-6 -53 -6 -71zM782 1201q0 63 -45 109t-138 46t-149 -73t-90 -251l-106 -602q-16 -98 -16 -164t45 -113t139 -47t150 73t87 251l107 602
q16 106 16 169zM614 1481q315 0 316 -293q0 -70 -17 -168l-112 -633q-35 -203 -113 -293q-100 -113 -282 -112q-315 0 -316 292q1 70 19 168l110 633q23 119 46 179q91 227 349 227z" />
    <glyph glyph-name="obreve" unicode="&#x14f;" horiz-adv-x="796" 
d="M532 1296q57 0 89 36q31 36 53 126h98q-18 -121 -43 -164q-55 -106 -199 -106q-186 0 -186 149q0 39 12 121h97q-6 -53 -7 -72q0 -90 86 -90zM471 926q-82 0 -127 -58t-70 -198l-55 -312q-12 -78 -12 -122q0 -133 117 -134q82 0 126 58t70 198l55 312q14 80 15 123
q0 133 -119 133zM731 801q0 -61 -20 -172l-49 -285q-33 -186 -101 -266q-88 -96 -237 -96q-258 0 -258 245q0 68 18 172l49 285q37 193 103 266q86 96 237 97q258 0 258 -246z" />
    <glyph glyph-name="Ohungarumlaut" unicode="&#x150;" horiz-adv-x="944" 
d="M707 1620l135 287h149l-184 -287h-100zM502 1620l135 287h149l-184 -287h-100zM782 1201q0 63 -45 109t-138 46t-149 -73t-90 -251l-106 -602q-16 -98 -16 -164t45 -113t139 -47t150 73t87 251l107 602q16 106 16 169zM614 1481q315 0 316 -293q0 -70 -17 -168l-112 -633
q-35 -203 -113 -293q-100 -113 -282 -112q-315 0 -316 292q1 70 19 168l110 633q23 119 46 179q91 227 349 227z" />
    <glyph glyph-name="ohungarumlaut" unicode="&#x151;" horiz-adv-x="796" 
d="M557 1192l135 287h150l-185 -287h-100zM352 1192l135 287h150l-184 -287h-101zM471 926q-82 0 -127 -58t-70 -198l-55 -312q-12 -78 -12 -122q0 -133 117 -134q82 0 126 58t70 198l55 312q14 80 15 123q0 133 -119 133zM731 801q0 -61 -20 -172l-49 -285
q-33 -186 -101 -266q-88 -96 -237 -96q-258 0 -258 245q0 68 18 172l49 285q37 193 103 266q86 96 237 97q258 0 258 -246z" />
    <glyph glyph-name="OE" unicode="&#x152;" horiz-adv-x="1337" 
d="M240 268q0 -68 42 -115t134 -47q187 -1 248 324l106 602q16 98 16 165t-44 113t-136 46t-152 -76q-61 -76 -92 -248l-106 -602q-16 -94 -16 -162zM386 -18q-144 0 -219 74t-75 214q0 70 19 172l112 633q33 197 115 293q100 113 271 113t241 -103l14 84h566l-23 -127h-436
l-94 -532h370l-22 -127h-371l-96 -549h438l-20 -127h-568l15 84q-93 -102 -237 -102z" />
    <glyph glyph-name="oe" unicode="&#x153;" horiz-adv-x="1226" 
d="M915 928q-81 0 -123 -56t-67 -194l-12 -74h297q25 133 24 193q0 131 -119 131zM590 791q0 135 -119 135q-82 0 -126 -58t-71 -198l-53 -314q-14 -70 -14 -120q0 -133 119 -134q82 0 126 58t70 196l56 314q12 76 12 121zM924 1047q246 0 245 -244q0 -72 -43 -316h-438
l-24 -131q-12 -72 -13 -118q0 -135 119 -136q80 0 125 54t66 168h133q-25 -162 -74 -230q-78 -112 -240 -112t-225 116q-88 -117 -240 -116q-250 0 -249 241q0 62 18 166l49 285q37 201 100 274q86 98 244 98t213 -112q86 113 234 113z" />
    <glyph glyph-name="Racute" unicode="&#x154;" horiz-adv-x="907" 
d="M549 1620l158 287h163l-215 -287h-106zM457 766q86 0 134 22t85 76q80 117 80 291q0 98 -44 140t-147 42h-129l-100 -571h121zM569 1462q188 0 264 -72t76 -202q-1 -128 -33 -238t-87 -182q-55 -70 -164 -106l106 -662h-164l-88 645h-162l-112 -645h-150l258 1462h256z
" />
    <glyph glyph-name="racute" unicode="&#x155;" horiz-adv-x="555" 
d="M354 1192l158 287h164l-215 -287h-107zM31 0l182 1028h111l2 -76q72 94 162 94t151 -53l-86 -121q-43 51 -88 52q-68 0 -116 -98t-87 -322l-88 -504h-143z" />
    <glyph glyph-name="Rcommaaccent" unicode="&#x156;" horiz-adv-x="907" 
d="M180 -449l123 304h143l-167 -304h-99zM457 766q86 0 134 22t85 76q80 117 80 291q0 98 -44 140t-147 42h-129l-100 -571h121zM569 1462q188 0 264 -72t76 -202q-1 -128 -33 -238t-87 -182q-55 -70 -164 -106l106 -662h-164l-88 645h-162l-112 -645h-150l258 1462h256z
" />
    <glyph glyph-name="rcommaaccent" unicode="&#x157;" horiz-adv-x="555" 
d="M-111 -449l123 304h144l-168 -304h-99zM31 0l180 1028h111l4 -76q72 94 174 95q74 0 139 -54l-86 -121q-43 51 -88 52q-70 0 -117 -98t-86 -322l-88 -504h-143z" />
    <glyph glyph-name="Rcaron" unicode="&#x158;" horiz-adv-x="907" 
d="M614 1729l117 165h143l-223 -266h-98l-131 266h137zM457 766q86 0 134 22t85 76q80 117 80 291q0 98 -44 140t-147 42h-129l-100 -571h121zM569 1462q188 0 264 -72t76 -202q-1 -128 -33 -238t-87 -182q-55 -70 -164 -106l106 -662h-164l-88 645h-162l-112 -645h-150
l258 1462h256z" />
    <glyph glyph-name="rcaron" unicode="&#x159;" horiz-adv-x="555" 
d="M432 1300l117 166h143l-223 -266h-98l-131 266h137zM31 0l182 1028h111l2 -76q72 94 162 94t151 -53l-86 -121q-43 51 -88 52q-68 0 -116 -98t-87 -322l-88 -504h-143z" />
    <glyph glyph-name="Sacute" unicode="&#x15a;" horiz-adv-x="823" 
d="M526 1620l158 287h164l-215 -287h-107zM180 281q0 -176 162 -177q133 0 197 142q45 106 45 226t-75 165q-17 10 -119 57t-152 124t-50 198q0 182 90 322t263 141q135 0 211 -73t75 -204q0 -47 -14 -127h-139q10 61 10 109q0 170 -139 170q-107 0 -157 -106t-50 -200
t36 -143t126 -92q139 -63 186 -128t47 -191q0 -193 -84 -338q-102 -174 -311 -174q-139 0 -220 72t-81 200q0 60 18 158h135q-10 -82 -10 -131z" />
    <glyph glyph-name="sacute" unicode="&#x15b;" horiz-adv-x="712" 
d="M395 1192l158 287h164l-215 -287h-107zM150 218q0 -52 36 -84t109 -32q74 0 129 65t55 163q0 57 -33 84q-14 16 -29 22t-109 37t-139 85q-46 54 -46 151q0 153 81 245t208 92q126 0 192 -56q66 -58 66 -163q0 -37 -13 -106h-133q10 51 11 86q0 119 -111 119
q-72 0 -117 -58t-45 -130q0 -70 28 -100t122 -62t129 -56q78 -49 77 -168q0 -170 -91 -270t-231 -100t-211 59t-71 162q1 47 15 131h133q-12 -64 -12 -116z" />
    <glyph glyph-name="Scircumflex" unicode="&#x15c;" horiz-adv-x="823" 
d="M618 1798l-114 -166h-146l226 264h96l131 -264h-135zM180 281q0 -176 162 -177q133 0 197 142q45 106 45 226t-75 165q-17 10 -119 57t-152 124t-50 198q0 182 90 322t263 141q135 0 211 -73t75 -204q0 -47 -14 -127h-139q10 61 10 109q0 170 -139 170q-107 0 -157 -106
t-50 -200t36 -143t126 -92q139 -63 186 -128t47 -191q0 -193 -84 -338q-102 -174 -311 -174q-139 0 -220 72t-81 200q0 60 18 158h135q-10 -82 -10 -131z" />
    <glyph glyph-name="scircumflex" unicode="&#x15d;" horiz-adv-x="712" 
d="M508 1370l-115 -168h-145l225 266h96l131 -266h-135zM150 218q0 -52 36 -84t109 -32q74 0 129 65t55 163q0 57 -33 84q-14 16 -29 22t-109 37t-139 85q-46 54 -46 151q0 153 81 245t208 92q126 0 192 -56q66 -58 66 -163q0 -37 -13 -106h-133q10 51 11 86q0 119 -111 119
q-72 0 -117 -58t-45 -130q0 -70 28 -100t122 -62t129 -56q78 -49 77 -168q0 -170 -91 -270t-231 -100t-211 59t-71 162q1 47 15 131h133q-12 -64 -12 -116z" />
    <glyph glyph-name="Scedilla" unicode="&#x15e;" horiz-adv-x="823" 
d="M113 -449l123 304h143l-168 -304h-98zM180 281q0 -176 162 -177q133 0 197 142q45 106 45 226t-75 165q-17 10 -119 57t-152 124t-50 198q0 182 90 322t263 141q135 0 211 -73t75 -204q0 -47 -14 -127h-139q10 61 10 109q0 170 -139 170q-107 0 -157 -106t-50 -200
t36 -143t126 -92q139 -63 186 -128t47 -191q0 -193 -84 -338q-102 -174 -311 -174q-139 0 -220 72t-81 200q0 60 18 158h135q-10 -82 -10 -131z" />
    <glyph glyph-name="scedilla" unicode="&#x15f;" horiz-adv-x="712" 
d="M74 -449l123 304h143l-168 -304h-98zM150 218q0 -52 36 -84t109 -32q74 0 129 65t55 163q0 57 -33 84q-14 16 -29 22t-109 37t-139 85q-46 54 -46 151q0 153 81 245t208 92q126 0 192 -56q66 -58 66 -163q0 -37 -13 -106h-133q10 51 11 86q0 119 -111 119q-72 0 -117 -58
t-45 -130q0 -70 28 -100t122 -62t129 -56q78 -49 77 -168q0 -170 -91 -270t-231 -100t-211 59t-71 162q1 47 15 131h133q-12 -64 -12 -116z" />
    <glyph glyph-name="Scaron" unicode="&#x160;" horiz-adv-x="823" 
d="M608 1729l117 165h143l-223 -266h-98l-131 266h137zM180 281q0 -176 162 -177q133 0 197 142q45 106 45 226t-75 165q-17 10 -119 57t-152 124t-50 198q0 182 90 322t263 141q135 0 211 -73t75 -204q0 -47 -14 -127h-139q10 61 10 109q0 170 -139 170q-107 0 -157 -106
t-50 -200t36 -143t126 -92q139 -63 186 -128t47 -191q0 -193 -84 -338q-102 -174 -311 -174q-139 0 -220 72t-81 200q0 60 18 158h135q-10 -82 -10 -131z" />
    <glyph glyph-name="scaron" unicode="&#x161;" horiz-adv-x="712" 
d="M485 1300l117 166h143l-223 -266h-98l-131 266h137zM150 218q0 -52 36 -84t109 -32q74 0 129 65t55 163q0 57 -33 84q-14 16 -29 22t-109 37t-139 85q-46 54 -46 151q0 153 81 245t208 92q126 0 192 -56q66 -58 66 -163q0 -37 -13 -106h-133q10 51 11 86q0 119 -111 119
q-72 0 -117 -58t-45 -130q0 -70 28 -100t122 -62t129 -56q78 -49 77 -168q0 -170 -91 -270t-231 -100t-211 59t-71 162q1 47 15 131h133q-12 -64 -12 -116z" />
    <glyph glyph-name="Tcommaaccent" unicode="&#x162;" horiz-adv-x="706" 
d="M49 -449l123 304h143l-168 -304h-98zM188 0l236 1335h-252l23 127h653l-23 -127h-252l-235 -1335h-150z" />
    <glyph glyph-name="tcommaaccent" unicode="&#x163;" horiz-adv-x="479" 
d="M-29 -449l123 304h144l-168 -304h-99zM236 201q0 -78 88 -78h32l-22 -123h-35q-115 0 -163 34t-48 100t27 222l98 551h-88l20 121h88l66 330h135l-57 -330h135l-20 -121h-136l-106 -598q-14 -76 -14 -108z" />
    <glyph glyph-name="Tcaron" unicode="&#x164;" horiz-adv-x="706" 
d="M561 1729l117 165h143l-223 -266h-98l-131 266h137zM188 0l236 1335h-252l23 127h653l-23 -127h-252l-235 -1335h-150z" />
    <glyph glyph-name="tcaron" unicode="&#x165;" horiz-adv-x="585" 
d="M551 1106l102 403h140l-144 -403h-98zM322 123h32l-22 -123h-35q-115 0 -163 34t-48 100t27 222l98 551h-88l20 121h88l66 330h135l-57 -330h135l-21 -121h-135l-106 -598q-14 -76 -15 -108q0 -78 89 -78z" />
    <glyph glyph-name="Tbar" unicode="&#x166;" horiz-adv-x="706" 
d="M186 0l121 680h-180l23 123h178l94 532h-252l23 127h653l-23 -127h-252l-94 -532h180l-22 -123h-178l-121 -680h-150z" />
    <glyph glyph-name="tbar" unicode="&#x167;" horiz-adv-x="479" 
d="M317 123h33l-20 -123h-37q-115 0 -162 33t-47 100t22 203l50 272h-88l18 109h88l33 190h-86l20 121h88l66 330h135l-57 -330h135l-23 -121h-135l-33 -190h134l-21 -109h-133l-51 -299q-14 -84 -15 -108q0 -78 86 -78z" />
    <glyph glyph-name="Utilde" unicode="&#x168;" horiz-adv-x="962" 
d="M626 1876q58 0 103 -67t66 -66q35 0 65 117h88q-32 -123 -68 -172q-36 -50 -102 -50t-106 70q-23 39 -34 51t-26 13q-38 0 -69 -117h-88q33 117 72 169q41 52 99 52zM254 260q0 -154 160 -154q127 0 188 107q29 51 55 184l187 1065h149l-192 -1091q-23 -121 -41 -172
t-58 -99q-102 -119 -288 -118q-307 0 -308 262q0 74 21 182l182 1036h150l-189 -1065q-16 -94 -16 -137z" />
    <glyph glyph-name="utilde" unicode="&#x169;" horiz-adv-x="790" 
d="M465 1446q59 0 103 -66t65 -65q35 0 65 117h88q-32 -123 -68 -172q-36 -50 -100 -50t-108 68q-25 41 -35 52t-24 11q-39 1 -70 -114h-88q33 117 73 168t99 51zM215 229q0 -123 96 -123q78 0 124 74t75 242l108 606h142l-180 -1028h-109l4 80q-47 -55 -91 -77
q-44 -21 -126 -21t-135 54t-53 140t22 211l113 641h143l-115 -651q-18 -96 -18 -148z" />
    <glyph glyph-name="Umacron" unicode="&#x16a;" horiz-adv-x="962" 
d="M489 1700l19 108h383l-19 -108h-383zM254 260q0 -154 160 -154q127 0 188 107q29 51 55 184l187 1065h149l-192 -1091q-23 -121 -41 -172t-58 -99q-102 -119 -288 -118q-307 0 -308 262q0 74 21 182l182 1036h150l-189 -1065q-16 -94 -16 -137z" />
    <glyph glyph-name="umacron" unicode="&#x16b;" horiz-adv-x="790" 
d="M334 1270l18 108h383l-18 -108h-383zM215 229q0 -123 96 -123q78 0 124 74t75 242l108 606h142l-180 -1028h-109l4 80q-47 -55 -91 -77q-44 -21 -126 -21t-135 54t-53 140t22 211l113 641h143l-115 -651q-18 -96 -18 -148z" />
    <glyph glyph-name="Ubreve" unicode="&#x16c;" horiz-adv-x="962" 
d="M606 1815q0 -90 86 -91q57 0 88 36t54 126h98q-18 -121 -43 -164q-55 -106 -199 -106q-186 0 -186 149q0 43 12 121h96q-6 -53 -6 -71zM254 260q0 -154 160 -154q127 0 188 107q29 51 55 184l187 1065h149l-192 -1091q-23 -121 -41 -172t-58 -99q-102 -119 -288 -118
q-307 0 -308 262q0 74 21 182l182 1036h150l-189 -1065q-16 -94 -16 -137z" />
    <glyph glyph-name="ubreve" unicode="&#x16d;" horiz-adv-x="790" 
d="M440 1386q0 -90 86 -90q57 0 88 36t54 126h98q-18 -121 -43 -164q-55 -106 -199 -106q-186 0 -186 149q0 39 12 121h96q-6 -53 -6 -72zM215 229q0 -123 96 -123q78 0 124 74t75 242l108 606h142l-180 -1028h-109l4 80q-47 -55 -91 -77q-44 -21 -126 -21t-135 54t-53 140
t22 211l113 641h143l-115 -651q-18 -96 -18 -148z" />
    <glyph glyph-name="Uring" unicode="&#x16e;" horiz-adv-x="962" 
d="M729 1931q-51 0 -82 -46t-31 -124t76 -78q49 1 80 47t31 124t-74 77zM518 1787q0 91 60 157t146 65q85 0 131 -46t46 -129t-56 -157q-57 -73 -147 -73t-135 46t-45 137zM254 260q0 -154 160 -154q127 0 188 107q29 51 55 184l187 1065h149l-192 -1091q-23 -121 -41 -172
t-58 -99q-102 -119 -288 -118q-307 0 -308 262q0 74 21 182l182 1036h150l-189 -1065q-16 -94 -16 -137z" />
    <glyph glyph-name="uring" unicode="&#x16f;" horiz-adv-x="790" 
d="M643 1423q0 78 -74 78q-51 0 -82 -46t-31 -124t76 -78q49 0 80 46t31 124zM358 1359q0 91 60 157t146 65q85 0 131 -46t46 -129t-56 -157q-57 -73 -147 -73t-135 46t-45 137zM215 229q0 -123 96 -123q78 0 124 74t75 242l108 606h142l-180 -1028h-109l4 80
q-47 -55 -91 -77q-44 -21 -126 -21t-135 54t-53 140t22 211l113 641h143l-115 -651q-18 -96 -18 -148z" />
    <glyph glyph-name="Uhungarumlaut" unicode="&#x170;" horiz-adv-x="962" 
d="M717 1620l135 287h149l-184 -287h-100zM512 1620l135 287h150l-185 -287h-100zM254 260q0 -154 160 -154q127 0 188 107q29 51 55 184l187 1065h149l-192 -1091q-23 -121 -41 -172t-58 -99q-102 -119 -288 -118q-307 0 -308 262q0 74 21 182l182 1036h150l-189 -1065
q-16 -94 -16 -137z" />
    <glyph glyph-name="uhungarumlaut" unicode="&#x171;" horiz-adv-x="790" 
d="M555 1192l135 287h150l-185 -287h-100zM350 1192l135 287h150l-184 -287h-101zM215 229q0 -123 96 -123q78 0 124 74t75 242l108 606h142l-180 -1028h-109l4 80q-47 -55 -91 -77q-44 -21 -126 -21t-135 54t-53 140t22 211l113 641h143l-115 -651q-18 -96 -18 -148z" />
    <glyph glyph-name="Uogonek" unicode="&#x172;" horiz-adv-x="962" 
d="M379 -244q0 -51 67 -51q35 0 86 16l3 -83q-59 -27 -136 -27q-156 0 -155 121q0 127 166 252q-147 -2 -226 65q-78 68 -78 197q0 72 21 180l182 1036h150l-189 -1065q-16 -94 -16 -137q0 -154 160 -154q127 0 188 107q29 51 55 184l187 1065h149l-192 -1091
q-23 -158 -80 -244t-166 -125l-8 -8q-168 -131 -168 -238z" />
    <glyph glyph-name="uogonek" unicode="&#x173;" horiz-adv-x="790" 
d="M399 -244q0 -51 68 -51q33 0 84 16l2 -83q-59 -27 -133 -27q-156 0 -156 119q0 76 47 138t160 138l4 74q-47 -55 -91 -77q-44 -21 -126 -21t-135 54t-53 140t22 211l113 641h143l-115 -651q-18 -96 -18 -148q0 -123 96 -123q78 0 124 74t75 242l108 606h142l-180 -1028
l-19 -14q-162 -127 -162 -230z" />
    <glyph glyph-name="Wcircumflex" unicode="&#x174;" horiz-adv-x="1269" 
d="M860 1798l-115 -166h-145l225 264h97l131 -264h-135zM180 0l39 1462h148l-58 -1155l432 1155h111l25 -1155l350 1155h147l-475 -1462h-129l-29 1141l-430 -1141h-131z" />
    <glyph glyph-name="wcircumflex" unicode="&#x175;" horiz-adv-x="1083" 
d="M690 1370l-115 -168h-145l225 266h97l131 -266h-135zM170 0l-25 1028h144l-8 -786l301 786h100l23 -786l268 786h145l-385 -1028h-119l-28 768l-297 -768h-119z" />
    <glyph glyph-name="Ycircumflex" unicode="&#x176;" horiz-adv-x="772" 
d="M616 1798l-114 -166h-146l226 264h96l131 -264h-135zM223 0l94 537l-149 925h154l102 -733l360 733h160l-477 -925l-94 -537h-150z" />
    <glyph glyph-name="ycircumflex" unicode="&#x177;" horiz-adv-x="704" 
d="M504 1370l-115 -168h-145l225 266h96l131 -266h-135zM190 -10l-63 1038h139l31 -846l309 846h146l-476 -1210q-72 -174 -142 -231q-71 -56 -222 -58l22 123q82 0 118 32t83 148z" />
    <glyph glyph-name="Ydieresis" unicode="&#x178;" horiz-adv-x="772" 
d="M659 1636l37 205h129l-37 -205h-129zM381 1636l37 205h127l-35 -205h-129zM223 0l94 537l-149 925h154l102 -733l360 733h160l-477 -925l-94 -537h-150z" />
    <glyph glyph-name="Zacute" unicode="&#x179;" horiz-adv-x="747" 
d="M498 1620l157 287h164l-215 -287h-106zM-33 0l15 84l659 1251h-405l22 127h571l-14 -84l-659 -1251h458l-22 -127h-625z" />
    <glyph glyph-name="zacute" unicode="&#x17a;" horiz-adv-x="649" 
d="M391 1192l158 287h164l-215 -287h-107zM-35 0l15 82l485 823h-309l20 123h479l-14 -82l-485 -823h358l-20 -123h-529z" />
    <glyph glyph-name="Zdotaccent" unicode="&#x17b;" horiz-adv-x="747" 
d="M508 1634l37 207h137l-35 -207h-139zM-33 0l15 84l659 1251h-405l22 127h571l-14 -84l-659 -1251h458l-22 -127h-625z" />
    <glyph glyph-name="zdotaccent" unicode="&#x17c;" horiz-adv-x="649" 
d="M385 1206l37 207h137l-35 -207h-139zM-35 0l15 82l485 823h-309l20 123h479l-14 -82l-485 -823h358l-20 -123h-529z" />
    <glyph glyph-name="Zcaron" unicode="&#x17d;" horiz-adv-x="747" 
d="M588 1729l117 165h143l-223 -266h-99l-131 266h137zM-33 0l15 84l659 1251h-405l22 127h571l-14 -84l-659 -1251h458l-22 -127h-625z" />
    <glyph glyph-name="zcaron" unicode="&#x17e;" horiz-adv-x="649" 
d="M467 1300l117 166h143l-223 -266h-98l-132 266h138zM-35 0l15 82l485 823h-309l20 123h479l-14 -82l-485 -823h358l-20 -123h-529z" />
    <glyph glyph-name="Ohorn" unicode="&#x1a0;" horiz-adv-x="1003" 
d="M782 1199q0 65 -45 111t-138 46t-149 -73t-90 -251l-106 -602q-16 -98 -16 -164t45 -113t139 -47t150 73t87 251l107 602q16 102 16 167zM1171 1483v-39q0 -113 -57 -191q-45 -66 -190 -153q-2 -18 -11 -80l-112 -633q-35 -203 -113 -293q-100 -113 -282 -112
q-315 0 -316 290q0 76 19 170l110 633q35 201 115 291q98 115 280 115q305 0 316 -281q123 100 123 223q0 17 -6 60h124z" />
    <glyph glyph-name="ohorn" unicode="&#x1a1;" horiz-adv-x="851" 
d="M471 926q-82 0 -127 -58t-70 -198l-55 -312q-12 -78 -12 -122q0 -133 117 -134q82 0 126 58t70 198l55 312q14 80 15 125q0 131 -119 131zM717 657q-4 -7 -4 -17t-4 -24l-47 -272q-35 -190 -103 -266q-84 -96 -237 -96q-256 0 -256 247q0 61 18 170l49 285
q35 190 103 266q84 96 235 97q260 0 260 -244q0 -20 -2 -37q109 111 109 221q-1 22 -9 55h125q2 -25 2 -45q0 -199 -239 -331v-9z" />
    <glyph glyph-name="Uhorn" unicode="&#x1af;" horiz-adv-x="1054" 
d="M254 260q0 -154 160 -154q127 0 188 107q31 55 55 184l187 1065h149l-53 -303q184 117 184 264q0 25 -8 60h125q2 -23 2 -45q0 -129 -90 -221q-45 -47 -74 -67t-157 -95l-121 -684q-23 -121 -41 -172t-58 -99q-102 -119 -288 -118q-307 0 -308 262q0 74 21 182l182 1036
h150l-189 -1065q-16 -100 -16 -137z" />
    <glyph glyph-name="uhorn" unicode="&#x1b0;" horiz-adv-x="890" 
d="M215 229q0 -123 96 -123q78 0 124 73t75 243l108 606h142l-53 -307q184 109 184 268q0 20 -8 53h125q2 -18 2 -38q0 -121 -70 -204t-252 -184l-108 -616h-109l4 80q-49 -58 -92 -78t-125 -20t-135 54t-53 144t22 207l113 641h143l-115 -651q-18 -94 -18 -148z" />
    <glyph glyph-name="uni01C4" unicode="&#x1c4;" horiz-adv-x="1640" 
d="M860 0l14 84l660 1251h-406l23 127h571l-14 -84l-659 -1251h458l-22 -127h-625zM1481 1729l116 165h146l-225 -266h-99l-131 266h137zM780 1169q0 168 -182 168h-160l-215 -1212h160q121 -2 185 70t96 241l102 590q14 76 14 143zM594 1462q172 0 246 -61q92 -74 92 -221
q0 -61 -17 -156l-112 -641q-61 -391 -420 -383h-330l258 1462h283z" />
    <glyph glyph-name="uni01C5" unicode="&#x1c5;" horiz-adv-x="1595" 
d="M911 0l15 82l483 823h-307l20 123h480l-15 -82l-487 -823h360l-20 -123h-529zM1413 1300l115 166h145l-225 -266h-98l-131 266h137zM780 1169q0 168 -182 168h-160l-215 -1212h160q121 -2 185 70t96 241l102 590q14 76 14 143zM594 1462q172 0 246 -61q92 -74 92 -221
q0 -61 -17 -156l-112 -641q-61 -391 -420 -383h-330l258 1462h283z" />
    <glyph glyph-name="uni01C6" unicode="&#x1c6;" horiz-adv-x="1456" 
d="M770 0l14 82l486 823h-309l22 123h477l-14 -82l-485 -823h360l-23 -123h-528zM1272 1300l114 166h146l-223 -266h-99l-131 266h135zM213 254q0 -147 106 -148q152 0 211 328l27 160q16 92 16 156q0 174 -116 174q-136 0 -181 -250l-51 -289q-12 -72 -12 -131zM485 0v68
q-45 -50 -86 -68t-102 -18q-227 0 -227 251q0 72 18 181l49 280q33 186 106 270t195 83q122 0 187 -74l86 489h143l-258 -1462h-111z" />
    <glyph glyph-name="uni01C7" unicode="&#x1c7;" horiz-adv-x="1204" 
d="M1077 1462h150l-269 -1519q-25 -141 -42 -201q-66 -236 -295 -238q-72 0 -156 31l78 115q33 -20 71 -21q98 0 148 115q23 55 51 215zM53 0l258 1462h150l-236 -1335h449l-23 -127h-598z" />
    <glyph glyph-name="uni01C8" unicode="&#x1c8;" horiz-adv-x="1165" 
d="M989 1028h141l-190 -1079q-35 -242 -119 -334t-260 -86l21 123q88 -6 139 64t78 237zM1028 1255l37 211h143l-37 -211h-143zM53 0l258 1462h150l-236 -1335h449l-23 -127h-598z" />
    <glyph glyph-name="uni01C9" unicode="&#x1c9;" horiz-adv-x="835" 
d="M662 1028h141l-191 -1079q-34 -242 -118 -334t-261 -86l21 123q88 -6 139 64t78 237zM700 1255l37 211h144l-37 -211h-144zM221 210q0 -46 24 -66t77 -21h22l-20 -123h-29q-121 0 -171 38t-50 114t18 190l199 1120h143l-205 -1153q-8 -53 -8 -99z" />
    <glyph glyph-name="uni01CA" unicode="&#x1ca;" horiz-adv-x="1441" 
d="M1315 1462h149l-268 -1519q-25 -141 -42 -201q-66 -236 -296 -238q-72 0 -156 31l78 115q33 -20 72 -21q98 0 147 115q23 55 52 215zM53 0l258 1462h148l227 -1143l201 1143h141l-258 -1462h-141l-232 1149l-202 -1149h-142z" />
    <glyph glyph-name="uni01CB" unicode="&#x1cb;" horiz-adv-x="1402" 
d="M1227 1028h141l-190 -1079q-35 -242 -119 -334t-260 -86l20 123q88 -6 139 64t78 237zM1266 1255l37 211h143l-37 -211h-143zM53 0l258 1462h148l227 -1143l201 1143h141l-258 -1462h-141l-232 1149l-202 -1149h-142z" />
    <glyph glyph-name="uni01CC" unicode="&#x1cc;" horiz-adv-x="1208" 
d="M1032 1028h144l-191 -1079q-37 -242 -121 -334t-260 -86l23 123q88 -6 138 64t77 237zM1071 1255l37 211h143l-37 -211h-143zM739 851q0 -87 -20 -210l-115 -641h-141l115 653q16 96 16 140q0 129 -105 129q-84 0 -132 -73t-76 -243l-107 -606h-143l182 1028h109l-3 -67
q49 49 95 67t130 18q86 0 140 -54t55 -141z" />
    <glyph glyph-name="uni01CD" unicode="&#x1cd;" horiz-adv-x="839" 
d="M616 1729l117 165h144l-224 -266h-98l-131 266h137zM580 451l-27 790l-309 -790h336zM586 328h-389l-127 -328h-162l614 1462h129l105 -1462h-158z" />
    <glyph glyph-name="uni01CE" unicode="&#x1ce;" horiz-adv-x="763" 
d="M514 1300l117 166h143l-223 -266h-98l-131 266h137zM381 485q-119 -1 -172 -71t-53 -203q0 -57 30 -84t107 -27q76 0 115 44t59 167l31 174h-117zM428 926q-64 0 -104 -49t-60 -162h-133q29 176 102 254q74 78 211 78q242 0 242 -236q0 -66 -18 -172l-113 -639h-113
l-2 43q-59 -61 -184 -61q-246 0 -246 206q0 86 25 172t61 136q84 104 271 104h151l14 76q31 173 -14 221q-26 29 -90 29z" />
    <glyph glyph-name="uni01CF" unicode="&#x1cf;" horiz-adv-x="436" 
d="M428 1729l115 165h145l-225 -266h-98l-132 266h138zM53 0l258 1462h150l-258 -1462h-150z" />
    <glyph glyph-name="uni01D0" unicode="&#x1d0;" horiz-adv-x="393" 
d="M332 1300l114 166h146l-225 -266h-99l-131 266h137zM35 0l182 1028h141l-180 -1028h-143z" />
    <glyph glyph-name="uni01D1" unicode="&#x1d1;" horiz-adv-x="944" 
d="M682 1729l115 165h145l-225 -266h-99l-131 266h138zM782 1201q0 63 -45 109t-138 46t-149 -73t-90 -251l-106 -602q-16 -98 -16 -164t45 -113t139 -47t150 73t87 251l107 602q16 106 16 169zM614 1481q315 0 316 -293q0 -70 -17 -168l-112 -633q-35 -203 -113 -293
q-100 -113 -282 -112q-315 0 -316 292q1 70 19 168l110 633q23 119 46 179q91 227 349 227z" />
    <glyph glyph-name="uni01D2" unicode="&#x1d2;" horiz-adv-x="796" 
d="M532 1300l117 166h144l-224 -266h-98l-131 266h137zM471 926q-82 0 -127 -58t-70 -198l-55 -312q-12 -78 -12 -122q0 -133 117 -134q82 0 126 58t70 198l55 312q14 80 15 123q0 133 -119 133zM731 801q0 -61 -20 -172l-49 -285q-33 -186 -101 -266q-88 -96 -237 -96
q-258 0 -258 245q0 68 18 172l49 285q37 193 103 266q86 96 237 97q258 0 258 -246z" />
    <glyph glyph-name="uni01D3" unicode="&#x1d3;" horiz-adv-x="962" 
d="M682 1729l117 165h143l-223 -266h-98l-132 266h138zM254 260q0 -154 160 -154q127 0 188 107q29 51 55 184l187 1065h149l-192 -1091q-23 -121 -41 -172t-58 -99q-102 -119 -288 -118q-307 0 -308 262q0 74 21 182l182 1036h150l-189 -1065q-16 -94 -16 -137z" />
    <glyph glyph-name="uni01D4" unicode="&#x1d4;" horiz-adv-x="790" 
d="M528 1300l117 166h143l-223 -266h-98l-131 266h137zM215 229q0 -123 96 -123q78 0 124 74t75 242l108 606h142l-180 -1028h-109l4 80q-47 -55 -91 -77q-44 -21 -126 -21t-135 54t-53 140t22 211l113 641h143l-115 -651q-18 -96 -18 -148z" />
    <glyph glyph-name="Gcaron" unicode="&#x1e6;" horiz-adv-x="919" 
d="M653 1729l117 165h143l-223 -266h-98l-131 266h137zM413 -18q-321 0 -321 284q0 76 21 191l106 602q23 125 49 193t72 118q98 109 252 109t233 -68q78 -68 78 -190q0 -51 -14 -146h-137q8 72 8 111q0 168 -154 168q-102 0 -157 -75t-87 -253l-104 -590q-18 -102 -18 -155
q0 -174 159 -175q104 0 168 78q63 78 92 244l37 213h-180l21 121h329l-59 -332q-37 -221 -119 -321q-109 -127 -275 -127z" />
    <glyph glyph-name="gcaron" unicode="&#x1e7;" horiz-adv-x="806" 
d="M532 1300l117 166h144l-224 -266h-98l-131 266h137zM211 252q0 -145 106 -146q152 0 211 328l27 160q18 104 18 154q0 174 -116 174q-138 0 -183 -248l-53 -299q-10 -57 -10 -123zM68 233q0 82 18 181l49 280q33 186 106 270t199 83q126 0 195 -80l29 61h110l-199 -1137
q-35 -199 -113 -283t-207 -85q-249 0 -251 186q0 47 12 117h129q-6 -57 -6 -76q0 -109 105 -108q80 0 122 58q41 59 68 202l25 145q-72 -66 -168 -65q-223 0 -223 251z" />
    <glyph glyph-name="uni01EA" unicode="&#x1ea;" horiz-adv-x="944" 
d="M782 1201q0 63 -45 109t-138 46t-149 -73t-90 -251l-106 -602q-16 -94 -16 -164t45 -115q45 -47 138 -47t149 73t89 253l107 602q16 106 16 169zM436 -295q35 0 86 16l2 -83q-61 -27 -135 -27q-156 0 -156 119q0 129 164 252q-307 6 -307 292q0 70 19 168l110 633
q23 119 46 179q91 227 349 227q315 0 316 -293q0 -70 -17 -168l-112 -633q-49 -321 -258 -387l-8 -6l-9 -6q-158 -127 -157 -232q0 -51 67 -51z" />
    <glyph glyph-name="uni01EB" unicode="&#x1eb;" horiz-adv-x="796" 
d="M471 926q-82 0 -127 -58t-70 -198l-55 -312q-12 -78 -12 -122q0 -133 117 -134q82 0 126 58t70 198l55 312q14 80 15 123q0 133 -119 133zM365 -295q33 0 84 16l2 -83q-59 -27 -134 -27q-156 0 -155 119q0 131 153 252q-250 8 -249 245q0 68 18 172l49 285
q37 193 103 266q86 96 237 97q258 0 258 -246q0 -61 -20 -172l-49 -285q-23 -139 -66 -215t-119 -117l-12 -8q-80 -70 -103 -98q-66 -78 -65 -150q0 -51 68 -51z" />
    <glyph glyph-name="uni01F1" unicode="&#x1f1;" horiz-adv-x="1640" 
d="M860 0l14 84l660 1251h-406l23 127h571l-14 -84l-659 -1251h458l-22 -127h-625zM780 1169q0 168 -182 168h-160l-215 -1212h160q121 -2 185 70t96 241l102 590q14 76 14 143zM594 1462q172 0 246 -61q92 -74 92 -221q0 -61 -17 -156l-112 -641q-61 -391 -420 -383h-330
l258 1462h283z" />
    <glyph glyph-name="uni01F2" unicode="&#x1f2;" horiz-adv-x="1595" 
d="M911 0l15 82l483 823h-307l20 123h480l-15 -82l-487 -823h360l-20 -123h-529zM780 1169q0 168 -182 168h-160l-215 -1212h160q121 -2 185 70t96 241l102 590q14 76 14 143zM594 1462q172 0 246 -61q92 -74 92 -221q0 -61 -17 -156l-112 -641q-61 -391 -420 -383h-330
l258 1462h283z" />
    <glyph glyph-name="uni01F3" unicode="&#x1f3;" horiz-adv-x="1456" 
d="M770 0l14 82l486 823h-309l22 123h477l-14 -82l-485 -823h360l-23 -123h-528zM213 254q0 -147 106 -148q152 0 211 328l27 160q16 92 16 156q0 174 -116 174q-136 0 -181 -250l-51 -289q-12 -72 -12 -131zM485 0v68q-45 -50 -86 -68t-102 -18q-227 0 -227 251
q0 72 18 181l49 280q33 186 106 270t195 83q122 0 187 -74l86 489h143l-258 -1462h-111z" />
    <glyph glyph-name="uni01F4" unicode="&#x1f4;" horiz-adv-x="919" 
d="M573 1620l158 287h164l-215 -287h-107zM413 -18q-321 0 -321 284q0 76 21 191l106 602q23 125 49 193t72 118q98 109 252 109t233 -68q78 -68 78 -190q0 -51 -14 -146h-137q8 72 8 111q0 168 -154 168q-102 0 -157 -75t-87 -253l-104 -590q-18 -102 -18 -155
q0 -174 159 -175q104 0 168 78q63 78 92 244l37 213h-180l21 121h329l-59 -332q-37 -221 -119 -321q-109 -127 -275 -127z" />
    <glyph glyph-name="uni01F5" unicode="&#x1f5;" horiz-adv-x="806" 
d="M455 1192l157 287h164l-215 -287h-106zM211 252q0 -145 106 -146q152 0 211 328l27 160q18 104 18 154q0 174 -116 174q-138 0 -183 -248l-53 -299q-10 -57 -10 -123zM68 233q0 82 18 181l49 280q33 186 106 270t199 83q126 0 195 -80l29 61h110l-199 -1137
q-35 -199 -113 -283t-207 -85q-249 0 -251 186q0 47 12 117h129q-6 -57 -6 -76q0 -109 105 -108q80 0 122 58q41 59 68 202l25 145q-72 -66 -168 -65q-223 0 -223 251z" />
    <glyph glyph-name="Aringacute" unicode="&#x1fa;" horiz-adv-x="839" 
d="M580 1835l141 240h192l-233 -240h-100zM705 1632q0 84 -83 84q-42 0 -73 -46t-31 -125t76 -79q49 0 80 46t31 120zM580 451l-27 790l-309 -790h336zM420 1558q0 102 59 170q59 66 145 66t133 -46q46 -46 46 -125t-42 -142t-104 -84l99 -1397h-158l-12 328h-389l-127 -328
h-162l592 1407q-80 49 -80 151z" />
    <glyph glyph-name="aringacute" unicode="&#x1fb;" horiz-adv-x="763" 
d="M504 1622l141 242h193l-236 -242h-98zM621 1378q0 84 -83 84q-42 0 -73 -46t-31 -125t76 -79q49 0 80 46t31 120zM542 1540q85 0 131 -46t46 -129t-56 -157q-57 -74 -147 -74t-135 47q-45 46 -45 137t60 157q61 65 146 65zM381 485q-119 -1 -172 -71t-53 -203
q0 -57 30 -84t107 -27q76 0 115 44t59 167l31 174h-117zM428 926q-64 0 -104 -49t-60 -162h-133q29 176 102 254q74 78 211 78q242 0 242 -236q0 -66 -18 -172l-113 -639h-113l-2 43q-59 -61 -184 -61q-246 0 -246 206q0 86 25 172t61 136q84 104 271 104h151l14 76
q31 173 -14 221q-26 29 -90 29z" />
    <glyph glyph-name="AEacute" unicode="&#x1fc;" horiz-adv-x="1316" 
d="M1010 1620l157 287h164l-215 -287h-106zM647 465l154 870h-17l-493 -870h356zM625 342h-404l-192 -342h-172l860 1462h690l-23 -127h-438l-94 -532h373l-23 -127h-371l-98 -549h441l-23 -127h-586z" />
    <glyph glyph-name="aeacute" unicode="&#x1fd;" horiz-adv-x="1181" 
d="M629 1192l157 287h164l-215 -287h-106zM870 928q-80 0 -122 -56t-68 -194l-14 -74h299q25 139 24 193q0 131 -119 131zM381 487q-223 0 -223 -276q0 -57 30 -84t107 -27q76 0 114 44t58 167l33 176h-119zM438 1047q154 0 209 -107q88 106 232 107q246 0 245 -248
q0 -82 -43 -312h-440l-23 -129q-14 -88 -14 -120q0 -135 119 -136q80 0 125 52t65 170h134q-20 -154 -70 -226q-80 -116 -245 -116t-222 110q-90 -111 -254 -110q-246 0 -246 202q0 86 25 173t61 139q82 109 271 108h153l12 72q12 68 13 127q0 123 -109 123q-72 0 -112 -49
t-60 -162h-133q25 150 74 219q79 113 233 113z" />
    <glyph glyph-name="Oslashacute" unicode="&#x1fe;" horiz-adv-x="944" 
d="M584 1620l157 287h164l-215 -287h-106zM252 418l518 837q-36 101 -150 101t-170 -73t-90 -251zM766 1034l-514 -831q36 -97 150 -97t170 73t87 251l107 602v2zM930 1180q0 -62 -17 -160l-112 -633q-20 -115 -44 -176t-69 -117q-98 -112 -271 -112t-253 79l-58 -92l-98 56
l94 149q-12 50 -12 112t19 156l110 633q23 119 46 179q91 227 349 227q164 0 244 -82l55 88l99 -55l-92 -150q10 -40 10 -102z" />
    <glyph glyph-name="oslashacute" unicode="&#x1ff;" horiz-adv-x="796" 
d="M436 1192l158 287h164l-215 -287h-107zM213 313l365 551q-29 62 -109 62t-125 -58t-70 -198l-55 -312q-6 -41 -6 -45zM582 707l-361 -545q27 -60 106 -60t124 58t69 198l55 312q1 4 3 14t4 23zM731 805q0 -55 -20 -176l-49 -285q-33 -188 -103 -266q-84 -96 -221 -96
t-201 55l-47 -72l-76 49l68 103q-16 49 -16 115t18 167l49 285q35 190 103 266q84 96 221 96t202 -55l46 68l77 -49l-67 -101q16 -49 16 -104z" />
    <glyph glyph-name="uni0200" unicode="&#x200;" horiz-adv-x="839" 
d="M578 1620h-101l-84 287h150zM782 1620h-100l-84 287h150zM580 451l-27 790l-309 -790h336zM586 328h-389l-127 -328h-162l614 1462h129l105 -1462h-158z" />
    <glyph glyph-name="uni0201" unicode="&#x201;" horiz-adv-x="763" 
d="M463 1192h-101l-83 287h149zM668 1192h-101l-84 287h150zM381 485q-119 -1 -172 -71t-53 -203q0 -57 30 -84t107 -27q76 0 115 44t59 167l31 174h-117zM428 926q-64 0 -104 -49t-60 -162h-133q29 176 102 254q74 78 211 78q242 0 242 -236q0 -66 -18 -172l-113 -639h-113
l-2 43q-59 -61 -184 -61q-246 0 -246 206q0 86 25 172t61 136q84 104 271 104h151l14 76q31 173 -14 221q-26 29 -90 29z" />
    <glyph glyph-name="uni0202" unicode="&#x202;" horiz-adv-x="839" 
d="M735 1704q0 92 -86 92q-57 0 -88 -36t-53 -126h-98q18 113 43 164q55 106 198 107q186 0 187 -150q-1 -31 -13 -121h-96q6 53 6 70zM580 451l-27 790l-309 -790h336zM586 328h-389l-127 -328h-162l614 1462h129l105 -1462h-158z" />
    <glyph glyph-name="uni0203" unicode="&#x203;" horiz-adv-x="763" 
d="M532 1368q-57 0 -88 -36t-51 -126h-98q16 113 43 164q55 106 199 107q186 0 186 -150q0 -33 -12 -121h-97q6 53 7 70q0 92 -89 92zM381 485q-119 -1 -172 -71t-53 -203q0 -57 30 -84t107 -27q76 0 115 44t59 167l31 174h-117zM428 926q-64 0 -104 -49t-60 -162h-133
q29 176 102 254q74 78 211 78q242 0 242 -236q0 -66 -18 -172l-113 -639h-113l-2 43q-59 -61 -184 -61q-246 0 -246 206q0 86 25 172t61 136q84 104 271 104h151l14 76q31 173 -14 221q-26 29 -90 29z" />
    <glyph glyph-name="uni0204" unicode="&#x204;" horiz-adv-x="808" 
d="M602 1620h-100l-84 287h149zM807 1620h-100l-84 287h149zM55 0l258 1462h584l-23 -127h-434l-94 -532h369l-21 -127h-370l-97 -549h439l-23 -127h-588z" />
    <glyph glyph-name="uni0205" unicode="&#x205;" horiz-adv-x="778" 
d="M469 1192h-100l-84 287h149zM674 1192h-101l-84 287h150zM586 797q0 131 -119 131q-82 0 -124 -56t-67 -194l-14 -74h299q25 137 25 193zM209 231q0 -129 117 -129q78 0 120 52t64 170h133q-20 -154 -72 -228q-80 -115 -254 -114q-250 0 -249 254q0 68 18 176l45 254
q35 201 102 280q82 100 236 101q252 0 252 -248q0 -80 -43 -312h-436l-23 -131q-10 -72 -10 -125z" />
    <glyph glyph-name="uni0206" unicode="&#x206;" horiz-adv-x="808" 
d="M739 1704q0 92 -86 92q-57 0 -88 -36t-53 -126h-98q18 113 43 164q55 106 198 107q186 0 187 -150q-1 -31 -13 -121h-96q6 53 6 70zM55 0l258 1462h584l-23 -127h-434l-94 -532h369l-21 -127h-370l-97 -549h439l-23 -127h-588z" />
    <glyph glyph-name="uni0207" unicode="&#x207;" horiz-adv-x="778" 
d="M629 1276q0 92 -88 92q-57 0 -88 -36t-52 -126h-98q16 113 43 164q55 106 199 107q186 0 186 -150q0 -33 -12 -121h-96q6 53 6 70zM586 797q0 131 -119 131q-82 0 -124 -56t-67 -194l-14 -74h299q25 137 25 193zM209 231q0 -129 117 -129q78 0 120 52t64 170h133
q-20 -154 -72 -228q-80 -115 -254 -114q-250 0 -249 254q0 68 18 176l45 254q35 201 102 280q82 100 236 101q252 0 252 -248q0 -80 -43 -312h-436l-23 -131q-10 -72 -10 -125z" />
    <glyph glyph-name="uni0208" unicode="&#x208;" horiz-adv-x="436" 
d="M375 1620h-101l-84 287h150zM580 1620h-101l-84 287h150zM53 0l258 1462h150l-258 -1462h-150z" />
    <glyph glyph-name="uni0209" unicode="&#x209;" horiz-adv-x="393" 
d="M276 1192h-100l-84 287h150zM481 1192h-100l-84 287h149zM35 0l182 1028h141l-180 -1028h-143z" />
    <glyph glyph-name="uni020A" unicode="&#x20a;" horiz-adv-x="436" 
d="M532 1704q0 92 -86 92q-57 0 -88 -36t-53 -126h-98q18 113 43 164q55 106 199 107q186 0 186 -150q0 -31 -12 -121h-97q6 53 6 70zM53 0l258 1462h150l-258 -1462h-150z" />
    <glyph glyph-name="uni020B" unicode="&#x20b;" horiz-adv-x="391" 
d="M436 1276q0 92 -88 92q-57 0 -88 -36t-51 -126h-98q16 113 43 164q55 106 198 107q186 0 187 -150q-1 -33 -13 -121h-96q6 53 6 70zM35 0l182 1028h141l-180 -1028h-143z" />
    <glyph glyph-name="uni020C" unicode="&#x20c;" horiz-adv-x="944" 
d="M627 1620h-101l-84 287h150zM831 1620h-100l-84 287h150zM782 1201q0 63 -45 109t-138 46t-149 -73t-90 -251l-106 -602q-16 -98 -16 -164t45 -113t139 -47t150 73t87 251l107 602q16 106 16 169zM614 1481q315 0 316 -293q0 -70 -17 -168l-112 -633q-35 -203 -113 -293
q-100 -113 -282 -112q-315 0 -316 292q1 70 19 168l110 633q23 119 46 179q91 227 349 227z" />
    <glyph glyph-name="uni020D" unicode="&#x20d;" horiz-adv-x="796" 
d="M479 1192h-100l-84 287h149zM684 1192h-100l-84 287h149zM471 926q-82 0 -127 -58t-70 -198l-55 -312q-12 -78 -12 -122q0 -133 117 -134q82 0 126 58t70 198l55 312q14 80 15 123q0 133 -119 133zM731 801q0 -61 -20 -172l-49 -285q-33 -186 -101 -266q-88 -96 -237 -96
q-258 0 -258 245q0 68 18 172l49 285q37 193 103 266q86 96 237 97q258 0 258 -246z" />
    <glyph glyph-name="uni020E" unicode="&#x20e;" horiz-adv-x="944" 
d="M786 1704q0 92 -86 92q-57 0 -88 -36t-53 -126h-98q18 113 43 164q55 106 198 107q186 0 187 -150q0 -31 -12 -121h-97q6 53 6 70zM782 1201q0 63 -45 109t-138 46t-149 -73t-90 -251l-106 -602q-16 -98 -16 -164t45 -113t139 -47t150 73t87 251l107 602q16 106 16 169z
M614 1481q315 0 316 -293q0 -70 -17 -168l-112 -633q-35 -203 -113 -293q-100 -113 -282 -112q-315 0 -316 292q1 70 19 168l110 633q23 119 46 179q91 227 349 227z" />
    <glyph glyph-name="uni020F" unicode="&#x20f;" horiz-adv-x="796" 
d="M637 1276q0 92 -88 92q-57 0 -88 -36t-51 -126h-99q16 113 43 164q55 106 199 107q186 0 186 -150q0 -33 -12 -121h-96q6 53 6 70zM471 926q-82 0 -127 -58t-70 -198l-55 -312q-12 -78 -12 -122q0 -133 117 -134q82 0 126 58t70 198l55 312q14 80 15 123q0 133 -119 133z
M731 801q0 -61 -20 -172l-49 -285q-33 -186 -101 -266q-88 -96 -237 -96q-258 0 -258 245q0 68 18 172l49 285q37 193 103 266q86 96 237 97q258 0 258 -246z" />
    <glyph glyph-name="uni0210" unicode="&#x210;" horiz-adv-x="907" 
d="M561 1620h-100l-84 287h149zM766 1620h-100l-84 287h149zM457 766q86 0 134 22t85 76q80 117 80 291q0 98 -44 140t-147 42h-129l-100 -571h121zM569 1462q188 0 264 -72t76 -202q-1 -128 -33 -238t-87 -182q-55 -70 -164 -106l106 -662h-164l-88 645h-162l-112 -645
h-150l258 1462h256z" />
    <glyph glyph-name="uni0211" unicode="&#x211;" horiz-adv-x="555" 
d="M391 1192h-100l-84 287h149zM596 1192h-100l-84 287h149zM31 0l182 1028h111l2 -76q72 94 162 94t151 -53l-86 -121q-43 51 -88 52q-68 0 -116 -98t-87 -322l-88 -504h-143z" />
    <glyph glyph-name="uni0212" unicode="&#x212;" horiz-adv-x="907" 
d="M739 1704q0 92 -86 92q-57 0 -88 -36t-53 -126h-98q18 113 43 164q55 106 198 107q186 0 187 -150q-1 -31 -13 -121h-96q6 53 6 70zM457 766q86 0 134 22t85 76q80 117 80 291q0 98 -44 140t-147 42h-129l-100 -571h121zM569 1462q188 0 264 -72t76 -202
q-1 -128 -33 -238t-87 -182q-55 -70 -164 -106l106 -662h-164l-88 645h-162l-112 -645h-150l258 1462h256z" />
    <glyph glyph-name="uni0213" unicode="&#x213;" horiz-adv-x="555" 
d="M557 1276q0 92 -88 92q-57 0 -88 -36t-51 -126h-99q16 113 43 164q55 106 199 107q186 0 186 -150q0 -33 -12 -121h-96q6 53 6 70zM31 0l182 1028h111l2 -76q72 94 162 94t151 -53l-86 -121q-43 51 -88 52q-68 0 -116 -98t-87 -322l-88 -504h-143z" />
    <glyph glyph-name="uni0214" unicode="&#x214;" horiz-adv-x="962" 
d="M639 1620h-100l-84 287h149zM844 1620h-101l-84 287h150zM254 260q0 -154 160 -154q127 0 188 107q29 51 55 184l187 1065h149l-192 -1091q-23 -121 -41 -172t-58 -99q-102 -119 -288 -118q-307 0 -308 262q0 74 21 182l182 1036h150l-189 -1065q-16 -94 -16 -137z" />
    <glyph glyph-name="uni0215" unicode="&#x215;" horiz-adv-x="790" 
d="M475 1192h-100l-84 287h149zM680 1192h-100l-84 287h149zM215 229q0 -123 96 -123q78 0 124 74t75 242l108 606h142l-180 -1028h-109l4 80q-47 -55 -91 -77q-44 -21 -126 -21t-135 54t-53 140t22 211l113 641h143l-115 -651q-18 -96 -18 -148z" />
    <glyph glyph-name="uni0216" unicode="&#x216;" horiz-adv-x="962" 
d="M797 1704q0 92 -86 92q-57 0 -88 -36t-54 -126h-98q18 113 43 164q55 106 199 107q186 0 186 -150q0 -31 -12 -121h-96q6 53 6 70zM254 260q0 -154 160 -154q127 0 188 107q29 51 55 184l187 1065h149l-192 -1091q-23 -121 -41 -172t-58 -99q-102 -119 -288 -118
q-307 0 -308 262q0 74 21 182l182 1036h150l-189 -1065q-16 -94 -16 -137z" />
    <glyph glyph-name="uni0217" unicode="&#x217;" horiz-adv-x="790" 
d="M635 1276q0 92 -88 92q-57 0 -88 -36t-51 -126h-99q16 113 43 164q55 106 199 107q186 0 186 -150q0 -33 -12 -121h-96q6 53 6 70zM215 229q0 -123 96 -123q78 0 124 74t75 242l108 606h142l-180 -1028h-109l4 80q-47 -55 -91 -77q-44 -21 -126 -21t-135 54t-53 140
t22 211l113 641h143l-115 -651q-18 -96 -18 -148z" />
    <glyph glyph-name="Scommaaccent" unicode="&#x218;" horiz-adv-x="823" 
d="M102 -449l123 304h144l-168 -304h-99zM180 281q0 -176 162 -177q133 0 197 142q45 106 45 226t-75 165q-17 10 -119 57t-152 124t-50 198q0 182 90 322t263 141q135 0 211 -73t75 -204q0 -47 -14 -127h-139q10 61 10 109q0 170 -139 170q-107 0 -157 -106t-50 -200
t36 -143t126 -92q139 -63 186 -128t47 -191q0 -193 -84 -338q-102 -174 -311 -174q-139 0 -220 72t-81 200q0 60 18 158h135q-10 -82 -10 -131z" />
    <glyph glyph-name="scommaaccent" unicode="&#x219;" horiz-adv-x="712" 
d="M57 -449l123 304h144l-168 -304h-99zM150 218q0 -52 36 -84t109 -32q74 0 129 65t55 163q0 57 -33 84q-14 16 -29 22t-109 37t-139 85q-46 54 -46 151q0 153 81 245t208 92q126 0 192 -56q66 -58 66 -163q0 -37 -13 -106h-133q10 51 11 86q0 119 -111 119q-72 0 -117 -58
t-45 -130q0 -70 28 -100t122 -62t129 -56q78 -49 77 -168q0 -170 -91 -270t-231 -100t-211 59t-71 162q1 47 15 131h133q-12 -64 -12 -116z" />
    <glyph glyph-name="uni021A" unicode="&#x21a;" horiz-adv-x="706" 
d="M49 -449l123 304h143l-168 -304h-98zM188 0l236 1335h-252l23 127h653l-23 -127h-252l-235 -1335h-150z" />
    <glyph glyph-name="uni021B" unicode="&#x21b;" horiz-adv-x="479" 
d="M-29 -449l123 304h144l-168 -304h-99zM236 201q0 -78 88 -78h32l-22 -123h-35q-115 0 -163 34t-48 100t27 222l98 551h-88l20 121h88l66 330h135l-57 -330h135l-20 -121h-136l-106 -598q-14 -76 -14 -108z" />
    <glyph glyph-name="uni0226" unicode="&#x226;" horiz-adv-x="839" 
d="M541 1634l37 207h137l-35 -207h-139zM580 451l-27 790l-309 -790h336zM586 328h-389l-127 -328h-162l614 1462h129l105 -1462h-158z" />
    <glyph glyph-name="uni0227" unicode="&#x227;" horiz-adv-x="763" 
d="M434 1206l37 207h137l-35 -207h-139zM381 485q-119 -1 -172 -71t-53 -203q0 -57 30 -84t107 -27q76 0 115 44t59 167l31 174h-117zM428 926q-64 0 -104 -49t-60 -162h-133q29 176 102 254q74 78 211 78q242 0 242 -236q0 -66 -18 -172l-113 -639h-113l-2 43
q-59 -61 -184 -61q-246 0 -246 206q0 86 25 172t61 136q84 104 271 104h151l14 76q31 173 -14 221q-26 29 -90 29z" />
    <glyph glyph-name="uni0237" unicode="&#x237;" horiz-adv-x="399" 
d="M223 1028h144l-191 -1079q-37 -242 -121 -334t-260 -86l23 123q88 -6 138 64t77 237z" />
    <glyph glyph-name="afii57929" unicode="&#x2bc;" horiz-adv-x="274" 
d="M123 983l131 479h149l-161 -479h-119z" />
    <glyph glyph-name="uni02C0" unicode="&#x2c0;" horiz-adv-x="1024" 
d="M770 1831q0 39 -45 39t-113 -27l-12 94q84 31 145 31q156 0 156 -131q0 -39 -15 -65q-14 -26 -56 -66t-50 -56t-16 -55h-111q14 68 26 91q11 22 51 70t40 75z" />
    <glyph glyph-name="circumflex" unicode="&#x2c6;" horiz-adv-x="1024" 
d="M668 1370l-115 -168h-145l225 266h96l131 -266h-135z" />
    <glyph glyph-name="caron" unicode="&#x2c7;" horiz-adv-x="1024" 
d="M645 1300l117 166h143l-223 -266h-98l-131 266h137z" />
    <glyph glyph-name="uni02C9" unicode="&#x2c9;" horiz-adv-x="1024" 
d="M455 1270l18 108h383l-18 -108h-383z" />
    <glyph glyph-name="breve" unicode="&#x2d8;" horiz-adv-x="1024" 
d="M561 1386q0 -90 86 -90q57 0 88 36t53 126h99q-18 -121 -43 -164q-55 -106 -199 -106q-186 0 -186 149q0 39 12 121h96q-6 -53 -6 -72z" />
    <glyph glyph-name="dotaccent" unicode="&#x2d9;" horiz-adv-x="1024" 
d="M565 1206l37 207h137l-34 -207h-140z" />
    <glyph glyph-name="ring" unicode="&#x2da;" horiz-adv-x="1024" 
d="M760 1423q0 78 -74 78q-51 0 -82 -46t-31 -124t76 -78q49 0 80 46t31 124zM475 1359q1 91 61 157t145 65q85 0 131 -46t46 -129t-56 -157q-56 -73 -146 -73t-136 46q-45 46 -45 137z" />
    <glyph glyph-name="ogonek" unicode="&#x2db;" horiz-adv-x="1024" 
d="M410 -244q0 -51 67 -51q35 0 86 16v-83q-59 -27 -133 -27q-156 0 -156 121q0 72 54 142t147 126h115q-86 -68 -117 -102q-63 -74 -63 -142z" />
    <glyph glyph-name="tilde" unicode="&#x2dc;" horiz-adv-x="1024" 
d="M582 1446q60 0 103 -66q44 -66 65 -65q35 0 65 117h88q-31 -123 -67 -172q-36 -50 -102 -50q-65 0 -107 68q-25 41 -35 52t-25 11q-38 1 -69 -114h-88q33 117 72 168q40 51 100 51z" />
    <glyph glyph-name="hungarumlaut" unicode="&#x2dd;" horiz-adv-x="1024" 
d="M672 1192l135 287h149l-184 -287h-100zM467 1192l135 287h150l-185 -287h-100z" />
    <glyph glyph-name="uni0309" unicode="&#x309;" horiz-adv-x="1024" 
d="M696 1413q0 39 -47 39t-110 -27l-13 97q80 29 146 28q156 0 155 -131q0 -39 -15 -65q-16 -26 -56 -64q-40 -39 -49 -56t-17 -56h-108q10 61 19 83t52 73t43 79z" />
    <glyph glyph-name="uni0312" unicode="&#x312;" horiz-adv-x="1024" 
d="M551 1192l215 287h106l-157 -287h-164z" />
    <glyph glyph-name="uni0313" unicode="&#x313;" horiz-adv-x="120" 
d="M72 1024l118 453h140l-158 -453h-100z" />
    <glyph glyph-name="uni031B" unicode="&#x31b;" horiz-adv-x="120" 
d="M72 1024l118 453h140l-158 -453h-100z" />
    <glyph glyph-name="uni0323" unicode="&#x323;" horiz-adv-x="1024" 
d="M283 -393l36 207h138l-35 -207h-139z" />
    <glyph glyph-name="uni037E" unicode="&#x37e;" horiz-adv-x="389" 
d="M190 831l33 193h150l-33 -193h-150zM-94 -385l166 575h157l-196 -575h-127z" />
    <glyph glyph-name="uni0387" unicode="&#x387;" horiz-adv-x="391" 
d="M145 649l33 193h150l-33 -193h-150z" />
    <glyph glyph-name="uni04D4" unicode="&#x4d4;" horiz-adv-x="1316" 
d="M647 465l154 870h-17l-493 -870h356zM625 342h-404l-192 -342h-172l860 1462h690l-23 -127h-438l-94 -532h373l-23 -127h-371l-98 -549h441l-23 -127h-586z" />
    <glyph glyph-name="uni04D5" unicode="&#x4d5;" horiz-adv-x="1181" 
d="M870 928q-80 0 -122 -56t-68 -194l-14 -74h299q25 139 24 193q0 131 -119 131zM381 487q-223 0 -223 -276q0 -57 30 -84t107 -27q76 0 114 44t58 167l33 176h-119zM438 1047q154 0 209 -107q88 106 232 107q246 0 245 -248q0 -82 -43 -312h-440l-23 -129
q-14 -88 -14 -120q0 -135 119 -136q80 0 125 52t65 170h134q-20 -154 -70 -226q-80 -116 -245 -116t-222 110q-90 -111 -254 -110q-246 0 -246 202q0 86 25 173t61 139q82 109 271 108h153l12 72q12 68 13 127q0 123 -109 123q-72 0 -112 -49t-60 -162h-133q25 150 74 219
q79 113 233 113z" />
    <glyph glyph-name="uni1E02" unicode="&#x1e02;" horiz-adv-x="923" 
d="M563 1634l37 207h137l-35 -207h-139zM385 125q74 0 117 18t76 66q82 123 81 297q0 100 -35 142q-36 42 -122 42h-178l-101 -565h162zM514 815q109 0 164 80q80 102 80 266q0 96 -39 136t-133 40h-148l-92 -522h168zM580 1462q192 0 262 -70t70 -218q0 -146 -58 -258
q-57 -112 -149 -154q59 -43 83 -99t23 -155q0 -236 -115 -391q-49 -63 -112 -90t-168 -27h-363l258 1462h269z" />
    <glyph glyph-name="uni1E03" unicode="&#x1e03;" horiz-adv-x="806" 
d="M557 1206l37 207h137l-35 -207h-139zM596 780q0 141 -107 142q-156 0 -213 -328l-28 -160q-16 -102 -17 -151q0 -176 113 -177q139 1 188 265l52 288q12 80 12 121zM518 1047q221 0 221 -240q0 -63 -20 -193l-47 -256q-35 -200 -108 -288t-204 -88t-196 98l-25 -80h-110
l258 1462h143l-86 -489q72 74 174 74z" />
    <glyph glyph-name="uni1E0C" unicode="&#x1e0c;" horiz-adv-x="946" 
d="M209 -393l37 207h137l-35 -207h-139zM780 1169q0 168 -182 168h-160l-215 -1212h160q121 -2 185 70t96 241l102 590q14 76 14 143zM594 1462q172 0 246 -61q92 -74 92 -221q0 -61 -17 -156l-112 -641q-61 -391 -420 -383h-330l258 1462h283z" />
    <glyph glyph-name="uni1E0D" unicode="&#x1e0d;" horiz-adv-x="806" 
d="M186 -393l37 207h137l-34 -207h-140zM213 254q0 -147 106 -148q152 0 211 328l27 160q16 92 16 156q0 174 -116 174q-136 0 -181 -250l-51 -289q-12 -72 -12 -131zM485 0v68q-45 -50 -86 -68t-102 -18q-227 0 -227 251q0 72 18 181l49 280q33 186 106 270t195 83
q122 0 187 -74l86 489h143l-258 -1462h-111z" />
    <glyph glyph-name="uni1E1E" unicode="&#x1e1e;" horiz-adv-x="763" 
d="M557 1634l37 207h137l-35 -207h-139zM55 0l258 1462h578l-23 -127h-428l-96 -544h363l-23 -127h-362l-117 -664h-150z" />
    <glyph glyph-name="uni1E1F" unicode="&#x1e1f;" horiz-adv-x="477" 
d="M426 1634l37 207h137l-35 -207h-139zM217 907h-88l21 121h90l32 191q25 145 77 195t177 48h80l-20 -110h-37q-71 2 -95 -29t-44 -139l-29 -156h151l-22 -121h-150l-159 -907h-144z" />
    <glyph glyph-name="uni1E24" unicode="&#x1e24;" horiz-adv-x="952" 
d="M246 -393l37 207h137l-35 -207h-139zM53 0l258 1462h150l-117 -659h367l116 659h150l-258 -1462h-150l121 676h-368l-119 -676h-150z" />
    <glyph glyph-name="uni1E25" unicode="&#x1e25;" horiz-adv-x="808" 
d="M176 -393l37 207h137l-35 -207h-139zM739 852q0 -84 -20 -211l-115 -641h-141l115 653q16 94 16 138q0 131 -105 131q-84 0 -132 -73t-76 -243l-107 -606h-143l258 1462h143l-86 -479q76 63 180 63t158 -54q54 -56 55 -140z" />
    <glyph glyph-name="uni1E44" unicode="&#x1e44;" horiz-adv-x="1005" 
d="M643 1634l37 207h137l-35 -207h-139zM53 0l258 1462h148l227 -1143l201 1143h141l-258 -1462h-141l-232 1149l-202 -1149h-142z" />
    <glyph glyph-name="uni1E45" unicode="&#x1e45;" horiz-adv-x="808" 
d="M457 1206l37 207h137l-35 -207h-139zM739 851q0 -87 -20 -210l-115 -641h-141l115 653q16 96 16 140q0 129 -105 129q-84 0 -132 -73t-76 -243l-107 -606h-143l182 1028h109l-3 -67q49 49 95 67t130 18q86 0 140 -54t55 -141z" />
    <glyph glyph-name="uni1E5A" unicode="&#x1e5a;" horiz-adv-x="907" 
d="M223 -393l37 207h137l-35 -207h-139zM457 766q86 0 134 22t85 76q80 117 80 291q0 98 -44 140t-147 42h-129l-100 -571h121zM569 1462q188 0 264 -72t76 -202q-1 -128 -33 -238t-87 -182q-55 -70 -164 -106l106 -662h-164l-88 645h-162l-112 -645h-150l258 1462h256z" />
    <glyph glyph-name="uni1E5B" unicode="&#x1e5b;" horiz-adv-x="555" 
d="M-37 -393l37 207h137l-35 -207h-139zM31 0l180 1028h111l4 -76q72 94 174 95q74 0 139 -54l-86 -121q-43 51 -88 52q-70 0 -117 -98t-86 -322l-88 -504h-143z" />
    <glyph glyph-name="uni1E62" unicode="&#x1e62;" horiz-adv-x="823" 
d="M176 -393l37 207h137l-35 -207h-139zM180 281q0 -176 162 -177q133 0 197 142q45 106 45 226t-75 165q-17 10 -119 57t-152 124t-50 198q0 182 90 322t263 141q135 0 211 -73t75 -204q0 -47 -14 -127h-139q10 61 10 109q0 170 -139 170q-107 0 -157 -106t-50 -200
t36 -143t126 -92q139 -63 186 -128t47 -191q0 -193 -84 -338q-102 -174 -311 -174q-139 0 -220 72t-81 200q0 60 18 158h135q-10 -82 -10 -131z" />
    <glyph glyph-name="uni1E63" unicode="&#x1e63;" horiz-adv-x="712" 
d="M113 -393l37 207h137l-35 -207h-139zM150 218q0 -52 36 -84t109 -32q74 0 129 65t55 163q0 57 -33 84q-14 16 -29 22t-109 37t-139 85q-46 54 -46 151q0 153 81 245t208 92q126 0 192 -56q66 -58 66 -163q0 -37 -13 -106h-133q10 51 11 86q0 119 -111 119q-72 0 -117 -58
t-45 -130q0 -70 28 -100t122 -62t129 -56q78 -49 77 -168q0 -170 -91 -270t-231 -100t-211 59t-71 162q1 47 15 131h133q-12 -64 -12 -116z" />
    <glyph glyph-name="uni1E6C" unicode="&#x1e6c;" horiz-adv-x="706" 
d="M123 -393l37 207h137l-35 -207h-139zM188 0l236 1335h-252l23 127h653l-23 -127h-252l-235 -1335h-150z" />
    <glyph glyph-name="uni1E6D" unicode="&#x1e6d;" horiz-adv-x="479" 
d="M10 -393l37 207h137l-34 -207h-140zM322 123h32l-22 -123h-35q-115 0 -163 34t-48 101t29 221l96 551h-86l20 121h88l64 330h137l-59 -330h135l-21 -121h-135l-106 -598q-14 -76 -15 -108q0 -78 89 -78z" />
    <glyph glyph-name="Wgrave" unicode="&#x1e80;" horiz-adv-x="1269" 
d="M915 1620h-104l-117 287h152zM180 0l39 1462h148l-58 -1155l432 1155h111l25 -1155l350 1155h147l-475 -1462h-129l-29 1141l-430 -1141h-131z" />
    <glyph glyph-name="wgrave" unicode="&#x1e81;" horiz-adv-x="1083" 
d="M748 1192h-105l-117 287h152zM170 0l-25 1028h144l-8 -786l301 786h100l23 -786l268 786h145l-385 -1028h-119l-28 768l-297 -768h-119z" />
    <glyph glyph-name="Wacute" unicode="&#x1e82;" horiz-adv-x="1269" 
d="M748 1620l157 287h164l-215 -287h-106zM180 0l39 1462h148l-58 -1155l432 1155h111l25 -1155l350 1155h147l-475 -1462h-129l-29 1141l-430 -1141h-131z" />
    <glyph glyph-name="wacute" unicode="&#x1e83;" horiz-adv-x="1083" 
d="M580 1192l157 287h164l-215 -287h-106zM170 0l-25 1028h144l-8 -786l301 786h100l23 -786l268 786h145l-385 -1028h-119l-28 768l-297 -768h-119z" />
    <glyph glyph-name="Wdieresis" unicode="&#x1e84;" horiz-adv-x="1269" 
d="M903 1636l37 205h129l-37 -205h-129zM625 1636l37 205h126l-34 -205h-129zM180 0l39 1462h148l-58 -1155l432 1155h111l25 -1155l350 1155h147l-475 -1462h-129l-29 1141l-430 -1141h-131z" />
    <glyph glyph-name="wdieresis" unicode="&#x1e85;" horiz-adv-x="1083" 
d="M737 1208l35 205h129l-37 -205h-127zM461 1208l37 205h127l-35 -205h-129zM170 0l-25 1028h144l-8 -786l301 786h100l23 -786l268 786h145l-385 -1028h-119l-28 768l-297 -768h-119z" />
    <glyph glyph-name="uni1E92" unicode="&#x1e92;" horiz-adv-x="747" 
d="M164 -393l37 207h137l-35 -207h-139zM-33 0l15 84l659 1251h-405l22 127h571l-14 -84l-659 -1251h458l-22 -127h-625z" />
    <glyph glyph-name="uni1E93" unicode="&#x1e93;" horiz-adv-x="649" 
d="M109 -393l36 207h138l-35 -207h-139zM-35 0l15 82l485 823h-309l20 123h479l-14 -82l-485 -823h358l-20 -123h-529z" />
    <glyph glyph-name="uni1EA0" unicode="&#x1ea0;" horiz-adv-x="839" 
d="M225 -393l35 207h139l-37 -207h-137zM580 451l-27 790l-309 -790h336zM586 328h-389l-127 -328h-162l614 1462h129l105 -1462h-158z" />
    <glyph glyph-name="uni1EA1" unicode="&#x1ea1;" horiz-adv-x="763" 
d="M152 -393l36 207h138l-35 -207h-139zM381 485q-119 -1 -172 -71t-53 -203q0 -57 30 -84t107 -27q76 0 115 44t59 167l31 174h-117zM428 926q-64 0 -104 -49t-60 -162h-133q29 176 102 254q74 78 211 78q242 0 242 -236q0 -66 -18 -172l-113 -639h-113l-2 43
q-59 -61 -184 -61q-246 0 -246 206q0 86 25 172t61 136q84 104 271 104h151l14 76q31 173 -14 221q-26 29 -90 29z" />
    <glyph glyph-name="uni1EA2" unicode="&#x1ea2;" horiz-adv-x="839" 
d="M666 1831q0 39 -46 39t-112 -27l-12 94q84 31 143 31q158 0 158 -131q1 -39 -15 -65t-57 -65t-49 -55t-17 -57h-110q14 68 25 92q12 25 52 71t40 73zM580 451l-27 790l-309 -790h336zM586 328h-389l-127 -328h-162l614 1462h129l105 -1462h-158z" />
    <glyph glyph-name="uni1EA3" unicode="&#x1ea3;" horiz-adv-x="763" 
d="M565 1413q0 39 -47 39t-110 -27l-13 97q78 29 146 28q156 0 155 -131q0 -39 -15 -65t-57 -65q-42 -40 -49 -56q-8 -16 -16 -55h-110q12 61 21 83t52 73t43 79zM381 485q-119 -1 -172 -71t-53 -203q0 -57 30 -84t107 -27q76 0 115 44t59 167l31 174h-117zM428 926
q-64 0 -104 -49t-60 -162h-133q29 176 102 254q74 78 211 78q242 0 242 -236q0 -66 -18 -172l-113 -639h-113l-2 43q-59 -61 -184 -61q-246 0 -246 206q0 86 25 172t61 136q84 104 271 104h151l14 76q31 173 -14 221q-26 29 -90 29z" />
    <glyph glyph-name="uni1EA4" unicode="&#x1ea4;" horiz-adv-x="839" 
d="M631 1679l-119 -118h-143l229 215h90l154 -215h-131zM594 1829l129 231h127l-174 -231h-82zM580 451l-27 790l-309 -790h336zM586 328h-389l-127 -328h-162l614 1462h129l105 -1462h-158z" />
    <glyph glyph-name="uni1EA5" unicode="&#x1ea5;" horiz-adv-x="763" 
d="M516 1251l-119 -118h-143l229 215h90l154 -215h-131zM479 1403l129 231h127l-174 -231h-82zM381 485q-119 -1 -172 -71t-53 -203q0 -57 30 -84t107 -27q76 0 115 44t59 167l31 174h-117zM428 926q-64 0 -104 -49t-60 -162h-133q29 176 102 254q74 78 211 78
q242 0 242 -236q0 -66 -18 -172l-113 -639h-113l-2 43q-59 -61 -184 -61q-246 0 -246 206q0 86 25 172t61 136q84 104 271 104h151l14 76q31 173 -14 221q-26 29 -90 29z" />
    <glyph glyph-name="uni1EA6" unicode="&#x1ea6;" horiz-adv-x="839" 
d="M631 1679l-119 -118h-143l229 215h90l154 -215h-133zM702 1829h-73l-101 231h117zM580 451l-27 790l-309 -790h336zM586 328h-389l-127 -328h-162l614 1462h129l105 -1462h-158z" />
    <glyph glyph-name="uni1EA7" unicode="&#x1ea7;" horiz-adv-x="763" 
d="M516 1251l-119 -118h-143l229 215h90l154 -215h-131zM590 1403h-76l-98 231h114zM381 485q-119 -1 -172 -71t-53 -203q0 -57 30 -84t107 -27q76 0 115 44t59 167l31 174h-117zM428 926q-64 0 -104 -49t-60 -162h-133q29 176 102 254q74 78 211 78q242 0 242 -236
q0 -66 -18 -172l-113 -639h-113l-2 43q-59 -61 -184 -61q-246 0 -246 206q0 86 25 172t61 136q84 104 271 104h151l14 76q31 173 -14 221q-26 29 -90 29z" />
    <glyph glyph-name="uni1EA8" unicode="&#x1ea8;" horiz-adv-x="839" 
d="M627 1675l-119 -114h-141l227 204h88l156 -204h-131zM678 1964q0 31 -33 31q-27 0 -67 -21l-11 74q53 23 107 23q106 0 106 -93q0 -29 -9 -47t-44 -55t-37 -78h-90q8 57 43 100t35 66zM580 451l-27 790l-309 -790h336zM586 328h-389l-127 -328h-162l614 1462h129
l105 -1462h-158z" />
    <glyph glyph-name="uni1EA9" unicode="&#x1ea9;" horiz-adv-x="763" 
d="M512 1249l-119 -116h-141l227 206h90l154 -206h-131zM563 1536q0 31 -33 31q-25 0 -67 -19l-10 72q53 23 106 22q106 0 107 -92q0 -29 -10 -47t-42 -55q-33 -37 -39 -78h-90q8 57 43 99t35 67zM381 485q-119 -1 -172 -71t-53 -203q0 -57 30 -84t107 -27q76 0 115 44
t59 167l31 174h-117zM428 926q-64 0 -104 -49t-60 -162h-133q29 176 102 254q74 78 211 78q242 0 242 -236q0 -66 -18 -172l-113 -639h-113l-2 43q-59 -61 -184 -61q-246 0 -246 206q0 86 25 172t61 136q84 104 271 104h151l14 76q31 173 -14 221q-26 29 -90 29z" />
    <glyph glyph-name="uni1EAA" unicode="&#x1eaa;" horiz-adv-x="839" 
d="M637 1679l-121 -118h-141l229 215h88l156 -215h-133zM610 2056q53 0 88 -59t54 -60q33 0 65 105h78q-33 -115 -65 -157t-86 -42t-93 62q-23 37 -30 47q-8 10 -21 10q-37 0 -76 -104h-78q37 110 74 154t90 44zM580 451l-27 790l-309 -790h336zM586 328h-389l-127 -328
h-162l614 1462h129l105 -1462h-158z" />
    <glyph glyph-name="uni1EAB" unicode="&#x1eab;" horiz-adv-x="763" 
d="M522 1251l-119 -118h-143l229 215h91l153 -215h-133zM496 1626q53 0 90 -59q33 -59 51 -60q33 0 65 105h78q-32 -113 -64 -155t-87 -42t-90 62q-25 39 -33 48t-21 9q-36 0 -73 -104h-78q35 108 72 152t90 44zM381 485q-119 -1 -172 -71t-53 -203q0 -57 30 -84t107 -27
q76 0 115 44t59 167l31 174h-117zM428 926q-64 0 -104 -49t-60 -162h-133q29 176 102 254q74 78 211 78q242 0 242 -236q0 -66 -18 -172l-113 -639h-113l-2 43q-59 -61 -184 -61q-246 0 -246 206q0 86 25 172t61 136q84 104 271 104h151l14 76q31 173 -14 221q-26 29 -90 29
z" />
    <glyph glyph-name="uni1EAC" unicode="&#x1eac;" horiz-adv-x="839" 
d="M190 -393l37 207h138l-35 -207h-140zM635 1798l-117 -166h-145l225 264h98l131 -264h-137zM580 451l-27 790l-309 -790h336zM586 328h-389l-127 -328h-162l614 1462h129l105 -1462h-158z" />
    <glyph glyph-name="uni1EAD" unicode="&#x1ead;" horiz-adv-x="763" 
d="M152 -393l36 207h138l-35 -207h-139zM532 1370l-114 -168h-146l226 266h96l131 -266h-135zM381 485q-119 -1 -172 -71t-53 -203q0 -57 30 -84t107 -27q76 0 115 44t59 167l31 174h-117zM428 926q-64 0 -104 -49t-60 -162h-133q29 176 102 254q74 78 211 78
q242 0 242 -236q0 -66 -18 -172l-113 -639h-113l-2 43q-59 -61 -184 -61q-246 0 -246 206q0 86 25 172t61 136q84 104 271 104h151l14 76q31 173 -14 221q-26 29 -90 29z" />
    <glyph glyph-name="uni1EAE" unicode="&#x1eae;" horiz-adv-x="839" 
d="M518 1759q0 -98 107 -98q78 0 114 53q20 31 37 90h96q-20 -104 -53 -153q-61 -96 -207 -97q-188 0 -188 164q0 29 8 86h90q-4 -29 -4 -45zM594 1829l129 231h127l-174 -231h-82zM580 451l-27 790l-309 -790h336zM586 328h-389l-127 -328h-162l614 1462h129l105 -1462
h-158z" />
    <glyph glyph-name="uni1EAF" unicode="&#x1eaf;" horiz-adv-x="763" 
d="M510 1233q78 0 115 53q20 31 37 90h96q-23 -111 -51 -153q-66 -96 -209 -97q-98 0 -144 40q-45 40 -45 124q0 31 8 86h91q-4 -25 -5 -45q0 -98 107 -98zM479 1403l129 231h127l-174 -231h-82zM381 485q-119 -1 -172 -71t-53 -203q0 -57 30 -84t107 -27q76 0 115 44
t59 167l31 174h-117zM428 926q-64 0 -104 -49t-60 -162h-133q29 176 102 254q74 78 211 78q242 0 242 -236q0 -66 -18 -172l-113 -639h-113l-2 43q-59 -61 -184 -61q-246 0 -246 206q0 86 25 172t61 136q84 104 271 104h151l14 76q31 173 -14 221q-26 29 -90 29z" />
    <glyph glyph-name="uni1EB0" unicode="&#x1eb0;" horiz-adv-x="839" 
d="M518 1759q0 -98 107 -98q78 0 114 53q20 31 37 90h96q-20 -104 -53 -153q-61 -96 -207 -97q-188 0 -188 164q0 29 8 86h90q-4 -29 -4 -45zM709 1829h-76l-98 231h116zM580 451l-27 790l-309 -790h336zM586 328h-389l-127 -328h-162l614 1462h129l105 -1462h-158z" />
    <glyph glyph-name="uni1EB1" unicode="&#x1eb1;" horiz-adv-x="763" 
d="M510 1233q78 0 115 53q20 31 37 90h96q-23 -111 -51 -153q-66 -96 -209 -97q-98 0 -144 40q-45 40 -45 124q0 31 8 86h91q-4 -25 -5 -45q0 -98 107 -98zM594 1403h-76l-98 231h117zM381 485q-119 -1 -172 -71t-53 -203q0 -57 30 -84t107 -27q76 0 115 44t59 167l31 174
h-117zM428 926q-64 0 -104 -49t-60 -162h-133q29 176 102 254q74 78 211 78q242 0 242 -236q0 -66 -18 -172l-113 -639h-113l-2 43q-59 -61 -184 -61q-246 0 -246 206q0 86 25 172t61 136q84 104 271 104h151l14 76q31 173 -14 221q-26 29 -90 29z" />
    <glyph glyph-name="uni1EB2" unicode="&#x1eb2;" horiz-adv-x="839" 
d="M518 1759q0 -98 107 -98q78 0 114 53q20 31 37 90h96q-20 -104 -53 -153q-61 -96 -207 -97q-188 0 -188 164q0 29 8 86h90q-4 -29 -4 -45zM678 1964q0 31 -33 31q-23 0 -65 -21l-11 72q49 25 105 25q106 0 106 -95q0 -33 -9 -52t-46 -58q-31 -37 -39 -86h-88q8 59 44 109
t36 75zM580 451l-27 790l-309 -790h336zM586 328h-389l-127 -328h-162l614 1462h129l105 -1462h-158z" />
    <glyph glyph-name="uni1EB3" unicode="&#x1eb3;" horiz-adv-x="763" 
d="M510 1233q78 0 115 53q20 31 37 90h96q-23 -111 -51 -153q-66 -96 -209 -97q-98 0 -144 40q-45 40 -45 124q0 31 8 86h91q-4 -25 -5 -45q0 -98 107 -98zM563 1536q0 31 -33 31q-27 0 -65 -21l-10 74q53 23 106 22q104 0 105 -94q0 -33 -10 -52t-43 -58q-34 -39 -42 -86
h-88q10 63 45 108t35 76zM381 485q-119 -1 -172 -71t-53 -203q0 -57 30 -84t107 -27q76 0 115 44t59 167l31 174h-117zM428 926q-64 0 -104 -49t-60 -162h-133q29 176 102 254q74 78 211 78q242 0 242 -236q0 -66 -18 -172l-113 -639h-113l-2 43q-59 -61 -184 -61
q-246 0 -246 206q0 86 25 172t61 136q84 104 271 104h151l14 76q31 173 -14 221q-26 29 -90 29z" />
    <glyph glyph-name="uni1EB4" unicode="&#x1eb4;" horiz-adv-x="839" 
d="M510 1792v-12q-2 -16 -2 -31q0 -94 106 -94q61 0 95 31q33 31 53 106h90q-25 -104 -51 -145q-61 -92 -199 -93q-184 0 -184 160q0 27 6 78h86zM605 2062q54 0 89 -59t51 -59q33 0 68 104h78q-35 -115 -67 -157t-87 -42t-90 62q-23 39 -32 48t-19 9q-39 0 -76 -104h-78
q37 110 73 154t90 44zM580 451l-27 790l-309 -790h336zM586 328h-389l-127 -328h-162l614 1462h129l105 -1462h-158z" />
    <glyph glyph-name="uni1EB5" unicode="&#x1eb5;" horiz-adv-x="763" 
d="M393 1323q0 -96 107 -96q61 1 94 31t53 106h90q-23 -102 -51 -145q-61 -92 -199 -93q-184 0 -184 160q0 31 8 78h84q-2 -25 -2 -41zM490 1634q54 0 88 -59t53 -59q35 0 67 104h78q-36 -113 -68 -156t-86 -43q-54 -1 -88 59t-53 60q-38 0 -75 -104h-78q35 106 71 152
q37 46 91 46zM381 485q-119 -1 -172 -71t-53 -203q0 -57 30 -84t107 -27q76 0 115 44t59 167l31 174h-117zM428 926q-64 0 -104 -49t-60 -162h-133q29 176 102 254q74 78 211 78q242 0 242 -236q0 -66 -18 -172l-113 -639h-113l-2 43q-59 -61 -184 -61q-246 0 -246 206
q0 86 25 172t61 136q84 104 271 104h151l14 76q31 173 -14 221q-26 29 -90 29z" />
    <glyph glyph-name="uni1EB6" unicode="&#x1eb6;" horiz-adv-x="839" 
d="M225 -393l37 207h137l-37 -207h-137zM616 1616q-188 0 -188 151q0 41 12 119h97q-6 -61 -7 -69q0 -92 88 -93q57 0 89 36q31 36 51 126h100q-20 -121 -45 -164q-55 -106 -197 -106zM580 451l-27 790l-309 -790h336zM586 328h-389l-127 -328h-162l614 1462h129l105 -1462
h-158z" />
    <glyph glyph-name="uni1EB7" unicode="&#x1eb7;" horiz-adv-x="763" 
d="M152 -393l36 207h138l-35 -207h-139zM430 1386q0 -90 86 -90q59 0 90 36t51 126h99q-18 -121 -43 -164q-55 -106 -199 -106q-186 0 -186 149q0 33 12 121h96q-6 -55 -6 -72zM381 485q-119 -1 -172 -71t-53 -203q0 -57 30 -84t107 -27q76 0 115 44t59 167l31 174h-117z
M428 926q-64 0 -104 -49t-60 -162h-133q29 176 102 254q74 78 211 78q242 0 242 -236q0 -66 -18 -172l-113 -639h-113l-2 43q-59 -61 -184 -61q-246 0 -246 206q0 86 25 172t61 136q84 104 271 104h151l14 76q31 173 -14 221q-26 29 -90 29z" />
    <glyph glyph-name="uni1EB8" unicode="&#x1eb8;" horiz-adv-x="808" 
d="M256 -393l37 207h139l-37 -207h-139zM55 0l258 1462h584l-23 -127h-434l-94 -532h369l-21 -127h-370l-97 -549h439l-23 -127h-588z" />
    <glyph glyph-name="uni1EB9" unicode="&#x1eb9;" horiz-adv-x="778" 
d="M160 -393l37 207h137l-37 -207h-137zM586 797q0 131 -119 131q-82 0 -124 -56t-67 -194l-14 -74h299q25 137 25 193zM209 231q0 -129 117 -129q78 0 120 52t64 170h133q-20 -154 -72 -228q-80 -115 -254 -114q-250 0 -249 254q0 68 18 176l45 254q35 201 102 280
q82 100 236 101q252 0 252 -248q0 -80 -43 -312h-436l-23 -131q-10 -72 -10 -125z" />
    <glyph glyph-name="uni1EBA" unicode="&#x1eba;" horiz-adv-x="808" 
d="M670 1831q0 39 -46 39t-110 -27l-14 94q78 31 145 31q156 0 156 -131q1 -39 -15 -65t-57 -66t-49 -56t-16 -55h-109q12 68 24 91q11 22 51 70t40 75zM55 0l258 1462h584l-23 -127h-434l-94 -532h369l-21 -127h-370l-97 -549h439l-23 -127h-588z" />
    <glyph glyph-name="uni1EBB" unicode="&#x1ebb;" horiz-adv-x="778" 
d="M573 1413q0 39 -48 39t-109 -27l-13 97q78 29 144 28q158 0 158 -131q1 -39 -15 -65t-57 -65q-41 -40 -49 -55t-17 -56h-110q12 61 21 83t52 73t43 79zM586 797q0 131 -119 131q-82 0 -124 -56t-67 -194l-14 -74h299q25 137 25 193zM209 231q0 -129 117 -129q78 0 120 52
t64 170h133q-20 -154 -72 -228q-80 -115 -254 -114q-250 0 -249 254q0 68 18 176l45 254q35 201 102 280q82 100 236 101q252 0 252 -248q0 -80 -43 -312h-436l-23 -131q-10 -72 -10 -125z" />
    <glyph glyph-name="uni1EBC" unicode="&#x1ebc;" horiz-adv-x="808" 
d="M550 1876q58 0 103 -67t66 -66q35 0 65 117h88q-32 -123 -68 -172q-36 -50 -102 -50t-106 70q-23 39 -34 51t-25 13q-39 0 -70 -117h-88q33 117 73 169t98 52zM55 0l258 1462h584l-23 -127h-434l-94 -532h369l-21 -127h-370l-97 -549h439l-23 -127h-588z" />
    <glyph glyph-name="uni1EBD" unicode="&#x1ebd;" horiz-adv-x="778" 
d="M458 1446q60 0 104 -66t65 -65q35 0 65 117h88q-32 -123 -68 -172q-36 -50 -101 -50t-107 68q-25 41 -35 52t-25 11q-38 1 -69 -114h-88q33 117 72 168t99 51zM586 797q0 131 -119 131q-82 0 -124 -56t-67 -194l-14 -74h299q25 137 25 193zM209 231q0 -129 117 -129
q78 0 120 52t64 170h133q-20 -154 -72 -228q-80 -115 -254 -114q-250 0 -249 254q0 68 18 176l45 254q35 201 102 280q82 100 236 101q252 0 252 -248q0 -80 -43 -312h-436l-23 -131q-10 -72 -10 -125z" />
    <glyph glyph-name="uni1EBE" unicode="&#x1ebe;" horiz-adv-x="808" 
d="M641 1679l-121 -118h-141l229 215h88l154 -215h-131zM602 1829l129 231h127l-174 -231h-82zM55 0l258 1462h584l-23 -127h-434l-94 -532h369l-21 -127h-370l-97 -549h439l-23 -127h-588z" />
    <glyph glyph-name="uni1EBF" unicode="&#x1ebf;" horiz-adv-x="778" 
d="M524 1251l-118 -118h-144l230 215h90l153 -215h-133zM487 1403l127 231h127l-172 -231h-82zM586 797q0 131 -119 131q-82 0 -124 -56t-67 -194l-14 -74h299q25 137 25 193zM209 231q0 -129 117 -129q78 0 120 52t64 170h133q-20 -154 -72 -228q-80 -115 -254 -114
q-250 0 -249 254q0 68 18 176l45 254q35 201 102 280q82 100 236 101q252 0 252 -248q0 -80 -43 -312h-436l-23 -131q-10 -72 -10 -125z" />
    <glyph glyph-name="uni1EC0" unicode="&#x1ec0;" horiz-adv-x="808" 
d="M641 1679l-121 -118h-141l229 215h88l154 -215h-131zM713 1829h-76l-98 231h116zM55 0l258 1462h584l-23 -127h-434l-94 -532h369l-21 -127h-370l-97 -549h439l-23 -127h-588z" />
    <glyph glyph-name="uni1EC1" unicode="&#x1ec1;" horiz-adv-x="778" 
d="M524 1251l-118 -118h-144l230 215h90l153 -215h-133zM596 1403h-74l-100 231h117zM586 797q0 131 -119 131q-82 0 -124 -56t-67 -194l-14 -74h299q25 137 25 193zM209 231q0 -129 117 -129q78 0 120 52t64 170h133q-20 -154 -72 -228q-80 -115 -254 -114q-250 0 -249 254
q0 68 18 176l45 254q35 201 102 280q82 100 236 101q252 0 252 -248q0 -80 -43 -312h-436l-23 -131q-10 -72 -10 -125z" />
    <glyph glyph-name="uni1EC2" unicode="&#x1ec2;" horiz-adv-x="808" 
d="M637 1675l-119 -114h-143l227 204h90l156 -204h-133zM686 1964q0 31 -33 31q-27 0 -67 -21l-8 74q51 23 106 23q104 0 104 -93q0 -29 -9 -47t-43 -56t-38 -77h-88q8 61 42 102t34 64zM55 0l258 1462h584l-23 -127h-434l-94 -532h369l-21 -127h-370l-97 -549h439l-23 -127
h-588z" />
    <glyph glyph-name="uni1EC3" unicode="&#x1ec3;" horiz-adv-x="778" 
d="M520 1249l-119 -116h-143l229 206h88l156 -206h-131zM539 1567q-25 0 -68 -19l-10 72q53 23 106 22q106 0 107 -92q0 -29 -9 -47t-44 -56t-37 -77h-90q8 57 43 100t34 66q0 31 -32 31zM586 797q0 131 -119 131q-82 0 -124 -56t-67 -194l-14 -74h299q25 137 25 193z
M209 231q0 -129 117 -129q78 0 120 52t64 170h133q-20 -154 -72 -228q-80 -115 -254 -114q-250 0 -249 254q0 68 18 176l45 254q35 201 102 280q82 100 236 101q252 0 252 -248q0 -80 -43 -312h-436l-23 -131q-10 -72 -10 -125z" />
    <glyph glyph-name="uni1EC4" unicode="&#x1ec4;" horiz-adv-x="808" 
d="M645 1679l-119 -118h-143l229 215h90l154 -215h-131zM619 2056q53 0 89 -59t52 -60q33 0 67 105h78q-35 -115 -67 -157t-86 -42q-55 -1 -89 59t-53 60q-36 0 -75 -104h-78q37 110 73 154t89 44zM55 0l258 1462h584l-23 -127h-434l-94 -532h369l-21 -127h-370l-97 -549
h439l-23 -127h-588z" />
    <glyph glyph-name="uni1EC5" unicode="&#x1ec5;" horiz-adv-x="778" 
d="M530 1251l-120 -118h-142l230 215h88l153 -215h-131zM503 1626q54 0 89 -59t53 -60q33 0 66 105h77q-34 -113 -66 -155t-85 -42t-92 62q-23 37 -31 47t-20 10q-37 0 -76 -104h-78q37 108 73 152t90 44zM586 797q0 131 -119 131q-82 0 -124 -56t-67 -194l-14 -74h299
q25 137 25 193zM209 231q0 -129 117 -129q78 0 120 52t64 170h133q-20 -154 -72 -228q-80 -115 -254 -114q-250 0 -249 254q0 68 18 176l45 254q35 201 102 280q82 100 236 101q252 0 252 -248q0 -80 -43 -312h-436l-23 -131q-10 -72 -10 -125z" />
    <glyph glyph-name="uni1EC6" unicode="&#x1ec6;" horiz-adv-x="808" 
d="M256 -393l37 207h139l-37 -207h-139zM659 1798l-114 -166h-146l226 264h98l131 -264h-137zM55 0l258 1462h584l-23 -127h-434l-94 -532h369l-21 -127h-370l-97 -549h439l-23 -127h-588z" />
    <glyph glyph-name="uni1EC7" unicode="&#x1ec7;" horiz-adv-x="778" 
d="M160 -393l37 207h137l-37 -207h-137zM549 1370l-115 -168h-145l223 266h98l131 -266h-135zM586 797q0 131 -119 131q-82 0 -124 -56t-67 -194l-14 -74h299q25 137 25 193zM209 231q0 -129 117 -129q78 0 120 52t64 170h133q-20 -154 -72 -228q-80 -115 -254 -114
q-250 0 -249 254q0 68 18 176l45 254q35 201 102 280q82 100 236 101q252 0 252 -248q0 -80 -43 -312h-436l-23 -131q-10 -72 -10 -125z" />
    <glyph glyph-name="uni1EC8" unicode="&#x1ec8;" horiz-adv-x="436" 
d="M469 1831q0 39 -45 39t-111 -27l-14 94q84 31 145 31q156 0 156 -131q0 -39 -15 -65t-57 -66t-49 -56q-8 -16 -16 -55h-109q12 68 24 91q11 22 51 70t40 75zM53 0l258 1462h150l-258 -1462h-150z" />
    <glyph glyph-name="uni1EC9" unicode="&#x1ec9;" horiz-adv-x="393" 
d="M381 1413q0 39 -47 39t-111 -27l-12 97q78 29 145 28q156 0 156 -131q0 -39 -15 -65t-57 -65q-42 -40 -49 -56q-8 -16 -16 -55h-111q12 61 22 83q9 22 52 73t43 79zM35 0l182 1028h141l-180 -1028h-143z" />
    <glyph glyph-name="uni1ECA" unicode="&#x1eca;" horiz-adv-x="436" 
d="M-12 -393l37 207h137l-35 -207h-139zM53 0l258 1462h148l-256 -1462h-150z" />
    <glyph glyph-name="uni1ECB" unicode="&#x1ecb;" horiz-adv-x="393" 
d="M-33 -393l37 207h137l-35 -207h-139zM35 0l182 1028h143l-182 -1028h-143zM258 1255l37 211h141l-37 -211h-141z" />
    <glyph glyph-name="uni1ECC" unicode="&#x1ecc;" horiz-adv-x="944" 
d="M242 -393l37 207h137l-35 -207h-139zM782 1201q0 63 -45 109t-138 46t-149 -73t-90 -251l-106 -602q-16 -98 -16 -164t45 -113t139 -47t150 73t87 251l107 602q16 106 16 169zM614 1481q315 0 316 -293q0 -70 -17 -168l-112 -633q-35 -203 -113 -293q-100 -113 -282 -112
q-315 0 -316 292q1 70 19 168l110 633q23 119 46 179q91 227 349 227z" />
    <glyph glyph-name="uni1ECD" unicode="&#x1ecd;" horiz-adv-x="796" 
d="M168 -393l37 207h139l-37 -207h-139zM471 926q-82 0 -127 -58t-70 -198l-55 -312q-12 -78 -12 -122q0 -133 117 -134q82 0 126 58t70 198l55 312q14 80 15 123q0 133 -119 133zM731 801q0 -61 -20 -172l-49 -285q-33 -186 -101 -266q-88 -96 -237 -96q-258 0 -258 245
q0 68 18 172l49 285q37 193 103 266q86 96 237 97q258 0 258 -246z" />
    <glyph glyph-name="uni1ECE" unicode="&#x1ece;" horiz-adv-x="944" 
d="M729 1831q0 39 -48 39t-108 -27l-14 94q78 31 146 31q156 0 155 -131q0 -39 -15 -65t-55 -65t-49 -55q-8 -16 -18 -57h-109q12 65 24 89t62 83q29 39 29 64zM782 1201q0 63 -45 109t-138 46t-149 -73t-90 -251l-106 -602q-16 -98 -16 -164t45 -113t139 -47t150 73t87 251
l107 602q16 106 16 169zM614 1481q315 0 316 -293q0 -70 -17 -168l-112 -633q-35 -203 -113 -293q-100 -113 -282 -112q-315 0 -316 292q1 70 19 168l110 633q23 119 46 179q91 227 349 227z" />
    <glyph glyph-name="uni1ECF" unicode="&#x1ecf;" horiz-adv-x="796" 
d="M582 1413q0 39 -48 39t-108 -27l-14 97q80 29 145 28q156 0 156 -131q1 -39 -15 -65t-57 -65q-41 -40 -49 -56t-17 -55h-108q12 68 23 90t63 82q29 39 29 63zM471 926q-82 0 -127 -58t-70 -198l-55 -312q-12 -78 -12 -122q0 -133 117 -134q82 0 126 58t70 198l55 312
q14 80 15 123q0 133 -119 133zM731 801q0 -61 -20 -172l-49 -285q-33 -186 -101 -266q-88 -96 -237 -96q-258 0 -258 245q0 68 18 172l49 285q37 193 103 266q86 96 237 97q258 0 258 -246z" />
    <glyph glyph-name="uni1ED0" unicode="&#x1ed0;" horiz-adv-x="944" 
d="M682 1679l-119 -118h-143l229 215h90l154 -215h-133zM645 1829l129 231h127l-174 -231h-82zM782 1201q0 63 -45 109t-138 46t-149 -73t-90 -251l-106 -602q-16 -98 -16 -164t45 -113t139 -47t150 73t87 251l107 602q16 106 16 169zM614 1481q315 0 316 -293
q0 -70 -17 -168l-112 -633q-35 -203 -113 -293q-100 -113 -282 -112q-315 0 -316 292q1 70 19 168l110 633q23 119 46 179q91 227 349 227z" />
    <glyph glyph-name="uni1ED1" unicode="&#x1ed1;" horiz-adv-x="796" 
d="M535 1251l-121 -118h-142l230 215h88l153 -215h-131zM496 1403l129 231h127l-174 -231h-82zM471 926q-82 0 -127 -58t-70 -198l-55 -312q-12 -78 -12 -122q0 -133 117 -134q82 0 126 58t70 198l55 312q14 80 15 123q0 133 -119 133zM731 801q0 -61 -20 -172l-49 -285
q-33 -186 -101 -266q-88 -96 -237 -96q-258 0 -258 245q0 68 18 172l49 285q37 193 103 266q86 96 237 97q258 0 258 -246z" />
    <glyph glyph-name="uni1ED2" unicode="&#x1ed2;" horiz-adv-x="944" 
d="M682 1679l-119 -118h-143l229 215h90l154 -215h-133zM754 1829h-74l-100 231h116zM782 1201q0 63 -45 109t-138 46t-149 -73t-90 -251l-106 -602q-16 -98 -16 -164t45 -113t139 -47t150 73t87 251l107 602q16 106 16 169zM614 1481q315 0 316 -293q0 -70 -17 -168
l-112 -633q-35 -203 -113 -293q-100 -113 -282 -112q-315 0 -316 292q1 70 19 168l110 633q23 119 46 179q91 227 349 227z" />
    <glyph glyph-name="uni1ED3" unicode="&#x1ed3;" horiz-adv-x="796" 
d="M535 1251l-121 -118h-142l230 215h88l153 -215h-131zM606 1403h-76l-98 231h117zM471 926q-82 0 -127 -58t-70 -198l-55 -312q-12 -78 -12 -122q0 -133 117 -134q82 0 126 58t70 198l55 312q14 80 15 123q0 133 -119 133zM731 801q0 -61 -20 -172l-49 -285
q-33 -186 -101 -266q-88 -96 -237 -96q-258 0 -258 245q0 68 18 172l49 285q37 193 103 266q86 96 237 97q258 0 258 -246z" />
    <glyph glyph-name="uni1ED4" unicode="&#x1ed4;" horiz-adv-x="944" 
d="M678 1675l-119 -114h-141l227 204h88l156 -204h-131zM729 1964q0 31 -33 31q-27 0 -67 -21l-11 74q51 23 107 23q106 0 106 -93q0 -29 -9 -47t-44 -55t-37 -78h-90q8 57 43 99t35 67zM782 1201q0 63 -45 109t-138 46t-149 -73t-90 -251l-106 -602q-16 -98 -16 -164
t45 -113t139 -47t150 73t87 251l107 602q16 106 16 169zM614 1481q315 0 316 -293q0 -70 -17 -168l-112 -633q-35 -203 -113 -293q-100 -113 -282 -112q-315 0 -316 292q1 70 19 168l110 633q23 119 46 179q91 227 349 227z" />
    <glyph glyph-name="uni1ED5" unicode="&#x1ed5;" horiz-adv-x="796" 
d="M530 1249l-120 -116h-142l228 206h90l155 -206h-133zM580 1536q0 31 -33 31q-25 0 -68 -19l-8 72q53 23 107 22q104 0 104 -92q0 -29 -9 -47t-42 -55t-39 -78h-88q8 61 42 102t34 64zM471 926q-82 0 -127 -58t-70 -198l-55 -312q-12 -78 -12 -122q0 -133 117 -134
q82 0 126 58t70 198l55 312q14 80 15 123q0 133 -119 133zM731 801q0 -61 -20 -172l-49 -285q-33 -186 -101 -266q-88 -96 -237 -96q-258 0 -258 245q0 68 18 172l49 285q37 193 103 266q86 96 237 97q258 0 258 -246z" />
    <glyph glyph-name="uni1ED6" unicode="&#x1ed6;" horiz-adv-x="944" 
d="M688 1679l-121 -118h-141l229 215h88l156 -215h-133zM662 2056q54 0 88 -59q35 -59 53 -60q33 0 65 105h78q-34 -115 -66 -157t-85 -42t-93 62q-23 37 -30 47q-8 10 -21 10q-37 0 -76 -104h-77q38 110 74 154t90 44zM782 1201q0 63 -45 109t-138 46t-149 -73t-90 -251
l-106 -602q-16 -98 -16 -164t45 -113t139 -47t150 73t87 251l107 602q16 106 16 169zM614 1481q315 0 316 -293q0 -70 -17 -168l-112 -633q-35 -203 -113 -293q-100 -113 -282 -112q-315 0 -316 292q1 70 19 168l110 633q23 119 46 179q91 227 349 227z" />
    <glyph glyph-name="uni1ED7" unicode="&#x1ed7;" horiz-adv-x="796" 
d="M539 1251l-119 -118h-144l230 215h90l154 -215h-134zM513 1626q54 0 88 -59t52 -60q33 0 66 105h78q-33 -113 -65 -155t-87 -42t-90 62q-25 39 -33 48t-20 9q-37 0 -74 -104h-78q37 108 73 152t90 44zM471 926q-82 0 -127 -58t-70 -198l-55 -312q-12 -78 -12 -122
q0 -133 117 -134q82 0 126 58t70 198l55 312q14 80 15 123q0 133 -119 133zM731 801q0 -61 -20 -172l-49 -285q-33 -186 -101 -266q-88 -96 -237 -96q-258 0 -258 245q0 68 18 172l49 285q37 193 103 266q86 96 237 97q258 0 258 -246z" />
    <glyph glyph-name="uni1ED8" unicode="&#x1ed8;" horiz-adv-x="944" 
d="M242 -393l37 207h137l-35 -207h-139zM694 1798l-114 -166h-146l225 264h99l131 -264h-137zM782 1201q0 63 -45 109t-138 46t-149 -73t-90 -251l-106 -602q-16 -98 -16 -164t45 -113t139 -47t150 73t87 251l107 602q16 106 16 169zM614 1481q315 0 316 -293
q0 -70 -17 -168l-112 -633q-35 -203 -113 -293q-100 -113 -282 -112q-315 0 -316 292q1 70 19 168l110 633q23 119 46 179q91 227 349 227z" />
    <glyph glyph-name="uni1ED9" unicode="&#x1ed9;" horiz-adv-x="796" 
d="M168 -393l37 207h139l-37 -207h-139zM553 1370l-117 -168h-143l223 266h98l131 -266h-137zM471 926q-82 0 -127 -58t-70 -198l-55 -312q-12 -78 -12 -122q0 -133 117 -134q82 0 126 58t70 198l55 312q14 80 15 123q0 133 -119 133zM731 801q0 -61 -20 -172l-49 -285
q-33 -186 -101 -266q-88 -96 -237 -96q-258 0 -258 245q0 68 18 172l49 285q37 193 103 266q86 96 237 97q258 0 258 -246z" />
    <glyph glyph-name="uni1EDA" unicode="&#x1eda;" horiz-adv-x="1003" 
d="M627 1620l157 287h164l-215 -287h-106zM782 1199q0 65 -45 111t-138 46t-149 -73t-90 -251l-106 -602q-16 -98 -16 -164t45 -113t139 -47t150 73t87 251l107 602q16 102 16 167zM1171 1483v-39q0 -113 -57 -191q-45 -66 -190 -153q-2 -18 -11 -80l-112 -633
q-35 -203 -113 -293q-100 -113 -282 -112q-315 0 -316 290q0 76 19 170l110 633q35 201 115 291q98 115 280 115q305 0 316 -281q123 100 123 223q0 17 -6 60h124z" />
    <glyph glyph-name="uni1EDB" unicode="&#x1edb;" horiz-adv-x="851" 
d="M473 1192l158 287h164l-215 -287h-107zM471 926q-82 0 -127 -58t-70 -198l-55 -312q-12 -78 -12 -122q0 -133 117 -134q82 0 126 58t70 198l55 312q14 80 15 125q0 131 -119 131zM717 657q-4 -7 -4 -17t-4 -24l-47 -272q-35 -190 -103 -266q-84 -96 -237 -96
q-256 0 -256 247q0 61 18 170l49 285q35 190 103 266q84 96 235 97q260 0 260 -244q0 -20 -2 -37q109 111 109 221q-1 22 -9 55h125q2 -25 2 -45q0 -199 -239 -331v-9z" />
    <glyph glyph-name="uni1EDC" unicode="&#x1edc;" horiz-adv-x="1003" 
d="M768 1620h-102l-117 287h151zM782 1199q0 65 -45 111t-138 46t-149 -73t-90 -251l-106 -602q-16 -98 -16 -164t45 -113t139 -47t150 73t87 251l107 602q16 102 16 167zM1171 1483v-39q0 -113 -57 -191q-45 -66 -190 -153q-2 -18 -11 -80l-112 -633q-35 -203 -113 -293
q-100 -113 -282 -112q-315 0 -316 290q0 76 19 170l110 633q35 201 115 291q98 115 280 115q305 0 316 -281q123 100 123 223q0 17 -6 60h124z" />
    <glyph glyph-name="uni1EDD" unicode="&#x1edd;" horiz-adv-x="851" 
d="M582 1192h-105l-117 287h152zM471 926q-82 0 -127 -58t-70 -198l-55 -312q-12 -78 -12 -122q0 -133 117 -134q82 0 126 58t70 198l55 312q14 80 15 125q0 131 -119 131zM717 657q-4 -7 -4 -17t-4 -24l-47 -272q-35 -190 -103 -266q-84 -96 -237 -96q-256 0 -256 247
q0 61 18 170l49 285q35 190 103 266q84 96 235 97q260 0 260 -244q0 -20 -2 -37q109 111 109 221q-1 22 -9 55h125q2 -25 2 -45q0 -199 -239 -331v-9z" />
    <glyph glyph-name="uni1EDE" unicode="&#x1ede;" horiz-adv-x="1003" 
d="M719 1831q0 39 -45 39t-111 -27l-14 94q78 31 145 31q156 0 156 -131q0 -39 -15 -65t-57 -66t-49 -56q-8 -16 -16 -55h-109q12 68 24 91q11 22 51 70t40 75zM782 1199q0 65 -45 111t-138 46t-149 -73t-90 -251l-106 -602q-16 -98 -16 -164t45 -113t139 -47t150 73t87 251
l107 602q16 102 16 167zM1171 1483v-39q0 -113 -57 -191q-45 -66 -190 -153q-2 -18 -11 -80l-112 -633q-35 -203 -113 -293q-100 -113 -282 -112q-315 0 -316 290q0 76 19 170l110 633q35 201 115 291q98 115 280 115q305 0 316 -281q123 100 123 223q0 17 -6 60h124z" />
    <glyph glyph-name="uni1EDF" unicode="&#x1edf;" horiz-adv-x="851" 
d="M573 1413q0 39 -47 39t-108 -27l-12 97q78 29 143 28q156 0 156 -131q-1 -39 -15 -63t-67 -76q-29 -31 -37 -46t-17 -56h-110q12 61 21 83t51 73t42 79zM471 926q-82 0 -127 -58t-70 -198l-55 -312q-12 -78 -12 -122q0 -133 117 -134q82 0 126 58t70 198l55 312
q14 80 15 125q0 131 -119 131zM717 657q-4 -7 -4 -17t-4 -24l-47 -272q-35 -190 -103 -266q-84 -96 -237 -96q-256 0 -256 247q0 61 18 170l49 285q35 190 103 266q84 96 235 97q260 0 260 -244q0 -20 -2 -37q109 111 109 221q-1 22 -9 55h125q2 -25 2 -45q0 -199 -239 -331
v-9z" />
    <glyph glyph-name="uni1EE0" unicode="&#x1ee0;" horiz-adv-x="1003" 
d="M608 1876q59 0 105 -66q41 -68 63 -67q37 0 68 117h88q-31 -123 -68 -172q-36 -50 -102 -50t-107 70q-23 39 -33 51q-11 12 -26 13q-39 0 -70 -117h-88q33 117 72 169t98 52zM782 1199q0 65 -45 111t-138 46t-149 -73t-90 -251l-106 -602q-16 -98 -16 -164t45 -113
t139 -47t150 73t87 251l107 602q16 102 16 167zM1171 1483v-39q0 -113 -57 -191q-45 -66 -190 -153q-2 -18 -11 -80l-112 -633q-35 -203 -113 -293q-100 -113 -282 -112q-315 0 -316 290q0 76 19 170l110 633q35 201 115 291q98 115 280 115q305 0 316 -281q123 100 123 223
q0 17 -6 60h124z" />
    <glyph glyph-name="uni1EE1" unicode="&#x1ee1;" horiz-adv-x="851" 
d="M462 1446q60 0 102 -66t65 -65q37 0 67 117h88q-32 -123 -68 -172q-36 -50 -101 -50t-107 68q-25 41 -35 52t-24 11q-39 1 -70 -114h-88q33 117 71 168q40 51 100 51zM471 926q-82 0 -127 -58t-70 -198l-55 -312q-12 -78 -12 -122q0 -133 117 -134q82 0 126 58t70 198
l55 312q14 80 15 125q0 131 -119 131zM717 657q-4 -7 -4 -17t-4 -24l-47 -272q-35 -190 -103 -266q-84 -96 -237 -96q-256 0 -256 247q0 61 18 170l49 285q35 190 103 266q84 96 235 97q260 0 260 -244q0 -20 -2 -37q109 111 109 221q-1 22 -9 55h125q2 -25 2 -45
q0 -199 -239 -331v-9z" />
    <glyph glyph-name="uni1EE2" unicode="&#x1ee2;" horiz-adv-x="1003" 
d="M270 -393l37 207h137l-34 -207h-140zM782 1199q0 65 -45 111t-138 46t-149 -73t-90 -251l-106 -602q-16 -98 -16 -164t45 -113t139 -47t150 73t87 251l107 602q16 102 16 167zM1171 1483v-39q0 -113 -57 -191q-45 -66 -190 -153q-2 -18 -11 -80l-112 -633
q-35 -203 -113 -293q-100 -113 -282 -112q-315 0 -316 290q0 76 19 170l110 633q35 201 115 291q98 115 280 115q305 0 316 -281q123 100 123 223q0 17 -6 60h124z" />
    <glyph glyph-name="uni1EE3" unicode="&#x1ee3;" horiz-adv-x="851" 
d="M184 -393l37 207h139l-36 -207h-140zM471 926q-82 0 -127 -58t-70 -198l-55 -312q-12 -78 -12 -122q0 -133 117 -134q82 0 126 58t70 198l55 312q14 80 15 125q0 131 -119 131zM717 657q-4 -7 -4 -17t-4 -24l-47 -272q-35 -190 -103 -266q-84 -96 -237 -96
q-256 0 -256 247q0 61 18 170l49 285q35 190 103 266q84 96 235 97q260 0 260 -244q0 -20 -2 -37q109 111 109 221q-1 22 -9 55h125q2 -25 2 -45q0 -199 -239 -331v-9z" />
    <glyph glyph-name="uni1EE4" unicode="&#x1ee4;" horiz-adv-x="962" 
d="M252 -393l37 207h139l-37 -207h-139zM254 260q0 -154 160 -154q127 0 188 107q29 51 55 184l187 1065h149l-192 -1091q-23 -121 -41 -172t-58 -99q-102 -119 -288 -118q-307 0 -308 262q0 74 21 182l182 1036h150l-189 -1065q-16 -94 -16 -137z" />
    <glyph glyph-name="uni1EE5" unicode="&#x1ee5;" horiz-adv-x="790" 
d="M166 -393l37 207h137l-37 -207h-137zM215 229q0 -123 96 -123q78 0 124 74t75 242l108 606h142l-180 -1028h-109l4 80q-47 -55 -91 -77q-44 -21 -126 -21t-135 54t-53 140t22 211l113 641h143l-115 -651q-18 -96 -18 -148z" />
    <glyph glyph-name="uni1EE6" unicode="&#x1ee6;" horiz-adv-x="962" 
d="M694 1870q-45 0 -110 -27l-15 94q80 31 146 31q156 0 155 -131q0 -39 -15 -65t-55 -65t-49 -55q-8 -16 -16 -57h-110q12 68 24 92t62 80q29 39 28 64q0 39 -45 39zM254 260q0 -154 160 -154q127 0 188 107q29 51 55 184l187 1065h149l-192 -1091q-23 -121 -41 -172
t-58 -99q-102 -119 -288 -118q-307 0 -308 262q0 74 21 182l182 1036h150l-189 -1065q-16 -94 -16 -137z" />
    <glyph glyph-name="uni1EE7" unicode="&#x1ee7;" horiz-adv-x="790" 
d="M532 1452q-48 0 -110 -27l-12 97q78 29 143 28q158 0 158 -131q1 -39 -15 -65t-57 -65q-41 -40 -49 -55t-17 -56h-110q12 61 21 83t52 73t44 79q0 39 -48 39zM215 229q0 -123 96 -123q78 0 124 74t75 242l108 606h142l-180 -1028h-109l4 80q-47 -55 -91 -77
q-44 -21 -126 -21t-135 54t-53 140t22 211l113 641h143l-115 -651q-18 -96 -18 -148z" />
    <glyph glyph-name="uni1EE8" unicode="&#x1ee8;" horiz-adv-x="1054" 
d="M639 1620l158 287h164l-216 -287h-106zM254 260q0 -154 160 -154q127 0 188 107q31 55 55 184l187 1065h149l-53 -303q184 117 184 264q0 25 -8 60h125q2 -23 2 -45q0 -129 -90 -221q-45 -47 -74 -67t-157 -95l-121 -684q-23 -121 -41 -172t-58 -99q-102 -119 -288 -118
q-307 0 -308 262q0 74 21 182l182 1036h150l-189 -1065q-16 -100 -16 -137z" />
    <glyph glyph-name="uni1EE9" unicode="&#x1ee9;" horiz-adv-x="890" 
d="M471 1192l158 287h164l-215 -287h-107zM215 229q0 -123 96 -123q78 0 124 73t75 243l108 606h142l-53 -307q184 109 184 268q0 20 -8 53h125q2 -18 2 -38q0 -121 -70 -204t-252 -184l-108 -616h-109l4 80q-49 -58 -92 -78t-125 -20t-135 54t-53 144t22 207l113 641h143
l-115 -651q-18 -94 -18 -148z" />
    <glyph glyph-name="uni1EEA" unicode="&#x1eea;" horiz-adv-x="1054" 
d="M745 1620h-102l-117 287h152zM254 260q0 -154 160 -154q127 0 188 107q31 55 55 184l187 1065h149l-53 -303q184 117 184 264q0 25 -8 60h125q2 -23 2 -45q0 -129 -90 -221q-45 -47 -74 -67t-157 -95l-121 -684q-23 -121 -41 -172t-58 -99q-102 -119 -288 -118
q-307 0 -308 262q0 74 21 182l182 1036h150l-189 -1065q-16 -100 -16 -137z" />
    <glyph glyph-name="uni1EEB" unicode="&#x1eeb;" horiz-adv-x="890" 
d="M586 1192h-105l-116 287h151zM215 229q0 -123 96 -123q78 0 124 73t75 243l108 606h142l-53 -307q184 109 184 268q0 20 -8 53h125q2 -18 2 -38q0 -121 -70 -204t-252 -184l-108 -616h-109l4 80q-49 -58 -92 -78t-125 -20t-135 54t-53 144t22 207l113 641h143l-115 -651
q-18 -94 -18 -148z" />
    <glyph glyph-name="uni1EEC" unicode="&#x1eec;" horiz-adv-x="1054" 
d="M731 1831q0 39 -46 39t-112 -27l-12 94q84 31 144 31q158 0 157 -131q0 -39 -15 -65t-57 -65t-49 -55q-8 -16 -16 -57h-111q14 68 26 92q11 25 51 71t40 73zM254 260q0 -154 160 -154q127 0 188 107q31 55 55 184l187 1065h149l-53 -303q184 117 184 264q0 25 -8 60h125
q2 -23 2 -45q0 -129 -90 -221q-45 -47 -74 -67t-157 -95l-121 -684q-23 -121 -41 -172t-58 -99q-102 -119 -288 -118q-307 0 -308 262q0 74 21 182l182 1036h150l-189 -1065q-16 -100 -16 -137z" />
    <glyph glyph-name="uni1EED" unicode="&#x1eed;" horiz-adv-x="890" 
d="M571 1413q0 39 -47 39t-108 -27l-15 97q80 29 146 28q156 0 155 -131q0 -39 -15 -65t-55 -64q-40 -39 -48 -55t-17 -57h-110q10 58 19 80t52 76t43 79zM215 229q0 -123 96 -123q78 0 124 73t75 243l108 606h142l-53 -307q184 109 184 268q0 20 -8 53h125q2 -18 2 -38
q0 -121 -70 -204t-252 -184l-108 -616h-109l4 80q-49 -58 -92 -78t-125 -20t-135 54t-53 144t22 207l113 641h143l-115 -651q-18 -94 -18 -148z" />
    <glyph glyph-name="uni1EEE" unicode="&#x1eee;" horiz-adv-x="1054" 
d="M634 1876q58 0 103 -67t66 -66q35 0 65 117h88q-32 -123 -68 -172q-36 -50 -102 -50t-106 70q-23 39 -34 51t-25 13q-39 0 -70 -117h-88q33 117 73 169t98 52zM254 260q0 -154 160 -154q127 0 188 107q31 55 55 184l187 1065h149l-53 -303q184 117 184 264q0 25 -8 60
h125q2 -23 2 -45q0 -129 -90 -221q-45 -47 -74 -67t-157 -95l-121 -684q-23 -121 -41 -172t-58 -99q-102 -119 -288 -118q-307 0 -308 262q0 74 21 182l182 1036h150l-189 -1065q-16 -100 -16 -137z" />
    <glyph glyph-name="uni1EEF" unicode="&#x1eef;" horiz-adv-x="890" 
d="M467 1446q59 0 103 -66t65 -65q35 0 65 117h88q-28 -121 -66 -171q-38 -51 -104 -51t-104 68q-25 39 -36 51t-25 12q-37 1 -70 -114h-88q33 117 73 168t99 51zM215 229q0 -123 96 -123q78 0 124 73t75 243l108 606h142l-53 -307q184 109 184 268q0 20 -8 53h125
q2 -18 2 -38q0 -121 -70 -204t-252 -184l-108 -616h-109l4 80q-49 -58 -92 -78t-125 -20t-135 54t-53 144t22 207l113 641h143l-115 -651q-18 -94 -18 -148z" />
    <glyph glyph-name="uni1EF0" unicode="&#x1ef0;" horiz-adv-x="1054" 
d="M274 -393l37 207h140l-37 -207h-140zM254 260q0 -154 160 -154q127 0 188 107q31 55 55 184l187 1065h149l-53 -303q184 117 184 264q0 25 -8 60h125q2 -23 2 -45q0 -129 -90 -221q-45 -47 -74 -67t-157 -95l-121 -684q-23 -121 -41 -172t-58 -99q-102 -119 -288 -118
q-307 0 -308 262q0 74 21 182l182 1036h150l-189 -1065q-16 -100 -16 -137z" />
    <glyph glyph-name="uni1EF1" unicode="&#x1ef1;" horiz-adv-x="890" 
d="M182 -393l37 207h139l-36 -207h-140zM215 229q0 -123 96 -123q78 0 124 73t75 243l108 606h142l-53 -307q184 109 184 268q0 20 -8 53h125q2 -18 2 -38q0 -121 -70 -204t-252 -184l-108 -616h-109l4 80q-49 -58 -92 -78t-125 -20t-135 54t-53 144t22 207l113 641h143
l-115 -651q-18 -94 -18 -148z" />
    <glyph glyph-name="Ygrave" unicode="&#x1ef2;" horiz-adv-x="772" 
d="M668 1620h-105l-117 287h152zM223 0l94 537l-149 925h154l102 -733l360 733h160l-477 -925l-94 -537h-150z" />
    <glyph glyph-name="ygrave" unicode="&#x1ef3;" horiz-adv-x="704" 
d="M545 1192h-105l-116 287h151zM190 -10l-63 1038h139l31 -846l309 846h146l-476 -1210q-72 -174 -142 -231q-71 -56 -222 -58l22 123q82 0 118 32t83 148z" />
    <glyph glyph-name="uni1EF4" unicode="&#x1ef4;" horiz-adv-x="772" 
d="M156 -393l37 207h137l-35 -207h-139zM223 0l94 537l-151 925h153l103 -733l362 733h158l-475 -925l-96 -537h-148z" />
    <glyph glyph-name="uni1EF5" unicode="&#x1ef5;" horiz-adv-x="704" 
d="M354 -393l37 207h137l-34 -207h-140zM190 -10l-63 1038h139l31 -846l309 846h146l-476 -1210q-72 -174 -142 -231q-71 -56 -222 -58l22 123q82 0 118 32t83 148z" />
    <glyph glyph-name="uni1EF6" unicode="&#x1ef6;" horiz-adv-x="772" 
d="M625 1831q1 39 -45 39t-113 -27l-12 94q84 31 143 31q158 0 158 -131q0 -39 -16 -65t-56 -65q-42 -39 -50 -55t-16 -57h-110q14 68 26 92q11 23 51 69t40 75zM223 0l94 537l-149 925h154l102 -733l360 733h160l-477 -925l-94 -537h-150z" />
    <glyph glyph-name="uni1EF7" unicode="&#x1ef7;" horiz-adv-x="704" 
d="M522 1413q0 39 -47 39t-108 -27l-15 97q80 29 146 28q156 0 155 -131q0 -39 -15 -65q-16 -26 -56 -64q-40 -39 -48 -55t-18 -57h-108q10 59 20 83t52 75t42 77zM190 -10l-63 1038h139l31 -846l309 846h146l-476 -1210q-72 -174 -142 -231q-71 -56 -222 -58l22 123
q82 0 118 32t83 148z" />
    <glyph glyph-name="uni1EF8" unicode="&#x1ef8;" horiz-adv-x="772" 
d="M530 1876q60 0 104 -67t64 -66q35 0 68 117h88q-31 -121 -69 -171q-39 -51 -103 -51t-104 70q-23 39 -34 51t-26 13q-38 0 -69 -117h-89q33 117 72 169t98 52zM223 0l94 537l-149 925h154l102 -733l360 733h160l-477 -925l-94 -537h-150z" />
    <glyph glyph-name="uni1EF9" unicode="&#x1ef9;" horiz-adv-x="704" 
d="M422 1446q59 0 103 -66t65 -65q35 0 65 117h88q-29 -121 -67 -171q-38 -51 -102 -51q-66 0 -105 68q-25 39 -36 51t-25 12q-37 1 -70 -114h-88q33 117 73 168t99 51zM190 -10l-63 1038h139l31 -846l309 846h146l-476 -1210q-72 -174 -142 -231q-71 -56 -222 -58l22 123
q82 0 118 32t83 148z" />
    <glyph glyph-name="uni2002" unicode="&#x2002;" horiz-adv-x="1024" 
 />
    <glyph glyph-name="uni2003" unicode="&#x2003;" horiz-adv-x="2048" 
 />
    <glyph glyph-name="uni2004" unicode="&#x2004;" horiz-adv-x="681" 
 />
    <glyph glyph-name="uni2005" unicode="&#x2005;" horiz-adv-x="512" 
 />
    <glyph glyph-name="uni2006" unicode="&#x2006;" horiz-adv-x="342" 
 />
    <glyph glyph-name="uni2007" unicode="&#x2007;" 
 />
    <glyph glyph-name="uni2008" unicode="&#x2008;" horiz-adv-x="0" 
 />
    <glyph glyph-name="uni2009" unicode="&#x2009;" horiz-adv-x="409" 
 />
    <glyph glyph-name="uni200A" unicode="&#x200a;" horiz-adv-x="256" 
 />
    <glyph glyph-name="uni2011" unicode="&#x2011;" horiz-adv-x="634" 
d="M150 682l22 127h399l-22 -127h-399z" />
    <glyph glyph-name="figuredash" unicode="&#x2012;" 
d="M162 682l22 127h596l-22 -127h-596z" />
    <glyph glyph-name="endash" unicode="&#x2013;" 
d="M162 682l22 127h596l-22 -127h-596z" />
    <glyph glyph-name="emdash" unicode="&#x2014;" 
d="M94 682l23 127h733l-23 -127h-733z" />
    <glyph glyph-name="afii00208" unicode="&#x2015;" 
d="M94 682l23 127h733l-23 -127h-733z" />
    <glyph glyph-name="underscoredbl" unicode="&#x2017;" horiz-adv-x="638" 
d="M-170 -262l16 90h709l-16 -90h-709zM-199 -430l17 90h706l-14 -90h-709z" />
    <glyph glyph-name="quoteleft" unicode="&#x2018;" horiz-adv-x="274" 
d="M403 1462l-131 -479h-149l162 479h118z" />
    <glyph glyph-name="quoteright" unicode="&#x2019;" horiz-adv-x="274" 
d="M123 983l131 479h149l-161 -479h-119z" />
    <glyph glyph-name="quotesinglbase" unicode="&#x201a;" horiz-adv-x="274" 
d="M-102 -289l131 479h149l-162 -479h-118z" />
    <glyph glyph-name="quotedblleft" unicode="&#x201c;" horiz-adv-x="540" 
d="M403 1462l-131 -479h-149l162 479h118zM670 1462l-131 -479h-150l162 479h119z" />
    <glyph glyph-name="quotedblright" unicode="&#x201d;" horiz-adv-x="540" 
d="M389 983l131 479h150l-162 -479h-119zM123 983l131 479h149l-161 -479h-119z" />
    <glyph glyph-name="quotedblbase" unicode="&#x201e;" horiz-adv-x="540" 
d="M164 -289l131 479h149l-161 -479h-119zM-102 -289l131 479h149l-162 -479h-118z" />
    <glyph glyph-name="dagger" unicode="&#x2020;" 
d="M422 877h-256l22 124h256l80 461h146l-80 -461h256l-23 -124h-256l-211 -1201h-147z" />
    <glyph glyph-name="daggerdbl" unicode="&#x2021;" 
d="M422 877h-256l22 124h256l82 461h146l-82 -461h256l-23 -124h-256l-59 -338h237l-22 -125h-236l-131 -738h-145l129 738h-238l23 125h237z" />
    <glyph glyph-name="bullet" unicode="&#x2022;" 
d="M431 1067q143 0 239 -93q96 -92 96 -232t-96 -233t-240 -93t-241 93q-95 93 -95 232t97 233q98 93 240 93z" />
    <glyph glyph-name="ellipsis" unicode="&#x2026;" horiz-adv-x="1173" 
d="M813 0l33 193h149l-34 -193h-148zM422 0l33 193h149l-35 -193h-147zM31 0l35 193h147l-33 -193h-149z" />
    <glyph glyph-name="perthousand" unicode="&#x2030;" horiz-adv-x="1820" 
d="M324 0l563 1462h133l-563 -1462h-133zM1642 569q0 86 -79 86q-53 0 -81 -39t-44 -135l-39 -221q-10 -61 -10 -86q0 -88 79 -88q53 0 82 39t45 135l39 221q8 61 8 88zM1776 578q0 -35 -13 -105l-37 -205q-27 -152 -88 -216t-178 -64q-201 0 -200 184q0 41 14 119l35 205
q25 141 84 199t174 59q209 0 209 -176zM1010 655q-53 0 -81 -39t-44 -135l-39 -221q-8 -61 -8 -86q0 -88 80 -88q52 0 80 39t44 135l39 221q8 53 9 88q0 86 -80 86zM1223 578q0 -43 -13 -105l-34 -205q-30 -152 -90 -216t-179 -64q-199 0 -198 184q0 60 12 119l35 205
q27 141 85 199t173 59q209 0 209 -176zM506 1294q0 86 -80 86q-51 0 -79 -38t-44 -134l-39 -223q-10 -47 -10 -84q0 -88 80 -88q53 0 81 39t44 133l39 223q8 41 8 86zM639 1305q0 -37 -10 -105l-37 -205q-27 -153 -88 -217t-178 -63q-201 0 -201 184q0 41 12 119l37 205
q25 139 83 197t175 59q207 0 207 -174z" />
    <glyph glyph-name="guilsinglleft" unicode="&#x2039;" horiz-adv-x="354" 
d="M211 592l74 -256l-99 -47l-129 315l242 318l76 -72z" />
    <glyph glyph-name="guilsinglright" unicode="&#x203a;" horiz-adv-x="354" 
d="M178 616l-76 256l99 50l129 -318l-242 -315l-76 69z" />
    <glyph glyph-name="uni203E" unicode="&#x203e;" horiz-adv-x="638" 
d="M170 1663l18 109h709l-18 -109h-709z" />
    <glyph glyph-name="fraction" unicode="&#x2044;" horiz-adv-x="235" 
d="M-178 0l563 1462h133l-563 -1462h-133z" />
    <glyph glyph-name="zerosuperior" unicode="&#x2070;" horiz-adv-x="575" 
d="M559 1485q0 94 -82 94q-55 0 -88 -43t-49 -139l-59 -334q-12 -70 -13 -88q0 -96 82 -96q57 0 90 43t49 141l60 334q10 53 10 88zM477 1677q199 0 199 -184q0 -61 -12 -119l-60 -336q-23 -137 -82 -197t-172 -61q-199 0 -198 185q0 42 12 118l59 336q25 139 83 199t171 59
z" />
    <glyph glyph-name="foursuperior" unicode="&#x2074;" horiz-adv-x="575" 
d="M397 791l29 159h-293l12 76l334 641h119l-319 -616h163l45 254h105l-45 -254h67l-16 -103h-70l-26 -157h-105z" />
    <glyph glyph-name="fivesuperior" unicode="&#x2075;" horiz-adv-x="575" 
d="M338 780q-203 0 -203 166q0 45 10 96h111q-8 -59 -8 -73q0 -90 94 -90t125 114q25 84 25 169t-74 85q-59 0 -115 -59l-88 16l109 463h358l-16 -98h-256l-60 -252q47 23 99 22q162 0 161 -168q0 -152 -53 -262q-61 -129 -219 -129z" />
    <glyph glyph-name="sixsuperior" unicode="&#x2076;" horiz-adv-x="575" 
d="M420 1243q-72 0 -105 -74q-45 -98 -45 -208q0 -84 80 -84q72 0 103 69q16 35 29 104q14 68 14 108t-20 62t-56 23zM463 1335q205 0 134 -319q-19 -86 -46 -133q-57 -102 -201 -103q-199 0 -198 176q0 102 30 184t84 167l232 360h137l-215 -336q18 4 43 4z" />
    <glyph glyph-name="sevensuperior" unicode="&#x2077;" horiz-adv-x="575" 
d="M160 791l370 778h-282l18 98h408l-12 -72l-365 -804h-137z" />
    <glyph glyph-name="eightsuperior" unicode="&#x2078;" horiz-adv-x="575" 
d="M417 1200q-83 0 -114 -55q-15 -29 -29 -87t-14 -102q0 -80 83 -80t114 54q16 29 29 88t14 102q0 80 -83 80zM555 1513q0 72 -77 72t-105 -65q-29 -82 -29 -158q0 -70 77 -70q134 0 134 221zM236 1366q0 127 50 219t191 92q188 0 189 -155q0 -48 -14 -110t-32 -100
q-20 -38 -65 -59q61 -43 61 -122t-18 -153t-47 -114q-61 -84 -201 -84q-100 0 -154 43t-54 111t17 142t41 114t79 67q-43 37 -43 109z" />
    <glyph glyph-name="ninesuperior" unicode="&#x2079;" horiz-adv-x="575" 
d="M477 1581q-74 0 -104 -61q-11 -30 -25 -94t-14 -101q0 -80 80 -80q70 0 102 66q14 27 28 91t13 101q0 78 -80 78zM373 1153q-76 0 -117 42t-41 113q0 72 19 154t47 123q53 92 196 92q199 0 199 -170q0 -119 -45 -219q-12 -33 -64 -110l-248 -387h-137l238 368
q-31 -6 -47 -6z" />
    <glyph glyph-name="zeroinferior" unicode="&#x2080;" horiz-adv-x="575" 
d="M383 489q0 94 -82 95q-57 0 -89 -43t-48 -142l-60 -331q-12 -68 -12 -91q0 -94 82 -94q57 -1 90 43t49 142l60 331q10 55 10 90zM301 682q199 0 199 -186q0 -53 -13 -117l-59 -336q-23 -137 -82 -197t-172 -61q-199 0 -199 184q1 45 13 119l59 336q25 138 83 198t171 60z
" />
    <glyph glyph-name="oneinferior" unicode="&#x2081;" horiz-adv-x="575" 
d="M113 -205l131 746l-119 -58l-39 90l217 99h84l-156 -877h-118z" />
    <glyph glyph-name="twoinferior" unicode="&#x2082;" horiz-adv-x="575" 
d="M352 505q0 77 -71 77q-49 0 -78 -37t-45 -125h-111q19 138 77 200t167 62q186 0 186 -176q0 -111 -55 -205q-29 -55 -158 -207l-172 -200h275l-17 -99h-426l15 80l249 299q90 104 127 179t37 152z" />
    <glyph glyph-name="threeinferior" unicode="&#x2083;" horiz-adv-x="575" 
d="M195 303q75 0 117 50q42 49 42 139t-78 90q-52 0 -80 -34t-42 -114h-111q21 132 77 190t156 58q198 0 197 -178q0 -164 -121 -246q68 -53 68 -174t-60 -210t-198 -89q-100 0 -154 43q-53 43 -53 121q0 41 12 98h109q-8 -47 -8 -74q0 -90 92 -90q66 -1 104 57t37 154
q0 117 -113 117h-69l16 92h60z" />
    <glyph glyph-name="fourinferior" unicode="&#x2084;" horiz-adv-x="575" 
d="M221 -205l29 160h-293l12 76l334 641h121l-322 -617h164l45 254h105l-45 -254h67l-16 -102h-70l-26 -158h-105z" />
    <glyph glyph-name="fiveinferior" unicode="&#x2085;" horiz-adv-x="575" 
d="M434 176q0 -152 -53 -262q-59 -129 -219 -129q-203 0 -203 166q0 45 10 96h111q-8 -57 -8 -74q0 -90 94 -90t125 115q25 88 25 171t-74 83q-61 0 -115 -59l-88 16l108 463h359l-17 -99h-256l-59 -251q47 23 98 22q162 0 162 -168z" />
    <glyph glyph-name="sixinferior" unicode="&#x2086;" horiz-adv-x="575" 
d="M246 250q-70 0 -105 -74q-45 -98 -45 -209q0 -86 80 -86q74 0 103 70q43 102 43 213q0 86 -76 86zM289 342q73 0 113 -43t40 -117t-19 -160t-46 -135q-57 -102 -201 -102q-199 0 -199 176q0 102 41 215q20 51 74 135l232 361h137l-215 -336q27 6 43 6z" />
    <glyph glyph-name="seveninferior" unicode="&#x2087;" horiz-adv-x="575" 
d="M-16 -205l370 778h-282l18 99h408l-13 -72l-364 -805h-137z" />
    <glyph glyph-name="eightinferior" unicode="&#x2088;" horiz-adv-x="575" 
d="M243 205q-83 0 -114 -55q-15 -28 -29 -88t-14 -103q0 -78 83 -78t114 53q16 28 29 88t14 103q0 80 -83 80zM381 518q0 72 -77 72t-105 -66q-29 -82 -29 -157q0 -70 77 -70q134 0 134 221zM61 371q1 127 51 219t191 92q188 0 189 -156q0 -47 -14 -109t-31 -99
q-18 -37 -66 -60q61 -43 61 -123q0 -81 -19 -155t-46 -111q-61 -84 -201 -84q-209 0 -209 166q0 55 18 130q17 75 41 115t78 66q-43 37 -43 109z" />
    <glyph glyph-name="nineinferior" unicode="&#x2089;" horiz-adv-x="575" 
d="M303 586q-74 0 -104 -62q-15 -31 -27 -93t-12 -101q0 -80 80 -80q72 0 102 63q14 29 28 93t13 102q0 78 -80 78zM199 158q-76 0 -117 42t-41 112t19 154q19 83 46 124q53 92 197 92q199 0 199 -170q0 -115 -45 -219q-14 -35 -64 -111l-248 -387h-137l236 369
q-27 -6 -45 -6z" />
    <glyph glyph-name="franc" unicode="&#x20a3;" horiz-adv-x="1118" 
d="M1062 897q60 0 122 -49l-84 -115q-37 45 -78 45q-70 0 -118 -100t-89 -322l-61 -356h-140l156 879h107l-3 -105q44 70 86 96t102 27zM41 0l258 1462h543l-23 -127h-397l-96 -544h331l-22 -127h-332l-117 -664h-145z" />
    <glyph glyph-name="lira" unicode="&#x20a4;" 
d="M219 999q0 190 89 335t288 145q139 0 215 -72t76 -205q0 -47 -15 -127h-137q10 72 10 121q0 158 -147 158q-115 0 -168 -103q-59 -106 -59 -243q0 -78 22 -154h297l-16 -94h-262q12 -72 10 -144h225l-16 -94h-219q-8 -106 -58 -214t-123 -181h498l-22 -127h-701l19 109
q100 47 170 165t75 248h-180l16 94h168q-6 68 -22 144h-121l19 94h83l-2 20l-6 33q-6 37 -6 92z" />
    <glyph glyph-name="peseta" unicode="&#x20a7;" 
d="M397 969l-49 -283h82q206 -12 275 283h-308zM725 1143q0 109 -40 153t-136 45h-86l-49 -278h307q4 66 4 80zM547 1462q180 0 252 -77t71 -240q0 -12 -4 -82h113l-16 -94h-111q-48 -215 -150 -313t-276 -91h-96l-101 -565h-145l170 969h-133l16 94h133l72 399h205z" />
    <glyph glyph-name="uni20AB" unicode="&#x20ab;" 
d="M217 254q0 -147 107 -148q152 0 211 328l26 160q18 92 19 156q0 174 -117 174q-137 0 -182 -250l-52 -289q-12 -78 -12 -131zM301 -18q-227 0 -227 251q0 66 18 181l49 280q35 186 107 270t195 83q123 0 186 -74l37 203h-207l18 108h207l31 178h143l-31 -178h101
l-19 -108h-102l-207 -1176h-111l3 68q-46 -50 -88 -68t-103 -18zM-35 -354l19 108h643l-19 -108h-643z" />
    <glyph glyph-name="Euro" unicode="&#x20ac;" 
d="M598 1481q148 0 223 -73q74 -73 74 -206q0 -45 -14 -125h-138q10 78 11 123q0 158 -144 158q-94 0 -145 -75t-84 -255l-31 -172h422l-49 -94h-389l-27 -158h342l-51 -94h-307q-31 -180 -31 -248q0 -156 146 -156q94 0 146 60t77 199h139q-25 -145 -72 -220
q-102 -164 -307 -163q-135 0 -207 68t-71 194q0 88 30 266h-131l51 94h97l28 158h-131l49 94h99l35 205q40 223 126 321t234 99z" />
    <glyph glyph-name="uni20B4" unicode="&#x20b4;" 
d="M567 1354q-143 0 -176 -191h-137q49 315 328 316q128 0 196 -72t68 -205q0 -215 -131 -362l135 -52l-41 -90l-178 66l-56 -33q-6 -2 -20 -9t-67 -27t-78 -38l331 -127l-41 -90l-389 148q-100 -115 -100 -316q0 -168 158 -168q92 0 142 50t69 161h137q-25 -145 -82 -221
q-96 -113 -275 -112q-143 0 -219 72t-75 208q0 223 112 375l-104 39l41 90l141 -53q37 31 112 63t107 45l-287 109l41 90l349 -131q123 113 122 311q0 154 -133 154z" />
    <glyph glyph-name="uni2101" unicode="&#x2101;" horiz-adv-x="1226" 
d="M878 88q79 0 117 74q27 52 27 112t-44 92q-11 7 -65 31q-131 61 -131 197t69 214q69 79 179 79q150 0 184 -117l-102 -59q-20 78 -88 77q-49 0 -83 -48t-34 -124t88 -119q88 -42 119 -85q31 -42 31 -144t-64 -190t-192 -88q-184 0 -219 137l104 55q25 -94 104 -94z
M440 860l-24 434l-178 -434h202zM573 641l318 821h119l-566 -1462h-118l227 586h-96l-11 184h-245l-76 -184h-125l393 876h101z" />
    <glyph glyph-name="afii61248" unicode="&#x2105;" horiz-adv-x="1259" 
d="M315 0l564 1462h118l-563 -1462h-119zM1104 610q0 111 -98 111q-123 0 -156 -193l-45 -247q-8 -43 -8 -80q0 -109 98 -109q125 1 158 189l43 239q8 49 8 90zM1010 823q215 0 215 -202q0 -41 -11 -109l-45 -258q-25 -137 -91 -201q-67 -63 -185 -63q-217 0 -217 200
q0 39 12 109l45 258q25 139 91 203q67 63 186 63zM313 639q-195 0 -194 217q0 51 14 131l33 182q29 158 92 232t176 74q150 0 201 -132l-100 -55q-33 84 -103 84q-113 0 -153 -233l-29 -166q-12 -61 -12 -117q0 -115 88 -115q40 1 68 19t67 71l82 -57q-88 -135 -230 -135z
" />
    <glyph glyph-name="afii61289" unicode="&#x2113;" horiz-adv-x="735" 
d="M565 1276q0 109 -53 108q-61 0 -99 -139t-79 -520q231 311 231 551zM318 -33q-160 1 -160 215q0 96 10 273q-113 -139 -145 -140q-9 -1 -21 17t-12 40t58 81t126 145q55 508 126 704t200 195q74 0 118 -59t46 -156q0 -201 -129 -420q-70 -119 -211 -278
q-35 -294 -35 -398t57 -104q33 0 53 22q19 22 49 84t58 62q33 0 33 -43q0 -76 -68 -158t-153 -82z" />
    <glyph glyph-name="afii61352" unicode="&#x2116;" horiz-adv-x="1583" 
d="M895 0l20 117h519l-21 -117h-518zM1427 936q0 119 -94 119q-59 -1 -96 -55t-57 -177l-29 -166q-12 -68 -12 -108q0 -123 96 -123q59 0 97 54t57 177l30 166q8 49 8 113zM1339 1174q229 0 230 -230q0 -66 -15 -137l-30 -178q-31 -170 -100 -246t-193 -76q-231 0 -232 228
q1 61 15 139l30 178q31 170 101 246t194 76zM39 0l258 1462h147l228 -1143l200 1143h142l-258 -1462h-142l-231 1149l-203 -1149h-141z" />
    <glyph glyph-name="trademark" unicode="&#x2122;" horiz-adv-x="1193" 
d="M557 586l154 876h108l78 -542l268 542h113l-156 -876h-108l106 610l-209 -438h-84l-53 438l-108 -610h-109zM199 586l137 774h-174l18 102h461l-18 -102h-170l-136 -774h-118z" />
    <glyph glyph-name="uni2126" unicode="&#x2126;" horiz-adv-x="915" 
d="M106 432q0 86 23 211l76 432q20 113 45 176t72 117q100 113 280 113q313 0 313 -293q0 -70 -18 -168l-76 -432q-57 -330 -243 -414l-13 -63h189l-19 -111h-305l45 256q152 53 203 367l74 409q16 92 16 162t-45 116t-137 46t-150 -76t-90 -248l-72 -409q-20 -117 -20 -183
q0 -145 96 -184l-45 -256h-305l18 111h189l12 65q-113 70 -113 256z" />
    <glyph glyph-name="estimated" unicode="&#x212e;" horiz-adv-x="817" 
d="M606 756v252q-49 272 -194 272q-70 0 -112 -61t-75 -209v-254h381zM750 662h-525v-287q29 -157 72 -223t121 -66q145 0 205 260h102q-27 -139 -68 -209q-96 -156 -241 -155q-166 0 -256 180t-90 511t93 521t251 190q106 0 183 -85q153 -169 153 -637z" />
    <glyph glyph-name="onethird" unicode="&#x2153;" horiz-adv-x="1384" 
d="M295 0l565 1462h133l-565 -1462h-133zM977 508q74 0 117 50t43 139t-80 89q-51 0 -79 -34t-44 -113h-109q15 129 73 188t158 59q198 1 199 -177q0 -164 -122 -246q67 -53 67 -174t-60 -210t-198 -89q-100 0 -154 43q-53 43 -53 123q0 45 13 96h108q-8 -47 -8 -74
q0 -90 92 -90q66 0 104 56t37 155q0 117 -112 117h-70l16 92h62zM246 586l131 745l-119 -57l-39 90l217 98h84l-155 -876h-119z" />
    <glyph glyph-name="twothirds" unicode="&#x2154;" horiz-adv-x="1384" 
d="M365 0l563 1462h133l-565 -1462h-131zM1034 508q74 0 116 50t42 139t-78 89q-51 0 -79 -34t-44 -113h-108q16 129 73 188q56 59 156 59t150 -45q50 -46 49 -132q0 -164 -121 -246q68 -49 68 -172t-61 -212q-60 -89 -198 -89q-100 0 -153 43t-53 123q0 43 12 96h108
q-8 -49 -8 -74q0 -90 92 -90q66 0 104 57t38 154q0 117 -113 117h-70l17 92h61zM494 1296q0 76 -72 76q-49 0 -78 -37t-45 -125h-111q20 138 78 200t166 63q186 0 186 -177q0 -111 -55 -204q-33 -63 -157 -207l-173 -201h275l-16 -98h-426l14 80l250 299q90 104 127 179
q37 76 37 152z" />
    <glyph glyph-name="uni2155" unicode="&#x2155;" horiz-adv-x="1384" 
d="M309 0l563 1462h134l-566 -1462h-131zM1059 549q162 0 162 -168q0 -147 -52 -262q-63 -129 -221 -129q-203 0 -203 166q0 45 11 96h108q-6 -68 -6 -74q0 -90 94 -90t125 115q25 84 25 169t-74 85q-57 0 -117 -60l-86 17l109 463h358l-16 -99h-258l-57 -252q51 23 98 23z
M256 586l131 745l-119 -57l-39 90l217 98h84l-155 -876h-119z" />
    <glyph glyph-name="uni2156" unicode="&#x2156;" horiz-adv-x="1384" 
d="M365 0l563 1462h133l-565 -1462h-131zM1100 549q162 0 162 -168q0 -152 -54 -262q-59 -129 -219 -129q-203 0 -203 166q0 45 11 96h108q-6 -47 -6 -74q0 -90 94 -90t125 115q25 84 25 169t-74 85q-57 0 -117 -60l-86 17l107 463h360l-16 -99h-258l-60 -252q53 23 101 23z
M494 1296q0 76 -72 76q-49 0 -78 -37t-45 -125h-111q20 138 78 200t166 63q186 0 186 -177q0 -111 -55 -204q-33 -63 -157 -207l-173 -201h275l-16 -98h-426l14 80l250 299q90 104 127 179q37 76 37 152z" />
    <glyph glyph-name="uni2157" unicode="&#x2157;" horiz-adv-x="1384" 
d="M369 0l563 1462h133l-565 -1462h-131zM1096 549q162 0 161 -168q0 -152 -53 -262q-59 -129 -219 -129q-203 0 -203 166q0 45 11 96h108q-6 -63 -6 -74q0 -90 94 -90t125 115q25 84 25 169t-74 85q-57 0 -117 -60l-86 17l107 463h360l-16 -99h-258l-60 -252q49 23 101 23z
M334 1094q76 0 118 50t42 140t-78 90q-51 0 -79 -34t-44 -115h-111q20 131 76 189t156 58t149 -46t49 -132q0 -164 -120 -245q68 -53 68 -174t-58 -205q-68 -94 -201 -95q-98 0 -153 43q-54 43 -54 121q0 41 12 99h109q-8 -47 -8 -74q0 -90 92 -90q65 0 103 56t38 155
q0 117 -112 116h-70l16 93h60z" />
    <glyph glyph-name="uni2158" unicode="&#x2158;" horiz-adv-x="1384" 
d="M383 0l563 1462h133l-565 -1462h-131zM1110 549q162 0 162 -168q0 -147 -51 -262q-63 -129 -222 -129q-203 0 -202 166q0 45 10 96h108q-6 -63 -6 -74q0 -90 94 -90t125 115q25 84 25 169t-74 85q-57 0 -116 -60l-86 17l106 463h360l-16 -99h-258l-57 -252q47 23 98 23z
M360 586l29 159h-293l13 76l333 641h119l-319 -616h164l45 254h104l-45 -254h68l-17 -103h-69l-27 -157h-105z" />
    <glyph glyph-name="uni2159" unicode="&#x2159;" horiz-adv-x="1384" 
d="M322 0l563 1462h133l-563 -1462h-133zM1010 453q-72 0 -105 -74q-45 -98 -45 -209q0 -84 80 -84q70 0 100 70q16 36 30 104t13 108q0 40 -20 62t-53 23zM1053 545q71 0 111 -43t40 -117t-19 -160t-46 -133q-55 -102 -201 -102q-197 0 -197 176q-1 102 29 184t84 166
l233 361h136l-213 -336q18 4 43 4zM258 586l131 745l-119 -57l-39 90l218 98h83l-155 -876h-119z" />
    <glyph glyph-name="uni215A" unicode="&#x215a;" horiz-adv-x="1384" 
d="M391 0l565 1462h134l-566 -1462h-133zM1059 453q-72 0 -105 -74q-45 -98 -45 -209q0 -84 80 -84q72 0 103 70q14 32 28 102t14 110t-20 62t-55 23zM1102 545q74 0 114 -43t39 -117q0 -74 -19 -160t-46 -133q-57 -102 -201 -102q-199 0 -198 176q0 179 114 350l232 361
h137l-215 -336q18 4 43 4zM416 1135q162 0 162 -168q0 -147 -56 -269t-217 -123q-203 0 -203 166q0 45 11 97h110q-8 -57 -8 -74q0 -90 94 -90t125 114q25 84 25 169t-74 85q-61 0 -115 -59l-88 16l109 463h358l-16 -98h-256l-60 -252q49 23 99 23z" />
    <glyph glyph-name="oneeighth" unicode="&#x215b;" horiz-adv-x="1384" 
d="M291 0l563 1462h133l-565 -1462h-131zM1015 410q-83 0 -114 -56q-15 -29 -29 -88t-14 -102q0 -78 83 -78t114 53q16 29 29 88t14 103q0 80 -83 80zM1153 723q0 72 -79 72t-103 -66q-29 -82 -29 -158q0 -69 77 -69q134 0 134 221zM834 575q0 127 50 219t191 93
q188 0 189 -156q0 -47 -14 -110t-32 -99q-20 -36 -63 -59q59 -45 59 -123t-18 -153t-47 -113q-61 -84 -201 -84q-209 0 -209 166q0 59 18 132q17 72 42 112t80 67q-45 33 -45 108zM238 586l131 745l-119 -57l-39 90l217 98h84l-156 -876h-118z" />
    <glyph glyph-name="threeeighths" unicode="&#x215c;" horiz-adv-x="1384" 
d="M362 0l566 1462h131l-563 -1462h-134zM1056 410q-83 0 -114 -56q-16 -29 -30 -88t-13 -102q0 -78 83 -78t114 53q16 29 29 88t14 103q0 80 -83 80zM1194 723q0 72 -77 72t-105 -66q-29 -82 -29 -158q0 -69 77 -69q134 0 134 221zM1116 887q188 0 189 -156q1 -47 -13 -109
t-32 -100t-66 -59q61 -43 61 -122t-18 -154t-47 -113q-61 -84 -201 -84q-209 0 -209 166q0 59 18 132q17 72 41 112t79 67q-43 37 -44 108q0 127 50 219t192 93zM334 1094q76 0 118 50t42 140t-78 90q-51 0 -79 -34t-44 -115h-111q20 131 76 189t156 58t149 -46t49 -132
q0 -164 -120 -245q68 -53 68 -174t-58 -205q-68 -94 -201 -95q-98 0 -153 43q-54 43 -54 121q0 41 12 99h109q-8 -47 -8 -74q0 -90 92 -90q65 0 103 56t38 155q0 117 -112 116h-70l16 93h60z" />
    <glyph glyph-name="fiveeighths" unicode="&#x215d;" horiz-adv-x="1384" 
d="M362 0l566 1462h133l-565 -1462h-134zM1056 410q-83 0 -114 -56q-16 -27 -30 -87t-13 -103q0 -78 83 -78t114 53q16 29 29 88t14 103q0 80 -83 80zM1196 723q0 72 -79 72t-103 -66q-31 -74 -31 -158q0 -69 78 -69q79 0 107 66t28 155zM1118 887q188 0 189 -156
q1 -45 -13 -108t-32 -101t-66 -59q59 -41 59 -122t-19 -156t-46 -111q-61 -84 -201 -84q-209 0 -209 166q0 59 18 132q17 72 42 112t80 67q-45 37 -46 108q0 127 50 219t194 93zM412 1135q162 0 161 -168q0 -147 -56 -269t-216 -123q-203 0 -203 166q0 45 11 97h110
q-8 -57 -8 -74q0 -90 94 -90t125 114q25 84 25 169t-74 85q-61 0 -115 -59l-88 16l109 463h358l-16 -98h-256l-60 -252q49 23 99 23z" />
    <glyph glyph-name="seveneighths" unicode="&#x215e;" horiz-adv-x="1384" 
d="M303 0l565 1462h131l-563 -1462h-133zM1106 330q0 80 -83 80t-114 -56q-16 -27 -29 -87t-14 -103q0 -78 83 -78t114 53q16 29 30 88q13 59 13 103zM1161 723q0 72 -79 72t-103 -66q-31 -74 -31 -158q0 -69 78 -69t106 66t29 155zM840 575q0 127 51 219t192 93
q188 0 189 -156q0 -47 -14 -109t-31 -100q-18 -38 -66 -59q98 -69 42 -278q-19 -75 -46 -111q-61 -84 -201 -84q-209 0 -208 166q0 59 17 132q17 72 41 112t79 67q-45 39 -45 108zM139 586l371 778h-283l19 98h407l-12 -71l-365 -805h-137z" />
    <glyph glyph-name="arrowleft" unicode="&#x2190;" horiz-adv-x="1638" 
d="M1495 682h-1186l387 -387l-88 -90l-504 512v57l504 512l88 -88l-387 -389h1186v-127z" />
    <glyph glyph-name="arrowup" unicode="&#x2191;" horiz-adv-x="1638" 
d="M719 0v1270l-387 -387l-90 90l514 502h55l512 -502l-88 -90l-387 387v-1270h-129z" />
    <glyph glyph-name="arrowright" unicode="&#x2192;" horiz-adv-x="1638" 
d="M143 682v127h1186l-387 389l88 88l504 -512v-57l-504 -512l-88 90l387 387h-1186z" />
    <glyph glyph-name="arrowdown" unicode="&#x2193;" horiz-adv-x="1638" 
d="M719 1462h129v-1269l387 387l88 -91l-512 -501h-55l-514 501l90 91l387 -387v1269z" />
    <glyph glyph-name="arrowboth" unicode="&#x2194;" horiz-adv-x="1638" 
d="M1358 682h-1075l354 -354l-88 -90l-471 479v57l471 479l88 -90l-354 -354h1075l-354 354l88 90l471 -479v-57l-471 -479l-88 90z" />
    <glyph glyph-name="arrowupdn" unicode="&#x2195;" horiz-adv-x="1638" 
d="M721 170v1122l-354 -356l-91 90l480 471h57l479 -471l-90 -90l-354 356v-1122l354 356l90 -90l-479 -471h-57l-480 471l91 90z" />
    <glyph glyph-name="uni2196" unicode="&#x2196;" horiz-adv-x="1638" 
d="M430 510h-127v715l47 49h719v-127h-549l848 -848l-88 -88l-850 846v-547z" />
    <glyph glyph-name="uni2197" unicode="&#x2197;" horiz-adv-x="1638" 
d="M569 1147v127h717l49 -49v-715h-127v547l-850 -846l-88 88l848 848h-549z" />
    <glyph glyph-name="uni2198" unicode="&#x2198;" horiz-adv-x="1638" 
d="M1208 979h127v-715l-49 -49h-717v127h549l-848 848l88 90l850 -848v547z" />
    <glyph glyph-name="uni2199" unicode="&#x2199;" horiz-adv-x="1638" 
d="M1069 342v-127h-719l-47 49v715h127v-547l850 848l88 -90l-848 -848h549z" />
    <glyph glyph-name="partialdiff" unicode="&#x2202;" 
d="M616 778q0 133 -114 133q-82 0 -126 -59t-69 -201l-53 -291q-12 -90 -12 -131q0 -131 114 -131q80 0 125 60t70 202l51 291q14 72 14 127zM483 1028q92 0 138 -51q-11 176 -67 273t-161 126l35 99q88 -17 140 -49t100 -97q98 -133 98 -385q0 -162 -29 -317l-47 -269
q-33 -190 -98 -274q-88 -102 -242 -102q-250 0 -250 231q1 64 17 154l51 292q36 193 110 281t205 88z" />
    <glyph glyph-name="emptyset" unicode="&#x2205;" 
d="M432 412q108 0 176 94t68 256t-96 270l-211 -610q31 -10 63 -10zM178 740q0 -172 109 -277l215 618q-41 14 -76 15q-112 0 -180 -92t-68 -264zM788 754q0 -199 -100 -321t-264 -122q-41 0 -90 13l-135 -390l-84 31l135 393q-184 117 -184 396q0 198 100 320t264 122
q60 0 107 -16l118 344l84 -29l-121 -352q80 -57 125 -159t45 -230z" />
    <glyph glyph-name="Delta" unicode="&#x2206;" 
d="M594 123l-31 1120l-428 -1120h459zM768 0h-850l612 1462h134z" />
    <glyph glyph-name="product" unicode="&#x220f;" horiz-adv-x="935" 
d="M-29 -424l332 1886h668l-332 -1886h-145l311 1757h-381l-309 -1757h-144z" />
    <glyph glyph-name="summation" unicode="&#x2211;" horiz-adv-x="897" 
d="M-25 -424l17 90l440 912l-127 786l17 98h624l-22 -127h-467l125 -755l-416 -877h487l-22 -127h-656z" />
    <glyph glyph-name="minus" unicode="&#x2212;" 
d="M133 690l21 117h655l-21 -117h-655z" />
    <glyph glyph-name="uni2215" unicode="&#x2215;" horiz-adv-x="235" 
d="M-178 0l563 1462h133l-563 -1462h-133z" />
    <glyph glyph-name="uni2218" unicode="&#x2218;" 
d="M429 985q-105 0 -176 -69t-71 -173t70 -174q70 -69 177 -69t177 70t70 172q0 103 -71 173t-176 70zM431 1075q145 0 243 -95q98 -94 98 -236t-99 -238t-246 -96t-244 95t-97 237t100 238q101 95 245 95z" />
    <glyph glyph-name="uni2219" unicode="&#x2219;" horiz-adv-x="391" 
d="M145 649l33 193h150l-33 -193h-150z" />
    <glyph glyph-name="radical" unicode="&#x221a;" 
d="M233 0l-34 618h-99l21 123h203l6 -551l542 1582h373l-18 -109h-254l-592 -1663h-148z" />
    <glyph glyph-name="infinity" unicode="&#x221e;" horiz-adv-x="1204" 
d="M870 551q60 0 102 54q42 55 42 143t-42 142t-108 54q-100 0 -194 -176l-11 -20l13 -23q59 -102 99 -138q39 -36 99 -36zM340 944q-66 0 -107 -54t-41 -142t41 -143q41 -54 109 -54t123 67q25 31 70 107l12 23l-12 20q-92 176 -195 176zM333 1053q118 0 199 -95
q16 -23 70 -116q6 10 34 62t75 91q69 57 175 57t174 -82q68 -83 68 -222t-68 -223q-70 -83 -188 -83t-200 95q-13 16 -70 114q-35 -70 -56 -98q-82 -110 -207 -110q-124 -1 -193 82q-68 83 -68 223t68 222q69 83 187 83z" />
    <glyph glyph-name="integral" unicode="&#x222b;" horiz-adv-x="946" 
d="M352 -90q47 0 64 48q16 48 16 196v1075q0 201 23 272q35 119 163 119q59 0 113 -18l-26 -115q-29 14 -54 14q-47 0 -63 -48t-17 -191v-1082q0 -193 -24 -272q-35 -117 -162 -117q-62 0 -113 16l25 117q35 -14 55 -14z" />
    <glyph glyph-name="similar" unicode="&#x223c;" 
d="M602 729q59 0 117 139l80 -26q-91 -224 -205 -226q-55 0 -79 16t-95 91q-41 41 -74 41q-62 0 -119 -143l-84 22q91 233 207 235q54 0 82 -14q28 -16 80 -76q53 -60 90 -59z" />
    <glyph glyph-name="uni2243" unicode="&#x2243;" 
d="M823 987q-87 -225 -203 -225q-54 0 -80 17t-82 75t-87 57q-62 0 -119 -145l-84 22q86 236 221 236q39 0 67 -15t70 -61t60 -58q18 -13 41 -13q59 0 116 137zM131 557l21 117h612l-21 -117h-612z" />
    <glyph glyph-name="approxequal" unicode="&#x2248;" 
d="M825 987q-89 -225 -205 -225q-54 0 -78 17q-26 17 -82 75t-87 57q-62 0 -119 -145l-84 22q45 124 98 180t123 56q39 0 67 -15t70 -61t62 -59q18 -12 39 -12q57 0 116 137zM774 696q-90 -225 -204 -225q-56 0 -82 17t-93 90q-41 43 -73 43q-62 -1 -119 -146l-84 23
q88 238 219 237q39 0 68 -15q30 -15 82 -75t90 -59q59 0 116 137z" />
    <glyph glyph-name="notequal" unicode="&#x2260;" 
d="M131 557l21 117h219l75 151h-268l21 113h309l127 260l104 -39l-108 -221h180l-20 -113h-220l-75 -151h268l-21 -117h-309l-127 -260l-104 39l108 221h-180z" />
    <glyph glyph-name="lessequal" unicode="&#x2264;" 
d="M55 104l21 117h563l-21 -117h-563zM291 745l393 -268l-22 -131l-525 369l15 71l653 371l-25 -141z" />
    <glyph glyph-name="greaterequal" unicode="&#x2265;" 
d="M100 104l21 117h563l-20 -117h-564zM657 758l-395 268l25 131l522 -371l-12 -71l-654 -369l25 141z" />
    <glyph glyph-name="dotmath" unicode="&#x22c5;" horiz-adv-x="391" 
d="M145 649l33 193h150l-33 -193h-150z" />
    <glyph glyph-name="filledrect" unicode="&#x25ac;" 
d="M123 436v613h612v-613h-612z" />
    <glyph glyph-name="uni25B4" unicode="&#x25b4;" 
d="M66 424l364 727l365 -727h-729z" />
    <glyph glyph-name="uni25B8" unicode="&#x25b8;" 
d="M137 377v729l727 -365z" />
    <glyph glyph-name="uni25BE" unicode="&#x25be;" 
d="M66 1059h729l-365 -727z" />
    <glyph glyph-name="uni25C2" unicode="&#x25c2;" 
d="M723 377l-727 364l727 365v-729z" />
    <glyph glyph-name="lozenge" unicode="&#x25ca;" 
d="M182 711l248 -516l250 516l-250 518zM35 711l395 768l395 -768l-395 -766z" />
    <glyph glyph-name="openbullet" unicode="&#x25e6;" 
d="M429 985q-105 0 -176 -69t-71 -173t70 -174q70 -69 177 -69t177 70t70 172q0 103 -71 173t-176 70zM431 1075q145 0 243 -95q98 -94 98 -236t-99 -238t-246 -96t-244 95t-97 237t100 238q101 95 245 95z" />
    <glyph glyph-name="commaaccent" unicode="&#xf6c3;" horiz-adv-x="1024" 
d="M244 -449l123 304h143l-168 -304h-98z" />
    <glyph glyph-name="Acute" unicode="&#xf6c9;" horiz-adv-x="1024" 
d="M625 1620l157 287h164l-215 -287h-106z" />
    <glyph glyph-name="Caron" unicode="&#xf6ca;" horiz-adv-x="1024" 
d="M721 1729l117 165h143l-223 -266h-99l-131 266h138z" />
    <glyph glyph-name="Dieresis" unicode="&#xf6cb;" horiz-adv-x="1024" 
d="M784 1636l37 205h129l-37 -205h-129zM506 1636l37 205h127l-35 -205h-129z" />
    <glyph glyph-name="Grave" unicode="&#xf6ce;" horiz-adv-x="1024" 
d="M793 1620h-105l-117 287h152z" />
    <glyph glyph-name="Hungarumlaut" unicode="&#xf6cf;" horiz-adv-x="1024" 
d="M748 1620l135 287h149l-184 -287h-100zM543 1620l135 287h149l-184 -287h-100z" />
    <glyph glyph-name="Macron" unicode="&#xf6d0;" horiz-adv-x="1024" 
d="M530 1700l19 108h383l-19 -108h-383z" />
    <glyph glyph-name="zerooldstyle" unicode="&#xf730;" horiz-adv-x="868" 
d="M657 840q0 150 -143 149q-92 1 -141 -65t-78 -230l-49 -286q-20 -109 -21 -156q0 -145 144 -146q92 0 141 66t78 231l51 289q18 109 18 148zM508 1112q146 0 220 -70q73 -70 73 -200q0 -55 -19 -168l-57 -324q-33 -192 -120 -280t-231 -88t-218 70t-74 200q0 66 20 170
l56 319q32 187 118 279t232 92z" />
    <glyph glyph-name="oneoldstyle" unicode="&#xf731;" horiz-adv-x="540" 
d="M129 0l164 930l-191 -105l-49 113l316 156h102l-195 -1094h-147z" />
    <glyph glyph-name="twooldstyle" unicode="&#xf732;" horiz-adv-x="727" 
d="M430 1112q272 0 272 -254q0 -128 -71 -242q-53 -80 -225 -245l-256 -246h421l-22 -125h-608l18 104l369 365q131 129 179 211t48 172q0 135 -131 135q-86 0 -132 -50t-69 -171h-133q23 150 74 217q86 129 266 129z" />
    <glyph glyph-name="threeoldstyle" unicode="&#xf733;" horiz-adv-x="761" 
d="M313 498q119 0 190 90t71 244t-123 155q-131 0 -177 -186h-137q25 133 78 196q90 115 248 115q125 0 193 -72t69 -206q0 -134 -57 -238t-164 -158q133 -72 133 -266t-88 -334q-100 -162 -309 -162q-133 0 -205 58t-72 166q0 33 8 108h138q-4 -31 -5 -67q0 -139 140 -140
q123 0 188 131q53 100 53 230q0 215 -190 215h-100l22 121h96z" />
    <glyph glyph-name="fouroldstyle" unicode="&#xf734;" horiz-adv-x="751" 
d="M336 -307l53 307h-463l17 94l526 1000h152l-508 -969h299l77 440h138l-78 -440h117l-21 -125h-119l-53 -307h-137z" />
    <glyph glyph-name="fiveoldstyle" unicode="&#xf735;" horiz-adv-x="827" 
d="M434 559q102 0 164 -71q64 -72 64 -190t-28 -244t-69 -197q-100 -182 -317 -183q-131 0 -205 60t-74 166q0 29 8 108h138q-4 -33 -4 -67q0 -141 135 -141t207 163q57 139 57 307t-133 168q-90 0 -182 -92l-103 23l170 725h516l-22 -127h-387l-111 -457q74 49 176 49z" />
    <glyph glyph-name="sixoldstyle" unicode="&#xf736;" horiz-adv-x="833" 
d="M479 784q-123 0 -180 -143q-33 -86 -57 -198t-23 -187q0 -154 132 -154t186 158q25 68 46 190t21 188t-33 106t-92 40zM532 899q104 0 162 -65q58 -66 58 -172t-27 -247q-27 -140 -63 -231q-36 -90 -120 -146q-83 -56 -204 -56t-194 70t-72 198q0 190 75 391
q27 70 103 197l352 587h164l-334 -551q51 25 100 25z" />
    <glyph glyph-name="sevenoldstyle" unicode="&#xf737;" horiz-adv-x="571" 
d="M-102 -307l557 1274h-412l23 127h563l-17 -90l-544 -1311h-170z" />
    <glyph glyph-name="eightoldstyle" unicode="&#xf738;" horiz-adv-x="851" 
d="M461 692q-129 0 -185 -108q-26 -53 -50 -162q-24 -108 -24 -176t42 -106q41 -38 114 -38q129 0 179 109q27 53 49 162t22 177t-38 104q-38 38 -109 38zM567 1329q-117 0 -161 -102q-18 -51 -36 -149t-20 -152q0 -123 125 -123t168 112q19 47 37 143t18 151q0 54 -34 87
q-36 33 -97 33zM213 940q0 72 18 169t45 157q76 178 291 178q129 0 199 -62t70 -166q0 -106 -27 -216t-65 -162t-103 -86q59 -37 85 -83t26 -137q0 -90 -29 -216t-70 -191q-92 -143 -293 -143q-303 0 -303 258q0 118 36 248t81 186t123 86q-84 63 -84 180z" />
    <glyph glyph-name="nineoldstyle" unicode="&#xf739;" horiz-adv-x="831" 
d="M482 991q-132 0 -187 -155q-25 -70 -47 -191t-21 -189q0 -68 34 -106q34 -39 95 -39q121 0 179 144q80 207 79 383q0 153 -132 153zM82 434q0 106 27 246t63 231q36 89 120 145t204 56t193 -71t73 -195q0 -190 -76 -393q-31 -74 -104 -195l-349 -573h-163l331 534
q-49 -23 -102 -22q-102 0 -160 65q-57 66 -57 172z" />
    <glyph glyph-name="Dbreve" horiz-adv-x="946" 
d="M526 1815q0 -90 86 -91q57 0 88 36t54 126h98q-18 -121 -43 -164q-55 -106 -199 -106q-186 0 -186 149q0 43 12 121h96q-6 -53 -6 -71zM780 1169q0 168 -182 168h-160l-215 -1212h160q121 -2 185 70t96 241l102 590q14 76 14 143zM594 1462q172 0 246 -61q92 -74 92 -221
q0 -61 -17 -156l-112 -641q-61 -391 -420 -383h-330l258 1462h283z" />
    <glyph glyph-name="ahungarumlaut" horiz-adv-x="763" 
d="M549 1192l135 287h150l-185 -287h-100zM344 1192l135 287h150l-185 -287h-100zM381 485q-119 -1 -172 -71t-53 -203q0 -57 30 -84t107 -27q76 0 115 44t59 167l31 174h-117zM428 926q-64 0 -104 -49t-60 -162h-133q29 176 102 254q74 78 211 78q242 0 242 -236
q0 -66 -18 -172l-113 -639h-113l-2 43q-59 -61 -184 -61q-246 0 -246 206q0 86 25 172t61 136q84 104 271 104h151l14 76q31 173 -14 221q-26 29 -90 29z" />
    <glyph glyph-name="uni0204.sc" horiz-adv-x="686" 
d="M461 1249h-101l-84 287h150zM666 1249h-101l-84 287h150zM33 0l192 1098h492l-23 -123h-344l-63 -363h293l-23 -123h-293l-63 -366h348l-23 -123h-493z" />
    <glyph glyph-name="uni0206.sc" horiz-adv-x="686" 
d="M629 1331q0 92 -88 92q-57 1 -88 -35t-52 -126h-98q16 113 43 163q55 106 199 107q186 0 186 -150q0 -32 -12 -120h-96q6 53 6 69zM41 0l192 1098h492l-23 -123h-344l-63 -363h293l-23 -123h-293l-63 -366h348l-22 -123h-494z" />
    <glyph glyph-name="uni0208.sc" horiz-adv-x="407" 
d="M295 1249h-100l-84 287h149zM500 1249h-101l-84 287h150zM41 0l192 1094h146l-193 -1094h-145z" />
    <glyph glyph-name="uni020A.sc" horiz-adv-x="407" 
d="M365 1423q-57 0 -89 -35q-31 -36 -51 -126h-98q16 113 43 163q55 106 199 107q186 0 186 -150q0 -32 -12 -120h-97q6 53 7 69q0 92 -88 92zM41 0l192 1094h146l-193 -1094h-145z" />
    <glyph glyph-name="uni020C.sc" horiz-adv-x="804" 
d="M481 1249h-100l-84 287h149zM686 1249h-100l-84 287h149zM594 872q0 48 -33 80q-33 33 -101 33t-112 -53q-43 -53 -63 -178l-74 -414q-12 -70 -12 -107q0 -125 125 -124q80 0 122 52t64 179l72 414q12 70 12 118zM473 1110q266 0 266 -236q0 -53 -14 -135l-78 -438
q-29 -170 -105 -244t-220 -73q-268 0 -269 237q1 53 15 133l77 441q31 171 107 243t221 72z" />
    <glyph glyph-name="uni020E.sc" horiz-adv-x="804" 
d="M647 1331q0 92 -88 92q-57 1 -88 -35t-51 -126h-98q16 113 43 163q55 106 198 107q186 0 187 -150q-1 -32 -13 -120h-96q6 53 6 69zM606 872q0 48 -33 80q-33 33 -101 33t-112 -53q-43 -53 -63 -178l-74 -414q-12 -70 -12 -107q0 -125 125 -124q80 0 122 52q41 52 64 179
l72 414q12 70 12 118zM485 1110q266 0 267 -236q0 -53 -15 -135l-78 -438q-29 -170 -105 -244t-220 -73q-268 0 -268 237q0 53 14 133l78 441q30 171 106 243t221 72z" />
    <glyph glyph-name="uni0210.sc" horiz-adv-x="784" 
d="M451 1249h-101l-84 287h150zM655 1249h-100l-84 287h150zM379 584q63 0 98 14t62 53q55 76 55 197q0 70 -33 100t-108 29h-95l-69 -393h90zM444 1098q301 0 301 -230q1 -88 -27 -171t-74 -132t-124 -76l103 -489h-160l-76 465h-117l-82 -465h-145l193 1098h208z" />
    <glyph glyph-name="uni0212.sc" horiz-adv-x="784" 
d="M610 1331q0 92 -88 92q-57 1 -88 -35t-51 -126h-98q16 113 43 163q55 106 198 107q186 0 187 -150q-1 -32 -13 -120h-96q6 53 6 69zM379 584q63 0 98 14t62 53q55 76 55 197q0 70 -33 100t-108 29h-95l-69 -393h90zM444 1098q301 0 301 -230q1 -88 -27 -171t-74 -132
t-124 -76l103 -489h-160l-76 465h-117l-82 -465h-145l193 1098h208z" />
    <glyph glyph-name="uni0214.sc" horiz-adv-x="827" 
d="M487 1249h-100l-84 287h150zM692 1249h-100l-84 287h149zM209 217q0 -109 115 -108q80 0 120 44t58 152l139 789h147l-145 -815q-17 -95 -31 -133t-49 -74q-82 -88 -224 -88q-278 0 -278 200q0 47 19 148l135 762h145l-137 -770q-14 -84 -14 -107z" />
    <glyph glyph-name="uni0216.sc" horiz-adv-x="827" 
d="M659 1331q0 92 -88 92q-57 1 -88 -35t-51 -126h-98q16 113 43 163q55 106 198 107q186 0 187 -150q0 -32 -12 -120h-97q6 53 6 69zM358 -16q-280 0 -278 200q0 47 18 148l135 762h146l-137 -770q-14 -84 -15 -107q0 -109 115 -108q80 0 120 44t58 152l139 789h148
l-145 -815q-16 -95 -30 -133t-50 -74q-82 -88 -224 -88z" />
    <glyph glyph-name="uni1E24.sc" horiz-adv-x="827" 
d="M184 -393l37 207h137l-34 -207h-140zM41 0l192 1094h146l-84 -482h274l84 482h146l-193 -1094h-145l86 489h-275l-86 -489h-145z" />
    <glyph glyph-name="uni1E5A.sc" horiz-adv-x="784" 
d="M168 -393l37 207h137l-35 -207h-139zM379 584q63 0 98 14t62 53q55 76 55 197q0 70 -33 100t-108 29h-95l-69 -393h90zM444 1098q301 0 301 -230q1 -88 -27 -171t-74 -132t-124 -76l103 -489h-160l-76 465h-117l-82 -465h-145l193 1098h208z" />
    <glyph glyph-name="uni1E62.sc" horiz-adv-x="690" 
d="M111 -393l36 207h138l-35 -207h-139zM150 227q0 -119 118 -118q100 0 146 100q30 71 30 141t-26 96t-117 60q-178 70 -178 228t70 261q76 115 225 115q113 0 176 -58t63 -161q0 -43 -10 -103h-135q8 55 8 86q0 111 -102 111q-76 0 -113 -74t-37 -137t29 -96t122 -70
t133 -84t40 -141q0 -154 -70 -266q-82 -133 -254 -133q-120 0 -188 56t-68 159q1 51 15 125h133q-10 -59 -10 -97z" />
    </font>
</defs>
</svg>
