<?xml version="1.0" encoding="UTF-8"?>
<svg xmlns="http://www.w3.org/2000/svg" xmlns:xlink="http://www.w3.org/1999/xlink" version="1.2" >
<font id="Baskerville URW Extra Wide Extra Bold">
<font-face  font-family="Baskerville URW Extra Wide" units-per-em="1000" ascent="679" descent="-321" font-style="normal" font-weight="800" font-stretch="normal" cap-height="665" x-height="403" underline-position="-94" underline-thickness="89" />
<missing-glyph  horiz-adv-x="250" d="" />
<glyph glyph-name="NULL" d="" />
<glyph glyph-name="CR" unicode="&#xd;" horiz-adv-x="250" d="" />
<glyph glyph-name="space" unicode="&#x20;" horiz-adv-x="250" d="" />
<glyph glyph-name="exclam" unicode="&#x21;" horiz-adv-x="369" d="M214 220 L265 557 C268 580 270 600 270 611 C270 656 241 679 186 679 C126 679 98 657 98 609 C98 596 100 575 103 554 L153 220 L214 220 Z M183 160 C129 160 85 120 85 71 C85 23 129 -18 182 -18 C237 -18 281 21 281 71 C281 120 237 160 183 160 L183 160 Z " />
<glyph glyph-name="quotedbl" unicode="&#x22;" horiz-adv-x="543" d="M175 399 L231 667 L38 667 L93 399 L175 399 Z M448 399 L504 667 L311 667 L366 399 L448 399 Z " />
<glyph glyph-name="numbersign" unicode="&#x23;" horiz-adv-x="632" d="M421 227 L539 227 L551 293 L442 293 L471 388 L589 388 L601 454 L492 454 L558 667 L476 667 L410 454 L302 454 L368 667 L288 667 L222 454 L94 454 L82 388 L201 388 L172 293 L43 293 L30 227 L151 227 L80 0 L161 0 L231 227 L339 227 L269 0 L350 0 L421 227 Z M389 388 L360 293 L252 293 L281 388 L389 388 Z " />
<glyph glyph-name="dollar" unicode="&#x24;" horiz-adv-x="600" d="M260 -133 L316 -133 L316 -13 C456 1 547 81 547 190 C547 275 485 342 365 389 L329 403 C326 404 320 407 316 408 L316 594 C358 587 373 575 388 540 C404 503 404 503 415 492 C428 479 445 471 461 471 C493 471 521 497 521 527 C521 591 427 646 316 649 L316 679 L260 679 L260 647 C212 640 179 630 154 616 C99 583 65 526 65 466 C65 404 106 342 169 308 C189 297 215 286 260 267 L260 43 C231 49 206 68 192 96 C171 138 156 150 122 150 C84 150 58 127 58 94 C58 36 135 -6 260 -15 L260 -133 Z M316 240 C326 235 326 235 333 232 C368 217 368 217 378 211 C414 190 430 166 430 132 C430 82 393 53 316 42 L316 240 Z M255 432 L254 433 C212 449 186 482 186 519 C186 553 208 580 245 590 C250 591 253 593 255 594 L255 432 Z " />
<glyph glyph-name="percent" unicode="&#x25;" horiz-adv-x="867" d="M208 680 C159 680 115 665 88 638 C53 605 32 554 32 504 C32 398 98 333 204 333 C254 333 299 348 326 374 C360 405 380 456 380 508 C380 613 313 680 208 680 L208 680 Z M208 638 C250 638 270 598 270 513 C270 416 251 374 207 374 C161 374 143 410 143 503 C143 603 160 638 208 638 L208 638 Z M284 0 L661 668 L583 668 L206 0 L284 0 Z M663 334 C614 334 570 319 542 292 C508 259 487 208 487 158 C487 52 553 -13 659 -13 C709 -13 754 2 781 28 C815 60 835 110 835 162 C835 267 768 334 663 334 L663 334 Z M663 292 C705 292 725 252 725 166 C725 71 706 29 662 29 C616 29 598 65 598 156 C598 258 614 292 663 292 L663 292 Z " />
<glyph glyph-name="ampersand" unicode="&#x26;" horiz-adv-x="854" d="M489 293 L407 388 C486 424 527 474 527 532 C527 606 460 654 355 654 C238 654 167 596 167 503 C167 457 178 431 223 364 C103 303 48 240 48 165 C48 69 149 -14 267 -14 C343 -14 405 7 489 60 C541 11 596 -13 658 -13 C718 -13 774 13 799 52 C815 78 823 104 824 145 L765 145 C759 96 743 76 710 76 C679 76 651 96 613 146 C608 152 607 154 600 162 C620 187 638 213 664 255 C710 327 729 343 777 354 L777 407 L572 407 L572 354 C599 353 618 341 617 325 L617 324 C616 323 616 322 616 321 L616 314 C615 293 597 260 560 211 L489 293 Z M267 305 L300 268 L344 216 L392 161 L437 109 L441 105 C415 87 384 77 353 77 C273 77 188 157 188 232 C188 264 214 291 262 312 L267 305 Z M354 439 C317 484 299 519 299 548 C299 577 320 597 350 597 C387 597 414 568 414 528 C414 494 396 467 354 439 L354 439 Z " />
<glyph glyph-name="quotesingle" unicode="&#x27;" horiz-adv-x="299" d="M193 399 L249 667 L49 667 L105 399 L193 399 Z " />
<glyph glyph-name="parenleft" unicode="&#x28;" horiz-adv-x="381" d="M354 -245 C311 -185 282 -141 260 -99 C214 -14 186 106 186 217 C186 347 220 474 282 577 C297 601 318 631 354 679 L270 679 C167 564 106 392 106 216 C106 44 159 -106 270 -245 L354 -245 Z " />
<glyph glyph-name="parenright" unicode="&#x29;" horiz-adv-x="381" d="M111 -245 C221 -109 275 43 275 217 C275 392 216 559 111 679 L27 679 C63 631 84 601 99 577 C161 474 195 347 195 218 C195 107 167 -14 122 -99 C99 -142 70 -185 27 -245 L111 -245 Z " />
<glyph glyph-name="asterisk" unicode="&#x2a;" horiz-adv-x="588" d="M293 385 C311 365 319 350 325 326 C341 261 342 257 351 242 C365 220 384 208 406 208 C448 208 488 241 488 276 C488 290 480 306 467 317 C455 328 447 332 408 353 C375 369 347 390 332 412 C351 420 367 423 394 423 C409 423 429 422 448 420 C462 419 477 418 483 418 C527 418 558 443 558 479 C558 519 527 552 489 552 C467 552 445 543 422 524 C370 480 350 467 318 458 C317 466 317 469 317 475 C317 493 325 520 341 555 C359 595 361 603 361 621 C361 656 333 679 290 679 C248 679 219 655 219 621 C219 611 221 599 226 589 C262 512 267 499 267 479 C267 473 266 468 264 458 C244 460 220 474 176 509 C137 540 119 549 94 549 C58 549 27 515 27 477 C27 438 57 416 109 416 C117 416 125 416 132 417 C171 421 171 421 184 421 C217 421 235 418 250 412 C237 390 219 376 167 349 C114 321 96 302 96 274 C96 240 136 208 178 208 C216 208 238 234 250 291 C261 341 274 371 293 385 L293 385 Z " />
<glyph glyph-name="plus" unicode="&#x2b;" horiz-adv-x="550" d="M2 414 L2 325 L227 325 L227 120 L320 120 L320 325 L547 325 L547 414 L320 414 L320 617 L227 617 L227 414 L2 414 Z " />
<glyph glyph-name="comma" unicode="&#x2c;" horiz-adv-x="369" d="M74 -200 C205 -195 295 -110 295 8 C295 98 246 156 170 156 C110 156 68 119 68 65 C68 17 106 -18 157 -18 C164 -18 171 -17 178 -15 C192 -12 196 -11 202 -11 C214 -11 223 -21 223 -35 C223 -88 160 -134 74 -142 L74 -200 Z " />
<glyph glyph-name="hyphen" unicode="&#x2d;" horiz-adv-x="381" d="M33 254 L33 180 L352 180 L352 254 L33 254 Z " />
<glyph glyph-name="period" unicode="&#x2e;" horiz-adv-x="369" d="M184 160 C130 160 86 120 86 71 C86 23 130 -18 183 -18 C238 -18 282 21 282 71 C282 120 238 160 184 160 L184 160 Z " />
<glyph glyph-name="slash" unicode="&#x2f;" horiz-adv-x="381" d="M352 694 L231 694 L-18 -267 L101 -267 L352 694 Z " />
<glyph glyph-name="zero" unicode="0" horiz-adv-x="600" d="M298 677 C224 677 157 645 110 587 C66 532 42 441 42 327 C42 235 57 164 90 107 C132 33 212 -14 296 -14 C383 -14 453 24 501 97 C538 154 555 227 555 334 C555 432 541 498 508 555 C464 632 386 677 298 677 L298 677 Z M391 333 L391 289 L391 243 L391 209 C391 160 389 130 383 109 C371 67 343 44 301 44 C260 44 235 63 223 104 C214 133 207 238 207 334 C207 408 214 521 219 548 C230 598 256 621 301 621 C340 621 368 601 381 563 C389 538 391 513 391 422 L391 333 Z " />
<glyph glyph-name="one" unicode="1" horiz-adv-x="600" d="M335 679 C279 641 216 625 115 620 L115 567 L125 567 C209 566 227 551 227 488 L227 114 C225 72 205 55 154 55 L125 55 L125 0 L488 0 L488 55 L458 55 C398 58 387 70 387 128 L387 679 L335 679 Z " />
<glyph glyph-name="two" unicode="2" horiz-adv-x="600" d="M66 0 L424 0 C455 0 465 -5 465 -21 C465 -24 465 -24 464 -27 L461 -40 L518 -40 L546 100 L236 100 C274 134 302 162 359 220 C511 375 539 417 539 492 C539 602 443 677 301 677 C170 677 63 607 63 520 C63 479 82 428 98 428 C104 428 112 430 123 435 L124 435 L141 441 C143 442 150 445 159 448 C169 453 179 456 185 458 C194 461 198 464 198 468 C198 471 195 476 188 484 C173 500 163 522 163 540 C163 582 208 617 264 617 C333 617 374 570 374 490 C374 359 262 197 66 46 L66 0 Z " />
<glyph glyph-name="three" unicode="3" horiz-adv-x="600" d="M360 391 C430 429 455 446 483 473 C502 493 516 525 516 552 C516 626 433 677 312 677 C173 677 63 608 63 521 C63 488 81 454 99 454 C106 454 120 458 135 464 C138 465 143 467 148 469 C195 486 205 490 205 495 C205 498 203 501 199 504 C175 523 167 534 167 552 C167 586 214 617 265 617 C324 617 363 582 363 529 C363 470 319 416 235 373 C198 355 183 341 183 329 C183 310 199 295 217 295 C230 295 239 299 259 315 C278 330 290 335 308 335 C354 335 370 304 370 214 C370 156 363 118 350 95 C330 63 292 42 251 42 C216 42 198 55 183 89 C171 116 169 120 159 130 C145 143 126 151 106 151 C66 151 32 123 32 89 C32 29 110 -14 218 -14 C401 -14 534 88 534 229 C534 317 485 372 392 388 C381 390 369 391 360 391 L360 391 Z " />
<glyph glyph-name="four" unicode="4" horiz-adv-x="600" d="M294 228 L294 125 C294 71 279 58 218 55 L188 55 L188 0 L558 0 L558 55 L528 55 C470 57 453 75 454 129 L454 228 L557 228 L573 322 L535 322 L529 313 C519 298 518 297 497 296 L469 296 L454 296 L454 674 L369 674 L38 302 L38 228 L294 228 Z M294 296 L107 296 L294 494 L294 296 Z " />
<glyph glyph-name="five" unicode="5" horiz-adv-x="600" d="M165 336 C190 374 214 388 256 388 C296 388 331 371 347 343 C359 322 364 289 364 234 C364 165 356 117 341 90 C325 61 294 44 259 44 C225 44 195 60 179 86 C162 116 162 116 156 122 C141 139 121 148 100 148 C62 148 30 121 30 89 C30 31 117 -14 228 -14 C313 -14 401 15 455 62 C505 105 531 163 531 232 C531 288 513 336 479 372 C433 420 364 449 292 449 C240 449 193 435 160 409 L165 565 L365 565 L387 565 C423 563 427 567 470 658 C472 661 474 665 475 668 L109 668 L97 336 L165 336 Z " />
<glyph glyph-name="six" unicode="6" horiz-adv-x="600" d="M244 401 C244 460 260 527 287 575 C301 602 327 618 355 618 C381 618 399 609 415 586 C439 554 459 541 485 541 C518 541 547 567 547 597 C547 642 483 677 400 677 C197 677 59 516 59 280 C59 211 71 156 96 112 C141 33 224 -14 318 -14 C382 -14 445 9 491 49 C540 91 564 147 564 217 C564 343 476 425 340 425 C303 425 273 418 244 401 L244 401 Z M307 368 C364 368 384 321 384 183 C384 123 375 75 361 61 C350 49 334 42 316 42 C257 42 237 98 237 258 C237 330 261 368 307 368 L307 368 Z " />
<glyph glyph-name="seven" unicode="7" horiz-adv-x="600" d="M552 668 L212 668 C188 668 181 672 181 685 C181 688 181 690 183 695 L124 695 L51 493 L110 493 C126 537 139 546 189 544 L440 544 L213 132 C187 85 178 61 178 42 C178 11 212 -14 254 -14 C298 -14 325 12 347 76 L552 668 Z " />
<glyph glyph-name="eight" unicode="8" horiz-adv-x="600" d="M386 356 C491 382 541 433 541 511 C541 614 448 681 303 681 C155 681 62 615 62 510 C62 429 118 375 224 356 C101 336 43 279 43 181 C43 133 58 92 87 62 C129 16 215 -14 301 -14 C461 -14 561 62 561 183 C561 282 507 335 386 356 L386 356 Z M304 626 C365 626 385 595 385 499 C385 410 364 379 303 379 C271 379 243 392 232 412 C221 432 217 460 217 514 C217 594 242 626 304 626 L304 626 Z M303 325 C379 325 398 294 398 173 C398 74 375 41 305 41 C266 41 235 54 223 75 C210 99 205 131 205 191 C205 290 230 325 303 325 L303 325 Z " />
<glyph glyph-name="nine" unicode="9" horiz-adv-x="600" d="M357 262 C357 203 340 136 314 88 C299 61 274 45 245 45 C220 45 202 55 185 77 C161 109 141 122 116 122 C82 122 53 96 53 66 C53 21 117 -14 200 -14 C404 -14 542 147 542 383 C542 452 530 507 505 551 C460 630 377 677 283 677 C219 677 156 654 110 614 C61 572 37 516 37 446 C37 320 125 238 260 238 C298 238 328 245 357 262 L357 262 Z M285 621 C344 621 364 565 364 405 C364 333 340 295 294 295 C237 295 217 342 217 480 C217 583 235 621 285 621 L285 621 Z " />
<glyph glyph-name="colon" unicode="&#x3a;" horiz-adv-x="369" d="M186 160 C132 160 88 120 88 71 C88 23 132 -18 185 -18 C240 -18 284 21 284 71 C284 120 240 160 186 160 L186 160 Z M186 418 C133 418 88 378 88 331 C88 281 131 241 185 241 C240 241 284 280 284 330 C284 379 240 418 186 418 L186 418 Z " />
<glyph glyph-name="semicolon" unicode="&#x3b;" horiz-adv-x="369" d="M74 -200 C205 -195 295 -110 295 8 C295 98 246 156 170 156 C110 156 68 119 68 65 C68 17 106 -18 157 -18 C164 -18 171 -17 178 -15 C192 -12 196 -11 202 -11 C214 -11 223 -21 223 -35 C223 -88 160 -134 74 -142 L74 -200 Z M183 419 C129 419 85 379 85 330 C85 281 129 241 182 241 C237 241 281 280 281 330 C281 379 237 419 183 419 L183 419 Z " />
<glyph glyph-name="less" unicode="&#x3c;" horiz-adv-x="550" d="M509 644 L41 381 L41 372 L509 78 L509 278 L264 431 L509 569 L509 644 Z " />
<glyph glyph-name="equal" unicode="&#x3d;" horiz-adv-x="550" d="M22 490 L22 403 L528 403 L528 490 L22 490 Z M2 335 L2 248 L548 248 L548 335 L2 335 Z " />
<glyph glyph-name="greater" unicode="&#x3e;" horiz-adv-x="550" d="M41 78 L509 341 L509 350 L41 644 L41 444 L286 291 L41 153 L41 78 Z " />
<glyph glyph-name="question" unicode="&#x3f;" horiz-adv-x="531" d="M192 160 C137 160 92 120 92 71 C92 23 137 -18 190 -18 C246 -18 291 21 291 70 C291 120 247 160 192 160 L192 160 Z M160 222 L221 222 L221 312 C247 305 268 302 292 302 C403 302 485 377 485 479 C485 598 387 679 242 679 C134 679 45 629 45 569 C45 544 75 522 109 522 C142 522 164 539 175 572 C183 596 184 599 190 605 C199 616 219 623 238 623 C295 623 328 568 328 473 C328 406 301 369 251 369 C233 369 218 374 207 385 L160 385 L160 222 Z " />
<glyph glyph-name="at" unicode="&#x40;" horiz-adv-x="867" d="M546 481 C518 512 485 526 441 526 C391 526 348 507 305 467 C251 416 216 340 216 274 C216 198 275 137 348 137 C385 137 410 148 467 191 C478 160 510 141 550 141 C677 141 795 262 795 393 C795 551 642 677 451 677 C241 677 73 525 73 334 C73 143 240 -10 449 -10 C588 -10 712 58 782 172 L713 173 C650 91 554 45 448 45 C270 45 127 175 127 336 C127 500 268 625 451 625 C611 625 743 519 743 390 C743 340 724 294 687 253 C654 216 608 189 579 189 C567 189 555 199 555 210 C555 218 555 218 568 256 L658 513 C624 511 603 511 558 511 L546 481 Z M480 309 C459 253 456 246 442 229 C417 195 390 179 360 179 C327 179 306 200 306 232 C306 298 346 395 395 449 C414 470 443 483 469 483 C497 483 520 460 520 432 C520 424 517 411 513 400 L480 309 Z " />
<glyph glyph-name="A" unicode="A" horiz-adv-x="720" d="M735 0 L735 55 L730 55 C679 59 660 78 620 162 L390 679 L327 679 L107 177 C76 101 36 59 -8 55 L-15 55 L-15 0 L227 0 L227 55 L219 55 C177 55 151 70 151 94 C151 106 158 128 168 153 L180 180 L406 180 L417 155 C437 113 444 94 444 84 C444 64 423 55 377 55 L371 55 L371 0 L735 0 Z M382 236 L203 236 L290 436 L382 236 Z " />
<glyph glyph-name="B" unicode="B" horiz-adv-x="755" d="M30 663 L30 609 L38 609 C108 610 136 587 137 527 L137 136 C139 80 107 54 38 55 L30 55 L30 0 L409 0 C510 0 580 13 629 40 C684 71 713 118 713 175 C713 234 682 281 622 316 C589 335 555 345 494 355 C620 384 680 434 680 511 C680 559 652 605 608 630 C555 660 487 671 362 671 C324 671 324 671 191 667 L30 663 Z M311 324 L325 324 C417 324 455 318 478 298 C510 271 521 238 521 172 C521 133 515 112 498 94 C478 71 442 59 398 59 C357 59 332 69 319 91 C312 103 311 114 311 150 L311 324 Z M311 383 L311 613 L313 613 L320 613 C360 613 372 612 393 610 C460 602 491 566 491 495 C491 448 477 418 446 401 C420 387 399 383 334 383 L314 383 L311 383 Z " />
<glyph glyph-name="C" unicode="C" horiz-adv-x="816" d="M692 256 C676 195 638 130 603 104 C559 70 502 51 447 51 C373 51 306 85 275 140 C252 179 241 241 241 327 C241 420 252 482 277 526 C310 584 368 615 444 615 C562 615 645 545 683 412 L742 412 L735 658 L675 658 C667 632 661 617 652 599 C588 654 516 679 424 679 C321 679 225 645 160 586 C87 520 45 425 45 328 C45 132 204 -14 419 -14 C514 -14 606 18 661 70 C675 54 684 35 692 6 L752 6 L752 256 L692 256 Z " />
<glyph glyph-name="D" unicode="D" horiz-adv-x="876" d="M30 667 L30 613 L39 613 C110 612 137 589 137 531 L137 136 C138 79 108 53 39 55 L30 55 L30 0 L291 0 C490 1 533 4 590 22 C739 67 829 183 829 330 C829 461 757 569 634 625 C558 659 454 673 266 673 C191 673 161 672 33 667 L30 667 Z M311 615 C316 616 322 616 327 616 C438 616 493 600 550 551 C605 502 630 434 630 328 C630 239 610 170 571 123 C537 82 476 59 402 59 C365 59 341 67 326 86 C314 100 311 116 311 156 L311 615 Z " />
<glyph glyph-name="E" unicode="E" horiz-adv-x="738" d="M644 219 C609 99 557 57 448 59 L428 59 C335 59 309 81 314 154 L314 319 L387 319 C452 317 468 303 471 243 L471 235 L535 235 L535 461 L471 461 L471 455 C467 394 451 379 385 378 L314 378 L314 608 L457 608 C541 609 567 589 604 494 L665 494 L654 667 L30 667 L30 613 L44 613 C112 613 141 588 140 531 L140 136 C142 80 111 53 44 55 L30 55 L30 0 L700 0 L705 219 L644 219 Z " />
<glyph glyph-name="F" unicode="F" horiz-adv-x="658" d="M645 667 L30 667 L30 613 L44 613 C112 614 138 591 139 531 L139 136 C140 79 113 55 44 55 L32 55 L32 0 L427 0 L427 55 L410 55 C342 55 312 80 313 136 L313 318 L375 318 C436 317 451 303 457 237 L457 231 L518 231 L518 460 L457 460 L457 453 C450 393 435 379 376 378 L313 378 L313 608 L441 608 C527 609 555 586 589 490 L650 490 L645 667 Z " />
<glyph glyph-name="G" unicode="G" horiz-adv-x="866" d="M504 308 L504 254 L513 253 C567 248 586 232 588 190 L588 166 C588 131 584 112 572 94 C553 65 509 49 451 49 C368 49 308 77 279 130 C257 169 247 224 247 308 C247 395 257 465 276 507 C306 573 369 609 454 609 C566 609 642 552 682 439 L736 439 L730 672 L677 672 C675 646 669 625 658 602 C590 654 515 679 427 679 C214 679 45 522 45 325 C45 208 109 98 214 37 C272 3 341 -14 418 -14 C464 -14 488 -11 595 10 C663 23 712 29 744 29 C752 29 759 29 773 28 L773 168 C773 228 783 241 835 252 L847 254 L847 308 L504 308 Z " />
<glyph glyph-name="H" unicode="H" horiz-adv-x="937" d="M628 319 L628 136 C629 77 600 54 526 55 L526 0 L907 0 L907 55 L898 55 C829 55 801 79 802 136 L802 531 C802 590 829 613 898 612 L907 612 L907 667 L526 667 L526 612 L530 612 C598 614 628 590 628 531 L628 381 L309 381 L309 531 C309 590 336 613 406 612 L412 612 L412 667 L30 667 L30 612 L39 612 C107 612 135 589 135 531 L135 136 C135 78 112 57 39 55 L30 55 L30 0 L412 0 L412 55 L406 55 C340 53 307 80 309 136 L309 319 L628 319 Z " />
<glyph glyph-name="I" unicode="I" horiz-adv-x="448" d="M30 612 L40 612 C110 613 136 591 136 531 L136 136 C137 79 109 55 40 55 L30 55 L30 0 L418 0 L418 55 L406 55 C336 55 309 78 310 136 L310 531 C310 590 336 613 406 612 L418 612 L418 667 L30 667 L30 612 Z " />
<glyph glyph-name="J" unicode="J" horiz-adv-x="447" d="M31 667 L31 612 L52 612 C121 613 147 591 147 531 L147 8 C147 -142 124 -183 41 -183 C15 -183 -2 -175 -2 -162 C-2 -158 1 -153 6 -148 C19 -137 21 -133 21 -124 C21 -90 -13 -66 -61 -66 C-115 -66 -156 -97 -156 -139 C-156 -197 -80 -237 33 -237 C126 -237 203 -213 252 -170 C304 -123 321 -70 321 53 L321 531 C321 591 347 613 417 612 L427 612 L427 667 L31 667 Z " />
<glyph glyph-name="K" unicode="K" horiz-adv-x="878" d="M312 345 L312 531 C312 591 338 613 408 612 L421 612 L421 667 L30 667 L30 612 L42 612 C112 613 138 590 138 531 L138 136 C139 79 112 55 42 55 L30 55 L30 0 L411 0 L411 55 L408 55 C339 54 311 78 312 136 L312 264 L394 327 L535 142 C538 137 542 130 549 121 C564 103 569 93 569 84 C569 64 544 55 493 55 L487 55 L487 0 L908 0 L908 55 L903 55 C838 54 789 87 735 167 L533 440 L600 496 C701 581 753 608 823 612 L831 612 L831 667 L506 667 L506 612 L514 612 C552 612 572 602 572 582 C572 563 554 538 520 511 L312 345 Z " />
<glyph glyph-name="L" unicode="L" horiz-adv-x="716" d="M702 222 L643 222 C614 110 553 60 443 60 L428 60 C332 61 309 79 312 150 L312 531 C312 591 338 613 408 612 L423 612 L423 667 L30 667 L30 612 L42 612 C112 613 138 591 138 531 L138 136 C139 78 112 55 42 55 L30 55 L30 0 L698 0 L702 222 Z " />
<glyph glyph-name="M" unicode="M" horiz-adv-x="1103" d="M305 667 L28 667 L28 612 L34 612 C99 610 117 592 118 528 L118 178 C122 95 98 60 33 55 L28 55 L28 0 L273 0 L273 55 L268 55 C199 59 173 93 177 175 L177 520 L450 0 L494 0 L783 528 L783 136 C785 79 756 55 685 55 L669 55 L669 0 L1073 0 L1073 55 L1055 55 C984 55 955 79 957 136 L957 531 C957 591 984 613 1055 612 L1071 612 L1071 667 L783 667 L539 229 L305 667 Z " />
<glyph glyph-name="N" unicode="N" horiz-adv-x="863" d="M690 -11 L753 -11 L753 501 C750 570 772 601 832 612 L840 612 L840 667 L595 667 L595 612 L601 612 C662 610 693 571 690 503 L690 259 L278 667 L28 667 L28 612 L33 612 C100 612 136 578 138 511 L138 170 C138 123 136 111 129 100 C113 74 73 54 37 55 L32 55 L32 0 L311 0 L311 55 L295 55 C272 54 247 64 228 80 C204 103 201 112 201 171 L201 477 L690 -11 Z " />
<glyph glyph-name="O" unicode="O" horiz-adv-x="912" d="M464 679 C338 679 237 646 160 581 C90 521 45 423 45 328 C45 249 75 173 130 110 C200 31 318 -14 455 -14 C575 -14 678 19 751 82 C824 146 866 236 866 331 C866 450 800 561 692 623 C628 660 550 679 464 679 L464 679 Z M457 615 C532 615 591 585 622 531 C646 489 661 409 661 325 C661 239 650 178 626 134 C597 82 534 50 459 50 C391 50 342 71 303 116 C267 158 250 231 250 344 C250 529 316 615 457 615 L457 615 Z " />
<glyph glyph-name="P" unicode="P" horiz-adv-x="736" d="M30 667 L30 612 L49 612 C118 613 144 590 144 531 L144 136 C145 78 118 55 49 55 L35 55 L35 0 L432 0 L432 55 L414 55 C344 55 317 78 318 136 L318 295 L412 295 C495 295 550 303 597 323 C672 353 713 410 713 483 C713 545 680 602 626 631 C563 665 519 673 388 673 C337 673 337 673 194 670 L110 668 L30 667 Z M318 354 L318 613 L330 613 C372 613 404 611 421 607 C489 593 524 550 524 481 C524 432 506 395 474 376 C449 361 409 354 356 354 L318 354 Z " />
<glyph glyph-name="Q" unicode="Q" horiz-adv-x="910" d="M575 -2 C644 14 696 38 742 74 C820 137 866 232 866 330 C866 449 799 562 691 624 C628 660 548 679 457 679 C366 679 286 660 221 623 C112 561 45 450 45 330 C45 214 111 101 210 46 C273 11 363 -13 431 -13 L441 -13 L421 -23 C390 -40 340 -68 323 -79 C278 -108 265 -121 265 -138 C265 -158 280 -173 300 -173 C314 -173 329 -165 345 -150 C387 -110 406 -101 445 -101 C483 -101 524 -118 564 -151 C628 -204 628 -204 644 -214 C688 -242 738 -256 797 -256 C937 -256 1026 -189 1046 -70 L987 -70 C959 -106 906 -128 846 -128 C813 -128 749 -118 726 -110 C645 -79 645 -79 593 -66 C558 -57 512 -47 503 -47 C501 -47 498 -47 492 -48 L575 -2 Z M454 615 C507 615 557 598 591 569 C636 529 661 442 661 326 C661 139 596 51 457 51 C351 51 282 107 264 208 C256 252 250 319 250 355 C250 526 320 615 454 615 L454 615 Z " />
<glyph glyph-name="R" unicode="R" horiz-adv-x="812" d="M844 0 L844 55 L837 55 C792 57 760 86 691 185 C636 266 603 304 568 326 C664 355 717 412 717 488 C717 560 672 617 591 647 C552 661 436 669 264 669 C251 669 241 669 231 668 L215 668 L30 667 L30 612 L46 612 C115 613 141 591 141 531 L141 136 C142 78 115 55 46 55 L30 55 L30 0 L425 0 L425 55 L411 55 C342 55 314 79 315 136 L315 294 L326 294 C402 297 427 282 475 205 C557 73 585 32 615 0 L844 0 Z M315 354 L315 606 C327 607 334 607 345 607 C417 607 455 601 483 586 C517 567 535 531 535 483 C535 433 516 393 484 375 C458 360 422 354 354 354 L315 354 Z " />
<glyph glyph-name="S" unicode="S" horiz-adv-x="623" d="M61 11 L126 11 C130 33 135 49 144 65 C190 16 265 -14 342 -14 C480 -14 586 76 586 191 C586 242 565 289 528 325 C490 361 438 389 332 429 C228 468 194 496 194 544 C194 589 234 620 291 620 C371 620 439 561 465 470 L525 470 L525 667 L463 667 C462 665 462 663 462 663 L460 656 C457 642 452 631 445 622 C405 658 346 679 285 679 C160 679 61 591 61 480 C61 396 113 335 227 284 C339 234 353 228 385 210 C420 190 440 163 440 132 C440 84 394 49 331 49 C267 49 211 80 171 137 C153 162 141 189 126 239 L61 239 L61 11 Z " />
<glyph glyph-name="T" unicode="T" horiz-adv-x="766" d="M76 477 C95 584 121 607 226 608 L293 608 L293 136 C294 77 266 54 197 55 L178 55 L178 0 L583 0 L583 55 L563 55 C494 54 466 77 467 136 L467 608 L535 608 C630 608 659 583 688 477 L749 477 L749 667 L15 667 L15 477 L76 477 Z " />
<glyph glyph-name="U" unicode="U" horiz-adv-x="853" d="M582 667 L582 612 L588 612 C651 612 686 575 684 510 L684 286 C684 206 680 176 664 148 C631 90 565 55 489 55 C419 55 362 84 333 135 C316 164 310 200 310 268 L310 531 C310 592 333 613 400 612 L412 612 L412 667 L19 667 L19 612 L27 612 C94 613 117 592 117 531 L117 268 C117 217 118 206 123 182 C134 135 158 95 195 62 C252 12 333 -14 432 -14 C525 -14 617 14 669 59 C720 103 747 178 747 274 L747 507 C745 574 766 600 829 612 L834 612 L834 667 L582 667 Z " />
<glyph glyph-name="V" unicode="V" horiz-adv-x="786" d="M445 -14 L667 460 L687 501 C729 595 743 610 784 613 L800 612 L800 667 L561 667 L561 612 L566 612 C611 612 637 595 637 566 C637 557 628 523 622 510 L480 207 L322 510 C307 538 298 564 298 579 C298 601 325 612 374 612 L381 612 L381 667 L-15 667 L-15 612 L-10 612 C60 611 71 600 120 498 L373 -14 L445 -14 Z " />
<glyph glyph-name="W" unicode="W" horiz-adv-x="1037" d="M789 -14 L937 466 C972 581 992 609 1040 613 L1051 613 L1051 667 L816 667 L816 613 L821 613 C861 613 888 591 888 558 C888 545 884 526 879 507 L797 236 L611 667 L527 667 L373 236 L270 534 C264 551 261 567 261 579 C261 601 279 613 315 613 L321 613 L321 667 L-13 667 L-13 613 L-3 613 L2 613 C41 613 58 593 84 515 L262 -14 L349 -14 L514 434 L705 -14 L789 -14 Z " />
<glyph glyph-name="X" unicode="X" horiz-adv-x="883" d="M846 667 L553 667 L553 612 L561 612 C603 612 623 603 623 585 C623 572 614 554 601 541 L489 429 L389 547 C377 561 370 576 370 588 C370 606 386 612 426 612 L433 612 L433 667 L19 667 L19 612 L24 612 C100 608 108 604 195 500 L360 307 L198 147 C131 81 82 54 25 55 L20 55 L20 0 L343 0 L343 55 L324 54 C282 54 257 69 257 94 C257 109 265 122 287 144 L402 258 L508 135 C523 117 531 101 531 88 C531 64 508 55 449 55 L443 55 L443 0 L891 0 L891 55 L889 55 L885 54 L883 54 C808 63 792 75 703 178 L532 382 L657 506 C740 588 770 605 846 613 L846 667 Z " />
<glyph glyph-name="Y" unicode="Y" horiz-adv-x="732" d="M431 353 L320 534 C304 559 299 572 299 583 C299 602 317 612 350 612 L355 612 L355 667 L-13 667 L-13 612 L-7 612 C36 610 59 594 95 539 L279 273 L279 136 C280 78 253 55 183 55 L170 55 L170 0 L563 0 L563 55 L552 55 C482 55 454 78 455 136 L455 284 L618 512 C672 590 694 608 741 612 L746 612 L746 667 L494 667 L494 612 L500 612 C542 612 565 597 565 570 C565 554 558 533 546 517 L431 353 Z " />
<glyph glyph-name="Z" unicode="Z" horiz-adv-x="749" d="M37 0 L696 0 L709 198 L648 198 C606 86 563 57 440 59 L271 59 L686 622 L686 667 L69 667 L57 489 L115 489 C149 590 184 609 330 608 L449 608 L37 44 L37 0 Z " />
<glyph glyph-name="bracketleft" unicode="&#x5b;" horiz-adv-x="473" d="M449 -235 L449 -182 L351 -182 C297 -182 280 -168 281 -124 L281 556 C280 600 297 614 351 614 L449 614 L449 667 L138 667 L138 -235 L449 -235 Z " />
<glyph glyph-name="backslash" unicode="&#x5c;" horiz-adv-x="550" d="M468 -126 L164 669 L81 669 L387 -126 L468 -126 Z " />
<glyph glyph-name="bracketright" unicode="&#x5d;" horiz-adv-x="473" d="M24 -235 L335 -235 L335 667 L24 667 L24 614 L122 614 C176 614 193 600 192 556 L192 -124 C193 -168 176 -182 122 -182 L24 -182 L24 -235 Z " />
<glyph glyph-name="asciicircum" unicode="&#x5e;" horiz-adv-x="550" d="M586 275 L297 700 L287 700 L-36 275 L184 275 L352 497 L504 275 L586 275 Z " />
<glyph glyph-name="underscore" unicode="&#x5f;" horiz-adv-x="500" d="M2 -93 L2 -182 L498 -182 L498 -93 L2 -93 Z " />
<glyph glyph-name="grave" unicode="&#x60;" horiz-adv-x="526" d="M316 486 L251 643 L72 643 L72 632 L274 486 L316 486 Z " />
<glyph glyph-name="a" unicode="a" horiz-adv-x="621" d="M572 90 C567 72 556 62 541 62 C521 62 511 76 511 105 L511 291 C511 335 507 350 488 371 C459 404 403 419 311 419 C233 419 176 410 133 391 C83 369 57 342 57 311 C57 280 86 259 127 259 C170 259 193 276 200 312 C204 330 209 342 215 347 C226 356 252 363 277 363 C301 363 325 357 337 348 C346 340 351 325 351 303 L351 266 C109 192 41 152 41 82 C41 26 94 -10 177 -10 C243 -10 306 8 360 43 C382 8 424 -10 484 -10 C567 -10 616 26 619 90 L572 90 Z M351 96 C325 75 292 62 262 62 C225 62 192 85 192 112 C192 149 233 174 351 211 L351 96 Z " />
<glyph glyph-name="b" unicode="b" horiz-adv-x="681" d="M14 593 L18 593 C79 590 97 575 98 527 L98 -11 L139 -11 C141 -9 145 -6 145 -5 C158 5 170 15 182 25 L219 54 L226 61 C278 14 343 -12 411 -12 C544 -12 641 80 641 204 C641 330 546 419 412 419 C355 419 308 404 257 369 L257 679 L252 679 C238 676 208 672 153 665 C140 664 85 656 14 645 L14 593 Z M257 301 C294 335 329 350 370 350 C439 350 473 300 473 199 C473 151 461 106 443 87 C424 66 391 53 354 53 C314 53 288 65 267 94 C258 107 257 108 257 111 L257 301 Z " />
<glyph glyph-name="c" unicode="c" horiz-adv-x="545" d="M463 124 C438 74 393 49 330 49 C245 49 205 100 205 210 C205 269 209 295 223 319 C239 349 270 366 307 366 C336 366 350 357 356 334 C370 279 393 258 437 258 C477 258 508 286 508 322 C508 381 438 419 329 419 C159 419 37 325 37 194 C37 70 144 -16 298 -16 C406 -16 487 27 519 102 L463 124 Z " />
<glyph glyph-name="d" unicode="d" horiz-adv-x="677" d="M662 66 L653 66 C596 68 576 85 575 132 L575 679 L569 679 C550 675 545 674 530 672 C517 670 454 659 395 650 L349 642 L349 590 L352 590 C401 589 415 575 416 525 L416 366 C381 400 324 419 261 419 C174 419 104 382 66 315 C48 283 40 246 40 196 C40 68 117 -9 247 -9 C311 -9 362 11 416 56 C416 30 419 11 428 -9 C488 1 557 7 662 11 L662 66 Z M416 124 C390 86 350 65 304 65 C263 65 235 83 220 117 C213 135 208 175 208 220 C208 304 244 348 314 348 C349 348 378 336 416 307 L416 124 Z " />
<glyph glyph-name="e" unicode="e" horiz-adv-x="567" d="M465 104 C431 65 390 45 346 45 C268 45 224 98 224 193 C224 199 224 201 225 206 L530 206 L530 216 C530 271 515 313 482 349 C441 392 369 419 292 419 C146 419 40 328 40 204 C40 76 149 -16 298 -16 C387 -16 473 21 516 77 L465 104 Z M226 255 C229 307 232 321 243 340 C252 355 273 365 294 365 C314 365 335 354 344 340 C356 320 360 303 363 255 L226 255 Z " />
<glyph glyph-name="f" unicode="f" horiz-adv-x="405" d="M381 403 L281 403 L281 428 L281 475 C281 560 283 579 297 603 C303 616 315 623 328 623 C345 623 360 612 365 595 C376 559 379 553 391 539 C405 523 428 513 452 513 C496 513 532 545 532 585 C532 643 466 679 359 679 C280 679 214 659 171 620 C122 578 108 532 108 417 L108 403 L18 403 L18 350 L108 350 L108 118 C108 68 93 55 37 52 L18 52 L18 0 L381 0 L381 52 L352 52 C298 54 282 69 281 118 L281 350 L381 350 L381 403 Z " />
<glyph glyph-name="g" unicode="g" horiz-adv-x="591" d="M136 -106 L141 -99 C141 -98 142 -98 143 -96 C122 -88 110 -85 95 -85 C62 -85 35 -112 35 -143 C35 -171 53 -198 83 -216 C122 -238 186 -249 275 -249 C372 -249 437 -236 488 -207 C542 -176 572 -129 572 -72 C572 -12 538 33 479 51 C441 62 405 66 331 66 L304 66 C288 65 283 65 264 65 L221 65 C181 64 161 72 161 89 C161 115 197 128 266 128 C416 127 510 185 510 278 C510 302 504 323 489 345 C499 354 504 356 512 356 C521 356 526 354 537 345 C550 334 558 331 569 331 C591 331 605 346 605 371 C605 401 585 419 551 419 C524 419 502 409 456 376 C413 406 364 418 291 418 C139 418 49 365 49 277 C49 213 95 164 173 144 C96 126 61 94 61 42 C61 -34 128 -64 300 -64 C384 -64 413 -65 431 -68 C466 -75 482 -89 482 -113 C482 -166 406 -197 276 -197 C185 -197 125 -171 125 -132 C125 -126 128 -118 134 -109 L136 -106 Z M280 365 C332 365 360 335 360 280 C360 215 336 185 285 185 C230 185 202 217 202 280 C202 334 230 365 280 365 L280 365 Z " />
<glyph glyph-name="h" unicode="h" horiz-adv-x="668" d="M258 679 L252 679 C238 675 205 670 154 663 C113 657 71 650 20 640 L20 588 L23 588 C86 585 99 574 99 522 L99 118 C98 69 82 54 23 52 L20 52 L20 0 L321 0 L321 52 L317 52 C275 55 259 73 258 118 L258 272 C297 316 328 335 363 335 C401 335 421 313 421 272 L421 118 C420 73 406 57 365 53 L358 52 L358 0 L660 0 L660 52 L655 52 C601 54 583 70 582 118 L582 255 C582 302 577 331 564 353 C540 393 484 419 422 419 C359 419 303 395 258 348 L258 679 Z " />
<glyph glyph-name="i" unicode="i" horiz-adv-x="359" d="M190 679 C142 679 102 639 102 591 C102 541 141 501 190 501 C239 501 278 541 278 590 C278 639 239 679 190 679 L190 679 Z M267 419 L261 419 C231 413 231 413 134 398 C48 385 44 384 18 382 L18 330 L31 330 C87 327 101 314 101 264 L101 118 C100 67 86 54 31 52 L18 52 L18 0 L349 0 L349 52 L344 52 C287 54 268 70 267 118 L267 419 Z " />
<glyph glyph-name="j" unicode="j" horiz-adv-x="339" d="M281 419 L275 419 C247 414 240 413 194 405 C170 402 146 398 121 394 L55 383 L41 381 L41 329 L56 329 C109 327 121 314 122 264 L122 -61 C122 -131 120 -147 108 -170 C100 -184 89 -191 75 -191 C61 -191 47 -183 42 -171 C26 -130 9 -116 -27 -116 C-66 -116 -95 -141 -95 -175 C-95 -219 -44 -247 37 -247 C145 -247 236 -201 266 -131 C278 -102 281 -70 281 18 L281 419 Z M196 679 C148 679 108 639 108 591 C108 541 147 501 196 501 C245 501 284 541 284 590 C284 639 245 679 196 679 L196 679 Z " />
<glyph glyph-name="k" unicode="k" horiz-adv-x="659" d="M378 403 L378 351 L382 351 C408 351 420 346 420 335 C420 331 418 327 416 325 C415 324 414 323 414 322 L416 323 C406 315 403 313 368 292 L304 253 L257 225 L257 679 L251 679 C238 676 207 671 153 663 C114 657 104 655 19 640 L19 588 L27 588 C86 585 98 574 98 523 L98 118 C97 69 80 54 21 52 L17 52 L17 0 L323 0 L323 52 L318 52 C274 55 258 73 257 118 L257 160 L309 190 L393 100 C410 76 410 76 410 71 C410 59 400 52 381 52 L378 52 L378 0 L654 0 L654 52 L648 53 C619 56 614 60 545 137 L430 266 L466 292 C533 339 560 351 602 351 L605 351 L605 403 L378 403 Z " />
<glyph glyph-name="l" unicode="l" horiz-adv-x="358" d="M257 679 L251 679 C233 676 160 663 32 642 L20 640 L20 588 L28 588 C86 585 98 574 98 522 L98 118 C97 68 81 54 23 52 L18 52 L18 0 L341 0 L341 52 L335 52 C279 52 256 71 257 118 L257 679 Z " />
<glyph glyph-name="m" unicode="m" horiz-adv-x="972" d="M21 320 L25 320 C76 319 99 301 101 260 L101 118 C100 69 84 54 25 52 L23 52 L23 0 L318 0 L318 52 L314 52 C276 55 261 73 260 118 L260 274 L261 275 C309 324 326 335 356 335 C389 335 405 314 405 270 L405 118 C404 70 398 59 369 53 L365 52 L365 0 L619 0 L619 52 L616 52 C583 55 572 72 571 118 L572 272 C616 318 643 334 675 334 C709 334 726 314 726 275 L726 118 C725 72 713 58 674 53 L669 52 L669 0 L964 0 L964 52 L959 52 C906 54 888 70 887 118 L887 257 C887 314 884 328 870 353 C847 393 793 419 733 419 C671 419 610 390 562 338 C539 390 487 419 421 419 C362 419 305 394 263 350 C263 373 260 393 253 408 L249 408 C232 404 215 401 165 394 C135 390 85 382 21 372 L21 320 Z " />
<glyph glyph-name="n" unicode="n" horiz-adv-x="670" d="M249 408 C226 403 211 401 166 394 C75 381 55 378 21 372 L21 320 L25 320 C77 319 100 301 102 260 L102 118 C101 68 85 54 26 52 L23 52 L23 0 L324 0 L324 52 L319 52 C278 55 262 73 261 118 L261 273 C307 319 333 335 367 335 C402 335 424 314 424 281 L424 274 L424 118 C423 73 409 57 368 53 L361 52 L361 0 L662 0 L662 52 L657 52 C604 54 586 70 585 118 L585 258 C585 306 580 330 567 353 C544 393 489 419 428 419 C366 419 307 394 264 350 C263 378 260 396 254 408 L249 408 Z " />
<glyph glyph-name="o" unicode="o" horiz-adv-x="622" d="M40 199 C40 142 63 88 102 54 C152 10 230 -16 310 -16 C388 -16 466 11 515 53 C558 92 581 144 581 204 C581 256 564 301 531 336 C483 387 397 419 308 419 C152 419 40 329 40 203 L40 199 Z M310 364 C348 364 381 349 396 324 C408 303 413 270 413 207 C413 81 388 38 313 38 C273 38 243 54 227 83 C212 110 208 142 208 222 C208 274 219 321 234 337 C252 354 279 364 310 364 L310 364 Z " />
<glyph glyph-name="p" unicode="p" horiz-adv-x="679" d="M234 419 C216 415 198 412 146 404 C102 398 41 388 12 383 L12 331 L16 331 C74 329 93 313 94 266 L94 -120 C93 -169 76 -183 16 -185 L12 -185 L12 -237 L349 -237 L349 -185 L330 -185 C273 -183 254 -168 253 -120 L253 40 C308 1 355 -16 411 -16 C542 -16 639 79 639 207 C639 328 547 419 425 419 C362 419 300 394 250 349 C248 388 247 395 240 419 L234 419 Z M253 282 C283 324 323 346 369 346 C405 346 437 330 452 303 C465 280 471 247 471 198 C471 155 466 127 455 107 C438 78 401 58 364 58 C325 58 284 73 253 100 L253 282 Z " />
<glyph glyph-name="q" unicode="q" horiz-adv-x="649" d="M451 349 C394 397 339 418 271 418 C134 418 40 328 40 198 C40 68 129 -16 266 -16 C325 -16 370 -1 424 37 L424 -120 C423 -167 404 -183 347 -185 L331 -185 L331 -237 L666 -237 L666 -185 L661 -185 C603 -183 584 -167 583 -120 L583 419 L541 419 L535 414 L498 385 L459 355 L451 349 Z M424 102 C389 71 348 55 308 55 C273 55 241 71 228 95 C214 121 208 156 208 212 C208 307 240 351 310 351 C353 351 382 337 424 295 L424 102 Z " />
<glyph glyph-name="r" unicode="r" horiz-adv-x="522" d="M226 416 L163 404 L88 389 L30 378 L21 376 L21 324 L25 324 C82 322 101 306 102 258 L102 118 C101 69 84 54 27 52 L22 52 L22 0 L351 0 L351 52 L339 52 C281 54 262 70 261 118 L261 162 C261 268 285 318 335 318 C351 318 364 312 378 298 C407 269 416 265 442 265 C486 265 516 294 516 335 C516 384 476 419 421 419 C354 419 295 383 255 318 C253 360 248 393 239 419 L226 416 Z " />
<glyph glyph-name="s" unicode="s" horiz-adv-x="504" d="M47 -12 L95 -12 C101 0 108 8 118 15 C124 13 125 13 133 10 C183 -9 221 -16 265 -16 C386 -16 464 41 464 130 C464 170 447 203 413 230 C384 253 327 271 240 284 C184 292 151 310 151 333 C151 357 184 373 231 373 C308 373 364 343 385 292 L433 292 L433 415 L388 415 C381 404 374 396 367 391 C311 411 267 419 220 419 C121 419 44 360 44 284 C44 217 100 172 213 147 C314 125 314 125 335 110 C344 104 350 93 350 83 C350 56 308 35 254 35 C179 35 123 67 100 123 L47 123 L47 -12 Z " />
<glyph glyph-name="t" unicode="t" horiz-adv-x="395" d="M385 349 L385 403 L250 403 L250 536 L193 536 C180 457 111 402 27 402 C25 402 18 402 12 403 L12 349 L77 349 L77 115 C77 31 130 -16 226 -16 C312 -16 376 19 401 78 L348 94 C332 64 316 53 291 53 C272 53 261 60 255 79 C251 90 250 99 250 140 L250 349 L385 349 Z " />
<glyph glyph-name="u" unicode="u" horiz-adv-x="655" d="M562 403 L337 403 L337 351 L341 351 C389 349 402 336 403 285 L403 131 C368 87 338 68 300 68 C262 68 245 91 245 140 L245 403 L11 403 L11 351 L14 351 C67 349 85 333 86 285 L86 131 C86 90 90 71 102 50 C126 10 180 -16 240 -16 C302 -16 358 8 403 55 L403 49 L403 31 L404 9 L403 -10 L403 -16 L409 -16 C443 -8 571 1 644 0 L644 52 L640 52 C582 54 563 70 562 118 L562 403 Z " />
<glyph glyph-name="v" unicode="v" horiz-adv-x="565" d="M571 351 L571 403 L414 403 L414 351 L418 351 C441 351 455 343 455 331 C455 325 452 315 446 305 L349 130 L250 302 C243 314 239 324 239 331 C238 343 255 351 281 351 L287 351 L287 403 L-6 403 L-6 351 L-1 351 C30 351 39 341 80 272 L236 -7 L340 -7 L486 258 C529 341 531 344 567 351 L571 351 Z " />
<glyph glyph-name="w" unicode="w" horiz-adv-x="865" d="M675 -9 L789 254 C821 335 832 348 870 351 L872 351 L872 403 L694 403 L694 351 L698 351 C733 351 752 341 752 323 C752 320 752 320 745 300 L681 145 L546 403 L450 403 L317 145 L247 296 C239 313 235 326 235 333 C235 344 253 351 286 351 L291 351 L291 403 L-9 403 L-9 351 L-4 351 C30 350 41 341 67 291 L210 -9 L307 -9 L439 249 L576 -9 L675 -9 Z " />
<glyph glyph-name="x" unicode="x" horiz-adv-x="592" d="M558 351 L558 403 L372 403 L372 351 L375 351 C400 351 409 348 409 338 C409 331 399 320 381 305 L340 272 L297 313 C286 325 281 332 281 338 C281 347 290 351 311 351 L317 351 L317 403 L9 403 L9 351 L17 351 C40 348 68 327 115 277 L212 175 L135 110 C96 78 64 61 26 54 L19 52 L19 0 L208 0 L208 52 L205 52 L196 52 L190 52 C176 52 167 57 167 66 C167 73 176 83 190 93 L256 140 L308 88 C320 76 322 72 322 68 C322 57 309 52 282 52 L277 52 L269 52 L269 0 L584 0 L584 52 L578 53 C562 56 543 70 506 106 L372 236 L463 305 C504 336 530 349 555 351 L558 351 Z " />
<glyph glyph-name="y" unicode="y" horiz-adv-x="577" d="M-7 403 L-7 351 L1 350 C29 347 39 338 73 282 L267 -18 L255 -44 C230 -90 206 -104 128 -121 C77 -131 54 -151 54 -184 C54 -222 89 -251 135 -251 C165 -251 194 -240 217 -220 C236 -203 254 -177 284 -121 L474 230 C522 332 532 346 562 350 L571 351 L571 403 L408 403 L408 351 L417 351 C433 352 451 339 451 327 C451 318 444 300 433 278 L359 139 L258 295 C252 305 245 325 245 333 C245 344 255 350 275 351 L284 351 L284 403 L-7 403 Z " />
<glyph glyph-name="z" unicode="z" horiz-adv-x="541" d="M32 0 L496 0 L510 138 L452 138 C420 72 399 53 354 53 L255 53 L502 357 L502 403 L59 403 L48 279 L107 279 C139 345 145 350 179 350 L281 350 L32 41 L32 0 Z " />
<glyph glyph-name="braceleft" unicode="&#x7b;" horiz-adv-x="456" d="M73 199 C143 194 161 173 163 98 L163 -80 C164 -145 186 -190 226 -212 C246 -225 294 -231 387 -232 L427 -232 L427 -201 C336 -199 304 -162 307 -63 L307 89 C309 162 274 197 181 214 L181 217 L181 221 C274 238 309 272 307 346 L307 497 C304 597 336 634 427 636 L427 667 L387 667 C294 666 246 660 226 646 C186 624 164 579 163 515 L163 336 C161 261 143 240 73 235 L73 199 Z " />
<glyph glyph-name="bar" unicode="&#x7c;" horiz-adv-x="539" d="M209 667 L209 -167 L331 -167 L331 667 L209 667 Z " />
<glyph glyph-name="braceright" unicode="&#x7d;" horiz-adv-x="458" d="M385 235 C316 240 297 261 296 336 L296 515 C295 579 273 624 233 646 C213 660 165 666 72 667 L32 667 L32 636 C123 634 154 597 152 497 L152 346 C150 272 185 238 278 221 L278 218 L278 214 C185 197 150 162 152 89 L152 -63 C154 -162 123 -199 32 -201 L32 -232 L72 -232 C165 -231 213 -225 233 -212 C273 -190 295 -145 296 -80 L296 98 C297 173 316 194 385 199 L385 235 Z " />
<glyph glyph-name="asciitilde" unicode="&#x7e;" horiz-adv-x="695" d="M511 733 C489 707 467 694 444 694 C423 694 394 701 363 713 C332 725 303 732 283 732 C242 732 201 694 157 614 L183 598 C213 631 226 638 255 638 C276 638 293 633 334 617 C366 605 385 600 406 600 C437 600 458 609 478 631 C504 660 523 687 538 717 L511 733 Z " />
<glyph glyph-name="uni00A0" unicode="&#xa0;" horiz-adv-x="250" d="" />
<glyph glyph-name="exclamdown" unicode="&#xa1;" horiz-adv-x="369" d="M157 210 L107 -124 C104 -145 102 -166 102 -179 C102 -225 131 -248 189 -248 C244 -248 274 -224 274 -179 C274 -169 272 -149 269 -127 L218 210 L157 210 Z M187 448 C133 448 89 408 89 359 C89 311 133 270 186 270 C241 270 285 309 285 359 C285 408 241 448 187 448 L187 448 Z " />
<glyph glyph-name="cent" unicode="&#xa2;" horiz-adv-x="600" d="M507 124 C484 77 431 45 374 45 C362 45 350 49 339 56 L403 345 C409 343 410 340 411 322 C413 286 445 258 483 258 C522 258 554 286 554 321 C554 369 502 405 418 416 L462 613 L404 613 L361 419 L355 419 C325 419 249 404 226 394 C132 353 79 280 79 193 C79 89 146 17 267 -9 L227 -190 L286 -190 L324 -16 C335 -17 341 -18 347 -18 C386 -18 451 -2 483 16 C523 39 547 65 563 102 L507 124 Z M290 95 C263 123 247 171 247 228 C247 311 283 358 349 365 L290 95 Z " />
<glyph glyph-name="sterling" unicode="&#xa3;" horiz-adv-x="800" d="M32 198 L195 198 C181 139 166 94 147 51 C68 9 29 -30 29 -67 C29 -95 63 -120 101 -120 C117 -120 133 -113 146 -103 C167 -84 169 -82 201 -19 L207 -8 L210 -1 L211 1 C223 6 232 8 241 8 C263 8 291 -8 333 -44 C399 -99 446 -120 508 -120 C632 -120 748 -25 748 75 C748 117 718 148 676 148 C640 148 615 126 615 94 C615 81 620 65 628 51 C648 16 649 13 649 2 C649 -20 624 -39 596 -39 C563 -39 528 -20 462 34 C411 76 364 97 319 97 C301 97 285 94 256 86 C288 127 311 163 329 198 L519 198 L539 275 L365 275 C389 326 409 398 446 578 C466 678 497 721 548 721 C581 721 599 711 621 679 C650 638 665 628 696 628 C732 628 763 655 763 687 C763 741 688 781 588 781 C462 781 373 726 307 606 C271 540 245 449 218 296 C218 294 217 291 217 291 L216 285 L215 280 L214 275 L54 275 L32 198 Z " />
<glyph glyph-name="currency" unicode="&#xa4;" horiz-adv-x="734" d="M20 88 L86 28 L198 130 C256 98 302 86 364 86 C424 86 475 99 533 130 L645 29 L711 88 L596 193 C630 244 643 286 643 344 C643 399 631 436 596 492 L714 599 L648 659 L532 553 C474 584 420 598 363 598 C303 598 242 582 197 555 L86 657 L20 597 L130 497 C93 437 81 399 81 346 C81 292 96 245 131 188 L20 88 Z M365 466 C449 466 515 411 515 340 C515 274 447 218 365 218 C282 218 214 274 214 342 C214 411 282 466 365 466 L365 466 Z " />
<glyph glyph-name="yen" unicode="&#xa5;" horiz-adv-x="577" d="M409 479 L260 479 L229 533 C216 556 210 571 210 583 C210 602 225 612 255 612 L260 612 L260 667 L-71 667 L-71 612 L-66 612 C-21 609 -7 596 35 524 L62 479 L-34 479 L-34 424 L94 424 L191 274 L-25 274 L-25 219 L192 219 L192 136 C192 74 172 55 106 55 L94 55 L94 0 L447 0 L447 55 L437 55 C370 55 351 74 351 136 L351 219 L567 219 L567 274 L358 274 L358 285 L444 424 L576 424 L576 479 L477 479 C540 583 569 613 608 612 L612 612 L612 667 L385 667 L385 612 L390 612 C432 612 457 598 457 575 C457 564 453 551 444 537 L409 479 Z M375 424 L334 353 L292 424 L375 424 Z " />
<glyph glyph-name="brokenbar" unicode="&#xa6;" horiz-adv-x="539" d="M209 667 L209 304 L331 304 L331 667 L209 667 Z M209 153 L209 -167 L331 -167 L331 153 L209 153 Z " />
<glyph glyph-name="section" unicode="&#xa7;" horiz-adv-x="565" d="M159 372 C75 354 28 304 28 230 C28 151 78 91 206 15 C304 -43 314 -49 332 -62 C365 -86 380 -108 380 -133 C380 -165 344 -191 298 -191 C257 -191 229 -172 218 -138 C203 -94 202 -92 191 -82 C177 -69 158 -62 140 -62 C100 -62 68 -91 68 -126 C68 -194 153 -246 264 -246 C394 -246 489 -180 489 -89 C489 -34 457 20 403 56 C447 69 464 78 483 95 C512 121 527 158 527 203 C527 255 510 295 472 335 C443 365 415 383 313 441 C251 476 232 488 211 503 C188 521 174 543 174 564 C174 597 212 623 259 623 C286 623 310 614 324 598 C331 590 336 581 344 560 C353 536 356 530 361 523 C373 505 391 496 415 496 C458 496 491 524 491 561 C491 625 403 677 295 677 C163 677 67 609 67 516 C67 459 97 412 159 372 L159 372 Z M185 331 C219 331 291 296 353 250 C406 210 430 180 430 151 C430 124 403 102 370 102 C336 102 299 119 223 170 C157 214 124 251 124 281 C124 307 154 331 185 331 L185 331 Z " />
<glyph glyph-name="dieresis" unicode="&#xa8;" horiz-adv-x="461" d="M103 637 C64 637 33 606 33 568 C33 530 64 498 101 498 C141 498 172 529 172 567 C172 606 141 637 103 637 L103 637 Z M358 637 C319 637 288 606 288 567 C288 530 319 498 356 498 C396 498 427 529 427 568 C427 606 396 637 358 637 L358 637 Z " />
<glyph glyph-name="copyright" unicode="&#xa9;" horiz-adv-x="884" d="M446 680 C232 680 61 526 61 334 C61 142 232 -13 443 -13 C650 -13 824 143 824 328 C824 524 657 680 446 680 L446 680 Z M442 633 C629 633 777 499 777 329 C777 168 625 34 443 34 C258 34 108 168 108 334 C108 499 258 633 442 633 L442 633 Z M581 292 C565 221 519 179 457 179 C421 179 387 197 370 225 C358 247 352 281 352 330 C352 439 384 487 455 487 C516 487 560 447 577 376 L608 376 L604 513 L573 513 C569 498 567 492 562 481 C525 512 492 524 445 524 C334 524 251 441 251 331 C251 223 332 142 442 142 C492 142 536 158 566 188 C574 177 577 170 581 153 L613 153 L613 292 L581 292 Z " />
<glyph glyph-name="ordfeminine" unicode="&#xaa;" horiz-adv-x="386" d="M351 329 C347 316 342 311 332 311 C321 311 315 319 315 335 L315 453 C315 513 282 536 194 536 C103 536 40 507 40 465 C40 444 59 429 85 429 C112 429 128 442 132 467 C136 491 146 498 174 498 C204 498 214 488 214 460 L214 439 L203 435 C198 433 190 431 180 428 C127 412 83 392 54 368 C40 357 31 338 31 321 C31 284 64 260 115 260 C153 260 188 271 222 292 C235 271 261 260 297 260 C352 260 384 285 385 329 L351 329 Z M214 400 L214 328 C213 328 213 328 212 327 C196 315 181 309 166 309 C143 309 124 323 124 340 C124 358 149 378 186 390 C198 394 206 397 208 397 L214 400 Z " />
<glyph glyph-name="guillemotleft" unicode="&#xab;" horiz-adv-x="623" d="M9 217 L224 0 L286 0 L200 217 L285 433 L223 433 L9 217 Z M301 217 L516 0 L578 0 L492 217 L577 433 L515 433 L301 217 Z " />
<glyph glyph-name="logicalnot" unicode="&#xac;" horiz-adv-x="550" d="M520 0 L520 267 L30 267 L30 185 L328 185 L328 0 L520 0 Z " />
<glyph glyph-name="uni00AD" unicode="&#xad;" horiz-adv-x="381" d="M33 254 L33 180 L352 180 L352 254 L33 254 Z " />
<glyph glyph-name="registered" unicode="&#xae;" horiz-adv-x="884" d="M446 680 C232 680 61 526 61 334 C61 142 232 -13 443 -13 C650 -13 824 143 824 328 C824 524 657 680 446 680 L446 680 Z M442 633 C629 633 777 499 777 329 C777 168 625 34 443 34 C258 34 108 168 108 334 C108 499 258 633 442 633 L442 633 Z M250 150 L452 150 L452 181 L444 181 C407 183 396 193 396 225 L396 312 L401 312 C444 313 451 307 494 234 L519 190 C523 186 526 181 529 175 C535 166 543 156 548 150 L666 150 L666 181 L661 181 C639 182 619 201 587 253 C560 295 547 312 525 330 C570 342 600 378 600 419 C600 452 582 482 553 498 C524 514 483 519 371 519 L353 519 L345 519 L250 518 L250 487 L259 487 C296 486 306 476 307 443 L307 225 C307 193 296 183 259 181 L250 181 L250 150 Z M396 346 L396 483 C403 484 414 484 415 484 C482 484 507 465 507 416 C507 365 482 345 418 346 L396 346 Z " />
<glyph glyph-name="macron" unicode="&#xaf;" horiz-adv-x="414" d="M33 591 L33 529 L381 529 L381 591 L33 591 Z " />
<glyph glyph-name="degree" unicode="&#xb0;" horiz-adv-x="400" d="M203 686 C117 686 50 619 50 534 C50 448 116 381 200 381 C284 381 350 448 350 533 C350 619 286 686 203 686 L203 686 Z M202 629 C252 629 293 586 293 534 C293 480 252 438 200 438 C148 438 106 481 106 533 C106 587 148 629 202 629 L202 629 Z " />
<glyph glyph-name="plusminus" unicode="&#xb1;" horiz-adv-x="550" d="M2 414 L2 325 L227 325 L227 120 L320 120 L320 325 L547 325 L547 414 L320 414 L320 617 L227 617 L227 414 L2 414 Z M2 89 L2 -1 L547 -1 L547 89 L2 89 Z " />
<glyph glyph-name="twosuperior" unicode="&#xb2;" horiz-adv-x="400" d="M47 267 L278 267 C298 267 299 266 299 256 C299 252 298 250 295 243 L342 243 L361 333 L170 333 C329 478 356 511 356 562 C356 628 293 673 201 673 C112 673 46 631 46 574 C46 548 59 519 72 519 C78 519 80 520 101 527 C141 542 141 542 141 546 C141 547 140 549 137 551 C126 560 118 577 118 589 C118 612 145 631 177 631 C216 631 243 604 243 564 C243 482 177 392 47 299 L47 267 Z " />
<glyph glyph-name="threesuperior" unicode="&#xb3;" horiz-adv-x="400" d="M254 504 C318 537 341 562 341 598 C341 641 284 673 206 673 C118 673 45 631 45 579 C45 557 58 535 72 535 C89 535 145 556 145 562 C145 565 143 568 138 571 C124 580 119 587 119 597 C119 615 147 631 177 631 C213 631 235 612 235 581 C235 547 205 514 153 492 C133 483 121 472 121 464 C121 451 133 441 149 441 C159 441 166 444 179 454 C190 463 196 465 206 465 C232 465 240 448 240 395 C240 364 236 343 229 330 C218 311 195 299 170 299 C150 299 141 305 132 325 C118 353 104 363 78 363 C50 363 26 345 26 323 C26 286 78 259 150 259 C267 259 353 321 353 405 C353 461 323 492 254 504 L254 504 Z " />
<glyph glyph-name="acute" unicode="&#xb4;" horiz-adv-x="526" d="M206 486 L249 486 L450 632 L450 643 L272 643 L206 486 Z " />
<glyph glyph-name="mu" unicode="&#xb5;" horiz-adv-x="576" d="M442 500 L353 500 L354 131 C318 80 284 58 242 58 C184 58 150 99 150 169 L150 500 L62 500 L62 20 C62 -1 58 -26 51 -56 C34 -118 33 -123 33 -147 C33 -190 54 -219 83 -219 C112 -219 132 -189 132 -145 C132 -124 129 -110 113 -53 C102 -17 101 -8 101 21 L101 33 C143 -3 165 -13 200 -13 C250 -13 301 18 354 80 C362 48 367 36 377 21 C392 0 419 -13 449 -13 C510 -13 553 31 567 108 L540 109 C536 71 515 41 492 41 C462 41 442 77 442 131 L442 500 Z " />
<glyph glyph-name="paragraph" unicode="&#xb6;" horiz-adv-x="729" d="M647 667 L331 667 C216 667 214 667 185 660 C106 640 55 579 55 504 C55 448 84 398 133 370 C171 349 213 340 281 340 L317 340 L317 4 L316 -20 C317 -41 312 -43 249 -43 L224 -43 L224 -79 L405 -79 L405 628 L482 628 L482 -79 L633 -79 L633 -43 L613 -43 C572 -43 571 -42 570 -23 L570 -17 L570 -2 L570 561 C570 594 574 619 579 622 C582 627 605 631 634 631 L647 631 L647 667 Z M317 631 L317 380 L290 380 C233 380 196 429 196 503 C196 544 208 587 226 609 C239 625 258 631 297 631 L317 631 Z " />
<glyph glyph-name="periodcentered" unicode="&#xb7;" horiz-adv-x="323" d="M154 421 C100 421 56 381 56 332 C56 284 100 244 153 244 C208 244 252 283 252 333 C252 382 208 421 154 421 L154 421 Z " />
<glyph glyph-name="cedilla" unicode="&#xb8;" horiz-adv-x="550" d="M245 0 C240 -44 234 -77 227 -103 C259 -104 280 -119 280 -140 C280 -159 265 -169 237 -169 C215 -169 196 -166 168 -160 C166 -181 166 -185 162 -205 C181 -212 202 -216 227 -216 C311 -216 362 -182 362 -125 C362 -79 333 -49 283 -44 C287 -23 287 -20 290 0 L245 0 Z " />
<glyph glyph-name="onesuperior" unicode="&#xb9;" horiz-adv-x="400" d="M217 674 C185 653 140 640 84 639 L84 601 L93 601 L96 601 C143 602 145 601 146 558 L146 338 C146 313 139 307 105 306 L78 306 L78 267 L322 267 L322 306 L297 306 C263 308 256 313 256 340 L256 674 L217 674 Z " />
<glyph glyph-name="ordmasculine" unicode="&#xba;" horiz-adv-x="386" d="M30 395 C30 313 96 257 194 257 C288 257 356 316 356 398 C356 480 288 537 192 537 C98 537 30 479 30 397 L30 395 Z M193 496 C236 496 251 473 251 403 C251 322 237 297 193 297 C150 297 135 324 135 399 C135 473 149 496 193 496 L193 496 Z " />
<glyph glyph-name="guillemotright" unicode="&#xbb;" horiz-adv-x="623" d="M596 217 L382 433 L320 433 L405 217 L319 0 L380 0 L596 217 Z M304 217 L90 433 L28 433 L113 217 L27 0 L88 0 L304 217 Z " />
<glyph glyph-name="onequarter" unicode="&#xbc;" horiz-adv-x="996" d="M215 674 C184 653 138 641 82 639 L82 601 L92 601 L94 601 C142 602 143 601 144 558 L144 338 C144 313 137 307 103 306 L78 306 L78 267 L318 267 L318 306 L293 306 C260 308 254 313 254 340 L254 674 L215 674 Z M381 0 L760 668 L681 668 L302 0 L381 0 Z M786 134 L786 77 C786 47 778 40 742 39 L717 39 L717 0 L962 0 L962 39 L937 39 C904 40 896 48 896 79 L896 134 L961 134 L971 201 L939 201 L936 195 C931 185 921 181 907 181 L896 181 L896 404 L835 404 L622 182 L622 134 L786 134 Z M786 181 L680 181 L786 283 L786 181 Z " />
<glyph glyph-name="onehalf" unicode="&#xbd;" horiz-adv-x="996" d="M215 674 C184 653 138 641 82 639 L82 601 L92 601 L94 601 C142 602 143 601 144 558 L144 338 C144 313 137 307 103 306 L78 306 L78 267 L318 267 L318 306 L293 306 C260 308 254 313 254 340 L254 674 L215 674 Z M359 0 L738 668 L659 668 L280 0 L359 0 Z M640 0 L872 0 C889 0 893 -1 893 -8 C893 -11 893 -12 890 -24 L937 -24 L955 66 L763 66 C924 211 950 244 950 296 C950 361 886 406 794 406 C705 406 638 364 638 308 C638 282 652 253 664 253 C669 253 682 257 695 262 C707 266 717 270 722 271 C730 273 734 276 734 280 C734 281 733 283 730 285 C719 293 710 310 710 323 C710 345 738 364 770 364 C810 364 837 337 837 296 C837 215 770 125 640 32 L640 0 Z " />
<glyph glyph-name="threequarters" unicode="&#xbe;" horiz-adv-x="996" d="M254 504 C318 537 341 562 341 598 C341 641 284 673 206 673 C118 673 45 631 45 579 C45 557 58 535 72 535 C89 535 145 556 145 562 C145 565 143 568 138 571 C124 580 119 587 119 597 C119 615 147 631 177 631 C213 631 235 612 235 581 C235 547 205 514 153 492 C133 483 121 472 121 464 C121 451 133 441 149 441 C159 441 166 444 179 454 C190 463 196 465 206 465 C232 465 240 448 240 395 C240 364 236 343 229 330 C218 311 195 299 170 299 C150 299 141 305 132 325 C118 353 104 363 78 363 C50 363 26 345 26 323 C26 286 78 259 150 259 C267 259 353 321 353 405 C353 461 323 492 254 504 L254 504 Z M378 0 L755 668 L676 668 L299 0 L378 0 Z M787 134 L787 77 C787 47 779 40 744 39 L720 39 L720 0 L963 0 L963 39 L938 39 C905 40 897 48 897 79 L897 134 L962 134 L972 201 L940 201 L937 195 C932 186 923 181 908 181 L897 181 L897 404 L836 404 L625 182 L625 134 L787 134 Z M787 181 L683 181 L787 283 L787 181 Z " />
<glyph glyph-name="questiondown" unicode="&#xbf;" horiz-adv-x="531" d="M320 445 C265 445 220 405 220 356 C220 308 265 267 318 267 C375 267 419 306 419 356 C419 405 375 445 320 445 L320 445 Z M351 205 L290 205 L290 115 C265 122 244 125 220 125 C108 125 26 50 26 -52 C26 -171 124 -251 269 -251 C376 -251 466 -201 466 -142 C466 -117 436 -95 402 -95 C369 -95 347 -112 336 -144 C328 -169 327 -171 321 -178 C312 -188 291 -195 273 -195 C216 -195 183 -140 183 -45 C183 22 210 59 260 59 C278 59 293 53 304 42 L351 42 L351 205 Z " />
<glyph glyph-name="Agrave" unicode="&#xc0;" horiz-adv-x="720" d="M735 0 L735 55 L730 55 C679 59 660 78 620 162 L390 679 L327 679 L107 177 C76 101 36 59 -8 55 L-15 55 L-15 0 L227 0 L227 55 L219 55 C177 55 151 70 151 94 C151 106 158 128 168 153 L180 180 L406 180 L417 155 C437 113 444 94 444 84 C444 64 423 55 377 55 L371 55 L371 0 L735 0 Z M382 236 L203 236 L290 436 L382 236 Z M406 732 L446 732 L347 892 L147 892 L147 880 L406 732 Z " />
<glyph glyph-name="Aacute" unicode="&#xc1;" horiz-adv-x="720" d="M735 0 L735 55 L730 55 C679 59 660 78 620 162 L390 679 L327 679 L107 177 C76 101 36 59 -8 55 L-15 55 L-15 0 L227 0 L227 55 L219 55 C177 55 151 70 151 94 C151 106 158 128 168 153 L180 180 L406 180 L417 155 C437 113 444 94 444 84 C444 64 423 55 377 55 L371 55 L371 0 L735 0 Z M382 236 L203 236 L290 436 L382 236 Z M313 732 L352 732 L611 880 L611 892 L412 892 L313 732 Z " />
<glyph glyph-name="Acircumflex" unicode="&#xc2;" horiz-adv-x="720" d="M735 0 L735 55 L730 55 C679 59 660 78 620 162 L390 679 L327 679 L107 177 C76 101 36 59 -8 55 L-15 55 L-15 0 L227 0 L227 55 L219 55 C177 55 151 70 151 94 C151 106 158 128 168 153 L180 180 L406 180 L417 155 C437 113 444 94 444 84 C444 64 423 55 377 55 L371 55 L371 0 L735 0 Z M382 236 L203 236 L290 436 L382 236 Z M261 887 L160 728 L199 728 L354 821 L518 728 L556 728 L453 887 L261 887 Z " />
<glyph glyph-name="Atilde" unicode="&#xc3;" horiz-adv-x="720" d="M735 0 L735 55 L730 55 C679 59 660 78 620 162 L390 679 L327 679 L107 177 C76 101 36 59 -8 55 L-15 55 L-15 0 L227 0 L227 55 L219 55 C177 55 151 70 151 94 C151 106 158 128 168 153 L180 180 L406 180 L417 155 C437 113 444 94 444 84 C444 64 423 55 377 55 L371 55 L371 0 L735 0 Z M382 236 L203 236 L290 436 L382 236 Z M201 724 C200 726 200 728 200 728 C200 754 223 775 252 775 C264 775 278 771 298 763 C380 727 400 721 441 721 C513 721 560 770 560 847 C560 852 560 861 559 869 L520 869 C512 833 496 815 472 815 C454 815 437 820 383 843 C332 864 310 870 278 870 C203 870 159 823 159 744 C159 739 159 733 160 724 L201 724 Z " />
<glyph glyph-name="Adieresis" unicode="&#xc4;" horiz-adv-x="720" d="M735 0 L735 55 L730 55 C679 59 660 78 620 162 L390 679 L327 679 L107 177 C76 101 36 59 -8 55 L-15 55 L-15 0 L227 0 L227 55 L219 55 C177 55 151 70 151 94 C151 106 158 128 168 153 L180 180 L406 180 L417 155 C437 113 444 94 444 84 C444 64 423 55 377 55 L371 55 L371 0 L735 0 Z M382 236 L203 236 L290 436 L382 236 Z M205 880 C162 880 128 846 128 803 C128 761 163 726 204 726 C248 726 282 760 282 803 C282 846 248 880 205 880 L205 880 Z M506 880 C464 880 429 846 429 804 C429 761 463 726 505 726 C549 726 583 760 583 803 C583 846 549 880 506 880 L506 880 Z " />
<glyph glyph-name="Aring" unicode="&#xc5;" horiz-adv-x="720" d="M107 177 C76 101 36 59 -8 55 L-15 55 L-15 0 L227 0 L227 55 L219 55 C177 55 151 70 151 94 C151 106 158 128 168 153 L180 180 L406 180 L417 155 C437 113 444 94 444 84 C444 64 423 55 377 55 L371 55 L371 0 L735 0 L735 55 L730 55 C679 60 660 78 620 162 L394 668 C437 685 464 723 464 768 C464 827 416 875 357 875 C298 875 250 827 250 768 C250 723 279 683 322 667 L107 177 Z M382 236 L203 236 L290 435 L382 236 Z M357 828 C390 828 417 801 417 768 C417 735 390 708 356 708 C323 708 297 735 297 769 C297 801 324 828 357 828 L357 828 Z " />
<glyph glyph-name="AE" unicode="&#xc6;" horiz-adv-x="1049" d="M451 318 L451 136 C452 78 424 55 354 55 L339 55 L339 0 L1015 0 L1020 219 L958 219 C923 103 866 56 765 59 L750 59 C648 60 625 77 625 153 L625 318 L706 318 C763 316 773 307 780 247 L782 236 L847 236 L847 460 L782 460 C775 390 759 375 695 377 L625 377 L625 608 L782 608 C852 612 882 587 919 494 L981 494 L969 667 L242 667 L242 613 L271 613 C319 613 336 607 336 588 C336 576 332 565 314 535 L102 179 C48 85 23 60 -26 55 L-26 0 L186 0 L186 55 L181 55 C152 55 130 69 130 89 C130 101 139 126 150 144 L261 318 L451 318 Z M451 377 L297 377 L451 625 L451 377 Z " />
<glyph glyph-name="Ccedilla" unicode="&#xc7;" horiz-adv-x="816" d="M444 -13 C527 -9 611 23 661 70 C675 54 684 35 692 6 L752 6 L752 256 L692 256 C676 195 638 130 603 104 C559 70 502 51 447 51 C373 51 306 85 275 140 C252 179 241 241 241 327 C241 420 252 482 277 526 C310 584 368 615 444 615 C562 615 645 545 683 412 L742 412 L735 658 L675 658 C667 632 661 617 652 599 C588 654 516 679 424 679 C321 679 225 645 160 586 C87 520 45 425 45 328 C45 208 110 95 211 39 C262 11 319 -6 384 -12 C377 -60 370 -91 361 -114 C404 -116 432 -132 432 -155 C432 -177 412 -188 374 -188 C345 -188 319 -185 284 -177 C281 -201 280 -205 275 -227 C302 -236 330 -240 365 -240 C474 -240 542 -201 542 -139 C542 -88 503 -55 436 -49 C441 -30 441 -28 443 -16 L444 -13 Z " />
<glyph glyph-name="Egrave" unicode="&#xc8;" horiz-adv-x="738" d="M644 219 C609 99 557 57 448 59 L428 59 C335 59 309 81 314 154 L314 319 L387 319 C452 317 468 303 471 243 L471 235 L535 235 L535 461 L471 461 L471 455 C467 394 451 379 385 378 L314 378 L314 608 L457 608 C541 609 567 589 604 494 L665 494 L654 667 L30 667 L30 613 L44 613 C112 613 141 588 140 531 L140 136 C142 80 111 53 44 55 L30 55 L30 0 L700 0 L705 219 L644 219 Z M463 732 L502 732 L403 892 L203 892 L203 880 L463 732 Z " />
<glyph glyph-name="Eacute" unicode="&#xc9;" horiz-adv-x="738" d="M644 219 C609 99 557 57 448 59 L428 59 C335 59 309 81 314 154 L314 319 L387 319 C452 317 468 303 471 243 L471 235 L535 235 L535 461 L471 461 L471 455 C467 394 451 379 385 378 L314 378 L314 608 L457 608 C541 609 567 589 604 494 L665 494 L654 667 L30 667 L30 613 L44 613 C112 613 141 588 140 531 L140 136 C142 80 111 53 44 55 L30 55 L30 0 L700 0 L705 219 L644 219 Z M316 732 L356 732 L615 880 L615 892 L415 892 L316 732 Z " />
<glyph glyph-name="Ecircumflex" unicode="&#xca;" horiz-adv-x="738" d="M644 219 C609 99 557 57 448 59 L428 59 C335 59 309 81 314 154 L314 319 L387 319 C452 317 468 303 471 243 L471 235 L535 235 L535 461 L471 461 L471 455 C467 394 451 379 385 378 L314 378 L314 608 L457 608 C541 609 567 589 604 494 L665 494 L654 667 L30 667 L30 613 L44 613 C112 613 141 588 140 531 L140 136 C142 80 111 53 44 55 L30 55 L30 0 L700 0 L705 219 L644 219 Z M294 887 L194 728 L232 728 L387 821 L551 728 L590 728 L486 887 L294 887 Z " />
<glyph glyph-name="Edieresis" unicode="&#xcb;" horiz-adv-x="738" d="M644 219 C609 99 557 57 448 59 L428 59 C335 59 309 81 314 154 L314 319 L387 319 C452 317 468 303 471 243 L471 235 L535 235 L535 461 L471 461 L471 455 C467 394 451 379 385 378 L314 378 L314 608 L457 608 C541 609 567 589 604 494 L665 494 L654 667 L30 667 L30 613 L44 613 C112 613 141 588 140 531 L140 136 C142 80 111 53 44 55 L30 55 L30 0 L700 0 L705 219 L644 219 Z M244 880 C201 880 167 846 167 803 C167 761 202 726 243 726 C287 726 321 760 321 803 C321 846 287 880 244 880 L244 880 Z M546 880 C504 880 469 846 469 804 C469 761 503 726 545 726 C589 726 623 760 623 803 C623 846 589 880 546 880 L546 880 Z " />
<glyph glyph-name="Igrave" unicode="&#xcc;" horiz-adv-x="448" d="M30 612 L40 612 C110 613 136 591 136 531 L136 136 C137 79 109 55 40 55 L30 55 L30 0 L418 0 L418 55 L406 55 C336 55 309 78 310 136 L310 531 C310 590 336 613 406 612 L418 612 L418 667 L30 667 L30 612 Z M319 732 L358 732 L259 892 L60 892 L60 880 L319 732 Z " />
<glyph glyph-name="Iacute" unicode="&#xcd;" horiz-adv-x="448" d="M30 612 L40 612 C110 613 136 591 136 531 L136 136 C137 79 109 55 40 55 L30 55 L30 0 L418 0 L418 55 L406 55 C336 55 309 78 310 136 L310 531 C310 590 336 613 406 612 L418 612 L418 667 L30 667 L30 612 Z M200 732 L239 732 L499 880 L499 892 L299 892 L200 732 Z " />
<glyph glyph-name="Icircumflex" unicode="&#xce;" horiz-adv-x="448" d="M30 612 L40 612 C110 613 136 591 136 531 L136 136 C137 79 109 55 40 55 L30 55 L30 0 L418 0 L418 55 L406 55 C336 55 309 78 310 136 L310 531 C310 590 336 613 406 612 L418 612 L418 667 L30 667 L30 612 Z M129 887 L29 728 L67 728 L223 821 L387 728 L425 728 L322 887 L129 887 Z " />
<glyph glyph-name="Idieresis" unicode="&#xcf;" horiz-adv-x="448" d="M31 612 L40 612 C110 613 136 591 136 531 L136 136 C137 79 109 55 40 55 L31 55 L31 0 L418 0 L418 55 L406 55 C336 55 309 78 310 136 L310 531 C310 590 336 613 406 612 L418 612 L418 667 L31 667 L31 612 Z M95 880 C52 880 18 846 18 803 C18 761 53 726 94 726 C138 726 172 760 172 803 C172 846 138 880 95 880 L95 880 Z M351 880 C309 880 274 846 274 804 C274 761 308 726 350 726 C394 726 428 760 428 803 C428 846 394 880 351 880 L351 880 Z " />
<glyph glyph-name="Eth" unicode="&#xd0;" horiz-adv-x="880" d="M141 365 L26 365 L26 301 L141 301 L141 136 C142 79 112 54 43 55 L34 55 L34 0 L295 0 C495 1 538 4 595 22 C744 67 834 184 834 331 C834 461 762 570 639 625 C563 660 459 673 270 673 C195 673 164 672 37 667 L34 667 L34 613 L43 613 C114 612 141 589 141 531 L141 365 Z M315 365 L315 615 C320 616 326 616 331 616 C443 616 497 600 554 551 C610 502 635 434 635 328 C635 239 615 170 576 123 C542 82 481 59 406 59 C369 59 345 67 330 86 C318 100 315 116 315 156 L315 301 L468 301 L468 365 L315 365 Z " />
<glyph glyph-name="Ntilde" unicode="&#xd1;" horiz-adv-x="863" d="M690 -11 L753 -11 L753 501 C750 570 772 601 832 612 L840 612 L840 667 L595 667 L595 612 L601 612 C662 610 693 571 690 503 L690 259 L278 667 L28 667 L28 612 L33 612 C100 612 136 578 138 511 L138 170 C138 123 136 111 129 100 C113 74 73 54 37 55 L32 55 L32 0 L311 0 L311 55 L295 55 C272 54 247 64 228 80 C204 103 201 112 201 171 L201 477 L690 -11 Z M287 724 L287 728 C287 754 310 775 339 775 C351 775 365 771 385 763 C467 727 487 721 528 721 C600 721 647 770 647 847 C647 851 647 861 646 869 L607 869 C599 833 583 815 559 815 C541 815 524 820 470 843 C419 864 397 870 365 870 C290 870 246 823 246 744 C246 739 246 734 247 724 L287 724 Z " />
<glyph glyph-name="Ograve" unicode="&#xd2;" horiz-adv-x="912" d="M464 679 C338 679 237 646 160 581 C90 521 45 423 45 328 C45 249 75 173 130 110 C200 31 318 -14 455 -14 C575 -14 678 19 751 82 C824 146 866 236 866 331 C866 450 800 561 692 623 C628 660 550 679 464 679 L464 679 Z M457 615 C532 615 591 585 622 531 C646 489 661 409 661 325 C661 239 650 178 626 134 C597 82 534 50 459 50 C391 50 342 71 303 116 C267 158 250 231 250 344 C250 529 316 615 457 615 L457 615 Z M517 732 L556 732 L457 892 L257 892 L257 880 L517 732 Z " />
<glyph glyph-name="Oacute" unicode="&#xd3;" horiz-adv-x="912" d="M464 679 C338 679 237 646 160 581 C90 521 45 423 45 328 C45 249 75 173 130 110 C200 31 318 -14 455 -14 C575 -14 678 19 751 82 C824 146 866 236 866 331 C866 450 800 561 692 623 C628 660 550 679 464 679 L464 679 Z M457 615 C532 615 591 585 622 531 C646 489 661 409 661 325 C661 239 650 178 626 134 C597 82 534 50 459 50 C391 50 342 71 303 116 C267 158 250 231 250 344 C250 529 316 615 457 615 L457 615 Z M398 732 L437 732 L696 880 L696 892 L497 892 L398 732 Z " />
<glyph glyph-name="Ocircumflex" unicode="&#xd4;" horiz-adv-x="912" d="M464 679 C338 679 237 646 160 581 C90 521 45 423 45 328 C45 249 75 173 130 110 C200 31 318 -14 455 -14 C575 -14 678 19 751 82 C824 146 866 236 866 331 C866 450 800 561 692 623 C628 660 550 679 464 679 L464 679 Z M457 615 C532 615 591 585 622 531 C646 489 661 409 661 325 C661 239 650 178 626 134 C597 82 534 50 459 50 C391 50 342 71 303 116 C267 158 250 231 250 344 C250 529 316 615 457 615 L457 615 Z M365 887 L265 728 L303 728 L458 821 L622 728 L661 728 L557 887 L365 887 Z " />
<glyph glyph-name="Otilde" unicode="&#xd5;" horiz-adv-x="912" d="M464 679 C338 679 237 646 160 581 C90 521 45 423 45 328 C45 249 75 173 130 110 C200 31 318 -14 455 -14 C575 -14 678 19 751 82 C824 146 866 236 866 331 C866 450 800 561 692 623 C628 660 550 679 464 679 L464 679 Z M457 615 C532 615 591 585 622 531 C646 489 661 409 661 325 C661 239 650 178 626 134 C597 82 534 50 459 50 C391 50 342 71 303 116 C267 158 250 231 250 344 C250 529 316 615 457 615 L457 615 Z M303 724 C302 726 302 728 302 728 C302 754 325 775 354 775 C366 775 380 771 400 763 C482 727 502 721 543 721 C615 721 662 770 662 847 C662 852 662 861 661 869 L622 869 C614 833 598 815 574 815 C556 815 539 820 485 843 C434 864 412 870 380 870 C305 870 261 823 261 744 C261 738 261 733 262 724 L303 724 Z " />
<glyph glyph-name="Odieresis" unicode="&#xd6;" horiz-adv-x="912" d="M464 679 C338 679 237 646 160 581 C90 521 45 423 45 328 C45 249 75 173 130 110 C200 31 318 -14 455 -14 C575 -14 678 19 751 82 C824 146 866 236 866 331 C866 450 800 561 692 623 C628 660 550 679 464 679 L464 679 Z M457 615 C532 615 591 585 622 531 C646 489 661 409 661 325 C661 239 650 178 626 134 C597 82 534 50 459 50 C391 50 342 71 303 116 C267 158 250 231 250 344 C250 529 316 615 457 615 L457 615 Z M304 880 C261 880 227 846 227 803 C227 761 262 726 303 726 C347 726 381 760 381 803 C381 846 347 880 304 880 L304 880 Z M606 880 C564 880 529 846 529 804 C529 761 563 726 605 726 C649 726 683 760 683 803 C683 846 649 880 606 880 L606 880 Z " />
<glyph glyph-name="multiply" unicode="&#xd7;" horiz-adv-x="550" d="M118 576 L48 513 L206 371 L45 226 L117 160 L277 306 L435 162 L504 225 L345 368 L506 513 L434 579 L274 433 L118 576 Z " />
<glyph glyph-name="Oslash" unicode="&#xd8;" horiz-adv-x="909" d="M741 588 L795 643 L751 680 L694 621 C624 661 551 679 458 679 C343 679 236 646 168 589 C90 524 44 428 44 330 C44 232 86 144 165 76 L114 23 L160 -13 L214 43 C285 6 369 -14 458 -14 C570 -14 676 20 744 77 C821 140 865 234 865 330 C865 431 823 518 741 588 L741 588 Z M640 483 C654 431 660 382 660 321 C660 235 645 162 618 124 C585 76 527 50 457 50 C386 50 332 75 295 127 L640 483 Z M269 182 C256 224 249 276 249 337 C249 528 314 615 456 615 C528 615 579 591 615 539 L269 182 Z " />
<glyph glyph-name="Ugrave" unicode="&#xd9;" horiz-adv-x="853" d="M582 667 L582 612 L588 612 C651 612 686 575 684 510 L684 286 C684 206 680 176 664 148 C631 90 565 55 489 55 C419 55 362 84 333 135 C316 164 310 200 310 268 L310 531 C310 592 333 613 400 612 L412 612 L412 667 L19 667 L19 612 L27 612 C94 613 117 592 117 531 L117 268 C117 217 118 206 123 182 C134 135 158 95 195 62 C252 12 333 -14 432 -14 C525 -14 617 14 669 59 C720 103 747 178 747 274 L747 507 C745 574 766 600 829 612 L834 612 L834 667 L582 667 Z M517 732 L557 732 L458 892 L258 892 L258 880 L517 732 Z " />
<glyph glyph-name="Uacute" unicode="&#xda;" horiz-adv-x="853" d="M582 667 L582 612 L588 612 C651 612 686 575 684 510 L684 286 C684 206 680 176 664 148 C631 90 565 55 489 55 C419 55 362 84 333 135 C316 164 310 200 310 268 L310 531 C310 592 333 613 400 612 L412 612 L412 667 L19 667 L19 612 L27 612 C94 613 117 592 117 531 L117 268 C117 217 118 206 123 182 C134 135 158 95 195 62 C252 12 333 -14 432 -14 C525 -14 617 14 669 59 C720 103 747 178 747 274 L747 507 C745 574 766 600 829 612 L834 612 L834 667 L582 667 Z M404 732 L444 732 L703 880 L703 892 L503 892 L404 732 Z " />
<glyph glyph-name="Ucircumflex" unicode="&#xdb;" horiz-adv-x="853" d="M582 667 L582 612 L588 612 C651 612 686 575 684 510 L684 286 C684 206 680 176 664 148 C631 90 565 55 489 55 C419 55 362 84 333 135 C316 164 310 200 310 268 L310 531 C310 592 333 613 400 612 L412 612 L412 667 L19 667 L19 612 L27 612 C94 613 117 592 117 531 L117 268 C117 217 118 206 123 182 C134 135 158 95 195 62 C252 12 333 -14 432 -14 C525 -14 617 14 669 59 C720 103 747 178 747 274 L747 507 C745 574 766 600 829 612 L834 612 L834 667 L582 667 Z M359 887 L259 728 L297 728 L452 821 L617 728 L655 728 L551 887 L359 887 Z " />
<glyph glyph-name="Udieresis" unicode="&#xdc;" horiz-adv-x="853" d="M582 667 L582 612 L588 612 C651 612 686 575 684 510 L684 286 C684 206 680 176 664 148 C631 90 565 55 489 55 C419 55 362 84 333 135 C316 164 310 200 310 268 L310 531 C310 592 333 613 400 612 L412 612 L412 667 L19 667 L19 612 L27 612 C94 613 117 592 117 531 L117 268 C117 217 118 206 123 182 C134 135 158 95 195 62 C252 12 333 -14 432 -14 C525 -14 617 14 669 59 C720 103 747 178 747 274 L747 507 C745 574 766 600 829 612 L834 612 L834 667 L582 667 Z M309 880 C266 880 232 846 232 803 C232 761 267 726 308 726 C352 726 386 760 386 803 C386 846 352 880 309 880 L309 880 Z M611 880 C569 880 534 846 534 804 C534 761 568 726 610 726 C654 726 688 760 688 803 C688 846 654 880 611 880 L611 880 Z " />
<glyph glyph-name="Yacute" unicode="&#xdd;" horiz-adv-x="732" d="M431 353 L320 534 C304 559 299 572 299 583 C299 602 317 612 350 612 L355 612 L355 667 L-13 667 L-13 612 L-7 612 C36 610 59 594 95 539 L279 273 L279 136 C280 78 253 55 183 55 L170 55 L170 0 L563 0 L563 55 L552 55 C482 55 454 78 455 136 L455 284 L618 512 C672 590 694 608 741 612 L746 612 L746 667 L494 667 L494 612 L500 612 C542 612 565 597 565 570 C565 554 558 533 546 517 L431 353 Z M338 732 L378 732 L637 880 L637 892 L437 892 L338 732 Z " />
<glyph glyph-name="Thorn" unicode="&#xde;" horiz-adv-x="743" d="M432 667 L30 667 L30 612 L49 612 C118 613 144 591 144 531 L144 136 C145 79 118 55 49 55 L35 55 L35 0 L432 0 L432 55 L414 55 C334 59 318 73 318 136 L318 145 L376 145 L412 145 C482 145 532 151 578 166 C663 193 713 254 713 332 C713 394 679 451 625 479 C557 513 499 523 353 523 C350 523 338 523 318 522 C316 592 336 610 414 612 L432 612 L432 667 Z M318 204 L318 463 C321 464 324 464 329 464 C404 464 435 459 467 441 C503 422 524 381 524 330 C524 296 514 265 496 244 C474 218 425 204 356 204 L318 204 Z " />
<glyph glyph-name="germandbls" unicode="&#xdf;" horiz-adv-x="684" d="M96 118 C96 67 82 55 22 52 L18 52 L18 0 L310 0 L310 52 L304 52 C268 54 256 68 255 107 L255 510 C255 556 257 572 267 590 C279 612 311 625 352 625 C421 625 455 586 455 510 C455 477 445 445 430 427 C419 414 403 406 378 401 C362 397 345 395 339 395 L339 343 L341 343 L351 343 C412 343 460 302 471 241 C476 211 479 166 479 112 C479 63 465 39 436 39 C415 39 401 51 396 74 C394 89 388 94 375 94 C358 94 344 81 344 65 C344 23 392 -9 456 -9 C566 -9 644 66 644 173 C644 273 579 342 455 371 C551 392 608 446 608 518 C608 618 512 679 355 679 C262 679 198 660 154 620 C112 581 96 530 96 432 L96 118 Z " />
<glyph glyph-name="agrave" unicode="&#xe0;" horiz-adv-x="621" d="M572 90 C567 72 556 62 541 62 C521 62 511 76 511 105 L511 291 C511 335 507 350 488 371 C459 404 403 419 311 419 C233 419 176 410 133 391 C83 369 57 342 57 311 C57 280 86 259 127 259 C170 259 193 276 200 312 C204 330 209 342 215 347 C226 356 252 363 277 363 C301 363 325 357 337 348 C346 340 351 325 351 303 L351 266 C109 192 41 152 41 82 C41 26 94 -10 177 -10 C243 -10 306 8 360 43 C382 8 424 -10 484 -10 C567 -10 616 26 619 90 L572 90 Z M351 96 C325 75 292 62 262 62 C225 62 192 85 192 112 C192 149 233 174 351 211 L351 96 Z M405 486 L339 643 L160 643 L160 632 L362 486 L405 486 Z " />
<glyph glyph-name="aacute" unicode="&#xe1;" horiz-adv-x="621" d="M572 90 C567 72 556 62 541 62 C521 62 511 76 511 105 L511 291 C511 335 507 350 488 371 C459 404 403 419 311 419 C233 419 176 410 133 391 C83 369 57 342 57 311 C57 280 86 259 127 259 C170 259 193 276 200 312 C204 330 209 342 215 347 C226 356 252 363 277 363 C301 363 325 357 337 348 C346 340 351 325 351 303 L351 266 C109 192 41 152 41 82 C41 26 94 -10 177 -10 C243 -10 306 8 360 43 C382 8 424 -10 484 -10 C567 -10 616 26 619 90 L572 90 Z M351 96 C325 75 292 62 262 62 C225 62 192 85 192 112 C192 149 233 174 351 211 L351 96 Z M265 486 L308 486 L509 632 L509 643 L331 643 L265 486 Z " />
<glyph glyph-name="acircumflex" unicode="&#xe2;" horiz-adv-x="621" d="M572 90 C567 72 556 62 541 62 C521 62 511 76 511 105 L511 291 C511 335 507 350 488 371 C459 404 403 419 311 419 C233 419 176 410 133 391 C83 369 57 342 57 311 C57 280 86 259 127 259 C170 259 193 276 200 312 C204 330 209 342 215 347 C226 356 252 363 277 363 C301 363 325 357 337 348 C346 340 351 325 351 303 L351 266 C109 192 41 152 41 82 C41 26 94 -10 177 -10 C243 -10 306 8 360 43 C382 8 424 -10 484 -10 C567 -10 616 26 619 90 L572 90 Z M351 96 C325 75 292 62 262 62 C225 62 192 85 192 112 C192 149 233 174 351 211 L351 96 Z M422 484 L465 484 L382 647 L250 647 L160 484 L201 484 L315 568 L422 484 Z " />
<glyph glyph-name="atilde" unicode="&#xe3;" horiz-adv-x="621" d="M572 90 C567 72 556 62 541 62 C521 62 511 76 511 105 L511 291 C511 335 507 350 488 371 C459 404 403 419 311 419 C233 419 176 410 133 391 C83 369 57 342 57 311 C57 280 86 259 127 259 C170 259 193 276 200 312 C204 330 209 342 215 347 C226 356 252 363 277 363 C301 363 325 357 337 348 C346 340 351 325 351 303 L351 266 C109 192 41 152 41 82 C41 26 94 -10 177 -10 C243 -10 306 8 360 43 C382 8 424 -10 484 -10 C567 -10 616 26 619 90 L572 90 Z M351 96 C325 75 292 62 262 62 C225 62 192 85 192 112 C192 149 233 174 351 211 L351 96 Z M188 493 C195 519 207 529 228 529 C244 529 271 522 300 511 C330 499 351 494 369 494 C428 494 464 544 464 625 L464 633 L425 633 C423 605 408 589 384 589 C367 589 356 592 316 607 C288 617 262 623 244 623 C215 623 181 604 169 580 C157 558 152 533 152 493 L188 493 Z " />
<glyph glyph-name="adieresis" unicode="&#xe4;" horiz-adv-x="621" d="M572 90 C567 72 556 62 541 62 C521 62 511 76 511 105 L511 291 C511 335 507 350 488 371 C459 404 403 419 311 419 C233 419 176 410 133 391 C83 369 57 342 57 311 C57 280 86 259 127 259 C170 259 193 276 200 312 C204 330 209 342 215 347 C226 356 252 363 277 363 C301 363 325 357 337 348 C346 340 351 325 351 303 L351 266 C109 192 41 152 41 82 C41 26 94 -10 177 -10 C243 -10 306 8 360 43 C382 8 424 -10 484 -10 C567 -10 616 26 619 90 L572 90 Z M351 96 C325 75 292 62 262 62 C225 62 192 85 192 112 C192 149 233 174 351 211 L351 96 Z M177 637 C138 637 107 606 107 568 C107 530 138 498 175 498 C215 498 246 529 246 567 C246 606 215 637 177 637 L177 637 Z M432 637 C393 637 362 606 362 567 C362 530 393 498 430 498 C470 498 501 529 501 568 C501 606 470 637 432 637 L432 637 Z " />
<glyph glyph-name="aring" unicode="&#xe5;" horiz-adv-x="621" d="M572 90 C567 72 556 62 541 62 C521 62 511 76 511 105 L511 291 C511 335 507 350 488 371 C459 404 403 419 311 419 C233 419 176 410 133 391 C83 369 57 342 57 311 C57 280 86 259 127 259 C170 259 193 276 200 312 C204 330 209 342 215 347 C226 356 252 363 277 363 C301 363 325 357 337 348 C346 340 351 325 351 303 L351 266 C109 192 41 152 41 82 C41 26 94 -10 177 -10 C243 -10 306 8 360 43 C382 8 424 -10 484 -10 C567 -10 616 26 619 90 L572 90 Z M351 96 C325 75 292 62 262 62 C225 62 192 85 192 112 C192 149 233 174 351 211 L351 96 Z M311 682 C252 682 204 634 204 575 C204 518 252 469 309 469 C369 469 417 516 417 576 C417 634 369 682 311 682 L311 682 Z M311 633 C342 633 368 607 368 576 C368 544 342 518 310 518 C278 518 253 544 253 576 C253 607 279 633 311 633 L311 633 Z " />
<glyph glyph-name="ae" unicode="&#xe6;" horiz-adv-x="831" d="M726 105 C695 71 654 52 611 52 C575 52 540 72 524 101 C511 126 502 166 502 196 L502 206 L793 206 C790 258 781 292 760 324 C724 381 648 419 567 419 C525 419 483 410 451 395 C380 416 358 419 291 419 C149 419 50 375 50 311 C50 283 79 262 118 262 C156 262 183 281 187 311 C191 336 191 336 196 343 C205 356 228 364 253 364 C284 364 307 354 318 335 C324 325 325 317 325 293 L325 266 C113 198 40 151 40 81 C40 31 96 -9 167 -9 C229 -9 299 16 366 62 C418 15 486 -9 567 -9 C659 -9 735 22 776 77 L726 105 Z M631 256 L502 256 C503 304 507 322 519 343 C528 356 548 366 565 366 C590 366 612 350 622 325 C627 312 629 300 631 266 L631 256 Z M325 95 C304 77 273 65 247 65 C216 65 190 87 190 114 C190 150 230 178 325 211 L325 95 Z " />
<glyph glyph-name="ccedilla" unicode="&#xe7;" horiz-adv-x="545" d="M463 124 C437 74 393 49 330 49 C245 49 205 100 205 210 C205 269 209 295 223 319 C239 349 270 366 307 366 C336 366 350 357 356 334 C370 279 393 258 437 258 C477 258 508 286 508 322 C508 381 438 419 329 419 C159 419 37 325 37 194 C37 76 131 -6 275 -15 C272 -51 267 -75 259 -102 C291 -104 312 -119 312 -140 C312 -159 297 -169 269 -169 C248 -169 228 -166 201 -159 C198 -181 198 -184 194 -205 C213 -212 234 -216 259 -216 C343 -216 394 -182 394 -125 C394 -79 365 -49 315 -44 C318 -28 319 -24 320 -15 C418 -9 493 35 519 102 L463 124 Z " />
<glyph glyph-name="egrave" unicode="&#xe8;" horiz-adv-x="567" d="M465 104 C431 65 390 45 346 45 C268 45 224 98 224 193 C224 199 224 201 225 206 L530 206 L530 216 C530 271 515 313 482 349 C441 392 369 419 292 419 C146 419 40 328 40 204 C40 76 149 -16 298 -16 C387 -16 473 21 516 77 L465 104 Z M226 255 C229 307 232 321 243 340 C252 355 273 365 294 365 C314 365 335 354 344 340 C356 320 360 303 363 255 L226 255 Z M393 486 L328 643 L149 643 L149 632 L351 486 L393 486 Z " />
<glyph glyph-name="eacute" unicode="&#xe9;" horiz-adv-x="567" d="M465 104 C431 65 390 45 346 45 C268 45 224 98 224 193 C224 199 224 201 225 206 L530 206 L530 216 C530 271 515 313 482 349 C441 392 369 419 292 419 C146 419 40 328 40 204 C40 76 149 -16 298 -16 C387 -16 473 21 516 77 L465 104 Z M226 255 C229 307 232 321 243 340 C252 355 273 365 294 365 C314 365 335 354 344 340 C356 320 360 303 363 255 L226 255 Z M256 486 L298 486 L500 632 L500 643 L321 643 L256 486 Z " />
<glyph glyph-name="ecircumflex" unicode="&#xea;" horiz-adv-x="567" d="M465 104 C431 65 390 45 346 45 C268 45 224 98 224 193 C224 199 224 201 225 206 L530 206 L530 216 C530 271 515 313 482 349 C441 392 369 419 292 419 C146 419 40 328 40 204 C40 76 149 -16 298 -16 C387 -16 473 21 516 77 L465 104 Z M226 255 C229 307 232 321 243 340 C252 355 273 365 294 365 C314 365 335 354 344 340 C356 320 360 303 363 255 L226 255 Z M411 484 L454 484 L371 647 L239 647 L149 484 L189 484 L303 568 L411 484 Z " />
<glyph glyph-name="edieresis" unicode="&#xeb;" horiz-adv-x="567" d="M465 104 C431 65 390 45 346 45 C268 45 224 98 224 193 C224 199 224 201 225 206 L530 206 L530 216 C530 271 515 313 482 349 C441 392 369 419 292 419 C146 419 40 328 40 204 C40 76 149 -16 298 -16 C387 -16 473 21 516 77 L465 104 Z M226 255 C229 307 232 321 243 340 C252 355 273 365 294 365 C314 365 335 354 344 340 C356 320 360 303 363 255 L226 255 Z M166 637 C127 637 96 606 96 568 C96 530 127 498 164 498 C204 498 235 529 235 567 C235 606 204 637 166 637 L166 637 Z M421 637 C382 637 351 606 351 567 C351 530 382 498 419 498 C459 498 490 529 490 568 C490 606 459 637 421 637 L421 637 Z " />
<glyph glyph-name="igrave" unicode="&#xec;" horiz-adv-x="359" d="M267 419 L261 419 C231 413 231 413 134 398 C48 385 44 384 18 382 L18 330 L31 330 C87 327 101 314 101 264 L101 118 C100 67 86 54 31 52 L18 52 L18 0 L349 0 L349 52 L344 52 C287 54 268 70 267 118 L267 419 Z M275 486 L209 643 L31 643 L31 632 L232 486 L275 486 Z " />
<glyph glyph-name="iacute" unicode="&#xed;" horiz-adv-x="359" d="M267 419 L261 419 C231 413 231 413 134 398 C48 385 44 384 18 382 L18 330 L31 330 C87 327 101 314 101 264 L101 118 C100 67 86 54 31 52 L18 52 L18 0 L349 0 L349 52 L344 52 C287 54 268 70 267 118 L267 419 Z M142 486 L185 486 L386 632 L386 643 L207 643 L142 486 Z " />
<glyph glyph-name="icircumflex" unicode="&#xee;" horiz-adv-x="359" d="M267 419 L261 419 C231 413 231 413 134 398 C48 385 44 384 18 382 L18 330 L31 330 C87 327 101 314 101 264 L101 118 C100 67 86 54 31 52 L18 52 L18 0 L349 0 L349 52 L344 52 C287 54 268 70 267 118 L267 419 Z M293 484 L336 484 L253 647 L120 647 L31 484 L71 484 L185 568 L293 484 Z " />
<glyph glyph-name="idieresis" unicode="&#xef;" horiz-adv-x="359" d="M267 419 L261 419 C231 413 231 413 134 398 C48 385 44 384 18 382 L18 330 L31 330 C87 327 101 314 101 264 L101 118 C100 67 86 54 31 52 L18 52 L18 0 L349 0 L349 52 L344 52 C287 54 268 70 267 118 L267 419 Z M86 637 C47 637 16 606 16 568 C16 530 47 498 84 498 C124 498 155 529 155 567 C155 606 124 637 86 637 L86 637 Z M287 637 C248 637 217 606 217 567 C217 530 248 498 285 498 C325 498 356 529 356 567 C356 606 325 637 287 637 L287 637 Z " />
<glyph glyph-name="eth" unicode="&#xf0;" horiz-adv-x="621" d="M174 604 C212 583 218 580 252 557 L149 508 L175 461 L298 519 C327 491 362 438 372 406 C352 414 336 417 306 417 C149 417 40 328 40 202 C40 73 148 -14 308 -14 C481 -14 580 78 580 241 C580 368 528 473 414 573 L493 611 L466 658 L366 611 C333 634 297 653 238 677 L174 604 Z M310 361 C378 361 410 312 410 206 C410 93 379 41 310 41 C239 41 208 91 208 203 C208 315 238 361 310 361 L310 361 Z " />
<glyph glyph-name="ntilde" unicode="&#xf1;" horiz-adv-x="670" d="M249 408 C226 403 211 401 166 394 C75 381 55 378 21 372 L21 320 L25 320 C77 319 100 301 102 260 L102 118 C101 68 85 54 26 52 L23 52 L23 0 L324 0 L324 52 L319 52 C278 55 262 73 261 118 L261 273 C307 319 333 335 367 335 C402 335 424 314 424 281 L424 274 L424 118 C423 73 409 57 368 53 L361 52 L361 0 L662 0 L662 52 L657 52 C604 54 586 70 585 118 L585 258 C585 306 580 330 567 353 C544 393 489 419 428 419 C366 419 307 394 264 350 C263 378 260 396 254 408 L249 408 Z M219 493 C226 519 237 529 258 529 C274 529 302 522 331 511 C360 499 381 494 400 494 C460 494 493 542 494 633 L456 633 C453 605 438 589 414 589 C398 589 387 592 346 607 C319 617 292 623 274 623 C246 623 212 604 199 580 C188 558 183 533 182 493 L219 493 Z " />
<glyph glyph-name="ograve" unicode="&#xf2;" horiz-adv-x="622" d="M40 199 C40 142 63 88 102 54 C152 10 230 -16 310 -16 C388 -16 466 11 515 53 C558 92 581 144 581 204 C581 256 564 301 531 336 C483 387 397 419 308 419 C152 419 40 329 40 203 L40 199 Z M310 364 C348 364 381 349 396 324 C408 303 413 270 413 207 C413 81 388 38 313 38 C273 38 243 54 227 83 C212 110 208 142 208 222 C208 274 219 321 234 337 C252 354 279 364 310 364 L310 364 Z M396 486 L330 643 L152 643 L152 632 L353 486 L396 486 Z " />
<glyph glyph-name="oacute" unicode="&#xf3;" horiz-adv-x="622" d="M40 199 C40 142 63 88 102 54 C152 10 230 -16 310 -16 C388 -16 466 11 515 53 C558 92 581 144 581 204 C581 256 564 301 531 336 C483 387 397 419 308 419 C152 419 40 329 40 203 L40 199 Z M310 364 C348 364 381 349 396 324 C408 303 413 270 413 207 C413 81 388 38 313 38 C273 38 243 54 227 83 C212 110 208 142 208 222 C208 274 219 321 234 337 C252 354 279 364 310 364 L310 364 Z M271 486 L314 486 L515 632 L515 643 L337 643 L271 486 Z " />
<glyph glyph-name="ocircumflex" unicode="&#xf4;" horiz-adv-x="622" d="M40 199 C40 142 63 88 102 54 C152 10 230 -16 310 -16 C388 -16 466 11 515 53 C558 92 581 144 581 204 C581 256 564 301 531 336 C483 387 397 419 308 419 C152 419 40 329 40 203 L40 199 Z M310 364 C348 364 381 349 396 324 C408 303 413 270 413 207 C413 81 388 38 313 38 C273 38 243 54 227 83 C212 110 208 142 208 222 C208 274 219 321 234 337 C252 354 279 364 310 364 L310 364 Z M420 484 L463 484 L380 647 L248 647 L158 484 L198 484 L312 568 L420 484 Z " />
<glyph glyph-name="otilde" unicode="&#xf5;" horiz-adv-x="622" d="M40 199 C40 142 63 88 102 54 C152 10 230 -16 310 -16 C388 -16 466 11 515 53 C558 92 581 144 581 204 C581 256 564 301 531 336 C483 387 397 419 308 419 C152 419 40 329 40 203 L40 199 Z M310 364 C348 364 381 349 396 324 C408 303 413 270 413 207 C413 81 388 38 313 38 C273 38 243 54 227 83 C212 110 208 142 208 222 C208 274 219 321 234 337 C252 354 279 364 310 364 L310 364 Z M199 493 C206 519 217 529 238 529 C254 529 282 522 310 511 C340 499 361 494 379 494 C437 494 474 545 474 625 L474 633 L435 633 C433 605 418 589 394 589 C377 589 367 592 326 607 C298 617 272 623 254 623 C225 623 192 604 179 580 C167 558 162 533 162 493 L199 493 Z " />
<glyph glyph-name="odieresis" unicode="&#xf6;" horiz-adv-x="622" d="M40 199 C40 142 63 88 102 54 C152 10 230 -16 310 -16 C388 -16 466 11 515 53 C558 92 581 144 581 204 C581 256 564 301 531 336 C483 387 397 419 308 419 C152 419 40 329 40 203 L40 199 Z M310 364 C348 364 381 349 396 324 C408 303 413 270 413 207 C413 81 388 38 313 38 C273 38 243 54 227 83 C212 110 208 142 208 222 C208 274 219 321 234 337 C252 354 279 364 310 364 L310 364 Z M190 637 C151 637 120 606 120 568 C120 530 151 498 188 498 C228 498 259 529 259 567 C259 606 228 637 190 637 L190 637 Z M445 637 C406 637 375 606 375 567 C375 530 406 498 443 498 C483 498 514 529 514 568 C514 606 483 637 445 637 L445 637 Z " />
<glyph glyph-name="divide" unicode="&#xf7;" horiz-adv-x="550" d="M2 414 L2 325 L547 325 L547 414 L2 414 Z M276 251 C225 251 184 214 184 168 C184 123 225 85 275 85 C327 85 368 121 368 168 C368 214 327 251 276 251 L276 251 Z M276 648 C226 648 184 611 184 566 C184 520 225 482 275 482 C327 482 368 519 368 565 C368 611 327 648 276 648 L276 648 Z " />
<glyph glyph-name="oslash" unicode="&#xf8;" horiz-adv-x="622" d="M545 407 L502 442 L451 390 C407 409 359 419 307 419 C152 419 40 328 40 203 L40 199 C40 134 68 77 117 42 L74 -3 L119 -38 L168 13 C211 -6 261 -16 311 -16 C389 -16 466 10 515 53 C558 92 581 144 581 204 C581 270 554 324 502 362 L545 407 Z M410 267 C412 244 413 224 413 201 C413 81 386 38 313 38 C275 38 247 51 230 78 L410 267 Z M211 140 C209 166 208 185 208 219 C208 275 218 320 234 337 C251 354 279 364 310 364 C346 364 377 350 393 329 L211 140 Z " />
<glyph glyph-name="ugrave" unicode="&#xf9;" horiz-adv-x="655" d="M562 403 L337 403 L337 351 L341 351 C389 349 402 336 403 285 L403 131 C368 87 338 68 300 68 C262 68 245 91 245 140 L245 403 L11 403 L11 351 L14 351 C67 349 85 333 86 285 L86 131 C86 90 90 71 102 50 C126 10 180 -16 240 -16 C302 -16 358 8 403 55 L403 49 L403 31 L404 9 L403 -10 L403 -16 L409 -16 C443 -8 571 1 644 0 L644 52 L640 52 C582 54 563 70 562 118 L562 403 Z M417 486 L351 643 L173 643 L173 632 L374 486 L417 486 Z " />
<glyph glyph-name="uacute" unicode="&#xfa;" horiz-adv-x="655" d="M562 403 L337 403 L337 351 L341 351 C389 349 402 336 403 285 L403 131 C368 87 338 68 300 68 C262 68 245 91 245 140 L245 403 L11 403 L11 351 L14 351 C67 349 85 333 86 285 L86 131 C86 90 90 71 102 50 C126 10 180 -16 240 -16 C302 -16 358 8 403 55 L403 49 L403 31 L404 9 L403 -10 L403 -16 L409 -16 C443 -8 571 1 644 0 L644 52 L640 52 C582 54 563 70 562 118 L562 403 Z M282 486 L324 486 L525 632 L525 643 L347 643 L282 486 Z " />
<glyph glyph-name="ucircumflex" unicode="&#xfb;" horiz-adv-x="655" d="M562 403 L337 403 L337 351 L341 351 C389 349 402 336 403 285 L403 131 C368 87 338 68 300 68 C262 68 245 91 245 140 L245 403 L11 403 L11 351 L14 351 C67 349 85 333 86 285 L86 131 C86 90 90 71 102 50 C126 10 180 -16 240 -16 C302 -16 358 8 403 55 L403 49 L403 31 L404 9 L403 -10 L403 -16 L409 -16 C443 -8 571 1 644 0 L644 52 L640 52 C582 54 563 70 562 118 L562 403 Z M441 484 L484 484 L401 647 L269 647 L179 484 L219 484 L334 568 L441 484 Z " />
<glyph glyph-name="udieresis" unicode="&#xfc;" horiz-adv-x="655" d="M562 403 L337 403 L337 351 L341 351 C389 349 402 336 403 285 L403 131 C368 87 338 68 300 68 C262 68 245 91 245 140 L245 403 L11 403 L11 351 L14 351 C67 349 85 333 86 285 L86 131 C86 90 90 71 102 50 C126 10 180 -16 240 -16 C302 -16 358 8 403 55 L403 49 L403 31 L404 9 L403 -10 L403 -16 L409 -16 C443 -8 571 1 644 0 L644 52 L640 52 C582 54 563 70 562 118 L562 403 Z M204 637 C165 637 134 606 134 568 C134 530 165 498 202 498 C242 498 273 529 273 567 C273 606 242 637 204 637 L204 637 Z M460 637 C421 637 390 606 390 567 C390 530 421 498 458 498 C498 498 529 529 529 568 C529 606 498 637 460 637 L460 637 Z " />
<glyph glyph-name="yacute" unicode="&#xfd;" horiz-adv-x="577" d="M-7 403 L-7 351 L1 350 C29 347 39 338 73 282 L267 -18 L255 -44 C230 -90 206 -104 128 -121 C77 -131 54 -151 54 -184 C54 -222 89 -251 135 -251 C165 -251 194 -240 217 -220 C236 -203 254 -177 284 -121 L474 230 C522 332 532 346 562 350 L571 351 L571 403 L408 403 L408 351 L417 351 C433 352 451 339 451 327 C451 318 444 300 433 278 L359 139 L258 295 C252 305 245 325 245 333 C245 344 255 350 275 351 L284 351 L284 403 L-7 403 Z M282 486 L325 486 L526 632 L526 643 L348 643 L282 486 Z " />
<glyph glyph-name="thorn" unicode="&#xfe;" horiz-adv-x="679" d="M245 679 C223 674 146 661 64 648 C33 644 23 642 12 640 L12 588 L16 588 C74 586 93 570 94 522 L94 -120 C93 -169 76 -183 16 -185 L12 -185 L12 -237 L349 -237 L349 -185 L330 -185 C273 -183 254 -167 253 -120 L253 40 C308 1 355 -16 411 -16 C542 -16 639 79 639 207 C639 329 547 419 423 419 C361 419 302 395 250 349 L250 679 L245 679 Z M253 282 C283 324 324 346 370 346 C406 346 437 330 453 302 C466 279 472 248 472 195 C472 151 468 127 457 109 C440 78 403 58 365 58 C325 58 283 74 253 100 L253 282 Z " />
<glyph glyph-name="ydieresis" unicode="&#xff;" horiz-adv-x="577" d="M-7 403 L-7 351 L1 350 C29 347 39 338 73 282 L267 -18 L255 -44 C230 -90 206 -104 128 -121 C77 -131 54 -151 54 -184 C54 -222 89 -251 135 -251 C165 -251 194 -240 217 -220 C236 -203 254 -177 284 -121 L474 230 C522 332 532 346 562 350 L571 351 L571 403 L408 403 L408 351 L417 351 C433 352 451 339 451 327 C451 318 444 300 433 278 L359 139 L258 295 C252 305 245 325 245 333 C245 344 255 350 275 351 L284 351 L284 403 L-7 403 Z M180 637 C141 637 110 606 110 568 C110 530 141 498 178 498 C218 498 249 529 249 567 C249 606 218 637 180 637 L180 637 Z M435 637 C396 637 365 606 365 567 C365 530 396 498 433 498 C473 498 504 529 504 568 C504 606 473 637 435 637 L435 637 Z " />
<glyph glyph-name="Amacron" unicode="&#x100;" horiz-adv-x="720" d="M735 0 L735 55 L730 55 C679 59 660 78 620 162 L390 679 L327 679 L107 177 C76 101 36 59 -8 55 L-15 55 L-15 0 L227 0 L227 55 L219 55 C177 55 151 70 151 94 C151 106 158 128 168 153 L180 180 L406 180 L417 155 C437 113 444 94 444 84 C444 64 423 55 377 55 L371 55 L371 0 L735 0 Z M382 236 L203 236 L290 436 L382 236 Z M165 818 L165 756 L555 756 L555 818 L165 818 Z " />
<glyph glyph-name="amacron" unicode="&#x101;" horiz-adv-x="621" d="M572 90 C567 72 556 62 541 62 C521 62 511 76 511 105 L511 291 C511 335 507 350 488 371 C459 404 403 419 311 419 C233 419 176 410 133 391 C83 369 57 342 57 311 C57 280 86 259 127 259 C170 259 193 276 200 312 C204 330 209 342 215 347 C226 356 252 363 277 363 C301 363 325 357 337 348 C346 340 351 325 351 303 L351 266 C109 192 41 152 41 82 C41 26 94 -10 177 -10 C243 -10 306 8 360 43 C382 8 424 -10 484 -10 C567 -10 616 26 619 90 L572 90 Z M351 96 C325 75 292 62 262 62 C225 62 192 85 192 112 C192 149 233 174 351 211 L351 96 Z M135 591 L135 529 L483 529 L483 591 L135 591 Z " />
<glyph glyph-name="Abreve" unicode="&#x102;" horiz-adv-x="720" d="M735 0 L735 55 L730 55 C679 59 660 78 620 162 L390 679 L327 679 L107 177 C76 101 36 59 -8 55 L-15 55 L-15 0 L227 0 L227 55 L219 55 C177 55 151 70 151 94 C151 106 158 128 168 153 L180 180 L406 180 L417 155 C437 113 444 94 444 84 C444 64 423 55 377 55 L371 55 L371 0 L735 0 Z M382 236 L203 236 L290 436 L382 236 Z M157 882 C190 785 269 725 364 725 C456 725 530 784 562 882 L503 882 C479 840 426 815 359 815 C292 815 246 837 218 882 L157 882 Z " />
<glyph glyph-name="abreve" unicode="&#x103;" horiz-adv-x="621" d="M572 90 C567 72 556 62 541 62 C521 62 511 76 511 105 L511 291 C511 335 507 350 488 371 C459 404 403 419 311 419 C233 419 176 410 133 391 C83 369 57 342 57 311 C57 280 86 259 127 259 C170 259 193 276 200 312 C204 330 209 342 215 347 C226 356 252 363 277 363 C301 363 325 357 337 348 C346 340 351 325 351 303 L351 266 C109 192 41 152 41 82 C41 26 94 -10 177 -10 C243 -10 306 8 360 43 C382 8 424 -10 484 -10 C567 -10 616 26 619 90 L572 90 Z M351 96 C325 75 292 62 262 62 C225 62 192 85 192 112 C192 149 233 174 351 211 L351 96 Z M166 647 C165 644 165 642 165 642 C165 602 181 561 210 528 C239 494 274 478 316 478 C400 478 464 551 466 647 L433 647 C416 593 377 566 319 566 C258 566 216 595 200 647 L166 647 Z " />
<glyph glyph-name="Aogonek" unicode="&#x104;" horiz-adv-x="720" d="M735 0 L735 55 L730 55 C679 59 660 78 620 162 L390 679 L327 679 L107 177 C76 101 36 59 -8 55 L-15 55 L-15 0 L227 0 L227 55 L219 55 C177 55 151 70 151 94 C151 106 158 128 168 153 L180 180 L406 180 L417 155 C437 113 444 94 444 84 C444 64 423 55 377 55 L371 55 L371 0 L596 0 C533 -32 499 -74 499 -119 C499 -177 556 -218 637 -218 C682 -218 717 -207 765 -180 L747 -149 C722 -157 708 -160 688 -160 C637 -160 601 -133 601 -94 C601 -60 620 -33 666 0 L735 0 Z M382 236 L203 236 L290 436 L382 236 Z " />
<glyph glyph-name="aogonek" unicode="&#x105;" horiz-adv-x="621" d="M572 90 C567 72 556 62 541 62 C521 62 511 76 511 105 L511 291 C511 335 507 350 488 371 C459 404 403 419 311 419 C233 419 176 410 133 391 C83 369 57 342 57 311 C57 280 86 259 127 259 C170 259 193 276 200 312 C204 330 209 342 215 347 C226 356 252 363 277 363 C301 363 325 357 337 348 C346 340 351 325 351 303 L351 266 C109 192 41 152 41 82 C41 26 94 -10 177 -10 C243 -10 306 8 360 43 C375 19 397 4 436 -4 C391 -34 369 -67 369 -104 C369 -158 421 -196 496 -196 C537 -196 569 -186 613 -160 L596 -131 C573 -139 560 -141 542 -141 C497 -141 466 -117 466 -82 C466 -56 479 -29 502 -9 C578 -1 616 31 619 90 L572 90 Z M351 96 C325 75 292 62 262 62 C225 62 192 85 192 112 C192 149 233 174 351 211 L351 96 Z " />
<glyph glyph-name="Cacute" unicode="&#x106;" horiz-adv-x="816" d="M692 256 C676 195 638 130 603 104 C559 70 502 51 447 51 C373 51 306 85 275 140 C252 179 241 241 241 327 C241 420 252 482 277 526 C310 584 368 615 444 615 C562 615 645 545 683 412 L742 412 L735 658 L675 658 C667 632 661 617 652 599 C588 654 516 679 424 679 C321 679 225 645 160 586 C87 520 45 425 45 328 C45 132 204 -14 419 -14 C514 -14 606 18 661 70 C675 54 684 35 692 6 L752 6 L752 256 L692 256 Z M383 732 L422 732 L682 880 L682 892 L482 892 L383 732 Z " />
<glyph glyph-name="cacute" unicode="&#x107;" horiz-adv-x="545" d="M463 124 C438 74 393 49 330 49 C245 49 205 100 205 210 C205 269 209 295 223 319 C239 349 270 366 307 366 C336 366 350 357 356 334 C370 279 393 258 437 258 C477 258 508 286 508 322 C508 381 438 419 329 419 C159 419 37 325 37 194 C37 70 144 -16 298 -16 C406 -16 487 27 519 102 L463 124 Z M247 486 L289 486 L491 632 L491 643 L312 643 L247 486 Z " />
<glyph glyph-name="Ccircumflex" unicode="&#x108;" horiz-adv-x="816" d="M692 256 C676 195 638 130 603 104 C559 70 502 51 447 51 C373 51 306 85 275 140 C252 179 241 241 241 327 C241 420 252 482 277 526 C310 584 368 615 444 615 C562 615 645 545 683 412 L742 412 L735 658 L675 658 C667 632 661 617 652 599 C588 654 516 679 424 679 C321 679 225 645 160 586 C87 520 45 425 45 328 C45 132 204 -14 419 -14 C514 -14 606 18 661 70 C675 54 684 35 692 6 L752 6 L752 256 L692 256 Z M337 887 L237 728 L276 728 L431 821 L595 728 L633 728 L530 887 L337 887 Z " />
<glyph glyph-name="Cdotaccent" unicode="&#x10a;" horiz-adv-x="816" d="M692 256 C676 195 638 130 603 104 C559 70 502 51 447 51 C373 51 306 85 275 140 C252 179 241 241 241 327 C241 420 252 482 277 526 C310 584 368 615 444 615 C562 615 645 545 683 412 L742 412 L735 658 L675 658 C667 632 661 617 652 599 C588 654 516 679 424 679 C321 679 225 645 160 586 C87 520 45 425 45 328 C45 132 204 -14 419 -14 C514 -14 606 18 661 70 C675 54 684 35 692 6 L752 6 L752 256 L692 256 Z M430 880 C387 880 353 846 353 803 C353 761 388 726 429 726 C473 726 507 760 507 803 C507 846 473 880 430 880 L430 880 Z " />
<glyph glyph-name="cdotaccent" unicode="&#x10b;" horiz-adv-x="545" d="M463 124 C438 74 393 49 330 49 C245 49 205 100 205 210 C205 269 209 295 223 319 C239 349 270 366 307 366 C336 366 350 357 356 334 C370 279 393 258 437 258 C477 258 508 286 508 322 C508 381 438 419 329 419 C159 419 37 325 37 194 C37 70 144 -16 298 -16 C406 -16 487 27 519 102 L463 124 Z M307 637 C268 637 237 606 237 568 C237 530 268 498 305 498 C345 498 376 529 376 567 C376 606 345 637 307 637 L307 637 Z " />
<glyph glyph-name="Ccaron" unicode="&#x10c;" horiz-adv-x="816" d="M692 256 C676 195 638 130 603 104 C559 70 502 51 447 51 C373 51 306 85 275 140 C252 179 241 241 241 327 C241 420 252 482 277 526 C310 584 368 615 444 615 C562 615 645 545 683 412 L742 412 L735 658 L675 658 C667 632 661 617 652 599 C588 654 516 679 424 679 C321 679 225 645 160 586 C87 520 45 425 45 328 C45 132 204 -14 419 -14 C514 -14 606 18 661 70 C675 54 684 35 692 6 L752 6 L752 256 L692 256 Z M524 728 L628 887 L589 887 L433 795 L270 887 L232 887 L332 728 L524 728 Z " />
<glyph glyph-name="ccaron" unicode="&#x10d;" horiz-adv-x="545" d="M463 124 C438 74 393 49 330 49 C245 49 205 100 205 210 C205 269 209 295 223 319 C239 349 270 366 307 366 C336 366 350 357 356 334 C370 279 393 258 437 258 C477 258 508 286 508 322 C508 381 438 419 329 419 C159 419 37 325 37 194 C37 70 144 -16 298 -16 C406 -16 487 27 519 102 L463 124 Z M189 654 L149 654 L238 491 L371 491 L454 654 L410 654 L303 570 L189 654 Z " />
<glyph glyph-name="Dcaron" unicode="&#x10e;" horiz-adv-x="876" d="M30 667 L30 613 L39 613 C110 612 137 589 137 531 L137 136 C138 79 108 53 39 55 L30 55 L30 0 L291 0 C490 1 533 4 590 22 C739 67 829 183 829 330 C829 461 757 569 634 625 C558 659 454 673 266 673 C191 673 161 672 33 667 L30 667 Z M311 615 C316 616 322 616 327 616 C438 616 493 600 550 551 C605 502 630 434 630 328 C630 239 610 170 571 123 C537 82 476 59 402 59 C365 59 341 67 326 86 C314 100 311 116 311 156 L311 615 Z M486 728 L589 887 L551 887 L395 795 L232 887 L193 887 L293 728 L486 728 Z " />
<glyph glyph-name="dcaron" unicode="&#x10f;" horiz-adv-x="800" d="M662 66 L653 66 C596 68 576 85 575 132 L575 679 L569 679 C550 675 545 674 530 672 C517 670 454 659 395 650 L349 642 L349 590 L352 590 C401 589 415 575 416 525 L416 366 C381 400 324 419 261 419 C174 419 104 382 66 315 C48 283 40 246 40 196 C40 68 117 -9 247 -9 C311 -9 362 11 416 56 C416 30 419 11 428 -9 C488 1 557 7 662 11 L662 66 Z M416 124 C390 86 350 65 304 65 C263 65 235 83 220 117 C213 135 208 175 208 220 C208 304 244 348 314 348 C349 348 378 336 416 307 L416 124 Z M630 432 C727 433 793 489 793 571 C793 637 755 679 695 679 C648 679 615 652 615 614 C615 581 643 555 679 555 C685 555 691 556 699 558 C705 559 711 560 715 560 C724 560 731 552 731 541 C731 520 711 496 686 486 C670 479 655 476 630 474 L630 432 Z " />
<glyph glyph-name="Dcroat" unicode="&#x110;" horiz-adv-x="880" d="M141 365 L26 365 L26 301 L141 301 L141 136 C142 79 112 54 43 55 L34 55 L34 0 L295 0 C495 1 538 4 595 22 C744 67 834 184 834 331 C834 461 762 570 639 625 C563 660 459 673 270 673 C195 673 164 672 37 667 L34 667 L34 613 L43 613 C114 612 141 589 141 531 L141 365 Z M315 365 L315 615 C320 616 326 616 331 616 C443 616 497 600 554 551 C610 502 635 434 635 328 C635 239 615 170 576 123 C542 82 481 59 406 59 C369 59 345 67 330 86 C318 100 315 116 315 156 L315 301 L468 301 L468 365 L315 365 Z " />
<glyph glyph-name="dcroat" unicode="&#x111;" horiz-adv-x="677" d="M416 475 L416 366 C381 400 325 419 261 419 C174 419 104 382 66 315 C48 283 40 246 40 196 C40 68 117 -9 247 -9 C311 -9 362 11 416 56 C416 30 419 11 428 -9 C488 1 557 7 662 11 L662 66 L653 66 C596 68 576 85 575 132 L575 475 L662 475 L662 537 L575 537 L575 679 L569 679 C550 675 545 674 530 672 C517 670 454 659 395 650 L349 642 L349 590 L352 590 C398 589 412 577 415 537 L232 537 L232 475 L416 475 Z M416 124 C390 86 350 65 304 65 C263 65 235 83 220 117 C213 135 208 175 208 220 C208 304 244 348 314 348 C349 348 379 336 416 307 L416 124 Z " />
<glyph glyph-name="Emacron" unicode="&#x112;" horiz-adv-x="738" d="M644 219 C609 99 557 57 448 59 L428 59 C335 59 309 81 314 154 L314 319 L387 319 C452 317 468 303 471 243 L471 235 L535 235 L535 461 L471 461 L471 455 C467 394 451 379 385 378 L314 378 L314 608 L457 608 C541 609 567 589 604 494 L665 494 L654 667 L30 667 L30 613 L44 613 C112 613 141 588 140 531 L140 136 C142 80 111 53 44 55 L30 55 L30 0 L700 0 L705 219 L644 219 Z M185 818 L185 756 L575 756 L575 818 L185 818 Z " />
<glyph glyph-name="emacron" unicode="&#x113;" horiz-adv-x="567" d="M465 104 C431 65 390 45 346 45 C268 45 224 98 224 193 C224 199 224 201 225 206 L530 206 L530 216 C530 271 515 313 482 349 C441 392 369 419 292 419 C146 419 40 328 40 204 C40 76 149 -16 298 -16 C387 -16 473 21 516 77 L465 104 Z M226 255 C229 307 232 321 243 340 C252 355 273 365 294 365 C314 365 335 354 344 340 C356 320 360 303 363 255 L226 255 Z M119 591 L119 529 L467 529 L467 591 L119 591 Z " />
<glyph glyph-name="Ebreve" unicode="&#x114;" horiz-adv-x="738" d="M644 219 C609 99 557 57 448 59 L428 59 C335 59 309 81 314 154 L314 319 L387 319 C452 317 468 303 471 243 L471 235 L535 235 L535 461 L471 461 L471 455 C467 394 451 379 385 378 L314 378 L314 608 L457 608 C541 609 567 589 604 494 L665 494 L654 667 L30 667 L30 613 L44 613 C112 613 141 588 140 531 L140 136 C142 80 111 53 44 55 L30 55 L30 0 L700 0 L705 219 L644 219 Z M184 882 C217 785 296 725 390 725 C482 725 557 784 589 882 L530 882 C506 840 452 815 385 815 C319 815 273 837 245 882 L184 882 Z " />
<glyph glyph-name="ebreve" unicode="&#x115;" horiz-adv-x="567" d="M465 104 C431 65 390 45 346 45 C268 45 224 98 224 193 C224 199 224 201 225 206 L530 206 L530 216 C530 271 515 313 482 349 C441 392 369 419 292 419 C146 419 40 328 40 204 C40 76 149 -16 298 -16 C387 -16 473 21 516 77 L465 104 Z M226 255 C229 307 232 321 243 340 C252 355 273 365 294 365 C314 365 335 354 344 340 C356 320 360 303 363 255 L226 255 Z M148 647 C149 553 216 478 299 478 C382 478 447 551 448 647 L415 647 C398 593 360 566 302 566 C241 566 198 595 182 647 L148 647 Z " />
<glyph glyph-name="Edotaccent" unicode="&#x116;" horiz-adv-x="738" d="M644 219 C609 99 557 57 448 59 L428 59 C335 59 309 81 314 154 L314 319 L387 319 C452 317 468 303 471 243 L471 235 L535 235 L535 461 L471 461 L471 455 C467 394 451 379 385 378 L314 378 L314 608 L457 608 C541 609 567 589 604 494 L665 494 L654 667 L30 667 L30 613 L44 613 C112 613 141 588 140 531 L140 136 C142 80 111 53 44 55 L30 55 L30 0 L700 0 L705 219 L644 219 Z M384 880 C341 880 307 846 307 803 C307 761 342 726 383 726 C427 726 461 760 461 803 C461 846 427 880 384 880 L384 880 Z " />
<glyph glyph-name="edotaccent" unicode="&#x117;" horiz-adv-x="567" d="M465 104 C431 65 390 45 346 45 C268 45 224 98 224 193 C224 199 224 201 225 206 L530 206 L530 216 C530 271 515 313 482 349 C441 392 369 419 292 419 C146 419 40 328 40 204 C40 76 149 -16 298 -16 C387 -16 473 21 516 77 L465 104 Z M226 255 C229 307 232 321 243 340 C252 355 273 365 294 365 C314 365 335 354 344 340 C356 320 360 303 363 255 L226 255 Z M302 637 C263 637 232 606 232 568 C232 530 263 498 300 498 C340 498 371 529 371 567 C371 606 340 637 302 637 L302 637 Z " />
<glyph glyph-name="Eogonek" unicode="&#x118;" horiz-adv-x="738" d="M700 0 L705 219 L644 219 C609 99 557 57 448 59 L428 59 C335 59 309 81 314 154 L314 319 L387 319 C452 317 468 303 471 243 L471 235 L535 235 L535 461 L471 461 L471 455 C467 394 451 379 385 378 L314 378 L314 608 L457 608 C541 609 567 589 604 494 L665 494 L654 667 L30 667 L30 613 L44 613 C112 613 141 588 140 531 L140 136 C142 80 111 53 44 55 L30 55 L30 0 L534 0 C471 -32 437 -74 437 -119 C437 -177 494 -218 575 -218 C620 -218 655 -208 702 -180 L685 -149 C659 -157 645 -160 625 -160 C575 -160 539 -132 539 -94 C539 -60 558 -32 603 0 L700 0 Z " />
<glyph glyph-name="eogonek" unicode="&#x119;" horiz-adv-x="567" d="M465 104 C431 65 390 45 346 45 C268 45 224 98 224 193 C224 199 224 201 225 206 L530 206 L530 216 C530 271 515 313 482 349 C441 392 369 419 292 419 C146 419 40 328 40 204 C40 76 149 -16 299 -16 C305 -16 310 -16 320 -15 C286 -42 269 -72 269 -106 C269 -158 323 -196 396 -196 C437 -196 470 -186 513 -160 L496 -131 C473 -139 461 -141 443 -141 C398 -141 367 -117 367 -82 C367 -48 382 -24 423 9 C462 26 499 53 516 77 L465 104 Z M226 255 C229 307 232 321 243 340 C252 355 273 365 294 365 C314 365 335 354 344 340 C356 320 360 303 363 255 L226 255 Z " />
<glyph glyph-name="Ecaron" unicode="&#x11a;" horiz-adv-x="738" d="M644 219 C609 99 557 57 448 59 L428 59 C335 59 309 81 314 154 L314 319 L387 319 C452 317 468 303 471 243 L471 235 L535 235 L535 461 L471 461 L471 455 C467 394 451 379 385 378 L314 378 L314 608 L457 608 C541 609 567 589 604 494 L665 494 L654 667 L30 667 L30 613 L44 613 C112 613 141 588 140 531 L140 136 C142 80 111 53 44 55 L30 55 L30 0 L700 0 L705 219 L644 219 Z M483 728 L586 887 L548 887 L392 795 L229 887 L190 887 L290 728 L483 728 Z " />
<glyph glyph-name="ecaron" unicode="&#x11b;" horiz-adv-x="567" d="M465 104 C431 65 390 45 346 45 C268 45 224 98 224 193 C224 199 224 201 225 206 L530 206 L530 216 C530 271 515 313 482 349 C441 392 369 419 292 419 C146 419 40 328 40 204 C40 76 149 -16 298 -16 C387 -16 473 21 516 77 L465 104 Z M226 255 C229 307 232 321 243 340 C252 355 273 365 294 365 C314 365 335 354 344 340 C356 320 360 303 363 255 L226 255 Z M185 654 L145 654 L234 491 L367 491 L450 654 L407 654 L300 570 L185 654 Z " />
<glyph glyph-name="Gcircumflex" unicode="&#x11c;" horiz-adv-x="866" d="M504 308 L504 254 L513 253 C567 248 586 232 588 190 L588 166 C588 131 584 112 572 94 C553 65 509 49 451 49 C368 49 308 77 279 130 C257 169 247 224 247 308 C247 395 257 465 276 507 C306 573 369 609 454 609 C566 609 642 552 682 439 L736 439 L730 672 L677 672 C675 646 669 625 658 602 C590 654 515 679 427 679 C214 679 45 522 45 325 C45 208 109 98 214 37 C272 3 341 -14 418 -14 C464 -14 488 -11 595 10 C663 23 712 29 744 29 C752 29 759 29 773 28 L773 168 C773 228 783 241 835 252 L847 254 L847 308 L504 308 Z M345 887 L244 728 L283 728 L438 821 L602 728 L640 728 L537 887 L345 887 Z " />
<glyph glyph-name="gcircumflex" unicode="&#x11d;" horiz-adv-x="591" d="M136 -106 L141 -99 C141 -98 142 -98 143 -96 C122 -88 110 -85 95 -85 C62 -85 35 -112 35 -143 C35 -171 53 -198 83 -216 C122 -238 186 -249 275 -249 C372 -249 437 -236 488 -207 C542 -176 572 -129 572 -72 C572 -12 538 33 479 51 C441 62 405 66 331 66 L304 66 C288 65 283 65 264 65 L221 65 C181 64 161 72 161 89 C161 115 197 128 266 128 C416 127 510 185 510 278 C510 302 504 323 489 345 C499 354 504 356 512 356 C521 356 526 354 537 345 C550 334 558 331 569 331 C591 331 605 346 605 371 C605 401 585 419 551 419 C524 419 502 409 456 376 C413 406 364 418 291 418 C139 418 49 365 49 277 C49 213 95 164 173 144 C96 126 61 94 61 42 C61 -34 128 -64 300 -64 C384 -64 413 -65 431 -68 C466 -75 482 -89 482 -113 C482 -166 406 -197 276 -197 C185 -197 125 -171 125 -132 C125 -126 128 -118 134 -109 L136 -106 Z M280 365 C332 365 360 335 360 280 C360 215 336 185 285 185 C230 185 202 217 202 280 C202 334 230 365 280 365 L280 365 Z M408 484 L452 484 L369 647 L236 647 L147 484 L187 484 L301 568 L408 484 Z " />
<glyph glyph-name="Gbreve" unicode="&#x11e;" horiz-adv-x="866" d="M504 308 L504 254 L513 253 C567 248 586 232 588 190 L588 166 C588 131 584 112 572 94 C553 65 509 49 451 49 C368 49 308 77 279 130 C257 169 247 224 247 308 C247 395 257 465 276 507 C306 573 369 609 454 609 C566 609 642 552 682 439 L736 439 L730 672 L677 672 C675 646 669 625 658 602 C590 654 515 679 427 679 C214 679 45 522 45 325 C45 208 109 98 214 37 C272 3 341 -14 418 -14 C464 -14 488 -11 595 10 C663 23 712 29 744 29 C752 29 759 29 773 28 L773 168 C773 228 783 241 835 252 L847 254 L847 308 L504 308 Z M235 882 C268 785 347 725 441 725 C533 725 608 784 640 882 L581 882 C557 840 503 815 436 815 C370 815 324 837 296 882 L235 882 Z " />
<glyph glyph-name="gbreve" unicode="&#x11f;" horiz-adv-x="591" d="M136 -106 L141 -99 C141 -98 142 -98 143 -96 C122 -88 110 -85 95 -85 C62 -85 35 -112 35 -143 C35 -171 53 -198 83 -216 C122 -238 186 -249 275 -249 C372 -249 437 -236 488 -207 C542 -176 572 -129 572 -72 C572 -12 538 33 479 51 C441 62 405 66 331 66 L304 66 C288 65 283 65 264 65 L221 65 C181 64 161 72 161 89 C161 115 197 128 266 128 C416 127 510 185 510 278 C510 302 504 323 489 345 C499 354 504 356 512 356 C521 356 526 354 537 345 C550 334 558 331 569 331 C591 331 605 346 605 371 C605 401 585 419 551 419 C524 419 502 409 456 376 C413 406 364 418 291 418 C139 418 49 365 49 277 C49 213 95 164 173 144 C96 126 61 94 61 42 C61 -34 128 -64 300 -64 C384 -64 413 -65 431 -68 C466 -75 482 -89 482 -113 C482 -166 406 -197 276 -197 C185 -197 125 -171 125 -132 C125 -126 128 -118 134 -109 L136 -106 Z M280 365 C332 365 360 335 360 280 C360 215 336 185 285 185 C230 185 202 217 202 280 C202 334 230 365 280 365 L280 365 Z M141 647 L141 642 C141 603 157 561 186 528 C215 494 249 478 292 478 C375 478 440 551 442 647 L408 647 C391 593 353 566 295 566 C234 566 192 595 175 647 L141 647 Z " />
<glyph glyph-name="Gdotaccent" unicode="&#x120;" horiz-adv-x="866" d="M504 308 L504 254 L513 253 C567 248 586 232 588 190 L588 166 C588 131 584 112 572 94 C553 65 509 49 451 49 C368 49 308 77 279 130 C257 169 247 224 247 308 C247 395 257 465 276 507 C306 573 369 609 454 609 C566 609 642 552 682 439 L736 439 L730 672 L677 672 C675 646 669 625 658 602 C590 654 515 679 427 679 C214 679 45 522 45 325 C45 208 109 98 214 37 C272 3 341 -14 418 -14 C464 -14 488 -11 595 10 C663 23 712 29 744 29 C752 29 759 29 773 28 L773 168 C773 228 783 241 835 252 L847 254 L847 308 L504 308 Z M437 880 C394 880 360 846 360 803 C360 761 395 726 436 726 C480 726 514 760 514 803 C514 846 480 880 437 880 L437 880 Z " />
<glyph glyph-name="gdotaccent" unicode="&#x121;" horiz-adv-x="591" d="M136 -106 L141 -99 C141 -98 142 -98 143 -96 C122 -88 110 -85 95 -85 C62 -85 35 -112 35 -143 C35 -171 53 -198 83 -216 C122 -238 186 -249 275 -249 C372 -249 437 -236 488 -207 C542 -176 572 -129 572 -72 C572 -12 538 33 479 51 C441 62 405 66 331 66 L304 66 C288 65 283 65 264 65 L221 65 C181 64 161 72 161 89 C161 115 197 128 266 128 C416 127 510 185 510 278 C510 302 504 323 489 345 C499 354 504 356 512 356 C521 356 526 354 537 345 C550 334 558 331 569 331 C591 331 605 346 605 371 C605 401 585 419 551 419 C524 419 502 409 456 376 C413 406 364 418 291 418 C139 418 49 365 49 277 C49 213 95 164 173 144 C96 126 61 94 61 42 C61 -34 128 -64 300 -64 C384 -64 413 -65 431 -68 C466 -75 482 -89 482 -113 C482 -166 406 -197 276 -197 C185 -197 125 -171 125 -132 C125 -126 128 -118 134 -109 L136 -106 Z M280 365 C332 365 360 335 360 280 C360 215 336 185 285 185 C230 185 202 217 202 280 C202 334 230 365 280 365 L280 365 Z M291 637 C252 637 221 606 221 568 C221 530 252 498 289 498 C329 498 360 529 360 567 C360 606 329 637 291 637 L291 637 Z " />
<glyph glyph-name="Gcommaaccent" unicode="&#x122;" horiz-adv-x="866" d="M504 308 L504 254 L513 253 C567 248 586 232 588 190 L588 166 C588 131 584 112 572 94 C553 65 509 49 451 49 C368 49 308 77 279 130 C257 169 247 224 247 308 C247 395 257 465 276 507 C306 573 369 609 454 609 C566 609 642 552 682 439 L736 439 L730 672 L677 672 C675 646 669 625 658 602 C590 654 515 679 427 679 C214 679 45 522 45 325 C45 208 109 98 214 37 C272 3 341 -14 418 -14 C464 -14 488 -11 595 10 C663 23 712 29 744 29 C752 29 759 29 773 28 L773 168 C773 228 783 241 835 252 L847 254 L847 308 L504 308 Z M348 -339 C459 -336 526 -275 526 -177 C526 -105 485 -59 422 -59 C371 -59 336 -92 336 -140 C336 -180 366 -212 404 -212 C409 -212 417 -211 424 -209 C429 -208 432 -207 433 -207 L440 -206 L441 -205 L442 -205 C449 -205 456 -214 456 -223 C456 -259 411 -287 348 -290 L348 -339 Z " />
<glyph glyph-name="gcommaaccent" unicode="&#x123;" horiz-adv-x="591" d="M136 -106 L141 -99 C141 -98 142 -98 143 -96 C122 -88 110 -85 95 -85 C62 -85 35 -112 35 -143 C35 -171 53 -198 83 -216 C122 -238 186 -249 275 -249 C372 -249 437 -236 488 -207 C542 -176 572 -129 572 -72 C572 -12 538 33 479 51 C441 62 405 66 331 66 L304 66 C288 65 283 65 264 65 L221 65 C181 64 161 72 161 89 C161 115 197 128 266 128 C416 127 510 185 510 278 C510 302 504 323 489 345 C499 354 504 356 512 356 C521 356 526 354 537 345 C550 334 558 331 569 331 C591 331 605 346 605 371 C605 401 585 419 551 419 C524 419 502 409 456 376 C413 406 364 418 291 418 C139 418 49 365 49 277 C49 213 95 164 173 144 C96 126 61 94 61 42 C61 -34 128 -64 300 -64 C384 -64 413 -65 431 -68 C466 -75 482 -89 482 -113 C482 -166 406 -197 276 -197 C185 -197 125 -171 125 -132 C125 -126 128 -118 134 -109 L136 -106 Z M280 365 C332 365 360 335 360 280 C360 215 336 185 285 185 C230 185 202 217 202 280 C202 334 230 365 280 365 L280 365 Z M369 710 C272 709 206 653 206 571 C206 506 244 464 304 464 C351 464 384 491 384 529 C384 561 356 587 320 587 C313 587 308 586 300 585 C294 584 288 583 284 583 C275 583 268 591 268 602 C268 622 288 647 313 657 C329 664 344 667 369 669 L369 710 Z " />
<glyph glyph-name="Hcircumflex" unicode="&#x124;" horiz-adv-x="937" d="M628 319 L628 136 C629 77 600 54 526 55 L526 0 L907 0 L907 55 L898 55 C829 55 801 79 802 136 L802 531 C802 590 829 613 898 612 L907 612 L907 667 L526 667 L526 612 L530 612 C598 614 628 590 628 531 L628 381 L309 381 L309 531 C309 590 336 613 406 612 L412 612 L412 667 L30 667 L30 612 L39 612 C107 612 135 589 135 531 L135 136 C135 78 112 57 39 55 L30 55 L30 0 L412 0 L412 55 L406 55 C340 53 307 80 309 136 L309 319 L628 319 Z M374 887 L274 728 L312 728 L467 821 L631 728 L670 728 L566 887 L374 887 Z " />
<glyph glyph-name="Hbar" unicode="&#x126;" horiz-adv-x="937" d="M135 435 L135 136 C135 78 112 57 39 55 L30 55 L30 0 L412 0 L412 55 L406 55 C340 53 307 80 309 136 L309 319 L628 319 L628 136 C629 77 600 54 526 55 L526 0 L907 0 L907 55 L898 55 C829 55 801 79 802 136 L802 435 L886 435 L886 497 L802 497 L802 531 C802 590 829 613 897 612 L907 612 L907 667 L526 667 L526 612 L530 612 C598 614 628 590 628 531 L628 497 L309 497 L309 531 C309 590 336 613 406 612 L412 612 L412 667 L30 667 L30 612 L39 612 C107 613 135 589 135 531 L135 497 L51 497 L51 435 L135 435 Z M309 435 L628 435 L628 381 L309 381 L309 435 Z " />
<glyph glyph-name="hbar" unicode="&#x127;" horiz-adv-x="668" d="M99 475 L99 118 C98 69 82 54 23 52 L20 52 L20 0 L321 0 L321 52 L317 52 C275 55 259 73 258 118 L258 272 C297 316 328 335 363 335 C401 335 421 313 421 272 L421 118 C420 73 406 57 365 53 L358 52 L358 0 L660 0 L660 52 L655 52 C601 54 583 70 582 118 L582 255 C582 302 577 331 564 353 C540 393 484 419 422 419 C359 419 303 395 258 348 L258 475 L430 475 L430 537 L258 537 L258 679 L252 679 C238 675 205 670 154 663 C113 657 71 650 20 640 L20 588 L23 588 C80 585 96 575 98 537 L19 537 L19 475 L99 475 Z " />
<glyph glyph-name="Imacron" unicode="&#x12a;" horiz-adv-x="448" d="M30 612 L40 612 C110 613 136 591 136 531 L136 136 C137 79 109 55 40 55 L30 55 L30 0 L418 0 L418 55 L406 55 C336 55 309 78 310 136 L310 531 C310 590 336 613 406 612 L418 612 L418 667 L30 667 L30 612 Z M29 818 L29 756 L419 756 L419 818 L29 818 Z " />
<glyph glyph-name="imacron" unicode="&#x12b;" horiz-adv-x="359" d="M268 419 L262 419 C232 413 231 413 135 398 C49 385 45 384 18 382 L18 330 L31 330 C88 327 102 314 102 264 L102 118 C101 67 87 54 31 52 L18 52 L18 0 L349 0 L349 52 L344 52 C288 54 269 70 268 118 L268 419 Z M10 591 L10 529 L324 529 L324 591 L10 591 Z " />
<glyph glyph-name="ibreve" unicode="&#x12d;" horiz-adv-x="359" d="M267 419 L261 419 C231 413 231 413 134 398 C48 385 44 384 18 382 L18 330 L31 330 C87 327 101 314 101 264 L101 118 C100 67 86 54 31 52 L18 52 L18 0 L349 0 L349 52 L344 52 C287 54 268 70 267 118 L267 419 Z M28 647 C27 644 27 642 27 642 C27 601 43 562 72 528 C101 494 136 478 178 478 C262 478 326 551 328 647 L295 647 C278 593 239 566 181 566 C120 566 78 595 62 647 L28 647 Z " />
<glyph glyph-name="Iogonek" unicode="&#x12e;" horiz-adv-x="448" d="M418 0 L418 55 L406 55 C336 55 309 78 310 136 L310 531 C310 590 336 613 406 612 L418 612 L418 667 L30 667 L30 612 L40 612 C110 613 136 591 136 531 L136 136 C137 79 109 55 40 55 L30 55 L30 0 L269 0 C206 -32 172 -74 172 -119 C172 -177 229 -218 310 -218 C355 -218 390 -207 437 -180 L420 -149 C394 -157 381 -160 360 -160 C310 -160 274 -133 274 -94 C274 -60 293 -32 338 0 L418 0 Z " />
<glyph glyph-name="iogonek" unicode="&#x12f;" horiz-adv-x="359" d="M262 0 L349 0 L349 52 L344 52 C287 54 268 70 267 118 L267 419 L261 419 C231 413 231 413 134 398 C48 385 44 384 18 382 L18 330 L31 330 C87 327 101 314 101 264 L101 118 C100 67 86 54 31 52 L18 52 L18 0 L192 0 C145 -29 119 -66 119 -106 C119 -158 173 -196 246 -196 C287 -196 320 -186 364 -160 L347 -131 C323 -139 310 -141 293 -141 C247 -141 216 -117 216 -82 C216 -54 231 -25 257 -4 L259 -2 L262 0 Z M190 679 C142 679 102 639 102 591 C102 541 141 501 190 501 C239 501 278 541 278 590 C278 639 239 679 190 679 L190 679 Z " />
<glyph glyph-name="Idotaccent" unicode="&#x130;" horiz-adv-x="448" d="M30 612 L40 612 C110 613 136 591 136 531 L136 136 C137 79 109 55 40 55 L30 55 L30 0 L418 0 L418 55 L406 55 C336 55 309 78 310 136 L310 531 C310 590 336 613 406 612 L418 612 L418 667 L30 667 L30 612 Z M224 880 C181 880 147 846 147 803 C147 761 182 726 223 726 C267 726 301 760 301 803 C301 846 267 880 224 880 L224 880 Z " />
<glyph glyph-name="dotlessi" unicode="&#x131;" horiz-adv-x="359" d="M267 419 L261 419 C231 413 231 413 134 398 C48 385 44 384 18 382 L18 330 L31 330 C87 327 101 314 101 264 L101 118 C100 67 86 54 31 52 L18 52 L18 0 L349 0 L349 52 L344 52 C287 54 268 70 267 118 L267 419 Z " />
<glyph glyph-name="Kcommaaccent" unicode="&#x136;" horiz-adv-x="878" d="M312 345 L312 531 C312 591 338 613 408 612 L421 612 L421 667 L30 667 L30 612 L42 612 C112 613 138 590 138 531 L138 136 C139 79 112 55 42 55 L30 55 L30 0 L411 0 L411 55 L408 55 C339 54 311 78 312 136 L312 264 L394 327 L535 142 C538 137 542 130 549 121 C564 103 569 93 569 84 C569 64 544 55 493 55 L487 55 L487 0 L908 0 L908 55 L903 55 C838 54 789 87 735 167 L533 440 L600 496 C701 581 753 608 823 612 L831 612 L831 667 L506 667 L506 612 L514 612 C552 612 572 602 572 582 C572 563 554 538 520 511 L312 345 Z M344 -339 C455 -336 522 -275 522 -177 C522 -105 481 -59 418 -59 C367 -59 332 -92 332 -140 C332 -180 362 -212 400 -212 C405 -212 413 -211 420 -209 C425 -208 428 -207 429 -207 L436 -206 L437 -205 L438 -205 C445 -205 452 -214 452 -223 C452 -259 407 -287 344 -290 L344 -339 Z " />
<glyph glyph-name="kcommaaccent" unicode="&#x137;" horiz-adv-x="659" d="M378 403 L378 351 L382 351 C408 351 420 346 420 335 C420 331 418 327 416 325 C415 324 414 323 414 322 L416 323 C406 315 403 313 368 292 L304 253 L257 225 L257 679 L251 679 C238 676 207 671 153 663 C114 657 104 655 19 640 L19 588 L27 588 C86 585 98 574 98 523 L98 118 C97 69 80 54 21 52 L17 52 L17 0 L323 0 L323 52 L318 52 C274 55 258 73 257 118 L257 160 L309 190 L393 100 C410 76 410 76 410 71 C410 59 400 52 381 52 L378 52 L378 0 L654 0 L654 52 L648 53 C619 56 614 60 545 137 L430 266 L466 292 C533 339 560 351 602 351 L605 351 L605 403 L378 403 Z M261 -306 C358 -305 424 -249 424 -167 C424 -101 386 -59 326 -59 C279 -59 246 -86 246 -124 C246 -157 274 -183 310 -183 C316 -183 322 -182 330 -180 C336 -179 342 -178 346 -178 C355 -178 362 -186 362 -197 C362 -218 343 -242 317 -252 C301 -259 286 -262 261 -264 L261 -306 Z " />
<glyph glyph-name="Lacute" unicode="&#x139;" horiz-adv-x="716" d="M702 222 L643 222 C614 110 553 60 443 60 L428 60 C332 61 309 79 312 150 L312 531 C312 591 338 613 408 612 L423 612 L423 667 L30 667 L30 612 L42 612 C112 613 138 591 138 531 L138 136 C139 78 112 55 42 55 L30 55 L30 0 L698 0 L702 222 Z M216 732 L255 732 L514 880 L514 892 L315 892 L216 732 Z " />
<glyph glyph-name="lacute" unicode="&#x13a;" horiz-adv-x="358" d="M257 679 L251 679 C233 676 160 663 32 642 L20 640 L20 588 L28 588 C86 585 98 574 98 522 L98 118 C97 68 81 54 23 52 L18 52 L18 0 L341 0 L341 52 L335 52 C279 52 256 71 257 118 L257 679 Z M134 732 L174 732 L433 880 L433 892 L233 892 L134 732 Z " />
<glyph glyph-name="Lcommaaccent" unicode="&#x13b;" horiz-adv-x="716" d="M702 222 L643 222 C614 110 553 60 443 60 L428 60 C332 61 309 79 312 150 L312 531 C312 591 338 613 408 612 L423 612 L423 667 L30 667 L30 612 L42 612 C112 613 138 591 138 531 L138 136 C139 78 112 55 42 55 L30 55 L30 0 L698 0 L702 222 Z M283 -339 C394 -336 461 -275 461 -177 C461 -105 420 -59 357 -59 C306 -59 271 -92 271 -140 C271 -180 301 -212 339 -212 C344 -212 352 -211 359 -209 C364 -208 367 -207 368 -207 L375 -206 L376 -205 L377 -205 C384 -205 391 -214 391 -223 C391 -259 346 -287 283 -290 L283 -339 Z " />
<glyph glyph-name="lcommaaccent" unicode="&#x13c;" horiz-adv-x="358" d="M257 679 L251 679 C233 676 160 663 32 642 L20 640 L20 588 L28 588 C86 585 98 574 98 522 L98 118 C97 68 81 54 23 52 L18 52 L18 0 L341 0 L341 52 L335 52 C279 52 256 71 257 118 L257 679 Z M105 -306 C202 -305 268 -249 268 -167 C268 -101 230 -59 170 -59 C123 -59 90 -86 90 -124 C90 -157 118 -183 154 -183 C160 -183 166 -182 174 -180 C180 -179 186 -178 190 -178 C199 -178 206 -186 206 -197 C206 -218 187 -242 161 -252 C145 -259 130 -262 105 -264 L105 -306 Z " />
<glyph glyph-name="Lcaron" unicode="&#x13d;" horiz-adv-x="716" d="M702 222 L643 222 C614 110 553 60 443 60 L428 60 C332 61 309 79 312 150 L312 531 C312 591 338 613 408 612 L423 612 L423 667 L30 667 L30 612 L42 612 C112 613 138 591 138 531 L138 136 C139 78 112 55 42 55 L30 55 L30 0 L698 0 L702 222 Z M471 388 C582 390 649 451 649 549 C649 621 608 667 545 667 C494 667 459 635 459 587 C459 547 489 515 527 515 C533 515 540 516 547 518 C552 519 555 520 556 520 L563 521 L565 521 C572 521 579 512 579 503 C579 467 534 439 471 436 L471 388 Z " />
<glyph glyph-name="lcaron" unicode="&#x13e;" horiz-adv-x="484" d="M257 679 L251 679 C233 676 160 663 32 642 L20 640 L20 588 L28 588 C86 585 98 574 98 522 L98 118 C97 68 81 54 23 52 L18 52 L18 0 L341 0 L341 52 L335 52 C279 52 256 71 257 118 L257 679 Z M313 432 C410 433 476 489 476 571 C476 637 438 679 378 679 C331 679 298 652 298 614 C298 581 326 555 362 555 C368 555 374 556 382 558 C388 559 394 560 398 560 C407 560 414 552 414 541 C414 520 394 496 369 486 C353 479 338 476 313 474 L313 432 Z " />
<glyph glyph-name="Ldot" unicode="&#x13f;" horiz-adv-x="716" d="M702 222 L643 222 C614 110 553 60 443 60 L428 60 C332 61 309 79 312 150 L312 531 C312 591 338 613 408 612 L423 612 L423 667 L30 667 L30 612 L42 612 C112 613 138 591 138 531 L138 136 C139 78 112 55 42 55 L30 55 L30 0 L698 0 L702 222 Z M461 394 C422 394 391 363 391 325 C391 287 422 255 459 255 C499 255 530 286 530 324 C530 363 499 394 461 394 L461 394 Z " />
<glyph glyph-name="ldot" unicode="&#x140;" horiz-adv-x="428" d="M257 679 L251 679 C233 676 160 663 32 642 L20 640 L20 588 L28 588 C86 585 98 574 98 522 L98 118 C97 68 81 54 23 52 L18 52 L18 0 L341 0 L341 52 L335 52 C279 52 256 71 257 118 L257 679 Z M365 402 C326 402 295 371 295 333 C295 295 326 263 363 263 C403 263 434 294 434 332 C434 371 403 402 365 402 L365 402 Z " />
<glyph glyph-name="Lslash" unicode="&#x141;" horiz-adv-x="716" d="M30 55 L30 0 L698 0 L702 222 L643 222 C617 112 552 59 443 60 L428 60 C332 61 309 79 312 150 L312 336 L454 410 L454 476 L312 402 L312 531 C312 591 338 613 408 612 L423 612 L423 667 L30 667 L30 612 L41 612 C111 613 138 591 138 531 L138 311 L36 258 L36 192 L138 245 L138 136 C139 79 111 55 41 55 L30 55 Z " />
<glyph glyph-name="lslash" unicode="&#x142;" horiz-adv-x="358" d="M256 395 L256 679 L250 679 C209 671 176 665 97 653 C68 649 40 644 32 642 C29 642 26 641 19 640 L19 588 L27 588 C85 585 96 574 97 522 L97 300 L18 252 L18 191 L97 240 L97 118 C96 69 80 54 21 52 L17 52 L17 0 L340 0 L340 52 L334 52 C278 52 256 71 256 118 L256 334 L349 392 L349 454 L256 395 Z " />
<glyph glyph-name="Nacute" unicode="&#x143;" horiz-adv-x="863" d="M690 -11 L753 -11 L753 501 C750 570 772 601 832 612 L840 612 L840 667 L595 667 L595 612 L601 612 C662 610 693 571 690 503 L690 259 L278 667 L28 667 L28 612 L33 612 C100 612 136 578 138 511 L138 170 C138 123 136 111 129 100 C113 74 73 54 37 55 L32 55 L32 0 L311 0 L311 55 L295 55 C272 54 247 64 228 80 C204 103 201 112 201 171 L201 477 L690 -11 Z M410 732 L449 732 L709 880 L709 892 L509 892 L410 732 Z " />
<glyph glyph-name="nacute" unicode="&#x144;" horiz-adv-x="670" d="M249 408 C226 403 211 401 166 394 C75 381 55 378 21 372 L21 320 L25 320 C77 319 100 301 102 260 L102 118 C101 68 85 54 26 52 L23 52 L23 0 L324 0 L324 52 L319 52 C278 55 262 73 261 118 L261 273 C307 319 333 335 367 335 C402 335 424 314 424 281 L424 274 L424 118 C423 73 409 57 368 53 L361 52 L361 0 L662 0 L662 52 L657 52 C604 54 586 70 585 118 L585 258 C585 306 580 330 567 353 C544 393 489 419 428 419 C366 419 307 394 264 350 C263 378 260 396 254 408 L249 408 Z M296 486 L338 486 L539 632 L539 643 L361 643 L296 486 Z " />
<glyph glyph-name="Ncommaaccent" unicode="&#x145;" horiz-adv-x="863" d="M690 -11 L753 -11 L753 501 C750 570 772 601 832 612 L840 612 L840 667 L595 667 L595 612 L601 612 C662 610 693 571 690 503 L690 259 L278 667 L28 667 L28 612 L33 612 C100 612 136 578 138 511 L138 170 C138 123 136 111 129 100 C113 74 73 54 37 55 L32 55 L32 0 L311 0 L311 55 L295 55 C272 54 247 64 228 80 C204 103 201 112 201 171 L201 477 L690 -11 Z M351 -339 C462 -336 529 -275 529 -177 C529 -105 488 -59 425 -59 C374 -59 339 -92 339 -140 C339 -180 369 -212 407 -212 C412 -212 420 -211 427 -209 C432 -208 435 -207 436 -207 L443 -206 L444 -205 L445 -205 C452 -205 459 -214 459 -223 C459 -259 414 -287 351 -290 L351 -339 Z " />
<glyph glyph-name="ncommaaccent" unicode="&#x146;" horiz-adv-x="670" d="M249 408 C226 403 211 401 166 394 C75 381 55 378 21 372 L21 320 L25 320 C77 319 100 301 102 260 L102 118 C101 68 85 54 26 52 L23 52 L23 0 L324 0 L324 52 L319 52 C278 55 262 73 261 118 L261 273 C307 319 333 335 367 335 C402 335 424 314 424 281 L424 274 L424 118 C423 73 409 57 368 53 L361 52 L361 0 L662 0 L662 52 L657 52 C604 54 586 70 585 118 L585 258 C585 306 580 330 567 353 C544 393 489 419 428 419 C366 419 307 394 264 350 C263 378 260 396 254 408 L249 408 Z M267 -306 C364 -305 430 -249 430 -167 C430 -101 392 -59 332 -59 C285 -59 252 -86 252 -124 C252 -157 280 -183 316 -183 C322 -183 328 -182 336 -180 C342 -179 348 -178 352 -178 C361 -178 368 -186 368 -197 C368 -218 349 -242 323 -252 C307 -259 292 -262 267 -264 L267 -306 Z " />
<glyph glyph-name="Ncaron" unicode="&#x147;" horiz-adv-x="863" d="M690 -11 L753 -11 L753 501 C750 570 772 601 832 612 L840 612 L840 667 L595 667 L595 612 L601 612 C662 610 693 571 690 503 L690 259 L278 667 L28 667 L28 612 L33 612 C100 612 136 578 138 511 L138 170 C138 123 136 111 129 100 C113 74 73 54 37 55 L32 55 L32 0 L311 0 L311 55 L295 55 C272 54 247 64 228 80 C204 103 201 112 201 171 L201 477 L690 -11 Z M551 728 L655 887 L616 887 L460 795 L297 887 L258 887 L359 728 L551 728 Z " />
<glyph glyph-name="ncaron" unicode="&#x148;" horiz-adv-x="670" d="M249 408 C226 403 211 401 166 394 C75 381 55 378 21 372 L21 320 L25 320 C77 319 100 301 102 260 L102 118 C101 68 85 54 26 52 L23 52 L23 0 L324 0 L324 52 L319 52 C278 55 262 73 261 118 L261 273 C307 319 333 335 367 335 C402 335 424 314 424 281 L424 274 L424 118 C423 73 409 57 368 53 L361 52 L361 0 L662 0 L662 52 L657 52 C604 54 586 70 585 118 L585 258 C585 306 580 330 567 353 C544 393 489 419 428 419 C366 419 307 394 264 350 C263 378 260 396 254 408 L249 408 Z M231 654 L191 654 L281 491 L413 491 L496 654 L453 654 L346 570 L231 654 Z " />
<glyph glyph-name="Omacron" unicode="&#x14c;" horiz-adv-x="912" d="M464 679 C338 679 237 646 160 581 C90 521 45 423 45 328 C45 249 75 173 130 110 C200 31 318 -14 455 -14 C575 -14 678 19 751 82 C824 146 866 236 866 331 C866 450 800 561 692 623 C628 660 550 679 464 679 L464 679 Z M457 615 C532 615 591 585 622 531 C646 489 661 409 661 325 C661 239 650 178 626 134 C597 82 534 50 459 50 C391 50 342 71 303 116 C267 158 250 231 250 344 C250 529 316 615 457 615 L457 615 Z M261 818 L261 756 L650 756 L650 818 L261 818 Z " />
<glyph glyph-name="omacron" unicode="&#x14d;" horiz-adv-x="622" d="M40 199 C40 142 63 88 102 54 C152 10 230 -16 310 -16 C388 -16 466 11 515 53 C558 92 581 144 581 204 C581 256 564 301 531 336 C483 387 397 419 308 419 C152 419 40 329 40 203 L40 199 Z M310 364 C348 364 381 349 396 324 C408 303 413 270 413 207 C413 81 388 38 313 38 C273 38 243 54 227 83 C212 110 208 142 208 222 C208 274 219 321 234 337 C252 354 279 364 310 364 L310 364 Z M137 591 L137 529 L484 529 L484 591 L137 591 Z " />
<glyph glyph-name="Ohungarumlaut" unicode="&#x150;" horiz-adv-x="912" d="M464 679 C338 679 237 646 160 581 C90 521 45 423 45 328 C45 249 75 173 130 110 C200 31 318 -14 455 -14 C575 -14 678 19 751 82 C824 146 866 236 866 331 C866 450 800 561 692 623 C628 660 550 679 464 679 L464 679 Z M457 615 C532 615 591 585 622 531 C646 489 661 409 661 325 C661 239 650 178 626 134 C597 82 534 50 459 50 C391 50 342 71 303 116 C267 158 250 231 250 344 C250 529 316 615 457 615 L457 615 Z M316 732 L356 732 L577 880 L577 892 L415 892 L316 732 Z M555 732 L594 732 L816 880 L816 892 L654 892 L555 732 Z " />
<glyph glyph-name="ohungarumlaut" unicode="&#x151;" horiz-adv-x="622" d="M40 199 C40 142 63 88 102 54 C152 10 230 -16 310 -16 C388 -16 466 11 515 53 C558 92 581 144 581 204 C581 256 564 301 531 336 C483 387 397 419 308 419 C152 419 40 329 40 203 L40 199 Z M310 364 C348 364 381 349 396 324 C408 303 413 270 413 207 C413 81 388 38 313 38 C273 38 243 54 227 83 C212 110 208 142 208 222 C208 274 219 321 234 337 C252 354 279 364 310 364 L310 364 Z M189 486 L232 486 L396 632 L396 643 L255 643 L189 486 Z M389 486 L432 486 L595 632 L595 643 L455 643 L389 486 Z " />
<glyph glyph-name="OE" unicode="&#x152;" horiz-adv-x="1099" d="M1069 219 L1009 219 C976 110 919 62 818 61 L803 61 C736 59 703 82 705 129 L705 318 L772 318 C826 317 842 302 847 245 L848 235 L912 235 L912 461 L848 461 L847 451 C841 395 826 379 774 378 L705 378 L705 608 L813 608 C901 612 931 589 968 492 L1030 492 L1019 667 L535 667 L488 667 C474 668 474 668 465 668 C352 668 273 652 212 617 C111 559 48 448 48 330 C48 231 93 137 169 77 C233 26 326 0 441 0 L471 0 C489 1 540 1 580 1 L1064 0 L1069 219 Z M531 142 C531 112 529 99 522 88 C512 72 484 61 449 61 C400 61 354 78 318 109 C271 151 244 231 244 328 C244 504 319 607 447 607 C510 607 531 587 531 527 L531 142 Z " />
<glyph glyph-name="oe" unicode="&#x153;" horiz-adv-x="889" d="M786 104 C753 66 712 45 669 45 C598 45 556 99 556 190 C556 195 556 200 557 206 L851 206 C851 253 843 287 824 318 C787 380 708 419 621 419 C563 419 515 403 471 369 C422 402 364 419 300 419 C151 419 40 325 40 198 C40 146 58 101 91 65 C139 15 221 -16 304 -16 C370 -16 424 1 472 37 C512 3 567 -16 627 -16 C709 -16 795 21 836 75 L786 104 Z M558 255 C560 332 580 364 624 364 C667 364 686 333 690 255 L558 255 Z M302 363 C336 363 368 347 380 323 C392 301 396 272 396 205 C396 135 391 100 377 75 C362 50 337 37 303 37 C264 37 237 55 222 89 C213 111 208 155 208 216 C208 269 213 300 225 324 C238 348 267 363 302 363 L302 363 Z " />
<glyph glyph-name="Racute" unicode="&#x154;" horiz-adv-x="812" d="M844 0 L844 55 L837 55 C792 57 760 86 691 185 C636 266 603 304 568 326 C664 355 717 412 717 488 C717 560 672 617 591 647 C552 661 436 669 264 669 C251 669 241 669 231 668 L215 668 L30 667 L30 612 L46 612 C115 613 141 591 141 531 L141 136 C142 78 115 55 46 55 L30 55 L30 0 L425 0 L425 55 L411 55 C342 55 314 79 315 136 L315 294 L326 294 C402 297 427 282 475 205 C557 73 585 32 615 0 L844 0 Z M315 354 L315 606 C327 607 334 607 345 607 C417 607 455 601 483 586 C517 567 535 531 535 483 C535 433 516 393 484 375 C458 360 422 354 354 354 L315 354 Z M324 732 L364 732 L623 880 L623 892 L424 892 L324 732 Z " />
<glyph glyph-name="racute" unicode="&#x155;" horiz-adv-x="522" d="M226 416 L163 404 L88 389 L30 378 L21 376 L21 324 L25 324 C82 322 101 306 102 258 L102 118 C101 69 84 54 27 52 L22 52 L22 0 L351 0 L351 52 L339 52 C281 54 262 70 261 118 L261 162 C261 268 285 318 335 318 C351 318 364 312 378 298 C407 269 416 265 442 265 C486 265 516 294 516 335 C516 384 476 419 421 419 C354 419 295 383 255 318 C253 360 248 393 239 419 L226 416 Z M225 486 L267 486 L469 632 L469 643 L290 643 L225 486 Z " />
<glyph glyph-name="Rcommaaccent" unicode="&#x156;" horiz-adv-x="812" d="M844 0 L844 55 L837 55 C792 57 760 86 691 185 C636 266 603 304 568 326 C664 355 717 412 717 488 C717 560 672 617 591 647 C552 661 436 669 264 669 C251 669 241 669 231 668 L215 668 L30 667 L30 612 L46 612 C115 613 141 591 141 531 L141 136 C142 78 115 55 46 55 L30 55 L30 0 L425 0 L425 55 L411 55 C342 55 314 79 315 136 L315 294 L326 294 C402 297 427 282 475 205 C557 73 585 32 615 0 L844 0 Z M315 354 L315 606 C327 607 334 607 345 607 C417 607 455 601 483 586 C517 567 535 531 535 483 C535 433 516 393 484 375 C458 360 422 354 354 354 L315 354 Z M337 -339 C448 -336 515 -275 515 -177 C515 -105 474 -59 411 -59 C360 -59 325 -92 325 -140 C325 -180 355 -212 393 -212 C398 -212 406 -211 413 -209 C418 -208 421 -207 422 -207 L429 -206 L430 -205 L431 -205 C438 -205 445 -214 445 -223 C445 -259 400 -287 337 -290 L337 -339 Z " />
<glyph glyph-name="rcommaaccent" unicode="&#x157;" horiz-adv-x="522" d="M226 416 L163 404 L88 389 L30 378 L21 376 L21 324 L25 324 C82 322 101 306 102 258 L102 118 C101 69 84 54 27 52 L22 52 L22 0 L351 0 L351 52 L339 52 C281 54 262 70 261 118 L261 162 C261 268 285 318 335 318 C351 318 364 312 378 298 C407 269 416 265 442 265 C486 265 516 294 516 335 C516 384 476 419 421 419 C354 419 295 383 255 318 C253 360 248 393 239 419 L226 416 Z M116 -306 C213 -305 279 -249 279 -167 C279 -101 241 -59 181 -59 C134 -59 101 -86 101 -124 C101 -157 129 -183 165 -183 C171 -183 177 -182 185 -180 C191 -179 197 -178 201 -178 C210 -178 217 -186 217 -197 C217 -218 198 -242 172 -252 C156 -259 141 -262 116 -264 L116 -306 Z " />
<glyph glyph-name="Rcaron" unicode="&#x158;" horiz-adv-x="812" d="M844 0 L844 55 L837 55 C792 57 760 86 691 185 C636 266 603 304 568 326 C664 355 717 412 717 488 C717 560 672 617 591 647 C552 661 436 669 264 669 C251 669 241 669 231 668 L215 668 L30 667 L30 612 L46 612 C115 613 141 591 141 531 L141 136 C142 78 115 55 46 55 L30 55 L30 0 L425 0 L425 55 L411 55 C342 55 314 79 315 136 L315 294 L326 294 C402 297 427 282 475 205 C557 73 585 32 615 0 L844 0 Z M315 354 L315 606 C327 607 334 607 345 607 C417 607 455 601 483 586 C517 567 535 531 535 483 C535 433 516 393 484 375 C458 360 422 354 354 354 L315 354 Z M491 728 L594 887 L556 887 L400 795 L237 887 L198 887 L298 728 L491 728 Z " />
<glyph glyph-name="rcaron" unicode="&#x159;" horiz-adv-x="522" d="M226 416 L163 404 L88 389 L30 378 L21 376 L21 324 L25 324 C82 322 101 306 102 258 L102 118 C101 69 84 54 27 52 L22 52 L22 0 L351 0 L351 52 L339 52 C281 54 262 70 261 118 L261 162 C261 268 285 318 335 318 C351 318 364 312 378 298 C407 269 416 265 442 265 C486 265 516 294 516 335 C516 384 476 419 421 419 C354 419 295 383 255 318 C253 360 248 393 239 419 L226 416 Z M148 654 L108 654 L197 491 L330 491 L413 654 L369 654 L262 570 L148 654 Z " />
<glyph glyph-name="Sacute" unicode="&#x15a;" horiz-adv-x="623" d="M61 11 L126 11 C130 33 135 49 144 65 C190 16 265 -14 342 -14 C480 -14 586 76 586 191 C586 242 565 289 528 325 C490 361 438 389 332 429 C228 468 194 496 194 544 C194 589 234 620 291 620 C371 620 439 561 465 470 L525 470 L525 667 L463 667 C462 665 462 663 462 663 L460 656 C457 642 452 631 445 622 C405 658 346 679 285 679 C160 679 61 591 61 480 C61 396 113 335 227 284 C339 234 353 228 385 210 C420 190 440 163 440 132 C440 84 394 49 331 49 C267 49 211 80 171 137 C153 162 141 189 126 239 L61 239 L61 11 Z M257 732 L297 732 L556 880 L556 892 L357 892 L257 732 Z " />
<glyph glyph-name="sacute" unicode="&#x15b;" horiz-adv-x="504" d="M47 -12 L95 -12 C101 0 108 8 118 15 C124 13 125 13 133 10 C183 -9 221 -16 265 -16 C386 -16 464 41 464 130 C464 170 447 203 413 230 C384 253 327 271 240 284 C184 292 151 310 151 333 C151 357 184 373 231 373 C308 373 364 343 385 292 L433 292 L433 415 L388 415 C381 404 374 396 367 391 C311 411 267 419 220 419 C121 419 44 360 44 284 C44 217 100 172 213 147 C314 125 314 125 335 110 C344 104 350 93 350 83 C350 56 308 35 254 35 C179 35 123 67 100 123 L47 123 L47 -12 Z M204 486 L247 486 L448 632 L448 643 L270 643 L204 486 Z " />
<glyph glyph-name="Scircumflex" unicode="&#x15c;" horiz-adv-x="623" d="M61 11 L126 11 C130 33 135 49 144 65 C190 16 265 -14 342 -14 C480 -14 586 76 586 191 C586 242 565 289 528 325 C490 361 438 389 332 429 C228 468 194 496 194 544 C194 589 234 620 291 620 C371 620 439 561 465 470 L525 470 L525 667 L463 667 C462 665 462 663 462 663 L460 656 C457 642 452 631 445 622 C405 658 346 679 285 679 C160 679 61 591 61 480 C61 396 113 335 227 284 C339 234 353 228 385 210 C420 190 440 163 440 132 C440 84 394 49 331 49 C267 49 211 80 171 137 C153 162 141 189 126 239 L61 239 L61 11 Z M227 887 L126 728 L165 728 L320 821 L484 728 L522 728 L419 887 L227 887 Z " />
<glyph glyph-name="scircumflex" unicode="&#x15d;" horiz-adv-x="504" d="M47 -12 L95 -12 C101 0 108 8 118 15 C124 13 125 13 133 10 C183 -9 221 -16 265 -16 C386 -16 464 41 464 130 C464 170 447 203 413 230 C384 253 327 271 240 284 C184 292 151 310 151 333 C151 357 184 373 231 373 C308 373 364 343 385 292 L433 292 L433 415 L388 415 C381 404 374 396 367 391 C311 411 267 419 220 419 C121 419 44 360 44 284 C44 217 100 172 213 147 C314 125 314 125 335 110 C344 104 350 93 350 83 C350 56 308 35 254 35 C179 35 123 67 100 123 L47 123 L47 -12 Z M372 484 L415 484 L332 647 L199 647 L110 484 L150 484 L264 568 L372 484 Z " />
<glyph glyph-name="Scedilla" unicode="&#x15e;" horiz-adv-x="623" d="M356 -14 C486 -9 586 81 586 192 C586 242 565 290 528 325 C490 361 438 389 332 429 C228 468 194 496 194 544 C194 589 234 620 291 620 C371 620 439 561 465 470 L525 470 L525 667 L463 667 C462 665 462 663 462 663 L460 656 C457 642 452 631 445 622 C405 658 346 679 285 679 C160 679 61 591 61 480 C61 396 113 335 227 284 C339 234 353 228 385 210 C420 190 440 163 440 132 C440 84 394 49 331 49 C267 49 211 80 171 137 C153 162 141 189 126 239 L61 239 L61 11 L126 11 C130 33 135 49 144 65 C178 28 236 -1 296 -10 C290 -59 283 -91 274 -114 C316 -116 344 -132 344 -155 C344 -177 324 -188 287 -188 C257 -188 231 -185 196 -177 C193 -201 192 -205 187 -227 C214 -236 243 -240 277 -240 C386 -240 454 -201 454 -139 C454 -88 415 -55 349 -49 C353 -31 354 -28 356 -16 L356 -14 Z " />
<glyph glyph-name="scedilla" unicode="&#x15f;" horiz-adv-x="504" d="M433 292 L433 415 L388 415 C381 404 374 396 367 391 C311 411 267 419 220 419 C121 419 44 360 44 284 C44 217 100 171 213 146 C314 124 314 124 335 110 C344 104 350 93 350 82 C350 55 308 34 254 34 C179 34 123 66 100 123 L47 123 L47 -12 L95 -12 C101 0 108 8 118 15 C124 13 125 13 133 10 C170 -4 201 -11 229 -14 C225 -51 220 -75 212 -103 C244 -104 265 -119 265 -140 C265 -159 250 -169 223 -169 C200 -169 181 -166 154 -160 C152 -182 151 -185 148 -205 C167 -213 187 -216 212 -216 C296 -216 347 -182 347 -125 C347 -79 318 -49 269 -44 C271 -29 272 -24 273 -16 C391 -14 464 42 464 130 C464 170 447 202 413 230 C384 253 326 271 240 284 C184 292 151 310 151 333 C151 357 184 373 231 373 C308 373 364 343 385 292 L433 292 Z " />
<glyph glyph-name="Scaron" unicode="&#x160;" horiz-adv-x="623" d="M61 11 L126 11 C130 33 135 49 144 65 C190 16 265 -14 342 -14 C480 -14 586 76 586 191 C586 242 565 289 528 325 C490 361 438 389 332 429 C228 468 194 496 194 544 C194 589 234 620 291 620 C371 620 439 561 465 470 L525 470 L525 667 L463 667 C462 665 462 663 462 663 L460 656 C457 642 452 631 445 622 C405 658 346 679 285 679 C160 679 61 591 61 480 C61 396 113 335 227 284 C339 234 353 228 385 210 C420 190 440 163 440 132 C440 84 394 49 331 49 C267 49 211 80 171 137 C153 162 141 189 126 239 L61 239 L61 11 Z M405 728 L509 887 L470 887 L314 795 L151 887 L112 887 L213 728 L405 728 Z " />
<glyph glyph-name="scaron" unicode="&#x161;" horiz-adv-x="504" d="M47 -12 L95 -12 C101 0 108 8 118 15 C124 13 125 13 133 10 C183 -9 221 -16 265 -16 C386 -16 464 41 464 130 C464 170 447 203 413 230 C384 253 327 271 240 284 C184 292 151 310 151 333 C151 357 184 373 231 373 C308 373 364 343 385 292 L433 292 L433 415 L388 415 C381 404 374 396 367 391 C311 411 267 419 220 419 C121 419 44 360 44 284 C44 217 100 172 213 147 C314 125 314 125 335 110 C344 104 350 93 350 83 C350 56 308 35 254 35 C179 35 123 67 100 123 L47 123 L47 -12 Z M144 654 L104 654 L193 491 L326 491 L409 654 L366 654 L259 570 L144 654 Z " />
<glyph glyph-name="Tcommaaccent" unicode="&#x162;" horiz-adv-x="766" d="M76 477 C95 584 121 607 226 608 L293 608 L293 136 C294 77 266 54 197 55 L178 55 L178 0 L583 0 L583 55 L563 55 C494 54 466 77 467 136 L467 608 L535 608 C630 608 659 583 688 477 L749 477 L749 667 L15 667 L15 477 L76 477 Z M299 -339 C410 -336 477 -275 477 -177 C477 -105 436 -59 373 -59 C322 -59 287 -92 287 -140 C287 -180 317 -212 355 -212 C360 -212 368 -211 375 -209 C380 -208 383 -207 384 -207 L391 -206 L392 -205 L393 -205 C400 -205 407 -214 407 -223 C407 -259 362 -287 299 -290 L299 -339 Z " />
<glyph glyph-name="tcommaaccent" unicode="&#x163;" horiz-adv-x="395" d="M385 349 L385 403 L250 403 L250 536 L193 536 C180 457 111 402 27 402 C25 402 18 402 12 403 L12 349 L77 349 L77 115 C77 31 130 -16 226 -16 C312 -16 376 19 401 78 L348 94 C332 64 316 53 291 53 C272 53 261 60 255 79 C251 90 250 99 250 140 L250 349 L385 349 Z M134 -306 C231 -305 297 -249 297 -167 C297 -101 259 -59 199 -59 C152 -59 119 -86 119 -124 C119 -157 147 -183 183 -183 C189 -183 195 -182 203 -180 C209 -179 215 -178 219 -178 C228 -178 235 -186 235 -197 C235 -218 216 -242 190 -252 C174 -259 159 -262 134 -264 L134 -306 Z " />
<glyph glyph-name="Tcaron" unicode="&#x164;" horiz-adv-x="766" d="M76 477 C95 584 121 607 226 608 L293 608 L293 136 C294 77 266 54 197 55 L178 55 L178 0 L583 0 L583 55 L563 55 C494 54 466 77 467 136 L467 608 L535 608 C630 608 659 583 688 477 L749 477 L749 667 L15 667 L15 477 L76 477 Z M474 728 L577 887 L539 887 L383 795 L220 887 L181 887 L281 728 L474 728 Z " />
<glyph glyph-name="tcaron" unicode="&#x165;" horiz-adv-x="474" d="M385 349 L385 403 L250 403 L250 536 L193 536 C180 457 111 402 27 402 C25 402 18 402 12 403 L12 349 L77 349 L77 115 C77 31 130 -16 226 -16 C312 -16 376 19 401 78 L348 94 C332 64 316 53 291 53 C272 53 261 60 255 79 C251 90 250 99 250 140 L250 349 L385 349 Z M304 468 C401 469 467 525 467 607 C467 672 429 714 369 714 C322 714 289 687 289 649 C289 617 317 591 353 591 C360 591 365 592 373 593 C379 594 385 595 389 595 C398 595 405 587 405 576 C405 556 385 531 360 521 C344 514 329 511 304 509 L304 468 Z " />
<glyph glyph-name="utilde" unicode="&#x169;" horiz-adv-x="655" d="M562 403 L337 403 L337 351 L341 351 C389 349 402 336 403 285 L403 131 C368 87 338 68 300 68 C262 68 245 91 245 140 L245 403 L11 403 L11 351 L14 351 C67 349 85 333 86 285 L86 131 C86 90 90 71 102 50 C126 10 180 -16 240 -16 C302 -16 358 8 403 55 L403 49 L403 31 L404 9 L403 -10 L403 -16 L409 -16 C443 -8 571 1 644 0 L644 52 L640 52 C582 54 563 70 562 118 L562 403 Z M215 493 C223 519 234 529 255 529 C271 529 298 522 327 511 C357 499 378 494 396 494 C455 494 491 545 491 625 L491 633 L452 633 C450 605 435 589 411 589 C394 589 384 592 343 607 C315 617 289 623 271 623 C242 623 208 604 196 580 C184 558 179 533 179 493 L215 493 Z " />
<glyph glyph-name="Umacron" unicode="&#x16a;" horiz-adv-x="853" d="M582 667 L582 612 L588 612 C651 612 686 575 684 510 L684 286 C684 206 680 176 664 148 C631 90 565 55 489 55 C419 55 362 84 333 135 C316 164 310 200 310 268 L310 531 C310 592 333 613 400 612 L412 612 L412 667 L19 667 L19 612 L27 612 C94 613 117 592 117 531 L117 268 C117 217 118 206 123 182 C134 135 158 95 195 62 C252 12 333 -14 432 -14 C525 -14 617 14 669 59 C720 103 747 178 747 274 L747 507 C745 574 766 600 829 612 L834 612 L834 667 L582 667 Z M250 818 L250 756 L640 756 L640 818 L250 818 Z " />
<glyph glyph-name="umacron" unicode="&#x16b;" horiz-adv-x="655" d="M562 403 L337 403 L337 351 L341 351 C389 349 402 336 403 285 L403 131 C368 87 338 68 300 68 C262 68 245 91 245 140 L245 403 L11 403 L11 351 L14 351 C67 349 85 333 86 285 L86 131 C86 90 90 71 102 50 C126 10 180 -16 240 -16 C302 -16 358 8 403 55 L403 49 L403 31 L404 9 L403 -10 L403 -16 L409 -16 C443 -8 571 1 644 0 L644 52 L640 52 C582 54 563 70 562 118 L562 403 Z M143 591 L143 529 L491 529 L491 591 L143 591 Z " />
<glyph glyph-name="ubreve" unicode="&#x16d;" horiz-adv-x="655" d="M562 403 L337 403 L337 351 L341 351 C389 349 402 336 403 285 L403 131 C368 87 338 68 300 68 C262 68 245 91 245 140 L245 403 L11 403 L11 351 L14 351 C67 349 85 333 86 285 L86 131 C86 90 90 71 102 50 C126 10 180 -16 240 -16 C302 -16 358 8 403 55 L403 49 L403 31 L404 9 L403 -10 L403 -16 L409 -16 C443 -8 571 1 644 0 L644 52 L640 52 C582 54 563 70 562 118 L562 403 Z M180 647 L180 642 C180 603 197 560 225 528 C254 494 289 478 331 478 C414 478 479 551 481 647 L447 647 C430 593 392 566 334 566 C273 566 231 595 214 647 L180 647 Z " />
<glyph glyph-name="Uring" unicode="&#x16e;" horiz-adv-x="853" d="M582 667 L582 612 L588 612 C651 612 686 575 684 510 L684 286 C684 206 680 176 664 148 C631 90 565 55 489 55 C419 55 362 84 333 135 C316 164 310 200 310 268 L310 531 C310 592 333 613 400 612 L412 612 L412 667 L19 667 L19 612 L27 612 C94 613 117 592 117 531 L117 268 C117 217 118 206 123 182 C134 135 158 95 195 62 C252 12 333 -14 432 -14 C525 -14 617 14 669 59 C720 103 747 178 747 274 L747 507 C745 574 766 600 829 612 L834 612 L834 667 L582 667 Z M466 911 C407 911 359 863 359 804 C359 746 407 697 464 697 C524 697 572 744 572 804 C572 863 524 911 466 911 L466 911 Z M466 864 C498 864 525 837 525 804 C525 771 498 744 465 744 C432 744 406 771 406 805 C406 837 433 864 466 864 L466 864 Z " />
<glyph glyph-name="uring" unicode="&#x16f;" horiz-adv-x="655" d="M562 403 L337 403 L337 351 L341 351 C389 349 402 336 403 285 L403 131 C368 87 338 68 300 68 C262 68 245 91 245 140 L245 403 L11 403 L11 351 L14 351 C67 349 85 333 86 285 L86 131 C86 90 90 71 102 50 C126 10 180 -16 240 -16 C302 -16 358 8 403 55 L403 49 L403 31 L404 9 L403 -10 L403 -16 L409 -16 C443 -8 571 1 644 0 L644 52 L640 52 C582 54 563 70 562 118 L562 403 Z M332 682 C273 682 225 634 225 575 C225 518 273 469 330 469 C390 469 438 516 438 576 C438 634 390 682 332 682 L332 682 Z M332 633 C363 633 389 607 389 576 C389 544 363 518 331 518 C299 518 274 544 274 576 C274 607 300 633 332 633 L332 633 Z " />
<glyph glyph-name="Uhungarumlaut" unicode="&#x170;" horiz-adv-x="853" d="M582 667 L582 612 L588 612 C651 612 686 575 684 510 L684 286 C684 206 680 176 664 148 C631 90 565 55 489 55 C419 55 362 84 333 135 C316 164 310 200 310 268 L310 531 C310 592 333 613 400 612 L412 612 L412 667 L19 667 L19 612 L27 612 C94 613 117 592 117 531 L117 268 C117 217 118 206 123 182 C134 135 158 95 195 62 C252 12 333 -14 432 -14 C525 -14 617 14 669 59 C720 103 747 178 747 274 L747 507 C745 574 766 600 829 612 L834 612 L834 667 L582 667 Z M304 732 L343 732 L565 880 L565 892 L403 892 L304 732 Z M542 732 L582 732 L804 880 L804 892 L642 892 L542 732 Z " />
<glyph glyph-name="uhungarumlaut" unicode="&#x171;" horiz-adv-x="655" d="M562 403 L337 403 L337 351 L341 351 C389 349 402 336 403 285 L403 131 C368 87 338 68 300 68 C262 68 245 91 245 140 L245 403 L11 403 L11 351 L14 351 C67 349 85 333 86 285 L86 131 C86 90 90 71 102 50 C126 10 180 -16 240 -16 C302 -16 358 8 403 55 L403 49 L403 31 L404 9 L403 -10 L403 -16 L409 -16 C443 -8 571 1 644 0 L644 52 L640 52 C582 54 563 70 562 118 L562 403 Z M185 486 L228 486 L392 632 L392 643 L251 643 L185 486 Z M385 486 L427 486 L591 632 L591 643 L450 643 L385 486 Z " />
<glyph glyph-name="Uogonek" unicode="&#x172;" horiz-adv-x="853" d="M681 -149 C655 -157 642 -160 621 -160 C571 -160 535 -133 535 -94 C535 -57 551 -36 619 18 C679 65 686 73 703 96 C730 141 747 209 747 274 L747 507 C745 574 766 600 829 612 L834 612 L834 667 L582 667 L582 612 L588 612 C651 612 686 575 684 510 L684 286 C684 206 680 176 664 148 C631 90 565 55 489 55 C419 55 362 84 333 135 C316 164 310 200 310 268 L310 531 C310 592 333 613 400 612 L412 612 L412 667 L19 667 L19 612 L27 612 C94 613 117 592 117 531 L117 268 C117 217 118 206 123 182 C134 135 158 95 195 62 C251 13 334 -14 428 -14 C459 -14 488 -11 519 -5 C463 -37 433 -77 433 -122 C433 -177 492 -218 571 -218 C616 -218 651 -207 698 -180 L681 -149 Z " />
<glyph glyph-name="uogonek" unicode="&#x173;" horiz-adv-x="655" d="M644 52 L640 52 C582 54 563 70 562 118 L562 403 L337 403 L337 351 L341 351 C389 349 402 336 403 285 L403 131 C368 87 338 68 300 68 C262 68 245 91 245 140 L245 403 L11 403 L11 351 L14 351 C67 349 85 333 86 285 L86 131 C86 90 90 71 102 50 C126 10 180 -16 240 -16 C302 -16 358 8 403 55 L403 49 L403 31 L404 9 L403 -10 L403 -16 L409 -16 C430 -12 443 -10 467 -8 C426 -38 406 -69 406 -104 C406 -158 458 -196 533 -196 C574 -196 607 -186 651 -160 L634 -131 C610 -139 598 -141 580 -141 C534 -141 503 -117 503 -82 C503 -54 518 -26 547 -2 C580 0 605 0 644 0 L644 52 Z " />
<glyph glyph-name="Wcircumflex" unicode="&#x174;" horiz-adv-x="1037" d="M789 -14 L937 466 C972 581 992 609 1040 613 L1051 613 L1051 667 L816 667 L816 613 L821 613 C861 613 888 591 888 558 C888 545 884 526 879 507 L797 236 L611 667 L527 667 L373 236 L270 534 C264 551 261 567 261 579 C261 601 279 613 315 613 L321 613 L321 667 L-13 667 L-13 613 L-3 613 L2 613 C41 613 58 593 84 515 L262 -14 L349 -14 L514 434 L705 -14 L789 -14 Z M457 887 L357 728 L396 728 L551 821 L715 728 L753 728 L650 887 L457 887 Z " />
<glyph glyph-name="Ycircumflex" unicode="&#x176;" horiz-adv-x="732" d="M431 353 L320 534 C304 559 299 572 299 583 C299 602 317 612 350 612 L355 612 L355 667 L-13 667 L-13 612 L-7 612 C36 610 59 594 95 539 L279 273 L279 136 C280 78 253 55 183 55 L170 55 L170 0 L563 0 L563 55 L552 55 C482 55 454 78 455 136 L455 284 L618 512 C672 590 694 608 741 612 L746 612 L746 667 L494 667 L494 612 L500 612 C542 612 565 597 565 570 C565 554 558 533 546 517 L431 353 Z M293 887 L192 728 L231 728 L386 821 L550 728 L588 728 L485 887 L293 887 Z " />
<glyph glyph-name="ycircumflex" unicode="&#x177;" horiz-adv-x="577" d="M-7 403 L-7 351 L1 350 C29 347 39 338 73 282 L267 -18 L255 -44 C230 -90 206 -104 128 -121 C77 -131 54 -151 54 -184 C54 -222 89 -251 135 -251 C165 -251 194 -240 217 -220 C236 -203 254 -177 284 -121 L474 230 C522 332 532 346 562 350 L571 351 L571 403 L408 403 L408 351 L417 351 C433 352 451 339 451 327 C451 318 444 300 433 278 L359 139 L258 295 C252 305 245 325 245 333 C245 344 255 350 275 351 L284 351 L284 403 L-7 403 Z M425 484 L468 484 L385 647 L252 647 L163 484 L203 484 L317 568 L425 484 Z " />
<glyph glyph-name="Ydieresis" unicode="&#x178;" horiz-adv-x="732" d="M431 353 L320 534 C304 559 299 572 299 583 C299 602 317 612 350 612 L355 612 L355 667 L-13 667 L-13 612 L-7 612 C36 610 59 594 95 539 L279 273 L279 136 C280 78 253 55 183 55 L170 55 L170 0 L563 0 L563 55 L552 55 C482 55 454 78 455 136 L455 284 L618 512 C672 590 694 608 741 612 L746 612 L746 667 L494 667 L494 612 L500 612 C542 612 565 597 565 570 C565 554 558 533 546 517 L431 353 Z M235 880 C192 880 158 846 158 803 C158 761 193 726 234 726 C278 726 312 760 312 803 C312 846 278 880 235 880 L235 880 Z M536 880 C494 880 459 846 459 804 C459 761 493 726 535 726 C579 726 613 760 613 803 C613 846 579 880 536 880 L536 880 Z " />
<glyph glyph-name="Zacute" unicode="&#x179;" horiz-adv-x="749" d="M37 0 L696 0 L709 198 L648 198 C606 86 563 57 440 59 L271 59 L686 622 L686 667 L69 667 L57 489 L115 489 C149 590 184 609 330 608 L449 608 L37 44 L37 0 Z M338 732 L378 732 L637 880 L637 892 L438 892 L338 732 Z " />
<glyph glyph-name="zacute" unicode="&#x17a;" horiz-adv-x="541" d="M32 0 L496 0 L510 138 L452 138 C420 72 399 53 354 53 L255 53 L502 357 L502 403 L59 403 L48 279 L107 279 C139 345 145 350 179 350 L281 350 L32 41 L32 0 Z M252 486 L295 486 L496 632 L496 643 L318 643 L252 486 Z " />
<glyph glyph-name="Zdotaccent" unicode="&#x17b;" horiz-adv-x="749" d="M37 0 L696 0 L709 198 L648 198 C606 86 563 57 440 59 L271 59 L686 622 L686 667 L69 667 L57 489 L115 489 C149 590 184 609 330 608 L449 608 L37 44 L37 0 Z M394 880 C351 880 317 846 317 803 C317 761 352 726 393 726 C437 726 471 760 471 803 C471 846 437 880 394 880 L394 880 Z " />
<glyph glyph-name="zdotaccent" unicode="&#x17c;" horiz-adv-x="541" d="M32 0 L496 0 L510 138 L452 138 C420 72 399 53 354 53 L255 53 L502 357 L502 403 L59 403 L48 279 L107 279 C139 345 145 350 179 350 L281 350 L32 41 L32 0 Z M294 637 C255 637 224 606 224 568 C224 530 255 498 292 498 C332 498 363 529 363 567 C363 606 332 637 294 637 L294 637 Z " />
<glyph glyph-name="Zcaron" unicode="&#x17d;" horiz-adv-x="749" d="M37 0 L696 0 L709 198 L648 198 C606 86 563 57 440 59 L271 59 L686 622 L686 667 L69 667 L57 489 L115 489 C149 590 184 609 330 608 L449 608 L37 44 L37 0 Z M484 728 L587 887 L549 887 L393 795 L230 887 L191 887 L291 728 L484 728 Z " />
<glyph glyph-name="zcaron" unicode="&#x17e;" horiz-adv-x="541" d="M32 0 L496 0 L510 138 L452 138 C420 72 399 53 354 53 L255 53 L502 357 L502 403 L59 403 L48 279 L107 279 C139 345 145 350 179 350 L281 350 L32 41 L32 0 Z M177 654 L137 654 L227 491 L359 491 L442 654 L399 654 L292 570 L177 654 Z " />
<glyph glyph-name="florin" unicode="&#x192;" horiz-adv-x="599" d="M420 445 C425 474 427 489 427 506 C427 515 426 529 424 548 C423 563 422 579 422 588 C422 632 445 660 479 660 C489 660 496 655 496 649 C496 646 493 641 486 633 C478 624 471 610 471 604 L471 603 C471 581 493 563 520 563 C552 563 577 588 577 620 C577 659 543 683 487 683 C412 683 369 649 328 557 C284 459 272 450 191 445 L177 385 L254 385 C252 375 251 374 249 362 C241 322 232 283 230 274 C190 98 182 63 179 21 L177 -93 C177 -108 177 -119 178 -125 L178 -137 C178 -161 153 -187 130 -187 C122 -187 112 -182 112 -178 C112 -177 113 -175 114 -174 C128 -157 128 -157 128 -151 C128 -127 108 -111 78 -111 C47 -111 22 -133 22 -160 C22 -192 58 -217 104 -217 C160 -217 217 -186 255 -136 C290 -90 322 -3 349 126 C351 132 352 137 352 140 L407 385 L490 385 L503 445 L420 445 Z " />
<glyph glyph-name="uni01CD" unicode="&#x1cd;" horiz-adv-x="720" d="M735 0 L735 55 L730 55 C679 59 660 78 620 162 L390 679 L327 679 L107 177 C76 101 36 59 -8 55 L-15 55 L-15 0 L227 0 L227 55 L219 55 C177 55 151 70 151 94 C151 106 158 128 168 153 L180 180 L406 180 L417 155 C437 113 444 94 444 84 C444 64 423 55 377 55 L371 55 L371 0 L735 0 Z M382 236 L203 236 L290 436 L382 236 Z M454 728 L557 887 L519 887 L363 795 L200 887 L161 887 L261 728 L454 728 Z " />
<glyph glyph-name="uni01CE" unicode="&#x1ce;" horiz-adv-x="621" d="M572 90 C567 72 556 62 541 62 C521 62 511 76 511 105 L511 291 C511 335 507 350 488 371 C459 404 403 419 311 419 C233 419 176 410 133 391 C83 369 57 342 57 311 C57 280 86 259 127 259 C170 259 193 276 200 312 C204 330 209 342 215 347 C226 356 252 363 277 363 C301 363 325 357 337 348 C346 340 351 325 351 303 L351 266 C109 192 41 152 41 82 C41 26 94 -10 177 -10 C243 -10 306 8 360 43 C382 8 424 -10 484 -10 C567 -10 616 26 619 90 L572 90 Z M351 96 C325 75 292 62 262 62 C225 62 192 85 192 112 C192 149 233 174 351 211 L351 96 Z M205 654 L165 654 L254 491 L387 491 L470 654 L427 654 L320 570 L205 654 Z " />
<glyph glyph-name="uni01D3" unicode="&#x1d3;" horiz-adv-x="853" d="M582 667 L582 612 L588 612 C651 612 686 575 684 510 L684 286 C684 206 680 176 664 148 C631 90 565 55 489 55 C419 55 362 84 333 135 C316 164 310 200 310 268 L310 531 C310 592 333 613 400 612 L412 612 L412 667 L19 667 L19 612 L27 612 C94 613 117 592 117 531 L117 268 C117 217 118 206 123 182 C134 135 158 95 195 62 C252 12 333 -14 432 -14 C525 -14 617 14 669 59 C720 103 747 178 747 274 L747 507 C745 574 766 600 829 612 L834 612 L834 667 L582 667 Z M544 728 L647 887 L609 887 L453 795 L289 887 L251 887 L351 728 L544 728 Z " />
<glyph glyph-name="uni01D4" unicode="&#x1d4;" horiz-adv-x="655" d="M562 403 L337 403 L337 351 L341 351 C389 349 402 336 403 285 L403 131 C368 87 338 68 300 68 C262 68 245 91 245 140 L245 403 L11 403 L11 351 L14 351 C67 349 85 333 86 285 L86 131 C86 90 90 71 102 50 C126 10 180 -16 240 -16 C302 -16 358 8 403 55 L403 49 L403 31 L404 9 L403 -10 L403 -16 L409 -16 C443 -8 571 1 644 0 L644 52 L640 52 C582 54 563 70 562 118 L562 403 Z M221 654 L181 654 L271 491 L403 491 L486 654 L443 654 L336 570 L221 654 Z " />
<glyph glyph-name="Gcaron" unicode="&#x1e6;" horiz-adv-x="866" d="M504 308 L504 254 L513 253 C567 248 586 232 588 190 L588 166 C588 131 584 112 572 94 C553 65 509 49 451 49 C368 49 308 77 279 130 C257 169 247 224 247 308 C247 395 257 465 276 507 C306 573 369 609 454 609 C566 609 642 552 682 439 L736 439 L730 672 L677 672 C675 646 669 625 658 602 C590 654 515 679 427 679 C214 679 45 522 45 325 C45 208 109 98 214 37 C272 3 341 -14 418 -14 C464 -14 488 -11 595 10 C663 23 712 29 744 29 C752 29 759 29 773 28 L773 168 C773 228 783 241 835 252 L847 254 L847 308 L504 308 Z M530 728 L633 887 L595 887 L439 795 L275 887 L237 887 L337 728 L530 728 Z " />
<glyph glyph-name="gcaron" unicode="&#x1e7;" horiz-adv-x="591" d="M136 -106 L141 -99 C141 -98 142 -98 143 -96 C122 -88 110 -85 95 -85 C62 -85 35 -112 35 -143 C35 -171 53 -198 83 -216 C122 -238 186 -249 275 -249 C372 -249 437 -236 488 -207 C542 -176 572 -129 572 -72 C572 -12 538 33 479 51 C441 62 405 66 331 66 L304 66 C288 65 283 65 264 65 L221 65 C181 64 161 72 161 89 C161 115 197 128 266 128 C416 127 510 185 510 278 C510 302 504 323 489 345 C499 354 504 356 512 356 C521 356 526 354 537 345 C550 334 558 331 569 331 C591 331 605 346 605 371 C605 401 585 419 551 419 C524 419 502 409 456 376 C413 406 364 418 291 418 C139 418 49 365 49 277 C49 213 95 164 173 144 C96 126 61 94 61 42 C61 -34 128 -64 300 -64 C384 -64 413 -65 431 -68 C466 -75 482 -89 482 -113 C482 -166 406 -197 276 -197 C185 -197 125 -171 125 -132 C125 -126 128 -118 134 -109 L136 -106 Z M280 365 C332 365 360 335 360 280 C360 215 336 185 285 185 C230 185 202 217 202 280 C202 334 230 365 280 365 L280 365 Z M176 654 L136 654 L226 491 L358 491 L441 654 L398 654 L291 570 L176 654 Z " />
<glyph glyph-name="Scommaaccent" unicode="&#x218;" horiz-adv-x="623" d="M61 11 L126 11 C130 33 135 49 144 65 C190 16 265 -14 342 -14 C480 -14 586 76 586 191 C586 242 565 289 528 325 C490 361 438 389 332 429 C228 468 194 496 194 544 C194 589 234 620 291 620 C371 620 439 561 465 470 L525 470 L525 667 L463 667 C462 665 462 663 462 663 L460 656 C457 642 452 631 445 622 C405 658 346 679 285 679 C160 679 61 591 61 480 C61 396 113 335 227 284 C339 234 353 228 385 210 C420 190 440 163 440 132 C440 84 394 49 331 49 C267 49 211 80 171 137 C153 162 141 189 126 239 L61 239 L61 11 Z M241 -339 C352 -336 419 -275 419 -177 C419 -105 378 -59 315 -59 C264 -59 229 -92 229 -140 C229 -180 259 -212 297 -212 C302 -212 310 -211 317 -209 C322 -208 325 -207 326 -207 L333 -206 L334 -205 L335 -205 C342 -205 349 -214 349 -223 C349 -259 304 -287 241 -290 L241 -339 Z " />
<glyph glyph-name="scommaaccent" unicode="&#x219;" horiz-adv-x="504" d="M47 -12 L95 -12 C101 0 108 8 118 15 C124 13 125 13 133 10 C183 -9 221 -16 265 -16 C386 -16 464 41 464 130 C464 170 447 203 413 230 C384 253 327 271 240 284 C184 292 151 310 151 333 C151 357 184 373 231 373 C308 373 364 343 385 292 L433 292 L433 415 L388 415 C381 404 374 396 367 391 C311 411 267 419 220 419 C121 419 44 360 44 284 C44 217 100 172 213 147 C314 125 314 125 335 110 C344 104 350 93 350 83 C350 56 308 35 254 35 C179 35 123 67 100 123 L47 123 L47 -12 Z M180 -306 C277 -305 343 -249 343 -167 C343 -101 305 -59 245 -59 C198 -59 165 -86 165 -124 C165 -157 193 -183 229 -183 C235 -183 241 -182 249 -180 C255 -179 261 -178 265 -178 C274 -178 281 -186 281 -197 C281 -218 262 -242 236 -252 C220 -259 205 -262 180 -264 L180 -306 Z " />
<glyph glyph-name="uni021A" unicode="&#x21a;" horiz-adv-x="766" d="M76 477 C95 584 121 607 226 608 L293 608 L293 136 C294 77 266 54 197 55 L178 55 L178 0 L583 0 L583 55 L563 55 C494 54 466 77 467 136 L467 608 L535 608 C630 608 659 583 688 477 L749 477 L749 667 L15 667 L15 477 L76 477 Z M299 -339 C410 -336 477 -275 477 -177 C477 -105 436 -59 373 -59 C322 -59 287 -92 287 -140 C287 -180 317 -212 355 -212 C360 -212 368 -211 375 -209 C380 -208 383 -207 384 -207 L391 -206 L392 -205 L393 -205 C400 -205 407 -214 407 -223 C407 -259 362 -287 299 -290 L299 -339 Z " />
<glyph glyph-name="uni021B" unicode="&#x21b;" horiz-adv-x="395" d="M385 349 L385 403 L250 403 L250 536 L193 536 C180 457 111 402 27 402 C25 402 18 402 12 403 L12 349 L77 349 L77 115 C77 31 130 -16 226 -16 C312 -16 376 19 401 78 L348 94 C332 64 316 53 291 53 C272 53 261 60 255 79 C251 90 250 99 250 140 L250 349 L385 349 Z M134 -306 C231 -305 297 -249 297 -167 C297 -101 259 -59 199 -59 C152 -59 119 -86 119 -124 C119 -157 147 -183 183 -183 C189 -183 195 -182 203 -180 C209 -179 215 -178 219 -178 C228 -178 235 -186 235 -197 C235 -218 216 -242 190 -252 C174 -259 159 -262 134 -264 L134 -306 Z " />
<glyph glyph-name="afii57929" unicode="&#x2bc;" horiz-adv-x="367" d="M79 328 C206 331 294 414 294 532 C294 622 246 679 171 679 C112 679 70 641 70 588 C70 542 108 505 155 505 C162 505 170 506 180 508 C194 511 200 512 202 512 C213 512 222 501 222 488 C222 436 160 392 79 386 L79 328 Z " />
<glyph glyph-name="circumflex" unicode="&#x2c6;" horiz-adv-x="520" d="M369 484 L412 484 L329 647 L196 647 L107 484 L147 484 L261 568 L369 484 Z " />
<glyph glyph-name="caron" unicode="&#x2c7;" horiz-adv-x="520" d="M147 654 L107 654 L196 491 L329 491 L412 654 L369 654 L262 570 L147 654 Z " />
<glyph glyph-name="uni02C9" unicode="&#x2c9;" horiz-adv-x="414" d="M33 591 L33 529 L381 529 L381 591 L33 591 Z " />
<glyph glyph-name="breve" unicode="&#x2d8;" horiz-adv-x="520" d="M104 647 L104 642 C104 603 121 560 149 528 C178 494 213 478 255 478 C338 478 403 551 405 647 L371 647 C354 593 316 566 258 566 C197 566 155 595 138 647 L104 647 Z " />
<glyph glyph-name="dotaccent" unicode="&#x2d9;" horiz-adv-x="536" d="M268 637 C229 637 198 606 198 568 C198 530 229 498 266 498 C306 498 337 529 337 567 C337 606 306 637 268 637 L268 637 Z " />
<glyph glyph-name="ring" unicode="&#x2da;" horiz-adv-x="500" d="M248 682 C189 682 141 634 141 575 C141 518 189 469 246 469 C306 469 354 516 354 576 C354 634 306 682 248 682 L248 682 Z M248 633 C279 633 305 607 305 576 C305 544 279 518 247 518 C215 518 190 544 190 576 C190 607 216 633 248 633 L248 633 Z " />
<glyph glyph-name="ogonek" unicode="&#x2db;" horiz-adv-x="500" d="M341 17 C268 -18 234 -57 234 -104 C234 -158 287 -196 361 -196 C403 -196 435 -186 479 -160 L462 -131 C438 -139 426 -141 408 -141 C363 -141 332 -117 332 -82 C332 -46 350 -20 400 17 L341 17 Z " />
<glyph glyph-name="tilde" unicode="&#x2dc;" horiz-adv-x="519" d="M137 493 C144 519 155 529 176 529 C192 529 220 522 249 511 C278 499 299 494 317 494 C378 494 412 545 412 633 L374 633 C371 605 356 589 332 589 C315 589 305 592 264 607 C237 617 210 623 192 623 C164 623 130 604 117 580 C106 558 101 533 100 493 L137 493 Z " />
<glyph glyph-name="hungarumlaut" unicode="&#x2dd;" horiz-adv-x="529" d="M114 486 L157 486 L320 632 L320 643 L180 643 L114 486 Z M313 486 L356 486 L520 632 L520 643 L379 643 L313 486 Z " />
<glyph glyph-name="Wdieresis" unicode="&#x1e84;" horiz-adv-x="1037" d="M789 -14 L937 466 C972 581 992 609 1040 613 L1051 613 L1051 667 L816 667 L816 613 L821 613 C861 613 888 591 888 558 C888 545 884 526 879 507 L797 236 L611 667 L527 667 L373 236 L270 534 C264 551 261 567 261 579 C261 601 279 613 315 613 L321 613 L321 667 L-13 667 L-13 613 L-3 613 L2 613 C41 613 58 593 84 515 L262 -14 L349 -14 L514 434 L705 -14 L789 -14 Z M401 880 C358 880 324 846 324 803 C324 761 359 726 400 726 C444 726 478 760 478 803 C478 846 444 880 401 880 L401 880 Z M703 880 C661 880 626 846 626 804 C626 761 660 726 702 726 C746 726 780 760 780 803 C780 846 746 880 703 880 L703 880 Z " />
<glyph glyph-name="uni2011" unicode="&#x2011;" horiz-adv-x="381" d="M33 254 L33 180 L352 180 L352 254 L33 254 Z " />
<glyph glyph-name="figuredash" unicode="&#x2012;" horiz-adv-x="611" d="M22 254 L22 190 L589 190 L589 254 L22 254 Z " />
<glyph glyph-name="endash" unicode="&#x2013;" horiz-adv-x="611" d="M22 254 L22 190 L589 190 L589 254 L22 254 Z " />
<glyph glyph-name="emdash" unicode="&#x2014;" horiz-adv-x="974" d="M22 254 L22 190 L952 190 L952 254 L22 254 Z " />
<glyph glyph-name="afii00208" unicode="&#x2015;" horiz-adv-x="974" d="M22 254 L22 190 L952 190 L952 254 L22 254 Z " />
<glyph glyph-name="quoteleft" unicode="&#x2018;" horiz-adv-x="367" d="M288 679 C160 675 73 593 73 475 C73 385 121 328 196 328 C255 328 297 365 297 418 C297 465 259 501 210 501 C202 501 195 500 187 498 C178 496 170 495 166 495 C154 495 145 505 145 519 C145 571 206 614 288 620 L288 679 Z " />
<glyph glyph-name="quoteright" unicode="&#x2019;" horiz-adv-x="332" d="M62 328 C189 331 277 414 277 532 C277 622 229 679 154 679 C95 679 53 641 53 588 C53 542 91 505 138 505 C145 505 153 506 163 508 C177 511 183 512 185 512 C196 512 205 501 205 488 C205 436 143 392 62 386 L62 328 Z " />
<glyph glyph-name="quotesinglbase" unicode="&#x201a;" horiz-adv-x="369" d="M79 -196 C209 -192 297 -110 297 8 C297 99 248 156 172 156 C112 156 70 118 70 65 C70 18 108 -18 159 -18 C166 -18 174 -17 182 -15 C192 -12 200 -11 204 -11 C216 -11 225 -21 225 -35 C225 -88 164 -131 79 -137 L79 -196 Z " />
<glyph glyph-name="quotedblleft" unicode="&#x201c;" horiz-adv-x="655" d="M283 679 C155 675 68 593 68 475 C68 385 116 328 191 328 C250 328 292 365 292 418 C292 465 254 501 205 501 C197 501 190 500 182 498 C173 496 165 495 161 495 C149 495 140 505 140 519 C140 571 201 614 283 620 L283 679 Z M580 679 C452 675 365 593 365 475 C365 386 413 328 488 328 C547 328 589 365 589 418 C589 465 551 501 502 501 C494 501 487 500 479 498 C470 496 462 495 458 495 C446 495 437 505 437 519 C437 571 498 614 580 620 L580 679 Z " />
<glyph glyph-name="quotedblright" unicode="&#x201d;" horiz-adv-x="655" d="M72 328 C199 331 287 414 287 532 C287 622 239 679 164 679 C105 679 63 641 63 588 C63 542 101 505 148 505 C155 505 163 506 173 508 C187 511 193 512 195 512 C206 512 215 501 215 488 C215 436 153 392 72 386 L72 328 Z M372 328 C500 331 587 414 587 532 C587 622 539 679 464 679 C405 679 363 642 363 588 C363 542 401 505 447 505 C454 505 462 506 473 508 C486 511 493 512 495 512 C506 512 515 501 515 488 C515 436 453 392 372 386 L372 328 Z " />
<glyph glyph-name="quotedblbase" unicode="&#x201e;" horiz-adv-x="658" d="M66 -196 C195 -193 284 -110 284 9 C284 99 235 156 159 156 C99 156 57 118 57 65 C57 19 95 -18 143 -18 C151 -18 159 -17 169 -15 C174 -13 178 -13 180 -13 C185 -12 188 -12 189 -12 L193 -10 C202 -10 212 -22 212 -34 C212 -88 151 -131 66 -137 L66 -196 Z M366 -196 C495 -193 584 -110 584 9 C584 99 535 156 459 156 C399 156 357 118 357 65 C357 19 395 -18 443 -18 C451 -18 460 -17 469 -14 C474 -13 478 -12 480 -12 C485 -12 489 -11 489 -11 C493 -9 493 -9 494 -9 C503 -9 512 -21 512 -34 C512 -88 451 -131 366 -137 L366 -196 Z " />
<glyph glyph-name="dagger" unicode="&#x2020;" horiz-adv-x="588" d="M330 -245 L330 -166 C333 -47 337 20 345 92 C358 209 358 210 358 244 C358 297 349 344 335 370 C351 367 352 366 377 357 C436 335 465 328 493 328 C538 328 567 356 567 399 C567 443 538 471 492 471 C467 471 432 463 397 450 C391 447 385 445 378 443 L355 434 C347 432 342 431 330 427 C364 502 381 558 381 599 C381 647 349 679 300 679 C251 679 221 646 221 593 C221 555 242 488 272 427 C259 429 254 430 235 437 C151 468 135 473 107 473 C62 473 35 445 35 400 C35 356 64 328 110 328 C135 328 168 336 221 355 L245 363 L251 365 C259 368 262 368 272 370 C253 337 245 301 245 245 C245 220 246 206 250 167 C268 -7 269 -15 272 -164 L272 -245 L330 -245 Z " />
<glyph glyph-name="daggerdbl" unicode="&#x2021;" horiz-adv-x="612" d="M347 252 C349 268 351 278 357 298 C363 317 365 325 365 335 C365 359 357 382 340 408 L352 404 C386 394 388 393 397 390 C457 369 473 365 500 365 C544 365 573 394 573 438 C573 483 543 512 497 512 C472 512 449 507 408 491 C385 482 371 477 367 476 C357 472 352 471 340 468 C344 481 347 490 358 519 C380 572 385 589 385 614 C385 655 357 679 309 679 C258 679 228 654 228 612 C228 588 235 563 251 529 C269 491 270 488 275 468 C261 471 255 473 235 480 C165 506 142 512 114 512 C70 512 40 482 40 439 C40 396 70 366 111 366 C129 366 166 374 192 383 C251 403 251 403 275 408 C258 378 250 354 250 337 C250 330 252 319 257 303 C265 278 267 271 269 252 L347 252 Z M269 179 C266 158 265 151 257 128 C252 112 250 102 250 94 C250 77 259 51 275 23 C258 27 249 30 228 37 C161 60 137 66 111 66 C70 66 40 36 40 -7 C40 -50 70 -80 114 -80 C142 -80 163 -74 235 -48 C255 -41 261 -39 275 -36 C271 -55 269 -60 251 -97 C235 -132 228 -155 228 -180 C228 -222 258 -247 310 -247 C358 -247 385 -223 385 -182 C385 -165 378 -135 370 -115 C351 -70 344 -52 340 -36 C355 -40 367 -44 377 -48 C455 -78 466 -81 497 -81 C543 -81 573 -52 573 -7 C573 37 544 66 500 66 C479 66 451 60 420 49 L406 44 L388 38 C380 36 368 32 352 27 L340 23 C357 50 365 73 365 96 C365 105 363 116 357 133 C351 154 349 162 347 179 L269 179 Z " />
<glyph glyph-name="bullet" unicode="&#x2022;" horiz-adv-x="733" d="M367 480 C285 480 216 417 216 342 C216 263 283 200 368 200 C450 200 518 263 518 340 C518 417 451 480 367 480 L367 480 Z " />
<glyph glyph-name="ellipsis" unicode="&#x2026;" horiz-adv-x="1108" d="M184 160 C129 160 85 121 85 71 C85 22 129 -18 183 -18 C237 -18 281 22 281 71 C281 120 237 160 184 160 L184 160 Z M551 160 C496 160 452 121 452 71 C452 22 496 -18 550 -18 C604 -18 648 22 648 71 C648 120 604 160 551 160 L551 160 Z M917 160 C862 160 818 121 818 71 C818 22 862 -18 916 -18 C970 -18 1014 22 1014 71 C1014 120 970 160 917 160 L917 160 Z " />
<glyph glyph-name="perthousand" unicode="&#x2030;" horiz-adv-x="1278" d="M214 680 C165 680 121 665 93 638 C59 605 38 554 38 504 C38 399 104 333 210 333 C260 333 305 348 332 374 C366 405 386 456 386 508 C386 613 319 680 214 680 L214 680 Z M214 638 C256 638 276 598 276 512 C276 417 257 375 213 375 C167 375 149 411 149 502 C149 603 165 638 214 638 L214 638 Z M290 0 L667 668 L589 668 L212 0 L290 0 Z M669 334 C620 334 576 319 548 292 C514 259 493 208 493 158 C493 53 559 -13 665 -13 C715 -13 760 2 787 28 C821 59 841 110 841 162 C841 267 774 334 669 334 L669 334 Z M669 292 C711 292 731 252 731 166 C731 71 712 29 668 29 C622 29 604 65 604 157 C604 257 621 292 669 292 L669 292 Z M1069 334 C1020 334 976 319 948 292 C914 259 893 208 893 158 C893 53 959 -13 1065 -13 C1115 -13 1160 2 1187 28 C1221 59 1241 110 1241 162 C1241 267 1174 334 1069 334 L1069 334 Z M1068 292 C1110 292 1131 252 1131 171 C1131 71 1112 29 1067 29 C1022 29 1004 65 1004 157 C1004 257 1021 292 1068 292 L1068 292 Z " />
<glyph glyph-name="guilsinglleft" unicode="&#x2039;" horiz-adv-x="335" d="M26 217 L241 0 L303 0 L217 217 L302 433 L240 433 L26 217 Z " />
<glyph glyph-name="guilsinglright" unicode="&#x203a;" horiz-adv-x="335" d="M303 217 L89 433 L27 433 L112 217 L26 0 L87 0 L303 217 Z " />
<glyph glyph-name="uni203E" unicode="&#x203e;" horiz-adv-x="500" d="M0 847 L0 807 L500 807 L500 847 L0 847 Z " />
<glyph glyph-name="fraction" unicode="&#x2044;" horiz-adv-x="196" d="M-52 0 L325 668 L247 668 L-130 0 L-52 0 Z " />
<glyph glyph-name="franc" unicode="&#x20a3;" horiz-adv-x="996" d="M645 667 L30 667 L30 613 L44 613 C112 614 138 591 139 531 L139 136 C140 79 113 55 44 55 L32 55 L32 0 L427 0 L427 55 L410 55 C342 55 312 80 313 136 L313 318 L375 318 C436 317 451 303 457 237 L457 231 L518 231 L518 460 L457 460 L457 453 C450 393 435 379 376 378 L313 378 L313 608 L441 608 C527 609 555 586 589 490 L650 490 L645 667 Z M739 369 L682 357 L613 344 L560 333 L552 332 L552 284 L556 284 C608 283 625 268 626 225 L626 107 C625 62 610 49 558 48 L553 48 L553 0 L852 0 L852 48 L841 48 C789 49 772 64 771 107 L771 137 C771 233 793 279 838 279 C852 279 864 273 877 261 C904 235 912 231 936 231 C975 231 1003 257 1003 295 C1003 339 966 371 916 371 C856 371 803 339 765 279 C764 317 759 347 751 371 L739 369 Z " />
<glyph glyph-name="Euro" unicode="&#x20ac;" horiz-adv-x="865" d="M312 390 C315 435 322 471 331 495 C360 573 423 615 512 615 C630 615 713 545 751 412 L810 412 L803 658 L743 658 C735 632 729 617 720 599 C656 654 584 679 492 679 C299 679 154 566 119 390 L68 390 L42 335 L113 335 L113 332 L113 328 C113 321 113 314 114 306 L68 306 L42 251 L122 251 C157 93 305 -14 487 -14 C582 -14 674 18 729 70 C743 54 752 35 760 6 L820 6 L820 256 L760 256 C742 192 706 130 671 104 C627 70 570 51 515 51 C429 51 359 94 331 164 C323 185 319 205 313 251 L554 251 L580 306 L310 306 C309 315 309 321 309 326 L309 332 L309 335 L593 335 L619 390 L312 390 Z " />
<glyph glyph-name="trademark" unicode="&#x2122;" horiz-adv-x="1072" d="M416 563 L416 667 L15 667 L15 563 L37 563 C41 619 66 640 126 641 L155 641 L155 347 C155 314 147 308 107 306 L91 306 L91 287 L340 287 L340 306 L324 306 C284 308 276 314 276 347 L276 641 L305 641 C365 641 390 618 394 563 L416 563 Z M431 667 L431 648 C480 647 489 643 488 620 L488 347 C489 319 475 308 433 306 L433 287 L578 287 L578 306 C535 309 520 320 521 347 L521 605 L675 287 L696 287 L857 595 L857 347 C857 314 850 308 811 306 L793 306 L793 287 L1034 287 L1034 306 L1018 306 C981 308 974 314 974 347 L974 607 C974 640 981 646 1018 648 L1037 648 L1037 667 L854 667 L735 447 L630 667 L431 667 Z " />
<glyph glyph-name="uni2126" unicode="&#x2126;" horiz-adv-x="768" d="M326 0 L308 155 C230 199 180 288 180 382 C180 434 195 493 221 540 C257 605 317 642 385 642 C453 642 513 605 549 540 C575 493 590 434 590 382 C590 288 540 199 462 155 L444 0 L736 0 L736 153 L712 153 C704 108 684 90 643 90 L497 90 L500 128 C535 141 557 151 580 166 C657 215 702 296 702 382 C702 449 673 522 625 578 C564 648 480 686 385 686 C290 686 206 648 145 578 C97 522 68 449 68 382 C68 296 113 215 190 166 C213 151 235 141 270 128 L273 90 L127 90 C86 90 66 108 58 153 L34 153 L34 0 L326 0 Z " />
<glyph glyph-name="partialdiff" unicode="&#x2202;" horiz-adv-x="494" d="M107 674 C152 697 184 706 219 706 C321 706 379 611 379 448 C379 418 377 395 372 346 C308 396 272 412 221 412 C172 412 131 394 95 355 C51 309 26 246 26 184 C26 76 109 -10 213 -10 C282 -10 341 22 383 84 C429 152 462 286 462 403 C462 519 428 611 360 681 C312 730 259 753 195 753 C156 753 122 746 66 725 L107 674 Z M366 312 C350 201 339 158 314 107 C288 54 245 21 201 21 C146 21 113 73 113 159 C113 273 180 367 261 367 C299 367 324 354 366 312 L366 312 Z " />
<glyph glyph-name="Delta" unicode="&#x2206;" horiz-adv-x="612" d="M6 0 L608 0 L327 688 L6 0 Z M77 51 L290 509 L479 51 L77 51 Z " />
<glyph glyph-name="product" unicode="&#x220f;" horiz-adv-x="823" d="M25 -124 L315 -124 L315 -98 L312 -98 C242 -94 221 -67 224 18 L224 594 C224 656 228 677 242 690 C260 707 272 708 413 708 C556 708 568 707 586 690 C600 677 604 656 604 594 L604 18 C607 -67 586 -94 516 -98 L513 -98 L513 -124 L803 -124 L803 -98 L800 -98 C730 -94 709 -67 712 18 L712 609 C709 694 730 721 800 725 L803 725 L803 751 L25 751 L25 725 L28 725 C98 721 119 694 116 609 L116 18 C119 -67 98 -94 28 -98 L25 -98 L25 -124 Z " />
<glyph glyph-name="summation" unicode="&#x2211;" horiz-adv-x="713" d="M176 711 L444 711 C560 710 590 688 606 587 L632 587 L622 752 L23 752 L256 285 L14 -123 L641 -123 L695 87 L669 87 C639 7 605 -12 491 -11 L163 -11 L364 341 L176 711 Z " />
<glyph glyph-name="minus" unicode="&#x2212;" horiz-adv-x="550" d="M2 414 L2 325 L548 325 L548 414 L2 414 Z " />
<glyph glyph-name="uni2215" unicode="&#x2215;" horiz-adv-x="196" d="M-52 0 L325 668 L247 668 L-130 0 L-52 0 Z " />
<glyph glyph-name="uni2219" unicode="&#x2219;" horiz-adv-x="323" d="M154 421 C100 421 56 381 56 332 C56 284 100 244 153 244 C208 244 252 283 252 333 C252 382 208 421 154 421 L154 421 Z " />
<glyph glyph-name="radical" unicode="&#x221a;" horiz-adv-x="549" d="M363 -35 L515 908 L480 913 L353 123 L156 520 L10 449 L26 414 L121 461 L363 -35 Z " />
<glyph glyph-name="infinity" unicode="&#x221e;" horiz-adv-x="713" d="M357 303 C300 375 234 414 171 414 C86 414 26 351 26 263 C26 176 84 115 167 115 C224 115 282 143 327 192 C335 201 340 207 357 228 C415 156 485 115 548 115 C631 115 688 176 688 266 C688 354 629 414 543 414 C476 414 412 376 357 303 L357 303 Z M391 265 C434 325 493 362 546 362 C600 362 638 321 638 264 C638 205 603 167 549 167 C495 167 461 188 391 265 L391 265 Z M324 266 C275 203 216 167 163 167 C111 167 76 207 76 266 C76 323 113 362 167 362 C218 362 259 337 324 266 L324 266 Z " />
<glyph glyph-name="integral" unicode="&#x222b;" horiz-adv-x="274" d="M180 576 C180 653 179 691 176 746 C174 774 173 800 173 815 C173 855 184 878 202 878 C208 878 213 876 215 872 C232 845 239 839 256 839 C276 839 291 853 291 871 C291 898 267 916 231 916 C186 916 152 887 138 838 C123 784 113 682 113 577 L113 232 C113 160 114 124 117 63 C119 34 120 4 120 -12 C120 -47 108 -70 89 -70 C81 -70 74 -65 68 -52 C59 -35 51 -30 37 -30 C17 -30 2 -44 2 -63 C2 -89 26 -107 62 -107 C107 -107 141 -78 155 -29 C170 25 180 126 180 232 L180 576 Z " />
<glyph glyph-name="approxequal" unicode="&#x2248;" horiz-adv-x="549" d="M489 251 C444 199 423 187 384 187 C365 187 354 190 285 211 C212 234 188 239 160 239 C101 239 54 211 14 155 L57 121 C103 174 120 184 159 184 C180 184 180 184 271 157 C350 133 354 132 385 132 C449 132 496 160 527 217 L489 251 Z M489 408 C443 356 424 344 384 344 C365 344 354 347 285 369 C212 392 188 397 160 397 C101 397 54 369 14 312 L57 279 C104 332 119 342 159 342 C181 342 181 342 271 315 C351 290 354 289 385 289 C449 289 496 318 527 375 L489 408 Z " />
<glyph glyph-name="notequal" unicode="&#x2260;" horiz-adv-x="549" d="M187 142 L115 -1 L161 -25 L246 142 L540 142 L540 197 L273 197 L344 336 L540 336 L540 391 L371 391 L439 525 L392 549 L312 391 L15 391 L15 336 L285 336 L215 197 L15 197 L15 142 L187 142 Z " />
<glyph glyph-name="lessequal" unicode="&#x2264;" horiz-adv-x="549" d="M526 55 L29 55 L29 0 L526 0 L526 55 Z M526 639 L29 405 L29 350 L526 117 L526 179 L108 378 L526 577 L526 639 Z " />
<glyph glyph-name="greaterequal" unicode="&#x2265;" horiz-adv-x="549" d="M526 55 L29 55 L29 0 L526 0 L526 55 Z M29 639 L29 577 L447 378 L29 179 L29 117 L526 350 L526 405 L29 639 Z " />
<glyph glyph-name="lozenge" unicode="&#x25ca;" horiz-adv-x="494" d="M209 0 L269 -1 L466 374 L277 740 L214 740 L18 377 L209 0 Z M240 58 L81 376 L245 683 L402 373 L240 58 Z " />
<glyph glyph-name="fi" unicode="&#xfb01;" horiz-adv-x="724" d="M16 350 L100 350 L100 117 C99 67 85 54 29 52 L16 52 L16 0 L345 0 L345 52 L342 52 C291 53 274 69 273 117 L273 350 L376 350 C445 349 460 339 463 290 L463 117 C461 67 446 53 393 52 L387 52 L387 0 L713 0 L713 52 L698 52 C642 54 623 70 622 117 L622 415 L616 415 C579 407 510 403 423 403 L273 403 L273 483 C273 544 276 570 287 588 C300 611 328 624 365 624 C407 624 427 610 445 569 C464 524 484 508 521 508 C566 508 604 541 604 579 C604 604 585 629 555 647 C518 668 461 679 386 679 C303 679 250 668 199 640 C130 601 100 539 100 436 L100 403 L16 403 L16 350 Z " />
<glyph glyph-name="fl" unicode="&#xfb02;" horiz-adv-x="723" d="M101 403 L17 403 L17 350 L101 350 L101 117 C100 67 86 54 30 52 L17 52 L17 0 L346 0 L346 52 L343 52 C292 54 276 69 275 117 L275 350 L461 350 L461 117 C460 69 444 54 391 52 L387 52 L387 0 L712 0 L712 52 L697 52 C640 54 621 70 620 117 L620 679 L618 679 L612 678 L614 679 C555 667 545 666 514 664 C479 674 436 679 393 679 C288 679 206 654 160 609 C120 571 101 509 101 422 L101 403 Z M275 403 L275 494 C275 540 279 562 290 584 C302 608 333 623 372 623 C406 623 438 607 450 585 C455 575 458 570 459 569 C459 568 460 567 461 567 L461 403 L275 403 Z " />
</font>
</svg>
