<?xml version="1.0" encoding="UTF-8"?>
<svg xmlns="http://www.w3.org/2000/svg" xmlns:xlink="http://www.w3.org/1999/xlink" version="1.2" >
<font id="Bodoni URW Extra Wide Light Oblique">
<font-face  font-family="Bodoni URW Extra Wide" units-per-em="1000" ascent="667" descent="-333" font-style="italic" font-weight="300" font-stretch="normal" cap-height="667" x-height="387" underline-position="-88" underline-thickness="46" />
<missing-glyph  horiz-adv-x="250" d="" />
<glyph glyph-name="NULL" d="" />
<glyph glyph-name="CR" unicode="&#xd;" horiz-adv-x="250" d="" />
<glyph glyph-name="space" unicode="&#x20;" horiz-adv-x="250" d="" />
<glyph glyph-name="exclam" unicode="&#x21;" horiz-adv-x="301" d="M113 197 L131 197 C166 346 177 382 215 480 L255 577 C263 595 267 613 267 626 C267 656 250 677 224 677 C183 677 150 634 150 577 L149 480 C145 382 141 351 117 219 L113 197 Z M103 107 C64 107 27 74 27 39 C27 13 49 -7 78 -7 C118 -7 154 25 154 61 C154 88 132 107 103 107 L103 107 Z " />
<glyph glyph-name="quotedbl" unicode="&#x22;" horiz-adv-x="310" d="M108 413 L166 576 C178 611 181 623 181 640 C181 662 170 677 154 677 C123 677 104 641 99 576 L87 413 L108 413 Z M256 413 L313 576 C324 606 328 623 328 640 C328 662 317 677 302 677 C271 677 251 641 246 576 L235 413 L256 413 Z " />
<glyph glyph-name="numbersign" unicode="&#x23;" horiz-adv-x="550" d="M251 442 L326 647 L260 647 L185 442 L85 442 L79 417 L175 417 L109 238 L9 238 L4 213 L100 213 L22 0 L89 0 L167 213 L296 213 L218 0 L284 0 L363 213 L462 213 L467 238 L372 238 L438 417 L538 417 L542 442 L447 442 L522 647 L455 647 L380 442 L251 442 Z M242 417 L371 417 L305 238 L176 238 L242 417 Z " />
<glyph glyph-name="dollar" unicode="&#x24;" horiz-adv-x="550" d="M297 395 L351 648 C405 646 434 630 434 602 C434 596 433 590 432 581 C427 558 427 554 427 544 C427 511 443 493 472 493 C503 493 529 524 529 562 C529 620 453 667 355 668 L372 749 L343 749 L325 667 C274 662 231 647 193 623 C131 583 89 517 89 458 C89 405 121 362 188 326 L246 296 L188 21 C119 25 84 49 84 93 C84 105 85 109 99 133 C106 146 109 156 109 170 L109 173 C109 200 94 218 69 218 C33 218 0 178 0 135 C0 64 76 9 184 1 L165 -88 L194 -88 L213 1 C343 8 462 120 462 235 C462 287 431 326 364 361 L297 395 Z M264 411 L235 427 C194 451 172 483 172 520 C172 586 232 639 314 647 L264 411 Z M272 280 L321 255 C371 228 393 201 393 165 C393 131 369 91 332 63 C299 37 264 25 217 21 L272 280 Z " />
<glyph glyph-name="percent" unicode="&#x25;" horiz-adv-x="756" d="M245 653 C153 653 60 551 60 451 C60 374 107 319 172 319 C265 319 358 420 358 521 C358 599 311 653 245 653 L245 653 Z M140 521 C158 606 183 635 241 635 C282 635 301 617 301 579 C301 565 298 546 293 521 L278 451 C260 366 235 337 177 337 C136 337 117 355 117 393 C117 407 120 427 125 451 L140 521 Z M626 647 L593 647 L126 0 L158 0 L626 647 Z M579 328 C487 328 394 226 394 126 C394 49 441 -6 506 -6 C599 -6 692 95 692 196 C692 274 645 328 579 328 L579 328 Z M474 196 C492 281 517 310 575 310 C616 310 635 292 635 254 C635 240 632 220 627 196 L612 126 C594 41 569 12 511 12 C470 12 451 30 451 67 C451 82 454 101 459 126 L474 196 Z " />
<glyph glyph-name="ampersand" unicode="&#x26;" horiz-adv-x="653" d="M384 0 L553 0 L557 18 L472 18 L424 112 C491 183 516 228 540 322 L622 322 L626 340 L431 340 L427 322 L517 322 C503 247 463 175 412 131 L306 340 C376 364 408 380 434 406 C456 428 467 452 467 477 C467 523 421 551 346 551 C247 551 173 501 173 435 C173 419 178 404 189 380 L218 322 C138 289 101 269 69 241 C24 203 0 158 0 113 C0 36 55 -10 149 -10 C228 -10 291 10 353 54 L384 0 Z M272 408 C245 453 244 456 244 472 C244 510 280 531 343 531 C388 531 411 515 411 483 C411 465 405 443 395 423 C377 386 354 369 299 353 L272 408 Z M345 71 C292 35 256 21 215 21 C170 21 135 45 110 92 C95 122 84 160 84 185 C84 236 121 268 225 306 L345 71 Z " />
<glyph glyph-name="quotesingle" unicode="&#x27;" horiz-adv-x="162" d="M108 413 L166 576 C178 611 181 623 181 640 C181 662 170 677 154 677 C123 677 104 641 99 576 L87 413 L108 413 Z " />
<glyph glyph-name="parenleft" unicode="&#x28;" horiz-adv-x="291" d="M313 674 C115 492 13 315 13 154 C13 49 55 -72 130 -186 L146 -177 C101 -79 84 -7 84 89 C84 183 103 280 140 375 C182 481 231 558 325 665 L313 674 Z " />
<glyph glyph-name="parenright" unicode="&#x29;" horiz-adv-x="291" d="M107 665 C152 567 169 494 169 400 C169 305 150 207 113 112 C71 7 22 -70 -72 -177 L-60 -186 C139 -3 240 172 240 334 C240 438 197 562 123 674 L107 665 Z " />
<glyph glyph-name="asterisk" unicode="&#x2a;" horiz-adv-x="550" d="M308 510 C300 508 296 506 291 500 L202 554 C178 568 174 570 161 570 C140 570 119 549 119 528 C119 510 130 504 172 501 L286 492 C285 489 285 487 285 486 C285 482 286 480 289 477 L187 406 C153 383 145 375 145 359 C145 344 159 331 177 331 C197 331 206 339 229 373 L296 472 C300 470 302 470 304 470 C306 470 308 470 313 472 L340 375 C348 340 355 332 373 332 C396 332 420 352 420 371 C420 383 417 388 396 407 L322 477 C327 482 328 485 330 492 L449 503 C479 505 481 505 492 510 C507 517 516 529 516 544 C516 560 505 572 489 572 C476 572 471 570 441 555 L329 500 C326 506 324 508 317 510 L364 613 C376 640 377 642 377 652 C377 667 365 677 347 677 C320 677 302 658 302 632 C302 630 302 623 303 613 L308 510 Z " />
<glyph glyph-name="plus" unicode="&#x2b;" horiz-adv-x="550" d="M253 308 L215 131 L246 131 L283 308 L488 308 L495 338 L290 338 L327 515 L297 515 L259 338 L57 338 L51 308 L253 308 Z " />
<glyph glyph-name="comma" unicode="&#x2c;" horiz-adv-x="271" d="M11 -152 C100 -91 149 -24 149 37 C149 81 120 112 77 112 C31 112 -6 77 -6 34 C-6 8 9 -7 34 -7 C67 -7 88 16 93 56 C114 46 122 33 122 12 C122 -31 86 -77 0 -140 L11 -152 Z " />
<glyph glyph-name="hyphen" unicode="&#x2d;" horiz-adv-x="208" d="M185 230 L-22 230 L-35 170 L173 170 L185 230 Z " />
<glyph glyph-name="period" unicode="&#x2e;" horiz-adv-x="271" d="M88 107 C49 107 12 74 12 39 C12 13 34 -7 63 -7 C103 -7 139 25 139 61 C139 88 117 107 88 107 L88 107 Z " />
<glyph glyph-name="slash" unicode="&#x2f;" horiz-adv-x="449" d="M480 667 L421 667 L-152 -180 L-93 -180 L480 667 Z " />
<glyph glyph-name="zero" unicode="0" horiz-adv-x="550" d="M344 657 C277 657 209 617 150 543 C75 450 34 340 34 234 C34 89 101 -10 199 -10 C269 -10 333 28 395 104 C469 195 511 307 511 413 C511 559 444 657 344 657 L344 657 Z M152 396 C190 575 239 637 340 637 C409 637 442 602 442 529 C442 496 436 456 424 396 L393 251 C355 72 306 10 205 10 C136 10 103 45 103 119 C103 150 109 192 121 251 L152 396 Z " />
<glyph glyph-name="one" unicode="1" horiz-adv-x="550" d="M405 647 L189 637 L186 621 L293 621 C312 621 316 619 316 611 C316 607 315 601 314 595 L191 18 L58 18 L54 0 L384 0 L388 18 L271 18 L405 647 Z " />
<glyph glyph-name="two" unicode="2" horiz-adv-x="550" d="M404 0 L441 177 L427 177 C392 81 389 79 311 77 L61 77 L274 243 C396 336 407 345 443 386 C488 436 509 479 509 522 C509 605 442 657 335 657 C212 657 108 578 108 485 C108 445 131 419 167 419 C200 419 228 443 228 473 C228 493 211 508 187 508 C180 508 174 507 167 505 C148 500 148 500 145 500 C138 500 134 505 134 514 C134 572 220 634 300 634 C369 634 415 586 415 516 C415 470 402 421 379 384 C348 335 325 312 197 211 L-11 46 L-21 0 L404 0 Z " />
<glyph glyph-name="three" unicode="3" horiz-adv-x="550" d="M155 358 L151 340 L192 340 C307 340 361 304 361 228 C361 97 284 10 168 10 C113 10 57 36 57 62 C57 68 60 70 77 79 C101 92 113 110 113 135 C113 153 99 166 80 166 C45 166 16 132 16 90 C16 30 78 -10 171 -10 C251 -10 322 15 374 61 C423 104 454 163 454 214 C454 246 443 275 422 297 C393 328 357 340 267 349 C334 361 372 378 416 415 C459 450 484 497 484 541 C484 571 469 601 445 622 C417 645 381 656 330 656 C230 656 148 602 148 537 C148 514 162 498 182 498 C208 498 232 524 232 552 C232 565 226 576 214 583 C206 587 204 590 204 593 C204 613 258 633 309 633 C368 633 401 609 401 567 C401 527 383 459 364 431 C333 384 274 358 196 358 L155 358 Z " />
<glyph glyph-name="four" unicode="4" horiz-adv-x="550" d="M334 174 L451 174 L435 99 L455 99 L492 273 L472 273 L456 199 L339 199 L436 654 L397 654 L4 216 L-5 174 L254 174 L221 18 L118 18 L114 0 L401 0 L405 18 L301 18 L334 174 Z M259 199 L21 199 L333 546 L259 199 Z " />
<glyph glyph-name="five" unicode="5" horiz-adv-x="550" d="M200 570 L404 570 C467 569 485 587 509 672 L494 672 C478 650 472 647 444 647 L244 647 C200 647 189 639 180 597 L111 339 C167 362 192 368 226 368 C316 368 367 328 367 255 C367 197 345 126 312 80 C281 36 227 10 167 10 C118 10 51 38 51 59 C51 64 54 68 60 71 C87 84 89 85 98 95 C108 108 114 122 114 135 C114 155 100 169 80 169 C44 169 13 133 13 91 C13 32 79 -10 173 -10 C324 -10 457 102 457 229 C457 325 376 388 250 388 C212 388 185 384 146 372 L200 570 Z " />
<glyph glyph-name="six" unicode="6" horiz-adv-x="550" d="M519 687 C400 666 310 628 228 564 C104 468 25 318 25 178 C25 65 98 -10 207 -10 C354 -10 484 120 484 267 C484 364 416 429 317 429 C266 429 225 415 177 380 C222 537 332 630 515 667 L519 687 Z M296 407 C363 407 399 376 399 319 C399 257 374 145 347 88 C321 34 280 10 212 10 C139 10 105 46 105 123 C105 197 139 315 171 351 C199 384 249 407 293 407 L296 407 Z " />
<glyph glyph-name="seven" unicode="7" horiz-adv-x="550" d="M501 570 L294 280 C277 256 209 152 198 133 C172 89 161 58 161 32 C161 6 178 -10 204 -10 C249 -10 276 27 274 88 L273 127 L272 137 C270 183 300 243 396 379 L572 629 C577 637 580 641 580 642 C580 646 578 647 567 647 L167 647 L79 468 L97 468 L127 516 C152 560 168 568 222 570 L501 570 Z " />
<glyph glyph-name="eight" unicode="8" horiz-adv-x="550" d="M316 343 C375 356 408 370 441 395 C485 429 509 474 509 520 C509 600 440 657 343 657 C221 657 108 565 108 466 C108 404 149 365 237 343 C173 333 138 320 98 292 C41 253 7 195 7 137 C7 50 87 -10 202 -10 C347 -10 472 87 472 200 C472 245 450 285 412 310 C385 327 364 335 316 343 L316 343 Z M341 637 C398 637 430 610 430 562 C430 532 418 474 405 438 C386 386 341 358 280 358 C222 358 189 385 189 432 C189 462 201 522 214 557 C235 610 278 637 341 637 L341 637 Z M275 331 C343 331 381 294 381 227 C381 176 366 123 341 83 C312 36 262 10 204 10 C137 10 99 48 99 116 C99 164 114 218 139 258 C168 304 218 331 275 331 L275 331 Z " />
<glyph glyph-name="nine" unicode="9" horiz-adv-x="550" d="M20 -41 C137 -23 228 17 318 90 C444 191 520 334 520 469 C520 581 450 657 346 657 C199 657 59 519 59 376 C59 283 135 212 233 212 C288 212 323 227 371 274 C312 99 195 -1 24 -21 L20 -41 Z M337 637 C404 637 440 606 440 546 C440 489 424 397 405 350 C376 276 316 234 240 234 C176 234 145 266 145 331 C145 374 164 465 185 522 C214 601 262 637 337 637 L337 637 Z " />
<glyph glyph-name="colon" unicode="&#x3a;" horiz-adv-x="271" d="M150 400 C111 400 74 367 74 333 C74 307 96 287 125 287 C165 287 201 319 201 355 C201 381 179 400 150 400 L150 400 Z M88 107 C49 107 12 74 12 39 C12 13 34 -7 63 -7 C103 -7 139 25 139 61 C139 88 117 107 88 107 L88 107 Z " />
<glyph glyph-name="semicolon" unicode="&#x3b;" horiz-adv-x="271" d="M137 400 C98 400 61 367 61 333 C61 307 83 287 112 287 C152 287 188 319 188 355 C188 381 166 400 137 400 L137 400 Z M11 -152 C100 -91 149 -24 149 37 C149 81 120 112 77 112 C31 112 -6 77 -6 34 C-6 8 9 -7 34 -7 C67 -7 88 16 93 56 C114 46 122 33 122 12 C122 -31 86 -77 0 -140 L11 -152 Z " />
<glyph glyph-name="less" unicode="&#x3c;" horiz-adv-x="550" d="M556 595 L48 327 L47 322 L440 52 L453 114 L122 343 L551 571 L556 595 Z " />
<glyph glyph-name="equal" unicode="&#x3d;" horiz-adv-x="550" d="M507 399 L70 399 L64 369 L501 369 L507 399 Z M482 279 L44 279 L38 249 L475 249 L482 279 Z " />
<glyph glyph-name="greater" unicode="&#x3e;" horiz-adv-x="550" d="M-10 52 L498 319 L499 324 L105 595 L92 532 L424 303 L-5 75 L-10 52 Z " />
<glyph glyph-name="question" unicode="&#x3f;" horiz-adv-x="415" d="M132 196 C146 261 157 276 229 324 L294 365 C370 413 413 480 413 548 C413 627 359 677 274 677 C175 677 85 605 85 528 C85 504 99 487 120 487 C147 487 170 513 170 542 C170 556 163 566 147 575 C135 581 132 585 132 590 C132 621 206 657 269 657 C336 657 381 626 381 580 C381 548 355 515 300 476 L259 446 C167 387 129 318 117 193 L132 196 Z M113 107 C74 107 37 74 37 39 C37 13 59 -7 88 -7 C128 -7 164 25 164 61 C164 88 142 107 113 107 L113 107 Z " />
<glyph glyph-name="at" unicode="&#x40;" horiz-adv-x="819" d="M595 83 C516 35 443 12 364 12 C201 12 82 117 82 263 C82 461 279 639 497 639 C637 639 744 550 744 433 C744 356 714 293 651 240 C605 200 550 174 514 174 C500 174 493 179 493 189 C493 199 500 219 514 248 L628 487 L558 487 L532 432 C525 479 505 496 458 496 C345 496 208 361 208 250 C208 189 247 149 306 149 C357 149 400 173 438 223 C437 208 436 199 436 193 C436 162 454 148 495 148 C550 148 619 180 676 230 C740 287 772 356 772 437 C772 570 659 664 499 664 C268 664 53 469 53 259 C53 102 181 -13 355 -13 C459 -13 559 21 640 83 L595 83 Z M464 479 C495 479 515 459 515 427 C515 397 494 341 461 284 C413 201 366 163 312 163 C280 163 263 180 263 213 C263 245 292 313 333 378 C375 445 419 479 464 479 L464 479 Z " />
<glyph glyph-name="A" unicode="A" horiz-adv-x="667" d="M377 214 L409 18 L305 18 L301 0 L600 0 L604 18 L520 18 L418 667 L388 667 L0 18 L-70 18 L-74 0 L121 0 L125 18 L28 18 L143 214 L377 214 Z M374 232 L155 232 L327 527 L374 232 Z " />
<glyph glyph-name="B" unicode="B" horiz-adv-x="677" d="M67 18 L-30 18 L-34 0 L256 0 C389 0 463 19 524 70 C568 106 594 161 594 217 C594 250 580 277 551 301 C519 327 483 339 408 350 C552 376 633 441 633 530 C633 573 612 607 571 632 C530 655 465 667 370 667 L108 667 L104 649 L201 649 L67 18 Z M233 358 L294 649 L356 649 C487 649 536 620 536 543 C536 502 524 460 502 429 C468 378 413 358 310 358 L233 358 Z M160 18 L229 340 L303 340 C430 340 485 308 485 234 C485 183 469 127 445 93 C408 42 349 18 259 18 L160 18 Z " />
<glyph glyph-name="C" unicode="C" horiz-adv-x="650" d="M668 667 L654 667 L607 617 C553 661 509 677 445 677 C332 677 214 615 135 513 C78 440 41 336 41 250 C41 102 148 -10 288 -10 C352 -10 405 6 486 50 L512 0 L527 0 L566 185 L551 185 C518 133 500 110 473 85 C421 37 355 10 290 10 C196 10 134 60 134 135 C134 174 145 245 168 350 C191 452 214 522 236 559 C274 620 349 657 432 657 C493 657 544 637 577 599 C603 570 612 544 617 494 L631 494 L668 667 Z " />
<glyph glyph-name="D" unicode="D" horiz-adv-x="741" d="M67 18 L-30 18 L-34 0 L233 0 C324 0 382 8 427 26 C490 51 548 92 593 143 C660 219 698 316 698 411 C698 476 680 531 645 574 C590 641 515 667 375 667 L108 667 L104 649 L201 649 L67 18 Z M160 18 L294 649 L370 649 C537 649 601 610 601 507 C601 464 592 402 574 324 C540 173 514 113 466 75 C414 34 350 18 238 18 L160 18 Z " />
<glyph glyph-name="E" unicode="E" horiz-adv-x="644" d="M627 667 L108 667 L104 649 L199 649 L65 18 L-30 18 L-34 0 L510 0 L576 208 L561 208 C532 150 512 117 491 92 C436 26 414 17 313 18 L159 18 L225 329 L276 329 C352 329 384 307 384 255 C384 245 383 234 380 221 L375 198 L390 198 L448 472 L433 472 L429 453 C413 376 372 347 283 347 L228 347 L292 649 L391 649 C543 650 584 617 589 486 L603 486 L627 667 Z " />
<glyph glyph-name="F" unicode="F" horiz-adv-x="588" d="M630 667 L108 667 L104 649 L199 649 L65 18 L-30 18 L-34 0 L267 0 L271 18 L159 18 L225 329 L296 329 C377 329 404 310 404 253 C404 243 403 236 401 227 L397 205 L411 205 L469 475 L454 475 L450 457 C426 364 401 345 301 347 L228 347 L292 649 L426 649 C499 649 532 639 556 610 C577 585 589 544 589 498 L589 475 L603 475 L630 667 Z " />
<glyph glyph-name="G" unicode="G" horiz-adv-x="698" d="M655 667 L640 667 L594 625 C544 662 498 677 437 677 C345 677 248 632 170 552 C88 469 41 355 41 241 C41 188 55 139 83 95 C127 25 194 -10 284 -10 C364 -10 440 18 499 69 C539 104 559 136 588 212 L662 212 L666 230 L358 230 L354 212 L468 212 C455 152 448 128 435 105 C402 45 343 10 271 10 C183 10 135 54 135 135 C135 237 199 496 241 563 C277 623 343 657 422 657 C530 657 590 594 599 471 L613 471 L655 667 Z " />
<glyph glyph-name="H" unicode="H" horiz-adv-x="781" d="M555 330 L489 18 L377 18 L373 0 L673 0 L677 18 L582 18 L716 649 L811 649 L815 667 L514 667 L511 649 L623 649 L559 348 L229 348 L292 649 L404 649 L408 667 L108 667 L104 649 L199 649 L65 18 L-30 18 L-34 0 L267 0 L271 18 L159 18 L225 330 L555 330 Z " />
<glyph glyph-name="I" unicode="I" horiz-adv-x="367" d="M65 18 L-30 18 L-34 0 L259 0 L263 18 L159 18 L292 649 L397 649 L401 667 L108 667 L104 649 L199 649 L65 18 Z " />
<glyph glyph-name="J" unicode="J" horiz-adv-x="421" d="M361 649 L466 649 L470 667 L177 667 L173 649 L268 649 L143 63 C133 14 122 -10 104 -28 C87 -44 60 -55 37 -55 C20 -55 4 -46 4 -36 C4 -33 6 -30 10 -27 C34 -8 41 2 41 22 C41 44 27 58 6 58 C-29 58 -57 28 -57 -10 C-57 -50 -23 -75 30 -75 C82 -75 136 -51 180 -8 C219 30 238 69 255 149 L361 649 Z " />
<glyph glyph-name="K" unicode="K" horiz-adv-x="722" d="M65 18 L-30 18 L-34 0 L259 0 L263 18 L159 18 L292 649 L397 649 L401 667 L108 667 L104 649 L199 649 L65 18 Z M360 407 L650 649 L742 649 L746 667 L514 667 L510 649 L616 649 L260 353 L465 18 L367 18 L364 0 L651 0 L655 18 L598 18 L360 407 Z " />
<glyph glyph-name="L" unicode="L" horiz-adv-x="624" d="M509 0 L567 205 L552 205 C487 57 436 15 325 18 L159 18 L292 649 L397 649 L401 667 L108 667 L104 649 L199 649 L65 18 L-30 18 L-34 0 L509 0 Z " />
<glyph glyph-name="M" unicode="M" horiz-adv-x="840" d="M298 0 L319 0 L684 644 L551 18 L446 18 L443 0 L736 0 L740 18 L644 18 L778 649 L874 649 L878 667 L671 667 L387 166 L324 667 L104 667 L100 649 L188 649 L54 18 L-34 18 L-38 0 L171 0 L175 18 L77 18 L211 649 L298 0 Z " />
<glyph glyph-name="N" unicode="N" horiz-adv-x="746" d="M542 0 L558 0 L696 649 L777 649 L781 667 L579 667 L575 649 L673 649 L574 185 L329 667 L97 667 L93 649 L188 649 L54 18 L-41 18 L-45 0 L179 0 L183 18 L78 18 L210 644 L542 0 Z " />
<glyph glyph-name="O" unicode="O" horiz-adv-x="727" d="M437 677 C336 677 228 624 152 536 C82 456 42 351 42 245 C42 98 146 -10 287 -10 C498 -10 685 193 685 421 C685 570 581 677 437 677 L437 677 Z M433 657 C532 657 592 607 592 523 C592 491 586 448 569 367 C535 207 523 163 501 123 C462 51 385 10 291 10 C251 10 209 22 181 42 C149 65 134 97 134 146 C134 178 140 217 157 300 C191 462 203 503 225 544 C263 615 340 657 433 657 L433 657 Z " />
<glyph glyph-name="P" unicode="P" horiz-adv-x="629" d="M223 323 L343 323 C452 323 521 344 578 395 C620 431 642 476 642 523 C642 561 626 596 598 621 C564 652 505 667 416 667 L108 667 L104 649 L199 649 L65 18 L-30 18 L-34 0 L267 0 L271 18 L159 18 L223 323 Z M227 341 L292 649 L405 649 C499 649 535 627 535 569 C535 532 523 471 508 432 C481 364 438 341 340 341 L227 341 Z " />
<glyph glyph-name="Q" unicode="Q" horiz-adv-x="727" d="M342 -6 C532 26 685 216 685 421 C685 570 581 677 437 677 C336 677 230 625 152 536 C82 457 42 350 42 245 C42 117 121 17 240 -6 L237 -19 C234 -37 232 -53 232 -70 C232 -173 315 -215 518 -217 L521 -204 C383 -200 331 -168 331 -86 C331 -67 334 -43 341 -13 L342 -6 Z M433 657 C532 657 592 607 592 523 C592 491 586 448 569 367 C535 207 523 163 501 123 C462 51 385 10 291 10 C251 10 209 22 181 42 C149 65 134 97 134 146 C134 178 140 217 157 300 C191 462 203 503 225 544 C263 615 340 657 433 657 L433 657 Z " />
<glyph glyph-name="R" unicode="R" horiz-adv-x="708" d="M228 345 L301 345 C348 345 386 335 408 318 C425 304 433 283 433 250 C433 236 432 224 430 214 L419 165 C415 142 412 120 412 105 C412 37 457 -5 530 -5 C561 -5 578 -1 611 12 L609 29 C585 19 574 16 561 16 C533 16 517 33 517 60 C517 72 519 88 523 108 L535 163 C538 175 539 188 539 203 C539 238 527 270 505 295 C478 324 447 337 372 350 C478 361 528 379 580 425 C618 459 637 498 637 543 C637 582 622 611 589 634 C553 659 511 667 407 667 L108 667 L104 649 L199 649 L65 18 L-30 18 L-34 0 L267 0 L271 18 L159 18 L228 345 Z M232 363 L292 649 L378 649 C489 649 533 620 533 545 C533 501 516 452 489 422 C453 383 393 363 310 363 L232 363 Z " />
<glyph glyph-name="S" unicode="S" horiz-adv-x="552" d="M530 676 L515 676 L471 633 C431 663 390 677 340 677 C211 677 93 564 93 439 C93 372 131 333 220 310 L301 290 C384 268 416 240 416 188 C416 90 327 10 219 10 C114 10 47 77 47 181 C47 187 47 197 48 207 L26 207 L-11 0 L4 0 L54 56 C101 8 143 -10 209 -10 C294 -10 368 28 420 97 C457 148 479 210 479 266 C479 342 438 385 340 409 L285 423 C189 446 155 471 155 515 C155 590 237 657 328 657 C417 657 473 605 473 524 L473 503 L495 503 L530 676 Z " />
<glyph glyph-name="T" unicode="T" horiz-adv-x="632" d="M428 649 L479 649 C581 648 615 605 628 457 L643 459 L673 667 L93 667 L41 459 L55 457 C82 518 102 551 134 587 C183 638 209 649 282 649 L335 649 L201 18 L91 18 L87 0 L401 0 L405 18 L295 18 L428 649 Z " />
<glyph glyph-name="U" unicode="U" horiz-adv-x="707" d="M287 649 L382 649 L386 667 L93 667 L89 649 L194 649 L109 249 C99 203 94 167 94 143 C94 42 166 -10 306 -10 C390 -10 455 15 502 67 C536 104 554 144 571 222 L661 649 L744 649 L748 667 L554 667 L550 649 L638 649 L547 222 C527 128 512 98 467 60 C427 26 381 10 328 10 C237 10 181 55 181 127 C181 145 184 163 193 205 L287 649 Z " />
<glyph glyph-name="V" unicode="V" horiz-adv-x="610" d="M319 144 L232 649 L338 649 L342 667 L53 667 L49 649 L120 649 L235 -10 L257 -10 L626 649 L699 649 L703 667 L496 667 L492 649 L601 649 L319 144 Z " />
<glyph glyph-name="W" unicode="W" horiz-adv-x="862" d="M578 143 L522 431 L654 649 L715 649 L719 667 L60 667 L56 649 L121 649 L237 -10 L257 -10 L442 292 L496 -10 L515 -10 L884 649 L944 649 L948 667 L763 667 L759 649 L859 649 L578 143 Z M231 649 L374 649 L435 325 L319 135 L231 649 Z M489 649 L621 649 L517 467 L489 649 Z " />
<glyph glyph-name="X" unicode="X" horiz-adv-x="641" d="M358 385 L597 649 L675 649 L679 667 L473 667 L469 649 L566 649 L350 408 L243 649 L351 649 L355 667 L60 667 L56 649 L117 649 L265 310 L8 18 L-68 18 L-72 0 L137 0 L140 18 L40 18 L274 288 L391 18 L293 18 L290 0 L581 0 L585 18 L518 18 L358 385 Z " />
<glyph glyph-name="Y" unicode="Y" horiz-adv-x="606" d="M351 312 L620 649 L696 649 L699 667 L490 667 L486 649 L593 649 L353 353 L232 649 L329 649 L333 667 L49 667 L45 649 L108 649 L258 312 L195 18 L85 18 L81 0 L404 0 L408 18 L289 18 L351 312 Z " />
<glyph glyph-name="Z" unicode="Z" horiz-adv-x="614" d="M493 0 L558 208 L543 208 C469 54 417 13 300 18 L86 18 L655 667 L160 667 L95 464 L110 464 C177 604 227 648 321 649 L522 649 L-33 24 L-38 0 L493 0 Z " />
<glyph glyph-name="bracketleft" unicode="&#x5b;" horiz-adv-x="291" d="M215 649 L351 649 L354 667 L144 667 L-36 -180 L175 -180 L178 -162 L43 -162 L215 649 Z " />
<glyph glyph-name="backslash" unicode="&#x5c;" horiz-adv-x="449" d="M116 667 L329 -180 L388 -180 L175 667 L116 667 Z " />
<glyph glyph-name="bracketright" unicode="&#x5d;" horiz-adv-x="291" d="M37 -162 L-98 -162 L-102 -180 L109 -180 L288 667 L78 667 L74 649 L209 649 L37 -162 Z " />
<glyph glyph-name="asciicircum" unicode="&#x5e;" horiz-adv-x="550" d="M567 285 L363 700 L356 700 L-38 285 L79 285 L369 591 L523 285 L567 285 Z " />
<glyph glyph-name="underscore" unicode="&#x5f;" horiz-adv-x="504" d="M-66 -88 L-76 -134 L381 -134 L391 -88 L-66 -88 Z " />
<glyph glyph-name="grave" unicode="&#x60;" horiz-adv-x="533" d="M257 613 L192 613 C183 613 178 610 178 605 C178 602 180 597 183 595 L315 466 C317 463 318 463 319 463 C321 463 323 465 323 467 C323 468 323 470 322 470 L257 613 Z " />
<glyph glyph-name="a" unicode="a" horiz-adv-x="464" d="M279 215 C174 212 124 203 70 174 C20 148 -11 106 -11 64 C-11 17 26 -10 89 -10 C153 -10 201 15 248 71 L247 50 C247 11 269 -10 308 -10 C335 -10 347 -6 388 18 L380 30 C364 19 354 15 343 15 C327 15 318 23 318 36 C318 39 318 39 322 57 L370 282 C372 295 374 308 374 320 C374 367 325 397 247 397 C154 397 65 345 65 290 C65 270 78 257 98 257 C124 257 148 280 148 304 C148 312 145 318 135 329 C129 335 127 339 127 341 C127 358 187 380 234 380 C275 380 303 363 303 338 C303 332 302 323 300 315 L279 215 Z M269 167 C261 131 252 106 241 89 C217 54 174 30 133 30 C94 30 69 51 69 82 C69 110 82 135 107 155 C145 186 190 198 276 200 L269 167 Z " />
<glyph glyph-name="b" unicode="b" horiz-adv-x="542" d="M241 667 L91 667 L87 649 L160 649 L26 18 L-47 18 L-51 0 L99 0 L114 69 C141 11 173 -10 231 -10 C359 -10 475 112 475 246 C475 336 413 397 322 397 C260 397 215 373 166 313 L241 667 Z M369 163 C355 98 345 70 329 49 C310 24 278 10 240 10 C174 10 131 56 131 127 C131 269 212 377 318 377 C367 377 395 352 395 310 C395 294 392 275 386 244 L369 163 Z " />
<glyph glyph-name="c" unicode="c" horiz-adv-x="443" d="M365 126 C325 51 260 10 180 10 C122 10 90 38 90 88 C90 107 93 125 101 165 L115 228 C137 335 182 377 274 377 C320 377 361 365 361 352 C361 348 359 346 349 340 C327 326 314 306 314 285 C314 263 327 249 349 249 C382 249 407 276 407 312 C407 362 355 397 281 397 C214 397 158 377 107 336 C45 286 9 218 9 151 C9 58 80 -10 179 -10 C226 -10 267 2 305 27 C343 51 360 73 388 126 L365 126 Z " />
<glyph glyph-name="d" unicode="d" horiz-adv-x="540" d="M300 0 L450 0 L454 18 L381 18 L518 667 L346 667 L342 649 L438 649 L365 307 C341 372 308 397 245 397 C118 397 9 279 9 141 C9 53 72 -10 161 -10 C225 -10 266 15 318 84 L300 0 Z M116 233 C126 277 138 315 149 332 C167 360 199 377 236 377 C302 377 345 329 345 257 C345 124 261 10 163 10 C115 10 90 35 90 81 C90 102 93 122 102 165 L116 233 Z " />
<glyph glyph-name="e" unicode="e" horiz-adv-x="475" d="M113 228 L414 228 C416 242 417 249 417 258 C417 340 353 397 262 397 C137 397 10 274 10 154 C10 62 86 -10 185 -10 C275 -10 355 44 390 130 L368 130 C335 56 264 10 184 10 C124 10 88 39 88 87 C88 100 91 125 97 151 L113 228 Z M318 246 L117 246 L125 280 C138 346 178 377 250 377 C304 377 331 358 331 322 C331 311 330 300 327 289 L318 246 Z " />
<glyph glyph-name="f" unicode="f" horiz-adv-x="328" d="M198 369 L310 369 L314 387 L202 387 L238 557 C249 609 255 624 274 640 C288 654 309 661 331 661 C350 661 360 658 369 649 C346 634 336 619 336 598 C336 579 348 566 364 566 C392 566 415 592 415 622 C415 654 384 677 341 677 C307 677 271 665 240 642 C187 603 162 561 144 474 L125 387 L29 387 L25 369 L121 369 L47 18 L-49 18 L-53 0 L224 0 L228 18 L124 18 L198 369 Z " />
<glyph glyph-name="g" unicode="g" horiz-adv-x="481" d="M70 18 C26 18 5 28 5 48 C5 72 39 104 98 133 C126 122 150 117 182 117 C242 117 299 140 341 179 C371 208 387 246 387 288 C387 308 383 321 372 343 C388 355 399 361 408 361 C416 361 420 357 420 350 C420 323 426 315 445 315 C466 315 485 336 485 361 C485 379 470 391 446 391 C421 391 403 383 364 353 C330 385 299 397 249 397 C135 397 45 322 45 227 C45 193 55 171 84 144 C76 139 76 139 62 130 C30 112 25 108 7 92 C-24 63 -39 32 -39 -1 C-39 -36 -20 -57 23 -69 C-47 -96 -76 -127 -76 -174 C-76 -233 -5 -274 99 -274 C247 -274 367 -175 367 -53 C367 1 341 18 257 18 L70 18 Z M137 288 C151 355 178 377 242 377 C290 377 314 363 314 335 C314 326 312 308 308 293 L294 228 C279 156 257 137 189 137 C141 137 118 152 118 183 C118 192 121 211 124 228 L137 288 Z M75 -70 L111 -70 L230 -70 C289 -70 292 -70 302 -76 C310 -81 314 -90 314 -101 C314 -118 306 -139 292 -161 C253 -219 185 -254 109 -254 C40 -254 0 -222 0 -168 C0 -131 17 -101 55 -70 L75 -70 Z " />
<glyph glyph-name="h" unicode="h" horiz-adv-x="574" d="M241 667 L91 667 L87 649 L160 649 L26 18 L-47 18 L-51 0 L180 0 L184 18 L103 18 L137 177 C154 258 173 299 210 331 C242 359 280 373 321 373 C365 373 391 355 391 324 C391 312 390 300 387 286 L330 18 L256 18 L253 0 L484 0 L487 18 L406 18 L463 286 C466 297 467 309 467 321 C467 371 427 397 352 397 C279 397 233 380 169 327 L241 667 Z " />
<glyph glyph-name="i" unicode="i" horiz-adv-x="291" d="M210 387 L52 387 L48 369 L129 369 L55 18 L-26 18 L-30 0 L201 0 L205 18 L132 18 L210 387 Z M218 654 C183 654 151 623 151 590 C151 565 169 547 194 547 C229 547 261 578 261 612 C261 636 243 654 218 654 L218 654 Z " />
<glyph glyph-name="j" unicode="j" horiz-adv-x="242" d="M181 387 L31 387 L27 369 L100 369 L-17 -182 C-28 -233 -47 -254 -82 -254 C-100 -254 -110 -247 -110 -236 C-110 -232 -107 -224 -103 -219 C-91 -201 -90 -199 -90 -186 C-90 -168 -101 -157 -120 -157 C-148 -157 -169 -183 -169 -218 C-169 -250 -136 -274 -93 -274 C-59 -274 -22 -260 6 -236 C47 -201 63 -167 82 -77 L181 387 Z M192 654 C158 654 126 623 126 590 C126 565 144 547 169 547 C203 547 235 578 235 612 C235 636 217 654 192 654 L192 654 Z " />
<glyph glyph-name="k" unicode="k" horiz-adv-x="539" d="M248 667 L91 667 L87 649 L168 649 L34 18 L-47 18 L-51 0 L180 0 L184 18 L111 18 L248 667 Z M265 250 L431 369 L505 369 L509 387 L294 387 L290 369 L394 369 L175 214 L298 18 L238 18 L234 0 L468 0 L472 18 L419 18 L265 250 Z " />
<glyph glyph-name="l" unicode="l" horiz-adv-x="271" d="M248 667 L80 667 L76 649 L168 649 L34 18 L-58 18 L-62 0 L191 0 L195 18 L111 18 L248 667 Z " />
<glyph glyph-name="m" unicode="m" horiz-adv-x="832" d="M202 387 L52 387 L48 369 L122 369 L47 18 L-26 18 L-30 0 L201 0 L205 18 L124 18 L160 189 C179 279 192 309 221 336 C245 359 285 374 320 374 C357 374 381 355 381 324 C381 317 380 307 378 299 L319 18 L245 18 L241 0 L472 0 L476 18 L395 18 L435 206 C453 289 465 315 500 343 C524 362 558 374 590 374 C627 374 651 356 651 329 L651 326 L648 299 L588 18 L515 18 L511 0 L742 0 L746 18 L665 18 L722 287 C725 302 727 317 727 328 C727 373 691 397 624 397 C562 397 517 381 463 343 C448 382 419 397 357 397 C295 397 250 382 193 343 L202 387 Z " />
<glyph glyph-name="n" unicode="n" horiz-adv-x="575" d="M202 387 L52 387 L48 369 L122 369 L47 18 L-26 18 L-30 0 L201 0 L205 18 L124 18 L158 178 C178 272 193 306 229 336 C258 359 297 374 332 374 C370 374 393 355 393 325 C393 315 392 303 389 292 L331 18 L258 18 L254 0 L485 0 L489 18 L408 18 L460 265 C464 281 466 300 466 310 C466 363 419 397 349 397 C290 397 245 378 190 330 L202 387 Z " />
<glyph glyph-name="o" unicode="o" horiz-adv-x="517" d="M272 397 C136 397 10 280 10 153 C10 59 83 -10 184 -10 C322 -10 448 107 448 234 C448 329 375 397 272 397 L272 397 Z M113 218 C124 271 138 314 149 329 C172 359 217 377 268 377 C329 377 368 350 368 308 C368 293 362 246 356 218 L345 169 C334 116 320 73 308 58 C283 28 239 10 189 10 C129 10 89 36 89 76 C89 91 96 136 103 169 L113 218 Z " />
<glyph glyph-name="p" unicode="p" horiz-adv-x="538" d="M181 387 L31 387 L27 369 L100 369 L-31 -249 L-104 -249 L-108 -267 L138 -267 L142 -249 L46 -249 L116 82 C141 15 172 -10 231 -10 C278 -10 319 4 358 34 C426 85 471 169 471 247 C471 336 411 397 324 397 C260 397 212 370 164 306 L181 387 Z M367 176 C355 118 337 69 319 46 C301 24 271 10 238 10 C178 10 135 62 135 134 C135 178 148 230 171 273 C205 338 262 377 322 377 C367 377 392 356 392 316 C392 300 389 279 383 249 L367 176 Z " />
<glyph glyph-name="q" unicode="q" horiz-adv-x="526" d="M367 387 L352 316 C325 375 293 397 235 397 C118 397 10 278 10 149 C10 53 68 -10 155 -10 C214 -10 250 12 302 77 L232 -249 L137 -249 L133 -267 L378 -267 L382 -249 L309 -249 L440 369 L513 369 L517 387 L367 387 Z M117 239 C128 290 138 318 153 337 C172 362 201 377 234 377 C291 377 333 331 333 269 C333 229 318 161 301 121 C271 52 215 10 155 10 C115 10 90 37 90 80 C90 100 93 126 100 159 L117 239 Z " />
<glyph glyph-name="r" unicode="r" horiz-adv-x="389" d="M202 387 L52 387 L48 369 L122 369 L47 18 L-26 18 L-30 0 L201 0 L205 18 L124 18 L149 134 C166 217 176 244 205 291 C232 335 260 360 282 360 C289 360 295 356 295 350 L295 344 C294 335 293 329 293 325 C293 306 305 294 325 294 C355 294 381 322 381 354 C381 381 361 397 327 397 C271 397 234 369 181 287 L202 387 Z " />
<glyph glyph-name="s" unicode="s" horiz-adv-x="392" d="M343 395 L328 395 L306 359 C272 387 245 397 207 397 C120 397 47 331 47 253 C47 203 74 174 128 164 L209 148 C252 140 271 125 271 99 C271 53 213 10 152 10 C105 10 69 31 49 71 C39 91 36 109 36 148 L17 148 L-14 0 L-3 0 L30 38 C69 2 96 -10 139 -10 C234 -10 311 63 311 151 C311 206 282 234 211 248 L163 257 C107 267 85 279 85 298 C85 339 138 377 195 377 C261 377 300 341 300 280 L319 280 L343 395 Z " />
<glyph glyph-name="t" unicode="t" horiz-adv-x="318" d="M185 369 L303 369 L307 387 L189 387 L223 546 L214 546 C176 478 92 403 33 384 L30 369 L109 369 L53 107 C48 84 46 69 46 60 C46 17 80 -10 134 -10 C198 -10 239 17 263 74 L241 74 C224 36 202 20 167 20 C138 20 121 34 121 57 C121 64 122 70 125 85 L185 369 Z " />
<glyph glyph-name="u" unicode="u" horiz-adv-x="562" d="M480 387 L322 387 L319 369 L400 369 L364 200 C346 117 325 72 291 46 C263 25 225 13 188 13 C144 13 124 30 124 66 C124 78 126 92 131 117 L189 387 L31 387 L27 369 L108 369 L57 131 C53 108 50 88 50 75 C50 20 93 -10 174 -10 C241 -10 284 9 334 60 L321 0 L471 0 L475 18 L402 18 L480 387 Z " />
<glyph glyph-name="v" unicode="v" horiz-adv-x="476" d="M153 -10 L187 -10 L434 369 L483 369 L487 387 L325 387 L322 369 L409 369 L223 85 L160 369 L247 369 L250 387 L11 387 L7 369 L63 369 L153 -10 Z " />
<glyph glyph-name="w" unicode="w" horiz-adv-x="673" d="M387 -10 L419 -10 L632 369 L680 369 L684 387 L540 387 L536 369 L606 369 L454 94 L395 387 L370 387 L209 94 L157 369 L236 369 L240 387 L11 387 L7 369 L63 369 L143 -9 L175 -9 L327 261 L387 -10 Z " />
<glyph glyph-name="x" unicode="x" horiz-adv-x="465" d="M241 230 L390 369 L449 369 L453 387 L291 387 L287 369 L360 369 L229 249 L163 369 L233 369 L237 387 L8 387 L4 369 L60 369 L162 182 L-15 18 L-70 18 L-74 0 L100 0 L104 18 L21 18 L174 163 L252 18 L197 18 L193 0 L399 0 L403 18 L356 18 L241 230 Z " />
<glyph glyph-name="y" unicode="y" horiz-adv-x="455" d="M224 94 L157 369 L231 369 L235 387 L12 387 L8 369 L59 369 L165 -6 L73 -161 C49 -201 42 -208 26 -208 C20 -208 15 -206 12 -200 C-1 -180 -10 -174 -29 -174 C-61 -174 -88 -200 -88 -231 C-88 -256 -68 -274 -39 -274 C11 -274 47 -245 92 -170 L415 369 L463 369 L466 387 L313 387 L309 369 L386 369 L224 94 Z " />
<glyph glyph-name="z" unicode="z" horiz-adv-x="441" d="M332 0 L370 164 L355 164 C300 42 271 18 177 18 L78 18 L424 387 L80 387 L44 238 L59 238 C117 349 143 368 239 369 L304 369 L-37 0 L332 0 Z " />
<glyph glyph-name="braceleft" unicode="&#x7b;" horiz-adv-x="291" d="M-17 250 C12 248 19 247 28 240 C39 231 47 216 47 202 C47 188 42 157 31 108 L13 22 C0 -40 -6 -77 -6 -97 C-6 -132 14 -160 48 -171 C69 -177 100 -180 154 -180 L158 -162 C92 -157 70 -138 70 -86 C70 -65 70 -62 84 0 L106 103 C117 157 119 169 119 186 C119 224 97 250 59 256 L60 260 C126 274 153 308 169 403 L190 501 C211 609 245 645 331 649 L334 667 C246 666 224 662 196 647 C147 615 130 580 108 469 L92 395 C68 288 54 270 -14 266 L-17 250 Z " />
<glyph glyph-name="bar" unicode="&#x7c;" horiz-adv-x="550" d="M314 667 L137 -167 L201 -167 L378 667 L314 667 Z " />
<glyph glyph-name="braceright" unicode="&#x7d;" horiz-adv-x="291" d="M275 266 C254 267 246 268 237 273 C223 279 213 297 213 313 C213 328 213 330 224 395 L240 469 C255 539 257 551 257 577 C257 615 241 645 213 656 C192 664 174 666 98 667 L94 649 C158 645 182 624 182 574 C182 555 180 539 172 501 L151 403 C140 352 139 346 139 328 C139 291 160 267 199 260 L198 256 C132 243 106 206 87 103 L65 0 C43 -123 12 -157 -78 -162 L-82 -180 C-2 -180 36 -174 64 -155 C110 -121 119 -102 145 22 L163 108 C185 203 187 210 210 230 C228 245 237 248 272 250 L275 266 Z " />
<glyph glyph-name="asciitilde" unicode="&#x7e;" horiz-adv-x="517" d="M423 374 C400 351 380 342 353 342 C340 342 317 346 305 350 L264 365 C243 372 229 375 213 375 C161 375 127 355 85 299 L94 294 C117 316 138 325 170 325 C186 325 202 322 221 316 L260 302 C282 295 296 292 310 292 C352 292 383 312 432 369 L423 374 Z " />
<glyph glyph-name="uni00A0" unicode="&#xa0;" horiz-adv-x="250" d="" />
<glyph glyph-name="exclamdown" unicode="&#xa1;" horiz-adv-x="301" d="M114 207 C77 54 69 26 30 -76 L-10 -174 C-18 -192 -22 -210 -22 -223 C-22 -253 -5 -274 21 -274 C62 -274 95 -230 95 -174 L97 -76 C100 20 105 58 132 207 L114 207 Z M167 410 C127 410 91 378 91 342 C91 316 113 297 142 297 C181 297 218 330 218 364 C218 390 196 410 167 410 L167 410 Z " />
<glyph glyph-name="cent" unicode="&#xa2;" horiz-adv-x="550" d="M379 665 L350 665 L324 545 C193 532 82 419 82 301 C82 213 145 147 238 140 L217 42 L246 42 L267 140 C356 147 424 194 461 276 L439 276 C407 209 347 168 272 160 L350 527 C391 528 435 514 434 502 L434 501 C434 497 432 496 423 490 C403 477 390 456 390 435 C390 413 403 399 424 399 C457 399 481 426 481 462 C481 512 430 545 354 547 L379 665 Z M243 161 C190 168 164 194 164 240 C164 258 167 282 174 314 L188 378 C212 479 245 516 320 525 L243 161 Z " />
<glyph glyph-name="sterling" unicode="&#xa3;" horiz-adv-x="550" d="M210 268 C236 231 243 215 243 189 C243 159 236 138 218 114 C174 134 129 144 82 144 C5 144 -52 109 -52 61 C-52 23 -14 0 50 0 C105 0 144 11 195 42 L233 17 C262 -1 292 -10 330 -10 C427 -10 492 52 519 171 L493 171 C486 135 479 118 463 98 C441 71 405 53 374 53 C350 53 311 66 277 85 L244 103 C271 153 285 196 285 234 C285 245 284 255 281 268 L427 268 L434 298 L271 298 L262 317 L227 381 C197 436 191 454 191 483 C191 517 205 554 229 585 C265 631 321 657 385 657 C448 657 492 630 492 592 C492 581 488 575 476 567 C438 544 428 532 428 509 C428 486 444 471 468 471 C509 471 545 512 545 561 C545 625 474 677 387 677 C244 677 107 570 107 459 C107 431 118 402 143 366 L190 298 L56 298 L49 268 L210 268 Z M176 58 C136 31 101 20 59 20 C6 20 -26 36 -26 63 C-26 88 5 109 41 109 C68 109 105 99 131 84 L176 58 Z " />
<glyph glyph-name="currency" unicode="&#xa4;" horiz-adv-x="550" d="M449 478 C414 511 370 527 319 527 C263 527 213 511 162 478 L104 545 L76 523 L135 457 C80 409 49 349 49 289 C49 255 58 226 79 196 L-8 130 L11 109 L98 175 C134 143 178 127 228 127 C284 127 336 143 385 175 L444 109 L472 130 L413 196 C468 245 498 305 498 364 C498 399 489 428 468 457 L555 523 L537 545 L449 478 Z M304 464 C378 464 434 416 434 352 C434 267 343 190 242 190 C169 190 113 238 113 302 C113 387 204 464 304 464 L304 464 Z " />
<glyph glyph-name="yen" unicode="&#xa5;" horiz-adv-x="550" d="M172 451 L54 451 L50 433 L178 433 L220 322 L59 322 L56 304 L227 304 L166 18 L72 18 L68 0 L344 0 L348 18 L246 18 L307 304 L483 304 L487 322 L321 322 L407 433 L543 433 L547 451 L419 451 L545 629 L610 629 L614 647 L434 647 L430 629 L519 629 L307 339 L212 629 L296 629 L300 647 L56 647 L52 629 L106 629 L172 451 Z " />
<glyph glyph-name="brokenbar" unicode="&#xa6;" horiz-adv-x="550" d="M314 667 L243 330 L306 330 L378 667 L314 667 Z M205 153 L137 -167 L201 -167 L269 153 L205 153 Z " />
<glyph glyph-name="section" unicode="&#xa7;" horiz-adv-x="550" d="M249 475 C195 504 181 519 181 548 C181 611 252 657 347 657 L352 657 C408 656 450 638 465 607 C437 601 425 597 414 589 C398 576 387 557 387 539 C387 518 403 503 427 503 C467 503 502 539 502 579 C502 638 442 677 350 677 C280 677 227 657 185 614 C151 580 130 533 130 490 C130 458 145 430 179 402 C133 384 111 370 89 345 C60 313 42 268 42 227 C42 180 61 158 133 118 L275 40 C338 6 353 -9 353 -41 C353 -118 273 -170 155 -170 C83 -170 41 -151 14 -109 C65 -105 101 -71 101 -28 C101 -4 84 13 59 13 C15 13 -24 -30 -24 -76 C-24 -142 47 -190 144 -190 C293 -190 411 -104 411 4 C411 52 392 79 331 118 C386 135 421 158 447 197 C466 226 476 257 476 288 C476 339 451 368 374 409 L249 475 Z M143 215 C102 237 87 256 87 286 C87 335 142 383 198 383 C220 383 246 376 265 366 L356 316 C418 282 434 265 434 236 C434 188 371 136 313 136 C298 136 285 140 264 151 L143 215 Z " />
<glyph glyph-name="dieresis" unicode="&#xa8;" horiz-adv-x="540" d="M228 583 C197 583 168 555 168 525 C168 503 184 487 207 487 C238 487 267 515 267 545 C267 567 251 583 228 583 L228 583 Z M419 583 C388 583 359 555 359 525 C359 503 375 487 398 487 C429 487 458 515 458 545 C458 567 442 583 419 583 L419 583 Z " />
<glyph glyph-name="copyright" unicode="&#xa9;" horiz-adv-x="865" d="M624 530 L610 530 L584 503 C553 527 526 536 489 536 C364 536 248 417 248 290 C248 204 313 138 397 138 C435 138 468 147 513 171 L528 143 L542 143 L566 255 L551 255 C505 185 461 156 400 156 C346 156 310 184 310 226 C310 282 346 430 368 464 C389 498 432 518 480 518 C544 518 581 485 587 425 L602 425 L624 530 Z M508 677 C266 677 44 481 44 269 C44 110 177 -10 354 -10 C599 -10 821 185 821 399 C821 559 688 677 508 677 L508 677 Z M501 649 C664 649 785 540 785 394 C785 197 583 18 361 18 C200 18 80 127 80 273 C80 469 282 649 501 649 L501 649 Z " />
<glyph glyph-name="ordfeminine" unicode="&#xaa;" horiz-adv-x="367" d="M338 330 L27 330 L20 297 L331 297 L338 330 Z M261 551 C199 549 168 543 134 524 C101 505 81 475 81 445 C81 413 104 394 144 394 C181 394 213 410 240 442 C239 438 239 437 239 435 C239 410 255 394 281 394 C300 394 308 397 339 415 L331 429 C319 420 314 417 307 417 C300 417 295 421 295 428 C295 430 295 430 298 442 L330 593 C332 603 333 612 333 620 C333 653 301 674 251 674 C189 674 131 637 131 598 C131 582 139 573 153 573 C171 573 189 591 189 610 C189 615 187 622 183 627 C182 629 181 632 181 633 C181 643 215 656 241 656 C262 656 277 646 277 631 C277 627 276 621 275 615 L261 551 Z M251 516 C246 492 241 476 234 465 C220 443 196 428 173 428 C154 428 140 440 140 458 C140 504 182 532 256 534 L251 516 Z " />
<glyph glyph-name="guillemotleft" unicode="&#xab;" horiz-adv-x="414" d="M149 200 L250 96 L305 96 L205 200 L349 304 L294 304 L149 200 Z M23 200 L123 96 L178 96 L79 200 L223 304 L168 304 L23 200 Z " />
<glyph glyph-name="logicalnot" unicode="&#xac;" horiz-adv-x="550" d="M340 0 L440 0 L497 267 L24 267 L15 224 L388 224 L340 0 Z " />
<glyph glyph-name="uni00AD" unicode="&#xad;" horiz-adv-x="208" d="M185 230 L-22 230 L-35 170 L173 170 L185 230 Z " />
<glyph glyph-name="registered" unicode="&#xae;" horiz-adv-x="865" d="M373 340 L412 340 C467 340 489 325 489 288 C489 282 488 275 487 268 L481 240 C479 230 477 215 477 206 C477 165 505 140 550 140 C569 140 580 142 602 151 L600 167 C585 161 577 159 569 159 C555 159 546 168 546 182 C546 187 547 197 550 208 L556 239 C558 247 559 255 559 262 C559 306 531 335 478 346 C562 357 615 400 615 456 C615 479 606 497 585 510 C563 525 537 530 475 530 L295 530 L292 513 L348 513 L273 160 L217 160 L213 143 L398 143 L402 160 L335 160 L373 340 Z M377 357 L410 513 L457 513 C522 513 547 497 547 456 C547 392 502 357 419 357 L377 357 Z M508 677 C266 677 44 481 44 269 C44 110 177 -10 354 -10 C599 -10 821 185 821 399 C821 559 688 677 508 677 L508 677 Z M501 649 C664 649 785 540 785 394 C785 197 583 18 361 18 C200 18 80 127 80 273 C80 469 282 649 501 649 L501 649 Z " />
<glyph glyph-name="macron" unicode="&#xaf;" horiz-adv-x="523" d="M433 499 L438 523 L165 523 L160 499 L433 499 Z " />
<glyph glyph-name="degree" unicode="&#xb0;" horiz-adv-x="400" d="M204 686 C118 686 50 619 50 534 C50 449 116 381 200 381 C284 381 350 448 350 534 C350 619 286 686 204 686 L204 686 Z M202 629 C252 629 293 586 293 534 C293 480 252 438 200 438 C148 438 106 481 106 533 C106 587 148 629 202 629 L202 629 Z " />
<glyph glyph-name="plusminus" unicode="&#xb1;" horiz-adv-x="550" d="M253 308 L216 131 L246 131 L284 308 L489 308 L495 338 L290 338 L328 515 L297 515 L260 338 L58 338 L51 308 L253 308 Z M-12 11 L425 11 L432 41 L-6 41 L-12 11 Z " />
<glyph glyph-name="twosuperior" unicode="&#xb2;" horiz-adv-x="359" d="M292 258 L315 369 L299 369 C278 311 278 311 232 310 L86 310 L209 402 C286 458 292 463 315 487 C343 517 357 544 357 570 C357 620 312 653 243 653 C164 653 99 605 99 547 C99 522 115 505 139 505 C162 505 181 522 181 541 C181 555 169 565 152 565 C147 565 142 564 137 563 C127 559 127 559 125 559 C123 559 121 561 121 565 C121 598 172 633 220 633 C260 633 287 606 287 565 C287 501 263 469 157 388 L28 290 L21 258 L292 258 Z " />
<glyph glyph-name="threesuperior" unicode="&#xb3;" horiz-adv-x="359" d="M128 477 L124 460 L153 460 C222 460 254 439 254 395 C254 319 210 271 141 271 C112 271 90 279 77 295 C76 296 75 298 75 299 C75 301 76 301 85 306 C103 315 110 326 110 343 C110 355 100 364 86 364 C63 364 42 341 42 316 C42 279 83 253 142 253 C194 253 240 268 273 296 C304 322 324 358 324 388 C324 434 291 461 223 469 C291 486 341 534 341 582 C341 623 298 653 239 653 C175 653 122 619 122 579 C122 564 132 553 146 553 C164 553 181 570 181 589 C181 597 176 605 168 609 C165 611 163 613 163 614 C163 622 198 633 224 633 C258 633 277 620 277 596 C277 573 266 534 256 518 C237 491 203 477 157 477 L128 477 Z " />
<glyph glyph-name="acute" unicode="&#xb4;" horiz-adv-x="533" d="M395 613 L269 470 C267 468 266 466 266 465 C266 464 267 462 268 462 L269 462 L270 463 L274 466 L460 595 C467 599 471 604 471 608 C471 611 468 613 460 613 L395 613 Z " />
<glyph glyph-name="mu" unicode="&#xb5;" horiz-adv-x="576" d="M442 500 L353 500 L354 131 C318 80 284 58 242 58 C184 58 150 99 150 169 L150 500 L62 500 L62 20 C62 -1 58 -26 51 -56 C34 -118 33 -123 33 -147 C33 -190 54 -219 83 -219 C112 -219 132 -189 132 -146 C132 -124 129 -111 113 -53 C103 -17 101 -8 101 21 L101 33 C143 -2 166 -13 200 -13 C250 -13 301 18 354 80 C362 48 367 36 377 21 C392 0 419 -13 449 -13 C510 -13 553 31 567 108 L540 109 C536 71 515 41 492 41 C462 41 442 77 442 131 L442 500 Z " />
<glyph glyph-name="paragraph" unicode="&#xb6;" horiz-adv-x="550" d="M150 -162 L61 -162 L57 -180 L396 -180 L400 -162 L330 -162 L502 649 L572 649 L576 667 L319 667 C247 667 193 652 150 621 C94 580 58 514 58 452 C58 365 121 312 225 312 L250 312 L150 -162 Z M193 -162 L365 649 L459 649 L287 -162 L193 -162 Z " />
<glyph glyph-name="periodcentered" unicode="&#xb7;" horiz-adv-x="271" d="M120 257 C81 257 44 224 44 189 C44 163 66 143 95 143 C135 143 171 175 171 211 C171 238 149 257 120 257 L120 257 Z " />
<glyph glyph-name="cedilla" unicode="&#xb8;" horiz-adv-x="550" d="M217 0 L196 0 L163 -65 C200 -73 215 -85 215 -106 C215 -135 183 -160 146 -160 C121 -160 98 -152 98 -143 C98 -141 98 -140 99 -139 C105 -127 106 -124 106 -113 C106 -103 102 -98 95 -98 C85 -98 78 -108 78 -125 C78 -156 107 -176 152 -176 C215 -176 274 -138 274 -98 C274 -73 245 -54 208 -56 L187 -56 L217 0 Z " />
<glyph glyph-name="onesuperior" unicode="&#xb9;" horiz-adv-x="359" d="M292 647 L145 641 L142 625 L213 625 C224 625 225 625 225 621 C225 620 225 620 223 613 L152 276 L68 276 L64 258 L282 258 L285 276 L213 276 L292 647 Z " />
<glyph glyph-name="ordmasculine" unicode="&#xba;" horiz-adv-x="367" d="M338 330 L27 330 L20 297 L331 297 L338 330 Z M257 674 C167 674 85 593 85 504 C85 440 131 394 195 394 C284 394 367 475 367 563 C367 628 321 674 257 674 L257 674 Z M161 550 C168 584 178 614 184 623 C198 642 223 654 251 654 C283 654 305 637 305 613 C305 599 305 599 296 550 L289 517 C281 481 273 455 266 445 C253 426 228 414 200 414 C168 414 146 430 146 454 C146 467 146 467 154 517 L161 550 Z " />
<glyph glyph-name="guillemotright" unicode="&#xbb;" horiz-adv-x="414" d="M208 200 L107 304 L52 304 L152 200 L8 96 L63 96 L208 200 Z M334 200 L233 304 L178 304 L278 200 L134 96 L189 96 L334 200 Z " />
<glyph glyph-name="onequarter" unicode="&#xbc;" horiz-adv-x="844" d="M292 647 L145 641 L142 625 L213 625 C224 625 225 625 225 621 C225 620 225 620 223 613 L152 276 L68 276 L64 258 L282 258 L285 276 L213 276 L292 647 Z M687 647 L650 647 L182 0 L219 0 L687 647 Z M681 103 L742 103 L733 59 L753 59 L776 168 L756 168 L747 124 L686 124 L743 393 L708 393 L465 132 L459 103 L620 103 L602 18 L538 18 L534 0 L720 0 L723 18 L663 18 L681 103 Z M624 124 L487 124 L665 315 L624 124 Z " />
<glyph glyph-name="onehalf" unicode="&#xbd;" horiz-adv-x="844" d="M292 647 L145 641 L142 625 L213 625 C224 625 225 625 225 621 C225 620 225 620 223 613 L152 276 L68 276 L64 258 L282 258 L285 276 L213 276 L292 647 Z M672 647 L635 647 L168 0 L205 0 L672 647 Z M721 0 L744 111 L728 111 C707 53 707 53 661 52 L515 52 L638 144 C716 200 722 205 745 229 C773 258 787 285 787 311 C787 361 742 394 672 394 C593 394 528 346 528 289 C528 264 544 247 568 247 C591 247 610 263 610 283 C610 296 597 307 581 307 C575 307 572 306 558 302 C557 301 555 301 554 301 C552 301 550 303 550 307 C550 339 602 374 649 374 C690 374 717 347 717 306 C717 279 709 252 696 231 C678 203 659 186 586 130 L457 32 L450 0 L721 0 Z " />
<glyph glyph-name="threequarters" unicode="&#xbe;" horiz-adv-x="844" d="M128 477 L124 460 L153 460 C222 460 254 439 254 395 C254 319 210 271 141 271 C112 271 90 279 77 295 C76 296 75 298 75 299 C75 301 76 301 85 306 C103 315 110 326 110 343 C110 355 100 364 86 364 C63 364 42 341 42 316 C42 279 83 253 142 253 C194 253 240 268 273 296 C304 322 324 358 324 388 C324 434 291 461 223 469 C291 486 341 534 341 582 C341 623 298 653 239 653 C175 653 122 619 122 579 C122 564 132 553 146 553 C164 553 181 570 181 589 C181 597 176 605 168 609 C165 611 163 613 163 614 C163 622 198 633 224 633 C258 633 277 620 277 596 C277 573 266 534 256 518 C237 491 203 477 157 477 L128 477 Z M687 647 L650 647 L183 0 L220 0 L687 647 Z M682 103 L743 103 L733 59 L753 59 L776 168 L756 168 L747 124 L686 124 L743 393 L709 393 L466 132 L460 103 L620 103 L602 18 L538 18 L535 0 L720 0 L723 18 L663 18 L682 103 Z M625 124 L487 124 L665 315 L625 124 Z " />
<glyph glyph-name="questiondown" unicode="&#xbf;" horiz-adv-x="415" d="M225 207 C212 142 200 127 129 79 L64 38 C19 10 -6 -15 -27 -51 C-45 -82 -55 -116 -55 -145 C-55 -224 -1 -274 84 -274 C183 -274 273 -203 273 -125 C273 -101 259 -84 238 -84 C211 -84 188 -110 188 -139 C188 -153 195 -163 211 -172 C223 -178 226 -182 226 -187 C226 -218 152 -254 89 -254 C22 -254 -23 -223 -23 -177 C-23 -145 3 -111 58 -72 L99 -43 C191 17 229 85 241 211 L225 207 Z M270 410 C230 410 194 378 194 342 C194 316 216 297 245 297 C284 297 321 330 321 364 C321 390 299 410 270 410 L270 410 Z " />
<glyph glyph-name="Agrave" unicode="&#xc0;" horiz-adv-x="667" d="M370 833 L274 833 C264 833 259 830 259 824 C259 820 262 817 269 814 L470 721 C471 720 474 720 476 720 C479 720 481 722 481 725 C481 727 480 728 478 731 L370 833 Z M377 214 L409 18 L305 18 L301 0 L600 0 L604 18 L520 18 L418 667 L388 667 L0 18 L-70 18 L-74 0 L121 0 L125 18 L28 18 L143 214 L377 214 Z M374 232 L155 232 L327 527 L374 232 Z " />
<glyph glyph-name="Aacute" unicode="&#xc1;" horiz-adv-x="667" d="M523 833 L372 731 C367 727 366 726 366 723 C366 721 367 720 369 720 C371 720 374 720 376 721 L617 814 C628 818 632 822 632 827 C632 831 628 833 620 833 L523 833 Z M377 214 L409 18 L305 18 L301 0 L600 0 L604 18 L520 18 L418 667 L388 667 L0 18 L-70 18 L-74 0 L121 0 L125 18 L28 18 L143 214 L377 214 Z M374 232 L155 232 L327 527 L374 232 Z " />
<glyph glyph-name="Acircumflex" unicode="&#xc2;" horiz-adv-x="667" d="M425 769 L562 721 C563 720 565 720 566 720 C570 720 572 722 572 724 C572 725 571 727 568 730 L439 838 L265 730 C260 727 258 725 258 723 C258 721 260 720 262 720 C264 720 265 720 267 721 L425 769 Z M377 214 L409 18 L305 18 L301 0 L600 0 L604 18 L520 18 L418 667 L388 667 L0 18 L-70 18 L-74 0 L121 0 L125 18 L28 18 L143 214 L377 214 Z M374 232 L155 232 L327 527 L374 232 Z " />
<glyph glyph-name="Atilde" unicode="&#xc3;" horiz-adv-x="667" d="M596 815 C573 793 553 784 526 784 C513 784 489 788 478 792 L437 806 C413 815 402 817 386 817 C334 817 300 797 258 741 L267 735 C290 758 311 767 343 767 C359 767 373 764 394 757 L433 744 C458 736 469 733 483 733 C525 733 556 753 605 810 L596 815 Z M377 214 L409 18 L305 18 L301 0 L600 0 L604 18 L520 18 L418 667 L388 667 L0 18 L-70 18 L-74 0 L121 0 L125 18 L28 18 L143 214 L377 214 Z M374 232 L155 232 L327 527 L374 232 Z " />
<glyph glyph-name="Adieresis" unicode="&#xc4;" horiz-adv-x="667" d="M320 823 C289 823 260 795 260 765 C260 743 276 727 299 727 C330 727 359 755 359 785 C359 807 343 823 320 823 L320 823 Z M553 823 C522 823 493 795 493 765 C493 743 509 727 532 727 C563 727 592 755 592 785 C592 807 576 823 553 823 L553 823 Z M377 214 L409 18 L305 18 L301 0 L600 0 L604 18 L520 18 L418 667 L388 667 L0 18 L-70 18 L-74 0 L121 0 L125 18 L28 18 L143 214 L377 214 Z M374 232 L155 232 L327 527 L374 232 Z " />
<glyph glyph-name="Aring" unicode="&#xc5;" horiz-adv-x="667" d="M445 859 C395 859 350 815 350 766 C350 731 375 707 411 707 C461 707 505 750 505 800 C505 834 479 859 445 859 L445 859 Z M438 832 C459 832 476 815 476 793 C476 763 446 734 416 734 C395 734 379 751 379 773 C379 802 409 832 438 832 L438 832 Z M377 214 L409 18 L305 18 L301 0 L600 0 L604 18 L520 18 L418 667 L388 667 L0 18 L-70 18 L-74 0 L121 0 L125 18 L28 18 L143 214 L377 214 Z M374 232 L155 232 L327 527 L374 232 Z " />
<glyph glyph-name="AE" unicode="&#xc6;" horiz-adv-x="928" d="M911 667 L348 667 L344 649 L453 649 L-15 18 L-96 18 L-100 0 L120 0 L123 18 L13 18 L156 211 L390 211 L349 18 L254 18 L250 0 L793 0 L859 207 L845 207 C816 151 795 117 775 92 C719 26 697 17 597 18 L442 18 L508 329 L559 329 C635 329 667 307 667 254 C667 242 666 231 664 221 L659 197 L673 197 L732 472 L717 472 L713 453 C696 376 656 347 566 347 L512 347 L576 649 L675 649 C827 650 867 617 872 486 L887 486 L911 667 Z M394 229 L169 229 L483 649 L394 229 Z " />
<glyph glyph-name="Ccedilla" unicode="&#xc7;" horiz-adv-x="650" d="M289 -10 C352 -10 411 8 486 50 L512 0 L527 0 L566 185 L551 185 C518 133 500 110 473 85 C421 37 355 10 290 10 C196 10 134 60 134 135 C134 174 145 245 168 350 C191 452 214 522 236 559 C274 620 349 657 432 657 C493 657 544 637 577 599 C603 570 612 544 617 494 L631 494 L668 667 L654 667 L607 617 C553 661 509 677 445 677 C332 677 214 615 135 513 C78 439 41 336 41 249 C41 174 72 100 123 52 C163 16 206 -3 267 -9 L238 -67 C275 -75 291 -87 291 -110 C291 -140 258 -165 219 -165 C193 -165 169 -156 169 -147 C169 -146 169 -145 170 -144 C177 -130 178 -128 178 -117 C178 -107 174 -101 166 -101 C155 -101 148 -112 148 -128 C148 -160 179 -181 226 -181 C292 -181 354 -142 354 -101 C354 -73 327 -58 279 -58 L263 -58 L289 -10 Z " />
<glyph glyph-name="Egrave" unicode="&#xc8;" horiz-adv-x="644" d="M401 833 L304 833 C294 833 289 830 289 824 C289 820 292 817 300 814 L501 721 C502 720 505 720 507 720 C510 720 512 722 512 725 C512 727 512 728 509 731 L401 833 Z M627 667 L108 667 L104 649 L199 649 L65 18 L-30 18 L-34 0 L510 0 L576 208 L561 208 C532 150 512 117 491 92 C436 26 414 17 313 18 L159 18 L225 329 L276 329 C352 329 384 307 384 255 C384 245 383 234 380 221 L375 198 L390 198 L448 472 L433 472 L429 453 C413 376 372 347 283 347 L228 347 L292 649 L391 649 C543 650 584 617 589 486 L603 486 L627 667 Z " />
<glyph glyph-name="Eacute" unicode="&#xc9;" horiz-adv-x="644" d="M522 833 L371 731 C365 727 364 726 364 723 C364 721 365 720 367 720 C370 720 373 720 374 721 L615 814 C626 818 630 822 630 827 C630 831 626 833 618 833 L522 833 Z M627 667 L108 667 L104 649 L199 649 L65 18 L-30 18 L-34 0 L510 0 L576 208 L561 208 C532 150 512 117 491 92 C436 26 414 17 313 18 L159 18 L225 329 L276 329 C352 329 384 307 384 255 C384 245 383 234 380 221 L375 198 L390 198 L448 472 L433 472 L429 453 C413 376 372 347 283 347 L228 347 L292 649 L391 649 C543 650 584 617 589 486 L603 486 L627 667 Z " />
<glyph glyph-name="Ecircumflex" unicode="&#xca;" horiz-adv-x="644" d="M436 769 L573 721 C574 720 576 720 577 720 C581 720 583 722 583 724 C583 725 582 727 579 730 L451 838 L276 730 C271 726 269 725 269 723 C269 721 271 720 273 720 C275 720 277 720 278 721 L436 769 Z M627 667 L108 667 L104 649 L199 649 L65 18 L-30 18 L-34 0 L510 0 L576 208 L561 208 C532 150 512 117 491 92 C436 26 414 17 313 18 L159 18 L225 329 L276 329 C352 329 384 307 384 255 C384 245 383 234 380 221 L375 198 L390 198 L448 472 L433 472 L429 453 C413 376 372 347 283 347 L228 347 L292 649 L391 649 C543 650 584 617 589 486 L603 486 L627 667 Z " />
<glyph glyph-name="Edieresis" unicode="&#xcb;" horiz-adv-x="644" d="M329 823 C298 823 269 795 269 765 C269 743 285 727 308 727 C339 727 368 755 368 785 C368 807 352 823 329 823 L329 823 Z M562 823 C531 823 502 795 502 765 C502 743 518 727 541 727 C572 727 601 755 601 785 C601 807 585 823 562 823 L562 823 Z M627 667 L108 667 L104 649 L199 649 L65 18 L-30 18 L-34 0 L510 0 L576 208 L561 208 C532 150 512 117 491 92 C436 26 414 17 313 18 L159 18 L225 329 L276 329 C352 329 384 307 384 255 C384 245 383 234 380 221 L375 198 L390 198 L448 472 L433 472 L429 453 C413 376 372 347 283 347 L228 347 L292 649 L391 649 C543 650 584 617 589 486 L603 486 L627 667 Z " />
<glyph glyph-name="Igrave" unicode="&#xcc;" horiz-adv-x="367" d="M65 18 L-30 18 L-34 0 L259 0 L263 18 L159 18 L292 649 L397 649 L401 667 L108 667 L104 649 L199 649 L65 18 Z M246 833 L149 833 C139 833 134 830 134 824 C134 820 137 817 145 814 L346 721 C347 720 350 720 352 720 C355 720 357 722 357 725 C357 727 357 728 354 731 L246 833 Z " />
<glyph glyph-name="Iacute" unicode="&#xcd;" horiz-adv-x="367" d="M65 18 L-30 18 L-34 0 L259 0 L263 18 L159 18 L292 649 L397 649 L401 667 L108 667 L104 649 L199 649 L65 18 Z M375 833 L225 731 C219 727 218 726 218 723 C218 721 219 720 221 720 C224 720 227 720 228 721 L469 814 C480 818 484 822 484 827 C484 831 480 833 472 833 L375 833 Z " />
<glyph glyph-name="Icircumflex" unicode="&#xce;" horiz-adv-x="367" d="M65 18 L-30 18 L-34 0 L259 0 L263 18 L159 18 L292 649 L397 649 L401 667 L108 667 L104 649 L199 649 L65 18 Z M276 769 L413 721 C415 720 416 720 418 720 C421 720 424 722 424 724 C424 725 423 726 419 730 L291 838 L117 730 C111 726 109 725 109 723 C109 721 111 720 113 720 C115 720 117 720 118 721 L276 769 Z " />
<glyph glyph-name="Idieresis" unicode="&#xcf;" horiz-adv-x="367" d="M65 18 L-30 18 L-34 0 L259 0 L263 18 L159 18 L292 649 L397 649 L401 667 L108 667 L104 649 L199 649 L65 18 Z M195 823 C164 823 135 795 135 765 C135 743 151 727 174 727 C205 727 234 755 234 785 C234 807 218 823 195 823 L195 823 Z M381 823 C350 823 321 795 321 765 C321 743 337 727 359 727 C390 727 419 755 419 785 C419 807 403 823 381 823 L381 823 Z " />
<glyph glyph-name="Eth" unicode="&#xd0;" horiz-adv-x="741" d="M131 330 L65 18 L-30 18 L-34 0 L235 0 C325 0 382 8 427 26 C490 51 549 92 593 143 C660 219 698 316 698 411 C698 476 680 531 645 574 C590 641 516 667 376 667 L108 667 L104 649 L199 649 L135 348 L40 348 L36 330 L131 330 Z M227 330 L405 330 L409 348 L231 348 L295 649 L371 649 C538 649 601 610 601 507 C601 463 592 402 574 324 C540 173 514 113 466 75 C415 34 351 18 239 18 L161 18 L227 330 Z " />
<glyph glyph-name="Ntilde" unicode="&#xd1;" horiz-adv-x="746" d="M643 815 C621 793 601 784 573 784 C561 784 537 788 526 792 L485 806 C460 815 450 817 433 817 C381 817 348 797 306 741 L314 735 C338 758 358 767 390 767 C406 767 421 764 441 757 L481 744 C505 736 517 733 530 733 C572 733 604 753 653 810 L643 815 Z M542 0 L558 0 L696 649 L777 649 L781 667 L579 667 L575 649 L673 649 L574 185 L329 667 L97 667 L93 649 L188 649 L54 18 L-41 18 L-45 0 L179 0 L183 18 L78 18 L210 644 L542 0 Z " />
<glyph glyph-name="Ograve" unicode="&#xd2;" horiz-adv-x="727" d="M419 833 L322 833 C313 833 309 830 308 825 L308 824 C308 820 310 817 318 814 L519 721 C520 720 523 720 525 720 C528 720 530 722 530 725 L530 726 C530 727 529 728 527 731 L419 833 Z M437 677 C336 677 228 624 152 536 C82 456 42 351 42 245 C42 98 146 -10 287 -10 C498 -10 685 193 685 421 C685 570 581 677 437 677 L437 677 Z M433 657 C532 657 592 607 592 523 C592 491 586 448 569 367 C535 207 523 163 501 123 C462 51 385 10 291 10 C251 10 209 22 181 42 C149 65 134 97 134 146 C134 178 140 217 157 300 C191 462 203 503 225 544 C263 615 340 657 433 657 L433 657 Z " />
<glyph glyph-name="Oacute" unicode="&#xd3;" horiz-adv-x="727" d="M553 833 L402 731 C397 727 396 726 396 723 C396 721 397 720 399 720 C401 720 404 720 406 721 L647 814 C658 818 662 822 662 827 C662 831 658 833 650 833 L553 833 Z M437 677 C336 677 228 624 152 536 C82 456 42 351 42 245 C42 98 146 -10 287 -10 C498 -10 685 193 685 421 C685 570 581 677 437 677 L437 677 Z M433 657 C532 657 592 607 592 523 C592 491 586 448 569 367 C535 207 523 163 501 123 C462 51 385 10 291 10 C251 10 209 22 181 42 C149 65 134 97 134 146 C134 178 140 217 157 300 C191 462 203 503 225 544 C263 615 340 657 433 657 L433 657 Z " />
<glyph glyph-name="Ocircumflex" unicode="&#xd4;" horiz-adv-x="727" d="M456 769 L593 721 C594 720 596 720 597 720 C601 720 603 721 603 724 C603 725 601 728 599 730 L471 838 L296 730 C291 726 289 725 289 723 C289 721 291 720 293 720 C295 720 297 720 298 721 L456 769 Z M437 677 C336 677 228 624 152 536 C82 456 42 351 42 245 C42 98 146 -10 287 -10 C498 -10 685 193 685 421 C685 570 581 677 437 677 L437 677 Z M433 657 C532 657 592 607 592 523 C592 491 586 448 569 367 C535 207 523 163 501 123 C462 51 385 10 291 10 C251 10 209 22 181 42 C149 65 134 97 134 146 C134 178 140 217 157 300 C191 462 203 503 225 544 C263 615 340 657 433 657 L433 657 Z " />
<glyph glyph-name="Otilde" unicode="&#xd5;" horiz-adv-x="727" d="M629 815 C606 793 586 784 559 784 C546 784 522 788 511 792 L470 806 C446 815 435 817 419 817 C367 817 333 797 291 741 L300 735 C323 758 344 767 376 767 C392 767 406 764 427 757 L466 744 C491 736 502 733 516 733 C558 733 589 753 638 810 L629 815 Z M437 677 C336 677 228 624 152 536 C82 456 42 351 42 245 C42 98 146 -10 287 -10 C498 -10 685 193 685 421 C685 570 581 677 437 677 L437 677 Z M433 657 C532 657 592 607 592 523 C592 491 586 448 569 367 C535 207 523 163 501 123 C462 51 385 10 291 10 C251 10 209 22 181 42 C149 65 134 97 134 146 C134 178 140 217 157 300 C191 462 203 503 225 544 C263 615 340 657 433 657 L433 657 Z " />
<glyph glyph-name="Odieresis" unicode="&#xd6;" horiz-adv-x="727" d="M351 823 C320 823 291 795 291 765 C291 743 307 727 330 727 C361 727 390 755 390 785 C390 807 373 823 351 823 L351 823 Z M584 823 C553 823 524 795 524 765 C524 743 540 727 563 727 C594 727 623 755 623 785 C623 807 606 823 584 823 L584 823 Z M437 677 C336 677 228 624 152 536 C82 456 42 351 42 245 C42 98 146 -10 287 -10 C498 -10 685 193 685 421 C685 570 581 677 437 677 L437 677 Z M433 657 C532 657 592 607 592 523 C592 491 586 448 569 367 C535 207 523 163 501 123 C462 51 385 10 291 10 C251 10 209 22 181 42 C149 65 134 97 134 146 C134 178 140 217 157 300 C191 462 203 503 225 544 C263 615 340 657 433 657 L433 657 Z " />
<glyph glyph-name="multiply" unicode="&#xd7;" horiz-adv-x="550" d="M269 302 L392 163 L420 184 L297 323 L480 463 L461 484 L278 345 L154 484 L126 463 L250 323 L67 184 L86 163 L269 302 Z " />
<glyph glyph-name="Oslash" unicode="&#xd8;" horiz-adv-x="726" d="M20 2 L35 -11 L110 65 C159 14 217 -10 290 -10 C391 -10 497 42 575 131 C645 210 685 316 685 422 C685 487 666 544 629 588 L707 667 L690 679 L615 603 C565 654 509 677 437 677 C335 677 229 625 152 536 C82 457 42 351 42 245 C42 180 59 128 97 80 L20 2 Z M136 119 C135 128 134 135 134 143 C134 175 141 222 157 300 C191 458 203 504 225 544 C263 615 341 657 433 657 C508 657 568 624 585 573 L136 119 Z M590 550 C592 540 592 534 592 524 C592 491 586 449 568 367 C534 201 523 164 501 123 C463 52 386 10 294 10 C217 10 159 43 141 97 L590 550 Z " />
<glyph glyph-name="Ugrave" unicode="&#xd9;" horiz-adv-x="707" d="M444 833 L347 833 C337 833 332 830 332 824 C332 820 335 817 342 814 L544 721 C545 720 548 720 550 720 C553 720 555 722 555 725 C555 727 555 727 551 731 L444 833 Z M287 649 L382 649 L386 667 L93 667 L89 649 L194 649 L109 249 C99 203 94 167 94 143 C94 42 166 -10 306 -10 C390 -10 455 15 502 67 C536 104 554 144 571 222 L661 649 L744 649 L748 667 L554 667 L550 649 L638 649 L547 222 C527 128 512 98 467 60 C427 26 381 10 328 10 C237 10 181 55 181 127 C181 145 184 163 193 205 L287 649 Z " />
<glyph glyph-name="Uacute" unicode="&#xda;" horiz-adv-x="707" d="M575 833 L424 731 C418 727 417 726 417 723 C417 721 418 720 420 720 C423 720 426 720 427 721 L668 814 C678 818 683 822 683 827 C683 831 679 833 671 833 L575 833 Z M287 649 L382 649 L386 667 L93 667 L89 649 L194 649 L109 249 C99 203 94 167 94 143 C94 42 166 -10 306 -10 C390 -10 455 15 502 67 C536 104 554 144 571 222 L661 649 L744 649 L748 667 L554 667 L550 649 L638 649 L547 222 C527 128 512 98 467 60 C427 26 381 10 328 10 C237 10 181 55 181 127 C181 145 184 163 193 205 L287 649 Z " />
<glyph glyph-name="Ucircumflex" unicode="&#xdb;" horiz-adv-x="707" d="M475 769 L612 721 C613 720 615 720 616 720 C620 720 622 722 622 724 C622 725 621 727 618 730 L490 838 L315 730 C310 726 308 725 308 723 C308 721 310 720 312 720 C314 720 315 720 317 721 L475 769 Z M287 649 L382 649 L386 667 L93 667 L89 649 L194 649 L109 249 C99 203 94 167 94 143 C94 42 166 -10 306 -10 C390 -10 455 15 502 67 C536 104 554 144 571 222 L661 649 L744 649 L748 667 L554 667 L550 649 L638 649 L547 222 C527 128 512 98 467 60 C427 26 381 10 328 10 C237 10 181 55 181 127 C181 145 184 163 193 205 L287 649 Z " />
<glyph glyph-name="Udieresis" unicode="&#xdc;" horiz-adv-x="707" d="M374 823 C343 823 314 795 314 765 C314 743 330 727 353 727 C384 727 413 755 413 785 C413 807 397 823 374 823 L374 823 Z M607 823 C576 823 547 795 547 765 C547 743 563 727 586 727 C617 727 646 755 646 785 C646 807 630 823 607 823 L607 823 Z M287 649 L382 649 L386 667 L93 667 L89 649 L194 649 L109 249 C99 203 94 167 94 143 C94 42 166 -10 306 -10 C390 -10 455 15 502 67 C536 104 554 144 571 222 L661 649 L744 649 L748 667 L554 667 L550 649 L638 649 L547 222 C527 128 512 98 467 60 C427 26 381 10 328 10 C237 10 181 55 181 127 C181 145 184 163 193 205 L287 649 Z " />
<glyph glyph-name="Yacute" unicode="&#xdd;" horiz-adv-x="606" d="M538 833 L388 731 C382 727 381 726 381 723 C381 721 382 720 384 720 C386 720 390 720 391 721 L632 814 C643 818 647 822 647 827 C647 831 643 833 635 833 L538 833 Z M351 312 L620 649 L696 649 L699 667 L490 667 L486 649 L593 649 L353 353 L232 649 L329 649 L333 667 L49 667 L45 649 L108 649 L258 312 L195 18 L85 18 L81 0 L404 0 L408 18 L289 18 L351 312 Z " />
<glyph glyph-name="Thorn" unicode="&#xde;" horiz-adv-x="637" d="M198 203 L318 203 C427 203 496 224 553 275 C595 311 617 356 617 403 C617 440 601 476 573 501 C539 532 480 547 391 547 L271 547 L292 649 L404 649 L408 667 L108 667 L104 649 L199 649 L65 18 L-30 18 L-34 0 L267 0 L271 18 L159 18 L198 203 Z M202 221 L267 529 L379 529 C474 529 510 507 510 449 C510 412 498 351 482 312 C456 244 413 221 314 221 L202 221 Z " />
<glyph glyph-name="germandbls" unicode="&#xdf;" horiz-adv-x="535" d="M103 18 L142 203 C156 268 172 302 201 328 C230 355 282 373 329 373 C368 373 394 355 394 329 C394 305 375 277 349 262 C325 249 302 244 256 244 L253 226 C292 226 303 225 323 220 C356 210 373 183 373 141 C373 108 362 73 344 45 C329 21 311 10 285 10 C264 10 245 19 245 28 C245 30 247 33 253 38 C270 51 279 68 279 87 C279 102 267 113 251 113 C224 113 203 89 203 57 C203 19 240 -10 288 -10 C369 -10 450 61 450 132 C450 163 432 192 403 208 C380 221 362 226 315 235 C370 238 397 244 422 259 C453 277 471 304 471 333 C471 373 430 397 360 397 C276 397 224 378 168 325 L195 450 C225 591 274 657 349 657 C367 657 380 651 380 642 C380 639 378 635 370 628 C359 616 352 604 352 594 C352 576 364 565 383 565 C413 565 437 590 437 621 C437 656 408 677 357 677 C311 677 272 662 229 628 C163 575 132 516 107 401 L26 18 L-47 18 L-51 0 L160 0 L164 18 L103 18 Z " />
<glyph glyph-name="agrave" unicode="&#xe0;" horiz-adv-x="464" d="M274 613 L209 613 C200 613 195 610 195 605 C195 602 197 598 201 595 L332 466 C335 463 335 463 336 463 C338 463 340 465 340 467 L340 470 L274 613 Z M279 215 C174 212 124 203 70 174 C20 148 -11 106 -11 64 C-11 17 26 -10 89 -10 C153 -10 201 15 248 71 L247 50 C247 11 269 -10 308 -10 C335 -10 347 -6 388 18 L380 30 C364 19 354 15 343 15 C327 15 318 23 318 36 C318 39 318 39 322 57 L370 282 C372 295 374 308 374 320 C374 367 325 397 247 397 C154 397 65 345 65 290 C65 270 78 257 98 257 C124 257 148 280 148 304 C148 312 145 318 135 329 C129 335 127 339 127 341 C127 358 187 380 234 380 C275 380 303 363 303 338 C303 332 302 323 300 315 L279 215 Z M269 167 C261 131 252 106 241 89 C217 54 174 30 133 30 C94 30 69 51 69 82 C69 110 82 135 107 155 C145 186 190 198 276 200 L269 167 Z " />
<glyph glyph-name="aacute" unicode="&#xe1;" horiz-adv-x="464" d="M377 613 L251 470 C249 468 248 466 248 465 C248 464 249 462 250 462 L251 462 L253 463 L257 466 L443 595 C449 599 453 604 453 608 C453 611 450 613 442 613 L377 613 Z M279 215 C174 212 124 203 70 174 C20 148 -11 106 -11 64 C-11 17 26 -10 89 -10 C153 -10 201 15 248 71 L247 50 C247 11 269 -10 308 -10 C335 -10 347 -6 388 18 L380 30 C364 19 354 15 343 15 C327 15 318 23 318 36 C318 39 318 39 322 57 L370 282 C372 295 374 308 374 320 C374 367 325 397 247 397 C154 397 65 345 65 290 C65 270 78 257 98 257 C124 257 148 280 148 304 C148 312 145 318 135 329 C129 335 127 339 127 341 C127 358 187 380 234 380 C275 380 303 363 303 338 C303 332 302 323 300 315 L279 215 Z M269 167 C261 131 252 106 241 89 C217 54 174 30 133 30 C94 30 69 51 69 82 C69 110 82 135 107 155 C145 186 190 198 276 200 L269 167 Z " />
<glyph glyph-name="acircumflex" unicode="&#xe2;" horiz-adv-x="464" d="M286 541 L404 465 C405 464 407 463 409 463 C411 463 413 464 413 467 C413 469 412 471 409 474 L302 617 L135 474 C128 469 127 467 127 465 C127 464 128 463 130 463 C132 463 134 464 137 465 L286 541 Z M279 215 C174 212 124 203 70 174 C20 148 -11 106 -11 64 C-11 17 26 -10 89 -10 C153 -10 201 15 248 71 L247 50 C247 11 269 -10 308 -10 C335 -10 347 -6 388 18 L380 30 C364 19 354 15 343 15 C327 15 318 23 318 36 C318 39 318 39 322 57 L370 282 C372 295 374 308 374 320 C374 367 325 397 247 397 C154 397 65 345 65 290 C65 270 78 257 98 257 C124 257 148 280 148 304 C148 312 145 318 135 329 C129 335 127 339 127 341 C127 358 187 380 234 380 C275 380 303 363 303 338 C303 332 302 323 300 315 L279 215 Z M269 167 C261 131 252 106 241 89 C217 54 174 30 133 30 C94 30 69 51 69 82 C69 110 82 135 107 155 C145 186 190 198 276 200 L269 167 Z " />
<glyph glyph-name="atilde" unicode="&#xe3;" horiz-adv-x="464" d="M436 572 C415 550 397 541 373 541 C361 541 341 545 330 549 L293 563 C274 570 262 573 247 573 C200 573 170 554 131 499 L139 493 C160 515 179 524 207 524 C222 524 237 521 253 515 L289 502 C307 495 321 492 333 492 C371 492 400 512 444 567 L436 572 Z M279 215 C174 212 124 203 70 174 C20 148 -11 106 -11 64 C-11 17 26 -10 89 -10 C153 -10 201 15 248 71 L247 50 C247 11 269 -10 308 -10 C335 -10 347 -6 388 18 L380 30 C364 19 354 15 343 15 C327 15 318 23 318 36 C318 39 318 39 322 57 L370 282 C372 295 374 308 374 320 C374 367 325 397 247 397 C154 397 65 345 65 290 C65 270 78 257 98 257 C124 257 148 280 148 304 C148 312 145 318 135 329 C129 335 127 339 127 341 C127 358 187 380 234 380 C275 380 303 363 303 338 C303 332 302 323 300 315 L279 215 Z M269 167 C261 131 252 106 241 89 C217 54 174 30 133 30 C94 30 69 51 69 82 C69 110 82 135 107 155 C145 186 190 198 276 200 L269 167 Z " />
<glyph glyph-name="adieresis" unicode="&#xe4;" horiz-adv-x="464" d="M200 583 C169 583 140 555 140 525 C140 503 156 487 179 487 C210 487 239 515 239 545 C239 567 223 583 200 583 L200 583 Z M391 583 C360 583 331 555 331 525 C331 503 347 487 370 487 C401 487 430 515 430 545 C430 567 414 583 391 583 L391 583 Z M279 215 C174 212 124 203 70 174 C20 148 -11 106 -11 64 C-11 17 26 -10 89 -10 C153 -10 201 15 248 71 L247 50 C247 11 269 -10 308 -10 C335 -10 347 -6 388 18 L380 30 C364 19 354 15 343 15 C327 15 318 23 318 36 C318 39 318 39 322 57 L370 282 C372 295 374 308 374 320 C374 367 325 397 247 397 C154 397 65 345 65 290 C65 270 78 257 98 257 C124 257 148 280 148 304 C148 312 145 318 135 329 C129 335 127 339 127 341 C127 358 187 380 234 380 C275 380 303 363 303 338 C303 332 302 323 300 315 L279 215 Z M269 167 C261 131 252 106 241 89 C217 54 174 30 133 30 C94 30 69 51 69 82 C69 110 82 135 107 155 C145 186 190 198 276 200 L269 167 Z " />
<glyph glyph-name="aring" unicode="&#xe5;" horiz-adv-x="464" d="M310 615 C260 615 215 571 215 522 C215 487 240 463 276 463 C326 463 370 506 370 556 C370 590 344 615 310 615 L310 615 Z M303 588 C324 588 341 571 341 549 C341 519 311 490 281 490 C260 490 244 507 244 529 C244 558 274 588 303 588 L303 588 Z M279 215 C174 212 124 203 70 174 C20 148 -11 106 -11 64 C-11 17 26 -10 89 -10 C153 -10 201 15 248 71 L247 50 C247 11 269 -10 308 -10 C335 -10 347 -6 388 18 L380 30 C364 19 354 15 343 15 C327 15 318 23 318 36 C318 39 318 39 322 57 L370 282 C372 295 374 308 374 320 C374 367 325 397 247 397 C154 397 65 345 65 290 C65 270 78 257 98 257 C124 257 148 280 148 304 C148 312 145 318 135 329 C129 335 127 339 127 341 C127 358 187 380 234 380 C275 380 303 363 303 338 C303 332 302 323 300 315 L279 215 Z M269 167 C261 131 252 106 241 89 C217 54 174 30 133 30 C94 30 69 51 69 82 C69 110 82 135 107 155 C145 186 190 198 276 200 L269 167 Z " />
<glyph glyph-name="ae" unicode="&#xe6;" horiz-adv-x="713" d="M273 214 C170 212 121 202 68 174 C20 148 -11 105 -11 64 C-11 17 25 -10 86 -10 C157 -10 224 32 258 98 C270 73 278 60 285 50 C313 14 367 -10 422 -10 C513 -10 592 44 627 130 L605 130 C572 56 502 10 422 10 C362 10 327 39 327 88 C327 101 330 124 336 151 L352 228 L652 228 C654 242 655 248 655 258 C655 339 590 397 497 397 C450 397 404 382 360 354 C341 381 299 397 245 397 C153 397 65 344 65 289 C65 269 77 256 96 256 C122 256 145 279 145 304 C145 312 143 317 134 329 C129 335 127 338 127 341 C127 358 185 380 229 380 C270 380 297 364 297 338 C297 332 296 323 294 314 L273 214 Z M263 167 C255 130 246 106 235 89 C211 53 170 30 130 30 C93 30 69 50 69 81 C69 110 82 134 106 155 C144 186 187 197 270 199 L263 167 Z M556 246 L356 246 L364 280 C377 346 417 377 489 377 C542 377 569 358 569 322 C569 313 567 300 565 289 L556 246 Z " />
<glyph glyph-name="ccedilla" unicode="&#xe7;" horiz-adv-x="443" d="M166 -10 L177 -10 C222 -10 265 3 304 27 C342 51 360 73 388 126 L365 126 C342 82 321 59 285 38 C253 20 216 10 181 10 C123 10 91 38 91 88 C91 107 94 133 101 165 L115 228 C138 335 182 377 274 377 C320 377 361 365 361 352 C361 348 359 346 349 340 C327 326 314 306 314 285 C314 263 327 249 349 249 C382 249 407 276 407 312 C407 362 355 397 281 397 C214 397 158 377 107 336 C45 286 9 218 9 150 C9 66 62 4 145 -8 L116 -65 C156 -73 172 -85 172 -107 C172 -135 138 -160 99 -160 C73 -160 48 -152 48 -143 C48 -141 48 -140 49 -139 C56 -127 57 -125 57 -113 C57 -103 53 -98 47 -98 C36 -98 30 -108 30 -125 C30 -156 60 -176 106 -176 C170 -176 231 -138 231 -98 C231 -73 201 -54 163 -56 L141 -56 L166 -10 Z " />
<glyph glyph-name="egrave" unicode="&#xe8;" horiz-adv-x="475" d="M278 613 L213 613 C204 613 199 610 199 605 C199 602 202 598 205 595 L336 466 C339 463 339 463 340 463 C343 463 345 467 344 470 L278 613 Z M113 228 L414 228 C416 242 417 249 417 258 C417 340 353 397 262 397 C137 397 10 274 10 154 C10 62 86 -10 185 -10 C275 -10 355 44 390 130 L368 130 C335 56 264 10 184 10 C124 10 88 39 88 87 C88 100 91 125 97 151 L113 228 Z M318 246 L117 246 L125 280 C138 346 178 377 250 377 C304 377 331 358 331 322 C331 311 330 300 327 289 L318 246 Z " />
<glyph glyph-name="eacute" unicode="&#xe9;" horiz-adv-x="475" d="M395 613 L268 470 C267 469 266 467 266 465 C266 464 267 463 269 463 C270 463 270 463 274 466 L460 595 C467 599 471 604 470 607 L470 608 C470 611 467 613 460 613 L395 613 Z M113 228 L414 228 C416 242 417 249 417 258 C417 340 353 397 262 397 C137 397 10 274 10 154 C10 62 86 -10 185 -10 C275 -10 355 44 390 130 L368 130 C335 56 264 10 184 10 C124 10 88 39 88 87 C88 100 91 125 97 151 L113 228 Z M318 246 L117 246 L125 280 C138 346 178 377 250 377 C304 377 331 358 331 322 C331 311 330 300 327 289 L318 246 Z " />
<glyph glyph-name="ecircumflex" unicode="&#xea;" horiz-adv-x="475" d="M302 541 L419 465 C421 464 423 463 424 463 C427 463 429 464 429 467 C429 468 428 470 425 474 L318 617 L150 474 C145 470 143 467 143 465 C143 464 144 463 146 463 C148 463 150 464 152 465 L302 541 Z M113 228 L414 228 C416 242 417 249 417 258 C417 340 353 397 262 397 C137 397 10 274 10 154 C10 62 86 -10 185 -10 C275 -10 355 44 390 130 L368 130 C335 56 264 10 184 10 C124 10 88 39 88 87 C88 100 91 125 97 151 L113 228 Z M318 246 L117 246 L125 280 C138 346 178 377 250 377 C304 377 331 358 331 322 C331 311 330 300 327 289 L318 246 Z " />
<glyph glyph-name="edieresis" unicode="&#xeb;" horiz-adv-x="475" d="M216 583 C185 583 156 555 156 525 C156 503 172 487 195 487 C226 487 255 515 255 545 C255 567 239 583 216 583 L216 583 Z M406 583 C375 583 346 555 346 525 C346 503 362 487 385 487 C416 487 445 515 445 545 C445 567 429 583 406 583 L406 583 Z M113 228 L414 228 C416 242 417 249 417 258 C417 340 353 397 262 397 C137 397 10 274 10 154 C10 62 86 -10 185 -10 C275 -10 355 44 390 130 L368 130 C335 56 264 10 184 10 C124 10 88 39 88 87 C88 100 91 125 97 151 L113 228 Z M318 246 L117 246 L125 280 C138 346 178 377 250 377 C304 377 331 358 331 322 C331 311 330 300 327 289 L318 246 Z " />
<glyph glyph-name="igrave" unicode="&#xec;" horiz-adv-x="291" d="M210 387 L52 387 L48 369 L129 369 L55 18 L-26 18 L-30 0 L201 0 L205 18 L132 18 L210 387 Z M175 613 L109 613 C101 613 96 610 96 605 C96 602 98 597 101 595 L232 466 C235 463 235 463 237 463 C239 463 241 465 241 467 C241 468 241 469 240 470 L175 613 Z " />
<glyph glyph-name="iacute" unicode="&#xed;" horiz-adv-x="291" d="M210 387 L52 387 L48 369 L129 369 L55 18 L-26 18 L-30 0 L201 0 L205 18 L132 18 L210 387 Z M304 613 L178 470 C176 468 175 466 175 465 C175 464 176 462 177 462 L178 462 L179 463 L184 466 L370 595 C376 599 380 604 380 607 C380 611 377 613 369 613 L304 613 Z " />
<glyph glyph-name="icircumflex" unicode="&#xee;" horiz-adv-x="291" d="M210 387 L52 387 L48 369 L129 369 L55 18 L-26 18 L-30 0 L201 0 L205 18 L132 18 L210 387 Z M197 541 L314 465 C316 464 318 463 319 463 C322 463 324 464 324 467 C324 468 323 469 320 474 L213 617 L45 474 C40 470 38 467 38 465 C38 464 39 463 41 463 C43 463 45 464 47 465 L197 541 Z " />
<glyph glyph-name="idieresis" unicode="&#xef;" horiz-adv-x="291" d="M210 387 L52 387 L48 369 L129 369 L55 18 L-26 18 L-30 0 L201 0 L205 18 L132 18 L210 387 Z M119 580 C89 580 61 553 61 524 C61 503 77 487 98 487 C128 487 156 514 156 543 C156 564 140 580 119 580 L119 580 Z M279 580 C249 580 221 553 221 524 C221 503 237 487 258 487 C288 487 316 514 316 543 C316 564 300 580 279 580 L279 580 Z " />
<glyph glyph-name="eth" unicode="&#xf0;" horiz-adv-x="517" d="M189 544 L199 527 L302 580 C343 516 362 457 367 378 C330 393 311 397 279 397 C139 397 9 279 9 152 C9 59 84 -10 185 -10 C339 -10 455 116 455 283 C455 392 415 499 336 597 L434 649 L426 664 L320 610 C305 628 254 669 231 680 L216 667 C258 634 270 624 292 596 L189 544 Z M112 218 C124 273 138 314 149 329 C172 359 217 377 267 377 C328 377 368 350 368 308 C368 292 362 249 355 218 L345 169 C333 115 319 74 307 58 C283 28 239 10 189 10 C128 10 89 36 89 77 C89 92 96 139 102 169 L112 218 Z " />
<glyph glyph-name="ntilde" unicode="&#xf1;" horiz-adv-x="575" d="M496 572 C475 550 457 541 433 541 C420 541 401 545 389 549 L353 563 C333 571 322 573 307 573 C260 573 229 554 190 499 L198 493 C219 516 238 524 267 524 C282 524 297 521 313 515 L348 502 C366 495 380 492 392 492 C430 492 460 512 504 567 L496 572 Z M202 387 L52 387 L48 369 L122 369 L47 18 L-26 18 L-30 0 L201 0 L205 18 L124 18 L158 178 C178 272 193 306 229 336 C258 359 297 374 332 374 C370 374 393 355 393 325 C393 315 392 303 389 292 L331 18 L258 18 L254 0 L485 0 L489 18 L408 18 L460 265 C464 281 466 300 466 310 C466 363 419 397 349 397 C290 397 245 378 190 330 L202 387 Z " />
<glyph glyph-name="ograve" unicode="&#xf2;" horiz-adv-x="517" d="M278 613 L213 613 C204 613 199 610 199 605 L199 604 L204 595 L336 466 C338 463 339 463 340 463 C342 463 344 465 344 467 C344 468 344 469 343 470 L278 613 Z M272 397 C136 397 10 280 10 153 C10 59 83 -10 184 -10 C322 -10 448 107 448 234 C448 329 375 397 272 397 L272 397 Z M113 218 C124 271 138 314 149 329 C172 359 217 377 268 377 C329 377 368 350 368 308 C368 293 362 246 356 218 L345 169 C334 116 320 73 308 58 C283 28 239 10 189 10 C129 10 89 36 89 76 C89 91 96 136 103 169 L113 218 Z " />
<glyph glyph-name="oacute" unicode="&#xf3;" horiz-adv-x="517" d="M407 613 L281 470 C280 468 279 466 279 465 C279 464 280 462 281 462 L282 462 L283 463 L287 466 L473 595 C479 599 483 604 483 608 C483 611 480 613 472 613 L407 613 Z M272 397 C136 397 10 280 10 153 C10 59 83 -10 184 -10 C322 -10 448 107 448 234 C448 329 375 397 272 397 L272 397 Z M113 218 C124 271 138 314 149 329 C172 359 217 377 268 377 C329 377 368 350 368 308 C368 293 362 246 356 218 L345 169 C334 116 320 73 308 58 C283 28 239 10 189 10 C129 10 89 36 89 76 C89 91 96 136 103 169 L113 218 Z " />
<glyph glyph-name="ocircumflex" unicode="&#xf4;" horiz-adv-x="517" d="M307 541 L425 465 C426 464 428 463 430 463 C432 463 434 465 434 466 L434 467 C435 468 434 470 430 474 L323 617 L156 474 C149 469 148 467 148 465 C148 464 149 463 151 463 C153 463 155 464 158 465 L307 541 Z M272 397 C136 397 10 280 10 153 C10 59 83 -10 184 -10 C322 -10 448 107 448 234 C448 329 375 397 272 397 L272 397 Z M113 218 C124 271 138 314 149 329 C172 359 217 377 268 377 C329 377 368 350 368 308 C368 293 362 246 356 218 L345 169 C334 116 320 73 308 58 C283 28 239 10 189 10 C129 10 89 36 89 76 C89 91 96 136 103 169 L113 218 Z " />
<glyph glyph-name="otilde" unicode="&#xf5;" horiz-adv-x="517" d="M457 572 C436 550 418 541 394 541 C382 541 362 545 351 549 L314 563 C295 570 283 573 268 573 C221 573 191 554 152 499 L160 493 C181 515 200 524 228 524 C243 524 258 521 274 515 L310 502 C328 495 342 492 354 492 C392 492 421 511 465 567 L457 572 Z M272 397 C136 397 10 280 10 153 C10 59 83 -10 184 -10 C322 -10 448 107 448 234 C448 329 375 397 272 397 L272 397 Z M113 218 C124 271 138 314 149 329 C172 359 217 377 268 377 C329 377 368 350 368 308 C368 293 362 246 356 218 L345 169 C334 116 320 73 308 58 C283 28 239 10 189 10 C129 10 89 36 89 76 C89 91 96 136 103 169 L113 218 Z " />
<glyph glyph-name="odieresis" unicode="&#xf6;" horiz-adv-x="517" d="M219 583 C188 583 159 555 159 525 C159 503 175 487 198 487 C229 487 258 515 258 545 C258 567 242 583 219 583 L219 583 Z M410 583 C379 583 350 555 350 525 C350 503 366 487 389 487 C420 487 449 515 449 545 C449 567 433 583 410 583 L410 583 Z M272 397 C136 397 10 280 10 153 C10 59 83 -10 184 -10 C322 -10 448 107 448 234 C448 329 375 397 272 397 L272 397 Z M113 218 C124 271 138 314 149 329 C172 359 217 377 268 377 C329 377 368 350 368 308 C368 293 362 246 356 218 L345 169 C334 116 320 73 308 58 C283 28 239 10 189 10 C129 10 89 36 89 76 C89 91 96 136 103 169 L113 218 Z " />
<glyph glyph-name="divide" unicode="&#xf7;" horiz-adv-x="550" d="M51 308 L488 308 L495 338 L57 338 L51 308 Z M316 530 C277 530 241 498 241 463 C241 437 263 417 292 417 C332 417 368 449 368 484 C368 511 347 530 316 530 L316 530 Z M253 227 C214 227 177 194 177 159 C177 133 199 113 228 113 C268 113 304 145 304 181 C304 208 282 227 253 227 L253 227 Z " />
<glyph glyph-name="oslash" unicode="&#xf8;" horiz-adv-x="517" d="M463 406 L450 416 L396 360 C362 385 323 397 276 397 C137 397 9 279 9 150 C9 108 19 77 44 45 L-10 -11 L1 -23 L55 32 C92 3 131 -10 181 -10 C320 -10 448 108 448 237 C448 279 432 324 408 348 L463 406 Z M367 313 C368 294 364 262 355 218 L345 169 C333 115 319 74 307 58 C283 28 239 10 188 10 C136 10 101 28 91 61 L367 313 Z M89 84 C92 114 96 139 102 169 L112 218 C124 271 138 315 149 329 C172 359 216 377 267 377 C314 377 343 364 362 335 L89 84 Z " />
<glyph glyph-name="ugrave" unicode="&#xf9;" horiz-adv-x="562" d="M305 613 L240 613 C231 613 226 610 226 605 C226 602 228 598 232 595 L363 466 C366 463 366 463 367 463 C369 463 371 465 371 467 L371 470 L305 613 Z M480 387 L322 387 L319 369 L400 369 L364 200 C346 117 325 72 291 46 C263 25 225 13 188 13 C144 13 124 30 124 66 C124 78 126 92 131 117 L189 387 L31 387 L27 369 L108 369 L57 131 C53 108 50 88 50 75 C50 20 93 -10 174 -10 C241 -10 284 9 334 60 L321 0 L471 0 L475 18 L402 18 L480 387 Z " />
<glyph glyph-name="uacute" unicode="&#xfa;" horiz-adv-x="562" d="M418 613 L292 470 C291 469 290 467 290 465 C290 464 291 462 292 462 L293 462 L294 463 L298 466 L484 595 C490 599 494 604 494 608 C494 611 491 613 483 613 L418 613 Z M480 387 L322 387 L319 369 L400 369 L364 200 C346 117 325 72 291 46 C263 25 225 13 188 13 C144 13 124 30 124 66 C124 78 126 92 131 117 L189 387 L31 387 L27 369 L108 369 L57 131 C53 108 50 88 50 75 C50 20 93 -10 174 -10 C241 -10 284 9 334 60 L321 0 L471 0 L475 18 L402 18 L480 387 Z " />
<glyph glyph-name="ucircumflex" unicode="&#xfb;" horiz-adv-x="562" d="M328 541 L445 465 C447 464 449 463 450 463 C453 463 455 464 455 467 C455 468 454 470 451 474 L344 617 L176 474 C171 470 169 467 169 465 C169 464 170 463 172 463 C174 463 176 464 178 465 L328 541 Z M480 387 L322 387 L319 369 L400 369 L364 200 C346 117 325 72 291 46 C263 25 225 13 188 13 C144 13 124 30 124 66 C124 78 126 92 131 117 L189 387 L31 387 L27 369 L108 369 L57 131 C53 108 50 88 50 75 C50 20 93 -10 174 -10 C241 -10 284 9 334 60 L321 0 L471 0 L475 18 L402 18 L480 387 Z " />
<glyph glyph-name="udieresis" unicode="&#xfc;" horiz-adv-x="562" d="M242 583 C211 583 182 555 182 525 C182 503 198 487 220 487 C252 487 280 515 280 545 C280 567 264 583 242 583 L242 583 Z M432 583 C401 583 372 555 372 525 C372 503 388 487 411 487 C442 487 471 515 471 545 C471 567 455 583 432 583 L432 583 Z M480 387 L322 387 L319 369 L400 369 L364 200 C346 117 325 72 291 46 C263 25 225 13 188 13 C144 13 124 30 124 66 C124 78 126 92 131 117 L189 387 L31 387 L27 369 L108 369 L57 131 C53 108 50 88 50 75 C50 20 93 -10 174 -10 C241 -10 284 9 334 60 L321 0 L471 0 L475 18 L402 18 L480 387 Z " />
<glyph glyph-name="yacute" unicode="&#xfd;" horiz-adv-x="455" d="M385 613 L259 470 C258 469 257 466 257 465 C257 464 258 462 259 462 L260 462 L261 463 L265 466 L451 595 C457 599 462 604 461 607 L461 608 C461 612 458 613 450 613 L385 613 Z M224 94 L157 369 L231 369 L235 387 L12 387 L8 369 L59 369 L165 -6 L73 -161 C49 -201 42 -208 26 -208 C20 -208 15 -206 12 -200 C-1 -180 -10 -174 -29 -174 C-61 -174 -88 -200 -88 -231 C-88 -256 -68 -274 -39 -274 C11 -274 47 -245 92 -170 L415 369 L463 369 L466 387 L313 387 L309 369 L386 369 L224 94 Z " />
<glyph glyph-name="thorn" unicode="&#xfe;" horiz-adv-x="538" d="M240 667 L90 667 L86 649 L160 649 L-31 -249 L-104 -249 L-108 -267 L138 -267 L142 -249 L46 -249 L116 82 C140 15 172 -10 231 -10 C278 -10 319 4 358 34 C426 85 471 169 471 246 C471 336 411 397 324 397 C260 397 212 370 164 306 L240 667 Z M367 176 C342 55 307 10 238 10 C178 10 135 62 135 134 C135 263 222 377 322 377 C367 377 392 355 392 316 C392 299 389 279 383 249 L367 176 Z " />
<glyph glyph-name="ydieresis" unicode="&#xff;" horiz-adv-x="455" d="M204 583 C173 583 144 555 144 525 C144 503 160 487 183 487 C214 487 243 515 243 545 C243 567 227 583 204 583 L204 583 Z M394 583 C363 583 334 555 334 525 C334 503 350 487 373 487 C404 487 433 515 433 545 C433 567 417 583 394 583 L394 583 Z M224 94 L157 369 L231 369 L235 387 L12 387 L8 369 L59 369 L165 -6 L73 -161 C49 -201 42 -208 26 -208 C20 -208 15 -206 12 -200 C-1 -180 -10 -174 -29 -174 C-61 -174 -88 -200 -88 -231 C-88 -256 -68 -274 -39 -274 C11 -274 47 -245 92 -170 L415 369 L463 369 L466 387 L313 387 L309 369 L386 369 L224 94 Z " />
<glyph glyph-name="Amacron" unicode="&#x100;" horiz-adv-x="667" d="M377 214 L409 18 L305 18 L301 0 L600 0 L604 18 L520 18 L418 667 L388 667 L0 18 L-70 18 L-74 0 L121 0 L125 18 L28 18 L143 214 L377 214 Z M374 232 L155 232 L327 527 L374 232 Z M580 749 L586 779 L267 779 L260 749 L580 749 Z " />
<glyph glyph-name="amacron" unicode="&#x101;" horiz-adv-x="464" d="M279 215 C174 212 124 203 70 174 C20 148 -11 106 -11 64 C-11 17 26 -10 89 -10 C153 -10 201 15 248 71 L247 50 C247 11 269 -10 308 -10 C335 -10 347 -6 388 18 L380 30 C364 19 354 15 343 15 C327 15 318 23 318 36 C318 39 318 39 322 57 L370 282 C372 295 374 308 374 320 C374 367 325 397 247 397 C154 397 65 345 65 290 C65 270 78 257 98 257 C124 257 148 280 148 304 C148 312 145 318 135 329 C129 335 127 339 127 341 C127 358 187 380 234 380 C275 380 303 363 303 338 C303 332 302 323 300 315 L279 215 Z M269 167 C261 131 252 106 241 89 C217 54 174 30 133 30 C94 30 69 51 69 82 C69 110 82 135 107 155 C145 186 190 198 276 200 L269 167 Z M415 499 L420 523 L147 523 L142 499 L415 499 Z " />
<glyph glyph-name="Abreve" unicode="&#x102;" horiz-adv-x="667" d="M377 214 L409 18 L305 18 L301 0 L600 0 L604 18 L520 18 L418 667 L388 667 L0 18 L-70 18 L-74 0 L121 0 L125 18 L28 18 L143 214 L377 214 Z M374 232 L155 232 L327 527 L374 232 Z M577 838 C548 793 505 774 428 774 C350 774 315 792 306 838 L292 838 C292 766 339 722 416 722 C494 722 563 768 591 838 L577 838 Z " />
<glyph glyph-name="abreve" unicode="&#x103;" horiz-adv-x="464" d="M279 215 C174 212 124 203 70 174 C20 148 -11 106 -11 64 C-11 17 26 -10 89 -10 C153 -10 201 15 248 71 L247 50 C247 11 269 -10 308 -10 C335 -10 347 -6 388 18 L380 30 C364 19 354 15 343 15 C327 15 318 23 318 36 C318 39 318 39 322 57 L370 282 C372 295 374 308 374 320 C374 367 325 397 247 397 C154 397 65 345 65 290 C65 270 78 257 98 257 C124 257 148 280 148 304 C148 312 145 318 135 329 C129 335 127 339 127 341 C127 358 187 380 234 380 C275 380 303 363 303 338 C303 332 302 323 300 315 L279 215 Z M269 167 C261 131 252 106 241 89 C217 54 174 30 133 30 C94 30 69 51 69 82 C69 110 82 135 107 155 C145 186 190 198 276 200 L269 167 Z M424 610 C407 575 395 559 374 545 C353 531 317 521 285 521 C253 521 221 531 206 545 C191 559 185 576 184 610 L172 610 C171 599 171 594 171 587 C171 517 213 467 273 467 C342 467 405 523 436 610 L424 610 Z " />
<glyph glyph-name="Aogonek" unicode="&#x104;" horiz-adv-x="667" d="M600 0 L604 18 L520 18 L418 667 L388 667 L0 18 L-70 18 L-74 0 L121 0 L125 18 L28 18 L143 214 L377 214 L409 18 L305 18 L301 0 L499 0 C410 -26 366 -62 366 -109 C366 -142 395 -162 442 -162 C478 -162 503 -157 539 -141 L542 -127 C516 -134 501 -137 483 -137 C442 -137 423 -125 423 -100 C423 -61 453 -32 525 0 L600 0 Z M374 232 L155 232 L327 527 L374 232 Z " />
<glyph glyph-name="aogonek" unicode="&#x105;" horiz-adv-x="464" d="M380 30 C364 19 354 15 343 15 C327 15 318 23 318 36 C318 39 318 39 322 57 L370 282 C372 295 374 308 374 320 C374 367 325 397 247 397 C154 397 65 345 65 290 C65 270 78 257 98 257 C124 257 148 280 148 304 C148 312 145 318 135 329 C129 335 127 339 127 341 C127 358 187 380 234 380 C275 380 303 363 303 338 C303 332 302 323 300 315 L279 215 C174 212 124 203 70 174 C20 148 -11 106 -11 64 C-11 17 26 -10 89 -10 C153 -10 201 15 248 71 L247 50 C247 15 264 -4 297 -9 C231 -35 197 -69 197 -107 C197 -140 224 -159 271 -159 C305 -159 327 -154 363 -138 L366 -124 C341 -132 327 -134 309 -134 C269 -134 251 -123 251 -98 C251 -64 280 -33 334 -7 C347 -5 360 2 388 18 L380 30 Z M269 167 C261 131 252 106 241 89 C217 54 174 30 133 30 C94 30 69 51 69 82 C69 110 82 135 107 155 C145 186 190 198 276 200 L269 167 Z " />
<glyph glyph-name="Cacute" unicode="&#x106;" horiz-adv-x="650" d="M668 667 L654 667 L607 617 C553 661 509 677 445 677 C332 677 214 615 135 513 C78 440 41 336 41 250 C41 102 148 -10 288 -10 C352 -10 405 6 486 50 L512 0 L527 0 L566 185 L551 185 C518 133 500 110 473 85 C421 37 355 10 290 10 C196 10 134 60 134 135 C134 174 145 245 168 350 C191 452 214 522 236 559 C274 620 349 657 432 657 C493 657 544 637 577 599 C603 570 612 544 617 494 L631 494 L668 667 Z M554 833 L403 731 C398 727 397 726 397 723 C397 721 398 720 400 720 C402 720 405 720 407 721 L648 814 C659 818 663 822 663 827 C663 831 659 833 651 833 L554 833 Z " />
<glyph glyph-name="cacute" unicode="&#x107;" horiz-adv-x="443" d="M365 126 C325 51 260 10 180 10 C122 10 90 38 90 88 C90 107 93 125 101 165 L115 228 C137 335 182 377 274 377 C320 377 361 365 361 352 C361 348 359 346 349 340 C327 326 314 306 314 285 C314 263 327 249 349 249 C382 249 407 276 407 312 C407 362 355 397 281 397 C214 397 158 377 107 336 C45 286 9 218 9 151 C9 58 80 -10 179 -10 C226 -10 267 2 305 27 C343 51 360 73 388 126 L365 126 Z M379 613 L253 470 C251 468 250 466 250 465 C250 464 251 462 253 462 L254 463 L259 466 L445 595 C451 599 455 604 455 607 C455 611 452 613 444 613 L379 613 Z " />
<glyph glyph-name="Ccircumflex" unicode="&#x108;" horiz-adv-x="650" d="M668 667 L654 667 L607 617 C553 661 509 677 445 677 C332 677 214 615 135 513 C78 440 41 336 41 250 C41 102 148 -10 288 -10 C352 -10 405 6 486 50 L512 0 L527 0 L566 185 L551 185 C518 133 500 110 473 85 C421 37 355 10 290 10 C196 10 134 60 134 135 C134 174 145 245 168 350 C191 452 214 522 236 559 C274 620 349 657 432 657 C493 657 544 637 577 599 C603 570 612 544 617 494 L631 494 L668 667 Z M463 769 L601 721 C602 720 603 720 605 720 C608 720 611 722 611 724 C611 725 610 727 606 730 L478 838 L304 730 C299 727 297 725 297 723 C297 721 299 720 301 720 C303 720 304 720 306 721 L463 769 Z " />
<glyph glyph-name="Cdotaccent" unicode="&#x10a;" horiz-adv-x="650" d="M668 667 L654 667 L607 617 C553 661 509 677 445 677 C332 677 214 615 135 513 C78 440 41 336 41 250 C41 102 148 -10 288 -10 C352 -10 405 6 486 50 L512 0 L527 0 L566 185 L551 185 C518 133 500 110 473 85 C421 37 355 10 290 10 C196 10 134 60 134 135 C134 174 145 245 168 350 C191 452 214 522 236 559 C274 620 349 657 432 657 C493 657 544 637 577 599 C603 570 612 544 617 494 L631 494 L668 667 Z M474 827 C441 827 411 797 411 766 C411 742 428 725 452 725 C485 725 515 755 515 787 C515 810 498 827 474 827 L474 827 Z " />
<glyph glyph-name="cdotaccent" unicode="&#x10b;" horiz-adv-x="443" d="M365 126 C325 51 260 10 180 10 C122 10 90 38 90 88 C90 107 93 125 101 165 L115 228 C137 335 182 377 274 377 C320 377 361 365 361 352 C361 348 359 346 349 340 C327 326 314 306 314 285 C314 263 327 249 349 249 C382 249 407 276 407 312 C407 362 355 397 281 397 C214 397 158 377 107 336 C45 286 9 218 9 151 C9 58 80 -10 179 -10 C226 -10 267 2 305 27 C343 51 360 73 388 126 L365 126 Z M317 587 C285 587 254 557 254 526 C254 502 271 485 295 485 C328 485 358 515 358 547 C358 570 341 587 317 587 L317 587 Z " />
<glyph glyph-name="Ccaron" unicode="&#x10c;" horiz-adv-x="650" d="M668 667 L654 667 L607 617 C553 661 509 677 445 677 C332 677 214 615 135 513 C78 440 41 336 41 250 C41 102 148 -10 288 -10 C352 -10 405 6 486 50 L512 0 L527 0 L566 185 L551 185 C518 133 500 110 473 85 C421 37 355 10 290 10 C196 10 134 60 134 135 C134 174 145 245 168 350 C191 452 214 522 236 559 C274 620 349 657 432 657 C493 657 544 637 577 599 C603 570 612 544 617 494 L631 494 L668 667 Z M470 789 L332 838 L328 838 C324 838 322 836 322 834 C322 833 323 832 327 829 L455 720 L629 829 C636 833 637 834 637 835 C637 837 636 838 633 838 L628 838 L470 789 Z " />
<glyph glyph-name="ccaron" unicode="&#x10d;" horiz-adv-x="443" d="M365 126 C325 51 260 10 180 10 C122 10 90 38 90 88 C90 107 93 125 101 165 L115 228 C137 335 182 377 274 377 C320 377 361 365 361 352 C361 348 359 346 349 340 C327 326 314 306 314 285 C314 263 327 249 349 249 C382 249 407 276 407 312 C407 362 355 397 281 397 C214 397 158 377 107 336 C45 286 9 218 9 151 C9 58 80 -10 179 -10 C226 -10 267 2 305 27 C343 51 360 73 388 126 L365 126 Z M307 539 L189 615 C188 616 186 617 184 617 C182 617 180 616 180 613 C180 611 181 609 184 606 L291 463 L458 606 C464 611 466 613 466 615 C466 616 465 617 463 617 C461 617 459 616 456 615 L307 539 Z " />
<glyph glyph-name="Dcaron" unicode="&#x10e;" horiz-adv-x="741" d="M67 18 L-30 18 L-34 0 L233 0 C324 0 382 8 427 26 C490 51 548 92 593 143 C660 219 698 316 698 411 C698 476 680 531 645 574 C590 641 515 667 375 667 L108 667 L104 649 L201 649 L67 18 Z M160 18 L294 649 L370 649 C537 649 601 610 601 507 C601 464 592 402 574 324 C540 173 514 113 466 75 C414 34 350 18 238 18 L160 18 Z M445 789 L308 838 L304 838 C300 838 298 836 298 834 C298 833 299 832 303 829 L431 720 L605 829 C610 832 612 833 612 835 C612 837 611 838 608 838 L603 838 L445 789 Z " />
<glyph glyph-name="dcaron" unicode="&#x10f;" horiz-adv-x="617" d="M300 0 L450 0 L454 18 L381 18 L518 667 L346 667 L342 649 L438 649 L365 307 C341 372 308 397 245 397 C118 397 9 279 9 141 C9 53 72 -10 161 -10 C225 -10 266 15 318 84 L300 0 Z M116 233 C126 277 138 315 149 332 C167 360 199 377 236 377 C302 377 345 329 345 257 C345 124 261 10 163 10 C115 10 90 35 90 81 C90 102 93 122 102 165 L116 233 Z M567 457 C634 504 669 554 669 602 C669 641 644 667 606 667 C567 667 535 637 535 600 C535 578 548 565 570 565 C598 565 617 585 621 619 C637 610 644 600 644 581 C644 548 618 515 556 468 L567 457 Z " />
<glyph glyph-name="Dcroat" unicode="&#x110;" horiz-adv-x="741" d="M131 330 L65 18 L-30 18 L-34 0 L235 0 C325 0 382 8 427 26 C490 51 549 92 593 143 C660 219 698 316 698 411 C698 476 680 531 645 574 C590 641 516 667 376 667 L108 667 L104 649 L199 649 L135 348 L40 348 L36 330 L131 330 Z M227 330 L405 330 L409 348 L231 348 L295 649 L371 649 C538 649 601 610 601 507 C601 463 592 402 574 324 C540 173 514 113 466 75 C415 34 351 18 239 18 L161 18 L227 330 Z " />
<glyph glyph-name="dcroat" unicode="&#x111;" horiz-adv-x="540" d="M413 532 L365 307 C341 372 308 397 245 397 C118 397 9 279 9 141 C9 53 72 -10 161 -10 C225 -10 266 15 318 84 L300 0 L450 0 L454 18 L381 18 L490 532 L563 532 L568 556 L495 556 L518 667 L346 667 L342 649 L438 649 L418 556 L249 556 L244 532 L413 532 Z M116 233 C126 277 138 315 149 332 C167 360 199 377 236 377 C302 377 345 329 345 257 C345 124 261 10 163 10 C115 10 90 35 90 81 C90 102 93 122 102 165 L116 233 Z " />
<glyph glyph-name="Emacron" unicode="&#x112;" horiz-adv-x="644" d="M627 667 L108 667 L104 649 L199 649 L65 18 L-30 18 L-34 0 L510 0 L576 208 L561 208 C532 150 512 117 491 92 C436 26 414 17 313 18 L159 18 L225 329 L276 329 C352 329 384 307 384 255 C384 245 383 234 380 221 L375 198 L390 198 L448 472 L433 472 L429 453 C413 376 372 347 283 347 L228 347 L292 649 L391 649 C543 650 584 617 589 486 L603 486 L627 667 Z M589 749 L595 779 L276 779 L269 749 L589 749 Z " />
<glyph glyph-name="emacron" unicode="&#x113;" horiz-adv-x="475" d="M113 228 L414 228 C416 242 417 249 417 258 C417 340 353 397 262 397 C137 397 10 274 10 154 C10 62 86 -10 185 -10 C275 -10 355 44 390 130 L368 130 C335 56 264 10 184 10 C124 10 88 39 88 87 C88 100 91 125 97 151 L113 228 Z M318 246 L117 246 L125 280 C138 346 178 377 250 377 C304 377 331 358 331 322 C331 311 330 300 327 289 L318 246 Z M416 499 L421 523 L148 523 L143 499 L416 499 Z " />
<glyph glyph-name="Ebreve" unicode="&#x114;" horiz-adv-x="644" d="M627 667 L108 667 L104 649 L199 649 L65 18 L-30 18 L-34 0 L510 0 L576 208 L561 208 C532 150 512 117 491 92 C436 26 414 17 313 18 L159 18 L225 329 L276 329 C352 329 384 307 384 255 C384 245 383 234 380 221 L375 198 L390 198 L448 472 L433 472 L429 453 C413 376 372 347 283 347 L228 347 L292 649 L391 649 C543 650 584 617 589 486 L603 486 L627 667 Z M583 838 C555 793 511 774 435 774 C357 774 322 792 313 838 L299 838 C301 763 345 722 423 722 C501 722 570 768 597 838 L583 838 Z " />
<glyph glyph-name="ebreve" unicode="&#x115;" horiz-adv-x="475" d="M113 228 L414 228 C416 242 417 249 417 258 C417 340 353 397 262 397 C137 397 10 274 10 154 C10 62 86 -10 185 -10 C275 -10 355 44 390 130 L368 130 C335 56 264 10 184 10 C124 10 88 39 88 87 C88 100 91 125 97 151 L113 228 Z M318 246 L117 246 L125 280 C138 346 178 377 250 377 C304 377 331 358 331 322 C331 311 330 300 327 289 L318 246 Z M432 610 C415 575 403 559 382 545 C361 531 324 521 293 521 C261 521 229 531 214 545 C199 559 193 576 192 610 L180 610 C179 598 179 592 179 587 C179 517 221 467 280 467 C350 467 413 523 443 610 L432 610 Z " />
<glyph glyph-name="Edotaccent" unicode="&#x116;" horiz-adv-x="644" d="M627 667 L108 667 L104 649 L199 649 L65 18 L-30 18 L-34 0 L510 0 L576 208 L561 208 C532 150 512 117 491 92 C436 26 414 17 313 18 L159 18 L225 329 L276 329 C352 329 384 307 384 255 C384 245 383 234 380 221 L375 198 L390 198 L448 472 L433 472 L429 453 C413 376 372 347 283 347 L228 347 L292 649 L391 649 C543 650 584 617 589 486 L603 486 L627 667 Z M446 827 C414 827 383 797 383 766 C383 742 400 725 424 725 C457 725 487 755 487 787 C487 810 470 827 446 827 L446 827 Z " />
<glyph glyph-name="edotaccent" unicode="&#x117;" horiz-adv-x="475" d="M113 228 L414 228 C416 242 417 249 417 258 C417 340 353 397 262 397 C137 397 10 274 10 154 C10 62 86 -10 185 -10 C275 -10 355 44 390 130 L368 130 C335 56 264 10 184 10 C124 10 88 39 88 87 C88 100 91 125 97 151 L113 228 Z M318 246 L117 246 L125 280 C138 346 178 377 250 377 C304 377 331 358 331 322 C331 311 330 300 327 289 L318 246 Z M314 587 C282 587 251 557 251 526 C251 502 268 485 291 485 C324 485 354 515 354 547 C354 570 337 587 314 587 L314 587 Z " />
<glyph glyph-name="Eogonek" unicode="&#x118;" horiz-adv-x="644" d="M510 0 L576 208 L561 208 C532 150 512 117 491 92 C436 26 414 17 313 18 L159 18 L225 329 L276 329 C352 329 384 307 384 255 C384 245 383 234 380 221 L375 198 L390 198 L448 472 L433 472 L429 453 C413 376 372 347 283 347 L228 347 L292 649 L391 649 C543 650 584 617 589 486 L603 486 L627 667 L108 667 L104 649 L199 649 L65 18 L-30 18 L-34 0 L424 0 C335 -26 291 -62 291 -109 C291 -142 320 -162 367 -162 C403 -162 427 -157 463 -141 L466 -127 C441 -134 426 -137 408 -137 C367 -137 348 -125 348 -100 C348 -61 378 -32 450 0 L510 0 Z " />
<glyph glyph-name="eogonek" unicode="&#x119;" horiz-adv-x="475" d="M296 -124 C271 -132 257 -134 239 -134 C199 -134 181 -123 181 -98 C181 -64 203 -37 262 -1 C340 46 366 73 390 130 L368 130 C335 56 264 10 184 10 C124 10 88 39 88 87 C88 100 91 125 97 151 L113 228 L414 228 C416 242 417 249 417 258 C417 340 353 397 262 397 C137 397 10 274 10 154 C10 62 86 -10 185 -10 C197 -10 207 -9 219 -8 C157 -37 127 -69 127 -107 C127 -140 155 -159 201 -159 C235 -159 257 -154 293 -138 L296 -124 Z M318 246 L117 246 L125 280 C138 346 178 377 250 377 C304 377 331 358 331 322 C331 311 330 300 327 289 L318 246 Z " />
<glyph glyph-name="Ecaron" unicode="&#x11a;" horiz-adv-x="644" d="M627 667 L108 667 L104 649 L199 649 L65 18 L-30 18 L-34 0 L510 0 L576 208 L561 208 C532 150 512 117 491 92 C436 26 414 17 313 18 L159 18 L225 329 L276 329 C352 329 384 307 384 255 C384 245 383 234 380 221 L375 198 L390 198 L448 472 L433 472 L429 453 C413 376 372 347 283 347 L228 347 L292 649 L391 649 C543 650 584 617 589 486 L603 486 L627 667 Z M436 789 L298 838 L294 838 C290 838 288 836 288 834 C288 833 289 832 293 829 L421 720 L595 829 C600 832 602 833 602 835 C602 837 601 838 598 838 L593 838 L436 789 Z " />
<glyph glyph-name="ecaron" unicode="&#x11b;" horiz-adv-x="475" d="M113 228 L414 228 C416 242 417 249 417 258 C417 340 353 397 262 397 C137 397 10 274 10 154 C10 62 86 -10 185 -10 C275 -10 355 44 390 130 L368 130 C335 56 264 10 184 10 C124 10 88 39 88 87 C88 100 91 125 97 151 L113 228 Z M318 246 L117 246 L125 280 C138 346 178 377 250 377 C304 377 331 358 331 322 C331 311 330 300 327 289 L318 246 Z M303 539 L186 615 C184 616 182 617 180 617 C178 617 176 616 176 613 C176 612 177 609 180 606 L287 463 L454 606 C460 610 462 613 462 615 C462 616 461 617 459 617 C457 617 455 616 453 615 L303 539 Z " />
<glyph glyph-name="Gcircumflex" unicode="&#x11c;" horiz-adv-x="698" d="M655 667 L640 667 L594 625 C544 662 498 677 437 677 C345 677 248 632 170 552 C88 469 41 355 41 241 C41 188 55 139 83 95 C127 25 194 -10 284 -10 C364 -10 440 18 499 69 C539 104 559 136 588 212 L662 212 L666 230 L358 230 L354 212 L468 212 C455 152 448 128 435 105 C402 45 343 10 271 10 C183 10 135 54 135 135 C135 237 199 496 241 563 C277 623 343 657 422 657 C530 657 590 594 599 471 L613 471 L655 667 Z M458 769 L596 721 C597 720 598 720 600 720 C603 720 606 722 606 724 C606 725 605 726 601 730 L473 838 L299 730 C292 726 291 725 291 723 C291 721 293 720 295 720 C298 720 299 720 300 721 L458 769 Z " />
<glyph glyph-name="gcircumflex" unicode="&#x11d;" horiz-adv-x="481" d="M70 18 C26 18 5 28 5 48 C5 72 39 104 98 133 C126 122 150 117 182 117 C242 117 299 140 341 179 C371 208 387 246 387 288 C387 308 383 321 372 343 C388 355 399 361 408 361 C416 361 420 357 420 350 C420 323 426 315 445 315 C466 315 485 336 485 361 C485 379 470 391 446 391 C421 391 403 383 364 353 C330 385 299 397 249 397 C135 397 45 322 45 227 C45 193 55 171 84 144 C76 139 76 139 62 130 C30 112 25 108 7 92 C-24 63 -39 32 -39 -1 C-39 -36 -20 -57 23 -69 C-47 -96 -76 -127 -76 -174 C-76 -233 -5 -274 99 -274 C247 -274 367 -175 367 -53 C367 1 341 18 257 18 L70 18 Z M137 288 C151 355 178 377 242 377 C290 377 314 363 314 335 C314 326 312 308 308 293 L294 228 C279 156 257 137 189 137 C141 137 118 152 118 183 C118 192 121 211 124 228 L137 288 Z M75 -70 L111 -70 L230 -70 C289 -70 292 -70 302 -76 C310 -81 314 -90 314 -101 C314 -118 306 -139 292 -161 C253 -219 185 -254 109 -254 C40 -254 0 -222 0 -168 C0 -131 17 -101 55 -70 L75 -70 Z M285 541 L402 465 C403 464 405 463 407 463 C409 463 411 464 411 467 C411 469 410 471 408 474 L301 617 L133 474 C129 471 126 467 126 465 C126 464 127 463 129 463 C131 463 132 464 135 465 L285 541 Z " />
<glyph glyph-name="Gbreve" unicode="&#x11e;" horiz-adv-x="698" d="M655 667 L640 667 L594 625 C544 662 498 677 437 677 C345 677 248 632 170 552 C88 469 41 355 41 241 C41 188 55 139 83 95 C127 25 194 -10 284 -10 C364 -10 440 18 499 69 C539 104 559 136 588 212 L662 212 L666 230 L358 230 L354 212 L468 212 C455 152 448 128 435 105 C402 45 343 10 271 10 C183 10 135 54 135 135 C135 237 199 496 241 563 C277 623 343 657 422 657 C530 657 590 594 599 471 L613 471 L655 667 Z M604 838 C576 793 532 774 455 774 C414 774 374 783 357 796 C343 806 338 816 333 838 L319 838 L319 830 C319 767 371 722 443 722 C521 722 590 768 618 838 L604 838 Z " />
<glyph glyph-name="gbreve" unicode="&#x11f;" horiz-adv-x="481" d="M70 18 C26 18 5 28 5 48 C5 72 39 104 98 133 C126 122 150 117 182 117 C242 117 299 140 341 179 C371 208 387 246 387 288 C387 308 383 321 372 343 C388 355 399 361 408 361 C416 361 420 357 420 350 C420 323 426 315 445 315 C466 315 485 336 485 361 C485 379 470 391 446 391 C421 391 403 383 364 353 C330 385 299 397 249 397 C135 397 45 322 45 227 C45 193 55 171 84 144 C76 139 76 139 62 130 C30 112 25 108 7 92 C-24 63 -39 32 -39 -1 C-39 -36 -20 -57 23 -69 C-47 -96 -76 -127 -76 -174 C-76 -233 -5 -274 99 -274 C247 -274 367 -175 367 -53 C367 1 341 18 257 18 L70 18 Z M137 288 C151 355 178 377 242 377 C290 377 314 363 314 335 C314 326 312 308 308 293 L294 228 C279 156 257 137 189 137 C141 137 118 152 118 183 C118 192 121 211 124 228 L137 288 Z M75 -70 L111 -70 L230 -70 C289 -70 292 -70 302 -76 C310 -81 314 -90 314 -101 C314 -118 306 -139 292 -161 C253 -219 185 -254 109 -254 C40 -254 0 -222 0 -168 C0 -131 17 -101 55 -70 L75 -70 Z M423 610 C407 575 394 559 373 545 C352 531 316 521 284 521 C253 521 220 531 205 545 C190 559 185 576 183 610 L172 610 C170 599 170 593 170 587 C170 517 212 467 272 467 C341 467 405 523 435 610 L423 610 Z " />
<glyph glyph-name="Gdotaccent" unicode="&#x120;" horiz-adv-x="698" d="M655 667 L640 667 L594 625 C544 662 498 677 437 677 C345 677 248 632 170 552 C88 469 41 355 41 241 C41 188 55 139 83 95 C127 25 194 -10 284 -10 C364 -10 440 18 499 69 C539 104 559 136 588 212 L662 212 L666 230 L358 230 L354 212 L468 212 C455 152 448 128 435 105 C402 45 343 10 271 10 C183 10 135 54 135 135 C135 237 199 496 241 563 C277 623 343 657 422 657 C530 657 590 594 599 471 L613 471 L655 667 Z M471 827 C439 827 408 797 408 766 C408 742 425 725 449 725 C482 725 512 755 512 787 C512 810 495 827 471 827 L471 827 Z " />
<glyph glyph-name="gdotaccent" unicode="&#x121;" horiz-adv-x="481" d="M70 18 C26 18 5 28 5 48 C5 72 39 104 98 133 C126 122 150 117 182 117 C242 117 299 140 341 179 C371 208 387 246 387 288 C387 308 383 321 372 343 C388 355 399 361 408 361 C416 361 420 357 420 350 C420 323 426 315 445 315 C466 315 485 336 485 361 C485 379 470 391 446 391 C421 391 403 383 364 353 C330 385 299 397 249 397 C135 397 45 322 45 227 C45 193 55 171 84 144 C76 139 76 139 62 130 C30 112 25 108 7 92 C-24 63 -39 32 -39 -1 C-39 -36 -20 -57 23 -69 C-47 -96 -76 -127 -76 -174 C-76 -233 -5 -274 99 -274 C247 -274 367 -175 367 -53 C367 1 341 18 257 18 L70 18 Z M137 288 C151 355 178 377 242 377 C290 377 314 363 314 335 C314 326 312 308 308 293 L294 228 C279 156 257 137 189 137 C141 137 118 152 118 183 C118 192 121 211 124 228 L137 288 Z M75 -70 L111 -70 L230 -70 C289 -70 292 -70 302 -76 C310 -81 314 -90 314 -101 C314 -118 306 -139 292 -161 C253 -219 185 -254 109 -254 C40 -254 0 -222 0 -168 C0 -131 17 -101 55 -70 L75 -70 Z M299 587 C266 587 236 557 236 526 C236 502 253 485 276 485 C309 485 339 515 339 547 C339 570 322 587 299 587 L299 587 Z " />
<glyph glyph-name="Gcommaaccent" unicode="&#x122;" horiz-adv-x="698" d="M655 667 L640 667 L594 625 C544 662 498 677 437 677 C345 677 248 632 170 552 C88 469 41 355 41 241 C41 188 55 139 83 95 C127 25 194 -10 284 -10 C364 -10 440 18 499 69 C539 104 559 136 588 212 L662 212 L666 230 L358 230 L354 212 L468 212 C455 152 448 128 435 105 C402 45 343 10 271 10 C183 10 135 54 135 135 C135 237 199 496 241 563 C277 623 343 657 422 657 C530 657 590 594 599 471 L613 471 L655 667 Z M218 -278 C289 -228 327 -175 327 -124 C327 -82 300 -54 260 -54 C219 -54 184 -87 184 -126 C184 -150 198 -164 221 -164 C251 -164 270 -143 275 -106 C294 -115 301 -126 301 -146 C301 -182 274 -216 207 -268 L218 -278 Z " />
<glyph glyph-name="gcommaaccent" unicode="&#x123;" horiz-adv-x="481" d="M70 18 C26 18 5 28 5 48 C5 72 39 104 98 133 C126 122 150 117 182 117 C242 117 299 140 341 179 C371 208 387 246 387 288 C387 308 383 321 372 343 C388 355 399 361 408 361 C416 361 420 357 420 350 C420 323 426 315 445 315 C466 315 485 336 485 361 C485 379 470 391 446 391 C421 391 403 383 364 353 C330 385 299 397 249 397 C135 397 45 322 45 227 C45 193 55 171 84 144 C76 139 76 139 62 130 C30 112 25 108 7 92 C-24 63 -39 32 -39 -1 C-39 -36 -20 -57 23 -69 C-47 -96 -76 -127 -76 -174 C-76 -233 -5 -274 99 -274 C247 -274 367 -175 367 -53 C367 1 341 18 257 18 L70 18 Z M137 288 C151 355 178 377 242 377 C290 377 314 363 314 335 C314 326 312 308 308 293 L294 228 C279 156 257 137 189 137 C141 137 118 152 118 183 C118 192 121 211 124 228 L137 288 Z M75 -70 L111 -70 L230 -70 C289 -70 292 -70 302 -76 C310 -81 314 -90 314 -101 C314 -118 306 -139 292 -161 C253 -219 185 -254 109 -254 C40 -254 0 -222 0 -168 C0 -131 17 -101 55 -70 L75 -70 Z M320 663 C253 615 218 565 218 517 C218 479 244 452 281 452 C320 452 352 483 352 520 C352 542 339 555 317 555 C289 555 270 535 266 501 C250 509 243 520 243 538 C243 571 269 605 331 652 L320 663 Z " />
<glyph glyph-name="Hcircumflex" unicode="&#x124;" horiz-adv-x="781" d="M555 330 L489 18 L377 18 L373 0 L673 0 L677 18 L582 18 L716 649 L811 649 L815 667 L514 667 L511 649 L623 649 L559 348 L229 348 L292 649 L404 649 L408 667 L108 667 L104 649 L199 649 L65 18 L-30 18 L-34 0 L267 0 L271 18 L159 18 L225 330 L555 330 Z M483 769 L621 721 C622 720 623 720 625 720 C628 720 631 722 631 724 C631 725 630 726 626 730 L498 838 L324 730 C317 726 316 725 316 723 C316 721 318 720 320 720 C323 720 324 720 325 721 L483 769 Z " />
<glyph glyph-name="Hbar" unicode="&#x126;" horiz-adv-x="781" d="M162 475 L65 18 L-30 18 L-34 0 L267 0 L271 18 L159 18 L225 330 L555 330 L489 18 L377 18 L373 0 L673 0 L677 18 L582 18 L679 475 L764 475 L767 493 L683 493 L716 649 L811 649 L815 667 L514 667 L511 649 L623 649 L590 493 L260 493 L292 649 L404 649 L408 667 L108 667 L104 649 L199 649 L166 493 L78 493 L74 475 L162 475 Z M256 475 L586 475 L559 348 L229 348 L256 475 Z " />
<glyph glyph-name="hbar" unicode="&#x127;" horiz-adv-x="574" d="M217 556 L241 667 L91 667 L87 649 L160 649 L140 556 L65 556 L60 532 L135 532 L26 18 L-47 18 L-51 0 L180 0 L184 18 L103 18 L137 177 C154 258 173 299 210 331 C242 359 280 373 321 373 C365 373 391 355 391 324 C391 312 390 300 387 286 L330 18 L256 18 L253 0 L484 0 L487 18 L406 18 L463 286 C466 297 467 309 467 321 C467 371 427 397 352 397 C279 397 233 380 169 327 L212 532 L390 532 L395 556 L217 556 Z " />
<glyph glyph-name="Imacron" unicode="&#x12a;" horiz-adv-x="367" d="M65 18 L-30 18 L-34 0 L259 0 L263 18 L159 18 L292 649 L397 649 L401 667 L108 667 L104 649 L199 649 L65 18 Z M419 749 L425 779 L132 779 L125 749 L419 749 Z " />
<glyph glyph-name="imacron" unicode="&#x12b;" horiz-adv-x="291" d="M210 387 L52 387 L48 369 L129 369 L55 18 L-26 18 L-30 0 L201 0 L205 18 L132 18 L210 387 Z M299 499 L304 523 L60 523 L55 499 L299 499 Z " />
<glyph glyph-name="ibreve" unicode="&#x12d;" horiz-adv-x="291" d="M210 387 L52 387 L48 369 L129 369 L55 18 L-26 18 L-30 0 L201 0 L205 18 L132 18 L210 387 Z M335 610 C319 575 306 559 285 545 C264 531 228 521 196 521 C164 521 132 531 117 545 C102 559 96 576 95 610 L83 610 C82 599 82 594 82 587 C82 517 124 467 184 467 C253 467 317 523 347 610 L335 610 Z " />
<glyph glyph-name="Iogonek" unicode="&#x12e;" horiz-adv-x="367" d="M259 0 L263 18 L159 18 L292 649 L397 649 L401 667 L108 667 L104 649 L199 649 L65 18 L-30 18 L-34 0 L149 0 C60 -26 16 -62 16 -109 C16 -142 45 -162 92 -162 C128 -162 153 -157 189 -141 L192 -127 C166 -134 151 -137 133 -137 C92 -137 73 -125 73 -100 C73 -61 103 -32 175 0 L259 0 Z " />
<glyph glyph-name="iogonek" unicode="&#x12f;" horiz-adv-x="291" d="M201 0 L205 18 L132 18 L210 387 L52 387 L48 369 L129 369 L55 18 L-26 18 L-30 0 L115 0 C34 -27 -9 -64 -9 -107 C-9 -140 18 -159 65 -159 C99 -159 120 -154 156 -138 L159 -124 C135 -132 120 -134 103 -134 C63 -134 45 -123 45 -98 C45 -60 75 -30 144 0 L201 0 Z M218 654 C183 654 151 623 151 590 C151 565 169 547 194 547 C229 547 261 578 261 612 C261 636 243 654 218 654 L218 654 Z " />
<glyph glyph-name="Idotaccent" unicode="&#x130;" horiz-adv-x="367" d="M65 18 L-30 18 L-34 0 L259 0 L263 18 L159 18 L292 649 L397 649 L401 667 L108 667 L104 649 L199 649 L65 18 Z M289 827 C256 827 226 797 226 766 C226 742 243 725 266 725 C299 725 329 755 329 787 C329 810 312 827 289 827 L289 827 Z " />
<glyph glyph-name="dotlessi" unicode="&#x131;" horiz-adv-x="291" d="M210 387 L52 387 L48 369 L129 369 L55 18 L-26 18 L-30 0 L201 0 L205 18 L132 18 L210 387 Z " />
<glyph glyph-name="Kcommaaccent" unicode="&#x136;" horiz-adv-x="722" d="M65 18 L-30 18 L-34 0 L259 0 L263 18 L159 18 L292 649 L397 649 L401 667 L108 667 L104 649 L199 649 L65 18 Z M360 407 L650 649 L742 649 L746 667 L514 667 L510 649 L616 649 L260 353 L465 18 L367 18 L364 0 L651 0 L655 18 L598 18 L360 407 Z M227 -278 C298 -229 336 -174 336 -124 C336 -82 309 -54 269 -54 C228 -54 193 -87 193 -126 C193 -150 207 -164 230 -164 C260 -164 280 -143 285 -106 C303 -115 310 -126 310 -146 C310 -182 284 -216 216 -268 L227 -278 Z " />
<glyph glyph-name="kcommaaccent" unicode="&#x137;" horiz-adv-x="539" d="M248 667 L91 667 L87 649 L168 649 L34 18 L-47 18 L-51 0 L180 0 L184 18 L111 18 L248 667 Z M265 250 L431 369 L505 369 L509 387 L294 387 L290 369 L394 369 L175 214 L298 18 L238 18 L234 0 L468 0 L472 18 L419 18 L265 250 Z M131 -265 C198 -217 233 -167 233 -119 C233 -80 208 -54 170 -54 C131 -54 99 -85 99 -122 C99 -144 112 -157 134 -157 C162 -157 181 -137 185 -103 C201 -111 208 -122 208 -140 C208 -173 182 -207 120 -254 L131 -265 Z " />
<glyph glyph-name="Lacute" unicode="&#x139;" horiz-adv-x="624" d="M509 0 L567 205 L552 205 C487 57 436 15 325 18 L159 18 L292 649 L397 649 L401 667 L108 667 L104 649 L199 649 L65 18 L-30 18 L-34 0 L509 0 Z M409 833 L258 731 C252 727 251 726 251 723 C251 721 252 720 254 720 C257 720 260 720 261 721 L502 814 C512 818 517 822 517 827 C517 831 513 833 506 833 L409 833 Z " />
<glyph glyph-name="lacute" unicode="&#x13a;" horiz-adv-x="271" d="M248 667 L80 667 L76 649 L168 649 L34 18 L-58 18 L-62 0 L191 0 L195 18 L111 18 L248 667 Z M327 833 L176 731 C171 727 170 726 170 723 C170 721 171 720 173 720 C175 720 178 720 180 721 L421 814 C432 818 436 822 436 827 C436 831 432 833 424 833 L327 833 Z " />
<glyph glyph-name="Lcommaaccent" unicode="&#x13b;" horiz-adv-x="624" d="M509 0 L567 205 L552 205 C487 57 436 15 325 18 L159 18 L292 649 L397 649 L401 667 L108 667 L104 649 L199 649 L65 18 L-30 18 L-34 0 L509 0 Z M193 -278 C264 -228 302 -175 302 -124 C302 -82 275 -54 235 -54 C194 -54 159 -87 159 -126 C159 -150 173 -164 196 -164 C226 -164 246 -143 250 -106 C269 -115 276 -126 276 -146 C276 -182 249 -216 182 -268 L193 -278 Z " />
<glyph glyph-name="lcommaaccent" unicode="&#x13c;" horiz-adv-x="271" d="M248 667 L80 667 L76 649 L168 649 L34 18 L-58 18 L-62 0 L191 0 L195 18 L111 18 L248 667 Z M15 -265 C81 -217 116 -167 116 -119 C116 -80 91 -54 54 -54 C15 -54 -17 -85 -17 -122 C-17 -144 -4 -157 17 -157 C45 -157 64 -137 68 -103 C85 -111 91 -122 91 -140 C91 -173 65 -207 4 -254 L15 -265 Z " />
<glyph glyph-name="Lcaron" unicode="&#x13d;" horiz-adv-x="624" d="M509 0 L567 205 L552 205 C487 57 436 15 325 18 L159 18 L292 649 L397 649 L401 667 L108 667 L104 649 L199 649 L65 18 L-30 18 L-34 0 L509 0 Z M449 443 C520 493 558 547 558 597 C558 639 531 667 491 667 C449 667 415 635 415 596 C415 572 429 558 452 558 C482 558 502 579 506 615 C525 606 532 595 532 575 C532 540 505 505 438 454 L449 443 Z " />
<glyph glyph-name="lcaron" unicode="&#x13e;" horiz-adv-x="348" d="M248 667 L80 667 L76 649 L168 649 L34 18 L-58 18 L-62 0 L191 0 L195 18 L111 18 L248 667 Z M298 457 C365 504 400 554 400 602 C400 640 374 667 337 667 C298 667 266 637 266 600 C266 578 279 565 301 565 C329 565 348 585 352 619 C368 610 375 600 375 581 C375 548 349 514 287 468 L298 457 Z " />
<glyph glyph-name="Ldot" unicode="&#x13f;" horiz-adv-x="624" d="M509 0 L567 205 L552 205 C487 57 436 15 325 18 L159 18 L292 649 L397 649 L401 667 L108 667 L104 649 L199 649 L65 18 L-30 18 L-34 0 L509 0 Z M382 377 C350 377 319 347 319 316 C319 292 336 275 360 275 C393 275 423 305 423 337 C423 360 406 377 382 377 L382 377 Z " />
<glyph glyph-name="ldot" unicode="&#x140;" horiz-adv-x="301" d="M248 667 L80 667 L76 649 L168 649 L34 18 L-58 18 L-62 0 L191 0 L195 18 L111 18 L248 667 Z M273 375 C240 375 210 345 210 314 C210 290 227 273 250 273 C283 273 313 303 313 335 C313 358 296 375 273 375 L273 375 Z " />
<glyph glyph-name="Lslash" unicode="&#x141;" horiz-adv-x="624" d="M117 263 L65 18 L-30 18 L-34 0 L509 0 L567 205 L552 205 C487 57 436 15 325 18 L159 18 L224 324 L451 455 L457 480 L229 349 L292 649 L397 649 L401 667 L108 667 L104 649 L199 649 L123 288 L14 225 L9 200 L117 263 Z " />
<glyph glyph-name="lslash" unicode="&#x142;" horiz-adv-x="271" d="M104 344 L8 291 L3 266 L98 319 L35 18 L-58 18 L-62 0 L191 0 L195 18 L111 18 L185 367 L290 425 L295 450 L191 392 L249 667 L80 667 L76 649 L169 649 L104 344 Z " />
<glyph glyph-name="Nacute" unicode="&#x143;" horiz-adv-x="746" d="M542 0 L558 0 L696 649 L777 649 L781 667 L579 667 L575 649 L673 649 L574 185 L329 667 L97 667 L93 649 L188 649 L54 18 L-41 18 L-45 0 L179 0 L183 18 L78 18 L210 644 L542 0 Z M583 833 L432 731 C428 728 426 726 426 723 C426 721 427 720 429 720 C431 720 434 720 435 721 L676 814 C686 818 691 822 691 827 C691 831 687 833 680 833 L583 833 Z " />
<glyph glyph-name="nacute" unicode="&#x144;" horiz-adv-x="575" d="M202 387 L52 387 L48 369 L122 369 L47 18 L-26 18 L-30 0 L201 0 L205 18 L124 18 L158 178 C178 272 193 306 229 336 C258 359 297 374 332 374 C370 374 393 355 393 325 C393 315 392 303 389 292 L331 18 L258 18 L254 0 L485 0 L489 18 L408 18 L460 265 C464 281 466 300 466 310 C466 363 419 397 349 397 C290 397 245 378 190 330 L202 387 Z M421 613 L294 470 C293 468 292 467 292 465 C292 464 293 462 294 462 L295 462 L296 463 L300 466 L486 595 C492 599 496 604 496 607 C496 611 493 613 486 613 L421 613 Z " />
<glyph glyph-name="Ncommaaccent" unicode="&#x145;" horiz-adv-x="746" d="M542 0 L558 0 L696 649 L777 649 L781 667 L579 667 L575 649 L673 649 L574 185 L329 667 L97 667 L93 649 L188 649 L54 18 L-41 18 L-45 0 L179 0 L183 18 L78 18 L210 644 L542 0 Z M233 -278 C303 -228 341 -174 341 -124 C341 -82 314 -54 275 -54 C233 -54 199 -87 199 -126 C199 -150 213 -164 236 -164 C266 -164 285 -143 290 -106 C308 -115 315 -126 315 -146 C315 -182 288 -217 222 -268 L233 -278 Z " />
<glyph glyph-name="ncommaaccent" unicode="&#x146;" horiz-adv-x="575" d="M202 387 L52 387 L48 369 L122 369 L47 18 L-26 18 L-30 0 L201 0 L205 18 L124 18 L158 178 C178 272 193 306 229 336 C258 359 297 374 332 374 C370 374 393 355 393 325 C393 315 392 303 389 292 L331 18 L258 18 L254 0 L485 0 L489 18 L408 18 L460 265 C464 281 466 300 466 310 C466 363 419 397 349 397 C290 397 245 378 190 330 L202 387 Z M173 -265 C240 -217 275 -167 275 -119 C275 -80 250 -54 213 -54 C174 -54 142 -85 142 -122 C142 -144 155 -157 176 -157 C204 -157 223 -137 227 -103 C243 -111 250 -122 250 -140 C250 -173 224 -207 162 -254 L173 -265 Z " />
<glyph glyph-name="Ncaron" unicode="&#x147;" horiz-adv-x="746" d="M542 0 L558 0 L696 649 L777 649 L781 667 L579 667 L575 649 L673 649 L574 185 L329 667 L97 667 L93 649 L188 649 L54 18 L-41 18 L-45 0 L179 0 L183 18 L78 18 L210 644 L542 0 Z M482 789 L344 838 L340 838 C336 838 334 836 334 834 C334 833 335 832 339 829 L467 720 L641 829 C646 832 648 833 648 835 C648 837 647 838 644 838 L640 838 L482 789 Z " />
<glyph glyph-name="ncaron" unicode="&#x148;" horiz-adv-x="575" d="M202 387 L52 387 L48 369 L122 369 L47 18 L-26 18 L-30 0 L201 0 L205 18 L124 18 L158 178 C178 272 193 306 229 336 C258 359 297 374 332 374 C370 374 393 355 393 325 C393 315 392 303 389 292 L331 18 L258 18 L254 0 L485 0 L489 18 L408 18 L460 265 C464 281 466 300 466 310 C466 363 419 397 349 397 C290 397 245 378 190 330 L202 387 Z M346 539 L229 615 C227 616 225 617 224 617 C221 617 219 616 219 613 C219 612 220 610 223 606 L330 463 L498 606 C502 610 505 613 505 615 C505 616 504 617 502 617 C500 617 498 616 496 615 L346 539 Z " />
<glyph glyph-name="Omacron" unicode="&#x14c;" horiz-adv-x="727" d="M437 677 C336 677 228 624 152 536 C82 456 42 351 42 245 C42 98 146 -10 287 -10 C498 -10 685 193 685 421 C685 570 581 677 437 677 L437 677 Z M433 657 C532 657 592 607 592 523 C592 491 586 448 569 367 C535 207 523 163 501 123 C462 51 385 10 291 10 C251 10 209 22 181 42 C149 65 134 97 134 146 C134 178 140 217 157 300 C191 462 203 503 225 544 C263 615 340 657 433 657 L433 657 Z M612 749 L618 779 L298 779 L292 749 L612 749 Z " />
<glyph glyph-name="omacron" unicode="&#x14d;" horiz-adv-x="517" d="M272 397 C136 397 10 280 10 153 C10 59 83 -10 184 -10 C322 -10 448 107 448 234 C448 329 375 397 272 397 L272 397 Z M113 218 C124 271 138 314 149 329 C172 359 217 377 268 377 C329 377 368 350 368 308 C368 293 362 246 356 218 L345 169 C334 116 320 73 308 58 C283 28 239 10 189 10 C129 10 89 36 89 76 C89 91 96 136 103 169 L113 218 Z M431 499 L436 523 L163 523 L157 499 L431 499 Z " />
<glyph glyph-name="Ohungarumlaut" unicode="&#x150;" horiz-adv-x="726" d="M437 677 C336 677 228 624 152 536 C82 456 42 351 42 245 C42 98 146 -10 287 -10 C498 -10 685 193 685 421 C685 570 581 677 437 677 L437 677 Z M433 657 C532 657 592 607 592 523 C592 491 586 448 569 367 C535 207 523 163 501 123 C462 51 385 10 291 10 C251 10 209 22 181 42 C149 65 134 97 134 146 C134 178 140 217 157 300 C191 462 203 503 225 544 C263 615 340 657 433 657 L433 657 Z M657 833 L523 731 C519 728 517 725 517 722 C517 720 518 719 520 719 C521 719 522 719 526 721 L734 813 C745 818 749 822 749 827 C749 831 745 833 737 833 L657 833 Z M476 833 L342 731 C336 727 335 725 335 722 C335 720 336 719 338 719 C340 719 342 720 345 721 L553 813 C564 819 568 822 568 827 C568 831 564 833 556 833 L476 833 Z " />
<glyph glyph-name="ohungarumlaut" unicode="&#x151;" horiz-adv-x="518" d="M272 397 C136 397 10 280 10 153 C10 59 83 -10 184 -10 C322 -10 448 107 448 234 C448 329 375 397 272 397 L272 397 Z M113 218 C124 271 138 314 149 329 C172 359 217 377 268 377 C329 377 368 350 368 308 C368 293 362 246 356 218 L345 169 C334 116 320 73 308 58 C283 28 239 10 189 10 C129 10 89 36 89 76 C89 91 96 136 103 169 L113 218 Z M485 613 L359 470 C358 469 357 467 357 465 C357 464 358 463 360 463 C361 463 363 464 366 466 L544 595 C551 600 555 604 555 607 C555 611 552 613 544 613 L485 613 Z M335 613 L209 470 C207 468 206 467 206 465 C206 464 207 463 209 463 C210 463 213 464 215 466 L394 595 C400 599 404 604 404 607 C404 611 401 613 393 613 L335 613 Z " />
<glyph glyph-name="OE" unicode="&#x152;" horiz-adv-x="1015" d="M997 667 L554 667 C515 675 495 677 468 677 C241 677 42 479 42 252 C42 198 56 148 84 106 C134 28 212 -10 319 -10 C351 -10 371 -8 412 0 L880 0 L946 208 L931 208 C902 150 882 117 861 92 C806 26 783 17 683 18 L528 18 L594 329 L645 329 C722 329 754 307 754 255 C754 245 753 234 750 221 L745 198 L760 198 L818 472 L803 472 L799 453 C783 376 742 347 653 347 L598 347 L662 649 L761 649 C913 650 954 617 959 486 L973 486 L997 667 Z M438 30 C386 14 362 10 318 10 C197 10 138 57 138 154 C138 204 149 272 171 360 C211 517 224 553 259 587 C303 631 376 657 454 657 C491 657 515 653 567 639 L438 30 Z " />
<glyph glyph-name="oe" unicode="&#x153;" horiz-adv-x="797" d="M689 130 C657 56 588 10 510 10 C452 10 418 39 418 87 C418 100 421 121 428 151 L444 228 L735 228 C738 242 739 250 739 259 C739 338 676 397 591 397 C528 397 468 372 422 327 C395 371 339 397 274 397 C138 397 10 279 10 153 C10 59 84 -10 187 -10 C254 -10 319 16 367 60 C395 16 448 -10 509 -10 C598 -10 676 44 711 130 L689 130 Z M111 218 C123 270 137 313 149 328 C173 359 217 377 268 377 C329 377 368 350 368 308 C368 291 362 252 355 218 L345 169 C333 116 319 73 307 58 C283 28 239 10 189 10 C128 10 89 37 89 79 C89 95 95 142 101 169 L111 218 Z M640 246 L448 246 L455 280 C469 346 508 377 576 377 C627 377 653 359 653 323 C653 314 651 301 649 289 L640 246 Z " />
<glyph glyph-name="Racute" unicode="&#x154;" horiz-adv-x="708" d="M228 345 L301 345 C348 345 386 335 408 318 C425 304 433 283 433 250 C433 236 432 224 430 214 L419 165 C415 142 412 120 412 105 C412 37 457 -5 530 -5 C561 -5 578 -1 611 12 L609 29 C585 19 574 16 561 16 C533 16 517 33 517 60 C517 72 519 88 523 108 L535 163 C538 175 539 188 539 203 C539 238 527 270 505 295 C478 324 447 337 372 350 C478 361 528 379 580 425 C618 459 637 498 637 543 C637 582 622 611 589 634 C553 659 511 667 407 667 L108 667 L104 649 L199 649 L65 18 L-30 18 L-34 0 L267 0 L271 18 L159 18 L228 345 Z M232 363 L292 649 L378 649 C489 649 533 620 533 545 C533 501 516 452 489 422 C453 383 393 363 310 363 L232 363 Z M506 833 L355 731 C349 727 348 726 348 723 C348 721 349 720 351 720 C354 720 357 720 358 721 L599 814 C609 818 614 822 614 827 C614 831 610 833 602 833 L506 833 Z " />
<glyph glyph-name="racute" unicode="&#x155;" horiz-adv-x="389" d="M202 387 L52 387 L48 369 L122 369 L47 18 L-26 18 L-30 0 L201 0 L205 18 L124 18 L149 134 C166 217 176 244 205 291 C232 335 260 360 282 360 C289 360 295 356 295 350 L295 344 C294 335 293 329 293 325 C293 306 305 294 325 294 C355 294 381 322 381 354 C381 381 361 397 327 397 C271 397 234 369 181 287 L202 387 Z M351 613 L224 470 C223 468 222 467 222 465 C222 464 223 462 224 462 L225 462 L226 463 L230 466 L416 595 C422 599 426 604 426 607 C426 611 423 613 416 613 L351 613 Z " />
<glyph glyph-name="Rcommaaccent" unicode="&#x156;" horiz-adv-x="708" d="M228 345 L301 345 C348 345 386 335 408 318 C425 304 433 283 433 250 C433 236 432 224 430 214 L419 165 C415 142 412 120 412 105 C412 37 457 -5 530 -5 C561 -5 578 -1 611 12 L609 29 C585 19 574 16 561 16 C533 16 517 33 517 60 C517 72 519 88 523 108 L535 163 C538 175 539 188 539 203 C539 238 527 270 505 295 C478 324 447 337 372 350 C478 361 528 379 580 425 C618 459 637 498 637 543 C637 582 622 611 589 634 C553 659 511 667 407 667 L108 667 L104 649 L199 649 L65 18 L-30 18 L-34 0 L267 0 L271 18 L159 18 L228 345 Z M232 363 L292 649 L378 649 C489 649 533 620 533 545 C533 501 516 452 489 422 C453 383 393 363 310 363 L232 363 Z M217 -278 C287 -229 325 -174 325 -124 C325 -82 298 -54 258 -54 C217 -54 182 -87 182 -126 C182 -150 196 -164 219 -164 C249 -164 269 -143 274 -106 C292 -115 299 -126 299 -146 C299 -182 272 -216 205 -268 L217 -278 Z " />
<glyph glyph-name="rcommaaccent" unicode="&#x157;" horiz-adv-x="389" d="M202 387 L52 387 L48 369 L122 369 L47 18 L-26 18 L-30 0 L201 0 L205 18 L124 18 L149 134 C166 217 176 244 205 291 C232 335 260 360 282 360 C289 360 295 356 295 350 L295 344 C294 335 293 329 293 325 C293 306 305 294 325 294 C355 294 381 322 381 354 C381 381 361 397 327 397 C271 397 234 369 181 287 L202 387 Z M28 -265 C95 -217 130 -167 130 -119 C130 -80 105 -54 67 -54 C28 -54 -4 -85 -4 -122 C-4 -144 9 -157 31 -157 C59 -157 77 -137 81 -103 C98 -111 105 -122 105 -140 C105 -173 79 -207 17 -254 L28 -265 Z " />
<glyph glyph-name="Rcaron" unicode="&#x158;" horiz-adv-x="708" d="M228 345 L301 345 C348 345 386 335 408 318 C425 304 433 283 433 250 C433 236 432 224 430 214 L419 165 C415 142 412 120 412 105 C412 37 457 -5 530 -5 C561 -5 578 -1 611 12 L609 29 C585 19 574 16 561 16 C533 16 517 33 517 60 C517 72 519 88 523 108 L535 163 C538 175 539 188 539 203 C539 238 527 270 505 295 C478 324 447 337 372 350 C478 361 528 379 580 425 C618 459 637 498 637 543 C637 582 622 611 589 634 C553 659 511 667 407 667 L108 667 L104 649 L199 649 L65 18 L-30 18 L-34 0 L267 0 L271 18 L159 18 L228 345 Z M232 363 L292 649 L378 649 C489 649 533 620 533 545 C533 501 516 452 489 422 C453 383 393 363 310 363 L232 363 Z M436 789 L299 838 L295 838 C291 838 289 836 289 834 C289 833 290 831 293 829 L421 720 L596 829 C602 832 603 833 603 835 C603 837 602 838 599 838 L594 838 L436 789 Z " />
<glyph glyph-name="rcaron" unicode="&#x159;" horiz-adv-x="389" d="M202 387 L52 387 L48 369 L122 369 L47 18 L-26 18 L-30 0 L201 0 L205 18 L124 18 L149 134 C166 217 176 244 205 291 C232 335 260 360 282 360 C289 360 295 356 295 350 L295 344 C294 335 293 329 293 325 C293 306 305 294 325 294 C355 294 381 322 381 354 C381 381 361 397 327 397 C271 397 234 369 181 287 L202 387 Z M259 539 L142 615 C140 616 138 617 137 617 C134 617 132 616 132 613 C132 612 133 610 136 606 L243 463 L411 606 C415 609 418 613 418 615 C418 616 417 617 415 617 C413 617 411 616 409 615 L259 539 Z " />
<glyph glyph-name="Sacute" unicode="&#x15a;" horiz-adv-x="552" d="M530 676 L515 676 L471 633 C431 663 390 677 340 677 C211 677 93 564 93 439 C93 372 131 333 220 310 L301 290 C384 268 416 240 416 188 C416 90 327 10 219 10 C114 10 47 77 47 181 C47 187 47 197 48 207 L26 207 L-11 0 L4 0 L54 56 C101 8 143 -10 209 -10 C294 -10 368 28 420 97 C457 148 479 210 479 266 C479 342 438 385 340 409 L285 423 C189 446 155 471 155 515 C155 590 237 657 328 657 C417 657 473 605 473 524 L473 503 L495 503 L530 676 Z M473 833 L323 731 C317 727 316 726 316 723 C316 721 317 720 319 720 C322 720 325 720 326 721 L567 814 C578 818 582 822 582 827 C582 831 578 833 570 833 L473 833 Z " />
<glyph glyph-name="sacute" unicode="&#x15b;" horiz-adv-x="392" d="M343 395 L328 395 L306 359 C272 387 245 397 207 397 C120 397 47 331 47 253 C47 203 74 174 128 164 L209 148 C252 140 271 125 271 99 C271 53 213 10 152 10 C105 10 69 31 49 71 C39 91 36 109 36 148 L17 148 L-14 0 L-3 0 L30 38 C69 2 96 -10 139 -10 C234 -10 311 63 311 151 C311 206 282 234 211 248 L163 257 C107 267 85 279 85 298 C85 339 138 377 195 377 C261 377 300 341 300 280 L319 280 L343 395 Z M335 613 L209 470 C208 468 207 466 207 465 C207 464 208 462 209 462 L210 462 L211 463 L215 466 L401 595 C407 599 411 604 411 607 C411 611 408 613 401 613 L335 613 Z " />
<glyph glyph-name="Scircumflex" unicode="&#x15c;" horiz-adv-x="552" d="M530 676 L515 676 L471 633 C431 663 390 677 340 677 C211 677 93 564 93 439 C93 372 131 333 220 310 L301 290 C384 268 416 240 416 188 C416 90 327 10 219 10 C114 10 47 77 47 181 C47 187 47 197 48 207 L26 207 L-11 0 L4 0 L54 56 C101 8 143 -10 209 -10 C294 -10 368 28 420 97 C457 148 479 210 479 266 C479 342 438 385 340 409 L285 423 C189 446 155 471 155 515 C155 590 237 657 328 657 C417 657 473 605 473 524 L473 503 L495 503 L530 676 Z M376 769 L514 721 C515 720 516 720 518 720 C521 720 524 722 524 724 C524 725 523 727 519 730 L391 838 L217 730 C212 727 210 725 210 723 C210 721 212 720 214 720 C216 720 217 720 218 721 L376 769 Z " />
<glyph glyph-name="scircumflex" unicode="&#x15d;" horiz-adv-x="392" d="M343 395 L328 395 L306 359 C272 387 245 397 207 397 C120 397 47 331 47 253 C47 203 74 174 128 164 L209 148 C252 140 271 125 271 99 C271 53 213 10 152 10 C105 10 69 31 49 71 C39 91 36 109 36 148 L17 148 L-14 0 L-3 0 L30 38 C69 2 96 -10 139 -10 C234 -10 311 63 311 151 C311 206 282 234 211 248 L163 257 C107 267 85 279 85 298 C85 339 138 377 195 377 C261 377 300 341 300 280 L319 280 L343 395 Z M255 541 L373 465 C374 464 376 463 378 463 C380 463 382 464 382 467 C382 468 381 471 378 474 L271 617 L104 474 C98 469 96 467 96 465 C96 464 97 463 99 463 C101 463 103 464 105 465 L255 541 Z " />
<glyph glyph-name="Scedilla" unicode="&#x15e;" horiz-adv-x="552" d="M210 -10 C286 -9 347 18 397 71 C448 124 479 199 479 266 C479 342 438 385 340 409 L285 423 C189 446 155 471 155 515 C155 590 237 657 328 657 C417 657 473 605 473 524 L473 503 L495 503 L530 676 L515 676 L471 633 C431 663 390 677 340 677 C211 677 93 564 93 439 C93 372 131 333 220 310 L301 290 C384 268 416 240 416 188 C416 90 327 10 219 10 C114 10 47 77 47 181 C47 187 47 197 48 207 L26 207 L-11 0 L4 0 L54 56 C93 15 133 -5 189 -9 L159 -67 C197 -75 214 -88 214 -109 C214 -139 180 -165 141 -165 C115 -165 91 -156 91 -147 C91 -146 91 -145 92 -144 C98 -131 99 -128 99 -117 C99 -107 95 -101 88 -101 C77 -101 70 -112 70 -128 C70 -160 101 -181 148 -181 C214 -181 276 -142 276 -101 C276 -74 249 -58 200 -58 L184 -58 L210 -10 Z " />
<glyph glyph-name="scedilla" unicode="&#x15f;" horiz-adv-x="392" d="M141 -10 C236 -9 311 63 311 151 C311 206 282 234 211 248 L163 257 C107 267 85 279 85 298 C85 339 138 377 195 377 C261 377 300 341 300 280 L319 280 L343 395 L328 395 L306 359 C272 387 245 397 207 397 C120 397 47 331 47 253 C47 203 74 174 128 164 L209 148 C252 140 271 125 271 99 C271 53 213 10 152 10 C105 10 69 31 49 71 C39 91 36 109 36 148 L17 148 L-14 0 L-3 0 L30 38 C62 8 85 -4 121 -9 L93 -65 C129 -73 143 -85 143 -107 C143 -135 111 -160 74 -160 C50 -160 27 -152 27 -143 C27 -141 27 -140 28 -139 C34 -126 35 -124 35 -113 C35 -103 31 -98 24 -98 C14 -98 7 -109 7 -125 C7 -156 36 -176 81 -176 C144 -176 203 -138 203 -98 C203 -73 175 -54 138 -56 L117 -56 L141 -10 Z " />
<glyph glyph-name="Scaron" unicode="&#x160;" horiz-adv-x="552" d="M374 789 L237 838 L233 838 C229 838 227 836 227 834 C227 833 228 831 231 829 L360 720 L534 829 C539 832 541 834 541 835 C541 837 540 838 537 838 L532 838 L374 789 Z M530 676 L515 676 L471 633 C431 663 390 677 340 677 C211 677 93 564 93 439 C93 372 131 333 220 310 L301 290 C384 268 416 240 416 188 C416 90 327 10 219 10 C114 10 47 77 47 181 C47 187 47 197 48 207 L26 207 L-11 0 L4 0 L54 56 C101 8 143 -10 209 -10 C294 -10 368 28 420 97 C457 148 479 210 479 266 C479 342 438 385 340 409 L285 423 C189 446 155 471 155 515 C155 590 237 657 328 657 C417 657 473 605 473 524 L473 503 L495 503 L530 676 Z " />
<glyph glyph-name="scaron" unicode="&#x161;" horiz-adv-x="392" d="M343 395 L328 395 L306 359 C272 387 245 397 207 397 C120 397 47 331 47 253 C47 203 74 174 128 164 L209 148 C252 140 271 125 271 99 C271 53 213 10 152 10 C105 10 69 31 49 71 C39 91 36 109 36 148 L17 148 L-14 0 L-3 0 L30 38 C69 2 96 -10 139 -10 C234 -10 311 63 311 151 C311 206 282 234 211 248 L163 257 C107 267 85 279 85 298 C85 339 138 377 195 377 C261 377 300 341 300 280 L319 280 L343 395 Z M246 539 L129 615 C127 616 125 617 124 617 C121 617 119 616 119 613 C119 612 120 610 123 606 L230 463 L398 606 C403 610 405 613 405 615 C405 616 404 617 402 617 C400 617 398 616 396 615 L246 539 Z " />
<glyph glyph-name="Tcommaaccent" unicode="&#x162;" horiz-adv-x="632" d="M428 649 L479 649 C581 648 615 605 628 457 L643 459 L673 667 L93 667 L41 459 L55 457 C82 518 102 551 134 587 C183 638 209 649 282 649 L335 649 L201 18 L91 18 L87 0 L401 0 L405 18 L295 18 L428 649 Z M187 -278 C257 -228 295 -175 295 -124 C295 -82 268 -54 228 -54 C187 -54 152 -87 152 -126 C152 -150 166 -164 189 -164 C219 -164 239 -143 244 -106 C262 -115 269 -126 269 -146 C269 -182 242 -216 175 -268 L187 -278 Z " />
<glyph glyph-name="tcommaaccent" unicode="&#x163;" horiz-adv-x="318" d="M185 369 L303 369 L307 387 L189 387 L223 546 L214 546 C176 478 92 403 33 384 L30 369 L109 369 L53 107 C48 83 46 69 46 60 C46 17 80 -10 134 -10 C198 -10 239 17 263 74 L241 74 C224 37 202 20 167 20 C138 20 121 34 121 57 C121 64 122 70 125 85 L185 369 Z M54 -265 C121 -217 156 -167 156 -119 C156 -81 130 -54 93 -54 C54 -54 22 -85 22 -122 C22 -144 35 -157 57 -157 C85 -157 103 -137 107 -103 C124 -111 131 -122 131 -140 C131 -173 105 -207 43 -254 L54 -265 Z " />
<glyph glyph-name="Tcaron" unicode="&#x164;" horiz-adv-x="632" d="M428 649 L479 649 C581 648 615 605 628 457 L643 459 L673 667 L93 667 L41 459 L55 457 C82 518 102 551 134 587 C183 638 209 649 282 649 L335 649 L201 18 L91 18 L87 0 L401 0 L405 18 L295 18 L428 649 Z M412 789 L275 838 L271 838 C267 838 265 836 265 834 C265 833 266 831 270 829 L398 720 L572 829 C577 832 579 833 579 835 C579 837 578 838 575 838 L570 838 L412 789 Z " />
<glyph glyph-name="tcaron" unicode="&#x165;" horiz-adv-x="340" d="M185 369 L303 369 L307 387 L189 387 L223 546 L214 546 C176 478 92 403 33 384 L30 369 L109 369 L53 107 C48 84 46 69 46 60 C46 17 80 -10 134 -10 C198 -10 239 17 263 74 L241 74 C224 36 202 20 167 20 C138 20 121 34 121 57 C121 64 122 70 125 85 L185 369 Z M287 457 C353 504 389 554 389 602 C389 641 363 667 326 667 C287 667 255 637 255 600 C255 578 268 565 290 565 C318 565 336 584 340 619 C357 610 364 600 364 581 C364 548 338 514 276 468 L287 457 Z " />
<glyph glyph-name="utilde" unicode="&#x169;" horiz-adv-x="562" d="M480 387 L322 387 L319 369 L400 369 L364 200 C346 117 325 72 291 46 C263 25 225 13 188 13 C144 13 124 30 124 66 C124 78 126 92 131 117 L189 387 L31 387 L27 369 L108 369 L57 131 C53 108 50 88 50 75 C50 20 93 -10 174 -10 C241 -10 284 9 334 60 L321 0 L471 0 L475 18 L402 18 L480 387 Z M480 572 C459 550 441 541 417 541 C405 541 385 545 374 549 L337 563 C318 570 306 573 291 573 C244 573 214 554 175 499 L183 493 C204 515 223 524 251 524 C266 524 281 521 297 515 L333 502 C351 495 365 492 377 492 C415 492 444 512 488 567 L480 572 Z " />
<glyph glyph-name="Umacron" unicode="&#x16a;" horiz-adv-x="707" d="M287 649 L382 649 L386 667 L93 667 L89 649 L194 649 L109 249 C99 203 94 167 94 143 C94 42 166 -10 306 -10 C390 -10 455 15 502 67 C536 104 554 144 571 222 L661 649 L744 649 L748 667 L554 667 L550 649 L638 649 L547 222 C527 128 512 98 467 60 C427 26 381 10 328 10 C237 10 181 55 181 127 C181 145 184 163 193 205 L287 649 Z M617 749 L623 779 L303 779 L297 749 L617 749 Z " />
<glyph glyph-name="umacron" unicode="&#x16b;" horiz-adv-x="562" d="M480 387 L322 387 L319 369 L400 369 L364 200 C346 117 325 72 291 46 C263 25 225 13 188 13 C144 13 124 30 124 66 C124 78 126 92 131 117 L189 387 L31 387 L27 369 L108 369 L57 131 C53 108 50 88 50 75 C50 20 93 -10 174 -10 C241 -10 284 9 334 60 L321 0 L471 0 L475 18 L402 18 L480 387 Z M459 499 L464 523 L191 523 L186 499 L459 499 Z " />
<glyph glyph-name="ubreve" unicode="&#x16d;" horiz-adv-x="562" d="M480 387 L322 387 L319 369 L400 369 L364 200 C346 117 325 72 291 46 C263 25 225 13 188 13 C144 13 124 30 124 66 C124 78 126 92 131 117 L189 387 L31 387 L27 369 L108 369 L57 131 C53 108 50 88 50 75 C50 20 93 -10 174 -10 C241 -10 284 9 334 60 L321 0 L471 0 L475 18 L402 18 L480 387 Z M460 610 C443 575 431 559 410 545 C388 531 352 521 321 521 C289 521 256 531 241 545 C227 559 221 576 219 610 L208 610 C207 598 207 594 207 587 C207 517 249 467 309 467 C378 467 441 523 471 610 L460 610 Z " />
<glyph glyph-name="Uring" unicode="&#x16e;" horiz-adv-x="707" d="M287 649 L382 649 L386 667 L93 667 L89 649 L194 649 L109 249 C99 203 94 167 94 143 C94 42 166 -10 306 -10 C390 -10 455 15 502 67 C536 104 554 144 571 222 L661 649 L744 649 L748 667 L554 667 L550 649 L638 649 L547 222 C527 128 512 98 467 60 C427 26 381 10 328 10 C237 10 181 55 181 127 C181 145 184 163 193 205 L287 649 Z M500 859 C451 859 406 815 406 766 C406 731 431 707 467 707 C517 707 560 750 560 800 C560 834 535 859 500 859 L500 859 Z M493 832 C515 832 531 815 531 793 C531 763 502 734 472 734 C451 734 435 751 435 773 C435 802 464 832 493 832 L493 832 Z " />
<glyph glyph-name="uring" unicode="&#x16f;" horiz-adv-x="562" d="M480 387 L322 387 L319 369 L400 369 L364 200 C346 117 325 72 291 46 C263 25 225 13 188 13 C144 13 124 30 124 66 C124 78 126 92 131 117 L189 387 L31 387 L27 369 L108 369 L57 131 C53 108 50 88 50 75 C50 20 93 -10 174 -10 C241 -10 284 9 334 60 L321 0 L471 0 L475 18 L402 18 L480 387 Z M357 615 C307 615 262 571 262 522 C262 487 287 463 323 463 C373 463 417 506 417 556 C417 590 391 615 357 615 L357 615 Z M350 588 C371 588 388 571 388 549 C388 519 358 490 328 490 C307 490 291 507 291 529 C291 558 321 588 350 588 L350 588 Z " />
<glyph glyph-name="Uhungarumlaut" unicode="&#x170;" horiz-adv-x="707" d="M287 649 L382 649 L386 667 L93 667 L89 649 L194 649 L109 249 C99 203 94 167 94 143 C94 42 166 -10 306 -10 C390 -10 455 15 502 67 C536 104 554 144 571 222 L661 649 L744 649 L748 667 L554 667 L550 649 L638 649 L547 222 C527 128 512 98 467 60 C427 26 381 10 328 10 C237 10 181 55 181 127 C181 145 184 163 193 205 L287 649 Z M663 833 L528 731 C523 727 522 726 522 723 C522 721 523 720 525 720 C528 720 530 720 532 721 L739 813 C750 818 754 822 754 827 C754 831 750 833 743 833 L663 833 Z M481 833 L347 731 C342 727 341 726 341 723 C341 721 342 720 344 720 C347 720 349 720 351 721 L558 813 C569 818 573 822 573 827 C573 831 569 833 562 833 L481 833 Z " />
<glyph glyph-name="uhungarumlaut" unicode="&#x171;" horiz-adv-x="562" d="M480 387 L322 387 L319 369 L400 369 L364 200 C346 117 325 72 291 46 C263 25 225 13 188 13 C144 13 124 30 124 66 C124 78 126 92 131 117 L189 387 L31 387 L27 369 L108 369 L57 131 C53 108 50 88 50 75 C50 20 93 -10 174 -10 C241 -10 284 9 334 60 L321 0 L471 0 L475 18 L402 18 L480 387 Z M497 613 L371 470 C369 468 368 467 368 465 C368 464 369 463 371 463 C372 463 375 464 377 466 L556 595 C562 599 566 604 566 607 C566 611 563 613 555 613 L497 613 Z M346 613 L220 470 C218 468 217 466 217 465 C217 464 218 463 220 463 C221 463 224 464 226 466 L405 595 C411 599 415 604 415 607 C415 611 412 613 405 613 L346 613 Z " />
<glyph glyph-name="Uogonek" unicode="&#x172;" horiz-adv-x="707" d="M452 -127 C427 -134 411 -137 394 -137 C353 -137 334 -125 334 -101 C334 -63 357 -37 440 17 C516 64 549 116 571 222 L661 649 L744 649 L748 667 L554 667 L550 649 L638 649 L547 222 C527 128 512 98 467 60 C427 26 381 10 328 10 C237 10 181 55 181 127 C181 145 184 163 193 205 L287 649 L382 649 L386 667 L93 667 L89 649 L194 649 L109 249 C99 203 94 167 94 143 C94 83 119 40 165 17 C202 0 251 -10 303 -10 C329 -10 353 -8 378 -3 C312 -30 277 -67 277 -110 C277 -143 306 -162 354 -162 C390 -162 413 -157 449 -141 L452 -127 Z " />
<glyph glyph-name="uogonek" unicode="&#x173;" horiz-adv-x="562" d="M471 0 L475 18 L402 18 L480 387 L322 387 L319 369 L400 369 L364 200 C346 117 325 72 291 46 C263 25 225 13 188 13 C144 13 124 30 124 66 C124 78 126 92 131 117 L189 387 L31 387 L27 369 L108 369 L57 131 C53 108 50 88 50 75 C50 20 93 -10 174 -10 C241 -10 284 9 334 60 L321 0 L379 0 C297 -27 254 -64 254 -107 C254 -140 281 -159 328 -159 C362 -159 384 -154 419 -138 L422 -124 C398 -132 383 -134 366 -134 C326 -134 308 -123 308 -98 C308 -60 338 -30 407 0 L471 0 Z " />
<glyph glyph-name="Wcircumflex" unicode="&#x174;" horiz-adv-x="862" d="M578 143 L522 431 L654 649 L715 649 L719 667 L60 667 L56 649 L121 649 L237 -10 L257 -10 L442 292 L496 -10 L515 -10 L884 649 L944 649 L948 667 L763 667 L759 649 L859 649 L578 143 Z M231 649 L374 649 L435 325 L319 135 L231 649 Z M489 649 L621 649 L517 467 L489 649 Z M549 769 L686 721 C687 720 689 720 690 720 C694 720 696 722 696 724 C696 725 695 728 692 730 L564 838 L389 730 C384 726 382 725 382 723 C382 721 384 720 386 720 C388 720 390 720 391 721 L549 769 Z " />
<glyph glyph-name="Ycircumflex" unicode="&#x176;" horiz-adv-x="606" d="M351 312 L620 649 L696 649 L699 667 L490 667 L486 649 L593 649 L353 353 L232 649 L329 649 L333 667 L49 667 L45 649 L108 649 L258 312 L195 18 L85 18 L81 0 L404 0 L408 18 L289 18 L351 312 Z M413 769 L550 721 C551 720 553 720 554 720 C558 720 560 722 560 724 C560 725 559 727 556 730 L428 838 L253 730 C248 727 246 725 246 723 C246 721 248 720 250 720 C252 720 253 720 255 721 L413 769 Z " />
<glyph glyph-name="ycircumflex" unicode="&#x177;" horiz-adv-x="455" d="M224 94 L157 369 L231 369 L235 387 L12 387 L8 369 L59 369 L165 -6 L73 -161 C49 -201 42 -208 26 -208 C20 -208 15 -206 12 -200 C-1 -180 -10 -174 -29 -174 C-61 -174 -88 -200 -88 -231 C-88 -256 -68 -274 -39 -274 C11 -274 47 -245 92 -170 L415 369 L463 369 L466 387 L313 387 L309 369 L386 369 L224 94 Z M289 541 L406 465 C408 464 410 463 411 463 C414 463 416 465 416 467 C416 468 415 470 412 474 L305 617 L137 474 C132 470 130 467 130 465 C130 464 131 463 133 463 C135 463 137 464 139 465 L289 541 Z " />
<glyph glyph-name="Ydieresis" unicode="&#x178;" horiz-adv-x="606" d="M317 823 C286 823 257 795 257 765 C257 743 273 727 296 727 C327 727 356 755 356 785 C356 807 340 823 317 823 L317 823 Z M550 823 C519 823 490 795 490 765 C490 743 506 727 529 727 C560 727 589 755 589 785 C589 807 573 823 550 823 L550 823 Z M351 312 L620 649 L696 649 L699 667 L490 667 L486 649 L593 649 L353 353 L232 649 L329 649 L333 667 L49 667 L45 649 L108 649 L258 312 L195 18 L85 18 L81 0 L404 0 L408 18 L289 18 L351 312 Z " />
<glyph glyph-name="Zacute" unicode="&#x179;" horiz-adv-x="614" d="M493 0 L558 208 L543 208 C469 54 417 13 300 18 L86 18 L655 667 L160 667 L95 464 L110 464 C177 604 227 648 321 649 L522 649 L-33 24 L-38 0 L493 0 Z M534 833 L383 731 C378 727 377 726 377 723 C377 721 378 720 380 720 C382 720 385 720 387 721 L628 814 C639 818 643 822 643 827 C643 831 639 833 631 833 L534 833 Z " />
<glyph glyph-name="zacute" unicode="&#x17a;" horiz-adv-x="441" d="M332 0 L370 164 L355 164 C300 42 271 18 177 18 L78 18 L424 387 L80 387 L44 238 L59 238 C117 349 143 368 239 369 L304 369 L-37 0 L332 0 Z M377 613 L251 470 C249 468 248 466 248 465 C248 464 249 462 250 462 L251 462 L252 463 L256 466 L443 595 C449 599 453 604 453 607 C453 611 450 613 442 613 L377 613 Z " />
<glyph glyph-name="Zdotaccent" unicode="&#x17b;" horiz-adv-x="614" d="M493 0 L558 208 L543 208 C469 54 417 13 300 18 L86 18 L655 667 L160 667 L95 464 L110 464 C177 604 227 648 321 649 L522 649 L-33 24 L-38 0 L493 0 Z M446 827 C413 827 383 797 383 766 C383 742 400 725 423 725 C456 725 486 755 486 787 C486 810 469 827 446 827 L446 827 Z " />
<glyph glyph-name="zdotaccent" unicode="&#x17c;" horiz-adv-x="441" d="M332 0 L370 164 L355 164 C300 42 271 18 177 18 L78 18 L424 387 L80 387 L44 238 L59 238 C117 349 143 368 239 369 L304 369 L-37 0 L332 0 Z M305 587 C272 587 242 557 242 526 C242 502 259 485 282 485 C315 485 345 515 345 547 C345 570 328 587 305 587 L305 587 Z " />
<glyph glyph-name="Zcaron" unicode="&#x17d;" horiz-adv-x="614" d="M442 789 L305 838 L301 838 C297 838 295 836 295 834 C295 833 296 831 299 829 L427 720 L602 829 C608 832 609 834 609 835 C609 837 608 838 605 838 L600 838 L442 789 Z M493 0 L558 208 L543 208 C469 54 417 13 300 18 L86 18 L655 667 L160 667 L95 464 L110 464 C177 604 227 648 321 649 L522 649 L-33 24 L-38 0 L493 0 Z " />
<glyph glyph-name="zcaron" unicode="&#x17e;" horiz-adv-x="441" d="M296 539 L178 615 C177 616 175 617 173 617 C171 617 169 616 169 613 C169 611 170 609 173 606 L280 463 L447 606 C453 611 455 613 455 615 C455 616 454 617 452 617 C450 617 448 616 445 615 L296 539 Z M332 0 L370 164 L355 164 C300 42 271 18 177 18 L78 18 L424 387 L80 387 L44 238 L59 238 C117 349 143 368 239 369 L304 369 L-37 0 L332 0 Z " />
<glyph glyph-name="florin" unicode="&#x192;" horiz-adv-x="550" d="M293 302 L389 302 L397 320 L301 320 L361 459 C419 595 475 660 534 660 C546 660 552 657 552 650 C552 646 549 643 543 640 C520 628 512 620 512 606 C512 590 525 579 544 579 C578 579 605 604 605 635 C605 660 577 677 538 677 C436 677 328 574 259 413 L219 320 L123 320 L116 302 L211 302 L71 -27 C24 -136 6 -174 -13 -199 C-44 -242 -77 -263 -113 -263 C-129 -263 -139 -258 -139 -252 C-139 -248 -137 -245 -128 -237 C-114 -224 -109 -217 -109 -207 C-109 -194 -121 -183 -137 -183 C-165 -183 -190 -208 -190 -236 C-190 -263 -163 -280 -121 -280 C-67 -280 -21 -259 28 -211 C86 -155 130 -81 190 59 L293 302 Z " />
<glyph glyph-name="uni01CD" unicode="&#x1cd;" horiz-adv-x="667" d="M377 214 L409 18 L305 18 L301 0 L600 0 L604 18 L520 18 L418 667 L388 667 L0 18 L-70 18 L-74 0 L121 0 L125 18 L28 18 L143 214 L377 214 Z M374 232 L155 232 L327 527 L374 232 Z M431 789 L294 838 L290 838 C286 838 284 836 284 834 C284 833 285 831 288 829 L416 720 L590 829 C597 833 598 834 598 835 C598 837 597 838 594 838 L589 838 L431 789 Z " />
<glyph glyph-name="uni01CE" unicode="&#x1ce;" horiz-adv-x="464" d="M279 215 C174 212 124 203 70 174 C20 148 -11 106 -11 64 C-11 17 26 -10 89 -10 C153 -10 201 15 248 71 L247 50 C247 11 269 -10 308 -10 C335 -10 347 -6 388 18 L380 30 C364 19 354 15 343 15 C327 15 318 23 318 36 C318 39 318 39 322 57 L370 282 C372 295 374 308 374 320 C374 367 325 397 247 397 C154 397 65 345 65 290 C65 270 78 257 98 257 C124 257 148 280 148 304 C148 312 145 318 135 329 C129 335 127 339 127 341 C127 358 187 380 234 380 C275 380 303 363 303 338 C303 332 302 323 300 315 L279 215 Z M269 167 C261 131 252 106 241 89 C217 54 174 30 133 30 C94 30 69 51 69 82 C69 110 82 135 107 155 C145 186 190 198 276 200 L269 167 Z M293 539 L176 615 C174 616 172 617 171 617 C168 617 166 615 166 613 C166 612 167 609 170 606 L277 463 L445 606 C450 610 452 613 452 615 C452 616 451 617 449 617 C447 617 445 616 443 615 L293 539 Z " />
<glyph glyph-name="uni01D3" unicode="&#x1d3;" horiz-adv-x="707" d="M287 649 L382 649 L386 667 L93 667 L89 649 L194 649 L109 249 C99 203 94 167 94 143 C94 42 166 -10 306 -10 C390 -10 455 15 502 67 C536 104 554 144 571 222 L661 649 L744 649 L748 667 L554 667 L550 649 L638 649 L547 222 C527 128 512 98 467 60 C427 26 381 10 328 10 C237 10 181 55 181 127 C181 145 184 163 193 205 L287 649 Z M484 789 L347 838 L343 838 C339 838 337 836 337 834 C337 833 338 832 342 829 L470 720 L644 829 C649 832 651 833 651 835 C651 837 650 838 647 838 L642 838 L484 789 Z " />
<glyph glyph-name="uni01D4" unicode="&#x1d4;" horiz-adv-x="562" d="M480 387 L322 387 L319 369 L400 369 L364 200 C346 117 325 72 291 46 C263 25 225 13 188 13 C144 13 124 30 124 66 C124 78 126 92 131 117 L189 387 L31 387 L27 369 L108 369 L57 131 C53 108 50 88 50 75 C50 20 93 -10 174 -10 C241 -10 284 9 334 60 L321 0 L471 0 L475 18 L402 18 L480 387 Z M343 539 L226 615 C224 616 222 617 221 617 C218 617 216 616 216 613 C216 612 217 610 220 606 L327 463 L495 606 C499 609 502 613 502 615 C502 616 501 617 499 617 C497 617 495 616 493 615 L343 539 Z " />
<glyph glyph-name="Gcaron" unicode="&#x1e6;" horiz-adv-x="698" d="M655 667 L640 667 L594 625 C544 662 498 677 437 677 C345 677 248 632 170 552 C88 469 41 355 41 241 C41 188 55 139 83 95 C127 25 194 -10 284 -10 C364 -10 440 18 499 69 C539 104 559 136 588 212 L662 212 L666 230 L358 230 L354 212 L468 212 C455 152 448 128 435 105 C402 45 343 10 271 10 C183 10 135 54 135 135 C135 237 199 496 241 563 C277 623 343 657 422 657 C530 657 590 594 599 471 L613 471 L655 667 Z M462 789 L325 838 L321 838 C317 838 315 836 315 834 C315 833 316 832 320 829 L448 720 L622 829 C628 832 629 833 629 836 C629 837 628 838 625 838 L620 838 L462 789 Z " />
<glyph glyph-name="gcaron" unicode="&#x1e7;" horiz-adv-x="481" d="M70 18 C26 18 5 28 5 48 C5 72 39 104 98 133 C126 122 150 117 182 117 C242 117 299 140 341 179 C371 208 387 246 387 288 C387 308 383 321 372 343 C388 355 399 361 408 361 C416 361 420 357 420 350 C420 323 426 315 445 315 C466 315 485 336 485 361 C485 379 470 391 446 391 C421 391 403 383 364 353 C330 385 299 397 249 397 C135 397 45 322 45 227 C45 193 55 171 84 144 C76 139 76 139 62 130 C30 112 25 108 7 92 C-24 63 -39 32 -39 -1 C-39 -36 -20 -57 23 -69 C-47 -96 -76 -127 -76 -174 C-76 -233 -5 -274 99 -274 C247 -274 367 -175 367 -53 C367 1 341 18 257 18 L70 18 Z M137 288 C151 355 178 377 242 377 C290 377 314 363 314 335 C314 326 312 308 308 293 L294 228 C279 156 257 137 189 137 C141 137 118 152 118 183 C118 192 121 211 124 228 L137 288 Z M75 -70 L111 -70 L230 -70 C289 -70 292 -70 302 -76 C310 -81 314 -90 314 -101 C314 -118 306 -139 292 -161 C253 -219 185 -254 109 -254 C40 -254 0 -222 0 -168 C0 -131 17 -101 55 -70 L75 -70 Z M288 539 L171 615 C169 616 167 617 165 617 C163 617 161 616 161 613 C161 612 162 610 165 606 L272 463 L440 606 C445 610 447 613 447 615 C447 616 446 617 444 617 C442 617 440 616 438 615 L288 539 Z " />
<glyph glyph-name="Scommaaccent" unicode="&#x218;" horiz-adv-x="552" d="M530 676 L515 676 L471 633 C431 663 390 677 340 677 C211 677 93 564 93 439 C93 372 131 333 220 310 L301 290 C384 268 416 240 416 188 C416 90 327 10 219 10 C114 10 47 77 47 181 C47 187 47 197 48 207 L26 207 L-11 0 L4 0 L54 56 C101 8 143 -10 209 -10 C294 -10 368 28 420 97 C457 148 479 210 479 266 C479 342 438 385 340 409 L285 423 C189 446 155 471 155 515 C155 590 237 657 328 657 C417 657 473 605 473 524 L473 503 L495 503 L530 676 Z M140 -278 C211 -228 249 -175 249 -124 C249 -82 222 -54 182 -54 C141 -54 106 -87 106 -126 C106 -150 120 -164 143 -164 C173 -164 193 -143 197 -106 C216 -115 223 -126 223 -146 C223 -182 196 -216 129 -268 L140 -278 Z " />
<glyph glyph-name="scommaaccent" unicode="&#x219;" horiz-adv-x="392" d="M343 395 L328 395 L306 359 C272 387 245 397 207 397 C120 397 47 331 47 253 C47 203 74 174 128 164 L209 148 C252 140 271 125 271 99 C271 53 213 10 152 10 C105 10 69 31 49 71 C39 91 36 109 36 148 L17 148 L-14 0 L-3 0 L30 38 C69 2 96 -10 139 -10 C234 -10 311 63 311 151 C311 206 282 234 211 248 L163 257 C107 267 85 279 85 298 C85 339 138 377 195 377 C261 377 300 341 300 280 L319 280 L343 395 Z M82 -265 C149 -217 184 -167 184 -119 C184 -80 159 -54 121 -54 C82 -54 50 -85 50 -122 C50 -144 63 -157 85 -157 C113 -157 131 -137 135 -103 C152 -111 159 -122 159 -140 C159 -173 133 -207 71 -254 L82 -265 Z " />
<glyph glyph-name="uni021A" unicode="&#x21a;" horiz-adv-x="632" d="M428 649 L479 649 C581 648 615 605 628 457 L643 459 L673 667 L93 667 L41 459 L55 457 C82 518 102 551 134 587 C183 638 209 649 282 649 L335 649 L201 18 L91 18 L87 0 L401 0 L405 18 L295 18 L428 649 Z M187 -278 C257 -228 295 -175 295 -124 C295 -82 268 -54 228 -54 C187 -54 152 -87 152 -126 C152 -150 166 -164 189 -164 C219 -164 239 -143 244 -106 C262 -115 269 -126 269 -146 C269 -182 242 -216 175 -268 L187 -278 Z " />
<glyph glyph-name="uni021B" unicode="&#x21b;" horiz-adv-x="318" d="M185 369 L303 369 L307 387 L189 387 L223 546 L214 546 C176 478 92 403 33 384 L30 369 L109 369 L53 107 C48 83 46 69 46 60 C46 17 80 -10 134 -10 C198 -10 239 17 263 74 L241 74 C224 37 202 20 167 20 C138 20 121 34 121 57 C121 64 122 70 125 85 L185 369 Z M54 -265 C121 -217 156 -167 156 -119 C156 -81 130 -54 93 -54 C54 -54 22 -85 22 -122 C22 -144 35 -157 57 -157 C85 -157 103 -137 107 -103 C124 -111 131 -122 131 -140 C131 -173 105 -207 43 -254 L54 -265 Z " />
<glyph glyph-name="circumflex" unicode="&#x2c6;" horiz-adv-x="522" d="M305 541 L422 465 C424 464 426 463 427 463 C430 463 432 464 432 467 C432 468 431 470 428 474 L321 617 L153 474 C148 470 146 467 146 465 C146 464 147 463 149 463 C151 463 153 464 155 465 L305 541 Z " />
<glyph glyph-name="caron" unicode="&#x2c7;" horiz-adv-x="522" d="M304 539 L187 615 C185 616 183 617 182 617 C179 617 177 616 177 613 C177 612 178 609 181 606 L288 463 L456 606 C461 610 463 613 463 615 C463 616 462 617 460 617 C458 617 456 616 454 615 L304 539 Z " />
<glyph glyph-name="uni02C9" unicode="&#x2c9;" horiz-adv-x="523" d="M433 499 L438 523 L165 523 L160 499 L433 499 Z " />
<glyph glyph-name="breve" unicode="&#x2d8;" horiz-adv-x="524" d="M441 610 C424 575 412 559 391 545 C370 531 333 521 302 521 C270 521 238 531 223 545 C208 559 202 576 201 610 L189 610 C188 598 188 593 188 587 C188 517 230 467 290 467 C359 467 422 523 453 610 L441 610 Z " />
<glyph glyph-name="dotaccent" unicode="&#x2d9;" horiz-adv-x="540" d="M324 587 C291 587 261 557 261 526 C261 502 278 485 302 485 C335 485 365 515 365 547 C365 570 348 587 324 587 L324 587 Z " />
<glyph glyph-name="ring" unicode="&#x2da;" horiz-adv-x="535" d="M329 615 C279 615 234 571 234 522 C234 487 259 463 295 463 C345 463 389 506 389 556 C389 590 363 615 329 615 L329 615 Z M322 588 C343 588 360 571 360 549 C360 519 330 490 300 490 C279 490 263 507 263 529 C263 558 293 588 322 588 L322 588 Z " />
<glyph glyph-name="ogonek" unicode="&#x2db;" horiz-adv-x="550" d="M348 0 C264 -29 223 -64 223 -107 C223 -140 250 -159 297 -159 C331 -159 353 -154 388 -138 L391 -124 C367 -132 353 -134 335 -134 C295 -134 277 -123 277 -98 C277 -60 307 -30 376 0 L348 0 Z " />
<glyph glyph-name="tilde" unicode="&#x2dc;" horiz-adv-x="520" d="M451 572 C431 550 412 541 388 541 C376 541 356 545 345 549 L308 563 C289 570 278 573 262 573 C215 573 185 554 146 499 L154 493 C175 516 194 524 223 524 C237 524 252 521 268 515 L304 502 C322 495 336 492 348 492 C386 492 415 511 460 567 L451 572 Z " />
<glyph glyph-name="hungarumlaut" unicode="&#x2dd;" horiz-adv-x="533" d="M472 613 L346 470 C345 469 344 467 344 465 C344 464 345 463 347 463 C348 463 350 464 353 466 L531 595 C538 599 542 604 542 607 C542 611 539 613 531 613 L472 613 Z M322 613 L196 470 C194 468 193 467 193 465 C193 464 194 463 196 463 C197 463 200 464 202 466 L381 595 C387 599 391 604 391 607 C391 611 388 613 380 613 L322 613 Z " />
<glyph glyph-name="Wdieresis" unicode="&#x1e84;" horiz-adv-x="862" d="M578 143 L522 431 L654 649 L715 649 L719 667 L60 667 L56 649 L121 649 L237 -10 L257 -10 L442 292 L496 -10 L515 -10 L884 649 L944 649 L948 667 L763 667 L759 649 L859 649 L578 143 Z M231 649 L374 649 L435 325 L319 135 L231 649 Z M489 649 L621 649 L517 467 L489 649 Z M459 823 C428 823 399 795 399 765 C399 743 415 727 438 727 C469 727 498 755 498 785 C498 807 482 823 459 823 L459 823 Z M692 823 C661 823 632 795 632 765 C632 743 648 727 671 727 C702 727 731 755 731 785 C731 807 715 823 692 823 L692 823 Z " />
<glyph glyph-name="uni2011" unicode="&#x2011;" horiz-adv-x="208" d="M185 230 L-22 230 L-35 170 L173 170 L185 230 Z " />
<glyph glyph-name="figuredash" unicode="&#x2012;" horiz-adv-x="550" d="M482 230 L24 230 L11 170 L469 170 L482 230 Z " />
<glyph glyph-name="endash" unicode="&#x2013;" horiz-adv-x="550" d="M482 230 L24 230 L11 170 L469 170 L482 230 Z " />
<glyph glyph-name="emdash" unicode="&#x2014;" horiz-adv-x="623" d="M601 230 L-22 230 L-35 170 L588 170 L601 230 Z " />
<glyph glyph-name="afii00208" unicode="&#x2015;" horiz-adv-x="623" d="M601 230 L-22 230 L-35 170 L588 170 L601 230 Z " />
<glyph glyph-name="quoteleft" unicode="&#x2018;" horiz-adv-x="262" d="M123 521 C125 568 159 614 235 675 L226 687 C142 625 96 558 96 496 C96 453 122 423 161 423 C202 423 237 459 237 503 C237 528 224 542 201 542 C172 542 152 519 147 479 C131 488 123 501 123 518 L123 521 Z " />
<glyph glyph-name="quoteright" unicode="&#x2019;" horiz-adv-x="262" d="M128 413 C211 475 257 543 257 604 C257 647 231 677 193 677 C151 677 116 641 116 597 C116 573 129 558 152 558 C181 558 201 581 207 621 C223 611 229 600 229 579 C229 535 196 489 118 425 L128 413 Z " />
<glyph glyph-name="quotesinglbase" unicode="&#x201a;" horiz-adv-x="276" d="M13 -152 C102 -91 151 -24 151 37 C151 81 122 112 79 112 C33 112 -4 77 -4 34 C-4 8 11 -7 36 -7 C69 -7 90 16 95 56 C116 46 124 33 124 12 C124 -31 88 -77 2 -140 L13 -152 Z " />
<glyph glyph-name="quotedblleft" unicode="&#x201c;" horiz-adv-x="496" d="M357 521 C359 568 393 614 470 675 L460 687 C376 625 330 558 330 496 C330 453 356 423 395 423 C436 423 471 459 471 503 C471 527 458 542 435 542 C406 542 386 519 381 479 C365 488 357 501 357 518 L357 521 Z M123 521 C125 568 159 614 235 675 L226 687 C142 625 96 558 96 496 C96 453 122 423 161 423 C202 423 237 459 237 503 C237 528 224 542 201 542 C172 542 152 519 147 479 C131 488 123 501 123 518 L123 521 Z " />
<glyph glyph-name="quotedblright" unicode="&#x201d;" horiz-adv-x="496" d="M128 413 C211 475 257 543 257 604 C257 647 231 677 193 677 C151 677 116 641 116 597 C116 573 129 558 152 558 C181 558 201 581 207 621 C223 611 229 600 229 579 C229 535 196 489 118 425 L128 413 Z M362 413 C445 475 491 543 491 604 C491 647 465 677 427 677 C385 677 350 641 350 597 C350 573 363 558 386 558 C416 558 436 581 441 621 C457 611 463 600 463 579 C463 535 430 489 352 425 L362 413 Z " />
<glyph glyph-name="quotedblbase" unicode="&#x201e;" horiz-adv-x="510" d="M13 -152 C102 -91 151 -24 151 37 C151 81 122 112 79 112 C33 112 -4 77 -4 34 C-4 8 11 -7 36 -7 C69 -7 90 16 95 56 C116 46 124 33 124 12 C124 -31 88 -77 2 -140 L13 -152 Z M247 -152 C337 -90 385 -24 385 37 C385 81 356 112 313 112 C267 112 230 77 230 34 C230 8 245 -7 270 -7 C303 -7 324 16 329 56 C350 46 358 33 358 12 C358 -31 322 -77 236 -140 L247 -152 Z " />
<glyph glyph-name="dagger" unicode="&#x2020;" horiz-adv-x="550" d="M293 376 L470 339 C476 337 481 337 490 337 C530 337 561 361 561 391 C561 414 541 429 509 429 C501 429 495 428 489 427 L296 388 L360 531 C378 569 390 613 390 636 C390 663 376 677 349 677 C320 677 299 661 288 630 C280 608 274 570 274 539 L274 531 L278 388 L102 427 C96 428 90 429 82 429 C42 429 11 405 11 374 C11 351 31 337 62 337 C71 337 77 337 83 339 L276 376 L163 17 C134 -68 124 -107 124 -139 C124 -168 141 -190 163 -190 C193 -190 220 -163 232 -122 C243 -87 248 -56 253 17 L293 376 Z " />
<glyph glyph-name="daggerdbl" unicode="&#x2021;" horiz-adv-x="550" d="M282 407 L106 446 C101 448 95 448 87 448 C46 448 15 424 15 393 C15 370 35 356 67 356 C74 356 80 357 87 358 L280 395 C274 366 242 292 220 255 C221 229 221 216 221 200 L219 109 L43 148 C37 149 30 150 23 150 C-17 150 -48 126 -48 95 C-48 72 -28 58 3 58 C13 58 18 58 24 59 L217 96 L156 -43 C126 -111 123 -121 123 -148 C123 -176 137 -190 164 -190 C193 -190 214 -174 225 -143 C234 -118 236 -105 235 -43 L234 96 L411 59 C419 58 426 57 431 57 C471 57 502 81 502 112 C502 135 482 150 450 150 C443 150 437 149 430 148 L237 109 C269 190 277 210 298 255 C295 282 293 306 293 333 C293 351 294 363 297 395 L474 358 C481 357 487 356 494 356 C534 356 565 380 565 411 C565 434 545 449 513 449 C509 449 501 448 493 446 L300 407 L357 531 C383 587 390 609 390 636 C390 663 376 677 349 677 C301 677 278 637 278 556 L278 531 L282 407 Z " />
<glyph glyph-name="bullet" unicode="&#x2022;" horiz-adv-x="733" d="M399 480 C302 480 214 400 214 313 C214 247 266 200 338 200 C434 200 522 281 522 367 C522 432 470 480 399 480 L399 480 Z " />
<glyph glyph-name="ellipsis" unicode="&#x2026;" horiz-adv-x="814" d="M88 107 C49 107 12 74 12 39 C12 13 34 -7 63 -7 C103 -7 139 25 139 61 C139 88 117 107 88 107 L88 107 Z M359 107 C320 107 283 74 283 39 C283 13 305 -7 334 -7 C374 -7 411 25 411 61 C411 88 389 107 359 107 L359 107 Z M631 107 C592 107 555 74 555 39 C555 13 577 -7 606 -7 C646 -7 682 25 682 61 C682 88 660 107 631 107 L631 107 Z " />
<glyph glyph-name="perthousand" unicode="&#x2030;" horiz-adv-x="1108" d="M245 653 C153 653 60 551 60 451 C60 374 107 319 172 319 C265 319 358 420 358 521 C358 599 311 653 245 653 L245 653 Z M140 521 C158 606 183 635 241 635 C282 635 301 617 301 579 C301 565 298 546 293 521 L278 451 C260 366 235 337 177 337 C136 337 117 355 117 393 C117 407 120 427 125 451 L140 521 Z M626 647 L593 647 L126 0 L158 0 L626 647 Z M575 328 C482 328 387 226 387 127 C387 50 435 -6 503 -6 C597 -6 692 95 692 195 C692 273 644 328 575 328 L575 328 Z M467 196 C485 281 512 310 572 310 C615 310 635 292 635 252 C635 239 632 221 627 196 L612 126 C594 41 568 12 508 12 C465 12 445 30 445 69 C445 84 448 105 452 126 L467 196 Z M931 328 C839 328 746 226 746 126 C746 49 793 -6 858 -6 C951 -6 1044 95 1044 196 C1044 274 997 328 931 328 L931 328 Z M826 196 C844 281 869 310 927 310 C968 310 987 292 987 254 C987 240 984 220 979 196 L964 126 C946 41 921 12 863 12 C822 12 803 30 803 67 C803 82 806 101 811 126 L826 196 Z " />
<glyph glyph-name="guilsinglleft" unicode="&#x2039;" horiz-adv-x="288" d="M23 200 L123 96 L178 96 L79 200 L223 304 L168 304 L23 200 Z " />
<glyph glyph-name="guilsinglright" unicode="&#x203a;" horiz-adv-x="288" d="M208 200 L107 304 L52 304 L152 200 L8 96 L63 96 L208 200 Z " />
<glyph glyph-name="uni203E" unicode="&#x203e;" horiz-adv-x="500" d="M110 847 L101 807 L601 807 L610 847 L110 847 Z " />
<glyph glyph-name="fraction" unicode="&#x2044;" horiz-adv-x="125" d="M313 647 L276 647 L-192 0 L-155 0 L313 647 Z " />
<glyph glyph-name="franc" unicode="&#x20a3;" horiz-adv-x="784" d="M630 667 L108 667 L104 649 L199 649 L65 18 L-30 18 L-34 0 L267 0 L271 18 L159 18 L225 329 L296 329 C377 329 404 310 404 253 C404 243 403 236 401 227 L397 205 L411 205 L469 475 L454 475 L450 457 C426 364 401 345 301 347 L228 347 L292 649 L426 649 C499 649 532 639 556 610 C577 585 589 544 589 498 L589 475 L603 475 L630 667 Z M623 361 L473 361 L469 343 L543 343 L474 18 L400 18 L397 0 L628 0 L631 18 L550 18 L570 109 C587 190 597 218 626 265 C654 309 682 334 704 334 C711 334 717 330 717 324 C717 322 717 320 716 318 C714 305 714 303 714 299 C714 280 726 268 746 268 C776 268 803 296 803 328 C803 355 783 371 749 371 C693 371 654 342 602 261 L623 361 Z " />
<glyph glyph-name="Euro" unicode="&#x20ac;" horiz-adv-x="703" d="M115 350 C113 341 109 324 108 317 L56 317 L36 287 L103 287 C101 271 101 262 101 248 C101 101 208 -10 349 -10 C412 -10 465 6 546 50 L571 0 L586 0 L625 185 L611 185 C577 133 559 110 532 85 C480 37 415 10 350 10 C256 10 194 60 194 135 C194 173 196 188 214 284 L215 287 L469 287 L489 317 L221 317 C222 321 222 321 222 324 C224 332 226 339 227 347 L228 350 L513 350 L534 380 L235 380 C264 503 283 550 317 587 C355 630 423 657 490 657 C534 657 576 646 606 626 C650 596 671 558 676 494 L691 494 L728 667 L713 667 L666 617 C612 661 568 677 504 677 C391 677 274 615 195 513 C164 473 142 433 124 380 L70 380 L49 350 L115 350 Z " />
<glyph glyph-name="trademark" unicode="&#x2122;" horiz-adv-x="899" d="M295 649 L325 649 C383 648 401 625 410 542 L427 544 L444 667 L94 667 L63 544 L79 542 C115 622 152 653 207 649 L233 649 L160 305 L96 305 L92 287 L288 287 L292 305 L222 305 L295 649 Z M584 287 L602 287 L800 625 L732 305 L670 305 L666 287 L845 287 L849 305 L794 305 L867 649 L922 649 L926 667 L800 667 L642 397 L604 667 L469 667 L465 649 L516 649 L443 305 L392 305 L388 287 L518 287 L522 305 L464 305 L533 628 L584 287 Z " />
<glyph glyph-name="uni2126" unicode="&#x2126;" horiz-adv-x="768" d="M326 0 L308 155 C230 199 180 288 180 383 C180 434 196 493 221 540 C257 605 316 642 385 642 C454 642 513 605 549 540 C575 493 590 435 590 381 C590 288 540 199 462 155 L444 0 L736 0 L736 153 L712 153 C704 108 684 90 643 90 L497 90 L500 128 C535 141 557 151 580 166 C657 215 702 296 702 382 C702 449 673 522 625 578 C564 648 480 686 385 686 C290 686 206 648 145 578 C97 522 68 448 68 382 C68 296 114 215 190 166 C213 151 234 141 270 128 L273 90 L127 90 C86 90 66 108 58 153 L34 153 L34 0 L326 0 Z " />
<glyph glyph-name="partialdiff" unicode="&#x2202;" horiz-adv-x="494" d="M107 674 C151 697 184 706 219 706 C321 706 379 611 379 448 C379 418 377 395 372 346 C308 396 272 412 221 412 C172 412 131 394 95 355 C51 309 26 246 26 184 C26 76 109 -10 213 -10 C282 -10 341 23 383 84 C429 152 462 286 462 403 C462 519 428 611 360 681 C312 730 259 753 194 753 C155 753 122 746 66 725 L107 674 Z M366 312 C350 201 340 158 314 107 C288 54 245 21 201 21 C147 21 113 74 113 159 C113 273 180 367 261 367 C299 367 324 354 366 312 L366 312 Z " />
<glyph glyph-name="Delta" unicode="&#x2206;" horiz-adv-x="612" d="M6 0 L608 0 L327 688 L6 0 Z M77 51 L290 509 L479 51 L77 51 Z " />
<glyph glyph-name="product" unicode="&#x220f;" horiz-adv-x="823" d="M25 -124 L315 -124 L315 -98 L312 -98 C242 -94 221 -67 224 18 L224 594 C224 656 228 677 242 690 C260 707 271 708 413 708 C557 708 567 707 586 690 C600 677 604 656 604 594 L604 18 C607 -67 586 -94 516 -98 L513 -98 L513 -124 L803 -124 L803 -98 L800 -98 C730 -94 709 -67 712 18 L712 609 C709 694 730 721 800 725 L803 725 L803 751 L25 751 L25 725 L28 725 C98 721 119 694 116 609 L116 18 C119 -67 98 -94 28 -98 L25 -98 L25 -124 Z " />
<glyph glyph-name="summation" unicode="&#x2211;" horiz-adv-x="713" d="M176 711 L444 711 C560 710 590 688 606 587 L632 587 L622 752 L23 752 L256 285 L14 -123 L641 -123 L695 87 L669 87 C639 7 605 -12 491 -11 L163 -11 L364 341 L176 711 Z " />
<glyph glyph-name="minus" unicode="&#x2212;" horiz-adv-x="550" d="M495 339 L57 339 L51 309 L488 309 L495 339 Z " />
<glyph glyph-name="uni2215" unicode="&#x2215;" horiz-adv-x="125" d="M313 647 L276 647 L-192 0 L-155 0 L313 647 Z " />
<glyph glyph-name="uni2219" unicode="&#x2219;" horiz-adv-x="271" d="M120 257 C81 257 44 224 44 189 C44 163 66 143 95 143 C135 143 171 175 171 211 C171 238 149 257 120 257 L120 257 Z " />
<glyph glyph-name="radical" unicode="&#x221a;" horiz-adv-x="549" d="M363 -35 L515 908 L480 913 L353 123 L156 520 L10 449 L26 414 L121 461 L363 -35 Z " />
<glyph glyph-name="infinity" unicode="&#x221e;" horiz-adv-x="713" d="M357 227 C415 156 485 115 549 115 C631 115 688 176 688 266 C688 354 629 414 543 414 C476 414 412 376 357 303 C300 375 234 414 171 414 C87 414 26 351 26 263 C26 176 84 115 167 115 C224 115 281 142 327 192 L357 227 Z M391 264 C434 325 493 362 546 362 C600 362 638 321 638 264 C638 205 603 167 549 167 C495 167 461 188 391 264 L391 264 Z M324 266 C276 204 215 167 163 167 C111 167 76 208 76 266 C76 323 113 362 167 362 C218 362 258 338 324 266 L324 266 Z " />
<glyph glyph-name="integral" unicode="&#x222b;" horiz-adv-x="274" d="M180 576 C180 653 179 691 176 746 C174 774 173 800 173 815 C173 855 184 878 202 878 C208 878 213 876 215 872 C232 845 239 839 256 839 C276 839 291 853 291 871 C291 898 267 916 231 916 C186 916 152 887 138 838 C123 784 113 682 113 577 L113 232 C113 160 114 124 117 63 C119 34 120 4 120 -12 C120 -47 108 -70 89 -70 C81 -70 75 -65 68 -52 C59 -35 51 -30 37 -30 C17 -30 2 -44 2 -63 C2 -89 26 -107 62 -107 C107 -107 141 -79 155 -29 C170 25 180 126 180 232 L180 576 Z " />
<glyph glyph-name="approxequal" unicode="&#x2248;" horiz-adv-x="549" d="M489 251 C444 199 423 187 384 187 C365 187 354 190 285 211 C212 234 188 239 160 239 C101 239 54 212 14 155 L57 121 C103 174 120 184 159 184 C180 184 180 184 271 157 C350 133 354 132 385 132 C449 132 496 160 527 217 L489 251 Z M489 408 C444 356 423 344 384 344 C365 344 354 347 285 369 C211 392 188 397 160 397 C101 397 54 369 14 312 L57 279 C104 332 119 342 159 342 C181 342 181 342 271 315 C351 290 354 289 385 289 C449 289 496 318 527 375 L489 408 Z " />
<glyph glyph-name="notequal" unicode="&#x2260;" horiz-adv-x="549" d="M187 142 L115 -1 L161 -25 L246 142 L540 142 L540 197 L273 197 L344 336 L540 336 L540 391 L371 391 L439 525 L392 549 L312 391 L15 391 L15 336 L285 336 L215 197 L15 197 L15 142 L187 142 Z " />
<glyph glyph-name="lessequal" unicode="&#x2264;" horiz-adv-x="549" d="M467 55 L-30 55 L-42 0 L455 0 L467 55 Z M591 639 L44 405 L32 350 L480 117 L493 179 L117 378 L578 577 L591 639 Z " />
<glyph glyph-name="greaterequal" unicode="&#x2265;" horiz-adv-x="549" d="M467 55 L-30 55 L-42 0 L455 0 L467 55 Z M94 639 L81 577 L457 378 L-4 179 L-17 117 L529 350 L541 405 L94 639 Z " />
<glyph glyph-name="lozenge" unicode="&#x25ca;" horiz-adv-x="494" d="M209 0 L269 -1 L466 374 L277 740 L214 740 L18 377 L209 0 Z M240 58 L81 376 L245 683 L402 373 L240 58 Z " />
<glyph glyph-name="fi" unicode="&#xfb01;" horiz-adv-x="573" d="M202 387 L234 540 C252 623 303 663 391 663 C429 663 457 657 480 644 C456 627 444 607 444 583 C444 560 461 544 486 544 C518 544 547 573 547 605 C547 650 487 682 403 682 C333 682 267 659 218 618 C182 588 160 549 148 495 L125 387 L29 387 L25 369 L121 369 L47 18 L-49 18 L-53 0 L201 0 L205 18 L124 18 L198 369 L411 369 L337 18 L256 18 L252 0 L483 0 L487 18 L414 18 L492 387 L202 387 Z " />
<glyph glyph-name="fl" unicode="&#xfb02;" horiz-adv-x="573" d="M414 18 L554 680 L475 671 C444 680 429 682 401 682 C267 682 173 612 148 495 L125 387 L29 387 L25 369 L121 369 L47 18 L-49 18 L-53 0 L201 0 L205 18 L124 18 L198 369 L310 369 L314 387 L202 387 L234 540 C252 623 299 663 379 663 C430 663 458 643 458 604 C458 592 456 580 450 549 L337 18 L256 18 L252 0 L494 0 L498 18 L414 18 Z " />
</font>
</svg>
